<?xml version="1.0" encoding="UTF-8"?>
<svg id="Layer_2" data-name="Layer 2" xmlns="http://www.w3.org/2000/svg" viewBox="0 0 68.86 81.36" fill="currentColor">
  <defs>
    <style>
      .cls-1 {
        fill: #fff;
      }

      .cls-1, .cls-2, .cls-3, .cls-4 {
        fill-rule: evenodd;
      }

      .cls-2 {
        fill: #1a87c7;
      }

      .cls-3 {
        fill: #bdedf8;
      }

      .cls-4 {
        fill: #66ceef;
      }
    </style>
  </defs>
  <g id="_Layer_" data-name="&amp;lt;Layer&amp;gt;">
    <g>
      <polygon class="cls-4" points="20.25 74.48 .62 63.15 48.61 35.44 68.24 46.78 20.25 74.48"/>
      <path class="cls-2" d="M1.85,63.15l18.4,10.62,46.77-27-18.4-10.63L1.85,63.15h0ZM20.25,75.1c-.11,0-.21-.03-.3-.08L.31,63.68c-.19-.11-.31-.32-.31-.53s.12-.42.31-.53l47.99-27.71c.19-.11.43-.11.62,0l19.63,11.33c.19.11.31.31.31.53s-.12.42-.31.53l-48,27.7c-.09.06-.2.08-.31.08Z"/>
      <polygon class="cls-4" points="20.25 80.74 .62 69.41 .62 63.15 20.25 74.48 20.25 80.74"/>
      <path class="cls-2" d="M1.23,69.05l18.4,10.62v-4.83L1.23,64.22v4.83h0ZM20.25,81.36c-.11,0-.21-.03-.3-.08L.31,69.94c-.19-.11-.31-.31-.31-.53v-6.26c0-.22.12-.42.31-.53.19-.11.42-.11.62,0l19.63,11.33c.2.11.31.31.31.53v6.26c0,.22-.12.42-.31.53-.09.05-.2.08-.31.08Z"/>
      <polygon class="cls-4" points="20.25 74.48 68.24 46.78 68.24 53.03 20.25 80.74 20.25 74.48"/>
      <path class="cls-2" d="M20.87,74.84v4.83l46.77-27v-4.83l-46.77,27h0ZM20.25,81.36c-.11,0-.21-.03-.3-.08-.19-.11-.31-.31-.31-.53v-6.26c0-.22.12-.42.31-.53l47.99-27.71c.19-.11.42-.11.62,0,.19.11.31.31.31.53v6.26c0,.22-.12.42-.31.53l-48,27.71c-.09.05-.2.08-.31.08Z"/>
      <polygon class="cls-3" points="33.66 61.87 22.88 55.65 22.88 7.97 33.66 14.19 33.66 61.87"/>
      <path class="cls-2" d="M23.5,55.29l9.54,5.51V14.55l-9.54-5.51v46.25h0ZM33.66,62.49c-.11,0-.21-.03-.31-.08l-10.78-6.22c-.19-.11-.31-.31-.31-.53V7.97c0-.23.12-.42.31-.54.19-.11.42-.11.62,0l10.78,6.22c.19.11.31.32.31.53v47.68c0,.22-.12.42-.31.53-.09.05-.2.08-.31.08Z"/>
      <polygon class="cls-3" points="33.66 14.19 22.88 7.97 35.62 .61 46.4 6.84 33.66 14.19"/>
      <path class="cls-2" d="M24.11,7.97l9.55,5.51,11.51-6.64-9.55-5.51-11.51,6.65h0ZM33.66,14.81c-.11,0-.21-.03-.31-.08l-10.78-6.22c-.19-.11-.31-.31-.31-.53,0-.23.12-.42.31-.54L35.31.08c.19-.11.42-.11.61,0l10.78,6.22c.19.11.31.31.31.53s-.12.42-.31.53l-12.74,7.36c-.09.06-.2.08-.31.08Z"/>
      <polygon class="cls-1" points="33.66 40.47 22.88 34.24 10.13 41.6 20.91 47.82 33.66 40.47"/>
      <path class="cls-2" d="M11.37,41.6l9.54,5.51,11.51-6.64-9.55-5.51-11.51,6.65h0ZM20.91,48.44c-.1,0-.21-.03-.3-.08l-10.78-6.23c-.19-.11-.31-.31-.31-.53s.12-.43.31-.53l12.74-7.36c.19-.11.42-.11.62,0l10.78,6.23c.19.11.31.31.31.53s-.12.42-.31.53l-12.74,7.36c-.1.05-.2.08-.31.08Z"/>
      <polygon class="cls-1" points="20.91 47.82 10.13 41.6 10.13 63 20.91 69.23 20.91 47.82"/>
      <path class="cls-2" d="M10.75,62.65l9.54,5.51v-19.98l-9.54-5.51v19.98h0ZM20.91,69.85c-.1,0-.21-.03-.3-.08l-10.78-6.22c-.19-.11-.31-.31-.31-.53v-21.4c0-.22.12-.43.31-.53.19-.12.42-.12.61,0l10.78,6.22c.19.11.31.31.31.54v21.4c0,.22-.12.42-.31.53-.1.05-.2.08-.31.08Z"/>
      <polygon class="cls-4" points="46.4 54.51 35.62 48.29 35.62 17.22 46.4 23.44 46.4 54.51"/>
      <path class="cls-2" d="M36.23,47.93l9.55,5.51v-29.65l-9.55-5.51v29.65h0ZM46.4,55.13c-.11,0-.22-.03-.31-.08l-10.78-6.22c-.19-.11-.31-.31-.31-.53v-31.07c0-.22.12-.42.31-.54.19-.11.42-.11.61,0l10.78,6.23c.19.11.31.31.31.53v31.08c0,.22-.12.42-.31.53-.09.05-.2.08-.3.08Z"/>
      <polygon class="cls-4" points="46.4 23.44 35.62 17.22 48.36 9.86 59.14 16.09 46.4 23.44"/>
      <path class="cls-2" d="M36.85,17.22l9.55,5.51,11.51-6.64-9.54-5.51-11.51,6.64h0ZM46.4,24.06c-.11,0-.21-.03-.31-.08l-10.78-6.22c-.19-.11-.31-.31-.31-.53s.12-.42.31-.54l12.74-7.35c.19-.12.42-.12.61,0l10.78,6.22c.19.11.31.31.31.54s-.12.42-.31.53l-12.74,7.35c-.09.06-.2.08-.31.08Z"/>
      <polygon class="cls-4" points="46.4 54.51 46.4 23.44 59.14 16.09 59.14 47.16 46.4 54.51"/>
      <path class="cls-2" d="M47.01,23.79v29.65l11.51-6.64v-29.65l-11.51,6.64h0ZM46.4,55.13c-.11,0-.22-.03-.31-.08-.19-.11-.31-.31-.31-.53v-31.08c0-.22.12-.42.31-.53l12.74-7.36c.19-.11.42-.11.62,0,.19.11.3.31.3.54v31.07c0,.22-.12.42-.31.53l-12.74,7.36c-.09.05-.2.08-.3.08Z"/>
      <polygon class="cls-1" points="33.66 61.87 33.66 40.47 20.91 47.82 20.91 69.23 33.66 61.87"/>
      <path class="cls-2" d="M33.66,61.87h.02-.02ZM21.53,48.18v19.98l11.51-6.64v-19.98l-11.51,6.64h0ZM20.91,69.85c-.1,0-.21-.03-.3-.08-.19-.11-.31-.31-.31-.53v-21.4c0-.22.12-.42.31-.54l12.74-7.36c.19-.11.42-.11.62,0,.19.11.31.31.31.53v21.4c0,.22-.12.42-.31.53l-12.74,7.36c-.1.05-.2.08-.31.08Z"/>
      <polygon class="cls-3" points="33.66 61.87 33.66 14.19 46.4 6.84 46.4 54.51 33.66 61.87"/>
      <path class="cls-2" d="M34.27,14.55v46.25l11.51-6.64V7.91l-11.51,6.64h0ZM33.66,62.49c-.11,0-.21-.03-.31-.08-.19-.11-.31-.31-.31-.53V14.19c0-.22.12-.42.31-.53l12.74-7.35c.19-.12.42-.12.61,0,.19.11.31.31.31.53v47.68c0,.22-.12.42-.31.53l-12.74,7.36c-.09.05-.2.08-.31.08Z"/>
    </g>
  </g>
</svg>