<?xml version="1.0" encoding="UTF-8"?>
<svg id="Layer_2" data-name="Layer 2" xmlns="http://www.w3.org/2000/svg" viewBox="0 0 22.4 40.98" fill="currentColor">
  <defs>
    <style>
      .cls-1 {
        fill: #fff;
      }

      .cls-1, .cls-2, .cls-3, .cls-4 {
        fill-rule: evenodd;
      }

      .cls-2 {
        fill: #1a87c7;
      }

      .cls-3 {
        fill: #bdedf8;
      }

      .cls-4 {
        fill: #66ceef;
      }
    </style>
  </defs>
  <g id="_Layer_" data-name="&amp;lt;Layer&amp;gt;">
    <g>
      <path class="cls-4" d="M3.38,40.54l-2.51-1.45c-.48-.39-.51-.64-.56-1.24v-8.57s.83-1,.83-1v-1.68s-.82-.48-.82-.48v-2.21l2.96-4.31v-8.48c.02-.47.09-.77.24-1.21.45-1.1.97-1.74,1.99-2.33L17.67.56c.55-.25.78-.35,1.35-.13l2.51,1.45c-.58-.22-.81-.12-1.35.13l-12.16,7.01c-1.03.59-1.55,1.23-1.99,2.33-.15.45-.22.74-.24,1.21v8.48s-2.97,4.31-2.97,4.31v1.61l.82.47v2.29l-.83,1v8.57c.05.6.08.85.56,1.24Z"/>
      <path class="cls-2" d="M.62,29.4v8.45c.05.54.06.69.45,1l1.49.85c-.02-.12-.03-.24-.04-.38v-8.6c0-.07.03-.14.07-.2l.76-.91v-2s-.67-.39-.67-.39c-.1-.06-.15-.16-.15-.26v-1.61c0-.06.02-.12.05-.18l2.91-4.23v-8.39c.03-.55.11-.87.26-1.31.49-1.21,1.07-1.89,2.13-2.5L20.02,1.74c.14-.06.26-.12.37-.16l-1.53-.88c-.42-.15-.56-.09-1.07.14L5.66,7.84c-.94.55-1.43,1.12-1.86,2.18-.13.38-.19.65-.21,1.11v8.47c0,.06-.02.12-.06.17l-2.91,4.23v1.94s.67.39.67.39c.09.05.15.16.15.27v1.68c0,.07-.03.14-.07.19l-.76.92h0ZM3.38,40.85c-.05,0-.11-.01-.15-.04l-2.51-1.45c-.6-.49-.66-.82-.72-1.48v-8.6c0-.07.03-.14.07-.19l.76-.92v-1.39l-.67-.39c-.1-.06-.15-.16-.15-.27v-2.21c0-.06.02-.12.06-.17l2.91-4.23v-8.39c.03-.54.11-.86.26-1.31.49-1.21,1.07-1.89,2.13-2.5L17.52.29c.62-.29.94-.41,1.62-.15l2.55,1.47c.14.08.19.25.13.4-.07.14-.24.21-.39.15-.47-.18-.6-.11-1.12.12l-12.13,7c-.94.55-1.43,1.12-1.86,2.18-.13.38-.19.65-.21,1.11v8.47c0,.06-.02.12-.06.18l-2.91,4.23v1.34l.67.39c.1.06.15.16.15.27v2.29c0,.07-.03.14-.07.2l-.76.91v8.46c.05.53.06.69.45,1,.12.1.15.28.06.41-.06.09-.16.13-.25.13Z"/>
      <path class="cls-3" d="M20.17,31.51l-15.44,8.9c-1.05.61-1.92.11-1.92-1.11v-8.57s.83-1,.83-1v-2.29l-.82.13v-2.21l2.97-4.31v-8.48c0-1.52,1.03-2.85,2.23-3.55l12.16-7.01c1.06-.61,1.91-.11,1.91,1.11,0,8.36,0,16.71,0,25.07,0,1.22-.86,2.71-1.92,3.32Z"/>
      <path class="cls-2" d="M20.17,31.51h0,0ZM3.13,30.84v8.46c0,.47.14.82.4.97.27.15.64.1,1.05-.13l15.44-8.91c.95-.55,1.76-1.95,1.76-3.05V3.12c.01-.47-.14-.82-.4-.97-.27-.15-.63-.1-1.05.13l-12.16,7.01c-.96.55-2.08,1.74-2.08,3.28v8.48c0,.06-.02.12-.06.18l-2.91,4.23v1.76l.47-.07c.09-.01.18.01.25.07.07.06.11.14.11.23v2.29c0,.07-.03.14-.07.2l-.76.91h0ZM3.88,40.98c-.24,0-.46-.05-.66-.17-.46-.27-.72-.8-.72-1.51v-8.57c0-.07.03-.14.07-.2l.76-.91v-1.82s-.47.07-.47.07c-.09.02-.18-.01-.25-.07-.07-.06-.11-.14-.11-.23v-2.21c0-.06.02-.12.05-.18l2.91-4.23v-8.39c0-1.48.94-2.98,2.39-3.81L20.02,1.74c.61-.35,1.2-.4,1.66-.13.46.27.72.8.72,1.51v25.07c-.01,1.32-.94,2.93-2.08,3.59h0l-15.44,8.9c-.35.2-.69.3-1.01.3Z"/>
      <path class="cls-1" d="M19.67,5.35v7.24c0,.13-.09.28-.2.35l-2.54,1.46v-7.59s2.52-1.45,2.52-1.45c.09-.05.17-.05.22-.01Z"/>
      <path class="cls-2" d="M17.24,6.99v6.88s2.08-1.2,2.08-1.2c.02-.01.04-.06.05-.08v-6.82s-2.12,1.23-2.12,1.23h0ZM16.93,14.71c-.05,0-.11-.01-.15-.04-.1-.06-.15-.16-.15-.27v-7.59c0-.11.06-.21.16-.27l2.52-1.45c.19-.11.4-.11.55,0,.08.06.13.15.13.25v7.24c0,.23-.15.5-.36.61l-2.54,1.47s-.1.04-.15.04Z"/>
      <polygon class="cls-1" points="12.47 16.97 12.48 9.38 15.22 7.8 15.21 15.39 12.47 16.97"/>
      <path class="cls-2" d="M12.78,9.56v6.87s2.12-1.22,2.12-1.22v-6.88s-2.12,1.23-2.12,1.23h0ZM12.47,17.28c-.05,0-.11-.01-.15-.04-.1-.05-.15-.16-.15-.26v-7.59c0-.11.06-.21.16-.26l2.74-1.58c.1-.06.21-.06.31,0,.1.05.15.15.15.26v7.59c0,.11-.06.21-.16.26l-2.74,1.58s-.1.04-.15.04Z"/>
      <polygon class="cls-1" points="10.76 10.38 10.76 17.96 8.02 19.54 8.02 11.95 10.76 10.38"/>
      <path class="cls-2" d="M8.33,12.13v6.87s2.12-1.22,2.12-1.22v-6.88s-2.12,1.23-2.12,1.23h0ZM8.02,19.85c-.05,0-.11-.01-.16-.04-.09-.06-.15-.16-.15-.27v-7.59c0-.11.06-.21.16-.27l2.74-1.58c.09-.06.21-.06.31,0,.1.05.15.16.15.27v7.59c0,.11-.06.21-.16.26l-2.74,1.58s-.1.04-.15.04Z"/>
      <path class="cls-3" d="M3.53,9.88l2.51,1.45c.44-1.09.97-1.72,1.98-2.31l12.16-7.01c.55-.25.78-.35,1.35-.13l-2.51-1.45c-.58-.22-.8-.12-1.35.13L5.51,7.57c-1.01.58-1.54,1.22-1.98,2.31Z"/>
      <path class="cls-2" d="M3.92,9.75l1.97,1.14c.45-.97,1.03-1.59,1.98-2.13L20.02,1.74c.14-.06.26-.12.37-.16l-1.53-.88c-.42-.15-.56-.09-1.07.14L5.66,7.84c-.85.49-1.35,1.02-1.75,1.91h0ZM6.04,11.64c-.05,0-.11-.01-.15-.04l-2.51-1.45c-.13-.08-.19-.24-.13-.38.47-1.16,1.06-1.85,2.11-2.46L17.52.29c.62-.29.94-.41,1.62-.15l2.55,1.47c.14.08.19.25.13.4-.07.14-.24.21-.39.15-.47-.18-.6-.11-1.12.12l-12.13,7c-.94.55-1.43,1.11-1.85,2.16-.03.08-.1.14-.18.17-.03.01-.07.02-.1.02Z"/>
      <path class="cls-2" d="M2.82,27.88c-.05,0-.11-.01-.15-.04l-2.51-1.45c-.15-.09-.2-.28-.11-.42.08-.15.27-.2.42-.11l2.51,1.45c.15.09.2.27.11.42-.06.1-.16.15-.27.15Z"/>
      <path class="cls-2" d="M2.82,25.67c-.05,0-.11-.01-.15-.04l-2.51-1.45c-.15-.09-.2-.27-.11-.42.09-.15.27-.2.42-.11l2.51,1.45c.15.09.2.27.11.42-.06.1-.16.15-.27.15Z"/>
      <path class="cls-2" d="M5.78,21.36c-.05,0-.11-.01-.15-.04l-2.51-1.45c-.15-.08-.2-.27-.11-.42.08-.15.27-.2.42-.11l2.51,1.45c.15.08.2.27.11.42-.06.1-.16.16-.27.16Z"/>
      <path class="cls-2" d="M2.82,31.04c-.05,0-.11-.01-.15-.04l-2.51-1.45c-.15-.08-.2-.27-.11-.42.08-.15.28-.2.42-.12l2.51,1.45c.15.09.2.27.11.42-.06.1-.16.15-.27.15Z"/>
      <path class="cls-2" d="M3.64,30.04c-.05,0-.11-.01-.16-.04l-2.51-1.45c-.15-.09-.2-.27-.11-.42.09-.15.27-.19.42-.11l2.51,1.45c.15.09.2.27.11.42-.06.1-.16.15-.27.15Z"/>
    </g>
  </g>
</svg>