<?xml version="1.0" encoding="UTF-8"?>
<svg id="Layer_2" data-name="Layer 2" xmlns="http://www.w3.org/2000/svg" viewBox="0 0 26.97 42.37" fill="currentColor">
  <defs>
    <style>
      .cls-1 {
        fill: #fff;
      }

      .cls-1, .cls-2, .cls-3, .cls-4 {
        fill-rule: evenodd;
      }

      .cls-2 {
        fill: #1a87c7;
      }

      .cls-3 {
        fill: #bdedf8;
      }

      .cls-4 {
        fill: #66ceef;
      }
    </style>
  </defs>
  <g id="_Layer_" data-name="&amp;lt;Layer&amp;gt;">
    <g>
      <polygon class="cls-4" points="3.66 15.5 .32 13.57 .31 40.13 3.65 42.06 3.66 15.5"/>
      <path class="cls-2" d="M.62,39.95l2.72,1.57V15.68s-2.72-1.57-2.72-1.57v25.85h0ZM3.65,42.37c-.05,0-.11-.01-.15-.04l-3.34-1.93c-.1-.06-.16-.16-.16-.27V13.57c.01-.11.07-.21.17-.27.09-.05.21-.05.31,0l3.34,1.93c.09.06.15.16.15.27v26.56c0,.11-.07.21-.16.27-.05.03-.1.04-.16.04Z"/>
      <polygon class="cls-3" points="26.65 2.24 23.31 .31 .32 13.57 3.66 15.5 26.65 2.24"/>
      <path class="cls-2" d="M.93,13.57l2.73,1.57L26.04,2.24l-2.72-1.57L.93,13.57h0ZM3.66,15.81c-.05,0-.11-.01-.16-.04L.17,13.84c-.1-.06-.16-.16-.16-.27s.06-.21.16-.27L23.16.04c.09-.05.21-.05.31,0l3.34,1.93c.09.06.15.16.15.27s-.06.21-.15.26L3.81,15.77s-.1.04-.15.04Z"/>
      <polygon class="cls-3" points="3.66 15.5 3.65 42.06 26.64 28.79 26.66 2.24 23.77 3.9 3.66 15.5"/>
      <path class="cls-2" d="M3.97,15.68v25.85s22.37-12.91,22.37-12.91V2.77S3.97,15.68,3.97,15.68h0ZM3.65,42.37c-.05,0-.11-.01-.15-.04-.1-.06-.15-.15-.15-.27V15.5c.01-.11.07-.21.16-.27L26.5,1.97c.1-.06.21-.06.31,0,.1.06.16.16.16.27v26.56c-.01.11-.07.22-.17.27L3.8,42.33s-.1.04-.16.04Z"/>
      <path class="cls-4" d="M9.23,15.45l-.25.15h0s-.93.54-.93.54h0s-.25.15-.25.15c-.24.14-.43.47-.43.75,0,7.58,0,12.49,0,19.23,0,.28.2.39.44.25l.25-.15h0s.93-.54.93-.54h0s.25-.15.25-.15c.24-.14.44-.47.44-.75,0-6.74,0-11.65,0-19.23,0-.28-.19-.39-.43-.25h0ZM15.88,11.61l-.25.15h0s-.93.54-.93.54h0s-.25.15-.25.15c-.24.14-.43.47-.43.75,0,6.74,0,11.65,0,19.23,0,.27.19.39.43.25l.25-.15h0s.93-.54.93-.54h0s.25-.15.25-.15c.24-.14.43-.47.43-.75,0-7.58,0-12.49,0-19.23,0-.28-.19-.39-.43-.25h0ZM22.96,8.03c0-.28-.19-.39-.43-.25l-.25.14h0s-.93.54-.93.54h0s-.25.15-.25.15c-.24.14-.43.47-.43.75,0,7.58,0,12.49,0,19.23,0,.27.19.39.43.25l.25-.15h0s.93-.54.93-.54h0s.25-.15.25-.15c.24-.14.44-.47.44-.75,0-6.74,0-11.65,0-19.22h0Z"/>
      <path class="cls-2" d="M22.96,8.03h0,0ZM22.65,8.07l-1.42.81c-.14.08-.28.32-.28.49v19.19s1.41-.81,1.41-.81c.14-.08.28-.32.28-.49V8.07h0ZM20.88,29.21c-.09,0-.18-.02-.27-.07-.18-.11-.28-.3-.28-.55V9.37c0-.39.26-.82.6-1.02l1.44-.83c.21-.12.44-.13.62-.03.18.1.28.3.28.55h0v19.22c0,.39-.26.82-.6,1.02l-1.45.83c-.11.07-.23.1-.35.1h0ZM16.02,11.86s.04.01.06,0l-.19-.25.14.24h0ZM16,11.9l-1.42.82c-.14.08-.28.32-.28.48v19.19s1.41-.81,1.41-.81c.14-.08.28-.32.28-.49V11.9h0ZM14.23,33.05c-.09,0-.18-.02-.27-.07-.18-.1-.28-.3-.28-.55V13.2c0-.39.26-.83.6-1.02l1.44-.83h0c.21-.12.44-.13.62-.03.18.1.28.3.28.55v19.23c0,.38-.26.82-.59,1.02l-1.45.83c-.11.07-.23.1-.35.1h0ZM9.23,15.45h0,0ZM9.36,15.74l-1.42.81c-.15.08-.28.32-.28.49v19.19s1.41-.81,1.41-.81c.14-.08.28-.32.28-.48V15.74h0ZM7.58,36.88c-.09,0-.19-.02-.27-.07-.18-.1-.28-.3-.28-.55v-19.23c0-.39.26-.83.6-1.02l1.45-.83c.21-.12.43-.13.61-.03.18.1.28.3.28.55v19.23c0,.39-.26.83-.6,1.02l-1.44.83c-.12.07-.23.1-.35.1Z"/>
      <polygon class="cls-1" points="20.76 22.86 19.38 22.07 24.22 19.28 25.6 20.07 20.76 22.86"/>
      <path class="cls-2" d="M20,22.07l.76.44,4.22-2.43-.76-.44-4.22,2.44h0ZM20.76,23.17c-.06,0-.11-.01-.16-.04l-1.38-.8c-.1-.06-.15-.16-.15-.26s.06-.22.15-.27l4.84-2.79c.09-.06.21-.06.31,0l1.38.8c.09.06.15.16.15.27s-.06.21-.15.26l-4.84,2.79s-.1.04-.15.04Z"/>
      <polygon class="cls-3" points="20.76 26.36 19.38 25.56 19.38 22.07 20.76 22.86 20.76 26.36"/>
      <path class="cls-2" d="M19.69,25.38l.76.44v-2.78s-.76-.44-.76-.44v2.78h0ZM20.76,26.67c-.05,0-.11-.01-.15-.04l-1.38-.8c-.1-.06-.15-.16-.15-.27v-3.49c0-.11.06-.22.15-.27.1-.06.21-.06.31,0l1.38.8c.1.05.15.16.15.26v3.49c0,.11-.06.21-.16.27-.05.03-.1.04-.15.04Z"/>
      <polygon class="cls-1" points="14.11 19.64 12.73 18.84 17.57 16.05 18.95 16.85 14.11 19.64"/>
      <path class="cls-2" d="M13.35,18.84l.76.44,4.22-2.44-.76-.44-4.22,2.44h0ZM14.11,19.95c-.05,0-.11-.01-.15-.04l-1.38-.79c-.1-.06-.16-.16-.16-.27s.06-.21.16-.27l4.84-2.79c.1-.05.21-.05.31,0l1.38.8c.1.05.15.16.15.27s-.06.21-.15.27l-4.84,2.79s-.1.04-.15.04Z"/>
      <polygon class="cls-3" points="14.11 23.13 12.73 22.34 12.73 18.84 14.11 19.64 14.11 23.13"/>
      <path class="cls-2" d="M13.04,22.16l.76.44v-2.78s-.76-.44-.76-.44v2.78h0ZM14.11,23.44c-.05,0-.11-.02-.15-.04l-1.38-.79c-.1-.06-.15-.16-.15-.27v-3.5c0-.11.06-.21.16-.27.09-.05.21-.05.31,0l1.38.8c.1.06.15.16.15.27v3.49c0,.11-.06.21-.16.27-.05.03-.1.04-.15.04Z"/>
      <polygon class="cls-1" points="7.46 29.41 6.08 28.62 10.92 25.83 12.3 26.62 7.46 29.41"/>
      <path class="cls-2" d="M6.7,28.62l.76.44,4.23-2.44-.76-.44-4.22,2.43h0ZM7.46,29.72c-.05,0-.11-.02-.15-.04l-1.38-.8c-.1-.05-.15-.15-.15-.27s.06-.21.15-.27l4.84-2.79c.09-.05.21-.05.31,0l1.38.8c.1.05.16.16.16.26s-.06.21-.16.27l-4.84,2.79s-.1.04-.15.04Z"/>
      <polygon class="cls-3" points="7.46 32.91 6.08 32.11 6.08 28.62 7.46 29.41 7.46 32.91"/>
      <path class="cls-2" d="M6.39,31.93l.76.44v-2.78s-.76-.44-.76-.44v2.78h0ZM7.46,33.22c-.05,0-.11-.02-.16-.04l-1.38-.8c-.1-.06-.15-.16-.15-.27v-3.49c0-.11.06-.21.16-.27.1-.06.21-.06.31,0l1.38.79c.1.06.15.16.15.27v3.5c0,.11-.06.21-.16.27-.05.03-.1.04-.15.04Z"/>
      <polygon class="cls-1" points="7.46 29.41 12.3 26.62 12.3 30.11 7.46 32.91 7.46 29.41"/>
      <path class="cls-2" d="M7.77,29.59v2.78s4.22-2.44,4.22-2.44v-2.78s-4.22,2.44-4.22,2.44h0ZM7.46,33.22c-.05,0-.11-.02-.16-.04-.09-.06-.15-.16-.15-.27v-3.5c0-.11.06-.21.15-.27l4.84-2.79c.09-.06.21-.06.31,0,.1.05.15.16.15.26v3.49c0,.11-.06.21-.16.27l-4.84,2.79s-.1.04-.15.04Z"/>
      <polygon class="cls-1" points="14.11 19.64 18.95 16.85 18.95 20.34 14.11 23.13 14.11 19.64"/>
      <path class="cls-2" d="M14.42,19.82v2.78s4.22-2.44,4.22-2.44v-2.78l-4.22,2.43h0ZM14.11,23.44c-.05,0-.11-.02-.15-.04-.1-.06-.15-.16-.15-.27v-3.49c0-.11.06-.21.16-.27l4.84-2.79c.09-.05.21-.06.31,0,.09.05.15.16.15.27v3.49c0,.11-.06.21-.15.27l-4.84,2.79s-.1.04-.15.04Z"/>
      <polygon class="cls-1" points="20.76 22.86 25.6 20.07 25.6 23.57 20.76 26.36 20.76 22.86"/>
      <path class="cls-2" d="M21.07,23.04v2.78s4.22-2.43,4.22-2.43v-2.78s-4.22,2.44-4.22,2.44h0ZM20.76,26.67c-.05,0-.11-.01-.15-.04-.1-.05-.15-.16-.15-.27v-3.49c0-.11.06-.21.16-.27l4.84-2.79c.09-.05.21-.05.31,0,.09.06.15.16.15.27v3.49c0,.11-.06.21-.16.27l-4.84,2.79s-.1.04-.15.04Z"/>
    </g>
  </g>
</svg>