<?xml version="1.0" encoding="UTF-8"?>
<svg id="Layer_2" data-name="Layer 2" xmlns="http://www.w3.org/2000/svg" viewBox="0 0 34.38 45.81" fill="currentColor">
  <defs>
    <style>
      .cls-1 {
        fill: #fff;
      }

      .cls-1, .cls-2, .cls-3, .cls-4 {
        fill-rule: evenodd;
      }

      .cls-2 {
        fill: #1a87c7;
      }

      .cls-3 {
        fill: #bdedf8;
      }

      .cls-4 {
        fill: #66ceef;
      }
    </style>
  </defs>
  <g id="_Layer_" data-name="&amp;lt;Layer&amp;gt;">
    <g>
      <path class="cls-3" d="M32.73,5.37l-2.04-1.18c-.71-.18-1.31.03-1.93.37L3.54,19.11c-1.01.6-1.69,1.42-2.29,2.42-.57,1.02-.92,2.01-.95,3.19l.03,17.29c.02.72.14,1.33.64,1.86l2.04,1.18c-.5-.53-.63-1.14-.64-1.86l-.03-17.29c.03-1.18.38-2.17.95-3.19.59-1,1.28-1.81,2.29-2.42L30.8,5.74c.63-.35,1.22-.55,1.93-.37Z"/>
      <path class="cls-2" d="M1.17,43.63l1.02.59c-.09-.34-.13-.69-.13-1.02l-.02-17.3c.02-1.13.33-2.16.99-3.34.69-1.17,1.43-1.95,2.39-2.53L30.65,5.47c.29-.16.61-.31.95-.4l-1.02-.6c-.61-.13-1.11.04-1.67.35L3.69,19.38c-.85.52-1.53,1.23-2.17,2.31-.61,1.08-.89,2.02-.9,3.04l.02,17.28c.02.63.11,1.16.54,1.62h0ZM3.02,45.36c-.05,0-.11-.01-.15-.04l-2.04-1.18s-.05-.03-.07-.05c-.62-.65-.72-1.38-.74-2.07l-.02-17.3c.03-1.13.33-2.16.98-3.34.71-1.18,1.45-1.96,2.4-2.53L28.6,4.29c.58-.32,1.29-.62,2.16-.4.03,0,.05.02.08.03l2.04,1.18c.13.08.19.24.13.38-.05.14-.2.22-.36.18-.63-.15-1.14.03-1.71.34L5.74,20.56c-.86.53-1.54,1.24-2.17,2.31-.6,1.08-.89,2.02-.9,3.04l.03,17.28c0,.65.11,1.18.55,1.65.11.11.11.28.02.4-.06.08-.15.12-.24.12Z"/>
      <path class="cls-4" d="M5.61,45.06l25.21-14.56c1.78-1.03,3.24-3.55,3.23-5.61l-.02-17.29c0-2.05-1.46-2.9-3.24-1.87L5.59,20.29c-1.78,1.03-3.24,3.55-3.24,5.61l.03,17.29c0,2.05,1.46,2.89,3.24,1.87Z"/>
      <path class="cls-2" d="M5.61,45.06h0,0ZM32.24,5.61c-.39,0-.83.13-1.29.4L5.74,20.56c-1.67.97-3.08,3.41-3.08,5.34l.02,17.29c0,.88.28,1.53.81,1.82.51.3,1.22.22,1.98-.22l25.21-14.56c1.71-.98,3.09-3.38,3.09-5.34l-.02-17.29c0-.88-.29-1.53-.81-1.83-.2-.12-.43-.18-.69-.18h0ZM4.17,45.81c-.36,0-.7-.09-1-.26-.71-.41-1.11-1.25-1.11-2.36l-.02-17.29c-.01-2.16,1.51-4.79,3.39-5.88L30.65,5.47c.96-.56,1.89-.63,2.6-.22.71.41,1.11,1.25,1.11,2.36l.03,17.29c0,2.16-1.52,4.8-3.39,5.88l-25.21,14.56h0c-.56.32-1.1.48-1.6.48Z"/>
      <path class="cls-3" d="M5.55,43.7l3.81-2.2,5.77-3.34,6.02-3.47,3-1.73c.06-.03.12-.06.18-.09l5.01-2.89,1.76-1.01c1.06-.61,1.92-2.1,1.92-3.32l-.02-17.32c0-1.22-.87-1.71-1.92-1.11-14.66,8.47-10.89,6.28-25.55,14.74-1.06.61-1.92,2.1-1.92,3.32l.02,17.32c0,1.22.86,1.71,1.92,1.11Z"/>
      <path class="cls-2" d="M31.94,7.25c-.21,0-.44.07-.69.22-7.34,4.23-10.06,5.8-12.78,7.37-2.73,1.57-5.45,3.14-12.79,7.37-.95.55-1.75,1.95-1.75,3.05v17.32c0,.47.16.82.42.97.26.15.63.11,1.04-.13l18.62-10.75c.08-.04.13-.07.18-.1l6.76-3.9c.96-.55,1.76-1.95,1.76-3.05l-.02-17.32c0-.47-.14-.82-.41-.97-.1-.06-.22-.09-.35-.09h0ZM5.55,43.7h0,0ZM4.7,44.26c-.24,0-.46-.06-.66-.17-.46-.27-.71-.8-.71-1.5l-.02-17.32c0-1.32.93-2.93,2.07-3.59,7.34-4.23,10.06-5.8,12.78-7.37,2.73-1.57,5.45-3.14,12.78-7.37.62-.35,1.21-.4,1.67-.13.46.27.71.8.71,1.5l.02,17.32c0,1.32-.93,2.93-2.07,3.59l-6.76,3.9c-.07.04-.14.07-.2.1l-18.6,10.74h0c-.35.2-.69.3-1,.3Z"/>
      <path class="cls-1" d="M17.32,28.19l2.16-1.25c.43-.25.79-.86.79-1.37v-2.5c0-.5-.36-.7-.8-.46l-2.16,1.25c-.43.25-.78.87-.78,1.37v2.5c0,.5.36.71.79.46Z"/>
      <path class="cls-2" d="M19.83,22.82s-.11.02-.2.07l-2.16,1.25c-.34.2-.63.71-.63,1.1v2.5c0,.15.04.23.08.25.03.02.12.02.25-.06h0l2.16-1.25c.34-.19.63-.71.63-1.1v-2.5c0-.15-.04-.22-.08-.24,0,0-.03-.01-.05-.01h0ZM16.96,28.6c-.13,0-.25-.03-.36-.09-.24-.14-.39-.42-.39-.78v-2.5c0-.61.42-1.33.95-1.63l2.16-1.25c.3-.18.62-.2.86-.05.25.14.39.42.39.77v2.5c0,.61-.42,1.33-.94,1.64l-2.17,1.25c-.17.1-.34.15-.5.15Z"/>
      <path class="cls-1" d="M8.82,33.09l-2.16,1.25c-.43.25-.79.05-.79-.46v-2.5c0-.5.36-1.12.79-1.37l2.16-1.25c.44-.25.79-.05.79.46v2.5c0,.5-.36,1.12-.79,1.37Z"/>
      <path class="cls-2" d="M8.82,33.09h.01-.01ZM9.17,28.97s-.11.02-.2.07l-2.16,1.25c-.34.2-.64.71-.64,1.1v2.5c.01.15.04.22.09.24.02.02.12.02.24-.06l2.16-1.25c.34-.2.64-.71.64-1.1v-2.5c0-.15-.05-.22-.08-.24,0,0-.03-.01-.05-.01h0ZM6.31,34.76c-.13,0-.25-.03-.37-.09-.24-.14-.38-.42-.38-.78v-2.5c0-.61.41-1.33.94-1.63l2.16-1.25c.31-.18.62-.2.87-.06.24.14.38.42.38.78v2.5c0,.61-.41,1.33-.94,1.63h0l-2.16,1.25c-.17.1-.35.15-.5.15Z"/>
      <path class="cls-1" d="M8.81,26.94l-2.16,1.25c-.44.25-.79.05-.79-.45v-2.5c0-.5.35-1.12.78-1.37l2.16-1.25c.44-.25.79-.04.79.46v2.5c0,.5-.36,1.12-.79,1.37Z"/>
      <path class="cls-2" d="M9.16,22.82s-.12.02-.19.07l-2.16,1.25c-.34.19-.64.71-.64,1.1v2.5c0,.15.04.22.08.25.03.02.12.02.25-.06l2.16-1.25h0c.34-.2.64-.71.64-1.1v-2.5c0-.15-.05-.22-.08-.24-.02,0-.03-.01-.06-.01h0ZM6.3,28.61c-.13,0-.25-.03-.36-.09-.25-.14-.39-.42-.39-.78v-2.5c0-.61.42-1.33.94-1.64l2.16-1.25c.3-.17.63-.2.87-.05.24.14.38.42.39.78v2.5c0,.61-.42,1.33-.95,1.63l-2.16,1.25c-.17.1-.34.15-.51.15Z"/>
      <path class="cls-1" d="M11.99,20.67l2.16-1.25c.43-.25.79-.05.79.46v2.5c0,.5-.35,1.12-.78,1.37l-2.16,1.25c-.43.25-.79.04-.79-.46v-2.5c0-.5.35-1.12.78-1.37Z"/>
      <path class="cls-2" d="M12.14,20.94c-.34.2-.63.71-.63,1.1v2.5c0,.15.04.22.08.24.03.02.12.02.25-.05l2.16-1.25c.34-.2.64-.71.64-1.1v-2.5c0-.15-.04-.22-.08-.24-.04-.02-.13-.02-.25.05l-2.16,1.25h0ZM11.64,25.41c-.13,0-.25-.03-.36-.09-.24-.14-.38-.42-.38-.78v-2.5c0-.61.42-1.33.94-1.64h0l2.16-1.25c.3-.17.63-.2.87-.05.24.14.39.42.39.77v2.5c0,.61-.42,1.33-.95,1.63l-2.16,1.25c-.17.1-.34.15-.51.15Z"/>
      <path class="cls-1" d="M17.32,17.6l2.16-1.25c.43-.25.79-.05.79.45v2.5c0,.5-.35,1.12-.79,1.37l-2.16,1.25c-.44.25-.8.04-.8-.46v-2.5c0-.5.36-1.12.79-1.37Z"/>
      <path class="cls-2" d="M17.47,17.86c-.34.2-.63.71-.63,1.1v2.5c0,.15.04.22.08.24s.12.02.25-.06l2.16-1.25c.34-.19.63-.71.63-1.1v-2.5c0-.15-.04-.22-.08-.24-.04-.02-.13-.02-.25.05l-2.16,1.25h0ZM16.97,22.33c-.13,0-.25-.03-.37-.09-.24-.14-.38-.43-.38-.78v-2.5c0-.61.41-1.33.94-1.63h0l2.16-1.25c.3-.18.63-.2.87-.06.24.14.38.42.38.78v2.5c0,.61-.41,1.33-.94,1.63l-2.16,1.25c-.17.1-.34.15-.5.15Z"/>
      <path class="cls-1" d="M8.82,34.92l-2.16,1.25c-.43.25-.79.87-.79,1.37v2.5c.01.5.37.71.8.46l2.17-1.25c.43-.25.79-.86.78-1.37v-2.5c0-.5-.36-.71-.79-.46Z"/>
      <path class="cls-2" d="M8.98,35.19l-2.16,1.25c-.34.2-.63.71-.63,1.1v2.5c0,.15.04.22.08.24.03.02.12.02.25-.05l2.16-1.25c.34-.19.63-.71.63-1.1v-2.5c0-.15-.04-.22-.08-.24-.03-.02-.12-.02-.25.06h0ZM6.31,40.9c-.13,0-.25-.03-.36-.09-.25-.14-.39-.42-.39-.78v-2.5c0-.61.42-1.33.95-1.64l2.15-1.25h0c.31-.18.63-.2.87-.06.24.14.39.42.39.78v2.5c0,.61-.42,1.33-.95,1.63l-2.16,1.25c-.17.1-.34.15-.5.15Z"/>
      <path class="cls-1" d="M11.99,31.26l2.16-1.25c.43-.25.79-.87.79-1.37v-2.5c0-.5-.36-.7-.79-.46l-2.16,1.25c-.43.25-.79.86-.79,1.37v2.5c0,.5.36.71.79.45Z"/>
      <path class="cls-2" d="M14.5,25.9s-.11.02-.2.07l-2.16,1.25c-.34.19-.63.71-.63,1.1v2.5c0,.15.04.22.08.25.03.02.12.02.25-.05l2.16-1.25c.34-.2.64-.71.64-1.1v-2.5c0-.15-.04-.23-.08-.25,0,0-.02-.01-.05-.01h0ZM11.99,31.26h0,0ZM11.63,31.68c-.13,0-.25-.03-.36-.09-.24-.14-.38-.42-.38-.78v-2.5c-.01-.61.41-1.33.94-1.64l2.16-1.25c.3-.18.62-.2.86-.05.25.14.39.42.39.78v2.5c0,.61-.41,1.33-.94,1.63l-2.16,1.25h0c-.18.1-.35.15-.51.15Z"/>
      <path class="cls-1" d="M27.97,22.04l2.16-1.25c.44-.25.78-.86.78-1.37v-2.5c0-.5-.36-.71-.79-.46l-2.16,1.25c-.43.25-.79.86-.79,1.37v2.5c0,.5.36.7.8.45Z"/>
      <path class="cls-2" d="M30.48,16.67c-.05,0-.11.02-.2.07l-2.16,1.25c-.34.19-.63.71-.63,1.1v2.5c0,.15.04.22.08.25.03.02.12.02.25-.06l2.16-1.25c.34-.2.63-.71.63-1.1v-2.5c0-.15-.04-.22-.08-.24-.02,0-.03-.01-.05-.01h0ZM27.97,22.04h0,0ZM27.61,22.46c-.13,0-.25-.03-.36-.09-.25-.14-.39-.42-.39-.78v-2.5c0-.61.42-1.33.95-1.63l2.16-1.25c.31-.18.63-.19.87-.05.24.14.39.42.39.78v2.5c0,.61-.42,1.33-.95,1.63l-2.16,1.25h0c-.16.1-.34.15-.5.15Z"/>
      <path class="cls-1" d="M27.96,15.89l2.16-1.25c.43-.25.79-.87.79-1.37v-2.5c0-.5-.36-.7-.79-.46l-2.16,1.25c-.43.25-.79.86-.79,1.37v2.5c0,.5.36.7.79.46Z"/>
      <path class="cls-2" d="M30.47,10.52s-.11.02-.2.07l-2.16,1.25c-.34.19-.63.71-.63,1.1v2.5c0,.15.04.22.08.25.04.02.13.02.25-.06h0l2.16-1.25c.34-.19.63-.71.63-1.1v-2.5c0-.15-.04-.23-.08-.25,0,0-.03-.01-.05-.01h0ZM27.6,16.31c-.12,0-.24-.03-.36-.09-.24-.14-.38-.42-.38-.78v-2.5c-.01-.61.41-1.33.94-1.63l2.16-1.25c.3-.18.62-.2.86-.05.25.14.39.42.39.78v2.5c0,.61-.41,1.33-.94,1.63l-2.16,1.25c-.17.1-.35.15-.51.15Z"/>
      <path class="cls-1" d="M22.64,14.52l2.16-1.25c.43-.25.79-.05.79.46v2.5c0,.5-.36,1.12-.79,1.37l-2.16,1.25c-.43.25-.79.05-.79-.46v-2.5c0-.5.36-1.12.79-1.37Z"/>
      <path class="cls-2" d="M22.64,14.52h0,0ZM22.8,14.79c-.34.19-.64.71-.64,1.1v2.5c0,.15.04.22.08.24.04.02.12.02.25-.06l2.16-1.25c.34-.19.63-.71.63-1.1v-2.5c0-.15-.04-.22-.09-.24-.04-.02-.12-.02-.24.05l-2.16,1.25h0ZM22.29,19.25c-.13,0-.25-.03-.36-.09-.24-.14-.38-.43-.38-.78v-2.5c0-.61.41-1.33.94-1.63l2.17-1.25c.3-.18.62-.2.87-.06.24.14.38.43.38.78v2.5c0,.61-.41,1.33-.94,1.63l-2.16,1.25c-.18.1-.35.15-.51.15Z"/>
      <path class="cls-1" d="M27.97,23.87l2.16-1.25c.44-.25.79-.05.79.46v2.5c0,.5-.36,1.12-.79,1.37l-2.16,1.25c-.44.25-.79.05-.79-.46v-2.5c0-.5.36-1.12.79-1.37Z"/>
      <path class="cls-2" d="M28.12,24.13c-.33.2-.63.71-.63,1.1v2.5c0,.15.05.22.09.24.03.02.12.02.25-.05l2.16-1.25c.34-.2.64-.71.64-1.1v-2.5c0-.15-.04-.22-.09-.24-.03-.02-.12-.02-.25.06l-2.16,1.25h0ZM27.62,28.6c-.13,0-.25-.03-.36-.09-.24-.14-.38-.42-.38-.78v-2.5c0-.61.41-1.33.94-1.63h0l2.16-1.25c.3-.18.62-.2.87-.06.24.14.38.43.38.78v2.5c0,.61-.41,1.33-.94,1.63l-2.17,1.25c-.17.1-.35.15-.5.15Z"/>
      <path class="cls-1" d="M22.64,25.12l2.16-1.25c.43-.25.79-.87.79-1.37v-2.5c0-.5-.36-.71-.8-.46l-2.16,1.25c-.44.25-.79.86-.79,1.37v2.5c0,.5.36.71.8.46Z"/>
      <path class="cls-2" d="M25.15,19.75c-.05,0-.11.02-.2.07l-2.17,1.25c-.34.19-.63.71-.63,1.1v2.5c0,.15.04.22.08.24.04.02.12.02.25-.06l2.17-1.25c.34-.19.63-.71.63-1.1v-2.5c0-.15-.05-.22-.08-.24-.02,0-.04-.01-.05-.01h0ZM22.64,25.12h0,0ZM22.28,25.53c-.13,0-.25-.03-.36-.09-.24-.14-.39-.42-.39-.78v-2.5c0-.61.42-1.33.95-1.64l2.17-1.25c.3-.18.62-.2.86-.06.24.14.39.42.39.78v2.5c0,.61-.42,1.33-.94,1.63l-2.17,1.25h0c-.17.1-.34.15-.5.15Z"/>
      <path class="cls-1" d="M11.98,37.53l12.82-7.4c.44-.25.79-.87.79-1.37v-2.5c0-.5-.36-.7-.79-.45l-12.82,7.4c-.43.25-.79.87-.79,1.37v2.5c0,.5.36.71.79.46Z"/>
      <path class="cls-2" d="M25.15,26.01s-.11.02-.19.07l-12.82,7.4c-.34.19-.63.71-.63,1.1v2.5c0,.15.04.22.08.24.03.02.12.02.25-.06l12.81-7.4c.34-.19.64-.71.64-1.1v-2.5c-.01-.14-.05-.22-.09-.24-.01,0-.03-.01-.05-.01h0ZM11.98,37.53h.01-.01ZM11.63,37.95c-.13,0-.25-.03-.36-.1-.24-.14-.38-.42-.38-.78v-2.5c0-.61.41-1.33.94-1.63l12.82-7.4c.3-.18.62-.2.87-.06.24.14.38.42.38.78v2.5c0,.61-.41,1.33-.94,1.63l-12.82,7.4h0c-.17.1-.35.15-.5.15Z"/>
      <path class="cls-4" d="M15.5,13.45l-1.16-.66.06-.93c.06-.44.27-.8.67-1l2.45-1.42c.13-.02.16-.02.28.04l1.14.66c-.15-.08-.23-.06-.39,0-.79.43-1.58.98-2.39,1.4-.37.23-.56.55-.61.98l-.06.92Z"/>
      <path class="cls-2" d="M14.67,12.61l.56.32.03-.43c.08-.56.32-.95.76-1.22.44-.23.87-.5,1.29-.75.28-.17.56-.34.84-.51l-.5-.28-2.42,1.38c-.3.16-.47.41-.52.78l-.04.71h0ZM15.5,13.75c-.05,0-.11-.01-.15-.04l-1.15-.66c-.11-.06-.17-.17-.16-.29l.06-.93c.08-.59.37-1.01.84-1.26l2.43-1.41s.07-.03.11-.04c.19-.03.27-.02.46.07l1.16.67c.15.08.2.27.12.41-.09.15-.27.2-.42.13-.05-.02-.11,0-.14.02-.33.18-.69.4-1.05.62-.43.26-.86.53-1.31.76-.26.16-.41.39-.45.74l-.06.91c0,.1-.07.2-.16.25-.05.03-.1.04-.15.04Z"/>
      <path class="cls-3" d="M15.5,13.45l.06-.92c.02-.38.3-.79.61-.98l2.39-1.41c.31-.18.56.02.54.4l-.04.85-3.56,2.05Z"/>
      <path class="cls-2" d="M18.76,10.37l-2.42,1.44c-.24.14-.45.47-.47.73l-.03.34,2.92-1.68.04-.69c0-.1-.03-.14-.04-.15h0ZM15.5,13.75c-.06,0-.11-.02-.17-.05-.09-.06-.15-.17-.14-.28l.05-.92c.03-.46.36-.98.76-1.22l2.39-1.41c.23-.14.48-.15.68-.03.22.13.34.4.32.71l-.04.85c0,.11-.06.2-.15.25l-3.56,2.05c-.05.03-.1.04-.16.04Z"/>
      <path class="cls-4" d="M15.75,10.94c.1-1.86.56-3.52,1.16-5.04.59-1.46,1.27-2.69,1.92-3.82l1.02-1.78,1.61,1.05-1.02,1.78c-.51.88-1.64,2.87-2.03,3.81-.36.9-.62,1.73-.68,2.85l-1.98,1.14Z"/>
      <path class="cls-2" d="M19.96.74l-.87,1.5c-.65,1.11-1.32,2.32-1.91,3.78-.59,1.48-.96,2.92-1.09,4.36l1.34-.77c.08-1.06.33-1.89.69-2.78.35-.87,1.3-2.58,2.03-3.85l.89-1.53-1.09-.71h0ZM15.75,11.25c-.06,0-.11-.02-.16-.05-.09-.06-.15-.16-.14-.28.1-1.71.48-3.39,1.17-5.13.6-1.5,1.29-2.73,1.95-3.86l1.03-1.78c.04-.07.11-.13.19-.14.09-.02.17,0,.24.04l1.61,1.04c.13.09.18.27.1.41l-1.03,1.78c-.6,1.03-1.65,2.89-2.01,3.77-.35.89-.6,1.7-.66,2.76-.01.1-.06.2-.16.25l-1.97,1.14c-.05.03-.11.04-.16.04Z"/>
      <path class="cls-4" d="M3.31,22.69l-2.04-1.18-.02.03c-.57,1.02-.92,2.01-.95,3.19l.03,17.29c.02.72.14,1.33.64,1.86l2.04,1.18c-.5-.54-.63-1.14-.64-1.86l-.03-17.29c.03-1.18.38-2.17.95-3.19v-.02Z"/>
      <path class="cls-2" d="M1.17,43.63l1.02.59c-.09-.34-.13-.69-.13-1.02l-.02-17.3c.02-1.05.28-2.02.86-3.1l-1.51-.87c-.52,1-.76,1.87-.78,2.8l.02,17.28c.02.63.11,1.16.54,1.62h0ZM3.02,45.36c-.05,0-.11-.01-.15-.04l-2.04-1.18s-.05-.03-.07-.05c-.63-.65-.72-1.41-.74-2.07l-.02-17.3c.02-1.13.33-2.16.98-3.34.04-.07.12-.14.2-.16.08-.02.18-.02.24.02l2.04,1.18c.07.04.12.11.15.19.02.08.01.16-.03.23l-.02.02c-.6,1.09-.89,2.02-.9,3.04l.03,17.28c0,.64.11,1.18.55,1.65.11.11.11.28.02.4-.06.08-.15.12-.24.12Z"/>
    </g>
  </g>
</svg>