<?xml version="1.0" encoding="UTF-8"?>
<svg id="Layer_2" data-name="Layer 2" xmlns="http://www.w3.org/2000/svg" viewBox="0 0 74.48 84.69" fill="currentColor">
  <defs>
    <style>
      .cls-1 {
        fill: #fff;
      }

      .cls-1, .cls-2, .cls-3, .cls-4 {
        fill-rule: evenodd;
      }

      .cls-2 {
        fill: #1a87c7;
      }

      .cls-3 {
        fill: #bdedf8;
      }

      .cls-4 {
        fill: #66ceef;
      }
    </style>
  </defs>
  <g id="_Layer_" data-name="&amp;lt;Layer&amp;gt;">
    <g>
      <path class="cls-1" d="M2.14,25.89L44.46,1.47c2.07-1.2,5.47-1.2,7.53,0l20.34,11.75c2.09,1.2,2.09,3.15,0,4.35l-42.31,24.42c-2.07,1.2-5.46,1.2-7.55,0L2.14,30.25c-2.07-1.2-2.07-3.16,0-4.36Z"/>
      <path class="cls-2" d="M2.14,25.89h.02-.02ZM48.23,1.15c-1.27,0-2.55.27-3.49.82L2.43,26.4h0c-.82.47-1.27,1.07-1.27,1.68s.46,1.21,1.27,1.68l20.34,11.74c1.89,1.09,5.09,1.09,6.96,0l42.3-24.43c.84-.47,1.27-1.07,1.27-1.68s-.44-1.2-1.27-1.67L51.72,1.97c-.95-.55-2.22-.82-3.49-.82h0ZM26.26,43.47c-1.48,0-2.95-.32-4.06-.97L1.86,30.75C.67,30.06,0,29.11,0,28.07s.67-1.99,1.86-2.68h0L44.17.97c2.23-1.29,5.88-1.29,8.12,0l20.34,11.74c1.19.69,1.84,1.64,1.84,2.68s-.65,1.99-1.84,2.68l-42.31,24.42c-1.13.65-2.59.97-4.06.97Z"/>
      <path class="cls-3" d="M26.62,20.26c-.2,1.84,1.11,3.87,3.83,5.44,2.73,1.57,6.25,2.33,9.43,2.21h0l-13.25-7.66h0Z"/>
      <path class="cls-2" d="M27.26,21.29c.31,1.38,1.55,2.79,3.49,3.91,1.93,1.12,4.39,1.84,6.87,2.07l-10.35-5.98h0ZM39.26,28.5c-3.21,0-6.57-.85-9.1-2.3-2.86-1.65-4.35-3.84-4.11-6.01.02-.2.13-.36.31-.45.16-.09.37-.08.55.01l13.25,7.66c.23.12.32.39.27.64-.06.25-.29.43-.55.44-.22,0-.43.01-.64.01Z"/>
      <path class="cls-3" d="M51.8,25.48c.99-2.8-.98-6.25-5.56-8.89-4.57-2.64-10.53-3.78-15.39-3.21l-.75-.43c5.77-3.33,11.54-6.66,17.3-9.99.7-.4,1.9-.37,2.66.06,6.56,3.79,13.13,7.58,19.68,11.37.77.44.81,1.13.11,1.53-5.76,3.33-11.53,6.66-17.3,9.99l-.75-.43Z"/>
      <path class="cls-2" d="M52.48,25.21l.06.03,17.02-9.82c.15-.08.2-.17.2-.2,0-.05-.08-.19-.31-.32L49.76,3.52c-.59-.33-1.55-.36-2.07-.06l-16.04,9.27c4.95-.38,10.58.87,14.89,3.36,4.48,2.59,6.71,6.04,5.95,9.12h0ZM52.55,26.49c-.1,0-.2-.03-.29-.08l-.75-.43c-.25-.14-.34-.43-.25-.69.91-2.6-1.18-5.81-5.3-8.2-4.35-2.51-10.13-3.71-15.05-3.14-.11.02-.24,0-.36-.07l-.75-.43c-.18-.1-.28-.29-.28-.5s.1-.4.28-.5L47.12,2.46c.86-.51,2.29-.48,3.21.06l19.69,11.37c.57.32.89.81.89,1.32,0,.48-.28.92-.78,1.2l-17.29,9.99c-.1.05-.2.08-.3.08Z"/>
      <path class="cls-3" d="M34.69,15.6c3.18-.11,6.7.64,9.43,2.22,2.72,1.57,4.02,3.6,3.83,5.44h0l-13.25-7.66h0Z"/>
      <path class="cls-2" d="M36.96,16.24l10.35,5.98c-.31-1.38-1.55-2.79-3.49-3.91-1.93-1.11-4.38-1.85-6.86-2.07h0ZM47.95,23.84c-.1,0-.2-.02-.3-.08l-13.25-7.66c-.23-.13-.33-.39-.28-.64.06-.25.3-.43.56-.44,3.45-.13,6.99.71,9.73,2.29,2.86,1.65,4.35,3.84,4.11,6.01-.01.2-.13.36-.31.45-.08.04-.16.06-.26.06Z"/>
      <path class="cls-3" d="M43.73,30.14c-4.85.57-10.83-.56-15.41-3.2-4.57-2.64-6.54-6.09-5.54-8.89l-.75-.43c-5.77,3.33-11.54,6.66-17.3,9.99-.7.4-.65,1.09.1,1.52,6.56,3.79,13.14,7.58,19.69,11.37.77.44,1.96.47,2.64.06,5.77-3.33,11.54-6.66,17.31-9.99l-.75-.43Z"/>
      <path class="cls-2" d="M22.03,18.28L5.01,28.1c-.15.08-.2.17-.2.2,0,.05.08.19.31.32l19.7,11.37c.58.33,1.55.36,2.07.06l16.04-9.26c-4.94.38-10.58-.88-14.89-3.37-4.48-2.58-6.71-6.03-5.95-9.12l-.06-.03h0ZM25.95,41.42c-.6,0-1.22-.14-1.71-.42L4.55,29.62c-.57-.33-.89-.81-.89-1.32,0-.48.27-.92.78-1.2l17.3-9.99c.18-.1.41-.1.59,0l.75.43c.23.14.34.43.24.69-.91,2.59,1.17,5.81,5.3,8.2,4.35,2.51,10.12,3.71,15.05,3.13.13-.01.25.01.36.07l.75.43c.18.1.28.3.28.5s-.1.4-.28.5l-17.31,9.99c-.41.24-.94.36-1.5.36Z"/>
      <path class="cls-1" d="M57.53,12.39c1.17-.67,1.19-1.75.05-2.42-1.14-.66-3.02-.65-4.19.02-1.18.68-1.19,1.76-.05,2.42,1.16.66,3.02.65,4.19-.02Z"/>
      <path class="cls-2" d="M55.53,10.07c-.67,0-1.34.14-1.84.43-.39.22-.6.49-.6.73,0,.23.2.48.56.69.96.56,2.62.54,3.6-.03.39-.22.6-.49.6-.73,0-.23-.2-.48-.56-.68-.47-.27-1.11-.41-1.76-.41h0ZM55.4,13.49c-.84,0-1.68-.19-2.33-.57-.73-.42-1.14-1.02-1.14-1.69s.42-1.3,1.18-1.73c1.35-.78,3.45-.79,4.78-.03.72.43,1.12,1.02,1.12,1.69s-.42,1.3-1.17,1.73c-.69.39-1.55.59-2.43.59Z"/>
      <path class="cls-1" d="M21.07,33.45c-1.16.68-3.03.69-4.18.03-1.15-.66-1.13-1.74.03-2.42,1.17-.68,3.05-.69,4.19-.02,1.14.66,1.13,1.74-.05,2.41Z"/>
      <path class="cls-2" d="M19.06,31.12c-.67,0-1.34.14-1.84.44-.37.22-.6.48-.6.73s.21.49.56.69c.98.56,2.62.55,3.62-.02h0c.37-.22.6-.49.6-.73,0-.23-.21-.48-.57-.68-.47-.27-1.11-.41-1.76-.41h0ZM21.07,33.45h.01-.01ZM18.93,34.54c-.83,0-1.68-.19-2.33-.57-.74-.42-1.14-1.02-1.14-1.68s.44-1.3,1.19-1.73c1.34-.78,3.44-.79,4.76-.03.74.42,1.13,1.02,1.13,1.69s-.42,1.3-1.17,1.73h0c-.68.39-1.55.6-2.43.6Z"/>
      <polygon class="cls-1" points="56.16 26.91 46.2 32.66 18.33 16.56 28.27 10.81 56.16 26.91"/>
      <path class="cls-2" d="M19.48,16.56l26.72,15.43,8.81-5.08-26.74-15.44-8.79,5.08h0ZM46.2,33.23c-.1,0-.2-.02-.27-.08l-27.89-16.1c-.18-.1-.3-.3-.3-.5s.11-.4.3-.5l9.94-5.75c.18-.1.41-.1.59,0l27.88,16.1c.18.1.29.29.29.5s-.12.4-.29.5l-9.95,5.74c-.08.05-.18.08-.3.08Z"/>
      <polygon class="cls-3" points="48.08 31.58 49.09 30.99 50.1 30.41 22.21 14.31 21.19 14.89 20.19 15.48 48.08 31.58"/>
      <path class="cls-2" d="M21.34,15.48l26.74,15.44.87-.5-26.74-15.44-.86.5h0ZM48.08,32.15c-.1,0-.2-.02-.29-.08L19.91,15.98c-.18-.1-.29-.29-.29-.5s.11-.4.29-.5l2.02-1.16c.18-.1.39-.11.57,0l27.89,16.1c.18.1.27.3.27.5s-.1.4-.27.5l-2.02,1.17c-.1.05-.2.08-.3.08Z"/>
      <polygon class="cls-3" points="53.28 28.57 52.27 29.16 24.37 13.06 25.38 12.47 26.4 11.89 54.29 27.99 53.28 28.57"/>
      <path class="cls-2" d="M25.53,13.06l26.74,15.43.86-.5-26.73-15.43-.86.5h0ZM53.28,28.57h.02-.02ZM52.27,29.74c-.1,0-.2-.03-.29-.08L24.1,13.55c-.18-.1-.29-.29-.29-.5s.11-.4.29-.5l2.02-1.17c.18-.1.39-.1.57,0l27.9,16.1c.18.1.29.29.29.5s-.11.4-.29.5l-1.01.58h0l-1.01.58c-.1.05-.2.08-.29.08Z"/>
      <path class="cls-3" d="M73.9,15.39v14.35c-.1,1.09-.69,1.61-1.57,2.18l-42.31,24.43c-1.11.61-2.25.84-3.5.89-1.43.02-2.76-.2-4.03-.9L2.16,44.6c-.88-.56-1.47-1.09-1.57-2.18v-14.35c.08,1.09.67,1.62,1.55,2.18l20.35,11.74c1.27.7,2.59.92,4.03.9,1.29-.05,2.39-.28,3.52-.9l42.31-24.42c.88-.56,1.47-1.09,1.57-2.18Z"/>
      <path class="cls-2" d="M1.16,30.26v12.16c.08.77.47,1.17,1.3,1.69l20.32,11.74c1.06.57,2.27.84,3.74.82,1.3-.05,2.31-.31,3.24-.82l42.31-24.42c.8-.51,1.2-.9,1.27-1.73v-12.11c-.23.17-.45.32-.68.47l-42.32,24.44c-1.13.61-2.29.91-3.78.97-1.71.03-3.08-.28-4.33-.96L1.86,30.75c-.25-.15-.47-.31-.7-.49h0ZM26.36,57.82c-1.63,0-2.95-.31-4.16-.97L1.86,45.1c-.88-.56-1.73-1.21-1.84-2.63v-14.4c-.01-.31.23-.56.54-.57.33-.04.59.22.6.53.06.82.47,1.21,1.3,1.73l20.32,11.74c1.06.58,2.25.85,3.74.82,1.32-.05,2.29-.3,3.24-.82l42.29-24.42c.82-.51,1.21-.9,1.27-1.73.03-.3.33-.55.6-.53.31.02.56.27.56.58v14.35c-.12,1.46-.96,2.12-1.83,2.66l-42.32,24.44c-1.13.61-2.29.91-3.78.97-.06,0-.13,0-.18,0Z"/>
      <path class="cls-4" d="M26.5,57.24c-1.41.02-2.74-.2-4-.9L2.16,44.6c-.88-.56-1.47-1.09-1.57-2.18v-14.35c.08,1.09.67,1.62,1.55,2.18l20.35,11.74c1.27.7,2.57.91,4.01.9v14.35Z"/>
      <path class="cls-2" d="M1.16,30.26v12.16c.08.77.47,1.17,1.3,1.69l20.32,11.74c.91.5,1.92.76,3.15.81v-13.19c-1.42-.05-2.61-.36-3.72-.96L1.86,30.75c-.25-.15-.47-.31-.7-.49h0ZM26.5,57.24h.02-.02ZM26.33,57.82c-1.6,0-2.92-.31-4.12-.97L1.86,45.1c-.88-.56-1.73-1.22-1.84-2.63v-14.4c-.01-.31.23-.56.54-.57.33-.04.59.22.6.53.06.82.47,1.21,1.3,1.73l20.32,11.74c1.06.58,2.25.83,3.72.82.13.01.29.06.4.17.11.11.18.26.18.41v14.35c0,.31-.26.58-.57.58-.07,0-.11,0-.18,0Z"/>
      <path class="cls-2" d="M26.36,52.29c-1.63,0-2.95-.31-4.14-.97L1.86,39.58c-.88-.57-1.73-1.22-1.84-2.63-.03-.31.21-.6.52-.62.3-.03.6.21.63.53.07.82.46,1.21,1.29,1.73l20.32,11.74c1.06.57,2.22.84,3.74.82,1.32-.05,2.29-.3,3.24-.82l42.31-24.42c.73-.47,1.08-.79,1.25-1.52v-.2c.03-.32.29-.56.64-.53.31.02.56.3.52.62l-.02.3c-.3,1.29-.99,1.81-1.81,2.32l-42.32,24.44c-1.11.61-2.29.91-3.78.97-.06,0-.11,0-.18,0Z"/>
      <path class="cls-2" d="M26.28,46.61c-.28,0-.54-.01-.83-.03-1.29-.12-2.28-.41-3.24-.94L1.86,33.89c-.88-.56-1.73-1.21-1.84-2.63-.03-.32.21-.6.52-.62.3-.03.6.21.62.53.06.82.47,1.21,1.3,1.74l20.32,11.74c.82.44,1.65.68,2.77.79.41.02.78.03,1.2.01.31-.02.6-.05.93-.1.57-.11,1.03-.24,1.51-.43.18-.08.36-.17.56-.28l42.29-24.42c.82-.51,1.21-.9,1.27-1.72.03-.32.33-.56.64-.53.31.02.56.3.52.62-.12,1.42-.96,2.07-1.83,2.62l-42.32,24.44c-.25.13-.44.23-.67.33-.61.24-1.11.38-1.78.51-.37.06-.7.1-1.06.12-.2,0-.38.01-.54.01Z"/>
      <path class="cls-2" d="M26.15,49.48h-.16c-.69-.03-1.24-.1-1.88-.24-.77-.19-1.32-.4-1.93-.73L1.84,36.76c-.88-.56-1.73-1.21-1.84-2.63-.03-.32.21-.6.52-.62.31-.03.61.21.62.53.08.82.47,1.21,1.3,1.73l20.32,11.74c.51.27.96.45,1.61.61.56.12,1.04.18,1.65.2.39.01.79-.01,1.19-.05,1.03-.13,1.76-.35,2.53-.77l42.3-24.42c.79-.5,1.19-.91,1.27-1.72.01-.31.29-.56.62-.53.31.02.55.31.52.62-.11,1.42-.99,2.09-1.82,2.61l-42.32,24.44c-.91.5-1.78.77-2.97.92-.42.04-.78.06-1.19.06Z"/>
      <path class="cls-2" d="M26.17,55.19h-.16c-.68-.03-1.24-.1-1.88-.24-.76-.19-1.32-.4-1.92-.73L1.86,42.47c-.88-.56-1.73-1.21-1.84-2.63-.03-.32.21-.6.52-.62.3-.03.6.21.62.53.08.82.47,1.21,1.3,1.74l20.32,11.73c.51.28.96.45,1.62.61.55.12,1.04.18,1.65.2.39,0,.77,0,1.19-.05,1.03-.13,1.76-.35,2.53-.77l42.31-24.42c.78-.5,1.2-.91,1.27-1.72.02-.32.31-.57.62-.53.31.02.56.3.52.62-.12,1.42-.99,2.09-1.83,2.62l-42.32,24.44c-.91.51-1.77.77-2.97.92-.42.04-.78.06-1.19.06Z"/>
      <path class="cls-3" d="M56.16,26.91v14.35c-5.77,3.33-4.71,2.71-10.48,6.04v-14.35c5.77-3.33,4.71-2.71,10.48-6.04Z"/>
      <path class="cls-2" d="M46.27,33.29v13.02l9.31-5.38v-13.02l-9.31,5.38h0ZM45.68,47.89c-.1,0-.2-.03-.29-.08-.18-.1-.28-.29-.28-.5v-14.35c0-.2.1-.39.28-.5l10.48-6.05c.18-.1.39-.1.57,0,.18.1.29.29.29.5v14.35c0,.2-.12.39-.29.5l-10.47,6.05c-.1.05-.2.08-.3.08Z"/>
      <path class="cls-2" d="M25.4,39.14c-.21,0-.39-.1-.51-.29-.16-.28-.06-.63.22-.79l5.12-2.96c.28-.16.64-.07.78.21.17.27.07.63-.19.79l-5.14,2.96c-.08.05-.18.08-.28.08Z"/>
      <path class="cls-2" d="M8.09,29.15c-.2,0-.39-.1-.49-.29-.16-.27-.06-.63.22-.79l5.12-2.96c.28-.16.62-.07.78.21.17.27.07.63-.21.79l-5.12,2.95c-.08.05-.2.08-.29.08Z"/>
      <path class="cls-2" d="M43.97,8.44c-.21,0-.39-.1-.51-.29-.16-.28-.06-.63.21-.79l5.12-2.96c.27-.16.63-.07.78.21.16.27.06.63-.21.79l-5.12,2.96c-.08.05-.18.08-.28.08Z"/>
      <path class="cls-2" d="M61.27,18.43c-.2,0-.39-.1-.51-.29-.15-.27-.07-.63.21-.79l5.12-2.95c.28-.16.63-.07.8.21.17.28.07.63-.21.79l-5.12,2.96c-.1.05-.2.08-.3.08Z"/>
      <polygon class="cls-4" points="48.08 31.58 49.09 30.99 50.1 30.41 50.1 44.76 49.09 45.34 48.08 45.93 48.08 31.58"/>
      <path class="cls-2" d="M48.65,31.91v13.02l.88-.5v-13.02l-.88.5h0ZM48.08,46.5c-.1,0-.2-.02-.29-.07-.18-.1-.28-.29-.28-.5v-14.35c0-.21.1-.39.28-.5l2.02-1.17c.18-.1.41-.1.59,0,.18.1.27.29.27.5v14.35c0,.21-.1.4-.27.5l-2.02,1.17c-.1.05-.2.07-.3.07Z"/>
      <polygon class="cls-4" points="53.28 28.57 52.27 29.16 52.27 43.51 53.28 42.93 54.29 42.34 54.29 27.99 53.28 28.57"/>
      <path class="cls-2" d="M52.84,29.49v13.02l.88-.5v-13.02l-.88.5h0ZM52.27,44.09c-.1,0-.2-.02-.29-.08-.18-.1-.28-.3-.28-.5v-14.36c0-.21.1-.4.28-.5l1.01-.59h0l1.01-.58c.18-.1.41-.1.59,0,.18.1.29.29.29.5v14.35c-.01.21-.11.4-.29.5l-2.02,1.17c-.1.05-.2.07-.29.07Z"/>
      <path class="cls-3" d="M66.48,60.39c-6.49,3.74-17,3.74-23.48,0-6.49-3.74-6.49-9.81,0-13.56,6.47-3.74,16.99-3.74,23.48,0,6.49,3.74,6.49,9.81,0,13.56Z"/>
      <path class="cls-2" d="M66.48,60.39h.02-.02ZM54.75,44.6c-4.16,0-8.3.91-11.47,2.73-2.95,1.71-4.56,3.94-4.56,6.28s1.61,4.57,4.56,6.28c6.33,3.65,16.6,3.65,22.91,0,2.95-1.71,4.58-3.94,4.58-6.28s-1.63-4.58-4.58-6.28c-3.15-1.82-7.31-2.73-11.44-2.73h0ZM54.75,63.76c-4.37,0-8.72-.96-12.04-2.87-3.33-1.92-5.15-4.51-5.15-7.28s1.82-5.36,5.15-7.28c6.64-3.83,17.43-3.83,24.06,0,3.31,1.92,5.15,4.5,5.15,7.28s-1.84,5.36-5.15,7.28h0c-3.33,1.92-7.68,2.88-12.03,2.88Z"/>
      <path class="cls-3" d="M71.36,53.61c0,5.29.77,8.58-5.49,11.84-10.21,5.33-27.57,1.54-27.75-7.13v-4.71c.32,7.87,12.77,10.21,19.79,9.42,5.09-.57,13.19-3.23,13.45-9.42Z"/>
      <path class="cls-2" d="M38.7,57.37v.95c.05,3.01,2.38,5.01,4.32,6.16,6.07,3.59,16.19,3.79,22.58.45,4.38-2.3,5.11-4.5,5.18-7.66-2.54,4.06-8.8,5.88-12.82,6.33-5.54.62-13.32-.61-17.46-4.17-.75-.64-1.35-1.33-1.81-2.07h0ZM54.75,68.49c-4.45,0-8.92-1.01-12.31-3.01-3.15-1.86-4.84-4.33-4.89-7.15v-4.73c0-.31.24-.57.55-.57.39.02.59.24.6.56.07,1.91.93,3.58,2.56,4.97,3.85,3.3,11.41,4.47,16.58,3.89,4.69-.53,12.68-2.98,12.93-8.87.02-.31.28-.56.58-.56h0c.33,0,.57.26.57.57,0,.54,0,1.06.02,1.56.06,4.47.11,7.7-5.82,10.79-3.24,1.7-7.3,2.54-11.38,2.54Z"/>
      <path class="cls-3" d="M44.69,47.81c-2.77,1.6-4.16,3.7-4.16,5.8s1.39,4.2,4.16,5.8c2.77,1.6,6.4,2.4,10.04,2.4s7.27-.8,10.06-2.4c2.77-1.6,4.16-3.7,4.16-5.8s-1.39-4.2-4.16-5.8c-2.79-1.6-6.42-2.41-10.06-2.41s-7.27.81-10.04,2.41h0ZM66.48,60.39c-6.49,3.74-17,3.74-23.49,0-6.49-3.75-6.49-9.82,0-13.57,6.49-3.75,17-3.75,23.49,0,6.49,3.74,6.49,9.82,0,13.57h0Z"/>
      <path class="cls-2" d="M44.98,48.3c-2.51,1.44-3.88,3.33-3.88,5.3s1.37,3.86,3.88,5.3c2.59,1.5,6.07,2.33,9.75,2.33s7.17-.83,9.76-2.33c2.5-1.44,3.88-3.32,3.88-5.3s-1.39-3.86-3.88-5.3c-2.59-1.5-6.06-2.32-9.74-2.32h-.02c-3.68,0-7.15.83-9.75,2.32h0ZM54.73,62.39c-3.9,0-7.56-.88-10.33-2.48-2.87-1.66-4.45-3.9-4.45-6.31s1.58-4.64,4.45-6.3h0c2.77-1.6,6.44-2.48,10.33-2.48h.02c3.88,0,7.55.88,10.32,2.48,2.89,1.66,4.47,3.9,4.47,6.3s-1.58,4.65-4.47,6.31c-2.77,1.6-6.44,2.48-10.34,2.48h0ZM66.48,60.39h.02-.02ZM54.73,44.59c4.16,0,8.3.91,11.46,2.73,2.95,1.71,4.58,3.94,4.58,6.28s-1.63,4.58-4.58,6.29h0c-6.31,3.65-16.6,3.65-22.92,0-2.95-1.71-4.57-3.94-4.57-6.29s1.62-4.58,4.57-6.28c3.16-1.82,7.32-2.73,11.46-2.73h0ZM54.73,63.77c-4.35,0-8.7-.96-12.03-2.88-3.33-1.92-5.15-4.51-5.15-7.29s1.82-5.36,5.15-7.28c6.63-3.83,17.45-3.83,24.08,0,3.33,1.92,5.15,4.51,5.15,7.28s-1.82,5.37-5.15,7.28h0c-3.33,1.92-7.68,2.88-12.05,2.88Z"/>
      <path class="cls-1" d="M66.48,60.39c-6.49,3.74-17,3.74-23.49,0-6.49-3.75-6.49-9.82,0-13.57,6.49-3.75,17-3.75,23.49,0,6.49,3.74,6.49,9.82,0,13.57Z"/>
      <path class="cls-2" d="M66.48,60.39h.02-.02ZM54.73,44.59c-4.14,0-8.3.91-11.46,2.73-2.95,1.71-4.57,3.94-4.57,6.28s1.62,4.58,4.57,6.29c6.32,3.65,16.61,3.65,22.92,0h0c2.95-1.71,4.58-3.94,4.58-6.29s-1.63-4.57-4.58-6.28c-3.16-1.82-7.31-2.73-11.46-2.73h0ZM54.73,63.77c-4.35,0-8.7-.96-12.03-2.88-3.33-1.92-5.15-4.51-5.15-7.29s1.82-5.36,5.15-7.28c6.63-3.83,17.45-3.83,24.08,0,3.33,1.92,5.15,4.51,5.15,7.28s-1.82,5.37-5.15,7.28h0c-3.33,1.92-7.68,2.88-12.05,2.88Z"/>
      <path class="cls-3" d="M44.69,47.81c-2.77,1.6-4.16,3.7-4.16,5.8s1.39,4.2,4.16,5.8c2.77,1.6,6.4,2.4,10.04,2.4s7.27-.8,10.06-2.4c2.77-1.6,4.16-3.7,4.16-5.8s-1.39-4.2-4.16-5.8c-2.79-1.6-6.42-2.41-10.06-2.41s-7.27.81-10.04,2.41h0ZM66.48,60.39c-6.49,3.74-17,3.74-23.49,0-6.49-3.75-6.49-9.82,0-13.57,6.49-3.75,17-3.75,23.49,0,6.49,3.74,6.49,9.82,0,13.57h0Z"/>
      <path class="cls-2" d="M44.98,48.3c-2.51,1.44-3.88,3.33-3.88,5.3s1.37,3.86,3.88,5.3c2.59,1.5,6.07,2.33,9.75,2.33s7.17-.83,9.76-2.33c2.5-1.44,3.88-3.32,3.88-5.3s-1.39-3.86-3.88-5.3c-2.59-1.5-6.06-2.32-9.74-2.32h-.02c-3.68,0-7.15.83-9.75,2.32h0ZM54.73,62.39c-3.9,0-7.56-.88-10.33-2.48-2.87-1.66-4.45-3.9-4.45-6.31s1.58-4.64,4.45-6.3h0c2.77-1.6,6.44-2.48,10.33-2.48h.02c3.88,0,7.55.88,10.32,2.48,2.89,1.66,4.47,3.9,4.47,6.3s-1.58,4.65-4.47,6.31c-2.77,1.6-6.44,2.48-10.34,2.48h0ZM66.48,60.39h.02-.02ZM54.73,44.59c4.16,0,8.3.91,11.46,2.73,2.95,1.71,4.58,3.94,4.58,6.28s-1.63,4.58-4.58,6.29h0c-6.31,3.65-16.6,3.65-22.92,0-2.95-1.71-4.57-3.94-4.57-6.29s1.62-4.58,4.57-6.28c3.16-1.82,7.32-2.73,11.46-2.73h0ZM54.73,63.77c-4.35,0-8.7-.96-12.03-2.88-3.33-1.92-5.15-4.51-5.15-7.29s1.82-5.36,5.15-7.28c6.63-3.83,17.45-3.83,24.08,0,3.33,1.92,5.15,4.51,5.15,7.28s-1.82,5.37-5.15,7.28h0c-3.33,1.92-7.68,2.88-12.05,2.88Z"/>
      <path class="cls-2" d="M68.93,63.96c-.31,0-.57-.26-.57-.58v-4.44c0-.32.26-.58.57-.58.32,0,.59.26.59.58v4.44c0,.32-.26.58-.59.58Z"/>
      <path class="cls-2" d="M65.34,66.28c-.31,0-.57-.26-.57-.58v-4.22c0-.32.25-.58.57-.58s.57.26.57.58l.02,4.22c0,.32-.26.58-.59.58Z"/>
      <path class="cls-2" d="M60.34,67.94c-.31,0-.57-.26-.57-.58v-4.54c0-.32.26-.58.57-.58s.58.26.58.58v4.54c0,.32-.26.58-.58.58Z"/>
      <path class="cls-2" d="M54.49,68.48c-.31,0-.58-.26-.59-.57l-.05-4.7c0-.31.24-.57.57-.58h0c.33,0,.59.25.59.57l.05,4.7c0,.31-.25.58-.57.59h0Z"/>
      <path class="cls-2" d="M48.91,67.86c-.31,0-.57-.26-.57-.57v-4.6c0-.32.26-.58.57-.58.32,0,.59.26.59.58v4.6c0,.31-.26.57-.59.57Z"/>
      <path class="cls-2" d="M43.92,66.19c-.32,0-.58-.26-.58-.58v-4.41c0-.32.26-.58.58-.58s.57.26.57.58v4.41c0,.32-.26.58-.57.58Z"/>
      <path class="cls-2" d="M40.5,63.7c-.31,0-.57-.26-.57-.58v-4.4c0-.32.26-.58.57-.58.33,0,.59.26.59.58v4.4c0,.32-.26.58-.59.58Z"/>
      <path class="cls-2" d="M56.2,59.37c-.2,0-.39-.1-.51-.28-.16-.28-.06-.64.21-.79,2.4-1.4,4.49-2.57,6.77-3.8.15-.08.21-.15.23-.17-.01,0-.08-.08-.23-.17l-3.23-1.88c-.29-.17-1.22-.28-1.73,0-.97.57-2,1.13-3.01,1.68-.91.5-1.79.98-2.58,1.44-.88.52-2.02.52-2.9,0l-3-1.74c-.53-.31-.83-.76-.8-1.24,0-.27.13-.78.86-1.13,1.86-.9,3.9-2,6.25-3.36.27-.16.61-.07.78.21.16.28.06.63-.21.79-2.37,1.38-4.44,2.49-6.33,3.4-.18.08-.22.16-.22.16.02-.02.07.07.24.17l3,1.74c.51.3,1.22.3,1.73,0,.8-.46,1.7-.95,2.61-1.45.99-.54,2.02-1.1,2.98-1.66.93-.55,2.31-.35,2.9,0l3.23,1.88c.7.42.8.93.8,1.2s-.11.77-.83,1.16c-2.26,1.22-4.35,2.39-6.73,3.78-.1.05-.2.08-.3.08Z"/>
      <path class="cls-2" d="M62.46,58.69c-.1,0-.2-.03-.29-.08-1.77-1.04-3.54-2.07-5.26-3.11-3.39-2-6.88-4.07-10.39-6.03-.28-.16-.39-.51-.23-.79.16-.28.51-.38.78-.23,3.54,1.97,7.03,4.04,10.42,6.05,1.73,1.03,3.49,2.06,5.27,3.1.26.16.35.52.19.79-.1.18-.29.28-.49.28Z"/>
      <path class="cls-3" d="M66.48,55.69c-6.49,3.74-17,3.74-23.48,0-6.49-3.75-6.49-9.81,0-13.56,6.47-3.74,16.99-3.74,23.48,0,6.49,3.74,6.49,9.81,0,13.56Z"/>
      <path class="cls-2" d="M54.75,39.9c-4.16,0-8.3.91-11.47,2.74-2.95,1.7-4.56,3.93-4.56,6.28s1.61,4.58,4.56,6.28c6.33,3.65,16.6,3.65,22.91,0,2.95-1.7,4.58-3.93,4.58-6.28s-1.63-4.57-4.58-6.28c-3.15-1.83-7.31-2.74-11.44-2.74h0ZM54.75,59.07c-4.37,0-8.72-.96-12.04-2.87-3.33-1.92-5.15-4.51-5.15-7.28s1.82-5.36,5.15-7.28c6.64-3.83,17.43-3.83,24.06,0,3.31,1.92,5.15,4.5,5.15,7.28s-1.84,5.36-5.15,7.28c-3.33,1.91-7.68,2.87-12.03,2.87Z"/>
      <path class="cls-3" d="M71.36,48.91c0,5.28.77,8.57-5.49,11.83-10.21,5.33-27.57,1.54-27.75-7.13v-4.71c.32,7.87,12.77,10.2,19.79,9.42,5.09-.57,13.19-3.23,13.45-9.42Z"/>
      <path class="cls-2" d="M38.7,52.67v.95c.05,3.01,2.38,5.01,4.32,6.16,6.07,3.59,16.19,3.78,22.58.45,4.38-2.29,5.11-4.5,5.18-7.66-2.54,4.06-8.8,5.88-12.82,6.33-5.54.61-13.32-.61-17.46-4.17-.75-.64-1.35-1.33-1.81-2.07h0ZM54.75,63.79c-4.45,0-8.92-1.01-12.31-3.01-3.15-1.87-4.84-4.33-4.89-7.14v-4.72c0-.32.24-.57.55-.58h.02c.31,0,.57.25.59.55.07,1.91.93,3.58,2.56,4.98,3.85,3.3,11.41,4.47,16.58,3.89,4.69-.53,12.68-2.98,12.93-8.87.02-.3.28-.55.58-.55h0c.33,0,.57.26.57.58,0,.54,0,1.05.02,1.55.06,4.47.11,7.7-5.82,10.79-3.24,1.7-7.3,2.54-11.38,2.54Z"/>
      <path class="cls-3" d="M44.69,43.11c-2.77,1.6-4.16,3.7-4.16,5.8s1.39,4.2,4.16,5.8c2.77,1.6,6.4,2.4,10.04,2.4s7.27-.8,10.06-2.4c2.77-1.6,4.16-3.7,4.16-5.8s-1.39-4.2-4.16-5.8c-2.79-1.6-6.42-2.4-10.06-2.4s-7.27.8-10.04,2.4h0ZM66.48,55.69c-6.49,3.74-17,3.74-23.49,0-6.49-3.75-6.49-9.82,0-13.57,6.49-3.75,17-3.75,23.49,0,6.49,3.75,6.49,9.82,0,13.57h0Z"/>
      <path class="cls-2" d="M44.98,43.61c-2.51,1.44-3.88,3.32-3.88,5.3s1.37,3.86,3.88,5.3c2.59,1.5,6.07,2.33,9.75,2.33s7.17-.83,9.76-2.33c2.5-1.44,3.88-3.32,3.88-5.3s-1.39-3.86-3.88-5.3c-2.59-1.5-6.06-2.33-9.74-2.33h-.02c-3.68,0-7.15.83-9.75,2.33h0ZM54.73,57.7c-3.9,0-7.56-.88-10.33-2.48-2.87-1.66-4.45-3.9-4.45-6.3s1.58-4.64,4.45-6.3h0c2.77-1.6,6.44-2.48,10.33-2.48h.02c3.88,0,7.55.88,10.32,2.48,2.89,1.66,4.47,3.9,4.47,6.3s-1.58,4.64-4.47,6.3c-2.77,1.6-6.44,2.48-10.34,2.48h0ZM54.73,39.89c4.16,0,8.3.91,11.46,2.74,2.95,1.7,4.58,3.94,4.58,6.29s-1.63,4.58-4.58,6.28h0c-6.31,3.65-16.6,3.65-22.92,0-2.95-1.71-4.57-3.94-4.57-6.28s1.62-4.58,4.57-6.29c3.16-1.82,7.32-2.74,11.46-2.74h0ZM54.73,59.07c-4.35,0-8.7-.95-12.03-2.87-3.33-1.92-5.15-4.51-5.15-7.28s1.82-5.37,5.15-7.29c6.63-3.83,17.45-3.83,24.08,0,3.33,1.92,5.15,4.51,5.15,7.29s-1.82,5.36-5.15,7.28h0c-3.33,1.92-7.68,2.87-12.05,2.87Z"/>
      <path class="cls-1" d="M66.48,55.69c-6.49,3.74-17,3.74-23.49,0-6.49-3.75-6.49-9.82,0-13.57,6.49-3.75,17-3.75,23.49,0,6.49,3.75,6.49,9.82,0,13.57Z"/>
      <path class="cls-2" d="M54.73,39.89c-4.14,0-8.3.91-11.46,2.74-2.95,1.7-4.57,3.94-4.57,6.29s1.62,4.58,4.57,6.28c6.32,3.65,16.61,3.65,22.92,0h0c2.95-1.71,4.58-3.94,4.58-6.28s-1.63-4.58-4.58-6.29c-3.16-1.82-7.31-2.74-11.46-2.74h0ZM54.73,59.07c-4.35,0-8.7-.95-12.03-2.87-3.33-1.92-5.15-4.51-5.15-7.28s1.82-5.37,5.15-7.29c6.63-3.83,17.45-3.83,24.08,0,3.33,1.92,5.15,4.51,5.15,7.29s-1.82,5.36-5.15,7.28h0c-3.33,1.92-7.68,2.87-12.05,2.87Z"/>
      <path class="cls-3" d="M44.69,43.11c-2.77,1.6-4.16,3.7-4.16,5.8s1.39,4.2,4.16,5.8c2.77,1.6,6.4,2.4,10.04,2.4s7.27-.8,10.06-2.4c2.77-1.6,4.16-3.7,4.16-5.8s-1.39-4.2-4.16-5.8c-2.79-1.6-6.42-2.4-10.06-2.4s-7.27.8-10.04,2.4h0ZM66.48,55.69c-6.49,3.74-17,3.74-23.49,0-6.49-3.75-6.49-9.82,0-13.57,6.49-3.75,17-3.75,23.49,0,6.49,3.75,6.49,9.82,0,13.57h0Z"/>
      <path class="cls-2" d="M44.98,43.61c-2.51,1.44-3.88,3.32-3.88,5.3s1.37,3.86,3.88,5.3c2.59,1.5,6.07,2.33,9.75,2.33s7.17-.83,9.76-2.33c2.5-1.44,3.88-3.32,3.88-5.3s-1.39-3.86-3.88-5.3c-2.59-1.5-6.06-2.33-9.74-2.33h-.02c-3.68,0-7.15.83-9.75,2.33h0ZM54.73,57.7c-3.9,0-7.56-.88-10.33-2.48-2.87-1.66-4.45-3.9-4.45-6.3s1.58-4.64,4.45-6.3h0c2.77-1.6,6.44-2.48,10.33-2.48h.02c3.88,0,7.55.88,10.32,2.48,2.89,1.66,4.47,3.9,4.47,6.3s-1.58,4.64-4.47,6.3c-2.77,1.6-6.44,2.48-10.34,2.48h0ZM54.73,39.89c4.16,0,8.3.91,11.46,2.74,2.95,1.7,4.58,3.94,4.58,6.29s-1.63,4.58-4.58,6.28h0c-6.31,3.65-16.6,3.65-22.92,0-2.95-1.71-4.57-3.94-4.57-6.28s1.62-4.58,4.57-6.29c3.16-1.82,7.32-2.74,11.46-2.74h0ZM54.73,59.07c-4.35,0-8.7-.95-12.03-2.87-3.33-1.92-5.15-4.51-5.15-7.28s1.82-5.37,5.15-7.29c6.63-3.83,17.45-3.83,24.08,0,3.33,1.92,5.15,4.51,5.15,7.29s-1.82,5.36-5.15,7.28h0c-3.33,1.92-7.68,2.87-12.05,2.87Z"/>
      <path class="cls-2" d="M68.93,59.26c-.31,0-.57-.26-.57-.58v-4.44c0-.32.26-.58.57-.58.32,0,.59.26.59.58v4.44c0,.32-.26.58-.59.58Z"/>
      <path class="cls-2" d="M65.34,61.59c-.31,0-.57-.26-.57-.58v-4.22c0-.32.25-.58.57-.58s.57.26.57.58l.02,4.22c0,.32-.26.58-.59.58Z"/>
      <path class="cls-2" d="M60.34,63.23c-.31,0-.57-.26-.57-.57v-4.54c0-.32.26-.58.57-.58s.58.26.58.58v4.54c0,.32-.26.57-.58.57Z"/>
      <path class="cls-2" d="M54.49,63.78c-.31,0-.58-.26-.59-.58l-.05-4.69c0-.32.24-.58.57-.59h0c.33,0,.59.26.59.57l.05,4.7c0,.32-.25.58-.57.59h0Z"/>
      <path class="cls-2" d="M48.91,63.16c-.31,0-.57-.26-.57-.58v-4.6c0-.32.26-.58.57-.58.32,0,.59.26.59.58v4.6c0,.32-.26.58-.59.58Z"/>
      <path class="cls-2" d="M43.92,61.49c-.32,0-.58-.26-.58-.58v-4.41c0-.32.26-.58.58-.58s.57.26.57.58v4.41c0,.32-.26.58-.57.58Z"/>
      <path class="cls-2" d="M40.5,59.01c-.31,0-.57-.26-.57-.58v-4.4c0-.32.26-.58.57-.58.33,0,.59.26.59.58v4.4c0,.32-.26.58-.59.58Z"/>
      <path class="cls-2" d="M56.2,54.68c-.2,0-.39-.1-.51-.28-.16-.28-.06-.63.21-.79,2.4-1.4,4.49-2.57,6.77-3.8.15-.08.21-.15.23-.17-.01-.01-.08-.08-.23-.17l-3.23-1.89c-.29-.17-1.22-.28-1.73,0-.97.56-2,1.13-3.01,1.67-.91.5-1.79.99-2.58,1.44-.88.51-2.02.52-2.9,0l-3-1.75c-.53-.31-.83-.76-.8-1.23,0-.28.13-.78.86-1.14,1.84-.9,3.9-2,6.25-3.37.27-.16.61-.06.78.21.16.27.06.63-.21.79-2.37,1.38-4.44,2.49-6.33,3.41-.18.08-.22.16-.22.16.02-.02.07.07.24.17l3,1.75c.51.3,1.22.3,1.73,0,.8-.46,1.7-.95,2.61-1.46.99-.54,2.02-1.1,2.98-1.66.93-.55,2.31-.35,2.9,0l3.23,1.88c.7.42.8.93.8,1.2s-.11.77-.83,1.16c-2.26,1.22-4.35,2.39-6.73,3.78-.1.05-.2.08-.3.08Z"/>
      <path class="cls-2" d="M62.46,53.99c-.1,0-.2-.02-.29-.08-1.79-1.04-3.54-2.08-5.3-3.12-3.36-2-6.85-4.06-10.35-6.02-.28-.16-.39-.51-.23-.79.16-.28.51-.38.78-.22,3.52,1.96,7.01,4.03,10.38,6.03,1.77,1.04,3.51,2.08,5.3,3.12.26.16.35.52.19.79-.1.18-.29.28-.49.28Z"/>
      <path class="cls-3" d="M66.48,51c-6.49,3.75-17,3.75-23.48,0-6.49-3.74-6.49-9.81,0-13.56,6.47-3.74,16.99-3.74,23.48,0,6.49,3.74,6.49,9.81,0,13.56Z"/>
      <path class="cls-2" d="M54.75,35.2c-4.16,0-8.3.91-11.47,2.74-2.95,1.7-4.56,3.93-4.56,6.27s1.61,4.58,4.56,6.28c6.33,3.65,16.6,3.65,22.91,0,2.95-1.7,4.58-3.93,4.58-6.28s-1.63-4.57-4.58-6.27c-3.15-1.82-7.31-2.74-11.44-2.74h0ZM54.75,54.37c-4.37,0-8.72-.95-12.04-2.87-3.33-1.92-5.15-4.51-5.15-7.28s1.82-5.36,5.15-7.28c6.64-3.83,17.43-3.83,24.06,0,3.31,1.92,5.15,4.51,5.15,7.28s-1.84,5.36-5.15,7.28c-3.33,1.92-7.68,2.87-12.03,2.87Z"/>
      <path class="cls-3" d="M71.36,44.21c0,5.28.77,8.57-5.49,11.83-10.21,5.33-27.57,1.54-27.75-7.13v-4.71c.32,7.87,12.77,10.2,19.79,9.42,5.09-.57,13.19-3.23,13.45-9.42Z"/>
      <path class="cls-2" d="M38.7,47.97v.95c.05,3.01,2.38,5.02,4.32,6.17,6.07,3.58,16.19,3.78,22.58.45,4.38-2.29,5.11-4.5,5.18-7.66-2.54,4.06-8.8,5.88-12.82,6.33-5.54.62-13.32-.61-17.46-4.17-.75-.63-1.35-1.33-1.81-2.07h0ZM54.75,59.1c-4.45,0-8.92-1.01-12.31-3.02-3.15-1.86-4.84-4.33-4.89-7.15v-4.72c0-.31.24-.57.55-.58.39-.03.59.24.6.56.07,1.91.93,3.58,2.56,4.97,3.85,3.3,11.41,4.47,16.58,3.89,4.69-.53,12.68-2.98,12.93-8.87.02-.31.28-.56.58-.56h0c.33.01.57.27.57.58,0,.54,0,1.05.02,1.55.06,4.47.11,7.7-5.82,10.8-3.24,1.7-7.3,2.54-11.38,2.54Z"/>
      <path class="cls-3" d="M44.69,38.41c-2.77,1.6-4.16,3.7-4.16,5.8s1.39,4.2,4.16,5.8c2.77,1.6,6.4,2.4,10.04,2.4s7.27-.8,10.06-2.4c2.77-1.6,4.16-3.7,4.16-5.8s-1.39-4.2-4.16-5.8c-2.79-1.6-6.42-2.4-10.06-2.4s-7.27.8-10.04,2.4h0ZM66.48,51c-6.49,3.75-17,3.75-23.49,0-6.49-3.74-6.49-9.82,0-13.57,6.49-3.74,17-3.74,23.49,0,6.49,3.75,6.49,9.82,0,13.57h0Z"/>
      <path class="cls-2" d="M44.98,38.91c-2.51,1.44-3.88,3.32-3.88,5.3s1.37,3.86,3.88,5.31c2.59,1.5,6.07,2.32,9.75,2.32s7.17-.83,9.76-2.33c2.5-1.44,3.88-3.32,3.88-5.3s-1.39-3.86-3.88-5.3c-2.59-1.5-6.06-2.33-9.74-2.33h-.02c-3.68,0-7.15.83-9.75,2.33h0ZM54.73,53c-3.9,0-7.56-.88-10.33-2.48-2.87-1.66-4.45-3.9-4.45-6.31s1.58-4.64,4.45-6.3h0c2.77-1.6,6.44-2.48,10.33-2.48h.02c3.88,0,7.55.88,10.32,2.48,2.89,1.66,4.47,3.9,4.47,6.3s-1.58,4.64-4.47,6.3c-2.77,1.6-6.44,2.48-10.34,2.48h0ZM54.73,35.19c4.16,0,8.3.91,11.46,2.74,2.95,1.71,4.58,3.94,4.58,6.28s-1.63,4.58-4.58,6.29h0c-6.31,3.65-16.6,3.65-22.92,0-2.95-1.71-4.57-3.94-4.57-6.29s1.62-4.57,4.57-6.28c3.16-1.82,7.32-2.74,11.46-2.74h0ZM54.73,54.37c-4.35,0-8.7-.95-12.03-2.87-3.33-1.92-5.15-4.51-5.15-7.29s1.82-5.36,5.15-7.28c6.63-3.83,17.45-3.83,24.08,0,3.33,1.92,5.15,4.5,5.15,7.28s-1.82,5.37-5.15,7.29h0c-3.33,1.92-7.68,2.87-12.05,2.87Z"/>
      <path class="cls-1" d="M66.48,51c-6.49,3.75-17,3.75-23.49,0-6.49-3.74-6.49-9.82,0-13.57,6.49-3.74,17-3.74,23.49,0,6.49,3.75,6.49,9.82,0,13.57Z"/>
      <path class="cls-2" d="M54.73,35.19c-4.14,0-8.3.91-11.46,2.74-2.95,1.71-4.57,3.94-4.57,6.28s1.62,4.58,4.57,6.29c6.32,3.65,16.61,3.65,22.92,0h0c2.95-1.71,4.58-3.94,4.58-6.29s-1.63-4.57-4.58-6.28c-3.16-1.82-7.31-2.74-11.46-2.74h0ZM54.73,54.37c-4.35,0-8.7-.95-12.03-2.87-3.33-1.92-5.15-4.51-5.15-7.29s1.82-5.36,5.15-7.28c6.63-3.83,17.45-3.83,24.08,0,3.33,1.92,5.15,4.5,5.15,7.28s-1.82,5.37-5.15,7.29h0c-3.33,1.92-7.68,2.87-12.05,2.87Z"/>
      <path class="cls-3" d="M44.69,38.41c-2.77,1.6-4.16,3.7-4.16,5.8s1.39,4.2,4.16,5.8c2.77,1.6,6.4,2.4,10.04,2.4s7.27-.8,10.06-2.4c2.77-1.6,4.16-3.7,4.16-5.8s-1.39-4.2-4.16-5.8c-2.79-1.6-6.42-2.4-10.06-2.4s-7.27.8-10.04,2.4h0ZM66.48,51c-6.49,3.75-17,3.75-23.49,0-6.49-3.74-6.49-9.82,0-13.57,6.49-3.74,17-3.74,23.49,0,6.49,3.75,6.49,9.82,0,13.57h0Z"/>
      <path class="cls-2" d="M44.98,38.91c-2.51,1.44-3.88,3.32-3.88,5.3s1.37,3.86,3.88,5.31c2.59,1.5,6.07,2.32,9.75,2.32s7.17-.83,9.76-2.33c2.5-1.44,3.88-3.32,3.88-5.3s-1.39-3.86-3.88-5.3c-2.59-1.5-6.06-2.33-9.74-2.33h-.02c-3.68,0-7.15.83-9.75,2.33h0ZM54.73,53c-3.9,0-7.56-.88-10.33-2.48-2.87-1.66-4.45-3.9-4.45-6.31s1.58-4.64,4.45-6.3h0c2.77-1.6,6.44-2.48,10.33-2.48h.02c3.88,0,7.55.88,10.32,2.48,2.89,1.66,4.47,3.9,4.47,6.3s-1.58,4.64-4.47,6.3c-2.77,1.6-6.44,2.48-10.34,2.48h0ZM54.73,35.19c4.16,0,8.3.91,11.46,2.74,2.95,1.71,4.58,3.94,4.58,6.28s-1.63,4.58-4.58,6.29h0c-6.31,3.65-16.6,3.65-22.92,0-2.95-1.71-4.57-3.94-4.57-6.29s1.62-4.57,4.57-6.28c3.16-1.82,7.32-2.74,11.46-2.74h0ZM54.73,54.37c-4.35,0-8.7-.95-12.03-2.87-3.33-1.92-5.15-4.51-5.15-7.29s1.82-5.36,5.15-7.28c6.63-3.83,17.45-3.83,24.08,0,3.33,1.92,5.15,4.5,5.15,7.28s-1.82,5.37-5.15,7.29h0c-3.33,1.92-7.68,2.87-12.05,2.87Z"/>
      <path class="cls-2" d="M68.93,54.56c-.31,0-.57-.26-.57-.58v-4.44c0-.32.26-.58.57-.58.32,0,.59.26.59.58v4.44c0,.32-.26.58-.59.58Z"/>
      <path class="cls-2" d="M65.34,56.89c-.31,0-.57-.26-.57-.58v-4.22c0-.32.25-.58.57-.58s.57.26.57.58l.02,4.22c0,.32-.26.58-.59.58Z"/>
      <path class="cls-2" d="M60.34,58.53c-.31,0-.57-.26-.57-.57v-4.54c0-.32.26-.57.57-.57s.58.26.58.57v4.54c0,.32-.26.57-.58.57Z"/>
      <path class="cls-2" d="M54.49,59.08c-.31,0-.58-.26-.59-.57l-.05-4.7c0-.32.24-.59.57-.59h0c.33,0,.59.26.59.57l.05,4.7c0,.32-.25.58-.57.58h0Z"/>
      <path class="cls-2" d="M48.91,58.47c-.31,0-.57-.26-.57-.57v-4.6c0-.32.26-.58.57-.58.32,0,.59.26.59.58v4.6c0,.32-.26.57-.59.57Z"/>
      <path class="cls-2" d="M43.92,56.8c-.32,0-.58-.26-.58-.58v-4.41c0-.32.26-.58.58-.58s.57.26.57.58v4.41c0,.32-.26.58-.57.58Z"/>
      <path class="cls-2" d="M40.5,54.31c-.31,0-.57-.26-.57-.58v-4.4c0-.32.26-.57.57-.57.33,0,.59.26.59.57v4.4c0,.32-.26.58-.59.58Z"/>
      <path class="cls-2" d="M56.2,49.98c-.2,0-.39-.1-.51-.29-.16-.28-.06-.63.21-.79,2.4-1.4,4.49-2.57,6.77-3.8.15-.08.21-.15.23-.17-.01,0-.08-.08-.23-.17l-3.23-1.88c-.29-.18-1.24-.29-1.73,0-.97.56-2,1.13-3.01,1.68-.91.5-1.79.99-2.58,1.44-.88.52-2.02.52-2.9,0l-3-1.75c-.53-.31-.83-.76-.8-1.24,0-.27.13-.78.86-1.13,1.86-.9,3.9-2,6.25-3.37.27-.16.61-.06.78.21.16.27.06.63-.21.79-2.37,1.38-4.44,2.49-6.33,3.41-.18.09-.22.16-.22.16.02-.02.07.07.24.17l3,1.75c.51.29,1.22.29,1.73,0,.8-.46,1.7-.95,2.61-1.45.99-.54,2.02-1.1,2.98-1.66.93-.54,2.3-.34,2.9,0l3.23,1.89c.7.41.8.92.8,1.19s-.11.77-.83,1.16c-2.26,1.22-4.35,2.39-6.73,3.78-.1.05-.2.08-.3.08Z"/>
      <path class="cls-2" d="M62.46,49.29c-.1,0-.2-.03-.29-.08-1.79-1.04-3.54-2.08-5.3-3.12-3.36-2-6.85-4.06-10.35-6.02-.28-.15-.39-.51-.23-.79.16-.28.51-.37.78-.22,3.52,1.97,7.01,4.03,10.38,6.03,1.77,1.03,3.51,2.07,5.3,3.11.26.16.35.52.19.79-.1.19-.29.29-.49.29Z"/>
      <path class="cls-3" d="M66.48,46.3c-6.49,3.75-17,3.75-23.48,0-6.49-3.74-6.49-9.81,0-13.56,6.47-3.74,16.99-3.74,23.48,0,6.49,3.74,6.49,9.81,0,13.56Z"/>
      <path class="cls-2" d="M54.75,30.5c-4.16,0-8.3.91-11.47,2.74-2.95,1.7-4.56,3.93-4.56,6.28s1.61,4.58,4.56,6.28c6.33,3.65,16.6,3.65,22.91,0,2.95-1.7,4.58-3.93,4.58-6.28s-1.63-4.58-4.58-6.28c-3.15-1.82-7.31-2.74-11.44-2.74h0ZM54.75,49.67c-4.37,0-8.72-.95-12.04-2.87-3.33-1.92-5.15-4.51-5.15-7.28s1.82-5.36,5.15-7.28c6.64-3.83,17.43-3.83,24.06,0,3.31,1.92,5.15,4.51,5.15,7.28s-1.84,5.36-5.15,7.28c-3.33,1.92-7.68,2.87-12.03,2.87Z"/>
      <path class="cls-3" d="M71.36,39.52c0,5.29.77,8.57-5.49,11.83-10.21,5.33-27.57,1.54-27.75-7.13v-4.71c.32,7.87,12.77,10.2,19.79,9.41,5.09-.57,13.19-3.23,13.45-9.41Z"/>
      <path class="cls-2" d="M38.7,43.28v.95c.05,3.01,2.38,5.02,4.32,6.17,6.07,3.58,16.19,3.78,22.58.45,4.38-2.29,5.11-4.49,5.18-7.66-2.54,4.06-8.8,5.88-12.82,6.33-5.54.62-13.32-.61-17.46-4.17-.75-.63-1.35-1.33-1.81-2.06h0ZM54.75,54.4c-4.45,0-8.92-1.01-12.31-3.02-3.15-1.86-4.84-4.33-4.89-7.15v-4.72c0-.31.24-.58.55-.58.39-.01.59.24.6.56.07,1.91.93,3.58,2.56,4.97,3.85,3.3,11.41,4.47,16.58,3.89,4.69-.53,12.68-2.98,12.93-8.87.02-.31.28-.56.58-.56h0c.33,0,.57.27.57.58,0,.54,0,1.06.02,1.55.06,4.47.11,7.7-5.82,10.79-3.24,1.7-7.3,2.54-11.38,2.54Z"/>
      <path class="cls-3" d="M44.69,33.71c-2.77,1.6-4.16,3.7-4.16,5.8s1.39,4.2,4.16,5.8c2.77,1.6,6.4,2.4,10.04,2.4s7.27-.8,10.06-2.4c2.77-1.6,4.16-3.7,4.16-5.8s-1.39-4.2-4.16-5.8c-2.79-1.6-6.42-2.4-10.06-2.4s-7.27.8-10.04,2.4h0ZM66.48,46.3c-6.49,3.75-17,3.75-23.49,0-6.49-3.74-6.49-9.82,0-13.57,6.49-3.75,17-3.75,23.49,0,6.49,3.74,6.49,9.82,0,13.57h0Z"/>
      <path class="cls-2" d="M54.75,31.89h-.02c-3.68,0-7.15.83-9.75,2.33-2.51,1.44-3.88,3.32-3.88,5.3s1.37,3.86,3.88,5.31c2.59,1.5,6.07,2.32,9.75,2.32s7.17-.83,9.76-2.33c2.5-1.44,3.88-3.32,3.88-5.3s-1.39-3.86-3.88-5.3c-2.59-1.5-6.06-2.33-9.74-2.33h0ZM54.73,48.3c-3.9,0-7.56-.88-10.33-2.48-2.87-1.66-4.45-3.9-4.45-6.31s1.58-4.64,4.45-6.3c2.77-1.6,6.44-2.48,10.33-2.48h.02c3.88,0,7.55.88,10.32,2.48,2.89,1.66,4.47,3.9,4.47,6.31s-1.58,4.64-4.47,6.3c-2.77,1.6-6.44,2.48-10.34,2.48h0ZM54.73,30.49c4.16,0,8.3.91,11.46,2.74,2.95,1.71,4.58,3.94,4.58,6.29s-1.63,4.57-4.58,6.28h0c-6.31,3.65-16.6,3.65-22.92,0-2.95-1.71-4.57-3.94-4.57-6.28s1.62-4.58,4.57-6.29c3.16-1.82,7.32-2.74,11.46-2.74h0ZM54.73,49.67c-4.35,0-8.7-.96-12.03-2.88-3.33-1.92-5.15-4.51-5.15-7.28s1.82-5.37,5.15-7.29c6.63-3.83,17.45-3.83,24.08,0,3.33,1.92,5.15,4.51,5.15,7.29s-1.82,5.36-5.15,7.28h0c-3.33,1.92-7.68,2.88-12.05,2.88Z"/>
      <path class="cls-1" d="M66.48,46.3c-6.49,3.75-17,3.75-23.49,0-6.49-3.74-6.49-9.82,0-13.57,6.49-3.75,17-3.75,23.49,0,6.49,3.74,6.49,9.82,0,13.57Z"/>
      <path class="cls-2" d="M54.73,30.49c-4.14,0-8.3.91-11.46,2.74-2.95,1.71-4.57,3.94-4.57,6.28s1.62,4.58,4.57,6.29c6.32,3.65,16.61,3.65,22.92,0h0c2.95-1.71,4.58-3.94,4.58-6.29s-1.63-4.57-4.58-6.28c-3.15-1.82-7.31-2.74-11.46-2.74h0ZM54.73,49.67c-4.35,0-8.7-.96-12.03-2.88-3.33-1.92-5.15-4.51-5.15-7.29s1.82-5.36,5.15-7.28c6.63-3.83,17.45-3.83,24.08,0,3.33,1.92,5.15,4.51,5.15,7.28s-1.82,5.37-5.15,7.29h0c-3.33,1.92-7.68,2.88-12.05,2.88Z"/>
      <path class="cls-3" d="M44.69,33.71c-2.77,1.6-4.16,3.7-4.16,5.8s1.39,4.2,4.16,5.8c2.77,1.6,6.4,2.4,10.04,2.4s7.27-.8,10.06-2.4c2.77-1.6,4.16-3.7,4.16-5.8s-1.39-4.2-4.16-5.8c-2.79-1.6-6.42-2.4-10.06-2.4s-7.27.8-10.04,2.4h0ZM66.48,46.3c-6.49,3.75-17,3.75-23.49,0-6.49-3.74-6.49-9.82,0-13.57,6.49-3.75,17-3.75,23.49,0,6.49,3.74,6.49,9.82,0,13.57h0Z"/>
      <path class="cls-2" d="M54.75,31.89h-.02c-3.68,0-7.15.83-9.75,2.33-2.51,1.44-3.88,3.32-3.88,5.3s1.37,3.86,3.88,5.31c2.59,1.5,6.07,2.32,9.75,2.32s7.17-.83,9.76-2.33c2.5-1.44,3.88-3.32,3.88-5.3s-1.39-3.86-3.88-5.3c-2.59-1.5-6.06-2.33-9.74-2.33h0ZM54.73,48.3c-3.9,0-7.56-.88-10.33-2.48-2.87-1.66-4.45-3.9-4.45-6.31s1.58-4.64,4.45-6.3c2.77-1.6,6.44-2.48,10.33-2.48h.02c3.88,0,7.55.88,10.32,2.48,2.89,1.66,4.47,3.9,4.47,6.31s-1.58,4.64-4.47,6.3c-2.77,1.6-6.44,2.48-10.34,2.48h0ZM54.73,30.49c4.16,0,8.3.91,11.46,2.74,2.95,1.71,4.58,3.94,4.58,6.29s-1.63,4.57-4.58,6.28h0c-6.31,3.65-16.6,3.65-22.92,0-2.95-1.71-4.57-3.94-4.57-6.28s1.62-4.58,4.57-6.29c3.16-1.82,7.32-2.74,11.46-2.74h0ZM54.73,49.67c-4.35,0-8.7-.96-12.03-2.88-3.33-1.92-5.15-4.51-5.15-7.28s1.82-5.37,5.15-7.29c6.63-3.83,17.45-3.83,24.08,0,3.33,1.92,5.15,4.51,5.15,7.29s-1.82,5.36-5.15,7.28h0c-3.33,1.92-7.68,2.88-12.05,2.88Z"/>
      <path class="cls-2" d="M68.93,49.87c-.31,0-.57-.26-.57-.58v-4.44c0-.32.26-.58.57-.58.32,0,.59.26.59.58v4.44c0,.32-.26.58-.59.58Z"/>
      <path class="cls-2" d="M65.34,52.19c-.31,0-.57-.26-.57-.57v-4.23c0-.32.25-.57.57-.57s.57.26.57.57l.02,4.23c0,.31-.26.57-.59.57Z"/>
      <path class="cls-2" d="M60.34,53.84c-.31,0-.57-.26-.57-.58v-4.54c0-.32.26-.57.57-.57s.58.26.58.57v4.54c0,.32-.26.58-.58.58Z"/>
      <path class="cls-2" d="M54.49,54.38c-.31,0-.58-.26-.59-.57l-.05-4.7c0-.32.24-.58.57-.58h0c.33,0,.59.26.59.57l.05,4.7c0,.32-.25.58-.57.58h0Z"/>
      <path class="cls-2" d="M48.91,53.77c-.31,0-.57-.26-.57-.58v-4.6c0-.32.26-.58.57-.58.32,0,.59.26.59.58v4.6c0,.32-.26.58-.59.58Z"/>
      <path class="cls-2" d="M43.92,52.1c-.32,0-.58-.26-.58-.58v-4.41c0-.32.26-.57.58-.57s.57.26.57.57v4.41c0,.32-.26.58-.57.58Z"/>
      <path class="cls-2" d="M40.5,49.61c-.31,0-.57-.26-.57-.58v-4.4c0-.32.26-.57.57-.57.33,0,.59.26.59.57v4.4c0,.32-.26.58-.59.58Z"/>
      <path class="cls-2" d="M56.2,45.28c-.2,0-.39-.1-.51-.29-.16-.27-.06-.63.21-.79,2.4-1.4,4.49-2.57,6.77-3.8.15-.08.21-.15.23-.17-.01,0-.08-.08-.23-.17l-3.23-1.88c-.29-.17-1.22-.29-1.73,0-.97.57-2,1.13-3,1.67-.93.5-1.81.99-2.59,1.44-.88.52-2.02.52-2.9,0l-3-1.75c-.53-.31-.83-.76-.8-1.24,0-.27.13-.78.86-1.13,1.86-.9,3.9-2,6.25-3.36.27-.16.61-.07.78.21.16.27.06.63-.21.79-2.37,1.37-4.44,2.49-6.33,3.4-.18.09-.22.16-.22.16.02-.02.07.07.24.17l3,1.75c.51.3,1.22.29,1.73,0,.8-.46,1.7-.95,2.62-1.46,1-.54,2.01-1.1,2.97-1.66.93-.55,2.3-.35,2.9,0l3.23,1.88c.7.41.8.92.8,1.19s-.11.77-.83,1.16c-2.26,1.22-4.35,2.39-6.73,3.78-.1.05-.2.08-.3.08Z"/>
      <path class="cls-2" d="M62.46,44.59c-.1,0-.2-.02-.29-.08-1.79-1.04-3.54-2.08-5.3-3.12-3.36-2-6.85-4.06-10.35-6.02-.28-.15-.39-.51-.23-.79.16-.27.51-.37.78-.22,3.52,1.97,7.01,4.03,10.38,6.03,1.77,1.03,3.51,2.07,5.3,3.11.26.16.35.52.19.79-.1.19-.29.29-.49.29Z"/>
      <path class="cls-3" d="M66.48,41.6c-6.49,3.74-17,3.74-23.48,0-6.49-3.74-6.49-9.81,0-13.56,6.47-3.74,16.99-3.74,23.48,0,6.49,3.74,6.49,9.81,0,13.56Z"/>
      <path class="cls-2" d="M66.48,41.6h.02-.02ZM54.75,25.81c-4.16,0-8.3.91-11.47,2.74-2.95,1.7-4.56,3.93-4.56,6.28s1.61,4.58,4.56,6.28c6.33,3.65,16.6,3.65,22.91,0h0c2.95-1.7,4.58-3.93,4.58-6.28s-1.63-4.57-4.58-6.28c-3.15-1.82-7.31-2.74-11.44-2.74h0ZM54.75,44.97c-4.37,0-8.72-.96-12.04-2.87-3.33-1.92-5.15-4.51-5.15-7.28s1.82-5.36,5.15-7.28c6.64-3.83,17.43-3.83,24.06,0,3.31,1.92,5.15,4.5,5.15,7.28s-1.84,5.36-5.15,7.28h0c-3.33,1.91-7.68,2.87-12.03,2.87Z"/>
      <path class="cls-3" d="M71.36,34.82c0,5.29.77,8.57-5.49,11.83-10.21,5.33-27.57,1.54-27.75-7.12v-4.71c.32,7.87,12.77,10.2,19.79,9.42,5.09-.57,13.19-3.23,13.45-9.42Z"/>
      <path class="cls-2" d="M38.7,38.57v.96c.05,3.01,2.38,5.01,4.32,6.16,6.07,3.58,16.19,3.78,22.58.45,4.38-2.3,5.11-4.49,5.18-7.66-2.54,4.06-8.8,5.88-12.82,6.33-5.54.62-13.32-.61-17.46-4.17-.75-.63-1.35-1.33-1.81-2.07h0ZM54.75,49.7c-4.45,0-8.92-1.01-12.31-3.02-3.15-1.86-4.84-4.33-4.89-7.15v-4.72c0-.31.24-.57.55-.58.39,0,.59.24.6.56.07,1.91.93,3.58,2.56,4.97,3.85,3.3,11.41,4.47,16.58,3.9,4.69-.53,12.68-2.98,12.93-8.87.02-.31.28-.56.58-.56h0c.33.01.57.27.57.58,0,.54,0,1.05.02,1.55.06,4.47.11,7.7-5.82,10.79-3.24,1.7-7.3,2.54-11.38,2.54Z"/>
      <path class="cls-3" d="M44.69,29.01c-2.77,1.6-4.16,3.71-4.16,5.8s1.39,4.2,4.16,5.8c2.77,1.61,6.4,2.4,10.04,2.4s7.27-.8,10.06-2.4c2.77-1.6,4.16-3.7,4.16-5.8s-1.39-4.2-4.16-5.8c-2.79-1.6-6.42-2.4-10.06-2.4s-7.27.8-10.04,2.4h0ZM66.48,41.6c-6.49,3.75-17,3.75-23.49,0-6.49-3.74-6.49-9.82,0-13.57,6.49-3.74,17-3.74,23.49,0,6.49,3.75,6.49,9.82,0,13.57h0Z"/>
      <path class="cls-2" d="M54.73,27.19c-3.68,0-7.15.83-9.75,2.32-2.51,1.44-3.88,3.33-3.88,5.3s1.37,3.86,3.88,5.3c2.59,1.5,6.07,2.32,9.75,2.32s7.17-.83,9.76-2.33c2.5-1.44,3.88-3.32,3.88-5.3s-1.39-3.86-3.88-5.3c-2.59-1.5-6.06-2.32-9.76-2.32h0ZM54.73,43.6c-3.9,0-7.56-.88-10.33-2.48-2.87-1.66-4.45-3.9-4.45-6.3s1.58-4.64,4.45-6.3c2.77-1.6,6.44-2.48,10.33-2.48s7.57.88,10.34,2.48c2.89,1.66,4.47,3.9,4.47,6.3s-1.58,4.64-4.47,6.3c-2.77,1.6-6.44,2.48-10.34,2.48h0ZM54.73,25.8c4.16,0,8.3.91,11.46,2.74,2.95,1.7,4.58,3.94,4.58,6.29s-1.63,4.58-4.58,6.28h0c-6.31,3.65-16.6,3.65-22.92,0-2.95-1.7-4.57-3.94-4.57-6.28s1.62-4.58,4.57-6.29c3.16-1.82,7.32-2.74,11.46-2.74h0ZM54.73,44.98c-4.35,0-8.7-.96-12.03-2.88-3.33-1.92-5.15-4.51-5.15-7.28s1.82-5.37,5.15-7.28c6.63-3.83,17.45-3.83,24.08,0,3.33,1.92,5.15,4.5,5.15,7.28s-1.82,5.36-5.15,7.28h0c-3.33,1.92-7.68,2.88-12.05,2.88Z"/>
      <path class="cls-1" d="M66.48,41.6c-6.49,3.75-17,3.75-23.49,0-6.49-3.74-6.49-9.82,0-13.57,6.49-3.74,17-3.74,23.49,0,6.49,3.75,6.49,9.82,0,13.57Z"/>
      <path class="cls-2" d="M54.73,25.8c-4.14,0-8.3.91-11.46,2.74-2.95,1.7-4.57,3.94-4.57,6.29s1.62,4.58,4.57,6.28c6.32,3.65,16.61,3.65,22.92,0h0c2.95-1.7,4.58-3.94,4.58-6.28s-1.63-4.58-4.58-6.29c-3.15-1.82-7.31-2.74-11.46-2.74h0ZM54.73,44.98c-4.35,0-8.7-.96-12.03-2.88-3.33-1.92-5.15-4.51-5.15-7.28s1.82-5.37,5.15-7.28c6.63-3.84,17.45-3.84,24.08,0,3.33,1.92,5.15,4.5,5.15,7.28s-1.82,5.36-5.15,7.28h0c-3.33,1.92-7.68,2.88-12.05,2.88Z"/>
      <path class="cls-3" d="M44.69,29.01c-2.77,1.6-4.16,3.71-4.16,5.8s1.39,4.2,4.16,5.8c2.77,1.61,6.4,2.4,10.04,2.4s7.27-.8,10.06-2.4c2.77-1.6,4.16-3.7,4.16-5.8s-1.39-4.2-4.16-5.8c-2.79-1.6-6.42-2.4-10.06-2.4s-7.27.8-10.04,2.4h0ZM66.48,41.6c-6.49,3.75-17,3.75-23.49,0-6.49-3.74-6.49-9.82,0-13.57,6.49-3.74,17-3.74,23.49,0,6.49,3.75,6.49,9.82,0,13.57h0Z"/>
      <path class="cls-2" d="M54.73,27.19c-3.68,0-7.15.83-9.75,2.32-2.51,1.44-3.88,3.33-3.88,5.3s1.37,3.86,3.88,5.3c2.59,1.5,6.07,2.32,9.75,2.32s7.17-.83,9.76-2.33c2.5-1.44,3.88-3.32,3.88-5.3s-1.39-3.86-3.88-5.3c-2.59-1.5-6.06-2.32-9.76-2.32h0ZM54.73,43.6c-3.9,0-7.56-.88-10.33-2.48-2.87-1.66-4.45-3.9-4.45-6.3s1.58-4.64,4.45-6.3c2.77-1.6,6.44-2.48,10.33-2.48s7.57.88,10.34,2.48c2.89,1.66,4.47,3.9,4.47,6.3s-1.58,4.64-4.47,6.3c-2.77,1.6-6.44,2.48-10.34,2.48h0ZM54.73,25.8c4.16,0,8.3.91,11.46,2.74,2.95,1.7,4.58,3.94,4.58,6.29s-1.63,4.58-4.58,6.28h0c-6.31,3.65-16.6,3.65-22.92,0-2.95-1.7-4.57-3.94-4.57-6.28s1.62-4.58,4.57-6.29c3.16-1.82,7.32-2.74,11.46-2.74h0ZM54.73,44.98c-4.35,0-8.7-.96-12.03-2.88-3.33-1.92-5.15-4.51-5.15-7.28s1.82-5.37,5.15-7.28c6.63-3.83,17.45-3.83,24.08,0,3.33,1.92,5.15,4.5,5.15,7.28s-1.82,5.36-5.15,7.28h0c-3.33,1.92-7.68,2.88-12.05,2.88Z"/>
      <path class="cls-2" d="M68.93,45.17c-.31,0-.57-.26-.57-.58v-4.44c0-.32.26-.58.57-.58.32,0,.59.26.59.58v4.44c0,.32-.26.58-.59.58Z"/>
      <path class="cls-2" d="M65.34,47.49c-.31,0-.57-.26-.57-.58v-4.23c0-.32.25-.57.57-.57s.57.26.57.57l.02,4.23c0,.31-.26.58-.59.58Z"/>
      <path class="cls-2" d="M60.34,49.14c-.31,0-.57-.26-.57-.58v-4.54c0-.32.26-.58.57-.58s.58.26.58.58v4.54c0,.32-.26.58-.58.58Z"/>
      <path class="cls-2" d="M54.49,49.68c-.31,0-.58-.26-.59-.57l-.05-4.7c0-.32.24-.58.57-.58h0c.33,0,.59.26.59.57l.05,4.7c0,.32-.25.58-.57.59h0Z"/>
      <path class="cls-2" d="M48.91,49.07c-.31,0-.57-.26-.57-.58v-4.6c0-.32.26-.57.57-.57.32,0,.59.26.59.57v4.6c0,.32-.26.58-.59.58Z"/>
      <path class="cls-2" d="M43.92,47.4c-.32,0-.58-.26-.58-.57v-4.41c0-.32.26-.58.58-.58s.57.26.57.58v4.41c0,.31-.26.57-.57.57Z"/>
      <path class="cls-2" d="M40.5,44.91c-.31,0-.57-.26-.57-.58v-4.4c0-.32.26-.58.57-.58.33,0,.59.26.59.58v4.4c0,.32-.26.58-.59.58Z"/>
      <path class="cls-2" d="M56.2,40.58c-.2,0-.39-.1-.51-.28-.16-.28-.06-.63.21-.79,2.38-1.38,4.47-2.56,6.77-3.8.15-.08.21-.15.23-.17-.01,0-.08-.08-.23-.17l-3.23-1.88c-.29-.17-1.22-.29-1.73,0-.97.56-2,1.13-3.01,1.67-.91.5-1.79.99-2.58,1.44-.88.52-2.02.52-2.9,0l-3-1.75c-.53-.31-.83-.76-.8-1.23,0-.28.13-.78.86-1.14,1.86-.9,3.9-2,6.25-3.36.27-.16.61-.07.78.21.16.28.06.63-.21.79-2.37,1.38-4.44,2.49-6.33,3.41-.18.09-.22.16-.22.16.02-.02.07.07.24.17l3,1.75c.51.29,1.22.29,1.73,0,.8-.46,1.7-.95,2.61-1.46.99-.54,2.02-1.1,2.98-1.66.93-.55,2.3-.35,2.9,0l3.23,1.88c.7.41.8.93.8,1.19s-.11.77-.83,1.16c-2.3,1.24-4.37,2.4-6.73,3.78-.1.05-.2.08-.3.08Z"/>
      <path class="cls-2" d="M62.46,39.9c-.1,0-.2-.03-.29-.08-1.79-1.05-3.55-2.09-5.3-3.13-3.38-1.99-6.85-4.05-10.35-6.01-.28-.16-.39-.51-.23-.79.16-.28.51-.37.78-.22,3.52,1.97,7.01,4.03,10.38,6.03,1.74,1.04,3.51,2.07,5.3,3.12.26.16.35.52.19.79-.1.19-.29.29-.49.29Z"/>
      <path class="cls-3" d="M34.64,72c-6.49,3.74-17,3.74-23.48,0-6.49-3.74-6.49-9.81,0-13.56,6.47-3.74,16.99-3.74,23.48,0,6.49,3.75,6.49,9.81,0,13.56Z"/>
      <path class="cls-2" d="M34.64,72h.01-.01ZM22.91,56.21c-4.16,0-8.3.91-11.46,2.74-2.95,1.7-4.57,3.93-4.57,6.28s1.61,4.58,4.57,6.28c6.33,3.65,16.59,3.65,22.9,0h0c2.95-1.7,4.58-3.93,4.58-6.28s-1.63-4.58-4.58-6.28c-3.15-1.83-7.3-2.74-11.44-2.74h0ZM22.91,75.37c-4.35,0-8.72-.96-12.03-2.87-3.32-1.92-5.15-4.51-5.15-7.28s1.83-5.36,5.15-7.28c6.64-3.83,17.43-3.83,24.07,0,3.33,1.92,5.15,4.5,5.15,7.28s-1.82,5.36-5.15,7.28h0c-3.33,1.91-7.68,2.87-12.03,2.87Z"/>
      <path class="cls-3" d="M39.52,65.21c0,5.29.77,8.57-5.49,11.84-10.21,5.33-27.57,1.54-27.75-7.13v-4.71c.32,7.87,12.76,10.21,19.79,9.42,5.09-.57,13.19-3.24,13.45-9.42Z"/>
      <path class="cls-2" d="M6.86,68.97v.95c.05,3.01,2.38,5.02,4.34,6.17,6.05,3.58,16.15,3.78,22.56.45,4.39-2.29,5.12-4.5,5.2-7.66-2.57,4.06-8.82,5.88-12.83,6.33-5.55.62-13.32-.61-17.46-4.17-.75-.64-1.35-1.33-1.81-2.07h0ZM22.91,80.1c-4.45,0-8.92-1.01-12.31-3.01-3.15-1.86-4.84-4.33-4.89-7.14v-4.73c0-.31.24-.57.55-.57h.02c.31,0,.57.24.59.55.06,1.91.93,3.58,2.56,4.98,3.85,3.3,11.41,4.47,16.58,3.89,4.69-.53,12.68-2.98,12.93-8.87.02-.31.28-.55.58-.55h0c.32,0,.57.26.57.57,0,.54.02,1.06.02,1.55.06,4.47.11,7.7-5.82,10.8-3.24,1.7-7.3,2.54-11.38,2.54Z"/>
      <path class="cls-3" d="M12.85,59.41c-2.77,1.6-4.16,3.7-4.16,5.8s1.39,4.2,4.16,5.8c2.77,1.6,6.41,2.4,10.04,2.4s7.29-.8,10.06-2.4c2.77-1.6,4.16-3.7,4.16-5.8s-1.39-4.2-4.16-5.8c-2.77-1.6-6.42-2.4-10.06-2.4s-7.27.8-10.04,2.4h0ZM34.64,72c-6.49,3.74-17,3.74-23.49,0-6.49-3.75-6.49-9.82,0-13.57,6.49-3.74,17-3.74,23.49,0,6.49,3.75,6.49,9.82,0,13.57h0Z"/>
      <path class="cls-2" d="M12.85,59.41h.01-.01ZM22.89,57.59c-3.69,0-7.15.82-9.75,2.33h0c-2.51,1.44-3.88,3.32-3.88,5.3s1.37,3.86,3.88,5.3c2.59,1.5,6.06,2.32,9.75,2.32s7.17-.83,9.77-2.32c2.49-1.44,3.88-3.32,3.88-5.3s-1.39-3.86-3.88-5.3c-2.6-1.5-6.07-2.33-9.77-2.33h0ZM22.89,74c-3.9,0-7.56-.88-10.33-2.48-2.87-1.66-4.45-3.9-4.45-6.31s1.58-4.64,4.45-6.3h0c2.77-1.6,6.44-2.48,10.33-2.48s7.58.88,10.34,2.48c2.88,1.66,4.47,3.9,4.47,6.3s-1.58,4.65-4.47,6.31c-2.76,1.6-6.44,2.48-10.34,2.48h0ZM34.64,72h.01-.01ZM22.89,56.2c-4.14,0-8.29.91-11.46,2.74-2.95,1.7-4.56,3.93-4.56,6.28s1.62,4.58,4.56,6.29c6.32,3.65,16.61,3.65,22.92,0h0c2.95-1.71,4.58-3.94,4.58-6.29s-1.63-4.58-4.58-6.28c-3.15-1.83-7.3-2.74-11.46-2.74h0ZM22.89,75.37c-4.35,0-8.72-.96-12.03-2.87-3.33-1.92-5.15-4.51-5.15-7.29s1.82-5.36,5.15-7.28c6.63-3.83,17.45-3.83,24.08,0,3.33,1.92,5.15,4.51,5.15,7.28s-1.82,5.37-5.15,7.29h0c-3.33,1.91-7.68,2.87-12.05,2.87Z"/>
      <path class="cls-1" d="M34.64,72c-6.49,3.74-17,3.74-23.49,0-6.49-3.75-6.49-9.82,0-13.57,6.49-3.74,17-3.74,23.49,0,6.49,3.75,6.49,9.82,0,13.57Z"/>
      <path class="cls-2" d="M34.64,72h.01-.01ZM22.89,56.2c-4.14,0-8.29.91-11.46,2.74-2.95,1.7-4.56,3.94-4.56,6.28s1.62,4.58,4.56,6.29c6.32,3.65,16.61,3.65,22.92,0h0c2.95-1.71,4.58-3.94,4.58-6.29s-1.63-4.58-4.58-6.28c-3.15-1.83-7.3-2.74-11.46-2.74h0ZM22.89,75.37c-4.35,0-8.72-.96-12.03-2.87-3.33-1.92-5.15-4.51-5.15-7.29s1.82-5.36,5.15-7.28c6.63-3.83,17.45-3.83,24.08,0,3.33,1.92,5.15,4.51,5.15,7.28s-1.82,5.37-5.15,7.29h0c-3.33,1.91-7.68,2.87-12.05,2.87Z"/>
      <path class="cls-3" d="M12.85,59.41c-2.77,1.6-4.16,3.7-4.16,5.8s1.39,4.2,4.16,5.8c2.77,1.6,6.41,2.4,10.04,2.4s7.29-.8,10.06-2.4c2.77-1.6,4.16-3.7,4.16-5.8s-1.39-4.2-4.16-5.8c-2.77-1.6-6.42-2.4-10.06-2.4s-7.27.8-10.04,2.4h0ZM34.64,72c-6.49,3.74-17,3.74-23.49,0-6.49-3.75-6.49-9.82,0-13.57,6.49-3.74,17-3.74,23.49,0,6.49,3.75,6.49,9.82,0,13.57h0Z"/>
      <path class="cls-2" d="M12.85,59.41h.01-.01ZM22.89,57.59c-3.69,0-7.15.82-9.75,2.33h0c-2.51,1.44-3.88,3.32-3.88,5.3s1.37,3.86,3.88,5.3c2.59,1.5,6.06,2.32,9.75,2.32s7.17-.83,9.77-2.32c2.49-1.44,3.88-3.32,3.88-5.3s-1.39-3.86-3.88-5.3c-2.6-1.5-6.07-2.33-9.77-2.33h0ZM22.89,74c-3.9,0-7.56-.88-10.33-2.48-2.87-1.66-4.45-3.9-4.45-6.31s1.58-4.64,4.45-6.3h0c2.77-1.6,6.44-2.48,10.33-2.48s7.58.88,10.34,2.48c2.88,1.66,4.47,3.9,4.47,6.3s-1.58,4.65-4.47,6.31c-2.76,1.6-6.44,2.48-10.34,2.48h0ZM34.64,72h.01-.01ZM22.89,56.2c-4.14,0-8.29.91-11.46,2.74-2.95,1.7-4.56,3.93-4.56,6.28s1.62,4.58,4.56,6.29c6.32,3.65,16.61,3.65,22.92,0h0c2.95-1.71,4.58-3.94,4.58-6.29s-1.63-4.58-4.58-6.28c-3.15-1.83-7.3-2.74-11.46-2.74h0ZM22.89,75.37c-4.35,0-8.72-.96-12.03-2.87-3.33-1.92-5.15-4.51-5.15-7.29s1.82-5.36,5.15-7.28c6.63-3.83,17.45-3.83,24.08,0,3.33,1.92,5.15,4.51,5.15,7.28s-1.82,5.37-5.15,7.29h0c-3.33,1.91-7.68,2.87-12.05,2.87Z"/>
      <path class="cls-2" d="M37.09,75.56c-.31,0-.57-.26-.57-.57v-4.44c0-.32.26-.58.57-.58.32,0,.59.26.59.58v4.44c0,.32-.26.57-.59.57Z"/>
      <path class="cls-2" d="M33.5,77.89c-.31,0-.57-.26-.57-.58v-4.22c0-.32.26-.58.57-.58.32,0,.57.26.57.58v4.22c0,.32-.25.58-.57.58Z"/>
      <path class="cls-2" d="M28.5,79.54c-.31,0-.57-.25-.57-.57v-4.54c0-.32.26-.58.57-.58.33,0,.59.26.59.58v4.54c0,.32-.26.57-.59.57Z"/>
      <path class="cls-2" d="M22.64,80.08c-.32,0-.57-.25-.59-.57l-.05-4.69c0-.32.25-.59.57-.59h0c.33,0,.59.26.59.57l.05,4.7c0,.32-.25.59-.57.59h0Z"/>
      <path class="cls-2" d="M17.07,79.47c-.31,0-.57-.26-.57-.57v-4.6c0-.32.26-.58.57-.58.32,0,.59.26.59.58v4.6c0,.32-.26.57-.59.57Z"/>
      <path class="cls-2" d="M12.08,77.8c-.33,0-.59-.26-.59-.58v-4.41c0-.32.26-.58.59-.58.31,0,.57.26.57.58v4.41c0,.32-.26.58-.57.58Z"/>
      <path class="cls-2" d="M8.66,75.31c-.31,0-.57-.26-.57-.57v-4.4c0-.32.26-.58.57-.58s.58.26.58.58v4.4c0,.32-.26.57-.58.57Z"/>
      <path class="cls-2" d="M24.36,70.98c-.21,0-.39-.1-.51-.28-.16-.28-.06-.63.21-.79,2.4-1.4,4.49-2.57,6.77-3.8.15-.08.21-.15.23-.17-.02-.01-.08-.08-.23-.17l-3.23-1.89c-.29-.17-1.22-.29-1.73,0-.98.56-2.01,1.13-3,1.67-.91.5-1.81.99-2.59,1.45-.89.51-2.02.51-2.9,0l-3-1.75c-.52-.31-.83-.76-.8-1.23,0-.28.13-.78.86-1.14,1.86-.9,3.91-2.01,6.24-3.36.28-.16.62-.07.79.21.16.28.06.63-.22.79-2.34,1.37-4.41,2.48-6.32,3.4-.16.09-.21.16-.21.16,0-.02.07.07.25.17l3,1.74c.51.31,1.21.3,1.73,0,.8-.46,1.7-.95,2.62-1.46.99-.54,2.01-1.1,2.97-1.65.89-.53,2.3-.36,2.9,0l3.22,1.88c.7.42.8.93.8,1.2s-.11.77-.83,1.16c-2.27,1.22-4.35,2.39-6.75,3.78-.08.05-.18.08-.28.08Z"/>
      <path class="cls-2" d="M30.62,70.29c-.1,0-.2-.02-.29-.08-1.77-1.04-3.54-2.08-5.28-3.12-3.37-2-6.87-4.06-10.37-6.02-.28-.16-.39-.51-.23-.79.16-.28.51-.38.78-.22,3.52,1.97,7.03,4.03,10.4,6.03,1.75,1.03,3.49,2.07,5.28,3.11.28.16.36.52.2.79-.1.18-.29.29-.49.29Z"/>
      <path class="cls-3" d="M37.96,64.96c-6.48,3.74-16.99,3.74-23.48,0-6.49-3.75-6.49-9.81,0-13.56,6.49-3.74,17-3.74,23.48,0,6.49,3.74,6.49,9.81,0,13.56Z"/>
      <path class="cls-2" d="M26.22,49.17c-4.14,0-8.3.91-11.45,2.73-2.95,1.7-4.58,3.93-4.58,6.28s1.63,4.57,4.58,6.28c6.31,3.65,16.58,3.65,22.91,0,2.93-1.7,4.57-3.93,4.57-6.28s-1.61-4.58-4.57-6.28c-3.16-1.82-7.32-2.73-11.46-2.73h0ZM26.22,68.34c-4.35,0-8.7-.96-12.03-2.87-3.33-1.92-5.15-4.5-5.15-7.28s1.82-5.36,5.15-7.28c6.63-3.83,17.43-3.83,24.06,0,3.33,1.92,5.15,4.51,5.15,7.28s-1.83,5.36-5.15,7.28c-3.31,1.92-7.68,2.87-12.03,2.87Z"/>
      <path class="cls-3" d="M42.83,58.18c0,5.29.77,8.57-5.49,11.83-10.2,5.33-27.56,1.54-27.74-7.12v-4.71c.32,7.87,12.77,10.2,19.79,9.42,5.09-.57,13.18-3.23,13.45-9.42Z"/>
      <path class="cls-2" d="M10.18,61.94v.96c.06,3.01,2.39,5.01,4.33,6.16,6.05,3.58,16.17,3.78,22.56.45,4.39-2.3,5.12-4.49,5.2-7.66-2.56,4.06-8.82,5.88-12.83,6.33-5.54.62-13.32-.61-17.46-4.17-.73-.63-1.35-1.33-1.81-2.07h0ZM26.24,73.07c-4.47,0-8.93-1.01-12.31-3.02-3.15-1.86-4.86-4.33-4.91-7.15v-4.72c0-.31.25-.57.57-.58h0c.31,0,.57.25.59.56.08,1.91.94,3.58,2.56,4.97,3.84,3.3,11.41,4.48,16.58,3.89,4.7-.52,12.68-2.98,12.93-8.87.01-.31.28-.56.59-.56h.02c.31.01.55.27.55.58,0,.54.02,1.06.02,1.55.06,4.47.13,7.7-5.8,10.8-3.26,1.7-7.32,2.54-11.38,2.54Z"/>
      <path class="cls-3" d="M16.16,52.38c-2.77,1.6-4.16,3.7-4.16,5.8s1.39,4.2,4.16,5.8c2.77,1.6,6.42,2.41,10.06,2.41s7.27-.81,10.04-2.41c2.77-1.6,4.15-3.7,4.15-5.8s-1.38-4.2-4.15-5.8c-2.77-1.6-6.41-2.4-10.04-2.4s-7.29.8-10.06,2.4h0ZM37.96,64.96c-6.49,3.74-17,3.74-23.5,0-6.49-3.75-6.49-9.82,0-13.57,6.49-3.74,17-3.74,23.5,0,6.49,3.75,6.49,9.82,0,13.57h0Z"/>
      <path class="cls-2" d="M16.45,52.88c-2.5,1.45-3.88,3.32-3.88,5.3s1.39,3.86,3.88,5.3c2.59,1.5,6.06,2.32,9.77,2.32s7.16-.83,9.75-2.33c2.51-1.44,3.88-3.32,3.88-5.3s-1.37-3.86-3.88-5.3c-2.59-1.5-6.06-2.33-9.75-2.33h0c-3.7,0-7.17.83-9.77,2.33h0ZM26.22,66.96c-3.9,0-7.58-.88-10.35-2.48-2.86-1.66-4.45-3.9-4.45-6.3s1.58-4.64,4.45-6.31h0c2.77-1.6,6.46-2.48,10.35-2.48h0c3.9,0,7.56.89,10.34,2.48,2.87,1.66,4.45,3.9,4.45,6.31s-1.58,4.64-4.45,6.3c-2.78,1.6-6.46,2.48-10.34,2.48h0ZM37.96,64.96h.01-.01ZM26.22,49.16c4.14,0,8.3.91,11.46,2.74,2.95,1.71,4.57,3.94,4.57,6.29s-1.61,4.58-4.57,6.28c-6.32,3.65-16.61,3.65-22.92,0-2.95-1.71-4.58-3.93-4.58-6.28s1.63-4.58,4.58-6.29c3.15-1.82,7.3-2.74,11.46-2.74h0ZM26.22,68.34c-4.37,0-8.72-.96-12.05-2.87-3.32-1.92-5.15-4.51-5.15-7.28s1.83-5.37,5.15-7.28c6.64-3.83,17.45-3.83,24.08,0,3.33,1.92,5.15,4.51,5.15,7.29s-1.83,5.36-5.15,7.28h0c-3.33,1.92-7.68,2.87-12.03,2.87Z"/>
      <path class="cls-1" d="M37.96,64.96c-6.49,3.74-17,3.74-23.5,0-6.49-3.75-6.49-9.82,0-13.57,6.49-3.74,17-3.74,23.5,0,6.49,3.75,6.49,9.82,0,13.57Z"/>
      <path class="cls-2" d="M26.22,49.16c-4.16,0-8.32.91-11.46,2.74-2.95,1.71-4.58,3.94-4.58,6.29s1.63,4.58,4.58,6.28c6.31,3.65,16.6,3.65,22.92,0,2.95-1.71,4.57-3.93,4.57-6.28s-1.61-4.58-4.57-6.29c-3.16-1.82-7.32-2.74-11.46-2.74h0ZM26.22,68.34c-4.37,0-8.72-.96-12.05-2.87-3.32-1.92-5.15-4.51-5.15-7.28s1.83-5.37,5.15-7.28c6.64-3.83,17.45-3.83,24.08,0,3.33,1.92,5.15,4.51,5.15,7.29s-1.83,5.36-5.15,7.28c-3.33,1.92-7.68,2.87-12.03,2.87Z"/>
      <path class="cls-3" d="M16.16,52.38c-2.77,1.6-4.16,3.7-4.16,5.8s1.39,4.2,4.16,5.8c2.77,1.6,6.42,2.41,10.06,2.41s7.27-.81,10.04-2.41c2.77-1.6,4.15-3.7,4.15-5.8s-1.38-4.2-4.15-5.8c-2.77-1.6-6.41-2.4-10.04-2.4s-7.29.8-10.06,2.4h0ZM37.96,64.96c-6.49,3.74-17,3.74-23.5,0-6.49-3.75-6.49-9.82,0-13.57,6.49-3.74,17-3.74,23.5,0,6.49,3.75,6.49,9.82,0,13.57h0Z"/>
      <path class="cls-2" d="M16.45,52.88c-2.5,1.45-3.88,3.32-3.88,5.3s1.39,3.86,3.88,5.3c2.59,1.5,6.06,2.32,9.77,2.32s7.16-.83,9.75-2.33c2.51-1.44,3.88-3.32,3.88-5.3s-1.37-3.86-3.88-5.3c-2.59-1.5-6.06-2.33-9.75-2.33h0c-3.7,0-7.17.83-9.77,2.33h0ZM26.22,66.96c-3.9,0-7.58-.88-10.35-2.48-2.86-1.66-4.45-3.9-4.45-6.3s1.58-4.64,4.45-6.31h0c2.77-1.6,6.46-2.48,10.35-2.48h0c3.9,0,7.56.89,10.34,2.48,2.87,1.66,4.45,3.9,4.45,6.31s-1.58,4.64-4.45,6.3c-2.78,1.6-6.46,2.48-10.34,2.48h0ZM37.96,64.96h.01-.01ZM26.22,49.16c4.14,0,8.3.91,11.46,2.74,2.95,1.71,4.57,3.94,4.57,6.29s-1.61,4.58-4.57,6.28c-6.32,3.65-16.61,3.65-22.92,0-2.95-1.71-4.58-3.93-4.58-6.28s1.63-4.58,4.58-6.29c3.15-1.82,7.3-2.74,11.46-2.74h0ZM26.22,68.34c-4.37,0-8.72-.96-12.05-2.87-3.32-1.92-5.15-4.51-5.15-7.28s1.83-5.37,5.15-7.28c6.64-3.83,17.45-3.83,24.08,0,3.33,1.92,5.15,4.51,5.15,7.29s-1.83,5.36-5.15,7.28h0c-3.33,1.92-7.68,2.87-12.03,2.87Z"/>
      <path class="cls-2" d="M40.41,68.53c-.32,0-.59-.26-.59-.57v-4.45c0-.32.26-.58.59-.58s.57.26.57.58v4.45c0,.31-.26.57-.57.57Z"/>
      <path class="cls-2" d="M36.81,70.86c-.31,0-.57-.26-.57-.58v-4.22c0-.32.26-.58.57-.58.33,0,.59.26.59.58v4.22c0,.31-.26.58-.59.58Z"/>
      <path class="cls-2" d="M31.82,72.51c-.32,0-.59-.26-.59-.58v-4.54c0-.32.26-.57.59-.57s.57.26.57.57v4.54c0,.32-.26.58-.57.58Z"/>
      <path class="cls-2" d="M25.95,73.05c-.31,0-.57-.26-.57-.57l-.06-4.7c0-.32.26-.58.57-.58h.02c.31,0,.57.26.57.57l.06,4.7c0,.32-.26.58-.57.58h-.02Z"/>
      <path class="cls-2" d="M20.38,72.44c-.31,0-.57-.26-.57-.58v-4.6c0-.32.26-.58.57-.58.33,0,.59.26.59.58v4.6c0,.32-.26.58-.59.58Z"/>
      <path class="cls-2" d="M15.39,70.76c-.32,0-.59-.26-.59-.58v-4.41c0-.32.26-.58.59-.58s.57.26.57.58v4.41c0,.32-.26.58-.57.58Z"/>
      <path class="cls-2" d="M11.98,68.28c-.33,0-.59-.26-.59-.57v-4.41c0-.31.26-.58.59-.58.31,0,.57.26.57.58v4.41c0,.31-.26.57-.57.57Z"/>
      <path class="cls-2" d="M27.67,63.95c-.2,0-.39-.1-.5-.28-.15-.27-.07-.63.21-.79,2.43-1.41,4.52-2.58,6.76-3.8.17-.08.21-.15.23-.17-.02,0-.06-.08-.23-.17l-3.23-1.88c-.29-.17-1.22-.29-1.73,0-.98.56-2,1.13-3,1.68-.93.5-1.81.98-2.59,1.43-.88.52-2.02.52-2.9,0l-2.98-1.75c-.54-.31-.83-.76-.82-1.24,0-.27.13-.78.86-1.13,1.86-.9,3.92-2,6.25-3.36.28-.16.63-.07.8.21.15.27.07.63-.21.79-2.36,1.38-4.43,2.49-6.32,3.41-.18.09-.23.16-.23.16.01-.03.08.07.24.17l3,1.75c.51.29,1.22.29,1.72,0,.8-.46,1.7-.95,2.62-1.46.98-.54,2.01-1.1,2.97-1.66.95-.55,2.32-.34,2.91,0l3.23,1.88c.7.41.82.92.8,1.19,0,.27-.12.77-.84,1.16-2.25,1.21-4.32,2.38-6.73,3.78-.1.05-.2.08-.3.08Z"/>
      <path class="cls-2" d="M33.93,63.26c-.1,0-.2-.03-.3-.08-1.77-1.04-3.54-2.08-5.28-3.12-3.38-2-6.87-4.06-10.37-6.02-.28-.15-.38-.51-.23-.79.16-.27.51-.37.8-.22,3.52,1.97,7.01,4.03,10.38,6.03,1.75,1.03,3.5,2.07,5.28,3.11.28.16.36.52.21.79-.11.19-.31.29-.51.29Z"/>
      <path class="cls-3" d="M37.87,75.72c0-7.49,5.27-16.59,11.74-20.33,6.49-3.75,11.75-.71,11.75,6.78s-5.27,16.6-11.75,20.34c-6.47,3.75-11.74.71-11.74-6.78Z"/>
      <path class="cls-2" d="M54.86,54.35c-1.5,0-3.19.52-4.96,1.53-6.31,3.65-11.45,12.55-11.45,19.84,0,3.41,1.11,5.93,3.15,7.1,2.02,1.17,4.78.88,7.72-.82,6.31-3.65,11.45-12.55,11.45-19.84,0-3.41-1.13-5.93-3.14-7.1-.82-.47-1.76-.71-2.77-.71h0ZM44.38,84.68c-1.22,0-2.35-.28-3.36-.86-2.39-1.39-3.71-4.27-3.71-8.1,0-7.66,5.4-17.01,12.03-20.84,3.31-1.92,6.47-2.21,8.87-.83,2.41,1.39,3.74,4.27,3.74,8.1,0,7.66-5.4,17.01-12.03,20.84-1.94,1.13-3.83,1.69-5.52,1.69Z"/>
      <path class="cls-3" d="M41.31,83.32c-4.58-2.64-7.81-3.62-7.5-10.67.49-11.51,12.44-24.65,20.04-20.47l4.08,2.36c-6.98-3.66-15.21,5.95-18.05,12.43-2.05,4.69-3.78,13.04,1.43,16.35Z"/>
      <path class="cls-2" d="M50.7,51.97c-1.71,0-3.38.67-4.65,1.39-6.13,3.45-11.36,12.11-11.67,19.32-.21,4.95,1.34,6.68,4.05,8.33-2.25-4.24-.68-10.57.93-14.27,2.24-5.11,7.19-11.23,12.32-13.04.93-.33,1.83-.51,2.71-.54l-.83-.48c-.93-.52-1.89-.72-2.86-.72h0ZM41.31,83.9c-.1,0-.2-.02-.27-.07-.47-.27-.93-.52-1.37-.77-3.9-2.17-6.72-3.74-6.44-10.43.32-7.69,5.72-16.59,12.26-20.28,3.19-1.79,6.18-2.03,8.64-.67l4.09,2.36c.28.16.38.5.21.78-.14.27-.49.38-.76.24-1.7-.89-3.57-.98-5.59-.27-4.8,1.69-9.59,7.65-11.66,12.41-1.89,4.32-3.76,12.47,1.21,15.63.26.17.36.52.2.79-.11.18-.31.27-.51.27Z"/>
      <path class="cls-3" d="M59.67,63.13c0-3.2-1.12-5.45-2.93-6.51-1.83-1.05-4.34-.9-7.11.7-2.77,1.61-5.3,4.35-7.11,7.5-1.83,3.15-2.95,6.7-2.95,9.9s1.13,5.46,2.95,6.51c1.81,1.05,4.33.9,7.11-.7,2.77-1.6,5.28-4.35,7.11-7.5,1.81-3.15,2.93-6.7,2.93-9.9h0ZM37.87,75.72c0-7.49,5.27-16.61,11.76-20.35,6.49-3.74,11.75-.71,11.75,6.78s-5.27,16.61-11.75,20.36c-6.49,3.74-11.76.71-11.76-6.79h0Z"/>
      <path class="cls-2" d="M54.11,56.53c-1.27,0-2.7.44-4.21,1.3-2.59,1.5-5.04,4.09-6.88,7.29-1.86,3.2-2.87,6.61-2.87,9.61s.94,5.02,2.65,6.01c1.72.99,4.03.74,6.52-.71,2.61-1.5,5.06-4.09,6.89-7.29,1.84-3.2,2.87-6.62,2.87-9.62s-.94-5.02-2.65-6.01c-.69-.4-1.47-.59-2.34-.59h0ZM45.13,82.49c-1.04,0-2.03-.25-2.9-.75-2.09-1.2-3.23-3.69-3.23-7.01s1.08-6.82,3.02-10.19c1.96-3.37,4.55-6.11,7.32-7.72,2.87-1.65,5.61-1.9,7.68-.7,2.08,1.2,3.24,3.69,3.24,7.01s-1.08,6.82-3.03,10.19c-1.94,3.37-4.54,6.11-7.32,7.72-1.66.96-3.29,1.46-4.78,1.46h0ZM54.88,54.33c1.01,0,1.94.24,2.77.71,2.02,1.17,3.15,3.7,3.15,7.11,0,7.3-5.14,16.2-11.46,19.85-2.95,1.71-5.69,2-7.72.82-2.04-1.17-3.15-3.7-3.15-7.11,0-7.3,5.14-16.2,11.45-19.85,1.78-1.02,3.46-1.53,4.97-1.53h0ZM44.38,84.69c-1.22,0-2.35-.29-3.36-.86-2.39-1.39-3.71-4.27-3.71-8.11,0-7.67,5.4-17.02,12.03-20.85,3.33-1.92,6.49-2.21,8.88-.82,2.41,1.39,3.74,4.27,3.74,8.1,0,7.67-5.4,17.02-12.05,20.85-1.94,1.12-3.81,1.69-5.52,1.69Z"/>
      <path class="cls-1" d="M37.87,75.72c0-7.49,5.27-16.61,11.76-20.35,6.49-3.74,11.75-.71,11.75,6.78s-5.27,16.61-11.75,20.36c-6.49,3.74-11.76.71-11.76-6.79Z"/>
      <path class="cls-2" d="M54.88,54.33c-1.51,0-3.19.52-4.97,1.53-6.31,3.65-11.45,12.55-11.45,19.85,0,3.41,1.11,5.93,3.15,7.11,2.03,1.17,4.78.88,7.72-.82,6.32-3.65,11.46-12.56,11.46-19.85,0-3.41-1.13-5.93-3.15-7.11-.83-.47-1.76-.71-2.77-.71h0ZM44.38,84.69c-1.22,0-2.35-.29-3.36-.86-2.39-1.39-3.71-4.27-3.71-8.11,0-7.67,5.4-17.02,12.03-20.85,3.33-1.92,6.49-2.21,8.88-.82,2.41,1.39,3.74,4.27,3.74,8.1,0,7.67-5.4,17.02-12.05,20.85-1.94,1.12-3.81,1.69-5.52,1.69Z"/>
      <path class="cls-3" d="M59.67,63.13c0-3.2-1.12-5.45-2.93-6.51-1.83-1.05-4.34-.9-7.11.7-2.77,1.61-5.3,4.35-7.11,7.5-1.83,3.15-2.95,6.7-2.95,9.9s1.13,5.46,2.95,6.51c1.81,1.05,4.33.9,7.11-.7,2.77-1.6,5.28-4.35,7.11-7.5,1.81-3.15,2.93-6.7,2.93-9.9h0ZM37.87,75.72c0-7.49,5.27-16.61,11.76-20.35,6.49-3.74,11.75-.71,11.75,6.78s-5.27,16.61-11.75,20.36c-6.49,3.74-11.76.71-11.76-6.79h0Z"/>
      <path class="cls-2" d="M54.11,56.53c-1.27,0-2.7.44-4.21,1.3-2.59,1.5-5.04,4.09-6.88,7.29-1.86,3.2-2.87,6.61-2.87,9.61s.94,5.02,2.65,6.01c1.72.99,4.03.74,6.52-.71,2.61-1.5,5.06-4.09,6.89-7.29,1.84-3.2,2.87-6.62,2.87-9.62s-.94-5.02-2.65-6.01c-.69-.4-1.47-.59-2.34-.59h0ZM45.13,82.49c-1.04,0-2.03-.25-2.9-.75-2.09-1.2-3.23-3.69-3.23-7.01s1.08-6.82,3.02-10.19c1.96-3.37,4.55-6.11,7.32-7.72,2.87-1.65,5.61-1.9,7.68-.7,2.08,1.2,3.24,3.69,3.24,7.01s-1.08,6.82-3.03,10.19c-1.94,3.37-4.54,6.11-7.32,7.72-1.66.96-3.29,1.46-4.78,1.46h0ZM54.88,54.33c1.01,0,1.94.24,2.77.71,2.02,1.17,3.15,3.7,3.15,7.11,0,7.3-5.14,16.2-11.46,19.85-2.95,1.71-5.69,2-7.72.82-2.04-1.17-3.15-3.7-3.15-7.11,0-7.3,5.14-16.2,11.45-19.85,1.78-1.02,3.46-1.53,4.97-1.53h0ZM44.38,84.69c-1.22,0-2.35-.29-3.36-.86-2.39-1.39-3.71-4.27-3.71-8.11,0-7.67,5.4-17.02,12.03-20.85,3.33-1.92,6.49-2.21,8.88-.82,2.41,1.39,3.74,4.27,3.74,8.1,0,7.67-5.4,17.02-12.05,20.85-1.94,1.12-3.81,1.69-5.52,1.69Z"/>
      <path class="cls-2" d="M37.91,79.14c-.1,0-.2-.02-.28-.08l-3.85-2.22c-.28-.16-.37-.51-.21-.79.15-.28.51-.37.78-.21l3.85,2.22c.28.16.38.52.22.79-.12.19-.31.29-.51.29Z"/>
      <path class="cls-2" d="M37.5,74.76c-.1,0-.2-.03-.29-.08l-3.65-2.11c-.27-.16-.37-.51-.21-.79.16-.28.52-.37.8-.21l3.65,2.11c.28.16.38.51.21.79-.11.19-.3.29-.5.29Z"/>
      <path class="cls-2" d="M38.85,69.76c-.1,0-.2-.02-.29-.08l-3.93-2.27c-.28-.16-.37-.51-.21-.79.16-.28.5-.37.78-.21l3.93,2.27c.28.16.37.51.21.79-.1.19-.3.29-.49.29Z"/>
      <path class="cls-2" d="M41.47,64.45c-.09,0-.19-.02-.29-.07l-4.09-2.3c-.28-.16-.37-.51-.21-.79.15-.28.51-.38.78-.22l4.09,2.3c.27.16.37.51.23.79-.11.19-.31.29-.51.29Z"/>
      <path class="cls-2" d="M44.67,59.93c-.09,0-.19-.02-.29-.08l-3.98-2.3c-.28-.16-.37-.52-.21-.79.16-.27.52-.37.8-.21l3.98,2.3c.27.16.37.51.21.79-.11.19-.31.29-.51.29Z"/>
      <path class="cls-2" d="M48.45,56.34c-.1,0-.2-.02-.28-.08l-3.83-2.21c-.28-.16-.36-.52-.21-.79.16-.28.52-.37.8-.21l3.81,2.21c.28.16.37.51.21.79-.11.19-.31.29-.51.29Z"/>
      <path class="cls-2" d="M52.32,54.63c-.11,0-.21-.03-.29-.08l-3.82-2.2c-.28-.16-.37-.52-.21-.79.17-.28.51-.37.78-.21l3.82,2.2c.27.16.37.51.21.79-.1.18-.3.29-.49.29Z"/>
      <path class="cls-2" d="M45.91,77.7c-.2,0-.38-.1-.49-.27-.16-.27-.08-.62.18-.8,1.94-1.22,4.09-2.46,6.18-3.65.51-.29.98-.98.98-1.45v-3.68c-.13-.07-.25-.09-.41,0-1.97,1.13-3.64,2.11-5.07,3.02-.63.4-1.11.26-1.34.13-.23-.13-.6-.46-.6-1.24v-3.68c0-.7.54-1.83,1.32-2.32,1.63-1.01,3.46-2.08,5.75-3.4.28-.16.62-.06.79.22.16.28.06.63-.22.79-2.28,1.31-4.11,2.38-5.7,3.38-.46.28-.78,1.05-.78,1.34v3.68c0,.11,0,.18.02.22.02-.02.08-.04.15-.09,1.47-.91,3.13-1.9,5.12-3.04.49-.29,1.06-.29,1.52-.03.39.23.61.61.61,1.04v3.68c0,1.01-.81,2.02-1.56,2.45-2.07,1.18-4.22,2.41-6.13,3.62-.1.06-.2.09-.31.09Z"/>
      <path class="cls-2" d="M49.51,78.46c-.31,0-.57-.26-.57-.58v-17.89c0-.32.26-.58.57-.58s.58.26.58.58v17.89c0,.32-.26.58-.58.58Z"/>
    </g>
  </g>
</svg>