<?xml version="1.0" encoding="UTF-8"?>
<svg id="Layer_2" data-name="Layer 2" xmlns="http://www.w3.org/2000/svg" viewBox="0 0 44 40.1" fill="currentColor">
  <defs>
    <style>
      .cls-1 {
        fill: #fff;
      }

      .cls-1, .cls-2, .cls-3, .cls-4 {
        fill-rule: evenodd;
      }

      .cls-2 {
        fill: #1a87c7;
      }

      .cls-3 {
        fill: #bdedf8;
      }

      .cls-4 {
        fill: #66ceef;
      }
    </style>
  </defs>
  <g id="_Layer_" data-name="&amp;lt;Layer&amp;gt;">
    <g>
      <path class="cls-4" d="M19.19,12.06v-.03c1.39-2.41,4.98-8.62,6.37-11.03h-7.78c-.34,0-.66.08-.94.24-.26.16-.5.39-.68.69-2.02,2.95-3.96,6.14-5.69,9.83h0c-.92,1.6.47,2.45,1.63,3.12l2.46,1.42c.21.13.45.21.68.24.23.03.5,0,.73-.05.26-.07.5-.18.68-.32.18-.15.34-.34.47-.57h0l2.07-3.55Z"/>
      <path class="cls-2" d="M17.77,1.31c-.29,0-.55.07-.79.2-.24.14-.42.34-.58.59-2.28,3.31-4.11,6.51-5.66,9.8-.76,1.29.18,1.97,1.49,2.72l2.44,1.42c.21.11.39.18.6.21.18.03.39,0,.6-.05.24-.05.42-.15.58-.26.16-.12.29-.28.39-.48L25.03,1.32h-7.26ZM15.47,16.88c-.1,0-.18-.01-.26-.02-.29-.03-.55-.13-.81-.29l-2.46-1.42c-1.05-.61-2.83-1.63-1.73-3.54,1.55-3.3,3.41-6.53,5.69-9.85.18-.32.47-.6.79-.79.34-.19.71-.29,1.1-.29h7.78c.13.01.21.07.26.16.05.1.05.22,0,.31l-6.37,11.03v.03l-2.07,3.55c-.13.26-.34.48-.55.65-.21.17-.47.3-.79.38-.18.05-.39.08-.58.08Z"/>
      <path class="cls-4" d="M39.28,32.56l3.9-6.73c.34-.61.34-1.29,0-1.89-1.39-2.88-2.96-5.79-4.95-8.76-.5-.72-.97-1.7-1.89-1.95-.47-.12-.97-.07-1.44.19l-3.38,1.95c-1.05.61-1.07,1.56-.68,2.58,2.8,4.88,5.63,9.74,8.44,14.61Z"/>
      <path class="cls-2" d="M35.85,13.47c-.26,0-.52.07-.79.21l-3.38,1.95c-.79.45-.94,1.13-.55,2.21l8.15,14.11,3.62-6.28c.31-.51.31-1.08,0-1.58-1.52-3.21-3.14-6.07-4.93-8.74-.08-.11-.16-.24-.24-.36-.39-.63-.81-1.29-1.47-1.46-.13-.04-.26-.06-.42-.06h0ZM39.28,32.88h0c-.11,0-.21-.06-.26-.16l-8.44-14.61c-.55-1.4-.26-2.4.79-3.01l3.41-1.95c.5-.29,1.1-.37,1.65-.22.89.23,1.39,1.03,1.83,1.73.08.11.16.23.24.35,1.78,2.69,3.43,5.57,4.95,8.8.39.68.39,1.48,0,2.18l-3.9,6.73c-.05.1-.16.16-.26.16Z"/>
      <path class="cls-4" d="M2.79,27.01l3.88,6.74c.37.61.94.95,1.65.95,1.73.14,8.46.6,11.48,0,1-.2,1.76-.77,1.76-1.88v-3.91c0-.98-.52-1.49-1.28-1.75-1.26-.43-16.98-.14-17.47-.14Z"/>
      <path class="cls-2" d="M8.31,34.38c1.39.11,8.36.62,11.42,0,.68-.14,1.49-.53,1.49-1.58v-3.91c0-.75-.34-1.21-1.07-1.45-.39-.14-3.09-.33-16.66-.14h-.18l3.62,6.28c.31.51.79.79,1.39.79h0ZM15.28,35.3c-2.99,0-6.13-.24-7-.31h0c-.79,0-1.49-.4-1.89-1.1l-3.88-6.74c-.05-.09-.05-.21,0-.3.05-.1.16-.16.26-.16.05,0,.31,0,.71,0,10.56-.15,16.09-.09,16.87.17,1,.33,1.49,1.02,1.49,2.04v3.91c0,1.13-.73,1.93-2.02,2.18-1.15.24-2.83.31-4.56.31Z"/>
      <path class="cls-1" d="M12.64,19.02l15.38-8.87.16-.06c.39-.11.81-.12,1.2-.06,1.13.17,2.23.9,3.04,1.66,1.7,1.62,3.09,4.19,3.27,6.55.08.81,0,1.73-.34,2.48-.13.29-.34.58-.55.81l-.16.12-15.35,8.87c.08-.09.18-.16.26-.26.26-.3.47-.7.6-1.08.34-1.1.21-2.44-.08-3.54-.6-2.19-2.07-4.53-3.96-5.83-.73-.5-1.62-.93-2.54-.95-.24,0-.52.03-.76.1l-.18.06Z"/>
      <path class="cls-2" d="M14,18.59c.92.12,1.73.58,2.31.97,1.83,1.28,3.43,3.63,4.06,6.01.21.79.5,2.34.08,3.7-.03.09-.08.19-.11.29l14.25-8.26c.18-.18.37-.44.47-.71.37-.77.39-1.69.34-2.32-.18-2.18-1.47-4.74-3.2-6.35-.55-.5-1.65-1.39-2.86-1.58-.39-.05-.76-.04-1.07.05l-.18.05-14.1,8.15h0ZM19.29,30.83c-.11,0-.21-.04-.26-.13-.1-.13-.08-.3.05-.41.11-.1.16-.16.24-.24.24-.25.42-.6.52-.97.39-1.22.13-2.64-.08-3.36-.6-2.24-2.1-4.46-3.83-5.66-.81-.56-1.65-.88-2.36-.9-.24,0-.47.03-.68.09l-.16.05c-.16.05-.31-.02-.39-.16-.05-.14,0-.31.13-.39l15.38-8.87.24-.09c.39-.11.89-.14,1.34-.07,1.39.22,2.59,1.18,3.2,1.75,1.86,1.74,3.2,4.39,3.38,6.75.05.7.05,1.74-.37,2.63-.16.34-.39.66-.63.9l-.16.13-15.43,8.91s-.08.04-.13.04Z"/>
      <path class="cls-4" d="M31,21.53c-2.59-1.5-4.72-5.16-4.72-8.17s2.12-4.23,4.72-2.73c2.62,1.5,4.72,5.16,4.72,8.17s-2.1,4.23-4.72,2.73Z"/>
      <path class="cls-2" d="M28.91,10.29c-.39,0-.76.1-1.07.28-.79.45-1.23,1.44-1.23,2.79,0,2.9,2.04,6.45,4.56,7.9,1.15.67,2.23.79,3.04.33.79-.46,1.2-1.44,1.2-2.79,0-2.9-2.04-6.45-4.56-7.9-.68-.4-1.36-.61-1.94-.61h0ZM33.13,22.49c-.71,0-1.49-.24-2.28-.7-2.67-1.55-4.87-5.33-4.87-8.43,0-1.57.55-2.75,1.55-3.33,1-.57,2.28-.45,3.64.33,2.7,1.56,4.87,5.34,4.87,8.44,0,1.57-.55,2.76-1.55,3.32-.39.24-.86.37-1.36.37Z"/>
      <path class="cls-4" d="M27.68,10.3c.86-.5,1.44-.72,2.54-.41,4.32,1.21,7.62,8.84,4.98,11.39-.26.25-.52.39-.84.57,2.25-1.44,1.26-5.2.29-7.14-1.05-2.05-3.43-4.85-5.89-4.73-.42.03-.71.12-1.07.31Z"/>
      <path class="cls-2" d="M34.36,22.17c-.11,0-.21-.05-.29-.15-.08-.14-.03-.33.11-.42,2.02-1.27,1.2-4.73.21-6.74-.97-1.89-3.25-4.68-5.61-4.56-.34.02-.6.09-.97.28-.13.07-.31.02-.39-.13-.08-.15-.03-.33.1-.42.97-.55,1.62-.76,2.8-.43,2.88.81,5.14,4.16,5.87,7.06.52,2.09.24,3.87-.79,4.86-.26.24-.5.38-.76.54l-.16.07s-.08.04-.13.04Z"/>
      <path class="cls-3" d="M25.95,12.4l2.12-1.23.16-.05c.34-.09.71-.1,1.05-.05.94.15,1.89.77,2.59,1.43,1.49,1.38,2.67,3.6,2.83,5.63.08.7.03,1.49-.29,2.13-.11.25-.29.51-.5.7l-.1.11-2.12,1.23c.08-.08.16-.14.21-.22.24-.26.42-.6.52-.93.31-.95.18-2.09-.05-3.04-.52-1.88-1.78-3.89-3.41-5.01-.63-.43-1.42-.81-2.17-.82-.21,0-.47.03-.68.09l-.16.05Z"/>
      <path class="cls-2" d="M27.26,12c.73.13,1.42.51,1.89.84,1.57,1.1,2.96,3.14,3.51,5.19.18.69.45,2.03.05,3.22,0,.04-.03.09-.03.13l1.05-.63c.13-.15.29-.37.39-.6.24-.51.34-1.21.29-1.97-.16-1.87-1.26-4.05-2.75-5.44-.47-.43-1.39-1.18-2.44-1.35-.31-.04-.63-.04-.89.04l-.16.04-.92.54h0ZM31.68,22.61c-.1,0-.21-.05-.26-.13-.1-.13-.08-.3.05-.41.08-.08.13-.13.21-.2.18-.22.34-.5.45-.83.34-1.03.11-2.24-.08-2.87-.5-1.92-1.78-3.81-3.28-4.84-.68-.48-1.39-.75-1.99-.76-.18,0-.42.03-.6.07l-.13.04c-.16.05-.31-.02-.37-.17-.08-.14-.03-.31.11-.39l2.15-1.23.21-.08c.34-.1.76-.12,1.18-.06,1.2.18,2.23,1.02,2.75,1.51,1.62,1.5,2.78,3.8,2.93,5.83.05.61.03,1.5-.31,2.28-.16.3-.34.58-.55.79l-.16.12-2.17,1.26s-.08.04-.13.04Z"/>
      <path class="cls-4" d="M28.54,22.19c-2.25-1.29-4.06-4.44-4.06-7.03s1.81-3.64,4.06-2.35c2.25,1.3,4.06,4.45,4.06,7.04s-1.81,3.63-4.06,2.34Z"/>
      <path class="cls-2" d="M28.7,21.93c.97.57,1.89.67,2.57.28.66-.38,1.02-1.22,1.02-2.36,0-2.49-1.76-5.53-3.9-6.77-.97-.57-1.89-.67-2.57-.29-.66.39-1.02,1.22-1.02,2.36,0,2.49,1.76,5.53,3.9,6.77h0ZM30.35,23.06c-.6,0-1.28-.2-1.96-.6h0c-2.33-1.34-4.22-4.62-4.22-7.3,0-1.37.47-2.4,1.36-2.9.86-.5,1.99-.4,3.17.29,2.33,1.34,4.22,4.61,4.22,7.3,0,1.37-.47,2.39-1.36,2.89-.37.21-.76.31-1.21.31Z"/>
      <path class="cls-3" d="M22.78,14.24l2.12-1.24.16-.04c.31-.1.68-.11,1.02-.05.97.15,1.91.77,2.62,1.42,1.47,1.39,2.65,3.61,2.83,5.64.05.69,0,1.48-.31,2.13-.1.25-.29.5-.47.69l-.13.11-2.12,1.23c.08-.08.16-.14.24-.22.24-.26.39-.6.52-.93.29-.95.16-2.1-.08-3.05-.5-1.88-1.78-3.89-3.41-5.01-.63-.42-1.42-.8-2.17-.82-.21,0-.47.03-.65.09l-.16.05Z"/>
      <path class="cls-2" d="M24.06,13.84c.76.13,1.41.5,1.89.83,1.57,1.1,2.96,3.15,3.51,5.19.18.7.45,2.04.05,3.22,0,.05-.03.1-.03.14l1.05-.64c.16-.15.31-.37.42-.6.24-.51.31-1.22.26-1.97-.16-1.87-1.26-4.05-2.75-5.44-.79-.74-1.68-1.23-2.44-1.35-.31-.05-.63-.04-.89.04l-.13.04-.94.54h0ZM28.49,24.44c-.11,0-.18-.04-.26-.12-.08-.13-.05-.31.05-.42.08-.06.13-.12.21-.2.18-.21.34-.5.45-.82.34-1.03.1-2.24-.05-2.87-.52-1.92-1.81-3.82-3.27-4.85-.71-.48-1.41-.75-2.02-.76-.18-.01-.42.02-.58.07l-.16.04c-.13.05-.31-.02-.37-.17-.08-.14,0-.31.13-.39l2.12-1.22.21-.08c.37-.1.79-.12,1.18-.06,1.21.18,2.25,1.02,2.78,1.5,1.6,1.51,2.75,3.8,2.91,5.84.05.61.05,1.5-.31,2.28-.16.3-.34.59-.55.79l-.13.11-2.17,1.27c-.05.03-.1.03-.16.03Z"/>
      <path class="cls-4" d="M25.34,24.04c-2.23-1.29-4.06-4.44-4.06-7.03s1.83-3.64,4.06-2.35c2.25,1.3,4.06,4.44,4.06,7.03s-1.81,3.64-4.06,2.35Z"/>
      <path class="cls-2" d="M23.54,14.4c-.34,0-.63.08-.89.24-.68.38-1.05,1.23-1.05,2.36,0,2.49,1.76,5.52,3.9,6.76,1,.57,1.91.68,2.57.29.68-.38,1.05-1.23,1.05-2.37,0-2.48-1.75-5.52-3.9-6.76-.6-.35-1.18-.52-1.68-.52h0ZM27.18,24.91c-.63,0-1.28-.21-1.97-.6-2.33-1.35-4.22-4.61-4.22-7.3,0-1.37.47-2.4,1.34-2.89.86-.51,1.99-.4,3.17.28,2.33,1.35,4.22,4.62,4.22,7.3,0,1.38-.47,2.4-1.34,2.89-.37.22-.76.32-1.2.32Z"/>
      <path class="cls-3" d="M19.58,16.08l2.12-1.23.16-.05c.31-.09.71-.1,1.02-.04.97.15,1.91.77,2.62,1.43,1.47,1.39,2.65,3.6,2.83,5.63.05.7,0,1.5-.29,2.14-.13.25-.31.51-.5.7l-.1.1-2.15,1.23c.11-.08.16-.14.24-.23.24-.27.42-.6.52-.94.29-.95.18-2.1-.08-3.04-.5-1.89-1.78-3.9-3.41-5.02-.6-.43-1.39-.8-2.17-.81-.21-.01-.45.03-.66.09l-.16.04Z"/>
      <path class="cls-2" d="M20.86,15.68c.76.13,1.42.5,1.89.83,1.6,1.11,2.99,3.14,3.54,5.19.18.69.42,2.02.05,3.21-.03.04-.03.09-.05.14l1.05-.63c.16-.15.31-.37.42-.6.29-.66.31-1.44.26-1.98-.16-1.86-1.26-4.05-2.73-5.43-.47-.43-1.39-1.19-2.44-1.35-.31-.05-.66-.03-.92.04l-.13.05-.94.54h0ZM25.29,26.29c-.08,0-.18-.04-.24-.13-.11-.12-.08-.3.03-.41.11-.07.16-.13.21-.2.21-.21.37-.51.45-.82.34-1.04.11-2.25-.05-2.88-.52-1.91-1.81-3.82-3.27-4.84-.71-.48-1.41-.75-2.02-.76-.18,0-.39.03-.58.08l-.13.04c-.16.04-.31-.03-.39-.17-.05-.15,0-.31.13-.39l2.12-1.23.21-.08c.37-.11.79-.13,1.18-.06,1.21.18,2.25,1.03,2.78,1.5,1.6,1.5,2.75,3.8,2.93,5.83.05.62.03,1.51-.34,2.3-.13.29-.34.57-.55.79l-.13.11-2.17,1.26c-.05.03-.11.04-.16.04Z"/>
      <path class="cls-4" d="M22.15,25.88c-2.23-1.3-4.04-4.44-4.04-7.03s1.81-3.64,4.04-2.35c2.25,1.29,4.09,4.44,4.09,7.03s-1.83,3.64-4.09,2.35Z"/>
      <path class="cls-2" d="M20.34,16.25c-.31,0-.63.08-.89.23-.68.38-1.05,1.23-1.05,2.37,0,2.49,1.76,5.52,3.9,6.76h0c1,.57,1.91.67,2.57.29.68-.39,1.05-1.23,1.05-2.36,0-2.49-1.76-5.52-3.9-6.77-.6-.34-1.15-.51-1.68-.51h0ZM23.98,26.74c-.6,0-1.28-.2-1.96-.6-2.33-1.34-4.22-4.61-4.22-7.29,0-1.38.47-2.4,1.34-2.9.86-.5,1.99-.4,3.17.29,2.33,1.35,4.22,4.62,4.22,7.3,0,1.37-.47,2.4-1.34,2.89-.37.21-.76.31-1.21.31Z"/>
      <path class="cls-3" d="M16.41,17.92l2.1-1.23.16-.05c.34-.1.71-.1,1.05-.05.94.15,1.91.78,2.59,1.43,1.49,1.38,2.67,3.6,2.83,5.63.08.7,0,1.49-.29,2.13-.13.25-.29.51-.5.71l-.1.11-2.12,1.22c.08-.07.13-.14.21-.23.24-.26.42-.6.52-.93.31-.95.18-2.09-.05-3.04-.52-1.89-1.81-3.89-3.41-5.01-.63-.44-1.42-.8-2.17-.82-.24,0-.47.02-.68.08l-.13.05Z"/>
      <path class="cls-2" d="M17.69,17.53c.73.12,1.41.51,1.89.83,1.57,1.1,2.96,3.14,3.51,5.19.18.69.45,2.02.05,3.21,0,.04-.03.09-.05.14l1.05-.64c.16-.15.31-.36.42-.6.24-.5.34-1.21.29-1.97-.16-1.86-1.26-4.05-2.75-5.43-.47-.43-1.39-1.19-2.44-1.36-.31-.05-.63-.03-.92.04l-.13.05-.92.54h0ZM22.12,28.13c-.1,0-.18-.05-.26-.13-.08-.13-.08-.3.05-.41.08-.08.13-.13.21-.2.18-.22.34-.51.45-.83.31-1.03.1-2.24-.08-2.87-.5-1.91-1.81-3.82-3.28-4.84-.68-.48-1.39-.75-1.99-.76-.21,0-.42.03-.6.07l-.13.05c-.13.04-.31-.03-.37-.17-.08-.15-.03-.32.13-.4l2.1-1.23.24-.08c.34-.09.76-.12,1.18-.06,1.18.19,2.25,1.03,2.75,1.51,1.63,1.5,2.78,3.8,2.93,5.83.05.62.05,1.51-.31,2.29-.16.3-.34.58-.58.79l-.13.12-2.17,1.26c-.05.03-.1.05-.13.05Z"/>
      <path class="cls-4" d="M18.98,27.71c-2.25-1.29-4.06-4.44-4.06-7.03s1.81-3.64,4.06-2.35c2.25,1.29,4.06,4.45,4.06,7.04s-1.81,3.63-4.06,2.34Z"/>
      <path class="cls-2" d="M17.17,18.09c-.34,0-.66.08-.92.23-.66.39-1.02,1.23-1.02,2.37,0,2.49,1.76,5.53,3.9,6.77,1,.57,1.89.67,2.57.29.65-.39,1.02-1.23,1.02-2.36,0-2.49-1.76-5.53-3.9-6.77-.58-.34-1.15-.51-1.65-.51h0ZM20.79,28.58c-.6,0-1.28-.2-1.96-.6-2.31-1.34-4.22-4.61-4.22-7.3,0-1.37.47-2.39,1.36-2.9.84-.5,1.99-.4,3.17.29,2.33,1.34,4.22,4.62,4.22,7.3,0,1.37-.47,2.39-1.34,2.89-.37.21-.79.31-1.23.31Z"/>
      <path class="cls-3" d="M13.21,19.76l2.12-1.23.16-.05c.31-.09.68-.1,1.02-.05.97.15,1.91.78,2.59,1.43,1.49,1.39,2.67,3.61,2.86,5.64.05.69,0,1.48-.31,2.13-.1.25-.29.51-.47.7l-.13.11-2.12,1.23c.08-.08.16-.14.24-.23.24-.26.39-.6.5-.93.31-.95.21-2.09-.05-3.04-.5-1.89-1.78-3.9-3.41-5.01-.63-.43-1.41-.81-2.17-.83-.21,0-.47.03-.68.09l-.13.05Z"/>
      <path class="cls-2" d="M14.5,19.36c.73.13,1.41.51,1.89.83,1.6,1.1,2.96,3.14,3.51,5.19.18.69.45,2.03.08,3.23-.03.04-.03.09-.05.13l1.05-.64c.16-.15.31-.36.42-.6.24-.51.31-1.21.26-1.97-.16-1.87-1.26-4.05-2.75-5.44-.45-.43-1.39-1.18-2.44-1.35-.31-.05-.63-.03-.89.04l-.16.05-.92.54h0ZM18.93,29.97c-.1,0-.18-.05-.26-.13-.08-.13-.08-.3.05-.41.08-.08.16-.13.21-.2.18-.22.34-.5.45-.83.34-1.03.11-2.24-.05-2.87-.52-1.92-1.81-3.81-3.27-4.84-.71-.49-1.42-.75-2.02-.76-.21,0-.42.03-.58.07l-.16.05c-.13.05-.31-.02-.37-.17-.08-.14-.03-.31.13-.39l2.12-1.23.21-.08c.37-.1.79-.12,1.18-.06,1.21.18,2.25,1.03,2.78,1.51,1.6,1.5,2.75,3.79,2.91,5.83.05.62.05,1.51-.31,2.29-.13.3-.34.58-.55.79l-.13.11-2.17,1.27c-.05.03-.1.04-.16.04Z"/>
      <path class="cls-4" d="M15.65,30.41c-2.62-1.51-4.72-5.16-4.72-8.17s2.1-4.23,4.72-2.73c2.59,1.5,4.72,5.16,4.72,8.17s-2.12,4.23-4.72,2.73Z"/>
      <path class="cls-2" d="M15.78,30.14c1.18.67,2.25.78,3.04.33.79-.46,1.23-1.45,1.23-2.79,0-2.9-2.04-6.45-4.56-7.9-1.18-.68-2.25-.79-3.04-.33-.79.45-1.23,1.44-1.23,2.79,0,2.91,2.04,6.45,4.56,7.9h0ZM17.75,31.36c-.71,0-1.47-.23-2.25-.69h0c-2.7-1.55-4.87-5.34-4.87-8.43,0-1.57.52-2.75,1.52-3.33,1-.57,2.31-.45,3.64.33,2.7,1.56,4.87,5.34,4.87,8.44,0,1.57-.52,2.75-1.52,3.32-.42.24-.89.36-1.39.36Z"/>
      <path class="cls-1" d="M15.65,28.9c-1.91-1.09-3.43-3.74-3.43-5.92s1.52-3.07,3.43-1.98c1.89,1.1,3.41,3.75,3.41,5.93s-1.52,3.07-3.41,1.97Z"/>
      <path class="cls-2" d="M14.1,20.85c-.26,0-.52.06-.73.18-.55.32-.84,1.01-.84,1.96,0,2.08,1.47,4.61,3.25,5.66h0c.84.47,1.57.56,2.12.24.55-.31.84-1.01.84-1.95,0-2.08-1.47-4.62-3.25-5.66-.5-.29-.97-.42-1.39-.42h0ZM17.17,29.69c-.52,0-1.1-.17-1.68-.51h0c-1.99-1.14-3.59-3.92-3.59-6.19,0-1.17.42-2.05,1.15-2.49.76-.43,1.73-.35,2.72.24,1.99,1.13,3.59,3.91,3.59,6.19,0,1.17-.42,2.05-1.15,2.49-.31.17-.68.27-1.05.27Z"/>
      <path class="cls-1" d="M16.1,27.25c.79-.46,1.49-.65,1.18-2.1-.31-1.27-1.68-2.88-2.7-2.33l-.79.44c1.6-.75,3.75,2.97,2.31,3.98Z"/>
      <path class="cls-2" d="M14.94,23.03c.55.26,1.07.81,1.42,1.42.34.6.55,1.3.52,1.9.18-.24.21-.55.08-1.12-.21-.86-.89-1.8-1.55-2.1-.16-.08-.34-.11-.47-.1h0ZM16.1,27.56c-.11,0-.21-.05-.26-.14-.08-.14-.05-.33.08-.43.58-.38.39-1.42-.08-2.24-.47-.82-1.28-1.49-1.91-1.2-.13.07-.31.01-.39-.14-.08-.15-.03-.32.1-.41l.79-.44c.37-.2.81-.2,1.26,0,.92.43,1.68,1.62,1.89,2.53.37,1.51-.37,1.91-1.07,2.29l-.24.13c-.05.03-.11.04-.16.04Z"/>
      <path class="cls-1" d="M14.94,27.14c.89.51,1.62.09,1.62-.94s-.73-2.29-1.62-2.82c-.89-.52-1.62-.09-1.62.94s.73,2.29,1.62,2.82Z"/>
      <path class="cls-2" d="M15.1,26.87c.34.19.63.23.84.11.21-.12.31-.41.31-.78,0-.92-.66-2.09-1.47-2.55-.32-.19-.63-.23-.84-.11-.21.11-.31.4-.31.78,0,.92.68,2.09,1.47,2.55h0ZM15.68,27.67c-.29,0-.58-.09-.89-.27h0c-1-.57-1.78-1.93-1.78-3.08,0-.62.24-1.09.63-1.32.42-.23.94-.19,1.47.12,1,.57,1.78,1.93,1.78,3.08,0,.61-.24,1.08-.63,1.31-.18.1-.37.16-.58.16Z"/>
      <path class="cls-4" d="M12.3,19.18c.89-.51,1.47-.72,2.57-.41,4.56,1.28,7.91,9.67,4.51,11.73l-.39.23c2.28-1.44,1.28-5.21.31-7.14-1.05-2.06-3.43-4.85-5.89-4.73-.42.03-.73.12-1.1.31Z"/>
      <path class="cls-2" d="M18.98,31.04c-.11,0-.21-.05-.26-.15-.1-.14-.05-.33.11-.42,1.99-1.27,1.2-4.73.18-6.74-.97-1.89-3.25-4.69-5.61-4.55-.34.02-.6.09-.94.27-.16.08-.34.02-.42-.12-.08-.15-.03-.33.11-.42,1-.57,1.62-.76,2.8-.44,3.2.89,5.63,4.88,6.05,8.06.29,1.99-.24,3.49-1.47,4.23l-.39.24c-.05.03-.11.04-.16.04Z"/>
      <path class="cls-3" d="M33.57,27.73c-.34.43-.71.84-1.1,1.23-1.23,1.22-2.67,2.12-4.17,2.73-.31.13-.03-.35.21-1.01,1.94-.55,3.67-1.57,5.06-2.96Z"/>
      <path class="cls-2" d="M28.75,30.94c-.03.1-.08.19-.11.28.5-.21.94-.47,1.42-.75-.45.18-.86.34-1.31.47h0ZM28.2,32.02c-.11,0-.21-.06-.24-.1-.21-.2-.11-.44.08-.85.05-.14.11-.3.18-.49.03-.09.1-.17.21-.19,1.83-.52,3.54-1.52,4.93-2.88.1-.11.29-.12.42,0,.13.1.13.3.05.42-.37.44-.73.87-1.15,1.26-1.23,1.22-2.67,2.16-4.27,2.8-.08.03-.13.04-.21.04Z"/>
      <path class="cls-1" d="M22.75.31h-4.53c3.14,2.57,3.62,5.26,5.06,7.97h0c.16.26.08.59-.18.74l-4.22,1.44,11.24,3.61,5.48-10.2-3.56,1.43c-.26.15-.58.06-.73-.2l-1.6-2.09c-1.81-2.4-2.83-2.61-4.51-2.68h-2.44Z"/>
      <path class="cls-2" d="M19.87,10.44l10.09,3.24,4.95-9.22-2.78,1.11c-.16.09-.37.13-.6.07-.21-.06-.39-.2-.5-.39l-1.57-2.07c-1.78-2.34-2.72-2.49-4.27-2.55h-6.16c1.94,1.78,2.75,3.63,3.54,5.42.31.69.63,1.4.99,2.09v.03c.21.4.08.9-.31,1.12l-3.38,1.17h0ZM30.11,14.36s-.08,0-.11-.01l-11.21-3.6c-.13-.04-.21-.16-.24-.29,0-.14.11-.25.21-.3l4.22-1.44c.05-.03.11-.18.03-.29-.39-.72-.71-1.44-1-2.14-.89-2-1.73-3.89-4.01-5.75-.11-.09-.13-.23-.11-.35.05-.12.18-.2.31-.2h6.97c1.7.08,2.86.31,4.77,2.81l1.57,2.09c.05.08.11.12.16.14.08,0,.13,0,.18-.02l3.59-1.44c.13-.05.26-.02.37.08.08.1.11.24.03.35l-5.48,10.2c-.05.11-.16.16-.26.16Z"/>
      <polygon class="cls-3" points="18.87 10.45 18.24 11.57 29.46 15.17 30.11 14.06 18.87 10.45"/>
      <path class="cls-2" d="M18.69,11.39l10.64,3.42.31-.57-10.61-3.41-.34.56h0ZM29.46,15.48s-.05,0-.08-.02l-11.24-3.61c-.08-.03-.16-.1-.18-.18-.03-.09-.03-.18.03-.26l.63-1.11c.08-.13.24-.18.37-.14l11.21,3.6c.11.03.18.09.21.18.03.09.03.18-.03.27l-.65,1.11c-.05.1-.16.16-.26.16Z"/>
      <path class="cls-3" d="M18.48,1.32c-2.57-1.07-6.79,8.41-8.17,10.73C11.25,10.3,15.49-.16,18.45.33c2.33,0,4.27,6.08,4.85,7.99.13.25.03.56-.21.7l-.84.29c-.31-1.65-1.83-7.17-3.77-7.98Z"/>
      <path class="cls-2" d="M18.06.93c.18,0,.37.03.55.11h0c2.15.89,3.54,6.4,3.85,7.85l.52-.17c.05-.03.11-.16.05-.27-1.52-4.99-3.17-7.82-4.58-7.82-.5-.08-1.07.23-1.68.8.45-.32.86-.5,1.28-.5h0ZM10.31,12.36c-.05,0-.11-.02-.16-.04-.13-.08-.18-.26-.1-.41.13-.28.37-.78.68-1.43C13.35,4.82,16.12-.38,18.51.02h0c2.15,0,3.96,4.46,5.08,8.21.18.35.05.83-.34,1.05l-.92.31c-.08.03-.16.02-.24-.03-.08-.04-.13-.12-.16-.21-.34-1.82-1.83-7.03-3.56-7.74h0c-1.81-.76-5.14,5.58-6.73,8.62-.45.83-.79,1.53-1.07,1.98-.05.1-.16.15-.26.15Z"/>
      <path class="cls-1" d="M41.22,30.44l2.28-3.93c-3.8,1.45-5.53,1.01-9.43.42-.18-.11-.55-.05-.55-.54l.86-4.36-8.72,7.92,6.08,9.85.55-3.8c0-.3.24-.54.52-.54,2.96-.38,5.45-.13,7.21-2.9l1.2-2.12Z"/>
      <path class="cls-2" d="M41.22,30.44h.03-.03ZM26.05,30l5.5,8.91.42-2.95c0-.18.08-.39.26-.56.16-.16.37-.25.58-.25.42-.05.89-.1,1.31-.14,2.36-.22,4.22-.4,5.63-2.61l3.06-5.31c-3.06,1.03-4.87.75-7.91.28l-.89-.14c-.05,0-.08-.02-.11-.05-.03,0-.08-.02-.1-.03-.18-.05-.6-.17-.6-.77l.71-3.51-7.86,7.12h0ZM31.74,40.1c-.1,0-.21-.05-.26-.15l-6.08-9.84c-.08-.13-.08-.3.05-.39l8.72-7.92c.11-.09.24-.1.37-.04.1.07.16.2.13.33l-.84,4.36q0,.08.16.12c.05.02.1.03.16.06l.84.13c3.33.51,4.98.77,8.41-.54.13-.04.26,0,.34.09.08.1.11.24.03.36l-2.25,3.93h0l-1.23,2.12c-1.57,2.47-3.67,2.67-6.08,2.9-.45.04-.89.08-1.34.14-.1,0-.16.02-.21.07-.03.04-.05.1-.05.16l-.55,3.84c-.03.12-.13.23-.26.25,0,0-.03,0-.05,0Z"/>
      <path class="cls-3" d="M34.38,22.03l-.29-1.07-8.72,7.92.29,1.07,8.72-7.92h0ZM42.48,26.25c2.23-1.7-3.98-10.26-5.21-12.45,1.23,1.68,8.02,10.6,6.1,12.94-1.18,1.99-7.41.63-9.35.18-.26-.02-.5-.25-.5-.53l.18-.88c1.57.56,7.1,2.02,8.78.74h0Z"/>
      <path class="cls-2" d="M33.94,25.91l-.11.54c0,.06.08.16.21.17,5.08,1.18,8.36,1.17,9.04-.03.31-.37.45-1.03.13-2.19.16.95,0,1.68-.55,2.1h0c-1.83,1.41-7.31-.15-8.72-.58h0ZM40.15,28.11c-1.86,0-4.17-.42-6.18-.89-.39-.03-.76-.39-.76-.84l.18-.93c.03-.09.08-.17.16-.21.08-.04.16-.05.26-.03,1.73.61,7,1.91,8.49.78h0c1.57-1.21-2.28-7.29-4.14-10.22-.52-.79-.92-1.42-1.15-1.83-.08-.14-.03-.32.11-.41.13-.09.31-.05.42.08l.26.34c5.21,7.12,7.13,11.36,5.82,12.97-.5.86-1.81,1.18-3.46,1.18h0ZM25.71,28.98l8.23-7.45.1.39-8.23,7.46-.1-.4h0ZM25.66,30.25s-.08,0-.11,0c-.11-.03-.18-.11-.21-.22l-.29-1.06c-.03-.11,0-.23.1-.31l8.73-7.92c.08-.07.18-.1.29-.07.11.03.18.11.21.22l.29,1.07c.03.11,0,.22-.08.3l-8.75,7.92c-.05.05-.11.08-.18.08Z"/>
      <path class="cls-1" d="M3.65,29.8l2.25,3.93c.65-4.02,2.75-5.78,4.37-8.39h0c.16-.25.47-.34.73-.19l3.35,2.92-2.49-11.53-11.58.36,3.01,2.37c.26.15.34.48.21.73l-1.02,2.43c-1.18,2.77-.84,3.77-.08,5.24l1.23,2.13Z"/>
      <path class="cls-2" d="M3.91,29.64l1.86,3.21c.58-2.56,1.76-4.2,2.93-5.78.45-.61.89-1.24,1.31-1.9,0-.02.03-.03.03-.04.26-.37.73-.48,1.13-.26l2.7,2.35-2.25-10.37-10.45.32,2.33,1.85c.18.09.31.27.37.49.05.22.03.44-.08.64l-1.02,2.39c-1.13,2.7-.79,3.61-.05,4.98l1.2,2.11h0ZM5.9,34.03c-.11,0-.21-.05-.26-.15l-2.25-3.94h0l-1.23-2.12c-.79-1.5-1.18-2.63.05-5.52l1.02-2.43c.05-.09.05-.15.03-.21,0-.05-.05-.1-.11-.13L.11,17.14c-.1-.08-.13-.21-.1-.34.05-.12.16-.21.29-.22l11.55-.35c.16-.02.29.1.31.24l2.49,11.52c.03.13-.03.27-.13.33-.13.07-.26.06-.37-.03l-3.35-2.93c-.05-.03-.18,0-.26.12,0,0,0,.02-.03.03-.42.68-.86,1.3-1.31,1.91-1.31,1.76-2.51,3.42-2.99,6.34-.03.12-.13.23-.26.25h-.05Z"/>
      <path class="cls-3" d="M14.37,28.07h1.28l-2.49-11.53h-1.28l2.49,11.53h0ZM6.66,32.97c.34,2.76,8.28,2,13.13,1.71-2.04.33-12.92,1.63-13.99-1.19-1.15-2,3.14-6.73,4.51-8.18.16-.24.47-.31.71-.17l.65.58c-1.26,1.11-5.29,5.16-5,7.24h0Z"/>
      <path class="cls-2" d="M12.24,16.85l2.36,10.91h.66l-2.36-10.91h-.65ZM14.37,28.38c-.16,0-.26-.1-.31-.24l-2.49-11.52c-.03-.09,0-.19.08-.26.05-.07.13-.11.24-.11h1.28c.13,0,.26.1.29.24l2.49,11.53c.03.09,0,.19-.05.26-.05.07-.16.11-.24.11h-1.28ZM10.78,25.37c-.08,0-.16.04-.21.11-3.51,3.75-5.19,6.68-4.51,7.86.16.39.52.69,1.1.93-.47-.32-.73-.73-.81-1.26h0c-.29-2.13,3.43-5.96,4.87-7.28l-.42-.36h-.03ZM12.32,35.57c-3.14,0-6.23-.42-6.81-1.98-1.07-1.84,1.89-5.64,4.56-8.49.21-.33.71-.45,1.1-.23l.71.62c.08.06.1.15.1.23s-.03.17-.1.24c-1.39,1.21-5.16,5.12-4.93,6.96h0c.31,2.24,7.05,1.82,11.5,1.53l1.31-.08c.18,0,.31.11.34.28,0,.16-.1.3-.26.33-.08.02-3.85.58-7.52.58Z"/>
    </g>
  </g>
</svg>