<?xml version="1.0" encoding="UTF-8"?>
<svg id="Layer_2" data-name="Layer 2" xmlns="http://www.w3.org/2000/svg" viewBox="0 0 40.75 39.74" fill="currentColor">
  <defs>
    <style>
      .cls-1 {
        fill: #fff;
      }

      .cls-1, .cls-2, .cls-3, .cls-4 {
        fill-rule: evenodd;
      }

      .cls-2 {
        fill: #1a87c7;
      }

      .cls-3 {
        fill: #bdedf8;
      }

      .cls-4 {
        fill: #66ceef;
      }
    </style>
  </defs>
  <g id="_Layer_" data-name="&amp;lt;Layer&amp;gt;">
    <g>
      <path class="cls-4" d="M10.23,35.15l-3.95-2.28c4.62,2.6,10.38-1.76,13.31-5.11,4.1-4.69,7.72-12.68,6.16-18.91-.46-1.83-1.39-3.45-3.05-4.43l4.14,2.39c4.15,2.64,3.5,9.31,2.22,13.41-1.91,6.07-7.07,13.42-13.34,15.31-1.85.56-3.77.59-5.49-.39Z"/>
      <path class="cls-2" d="M10.38,34.88c1.5.84,3.27.96,5.26.36,6.08-1.83,11.21-8.99,13.13-15.11,1.42-4.51,1.72-10.64-2.09-13.06l-1.82-1.06c.54.77.94,1.69,1.2,2.76,1.62,6.45-2.09,14.47-6.23,19.18-2.83,3.24-7.12,6.33-11.06,5.99l1.62.93h0ZM13.27,36.24c-1.15,0-2.22-.27-3.19-.81h0s-3.94-2.28-3.94-2.28c-.14-.08-.19-.27-.11-.42.09-.15.28-.2.42-.12,4.5,2.53,10.24-1.98,12.93-5.05,4.15-4.75,7.59-12.67,6.1-18.63-.5-1.96-1.47-3.39-2.91-4.24-.15-.09-.19-.27-.1-.42.08-.15.27-.19.42-.11l4.14,2.4c4.11,2.61,3.83,9.05,2.36,13.77-1.97,6.27-7.26,13.62-13.54,15.51-.9.27-1.75.4-2.55.4Z"/>
      <path class="cls-1" d="M17.2,6.97c-6.33,3.65-11.46,12.55-11.46,19.86s5.13,10.28,11.46,6.62c6.34-3.66,11.48-12.55,11.48-19.87s-5.14-10.28-11.48-6.62Z"/>
      <path class="cls-2" d="M22.32,5.7c-1.51,0-3.21.51-4.96,1.53-6.24,3.6-11.32,12.4-11.32,19.6,0,3.42,1.14,5.97,3.21,7.16,2.06,1.19,4.83.91,7.8-.8,6.24-3.6,11.32-12.39,11.32-19.6,0-3.42-1.14-5.97-3.21-7.16-.83-.48-1.79-.72-2.83-.72h0ZM12.09,35.33c-1.15,0-2.21-.27-3.15-.81-2.26-1.31-3.51-4.04-3.51-7.69,0-7.4,5.21-16.43,11.62-20.13,3.17-1.83,6.15-2.11,8.42-.8,2.26,1.31,3.51,4.04,3.51,7.69,0,7.4-5.21,16.43-11.62,20.13-1.86,1.07-3.65,1.61-5.27,1.61Z"/>
      <path class="cls-4" d="M14.5,2.26c2.89-1.63,6.65-2.81,9.8-1.13l3.94,2.27c-5.8-2.88-12.67,2.47-16.25,6.65-4.8,5.6-8.91,14.77-7.44,22.2.48,2.42,1.54,4.52,3.63,5.91-.94-.54-3.68-2.05-4.41-2.59C-.75,32.16,0,24.56,1.42,19.82,3.5,12.96,8.26,5.95,14.5,2.26Z"/>
      <path class="cls-2" d="M14.66,2.53C8.89,5.94,3.93,12.61,1.72,19.91c-1.56,5.15-1.91,12.28,2.24,15.41.35.26,1.21.78,2.09,1.28-.88-1.14-1.48-2.57-1.82-4.29-1.5-7.64,2.84-17,7.51-22.46,3.54-4.13,9.02-8.13,14.06-7.5l-1.66-.96c-3.17-1.7-6.9-.32-9.48,1.13h0ZM8.17,38.47c-.05,0-.1-.02-.16-.04-.22-.12-.52-.3-.87-.5-1.26-.71-2.99-1.68-3.56-2.12C-.8,32.5-.56,25.33,1.13,19.73,3.38,12.28,8.44,5.49,14.34,2h.01c2.71-1.53,6.67-2.97,10.09-1.13l3.95,2.28c.15.08.2.26.12.41-.09.15-.26.2-.41.13-5.31-2.64-11.87,1.89-15.89,6.58-4.58,5.35-8.84,14.5-7.37,21.93.51,2.63,1.66,4.49,3.5,5.71.14.09.18.28.09.42-.06.09-.17.15-.26.15Z"/>
      <polygon class="cls-4" points="10.03 35.03 6.09 32.76 6.19 32.82 6.29 32.87 10.23 35.15 10.13 35.09 10.03 35.03"/>
      <path class="cls-2" d="M10.23,35.46c-.05,0-.1-.02-.16-.04l-4.14-2.4c-.15-.09-.19-.28-.11-.42.09-.14.27-.19.42-.11l3.95,2.28h0s.19.12.19.12c.15.09.19.27.11.42-.05.1-.16.15-.26.15Z"/>
      <polygon class="cls-4" points="26.66 6.7 22.72 4.42 22.61 4.37 22.51 4.31 26.45 6.59 26.56 6.64 26.66 6.7"/>
      <path class="cls-2" d="M26.66,7.01c-.05,0-.11-.01-.16-.04l-.2-.11-3.95-2.28c-.15-.08-.2-.27-.11-.42.08-.15.27-.2.42-.12l.2.12,3.95,2.28c.15.08.2.27.12.42-.06.1-.17.15-.27.15Z"/>
      <path class="cls-3" d="M26.66,6.7c-1.08-.62-2.35-.88-3.77-.74-1.37.14-2.87.64-4.44,1.55-1.57.91-3.08,2.14-4.44,3.58-1.43,1.5-2.7,3.23-3.77,5.09-1.07,1.86-1.94,3.83-2.52,5.81-.57,1.91-.89,3.82-.89,5.64s.31,3.37.89,4.62c.58,1.3,1.45,2.28,2.52,2.89,1.07.62,2.35.88,3.77.74,1.36-.13,2.87-.64,4.44-1.55,1.57-.91,3.08-2.14,4.44-3.58,1.42-1.5,2.7-3.23,3.77-5.09,1.07-1.86,1.93-3.83,2.52-5.81.57-1.91.88-3.82.88-5.64s-.31-3.37-.88-4.62c-.59-1.3-1.45-2.28-2.52-2.9h0ZM8.41,15.13c2.57-4.45,6.12-8.33,10.04-10.6,3.92-2.26,7.47-2.48,10.03-.99,2.57,1.48,4.16,4.66,4.16,9.19s-1.59,9.54-4.16,13.99c-2.57,4.45-6.11,8.33-10.03,10.59-3.92,2.26-7.47,2.48-10.04.99-2.56-1.48-4.15-4.66-4.15-9.19s1.59-9.54,4.15-13.99h0Z"/>
      <path class="cls-2" d="M23.64,6.23c-.24,0-.47.01-.72.04-1.36.13-2.81.65-4.32,1.51-1.51.88-2.98,2.06-4.37,3.52-1.39,1.48-2.65,3.17-3.73,5.04-1.07,1.86-1.91,3.8-2.49,5.74-.58,1.93-.87,3.8-.87,5.55s.29,3.25.85,4.5c.56,1.23,1.36,2.16,2.4,2.76,1.02.6,2.23.83,3.58.7,1.37-.13,2.82-.64,4.32-1.51,1.52-.88,2.99-2.06,4.37-3.53,1.4-1.47,2.65-3.17,3.73-5.03,1.08-1.86,1.91-3.8,2.49-5.74.57-1.93.87-3.8.87-5.55s-.29-3.25-.85-4.5c-.57-1.23-1.37-2.16-2.4-2.76-.84-.49-1.81-.74-2.87-.74h0ZM13.25,36.23c-1.16,0-2.24-.27-3.17-.81-1.15-.66-2.03-1.68-2.65-3.04-.6-1.33-.9-2.93-.9-4.75s.29-3.73.89-5.72c.59-1.99,1.44-3.97,2.55-5.88,1.1-1.91,2.39-3.64,3.81-5.15,1.43-1.51,2.95-2.73,4.51-3.63,1.57-.91,3.11-1.45,4.56-1.59,1.49-.15,2.82.12,3.95.78h0c1.15.66,2.04,1.68,2.65,3.04.6,1.33.9,2.93.9,4.75s-.29,3.74-.89,5.72c-.59,1.99-1.45,3.97-2.56,5.88-1.09,1.9-2.38,3.64-3.8,5.15-1.43,1.51-2.95,2.73-4.52,3.63-1.57.91-3.11,1.45-4.56,1.59-.26.03-.52.04-.78.04h0ZM24.78,2.9c1.3,0,2.49.3,3.55.91,2.58,1.49,4,4.66,4,8.92s-1.46,9.24-4.11,13.83c-2.66,4.6-6.18,8.32-9.93,10.48-3.69,2.13-7.14,2.48-9.73.99-2.58-1.49-4.01-4.66-4.01-8.92s1.46-9.24,4.12-13.83c2.65-4.6,6.18-8.32,9.92-10.48,2.19-1.26,4.29-1.9,6.19-1.9h0ZM12.1,39.57c-1.4,0-2.7-.33-3.85-.99-2.78-1.61-4.31-4.96-4.31-9.46s1.5-9.45,4.2-14.14c2.71-4.69,6.32-8.49,10.15-10.71,3.89-2.25,7.56-2.6,10.34-.99,2.78,1.6,4.31,4.96,4.31,9.45s-1.49,9.45-4.2,14.14c-2.7,4.69-6.31,8.49-10.15,10.71-2.28,1.32-4.49,1.98-6.49,1.98Z"/>
      <path class="cls-2" d="M15.59,33.42s-.05,0-.08,0c-.16-.04-.26-.21-.22-.38l3.76-14.48c.04-.17.22-.26.37-.22.17.04.27.21.23.38l-3.77,14.47c-.03.14-.15.23-.29.23Z"/>
      <polygon class="cls-3" points="20.15 20.17 19.13 22.35 11.82 20.26 12.84 18.09 20.15 20.17"/>
      <path class="cls-2" d="M12.25,20.07l6.71,1.92.75-1.61-6.71-1.92-.75,1.61h0ZM19.13,22.66s-.05,0-.09-.01l-7.31-2.08c-.09-.03-.16-.09-.19-.17-.04-.08-.04-.18,0-.26l1.02-2.18c.06-.14.21-.21.36-.17l7.31,2.09c.09.02.16.09.19.17.04.08.04.18,0,.26l-1.02,2.18c-.05.11-.17.18-.28.18Z"/>
      <polygon class="cls-4" points="17.58 24.52 16.69 24.01 25.18 9.32 25.78 9.67 26.06 9.84 17.58 24.52"/>
      <path class="cls-2" d="M17.11,23.9l.36.2,8.17-14.15-.35-.2-8.18,14.15h0ZM17.58,24.83s-.1-.01-.15-.04l-.9-.51c-.07-.04-.12-.11-.14-.19-.03-.08,0-.16.03-.23l8.48-14.68c.09-.15.27-.2.42-.12l.9.51c.07.04.12.11.14.19.02.08,0,.17-.03.23l-8.48,14.69c-.06.1-.17.15-.27.15Z"/>
      <path class="cls-3" d="M37.17,16.47l-2.85-1.65-.34-.11c-.73-.21-1.55-.23-2.3-.11-1.95.3-3.88,1.5-5.35,2.78-3.52,3.07-6.32,8.21-6.71,12.88-.13,1.55,0,3.3.66,4.73.26.56.64,1.12,1.08,1.55l.27.24,2.85,1.65c-.19-.17-.35-.31-.52-.5-.51-.58-.9-1.33-1.13-2.07-.62-1.92-.45-4.24,0-6.18,1.02-4.38,3.96-9.11,7.68-11.69,1.37-.96,3.11-1.78,4.82-1.81.48,0,1.02.05,1.48.19l.35.11Z"/>
      <path class="cls-2" d="M32.6,14.84c-.29,0-.57.02-.87.07-2.2.34-4.2,1.84-5.19,2.71-3.58,3.13-6.23,8.22-6.61,12.68-.11,1.24-.08,3.04.63,4.57.26.55.63,1.08,1.02,1.46l.26.23,1.29.74c-.24-.41-.44-.87-.6-1.34-.75-2.34-.32-4.98-.01-6.35,1.09-4.67,4.15-9.34,7.8-11.87,1.2-.83,3.04-1.83,5-1.87.05,0,.11,0,.17,0l-1.34-.77-.28-.09c-.38-.11-.82-.17-1.28-.17h0ZM24.48,38.74s-.09-.01-.15-.04l-2.84-1.65-.32-.28c-.46-.44-.87-1.02-1.16-1.65-.77-1.65-.8-3.57-.69-4.88.38-4.6,3.12-9.86,6.81-13.09,1.03-.91,3.14-2.49,5.5-2.85.83-.13,1.7-.09,2.42.12l.36.12,2.9,1.67c.14.08.19.25.13.39-.07.15-.23.22-.37.17l-.35-.11c-.4-.12-.9-.18-1.38-.17-1.41.03-3.06.65-4.65,1.76-3.49,2.42-6.52,7.04-7.56,11.5-.3,1.31-.7,3.82,0,6.02.24.75.62,1.45,1.07,1.95.16.18.3.3.47.46.12.11.15.29.06.42-.07.09-.16.14-.25.14Z"/>
      <path class="cls-1" d="M31.44,38.2c4.97-2.87,9.01-9.85,9.01-15.59s-4.04-8.07-9.01-5.2c-4.97,2.87-9.01,9.86-9.01,15.6s4.04,8.07,9.01,5.2Z"/>
      <path class="cls-2" d="M31.44,38.2h0,0ZM35.46,16.48c-1.18,0-2.49.4-3.87,1.19-4.88,2.82-8.85,9.7-8.85,15.33,0,2.66.88,4.64,2.48,5.56,1.61.93,3.76.7,6.07-.63h0c4.88-2.82,8.85-9.69,8.85-15.33,0-2.66-.88-4.64-2.49-5.56-.64-.37-1.39-.56-2.19-.56h0ZM27.42,39.74c-.91,0-1.76-.21-2.5-.64-1.8-1.04-2.79-3.2-2.79-6.1,0-5.83,4.11-12.95,9.16-15.86,2.5-1.45,4.88-1.67,6.68-.63,1.8,1.04,2.79,3.21,2.79,6.1,0,5.83-4.11,12.95-9.16,15.86h0c-1.47.85-2.88,1.28-4.17,1.28Z"/>
      <path class="cls-2" d="M26.96,34.15c-.16,0-.3-.04-.42-.13-.18-.12-.4-.38-.4-.95v-1.4c0-.58.46-1.38.96-1.67l2.63-1.52c.31-.18.66-.78.66-1.14v-1.87c0-.11-.03-.19-.1-.23-.06-.03-.15-.03-.24.03l-3.25,1.87c-.14.08-.33.03-.42-.11-.09-.15-.03-.34.11-.42l3.24-1.87c.29-.16.62-.18.87-.03.25.15.41.43.41.76v1.87c0,.58-.46,1.38-.96,1.67l-2.64,1.52c-.31.18-.65.78-.65,1.14v1.4c0,.26.06.4.12.44.05.03.15.03.26-.02.9-.37,2.12-.99,3.41-1.73.14-.08.33-.03.42.12.09.14.03.34-.11.42-.93.54-2.3,1.28-3.49,1.77-.14.06-.28.09-.41.09Z"/>
      <path class="cls-2" d="M33.06,27.1c-.19,0-.32-.05-.41-.1-.24-.14-.38-.4-.38-.72v-2.81c0-.17.14-.31.3-.31s.31.14.31.31v2.81c0,.06,0,.15.07.19.07.04.24.03.48-.11l3.24-1.87c.15-.08.34-.03.42.11.09.15.04.34-.11.42l-3.24,1.87c-.28.16-.5.21-.69.21Z"/>
      <path class="cls-2" d="M36.83,28.81c-.16,0-.3-.14-.3-.31v-7.48c0-.17.14-.31.3-.31.18,0,.31.14.31.31v7.48c0,.17-.14.31-.31.31Z"/>
    </g>
  </g>
</svg>