<?xml version="1.0" encoding="UTF-8"?>
<svg id="Layer_2" data-name="Layer 2" xmlns="http://www.w3.org/2000/svg" viewBox="0 0 22.07 44.31" fill="currentColor">
  <defs>
    <style>
      .cls-1 {
        fill: #fff;
      }

      .cls-1, .cls-2, .cls-3 {
        fill-rule: evenodd;
      }

      .cls-2 {
        fill: #1a87c7;
      }

      .cls-3 {
        fill: #bdedf8;
      }
    </style>
  </defs>
  <g id="_Layer_" data-name="&amp;lt;Layer&amp;gt;">
    <g>
      <path class="cls-3" d="M11.45,7.32c-.11.05-.16.07-.28.03l2.58,1.49c.12.04.16.03.28-.03l5.61-3.23-2.58-1.5-5.61,3.24Z"/>
      <path class="cls-2" d="M11.9,7.41l2.01,1.17,5.12-3-1.97-1.14-5.16,2.97h0ZM13.87,9.16c-.06,0-.14,0-.22-.04l-2.63-1.51c-.14-.09-.19-.26-.13-.4.07-.15.24-.22.39-.16l.03.04h0s-.02-.05-.02-.05l5.61-3.23c.09-.06.21-.06.31,0l2.58,1.49c.1.05.15.16.15.27,0,.11-.06.21-.15.26l-5.61,3.24c-.1.04-.2.09-.32.09Z"/>
      <path class="cls-3" d="M2.42,15.57l2.58,1.5v-3.04l5.61-3.24c.24-.16.37-.38.39-.68V3.32l1.32-.76,1.32-.76-2.58-1.49-1.32.76-1.32.76v6.79c-.02.3-.15.51-.39.68l-5.61,3.23v3.04Z"/>
      <path class="cls-2" d="M2.73,15.4l1.96,1.14v-2.51c0-.12.06-.22.15-.27l5.61-3.23c.14-.11.22-.24.24-.45V3.32c0-.12.06-.22.15-.27l2.17-1.25-1.96-1.14-2.33,1.35v6.6c-.03.41-.2.7-.52.93l-5.48,3.16v2.69h0ZM5.01,17.37c-.06,0-.11,0-.15-.04l-2.58-1.49c-.09-.05-.15-.16-.15-.27v-3.04c0-.1.06-.21.15-.26l5.61-3.24c.14-.11.22-.24.24-.43V1.83c0-.11.06-.21.15-.26L10.91.04c.1-.05.21-.05.31,0l2.58,1.49c.09.05.16.16.16.27,0,.1-.06.21-.16.26l-2.48,1.44v6.6c-.03.41-.21.71-.52.93l-5.48,3.16v2.87c0,.11-.06.21-.15.27-.05.03-.1.04-.15.04Z"/>
      <path class="cls-3" d="M1.21,39.92c.63,1.08,1.16,1.56,2.21,2.17l2.18,1.26c-.73-.48-1.11-.87-1.6-1.59-.32-.54-.51-.96-.7-1.54-.54-1.83-.49-3.63-.17-5.49.41-2.23,1.15-4.18,2.21-6.18,1.02-1.85,2.15-3.42,3.62-4.95.57-.57,1.11-1.06,1.73-1.57.2-.17.31-.36.33-.62v-7.37c-.01-.12-.02-.17-.12-.25l-2.58-1.49c.1.08.1.13.11.25v7.36c-.02.27-.12.46-.32.64-.89.71-1.62,1.41-2.39,2.26-1.32,1.51-2.35,3.04-3.26,4.82-1.08,2.17-1.8,4.33-2.07,6.74-.18,1.98-.06,3.72.83,5.53Z"/>
      <path class="cls-2" d="M1.48,39.77c.58.99,1.05,1.45,2.09,2.05l.16.09c-.34-.58-.53-1.02-.73-1.6-.49-1.68-.55-3.46-.19-5.63.39-2.14,1.11-4.13,2.24-6.27,1.05-1.92,2.22-3.51,3.66-5.02.59-.59,1.14-1.08,1.77-1.58.14-.12.2-.24.21-.42v-7.35s-1.97-1.14-1.97-1.14v7.01c-.03.36-.16.63-.43.86-.86.69-1.59,1.38-2.37,2.24-1.29,1.49-2.31,3-3.22,4.76-1.14,2.31-1.79,4.42-2.04,6.64-.2,2.23.03,3.78.79,5.34h0ZM5.6,43.65c-.05,0-.11,0-.15-.05l-2.18-1.25c-1.14-.66-1.68-1.19-2.32-2.29,0,0,0-.02-.01-.03-.81-1.65-1.07-3.35-.86-5.68.26-2.31.92-4.48,2.1-6.86.93-1.81,1.97-3.35,3.3-4.89.81-.89,1.56-1.59,2.43-2.3.13-.12.19-.23.21-.41v-7.34c-.12-.1-.15-.29-.06-.42.09-.14.27-.18.4-.11l2.58,1.5c.24.19.25.36.27.49v7.4c-.02.36-.16.62-.43.86-.62.5-1.15.98-1.72,1.55-1.4,1.47-2.54,3.02-3.56,4.88-1.1,2.09-1.79,4.02-2.18,6.08-.35,2.1-.3,3.75.17,5.34.18.54.36.93.67,1.48.49.7.84,1.05,1.5,1.48.14.09.18.28.1.42-.06.1-.16.15-.26.15Z"/>
      <path class="cls-3" d="M16.41,18.79c-.81-.43-1.4-.57-2.32-.63-1.01,0-1.74.16-2.69.5-.1.03-.14.04-.24,0l2.58,1.49c.1.05.14.04.24.02.73-.25,1.29-.4,2.06-.48,1.1-.06,1.93.06,2.9.57l-2.53-1.46Z"/>
      <path class="cls-2" d="M12.01,18.78l1.89,1.09c.78-.3,1.36-.42,2.11-.51.27,0,.53-.02.77,0l-.51-.3c-.74-.39-1.29-.54-2.18-.59-.81,0-1.42.12-2.07.31h0ZM18.94,20.56c-.05,0-.1-.02-.15-.03-.86-.46-1.6-.61-2.74-.55-.68.08-1.22.2-1.97.46-.15.05-.29.08-.48-.03l-2.59-1.5c-.15-.09-.2-.27-.12-.42.08-.15.27-.21.41-.12.89-.32,1.68-.52,2.79-.52,1,.05,1.64.23,2.46.66h.01l2.53,1.47c.14.08.2.27.12.41-.06.1-.16.17-.27.17Z"/>
      <path class="cls-3" d="M18.61,31.21c.4-1.42.58-2.59.48-4.07-.17-1.52-.61-2.79-1.95-3.64l-2.58-1.49s.34.37.69.77c1.54,1.74,1.48,3.41,1.08,5.68-.19.91-.43,1.69-.76,2.55-.98,2.36-2.25,4.26-4.16,5.97-1.75,1.47-4.21,2.87-6.48,1.69h0l2.58,1.48h0c.87.46,1.54.52,2.51.39,1.45-.29,2.49-.91,3.64-1.8,2.4-2.01,4.01-4.57,4.94-7.55Z"/>
      <path class="cls-2" d="M18.61,31.21h0,0ZM6.84,39.42l.82.48c.75.39,1.34.48,2.32.35,1.4-.28,2.41-.89,3.49-1.74,2.26-1.89,3.89-4.39,4.83-7.39.36-1.28.57-2.43.47-3.96-.2-1.72-.72-2.7-1.81-3.4l-1.03-.59c1.2,1.72,1.03,3.45.7,5.35-.19.92-.42,1.69-.78,2.61-1.03,2.49-2.38,4.42-4.24,6.09-1.7,1.43-3.32,2.16-4.78,2.2h0ZM9.23,40.92c-.61,0-1.17-.12-1.85-.48l-2.6-1.5c-.15-.08-.2-.27-.12-.42.09-.15.27-.2.42-.11,1.7.89,3.77.33,6.13-1.65,1.81-1.63,3.07-3.43,4.08-5.85.34-.89.56-1.63.74-2.5.41-2.35.37-3.84-1.01-5.42-.28-.31-.55-.62-.65-.73-.05-.05-.12-.17-.12-.24,0-.11.06-.22.15-.27.1-.05.21-.05.31,0l2.58,1.5c1.58,1,1.95,2.51,2.1,3.87.11,1.63-.12,2.85-.49,4.18t0,.02c-.98,3.12-2.67,5.7-5.04,7.68-1.16.9-2.24,1.57-3.78,1.87-.3.03-.59.06-.86.06Z"/>
      <path class="cls-3" d="M8.36,8.9l2.58,1.5c.04-.11.05-.16.07-.29V3.32l-2.58-1.5v6.79c0,.11-.02.17-.06.28Z"/>
      <path class="cls-2" d="M8.72,8.75l1.98,1.15V3.5s-1.97-1.13-1.97-1.13v6.25c0,.05,0,.1-.01.13h0ZM10.94,10.69c-.05,0-.11-.01-.15-.03l-2.58-1.5c-.13-.07-.19-.23-.13-.37.03-.09.04-.11.04-.2V1.83c0-.11.06-.21.16-.26.09-.06.21-.06.31,0l2.58,1.49c.09.05.15.15.15.27v6.78c-.02.18-.04.27-.08.39-.03.09-.1.16-.18.18-.04.02-.07.02-.11.02Z"/>
      <path class="cls-3" d="M5.01,14.03l-2.58-1.5v3.04l2.58,1.5v-3.04Z"/>
      <path class="cls-2" d="M2.73,15.4l1.96,1.14v-2.34l-1.96-1.13v2.33h0ZM5.01,17.37c-.06,0-.11,0-.15-.04l-2.58-1.49c-.09-.05-.15-.16-.15-.27v-3.04c0-.1.06-.21.15-.26.1-.06.21-.06.31,0l2.58,1.49c.1.05.15.15.15.27v3.04c0,.11-.06.21-.15.27-.05.03-.1.04-.15.04Z"/>
      <path class="cls-3" d="M8.38,20.16l2.58,1.5c.03-.09.04-.14.05-.23v-7.37c-.01-.11-.02-.17-.12-.25l-2.58-1.49c.1.08.1.13.11.25v7.36c0,.1-.02.15-.04.23Z"/>
      <path class="cls-2" d="M8.73,20l1.97,1.14v-7.09s-1.97-1.14-1.97-1.14v7.01s0,.06,0,.08h0ZM10.96,21.96c-.05,0-.11,0-.15-.04l-2.58-1.48c-.13-.07-.19-.23-.14-.37.02-.06.02-.09.03-.16v-7.34c-.12-.1-.15-.29-.06-.42.09-.14.27-.18.4-.11l2.58,1.5c.23.17.25.32.27.49v7.4c0,.14-.02.22-.06.33-.03.09-.1.15-.18.19-.04,0-.08.02-.11.02Z"/>
      <path class="cls-1" d="M14.92,23.07c1.67-.17,3,.6,3.68,2.13.33.73.51,1.64.51,2.7s-.18,2.18-.51,3.3c-.69,2.32-2.01,4.62-3.68,6.38-.8.84-1.68,1.56-2.6,2.1-.92.53-1.8.83-2.6.9-1.67.17-2.99-.59-3.68-2.12-.33-.74-.51-1.64-.51-2.71s.18-2.18.51-3.3c.69-2.32,2.02-4.62,3.68-6.37.8-.85,1.68-1.56,2.6-2.1.92-.54,1.8-.83,2.6-.91h0ZM16.67,19.65c-.83-.03-1.74.14-2.7.5-.19.08-.34-.02-.34-.25v-7.37c0-.24.18-.55.39-.68l5.61-3.23v-3.04l-5.61,3.23c-.22.13-.39.03-.39-.23V1.8l-1.32.76-1.32.76v6.78c0,.25-.18.56-.39.68l-5.61,3.24v3.04l5.61-3.24c.22-.12.39-.02.39.23v7.37c0,.21-.13.48-.32.62-.96.76-1.87,1.65-2.71,2.63-1.97,2.32-3.52,5.17-4.37,8.04-.46,1.55-.71,3.09-.71,4.56s.25,2.74.71,3.75c.96,2.12,2.81,3.19,5.12,2.96,1.11-.1,2.32-.51,3.6-1.25,1.28-.74,2.49-1.73,3.6-2.9,2.31-2.44,4.16-5.64,5.12-8.87.46-1.55.71-3.1.71-4.57s-.25-2.73-.71-3.75c-.85-1.88-2.41-2.94-4.37-2.98h0Z"/>
      <path class="cls-2" d="M14.96,23.38c-.78.08-1.62.37-2.48.87-.87.5-1.73,1.19-2.53,2.04-1.62,1.71-2.94,3.99-3.61,6.25-.33,1.13-.5,2.21-.5,3.21s.16,1.87.49,2.58c.63,1.42,1.82,2.1,3.37,1.95.78-.08,1.62-.37,2.48-.87.88-.51,1.73-1.19,2.53-2.04,1.62-1.7,2.94-3.99,3.61-6.25.33-1.12.5-2.21.5-3.21s-.16-1.86-.49-2.58c-.63-1.41-1.83-2.09-3.37-1.95h0ZM9.28,40.92c-1.58,0-2.84-.83-3.52-2.32-.36-.8-.54-1.76-.54-2.84s.18-2.21.53-3.39c.7-2.34,2.07-4.72,3.76-6.5.85-.89,1.74-1.62,2.67-2.15.94-.55,1.86-.86,2.73-.95h0c1.8-.18,3.25.66,3.99,2.3.36.8.54,1.76.54,2.83s-.18,2.21-.53,3.39c-.7,2.39-2.04,4.7-3.75,6.5-.85.9-1.74,1.62-2.67,2.16-.94.54-1.85.86-2.73.95-.16.02-.32.02-.47.02h0ZM10.79,13.47c-.11,0-.22.03-.33.1l-5.15,2.97v-2.34l5.45-3.15c.31-.18.55-.58.55-.95V3.5l2.02-1.16v6.25c0,.23.1.42.27.52.17.09.39.09.58-.03l5.15-2.97v2.33l-5.45,3.16c-.31.17-.54.58-.54.94v7.37c0,.22.09.4.24.5.15.1.34.11.51.04.91-.34,1.78-.5,2.58-.48,1.84.04,3.3,1.04,4.1,2.81.45,1.01.69,2.22.69,3.62s-.24,2.91-.7,4.49c-.94,3.15-2.78,6.34-5.05,8.74-1.12,1.18-2.31,2.14-3.53,2.84-1.21.7-2.38,1.11-3.47,1.22-2.19.22-3.9-.77-4.81-2.77-.46-1.01-.69-2.22-.69-3.62s.24-2.91.7-4.48c.84-2.82,2.37-5.63,4.31-7.92.84-.98,1.73-1.85,2.66-2.58.26-.2.44-.55.44-.87v-7.37c0-.23-.1-.42-.27-.51-.08-.05-.17-.07-.25-.07h0ZM8.12,44.31c-2.15,0-3.88-1.13-4.8-3.16-.49-1.09-.74-2.39-.74-3.88s.24-3.03.73-4.65c.86-2.9,2.43-5.8,4.43-8.15.86-1.02,1.79-1.91,2.75-2.67.12-.1.2-.28.2-.38v-7.28l-5.54,3.2c-.09.05-.21.05-.31,0-.1-.06-.15-.15-.15-.27v-3.04c0-.12.06-.22.15-.27l5.61-3.23c.12-.07.24-.28.24-.42V3.32c0-.12.06-.22.16-.27l2.64-1.52c.09-.05.21-.05.31,0,.09.05.16.16.16.27v6.69l5.54-3.19c.1-.05.21-.05.31,0,.1.05.15.16.15.27v3.04c0,.11-.06.21-.15.27l-5.61,3.23c-.12.07-.24.27-.24.41v7.3c.96-.35,1.88-.51,2.73-.49h0c2.09.05,3.74,1.18,4.65,3.17.49,1.09.74,2.4.74,3.88s-.25,3.03-.73,4.66c-.97,3.25-2.86,6.53-5.19,9-1.16,1.23-2.4,2.22-3.67,2.95-1.29.74-2.54,1.17-3.72,1.29-.22.02-.43.03-.63.03Z"/>
    </g>
  </g>
</svg>