<?xml version="1.0" encoding="UTF-8"?>
<svg id="Layer_2" data-name="Layer 2" xmlns="http://www.w3.org/2000/svg" viewBox="0 0 36.1 41.49" fill="currentColor">
  <defs>
    <style>
      .cls-1 {
        fill: #fff;
      }

      .cls-1, .cls-2, .cls-3, .cls-4 {
        fill-rule: evenodd;
      }

      .cls-2 {
        fill: #1a87c7;
      }

      .cls-3 {
        fill: #bdedf8;
      }

      .cls-4 {
        fill: #66ceef;
      }
    </style>
  </defs>
  <g id="_Layer_" data-name="&amp;lt;Layer&amp;gt;">
    <g>
      <path class="cls-3" d="M5.93,30.2l6.31,3.66c.45.21.76.04,1.13-.16l11.66-6.74c.42-.22.63-.27,1.02-.03l-6.31-3.67c-.37-.17-.63-.08-.94.09l-11.71,6.75c-.42.25-.68.37-1.15.1Z"/>
      <path class="cls-2" d="M7.03,30.48l5.37,3.12c.26.12.42.04.81-.17l11.66-6.74s.05-.04.08-.04l-5.37-3.12c-.18-.09-.34-.07-.66.09l-11.68,6.75c-.05.04-.13.08-.21.11h0ZM12.63,34.27c-.16,0-.34-.03-.52-.13l-6.34-3.68h0c-.16-.08-.18-.27-.1-.42.08-.15.26-.2.42-.11.31.19.45.14.86-.1l11.69-6.75c.34-.17.73-.34,1.23-.1l6.34,3.68h0c.16.09.21.28.11.43-.08.15-.26.19-.39.11-.29-.16-.39-.16-.76.03l-11.66,6.73c-.24.15-.52.31-.86.31Z"/>
      <path class="cls-4" d="M8.15,20.52l-6.24-3.61c-.92,1.64-1.55,3.35-1.55,5.26-.03,1.7-.16,11.54.1,12.77.16.82.55,1.69,1.28,2.16l6.23,3.61c-1.1-.82-1.39-2.03-1.39-3.34-.03-1.91-.16-11.32.11-12.89.24-1.43.76-2.7,1.44-3.96Z"/>
      <path class="cls-2" d="M2.05,17.34c-.92,1.72-1.36,3.27-1.39,4.84v.14c-.11,9.92.03,12.13.11,12.57.18.87.6,1.59,1.15,1.96l4.82,2.77c-.37-.77-.45-1.6-.45-2.24v-.35c-.1-7.46-.05-11.59.11-12.6.21-1.24.63-2.45,1.36-3.79l-5.71-3.3h0ZM8,41.02c-.05,0-.1-.02-.16-.04l-6.24-3.61c-.73-.47-1.23-1.32-1.44-2.36-.21-1.01-.18-7.46-.1-12.69v-.14c0-1.76.52-3.48,1.6-5.41.05-.08.11-.13.18-.15.08-.03.18,0,.23.03l6.24,3.61c.16.09.21.27.13.42-.76,1.37-1.23,2.6-1.44,3.85-.16.98-.18,5.18-.1,12.5v.35c.03,1.49.42,2.44,1.28,3.09.13.09.16.28.05.42-.05.09-.16.14-.24.14Z"/>
      <path class="cls-4" d="M20.78,3.71c-.03.25-.1.44-.31.58l6.24,3.61c.21-.15.31-.33.34-.58v-3.4L20.78.31v3.4h0ZM26.94,13.92l-6.24-3.61c.08.07.08.11.08.22v3.4l6.26,3.6v-3.39c-.03-.1-.03-.15-.1-.22h0Z"/>
      <path class="cls-2" d="M20.78,3.71h.03-.03ZM20.94,4.22l5.71,3.29c.05-.06.08-.13.08-.23v-3.2l-5.63-3.25v2.89c-.03.18-.08.35-.16.49h0ZM26.7,8.2c-.05,0-.11,0-.16-.03l-6.23-3.61c-.1-.05-.16-.15-.16-.25,0-.11.05-.21.13-.27.13-.09.18-.18.21-.34V.31c0-.11.05-.21.16-.27.08-.05.18-.05.29,0l6.26,3.61c.08.05.13.16.13.27v3.4c-.03.37-.18.64-.47.83-.05.03-.11.05-.16.05h0ZM21.1,13.75l5.63,3.25v-2.84l-5.63-3.25v2.84h0ZM27.04,17.84c-.05,0-.1-.02-.16-.04l-6.24-3.61c-.1-.05-.16-.16-.16-.26v-3.4c-.13-.09-.16-.27-.05-.4.08-.13.26-.16.39-.08l6.26,3.6s.03.03.03.03c.18.15.21.31.21.43v3.42c0,.11-.05.22-.13.27-.05.03-.1.04-.16.04Z"/>
      <polygon class="cls-3" points="35.79 5.67 29.56 2.06 20.78 .31 27.04 3.92 35.79 5.67"/>
      <path class="cls-2" d="M27.15,3.62l6.86,1.37-4.58-2.64-6.86-1.37,4.58,2.64h0ZM35.79,5.97h-.05l-8.78-1.76s-.05-.02-.08-.03l-6.24-3.6c-.13-.08-.21-.23-.16-.38.08-.14.21-.23.34-.19l8.78,1.75s.08.02.1.03l6.24,3.6c.13.08.18.23.13.38-.05.11-.16.19-.29.19Z"/>
      <path class="cls-1" d="M8.15,20.52c-.94,1.68-1.55,3.55-1.55,5.26v11.59c0,1.71.6,2.89,1.55,3.45,1,.56,2.36.5,3.88-.3h0s12.99-7.51,12.99-7.51c.37-.21.71-.57.94-.99h0c.24-.43.39-.9.39-1.33v-2.95c0-.43-.16-.73-.39-.87-.23-.14-.58-.12-.94.1l-11.58,6.68c-.47.26-.81.45-1.2.22-.37-.23-.39-.62-.39-1.16v-8.07c0-1.9.6-2.46,2.02-3.27l12.84-7.41c.18-.1.34-.02.34.19v3.39l8.75-11.86-8.75-1.75v3.4c0,.22-.16.48-.34.58l-14.67,8.47h0c-1.49.93-2.88,2.44-3.88,4.15Z"/>
      <path class="cls-2" d="M8.15,20.52h.03-.03ZM12.16,16.64c-1.41.89-2.72,2.31-3.72,4.02h0c-.99,1.71-1.55,3.52-1.55,5.11v11.59c0,1.53.52,2.66,1.42,3.18.94.54,2.2.43,3.56-.3l13-7.5c.31-.18.6-.5.84-.89.21-.39.34-.82.34-1.17v-2.95c0-.3-.08-.51-.24-.6-.16-.1-.39-.05-.63.09l-11.61,6.69c-.42.25-.92.55-1.49.22-.55-.34-.55-.96-.55-1.42v-8.07c0-1.97.63-2.65,2.17-3.54l12.84-7.41c.18-.1.39-.11.55-.03.16.1.24.27.24.49v2.46l7.91-10.73-7.91-1.58v3.03c0,.32-.21.69-.47.85l-14.67,8.47s0,0-.03,0h0ZM9.65,41.49c-.6,0-1.15-.14-1.62-.41-1.13-.64-1.73-1.96-1.73-3.72v-11.59c0-1.7.58-3.62,1.62-5.42h0c1.02-1.81,2.44-3.32,3.96-4.26,0,0,.03-.02.03-.02l14.64-8.46c.08-.05.18-.21.18-.31v-3.4c0-.1.03-.18.1-.24.08-.05.16-.08.26-.06l8.75,1.75c.11.03.18.1.24.19.03.1.03.21-.05.3l-8.75,11.86c-.08.11-.21.16-.34.11-.13-.04-.21-.16-.21-.3v-3.24l-12.73,7.35c-1.31.76-1.86,1.24-1.86,3v8.07c0,.57.08.77.26.89.21.12.39.05.89-.22l11.58-6.68c.45-.26.92-.3,1.26-.1.34.21.55.61.55,1.14v2.95c0,.47-.16.99-.45,1.48-.26.49-.66.88-1.05,1.11l-12.99,7.5c-.89.48-1.78.72-2.54.72Z"/>
      <path class="cls-3" d="M12.21,16.27l14.49-8.37-6.24-3.61L6.08,12.59c-1.81,1.04-3.09,2.54-4.17,4.32l6.24,3.61c1.02-1.68,2.36-3.27,4.06-4.25Z"/>
      <path class="cls-2" d="M2.36,16.8l5.68,3.3c1.15-1.86,2.52-3.23,4.01-4.1h0l14.02-8.1-5.61-3.25L6.24,12.85c-1.52.89-2.78,2.15-3.88,3.95h0ZM8.15,20.82c-.05,0-.11,0-.13-.04l-6.26-3.6c-.05-.04-.11-.11-.13-.19-.03-.08,0-.17.03-.23,1.23-2.04,2.59-3.45,4.27-4.43l14.38-8.29c.08-.06.21-.06.31,0l6.24,3.6c.08.06.16.16.16.27s-.08.21-.16.27l-14.52,8.36h.03c-1.49.86-2.8,2.25-3.93,4.15-.08.09-.18.15-.29.15Z"/>
    </g>
  </g>
</svg>