<?xml version="1.0" encoding="UTF-8"?>
<svg id="Layer_2" data-name="Layer 2" xmlns="http://www.w3.org/2000/svg" viewBox="0 0 34.64 41.43" fill="currentColor">
  <defs>
    <style>
      .cls-1 {
        fill: #fff;
      }

      .cls-1, .cls-2, .cls-3, .cls-4 {
        fill-rule: evenodd;
      }

      .cls-2 {
        fill: #1a87c7;
      }

      .cls-3, .cls-5 {
        fill: #bdedf8;
      }

      .cls-4 {
        fill: #66ceef;
      }
    </style>
  </defs>
  <g id="_Layer_" data-name="&amp;lt;Layer&amp;gt;">
    <g>
      <path class="cls-1" d="M34.03,11.58L14.62.37c-.24-.12-.42-.06-.65.06C9.72,2.88,5.5,5.33,1.26,7.78c-.31.19-.47.39-.68.69l19.44,11.21c.18-.3.34-.5.65-.69,4.24-2.45,8.49-4.9,12.71-7.34.24-.12.42-.18.65-.07Z"/>
      <path class="cls-2" d="M1.02,8.37l18.89,10.9c.16-.2.34-.38.6-.54l12.65-7.3L14.46.64c-.08-.04-.13-.04-.34.07L1.39,8.04c-.13.09-.24.19-.37.33h0ZM20.02,19.99c-.05,0-.1-.01-.16-.04L.45,8.74c-.08-.04-.13-.11-.16-.19,0-.08,0-.17.05-.24.18-.32.37-.56.73-.79L13.81.17c.29-.14.58-.25.94-.08l19.44,11.22c.16.08.21.26.13.41-.08.15-.26.2-.42.14-.1-.05-.16-.05-.37.06l-12.71,7.34c-.24.14-.37.3-.55.59-.05.09-.16.15-.26.15Z"/>
      <polygon class="cls-3" points="22.56 15.47 18.81 13.3 6.76 6.35 6.03 6.76 3.72 8.1 19.52 17.23 22.56 15.47"/>
      <path class="cls-2" d="M4.32,8.1l15.2,8.77,2.44-1.4L6.76,6.7l-2.44,1.4h0ZM19.52,17.54c-.05,0-.1-.02-.16-.04L3.56,8.37c-.1-.06-.16-.16-.16-.27s.05-.21.16-.26l3.04-1.76c.11-.06.21-.06.31,0l15.8,9.12c.11.06.16.16.16.27s-.05.21-.16.27l-3.04,1.76c-.05.03-.11.04-.16.04Z"/>
      <path class="cls-4" d="M.31,9.38v19.87c.03.25.05.45.26.6l19.44,11.21c-.24-.15-.26-.34-.29-.6v-19.87c.03-.35.1-.6.29-.91L.58,8.47c-.16.31-.24.56-.26.91Z"/>
      <path class="cls-2" d="M.63,9.39v19.86c0,.22.03.28.13.34l18.68,10.78v-19.78c0-.32.08-.56.16-.79L.73,8.9c-.08.16-.1.31-.1.48h0ZM20.02,41.37c-.05,0-.1-.01-.16-.04L.45,30.12c-.37-.24-.42-.55-.45-.85V9.38h0c.03-.44.16-.74.31-1.06.05-.07.13-.13.21-.15.05-.02.16-.01.21.03l19.44,11.21c.13.08.18.27.1.41-.16.3-.21.5-.24.78v19.85c.03.22.05.28.16.35.13.09.16.28.08.42-.05.09-.16.14-.26.14Z"/>
      <path class="cls-1" d="M20.67,41l.47-.28,11.76-6.79.47-.28c.26-.15.5-.4.65-.69.18-.29.29-.62.29-.91V12.18c0-.29-.1-.5-.29-.6-.16-.1-.39-.08-.65.07l-.94.55c-3.62,2.08-7.21,4.17-10.82,6.25l-.94.55c-.52.3-.94,1.02-.94,1.61v19.87c0,.3.1.5.29.6.16.1.39.08.65-.07Z"/>
      <path class="cls-2" d="M33.8,11.83c-.08,0-.16.03-.26.08l-12.71,7.34c-.42.24-.79.87-.79,1.34v19.87c0,.17.05.29.13.33.08.04.21.02.34-.07h0l12.73-7.34c.18-.12.37-.33.52-.58.16-.25.24-.53.24-.76V12.18c0-.17-.05-.29-.13-.33-.03-.01-.05-.02-.08-.02h0ZM20.25,41.43c-.13,0-.26-.03-.39-.11-.26-.15-.42-.47-.42-.86v-19.87c0-.7.47-1.52,1.07-1.87l12.73-7.34c.31-.2.68-.22.94-.06.29.15.45.47.45.86v19.87c0,.34-.13.72-.34,1.07-.18.35-.47.64-.76.8l-12.71,7.34c-.18.11-.39.17-.58.17Z"/>
      <path class="cls-2" d="M27.8,30.59c-.18,0-.31-.14-.31-.31v-9.88c0-.17.13-.31.31-.31.16,0,.29.14.29.31v9.88c0,.17-.13.31-.29.31Z"/>
      <polygon class="cls-3" points="32.85 16.96 30.76 15.74 23.29 20.04 25.41 21.26 32.85 16.96"/>
      <path class="cls-2" d="M23.92,20.04l1.49.86,6.84-3.95-1.49-.86-6.84,3.94h0ZM25.41,21.57c-.05,0-.1-.01-.16-.04l-2.12-1.22c-.08-.06-.16-.16-.16-.27s.08-.21.16-.26l7.47-4.31c.11-.06.21-.06.32,0l2.1,1.22c.1.06.16.16.16.27s-.05.21-.16.27l-7.44,4.3c-.05.03-.1.04-.16.04Z"/>
      <polygon class="cls-4" points="25.41 21.26 23.29 20.04 23.29 22.72 25.41 23.95 25.41 21.26"/>
      <path class="cls-2" d="M23.61,22.55l1.49.86v-1.98l-1.49-.86v1.97h0ZM25.41,24.25c-.05,0-.1-.01-.16-.04l-2.12-1.22c-.08-.05-.16-.15-.16-.27v-2.69c0-.11.08-.21.16-.26.11-.06.24-.06.31,0l2.12,1.22c.08.05.16.15.16.26v2.69c0,.11-.08.21-.16.27-.05.03-.1.04-.16.04Z"/>
      <polygon class="cls-3" points="25.41 23.94 28.48 22.17 29.79 21.41 32.85 19.64 32.85 16.96 25.41 21.26 25.41 23.94"/>
      <path class="cls-2" d="M25.73,21.44v1.98l6.84-3.95v-1.98l-6.84,3.95h0ZM25.41,24.25c-.05,0-.1-.01-.16-.04-.1-.06-.16-.16-.16-.27v-2.68c0-.11.05-.21.16-.27l7.47-4.31c.08-.05.21-.05.29,0,.1.06.16.16.16.27v2.69c0,.11-.05.21-.16.27l-7.44,4.3c-.05.03-.1.04-.16.04Z"/>
      <rect class="cls-5" x="28.66" y="33.9" height=".42" transform="translate(-15.13 42.32) rotate(-60.57)"/>
      <path class="cls-2" d="M28.85,34.52c-.05,0-.1,0-.13-.03h0s-.03-.01-.03-.01l-.37-.21c-.16-.08-.21-.27-.1-.42.08-.15.26-.2.42-.12h0l.37.21c.08.06.16.16.16.27,0,.05-.03.1-.05.15-.05.1-.16.15-.26.15Z"/>
      <path class="cls-4" d="M27.8,31.89c-.84.47-1.49,1.63-1.49,2.58s.66,1.34,1.49.86c.81-.47,1.47-1.63,1.47-2.58s-.66-1.33-1.47-.86Z"/>
      <path class="cls-2" d="M27.93,32.15c-.71.42-1.34,1.48-1.34,2.31,0,.34.11.59.29.7.18.1.45.06.76-.1.71-.42,1.34-1.48,1.34-2.32,0-.34-.1-.6-.29-.7-.18-.11-.47-.07-.76.11h0ZM27.12,35.84c-.18,0-.37-.04-.55-.14-.37-.22-.58-.66-.58-1.23,0-1.06.71-2.32,1.65-2.85h0c.47-.29.97-.32,1.36-.1.37.22.58.66.58,1.23,0,1.07-.71,2.32-1.62,2.85-.29.17-.58.25-.84.25Z"/>
      <polygon class="cls-4" points="3.72 8.1 6.68 9.81 6.76 9.83 6.76 6.35 3.72 8.1"/>
      <path class="cls-2" d="M4.32,8.1l2.12,1.23v-2.45l-2.12,1.22h0ZM6.76,10.13s-.03,0-.05,0l-.08-.02c-.05,0-.08-.02-.11-.04l-2.96-1.71c-.1-.06-.16-.16-.16-.27s.05-.21.16-.26l3.04-1.76c.11-.06.21-.06.31,0,.08.06.16.16.16.27v3.48c0,.09-.05.18-.13.24-.05.05-.1.07-.18.07Z"/>
      <polygon class="cls-3" points="30.34 10.98 26.57 8.81 14.54 1.86 13.81 2.27 11.5 3.61 27.3 12.74 30.34 10.98"/>
      <path class="cls-2" d="M12.1,3.61l15.2,8.77,2.44-1.4L14.54,2.21l-2.44,1.4h0ZM27.3,13.04c-.05,0-.1-.01-.16-.04L11.34,3.88c-.1-.06-.16-.16-.16-.27s.05-.21.16-.27l3.04-1.76c.11-.05.21-.05.31,0l15.8,9.13c.1.05.16.16.16.27s-.05.21-.16.27l-3.04,1.76c-.05.03-.1.04-.16.04Z"/>
      <polygon class="cls-4" points="11.5 3.61 14.46 5.32 14.54 5.33 14.54 1.86 11.5 3.61"/>
      <path class="cls-2" d="M12.1,3.61l2.12,1.23v-2.45l-2.12,1.22h0ZM14.54,5.64s-.03,0-.05,0l-.08-.02c-.05,0-.08-.02-.1-.04l-2.96-1.71c-.1-.06-.16-.16-.16-.27s.05-.21.16-.27l3.04-1.76c.11-.05.21-.05.31,0,.08.06.16.16.16.27v3.48c0,.09-.05.18-.11.24-.08.05-.13.07-.21.07Z"/>
    </g>
  </g>
</svg>