<?xml version="1.0" encoding="UTF-8"?>
<svg id="Layer_2" data-name="Layer 2" xmlns="http://www.w3.org/2000/svg" viewBox="0 0 34.93 41.37" fill="currentColor">
  <defs>
    <style>
      .cls-1 {
        fill: #fff;
      }

      .cls-1, .cls-2, .cls-3, .cls-4 {
        fill-rule: evenodd;
      }

      .cls-2 {
        fill: #1a87c7;
      }

      .cls-3 {
        fill: #bdedf8;
      }

      .cls-4 {
        fill: #66ceef;
      }
    </style>
  </defs>
  <g id="_Layer_" data-name="&amp;lt;Layer&amp;gt;">
    <g>
      <path class="cls-4" d="M13.07,36.48c0,5.92-11.99,5.97-11.99.04v-10.37c.02.12.04.21.08.33.1.28.26.57.45.8.63.8,1.7,1.33,2.67,1.62,2.1.64,4.87.53,6.84-.5.57-.3,1.16-.73,1.55-1.27.16-.24.3-.53.37-.81l.03-.17v10.32Z"/>
      <path class="cls-2" d="M1.38,27.5v9.02c0,2.83,2.94,4.12,5.66,4.12s5.73-1.3,5.73-4.16v-8.98c-.45.55-1.06.94-1.51,1.18-1.93,1.01-4.78,1.22-7.07.52-.7-.21-2-.72-2.8-1.7h0ZM7.04,41.25c-1.62,0-3.14-.41-4.28-1.16-1.3-.86-2-2.1-2-3.58v-10.37c0-.16.12-.29.28-.31.16-.02.3.09.33.24.03.12.04.2.08.3.08.23.22.49.39.71.7.86,1.88,1.32,2.52,1.51,2.16.65,4.81.46,6.61-.48.44-.23,1.05-.62,1.44-1.18.15-.22.27-.48.33-.71l.04-.15c.03-.16.17-.26.33-.24.15.02.28.15.28.3v10.32c0,3.28-3.29,4.77-6.35,4.77Z"/>
      <path class="cls-3" d="M2.3,20.86c2.65-1.53,6.95-1.53,9.59,0,2.65,1.53,2.65,4.01,0,5.54-2.65,1.53-6.95,1.53-9.59,0-2.65-1.53-2.65-4.01,0-5.54Z"/>
      <path class="cls-2" d="M2.3,20.86h0,0ZM7.09,20.02c-1.68,0-3.36.37-4.64,1.11h0c-1.18.68-1.83,1.57-1.83,2.5s.65,1.82,1.83,2.5c2.56,1.48,6.73,1.48,9.29,0,1.18-.68,1.82-1.57,1.82-2.5s-.65-1.82-1.84-2.5c-1.28-.74-2.95-1.11-4.64-1.11h0ZM7.09,27.85c-1.79,0-3.59-.39-4.95-1.18-1.38-.8-2.14-1.88-2.14-3.04s.76-2.24,2.15-3.04c2.73-1.58,7.17-1.58,9.9,0,1.38.8,2.14,1.88,2.14,3.04s-.76,2.24-2.14,3.04c-1.37.79-3.16,1.18-4.95,1.18Z"/>
      <path class="cls-4" d="M13.85,24.01v2.24l-.04.19c-.09.39-.3.78-.56,1.09-.72.9-1.92,1.49-3.01,1.82-2.36.72-5.48.59-7.7-.56-.65-.34-1.31-.83-1.74-1.44-.19-.27-.35-.6-.43-.91l-.05-.19v-2.24c.03.13.05.24.1.37.13.39.37.77.65,1.08.79.87,2.04,1.43,3.15,1.73,2.31.62,5.27.47,7.4-.65.71-.37,1.43-.91,1.86-1.61.13-.22.25-.49.31-.73l.04-.19Z"/>
      <path class="cls-2" d="M.65,25.41l.03.96c.06.25.2.55.38.8.44.63,1.13,1.08,1.63,1.34,2.04,1.06,5.03,1.28,7.47.54.73-.22,2.06-.74,2.85-1.72.24-.3.42-.65.5-.97l.04-.17v-.78c-.51.67-1.23,1.12-1.77,1.41-2.09,1.09-5.08,1.35-7.63.67-.81-.22-2.31-.74-3.3-1.83-.08-.08-.15-.16-.21-.25h0ZM7.11,30.09c-1.71,0-3.39-.35-4.7-1.04-.57-.29-1.34-.8-1.85-1.53-.23-.32-.39-.68-.48-1.02l-.05-.2v-2.3c0-.16.11-.29.27-.31.17-.02.3.09.34.25.03.13.04.22.08.34.11.32.32.67.59.96.88.96,2.26,1.44,3.01,1.64,2.4.64,5.21.4,7.18-.62.56-.29,1.31-.78,1.74-1.5.12-.2.23-.44.27-.65l.04-.18c.03-.15.17-.26.33-.24.16.02.28.15.28.31v2.24l-.04.25c-.11.42-.33.85-.62,1.22-.89,1.11-2.36,1.68-3.15,1.92-1.02.31-2.13.46-3.23.46Z"/>
      <path class="cls-4" d="M28.01,34.41v-4.2l-.1-.23c.28.15,2.09,1.15,2.16,1.28l.03,4.34-.22.51-4.02,2.32-1.79-.99v2.6c.02.4.08.69.42.93l-2.07-1.19c-.35-.22-.41-.56-.42-.92v-20.96l-.92-.54c-1.06-.61-1.61-1.6-1.87-2.76-.78-3.5,1.09-7.75,3.34-10.52l2.07,1.2c-.62.77-1.16,1.55-1.64,2.42-1.47,2.64-2.92,7.39-.83,10.01.41.51,1.11.7,1.83,1.18.17.11.1.59.1.89v17.35l3.6-2.08c.22-.14.34-.36.36-.62h0ZM32.47,1.85c-1.35-.78-1.89-1.27-3.42-1.54v6.28c0,.59-.05.74-.44,1.21l-2.49,2.97c-.33.39-.45.37-.93.35l-2.55-.12c.29.17,2.01,1.22,2.2,1.23l2.59.07c.61.02.59-.12.98-.58.69-.81,2.03-2.37,2.5-3.01.22-.3.22-.38.22-.71V1.51c.54.04.86.12,1.35.35h0Z"/>
      <path class="cls-2" d="M23.84,11.37c.44.26.91.52,1.03.56l2.55.06c.34.01.35.01.55-.25.05-.06.11-.14.18-.22l.1-.12c.72-.85,1.94-2.27,2.38-2.87.17-.22.17-.22.17-.53V1.51c0-.08.03-.16.09-.22-.47-.25-.91-.45-1.56-.6v5.9c0,.67-.08.88-.51,1.4l-2.49,2.97c-.4.48-.63.49-1.16.47l-1.34-.06h0ZM27.49,12.61s-.05,0-.09,0l-2.59-.07c-.15,0-.41-.11-2.04-1.08l-.3-.18c-.12-.07-.18-.22-.14-.35.03-.14.17-.23.3-.22l2.56.12c.45.02.45.02.68-.25l2.49-2.97c.35-.41.37-.49.37-1.01V.31c0-.09.04-.18.11-.24.07-.06.16-.08.25-.07,1.29.23,1.92.62,2.81,1.16.22.13.45.27.71.43.15.08.2.26.12.41-.08.15-.26.2-.4.14-.34-.16-.58-.24-.91-.28v6.15c0,.39-.02.54-.28.9-.46.62-1.68,2.05-2.41,2.9l-.11.12c-.06.08-.12.15-.17.2-.28.35-.43.49-.97.49h0ZM22.61,4.47l1.53.89c-.56.7-1.01,1.41-1.45,2.18-1.19,2.14-2.85,6.71-1.24,9.69l-.23-.14c-.9-.52-1.45-1.35-1.72-2.56-.74-3.3,1.01-7.38,3.11-10.06h0ZM28.01,34.41h.01-.01ZM24.39,37.27l1.46.81,3.78-2.19.15-.35-.03-4.14c-.24-.17-.97-.58-1.43-.84v3.87c-.04.36-.21.67-.51.85l-3.43,1.98h0ZM22.29,18.27v20.58c.02.37.09.54.28.66l1.18.68s-.01-.09-.01-.14v-2.61c0-.06.02-.12.05-.17-.03-.05-.05-.11-.05-.17v-17.35c0-.07.01-.14.01-.22,0-.13.02-.38-.02-.45-.21-.12-.46-.25-.7-.38-.26-.14-.51-.27-.74-.44h0ZM24.48,41.27c-.05,0-.1-.01-.16-.04l-2.07-1.19c-.47-.3-.56-.76-.57-1.18v-20.8l-.78-.45c-1.04-.61-1.7-1.58-2.01-2.96-.85-3.83,1.3-8.2,3.41-10.78.1-.12.26-.15.39-.07l2.07,1.2c.08.05.13.12.15.21.02.09-.01.18-.06.25-.63.78-1.15,1.53-1.62,2.37-1.22,2.19-2.96,7.02-.85,9.67.22.27.56.45.95.65.26.13.53.27.81.46.28.19.26.59.24.95,0,.07,0,.14,0,.2v16.82l3.14-1.81c.15-.09.2-.25.21-.37v-4.12l-.08-.17c-.05-.12-.03-.27.07-.36.1-.09.25-.1.36-.04l.28.15c1.91,1.06,1.94,1.13,2,1.27.02.04.03.08.03.13l.03,4.34s0,.09-.03.12l-.22.51c-.03.06-.07.11-.13.14l-4.02,2.32c-.1.05-.21.06-.3,0l-1.34-.74v2.08c.02.38.08.53.28.67.14.09.18.28.09.42-.06.09-.16.14-.26.14Z"/>
      <polygon class="cls-4" points="6.58 24.35 5.57 23.77 5.57 10.25 6.59 10.84 6.58 24.35"/>
      <path class="cls-2" d="M5.88,23.59l.4.23v-12.8l-.39-.23v12.8h0ZM6.58,24.66c-.05,0-.1-.01-.15-.04l-1.02-.59c-.1-.05-.16-.16-.16-.27v-13.51c.01-.11.06-.21.17-.27.09-.05.21-.05.3,0l1.01.58c.09.06.16.16.16.27v13.51c0,.11-.06.21-.16.27-.04.03-.1.04-.16.04Z"/>
      <polygon class="cls-4" points="5.48 10.31 4.48 9.73 5.11 2.24 6.12 2.83 5.48 10.31"/>
      <path class="cls-2" d="M4.8,9.56l.43.24.57-6.81-.43-.24-.57,6.81h0ZM5.48,10.62c-.05,0-.1-.02-.15-.04l-1.02-.58c-.1-.06-.16-.18-.16-.29l.64-7.49c.01-.1.07-.2.16-.25.1-.05.21-.05.31,0l1.01.58c.1.06.17.17.16.29l-.63,7.49c-.01.11-.08.2-.16.25-.05.02-.1.04-.15.04Z"/>
      <polygon class="cls-4" points="6.12 2.83 5.11 2.24 8.08 .53 9.09 1.11 6.12 2.83"/>
      <path class="cls-2" d="M5.73,2.24l.39.23,2.35-1.36-.4-.23-2.35,1.36h0ZM6.12,3.13c-.05,0-.11-.01-.16-.04l-1.01-.58c-.1-.06-.16-.16-.16-.26s.06-.21.16-.27L7.93.26c.1-.06.21-.06.31,0l1.01.58c.09.06.15.16.15.27s-.06.21-.15.27l-2.97,1.71c-.05.03-.1.04-.15.04Z"/>
      <polygon class="cls-1" points="6.58 24.35 6.59 10.84 5.48 10.31 6.12 2.83 9.09 1.11 9.72 7.87 8.62 9.67 8.61 14.84 8.61 23.18 6.58 24.35"/>
      <path class="cls-2" d="M5.81,10.13l.9.44c.1.05.18.16.18.28v12.98l1.41-.82v-13.34c0-.06.02-.11.05-.16l1.05-1.71-.57-6.17-2.42,1.39-.6,7.11h0ZM6.58,24.66c-.05,0-.1-.01-.15-.04-.1-.06-.16-.16-.16-.27v-13.32l-.92-.44c-.11-.06-.18-.18-.17-.3l.63-7.48c.01-.1.06-.19.16-.24l2.96-1.71c.09-.05.2-.05.3,0,.1.05.16.14.17.24l.63,6.76c0,.07,0,.13-.04.19l-1.05,1.72v13.43c0,.11-.06.21-.16.26l-2.03,1.17s-.1.04-.16.04Z"/>
      <path class="cls-1" d="M29.73,36.23l-3.75,2.16c-.2.11-.36.02-.36-.21v-4.2c0-.23.16-.51.36-.62l3.75-2.16c.19-.12.36-.02.36.2v4.2c0,.23-.16.51-.36.62h0ZM31.54,14.82c0-.13.05-.3.15-.43.09-.15.18-.18.36-.46.75-1.13,1.38-2.37,1.83-3.62.48-1.34.75-2.7.74-3.98,0-1.56-.39-2.79-1.08-3.62-.61-.73-1.44-1.14-2.42-1.2v6.51c0,.09,0,.22-.02.32-.03.12-.08.24-.18.35l-2.76,3.3c-.16.18-.29.36-.47.35l-2.87-.11c-.13.01-.23-.08-.23-.26v-6.71c-.97,1.19-1.81,2.57-2.42,4-1.31,3.1-1.44,6.16-.35,8,.48.82,1.2,1.36,2.06,1.58.05,0,.09.04.13.09.05.08.04.2.04.32v20.78h0c0,.46.16.78.42.93.26.15.62.13,1.02-.1l4.73-2.73c.2-.12.38-.26.55-.44.17-.18.33-.39.47-.64.14-.24.24-.48.31-.72.07-.24.1-.47.1-.7-.03-6.58-.07-13.17-.1-19.75,0-.36,0-.72-.01-1.07h0Z"/>
      <path class="cls-2" d="M29.78,31.53l-3.63,2.1c-.11.06-.21.24-.21.35v4.08l3.64-2.1h0c.1-.06.2-.24.2-.36v-4.07h0ZM25.82,38.74c-.08,0-.17-.02-.24-.07-.17-.09-.26-.28-.26-.5v-4.2c0-.34.22-.72.51-.89l3.74-2.16c.19-.11.39-.12.57-.03.16.1.25.27.25.5v4.2c0,.34-.22.72-.51.89l-3.74,2.16c-.11.06-.22.09-.32.09h0ZM24.81,11.93h0,.02,0ZM23.82,19.15s.02,0,.03,0c-.01,0-.02,0-.03,0h0ZM24.29,6.17v5.81c0,.18.06.34.18.44.1.09.24.14.34.13l2.88.11c.31.02.52-.23.71-.46l2.77-3.31c.11-.14.2-.31.24-.48.03-.12.03-.24.03-.39V1.85c.75.12,1.39.48,1.87,1.06.67.8,1.02,1.98,1.02,3.42,0,1.2-.25,2.55-.72,3.88-.43,1.22-1.05,2.44-1.79,3.56-.1.14-.16.2-.21.26-.06.06-.11.11-.17.19-.13.19-.2.41-.19.61l.11,20.82c0,.2-.03.4-.09.61-.06.21-.16.43-.29.65-.12.22-.27.41-.42.58-.15.15-.31.28-.49.38l-4.73,2.73c-.28.16-.54.2-.7.1-.17-.1-.27-.34-.27-.66v-20.83c0-.12,0-.28-.08-.42-.08-.13-.2-.22-.31-.24-.78-.2-1.44-.7-1.87-1.44-1.05-1.76-.91-4.72.37-7.72.48-1.13,1.1-2.23,1.82-3.22h0ZM24.85,41.37c-.19,0-.37-.05-.53-.14-.36-.21-.57-.64-.57-1.19v-20.91c-.92-.26-1.67-.85-2.17-1.7-1.15-1.93-1.03-5.1.32-8.28.63-1.46,1.48-2.87,2.47-4.07.09-.1.22-.14.34-.1.13.04.21.16.21.29v6.66l2.79.1s.13-.13.19-.2l2.8-3.34c.05-.06.09-.14.11-.22.01-.05.01-.13.01-.2V1.51c0-.08.03-.17.09-.22.06-.06.15-.09.22-.08,1.07.06,1.98.51,2.64,1.31.75.91,1.16,2.23,1.16,3.82,0,1.29-.25,2.67-.76,4.09-.44,1.26-1.08,2.54-1.86,3.69-.12.18-.21.27-.28.34-.03.03-.06.07-.09.11-.06.09-.09.19-.09.24h0s.1,20.83.1,20.83c0,.26-.03.52-.11.79-.08.26-.19.52-.34.79-.16.26-.32.5-.51.69-.18.2-.39.36-.62.5l-4.73,2.73c-.27.16-.54.23-.79.23Z"/>
      <path class="cls-2" d="M11.78,37.65c-.17,0-.3-.14-.3-.31v-8.66c0-.17.13-.31.3-.31s.3.14.3.31v8.66c0,.17-.14.31-.3.31Z"/>
      <path class="cls-2" d="M8.21,40.11c-.18,0-.31-.14-.31-.31v-10c0-.17.14-.31.31-.31.16,0,.3.14.3.31v10c0,.17-.14.31-.3.31Z"/>
      <path class="cls-2" d="M10.14,39.18c-.17,0-.31-.14-.31-.31v-9.44c0-.17.14-.31.31-.31s.3.14.3.31v9.44c0,.17-.14.31-.3.31Z"/>
      <path class="cls-2" d="M2.36,37.65c-.16,0-.3-.14-.3-.31v-8.66c0-.17.14-.31.3-.31.18,0,.32.14.32.31v8.66c0,.17-.14.31-.32.31Z"/>
      <path class="cls-2" d="M5.95,40.11c-.17,0-.3-.14-.3-.31v-10c0-.17.14-.31.3-.31.18,0,.31.14.31.31v10c0,.17-.14.31-.31.31Z"/>
      <path class="cls-2" d="M4.01,39.18c-.17,0-.3-.14-.3-.31v-9.44c0-.17.14-.31.3-.31.17,0,.31.14.31.31v9.44c0,.17-.14.31-.31.31Z"/>
      <path class="cls-2" d="M29.88,36.23c-.05,0-.1-.01-.15-.04l-1.91-1.1c-.15-.08-.2-.27-.11-.42.09-.15.28-.2.43-.11l1.9,1.1c.15.08.2.27.11.42-.06.1-.17.15-.27.15Z"/>
      <path class="cls-2" d="M31.04,8.83c-.05,0-.11-.01-.16-.04l-2.1-1.21c-.15-.09-.2-.27-.11-.42.09-.15.27-.2.42-.11l2.1,1.21c.15.09.2.27.11.42-.05.1-.15.15-.26.15Z"/>
      <path class="cls-2" d="M27.84,12.57c-.05,0-.1-.01-.15-.04l-2.01-1.17c-.15-.08-.2-.27-.11-.42.08-.15.27-.2.42-.11l2.02,1.16c.15.09.2.27.11.42-.05.1-.16.15-.27.15Z"/>
      <path class="cls-2" d="M31.12,1.81c-.05,0-.11-.02-.15-.04l-1.98-1.14c-.15-.08-.2-.27-.11-.42.09-.15.27-.2.42-.11l1.98,1.14c.15.09.2.27.11.42-.06.1-.16.15-.27.15Z"/>
    </g>
  </g>
</svg>