<?xml version="1.0" encoding="UTF-8"?>
<svg id="Layer_2" data-name="Layer 2" xmlns="http://www.w3.org/2000/svg" viewBox="0 0 49.09 42.52" fill="currentColor">
  <defs>
    <style>
      .cls-1 {
        fill: #fff;
      }

      .cls-1, .cls-2, .cls-3, .cls-4 {
        fill-rule: evenodd;
      }

      .cls-2 {
        fill: #1a87c7;
      }

      .cls-3 {
        fill: #bdedf8;
      }

      .cls-4 {
        fill: #66ceef;
      }
    </style>
  </defs>
  <g id="_Layer_" data-name="&amp;lt;Layer&amp;gt;">
    <g>
      <polygon class="cls-3" points="47.99 24.55 27.98 13 .31 28.97 20.31 40.52 47.99 24.55"/>
      <path class="cls-2" d="M.93,28.97l19.39,11.19,27.06-15.61-19.39-11.19L.93,28.97h0ZM20.31,40.82c-.05,0-.1-.02-.15-.04L.16,29.23c-.1-.05-.15-.16-.15-.26,0-.11.06-.22.15-.27l27.67-15.96c.09-.06.21-.06.31,0l20.01,11.54c.09.06.15.16.15.27s-.06.21-.15.27l-27.67,15.96s-.1.04-.15.04Z"/>
      <polygon class="cls-4" points="20.31 40.52 .31 28.97 .31 30.66 20.31 42.21 20.31 40.52"/>
      <path class="cls-2" d="M.62,30.48l19.39,11.19v-.98S.62,29.5.62,29.5v.98h0ZM20.31,42.52c-.05,0-.11-.02-.15-.04L.15,30.93c-.1-.06-.15-.16-.15-.27v-1.7c0-.11.06-.22.16-.27.09-.05.21-.05.31,0l20,11.55c.1.05.15.16.15.27v1.69c0,.11-.06.21-.16.26-.05.02-.1.04-.15.04Z"/>
      <polygon class="cls-3" points="20.31 42.21 47.99 26.25 47.99 24.55 20.31 40.52 20.31 42.21"/>
      <path class="cls-2" d="M20.62,40.69v.98s27.06-15.6,27.06-15.6v-.99l-27.06,15.61h0ZM20.31,42.52c-.05,0-.11-.02-.15-.04-.1-.05-.15-.16-.15-.26v-1.69c0-.11.06-.22.16-.27l27.67-15.97c.1-.05.21-.05.31,0,.09.06.15.16.15.27v1.7c0,.11-.06.21-.16.27l-27.67,15.96s-.1.04-.15.04Z"/>
      <polygon class="cls-4" points="20.26 37.1 7.12 29.51 7.13 12.88 20.27 20.48 20.26 37.1"/>
      <path class="cls-2" d="M7.42,29.34l12.53,7.23v-15.92s-12.52-7.23-12.52-7.23v15.93h-.01ZM20.26,37.42c-.05,0-.11-.02-.15-.04l-13.14-7.59c-.1-.05-.15-.16-.15-.27V12.88c.01-.1.07-.21.16-.26.1-.05.21-.06.31,0l13.14,7.59c.1.05.16.16.16.27v16.63c-.01.11-.07.22-.17.27-.05.03-.1.04-.15.04Z"/>
      <polygon class="cls-1" points="20.26 37.1 20.27 20.47 42.08 7.9 42.07 24.53 20.26 37.1"/>
      <path class="cls-2" d="M20.58,20.65v15.92s21.18-12.22,21.18-12.22v-15.92s-21.18,12.22-21.18,12.22h0ZM20.26,37.42c-.05,0-.11-.02-.15-.04-.1-.05-.16-.16-.16-.27v-16.63c.01-.11.07-.21.16-.26l21.81-12.58c.09-.05.21-.05.31,0,.09.05.16.16.16.27v16.63c-.01.1-.07.21-.17.26l-21.81,12.58s-.1.04-.15.04Z"/>
      <polygon class="cls-1" points="28.94 .31 42.08 7.9 40.96 8.54 28.94 1.59 28.94 .31"/>
      <path class="cls-2" d="M29.24,1.41l11.72,6.77.5-.29L29.24.84v.58h0ZM40.96,8.84c-.05,0-.1-.02-.15-.04L28.78,1.86c-.09-.05-.15-.16-.15-.26V.31c0-.11.06-.22.15-.27.1-.05.21-.05.31,0l13.14,7.59c.1.05.15.16.15.27,0,.1-.06.21-.15.26l-1.11.64s-.1.04-.16.04Z"/>
      <polygon class="cls-1" points="8.24 13.53 7.13 12.88 28.94 .31 28.94 1.59 8.24 13.53"/>
      <path class="cls-2" d="M7.74,12.89l.5.29L28.63,1.41v-.58L7.74,12.89h0ZM8.24,13.83c-.05,0-.11-.02-.15-.04l-1.11-.65c-.09-.05-.15-.16-.15-.27,0-.1.06-.21.15-.26L28.78.04c.1-.05.21-.05.31,0,.09.05.15.16.15.27v1.29c0,.11-.06.21-.15.26L8.39,13.79s-.1.04-.15.04Z"/>
      <polygon class="cls-3" points="20.27 20.47 8.24 13.52 28.95 1.62 41.09 8.45 20.27 20.47"/>
      <path class="cls-2" d="M8.86,13.53l11.41,6.59,20.2-11.66L28.95,1.97,8.86,13.53h0ZM20.27,20.78c-.05,0-.11-.02-.15-.04l-12.03-6.95c-.1-.05-.15-.16-.15-.27,0-.11.06-.21.15-.26L28.8,1.35c.09-.05.21-.05.31,0l12.14,6.83c.1.05.16.16.16.26,0,.11-.06.21-.15.27l-20.82,12.02s-.1.04-.15.04Z"/>
      <polygon class="cls-4" points="29.05 7.71 26.44 6.2 26.44 4.25 29.05 5.76 29.05 7.71"/>
      <path class="cls-2" d="M26.75,6.02l1.99,1.15v-1.23l-1.99-1.15v1.23h0ZM29.05,8.02c-.05,0-.11-.02-.15-.04l-2.61-1.5c-.09-.06-.15-.16-.15-.27v-1.95c0-.11.06-.21.15-.27.1-.05.21-.05.31,0l2.61,1.5c.1.05.16.15.16.26v1.95c0,.11-.06.21-.16.27-.05.03-.1.04-.15.04Z"/>
      <polygon class="cls-3" points="29.05 5.76 26.44 4.25 28.94 2.79 31.57 4.31 29.05 5.76"/>
      <path class="cls-2" d="M27.06,4.25l2,1.16,1.9-1.11-2.02-1.16-1.88,1.11h0ZM29.05,6.07c-.05,0-.11-.02-.15-.04l-2.61-1.5c-.09-.05-.15-.16-.15-.27,0-.1.06-.21.15-.26l2.49-1.48c.09-.05.21-.05.31,0l2.64,1.53c.1.05.16.15.16.26,0,.11-.06.22-.16.27l-2.52,1.45s-.1.04-.15.04Z"/>
      <polygon class="cls-1" points="29.05 5.76 31.57 4.31 31.57 6.25 29.05 7.71 29.05 5.76"/>
      <path class="cls-2" d="M29.36,5.94v1.23s1.9-1.1,1.9-1.1v-1.23l-1.9,1.09h0ZM29.05,8.02c-.05,0-.11-.02-.15-.04-.09-.06-.15-.15-.15-.27v-1.95c0-.1.06-.21.16-.26l2.52-1.45c.1-.06.21-.06.31,0,.1.05.15.15.15.26v1.95c0,.11-.06.21-.16.27l-2.52,1.45s-.1.04-.15.04Z"/>
      <polygon class="cls-4" points="24.01 10.61 21.4 9.11 21.4 7.17 24.01 8.67 24.01 10.61"/>
      <path class="cls-2" d="M21.71,8.93l1.99,1.15v-1.23l-1.99-1.15v1.23h0ZM24.01,10.92c-.05,0-.11-.02-.16-.04l-2.61-1.51c-.1-.05-.15-.15-.15-.27v-1.94c0-.11.06-.22.15-.27.1-.05.21-.05.31,0l2.61,1.5c.1.05.15.16.15.27v1.94c0,.12-.06.22-.15.27-.05.02-.1.04-.15.04Z"/>
      <polygon class="cls-3" points="24.01 8.67 21.4 7.17 23.89 5.69 26.53 7.22 24.01 8.67"/>
      <path class="cls-2" d="M22.01,7.16l2,1.16,1.9-1.1-2.02-1.17-1.88,1.11h0ZM24.01,8.98c-.05,0-.11-.01-.16-.03l-2.61-1.51c-.09-.05-.15-.16-.15-.26,0-.11.06-.22.15-.27l2.49-1.47c.09-.06.21-.06.31,0l2.64,1.52c.1.05.16.16.16.27,0,.1-.06.21-.16.26l-2.52,1.46s-.1.03-.15.03Z"/>
      <polygon class="cls-1" points="24.01 8.67 26.53 7.22 26.53 9.16 24.01 10.61 24.01 8.67"/>
      <path class="cls-2" d="M24.32,8.84v1.23l1.91-1.09v-1.23s-1.91,1.1-1.91,1.1h0ZM24.01,10.92c-.05,0-.11-.02-.16-.04-.1-.05-.15-.16-.15-.27v-1.94c0-.11.06-.22.15-.27l2.52-1.45c.09-.05.21-.05.31,0,.09.05.15.16.15.27v1.94c0,.11-.06.22-.16.27l-2.52,1.45s-.1.04-.15.04Z"/>
      <polygon class="cls-4" points="24.11 34.88 29.7 31.66 29.7 21.08 24.11 24.31 24.11 34.88"/>
      <path class="cls-2" d="M24.42,24.48v9.87s4.97-2.87,4.97-2.87v-9.87s-4.97,2.87-4.97,2.87h0ZM24.11,35.19c-.05,0-.11-.02-.15-.04-.1-.05-.15-.16-.15-.26v-10.58c0-.11.06-.22.16-.27l5.59-3.22c.09-.05.21-.05.31,0,.1.05.15.16.15.27v10.58c0,.11-.06.21-.16.27l-5.58,3.22s-.1.04-.15.04Z"/>
      <path class="cls-3" d="M39.73,16.68v6.31s-.03.09-.07.12l-6.45,3.72s-.07,0-.07-.04v-6.31s.03-.1.07-.11l6.45-3.73s.07,0,.07.04Z"/>
      <path class="cls-2" d="M39.51,22.84h0,0ZM33.45,20.58v5.75l5.97-3.44v-5.76l-5.97,3.45h0ZM33.18,27.14c-.06,0-.12-.02-.17-.05-.11-.06-.17-.17-.17-.31v-6.31c0-.15.09-.3.22-.38l6.45-3.72c.09-.06.26-.06.36,0,.11.06.17.18.17.31v6.31c0,.15-.09.31-.23.38l-6.45,3.73c-.05.03-.12.05-.19.05Z"/>
      <polygon class="cls-1" points="23.43 17.53 23.01 17.28 23.45 17.02 23.89 17.27 23.43 17.53"/>
      <path class="cls-2" d="M23.43,17.83c-.05,0-.11,0-.16-.03l-.42-.25c-.09-.05-.15-.15-.15-.26,0-.1.06-.21.15-.26l.44-.28c.1-.05.22-.06.31,0l.44.25c.09.05.15.15.15.27,0,.1-.06.21-.15.26l-.46.27s-.1.03-.15.03Z"/>
      <polygon class="cls-1" points="24.32 17.04 25.18 16.54 25.18 17.68 24.32 18.18 24.32 17.04"/>
      <path class="cls-2" d="M24.63,17.22v.43s.24-.15.24-.15v-.42l-.24.14h0ZM24.32,18.48c-.05,0-.11,0-.15-.03-.09-.06-.15-.16-.15-.27v-1.14c0-.11.06-.21.16-.27l.86-.5c.09-.05.21-.05.31,0,.1.05.15.15.15.27v1.14c0,.11-.06.21-.15.27l-.86.5s-.1.03-.15.03Z"/>
      <polygon class="cls-1" points="37.64 9.3 38.5 8.8 38.5 9.94 37.64 10.43 37.64 9.3"/>
      <path class="cls-2" d="M37.95,9.48v.43l.24-.14v-.43l-.24.15h0ZM37.64,10.75c-.05,0-.1-.02-.15-.05-.1-.05-.15-.16-.15-.27v-1.14c0-.11.06-.21.15-.27l.86-.5c.09-.05.21-.05.31,0,.1.06.16.15.16.27v1.14c0,.11-.06.22-.16.27l-.86.5s-.1.05-.16.05Z"/>
      <polygon class="cls-1" points="22.77 12.97 39.45 3.35 39.45 8.3 22.77 17.94 22.77 12.97"/>
      <path class="cls-2" d="M23.08,13.16v4.24s16.05-9.26,16.05-9.26V3.89s-16.05,9.27-16.05,9.27h0ZM22.77,18.24c-.05,0-.11-.02-.15-.04-.1-.05-.15-.16-.15-.26v-4.96c0-.1.06-.21.16-.26L39.29,3.09c.09-.06.21-.06.31,0,.1.05.15.16.15.26v4.95c0,.11-.06.22-.15.27l-16.67,9.62s-.1.04-.15.04Z"/>
      <polygon class="cls-3" points="20.27 20.48 41.99 7.93 48.78 14.6 27.06 27.14 20.27 20.48"/>
      <path class="cls-2" d="M20.77,20.53l6.34,6.22,21.16-12.22-6.34-6.22-21.17,12.22h0ZM27.06,27.45c-.08,0-.16-.04-.22-.1l-6.79-6.67c-.07-.07-.1-.17-.09-.26.01-.1.07-.18.15-.23l21.72-12.54c.12-.07.27-.05.37.04l6.79,6.67c.07.07.1.17.09.26-.01.09-.07.17-.15.23l-21.72,12.54s-.1.04-.15.04Z"/>
      <polygon class="cls-3" points="20.27 20.48 27.06 27.14 20.26 22.85 20.27 20.48"/>
      <path class="cls-2" d="M20.57,22.67l4.21,2.67-4.21-4.14v1.47h0ZM27.06,27.45c-.06,0-.11-.02-.17-.05l-6.8-4.3c-.09-.05-.14-.15-.14-.26v-2.37c0-.12.08-.24.2-.28.11-.05.25-.03.33.06l6.79,6.67c.11.11.12.29.03.41-.06.08-.15.12-.24.12Z"/>
      <polygon class="cls-1" points="22.24 19.33 24.22 18.19 31.01 24.86 29.04 26 22.24 19.33"/>
      <path class="cls-2" d="M22.75,19.4l6.34,6.22,1.42-.83-6.34-6.23-1.42.83h0ZM29.04,26.31c-.08,0-.16-.03-.22-.09l-6.79-6.67c-.07-.07-.1-.17-.09-.26.01-.1.07-.18.15-.23l1.97-1.14c.12-.08.27-.05.37.04l6.79,6.67c.07.06.1.16.09.25-.01.1-.07.18-.15.23l-1.97,1.14s-.1.03-.15.03Z"/>
      <polygon class="cls-1" points="26.19 17.05 28.17 15.91 34.96 22.59 32.99 23.73 26.19 17.05"/>
      <path class="cls-2" d="M26.7,17.11l6.34,6.22,1.42-.82-6.34-6.22-1.42.82h0ZM32.99,24.03c-.08,0-.16-.03-.22-.09l-6.79-6.67c-.07-.06-.1-.16-.09-.25.01-.1.07-.18.15-.24l1.97-1.14c.12-.07.27-.05.37.05l6.79,6.67c.07.07.1.17.09.26-.01.1-.07.18-.15.22l-1.97,1.14s-.1.05-.15.05Z"/>
      <polygon class="cls-1" points="30.14 14.77 32.12 13.63 38.91 20.3 36.93 21.44 30.14 14.77"/>
      <path class="cls-2" d="M30.65,14.83l6.34,6.22,1.42-.82-6.34-6.22-1.42.82h0ZM36.93,21.75c-.08,0-.16-.04-.21-.09l-6.79-6.67c-.07-.07-.1-.17-.09-.26.01-.09.07-.17.15-.23l1.97-1.14c.12-.07.27-.05.37.04l6.79,6.68c.07.07.1.16.09.26-.01.1-.07.17-.15.23l-1.97,1.14s-.1.05-.16.05Z"/>
      <polygon class="cls-1" points="34.09 12.49 36.06 11.35 42.86 18.02 40.88 19.16 34.09 12.49"/>
      <path class="cls-2" d="M34.59,12.56l6.34,6.22,1.42-.83-6.34-6.22-1.42.82h0ZM40.88,19.47c-.08,0-.16-.03-.21-.09l-6.79-6.67c-.07-.07-.1-.17-.09-.26.01-.1.07-.18.15-.23l1.97-1.14c.12-.08.27-.05.37.05l6.79,6.67c.07.06.1.16.09.25-.01.09-.07.18-.15.23l-1.97,1.15s-.1.03-.16.03Z"/>
      <polygon class="cls-1" points="38.04 10.21 40.01 9.07 46.81 15.75 44.83 16.89 38.04 10.21"/>
      <path class="cls-2" d="M38.54,10.27l6.34,6.22,1.42-.81-6.33-6.22-1.42.82h0ZM44.83,17.19c-.08,0-.16-.03-.21-.09l-6.79-6.68c-.07-.06-.1-.16-.09-.25.01-.1.07-.18.15-.24l1.97-1.14c.12-.07.27-.05.37.05l6.79,6.67c.07.07.1.17.09.26-.01.09-.07.18-.15.22l-1.97,1.14s-.1.05-.16.05Z"/>
      <path class="cls-2" d="M37.98,7.22c-.1,0-.2-.05-.26-.13l-.72-1.08c-.09-.14-.06-.33.08-.43.14-.1.33-.06.43.09l.72,1.07c.1.14.06.33-.08.43-.05.03-.11.05-.17.05Z"/>
      <path class="cls-2" d="M37.98,8.3c-.17,0-.31-.14-.31-.31v-1.07s0-.06.02-.1c.09-.31.22-.64.36-.98.12-.3.24-.62.33-.9.05-.17.23-.25.39-.2.16.05.25.22.2.38-.1.3-.22.63-.35.95-.12.3-.24.61-.33.89v1.03c0,.17-.14.31-.31.31Z"/>
      <path class="cls-2" d="M36.08,9.37c-.19,0-.36-.09-.5-.25-.18-.22-.26-.56-.26-1.04,0-.46.08-.88.22-1.23.15-.37.37-.64.64-.8.44-.25.72-.03.82.07.12.12.19.3.24.55.03.17-.08.33-.25.36-.17.03-.33-.08-.36-.24-.03-.17-.07-.22-.07-.23,0,0-.03,0-.08.03-.15.09-.28.25-.38.5-.11.28-.17.61-.17.99,0,.45.09.61.12.65.02.03.05.03.1-.01.11-.06.21-.16.29-.31.09-.17.15-.39.19-.66.02-.17.18-.29.35-.26.17.03.28.18.26.35-.05.35-.14.63-.26.86-.13.25-.31.43-.52.56-.13.08-.27.12-.39.12Z"/>
      <path class="cls-2" d="M31.63,11.96c-.17,0-.31-.14-.31-.31v-2.56c0-.16.11-.28.26-.3.15-.03.29.06.34.2l.39,1.13.48-1.95c.04-.15.17-.25.34-.22.15.02.27.15.27.3v2.57c0,.17-.14.3-.31.3s-.31-.13-.31-.3v-.02l-.12.49c-.03.13-.15.23-.28.24-.14-.01-.26-.08-.3-.21l-.13-.37v.72c0,.17-.14.31-.31.31Z"/>
      <path class="cls-2" d="M29.65,13.1c-.17,0-.31-.14-.31-.3v-2.56c0-.11.06-.22.16-.27l.64-.37c.22-.12.37-.18.52-.18.11,0,.32.05.44.32.07.13.1.3.1.5,0,.23-.04.45-.12.65-.04.09-.09.19-.15.27.05.08.11.19.18.33l.18.39c.07.16,0,.34-.15.41-.15.08-.34,0-.41-.14l-.19-.4c-.09-.19-.13-.24-.14-.25-.1-.04-.19-.15-.21-.26-.02-.1,0-.22.09-.29.09-.07.16-.17.21-.29.05-.12.08-.26.08-.42,0-.08,0-.13-.02-.17-.03,0-.07.03-.12.06l-.49.28v2.39c0,.16-.14.3-.31.3Z"/>
      <path class="cls-2" d="M27.86,13.12c-.11,0-.21-.06-.27-.15-.09-.15-.03-.34.11-.42l1.01-.59c.15-.08.34-.03.42.11.09.15.04.34-.11.42l-1.02.59s-.1.04-.15.04Z"/>
      <path class="cls-2" d="M27.6,14.29s-.04,0-.06-.01c-.16-.03-.27-.19-.24-.36l.59-2.9c.02-.09.07-.17.15-.21l.32-.19c.08-.04.18-.05.27-.02.09.04.16.11.18.21l.6,2.22c.05.16-.05.33-.22.37-.17.05-.33-.05-.38-.22l-.43-1.56-.49,2.42c-.03.14-.16.24-.3.24Z"/>
      <path class="cls-2" d="M25.75,15.36c-.17,0-.31-.14-.31-.3v-2.57c0-.17.14-.3.31-.3s.31.13.31.3v2.57c0,.16-.14.3-.31.3Z"/>
      <path class="cls-2" d="M25.77,14.22c-.11,0-.21-.05-.27-.15-.09-.15-.03-.34.11-.43l1.18-.68c.14-.08.34-.04.42.11.08.15.03.34-.11.42l-1.18.68s-.1.03-.15.03Z"/>
      <path class="cls-2" d="M26.95,14.66c-.17,0-.31-.14-.31-.3v-2.56c0-.17.14-.31.31-.31s.31.14.31.31v2.56c0,.17-.14.3-.31.3Z"/>
      <path class="cls-2" d="M24.27,13.69v.89l.04-.03c.19-.11.27-.17.36-.31.04-.07.07-.16.1-.26.03-.1.04-.22.04-.35,0-.11-.01-.19-.02-.23-.04.02-.1.05-.18.1l-.34.19h0ZM23.96,16.39c-.17,0-.31-.14-.31-.3v-.97h0v-1.6c0-.11.06-.22.15-.27l.49-.28c.28-.16.39-.21.48-.22.22-.03.39.08.52.27.09.15.13.35.13.61,0,.19-.02.36-.06.51-.04.16-.1.29-.16.4-.16.29-.35.41-.59.55l-.35.2v.79c0,.17-.14.3-.31.3Z"/>
      <path class="cls-2" d="M34.08,9.53c-.11,0-.21-.06-.27-.16-.08-.15-.04-.34.11-.42l.98-.57c.14-.08.34-.03.42.12.08.15.03.33-.11.42l-.98.57s-.1.04-.15.04Z"/>
      <path class="cls-2" d="M33.79,10.71s-.04,0-.06,0c-.17-.03-.27-.19-.24-.36l.59-2.9c.02-.09.07-.16.15-.21l.32-.19c.08-.04.18-.05.27-.02.09.04.16.11.18.21l.6,2.22c.05.17-.05.33-.22.37-.16.05-.33-.05-.38-.22l-.43-1.56-.49,2.41c-.03.15-.16.24-.3.24Z"/>
      <path class="cls-2" d="M29.64,11.97c-.11,0-.21-.05-.27-.15-.08-.15-.03-.33.11-.42l.84-.48c.14-.09.33-.03.42.11.08.15.03.34-.11.42l-.84.49s-.1.04-.15.04Z"/>
      <path class="cls-3" d="M12.84,27.99l1.71.99c.1.05.18,0,.18-.11v-2.09l1.81,1.05c.1.06.18.02.18-.11v-1.97c0-.12-.08-.25-.18-.31l-1.81-1.04v-2.09c0-.11-.08-.26-.18-.31l-1.71-.99c-.1-.05-.18,0-.18.11v2.09l-1.81-1.04c-.1-.05-.18,0-.18.11v1.97c0,.12.08.26.18.32l1.81,1.04v2.09c0,.11.08.25.18.31Z"/>
      <path class="cls-2" d="M10.97,22.59v1.64l1.84,1.09c.1.05.15.16.15.27v2.09l.03.04,1.43.83v-1.77c0-.1.06-.21.15-.26.1-.06.21-.06.31,0l1.53.88v-1.65l-1.84-1.09c-.1-.06-.15-.16-.15-.27v-2.09l-1.46-.87v1.76c0,.11-.06.22-.15.27-.09.05-.21.05-.31,0l-1.53-.88h0ZM14.7,28.72h0,0ZM14.63,29.31c-.08,0-.16-.03-.23-.07l-1.71-.98c-.2-.11-.34-.36-.34-.58v-1.91l-1.65-.96c-.2-.11-.34-.36-.34-.58v-1.97c0-.17.08-.3.21-.38.13-.07.3-.07.44.02l1.35.77v-1.56c0-.17.08-.3.21-.38.13-.08.29-.07.43.02l1.71.98c.19.11.34.36.34.58v1.91l1.65.95c.19.11.34.36.34.58v1.97c0,.17-.08.31-.21.39-.13.07-.29.07-.44-.02l-1.35-.77v1.55c0,.17-.08.31-.21.39-.06.03-.13.05-.2.05Z"/>
    </g>
  </g>
</svg>