<?xml version="1.0" encoding="UTF-8"?>
<svg id="Layer_2" data-name="Layer 2" xmlns="http://www.w3.org/2000/svg" viewBox="0 0 21.4 42.43" fill="currentColor">
  <defs>
    <style>
      .cls-1 {
        fill: #fff;
      }

      .cls-1, .cls-2, .cls-3, .cls-4 {
        fill-rule: evenodd;
      }

      .cls-2 {
        fill: #1a87c7;
      }

      .cls-3, .cls-5 {
        fill: #bdedf8;
      }

      .cls-4 {
        fill: #66ceef;
      }
    </style>
  </defs>
  <g id="_Layer_" data-name="&amp;lt;Layer&amp;gt;">
    <g>
      <path class="cls-1" d="M6.05,3.81h9.27v13s4.41,4.78,4.41,4.78c.86.92,1.3,1.94,1.32,2.94h.02v11.27c0,8.62-20.77,8.09-20.77.37v-11.65h0c.01-.99.44-1.99,1.29-2.9l4.46-4.82-.02-13Z"/>
      <path class="cls-2" d="M.62,24.6v11.58c0,2.12,1.69,3.42,3.1,4.16,1.85.94,4.42,1.48,7.04,1.48,4.82,0,10-1.88,10-6.01v-11.17s-.02-.06-.02-.1c-.02-.94-.44-1.88-1.24-2.74l-4.42-4.78c-.05-.05-.08-.13-.08-.21V4.12s-8.65,0-8.65,0l.02,12.69c0,.07-.03.15-.08.21l-4.46,4.82c-.78.84-1.2,1.77-1.21,2.69,0,.03,0,.05-.01.07h0ZM10.76,42.43c-2.76,0-5.36-.55-7.32-1.55-2.25-1.15-3.44-2.77-3.44-4.7v-11.65s0-.05.01-.08c.03-1.05.51-2.1,1.37-3.04l4.38-4.72-.02-12.88c0-.08.03-.15.09-.22.06-.05.14-.09.22-.09h9.27c.08,0,.16.03.22.09.06.06.09.14.09.22v12.89s4.33,4.68,4.33,4.68c.87.94,1.35,1.98,1.4,3.03.02.03.02.07.02.11v11.27c0,4.57-5.33,6.62-10.62,6.62Z"/>
      <path class="cls-3" d="M3.36,29.92c4.06-2.46,10.63-2.46,14.69,0,4.06,2.47,4.06,6.47,0,8.93-4.06,2.47-10.64,2.47-14.7,0-4.06-2.46-4.06-6.46,0-8.93Z"/>
      <path class="cls-2" d="M3.36,29.92h0,0ZM10.7,28.38c-2.6,0-5.21.6-7.19,1.81h0c-1.87,1.13-2.9,2.63-2.9,4.2s1.03,3.07,2.89,4.2c3.97,2.41,10.42,2.41,14.38,0,1.87-1.13,2.89-2.62,2.89-4.2s-1.03-3.07-2.9-4.2c-1.98-1.21-4.58-1.81-7.19-1.81h0ZM10.7,41c-2.72,0-5.44-.63-7.51-1.89-2.06-1.25-3.19-2.93-3.19-4.73s1.13-3.48,3.2-4.73c4.14-2.51,10.88-2.51,15.01,0,2.06,1.25,3.19,2.93,3.19,4.73s-1.13,3.48-3.19,4.73c-2.07,1.25-4.79,1.89-7.51,1.89Z"/>
      <path class="cls-3" d="M19.82,25.31v9.07H1.56v-9.2c-.15-1.46.74-2.94,2.67-4.07,3.58-2.06,9.37-2.06,12.94,0,1.99,1.15,2.87,2.69,2.65,4.19Z"/>
      <path class="cls-2" d="M1.87,34.07h17.64v-8.76s0-.03,0-.04c.21-1.42-.7-2.84-2.5-3.87-3.48-2.01-9.15-2.01-12.63,0-1.74,1.01-2.66,2.38-2.51,3.76v8.92h0ZM19.82,34.69H1.56c-.08,0-.16-.03-.22-.09-.06-.06-.09-.14-.09-.22v-9.2c-.17-1.61.86-3.2,2.82-4.33,3.65-2.11,9.6-2.11,13.25,0,2.02,1.17,3.04,2.79,2.8,4.48v9.05c0,.17-.14.3-.31.3Z"/>
      <path class="cls-3" d="M15.81,3.32c1.35,1.32,1.05,3.04-.91,4.17-2.32,1.34-6.26,1.23-8.4,0-2.14-1.23-2.26-2.85-.91-4.17-.36.97-.26,1.82,1.41,2.78,1.67.96,5.72.96,7.4,0,1.67-.96,1.77-1.81,1.41-2.78Z"/>
      <path class="cls-2" d="M5.14,4.49c-.11.28-.15.55-.11.82.09.69.65,1.37,1.63,1.93,2.12,1.22,5.97,1.22,8.09,0,.92-.54,1.48-1.23,1.57-1.95.03-.25,0-.5-.07-.74-.15.67-.7,1.24-1.7,1.82-1.76,1.02-5.94,1.02-7.7,0-1.03-.59-1.58-1.18-1.71-1.88h0ZM10.7,8.77c-1.6,0-3.19-.34-4.35-1.01-1.15-.66-1.82-1.49-1.93-2.38-.1-.78.23-1.57.96-2.28.1-.1.26-.12.38-.04.12.08.17.23.12.37-.27.72-.37,1.44,1.28,2.4,1.59.92,5.5.92,7.09,0,1.65-.96,1.55-1.68,1.28-2.4-.05-.14,0-.29.12-.37.12-.08.28-.07.38.04.68.66,1,1.46.9,2.25-.11.92-.78,1.77-1.87,2.41-1.16.67-2.76,1.01-4.35,1.01Z"/>
      <path class="cls-3" d="M6.48,1.31C8.81-.03,12.58-.03,14.9,1.31c2.33,1.34,2.33,3.52,0,4.86-2.33,1.35-6.1,1.35-8.43,0-2.33-1.34-2.32-3.52,0-4.86Z"/>
      <path class="cls-2" d="M6.64,1.57c-1.03.59-1.59,1.37-1.59,2.16s.56,1.57,1.59,2.17c2.24,1.29,5.88,1.29,8.12,0,1.02-.6,1.59-1.36,1.59-2.17s-.57-1.57-1.59-2.16C12.52.29,8.87.29,6.64,1.57h0ZM10.69,7.48c-1.58,0-3.16-.35-4.37-1.04-1.22-.7-1.9-1.67-1.9-2.7s.67-1.99,1.9-2.69h0c2.41-1.39,6.32-1.39,8.73,0,1.23.7,1.9,1.66,1.9,2.69s-.67,2-1.9,2.7c-1.2.7-2.78,1.04-4.37,1.04Z"/>
      <path class="cls-1" d="M7.35,1.96c1.85-.99,4.84-.99,6.69,0,1.85.98,1.85,2.59,0,3.57-1.85.99-4.84.99-6.69,0-1.85-.98-1.84-2.59,0-3.57Z"/>
      <path class="cls-2" d="M10.69,1.51c-1.16,0-2.32.24-3.2.71-.79.42-1.22.96-1.22,1.51s.43,1.1,1.22,1.52c1.76.94,4.63.94,6.4,0,.79-.42,1.22-.96,1.22-1.52s-.43-1.09-1.22-1.51c-.88-.47-2.04-.71-3.2-.71h0ZM10.69,6.57c-1.26,0-2.53-.25-3.49-.77-1-.53-1.55-1.26-1.55-2.06,0-.79.55-1.52,1.55-2.06,1.92-1.02,5.05-1.02,6.97,0,1,.54,1.55,1.27,1.55,2.06s-.55,1.53-1.55,2.06c-.96.52-2.23.77-3.49.77Z"/>
      <path class="cls-2" d="M7.02,17.46c-.17,0-.31-.14-.31-.3V7.75c0-.16.14-.3.31-.3s.31.14.31.3v9.41c0,.16-.14.3-.31.3Z"/>
      <path class="cls-2" d="M14.39,17.46c-.17,0-.31-.14-.31-.3V7.75c0-.16.14-.3.31-.3s.31.14.31.3v9.41c0,.16-.14.3-.31.3Z"/>
      <path class="cls-2" d="M2.59,22.74c-.07,0-.14-.03-.2-.08-.13-.11-.14-.3-.03-.43l4.53-5.18c.11-.12.31-.14.44-.03.13.11.14.3.03.43l-4.53,5.18c-.06.07-.15.11-.23.11Z"/>
      <path class="cls-4" d="M4.23,30.65c3.58-2.06,9.37-2.07,12.94,0,3.57,2.06,3.58,5.4,0,7.48-3.57,2.06-9.37,2.06-12.95,0-3.58-2.07-3.57-5.42,0-7.48Z"/>
      <path class="cls-2" d="M4.39,30.92c-1.63.94-2.53,2.17-2.53,3.47s.9,2.53,2.53,3.47c3.49,2.01,9.15,2.01,12.64,0,1.63-.94,2.53-2.17,2.53-3.47s-.9-2.53-2.53-3.47c-3.48-2.01-9.15-2.02-12.63,0h0ZM10.7,39.97c-2.4,0-4.8-.53-6.63-1.58-1.83-1.06-2.83-2.48-2.83-4.01s1.01-2.95,2.84-4.01h0c3.65-2.1,9.6-2.1,13.25,0,1.83,1.06,2.83,2.48,2.83,4.01s-1.01,2.95-2.83,4.01c-1.83,1.05-4.23,1.58-6.62,1.58Z"/>
      <path class="cls-2" d="M4.39,21.39h0c-1.63.94-2.53,2.17-2.53,3.47s.9,2.53,2.53,3.47c3.49,2.01,9.15,2.01,12.64,0,1.63-.94,2.53-2.16,2.53-3.47s-.9-2.53-2.53-3.47c-3.48-2.01-9.15-2.01-12.63,0h0ZM10.7,30.45c-2.4,0-4.8-.53-6.63-1.58-1.83-1.06-2.83-2.48-2.83-4.01s1.01-2.95,2.84-4h0c3.65-2.11,9.6-2.11,13.25,0,1.83,1.05,2.83,2.48,2.83,4s-1.01,2.95-2.83,4.01c-1.83,1.05-4.23,1.58-6.62,1.58Z"/>
      <path class="cls-2" d="M18.82,22.74c-.09,0-.17-.04-.23-.11l-4.53-5.16c-.11-.12-.1-.32.03-.43.13-.12.32-.1.43.03l4.52,5.15c.11.13.1.32-.03.43-.06.05-.13.08-.2.08Z"/>
      <path class="cls-1" d="M8.1,18.49c1.44.73,3.77.73,5.21,0,1.44-.74,1.44-1.93,0-2.67-1.44-.73-3.77-.73-5.21,0-1.44.74-1.44,1.93,0,2.67Z"/>
      <path class="cls-2" d="M8.24,18.21c1.36.7,3.57.7,4.93,0,.58-.29.91-.68.91-1.05s-.33-.77-.91-1.06c-1.36-.69-3.57-.69-4.93,0-.58.3-.91.68-.91,1.06s.33.76.91,1.05h0ZM10.7,19.35c-.99,0-1.98-.2-2.75-.59-.8-.41-1.24-.98-1.24-1.6s.44-1.2,1.24-1.61c1.54-.79,3.95-.79,5.49,0,.8.41,1.25.98,1.25,1.61s-.44,1.19-1.25,1.6c-.77.39-1.76.59-2.75.59Z"/>
      <path class="cls-3" d="M6.54,33.2c.41,0,.75-.34.75-.76s-.34-.75-.75-.75-.75.34-.75.75.34.76.75.76Z"/>
      <path class="cls-2" d="M6.54,32c-.24,0-.44.2-.44.43s.2.44.44.44.44-.2.44-.44-.2-.43-.44-.43h0ZM6.54,33.5c-.58,0-1.06-.47-1.06-1.06s.47-1.05,1.06-1.05,1.06.47,1.06,1.05-.47,1.06-1.06,1.06Z"/>
      <path class="cls-3" d="M12.7,25.2c.61,0,1.1-.5,1.1-1.11s-.49-1.1-1.1-1.1-1.1.49-1.1,1.1.49,1.11,1.1,1.11Z"/>
      <path class="cls-2" d="M12.7,23.3c-.44,0-.79.36-.79.79s.35.79.79.79.79-.36.79-.79-.36-.79-.79-.79h0ZM12.7,25.5c-.78,0-1.41-.63-1.41-1.41s.63-1.41,1.41-1.41,1.41.63,1.41,1.41-.63,1.41-1.41,1.41Z"/>
      <circle class="cls-5" cx="9.23" cy="36.78" r=".27"/>
      <path class="cls-2" d="M9.23,36.75s-.04.02-.04.04l.04-.04h0ZM9.23,37.37c-.32,0-.58-.26-.58-.58s.26-.57.58-.57.58.25.58.57-.26.58-.58.58Z"/>
      <path class="cls-3" d="M12.31,35.1c.4,0,.71-.32.71-.71s-.32-.71-.71-.71-.71.32-.71.71.32.71.71.71Z"/>
      <path class="cls-2" d="M12.31,33.98c-.22,0-.4.18-.4.41s.18.4.4.4.41-.18.41-.4-.18-.41-.41-.41h0ZM12.31,35.4c-.56,0-1.02-.45-1.02-1.02s.46-1.02,1.02-1.02,1.02.46,1.02,1.02-.46,1.02-1.02,1.02Z"/>
      <path class="cls-3" d="M16.37,33.28c.53,0,.96-.43.96-.96s-.43-.96-.96-.96-.96.43-.96.96.43.96.96.96Z"/>
      <path class="cls-2" d="M16.37,31.67c-.36,0-.65.3-.65.65s.29.65.65.65.65-.3.65-.65-.29-.65-.65-.65h0ZM16.37,33.59c-.7,0-1.26-.57-1.26-1.26s.57-1.26,1.26-1.26,1.26.56,1.26,1.26-.57,1.26-1.26,1.26Z"/>
      <path class="cls-3" d="M6.52,23.11c.43,0,.78-.35.78-.77s-.35-.78-.78-.78-.78.35-.78.78.35.77.78.77Z"/>
      <path class="cls-2" d="M6.52,21.87c-.26,0-.47.21-.47.47s.21.47.47.47.47-.22.47-.47-.21-.47-.47-.47h0ZM6.52,23.42c-.6,0-1.08-.49-1.08-1.09s.49-1.08,1.08-1.08,1.08.48,1.08,1.08-.48,1.09-1.08,1.09Z"/>
      <path class="cls-3" d="M17.58,25.54c.16,0,.29-.13.29-.3,0-.15-.13-.29-.29-.29s-.29.13-.29.29c0,.17.13.3.29.3Z"/>
      <path class="cls-2" d="M17.58,25.23s-.02,0-.02.02l.02-.02h0ZM17.58,25.85c-.33,0-.6-.27-.6-.6s.27-.6.6-.6.6.27.6.6-.27.6-.6.6Z"/>
      <path class="cls-3" d="M8.21,27.15c.17,0,.31-.15.31-.31s-.14-.31-.31-.31-.31.14-.31.31.14.31.31.31Z"/>
      <path class="cls-2" d="M8.21,26.83h0,0ZM8.21,27.45c-.34,0-.62-.28-.62-.62s.28-.62.62-.62.62.28.62.62-.28.62-.62.62Z"/>
      <path class="cls-1" d="M8.1,5.72c1.44.73,3.77.74,5.21,0,1.44-.74,1.44-1.93,0-2.66-1.44-.74-3.77-.74-5.21,0-1.44.73-1.44,1.92,0,2.66Z"/>
      <path class="cls-2" d="M8.24,5.44c1.36.69,3.57.69,4.93,0,.58-.3.91-.68.91-1.05s-.33-.77-.91-1.06c-1.36-.7-3.57-.7-4.93,0-.58.29-.91.69-.91,1.06s.33.75.91,1.05h0ZM10.7,6.58c-.99,0-1.98-.19-2.75-.59-.8-.41-1.24-.97-1.24-1.6s.44-1.2,1.24-1.61c1.54-.78,3.95-.78,5.49,0,.8.41,1.25.98,1.25,1.61s-.44,1.19-1.25,1.6c-.77.4-1.76.59-2.75.59Z"/>
    </g>
  </g>
</svg>