<?xml version="1.0" encoding="UTF-8"?>
<svg id="Layer_2" data-name="Layer 2" xmlns="http://www.w3.org/2000/svg" viewBox="0 0 42.29 36.79" fill="currentColor">
  <defs>
    <style>
      .cls-1 {
        fill: #fff;
      }

      .cls-1, .cls-2, .cls-3 {
        fill-rule: evenodd;
      }

      .cls-2 {
        fill: #1a87c7;
      }

      .cls-3 {
        fill: #bdedf8;
      }
    </style>
  </defs>
  <g id="_Layer_" data-name="&amp;lt;Layer&amp;gt;">
    <g>
      <path class="cls-3" d="M.31,21.78c0,4.17-.02,6.6,4.02,9.79,11.7,9.2,37.4,4.7,37.65-7.1v-2.68c-.4,9.4-14.72,12.42-22.84,11.97-6.77-.37-18.49-3.57-18.83-11.98Z"/>
      <path class="cls-2" d="M.7,24.96c.22,2.37,1.01,4.16,3.82,6.36,7.94,6.25,21.68,5.95,29.85,2.09,4.49-2.12,7.07-5.18,7.29-8.64-.55,1.36-1.44,2.61-2.68,3.74-4.75,4.3-13.62,5.89-19.86,5.55-5.62-.31-15.67-2.65-18.41-9.11h0ZM20.84,36.79c-6.07,0-12.26-1.5-16.7-4.99C0,28.55,0,26.03,0,21.85,0,21.84,0,21.83,0,21.82c0-.01,0-.03,0-.04h0c.03-.14.15-.28.3-.28h.01c.16,0,.3.09.3.25.32,7.84,11.26,11.28,18.54,11.69,6.31.35,15-1.39,19.41-5.4,1.96-1.77,3.01-3.89,3.1-6.27,0-.16.14-.3.31-.3h0c.17,0,.3.14.3.3v2.68c-.08,3.83-2.8,7.22-7.65,9.5-3.79,1.79-8.75,2.83-13.8,2.83Z"/>
      <path class="cls-1" d="M6.4,30.28c8.13,4.7,21.33,4.7,29.47,0,8.14-4.7,8.15-12.32.01-17.02-8.14-4.7-21.33-4.7-29.47-.01-8.14,4.7-8.15,12.32-.01,17.02Z"/>
      <path class="cls-2" d="M21.14,10.06c-5.28,0-10.55,1.16-14.57,3.48C2.73,15.75.62,18.68.62,21.78c0,3.1,2.11,6.02,5.94,8.24h0c8.04,4.64,21.12,4.65,29.16.01,3.84-2.22,5.95-5.15,5.95-8.24,0-3.1-2.11-6.02-5.94-8.24-4.02-2.32-9.3-3.49-14.59-3.49h0ZM21.14,34.11c-5.39,0-10.79-1.19-14.89-3.57C2.22,28.22,0,25.11,0,21.78,0,18.45,2.22,15.33,6.26,13.01c8.21-4.75,21.57-4.74,29.78,0,4.03,2.33,6.25,5.44,6.25,8.77,0,3.33-2.23,6.44-6.26,8.77-4.1,2.37-9.49,3.55-14.88,3.55Z"/>
      <path class="cls-3" d="M14.8,5.84c-2.05.85-3.9,2.1-5.45,3.65-1.55,1.55-2.8,3.4-3.64,5.45-.75,1.81-1.19,3.78-1.26,5.84.13,2.37,1.77,4.72,4.9,6.53,6.55,3.79,17.18,3.79,23.74.01,3.14-1.81,4.77-4.15,4.91-6.53-.07-2.07-.51-4.04-1.26-5.85-.85-2.05-2.1-3.9-3.65-5.45-1.55-1.55-3.4-2.8-5.45-3.65-1.98-.82-4.14-1.27-6.42-1.27s-4.44.45-6.42,1.27Z"/>
      <path class="cls-2" d="M14.8,5.84h0,0ZM21.22,4.88c-2.18,0-4.31.42-6.3,1.25h0c-2,.83-3.8,2.03-5.35,3.58-1.55,1.55-2.75,3.35-3.58,5.35-.75,1.82-1.17,3.75-1.24,5.75.13,2.33,1.82,4.55,4.75,6.25,6.46,3.73,16.97,3.73,23.43,0,2.93-1.69,4.62-3.92,4.76-6.28-.07-1.96-.48-3.89-1.24-5.72-.83-2-2.04-3.8-3.58-5.35-1.54-1.55-3.34-2.75-5.35-3.58-2-.83-4.12-1.25-6.3-1.25h0ZM21.22,30.46c-4.36,0-8.71-.96-12.03-2.88-3.11-1.8-4.91-4.2-5.05-6.77.07-2.1.5-4.1,1.29-5.99.86-2.08,2.11-3.95,3.71-5.55,1.6-1.61,3.47-2.85,5.55-3.71h0c4.15-1.72,8.93-1.72,13.08,0,2.08.86,3.95,2.1,5.55,3.71,1.6,1.6,2.85,3.47,3.71,5.55.78,1.89,1.22,3.89,1.28,5.95-.15,2.61-1.95,5.02-5.07,6.82-3.31,1.91-7.67,2.87-12.02,2.87Z"/>
      <path class="cls-1" d="M8.66,26.89c.22.15.45.29.68.42,6.55,3.79,17.18,3.79,23.74.01,3.14-1.81,4.77-4.15,4.91-6.53-.07-2.07-.51-4.04-1.26-5.85-.85-2.05-2.1-3.9-3.65-5.45-.87-.87-1.84-1.65-2.88-2.31-1.89-.73-3.96-1.13-6.13-1.13-9.04,0-16.37,6.98-16.37,15.6,0,1.83.34,3.6.95,5.24Z"/>
      <path class="cls-2" d="M8.91,26.7c.19.12.38.23.58.36,6.46,3.73,16.97,3.73,23.43,0,2.93-1.69,4.62-3.92,4.76-6.28-.07-1.96-.48-3.89-1.24-5.72-.83-2-2.04-3.8-3.58-5.35-.86-.86-1.81-1.62-2.83-2.27-1.86-.71-3.88-1.08-5.96-1.08-8.85,0-16.06,6.86-16.06,15.3,0,1.73.3,3.42.89,5.04h0ZM21.22,30.46c-4.36,0-8.71-.96-12.03-2.88-.24-.14-.47-.28-.7-.42-.06-.04-.1-.09-.12-.15-.64-1.72-.97-3.52-.97-5.35,0-8.78,7.48-15.92,16.67-15.92,2.15,0,4.25.39,6.24,1.16,1.11.7,2.1,1.5,2.99,2.38,1.6,1.6,2.85,3.47,3.71,5.55.78,1.89,1.22,3.89,1.28,5.95-.15,2.61-1.95,5.02-5.07,6.82-3.31,1.91-7.67,2.87-12.02,2.87Z"/>
      <path class="cls-1" d="M19.9.57c-.42.18-.8.44-1.12.75-.32.32-.57.69-.75,1.12-.17.4-.26.84-.26,1.32s.09.91.26,1.31c.17.43.43.8.75,1.12.32.31.7.57,1.12.75.41.17.85.26,1.32.26s.91-.09,1.32-.26c.42-.18.8-.43,1.12-.75.32-.32.57-.7.75-1.12.17-.4.26-.84.26-1.31s-.09-.91-.26-1.32c-.17-.42-.43-.8-.75-1.12-.32-.31-.7-.57-1.12-.75-.41-.16-.85-.26-1.32-.26s-.91.09-1.32.26Z"/>
      <path class="cls-2" d="M19.9.57h0,0ZM21.22.62c-.41,0-.82.08-1.2.24h0c-.38.16-.72.38-1.02.68-.29.29-.52.63-.68,1.02s-.24.78-.24,1.2.08.81.24,1.2c.16.39.39.72.68,1.02.29.29.63.52,1.02.68.76.31,1.63.31,2.39,0,.38-.15.72-.39,1.02-.68.3-.29.52-.64.68-1.02.16-.38.24-.78.24-1.2s-.08-.82-.24-1.2c-.15-.38-.38-.72-.68-1.02-.29-.3-.63-.52-1.02-.68-.38-.16-.78-.24-1.2-.24h0ZM21.22,7.49c-.5,0-.98-.1-1.43-.29-.46-.19-.87-.46-1.22-.81-.35-.36-.62-.76-.81-1.22-.19-.46-.28-.94-.28-1.43s.09-.98.28-1.44c.19-.45.46-.87.81-1.22.35-.35.76-.63,1.22-.82.91-.37,1.96-.37,2.87,0,.46.19.87.47,1.22.82.35.36.63.77.81,1.22.19.45.28.94.28,1.44s-.09.98-.28,1.43c-.19.45-.46.86-.81,1.22-.35.35-.76.62-1.22.81-.46.19-.94.29-1.43.29Z"/>
    </g>
  </g>
</svg>