<?xml version="1.0" encoding="UTF-8"?>
<svg id="Layer_2" data-name="Layer 2" xmlns="http://www.w3.org/2000/svg" viewBox="0 0 40.58 39.47" fill="currentColor">
  <defs>
    <style>
      .cls-1 {
        fill: #fff;
      }

      .cls-1, .cls-2, .cls-3, .cls-4 {
        fill-rule: evenodd;
      }

      .cls-2 {
        fill: #1a87c7;
      }

      .cls-3 {
        fill: #bdedf8;
      }

      .cls-4 {
        fill: #66ceef;
      }
    </style>
  </defs>
  <g id="_Layer_" data-name="&amp;lt;Layer&amp;gt;">
    <g>
      <path class="cls-4" d="M11.27,6.83c3.81-.5,8.04-.13,12.07.95,1.44.38,2.86.86,4.22,1.42.28.44.54.89.78,1.35l.14.25c-1.71-.82-3.54-1.49-5.41-1.99-2.35-.63-4.76-.99-7.09-1.06-1.82-.04-3.59.09-5.26.42.16-.47.35-.91.55-1.33Z"/>
      <path class="cls-2" d="M15.25,7.43c.24,0,.49,0,.73,0,2.35.06,4.76.43,7.17,1.07,1.59.43,3.14.97,4.61,1.62-.13-.24-.27-.46-.41-.68-1.31-.54-2.69-1-4.08-1.38-4.06-1.09-8.14-1.42-11.79-.96-.1.21-.19.43-.28.65,1.28-.22,2.64-.33,4.05-.33h0ZM28.48,11.1c-.05,0-.1,0-.14-.03-1.68-.81-3.48-1.47-5.35-1.97-2.36-.63-4.72-.98-7.02-1.04-1.83-.05-3.58.09-5.19.41-.09.03-.22-.02-.29-.1-.08-.09-.1-.2-.06-.3.17-.49.36-.95.56-1.36.04-.09.13-.17.24-.17,3.78-.5,8-.17,12.2.96,1.45.39,2.89.87,4.25,1.43.06.03.11.06.15.12.27.44.54.9.79,1.35l.13.25c.06.12.04.26-.05.36-.06.06-.14.1-.22.1Z"/>
      <path class="cls-1" d="M18.37,24.97c3.16.84,6.4-1.04,7.26-4.19.84-3.15-1.03-6.41-4.19-7.25-3.16-.84-6.41,1.02-7.25,4.19-.84,3.15,1.02,6.4,4.18,7.25Z"/>
      <path class="cls-2" d="M19.91,13.64c-2.48,0-4.76,1.66-5.42,4.16-.8,2.99.98,6.07,3.97,6.87h0c2.98.8,6.07-.97,6.86-3.96.8-2.99-.97-6.08-3.96-6.88-.49-.13-.97-.19-1.45-.19h0ZM19.91,25.47c-.54,0-1.08-.07-1.62-.21-3.31-.89-5.28-4.31-4.4-7.63.89-3.31,4.31-5.28,7.62-4.4,3.32.89,5.29,4.31,4.4,7.62-.75,2.78-3.27,4.61-6.01,4.61Z"/>
      <path class="cls-4" d="M25.5,37.2c-1.31.35-2.75.26-4.22-.3-1.42-.53-2.87-1.5-4.29-2.91-1.41-1.42-2.66-3.15-3.7-5.07-1.09-2-1.95-4.2-2.56-6.49-.61-2.28-.97-4.62-1.03-6.89-.05-2.19.16-4.31.68-6.25.51-1.93,1.29-3.5,2.25-4.66.99-1.22,2.19-2.01,3.5-2.37,1.32-.35,2.76-.26,4.22.3,1.42.53,2.86,1.5,4.28,2.91,1.42,1.42,2.66,3.14,3.7,5.07,1.08,2,1.95,4.21,2.57,6.49.61,2.28.96,4.62,1.02,6.89.06,2.19-.16,4.31-.67,6.24-.52,1.94-1.29,3.5-2.25,4.67-1,1.22-2.2,2.01-3.51,2.37h0ZM9.74,22.7c1.31,4.91,3.71,9.53,6.88,12.7,3.16,3.17,6.5,4.28,9.34,3.53,2.84-.76,5.17-3.4,6.33-7.73,1.16-4.33.93-9.53-.39-14.44-1.31-4.91-3.71-9.53-6.88-12.7C21.85.89,18.51-.22,15.68.53c-2.83.77-5.17,3.4-6.33,7.73-1.16,4.32-.93,9.53.39,14.44h0Z"/>
      <path class="cls-2" d="M17.75,2.36c-.52,0-1.04.07-1.54.2-1.27.35-2.4,1.1-3.35,2.26-.96,1.17-1.7,2.7-2.19,4.55-.51,1.86-.72,3.93-.66,6.15.06,2.24.4,4.53,1.02,6.82.61,2.29,1.47,4.46,2.53,6.42,1.06,1.95,2.29,3.64,3.65,5,1.35,1.35,2.75,2.31,4.17,2.84,1.4.53,2.75.63,4.03.29,1.27-.35,2.4-1.11,3.35-2.26.96-1.17,1.69-2.7,2.19-4.55.51-1.86.72-3.93.67-6.15-.07-2.24-.41-4.54-1.02-6.82-.62-2.3-1.47-4.46-2.54-6.42-1.05-1.95-2.28-3.63-3.65-5-1.36-1.35-2.76-2.31-4.17-2.84-.85-.32-1.68-.49-2.49-.49h0ZM23.88,37.72c-.88,0-1.78-.17-2.71-.52-1.5-.58-2.98-1.57-4.39-2.99-1.4-1.4-2.67-3.13-3.76-5.14-1.08-2.02-1.96-4.22-2.59-6.56-.63-2.34-.97-4.68-1.03-6.96-.06-2.29.17-4.42.68-6.34.52-1.93,1.29-3.54,2.31-4.78,1.04-1.26,2.27-2.09,3.67-2.46,1.41-.37,2.89-.28,4.41.29,1.5.57,2.97,1.57,4.39,2.99,1.41,1.41,2.67,3.14,3.76,5.14,1.09,2.01,1.95,4.22,2.58,6.55.63,2.34.98,4.68,1.04,6.97.07,2.29-.16,4.42-.68,6.34-.52,1.93-1.29,3.54-2.31,4.78-1.04,1.26-2.27,2.09-3.67,2.46-.55.15-1.11.23-1.7.23h0ZM10.03,22.62h0c-1.35-5.08-1.49-10.15-.39-14.28,1.1-4.08,3.26-6.75,6.11-7.5,2.85-.76,6.06.45,9.05,3.44,3.02,3.03,5.44,7.49,6.8,12.56,1.37,5.08,1.5,10.15.39,14.28-1.08,4.08-3.26,6.74-6.11,7.5-2.84.77-6.06-.45-9.04-3.44-3.03-3.03-5.45-7.48-6.81-12.56h0ZM24.18,39.47c-2.56,0-5.25-1.32-7.78-3.85-3.09-3.09-5.57-7.66-6.95-12.84h-.01c-1.38-5.18-1.52-10.36-.38-14.6C10.2,3.88,12.53,1.07,15.6.24c3.07-.81,6.49.46,9.64,3.6,3.1,3.1,5.57,7.67,6.96,12.85,1.38,5.18,1.52,10.36.39,14.59-1.16,4.3-3.48,7.12-6.55,7.95-.6.15-1.23.24-1.86.24Z"/>
      <path class="cls-4" d="M6.78,32.18c.96.96,2.25,1.6,3.8,1.85,1.49.24,3.23.14,5.16-.38,1.93-.51,3.88-1.39,5.75-2.54,1.94-1.19,3.79-2.67,5.46-4.34,1.67-1.67,3.14-3.52,4.34-5.46,1.15-1.87,2.02-3.81,2.54-5.74.52-1.94.63-3.68.38-5.16-.25-1.56-.89-2.84-1.85-3.8-.96-.96-2.25-1.61-3.8-1.86-1.49-.24-3.23-.14-5.17.38-1.93.52-3.88,1.39-5.75,2.54-1.93,1.19-3.79,2.67-5.46,4.34-1.67,1.67-3.15,3.53-4.34,5.46-1.15,1.87-2.02,3.81-2.54,5.75-.52,1.94-.63,3.68-.38,5.16.25,1.56.9,2.84,1.86,3.81h0ZM27.67,27.51c-3.6,3.6-7.99,6.4-12.31,7.56-4.33,1.16-7.78.45-9.86-1.63-2.08-2.08-2.78-5.53-1.62-9.85,1.15-4.33,3.96-8.72,7.55-12.31,3.6-3.59,7.99-6.4,12.32-7.55,4.33-1.17,7.77-.46,9.84,1.62,2.08,2.08,2.78,5.53,1.63,9.86-1.17,4.32-3.96,8.71-7.56,12.31h0Z"/>
      <path class="cls-2" d="M6.99,31.97c.93.93,2.15,1.52,3.63,1.76,1.5.25,3.19.12,5.04-.37,1.86-.5,3.77-1.34,5.66-2.5,1.9-1.17,3.73-2.62,5.41-4.29,1.68-1.68,3.12-3.5,4.29-5.41,1.16-1.89,2.01-3.8,2.5-5.66.5-1.85.63-3.55.37-5.04-.24-1.48-.84-2.69-1.77-3.62s-2.16-1.53-3.63-1.77c-1.49-.24-3.19-.12-5.04.37-1.86.5-3.76,1.35-5.66,2.5-1.91,1.17-3.73,2.62-5.4,4.29-1.68,1.68-3.13,3.49-4.29,5.41-1.17,1.89-2.01,3.8-2.51,5.66-.5,1.85-.62,3.55-.38,5.04.24,1.48.84,2.69,1.77,3.63h0ZM12.16,34.47c-.57,0-1.11-.04-1.64-.13-1.61-.26-2.95-.91-3.96-1.94h0c-1.02-1.02-1.68-2.36-1.95-3.97-.26-1.58-.13-3.35.39-5.29.51-1.92,1.38-3.89,2.57-5.82,1.2-1.96,2.68-3.81,4.38-5.52,1.71-1.71,3.57-3.18,5.52-4.38,1.95-1.19,3.9-2.06,5.82-2.57,1.94-.52,3.72-.65,5.29-.39,1.61.26,2.95.92,3.97,1.94,1.03,1.03,1.68,2.36,1.94,3.97.26,1.58.13,3.36-.38,5.29-.52,1.92-1.38,3.88-2.58,5.82-1.19,1.95-2.67,3.81-4.38,5.52-1.71,1.71-3.57,3.19-5.52,4.38-1.95,1.2-3.9,2.06-5.82,2.57-1.29.35-2.51.52-3.65.52h0ZM27.67,27.51h.01-.01ZM27.7,3.48c2.35,0,4.31.7,5.69,2.08,2.09,2.09,2.63,5.48,1.54,9.55-1.1,4.14-3.76,8.46-7.47,12.18h0c-3.72,3.71-8.04,6.37-12.18,7.48-4.07,1.09-7.47.55-9.55-1.54-2.09-2.09-2.63-5.48-1.54-9.55,1.1-4.14,3.76-8.46,7.48-12.18,3.71-3.71,8.03-6.37,12.17-7.47,1.38-.37,2.67-.55,3.86-.55h0ZM11.42,35.93c-2.51,0-4.62-.77-6.13-2.27-2.24-2.25-2.85-5.85-1.7-10.14,1.13-4.24,3.84-8.67,7.63-12.45,3.8-3.79,8.21-6.5,12.46-7.64,4.29-1.15,7.9-.54,10.14,1.7,2.25,2.25,2.85,5.85,1.7,10.15-1.14,4.23-3.85,8.66-7.64,12.45h0c-3.79,3.79-8.21,6.5-12.45,7.64-1.43.38-2.77.56-4.02.56Z"/>
      <path class="cls-3" d="M33.09,9.97c2.04.55,4.16-.67,4.7-2.72.55-2.05-.67-4.15-2.72-4.7-2.04-.56-4.16.66-4.7,2.71-.55,2.05.67,4.16,2.72,4.71Z"/>
      <path class="cls-2" d="M33.16,9.67c1.88.5,3.83-.62,4.33-2.5.24-.91.11-1.87-.36-2.69-.47-.82-1.23-1.4-2.15-1.64-.91-.24-1.86-.12-2.68.36-.82.47-1.41,1.23-1.65,2.14-.51,1.88.62,3.82,2.5,4.34h0ZM34.08,10.4c-.36,0-.71-.04-1.08-.14h0c-2.21-.59-3.52-2.88-2.93-5.08.59-2.21,2.87-3.53,5.09-2.94,1.07.29,1.96.97,2.52,1.94.55.96.69,2.08.41,3.15-.5,1.85-2.18,3.08-4.01,3.08Z"/>
      <path class="cls-3" d="M7.14,20.09c2.05.55,4.16-.67,4.71-2.72.55-2.05-.67-4.15-2.72-4.7-2.05-.56-4.16.66-4.7,2.71-.55,2.05.66,4.15,2.71,4.71Z"/>
      <path class="cls-2" d="M8.13,12.84c-.61,0-1.22.16-1.77.47-.82.48-1.4,1.23-1.64,2.15-.5,1.89.62,3.83,2.49,4.33,1.89.5,3.83-.62,4.34-2.5.24-.91.11-1.87-.36-2.69-.47-.81-1.23-1.4-2.15-1.64-.3-.09-.61-.12-.92-.12h0ZM8.14,20.53c-.36,0-.72-.04-1.08-.14-2.21-.59-3.53-2.88-2.93-5.09.29-1.07.97-1.97,1.93-2.52.96-.55,2.08-.7,3.15-.41,1.08.29,1.96.97,2.52,1.94.56.96.7,2.08.42,3.15-.5,1.85-2.18,3.08-4.01,3.08Z"/>
      <path class="cls-3" d="M22.56,35.02c2.09.57,4.26-.68,4.82-2.78.56-2.11-.68-4.26-2.78-4.83-2.1-.56-4.26.69-4.82,2.79-.57,2.1.68,4.25,2.78,4.82Z"/>
      <path class="cls-2" d="M23.58,27.59c-1.6,0-3.07,1.07-3.5,2.69-.25.93-.12,1.91.36,2.75.48.84,1.26,1.44,2.2,1.69h0c1.94.52,3.93-.63,4.44-2.56.52-1.93-.63-3.93-2.57-4.44-.31-.09-.63-.13-.94-.13h0ZM23.58,35.47c-.36,0-.73-.04-1.09-.15h0c-1.1-.29-2.02-.99-2.58-1.97-.57-.98-.71-2.13-.43-3.23.61-2.26,2.94-3.6,5.2-3,2.26.61,3.61,2.94,3.01,5.2-.51,1.9-2.24,3.15-4.1,3.15Z"/>
      <path class="cls-4" d="M17.24,30.58c-5.06-1.35-9.81-3.82-13.07-7.08C.91,20.24-.24,16.81.54,13.89c.78-2.92,3.5-5.32,7.95-6.51.4-.1.8-.2,1.22-.28-.13.37-.25.76-.36,1.17-.03.08-.05.16-.07.25-1.86.53-3.38,1.29-4.53,2.23-1.25,1.03-2.07,2.26-2.43,3.62-.36,1.35-.28,2.83.3,4.34.55,1.46,1.54,2.94,3,4.41,1.45,1.46,3.24,2.74,5.21,3.81,2.06,1.12,4.33,2.01,6.68,2.63,2.35.63,4.76,1,7.09,1.06,2.26.06,4.44-.16,6.43-.69,1.99-.53,3.59-1.33,4.8-2.31,1.25-1.03,2.07-2.26,2.43-3.61.36-1.35.27-2.83-.3-4.34-.55-1.45-1.55-2.95-3-4.41-1.38-1.38-3.04-2.59-4.89-3.63-.26-.57-.53-1.12-.82-1.66,2.75,1.31,5.22,2.96,7.16,4.91,3.26,3.26,4.41,6.69,3.62,9.6-.78,2.92-3.49,5.32-7.94,6.52-4.45,1.19-9.8.95-14.86-.41Z"/>
      <path class="cls-2" d="M9.24,7.51c-.23.05-.45.1-.68.17-4.19,1.12-6.93,3.36-7.73,6.29-.78,2.94.48,6.24,3.55,9.32,3.11,3.11,7.71,5.6,12.93,7,5.22,1.4,10.44,1.55,14.7.4,4.19-1.12,6.94-3.35,7.73-6.29.78-2.93-.48-6.24-3.55-9.31-1.69-1.68-3.79-3.18-6.25-4.44.12.24.24.51.36.76,1.89,1.07,3.53,2.28,4.88,3.63,1.45,1.46,2.48,2.98,3.07,4.52.59,1.56.69,3.08.31,4.53-.39,1.44-1.24,2.7-2.54,3.76-1.27,1.04-2.93,1.84-4.91,2.38-1.97.52-4.16.75-6.51.69-2.36-.06-4.76-.42-7.17-1.06-2.41-.65-4.67-1.54-6.74-2.66-2.06-1.12-3.84-2.43-5.28-3.87-1.45-1.45-2.49-2.97-3.07-4.51-.59-1.57-.69-3.09-.31-4.53.39-1.44,1.24-2.71,2.54-3.77,1.17-.96,2.68-1.72,4.47-2.25l.03-.09c.06-.23.12-.45.19-.67h0ZM25.83,32.06c-2.78,0-5.73-.4-8.68-1.18-5.33-1.44-10.01-3.97-13.2-7.16C.72,20.48-.59,16.96.25,13.81c.84-3.15,3.74-5.55,8.16-6.73.4-.11.82-.21,1.23-.3.11-.02.22.02.29.1.08.08.1.2.06.31-.12.36-.24.75-.35,1.15l-.06.24c-.03.12-.11.19-.22.23-1.78.51-3.27,1.24-4.42,2.18-1.2.98-1.98,2.14-2.33,3.45-.36,1.31-.26,2.71.29,4.15.56,1.46,1.54,2.9,2.93,4.29,1.4,1.4,3.13,2.67,5.15,3.75,2.02,1.1,4.25,1.97,6.6,2.61,2.36.63,4.73.98,7.02,1.04,2.28.06,4.42-.17,6.33-.68,1.9-.51,3.48-1.27,4.68-2.26,1.2-.97,1.98-2.13,2.33-3.44.36-1.32.25-2.71-.29-4.15-.55-1.46-1.54-2.9-2.93-4.31-1.33-1.32-2.96-2.53-4.83-3.58-.05-.03-.1-.08-.13-.14-.25-.56-.52-1.12-.8-1.65-.07-.11-.04-.26.05-.36.09-.09.24-.12.36-.06,2.88,1.37,5.33,3.04,7.25,4.97,3.23,3.23,4.55,6.75,3.7,9.91-.84,3.15-3.75,5.54-8.16,6.73-1.95.52-4.1.78-6.35.78Z"/>
    </g>
  </g>
</svg>