<?xml version="1.0" encoding="UTF-8"?>
<svg id="Layer_2" data-name="Layer 2" xmlns="http://www.w3.org/2000/svg" viewBox="0 0 40.37 41" fill="currentColor">
  <defs>
    <style>
      .cls-1 {
        fill: #fff;
      }

      .cls-1, .cls-2, .cls-3, .cls-4 {
        fill-rule: evenodd;
      }

      .cls-2 {
        fill: #1a87c7;
      }

      .cls-3 {
        fill: #bdedf8;
      }

      .cls-4 {
        fill: #66ceef;
      }
    </style>
  </defs>
  <g id="_Layer_" data-name="&amp;lt;Layer&amp;gt;">
    <g>
      <polygon class="cls-3" points="36.37 25.28 21.22 16.54 4.03 26.47 19.18 35.21 36.37 25.28"/>
      <path class="cls-2" d="M4.64,26.47l14.54,8.39,16.58-9.57-14.54-8.39L4.64,26.47h0ZM19.18,35.52c-.05,0-.1-.02-.16-.04L3.88,26.73c-.11-.05-.16-.15-.16-.26s.05-.21.16-.27l17.19-9.93c.1-.05.21-.05.31,0l15.14,8.75c.08.06.16.16.16.27s-.08.21-.16.26l-17.19,9.93c-.05.03-.11.04-.16.04Z"/>
      <path class="cls-3" d="M39.69,20.38l-15.14-8.74c-.34-.16-.6-.08-.92.09l-.79.46c-.39.24-.71.57-.92.97l15.14,8.74h0c.26-.42.5-.7.92-.97l.79-.46c.31-.16.58-.25.92-.09Z"/>
      <path class="cls-2" d="M22.35,13.05l14.62,8.44c.24-.33.47-.58.84-.82l.81-.47s.05-.03.08-.04l-14.31-8.26c-.18-.08-.31-.06-.63.1l-.76.45c-.26.16-.47.36-.65.6h0ZM37.1,22.22c-.08,0-.13-.02-.18-.06l-15.14-8.75c-.16-.08-.21-.27-.13-.41.26-.43.6-.81,1.02-1.08l.81-.47c.34-.17.73-.33,1.2-.1l15.17,8.76c.13.08.18.26.11.41-.08.15-.24.21-.39.14-.18-.09-.34-.08-.63.08l-.81.45c-.37.24-.55.49-.79.86-.03.08-.08.13-.18.15-.03,0-.03.01-.05.01Z"/>
      <path class="cls-4" d="M37.07,21.9l-15.14-8.74c-.24.44-.37.78-.39,1.27v1.55c-.03.24-.13.42-.31.56l15.14,8.75c.21-.14.31-.32.31-.56v-1.55c.03-.5.16-.84.39-1.28Z"/>
      <path class="cls-2" d="M21.69,16.47l14.62,8.44c.05-.06.05-.12.08-.2l-.03-1.52c.03-.47.13-.81.29-1.16l-14.59-8.43c-.13.26-.18.51-.21.86v1.54c-.03.19-.05.35-.16.49h0ZM36.37,25.59c-.05,0-.1-.01-.16-.04l-15.14-8.74c-.08-.05-.16-.15-.16-.25s.05-.21.13-.26c.13-.09.18-.18.21-.33v-1.53c0-.59.16-.98.39-1.42.05-.07.1-.13.18-.15.1-.02.18-.01.26.03l15.14,8.75c.13.08.18.27.1.41-.21.38-.31.68-.34,1.14v1.54c-.03.36-.18.62-.45.81-.05.04-.13.06-.18.06Z"/>
      <path class="cls-3" d="M16.77,33.18l.79-.46c.39-.2.6-.25,1-.03L3.33,23.89c-.34-.16-.6-.08-.92.09l-.79.46c-.45.27-.65.54-.92.97l15.14,8.75c.47-.76.86-.94.92-.97Z"/>
      <path class="cls-2" d="M1.13,25.3l14.62,8.43c.26-.38.55-.65.84-.81l.18.26-.16-.27.79-.46s.05-.02.08-.03L3.17,24.16c-.16-.08-.31-.06-.63.1l-.79.45c-.26.17-.45.34-.63.6h0ZM15.85,34.46c-.05,0-.11-.01-.16-.04L.55,25.67c-.08-.04-.13-.11-.16-.19,0-.08,0-.17.05-.24.26-.42.52-.75,1-1.06l.81-.47c.34-.17.71-.33,1.21-.1l15.25,8.81h0c.16.09.21.27.11.42-.08.15-.26.2-.42.12h0c-.24-.15-.37-.14-.71.04l-.76.45h0s-.03.01-.03.01c-.34.18-.63.56-.79.85-.08.09-.16.15-.26.15Z"/>
      <path class="cls-4" d="M15.85,34.15L.71,25.4h0c-.24.44-.37.78-.39,1.28v4.34c.03.33.05.55.31.78l15.12,8.74c-.24-.23-.26-.45-.29-.78v-4.34c.03-.5.16-.84.39-1.28h0Z"/>
      <path class="cls-2" d="M.84,25.83c-.13.3-.18.54-.21.86v4.32c.03.28.05.41.21.56l14.33,8.26v-4.41c0-.47.11-.81.26-1.16L.84,25.83h0ZM15.75,40.85s-.08-.01-.13-.04L.47,32.06c-.39-.36-.45-.69-.47-1.03v-4.35c.03-.59.18-.98.42-1.42.05-.07.1-.13.21-.15.08-.02.16-.02.24.03l15.14,8.74c.05.04.13.12.13.21.03.09,0,.18-.05.25h0c-.18.34-.29.63-.31,1.1v4.33c.03.28.05.41.21.56.11.11.11.28.03.41-.05.08-.16.12-.26.12Z"/>
      <path class="cls-1" d="M16.77,40.51l22.01-12.71c.73-.41,1.28-1.42,1.28-2.24v-4.34c0-.41-.13-.7-.37-.84-.24-.13-.55-.12-.92.09l-.79.46c-.37.21-.68.56-.92.97-.24.42-.39.88-.39,1.28v1.55c0,.21-.13.46-.31.56l-17.19,9.92c-.18.11-.31.02-.31-.19v-1.55c0-.82-.6-1.16-1.31-.75l-.79.46c-.73.41-1.31,1.42-1.31,2.24v4.34c0,.82.58,1.16,1.31.75Z"/>
      <path class="cls-2" d="M18.13,32.86c-.13,0-.26.05-.42.13l-.79.46c-.63.36-1.15,1.26-1.15,1.98v4.34c0,.28.08.49.24.57.13.08.34.05.6-.09l22.01-12.71c.63-.36,1.15-1.27,1.15-1.98v-4.34c0-.28-.11-.49-.24-.57-.13-.08-.37-.05-.6.09l-.81.46c-.29.17-.58.48-.79.85-.21.38-.34.78-.34,1.12v1.55c0,.31-.21.67-.47.82l-17.19,9.93c-.18.1-.39.12-.55.02-.16-.09-.24-.26-.24-.48v-1.55c0-.28-.08-.49-.24-.57-.05-.03-.1-.04-.18-.04h0ZM16.19,41c-.18,0-.34-.05-.5-.13-.34-.2-.52-.59-.52-1.1v-4.34c0-.94.63-2.04,1.44-2.51l.79-.46c.44-.26.89-.29,1.23-.09.34.2.52.59.52,1.1v1.39l17.06-9.84c.08-.05.16-.2.16-.29v-1.55c0-.45.16-.96.45-1.43.26-.47.63-.85,1.02-1.08l.79-.46c.45-.25.89-.29,1.23-.09.34.2.52.59.52,1.11v4.34c0,.94-.63,2.04-1.44,2.51l-22.01,12.71c-.26.14-.52.22-.73.22Z"/>
      <path class="cls-4" d="M29.61,11.84l-5.69-3.28-2.83,1.64c-.1.04-.13.06-.24.02l5.68,3.28c.08.03.11.02.18,0l.05-.03,2.83-1.64Z"/>
      <path class="cls-2" d="M21.56,10.27l5.08,2.93,2.36-1.36-5.08-2.93-2.36,1.36h0ZM26.62,13.82c-.05,0-.1-.01-.18-.04l-5.74-3.3c-.13-.08-.18-.25-.1-.4.05-.15.21-.21.37-.16l2.8-1.64c.1-.06.21-.06.31,0l5.68,3.28c.11.06.16.16.16.26s-.05.21-.16.27l-2.83,1.64s-.08.04-.11.04c-.08.02-.13.04-.21.04Z"/>
      <path class="cls-4" d="M15.72,12.93c-.03.24-.13.42-.34.56l5.69,3.28c.21-.14.31-.32.31-.56V7.43c.03-.5.16-.84.39-1.27l-5.69-3.28c-.24.43-.37.77-.37,1.27v8.77Z"/>
      <path class="cls-2" d="M15.85,13.41l5.19,2.97c.03-.05.05-.12.05-.2V7.43c.03-.47.11-.81.26-1.15l-5.14-2.97c-.13.26-.18.51-.21.86v8.78c-.03.17-.05.33-.16.46h0ZM21.06,17.08c-.05,0-.11-.01-.16-.04l-5.69-3.29c-.08-.05-.16-.15-.16-.25s.05-.2.13-.26c.13-.08.18-.18.21-.32V4.15c.03-.59.18-.98.39-1.42.05-.07.1-.13.21-.15.08-.02.16-.01.24.03l5.68,3.29c.13.08.18.26.11.41-.21.38-.31.68-.34,1.14v8.76c-.03.36-.18.62-.45.81-.05.04-.11.05-.18.05Z"/>
      <polygon class="cls-4" points="21.06 16.77 15.38 13.49 12.52 15.13 18.21 18.41 21.06 16.77"/>
      <path class="cls-2" d="M13.15,15.13l5.06,2.93,2.25-1.29-5.08-2.93-2.23,1.29h0ZM18.21,18.72c-.05,0-.1-.01-.13-.04l-5.71-3.29c-.08-.06-.16-.16-.16-.27s.08-.21.16-.26l2.86-1.64c.11-.06.21-.06.31,0l5.69,3.28c.11.06.16.16.16.27s-.05.21-.16.27l-2.86,1.65c-.05.03-.11.04-.16.04Z"/>
      <path class="cls-4" d="M26.07,3.68L20.38.4c-.34-.16-.6-.08-.92.09l-2.46,1.43c-.42.27-.66.54-.92.97h0s5.69,3.28,5.69,3.28h0c.26-.42.5-.7.92-.97l2.46-1.43c.31-.16.58-.25.92-.09Z"/>
      <path class="cls-2" d="M16.51,2.77l5.16,2.98c.21-.3.45-.56.86-.81l2.46-1.43s.05-.03.08-.04l-4.85-2.8c-.18-.08-.31-.06-.63.1l-2.44,1.42c-.29.18-.47.36-.66.6h0ZM21.75,6.46c-.05,0-.1-.01-.13-.03l-5.68-3.28c-.08-.05-.13-.12-.16-.21-.03-.09.03-.18.08-.25.24-.4.5-.72,1-1.03l2.46-1.43c.34-.17.71-.33,1.21-.1l5.71,3.29c.16.08.21.26.13.41-.08.15-.26.2-.42.14-.18-.09-.34-.08-.66.08l-2.44,1.42c-.39.24-.58.49-.81.86-.08.08-.18.14-.29.14Z"/>
      <polygon class="cls-4" points="18.21 18.41 12.52 15.13 18.24 21.61 23.92 24.89 18.21 18.41"/>
      <path class="cls-2" d="M18.42,21.37l4.03,2.32-4.43-5.04-4.03-2.32,4.43,5.04h0ZM23.92,25.2c-.05,0-.1-.01-.16-.04l-5.69-3.28s-.05-.04-.08-.07l-5.71-6.48c-.08-.11-.08-.28,0-.4.1-.12.26-.15.39-.07l5.69,3.28s.05.04.08.06l5.71,6.48c.1.11.1.28,0,.4-.05.07-.16.11-.24.11Z"/>
      <path class="cls-1" d="M21.38,7.43v8.78c0,.2-.13.46-.31.56l-2.86,1.65,5.71,6.48,5.69-13.06-2.83,1.64c-.18.1-.31.02-.31-.19V4.52c0-.41-.16-.7-.39-.84-.24-.14-.55-.12-.92.09l-2.46,1.43c-.37.21-.68.56-.92.96h0c-.24.41-.39.86-.39,1.28Z"/>
      <path class="cls-2" d="M18.71,18.49l5.11,5.83,5.14-11.76-2.02,1.17c-.18.11-.37.12-.55.02-.16-.09-.24-.26-.24-.48V4.52c0-.28-.08-.49-.24-.57-.13-.08-.37-.05-.6.09l-2.46,1.43c-.32.17-.58.47-.81.85-.21.37-.34.78-.34,1.12v8.78c0,.31-.21.67-.47.83l-2.52,1.46h0ZM23.92,25.2c-.1,0-.18-.04-.24-.1l-5.69-6.48c-.08-.07-.1-.16-.08-.25,0-.09.05-.17.16-.22l2.83-1.65c.1-.05.18-.2.18-.29V7.43c0-.45.16-.96.42-1.43.26-.47.63-.85,1.02-1.08l2.46-1.43c.45-.26.89-.29,1.23-.09.34.2.52.6.52,1.1v8.61l2.7-1.56c.13-.07.26-.05.37.04.1.09.13.23.08.35l-5.69,13.06c-.05.09-.13.17-.24.18-.03,0-.05,0-.05,0Z"/>
    </g>
  </g>
</svg>