<?xml version="1.0" encoding="UTF-8"?>
<svg id="Layer_2" data-name="Layer 2" xmlns="http://www.w3.org/2000/svg" viewBox="0 0 46.76 31.28" fill="currentColor">
  <defs>
    <style>
      .cls-1 {
        fill: #fff;
      }

      .cls-1, .cls-2, .cls-3, .cls-4 {
        fill-rule: evenodd;
      }

      .cls-2 {
        fill: #1a87c7;
      }

      .cls-3 {
        fill: #bdedf8;
      }

      .cls-4 {
        fill: #66ceef;
      }
    </style>
  </defs>
  <g id="_Layer_" data-name="&amp;lt;Layer&amp;gt;">
    <g>
      <path class="cls-1" d="M45.92,19.21l-19.83,11.45c-.42.23-.76.29-1.26.3v-4.01c.47-.02.84-.08,1.26-.3l19.83-11.45c.31-.19.5-.36.52-.73v4.01c-.03.37-.21.54-.52.73Z"/>
      <path class="cls-2" d="M45.92,19.21h.03-.03ZM25.14,27.25v3.4c.26-.03.52-.1.81-.25l19.81-11.44c.29-.18.37-.29.39-.49v-3.03s-.05.02-.05.03l-19.86,11.46c-.39.21-.73.29-1.1.33h0ZM24.83,31.28c-.08,0-.16-.03-.21-.09-.05-.06-.11-.14-.11-.22v-4.01c0-.17.13-.3.29-.31.45-.01.76-.06,1.15-.27l19.83-11.45c.26-.17.34-.28.37-.49,0-.17.16-.3.32-.28.16,0,.29.14.29.31v4.01c-.03.55-.37.8-.66.99,0,0,0,0-.03,0l-19.83,11.45c-.5.27-.92.33-1.42.35h0Z"/>
      <path class="cls-4" d="M24.83,26.95v4.01c-.47-.01-.84-.08-1.26-.3L.83,17.54c-.29-.19-.49-.37-.52-.73v-4.01c.03.36.23.54.52.73l22.75,13.13c.42.22.79.29,1.26.3Z"/>
      <path class="cls-2" d="M.62,13.75v3.06c0,.18.09.29.37.47l22.74,13.12c.29.15.52.21.79.24v-3.4c-.37-.03-.71-.12-1.1-.32L.67,13.79s-.03-.03-.05-.04h0ZM24.83,31.28h-.03c-.47-.01-.86-.08-1.39-.34L.67,17.81c-.3-.2-.63-.45-.67-.97v-4.04c0-.17.13-.3.3-.31.17-.02.3.12.31.29.02.2.11.31.38.5l22.74,13.12c.34.18.63.25,1.1.26.18,0,.31.14.31.31v4.01c0,.08-.05.17-.11.22-.05.06-.13.09-.21.09Z"/>
      <path class="cls-1" d="M45.92,15.2l-19.83,11.45c-.34.2-.81.3-1.26.3h0c-.45,0-.92-.1-1.26-.3L.83,13.52c-.35-.2-.52-.46-.52-.73s.17-.53.52-.73L20.66.61c.71-.4,1.83-.4,2.52,0l22.74,13.13c.37.2.52.47.52.73s-.16.53-.52.73Z"/>
      <path class="cls-2" d="M21.92.62c-.39,0-.81.09-1.1.26L.98,12.33c-.23.14-.37.3-.36.46-.01.16.13.33.36.46l22.75,13.13c.58.33,1.62.33,2.2,0l19.86-11.45h0c.24-.14.37-.3.37-.46s-.13-.33-.37-.46L23.05.88c-.31-.17-.71-.26-1.13-.26h0ZM24.83,27.26c-.52,0-1.02-.12-1.41-.34L.67,13.79c-.43-.25-.67-.61-.67-1s.24-.75.67-1L20.51.34c.79-.46,2.04-.46,2.83,0l22.74,13.13c.45.25.68.61.68,1s-.24.75-.68,1l-19.83,11.45c-.37.22-.89.34-1.42.34Z"/>
      <polygon class="cls-3" points="6.99 10.91 18.67 4.17 24.2 7.36 18.36 10.73 12.52 14.1 6.99 10.91"/>
      <path class="cls-2" d="M7.61,10.91l4.91,2.83,11.06-6.39-4.9-2.83-11.07,6.39h0ZM12.52,14.4c-.05,0-.1-.01-.16-.04l-5.53-3.19c-.1-.06-.16-.16-.16-.27s.06-.21.16-.27l11.68-6.74c.08-.06.21-.06.31,0l5.5,3.19c.1.05.16.16.16.27s-.05.21-.16.26l-11.66,6.74c-.05.03-.11.04-.16.04Z"/>
      <path class="cls-2" d="M17.36,10.32c-.11,0-.21-.06-.26-.16-.1-.15-.05-.33.11-.42l1.81-1.04-1.07-.61-1.52.89c-.16.08-.34.03-.45-.11-.08-.15-.03-.34.13-.42l1.23-.71-.89-.52c-.08-.04-.26-.04-.34,0l-1.94,1.12c-.16.08-.34.03-.42-.11-.08-.15-.03-.33.1-.42l1.94-1.12c.29-.16.68-.16.94,0l1.36.78h0s1.36.79,1.36.79c.18.11.29.27.29.45s-.11.35-.29.45l-1.94,1.12c-.05.03-.1.04-.16.04Z"/>
      <path class="cls-2" d="M16.18,11c-.05,0-.11-.01-.16-.04l-3.04-1.75c-.08-.04-.23-.05-.31,0l-1.94,1.12c-.16.09-.34.04-.42-.11-.11-.15-.05-.33.1-.42l1.94-1.12c.26-.16.68-.16.94,0l3.04,1.75c.13.09.18.27.11.42-.05.1-.16.15-.26.15Z"/>
      <path class="cls-2" d="M30.46,18.03c-.05,0-.11-.01-.16-.04l-12.1-7c-.16-.09-.21-.27-.13-.42.1-.15.29-.2.45-.11l12.1,7c.16.09.21.27.11.42-.05.1-.16.16-.26.16Z"/>
    </g>
  </g>
</svg>