<?xml version="1.0" encoding="UTF-8"?>
<svg id="Layer_2" data-name="Layer 2" xmlns="http://www.w3.org/2000/svg" viewBox="0 0 34.66 43.74" fill="currentColor">
  <defs>
    <style>
      .cls-1 {
        fill: #fff;
      }

      .cls-1, .cls-2, .cls-3, .cls-4 {
        fill-rule: evenodd;
      }

      .cls-2 {
        fill: #1a87c7;
      }

      .cls-3 {
        fill: #bdedf8;
      }

      .cls-4 {
        fill: #66ceef;
      }
    </style>
  </defs>
  <g id="_Layer_" data-name="&amp;lt;Layer&amp;gt;">
    <g>
      <path class="cls-3" d="M4.06,43.43l-3.67-1.99c-.08-.07-.08-.11-.08-.23v-.65c0-.25.13-.43.31-.57,9.9-5.72,19.83-11.45,29.71-17.16.11-.04.16-.06.26-.02l3.64,1.99c-.11-.04-.13-.03-.24.02-9.9,5.72-19.81,11.44-29.71,17.16-.21.15-.32.33-.34.58v.65c.03.11,0,.15.1.23Z"/>
      <path class="cls-2" d="M.6,41.21l3.06,1.64v-.3c.03-.37.18-.63.45-.84l29.4-16.98-3.01-1.63-13.39,7.73c-5.45,3.14-10.87,6.27-16.32,9.41-.1.08-.16.18-.18.34v.63h0ZM4.03,43.73s-.08,0-.13-.03l-3.64-1.99c-.24-.17-.26-.33-.26-.44v-.71c.03-.36.18-.63.47-.83,5.45-3.15,10.9-6.29,16.32-9.44l13.41-7.73c.13-.06.26-.13.5-.05l3.7,2c.13.08.21.25.13.4-.08.15-.24.22-.39.17L4.45,42.24c-.1.08-.18.18-.18.34v.63h0c.08.11.11.28.03.39-.08.09-.16.14-.26.14Z"/>
      <path class="cls-1" d="M4.24,43.41c-.16.05-.29.04-.29-.21v-.65c0-.22.16-.48.34-.58,9.9-5.72,19.81-11.44,29.71-17.16.18-.1.34-.02.34.2v.64c0,.2-.08.35-.18.45-.16.15-.55.36-.68.44L4.77,43.11c-.13.08-.42.25-.52.3Z"/>
      <path class="cls-2" d="M34.03,25.15L4.45,42.24c-.1.05-.18.21-.18.31v.5c.08-.05.18-.11.26-.16l.08-.03,28.79-16.63c.16-.08.45-.24.52-.34.08-.07.1-.14.1-.23v-.51h0ZM4.11,43.74c-.1,0-.18-.03-.26-.08-.13-.09-.18-.25-.18-.46v-.65c0-.32.21-.69.47-.85l29.71-17.15c.18-.11.39-.12.55-.03.16.1.26.27.26.49v.64c0,.26-.1.48-.29.67-.13.15-.39.3-.66.44l-.11.05L4.93,43.39c-.26.16-.47.27-.58.31h0c-.11.03-.16.04-.24.04Z"/>
      <polygon class="cls-4" points=".92 39.82 .92 17.15 2.07 17.68 2.07 40.34 .92 39.82"/>
      <path class="cls-2" d="M1.23,39.62l.52.24v-21.99l-.52-.24v21.99h0ZM2.07,40.66c-.05,0-.11-.01-.13-.03l-1.15-.53c-.1-.05-.18-.17-.18-.28v-22.67c0-.1.05-.21.16-.26.08-.06.21-.07.29-.02l1.15.52c.1.05.18.17.18.29v22.66c0,.1-.08.21-.16.26-.05.03-.11.05-.16.05Z"/>
      <polygon class="cls-3" points="2.07 17.68 .92 17.15 30.1 .31 31.23 .84 2.07 17.68"/>
      <path class="cls-2" d="M1.6,17.12l.45.22L30.57.87l-.47-.21L1.6,17.12h0ZM2.07,17.99c-.05,0-.11,0-.13-.02l-1.15-.53c-.1-.05-.16-.15-.18-.27,0-.12.05-.22.16-.28L29.95.04c.08-.05.18-.05.29-.01l1.13.53c.11.04.18.15.18.26s-.05.23-.16.28L2.23,17.95c-.05.03-.11.04-.16.04Z"/>
      <path class="cls-1" d="M31.23.84v22.67L2.07,40.34v-22.66L31.23.84Z"/>
      <path class="cls-2" d="M2.38,17.86v21.96l28.53-16.49V1.37L2.38,17.86h0ZM2.07,40.66c-.05,0-.11-.02-.16-.05-.11-.05-.16-.16-.16-.27v-22.66c0-.11.05-.22.16-.27L31.07.57c.1-.05.21-.05.31,0,.11.05.16.16.16.27v22.67c0,.1-.05.21-.16.26L2.23,40.61c-.05.03-.11.05-.16.05Z"/>
      <path class="cls-4" d="M30,2.96L3.27,18.39v19.84l26.72-15.43V2.96Z"/>
      <path class="cls-2" d="M3.59,18.56v19.13l26.12-15.07V3.49L3.59,18.56h0ZM3.27,38.54c-.05,0-.1-.02-.16-.04-.08-.05-.16-.16-.16-.27v-19.84c0-.11.08-.21.16-.27L29.87,2.69c.08-.05.18-.05.29,0,.11.05.16.15.16.27v19.84c0,.11-.05.22-.16.27L3.43,38.49c-.05.02-.11.04-.16.04Z"/>
      <path class="cls-1" d="M10.14,24.01l.13.95-4.45,3.41-.21-1.29c-.08-.66-.05-1.18.16-1.57.18-.39.68-.98,1.49-1.78.68-.66,1.07-1.1,1.18-1.3.13-.21.16-.54.08-.99-.08-.43-.18-.67-.31-.69-.16-.02-.47.16-.94.53-.5.37-.81.67-.92.89-.1.22-.13.56-.08,1.01l.05.27-1.1.84-.03-.26c-.13-.78-.05-1.44.21-1.94.26-.5.84-1.1,1.73-1.77.84-.66,1.44-.96,1.81-.92.34.04.58.44.71,1.22.11.74.05,1.31-.13,1.74-.21.43-.71,1.05-1.55,1.85-.66.67-1.05,1.09-1.15,1.27-.1.18-.13.5-.05.93l.03.17,3.35-2.55Z"/>
      <path class="cls-2" d="M8.17,20.44h.05c.47.06.55.68.6.95.08.52.03.91-.11,1.18-.08.15-.31.45-1.23,1.37-.81.77-1.28,1.35-1.47,1.7-.16.33-.18.8-.1,1.39l.1.76,3.93-2.98-.05-.25-2.93,2.24c-.08.07-.21.09-.29.04-.1-.04-.18-.13-.21-.24l-.03-.16c-.08-.52-.05-.88.08-1.13.08-.14.29-.42,1.23-1.34.79-.78,1.28-1.37,1.47-1.76.16-.37.21-.89.1-1.56-.08-.58-.26-.94-.45-.96-.11-.02-.5.03-1.57.86-.84.64-1.39,1.2-1.65,1.66-.18.39-.26.9-.21,1.49l.52-.4v-.09c-.08-.52-.05-.91.08-1.19.16-.26.47-.58,1.02-.99.6-.48.89-.59,1.1-.59h0ZM5.82,28.67c-.05,0-.08,0-.13-.03-.08-.03-.16-.13-.18-.24l-.18-1.28c-.1-.72-.05-1.31.16-1.77.21-.42.73-1.03,1.57-1.86.86-.84,1.07-1.14,1.13-1.23.05-.08.1-.3.03-.8-.03-.23-.05-.34-.08-.4-.1.03-.29.15-.68.44-.6.46-.79.69-.84.79-.05.11-.11.34-.03.82l.03.28c.03.11-.03.22-.11.28l-1.1.84c-.08.06-.21.08-.29.04-.1-.04-.18-.13-.21-.24l-.03-.26c-.13-.85-.05-1.57.24-2.14.31-.55.89-1.16,1.81-1.87.97-.72,1.62-1.03,2.04-.97.76.09.92,1.14.97,1.48.13.8.08,1.43-.16,1.91-.21.46-.73,1.1-1.6,1.94-.84.85-1.05,1.12-1.1,1.2-.03.04-.05.15-.05.38l2.93-2.22c.08-.07.21-.08.29-.04.11.04.18.13.21.24l.13.94c.03.11-.03.23-.1.3l-4.48,3.41c-.05.04-.13.06-.18.06Z"/>
      <path class="cls-1" d="M20.04,16.48l.13.94-4.48,3.41-.18-1.28c-.1-.66-.05-1.19.13-1.58.21-.39.71-.98,1.52-1.78.68-.67,1.07-1.1,1.18-1.31.13-.21.13-.54.08-.99-.08-.44-.18-.67-.31-.69-.16-.02-.47.16-.97.52-.47.38-.79.68-.89.9-.13.22-.13.56-.08,1.01l.05.27-1.13.84-.03-.26c-.11-.79-.03-1.43.21-1.94.29-.51.86-1.1,1.73-1.77.86-.65,1.47-.96,1.81-.91.37.04.6.45.71,1.22.11.73.08,1.31-.13,1.74-.18.43-.71,1.04-1.52,1.85-.68.67-1.07,1.09-1.15,1.27-.11.18-.13.49-.05.93l.03.18,3.35-2.56Z"/>
      <path class="cls-2" d="M18.08,12.9h.05c.39.05.52.53.58.94.08.53.05.92-.08,1.19-.1.15-.31.45-1.26,1.37-.79.77-1.28,1.35-1.44,1.7-.16.32-.21.79-.11,1.39l.11.76,3.9-2.98-.03-.25-2.93,2.24c-.08.07-.21.08-.31.05-.11-.05-.16-.13-.18-.24l-.03-.17c-.08-.51-.05-.88.08-1.12.08-.15.29-.42,1.23-1.34.79-.78,1.26-1.37,1.44-1.76.18-.37.21-.9.1-1.57-.08-.57-.24-.94-.42-.95-.13-.02-.52.03-1.6.86-.84.63-1.39,1.2-1.62,1.66-.21.39-.29.89-.24,1.49l.55-.41-.03-.09c-.08-.52-.03-.91.1-1.19.13-.26.47-.58,1.02-1,.6-.47.89-.58,1.1-.58h0ZM15.69,21.14s-.08-.01-.1-.03c-.1-.03-.18-.13-.18-.23l-.21-1.29c-.1-.72-.05-1.31.18-1.76.21-.42.71-1.03,1.57-1.87.84-.84,1.07-1.13,1.13-1.23.05-.09.11-.3.03-.8-.03-.23-.08-.34-.11-.4-.08.03-.26.14-.65.44-.6.45-.79.69-.84.79-.05.1-.1.33-.03.82l.03.28c.03.11-.03.22-.1.28l-1.1.84c-.1.07-.21.09-.31.04-.08-.04-.16-.13-.18-.24l-.03-.26c-.13-.85-.05-1.56.24-2.13.29-.55.89-1.17,1.81-1.87.94-.72,1.6-1.03,2.04-.98.76.09.92,1.14.97,1.48.1.8.05,1.43-.16,1.91-.21.46-.73,1.1-1.6,1.94-.86.84-1.05,1.11-1.1,1.2-.03.03-.05.14-.05.38l2.93-2.23c.08-.07.18-.09.29-.04.1.04.18.13.18.24l.16.94c.03.11-.03.23-.13.3l-4.48,3.41c-.05.03-.1.06-.18.06Z"/>
      <path class="cls-1" d="M29.24,25.31c-.13-.06-.24-.1-.37-.04h0l-4.19,2.42c.1-.05.21-.04.31,0,.34.16.65.7.58,1.08-.03.09-.05.16-.13.21l4.17-2.41c.16-.1.16-.31.16-.47-.05-.3-.26-.63-.52-.78h0Z"/>
      <path class="cls-2" d="M25.41,27.61c.21.2.37.49.45.76l3.59-2.08h0v-.15c-.05-.23-.18-.47-.37-.57l.16-.27-.16.27c-.05-.03-.08-.03-.08-.03h0l-3.59,2.07h0ZM25.44,29.29c-.1,0-.21-.05-.26-.15-.1-.14-.05-.33.08-.42.05-.24-.16-.65-.39-.75-.16.07-.37,0-.45-.15-.05-.14-.03-.33.1-.42l4.19-2.42c.16-.08.39-.12.65.04,0,0,.03,0,.03.01h0c.34.2.58.6.65,1,.05.27,0,.61-.29.78l-4.17,2.42c-.05.03-.1.04-.16.04Z"/>
      <path class="cls-1" d="M25.41,28.12c-.08-.17-.21-.31-.37-.39-.16-.09-.29-.09-.37-.04-.11.06-.16.17-.16.35s.05.36.16.52c.08.17.21.31.37.4.16.08.29.09.37.03.1-.06.16-.17.16-.35,0-.16-.05-.35-.16-.52Z"/>
      <path class="cls-2" d="M24.81,27.96s0,.03,0,.07c0,.1.05.24.13.36.08.13.16.24.26.29.03.02.05.03.05.03v-.07c0-.1-.03-.24-.1-.36-.08-.13-.16-.23-.26-.29-.03-.02-.05-.03-.08-.03h0ZM25.28,29.32c-.13,0-.26-.04-.39-.11-.18-.11-.37-.29-.5-.51-.1-.23-.18-.46-.18-.68,0-.28.1-.5.31-.61.18-.11.45-.1.68.03.18.11.37.29.5.51h0c.1.23.18.47.18.68,0,.28-.11.5-.31.61-.08.05-.18.08-.29.08Z"/>
      <polygon class="cls-3" points="11.19 35.95 8.86 34.6 4.72 36.98 7.07 38.33 11.19 35.95"/>
      <path class="cls-2" d="M5.34,36.98l1.73.99,3.51-2.02-1.73-.99-3.51,2.03h0ZM7.07,38.64c-.08,0-.13-.02-.16-.04l-2.36-1.35c-.08-.06-.16-.17-.16-.27,0-.11.08-.22.16-.27l4.14-2.38c.1-.05.21-.05.31,0l2.33,1.35c.08.06.16.16.16.27s-.08.21-.16.27l-4.14,2.38s-.08.04-.13.04Z"/>
      <polygon class="cls-4" points="7.07 38.33 4.72 36.98 4.72 38.81 7.07 40.16 7.07 38.33"/>
      <path class="cls-2" d="M5.03,38.63l1.73,1v-1.12l-1.73-1v1.12h0ZM7.07,40.47c-.08,0-.13-.01-.16-.04l-2.36-1.35c-.08-.05-.16-.16-.16-.26v-1.83c0-.11.08-.22.16-.27.1-.05.21-.05.31,0l2.33,1.36c.11.05.16.16.16.26v1.83c0,.11-.05.21-.16.27-.03.03-.08.04-.13.04Z"/>
      <polygon class="cls-1" points="11.19 37.78 11.19 35.95 7.07 38.33 7.07 40.16 11.19 37.78"/>
      <path class="cls-2" d="M7.36,38.51v1.12l3.51-2.03v-1.12l-3.51,2.03h0ZM7.07,40.47c-.08,0-.13-.01-.16-.04-.11-.06-.16-.15-.16-.27v-1.83c0-.1.05-.21.16-.26l4.11-2.39c.11-.05.21-.05.32,0,.08.06.16.16.16.27v1.83c0,.1-.08.21-.16.26l-4.14,2.39s-.08.04-.13.04Z"/>
      <path class="cls-2" d="M11.42,22.79s-.08,0-.11-.03c-.16-.07-.24-.25-.16-.41l2.33-5.1c.08-.15.26-.22.42-.15.16.07.21.25.16.41l-2.36,5.1c-.05.11-.16.18-.29.18Z"/>
      <path class="cls-2" d="M14.23,20.67s-.05,0-.08-.02l-3.22-.84c-.18-.04-.29-.21-.24-.37.05-.17.21-.27.37-.23l3.25.84c.18.04.26.21.24.37-.05.14-.16.23-.31.23Z"/>
      <path class="cls-2" d="M20.33,13.3c-.08,0-.18-.04-.23-.12-.11-.13-.08-.33.05-.42l3.96-3.02c.13-.11.31-.08.42.05.11.14.08.33-.05.43l-3.96,3.02c-.05.04-.1.06-.18.06Z"/>
      <path class="cls-2" d="M20.59,15.07c-.08,0-.18-.04-.24-.12-.11-.14-.08-.33.05-.44l3.96-3.02c.13-.09.34-.08.45.06.08.14.05.33-.08.43l-3.96,3.01c-.05.04-.1.07-.18.07Z"/>
      <path class="cls-2" d="M8.67,30.67c-.1,0-.18-.04-.26-.12-.1-.14-.08-.33.05-.43l3.96-3.02c.16-.09.34-.07.45.06.11.14.08.33-.05.43l-3.96,3.02c-.05.03-.13.06-.18.06Z"/>
      <path class="cls-2" d="M8.93,32.43c-.1,0-.18-.03-.26-.12-.1-.13-.08-.32.08-.42l3.96-3.02c.13-.1.31-.08.42.06.11.13.08.32-.05.43l-3.96,3.02c-.05.04-.13.06-.18.06Z"/>
    </g>
  </g>
</svg>