<?xml version="1.0" encoding="UTF-8"?>
<svg id="Layer_2" data-name="Layer 2" xmlns="http://www.w3.org/2000/svg" viewBox="0 0 32.62 42.69" fill="currentColor">
  <defs>
    <style>
      .cls-1 {
        fill: #fff;
      }

      .cls-1, .cls-2, .cls-3, .cls-4 {
        fill-rule: evenodd;
      }

      .cls-2 {
        fill: #1a87c7;
      }

      .cls-3 {
        fill: #bdedf8;
      }

      .cls-4 {
        fill: #66ceef;
      }
    </style>
  </defs>
  <g id="_Layer_" data-name="&amp;lt;Layer&amp;gt;">
    <g>
      <path class="cls-4" d="M16.58,42.27L.76,33.14c-.39-.33-.42-.53-.45-1.03V10.77c.11-1.19.6-2.08,1.6-2.76l.45-.26C6.52,5.34,10.72,2.93,14.88.52c.45-.21.65-.29,1.13-.11l15.82,9.14c-.47-.18-.65-.1-1.13.11-4.32,2.49-8.65,4.99-12.97,7.49-1,.68-1.49,1.57-1.6,2.76l-.03,21.34c.05.5.08.7.47,1.03Z"/>
      <path class="cls-2" d="M15.56.61c-.16,0-.29.06-.55.19C10.87,3.19,6.68,5.6,2.52,8.01l-.45.26c-.89.61-1.36,1.42-1.47,2.52v21.31c.05.45.05.55.37.79l14.88,8.58c-.03-.07-.03-.14-.03-.21v-21.37c.1-1.31.68-2.28,1.73-3.02l13-7.5c.08-.04.16-.07.24-.1L15.85.68c-.1-.05-.21-.07-.29-.07h0ZM16.58,42.58c-.05,0-.1-.02-.16-.04L.6,33.4c-.5-.42-.55-.71-.6-1.27V10.77c.1-1.3.68-2.28,1.73-3.02l.47-.27C6.37,5.07,10.56,2.66,14.72.25c.55-.25.81-.35,1.39-.13l15.88,9.16c.13.08.18.25.13.4-.08.15-.24.21-.39.16-.37-.14-.45-.1-.89.1l-12.97,7.48c-.86.61-1.34,1.42-1.42,2.52l-.03,21.31c.05.43.05.55.37.79.13.1.16.28.05.41-.05.09-.16.13-.26.13Z"/>
      <path class="cls-1" d="M17.74,17.14c4.82-2.78,8.15-4.71,12.97-7.49.89-.51,1.6-.09,1.6.92v21.34c0,1.02-.73,2.26-1.6,2.76l-12.99,7.49c-.86.51-1.6.09-1.6-.92l.03-21.34c0-1.01.71-2.26,1.6-2.76Z"/>
      <path class="cls-2" d="M31.41,9.75c-.16,0-.34.06-.55.18l-12.99,7.49h0c-.76.45-1.42,1.59-1.42,2.5l-.03,21.34c0,.37.13.65.31.76.21.12.5.08.81-.11l13-7.48c.79-.45,1.44-1.59,1.44-2.5V10.58c0-.37-.11-.65-.31-.76-.08-.05-.16-.07-.26-.07h0ZM17,42.69c-.21,0-.39-.05-.58-.15-.39-.23-.6-.69-.6-1.3v-21.34c0-1.13.76-2.47,1.76-3.03l.16.27-.16-.27,12.97-7.49c.52-.3,1.05-.34,1.44-.11.39.23.63.69.63,1.3l-.03,21.34c0,1.13-.76,2.46-1.73,3.03l-12.99,7.49c-.29.17-.6.26-.86.26Z"/>
      <path class="cls-1" d="M24.21,23.28c-3.2,1.84-5.79,6.33-5.79,10.02s2.59,5.19,5.79,3.35c3.2-1.84,5.79-6.33,5.79-10.02s-2.59-5.19-5.79-3.35Z"/>
      <path class="cls-2" d="M24.37,23.55c-3.12,1.79-5.63,6.16-5.63,9.75,0,1.67.55,2.91,1.55,3.48,1,.58,2.33.43,3.77-.4,3.12-1.79,5.63-6.17,5.63-9.75,0-1.67-.55-2.91-1.52-3.48-1.02-.57-2.36-.43-3.8.41h0ZM21.62,37.74c-.6,0-1.15-.14-1.65-.43-1.18-.69-1.86-2.11-1.83-4.01,0-3.79,2.65-8.4,5.92-10.29h0c1.65-.95,3.22-1.09,4.4-.4,1.21.69,1.86,2.11,1.86,4.02,0,3.78-2.67,8.4-5.95,10.29-.97.55-1.89.83-2.75.83Z"/>
      <path class="cls-3" d="M24.21,21.42c-1.31.76-2.36.14-2.36-1.37s1.05-3.36,2.36-4.11c1.31-.76,2.38-.14,2.38,1.37s-1.07,3.36-2.38,4.11Z"/>
      <path class="cls-2" d="M25.28,15.92c-.29,0-.58.1-.92.29-1.23.7-2.23,2.43-2.23,3.85,0,.62.21,1.07.55,1.27.34.2.84.14,1.36-.16h0c1.23-.71,2.23-2.43,2.23-3.85,0-.62-.18-1.07-.52-1.27-.16-.08-.31-.12-.47-.12h0ZM23.16,22.06c-.29,0-.55-.07-.79-.2-.55-.32-.84-.96-.84-1.81,0-1.64,1.1-3.56,2.54-4.38.71-.42,1.42-.48,1.96-.17.55.32.86.96.86,1.81,0,1.64-1.13,3.56-2.54,4.38h0c-.42.24-.84.37-1.21.37Z"/>
      <path class="cls-3" d="M24.21,24.6c-2.57,1.48-4.64,5.08-4.64,8.04s2.07,4.16,4.64,2.68c2.57-1.48,4.64-5.08,4.64-8.04s-2.07-4.16-4.64-2.69Z"/>
      <path class="cls-2" d="M26.28,24.27c-.58,0-1.23.2-1.91.59-2.46,1.43-4.48,4.92-4.48,7.78,0,1.32.42,2.29,1.21,2.74.76.45,1.83.34,2.96-.33,2.49-1.43,4.48-4.91,4.51-7.77,0-1.32-.45-2.29-1.2-2.74-.31-.18-.68-.27-1.07-.27h0ZM22.14,36.27c-.5,0-.97-.12-1.36-.35-.97-.57-1.52-1.73-1.52-3.27,0-3.05,2.15-6.78,4.79-8.31,1.36-.77,2.62-.89,3.59-.33,1,.56,1.52,1.73,1.52,3.28,0,3.06-2.15,6.78-4.79,8.31-.79.45-1.55.68-2.23.68Z"/>
      <path class="cls-4" d="M22.71,31.84c-1.31.76-2.38.14-2.38-1.37s1.07-3.36,2.38-4.11c1.31-.76,2.38-.14,2.38,1.37s-1.07,3.36-2.38,4.11Z"/>
      <path class="cls-2" d="M23.79,26.34c-.29,0-.6.09-.92.28-1.23.71-2.23,2.43-2.23,3.85,0,.62.18,1.07.55,1.27.34.2.84.14,1.36-.17h0c1.23-.71,2.23-2.43,2.23-3.85,0-.62-.21-1.07-.55-1.27-.13-.08-.29-.12-.45-.12h0ZM21.67,32.47c-.29,0-.55-.07-.79-.2-.55-.32-.84-.96-.84-1.81,0-1.64,1.1-3.56,2.51-4.38.73-.42,1.44-.48,1.99-.16.55.32.84.96.84,1.81,0,1.64-1.1,3.56-2.52,4.38h0c-.42.24-.84.37-1.21.37Z"/>
      <path class="cls-3" d="M.79,9.2c.37-.57.55-.8,1.13-1.19C6.24,5.51,10.56,3.01,14.88.52c.45-.21.65-.29,1.13-.11l15.82,9.14c-.47-.18-.65-.1-1.13.11-4.32,2.49-8.65,4.99-12.97,7.49-.58.39-.76.63-1.13,1.19L.79,9.2Z"/>
      <path class="cls-2" d="M1.2,9.09l15.3,8.83c.32-.44.55-.68,1.05-1.03l13-7.5c.08-.04.16-.07.24-.1L15.85.68c-.31-.12-.42-.08-.84.12L2.07,8.27c-.42.28-.6.46-.86.82h0ZM16.61,18.64c-.05,0-.11-.01-.16-.04L.63,9.46c-.08-.04-.13-.11-.16-.2,0-.08,0-.17.05-.24.39-.6.63-.87,1.2-1.27L14.72.25c.55-.25.81-.35,1.39-.13l15.88,9.16c.13.08.18.25.13.4-.08.15-.24.21-.39.16-.37-.14-.45-.1-.89.1l-12.97,7.48c-.47.34-.66.54-1,1.09-.08.09-.16.14-.26.14Z"/>
      <path class="cls-4" d="M21.85,19.96c.03-1.46,1.02-3.2,2.28-3.97.5.04.84.48.84,1.2,0,1.07-.73,2.38-1.68,2.91-.63.36-1.15.28-1.44-.14Z"/>
      <path class="cls-2" d="M22.16,19.85c.29.32.79.09.97-.03.84-.48,1.55-1.69,1.55-2.64,0-.24-.05-.77-.47-.88-1.1.73-1.97,2.24-2.04,3.55h0ZM22.56,20.63c-.39,0-.73-.17-.97-.5-.03-.05-.05-.12-.05-.18.05-1.58,1.1-3.4,2.44-4.22.05-.04.13-.06.18-.04.68.06,1.13.64,1.13,1.5,0,1.19-.79,2.59-1.83,3.18-.31.18-.63.27-.89.27Z"/>
    </g>
  </g>
</svg>