<?xml version="1.0" encoding="UTF-8"?>
<svg id="Layer_2" data-name="Layer 2" xmlns="http://www.w3.org/2000/svg" viewBox="0 0 34.95 41.36" fill="currentColor">
  <defs>
    <style>
      .cls-1 {
        fill: #fff;
      }

      .cls-1, .cls-2, .cls-3, .cls-4 {
        fill-rule: evenodd;
      }

      .cls-2 {
        fill: #1a87c7;
      }

      .cls-3 {
        fill: #bdedf8;
      }

      .cls-4 {
        fill: #66ceef;
      }
    </style>
  </defs>
  <g id="_Layer_" data-name="&amp;lt;Layer&amp;gt;">
    <g>
      <path class="cls-1" d="M29.96.39l4.09,2.36s.04.02.06.03c.3.17.5.53.52,1.05v2.26h0s0,16.34,0,16.34c-.02.54-.22,1.12-.52,1.65-.32.56-.77,1.05-1.26,1.33l-26.68,15.41c-.49.28-.93.31-1.26.12-.02-.01-.04-.02-.05-.03h0l-4.09-2.36c-.34-.25-.44-.61-.46-1.01v-18.6c.07-1.14.78-2.37,1.77-2.97L28.77.55c.39-.21.77-.33,1.19-.15Z"/>
      <path class="cls-2" d="M34.94,6.09h0,0ZM29.55.62c-.18,0-.38.07-.63.2L2.24,16.22c-.89.54-1.56,1.66-1.62,2.72v18.58c.03.38.12.6.34.76l4.06,2.34c.29.17.64.12,1-.09l26.68-15.41c.42-.24.84-.69,1.14-1.21.29-.5.46-1.04.48-1.51V3.84c-.02-.37-.15-.65-.37-.78l-4.14-2.38c-.09-.04-.18-.06-.28-.06h0ZM5.38,41.36c-.22,0-.43-.05-.62-.16,0,0-.07-.04-.08-.05l-4.07-2.35c-.5-.37-.59-.86-.62-1.26v-18.62c.08-1.29.85-2.58,1.92-3.24L28.62.28c.38-.21.89-.41,1.47-.17,0,0,.02.01.03.02l4.09,2.36c.47.27.71.73.74,1.33v2.23s0,.03,0,.04v16.34c-.03.58-.23,1.22-.56,1.8-.36.63-.85,1.14-1.37,1.44l-26.69,15.41c-.32.19-.65.28-.94.28Z"/>
      <polygon class="cls-4" points="4.4 21.29 .31 18.93 .31 21.19 4.4 23.55 4.4 21.29"/>
      <path class="cls-2" d="M.62,21.01l3.47,2.01v-1.54l-3.47-2.01v1.55h0ZM4.4,23.86c-.05,0-.11-.01-.15-.04L.15,21.45c-.09-.06-.15-.16-.15-.27v-2.26c0-.11.06-.21.15-.27.1-.06.22-.06.31,0l4.09,2.36c.1.06.15.16.15.27v2.26c0,.11-.06.21-.15.27-.04.03-.1.04-.15.04Z"/>
      <path class="cls-3" d="M34.05,2.76L29.96.39c-.39-.19-.84-.04-1.19.15L2.08,15.96c-.99.58-1.71,1.83-1.77,2.97l4.09,2.36c.04-.59.22-1.13.52-1.64.31-.53.73-1.01,1.26-1.33L32.86,2.91c.34-.19.75-.32,1.13-.18l.07.03Z"/>
      <path class="cls-2" d="M.63,18.76l3.52,2.03c.09-.44.25-.88.5-1.3.36-.63.84-1.12,1.36-1.44L32.71,2.65c.1-.06.2-.1.29-.14l-3.19-1.84c-.26-.13-.63.01-.89.16L2.24,16.22c-.82.49-1.47,1.53-1.6,2.54h0ZM4.4,21.6c-.05,0-.11-.02-.15-.04L.15,19.2c-.1-.06-.16-.17-.15-.28.08-1.27.87-2.59,1.92-3.22L28.62.28c.57-.31,1.08-.36,1.48-.16l4.11,2.37c.14.08.19.26.12.41-.07.15-.25.21-.4.15l-.06-.03c-.27-.1-.62.03-.86.17L6.33,18.58c-.43.26-.83.68-1.14,1.22-.29.5-.45,1-.48,1.51,0,.11-.07.2-.16.25-.05.02-.1.04-.15.04Z"/>
      <path class="cls-3" d="M4.4,23.55L.31,21.19c0,5.44,0,10.89,0,16.34.03.4.12.76.46,1.01l4.09,2.36c-.34-.25-.44-.6-.46-1.01,0-5.45,0-10.89,0-16.34Z"/>
      <path class="cls-2" d="M.62,21.72v15.81c.03.38.12.6.34.76l3.16,1.82c0-.07-.02-.14-.02-.2v-16.19s-3.48-2.01-3.48-2.01h0ZM4.87,41.21c-.05,0-.11-.01-.16-.04l-4.09-2.36c-.5-.37-.59-.86-.62-1.26v-16.36c0-.11.06-.21.15-.27.1-.05.21-.05.31,0l4.09,2.36c.1.06.16.15.16.27v16.34c.03.38.13.6.34.76.13.1.16.28.07.42-.06.09-.16.14-.26.14Z"/>
      <path class="cls-1" d="M34.12,24.08c.3-.52.5-1.11.52-1.65l-9.36-2.76-4.39,6.37c-.41.59-.89,1.05-1.37,1.32-.48.28-.95.37-1.37.25l-4.39-1.3-9.36,13.57c.02.51.22.87.52,1.05.32.19.76.16,1.26-.12l26.68-15.41c.49-.28.94-.77,1.26-1.33Z"/>
      <path class="cls-2" d="M34.12,24.08h0,0ZM4.72,39.98c.03.33.16.58.36.69.23.14.58.09.95-.12l26.68-15.41c.42-.24.84-.69,1.14-1.21.24-.42.4-.86.46-1.27l-8.9-2.63-4.27,6.18c-.43.62-.94,1.11-1.47,1.42-.57.33-1.12.42-1.61.28l-4.18-1.23-9.17,13.3h0ZM5.38,41.36c-.22,0-.43-.05-.62-.16-.41-.24-.65-.7-.67-1.3,0-.07.02-.13.05-.19l9.36-13.57c.08-.11.21-.16.34-.12l4.39,1.3c.32.09.71.02,1.12-.23.45-.26.89-.69,1.27-1.23l4.39-6.37c.08-.11.21-.16.34-.12l9.36,2.76c.14.04.22.17.22.31-.02.57-.22,1.2-.56,1.79h0c-.36.63-.85,1.14-1.37,1.44l-26.69,15.41c-.32.19-.65.28-.94.28Z"/>
      <polygon class="cls-1" points="4.4 23.55 4.4 37.64 4.4 37.63 4.4 39.89 13.76 26.32 12.47 25.93 4.4 23.55"/>
      <path class="cls-2" d="M4.71,37.59s0,.03,0,.04v1.27l8.56-12.41-8.56-2.53v13.63h0ZM4.4,40.2s-.06,0-.09-.02c-.13-.04-.22-.16-.22-.29v-2.22s0-.02,0-.04v-14.09c0-.1.05-.19.13-.25.08-.06.18-.08.27-.05l9.36,2.77c.09.03.17.1.2.19.03.09.02.2-.04.28l-9.36,13.57c-.06.09-.15.14-.25.14Z"/>
      <polygon class="cls-1" points="34.64 22.43 34.64 6.09 26.57 17.79 25.28 19.67 34.64 22.43"/>
      <path class="cls-2" d="M25.77,19.49l8.56,2.53V7.08s-8.56,12.41-8.56,12.41h0ZM34.64,22.74s-.06,0-.09-.01l-9.36-2.76c-.09-.03-.17-.1-.2-.19-.03-.1-.02-.2.04-.28l9.36-13.58c.08-.11.22-.16.34-.12.13.04.22.16.22.29v16.34c0,.1-.05.19-.13.25-.06.04-.12.06-.18.06Z"/>
      <path class="cls-1" d="M32.86,2.91L6.18,18.32c-.49.28-.93.77-1.26,1.33-.3.52-.5,1.1-.52,1.64v2.26c13.65,4.04.38.11,13.75,4.07.41.12.89.02,1.37-.25.48-.28.96-.73,1.37-1.32,14.07-20.41.27-.39,13.75-19.95v-2.26c-.02-.51-.22-.87-.52-1.05-.32-.19-.77-.16-1.26.12Z"/>
      <path class="cls-2" d="M4.71,23.55h.01-.01ZM4.71,23.32l13.53,4c.32.09.71.02,1.12-.23.45-.26.89-.69,1.27-1.23,6.72-9.75,7.08-10.27,7.1-10.29l.02.02c.12-.23.39-.62.89-1.34l5.69-8.25v-2.16c-.02-.37-.15-.65-.37-.78-.23-.13-.58-.09-.95.12L6.33,18.58c-.42.24-.84.69-1.14,1.22-.29.5-.46,1.04-.48,1.5v2.01h0ZM18.52,27.97c-.16,0-.31-.02-.46-.07l-13.75-4.06c-.13-.04-.22-.16-.22-.3v-2.26c.02-.58.22-1.21.56-1.8.36-.63.85-1.14,1.37-1.44L32.71,2.65h0c.57-.33,1.13-.37,1.56-.12.41.23.65.7.67,1.3v2.27c0,.06-.02.12-.05.18-6.29,9.12-6.64,9.63-6.65,9.65l-.03-.02c-.13.24-.41.65-.94,1.42l-6.13,8.89c-.43.62-.94,1.11-1.47,1.42-.4.23-.79.35-1.15.35Z"/>
      <path class="cls-3" d="M34.64,6.09v-2.26l-14.22,20.61c-.27.39-.59.69-.9.88-.31.18-.63.25-.9.17l-14.21-4.2v2.26c12.33,3.64,2.96.88,13.75,4.07.41.12.89.02,1.37-.25.48-.28.96-.73,1.37-1.32,14.07-20.41.27-.39,13.75-19.95Z"/>
      <path class="cls-2" d="M34.64,6.09h0,0ZM4.71,23.32l13.53,4c.32.09.71.02,1.12-.23.45-.26.89-.69,1.27-1.23,6.72-9.75,7.08-10.27,7.1-10.29l.02.02c.12-.23.39-.62.89-1.34l5.69-8.25v-1.17l-13.65,19.8c-.29.42-.64.76-1,.97-.4.23-.79.3-1.14.2l-13.82-4.09v1.61h0ZM18.52,27.97c-.16,0-.31-.02-.46-.07l-13.75-4.06c-.13-.04-.22-.16-.22-.3v-2.26c0-.1.05-.19.13-.25.08-.06.18-.08.27-.05l14.22,4.2c.18.06.41,0,.66-.14.29-.16.57-.43.8-.78L34.38,3.66c.08-.11.21-.16.35-.12.13.04.22.16.22.3v2.26c0,.06-.02.12-.05.18-6.29,9.12-6.64,9.63-6.65,9.65l-.03-.02c-.13.24-.41.65-.94,1.42l-6.13,8.89c-.43.62-.94,1.11-1.47,1.42-.4.23-.79.35-1.15.35Z"/>
      <path class="cls-3" d="M4.79,19.89l-4.09-2.36c-.22.45-.36.9-.39,1.41l4.09,2.36c.03-.5.17-.95.39-1.4Z"/>
      <path class="cls-2" d="M.63,18.76l3.52,2.04c.05-.26.13-.52.24-.78l-3.56-2.05c-.11.27-.18.53-.21.8h0ZM4.4,21.6c-.05,0-.11-.02-.15-.04L.15,19.2c-.1-.06-.16-.17-.15-.28.03-.52.17-1,.42-1.53.04-.08.11-.13.19-.16.08-.03.17-.02.24.03l4.09,2.36c.14.08.19.26.12.4-.22.45-.33.85-.36,1.29,0,.11-.07.2-.16.25-.05.02-.1.04-.15.04Z"/>
    </g>
  </g>
</svg>