<?xml version="1.0" encoding="UTF-8"?>
<svg id="Layer_2" data-name="Layer 2" xmlns="http://www.w3.org/2000/svg" viewBox="0 0 22.02 40.97" fill="currentColor">
  <defs>
    <style>
      .cls-1 {
        fill: #fff;
      }

      .cls-1, .cls-2, .cls-3, .cls-4 {
        fill-rule: evenodd;
      }

      .cls-2 {
        fill: #1a87c7;
      }

      .cls-3 {
        fill: #bdedf8;
      }

      .cls-4 {
        fill: #66ceef;
      }
    </style>
  </defs>
  <g id="_Layer_" data-name="&amp;lt;Layer&amp;gt;">
    <g>
      <path class="cls-4" d="M1.31,31.53l-.9-.52c-.17-.13-.09-.37-.02-.53l1.67-3.18c.03-.06.07-.11.11-.16l.9.52c-.1.11-.16.25-.23.38l-1.56,2.97c-.08.16-.16.4.02.53Z"/>
      <path class="cls-2" d="M2.28,27.55l-1.61,3.07c-.06.12-.05.17-.05.17l.35.2s.03-.08.05-.12l1.56-2.98s.04-.09.07-.13l-.37-.21h0ZM1.33,31.84c-.06,0-.11-.02-.17-.05l-.9-.52c-.18-.14-.39-.4-.14-.93l1.68-3.19c.05-.09.09-.15.15-.22.1-.11.26-.14.39-.07l.9.52c.08.04.13.13.15.22.02.09-.01.18-.07.25-.06.06-.1.15-.15.25,0,0-.03.07-.04.07l-1.56,2.97c-.06.12-.05.17-.05.17.13.1.15.26.06.4-.06.08-.15.13-.25.13Z"/>
      <path class="cls-4" d="M3.08,27.65l-.9-.52c.63-.72,1.2-1.48,1.77-2.25.61-.83,1.21-1.66,1.8-2.49.82-1.17,1.63-2.35,2.43-3.54,1.74-2.61,3.47-5.26,4.93-8.04l.9.52c-1.47,2.78-3.19,5.43-4.94,8.04-.8,1.19-1.61,2.37-2.43,3.54-.59.84-1.19,1.67-1.8,2.49-.57.76-1.14,1.53-1.77,2.24Z"/>
      <path class="cls-2" d="M2.65,27.06l.36.21c.57-.67,1.11-1.39,1.59-2.04.6-.82,1.2-1.65,1.8-2.49.82-1.17,1.63-2.35,2.43-3.53,1.61-2.42,3.31-5.01,4.78-7.75l-.37-.21c-1.47,2.75-3.18,5.35-4.8,7.79-.8,1.19-1.61,2.37-2.44,3.54-.6.84-1.2,1.67-1.8,2.5-.49.66-1,1.33-1.54,1.98h0ZM3.08,27.96c-.06,0-.11-.01-.16-.04l-.9-.52c-.08-.05-.14-.13-.15-.22-.01-.09.01-.19.07-.25.62-.72,1.2-1.49,1.75-2.23.6-.82,1.2-1.65,1.8-2.49.82-1.17,1.63-2.34,2.43-3.53,1.67-2.5,3.42-5.18,4.91-8.01.04-.08.11-.13.19-.15.08-.02.17-.01.24.03l.9.52c.14.08.19.26.12.41-1.51,2.87-3.28,5.56-4.95,8.07-.8,1.19-1.61,2.37-2.44,3.55-.59.84-1.19,1.67-1.81,2.5-.53.71-1.14,1.52-1.78,2.26-.06.07-.15.11-.23.11Z"/>
      <path class="cls-4" d="M13.09,16.78c-3.91,6.3-4.94,7.85-9.29,13.08-.04.05-.08.08-.12.12l-2.09,1.49c-.14.1-.27.1-.34-.01-.07-.11-.05-.29.04-.47l1.6-3.04c.15-.29.17-.28.38-.53,2.01-2.39,8.28-11.33,10.74-16.09-.32,1.39-.48,2.59-.92,5.44Z"/>
      <path class="cls-2" d="M13.09,16.78h0,0ZM13.33,13.21c-2.84,4.91-8,12.26-9.83,14.42l-.12.13c-.1.12-.12.14-.22.34l-1.57,2.99,1.91-1.36s.04-.03.07-.06c4.24-5.1,5.29-6.65,9.23-13l.21-1.38c.13-.83.23-1.5.32-2.08h0ZM1.4,31.86s-.07,0-.1-.01c-.13-.03-.24-.11-.31-.22-.13-.2-.12-.49.03-.77l1.6-3.04c.13-.25.18-.31.3-.46l.11-.13c2.05-2.42,8.29-11.37,10.71-16.04.07-.14.23-.2.38-.15.15.05.23.21.19.36-.26,1.11-.41,2.13-.69,3.98l-.22,1.44s-.02.08-.04.12c-3.98,6.42-5.04,7.97-9.31,13.12-.05.07-.11.12-.18.17l-2.09,1.5c-.14.1-.27.13-.37.13Z"/>
      <path class="cls-3" d="M15.34,40.64l-1.6-.93-5.62-4.48c-.09-.08-.09-.18-.07-.29l4.45-26.35.02-.08.03-.07.03-.07.04-.07.05-.06.05-.06.06-.05.06-.04,2.34-1.35.06-.03.06-.02h.05s.05,0,.05,0l.04.02,1.58.91-.04-.02h-.05s-.05,0-.05,0l-.06.02-.06.03-2.34,1.35-.06.04-.06.05-.05.06-.05.06-.04.07-.03.07-.03.08-.02.08-4.45,26.35c-.02.12-.02.21.07.29l5.64,4.5Z"/>
      <path class="cls-2" d="M15.32,7l-2.52,1.64-4.44,26.34.97.78,4.5-26.53.24-.37s.07-.07.08-.07c0,0,.1-.07.1-.08l2.02-1.17-.95-.55h0ZM15.34,40.95c-.05,0-.11-.01-.16-.04l-1.61-.93-5.65-4.51c-.23-.22-.2-.47-.19-.57l4.51-26.57.24-.37s.07-.07.08-.07c0,0,.1-.07.11-.08l2.34-1.35s.08-.04.08-.04c.02,0,.15-.04.17-.05.03,0,.1,0,.13,0,.03,0,.1.03.13.04l1.63.94c.14.08.2.27.12.41-.08.13-.23.19-.37.14l-2.53,1.65-4.44,26.34,5.6,4.5c.13.1.15.28.06.41-.06.09-.16.13-.25.13Z"/>
      <polygon class="cls-3" points="15.34 40.64 13.76 39.73 13.74 39.71 12.6 38.8 13.26 38.98 15.31 40.62 15.34 40.64"/>
      <path class="cls-2" d="M15.34,40.95c-.05,0-.11-.01-.15-.04l-1.58-.91s-.05-.03-.07-.04l-1.13-.91c-.12-.09-.15-.25-.08-.38.07-.13.22-.2.36-.16l.66.18s.08.03.11.06l2.06,1.64c.14.09.19.28.1.42-.06.1-.16.15-.26.15Z"/>
      <path class="cls-4" d="M12.32,9.57l.17-.99c.05-.22.14-.37.33-.5l2.06-1.19,1.56.42.55.32c-.1-.05-.15-.03-.25.02l-2.34,1.35c-.19.13-.28.28-.33.5l-.09.52-1.66-.44Z"/>
      <path class="cls-2" d="M12.68,9.35l1.06.28.03-.19c.07-.33.22-.54.46-.71l2.02-1.17-1.32-.35-1.95,1.13c-.1.07-.15.15-.19.3l-.12.7h0ZM13.98,10.32s-.05,0-.08-.01l-1.66-.45c-.16-.04-.25-.19-.23-.35l.17-.99c.08-.33.22-.54.46-.71l2.09-1.2c.07-.04.15-.05.23-.03l1.56.42s.05.02.07.03l.55.32c.14.08.2.27.12.41-.08.15-.26.2-.41.13l-2.3,1.36c-.1.07-.15.15-.19.3l-.08.51c-.02.09-.07.16-.14.21-.05.03-.11.05-.17.05Z"/>
      <polygon class="cls-4" points="10.72 19.08 11.51 14.37 13.17 14.82 12.38 19.53 10.72 19.08"/>
      <path class="cls-2" d="M11.07,18.86l1.06.28.69-4.1-1.06-.28-.69,4.1h0ZM12.38,19.84s-.05,0-.08-.01l-1.66-.45c-.16-.04-.25-.19-.23-.35l.8-4.71c.02-.08.07-.16.14-.21.07-.05.16-.06.25-.04l1.66.44c.15.04.25.19.22.35l-.8,4.71c-.01.09-.07.16-.14.21-.05.03-.11.05-.17.05Z"/>
      <polygon class="cls-4" points="9.11 28.6 9.91 23.89 11.57 24.33 10.77 29.05 9.11 28.6"/>
      <path class="cls-2" d="M9.46,28.38l1.06.28.69-4.1-1.06-.28-.69,4.1h0ZM10.77,29.36s-.05,0-.08-.01l-1.66-.45c-.15-.04-.25-.19-.22-.35l.8-4.71c.01-.08.06-.16.14-.21.07-.05.16-.06.25-.04l1.66.45c.15.04.25.19.23.35l-.79,4.71c-.02.08-.07.16-.14.21-.05.03-.11.05-.17.05Z"/>
      <path class="cls-4" d="M10.2,36.89l-2.08-1.66c-.09-.08-.09-.18-.07-.29l.26-1.57,1.66.44-.34,2.04c-.02.12-.02.21.07.29l1.16.92-.66-.18Z"/>
      <path class="cls-2" d="M8.56,33.75l-.21,1.24.97.79.29-1.75-1.06-.28h0ZM10.86,37.37s-.05,0-.08-.01l-.66-.18s-.08-.03-.11-.06l-2.08-1.66c-.23-.22-.2-.47-.19-.57l.27-1.58c.02-.08.07-.16.14-.21.07-.05.16-.06.25-.04l1.66.45c.16.04.25.19.23.35l-.34,2.04,1.12.93c.11.09.15.25.08.38-.05.11-.16.17-.27.17Z"/>
      <path class="cls-3" d="M17.08,7.75l4.63,21.11c.02.11,0,.25-.08.39l-5.79,11.07c-.07.13-.16.23-.26.29-.1.06-.19.06-.26,0l-5.62-4.48c-.07-.06-.09-.16-.07-.29l4.45-26.35c.03-.2.17-.41.33-.5l2.34-1.35c.16-.09.3-.05.33.12Z"/>
      <path class="cls-2" d="M16.81,7.96l-2.25,1.3c-.07.04-.17.16-.18.29l-4.45,26.35,5.51,4.44c.05-.04.09-.09.12-.15l5.8-11.07c.04-.09.05-.15.05-.18l-4.6-20.97h0ZM15.42,40.97c-.15,0-.25-.07-.3-.11l-5.62-4.48c-.09-.07-.24-.25-.18-.59l4.45-26.35c.05-.3.24-.58.48-.72l2.34-1.35c.17-.1.35-.12.51-.05.14.07.25.19.28.36h0l4.62,21.11c.04.18,0,.39-.1.59l-5.8,11.08c-.09.18-.22.32-.38.41-.11.07-.21.09-.3.09Z"/>
      <path class="cls-1" d="M13.98,10.01l2.53-2.25.23-.13c.16-.09.3-.05.33.12l.65,2.98-4.55,4.03.8-4.76Z"/>
      <path class="cls-2" d="M14.27,10.17l-.64,3.79,3.76-3.34-.58-2.67-.14.08-2.4,2.14h0ZM13.18,15.08c-.05,0-.1-.01-.15-.04-.12-.06-.18-.19-.16-.32l.8-4.76c.01-.07.05-.13.1-.18l2.53-2.24.28-.17c.17-.1.35-.12.51-.05.14.07.25.19.28.36l.65,2.99c.02.11-.01.22-.1.3l-4.55,4.03c-.06.05-.13.08-.2.08Z"/>
      <polygon class="cls-1" points="11.57 24.29 19.22 17.51 18.47 14.12 12.38 19.53 11.57 24.29"/>
      <path class="cls-2" d="M12.66,19.69l-.64,3.79,6.85-6.08-.59-2.7-5.62,4.99h0ZM11.57,24.6s-.1-.01-.15-.04c-.12-.06-.18-.19-.16-.32l.8-4.76c.01-.07.05-.13.1-.18l6.1-5.41c.08-.07.2-.09.3-.06.11.03.18.12.21.23l.74,3.39c.02.11-.01.22-.09.3l-7.64,6.78c-.06.05-.13.08-.2.08Z"/>
      <polygon class="cls-1" points="10.77 29.05 19.96 20.9 20.7 24.29 9.97 33.8 10.77 29.05"/>
      <path class="cls-2" d="M11.06,29.21l-.64,3.79,9.95-8.82-.59-2.7-8.71,7.73h0ZM9.97,34.11c-.05,0-.1-.01-.15-.04-.12-.06-.17-.19-.15-.32l.8-4.76c.01-.07.04-.13.1-.18l9.19-8.15c.08-.07.2-.09.3-.06.1.03.18.12.2.23l.74,3.39c.02.11-.01.22-.1.3l-10.73,9.52c-.06.05-.13.08-.2.08Z"/>
      <path class="cls-1" d="M13.26,38.98l6.12-5.43,2.25-4.3c.07-.14.1-.27.08-.39l-.26-1.19-10.59,9.38,2.4,1.92Z"/>
      <path class="cls-2" d="M11.33,37.05l1.91,1.52,5.88-5.22,2.22-4.25c.04-.09.05-.15.05-.18l-.15-.68-9.92,8.8h0ZM13.26,39.29c-.07,0-.13-.02-.19-.07l-2.4-1.92c-.07-.05-.11-.14-.12-.23,0-.09.04-.18.1-.24l10.59-9.39c.08-.07.2-.1.3-.06.1.03.18.12.2.23l.26,1.19c.04.18,0,.39-.1.59l-2.25,4.3s-.04.06-.07.09l-6.12,5.43c-.06.05-.13.08-.2.08Z"/>
      <path class="cls-4" d="M9.98,4.91c-.14-.18-.04-.3.07-.47,1.01-1.22,3.58-2.65,4.73-3.25l.37-.19c.42-.2,1.7-.86,2.16-.65l2.27,1.31c-.32-.14-.86.1-1.17.21-1.65.69-4.97,2.52-6.09,3.89-.11.18-.21.29-.07.47.49.69,1.02,1.35,1.5,2.05.11.16.56.9.64.98-.72.02-1.25-.19-1.67-.56-.44-.38-.76-1.02-1.09-1.52-.39-.58-.8-1.14-1.22-1.69-.14-.19-.29-.38-.43-.58Z"/>
      <path class="cls-2" d="M10.24,4.74h0c.12.16.23.32.35.47l.07.1c.43.57.84,1.12,1.23,1.71.09.13.18.27.26.42.24.39.49.79.78,1.04.25.22.53.36.86.43-.02-.04-.05-.08-.08-.13-.09-.14-.16-.27-.2-.32-.25-.37-.52-.73-.79-1.08-.24-.32-.48-.64-.71-.97-.25-.32-.07-.62.03-.77,0-.01.04-.06.05-.07,1.22-1.48,4.7-3.35,6.21-3.97l.12-.05c.07-.02.14-.05.21-.08l-1.46-.84c-.08-.04-.46-.02-1.75.61l-.48.24c-1.07.56-3.67,2-4.63,3.18-.03.05-.07.1-.07.12h0s.01-.02.01-.02h0ZM14.28,9.57c-.69,0-1.28-.21-1.76-.63-.36-.31-.63-.75-.89-1.18-.08-.14-.17-.27-.25-.4-.39-.57-.8-1.12-1.21-1.68l-.07-.1c-.12-.16-.24-.32-.36-.49-.26-.33-.07-.62.03-.77,0-.01.04-.07.05-.08,1-1.21,3.46-2.61,4.83-3.33l.5-.25c1.05-.51,1.84-.81,2.3-.6l2.3,1.32c.14.08.2.26.12.41-.07.15-.25.21-.4.14-.17-.07-.61.09-.82.18l-.12.04c-1.54.64-4.86,2.46-5.96,3.79-.03.05-.07.1-.07.12.24.3.48.61.71.93.27.36.55.73.81,1.1.04.06.13.19.22.35.11.19.33.53.39.6.09.08.12.21.07.33-.04.12-.16.19-.28.19-.04,0-.08,0-.13,0Z"/>
      <path class="cls-3" d="M19.56,2.01c-.19.5-.75,2.4-1.52,3.86-.99,1.87-1.23,1.96-3.7,3.38-.35.2-1.77-2.59-2.08-3.03-1-.74,8.3-6.11,7.3-4.22Z"/>
      <path class="cls-2" d="M12.5,6.04s0,0,0,0c.08.12.24.4.44.74.32.56,1.03,1.83,1.35,2.13l.16-.09c2.22-1.28,2.4-1.38,3.3-3.1.59-1.11,1.05-2.48,1.32-3.29.08-.22.14-.4.18-.52-.65.1-2.62,1.04-4.54,2.29-1.62,1.05-2.13,1.64-2.22,1.83h0ZM14.27,9.57s-.06,0-.09-.01c-.38-.1-.85-.84-1.77-2.46-.17-.3-.31-.55-.39-.67-.11-.11-.27-.37.01-.8.8-1.2,6.67-4.86,7.69-4.26.1.05.37.27.12.76-.04.11-.1.28-.17.5-.28.83-.75,2.22-1.36,3.38-.99,1.88-1.33,2.07-3.54,3.35l-.28.16c-.05.03-.14.05-.22.05Z"/>
      <path class="cls-2" d="M12.18,6.34s-.1-.01-.14-.04l-2.26-1.2c-.15-.08-.21-.27-.13-.42.08-.15.27-.21.42-.13l2.26,1.2c.15.08.21.27.13.42-.06.11-.16.17-.27.17Z"/>
    </g>
  </g>
</svg>