<?xml version="1.0" encoding="UTF-8"?>
<svg id="Layer_2" data-name="Layer 2" xmlns="http://www.w3.org/2000/svg" viewBox="0 0 34.32 42.95" fill="currentColor">
  <defs>
    <style>
      .cls-1 {
        fill: #fff;
      }

      .cls-1, .cls-2, .cls-3, .cls-4 {
        fill-rule: evenodd;
      }

      .cls-2 {
        fill: #1a87c7;
      }

      .cls-3 {
        fill: #bdedf8;
      }

      .cls-4 {
        fill: #66ceef;
      }
    </style>
  </defs>
  <g id="_Layer_" data-name="&amp;lt;Layer&amp;gt;">
    <g>
      <path class="cls-4" d="M17.68,28.23l9.43-5.45c.5-.28.81-.84.81-1.4v-2.47l.42-.23.94.56v2.48c0,.76-.55,1.7-1.21,2.09l-9.59,5.54-.81-1.11Z"/>
      <path class="cls-2" d="M18.13,28.33l.45.62,9.35-5.41c.58-.33,1.05-1.17,1.05-1.83v-2.3l-.63-.38-.1.05v2.29c0,.68-.39,1.33-.97,1.67l-9.14,5.27h0ZM18.5,29.66c-.11,0-.21-.04-.26-.13l-.81-1.11c-.05-.07-.08-.16-.05-.24.03-.09.08-.17.16-.2l9.43-5.46c.39-.23.65-.68.65-1.13v-2.47c0-.11.05-.22.16-.27l.42-.24c.08-.05.21-.05.29,0l.97.57c.1.05.16.16.16.26v2.48c0,.88-.6,1.92-1.36,2.36l-9.62,5.54s-.08.04-.13.04Z"/>
      <path class="cls-4" d="M29.66,19.91c.21-.13.45-.32.45-.59v-5.11c-.03.27-.21.44-.42.58-.6.37-1.7.37-2.28-.09-.16-.12-.29-.29-.29-.49v5.1c0,.28.26.51.47.62.6.3,1.47.3,2.04,0l.03-.02Z"/>
      <path class="cls-2" d="M29.47,19.66l.18.25-.16-.27c.08-.04.29-.18.29-.33v-4.22c-.68.37-1.7.36-2.38,0v4.23c0,.12.18.26.34.35.5.25,1.26.25,1.73,0h0ZM28.58,20.48c-.39,0-.79-.09-1.13-.26-.42-.21-.66-.54-.66-.89v-5.11c0-.17.13-.3.29-.31.16-.02.31.13.31.3.03.12.11.21.18.26.45.36,1.41.38,1.94.06.24-.14.26-.25.26-.33.03-.17.16-.31.32-.29.16.01.29.14.29.31v5.11c0,.34-.21.63-.58.85h0s-.03.02-.03.02c-.34.18-.76.28-1.2.28Z"/>
      <path class="cls-4" d="M34.01,6.81l-3.62-2.08c-2.93,1.71-5.89,3.41-8.86,5.1v6.7c.03.26.05.45.29.61l3.62,2.09c-.24-.16-.26-.35-.29-.61v-6.7c2.96-1.7,5.89-3.41,8.86-5.11Z"/>
      <path class="cls-2" d="M21.85,10.02v6.52c.03.23.05.29.16.36l2.83,1.65v-6.62c0-.11.08-.21.16-.27l8.38-4.84-2.99-1.72-8.54,4.93h0ZM25.44,19.53c-.05,0-.11-.02-.16-.04l-3.61-2.08c-.37-.25-.42-.56-.42-.86v-6.72c0-.1.05-.21.16-.26l8.83-5.11c.1-.05.21-.05.31,0l3.62,2.09c.08.05.16.15.16.26,0,.11-.08.22-.16.27l-8.7,5.01v6.53c0,.22.05.29.13.35.16.1.18.28.11.42-.08.09-.16.15-.26.15Z"/>
      <path class="cls-1" d="M26.09,19.16c2.62-1.52,4.35-2.5,6.97-4.02.26-.15.5-.41.68-.69h0c.16-.3.26-.63.26-.93v-6.7c-2.96,1.7-5.89,3.41-8.86,5.11v6.7c0,.29.11.5.29.61.16.09.39.08.65-.07Z"/>
      <path class="cls-2" d="M25.47,12.09v6.53c0,.16.05.29.13.34.05.04.21.02.34-.07l6.97-4.02c.21-.12.42-.33.55-.58.16-.26.24-.54.24-.77v-6.16l-8.23,4.75h0ZM25.68,19.59c-.13,0-.29-.03-.39-.1-.29-.16-.45-.47-.45-.87v-6.7c0-.11.08-.21.16-.27l8.86-5.1c.1-.06.21-.06.31,0,.08.05.16.15.16.26v6.7c0,.34-.13.73-.34,1.08-.18.36-.47.64-.76.82l-6.97,4.02h0c-.18.11-.39.17-.58.17Z"/>
      <path class="cls-3" d="M34.01,6.81l-3.62-2.08c-2.93,1.71-5.89,3.41-8.86,5.1l3.61,2.09c2.96-1.7,5.89-3.41,8.86-5.11Z"/>
      <path class="cls-2" d="M22.16,9.83l2.99,1.73,8.23-4.76-2.99-1.72-8.23,4.75h0ZM25.15,12.22c-.05,0-.11,0-.16-.03l-3.59-2.09c-.11-.05-.16-.16-.16-.27,0-.1.05-.21.16-.26l8.83-5.11c.1-.05.21-.05.31,0l3.62,2.09c.08.05.16.15.16.26,0,.11-.08.22-.16.27l-8.86,5.11c-.05.03-.1.03-.16.03Z"/>
      <path class="cls-4" d="M31.1,4.02c.13-.07.26-.18.26-.34V.81c-.03.15-.11.24-.24.32-.34.21-.97.21-1.28-.05-.11-.06-.16-.16-.16-.27v2.87c0,.17.13.29.26.36.34.17.81.17,1.15,0h0Z"/>
      <path class="cls-2" d="M30.94,3.76l.16.26-.16-.27c.08-.03.1-.07.1-.08V1.5c-.34.12-.73.12-1.07,0v2.17s.05.03.13.08c.21.12.6.12.84,0h0ZM30.52,4.46c-.26,0-.5-.05-.71-.16-.29-.14-.45-.37-.45-.62V.81c0-.17.13-.3.29-.31h.03c.16,0,.29.13.29.3.26.21.73.23,1,.08.05-.03.08-.07.08-.09,0-.16.16-.28.31-.28h0c.18,0,.31.15.31.31v2.87c-.03.24-.16.45-.42.6h0v.02c-.24.11-.5.17-.73.17Z"/>
      <path class="cls-4" d="M30.52,1.28c.73,0,1.13-.52.58-.83-.52-.3-1.42-.09-1.42.34,0,.34.5.49.84.49Z"/>
      <path class="cls-2" d="M30.52.62c-.13,0-.26.02-.39.07-.1.04-.16.09-.16.1.03.06.26.18.55.18.34,0,.5-.15.52-.18h0s-.03-.04-.1-.08c-.11-.06-.26-.1-.42-.1h0ZM30.52,1.59c-.55,0-1.15-.28-1.15-.8,0-.24.13-.46.39-.61.37-.21,1.02-.28,1.49,0,.31.18.47.47.39.76-.1.38-.55.64-1.13.64Z"/>
      <path class="cls-1" d="M30.52,7.29c.21,0,.42-.05.58-.14.18-.1.26-.23.26-.35s-.08-.25-.26-.35c-.16-.09-.37-.14-.58-.14-.23,0-.45.05-.6.14-.16.1-.24.22-.24.35s.08.25.24.35c.16.09.37.14.6.14Z"/>
      <path class="cls-2" d="M29.97,6.81s.03.03.1.07c.21.13.66.13.86,0,.08-.04.1-.08.1-.09h0s-.03-.03-.1-.07c-.21-.13-.65-.13-.86,0-.08.04-.1.08-.1.09h0ZM30.52,7.59c-.29,0-.55-.06-.76-.18-.26-.15-.39-.36-.39-.61s.13-.46.39-.61c.42-.24,1.1-.24,1.49,0,.26.15.42.36.42.61s-.16.46-.42.61c-.21.12-.47.18-.73.18Z"/>
      <path class="cls-1" d="M31.1,7.14c.13-.07.26-.18.26-.33v-3.53c-.03.16-.13.27-.26.34-.37.2-.97.18-1.28-.07-.08-.07-.13-.16-.13-.27v3.53c0,.17.16.3.29.36.34.15.81.15,1.13-.02h0Z"/>
      <path class="cls-2" d="M30.94,6.88l.16.26-.16-.27c.08-.03.1-.07.1-.08v-2.82c-.31.11-.73.12-1.07,0v2.83s.05.05.13.09c.23.11.63.1.84-.02h0ZM30.52,7.59c-.23,0-.47-.05-.65-.14-.31-.14-.5-.38-.5-.65v-3.53c0-.17.13-.3.29-.3.13,0,.31.12.31.29.26.21.71.23.97.09.05-.03.1-.07.1-.09,0-.17.13-.31.31-.29.18,0,.31.14.31.3v3.53c-.03.24-.16.44-.42.59h0v.02c-.24.12-.47.18-.73.18Z"/>
      <path class="cls-4" d="M25.86,7.04c.13-.07.24-.18.26-.33v-2.88c-.03.15-.13.25-.23.33-.37.21-.97.2-1.31-.05-.08-.07-.16-.17-.16-.28v2.88c0,.16.16.29.29.35.31.17.81.17,1.13,0l.03-.02Z"/>
      <path class="cls-2" d="M25.7,6.78l.16.26-.16-.26c.08-.04.1-.08.1-.09v-2.16c-.34.12-.76.12-1.07,0v2.17s.03.04.11.08c.24.12.63.12.86-.01h0ZM25.26,7.49c-.26,0-.5-.05-.71-.16-.26-.15-.42-.37-.45-.62v-2.88c0-.16.16-.3.31-.3.18.03.31.13.31.29.26.21.73.23.97.07.05-.02.1-.05.1-.08,0-.16.13-.29.31-.29h0c.16,0,.29.14.29.3v2.88c0,.24-.13.45-.39.6h-.03c-.21.13-.47.18-.73.18Z"/>
      <path class="cls-4" d="M25.26,4.31c.76,0,1.13-.52.6-.83-.52-.3-1.44-.09-1.44.35,0,.34.5.49.84.49Z"/>
      <path class="cls-2" d="M25.26,3.65c-.13,0-.26.02-.37.06-.13.05-.16.1-.16.11,0,.06.26.18.52.18.37,0,.52-.15.55-.19h0s-.03-.03-.1-.07c-.11-.07-.26-.09-.45-.09h0ZM25.26,4.62c-.55,0-1.15-.28-1.15-.79,0-.24.16-.46.42-.61.34-.21,1-.29,1.49,0,.31.18.45.47.39.76-.11.39-.58.64-1.15.64Z"/>
      <path class="cls-1" d="M25.26,10.32c.21,0,.45-.05.6-.15.16-.09.26-.22.26-.34,0-.13-.1-.25-.26-.35-.16-.1-.39-.14-.6-.14s-.42.04-.58.14c-.18.1-.26.22-.26.35,0,.12.08.24.26.34.16.1.37.15.58.15Z"/>
      <path class="cls-2" d="M24.73,9.83s.03.03.08.08c.23.12.68.12.89,0,.08-.05.1-.08.1-.09h0s-.03-.03-.1-.07c-.21-.13-.66-.13-.89,0-.05.03-.08.07-.08.08h0ZM25.26,10.62c-.26,0-.52-.06-.73-.18-.26-.15-.42-.36-.42-.61s.16-.47.42-.62c.39-.23,1.07-.23,1.49.01.26.14.39.36.39.61s-.13.46-.39.61c-.21.12-.47.18-.76.18Z"/>
      <path class="cls-1" d="M25.86,10.17c.13-.08.24-.18.26-.34v-3.52c-.03.16-.13.27-.29.34-.34.19-.94.18-1.26-.08-.08-.06-.16-.16-.16-.26v3.52c0,.17.18.3.31.36.31.16.79.15,1.1-.02h.03Z"/>
      <path class="cls-2" d="M25.7,9.9l.16.27-.16-.27c.08-.04.1-.08.1-.09v-2.81c-.31.11-.73.12-1.07,0v2.83s.05.05.13.09c.24.11.6.11.84-.02h0ZM25.26,10.61c-.24,0-.47-.04-.66-.13-.29-.15-.47-.38-.5-.64v-3.53c0-.17.16-.3.31-.31h0c.18,0,.31.13.31.3.24.21.71.23.97.09.05-.03.1-.07.1-.1,0-.16.13-.31.31-.29.16,0,.29.15.29.31v3.52c0,.24-.13.45-.39.6h0s-.03,0-.03,0c-.21.12-.47.17-.73.17Z"/>
      <polygon class="cls-3" points="14.3 24.73 15.35 24.13 28.22 31.56 27.19 32.16 14.23 39.63 13.7 39.94 13.18 40.23 13.18 42.64 .31 35.21 .31 32.81 .84 32.51 1.36 32.21 14.3 24.73"/>
      <path class="cls-2" d="M.63,35.04l12.26,7.07v-1.87c0-.1.05-.21.13-.26l14.59-8.42-12.26-7.07L.63,32.98v2.05h0ZM13.18,42.95c-.05,0-.1-.02-.16-.04L.16,35.48c-.08-.06-.16-.16-.16-.27v-2.4c0-.11.08-.21.16-.27l14.02-8.08h0l1.02-.6c.1-.05.24-.05.31,0l12.86,7.43c.1.05.16.15.16.27,0,.11-.05.21-.16.26l-14.88,8.6v2.22c0,.1-.05.21-.16.26-.05.03-.1.04-.16.04Z"/>
      <polygon class="cls-1" points="27.19 32.16 28.22 31.56 28.22 33.96 25.47 35.54 15.93 41.05 13.18 42.64 13.18 40.23 13.7 39.94 14.23 39.63 27.19 32.16"/>
      <path class="cls-2" d="M13.49,40.42v1.69l14.44-8.33v-1.68l-.6.33h0l-13.83,8h0ZM13.18,42.95c-.05,0-.1-.02-.16-.04-.08-.05-.13-.16-.13-.26v-2.41c0-.1.05-.21.13-.26l14.02-8.08h0l1.02-.6c.1-.05.24-.05.31,0,.1.05.16.15.16.27v2.4c0,.11-.05.21-.16.26l-15.04,8.68c-.05.03-.1.04-.16.04Z"/>
      <path class="cls-3" d="M9.96,37.17l-4.38-2.51V12.49c.05-.73.18-1.04.5-1.69.39-.61.6-.87,1.2-1.28l9.54-5.51c.5-.23.71-.31,1.23-.11l4.35,2.51-.26-.1-.29-.02-.31.07-.34.17-9.54,5.5c-.58.4-.84.71-1.21,1.28-.34.65-.45.96-.5,1.69v22.16Z"/>
      <path class="cls-2" d="M5.89,34.47l3.75,2.16V15c.05-.78.18-1.14.52-1.83.39-.61.68-.96,1.31-1.39l9.82-5.65-3.41-1.97c-.37-.13-.47-.08-.94.13l-9.51,5.49c-.52.37-.71.59-1.1,1.18-.29.6-.39.87-.45,1.54v21.97h0ZM9.96,37.48c-.05,0-.11-.02-.16-.05l-4.38-2.52c-.08-.05-.16-.16-.16-.26V12.49c.08-.79.21-1.15.55-1.83.45-.68.68-.97,1.31-1.4l9.56-5.52c.55-.26.84-.36,1.47-.14l4.4,2.54c.13.09.18.26.13.4-.08.15-.23.22-.39.15l-.21-.08h-.21s-.29.05-.29.05l-.26.14-9.54,5.49c-.5.36-.76.66-1.1,1.17-.29.61-.39.88-.45,1.55v22.14c0,.12-.05.21-.16.27-.03.03-.08.05-.13.05Z"/>
      <path class="cls-1" d="M11.66,12.04l9.54-5.5c.94-.55,1.7-.11,1.7.98v22.16l-12.94,7.48V15c0-1.09.76-2.42,1.7-2.97Z"/>
      <path class="cls-2" d="M11.79,12.31c-.84.49-1.55,1.72-1.55,2.69v21.63l12.34-7.13V7.52c0-.4-.11-.71-.34-.83-.21-.13-.55-.09-.89.11l-9.56,5.51h0ZM9.96,37.48c-.05,0-.11-.02-.16-.05-.1-.06-.16-.15-.16-.27V15c0-1.19.84-2.64,1.86-3.24h0l9.54-5.5c.55-.32,1.1-.36,1.52-.12.42.25.65.74.65,1.37v22.16c0,.11-.05.22-.16.27l-12.97,7.48s-.08.05-.13.05Z"/>
      <polygon class="cls-1" points="11.76 14.36 20.75 9.17 20.75 16.47 11.76 21.66 11.76 14.36"/>
      <path class="cls-2" d="M12.05,14.53v6.59l8.38-4.83v-6.6l-8.38,4.83h0ZM11.76,21.97c-.05,0-.1-.02-.16-.04-.1-.06-.16-.16-.16-.27v-7.3c0-.11.05-.22.16-.27l8.99-5.19c.08-.05.21-.05.31,0,.08.05.16.16.16.27v7.3c0,.11-.08.22-.16.27l-9.01,5.19s-.08.04-.13.04Z"/>
      <polygon class="cls-3" points="11.76 14.36 20.75 9.17 20.75 16.47 11.76 21.66 11.76 14.36"/>
      <path class="cls-2" d="M12.05,14.53v6.59l8.38-4.83v-6.6l-8.38,4.83h0ZM11.76,21.97c-.05,0-.1-.02-.16-.04-.1-.06-.16-.16-.16-.27v-7.3c0-.11.05-.22.16-.27l8.99-5.19c.08-.05.21-.05.31,0,.08.05.16.16.16.27v7.3c0,.11-.08.22-.16.27l-9.01,5.19s-.08.04-.13.04Z"/>
      <path class="cls-2" d="M18.08,12.86l.16.27s-.08.09-.08.12v2.06l1.02-.57s.05-.1.05-.13v-2.06l-1,.59-.16-.27h0ZM17.97,16.06c-.05,0-.13-.03-.21-.06-.13-.08-.21-.23-.21-.41v-2.33c0-.26.16-.54.37-.67l1.26-.71c.13-.09.31-.1.45-.03.16.09.23.24.23.42v2.32c0,.26-.16.54-.39.67l-1.23.71c-.08.05-.16.08-.26.08Z"/>
      <path class="cls-2" d="M15.75,14.57s-.08.09-.08.13v2.06l1.02-.58s.05-.09.05-.12v-2.06l-1,.57h0ZM15.48,17.5c-.05,0-.13-.02-.21-.05-.13-.09-.21-.24-.21-.42v-2.32c0-.26.16-.54.37-.67h0l1.23-.71c.18-.09.34-.09.5-.02.13.08.21.23.21.42v2.32c0,.26-.16.54-.39.67l-1.23.71c-.08.04-.18.07-.26.07Z"/>
      <path class="cls-2" d="M14.25,15.43l-1,.58h0s-.08.09-.08.12v2.07l1-.58s.08-.1.08-.13v-2.06h0ZM12.99,18.94c-.08,0-.16-.02-.21-.06-.13-.08-.21-.23-.21-.41v-2.33c0-.26.16-.54.37-.67l1.23-.7c.16-.09.34-.11.47-.02.16.08.24.23.24.41v2.33c0,.26-.16.54-.39.66l-1.23.71c-.08.05-.18.08-.26.08Z"/>
      <path class="cls-4" d="M10.48,13.25l-4.35-2.52-.05.08c-.32.64-.45.96-.5,1.69v22.16l4.38,2.51V15c.05-.73.16-1.03.5-1.69l.03-.07Z"/>
      <path class="cls-2" d="M5.89,34.47l3.75,2.16V15c.05-.71.16-1.07.45-1.65l-3.82-2.21c-.24.49-.31.76-.37,1.35v21.97h0ZM9.96,37.48c-.05,0-.11-.02-.16-.05l-4.38-2.52c-.08-.05-.16-.16-.16-.26V12.49c.08-.79.18-1.13.55-1.83l.05-.1c.1-.14.29-.18.42-.1l4.35,2.51c.08.04.13.11.16.2.03.08,0,.17-.05.23l-.05.08c-.29.6-.39.87-.45,1.54v22.14c0,.12-.05.21-.16.27-.03.03-.08.05-.13.05Z"/>
      <polygon class="cls-4" points="13.18 40.36 13.18 42.64 .31 35.21 .31 32.94 13.18 40.36"/>
      <path class="cls-2" d="M.63,35.04l12.26,7.07v-1.56L.63,33.47v1.56h0ZM13.18,42.95c-.05,0-.1-.02-.16-.04L.16,35.48c-.08-.06-.16-.16-.16-.27v-2.27c0-.11.08-.22.16-.27.11-.05.24-.05.31,0l12.86,7.43c.11.05.16.15.16.26v2.28c0,.1-.05.21-.16.26-.05.03-.1.04-.16.04Z"/>
    </g>
  </g>
</svg>