<?xml version="1.0" encoding="UTF-8"?>
<svg id="Layer_2" data-name="Layer 2" xmlns="http://www.w3.org/2000/svg" viewBox="0 0 44.15 32.27" fill="currentColor">
  <defs>
    <style>
      .cls-1 {
        fill: #fff;
      }

      .cls-1, .cls-2, .cls-3, .cls-4 {
        fill-rule: evenodd;
      }

      .cls-2 {
        fill: #1a87c7;
      }

      .cls-3 {
        fill: #bdedf8;
      }

      .cls-4 {
        fill: #66ceef;
      }
    </style>
  </defs>
  <g id="_Layer_" data-name="&amp;lt;Layer&amp;gt;">
    <g>
      <path class="cls-4" d="M11.45,14c-.76-1.44-3.12-3.82-4.9-2.83l-2.65,1.53c1.94-1.03,4.24,1.53,5.11,3.25.76,1.48,1.42,4.2-.21,5.24.5-.3,2.65-1.46,2.96-1.78,1.34-1.28.5-3.95-.31-5.41Z"/>
      <path class="cls-2" d="M5.35,12.21c.13.02.23.05.34.09,1.49.48,2.91,2.16,3.62,3.51.52,1.05,1.13,2.96.65,4.38.68-.39,1.44-.84,1.6-1,1.18-1.13.42-3.63-.37-5.04,0,0-.03,0-.03,0-.47-.92-1.73-2.4-3.09-2.8-.5-.16-.97-.13-1.39.1l-1.34.77h0ZM8.8,21.5c-.1,0-.21-.06-.29-.15-.08-.14-.03-.33.1-.42,1.44-.9.86-3.39.13-4.85-.65-1.28-1.99-2.8-3.25-3.2-.52-.17-1.02-.14-1.47.09-.16.08-.34.02-.42-.12-.08-.15-.03-.33.13-.41l2.65-1.53c.55-.31,1.18-.36,1.86-.15,1.41.43,2.86,1.91,3.46,3.1.76,1.35,1.81,4.29.26,5.78-.26.26-1.36.88-2.54,1.55l-.5.27s-.08.04-.13.04Z"/>
      <path class="cls-4" d="M8.78,15.53c-.63-1.09-1.47-2.04-2.44-2.59-.94-.55-1.83-.61-2.44-.24h0c-.63.36-1.02,1.14-1.02,2.25s.39,2.33,1.02,3.41c.6,1.09,1.49,2.04,2.44,2.59.97.55,1.83.6,2.46.24.63-.36,1-1.14,1-2.24s-.37-2.33-1-3.41h-.03Z"/>
      <path class="cls-2" d="M4.79,12.78c-.29,0-.52.06-.76.19-.55.32-.86,1.02-.86,1.98,0,1.01.37,2.17,1,3.26.63,1.09,1.44,1.97,2.33,2.48.84.48,1.57.56,2.15.24.55-.32.86-1.02.86-1.98,0-1.02-.37-2.17-1-3.26l.26-.16-.26.16c-.6-1.09-1.44-1.97-2.33-2.48-.5-.29-.97-.43-1.39-.43h0ZM7.89,21.73c-.52,0-1.1-.17-1.7-.52-.97-.56-1.86-1.52-2.57-2.7-.68-1.18-1.05-2.45-1.05-3.57,0-1.18.42-2.08,1.18-2.51.73-.44,1.73-.35,2.75.24.97.56,1.89,1.52,2.57,2.7v.04h0c.68,1.14,1.05,2.41,1.05,3.53,0,1.18-.42,2.07-1.18,2.51-.31.18-.65.27-1.05.27Z"/>
      <path class="cls-3" d="M7.7,16.17c.31.6.55,1.27.55,1.88s-.24,1.03-.55,1.23c-.37.2-.84.17-1.36-.13-.52-.3-1-.83-1.34-1.43l-.03-.03c-.34-.59-.55-1.25-.55-1.85s.21-1.03.58-1.23h0c.34-.2.81-.17,1.34.13.52.3,1,.82,1.36,1.42Z"/>
      <path class="cls-2" d="M5.5,14.79c-.13,0-.26.03-.37.09-.26.15-.39.5-.39.97,0,.52.18,1.13.5,1.69.37.61.79,1.07,1.26,1.34.42.24.79.28,1.05.13.26-.15.39-.49.39-.96,0-.53-.18-1.15-.52-1.73h0c-.31-.58-.76-1.04-1.23-1.31-.23-.15-.47-.22-.68-.22h0ZM7.21,19.72c-.34,0-.68-.1-1.02-.3-.55-.32-1.07-.86-1.47-1.54-.37-.69-.58-1.4-.58-2.03,0-.7.24-1.23.71-1.5.45-.27,1.05-.22,1.65.13.55.32,1.07.87,1.47,1.54h0c.37.67.6,1.39.6,2.03,0,.7-.26,1.23-.73,1.5-.18.11-.39.17-.63.17Z"/>
      <path class="cls-3" d="M.31,7.77l18.76,10.84v6.02c-2.86-1.67-6.26-3.64-9.27-5.39v-.3c0-1.1-.37-2.33-1-3.41h-.03c-.63-1.09-1.47-2.04-2.44-2.59-.94-.55-1.83-.61-2.44-.24h0c-.63.36-1.02,1.14-1.02,2.25v.3l-.92-.52c-.45-.26-.86-.72-1.18-1.24-.29-.52-.47-1.11-.47-1.64v-4.07Z"/>
      <path class="cls-2" d="M10.11,19.08c2.83,1.63,5.95,3.45,8.67,5.02v-5.31L.63,8.3v3.54c0,.45.16,1,.45,1.49.26.49.66.9,1.05,1.13l.45.26c.05-1.07.47-1.87,1.18-2.28.73-.44,1.73-.35,2.75.24.97.56,1.89,1.52,2.57,2.7.68,1.18,1.05,2.45,1.05,3.57v.13h0ZM19.07,24.94c-.05,0-.08-.01-.13-.04-2.88-1.66-6.29-3.63-9.3-5.38-.11-.06-.16-.17-.16-.29.03-.09.03-.18.03-.28,0-1.02-.37-2.17-1-3.26-.6-1.09-1.44-1.97-2.33-2.48-.81-.48-1.6-.56-2.15-.24-.55.32-.86,1.02-.86,1.98,0,.09.03.19.03.29,0,.11-.05.22-.16.28-.08.06-.21.06-.31,0l-.89-.53c-.5-.28-.97-.76-1.31-1.35-.34-.59-.52-1.23-.52-1.8v-4.07c0-.11.05-.21.16-.27.1-.06.21-.06.31,0l18.76,10.84c.11.06.16.16.16.27v6.02c0,.11-.05.21-.16.27-.05.03-.1.04-.16.04Z"/>
      <path class="cls-4" d="M.31,7.77L13.23.31l18.86,10.89-12.94,7.46C13.28,15.26,6.08,11.11.31,7.77Z"/>
      <path class="cls-2" d="M.92,7.77l18.23,10.53,12.31-7.11L13.23.66.92,7.77h0ZM19.15,18.96c-.05,0-.08-.01-.13-.04L.16,8.04c-.11-.06-.16-.16-.16-.27s.05-.21.16-.27L13.07.04c.1-.06.24-.06.31,0l18.86,10.88c.08.05.13.16.13.27s-.05.21-.13.27l-12.94,7.46c-.05.03-.11.04-.16.04Z"/>
      <path class="cls-3" d="M10.58,6.07c2.44-1.41,6.42-1.41,8.86,0,2.46,1.41,2.46,3.7,0,5.11-2.44,1.41-6.42,1.41-8.86,0-2.46-1.41-2.46-3.7,0-5.11Z"/>
      <path class="cls-2" d="M15.01,5.32c-1.55,0-3.09.34-4.27,1.02h0c-1.07.63-1.68,1.44-1.68,2.29s.6,1.66,1.68,2.29c2.36,1.36,6.18,1.36,8.54,0,1.1-.63,1.68-1.44,1.68-2.29s-.58-1.67-1.68-2.29c-1.18-.68-2.72-1.02-4.27-1.02h0ZM15.01,12.55c-1.65,0-3.33-.36-4.58-1.09-1.28-.74-1.99-1.74-1.99-2.82s.71-2.08,1.99-2.82c2.54-1.46,6.65-1.46,9.17,0,1.28.74,1.99,1.74,1.99,2.82s-.71,2.09-1.99,2.82c-1.26.73-2.93,1.09-4.58,1.09Z"/>
      <path class="cls-4" d="M12.26,17.56l.86-.5c.1-.07.16-.09.29-.02l5.4,3.12c.18.12.26.27.29.48,0,1.1-.03,3.75-.03,4.85l-1,.59c.05-.06.05-.09.08-.18v-4.71c-.03-.21-.1-.36-.29-.48l-5.42-3.13c-.08-.03-.1-.05-.18-.02Z"/>
      <path class="cls-2" d="M12.94,17.51l5.08,2.93c.26.19.39.43.42.72v4.34l.34-.19v-4.67c0-.09-.05-.16-.13-.23l-5.37-3.09-.34.19h0ZM18.08,26.39c-.1,0-.21-.05-.26-.13-.08-.12-.08-.28.03-.38v-4.68c0-.09-.05-.16-.16-.23l-5.37-3.1c-.13.02-.29-.06-.34-.18-.05-.14,0-.31.13-.38l.86-.5c.16-.1.34-.17.6-.02l5.4,3.12c.26.18.39.42.42.72v4.88c0,.11-.05.21-.16.27l-1.02.59s-.08.04-.13.04Z"/>
      <path class="cls-3" d="M18.16,25.32v.59c0,.18-.13.25-.29.16l-5.42-3.13c-.16-.09-.26-.3-.29-.47v-4.73c.03-.17.13-.24.29-.15l5.42,3.13c.16.09.29.3.29.48v4.13Z"/>
      <path class="cls-2" d="M12.47,17.95v4.51c0,.06.08.17.13.2l5.24,3.02v-4.5c0-.07-.08-.18-.13-.21l-5.24-3.03h0ZM18,26.41c-.1,0-.18-.03-.29-.08l-5.42-3.13c-.24-.14-.42-.45-.42-.73v-4.74c0-.2.08-.36.23-.44.13-.08.32-.08.5.02l5.42,3.13c.24.14.42.46.42.75v4.72c0,.2-.08.36-.24.45-.05.04-.13.06-.21.06Z"/>
      <path class="cls-4" d="M13.65,20.69c.31.18.55.03.55-.32s-.24-.78-.55-.95c-.29-.18-.55-.03-.55.32s.26.78.55.95Z"/>
      <path class="cls-2" d="M13.41,19.66v.08c0,.24.18.57.39.69h0s.05.03.08.03v-.08c0-.24-.18-.57-.39-.69-.03-.02-.05-.03-.08-.03h0ZM13.89,21.08c-.13,0-.26-.04-.39-.12h0c-.39-.23-.71-.76-.71-1.22,0-.28.13-.51.31-.62.21-.12.47-.1.71.04.39.23.71.76.71,1.22,0,.28-.13.51-.32.62-.1.05-.21.08-.31.08Z"/>
      <path class="cls-3" d="M11.87,6.82c1.76-1,4.56-1,6.29,0,1.73,1,1.73,2.62,0,3.62-1.73,1-4.53,1-6.29,0-1.73-1-1.73-2.62,0-3.62Z"/>
      <path class="cls-2" d="M12.03,7.09c-.73.42-1.13.97-1.13,1.54s.39,1.12,1.13,1.54c1.65.95,4.32.95,5.97,0,.73-.43,1.13-.97,1.13-1.54s-.39-1.12-1.13-1.54c-1.65-.95-4.32-.95-5.97,0h0ZM15.01,11.49c-1.21,0-2.38-.26-3.3-.78-.92-.54-1.44-1.28-1.44-2.07s.52-1.53,1.44-2.07h0c1.83-1.05,4.77-1.05,6.58,0,.94.54,1.47,1.28,1.47,2.07s-.52,1.54-1.44,2.07c-.92.52-2.12.78-3.3.78Z"/>
      <path class="cls-4" d="M29.68,24.54c-.76-1.45-3.12-3.82-4.9-2.83l-2.65,1.53c1.94-1.03,4.24,1.54,5.11,3.24.76,1.48,1.42,4.2-.21,5.24.5-.3,2.65-1.46,2.96-1.78,1.34-1.28.5-3.95-.31-5.41Z"/>
      <path class="cls-2" d="M23.61,22.75c.11.02.21.05.31.08,1.49.48,2.91,2.16,3.62,3.51.52,1.05,1.13,2.96.63,4.38.71-.4,1.47-.84,1.62-1,1.18-1.14.42-3.64-.37-5.04-.03,0-.03,0-.03,0-.47-.92-1.73-2.4-3.07-2.8-.52-.16-1-.13-1.41.1l-1.31.77h0ZM27.04,32.04c-.11,0-.21-.06-.29-.15-.08-.14-.03-.33.1-.42,1.44-.91.86-3.39.13-4.84-.65-1.28-1.99-2.8-3.25-3.2-.52-.17-1.02-.14-1.47.09-.16.08-.34.02-.42-.12-.08-.15-.03-.33.13-.41l2.65-1.53c.55-.31,1.18-.36,1.86-.15,1.44.43,2.86,1.92,3.46,3.1.76,1.35,1.81,4.29.26,5.78-.26.26-1.34.88-2.54,1.55l-.5.27s-.08.04-.13.04Z"/>
      <path class="cls-4" d="M27.01,26.07c-.6-1.09-1.47-2.04-2.44-2.59-.94-.55-1.83-.61-2.44-.24h0c-.63.36-1.02,1.14-1.02,2.24s.39,2.33,1.02,3.42c.6,1.09,1.49,2.04,2.44,2.59.97.55,1.83.61,2.46.24.63-.36,1-1.14,1-2.24s-.37-2.33-1-3.41h-.03Z"/>
      <path class="cls-2" d="M23.03,23.31c-.29,0-.52.06-.76.19-.55.32-.86,1.02-.86,1.97,0,1.02.37,2.18,1,3.26.63,1.09,1.44,1.96,2.33,2.47.81.48,1.6.56,2.15.24.55-.32.86-1.02.86-1.97,0-1.02-.37-2.18-1-3.26l.26-.16-.26.15c-.63-1.09-1.44-1.96-2.33-2.47-.5-.28-.97-.43-1.39-.43h0ZM26.12,32.27c-.52,0-1.1-.17-1.7-.52-.97-.56-1.86-1.52-2.57-2.7-.68-1.18-1.05-2.45-1.05-3.57,0-1.18.42-2.07,1.18-2.51.73-.44,1.73-.35,2.75.24.97.56,1.89,1.52,2.57,2.7h0c.68,1.19,1.05,2.45,1.05,3.57,0,1.18-.42,2.07-1.18,2.51-.31.18-.65.27-1.05.27Z"/>
      <path class="cls-3" d="M25.94,26.71c.34.6.55,1.27.55,1.88s-.21,1.03-.55,1.23c-.37.2-.84.17-1.36-.13-.52-.3-1-.83-1.34-1.43l-.03-.03c-.34-.59-.55-1.25-.55-1.85s.21-1.03.58-1.23h0c.34-.2.81-.17,1.34.13.52.3,1,.83,1.36,1.42Z"/>
      <path class="cls-2" d="M23.74,25.33c-.13,0-.26.03-.37.09-.26.15-.39.5-.39.97,0,.52.18,1.13.5,1.7.37.61.79,1.07,1.26,1.34.39.23.79.28,1.05.13.26-.15.39-.5.39-.97,0-.54-.18-1.15-.52-1.73h0c-.31-.58-.76-1.04-1.23-1.31-.24-.15-.47-.22-.68-.22h0ZM25.44,30.26c-.32,0-.68-.1-1.02-.3-.55-.32-1.07-.86-1.47-1.54-.37-.69-.58-1.4-.58-2.03,0-.7.24-1.23.71-1.5.45-.26,1.05-.22,1.65.13.55.32,1.07.87,1.47,1.54h0c.37.67.58,1.39.58,2.04,0,.7-.24,1.23-.71,1.5-.18.11-.39.17-.63.17Z"/>
      <path class="cls-1" d="M27.72,13.66l12.92-7.46c.29.43.47.85.6,1.36l1.55,7.24c.03.19.05.36.05.55v7.75l-12.92,7.46v-7.75c-.03-.2-.03-.36-.08-.56l-1.55-7.24c-.1-.51-.29-.93-.58-1.36Z"/>
      <path class="cls-2" d="M28.14,13.77c.21.38.37.75.47,1.18l1.52,7.24c.05.18.08.38.08.62v7.22l12.31-7.11v-7.57c0-.18-.03-.32-.05-.5l-1.55-7.23c-.08-.36-.21-.68-.39-1.01l-12.39,7.16h0ZM29.92,30.87c-.08,0-.13-.01-.16-.04-.1-.05-.16-.16-.16-.27v-7.75c0-.18-.03-.32-.05-.5l-1.55-7.23c-.11-.45-.29-.84-.55-1.25-.05-.07-.08-.16-.05-.24.03-.08.08-.15.16-.2l12.92-7.46c.13-.08.31-.04.42.09.31.48.5.93.63,1.46l1.55,7.24c.03.18.05.37.05.62v7.75c0,.11-.05.21-.16.27l-12.92,7.46c-.05.03-.08.04-.13.04Z"/>
      <path class="cls-3" d="M19.07,8.62c0-.18.13-.25.29-.16l7.34,4.24c.37.22.73.56,1.02.97h0c.26.41.47.88.58,1.36l1.55,7.24c.05.19.08.36.08.56v7.75c0,.18-.13.25-.29.16l-1.6-.92v-.32c0-1.1-.37-2.33-1-3.41h-.03c-.6-1.09-1.47-2.04-2.44-2.59-.94-.55-1.83-.61-2.44-.24h0c-.63.36-1.02,1.14-1.02,2.24v.33c-.76-.45-1.47-.85-2.04-1.18V8.62Z"/>
      <path class="cls-2" d="M28.35,29.63l1.26.72v-7.53c0-.15-.03-.29-.05-.5l-1.55-7.23c-.11-.43-.29-.86-.55-1.25-.26-.38-.58-.69-.92-.88l-7.15-4.13v15.63l1.41.82c.05-1.08.45-1.89,1.18-2.3.73-.44,1.73-.35,2.75.24.97.56,1.89,1.52,2.57,2.7.68,1.18,1.05,2.45,1.05,3.57v.15h0ZM29.76,31.07c-.1,0-.18-.03-.29-.08l-1.6-.92c-.11-.06-.16-.17-.16-.29.03-.1.03-.2.03-.3,0-1.02-.37-2.18-1-3.26-.63-1.09-1.44-1.97-2.33-2.48-.81-.48-1.6-.56-2.15-.24-.55.32-.86,1.02-.86,1.97,0,.1.03.21.03.31,0,.11-.05.22-.16.28-.08.06-.21.06-.31,0l-2.02-1.18c-.1-.06-.16-.16-.16-.26V8.62c0-.2.08-.36.24-.45.13-.09.31-.08.5.02l7.34,4.24c.42.24.79.6,1.1,1.06.31.45.55.96.66,1.47l1.52,7.24c.05.17.08.38.08.62v7.75c0,.2-.08.36-.23.45-.05.04-.13.06-.21.06Z"/>
      <path class="cls-4" d="M21.25,11.35l4.8,2.76c.24.13.42.33.6.57h0c.16.24.29.51.34.79h0l1.26,5.96c.05.19-.05.32-.18.28-.03,0-.05-.02-.08-.03h0l-6.73-3.88c-.13-.09-.26-.3-.26-.48v-5.81c0-.17.13-.25.26-.16Z"/>
      <path class="cls-2" d="M21.25,11.35l-.16.27s0,0,.03,0l.13-.27h0ZM21.3,11.73v5.6c0,.07.05.18.1.21l6.5,3.74-1.23-5.74c-.05-.23-.16-.47-.29-.68-.13-.2-.31-.37-.5-.47l-4.58-2.66h0ZM28.11,22.03c-.05,0-.08,0-.13-.02-.05-.01-.11-.04-.16-.07l-6.71-3.88c-.26-.14-.45-.46-.45-.75v-5.81c0-.2.11-.36.24-.44.16-.09.34-.08.5.02h0l4.79,2.76c.26.15.5.38.68.66.21.27.34.59.39.9l1.28,5.95c.03.22,0,.41-.13.54-.1.08-.21.12-.31.12Z"/>
      <polygon class="cls-4" points="29.24 14.48 40.27 8.11 41.81 15.35 30.79 21.72 29.24 14.48"/>
      <path class="cls-2" d="M29.58,14.63l1.41,6.6,10.45-6.04-1.39-6.61-10.48,6.04h0ZM30.79,22.03c-.05,0-.08-.01-.13-.03-.08-.04-.16-.12-.18-.21l-1.52-7.24c-.03-.13.03-.27.13-.33l11.03-6.37c.08-.05.18-.06.29-.01.08.04.16.12.18.22l1.52,7.24c.03.13-.03.26-.13.33l-11.03,6.36c-.05.03-.1.04-.16.04Z"/>
      <polygon class="cls-3" points="30.29 19.35 35.84 16.21 36.89 14.35 39.77 12.71 41.32 13.11 41.81 15.35 30.79 21.72 30.29 19.35"/>
      <path class="cls-2" d="M30.63,19.51l.37,1.73,10.45-6.04-.39-1.84-1.26-.31-2.7,1.53-1,1.79s-.08.09-.13.12l-5.34,3.03h0ZM30.79,22.03c-.05,0-.08-.01-.13-.03-.08-.04-.16-.12-.18-.21l-.5-2.37c-.03-.13.03-.26.16-.33l5.47-3.1,1-1.79s.08-.09.13-.12l2.88-1.63c.05-.04.16-.05.24-.03l1.55.39c.13.03.21.12.24.23l.47,2.25c.03.13-.03.26-.13.33l-11.03,6.36c-.05.03-.1.04-.16.04Z"/>
      <path class="cls-3" d="M27.96,20.02l.29,1.42c.05.19-.05.32-.18.28-.03,0-.05-.02-.08-.03h0l-6.73-3.88c-.13-.09-.26-.3-.26-.48v-1.01l6.97,3.7Z"/>
      <path class="cls-2" d="M21.3,16.83v.5c0,.07.05.18.1.21l6.5,3.74-.24-1.06-6.37-3.4h0ZM28.11,22.03c-.05,0-.08,0-.13-.02-.05-.02-.11-.04-.16-.06l-6.71-3.88c-.26-.14-.45-.46-.45-.74v-1.01c0-.11.05-.21.16-.26.08-.06.21-.06.29,0l6.97,3.7c.08.04.13.12.16.21l.31,1.42c.03.22,0,.41-.13.54-.1.08-.21.12-.31.12Z"/>
      <path class="cls-1" d="M39.61,5.23c.45.25.73.57,1.02.97l-12.92,7.46h0c-.29-.38-.63-.74-1.02-.97l-7.34-4.24s-.08-.03-.11-.04l.05-.03L32.12.99c.08-.03.13-.01.21.02l7.28,4.22Z"/>
      <path class="cls-2" d="M19.89,8.4l6.97,4.02c.34.2.65.48.94.83l12.37-7.15c-.21-.26-.42-.45-.71-.61l-7.26-4.2-12.31,7.11h0ZM27.72,13.97c-.1,0-.21-.05-.26-.14-.26-.38-.58-.68-.92-.88l-7.34-4.23c-.13-.01-.24-.11-.26-.24-.03-.13.05-.26.16-.33L31.96.72c.26-.1.39-.04.5,0l7.31,4.23h0c.45.26.79.58,1.13,1.06.05.07.05.16.05.24-.05.09-.08.16-.16.2l-12.92,7.46c-.05.03-.11.04-.16.04Z"/>
      <path class="cls-2" d="M22.66,20.33c-.05,0-.1-.01-.16-.04l-1.81-1.04c-.13-.09-.18-.27-.11-.42.08-.15.26-.2.42-.11l1.78,1.04c.16.08.21.27.13.42-.08.1-.18.15-.26.15Z"/>
      <path class="cls-3" d="M40.98,20.83c-.55.32-1,.06-1-.58s.45-1.42,1-1.75c.55-.32,1.02-.06,1.02.58s-.47,1.42-1.02,1.75Z"/>
      <path class="cls-2" d="M41.42,18.67c-.08,0-.18.03-.29.1-.47.27-.86.95-.86,1.48,0,.19.05.34.16.39.08.05.24.02.39-.07h0c.47-.27.86-.95.86-1.48,0-.19-.05-.34-.16-.39-.03-.02-.05-.03-.11-.03h0ZM40.98,20.83h.03-.03ZM40.53,21.27c-.16,0-.29-.03-.42-.11-.29-.17-.44-.5-.44-.92,0-.75.5-1.64,1.15-2.01.37-.21.73-.23,1.02-.07.29.16.47.5.47.92,0,.75-.52,1.63-1.18,2.01h0c-.21.12-.42.18-.6.18Z"/>
      <polygon class="cls-4" points="43.2 23.04 43.2 21.09 29.92 28.78 29.92 30.73 43.2 23.04"/>
      <path class="cls-2" d="M30.21,28.95v1.24l12.68-7.33v-1.24l-12.68,7.33h0ZM29.92,31.04c-.08,0-.13-.02-.16-.04-.1-.06-.16-.16-.16-.27v-1.95c0-.11.05-.21.16-.27l13.28-7.69c.08-.06.21-.05.29,0,.11.06.16.16.16.27v1.95c0,.11-.05.21-.16.27l-13.28,7.69c-.05.03-.08.04-.13.04Z"/>
      <path class="cls-3" d="M32.02,25.98c-.55.33-1,.06-1-.58s.45-1.43,1-1.75c.58-.32,1.02-.06,1.02.58s-.45,1.43-1.02,1.75Z"/>
      <path class="cls-2" d="M32.46,23.82c-.08,0-.18.03-.29.1-.45.27-.84.95-.84,1.48,0,.19.05.34.13.38.08.05.24.03.39-.07h0c.47-.27.86-.95.86-1.48,0-.19-.05-.33-.13-.38-.03-.02-.08-.03-.13-.03h0ZM31.57,26.42c-.16,0-.29-.03-.42-.11-.29-.17-.45-.5-.45-.92,0-.75.52-1.64,1.15-2.01.37-.21.76-.23,1.02-.07.29.16.47.5.47.92,0,.75-.52,1.64-1.18,2.01h0c-.21.12-.39.18-.6.18Z"/>
      <path class="cls-2" d="M34.14,24.94h0c-.16,0-.31-.14-.31-.31v-2.98c0-.17.16-.31.31-.31h0c.18,0,.31.14.31.31v2.98c0,.17-.13.31-.31.31Z"/>
      <path class="cls-2" d="M35.29,24.28h0c-.18,0-.31-.14-.31-.31v-2.98c0-.17.16-.31.31-.31h0c.16,0,.31.14.31.31l-.03,2.98c0,.17-.13.31-.29.31Z"/>
      <path class="cls-2" d="M36.5,23.59h0c-.18,0-.31-.14-.31-.31v-2.98c0-.17.13-.31.31-.31h0c.16,0,.29.14.29.31v2.98c0,.17-.13.31-.29.31Z"/>
      <path class="cls-2" d="M37.65,22.91c-.16,0-.29-.14-.29-.31l-.03-2.98c0-.17.13-.31.31-.31h0c.16,0,.32.14.32.31v2.98c0,.17-.13.31-.32.31h0Z"/>
      <path class="cls-2" d="M38.88,22.21h0c-.18,0-.31-.14-.31-.31v-2.98c0-.17.13-.31.31-.31h0c.16,0,.29.14.29.31v2.98c0,.17-.13.31-.29.31Z"/>
      <path class="cls-4" d="M29.92,30.73c-.08.06-.16.07-.26,0l-1.62-.94v-.31c0-.64-.13-1.32-.34-1.99l2.23,1.28v1.95Z"/>
      <path class="cls-2" d="M28.35,29.63l1.26.72v-1.4l-1.42-.81c.1.46.16.91.16,1.34v.14h0ZM29.79,31.09c-.08,0-.18-.03-.29-.08l-1.62-.94c-.11-.06-.16-.17-.16-.29,0-.1.03-.19.03-.3,0-.59-.13-1.23-.37-1.89-.03-.12,0-.26.1-.34.11-.08.24-.09.34-.03l2.23,1.28c.1.06.16.16.16.27v1.95c0,.08-.03.15-.08.2-.08.1-.21.15-.34.15Z"/>
      <polygon class="cls-1" points="28.22 21.72 28.22 18.42 26.93 19.16 26.93 22.46 28.22 21.72"/>
      <path class="cls-2" d="M27.22,19.34v2.59l.68-.38v-2.59l-.68.39h0ZM26.93,22.77c-.05,0-.1-.01-.16-.04-.1-.05-.16-.16-.16-.27v-3.3c0-.11.05-.21.16-.27l1.28-.74c.11-.05.21-.05.31,0,.08.06.13.16.13.27v3.3c0,.11-.05.21-.13.27l-1.31.74s-.08.04-.13.04Z"/>
      <path class="cls-2" d="M28.22,22.03c-.1,0-.21-.06-.26-.16-.11-.15-.05-.34.1-.42l.63-.37c.16-.08.34-.03.42.11.1.15.05.34-.1.42l-.63.37c-.05.03-.1.04-.16.04Z"/>
      <polygon class="cls-1" points="43.83 12.66 43.83 9.36 42.55 10.1 42.55 13.4 43.83 12.66"/>
      <path class="cls-2" d="M42.84,10.28v2.59l.68-.39v-2.59l-.68.39h0ZM42.55,13.71c-.05,0-.1-.01-.16-.04-.1-.06-.16-.16-.16-.27v-3.3c0-.11.05-.21.16-.27l1.28-.74c.11-.06.21-.06.31,0,.1.05.16.16.16.27v3.3c0,.11-.05.21-.16.27l-1.28.74c-.05.03-.11.04-.16.04Z"/>
    </g>
  </g>
</svg>