<?xml version="1.0" encoding="UTF-8"?>
<svg id="Layer_2" data-name="Layer 2" xmlns="http://www.w3.org/2000/svg" viewBox="0 0 35.55 41.95" fill="currentColor">
  <defs>
    <style>
      .cls-1 {
        fill: #fff;
      }

      .cls-1, .cls-2, .cls-3, .cls-4 {
        fill-rule: evenodd;
      }

      .cls-2 {
        fill: #1a87c7;
      }

      .cls-3 {
        fill: #bdedf8;
      }

      .cls-4 {
        fill: #66ceef;
      }
    </style>
  </defs>
  <g id="_Layer_" data-name="&amp;lt;Layer&amp;gt;">
    <g>
      <path class="cls-4" d="M20.08,12.88v8.74l6.25,3.61v-8.74c0-.11-.02-.16-.1-.23l-6.24-3.61c.09.07.09.11.1.23Z"/>
      <path class="cls-2" d="M20.4,21.45l5.62,3.24v-8.21l-5.62-3.24v8.2h0ZM26.33,25.54c-.05,0-.1,0-.16-.04l-6.24-3.6c-.09-.06-.15-.16-.15-.27v-8.77c-.13-.1-.15-.26-.05-.4.09-.13.27-.15.41-.07l6.24,3.61c.23.18.25.34.26.46v8.78c0,.11-.06.21-.16.26-.04.03-.1.04-.15.04Z"/>
      <path class="cls-4" d="M26.33,31.55l-6.25-3.6v7.02c.03.39.08.68.42.91l6.24,3.6c-.33-.23-.39-.51-.41-.9v-7.03Z"/>
      <path class="cls-2" d="M20.4,28.49v6.49c.02.37.08.51.28.66l5.36,3.09s0-.08-.01-.12v-6.87l-5.62-3.25h0ZM26.74,39.8c-.05,0-.11-.02-.16-.04l-6.24-3.61c-.48-.33-.55-.77-.56-1.16v-7.04c0-.11.06-.22.15-.27.1-.05.21-.05.31,0l6.24,3.61c.09.05.16.16.16.26v7.03c.02.37.08.51.28.65.14.09.18.28.09.42-.06.1-.15.15-.26.15Z"/>
      <path class="cls-3" d="M26.33,25.24l-6.25-3.61-10.27,5.93c-.1.05-.14.07-.25.03l6.25,3.61c.1.04.15.02.24-.03l10.27-5.93Z"/>
      <path class="cls-2" d="M10.29,27.64l5.62,3.24,9.8-5.65-5.63-3.25-9.8,5.66h0ZM15.91,31.52c-.06,0-.13-.02-.21-.04l-6.29-3.62c-.14-.09-.2-.26-.13-.4.07-.15.24-.22.39-.16l10.25-5.94c.1-.05.21-.05.31,0l6.24,3.61c.09.06.16.16.16.27s-.06.21-.16.26l-10.26,5.94c-.1.04-.18.09-.31.09Z"/>
      <polygon class="cls-3" points="15.71 27.4 9.47 23.8 .31 36.2 6.55 39.8 15.71 27.4"/>
      <path class="cls-2" d="M.76,36.11l5.71,3.29,8.78-11.91-5.71-3.29L.76,36.11h0ZM6.55,40.12c-.05,0-.11-.02-.15-.04L.15,36.47c-.07-.04-.13-.12-.15-.21-.02-.09,0-.17.05-.24l9.16-12.4c.09-.13.27-.17.4-.09l6.25,3.61c.07.04.12.11.15.2.02.09,0,.17-.06.25l-9.15,12.4c-.06.08-.16.12-.25.12Z"/>
      <polygon class="cls-3" points="29.06 3.91 22.82 .31 16.65 14.47 22.89 18.07 29.06 3.91"/>
      <path class="cls-2" d="M17.04,14.34l5.71,3.29,5.92-13.58-5.7-3.29-5.93,13.59h0ZM22.89,18.38c-.05,0-.1-.02-.15-.05l-6.25-3.61c-.13-.08-.19-.24-.13-.38L22.54.19c.03-.08.09-.14.18-.17.09-.03.17,0,.25.03l6.24,3.61c.14.08.19.25.13.39l-6.17,14.16c-.04.08-.11.14-.19.17-.03,0-.06.02-.1.02Z"/>
      <path class="cls-1" d="M26.33,16.49v8.74l-10.27,5.93c-.19.11-.35.02-.35-.2v-3.56l-9.16,12.4,9.16,1.83v-3.55c0-.22.16-.5.35-.6l10.27-5.94v7.03c0,.89.63,1.26,1.4.81l2.68-1.55c.77-.44,1.41-1.53,1.41-2.43V13.32c0-.22.16-.5.35-.61l3.08-1.77-6.18-7.02-6.17,14.16,3.09-1.79c.2-.1.36-.02.36.21Z"/>
      <path class="cls-2" d="M26.33,25.24h.01-.01ZM7.09,39.6l8.31,1.66v-3.17c0-.33.22-.7.5-.87l10.27-5.93c.1-.06.21-.06.31,0,.09.05.16.16.16.26v7.03c0,.31.1.55.26.64s.41.06.68-.1l2.69-1.55c.68-.39,1.24-1.38,1.24-2.16V13.32c0-.33.22-.7.5-.87l2.76-1.59-5.61-6.38-5.6,12.86,2.28-1.31c.19-.11.39-.12.56-.03.16.09.25.27.25.5v8.74c0,.11-.06.21-.16.26l-10.26,5.94c-.19.1-.39.11-.56.03-.17-.1-.26-.28-.26-.5v-2.62l-8.31,11.26h0ZM15.71,41.95s-.04,0-.06,0l-9.16-1.83c-.1-.02-.18-.09-.23-.19-.03-.09-.03-.21.04-.3l9.15-12.4c.09-.1.22-.15.35-.1.12.04.21.16.21.29v3.43l10-5.78v-8.43l-2.97,1.71c-.11.07-.26.05-.36-.03-.11-.09-.13-.23-.08-.36l6.17-14.15c.04-.1.13-.16.23-.18.1,0,.21.02.28.09l6.18,7.03c.06.07.09.16.07.25-.02.09-.07.17-.15.22l-3.08,1.77c-.11.06-.2.23-.2.34v22.1c0,1.01-.68,2.19-1.55,2.69l-2.68,1.55c-.47.27-.93.31-1.31.1-.36-.21-.57-.63-.57-1.17v-6.49l-9.8,5.66c-.1.06-.2.23-.2.34v3.55c0,.1-.03.18-.11.24-.05.04-.12.07-.19.07Z"/>
    </g>
  </g>
</svg>