<?xml version="1.0" encoding="UTF-8"?>
<svg id="Layer_2" data-name="Layer 2" xmlns="http://www.w3.org/2000/svg" viewBox="0 0 30.54 46.36" fill="currentColor">
  <defs>
    <style>
      .cls-1 {
        fill: #fff;
      }

      .cls-1, .cls-2, .cls-3 {
        fill-rule: evenodd;
      }

      .cls-2 {
        fill: #1a87c7;
      }

      .cls-3 {
        fill: #66ceef;
      }
    </style>
  </defs>
  <g id="_Layer_" data-name="&amp;lt;Layer&amp;gt;">
    <g>
      <path class="cls-1" d="M7.89,27.74c.24-.31.79-1.05.97-1.37.37-.63.36-1.64.43-2.38,2.96,3.42,9.91-.9,12.68-2.49.11,1.71.76,2.49,1.31,3.58h0c2.59,4.03.9,15.1-2.06,16.2-3.29,1.23-12.46-10.66-13.34-13.54Z"/>
      <path class="cls-2" d="M8.24,27.79c.96,2.68,7.38,11.02,11.19,12.9.71.36,1.29.45,1.7.3.75-.29,1.53-1.46,2.11-3.22,1.29-3.89,1.51-9.84-.21-12.52-.13-.26-.25-.48-.36-.69-.39-.7-.8-1.44-.95-2.56l-.03.02c-2.97,1.73-8.99,5.23-12.14,2.65-.04.64-.11,1.35-.42,1.86-.18.3-.64.93-.9,1.26h0ZM20.72,41.67c-.45,0-.98-.14-1.56-.43-4.08-2.02-10.74-10.78-11.56-13.42-.03-.1,0-.2.05-.28.24-.3.78-1.04.96-1.33.25-.43.3-1.13.35-1.75,0-.17.03-.35.04-.5.01-.12.1-.22.21-.26.12-.04.24,0,.33.09,2.63,3.05,8.86-.56,11.85-2.3l.44-.26c.1-.05.21-.05.3,0,.09.05.15.15.16.25.08,1.28.49,2.01.92,2.79.12.22.24.44.36.68,1.81,2.79,1.6,8.99.26,13.01-.46,1.4-1.27,3.16-2.49,3.61-.19.07-.4.11-.62.11Z"/>
      <path class="cls-1" d="M7.89,27.74c.24-.31.79-1.05.97-1.37.37-.63.36-1.64.43-2.38,2.96,3.42,9.91-.9,12.68-2.49.09,1.59.67,2.37,1.19,3.35-3.27,7.41-5.14,6.44-8.6,6.44-2.49,0-4.79-1.29-6.65-3.48l-.03-.08Z"/>
      <path class="cls-2" d="M8.28,27.75c1.84,2.12,4.02,3.24,6.29,3.24.38,0,.74,0,1.08.02,2.74.09,4.39.14,7.19-6.14-.06-.1-.11-.2-.16-.3-.39-.7-.8-1.44-.95-2.56l-.03.02c-2.97,1.73-8.99,5.23-12.14,2.65-.04.64-.11,1.35-.42,1.86-.18.3-.61.88-.86,1.22h0ZM16.57,31.64c-.3,0-.62,0-.94-.02-.34-.01-.69-.02-1.06-.02-2.51,0-4.89-1.24-6.88-3.6-.03-.03-.05-.06-.05-.1l-.03-.08c-.04-.1-.02-.2.04-.28.24-.3.78-1.04.96-1.33.25-.43.3-1.13.35-1.75,0-.17.03-.35.04-.5.01-.12.1-.22.21-.26.12-.04.24,0,.33.09,2.63,3.05,8.86-.56,11.85-2.3l.44-.26c.1-.05.21-.05.3,0,.09.05.15.15.16.25.08,1.28.49,2.01.92,2.78.08.15.15.3.23.45.04.09.05.18.01.27-2.66,6.04-4.48,6.67-6.88,6.67Z"/>
      <path class="cls-1" d="M7.76,27.69c.24-.3.92-1,1.11-1.32.37-.63.36-.87.43-1.6,2.96,3.41,9.91-1.68,12.68-3.27.11,1.71.22,2.79.76,3.89h0c.81,1.93-2.04,4.75-5,5.85-2.16.81-4.49.5-6.6-.33-2.24-.86-3.6-2.09-3.39-3.21Z"/>
      <path class="cls-2" d="M8.05,27.82c-.1.9,1.15,1.99,3.21,2.79,2.36.92,4.5,1.02,6.38.33,2.09-.78,4.07-2.43,4.72-3.91.24-.58.28-1.09.09-1.53-.51-1.03-.65-2.09-.75-3.48-.25.15-.54.33-.84.51-3.21,1.98-8.46,5.23-11.33,2.89-.04.36-.13.64-.4,1.1-.14.23-.45.58-.75.91-.13.14-.25.28-.34.38h0ZM15.07,32.01c-1.27,0-2.62-.28-4.02-.83-2.49-.96-3.83-2.29-3.58-3.56.01-.04.03-.09.06-.13.09-.11.24-.29.41-.48.26-.28.57-.63.68-.81.3-.5.31-.7.37-1.25l.02-.23c.01-.12.1-.23.21-.26.12-.04.24,0,.33.09,2.4,2.77,7.79-.57,11-2.56.49-.3.92-.56,1.29-.78.1-.05.21-.05.3,0,.09.05.15.15.16.25.1,1.63.2,2.7.74,3.76.25.62.22,1.3-.1,2.04-.71,1.65-2.79,3.4-5.06,4.24-.88.33-1.81.5-2.8.5Z"/>
      <path class="cls-3" d="M30.23,33.96v-4.54c0-3.63-3.49-5.52-6.59-5.79-.44-.04-.78-.07-1.05-.09-.09.2-.2.38-.3.57.11.44.25.85.46,1.26h0c.81,1.93-2.04,4.75-5,5.85-2.16.81-4.49.5-6.6-.33-2.24-.86-3.6-2.09-3.39-3.21-1.55,2.01-2.28,2.62-3.99,4.49-3.47,3.91-2.9,5.34-2.9,9.82,0,1.37.17,1.72,1.66,2.58,9.97,5.75,27.68-6.81,27.69-10.62Z"/>
      <path class="cls-2" d="M7.53,28.48c-.85,1.06-1.46,1.7-2.25,2.54-.37.39-.78.83-1.28,1.36-2.92,3.29-2.89,4.75-2.83,7.95.01.51.02,1.06.02,1.67,0,1.24.11,1.51,1.5,2.31,6.68,3.86,16.23-1.05,18.99-2.65,5.09-2.94,8.24-6.28,8.24-7.7v-4.54c0-3.4-3.27-5.21-6.3-5.48-.34-.03-.62-.06-.84-.08-.05.1-.1.2-.16.3.11.38.24.73.41,1.08.25.62.22,1.3-.1,2.04-.71,1.65-2.79,3.4-5.06,4.24-2.02.75-4.32.64-6.82-.33-1.93-.75-3.17-1.71-3.51-2.7h0ZM8.61,46.36c-2.36,0-4.47-.5-6.22-1.5-1.53-.89-1.82-1.34-1.82-2.85,0-.6,0-1.14-.02-1.65-.06-3.27-.09-4.9,2.99-8.37.51-.55.91-.98,1.29-1.38.93-.97,1.6-1.68,2.7-3.09.09-.11.23-.15.36-.09.13.06.21.2.18.34-.18.92,1.08,2.04,3.2,2.86,2.36.92,4.5,1.02,6.38.33,2.09-.78,4.07-2.43,4.72-3.91.24-.58.28-1.09.09-1.53-.2-.41-.36-.84-.47-1.31-.02-.08,0-.16.03-.22.1-.18.2-.37.29-.57.06-.1.17-.18.3-.16.27,0,.62.04,1.07.09,3.3.29,6.86,2.31,6.86,6.09v4.54c0,1.89-3.68,5.42-8.55,8.24-4.75,2.74-9.42,4.15-13.38,4.15Z"/>
      <path class="cls-2" d="M14.98,33.65c-.16,0-.31,0-.47-.01-2.85-.14-6.82-1.54-8.56-3.84-.1-.14-.07-.33.06-.43.14-.11.33-.08.43.06,1.62,2.16,5.38,3.47,8.1,3.6,3.83.17,8.01-2.09,9.76-5.28.84-1.53.87-3.31.08-4.55-.1-.14-.05-.33.09-.43.14-.09.33-.05.43.09.9,1.42.89,3.44-.06,5.17-1.78,3.27-5.95,5.62-9.86,5.62Z"/>
      <path class="cls-1" d="M23.92,28.9c.44-.66.83-1.32,1.18-2.06l-.04.08c.98-2.1,1.53-4.04,1.93-6.3.14-.8.25-1.61.33-2.38h0c.03-.31.04-.63.05-.95.02-.29.02-.61.02-.96,0-.25-.03-1.89-.04-2.03,0-.17-.01-.35-.02-.55-.17-1.49-2.03-.77-4.03,0-2.35.9-4.86,1.88-5.87.03l-.02.03c-1.01,1.59-7.88,1.33-8.27,5-.04.33-.06.66-.07,1.01-.02.34-.02.68,0,1.02h0c.21,2.92.19,5.09,1.39,6.34.67.77,1.81,1.87,3.14,2.85,4.77,3.56,7.18,3.6,10.34-1.11Z"/>
      <path class="cls-2" d="M17.39,14.28c-.59.5-1.67.81-2.88,1.14-2.27.63-4.84,1.34-5.07,3.41-.03.32-.05.65-.07.99,0,.32-.02.66,0,.99l.06.99c.16,2.39.26,4.13,1.24,5.14.6.7,1.72,1.81,3.09,2.82,2.68,1.99,4.37,2.69,5.85,2.44,1.34-.22,2.59-1.3,4.05-3.48h0c.43-.63.78-1.25,1.11-1.93v-.02c.9-1.95,1.48-3.81,1.9-6.22.14-.8.25-1.6.32-2.36.03-.3.06-.62.06-.93,0-.29.02-.6.02-.95,0-.25-.04-1.89-.04-2.02-.01-.17-.02-.35-.03-.54-.04-.31-.16-.43-.25-.48-.56-.33-2.04.24-3.36.75-2.24.87-4.77,1.84-6.02.24h0ZM19.04,32.88c-1.49,0-3.19-.8-5.63-2.61-1.2-.9-2.39-1.98-3.19-2.9-1.12-1.17-1.24-3.09-1.4-5.52l-.06-.99c-.02-.36-.01-.71,0-1.05.02-.36.04-.7.08-1.03.26-2.49,3.17-3.3,5.51-3.95,1.29-.36,2.49-.69,2.81-1.19.06-.09.17-.16.27-.15.12,0,.22.05.27.15.89,1.62,3.22.71,5.49-.16,1.65-.64,3.09-1.19,3.89-.7.31.19.5.51.55.97,0,.21.02.4.03.56,0,.14.04,1.79.04,2.04,0,.36-.01.68-.02.97-.02.32-.03.64-.06.96-.08.79-.19,1.6-.34,2.42-.42,2.42-.99,4.3-1.88,6.26-.01.01-.01.03-.02.04-.36.75-.74,1.41-1.2,2.1-1.56,2.33-2.94,3.49-4.46,3.75-.22.04-.45.06-.69.06Z"/>
      <path class="cls-2" d="M17.09,20.74c-.1,0-.2-.05-.26-.15-.09-.14-.05-.33.1-.42,2.59-1.67,4.97-2.88,7.28-3.71.17-.05.34.03.39.19.06.16-.03.33-.18.39-2.26.81-4.6,2.01-7.15,3.65-.05.03-.11.05-.17.05Z"/>
      <path class="cls-2" d="M16.99,19.27c-.11,0-.21-.05-.26-.15-.09-.14-.04-.33.1-.42,2.44-1.45,4.67-2.59,6.8-3.47.17-.07.34,0,.4.17.07.16-.01.34-.17.4-2.09.87-4.29,1.99-6.72,3.43-.04.03-.1.04-.16.04Z"/>
      <path class="cls-1" d="M8.3,13.68c2.08-1,1.23-1.89,3.91-.4,1.97-1.64,4.34-9.71-3.69-12.71-7.31-2.73-13.96,16.61-.22,13.11Z"/>
      <path class="cls-2" d="M8.3,13.68h0,0ZM7.09.62c-1.44,0-2.9.83-4.15,2.38C.96,5.45-.21,9.59,1.34,12c1.13,1.76,3.49,2.23,6.86,1.39.57-.29.9-.55,1.17-.76.76-.62,1.09-.67,2.81.27.96-.96,2-3.58,1.55-6.24-.31-1.86-1.5-4.37-5.31-5.8-.43-.17-.88-.24-1.32-.24h0ZM5.27,14.42c-2.49,0-3.78-1.05-4.45-2.09C-.9,9.66.3,5.29,2.45,2.62,4.28.36,6.53-.5,8.63.29c4.09,1.52,5.36,4.25,5.7,6.27.52,3.07-.77,6.02-1.91,6.96-.1.08-.23.1-.35.03-1.69-.93-1.77-.87-2.31-.43-.28.22-.66.54-1.31.85-.02,0-.04.02-.06.02-1.2.3-2.23.43-3.11.43Z"/>
      <path class="cls-1" d="M6.34,15.98c-.09,4.77,1.6,10.68,4.4,12.45.09-.21.35-1.04.2-1.3-.36-.68-.76-1.89-.94-2.67-.86-3.78,3.31-4.45,4.09,1.12.68-2.36.63-3.45.61-4.56-.02-1.17-.06-1.83.91-2.65,4.55-3.84,13.1,1.62,12.53-7.5-.41-6.6-7.49-8.22-13.35-6.36-5.49,1.74-8.36,5.86-8.47,11.47Z"/>
      <path class="cls-2" d="M6.34,15.98h0,0ZM19.36,4.09c-1.44,0-2.96.23-4.46.71-5.29,1.68-8.14,5.54-8.25,11.18h0c-.08,4.34,1.39,9.98,3.93,11.96.08-.3.13-.59.1-.68-.37-.7-.79-1.95-.96-2.74-.3-1.28-.07-2.34.6-2.93.46-.4,1.08-.5,1.68-.28.95.35,1.7,1.4,2.14,2.89.3-1.37.28-2.2.27-3.01v-.29c-.03-1.14-.03-1.89,1.02-2.78,1.84-1.56,4.33-1.65,6.52-1.74,2.01-.08,3.91-.15,4.96-1.32.76-.84,1.07-2.21.95-4.19-.14-2.29-1.1-4.05-2.84-5.25-1.49-1.02-3.48-1.55-5.65-1.55h0ZM10.74,28.74c-.05,0-.11-.02-.17-.05-2.95-1.86-4.63-7.93-4.55-12.71.11-5.84,3.19-10.02,8.67-11.76,3.93-1.24,8.01-.89,10.65.92,1.88,1.29,2.96,3.27,3.11,5.71.13,2.16-.24,3.68-1.1,4.65-1.24,1.36-3.26,1.44-5.4,1.52-2.2.09-4.47.17-6.14,1.59-.84.69-.83,1.23-.81,2.3v.29c.02,1.08.04,2.19-.61,4.46-.04.14-.18.24-.32.23-.15-.01-.26-.12-.29-.26-.41-2.91-1.64-3.59-2.02-3.73-.4-.15-.77-.09-1.07.17-.49.43-.63,1.29-.4,2.32.16.76.56,1.93.91,2.59.23.45-.17,1.52-.18,1.56-.03.09-.11.16-.19.18-.03.01-.07.02-.11.02Z"/>
      <path class="cls-2" d="M22.63,19.85v2.34c0,.36.11.63.3.73.19.11.48.07.79-.11l3.26-1.89c.22-.12.44-.36.61-.64,0,0,0,0,.01-.02.17-.29.26-.6.26-.86v-2.49s0-.05,0-.08c-.03.02-.05.03-.08.04l-5.14,2.96h0ZM21.42,20.55l-4.9,2.83c-.28.16-.32.2-.32.57v2.54c0,.2.05.35.15.4.09.05.25.03.42-.07l3.27-1.88c.36-.21.71-.59.97-1.05.27-.46.42-.95.42-1.37v-1.98h0ZM16.46,27.54c-.15,0-.3-.03-.42-.1-.3-.17-.46-.51-.46-.94v-2.49c0-.69.19-.9.63-1.15l5.36-3.1c.1-.05.21-.05.3,0,.06.03.1.09.13.15v-.22c0-.11.06-.21.16-.27l5.29-3.05c.24-.14.46-.27.7-.15.21.11.27.36.3.63v2.57c0,.36-.12.77-.34,1.16,0,0,0,0,0,.02-.22.38-.52.7-.84.89l-3.26,1.87c-.51.3-1.01.34-1.4.11-.31-.18-.52-.51-.58-.94h0c0,.54-.17,1.13-.5,1.69-.32.56-.75,1.01-1.21,1.27l-3.26,1.89c-.21.11-.42.17-.62.17Z"/>
      <path class="cls-2" d="M15.7,23.66s-.09,0-.13-.02l-3.51-1.59c-.15-.07-.23-.25-.15-.41.07-.16.25-.23.41-.16l3.51,1.59c.15.07.23.25.15.41-.05.11-.16.18-.28.18Z"/>
      <path class="cls-2" d="M21.72,20.33c-.1,0-.21-.06-.26-.16-.09-.15-.03-.34.11-.42l.59-.34c.14-.09.33-.04.42.11.09.15.03.34-.11.42l-.59.34c-.05.03-.11.05-.16.05Z"/>
    </g>
  </g>
</svg>