<?xml version="1.0" encoding="UTF-8"?>
<svg id="Layer_2" data-name="Layer 2" xmlns="http://www.w3.org/2000/svg" viewBox="0 0 81.04 72.22" fill="currentColor">
  <defs>
    <style>
      .cls-1 {
        fill: #fff;
      }

      .cls-1, .cls-2, .cls-3, .cls-4 {
        fill-rule: evenodd;
      }

      .cls-2 {
        fill: #1a87c7;
      }

      .cls-3 {
        fill: #bdedf8;
      }

      .cls-4 {
        fill: #66ceef;
      }
    </style>
  </defs>
  <g id="_Layer_" data-name="&amp;lt;Layer&amp;gt;">
    <g>
      <path class="cls-1" d="M34.8,18.14c-9.78,5.65-17.71,19.39-17.71,30.66s7.93,15.87,17.71,10.22c9.78-5.65,17.71-19.37,17.71-30.66s-7.93-15.87-17.71-10.22Z"/>
      <path class="cls-2" d="M35.11,18.67c-9.59,5.54-17.4,19.07-17.4,30.14,0,5.23,1.73,9.11,4.88,10.94,3.14,1.81,7.37,1.37,11.9-1.24,9.59-5.54,17.4-19.07,17.4-30.14,0-5.23-1.73-9.11-4.88-10.94-3.14-1.8-7.37-1.37-11.9,1.24h0ZM26.88,62.07c-1.79,0-3.45-.42-4.91-1.27-3.55-2.03-5.5-6.29-5.5-11.99,0-11.47,8.08-25.46,18.01-31.2h0c4.93-2.86,9.6-3.29,13.14-1.24,3.54,2.03,5.5,6.29,5.5,11.99,0,11.48-8.08,25.47-18.02,31.2-2.89,1.67-5.68,2.5-8.22,2.5Z"/>
      <path class="cls-1" d="M34.8,34.41c-6.08,4.44-10.87,10.85-13.19,16.99-.5-.58-.92-1.32-1.18-2.36-1.99-8.03,4.49-20.45,14.37-27.68v13.05Z"/>
      <path class="cls-2" d="M34.8,34.41h.02-.02ZM34.18,22.61c-9.16,7.18-15.02,18.76-13.16,26.27.11.45.26.85.45,1.22,2.54-6,7.22-11.91,12.72-15.99v-11.49h0ZM21.6,52.02c-.18,0-.35-.08-.47-.2-.62-.71-1.05-1.58-1.31-2.65-2.04-8.22,4.51-20.93,14.6-28.3.19-.14.44-.16.64-.05.21.1.34.31.34.54v13.05c0,.19-.09.37-.26.49-5.76,4.23-10.61,10.47-12.98,16.73-.07.19-.25.35-.46.38-.04.02-.07.02-.11.02Z"/>
      <path class="cls-4" d="M42.42,1.44l8.64,4.99c-1.58-.55-2.95-.81-4.63-.85-7.6-.11-15.27,5.2-20.43,10.36-9.3,9.3-16.78,24.11-16.78,37.41,0,5.2,1.21,10.99,5.08,14.72l.37.35-8.63-4.99c-.18-.13-.91-.89-1.09-1.08C.15,56.89.04,48.08,1.25,41.32c1.73-9.68,6.92-20.18,14.02-28.14C21.5,6.17,32.48-2.07,42.42,1.44Z"/>
      <path class="cls-2" d="M37.51,1.23c-7.84,0-16.09,5.96-21.78,12.36C8.76,21.4,3.58,31.81,1.86,41.42c-.74,4.12-1.87,14.37,3.57,20.51.21.24.85.91.99,1.01l5.45,3.14c-2.64-3.98-3.25-8.95-3.25-12.74,0-12.5,6.81-27.71,16.95-37.84,3.19-3.18,11.53-10.53,20.64-10.53h.23c.32,0,.63.02.93.04l-5.21-3.01c-1.51-.52-3.08-.76-4.65-.76h0ZM14.69,69.04c-.1,0-.21-.04-.31-.08l-8.64-4.99c-.31-.22-1.11-1.06-1.24-1.22C-1.29,56.19-.12,45.5.64,41.21c1.77-9.84,7.06-20.48,14.16-28.46C21.92,4.77,32.96-2.54,42.63.85c.04.02.07.03.11.05l8.63,4.99c.27.15.39.5.25.78-.13.29-.47.44-.77.33-1.56-.56-2.85-.78-4.43-.8h-.22c-8.65,0-16.69,7.09-19.76,10.17-9.93,9.92-16.6,24.79-16.6,36.97,0,4.36.85,10.38,4.89,14.29l.37.34c.23.23.26.57.07.81-.12.18-.3.26-.49.26Z"/>
      <polygon class="cls-1" points="47.09 59.31 38.46 54.32 38.38 54.27 38.3 54.21 38.22 54.16 38.15 54.09 38.08 54.03 38.01 53.97 37.94 53.9 37.87 53.83 37.8 53.76 37.73 53.69 37.67 53.62 37.61 53.54 37.54 53.47 46.18 58.46 46.24 58.53 46.3 58.61 46.37 58.68 46.43 58.75 46.5 58.82 46.57 58.89 46.64 58.96 46.71 59.01 46.79 59.08 46.86 59.13 46.94 59.2 47.02 59.25 47.09 59.31"/>
      <path class="cls-2" d="M47.06,59.91c-.09,0-.19-.02-.27-.07l-8.64-4.99s-.12-.07-.14-.09c0,0-.16-.12-.17-.14,0,0-.16-.12-.17-.14,0,0-.16-.14-.16-.14-.01-.02-.16-.16-.16-.16-.01-.02-.15-.16-.15-.17,0,0-.14-.16-.14-.16-.19-.22-.19-.57,0-.8.19-.23.52-.28.78-.14l8.64,4.99c.06.04.12.08.17.16l-.13.19.09.05.15-.12-.09.16.12.07.09-.1-.06.12.11.07.06-.07-.04.07.13.09.04-.05-.02.05.13.07.02-.02v.04s.13.07.13.07h0c.27.19.38.59.21.87-.12.19-.31.29-.51.29Z"/>
      <path class="cls-4" d="M22.27,60.28l-8.63-4.99c9.73,5.35,21.72-7.75,26.19-16.57,3.77-7.46,7.28-21.72-1.14-26.82,2.62,1.53,8.91,4.63,10.79,6.78,7.31,8.27.39,25.28-6.62,33.46-4.52,5.29-13.34,12.12-20.59,8.14Z"/>
      <path class="cls-2" d="M22.58,59.74c6.51,3.58,14.75-2.06,19.81-8,7.14-8.34,13.6-24.77,6.63-32.66-1.12-1.27-4.07-3.01-6.64-4.43,4.2,6.48,1.48,17.47-2,24.36-3.57,7.04-10.94,15.33-18.12,17.55-1.43.43-2.82.64-4.17.59l4.49,2.59h0ZM26.97,62.09c-1.71,0-3.4-.4-5-1.27,0,0,0,0-.01-.02l-8.64-4.97c-.29-.17-.39-.56-.22-.83.16-.3.54-.4.83-.25,2.38,1.3,5.06,1.51,7.96.63,6.85-2.12,13.93-10.12,17.38-16.94,3.81-7.54,6.94-21.26-.91-26.01-.29-.17-.38-.56-.21-.85.17-.28.54-.38.83-.21.57.33,1.32.73,2.15,1.18,3.07,1.67,7.26,3.95,8.81,5.7,7.42,8.41.8,25.6-6.62,34.28-4.17,4.87-10.42,9.54-16.35,9.54Z"/>
      <polygon class="cls-1" points="47.32 16.9 38.68 11.9 38.38 11.75 38.07 11.59 37.75 11.45 46.39 16.44 46.71 16.58 47.02 16.74 47.32 16.9"/>
      <path class="cls-2" d="M47.32,17.52c-.1,0-.2-.04-.3-.09l-.89-.43-8.69-5.02c-.29-.16-.39-.52-.24-.8.15-.29.5-.41.8-.29l.98.49,8.65,5c.3.16.4.54.23.83-.12.2-.32.32-.53.32Z"/>
      <path class="cls-3" d="M47.32,16.9c-3.2-1.85-7.63-1.58-12.52,1.25-4.89,2.82-9.32,7.67-12.52,13.21-3.21,5.54-5.18,11.8-5.18,17.45s1.97,9.61,5.18,11.48c3.21,1.85,7.63,1.58,12.52-1.25,4.89-2.81,9.32-7.67,12.52-13.21,3.2-5.54,5.18-11.81,5.18-17.45s-1.98-9.61-5.18-11.47h0ZM34.8,9.07c7.06-4.09,13.45-4.47,18.08-1.79,4.62,2.68,7.49,8.39,7.49,16.55,0,4.71-.96,9.72-2.66,14.66.52.07,1.01.24,1.47.5l18.81,10.87c3.26,1.88,3.25,8.01,0,13.64h0c-3.25,5.63-8.57,8.71-11.82,6.83l-18.81-10.87c-.46-.26-.84-.59-1.17-1.01-3.43,3.95-7.29,7.28-11.38,9.65-7.06,4.08-13.45,4.46-18.08,1.79-4.63-2.68-7.49-8.4-7.49-16.55s2.86-17.17,7.49-25.19c4.63-8.01,11.02-15.02,18.08-19.08h0Z"/>
      <path class="cls-2" d="M42.7,16.33c-2.32,0-4.9.79-7.6,2.33-4.64,2.68-9.01,7.3-12.3,13.01-3.29,5.7-5.1,11.79-5.1,17.14s1.73,9.13,4.88,10.94c3.15,1.81,7.37,1.37,11.91-1.24,4.64-2.67,9.01-7.3,12.3-13,3.29-5.7,5.1-11.78,5.1-17.14s-1.73-9.13-4.88-10.94c-1.27-.73-2.72-1.1-4.31-1.1h0ZM26.88,62.07c-1.79,0-3.45-.42-4.92-1.27-3.54-2.03-5.49-6.29-5.49-11.99s1.87-11.87,5.27-17.76c3.4-5.87,7.93-10.66,12.75-13.43,4.93-2.86,9.6-3.29,13.14-1.24h0c3.55,2.03,5.5,6.29,5.5,11.99s-1.87,11.87-5.27,17.77c-3.4,5.87-7.93,10.65-12.75,13.44-2.89,1.67-5.69,2.5-8.22,2.5h0ZM46.21,6.18c2.33,0,4.47.54,6.36,1.63,4.63,2.66,7.18,8.36,7.18,16.01,0,4.54-.88,9.41-2.63,14.45-.06.17-.04.37.06.52.09.15.26.26.44.29.45.07.87.21,1.25.43l18.81,10.85c1.37.8,2.13,2.54,2.13,4.9,0,2.47-.84,5.28-2.36,7.92-3.04,5.25-8.06,8.27-10.99,6.59l-18.81-10.87c-.37-.21-.71-.5-.99-.85-.11-.14-.28-.23-.47-.25-.16,0-.36.09-.48.23-3.51,4.03-7.28,7.25-11.22,9.51-6.63,3.84-12.83,4.47-17.46,1.79-4.63-2.66-7.18-8.36-7.18-16.01s2.63-16.62,7.4-24.89c4.78-8.27,11.12-14.97,17.85-18.85,3.93-2.27,7.71-3.42,11.1-3.42h0ZM23.38,72.22c-2.55,0-4.89-.59-6.97-1.79-5.03-2.91-7.8-8.97-7.8-17.09s2.69-17.05,7.57-25.5c4.89-8.47,11.39-15.32,18.3-19.31,7.02-4.05,13.66-4.69,18.69-1.79,5.03,2.9,7.8,8.97,7.8,17.09,0,4.49-.83,9.26-2.47,14.21.34.1.67.24.97.41l18.81,10.87c1.77,1.03,2.75,3.14,2.75,5.94s-.9,5.74-2.53,8.56c-3.43,5.94-9.11,9.11-12.66,7.05l-18.81-10.86c-.3-.17-.59-.38-.84-.62-3.47,3.89-7.2,7.02-11.09,9.26-4.12,2.38-8.12,3.58-11.72,3.58Z"/>
    </g>
  </g>
</svg>