<?xml version="1.0" encoding="UTF-8"?>
<svg id="Layer_2" data-name="Layer 2" xmlns="http://www.w3.org/2000/svg" viewBox="0 0 79.4 81.81" fill="currentColor">
  <defs>
    <style>
      .cls-1 {
        fill: #fff;
      }

      .cls-1, .cls-2, .cls-3, .cls-4 {
        fill-rule: evenodd;
      }

      .cls-2 {
        fill: #1a87c7;
      }

      .cls-3 {
        fill: #bdedf8;
      }

      .cls-4 {
        fill: #66ceef;
      }
    </style>
  </defs>
  <g id="_Layer_" data-name="&amp;lt;Layer&amp;gt;">
    <g>
      <path class="cls-3" d="M2.88,35.87v29.81c0,2.53,1.77,3.56,3.96,2.3,15.35-8.85,30.68-17.71,46.02-26.56,2.19-1.27,3.98-4.36,3.98-6.89V4.71c0-2.53-1.79-3.56-3.98-2.3C37.52,11.27,22.19,20.12,6.84,28.98c-2.19,1.26-3.96,4.36-3.96,6.89Z"/>
      <path class="cls-2" d="M54.63,2.49c-.44,0-.94.15-1.46.46L7.15,29.51c-1.98,1.15-3.67,4.06-3.67,6.36v29.81c0,1,.31,1.72.85,2.04.57.32,1.34.22,2.21-.28l46-26.56c2-1.15,3.67-4.06,3.68-6.36V4.71c0-1-.31-1.72-.87-2.04-.21-.13-.45-.18-.73-.18h0ZM5.07,69.14c-.47,0-.94-.12-1.34-.35-.96-.55-1.48-1.66-1.48-3.11v-29.81c0-2.73,1.93-6.06,4.29-7.43L52.54,1.88c1.27-.73,2.48-.83,3.44-.28.94.55,1.46,1.66,1.46,3.11v29.82c0,2.73-1.91,6.06-4.28,7.43L7.15,68.51c-.71.41-1.43.62-2.09.62Z"/>
      <polygon class="cls-4" points="2.88 39.39 2.88 48.63 56.83 17.47 56.83 8.23 2.88 39.39"/>
      <path class="cls-2" d="M3.48,39.75v7.81l52.74-30.44v-7.81L3.48,39.75h0ZM2.88,49.24c-.12,0-.23-.03-.31-.08-.19-.12-.31-.31-.31-.54v-9.24c0-.22.12-.42.31-.53L56.52,7.7c.19-.11.43-.11.62,0,.19.11.3.31.3.53v9.23c0,.22-.11.42-.3.53L3.17,49.16c-.08.05-.19.08-.29.08Z"/>
      <path class="cls-4" d="M25.98,80.93c-.37-.21-1.82-1.06-2.21-1.27-.99-.82-1.15-1.37-1.17-2.57-.08-9.95,0-19.9,0-29.85.25-2.97,1.55-5.21,3.98-6.89,15.33-8.86,30.68-17.71,46.01-26.57,1.13-.52,1.6-.72,2.8-.27.38.22,1.84,1.06,2.21,1.27-1.2-.45-1.67-.25-2.8.27-15.35,8.86-30.68,17.71-46.02,26.57-2.45,1.7-3.74,3.91-3.98,6.89v29.85c.12,1.25.17,1.76,1.16,2.57Z"/>
      <path class="cls-2" d="M74.29,13.85c-.4,0-.76.17-1.43.48l-45.96,26.53c-2.23,1.55-3.44,3.66-3.67,6.41,0,3.26-.02,6.58-.04,9.9-.02,6.52-.03,13.27.04,19.9,0,1.07.12,1.43.94,2.1l.12.07c-.03-.25-.07-.53-.09-.84v-29.91c.26-3.2,1.66-5.6,4.24-7.4l46.05-26.59c.29-.14.57-.26.82-.36l-.21-.13c-.33-.12-.57-.18-.82-.18h0ZM25.98,81.55c-.11,0-.21-.03-.31-.08l-2.19-1.27c-1.27-1.03-1.46-1.78-1.48-3.1-.07-6.64-.05-13.38-.03-19.91.02-3.32.03-6.63.03-9.94.26-3.2,1.66-5.6,4.24-7.4l46.05-26.59c1.28-.59,1.93-.85,3.34-.31l2.29,1.32c.28.16.38.51.24.8-.14.29-.47.43-.76.31-.98-.37-1.27-.24-2.35.26l-45.94,26.53c-2.26,1.57-3.44,3.62-3.68,6.41v29.8c.12,1.12.14,1.44.95,2.1.25.2.3.57.11.83-.12.17-.31.27-.5.27Z"/>
      <path class="cls-1" d="M28.79,41.61c15.33-8.86,30.67-17.71,46.02-26.57,2.19-1.26,3.98-.24,3.98,2.3v29.85c0,2.53-1.79,5.63-3.98,6.89-15.35,8.86-30.68,17.71-46.02,26.57-2.19,1.26-3.98.23-3.98-2.3v-29.85c0-2.53,1.79-5.63,3.98-6.89Z"/>
      <path class="cls-2" d="M29.11,42.15c-2,1.15-3.68,4.06-3.68,6.36v29.85c0,1,.31,1.72.87,2.04.56.33,1.34.23,2.19-.27l46.01-26.56c1.98-1.15,3.67-4.07,3.67-6.36v-29.85c0-1-.31-1.72-.85-2.04-.58-.33-1.34-.23-2.21.27l-46,26.57h0ZM27.02,81.81c-.49,0-.94-.12-1.36-.35-.94-.55-1.46-1.66-1.46-3.11v-29.85c0-2.73,1.91-6.06,4.28-7.42h0l46.01-26.57c1.25-.72,2.47-.82,3.43-.27.95.55,1.48,1.65,1.48,3.11v29.85c0,2.73-1.93,6.06-4.3,7.42l-46,26.56c-.73.42-1.44.63-2.09.63Z"/>
      <path class="cls-4" d="M73.84,28.98v-6.08c0-.39-.28-.55-.61-.36-3.93,2.27-7.86,4.54-11.78,6.81-.33.19-.61.67-.61,1.05v6.08c0,.39.28.55.61.36,3.92-2.27,7.85-4.53,11.78-6.8.33-.19.61-.66.61-1.06Z"/>
      <path class="cls-2" d="M73.21,23.26l-11.46,6.62c-.16.09-.31.36-.31.52v5.72l11.47-6.61c.14-.09.3-.36.3-.53v-5.72h0ZM61.17,37.53c-.16,0-.31-.04-.46-.12-.31-.18-.49-.52-.49-.93v-6.08c0-.6.38-1.29.92-1.59l11.77-6.8c.35-.2.73-.22,1.04-.04.31.18.49.52.49.93v6.08c0,.61-.4,1.29-.92,1.59l-11.77,6.8c-.19.11-.4.16-.59.16Z"/>
      <path class="cls-3" d="M30.81,53.1c0-.75.54-1.68,1.2-2.06,2.45-1.42,4.92-2.85,7.39-4.27.64-.38,1.18-.07,1.18.69v6.51c0,.75-.54,1.68-1.18,2.06-2.47,1.42-4.94,2.84-7.39,4.27-.66.38-1.2.07-1.2-.68v-6.52Z"/>
      <path class="cls-2" d="M39.92,47.22s-.09.01-.23.09l-7.38,4.27c-.46.27-.87,1-.87,1.52v6.52c0,.15.03.23.03.23.02,0,.09,0,.23-.08l7.38-4.27c.47-.27.89-.99.89-1.52v-6.51c0-.16-.03-.23-.05-.24h0ZM31.47,61.08c-.23,0-.43-.06-.61-.16-.42-.24-.66-.72-.66-1.3v-6.52c0-.96.66-2.11,1.5-2.59l7.38-4.26c.5-.29,1.04-.32,1.46-.08.41.24.66.72.66,1.3v6.51c0,.97-.66,2.11-1.51,2.59l-7.38,4.27c-.28.16-.56.25-.84.25Z"/>
      <path class="cls-2" d="M31.75,70.9c-.23,0-.41-.12-.53-.31-.18-.29-.07-.67.23-.84l7.44-4.29c.28-.17.67-.07.84.22.17.29.07.68-.22.84l-7.44,4.29c-.09.05-.19.08-.3.08Z"/>
      <path class="cls-2" d="M42.98,64.41c-.21,0-.42-.11-.52-.3-.17-.3-.07-.67.23-.84l7.43-4.29c.29-.17.68-.07.85.22.16.3.07.68-.22.84l-7.44,4.29c-.11.06-.21.08-.31.08Z"/>
      <path class="cls-2" d="M54.23,57.92c-.21,0-.42-.11-.54-.3-.16-.3-.07-.67.23-.84l7.44-4.29c.3-.17.66-.07.83.22.17.29.07.67-.23.84l-7.42,4.29c-.1.06-.2.08-.31.08Z"/>
      <path class="cls-2" d="M65.47,51.43c-.22,0-.43-.12-.54-.31-.17-.29-.07-.67.23-.84l7.44-4.29c.28-.17.67-.07.84.22.17.29.07.68-.23.84l-7.44,4.29c-.09.05-.19.08-.3.08Z"/>
      <path class="cls-4" d="M4.04,68.29c-.38-.21-1.84-1.06-2.21-1.27-1.01-.82-1.16-1.37-1.16-2.57-.11-9.95,0-19.9,0-29.85.24-2.97,1.55-5.21,3.96-6.89C19.98,18.85,35.31,9.99,50.65,1.14c1.14-.52,1.61-.72,2.81-.27.37.21,1.82,1.06,2.21,1.27-1.2-.45-1.67-.25-2.81.27C37.52,11.27,22.19,20.12,6.84,28.98c-2.45,1.7-3.72,3.92-3.96,6.89v29.86c.11,1.25.17,1.76,1.16,2.57Z"/>
      <path class="cls-2" d="M52.35,1.22c-.4,0-.77.16-1.45.48L4.95,28.24c-2.23,1.55-3.44,3.65-3.67,6.41,0,3.26-.02,6.58-.02,9.9-.02,6.52-.06,13.27.02,19.9.02,1.07.12,1.43.94,2.1l.14.08c-.04-.25-.07-.53-.11-.84v-29.91c.26-3.2,1.65-5.6,4.24-7.4L52.54,1.88c.31-.14.58-.26.83-.36l-.23-.13c-.33-.12-.57-.17-.8-.17h0ZM4.04,68.91c-.1,0-.2-.03-.31-.08l-2.21-1.27c-1.25-1.03-1.46-1.78-1.48-3.1-.07-6.63-.04-13.38-.02-19.91.02-3.32.02-6.63.02-9.95.26-3.2,1.65-5.6,4.24-7.4L50.33.61c1.28-.6,1.94-.85,3.34-.32l2.31,1.32c.28.16.38.51.24.8-.14.29-.47.42-.78.32-.98-.37-1.27-.24-2.33.26L7.15,29.51c-2.26,1.57-3.44,3.62-3.67,6.41v29.8c.1,1.12.14,1.43.94,2.1.25.2.3.56.12.82-.12.17-.31.27-.5.27Z"/>
    </g>
  </g>
</svg>