<?xml version="1.0" encoding="UTF-8"?>
<svg id="Layer_2" data-name="Layer 2" xmlns="http://www.w3.org/2000/svg" viewBox="0 0 28.91 41.69" fill="currentColor">
  <defs>
    <style>
      .cls-1 {
        fill: #fff;
      }

      .cls-1, .cls-2, .cls-3, .cls-4 {
        fill-rule: evenodd;
      }

      .cls-2 {
        fill: #1a87c7;
      }

      .cls-3 {
        fill: #bdedf8;
      }

      .cls-4 {
        fill: #66ceef;
      }
    </style>
  </defs>
  <g id="_Layer_" data-name="&amp;lt;Layer&amp;gt;">
    <g>
      <path class="cls-3" d="M13.45,30.81l-1.21-.7c.12.08.13.16.15.3v9.02c.02.48.1.83.5,1.12l1.21.7c-.41-.3-.49-.65-.51-1.13v-9.02c0-.14-.02-.22-.14-.3Z"/>
      <path class="cls-2" d="M12.69,30.73v8.7c.02.43.08.66.38.87l.23.14c-.02-.1-.02-.2-.03-.3v-9.04l.17-.3-.16.27-.6-.35h0ZM14.1,41.56c-.05,0-.1-.02-.16-.04l-1.2-.69c-.57-.4-.64-.9-.67-1.38v-9.04c-.14-.09-.18-.3-.1-.43.09-.15.27-.21.42-.12l1.2.69h.02c.25.17.27.38.29.53v9.05c.02.43.08.67.37.87.14.1.17.29.09.42-.06.09-.15.14-.26.14Z"/>
      <path class="cls-3" d="M25.08,20.58L7.81,30.56c.15.07.3.13.45.19,1.43.55,3.13.58,4.99.06.19-.06.34.05.34.3v9.02c0,.56.19.95.51,1.12h0c.32.18.75.16,1.23-.11l2.24-1.29c.48-.28.92-.76,1.23-1.3h0c.31-.55.5-1.16.5-1.72v-9.02c0-.23.13-.5.33-.68,2.07-1.8,3.93-4.06,5.45-6.54Z"/>
      <path class="cls-2" d="M14.26,41c.23.12.56.08.91-.13l2.24-1.29c.41-.24.82-.67,1.11-1.18.3-.52.47-1.09.47-1.56v-9.02c0-.32.17-.69.44-.9,1.7-1.5,3.32-3.35,4.71-5.42l-15.64,9.02c1.35.49,2.96.49,4.66,0,.17-.06.36-.03.5.07.15.11.24.29.24.52v9.02c0,.42.13.73.36.86,0,0,0,0,0,0h0ZM14.55,41.69c-.21,0-.42-.06-.6-.17,0,0-.02,0-.02,0-.42-.25-.64-.74-.64-1.38v-9c-1.87.51-3.63.48-5.12-.09-.17-.06-.32-.13-.48-.2-.11-.05-.18-.16-.18-.27,0-.11.06-.22.15-.28l17.28-9.98c.11-.07.27-.04.37.05.1.1.12.26.04.38-1.57,2.55-3.48,4.83-5.52,6.62-.14.12-.22.32-.22.44v9.02c0,.59-.2,1.25-.55,1.87-.36.62-.83,1.12-1.35,1.41l-2.24,1.3c-.32.19-.63.29-.93.29Z"/>
      <path class="cls-4" d="M25.5,20.57c.21-.38.41-.77.59-1.16,1.57-3.24,2.5-6.71,2.5-9.9,0-3.81-1.34-6.49-3.5-7.73-2.16-1.25-5.16-1.07-8.46.83-3.29,1.9-6.28,5.18-8.45,8.92-2.16,3.75-3.5,7.97-3.5,11.79,0,3.18.94,5.58,2.5,7.01.19.18.38.33.59.47l17.71-10.22Z"/>
      <path class="cls-2" d="M25.5,20.57h.01-.01ZM21.98,1.29c-1.58,0-3.35.54-5.18,1.6-3.15,1.82-6.11,4.95-8.34,8.8-2.23,3.87-3.46,8-3.46,11.63,0,3,.83,5.35,2.4,6.78.13.11.26.23.4.33l17.47-10.08c.19-.35.37-.71.55-1.07,1.62-3.34,2.47-6.71,2.47-9.76,0-3.57-1.19-6.22-3.35-7.47-.88-.5-1.88-.75-2.96-.75h0ZM7.79,31.11c-.06,0-.12-.02-.17-.05-.22-.16-.42-.32-.63-.51-1.7-1.55-2.6-4.05-2.6-7.23,0-3.74,1.25-7.98,3.54-11.93,2.28-3.95,5.33-7.17,8.57-9.04,3.28-1.89,6.4-2.2,8.75-.84,2.37,1.37,3.66,4.21,3.66,8.01,0,3.14-.88,6.6-2.54,10.03-.19.39-.38.78-.59,1.17-.04.05-.07.09-.12.11L7.94,31.06c-.05.03-.1.04-.16.04Z"/>
      <path class="cls-3" d="M25.1,1.78C20.95-.62,17.5-.02,13.44,3.04,6.35,8.38-1.91,25.2,7.79,30.79-1.84,23.98,12.39-2.04,23.8,1.24l1.3.55Z"/>
      <path class="cls-2" d="M20.2.61c-2.1,0-4.19.88-6.58,2.68C8.59,7.08,3.28,16.44,3.69,23.29c.11,1.75.57,3.25,1.36,4.5-1.68-4.06-.31-9.82,1.83-14.26C10.02,7,15.61,1.09,21.12.66c-.31-.03-.62-.05-.92-.05h0ZM7.79,31.11c-.05,0-.1-.02-.15-.04-2.82-1.62-4.35-4.22-4.55-7.73-.45-7.26,5-16.65,10.16-20.54,4.33-3.26,7.92-3.65,12-1.29.15.08.2.26.12.41-.07.14-.24.21-.39.14l-1.3-.55C17.72-.18,11,6.4,7.44,13.8c-2.7,5.63-4.19,13.4.53,16.75.13.1.17.28.08.42-.06.09-.16.14-.26.14Z"/>
      <path class="cls-3" d="M3.65,23.78c-.66.27-1.26.67-1.76,1.17-.5.5-.9,1.1-1.18,1.76-.26.63-.41,1.34-.41,2.07s.15,1.44.41,2.07c.28.66.68,1.26,1.18,1.76.5.51,1.09.9,1.76,1.17.63.27,1.33.42,2.07.42s1.43-.15,2.07-.42c.66-.27,1.25-.67,1.76-1.17.5-.5.91-1.09,1.17-1.76.27-.63.41-1.33.41-2.07s-.14-1.43-.41-2.07c-.27-.66-.68-1.26-1.17-1.76-.5-.5-1.1-.9-1.76-1.17-.63-.27-1.34-.41-2.07-.41s-1.44.14-2.07.41Z"/>
      <path class="cls-2" d="M3.76,24.06c-.62.26-1.18.63-1.65,1.11-.48.48-.85,1.03-1.11,1.66-.25.62-.38,1.27-.38,1.94s.13,1.34.38,1.96c.26.62.64,1.17,1.11,1.65.48.48,1.03.85,1.65,1.11,1.24.51,2.67.5,3.9,0,.63-.26,1.18-.63,1.66-1.11.48-.48.85-1.03,1.1-1.65.26-.62.39-1.28.39-1.96s-.13-1.33-.39-1.94c-.25-.63-.63-1.18-1.1-1.66-.48-.48-1.04-.85-1.66-1.11-1.23-.5-2.66-.5-3.9,0h0ZM5.72,34.5c-.76,0-1.5-.15-2.19-.44-.7-.29-1.32-.71-1.85-1.24-.54-.53-.96-1.16-1.24-1.85-.29-.69-.44-1.43-.44-2.19s.15-1.49.44-2.19c.29-.7.7-1.31,1.24-1.85.53-.54,1.15-.96,1.85-1.24h0c1.39-.57,2.99-.57,4.37,0,.7.29,1.32.7,1.86,1.24.54.54.95,1.16,1.24,1.85.29.69.43,1.43.43,2.19s-.15,1.5-.43,2.19c-.29.7-.7,1.32-1.24,1.85-.54.54-1.16.96-1.86,1.24-.69.29-1.43.44-2.18.44Z"/>
      <path class="cls-1" d="M6.33,33.14c2.57,0,4.65-2.09,4.65-4.65s-2.09-4.65-4.65-4.65-4.65,2.09-4.65,4.65,2.09,4.65,4.65,4.65Z"/>
      <path class="cls-2" d="M6.33,24.16c-2.39,0-4.34,1.95-4.34,4.34s1.95,4.34,4.34,4.34,4.34-1.95,4.34-4.34-1.95-4.34-4.34-4.34h0ZM6.33,33.45c-2.73,0-4.95-2.23-4.95-4.95s2.23-4.95,4.95-4.95,4.95,2.22,4.95,4.95-2.22,4.95-4.95,4.95Z"/>
    </g>
  </g>
</svg>