<?xml version="1.0" encoding="UTF-8"?>
<svg id="Layer_2" data-name="Layer 2" xmlns="http://www.w3.org/2000/svg" viewBox="0 0 31.12 42.36" fill="currentColor">
  <defs>
    <style>
      .cls-1 {
        fill: #fff;
      }

      .cls-1, .cls-2, .cls-3, .cls-4 {
        fill-rule: evenodd;
      }

      .cls-2 {
        fill: #1a87c7;
      }

      .cls-3 {
        fill: #bdedf8;
      }

      .cls-4 {
        fill: #66ceef;
      }
    </style>
  </defs>
  <g id="_Layer_" data-name="&amp;lt;Layer&amp;gt;">
    <g>
      <path class="cls-1" d="M30.8,27.79l-7.63-4.41c-7.62,4.4-15.25,8.79-22.86,13.19l7.64,4.41c7.61-4.4,15.24-8.79,22.85-13.19Z"/>
      <path class="cls-2" d="M.93,36.58l7.02,4.05,22.24-12.84-7.02-4.05L.93,36.58h0ZM7.95,41.3c-.06,0-.11-.02-.16-.04L.16,36.85c-.09-.06-.16-.16-.16-.27s.06-.21.16-.27l22.86-13.19c.09-.05.22-.05.3,0l7.64,4.41c.09.06.16.16.16.27s-.06.21-.16.27l-22.86,13.19s-.1.04-.15.04Z"/>
      <polygon class="cls-4" points="7.95 40.99 .31 36.58 .31 37.64 7.95 42.06 7.95 40.99"/>
      <path class="cls-2" d="M.62,37.47l7.02,4.05v-.35l-7.02-4.06v.36h0ZM7.95,42.36c-.06,0-.11-.02-.16-.04L.16,37.91c-.09-.06-.16-.16-.16-.27v-1.06c0-.11.06-.21.16-.27.1-.05.22-.05.31,0l7.63,4.41c.09.05.16.16.16.26v1.07c0,.1-.06.21-.16.26-.04.03-.1.04-.15.04Z"/>
      <path class="cls-3" d="M30.8,27.79c-7.61,4.4-15.24,8.8-22.85,13.19v1.07l22.85-13.2v-1.06Z"/>
      <path class="cls-2" d="M8.26,41.17v.35l22.24-12.84v-.36l-22.24,12.85h0ZM7.95,42.36c-.06,0-.11-.02-.16-.04-.1-.05-.16-.16-.16-.26v-1.07c0-.1.06-.21.16-.26l22.86-13.2c.09-.05.21-.05.3,0,.09.06.16.16.16.27v1.06c0,.11-.06.21-.16.27l-22.86,13.19s-.1.04-.15.04Z"/>
      <path class="cls-4" d="M3.39,12.99l-1.37-.8c-.19.36-.29.63-.3,1.02v21.95c0,.29.06.51.3.67l1.37.79c-.25-.17-.3-.38-.31-.67V14.01c.01-.29.13-.78.31-1.02Z"/>
      <path class="cls-2" d="M2.15,12.63c-.08.2-.12.38-.13.6v21.94c.02.24.05.33.17.42l.58.34V14.01c.02-.23.08-.6.21-.9l-.84-.48h0ZM3.39,36.94c-.05,0-.11-.02-.16-.04l-1.37-.79c-.38-.26-.44-.6-.45-.92V13.22c.02-.49.14-.81.34-1.16.03-.08.11-.13.18-.16.09-.02.17,0,.24.03l1.38.79c.07.04.13.12.15.21.02.08,0,.17-.06.24-.12.16-.23.59-.24.85v21.93c.02.24.04.33.17.42.14.1.17.28.09.42-.06.09-.15.15-.26.15Z"/>
      <path class="cls-3" d="M23.86,1.17l-1.37-.79c-.27-.13-.48-.06-.73.07C15.42,4.11,9.08,7.77,2.75,11.43c-.33.21-.52.43-.73.76l1.37.8c.21-.34.39-.57.73-.77,6.34-3.66,12.67-7.32,19.01-10.98.25-.13.46-.2.73-.07Z"/>
      <path class="cls-2" d="M2.46,12.09l.83.48c.17-.23.36-.42.66-.62L22.94,1l-.61-.36c-.11-.05-.21-.03-.43.08L2.9,11.69c-.18.12-.31.24-.44.41h0ZM3.39,13.29c-.05,0-.11,0-.16-.04l-1.37-.79c-.07-.04-.12-.11-.14-.19-.03-.08,0-.17.03-.24.21-.35.42-.62.83-.87L21.6.18c.28-.15.61-.28,1.02-.08l1.4.8c.14.09.19.26.11.41-.07.15-.25.21-.4.14-.14-.07-.24-.05-.46.07L4.28,12.48c-.26.17-.42.34-.63.67-.06.1-.15.15-.26.15Z"/>
      <path class="cls-4" d="M21.44,10.87v12.25l1.37.79v-12.25c0-.08-.02-.11-.08-.17l-1.38-.79c.07.05.07.09.08.16h0ZM22.74,3.11l-1.38-.79c.07.05.07.09.08.17v6.23l1.37.79V3.28c0-.09-.02-.12-.08-.18h0Z"/>
      <path class="cls-2" d="M21.75,8.54l.76.43V3.34l-.76-.44v5.64h0ZM22.81,9.82c-.05,0-.1-.02-.16-.04l-1.37-.79c-.1-.06-.15-.16-.15-.27V2.52c-.09-.1-.09-.26-.02-.37.1-.12.26-.18.4-.09l1.37.79s.03.02.04.03c.16.14.18.28.19.37v6.26c0,.11-.05.21-.15.27-.05.02-.11.04-.16.04h0ZM21.13,10.86s0,0,0,.02h0s.13,0,.13,0h-.14ZM21.75,22.93l.76.43v-11.65l-.76-.44v11.65h0ZM22.81,24.21c-.05,0-.1,0-.16-.04l-1.37-.79c-.1-.05-.15-.16-.15-.26v-12.21c-.09-.11-.09-.26-.02-.37.1-.13.27-.17.4-.09l1.37.79c.19.15.22.28.23.41v12.27c0,.11-.05.21-.15.26-.05.04-.11.04-.16.04Z"/>
      <path class="cls-3" d="M22.81,9.51l-1.37-.79c-.02.19-.09.34-.26.45l-8,4.61c-.08.03-.1.04-.18.02l1.37.79c.08.03.1.02.18-.02l8-4.62c.15-.11.24-.25.26-.45Z"/>
      <path class="cls-2" d="M13.7,13.84l.75.44,7.95-4.59s.03-.03.04-.04l-.84-.48c-.06.09-.15.18-.25.25l-7.66,4.42h0ZM14.45,14.91c-.05,0-.11,0-.18-.03l-1.42-.81c-.14-.08-.19-.26-.12-.4.06-.13.2-.2.33-.17l7.97-4.6c.07-.04.1-.1.11-.21,0-.1.07-.2.16-.24.09-.05.2-.05.3,0l1.37.8c.1.05.16.17.15.29-.03.29-.15.51-.39.68l-8.01,4.63c-.09.04-.17.07-.27.07Z"/>
      <path class="cls-4" d="M22.81,23.91l-1.37-.79c-.02.19-.09.33-.26.44l-8,4.62c-.08.03-.1.05-.18.02l1.37.8c.08.03.1.02.18-.02l8-4.62c.15-.11.24-.25.26-.44Z"/>
      <path class="cls-2" d="M13.7,28.24l.75.43,7.95-4.59s.03-.03.04-.04l-.84-.49c-.06.1-.15.18-.25.25l-7.66,4.43h0ZM14.45,29.32c-.05,0-.11-.01-.17-.04l-1.43-.81c-.14-.08-.19-.25-.12-.4.06-.13.2-.19.34-.17l7.96-4.61c.07-.04.1-.11.11-.21,0-.11.07-.19.16-.24.09-.05.2-.04.3,0l1.37.79c.1.06.16.18.15.3-.03.29-.15.51-.39.67l-8.01,4.63c-.09.04-.17.08-.27.08Z"/>
      <path class="cls-4" d="M11.58,8.19v20.62c-.02.19-.1.34-.26.44l1.37.8c.16-.12.24-.26.26-.45V8.98c-.01-.08-.01-.12-.08-.17l-1.37-.8c.07.05.07.1.08.18Z"/>
      <path class="cls-2" d="M11.26,8.19h.01s0,0,0,0h.13-.14ZM11.79,29.17l.84.49s0-.05,0-.09V9.03l-.75-.43v20.22c0,.14-.04.26-.1.36h0ZM12.69,30.36c-.05,0-.1-.01-.15-.04l-1.38-.79c-.09-.05-.15-.15-.15-.25,0-.1.04-.21.13-.27.09-.06.12-.11.13-.22V8.21c-.09-.1-.1-.26-.02-.37.09-.13.26-.16.4-.09l1.38.79c.21.17.22.31.23.41v20.65c-.02.31-.16.54-.39.7-.05.03-.11.05-.18.05Z"/>
      <polygon class="cls-4" points="12.69 30.05 11.32 29.25 3.32 33.88 4.69 34.67 12.69 30.05"/>
      <path class="cls-2" d="M3.94,33.88l.75.43,7.38-4.26-.76-.45-7.38,4.27h0ZM4.69,34.97c-.05,0-.1,0-.15-.03l-1.38-.8c-.09-.05-.15-.16-.15-.26,0-.11.05-.22.15-.27l8-4.61c.1-.06.22-.06.32,0l1.37.79c.09.05.15.16.15.27,0,.1-.05.21-.15.26l-8,4.62c-.05.03-.1.03-.16.03Z"/>
      <path class="cls-3" d="M12.05,8.45v20.63c0,.16-.11.36-.26.45l-8,4.62c-.14.08-.26.02-.26-.15V13.37c0-.16.12-.36.26-.45l8-4.61c.15-.09.26-.02.26.15Z"/>
      <path class="cls-2" d="M11.74,8.45h.3-.3ZM11.74,8.69l-7.8,4.5c-.05.02-.11.12-.11.18v20.39l7.8-4.5s.11-.13.11-.18V8.69h0ZM3.68,34.49c-.08,0-.16-.02-.23-.05-.14-.09-.23-.24-.23-.43V13.37c0-.28.17-.58.41-.72l8-4.62c.16-.1.34-.1.49-.02.15.09.23.24.23.43v20.63c0,.28-.17.58-.42.71l-8,4.62c-.09.04-.18.07-.27.07Z"/>
      <path class="cls-3" d="M13.39,28.3v-12.24c0-.16.12-.36.26-.45l8-4.62c.15-.08.26-.02.26.15v12.25c0,.17-.11.36-.26.44l-8,4.62c-.14.08-.26.01-.26-.16Z"/>
      <path class="cls-2" d="M21.61,11.37l-7.8,4.5s-.1.13-.1.18v12.01l7.79-4.5s.1-.13.1-.18v-12.01h0ZM13.39,28.3h.31-.31ZM13.54,28.79c-.08,0-.15-.02-.23-.06-.14-.08-.23-.24-.23-.43v-12.24c0-.28.18-.58.41-.71l8-4.62c.16-.09.34-.09.49-.02.15.09.24.24.24.43v12.25c0,.28-.18.57-.42.71l-8,4.62c-.09.05-.18.08-.27.08Z"/>
      <path class="cls-3" d="M13.39,13.9v-6.23c0-.17.12-.36.26-.44l8-4.62c.15-.09.26-.02.26.15v6.22c0,.17-.11.36-.26.45l-8,4.62c-.14.09-.26.02-.26-.15Z"/>
      <path class="cls-2" d="M21.61,3l-7.8,4.49s-.1.13-.1.18v6l7.79-4.5s.1-.12.1-.18V3h0ZM13.39,13.9h.31-.31ZM13.54,14.4c-.08,0-.15-.03-.23-.06-.14-.09-.23-.24-.23-.44v-6.23c0-.28.18-.57.41-.71l8-4.62c.16-.09.34-.1.49-.02.15.08.24.24.24.43v6.22c0,.28-.18.58-.42.72l-8,4.62c-.09.05-.18.08-.27.08Z"/>
      <path class="cls-1" d="M12.95,8.98v20.62c0,.16-.11.36-.26.45l-8,4.61c-.15.08-.26.02-.26-.15V13.9c0-.17.11-.37.26-.45l8-4.62c.15-.09.26-.02.26.15h0ZM14.3,28.82v-12.24c0-.16.11-.36.26-.45l8-4.62c.14-.08.26-.02.26.15v12.25c0,.17-.12.36-.26.44l-8,4.62c-.15.08-.26,0-.26-.16h0ZM14.3,14.43h0c0,.17.11.23.26.15l8-4.62c.14-.09.26-.29.26-.45V3.28c0-.17-.12-.24-.26-.16l-8,4.62c-.15.08-.26.28-.26.44v6.23h0ZM4.12,12.22c-.57.33-1.04,1.13-1.04,1.79v21.95c0,.66.46.93,1.04.6,6.34-3.66,12.67-7.32,19.01-10.97.57-.33,1.03-1.14,1.03-1.8V1.84c0-.66-.46-.93-1.03-.6-6.34,3.66-12.67,7.32-19.01,10.98h0Z"/>
      <path class="cls-2" d="M22.5,3.52l-7.79,4.49c-.05.04-.1.13-.1.18v6l7.79-4.5c.05-.03.1-.12.1-.18V3.52h0ZM14.3,14.43h.31-.31ZM14.44,14.92c-.07,0-.15-.03-.22-.06-.15-.09-.22-.24-.22-.43v-6.23c0-.27.17-.57.41-.71l8-4.62c.16-.09.35-.1.5-.02.15.09.23.24.23.43v6.22c0,.28-.17.58-.41.72l-8,4.62c-.09.05-.18.08-.28.08h0ZM22.5,11.9v12.01c0,.05-.05.15-.1.18l-7.79,4.49v-12c0-.05.05-.16.1-.18l7.79-4.5h0ZM14.3,28.82h.31-.31ZM14.45,29.32c-.08,0-.16-.02-.23-.06-.15-.08-.22-.24-.22-.43v-12.24c0-.28.17-.57.41-.71l8-4.62c.16-.09.35-.09.5-.02.15.09.23.24.23.43v12.25c0,.28-.17.57-.41.71l-8,4.61c-.09.05-.18.08-.27.08h0ZM12.64,8.98h.31-.31ZM12.64,9.21l-7.79,4.5c-.05.03-.1.12-.1.18v20.39l7.79-4.5c.05-.02.1-.13.1-.18V9.21h0ZM4.58,35.01c-.08,0-.16-.02-.23-.05-.15-.09-.23-.24-.23-.43V13.9c0-.28.17-.58.41-.72l8-4.62c.16-.09.35-.1.49-.02.15.09.23.24.23.43v20.62c0,.28-.17.57-.41.71l-8,4.62c-.1.04-.18.07-.27.07h0ZM4.28,12.48h0L23.29,1.51c.17-.1.32-.13.42-.07.09.05.15.2.15.4v21.94c0,.56-.41,1.25-.88,1.53L3.96,36.3c-.18.09-.32.12-.42.07-.1-.06-.16-.21-.16-.41V14.01c0-.55.41-1.25.89-1.53h0ZM3.66,37.01c-.15,0-.29-.03-.42-.11-.29-.17-.46-.51-.46-.94V14.01c0-.76.53-1.68,1.19-2.06h0L22.97.98c.37-.22.75-.24,1.04-.08.29.17.46.51.46.94v21.94c0,.77-.53,1.68-1.19,2.06l-19.01,10.98c-.21.12-.42.18-.62.18Z"/>
    </g>
  </g>
</svg>