<?xml version="1.0" encoding="UTF-8"?>
<svg id="Layer_2" data-name="Layer 2" xmlns="http://www.w3.org/2000/svg" viewBox="0 0 33.79 41.01" fill="currentColor">
  <defs>
    <style>
      .cls-1 {
        fill: #fff;
      }

      .cls-1, .cls-2, .cls-3, .cls-4 {
        fill-rule: evenodd;
      }

      .cls-2 {
        fill: #1a87c7;
      }

      .cls-3 {
        fill: #bdedf8;
      }

      .cls-4 {
        fill: #66ceef;
      }
    </style>
  </defs>
  <g id="_Layer_" data-name="&amp;lt;Layer&amp;gt;">
    <g>
      <path class="cls-1" d="M24,14.55c-.33,6.08-3.89,12.61-9.38,15.47h0c-1.8.9-3.81,1.35-5.68.33,3.71,2.14,5.16,3.66,9.15,1.67,4.91-2.66,8.82-8.74,9.32-14.33h0c.55-6.13-2.23-6.82-5.99-8.99,2.07,1.26,2.58,3.62,2.58,5.85h0ZM7.15,39.04c.33.26.62.46.97.68-3.64-2.1-5.9-2.87-7.18-6.99h0C-2.43,21.48,8,3.68,19.03.72c4.49-1.21,6.38.46,10.1,2.61C18.07-2.76.01,20.25,4.42,34.73c.53,1.72,1.37,3.12,2.73,4.3h0Z"/>
      <path class="cls-2" d="M24,14.55h0,0ZM11.01,31.23c2.42,1.44,3.85,2.05,6.93.52,4.8-2.6,8.65-8.52,9.16-14.08.43-4.81-1.24-6.13-3.87-7.6.72,1.13,1.08,2.64,1.08,4.49v.02c-.36,6.52-4.29,12.99-9.55,15.73-1.35.67-2.61.98-3.75.94h0ZM14.8,33.25c-1.64,0-2.95-.79-4.71-1.85-.41-.25-.85-.51-1.32-.78-.15-.08-.2-.27-.12-.42.08-.15.27-.2.42-.12,1.52.83,3.28.71,5.39-.33,5.07-2.64,8.87-8.89,9.21-15.2,0-2.76-.8-4.59-2.44-5.58-.14-.09-.19-.28-.11-.42.08-.14.27-.19.42-.11.43.25.85.47,1.25.7,3.13,1.72,5.4,2.96,4.9,8.59-.52,5.75-4.51,11.88-9.48,14.58-1.36.68-2.45.96-3.42.96h0ZM21.82.62c-.8,0-1.68.13-2.71.4-5.19,1.39-10.74,6.43-14.47,13.14C1,20.69-.27,27.6,1.24,32.64c.92,2.96,2.32,4.1,4.51,5.38-.71-.9-1.24-1.95-1.62-3.19C1.2,25.21,7.84,12.41,15.66,6.06c3.81-3.09,7.54-4.44,10.79-3.96-1.57-.9-2.91-1.49-4.63-1.49h0ZM8.13,40.02c-.05,0-.11-.01-.15-.04-.46-.26-.9-.51-1.31-.74-2.92-1.63-4.85-2.71-6-6.42-1.56-5.2-.28-12.29,3.44-18.97C7.91,7.01,13.6,1.86,18.95.42c4.07-1.1,6.05.09,9.06,1.88.41.24.83.5,1.28.75.15.08.2.27.12.42-.08.15-.27.2-.42.12-3.58-1.97-8.17-.93-12.93,2.94C8.38,12.76,1.87,25.28,4.72,34.64c.54,1.75,1.38,3.07,2.63,4.16.31.25.59.45.94.65.14.09.19.28.11.42-.05.1-.16.15-.26.15Z"/>
      <path class="cls-1" d="M27.3,14.52c-.11-.59-.28-1.13-.5-1.62-.22-.49-.5-.92-.82-1.29-1.31-1.5-3.33-1.89-5.62-1.09-1.14.4-2.32,1.08-3.46,1.99-1.14.92-2.21,2.05-3.18,3.35-1.95,2.63-3.3,5.74-3.76,8.67-.34,2.16-.17,4.14.5,5.61.22.49.5.92.81,1.29,1.31,1.5,3.33,1.9,5.63,1.1,1.71-.6,3.5-1.83,5.11-3.53.54-.57,1.05-1.18,1.52-1.82.48-.64.93-1.33,1.34-2.05.41-.71.78-1.45,1.11-2.19.32-.74.59-1.49.81-2.23.66-2.24.84-4.39.5-6.19h0ZM8.13,15.45c1.37-2.37,3.01-4.59,4.83-6.51,3.63-3.83,7.76-6.21,11.36-6.56,1.82-.18,3.46.15,4.83.94,1.37.79,2.47,2.04,3.22,3.71,1.51,3.32,1.49,8.1,0,13.12-.75,2.54-1.85,5.06-3.22,7.43-1.37,2.37-3.01,4.59-4.83,6.51-3.63,3.84-7.76,6.21-11.36,6.56-1.82.18-3.46-.15-4.83-.94-4.26-2.46-5.52-9.11-3.23-16.83.75-2.54,1.86-5.06,3.23-7.44h0Z"/>
      <path class="cls-2" d="M22.59,10.41c-.66,0-1.38.13-2.13.39-1.1.39-2.27,1.06-3.36,1.94-1.12.91-2.17,2.02-3.12,3.3-1.94,2.62-3.26,5.65-3.7,8.53-.33,2.1-.16,4.03.47,5.43.21.46.47.87.77,1.22,1.23,1.41,3.11,1.77,5.29,1.01,1.66-.58,3.43-1.8,4.99-3.45.52-.55,1.02-1.15,1.5-1.8.47-.63.91-1.31,1.32-2.02.41-.7.77-1.43,1.09-2.15.31-.73.59-1.47.8-2.2.66-2.21.82-4.3.49-6.04h0c-.11-.57-.27-1.08-.48-1.55-.21-.46-.47-.87-.77-1.21-.81-.93-1.89-1.4-3.16-1.4h0ZM14.69,33.24c-1.45,0-2.72-.55-3.64-1.61-.34-.39-.63-.85-.86-1.37-.68-1.51-.87-3.57-.52-5.78.47-2.98,1.82-6.1,3.82-8.8.98-1.32,2.07-2.47,3.23-3.41,1.15-.93,2.38-1.64,3.55-2.05,2.4-.84,4.57-.4,5.96,1.19.34.39.63.85.86,1.37.23.51.41,1.08.52,1.69.35,1.84.17,4.03-.51,6.33-.23.75-.5,1.52-.83,2.27-.32.75-.7,1.49-1.12,2.22-.42.73-.88,1.43-1.36,2.08-.49.66-1.01,1.29-1.55,1.85-1.62,1.71-3.48,2.99-5.23,3.61-.8.28-1.58.42-2.31.42h0ZM8.13,15.45h0,0ZM25.28,2.65c1.37,0,2.61.31,3.7.95,1.33.77,2.38,1.97,3.1,3.57,1.47,3.24,1.46,7.94-.02,12.9-.74,2.5-1.82,4.98-3.2,7.37-1.38,2.39-2.99,4.56-4.78,6.45-3.56,3.76-7.63,6.12-11.17,6.46-1.75.17-3.31-.13-4.64-.9-4.14-2.39-5.34-8.85-3.08-16.47.74-2.5,1.82-4.98,3.2-7.37h0c1.38-2.38,2.98-4.55,4.78-6.45,3.57-3.76,7.63-6.12,11.17-6.46.32-.03.63-.05.94-.05h0ZM11.98,41.01c-1.48,0-2.82-.34-4.01-1.03-4.39-2.53-5.71-9.27-3.36-17.18.76-2.55,1.85-5.07,3.25-7.5,1.4-2.43,3.04-4.63,4.87-6.57,3.66-3.87,7.87-6.3,11.55-6.65,1.87-.19,3.56.14,5.01.98,1.45.84,2.58,2.13,3.35,3.85,1.53,3.37,1.53,8.23.01,13.33-.76,2.55-1.85,5.07-3.25,7.5-1.4,2.43-3.04,4.64-4.87,6.57-3.66,3.87-7.87,6.29-11.55,6.65-.34.03-.67.05-1,.05Z"/>
      <path class="cls-3" d="M4.87,35.94c-.68-1.53-1-3.25-1.07-4.93-.06-1.34,0-2.56.19-3.92.18-1.41.51-2.84.92-4.2l.02-.06,5.32-.99.4-.08c-.29.9-.53,1.83-.68,2.76-.08.53-.14,1.06-.16,1.57-.03.83,0,1.58.16,2.42.12.65.32,1.29.63,1.88l-.44.43-4.55,4.4-.73.71Z"/>
      <path class="cls-2" d="M5.16,23.1c-.43,1.47-.71,2.81-.87,4.03-.18,1.33-.24,2.52-.19,3.87.08,1.65.37,3.13.88,4.41l5.23-5.07c-.25-.53-.43-1.12-.56-1.76-.15-.78-.2-1.52-.16-2.48.02-.53.08-1.07.16-1.61.12-.76.3-1.54.53-2.32l-5.03.94h0ZM4.87,36.25s-.04,0-.06,0c-.1-.02-.18-.08-.22-.18-.64-1.44-1.01-3.14-1.1-5.04-.05-1.39,0-2.61.19-3.97.16-1.3.48-2.74.93-4.25.03-.11.14-.25.25-.27l5.72-1.07c.11-.02.22.02.29.1.07.08.09.19.06.3-.3.91-.53,1.83-.67,2.71-.08.52-.13,1.04-.15,1.54-.03.91.01,1.62.15,2.34.13.67.33,1.27.6,1.8.06.12.04.27-.06.36l-5.72,5.54c-.06.06-.14.09-.21.09Z"/>
      <path class="cls-3" d="M24.24,34.17c-2.94,3.01-6.96,6.06-11.29,6.49h-.04s.24-.93.24-.93l1.64-6.53.07-.27c.7-.02,1.39-.17,2.05-.4,1.25-.44,2.43-1.17,3.46-2,.69-.56,1.35-1.19,1.94-1.85l.05.14,1.64,4.64.25.71Z"/>
      <path class="cls-2" d="M15.09,33.23l-1.77,7.07c4.21-.59,8.03-3.65,10.57-6.21l-1.7-4.82c-.52.55-1.07,1.05-1.63,1.51-1.18.95-2.37,1.63-3.55,2.05-.66.23-1.3.37-1.92.41h0ZM12.95,40.96c-.09,0-.19-.04-.25-.1-.07-.08-.11-.18-.08-.27l1.94-7.73c.03-.13.15-.23.29-.23.62-.02,1.28-.15,1.96-.39,1.11-.39,2.25-1.04,3.37-1.95.66-.53,1.31-1.14,1.91-1.81.08-.08.19-.12.29-.1.11.02.19.1.23.2l1.94,5.49c.04.11.01.23-.07.32-2.7,2.75-6.88,6.13-11.48,6.58h-.03Z"/>
      <path class="cls-3" d="M32.36,7.04c1.72,3.79,1.22,8.79.15,12.59-.05.14-.08.29-.12.42l-.73.14-4.46.83-.52.1c.47-1.48.77-3.01.8-4.57,0-1.38-.18-2.78-.85-4.01l5.74-5.5Z"/>
      <path class="cls-2" d="M27,12.6c.53,1.07.77,2.34.77,3.95-.02,1.35-.24,2.75-.66,4.17h.02s5.01-.94,5.01-.94c.02-.09.05-.18.08-.26.61-2.16,1.8-7.59.03-11.97l-5.25,5.04h0ZM26.67,21.43c-.09,0-.17-.04-.23-.1-.07-.08-.1-.19-.06-.3.5-1.54.76-3.04.78-4.48,0-1.61-.26-2.84-.81-3.86-.07-.12-.04-.27.06-.37l5.74-5.5c.07-.07.17-.1.27-.08.1.02.18.08.22.18,2.1,4.63.82,10.5.17,12.81-.03.09-.05.17-.07.24l-.05.19c-.03.11-.12.19-.24.21l-5.72,1.07s-.04,0-.06,0Z"/>
      <path class="cls-4" d="M9.48,6.94c1.4-1.47,2.78-2.67,4.47-3.82,1.23-.81,2.31-1.41,3.71-1.96,1.04-.39,1.96-.64,3.07-.76l3.47,2c-1.56.18-2.89.64-4.33,1.31-1.45.71-2.6,1.46-3.91,2.48-1.04.83-1.94,1.65-2.9,2.64l-.11.12-3.47-2Z"/>
      <path class="cls-2" d="M9.98,6.87l2.92,1.69c.92-.96,1.81-1.77,2.87-2.61,1.38-1.07,2.56-1.82,3.97-2.51,1.29-.61,2.42-.99,3.55-1.21l-2.62-1.51c-.95.12-1.8.33-2.89.74-1.28.5-2.34,1.06-3.65,1.93-1.51,1.03-2.8,2.12-4.14,3.49h0ZM12.95,9.25c-.05,0-.11-.01-.15-.04l-3.47-2c-.08-.05-.14-.13-.15-.22-.01-.09.02-.19.08-.26,1.47-1.55,2.86-2.74,4.51-3.86,1.35-.89,2.45-1.47,3.78-1.99,1.18-.43,2.1-.66,3.14-.78.06,0,.13,0,.19.04l3.47,2c.12.07.17.2.15.33-.03.13-.13.23-.26.24-1.39.16-2.66.55-4.24,1.29-1.36.67-2.51,1.4-3.85,2.44-1.06.84-1.94,1.65-2.86,2.61l-.11.11c-.06.06-.14.09-.22.09Z"/>
      <path class="cls-4" d="M18.8,26.79l3.42,1.99c-.52.56-1.02,1.04-1.59,1.53-1.2,1-2.48,1.81-3.97,2.29-.62.19-1.13.29-1.78.31l-3.47-2c.55-.03.98-.1,1.52-.24,1.54-.44,2.91-1.24,4.14-2.24.61-.51,1.2-1.07,1.74-1.66Z"/>
      <path class="cls-2" d="M12.36,31.13l2.58,1.49c.56-.03,1.02-.12,1.61-.3,1.31-.42,2.54-1.13,3.86-2.23.45-.38.86-.77,1.31-1.23l-2.87-1.67c-.49.52-1.04,1.04-1.6,1.5-1.38,1.12-2.77,1.88-4.25,2.3-.23.06-.44.11-.64.14h0ZM14.86,33.24c-.05,0-.1-.02-.15-.04l-3.47-2c-.12-.07-.18-.21-.15-.34.03-.13.15-.23.29-.23.51-.02.92-.09,1.46-.23,1.4-.4,2.71-1.11,4.03-2.18.6-.5,1.19-1.06,1.7-1.62.1-.11.26-.13.39-.06l3.42,1.99c.08.05.13.13.15.22.01.09-.02.19-.08.25-.56.6-1.06,1.08-1.62,1.56-1.39,1.15-2.68,1.9-4.08,2.35-.68.21-1.2.3-1.86.33h-.02Z"/>
      <path class="cls-4" d="M23.13,10.51l3.49,2.04.09.18c.34.73.52,1.34.64,2.14.32,2.22-.05,4.31-.73,6.41l-3.55-1.77.08-.23c.69-2.15,1.09-4.5.68-6.75-.14-.74-.35-1.34-.7-2.01Z"/>
      <path class="cls-2" d="M23.45,19.35l2.98,1.49c.68-2.22.88-4.12.61-5.93-.13-.81-.3-1.39-.62-2.05l-.05-.09-2.58-1.51c.14.38.24.77.33,1.21.37,2.01.14,4.33-.68,6.88h0ZM26.62,21.58c-.05,0-.09-.01-.14-.03l-3.55-1.77c-.14-.07-.2-.23-.15-.37l.08-.23c.8-2.46,1.02-4.68.66-6.59-.14-.72-.34-1.3-.66-1.93-.07-.12-.04-.27.06-.37.1-.09.25-.11.37-.04l3.49,2.03s.09.07.12.12l.09.18c.34.72.53,1.36.67,2.23.29,2.01.05,4.09-.74,6.56-.03.09-.09.15-.17.19-.04.02-.08.02-.12.02Z"/>
      <path class="cls-4" d="M4.92,22.84l-.02.06c-.1.36-.2.71-.3,1.07l-.04.15c-.66,2.29-.92,5.12-.72,7.58.13,1.41.42,2.83.98,4.13l-3.47-2.01c-.32-.75-.52-1.41-.69-2.2-.43-2.05-.43-4.05-.19-6.16.17-1.35.43-2.63.79-3.96.06-.22.13-.45.19-.67l3.47,2Z"/>
      <path class="cls-2" d="M1.6,33.61l2.63,1.52c-.34-1.01-.57-2.13-.69-3.4-.2-2.53.07-5.4.73-7.7l.04-.14c.08-.3.16-.61.25-.91l-2.92-1.69c-.03.1-.06.19-.08.29-.36,1.32-.61,2.6-.78,3.92-.26,2.26-.2,4.19.19,6.06.18.78.37,1.4.64,2.05h0ZM4.83,36.14c-.05,0-.11-.02-.15-.04l-3.47-2.01c-.06-.03-.1-.08-.13-.15-.3-.72-.52-1.39-.71-2.25-.4-1.95-.46-3.94-.2-6.27.17-1.35.43-2.66.8-4.01.06-.23.13-.45.19-.68.03-.09.09-.16.18-.2.09-.03.19-.03.26.02l3.47,2c.13.07.18.22.14.35l-.02.06c-.1.35-.2.7-.3,1.06l-.04.16c-.64,2.24-.91,5.03-.72,7.48.15,1.56.46,2.88.96,4.03.05.12.02.26-.08.35-.06.05-.13.08-.2.08Z"/>
      <path class="cls-3" d="M12.95,8.94c2.81-2.97,6.94-6.06,11.21-6.54h0s0,0,0,0h.01s0,0,0,0h.02s0,0,0,0h.01s.01,0,.01,0l-1.95,7.72c-2.87.14-5.66,2.36-7.44,4.36l-1.9-5.54Z"/>
      <path class="cls-2" d="M13.3,9.02l1.67,4.87c1.31-1.39,4-3.8,7.08-4.07l1.78-7.07c-4.69.69-8.82,4.49-10.53,6.27h0ZM14.85,14.79s-.04,0-.06,0c-.11-.02-.19-.1-.23-.2l-1.9-5.54c-.04-.11-.01-.23.07-.31,1.71-1.8,6.23-6.06,11.4-6.64.01,0,.07,0,.08,0,.1,0,.2.02.26.1.07.08.09.18.06.28l-1.95,7.72c-.03.13-.15.22-.28.23-3.25.16-6.14,3.03-7.23,4.26-.06.07-.14.1-.23.1Z"/>
    </g>
  </g>
</svg>