<?xml version="1.0" encoding="UTF-8"?>
<svg id="Layer_2" data-name="Layer 2" xmlns="http://www.w3.org/2000/svg" viewBox="0 0 98.17 85.04" fill="currentColor">
  <defs>
    <style>
      .cls-1 {
        fill: #fff;
      }

      .cls-1, .cls-2, .cls-3, .cls-4 {
        fill-rule: evenodd;
      }

      .cls-2 {
        fill: #1a87c7;
      }

      .cls-3 {
        fill: #bdedf8;
      }

      .cls-4 {
        fill: #66ceef;
      }
    </style>
  </defs>
  <g id="_Layer_" data-name="&amp;lt;Layer&amp;gt;">
    <g>
      <polygon class="cls-3" points="95.97 49.11 55.96 26.01 .61 57.93 40.62 81.03 95.97 49.11"/>
      <path class="cls-2" d="M1.84,57.93l38.78,22.39,54.12-31.21-38.79-22.39L1.84,57.93h0ZM40.62,81.65c-.1,0-.21-.03-.31-.08L.31,58.46c-.19-.11-.31-.31-.31-.53,0-.21.13-.42.31-.53l55.33-31.92c.19-.1.43-.11.62,0l40,23.1c.19.11.31.31.31.53s-.12.42-.31.53l-55.33,31.93c-.11.05-.21.08-.32.08Z"/>
      <polygon class="cls-4" points="40.62 81.03 .61 57.93 .61 61.33 40.62 84.42 40.62 81.03"/>
      <path class="cls-2" d="M1.24,60.97l38.76,22.39v-1.97L1.24,59v1.97h0ZM40.62,85.04c-.1,0-.21-.03-.31-.08L.3,61.86c-.19-.12-.3-.31-.3-.53v-3.4c0-.22.13-.42.31-.53.19-.11.42-.11.61,0l40.02,23.1c.19.11.29.32.29.53v3.39c0,.22-.12.42-.31.53-.08.05-.19.08-.29.08Z"/>
      <polygon class="cls-3" points="40.62 84.42 95.97 52.5 95.97 49.11 40.62 81.03 40.62 84.42"/>
      <path class="cls-2" d="M41.23,81.39v1.97l54.12-31.21v-1.97l-54.12,31.21h0ZM40.62,85.04c-.1,0-.21-.03-.31-.08-.19-.11-.31-.31-.31-.53v-3.39c0-.22.12-.42.31-.53l55.35-31.93c.19-.11.42-.11.63,0,.17.11.29.31.29.53v3.4c0,.21-.12.42-.31.53l-55.36,31.93c-.08.05-.19.08-.29.08Z"/>
      <polygon class="cls-4" points="40.5 74.21 14.22 59.04 14.25 25.77 40.54 40.95 40.5 74.21"/>
      <path class="cls-2" d="M14.85,58.68l25.05,14.47.02-31.84-25.05-14.47-.02,31.84h0ZM40.5,74.83c-.1,0-.21-.03-.29-.08l-26.28-15.17c-.19-.11-.31-.31-.31-.54l.02-33.27c0-.22.12-.42.31-.53.19-.12.41-.12.61,0l26.28,15.18c.19.11.32.31.32.53l-.02,33.26c0,.22-.12.42-.31.53-.09.05-.19.08-.31.08Z"/>
      <polygon class="cls-1" points="40.5 74.21 40.54 40.94 84.15 15.8 84.14 49.06 40.5 74.21"/>
      <path class="cls-2" d="M41.15,41.3l-.02,31.85,42.39-24.44.02-31.85-42.38,24.44h0ZM40.5,74.83c-.1,0-.21-.03-.29-.08-.19-.11-.31-.31-.31-.53l.02-33.27c0-.22.12-.42.31-.53l43.61-25.15c.19-.11.42-.11.63,0,.19.11.29.31.29.53l-.02,33.27c0,.22-.12.42-.31.53l-43.61,25.15c-.09.05-.19.08-.31.08Z"/>
      <polygon class="cls-1" points="57.87 .62 84.15 15.8 81.93 17.08 57.87 3.19 57.87 .62"/>
      <path class="cls-2" d="M58.48,2.83l23.45,13.53.99-.57L58.48,1.69v1.15h0ZM81.93,17.69c-.12,0-.22-.03-.31-.08L57.56,3.72c-.19-.11-.31-.31-.31-.53V.62c0-.22.12-.42.31-.53.19-.12.42-.12.61,0l26.3,15.17c.19.11.29.31.29.53s-.12.42-.29.53l-2.24,1.28c-.09.06-.19.08-.29.08Z"/>
      <polygon class="cls-1" points="16.48 27.05 14.25 25.77 57.87 .62 57.87 3.19 16.48 27.05"/>
      <path class="cls-2" d="M15.47,25.77l1.01.58L57.25,2.83v-1.15L15.47,25.77h0ZM16.48,27.67c-.11,0-.2-.03-.31-.08l-2.23-1.29c-.19-.11-.31-.31-.31-.54s.12-.42.31-.53L57.56.08c.19-.11.42-.11.63,0,.17.1.29.31.29.53v2.57c0,.22-.12.42-.31.53L16.78,27.59c-.09.05-.19.08-.3.08Z"/>
      <polygon class="cls-3" points="40.54 40.94 16.48 27.05 57.91 3.25 82.17 16.9 40.54 40.94"/>
      <path class="cls-2" d="M17.72,27.06l22.82,13.18,40.38-23.33L57.91,3.95,17.72,27.06h0ZM40.54,41.56c-.1,0-.23-.03-.31-.08l-24.06-13.89c-.19-.1-.31-.31-.31-.53s.12-.42.31-.53L57.59,2.71c.19-.11.42-.11.61,0l24.27,13.66c.19.11.31.31.31.53s-.12.43-.31.54l-41.63,24.04c-.08.06-.19.08-.29.08Z"/>
      <polygon class="cls-4" points="58.1 15.42 52.88 12.41 52.88 8.52 58.1 11.53 58.1 15.42"/>
      <path class="cls-2" d="M53.49,12.05l4,2.31v-2.47l-4-2.3v2.46h0ZM58.1,16.04c-.11,0-.21-.03-.32-.08l-5.21-3.01c-.19-.11-.3-.31-.3-.53v-3.89c0-.22.1-.43.3-.53.19-.11.43-.11.62,0l5.21,3.01c.19.11.31.31.31.53v3.89c0,.22-.12.42-.31.53-.11.05-.21.08-.31.08Z"/>
      <polygon class="cls-3" points="58.1 11.53 52.88 8.52 57.87 5.58 63.14 8.62 58.1 11.53"/>
      <path class="cls-2" d="M54.1,8.51l4,2.31,3.81-2.2-4.04-2.33-3.77,2.22h0ZM58.1,12.15c-.11,0-.21-.03-.32-.08l-5.21-3.01c-.19-.11-.3-.31-.3-.53s.1-.42.3-.53l4.98-2.94c.19-.12.42-.12.61,0l5.29,3.05c.19.11.31.31.31.53s-.12.42-.31.54l-5.04,2.9c-.11.05-.21.08-.31.08Z"/>
      <polygon class="cls-1" points="58.1 11.53 63.14 8.63 63.14 12.51 58.1 15.42 58.1 11.53"/>
      <path class="cls-2" d="M58.72,11.89v2.47l3.8-2.2v-2.46l-3.8,2.2h0ZM58.1,16.04c-.11,0-.21-.03-.32-.08-.19-.11-.29-.31-.29-.53v-3.89c0-.22.1-.42.29-.53l5.06-2.9c.19-.11.42-.11.61,0,.19.11.31.31.31.53v3.88c0,.22-.12.42-.31.53l-5.04,2.91c-.11.05-.21.08-.31.08Z"/>
      <polygon class="cls-4" points="48.01 21.23 42.8 18.22 42.8 14.33 48.01 17.35 48.01 21.23"/>
      <path class="cls-2" d="M43.41,17.86l3.98,2.31v-2.47l-3.98-2.3v2.46h0ZM48.01,21.85c-.11,0-.2-.03-.31-.08l-5.22-3.01c-.19-.1-.31-.31-.31-.53v-3.88c0-.23.12-.42.31-.53.19-.11.44-.11.63,0l5.21,3.01c.19.11.29.31.29.53v3.88c0,.22-.11.43-.29.54-.11.06-.21.08-.31.08Z"/>
      <polygon class="cls-3" points="48.01 17.35 42.8 14.33 47.77 11.39 53.05 14.44 48.01 17.35"/>
      <path class="cls-2" d="M44.02,14.32l4,2.31,3.81-2.2-4.03-2.34-3.77,2.22h0ZM48.01,17.96c-.11,0-.2-.03-.31-.08l-5.22-3.01c-.19-.1-.31-.31-.31-.53s.12-.42.31-.53l4.97-2.94c.19-.11.44-.11.63,0l5.28,3.04c.19.11.31.31.31.54s-.12.42-.31.53l-5.04,2.91c-.11.05-.21.08-.31.08Z"/>
      <polygon class="cls-1" points="48.01 17.35 53.05 14.44 53.05 18.32 48.01 21.23 48.01 17.35"/>
      <path class="cls-2" d="M48.62,17.7v2.46l3.83-2.2v-2.46l-3.83,2.2h0ZM48.01,21.85c-.11,0-.2-.03-.31-.08-.19-.11-.31-.31-.31-.54v-3.88c0-.22.12-.42.31-.53l5.04-2.91c.19-.11.44-.11.62,0,.19.11.31.31.31.54l-.02,3.88c0,.22-.1.42-.29.54l-5.04,2.9c-.11.06-.21.08-.31.08Z"/>
      <polygon class="cls-4" points="48.22 69.77 59.38 63.32 59.4 42.16 48.22 48.61 48.22 69.77"/>
      <path class="cls-2" d="M48.83,48.97v19.73l9.94-5.73v-19.73l-9.94,5.73h0ZM48.22,70.39c-.12,0-.23-.03-.31-.08-.19-.11-.31-.31-.31-.53l.02-21.16c0-.22.11-.42.29-.53l11.18-6.45c.19-.11.42-.11.61,0,.19.12.31.31.31.53v21.16c0,.22-.12.42-.31.53l-11.18,6.45c-.08.06-.19.08-.29.08Z"/>
      <path class="cls-3" d="M79.46,33.36v12.62c0,.09-.07.2-.14.24l-12.9,7.45c-.07.05-.14.01-.14-.08v-12.62c0-.09.07-.2.14-.24l12.9-7.45c.07-.04.14,0,.14.08Z"/>
      <path class="cls-2" d="M66.89,41.16v11.52l11.96-6.9v-11.52l-11.96,6.9h0ZM66.35,54.28c-.12,0-.24-.03-.33-.08-.22-.13-.35-.36-.35-.62v-12.62c0-.31.17-.62.44-.77l12.89-7.45c.19-.12.54-.12.71-.01.23.13.35.36.35.62v12.62c0,.31-.18.62-.43.78l-12.9,7.45c-.1.06-.24.09-.38.09Z"/>
      <polygon class="cls-1" points="46.87 35.06 46.02 34.57 46.9 34.03 47.77 34.53 46.87 35.06"/>
      <path class="cls-2" d="M46.87,35.68c-.11,0-.21-.03-.31-.08l-.83-.49c-.19-.11-.31-.31-.31-.53s.1-.42.29-.53l.89-.54c.19-.12.43-.12.63,0l.87.5c.19.11.31.31.31.53s-.12.42-.31.53l-.91.53c-.11.05-.21.08-.31.08Z"/>
      <polygon class="cls-1" points="48.64 34.08 50.36 33.09 50.36 35.37 48.64 36.36 48.64 34.08"/>
      <path class="cls-2" d="M49.25,34.43v.86l.5-.28v-.86l-.5.28h0ZM48.64,36.98c-.11,0-.21-.03-.31-.08-.19-.11-.3-.31-.3-.53v-2.29c0-.21.1-.42.3-.53l1.72-.99c.19-.1.43-.11.63,0,.19.11.29.31.29.54v2.28c0,.22-.11.42-.29.53l-1.72,1c-.1.05-.21.08-.31.08Z"/>
      <polygon class="cls-1" points="75.27 18.6 76.99 17.61 76.99 19.89 75.27 20.88 75.27 18.6"/>
      <path class="cls-2" d="M75.9,18.96v.86l.49-.28v-.86l-.49.28h0ZM75.27,21.5c-.1,0-.21-.03-.31-.08-.19-.11-.29-.31-.29-.53v-2.28c0-.22.1-.42.29-.53l1.72-1c.19-.11.43-.11.62,0,.19.11.29.31.29.53v2.28c0,.22-.1.42-.29.53l-1.72,1c-.11.05-.21.08-.31.08Z"/>
      <polygon class="cls-1" points="45.55 25.96 78.89 6.71 78.89 16.62 45.55 35.87 45.55 25.96"/>
      <path class="cls-2" d="M46.15,26.31v8.49l32.13-18.53V7.78l-32.13,18.53h0ZM45.55,36.48c-.1,0-.21-.03-.31-.08-.19-.11-.31-.31-.31-.53v-9.91c0-.22.12-.42.31-.53L78.57,6.18c.19-.1.43-.1.63,0,.19.11.31.32.31.53v9.91c0,.23-.12.42-.31.54l-33.34,19.25c-.11.05-.21.08-.31.08Z"/>
      <path class="cls-2" d="M70.84,14.71v1.53l.54-.31c.36-.21.64-.39.83-.55.12-.09.24-.22.35-.38.13-.15.21-.33.3-.53.07-.19.1-.39.1-.6,0-.24-.05-.31-.05-.31-.07.04-.26.1-.96.51l-1.11.64h0ZM70.22,19.71c-.33,0-.61-.28-.61-.62v-4.74c0-.22.12-.42.31-.53l1.41-.82c.78-.45,1.04-.56,1.2-.6.57-.16.96.03,1.2.22.31.26.47.69.47,1.25,0,.37-.07.72-.19,1.04-.12.31-.26.59-.45.83-.18.24-.37.44-.58.6-.23.19-.56.4-.99.66l-1.15.67v1.43c0,.34-.28.62-.62.62Z"/>
      <path class="cls-2" d="M67.08,16.92c-.2,0-.47.1-.78.27-.31.18-.57.39-.82.63-.17.17-.33.39-.47.64-.16.26-.28.51-.37.77-.11.34-.17.72-.17,1.14,0,.48.11.82.26.91.17.09.52,0,.95-.25.56-.33.99-.76,1.32-1.32.33-.57.5-1.16.5-1.82,0-.5-.1-.84-.26-.93-.05-.03-.1-.04-.18-.04h0ZM64.91,22.55c-.28,0-.52-.06-.77-.19-.59-.32-.89-.99-.89-1.99,0-.55.07-1.06.22-1.53.12-.34.28-.68.47-1.01.19-.33.42-.63.64-.87.31-.32.68-.6,1.08-.83.85-.49,1.57-.57,2.15-.26.61.33.92,1,.92,2.02,0,.88-.23,1.7-.68,2.45-.43.74-1.02,1.34-1.75,1.76-.52.3-.99.45-1.4.45Z"/>
      <path class="cls-2" d="M58.3,24.17c-.21,0-.42-.11-.52-.31-.17-.29-.07-.67.23-.84l3.49-2.02c.29-.17.68-.07.85.22.17.3.07.68-.23.84l-3.51,2.02c-.09.06-.21.08-.31.08Z"/>
      <path class="cls-2" d="M61.82,24.52c-.33,0-.61-.28-.61-.62v-4.74c0-.34.28-.62.61-.62.35,0,.63.28.63.62v4.74c0,.34-.28.62-.63.62Z"/>
      <path class="cls-2" d="M58.3,26.54c-.33,0-.61-.28-.61-.62v-4.74c0-.34.28-.62.61-.62.35,0,.63.28.63.62v4.74c0,.34-.28.62-.63.62Z"/>
      <path class="cls-2" d="M53.54,29.01c-.21,0-.42-.04-.59-.13-.33-.15-.73-.51-.83-1.35-.03-.34.21-.64.56-.68.35-.04.64.2.68.54.03.28.1.37.12.38.07.04.41,0,.95-.36.72-.48,1.18-1.03,1.16-1.39.06-.07-.08-.07-.55.14-.58.26-1.43.56-2.07.18-.26-.16-.58-.48-.61-1.14-.05-.9.71-1.8,1.46-2.34.37-.28,1.34-.89,2.14-.59.3.12.8.44.83,1.36,0,.34-.26.62-.59.63h-.04c-.33,0-.59-.26-.61-.59-.02-.19-.05-.25-.05-.25-.11-.02-.57.11-1.11.55-.54.45-.82.93-.82,1.16.02.12.03.17.03.18h.04c.07,0,.33-.01.89-.26.37-.17,1.13-.51,1.74-.15.22.14.52.45.54,1.08.05,1.13-1.04,2.03-1.7,2.47-.58.38-1.12.58-1.57.58Z"/>
      <polygon class="cls-3" points="40.54 40.95 83.96 15.86 97.56 29.21 54.12 54.29 40.54 40.95"/>
      <path class="cls-2" d="M41.55,41.07l12.68,12.45,42.32-24.44-12.67-12.45-42.33,24.44h0ZM54.12,54.91c-.16,0-.31-.06-.43-.18l-13.58-13.34c-.14-.14-.21-.33-.18-.52.02-.19.13-.36.3-.46l43.44-25.08c.23-.14.54-.1.73.09l13.59,13.34c.14.14.19.33.17.52-.02.19-.14.36-.29.46l-43.44,25.08c-.1.06-.2.08-.31.08Z"/>
      <polygon class="cls-3" points="40.54 40.95 54.12 54.29 40.52 45.69 40.54 40.95"/>
      <path class="cls-2" d="M41.15,45.35l8.41,5.33-8.41-8.27v2.94h0ZM54.12,54.91c-.11,0-.23-.04-.33-.1l-13.6-8.6c-.17-.11-.28-.31-.28-.52v-4.75c0-.25.16-.47.38-.57.23-.09.49-.05.68.13l13.58,13.34c.22.22.24.58.05.82-.12.15-.29.24-.48.24Z"/>
      <polygon class="cls-1" points="44.49 38.67 48.43 36.38 62.03 49.73 58.06 52.01 44.49 38.67"/>
      <path class="cls-2" d="M45.49,38.79l12.67,12.44,2.83-1.63-12.67-12.45-2.83,1.64h0ZM58.06,52.62c-.16,0-.31-.06-.42-.17l-13.59-13.35c-.14-.13-.21-.32-.17-.51.01-.19.14-.36.29-.46l3.95-2.28c.24-.14.56-.1.75.09l13.58,13.35c.14.14.21.33.19.52-.03.19-.14.36-.31.46l-3.95,2.28c-.08.05-.21.08-.31.08Z"/>
      <polygon class="cls-1" points="52.38 34.1 56.32 31.83 69.92 45.17 65.97 47.45 52.38 34.1"/>
      <path class="cls-2" d="M53.38,34.24l12.68,12.44,2.85-1.64-12.67-12.45-2.86,1.65h0ZM65.97,48.06c-.16,0-.31-.06-.43-.17l-13.59-13.35c-.14-.14-.19-.33-.17-.51.02-.19.14-.36.31-.46l3.95-2.28c.22-.14.53-.1.73.09l13.59,13.35c.14.14.19.32.17.52-.02.19-.14.36-.31.45l-3.95,2.28c-.09.05-.19.08-.3.08Z"/>
      <polygon class="cls-1" points="60.27 29.55 64.23 27.27 77.81 40.61 73.86 42.89 60.27 29.55"/>
      <path class="cls-2" d="M61.3,29.67l12.67,12.45,2.83-1.64-12.68-12.45-2.83,1.64h0ZM73.86,43.51c-.16,0-.31-.06-.43-.18l-13.58-13.34c-.14-.14-.2-.32-.19-.52.04-.19.14-.36.31-.46l3.95-2.28c.24-.14.54-.1.73.09l13.6,13.35c.14.13.2.32.17.51-.02.19-.14.36-.29.46l-3.95,2.28c-.1.06-.21.08-.31.08Z"/>
      <polygon class="cls-1" points="68.18 24.99 72.13 22.7 85.7 36.05 81.75 38.33 68.18 24.99"/>
      <path class="cls-2" d="M69.19,25.11l12.67,12.44,2.83-1.63-12.67-12.45-2.83,1.64h0ZM81.75,38.95c-.15,0-.31-.06-.43-.18l-13.58-13.35c-.14-.13-.21-.32-.18-.51.02-.19.12-.36.3-.46l3.95-2.28c.24-.14.54-.1.74.09l13.58,13.34c.14.14.21.33.19.52-.04.19-.14.36-.31.46l-3.95,2.28c-.11.05-.21.08-.31.08Z"/>
      <polygon class="cls-1" points="76.07 20.42 80.02 18.14 93.61 31.49 89.67 33.77 76.07 20.42"/>
      <path class="cls-2" d="M77.08,20.55l12.68,12.44,2.85-1.64-12.68-12.45-2.85,1.65h0ZM89.67,34.38c-.17,0-.33-.06-.43-.17l-13.59-13.35c-.14-.14-.21-.32-.17-.51.02-.19.14-.36.29-.46l3.95-2.28c.25-.14.56-.1.75.09l13.58,13.35c.14.14.2.32.19.52-.04.19-.14.36-.31.46l-3.95,2.28c-.08.05-.19.08-.29.08Z"/>
    </g>
  </g>
</svg>