<?xml version="1.0" encoding="UTF-8"?>
<svg id="Layer_2" data-name="Layer 2" xmlns="http://www.w3.org/2000/svg" viewBox="0 0 34.09 42.4" fill="currentColor">
  <defs>
    <style>
      .cls-1 {
        fill: #fff;
      }

      .cls-1, .cls-2, .cls-3, .cls-4 {
        fill-rule: evenodd;
      }

      .cls-2 {
        fill: #1a87c7;
      }

      .cls-3 {
        fill: #bdedf8;
      }

      .cls-4 {
        fill: #66ceef;
      }
    </style>
  </defs>
  <g id="_Layer_" data-name="&amp;lt;Layer&amp;gt;">
    <g>
      <path class="cls-4" d="M20.06,18.33l-2-1.16c2.53,1.76-1.22,8.25-4.01,6.94,1.66.96,3.26,2.64,5.59-.51.93-1.27,2.07-4.12.42-5.27Z"/>
      <path class="cls-2" d="M15.32,24.54c1.25.75,2.42,1.11,4.07-1.12.7-.96,1.35-2.59,1.17-3.72-.08-.48-.3-.85-.66-1.11l-.81-.47c.33,1.14-.07,2.63-.77,3.84-.7,1.22-1.82,2.32-2.99,2.58h0ZM16.95,25.72c-.91,0-1.72-.51-2.44-.97-.2-.13-.41-.26-.62-.38-.14-.08-.19-.26-.12-.41.08-.15.25-.21.4-.13,1.26.59,2.75-.72,3.6-2.19.85-1.48,1.25-3.42.1-4.22-.14-.09-.17-.28-.08-.42.09-.14.27-.19.41-.11l2,1.16s.02,0,.02,0c.52.36.83.87.94,1.52.23,1.38-.5,3.14-1.28,4.19-1.08,1.46-2.06,1.94-2.94,1.94Z"/>
      <path class="cls-4" d="M29.18,2.54c-3.18-1.83-5.03-2.91-9.19-1.76C5.63,4.8-5.35,30.24,3.46,38.76c.97.94,2.3,1.6,3.48,2.28-7.49-4.76-4.36-17.18-1-23.8C9.4,10.39,17.36,1.09,25.56,1.51c1.4.07,2.4.4,3.62,1.03Z"/>
      <path class="cls-2" d="M23.08.62c-.87,0-1.85.15-3.01.47C11.05,3.61,3.75,14.57,1.46,23.62c-1.66,6.52-.85,11.96,2.21,14.92.23.22.48.43.75.63-4.37-5.62-1.92-15.83,1.24-22.07C9.01,10.47,17.11.77,25.57,1.2c.16,0,.31.02.47.03-.94-.39-1.87-.62-2.96-.62h0ZM6.94,41.35c-.05,0-.11-.02-.15-.04-.22-.13-.44-.25-.67-.37-1.01-.57-2.06-1.16-2.88-1.95C.02,35.87-.85,30.21.86,23.46,3.19,14.25,10.66,3.08,19.91.49c4.27-1.19,6.2-.08,9.39,1.77,0,0,.01,0,.01,0,0,0,.01.01.01.01h0c.13.09.19.27.11.41-.08.15-.25.22-.4.13-1.25-.65-2.23-.93-3.49-1-8.21-.42-16.05,9.08-19.33,15.57C2.69,24.33.03,36.29,7.11,40.78c.14.1.18.28.1.43-.06.09-.16.15-.26.15Z"/>
      <path class="cls-4" d="M18.06,15.97c2.78-1.6,5.04-.3,5.04,2.92,0,3.22-2.26,7.13-5.05,8.73-2.78,1.61-5.04.3-5.04-2.92s2.26-7.13,5.05-8.73h0ZM18.06,3.64C9.38,8.65,2.34,20.83,2.34,30.86c0,10.02,7.03,14.09,15.71,9.08,8.68-5.01,15.72-17.19,15.73-27.21,0-10.03-7.03-14.1-15.71-9.09h0Z"/>
      <path class="cls-2" d="M18.21,16.23c-2.7,1.56-4.89,5.36-4.89,8.47,0,1.44.47,2.51,1.32,3.01.85.49,2.01.36,3.26-.36,2.7-1.56,4.89-5.36,4.89-8.47,0-1.44-.47-2.51-1.32-3-.85-.5-2.01-.37-3.26.35h0ZM15.8,28.62c-.53,0-1.03-.13-1.47-.38-1.05-.61-1.63-1.86-1.63-3.54,0-3.3,2.33-7.35,5.2-9h0c1.45-.83,2.82-.96,3.87-.36,1.05.61,1.63,1.87,1.63,3.54,0,3.31-2.33,7.35-5.2,9.01-.84.49-1.66.73-2.4.73h0ZM25.08,1.8c1.44,0,2.78.34,3.95,1.02,2.87,1.66,4.45,5.18,4.45,9.92,0,9.91-6.99,22-15.57,26.95-4.1,2.36-7.93,2.75-10.8,1.09-2.87-1.66-4.45-5.18-4.45-9.92,0-9.92,6.99-22.01,15.57-26.95,2.43-1.4,4.76-2.11,6.86-2.11h0ZM11.04,42.4c-1.55,0-2.98-.36-4.25-1.1-3.07-1.77-4.76-5.48-4.75-10.45,0-10.11,7.13-22.44,15.88-27.49,4.29-2.48,8.35-2.87,11.41-1.1,3.07,1.77,4.76,5.48,4.76,10.46,0,10.11-7.13,22.43-15.88,27.48-2.52,1.46-4.96,2.19-7.17,2.19Z"/>
      <path class="cls-3" d="M26.69,1.64c-1.81-.33-3.87-.09-6.08.78l-2.55,11.96c1.31-.33,2.59-.45,3.82-.35L26.69,1.64Z"/>
      <path class="cls-2" d="M20.87,2.64l-2.41,11.33c1.11-.24,2.19-.32,3.21-.26L26.26,1.88c-1.65-.23-3.47.03-5.39.76h0ZM18.05,14.68c-.08,0-.16-.03-.21-.09-.08-.07-.11-.18-.09-.28l2.55-11.96c.02-.1.09-.18.19-.22,2.24-.87,4.34-1.14,6.25-.79.09.02.17.07.22.16.04.08.05.17.02.26l-4.81,12.39c-.05.13-.18.21-.31.2-1.18-.11-2.43,0-3.72.33-.02.01-.05.01-.08.01Z"/>
      <path class="cls-3" d="M9.5,41.96c1.76.3,3.75.08,5.9-.74l2.5-11.74c-1.26.32-2.5.43-3.68.33l-4.72,12.15Z"/>
      <path class="cls-2" d="M9.93,41.71c1.6.21,3.35-.03,5.2-.72l2.37-11.1c-1.06.23-2.09.3-3.07.25l-4.5,11.57h0ZM11.05,42.4c-.55,0-1.08-.05-1.6-.13-.09-.02-.17-.07-.21-.15-.04-.08-.05-.18-.02-.26l4.72-12.15c.05-.12.19-.2.31-.19,1.13.1,2.33,0,3.58-.32.11-.03.21,0,.29.08.07.07.11.18.08.29l-2.5,11.74c-.02.1-.09.18-.19.22-1.56.59-3.05.89-4.46.89Z"/>
      <path class="cls-1" d="M18.06,18.52c-1.56.9-2.83,3.1-2.83,4.91,0,1.8,1.27,2.54,2.83,1.63,1.56-.9,2.83-3.09,2.83-4.9,0-1.81-1.27-2.55-2.83-1.64h0ZM18.06,15.88c2.83-1.62,5.12-.3,5.12,2.97,0,3.27-2.3,7.23-5.12,8.87-2.83,1.63-5.12.3-5.11-2.97,0-3.26,2.29-7.23,5.12-8.87h0Z"/>
      <path class="cls-2" d="M18.21,18.79c-1.47.85-2.67,2.93-2.68,4.64,0,.76.24,1.31.68,1.56.43.25,1.04.18,1.69-.2,1.48-.85,2.68-2.93,2.68-4.63,0-.76-.24-1.32-.68-1.57-.44-.25-1.04-.18-1.7.2h0ZM16.79,25.76c-.32,0-.62-.08-.89-.23-.63-.36-.98-1.11-.98-2.1,0-1.9,1.34-4.22,2.99-5.17h0c.85-.5,1.67-.57,2.31-.2.63.37.98,1.11.98,2.1,0,1.9-1.34,4.22-2.99,5.17-.49.29-.98.42-1.42.42h0ZM18.21,16.15h0c1.27-.73,2.44-.86,3.31-.36.87.51,1.34,1.58,1.34,3.05,0,3.16-2.23,7.02-4.97,8.6-1.27.73-2.44.86-3.31.36-.87-.5-1.34-1.58-1.34-3.05,0-3.15,2.23-7.01,4.97-8.6h0ZM15.77,28.71c-.54,0-1.04-.13-1.49-.38-1.06-.62-1.65-1.89-1.65-3.59,0-3.35,2.37-7.45,5.27-9.12h0c1.47-.85,2.86-.97,3.93-.36,1.07.61,1.65,1.89,1.65,3.58,0,3.35-2.37,7.46-5.28,9.13-.85.49-1.68.74-2.44.74Z"/>
      <path class="cls-1" d="M18.06,15.97c-2.79,1.61-5.05,5.52-5.05,8.73s2.26,4.53,5.04,2.92c2.79-1.61,5.05-5.52,5.05-8.73,0-3.21-2.26-4.52-5.04-2.92h0ZM18.05,29.45c-3.66,2.11-6.63.39-6.63-3.83,0-4.23,2.97-9.37,6.63-11.48,3.66-2.11,6.63-.4,6.63,3.83,0,4.22-2.97,9.37-6.63,11.48h0Z"/>
      <path class="cls-2" d="M18.21,16.23c-2.7,1.56-4.89,5.36-4.89,8.47,0,1.44.47,2.51,1.32,3.01.85.49,2.01.36,3.26-.36,2.7-1.56,4.89-5.36,4.89-8.47,0-1.44-.47-2.51-1.32-3-.85-.5-2.01-.37-3.26.35h0ZM15.8,28.62c-.53,0-1.03-.13-1.47-.38-1.05-.61-1.63-1.86-1.63-3.54,0-3.3,2.33-7.35,5.2-9h0c1.45-.83,2.82-.96,3.87-.36,1.05.61,1.63,1.87,1.63,3.54,0,3.31-2.33,7.35-5.2,9.01-.84.49-1.66.73-2.4.73h0ZM21.02,13.54c.58,0,1.11.13,1.58.4,1.15.67,1.79,2.09,1.79,4.03,0,4.12-2.91,9.15-6.48,11.21h0c-1.67.96-3.23,1.13-4.38.46-1.15-.66-1.79-2.09-1.79-4.02,0-4.13,2.91-9.16,6.48-11.22,1-.57,1.95-.86,2.8-.86h0ZM15.1,30.66c-.69,0-1.32-.16-1.88-.48-1.35-.78-2.1-2.41-2.1-4.56,0-4.32,3.05-9.59,6.79-11.75,1.87-1.08,3.64-1.24,4.99-.46,1.35.78,2.1,2.4,2.1,4.56,0,4.32-3.05,9.59-6.79,11.74h0c-1.09.63-2.15.95-3.11.95Z"/>
      <path class="cls-3" d="M18.06,15.97c2.76-1.58,4.99-.3,4.99,2.88,0,3.18-2.23,7.05-4.99,8.64-2.75,1.59-4.99.3-4.98-2.89,0-3.18,2.24-7.05,4.99-8.64Z"/>
      <path class="cls-2" d="M18.21,16.23c-2.66,1.54-4.84,5.29-4.84,8.37,0,1.43.46,2.48,1.3,2.97.84.49,1.99.36,3.22-.35,2.66-1.54,4.83-5.29,4.84-8.38,0-1.43-.46-2.48-1.31-2.96-.84-.49-1.99-.37-3.22.35h0ZM15.83,28.48c-.53,0-1.02-.12-1.45-.37-1.04-.6-1.61-1.84-1.61-3.5,0-3.27,2.31-7.27,5.14-8.9h0c1.43-.83,2.79-.96,3.84-.35,1.04.6,1.61,1.84,1.61,3.49,0,3.28-2.31,7.28-5.15,8.91-.83.48-1.64.72-2.38.72Z"/>
      <path class="cls-4" d="M18.06,20.68c.5-.29.9-.05.9.53s-.41,1.27-.9,1.56c-.5.29-.9.05-.9-.52s.4-1.27.9-1.56Z"/>
      <path class="cls-2" d="M18.21,20.95c-.41.23-.75.83-.75,1.29,0,.16.04.28.11.32.07.03.19.02.33-.06.41-.24.75-.84.75-1.3,0-.16-.04-.27-.11-.31-.07-.04-.19-.02-.33.06h0ZM17.65,23.2c-.14,0-.27-.03-.39-.1-.26-.15-.42-.46-.42-.85,0-.68.46-1.49,1.06-1.82h0c.33-.19.68-.22.95-.06.26.15.42.46.42.85,0,.68-.47,1.49-1.06,1.83-.19.11-.38.17-.56.17Z"/>
    </g>
  </g>
</svg>