<?xml version="1.0" encoding="UTF-8"?>
<svg id="Layer_2" data-name="Layer 2" xmlns="http://www.w3.org/2000/svg" viewBox="0 0 24.97 41.27" fill="currentColor">
  <defs>
    <style>
      .cls-1 {
        fill: #fff;
      }

      .cls-1, .cls-2, .cls-3, .cls-4 {
        fill-rule: evenodd;
      }

      .cls-2 {
        fill: #1a87c7;
      }

      .cls-3 {
        fill: #bdedf8;
      }

      .cls-4 {
        fill: #66ceef;
      }
    </style>
  </defs>
  <g id="_Layer_" data-name="&amp;lt;Layer&amp;gt;">
    <g>
      <path class="cls-4" d="M3.88,13.37v22.95c.02.4.08.7.42.94l6.25,3.61c-.35-.24-.41-.54-.43-.95v-22.95c-.01-.11-.01-.16-.1-.23l-6.24-3.61c.09.08.1.12.1.23h0ZM12.72,28.98v2.04c.02.4.08.7.43.94l6.34,3.66c-.43-.25-.5-.5-.53-.99v-2.04c-.02-.9-.11-1.6-.58-2.38-.31-.44-.55-.65-1-.91l-.95-.55-5.17-2.98c.41.25.6.44.88.83.47.78.56,1.48.58,2.38h0Z"/>
      <path class="cls-2" d="M12.65,26.92c.29.66.36,1.29.37,2.06h0v2.04c.02.38.09.54.3.69l5.34,3.08s0-.1,0-.15v-2.05c-.02-.87-.11-1.51-.54-2.23-.26-.37-.47-.56-.9-.8l-4.57-2.64h0ZM19.49,35.93c-.05,0-.1,0-.15-.04h0l-6.35-3.65c-.51-.35-.57-.8-.59-1.19v-2.05c-.02-.87-.1-1.52-.53-2.24-.24-.33-.41-.5-.78-.73-.14-.1-.18-.28-.09-.43.09-.14.27-.19.42-.1l6.11,3.53c.51.3.78.55,1.11,1,.51.85.62,1.58.64,2.55v2.05c.03.43.08.55.38.72.15.09.2.28.11.42-.06.1-.17.16-.27.16h0ZM4.19,13.73v22.59c.02.39.08.54.29.69l5.34,3.09c0-.05,0-.1,0-.16v-22.96l-5.63-3.24h0ZM10.55,41.17c-.05,0-.1,0-.16-.04l-6.24-3.6c-.51-.35-.57-.8-.58-1.2V13.34c-.13-.1-.16-.27-.06-.4.09-.13.27-.16.42-.08l6.24,3.61c.23.19.24.35.26.48v22.97c.02.39.08.55.3.69.13.1.17.28.08.42-.05.09-.16.14-.25.14Z"/>
      <polygon class="cls-3" points="12.96 3.91 6.72 .3 .3 15.01 6.55 18.62 12.96 3.91"/>
      <path class="cls-2" d="M.7,14.88l5.7,3.29,6.16-14.13L6.86.74.7,14.88h0ZM6.55,18.92c-.06,0-.11-.02-.16-.04L.16,15.28c-.14-.08-.19-.25-.13-.39L6.44.18c.03-.08.1-.14.18-.17.09-.03.18-.02.25.03l6.24,3.61c.14.08.19.24.13.38l-6.41,14.71c-.03.08-.11.14-.18.17-.03.02-.07.02-.09.02Z"/>
      <path class="cls-1" d="M10.12,39.92c0,.47.17.79.43.95.26.15.62.13,1.02-.1l2.78-1.6c.81-.47,1.46-1.6,1.46-2.53v-6.88c0-.22-.03-.45.11-.69.14-.25.37-.38.51-.31l.78.44c.37.23.7.41,1,.77.51.63.76,1.51.76,2.63v2.04c0,.92.65,1.3,1.46.84l2.78-1.61c.8-.47,1.45-1.6,1.45-2.53v-1.73c0-1.8-.27-3.32-.83-4.54-.56-1.22-1.38-2.16-2.49-2.79l-5.2-3c-.13-.08-.33-.13-.33-.36v-5.24c0-.23.17-.51.36-.63l3.19-1.84-6.42-7.3-6.4,14.71,3.2-1.85c.21-.12.37-.03.37.21v22.95Z"/>
      <path class="cls-2" d="M9.92,16.41c.09,0,.17.02.25.06.16.1.26.28.26.5v22.95c0,.33.1.58.27.68.17.11.44.06.72-.1l2.78-1.61c.71-.41,1.3-1.44,1.3-2.26v-6.99c0-.19,0-.46.15-.75.23-.41.63-.58.94-.41l.76.44c.41.23.77.44,1.1.84.55.67.82,1.62.82,2.82v2.04c0,.33.1.57.28.67.17.1.43.07.72-.1l2.78-1.61c.71-.41,1.31-1.44,1.31-2.26v-1.73c0-1.75-.27-3.23-.8-4.41-.53-1.16-1.32-2.05-2.37-2.65l-5.19-3c-.2-.1-.5-.25-.5-.63v-5.24c0-.34.23-.72.52-.9l2.87-1.65-5.84-6.66-5.85,13.4,2.4-1.38c.11-.06.21-.09.31-.09h0ZM10.92,41.27c-.19,0-.37-.04-.53-.14-.37-.22-.58-.64-.58-1.21v-22.83l-3.11,1.79c-.11.07-.26.05-.36-.03-.09-.09-.13-.23-.08-.36L12.68,3.79c.04-.1.13-.17.24-.18.1,0,.21.03.28.1l6.41,7.29c.06.07.09.17.07.25-.01.1-.07.17-.15.22l-3.2,1.85c-.11.06-.21.24-.21.36v5.24s.06.03.1.05l.09.04,5.2,3c1.16.67,2.03,1.65,2.61,2.93.57,1.26.86,2.83.86,4.67v1.73c0,1.04-.71,2.28-1.62,2.79l-2.78,1.61c-.49.29-.96.32-1.33.1-.38-.22-.58-.64-.58-1.21v-2.04c0-1.05-.24-1.87-.69-2.43-.26-.32-.54-.49-.9-.7l-.78-.45s-.03.08-.1.18c-.08.14-.08.26-.07.43v7.01c0,1.04-.7,2.27-1.61,2.79l-2.78,1.61c-.28.16-.55.23-.81.23Z"/>
    </g>
  </g>
</svg>