<?xml version="1.0" encoding="UTF-8"?>
<svg id="Layer_2" data-name="Layer 2" xmlns="http://www.w3.org/2000/svg" viewBox="0 0 35.84 41.24" fill="currentColor">
  <defs>
    <style>
      .cls-1 {
        fill: #fff;
      }

      .cls-1, .cls-2, .cls-3 {
        fill-rule: evenodd;
      }

      .cls-2 {
        fill: #1a87c7;
      }

      .cls-3 {
        fill: #bdedf8;
      }
    </style>
  </defs>
  <g id="_Layer_" data-name="&amp;lt;Layer&amp;gt;">
    <g>
      <path class="cls-1" d="M31.96,7.37l-5.5-3.17c.86-.22,1.4-.24,2.18.19l5.5,3.17c-.79-.43-1.33-.41-2.18-.19Z"/>
      <path class="cls-2" d="M27.35,4.35l4.65,2.69c.17-.03.32-.07.46-.09l-3.97-2.3c-.43-.23-.76-.31-1.14-.3h0ZM34.14,7.87s-.1-.01-.15-.04c-.7-.38-1.17-.36-1.96-.15-.08.02-.16,0-.23-.04l-5.49-3.17c-.11-.06-.17-.18-.16-.31.02-.12.11-.23.23-.25.9-.24,1.53-.26,2.4.22l5.5,3.17c.15.09.2.27.12.42-.06.11-.16.16-.27.16Z"/>
      <path class="cls-1" d="M14.31,25.54l-5.5-3.17c-1.21-.84-1.49-1.73-1.69-3.15-.1-2.33.43-4.1,1.5-6.15.88-1.57,1.81-2.78,3.18-3.94.89-.69,1.68-1.18,2.75-1.49,1.1-2.41,2.47-4.31,4.59-5.92,1.63-1.11,3.28-1.86,5.22-1.11l5.5,3.17c-1.44-.55-2.38-.32-3.76.24-2.27,1.19-3.65,2.69-5.01,4.83-.39.65-.71,1.26-1.02,1.95-2.99.85-5.23,3.79-6.46,6.5-.75,1.77-1.07,3.15-.98,5.08.2,1.42.5,2.31,1.7,3.15Z"/>
      <path class="cls-2" d="M22.8.61c-1.28,0-2.42.64-3.49,1.37-1.94,1.48-3.32,3.27-4.48,5.8-.04.08-.11.14-.2.16-1.06.3-1.83.79-2.64,1.43-1.27,1.07-2.2,2.23-3.1,3.84-1.14,2.16-1.56,3.9-1.47,6,.2,1.38.48,2.15,1.57,2.9l3.81,2.2c-.25-.52-.39-1.13-.49-1.88-.09-1.9.18-3.3,1-5.24,1.54-3.38,3.96-5.85,6.52-6.63.3-.65.61-1.23.98-1.86,1.54-2.41,3.02-3.84,5.14-4.95.84-.35,1.52-.56,2.22-.59l-3.96-2.3c-.48-.18-.95-.26-1.41-.26h0ZM14.31,25.85c-.05,0-.1-.02-.15-.04l-5.49-3.17c-1.29-.9-1.63-1.83-1.85-3.37-.1-2.23.34-4.07,1.53-6.35.95-1.7,1.92-2.9,3.26-4.02.85-.67,1.64-1.18,2.73-1.51,1.19-2.56,2.61-4.38,4.61-5.9,1.52-1.04,3.35-1.99,5.52-1.17l5.54,3.2c.14.08.19.25.12.4-.07.15-.24.21-.39.16-1.3-.51-2.15-.33-3.54.24-2.32,1.22-3.63,2.76-4.88,4.71-.37.64-.69,1.23-1,1.92-.03.08-.11.14-.2.17-2.43.69-4.77,3.06-6.26,6.33-.78,1.86-1.04,3.15-.96,4.95.2,1.38.48,2.15,1.57,2.9.14.09.18.28.09.42-.06.09-.17.15-.26.15Z"/>
      <path class="cls-1" d="M25.47,4.35c3.38-1.95,6.16-.59,6.49,3.02,1.94-.59,3.38.58,3.38,2.97,0,2.79-1.97,6.19-4.38,7.59l-12.46,7.2c-3.27,1.89-5.92.36-5.92-3.42s2.65-8.35,5.92-10.24c.54-.31,1.06-.53,1.56-.66,1.17-2.69,3.15-5.15,5.42-6.46Z"/>
      <path class="cls-2" d="M25.47,4.35h0,0ZM28.38,3.77c-.84,0-1.78.29-2.76.85h0c-2.12,1.22-4.1,3.58-5.29,6.31-.03.09-.11.15-.2.17-.48.13-.98.34-1.49.63-3.17,1.83-5.75,6.31-5.75,9.98,0,1.71.56,2.97,1.57,3.57,1.02.58,2.4.43,3.88-.42l12.46-7.2c2.33-1.35,4.23-4.62,4.23-7.32,0-1.13-.34-2-.96-2.46-.53-.38-1.23-.46-2.03-.22-.09.03-.18.02-.26-.03-.08-.05-.12-.14-.13-.22-.15-1.59-.8-2.76-1.85-3.3-.42-.23-.91-.33-1.43-.33h0ZM15.85,26.24c-.62,0-1.19-.14-1.69-.43-1.22-.7-1.89-2.16-1.89-4.09,0-3.86,2.72-8.58,6.07-10.51.51-.29,1-.5,1.49-.65,1.25-2.79,3.29-5.2,5.48-6.47h0c1.77-1.02,3.48-1.21,4.79-.53,1.15.59,1.89,1.81,2.12,3.43.84-.17,1.62-.03,2.22.4.78.58,1.21,1.63,1.21,2.96,0,2.89-2.03,6.41-4.53,7.85l-12.47,7.2c-.97.57-1.93.85-2.79.85Z"/>
      <path class="cls-3" d="M11.18,40.19c-1.48.85-2.82.94-3.79.37h0l-5.52-3.18c-.31-.19-.57-.42-.79-.71-.87-1.15-.88-2.89-.64-4.25.48-2.61,2.11-5.4,4.18-7.06l.24-.19c.04-.3.07-.57.12-.87.74-4.24,3.69-8.99,7.45-11.18,1.48-.85,3.39-1.43,5.03-.7l.17.07,1.15.66c1.02-.91,2.44-1.78,3.85-1.75.34,0,.7.08,1.02.2l.16.07,2.4,1.39.25-.05c.56-.09,1.15-.07,1.67.14l.18.09,5.52,3.18c1.06.52,1.72,1.76,1.72,3.54,0,3.42-2.4,7.57-5.35,9.27l-19.01,10.96Z"/>
      <path class="cls-2" d="M11.18,40.19h0,0ZM15.84,12.4c-1.29,0-2.52.57-3.25,1-3.53,2.05-6.54,6.56-7.3,10.96-.04.28-.08.54-.11.81,0,.09-.05.2-.12.25l-.24.19c-2,1.61-3.59,4.3-4.06,6.87-.14.78-.36,2.76.58,4.01.2.25.42.45.71.63l5.5,3.18c.92.53,2.15.4,3.48-.36l19.01-10.97c2.87-1.65,5.2-5.69,5.2-9.01,0-1.59-.56-2.78-1.55-3.27l-5.69-3.26c-.43-.17-.95-.22-1.5-.12l-.24.05c-.07.01-.15,0-.21-.03l-2.53-1.44c-.26-.1-.58-.17-.9-.17h-.05c-1.47,0-2.88,1.04-3.59,1.68-.1.09-.24.1-.36.04l-1.28-.72c-.49-.22-1-.3-1.5-.3h0ZM8.79,41.24c-.56,0-1.09-.13-1.55-.4l-5.52-3.19c-.36-.22-.64-.47-.89-.79-1.09-1.44-.85-3.62-.7-4.48.5-2.7,2.17-5.55,4.29-7.25l.14-.11c.04-.27.06-.51.1-.76.8-4.57,3.92-9.25,7.6-11.39,1.12-.65,3.3-1.61,5.31-.73l.17.08.98.57c.82-.69,2.27-1.69,3.82-1.69h.06c.4.01.79.09,1.13.23l.17.07,2.33,1.34.14-.03c.67-.11,1.31-.05,1.85.16l.19.09,5.55,3.21c1.18.57,1.87,1.97,1.87,3.81,0,3.51-2.47,7.79-5.51,9.54l-19.01,10.97h0c-.89.51-1.76.78-2.54.78Z"/>
      <path class="cls-1" d="M11.18,40.19c-2.95,1.71-5.35.32-5.35-3.09,0-3.1,1.98-6.8,4.55-8.73.49-4.61,3.69-9.8,7.57-12.05,2.57-1.49,4.84-1.32,6.22.13.49-.44,1-.83,1.52-1.13,2.36-1.36,4.35-.76,5.07,1.26,2.69-1.22,4.78.19,4.78,3.38,0,3.42-2.4,7.57-5.35,9.27l-19.01,10.96Z"/>
      <path class="cls-2" d="M11.18,40.19h0,0ZM21.35,15.59c-.99,0-2.1.33-3.24.99-3.75,2.16-6.94,7.24-7.41,11.8-.02.09-.06.17-.12.22-2.53,1.89-4.43,5.55-4.43,8.49,0,1.54.5,2.68,1.41,3.21.91.52,2.15.39,3.48-.37l19.01-10.97c2.87-1.65,5.2-5.69,5.2-9.01,0-1.48-.47-2.59-1.32-3.14-.78-.5-1.85-.5-3.02.04-.08.03-.17.03-.25,0-.08-.04-.14-.1-.16-.18-.3-.81-.81-1.37-1.5-1.62-.86-.32-1.97-.13-3.13.54-.5.29-.99.65-1.47,1.09-.12.11-.31.11-.43-.02-.68-.71-1.57-1.06-2.61-1.06h0ZM8.79,41.24c-.56,0-1.09-.13-1.55-.4-1.11-.64-1.72-1.96-1.72-3.74,0-3.13,1.91-6.85,4.57-8.9.54-4.71,3.83-9.92,7.7-12.15,2.49-1.43,4.85-1.43,6.39-.02.44-.38.9-.71,1.36-.98,1.32-.76,2.6-.96,3.64-.58.77.28,1.37.87,1.75,1.7,1.24-.49,2.42-.45,3.31.13,1.03.67,1.6,1.96,1.6,3.66,0,3.51-2.47,7.79-5.51,9.54l-19.01,10.97h0c-.89.51-1.76.78-2.54.78Z"/>
      <path class="cls-2" d="M10.38,28.67c-.05,0-.1,0-.15-.04l-5.52-3.18c-.15-.09-.2-.28-.11-.42.08-.15.27-.19.42-.11l5.52,3.18c.15.09.2.28.11.43-.06.09-.17.15-.27.15Z"/>
      <path class="cls-2" d="M24.25,16.63c-.05,0-.1-.02-.16-.04l-5.48-3.16c-.15-.09-.2-.27-.11-.42.09-.15.27-.2.42-.11l5.48,3.17c.15.08.19.27.11.42-.06.09-.17.15-.27.15Z"/>
      <path class="cls-2" d="M29.33,15.17c-.05,0-.11,0-.15-.03l-3.13-1.81c-.15-.09-.2-.28-.11-.43.08-.15.27-.19.42-.11l3.13,1.81c.15.09.2.28.11.43-.06.09-.16.15-.27.15Z"/>
    </g>
  </g>
</svg>