<?xml version="1.0" encoding="UTF-8"?>
<svg id="Layer_2" data-name="Layer 2" xmlns="http://www.w3.org/2000/svg" viewBox="0 0 21.94 40.61" fill="currentColor">
  <defs>
    <style>
      .cls-1 {
        fill: #fff;
      }

      .cls-1, .cls-2, .cls-3, .cls-4 {
        fill-rule: evenodd;
      }

      .cls-2 {
        fill: #1a87c7;
      }

      .cls-3 {
        fill: #bdedf8;
      }

      .cls-4 {
        fill: #66ceef;
      }
    </style>
  </defs>
  <g id="_Layer_" data-name="&amp;lt;Layer&amp;gt;">
    <g>
      <path class="cls-3" d="M18.5,1.07v1.06l.69.4.77-.45c.34-.2.73-.2,1.08,0l.36.21c.15.08.23.23.23.4v27.64c0,.19-.07.29-.23.4l-14.39,8.32c-.66.38-1.25.78-1.97,1.03-1.15.33-2.22.3-3.35-.11-.71-.32-1.37-.75-1.4-1.61V10.72l.03-.09c.02-.19.09-.37.2-.55.36-.53,1.47-1.05,1.95-1.33C7.27,5.99,12.05,3.22,16.84.46c.35-.2.74-.2,1.08,0l.36.2c.15.08.24.23.24.4h0Z"/>
      <path class="cls-2" d="M17.38.62c-.13,0-.26.04-.39.11L2.63,9.02c-.09.06-.21.12-.35.19-.5.27-1.25.68-1.5,1.04-.09.13-.14.27-.16.41l-.03.12v27.58c.03.57.38.96,1.22,1.33,1.03.37,2.04.41,3.14.09.51-.18.98-.46,1.48-.76l.42-.24,14.39-8.32c.06-.04.07-.06.08-.15V2.69c0-.06-.03-.1-.08-.13l-.36-.2c-.24-.14-.52-.14-.76,0l-.78.45c-.1.06-.21.06-.3,0l-.7-.4c-.1-.06-.16-.16-.16-.27v-1.07c0-.06-.02-.1-.07-.13l-.36-.2c-.13-.07-.26-.11-.39-.11h0ZM3.5,40.61c-.64,0-1.28-.12-1.9-.35-.74-.32-1.56-.82-1.6-1.89L.03,10.57c.02-.22.11-.45.25-.66.33-.49,1.13-.92,1.72-1.24.12-.07.24-.13.33-.18L16.69.19c.43-.26.95-.25,1.38,0l.36.2c.24.14.38.39.38.67v.9l.39.22.62-.36c.44-.26.95-.26,1.38,0l.36.21c.24.14.39.39.39.66v27.64c-.02.31-.13.5-.37.66l-14.82,8.57c-.5.3-1.01.61-1.61.81-.56.16-1.11.24-1.64.24Z"/>
      <path class="cls-4" d="M4.83,7.42v32.72c-.91.26-1.99.19-2.89-.08-.79-.29-1.6-.75-1.63-1.7V10.72l.03-.09c.09-.87,1.11-1.28,1.77-1.66.91-.52,1.81-1.04,2.73-1.55Z"/>
      <path class="cls-2" d="M4.52,7.94c-.76.42-1.5.85-2.26,1.29-.09.06-.21.12-.32.18-.58.31-1.24.67-1.3,1.25l-.03.12v27.58c.03.62.47,1.06,1.44,1.41.81.24,1.73.29,2.48.13V7.94h0ZM3.59,40.61c-.57,0-1.17-.09-1.74-.26-.46-.17-1.8-.66-1.85-1.99L.03,10.57c.09-.88.94-1.33,1.62-1.69.11-.06.22-.12.31-.17.91-.53,1.81-1.04,2.73-1.55.1-.05.21-.05.3,0,.1.06.15.16.15.27v32.72c0,.14-.09.26-.22.3-.42.12-.86.18-1.33.18Z"/>
      <path class="cls-3" d="M2.87,10.37l7.67-4.43h0l7.73-4.47s.04-.02.05-.04c.02-.01.04-.02.05-.04,0-.01.03-.03.03-.04h0s.03-.03.04-.05h0s.02-.04.03-.06h0s.02-.04.02-.06c.01-.02.01-.04.01-.06,0-.02,0-.04,0-.05v1.87L4.33,11.14c-.44.26-1.04.39-1.53.11-.4-.23-.21-.71,0-.84.22-.12.05-.03.07-.04h0Z"/>
      <path class="cls-2" d="M2.99,10.66l-.03.02s-.09.1-.08.19c0,.04,0,.08.08.12.47.27,1.05-.02,1.22-.12L18.19,2.77v-.9L3.09,10.6s-.02.01-.03.02h0s-.04.02-.05.03c0,0-.01,0-.02,0h0ZM3.41,11.71c-.28,0-.54-.07-.76-.19-.24-.14-.38-.38-.38-.65,0-.29.16-.58.39-.71,0,0,.02-.01.03-.02,0,0,.02-.01.03-.02L18.11,1.2s.06-.05.07-.06c0-.17.15-.34.31-.34h0c.17,0,.3.1.3.27v1.87c0,.11-.05.21-.15.27L4.48,11.4c-.36.21-.73.31-1.08.31Z"/>
      <path class="cls-3" d="M9.43,10.02l-3.03,1.75c-.61.35-.94.58-1.63.76-1.16.29-2.52.16-3.5-.4-.94-.54-1.21-1.41-.69-2.1.34-.46,1.29-.91,1.75-1.18C7.16,6.06,11.99,3.26,16.84.47c.35-.2.74-.2,1.08,0l.36.21c.15.08.24.23.24.4s-.09.31-.24.4c-4.62,2.67-9.26,5.34-13.88,8.03l-1.51.87c-.28.16-.37.43-.28.65.03.09.09.17.21.23.49.28,1.09.14,1.53-.11L19.97,2.1c.34-.2.73-.2,1.08,0l.36.2c.15.09.23.23.23.4s-.08.32-.23.4l-11.97,6.92Z"/>
      <path class="cls-2" d="M17.38.62c-.13,0-.26.04-.39.11L2.47,9.12c-.09.05-.19.11-.31.18-.43.24-1.09.6-1.34.92-.17.23-.23.48-.18.73.08.35.35.68.78.92.86.5,2.14.64,3.26.37.57-.14.86-.31,1.31-.58l3.28-1.9h0l11.98-6.92c.05-.03.08-.07.08-.13s-.03-.1-.08-.14l-.36-.2c-.24-.14-.52-.14-.76,0L4.48,11.4c-.64.37-1.33.41-1.84.12-.15-.09-.28-.23-.34-.39-.15-.37.03-.79.42-1.02l1.51-.87c3.14-1.82,6.28-3.64,9.43-5.45l4.45-2.57s.08-.08.08-.13-.02-.11-.07-.13l-.36-.21c-.13-.07-.26-.11-.39-.11h0ZM3.51,12.99c-.88,0-1.73-.2-2.4-.59-.58-.34-.97-.81-1.07-1.33-.09-.42.01-.85.28-1.22.32-.43,1.02-.81,1.54-1.09.11-.06.22-.12.3-.17L16.69.2c.43-.26.95-.25,1.38,0l.36.2c.24.14.38.39.38.67s-.14.53-.38.67l-4.46,2.57c-3.14,1.82-6.28,3.63-9.43,5.45l-1.5.88c-.13.07-.19.18-.16.27.02.03.03.06.08.08.47.27,1.05-.02,1.22-.12L19.82,1.83c.44-.26.95-.26,1.38,0l.36.2c.24.14.39.39.39.67s-.15.53-.39.67L6.31,12.18c-.48.28-.82.49-1.48.65-.43.11-.88.16-1.32.16Z"/>
      <path class="cls-1" d="M19.2,2.54l-.69-.4L2.76,11.23l.03.02c.48.29,1.09.14,1.53-.11L19.2,2.54Z"/>
      <path class="cls-2" d="M18.5,2.5L3.67,11.06c.23-.05.42-.15.5-.2L18.58,2.54l-.08-.04h0ZM3.4,11.71c-.28,0-.53-.07-.76-.2-.09-.05-.17-.17-.17-.28s.04-.22.14-.27L18.35,1.88c.1-.05.22-.05.31,0l.69.4c.09.05.15.16.15.27s-.06.21-.15.27L4.48,11.4c-.36.21-.74.31-1.09.31Z"/>
      <polygon class="cls-4" points="14.41 1.23 12.62 2.27 17.78 5.25 19.57 4.21 14.41 1.23"/>
      <path class="cls-2" d="M13.24,2.27l4.54,2.62,1.17-.68-4.55-2.63-1.17.68h0ZM17.78,5.56c-.05,0-.1-.01-.16-.04l-5.16-2.98c-.1-.06-.16-.16-.16-.26s.06-.21.16-.27l1.79-1.04c.09-.05.22-.05.31,0l5.16,2.98c.09.05.16.16.16.26s-.06.21-.16.27l-1.8,1.03s-.1.04-.15.04Z"/>
      <path class="cls-1" d="M13.71,18.64h0c.76-.45,1.46-1.21,1.95-2.07h0c.51-.87.82-1.85.82-2.74s-.31-1.51-.82-1.8c-.5-.29-1.19-.25-1.96.2-.77.44-1.46,1.2-1.97,2.07-.5.87-.81,1.85-.81,2.74s.31,1.51.81,1.8c.5.29,1.2.25,1.97-.19Z"/>
      <path class="cls-2" d="M13.71,18.64h0,0ZM14.95,12.15c-.33,0-.69.11-1.09.34-.69.4-1.35,1.1-1.85,1.96-.5.86-.78,1.78-.78,2.58,0,.74.24,1.29.66,1.53.42.25,1.02.18,1.66-.19h0c.71-.42,1.36-1.11,1.85-1.96.5-.86.76-1.78.76-2.59,0-.74-.24-1.28-.65-1.53-.18-.1-.37-.14-.57-.14h0ZM12.47,19.33c-.32,0-.62-.08-.88-.23-.62-.36-.97-1.09-.97-2.06,0-.91.3-1.94.86-2.89.55-.95,1.29-1.73,2.08-2.18.84-.49,1.64-.56,2.27-.2.63.36.97,1.09.97,2.06,0,.91-.3,1.94-.85,2.89-.55.95-1.29,1.73-2.08,2.18h0c-.49.28-.96.42-1.39.42Z"/>
      <path class="cls-1" d="M17.36,18.8c-.94-.54-2.22-.46-3.64.36h0c-1.43.82-2.71,2.23-3.64,3.84-.85,1.48-1.41,3.13-1.5,4.66l10.27-5.93c-.08-1.43-.63-2.44-1.49-2.93Z"/>
      <path class="cls-2" d="M13.88,19.42s0,0-.02.01c-1.32.77-2.57,2.09-3.52,3.73-.74,1.29-1.23,2.67-1.4,3.94l9.58-5.53c-.1-1.18-.57-2.06-1.32-2.5-.87-.5-2.05-.37-3.32.35h0ZM8.58,27.97c-.05,0-.11-.02-.16-.05-.1-.06-.15-.17-.15-.28.09-1.52.63-3.22,1.54-4.79.99-1.72,2.32-3.12,3.73-3.94,0,0,0,0,.02-.01,1.48-.85,2.88-.98,3.95-.36h0c.97.56,1.55,1.69,1.65,3.18,0,.12-.05.23-.16.28l-10.26,5.93c-.05.03-.1.04-.16.04Z"/>
      <polygon class="cls-4" points="17.78 5.25 19.57 4.21 19.57 32.66 17.78 33.69 17.78 5.25"/>
      <path class="cls-2" d="M18.09,5.43v27.73l1.18-.68V4.75l-1.18.68h0ZM17.78,34c-.05,0-.1-.01-.16-.04-.1-.06-.16-.16-.16-.26V5.25c0-.11.06-.21.16-.27l1.79-1.03c.1-.06.22-.06.31,0,.09.05.16.16.16.26v28.44c0,.11-.06.21-.16.27l-1.8,1.04s-.1.04-.15.04Z"/>
    </g>
  </g>
</svg>