<?xml version="1.0" encoding="UTF-8"?>
<svg id="Layer_2" data-name="Layer 2" xmlns="http://www.w3.org/2000/svg" viewBox="0 0 43.23 32.85" fill="currentColor">
  <defs>
    <style>
      .cls-1 {
        fill: #fff;
      }

      .cls-1, .cls-2, .cls-3, .cls-4 {
        fill-rule: evenodd;
      }

      .cls-2 {
        fill: #1a87c7;
      }

      .cls-3 {
        fill: #bdedf8;
      }

      .cls-4 {
        fill: #66ceef;
      }
    </style>
  </defs>
  <g id="_Layer_" data-name="&amp;lt;Layer&amp;gt;">
    <g>
      <path class="cls-3" d="M1.83,22.9l13.94,8.04c1.94,1.11,4.14,1.11,6.08,0l6.97-4.03,12.86-7.42c-6.08-3.52-12.18-7.03-18.26-10.55L1.83,21.39c-.71.42-.71,1.09,0,1.51Z"/>
      <path class="cls-2" d="M23.42,9.29L1.99,21.65c-.24.15-.39.32-.39.5s.16.35.39.5h0l13.94,8.03c1.83,1.06,3.93,1.06,5.76,0l19.39-11.19-17.66-10.19h0ZM18.81,32.09c-1.1,0-2.17-.3-3.2-.88L1.7,23.17c-.45-.25-.71-.63-.71-1.03s.26-.77.68-1.03l21.59-12.45c.11-.05.21-.05.31,0l18.26,10.55c.11.06.16.16.16.27s-.05.21-.16.27l-19.83,11.45c-1.02.58-2.1.88-3.2.88Z"/>
      <path class="cls-4" d="M35.16,15.73l-2.38-1.38V5.85l2.38,1.38c.37.18,1.18.21,1.26-.3v8.49c-.08.51-.89.48-1.26.3Z"/>
      <path class="cls-2" d="M35.32,15.45c.18.09.52.12.71.02.08-.03.08-.07.08-.1v-7.77c-.37.1-.79.03-1.07-.1l-1.97-1.13v7.79l2.25,1.29h0ZM35.74,16.16c-.26,0-.52-.06-.71-.15,0,0,0,0-.03,0l-2.38-1.39c-.1-.05-.16-.16-.16-.26V5.85c0-.11.05-.21.16-.27.08-.05.21-.05.31,0l2.38,1.39c.16.08.52.11.71.02.08-.03.08-.07.08-.1.03-.15.18-.25.34-.25.16,0,.29.15.29.3v8.49c-.05.29-.21.48-.42.6-.18.09-.39.13-.58.13Z"/>
      <path class="cls-4" d="M41.16,10.7v8.5l-1.13-.65c-.13-.09-.18-.14-.21-.3v-8.49c.03.17.08.2.21.3l1.13.65Z"/>
      <path class="cls-2" d="M40.14,18.24s.05.04.08.05l.65.37v-7.78l-.73-.43v7.79h0ZM41.16,19.5c-.05,0-.1-.01-.13-.04l-1.15-.65c-.18-.13-.31-.24-.37-.51v-8.54c0-.16.13-.3.29-.31.18,0,.29.09.31.26.03.04.08.08.11.1l1.1.63c.11.06.16.16.16.27v8.5c0,.11-.05.21-.16.26-.05.03-.1.04-.16.04Z"/>
      <path class="cls-4" d="M25.49,10.14c-.71-.37-1.26-.48-2.07-.5V1.15c.79.03,1.36.13,2.07.5l6.24,3.6v8.5l-6.24-3.6Z"/>
      <path class="cls-2" d="M23.74,9.35c.66.03,1.21.15,1.91.51h0s5.76,3.34,5.76,3.34v-7.79l-6.08-3.5c-.58-.3-1.05-.4-1.6-.44v7.88h0ZM31.73,14.05c-.05,0-.11-.02-.16-.04l-6.21-3.59c-.71-.36-1.23-.44-1.94-.46-.18,0-.31-.14-.31-.3V1.15c0-.08.05-.16.1-.22.05-.06.13-.09.21-.09.79.02,1.41.11,2.23.53l6.23,3.6c.08.06.16.16.16.27v8.5c0,.11-.08.21-.16.26-.05.02-.1.04-.16.04Z"/>
      <path class="cls-1" d="M10.03,8.17v8.49l-7.41,4.29c-.5.31-.81.6-.86,1.2v-8.5c.05-.6.37-.89.86-1.2l7.41-4.28Z"/>
      <path class="cls-2" d="M9.72,8.7l-6.94,4.02c-.45.29-.68.5-.71.95v7.29c.13-.1.26-.18.39-.27l7.26-4.2v-7.79h0ZM1.76,22.45h0c-.18,0-.31-.14-.31-.3v-8.5c.08-.8.55-1.16,1.02-1.46l7.41-4.28c.11-.05.21-.05.31,0,.08.06.16.16.16.27v8.49c0,.12-.08.22-.16.27l-7.42,4.28c-.45.29-.68.5-.71.96-.03.16-.16.28-.31.28Z"/>
      <path class="cls-1" d="M30.1,14.84V6.35c.08.51.89.47,1.26.3l1.39-.8v8.49l-1.39.81c-.37.17-1.18.2-1.26-.31Z"/>
      <path class="cls-2" d="M30.42,14.82s.03.05.08.08c.18.1.55.06.73-.03l1.2-.7v-7.79l-.92.54c-.29.14-.73.2-1.1.11v7.79h0ZM30.78,15.57c-.21,0-.42-.04-.58-.12-.21-.12-.37-.31-.39-.55V6.35c0-.16.1-.3.26-.31.16,0,.31.1.34.26,0,.03,0,.07.08.1.18.09.55.07.73-.03l1.36-.79c.1-.06.21-.06.31,0,.1.05.16.16.16.27v8.49c0,.11-.05.22-.16.27l-1.39.81c-.21.09-.47.15-.73.15Z"/>
      <path class="cls-1" d="M18.39,4.92l-3.64,2.11v2.66l.99.58,2.62-1.52.03-3.83h0ZM21.35,10.14l-10.27,5.93V7.57L21.35,1.64c.71-.37,1.28-.47,2.07-.5v8.5c-.79.02-1.36.12-2.07.5h0Z"/>
      <path class="cls-2" d="M15.06,9.52l.68.4,2.33-1.34v-3.12l-3.01,1.75v2.31h0ZM15.75,10.58c-.05,0-.1-.01-.16-.04l-1-.57c-.11-.06-.16-.16-.16-.27v-2.66c0-.11.05-.22.16-.27l3.64-2.1c.11-.06.24-.05.31,0,.11.05.16.16.16.27l-.03,3.83c0,.11-.05.21-.16.26l-2.62,1.51c-.05.03-.11.04-.16.04h0ZM11.4,7.74L21.48,1.92c.58-.3,1.07-.41,1.63-.45v7.88c-.63.03-1.21.15-1.91.51h0s-9.8,5.67-9.8,5.67v-7.79h0ZM11.08,16.37c-.05,0-.1-.02-.16-.04-.11-.05-.16-.16-.16-.26V7.57c0-.11.05-.22.16-.27L21.2,1.38c.79-.42,1.44-.52,2.23-.54.08,0,.16.03.21.09.08.05.1.14.1.22v8.5c0,.16-.13.3-.31.3-.68.02-1.23.1-1.94.46l-10.24,5.92c-.05.02-.11.04-.16.04Z"/>
      <path class="cls-1" d="M26.49,17.96l-6.05,3.51v-8.5l6.05-3.5c.13-.1.18-.14.21-.3v8.5c-.03.16-.08.21-.21.3Z"/>
      <path class="cls-2" d="M20.72,13.14v7.79l5.61-3.22s.05-.05.05-.06v-7.77l-5.66,3.27h0ZM20.44,21.77c-.08,0-.13-.02-.16-.04-.11-.05-.16-.16-.16-.26v-8.5c0-.11.05-.21.16-.27l6.05-3.5s.05-.03.05-.04c.03-.17.16-.3.34-.28.16.02.29.13.29.29v8.5c-.05.32-.16.43-.34.55-.03.01-.03.02-.03.02l-6.08,3.5s-.08.04-.13.04Z"/>
      <path class="cls-4" d="M21.8,23.45l-11.76-6.79v-8.49l11.76,6.79c.37.18,1.15.2,1.23-.3v8.5c-.08.5-.86.47-1.23.3Z"/>
      <path class="cls-2" d="M21.93,23.18c.21.09.55.11.73.02.05-.02.08-.06.08-.09v-7.77c-.37.1-.81.03-1.07-.09l-11.32-6.54v7.79l11.58,6.69h0ZM22.35,23.87c-.26,0-.5-.06-.68-.15t-.03,0l-11.76-6.79c-.08-.05-.16-.16-.16-.27v-8.49c0-.11.08-.21.16-.27.11-.05.21-.05.31,0l11.76,6.79c.16.08.52.11.71.02.05-.03.08-.07.08-.1.03-.16.16-.25.31-.25.16.01.29.15.29.3v8.5c-.03.29-.18.48-.39.59-.18.1-.39.13-.6.13Z"/>
      <path class="cls-4" d="M2.96,17.63l.03,3.83,3.64,2.09v-3.81l-3.67-2.1h0ZM18.29,24.05v8.5c-1.21-.03-2.04-.19-3.12-.75-11.45-6.61-2.12-1.24-13.6-7.87-.73-.47-1.2-.89-1.28-1.8v-8.49c.08.9.55,1.33,1.28,1.8,11.48,6.62,2.15,1.24,13.6,7.86,1.07.56,1.94.72,3.12.74h0Z"/>
      <path class="cls-2" d="M3.3,21.29l3.01,1.74v-3.11l-3.04-1.75.03,3.12h0ZM6.63,23.87c-.05,0-.11-.02-.16-.04l-3.62-2.09c-.1-.05-.16-.16-.16-.26l-.03-3.83c0-.11.05-.22.13-.27.1-.05.24-.06.31,0l3.67,2.1c.08.06.16.16.16.27v3.81c0,.12-.08.21-.16.27-.05.03-.1.04-.16.04h0ZM.6,15.07c.24.25.52.45.81.64,5.71,3.3,6.26,3.62,6.79,3.93.55.31,1.07.62,6.84,3.95,1.05.55,1.94.72,2.93.76v7.88c-.92-.04-1.7-.2-2.65-.69-5.76-3.34-6.26-3.62-6.81-3.95-.52-.3-1.1-.63-6.76-3.92-.73-.46-1.07-.82-1.15-1.54v-7.07h0ZM18.29,32.85h0c-1.18-.03-2.1-.17-3.25-.77-5.79-3.35-6.29-3.63-6.84-3.95-.52-.31-1.1-.64-6.79-3.93-.71-.45-1.34-.95-1.41-2.04v-8.52c0-.17.13-.31.29-.31.16.02.31.12.31.29.08.75.42,1.11,1.15,1.56,5.69,3.29,6.24,3.62,6.76,3.92.55.31,1.07.62,6.81,3.94,1.05.55,1.89.68,2.96.7.18,0,.31.14.31.3v8.5c0,.08-.05.16-.1.22-.05.06-.13.09-.21.09Z"/>
      <polygon class="cls-3" points="2.17 21.94 2.99 21.46 6.63 23.55 6.63 24.51 2.17 21.94"/>
      <path class="cls-2" d="M2.78,21.94l3.54,2.03v-.24l-3.33-1.92-.21.12h0ZM6.63,24.82c-.05,0-.11-.01-.16-.04l-4.45-2.57c-.08-.06-.16-.17-.16-.27,0-.12.08-.22.16-.27l.84-.47c.08-.06.21-.06.29,0l3.64,2.09c.08.05.16.15.16.26v.96c0,.1-.08.21-.16.26-.05.03-.1.04-.16.04Z"/>
      <polygon class="cls-1" points="2.99 17.64 2.99 21.46 2.17 21.94 2.17 17.18 2.99 17.64"/>
      <path class="cls-2" d="M2.49,17.7v3.69l.21-.11v-3.46l-.21-.12h0ZM2.17,22.24c-.05,0-.1-.01-.16-.04-.08-.06-.16-.15-.16-.27v-4.76c0-.12.08-.22.16-.27.1-.06.21-.06.31,0l.81.48c.1.05.16.15.16.26v3.82c0,.11-.05.21-.16.27l-.81.48c-.05.03-.1.04-.16.04Z"/>
      <polygon class="cls-3" points="19.2 9.23 18.37 8.75 15.75 10.27 16.58 10.74 19.2 9.23"/>
      <path class="cls-2" d="M16.37,10.27l.21.12,1.99-1.16-.21-.12-1.99,1.16h0ZM16.58,11.06c-.08,0-.13-.02-.16-.05l-.84-.48c-.11-.05-.16-.16-.16-.26,0-.11.05-.22.16-.27l2.62-1.51c.1-.06.23-.06.31,0l.81.48c.11.05.16.16.16.27,0,.1-.05.21-.13.26l-2.65,1.52s-.08.05-.13.05Z"/>
      <polygon class="cls-4" points="18.37 4.93 18.37 8.75 19.2 9.23 19.2 4.46 18.37 4.93"/>
      <path class="cls-2" d="M18.68,8.58l.21.12v-3.69l-.21.12v3.46h0ZM19.2,9.53c-.05,0-.11,0-.16-.04l-.84-.47c-.08-.06-.13-.15-.13-.27v-3.82c0-.11.05-.21.13-.27l.84-.47c.11-.06.21-.06.31,0,.08.05.13.16.13.26v4.77c0,.1-.05.21-.13.26-.05.03-.11.04-.16.04Z"/>
      <path class="cls-4" d="M42.94,10.7v8.5c-.03.17-.08.2-.21.3v-8.49c.13-.1.18-.14.21-.3Z"/>
      <path class="cls-2" d="M42.73,19.81c-.05,0-.11-.02-.16-.04-.11-.05-.16-.17-.16-.28v-8.49c0-.11.05-.2.13-.25.03-.03.08-.05.08-.06.03-.17.18-.3.34-.28.16.02.26.13.26.29v8.5c-.03.32-.16.43-.34.55-.03.04-.1.06-.16.06Z"/>
      <polygon class="cls-3" points="9.59 26.21 10.4 25.73 14.04 27.83 14.04 28.79 9.59 26.21"/>
      <path class="cls-2" d="M10.19,26.21l3.54,2.03v-.24l-3.33-1.91-.21.12h0ZM14.04,29.09c-.05,0-.1-.02-.16-.04l-4.45-2.57c-.1-.05-.16-.16-.16-.26,0-.11.05-.22.16-.27l.81-.48c.1-.05.24-.05.31.01l3.64,2.09c.08.06.13.15.13.27v.96c0,.1-.05.21-.13.26-.05.03-.1.04-.16.04Z"/>
      <polygon class="cls-3" points="10.38 21.9 10.4 25.73 14.04 27.83 14.04 24.01 10.38 21.9"/>
      <path class="cls-2" d="M10.72,25.56l3.01,1.74v-3.11l-3.04-1.75.03,3.12h0ZM14.04,28.13c-.05,0-.1-.01-.16-.03l-3.64-2.1c-.08-.05-.13-.16-.13-.26l-.05-3.83c0-.11.08-.22.16-.27.11-.05.24-.06.31,0l3.67,2.1c.08.05.13.16.13.27v3.82c0,.11-.05.21-.13.27-.05.02-.1.03-.16.03Z"/>
      <polygon class="cls-1" points="10.4 21.92 10.4 25.73 9.59 26.21 9.59 21.44 10.4 21.92"/>
      <path class="cls-2" d="M9.9,21.98v3.69l.18-.11v-3.46l-.18-.12h0ZM9.59,26.52c-.05,0-.11-.01-.16-.04-.1-.05-.16-.16-.16-.26v-4.77c0-.1.05-.21.16-.26.11-.06.21-.06.31,0l.81.47c.11.06.16.16.16.27v3.81c0,.11-.05.21-.16.27l-.81.47c-.05.03-.11.04-.16.04Z"/>
      <path class="cls-4" d="M27.8,18.42v8.5l-1.15-.65c-.13-.1-.18-.14-.21-.31v-8.49c.03.16.08.21.21.3l1.15.65Z"/>
      <path class="cls-2" d="M26.75,25.96s.05.04.08.05l.65.37v-7.79l-.73-.42v7.79h0ZM27.8,27.22c-.05,0-.11,0-.16-.03l-1.13-.65c-.21-.14-.31-.24-.37-.52v-8.54c0-.17.11-.29.26-.3.18,0,.31.09.34.25,0,.04.05.08.08.1l1.13.64c.08.05.13.16.13.26v8.5c0,.11-.05.21-.13.27-.05.03-.11.03-.16.03Z"/>
      <path class="cls-1" d="M42.73,11v8.49c-7.86,4.55-15.04,8.67-21.33,12.31-1.07.56-1.96.71-3.12.75v-8.5c1.18-.02,2.04-.18,3.12-.74,6.08-3.51,13.26-7.66,21.33-12.31Z"/>
      <path class="cls-2" d="M18.6,24.34v7.88c.92-.04,1.7-.2,2.65-.69l4.11-2.37c5.21-3,10.92-6.29,17.06-9.84v-7.79l-20.85,12.05c-1.07.55-1.96.72-2.96.76h0ZM18.29,32.85c-.08,0-.16-.03-.21-.09-.08-.05-.1-.14-.1-.22v-8.5c0-.16.13-.3.31-.3,1.07-.02,1.91-.15,2.96-.71l21.33-12.3c.11-.05.21-.05.29,0,.1.05.16.16.16.27v8.49c0,.11-.05.22-.16.27-6.18,3.58-11.95,6.9-17.19,9.93l-4.11,2.38c-1.18.62-2.12.75-3.27.78h0Z"/>
      <path class="cls-3" d="M21.4,23.31c-1.73.99-4.51.99-6.24,0-8.7-5.03-4.9-2.84-13.6-7.86-1.7-.99-1.7-2.61,0-3.6C7.83,8.25,14.07,4.65,20.3,1.04c1.73-.98,4.51-.98,6.24,0,3.25,1.87,6.44,3.74,9.67,5.59.29.17.29.43,0,.6-.29.16-.76.16-1.05,0l-2.38-1.38-1.42.8c-.29.16-.76.16-1.05,0-.26-.17-.26-.44,0-.6l1.42-.81-6.24-3.6c-1.13-.66-2.99-.66-4.14,0l-10.27,5.93,8.31,4.8,6.05-3.5c.29-.17.76-.17,1.05,0,.29.16.29.43,0,.6l-6.05,3.5,2.38,1.39c.29.16.29.44,0,.6-.29.17-.73.17-1.02,0l-11.76-6.79-7.41,4.28c-1.15.66-1.15,1.74,0,2.4,11.08,6.41,4.82,2.79,13.6,7.86,1.13.66,3.01.66,4.14,0,3.46-2,3.98-2.29,7.44-4.29l-1.15-.65c-.29-.16-.29-.44,0-.6.29-.17.76-.17,1.05,0l1.13.65,12.34-7.12-1.13-.65c-.29-.17-.29-.44,0-.6.29-.17.76-.17,1.02,0l1.68.96c.26.17.26.43,0,.6l-13.39,7.72-7.94,4.59Z"/>
      <path class="cls-2" d="M23.42.61c-1.07,0-2.15.24-2.96.71L1.73,12.12c-.73.42-1.13.96-1.13,1.53s.39,1.11,1.13,1.53c4.72,2.73,5.76,3.33,7.1,4.11l6.5,3.76c1.62.94,4.27.94,5.92,0l21.33-12.31s.03-.03.05-.03c-.03,0-.03-.02-.05-.03l-1.65-.95c-.18-.11-.55-.11-.73,0-.03,0-.05.03-.05.03,0,0,.03.02.05.03l1.13.65c.11.06.16.16.16.27s-.05.21-.16.27l-12.34,7.12c-.08.06-.21.06-.31,0l-1.13-.65c-.18-.11-.52-.11-.73,0-.03.02-.03.03-.05.03.03.01.03.02.05.03l1.15.65c.08.05.13.16.13.26,0,.11-.05.22-.13.27l-2.67,1.54c-1.44.83-2.46,1.42-4.77,2.76-1.23.71-3.22.71-4.45,0-3.77-2.18-4.77-2.76-5.55-3.22-1.05-.61-1.73-1-8.04-4.65-.66-.37-1.02-.9-1.02-1.47s.37-1.09,1.02-1.47l7.41-4.28c.11-.05.21-.05.31,0l11.76,6.79c.18.11.52.11.73,0,0-.02.03-.03.03-.04,0,0-.03-.02-.03-.03l-2.41-1.38c-.11-.06-.16-.15-.16-.27s.05-.21.16-.27l6.05-3.5s.05-.03.05-.03c0,0-.03-.02-.05-.03-.18-.12-.52-.12-.73,0l-6.05,3.5c-.11.05-.24.05-.32,0l-8.3-4.8c-.11-.06-.16-.15-.16-.27s.05-.22.16-.27L21.2,1.38c1.26-.73,3.22-.72,4.45,0l6.23,3.59c.08.06.16.16.16.27s-.08.21-.16.27l-1.41.81s-.03.03-.05.03c.03,0,.03.02.05.03.21.1.55.1.73,0l1.41-.81c.08-.05.21-.05.29,0l2.41,1.38c.18.11.52.11.73,0,.03-.02.03-.03.05-.04-.03,0-.03-.02-.05-.03l-4.64-2.68c-1.68-.97-3.35-1.94-5.03-2.91-.81-.47-1.89-.71-2.96-.71h0ZM18.29,24.35c-1.18,0-2.36-.26-3.28-.78l-6.47-3.75c-1.36-.78-2.38-1.38-7.13-4.11-.92-.53-1.41-1.26-1.41-2.06s.5-1.53,1.41-2.06L20.17.78c1.78-1.04,4.72-1.04,6.52,0,1.68.96,3.35,1.94,5.03,2.91l4.64,2.68c.24.13.37.34.37.56s-.13.43-.37.57c-.39.22-.97.22-1.36,0l-2.23-1.29-1.26.71c-.39.22-.97.22-1.36,0-.21-.14-.34-.34-.34-.57s.13-.43.34-.57l.97-.55-5.79-3.33c-1.02-.6-2.78-.6-3.83,0l-9.83,5.66,7.7,4.44,5.92-3.42c.37-.22.94-.22,1.34,0,.24.14.37.34.37.57s-.13.43-.37.57l-5.61,3.23,1.94,1.12c.24.14.37.34.37.56s-.13.44-.37.57c-.37.23-.97.23-1.34,0l-11.61-6.69-7.26,4.19c-.45.26-.71.59-.71.93s.26.67.71.94c6.31,3.65,7,4.04,8.04,4.65.79.45,1.78,1.03,5.55,3.21,1.02.61,2.8.61,3.83,0,2.33-1.35,3.33-1.92,4.77-2.76l2.2-1.28-.66-.38c-.24-.14-.37-.34-.37-.57s.13-.44.37-.57c.37-.22.94-.22,1.34,0l.97.57,11.74-6.77-.68-.38c-.24-.14-.37-.35-.37-.57s.13-.43.37-.57c.39-.22.97-.22,1.34,0l1.65.96c.24.14.37.34.37.57.03.23-.13.43-.37.56l-21.3,12.32h0c-.92.51-2.1.77-3.27.77Z"/>
    </g>
  </g>
</svg>