<?xml version="1.0" encoding="UTF-8"?>
<svg id="Layer_2" data-name="Layer 2" xmlns="http://www.w3.org/2000/svg" viewBox="0 0 39.48 38.47" fill="currentColor">
  <defs>
    <style>
      .cls-1 {
        fill: #fff;
      }

      .cls-1, .cls-2, .cls-3, .cls-4 {
        fill-rule: evenodd;
      }

      .cls-2 {
        fill: #1a87c7;
      }

      .cls-3 {
        fill: #bdedf8;
      }

      .cls-4 {
        fill: #66ceef;
      }
    </style>
  </defs>
  <g id="_Layer_" data-name="&amp;lt;Layer&amp;gt;">
    <g>
      <path class="cls-1" d="M4.56,12.77c1.96,0,3.54-1.58,3.54-3.53s-1.57-3.54-3.54-3.54-3.51,1.58-3.51,3.54,1.57,3.53,3.51,3.53Z"/>
      <path class="cls-2" d="M4.56,6.01c-1.78,0-3.22,1.45-3.22,3.23s1.44,3.22,3.22,3.22,3.25-1.45,3.25-3.22-1.47-3.23-3.25-3.23h0ZM4.56,13.08c-2.12,0-3.83-1.72-3.83-3.84s1.7-3.84,3.83-3.84,3.85,1.72,3.85,3.84-1.73,3.84-3.85,3.84Z"/>
      <path class="cls-1" d="M19.73,2.59C10.06,2.59,2.2,10.43,2.2,20.11s7.86,17.52,17.53,17.52,17.53-7.84,17.53-17.52S29.39,2.59,19.73,2.59Z"/>
      <path class="cls-2" d="M19.73,2.9C10.24,2.9,2.51,10.62,2.51,20.11s7.73,17.21,17.21,17.21,17.21-7.72,17.21-17.21S29.24,2.9,19.73,2.9h0ZM19.73,37.94c-9.83,0-17.82-8-17.82-17.83S9.9,2.28,19.73,2.28s17.84,8,17.84,17.83-8.02,17.83-17.84,17.83Z"/>
      <path class="cls-1" d="M30.92,8.93c-1.47-1.46-3.2-2.64-5.14-3.44-1.86-.77-3.9-1.2-6.05-1.2s-4.19.43-6.05,1.2c-1.91.8-3.67,1.98-5.14,3.44-1.44,1.46-2.62,3.2-3.43,5.14-.76,1.86-1.2,3.9-1.2,6.05s.45,4.19,1.2,6.05c.81,1.93,1.99,3.67,3.43,5.13,1.47,1.46,3.22,2.64,5.14,3.44,1.86.77,3.93,1.2,6.05,1.2s4.19-.42,6.05-1.2c1.94-.8,3.67-1.98,5.14-3.44,1.47-1.46,2.65-3.2,3.43-5.13.79-1.86,1.2-3.9,1.2-6.05s-.42-4.19-1.2-6.05c-.79-1.93-1.96-3.68-3.43-5.14Z"/>
      <path class="cls-2" d="M19.73,4.6c-2.04,0-4.03.4-5.92,1.17-1.89.78-3.59,1.91-5.03,3.37-1.47,1.45-2.59,3.15-3.38,5.03-.79,1.88-1.18,3.88-1.18,5.93s.39,4.05,1.18,5.93c.79,1.89,1.91,3.58,3.38,5.03,1.44,1.46,3.14,2.59,5.03,3.37,3.75,1.56,8.1,1.56,11.87,0,1.89-.78,3.59-1.92,5.03-3.37,1.44-1.45,2.57-3.14,3.38-5.03.76-1.88,1.15-3.88,1.15-5.93s-.39-4.05-1.15-5.93c-.81-1.89-1.94-3.58-3.38-5.04h0c-1.44-1.45-3.14-2.59-5.03-3.37-1.89-.78-3.88-1.17-5.95-1.17h0ZM19.73,36.24c-2.12,0-4.19-.41-6.16-1.22-1.96-.81-3.72-1.99-5.24-3.51-1.52-1.51-2.7-3.27-3.51-5.23-.81-1.96-1.2-4.03-1.2-6.17s.39-4.21,1.2-6.17c.81-1.96,1.99-3.72,3.51-5.23s3.28-2.69,5.24-3.5c3.9-1.62,8.41-1.62,12.34,0,1.96.82,3.72,1.99,5.24,3.51h0c1.49,1.51,2.67,3.27,3.49,5.23.81,1.96,1.23,4.03,1.23,6.17s-.42,4.21-1.23,6.17c-.81,1.96-1.99,3.72-3.49,5.23-1.52,1.51-3.28,2.69-5.24,3.51-1.96.81-4.03,1.22-6.18,1.22Z"/>
      <path class="cls-3" d="M31.75,9.83c.58.67,2.04,2.82,2.67,4.38.79,1.94,1.15,4.01,1.13,6.08-.03,2.06-.45,4.13-1.26,6.05-.79,1.85-1.96,3.59-3.48,5.09-1.55,1.5-3.3,2.63-5.16,3.38-.79.31,1.44-2.31.05-3.75-1.36-1.44-7.18.23-7.02-2.73.16-2.97,1.47-2.95,2.15-4.5.68-1.55,1.49-.3,4.4-1.29,2.91-.99,6.76-.85,8.02-2.16,1.28-1.32-4.79.26-5.92-.02-1.13-.28-1.36-1.62-2.15-1.58-.81.04-.34,1.49-1.26,1.77-.89.27-3.3.69-3.43-.33-.58-3.92,2.46-2.68,2.65-2.9.79-.92-.97-1.66.13-2.97,1.07-1.31,2.15-1.54,2.72-2.45.55-.91-1.34-1.61-.47-2.33.89-.71,5.63-.43,6.24.27Z"/>
      <path class="cls-2" d="M22.27,23.27c-.66,0-.89.04-1.15.67-.26.58-.6.95-.92,1.32-.58.64-1.1,1.25-1.2,3.08-.08,1.36,1.36,1.55,3.59,1.68,1.39.08,2.7.16,3.35.83,1,1.06.37,2.61,0,3.45,0,.02,0,.04-.03.06,1.76-.76,3.33-1.81,4.69-3.14,1.47-1.44,2.62-3.12,3.41-4.99.81-1.88,1.23-3.88,1.23-5.93.03-2.06-.34-4.06-1.1-5.96-.6-1.52-2.04-3.64-2.62-4.29h0c-.47-.56-5-.88-5.82-.23-.16.14-.18.2.21.69.29.39.71.93.34,1.56-.31.5-.76.82-1.23,1.15-.47.33-1,.7-1.52,1.34-.47.56-.29.94-.08,1.41.18.44.45.98-.05,1.56-.16.16-.34.14-.65.11-.47-.04-1.18-.11-1.6.33-.37.39-.5,1.14-.34,2.21.03.06.05.14.16.21.52.33,2.02.14,2.91-.13.26-.08.34-.35.45-.77.1-.41.24-.98.86-1.02.58-.02.89.37,1.2.76.29.35.58.7,1.05.82.37.1,1.57-.08,2.65-.23,2.44-.35,3.38-.43,3.64.06.1.22.03.46-.21.72-.81.85-2.49,1.12-4.43,1.43-1.26.2-2.57.41-3.72.81-1.36.46-2.25.45-2.91.45h-.16ZM25.54,35.14c-.13,0-.21-.05-.26-.11-.21-.21-.11-.48.1-.97.32-.75.81-2.02.11-2.79-.47-.5-1.73-.57-2.96-.64-1.99-.12-4.27-.25-4.14-2.33.11-2.04.73-2.76,1.36-3.45.29-.34.58-.66.79-1.15.47-1.04,1.05-1.04,1.89-1.04.6,0,1.47,0,2.7-.42,1.21-.41,2.54-.62,3.85-.83,1.73-.28,3.38-.54,4.06-1.25h0c-.5-.07-1.91.13-2.88.27-1.52.21-2.46.33-2.91.22-.65-.17-1.05-.65-1.36-1.03-.29-.35-.42-.56-.68-.54-.16,0-.21.1-.31.55-.11.43-.26,1.01-.86,1.2-.66.2-2.57.61-3.43.07-.24-.15-.39-.38-.42-.65-.18-1.29-.03-2.18.5-2.72.63-.66,1.57-.57,2.1-.52.05,0,.13.01.18.02.16-.23.08-.43-.11-.82-.21-.51-.52-1.2.18-2.06.58-.7,1.13-1.1,1.62-1.45.47-.32.81-.58,1.05-.98.16-.24.03-.44-.29-.85-.29-.37-.76-.99-.08-1.55.94-.78,5.92-.55,6.65.31h0c.6.68,2.1,2.88,2.73,4.46.79,1.97,1.18,4.05,1.15,6.19-.03,2.14-.44,4.21-1.28,6.17-.84,1.94-2.02,3.69-3.56,5.19-1.52,1.49-3.3,2.65-5.27,3.44-.08.03-.16.05-.21.05Z"/>
      <path class="cls-3" d="M18.68,4.32c-3.69.25-7.31,1.78-10.14,4.6-1.52,1.52-2.67,3.26-3.43,5.12-1.6,3.87-1.6,8.26,0,12.13.66,1.55,1.55,3.02,2.7,4.35.11.1.21.15.34.15.13,0,.26-.03.34-.13,1.05-1.22,4.09-2.05,4.3-3.65.16-1.19-1.81-1.66-2.33-2.74-.58-1.22-.1-2.85-.86-3.98-.81-1.17-3.8-1.27-4.61-2.42-.45-.63-.13-1.58.11-2.31.1-.32.5-.51.81-.59.47-.12.97.01,1.44.02.03,0,4.51-.68,5.87-1.28,1.39-.59.63-1.38,1.26-1.63.58-.25,1.55,1.58,2.46.77.94-.8,1.68-4.71,1.99-5.61.34-.9,1.57-.02,1.91.17.31.19-.58,1.94-.16,2.26.42.32,2.15-.79,2.38-1.01,1.31-1.3.97-2.5.26-3.09-.76-.59-3.01.19-4.3-1.02-.11-.09-.21-.13-.34-.12Z"/>
      <path class="cls-2" d="M20.64,7.56h.03s-.03,0-.03,0h0ZM18.68,4.63c-3.75.25-7.26,1.85-9.9,4.51-1.47,1.45-2.59,3.14-3.38,5.03-.11.25-.21.5-.29.76.26-.22.55-.32.71-.36.37-.09.73-.06,1.07-.02.16.01.29.03.45.03.26-.04,4.48-.69,5.76-1.25.65-.29.71-.58.73-.88.05-.25.08-.59.5-.75.42-.17.81.15,1.2.46.58.46.86.65,1.18.37.63-.52,1.21-2.81,1.55-4.18.16-.59.29-1.05.37-1.31.13-.35.37-.5.55-.55.58-.2,1.31.25,1.7.5l.1.07c.34.21.21.7.05,1.32-.08.3-.24.85-.16.98.29.07,1.7-.76,1.96-1,.55-.55.81-1.11.79-1.63,0-.39-.21-.74-.52-.99-.21-.18-.76-.19-1.31-.2-.94-.02-2.15-.04-2.99-.84-.05-.03-.08-.04-.13-.04h0ZM4.48,17.34c-.55,2.92-.24,5.97.92,8.73.63,1.55,1.55,2.99,2.65,4.26.03.03.08.05.1.05.08,0,.1-.02.1-.03.45-.51,1.15-.94,1.94-1.38,1.07-.63,2.2-1.28,2.31-2.11.05-.47-.37-.8-1.05-1.3-.5-.36-1.02-.74-1.26-1.27-.31-.62-.34-1.31-.39-1.97-.05-.73-.11-1.43-.47-1.97-.34-.5-1.26-.81-2.15-1.1-1-.32-1.99-.66-2.46-1.31-.13-.19-.21-.39-.24-.6h0ZM8.17,30.99h-.03c-.24,0-.42-.1-.58-.26-1.15-1.33-2.07-2.82-2.75-4.43-1.62-3.93-1.62-8.44,0-12.37.81-1.95,1.99-3.71,3.51-5.22,2.75-2.77,6.42-4.43,10.32-4.69h0c.21-.02.42.05.58.2.68.63,1.68.65,2.59.67.68.01,1.28.03,1.68.33.45.36.71.88.76,1.44.03.49-.13,1.25-1,2.11-.11.11-2.1,1.56-2.8,1.03-.37-.3-.21-.93-.03-1.61.05-.22.13-.53.16-.68l-.05-.02c-.24-.15-.86-.55-1.18-.44-.03.02-.1.05-.16.18-.08.23-.18.7-.34,1.25-.5,2.03-1.02,3.89-1.73,4.49-.73.64-1.49.04-1.99-.35-.16-.13-.5-.38-.58-.37-.05.03-.08.03-.11.26-.05.38-.13.94-1.13,1.37-1.36.59-5.84,1.3-6,1.3h0c-.18,0-.34-.02-.52-.04-.29-.03-.58-.05-.84,0-.31.08-.55.23-.6.38-.24.73-.5,1.56-.16,2.04.34.49,1.26.79,2.15,1.08,1,.33,2.02.67,2.46,1.34.47.68.52,1.49.58,2.27.05.64.1,1.24.34,1.75.18.39.63.72,1.07,1.03.66.48,1.39,1.01,1.28,1.88-.16,1.12-1.39,1.85-2.59,2.56-.73.42-1.41.82-1.78,1.25-.13.15-.34.24-.55.24Z"/>
      <path class="cls-4" d="M19.49,4.49c2.85-1.64,5.53-2.42,7.83-2.42,1.49,0,2.83.32,3.98.95,1.15.62,2.1,1.55,2.8,2.76.84,1.46,1.31,3.33,1.31,5.56,0,.31,0,.61-.03.93-.29-.56-.6-1.11-.94-1.63-.08-1.75-.47-3.21-1.15-4.38-.6-1.05-1.44-1.86-2.44-2.4-1.02-.55-2.2-.83-3.54-.83-2.15,0-4.66.74-7.36,2.29h0c-4.11,2.39-7.86,6.23-10.58,10.51-2.72,4.27-4.38,8.97-4.38,13.08,0,2.06.42,3.77,1.18,5.09h0c.6,1.05,1.41,1.86,2.44,2.4,1,.55,2.2.83,3.51.83.81,0,1.68-.1,2.57-.31.6.18,1.2.32,1.83.44-1.57.55-3.04.82-4.4.82-1.47,0-2.83-.32-3.98-.94-1.15-.62-2.1-1.55-2.78-2.76h0c-.86-1.46-1.34-3.33-1.34-5.56,0-4.29,1.73-9.17,4.53-13.58,2.8-4.4,6.65-8.36,10.93-10.82h0Z"/>
      <path class="cls-2" d="M19.49,4.49h.03-.03ZM5.63,34.32c.65,1.14,1.57,2.02,2.67,2.62,1.89,1.02,4.35,1.18,7.02.45-.21-.06-.42-.11-.63-.18-2.38.55-4.56.35-6.24-.56-1.07-.58-1.91-1.43-2.57-2.52-.79-1.4-1.2-3.17-1.2-5.24,0-4.03,1.57-8.74,4.43-13.24,2.86-4.51,6.65-8.28,10.72-10.62,4.22-2.45,8.36-2.99,11.19-1.47,1.05.58,1.91,1.42,2.54,2.52.71,1.22,1.1,2.71,1.2,4.44.1.19.24.37.34.57-.03-2.02-.45-3.76-1.26-5.16-.68-1.15-1.57-2.04-2.7-2.64-2.88-1.58-7.13-1.04-11.5,1.47h0c-4.09,2.37-7.94,6.18-10.82,10.72-2.88,4.56-4.48,9.32-4.48,13.42,0,2.12.45,3.94,1.28,5.4v.02h0ZM12.13,38.47c-1.52,0-2.93-.33-4.11-.98-1.23-.66-2.2-1.63-2.93-2.87v-.02c-.89-1.55-1.34-3.46-1.34-5.69,0-4.21,1.62-9.09,4.58-13.75,2.93-4.64,6.84-8.52,11-10.93.03,0,.03,0,.03-.01,4.56-2.62,9.01-3.15,12.1-1.47,1.2.66,2.2,1.63,2.91,2.88.89,1.55,1.36,3.48,1.36,5.71,0,.31-.03.62-.03.94,0,.14-.11.26-.26.29-.13.03-.26-.04-.34-.16-.26-.55-.58-1.09-.89-1.61-.05-.04-.05-.1-.05-.15-.08-1.66-.47-3.09-1.13-4.24-.58-.99-1.36-1.76-2.33-2.28-2.62-1.42-6.52-.88-10.58,1.46-3.96,2.29-7.68,5.98-10.48,10.41-2.8,4.41-4.35,8.99-4.35,12.91,0,1.96.39,3.62,1.15,4.93.58.99,1.34,1.76,2.3,2.29,1.57.85,3.62,1.02,5.9.48.05-.01.08-.01.13,0,.6.18,1.2.32,1.81.44.13.02.24.14.26.28,0,.14-.08.27-.21.31-1.57.56-3.09.84-4.51.84Z"/>
      <path class="cls-1" d="M31.78,7.53c1.99,0,3.62-1.62,3.62-3.61s-1.62-3.61-3.62-3.61-3.62,1.62-3.62,3.61,1.62,3.61,3.62,3.61Z"/>
      <path class="cls-2" d="M31.78.61c-1.81,0-3.3,1.48-3.3,3.3s1.49,3.3,3.3,3.3,3.3-1.48,3.3-3.3-1.47-3.3-3.3-3.3h0ZM31.78,7.84c-2.15,0-3.93-1.76-3.93-3.92s1.78-3.92,3.93-3.92,3.93,1.76,3.93,3.92-1.76,3.92-3.93,3.92Z"/>
      <path class="cls-4" d="M19.96,4.49c-2.83-1.64-5.5-2.42-7.83-2.42-1.47,0-2.83.32-3.98.95-1.13.62-2.1,1.55-2.78,2.76l-.03.02c.31.07.63.19.89.34.6-.99,1.42-1.76,2.38-2.28,1-.55,2.2-.83,3.51-.83,2.17,0,4.66.74,7.36,2.29h0c4.14,2.39,7.89,6.23,10.61,10.51,2.7,4.27,4.37,8.97,4.37,13.08,0,2.06-.42,3.77-1.18,5.09h0c-.6,1.05-1.44,1.86-2.44,2.4-1.02.55-2.2.83-3.54.83-.81,0-1.65-.1-2.57-.31-.58.18-1.21.32-1.81.44,1.55.55,3.01.82,4.38.82,1.49,0,2.83-.32,3.98-.94,1.15-.62,2.1-1.55,2.8-2.76h0c.84-1.46,1.31-3.33,1.31-5.56,0-4.29-1.73-9.17-4.53-13.58-2.78-4.4-6.65-8.36-10.93-10.82h0Z"/>
      <path class="cls-2" d="M24.13,37.39c2.7.73,5.14.58,7.02-.45,1.13-.6,2.02-1.49,2.67-2.62.03,0,.03-.02.03-.02.84-1.46,1.26-3.27,1.26-5.4,0-4.09-1.6-8.86-4.48-13.42-2.88-4.55-6.71-8.35-10.79-10.71,0,0,0,0-.03-.01-4.35-2.51-8.59-3.05-11.5-1.47-1,.55-1.83,1.33-2.49,2.32.11.03.21.07.31.12.6-.92,1.39-1.64,2.33-2.15,2.8-1.52,6.94-.99,11.19,1.47,4.06,2.33,7.83,6.1,10.72,10.62,2.85,4.5,4.43,9.21,4.43,13.24,0,2.07-.42,3.83-1.23,5.24-.63,1.09-1.49,1.94-2.54,2.52-1.7.91-3.85,1.11-6.24.56-.21.06-.45.12-.65.18h0ZM27.33,38.47c-1.42,0-2.91-.28-4.48-.84-.13-.05-.24-.18-.21-.31,0-.14.11-.25.24-.28.63-.12,1.23-.26,1.81-.44.05-.01.1-.02.16,0,2.28.53,4.32.36,5.87-.48.97-.52,1.76-1.29,2.33-2.29.76-1.31,1.13-2.97,1.13-4.93,0-3.92-1.52-8.51-4.32-12.91-2.8-4.43-6.55-8.13-10.51-10.41-4.04-2.34-7.96-2.88-10.59-1.46-.92.5-1.68,1.23-2.25,2.17-.08.14-.26.19-.39.11-.26-.14-.55-.24-.81-.31-.1-.02-.18-.09-.24-.18-.03-.09-.03-.19.03-.28.73-1.26,1.7-2.23,2.93-2.89,3.09-1.68,7.55-1.15,12.08,1.47,0,0,.03,0,.03.01,4.17,2.41,8.1,6.29,11.03,10.93,2.96,4.66,4.58,9.54,4.58,13.75,0,2.22-.45,4.14-1.34,5.69,0,0-.03.02-.03.02-.71,1.25-1.7,2.22-2.91,2.87-1.21.65-2.59.98-4.14.98Z"/>
      <path class="cls-4" d="M36.36,14.6c.73.66,1.31,1.35,1.76,2.06h0c.71,1.12,1.05,2.28,1.05,3.46s-.34,2.33-1.05,3.45h0c-.94,1.52-2.52,2.94-4.74,4.13h0c-3.8,2.03-8.72,3.04-13.65,3.04s-9.85-1.01-13.62-3.04h0c-2.23-1.2-3.83-2.62-4.74-4.13-.71-1.12-1.05-2.29-1.05-3.46s.34-2.34,1.05-3.46h0c.45-.71,1.02-1.4,1.76-2.06-.24.66-.42,1.34-.55,2.04-.13.16-.24.33-.34.5h0c-.6.97-.89,1.98-.89,2.98s.29,2.01.89,2.98c.86,1.38,2.31,2.68,4.38,3.79h0c3.62,1.94,8.38,2.91,13.13,2.91s9.51-.97,13.13-2.91h0c2.07-1.11,3.54-2.41,4.4-3.79h0c.6-.97.89-1.98.89-2.98s-.29-2.01-.89-2.98h0c-.1-.17-.24-.34-.34-.5-.16-.69-.31-1.37-.55-2.04Z"/>
      <path class="cls-2" d="M38.12,23.57h.03-.03ZM1.62,16.8v.02c-.68,1.06-1.02,2.17-1.02,3.29s.34,2.23,1.02,3.29c.94,1.52,2.49,2.88,4.61,4.02,3.62,1.94,8.41,3,13.49,3s9.88-1.07,13.49-3c2.12-1.14,3.67-2.49,4.64-4v-.02c.68-1.06,1-2.17,1-3.29s-.32-2.23-1-3.29c-.24-.39-.52-.77-.86-1.14.08.28.16.55.21.83.1.15.21.31.31.46v.02c.63,1.01.94,2.06.94,3.13s-.31,2.13-.94,3.15c-.92,1.47-2.44,2.79-4.51,3.9-.03,0-.03,0-.03.01-3.54,1.89-8.25,2.93-13.26,2.93s-9.69-1.04-13.23-2.93c-.03,0-.03,0-.03,0-2.07-1.11-3.59-2.43-4.51-3.9-.63-1.01-.94-2.07-.94-3.14s.31-2.13.94-3.15c.1-.15.18-.31.31-.46.05-.28.11-.55.18-.83-.31.36-.6.74-.84,1.12h0ZM19.73,31.05c-5.19,0-10.09-1.09-13.78-3.08-2.23-1.19-3.85-2.62-4.87-4.24-.71-1.16-1.07-2.38-1.07-3.62s.37-2.44,1.07-3.6v-.02c.47-.74,1.07-1.46,1.83-2.13.1-.09.26-.11.37-.03.1.08.16.22.13.35-.24.65-.39,1.33-.55,2,0,.04-.03.09-.05.12-.1.16-.21.32-.31.48-.58.91-.86,1.86-.86,2.82s.29,1.91.86,2.82c.86,1.38,2.28,2.61,4.24,3.67h.03c3.46,1.86,8.04,2.88,12.97,2.88s9.54-1.02,12.99-2.87c0,0,0,0,.03-.01,1.96-1.06,3.38-2.29,4.24-3.67.55-.91.84-1.86.84-2.82s-.29-1.91-.84-2.82c-.03,0-.03-.01-.03-.02-.1-.15-.21-.3-.31-.46-.03-.04-.05-.08-.05-.12-.13-.67-.31-1.34-.52-2-.05-.13,0-.28.13-.35.1-.08.26-.06.37.03.73.67,1.34,1.38,1.81,2.12.73,1.16,1.1,2.38,1.1,3.62s-.37,2.44-1.07,3.6c0,0-.03.01-.03.02-1,1.62-2.65,3.04-4.87,4.24-3.69,1.98-8.59,3.08-13.78,3.08Z"/>
      <path class="cls-1" d="M23.37,34.06c2.2,0,4.01-1.79,4.01-4s-1.81-4-4.01-4-4.01,1.79-4.01,4,1.81,4,4.01,4Z"/>
      <path class="cls-2" d="M23.37,26.36c-2.04,0-3.69,1.66-3.69,3.69s1.65,3.69,3.69,3.69,3.69-1.66,3.69-3.69-1.65-3.69-3.69-3.69h0ZM23.37,34.37c-2.38,0-4.32-1.93-4.32-4.31s1.94-4.31,4.32-4.31,4.3,1.93,4.3,4.31-1.91,4.31-4.3,4.31Z"/>
    </g>
  </g>
</svg>