<?xml version="1.0" encoding="UTF-8"?>
<svg id="Layer_2" data-name="Layer 2" xmlns="http://www.w3.org/2000/svg" viewBox="0 0 34.54 44.59" fill="currentColor">
  <defs>
    <style>
      .cls-1 {
        fill: #fff;
      }

      .cls-1, .cls-2, .cls-3, .cls-4 {
        fill-rule: evenodd;
      }

      .cls-2 {
        fill: #1a87c7;
      }

      .cls-3 {
        fill: #bdedf8;
      }

      .cls-4 {
        fill: #66ceef;
      }
    </style>
  </defs>
  <g id="_Layer_" data-name="&amp;lt;Layer&amp;gt;">
    <g>
      <path class="cls-4" d="M4.98,37.33l-4.34,2.5c-.2.13-.32.35-.33.58v1.34c0,.08.02.16.1.21l3.96,2.29c-.08-.05-.09-.13-.09-.21v-1.34c0-.24.14-.45.33-.58l4.34-2.49.03-.02.03-.02h.04s.03-.02.03-.02h.05s.03.02.03.02h.02s-3.96-2.28-3.96-2.28l-.03-.02h-.03s-.05,0-.05,0h-.03s-.04.02-.04.02h-.03s-.03.03-.03.03Z"/>
      <path class="cls-2" d="M4.98,37.33l.1.18h0s-.1-.18-.1-.18h0ZM.62,41.73l3.35,1.94v-.96c.02-.35.2-.66.48-.84l4.02-2.32-3.35-1.93-4.32,2.49c-.1.06-.17.19-.18.33v1.29h0ZM4.37,44.56c-.05,0-.11-.01-.16-.04l-3.96-2.28c-.11-.06-.24-.2-.25-.47v-1.35c.02-.36.2-.66.48-.84l4.35-2.51s0,0,0,0l.03-.02s.09-.03.09-.03c.02,0,.09-.03.1-.03h.08s.1,0,.11.02c.02,0,.08.02.1.03l3.99,2.3c.14.09.19.26.12.41-.07.15-.25.21-.4.14l-4.29,2.51c-.1.06-.17.19-.18.33v1.31c.11.1.13.25.05.38-.05.1-.16.15-.26.15Z"/>
      <path class="cls-1" d="M8.94,39.62l-4.34,2.49c-.18.12-.33.37-.33.58v1.34c0,.21.15.3.33.19l4.34-2.5c.18-.11.33-.36.33-.57v-1.34c0-.22-.15-.31-.33-.19Z"/>
      <path class="cls-2" d="M8.97,39.96l-4.21,2.43c-.09.05-.18.21-.18.31v1.19l4.21-2.42c.09-.05.18-.22.18-.31v-1.19h0ZM4.46,44.59c-.09,0-.16-.03-.24-.07-.16-.09-.25-.27-.25-.48v-1.34c0-.32.21-.69.49-.84l4.34-2.5c.18-.11.38-.11.55-.03.16.09.25.27.25.49v1.34c0,.32-.22.69-.5.84l-4.33,2.5c-.11.05-.2.09-.3.09Z"/>
      <path class="cls-3" d="M.44,40.04l3.96,2.29c.06-.09.11-.15.21-.21l4.34-2.49c.08-.04.15-.07.23-.03l-3.96-2.28c-.09-.04-.16-.03-.24.02l-4.34,2.5c-.1.06-.15.11-.21.21Z"/>
      <path class="cls-2" d="M.98,40l3.36,1.94s.07-.05.1-.08l4.02-2.32-3.35-1.93-4.14,2.39h0ZM4.4,42.64c-.05,0-.1-.02-.16-.04l-3.96-2.28c-.07-.04-.13-.12-.15-.2-.02-.09,0-.17.05-.24.07-.11.16-.2.3-.29l4.35-2.51c.08-.05.28-.15.52-.03l3.99,2.3c.14.09.19.26.12.41-.07.15-.25.21-.4.14l-4.29,2.51s-.07.05-.11.12c-.06.08-.16.13-.25.13Z"/>
      <path class="cls-4" d="M29.94,22.92l-4.33,2.5c-.2.13-.32.35-.34.58v1.34c.01.08.03.17.11.21l3.96,2.3c-.08-.05-.1-.13-.11-.22v-1.34c0-.23.14-.45.34-.58l4.33-2.49.03-.02.03-.02h.03s.03-.01.03-.01h.03s.03,0,.03,0h.02s.03.02.03.02l-3.96-2.29-.03-.02h-.05s-.03-.01-.03-.01h-.03s-.03.02-.03.02h-.03s-.03.03-.03.03Z"/>
      <path class="cls-2" d="M29.94,22.92l.1.18v-.02l-.1-.16h0ZM25.58,27.33l3.35,1.93v-.97c0-.35.2-.66.48-.84l4.02-2.32-3.35-1.93-4.31,2.49c-.1.06-.17.19-.18.33v1.3h0ZM29.34,30.15c-.05,0-.11,0-.16-.04l-3.96-2.29c-.11-.06-.24-.2-.25-.47v-1.35c.02-.35.19-.66.48-.84l4.35-2.5s.01-.01.01-.01l.03-.02s.08-.04.09-.04c.02,0,.06-.02.08-.02,0,0,.08-.01.09-.01.02,0,.1.01.12.02,0,0,.08.03.09.03l3.98,2.3c.15.09.2.27.12.41-.07.13-.22.2-.36.16l-4.33,2.49c-.1.07-.18.19-.18.33v1.31c.11.09.13.25.05.38-.05.1-.15.15-.26.15Z"/>
      <path class="cls-1" d="M33.9,25.21l-4.33,2.49c-.18.11-.34.37-.34.58v1.34c0,.21.16.3.34.19l4.33-2.5c.18-.11.34-.37.34-.57v-1.34c0-.22-.15-.3-.34-.19Z"/>
      <path class="cls-2" d="M33.9,25.21h0,0ZM33.92,25.55l-4.2,2.43c-.09.05-.18.21-.18.31v1.19l4.21-2.43c.09-.05.17-.21.17-.31v-1.19h0ZM29.42,30.18c-.09,0-.17-.03-.24-.06-.17-.1-.25-.27-.25-.49v-1.34c0-.32.21-.69.49-.84l4.34-2.5c.18-.1.38-.11.54-.03.17.1.25.27.25.49v1.34c0,.32-.21.69-.49.84l-4.33,2.5c-.1.06-.21.09-.3.09Z"/>
      <path class="cls-3" d="M25.34,25.74l3.96,2.29c.06-.13.15-.23.27-.31l4.33-2.49c.09-.04.16-.07.24-.03l-3.96-2.29c-.1-.04-.16-.03-.24.02l-4.33,2.5c-.12.08-.21.18-.27.31Z"/>
      <path class="cls-2" d="M25.82,25.66l3.39,1.96c.06-.06.12-.12.2-.16l4.02-2.33-3.34-1.93-4.27,2.46h0ZM29.3,28.33s-.1-.02-.15-.04l-3.96-2.28c-.14-.09-.19-.26-.12-.4.09-.19.22-.33.38-.44l4.35-2.5c.09-.05.29-.15.52-.04l3.98,2.3c.15.09.2.27.12.41-.08.15-.26.21-.4.14l-4.29,2.51c-.06.03-.1.09-.15.18-.04.07-.1.13-.18.16-.03.01-.06.02-.1.02Z"/>
      <path class="cls-4" d="M31.22,1.1l-1.31-.76c-.12-.06-.21-.03-.32.03l-1.03.6c-.27.17-.43.46-.45.78v23.59l1.32.76V2.5c.02-.31.18-.61.45-.77l1.02-.6c.11-.05.2-.09.31-.03Z"/>
      <path class="cls-2" d="M28.41,25.15l.7.41V2.5c.03-.42.25-.81.6-1.04l.76-.44-.73-.42-1.04.63c-.16.11-.29.31-.3.53v23.4h0ZM29.43,26.4s-.1,0-.16-.03l-1.32-.76c-.09-.05-.15-.16-.15-.27V1.74c.02-.43.24-.82.59-1.04l1.03-.6c.12-.06.33-.18.61-.04l1.34.77c.15.08.2.26.12.41-.08.15-.26.21-.41.14l.13-.28-.13.27-1.06.62c-.17.11-.28.31-.3.53v23.57c0,.11-.05.21-.15.27-.05.03-.1.03-.16.03Z"/>
      <path class="cls-1" d="M31.36,12.18V1.39c0-.29-.21-.4-.45-.26l-1.02.59c-.13.08-.24.2-.32.34-.08.14-.13.3-.13.44v23.59l1.93-1.11v-12.8Z"/>
      <path class="cls-2" d="M31.05,1.41l-1.02.58c-.07.04-.15.13-.2.22-.06.09-.1.21-.1.29v23.06l1.31-.76V1.41h0ZM29.43,26.4s-.1,0-.16-.03c-.1-.06-.16-.16-.16-.27V2.5c0-.19.07-.4.17-.6.11-.19.27-.35.44-.44l1.03-.59c.22-.13.44-.14.62-.03.18.11.29.31.29.56v23.59c0,.12-.06.21-.16.27l-1.92,1.11c-.05.03-.1.03-.16.03Z"/>
      <polygon class="cls-3" points="6.22 17.2 5.3 16.67 28.34 3.37 29.25 3.9 6.22 17.2"/>
      <path class="cls-2" d="M5.92,16.67l.29.17L28.64,3.9l-.31-.17L5.92,16.67h0ZM6.22,17.51c-.05,0-.11-.02-.15-.04l-.92-.53c-.09-.06-.15-.16-.15-.27s.06-.21.15-.27L28.18,3.1c.09-.05.21-.05.3,0l.92.54c.1.05.16.15.16.26s-.06.21-.16.27L6.37,17.47s-.09.04-.16.04Z"/>
      <polygon class="cls-1" points="6.22 17.2 29.25 3.9 29.25 12.84 6.22 26.14 6.22 17.2"/>
      <path class="cls-2" d="M6.53,17.38v8.22l22.42-12.94V4.44L6.53,17.38h0ZM6.22,26.45c-.05,0-.11-.02-.15-.05-.1-.05-.16-.15-.16-.27v-8.94c0-.11.06-.21.16-.27L29.1,3.64c.1-.06.21-.06.3,0,.1.05.16.15.16.26v8.94c0,.11-.06.22-.16.27L6.37,26.4s-.09.05-.16.05Z"/>
      <polygon class="cls-1" points="6.22 26.14 5.3 25.6 5.3 16.67 6.22 17.2 6.22 26.14"/>
      <path class="cls-2" d="M5.61,25.43l.3.17v-8.22l-.3-.18v8.23h0ZM6.22,26.45c-.05,0-.11-.02-.15-.05l-.92-.53c-.09-.06-.15-.16-.15-.27v-8.93c0-.11.06-.21.15-.27.1-.05.21-.05.3,0l.92.53c.1.06.16.16.16.27v8.94c0,.11-.06.21-.16.27-.04.03-.09.05-.16.05Z"/>
      <path class="cls-4" d="M6.27,15.52l-1.32-.76c-.12-.06-.21-.03-.32.03l-1.02.6c-.27.16-.44.46-.45.77v23.59l1.32.77v-23.59c.02-.31.19-.61.45-.78l1.02-.59c.11-.05.2-.09.32-.02Z"/>
      <path class="cls-2" d="M3.46,39.56l.7.41v-23.06c.02-.43.24-.82.59-1.03l.76-.44-.73-.43-1.03.63c-.17.11-.29.31-.29.53v23.4h0ZM4.47,40.81c-.05,0-.1-.01-.15-.04l-1.32-.76c-.1-.05-.16-.16-.16-.27v-23.59c.02-.43.24-.82.59-1.03l1.04-.6c.1-.06.33-.17.6-.04l1.35.77c.14.08.19.26.11.41-.08.15-.25.21-.41.13l.14-.27-.14.27-1.05.62c-.18.1-.29.31-.3.53v23.57c0,.11-.06.21-.16.27-.05.03-.1.04-.16.04Z"/>
      <path class="cls-1" d="M6.4,26.59v-10.79c0-.28-.2-.4-.45-.26l-1.02.59c-.12.08-.23.2-.32.34-.08.14-.13.29-.13.44v23.59l1.93-1.11v-12.8Z"/>
      <path class="cls-2" d="M6.4,39.39h0,0ZM6.09,15.83l-1.01.57c-.08.04-.15.13-.21.22-.05.1-.09.2-.09.29v23.06l1.3-.76V15.83h0ZM4.47,40.81c-.05,0-.1-.01-.15-.04-.09-.06-.16-.16-.16-.27v-23.59c0-.19.06-.4.18-.6.11-.19.26-.35.42-.44l1.03-.6c.21-.12.44-.13.63-.03.17.1.28.3.28.56v23.59c0,.11-.05.21-.15.27l-1.93,1.11c-.05.03-.1.04-.16.04Z"/>
      <path class="cls-3" d="M3.24,15.77l1.32.76c.08-.16.2-.3.36-.4l1.02-.59c.11-.05.2-.09.32-.02l-1.32-.76c-.12-.06-.21-.03-.32.03l-1.02.6c-.16.09-.28.23-.36.4Z"/>
      <path class="cls-2" d="M3.69,15.68l.77.44c.09-.1.18-.18.29-.24l.76-.44-.73-.43-1.03.63s-.03.03-.06.05h0ZM4.56,16.84c-.05,0-.11-.02-.15-.04l-1.32-.77c-.14-.08-.2-.25-.13-.39.1-.21.27-.4.47-.53l1.04-.6c.11-.06.32-.17.6-.04l1.35.77c.14.08.19.26.11.41-.08.15-.25.21-.41.13l-1.05.62c-.1.06-.18.16-.23.27-.04.08-.1.13-.19.16-.02,0-.06.02-.09.02Z"/>
      <path class="cls-3" d="M28.35,1.14l1.32.76c.07-.08.12-.12.21-.17l1.02-.6c.11-.05.2-.09.31-.03l-1.31-.76c-.12-.06-.21-.03-.32.03l-1.03.6c-.09.05-.14.1-.21.18Z"/>
      <path class="cls-2" d="M28.92,1.1l.71.42s.05-.03.09-.05l.76-.44-.73-.42-.83.5h0ZM29.67,2.21c-.05,0-.1,0-.15-.03l-1.32-.76c-.08-.04-.13-.13-.15-.21-.02-.1,0-.18.07-.25.09-.11.17-.17.28-.23l1.03-.6c.12-.06.33-.18.61-.04l1.34.77c.15.08.2.26.12.41-.08.15-.25.21-.41.14l-1.06.61s-.08.06-.12.11c-.06.07-.15.1-.24.1Z"/>
      <path class="cls-2" d="M22.93,14.37c-.17,0-.3-.14-.3-.31v-4.04c0-.18.14-.31.3-.31s.31.14.31.31v1.39l1.78-1.04v-1.75c0-.17.14-.3.31-.3s.3.14.3.3v4.04c0,.17-.14.3-.3.3s-.31-.14-.31-.3v-1.58l-1.78,1.02v1.95c0,.17-.14.31-.31.31Z"/>
      <path class="cls-2" d="M19.87,15.95c-.28,0-.52-.09-.69-.28-.11-.12-.11-.31.02-.43.12-.11.32-.1.43.02.11.11.35.11.63,0,.64-.25,1.32-.98,1.32-1.73,0-.15-.04-.18-.04-.18-.09-.07-.59.11-.83.19-.51.18-1.03.37-1.4.12-.19-.14-.3-.37-.3-.69,0-.9.87-1.81,1.69-2.09.48-.16.88-.08,1.11.22.1.14.08.33-.05.43-.14.1-.33.08-.43-.05-.09-.12-.35-.04-.43-.02-.59.2-1.27.9-1.27,1.5,0,.14.03.18.03.19.1.07.61-.11.82-.19.51-.18,1.04-.37,1.39-.12.2.14.3.37.3.69,0,1.06-.88,1.97-1.7,2.3-.22.09-.43.13-.62.13Z"/>
      <path class="cls-2" d="M18.39,16.97c-.17,0-.31-.14-.31-.31v-4.04c0-.17.14-.3.31-.3s.3.14.3.3v4.04c0,.17-.14.31-.3.31Z"/>
      <path class="cls-2" d="M14.89,18.99c-.17,0-.3-.14-.3-.31v-4.03c0-.13.08-.25.2-.3.12-.04.26,0,.35.1l1.73,2.07v-3.19c0-.16.14-.3.31-.3.16,0,.3.14.3.3v4.04c0,.13-.08.24-.2.29-.12.04-.26,0-.34-.09l-1.74-2.08v3.19c0,.18-.14.31-.31.31Z"/>
      <path class="cls-2" d="M13.6,19.74c-.17,0-.31-.14-.31-.31v-4.04c0-.17.14-.3.31-.3s.3.14.3.3v4.04c0,.18-.14.31-.3.31Z"/>
      <path class="cls-2" d="M10.3,21.64c-.16,0-.31-.14-.31-.31v-4.04c0-.1.06-.21.16-.26l2.3-1.33c.15-.09.34-.03.43.11.08.15.03.34-.11.42l-2.15,1.24v1.29l1.62-.93c.14-.09.33-.03.42.11.09.15.04.33-.11.42l-1.93,1.11v1.85c0,.17-.14.31-.31.31Z"/>
    </g>
  </g>
</svg>