<?xml version="1.0" encoding="UTF-8"?>
<svg id="Layer_2" data-name="Layer 2" xmlns="http://www.w3.org/2000/svg" viewBox="0 0 28.03 40.98" fill="currentColor">
  <defs>
    <style>
      .cls-1 {
        fill: #fff;
      }

      .cls-1, .cls-2, .cls-3, .cls-4 {
        fill-rule: evenodd;
      }

      .cls-2 {
        fill: #1a87c7;
      }

      .cls-3 {
        fill: #bdedf8;
      }

      .cls-4 {
        fill: #66ceef;
      }
    </style>
  </defs>
  <g id="_Layer_" data-name="&amp;lt;Layer&amp;gt;">
    <g>
      <polygon class="cls-3" points="27.75 25.14 22.9 22.36 .31 35.38 5.16 38.18 27.75 25.14"/>
      <path class="cls-2" d="M.94,35.38l4.22,2.43,21.96-12.68-4.22-2.43L.94,35.38h0ZM5.16,38.48c-.05,0-.11-.01-.16-.04L.18,35.65c-.1-.06-.16-.16-.16-.27s.05-.21.16-.27l22.56-13.03c.1-.06.24-.06.31,0l4.82,2.79c.11.06.16.15.16.26s-.05.21-.16.27l-22.56,13.03c-.05.03-.1.04-.16.04Z"/>
      <polygon class="cls-4" points="5.16 38.18 .31 35.38 .31 37.88 5.16 40.67 5.16 38.18"/>
      <path class="cls-2" d="M.63,37.71l4.22,2.43v-1.79l-4.22-2.43v1.79h0ZM5.16,40.98c-.05,0-.11-.02-.16-.04L.16,38.15c-.08-.06-.16-.16-.16-.27l.03-2.5c0-.11.05-.21.16-.27.08-.05.21-.05.29,0l4.85,2.79c.08.06.16.16.16.27l-.03,2.5c0,.11-.05.21-.13.27-.05.03-.1.04-.16.04Z"/>
      <polygon class="cls-1" points="27.75 25.14 5.16 38.18 5.16 40.67 27.72 27.64 27.75 25.14"/>
      <path class="cls-2" d="M5.48,38.35l-.03,1.78,21.98-12.67v-1.79l-21.96,12.68h0ZM5.16,40.98c-.05,0-.11-.02-.16-.04-.11-.06-.16-.16-.16-.27v-2.5c0-.11.08-.21.16-.27l22.58-13.03c.08-.05.21-.05.31,0,.08.06.13.15.13.27v2.5c0,.11-.05.21-.16.27l-22.56,13.03c-.05.03-.1.04-.16.04Z"/>
      <polygon class="cls-3" points="27.75 20.83 22.9 18.04 .31 31.07 5.16 33.86 27.75 20.83"/>
      <path class="cls-2" d="M.94,31.07l4.22,2.43,21.96-12.67-4.22-2.43L.94,31.07h0ZM5.16,34.17c-.05,0-.11-.02-.16-.04L.18,31.34c-.1-.05-.16-.16-.16-.26,0-.11.05-.21.16-.27l22.56-13.03c.1-.06.24-.06.31,0l4.82,2.79c.11.06.16.16.16.27s-.05.21-.16.27l-22.56,13.03c-.05.03-.1.04-.16.04Z"/>
      <polygon class="cls-4" points="5.16 33.86 .31 31.07 .31 33.57 5.16 36.36 5.16 33.86"/>
      <path class="cls-2" d="M.63,33.39l4.22,2.43v-1.79l-4.22-2.43v1.79h0ZM5.16,36.67c-.05,0-.11-.01-.16-.04L.16,33.84c-.08-.05-.16-.16-.16-.27l.03-2.5c0-.11.05-.21.16-.27.08-.05.21-.05.29,0l4.85,2.79c.08.05.16.15.16.26l-.03,2.5c0,.11-.05.21-.13.27-.05.03-.1.04-.16.04Z"/>
      <polygon class="cls-1" points="27.75 20.83 5.16 33.86 5.16 36.36 27.72 23.33 27.75 20.83"/>
      <path class="cls-2" d="M5.48,34.04l-.03,1.79,21.98-12.67v-1.79l-21.96,12.67h0ZM5.16,36.67c-.05,0-.11-.01-.16-.04-.11-.06-.16-.16-.16-.27v-2.5c0-.11.08-.21.16-.27l22.58-13.03c.08-.06.21-.06.31,0,.08.06.13.16.13.27v2.5c0,.11-.05.21-.16.26l-22.56,13.03c-.05.03-.1.04-.16.04Z"/>
      <polygon class="cls-3" points="27.75 16.52 22.9 13.73 .31 26.76 5.16 29.55 27.75 16.52"/>
      <path class="cls-2" d="M.94,26.76l4.22,2.43,21.96-12.67-4.22-2.43L.94,26.76h0ZM5.16,29.86c-.05,0-.11-.02-.16-.04L.18,27.02c-.1-.05-.16-.16-.16-.27s.05-.21.16-.27l22.56-13.03c.1-.06.24-.06.31,0l4.82,2.79c.11.06.16.16.16.27s-.05.21-.16.27L5.32,29.81c-.05.03-.1.04-.16.04Z"/>
      <polygon class="cls-4" points="5.16 29.55 .31 26.76 .31 29.26 5.16 32.04 5.16 29.55"/>
      <path class="cls-2" d="M.63,29.08l4.22,2.43v-1.79l-4.22-2.43v1.79h0ZM5.16,32.35c-.05,0-.11-.02-.16-.04L.16,29.52c-.08-.06-.16-.16-.16-.27l.03-2.5c0-.11.05-.21.16-.27.08-.05.21-.05.29,0l4.85,2.79c.08.06.16.16.16.27l-.03,2.5c0,.11-.05.21-.13.26-.05.03-.1.04-.16.04Z"/>
      <polygon class="cls-1" points="27.75 16.52 5.16 29.55 5.16 32.04 27.72 19.01 27.75 16.52"/>
      <path class="cls-2" d="M5.48,29.73l-.03,1.79,21.98-12.68v-1.79L5.48,29.73h0ZM5.16,32.35c-.05,0-.11-.02-.16-.04-.11-.06-.16-.16-.16-.27v-2.5c0-.11.08-.21.16-.27l22.58-13.03c.08-.05.21-.05.31,0,.08.06.13.16.13.27v2.5c0,.11-.05.21-.16.26l-22.56,13.03c-.05.03-.1.04-.16.04Z"/>
      <polygon class="cls-3" points="27.75 11.72 22.9 8.93 12.42 14.98 17.27 17.77 27.75 11.72"/>
      <path class="cls-2" d="M13.05,14.98l4.22,2.43,9.85-5.69-4.22-2.43-9.85,5.69h0ZM17.27,18.08c-.05,0-.11-.02-.16-.04l-4.85-2.79c-.08-.06-.13-.16-.13-.27s.05-.21.13-.27l10.48-6.04c.1-.06.24-.06.31,0l4.82,2.79c.11.06.16.16.16.27s-.05.21-.16.27l-10.48,6.05s-.08.04-.13.04Z"/>
      <polygon class="cls-4" points="17.27 17.77 12.42 14.98 12.42 17.48 17.24 20.27 17.27 17.77"/>
      <path class="cls-2" d="M12.73,17.3l4.22,2.43v-1.79l-4.22-2.43v1.79h0ZM17.24,20.58c-.05,0-.11-.01-.16-.04l-4.82-2.79c-.08-.06-.16-.16-.16-.27l.03-2.5c0-.11.05-.21.13-.27.1-.05.23-.05.31,0l4.82,2.79c.1.05.16.15.16.26v2.5c0,.11-.05.21-.16.26-.05.03-.11.04-.16.04Z"/>
      <polygon class="cls-1" points="27.75 11.72 17.27 17.77 17.24 20.27 27.72 14.22 27.75 11.72"/>
      <path class="cls-2" d="M17.55,17.95v1.79l9.88-5.69v-1.78l-9.88,5.69h0ZM17.24,20.58c-.05,0-.11-.01-.16-.04-.08-.06-.13-.16-.13-.27v-2.5c0-.11.05-.21.16-.27l10.48-6.05c.08-.05.21-.05.31,0,.08.06.13.16.13.27v2.5c0,.11-.05.21-.16.27l-10.48,6.05c-.05.03-.11.04-.16.04Z"/>
      <polygon class="cls-3" points="27.75 7.41 22.9 4.62 12.42 10.67 17.27 13.46 27.75 7.41"/>
      <path class="cls-2" d="M13.05,10.67l4.22,2.43,9.85-5.69-4.22-2.43-9.85,5.69h0ZM17.27,13.76c-.05,0-.11-.01-.16-.04l-4.85-2.79c-.08-.05-.13-.16-.13-.27s.05-.21.13-.27l10.48-6.05c.1-.06.24-.06.31,0l4.82,2.79c.11.06.16.16.16.26,0,.11-.05.21-.16.27l-10.48,6.05s-.08.04-.13.04Z"/>
      <polygon class="cls-4" points="17.27 13.46 12.42 10.67 12.42 13.17 17.24 15.95 17.27 13.46"/>
      <path class="cls-2" d="M12.73,12.99l4.22,2.43v-1.79l-4.22-2.43v1.79h0ZM17.24,16.26c-.05,0-.11-.02-.16-.04l-4.82-2.79c-.08-.06-.16-.16-.16-.27l.03-2.5c0-.11.05-.21.13-.27.1-.05.23-.05.31,0l4.82,2.79c.1.06.16.16.16.27v2.5c0,.11-.05.21-.16.27-.05.03-.11.04-.16.04Z"/>
      <polygon class="cls-1" points="27.75 7.41 17.27 13.46 17.24 15.95 27.72 9.91 27.75 7.41"/>
      <path class="cls-2" d="M17.55,13.64v1.79l9.88-5.69v-1.79l-9.88,5.69h0ZM17.24,16.26c-.05,0-.11-.02-.16-.04-.08-.06-.13-.16-.13-.27v-2.5c0-.11.05-.21.16-.27l10.48-6.05c.08-.05.21-.05.31,0,.08.06.13.16.13.27v2.5c0,.11-.05.21-.16.27l-10.48,6.05c-.05.03-.11.04-.16.04Z"/>
      <polygon class="cls-3" points="27.75 3.1 22.9 .31 12.42 6.36 17.27 9.14 27.75 3.1"/>
      <path class="cls-2" d="M13.05,6.36l4.22,2.43,9.85-5.69-4.22-2.43-9.85,5.69h0ZM17.27,9.45c-.05,0-.11-.02-.16-.04l-4.85-2.79c-.08-.05-.13-.16-.13-.27s.05-.21.13-.27L22.74.04c.1-.05.24-.05.31,0l4.82,2.79c.11.05.16.16.16.27s-.05.21-.16.27l-10.48,6.05s-.08.04-.13.04Z"/>
      <polygon class="cls-4" points="17.27 9.14 12.42 6.36 12.42 8.85 17.24 11.64 17.27 9.14"/>
      <path class="cls-2" d="M12.73,8.68l4.22,2.43v-1.79l-4.22-2.43v1.79h0ZM17.24,11.95c-.05,0-.11-.02-.16-.04l-4.82-2.79c-.08-.06-.16-.16-.16-.27l.03-2.5c0-.11.05-.21.13-.26.1-.06.23-.06.31,0l4.82,2.79c.1.05.16.15.16.26v2.5c0,.11-.05.21-.16.27-.05.03-.11.04-.16.04Z"/>
      <polygon class="cls-1" points="27.75 3.1 17.27 9.14 17.24 11.64 27.72 5.6 27.75 3.1"/>
      <path class="cls-2" d="M17.55,9.32v1.79l9.88-5.69v-1.79l-9.88,5.69h0ZM17.24,11.95c-.05,0-.11-.02-.16-.04-.08-.05-.13-.16-.13-.27v-2.5c0-.11.05-.21.16-.26l10.48-6.05c.08-.05.21-.05.31,0,.08.06.13.16.13.27v2.5c0,.11-.05.21-.16.27l-10.48,6.05c-.05.03-.11.04-.16.04Z"/>
      <polygon class="cls-3" points="15.46 10.19 10.64 7.4 .31 13.34 5.16 16.13 15.46 10.19"/>
      <path class="cls-2" d="M.94,13.34l4.22,2.43,9.67-5.58-4.19-2.43L.94,13.34h0ZM5.16,16.43c-.05,0-.11-.01-.16-.04L.18,13.6c-.1-.05-.16-.16-.16-.27s.05-.21.16-.27l10.3-5.94c.08-.06.21-.06.29,0l4.85,2.79c.08.05.16.16.16.27s-.08.21-.16.27l-10.3,5.94c-.05.03-.1.04-.16.04Z"/>
      <polygon class="cls-4" points="5.16 16.13 .31 13.34 .31 24.94 5.16 27.73 5.16 16.13"/>
      <path class="cls-2" d="M.63,24.77l4.22,2.43v-10.9L.63,13.87v10.89h0ZM5.16,28.04c-.05,0-.11-.02-.16-.04L.16,25.21c-.08-.06-.16-.16-.16-.26l.03-11.61c0-.11.05-.21.16-.27.08-.05.21-.06.29,0l4.85,2.79c.08.06.16.16.16.27l-.03,11.6c0,.11-.05.21-.13.27-.05.03-.1.04-.16.04Z"/>
      <polygon class="cls-1" points="15.46 10.19 5.16 16.13 5.16 27.73 15.46 21.79 15.46 10.19"/>
      <path class="cls-2" d="M5.48,16.3l-.03,10.9,9.69-5.58v-10.9l-9.67,5.58h0ZM5.16,28.04c-.05,0-.11-.02-.16-.04-.11-.06-.16-.16-.16-.27v-11.6c0-.11.08-.21.16-.27l10.3-5.94c.11-.06.21-.06.31,0,.08.05.16.16.16.27l-.03,11.61c0,.11-.05.21-.13.27l-10.3,5.94c-.05.03-.1.04-.16.04Z"/>
      <path class="cls-4" d="M14.41,18.24v2.16c0,.16-.13.36-.26.45l-7.68,4.42c-.16.08-.26.02-.26-.15v-3.87l.08-.12c.29-.39.68-.6.94-.52l2.57.74c.26.08.63-.11.89-.47l1.94-2.48c.29-.37.65-.56.92-.46l.86.31Z"/>
      <path class="cls-2" d="M6.52,21.36v3.53l7.47-4.31c.05-.03.11-.13.11-.18v-1.95l-.65-.24c-.08-.03-.34.05-.58.37l-1.94,2.48c-.34.47-.81.69-1.2.58l-2.57-.74c-.1-.03-.37.09-.6.41l-.03.04h0ZM6.34,25.62c-.08,0-.13-.02-.21-.06-.16-.08-.24-.24-.24-.43v-3.87c0-.07.03-.13.05-.18l.11-.12c.37-.51.86-.76,1.26-.64l2.57.74c.1.03.34-.07.58-.37l1.94-2.48c.37-.49.86-.71,1.26-.57l.84.31c.13.04.21.16.21.29v2.16c0,.27-.18.58-.39.72l-7.68,4.42c-.11.05-.18.08-.29.08Z"/>
      <path class="cls-3" d="M12.05,14.05c.71-.42,1.31-.08,1.31.77s-.6,1.88-1.31,2.3c-.76.42-1.34.08-1.34-.77s.58-1.88,1.34-2.3Z"/>
      <path class="cls-2" d="M12.18,14.32c-.63.37-1.18,1.3-1.18,2.03,0,.29.1.51.24.6.16.09.39.05.65-.09.63-.37,1.15-1.3,1.15-2.04,0-.29-.08-.51-.24-.6-.13-.09-.37-.05-.63.09h0ZM11.45,17.61c-.18,0-.37-.04-.5-.13-.37-.2-.55-.61-.55-1.13,0-.96.65-2.09,1.49-2.57h0c.45-.26.89-.3,1.23-.09.37.2.55.6.55,1.13,0,.96-.66,2.09-1.49,2.57-.24.15-.5.22-.73.22Z"/>
    </g>
  </g>
</svg>