<?xml version="1.0" encoding="UTF-8"?>
<svg id="Layer_2" data-name="Layer 2" xmlns="http://www.w3.org/2000/svg" viewBox="0 0 30.47 40.28" fill="currentColor">
  <defs>
    <style>
      .cls-1 {
        fill: #fff;
      }

      .cls-1, .cls-2, .cls-3, .cls-4 {
        fill-rule: evenodd;
      }

      .cls-2 {
        fill: #1a87c7;
      }

      .cls-3 {
        fill: #bdedf8;
      }

      .cls-4 {
        fill: #66ceef;
      }
    </style>
  </defs>
  <g id="_Layer_" data-name="&amp;lt;Layer&amp;gt;">
    <g>
      <path class="cls-4" d="M18.92,31.03l.15.2.57.8.15.17.15.11-1.34-.73c-.11-.06-.21-.12-.3-.2l.63-.36Z"/>
      <path class="cls-2" d="M19.93,32.62c-.05,0-.11-.01-.15-.04l-1.34-.73c-.12-.07-.24-.14-.34-.22-.09-.06-.13-.16-.12-.26,0-.1.06-.2.15-.25l.64-.36c.13-.08.31-.04.4.09l.94,1.22c.13.1.17.28.08.42-.06.09-.16.14-.26.14Z"/>
      <path class="cls-4" d="M20.48,30.13l.02.03c1.42,1.74-.09,2.97-.87,1.88l-.71-1.01,1.56-.9Z"/>
      <path class="cls-2" d="M19.37,31.12l.51.73c.14.2.31.3.49.28.15-.02.28-.13.35-.3.14-.34.03-.82-.32-1.31l-1.03.59h0ZM20.33,32.75c-.36,0-.69-.19-.94-.55l-.71-1.01c-.05-.07-.07-.16-.05-.24.02-.08.07-.16.15-.2l1.55-.9c.14-.08.31-.04.4.09l.03.03c.84,1.03.65,1.8.54,2.09-.16.38-.48.64-.85.68-.04,0-.08,0-.12,0Z"/>
      <path class="cls-4" d="M7.09,39.44l-.77-.48c-.18-.19-.18-.32-.15-.57l1.04-.6v.02s-.23.96-.23.96c-.05.29-.09.46.11.68Z"/>
      <path class="cls-2" d="M6.52,38.72l.14.09s0-.03,0-.04c0,0,.01-.07.01-.08l.07-.28-.29.16c0,.07.02.1.06.14h0ZM7.09,39.75c-.05,0-.1-.02-.16-.04l-.78-.48s-.04-.03-.06-.06c-.28-.3-.27-.54-.22-.83.02-.09.07-.18.16-.22l1.03-.6c.1-.06.23-.05.34.02.1.07.14.2.11.31l-.24.98c-.04.28-.03.31.04.4.1.11.11.29.02.41-.06.07-.15.11-.24.11Z"/>
      <path class="cls-4" d="M9.35,36.55l-.39,1.62c-.45,1.53-2.3,1.89-1.98.58l.23-.97,2.14-1.24Z"/>
      <path class="cls-2" d="M7.48,37.99l-.21.85c-.03.16-.05.37.09.41.31.08,1.05-.3,1.3-1.15l.22-.91-1.4.81h0ZM7.46,39.87c-.09,0-.17-.01-.25-.03-.36-.1-.69-.45-.53-1.15l.23-.98c.03-.08.08-.15.15-.19l2.14-1.24c.1-.06.24-.05.34.02.1.07.15.2.11.32l-.39,1.62c-.3,1.01-1.13,1.62-1.8,1.62Z"/>
      <path class="cls-4" d="M14.76,39.32c-.28-.16-.97-.49-1.08-.7-.15-.28-.08-2.86-.08-3.35l.02-28.81c.13-.79.97-1.59,1.5-1.38l.87.51c-.72-.17-1.47.76-1.52,1.63v3.94l.03,27.8c.04.2.11.28.26.37Z"/>
      <path class="cls-2" d="M14.94,5.35c-.05,0-.16.03-.28.1-.36.2-.67.66-.74,1.07l-.02,29.19c0,.62-.04,2.52.05,2.79.03.03.12.09.23.16l-.03-31.45c.03-.63.37-1.3.85-1.67.05-.03.09-.06.13-.09l-.19-.11s0,0-.02,0h0ZM14.76,39.63c-.05,0-.1-.01-.16-.04l-.21-.12c-.51-.27-.87-.48-.99-.71-.12-.23-.14-.97-.12-3.07v-.43l.03-28.81c.1-.64.52-1.26,1.04-1.55.31-.17.61-.21.87-.11l.91.52c.13.08.19.24.13.38-.05.14-.2.22-.36.19-.21-.04-.39.06-.52.15-.34.26-.59.75-.61,1.19l.02,31.73s.03.05.12.11c.14.09.18.28.09.42-.06.09-.15.15-.26.15Z"/>
      <path class="cls-4" d="M14.47,7.21c0-1.34,1.79-2.38,1.79-1.03v31.52c0,1.34-1.79,2.38-1.79,1.04V7.21Z"/>
      <path class="cls-2" d="M14.47,7.21h.01-.01ZM15.81,5.86c-.35,0-1.02.61-1.02,1.35v31.52c0,.32.1.32.15.32.35,0,1.03-.61,1.03-1.35V6.18c0-.32-.1-.32-.15-.32h0ZM14.93,39.67c-.37,0-.76-.25-.76-.93V7.21c0-1.04.92-1.97,1.64-1.97.37,0,.76.25.76.94v31.52c0,1.04-.92,1.97-1.64,1.97Z"/>
      <path class="cls-4" d="M2.48,39.84c-.22-.13-.83-.48-1.05-.61-.49-.33-.57-.74-.59-1.3v-19.28l1.05.61v19.28c.03.59.12.98.59,1.3Z"/>
      <path class="cls-2" d="M1.14,19.18v18.75c.03.51.1.8.46,1.05h.02c-.03-.14-.04-.28-.04-.43v-19.12l-.44-.25h0ZM2.48,40.14c-.05,0-.1-.01-.16-.04l-.99-.57s-.07-.04-.08-.05c-.63-.43-.7-1-.73-1.54v-19.29c0-.11.06-.21.16-.27.1-.05.21-.05.3,0l1.06.61c.09.05.15.16.15.27v19.28c.03.51.11.8.46,1.05.14.09.17.28.09.42-.06.09-.16.14-.26.14Z"/>
      <polygon class="cls-1" points="1.89 19.25 1.22 18.86 28.18 3.29 28.86 3.68 1.89 19.25"/>
      <path class="cls-2" d="M1.83,18.86l.05.03L28.24,3.68l-.06-.03L1.83,18.86h0ZM1.89,19.56c-.05,0-.11-.02-.16-.04l-.67-.39c-.1-.05-.16-.16-.16-.27s.06-.21.16-.27L28.03,3.03c.09-.06.21-.06.3,0l.68.39c.09.05.15.16.15.27s-.05.21-.15.27L2.04,19.52c-.05.03-.11.04-.16.04Z"/>
      <path class="cls-1" d="M28.86,3.68v19.28c0,1.28-.9,2.85-2.02,3.5-7.65,4.41-15.29,8.83-22.94,13.24-1.11.64-2.01.12-2.01-1.17v-19.28L28.86,3.68Z"/>
      <path class="cls-2" d="M2.19,19.43v19.1c0,.51.16.88.44,1.04.28.16.68.12,1.11-.14l22.94-13.24c1.01-.58,1.86-2.06,1.86-3.23V4.22L2.19,19.43h0ZM3.01,40.28c-.25,0-.48-.06-.69-.18-.48-.27-.74-.83-.74-1.57v-19.28c0-.11.05-.21.15-.27L28.7,3.41c.1-.06.22-.06.31,0,.09.05.15.16.15.27v19.28c0,1.38-.97,3.07-2.16,3.76l-22.94,13.24c-.36.21-.72.32-1.05.32Z"/>
      <path class="cls-3" d="M16.1,22.59l6.87-11.89c.81-1.42,2.09-.69,1.26.73-2.77,4.8-4.98,8.63-7.75,13.44l-3.56-2.05c-2.35,4.07-2.77,4.79-5.11,8.86-.82,1.42-2.09.69-1.27-.73,2.77-4.8,3.24-5.6,6.01-10.4,0,0,3.26,1.88,3.56,2.05Z"/>
      <path class="cls-2" d="M12.65,20.95l-5.85,10.14c-.17.27-.24.54-.23.74,0,.13.05.23.12.27.08.04.18.03.3-.02.18-.09.37-.29.53-.57l5.11-8.86c.04-.07.11-.12.19-.14.08-.02.17-.01.23.03l3.29,1.9,7.61-13.17c.26-.45.26-.78.16-.93-.12-.23-.52-.15-.9.51l-6.87,11.89c-.03.07-.11.12-.18.14-.08.02-.17.01-.24-.03-.24-.14-2.5-1.44-3.29-1.9h0ZM6.82,32.74c-.16,0-.3-.04-.42-.11-.43-.25-.66-.94-.13-1.86l6.01-10.4s.07-.09.11-.12c.16-.09.17-.09,3.6,1.9l6.71-11.62c.34-.59.8-.93,1.25-.93h0c.3,0,.56.15.72.41.22.4.16.96-.17,1.55l-7.76,13.44c-.03.07-.1.12-.18.14-.08.02-.16,0-.23-.03l-3.29-1.9-4.96,8.59c-.38.66-.85.92-1.25.92Z"/>
      <polygon class="cls-4" points="2.06 19.64 .31 18.63 .31 16.53 2.06 17.54 2.06 19.64"/>
      <path class="cls-2" d="M.62,18.46l1.14.65v-1.39l-1.14-.66v1.39h0ZM2.06,19.95c-.05,0-.1-.01-.15-.04l-1.76-1.01c-.1-.06-.16-.16-.16-.27v-2.11c0-.11.06-.21.16-.27.09-.06.21-.06.31,0l1.75,1.01c.1.05.16.16.16.27v2.1c0,.11-.06.21-.16.27-.04.03-.11.04-.16.04Z"/>
      <path class="cls-3" d="M2.06,17.54l-1.75-1.01C9.67,11.12,19.04,5.71,28.4.31l1.75,1.01C20.79,6.72,11.43,12.13,2.06,17.54Z"/>
      <path class="cls-2" d="M.93,16.53l1.13.65L29.53,1.32l-1.13-.65L.93,16.53h0ZM2.06,17.84c-.05,0-.1-.01-.15-.04l-1.76-1.01c-.1-.06-.16-.16-.16-.27s.06-.21.16-.27L28.25.04c.09-.05.22-.05.31,0l1.75,1.01c.1.06.16.16.16.27s-.06.21-.16.27L2.22,17.8s-.11.04-.16.04Z"/>
      <polygon class="cls-1" points="2.06 17.54 30.15 1.32 30.15 3.42 2.06 19.64 2.06 17.54"/>
      <path class="cls-2" d="M2.37,17.72v1.39L29.85,3.25v-1.4L2.37,17.72h0ZM2.06,19.95c-.05,0-.1-.01-.15-.04-.1-.06-.16-.16-.16-.27v-2.1c0-.11.06-.21.16-.27L30,1.05c.09-.06.21-.06.3,0,.1.06.16.16.16.27v2.11c0,.11-.06.21-.16.27L2.22,19.91s-.11.04-.16.04Z"/>
    </g>
  </g>
</svg>