<?xml version="1.0" encoding="UTF-8"?>
<svg id="Layer_2" data-name="Layer 2" xmlns="http://www.w3.org/2000/svg" viewBox="0 0 34.37 42.44" fill="currentColor">
  <defs>
    <style>
      .cls-1 {
        fill: #fff;
      }

      .cls-1, .cls-2, .cls-3, .cls-4 {
        fill-rule: evenodd;
      }

      .cls-2 {
        fill: #1a87c7;
      }

      .cls-3 {
        fill: #bdedf8;
      }

      .cls-4 {
        fill: #66ceef;
      }
    </style>
  </defs>
  <g id="_Layer_" data-name="&amp;lt;Layer&amp;gt;">
    <g>
      <path class="cls-4" d="M6.74,42.12c-2.63-.1-6.43-1.5-6.43-4.62l.07-16.87c.02-2.79.39-3.95,2.87-5.38,6.95-4.01,12.71-7.34,19.67-11.35l.71-.42.72-.41c.57-.3,1.01-.42,1.59-.08l1.96,2.48c.71-.4,1.32-.34,1.95.02l1.18.68c-.56-.26-.97-.12-1.49.15-7.43,4.29-13.44,7.78-20.87,12.07l-.71.42c-1.23.74-2.11,2.27-2.15,3.69l-.08,18.15c.03.9.18,1.14,1,1.49Z"/>
      <path class="cls-2" d="M25.25,3.09c-.22,0-.46.09-.76.25L3.4,15.52c-2.35,1.35-2.7,2.36-2.71,5.12l-.07,16.87c0,2.55,2.75,3.83,5.04,4.2-.15-.25-.21-.58-.23-1.05l.07-18.16c.04-1.53.98-3.16,2.3-3.96l.73-.42c3.76-2.18,7.17-4.15,10.58-6.13,3.31-1.92,6.63-3.84,10.28-5.95.15-.08.3-.15.45-.21l-.15-.09c-.57-.33-1.07-.33-1.64-.02-.13.07-.3.04-.39-.08l-1.93-2.43c-.17-.09-.32-.13-.48-.13h0ZM6.74,42.43h0c-2.6-.1-6.73-1.52-6.73-4.93l.07-16.87c0-2.94.45-4.16,3.02-5.65L24.19,2.8c.56-.29,1.15-.52,1.89-.08.03.02.07.04.1.08l1.81,2.28c.68-.3,1.32-.25,2.01.14l1.18.68c.15.08.2.26.12.41-.08.15-.25.2-.41.14-.42-.2-.72-.11-1.21.14-3.64,2.1-6.96,4.02-10.27,5.94-3.41,1.98-6.81,3.95-10.59,6.12l-.72.41c-1.11.68-1.96,2.12-1.99,3.44l-.07,18.14c.03.78.11.9.81,1.2.14.06.22.2.18.35-.03.14-.15.24-.3.24Z"/>
      <path class="cls-3" d="M29.55,6.31c1.16-.67,2.2-.16,2.2,1.17,0,9.67-.1,8.51-.1,18.17,0,1.33-.94,2.96-2.09,3.63-5.73,3.31-15.98,9.25-21.71,12.56-1.14.67-2.1.13-2.09-1.21l.08-18.15c0-1.36.97-3.02,2.15-3.69,7.67-4.43,13.91-8.06,21.58-12.49Z"/>
      <path class="cls-2" d="M29.55,6.31h0,0ZM30.52,6.33c-.24,0-.53.08-.82.25h0c-3.83,2.21-7.31,4.23-10.78,6.24-3.49,2.02-6.97,4.04-10.81,6.25-1.07.62-1.98,2.19-1.99,3.43l-.07,18.15c0,.53.16.91.45,1.08.3.18.72.12,1.18-.14,2.82-1.63,6.76-3.91,10.71-6.2,4.04-2.34,8.09-4.69,10.99-6.36,1.06-.61,1.95-2.15,1.95-3.36,0-4.83.03-7,.05-9.09.03-2.09.05-4.25.05-9.09,0-.5-.16-.87-.47-1.05-.13-.07-.29-.11-.45-.11h0ZM6.9,42.44c-.26,0-.5-.06-.7-.18-.5-.29-.78-.86-.76-1.62l.07-18.15c0-1.45,1.04-3.23,2.3-3.96,3.84-2.22,7.32-4.23,10.8-6.25,3.48-2.01,6.95-4.02,10.78-6.23h0c.68-.39,1.36-.44,1.89-.14.5.29.78.85.78,1.58,0,4.84-.03,7-.05,9.09-.03,2.09-.05,4.25-.05,9.08,0,1.43-1.01,3.18-2.25,3.9-2.89,1.67-6.95,4.02-11,6.36-3.94,2.28-7.88,4.56-10.72,6.2-.37.22-.75.33-1.09.33Z"/>
      <path class="cls-1" d="M23.26,25.78l-.8-.46c-1.64-1.48-.9-7.22,1-8.52l8.27-4.78v-.59c.13-.05.18-.03.3.03.45.25.88.51,1.32.76-.18-.07-.19-.07-.37,0l-8.74,5.05c-1.83,1.26-2.7,6.97-.99,8.52Z"/>
      <path class="cls-2" d="M32.05,11.81v.21c0,.11-.06.21-.16.27l-8.28,4.78c-.86.6-1.58,2.46-1.72,4.52-.08,1.11.04,2.08.3,2.76-.15-.65-.2-1.43-.14-2.29.12-1.85.81-4.21,2.03-5.05l8.48-4.9-.51-.3h0ZM23.26,26.09c-.05,0-.11-.01-.16-.04l-.79-.46c-.81-.72-1.16-2.18-1.04-4.05.13-1.89.8-4.17,2.02-5l8.14-4.71v-.41c0-.13.08-.24.19-.29.24-.09.37-.04.54.03l1.35.78c.15.08.2.26.12.41-.08.14-.25.21-.4.14-.03-.01-.05-.02-.07-.03,0,0-.02.02-.05.03l-8.7,5.03c-.86.59-1.61,2.52-1.74,4.57-.11,1.62.18,2.91.8,3.46.12.1.13.28.04.41-.06.08-.16.13-.25.13Z"/>
      <path class="cls-1" d="M32.99,20.72l-8.75,5.05c-2.49,1.44-2.49-7.07,0-8.51l8.74-5.05c1.42-.81,1.45,7.67,0,8.51Z"/>
      <path class="cls-2" d="M32.99,20.72h.01-.01ZM33.18,12.46l-8.77,5.06c-1.78,1.03-2.16,6.08-1.23,7.68.31.55.64.46.92.3l8.75-5.05c.66-.38,1.09-3.49.86-6.06-.14-1.47-.44-1.9-.52-1.93h0ZM23.7,26.24c-.42,0-.79-.25-1.07-.73-1.07-1.85-.64-7.31,1.46-8.53l8.75-5.05c.28-.17.69-.16.99.35.84,1.47.76,7.85-.68,8.69h0l-8.75,5.05c-.24.14-.47.21-.69.21Z"/>
      <path class="cls-1" d="M26.11,17.89c1.3-.75,2.34-.14,2.34,1.35s-1.04,3.31-2.34,4.06c-1.29.75-2.35.14-2.35-1.36s1.05-3.31,2.35-4.06Z"/>
      <path class="cls-2" d="M27.15,17.88c-.27,0-.57.09-.89.28h0c-1.21.7-2.19,2.4-2.19,3.79,0,.61.19,1.05.54,1.25.34.2.82.14,1.35-.16,1.21-.7,2.19-2.4,2.19-3.79,0-.61-.19-1.05-.54-1.25-.13-.08-.29-.12-.45-.12h0ZM25.06,23.94c-.28,0-.53-.07-.76-.2-.54-.31-.84-.95-.84-1.78,0-1.62,1.1-3.52,2.49-4.32.72-.42,1.42-.48,1.96-.17.54.31.84.95.84,1.78,0,1.62-1.1,3.52-2.5,4.33-.42.24-.83.36-1.2.36Z"/>
      <path class="cls-3" d="M4.85,17.25l-.58-.33c-.33-.19-.43-.61-.23-.93l.11-.18c2.45-3.84,4.9-7.67,7.35-11.51.57-.87,1.85-2.19,3.02-1.64l1.16.68c-1.16-.54-2.42.76-3.01,1.65-2.61,4.09-5.22,8.18-7.83,12.27Z"/>
      <path class="cls-2" d="M13.95,2.83c-.85,0-1.77,1.01-2.18,1.64l-7.46,11.69c-.05.08-.07.18-.05.27.03.09.09.17.17.22l.31.18,7.67-12.03c.51-.77,1.27-1.54,2.09-1.81l-.14-.08c-.14-.06-.28-.09-.42-.09h0ZM4.85,17.56c-.05,0-.11-.01-.16-.04l-.57-.33c-.23-.14-.39-.35-.46-.61-.06-.26-.02-.53.13-.75l7.46-11.69c.78-1.18,2.13-2.35,3.4-1.76l1.19.69c.15.08.2.26.12.41-.08.15-.26.2-.4.14-.98-.46-2.15.81-2.63,1.54l-7.83,12.27c-.06.09-.16.14-.26.14Z"/>
      <path class="cls-1" d="M9.07,14.37l-1.64,2.91-.31.18c-.39.22-1.18.42-1.57.2l-.69-.4c2.61-4.09,5.22-8.18,7.83-12.27.94-1.47,2.36-2.17,3.17-1.55l2.51,1.93-9.3,9Z"/>
      <path class="cls-2" d="M7.42,17.28h0,0ZM5.28,17.15l.41.24c.25.14.91,0,1.27-.2l.23-.13,1.6-2.84s.04-.05.06-.07l9.03-8.75-2.23-1.72c-.19-.15-.43-.19-.72-.14-.67.12-1.43.74-2,1.61l-7.66,12h0ZM6.01,18.06c-.23,0-.45-.04-.62-.14l-.69-.4c-.07-.04-.12-.11-.15-.19-.02-.08,0-.17.04-.24l7.83-12.28c.66-1.03,1.56-1.74,2.42-1.89.46-.08.88.01,1.2.26l2.51,1.94c.07.06.11.14.12.23,0,.09-.03.18-.09.24l-9.27,8.97-1.62,2.87s-.06.09-.11.11l-.3.18c-.3.17-.81.34-1.27.34Z"/>
      <path class="cls-3" d="M9.28,16.21l-2.16,1.25c-.39.22-1.18.43-1.57.2h-.02S22.44,1.14,22.44,1.14c.63-.54,1.4-1.05,2.25-.74l1.31.76c-.85-.31-1.62.21-2.25.74l-14.46,14.31Z"/>
      <path class="cls-2" d="M24.17.61c-.54,0-1.08.38-1.54.77L6.19,17.43c.27-.03.57-.13.78-.24l2.13-1.23L23.53,1.68c.38-.33.83-.66,1.34-.82l-.34-.19c-.11-.04-.23-.06-.36-.06h0ZM6.01,18.06c-.23,0-.45-.04-.62-.14-.09-.05-.15-.14-.16-.23-.02-.09.02-.19.08-.26L22.22.92c.68-.58,1.57-1.17,2.57-.81l1.37.78c.13.08.19.25.12.4-.07.14-.24.22-.38.16-.71-.25-1.38.21-1.95.69l-14.45,14.3s-.03.03-.06.05l-2.16,1.25c-.3.17-.81.34-1.27.34Z"/>
      <path class="cls-1" d="M27.78,5.13l.12.33-1.68.97-9.94,5.74-7,4.04L23.75,1.9c1.18-1.08,2.45-1.16,2.85-.04l.92,2.54.26.74Z"/>
      <path class="cls-2" d="M25.5,1.36c-.44,0-1.01.27-1.56.76l-12.75,12.62L27.52,5.32l-1.21-3.36c-.12-.31-.31-.51-.58-.57-.07-.02-.15-.03-.23-.03h0ZM9.28,16.52c-.09,0-.19-.04-.25-.12-.09-.12-.08-.3.04-.41L23.53,1.68c.82-.74,1.67-1.06,2.35-.89.47.12.82.45,1,.96l1.18,3.28h0l.12.32c.05.14-.01.3-.14.37l-18.62,10.75s-.1.04-.15.04Z"/>
      <path class="cls-2" d="M21.78,7.83c-.08,0-.16-.03-.22-.09-.12-.12-.12-.32,0-.43l3.49-3.39c.12-.12.31-.12.43,0,.11.12.11.32,0,.43l-3.48,3.39c-.06.06-.14.09-.22.09Z"/>
      <path class="cls-4" d="M6.25,20.77l-5.45-3.15c-.34.78-.42,1.72-.42,3.01l-.07,16.87c0,3.12,3.8,4.52,6.43,4.62-.82-.35-.97-.59-1-1.49l.08-18.15c.02-.63.17-1.15.43-1.72h.01Z"/>
      <path class="cls-2" d="M.96,18.07c-.22.7-.27,1.54-.27,2.56l-.07,16.87c0,2.55,2.75,3.83,5.04,4.2-.15-.25-.21-.58-.23-1.06l.07-18.16c.02-.55.12-1.03.36-1.59l-4.9-2.83h0ZM6.74,42.43h0c-2.6-.1-6.73-1.52-6.73-4.93l.07-16.87c0-1.26.08-2.28.44-3.13.03-.08.1-.15.18-.17.09-.03.18-.02.25.02l5.46,3.15c.14.08.19.26.12.41h-.01c-.26.58-.38,1.06-.4,1.6l-.07,18.14c.03.78.11.9.81,1.2.14.06.22.2.18.35-.03.14-.15.24-.3.24Z"/>
      <path class="cls-2" d="M13.02,10.64c-.05,0-.11-.02-.17-.05-.14-.09-.18-.29-.09-.43l2.65-4.07c.09-.14.29-.18.42-.09.15.09.18.28.1.43l-2.66,4.07c-.06.09-.15.14-.26.14Z"/>
    </g>
  </g>
</svg>