<?xml version="1.0" encoding="UTF-8"?>
<svg id="Layer_2" data-name="Layer 2" xmlns="http://www.w3.org/2000/svg" viewBox="0 0 34.48 48.39" fill="currentColor">
  <defs>
    <style>
      .cls-1 {
        fill: #fff;
      }

      .cls-1, .cls-2, .cls-3, .cls-4 {
        fill-rule: evenodd;
      }

      .cls-2 {
        fill: #1a87c7;
      }

      .cls-3 {
        fill: #bdedf8;
      }

      .cls-4 {
        fill: #66ceef;
      }
    </style>
  </defs>
  <g id="_Layer_" data-name="&amp;lt;Layer&amp;gt;">
    <g>
      <path class="cls-4" d="M15.11,34.62h0c1.55,3.56.8,7.43,4.32,10.75-5.79,2.69-12.25,3.97-17.35,1.02-1.58-.91-1.76-1.29-1.76-2.75s-.03-2.93.02-4.36c.27-2.51,1.55-4.22,3.18-6.05,1.82-1.98,4.1-3.58,5.75-5.72h0c1.83,2.07,4.81,4.74,5.84,7.1h0ZM9.44,27.7h0c-.05-.06-.1-.11-.16-.16l.16.16h0ZM34.17,33.57v-4.83c0-3.85-4.75-5.25-8.04-5.54-.28.57-.56,1.14-.86,1.69,2.58,4.63.37,14.53-2.47,18.72,6.45-3.72,11.37-8.63,11.37-10.05h0Z"/>
      <path class="cls-2" d="M34.17,33.57h0,0ZM25.63,24.89c2.36,4.49.57,13.25-1.92,17.83,6.02-3.68,10.16-8.06,10.16-9.15v-4.83c0-4.14-5.88-5.03-7.54-5.21-.23.46-.46.91-.69,1.36h0ZM22.81,43.93c-.08,0-.17-.03-.23-.11-.1-.1-.11-.26-.03-.38,2.76-4.06,4.95-13.92,2.46-18.4-.05-.09-.05-.2,0-.29.29-.54.57-1.1.85-1.67.06-.12.18-.18.3-.18,4.02.35,8.32,2.06,8.32,5.84v4.83h0c0,1.66-5.14,6.63-11.52,10.32-.05.03-.1.04-.16.04h0ZM9.29,28c-.93,1.14-2.03,2.13-3.1,3.1-.83.75-1.69,1.52-2.44,2.34-1.48,1.67-2.83,3.37-3.1,5.88-.04,1-.03,2.07-.02,3.09,0,.42,0,.82,0,1.23,0,1.34.11,1.62,1.61,2.48,5.32,3.08,11.92,1.29,16.67-.84-2.08-2.15-2.56-4.5-3.02-6.78-.25-1.25-.52-2.54-1.05-3.75h0c-.74-1.7-2.57-3.62-4.18-5.3-.48-.5-.94-.99-1.36-1.45h0ZM8.77,48.39c-2.35,0-4.69-.48-6.84-1.72C.3,45.72,0,45.28,0,43.65c0-.4,0-.82,0-1.23,0-1.04-.01-2.11.02-3.15.29-2.69,1.71-4.49,3.26-6.24.78-.84,1.64-1.62,2.48-2.39,1.14-1.02,2.32-2.09,3.26-3.31.06-.07.14-.12.23-.12.09,0,.18.03.24.1,0,0,0,0,0,0l.16.17s.04.04.05.07c.42.46.89.96,1.38,1.47,1.65,1.72,3.52,3.68,4.3,5.48h0c.56,1.28.82,2.61,1.08,3.89.49,2.4.95,4.68,3.16,6.77.07.07.11.17.09.27-.02.11-.08.19-.18.23-3.05,1.42-6.92,2.73-10.79,2.73Z"/>
      <path class="cls-1" d="M9.27,27.52c.25-.32.98-1.07,1.18-1.4.39-.67.38-.92.46-1.7,3.36,3.88,11.24,6.15,14.28.65h0c.86,2.04-1.59,5.98-4.72,7.15-2.3.86-5.82.33-7.59-1.29l-3.01-2.75-.59-.66Z"/>
      <path class="cls-2" d="M9.68,27.51l.41.47,2.99,2.72c1.64,1.5,5.04,2.07,7.28,1.23,1.76-.66,3.48-2.35,4.28-4.2.3-.69.43-1.33.41-1.87-1.1,1.58-2.74,2.52-4.76,2.74-3.06.32-6.8-1.13-9.15-3.48-.05.37-.14.67-.43,1.15-.14.24-.47.6-.79.96-.09.1-.17.2-.25.28h0ZM17.99,32.93c-1.99,0-4.08-.64-5.32-1.78l-3.01-2.74-.61-.69c-.1-.11-.1-.28-.01-.4.1-.12.26-.3.44-.51.27-.3.61-.68.72-.86.31-.54.34-.76.39-1.35l.02-.24c.01-.12.1-.23.22-.26.12-.04.24,0,.32.09,2.18,2.51,6,4.09,9.09,3.77,2.08-.22,3.7-1.28,4.69-3.07.06-.1.16-.18.29-.16.12,0,.22.08.27.19.33.79.24,1.87-.26,3.03-.87,2-2.73,3.81-4.63,4.53-.78.3-1.67.43-2.59.43Z"/>
      <path class="cls-1" d="M23.32,27.69c1.27-1.22,2.3-3.44,3.29-5.47,1.35-2.76,1.28-5.93,1.3-8.47l-.46-1.5c-.17-.63-.18-1.3-.19-1.92-.02-.84-.03-1.6-.46-1.98-.68-.63-1.76.33-3.03,1.44-.86.76-1.8,1.59-2.82,2.18-1.02.59-1.95.84-2.82,1.08h0c-.83.23-1.59.43-2.2.94-.95.8-.91,1.45-.89,2.6.02,1.09.07,2.15-.59,4.45-.08-.58-.22-1.17-.44-1.71-1.2-2.89-4.06-1.89-4,.87,0,.28.04.55.11.84.17.76.61,1.66.96,2.32.12.22-.03.79-.13,1.11,2.42,2.75,5.94,4.62,8.75,4.62,1.25,0,2.72-.51,3.63-1.39Z"/>
      <path class="cls-2" d="M11.29,24.38c2.38,2.63,5.73,4.39,8.39,4.39h0c1.24,0,2.61-.52,3.42-1.3h0c1.14-1.1,2.1-3.07,3.03-4.97l.2-.41c1.24-2.55,1.26-5.51,1.27-7.89v-.4l-.45-1.47c-.18-.68-.19-1.38-.2-2.01-.01-.75-.03-1.46-.36-1.76-.47-.43-1.51.48-2.61,1.44-.86.76-1.83,1.62-2.87,2.22-1.06.61-2.03.87-2.89,1.11-.82.22-1.52.41-2.08.88-.81.69-.8,1.21-.79,2.25v.28c.02,1.05.04,2.14-.6,4.37-.04.14-.17.24-.32.22-.14,0-.26-.12-.28-.27-.09-.63-.23-1.16-.42-1.64-.46-1.1-1.23-1.68-2.02-1.52-.69.15-1.41.91-1.38,2.27,0,.25.04.51.1.77.13.58.45,1.34.93,2.24.12.23.1.63-.06,1.18h0ZM19.69,29.39c-2.87,0-6.47-1.89-8.97-4.73-.07-.08-.1-.19-.06-.29.15-.48.18-.8.15-.88-.51-.95-.84-1.76-.99-2.4-.07-.3-.11-.6-.11-.89-.03-1.46.74-2.65,1.87-2.89.86-.18,2.03.22,2.72,1.89.07.16.13.33.18.5.29-1.33.27-2.15.26-2.93v-.29c-.02-1.08-.03-1.86,1-2.73.66-.56,1.46-.78,2.31-1,.87-.23,1.76-.48,2.75-1.05.99-.57,1.89-1.36,2.76-2.13,1.38-1.23,2.56-2.27,3.45-1.45.52.48.54,1.31.56,2.2.01.58.02,1.25.18,1.85l.46,1.5s.01.06.01.09v.44c-.01,2.44-.03,5.49-1.33,8.16l-.2.41c-.95,1.95-1.93,3.96-3.16,5.14-.93.9-2.43,1.47-3.84,1.47h0Z"/>
      <path class="cls-4" d="M7.86,6.88c-2.24,4.1-.83,15.31,3.03,17.75.08-.2.34-1.02.19-1.28-.35-.66-.79-1.55-.96-2.32-.84-3.7,3.56-5.43,4.33,0,.66-2.3.6-3.36.59-4.45-.02-1.14-.06-1.8.89-2.6.61-.51,1.36-.71,2.2-.94h0c.86-.23,1.8-.49,2.82-1.08,1.02-.59,1.96-1.42,2.82-2.18,1.27-1.11,2.34-2.07,3.03-1.44.43.38.44,1.15.46,1.98.01.62.02,1.29.19,1.92l.46,1.5c.13-1.99.09-4.3-.19-6.2-.53-3.66-2.17-3.8-6.69-6.19-.72-.38-1.66-1.01-3.05-1.05-3.4-.11-8.45,3.85-10.12,6.56Z"/>
      <path class="cls-2" d="M8.12,7.03c-2.1,3.86-.86,14.34,2.6,17.1.07-.28.12-.55.09-.64-.51-.95-.84-1.76-.99-2.4-.3-1.32.02-2.59.84-3.3.57-.5,1.32-.65,2-.4.51.19,1.33.74,1.82,2.31.29-1.33.27-2.15.26-2.93v-.29c-.02-1.08-.03-1.86,1-2.73.66-.56,1.46-.78,2.31-1,.87-.23,1.76-.48,2.75-1.05.99-.57,1.89-1.36,2.76-2.13,1.38-1.23,2.56-2.27,3.45-1.45.52.48.54,1.31.56,2.2.01.48.02,1.01.11,1.51.01-1.5-.08-2.98-.26-4.23-.42-2.9-1.53-3.44-4.5-4.92-.6-.3-1.28-.63-2.03-1.03l-.31-.18c-.66-.36-1.47-.82-2.61-.85h-.13c-3.29,0-8.13,3.85-9.72,6.41h0ZM10.89,24.94c-.06,0-.12-.02-.17-.05-4-2.52-5.45-13.9-3.14-18.16,0,0,0,0,.01-.02C9.29,3.97,14.3,0,17.85,0h.14c1.28.04,2.21.56,2.89.93l.3.16c.75.4,1.42.73,2.02,1.03,2.99,1.5,4.36,2.17,4.83,5.39.26,1.81.33,4.09.19,6.27,0,.15-.12.27-.27.28-.15.02-.29-.08-.33-.22l-.46-1.51c-.18-.68-.19-1.38-.2-2.01-.01-.75-.03-1.46-.36-1.76-.47-.43-1.51.48-2.61,1.44-.86.76-1.83,1.62-2.87,2.22-1.06.61-2.03.87-2.89,1.11-.82.22-1.52.41-2.08.88-.81.69-.8,1.21-.79,2.25v.28c.02,1.05.04,2.14-.6,4.37-.04.14-.17.24-.32.22-.14,0-.26-.12-.28-.27-.23-1.66-.86-2.8-1.71-3.12-.47-.17-.97-.07-1.38.28-.51.44-.94,1.39-.64,2.71.13.58.45,1.34.93,2.24.24.45-.16,1.5-.18,1.54-.03.09-.1.16-.19.18-.03,0-.06.02-.09.02Z"/>
      <path class="cls-1" d="M20.87,31.28c-5.6-.5-8.68-.64-11.6-3.76,1.83,2.07,4.81,4.74,5.84,7.1,1.55,3.56.8,7.42,4.32,10.75l3.37-1.76c2.62-3.74,5.22-13.79,2.47-18.72l-.09.17c.28,2.65-1.86,3.92-3.92,5.99h0l-.4.22h0Z"/>
      <path class="cls-2" d="M11.96,29.93c1.39,1.49,2.79,3.08,3.44,4.57.56,1.28.82,2.61,1.08,3.89.47,2.35.93,4.56,3.01,6.61l3.11-1.62c2.31-3.35,4.76-12.19,2.89-17.3-.22,1.67-1.44,2.79-2.81,4.06-.39.36-.79.73-1.19,1.13-.02.02-.04.03-.07.05l-.39.23c-.06.03-.12.04-.18.03l-.74-.06c-3.45-.31-5.98-.53-8.14-1.6h0ZM19.43,45.68c-.08,0-.15-.03-.21-.09-2.36-2.22-2.86-4.7-3.35-7.09-.25-1.25-.52-2.54-1.05-3.75-.74-1.7-2.57-3.62-4.18-5.3-.58-.61-1.13-1.18-1.61-1.72-.11-.13-.1-.32.02-.43.12-.11.32-.11.43.02,2.71,2.89,5.53,3.15,10.66,3.6l.64.06.28-.16c.4-.4.79-.76,1.18-1.12,1.58-1.46,2.83-2.61,2.62-4.6,0-.06,0-.12.04-.17l.09-.17c.05-.11.16-.17.27-.17h0c.11,0,.22.06.27.17,2.93,5.27.01,15.47-2.49,19.05-.03.03-.07.07-.11.09l-3.37,1.76s-.09.03-.14.03Z"/>
      <path class="cls-2" d="M19.62,35.43s-.06-.01-.09-.02c-.16-.05-.25-.22-.2-.38l1.18-3.64c.05-.16.22-.24.38-.19.07.02.13.07.17.13-.03-.14.03-.28.16-.35.15-.07.34-.02.42.14l1.28,2.5c.08.15.02.34-.13.42-.15.08-.33.02-.41-.14l-1.27-2.48c.01.05,0,.1,0,.16l-1.18,3.64c-.04.13-.16.21-.29.21Z"/>
      <path class="cls-2" d="M17.16,45.69c-.1,0-.2-.04-.26-.13l-4.6-6.94c-.05-.08-.06-.16-.04-.25l.41-1.48-1.61-3.75c-.07-.15,0-.34.17-.41.15-.06.34.01.4.17l1.65,3.86c.03.06.03.13.01.2l-.4,1.44,4.52,6.81c.09.15.06.34-.09.43-.05.03-.11.04-.17.04Z"/>
      <path class="cls-2" d="M26.61,39.88s-.05,0-.07,0c-.17-.03-.27-.21-.23-.37l1.77-7.3-.71-.82c-.04-.06-.07-.12-.07-.19l-.15-4.08c0-.17.13-.31.3-.32.15-.03.31.12.32.3l.14,3.97.74.86c.06.08.09.18.07.27l-1.81,7.46c-.03.14-.16.23-.3.23Z"/>
      <path class="cls-2" d="M23.07,15.53v2.33c0,.36.11.62.3.74.19.1.48.07.79-.12l3.26-1.88c.22-.13.44-.36.6-.64,0,0,0-.02,0-.02.17-.29.26-.61.26-.87v-2.49s0-.05,0-.08c-.03.02-.06.03-.08.04l-5.14,2.97h0ZM21.86,16.22l-4.9,2.82c-.28.17-.32.2-.32.58v2.54c0,.2.05.34.15.4.1.05.25.03.42-.07l3.26-1.89c.36-.21.72-.59.98-1.04.26-.45.41-.96.41-1.37v-1.97h0ZM16.9,23.21c-.15,0-.3-.03-.42-.11-.3-.17-.46-.5-.46-.93v-2.49c0-.69.2-.9.63-1.16l5.36-3.09c.1-.06.21-.06.31,0,.06.03.1.09.13.14v-.22c0-.1.06-.21.15-.26l5.29-3.06c.24-.14.47-.27.7-.15.22.11.28.38.3.64,0,0,0,.07,0,.08v2.49c0,.37-.12.77-.33,1.16,0,.01,0,.02-.01.02-.22.39-.52.7-.84.89l-3.26,1.89c-.51.3-1.01.33-1.4.1-.32-.18-.52-.5-.58-.93h0c0,.53-.18,1.13-.5,1.68-.32.55-.75,1-1.2,1.26l-3.26,1.89c-.21.12-.42.18-.61.18Z"/>
      <path class="cls-2" d="M16.14,19.32s-.09,0-.13-.03l-4.2-1.89c-.16-.08-.33-.1-.44-.04-.04.02-.09.05-.11.15l-.06.3c-.04.17-.2.26-.37.23-.16-.04-.27-.2-.23-.37l.06-.29c.06-.26.21-.46.43-.58.28-.14.63-.13.97.03l4.2,1.89c.15.07.22.25.15.41-.05.12-.16.18-.28.18Z"/>
      <path class="cls-2" d="M22.16,15.99c-.1,0-.21-.05-.26-.16-.09-.15-.03-.33.11-.42l.59-.34c.14-.09.33-.04.42.12.08.14.03.33-.12.42l-.59.34s-.1.04-.15.04Z"/>
      <path class="cls-3" d="M15.76,32.8c.92,1.16,1.13,2.94.87,4.57l4.11-2.63,1.17-.56,3.23-1.24c-.28-1.44-.06-2.77.01-4.02l-3.58,3.5-.98.31-4.83.06Z"/>
      <path class="cls-2" d="M16.33,33.11c.55.96.79,2.26.68,3.66l3.55-2.28,1.2-.57,3.02-1.15c-.17-1.08-.09-2.07,0-3.03h0s-2.99,2.92-2.99,2.92c-.03.03-.08.06-.12.08l-.98.31s-.06.02-.09.02l-4.26.05h0ZM16.63,37.69c-.06,0-.12-.02-.17-.05-.1-.07-.15-.18-.14-.3.27-1.74-.03-3.35-.81-4.33-.07-.09-.09-.23-.04-.33.05-.1.16-.17.28-.17l4.79-.06.87-.28,3.52-3.45c.09-.09.23-.11.34-.06.12.05.19.16.18.3-.02.28-.04.56-.06.83-.08,1-.17,2.03.04,3.11.03.15-.05.3-.19.35l-3.23,1.24-1.15.55-4.07,2.61c-.05.03-.11.05-.17.05Z"/>
      <path class="cls-3" d="M21.5,34.72c1.71-.73.83-2.97-.28-2.57-1.85.69-1.52,3.34.28,2.57Z"/>
      <path class="cls-2" d="M21.5,32.42c-.05,0-.11,0-.16.03-.56.21-.94.65-1.02,1.18-.06.35.04.66.24.82.24.19.59.1.84,0h0c.87-.37.84-1.13.69-1.52-.11-.27-.32-.5-.58-.5h0ZM21.5,34.72h0,0ZM20.9,35.18c-.35,0-.59-.14-.73-.24-.38-.29-.56-.83-.47-1.39.12-.77.65-1.38,1.42-1.67.6-.23,1.24.12,1.52.83.32.79.07,1.84-1.02,2.31h0c-.28.12-.52.17-.72.17Z"/>
      <path class="cls-2" d="M21.5,44.57h-.03c-.17-.02-.29-.16-.28-.33.33-3.67.33-6.59,0-9.48-.02-.17.1-.32.27-.34.18-.01.32.11.34.27.33,2.94.33,5.9,0,9.6-.01.15-.15.27-.31.27Z"/>
    </g>
  </g>
</svg>