<?xml version="1.0" encoding="UTF-8"?>
<svg id="Layer_2" data-name="Layer 2" xmlns="http://www.w3.org/2000/svg" viewBox="0 0 43.08 42.61" fill="currentColor">
  <defs>
    <style>
      .cls-1 {
        fill: #fff;
      }

      .cls-1, .cls-2, .cls-3, .cls-4 {
        fill-rule: evenodd;
      }

      .cls-2 {
        fill: #1a87c7;
      }

      .cls-3 {
        fill: #bdedf8;
      }

      .cls-4 {
        fill: #66ceef;
      }
    </style>
  </defs>
  <g id="_Layer_" data-name="&amp;lt;Layer&amp;gt;">
    <g>
      <polygon class="cls-3" points="6.67 17.5 7.73 16.88 41.63 36.45 40.57 37.06 6.67 17.5"/>
      <path class="cls-2" d="M7.32,17.5l33.25,19.2.41-.25L7.73,17.25l-.41.25h0ZM40.57,37.38c-.05,0-.11-.02-.16-.04L6.51,17.77c-.11-.05-.16-.16-.16-.27s.05-.22.16-.28l1.05-.61c.11-.05.22-.05.32,0l33.9,19.57c.08.06.16.16.16.28s-.08.22-.16.27l-1.05.61c-.05.03-.11.04-.16.04Z"/>
      <polygon class="cls-1" points="40.57 37.06 41.63 36.45 41.63 38 40.57 38.62 40.57 37.06"/>
      <path class="cls-2" d="M40.87,37.25v.82l.43-.25v-.82l-.43.25h0ZM40.57,38.93c-.05,0-.11-.02-.16-.04-.11-.06-.16-.16-.16-.28v-1.55c0-.11.05-.22.16-.28l1.05-.61c.11-.05.22-.05.32,0,.08.06.16.16.16.28v1.55c0,.11-.08.22-.16.28l-1.05.61c-.05.03-.11.04-.16.04Z"/>
      <polygon class="cls-4" points="6.67 19.05 6.67 17.49 40.57 37.06 40.57 38.62 6.67 19.05"/>
      <path class="cls-2" d="M7,18.86l33.25,19.2v-.82L7,18.05v.82h0ZM40.57,38.93c-.05,0-.11-.01-.16-.04L6.51,19.32c-.11-.06-.16-.16-.16-.27v-1.55c0-.11.05-.22.16-.27.11-.06.22-.06.32,0l33.9,19.57c.08.06.13.16.13.28v1.55c0,.11-.05.22-.13.27-.05.03-.11.04-.16.04Z"/>
      <polygon class="cls-3" points=".3 21.17 1.38 20.56 35.25 40.13 34.2 40.74 .3 21.17"/>
      <path class="cls-2" d="M.94,21.17l33.25,19.2.43-.25L1.38,20.93l-.43.25h0ZM34.2,41.06c-.05,0-.11-.01-.16-.04L.13,21.45c-.08-.06-.13-.16-.13-.28s.05-.22.13-.28l1.08-.61c.08-.06.22-.06.3,0l33.9,19.57c.11.06.16.16.16.28s-.05.22-.16.28l-1.05.61c-.05.03-.11.04-.16.04Z"/>
      <polygon class="cls-1" points="34.2 40.74 35.25 40.13 35.25 41.68 34.2 42.29 34.2 40.74"/>
      <path class="cls-2" d="M34.52,40.92v.82l.41-.25v-.82l-.41.25h0ZM34.2,42.61c-.05,0-.11-.02-.16-.04-.08-.06-.16-.16-.16-.27v-1.55c0-.11.08-.22.16-.28l1.05-.61c.11-.05.24-.05.32,0,.11.06.16.16.16.28v1.55c0,.11-.05.22-.16.28l-1.05.61c-.05.03-.11.04-.16.04Z"/>
      <polygon class="cls-4" points=".3 22.72 .3 21.17 34.2 40.74 34.2 42.29 .3 22.72"/>
      <path class="cls-2" d="M.62,22.54l33.25,19.2v-.82L.62,21.72v.82h0ZM34.2,42.61c-.05,0-.11-.01-.16-.04L.13,23c-.08-.06-.13-.16-.13-.28v-1.55c0-.11.05-.22.13-.28.11-.05.22-.05.32,0l33.9,19.57c.08.06.16.16.16.28v1.55c0,.11-.08.22-.16.27-.05.03-.11.04-.16.04Z"/>
      <path class="cls-4" d="M11.48,25.14c.76-.33,1.43.49,1.78,1.04h0c.38.72.59,1.46,0,2.06.84-.48,2-.76.97-2.63h0c-1.13-1.73-1.73-1.06-2.76-.47h0ZM24.42,32.6c.76-.33,1.41.5,1.78,1.04h0c.51.99.46,1.42,0,2.06.81-.48,2-.76.97-2.63h0c-1.13-1.73-1.73-1.05-2.76-.47h0ZM27.98,34.65c1-.58,1.59-1.26,2.73.47h0c1.03,1.87-.13,2.15-.97,2.63.59-.6.38-1.35,0-2.06h0c-.35-.54-1.03-1.37-1.76-1.04h0ZM9.8,22.61l.89.94h0c1,1.87-.16,2.15-1,2.63.62-.61.41-1.35,0-2.06h0c-.35-.54-1-1.37-1.76-1.04.95-.55,1.13-.85,1.86-.47h0Z"/>
      <path class="cls-2" d="M8.91,22.86c.35.2.7.56,1.05,1.08.24.42.46.95.43,1.48.16-.12.3-.25.35-.43.08-.29-.03-.71-.32-1.26l-.81-.87c-.3-.14-.43-.15-.7,0h0ZM12.48,24.92c.35.2.7.56,1.05,1.07.22.42.46.95.41,1.48.16-.12.3-.25.35-.43.08-.3-.03-.73-.32-1.3-.65-.96-.97-1.07-1.49-.83h0ZM13.26,28.55c-.08,0-.19-.04-.24-.12-.11-.12-.08-.31.03-.42.38-.39.35-.9-.05-1.69-.51-.76-.97-1.07-1.38-.9-.11.05-.24.03-.32-.05-.24.46-.7.71-1.13.93-.08.05-.19.11-.3.16-.13.08-.3.05-.4-.08-.08-.12-.08-.31.03-.42.38-.39.38-.9-.05-1.69-.51-.76-.97-1.07-1.35-.9-.16.07-.35,0-.43-.15-.08-.15,0-.34.14-.42.16-.1.32-.19.46-.27.59-.38.95-.6,1.7-.21.03.01.08.04.08.06l.92.94s.03.04.03.07c.3.55.43,1.02.43,1.42.08-.05.16-.1.24-.15.84-.51,1.67-1.03,2.86.76.43.75.54,1.34.41,1.81-.19.59-.73.86-1.19,1.11-.11.05-.22.11-.3.16-.05.03-.11.04-.16.04h0ZM25.42,32.39c.35.2.7.56,1.05,1.08.32.61.46,1.07.41,1.49.16-.12.3-.26.35-.43.08-.29-.03-.73-.32-1.3-.65-.96-1-1.06-1.49-.84h0ZM28.96,34.44c.35.2.7.56,1.05,1.08.22.42.46.95.41,1.49.19-.12.3-.26.35-.43.11-.3-.03-.74-.32-1.3-.62-.96-.97-1.07-1.49-.83h0ZM29.74,38.07c-.08,0-.19-.04-.24-.12-.11-.13-.08-.31.03-.42.38-.39.38-.89-.05-1.68-.51-.76-.97-1.08-1.38-.9-.11.05-.24.03-.32-.06-.24.46-.7.71-1.13.93-.08.05-.19.11-.27.16-.13.07-.3.05-.41-.06-.11-.11-.11-.28-.03-.4.38-.5.49-.79-.03-1.72-.51-.76-.97-1.07-1.35-.9-.16.07-.35,0-.41-.15-.08-.15-.03-.33.11-.42.11-.07.22-.13.32-.19.81-.5,1.67-1.03,2.86.76.3.57.46,1.04.43,1.44.11-.05.19-.1.27-.15.81-.51,1.65-1.03,2.84.76.43.75.54,1.34.41,1.81-.19.59-.73.86-1.19,1.11-.11.05-.19.11-.3.16-.05.03-.11.04-.16.04Z"/>
      <path class="cls-4" d="M28.85,34.75c.35.2.67.55.89.94h0c.24.39.38.84.38,1.24s-.14.69-.38.82h0c-.22.13-.54.11-.89-.09-.35-.2-.65-.55-.89-.94h0c-.22-.4-.38-.84-.38-1.25s.16-.69.38-.82h.03c.22-.13.51-.11.86.09Z"/>
      <path class="cls-2" d="M28.28,34.89c-.05,0-.11.01-.16.03-.14.08-.22.28-.22.55,0,.33.13.72.32,1.08.22.36.49.66.78.83.22.13.43.17.57.09.13-.08.22-.28.22-.54,0-.33-.11-.72-.32-1.09-.22-.36-.49-.66-.78-.82h0c-.16-.09-.3-.13-.41-.13h0ZM29.42,38.15c-.24,0-.49-.07-.73-.22-.38-.22-.73-.6-1-1.05-.27-.46-.41-.96-.41-1.4,0-.51.19-.9.51-1.09.38-.2.78-.16,1.22.09h0c.38.22.73.6,1,1.06.27.46.41.96.41,1.4,0,.5-.19.9-.51,1.09-.13.09-.3.13-.49.13Z"/>
      <path class="cls-4" d="M25.31,32.7c.32.2.65.55.89.94h0c.22.39.35.84.35,1.24s-.13.69-.35.82h0c-.24.13-.57.11-.89-.09-.35-.2-.67-.55-.89-.94h0c-.24-.4-.38-.84-.38-1.24s.14-.69.38-.82h0c.22-.13.54-.11.89.09Z"/>
      <path class="cls-2" d="M24.72,32.84c-.05,0-.08.01-.13.03-.14.08-.22.28-.22.55,0,.33.11.73.32,1.08.19.36.49.66.76.83.24.13.46.17.59.09.13-.08.22-.28.22-.55,0-.33-.13-.72-.35-1.08-.19-.36-.49-.66-.76-.83-.16-.09-.3-.13-.43-.13h0ZM25.88,36.1c-.24,0-.49-.07-.73-.21-.4-.22-.76-.6-1.03-1.06-.24-.46-.41-.96-.41-1.4,0-.51.19-.89.54-1.09.35-.2.76-.16,1.19.09h0c.41.22.76.6,1.03,1.06.24.46.41.96.41,1.4,0,.5-.19.9-.51,1.09-.16.08-.32.13-.49.13Z"/>
      <path class="cls-4" d="M12.37,25.23c.35.2.67.55.89.94h0c.22.39.35.84.35,1.24s-.14.68-.35.82h0c-.22.13-.54.11-.89-.09-.35-.2-.68-.55-.89-.94h0c-.22-.4-.38-.84-.38-1.24s.16-.69.38-.82h0c.24-.13.54-.11.89.09Z"/>
      <path class="cls-2" d="M11.8,25.38c-.05,0-.11.01-.16.04-.13.08-.22.28-.22.55,0,.33.11.72.32,1.08.22.36.49.66.78.82.22.13.43.17.57.09.13-.08.22-.28.22-.54,0-.33-.13-.73-.32-1.09-.22-.36-.49-.66-.78-.83h0c-.16-.09-.3-.13-.4-.13h0ZM12.94,28.64c-.24,0-.49-.07-.73-.22-.38-.22-.76-.59-1-1.05-.27-.46-.43-.96-.43-1.4,0-.5.22-.9.54-1.09.35-.2.78-.16,1.22.09h0c.38.22.73.6,1,1.06.27.46.41.96.41,1.4,0,.5-.19.9-.51,1.09-.13.09-.32.13-.49.13Z"/>
      <path class="cls-4" d="M8.81,23.18c.35.2.68.55.89.94h0c.24.4.38.84.38,1.24s-.13.69-.38.82h0c-.22.13-.54.11-.89-.09-.35-.2-.65-.55-.89-.94h0c-.22-.39-.35-.84-.35-1.24s.13-.68.35-.82h.03c.22-.13.54-.11.86.09Z"/>
      <path class="cls-2" d="M8.24,23.33c-.05,0-.11.01-.16.04-.13.08-.22.28-.22.55,0,.33.13.73.35,1.09.19.36.49.66.76.82.24.13.46.17.57.09.13-.08.22-.27.22-.55,0-.33-.11-.72-.32-1.08-.19-.36-.49-.66-.76-.82h0c-.16-.09-.3-.13-.43-.13h0ZM9.4,26.59c-.24,0-.49-.07-.73-.22-.41-.22-.76-.6-1.03-1.06-.24-.46-.4-.96-.4-1.4,0-.5.19-.9.51-1.09.38-.2.78-.16,1.22.09h0c.41.22.76.6,1.03,1.06.24.46.4.96.4,1.4,0,.5-.19.9-.54,1.09-.13.08-.3.13-.46.13Z"/>
      <path class="cls-4" d="M33.12,24.86v1.33l-11.8,6.83v-1.34c0-.08,0-.11.05-.16l11.83-6.82c-.05.05-.05.08-.08.16Z"/>
      <path class="cls-2" d="M33.31,24.86h.14s0,0,0,0h-.14ZM33.12,26.2h.03-.03ZM21.64,31.75v.72l11.18-6.46v-.72l-11.18,6.46h0ZM21.31,33.34c-.05,0-.11-.02-.16-.04-.11-.06-.16-.16-.16-.28v-1.34c0-.13.03-.27.19-.41l11.86-6.85c.16-.08.32-.04.43.09.08.12.08.28-.03.38v1.29c0,.11-.05.22-.16.28l-11.81,6.83c-.05.03-.11.04-.16.04Z"/>
      <polygon class="cls-1" points="4.02 19.04 15.86 12.22 42.6 27.65 30.77 34.47 4.02 19.04"/>
      <path class="cls-2" d="M4.67,19.04l26.09,15.06,11.18-6.46L15.86,12.58l-11.18,6.46h0ZM30.77,34.79c-.05,0-.11-.01-.16-.04L3.89,19.32c-.11-.06-.16-.16-.16-.28s.05-.22.16-.28l11.8-6.82c.11-.06.22-.06.32,0l26.71,15.43c.11.06.16.16.16.27s-.05.22-.16.28l-11.8,6.82c-.05.03-.11.04-.16.04Z"/>
      <path class="cls-3" d="M13.24,26.74l-9.21-5.32v-2.38l26.74,15.43v2.38l-9.21-5.32c-.13-.08-.24-.02-.24.14v1.34l-7.81-4.51v-1.34c0-.16-.14-.35-.27-.43Z"/>
      <path class="cls-2" d="M21.45,31.19c.08,0,.19.02.27.08l8.72,5.04v-1.65L4.35,19.59v1.65l9.05,5.23c.24.14.41.43.41.71v1.15l7.19,4.14v-.79c0-.19.08-.35.24-.44.05-.04.14-.06.22-.06h0ZM30.77,37.18c-.05,0-.11-.02-.16-.05l-8.97-5.18v1.08c0,.11-.08.22-.16.28-.11.06-.24.06-.32,0l-7.81-4.51c-.11-.06-.16-.16-.16-.27v-1.34s-.05-.14-.08-.16h0l-9.21-5.32c-.11-.06-.16-.16-.16-.28v-2.38c0-.11.05-.22.16-.28.08-.06.22-.06.3,0l26.74,15.43c.08.06.16.16.16.27v2.38c0,.11-.08.22-.16.27-.05.03-.11.05-.16.05Z"/>
      <polygon class="cls-3" points="21.91 3.92 21.91 3.92 22.64 4.35 22.64 4.8 24.61 5.95 25.01 5.71 25.74 6.14 25.74 6.59 27.71 7.74 28.12 7.5 28.85 7.93 28.85 8.38 30.82 9.53 31.23 9.3 31.96 9.73 31.96 10.18 33.93 11.33 34.33 11.09 35.06 11.52 35.06 11.99 37.03 13.13 37.44 12.9 38.17 13.33 38.17 13.78 40.14 14.93 40.54 14.69 41.27 15.12 41.25 27.85 29.85 34.44 29.85 34.43 29.12 34 29.12 33.56 27.15 32.41 26.74 32.64 26.01 32.21 26.01 31.76 24.04 30.61 23.66 30.84 23.64 30.84 23.64 30.84 22.91 30.41 22.91 29.97 20.93 28.82 20.53 29.05 19.8 28.62 19.8 28.18 17.83 27.03 17.42 27.26 16.69 26.83 16.69 26.38 14.72 25.23 14.32 25.46 13.59 25.03 13.59 24.58 11.62 23.43 11.24 23.66 11.24 23.66 11.08 23.58 10.48 23.23 10.48 22.78 8.51 21.63 8.13 21.86 7.4 21.43 7.4 20.98 5.43 19.83 5.02 20.06 4.29 19.63 4.29 6.9 15.72 .32 16.45 .75 16.45 1.2 18.42 2.35 18.83 2.12 19.53 2.55 19.53 3 21.5 4.15 21.91 3.92 21.91 3.92"/>
      <path class="cls-2" d="M29.44,33.82l.41.25,11.1-6.4v-12.37l-.41-.24-.27.14c-.08.05-.22.06-.3,0l-1.97-1.15c-.11-.06-.16-.16-.16-.28v-.27l-.41-.24-.24.14c-.11.06-.24.06-.32,0l-1.97-1.14c-.08-.06-.16-.16-.16-.28v-.29l-.41-.24-.24.14c-.11.06-.22.06-.32,0l-1.97-1.15c-.08-.06-.16-.16-.16-.28v-.27l-.41-.25-.24.14c-.11.05-.22.06-.32,0l-1.97-1.15c-.08-.06-.16-.16-.16-.28v-.27l-.4-.25-.24.14c-.11.06-.22.06-.32,0l-1.97-1.15c-.08-.06-.16-.16-.16-.27v-.27l-.41-.24-.24.14c-.11.05-.22.05-.32,0l-1.95-1.15c-.11-.06-.16-.16-.16-.28v-.27l-.43-.25-.24.14c-.08.06-.22.06-.32,0l-1.97-1.15c-.08-.06-.14-.16-.14-.27v-.27l-.4-.25-.24.14c-.11.06-.22.06-.32,0l-1.97-1.15c-.11-.06-.16-.16-.16-.28v-.27l-.41-.25L4.62,7.08v12.36l.4.25.24-.14c.11-.06.22-.06.32,0l1.97,1.15c.08.06.13.16.13.28v.27l.43.25.24-.14c.08-.06.22-.06.3,0l1.97,1.15c.11.06.16.16.16.28v.26l.43.25.22-.13c.11-.06.22-.06.32,0l1.97,1.15c.11.06.16.16.16.27v.27l.4.24.24-.13c.11-.06.22-.06.32,0l1.97,1.15c.11.06.16.16.16.28v.27l.41.25.24-.14c.11-.06.22-.06.32,0l1.97,1.15c.08.06.16.16.16.27v.26l.41.25.24-.14c.08-.06.22-.06.3,0l2,1.15c.08.06.13.16.13.27v.26l.43.25.24-.14c.11-.06.22-.05.32,0l1.97,1.15c.08.05.16.16.16.27v.26l.41.24.24-.14c.08-.06.22-.06.32,0l1.97,1.15c.08.06.14.16.14.27l.03.27h0ZM29.85,34.76s-.08,0-.11-.02c-.03-.01-.05-.03-.08-.05l-.7-.41c-.11-.06-.16-.16-.16-.27v-.26l-1.65-.96-.24.14c-.11.06-.24.05-.32,0l-.73-.43c-.11-.05-.16-.16-.16-.27v-.26l-1.65-.97-.24.13c-.08.06-.22.06-.32,0l-.73-.43c-.11-.06-.16-.16-.16-.27v-.26l-1.65-.96-.24.13c-.11.06-.22.06-.32,0l-.73-.43c-.11-.06-.16-.16-.16-.27v-.26l-1.65-.96-.24.14c-.11.06-.22.05-.32,0l-.73-.43c-.11-.06-.16-.16-.16-.27v-.27l-1.65-.96-.24.14c-.11.05-.22.05-.32,0l-.73-.43c-.11-.06-.13-.16-.13-.27v-.27l-1.67-.96-.24.13c-.08.06-.22.06-.3,0l-.76-.43c-.08-.05-.13-.16-.13-.27v-.26l-1.67-.97-.24.14c-.08.06-.22.05-.3,0l-.73-.43c-.11-.06-.16-.16-.16-.27v-.27l-1.65-.96-.24.14c-.11.06-.22.05-.32,0l-.73-.43c-.11-.06-.16-.16-.16-.28l.03-12.72c0-.11.05-.22.13-.27L15.56.04c.08-.06.22-.06.32,0l.73.43c.08.06.16.16.16.27v.27l1.65.96.24-.14c.08-.06.22-.05.3,0l.73.43c.11.06.16.16.16.27v.27l1.65.96.24-.14c.11-.06.24-.06.32,0l.73.43c.11.06.16.16.16.27v.27l1.65.96.24-.14c.11-.06.22-.06.32,0l.73.43c.11.06.16.16.16.27v.27l1.65.96.24-.14c.11-.06.24-.06.32,0l.73.43c.11.06.16.16.16.27v.27l1.65.96.24-.14c.11-.06.22-.06.32,0l.73.43c.11.06.16.16.16.28v.26l1.65.96.24-.14c.11-.06.22-.06.32,0l.73.43c.11.06.16.16.16.27v.29l1.65.96.24-.15c.11-.05.22-.05.32,0l.73.43c.08.06.14.16.14.27v.27l1.67.96.24-.14c.11-.06.22-.06.32,0l.73.43c.08.06.14.16.14.27v12.73c0,.11-.05.22-.16.27l-11.4,6.59c-.05.03-.11.04-.16.04Z"/>
      <polygon class="cls-4" points="35.12 29.72 35.12 30.06 30.96 32.46 30.96 32.12 35.12 29.72"/>
      <path class="cls-2" d="M30.96,32.78c-.05,0-.11-.01-.16-.04-.08-.06-.16-.16-.16-.27v-.34c0-.11.08-.22.16-.27l4.16-2.4c.11-.06.24-.06.32,0,.11.06.16.16.16.28v.34c0,.11-.05.22-.16.28l-4.16,2.4c-.05.03-.11.04-.16.04Z"/>
      <polygon class="cls-4" points="30.96 32.26 34.95 29.95 35.12 30.06 30.96 32.46 30.96 32.26"/>
      <path class="cls-2" d="M30.96,32.78c-.05,0-.11-.01-.16-.04-.08-.06-.16-.16-.16-.27v-.2c0-.11.08-.22.16-.27l4-2.3c.11-.06.22-.06.32,0l.16.1c.11.06.16.16.16.28s-.05.22-.16.28l-4.16,2.4c-.05.03-.11.04-.16.04Z"/>
      <polygon class="cls-4" points="10.53 10.47 21.93 3.9 22.66 4.33 22.66 4.78 24.63 5.92 25.04 5.69 25.77 6.13 25.77 6.57 27.74 7.72 28.15 7.49 28.85 7.92 28.85 8.37 30.82 9.52 31.23 9.28 31.96 9.71 31.96 10.16 33.93 11.31 34.33 11.07 35.06 11.5 35.06 11.95 37.03 13.1 37.44 12.86 38.17 13.29 38.17 13.74 40.14 14.89 40.54 14.65 41.27 15.09 41.25 27.8 29.88 34.38 29.88 34.37 29.12 33.94 29.12 33.5 27.15 32.35 26.74 32.58 26.04 32.15 26.01 31.71 24.04 30.56 23.66 30.79 22.93 30.36 22.91 29.92 20.93 28.77 20.56 29 19.83 28.57 19.83 28.13 17.85 26.98 17.45 27.21 16.72 26.78 16.72 26.33 14.75 25.18 14.34 25.41 13.61 24.98 13.61 24.53 11.64 23.38 11.26 23.61 10.53 23.18 10.53 10.47"/>
      <path class="cls-2" d="M29.44,33.76l.43.25,11.07-6.39v-12.35l-.41-.24-.27.14c-.08.06-.22.06-.3,0l-1.97-1.15c-.11-.05-.16-.16-.16-.27v-.27l-.41-.25-.24.14c-.11.06-.22.06-.32,0l-1.97-1.14c-.11-.06-.16-.16-.16-.28v-.27l-.41-.24-.24.14c-.11.06-.22.06-.32,0l-1.97-1.15c-.08-.06-.14-.16-.14-.27v-.27l-.43-.24-.24.14c-.11.06-.22.06-.32,0l-1.97-1.14c-.08-.06-.16-.16-.16-.28l.03-.27-.43-.24-.22.14c-.11.06-.24.06-.32,0l-1.97-1.15c-.11-.06-.16-.16-.16-.27v-.27l-.4-.24-.24.14c-.11.06-.22.06-.32,0l-1.97-1.15c-.08-.06-.16-.16-.16-.27v-.27l-.41-.24-11.08,6.39v12.35l.41.24.24-.14c.08-.06.22-.05.3,0l1.97,1.15c.11.06.16.16.16.28v.27l.43.24.22-.13c.11-.06.24-.06.32,0l1.97,1.15c.08.06.16.16.16.27v.27l.41.25.24-.14c.11-.06.22-.06.32,0l1.97,1.15c.08.05.13.16.16.27v.26l.41.25.24-.14c.08-.06.22-.05.3,0l1.97,1.15c.11.06.16.16.16.27v.26l.43.25.24-.14c.08-.06.22-.06.3,0l1.97,1.14c.11.06.16.16.16.27v.26l.41.24.24-.13c.11-.06.22-.06.32,0l1.97,1.15c.11.06.16.16.16.27v.26h0ZM29.88,34.7c-.05,0-.08,0-.13-.02-.03-.01-.05-.03-.08-.05l-.7-.41c-.08-.06-.13-.16-.13-.27l-.03-.26-1.65-.97-.24.14c-.08.06-.22.06-.32,0l-.7-.43c-.11-.06-.16-.16-.16-.27v-.26l-1.67-.96-.22.13c-.11.06-.24.06-.32,0l-.73-.43c-.11-.06-.16-.16-.16-.27v-.26l-1.67-.96-.22.14c-.11.06-.22.05-.32,0l-.73-.43c-.11-.05-.16-.16-.16-.27v-.26l-1.65-.96-.24.14c-.11.06-.22.06-.32,0l-.73-.43c-.08-.06-.16-.16-.16-.27v-.26l-1.65-.96-.24.14c-.08.06-.22.06-.32,0l-.73-.43c-.08-.06-.14-.16-.14-.27v-.26l-1.67-.96-.24.14c-.08.06-.19.06-.3,0l-.73-.43c-.11-.06-.16-.16-.16-.28l.03-12.71c0-.11.05-.22.13-.28l11.4-6.57c.11-.06.22-.06.32,0l.73.43c.11.06.16.16.16.27v.27l1.65.96.24-.14c.08-.06.22-.06.32,0l.73.43c.08.06.16.16.16.27v.27l1.65.96.24-.14c.08-.06.22-.06.3,0l.73.43c.11.06.16.16.16.28v.26l1.65.96.24-.15c.11-.05.24-.05.32,0l.73.43c.11.06.16.16.16.27v.27l1.65.96.24-.14c.11-.06.22-.06.32,0l.73.43c.11.06.16.16.16.28v.27l1.65.96.24-.14c.11-.06.22-.06.32,0l.73.43c.08.06.16.16.16.27v.27l1.65.96.24-.14c.11-.06.22-.06.32,0l.73.43c.08.06.14.16.14.28v12.71c0,.11-.05.22-.16.27l-11.4,6.58s-.08.04-.13.04Z"/>
      <polygon class="cls-4" points="4.32 6.89 15.72 .32 16.45 .75 16.45 1.2 18.42 2.35 18.83 2.12 19.53 2.55 19.53 3 21.5 4.14 10.53 10.48 10.51 22.75 8.54 21.6 8.13 21.83 7.4 21.4 7.4 20.95 5.43 19.81 5.02 20.03 4.29 19.6 4.32 6.89"/>
      <path class="cls-2" d="M8.54,21.28c.05,0,.11.02.16.05l1.49.87.03-11.72c0-.11.05-.22.16-.27l10.51-6.06-1.51-.87c-.08-.06-.16-.16-.16-.27v-.27l-.41-.24-.22.13c-.11.06-.24.06-.32,0l-1.97-1.15c-.11-.05-.16-.16-.16-.27v-.27l-.41-.25L4.65,7.08l-.03,12.35.4.24.24-.14c.11-.05.24-.05.32,0l1.97,1.15c.08.06.16.16.16.28v.26l.41.25.24-.14c.05-.03.11-.04.16-.04h0ZM10.51,23.07c-.05,0-.11-.02-.16-.05l-1.81-1.05-.24.14c-.11.06-.22.05-.32,0l-.73-.43c-.08-.06-.16-.16-.16-.28v-.26l-1.65-.97-.24.14c-.08.05-.22.05-.32,0l-.73-.43c-.08-.06-.16-.16-.16-.27l.03-12.71c0-.11.05-.22.16-.28L15.56.04c.08-.06.22-.06.32,0l.73.43c.08.06.16.16.16.28v.27l1.65.96.24-.13c.08-.06.22-.06.3,0l.73.43c.11.06.16.16.16.27v.27l1.81,1.05c.11.06.16.16.16.27s-.05.22-.16.28l-10.81,6.25-.03,12.09c0,.11-.08.22-.16.28-.05.03-.11.04-.16.04Z"/>
      <polygon class="cls-3" points="29.88 21.66 41.27 15.09 41.25 27.8 29.88 34.38 29.88 21.66"/>
      <path class="cls-2" d="M30.2,21.85l-.03,11.98,10.78-6.21v-11.98l-10.75,6.21h0ZM29.88,34.7c-.05,0-.13-.02-.16-.04-.11-.06-.16-.16-.16-.28v-12.71c0-.12.05-.22.16-.28l11.4-6.58c.11-.05.22-.05.32,0,.08.05.14.16.14.28v12.71c0,.11-.05.22-.16.27l-11.4,6.58s-.08.04-.13.04Z"/>
      <path class="cls-3" d="M29.9,21.64l11.37-6.55-.73-.43-.41.24-1.97-1.15v-.45l-.73-.43-.41.24-1.97-1.15v-.45l-.73-.43-.41.23-1.97-1.14v-.45l-.73-.43-.41.23-1.97-1.14v-.45l-.7-.43-.4.23-1.97-1.15v-.45l-.73-.43-.41.23-1.97-1.15v-.45l-.73-.43-.43.25h0s-1.97-1.15-1.97-1.15v-.45l-.7-.43-.41.23-1.97-1.15v-.45l-.73-.43L4.32,6.89h0c9.62,5.56,15.94,9.19,25.58,14.74Z"/>
      <path class="cls-2" d="M4.94,6.9c4.67,2.7,8.59,4.95,12.51,7.2,3.86,2.24,7.78,4.48,12.45,7.18l10.72-6.19-.08-.06-.27.14c-.08.06-.22.06-.3,0l-1.97-1.15c-.11-.05-.16-.16-.16-.27v-.27l-.41-.25-.24.14c-.11.06-.22.06-.32,0l-1.97-1.14c-.11-.06-.16-.16-.16-.28v-.27l-.41-.24-.24.14c-.11.06-.22.06-.32,0l-1.97-1.15c-.08-.06-.14-.16-.14-.27v-.27l-.43-.25-.24.14c-.11.06-.22.06-.32,0l-1.97-1.14c-.08-.06-.16-.16-.16-.28v-.27l-.4-.24-.22.14c-.11.06-.24.06-.32,0l-1.97-1.15c-.11-.06-.16-.16-.16-.27v-.27l-.4-.24-.24.14c-.11.06-.22.06-.32,0l-1.97-1.15c-.08-.06-.16-.16-.16-.27v-.27l-.41-.24-.27.16c-.11.05-.22.06-.32,0l-1.97-1.15c-.08-.06-.16-.16-.16-.27v-.27l-.41-.24-.22.13c-.11.06-.24.06-.32,0l-1.97-1.14c-.11-.06-.16-.16-.16-.28v-.27l-.41-.25L4.94,6.9h0ZM29.9,21.95c-.05,0-.11-.02-.16-.04-4.75-2.73-8.7-5.01-12.61-7.27-4.05-2.33-8.08-4.65-12.97-7.47-.11-.06-.16-.16-.16-.28s.05-.22.16-.28L15.56.04c.08-.06.22-.06.32,0l.73.43c.08.06.16.16.16.28v.27l1.65.96.24-.13c.08-.06.22-.06.3,0l.73.43c.11.06.16.16.16.27v.27l1.65.96.27-.15c.11-.06.22-.06.32,0l.73.43c.11.06.16.16.16.27v.27l1.65.96.24-.13c.11-.06.22-.06.32,0l.73.43c.08.06.16.16.16.27v.27l1.65.96.24-.14c.08-.06.22-.06.3,0l.73.43c.11.06.16.16.16.27v.27l1.65.96.24-.15c.11-.05.24-.05.32,0l.73.43c.11.06.16.16.16.27v.27l1.65.96.24-.14c.11-.06.22-.06.32,0l.73.43c.11.06.16.16.16.28v.27l1.65.96.24-.14c.11-.06.22-.06.32,0l.73.43c.08.06.16.16.16.27v.27l1.65.96.24-.14c.11-.06.22-.06.32,0l.73.43c.08.06.14.16.14.28s-.05.22-.14.27l-11.4,6.55s-.08.04-.13.04Z"/>
      <path class="cls-2" d="M26.04,19.76c-.11,0-.22-.06-.27-.16-.08-.15-.03-.35.11-.43l11.4-6.58c.11-.06.22-.06.32,0l.73.43c.14.09.19.28.11.44-.08.15-.3.2-.43.11l-.57-.34-11.24,6.48c-.05.03-.11.04-.16.04Z"/>
      <path class="cls-2" d="M26.74,32.9c-.05,0-.11-.01-.16-.04l-.7-.43c-.11-.06-.16-.16-.16-.27v-12.71c0-.17.16-.32.32-.32h0c.19,0,.32.14.32.32l-.03,12.53.57.34c.16.09.22.29.11.44-.05.1-.16.16-.27.16Z"/>
      <path class="cls-2" d="M22.93,17.96c-.11,0-.22-.06-.27-.16-.08-.15-.03-.35.11-.44l11.4-6.58c.16-.08.35-.03.43.12.08.15.03.34-.11.43l-11.4,6.58c-.05.03-.11.04-.16.04Z"/>
      <path class="cls-2" d="M22.93,30.68h0c-.19,0-.32-.14-.32-.32l.03-12.71c0-.18.14-.32.3-.32h0c.19,0,.32.14.32.32l-.03,12.71c0,.18-.13.32-.3.32Z"/>
      <path class="cls-2" d="M19.83,16.18c-.11,0-.22-.06-.27-.16-.08-.15-.03-.34.14-.43l11.37-6.58c.16-.08.35-.04.43.12.11.15.05.35-.11.43l-11.4,6.58c-.05.03-.11.04-.16.04Z"/>
      <path class="cls-2" d="M19.83,28.89h0c-.19,0-.32-.14-.32-.32l.03-12.71c0-.18.13-.32.3-.32h0c.19,0,.32.14.32.32v12.71c0,.18-.16.32-.32.32Z"/>
      <path class="cls-2" d="M16.75,14.39c-.11,0-.22-.06-.27-.16-.11-.15-.05-.35.11-.43l11.4-6.58c.14-.09.32-.03.41.12.11.15.05.35-.11.43l-11.37,6.58c-.05.03-.11.04-.16.04Z"/>
      <path class="cls-2" d="M16.72,27.09h0c-.16,0-.32-.14-.32-.32l.03-12.71c0-.18.13-.32.32-.32h0c.16,0,.32.14.32.32l-.03,12.71c0,.18-.13.32-.32.32Z"/>
      <path class="cls-2" d="M13.64,12.59c-.11,0-.22-.06-.27-.16-.08-.15-.05-.35.11-.43l11.4-6.58c.08-.06.22-.06.32,0l.73.43c.14.09.19.29.11.44-.08.15-.3.2-.43.11l-.57-.34-11.24,6.48c-.05.03-.11.04-.16.04Z"/>
      <path class="cls-2" d="M14.34,25.73c-.05,0-.11-.01-.16-.04l-.73-.43c-.08-.06-.14-.16-.14-.27v-12.71c0-.18.14-.32.32-.32h0c.16,0,.32.14.32.32l-.03,12.53.57.34c.16.09.22.29.14.44-.08.1-.19.15-.3.15Z"/>
      <path class="cls-2" d="M29.88,21.98c-.11,0-.22-.06-.27-.16-.08-.15-.05-.35.11-.44l11.4-6.58c.16-.08.35-.03.43.12.08.15.03.34-.11.43l-11.4,6.57c-.05.03-.11.04-.16.04Z"/>
      <path class="cls-2" d="M29.88,34.69h0c-.19,0-.32-.14-.32-.32v-12.71c0-.18.16-.32.32-.32h0c.19,0,.32.14.32.32l-.03,12.71c0,.18-.13.32-.3.32Z"/>
      <path class="cls-2" d="M10.53,10.79c-.11,0-.22-.06-.27-.16-.08-.15-.03-.35.14-.44l11.37-6.57c.11-.06.22-.06.32,0l.73.43c.16.09.19.28.11.43-.08.15-.27.2-.43.11l-.57-.34-11.24,6.48c-.05.03-.11.04-.16.04Z"/>
      <path class="cls-2" d="M11.26,23.93c-.05,0-.11-.02-.16-.05l-.73-.43c-.11-.06-.16-.16-.16-.28l.03-12.71c0-.18.13-.32.3-.32h0c.19,0,.32.14.32.32v12.53l.57.34c.13.09.19.28.11.44-.05.1-.16.16-.27.16Z"/>
      <polygon class="cls-3" points="30.96 22.24 40.19 16.91 40.17 27.22 30.93 32.56 30.96 22.24"/>
      <path class="cls-2" d="M31.25,22.42v9.58l8.62-4.97v-9.58l-8.62,4.97h0ZM30.93,32.88c-.05,0-.11-.01-.16-.04-.08-.06-.16-.16-.16-.28l.03-10.32c0-.11.05-.22.16-.28l9.24-5.33c.11-.06.22-.06.32,0,.08.06.16.16.16.28l-.03,10.32c0,.11-.05.22-.16.27l-9.24,5.34c-.05.03-.11.04-.16.04Z"/>
      <path class="cls-2" d="M7.43,9.01c-.11,0-.22-.06-.3-.16-.08-.15-.03-.35.13-.43L18.67,1.84c.08-.06.22-.06.3,0l.73.43c.16.09.22.28.11.43-.08.15-.27.2-.43.11l-.57-.34-11.24,6.48c-.05.03-.08.04-.13.04Z"/>
      <path class="cls-2" d="M8.13,22.15c-.05,0-.11-.02-.16-.05l-.73-.43c-.08-.06-.16-.16-.16-.28l.03-12.71c0-.18.14-.32.32-.32h0c.16,0,.3.14.3.32v12.53l.57.34c.16.09.19.28.11.43-.05.1-.16.16-.27.16Z"/>
      <path class="cls-2" d="M4.32,7.21c-.11,0-.22-.06-.27-.16-.11-.15-.05-.35.11-.43L15.56.04c.08-.06.22-.06.32,0l.73.43c.13.09.19.28.11.44-.08.15-.3.2-.43.11l-.57-.34L4.48,7.17c-.05.03-.11.04-.16.04Z"/>
      <path class="cls-2" d="M5.02,20.35c-.05,0-.11-.01-.16-.05l-.73-.43c-.08-.06-.16-.16-.16-.27l.03-12.71c0-.17.13-.32.32-.32h0c.16,0,.32.14.32.32l-.03,12.53.57.34c.16.09.22.28.14.44-.08.1-.19.16-.3.16Z"/>
      <path class="cls-1" d="M42.76,27.68v.91c0,2.13,0-.05,0,2.09,0,.08,0,.11-.05.16l-12.02,6.93c.05-.05.08-.08.08-.16,0-2.13,0,.05,0-2.08v-.91c0-.19-.19-.54-.43-.45l12.02-6.93c.19-.12.4.26.4.45Z"/>
      <path class="cls-2" d="M31.09,36.56v.61l11.37-6.56v-2.91s-.03-.09-.05-.13l-11.45,6.61c.08.15.14.31.14.44v1.95h0ZM30.69,38.09c-.11,0-.19-.05-.27-.14-.08-.12-.05-.27.03-.38v-2.95s-.03-.1-.05-.14c-.13.02-.27-.05-.32-.18-.08-.15-.03-.33.11-.41l12.02-6.93c.13-.08.32-.09.46,0,.27.14.43.5.43.71v3.02c0,.13-.03.27-.19.41l-12.05,6.96c-.05.03-.11.04-.16.04Z"/>
    </g>
  </g>
</svg>