<?xml version="1.0" encoding="UTF-8"?>
<svg id="Layer_2" data-name="Layer 2" xmlns="http://www.w3.org/2000/svg" viewBox="0 0 28.9 47.37" fill="currentColor">
  <defs>
    <style>
      .cls-1 {
        fill: #fff;
      }

      .cls-1, .cls-2, .cls-3, .cls-4 {
        fill-rule: evenodd;
      }

      .cls-2 {
        fill: #1a87c7;
      }

      .cls-3 {
        fill: #bdedf8;
      }

      .cls-4 {
        fill: #66ceef;
      }
    </style>
  </defs>
  <g id="_Layer_" data-name="&amp;lt;Layer&amp;gt;">
    <g>
      <path class="cls-4" d="M24.92.31c.89,0,2.75,1.07,3.17,1.83.45.76.31.96.13,1.29-.52.92-2.72,5.09-3.33,5.38-1.52.72-4.77-1.37-4.04-2.97l2.88-4.99c.21-.33.31-.53,1.18-.53Z"/>
      <path class="cls-2" d="M24.92.62c-.68,0-.76.1-.89.38l-2.91,4.99c-.26.59.29,1.25.55,1.51.89.9,2.36,1.38,3.09,1.03.42-.24,2.1-3.26,2.73-4.4.21-.37.37-.68.47-.86.16-.28.21-.38-.13-.98-.37-.66-2.15-1.67-2.91-1.67h0ZM24.16,9.26c-1,0-2.17-.59-2.93-1.33-.73-.74-.94-1.55-.63-2.23l2.88-5.01c.26-.43.47-.69,1.44-.69s2.93,1.13,3.43,1.98c.5.85.39,1.17.13,1.6-.11.18-.26.48-.47.85-1.55,2.84-2.49,4.43-2.99,4.66-.26.12-.55.18-.86.18Z"/>
      <path class="cls-4" d="M12.29,21.55c1.26,0,2.75.87,3.38,1.95.31.54.34,1.02.13,1.38l-.55.94-.18.24-.26.18c-1.73.55-4.03-.78-4.43-2.55l.03-.33.1-.29.52-.94c.21-.35.65-.57,1.26-.57Z"/>
      <path class="cls-2" d="M10.69,23.65c.18.73.73,1.44,1.55,1.9.79.46,1.7.61,2.44.39l.18-.13.16-.2.52-.89c.16-.27.11-.65-.13-1.07-.55-.97-1.99-1.79-3.12-1.79-.47,0-.84.15-1,.42l-.6,1.13v.24h0ZM13.94,26.66c-.65,0-1.36-.19-2.02-.57-.97-.56-1.65-1.42-1.86-2.34v-.08l.03-.33s0-.07.03-.09l.1-.29.55-.98c.29-.47.81-.72,1.52-.72,1.36,0,2.96.92,3.64,2.1.37.62.42,1.22.13,1.68l-.52.93-.24.28s-.05.05-.08.06l-.26.18s-.05.03-.08.04c-.29.09-.6.14-.94.14Z"/>
      <path class="cls-3" d="M17.71,46.94c-2.31.21-4.43.15-6.68-.24-3.12-.56-6.26-1.71-8.54-3.97-1.83-2-1.81-3.17-1.81-5.67v-.52c.08,1.69.68,2.83,1.81,4.06,2.28,2.26,5.42,3.41,8.54,3.97,2.25.38,4.37.45,6.68.24,3.3-.35,5.63-1.08,8.52-2.74v2.13c-2.88,1.66-5.21,2.39-8.52,2.74Z"/>
      <path class="cls-2" d="M1.05,39.14c.13,1.2.52,2.11,1.68,3.38,1.91,1.92,4.72,3.22,8.36,3.88,2.2.37,4.3.44,6.6.23,3.25-.35,5.5-1.06,8.23-2.61v-1.42c-2.67,1.48-4.95,2.17-8.17,2.52-2.36.22-4.51.14-6.76-.24-3.77-.68-6.68-2.05-8.7-4.06-.52-.57-.92-1.12-1.23-1.67h0ZM15.2,47.37c-1.41,0-2.8-.12-4.22-.36-3.77-.68-6.68-2.05-8.7-4.06-1.91-2.08-1.91-3.33-1.91-5.83v-.58c0-.17.16-.3.31-.31h0c.16,0,.31.13.31.29.05,1.49.55,2.58,1.73,3.87,1.91,1.92,4.72,3.23,8.36,3.88,2.2.37,4.3.44,6.6.23,3.3-.36,5.58-1.09,8.38-2.7.08-.06.21-.06.29,0,.11.05.16.15.16.26v2.13c0,.11-.05.21-.16.27-2.86,1.66-5.19,2.41-8.62,2.78h0c-.87.08-1.7.12-2.54.12Z"/>
      <path class="cls-1" d="M25.52,42.47c-1.39.8-3.01,1.41-4.72,1.82-1.78.42-3.67.64-5.58.64h0c-1.89,0-3.8-.21-5.55-.64h-.03c-1.31-.32-2.57-.75-3.72-1.31l-1.89-1.08h0c-.94-.66-1.7-1.39-2.23-2.16h0c-.76-1.03-1.13-2.12-1.13-3.22h0c0-1.09.37-2.19,1.1-3.21h.03c.71-.99,1.76-1.92,3.14-2.72l.71-.41.63.36,1.86,1.08.68.4-.71.4c-.26.15-.5.31-.73.47-.6.44-1.1.92-1.44,1.42-.52.71-.76,1.46-.76,2.22h0c0,.76.24,1.51.76,2.22h0s.05.1.1.15c.5.63,1.18,1.22,2.07,1.73.97.56,2.07.98,3.25,1.26,1.23.29,2.54.44,3.85.44h0c1.34,0,2.65-.15,3.85-.44,1.18-.28,2.31-.7,3.25-1.26l.71-.4.68.38,1.86,1.08.66.38-.71.41Z"/>
      <path class="cls-2" d="M1,36.5v.04c0,1.05.34,2.07,1.05,3.04.52.75,1.28,1.46,2.17,2.09l1.86,1.06c1.07.52,2.3.95,3.64,1.27,1.76.42,3.59.63,5.48.63,0,0,.03,0,.03,0,1.91,0,3.75-.21,5.5-.63,1.76-.41,3.3-1.01,4.64-1.78l.24-.14-2.57-1.48-.55.31c-.97.56-2.1,1-3.33,1.29-1.23.3-2.54.45-3.9.45h-.03c-1.36,0-2.67-.15-3.93-.45-1.23-.3-2.36-.73-3.33-1.29-.89-.52-1.62-1.13-2.15-1.81l-.11-.13s-.03-.02-.03-.03c-.55-.76-.81-1.57-.81-2.4v-.04c0-.82.29-1.62.81-2.36.39-.53.89-1.03,1.54-1.49.24-.17.47-.33.73-.48l.24-.14-2.54-1.48-.55.32c-1.34.76-2.36,1.65-3.07,2.63,0,0-.03.02-.03.02-.65.95-1.02,1.95-1.02,2.98h0ZM15.22,45.24c-1.94,0-3.85-.22-5.63-.65-1.39-.33-2.65-.78-3.8-1.33l-1.89-1.09c-1-.68-1.78-1.43-2.36-2.24-.76-1.07-1.15-2.19-1.18-3.36v-.04c0-1.17.39-2.32,1.18-3.4,0,0,0-.02.03-.03.73-1.05,1.83-1.98,3.22-2.78l.71-.41c.08-.06.21-.06.29,0l3.2,1.84c.08.05.16.15.16.27s-.08.21-.16.26l-.71.41c-.26.14-.5.3-.71.45-.58.41-1.05.86-1.39,1.34-.45.65-.68,1.33-.68,2.04,0,.01,0,.03-.03.04.03.68.26,1.35.71,1.99v.02l.11.14c.47.61,1.15,1.17,1.99,1.65.92.53,1.99.94,3.17,1.23,1.21.28,2.46.43,3.75.43h.03c1.31,0,2.59-.14,3.77-.43,1.2-.28,2.28-.7,3.2-1.23l.68-.4c.11-.05.24-.05.31,0l3.17,1.83c.11.06.16.16.16.27s-.05.21-.16.27l-.68.41h0c-1.39.8-3.01,1.42-4.79,1.85-1.81.43-3.69.65-5.63.65h-.03Z"/>
      <path class="cls-3" d="M6.08,43.06v-6.32h-2.17v5.05c.68.49,1.41.91,2.17,1.27Z"/>
      <path class="cls-2" d="M4.22,41.63c.47.34,1,.65,1.55.93v-5.51h-1.55v4.58h0ZM6.08,43.36c-.05,0-.11-.01-.13-.03-.81-.38-1.57-.81-2.23-1.3-.08-.06-.13-.15-.13-.25v-5.05c0-.17.16-.31.31-.31h2.17c.16,0,.29.14.29.31v6.32c0,.1-.05.2-.13.26-.05.03-.11.05-.16.05Z"/>
      <polygon class="cls-1" points="6.08 43.06 9.27 41.21 9.14 36.82 6.08 36.74 6.08 43.06"/>
      <path class="cls-2" d="M6.37,37.05v5.47l2.59-1.49-.13-3.92-2.46-.07h0ZM6.08,43.37c-.05,0-.11-.02-.16-.04-.1-.06-.16-.16-.16-.27v-6.32c0-.08.03-.16.08-.22.08-.06.13-.11.24-.09l3.06.08c.16,0,.29.13.29.3l.16,4.39c0,.11-.08.22-.16.28l-3.2,1.85c-.05.03-.11.04-.16.04Z"/>
      <path class="cls-3" d="M13.68,23.86l-4.43-2.55c-1.02-.71-.47-2.32,0-3.2l6.68-11.57c.52-.85,1.65-2.12,2.78-1.6l4.43,2.55c-1.21-.43-2.2.67-2.78,1.6l-6.68,11.57c-.52.96-.97,2.38,0,3.2Z"/>
      <path class="cls-2" d="M18.16,5.12c-.94,0-1.83,1.4-1.96,1.58l-6.68,11.57c-.11.2-1.07,2.09-.08,2.79l3.41,1.97c-.13-.69.05-1.54.58-2.5l6.68-11.58c.58-.94,1.23-1.53,1.89-1.75l-3.43-1.98c-.13-.06-.26-.09-.39-.09h0ZM13.68,24.17c-.05,0-.11-.01-.16-.04l-4.43-2.55c-1.1-.78-.79-2.37-.11-3.61l6.68-11.58c.76-1.2,1.97-2.28,3.17-1.72l4.45,2.56c.13.08.18.25.11.4-.05.14-.21.21-.37.16-1.07-.39-1.96.75-2.41,1.47l-6.68,11.57c-.39.73-.94,2.08-.05,2.81.11.1.13.28.05.41-.08.08-.16.13-.26.13Z"/>
      <path class="cls-3" d="M7.07,33.59l-.89-.51c7.47,4.03,18.58-13.17,13.05-19.79,1.1.63,1.47,1.01,1.94,2.45,2.54,7.91-7.47,21.44-14.1,17.85Z"/>
      <path class="cls-2" d="M20.46,14.81c1.6,4.07-.52,10.16-3.98,14.4-2.17,2.65-4.58,4.26-6.81,4.67,1.99-.09,3.85-1.33,4.95-2.25,4.32-3.58,7.86-10.78,6.26-15.79-.13-.43-.26-.76-.42-1.03h0ZM9.46,34.49c-.89,0-1.76-.21-2.51-.63,0,0-.03,0-.03,0l-.89-.51c-.13-.08-.18-.27-.11-.42.08-.15.26-.2.42-.12,3.25,1.76,7.13-.9,9.67-3.99,3.83-4.69,6-11.71,2.99-15.33-.11-.11-.11-.28,0-.4.08-.12.26-.14.39-.07,1.15.68,1.6,1.12,2.07,2.62,1.7,5.24-1.96,12.74-6.45,16.45-1.91,1.59-3.83,2.4-5.55,2.4Z"/>
      <path class="cls-1" d="M21.98,10.58c1.36,1.33,2.17,3.5,2.17,6.35,0,2.48-.6,5.14-1.68,7.71-1.26,3.06-2.65,5.04-4.69,7.53-1.42,1.59-2.99,2.93-4.69,3.9-.52.31-1.05.57-1.57.78-3.3,1.36-6.6.58-8.17-1.92l3.12-1.79c1.52,1.39,3.93,1.47,6.63-.09,4.69-2.69,8.46-9.24,8.46-14.62,0-2.02-.55-3.59-1.44-4.62l1.86-3.22Z"/>
      <path class="cls-2" d="M3.8,35.02c1.55,2.17,4.56,2.79,7.62,1.53.5-.21,1.02-.46,1.55-.76,1.6-.93,3.14-2.22,4.58-3.83,2.07-2.5,3.41-4.43,4.64-7.44,1.1-2.61,1.65-5.24,1.65-7.59,0-2.5-.63-4.51-1.81-5.85l-1.55,2.68c.89,1.12,1.39,2.72,1.39,4.65,0,5.47-3.88,12.15-8.62,14.88-2.65,1.53-5.11,1.6-6.84.2l-2.62,1.52h0ZM8.33,37.82c-2.2,0-4.11-.95-5.24-2.73-.03-.07-.05-.16-.03-.24.03-.08.08-.15.13-.19l3.12-1.79c.11-.07.26-.05.34.04,1.52,1.36,3.83,1.31,6.31-.13,4.56-2.64,8.28-9.08,8.28-14.35,0-1.88-.47-3.41-1.36-4.42-.08-.1-.11-.24-.03-.36l1.86-3.22c.03-.08.11-.14.21-.15.1-.01.18.02.26.08,1.49,1.45,2.28,3.72,2.28,6.57,0,2.43-.58,5.14-1.7,7.82-1.26,3.08-2.65,5.05-4.74,7.61-1.49,1.67-3.09,3.01-4.77,3.97-.52.31-1.07.58-1.6.8-1.13.47-2.25.69-3.33.69Z"/>
      <polygon class="cls-1" points="9.77 39.42 8.91 38.91 8.57 38.7 8.25 38.47 7.94 38.22 7.65 37.94 7.39 37.64 7.13 37.31 6.89 36.96 7.78 37.48 8.02 37.82 8.28 38.15 8.54 38.45 8.83 38.73 9.14 38.98 9.46 39.22 9.77 39.42"/>
      <path class="cls-2" d="M9.77,39.73c-.05,0-.11-.01-.16-.04l-1.21-.72-.65-.51-.6-.61-.5-.71c-.11-.12-.08-.28.03-.38.08-.11.26-.13.37-.06l.89.51s.08.06.1.09l.47.66.52.55.58.45.31.19c.16.09.21.28.11.42-.05.1-.16.15-.26.15Z"/>
      <path class="cls-3" d="M11.5,36.14l-.89-.51c7.47,4.03,18.58-13.17,13.05-19.79,1.07.63,1.47,1.01,1.94,2.45,2.54,7.91-7.47,21.44-14.1,17.85Z"/>
      <path class="cls-2" d="M24.89,17.36c1.6,4.06-.52,10.16-3.98,14.4-2.17,2.65-4.58,4.26-6.81,4.67,1.99-.09,3.85-1.33,4.95-2.25,4.32-3.58,7.86-10.78,6.26-15.79-.13-.43-.26-.76-.42-1.02h0ZM13.89,37.05c-.89,0-1.76-.21-2.54-.63h0s-.89-.52-.89-.52c-.13-.08-.18-.27-.1-.42.08-.15.26-.2.42-.12,3.27,1.77,7.13-.9,9.64-3.99,3.85-4.69,6.03-11.71,3.01-15.33-.11-.12-.11-.28,0-.4.08-.12.26-.14.39-.07,1.15.67,1.6,1.12,2.07,2.62,1.7,5.24-1.96,12.74-6.45,16.45-1.91,1.59-3.83,2.4-5.55,2.4Z"/>
      <polygon class="cls-1" points="7.78 37.48 6.89 36.96 10.01 35.17 10.9 35.68 7.78 37.48"/>
      <path class="cls-2" d="M7.52,36.96l.26.16,2.49-1.44-.26-.15-2.49,1.44h0ZM7.78,37.78c-.05,0-.11-.01-.16-.04l-.89-.51c-.08-.06-.13-.16-.13-.27s.05-.21.13-.27l3.12-1.79c.08-.05.21-.05.32,0l.86.51c.1.06.16.16.16.27s-.05.21-.16.27l-3.09,1.79c-.05.03-.11.04-.16.04Z"/>
      <polygon class="cls-1" points="24.52 16.36 23.66 15.84 25.52 12.62 26.38 13.13 24.52 16.36"/>
      <path class="cls-2" d="M24.08,15.73l.34.2,1.55-2.69-.34-.2-1.55,2.69h0ZM24.52,16.66c-.05,0-.11-.01-.13-.04l-.89-.51c-.08-.04-.13-.11-.16-.19,0-.08,0-.16.05-.23l1.86-3.22c.03-.07.1-.12.18-.14.08-.02.16-.01.24.03l.86.51c.16.08.21.27.13.42l-1.86,3.22c-.08.1-.18.15-.29.15Z"/>
      <path class="cls-1" d="M26.38,13.13c1.39,1.33,2.2,3.5,2.2,6.35,0,2.48-.6,5.14-1.68,7.71-1.26,3.06-2.65,5.04-4.69,7.53-1.42,1.59-3.01,2.93-4.69,3.9-.52.31-1.05.57-1.57.78-3.27,1.36-6.6.58-8.17-1.92l3.12-1.79c1.52,1.39,3.93,1.47,6.63-.09,4.66-2.69,8.44-9.24,8.44-14.62,0-2.02-.52-3.59-1.44-4.62l1.86-3.22Z"/>
      <path class="cls-2" d="M8.23,37.58c1.55,2.17,4.58,2.79,7.62,1.53.5-.21,1.02-.47,1.55-.76,1.6-.93,3.14-2.22,4.58-3.83,2.04-2.5,3.41-4.43,4.64-7.44,1.07-2.61,1.65-5.23,1.65-7.59,0-2.5-.63-4.51-1.81-5.84l-1.55,2.68c.89,1.12,1.36,2.72,1.36,4.65,0,5.47-3.85,12.15-8.59,14.88-2.65,1.53-5.11,1.6-6.84.2l-2.62,1.52h0ZM12.76,40.37c-2.2,0-4.11-.95-5.24-2.73-.03-.07-.05-.16-.03-.24.03-.08.05-.15.13-.19l3.12-1.79c.1-.07.26-.05.34.04,1.52,1.36,3.83,1.31,6.31-.13,4.56-2.64,8.28-9.08,8.28-14.35,0-1.88-.47-3.41-1.36-4.42-.11-.1-.11-.24-.05-.36l1.86-3.22c.05-.08.13-.14.23-.15.11-.01.18.02.26.08,1.49,1.45,2.28,3.72,2.28,6.57,0,2.43-.6,5.14-1.7,7.82-1.26,3.08-2.65,5.05-4.74,7.61-1.49,1.68-3.09,3.01-4.77,3.97-.52.31-1.07.58-1.6.8-1.15.47-2.28.69-3.33.69Z"/>
      <polygon class="cls-4" points="20.44 34.25 10.79 28.67 .31 34.71 9.98 40.3 20.44 34.25"/>
      <path class="cls-2" d="M.92,34.71l9.06,5.23,9.85-5.69-9.04-5.22L.92,34.71h0ZM9.98,40.61c-.05,0-.1-.02-.16-.04L.16,34.98c-.11-.06-.16-.16-.16-.27s.05-.21.16-.27l10.48-6.04c.08-.05.21-.05.29,0l9.67,5.58c.1.06.16.16.16.26,0,.11-.05.21-.16.27l-10.45,6.05c-.05.03-.1.04-.16.04Z"/>
      <polygon class="cls-4" points="9.98 40.3 .31 34.71 .31 35.7 9.98 41.28 9.98 40.3"/>
      <path class="cls-2" d="M.6,35.52l9.06,5.23v-.27L.6,35.25v.27h0ZM9.98,41.59c-.05,0-.1-.01-.16-.04L.16,35.96c-.11-.05-.16-.16-.16-.26v-.98c0-.11.05-.21.16-.27.08-.05.21-.05.31,0l9.67,5.58c.08.06.16.16.16.27v.98c0,.11-.08.21-.16.26-.05.03-.1.04-.16.04Z"/>
      <polygon class="cls-4" points="9.98 41.28 20.44 35.23 20.44 34.25 9.98 40.3 9.98 41.28"/>
      <path class="cls-2" d="M10.3,40.48v.27l9.85-5.69v-.27l-9.85,5.69h0ZM9.98,41.59c-.05,0-.1-.01-.16-.04-.1-.06-.16-.16-.16-.26v-.98c0-.11.05-.21.16-.27l10.48-6.04c.08-.06.21-.06.29,0,.1.06.16.16.16.26v.98c0,.11-.05.21-.16.27l-10.45,6.04c-.05.03-.1.04-.16.04Z"/>
      <path class="cls-1" d="M13.55,20.56l6.68-11.57c.76-1.32,2.02-2.04,2.78-1.6.39.23,2.75,1.58,3.12,1.81.76.44.76,1.88,0,3.2l-6.68,11.57c-.76,1.32-1.99,2.04-2.75,1.6-.84-.48-2.31-1.32-3.14-1.81-.76-.44-.76-1.88,0-3.2Z"/>
      <path class="cls-2" d="M13.81,20.72c-.65,1.14-.71,2.43-.1,2.78l3.12,1.8c.6.35,1.7-.35,2.36-1.49l6.68-11.57c.34-.59.52-1.22.52-1.77,0-.48-.16-.85-.42-1l-3.12-1.8c-.6-.35-1.7.35-2.36,1.48l-6.68,11.57h0ZM17.19,26c-.23,0-.45-.05-.65-.17l-3.14-1.81c-.92-.53-.97-2.12-.11-3.62h0l6.68-11.57c.86-1.5,2.28-2.25,3.2-1.71l3.12,1.81c.47.27.73.81.73,1.53,0,.66-.21,1.4-.63,2.08l-6.65,11.57c-.68,1.17-1.7,1.88-2.54,1.88Z"/>
      <path class="cls-4" d="M27.01,12.06c-1.15-.66-2.23-1.47-3.8.68-.76,1.02-1.55,3.19-.31,4.03l1.05.6c-1.86-1.53.81-6.16,3.07-5.32Z"/>
      <path class="cls-2" d="M25.23,11.65c-.52,0-1.07.32-1.76,1.27-.55.72-1.02,1.94-.89,2.8.05.36.21.62.5.8h0c-.21-.89.08-1.97.58-2.85.5-.86,1.26-1.64,2.12-1.91-.18-.07-.37-.11-.55-.11h0ZM23.95,17.69c-.05,0-.1-.02-.16-.04l-1.05-.6c-.42-.29-.66-.7-.76-1.22-.18-1.09.39-2.46,1-3.27,1.65-2.25,2.88-1.52,3.98-.88l.21.11c.13.08.18.25.13.4-.08.14-.26.21-.39.15-1-.37-2.12.58-2.73,1.63-.6,1.05-.86,2.48-.05,3.16.13.1.16.28.05.41-.05.09-.16.13-.24.13Z"/>
      <path class="cls-4" d="M25.47,17.23c1.21-.69,2.17-2.38,2.17-3.76s-.97-1.95-2.17-1.26c-1.2.69-2.17,2.38-2.17,3.76s.97,1.95,2.17,1.25Z"/>
      <path class="cls-2" d="M26.44,12.22c-.24,0-.52.08-.81.25-1.1.64-2.02,2.21-2.02,3.49,0,.55.18.96.47,1.14.31.18.76.13,1.23-.15,1.13-.64,2.02-2.21,2.02-3.49,0-.56-.16-.96-.47-1.14-.13-.07-.26-.11-.42-.11h0ZM25.47,17.23h.03-.03ZM24.5,17.83c-.26,0-.5-.06-.71-.19-.52-.3-.79-.89-.79-1.67,0-1.51,1.02-3.27,2.31-4.03.68-.39,1.34-.45,1.86-.15.5.29.79.89.79,1.67,0,1.51-1.02,3.27-2.33,4.03h0c-.39.23-.76.34-1.13.34Z"/>
    </g>
  </g>
</svg>