<?xml version="1.0" encoding="UTF-8"?>
<svg id="Layer_2" data-name="Layer 2" xmlns="http://www.w3.org/2000/svg" viewBox="0 0 40.28 40.28" fill="currentColor">
  <defs>
    <style>
      .cls-1 {
        fill: #fff;
      }

      .cls-1, .cls-2, .cls-3, .cls-4 {
        fill-rule: evenodd;
      }

      .cls-2 {
        fill: #1a87c7;
      }

      .cls-3 {
        fill: #bdedf8;
      }

      .cls-4 {
        fill: #66ceef;
      }
    </style>
  </defs>
  <g id="_Layer_" data-name="&amp;lt;Layer&amp;gt;">
    <g>
      <path class="cls-4" d="M12.55,1.81c-2.42,1.01-4.61,2.48-6.44,4.31-1.83,1.83-3.3,4.02-4.3,6.44-.97,2.33-1.5,4.89-1.5,7.59s.53,5.25,1.5,7.59c1,2.41,2.48,4.61,4.3,6.43,1.83,1.84,4.02,3.31,6.44,4.31,2.34.97,4.9,1.5,7.59,1.5s5.26-.54,7.59-1.5c2.42-1,4.61-2.48,6.44-4.31,1.83-1.83,3.3-4.02,4.31-6.43.96-2.34,1.5-4.9,1.5-7.59s-.54-5.26-1.5-7.59c-1.01-2.42-2.48-4.61-4.31-6.44-1.83-1.83-4.02-3.3-6.44-4.31-2.33-.97-4.89-1.5-7.59-1.5s-5.25.54-7.59,1.5Z"/>
      <path class="cls-2" d="M12.55,1.81h.01-.01ZM20.14.61c-2.58,0-5.1.5-7.47,1.48h0c-2.38.98-4.51,2.41-6.34,4.24-1.83,1.83-3.26,3.96-4.25,6.34-.97,2.36-1.48,4.88-1.48,7.47s.5,5.1,1.48,7.46c.99,2.37,2.41,4.51,4.24,6.34,1.83,1.83,3.97,3.26,6.35,4.25,2.36.97,4.88,1.47,7.47,1.47s5.1-.5,7.47-1.48c2.37-.98,4.5-2.41,6.34-4.24,1.83-1.83,3.26-3.96,4.24-6.34.98-2.36,1.48-4.88,1.48-7.46s-.5-5.11-1.48-7.47c-.98-2.37-2.41-4.5-4.24-6.34-1.83-1.83-3.96-3.26-6.34-4.24-2.37-.98-4.89-1.48-7.47-1.48h0ZM20.14,40.28c-2.67,0-5.26-.51-7.7-1.52-2.45-1.02-4.65-2.49-6.54-4.38-1.89-1.89-3.35-4.09-4.37-6.54-1.01-2.44-1.52-5.03-1.52-7.7s.51-5.27,1.52-7.71c1.02-2.45,2.49-4.65,4.37-6.54,1.89-1.89,4.1-3.36,6.54-4.38h0c2.44-1.01,5.03-1.52,7.7-1.52s5.27.51,7.71,1.52c2.45,1.02,4.65,2.49,6.54,4.38,1.89,1.89,3.36,4.08,4.38,6.54,1.01,2.44,1.52,5.03,1.52,7.71s-.51,5.26-1.52,7.7c-1.02,2.45-2.49,4.65-4.38,6.54-1.89,1.9-4.08,3.36-6.54,4.38-2.44,1.01-5.04,1.52-7.71,1.52Z"/>
      <path class="cls-3" d="M27.31,38.65c.14-.06.28-.12.42-.18,2.42-1,4.61-2.48,6.44-4.31,1.83-1.83,3.3-4.02,4.31-6.43.96-2.34,1.5-4.9,1.5-7.59s-.54-5.26-1.5-7.59c-1.01-2.42-2.48-4.61-4.31-6.44-1.83-1.83-4.02-3.3-6.44-4.31-.24-.1-.49-.2-.73-.29,2.82,3.85,4.72,10.82,4.72,18.79s-1.76,14.41-4.41,18.34Z"/>
      <path class="cls-2" d="M27.81,2.18c2.65,4.16,4.21,10.84,4.21,18.13s-1.46,13.48-3.94,17.68c2.19-.97,4.16-2.33,5.87-4.04,1.83-1.83,3.26-3.96,4.24-6.34.98-2.36,1.48-4.88,1.48-7.46s-.5-5.11-1.48-7.47c-.98-2.37-2.41-4.5-4.24-6.34-1.78-1.78-3.84-3.17-6.14-4.16h0ZM27.31,38.96c-.09,0-.18-.04-.24-.11-.09-.1-.09-.25-.02-.37,2.73-4.03,4.36-10.83,4.36-18.16s-1.78-14.7-4.66-18.61c-.08-.11-.08-.26,0-.37.09-.11.23-.16.36-.1.25.09.5.19.75.29,2.45,1.02,4.65,2.49,6.54,4.38,1.89,1.89,3.36,4.08,4.38,6.54,1.01,2.44,1.52,5.03,1.52,7.71s-.51,5.26-1.52,7.7c-1.02,2.45-2.49,4.65-4.38,6.54-1.89,1.9-4.08,3.36-6.54,4.38-.15.06-.29.11-.42.17-.04.01-.08.02-.12.02Z"/>
      <path class="cls-1" d="M29.31,34.71c5.97-2.66,10.14-8.64,10.14-15.6,0-7.48-4.82-13.84-11.52-16.14,2.3,4.02,3.78,10.29,3.78,17.34,0,5.51-.91,10.54-2.41,14.4Z"/>
      <path class="cls-2" d="M28.59,3.54c2.18,4.23,3.43,10.28,3.43,16.77,0,5.02-.76,9.89-2.16,13.8,5.66-2.83,9.27-8.63,9.27-15,0-6.89-4.2-13.04-10.54-15.57h0ZM29.31,35.02c-.08,0-.15-.03-.21-.08-.09-.09-.12-.23-.08-.34,1.54-3.96,2.38-9.03,2.38-14.29,0-6.77-1.37-13.04-3.74-17.18-.06-.11-.05-.25.02-.36.09-.1.22-.13.34-.09,7.01,2.41,11.72,9,11.72,16.43,0,6.86-4.05,13.09-10.32,15.88-.04.02-.09.03-.13.03Z"/>
      <path class="cls-4" d="M22.02,13.86c1.98,0,3.59-1.61,3.59-3.58s-1.61-3.59-3.59-3.59-3.58,1.61-3.58,3.59,1.61,3.58,3.58,3.58Z"/>
      <path class="cls-2" d="M22.02,7c-1.81,0-3.27,1.47-3.27,3.28s1.47,3.28,3.27,3.28,3.28-1.47,3.28-3.28-1.47-3.28-3.28-3.28h0ZM22.02,14.17c-2.15,0-3.89-1.74-3.89-3.89s1.75-3.89,3.89-3.89,3.9,1.75,3.9,3.89-1.75,3.89-3.9,3.89Z"/>
      <path class="cls-4" d="M29.13,19.56c1.46.18,2.47,1.78,2.24,3.57-.22,1.79-1.58,3.09-3.04,2.91-1.46-.18-2.46-1.77-2.24-3.56.23-1.79,1.58-3.09,3.04-2.91Z"/>
      <path class="cls-2" d="M28.86,19.86c-.53,0-1.06.22-1.5.64-.52.5-.86,1.22-.96,2.01-.1.8.06,1.57.45,2.18.37.6.91.96,1.53,1.04.6.07,1.23-.15,1.73-.64.52-.5.87-1.22.96-2.01.2-1.62-.69-3.06-1.97-3.22h0c-.08,0-.16-.02-.24-.02h0ZM28.61,26.36c-.1,0-.21-.01-.31-.02-.8-.1-1.5-.57-1.97-1.32-.46-.73-.65-1.65-.54-2.58.11-.94.52-1.78,1.15-2.38.64-.61,1.43-.9,2.24-.8h0c1.62.21,2.75,1.96,2.5,3.91-.11.93-.52,1.77-1.15,2.37-.56.54-1.23.82-1.92.82Z"/>
      <path class="cls-3" d="M30.92,8.57c.41-.18.97.15,1.24.75.28.6.17,1.23-.24,1.43-.41.19-.96-.15-1.24-.75-.27-.6-.17-1.23.24-1.43Z"/>
      <path class="cls-2" d="M31.05,8.85c-.22.11-.31.55-.09,1.02.22.47.61.69.82.59.22-.1.31-.55.1-1.02-.11-.24-.27-.43-.45-.53-.09-.05-.25-.13-.38-.07h0ZM31.68,11.11c-.49,0-1-.37-1.28-.98-.35-.76-.18-1.57.39-1.83h0c.29-.13.64-.09.96.1.29.17.54.45.69.8.36.76.18,1.57-.39,1.83-.12.06-.25.09-.38.09Z"/>
      <path class="cls-4" d="M4.81,21.39c1.08,0,1.96-1.17,1.96-2.61s-.88-2.61-1.96-2.61-1.95,1.17-1.95,2.61.88,2.61,1.95,2.61Z"/>
      <path class="cls-2" d="M4.81,16.49c-.9,0-1.65,1.02-1.65,2.29s.75,2.3,1.65,2.3,1.65-1.03,1.65-2.3-.74-2.29-1.65-2.29h0ZM4.81,21.7c-1.25,0-2.26-1.32-2.26-2.92s1.01-2.91,2.26-2.91,2.26,1.3,2.26,2.91-1.01,2.92-2.26,2.92Z"/>
      <path class="cls-4" d="M13.18,34.21c.74-.74.54-2.13-.43-3.1-.98-.97-2.37-1.17-3.1-.43-.74.74-.54,2.12.44,3.1.97.97,2.36,1.16,3.1.42Z"/>
      <path class="cls-2" d="M10.8,30.53c-.37,0-.7.12-.95.36-.29.29-.41.71-.34,1.2.07.52.35,1.04.77,1.46.42.42.95.7,1.47.77.49.07.91-.05,1.2-.34h0c.62-.62.42-1.82-.43-2.67-.52-.51-1.16-.79-1.72-.79h0ZM12.02,34.97c-.11,0-.23,0-.35-.03-.65-.09-1.29-.43-1.82-.94-.52-.52-.86-1.17-.95-1.82-.09-.69.09-1.29.51-1.72.85-.86,2.43-.67,3.54.42,1.09,1.09,1.29,2.68.43,3.54h0c-.36.35-.83.54-1.37.54Z"/>
      <path class="cls-4" d="M15.76,24.57c1.44,0,2.62-1.18,2.62-2.63s-1.18-2.63-2.62-2.63-2.64,1.18-2.64,2.63,1.18,2.63,2.64,2.63Z"/>
      <path class="cls-2" d="M15.76,19.62c-1.29,0-2.33,1.04-2.33,2.32s1.05,2.33,2.33,2.33,2.32-1.04,2.32-2.33-1.04-2.32-2.32-2.32h0ZM15.76,24.88c-1.63,0-2.95-1.32-2.95-2.95s1.32-2.94,2.95-2.94,2.94,1.32,2.94,2.94-1.32,2.95-2.94,2.95Z"/>
      <path class="cls-3" d="M33.13,29.41c-.39-.22-.95.06-1.25.61-.31.56-.24,1.17.15,1.39.38.21.95-.06,1.25-.62.3-.55.23-1.17-.15-1.38Z"/>
      <path class="cls-2" d="M32.84,29.65c-.21,0-.5.18-.69.52-.12.21-.17.44-.15.64,0,.09.04.25.17.33.09.05.2.04.27,0,.22-.06.43-.25.57-.5.14-.25.19-.53.13-.75-.02-.07-.07-.17-.15-.22h0s-.1-.03-.15-.03h0ZM32.31,31.79c-.16,0-.3-.04-.43-.1-.28-.16-.45-.44-.5-.81-.04-.32.04-.68.22-1,.39-.71,1.13-1.03,1.67-.73h0c.22.12.37.32.45.59.11.37.04.81-.18,1.22-.22.4-.55.69-.93.79-.1.03-.21.04-.3.04Z"/>
      <path class="cls-4" d="M12.62,5.74c-.6-.48-1.56-.29-2.16.45-.59.73-.58,1.71,0,2.2.6.49,1.57.29,2.16-.44.59-.73.59-1.71,0-2.2Z"/>
      <path class="cls-2" d="M11.85,5.79c-.08,0-.17,0-.24.03-.34.07-.66.27-.9.57-.24.3-.37.65-.37,1,0,.32.12.59.34.76.46.38,1.23.2,1.72-.39.48-.6.5-1.39.03-1.77h0c-.16-.13-.36-.2-.58-.2h0ZM11.26,8.96c-.36,0-.69-.11-.97-.33-.36-.3-.56-.74-.56-1.25,0-.49.18-.98.51-1.38.33-.41.77-.69,1.25-.79.5-.1.97,0,1.33.3h0c.73.59.76,1.77.06,2.62-.43.54-1.04.83-1.62.83Z"/>
      <path class="cls-3" d="M35.7,13.98c.82-.15,1.63.55,1.82,1.55.18,1.01-.33,1.95-1.16,2.1-.81.15-1.63-.54-1.82-1.55-.18-1.01.33-1.94,1.15-2.1Z"/>
      <path class="cls-2" d="M35.76,14.29c-.3.05-.57.26-.74.58-.18.33-.24.75-.17,1.16.08.41.28.77.57,1.03.28.22.59.33.89.27.3-.05.57-.26.74-.57.18-.33.24-.75.16-1.16-.15-.84-.81-1.42-1.46-1.3h0ZM36.14,17.95c-.39,0-.78-.15-1.12-.43-.39-.34-.67-.84-.77-1.39-.1-.56-.02-1.11.23-1.56.26-.48.68-.79,1.17-.89h0c.98-.17,1.96.63,2.18,1.8.11.55.02,1.11-.24,1.56-.26.48-.68.79-1.17.89-.09.02-.19.02-.29.02Z"/>
      <path class="cls-4" d="M25.58,33.76c.28.58-.18,1.38-1.03,1.8-.84.41-1.77.27-2.04-.3-.28-.58.17-1.38,1.03-1.8.85-.41,1.77-.28,2.05.3Z"/>
      <path class="cls-2" d="M24.52,33.52c-.27,0-.57.08-.85.21-.36.17-.64.43-.81.71-.08.14-.2.42-.08.67.2.42.95.5,1.63.17.69-.33,1.08-.96.89-1.38-.12-.25-.42-.33-.58-.36-.06-.01-.13-.02-.2-.02h0ZM23.56,36.1c-.6,0-1.11-.25-1.34-.72-.18-.38-.15-.82.09-1.24.22-.39.61-.74,1.08-.97.46-.23.96-.31,1.41-.24.49.07.86.32,1.04.7.36.74-.15,1.71-1.17,2.2-.38.19-.76.27-1.12.27Z"/>
      <path class="cls-2" d="M22.38,2.36C13.14,2.36,5.63,9.87,5.63,19.11s7.51,16.76,16.75,16.76,16.76-7.52,16.76-16.76S31.62,2.36,22.38,2.36h0ZM22.38,36.49c-9.58,0-17.36-7.8-17.36-17.37S12.8,1.74,22.38,1.74s17.38,7.8,17.38,17.38-7.79,17.37-17.38,17.37Z"/>
    </g>
  </g>
</svg>