<?xml version="1.0" encoding="UTF-8"?>
<svg id="Layer_2" data-name="Layer 2" xmlns="http://www.w3.org/2000/svg" viewBox="0 0 15.39 45.29" fill="currentColor">
  <defs>
    <style>
      .cls-1 {
        fill: #fff;
      }

      .cls-1, .cls-2, .cls-3, .cls-4 {
        fill-rule: evenodd;
      }

      .cls-2 {
        fill: #1a87c7;
      }

      .cls-3 {
        fill: #bdedf8;
      }

      .cls-4 {
        fill: #66ceef;
      }
    </style>
  </defs>
  <g id="_Layer_" data-name="&amp;lt;Layer&amp;gt;">
    <g>
      <path class="cls-3" d="M9.18,14.26l-.86-.49c-.21,0-.21.19-.26.36-.29,1.3-.34,2.76-.42,4.08-.13,2.35-.21,4.68-.26,7.03-.03,2.64-.05,5.29-.05,7.94,0,1.95.03,3.9.05,5.86.05,1.45.08,2.9.24,4.35.05.36.1.78.39,1.06l.84.49c-.34-.35-.37-1.03-.42-1.5-.13-1.65-.18-3.3-.21-4.95-.03-1.61-.05-3.21-.05-4.81,0-2.65.03-5.29.08-7.94.05-2.35.13-4.68.24-7.02.08-1.34.16-2.77.42-4.08.08-.17.08-.36.29-.36Z"/>
      <path class="cls-2" d="M8.19,44.19h.03c-.05-.21-.08-.44-.11-.63v-.11c-.13-1.69-.18-3.36-.21-4.99-.03-1.6-.03-3.2-.05-4.81,0-2.63.03-5.31.08-7.94.05-2.72.13-4.96.24-7.04l.05-.47c.05-1.22.13-2.48.39-3.66l.03-.11s.03-.08.05-.12l-.31-.17-.03.08c-.24,1.1-.31,2.36-.39,3.56l-.03.43c-.11,2.05-.16,4.28-.24,7.01-.05,2.62-.05,5.29-.05,7.94,0,1.95.03,3.9.05,5.85v.35c.03,1.3.08,2.66.21,3.97.08.35.13.66.29.85h0ZM8.84,45.24c-.05,0-.1-.01-.16-.05l-.84-.49s-.05-.03-.08-.05c-.31-.33-.39-.79-.45-1.16,0,0-.03-.07-.03-.08-.13-1.34-.18-2.7-.21-4.02l-.03-.35c-.03-1.95-.05-3.91-.05-5.86,0-2.66.03-5.33.08-7.95.05-2.75.13-4.98.24-7.04l.03-.44c.08-1.24.16-2.51.39-3.69l.03-.12c.05-.14.16-.48.55-.5.05,0,.1.02.16.04l.86.5c.11.07.16.21.13.34-.03.12-.1.2-.24.23v.06l-.05.11c-.21,1.09-.29,2.34-.37,3.53l-.03.47c-.11,2.07-.18,4.3-.24,7.01-.05,2.63-.08,5.3-.08,7.94,0,1.6.03,3.2.05,4.8.03,1.61.05,3.28.18,4.94l.03.11c.03.41.1.96.34,1.21.11.11.11.28.03.4-.08.08-.16.12-.26.12Z"/>
      <path class="cls-3" d="M13.01,11.52c.31-.03.68-.66,1-.9.24-.13.42-.21.65-.11l-2.17-1.25c-.37-.15-.71.11-.94.36-.16.2-.42.63-.71.65l2.17,1.25h0ZM6.43,38l-2.18-1.26c-.71-.44-.86-.65-1.36-1.31-.73-1.29-1.13-2.33-1.54-3.75-.31-1.11-.55-2.15-.73-3.28-.03-.5.16-.83.47-1.2.42-.38.76-.68,1.13-1.11l-1.7-.98c-.13-.14-.16-.24-.18-.43-.03-1.29,0-2.53.05-3.83C.72,14.53,2.13,7.1,5.88,1.85c1.07-1.31,1.96-2,3.49-1.23l1.7.99c-1.39-.7-2.2-.21-3.17.83-1,1.21-1.55,2.34-2.15,3.75-.73,1.85-1.26,3.59-1.73,5.51-.81,3.5-1.28,6.81-1.49,10.4-.03,1.13-.05,2.23-.03,3.36l1.89,1.1c.31.31.21.41,0,.78-.39.47-.86.81-1.26,1.25-.24.36-.34.62-.34,1.04.18,1.14.42,2.18.73,3.3.34,1.13.66,2.02,1.18,3.08.52.89.86,1.42,1.73,1.98h0Z"/>
      <path class="cls-2" d="M11.43,10.25l1.6.93c.11-.08.24-.25.34-.37.16-.17.29-.33.45-.44l-1.49-.86c-.05-.02-.24-.03-.55.32l-.08.09c-.08.1-.18.23-.26.33h0ZM13.01,11.82c-.05,0-.11,0-.16-.03l-2.18-1.26c-.1-.06-.18-.2-.16-.33.05-.13.16-.23.29-.24.1,0,.31-.3.42-.41l.08-.13c.18-.18.68-.69,1.31-.45l2.2,1.27c.16.09.21.26.13.4-.08.15-.24.22-.39.15-.11-.04-.18-.03-.39.09-.08.06-.18.2-.31.34-.26.3-.5.58-.81.61h-.03ZM8.19.61c-.73,0-1.31.52-2.07,1.44C2.19,7.55.98,15.33.67,20.87c-.05,1.3-.05,2.55-.03,3.8q0,.15.08.21l1.65.95c.08.04.13.12.16.22.03.09,0,.18-.08.25-.31.36-.6.64-.92.92l-.21.21c-.26.3-.42.55-.39.96.16.97.37,1.95.71,3.22.45,1.41.81,2.42,1.55,3.67.45.6.58.79,1.23,1.21l.29.17c-.08-.15-.18-.3-.26-.47-.58-1.17-.89-2.11-1.23-3.15-.34-1.31-.58-2.3-.73-3.33,0-.55.13-.86.42-1.27.21-.26.45-.47.66-.68.21-.19.42-.38.6-.61l.03-.04c.03-.07.08-.17.08-.19h0s0-.03-.05-.09l-1.86-1.07c-.11-.06-.16-.16-.16-.26-.03-1.26.03-2.47.05-3.39.21-3.67.65-6.99,1.47-10.45.52-2.15,1.07-3.86,1.76-5.56.65-1.54,1.23-2.65,2.2-3.83.6-.64,1.15-1.08,1.78-1.23l-.24-.13c-.37-.2-.71-.29-1.02-.29h0ZM6.43,38.31c.1,0,.21-.05.26-.15.08-.14.03-.33-.11-.42-.81-.53-1.13-1.02-1.62-1.84-.52-1.12-.84-2.02-1.15-3.04-.34-1.27-.55-2.24-.71-3.22-.03-.35.08-.54.26-.84.18-.21.39-.4.6-.6.21-.2.45-.41.71-.71l.05-.1c.18-.36.29-.63-.13-1.04-.03-.02-.03-.03-.05-.05l-1.76-1.01c0-1.17.03-2.3.05-3.16.21-3.63.68-6.92,1.47-10.34.52-2.11,1.05-3.8,1.7-5.47.65-1.51,1.21-2.55,2.1-3.66.97-1.01,1.62-1.38,2.8-.77.16.08.34.02.42-.13.08-.14.03-.32-.1-.41l-1.7-1c-1.83-.94-2.93.13-3.88,1.32C1.61,7.31.38,15.21.06,20.85c-.05,1.31-.08,2.57-.05,3.86.03.23.08.43.37.67l1.36.79c-.21.22-.39.4-.63.6l-.26.23c-.34.41-.55.81-.52,1.44.16,1.03.37,2.05.71,3.34.47,1.47.84,2.51,1.62,3.83.52.7.71.93,1.44,1.4l2.17,1.25c.05.03.1.05.16.05Z"/>
      <path class="cls-4" d="M8.05,37.88c-3.17,1.84-4.95-5.95-5.27-8.23-.05-.42.21-.99.63-1.33,1.89-1.56,1.31-2-.45-1.9-.29.02-.47-.16-.47-.5C2.19,15.96,5.25,3.8,8.89,1.57c2.02-1.09,3.83,1.04,5.03,4.88.05.17.03.36-.03.59-1.41,4.62-1.18,5.11-.26,3.94.24-.31.52-.5.79-.52.26-.03.42.12.47.41.55,3.8.47,22.8-5.16,26.06l-1.68.96Z"/>
      <path class="cls-2" d="M3.42,26.1c.84,0,1.28.17,1.44.55.18.47-.18,1.04-1.23,1.9-.34.27-.58.75-.52,1.06.29,2.15,1.55,7.16,3.41,8.09.47.22.92.19,1.42-.1l1.65-.96c5.37-3.1,5.58-21.72,5-25.74-.03-.16-.08-.15-.13-.15-.18.02-.39.18-.58.41-.31.39-.66.8-1.02.62-.37-.19-.52-.65.73-4.84.05-.16.08-.3.03-.4-.81-2.64-1.89-4.35-3.04-4.82-.5-.21-1-.17-1.52.11C5.59,3.95,2.5,15.88,2.81,25.92c0,.11.03.17.05.18,0,.02.05.02.08.02.16,0,.32-.02.47-.02h0ZM8.05,37.88h.03-.03ZM7.11,38.47c-.29,0-.58-.08-.86-.22-2.28-1.13-3.51-6.7-3.77-8.56-.05-.53.26-1.21.76-1.62,1.1-.9,1.05-1.2,1.05-1.2,0,0-.16-.21-1.31-.14-.18.02-.39-.05-.52-.18-.1-.09-.24-.28-.26-.61C1.87,15.54,5.04,3.57,8.74,1.31c.71-.38,1.39-.43,2.07-.16,1.7.7,2.78,3.22,3.41,5.22.08.23.05.48-.03.76-.73,2.41-.94,3.44-.97,3.88.05-.06.11-.13.16-.23.31-.37.65-.6,1-.63.45-.03.76.23.81.67.45,3.06.71,22.9-5.29,26.36l-1.68.97h0c-.37.21-.73.32-1.1.32Z"/>
      <path class="cls-1" d="M9.08,44.95c.21-.12.42-.61.58-1.43.58-3.22.44-30.15-.58-29.27-1.02.3-1.15,27.37-.58,29.93.16.64.37.89.58.76Z"/>
      <path class="cls-2" d="M9.1,15.09c-.65,4.09-.94,26.21-.29,29.02.05.28.13.43.18.5.08-.14.24-.47.34-1.15.63-3.45.39-24.34-.24-28.38h0ZM9.08,44.95h.03-.03ZM8.97,45.29c-.05,0-.13-.02-.18-.04-.26-.11-.45-.43-.58-1-.31-1.39-.39-9.22-.34-15.88.18-13.36.76-14.25,1.07-14.38.11-.07.26-.07.37,0,1.34.76.97,27.81.63,29.6-.16.9-.39,1.46-.71,1.64-.08.05-.16.07-.26.07Z"/>
    </g>
  </g>
</svg>