<?xml version="1.0" encoding="UTF-8"?>
<svg id="Layer_2" data-name="Layer 2" xmlns="http://www.w3.org/2000/svg" viewBox="0 0 59.63 82.43" fill="currentColor">
  <defs>
    <style>
      .cls-1 {
        fill: #fff;
      }

      .cls-1, .cls-2, .cls-3, .cls-4 {
        fill-rule: evenodd;
      }

      .cls-2 {
        fill: #1a87c7;
      }

      .cls-3 {
        fill: #bdedf8;
      }

      .cls-4 {
        fill: #66ceef;
      }
    </style>
  </defs>
  <g id="_Layer_" data-name="&amp;lt;Layer&amp;gt;">
    <g>
      <path class="cls-1" d="M30.22,81.82c1.51,0,3.02-.35,4.17-1.01,1.16-.67,1.74-1.54,1.74-2.4s-.58-1.76-1.74-2.42c-1.15-.66-2.66-.99-4.17-.99s-3.01.33-4.16.99c-1.16.66-1.74,1.55-1.74,2.42s.58,1.73,1.74,2.4c1.15.66,2.66,1.01,4.16,1.01Z"/>
      <path class="cls-2" d="M30.22,75.61c-1.46,0-2.83.34-3.86.92-.9.52-1.4,1.2-1.4,1.88s.5,1.34,1.4,1.88c2.05,1.16,5.69,1.16,7.74,0,.9-.54,1.4-1.2,1.4-1.88s-.5-1.36-1.4-1.88c-1.03-.59-2.4-.92-3.88-.92h0ZM30.22,82.43h0c-1.67,0-3.27-.38-4.47-1.08-1.32-.76-2.03-1.81-2.03-2.93s.71-2.19,2.03-2.94c2.41-1.41,6.54-1.41,8.95,0,1.32.75,2.03,1.79,2.03,2.94s-.71,2.17-2.03,2.93c-1.2.7-2.8,1.08-4.48,1.08Z"/>
      <path class="cls-4" d="M34.4,80.78c.85-.51,1.7-1.29,1.74-2.33v-30.51c-.13,1.9-2.49,2.85-4.09,3.14-2.15.4-5.16.09-6.81-1.42-.51-.47-.85-1.03-.91-1.72v30.51c.05,1.37,1.49,2.31,2.66,2.77,2.26.85,5.28.74,7.4-.43Z"/>
      <path class="cls-2" d="M34.4,80.78h.02-.02ZM24.96,50.23v28.21c.03.99,1.18,1.78,2.24,2.19,2.17.82,5.01.67,6.91-.4.52-.31,1.39-.96,1.4-1.81v-28.18c-.89.75-2.15,1.22-3.34,1.45-2.21.41-5.35.12-7.21-1.46h0ZM30.22,82.39c-1.18,0-2.38-.2-3.46-.61-.7-.28-2.99-1.28-3.04-3.32v-30.52c0-.35.26-.61.59-.62.35-.04.62.24.65.57.02.49.24.91.7,1.32,1.44,1.34,4.25,1.66,6.27,1.27,1.28-.23,3.49-1.04,3.58-2.59.02-.31.3-.57.63-.57h.02c.33.02.59.28.59.62v30.51c-.04,1.1-.75,2.11-2.03,2.86h0c-1.29.73-2.87,1.09-4.48,1.09Z"/>
      <path class="cls-1" d="M34.64,46.17l4.89.43,10.58.94,6.69-3.86c.75-.43,1.65-.76,2.09-1.91.47-1.25-.47-1.98-.9-2.6l-2.97-4.24-15.47-1.37c.07,1.1-.02,2.3-.26,3.55-.66,3.2-2.36,6.52-4.64,9.08Z"/>
      <path class="cls-2" d="M35.87,45.66l14.1,1.25,6.88-3.96c.63-.35,1.16-.64,1.46-1.39.23-.64-.05-1.06-.54-1.67-.11-.12-.21-.26-.29-.38l-2.82-4-14.48-1.28c0,.94-.09,1.94-.31,2.99-.59,2.94-2.03,5.96-4,8.45h0ZM50.11,48.16h-.05l-15.47-1.39c-.23-.02-.44-.17-.52-.38-.08-.23-.04-.47.12-.65,2.21-2.47,3.84-5.68,4.48-8.78.24-1.2.33-2.35.24-3.39,0-.17.06-.35.19-.49.12-.13.33-.19.49-.17l15.47,1.39c.18.02.35.12.46.26l2.97,4.22c.07.11.16.21.24.33.49.59,1.24,1.51.73,2.87-.45,1.18-1.32,1.66-2.03,2.04l-.31.19-6.71,3.86c-.08.05-.19.08-.29.08Z"/>
      <path class="cls-3" d="M31.13,47.74c1.15.44,1.93.25,3.02-.24,2.23-1.22,3.58-3.08,4.61-5.37.78-2.12,1.44-5.33-.87-6.73l-4.8-2.76.38-.3c2.19-1.46,4.26-2.42,6.85-1.4l-7.88-4.57c-3.61-1.41-6.88,1.11-9.3,3.58-1.88,2.17-3,4.05-4.05,6.62-.82,2.38-1.17,3.98-1.01,6.45.31,2.12.82,3.48,2.7,4.61l7.89,4.57c-2.66-1.62-2.97-4.48-2.62-7.37l5.07,2.92Z"/>
      <path class="cls-2" d="M30.34,26.56c-2.03,0-4.24,1.23-6.76,3.82-1.79,2.09-2.91,3.89-3.91,6.42-.74,2.21-1.11,3.77-.98,6.18.3,1.93.73,3.12,2.4,4.12l4.8,2.78c-.56-1.38-.71-3.08-.45-5.13.02-.21.14-.38.33-.47.19-.11.4-.08.57.02l5.06,2.89c.91.32,1.48.19,2.5-.25,1.85-1.03,3.18-2.59,4.28-5.08.62-1.67,1.39-4.73-.62-5.94l-4.78-2.77c-.17-.11-.29-.28-.31-.49,0-.21.08-.4.24-.52l.38-.3c1.29-.85,2.69-1.69,4.33-1.91l-5.28-3.06c-.59-.23-1.18-.33-1.79-.33h0ZM28.67,52.82c-.12,0-.23-.04-.31-.08l-7.89-4.57c-2.07-1.25-2.66-2.8-2.99-5.06-.17-2.68.21-4.36,1.04-6.73,1.08-2.71,2.24-4.61,4.16-6.83,2.33-2.4,5.89-5.36,9.98-3.75l7.98,4.61c.28.16.38.5.24.8-.14.3-.47.42-.77.31-2.12-.82-3.8-.25-5.89,1.06l3.96,2.3c2.07,1.25,2.47,3.91,1.15,7.48-1.22,2.75-2.76,4.54-4.88,5.7-1.3.57-2.23.78-3.53.28-.04-.02-.07-.03-.09-.05l-4.26-2.43c-.17,2.87.61,4.74,2.42,5.84.29.18.38.54.21.83-.12.19-.31.31-.52.31Z"/>
      <path class="cls-1" d="M29.7,42.86c.33-1.61,1.13-3.35,2.33-4.83,1.18-1.48,2.54-2.42,3.77-2.75,1.22-.33,2.33-.05,3,.94.7.98.84,2.45.51,4.07-.33,1.6-1.13,3.34-2.31,4.82l-.05.07c-1.18,1.45-2.52,2.37-3.74,2.7-2.64.71-4.22-1.55-3.51-5.01h0ZM26.23,43.78c-1.08,5.18.89,9.04,4.59,8.92,4.53-.14,10.53-6.28,11.97-13.35.58-2.78.33-5.33-.85-7.02-1.18-1.69-3.1-2.18-5.22-1.6-4.57,1.22-9.28,7.07-10.5,13.05h0Z"/>
      <path class="cls-2" d="M29.7,42.86h.02-.02ZM36.74,35.77c-.28,0-.56.03-.78.11-1.15.29-2.4,1.23-3.46,2.54-1.1,1.36-1.86,2.99-2.19,4.57h0c-.35,1.72-.1,3.19.66,3.9.52.49,1.24.62,2.09.38,1.15-.3,2.35-1.18,3.41-2.49,1.15-1.41,1.93-3.02,2.24-4.62.31-1.48.17-2.78-.4-3.58-.43-.63-1.01-.8-1.56-.8h0ZM32.29,48.61c-.84,0-1.58-.29-2.16-.83-1.11-1.04-1.48-2.87-1.04-5.04h0c.37-1.79,1.24-3.6,2.45-5.09,1.23-1.53,2.68-2.59,4.08-2.97,1.55-.4,2.89.03,3.69,1.18.76,1.1.97,2.71.61,4.55-.37,1.78-1.24,3.58-2.45,5.08-1.27,1.57-2.71,2.61-4.08,2.98-.38.1-.75.15-1.1.15h0ZM26.23,43.78h.02-.02ZM38.34,31.11c-.45,0-.94.07-1.46.21-4.36,1.16-8.87,6.81-10.04,12.58h0c-.61,2.9-.23,5.42,1.01,6.9.75.87,1.76,1.33,2.94,1.29,4.09-.14,9.96-5.79,11.42-12.86.56-2.73.28-5.06-.76-6.55-.73-1.02-1.81-1.56-3.1-1.56h0ZM30.64,53.33c-1.49,0-2.78-.59-3.74-1.72-1.49-1.77-1.97-4.67-1.28-7.94h0c1.27-6.19,6.19-12.26,10.95-13.54,2.43-.64,4.59.02,5.87,1.85,1.23,1.76,1.58,4.42.96,7.49-1.45,7.07-7.44,13.68-12.57,13.84-.07.02-.12.02-.19.02Z"/>
      <path class="cls-3" d="M31.82,2.05l-2.33-1.36c-.29-.16-.56-.05-.83.11-.55.33-.82.75-1.06,1.34l-3.84,9.89v20.64l2.33,1.34V13.36l3.85-9.89c.2-.52.43-.89.89-1.24.31-.19.65-.38,1.01-.19Z"/>
      <path class="cls-2" d="M24.38,32.29l1.09.64V13.36c0-.07.02-.14.04-.21l3.84-9.89c.23-.54.47-.99.94-1.39l-1.1-.65s-.07.02-.24.11c-.35.21-.56.49-.79,1.03l-3.79,9.78v20.15h0ZM26.09,34.62c-.11,0-.21-.04-.29-.09l-2.33-1.34c-.19-.13-.31-.31-.31-.54V12.02c0-.07.02-.16.04-.23l3.84-9.89c.25-.57.56-1.18,1.3-1.63.3-.16.83-.46,1.46-.13l2.35,1.36c.29.17.4.54.23.83-.16.3-.52.4-.83.25,0,0-.07-.04-.37.17-.3.21-.47.45-.66.95l-3.79,9.77v20.51c0,.23-.12.43-.31.53-.09.05-.19.09-.31.09Z"/>
      <path class="cls-1" d="M35.89,28.35V7.71l-3.87-5.49c-.49-.7-1.58.02-2.09,1.25l-3.85,9.89v20.63c.21-.26.4-.54.61-.8l.04-.04c2.05-2.52,4.36-4.13,6.48-4.71.94-.25,1.86-.29,2.68-.11Z"/>
      <path class="cls-2" d="M26.71,13.49v18.75c1.97-2.27,4.19-3.8,6.35-4.38.76-.2,1.51-.28,2.21-.23V7.92l-3.76-5.33c-.12-.04-.69.33-1.01,1.13l-3.79,9.77h0ZM26.09,34.62c-.05,0-.12-.02-.19-.04-.24-.08-.42-.31-.42-.59V13.36c0-.07.02-.14.04-.23l3.84-9.87c.41-1.06,1.23-1.82,2-1.91.47-.07.91.13,1.17.52l3.88,5.49c.07.11.1.22.1.35v20.63c0,.19-.08.37-.23.49-.16.11-.35.16-.52.12-.71-.17-1.51-.14-2.38.1-2.09.56-4.26,2.16-6.15,4.48-.25.29-.43.56-.63.82-.12.16-.31.26-.5.26Z"/>
      <path class="cls-3" d="M3.26,72.22l3.7-9.56,15.47-19.24-2.33-1.36-15.47,19.26-3.86,9.95c-.17.5-.31,1.22.19,1.57l2.33,1.35c-.35-.24-.4-.62-.33-1.02.03-.33.17-.63.29-.94Z"/>
      <path class="cls-2" d="M5.17,61.63l-3.82,9.86c-.1.31-.19.73-.04.83l1.06.61c.05-.29.16-.55.26-.8l.62.08-.57-.22,3.7-9.56c.02-.05.05-.1.09-.16l15.04-18.69-1.25-.73-15.09,18.78h0ZM3.3,74.79c-.1,0-.21-.02-.31-.08l-2.31-1.34c-.42-.28-.97-.92-.47-2.32l3.86-9.96c.02-.05.05-.12.11-.16l15.47-19.26c.19-.23.52-.3.79-.14l2.33,1.34c.16.09.26.25.3.42.03.17-.02.37-.13.51l-15.42,19.17-3.67,9.45-.05.16c-.1.25-.19.45-.21.68-.05.31.04.38.07.4.28.19.35.57.17.85-.13.18-.31.28-.52.28Z"/>
      <path class="cls-1" d="M22.4,43.47l-15.44,19.19-3.7,9.53c-.14.38-.33.78-.33,1.22,0,.23.07.44.17.59.16.22.38.29.61.26.26-.05.62-.28.86-.42l7.29-4.21,10.39-12.93,4.51-5.62-1.67-.97c-1.18-.71-1.61-1.24-2.21-2.56-.5-1.46-.61-2.55-.49-4.09Z"/>
      <path class="cls-2" d="M7.5,62.98l-3.72,9.59c-.12.3-.23.57-.23.83,0,.14.03.21.05.25.12-.02.4-.19.54-.28l7.32-4.23,14.38-17.88-1.06-.61c-1.28-.76-1.8-1.37-2.47-2.84-.31-.94-.49-1.72-.53-2.59l-14.27,17.75h0ZM3.59,74.88c-.4,0-.74-.19-.99-.54-.19-.26-.28-.57-.28-.94,0-.49.17-.92.31-1.28l3.75-9.68c.02-.05.05-.1.09-.16l15.44-19.21c.17-.21.45-.28.71-.17.25.08.4.35.38.61-.11,1.53.02,2.54.45,3.86.54,1.16.91,1.6,1.95,2.22l1.67.96c.16.11.26.24.3.43.03.17-.02.35-.12.49l-14.9,18.54c-.05.05-.1.11-.17.14l-7.3,4.21c-.38.24-.73.45-1.08.5-.07,0-.14.02-.21.02Z"/>
      <path class="cls-4" d="M29.54,44.22l7.04,4.07c-3.17-1.9,1.13-9.76,4.59-8.42l-6.83-3.95c-.78.48-1.58,1.2-2.33,2.1-1.18,1.48-1.99,3.22-2.32,4.83-.08.47-.16.92-.16,1.36Z"/>
      <path class="cls-2" d="M30.17,43.87l4.71,2.73c-.12-1.05.12-2.32.78-3.65.76-1.58,2.03-3.01,3.43-3.58l-4.73-2.73c-.64.45-1.28,1.06-1.86,1.77-1.1,1.36-1.88,2.99-2.19,4.57-.07.3-.1.59-.14.89h0ZM36.59,48.9c-.11,0-.21-.02-.31-.09l-7.04-4.07c-.21-.11-.31-.31-.31-.54.02-.47.07-.98.17-1.46.37-1.77,1.24-3.58,2.45-5.09.77-.95,1.6-1.7,2.47-2.24.19-.12.43-.12.64-.02l6.83,3.95c.28.16.38.5.25.8-.14.3-.47.44-.76.31-1.49-.57-3.27,1.15-4.21,3.05-.78,1.61-1.04,3.56.14,4.25.28.18.38.56.2.85-.1.19-.31.3-.52.3Z"/>
      <path class="cls-1" d="M35.61,44.95c-.22,1.09-.14,2.09.32,2.77l.02.02c.47.66,1.22.85,2.05.63.83-.21,1.74-.85,2.55-1.83l.02-.03c.81-1.01,1.36-2.21,1.58-3.31.22-1.1.14-2.1-.33-2.76-.47-.68-1.22-.87-2.07-.64-.84.22-1.76.87-2.57,1.88-.8,1.01-1.36,2.19-1.57,3.29Z"/>
      <path class="cls-2" d="M35.61,44.95h.02-.02ZM40.41,40.31c-.16,0-.31.03-.49.07-.75.21-1.56.82-2.26,1.67-.73.91-1.24,1.99-1.46,3.03h0c-.19.95-.11,1.79.22,2.29.31.43.78.57,1.41.4.73-.19,1.55-.78,2.23-1.63.74-.92,1.27-2,1.48-3.06.2-.95.12-1.79-.23-2.29-.23-.31-.52-.47-.91-.47h0ZM37.35,49.07c-.78,0-1.46-.35-1.91-.99-.56-.82-.7-1.95-.43-3.25.25-1.23.85-2.5,1.7-3.55.87-1.07,1.9-1.82,2.89-2.09,1.13-.31,2.12.02,2.73.87.56.79.71,1.95.43,3.25-.26,1.25-.85,2.5-1.7,3.56-.89,1.09-1.91,1.81-2.89,2.09-.28.07-.55.11-.82.11Z"/>
    </g>
  </g>
</svg>