<?xml version="1.0" encoding="UTF-8"?>
<svg id="Layer_2" data-name="Layer 2" xmlns="http://www.w3.org/2000/svg" viewBox="0 0 34.68 41" fill="currentColor">
  <defs>
    <style>
      .cls-1 {
        fill: #fff;
      }

      .cls-1, .cls-2, .cls-3, .cls-4 {
        fill-rule: evenodd;
      }

      .cls-2 {
        fill: #1a87c7;
      }

      .cls-3 {
        fill: #bdedf8;
      }

      .cls-4 {
        fill: #66ceef;
      }
    </style>
  </defs>
  <g id="_Layer_" data-name="&amp;lt;Layer&amp;gt;">
    <g>
      <path class="cls-4" d="M30.13,4.19C24.48.93,21.44-1.92,14.08,2.75,2.09,10.38-4.57,31.28,4.57,36.81l5.04,2.91c-8.21-5.21-3.03-19.95,2.15-26.97C15.51,7.66,23.36.65,30.13,4.19Z"/>
      <path class="cls-2" d="M20.95.61c-1.87,0-3.98.68-6.7,2.4C6.63,7.85.51,18.95.62,27.76c.03,2.89.77,6.76,4.12,8.79l2.48,1.43c-.97-1.22-1.63-2.72-1.96-4.49-1.22-6.51,2.23-15.45,6.25-20.92,3.19-4.32,9.74-10.5,16.03-9.54-2.31-1.37-4.28-2.41-6.6-2.41h0ZM9.61,40.03c-.05,0-.1-.02-.15-.04l-5.03-2.91C1.58,35.36.05,32.13,0,27.77-.1,18.62,6.02,7.52,13.92,2.49c6.76-4.3,10.1-2.3,14.71.45.53.32,1.08.65,1.66.98.14.08.19.27.12.41-.08.15-.27.2-.42.13-6.68-3.5-14.44,3.68-17.97,8.47-3.85,5.23-7.32,14.18-6.14,20.44.5,2.71,1.82,4.76,3.91,6.08.14.09.18.28.1.42-.05.09-.16.15-.26.15Z"/>
      <path class="cls-3" d="M19.87,36.28c-3.42,1.98-6.53,2.17-8.77.87-2.25-1.3-3.63-4.08-3.63-8.03s1.38-8.34,3.63-12.22c2.24-3.89,5.34-7.28,8.77-9.26,3.42-1.98,6.53-2.16,8.77-.87,2.25,1.3,3.63,4.08,3.63,8.03s-1.38,8.34-3.63,12.23c-2.24,3.89-5.34,7.28-8.77,9.26h0ZM19.87,5.21c-8.01,4.63-14.51,15.87-14.51,25.12s6.49,13,14.51,8.37c8.01-4.62,14.51-15.87,14.51-25.12S27.89.59,19.87,5.21h0Z"/>
      <path class="cls-2" d="M19.87,36.28h0,0ZM25.41,6.24c-1.64,0-3.48.56-5.38,1.66-3.27,1.89-6.35,5.14-8.67,9.15-2.31,4.01-3.59,8.3-3.59,12.07s1.23,6.47,3.48,7.77c2.25,1.3,5.25.99,8.47-.87,3.27-1.89,6.35-5.14,8.67-9.15,2.31-4.01,3.59-8.3,3.59-12.07s-1.23-6.47-3.48-7.77c-.91-.53-1.95-.79-3.09-.79h0ZM14.33,38.29c-1.23,0-2.37-.29-3.38-.87-2.44-1.41-3.79-4.36-3.79-8.3s1.3-8.28,3.68-12.38c2.37-4.11,5.53-7.43,8.88-9.37,3.42-1.97,6.64-2.28,9.08-.87s3.79,4.36,3.79,8.3-1.3,8.28-3.68,12.38c-2.37,4.1-5.53,7.43-8.88,9.37h0c-2.01,1.16-3.95,1.74-5.7,1.74h0ZM26.35,3.53c-1.93,0-4.09.65-6.32,1.94-7.92,4.57-14.35,15.72-14.35,24.86,0,4.36,1.45,7.6,4.09,9.12,2.63,1.52,6.17,1.16,9.94-1.02,7.92-4.57,14.35-15.72,14.35-24.86,0-4.36-1.45-7.6-4.09-9.12-1.08-.62-2.3-.93-3.62-.93h0ZM13.4,41c-1.44,0-2.76-.33-3.94-1.01-2.84-1.64-4.4-5.07-4.4-9.66,0-9.34,6.57-20.72,14.65-25.39,3.97-2.29,7.73-2.65,10.57-1.01,2.83,1.64,4.4,5.07,4.4,9.65,0,9.33-6.57,20.72-14.65,25.39-2.34,1.35-4.6,2.03-6.63,2.03Z"/>
      <path class="cls-3" d="M19.87,5.21c-8.01,4.63-14.51,15.87-14.51,25.12s6.49,13,14.51,8.37c8.01-4.62,14.51-15.87,14.51-25.12S27.89.59,19.87,5.21Z"/>
      <path class="cls-2" d="M19.87,5.21h0,0ZM26.35,3.53c-1.93,0-4.09.65-6.32,1.94h0c-7.92,4.57-14.35,15.72-14.35,24.86,0,4.36,1.45,7.6,4.09,9.12,2.63,1.52,6.17,1.16,9.94-1.02,7.92-4.57,14.35-15.72,14.35-24.86,0-4.36-1.45-7.6-4.09-9.12-1.08-.62-2.3-.93-3.62-.93h0ZM13.4,41c-1.44,0-2.76-.33-3.94-1.01-2.84-1.64-4.4-5.07-4.4-9.66,0-9.34,6.57-20.72,14.65-25.39,3.97-2.29,7.73-2.65,10.57-1.01,2.83,1.64,4.4,5.07,4.4,9.65,0,9.33-6.57,20.72-14.65,25.39-2.34,1.35-4.6,2.03-6.63,2.03Z"/>
      <path class="cls-1" d="M18.87,35.88c3.42-1.98,6.53-5.37,8.78-9.26,2.24-3.89,3.63-8.27,3.63-12.23s-1.39-6.74-3.63-8.03c-2.24-1.3-5.35-1.11-8.78.87-3.43,1.98-6.53,5.37-8.77,9.26-2.24,3.89-3.63,8.27-3.63,12.23s1.39,6.74,3.63,8.03c2.24,1.3,5.34,1.11,8.77-.87Z"/>
      <path class="cls-2" d="M18.87,35.88h0,0ZM24.42,5.84c-1.64,0-3.48.56-5.39,1.66-3.27,1.89-6.35,5.14-8.66,9.15-2.32,4.01-3.59,8.3-3.59,12.07s1.23,6.47,3.48,7.77c2.24,1.3,5.25.99,8.46-.87h0c3.27-1.89,6.35-5.14,8.66-9.15,2.31-4.01,3.59-8.3,3.59-12.07s-1.23-6.47-3.47-7.77c-.91-.53-1.95-.79-3.08-.79h0ZM13.33,37.89c-1.23,0-2.38-.29-3.39-.87-2.44-1.41-3.78-4.36-3.78-8.3s1.3-8.28,3.67-12.38c2.37-4.11,5.53-7.43,8.89-9.37,3.41-1.97,6.64-2.28,9.08-.87,2.44,1.41,3.79,4.36,3.79,8.3s-1.3,8.28-3.68,12.38c-2.37,4.1-5.52,7.43-8.88,9.37h0c-2,1.16-3.94,1.74-5.69,1.74Z"/>
      <path class="cls-3" d="M19.87,36.28c-3.42,1.98-6.53,2.17-8.77.87-2.25-1.3-3.63-4.08-3.63-8.03s1.38-8.34,3.63-12.22c2.24-3.89,5.34-7.28,8.77-9.26,3.42-1.98,6.53-2.16,8.77-.87,2.25,1.3,3.63,4.08,3.63,8.03s-1.38,8.34-3.63,12.23c-2.24,3.89-5.34,7.28-8.77,9.26h0ZM19.87,5.21c-8.01,4.63-14.51,15.87-14.51,25.12s6.49,13,14.51,8.37c8.01-4.62,14.51-15.87,14.51-25.12S27.89.59,19.87,5.21h0Z"/>
      <path class="cls-2" d="M19.87,36.28h0,0ZM25.41,6.24c-1.64,0-3.48.56-5.38,1.66-3.27,1.89-6.35,5.14-8.67,9.15-2.31,4.01-3.59,8.3-3.59,12.07s1.23,6.47,3.48,7.77c2.25,1.3,5.25.99,8.47-.87,3.27-1.89,6.35-5.14,8.67-9.15,2.31-4.01,3.59-8.3,3.59-12.07s-1.23-6.47-3.48-7.77c-.91-.53-1.95-.79-3.09-.79h0ZM14.33,38.29c-1.23,0-2.37-.29-3.38-.87-2.44-1.41-3.79-4.36-3.79-8.3s1.3-8.28,3.68-12.38c2.37-4.11,5.53-7.43,8.88-9.37,3.42-1.97,6.64-2.28,9.08-.87s3.79,4.36,3.79,8.3-1.3,8.28-3.68,12.38c-2.37,4.1-5.53,7.43-8.88,9.37h0c-2.01,1.16-3.95,1.74-5.7,1.74h0ZM26.35,3.53c-1.93,0-4.09.65-6.32,1.94-7.92,4.57-14.35,15.72-14.35,24.86,0,4.36,1.45,7.6,4.09,9.12,2.63,1.52,6.17,1.16,9.94-1.02,7.92-4.57,14.35-15.72,14.35-24.86,0-4.36-1.45-7.6-4.09-9.12-1.08-.62-2.3-.93-3.62-.93h0ZM13.4,41c-1.44,0-2.76-.33-3.94-1.01-2.84-1.64-4.4-5.07-4.4-9.66,0-9.34,6.57-20.72,14.65-25.39,3.97-2.29,7.73-2.65,10.57-1.01,2.83,1.64,4.4,5.07,4.4,9.65,0,9.33-6.57,20.72-14.65,25.39-2.34,1.35-4.6,2.03-6.63,2.03Z"/>
      <path class="cls-2" d="M25.9,3.55c-.05,0-.1-.01-.16-.04l-5.03-2.9c-.15-.09-.2-.28-.11-.42.09-.15.27-.2.42-.11l5.03,2.9c.15.08.19.27.11.42-.06.1-.17.15-.27.15Z"/>
      <path class="cls-2" d="M22.5,4.25c-.06,0-.11-.01-.16-.04l-5.06-2.92c-.15-.08-.2-.27-.11-.42.08-.15.27-.2.42-.11l5.06,2.92c.15.09.2.27.11.42-.05.1-.15.15-.26.15Z"/>
      <path class="cls-2" d="M19.51,5.73c-.05,0-.1-.01-.16-.04l-4.8-2.77c-.15-.09-.2-.28-.11-.42.08-.15.27-.2.42-.11l4.81,2.77c.15.08.19.27.11.42-.06.1-.16.15-.27.15Z"/>
      <path class="cls-2" d="M16.93,7.55c-.05,0-.11-.01-.16-.04l-4.93-2.85c-.15-.08-.19-.27-.11-.42.09-.15.28-.2.42-.11l4.93,2.85c.15.08.19.27.11.42-.06.1-.17.15-.27.15Z"/>
      <path class="cls-2" d="M14.62,9.68c-.05,0-.11-.01-.15-.04l-4.99-2.88c-.15-.08-.2-.27-.11-.42.08-.15.27-.2.42-.11l4.99,2.88c.15.09.2.27.11.42-.06.1-.16.16-.27.16Z"/>
      <path class="cls-2" d="M12.77,11.76c-.05,0-.1-.01-.16-.04l-4.96-2.86c-.15-.08-.2-.27-.11-.42.09-.15.27-.2.42-.11l4.96,2.86c.15.08.2.27.11.42-.05.1-.16.15-.26.15Z"/>
      <path class="cls-2" d="M11.11,13.97c-.05,0-.11-.02-.15-.04l-4.98-2.87c-.15-.09-.19-.28-.11-.42.09-.15.28-.2.42-.11l4.97,2.87c.15.09.2.27.11.42-.05.1-.16.15-.27.15Z"/>
      <path class="cls-2" d="M9.61,16.34c-.05,0-.1-.02-.15-.04l-4.99-2.96c-.15-.09-.19-.28-.11-.42.09-.15.27-.2.42-.11l4.99,2.96c.15.09.19.28.1.42-.05.1-.16.15-.26.15Z"/>
      <path class="cls-2" d="M8.37,18.7c-.05,0-.11-.01-.16-.04l-5.01-2.89c-.15-.08-.2-.28-.11-.42.09-.15.27-.2.42-.11l5.03,2.9c.15.08.19.27.11.42-.06.1-.16.15-.27.15Z"/>
      <path class="cls-2" d="M7.28,21.24c-.05,0-.11-.02-.16-.04l-5.01-2.89c-.15-.09-.19-.27-.11-.42.09-.15.28-.2.42-.11l5.02,2.89c.15.09.19.27.11.42-.06.1-.17.15-.27.15Z"/>
      <path class="cls-2" d="M6.35,24.01c-.05,0-.11-.01-.16-.04l-5.01-2.9c-.15-.09-.2-.27-.11-.42.09-.15.28-.2.42-.11l5.02,2.9c.15.08.19.27.11.42-.06.1-.17.15-.27.15Z"/>
      <path class="cls-2" d="M5.7,26.85c-.05,0-.1-.02-.15-.04l-5.02-2.91c-.15-.08-.2-.27-.11-.42.08-.15.27-.2.42-.11l5.03,2.9c.15.09.19.27.11.42-.06.1-.17.16-.27.16Z"/>
      <path class="cls-2" d="M5.38,29.91c-.06,0-.11-.02-.16-.04L.18,26.94c-.15-.08-.2-.27-.11-.42.08-.15.27-.2.42-.12l5.05,2.92c.15.09.2.27.11.42-.05.1-.15.16-.26.16Z"/>
      <path class="cls-2" d="M5.5,33.1c-.05,0-.1-.01-.15-.04L.31,30.15c-.15-.08-.19-.27-.11-.42.09-.15.28-.2.43-.11l5.03,2.91c.15.08.2.27.12.42-.06.1-.17.16-.27.16Z"/>
      <path class="cls-2" d="M6.34,36.49c-.05,0-.11-.02-.16-.04l-4.84-2.79c-.15-.09-.2-.28-.11-.42.09-.15.28-.2.42-.12l4.85,2.8c.15.09.19.27.12.42-.06.1-.17.15-.27.15Z"/>
      <polygon class="cls-4" points="23.49 15.96 25.5 14.8 25.5 17.4 22.2 19.31 21.08 22.16 25.5 19.61 25.5 22.18 20.42 25.12 20.42 30.88 17.68 32.46 17.68 26.7 12.77 29.53 12.77 26.96 17.02 24.5 15.96 22.91 12.77 24.75 12.77 22.15 14.68 21.05 12.09 17.32 15.43 15.39 19.08 21.13 22.77 11.15 26.16 9.2 23.49 15.96"/>
      <path class="cls-2" d="M17.68,26.39c.05,0,.11.01.15.04.1.06.16.16.16.27v5.23l2.12-1.23v-5.58c0-.11.06-.21.15-.27l4.92-2.84v-1.87l-3.95,2.28c-.12.07-.25.05-.36-.03-.09-.09-.13-.22-.08-.35l1.12-2.86c.03-.07.07-.12.13-.15l3.14-1.81v-1.89l-1.53.88c-.11.07-.25.05-.36-.03-.1-.08-.13-.23-.09-.35l2.34-5.94-2.53,1.46-3.65,9.87c-.04.11-.14.19-.25.2-.12,0-.23-.04-.29-.14l-3.49-5.49-2.79,1.61,2.4,3.45c.05.07.07.16.05.24-.03.08-.08.16-.15.2l-1.76,1.01v1.89l2.72-1.57c.14-.08.32-.04.41.09l1.06,1.6c.05.07.07.16.04.24-.02.08-.07.15-.14.2l-4.1,2.36v1.86l4.44-2.56s.1-.04.16-.04h0ZM17.68,32.77c-.06,0-.11-.01-.16-.04-.09-.06-.15-.16-.15-.27v-5.23l-4.44,2.57c-.09.06-.21.06-.31,0-.09-.05-.15-.16-.15-.27v-2.58c0-.11.05-.21.15-.27l3.96-2.29-.72-1.08-2.94,1.7c-.09.06-.21.06-.31,0-.09-.05-.15-.15-.15-.26v-2.6c0-.11.05-.21.15-.26l1.62-.94-2.4-3.45c-.05-.07-.07-.16-.05-.24.03-.08.08-.16.15-.2l3.34-1.92c.14-.08.32-.04.41.1l3.32,5.21,3.48-9.4c.03-.07.08-.12.14-.16l3.38-1.95c.11-.07.25-.05.36.03.09.08.13.22.09.35l-2.34,5.94,1.23-.71c.09-.06.22-.06.31,0,.1.06.15.16.15.27v2.6c0,.11-.05.21-.15.27l-3.21,1.85-.75,1.94,3.65-2.11c.09-.06.22-.06.31,0,.1.05.15.16.15.26v2.58c0,.11-.05.21-.15.27l-4.93,2.84v5.59c0,.11-.06.21-.16.27l-2.74,1.58s-.09.04-.15.04Z"/>
    </g>
  </g>
</svg>