<?xml version="1.0" encoding="UTF-8"?>
<svg id="Layer_2" data-name="Layer 2" xmlns="http://www.w3.org/2000/svg" viewBox="0 0 34.24 43.59" fill="currentColor">
  <defs>
    <style>
      .cls-1 {
        fill: #fff;
      }

      .cls-1, .cls-2, .cls-3, .cls-4 {
        fill-rule: evenodd;
      }

      .cls-2 {
        fill: #1a87c7;
      }

      .cls-3 {
        fill: #bdedf8;
      }

      .cls-4 {
        fill: #66ceef;
      }
    </style>
  </defs>
  <g id="_Layer_" data-name="&amp;lt;Layer&amp;gt;">
    <g>
      <path class="cls-4" d="M1.96,43.14l-1.07-.62c-.5-.42-.52-.68-.6-1.32l.03-20.66c.11-1.53.79-2.67,2.04-3.54L30.84.58c.58-.27.81-.38,1.44-.14l1.07.62c-.63-.23-.86-.13-1.44.14L3.43,17.62c-1.23.86-1.91,1.98-2.04,3.55l-.03,20.66c.08.64.11.9.6,1.32Z"/>
      <path class="cls-2" d="M31.7.61c-.21,0-.39.09-.73.25L2.52,17.27c-1.18.81-1.78,1.86-1.91,3.3v20.63c.05.58.08.74.5,1.08h.03c-.03-.12-.05-.27-.05-.43v-20.68c.13-1.64.84-2.87,2.17-3.8L31.75.93c.16-.07.29-.14.42-.19l-.05-.04c-.18-.07-.31-.09-.42-.09h0ZM1.96,43.45c-.05,0-.1-.01-.13-.04l-1.1-.62c-.63-.51-.68-.87-.73-1.56v-20.68c.13-1.64.84-2.87,2.17-3.8L30.68.31c.65-.3.97-.43,1.7-.16l1.13.64c.13.08.18.25.11.4-.05.15-.24.22-.37.16-.52-.19-.65-.12-1.23.13L3.59,17.89c-1.18.81-1.78,1.87-1.89,3.3l-.03,20.63c.05.58.08.74.5,1.09.13.1.13.28.05.41-.05.09-.16.13-.26.13Z"/>
      <path class="cls-1" d="M3.59,19.18L31.75,2.93c.5-.29.92-.06.92.53v19.14c0,.58-.42,1.3-.92,1.59L3.56,40.44c-.5.29-.92.06-.92-.53v-19.14c0-.58.42-1.3.94-1.59Z"/>
      <path class="cls-2" d="M3.72,19.45c-.39.24-.76.85-.76,1.32v19.14c0,.16.03.29.11.33.08.04.21.02.34-.06l28.19-16.25c.42-.24.76-.85.76-1.32V3.46c0-.16-.03-.29-.11-.33-.08-.04-.21-.02-.34.07L3.72,19.45h0ZM3.14,40.87c-.13,0-.26-.03-.39-.1-.26-.15-.39-.47-.39-.86v-19.14c0-.69.47-1.51,1.07-1.86h0L31.6,2.66c.34-.19.68-.22.97-.06.26.16.42.47.42.86v19.14c0,.69-.5,1.51-1.1,1.86L3.72,40.71c-.18.11-.39.17-.58.17Z"/>
      <path class="cls-3" d="M3.59,19.18c-.52.29-.94,1.01-.94,1.59v19.14c0,.59.42.82.92.53l28.19-16.25c.5-.29.92-1.01.92-1.59V3.46c0-.59-.42-.83-.92-.53L3.59,19.18h0ZM3.43,17.62L31.91,1.2c1.13-.65,2.04-.12,2.04,1.18l-.03,20.66c0,1.3-.92,2.89-2.04,3.54L3.43,43c-1.13.65-2.07.12-2.07-1.18l.03-20.66c0-1.3.92-2.9,2.04-3.55h0Z"/>
      <path class="cls-2" d="M3.72,19.45c-.39.24-.76.85-.76,1.32v19.14c0,.16.03.29.11.33.08.04.21.02.34-.06l28.19-16.25c.42-.24.76-.85.76-1.32V3.46c0-.16-.03-.29-.11-.33-.08-.04-.21-.02-.34.07L3.72,19.45h0ZM3.14,40.87c-.13,0-.26-.03-.39-.1-.26-.15-.39-.47-.39-.86v-19.14c0-.69.47-1.51,1.07-1.86h0L31.6,2.66c.34-.19.68-.22.97-.06.26.16.42.47.42.86v19.14c0,.69-.5,1.51-1.1,1.86L3.72,40.71c-.18.11-.39.17-.58.17h0ZM3.59,17.89L32.04,1.46c.45-.26.86-.31,1.15-.14.29.16.45.54.45,1.06v20.66c0,1.18-.86,2.69-1.91,3.28L3.27,42.74c-.45.26-.86.31-1.15.14-.29-.17-.45-.54-.45-1.06l.03-20.66c0-1.18.84-2.69,1.89-3.28h0ZM2.52,43.59c-.26,0-.47-.06-.68-.18-.5-.28-.76-.84-.76-1.59v-20.66c0-1.4,1-3.11,2.2-3.81L31.75.93c.63-.37,1.26-.42,1.73-.14.5.28.76.85.76,1.59v20.66c0,1.4-.97,3.11-2.2,3.81L3.56,43.27c-.37.21-.73.32-1.05.32Z"/>
      <path class="cls-1" d="M17.89,33.25c-.05-.02-.08-.02-.13.02-.05.03-.11.08-.16.14-.03.06-.05.13-.05.19s.03.1.05.12c.05.02.11.02.16-.01.05-.03.08-.08.13-.14.03-.06.05-.13.05-.19s-.03-.11-.05-.13Z"/>
      <path class="cls-2" d="M17.74,33.52c.05.02.08.03.1.03,0-.03-.03-.07-.08-.09-.05-.03-.11-.03-.13-.02.03,0,.05.05.1.08h0ZM17.66,34.04c-.08,0-.13-.02-.21-.06-.13-.08-.21-.22-.21-.39,0-.12.05-.24.11-.35.08-.11.16-.2.26-.25.13-.08.31-.09.45-.01.13.08.21.22.21.39,0,.11-.05.24-.11.34-.05.11-.16.2-.24.25-.1.05-.18.07-.26.07Z"/>
      <polygon class="cls-1" points="7.34 21.25 28.19 9.21 28.19 23.58 7.34 35.62 7.34 21.25"/>
      <path class="cls-2" d="M7.65,21.43v13.66l20.23-11.68v-13.66L7.65,21.43h0ZM7.34,35.93c-.05,0-.11-.01-.16-.04-.11-.06-.16-.16-.16-.27v-14.37c0-.11.05-.21.16-.27l20.86-12.04c.08-.06.21-.06.31,0,.08.06.16.16.16.27v14.38c0,.11-.08.21-.16.26l-20.86,12.04c-.05.03-.1.04-.16.04Z"/>
      <polygon class="cls-3" points="7.34 21.25 28.19 9.21 28.19 7.14 7.34 19.18 7.34 21.25"/>
      <path class="cls-2" d="M7.65,19.36v1.36l20.23-11.68v-1.36L7.65,19.36h0ZM7.34,21.56c-.05,0-.11-.01-.16-.04-.11-.05-.16-.16-.16-.26v-2.07c0-.11.05-.21.16-.27L28.03,6.87c.08-.06.21-.06.31,0,.08.05.16.16.16.27v2.07c0,.11-.08.21-.16.27L7.49,21.51c-.05.03-.1.04-.16.04Z"/>
      <path class="cls-3" d="M12.63,21.88h0c.16-.09.29-.02.29.17h0c0,.18-.13.41-.29.5h0c-.16.09-.29.02-.29-.17h0c0-.18.13-.41.29-.5Z"/>
      <path class="cls-2" d="M12.5,22.89c-.08,0-.16-.02-.24-.06-.16-.09-.24-.25-.24-.45,0-.29.18-.62.45-.76.16-.1.37-.11.5-.02.16.09.26.25.26.45,0,.29-.21.62-.45.76-.1.05-.21.08-.29.08Z"/>
      <path class="cls-3" d="M12.63,25.05h0c.16-.1.29-.02.29.17h0c0,.18-.13.41-.29.5h0c-.16.09-.29.02-.29-.17h0c0-.18.13-.41.29-.5Z"/>
      <path class="cls-2" d="M12.5,26.07c-.08,0-.16-.02-.24-.06-.16-.09-.24-.25-.24-.45,0-.29.18-.62.45-.76h0c.16-.1.37-.11.5-.02.16.09.26.25.26.45,0,.29-.21.62-.45.76-.1.05-.21.08-.29.08Z"/>
      <path class="cls-3" d="M12.63,28.42h0c.16-.09.29-.02.29.17h0c0,.18-.13.41-.29.5h0c-.16.09-.29.02-.29-.17h0c0-.18.13-.4.29-.5Z"/>
      <path class="cls-2" d="M12.5,29.44c-.08,0-.16-.02-.24-.06-.16-.09-.24-.25-.24-.45,0-.29.18-.62.45-.76.16-.1.37-.11.5-.02.16.09.26.25.26.45,0,.29-.21.62-.45.76-.1.05-.21.08-.29.08Z"/>
      <path class="cls-2" d="M14.59,24.55c-.11,0-.21-.05-.26-.15-.08-.15-.05-.34.1-.42l8.15-4.71c.16-.09.34-.04.42.11.1.15.05.34-.11.42l-8.15,4.71c-.05.03-.1.04-.16.04Z"/>
      <path class="cls-2" d="M14.59,21.38c-.11,0-.21-.05-.26-.15-.08-.15-.05-.33.1-.42l8.15-4.71c.16-.09.34-.04.42.11.1.15.05.34-.11.42l-8.15,4.71c-.05.03-.1.04-.16.04Z"/>
      <path class="cls-2" d="M14.59,27.92c-.11,0-.21-.06-.26-.15-.08-.15-.05-.34.1-.42l6.6-3.81c.13-.09.31-.04.42.11.08.15.03.34-.13.42l-6.58,3.81c-.05.03-.1.04-.16.04Z"/>
    </g>
  </g>
</svg>