<?xml version="1.0" encoding="UTF-8"?>
<svg id="Layer_2" data-name="Layer 2" xmlns="http://www.w3.org/2000/svg" viewBox="0 0 35.41 39.74" fill="currentColor">
  <defs>
    <style>
      .cls-1 {
        fill: #fff;
      }

      .cls-1, .cls-2, .cls-3, .cls-4 {
        fill-rule: evenodd;
      }

      .cls-2 {
        fill: #1a87c7;
      }

      .cls-3 {
        fill: #bdedf8;
      }

      .cls-4 {
        fill: #66ceef;
      }
    </style>
  </defs>
  <g id="_Layer_" data-name="&amp;lt;Layer&amp;gt;">
    <g>
      <path class="cls-1" d="M9.14,18.88c-.07-.03-.15-.03-.22,0l5.5-3.18c.15-.07.29.03.4.12l6.5,6.16c.09.09.18.16.28.22l-5.5,3.17c-.11-.05-.2-.13-.28-.21l-6.31-5.99c-.1-.09-.24-.24-.36-.3Z"/>
      <path class="cls-2" d="M9.6,18.83s.05.04.07.07l6.36,6.03s.05.05.08.08l4.95-2.86-6.44-6.11c-.06-.05-.09-.06-.1-.06l-4.92,2.85h0ZM16.1,25.68c-.05,0-.11-.02-.15-.04-.12-.06-.23-.15-.34-.25l-6.37-6.05c-.05-.05-.16-.15-.21-.17h0s.03-.06.03-.06h0s-.04.05-.04.05c-.15.08-.3,0-.38-.14-.08-.14,0-.32.13-.41l5.5-3.17c.19-.1.45-.12.76.16l6.5,6.17c.08.07.15.13.22.17.09.06.15.16.15.27s-.05.21-.15.27l-5.5,3.17c-.05.03-.11.04-.16.04Z"/>
      <path class="cls-1" d="M16.1,25.38l5.5-3.18c4.37,2.52,8.74,5.05,13.11,7.57l-5.5,3.17c-4.37-2.52-8.73-5.04-13.11-7.56Z"/>
      <path class="cls-2" d="M16.72,25.38l12.49,7.2,4.88-2.81-12.49-7.22-4.88,2.82h0ZM29.2,33.25c-.05,0-.1-.02-.16-.04l-13.11-7.57c-.1-.05-.16-.16-.16-.26,0-.11.06-.22.16-.27l5.5-3.18c.09-.05.21-.05.31,0l13.11,7.57c.09.05.15.16.15.27,0,.1-.05.21-.15.27l-5.5,3.17c-.05.03-.11.04-.16.04Z"/>
      <path class="cls-3" d="M29.2,32.94l5.5-3.17c.23.15.38.41.39.68v.66l-5.5,3.17v-.65c0-.28-.16-.54-.39-.69Z"/>
      <path class="cls-2" d="M29.71,33.01c.12.17.19.39.2.6v.14l4.88-2.82v-.48c0-.11-.05-.22-.12-.3l-4.96,2.87h0ZM29.6,34.58c-.05,0-.1,0-.15-.03-.1-.06-.16-.16-.16-.27v-.65c0-.16-.1-.33-.25-.42-.09-.05-.15-.16-.14-.26,0-.11.06-.21.15-.26l5.5-3.18c.11-.05.23-.05.32.01.32.2.52.55.54.93v.67c0,.1-.06.21-.16.26l-5.5,3.18s-.1.03-.16.03Z"/>
      <path class="cls-3" d="M8.71,19.5l.11-.46c.05-.23.28-.26.5-.04l6.49,6.16c.1.09.19.16.29.22l2.67,1.54,1.35.78,9.09,5.24c.22.13.39.44.39.69v.65l-13.57-7.83c-2.43-2.32-4.88-4.63-7.32-6.94Z"/>
      <path class="cls-2" d="M9.05,19.4l7.2,6.82,13.05,7.53v-.12c0-.15-.11-.35-.24-.42l-13.11-7.57c-.12-.06-.23-.15-.34-.25l-6.49-6.17s0,0-.02,0l-.04.19h0ZM29.6,34.58c-.05,0-.1,0-.15-.03l-13.57-7.84-7.38-6.99c-.08-.07-.12-.18-.09-.29l.1-.46c.04-.2.17-.35.36-.41.22-.07.45,0,.66.21l6.5,6.16c.07.07.15.13.22.17l13.11,7.57c.31.17.55.58.55.95v.65c0,.11-.06.21-.16.27-.04.03-.1.03-.16.03Z"/>
      <path class="cls-4" d="M11.45,23.8l4.55,2.63,11.45,6.62v.41c0,.33-.12.56-.31.68-.19.12-.45.1-.75-.07l-13.9-8.03c-.57-.33-1.04-1.14-1.04-1.82v-.41Z"/>
      <path class="cls-2" d="M11.76,24.34c.05.54.43,1.17.89,1.43l13.9,8.02c.17.1.34.13.44.07.1-.05.15-.21.15-.41v-.23l-15.37-8.87h0ZM26.86,34.5c-.19,0-.41-.06-.62-.18l-13.9-8.02c-.68-.39-1.21-1.3-1.21-2.09v-.41c0-.11.06-.21.16-.27.09-.05.21-.05.3,0l16,9.24c.1.05.16.15.16.27v.41c0,.42-.17.77-.46.95-.13.07-.28.11-.43.11Z"/>
      <polygon class="cls-3" points="16.03 26.45 9.67 22.77 9.67 20.4 16.03 26.45"/>
      <path class="cls-2" d="M9.97,22.59l3.96,2.29-3.96-3.76v1.47h0ZM16.03,26.75c-.05,0-.11,0-.15-.04l-6.37-3.68c-.09-.05-.15-.15-.15-.26v-2.37c0-.12.07-.23.19-.28.11-.05.24-.03.33.06l6.37,6.04c.11.1.13.29.03.41-.06.08-.16.12-.25.12Z"/>
      <path class="cls-3" d="M8.84,1.59c-1.31.42-2.54.96-3.66,1.6-6.5,3.75-6.5,9.84,0,13.59.76.44,1.57.83,2.43,1.16L16.96,1.12l-8.12.47Z"/>
      <path class="cls-2" d="M8.9,1.89c-1.3.42-2.49.95-3.56,1.56C2.3,5.21.61,7.53.61,9.99s1.68,4.77,4.73,6.53c.66.38,1.37.73,2.14,1.04L16.42,1.46l-7.52.43h0ZM7.61,18.25s-.08-.01-.11-.02c-.89-.35-1.72-.75-2.48-1.18C1.78,15.17,0,12.67,0,9.99S1.78,4.79,5.03,2.92c1.11-.64,2.35-1.19,3.71-1.62.02,0,.05-.02.08-.02l8.12-.46c.11,0,.22.05.28.15.06.09.06.21.01.31L7.88,18.1c-.05.1-.16.16-.27.16Z"/>
      <path class="cls-4" d="M16.06,11.36v18.9c.03.19.19.3.36.37.37.15.85.14,1.2-.07.12-.08.2-.16.24-.3V11.36c-.03.1-.07.16-.15.23-.36.31-1.06.31-1.46.04-.1-.08-.17-.15-.19-.28Z"/>
      <path class="cls-2" d="M16.37,30.25s.05.04.18.1c.29.11.68.09.92-.05.08-.05.08-.08.09-.11V12.04c-.37.14-.81.14-1.19,0v18.21h0ZM16.96,31.04c-.21,0-.44-.04-.64-.12-.13-.05-.48-.21-.56-.59V11.36c-.01-.16.11-.29.27-.3.15-.02.3.09.33.24.01.02.01.04.09.09.28.18.83.18,1.07-.03t.04-.06c.04-.16.17-.27.33-.24.16.02.28.15.28.3v18.9c-.06.32-.23.47-.37.56-.24.15-.54.22-.84.22Z"/>
      <path class="cls-3" d="M17.6,10.94c-.36-.21-.93-.21-1.28,0-.36.2-.36.53,0,.74.35.2.92.2,1.28,0,.35-.21.35-.54,0-.74Z"/>
      <path class="cls-2" d="M16.96,11.1c-.17,0-.36.04-.48.11-.09.05-.11.1-.11.1s.02.05.11.11c.26.15.71.15.97,0,.09-.05.11-.1.11-.11s-.02-.05-.11-.1c-.13-.07-.3-.11-.49-.11h0ZM16.96,12.14c-.28,0-.56-.07-.79-.2-.27-.15-.42-.38-.42-.63s.15-.48.42-.63c.44-.25,1.14-.26,1.58,0,.27.16.43.38.43.63s-.16.49-.42.63c-.23.13-.51.2-.8.2Z"/>
      <path class="cls-4" d="M28.74,3.19C22.23-.57,11.69-.57,5.18,3.19c-6.5,3.75-6.5,9.84,0,13.59,6.5,3.75,17.05,3.75,23.56,0,6.51-3.75,6.5-9.84,0-13.59Z"/>
      <path class="cls-2" d="M16.96.68c-4.2,0-8.41.92-11.62,2.77C2.3,5.21.61,7.53.61,9.99s1.68,4.77,4.73,6.53c6.41,3.7,16.84,3.7,23.25,0,3.04-1.76,4.72-4.08,4.72-6.53s-1.68-4.77-4.73-6.54c-3.2-1.85-7.41-2.77-11.62-2.77h0ZM16.96,19.9c-4.32,0-8.64-.96-11.93-2.85C1.78,15.17,0,12.67,0,9.99S1.78,4.79,5.03,2.92C11.6-.88,22.31-.88,28.89,2.92h0c3.24,1.88,5.03,4.38,5.03,7.07s-1.79,5.19-5.03,7.07c-3.28,1.89-7.61,2.85-11.93,2.85Z"/>
      <path class="cls-1" d="M.88,24.02c-.07-.03-.15-.04-.23,0l5.5-3.17c.15-.07.29.02.4.12l6.5,6.16c.09.08.18.16.28.22l-5.5,3.17c-.1-.06-.2-.13-.29-.22l-6.3-5.98c-.1-.1-.24-.24-.36-.3Z"/>
      <path class="cls-2" d="M1.33,23.99s.05.05.07.06l6.36,6.04s.05.05.08.07l4.95-2.85-6.44-6.11c-.06-.06-.09-.07-.1-.07l-4.92,2.86h0ZM7.83,30.83c-.05,0-.1,0-.16-.03-.11-.07-.23-.16-.34-.26L.98,24.49c-.06-.06-.17-.16-.22-.18l.03-.06h0l-.03.06c-.16.07-.32,0-.39-.14-.08-.15-.01-.33.13-.41l5.5-3.18c.19-.09.45-.12.76.17l6.5,6.16c.08.08.15.13.21.17.1.05.16.16.16.26,0,.11-.06.22-.16.27l-5.5,3.18s-.09.03-.15.03Z"/>
      <path class="cls-1" d="M7.83,30.53l5.5-3.17c4.36,2.52,8.74,5.04,13.11,7.56l-5.5,3.18c-4.37-2.52-8.75-5.05-13.11-7.57Z"/>
      <path class="cls-2" d="M8.45,30.53l12.49,7.21,4.88-2.82-12.49-7.21-4.88,2.83h0ZM20.94,38.4c-.05,0-.11-.01-.16-.04l-13.11-7.56c-.09-.06-.15-.16-.15-.27s.06-.21.15-.27l5.5-3.17c.1-.05.21-.05.3,0l13.12,7.57c.09.05.15.16.15.26,0,.12-.05.22-.15.27l-5.5,3.17c-.05.03-.1.04-.16.04Z"/>
      <path class="cls-3" d="M20.94,38.1l5.5-3.18c.23.15.38.41.39.69v.65l-5.5,3.18v-.66c0-.27-.16-.53-.39-.68Z"/>
      <path class="cls-2" d="M21.44,38.16c.11.18.19.38.2.6v.13l4.88-2.82v-.48c0-.11-.05-.22-.12-.3l-4.96,2.87h0ZM21.33,39.74c-.05,0-.11-.02-.15-.04-.09-.05-.16-.16-.16-.26v-.66c0-.16-.11-.33-.25-.42-.09-.06-.15-.16-.14-.27,0-.1.05-.21.15-.26l5.5-3.17c.1-.06.22-.06.32,0,.32.21.52.56.54.93v.67c0,.11-.06.21-.16.27l-5.5,3.17c-.05.03-.1.04-.16.04Z"/>
      <path class="cls-3" d="M.44,24.65l.1-.46c.04-.23.28-.25.51-.04l6.49,6.16c.09.09.19.16.29.22l2.67,1.54,1.35.78,9.09,5.25c.22.12.39.42.39.68v.66l-13.57-7.84c-2.43-2.31-4.88-4.62-7.32-6.95Z"/>
      <path class="cls-2" d="M.78,24.54l7.19,6.83,13.05,7.52v-.12c0-.14-.12-.34-.24-.41l-13.11-7.57c-.11-.07-.23-.16-.34-.26L.84,24.37s-.02,0-.02-.02l-.04.19h0ZM21.33,39.74c-.05,0-.11-.02-.15-.04l-13.57-7.83L.24,24.88c-.08-.08-.11-.18-.1-.29l.1-.46c.04-.21.18-.36.36-.41.22-.07.45,0,.66.21l6.5,6.16c.07.07.15.12.21.16l13.12,7.57c.31.18.55.59.55.95v.66c0,.1-.06.21-.16.26-.05.03-.1.04-.16.04Z"/>
      <path class="cls-4" d="M3.17,28.95l4.55,2.63,11.45,6.61v.41c0,.34-.11.57-.3.68-.19.11-.45.1-.75-.07l-13.9-8.02c-.57-.34-1.05-1.16-1.05-1.83v-.4Z"/>
      <path class="cls-2" d="M3.5,29.48c.05.54.43,1.16.89,1.43l13.9,8.02c.18.11.34.13.43.08.09-.06.15-.21.15-.42v-.23L3.5,29.48h0ZM18.59,39.65c-.2,0-.41-.06-.62-.18l-13.9-8.02c-.68-.39-1.21-1.31-1.21-2.1v-.4c0-.11.06-.21.16-.27.1-.05.21-.05.31,0l16,9.24c.1.05.16.16.16.26v.41c0,.43-.17.77-.46.95-.13.08-.28.11-.43.11Z"/>
      <polygon class="cls-3" points="7.76 31.59 1.39 27.92 1.39 25.55 7.76 31.59"/>
      <path class="cls-2" d="M1.71,27.74l3.96,2.29-3.96-3.76v1.48h0ZM7.76,31.91c-.05,0-.1-.02-.15-.04l-6.37-3.68c-.09-.05-.15-.16-.15-.27v-2.36c0-.12.07-.24.18-.29.11-.05.24-.02.34.06l6.37,6.05c.12.1.13.28.04.4-.06.09-.16.13-.25.13Z"/>
      <path class="cls-3" d="M7.61,17.95c6.75,2.64,17.57,2.31,23.27-2.69L16.96,1.12,7.61,17.95Z"/>
      <path class="cls-2" d="M8.06,17.78c6.55,2.42,16.75,2.14,22.37-2.54L17.03,1.63l-8.97,16.15h0ZM17.07,19.9c-3.46,0-6.84-.59-9.57-1.66-.08-.03-.15-.1-.17-.18-.04-.09-.03-.17.02-.25L16.69.97c.05-.09.13-.14.23-.16.11,0,.2.03.26.09l13.92,14.14c.06.06.1.14.09.23,0,.09-.03.16-.11.22-3.49,3.07-8.83,4.4-14.01,4.4Z"/>
      <path class="cls-4" d="M28.74,3.19c-2.46-1.43-5.49-2.31-8.67-2.65l-3.11.58,13.93,14.14c4.26-3.73,3.54-8.79-2.15-12.07Z"/>
      <path class="cls-2" d="M17.58,1.32l13.31,13.52c1.76-1.62,2.57-3.47,2.39-5.37-.23-2.25-1.9-4.39-4.7-6.02h0c-2.33-1.34-5.27-2.24-8.49-2.6l-2.5.47h0ZM30.88,15.58c-.08,0-.16-.03-.22-.1L16.74,1.34c-.08-.08-.11-.2-.08-.3.03-.11.13-.19.24-.21l3.11-.59s.06,0,.09,0c3.33.37,6.37,1.3,8.78,2.69h0c2.98,1.72,4.76,4.02,5,6.5.22,2.15-.78,4.31-2.81,6.08-.05.05-.13.08-.2.08Z"/>
      <path class="cls-3" d="M20.07.54c-3.89-.42-7.5-.07-11.23,1.05l1.11-.06,7-.41,3.11-.58Z"/>
      <path class="cls-2" d="M16.9.67c-1.57,0-3.12.14-4.68.42l4.72-.27.73-.14c-.26-.01-.51-.01-.77-.01h0ZM8.84,1.9c-.15,0-.28-.12-.3-.26-.03-.15.07-.3.22-.35C12.53.16,16.24-.19,20.11.23c.16.02.27.14.28.3,0,.15-.1.28-.25.31l-3.11.58-8.16.48h-.02Z"/>
      <path class="cls-4" d="M15.79,1.04v1.29c.03.1.1.18.16.24.16.16.41.25.63.3.36.08.83.04,1.16-.14.15-.07.29-.18.36-.34,0-.02.02-.05.02-.06v-.03s0-1.26,0-1.26c0,.03,0,.04-.02.07-.02.05-.05.11-.09.15-.08.1-.21.18-.32.24-.42.2-1.04.2-1.48,0-.15-.07-.3-.18-.38-.33-.01-.03-.03-.06-.04-.1v-.03Z"/>
      <path class="cls-2" d="M16.11,2.3s.04.03.06.06c.09.1.27.18.47.21.33.07.71.03.97-.1.1-.05.18-.12.21-.18v-.5c-.51.24-1.2.24-1.71,0v.51h0ZM16.96,3.22c-.15,0-.3-.02-.44-.04-.18-.03-.53-.14-.77-.37-.12-.12-.2-.25-.24-.4,0-.02-.02-.08-.02-.11v-1.26c0-.16.12-.29.28-.3.16,0,.3.09.33.24v.03c.05.09.14.16.25.21.35.17.87.17,1.22,0,.09-.04.17-.1.21-.16h.03s0-.03,0-.03h.15l-.14-.05c.03-.16.16-.26.33-.25.16.02.28.15.28.3v1.26s0,.08,0,.1c0,.04-.03.09-.04.12-.1.25-.32.41-.49.5-.26.13-.6.21-.93.21Z"/>
      <path class="cls-3" d="M17.78.5c-.45-.26-1.19-.26-1.65,0-.45.27-.45.7,0,.96.46.26,1.2.26,1.65,0,.46-.26.46-.69,0-.96Z"/>
      <path class="cls-2" d="M16.96.62c-.24,0-.48.05-.67.15-.14.08-.19.16-.19.21s.05.13.19.21c.36.21.98.21,1.34,0,.14-.08.19-.15.19-.21s-.05-.13-.19-.21h0c-.18-.1-.43-.15-.67-.15h0ZM16.96,1.96c-.35,0-.7-.08-.98-.24-.31-.18-.5-.45-.5-.75s.18-.57.5-.74c.56-.32,1.41-.32,1.96-.01h0c.31.18.5.46.5.75s-.18.56-.5.75c-.28.16-.62.24-.98.24Z"/>
    </g>
  </g>
</svg>