<?xml version="1.0" encoding="UTF-8"?>
<svg id="Layer_2" data-name="Layer 2" xmlns="http://www.w3.org/2000/svg" viewBox="0 0 16.25 41.37" fill="currentColor">
  <defs>
    <style>
      .cls-1 {
        fill: #fff;
      }

      .cls-1, .cls-2, .cls-3 {
        fill-rule: evenodd;
      }

      .cls-2 {
        fill: #1a87c7;
      }

      .cls-3 {
        fill: #66ceef;
      }
    </style>
  </defs>
  <g id="_Layer_" data-name="&amp;lt;Layer&amp;gt;">
    <g>
      <path class="cls-3" d="M9.33,34.41v-4.2l-.11-.23c.26.16,2.07,1.15,2.15,1.29l.03,4.34-.21.51-4.03,2.32-1.78-.99v2.6c0,.4.08.69.42.92l-2.07-1.19c-.37-.22-.42-.56-.45-.93v-20.96l-.92-.54c-1.05-.61-1.6-1.59-1.86-2.75-.79-3.49,1.07-7.76,3.33-10.53l2.07,1.2c-.63.77-1.15,1.55-1.62,2.42-1.47,2.64-2.93,7.39-.84,10.01.42.51,1.13.7,1.83,1.18.16.1.1.58.1.88v17.36l3.59-2.09c.21-.14.34-.36.37-.62h0ZM13.78,1.86c-1.36-.78-1.89-1.28-3.43-1.55v6.27c0,.6-.05.74-.45,1.21l-2.49,2.97c-.34.39-.45.37-.92.36l-2.57-.12c.29.18,2.02,1.23,2.2,1.23l2.59.07c.6.02.58-.11.97-.58.68-.8,2.04-2.37,2.52-3.01.21-.3.21-.37.21-.71V1.5c.55.04.86.12,1.36.36h0Z"/>
      <path class="cls-2" d="M5.14,11.37c.45.26.92.52,1.05.57l2.54.06q.34,0,.55-.25c.05-.06.11-.14.18-.23l.05-.06c.71-.81,1.99-2.32,2.44-2.93q.16-.22.16-.53V1.5c0-.08.05-.16.11-.22-.47-.26-.92-.45-1.55-.6v5.9c0,.67-.08.88-.52,1.41l-2.49,2.97c-.42.48-.63.49-1.15.46l-1.36-.06h0ZM8.81,12.61h-.1l-2.57-.07c-.16-.01-.42-.11-2.07-1.09l-.29-.17c-.13-.07-.18-.22-.13-.36.03-.14.18-.24.29-.22l2.57.11q.45.03.68-.24l2.49-2.97c.34-.41.37-.48.37-1.01V.31c0-.09.05-.18.13-.24.05-.05.16-.08.23-.06,1.28.23,1.91.62,2.8,1.16.24.13.47.27.73.43.13.08.18.26.11.41-.08.15-.26.2-.39.14-.34-.17-.6-.24-.92-.29v6.15c0,.38-.03.54-.29.9-.47.63-1.76,2.15-2.46,2.96l-.05.07c-.05.07-.1.14-.16.2-.29.35-.45.49-.97.49h0ZM3.91,4.46l1.54.89c-.58.7-1.02,1.41-1.47,2.18-1.18,2.15-2.86,6.72-1.23,9.69l-.23-.14c-.89-.52-1.44-1.36-1.7-2.56C.05,11.22,1.81,7.14,3.91,4.46h0ZM5.69,37.27l1.47.8,3.77-2.18.16-.36-.03-4.14c-.26-.18-.97-.58-1.41-.84v3.87c-.05.36-.21.67-.52.85l-3.43,1.99h0ZM3.59,18.27v20.57c.03.37.11.55.29.67l1.18.69v-2.75c0-.06,0-.12.05-.17-.05-.05-.05-.11-.05-.17v-17.57c0-.14.03-.38-.03-.45-.21-.13-.45-.26-.68-.38-.26-.14-.52-.27-.76-.43h0ZM5.79,41.28c-.05,0-.1-.02-.16-.04l-2.07-1.2c-.5-.3-.58-.76-.58-1.17v-20.8l-.79-.45c-1.05-.61-1.7-1.57-2.02-2.96C-.65,10.82,1.5,6.46,3.59,3.87c.11-.11.26-.15.39-.07l2.07,1.19c.08.05.13.12.16.22.03.09,0,.17-.05.24-.66.77-1.15,1.53-1.62,2.38-1.23,2.18-2.96,7.01-.86,9.67.24.27.58.45.97.65.24.14.52.28.79.46.29.18.26.59.26.95-.03.07-.03.13-.03.19v16.82l3.14-1.81c.16-.1.18-.25.21-.37v-4.11l-.08-.17c-.05-.12-.03-.27.08-.36.11-.09.24-.1.37-.03l.29.16c1.89,1.06,1.91,1.13,1.99,1.26,0,.03.03.09.03.13l.03,4.34s-.03.09-.03.12l-.24.51c-.03.06-.05.11-.13.15l-4.01,2.32c-.1.05-.21.05-.31,0l-1.34-.74v2.08c.03.39.08.53.29.67.16.09.18.28.1.42-.08.1-.16.15-.26.15Z"/>
      <path class="cls-1" d="M11.03,36.22l-3.75,2.16c-.18.11-.34.02-.34-.21v-4.2c0-.22.16-.51.34-.63l3.75-2.15c.21-.12.37-.03.37.21v4.19c0,.24-.16.51-.37.63h0ZM12.84,14.82c0-.14.05-.3.16-.42.1-.15.18-.18.37-.46.76-1.13,1.39-2.37,1.83-3.62.47-1.34.73-2.7.73-3.99,0-1.56-.39-2.79-1.07-3.62-.63-.73-1.44-1.15-2.44-1.21v6.51c0,.1,0,.22-.03.32-.03.12-.08.24-.16.36l-2.78,3.3c-.16.18-.29.36-.47.35l-2.86-.11c-.13.02-.24-.08-.24-.25v-6.71c-.97,1.19-1.81,2.57-2.41,4-1.31,3.09-1.44,6.16-.34,8.01.47.81,1.21,1.35,2.04,1.58.05.01.11.04.13.1.05.08.05.2.05.31v20.78h0c0,.45.16.78.42.92.26.16.6.13,1-.09l4.74-2.73c.21-.12.39-.26.55-.44.16-.18.31-.39.47-.63.13-.24.24-.49.31-.72.05-.23.1-.47.1-.69-.05-6.59-.08-13.17-.1-19.76,0-.36-.03-.71-.03-1.07h0Z"/>
      <path class="cls-2" d="M11.08,31.53l-3.64,2.1c-.1.06-.21.23-.21.36v4.08l3.64-2.1c.1-.06.21-.23.21-.36v-4.07h0ZM7.13,38.74c-.08,0-.16-.03-.24-.07-.18-.1-.26-.28-.26-.5v-4.2c0-.34.21-.72.5-.89l3.75-2.17c.21-.11.39-.12.58-.02.16.09.26.28.26.5v4.19c0,.34-.24.72-.52.9h0l-3.75,2.16c-.1.06-.21.09-.31.09h0ZM6.11,11.92h.03-.03ZM5.11,19.14s.03.01.03.01c0,0,0-.01-.03-.01h0ZM5.61,6.17c-.73.99-1.36,2.09-1.83,3.22-1.28,3-1.42,5.96-.37,7.72.45.75,1.1,1.24,1.86,1.45.13,0,.24.1.31.23.11.15.08.3.08.43v20.82c0,.32.11.56.29.66.16.1.42.06.68-.1l4.74-2.73c.18-.1.34-.23.47-.38.16-.17.31-.36.42-.58.13-.22.24-.44.29-.65.08-.2.1-.41.1-.61l-.1-20.82c-.03-.2.05-.42.18-.61.05-.08.1-.13.16-.19.05-.06.13-.12.21-.26.76-1.11,1.36-2.34,1.81-3.56.47-1.34.71-2.69.71-3.89,0-1.44-.34-2.63-1.02-3.42-.47-.57-1.1-.94-1.86-1.05v6.16c0,.15,0,.27-.03.39-.03.16-.13.34-.24.48l-2.78,3.3c-.18.23-.39.46-.71.46l-2.88-.11c-.1,0-.24-.03-.34-.13-.11-.11-.16-.26-.16-.44v-5.81h0ZM6.16,41.37c-.18,0-.37-.04-.52-.14-.37-.22-.58-.63-.58-1.19v-20.91c-.94-.27-1.68-.85-2.17-1.7-1.15-1.93-1.02-5.1.31-8.28.63-1.45,1.49-2.87,2.46-4.07.08-.11.24-.14.34-.09.13.04.21.15.21.28v6.67l2.8.09s.13-.12.18-.2l2.8-3.34c.05-.06.1-.15.1-.22V1.5c0-.08.05-.17.11-.23.05-.05.13-.09.23-.08,1.05.06,1.96.51,2.65,1.31.73.91,1.15,2.23,1.15,3.82,0,1.29-.26,2.66-.76,4.08-.45,1.27-1.1,2.55-1.86,3.69-.13.18-.21.27-.29.35-.03.03-.05.06-.08.11-.08.09-.11.18-.11.24h0s.11,20.83.11,20.83c0,.26-.03.52-.11.78-.08.26-.18.52-.34.79-.16.26-.34.5-.52.7-.18.2-.39.36-.6.48l-4.74,2.74c-.26.16-.52.24-.79.24Z"/>
      <path class="cls-2" d="M11.19,36.23c-.05,0-.11-.02-.16-.04l-1.91-1.11c-.13-.08-.18-.27-.11-.42.08-.15.26-.2.42-.11l1.91,1.11c.16.08.21.27.1.42-.05.09-.16.16-.26.16Z"/>
      <path class="cls-2" d="M12.34,8.83c-.05,0-.11-.02-.16-.04l-2.1-1.21c-.16-.09-.21-.28-.11-.42.08-.15.26-.2.39-.11l2.12,1.22c.13.09.18.27.11.42-.05.11-.16.16-.26.16Z"/>
      <path class="cls-2" d="M9.15,12.57c-.05,0-.1,0-.16-.04l-2.02-1.16c-.16-.09-.18-.28-.1-.43.08-.15.26-.2.42-.11l2.02,1.17c.16.09.21.28.1.42-.05.1-.16.15-.26.15Z"/>
      <path class="cls-2" d="M12.42,1.81c-.05,0-.1-.02-.16-.04l-1.96-1.15c-.16-.08-.21-.27-.11-.42.08-.15.26-.2.39-.11l1.99,1.15c.16.08.21.27.11.42-.05.1-.16.16-.26.16Z"/>
    </g>
  </g>
</svg>