<?xml version="1.0" encoding="UTF-8"?>
<svg id="Layer_2" data-name="Layer 2" xmlns="http://www.w3.org/2000/svg" viewBox="0 0 34.97 44.94" fill="currentColor">
  <defs>
    <style>
      .cls-1 {
        fill: #fff;
      }

      .cls-1, .cls-2, .cls-3, .cls-4 {
        fill-rule: evenodd;
      }

      .cls-2 {
        fill: #1a87c7;
      }

      .cls-3 {
        fill: #bdedf8;
      }

      .cls-4 {
        fill: #66ceef;
      }
    </style>
  </defs>
  <g id="_Layer_" data-name="&amp;lt;Layer&amp;gt;">
    <g>
      <path class="cls-3" d="M1.69,33.81l7.21-4.16c8.66,4.99,4.33,2.49,12.97,7.49l-7.21,4.16c-8.64-4.99-4.3-2.49-12.97-7.49Z"/>
      <path class="cls-2" d="M2.36,33.81l12.3,7.11,6.57-3.78-12.32-7.11-6.54,3.78h0ZM14.66,41.64c-.06,0-.11-.02-.17-.05l-12.97-7.49c-.11-.06-.17-.17-.17-.28,0-.11.06-.22.17-.28l7.24-4.17c.08-.06.22-.06.31,0l12.97,7.49c.11.05.17.16.17.29,0,.11-.06.22-.17.28l-7.21,4.17c-.06.03-.11.05-.17.05Z"/>
      <polygon class="cls-4" points="1.69 33.81 3.78 35.02 8.53 37.77 10.07 38.66 14.66 41.3 14.66 43.19 1.69 35.7 1.69 33.81"/>
      <path class="cls-2" d="M2.02,35.52l12.33,7.11v-1.13l-12.33-7.11v1.13h0ZM14.66,43.52c-.06,0-.11,0-.17-.04l-12.97-7.49c-.11-.07-.17-.17-.17-.29v-1.89c0-.11.06-.22.17-.28.11-.07.22-.07.34,0l12.97,7.48c.11.06.17.17.17.29v1.89c0,.12-.06.22-.17.29-.06.03-.11.04-.17.04Z"/>
      <polygon class="cls-3" points="14.66 41.3 21.87 37.14 21.87 39.02 14.66 43.19 14.66 41.3"/>
      <path class="cls-2" d="M14.99,41.49v1.13l6.57-3.78v-1.13l-6.57,3.78h0ZM14.66,43.52c-.06,0-.11,0-.17-.04-.08-.07-.14-.17-.14-.29v-1.89c0-.12.06-.22.14-.29l7.24-4.16c.08-.06.22-.06.31,0,.11.05.17.16.17.29v1.88c0,.12-.06.23-.17.29l-7.21,4.17c-.06.03-.11.04-.17.04Z"/>
      <polygon class="cls-3" points="7.05 35.02 14.26 30.84 14.26 32.73 7.05 36.9 7.05 35.02"/>
      <path class="cls-2" d="M7.36,35.2v1.13l6.57-3.79v-1.13l-6.57,3.79h0ZM7.05,37.23c-.06,0-.14-.02-.17-.05-.11-.06-.17-.17-.17-.29v-1.88c0-.12.06-.23.17-.29l7.21-4.17c.08-.06.22-.06.33,0,.08.06.17.17.17.29v1.89c0,.12-.08.22-.17.29l-7.24,4.16s-.08.05-.14.05Z"/>
      <path class="cls-4" d="M1.69,31.93c4.33,2.49,1.03.59,5.37,3.09v1.88l-5.37-3.09v-1.88Z"/>
      <path class="cls-2" d="M2.02,33.62l4.7,2.71v-1.13l-4.7-2.7v1.13h0ZM7.05,37.23c-.06,0-.14-.02-.17-.05l-5.37-3.09c-.11-.06-.17-.17-.17-.28v-1.88c0-.12.06-.23.17-.29.11-.06.22-.06.34,0l5.34,3.09c.11.06.17.17.17.29v1.88c0,.12-.06.23-.17.29-.03.03-.08.05-.14.05Z"/>
      <polygon class="cls-3" points="7.05 33.12 14.26 28.95 14.26 30.84 7.05 35.02 7.05 33.12"/>
      <path class="cls-2" d="M7.36,33.31v1.13l6.57-3.78v-1.13l-6.57,3.78h0ZM7.05,35.34c-.06,0-.14-.02-.17-.05-.11-.05-.17-.17-.17-.28v-1.89c0-.12.06-.23.17-.29l7.21-4.16c.08-.07.22-.07.33,0,.08.06.17.17.17.28v1.89c0,.12-.08.22-.17.29l-7.24,4.16s-.08.05-.14.05Z"/>
      <path class="cls-4" d="M1.69,30.04c4.33,2.5,1.03.6,5.37,3.09v1.89l-5.37-3.09v-1.89Z"/>
      <path class="cls-2" d="M2.02,31.73l4.7,2.71v-1.13l-4.7-2.7v1.13h0ZM7.05,35.34c-.06,0-.14-.02-.17-.05l-5.37-3.09c-.11-.06-.17-.17-.17-.28v-1.89c0-.12.06-.23.17-.28.11-.06.22-.06.34,0l5.34,3.09c.11.06.17.17.17.29v1.89c0,.11-.06.22-.17.28-.03.03-.08.05-.14.05Z"/>
      <path class="cls-3" d="M1.69,28.15l7.21-4.16c8.66,4.99-3.3-1.91,5.37,3.09l-7.21,4.16c-8.66-5,3.3,1.9-5.37-3.08Z"/>
      <path class="cls-2" d="M5.18,29.79c.48.27,1.06.61,1.87,1.06l6.54-3.78-4.7-2.72-6.54,3.79c.61.36,1.12.65,1.51.88h0s.17.09.56.31c.08.06.22.12.34.2l.42.24h0ZM7.05,31.57c-.06,0-.14-.02-.17-.05-.87-.5-1.51-.88-2.01-1.17h0s-.11-.06-.31-.18c-.06-.02-.08-.04-.14-.06l-.89-.52h0c-.47-.29-1.15-.67-2.01-1.16-.11-.06-.17-.17-.17-.28s.06-.22.17-.29l7.24-4.16c.08-.06.22-.06.31,0,.87.5,1.54.87,2.01,1.16h0s.17.09.53.3c.06.04.14.08.2.12.06.03.11.07.17.09.31.16.42.24.45.24h0c.47.29,1.15.67,2.01,1.17.08.06.17.17.17.29,0,.11-.08.22-.17.28l-7.24,4.17s-.08.05-.14.05Z"/>
      <polygon class="cls-3" points="7.05 31.23 14.26 27.07 14.26 28.95 7.05 33.12 7.05 31.23"/>
      <path class="cls-2" d="M7.36,31.42v1.13l6.57-3.78v-1.13l-6.57,3.78h0ZM7.05,33.45c-.06,0-.14,0-.17-.04-.11-.06-.17-.17-.17-.28v-1.89c0-.12.06-.22.17-.29l7.21-4.16c.08-.06.22-.06.33,0,.08.06.17.17.17.29v1.88c0,.12-.08.23-.17.29l-7.24,4.16s-.08.04-.14.04Z"/>
      <path class="cls-4" d="M1.69,28.15c4.33,2.49,1.03.59,5.37,3.08v1.89l-5.37-3.09v-1.89Z"/>
      <path class="cls-2" d="M2.02,29.84l4.7,2.7v-1.13l-4.7-2.71v1.13h0ZM7.05,33.45c-.06,0-.14,0-.17-.04l-5.37-3.09c-.11-.06-.17-.17-.17-.28v-1.89c0-.12.06-.22.17-.29.11-.06.22-.06.34,0l5.34,3.09c.11.07.17.17.17.29v1.89c0,.11-.06.22-.17.28-.03.04-.08.04-.14.04Z"/>
      <path class="cls-2" d="M9.71,36.84l4.02,2.33v-19.9l-4.02-2.18v19.76h0ZM14.04,40.06c-.06,0-.11-.01-.14-.04l-4.67-2.7c-.11-.06-.17-.16-.17-.28v-20.51c0-.11.06-.22.14-.28.11-.06.22-.06.34,0l4.67,2.54c.11.06.17.17.17.29v20.67c0,.12-.06.22-.17.28-.03.03-.08.04-.17.04Z"/>
      <path class="cls-2" d="M14.38,19.26v19.9l4.02-2.33v-19.76l-4.02,2.18h0ZM14.04,40.06c-.06,0-.11-.01-.14-.04-.11-.06-.17-.17-.17-.28v-20.67c0-.12.06-.23.17-.29l4.67-2.54c.11-.06.22-.06.34,0,.08.06.14.17.14.28v20.51c0,.12-.06.22-.14.28l-4.7,2.7s-.08.04-.17.04Z"/>
      <path class="cls-2" d="M14.04,40.06c-.11,0-.22-.06-.28-.16l-4.61-8c-.03-.08-.06-.17-.03-.25.03-.08.08-.16.17-.2l9.25-5.35c.14-.1.36-.04.45.12.08.16.03.36-.11.44l-9,5.18,4.47,7.71c.08.16.03.36-.14.45-.03.03-.11.04-.17.04Z"/>
      <path class="cls-2" d="M13.96,29.44c-.11,0-.22-.06-.28-.17l-4.58-7.92c-.03-.07-.06-.17-.03-.25.03-.08.08-.15.17-.2l4.08-2.37c.17-.09.36-.04.47.12.08.16.03.35-.14.44l-3.83,2.22,4.42,7.63c.08.16.03.35-.11.44-.06.03-.11.05-.17.05Z"/>
      <path class="cls-2" d="M18.71,26.72c-.11,0-.22-.06-.31-.17l-4.3-7.49c-.11-.15-.06-.36.11-.45.14-.09.36-.04.45.12l4.33,7.49c.08.16.03.36-.11.44-.06.04-.11.05-.17.05Z"/>
      <path class="cls-2" d="M18.74,37.36c-.11,0-.22-.06-.28-.16l-4.5-7.75c-.08-.16-.03-.36.14-.45.14-.09.36-.04.45.12l4.47,7.75c.08.16.03.36-.11.45-.06.04-.11.04-.17.04Z"/>
      <path class="cls-1" d="M25.5,36.83l4.86-2.8c6.93,4.01-2.66-1.53,4.28,2.48l-4.86,2.81c-6.93-4.01,2.66,1.53-4.28-2.48Z"/>
      <path class="cls-2" d="M28.32,38.09l1.45.84,4.22-2.43-1.62-.94c-.06-.03-.08-.06-.14-.08l-1.87-1.08-4.22,2.42,2.07,1.2.08.06h.03ZM29.78,39.64c-.06,0-.11,0-.17-.04l-2.54-1.47-.08-.06s0,0-.03,0l-1.62-.94c-.11-.06-.17-.17-.17-.29,0-.11.06-.22.17-.28l4.86-2.81c.11-.06.22-.06.33,0,.67.4,1.2.71,1.62.94h0s.06.04.22.13c.08.06.17.1.25.15.06.04.14.08.22.13.03.02.06.04.08.06.17.1.25.14.25.15h0c.39.22.92.53,1.62.93.11.06.17.17.17.29s-.06.22-.17.29l-4.86,2.8c-.06.04-.11.04-.17.04Z"/>
      <polygon class="cls-1" points="29.78 39.32 34.64 36.51 34.64 41.8 29.78 44.6 29.78 39.32"/>
      <path class="cls-2" d="M30.11,39.5v4.54l4.22-2.43v-4.53l-4.22,2.43h0ZM29.78,44.94c-.06,0-.11-.02-.17-.05-.08-.06-.17-.17-.17-.29v-5.29c0-.12.08-.23.17-.29l4.89-2.81c.08-.06.2-.06.31,0,.11.06.17.17.17.29v5.29c0,.11-.06.22-.17.28l-4.86,2.81c-.06.03-.11.05-.17.05Z"/>
      <path class="cls-1" d="M25.5,36.83c3.46,2.01.81.48,4.28,2.48v5.29l-4.28-2.48v-5.29Z"/>
      <path class="cls-2" d="M25.81,41.94l3.63,2.1v-4.54l-3.63-2.09v4.53h0ZM29.78,44.94c-.06,0-.11-.02-.17-.05l-4.28-2.48c-.11-.06-.17-.17-.17-.29v-5.29c0-.11.06-.22.17-.28.08-.07.22-.07.33,0l4.28,2.47c.11.06.17.17.17.29v5.29c0,.11-.06.22-.17.28-.06.03-.11.05-.17.05Z"/>
      <polygon class="cls-4" points="28.8 42.38 26.48 41.04 26.48 38.6 28.8 39.94 28.8 42.38"/>
      <path class="cls-2" d="M26.81,40.85l1.65.95v-1.67l-1.65-.96v1.67h0ZM28.8,42.7c-.06,0-.11,0-.17-.05l-2.32-1.33c-.08-.06-.17-.17-.17-.28v-2.44c0-.11.08-.22.17-.28.11-.06.22-.06.33,0l2.32,1.34c.08.06.17.17.17.28v2.44c0,.11-.08.22-.17.28-.06.04-.11.05-.17.05Z"/>
      <path class="cls-2" d="M30.08,37c-.2,0-.34-.15-.34-.32v-11.01c0-.18.14-.32.34-.32.17,0,.31.15.31.32v11.01c0,.18-.14.32-.31.32Z"/>
      <path class="cls-2" d="M14.38,18.87l3.91,2.26v-4.55l-3.91-2.26v4.54h0ZM18.62,22.03c-.06,0-.11,0-.17-.04l-4.56-2.63c-.11-.06-.17-.17-.17-.29v-5.31c0-.12.06-.22.17-.29.08-.06.22-.06.31,0l4.58,2.64c.11.06.17.17.17.29v5.31c0,.11-.06.22-.17.28-.06.04-.11.04-.17.04Z"/>
      <path class="cls-2" d="M14.04,19.39c-.11,0-.22-.06-.28-.16-.08-.16-.03-.36.14-.45l4.56-2.62c.14-.09.33-.04.45.12.08.16.03.35-.14.45l-4.56,2.63s-.11.04-.17.04Z"/>
      <path class="cls-2" d="M18.96,16.58v4.55l3.91-2.26v-4.54l-3.91,2.26h0ZM18.62,22.03c-.06,0-.11,0-.17-.04-.08-.06-.17-.17-.17-.28v-5.31c0-.12.08-.22.17-.29l4.58-2.64c.11-.06.22-.06.34,0,.08.06.17.17.17.29v5.31c0,.12-.08.22-.17.29l-4.58,2.63c-.06.04-.11.04-.17.04Z"/>
      <path class="cls-2" d="M23.21,19.39c-.06,0-.11,0-.17-.04l-4.56-2.63c-.14-.09-.2-.29-.11-.45.08-.16.28-.21.45-.12l4.56,2.62c.14.09.2.3.11.45-.06.1-.17.16-.28.16Z"/>
      <path class="cls-2" d="M14.71,13.73l3.94,2.28,3.91-2.26-3.94-2.28-3.91,2.26h0ZM18.65,16.71c-.06,0-.11-.02-.17-.04l-4.58-2.65c-.11-.07-.17-.17-.17-.29s.06-.22.17-.29l4.56-2.63c.11-.06.25-.06.33,0l4.61,2.65c.08.06.14.17.14.29,0,.11-.06.22-.14.28l-4.58,2.64c-.06.03-.11.04-.17.04Z"/>
      <path class="cls-2" d="M18.62,16.68h0c-.17,0-.34-.15-.34-.33v-5.26c0-.17.17-.32.34-.32h0c.2,0,.34.15.34.32v5.26c0,.19-.14.33-.34.33Z"/>
      <path class="cls-2" d="M18.96,21.51l3.91,2.26v-4.55l-3.91-2.26v4.55h0ZM23.21,24.68c-.06,0-.11,0-.17-.05l-4.58-2.64c-.08-.06-.17-.17-.17-.28v-5.31c0-.12.08-.22.17-.29.11-.05.25-.05.33,0l4.58,2.64c.08.06.17.17.17.29v5.31c0,.11-.08.22-.17.28-.06.04-.11.05-.17.05Z"/>
      <path class="cls-2" d="M18.62,22.03c-.11,0-.22-.06-.28-.16-.08-.16-.03-.36.11-.45l4.56-2.62c.17-.09.36-.04.45.12.08.16.03.35-.11.44l-4.56,2.62c-.06.04-.11.04-.17.04Z"/>
      <path class="cls-2" d="M23.54,19.23v4.55l3.91-2.26v-4.55l-3.91,2.26h0ZM23.21,24.68c-.06,0-.11,0-.17-.05-.11-.06-.17-.16-.17-.28v-5.31c0-.12.06-.22.17-.29l4.58-2.64c.08-.05.22-.05.33,0,.08.06.14.17.14.29v5.31c0,.11-.06.22-.14.28l-4.58,2.64c-.06.04-.11.05-.17.05Z"/>
      <path class="cls-2" d="M27.79,22.03c-.06,0-.11,0-.17-.04l-4.56-2.62c-.17-.09-.22-.29-.14-.44.11-.16.31-.22.48-.12l4.56,2.62c.14.09.2.29.11.45-.06.11-.17.16-.28.16Z"/>
      <path class="cls-2" d="M19.3,16.37l3.94,2.28,3.91-2.26-3.94-2.28-3.91,2.26h0ZM23.24,19.35c-.06,0-.11-.02-.17-.05l-4.61-2.65c-.08-.07-.17-.17-.17-.29s.08-.22.17-.29l4.58-2.64c.11-.06.22-.06.34,0l4.58,2.66c.11.06.17.17.17.29,0,.11-.06.22-.17.28l-4.56,2.64c-.06.03-.11.05-.17.05Z"/>
      <path class="cls-2" d="M23.21,19.32h0c-.17,0-.33-.15-.33-.33v-5.26c0-.18.17-.32.33-.32h0c.17,0,.34.15.34.32v5.26c0,.18-.17.33-.34.33Z"/>
      <path class="cls-2" d="M23.54,24.16l3.33,1.94-3.33-5.82v3.89h0ZM27.79,27.32c-.06,0-.11-.02-.17-.04l-4.58-2.64c-.11-.06-.17-.16-.17-.28v-5.31c0-.15.11-.28.25-.31.14-.04.28.02.36.15l4.58,7.96c.08.13.06.29-.06.4-.06.06-.14.09-.22.09Z"/>
      <path class="cls-2" d="M23.21,24.68c-.11,0-.22-.06-.28-.17-.08-.16-.03-.35.11-.45l4.56-2.62c.14-.09.36-.04.45.12.08.15.03.35-.11.44l-4.56,2.62c-.06.04-.11.05-.17.05Z"/>
      <path class="cls-2" d="M32.35,24.68c-.06,0-.11,0-.14-.05l-4.56-2.62c-.17-.09-.22-.3-.14-.44.11-.16.31-.21.45-.12l4.56,2.62c.17.09.22.29.11.45-.06.11-.14.17-.28.17Z"/>
      <path class="cls-2" d="M27.79,21.95c-.2,0-.34-.15-.34-.32v-5.26c0-.18.14-.32.34-.32.17,0,.31.15.31.32v5.26c0,.18-.14.32-.31.32Z"/>
      <path class="cls-2" d="M27.79,27.32c-.11,0-.22-.06-.31-.17-.08-.16-.03-.35.14-.45l4.28-2.47-4.42-7.67c-.08-.15-.03-.35.11-.44.17-.09.36-.04.45.12l4.58,7.95c.06.07.06.17.06.25-.03.08-.08.16-.17.2l-4.56,2.64c-.06.03-.11.04-.17.04Z"/>
      <path class="cls-2" d="M18.26,16.52c-.06,0-.11-.02-.17-.05l-4.67-2.7c-.17-.1-.2-.29-.11-.45.08-.16.28-.21.45-.12l4.67,2.7c.17.1.22.29.14.45-.08.11-.19.17-.31.17Z"/>
      <path class="cls-2" d="M9.79,16.23l3.94,2.26v-4.54l-3.94-2.26v4.54h0ZM14.04,19.39c-.06,0-.11,0-.14-.04l-4.58-2.64c-.11-.06-.17-.17-.17-.29v-5.31c0-.11.06-.22.17-.28.08-.06.22-.06.33,0l4.56,2.63c.11.06.17.17.17.29v5.31c0,.12-.06.22-.17.29-.03.03-.08.04-.17.04Z"/>
      <path class="cls-2" d="M9.49,16.75c-.11,0-.22-.06-.28-.16-.08-.16-.06-.36.11-.46l4.56-2.62c.14-.1.36-.04.45.12.08.16.03.35-.11.44l-4.56,2.63c-.06.03-.11.04-.17.04Z"/>
      <path class="cls-2" d="M14.38,13.95v4.54l3.91-2.26v-4.54l-3.91,2.26h0ZM14.04,19.39c-.06,0-.11,0-.14-.04-.11-.06-.17-.17-.17-.29v-5.31c0-.12.06-.22.17-.29l4.56-2.63c.11-.06.25-.06.33,0,.11.06.17.16.17.28v5.31c0,.12-.06.22-.17.29l-4.58,2.64s-.08.04-.17.04Z"/>
      <path class="cls-2" d="M10.13,11.08l3.94,2.28,3.91-2.26-3.94-2.28-3.91,2.26h0ZM14.07,14.07c-.06,0-.11-.01-.17-.05l-4.58-2.65c-.11-.06-.17-.17-.17-.29,0-.11.06-.22.17-.28l4.58-2.64c.08-.07.22-.07.31,0l4.61,2.65c.11.06.17.17.17.29,0,.11-.06.22-.17.28l-4.58,2.64c-.06.04-.11.05-.17.05Z"/>
      <path class="cls-2" d="M14.04,14.03c-.17,0-.31-.15-.31-.33v-5.26c0-.18.14-.32.31-.32.2,0,.33.15.33.32v5.26c0,.18-.14.33-.33.33Z"/>
      <path class="cls-2" d="M13.71,13.88c-.06,0-.14,0-.17-.05l-4.67-2.7c-.17-.08-.22-.29-.14-.45.08-.16.31-.21.45-.12l4.67,2.7c.17.09.22.3.14.44-.06.11-.17.17-.28.17Z"/>
      <path class="cls-2" d="M5.24,13.6l3.91,2.26v-4.55l-3.91-2.26v4.55h0ZM9.49,16.75c-.06,0-.11,0-.17-.04l-4.58-2.64c-.08-.07-.17-.17-.17-.29v-5.31c0-.11.08-.22.17-.28.11-.06.22-.06.34,0l4.58,2.64c.08.06.14.16.14.28v5.31c0,.12-.06.22-.14.29-.06.03-.11.04-.17.04Z"/>
      <path class="cls-2" d="M4.9,14.11c-.11,0-.22-.06-.28-.16-.08-.16-.03-.36.11-.45l4.56-2.62c.14-.09.36-.04.45.12.08.16.03.36-.11.44l-4.56,2.64c-.06.03-.11.04-.17.04Z"/>
      <path class="cls-2" d="M9.79,11.31v4.55l3.94-2.26v-4.55l-3.94,2.26h0ZM9.49,16.75c-.06,0-.11,0-.17-.04-.11-.06-.17-.17-.17-.29v-5.31c0-.11.06-.22.17-.28l4.58-2.64c.08-.06.22-.06.31,0,.11.06.17.17.17.28v5.31c0,.12-.06.22-.17.29l-4.56,2.64c-.06.03-.11.04-.17.04Z"/>
      <path class="cls-2" d="M5.54,8.44l3.94,2.28,3.94-2.26-3.94-2.28-3.94,2.26h0ZM9.49,11.43c-.06,0-.11,0-.14-.05l-4.61-2.65c-.08-.06-.17-.17-.17-.29,0-.11.08-.22.17-.28l4.58-2.64c.08-.06.22-.06.33,0l4.58,2.65c.11.06.17.17.17.28,0,.11-.06.22-.17.28l-4.58,2.64s-.08.05-.17.05Z"/>
      <path class="cls-2" d="M9.49,11.39c-.2,0-.34-.15-.34-.34v-5.26c0-.18.14-.32.34-.32.17,0,.31.15.31.32v5.26c0,.19-.14.34-.31.34Z"/>
      <path class="cls-2" d="M9.12,11.23c-.06,0-.11-.01-.17-.05l-4.67-2.7c-.17-.08-.22-.28-.14-.44.11-.16.31-.21.47-.12l4.67,2.7c.14.1.2.3.11.45-.06.11-.17.17-.28.17Z"/>
      <path class="cls-2" d="M.65,10.96l3.91,2.26v-4.55L.65,6.4v4.55h0ZM4.9,14.11c-.06,0-.11,0-.17-.04L.15,11.43c-.08-.06-.14-.17-.14-.29v-5.31c0-.11.06-.22.14-.28.11-.07.25-.07.33,0l4.58,2.64c.11.06.17.17.17.28v5.31c0,.12-.06.22-.17.29-.06.03-.11.04-.17.04Z"/>
      <path class="cls-2" d="M.32,11.47c-.11,0-.22-.06-.28-.17-.08-.16-.03-.36.11-.45l4.56-2.62c.17-.1.36-.04.47.12.08.16.03.36-.14.44L.49,11.43c-.06.03-.11.04-.17.04Z"/>
      <path class="cls-2" d="M5.24,8.66v4.55l3.91-2.26v-4.55l-3.91,2.26h0ZM4.9,14.11c-.06,0-.11,0-.17-.04-.08-.07-.17-.17-.17-.29v-5.31c0-.11.08-.22.17-.28l4.58-2.64c.08-.07.22-.07.33,0,.08.06.14.17.14.28v5.31c0,.12-.06.22-.14.29l-4.58,2.64c-.06.03-.11.04-.17.04Z"/>
      <path class="cls-2" d="M.99,5.8l3.94,2.28,3.91-2.26-3.94-2.28L.99,5.8h0ZM4.93,8.79c-.06,0-.11-.01-.17-.05L.15,6.09c-.08-.06-.14-.17-.14-.29,0-.11.06-.22.14-.28l4.58-2.64c.11-.06.22-.06.34,0l4.58,2.65c.11.06.17.17.17.29s-.06.22-.17.29l-4.56,2.63c-.06.04-.11.05-.17.05Z"/>
      <path class="cls-2" d="M4.9,8.75h0c-.17,0-.34-.15-.34-.33V3.17c0-.18.17-.33.34-.33h0c.19,0,.33.15.33.33v5.25c0,.18-.14.33-.33.33Z"/>
      <path class="cls-1" d="M13.17.43c.17-.09.31-.15.5-.06l5.84,3.36c-.2-.09-.36-.05-.53.04l-5.51,3.18c-.25.16-.36.31-.53.55l-5.81-3.36c.14-.24.28-.4.53-.55L13.17.43Z"/>
      <path class="cls-2" d="M7.61,4.06l5.25,3.02c.11-.14.25-.27.42-.39l5.34-3.08L13.51.66s-.03-.02-.2.06l-5.48,3.17c-.08.06-.17.1-.22.17h0ZM12.95,7.85c-.06,0-.11-.02-.14-.05l-5.84-3.36c-.06-.04-.11-.12-.14-.2-.03-.09,0-.18.03-.26.17-.26.33-.46.61-.65L13.01.15h0c.22-.13.5-.22.81-.06l5.84,3.37c.17.08.22.28.14.44-.08.16-.28.22-.45.15-.03-.03-.06-.04-.22.05l-5.48,3.17c-.17.1-.28.22-.42.44-.06.1-.17.16-.28.16Z"/>
      <path class="cls-3" d="M12.95,14.11l-5.81-3.36c-.17-.12-.2-.27-.2-.47v-5.4c0-.27.08-.49.2-.72l5.81,3.36c-.11.23-.2.46-.2.72v5.4c0,.2.03.35.2.47Z"/>
      <path class="cls-2" d="M7.28,4.62c0,.09-.03.18-.03.27v5.39c.03.16.03.18.08.2l5.09,2.94v-5.18c0-.2.03-.39.11-.58l-5.25-3.03h0ZM12.95,14.44c-.06,0-.11-.02-.14-.05l-5.84-3.36c-.33-.25-.36-.58-.36-.75v-5.4c0-.31.08-.58.25-.88.03-.08.11-.14.2-.16.08-.03.17,0,.25.03l5.81,3.36c.17.09.22.29.11.45-.11.2-.14.38-.14.56v5.39c0,.16.03.18.06.2.14.1.2.3.08.45-.06.09-.17.15-.28.15Z"/>
      <path class="cls-1" d="M13.48,6.97l5.51-3.18c.39-.23.73-.04.73.43v5.4c0,.93-.78,1.31-1.34,1.63l-4.89,2.82c-.39.23-.73.05-.73-.43v-5.4c0-.46.33-1.04.73-1.27Z"/>
      <path class="cls-2" d="M19.32,4.02c-.06,0-.11.01-.17.06l-5.51,3.18h0c-.31.18-.56.64-.56.98v5.4c0,.12.03.18.03.19.03.01.08,0,.2-.05l5-2.9c.64-.35,1.06-.65,1.06-1.27v-5.4c0-.12-.03-.18-.03-.2h-.03ZM13.15,14.49c-.11,0-.25-.03-.34-.09-.25-.14-.39-.42-.39-.76v-5.4c0-.58.39-1.26.89-1.56l5.51-3.17c.31-.18.61-.2.84-.06.25.14.39.42.39.76v5.4c0,1.05-.84,1.53-1.4,1.85l-5,2.89c-.17.09-.34.14-.5.14Z"/>
      <path class="cls-4" d="M13.96,8.19l4.56-2.62c.17-.1.28-.02.28.17v2.77c0,.19-.11.42-.28.51l-4.56,2.62c-.17.09-.28,0-.28-.18v-2.77c0-.19.11-.42.28-.51Z"/>
      <path class="cls-2" d="M14.12,8.47c-.06.04-.14.16-.14.23v2.55l4.36-2.51c.06-.04.14-.16.14-.22v-2.55l-4.36,2.5h0ZM13.85,12.01c-.11,0-.17-.02-.25-.06-.17-.08-.25-.26-.25-.47v-2.77c0-.31.2-.65.45-.8h0l4.56-2.62c.17-.11.36-.12.53-.03.17.09.25.27.25.48v2.77c0,.31-.2.64-.45.8l-4.56,2.61c-.08.06-.2.08-.28.08Z"/>
      <path class="cls-4" d="M11.44,7.98l-3.24-1.86c-.17-.09-.31-.02-.31.18v2.77c0,.18.14.42.31.51l3.24,1.86c.14.09.28.02.28-.16v-2.77c0-.2-.14-.43-.28-.52Z"/>
      <path class="cls-2" d="M8.23,6.52v2.55c0,.06.08.18.14.22l3.02,1.75v-2.54c0-.08-.06-.2-.11-.23l-3.05-1.75h0ZM11.55,11.81c-.08,0-.2-.03-.28-.08l-3.24-1.86c-.25-.16-.45-.49-.45-.8v-2.77c0-.21.08-.39.25-.48.14-.09.33-.08.53.03l3.21,1.86h0c.28.15.47.49.47.8v2.77c0,.2-.08.38-.25.47-.08.04-.17.06-.25.06Z"/>
      <path class="cls-2" d="M8.12,3.67c-.11,0-.22-.05-.28-.16-.08-.16-.03-.36.11-.46L12.53.41c.17-.09.36-.04.47.12.08.16.03.35-.14.44l-4.58,2.65c-.06.03-.11.04-.17.04Z"/>
      <path class="cls-4" d="M30.47,24.03c-.14-.07-.31-.13-.45-.05l-1.37.78c.25-.13.59.11.75.31.22.26.42.7.36,1.05,0,.12-.06.23-.17.3l1.37-.79c.2-.12.2-.41.17-.61-.08-.38-.33-.78-.67-.98Z"/>
      <path class="cls-2" d="M29.47,24.67c.08.05.14.11.2.17.19.22.39.55.45.9l.7-.4s.03-.12,0-.28c-.06-.3-.25-.61-.47-.75-.11-.04-.14-.06-.17-.04l-.7.4h0ZM29.61,26.73c-.11,0-.22-.06-.28-.15-.08-.16-.06-.35.08-.45.03-.01.03-.05.06-.07.03-.21-.11-.55-.31-.78-.14-.17-.31-.25-.36-.22-.14.08-.33.02-.42-.14-.08-.16-.03-.35.11-.43l1.37-.79c.22-.13.5-.11.78.05h0c.42.25.73.72.81,1.21.08.42-.03.78-.31.95l-1.37.8c-.06.03-.11.04-.17.04Z"/>
      <path class="cls-3" d="M29.61,25.32c-.14-.2-.31-.39-.5-.5-.17-.1-.33-.12-.45-.05-.14.07-.2.22-.2.44s.06.45.2.66c.11.22.28.4.45.51.2.1.36.11.5.05.11-.08.2-.22.2-.44s-.08-.46-.2-.67Z"/>
      <path class="cls-2" d="M28.82,25.06h-.03s-.03.04-.03.15c0,.15.05.33.17.5.08.17.22.3.34.38.11.06.14.06.17.05,0-.01.03-.05.03-.15,0-.15-.06-.34-.17-.5h0c-.08-.16-.22-.3-.34-.38-.08-.04-.11-.04-.14-.04h0ZM29.41,26.79c-.14,0-.31-.04-.45-.14-.22-.13-.45-.35-.61-.62-.14-.27-.22-.56-.22-.82,0-.32.14-.58.36-.72.22-.13.5-.11.78.05.25.14.45.36.61.63.14.27.22.56.22.83,0,.32-.11.58-.34.71-.11.06-.22.09-.36.09Z"/>
      <path class="cls-2" d="M9.37,37.36c-.11,0-.22-.06-.28-.17-.08-.16-.03-.36.14-.45l4.75-2.64c.11-.07.22-.06.34,0l4.58,2.64c.14.09.2.3.11.46-.08.16-.31.2-.45.11l-4.42-2.55-4.61,2.56c-.06.03-.11.04-.17.04Z"/>
    </g>
  </g>
</svg>