<?xml version="1.0" encoding="UTF-8"?>
<svg id="Layer_2" data-name="Layer 2" xmlns="http://www.w3.org/2000/svg" viewBox="0 0 43.94 40.24" fill="currentColor">
  <defs>
    <style>
      .cls-1 {
        fill: #fff;
      }

      .cls-1, .cls-2, .cls-3, .cls-4 {
        fill-rule: evenodd;
      }

      .cls-2 {
        fill: #1a87c7;
      }

      .cls-3 {
        fill: #bdedf8;
      }

      .cls-4 {
        fill: #66ceef;
      }
    </style>
  </defs>
  <g id="_Layer_" data-name="&amp;lt;Layer&amp;gt;">
    <g>
      <path class="cls-4" d="M20.68,22.81l4.78,2.76c.79.46,1.97,1.25,2.73,1.37,1.27.21,2.11-.68,2.11-2.25,0-2.03-1.43-4.51-3.17-5.53l-6.43-3.71-6.43-3.72c-.9-.5-1.69-.55-2.25-.22-.59.33-.95,1.05-.95,2.07,0,.47.08.97.22,1.46.34,1.2,1.04,2.4,1.94,3.26.67.66,1.49,1.05,2.22,1.47l5.25,3.03Z"/>
      <path class="cls-2" d="M20.85,22.52l4.78,2.77c.17.08.34.19.51.29.7.43,1.57.95,2.11,1.04.45.07.84-.02,1.12-.26.39-.33.59-.91.59-1.66,0-1.93-1.35-4.28-3.01-5.24l-12.87-7.43c-.76-.43-1.43-.51-1.94-.22-.48.29-.76.91-.76,1.78,0,.43.06.89.2,1.37.34,1.14,1.01,2.3,1.85,3.11.53.51,1.15.86,1.74,1.19l.42.23,5.25,3.03h0ZM28.52,27.31c-.11,0-.25,0-.39-.04-.67-.11-1.55-.64-2.33-1.12-.17-.1-.34-.21-.51-.29l-4.78-2.77h0l-5.68-3.25c-.59-.34-1.29-.72-1.88-1.3-.9-.9-1.66-2.14-2-3.41-.17-.54-.25-1.06-.25-1.55,0-1.11.39-1.95,1.12-2.35.7-.41,1.63-.34,2.58.22l12.87,7.42c1.83,1.07,3.34,3.68,3.34,5.82,0,.94-.31,1.71-.82,2.16-.36.3-.79.45-1.29.45Z"/>
      <path class="cls-3" d="M29.28,26.81l2.81-1.63h0c1.8-1.15.65-4.4-.48-5.95-.51-.65-1.07-1.23-1.77-1.64l-12.87-7.43c-.7-.39-1.52-.64-2.28-.22l-2.81,1.63c.76-.4,1.54-.19,2.28.22l12.84,7.42c2.75,1.62,4.33,6.29,2.28,7.6h0Z"/>
      <path class="cls-2" d="M13.35,11.11c.31.08.65.21.96.4l12.87,7.43c1.85,1.09,3.34,3.62,3.37,5.75,0,.4-.06.76-.14,1.09l1.52-.88c.39-.25.65-.64.73-1.16.25-1.31-.51-3.2-1.32-4.31-.48-.66-1.07-1.19-1.66-1.56l-12.87-7.42c-.79-.44-1.4-.51-1.94-.22l-1.52.88h0ZM29.28,27.14c-.11,0-.22-.05-.28-.16-.11-.15-.06-.35.08-.45.67-.42.81-1.23.81-1.83-.06-1.89-1.41-4.22-3.06-5.19l-12.84-7.43c-.79-.44-1.4-.5-1.94-.21-.17.08-.36.03-.45-.13-.08-.16-.03-.35.11-.45l2.81-1.63c.76-.4,1.63-.33,2.61.22l12.84,7.43c.7.41,1.35,1,1.88,1.73.93,1.25,1.71,3.31,1.43,4.82-.11.71-.48,1.25-1.04,1.6l-2.81,1.64c-.06.03-.11.04-.17.04Z"/>
      <path class="cls-1" d="M27.03,20.34c-1.18-.68-2.14-.13-2.14,1.23,0,.68.22,1.44.62,2.11.39.66.93,1.25,1.52,1.58,1.18.69,2.14.14,2.14-1.23,0-.67-.25-1.42-.65-2.1-.39-.67-.9-1.25-1.49-1.59Z"/>
      <path class="cls-2" d="M26.07,20.38c-.17,0-.28.04-.39.1-.31.17-.45.56-.45,1.09,0,.6.2,1.28.56,1.94.36.65.87,1.17,1.4,1.47.45.26.87.32,1.15.15.31-.17.48-.56.48-1.1,0-.6-.22-1.28-.59-1.93-.36-.65-.87-1.17-1.38-1.47h0c-.28-.17-.56-.25-.79-.25h0ZM27.98,25.89c-.36,0-.73-.11-1.12-.34-.62-.35-1.21-.96-1.63-1.71-.45-.74-.67-1.55-.67-2.26,0-.78.28-1.37.79-1.67.51-.29,1.15-.23,1.85.16h0c.62.35,1.18.96,1.63,1.71.42.74.65,1.55.65,2.26,0,.78-.28,1.38-.79,1.67-.22.13-.45.19-.7.19Z"/>
      <path class="cls-1" d="M20.59,16.63c-.59-.34-1.12-.37-1.52-.15h0c-.39.22-.62.7-.62,1.38s.22,1.44.62,2.1c.39.67.93,1.26,1.52,1.59.59.35,1.12.37,1.49.15.39-.22.65-.7.65-1.38s-.25-1.44-.65-2.1c-.37-.67-.9-1.26-1.49-1.6Z"/>
      <path class="cls-2" d="M19.27,16.75s-.03.01-.03.01c-.31.18-.45.57-.45,1.1,0,.6.2,1.29.56,1.93.39.65.87,1.17,1.41,1.47.45.27.87.33,1.18.16.28-.17.45-.56.45-1.1,0-.6-.22-1.29-.59-1.94-.37-.64-.87-1.17-1.38-1.46h0c-.45-.27-.87-.33-1.15-.17h0ZM21.55,22.18c-.37,0-.73-.11-1.12-.33-.62-.37-1.21-.97-1.63-1.71-.45-.75-.67-1.55-.67-2.27,0-.76.28-1.34.76-1.65,0,0,.03,0,.03-.02.51-.29,1.15-.24,1.85.15.62.35,1.18.97,1.63,1.71.42.74.65,1.55.65,2.26,0,.78-.28,1.37-.79,1.67-.2.12-.45.19-.7.19Z"/>
      <path class="cls-1" d="M20.59,17.38c-.42-.23-.79-.26-1.04-.1h-.03c-.25.17-.42.5-.42.96s.17,1,.45,1.46c.25.47.62.88,1.04,1.11.39.23.79.26,1.04.1.28-.15.45-.48.45-.96s-.17-.99-.45-1.46v-.03c-.28-.45-.65-.85-1.04-1.08Z"/>
      <path class="cls-2" d="M19.92,17.51c-.08,0-.14.02-.22.06-.17.1-.25.35-.25.67,0,.39.14.87.39,1.29.22.43.56.79.93.99.28.17.53.2.7.1.2-.09.28-.34.28-.67,0-.39-.14-.86-.39-1.3-.25-.45-.59-.79-.93-.99h0c-.2-.11-.37-.16-.51-.16h0ZM21.27,21.34c-.28,0-.56-.08-.84-.24-.45-.26-.87-.7-1.18-1.23-.31-.54-.48-1.12-.48-1.63,0-.57.2-1.01.59-1.24.39-.23.9-.2,1.41.09.42.25.84.68,1.15,1.2.31.57.48,1.15.48,1.66,0,.58-.2,1.03-.59,1.25-.17.09-.34.14-.53.14Z"/>
      <path class="cls-1" d="M14.16,12.92c-.59-.34-1.12-.37-1.52-.15h0c-.39.22-.62.71-.62,1.39s.23,1.42.62,2.1c.39.67.93,1.25,1.52,1.6.59.33,1.12.37,1.52.15.37-.22.62-.7.62-1.38s-.25-1.44-.62-2.11c-.39-.66-.93-1.25-1.52-1.59Z"/>
      <path class="cls-2" d="M13.2,12.96c-.14,0-.28.03-.39.1-.31.17-.45.56-.45,1.1,0,.6.2,1.29.56,1.93.39.65.87,1.17,1.4,1.47.45.26.87.32,1.18.15.28-.17.45-.56.45-1.09,0-.61-.2-1.29-.59-1.94-.37-.64-.87-1.17-1.38-1.47h0c-.28-.17-.56-.25-.79-.25h0ZM15.12,18.47c-.37,0-.73-.11-1.12-.35-.62-.35-1.21-.96-1.63-1.71s-.67-1.56-.67-2.26c0-.78.28-1.38.79-1.67.51-.3,1.18-.24,1.85.15h0c.62.35,1.18.96,1.63,1.72.42.74.65,1.54.65,2.26,0,.78-.28,1.37-.76,1.67-.22.12-.48.19-.73.19Z"/>
      <path class="cls-1" d="M14.16,13.67c-.42-.24-.79-.26-1.07-.1h0c-.25.16-.42.49-.42.96s.17.99.42,1.46c.28.47.65.87,1.07,1.11.39.23.79.26,1.04.1.28-.16.45-.49.45-.96s-.17-1-.45-1.46v-.03c-.28-.46-.65-.85-1.04-1.08Z"/>
      <path class="cls-2" d="M13.49,13.79c-.08,0-.14.02-.22.06-.17.11-.25.35-.25.68,0,.39.14.87.39,1.3.25.43.59.79.93.99.28.17.53.21.7.1.2-.09.28-.35.28-.67,0-.4-.14-.87-.39-1.31-.25-.44-.59-.78-.93-.99h0c-.17-.1-.34-.16-.51-.16h0ZM14.83,17.63c-.28,0-.56-.08-.84-.25-.45-.25-.87-.69-1.18-1.22-.31-.54-.48-1.12-.48-1.63,0-.57.22-1.02.59-1.24.39-.23.9-.19,1.4.09h0c.42.25.84.68,1.15,1.2.34.56.51,1.15.51,1.66,0,.58-.22,1.03-.62,1.25-.17.1-.34.14-.53.14Z"/>
      <path class="cls-4" d="M20.06,17.19c-.06,0-.14.04-.22.08h-.03c-.25.17-.42.5-.42.96s.17,1,.45,1.46.62.88,1.04,1.11c.2.1.37.17.53.19.08-.02.17-.05.22-.09.28-.15.45-.48.45-.96s-.17-.99-.45-1.46v-.03c-.28-.45-.65-.85-1.04-1.08-.2-.1-.36-.17-.53-.19Z"/>
      <path class="cls-2" d="M20.09,17.53s-.08.02-.08.04c-.17.1-.28.35-.28.67,0,.39.14.87.39,1.29.25.43.59.79.93.99.11.08.25.12.34.14.03-.01.08-.02.11-.04.17-.09.25-.34.25-.67,0-.39-.14-.86-.39-1.3-.25-.45-.59-.79-.93-.99-.11-.08-.25-.12-.34-.14h0ZM21.41,21.33h-.06c-.23-.04-.42-.12-.65-.24-.45-.26-.84-.7-1.15-1.23-.31-.54-.48-1.12-.48-1.63,0-.57.2-1.01.56-1.24.14-.08.25-.11.37-.13.06,0,.08,0,.11,0,.2.04.42.11.65.23.42.25.84.68,1.15,1.2.31.57.48,1.15.48,1.66,0,.58-.2,1.03-.59,1.25-.11.06-.22.1-.34.13h-.06Z"/>
      <path class="cls-4" d="M13.65,13.47c-.08.02-.17.04-.25.09h-.03c-.25.16-.42.49-.42.96s.17.99.45,1.46c.28.47.65.87,1.04,1.11.2.1.37.17.53.19.08-.01.17-.04.22-.08.28-.16.45-.49.45-.96s-.17-1-.45-1.46v-.03c-.28-.46-.65-.85-1.04-1.08-.17-.1-.37-.17-.51-.19Z"/>
      <path class="cls-2" d="M13.65,13.81s-.06.03-.08.04c-.17.11-.28.35-.28.68,0,.39.14.87.39,1.3.25.43.59.79.93.99.11.08.25.12.34.14.06,0,.08-.02.11-.04.17-.09.25-.35.25-.67,0-.4-.14-.87-.39-1.31-.25-.44-.59-.79-.93-.99-.11-.06-.22-.11-.34-.14h0ZM14.97,17.62s-.06,0-.06,0c-.2-.03-.42-.1-.65-.23-.42-.25-.84-.69-1.15-1.23-.31-.53-.48-1.11-.48-1.62,0-.57.2-1.02.56-1.24.14-.07.25-.11.39-.14h.11c.2.04.39.11.62.23.42.25.84.68,1.15,1.2.34.56.51,1.15.51,1.66,0,.58-.22,1.03-.62,1.25-.11.06-.22.1-.34.12-.03,0-.06,0-.06,0Z"/>
      <path class="cls-3" d="M18.63,32.86l2.81-1.63c1.49-.94.9-3.33.31-4.63-.59-1.2-1.4-2.26-2.56-2.96l-6.43-3.72-6.43-3.71c-.7-.38-1.46-.64-2.25-.22l-2.81,1.63c.76-.41,1.52-.18,2.25.22l6.43,3.71,6.43,3.71c1.29.78,2.22,2.06,2.75,3.45.39.99.59,2.06.28,3.09-.17.48-.37.78-.79,1.05Z"/>
      <path class="cls-2" d="M2.72,17.16c.34.08.67.24.96.39l12.84,7.44c1.63.97,2.5,2.5,2.92,3.61.48,1.23.56,2.28.31,3.23l1.52-.88c1.29-.82.73-3.04.17-4.21-.59-1.26-1.4-2.2-2.42-2.81l-12.87-7.42c-.79-.44-1.38-.51-1.94-.22l-1.49.88h0ZM18.63,33.19c-.11,0-.22-.06-.28-.15-.08-.16-.06-.35.11-.45.34-.22.48-.44.65-.89.23-.81.14-1.75-.28-2.86-.39-1.02-1.18-2.41-2.64-3.29l-12.84-7.42c-.81-.44-1.38-.5-1.94-.21-.17.08-.37.03-.45-.13-.08-.16-.03-.36.14-.45l2.81-1.63c.98-.52,1.94-.12,2.58.22l12.87,7.43c1.12.68,2.02,1.73,2.67,3.11.65,1.37,1.29,3.99-.39,5.05l-2.84,1.64c-.06.03-.11.04-.17.04Z"/>
      <path class="cls-4" d="M9.95,28.91l5.17,2.99c.9.51,1.8,1.15,2.64,1.17,1.09.03,1.8-.86,1.8-2.28,0-1.02-.34-2.14-.93-3.14l-.03-.02c-.56-.99-1.35-1.86-2.22-2.36l-6.43-3.71-6.43-3.71c-.9-.51-1.69-.56-2.25-.22-.59.33-.96,1.04-.96,2.06,0,1.4.67,3.04,1.74,4.28.9,1.07,2.08,1.59,3.09,2.17l4.8,2.78Z"/>
      <path class="cls-2" d="M2.08,17.73c-.22,0-.48.06-.67.17-.48.29-.76.92-.76,1.78,0,1.31.65,2.86,1.66,4.06.7.84,1.6,1.32,2.44,1.8.2.1.37.2.56.31l4.8,2.77h0l5.17,2.99c.14.09.31.18.45.27.7.41,1.4.84,2.02.86.36.02.7-.1.95-.35.34-.33.53-.9.53-1.6,0-.93-.34-1.99-.9-2.98-.59-1.01-1.35-1.8-2.14-2.26l-12.87-7.43c-.45-.26-.87-.39-1.26-.39h0ZM17.81,33.4h-.08c-.76-.02-1.55-.49-2.33-.95l-.45-.26-9.97-5.77c-.2-.1-.36-.21-.53-.3-.87-.47-1.85-1.02-2.64-1.95-1.12-1.31-1.8-3.03-1.8-4.49,0-1.11.39-1.94,1.09-2.35.7-.41,1.63-.33,2.59.22l12.84,7.43c.9.51,1.74,1.39,2.39,2.47.65,1.12.98,2.3.98,3.34,0,.89-.25,1.61-.73,2.08-.37.34-.84.53-1.35.53Z"/>
      <path class="cls-1" d="M16.38,26.49c-1.18-.68-2.14-.13-2.14,1.23,0,.68.23,1.44.62,2.1.39.67.93,1.26,1.52,1.59.59.35,1.12.37,1.52.15.37-.22.59-.7.59-1.38s-.22-1.44-.62-2.1c-.37-.67-.9-1.26-1.49-1.6Z"/>
      <path class="cls-2" d="M15.42,26.53c-.14,0-.28.03-.39.1-.31.18-.48.56-.48,1.1,0,.6.22,1.29.59,1.93.39.65.87,1.17,1.38,1.47.48.27.9.33,1.21.16.28-.18.45-.56.45-1.1,0-.6-.2-1.29-.59-1.94-.37-.64-.87-1.16-1.38-1.47h0c-.28-.16-.56-.25-.79-.25h0ZM17.33,32.04c-.37,0-.73-.11-1.12-.33-.62-.36-1.21-.97-1.63-1.72-.42-.74-.67-1.56-.67-2.26,0-.78.28-1.38.79-1.67.51-.3,1.18-.24,1.83.15.65.36,1.21.97,1.63,1.72.45.74.67,1.55.67,2.26,0,.78-.28,1.37-.79,1.67-.2.12-.45.19-.7.19Z"/>
      <path class="cls-1" d="M9.95,22.78c-1.18-.68-2.14-.13-2.14,1.23,0,.68.25,1.44.62,2.1.39.67.93,1.25,1.52,1.59.59.34,1.12.37,1.52.15.37-.22.62-.7.62-1.38s-.25-1.44-.62-2.11c-.39-.67-.93-1.25-1.52-1.59Z"/>
      <path class="cls-2" d="M8.99,22.81c-.14,0-.28.04-.39.1-.28.17-.45.56-.45,1.09,0,.6.2,1.28.56,1.94.39.65.87,1.18,1.4,1.48.45.27.87.32,1.18.15.28-.17.45-.56.45-1.09,0-.61-.2-1.29-.59-1.94-.37-.65-.87-1.17-1.38-1.48h0c-.28-.17-.56-.25-.79-.25h0ZM10.9,28.33c-.37,0-.73-.12-1.12-.35-.62-.35-1.21-.96-1.63-1.71-.42-.76-.67-1.56-.67-2.27,0-.78.28-1.37.79-1.66.51-.3,1.18-.24,1.85.15h0c.62.35,1.18.96,1.63,1.71.42.76.65,1.56.65,2.28,0,.78-.25,1.37-.79,1.67-.2.12-.45.19-.7.19Z"/>
      <path class="cls-1" d="M3.65,19.07c-1.18-.68-2.14-.13-2.14,1.23,0,.68.25,1.44.65,2.11.37.66.9,1.25,1.49,1.58.59.35,1.12.38,1.52.16.39-.22.62-.7.62-1.39s-.22-1.42-.62-2.1c-.39-.67-.93-1.25-1.52-1.6Z"/>
      <path class="cls-2" d="M2.7,19.1c-.14,0-.28.04-.39.1-.28.17-.45.56-.45,1.09,0,.61.2,1.29.59,1.94.37.66.84,1.17,1.38,1.47.45.27.87.32,1.18.15.28-.17.45-.56.45-1.1,0-.6-.2-1.29-.59-1.93-.37-.65-.84-1.17-1.38-1.47h0c-.28-.17-.56-.25-.79-.25h0ZM4.61,24.61c-.34,0-.73-.11-1.12-.33-.62-.35-1.18-.96-1.63-1.72-.42-.74-.67-1.55-.67-2.26,0-.78.28-1.37.81-1.67.51-.29,1.15-.23,1.83.16h0c.62.35,1.21.96,1.63,1.71.42.74.67,1.56.67,2.26,0,.78-.28,1.38-.79,1.67-.22.13-.48.19-.73.19Z"/>
      <polygon class="cls-1" points="17.62 24.3 28.57 17.99 28.57 14.08 17.62 20.4 17.62 24.3"/>
      <path class="cls-2" d="M17.95,20.58v3.15l10.28-5.95v-3.14l-10.28,5.94h0ZM17.62,24.64c-.06,0-.11-.02-.17-.05-.08-.07-.17-.17-.17-.29v-3.91c0-.12.08-.22.17-.29l10.96-6.32c.11-.06.22-.06.34,0,.08.06.17.17.17.29v3.91c0,.11-.08.22-.17.28l-10.96,6.33c-.06.02-.11.05-.17.05Z"/>
      <polygon class="cls-1" points="17.62 20.4 28.57 14.08 15.99 6.82 5.03 13.14 17.62 20.4"/>
      <path class="cls-2" d="M5.7,13.14l11.91,6.88,10.31-5.94-11.94-6.89-10.28,5.94h0ZM17.62,20.73c-.06,0-.11,0-.17-.04l-12.59-7.26c-.08-.06-.14-.17-.14-.29s.06-.22.14-.29l10.96-6.32c.11-.07.25-.07.34,0l12.59,7.26c.08.06.17.17.17.29,0,.11-.08.22-.17.28l-10.96,6.33c-.06.03-.11.04-.17.04Z"/>
      <polygon class="cls-3" points="5.03 17.04 17.62 24.3 17.62 20.4 5.03 13.14 5.03 17.04"/>
      <path class="cls-2" d="M5.37,16.86l11.91,6.88v-3.15l-11.91-6.88v3.15h0ZM17.62,24.64c-.06,0-.11-.02-.17-.05l-12.59-7.26c-.08-.06-.14-.17-.14-.29v-3.91c0-.12.06-.22.14-.29.11-.06.25-.06.34,0l12.59,7.26c.11.07.17.17.17.29v3.91c0,.12-.06.22-.17.29-.06.02-.11.05-.17.05Z"/>
      <path class="cls-1" d="M11.29.48c-.28-.15-.51-.21-.79-.08L1.8,5.43c.31-.14.51-.07.79.07l8.23,4.75c.37.23.56.47.79.82l8.71-5.02c-.23-.36-.42-.6-.79-.82L11.29.48Z"/>
      <path class="cls-2" d="M2.78,5.24l8.2,4.74c.34.21.53.41.73.66l8.12-4.7c-.14-.16-.28-.3-.48-.43L11.13.77c-.22-.12-.34-.14-.48-.08L2.78,5.24h0ZM11.6,11.42c-.11,0-.22-.06-.28-.16-.2-.31-.37-.51-.67-.72L2.42,5.79c-.22-.12-.31-.13-.48-.06-.14.07-.34,0-.42-.15-.08-.16-.03-.35.11-.44L10.34.12c.48-.22.81-.08,1.1.06h.03s8.23,4.76,8.23,4.76c.42.28.65.57.9.94.03.08.06.16.03.25-.03.08-.08.16-.17.21l-8.68,5.02c-.06.03-.11.05-.17.05Z"/>
      <path class="cls-1" d="M11.6,20.95l8.71-5.03c.25-.18.31-.4.31-.71V7.14c0-.39-.14-.74-.31-1.08l-8.71,5.02c.2.35.31.69.31,1.09v8.06c0,.31-.06.53-.31.72Z"/>
      <path class="cls-2" d="M12.02,11.21c.14.33.23.62.23.95v8.02l7.9-4.55c.11-.08.14-.17.14-.45V7.14c0-.21-.03-.4-.11-.62l-8.15,4.69h0ZM11.6,21.28c-.11,0-.22-.06-.28-.15-.08-.15-.06-.35.08-.45.14-.09.17-.18.2-.45v-8.06c-.03-.31-.11-.59-.28-.92-.11-.16-.06-.36.11-.45l8.71-5.04c.06-.04.17-.05.25-.03.08.02.14.08.2.16.23.43.37.82.37,1.24v8.07c-.03.34-.06.71-.48.98l-8.71,5.04c-.06.04-.11.05-.17.05Z"/>
      <path class="cls-3" d="M10.82,10.26L2.58,5.5c-.62-.35-1.1-.06-1.1.64v8.07c0,.35.11.74.31,1.08.2.34.48.64.79.82l.93.54,7.31,4.22c.62.34,1.1.06,1.1-.64v-8.06c0-.7-.48-1.56-1.1-1.91Z"/>
      <path class="cls-2" d="M2.11,5.68c-.06,0-.11.01-.14.03-.08.05-.14.21-.14.43v8.07c0,.27.08.61.28.91.17.31.39.57.65.71l8.23,4.75c.2.1.34.13.45.08.11-.06.17-.22.17-.43v-8.06c0-.59-.45-1.33-.96-1.62h0L2.42,5.79c-.11-.07-.22-.11-.31-.11h0ZM11.32,21.35c-.22,0-.45-.07-.67-.2l-8.23-4.75c-.34-.2-.65-.53-.9-.94-.22-.41-.36-.86-.36-1.25V6.14c0-.46.17-.82.48-1,.34-.18.73-.15,1.12.07l8.23,4.76c.7.4,1.27,1.37,1.27,2.19v8.06c0,.45-.17.82-.48,1-.14.08-.31.12-.45.12Z"/>
      <path class="cls-1" d="M43.6,32.47v-7.77l-11.55,6.66v7.77c0,.28-.03.47-.25.66l11.49-6.61c.25-.18.28-.41.31-.71Z"/>
      <path class="cls-2" d="M32.39,31.55v7.52l10.73-6.18c.11-.08.14-.17.14-.43v-7.2l-10.87,6.28h0ZM31.8,40.12c-.08,0-.17-.05-.25-.13-.08-.14-.08-.33.06-.44.11-.11.14-.2.14-.44v-7.76c0-.12.06-.22.14-.29l11.55-6.66c.11-.06.23-.06.34,0,.08.06.17.17.17.29v7.77h0c-.03.33-.08.7-.48.98l-11.49,6.63c-.06.03-.11.05-.17.05Z"/>
      <path class="cls-1" d="M32.06,31.35l11.55-6.66-1.71-1-1.15-.65c-.2-.1-.42-.24-.56-.16l-11.69,6.76c.22,0,.53-.05.73.06l1.12.66,1.71.99Z"/>
      <path class="cls-2" d="M40.37,23.17h-.03.03ZM29.47,29.46l2.59,1.51,10.9-6.27-2.39-1.37c-.08-.04-.2-.11-.25-.13l-10.85,6.26h0ZM32.06,31.69c-.06,0-.11-.02-.17-.05l-2.84-1.65c-.08-.04-.31-.03-.42-.02h-.14c-.17,0-.28-.1-.34-.23-.03-.15.03-.31.17-.38l11.72-6.76c.25-.17.59,0,.81.13l2.92,1.68c.08.06.17.17.17.29,0,.11-.08.22-.17.28l-11.55,6.66c-.06.03-.11.05-.17.05Z"/>
      <path class="cls-3" d="M24.11,35.8l6.86,3.96c.62.35,1.1.07,1.1-.63v-7.77l-2.78-1.61c-.22-.12-.39-.18-.56-.16-.28.04-.39.24-.56.46l-4.05,5.76Z"/>
      <path class="cls-2" d="M24.58,35.7l6.55,3.78c.2.1.37.13.45.07.11-.06.17-.21.17-.43v-7.57l-2.64-1.53c-.14-.07-.28-.11-.37-.11-.08.02-.14.06-.25.24l-.06.07-3.85,5.47h0ZM31.47,40.24c-.2,0-.45-.07-.67-.2l-6.86-3.96c-.06-.05-.11-.12-.14-.21-.03-.1,0-.19.06-.26l4.1-5.84c.14-.21.31-.47.7-.52.25-.03.51.04.79.2l2.78,1.61c.11.06.17.17.17.29v7.77c0,.46-.17.82-.48,1-.14.08-.28.12-.45.12Z"/>
      <path class="cls-4" d="M10.11,12.08l-6.8-3.91c-.25-.14-.45-.03-.45.25v4.15c0,.28.2.62.45.76l6.8,3.93c.22.14.42.03.42-.26v-4.14c0-.29-.2-.64-.42-.78Z"/>
      <path class="cls-2" d="M3.2,8.49v4.08c0,.17.14.4.28.49l6.71,3.89.03-4.08c0-.17-.14-.4-.28-.49l-6.74-3.89h0ZM10.28,17.65c-.11,0-.22-.04-.34-.1l-6.8-3.92c-.36-.2-.62-.65-.62-1.05v-4.15c0-.25.11-.47.31-.57.17-.11.42-.1.65.03l6.77,3.92h0c.36.2.62.66.62,1.06v4.14c0,.26-.11.47-.31.58-.08.04-.17.07-.28.07Z"/>
      <path class="cls-1" d="M23.54,16.98l2.81-1.63c.62-.88,2.44-3.42,2.5-3.45l-2.84,1.63c-.06.04-.08.07-.14.14l-2.33,3.31Z"/>
      <path class="cls-2" d="M27.67,12.96l-1.49.85s-.03.02-.06.06l-1.46,2.07,1.46-.85c.2-.25.9-1.27,1.54-2.14h0ZM23.54,17.3c-.08,0-.17-.04-.25-.1-.08-.12-.11-.29,0-.42l2.3-3.3c.08-.11.14-.17.25-.23l2.84-1.64c.14-.08.34-.04.45.11.08.13.06.29-.06.4-.14.19-1.83,2.55-2.44,3.42-.03.04-.06.07-.11.09l-2.81,1.62c-.06.04-.11.05-.17.05Z"/>
      <path class="cls-1" d="M36.44,28.83l2.81-1.62v-9.95c0-.4-.14-.74-.34-1.08l-2.81,1.62c.2.35.31.69.34,1.08v9.95Z"/>
      <path class="cls-2" d="M36.55,17.93c.14.31.2.62.2.95v9.39l2.16-1.25v-9.76c0-.21-.03-.41-.14-.63l-2.22,1.3h0ZM36.75,28.83h.03-.03ZM36.44,29.17c-.08,0-.14-.02-.17-.05-.11-.06-.17-.17-.17-.29v-9.95c-.03-.3-.11-.59-.28-.92-.08-.15-.03-.35.11-.45l2.84-1.62c.06-.05.17-.06.25-.04.08.03.14.08.2.16.22.43.34.82.37,1.24v9.96c0,.11-.06.22-.17.28l-2.84,1.63s-.08.05-.14.05Z"/>
      <path class="cls-1" d="M36.1,17.8l2.81-1.62c-.2-.36-.42-.6-.76-.83l-9.36-5.39c-.25-.15-.51-.23-.79-.08l-2.81,1.62c.28-.14.53-.06.79.08l9.36,5.4c.34.22.53.47.76.82Z"/>
      <path class="cls-2" d="M26.18,11.32l9.3,5.37c.34.21.53.42.73.67l2.25-1.3c-.14-.17-.28-.3-.51-.44l-9.33-5.39c-.25-.13-.34-.13-.45-.08l-1.99,1.15h0ZM36.1,18.13c-.11,0-.23-.05-.28-.16-.17-.31-.34-.51-.67-.72l-9.33-5.39c-.25-.14-.34-.14-.45-.07-.17.07-.36.02-.45-.14-.08-.16-.03-.35.11-.45l2.84-1.62c.42-.22.79-.08,1.09.08l9.36,5.41c.42.27.65.56.9.93.03.07.06.17.03.25s-.08.16-.17.21l-2.81,1.63c-.06.03-.11.05-.17.05Z"/>
      <path class="cls-3" d="M25.03,11.67l-3.09,4.39,1.6.92,2.33-3.31c.08-.12.2-.19.34-.21h0c.14,0,.31.03.48.13l7.39,4.26c.53.31.95,1.05.95,1.67v8.52l1.41.79v-9.95c0-.35-.14-.74-.34-1.08-.2-.35-.48-.64-.76-.82l-9.36-5.4c-.2-.12-.39-.17-.56-.16h0c-.17.02-.28.1-.39.24Z"/>
      <path class="cls-2" d="M35.37,27.85l.73.42v-9.39c0-.27-.11-.61-.28-.91-.17-.31-.42-.56-.65-.7l-9.36-5.4c-.14-.08-.28-.13-.37-.11-.03,0-.08.02-.14.1l-2.89,4.08,1.04.6,2.14-3.06c.14-.21.36-.33.59-.35.23-.02.45.04.67.17l7.39,4.27c.62.36,1.12,1.22,1.12,1.95v8.32h0ZM36.44,29.17c-.08,0-.14-.02-.17-.05l-1.41-.8c-.08-.06-.14-.17-.14-.28v-8.52c0-.49-.39-1.14-.81-1.38l-7.36-4.26c-.11-.07-.22-.1-.31-.09-.03,0-.08.03-.11.07l-2.3,3.3c-.11.14-.28.19-.45.09l-1.6-.92c-.06-.05-.11-.12-.14-.21-.03-.08,0-.18.06-.26l3.06-4.38h0c.17-.22.39-.35.65-.38.25,0,.48.04.76.2l9.33,5.39c.36.2.67.53.9.94.25.41.37.86.37,1.25v9.95c0,.12-.06.23-.17.29-.03.03-.08.05-.14.05Z"/>
      <path class="cls-4" d="M13.32,12.11l5.98-3.47c.25-.15.45-.03.45.25v4.15c0,.28-.2.62-.45.76l-5.98,3.47c-.25.15-.45.03-.45-.25v-4.15c0-.28.2-.62.45-.76Z"/>
      <path class="cls-2" d="M13.49,12.39c-.17.08-.28.32-.28.48v4.08l5.96-3.43c.14-.08.25-.32.25-.49v-4.08l-5.93,3.43h0ZM13.12,17.67c-.11,0-.2-.02-.28-.08-.2-.1-.31-.32-.31-.57v-4.15c0-.4.25-.86.62-1.05h0l6.01-3.47c.2-.13.45-.14.65-.03.17.1.28.31.28.57v4.15c0,.4-.25.86-.62,1.05l-5.98,3.47c-.14.08-.25.1-.37.1Z"/>
      <path class="cls-4" d="M38.35,14.6c-.31-.18-.7-.3-1.07-.12l-3.06,1.78c.59-.3,1.32.24,1.69.67.53.6.98,1.57.84,2.39-.03.27-.14.51-.39.67l3.09-1.78c.42-.27.45-.93.37-1.39-.14-.86-.7-1.77-1.46-2.22Z"/>
      <path class="cls-2" d="M35.29,16.02c.34.17.65.42.87.7.53.61,1.01,1.58.96,2.46l2.16-1.26c.28-.17.28-.66.22-1.04-.14-.79-.67-1.61-1.32-1.99-.17-.1-.51-.24-.73-.12l-2.16,1.25h0ZM36.36,20.32c-.11,0-.22-.06-.28-.16-.08-.15-.06-.34.11-.45.11-.08.2-.23.25-.45.11-.72-.31-1.59-.76-2.11-.36-.42-.95-.79-1.32-.6-.17.07-.37.02-.45-.14-.08-.16-.03-.35.14-.45l3.09-1.77c.39-.21.84-.18,1.35.11.03,0,.03.01.03.01.79.48,1.46,1.45,1.63,2.44.06.29.17,1.29-.53,1.72l-3.09,1.78c-.06.04-.11.05-.17.05Z"/>
      <path class="cls-3" d="M36.33,17.52c-.28-.48-.65-.9-1.07-1.14-.42-.24-.81-.26-1.07-.1-.28.16-.45.49-.45.98s.17,1.03.45,1.5c.25.47.65.89,1.07,1.14.42.24.79.27,1.07.1.28-.16.45-.5.45-.98s-.17-1.03-.45-1.5Z"/>
      <path class="cls-2" d="M34.59,16.5c-.08,0-.17.02-.22.06-.2.1-.28.36-.28.7,0,.41.14.89.39,1.33.25.45.59.82.95,1.02.31.18.56.21.73.11.2-.1.28-.36.28-.7,0-.41-.14-.9-.39-1.33-.25-.45-.59-.81-.95-1.01-.17-.11-.37-.17-.51-.17h0ZM35.93,20.44c-.25,0-.53-.08-.84-.25-.45-.26-.87-.71-1.21-1.26-.31-.55-.48-1.14-.48-1.67,0-.59.22-1.04.62-1.27.39-.22.9-.19,1.4.1.45.27.87.72,1.21,1.26.31.55.48,1.14.48,1.67,0,.59-.22,1.04-.62,1.27-.17.1-.36.15-.56.15Z"/>
      <path class="cls-3" d="M26.27,13.13c-.28-.47-.65-.89-1.07-1.14-.42-.24-.81-.27-1.07-.11-.28.17-.45.5-.45.99s.17,1.03.45,1.5c.25.48.65.9,1.07,1.14.42.24.79.26,1.07.1.28-.16.45-.49.45-.98s-.17-1.03-.45-1.5Z"/>
      <path class="cls-2" d="M24.53,12.11c-.08,0-.17.02-.25.06-.17.1-.28.37-.28.7,0,.41.17.9.42,1.33.25.45.59.81.95,1.02.28.17.56.21.73.11.2-.1.28-.36.28-.7,0-.41-.14-.89-.39-1.33h0c-.25-.45-.59-.82-.95-1.02-.2-.11-.37-.17-.51-.17h0ZM25.88,16.05c-.25,0-.53-.08-.84-.25-.45-.27-.87-.72-1.18-1.26-.34-.55-.51-1.14-.51-1.67,0-.59.23-1.04.62-1.27.39-.23.9-.2,1.41.1.45.26.87.71,1.18,1.26h0c.34.55.51,1.14.51,1.67,0,.59-.22,1.05-.62,1.27-.17.1-.37.15-.56.15Z"/>
      <path class="cls-3" d="M19.75,11.13l-6.88,3.98v1.91c0,.28.2.4.45.25l5.98-3.47c.25-.14.45-.48.45-.76v-1.91Z"/>
      <path class="cls-2" d="M13.2,15.3v1.66l5.96-3.43c.14-.08.25-.32.25-.49v-1.34l-6.21,3.6h0ZM13.12,17.67c-.11,0-.2-.02-.28-.08-.2-.1-.31-.32-.31-.57v-1.91c0-.12.06-.23.17-.29l6.88-3.98c.11-.06.25-.06.34,0,.11.06.17.17.17.29v1.91c0,.4-.25.86-.62,1.05l-5.98,3.47c-.14.08-.25.1-.37.1Z"/>
      <path class="cls-3" d="M2.87,12.01v.56c0,.14.06.3.11.44h.03c.06.14.17.26.31.33l6.77,3.93c.14.06.22.07.31.03.08-.05.14-.14.14-.29v-.55l-7.67-4.44Z"/>
      <path class="cls-2" d="M3.26,12.82s.03.02.03.02c.06.09.11.18.2.22l6.71,3.89.03-.31-7.02-4.04c0,.06.03.16.06.23h0ZM10.28,17.65c-.11,0-.22-.04-.34-.1l-6.8-3.92c-.17-.09-.31-.24-.42-.43,0,0-.03-.02-.03-.03-.11-.19-.17-.4-.17-.6v-.56c0-.11.06-.22.17-.28.11-.06.22-.06.34,0l7.67,4.43c.11.07.17.17.17.29v.55c0,.26-.11.47-.31.58-.08.04-.17.07-.28.07Z"/>
      <path class="cls-4" d="M26.02,22.17c0,.35.14.74.34,1.08.2.35.48.64.79.82.53.32.87-.02.87-.64,0-.34-.14-.74-.31-1.08-.22-.35-.48-.64-.79-.82-.53-.31-.9.02-.9.64Z"/>
      <path class="cls-2" d="M26.52,21.75s-.03,0-.03.02c-.08.02-.14.17-.14.4,0,.28.11.62.28.91.17.31.42.56.65.7.11.07.22.1.28.07.06-.03.11-.18.11-.41,0-.28-.08-.6-.28-.91-.17-.31-.39-.56-.65-.7-.08-.05-.17-.07-.22-.07h0ZM27.51,24.52c-.14,0-.34-.04-.53-.16-.37-.21-.67-.53-.9-.94-.22-.41-.37-.85-.37-1.25,0-.46.17-.81.45-.98.14-.08.48-.2.93.06.34.2.65.53.9.94.22.4.37.85.37,1.24,0,.47-.17.82-.48.99-.06.04-.2.09-.37.09Z"/>
      <path class="cls-4" d="M8.96,24.61c0,.35.11.74.31,1.08.2.34.48.64.79.81.53.32.87-.02.87-.64,0-.35-.11-.74-.34-1.07-.2-.35-.45-.64-.76-.82-.53-.31-.87.02-.87.64Z"/>
      <path class="cls-2" d="M9.47,24.19s-.06,0-.06,0c-.06.03-.14.18-.14.41,0,.27.11.61.28.91.2.3.42.56.67.7.08.07.2.09.25.07.06-.04.11-.18.11-.42,0-.27-.08-.61-.28-.91-.17-.3-.39-.56-.65-.7-.08-.04-.14-.06-.2-.06h0ZM10.42,26.96c-.14,0-.34-.05-.53-.17-.34-.19-.67-.53-.9-.94-.25-.4-.36-.85-.36-1.24,0-.47.17-.82.45-.99.14-.08.48-.2.93.06.34.2.65.53.9.94.22.4.36.85.36,1.24,0,.47-.17.82-.45.99-.08.04-.22.1-.39.1Z"/>
      <path class="cls-4" d="M2.67,20.89c0,.36.11.74.31,1.08.2.35.48.64.79.82.56.32.87-.02.87-.63,0-.35-.11-.74-.31-1.08-.2-.35-.48-.64-.79-.81-.53-.32-.87.01-.87.62Z"/>
      <path class="cls-2" d="M3.17,20.47s-.06.01-.06.02c-.06.03-.11.17-.11.4,0,.28.08.62.25.92.2.31.42.56.67.7.11.06.23.09.25.06.06-.03.14-.18.14-.41,0-.28-.11-.61-.28-.91-.2-.31-.42-.56-.67-.7-.08-.05-.14-.08-.2-.08h0ZM4.16,23.24c-.17,0-.34-.04-.56-.16-.34-.21-.67-.53-.9-.94-.22-.41-.37-.85-.37-1.25,0-.45.17-.81.45-.98.17-.08.48-.2.93.06.34.2.67.53.9.94.22.4.36.85.36,1.24,0,.47-.17.82-.45.99-.08.05-.2.09-.37.09Z"/>
      <path class="cls-4" d="M15.4,28.32c0,.34.11.74.31,1.08.2.35.48.64.76.81.56.32.9-.02.9-.62,0-.35-.11-.74-.34-1.08-.2-.35-.45-.64-.76-.82-.53-.31-.87.02-.87.64Z"/>
      <path class="cls-2" d="M15.9,27.9s-.06,0-.06,0c-.06.04-.14.18-.14.41,0,.28.11.6.28.91.2.31.42.56.65.7.11.07.22.1.28.07.06-.04.11-.18.11-.41,0-.28-.08-.62-.28-.91-.17-.31-.42-.56-.65-.7-.08-.05-.17-.08-.2-.08h0ZM16.86,30.67c-.14,0-.34-.05-.56-.17-.31-.2-.65-.53-.87-.93-.25-.41-.37-.86-.37-1.25,0-.47.17-.81.45-.98.14-.09.48-.21.93.06.34.2.65.53.9.94.22.41.36.85.36,1.25,0,.47-.17.81-.45.98-.08.05-.22.1-.39.1Z"/>
      <path class="cls-2" d="M19.55,31.13c-.11,0-.22-.06-.28-.17-.08-.16-.03-.36.11-.45l2.84-1.63c.14-.09.34-.04.45.12.08.16.03.35-.14.45l-2.81,1.63c-.06.03-.11.05-.17.05Z"/>
      <path class="cls-2" d="M18.82,28.35c-.11,0-.22-.05-.28-.17-.08-.16-.03-.35.11-.45l2.84-1.63c.14-.08.34-.04.45.12.08.16.03.36-.14.46l-2.81,1.62c-.06.04-.11.04-.17.04Z"/>
      <path class="cls-2" d="M17.11,26.12c-.11,0-.23-.06-.28-.16-.08-.16-.03-.36.11-.46l2.84-1.62c.14-.1.34-.04.42.12.11.16.06.35-.11.45l-2.81,1.63c-.06.03-.11.04-.17.04Z"/>
      <path class="cls-2" d="M14.78,24.69c-.11,0-.22-.07-.28-.17-.08-.16-.03-.36.11-.46l1.46-.82c.14-.09.34-.04.45.11.08.16.03.37-.14.46l-1.43.83c-.06.03-.11.05-.17.05Z"/>
      <path class="cls-2" d="M30.29,25.02c-.11,0-.22-.06-.28-.16-.08-.16-.03-.36.11-.46l2.73-1.57c.17-.09.36-.05.45.12.11.15.06.35-.11.45l-2.72,1.58c-.06.03-.11.04-.17.04Z"/>
      <path class="cls-2" d="M29.56,22.25c-.11,0-.22-.06-.28-.17-.08-.16-.03-.35.11-.45l2.67-1.54c.14-.09.34-.04.45.12.08.16.03.36-.14.45l-2.64,1.53c-.06.03-.11.05-.17.05Z"/>
      <path class="cls-2" d="M27.84,20.03c-.11,0-.22-.06-.28-.17-.08-.15-.03-.35.11-.45l2.7-1.56c.17-.09.37-.04.45.12.08.16.06.36-.11.46l-2.7,1.54c-.06.04-.11.05-.17.05Z"/>
      <path class="cls-2" d="M12.56,23.39c-.11,0-.22-.05-.31-.17-.08-.16-.03-.35.14-.45l1.43-.83c.17-.09.37-.04.45.12.08.16.03.37-.11.45l-1.43.83c-.06.03-.11.04-.17.04Z"/>
      <path class="cls-2" d="M10.31,22.1c-.11,0-.22-.06-.28-.16-.08-.16-.03-.36.11-.46l1.43-.83c.17-.08.37-.04.45.12.11.16.06.37-.11.46l-1.43.83c-.06.03-.11.04-.17.04Z"/>
      <path class="cls-2" d="M8.09,20.81c-.14,0-.22-.07-.31-.17-.08-.16-.03-.36.14-.45l1.01-.6c.17-.09.37-.04.45.12.11.16.06.36-.11.45l-1.04.6s-.08.05-.14.05Z"/>
      <path class="cls-2" d="M5.84,19.51c-.11,0-.22-.06-.28-.17-.11-.15-.06-.35.11-.45l1.04-.6c.14-.09.34-.04.45.12.08.16.03.36-.14.44l-1.01.6c-.06.04-.11.04-.17.04Z"/>
      <path class="cls-2" d="M3.6,18.23c-.11,0-.22-.06-.28-.17-.08-.16-.03-.36.11-.45l1.04-.6c.17-.09.37-.04.45.12.08.15.03.35-.11.45l-1.04.6c-.06.03-.11.05-.17.05Z"/>
      <path class="cls-4" d="M24.11,11.89c1.43-.71,3.51,2.82,2.16,3.73l1.97-1.14-.76-.45c-.11-1.11-.53-1.89-1.32-2.35l2.81-1.62,1.49.85c-.37-.69-1.32-1.84-2.22-1.41-1.35.79-2.73,1.57-4.13,2.39Z"/>
      <path class="cls-2" d="M25.2,11.65c.51.25.95.77,1.29,1.33.34.58.56,1.24.53,1.82l.56-.32-.28-.16c-.11-.06-.17-.16-.17-.26-.08-1.02-.45-1.7-1.15-2.09-.08-.06-.14-.17-.14-.29,0-.11.06-.22.14-.28l2.84-1.63h0c-.14-.05-.28-.05-.42.03l-3.2,1.84h0ZM26.27,15.95c-.11,0-.22-.06-.28-.16-.08-.15-.06-.35.08-.45.51-.34.31-1.28-.14-2.04-.42-.74-1.15-1.38-1.69-1.12-.14.08-.34.02-.42-.14-.08-.16-.03-.35.11-.44l4.16-2.39c1.07-.54,2.19.66,2.67,1.55.06.13.03.29-.08.39-.08.1-.25.12-.39.05l-1.32-.75-2.19,1.27c.56.49.9,1.2,1.01,2.11l.62.36c.08.06.17.17.17.29,0,.11-.08.22-.17.29l-1.97,1.14c-.06.03-.11.05-.17.05Z"/>
    </g>
  </g>
</svg>