<?xml version="1.0" encoding="UTF-8"?>
<svg id="Layer_2" data-name="Layer 2" xmlns="http://www.w3.org/2000/svg" viewBox="0 0 32.66 46.56" fill="currentColor">
  <defs>
    <style>
      .cls-1 {
        fill: #fff;
      }

      .cls-1, .cls-2, .cls-3, .cls-4 {
        fill-rule: evenodd;
      }

      .cls-2 {
        fill: #1a87c7;
      }

      .cls-3 {
        fill: #bdedf8;
      }

      .cls-4 {
        fill: #66ceef;
      }
    </style>
  </defs>
  <g id="_Layer_" data-name="&amp;lt;Layer&amp;gt;">
    <g>
      <path class="cls-1" d="M15.19,27.83l-9.51,5.49.9.52,9.06-5.23c.15-.1.08-.34.02-.47-.07-.15-.29-.4-.47-.31Z"/>
      <path class="cls-2" d="M6.3,33.31l.29.17,8.83-5.1s-.02-.07-.03-.11c-.03-.05-.07-.11-.11-.14l-8.98,5.18h0ZM6.59,34.15c-.05,0-.1-.01-.15-.04l-.9-.52c-.1-.06-.15-.16-.15-.27s.05-.21.15-.27l9.51-5.49s0,0,.02-.01c.35-.17.72.11.89.46.17.36.12.7-.13.86l-9.07,5.24c-.05.03-.11.04-.16.04Z"/>
      <path class="cls-1" d="M15.19,25.11l-9.22,5.32.9.52,8.77-5.06c.15-.1.08-.34.02-.47-.07-.15-.29-.4-.47-.31Z"/>
      <path class="cls-2" d="M6.59,30.44l.29.17,8.54-4.93s-.02-.07-.03-.12c-.03-.05-.07-.11-.11-.14l-8.69,5.02h0ZM6.87,31.27c-.05,0-.11-.01-.16-.04l-.9-.52c-.1-.06-.16-.16-.16-.27s.06-.21.16-.27l9.22-5.32s0,0,.02-.01c.35-.16.71.11.89.46.17.36.12.7-.13.86l-8.78,5.07c-.05.03-.1.04-.16.04Z"/>
      <path class="cls-3" d="M16.28,30.18c.17-.09,1.05-.61,1.15-.65.52-.22,1.15.15,1.53.5.69.63,1.25,1.73,1.17,2.67-.03.34-.15.69-.45.88l-1.08.63c.2-.14.32-.32.39-.56.22-.75-.15-1.72-.56-2.34-.36-.53-1-1.17-1.68-1.22-.18-.01-.3.02-.47.09Z"/>
      <path class="cls-2" d="M17.33,29.93c.56.24,1.04.74,1.35,1.21.38.57.76,1.48.66,2.28l.18-.1c.22-.14.28-.46.3-.64.07-.86-.5-1.89-1.08-2.42-.33-.3-.84-.6-1.21-.45-.03.01-.1.06-.21.12h0ZM18.6,34.51c-.11,0-.2-.05-.26-.14-.09-.14-.05-.33.09-.42.14-.09.22-.21.27-.39.18-.63-.13-1.5-.52-2.08-.32-.47-.89-1.04-1.44-1.08-.12,0-.2,0-.32.06-.15.07-.32.01-.4-.14-.08-.15-.02-.32.12-.41l.15-.09c.7-.41.96-.55,1.03-.58.79-.34,1.62.34,1.86.56.68.62,1.36,1.8,1.28,2.92-.04.51-.25.9-.6,1.12l-1.09.63s-.09.04-.15.04Z"/>
      <path class="cls-4" d="M19,32.63c.23,1.15-.29,1.89-1.17,1.65-.88-.23-1.77-1.36-2.01-2.5-.24-1.15.29-1.89,1.16-1.65.88.24,1.78,1.36,2.02,2.5Z"/>
      <path class="cls-2" d="M16.68,30.39c-.15,0-.27.05-.36.14-.23.22-.3.66-.19,1.19.22,1.02,1.03,2.06,1.79,2.27.26.07.45.03.59-.1.24-.21.31-.66.19-1.19h0c-.21-1.03-1.02-2.06-1.79-2.27-.08-.02-.15-.03-.22-.03h0ZM18.15,34.64c-.12,0-.25-.02-.39-.05-.99-.27-1.97-1.47-2.23-2.74-.16-.75-.02-1.4.37-1.76.29-.28.71-.37,1.17-.25.99.27,1.97,1.47,2.24,2.74.15.75.02,1.4-.38,1.76-.21.2-.48.3-.78.3Z"/>
      <path class="cls-3" d="M27.19,36.49c.17-.09,1.05-.61,1.15-.65.52-.22,1.15.15,1.53.5.68.63,1.25,1.74,1.17,2.67-.02.33-.15.69-.44.88l-1.09.62c.2-.14.32-.32.39-.55.23-.75-.14-1.72-.56-2.34-.37-.54-1.01-1.17-1.69-1.22-.18-.01-.3.02-.47.09Z"/>
      <path class="cls-2" d="M28.24,36.23c.56.24,1.05.74,1.36,1.21.38.57.75,1.47.66,2.28l.18-.1c.21-.14.28-.46.29-.64.07-.86-.5-1.89-1.08-2.42-.33-.3-.84-.6-1.2-.44-.03.01-.11.06-.22.11h0ZM29.51,40.82c-.1,0-.2-.05-.26-.14-.09-.14-.05-.32.09-.42.14-.1.22-.21.27-.39.18-.63-.13-1.5-.52-2.09-.32-.47-.89-1.04-1.44-1.08-.12,0-.2,0-.32.06-.15.07-.32.01-.4-.14-.08-.15-.03-.33.12-.41l.15-.09c.7-.41.96-.55,1.02-.58.79-.33,1.63.34,1.86.56.68.62,1.37,1.8,1.28,2.92-.04.51-.25.9-.6,1.12l-1.09.63c-.05.03-.1.04-.16.04Z"/>
      <path class="cls-4" d="M29.91,38.94c.24,1.15-.29,1.89-1.16,1.65-.87-.24-1.77-1.36-2.01-2.5-.23-1.15.29-1.89,1.17-1.65.87.24,1.77,1.35,2.01,2.5Z"/>
      <path class="cls-2" d="M27.59,36.7c-.15,0-.27.04-.37.13-.23.22-.3.66-.18,1.19.21,1.02,1.03,2.06,1.79,2.27.24.07.44.03.59-.1.23-.22.3-.66.18-1.19-.21-1.02-1.03-2.06-1.79-2.27-.08-.02-.16-.03-.23-.03h0ZM29.05,40.94c-.12,0-.25-.02-.39-.05-.99-.27-1.97-1.47-2.24-2.74-.16-.75-.02-1.4.37-1.76.3-.28.71-.37,1.17-.25.99.26,1.97,1.47,2.23,2.74h0c.15.75.02,1.4-.37,1.76-.21.2-.48.3-.78.3Z"/>
      <path class="cls-3" d="M6.57,35.8c.17-.09,1.05-.61,1.14-.65.53-.22,1.16.15,1.53.5.69.63,1.26,1.73,1.18,2.67-.02.33-.15.69-.45.88l-1.08.62c.2-.14.31-.31.38-.55.23-.75-.14-1.72-.56-2.34-.36-.53-1-1.17-1.68-1.22-.17-.01-.31.02-.47.09Z"/>
      <path class="cls-2" d="M7.62,35.54c.55.24,1.04.74,1.35,1.21.39.57.77,1.48.67,2.28l.18-.11c.22-.14.28-.46.3-.64.07-.87-.5-1.89-1.08-2.42-.33-.3-.84-.6-1.21-.45-.03.02-.11.06-.21.12h0ZM8.89,40.13c-.11,0-.21-.05-.26-.14-.1-.14-.05-.32.08-.42.14-.09.22-.21.28-.39.18-.63-.13-1.5-.52-2.09-.32-.47-.9-1.04-1.45-1.08-.11,0-.2,0-.32.06-.15.07-.33.01-.4-.14-.08-.15-.03-.32.11-.41l.19-.11c.68-.39.92-.53.99-.56.79-.33,1.62.34,1.85.56.69.62,1.37,1.8,1.28,2.92-.03.51-.25.9-.59,1.12l-1.1.63s-.1.04-.15.04Z"/>
      <path class="cls-4" d="M9.29,38.25c.23,1.15-.29,1.89-1.16,1.65-.88-.23-1.77-1.35-2.01-2.5-.24-1.15.28-1.89,1.16-1.65.88.23,1.78,1.35,2.01,2.5Z"/>
      <path class="cls-2" d="M6.96,36.01c-.14,0-.26.04-.36.13-.23.21-.3.66-.19,1.19.21,1.03,1.04,2.06,1.79,2.27.25.07.45.03.59-.1.23-.21.3-.66.19-1.19h0c-.21-1.03-1.03-2.06-1.79-2.27-.09-.02-.16-.03-.23-.03h0ZM8.44,40.26c-.13,0-.26-.02-.39-.05-.99-.27-1.97-1.47-2.23-2.74-.16-.75-.02-1.4.37-1.76.3-.28.72-.37,1.17-.25,1,.27,1.97,1.47,2.24,2.74.16.75.03,1.4-.37,1.77-.21.2-.48.3-.78.3Z"/>
      <path class="cls-1" d="M15.57,24.8c-.09-.05-.22,0-.29.06-.16.13-.3.39-.29.61,0,.06.03.13.1.17l16.39,9.47v-1.12l-15.91-9.19Z"/>
      <path class="cls-2" d="M15.31,25.41l15.86,9.16v-.4l-15.69-9.06c-.11.08-.17.21-.17.3h0ZM31.48,35.41c-.05,0-.1-.02-.16-.05l-16.39-9.46c-.13-.08-.22-.23-.24-.4-.03-.35.18-.71.41-.89.21-.15.44-.19.63-.09h0s15.91,9.19,15.91,9.19c.1.05.15.16.15.27v1.12c0,.11-.05.21-.15.26-.05.03-.1.05-.15.05Z"/>
      <path class="cls-1" d="M15.85,28.4c0,.11-.11.18-.2.22-.19.08-.5.07-.67-.05-.05-.04-.1-.1-.1-.17v-14.89l.97.56v14.33Z"/>
      <path class="cls-2" d="M15.19,28.34c.09.04.24.04.34,0h0v-14.08l-.35-.2v14.29h0ZM15.85,28.4h0,0ZM15.37,28.98c-.2,0-.4-.05-.57-.17-.14-.11-.22-.25-.23-.4v-14.9c0-.11.06-.21.16-.27.1-.06.21-.06.3,0l.97.56c.1.05.15.16.15.27v14.33h0c0,.22-.15.4-.38.5-.12.05-.26.08-.41.08Z"/>
      <path class="cls-1" d="M15.6,27.79c-.09-.05-.21,0-.29.06-.17.13-.31.39-.29.61.01.07.04.13.1.17l16.4,9.47.4-.89-16.32-9.42Z"/>
      <path class="cls-2" d="M15.33,28.39l16.05,9.27.14-.32-16.01-9.25c-.1.09-.17.22-.18.3h0ZM31.52,38.41c-.05,0-.1-.01-.15-.04l-16.4-9.47c-.14-.08-.23-.23-.24-.4-.04-.34.18-.7.41-.88.2-.15.43-.19.62-.08h0l16.31,9.42c.14.08.2.25.13.39l-.4.89c-.03.08-.1.14-.18.17-.04,0-.06.01-.1.01Z"/>
      <path class="cls-3" d="M17.48,42.1c.16-.09,1.05-.61,1.15-.65.52-.22,1.15.16,1.53.5.68.63,1.25,1.74,1.17,2.67-.03.34-.15.7-.45.88l-1.08.63c.2-.14.31-.32.39-.56.22-.75-.15-1.72-.56-2.34-.36-.54-1-1.17-1.68-1.22-.17-.01-.31.02-.47.09Z"/>
      <path class="cls-2" d="M18.53,41.85c.56.24,1.04.74,1.36,1.21.38.58.76,1.48.66,2.28l.18-.1c.22-.14.28-.46.3-.64.07-.86-.51-1.89-1.08-2.42-.33-.3-.84-.6-1.21-.44-.03.01-.11.05-.21.12h0ZM19.8,46.44c-.11,0-.21-.05-.26-.14-.09-.14-.05-.32.09-.42.13-.1.21-.21.27-.39.18-.63-.13-1.5-.52-2.08-.32-.47-.89-1.04-1.44-1.08-.13-.01-.21,0-.32.06-.15.07-.33.01-.4-.14-.08-.15-.03-.33.11-.41l.16-.09c.7-.41.96-.55,1.02-.58.79-.33,1.63.34,1.86.56.67.62,1.36,1.8,1.27,2.92-.03.51-.25.9-.59,1.12l-1.09.63s-.09.04-.15.04Z"/>
      <path class="cls-4" d="M20.2,44.56c.23,1.14-.29,1.88-1.17,1.65-.88-.23-1.77-1.36-2.01-2.5-.24-1.15.29-1.89,1.16-1.65.88.24,1.78,1.35,2.02,2.5Z"/>
      <path class="cls-2" d="M17.87,42.32c-.14,0-.26.04-.36.13-.22.22-.3.66-.19,1.19.21,1.02,1.03,2.06,1.79,2.27.25.07.45.03.59-.1.23-.21.31-.66.19-1.19h0c-.21-1.02-1.02-2.06-1.79-2.27-.08-.02-.16-.03-.24-.03h0ZM19.35,46.56c-.13,0-.26-.02-.39-.05-.99-.27-1.97-1.47-2.24-2.74-.15-.75-.02-1.4.37-1.76.3-.28.71-.37,1.17-.25,1,.27,1.98,1.47,2.23,2.74h.01c.15.76.02,1.4-.37,1.77-.21.2-.48.3-.78.3Z"/>
      <path class="cls-2" d="M22.04,28.68c-.05,0-.1-.02-.16-.04L3.33,17.93c-.15-.09-.19-.27-.11-.42.09-.15.28-.2.43-.11l18.55,10.71c.15.08.2.27.11.42-.05.1-.15.15-.26.15Z"/>
      <path class="cls-2" d="M31.71,23c-.05,0-.1-.01-.15-.04L12.84,12.15c-.15-.09-.2-.27-.11-.42.09-.15.27-.2.42-.11l18.72,10.81c.15.08.2.27.11.42-.05.1-.16.15-.26.15Z"/>
      <path class="cls-2" d="M22.04,28.68c-.11,0-.21-.06-.27-.15-.09-.15-.03-.34.11-.42l9.69-5.59c.14-.08.33-.03.42.11.09.15.04.33-.11.42l-9.69,5.59s-.09.04-.15.04Z"/>
      <path class="cls-2" d="M15.27,36.57c-.1,0-.21-.06-.27-.16-.08-.15-.04-.34.11-.42l16.46-9.5c.14-.08.33-.04.42.11.09.15.04.34-.11.42l-16.45,9.5c-.05.03-.11.04-.16.04Z"/>
      <path class="cls-2" d="M22.04,36.42c-.11,0-.21-.05-.27-.15-.09-.15-.03-.34.11-.42l9.69-5.59c.14-.08.33-.03.42.11.09.15.04.34-.11.42l-9.69,5.59s-.09.04-.15.04Z"/>
      <path class="cls-2" d="M5.86,19.29c-.1,0-.21-.06-.27-.15-.08-.15-.04-.33.11-.42l9.69-5.59c.15-.09.33-.04.42.11.09.15.04.34-.11.42l-9.68,5.59c-.05.03-.11.04-.16.04Z"/>
      <path class="cls-2" d="M5.86,23.28c-.1,0-.21-.06-.27-.15-.08-.15-.04-.34.11-.42l9.03-5.21c.15-.09.34-.04.42.11.09.15.03.33-.11.42l-9.02,5.21c-.05.03-.11.04-.16.04Z"/>
      <path class="cls-2" d="M5.86,27.03c-.1,0-.21-.06-.27-.15-.08-.15-.04-.34.11-.42l9.03-5.21c.15-.08.34-.04.42.11.09.15.03.34-.11.42l-9.02,5.21c-.05.03-.11.04-.16.04Z"/>
      <path class="cls-2" d="M5.85,34.63c-.17,0-.31-.14-.31-.31v-15.29c0-.17.14-.31.31-.31s.3.14.3.31v15.29c0,.17-.14.31-.3.31Z"/>
      <path class="cls-2" d="M22.04,29.24c-.18,0-.31-.14-.31-.31v-11.83c0-.17.14-.31.31-.31.17,0,.3.14.3.31v11.83c0,.17-.14.31-.3.31Z"/>
      <path class="cls-2" d="M21.97,43.94c-.05,0-.1-.01-.15-.04l-16.13-9.31c-.15-.08-.2-.27-.11-.42.08-.15.27-.2.42-.11l16.13,9.31c.15.08.2.27.11.42-.05.1-.16.15-.27.15Z"/>
      <path class="cls-2" d="M31.72,35.07c-.16,0-.3-.14-.3-.31v-11.98c0-.17.14-.31.3-.31.17,0,.31.14.31.31v11.98c0,.17-.14.31-.31.31Z"/>
      <path class="cls-2" d="M15.54,36.75c-.17,0-.3-.14-.3-.31v-7.55c0-.17.14-.31.3-.31.18,0,.31.14.31.31v7.55c0,.17-.14.31-.31.31Z"/>
      <path class="cls-2" d="M22.02,32.61c-.05,0-.11-.01-.15-.04L5.7,23.23c-.15-.08-.19-.27-.11-.42.09-.15.28-.2.42-.12l16.17,9.34c.15.08.2.27.11.42-.06.1-.17.16-.27.16Z"/>
      <path class="cls-2" d="M22.08,36.35c-.05,0-.11-.01-.16-.04L5.69,26.94c-.15-.08-.2-.27-.11-.42.08-.15.27-.2.42-.11l16.24,9.37c.15.08.2.27.11.42-.06.1-.17.15-.27.15Z"/>
      <path class="cls-2" d="M31.72,27.02c-.05,0-.1-.01-.15-.04l-15.88-9.16c-.15-.08-.2-.28-.11-.42.09-.15.28-.2.42-.11l15.87,9.16c.15.09.2.27.11.42-.06.1-.16.15-.27.15Z"/>
      <path class="cls-2" d="M31.88,31.06c-.05,0-.11-.01-.16-.04l-16.03-9.25c-.15-.08-.2-.27-.11-.42.09-.15.28-.2.42-.11l16.03,9.25c.15.08.2.27.11.42-.06.1-.17.15-.27.15Z"/>
      <path class="cls-2" d="M18.98,38.84c-.17,0-.31-.14-.31-.31v-10.58l-9.11,5.26c-.1.06-.21.06-.3,0-.1-.06-.16-.16-.16-.27v-16.02c0-.17.14-.31.3-.31.17,0,.31.14.31.31v15.48l8.95-5.17v-11.86c0-.17.14-.31.31-.31s.3.14.3.31v12.04h0v11.12c0,.17-.14.31-.3.31Z"/>
      <path class="cls-2" d="M12.3,38.36c-.16,0-.3-.14-.3-.31v-3.54h0V15.26c0-.17.14-.31.3-.31.17,0,.31.14.31.31v18.71l9.18-5.3c.15-.08.34-.04.42.11.09.15.04.33-.11.42l-9.49,5.48v3.36c0,.17-.14.31-.31.31Z"/>
      <path class="cls-2" d="M25.53,38.66c-.16,0-.3-.14-.3-.31v-19.23c0-.17.14-.31.3-.31.17,0,.31.14.31.31v19.23c0,.17-.14.31-.31.31Z"/>
      <path class="cls-2" d="M28.76,36.62c-.17,0-.3-.14-.3-.31v-15.27c0-.17.14-.31.3-.31.18,0,.31.14.31.31v15.27c0,.17-.14.31-.31.31Z"/>
      <path class="cls-1" d="M6.4,34.2c0,.11-.11.18-.2.22-.19.08-.5.08-.67-.05-.05-.04-.1-.1-.1-.17v-14.89l.96.56v14.33Z"/>
      <path class="cls-2" d="M5.73,34.13c.09.04.24.04.34,0,0,0,0,0,.02,0v-14.08l-.36-.2v14.28h0ZM6.4,34.2h0,0ZM5.91,34.77c-.2,0-.4-.05-.56-.17-.14-.1-.22-.25-.22-.4v-14.89c0-.11.06-.21.15-.27.1-.05.21-.06.31,0l.96.56c.09.05.15.15.15.26v14.33h0c0,.22-.15.41-.38.5-.12.05-.26.08-.41.08Z"/>
      <path class="cls-1" d="M6.14,30.58c-.09-.05-.21,0-.29.06-.16.13-.31.39-.29.6.01.07.03.13.09.17l16.38,9.45v-1.12l-6.15-3.55-9.74-5.62Z"/>
      <path class="cls-2" d="M5.87,31.18l15.85,9.15v-.41l-15.67-9.05c-.1.08-.17.21-.18.3h0ZM22.04,41.18c-.05,0-.11-.02-.16-.04L5.51,31.69c-.14-.08-.23-.23-.24-.4-.05-.35.18-.71.41-.89.2-.16.44-.19.62-.09h0s15.89,9.18,15.89,9.18c.1.06.16.16.16.27v1.12c0,.11-.06.21-.16.27-.04.03-.09.04-.15.04Z"/>
      <path class="cls-1" d="M6.14,33.58c-.09-.05-.21,0-.29.06-.16.13-.31.39-.29.61.01.06.03.13.09.17l16.38,9.46v-1.12l-6.15-3.55-9.74-5.63Z"/>
      <path class="cls-2" d="M5.87,34.19l15.85,9.15v-.41l-15.67-9.05c-.1.08-.17.21-.18.3h0ZM22.04,44.18c-.05,0-.11-.02-.16-.04l-16.37-9.46c-.14-.08-.23-.23-.24-.4-.05-.35.18-.71.41-.89.2-.16.44-.19.62-.09,0,0,0,0,0,0l15.89,9.17c.1.06.16.16.16.27v1.12c0,.11-.06.21-.16.27-.04.03-.09.04-.15.04Z"/>
      <path class="cls-1" d="M31.7,34.25l-9.66,5.58v1.05l10.11-5.83c.15-.1.08-.34.02-.47-.07-.15-.29-.4-.47-.31Z"/>
      <path class="cls-2" d="M22.35,40v.34l9.58-5.53s-.02-.07-.04-.11c-.02-.05-.07-.11-.1-.14l-9.44,5.45h0ZM22.04,41.18c-.05,0-.11-.02-.16-.04-.09-.06-.16-.16-.16-.27v-1.05c0-.11.06-.21.16-.27l9.66-5.58s.02,0,.02,0c.36-.17.71.11.89.45.17.36.12.7-.13.86l-10.13,5.85s-.09.04-.15.04Z"/>
      <path class="cls-1" d="M12.39,10.96c-.09-.05-.21,0-.29.06-.17.13-.3.39-.29.61,0,.07.03.14.09.17l19.67,11.35.1-1.06-.55-.32L12.39,10.96Z"/>
      <path class="cls-2" d="M12.12,11.56l19.19,11.08.03-.38L12.3,11.26c-.1.09-.17.21-.17.3h0ZM31.58,23.46c-.06,0-.11-.02-.15-.04L11.75,12.06c-.14-.08-.23-.23-.24-.4-.03-.35.18-.71.41-.88.2-.16.43-.19.62-.09,0,0,0,0,0,0l19.3,11.13c.1.06.15.18.15.3l-.1,1.06c0,.1-.08.19-.17.24-.04.02-.09.03-.14.03Z"/>
      <path class="cls-1" d="M31.77,37.21l-9.73,5.62v1.05l10.18-5.88c.28-.18-.15-.93-.45-.78Z"/>
      <path class="cls-2" d="M22.35,43v.33l9.66-5.57c-.02-.08-.09-.2-.15-.25l-9.51,5.49h0ZM22.04,44.18c-.05,0-.11-.02-.16-.04-.09-.06-.16-.16-.16-.27v-1.05c0-.11.06-.21.16-.27l9.73-5.62s.02,0,.02-.01c.3-.14.65.02.85.4.22.37.18.74-.1.92l-10.19,5.89s-.09.04-.15.04Z"/>
      <path class="cls-1" d="M22.53,40.49c0,.11-.12.18-.2.22-.19.08-.49.07-.67-.05-.04-.04-.1-.1-.1-.17v-12.27l.97-.19v12.46Z"/>
      <path class="cls-2" d="M21.87,40.42c.09.04.24.04.35,0,0,0,0,0,0,0v-12.02l-.36.07v11.95h0ZM22.53,40.49h0,0ZM22.04,41.07c-.2,0-.4-.05-.57-.17-.14-.1-.22-.25-.23-.4v-12.28c0-.15.11-.28.25-.3l.96-.2c.09-.02.18,0,.25.07.08.06.12.15.12.24v12.46h0c0,.22-.15.4-.38.5-.11.05-.26.08-.41.08Z"/>
      <path class="cls-1" d="M2.94,16.73c-.09-.05-.21,0-.29.06-.17.13-.31.39-.29.6.01.07.04.13.1.17l19.57,11.3v-1.12L2.94,16.73Z"/>
      <path class="cls-2" d="M2.67,17.34l19.05,11v-.4L2.86,17.03c-.11.08-.17.21-.18.3h0ZM22.04,29.18c-.05,0-.11-.01-.16-.04L2.31,17.83c-.14-.08-.22-.23-.24-.4-.04-.35.17-.71.41-.88.2-.15.43-.19.62-.09h0s19.09,11.02,19.09,11.02c.1.06.16.16.16.26v1.12c0,.11-.06.21-.16.27-.04.03-.09.04-.15.04Z"/>
      <path class="cls-1" d="M32.27,34.8c-.01.1-.11.18-.2.22-.2.08-.5.07-.67-.05-.05-.04-.1-.1-.1-.16v-11.38l.97-.68v12.06Z"/>
      <path class="cls-2" d="M31.61,34.73c.08.04.24.05.34,0,0,0,0,0,0,0v-11.4l-.35.25v11.15h0ZM32.27,34.8h0,0ZM31.79,35.38c-.2,0-.41-.05-.57-.17-.14-.11-.22-.25-.23-.4v-11.39c0-.1.05-.19.13-.25l.96-.68c.09-.07.22-.08.32-.02.1.05.17.16.17.28v12.06h0c0,.22-.15.4-.38.5-.12.05-.26.08-.41.08Z"/>
      <path class="cls-1" d="M31.81,22.08l-9.8,5.66v1.05l10.26-5.92c.15-.1.08-.35.02-.47-.07-.15-.28-.4-.47-.31Z"/>
      <path class="cls-2" d="M22.32,27.91v.34l9.73-5.61s-.02-.07-.04-.11c-.02-.05-.07-.11-.11-.14l-9.58,5.53h0ZM22.01,29.09c-.05,0-.1-.01-.15-.04-.09-.06-.16-.16-.16-.27v-1.05c0-.11.06-.21.16-.26l9.8-5.66s.02,0,.03-.01c.35-.17.71.11.88.46.17.36.12.7-.12.86l-10.27,5.93c-.05.03-.11.04-.16.04Z"/>
      <path class="cls-4" d="M1.38,17.55c-.11-.2-.27-.37-.44-.47-.17-.1-.33-.11-.45-.04-.11.07-.18.21-.18.41s.07.42.18.62c.12.2.28.37.45.47.17.1.33.11.44.05.11-.07.19-.21.19-.41s-.08-.43-.19-.62Z"/>
      <path class="cls-2" d="M.65,17.3h0s-.03.05-.03.14c0,.14.05.31.14.47.1.16.22.29.34.36.08.05.13.05.14.04,0,0,.03-.05.03-.14,0-.14-.05-.31-.14-.47-.1-.16-.22-.29-.34-.36-.06-.04-.1-.04-.13-.04h0ZM1.22,18.93c-.14,0-.29-.04-.43-.13-.22-.13-.41-.33-.56-.59-.15-.25-.22-.53-.22-.78,0-.31.12-.55.34-.68.21-.12.49-.11.76.05.21.12.41.33.56.58h0c.15.25.22.53.22.78,0,.3-.12.55-.34.67-.1.06-.2.08-.32.08Z"/>
      <path class="cls-3" d="M13.87,9.61c-.13-.08-.29-.12-.43-.05L.5,17.03c.11-.06.22-.04.34,0,.11.05.21.11.3.2.16.15.27.33.35.53.05.13.08.25.09.39,0,.16-.03.33-.18.42l12.94-7.47c.09-.06.14-.16.16-.26,0-.05.02-.09.02-.14,0-.08-.01-.14-.03-.21-.04-.17-.11-.32-.19-.46-.11-.17-.24-.31-.42-.42Z"/>
      <path class="cls-2" d="M1.27,16.94s.05.05.08.07c.19.18.33.4.43.64.04.11.07.21.09.31l12.31-7.11c.02-.08.02-.11.02-.14,0-.04,0-.09-.02-.15-.03-.13-.08-.24-.15-.36-.09-.14-.19-.24-.31-.32-.07-.04-.12-.05-.14-.04L1.27,16.94h0ZM1.39,18.88c-.09,0-.2-.05-.26-.15-.09-.14-.04-.33.1-.42.02-.01.03-.07.03-.16,0-.08-.02-.18-.06-.29-.06-.16-.15-.3-.28-.42-.07-.07-.13-.11-.2-.14-.06-.02-.08-.02-.09-.01-.15.07-.33.02-.41-.13-.08-.15-.03-.33.12-.41l12.94-7.47c.16-.08.42-.13.74.05h0c.2.13.37.29.51.52.12.18.19.37.24.56.02.1.03.18.03.27,0,.08,0,.14-.02.21-.05.26-.19.39-.3.46L1.54,18.84s-.09.04-.16.04Z"/>
      <path class="cls-1" d="M15.19,13.15l-9.22,5.32.9.52,8.77-5.06c.15-.1.08-.34.02-.47-.07-.15-.29-.4-.47-.31Z"/>
      <path class="cls-2" d="M6.59,18.47l.29.17,8.54-4.93s-.02-.07-.03-.11c-.03-.05-.07-.11-.11-.14l-8.69,5.02h0ZM6.87,19.31c-.05,0-.11-.01-.16-.04l-.9-.52c-.1-.05-.16-.16-.16-.27s.06-.21.16-.27l9.22-5.32s0-.01.02-.01c.35-.17.71.11.89.45.17.37.11.7-.13.86l-8.78,5.07c-.05.03-.1.04-.16.04Z"/>
      <path class="cls-1" d="M12.81,37.33c0,.08-.94.43-.97-.46v-1.88l.97.56v1.79Z"/>
      <path class="cls-2" d="M12.15,35.52v1.35c.01.09.03.22.1.27.07.03.17.03.26.01v-1.42l-.36-.2h0ZM12.81,37.33h0,0ZM12.38,37.78h0c-.4,0-.82-.24-.84-.9v-1.89c0-.11.06-.21.16-.27.09-.05.21-.05.31,0l.97.56c.09.06.16.16.16.27v1.79h0c-.02.36-.56.44-.75.44Z"/>
      <path class="cls-4" d="M25.75,2.12l-2.67-1.54c-1.03-.34-1.79-.34-2.85-.14-3.05.76-5.37,2.95-7.22,5.39-2.08,2.83-3.72,6.67-3.71,10.22,0,1.13.17,2.37.66,3.41.24.52.6,1.05,1.01,1.45l.25.23,2.67,1.54c-.17-.16-.33-.29-.49-.47-.48-.54-.84-1.25-1.06-1.94-.57-1.8-.42-3.97,0-5.79.74-3.19,2.53-6.44,4.77-8.83,1.05-1.09,1.97-1.87,3.27-2.66,1.73-.95,3.42-1.51,5.36-.87Z"/>
      <path class="cls-2" d="M21.51.61c-.39,0-.78.05-1.22.13-2.5.62-4.81,2.35-7.03,5.27-2.29,3.1-3.65,6.86-3.65,10.03,0,.87.11,2.15.63,3.27.23.51.58,1.01.95,1.36l.24.21,1.14.66c-.21-.37-.38-.77-.52-1.2-.7-2.19-.3-4.67-.01-5.95.74-3.17,2.56-6.52,4.85-8.97,1.16-1.19,2.09-1.95,3.35-2.71,1.12-.62,2.41-1.19,3.86-1.19h.04l-1.21-.7c-.51-.17-.97-.23-1.42-.23h0ZM13.87,22.97s-.09-.01-.14-.04l-2.67-1.54-.3-.26c-.43-.42-.82-.96-1.09-1.55-.57-1.23-.69-2.6-.69-3.53,0-3.3,1.41-7.19,3.78-10.4C15.07,2.61,17.49.81,20.15.14c1.03-.19,1.89-.23,3.03.14l2.73,1.56c.13.08.19.25.12.39-.06.14-.23.22-.37.17-1.96-.64-3.62.03-5.12.85-1.19.73-2.1,1.46-3.21,2.6-2.22,2.37-3.97,5.62-4.69,8.68-.28,1.22-.66,3.57,0,5.63.23.7.57,1.35,1,1.82.14.16.27.28.43.41.11.11.15.3.06.42-.07.09-.16.14-.25.14Z"/>
      <path class="cls-3" d="M20.39,22.46c4.66-2.69,8.43-9.22,8.43-14.6S25.05.3,20.39,2.99c-4.65,2.69-8.43,9.23-8.43,14.6s3.78,7.55,8.43,4.86Z"/>
      <path class="cls-2" d="M20.39,22.46h.01-.01ZM24.15,2.15c-1.1,0-2.33.37-3.61,1.11-4.56,2.63-8.27,9.06-8.27,14.33,0,2.48.82,4.33,2.31,5.19,1.5.86,3.5.65,5.66-.59,4.55-2.63,8.27-9.06,8.27-14.33,0-2.49-.82-4.33-2.31-5.19-.61-.35-1.3-.52-2.04-.52h0ZM16.63,23.92c-.86,0-1.65-.2-2.35-.61-1.69-.98-2.62-3.01-2.62-5.72,0-5.47,3.85-12.14,8.59-14.87,2.35-1.36,4.57-1.57,6.26-.59,1.7.98,2.63,3.01,2.63,5.72,0,5.46-3.85,12.13-8.58,14.86h0c-1.38.8-2.71,1.2-3.92,1.2Z"/>
      <polygon class="cls-1" points="21.49 5.35 21.49 10.81 26.23 8.08 26.23 10.63 24.29 11.75 21.49 13.36 21.49 18.83 19.28 20.1 19.28 14.63 14.56 17.37 14.55 14.82 19.28 12.09 19.28 6.62 21.49 5.35"/>
      <path class="cls-2" d="M19.28,14.33c.05,0,.1.02.16.04.09.06.15.16.15.27v4.93l1.59-.92v-5.29c0-.11.05-.21.15-.27l4.58-2.64v-1.84l-4.27,2.47c-.1.06-.22.06-.31,0-.09-.05-.15-.16-.15-.27v-4.93l-1.59.92v5.29c0,.11-.06.21-.15.27l-4.58,2.64v1.84l4.28-2.47s.09-.04.15-.04h0ZM19.28,20.41c-.05,0-.1-.02-.15-.04-.1-.06-.16-.16-.16-.26v-4.93l-4.28,2.47c-.09.05-.21.05-.3,0-.1-.06-.16-.16-.16-.27v-2.54c0-.11.06-.22.16-.27l4.58-2.65v-5.29c0-.11.06-.21.16-.27l2.2-1.27c.1-.05.22-.05.31,0,.09.05.15.15.15.26v4.93l4.28-2.47c.1-.05.21-.05.3,0,.1.06.16.16.16.26v2.55c0,.11-.06.21-.16.27l-4.58,2.65v5.29c0,.11-.05.21-.15.27l-2.21,1.27c-.05.03-.11.04-.16.04Z"/>
    </g>
  </g>
</svg>