<?xml version="1.0" encoding="UTF-8"?>
<svg id="Layer_2" data-name="Layer 2" xmlns="http://www.w3.org/2000/svg" viewBox="0 0 43.81 30.7" fill="currentColor">
  <defs>
    <style>
      .cls-1 {
        fill: #fff;
      }

      .cls-1, .cls-2, .cls-3, .cls-4 {
        fill-rule: evenodd;
      }

      .cls-2 {
        fill: #1a87c7;
      }

      .cls-3 {
        fill: #bdedf8;
      }

      .cls-4 {
        fill: #66ceef;
      }
    </style>
  </defs>
  <g id="_Layer_" data-name="&amp;lt;Layer&amp;gt;">
    <g>
      <path class="cls-4" d="M42.74,12.29v5.16c-6.97,4.03-13.95,8.06-20.93,12.09l-.73.42-.19.1c-1.11.47-2.4.46-3.47-.1l-.61-.35c-5.25-3.03-10.49-6.06-15.74-9.09-.47-.33-.66-.47-.76-1.06v-5.16c.1.58.29.73.76,1.06,5.25,3.03,10.49,6.06,15.74,9.09l.61.35c1.07.56,2.36.57,3.47.1l.19-.1.73-.42c6.98-4.03,13.96-8.06,20.93-12.09Z"/>
      <path class="cls-2" d="M.61,15.41v4.05c.08.41.18.49.63.81l16.32,9.42c.95.49,2.15.53,3.2.09l.9-.51c6.92-4,13.85-8,20.77-12v-4.44l-21.41,12.35c-1.23.52-2.63.48-3.75-.1L.91,15.63c-.1-.08-.21-.15-.3-.22h0ZM19.23,30.7c-.69,0-1.37-.16-1.96-.47L.91,20.78c-.54-.38-.79-.59-.9-1.27v-5.21c0-.16.12-.29.28-.31.16-.02.31.1.33.26.08.46.18.54.63.86l16.32,9.42c.95.5,2.15.53,3.2.08l.9-.51,20.93-12.09c.09-.05.21-.05.3,0,.1.06.16.16.16.26v5.16c0,.11-.06.21-.16.27-6.98,4.03-13.95,8.06-20.93,12.08l-.94.53c-.57.25-1.19.37-1.79.37Z"/>
      <path class="cls-3" d="M22.73.74c1.01-.58,2.66-.58,3.67,0,6.61,3.82,9.73,5.61,16.34,9.44,1.01.58,1.01,1.53,0,2.11-7.85,4.54-13.8,7.97-21.66,12.51-1.01.58-2.65.58-3.66,0-6.54-3.77-9.81-5.66-16.35-9.44-1.01-.58-1.01-1.53,0-2.12C4.73,11.13,14.6,5.43,22.73.74Z"/>
      <path class="cls-2" d="M22.73.74h0,0ZM24.56.61c-.62,0-1.23.13-1.68.4h0L1.23,13.51c-.39.23-.61.51-.61.79s.22.57.61.79l16.34,9.44c.91.52,2.45.52,3.36,0l21.66-12.51c.38-.23.6-.51.6-.79s-.22-.57-.6-.79L26.24,1.01c-.45-.26-1.07-.4-1.68-.4h0ZM19.24,25.54c-.71,0-1.43-.16-1.98-.47L.91,15.63c-.58-.34-.91-.81-.91-1.32s.33-.98.91-1.32L22.57.47c1.1-.63,2.88-.63,3.97,0l16.35,9.44c.59.34.91.81.91,1.33s-.32.99-.91,1.32l-21.66,12.51c-.55.32-1.27.47-1.99.47Z"/>
      <path class="cls-3" d="M42.74,17.45c-2.09,1.21-4.17,2.41-6.26,3.62-2.17,1.26-4.34,2.51-6.51,3.76-2.97,1.71-5.93,3.42-8.89,5.13-.63.33-1.13.42-1.83.44v-5.16c.7-.02,1.21-.11,1.83-.44,2.96-1.71,5.93-3.42,8.89-5.13,2.16-1.25,4.34-2.51,6.51-3.76,2.09-1.2,4.17-2.41,6.26-3.62.48-.33.66-.47.76-1.06v5.15c-.1.58-.28.73-.76,1.06Z"/>
      <path class="cls-2" d="M42.74,17.45h.01-.01ZM19.55,25.53v4.54c.48-.03.89-.13,1.38-.38l21.63-12.49c.44-.31.55-.39.63-.85v-4c-.09.07-.17.13-.28.2l-21.69,12.52c-.61.32-1.11.43-1.68.46h0ZM19.24,30.7c-.08,0-.16-.03-.21-.09-.06-.06-.09-.14-.09-.22v-5.16c0-.17.13-.3.3-.31.62-.02,1.1-.09,1.7-.4l21.65-12.5c.42-.3.53-.37.61-.84.03-.16.17-.27.32-.26.17.01.29.15.29.31v5.15c-.12.74-.37.95-.89,1.31-.01,0-.02.01-.03.02l-21.66,12.51c-.71.37-1.29.46-1.98.48h0Z"/>
      <path class="cls-4" d="M23.98,16.55v4.2c-2.26,1.31-3.41,2.22-4.64,2.29-1.38.08-2.25-.67-3.58-1.44l-.44-1.88-8.67-5-.44,1.37c-.96-.56-2.43-1.17-2.49-1.95v-4.2c.14.83,1.41,1.32,2.49,1.95,1.66.96,11.25,6.66,12.12,6.86.75.17,1.62.1,2.29-.27l3.35-1.94Z"/>
      <path class="cls-2" d="M16.03,21.4c.21.12.4.24.59.36.94.57,1.68,1.03,2.7.97.86-.05,1.73-.57,3.04-1.37.39-.24.83-.5,1.31-.79v-3.48l-2.89,1.67c-.71.39-1.65.5-2.51.3-.63-.14-4.67-2.47-10.54-5.92-.76-.45-1.35-.8-1.67-.98-.21-.12-.42-.24-.65-.36-.51-.27-1.01-.54-1.38-.85v3.19c.03.44.98.94,1.74,1.35.09.05.18.1.28.14l.32-1.01c.03-.09.1-.16.18-.19.09-.03.18-.03.26.02l8.68,5.01c.07.04.12.11.14.2l.41,1.75h0ZM19.15,23.35c-1.11,0-1.92-.49-2.85-1.07-.22-.13-.44-.27-.69-.41-.08-.04-.13-.11-.15-.2l-.41-1.75-8.22-4.75-.32,1.01c-.03.09-.1.16-.18.19-.09.03-.18.03-.27-.02-.18-.11-.38-.21-.58-.32-.98-.52-2-1.07-2.07-1.87v-4.22c0-.16.12-.29.29-.31.15-.02.3.1.33.26.08.51.9.95,1.68,1.36.23.12.45.24.67.37.31.18.9.53,1.67.97,2.9,1.71,9.7,5.7,10.37,5.86.71.17,1.5.07,2.07-.24l3.35-1.93c.1-.06.21-.06.31,0,.09.05.15.15.15.26v4.2c0,.11-.06.21-.15.27-.55.31-1.03.6-1.45.87-1.4.85-2.31,1.41-3.33,1.46-.07,0-.14,0-.21,0Z"/>
      <path class="cls-3" d="M7.69,7.15c.82-.47,2.16-.47,2.98,0,5.39,3.11,7.92,4.57,13.31,7.68.83.47.83,1.25,0,1.72-6.39,3.69,3.04-1.75-3.35,1.94-.82.47-2.17.47-2.98,0-5.32-3.07-7.99-4.61-13.31-7.68-.83-.48-.83-1.25,0-1.72,2.97-1.72-3.26,1.88,3.36-1.94Z"/>
      <path class="cls-2" d="M4.66,9.25l-.17.1c-.29.17-.46.38-.46.59s.17.42.46.6l13.31,7.68c.72.42,1.95.42,2.67,0,.4-.23.73-.42,1.02-.58h0s1.3-.75,1.33-.77h0c.29-.16.62-.36,1.01-.58.29-.17.46-.39.46-.6s-.17-.43-.46-.59l-13.31-7.68c-.72-.42-1.95-.42-2.67,0h0l-2.92,1.69s-.07.04-.1.06c0,0-.02.01-.03.01l-.14.08h0ZM19.13,19.16c-.59,0-1.18-.13-1.64-.4l-13.31-7.68c-.5-.29-.78-.69-.78-1.13s.28-.84.78-1.13c.08-.05.16-.09.23-.13l.63-.37h.01c.5-.29,1.28-.75,2.48-1.44h0c.92-.53,2.37-.53,3.3,0l13.31,7.68c.5.29.77.69.77,1.13s-.28.84-.77,1.13l-1.02.59s0,0-.01,0l-.85.49c-.07.04-.14.08-.23.13,0,0-.03.02-.04.03l-.19.12h0c-.29.16-.62.36-1.02.58-.46.27-1.05.4-1.65.4Z"/>
      <path class="cls-3" d="M23.98,20.75l-1.18.68c-5.48,3.17,3.31-1.91-2.17,1.26-.52.27-.92.34-1.5.36v-4.2c.57-.02.98-.09,1.5-.36,5.48-3.17-3.31,1.91,2.17-1.26l1.18-.68c.39-.27.54-.39.62-.86v4.2c-.08.47-.23.59-.62.86Z"/>
      <path class="cls-2" d="M23.98,20.75h0,0ZM19.44,19.14v3.58c.36-.03.66-.11,1.04-.3l.97-.57c.09-.05.18-.11.27-.15l.4-.23c.16-.09.33-.19.52-.3l1.17-.68c.35-.25.42-.3.48-.65v-3.13s-.09.06-.13.09l-2.62,1.51s-.04.02-.06.03l-.34.2c-.11.07-.23.13-.36.21-.49.25-.89.35-1.34.38h0ZM19.13,23.35c-.08,0-.16-.03-.21-.09-.06-.06-.1-.14-.1-.22v-4.2c0-.17.13-.3.3-.31.51-.01.88-.07,1.37-.32l.27-.16h0s0,0,.01,0l3.06-1.77c.33-.24.41-.29.46-.64.03-.16.18-.27.33-.26.17.02.29.15.29.31v4.2c-.1.63-.33.81-.75,1.11-.01,0-.02.01-.03.02l-2.37,1.37c-.05.03-.11.06-.16.09l-.32.19c-.16.09-.32.19-.51.29-.59.31-1.07.38-1.64.4h0Z"/>
      <polygon class="cls-4" points="7.62 15.28 6.21 16.09 6.66 14.72 7.08 14.97 7.5 15.21 7.62 15.28"/>
      <path class="cls-2" d="M6.83,15.18l-.08.25.25-.15-.17-.1h0ZM6.21,16.4c-.07,0-.14-.02-.19-.07-.1-.08-.14-.21-.11-.33l.44-1.37c.03-.09.1-.16.18-.19.09-.03.18-.03.26.02l.97.56c.1.06.15.16.15.27s-.05.21-.15.27l-1.41.81c-.05.03-.1.04-.16.04Z"/>
      <path class="cls-1" d="M24.88,2.98c1.1.63,1.45.84,2.55,1.47.15.09.15.23,0,.31l-8.63,4.99c-.15.09-.4.09-.55,0l-2.55-1.47c-.15-.09-.15-.23,0-.31l8.64-4.99c.15-.09.39-.09.54,0Z"/>
      <path class="cls-2" d="M27.28,4.72h0,0ZM16.05,8.12l2.36,1.36c.05.03.18.03.24,0l8.45-4.88-2.35-1.36h-.01c-.05-.03-.17-.03-.22,0l-8.45,4.88h0ZM18.52,10.12c-.15,0-.29-.03-.42-.1l-2.55-1.47c-.17-.1-.27-.25-.27-.42s.1-.32.27-.42l8.63-4.99c.25-.14.61-.14.85,0l2.55,1.47c.17.1.27.25.27.42s-.11.32-.27.42l-8.64,4.99c-.12.07-.27.1-.43.1Z"/>
      <path class="cls-2" d="M24.21,4.36l.81.46.29-.17-.81-.46-.3.17h0ZM25.01,5.49c-.05,0-.11-.02-.16-.04l-1.42-.82c-.09-.06-.16-.16-.16-.27s.06-.21.16-.26l.91-.52c.09-.06.21-.06.31,0l1.42.82c.09.05.15.16.15.27s-.06.21-.15.27l-.92.52s-.09.04-.15.04Z"/>
      <path class="cls-1" d="M24.37,12.46l1.5.86c.1.06.26.06.36,0l1.4-.81c.1-.06.1-.15,0-.21l-1.49-.86c-.11-.06-.26-.06-.37,0l-1.4.81c-.1.06-.1.15,0,.21Z"/>
      <path class="cls-2" d="M24.81,12.36l1.21.7,1.16-.65-1.21-.7-1.17.65h0ZM26.05,13.67c-.12,0-.23-.03-.34-.08l-1.49-.86c-.14-.08-.23-.22-.23-.37s.09-.29.23-.37l1.4-.81c.2-.11.48-.11.67,0l1.5.86c.15.08.23.22.23.37s-.09.29-.23.37l-1.4.81c-.1.05-.21.08-.33.08Z"/>
      <path class="cls-1" d="M27.46,14.24l1.5.86c.1.06.26.06.36,0l1.4-.81c.1-.06.1-.15,0-.21l-1.49-.86c-.11-.06-.27-.06-.36,0l-1.4.81c-.11.06-.11.15,0,.21Z"/>
      <path class="cls-2" d="M27.9,14.14l1.22.7,1.16-.65-1.21-.7-1.17.65h0ZM29.14,15.46c-.12,0-.24-.03-.34-.08l-1.5-.86c-.14-.08-.23-.22-.23-.37s.09-.29.23-.37l1.4-.81c.19-.11.48-.11.67,0l1.5.86c.15.08.23.22.23.37s-.09.29-.23.37l-1.4.81c-.1.06-.22.08-.33.08Z"/>
      <path class="cls-1" d="M24.28,8.94l1.49.86c.1.06.26.06.37,0l1.4-.81c.09-.06.09-.15,0-.21l-1.49-.86c-.1-.06-.27-.06-.36,0l-1.4.81c-.1.05-.1.15,0,.21Z"/>
      <path class="cls-2" d="M24.71,8.84l1.22.7,1.17-.65-1.21-.7-1.17.65h0ZM25.95,10.16c-.12,0-.24-.03-.34-.08l-1.49-.86h0c-.15-.08-.23-.22-.23-.37s.09-.29.23-.37l1.4-.81c.19-.11.48-.11.67,0l1.49.86c.15.08.24.22.24.37s-.09.29-.24.37l-1.4.81c-.09.05-.22.08-.33.08Z"/>
      <path class="cls-1" d="M27.37,10.73l1.5.86c.09.06.26.06.35,0l1.4-.81c.11-.06.11-.15,0-.21l-1.49-.86c-.1-.06-.26-.06-.36,0l-1.4.81c-.11.06-.11.15,0,.21Z"/>
      <path class="cls-2" d="M27.8,10.63l1.21.7,1.17-.65-1.21-.7-1.17.65h0ZM29.05,11.94c-.12,0-.24-.03-.34-.08l-1.5-.86c-.15-.08-.23-.22-.23-.37s.09-.29.23-.37l1.4-.81c.19-.11.48-.12.67,0l1.5.86c.15.08.23.22.23.37s-.08.29-.23.37l-1.4.81c-.1.06-.22.08-.33.08Z"/>
      <path class="cls-1" d="M30.46,12.52l1.49.86c.11.06.27.06.36,0l1.4-.81c.1-.06.1-.15,0-.21l-1.5-.86c-.09-.06-.26-.06-.36,0l-1.4.81c-.1.06-.1.15,0,.21Z"/>
      <path class="cls-2" d="M30.9,12.41l1.21.7,1.17-.65-1.22-.7-1.16.65h0ZM32.13,13.73c-.11,0-.24-.03-.33-.08l-1.5-.86h0c-.15-.08-.24-.22-.24-.37s.09-.29.24-.37l1.4-.81c.19-.11.48-.11.67,0l1.49.86c.14.08.23.22.23.37s-.09.29-.23.37l-1.4.81c-.09.06-.22.08-.34.08Z"/>
      <path class="cls-1" d="M27.27,7.22l1.5.86c.1.06.27.06.36,0l1.4-.81c.11-.06.11-.15,0-.21l-1.5-.86c-.09-.06-.26-.06-.36,0l-1.4.81c-.09.06-.09.15,0,.21Z"/>
      <path class="cls-2" d="M27.71,7.11l1.21.7,1.17-.65-1.22-.7-1.17.65h0ZM28.94,8.43c-.11,0-.23-.03-.33-.08l-1.49-.86c-.15-.08-.24-.22-.24-.37s.09-.29.24-.37l1.4-.81c.19-.11.48-.11.67,0l1.5.86c.14.08.22.22.22.37s-.09.29-.22.37l-1.4.81c-.09.05-.21.08-.34.08Z"/>
      <path class="cls-1" d="M30.36,9l1.5.86c.1.06.26.06.36,0l1.4-.81c.1-.06.1-.15,0-.21l-1.49-.86c-.1-.06-.26-.06-.37,0l-1.4.81c-.1.06-.1.15,0,.21Z"/>
      <path class="cls-2" d="M30.8,8.9l1.21.7,1.17-.65-1.21-.7-1.17.65h0ZM32.04,10.21c-.12,0-.23-.03-.34-.08l-1.5-.86h0c-.14-.08-.23-.22-.23-.38s.09-.29.23-.37l1.4-.81c.2-.11.48-.11.67,0l1.5.86c.14.08.23.22.23.37s-.09.29-.23.37l-1.4.81c-.11.06-.22.08-.34.08Z"/>
      <path class="cls-1" d="M33.45,10.79l1.5.86c.09.06.26.06.36,0l1.4-.81c.1-.06.1-.15,0-.21l-1.49-.86c-.11-.06-.27-.06-.37,0l-1.4.81c-.1.06-.1.15,0,.21Z"/>
      <path class="cls-2" d="M33.9,10.68l1.21.7,1.16-.65-1.21-.7-1.17.65h0ZM35.13,12c-.12,0-.24-.03-.34-.08l-1.5-.86h0c-.14-.08-.23-.22-.23-.37s.09-.28.23-.37l1.4-.81c.2-.11.48-.11.67,0l1.49.86c.15.08.24.22.24.37s-.09.29-.22.37l-1.41.81c-.09.05-.21.08-.33.08Z"/>
      <path class="cls-1" d="M21.28,10.67l1.5.86c.11.06.27.06.36,0l1.4-.81c.1-.06.1-.15,0-.21l-1.49-.86c-.11-.06-.26-.06-.37,0l-1.4.81c-.09.06-.09.15,0,.21Z"/>
      <path class="cls-2" d="M21.72,10.57l1.2.7,1.17-.65-1.21-.7-1.16.65h0ZM22.96,11.89c-.12,0-.24-.03-.33-.08l-1.49-.86c-.15-.08-.24-.22-.24-.37s.09-.29.24-.37l1.4-.81c.19-.11.47-.11.67,0l1.5.86c.14.08.22.22.22.37s-.09.29-.22.37l-1.4.81c-.1.06-.22.08-.34.08Z"/>
      <path class="cls-2" d="M7.07,7.81c-.05,0-.1-.01-.15-.04l-2.59-1.5c-.15-.08-.2-.27-.11-.42.08-.15.27-.2.42-.11l2.59,1.5c.15.08.2.27.11.42-.05.1-.16.15-.26.15Z"/>
    </g>
  </g>
</svg>