<?xml version="1.0" encoding="UTF-8"?>
<svg id="Layer_2" data-name="Layer 2" xmlns="http://www.w3.org/2000/svg" viewBox="0 0 33.46 41.68" fill="currentColor">
  <defs>
    <style>
      .cls-1 {
        fill: #fff;
      }

      .cls-1, .cls-2, .cls-3, .cls-4 {
        fill-rule: evenodd;
      }

      .cls-2 {
        fill: #1a87c7;
      }

      .cls-3 {
        fill: #bdedf8;
      }

      .cls-4 {
        fill: #66ceef;
      }
    </style>
  </defs>
  <g id="_Layer_" data-name="&amp;lt;Layer&amp;gt;">
    <g>
      <polygon class="cls-3" points="24.94 15.2 18.67 11.59 18.73 11.63 18.75 11.68 18.78 11.75 18.78 11.83 25.04 15.43 25.04 15.36 25.01 15.29 24.96 15.23 24.94 15.2"/>
      <path class="cls-2" d="M25.04,15.74c-.05,0-.11,0-.16-.03l-6.24-3.61c-.11-.05-.16-.14-.16-.24v-.02c-.1-.11-.13-.28-.05-.4.08-.13.26-.18.39-.11l6.26,3.61s.03.02.03.03l.05.03s.05.05.05.08c.03.03.05.09.08.12,0,.03.03.11.03.13v.09c.03.11-.03.22-.13.29-.05.03-.1.04-.16.04Z"/>
      <path class="cls-4" d="M6.05,27.7l6.24,3.6c-.94-.7-1.47-1.36-1.94-2.45-.5-1.28-.63-2.46-.66-3.82v-.75c0-.11,0-.16-.1-.23l-6.24-3.6c.08.07.11.12.11.23,0,1.01.03,1.94.18,2.95.34,1.73.94,2.97,2.41,4.07h0ZM19.15,37.63l6.24,3.61c-.45-.4-.37-1.22-.52-1.82-.21-.62-.45-1-.97-1.39l-6.24-3.6c.39.3.6.56.81,1.04.29.71.21,1.76.68,2.17h0ZM25.04,15.43l-6.26-3.61v14.09c0,.28-.18.62-.5.68-.05,0-.08,0-.13-.03,2.1,1.17,4.19,2.41,6.26,3.61.08.03.13.03.21,0,.26-.13.39-.38.42-.65v-14.08Z"/>
      <path class="cls-2" d="M18.83,26.59c1.21.68,2.44,1.39,3.64,2.09.68.4,1.36.79,2.04,1.19.13-.08.21-.22.21-.39v-13.88l-5.63-3.24v13.55c-.03.23-.1.49-.26.68h0ZM24.52,30.51c-.08,0-.16-.02-.24-.05-.73-.42-1.41-.83-2.12-1.23-1.39-.8-2.75-1.61-4.14-2.38h-.03c-.13-.1-.18-.28-.11-.43.08-.13.24-.18.37-.14.13-.04.21-.23.23-.38v-14.06c0-.11.05-.21.16-.26.08-.06.21-.06.29,0l6.24,3.6c.1.06.16.16.16.27v14.08c-.03.42-.24.76-.55.92-.08.03-.16.07-.26.07h0ZM6.2,27.44l4.38,2.52c-.18-.3-.34-.62-.52-.99-.45-1.17-.66-2.31-.66-3.94v-.75l-5.63-3.24c0,.88.03,1.68.18,2.54.29,1.52.79,2.76,2.25,3.86h0ZM12.28,31.61c-.05,0-.1-.02-.16-.04l-6.24-3.61s-.03,0-.03-.02c-1.42-1.04-2.15-2.28-2.52-4.25-.18-1.04-.18-1.98-.18-3.01-.13-.1-.16-.29-.08-.42.11-.13.29-.17.42-.09l6.24,3.61c.23.18.26.34.26.47v.77c.03,1.54.21,2.61.63,3.7.45,1.03.92,1.64,1.83,2.32.13.09.16.28.08.42-.08.09-.16.14-.26.14h0ZM19.33,37.38l5.37,3.11c-.03-.14-.03-.28-.05-.41-.03-.21-.05-.41-.11-.59-.18-.59-.39-.89-.84-1.22l-4.9-2.83c.11.29.16.61.18.91.08.42.16.84.34,1.03h0ZM25.38,41.54c-.05,0-.11,0-.16-.04l-6.24-3.6s-.03-.02-.05-.03c-.37-.32-.47-.88-.55-1.42-.05-.31-.1-.63-.21-.88-.18-.42-.37-.63-.71-.9-.13-.1-.18-.28-.08-.42.08-.14.26-.17.42-.1l6.24,3.61c.65.48.89.95,1.1,1.55.05.23.08.46.11.7.05.42.1.81.34,1,.11.1.13.28.05.41-.08.09-.16.13-.26.13Z"/>
      <polygon class="cls-3" points="27.53 3.92 21.29 .31 15.66 13.22 21.9 16.82 27.53 3.92"/>
      <path class="cls-2" d="M16.05,13.1l5.69,3.29,5.4-12.34-5.71-3.29-5.37,12.34h0ZM21.9,17.14c-.05,0-.1-.02-.16-.04l-6.24-3.61c-.16-.08-.21-.24-.13-.39L21.01.19c.03-.08.1-.14.18-.17.08-.03.18-.02.24.03l6.26,3.61c.13.08.18.24.13.39l-5.63,12.91c-.05.09-.1.15-.21.17-.03,0-.05.02-.08.02Z"/>
      <path class="cls-1" d="M24.12,30l-8.12-4.69c-.45-.25-.76-.62-1-1.1-.21-.49-.31-1.09-.31-1.79v-1.02c0-.24.16-.51.37-.63l2.78-1.6-5.63-6.42-5.63,12.92,2.75-1.61c.21-.11.37-.02.37.21v.75c0,1.6.26,2.94.76,4.02.47,1.08,1.2,1.9,2.2,2.47l10.72,6.2c.52.3.94.54,1.28,1.18.21.42.34.93.37,1.54.05.86.68,1.17,1.47.73l2.1-1.21c.79-.46,1.44-1.59,1.44-2.52V12.56c0-.23.16-.52.37-.63l2.78-1.6-5.63-6.41-5.63,12.91,2.78-1.6c.21-.12.37-.03.37.21v14.08c0,.88-.73.6-.92.49Z"/>
      <path class="cls-2" d="M9.5,23.72c.08,0,.16.03.24.07.18.1.26.28.26.5v.75c0,1.55.24,2.85.71,3.89.47,1.02,1.18,1.81,2.07,2.33l10.74,6.2c.55.32,1.02.59,1.39,1.3.24.46.37,1.02.42,1.67.03.3.11.51.29.59.16.1.42.05.71-.11l2.1-1.2c.68-.41,1.28-1.44,1.28-2.26V12.56c0-.35.24-.73.52-.9l2.44-1.41-5.06-5.76-5.06,11.61,1.96-1.14c.18-.11.39-.12.58-.03.16.1.24.28.24.5v14.08c0,.5-.18.73-.37.84-.42.24-.94-.04-1-.08l-8.12-4.69c-.5-.28-.86-.69-1.1-1.24-.24-.52-.37-1.17-.37-1.91v-1.02c0-.34.24-.73.52-.9l2.44-1.41-5.06-5.76-5.08,11.6,1.99-1.13c.11-.06.21-.1.32-.1h0ZM25.83,41.68c-.18,0-.37-.04-.52-.13-.34-.19-.55-.58-.58-1.1-.05-.56-.16-1.03-.37-1.42-.29-.56-.63-.77-1.13-1.05l-10.74-6.2c-1.05-.6-1.83-1.48-2.33-2.62-.52-1.11-.76-2.51-.76-4.15v-.62l-2.7,1.54c-.1.07-.26.05-.34-.04-.1-.09-.13-.23-.08-.35l5.63-12.92c.03-.1.13-.17.24-.18.11,0,.21.03.26.1l5.63,6.41c.05.07.08.16.08.25-.03.09-.08.17-.16.22l-2.75,1.6c-.1.06-.21.24-.21.37v1.02c0,.66.11,1.22.29,1.66.21.43.5.75.86.96l8.1,4.69h.03c.11.07.32.12.37.08.05-.02.08-.12.08-.3v-13.97l-2.67,1.55c-.13.07-.26.05-.37-.03-.11-.1-.13-.23-.08-.36l5.63-12.91c.03-.1.13-.17.24-.18.1-.02.21.02.29.1l5.63,6.41c.05.07.08.16.05.25,0,.09-.05.17-.13.22l-2.78,1.6c-.1.06-.21.23-.21.36v24.88c0,1.04-.71,2.27-1.6,2.79l-2.1,1.21c-.29.16-.58.24-.81.24Z"/>
      <polygon class="cls-3" points="12.2 12.77 5.94 9.17 .31 22.07 6.57 25.68 12.2 12.77"/>
      <path class="cls-2" d="M.7,21.94l5.71,3.29,5.4-12.34-5.71-3.29L.7,21.94h0ZM6.57,25.99c-.05,0-.13,0-.16-.04L.15,22.34c-.13-.08-.18-.25-.13-.39l5.63-12.91c.05-.09.11-.15.18-.17.11-.03.18-.02.26.03l6.24,3.61c.13.08.18.24.13.39l-5.63,12.91c-.03.08-.08.14-.18.16-.03.02-.05.02-.08.02Z"/>
    </g>
  </g>
</svg>