<?xml version="1.0" encoding="UTF-8"?>
<svg id="Layer_2" data-name="Layer 2" xmlns="http://www.w3.org/2000/svg" viewBox="0 0 19.4 41.44" fill="currentColor">
  <defs>
    <style>
      .cls-1 {
        fill: #fff;
      }

      .cls-1, .cls-2, .cls-3, .cls-4 {
        fill-rule: evenodd;
      }

      .cls-2 {
        fill: #1a87c7;
      }

      .cls-3 {
        fill: #bdedf8;
      }

      .cls-4 {
        fill: #66ceef;
      }
    </style>
  </defs>
  <g id="_Layer_" data-name="&amp;lt;Layer&amp;gt;">
    <g>
      <path class="cls-4" d="M15.04,4.24v32.3c-.16-1.49-1.31-2.61-2.46-3.43V.8c1.15.82,2.31,1.94,2.46,3.43h0ZM9.96,4.22v1.45l.24.14c.6-.36,1.07-.85,1.1-1.58v32.3c-.03.72-.52,1.23-1.1,1.58l-.94-.55v-2.26c-2.31-1.89-7.57-1.75-7.6,1.01V4.01C1.65,1.86,4.69,1.5,6.6,1.87c1.1.22,3.3.96,3.35,2.35h0Z"/>
      <path class="cls-2" d="M12.89,32.95c.81.6,1.41,1.22,1.83,1.86V4.25c-.11-1-.73-1.93-1.83-2.83v31.53h0ZM15.04,36.85c-.16,0-.29-.12-.31-.27-.13-1.14-.89-2.2-2.33-3.21-.08-.06-.13-.15-.13-.25V.8c0-.12.05-.22.16-.28.1-.05.24-.04.34.02,1.57,1.13,2.44,2.32,2.59,3.65v32.33c0,.17-.13.3-.32.31h0ZM9.56,37.38l.63.37c.52-.35.79-.76.79-1.23V5.6c-.18.17-.39.33-.63.47-.1.06-.21.06-.31,0l-.24-.14c-.11-.05-.16-.16-.16-.27v-1.44c-.05-1.15-2.04-1.84-3.12-2.05-1.28-.25-3.07-.13-3.98.61-.39.32-.58.72-.58,1.23v30.79c.24-.24.52-.45.86-.61,1.89-.88,4.98-.47,6.6.87.08.06.13.14.13.24v2.08h0ZM10.19,38.42c-.05,0-.11-.02-.16-.04l-.94-.55c-.11-.05-.16-.16-.16-.27v-2.11c-1.47-1.12-4.22-1.46-5.84-.7-.73.35-1.13.88-1.13,1.56,0,.17-.13.31-.31.31h0c-.16,0-.31-.14-.31-.31V4.01c0-.69.29-1.26.81-1.7,1.1-.9,3.12-1.01,4.51-.74.37.07,3.54.74,3.59,2.63h0v1.2c.5-.34.71-.72.73-1.18,0-.17.16-.3.31-.3h0c.18,0,.31.14.31.31v32.3c-.03.73-.45,1.37-1.26,1.84-.05.03-.1.04-.16.04Z"/>
      <polygon class="cls-4" points="10.19 5.81 10.19 38.11 9.25 37.56 9.25 5.26 10.19 5.81"/>
      <path class="cls-2" d="M9.56,37.38l.32.19V5.98l-.32-.19v31.59h0ZM10.19,38.42c-.05,0-.11-.02-.16-.04l-.94-.55c-.11-.05-.16-.16-.16-.27V5.26c0-.11.05-.21.16-.27.1-.05.21-.05.31,0l.94.55c.11.05.16.16.16.27v32.3c0,.11-.05.21-.16.27-.05.03-.1.04-.16.04Z"/>
      <path class="cls-1" d="M16.37,4.57c0,3.37.1,32.04-.05,32.8-.6,3.06-4.95,3.89-7.7,3.75-2.72-.14-7.99-1.61-8.3-4.62V4.09c.23,3.16,5.68,4.62,8.49,4.73,2.75.11,7.07-.79,7.55-3.88l.03-.37Z"/>
      <path class="cls-2" d="M.63,5.78v30.69c.26,2.78,5.34,4.2,7.99,4.34,2.67.14,6.86-.67,7.41-3.5.11-.74.05-20.41.05-28.81v-2.02c-1.49,2.22-5.21,2.73-7.28,2.65-2.2-.08-6.55-1.05-8.17-3.35h0ZM9.2,41.44c-.21,0-.42,0-.6-.01-2.54-.14-8.25-1.56-8.57-4.9l-.03-.1V4.09c0-.16.13-.3.31-.31H.31c.16,0,.31.12.31.28.21,2.92,5.45,4.34,8.17,4.44,2.7.09,6.81-.77,7.23-3.62l.05-.35c0-.16.13-.28.31-.28.16,0,.29.14.29.31v3.93c.05,14.69.05,28.36-.05,28.93-.63,3.2-4.85,4.01-7.44,4.01Z"/>
      <path class="cls-4" d="M16.37,18.54c0,.99.1,4.53-.08,5.31-.71,3.1-5.11,3.88-7.89,3.69-2.65-.18-7.81-1.67-8.1-4.71v-4.77c.23,3.23,5.68,4.71,8.49,4.83,2.75.11,7.07-.81,7.55-3.96l.03-.38Z"/>
      <path class="cls-2" d="M.63,19.77v3.05c.26,2.75,5.21,4.23,7.81,4.4,2.67.19,6.92-.59,7.57-3.45.1-.45.1-2.02.08-3.32-1.44,2.29-5.19,2.82-7.28,2.73-2.2-.09-6.55-1.07-8.17-3.41h0ZM9.17,27.86c-.26,0-.52,0-.79-.03-2.59-.18-8.04-1.63-8.36-4.99l-.03-4.8c0-.17.13-.3.31-.31.16-.03.31.12.31.29.21,2.99,5.45,4.43,8.2,4.54,2.65.11,6.79-.79,7.2-3.7l.05-.36c0-.17.16-.28.31-.28.16,0,.29.14.29.31v.91c.03,1.93.05,3.86-.08,4.47-.73,3.15-4.82,3.95-7.44,3.95Z"/>
      <path class="cls-4" d="M8.75,31.05s0,.05-.03.07l-.58,1.48,1.68-1.36c.16-.13.29-.12.34.02l.52,1.57,2.36-6.08c-.97.33-1.86-.14-2.2-1.09l-2.1,5.39h0ZM14.2,26.09l2.33,3.32.55-2.19c.05-.19.21-.38.34-.42l1.68-.56c-.86-1.23-1.73-2.46-2.59-3.69-.37,1.32-1.23,2.68-2.31,3.54h0Z"/>
      <path class="cls-2" d="M14.62,26.14l1.78,2.53.39-1.53c.05-.3.29-.57.55-.64l1.26-.43-1.99-2.85c-.45,1.11-1.15,2.17-1.99,2.91h0ZM16.53,29.72c-.08,0-.18-.05-.24-.13l-2.33-3.32c-.1-.13-.08-.32.05-.42,1-.79,1.83-2.08,2.18-3.38.03-.12.13-.2.26-.22.1-.02.24.03.29.13l2.59,3.69c.05.08.08.18.05.27-.05.1-.1.17-.21.2l-1.65.56c-.05.02-.13.1-.16.2l-.52,2.19c-.03.12-.13.21-.24.23-.03,0-.05,0-.08,0h0ZM9.88,31.36h0s0,0,0,0h0ZM10.03,30.84s.08,0,.11.02c.16.04.26.15.31.31l.26.76,1.86-4.77c-.68.05-1.28-.24-1.7-.77l-1.83,4.77s-.03.08-.03.08l-.16.37.76-.62c.13-.1.26-.16.42-.16h0ZM10.69,33.14h0c-.13,0-.24-.09-.29-.21l-.47-1.38-1.57,1.3c-.13.09-.26.09-.37.01-.13-.08-.18-.23-.13-.36l.58-1.48.32.04-.29-.11,2.1-5.39c.03-.12.16-.2.29-.2h0c.13,0,.24.08.29.2.29.81,1.02,1.17,1.83.91.1-.04.24,0,.31.08.08.09.1.21.08.33l-2.38,6.08c-.03.12-.16.2-.29.2Z"/>
      <path class="cls-4" d="M16.03,19.85c-.55-.32-1.31-.27-2.15.21-.84.48-1.6,1.31-2.15,2.25v.03c-.58.96-.92,2.04-.92,3.01,0,.61.11.98.31,1.39.55.92,1.6,1.03,2.78.35l.05-.03c1.31-.8,2.46-2.48,2.86-4.14.08-.37.13-.76.13-1.11,0-.97-.34-1.66-.92-1.98Z"/>
      <path class="cls-2" d="M15.25,19.95c-.37,0-.79.13-1.2.38-.76.44-1.49,1.2-2.04,2.14-.55.99-.86,2-.86,2.89,0,.58.1.9.29,1.25.6,1.07,1.83.52,2.36.23,1.26-.77,2.36-2.39,2.72-3.97.08-.35.13-.71.13-1.04,0-.83-.26-1.44-.76-1.71-.18-.11-.39-.16-.63-.16h0ZM12.5,27.85c-.68,0-1.26-.32-1.62-.94-.21-.42-.37-.84-.37-1.55,0-1,.34-2.12.94-3.17.63-1.06,1.41-1.9,2.28-2.39.92-.53,1.81-.61,2.46-.21.68.39,1.07,1.19,1.07,2.25,0,.37-.05.78-.16,1.18-.39,1.76-1.6,3.5-2.99,4.34-.58.34-1.15.51-1.62.51Z"/>
      <path class="cls-3" d="M9.25,5.26c.52-.3.76-.75.68-1.22-.08-.47-.47-.96-1.21-1.39-.89-.53-2.07-.85-3.17-.91-1.02-.06-2.02.1-2.72.52-.92.52-1.28,1.26-1.15,2.05.16.79.84,1.63,2.02,2.32,1.47.84,3.28,1.33,5.03,1.42,1.7.09,3.33-.19,4.51-.87,1.31-.75,1.91-1.81,1.81-2.94-.1-1.15-.94-2.37-2.46-3.43l1.02-.5c1.73,1.2,2.65,2.58,2.78,3.89.1,1.34-.6,2.61-2.2,3.53-1.47.85-3.48,1.2-5.55,1.09-2.07-.11-4.19-.67-5.87-1.64-1.44-.83-2.23-1.83-2.41-2.8-.18-1.01.34-1.99,1.52-2.68,1.02-.59,2.41-.82,3.83-.74,1.42.08,2.86.48,4.01,1.13.94.56,1.47,1.23,1.57,1.87.13.7-.26,1.37-1.07,1.84l-.94-.55Z"/>
      <path class="cls-2" d="M5.14,1.26c-1.21,0-2.31.25-3.12.71-1.05.61-1.52,1.44-1.36,2.36.16.92.97,1.84,2.25,2.58,1.6.92,3.62,1.49,5.71,1.6,2.12.12,4.03-.26,5.4-1.05,1.44-.82,2.15-1.97,2.04-3.23-.11-1.22-1-2.48-2.49-3.56l-.39.19c1.28,1.01,2.07,2.19,2.18,3.35.1,1.29-.6,2.44-1.97,3.23-1.18.68-2.86,1.01-4.66.91-1.89-.1-3.72-.62-5.19-1.46-1.2-.71-1.99-1.61-2.15-2.54-.18-.94.29-1.8,1.28-2.37.73-.42,1.76-.62,2.88-.56,1.21.07,2.38.41,3.33.95,1,.57,1.28,1.19,1.36,1.61.05.46-.08.89-.45,1.23l.39.22c.58-.39.86-.89.76-1.43-.08-.58-.6-1.17-1.41-1.65-1.07-.61-2.49-1.01-3.88-1.09-.18-.01-.34-.02-.52-.02h0ZM9.35,9.14c-.24,0-.5,0-.76-.02-2.2-.12-4.32-.71-6-1.68C1.15,6.6.24,5.53.05,4.43c-.21-1.17.39-2.27,1.65-3,1.02-.59,2.46-.86,4.01-.78,1.47.09,2.99.51,4.14,1.17.97.57,1.6,1.32,1.73,2.08.13.84-.31,1.63-1.23,2.16-.1.06-.21.06-.31,0l-.94-.55c-.11-.06-.16-.16-.16-.27s.05-.21.16-.27c.24-.13.6-.43.55-.9-.08-.41-.45-.82-1.07-1.18-.84-.49-1.96-.81-3.04-.87-1.02-.06-1.94.11-2.57.48-.73.43-1.1,1.05-.97,1.72.13.74.79,1.49,1.86,2.11,1.39.79,3.12,1.28,4.9,1.38,1.7.09,3.25-.2,4.32-.83,1.15-.67,1.76-1.61,1.65-2.64-.11-1.1-.92-2.24-2.33-3.21-.08-.06-.13-.17-.13-.28s.08-.21.18-.25L13.47.03c.11-.05.21-.04.31.02,1.73,1.21,2.78,2.67,2.91,4.11.13,1.51-.71,2.87-2.36,3.82-1.28.75-3.04,1.15-4.98,1.15Z"/>
    </g>
  </g>
</svg>