<?xml version="1.0" encoding="UTF-8"?>
<svg id="Layer_2" data-name="Layer 2" xmlns="http://www.w3.org/2000/svg" viewBox="0 0 23.29 43.74" fill="currentColor">
  <defs>
    <style>
      .cls-1 {
        fill: #fff;
      }

      .cls-1, .cls-2, .cls-3, .cls-4 {
        fill-rule: evenodd;
      }

      .cls-2 {
        fill: #1a87c7;
      }

      .cls-3 {
        fill: #bdedf8;
      }

      .cls-4 {
        fill: #66ceef;
      }
    </style>
  </defs>
  <g id="_Layer_" data-name="&amp;lt;Layer&amp;gt;">
    <g>
      <path class="cls-3" d="M2.33,43.34l-1.62-.93c-.31-.23-.39-.51-.39-.89V13.45c.03-.96.55-1.88,1.36-2.39l2.96-1.71,1.78-1.02L15.25,3.22l1.55-.89,3.2-1.84c.34-.18.6-.27.97-.09l1.6.93c-.34-.17-.63-.08-.97.09l-3.17,1.84-1.55.89-8.86,5.11-1.76,1.02-2.96,1.71c-.81.51-1.34,1.44-1.39,2.39v28.07c.03.38.08.67.42.89Z"/>
      <path class="cls-2" d="M20.57.61c-.1,0-.24.05-.45.16L1.83,11.32c-.71.45-1.18,1.28-1.23,2.14v28.05c.03.36.08.5.29.64l.73.42V14.38c.03-1.07.63-2.08,1.52-2.65L21.43,1.16c.05-.02.08-.04.13-.06l-.76-.44c-.08-.03-.16-.05-.24-.05h0ZM2.33,43.65c-.05,0-.1-.02-.16-.04l-1.62-.94c-.47-.33-.52-.76-.55-1.14V13.45c.05-1.07.63-2.09,1.52-2.65L19.83.23c.34-.18.73-.35,1.26-.11l1.63.95c.16.08.21.26.13.41-.08.14-.26.2-.39.13-.24-.1-.37-.08-.71.09L3.46,12.26c-.71.46-1.18,1.28-1.23,2.14v28.05c.03.36.08.5.26.64.16.09.18.28.1.42-.08.09-.16.14-.26.14Z"/>
      <path class="cls-3" d="M21.59,32.69L3.3,43.25c-.76.44-1.39.08-1.39-.8V14.38c0-.88.63-1.95,1.39-2.39l2.96-1.71,1.76-1.02,8.86-5.11,1.55-.89,3.17-1.84c.76-.44,1.39-.08,1.39.8v28.07c0,.88-.63,1.95-1.39,2.39Z"/>
      <path class="cls-2" d="M21.59,32.69h.03-.03ZM22.22,1.55c-.13,0-.29.05-.47.14L3.46,12.26c-.65.39-1.23,1.36-1.23,2.13v28.07c0,.31.08.54.26.63.16.09.39.06.66-.09l18.29-10.56c.68-.39,1.23-1.36,1.23-2.13V2.23c0-.3-.08-.53-.23-.63-.08-.03-.13-.05-.21-.05h0ZM2.7,43.74c-.21,0-.37-.04-.52-.13-.37-.21-.55-.62-.55-1.16V14.38c0-.99.65-2.16,1.52-2.66L21.43,1.16c.47-.27.94-.3,1.28-.1.37.21.58.62.58,1.16v28.07c0,.99-.68,2.16-1.55,2.66h0L3.46,43.52c-.26.15-.52.23-.76.23Z"/>
      <path class="cls-1" d="M4.45,13.97v26.72l16.64-9.61V4.36c-5.55,3.2-11.08,6.41-16.64,9.61Z"/>
      <path class="cls-2" d="M4.77,14.15v26.01l16.01-9.26V4.89L4.77,14.15h0ZM4.45,41c-.05,0-.11-.02-.16-.04-.1-.06-.16-.16-.16-.27V13.97c0-.11.05-.21.16-.27L20.93,4.09c.1-.06.21-.06.31,0,.1.05.16.16.16.27v26.72c0,.11-.05.21-.16.27l-16.64,9.61c-.05.03-.1.04-.16.04Z"/>
      <path class="cls-1" d="M10.27,11.82v-2.74c2.04-1.18,4.09-2.36,6.13-3.53v2.74c-2.04,1.18-4.09,2.35-6.13,3.53h0ZM17.29,8.65v-4.52l-7.91,4.57v4.52l7.91-4.57h0Z"/>
      <path class="cls-2" d="M10.58,9.26v2.02l5.5-3.17v-2.03l-5.5,3.18h0ZM10.27,12.12c-.05,0-.11-.02-.16-.04-.08-.06-.16-.15-.16-.27v-2.74c0-.11.08-.21.16-.27l6.13-3.53c.08-.06.21-.06.31,0,.08.06.13.16.13.27v2.74c0,.11-.05.21-.13.26l-6.13,3.53c-.05.03-.1.04-.16.04h0ZM9.67,8.89l7.31-4.22v3.81l-7.31,4.22v-3.81h0ZM9.38,13.54c-.05,0-.1-.01-.16-.04-.1-.06-.16-.16-.16-.27v-4.52c0-.11.05-.21.16-.27l7.91-4.57c.11-.05.21-.05.31,0,.1.06.16.16.16.27v4.52c0,.11-.05.21-.16.27l-7.94,4.57s-.08.04-.13.04Z"/>
      <polygon class="cls-1" points="9.38 8.71 17.29 4.13 16.22 3.51 15.56 3.13 7.65 7.71 9.38 8.71"/>
      <path class="cls-2" d="M8.25,7.71l1.13.64,7.31-4.22-1.13-.65-7.31,4.22h0ZM9.38,9.01c-.05,0-.1-.01-.16-.04l-1.73-1c-.1-.06-.16-.16-.16-.26,0-.11.05-.21.16-.27l7.91-4.57c.1-.06.21-.06.31,0l1.73,1c.1.06.16.16.16.27s-.05.21-.16.27l-7.94,4.57s-.08.04-.13.04Z"/>
      <path class="cls-4" d="M2.33,43.34l-1.62-.93c-.31-.23-.39-.51-.39-.89V13.45c.03-.48.16-.96.39-1.37l1.62.94c-.26.47-.39.83-.39,1.36v28.07c0,.38.05.67.39.89Z"/>
      <path class="cls-2" d="M.84,12.51c-.13.3-.21.62-.24.96v28.05c.03.36.08.5.29.64l.73.42V14.38c0-.5.13-.87.29-1.24l-1.07-.63h0ZM2.33,43.65c-.05,0-.1-.02-.16-.04l-1.62-.94c-.47-.33-.52-.77-.55-1.14V13.45c.03-.56.18-1.08.44-1.53.08-.14.26-.19.42-.11l1.62.94c.13.08.18.27.1.41-.21.41-.34.73-.37,1.23v28.05c.03.36.08.5.26.64.16.09.18.28.1.42-.08.09-.16.14-.26.14Z"/>
      <polygon class="cls-3" points="7.65 8.6 8.41 9.04 8.41 12.67 9.38 13.23 9.38 8.71 7.65 7.71 7.65 8.6"/>
      <path class="cls-2" d="M8.72,12.49l.34.2v-3.81l-1.13-.65v.18l.63.36c.08.05.16.16.16.27v3.45h0ZM9.38,13.54c-.05,0-.1-.01-.16-.04l-.97-.56c-.1-.06-.16-.16-.16-.27v-3.45l-.6-.36c-.1-.06-.16-.16-.16-.27v-.89c0-.11.05-.21.16-.27.08-.06.21-.06.29,0l1.73,1c.11.06.16.16.16.27v4.52c0,.11-.05.21-.16.27-.03.03-.08.04-.13.04Z"/>
      <polygon class="cls-1" points="15.43 6.1 15.43 7.63 16.4 8.29 16.4 5.55 15.43 6.1"/>
      <path class="cls-2" d="M15.75,7.47l.34.23v-1.63l-.34.2v1.19h0ZM16.4,8.59c-.08,0-.13-.02-.18-.05l-.97-.65c-.08-.06-.13-.16-.13-.26v-1.53c0-.11.05-.21.16-.26l.97-.56c.08-.06.21-.05.31,0,.08.06.13.16.13.27v2.74c0,.11-.05.22-.16.27-.05.02-.08.03-.13.03Z"/>
      <polygon class="cls-1" points="10.27 10.61 15.43 7.63 16.4 8.29 10.27 11.82 10.27 10.61"/>
      <path class="cls-2" d="M10.58,10.79v.49l5.21-3.02-.39-.27-4.82,2.79h0ZM10.27,12.12c-.05,0-.11-.02-.16-.04-.08-.06-.16-.15-.16-.27v-1.2c0-.11.08-.21.16-.27l5.16-2.98c.11-.06.24-.05.31.01l.97.65c.1.06.16.16.13.27,0,.1-.05.2-.13.25l-6.13,3.53c-.05.03-.1.04-.16.04Z"/>
      <path class="cls-2" d="M16.9,11.77c-.6.35-1.13,1.24-1.13,1.94,0,.27.08.48.24.56.13.08.34.05.58-.09.6-.35,1.13-1.24,1.13-1.94,0-.27-.08-.48-.21-.56-.16-.08-.37-.05-.6.09h0ZM16.16,14.93c-.16,0-.34-.04-.47-.13-.34-.2-.52-.59-.52-1.09,0-.93.63-2.01,1.42-2.48h0c.45-.25.86-.29,1.2-.09.37.2.55.58.55,1.09,0,.93-.63,2.01-1.44,2.48-.24.14-.5.21-.73.21Z"/>
      <path class="cls-2" d="M8.83,32.84c-.63.35-1.13,1.24-1.13,1.94,0,.27.08.48.21.56.13.08.37.05.6-.09.6-.35,1.1-1.24,1.1-1.94,0-.27-.05-.48-.21-.56-.13-.08-.34-.05-.58.09h0ZM8.1,36c-.18,0-.34-.04-.47-.13-.37-.2-.55-.58-.55-1.09,0-.93.63-2.01,1.44-2.48h0c.45-.25.86-.29,1.2-.09.34.2.52.58.52,1.09,0,.93-.63,2.01-1.41,2.48-.26.14-.5.22-.73.22Z"/>
      <path class="cls-2" d="M8.96,31.94c-.18,0-.31-.14-.31-.3-.03-4.5,2.1-6.79,4.19-9,1.83-1.97,3.56-3.83,3.69-7.17,0-.14.1-.26.24-.29.13-.03.26.03.34.15l.86,1.58c.08.15.03.34-.13.42-.16.08-.34.03-.42-.12l-.37-.69c-.42,2.95-2.12,4.77-3.77,6.54-1.99,2.12-4.06,4.32-4.01,8.58,0,.17-.13.31-.31.31h0Z"/>
      <path class="cls-2" d="M15.69,17.6c-.05,0-.1-.01-.16-.05-.16-.09-.21-.28-.11-.42l1.15-1.82c.08-.14.26-.19.42-.1.13.09.18.28.08.42l-1.13,1.82c-.05.09-.16.14-.26.14Z"/>
      <path class="cls-2" d="M8.85,20.24c-.05,0-.1-.01-.16-.04-.13-.08-.18-.27-.11-.42l2.15-3.73c.11-.15.29-.2.42-.12.16.09.21.27.13.42l-2.17,3.74c-.05.1-.16.15-.26.15Z"/>
      <path class="cls-2" d="M11.06,19.02c-.05,0-.11-.01-.16-.04l-2.15-1.24c-.16-.08-.21-.27-.11-.42.08-.15.26-.2.42-.11l2.15,1.24c.13.09.18.28.11.42-.05.1-.16.15-.26.15Z"/>
      <path class="cls-2" d="M12.63,32.21c-.05,0-.11-.01-.16-.04-.13-.08-.18-.27-.1-.42l2.12-3.68c.08-.15.26-.2.42-.11.16.09.21.27.11.42l-2.12,3.68c-.05.1-.16.15-.26.15Z"/>
      <path class="cls-2" d="M14.8,31.01c-.05,0-.11-.02-.16-.04l-2.12-1.23c-.16-.09-.21-.27-.1-.42.08-.15.26-.2.42-.11l2.12,1.23c.13.09.18.27.11.42-.05.1-.16.15-.26.15Z"/>
      <path class="cls-2" d="M17,24.65c-.05,0-.1-.01-.16-.04-.13-.08-.18-.27-.11-.42l1.44-2.52c.1-.15.29-.2.42-.11.16.09.21.27.13.42l-1.47,2.52c-.05.1-.16.15-.26.15Z"/>
      <path class="cls-2" d="M18.5,23.83c-.05,0-.11-.02-.16-.04l-1.47-.84c-.13-.09-.18-.27-.1-.42.08-.15.26-.2.42-.11l1.47.84c.13.08.18.27.11.42-.08.1-.16.15-.26.15Z"/>
      <path class="cls-2" d="M7.7,26.21c-.05,0-.11-.01-.16-.04-.16-.09-.21-.27-.11-.42l1.44-2.51c.08-.15.29-.2.42-.12.16.09.21.28.13.42l-1.47,2.52c-.05.1-.16.15-.26.15Z"/>
      <path class="cls-2" d="M9.17,25.39c-.05,0-.1-.01-.13-.04l-1.47-.84c-.13-.08-.18-.27-.11-.42.08-.15.26-.2.42-.11l1.44.84c.16.09.21.28.13.42-.08.1-.16.15-.29.15Z"/>
    </g>
  </g>
</svg>