<?xml version="1.0" encoding="UTF-8"?>
<svg id="Layer_2" data-name="Layer 2" xmlns="http://www.w3.org/2000/svg" viewBox="0 0 29.82 46.26" fill="currentColor">
  <defs>
    <style>
      .cls-1 {
        fill: #fff;
      }

      .cls-1, .cls-2, .cls-3, .cls-4 {
        fill-rule: evenodd;
      }

      .cls-2 {
        fill: #1a87c7;
      }

      .cls-3 {
        fill: #bdedf8;
      }

      .cls-4 {
        fill: #66ceef;
      }
    </style>
  </defs>
  <g id="_Layer_" data-name="&amp;lt;Layer&amp;gt;">
    <g>
      <path class="cls-2" d="M13.23,0c.53,0,1.03.13,1.47.38,1.05.61,1.63,1.86,1.63,3.54v4.57c0,.16-.13.28-.28.28s-.27-.12-.27-.28V3.92c0-1.47-.48-2.55-1.36-3.06-.87-.51-2.05-.38-3.32.35-2.73,1.58-4.95,5.43-4.95,8.58v4.57c0,.15-.13.28-.28.28s-.27-.12-.27-.28v-4.57c0-3.33,2.35-7.4,5.23-9.06.85-.49,1.67-.74,2.41-.74Z"/>
      <polygon class="cls-1" points="28.05 7.36 22.82 5.24 19.16 2.22 1.77 12.26 10.67 17.4 28.05 7.36"/>
      <path class="cls-2" d="M2.32,12.26l8.34,4.81L27.42,7.4l-4.7-1.9s-.05-.03-.07-.04l-3.53-2.9L2.32,12.26h0ZM10.67,17.67s-.1-.01-.14-.04L1.63,12.5c-.09-.05-.14-.14-.14-.24s.06-.19.14-.24L19.02,1.98c.1-.06.23-.05.31.03l3.64,2.99,5.19,2.1c.09.04.17.13.17.24,0,.11-.05.21-.14.26l-17.39,10.04s-.09.04-.13.04Z"/>
      <polygon class="cls-3" points="20.65 29.08 19.16 2.22 1.77 12.26 .28 40.85 20.65 29.08"/>
      <path class="cls-2" d="M2.03,12.43l-1.45,27.92,19.78-11.42-1.45-26.24L2.03,12.43h0ZM.28,41.12s-.1-.01-.14-.04c-.09-.05-.14-.15-.13-.25L1.49,12.25c0-.09.06-.18.13-.23L19.02,1.98c.09-.05.19-.05.27,0,.08.05.13.13.14.23l1.49,26.86c0,.1-.05.2-.13.26L.42,41.08s-.09.04-.14.04Z"/>
      <polygon class="cls-4" points="10.67 17.4 6.99 14.38 1.77 12.26 .28 40.84 9.18 45.98 10.67 17.4"/>
      <path class="cls-2" d="M.56,40.69l8.36,4.82,1.46-27.99-3.52-2.9-4.83-1.95-1.47,28.02h0ZM9.18,46.26s-.1-.01-.14-.04L.13,41.08c-.08-.05-.14-.15-.13-.26L1.49,12.25c0-.09.05-.17.13-.22.08-.05.17-.06.25-.02l5.23,2.12s.05.03.08.04l3.66,3.02c.07.06.11.14.1.23l-1.49,28.59c0,.1-.06.18-.14.23-.04.02-.08.03-.13.03Z"/>
      <polygon class="cls-1" points="29.55 34.22 28.05 7.36 10.67 17.4 9.18 45.98 29.55 34.22"/>
      <path class="cls-2" d="M10.93,17.56l-1.46,27.92,19.79-11.42-1.46-26.24-16.86,9.74h0ZM9.18,46.26c-.05,0-.1-.01-.15-.04-.08-.05-.13-.15-.13-.25l1.49-28.58c0-.1.06-.18.14-.22L27.92,7.12c.08-.05.18-.05.27,0,.09.05.14.13.15.23l1.49,26.86c0,.11-.05.21-.14.26l-20.38,11.76s-.08.04-.13.04Z"/>
      <polygon class="cls-4" points="28.05 7.36 22.82 5.24 19.16 2.22 19.71 12.17 28.05 7.36"/>
      <path class="cls-2" d="M19.47,2.84l.49,8.87,7.45-4.31-4.7-1.9s-.05-.03-.07-.04l-3.18-2.62h0ZM19.71,12.45s-.09-.01-.13-.03c-.08-.04-.13-.13-.14-.23l-.56-9.95c0-.11.05-.21.16-.26.09-.05.21-.04.3.03l3.64,2.99,5.19,2.1c.09.04.17.13.17.24,0,.11-.05.21-.14.26l-8.34,4.82s-.09.04-.14.04Z"/>
      <path class="cls-2" d="M28.05,7.64s-.07,0-.1-.02l-5.3-2.16-3.67-3.02c-.12-.1-.13-.27-.04-.39.1-.12.27-.14.39-.04l3.64,2.99,5.19,2.1c.14.06.21.22.15.36-.04.11-.15.18-.26.18Z"/>
      <path class="cls-2" d="M1.77,12.54c-.09,0-.19-.05-.24-.14-.08-.13-.03-.3.1-.38L19.02,1.98c.13-.08.31-.03.38.1.08.14.03.31-.09.38L1.91,12.5s-.09.04-.14.04Z"/>
      <path class="cls-2" d="M23.99,23.58c-.58.11-1.17.2-1.77.28-.61.08-1.18.15-1.76.21-.15.02-.29-.09-.31-.24,0-.09.02-.17.08-.22.12-.14.24-.27.39-.47-.17-.21-.33-.43-.5-.66v.03s-.03.04-.04.05l-.14.39c-.34.93-.67,1.85-1.05,2.72-.07.16-.17.33-.28.48-.11.15-.23.29-.35.39-.12.1-.24.17-.37.22-.44.18-.73.09-1.2.03-.44-.06-.82-.04-1.02-.53-.07-.17-.1-.39-.07-.61.02-.14.06-.3.12-.46.39-1.03.78-2.07,1.25-3.16.09-.21.21-.41.35-.58.13-.16.29-.3.47-.41l4.75-2.74c.2-.12.4-.17.58-.16.22.01.39.12.5.3l.15.28c.06.11.11.2.17.29.15-.18.31-.39.46-.59.01-.02.03-.03.04-.04.1-.09.25-.09.36,0,.08.06.12.16.1.26l-.7,4.72c-.02.12-.11.21-.22.23Z"/>
      <path class="cls-4" d="M21.11,19.78l-.75,2.06c.28.4.55.79.83,1.11.09.1.1.24.02.35l-.12.15c.36-.04.72-.09,1.06-.13.51-.07,1.03-.15,1.54-.24l.52-3.51-.08.08c-.11.1-.28.1-.38,0-.2-.19-.32-.41-.45-.65-.15-.27-.14-.4-.47-.21l-1.72.99Z"/>
      <path class="cls-3" d="M20.36,20.21l-2.28,1.31c-.12.07-.22.16-.32.28-.11.13-.19.28-.27.45-.44,1.02-.82,2-1.19,2.99-.06.16-.12.29-.14.47-.02.13,0,.25.03.34.09.22,1.01.23,1.26.26.34.04.51-.2.71-.48.09-.12.17-.26.22-.38.36-.84.7-1.76,1.04-2.69.31-.85.62-1.7.93-2.54Z"/>
      <path class="cls-2" d="M20.32,32.37c.9-1.37,1.82-2.73,2.68-4.13.08-.13.25-.17.38-.09.09.05.13.14.13.24v.24s1.17-.67,1.17-.67c-.19-.26-.38-.53-.55-.82-.2-.3-.41-.62-.64-.97-.17-.27-.27-.57-.23-.86.03-.19.1-.37.19-.52.08-.14.18-.28.26-.38l.06-.08c.38-.48.77-.96,1.18-1.45.12-.14.25-.26.37-.35.17-.12.35-.19.51-.2.19-.02.37.03.51.15.13.11.27.35.37.5.27.39.53.78.83,1.15.48.6.34,1.04.14,1.52-.49,1.2-.96,2.4-1.42,3.57-.25.64-.5,1.26-.81,2.03-.13.33-.23.61-.47.9-.14.17-.3.31-.48.41l-1.03.59v.74c0,.15-.12.28-.28.28-.05,0-.09-.01-.13-.03-.93-.36-1.87-.72-2.8-1.17-.29-.14-.11-.4,0-.58Z"/>
      <path class="cls-2" d="M16.82,27.71c.23,1.28.46,2.56.7,3.81.03.15-.07.3-.22.33-.17.03-.34.07-.5.06-.12.31-.24.63-.37.97l-.17.48.31-.18h0s0,0,0,0l1.94-1.12c.16-.09.29-.13.42-.14.15,0,.27.03.4.1h.01c.24.15.36.22.36.64v1.62c0,.28-.1.62-.27.91-.16.27-.38.52-.65.67l-2.41,1.39c-.2.12-.41.18-.59.18-.22,0-.41-.08-.54-.24-.49-.61-.96-1.28-1.44-1.98-.03-.02-.05-.05-.07-.08-.01-.02-.02-.04-.02-.06-.22-.32-.43-.65-.65-.98l-.16-.24c-.11-.14-.17-.33-.17-.55,0-.19.05-.4.14-.62.12-.35.24-.7.4-1.11-.13-.02-.26-.07-.36-.13-.13-.08-.18-.25-.1-.38.02-.03.03-.05.06-.07,1.16-1.12,2.33-2.24,3.49-3.45.11-.11.28-.11.39,0,.05.04.07.1.08.16Z"/>
      <path class="cls-2" d="M21.63,5.86c.53,0,1.03.13,1.47.38,1.05.61,1.63,1.86,1.63,3.54v4.57c0,.16-.13.28-.28.28s-.27-.12-.27-.28v-4.57c0-1.47-.48-2.55-1.36-3.06-.87-.51-2.05-.38-3.32.35-2.73,1.58-4.95,5.43-4.95,8.58v4.57c0,.15-.13.28-.28.28s-.27-.12-.27-.28v-4.57c0-3.33,2.35-7.4,5.23-9.06.85-.49,1.67-.74,2.41-.74Z"/>
      <path class="cls-4" d="M25.67,29.27c-.13-.17-.25-.35-.38-.52-.09-.12-.18-.24-.27-.36l-1.62.93s-.1.05-.16.05c-.09,0-.17-.04-.22-.11-.71,1.11-1.45,2.21-2.17,3.31.71.33,1.41.61,2.12.88v-.49c0-.1.05-.19.14-.24l1.17-.67c.12-.07.23-.17.33-.29.1-.12.18-.26.25-.42l.82-2.08Z"/>
      <path class="cls-3" d="M24.58,26.79s.01.02.02.03c.24.37.49.72.73,1.05.01.02.03.05.03.07.13.17.25.33.37.5l.17.23c.43-1.09.87-2.21,1.35-3.39.12-.36.17-.46-.06-.74-.34-.41-.63-.83-.92-1.26-.2-.29-.25-.56-.62-.31-.08.06-.17.14-.26.25-.45.54-.82,1-1.18,1.45l-.06.08c-.07.08-.14.19-.21.3-.06.1-.11.22-.12.32-.02.15-.01.25.11.44.21.33.43.66.64.98Z"/>
      <path class="cls-4" d="M14.07,34.62l1.46-.84c.11-.36.24-.73.37-1.08.13-.36.3-.78.46-1.2l.02-.05c.08-.13.25-.18.38-.1.03.02.09.02.16.01-.18-.94-.37-1.97-.55-3.01-.91.93-1.82,1.82-2.73,2.69.04,0,.09,0,.13.02.14.06.21.22.16.36-.23.58-.39,1.02-.54,1.47v.02c-.07.14-.1.28-.1.41,0,.09.01.16.04.19l.03.03.17.25c.18.28.37.55.55.83Z"/>
      <path class="cls-3" d="M15.9,34.2l-1.51.87c.43.63.86,1.23,1.29,1.77.02.02.06.03.11.03.09,0,.2-.03.32-.1l2.41-1.39c.18-.1.33-.28.44-.47.12-.21.2-.45.2-.64v-1.62c0-.1-.03-.13-.08-.16h-.02s-.06-.03-.09-.03c-.04,0-.1.03-.18.07l-1.94,1.12h0s-.93.54-.93.54h0s0,0,0,0Z"/>
    </g>
  </g>
</svg>