<?xml version="1.0" encoding="UTF-8"?>
<svg id="Layer_2" data-name="Layer 2" xmlns="http://www.w3.org/2000/svg" viewBox="0 0 68.19 107.96" fill="currentColor">
  <defs>
    <style>
      .cls-1 {
        fill: #fff;
      }

      .cls-1, .cls-2, .cls-3 {
        fill-rule: evenodd;
      }

      .cls-2 {
        fill: #1a87c7;
      }

      .cls-3 {
        fill: #66ceef;
      }
    </style>
  </defs>
  <g id="_Layer_" data-name="&amp;lt;Layer&amp;gt;">
    <g>
      <path class="cls-1" d="M18.33,66.67c.49-.64,1.93-2.12,2.32-2.78.78-1.32.75-1.82.91-3.37,6.64,7.69,22.24,12.19,28.23,1.29,3.33,5.01-.07,13.18-6.1,15.44-9.26,3.46-18.18-3.79-24.2-9.26l-1.16-1.3Z"/>
      <path class="cls-2" d="M19.14,66.66l.81.92c6.86,6.24,15.06,12.24,23.53,9.07,2.94-1.09,5.43-3.8,6.49-7.09.75-2.35.68-4.66-.19-6.52-2.18,3.35-5.5,5.33-9.66,5.77-6.05.64-13.44-2.21-18.09-6.89-.11.75-.28,1.33-.85,2.28-.28.47-.93,1.2-1.56,1.91-.17.19-.34.38-.48.54h0ZM38.66,78.77c-7.13,0-13.81-5.08-19.59-10.34l-1.2-1.36c-.2-.22-.21-.56-.03-.78.19-.25.51-.61.86-.99.53-.61,1.21-1.36,1.42-1.72.62-1.06.67-1.49.78-2.64l.05-.49c.03-.24.19-.43.43-.52.23-.07.49,0,.65.19,4.3,4.97,11.85,8.12,17.96,7.48,4.11-.43,7.31-2.54,9.26-6.08.1-.19.3-.31.51-.31.24,0,.42.09.54.28,1.53,2.28,1.83,5.37.83,8.47-1.17,3.63-3.95,6.64-7.23,7.88-1.77.66-3.52.95-5.24.95Z"/>
      <path class="cls-1" d="M46.11,67.02c2.51-2.42,4.56-6.81,6.51-10.83,2.67-5.46,2.54-11.72,2.57-16.74l-.92-2.99c-.32-1.24-.36-2.55-.38-3.81-.03-1.63-.06-3.14-.9-3.91-1.98-1.81-8.91,5.63-11.57,7.16-2.61,1.51-8.04,2.42-9.92,4-1.89,1.58-1.8,2.87-1.77,5.13.04,2.15.15,4.25-1.16,8.81-.39-2.77-1.63-6.85-5.07-6.85-3.24.2-4.09,4.2-3.5,6.81.35,1.53,1.2,3.3,1.9,4.61.23.42-.06,1.57-.26,2.19,4.79,5.42,11.75,9.16,17.3,9.14,2.47,0,5.38-1.01,7.17-2.73Z"/>
      <path class="cls-2" d="M22.33,60.45c4.71,5.21,11.34,8.69,16.59,8.69h.02c2.44,0,5.16-1.04,6.75-2.57h0c2.27-2.19,4.17-6.08,6.01-9.87l.38-.76c2.45-5.03,2.48-10.9,2.5-15.59v-.8s-.89-2.91-.89-2.91c-.35-1.34-.38-2.68-.4-3.96-.03-1.49-.06-2.89-.7-3.48-.97-.86-5.08,2.61-7.29,4.49-1.44,1.22-2.68,2.26-3.55,2.76-1.24.71-3.07,1.3-4.83,1.86-2,.62-4.08,1.28-5.01,2.06-1.6,1.36-1.58,2.38-1.55,4.45v.54c.05,2.09.08,4.24-1.18,8.66-.08.28-.36.49-.63.45-.29-.04-.53-.24-.57-.54-.27-1.89-1.25-6.31-4.46-6.31-.83.05-1.55.43-2.09,1.15-1.02,1.36-1.13,3.49-.81,4.92.26,1.15.88,2.64,1.84,4.43.24.45.2,1.23-.12,2.33h0ZM38.92,70.38c-5.67,0-12.8-3.77-17.74-9.35-.14-.17-.19-.4-.13-.61.3-.94.36-1.57.3-1.72-1-1.88-1.66-3.47-1.95-4.74-.39-1.74-.23-4.24,1.03-5.91.75-1.01,1.8-1.58,3.03-1.65h0c2.38,0,4.19,1.7,5.15,4.78.57-2.63.54-4.22.51-5.79v-.54c-.04-2.14-.07-3.68,1.98-5.4,1.12-.94,3.21-1.62,5.43-2.32,1.7-.54,3.45-1.1,4.58-1.73.78-.46,2.04-1.53,3.37-2.65,3.52-2.99,7.17-6.07,8.92-4.45,1.04.94,1.07,2.61,1.11,4.34.02,1.24.05,2.49.35,3.67l.91,2.96c.02.07.03.12.03.19v.89c-.02,4.83-.05,10.85-2.63,16.13l-.38.76c-1.88,3.88-3.83,7.9-6.26,10.22-1.83,1.78-4.82,2.9-7.6,2.92h-.02Z"/>
      <path class="cls-3" d="M15.53,25.84c-4.42,8.1-1.64,30.3,5.99,35.12.16-.42.67-2.02.38-2.54-.7-1.3-1.55-3.07-1.9-4.61-1.66-7.3,7.05-10.74,8.57.04,1.31-4.56,1.2-6.66,1.16-8.81-.03-2.26-.12-3.55,1.77-5.13,1.88-1.58,7.31-2.49,9.92-4,2.66-1.53,9.59-8.97,11.57-7.16.84.77.87,2.28.9,3.91.02,1.26.05,2.57.38,3.81l.92,2.99c.26-3.94.17-8.52-.38-12.27-1.06-7.24-4.3-7.51-13.23-12.24-1.43-.75-3.27-2-6.04-2.09-6.73-.21-16.7,7.63-20.03,12.98Z"/>
      <path class="cls-2" d="M16.06,26.15c-4.14,7.61-1.7,28.33,5.13,33.81.14-.56.23-1.1.16-1.27-1-1.88-1.66-3.47-1.95-4.74-.59-2.63.04-5.13,1.66-6.54,1.14-.99,2.61-1.31,3.96-.8,1,.38,2.63,1.44,3.6,4.55.57-2.63.54-4.22.51-5.79v-.54c-.04-2.14-.07-3.68,1.98-5.4,1.12-.94,3.21-1.62,5.43-2.32,1.7-.54,3.45-1.1,4.58-1.73.78-.46,2.04-1.53,3.37-2.65,3.52-2.99,7.17-6.07,8.92-4.45,1.04.94,1.07,2.61,1.11,4.34.02.98.03,1.98.19,2.92.03-2.96-.15-5.84-.51-8.29-.83-5.72-3.03-6.8-8.89-9.73-1.19-.59-2.53-1.26-4.02-2.04l-.62-.35c-1.3-.71-2.91-1.62-5.15-1.69h-.25c-6.5,0-16.08,7.61-19.22,12.69h0ZM21.52,61.57c-.12,0-.23-.04-.33-.09-7.91-5-10.79-27.52-6.2-35.93.01-.02.02-.02.02-.04,3.35-5.42,13.27-13.28,20.28-13.28.09,0,.19,0,.29.02,2.53.07,4.36,1.1,5.71,1.82l.6.33c1.48.78,2.81,1.45,3.99,2.04,5.93,2.95,8.62,4.31,9.56,10.65.52,3.58.66,8.1.38,12.39-.02.3-.25.54-.54.58-.29.03-.57-.16-.66-.43l-.92-2.99c-.35-1.34-.38-2.68-.4-3.96-.03-1.49-.06-2.89-.7-3.48-.97-.86-5.08,2.61-7.29,4.49-1.44,1.22-2.68,2.26-3.55,2.76-1.24.71-3.07,1.3-4.83,1.86-2,.62-4.08,1.28-5.01,2.06-1.6,1.36-1.58,2.38-1.55,4.45v.54c.05,2.09.08,4.24-1.18,8.66-.08.28-.36.49-.63.45-.29-.04-.53-.24-.57-.54-.47-3.29-1.7-5.54-3.38-6.15-.92-.35-1.92-.14-2.72.56-1,.89-1.86,2.75-1.26,5.36.26,1.15.88,2.64,1.84,4.43.48.89-.32,2.96-.36,3.04-.06.18-.2.31-.38.37-.06.02-.13.04-.19.04Z"/>
      <path class="cls-1" d="M13.42,12.16v17.75c3.07,14.81,39.5,14.81,42.57,0V12.16H13.42Z"/>
      <path class="cls-2" d="M14.04,12.77v17.14c1.51,7.21,11.47,10.48,20.67,10.5h0c9.2,0,19.16-3.28,20.69-10.62l-.02-17.01H14.04ZM34.71,41.63h0c-9.7,0-20.23-3.58-21.89-11.58l-.02-17.88c0-.35.28-.61.62-.61h42.57c.34,0,.61.26.61.61v17.75c-1.68,8.13-12.2,11.72-21.9,11.72Z"/>
      <path class="cls-1" d="M5.79,12.04C5.78,2.68,14.42-.13,24.37.77c13.31,1.2,63.88,19.99,27.8,20.18-4.13.02-10.54-.71-18.02-1.48-6.65-.66-15.46,1.01-21.25,1.09-6.4.11-7.1-2.54-7.11-8.54Z"/>
      <path class="cls-2" d="M30.67,18.71c1.22,0,2.41.05,3.54.16l3.5.37c5.92.59,11.07,1.06,14.46,1.09,11.17-.05,12.11-1.93,12.14-2.5.2-4.71-29.35-15.47-39.99-16.45-6.68-.59-11.98.58-14.95,3.28-1.96,1.79-2.96,4.28-2.95,7.37h0c0,3.34.24,5.5,1.43,6.66.92.9,2.54,1.31,5.05,1.27,2.14-.04,4.72-.3,7.45-.58,3.32-.31,6.96-.68,10.33-.68h0ZM51.98,21.56c-3.49,0-8.56-.5-14.4-1.11l-3.5-.35c-4.1-.42-9.16.08-13.63.52-2.76.28-5.36.52-7.55.55-2.95.04-4.75-.43-5.94-1.62-1.5-1.46-1.79-3.77-1.79-7.52h0c0-3.46,1.12-6.24,3.35-8.27C12.67-.02,19.46-.29,24.43.16c9.63.87,41.37,11.51,41.11,17.72-.1,2.47-4.35,3.65-13.37,3.68h-.18Z"/>
      <path class="cls-1" d="M67.57,78.63v-9.54c.01-7.61-9.4-10.38-15.89-10.95-.6,1.24-1.22,2.47-1.88,3.67,1.73,3.22-.04,7.42-3.76,9.42-4.43,2.4-6.01,3.29-11.02,4.82-10.11-1.79-13.16-5.86-16.68-9.37-3.27,4.21-7.78,7.39-11.38,11.3-3.43,3.88-6.14,7.49-6.33,12.86,0,2.57,0,5.17,0,7.74,0,2.87.36,3.63,3.49,5.42,10.09,5.84,22.88,3.3,34.32-2.02,6.71-3.5,29.14-17.02,29.14-23.35Z"/>
      <path class="cls-2" d="M18.38,67.6c-1.85,2.26-4.04,4.24-6.16,6.15-1.64,1.5-3.33,3.02-4.82,4.64-3.14,3.53-5.97,7.16-6.17,12.46v7.72c0,2.64.21,3.18,3.17,4.9,10.82,6.24,24.33,2.33,33.76-2.05,8.46-4.42,28.79-17.24,28.79-22.79h0v-9.54c.01-8.19-11.61-9.96-14.91-10.29-.5,1.01-1.02,2.02-1.55,3.02.66,1.43.77,3.08.28,4.71-.65,2.16-2.27,4.09-4.45,5.25l-.54.28c-4.06,2.19-5.73,3.09-10.6,4.57-.09.03-.19.03-.29.02-9.31-1.65-12.86-5.3-15.99-8.52-.18-.18-.36-.37-.53-.54h0ZM17.32,107.96c-4.64,0-9.27-.97-13.53-3.43-3.23-1.86-3.79-2.75-3.79-5.96v-7.74c.21-5.75,3.19-9.56,6.49-13.26,1.54-1.69,3.25-3.23,4.91-4.73,2.25-2.05,4.58-4.15,6.44-6.56.1-.14.27-.22.45-.25.18-.02.35.06.48.18.35.35.69.71,1.03,1.06,3.13,3.22,6.36,6.53,15.18,8.14,4.64-1.42,6.29-2.32,10.23-4.43l.54-.3c1.89-1.01,3.3-2.66,3.86-4.52.43-1.44.31-2.85-.34-4.07-.1-.17-.1-.4,0-.59.65-1.2,1.26-2.42,1.87-3.64.12-.23.37-.35.61-.35,7.96.68,16.46,4.09,16.46,11.56v9.54c0,7.9-29.19,23.75-29.48,23.9-6.05,2.8-13.73,5.42-21.38,5.42Z"/>
      <path class="cls-2" d="M33.95,104.5c-.24,0-.47-.14-.57-.38l-10.94-25.2c-.08-.19-.06-.4.04-.58.1-.16.28-.28.48-.29,3.49-.28,7.59-1.17,11.84-2.57.33-.11.68.07.78.38.11.32-.07.68-.39.78-4.01,1.32-7.89,2.21-11.29,2.56l10.61,24.44c.13.31-.01.68-.32.82-.08.04-.17.05-.25.05Z"/>
      <path class="cls-3" d="M33.29,85.12c.9-.35,1.93.23,2.3,1.28.37,1.06-.06,2.21-.96,2.56-.9.35-1.93-.23-2.3-1.29-.37-1.06.06-2.19.96-2.55Z"/>
      <path class="cls-2" d="M33.52,85.69c-.59.25-.86,1.05-.61,1.79.14.4.41.71.74.87.18.09.45.16.74.03.59-.23.86-1.04.61-1.77-.14-.4-.41-.73-.74-.89-.18-.07-.44-.16-.74-.04h0ZM34.07,89.69c-.31,0-.63-.07-.93-.2-.64-.3-1.15-.89-1.39-1.6-.47-1.37.12-2.87,1.32-3.34h0c.55-.21,1.16-.19,1.71.07.64.3,1.15.87,1.39,1.58.47,1.38-.12,2.87-1.32,3.34-.25.1-.51.15-.77.15Z"/>
      <path class="cls-3" d="M53.59,75.83c.75-.41,1.72.04,2.16,1.01.44.95.18,2.09-.57,2.5-.75.42-1.72-.03-2.16-1.01-.44-.95-.18-2.09.57-2.51Z"/>
      <path class="cls-2" d="M54.2,76.31c-.09,0-.2.02-.31.07-.47.26-.61,1.04-.3,1.72.17.36.46.64.75.74.2.07.38.05.54-.03.47-.26.61-1.05.31-1.72-.17-.36-.45-.64-.76-.74-.06-.02-.15-.04-.24-.04h0ZM54.58,80.11c-.21,0-.42-.03-.62-.1-.63-.21-1.18-.71-1.49-1.41-.58-1.27-.21-2.73.83-3.31.46-.24,1.01-.29,1.52-.12.64.21,1.18.71,1.49,1.41.58,1.27.22,2.71-.83,3.3-.28.16-.59.23-.9.23Z"/>
    </g>
  </g>
</svg>