<?xml version="1.0" encoding="UTF-8"?>
<svg id="Layer_2" data-name="Layer 2" xmlns="http://www.w3.org/2000/svg" viewBox="0 0 25.68 41.95" fill="currentColor">
  <defs>
    <style>
      .cls-1 {
        fill: #fff;
      }

      .cls-1, .cls-2, .cls-3, .cls-4 {
        fill-rule: evenodd;
      }

      .cls-2 {
        fill: #1a87c7;
      }

      .cls-3 {
        fill: #bdedf8;
      }

      .cls-4 {
        fill: #66ceef;
      }
    </style>
  </defs>
  <g id="_Layer_" data-name="&amp;lt;Layer&amp;gt;">
    <g>
      <polygon class="cls-3" points="2.48 41.52 .85 40.58 .63 40.39 .45 40.12 .34 39.78 .3 39.37 .31 14.33 .32 14.1 .35 13.88 .4 13.64 .46 13.41 .54 13.18 .63 12.94 .74 12.71 .86 12.49 1 12.27 1.14 12.06 1.3 11.87 1.46 11.68 1.63 11.51 1.81 11.35 2 11.21 2.18 11.09 2.77 10.75 3.35 10.42 3.94 10.08 4.52 9.74 5.11 9.41 5.69 9.07 6.28 8.73 6.86 8.4 7.44 8.06 8.03 7.72 8.61 7.38 9.2 7.05 9.78 6.71 10.37 6.37 10.95 6.04 11.53 5.7 12.12 5.36 12.7 5.03 13.29 4.69 13.87 4.35 14.45 4.02 15.04 3.68 15.63 3.34 16.21 3 16.79 2.67 17.38 2.33 17.96 1.99 18.54 1.66 19.13 1.32 19.71 .98 20.3 .64 20.88 .31 22.51 1.25 21.93 1.58 21.34 1.92 20.76 2.26 20.17 2.6 19.59 2.93 19.01 3.27 18.42 3.61 17.84 3.95 17.25 4.28 16.67 4.62 16.08 4.96 15.5 5.29 14.92 5.63 14.33 5.97 13.75 6.3 13.16 6.64 12.58 6.98 11.99 7.31 11.41 7.65 10.83 7.99 10.24 8.32 9.66 8.66 9.07 9 8.49 9.34 7.9 9.68 7.32 10.01 6.74 10.35 6.15 10.68 5.57 11.02 4.98 11.36 4.4 11.7 3.81 12.03 3.62 12.15 3.44 12.29 3.26 12.45 3.09 12.62 2.92 12.81 2.77 13.01 2.63 13.21 2.49 13.43 2.37 13.65 2.26 13.88 2.17 14.12 2.09 14.35 2.03 14.58 1.98 14.82 1.95 15.05 1.94 15.27 1.93 40.31 1.97 40.72 2.08 41.06 2.25 41.33 2.48 41.52"/>
      <path class="cls-2" d="M.86,40.18l.19.16.62.36-.04-.36.02-25.31.15-.76.3-.75.42-.69.52-.6.61-.46L21.89,1.25l-1.01-.59L2,11.6l-.47.47-.4.58-.3.64-.17.65-.03.41v25.02s.03.38.03.38l.08.23.13.2h0ZM2.48,41.83c-.05,0-.11-.01-.16-.04l-1.63-.94-.27-.22s-.05-.04-.06-.07l-.17-.27s-.03-.05-.03-.07l-.11-.34-.05-.48L.02,14.09l.15-.77.3-.75.42-.69.52-.6.61-.46L20.73.04c.09-.06.21-.06.31,0l1.63.94c.1.05.15.16.15.26s-.06.21-.15.27L3.63,12.54l-.47.47-.4.58-.3.64-.17.65-.03.41v25.02s.02.38.02.38l.08.23.13.2.19.16c.12.1.15.28.06.41-.06.09-.15.13-.25.13Z"/>
      <path class="cls-3" d="M22.51,1.25l2.86,1.65c0,7.96,0,15.93,0,23.9,0,1.19-.84,2.65-1.87,3.24L3.8,41.39c-1.03.59-1.87.11-1.87-1.08V15.27c.01-1.19.85-2.64,1.88-3.24,6.23-3.6,12.46-7.19,18.7-10.79Z"/>
      <path class="cls-2" d="M22.51,1.6L3.97,12.3c-.93.54-1.71,1.9-1.71,2.97v25.04c-.01.46.13.79.38.94.25.15.61.1,1.01-.13l19.69-11.36c.93-.54,1.72-1.9,1.72-2.97V3.08s-2.54-1.48-2.54-1.48h0ZM2.97,41.95c-.23,0-.45-.05-.64-.17-.45-.26-.7-.79-.7-1.48V15.27c.01-1.29.92-2.86,2.04-3.51L22.36.98c.09-.05.21-.05.31,0l2.86,1.65c.09.06.15.16.15.27v23.9c-.01,1.29-.92,2.86-2.04,3.51L3.96,41.66c-.34.2-.68.3-.98.3Z"/>
      <path class="cls-1" d="M22.59,25.88c0,.91-.64,2.02-1.43,2.47l-15.02,8.66c-.78.45-1.43.08-1.43-.83v-9.81c0-.9.65-2.02,1.43-2.47l15.02-8.66c.78-.45,1.42-.08,1.42.83v9.81Z"/>
      <path class="cls-2" d="M22.59,25.88h0,0ZM21.8,15.35c-.14,0-.31.05-.48.15l-15.02,8.66c-.69.4-1.27,1.41-1.27,2.2v9.81c0,.32.09.56.26.66.17.1.42.06.7-.1l15.02-8.67c.69-.4,1.27-1.41,1.27-2.2v-9.81c0-.32-.09-.56-.26-.65-.06-.04-.14-.06-.22-.06h0ZM5.5,37.52c-.19,0-.37-.04-.53-.14-.37-.21-.57-.63-.57-1.19v-9.81c0-1.02.7-2.22,1.59-2.74l15.02-8.66c.48-.27.94-.31,1.32-.1.37.22.57.64.57,1.19v9.81h0c0,1.02-.69,2.23-1.58,2.74l-15.02,8.67c-.27.16-.54.23-.79.23Z"/>
      <polygon class="cls-1" points="15.25 5.41 12.91 4.06 5.92 8.09 8.26 9.44 15.25 5.41"/>
      <path class="cls-2" d="M6.53,8.09l1.72,1,6.37-3.68-1.72-1-6.37,3.68h0ZM8.26,9.75c-.05,0-.11-.01-.15-.04l-2.33-1.35c-.1-.05-.16-.16-.16-.27s.06-.21.16-.27l6.99-4.03c.09-.05.21-.05.31,0l2.34,1.35c.09.06.15.16.15.27s-.06.21-.15.27l-6.99,4.03s-.1.04-.15.04Z"/>
      <path class="cls-2" d="M5.92,8.98h0c-.17,0-.31-.14-.31-.31v-.58c0-.17.14-.31.31-.31h0c.17,0,.31.14.31.31v.58c0,.17-.14.31-.31.31Z"/>
      <polygon class="cls-1" points="20.94 2.13 18.6 .78 16.56 1.95 18.9 3.3 20.94 2.13"/>
      <path class="cls-2" d="M17.17,1.95l1.72,1,1.42-.82-1.72-.99-1.42.82h0ZM18.9,3.61c-.05,0-.11-.02-.15-.04l-2.34-1.35c-.1-.05-.16-.16-.16-.27s.06-.21.16-.26l2.04-1.18c.1-.06.21-.06.31,0l2.34,1.35c.1.06.15.16.15.27s-.06.21-.15.27l-2.04,1.18s-.1.04-.15.04Z"/>
      <path class="cls-1" d="M15.24,12.83v-7.42s-6.99,4.03-6.99,4.03v8.45c0,.91.64,1.28,1.43.83l9.82-5.67c.79-.45,1.43-1.56,1.43-2.47V2.13s-2.04,1.18-2.04,1.18v7.42c0,.61-.43,1.35-.96,1.66-.58.33-1.16.67-1.74,1-.52.3-.95.06-.95-.55Z"/>
      <path class="cls-2" d="M8.56,9.62v8.27c0,.32.09.56.26.65.17.1.42.06.7-.1l9.83-5.67c.69-.4,1.27-1.41,1.27-2.2V2.66s-1.42.82-1.42.82v7.24c0,.72-.49,1.56-1.11,1.92l-1.74,1.01c-.35.2-.71.22-.98.07-.27-.16-.43-.48-.43-.89h0v-6.89s-6.37,3.68-6.37,3.68h0ZM9.05,19.22c-.19,0-.37-.05-.53-.14-.37-.22-.57-.64-.57-1.19v-8.45c0-.11.06-.21.16-.27l6.99-4.03c.1-.05.21-.05.31,0,.09.06.15.16.15.27v7.42c0,.17.04.3.12.35.08.04.22.02.37-.07l1.74-1.01c.43-.24.8-.89.8-1.39V3.3c0-.11.06-.21.16-.27l2.04-1.18c.09-.05.21-.06.31,0,.09.06.15.16.15.27v8.45c0,1.02-.7,2.23-1.59,2.74l-9.82,5.67c-.27.16-.54.24-.79.24Z"/>
      <path class="cls-2" d="M7.63,33.51c-.1,0-.21-.05-.27-.15-.08-.15-.03-.34.12-.42l12.03-6.93c.14-.08.33-.03.42.11.08.15.03.34-.11.42l-12.03,6.94s-.1.04-.15.04Z"/>
      <path class="cls-2" d="M7.64,29.9c-.11,0-.21-.06-.27-.15-.08-.15-.03-.34.11-.42l12.03-6.94c.14-.09.33-.04.42.11.08.15.03.34-.11.42l-12.03,6.94s-.1.04-.15.04Z"/>
      <path class="cls-2" d="M7.64,26.3c-.11,0-.21-.06-.27-.15-.08-.15-.04-.34.11-.42l12.02-6.94c.15-.08.34-.04.42.11.08.15.03.34-.11.42l-12.03,6.93s-.1.04-.15.04Z"/>
      <path class="cls-2" d="M18.9,3.61c-.05,0-.1-.02-.15-.04l-1.88-1.08v.04c0,.17-.14.31-.31.31s-.31-.14-.31-.31v-.58c0-.11.06-.21.16-.26.09-.06.21-.06.3,0l2.34,1.35c.15.09.2.27.11.42-.06.1-.16.15-.27.15Z"/>
      <polygon class="cls-4" points="2.37 13.67 .74 12.73 .63 12.94 .54 13.18 .46 13.41 .4 13.64 .35 13.88 .32 14.1 .31 14.33 .3 39.37 .34 39.78 .45 40.12 .63 40.39 .85 40.58 2.48 41.52 2.25 41.33 2.08 41.06 1.97 40.72 1.93 40.31 1.94 15.27 1.95 15.05 1.98 14.82 2.03 14.58 2.09 14.35 2.17 14.12 2.26 13.88 2.37 13.67"/>
      <path class="cls-2" d="M.86,40.18l.19.16.62.36-.04-.36.02-25.31.15-.76.17-.47-1.09-.63-.18.56-.07.62v25.02s.03.38.03.38l.08.23.13.2h0ZM2.48,41.83c-.05,0-.11-.01-.16-.04l-1.63-.94-.27-.22s-.05-.04-.06-.07l-.17-.27s-.03-.05-.03-.07l-.11-.34-.05-.48L.02,14.09l.15-.77.29-.73c.04-.08.1-.14.19-.16.08-.03.17-.02.24.03l1.63.94c.14.08.19.25.13.4l-.26.64-.13.64v.2s-.02,25.02-.02,25.02l.03.38.08.23.13.2.19.16c.12.1.15.28.06.41-.06.09-.15.13-.25.13Z"/>
    </g>
  </g>
</svg>