<?xml version="1.0" encoding="UTF-8"?>
<svg id="Layer_2" data-name="Layer 2" xmlns="http://www.w3.org/2000/svg" viewBox="0 0 31.15 41.21" fill="currentColor">
  <defs>
    <style>
      .cls-1, .cls-2, .cls-3, .cls-4 {
        fill-rule: evenodd;
      }

      .cls-1, .cls-5 {
        fill: #fff;
      }

      .cls-2 {
        fill: #1a87c7;
      }

      .cls-3 {
        fill: #bdedf8;
      }

      .cls-4 {
        fill: #66ceef;
      }
    </style>
  </defs>
  <g id="_Layer_" data-name="&amp;lt;Layer&amp;gt;">
    <g>
      <path class="cls-4" d="M4.85,27.78c5.21-3.01,13.62-3.01,18.84,0,.55.32,1.05.65,1.47,1.01h2.41v3.95c0,2.14-1.05,4.3-3.88,5.92-5.21,3-13.65,3.01-18.84,0-2.59-1.49-3.88-3.44-3.9-5.39v-4.48h2.44c.42-.35.92-.69,1.47-1.01Z"/>
      <path class="cls-2" d="M1.26,29.1v4.17c.03,1.92,1.34,3.74,3.75,5.13,5.11,2.95,13.41,2.95,18.52,0,2.44-1.4,3.72-3.36,3.72-5.65v-3.64h-2.1c-.05,0-.13-.03-.18-.07-.45-.35-.92-.68-1.44-.98-5.11-2.95-13.41-2.95-18.52,0-.52.3-1.02.63-1.44.98-.05.04-.13.07-.18.07H1.26ZM14.28,41.21c-3.48,0-6.94-.76-9.59-2.28-2.59-1.5-4.03-3.51-4.06-5.65v-4.48c0-.08.03-.16.1-.22.05-.06.13-.09.21-.09h2.33c.42-.34.89-.67,1.41-.97h0c5.29-3.05,13.86-3.05,19.15,0,.52.3,1,.62,1.42.97h2.31c.16,0,.31.14.31.31v3.95c0,1.76-.71,4.27-4.03,6.19-2.65,1.52-6.1,2.28-9.56,2.28Z"/>
      <path class="cls-1" d="M6.16,23.95c4.48-2.58,11.74-2.58,16.19,0,4.48,2.58,4.48,6.77.03,9.35-4.48,2.58-11.74,2.58-16.22,0-4.48-2.58-4.48-6.77,0-9.35Z"/>
      <path class="cls-2" d="M14.28,22.32c-2.88,0-5.76.63-7.96,1.9-2.07,1.19-3.2,2.76-3.2,4.41s1.13,3.22,3.2,4.41c4.37,2.53,11.53,2.53,15.9,0,2.04-1.19,3.2-2.76,3.2-4.41s-1.15-3.22-3.2-4.41c-2.2-1.26-5.08-1.9-7.94-1.9h0ZM14.28,35.54c-3.01,0-6-.66-8.28-1.97-2.25-1.31-3.51-3.06-3.48-4.94,0-1.88,1.23-3.64,3.48-4.94,4.56-2.63,11.97-2.63,16.51,0,2.28,1.31,3.51,3.06,3.51,4.94s-1.23,3.63-3.51,4.94c-2.28,1.31-5.24,1.97-8.23,1.97Z"/>
      <path class="cls-3" d="M4.85,23.35c5.21-3,13.62-3.01,18.84,0s5.21,7.88,0,10.88c-5.21,3.01-13.65,3.01-18.84,0-5.21-3-5.21-7.88,0-10.88Z"/>
      <path class="cls-2" d="M5,23.62c-2.41,1.4-3.75,3.23-3.75,5.17s1.31,3.78,3.75,5.17c5.11,2.95,13.41,2.95,18.52,0,2.41-1.4,3.75-3.23,3.75-5.17s-1.34-3.78-3.75-5.17c-5.11-2.95-13.41-2.95-18.52,0h0ZM14.28,36.78c-3.48,0-6.94-.76-9.59-2.29-2.62-1.51-4.06-3.53-4.06-5.7s1.44-4.2,4.06-5.71h0c5.29-3.05,13.86-3.05,19.15,0,2.62,1.51,4.06,3.54,4.06,5.71s-1.44,4.19-4.06,5.7c-2.65,1.53-6.1,2.29-9.56,2.29Z"/>
      <path class="cls-4" d="M22.51,3.71l5.06-2.92c.45-.23.81-.35,1.28-.12l1.49.86c-.47-.22-.84-.1-1.28.13l-5.06,2.91v1.37l-1.49-.86v-1.37h0ZM29.11,3.52l-1.49-.86c.39.26.45.58.47,1.02v13.65c-.05,1.09-.65,2.15-1.57,2.73l-4.01,2.31v1.37l1.49.86v-1.37l4.01-2.31c.92-.59,1.52-1.64,1.57-2.74V4.55c-.03-.44-.08-.76-.47-1.02h0Z"/>
      <path class="cls-2" d="M22.82,4.91l.86.51v-.84c0-.11.05-.21.16-.26l5.06-2.92c.1-.06.21-.11.31-.15l-.52-.31c-.34-.15-.58-.08-1,.13l-4.87,2.82v1.02h0ZM22.82,23.58v-1.02l3.85-2.23c1.02-.64,1.68-1.78,1.73-2.99V3.67c0-.07,0-.14-.03-.21l.58.33c.26.18.31.39.31.76v13.64c-.03,1-.58,1.95-1.41,2.48l-4.01,2.31c-.1.05-.16.16-.16.27v.84l-.86-.51h0ZM24,24.92c-.05,0-.1-.01-.16-.04l-1.49-.86c-.1-.05-.16-.16-.16-.27v-1.37c0-.11.05-.21.16-.27l4.01-2.31c.84-.53,1.39-1.48,1.41-2.48V3.68c0-.37-.05-.58-.31-.75l-3.14,1.82v1.19c0,.11-.05.21-.16.27-.11.06-.21.06-.31,0l-1.49-.86c-.1-.06-.16-.16-.16-.27v-1.37c0-.11.05-.21.16-.27l5.06-2.92c.42-.23.94-.43,1.57-.14l1.52.88c.13.08.18.27.1.41-.08.15-.26.2-.39.13-.37-.16-.6-.09-1.02.12l-1.1.64,1.18.69s.03,0,.03.01c.52.36.58.82.6,1.26v13.67c-.05,1.21-.71,2.35-1.73,2.99l-3.85,2.23v1.19c0,.11-.05.21-.16.26-.05.03-.11.04-.16.04Z"/>
      <path class="cls-1" d="M24,5.95l4.01-2.31c.42-.24.81-.27,1.07-.12.03,0,.03,0,.03.01.29.17.47.52.47,1.02v13.65c0,.5-.18,1.06-.47,1.56-.26.5-.66.93-1.1,1.18l-4.01,2.31v1.37l5.06-2.92c.5-.28.94-.78,1.28-1.35h0c.31-.57.52-1.2.52-1.78V2.7c0-.57-.21-.98-.52-1.17-.34-.19-.79-.16-1.28.13l-5.06,2.91v1.37Z"/>
      <path class="cls-2" d="M24.31,23.42v.66l4.59-2.65c.42-.25.84-.7,1.15-1.23.31-.54.5-1.13.5-1.63V2.7c0-.43-.13-.76-.37-.9s-.6-.09-.97.13l-4.9,2.82v.66l3.54-2.05c.5-.29,1-.33,1.39-.13.45.25.66.71.66,1.31v13.65c0,.54-.18,1.15-.5,1.71-.34.57-.76,1.03-1.23,1.29l-3.85,2.22h0ZM24,24.92c-.05,0-.1-.01-.16-.04-.1-.05-.16-.16-.16-.26v-1.37c0-.11.05-.21.16-.27l4.01-2.31c.37-.21.73-.6,1.02-1.07.26-.46.39-.97.39-1.4V4.54c0-.36-.1-.64-.29-.75-.21-.11-.5-.07-.81.11l-4.01,2.31c-.11.06-.21.06-.31,0-.1-.06-.16-.16-.16-.27v-1.37c0-.11.05-.21.16-.26l5.06-2.92c.58-.33,1.15-.38,1.6-.13.42.25.65.76.65,1.43v15.87c0,.61-.18,1.3-.55,1.93-.37.64-.86,1.16-1.39,1.46l-5.06,2.91c-.05.03-.11.04-.16.04Z"/>
      <path class="cls-1" d="M1.73,8.98h25.07v18.72c0,5.58-7.34,7.55-11.79,7.69-4.24.14-13.26-1.96-13.26-7.29l-.03-19.12Z"/>
      <path class="cls-2" d="M2.02,9.29l.03,18.81c0,1.23.55,2.36,1.57,3.35,2.72,2.64,8.41,3.73,11.37,3.63,3.98-.13,11.5-1.85,11.5-7.39V9.29H2.02ZM14.59,35.71c-3.25,0-8.65-1.13-11.4-3.81-1.18-1.11-1.76-2.39-1.76-3.79l-.03-19.12c0-.08.03-.16.11-.22.03-.06.1-.09.21-.09h25.07c.18,0,.31.14.31.31v18.72c0,6.01-7.91,7.86-12.1,8-.13,0-.29,0-.42,0Z"/>
      <path class="cls-1" d="M6.47,4.47c-4.32,2.49-4.32,6.53,0,9.03,4.3,2.49,11.32,2.49,15.62,0,4.32-2.49,4.32-6.53,0-9.03-4.32-2.49-11.32-2.49-15.62,0h0ZM5.4,3.86c4.9-2.83,12.84-2.83,17.76,0,4.9,2.83,4.9,7.42,0,10.25-4.9,2.83-12.86,2.83-17.76,0C.5,11.28.5,6.69,5.4,3.86h0Z"/>
      <path class="cls-2" d="M6.63,4.74c-1.99,1.15-3.09,2.66-3.09,4.25s1.1,3.09,3.07,4.24c4.24,2.44,11.11,2.44,15.33,0,1.99-1.15,3.09-2.66,3.09-4.24s-1.1-3.1-3.09-4.25c-4.22-2.44-11.08-2.44-15.3,0h0ZM14.28,15.67c-2.88,0-5.76-.64-7.96-1.9-2.2-1.26-3.41-2.96-3.41-4.78s1.21-3.52,3.41-4.78h0c4.37-2.54,11.53-2.54,15.93,0,2.2,1.26,3.38,2.96,3.38,4.78s-1.18,3.51-3.38,4.78c-2.2,1.27-5.08,1.9-7.96,1.9h0ZM14.28,2.05c3.17,0,6.31.69,8.72,2.08,2.25,1.31,3.51,3.04,3.51,4.86s-1.26,3.55-3.51,4.86c-4.82,2.78-12.63,2.78-17.45,0-2.28-1.31-3.54-3.03-3.54-4.85s1.26-3.55,3.54-4.86h0c2.41-1.39,5.55-2.08,8.73-2.08h0ZM14.28,16.54c-3.27,0-6.55-.72-9.04-2.16-2.46-1.43-3.83-3.34-3.83-5.39s1.36-3.97,3.83-5.39h0c4.98-2.87,13.07-2.88,18.08,0,2.46,1.43,3.83,3.34,3.83,5.39s-1.36,3.97-3.83,5.39c-2.49,1.44-5.76,2.16-9.04,2.16Z"/>
      <path class="cls-1" d="M6.47,4.47c4.3-2.49,11.29-2.49,15.62,0,4.32,2.49,4.32,6.53,0,9.03-4.3,2.49-11.32,2.49-15.62,0-4.32-2.49-4.32-6.53,0-9.03Z"/>
      <path class="cls-2" d="M6.63,4.74c-1.99,1.15-3.09,2.66-3.09,4.25s1.1,3.09,3.07,4.24c4.24,2.44,11.11,2.44,15.33,0,1.99-1.15,3.09-2.66,3.09-4.25s-1.1-3.1-3.09-4.25c-4.22-2.44-11.08-2.44-15.3,0h0ZM14.28,15.67c-2.88,0-5.76-.64-7.96-1.9-2.2-1.26-3.41-2.96-3.41-4.78s1.21-3.52,3.41-4.78h0c4.37-2.54,11.53-2.54,15.93,0,2.2,1.26,3.38,2.96,3.38,4.78s-1.18,3.52-3.38,4.78c-2.2,1.27-5.08,1.9-7.96,1.9Z"/>
      <path class="cls-4" d="M8.44,14.74c-1.18-.67-2.33-1.35-3.51-2.02-1.55.89-3.07,1.78-4.61,2.66.63.83,1.73,1.52,3.51,2.02,1.52-.89,3.07-1.78,4.61-2.67Z"/>
      <path class="cls-2" d="M.79,15.47c.63.67,1.6,1.2,2.99,1.61l4.03-2.34-2.88-1.67L.79,15.47h0ZM3.83,17.72s-.08,0-.11-.01c-1.76-.5-2.93-1.19-3.64-2.13-.05-.07-.08-.16-.08-.25.03-.09.08-.16.16-.21l4.64-2.66c.08-.06.21-.06.29,0l3.51,2.02c.11.05.16.16.16.27s-.05.21-.16.27l-4.64,2.67s-.08.04-.13.04Z"/>
      <path class="cls-4" d="M3.83,17.41c-1.18-.68-2.33-1.35-3.51-2.02,1.54,3.13,3.06,6.25,4.61,9.38.92.98,2.07,1.66,3.51,2.02-1.54-3.12-3.09-6.25-4.61-9.38Z"/>
      <path class="cls-2" d="M5.19,24.59c.71.77,1.6,1.33,2.67,1.7l-4.27-8.66-2.54-1.47,4.14,8.43h0ZM8.44,27.1s-.05,0-.08-.01c-1.47-.37-2.7-1.08-3.64-2.11-.03-.02-.05-.04-.05-.07L.03,15.52c-.05-.12-.03-.27.08-.36.1-.09.24-.11.37-.04l3.49,2.02c.08.03.1.08.13.13l4.64,9.38c.05.11.03.24-.05.33-.05.07-.13.12-.24.12Z"/>
      <polygon class="cls-3" points="8.44 26.79 8.44 14.74 3.83 17.41 8.44 26.79"/>
      <path class="cls-2" d="M4.22,17.53l3.9,7.93v-10.19l-3.9,2.26h0ZM8.44,27.1c-.1,0-.24-.07-.29-.17l-4.61-9.38c-.08-.15-.03-.32.13-.4l4.61-2.67c.1-.06.21-.06.31,0,.11.05.16.16.16.27v12.04c0,.14-.1.27-.24.3-.03,0-.05,0-.08,0Z"/>
      <path class="cls-4" d="M5.32,4.1c4.95-2.86,12.97-2.86,17.92,0,4.95,2.86,4.95,7.49,0,10.34-4.95,2.86-12.97,2.86-17.92,0C.37,11.59.37,6.96,5.32,4.1Z"/>
      <path class="cls-2" d="M14.28,2.27c-3.2,0-6.37.7-8.8,2.1-2.31,1.33-3.56,3.07-3.56,4.91s1.26,3.58,3.56,4.9c4.85,2.8,12.76,2.8,17.61,0,2.28-1.32,3.56-3.07,3.56-4.9s-1.28-3.58-3.56-4.91c-2.44-1.4-5.61-2.1-8.8-2.1h0ZM14.28,16.89c-3.3,0-6.6-.73-9.12-2.17-2.49-1.44-3.85-3.37-3.85-5.44s1.36-4,3.85-5.44c5.03-2.9,13.21-2.9,18.24,0,2.49,1.44,3.85,3.37,3.85,5.44s-1.36,4-3.85,5.44c-2.51,1.45-5.82,2.17-9.12,2.17Z"/>
      <rect class="cls-5" x="1.6" y="7.61" width="25.31" height="2.13"/>
      <path class="cls-2" d="M1.91,9.44h24.71v-1.51H1.91v1.51h0ZM26.93,10.05H1.6c-.16,0-.29-.14-.29-.31v-2.13c0-.17.13-.31.29-.31h25.33c.16,0,.29.14.29.31v2.13c0,.17-.13.31-.29.31Z"/>
      <path class="cls-3" d="M5.32,2.44C10.27-.41,18.29-.41,23.24,2.44c4.95,2.86,4.95,7.49,0,10.34-4.95,2.86-12.97,2.86-17.92,0C.37,9.93.37,5.3,5.32,2.44Z"/>
      <path class="cls-2" d="M14.28.61c-3.2,0-6.37.7-8.8,2.1-2.31,1.32-3.56,3.07-3.56,4.9s1.26,3.58,3.56,4.91c4.85,2.8,12.73,2.8,17.61,0,2.28-1.32,3.56-3.07,3.56-4.9s-1.28-3.58-3.56-4.91c-2.44-1.4-5.61-2.1-8.8-2.1h0ZM14.28,15.23c-3.3,0-6.6-.73-9.12-2.18-2.49-1.44-3.85-3.37-3.85-5.44s1.36-4,3.85-5.44c5.03-2.9,13.21-2.9,18.24,0,2.49,1.44,3.85,3.37,3.85,5.44s-1.36,4-3.85,5.43c-2.51,1.45-5.82,2.18-9.12,2.18Z"/>
      <path class="cls-4" d="M18.23,6.22v1.33h0c-.08.54-.45,1.06-1.15,1.47-1.55.89-4.06.89-5.61,0-.71-.41-1.1-.94-1.15-1.47h0v-1.33h7.91Z"/>
      <path class="cls-2" d="M10.64,7.49v.03c.05.46.39.9,1,1.24,1.47.84,3.83.84,5.29,0,.6-.34.94-.78,1-1.24v-.99h-7.28v.95h0ZM14.28,10c-1.07,0-2.15-.23-2.96-.7-.73-.43-1.18-1.01-1.28-1.64-.03-.03-.03-.07-.03-.1v-1.33c0-.17.13-.31.31-.31h7.91c.16,0,.29.14.29.31v1.04c.03.09.03.2,0,.32-.05.66-.52,1.27-1.28,1.71-.84.47-1.89.7-2.96.7Z"/>
      <path class="cls-4" d="M11.48,4.61c1.55-.89,4.06-.89,5.61,0,1.55.89,1.55,2.34,0,3.23-1.55.89-4.06.89-5.61,0-1.55-.89-1.55-2.34,0-3.23Z"/>
      <path class="cls-2" d="M11.63,4.87c-.66.37-1,.85-1,1.35s.34.97,1,1.35c1.47.84,3.83.84,5.29,0,.66-.37,1-.85,1-1.35s-.34-.98-1-1.35c-1.47-.84-3.82-.84-5.29,0h0ZM14.28,8.81c-1.07,0-2.15-.24-2.96-.7-.84-.49-1.31-1.16-1.31-1.88s.47-1.39,1.31-1.88h0c1.62-.94,4.3-.94,5.92,0,.84.49,1.31,1.15,1.31,1.88s-.47,1.39-1.31,1.88c-.84.47-1.89.7-2.96.7Z"/>
      <path class="cls-2" d="M3.8,17.72c-.18,0-.31-.14-.31-.31v-4.03c0-.17.13-.31.31-.31.16,0,.29.14.29.31v4.03c0,.17-.13.31-.29.31Z"/>
    </g>
  </g>
</svg>