<?xml version="1.0" encoding="UTF-8"?>
<svg id="Layer_2" data-name="Layer 2" xmlns="http://www.w3.org/2000/svg" viewBox="0 0 36.11 46.75" fill="currentColor">
  <defs>
    <style>
      .cls-1 {
        fill: #fff;
      }

      .cls-1, .cls-2, .cls-3, .cls-4 {
        fill-rule: evenodd;
      }

      .cls-2 {
        fill: #1a87c7;
      }

      .cls-3 {
        fill: #bdedf8;
      }

      .cls-4 {
        fill: #66ceef;
      }
    </style>
  </defs>
  <g id="_Layer_" data-name="&amp;lt;Layer&amp;gt;">
    <g>
      <polygon class="cls-4" points="16.7 37.04 16.7 43.94 16.7 44.03 16.71 44.11 16.74 44.19 16.76 44.26 16.79 44.32 16.83 44.37 16.88 44.41 16.93 44.45 20.3 46.39 20.24 46.36 20.2 46.31 20.16 46.26 20.13 46.2 20.1 46.13 20.08 46.06 20.07 45.97 20.07 45.88 20.07 38.98 20.06 38.94 20.05 38.9 20.03 38.87 20.01 38.85 16.64 36.91 16.66 36.93 16.68 36.96 16.7 36.99 16.7 37.04"/>
      <path class="cls-2" d="M17.08,44.18l2.68,1.54v-6.66l-2.75-1.59.02,6.64-.24.2.29-.13h0ZM20.29,46.7c-.05,0-.1-.01-.14-.04l-3.36-1.94s-.07-.04-.08-.05c-.01-.01-.1-.1-.12-.11,0,0-.05-.07-.06-.08,0-.01-.05-.09-.05-.1,0-.01-.03-.09-.04-.1l-.04-.31v-6.87c-.09-.1-.09-.25-.01-.37.09-.13.28-.16.42-.08l3.37,1.94s.05.04.06.05c.03.02.05.05.07.08.02.02.04.07.05.09,0,.02.02.08.03.1l.03,7.15-.03.02.08.04h0c.13.1.18.29.09.42-.06.09-.16.15-.26.15Z"/>
      <polygon class="cls-4" points="21.6 31.95 18.23 30 14.78 37.92 18.14 39.86 21.6 31.95"/>
      <path class="cls-2" d="M15.17,37.79l2.83,1.63,3.2-7.34-2.83-1.63-3.2,7.34h0ZM18.14,40.17c-.05,0-.1-.01-.15-.04l-3.37-1.94c-.14-.08-.19-.25-.13-.39l3.45-7.91c.04-.08.1-.14.19-.17.08-.03.18-.02.25.02l3.36,1.94c.14.08.19.25.13.39l-3.45,7.91c-.03.08-.1.14-.19.17-.03.01-.06.02-.1.02Z"/>
      <path class="cls-3" d="M20.07,38.98v6.91c0,.25.09.42.23.51.14.08.34.07.55-.06l1.5-.87c.22-.13.41-.34.56-.58h0c.14-.25.23-.53.23-.78v-6.9c0-.13.09-.28.2-.34l1.72-.99-3.45-3.93-3.45,7.91,1.73-1c.11-.06.2-.01.2.11Z"/>
      <path class="cls-2" d="M19.96,38.53c.07,0,.14.02.2.05.13.08.21.22.21.39v6.91c0,.14.04.22.08.24.03.02.12.02.25-.05l1.49-.86c.16-.09.33-.26.45-.47.12-.21.19-.44.19-.62v-6.9c0-.23.15-.49.35-.61l1.39-.8-2.88-3.28-2.88,6.61.92-.53c.08-.05.16-.07.24-.07h0ZM20.5,46.75c-.13,0-.25-.03-.36-.1-.24-.14-.38-.42-.38-.77v-6.6l-1.46.84c-.12.07-.26.05-.36-.04-.1-.09-.13-.23-.08-.35l3.45-7.91c.04-.1.13-.17.23-.18.11-.02.21.02.28.1l3.45,3.93c.06.07.09.16.07.25-.02.09-.07.17-.15.22l-1.72.99s-.04.05-.04.07v6.9c0,.29-.1.62-.27.93-.18.3-.41.55-.67.7l-1.5.87c-.17.1-.34.15-.51.15Z"/>
      <path class="cls-4" d="M28.77,6.07l-.14-.37c-.38-.85-.71-1.35-1.41-1.98l-.26-.2-.27-.17-.28-.15,5.19,2.99c.79.42,1.18.8,1.71,1.52.29.47.46.83.66,1.35.06.12.07.14.18.2l-5.18-3c-.12-.06-.13-.08-.18-.2Z"/>
      <path class="cls-2" d="M29.05,5.94l.03.05,4.29,2.47c-.1-.19-.2-.38-.32-.58-.5-.69-.87-1.02-1.59-1.41l-2.94-1.7c.15.25.27.51.41.8l.14.37h0ZM34.14,9.57s-.1-.01-.15-.04c-.02-.01-.04-.02-.05-.03l-5.14-2.97c-.18-.1-.23-.17-.31-.33,0,0,0-.02-.01-.02l-.14-.37c-.39-.86-.7-1.29-1.33-1.86l-.29-.21-.47-.27c-.15-.08-.2-.27-.11-.42.08-.15.27-.2.41-.12l.47.27,4.73,2.73c.8.43,1.24.82,1.8,1.61.3.48.48.85.7,1.41h0s.05.04.05.04c.15.08.2.27.12.42-.05.1-.16.16-.27.16Z"/>
      <path class="cls-1" d="M30.91,12.13l-5.18-2.99c-.12-.06-.13-.07-.19-.19-.3-.7-.62-1.14-1.28-1.54l-.17-.09,5.19,2.99c.67.35,1.02.75,1.35,1.42.08.19.09.3.27.4Z"/>
      <path class="cls-2" d="M25.73,8.62c.03.07.06.14.09.21l4.13,2.39c-.21-.26-.47-.45-.81-.63l-3.41-1.97h0ZM30.91,12.44s-.09-.01-.14-.03c-.03-.02-.06-.03-.08-.05l-5.12-2.96c-.16-.08-.22-.15-.3-.3-.28-.66-.55-1.01-1.01-1.33l-.32-.19c-.15-.08-.2-.27-.12-.41.08-.15.26-.2.41-.13l.17.09c.05.03.11.07.16.1l4.87,2.81c.69.35,1.09.77,1.48,1.55l.05.12c.03.08.04.1.06.12l.05.03c.14.08.2.27.12.41-.06.1-.16.16-.27.16Z"/>
      <path class="cls-4" d="M18.69,7.57c-.08-.39.15-.84.45-1.08,1.28-1.02,3.04-1.92,4.69-1.88.43.01.91.1,1.31.25l.24.1,5.18,3c-.17-.07-.31-.14-.48-.19-.52-.16-1.1-.2-1.64-.15-1.36.13-2.7.81-3.79,1.61l-.39.3c-.26.23-.48.68-.39,1.03l.2.74c.05.12.06.14.16.22l-5.18-2.99c-.11-.08-.12-.1-.16-.22l-.2-.74Z"/>
      <path class="cls-2" d="M19,7.5l.19.73,4.43,2.58-.04-.16c-.12-.49.15-1.04.48-1.34l.41-.32c.93-.68,2.37-1.52,3.95-1.67.13-.01.26-.02.39-.02l-3.78-2.15c-.35-.13-.78-.22-1.2-.23-1.94-.03-3.79,1.25-4.49,1.81-.21.16-.4.49-.34.77h0ZM24.22,11.82s-.09-.01-.13-.03l-5.18-2.99c-.19-.13-.23-.21-.29-.37l-.21-.77h0c-.12-.56.21-1.12.56-1.4.75-.6,2.75-2.01,4.89-1.94.49.01.99.11,1.41.27l.25.11,5.22,3.01c.14.08.19.26.12.4-.07.15-.25.21-.4.15-.17-.07-.3-.13-.45-.18-.46-.14-.99-.19-1.52-.14-1.44.14-2.77.92-3.63,1.55l-.39.29c-.17.15-.33.49-.28.71l.19.73c.13.1.19.3.1.44-.06.09-.16.16-.26.16Z"/>
      <path class="cls-3" d="M18.76,2.88c.28-.22.69-.51,1-.7.28-.18.69-.43.98-.59.27-.15.69-.35.97-.48.26-.12.68-.28.95-.37.26-.08.67-.2.93-.26.25-.05.65-.12.9-.14,1.1-.08,1.8-.02,2.85.36l5.19,2.99c-1.04-.37-1.74-.43-2.85-.35-.25.03-.65.09-.9.14-2.02.44-3.73,1.52-5.33,2.79-.24.2-.45.56-.46.88l.02.19.19.73c.05.12.06.14.17.22l-5.18-2.99c-.11-.07-.12-.1-.17-.22l-.21-.8c-.11-.66.51-1.06.95-1.4Z"/>
      <path class="cls-2" d="M18.95,3.12l-.12.1c-.45.35-.76.62-.7,1.01l.2.76,4.44,2.58-.07-.39c.01-.43.24-.88.56-1.15,1.35-1.07,3.19-2.35,5.47-2.85.27-.06.68-.12.93-.15.4-.03.75-.04,1.07-.03l-3.53-2.04c-.9-.31-1.54-.39-2.67-.31-.22.02-.61.09-.86.14-.25.06-.65.17-.9.25-.27.09-.67.24-.93.36-.28.12-.68.32-.95.46-.29.16-.69.4-.96.58-.3.19-.7.48-.98.69h0ZM23.36,8.59s-.09-.01-.13-.04l-5.19-2.99c-.19-.13-.23-.21-.3-.37l-.22-.83c-.13-.81.48-1.28.93-1.62l.12-.1h0c.29-.22.71-.52,1.01-.72.28-.19.71-.44,1.01-.6.28-.15.7-.36,1-.49.27-.12.7-.28.98-.38.26-.09.69-.2.96-.26.27-.06.68-.13.94-.15,1.22-.09,1.94,0,2.98.37l5.24,3.02c.14.08.19.25.12.4-.07.14-.23.21-.38.16-.95-.34-1.59-.42-2.72-.34-.23.02-.61.08-.86.14-2.15.47-3.91,1.7-5.21,2.72-.18.15-.33.44-.34.65l.02.14.19.69c.14.09.2.3.11.44-.06.1-.16.16-.26.16Z"/>
      <path class="cls-1" d="M30.73,11.94c-.9-2.3-3.43-2.53-6-.54-.29.23-.57.18-.65-.11l-.2-.74c-.04-.16-.02-.35.07-.56.09-.21.22-.38.38-.51,3.52-2.76,7-2.45,8.2.74.06.15.04.34-.03.55-.08.21-.2.4-.36.54l-.74.65c-.29.25-.58.25-.68-.01Z"/>
      <path class="cls-2" d="M28.05,9.75c.31,0,.61.04.9.12.95.26,1.66.94,2.07,1.97h0s0,.01,0,.01c0,0,.07-.02.19-.12l.73-.65c.12-.11.22-.25.27-.41.05-.14.06-.26.03-.34-.45-1.2-1.26-1.99-2.33-2.28-1.53-.42-3.49.19-5.4,1.68-.12.1-.22.23-.29.39-.06.15-.08.27-.06.36l.2.74s.07.01.16-.06c1.2-.93,2.42-1.42,3.51-1.42h0ZM31.01,12.45c-.05,0-.1,0-.15-.02-.19-.04-.34-.18-.42-.38h0c-.33-.84-.9-1.39-1.66-1.6-1.09-.3-2.5.14-3.87,1.19-.25.19-.51.25-.74.18-.2-.07-.34-.23-.4-.45l-.2-.74c-.06-.23-.03-.48.08-.76.11-.26.27-.48.47-.64,2.06-1.61,4.22-2.27,5.94-1.79,1.27.35,2.21,1.27,2.74,2.66.08.22.07.47-.03.76-.09.26-.24.49-.45.67l-.73.65c-.2.17-.41.26-.61.26Z"/>
      <path class="cls-1" d="M33.95,9.06c-1.4-4.05-5.73-4.44-10.07-.91-.3.24-.59.2-.67-.09l-.19-.73c-.04-.16-.02-.35.06-.56.09-.21.21-.38.37-.51,5.31-4.35,10.63-3.87,12.32,1.11.05.15.04.33-.04.54-.08.21-.2.39-.35.53l-.73.65c-.29.26-.59.25-.69-.03Z"/>
      <path class="cls-2" d="M29.56,5.44c.49,0,.96.06,1.41.19,1.54.44,2.68,1.59,3.28,3.33h0s0,.02,0,.02c0,0,.07-.02.19-.12l.73-.65c.12-.1.21-.24.27-.4.05-.14.07-.26.04-.34-.65-1.92-1.87-3.18-3.54-3.66-2.36-.68-5.38.3-8.3,2.69-.12.1-.21.23-.28.39-.06.14-.08.27-.05.36l.2.74s.07.01.17-.07c1.99-1.61,4.06-2.48,5.87-2.48h0ZM34.24,9.59c-.05,0-.1,0-.16-.02-.19-.05-.35-.2-.42-.4h0c-.53-1.54-1.52-2.56-2.86-2.94-1.91-.54-4.36.25-6.73,2.17-.25.2-.52.28-.75.2-.19-.06-.34-.23-.4-.45l-.2-.74c-.06-.22-.03-.48.08-.75.11-.26.26-.47.46-.63,3.07-2.52,6.3-3.54,8.86-2.81,1.87.53,3.23,1.93,3.95,4.05.07.22.06.47-.04.75-.1.26-.24.48-.44.65l-.73.65c-.19.17-.41.26-.61.26Z"/>
      <path class="cls-3" d="M10.52,38.06c-1.39.8-2.65.88-3.56.35h0s-5.18-2.99-5.18-2.99c-.3-.18-.53-.39-.75-.67-.81-1.08-.82-2.71-.59-3.99.44-2.45,1.98-5.07,3.92-6.64l.23-.18c.03-.28.07-.54.11-.82.69-3.98,3.46-8.45,7-10.5,1.39-.8,3.19-1.35,4.73-.67l.15.07,1.08.62c.97-.86,2.29-1.67,3.62-1.65.32,0,.66.07.96.19l.14.06,2.26,1.3.24-.05c.52-.09,1.07-.06,1.57.14l.17.07,5.18,2.99c.99.49,1.61,1.65,1.61,3.33,0,3.21-2.25,7.11-5.03,8.71l-17.86,10.3Z"/>
      <path class="cls-2" d="M10.52,38.06h0,0ZM14.89,11.96c-1.2,0-2.36.54-3.04.94-3.31,1.92-6.13,6.15-6.85,10.28-.05.27-.08.53-.11.8,0,.08-.05.16-.12.2l-.23.18c-1.88,1.51-3.37,4.04-3.81,6.45-.13.74-.35,2.58.54,3.75.18.24.39.42.66.59l5.17,2.99c.86.5,2.01.37,3.25-.35l17.86-10.3c2.69-1.55,4.88-5.34,4.88-8.44,0-1.49-.52-2.6-1.44-3.06l-5.34-3.06c-.4-.16-.88-.2-1.39-.11l-.22.05c-.07.02-.15,0-.22-.03l-2.37-1.35c-.24-.1-.54-.16-.84-.16-1.42-.03-2.73.98-3.41,1.57-.1.09-.24.1-.36.04l-1.21-.68c-.46-.2-.93-.28-1.4-.28h0ZM8.27,39.06c-.53,0-1.03-.13-1.46-.38l-5.18-2.99c-.34-.21-.61-.44-.84-.75-1.03-1.37-.8-3.41-.65-4.23.46-2.54,2.04-5.22,4.03-6.82l.13-.1c.03-.24.06-.46.1-.71.75-4.3,3.68-8.7,7.14-10.71,1.06-.61,3.11-1.51,5-.68l.16.08.91.52c.78-.65,2.14-1.58,3.6-1.58h.06c.37,0,.74.08,1.07.21l.15.07,2.18,1.26.12-.03c.64-.11,1.23-.06,1.75.15l.18.08,5.21,3.01c1.12.55,1.77,1.87,1.77,3.6,0,3.3-2.33,7.33-5.19,8.98l-17.86,10.3h0c-.84.49-1.66.73-2.4.73Z"/>
      <path class="cls-1" d="M10.52,38.06c-2.78,1.6-5.03.3-5.03-2.91,0-2.91,1.86-6.4,4.28-8.21.45-4.33,3.46-9.21,7.11-11.31,2.42-1.4,4.55-1.25,5.85.12.45-.41.94-.78,1.43-1.06,2.21-1.27,4.08-.71,4.76,1.18,2.53-1.14,4.49.19,4.49,3.18,0,3.21-2.25,7.11-5.03,8.71l-17.86,10.3Z"/>
      <path class="cls-2" d="M10.52,38.06h0,0ZM20.07,14.97c-.93,0-1.97.31-3.04.93-3.52,2.03-6.51,6.8-6.96,11.08-.01.08-.05.16-.12.22-2.37,1.78-4.15,5.2-4.15,7.96,0,1.44.47,2.5,1.32,2.99.85.49,2,.37,3.25-.35l17.86-10.3c2.69-1.55,4.88-5.34,4.88-8.44,0-1.38-.44-2.43-1.23-2.94-.73-.47-1.73-.46-2.82.03-.08.04-.17.04-.25,0-.08-.03-.14-.1-.17-.18-.27-.76-.75-1.29-1.4-1.52-.81-.3-1.85-.12-2.92.5-.47.27-.93.61-1.38,1.02-.12.11-.31.11-.43-.02-.63-.66-1.47-1-2.43-1h0ZM8.27,39.06c-.53,0-1.03-.13-1.46-.38-1.05-.61-1.63-1.86-1.63-3.52,0-2.95,1.8-6.45,4.3-8.38.51-4.43,3.61-9.32,7.25-11.42,2.34-1.35,4.56-1.35,6.01-.03.41-.36.84-.66,1.27-.91,1.24-.71,2.46-.91,3.44-.55.73.27,1.29.82,1.64,1.59,1.17-.46,2.27-.41,3.11.13.98.63,1.51,1.86,1.51,3.46,0,3.3-2.33,7.33-5.19,8.98l-17.86,10.3h0c-.84.49-1.66.73-2.4.73Z"/>
      <path class="cls-2" d="M9.77,27.25c-.05,0-.11-.01-.15-.04l-5.18-2.99c-.15-.08-.2-.27-.11-.42.08-.15.27-.2.42-.11l5.19,2.99c.15.09.2.27.12.42-.06.1-.16.15-.27.15Z"/>
      <path class="cls-2" d="M22.8,15.94c-.05,0-.1-.01-.15-.04l-5.15-2.97c-.15-.09-.2-.27-.11-.42.08-.15.28-.2.42-.11l5.14,2.97c.15.09.2.27.11.42-.06.1-.16.15-.27.15Z"/>
      <path class="cls-2" d="M27.57,14.57c-.05,0-.11-.01-.15-.04l-2.94-1.7c-.15-.09-.2-.28-.11-.42.09-.15.27-.2.42-.11l2.94,1.7c.15.08.2.27.11.42-.06.1-.16.15-.27.15Z"/>
    </g>
  </g>
</svg>