<?xml version="1.0" encoding="UTF-8"?>
<svg id="Layer_2" data-name="Layer 2" xmlns="http://www.w3.org/2000/svg" viewBox="0 0 41.9 39.59" fill="currentColor">
  <defs>
    <style>
      .cls-1 {
        fill: #fff;
      }

      .cls-1, .cls-2, .cls-3, .cls-4 {
        fill-rule: evenodd;
      }

      .cls-2 {
        fill: #1a87c7;
      }

      .cls-3 {
        fill: #bdedf8;
      }

      .cls-4 {
        fill: #66ceef;
      }
    </style>
  </defs>
  <g id="_Layer_" data-name="&amp;lt;Layer&amp;gt;">
    <g>
      <polygon class="cls-4" points="22.9 16.25 25.7 14.64 27.51 15.69 24.73 17.3 22.9 16.25"/>
      <path class="cls-2" d="M23.53,16.25l1.2.69,2.17-1.25-1.21-.69-2.17,1.25h0ZM24.73,17.61c-.05,0-.11-.02-.16-.05l-1.81-1.05c-.11-.06-.16-.17-.16-.27,0-.11.05-.22.16-.27l2.78-1.61c.08-.05.21-.05.29,0l1.83,1.06c.11.05.16.16.16.26,0,.11-.05.22-.16.27l-2.78,1.61c-.05.03-.11.05-.16.05Z"/>
      <path class="cls-2" d="M23.76,21.31c-.16,0-.29-.13-.29-.3v-4.14c0-.18.13-.31.29-.31.18,0,.31.14.31.31v4.14c0,.17-.13.3-.31.3Z"/>
      <polygon class="cls-1" points="21.38 21.98 22.14 22.97 31.28 15.67 30.94 14.88 30.34 14.69 21.38 21.98"/>
      <path class="cls-2" d="M21.82,22.03l.37.5,8.72-6.95-.21-.45-.29-.09-8.59,7h0ZM22.14,23.28h-.03c-.08-.01-.16-.05-.21-.12l-.76-.99c-.1-.13-.08-.32.05-.43l8.96-7.29c.08-.07.18-.09.29-.05l.58.18c.08.03.16.09.21.17l.34.79c.05.13,0,.28-.11.37l-9.12,7.3c-.05.04-.13.07-.21.07Z"/>
      <path class="cls-1" d="M8.86,13.54c0,.38.29.74.63.82l6.76-7.11-1.02-.39-6.37,6.68Z"/>
      <path class="cls-2" d="M9.17,13.65c.03.14.13.26.23.34l6.29-6.63-.37-.15-6.16,6.43h0ZM9.48,14.66s-.05,0-.08-.01c-.5-.11-.89-.62-.84-1.13,0-.07.03-.15.08-.2l6.37-6.68c.08-.09.21-.11.34-.07l1,.39c.1.03.18.12.18.23.03.1,0,.2-.08.28l-6.76,7.1c-.05.06-.13.1-.21.1Z"/>
      <polygon class="cls-1" points="32.17 18.43 34.4 27.92 35.47 28.19 33.06 17.96 32.17 18.43"/>
      <path class="cls-2" d="M34.66,27.67l.39.11-2.17-9.35-.37.18,2.15,9.07h0ZM35.47,28.49s-.05,0-.08,0l-1.07-.26c-.1-.03-.18-.12-.21-.23l-2.25-9.48c-.03-.13.05-.27.16-.34l.92-.48c.08-.04.18-.05.26,0,.11.03.16.11.18.21l2.41,10.23c.03.1-.03.21-.1.28-.05.06-.13.09-.21.09Z"/>
      <polygon class="cls-1" points="19.89 21.5 21.04 20.91 15.72 7.8 14.59 8.49 19.89 21.5"/>
      <path class="cls-2" d="M14.99,8.61l5.08,12.46.58-.31-5.06-12.52-.6.36h0ZM19.89,21.81s-.05-.01-.1-.02c-.08-.03-.13-.09-.16-.17l-5.29-13.01c-.08-.14-.03-.29.1-.38l1.13-.69c.08-.04.18-.06.26-.04.08.04.16.1.18.18l5.32,13.11c.05.15,0,.32-.13.39l-1.15.59c-.05.02-.11.03-.16.03Z"/>
      <path class="cls-3" d="M29.34,22.89l.99-.57c-5.34,3.69,2.54,17.34,8.41,14.57-2.86,1.65-4.95.98-7.52-1.73-2.78-2.98-5.58-9.73-1.89-12.28Z"/>
      <path class="cls-2" d="M28.64,24.03c-.39.56-.63,1.23-.71,2.01-.31,2.89,1.55,6.81,3.54,8.93,1.73,1.83,3.17,2.64,4.72,2.52-2.36-.5-4.66-2.79-6.1-5.3-1.49-2.59-2.33-5.83-1.44-8.15h0ZM35.87,38.12c-1.6,0-3.12-.89-4.85-2.74-2.04-2.18-4.03-6.22-3.69-9.4.13-1.47.76-2.59,1.86-3.35,0,0,0,0,.03,0l.97-.57c.13-.08.31-.03.42.1.08.14.05.32-.11.42-2.57,1.79-1.76,6.08.11,9.3,1.86,3.22,5.16,6.09,8.02,4.74.13-.07.31,0,.39.14.08.15.03.33-.11.41-1.1.63-2.1.95-3.04.95Z"/>
      <path class="cls-1" d="M36,28.39c.37.49.81,1.57.18,2.01l-2.36,1.35c.68-.45.16-1.59-.24-2.08-.29-.34-.76-.74-1.26-.51l2.36-1.36c.5-.23,1,.22,1.31.58Z"/>
      <path class="cls-2" d="M33.27,28.99c.16.1.34.26.55.49.24.28.63.93.63,1.56l1.57-.9c.08-.06.13-.15.16-.28.05-.38-.18-.94-.45-1.28-.16-.21-.58-.65-.92-.5l-1.55.9h0ZM33.82,32.06c-.08,0-.18-.05-.26-.15-.08-.14-.05-.32.1-.42.1-.07.16-.16.16-.3.08-.43-.24-1.04-.47-1.32-.24-.27-.58-.57-.89-.43-.13.07-.31,0-.39-.13-.08-.15-.03-.33.13-.42l2.33-1.35c.55-.27,1.15-.03,1.7.65h0c.24.32.66,1.09.55,1.76-.05.29-.18.54-.42.7l-2.38,1.37c-.05.03-.1.05-.16.05Z"/>
      <path class="cls-2" d="M32.78,29.22c-.1,0-.21-.06-.26-.16l-3.46-5.96c-.08-.15-.03-.34.1-.42.16-.09.34-.05.45.11l3.43,5.96c.08.15.03.33-.11.42-.05.03-.1.04-.16.04Z"/>
      <path class="cls-2" d="M35.11,29.64c-.11,0-.21-.05-.29-.15-.08-.15-.03-.34.13-.43l3.12-1.8c.16-.09.34-.03.42.11.08.15.03.33-.11.42l-3.12,1.81c-.05.02-.11.03-.16.03Z"/>
      <path class="cls-2" d="M39.88,36.15c-.08,0-.16-.03-.21-.08l-5.16-4.59c-.13-.11-.13-.3-.03-.44.11-.13.29-.14.42-.03l5.19,4.59c.13.11.13.3.03.43-.08.07-.16.11-.24.11Z"/>
      <path class="cls-2" d="M32.04,30.03s-.05,0-.08-.02l-3.83-1.02c-.16-.04-.26-.21-.21-.37s.21-.26.37-.22l3.83,1.02c.16.04.26.22.21.37-.03.14-.16.23-.29.23Z"/>
      <path class="cls-2" d="M32.17,35.83s-.05,0-.08,0c-.18-.04-.26-.22-.24-.38l1.02-3.8c.05-.16.21-.26.39-.22.16.04.26.22.21.38l-1.02,3.8c-.03.14-.16.23-.29.23Z"/>
      <path class="cls-2" d="M33.19,28.97c-.13,0-.26-.1-.31-.24l-1.36-6.8c-.05-.17.05-.33.24-.36.16-.03.31.08.37.24l1.39,6.8c.03.16-.08.33-.26.37h-.05Z"/>
      <path class="cls-2" d="M34.98,37.64c-.16,0-.26-.09-.31-.24l-1.13-5.58c-.05-.18.08-.33.24-.37.16-.03.34.07.37.24l1.13,5.59c.05.17-.05.33-.24.36h-.05Z"/>
      <path class="cls-4" d="M33.41,29.48c.18.17.31.34.42.54.21.34.31.71.31,1.04s-.11.57-.31.69c-.18.11-.45.1-.73-.07-.29-.18-.55-.46-.76-.79-.18-.33-.29-.7-.29-1.04s.1-.57.29-.69c.21-.12.47-.1.76.08.1.07.21.15.31.24Z"/>
      <path class="cls-2" d="M32.62,29.39c-.05,0-.08.02-.13.03-.08.05-.16.21-.16.42,0,.27.1.59.29.89.16.3.39.54.63.68.16.1.34.13.45.08.08-.06.13-.22.13-.43,0-.27-.08-.59-.26-.89-.11-.18-.21-.31-.37-.47-.08-.09-.18-.16-.26-.21-.1-.06-.24-.11-.31-.11h0ZM33.56,32.13c-.21,0-.42-.07-.63-.19-.31-.19-.63-.5-.86-.9-.24-.39-.34-.81-.34-1.19,0-.44.16-.78.47-.96.29-.16.68-.14,1.05.08.13.08.26.17.37.29h.03c.18.2.34.38.47.61.21.39.34.82.34,1.19,0,.44-.16.78-.47.96-.13.07-.26.11-.42.11Z"/>
      <path class="cls-4" d="M35.76,23.71c1.13,1.13,1.99,2.21,2.78,3.59,1.28,2.21,2.07,4.7,2.07,6.95s-.79,3.83-2.07,4.56c-1.26.74-3.04.63-4.98-.5-1.94-1.12-3.72-3.05-4.98-5.26-1.28-2.21-2.07-4.7-2.07-6.95s.79-3.82,2.07-4.56c1.26-.73,3.04-.62,4.98.5.81.47,1.52,1.03,2.2,1.67h0ZM36.71,26.14c-.68-.88-1.44-1.64-2.33-2.31h0c-.26-.19-.55-.36-.81-.53-1.65-.95-3.12-1.04-4.22-.41-1.07.62-1.73,1.95-1.73,3.85s.66,4,1.73,5.87c1.1,1.86,2.57,3.5,4.22,4.44,1.65.95,3.12,1.04,4.22.42,1.07-.63,1.73-1.95,1.73-3.85s-.65-4.01-1.73-5.87c-.34-.57-.68-1.1-1.07-1.61h0Z"/>
      <path class="cls-2" d="M30.92,22.8c-.52,0-1,.12-1.42.36-1.02.59-1.57,1.87-1.57,3.59s.6,3.81,1.68,5.71c1.13,1.91,2.57,3.44,4.11,4.33,1.49.86,2.88,1.01,3.9.42,1.02-.59,1.57-1.86,1.57-3.58s-.6-3.82-1.68-5.72c-.34-.55-.68-1.07-1.05-1.56h0c-.68-.88-1.44-1.62-2.28-2.25-.26-.18-.52-.36-.79-.51-.89-.51-1.73-.77-2.49-.77h0ZM36.23,38.17c-.89,0-1.83-.29-2.83-.85-1.62-.95-3.17-2.56-4.32-4.56-1.15-2-1.78-4.14-1.78-6.02s.68-3.42,1.91-4.12c1.2-.7,2.8-.57,4.51.42.29.17.58.35.84.55.89.67,1.68,1.44,2.38,2.37h0c.39.51.76,1.06,1.1,1.63,1.15,1.99,1.78,4.13,1.78,6.03s-.68,3.41-1.89,4.12c-.52.3-1.1.43-1.7.43h0ZM30.42,21.39c.92,0,1.94.3,2.99.92.73.41,1.42.93,2.15,1.62,1.15,1.16,1.99,2.22,2.72,3.52,1.31,2.26,2.02,4.67,2.02,6.79s-.68,3.59-1.91,4.29c-1.23.71-2.88.54-4.66-.49-1.83-1.06-3.56-2.88-4.87-5.15-1.31-2.25-2.02-4.67-2.02-6.79s.68-3.58,1.91-4.29c.5-.29,1.05-.42,1.68-.42h0ZM36.71,39.59c-1.02,0-2.12-.34-3.3-1.01-1.91-1.11-3.75-3.02-5.08-5.37-1.36-2.36-2.12-4.88-2.12-7.1s.81-4,2.23-4.82c1.44-.83,3.3-.65,5.29.5.76.44,1.49.98,2.25,1.71h0c1.21,1.22,2.07,2.3,2.83,3.66,1.36,2.35,2.12,4.87,2.12,7.09s-.79,4.01-2.23,4.83c-.58.34-1.26.51-1.99.51Z"/>
      <path class="cls-3" d="M34.53,21.49c6.16,3.67,9.48,13.92,4.98,16.76l-.97.57c6.31-4.37-3.04-20.53-9.96-17.26,2.25-1.29,3.27-1.45,5.95-.06Z"/>
      <path class="cls-2" d="M31.07,20.84c2.96.33,5.9,3.18,7.73,6.32,1.78,3.12,2.8,7.06,1.62,9.79.71-1.03.86-2.32.86-3.36-.05-3.81-2.65-9.28-6.89-11.85-1.47-.75-2.38-1.04-3.33-.9h0ZM38.54,39.12c-.1,0-.21-.05-.26-.15-.08-.14-.05-.32.1-.42,3.07-2.14,2.1-7.25-.1-11.08-2.23-3.84-6.16-7.25-9.56-5.65-.16.07-.34.02-.42-.13-.05-.15,0-.33.13-.41,2.31-1.34,3.48-1.52,6.23-.08.03,0,.03,0,.03,0,4.45,2.67,7.18,8.39,7.2,12.37.05,2.29-.73,3.99-2.2,4.92l-.99.57c-.05.03-.11.04-.16.04Z"/>
      <path class="cls-3" d="M3.14,7.24l.97-.57c-5.32,3.7,2.57,17.35,8.44,14.59-2.88,1.65-4.95.98-7.52-1.73-2.8-2.99-5.55-9.74-1.89-12.29Z"/>
      <path class="cls-2" d="M2.41,8.39c-.37.56-.6,1.23-.68,2.01-.31,2.9,1.55,6.81,3.54,8.92,1.73,1.84,3.17,2.64,4.72,2.52-2.38-.5-4.66-2.78-6.13-5.3-1.47-2.59-2.31-5.83-1.44-8.15h0ZM9.67,22.48c-1.6,0-3.12-.89-4.85-2.74-2.04-2.18-4.06-6.22-3.72-9.41.16-1.46.79-2.58,1.89-3.34h0s.97-.57.97-.57c.16-.09.34-.04.42.09.1.15.05.33-.08.43-2.57,1.79-1.76,6.08.1,9.29,1.86,3.23,5.16,6.09,8.02,4.76.16-.07.31,0,.39.14.08.14.03.32-.11.41-1.1.63-2.1.95-3.04.95Z"/>
      <path class="cls-2" d="M6.58,13.57c-.11,0-.21-.05-.26-.15l-3.46-5.96c-.08-.15-.03-.34.11-.43.16-.08.34-.03.45.11l3.43,5.96c.08.15.03.34-.1.43-.05.02-.11.03-.16.03Z"/>
      <path class="cls-2" d="M11.5,22.12c-.1,0-.21-.05-.26-.15l-3.43-5.96c-.11-.15-.05-.34.1-.42.13-.08.34-.04.42.11l3.43,5.96c.11.15.05.34-.11.42-.05.03-.1.04-.16.04Z"/>
      <path class="cls-2" d="M5.82,14.38s-.05,0-.08-.01l-3.8-1.02c-.16-.04-.26-.22-.21-.38.05-.17.21-.26.37-.22l3.83,1.03c.16.04.26.21.21.37-.05.14-.16.23-.31.23Z"/>
      <path class="cls-2" d="M13.68,16.58s-.05,0-.08,0l-4.53-1.22c-.18-.04-.26-.22-.24-.37.05-.17.21-.27.39-.23l4.53,1.23c.18.04.26.21.24.37-.05.14-.16.23-.31.23Z"/>
      <path class="cls-2" d="M5.95,20.19s-.05,0-.08,0c-.16-.05-.26-.22-.21-.38l1.02-3.8c.05-.17.21-.26.39-.22.16.04.24.22.21.37l-1.02,3.8c-.05.14-.16.24-.31.24Z"/>
      <path class="cls-2" d="M7.78,13.05s-.05,0-.08-.02c-.16-.04-.26-.21-.21-.37l1.23-4.57c.03-.17.21-.26.37-.22.16.04.26.22.21.39l-1.23,4.56c-.03.14-.16.24-.29.24Z"/>
      <path class="cls-4" d="M7.2,13.84c.18.17.31.33.42.54.18.33.31.7.31,1.04s-.13.57-.31.69c-.18.11-.45.09-.73-.08-.29-.16-.58-.45-.76-.79-.18-.33-.31-.7-.31-1.04s.13-.58.31-.69c.18-.11.47-.1.76.07.1.07.24.15.31.25Z"/>
      <path class="cls-2" d="M6.42,13.75c-.05,0-.11,0-.13.03-.11.06-.16.22-.16.42,0,.27.1.59.26.89.18.3.42.54.65.68.18.11.31.13.42.07.1-.05.16-.21.16-.42,0-.27-.1-.59-.26-.89-.11-.17-.21-.31-.37-.47-.08-.1-.18-.16-.26-.21-.13-.07-.24-.1-.31-.1h0ZM7.36,16.48c-.21,0-.42-.06-.63-.18-.34-.19-.63-.51-.86-.91-.24-.39-.37-.81-.37-1.19,0-.44.18-.78.47-.96.32-.17.68-.14,1.07.08.13.08.24.16.37.29h0c.21.21.37.39.47.61.24.4.37.82.37,1.2,0,.43-.18.78-.47.95-.13.08-.29.11-.42.11Z"/>
      <path class="cls-4" d="M9.56,8.07c1.13,1.12,1.99,2.21,2.78,3.59,1.28,2.21,2.07,4.7,2.07,6.95s-.79,3.82-2.07,4.56c-1.28.74-3.04.62-4.98-.5-1.94-1.12-3.69-3.05-4.98-5.26C1.1,15.2.32,12.71.32,10.47s.79-3.83,2.07-4.56c1.28-.74,3.04-.63,4.98.5.81.47,1.52,1.02,2.2,1.67h0ZM10.51,10.5c-.68-.88-1.44-1.65-2.33-2.31h0c-.26-.19-.55-.37-.81-.53-1.65-.95-3.14-1.03-4.22-.42-1.07.62-1.73,1.95-1.73,3.86s.65,4,1.73,5.87c1.07,1.86,2.57,3.5,4.22,4.44,1.65.95,3.12,1.03,4.19.42,1.1-.63,1.76-1.96,1.76-3.86s-.65-4-1.76-5.87c-.31-.55-.65-1.09-1.05-1.6h0Z"/>
      <path class="cls-2" d="M4.69,7.15c-.5,0-.97.11-1.39.36-1.02.59-1.57,1.86-1.57,3.59s.58,3.81,1.7,5.71c1.07,1.9,2.54,3.44,4.09,4.33,1.49.86,2.88,1.01,3.9.42,1.02-.59,1.57-1.87,1.57-3.59s-.6-3.81-1.7-5.71c-.31-.55-.65-1.08-1.05-1.56h0c-.68-.89-1.42-1.62-2.25-2.26-.26-.18-.52-.36-.79-.5-.89-.51-1.76-.77-2.51-.77h0ZM10.01,22.53c-.86,0-1.81-.28-2.8-.86-1.65-.94-3.17-2.56-4.32-4.55-1.15-1.99-1.78-4.13-1.78-6.02s.68-3.42,1.89-4.13c1.23-.7,2.83-.55,4.53.42.29.17.55.36.84.55.89.68,1.68,1.45,2.38,2.37h0c.39.52.76,1.07,1.1,1.64,1.13,1.99,1.78,4.13,1.78,6.02s-.68,3.41-1.91,4.12c-.5.3-1.07.44-1.7.44h0ZM4.22,5.74c.92,0,1.91.31,2.99.93.73.42,1.41.93,2.12,1.62,1.18,1.17,1.99,2.23,2.75,3.53,1.31,2.26,2.02,4.67,2.02,6.79s-.68,3.58-1.91,4.29c-1.23.71-2.88.54-4.66-.5-1.83-1.06-3.56-2.88-4.87-5.14-1.31-2.26-2.02-4.67-2.02-6.79s.68-3.58,1.91-4.29c.5-.29,1.05-.43,1.68-.43h0ZM10.51,23.95c-1.02,0-2.15-.34-3.3-1.01-1.91-1.11-3.75-3.03-5.11-5.37C.76,15.21,0,12.69,0,10.47s.79-4.01,2.23-4.83c1.44-.82,3.3-.64,5.29.5.76.44,1.49.99,2.25,1.71h0c1.2,1.22,2.07,2.31,2.83,3.66,1.36,2.35,2.1,4.87,2.1,7.1s-.76,4-2.2,4.83c-.6.34-1.26.51-1.99.51Z"/>
      <path class="cls-3" d="M8.33,5.83c6.16,3.69,9.48,13.92,4.98,16.77l-.97.57C18.65,18.79,9.3,2.63,2.38,5.9c2.25-1.29,3.27-1.46,5.95-.07Z"/>
      <path class="cls-2" d="M4.87,5.19c2.96.33,5.89,3.18,7.73,6.33,1.78,3.12,2.78,7.05,1.62,9.78.71-1.02.86-2.31.86-3.35-.05-3.81-2.65-9.28-6.92-11.84-1.47-.77-2.38-1.04-3.3-.91h0ZM12.34,23.47c-.11,0-.21-.05-.26-.14-.08-.14-.05-.32.08-.42,3.09-2.15,2.12-7.25-.11-11.08-2.2-3.85-6.16-7.25-9.54-5.65-.16.07-.34,0-.42-.13-.08-.15-.03-.33.13-.42,2.31-1.33,3.46-1.51,6.26-.07h0c4.45,2.68,7.15,8.39,7.2,12.38.03,2.28-.73,3.98-2.23,4.92l-.97.57c-.05.03-.11.04-.16.04Z"/>
      <path class="cls-4" d="M8.25,12.66c.29.3.52.57.73.93.31.57.52,1.23.52,1.81s-.21,1-.52,1.19c-.34.19-.79.16-1.31-.13-.5-.3-.94-.79-1.28-1.37-.34-.57-.55-1.23-.55-1.81s.21-1,.55-1.19c.34-.19.79-.17,1.28.13.21.12.39.27.58.43Z"/>
      <path class="cls-2" d="M6.86,12.29c-.11,0-.24.03-.31.08-.26.14-.39.47-.39.92,0,.51.18,1.1.5,1.65.31.55.73,1,1.18,1.25.39.22.76.27,1,.13.24-.14.37-.47.37-.92,0-.51-.16-1.09-.47-1.65-.18-.31-.39-.57-.68-.87-.18-.16-.34-.29-.52-.38-.24-.14-.45-.21-.66-.21h0ZM8.52,17.02c-.31,0-.65-.1-1-.29-.52-.31-1.02-.84-1.39-1.49-.39-.64-.58-1.34-.58-1.95,0-.68.23-1.2.68-1.45.45-.26,1.02-.22,1.6.12.21.13.42.28.63.48h0c.34.34.58.64.79,1.01.37.64.58,1.34.58,1.95,0,.68-.24,1.2-.71,1.45-.16.11-.39.17-.6.17Z"/>
      <path class="cls-1" d="M7.94,13.67l.05.09c.31.37.79,1.31.21,1.71l-1.02.59.05-.03c.29-.29.21-.72.08-1.07-.16-.42-.76-1.34-1.39-1.03l1.05-.59c.34-.19.71.08.97.33Z"/>
      <path class="cls-2" d="M6.81,13.78c.39.29.68.79.79,1.06.08.19.1.37.13.54l.31-.18c.05-.03.11-.1.11-.2.05-.31-.21-.81-.39-1.06l-.05-.06c-.39-.38-.55-.3-.6-.27l-.29.17h0ZM7.18,16.37c-.1,0-.21-.05-.26-.15-.08-.14-.05-.32.08-.42.08-.05.24-.2.05-.76-.13-.26-.45-.74-.73-.85-.1-.03-.18-.03-.24,0-.16.08-.34.02-.42-.13-.08-.15-.03-.33.11-.41l1.05-.6c.42-.22.86-.09,1.34.38h0s.08.09.08.09c.26.31.63.97.55,1.55-.05.26-.18.48-.39.63l-1.05.61c-.05.03-.1.04-.16.04Z"/>
      <path class="cls-4" d="M5.95,13.93c.16-.09.37-.08.6.06.26.14.47.37.63.64h0c.16.28.24.58.24.86s-.08.48-.24.57c-.16.1-.37.08-.63-.06-.24-.14-.45-.37-.6-.65-.16-.27-.26-.58-.26-.85s.08-.47.24-.57h.03Z"/>
      <path class="cls-2" d="M6.16,14.18s-.05.01-.05.02h-.03s-.03.02-.03.02c0,.02-.05.12-.05.29,0,.21.08.46.21.7.13.23.31.43.5.53.13.08.26.1.32.07.05-.04.1-.16.1-.3,0-.21-.08-.47-.21-.7-.16-.24-.34-.43-.52-.54-.08-.05-.16-.08-.24-.08h0ZM6.94,16.43c-.16,0-.37-.05-.55-.15-.26-.17-.52-.44-.73-.76-.18-.33-.29-.69-.29-1.01,0-.37.13-.67.39-.82h.03c.26-.16.6-.14.92.05.29.16.55.43.73.76.18.33.29.69.29,1.01,0,.38-.16.69-.39.84-.13.06-.24.09-.39.09Z"/>
      <path class="cls-1" d="M30.1,19.68l2.54,10.68c.11.37.97.16.97-.15l-2.62-11-.89.48Z"/>
      <path class="cls-2" d="M30.44,19.83l2.52,10.46s.23-.06.34-.12l-2.49-10.52-.37.18h0ZM32.99,30.86c-.31,0-.58-.16-.63-.43l-2.57-10.68c-.03-.14.03-.28.16-.35l.92-.48c.08-.04.18-.04.26,0,.1.04.16.12.18.21l2.62,11c0,.44-.42.69-.81.73-.05.01-.08.01-.13.01Z"/>
      <path class="cls-2" d="M20.96,19.72c-.05,0-.11-.01-.16-.03-1.99-1.04-4.35-2.34-6.63-3.59-2.28-1.26-4.64-2.55-6.63-3.59-.16-.09-.21-.27-.13-.42.08-.16.26-.21.42-.13,1.99,1.03,4.35,2.34,6.65,3.6,2.25,1.25,4.61,2.55,6.6,3.59.16.08.21.26.13.41-.05.1-.16.16-.26.16h0ZM20.67,26.17c.11,0,.21-.04.26-.14.1-.15.05-.34-.08-.43-1.96-1.24-4.35-3.04-6.63-4.79-2.36-1.79-4.79-3.64-6.81-4.91-.16-.09-.34-.04-.42.1-.1.15-.05.34.1.42,1.99,1.25,4.4,3.09,6.76,4.89,2.31,1.76,4.66,3.56,6.65,4.82.05.03.11.04.16.04Z"/>
      <path class="cls-4" d="M21.85,20.09c.45.46.81.9,1.13,1.46.52.9.84,1.91.84,2.82s-.32,1.56-.84,1.86c-.52.3-1.23.25-2.02-.2-.81-.46-1.52-1.24-2.04-2.14-.52-.91-.84-1.92-.84-2.83s.31-1.56.84-1.85c.52-.3,1.23-.26,2.04.2.31.19.6.42.89.68Z"/>
      <path class="cls-2" d="M19.68,19.33c-.21,0-.42.05-.6.15-.45.25-.68.82-.68,1.58,0,.83.29,1.78.81,2.68.5.89,1.18,1.61,1.91,2.02.66.38,1.26.45,1.7.2.45-.25.68-.82.68-1.59,0-.83-.26-1.77-.79-2.67-.29-.51-.63-.93-1.07-1.39-.29-.27-.55-.48-.84-.63-.42-.24-.79-.36-1.13-.36h0ZM22.24,26.74c-.45,0-.94-.14-1.44-.44-.81-.46-1.57-1.27-2.15-2.25-.55-.98-.86-2.04-.86-2.98,0-.99.34-1.75.97-2.12.65-.37,1.47-.3,2.36.2.31.19.63.42.94.72h0c.5.51.86.98,1.18,1.54.58.98.89,2.04.89,2.97,0,1-.37,1.76-1,2.13-.26.15-.58.23-.89.23Z"/>
      <path class="cls-2" d="M18.86,24.25c-.11,0-.21-.06-.29-.16-.08-.15-.03-.34.13-.43l2.1-1.21c.13-.09.34-.04.42.11.08.15.03.34-.11.42l-2.1,1.21c-.05.02-.1.04-.16.04Z"/>
      <path class="cls-2" d="M18.86,27.15c-.18,0-.32-.14-.32-.31v-2.9c0-.17.13-.31.32-.31.16,0,.29.14.29.31v2.9c0,.17-.13.31-.29.31Z"/>
      <polygon class="cls-4" points="14.83 27.73 17.61 26.13 19.44 27.18 16.64 28.79 14.83 27.73"/>
      <path class="cls-2" d="M15.43,27.73l1.2.7,2.17-1.25-1.2-.7-2.17,1.26h0ZM16.64,29.1c-.05,0-.11-.02-.13-.04l-1.83-1.06c-.1-.05-.16-.16-.16-.26,0-.11.05-.21.16-.27l2.78-1.61c.11-.05.21-.05.31,0l1.83,1.05c.11.06.16.16.16.27s-.05.21-.16.27l-2.8,1.61s-.08.04-.16.04Z"/>
      <path class="cls-1" d="M33.54,17.13c.13.18.21.3.29.51.1.3.18.72-.13.94l-2.86,1.66c.18-.14.21-.34.21-.57-.08-.47-.29-.86-.68-1.14-.18-.12-.37-.21-.58-.11h-.03s2.88-1.65,2.88-1.65c.34-.17.66.11.89.35Z"/>
      <path class="cls-2" d="M30.6,18.32c.42.33.66.77.73,1.27l2.2-1.28c.13-.09.05-.39,0-.56-.08-.18-.13-.26-.24-.42-.24-.24-.39-.33-.52-.27l-2.17,1.26h0ZM30.84,20.55c-.1,0-.21-.04-.26-.14-.11-.14-.05-.32.08-.42.05-.05.08-.08.08-.3-.05-.35-.24-.67-.55-.91-.16-.1-.21-.09-.26-.07-.16.07-.34.02-.42-.13-.08-.15-.03-.32.11-.41l2.88-1.66c.31-.15.73-.18,1.28.42h0c.16.22.24.36.34.6.26.76.03,1.13-.24,1.3l-2.91,1.68s-.08.03-.13.03Z"/>
      <path class="cls-4" d="M29.79,18.43c.68-.39,1.73,1.41,1.05,1.81-.16.08-.34.07-.52-.05-.21-.11-.39-.32-.52-.55-.16-.24-.24-.5-.24-.73s.08-.39.21-.47h.03Z"/>
      <path class="cls-2" d="M29.89,18.72s-.03.06-.03.19c0,.18.08.38.18.57.1.19.26.35.39.43.1.06.21.07.24.05.11-.07.08-.4-.13-.78-.21-.37-.5-.55-.63-.48h0s-.03.02-.03.02h0ZM30.63,20.6c-.16,0-.31-.05-.47-.14-.26-.15-.47-.38-.65-.67-.16-.29-.24-.6-.24-.88,0-.33.1-.59.34-.73h.03c.45-.28,1.05.02,1.44.7.39.69.37,1.36-.1,1.63-.1.05-.21.09-.34.09Z"/>
      <path class="cls-1" d="M7.41,13.56c0,.37.29.73.63.82l5.84-6.19-1-.39-5.48,5.76Z"/>
      <path class="cls-2" d="M7.73,13.67c.03.14.13.26.24.33l5.4-5.69-.39-.16-5.24,5.52h0ZM8.04,14.68s-.05,0-.08-.01c-.5-.11-.86-.63-.84-1.13,0-.08.03-.15.08-.2l5.45-5.76c.11-.09.21-.12.34-.07l1.02.39c.08.03.16.12.18.22.03.1,0,.21-.08.28l-5.84,6.19c-.08.06-.16.1-.24.1Z"/>
      <polygon class="cls-1" points="13.81 7.79 16.45 6.26 15.59 5.74 12.92 7.27 13.81 7.79"/>
      <path class="cls-2" d="M13.55,7.27l.26.16,2.04-1.17-.26-.16-2.04,1.17h0ZM13.81,8.1c-.05,0-.1-.02-.16-.04l-.89-.51c-.08-.06-.16-.16-.16-.27s.08-.21.16-.27l2.67-1.53c.08-.05.21-.05.29,0l.89.51c.1.06.16.16.16.27s-.05.21-.16.27l-2.65,1.53c-.05.03-.11.04-.16.04Z"/>
      <polygon class="cls-1" points="13.81 7.79 16.45 6.26 16.45 7.41 15.93 7.72 13.81 8.94 13.81 7.79"/>
      <path class="cls-2" d="M14.12,7.97v.45l2.04-1.18v-.44l-2.04,1.18h0ZM13.81,9.25c-.05,0-.1-.02-.16-.04-.08-.05-.16-.16-.16-.27v-1.15c0-.11.08-.21.16-.26l2.67-1.54c.1-.05.21-.05.29,0,.1.06.16.16.16.27v1.16c0,.11-.05.21-.16.27l-2.65,1.53c-.05.03-.11.04-.16.04Z"/>
      <polygon class="cls-3" points="12.92 8.43 12.92 7.27 13.81 7.79 13.81 8.95 12.92 8.43"/>
      <path class="cls-2" d="M13.23,8.26l.26.16v-.45l-.26-.17v.45h0ZM13.81,9.25c-.05,0-.1-.02-.16-.04l-.89-.51c-.08-.05-.16-.16-.16-.27v-1.16c0-.11.08-.21.16-.27.1-.05.21-.05.31,0l.89.52c.11.05.16.16.16.26v1.16c0,.11-.05.21-.16.26-.05.03-.11.04-.16.04Z"/>
      <path class="cls-1" d="M31.44,15.57l-.39-1.49-15.25-7.27c-.58-.23-1.1.88-.45,1.14l16.09,7.61Z"/>
      <path class="cls-2" d="M15.64,7.09s-.05,0-.11.04c-.1.1-.18.27-.18.4.03.07.05.1.13.13l15.48,7.34-.18-.7-15.12-7.21h-.03ZM31.44,15.87c-.05,0-.08,0-.13-.03l-16.09-7.61c-.24-.09-.42-.32-.47-.61-.05-.34.11-.74.39-.96.24-.18.52-.23.79-.12l15.25,7.27c.08.04.13.12.16.2l.42,1.48c.03.12-.03.24-.1.32-.05.04-.13.07-.21.07Z"/>
      <path class="cls-3" d="M32.04,7.97l5.08-2.94c.45-.38.1-1.21-.16-1.57-.13-.2-.31-.4-.52-.52-.18-.11-.37-.16-.58-.09l-5.08,2.93c.55-.18,1.13.56,1.31.98.16.32.29.9-.03,1.18l-.03.02Z"/>
      <path class="cls-2" d="M31.6,5.67c.37.24.66.64.79.97.08.2.16.44.18.69l4.4-2.55c.18-.17,0-.79-.24-1.14-.13-.18-.29-.34-.45-.43-.16-.1-.26-.09-.31-.07l-4.38,2.53h0ZM32.04,8.28c-.08,0-.18-.05-.24-.13-.1-.13-.08-.31.05-.42l.03-.02c.13-.13.08-.53-.08-.83-.16-.4-.63-.91-.92-.81-.16.05-.31-.03-.39-.17-.05-.15,0-.31.13-.39l5.08-2.94c.34-.12.6-.08.89.1.29.16.5.42.63.6.34.5.68,1.48.1,1.99l-5.14,2.97c-.05.03-.1.04-.16.04Z"/>
      <path class="cls-3" d="M30.47,6.4c0,.57.39,1.27.89,1.56.5.29.89.05.89-.52s-.39-1.27-.89-1.56c-.5-.29-.89-.05-.89.52Z"/>
      <path class="cls-2" d="M30.76,6.4c0,.46.34,1.05.76,1.29.13.08.24.11.31.06.08-.03.11-.15.11-.31,0-.47-.34-1.05-.73-1.29-.13-.08-.26-.11-.31-.07-.08.04-.13.17-.13.32h0ZM31.75,8.38c-.18,0-.37-.05-.55-.17-.58-.34-1.05-1.14-1.05-1.82h0c0-.39.16-.69.42-.85.26-.16.6-.13.94.06.58.35,1.05,1.15,1.05,1.83,0,.38-.16.69-.42.85-.13.06-.26.1-.39.1Z"/>
      <path class="cls-1" d="M14.07,6.54c.26.51,1.55.19,1.28-.25l-.39-.95-1.57-3.77-1.13.69,1.81,4.29Z"/>
      <path class="cls-2" d="M15.09,6.42h0s0,0,0,0h0ZM14.33,6.4c.05.05.13.09.26.1.21,0,.39-.06.47-.12l-1.83-4.37-.58.36,1.68,4.02h0ZM14.65,7.11h-.03c-.39,0-.68-.16-.84-.43v-.03l-1.81-4.28c-.05-.14,0-.3.13-.38l1.13-.69c.08-.04.16-.05.26-.03.08.03.13.09.18.18l1.97,4.72c.08.14.08.34-.03.51-.18.3-.63.44-.97.44Z"/>
      <path class="cls-1" d="M32.25,17.51c.16.61-.89,1-1.05.46l-2.36-8.74.97-.59,2.44,8.87Z"/>
      <path class="cls-2" d="M29.21,9.37l2.31,8.52s.16.04.29-.04c.05-.03.16-.13.13-.25l-2.31-8.49-.42.27h0ZM31.57,18.53c-.08,0-.13,0-.21-.03-.24-.06-.39-.23-.45-.46l-2.38-8.75c-.03-.13.03-.27.16-.35l.97-.59c.1-.05.18-.05.29-.02.08.04.16.11.18.2l2.41,8.88h0c.08.29,0,.57-.24.79-.18.2-.47.31-.73.31Z"/>
      <path class="cls-1" d="M26.99,10.28l4.72-2.72h0c.31-.3-.11-.95-.34-1.13-.1-.07-.24-.12-.37-.08l-4.72,2.72c.47-.16,1.05.87.71,1.2h0Z"/>
      <path class="cls-2" d="M26.96,9.03c.08.08.16.17.24.29.08.11.13.25.16.39l4.19-2.42s-.05-.02-.05-.05c0-.21-.21-.5-.31-.57-.05-.03-.11-.04-.08-.04l-4.14,2.39h0ZM26.99,10.59c-.11,0-.21-.04-.26-.13-.08-.12-.08-.3.05-.41h0c.03-.05,0-.3-.18-.52-.11-.15-.21-.18-.21-.17-.16.04-.31-.03-.39-.18-.05-.14,0-.31.13-.39l4.72-2.72c.21-.07.42-.09.71.1.21.16.55.6.58,1.02.03.29-.11.47-.21.57,0,.02-.05.05-.08.06l-4.69,2.72c-.05.03-.1.04-.16.04Z"/>
      <path class="cls-3" d="M21.9,13.84l5.08-2.94c.45-.38.1-1.21-.16-1.57-.21-.32-.68-.75-1.1-.61l-5.08,2.93s.03,0,.05-.02c.05,0,.1,0,.16,0,.08,0,.18.03.26.07.37.17.68.57.84.94.1.23.16.51.13.77,0,.09-.03.18-.05.26-.03.05-.08.1-.11.15l-.03.03Z"/>
      <path class="cls-2" d="M21.46,11.54c.31.21.6.57.79.97.05.18.16.41.16.68l4.43-2.55c.18-.17,0-.79-.26-1.14-.21-.31-.52-.57-.76-.5l-4.35,2.53h0ZM21.9,14.16c-.11,0-.18-.05-.26-.13-.08-.13-.05-.3.05-.41l.03-.03c.05-.1.08-.16.08-.21.03-.18-.03-.41-.13-.63-.16-.35-.42-.65-.68-.77-.05-.03-.1-.04-.16-.05v-.03l-.05.02-.05-.12v.15c-.13.05-.31-.02-.37-.17-.08-.15-.03-.31.13-.39l5.08-2.94c.63-.22,1.18.23,1.52.69.34.5.65,1.48.1,1.99l-5.14,2.97c-.05.03-.1.04-.16.04Z"/>
      <path class="cls-4" d="M20.31,12.27c0,.57.39,1.27.89,1.55.5.29.92.06.92-.51s-.42-1.27-.92-1.55c-.5-.29-.89-.05-.89.52Z"/>
      <path class="cls-2" d="M20.8,11.93s-.05.01-.08.02c-.08.05-.1.16-.1.32,0,.46.34,1.05.73,1.29.16.08.26.11.34.06.05-.03.11-.16.11-.31,0-.47-.34-1.06-.73-1.29-.1-.06-.18-.09-.26-.09h0ZM21.62,14.25c-.18,0-.37-.05-.55-.17-.6-.34-1.05-1.14-1.05-1.82,0-.39.13-.69.39-.85.26-.16.63-.13.94.06.6.34,1.05,1.15,1.05,1.82,0,.38-.13.7-.42.84-.1.07-.24.11-.37.11Z"/>
      <path class="cls-4" d="M17.48,6.27l.08-.03c.21-.13.31-.29.34-.45v-.95l-9.04-2.55v1.1c.05.35.29.69.73.95l1.05.6c1.07.63,2.36-.27,4.35.88l.81.47c.47.27,1.23.27,1.68,0Z"/>
      <path class="cls-2" d="M12.5,4.86c.73,0,1.6.07,2.65.68l.81.46c.37.22,1,.22,1.39,0l.05-.03c.13-.08.18-.16.18-.21v-.7l-8.41-2.37v.69c.03.22.23.48.58.68l1.05.61c.37.21.81.21,1.36.2h.34ZM17.48,6.27h.03-.03ZM16.64,6.77c-.34,0-.71-.08-1-.23l-.81-.47c-1.05-.62-1.91-.6-2.67-.59-.58,0-1.15.02-1.68-.29l-1.05-.6c-.52-.3-.84-.72-.86-1.18l-.03-1.13c0-.1.05-.19.13-.24.08-.06.18-.08.29-.05l9.01,2.55c.13.03.24.16.24.3v.95c-.03.3-.21.55-.5.72l-.08.04c-.26.16-.63.23-1,.23Z"/>
      <path class="cls-3" d="M17.48,5.33l.08-.03c.47-.27.47-.7,0-.97l-.81-.46c-1.99-1.15-.45-1.89-1.52-2.52l-1.05-.6c-1-.56-2.59-.56-3.56,0l-1.02.58c-.97.57-.97,1.5,0,2.06l1.05.61c1.07.62,2.36-.27,4.35.88l.81.46c.47.27,1.23.27,1.68,0Z"/>
      <path class="cls-2" d="M12.5,3.92c.73,0,1.6.08,2.65.68l.81.47c.37.21,1,.21,1.39,0h0l.05-.03c.11-.07.18-.16.18-.23,0-.06-.08-.15-.18-.22l-.81-.46c-1.2-.7-1.28-1.31-1.26-1.92.03-.31.03-.43-.26-.6l-1.05-.6c-.89-.51-2.38-.51-3.25,0l-1.02.59c-.37.21-.58.48-.58.76s.21.55.58.77l1.05.6c.37.23.81.21,1.36.21.11,0,.24,0,.34,0h0ZM16.64,5.84c-.34,0-.71-.09-1-.24l-.81-.47c-1.05-.62-1.91-.6-2.67-.59-.58.02-1.15.03-1.68-.29l-1.05-.6c-.58-.33-.89-.79-.89-1.29s.31-.96.89-1.3l1.02-.58c1.07-.62,2.78-.62,3.88,0l1.05.61c.63.36.6.82.58,1.16-.03.41-.05.79.94,1.35l.81.47c.31.18.5.45.5.75s-.18.57-.5.76l-.08.03c-.26.16-.63.24-1,.24Z"/>
    </g>
  </g>
</svg>