<?xml version="1.0" encoding="UTF-8"?>
<svg id="Layer_2" data-name="Layer 2" xmlns="http://www.w3.org/2000/svg" viewBox="0 0 59.3 88.11" fill="currentColor">
  <defs>
    <style>
      .cls-1 {
        fill: #fff;
      }

      .cls-1, .cls-2, .cls-3, .cls-4 {
        fill-rule: evenodd;
      }

      .cls-2 {
        fill: #1a87c7;
      }

      .cls-3 {
        fill: #bdedf8;
      }

      .cls-4 {
        fill: #66ceef;
      }
    </style>
  </defs>
  <g id="_Layer_" data-name="&amp;lt;Layer&amp;gt;">
    <g>
      <polygon class="cls-1" points="55.77 10.76 45.38 6.56 38.09 .55 3.51 20.52 21.21 30.73 55.77 10.76"/>
      <path class="cls-2" d="M4.62,20.52l16.59,9.57L54.52,10.85l-9.35-3.78s-.09-.05-.14-.09l-7.01-5.76L4.62,20.52h0ZM21.21,31.28c-.09,0-.2-.02-.28-.07L3.23,21c-.17-.1-.28-.28-.28-.48s.11-.38.28-.48L37.81.07c.2-.11.45-.09.63.06l7.24,5.95,10.32,4.18c.19.08.33.26.34.47.01.21-.09.41-.28.52L21.47,31.21c-.08.05-.17.07-.27.07Z"/>
      <polygon class="cls-3" points="41.06 53.96 38.09 .55 3.51 20.52 .55 77.35 41.06 53.96"/>
      <path class="cls-2" d="M4.04,20.84l-2.89,55.51,39.33-22.71L37.59,1.48,4.04,20.84h0ZM.55,77.9c-.09,0-.2-.03-.28-.08-.19-.11-.28-.3-.26-.5L2.96,20.49c0-.19.11-.35.27-.45L37.81.07c.17-.09.38-.1.55,0,.16.09.27.26.28.46l2.96,53.41c.02.21-.09.4-.26.51L.83,77.83c-.09.05-.19.08-.28.08Z"/>
      <polygon class="cls-4" points="21.21 30.73 13.91 24.73 3.51 20.52 .55 77.35 18.24 87.56 21.21 30.73"/>
      <path class="cls-2" d="M1.11,77.04l16.61,9.59,2.91-55.65-7.01-5.77-9.6-3.89-2.92,55.72h0ZM18.24,88.11c-.09,0-.2-.02-.28-.08L.27,77.83c-.17-.1-.28-.3-.26-.51L2.96,20.49c0-.18.09-.34.25-.44.15-.09.34-.11.5-.05l10.39,4.21c.06.02.11.05.16.08l7.29,6c.14.11.22.28.2.46l-2.96,56.84c-.01.19-.12.36-.28.46-.09.04-.17.07-.26.07Z"/>
      <polygon class="cls-1" points="58.75 64.17 55.77 10.76 21.21 30.73 18.24 87.56 58.75 64.17"/>
      <path class="cls-2" d="M21.74,31.06l-2.9,55.52,39.34-22.71-2.91-52.16L21.74,31.06h0ZM18.24,88.11c-.11,0-.2-.03-.3-.08-.17-.11-.26-.3-.26-.5l2.96-56.83c.01-.19.12-.36.28-.45L55.51,10.29c.16-.1.36-.1.53,0,.17.09.28.26.3.45l2.96,53.41c.02.21-.09.41-.28.51l-40.51,23.39c-.07.05-.17.08-.26.08Z"/>
      <path class="cls-2" d="M33.97,51.35c-1.06,0-2.04-.25-2.92-.75-2.09-1.2-3.25-3.71-3.25-7.04v-9.09c0-.31.25-.56.56-.56s.55.25.55.56v9.09c0,2.92.95,5.07,2.7,6.08,1.73,1.01,4.07.75,6.6-.7,5.43-3.14,9.85-10.8,9.85-17.07v-9.09c0-.31.25-.55.56-.55s.55.25.55.55v9.09c0,6.62-4.67,14.71-10.4,18.02-1.69.97-3.31,1.46-4.79,1.46Z"/>
      <polygon class="cls-4" points="55.77 10.76 45.38 6.56 38.09 .55 39.18 20.35 55.77 10.76"/>
      <path class="cls-2" d="M38.72,1.78l.98,17.63,14.82-8.56-9.35-3.78s-.09-.05-.14-.09l-6.32-5.2h0ZM39.18,20.9c-.08,0-.17-.02-.26-.07-.16-.09-.27-.26-.28-.46l-1.1-19.79c0-.22.11-.42.31-.52.18-.1.42-.07.59.07l7.24,5.95,10.32,4.18c.19.08.33.26.34.47.01.21-.09.41-.28.52l-16.59,9.58c-.08.05-.19.08-.28.08Z"/>
      <path class="cls-2" d="M55.77,11.32c-.07,0-.14-.01-.21-.04l-10.53-4.29-7.3-6c-.24-.19-.27-.54-.08-.78.2-.24.55-.27.78-.08l7.24,5.95,10.32,4.18c.28.12.42.44.3.72-.08.22-.3.35-.51.35Z"/>
      <path class="cls-2" d="M3.51,21.07c-.19,0-.37-.1-.48-.27-.16-.27-.06-.61.21-.76L37.81.07c.27-.15.61-.06.75.2.16.27.07.61-.19.76L3.79,21c-.09.05-.19.07-.28.07Z"/>
    </g>
  </g>
</svg>