<?xml version="1.0" encoding="UTF-8"?>
<svg id="Layer_2" data-name="Layer 2" xmlns="http://www.w3.org/2000/svg" viewBox="0 0 34.54 44.59" fill="currentColor">
  <defs>
    <style>
      .cls-1 {
        fill: #fff;
      }

      .cls-1, .cls-2, .cls-3, .cls-4 {
        fill-rule: evenodd;
      }

      .cls-2 {
        fill: #1a87c7;
      }

      .cls-3 {
        fill: #bdedf8;
      }

      .cls-4 {
        fill: #66ceef;
      }
    </style>
  </defs>
  <g id="_Layer_" data-name="&amp;lt;Layer&amp;gt;">
    <g>
      <path class="cls-4" d="M4.98,37.33l-4.34,2.5c-.19.13-.32.35-.33.58v1.34c0,.08.02.16.1.21l3.96,2.29c-.08-.05-.09-.13-.09-.21v-1.34c0-.24.14-.45.33-.58l4.34-2.49.03-.02.04-.02h.03s.03-.02.03-.02h.05s.03.02.03.02h.03s-3.96-2.28-3.96-2.28l-.03-.02h-.03s-.05,0-.05,0h-.03s-.03.02-.03.02h-.03s-.04.03-.04.03Z"/>
      <path class="cls-2" d="M4.98,37.33l.1.18h0s-.11-.18-.11-.18h0ZM.62,41.73l3.35,1.94v-.96c.02-.35.2-.66.48-.84l4.03-2.32-3.35-1.93-4.32,2.49c-.11.06-.18.19-.18.33v1.29h0ZM4.37,44.56c-.05,0-.1-.01-.15-.04l-3.97-2.28c-.11-.06-.24-.2-.25-.47v-1.35c.02-.36.2-.66.48-.84l4.35-2.51h0s.03-.03.03-.03c.01,0,.06-.03.07-.03.02,0,.07-.03.09-.03.02,0,.07,0,.09,0h.1s.1.03.11.03l4.02,2.31c.14.09.19.26.12.41-.08.15-.25.21-.41.14l-4.29,2.51c-.09.06-.17.19-.18.33v1.31c.1.1.13.25.06.38-.06.1-.16.15-.27.15Z"/>
      <path class="cls-1" d="M8.94,39.62l-4.34,2.49c-.18.12-.33.37-.33.58v1.34c0,.21.15.3.33.19l4.34-2.5c.18-.11.33-.36.33-.57v-1.34c0-.22-.15-.31-.33-.19Z"/>
      <path class="cls-2" d="M8.94,39.62h0,0ZM8.97,39.96l-4.21,2.43c-.09.05-.18.21-.18.31v1.19l4.21-2.42c.09-.05.18-.22.18-.31v-1.19h0ZM4.46,44.59c-.09,0-.17-.03-.24-.07-.15-.09-.25-.27-.25-.48v-1.34c0-.32.22-.69.5-.84l4.33-2.5c.19-.11.38-.11.55-.03.15.09.25.27.25.49v1.34c0,.32-.21.69-.5.84l-4.33,2.5c-.09.05-.2.09-.3.09Z"/>
      <path class="cls-3" d="M.44,40.04l3.96,2.29c.07-.09.11-.15.21-.21l4.34-2.49c.08-.04.15-.07.24-.03l-3.96-2.28c-.09-.04-.16-.03-.24.02l-4.34,2.5c-.09.06-.15.11-.21.21Z"/>
      <path class="cls-2" d="M.98,40l3.36,1.94s.07-.05.1-.08l4.03-2.32-3.35-1.93-4.15,2.39h0ZM4.4,42.64c-.05,0-.1-.02-.16-.04l-3.96-2.28c-.07-.04-.12-.12-.14-.2-.02-.09,0-.17.04-.24.08-.11.16-.2.3-.29l4.35-2.51c.09-.05.29-.15.52-.03l3.99,2.3c.14.09.19.26.12.41-.08.15-.26.21-.41.14l-4.29,2.51s-.06.05-.11.12c-.06.08-.15.13-.25.13Z"/>
      <path class="cls-4" d="M29.94,22.92l-4.33,2.5c-.2.13-.32.35-.34.58v1.34c.01.08.03.17.1.21l3.96,2.3c-.08-.05-.1-.13-.1-.22v-1.34c.01-.23.14-.45.33-.58l4.33-2.49.03-.02.03-.02h.03s.04-.01.04-.01h.03s.03,0,.03,0h.03s.03.02.03.02l-3.96-2.29-.03-.02h-.05s-.03-.01-.03-.01h-.03s-.03.02-.03.02h-.04s-.03.03-.03.03Z"/>
      <path class="cls-2" d="M29.94,22.92l.11.18v-.02s-.11-.16-.11-.16h0ZM25.58,27.33l3.35,1.93v-.97c.02-.35.2-.66.48-.84l4.02-2.32-3.36-1.93-4.31,2.49c-.1.06-.17.19-.18.33v1.3h0ZM29.34,30.15c-.05,0-.1,0-.16-.04l-3.96-2.29c-.11-.06-.24-.2-.25-.47v-1.35c.02-.35.2-.66.48-.84l4.34-2.5s.01-.01.01-.01l.03-.02s.08-.04.09-.04c.02,0,.06-.02.08-.02.01,0,.09-.01.09-.01.02,0,.1.01.12.02.02,0,.08.03.1.03l3.98,2.3c.15.09.2.27.12.41-.07.13-.22.2-.36.16l-4.33,2.49c-.1.07-.17.19-.18.33v1.31c.11.09.13.25.06.38-.06.1-.17.15-.27.15Z"/>
      <path class="cls-1" d="M33.9,25.21l-4.33,2.49c-.18.11-.33.37-.33.58v1.34c0,.21.15.3.33.19l4.33-2.5c.19-.11.34-.37.34-.57v-1.34c0-.22-.15-.3-.34-.19Z"/>
      <path class="cls-2" d="M33.9,25.21h0,0ZM33.93,25.55l-4.21,2.43c-.09.05-.18.21-.18.31v1.19l4.21-2.43c.09-.05.18-.21.18-.31v-1.19h0ZM29.42,30.18c-.09,0-.17-.03-.24-.06-.15-.1-.25-.27-.25-.49v-1.34c0-.32.21-.69.49-.84l4.34-2.5c.18-.1.38-.11.54-.03.17.1.25.27.25.49v1.34c0,.32-.21.69-.49.84l-4.33,2.5c-.1.06-.21.09-.3.09Z"/>
      <path class="cls-3" d="M25.34,25.74l3.96,2.29c.06-.13.15-.23.27-.31l4.33-2.49c.09-.04.15-.07.24-.03l-3.96-2.29c-.09-.04-.16-.03-.24.02l-4.33,2.5c-.12.08-.21.18-.27.31Z"/>
      <path class="cls-2" d="M25.81,25.66l3.39,1.96c.06-.06.12-.12.2-.16l4.02-2.33-3.35-1.93-4.27,2.46h0ZM29.3,28.33c-.05,0-.1-.02-.16-.04l-3.96-2.28c-.14-.09-.19-.26-.12-.4.09-.19.22-.33.38-.44l4.34-2.5c.1-.05.29-.15.52-.04l3.98,2.3c.15.09.2.27.12.41-.08.15-.25.21-.4.14l-4.29,2.51c-.06.03-.1.09-.15.18-.04.07-.1.13-.18.16-.03.01-.06.02-.09.02Z"/>
      <path class="cls-4" d="M31.23,1.1l-1.32-.76c-.12-.06-.21-.03-.32.03l-1.02.6c-.27.17-.44.46-.45.78v23.59l1.32.76V2.5c.02-.31.18-.61.45-.77l1.03-.6c.11-.05.2-.09.32-.03Z"/>
      <path class="cls-2" d="M28.42,25.15l.7.41V2.5c.02-.42.24-.81.59-1.04l.77-.44-.73-.42-1.03.63c-.17.11-.29.31-.3.53v23.4h0ZM29.43,26.4c-.05,0-.1,0-.15-.03l-1.32-.76c-.09-.05-.15-.16-.15-.27V1.74c.02-.43.24-.82.59-1.04l1.03-.6c.12-.06.33-.18.61-.04l1.34.77c.15.08.2.26.12.41-.08.15-.25.21-.41.14l.14-.28-.14.27-1.05.62c-.18.11-.29.31-.31.53v23.57c.01.11-.05.21-.15.27-.05.03-.1.03-.16.03Z"/>
      <path class="cls-1" d="M31.36,12.18V1.39c0-.29-.2-.4-.45-.26l-1.03.59c-.12.08-.24.2-.32.34-.08.14-.13.3-.13.44v23.59l1.93-1.11v-12.8Z"/>
      <path class="cls-2" d="M31.36,24.98h0,0ZM31.05,1.41l-1.01.58c-.08.04-.16.13-.21.22-.06.09-.09.21-.09.29v23.06l1.31-.76V1.41h0ZM29.43,26.4c-.05,0-.1,0-.15-.03-.1-.06-.15-.16-.15-.27V2.5c0-.19.06-.4.17-.6.12-.19.27-.35.44-.44l1.03-.59c.22-.13.44-.14.62-.03.18.11.29.31.29.56v23.59c0,.12-.05.21-.16.27l-1.92,1.11c-.05.03-.1.03-.16.03Z"/>
      <polygon class="cls-3" points="6.22 17.2 5.3 16.67 28.34 3.37 29.26 3.9 6.22 17.2"/>
      <path class="cls-2" d="M5.92,16.67l.3.17L28.64,3.9l-.3-.17L5.92,16.67h0ZM6.22,17.51c-.06,0-.11-.02-.16-.04l-.92-.53c-.09-.06-.15-.16-.15-.27s.06-.21.15-.27L28.18,3.1c.09-.05.22-.05.31,0l.91.54c.09.05.15.15.15.26s-.06.21-.15.27L6.37,17.47s-.09.04-.15.04Z"/>
      <polygon class="cls-1" points="6.22 17.2 29.26 3.9 29.26 12.84 6.22 26.14 6.22 17.2"/>
      <path class="cls-2" d="M6.53,17.38v8.22l22.42-12.94V4.44L6.53,17.38h0ZM6.22,26.45c-.06,0-.11-.02-.16-.05-.09-.05-.15-.15-.15-.27v-8.94c0-.11.06-.21.15-.27L29.1,3.64c.1-.06.21-.06.31,0,.09.05.15.15.15.26v8.94c0,.11-.06.22-.15.27L6.37,26.4s-.09.05-.15.05Z"/>
      <polygon class="cls-1" points="6.22 26.14 5.3 25.6 5.3 16.67 6.22 17.2 6.22 26.14"/>
      <path class="cls-2" d="M5.61,25.43l.31.17v-8.22l-.31-.18v8.23h0ZM6.22,26.45c-.06,0-.11-.02-.16-.05l-.92-.53c-.09-.06-.15-.16-.15-.27v-8.93c0-.11.06-.21.15-.27.1-.05.22-.05.31,0l.91.53c.1.06.16.16.16.27v8.94c0,.11-.06.21-.16.27-.04.03-.09.05-.15.05Z"/>
      <path class="cls-4" d="M6.27,15.52l-1.32-.76c-.11-.06-.21-.03-.32.03l-1.03.6c-.26.16-.44.46-.45.77v23.59l1.33.77v-23.59c0-.31.18-.61.44-.78l1.02-.59c.12-.05.2-.09.32-.02Z"/>
      <path class="cls-2" d="M3.46,39.56l.7.41v-23.06c.02-.43.24-.82.59-1.03l.76-.44-.73-.43-1.03.63c-.16.11-.29.31-.29.53v23.4h0ZM4.48,40.81c-.06,0-.11-.01-.16-.04l-1.32-.76c-.1-.05-.16-.16-.16-.27v-23.59c.02-.43.24-.82.59-1.03l1.04-.6c.11-.06.33-.17.6-.04l1.35.77c.14.08.19.26.11.41-.07.15-.25.21-.4.14l.13-.28-.14.27-1.05.62c-.17.11-.29.31-.3.53v23.57c0,.11-.06.21-.15.27-.04.03-.1.04-.15.04Z"/>
      <path class="cls-1" d="M6.4,26.59v-10.79c0-.28-.2-.4-.45-.26l-1.02.59c-.12.08-.23.2-.31.34-.09.14-.13.29-.13.44v23.59l1.92-1.11v-12.8Z"/>
      <path class="cls-2" d="M6.4,39.39h.01-.01ZM6.09,15.8l-1.02.6c-.07.04-.15.13-.21.22-.05.1-.09.2-.09.29v23.06l1.31-.76V15.8h0ZM4.48,40.81c-.06,0-.11-.01-.16-.04-.09-.06-.16-.16-.16-.27v-23.59c0-.19.06-.4.18-.6.11-.19.26-.35.42-.44l1.03-.6c.22-.12.44-.13.63-.03.18.1.29.3.29.56v23.59c0,.11-.06.21-.16.27l-1.93,1.11s-.1.04-.15.04Z"/>
      <path class="cls-2" d="M24.44,13.72c-.17,0-.31-.14-.31-.31v-3.53l-.95.56c-.15.08-.34.04-.42-.11-.08-.15-.03-.34.11-.43l1.41-.81s0,0,.02,0l1.41-.81c.14-.09.33-.04.42.11.09.14.04.33-.11.42l-1.26.73v3.88c0,.17-.14.31-.3.31Z"/>
      <path class="cls-2" d="M20.19,12.16v1.4l1.62-.94c.29-.27.48-.71.48-1.09,0-.27-.05-.36-.08-.38,0,0-.14-.08-.63.21l-1.39.8h0ZM19.88,16.36c-.17,0-.3-.14-.3-.31v-1.95h0v-2.11c0-.12.05-.21.15-.27l1.55-.9c.35-.19.85-.43,1.25-.21.26.15.39.46.39.92,0,.37-.12.78-.33,1.11.24.2.25.56.26.9v.08c0,.15.03.44.08.52.15.09.18.26.09.41-.09.15-.28.19-.44.1-.31-.18-.33-.62-.35-1.01v-.08c-.01-.14-.02-.36-.05-.44,0,0-.03,0-.05.02l-1.94,1.12v1.77c0,.17-.14.31-.31.31Z"/>
      <path class="cls-2" d="M16.64,16.55c-.1,0-.21-.06-.27-.15-.09-.15-.04-.34.11-.42l2.01-1.16c.15-.09.34-.03.42.11.09.15.04.33-.11.42l-2.01,1.17s-.1.04-.15.04Z"/>
      <path class="cls-2" d="M16.07,18.55s-.05,0-.08-.01c-.17-.04-.26-.22-.22-.38l1.38-4.86c.03-.08.08-.14.15-.18l.38-.22c.08-.05.18-.05.25-.03.09.03.15.09.19.17l1.37,3.27c.06.15,0,.34-.16.41-.16.06-.34-.01-.41-.17l-1.23-2.92-1.34,4.7c-.03.13-.16.22-.29.22Z"/>
      <path class="cls-2" d="M14.8,19.29c-.17,0-.3-.14-.3-.31v-3.53l-.96.55c-.15.08-.33.04-.42-.11-.09-.15-.03-.34.11-.42l1.4-.81s.02,0,.03-.02l1.4-.81c.15-.08.34-.03.42.11.09.15.03.34-.12.43l-1.25.72v3.89c0,.17-.14.31-.31.31Z"/>
      <path class="cls-2" d="M11,21.37c-.11,0-.22-.02-.31-.04-.24-.09-.41-.26-.51-.51-.06-.15.02-.34.17-.4.16-.06.34,0,.4.17.04.11.09.14.14.16.16.05.46-.04.8-.24.63-.36,1.22-.8,1.22-1.54,0-.12-.03-.19-.05-.21-.12-.09-.62.06-.92.16-.55.17-1.09.32-1.44.05-.19-.14-.29-.37-.29-.68,0-1.03.81-1.62,1.42-1.98.45-.26.84-.34,1.15-.24.22.06.38.22.48.43.08.16.01.34-.15.41-.15.07-.34,0-.41-.15-.03-.08-.08-.1-.11-.11-.05,0-.23-.04-.66.2-.77.44-1.11.89-1.11,1.44,0,.12.02.17.04.18.11.09.61-.06.9-.15.54-.17,1.1-.33,1.46-.06.2.15.3.38.3.7,0,1.06-.81,1.67-1.52,2.08-.37.22-.7.32-.99.32Z"/>
      <path class="cls-3" d="M3.25,15.77l1.32.76c.08-.16.2-.3.35-.4l1.02-.59c.12-.05.2-.09.32-.02l-1.32-.76c-.12-.06-.21-.03-.32.03l-1.03.6c-.15.09-.28.23-.35.4Z"/>
      <path class="cls-2" d="M3.7,15.68l.76.44c.09-.1.18-.18.29-.24l.76-.44-.73-.43-1.03.63s-.03.03-.05.05h0ZM4.57,16.84c-.05,0-.11-.02-.16-.04l-1.32-.77c-.14-.08-.19-.25-.12-.39.1-.21.26-.4.46-.53l1.04-.6c.11-.06.33-.17.6-.04l1.35.77c.14.08.19.26.11.41-.07.15-.25.21-.4.14l-1.06.61c-.1.06-.18.16-.23.27-.04.08-.1.13-.19.16-.03,0-.06.02-.09.02Z"/>
      <path class="cls-3" d="M28.35,1.14l1.32.76c.07-.08.12-.12.21-.17l1.03-.6c.11-.05.2-.09.32-.03l-1.32-.76c-.12-.06-.21-.03-.32.03l-1.02.6c-.09.05-.14.1-.21.18Z"/>
      <path class="cls-2" d="M28.92,1.1l.71.42s.05-.03.09-.05l.77-.44-.73-.42-.83.5h0ZM29.67,2.21s-.1,0-.15-.03l-1.32-.76c-.08-.04-.13-.13-.15-.21-.02-.1.02-.18.08-.25.09-.11.16-.17.27-.23l1.03-.6c.12-.06.33-.18.61-.04l1.34.77c.15.08.2.26.12.41-.08.15-.25.21-.41.14l-1.05.61c-.05.03-.09.06-.13.11-.06.07-.15.1-.24.1Z"/>
    </g>
  </g>
</svg>