<?xml version="1.0" encoding="UTF-8"?>
<svg id="Layer_2" data-name="Layer 2" xmlns="http://www.w3.org/2000/svg" viewBox="0 0 55.78 80.01" fill="currentColor">
  <defs>
    <style>
      .cls-1 {
        fill: #fff;
      }

      .cls-1, .cls-2, .cls-3 {
        fill-rule: evenodd;
      }

      .cls-2 {
        fill: #1a87c7;
      }

      .cls-3 {
        fill: #66ceef;
      }
    </style>
  </defs>
  <g id="_Layer_" data-name="&amp;lt;Layer&amp;gt;">
    <g>
      <path class="cls-1" d="M30.32,14.33c-10.12,5.84-18.32,20.04-18.32,31.72s8.2,16.41,18.32,10.57c10.1-5.84,18.3-20.04,18.3-31.71s-8.21-16.41-18.3-10.57h0ZM30.32,79.4c-6.19-4.76-15.05-10.08-20.32-15.67-2.97-3.21-4.54-7.9-4.54-13.9,0-15.85,11.12-35.12,24.86-43.04,13.72-7.92,24.84-1.5,24.84,14.35,0,5.93-1.57,12.56-4.52,19.13-5.28,11.69-14.15,27.23-20.32,39.14h0Z"/>
      <path class="cls-2" d="M30.32,14.33h.02-.02ZM30.61,14.87c-9.92,5.73-17.99,19.72-17.99,31.18,0,5.42,1.79,9.44,5.06,11.32,3.25,1.89,7.63,1.42,12.32-1.28,9.93-5.73,17.99-19.71,17.99-31.18,0-5.42-1.79-9.44-5.04-11.32-3.27-1.88-7.65-1.43-12.35,1.28h0ZM22.13,59.75c-1.84,0-3.56-.43-5.08-1.31-3.65-2.11-5.67-6.51-5.67-12.39,0-11.85,8.35-26.32,18.62-32.25h0c5.1-2.94,9.91-3.4,13.56-1.28,3.65,2.11,5.66,6.51,5.66,12.39,0,11.86-8.34,26.32-18.62,32.25-2.97,1.72-5.86,2.59-8.48,2.59h0ZM41.41,4c-3.3,0-6.97,1.12-10.79,3.32C17.09,15.13,6.08,34.2,6.08,49.83c0,5.81,1.46,10.34,4.36,13.48,3.51,3.74,8.64,7.33,13.59,10.8,2.16,1.51,4.21,2.94,6.07,4.36,1.91-3.67,4.03-7.62,6.29-11.8,4.97-9.23,10.1-18.77,13.67-26.67,2.93-6.48,4.48-13,4.48-18.87,0-7.44-2.49-12.96-6.97-15.56-1.82-1.05-3.91-1.58-6.17-1.58h0ZM30.32,80.01c-.14,0-.28-.04-.38-.13-1.98-1.53-4.22-3.1-6.61-4.77-5-3.51-10.17-7.14-13.78-10.97-3.11-3.37-4.69-8.2-4.69-14.32,0-16.02,11.28-35.57,25.15-43.58,6.83-3.95,13.3-4.56,18.19-1.74,4.9,2.83,7.59,8.73,7.59,16.63,0,6.04-1.6,12.74-4.59,19.38-3.58,7.93-8.72,17.5-13.71,26.74-2.38,4.42-4.63,8.58-6.62,12.43-.09.16-.22.28-.42.32-.04.01-.08.01-.12.01Z"/>
      <path class="cls-1" d="M30.32,22.89c-6.03,3.47-10.9,11.93-10.9,18.87s4.87,9.77,10.9,6.29c6.02-3.47,10.9-11.93,10.9-18.88s-4.88-9.77-10.9-6.29Z"/>
      <path class="cls-2" d="M30.32,22.89h.02-.02ZM35.17,22.02c-1.37,0-2.92.47-4.56,1.41h0c-5.84,3.37-10.58,11.6-10.58,18.34,0,3.13,1.03,5.45,2.89,6.52,1.86,1.07,4.38.8,7.09-.76,5.84-3.37,10.59-11.6,10.59-18.35,0-3.13-1.03-5.44-2.89-6.52-.75-.43-1.6-.64-2.54-.64h0ZM25.45,50.17c-1.15,0-2.21-.27-3.14-.82-2.26-1.3-3.52-3.99-3.52-7.59,0-7.14,5.05-15.84,11.21-19.41,3.11-1.79,6.07-2.06,8.33-.76,2.26,1.3,3.49,4,3.49,7.59,0,7.14-5.02,15.85-11.21,19.41-1.81,1.05-3.56,1.58-5.16,1.58Z"/>
      <path class="cls-3" d="M38.02,22.13c-5.09-2.94-8.59-6.17-15.68.47-6.38,5.96-11.18,19.25-4.46,23.5l4.73,2.74c-9.75-6.76,4.7-31.76,15.42-26.7Z"/>
      <path class="cls-2" d="M29.94,19.32c-2.02,0-4.26.99-7.18,3.73-4.61,4.3-7.94,12.05-7.46,17.27.22,2.41,1.2,4.18,2.9,5.26l1.58.92c-2.16-4.29-.59-10.71,2.33-15.76,2.92-5.06,7.72-9.63,12.53-9.88-1.6-.89-3.08-1.53-4.71-1.53h0ZM22.6,49.44c-.1,0-.21-.03-.29-.08l-4.75-2.74c-2.03-1.28-3.23-3.42-3.49-6.19-.59-6.3,3.53-14.24,7.86-18.28,6.76-6.33,10.58-4.03,15.02-1.37.45.27.9.55,1.39.82.28.17.38.53.23.82-.14.29-.51.41-.8.27-5.18-2.45-11.19,2.77-14.58,8.66-3.41,5.89-4.92,13.71-.21,16.97.26.19.33.56.16.84-.11.18-.31.28-.52.28Z"/>
      <path class="cls-3" d="M5.25,60.99c-10.57-12.15-.9-35.33,8.48-46.64C20.06,6.73,32.73-3.42,43.15,2.31l4.73,2.73C34.59-1.9,19.07,14.38,12.74,25.33c-6.15,10.66-12.01,29.39-1.72,39.44,5.06,4.95,13.37,10.14,19.29,14.63-6.07-3.5-5.99-3.76-11.12-7.35-5.06-3.55-9.59-6.64-13.94-11.06Z"/>
      <path class="cls-2" d="M5.7,60.57c1.29,1.3,2.57,2.48,3.9,3.59C.12,53.32,6.66,34.63,12.2,25.03,18.08,14.85,30.79,1.48,42.87,2.86l-.03-.02c-10.16-5.58-22.77,4.85-28.63,11.9C4.31,26.67-4.15,49.22,5.7,60.57h0ZM30.32,80.01c-.1,0-.21-.03-.31-.08-4.53-2.62-5.65-3.42-8.08-5.18-.82-.59-1.78-1.29-3.1-2.21l-.87-.62c-4.64-3.24-9-6.31-13.14-10.51-.02,0-.02-.02-.03-.03C-5.99,48.99,3.46,25.76,13.27,13.96,20.83,4.84,33.27-3.82,43.44,1.77l4.75,2.75c.29.17.4.53.23.83-.16.29-.52.4-.82.25C34.87-1.06,19.79,14.36,13.27,25.64c-5.55,9.61-12.17,28.57-1.81,38.69,3.37,3.31,8.23,6.72,12.9,10.01,2.26,1.6,4.4,3.11,6.33,4.57.26.19.33.56.14.83-.12.18-.31.28-.5.28Z"/>
      <path class="cls-3" d="M15.21,56.15c7.53,8.32,20.41-1.9,26.06-10.06l1.98-3.14c4.64-8.29,9.41-23.95,0-29.9-.78-.46-1.65-.79-2.59-.99,6.17,5.98,2.38,19.84-1.53,27.07-4.28,7.89-14.27,18.99-23.8,17.05l-.12-.04Z"/>
      <path class="cls-2" d="M17.07,57.01c1.6,1.19,3.5,1.73,5.6,1.59,6.29-.41,13.88-6.78,18.1-12.86l1.98-3.12c4.82-8.64,8.87-23.54.17-29.05-.14-.08-.28-.16-.41-.23,4.45,6.89.83,19.3-2.83,26.08-4.1,7.59-13.3,18-22.6,17.59h0ZM22.01,59.86c-2.83,0-5.28-1.11-7.26-3.3-.17-.2-.21-.51-.05-.74.14-.24.41-.35.68-.27l.14.04c9.16,1.87,19.03-9.29,23.08-16.75,4.1-7.6,7.34-20.8,1.63-26.34-.19-.19-.24-.49-.11-.73.12-.24.4-.37.66-.31,1.01.21,1.93.57,2.78,1.06,10.17,6.45,4.61,22.92.23,30.74l-2,3.17c-4.28,6.15-12.05,12.95-19.05,13.4-.25.02-.49.03-.73.03Z"/>
    </g>
  </g>
</svg>