<?xml version="1.0" encoding="UTF-8"?>
<svg id="Layer_2" data-name="Layer 2" xmlns="http://www.w3.org/2000/svg" viewBox="0 0 29.23 47.72" fill="currentColor">
  <defs>
    <style>
      .cls-1 {
        fill: #1a87c7;
      }

      .cls-1, .cls-2, .cls-3 {
        fill-rule: evenodd;
      }

      .cls-2 {
        fill: #bdedf8;
      }

      .cls-3 {
        fill: #66ceef;
      }
    </style>
  </defs>
  <g id="_Layer_" data-name="&amp;lt;Layer&amp;gt;">
    <g>
      <path class="cls-3" d="M23.07,8.05l3.77,2.17v12.47c-4.22-.04-8.59,7.84-5.34,9.82-.94-.55-3.85-2.04-4.35-2.69-2.02-2.65,2.07-9.34,5.92-9.31v-12.47Z"/>
      <path class="cls-1" d="M23.02,20.83c-2.15,0-4.27,2.22-5.29,4.3-.94,1.83-1.07,3.57-.34,4.51.29.39,1.81,1.24,2.91,1.85-.31-.78-.31-1.78.03-2.92.84-2.9,3.48-5.98,6.21-6.18v-11.99l-3.14-1.82v11.93c0,.08-.05.16-.1.22-.05.06-.13.09-.21.09h-.05ZM21.5,32.83c-.05,0-.11-.01-.16-.04-.18-.12-.5-.28-.81-.46-1.7-.93-3.25-1.8-3.64-2.32-.86-1.15-.76-3.08.29-5.16,1.07-2.15,3.25-4.46,5.58-4.63v-12.17c0-.11.05-.21.16-.27.11-.06.21-.06.31,0l3.75,2.17c.1.05.16.16.16.27v12.47c0,.08-.03.16-.08.22-.05.06-.13.09-.21.09t-.05,0c-2.49,0-5.11,3.02-5.87,5.74-.24.78-.6,2.69.73,3.52.13.09.18.27.1.42-.05.1-.16.15-.26.15Z"/>
      <path class="cls-3" d="M7.38,15.87L24.54.41c.16-.13.26-.11.45-.05l3.77,2.17c-.18-.07-.32-.09-.45.04l-17.16,15.46c-.37.23-.6.64-.6,1.07v18.21c-4.11-.04-8.46,7.56-5.48,9.74-1.2-.69-3.8-1.95-4.32-2.75-1.78-2.78,2.25-9.21,6.03-9.17v-18.21c.03-.43.29-.79.6-1.07Z"/>
      <path class="cls-1" d="M6.75,35.46c-2.04,0-4.06,1.99-5.14,3.96-1.05,1.87-1.28,3.68-.6,4.73.34.51,1.86,1.36,2.99,1.97-.34-.86-.29-1.97.13-3.24.92-2.74,3.46-5.67,6.1-5.86v-17.92c.03-.54.31-1.05.76-1.33L28,2.45l-3.17-1.83s-.05-.01-.05-.01L7.59,16.1c-.34.31-.5.58-.52.86v18.2c0,.08-.03.16-.08.22-.05.06-.13.09-.21.09,0,0-.03,0-.03,0h0ZM5.07,47.38c-.05,0-.1-.02-.16-.04-.26-.16-.6-.34-1-.54-1.7-.92-3.01-1.67-3.43-2.3-.81-1.26-.6-3.26.58-5.36,1.13-2.05,3.22-4.11,5.4-4.27v-17.92c.03-.46.26-.88.71-1.3h0L24.33.17c.29-.25.55-.18.76-.1l3.8,2.2c.16.08.21.25.13.4-.05.14-.24.21-.37.16-.08-.03-.1-.03-.13-.03l-17.16,15.48c-.31.21-.5.53-.52.86v18.2c0,.08-.03.16-.08.22-.08.06-.13.09-.21.09-.03,0-.03,0-.05,0-2.38,0-4.9,2.81-5.79,5.45-.58,1.71-.37,3.07.55,3.74.13.1.16.28.08.42-.05.09-.16.14-.26.14Z"/>
      <path class="cls-2" d="M11.15,18.04l2.12-1.94L28.31,2.58c.34-.2.63-.04.63.36v22.33c0,2.43-1.91,5.5-4.27,6.86-2.36,1.36-4.27.5-4.27-1.94s1.91-5.5,4.27-6.86c.79-.46,1.52-.66,2.17-.64v-12.47l-14.23,12.75v16.93c0,2.43-1.89,5.5-4.24,6.86-2.36,1.36-4.27.49-4.27-1.93s1.91-5.5,4.27-6.86c.79-.46,1.52-.66,2.17-.64v-18.22c0-.4.29-.77.6-1.07Z"/>
      <path class="cls-1" d="M10.44,37.63c-.58,0-1.23.21-1.91.61-2.28,1.31-4.11,4.27-4.11,6.6,0,.97.31,1.69.92,2.04.71.41,1.76.28,2.88-.37,2.28-1.31,4.11-4.27,4.11-6.6v-16.93c0-.09.03-.17.11-.23l14.2-12.75c.08-.08.21-.1.31-.05.13.05.18.16.18.28v12.47c0,.08-.03.16-.08.22-.08.06-.13.1-.24.09-.6-.02-1.28.19-1.99.6-2.28,1.31-4.14,4.27-4.14,6.6,0,.97.34,1.69.94,2.04.71.41,1.76.28,2.88-.37,2.25-1.31,4.11-4.27,4.11-6.6V2.94c0-.09-.03-.13-.03-.14-.03,0-.05,0-.13.05l-17.11,15.42c-.34.31-.52.6-.52.84v18.22c0,.08-.03.16-.08.22-.08.06-.16.1-.24.09-.03,0-.05,0-.08,0h0ZM6.28,47.72c-.47,0-.89-.11-1.26-.32-.79-.46-1.23-1.37-1.23-2.57,0-2.53,1.99-5.72,4.43-7.13.68-.4,1.39-.63,2.02-.68v-17.92c0-.43.24-.86.71-1.3h0l2.12-1.94L28.1,2.35c.31-.19.6-.2.79-.08.24.12.34.37.34.67v22.33c0,2.52-1.99,5.72-4.4,7.13-1.34.76-2.59.89-3.51.37-.79-.46-1.23-1.37-1.23-2.57,0-2.52,1.99-5.72,4.43-7.13.68-.4,1.39-.63,2.02-.68v-11.48l-13.6,12.2v16.79c0,2.53-1.99,5.72-4.4,7.13-.79.45-1.57.68-2.25.68Z"/>
      <path class="cls-3" d="M10.55,19.11v18.21c-4.11-.04-8.46,7.56-5.48,9.74-1.2-.69-3.8-1.95-4.32-2.75-1.78-2.78,2.25-9.21,6.03-9.17v-18.21l3.77,2.17Z"/>
      <path class="cls-1" d="M6.75,35.46c-2.04,0-4.06,1.99-5.14,3.96-1.05,1.87-1.28,3.68-.6,4.73.34.51,1.86,1.36,2.99,1.97-.34-.86-.29-1.97.13-3.24.92-2.74,3.46-5.67,6.1-5.86v-17.74l-3.17-1.82v17.68c0,.08-.03.16-.08.22-.05.06-.13.09-.21.09,0,0-.03,0-.03,0h0ZM5.07,47.38c-.05,0-.1-.02-.16-.04-.26-.16-.6-.34-1-.54-1.7-.92-3.01-1.67-3.43-2.3-.81-1.26-.6-3.26.58-5.36,1.13-2.05,3.22-4.11,5.4-4.27v-17.92c0-.11.05-.21.16-.27.1-.06.21-.06.31,0l3.75,2.18c.11.05.16.15.16.26v18.21c0,.08-.03.16-.08.22-.08.06-.13.09-.21.09-.03,0-.03,0-.05,0-2.38,0-4.9,2.81-5.79,5.45-.58,1.71-.37,3.07.55,3.74.13.1.16.28.08.42-.05.09-.16.14-.26.14Z"/>
      <path class="cls-1" d="M10.55,37.64c-.05,0-.11-.01-.16-.04l-3.77-2.17c-.16-.08-.21-.27-.11-.42.08-.15.26-.2.42-.11l3.75,2.17c.16.08.21.27.13.42-.08.1-.16.15-.26.15Z"/>
      <path class="cls-1" d="M26.84,23c-.05,0-.11-.01-.16-.04l-3.77-2.17c-.16-.08-.21-.27-.1-.42.08-.15.26-.2.42-.11l3.75,2.18c.16.08.21.27.13.42-.05.1-.16.15-.26.15Z"/>
    </g>
  </g>
</svg>