<?xml version="1.0" encoding="UTF-8"?>
<svg id="Layer_2" data-name="Layer 2" xmlns="http://www.w3.org/2000/svg" viewBox="0 0 34.48 48.39" fill="currentColor">
  <defs>
    <style>
      .cls-1 {
        fill: #fff;
      }

      .cls-1, .cls-2, .cls-3, .cls-4 {
        fill-rule: evenodd;
      }

      .cls-2 {
        fill: #1a87c7;
      }

      .cls-3 {
        fill: #bdedf8;
      }

      .cls-4 {
        fill: #66ceef;
      }
    </style>
  </defs>
  <g id="_Layer_" data-name="&amp;lt;Layer&amp;gt;">
    <g>
      <path class="cls-1" d="M9.27,27.52c.25-.32.98-1.07,1.18-1.4.39-.67.38-.92.46-1.7,3.36,3.88,11.24,6.16,14.28.65h0c.86,2.04-1.58,5.99-4.72,7.16-2.3.86-5.82.33-7.59-1.29l-3.01-2.74-.59-.66Z"/>
      <path class="cls-2" d="M9.03,27.33c.09-.12.26-.3.43-.5.28-.32.61-.68.72-.87.32-.54.34-.78.4-1.34l.02-.24c.02-.17.17-.29.34-.27.08,0,.15.05.2.1.78.91,1.83,1.73,3,2.37,1.53.84,3.27,1.39,4.95,1.45,1.65.06,3.24-.35,4.47-1.42.51-.44.97-1,1.35-1.69.08-.15.27-.2.42-.12.07.04.12.1.14.18l.02.06c.41,1.1.01,2.64-.89,4.06-.88,1.39-2.25,2.68-3.81,3.33l-.23.09c-1.22.45-2.75.54-4.21.29h-.01c-1.42-.25-2.77-.81-3.69-1.64l-3.01-2.74-.61-.69c-.1-.11-.1-.28-.01-.39h0ZM9.92,27.24l-.25.28.4.45,3,2.74c.83.76,2.07,1.27,3.38,1.49h0c1.35.23,2.77.16,3.89-.26l.21-.08c1.43-.6,2.7-1.8,3.52-3.09.64-1,1-2.04.95-2.89-.32.46-.69.86-1.08,1.2-1.36,1.18-3.1,1.64-4.9,1.57-1.78-.06-3.62-.64-5.23-1.52-1.02-.56-1.94-1.25-2.7-2.01-.05.39-.14.67-.43,1.16-.14.23-.49.62-.79.96Z"/>
      <path class="cls-1" d="M23.32,27.69c1.27-1.22,2.3-3.44,3.29-5.47,1.35-2.77,1.28-5.93,1.3-8.47l-.46-1.51c-.17-.62-.18-1.29-.19-1.92-.02-.83-.03-1.59-.46-1.98-.68-.63-1.76.33-3.03,1.45-.86.76-1.8,1.59-2.82,2.18-1.02.59-1.96.84-2.82,1.07h0c-.83.23-1.58.43-2.2.94-.95.8-.91,1.45-.89,2.6.02,1.08.07,2.15-.59,4.45-.08-.58-.22-1.17-.44-1.72-1.2-2.9-4.06-1.88-4,.87,0,.28.04.56.1.83.18.77.61,1.66.96,2.32.11.21-.03.79-.14,1.11,2.42,2.75,5.94,4.63,8.75,4.62,1.25,0,2.72-.51,3.63-1.38Z"/>
      <path class="cls-2" d="M23.11,27.47c1.14-1.1,2.11-3.09,3.03-4.98l.2-.41c1.24-2.54,1.26-5.46,1.27-7.89v-.41s-.45-1.48-.45-1.48c-.09-.33-.14-.67-.16-1.01-.03-.32-.03-.65-.04-.98,0-.4-.02-.78-.07-1.11-.05-.28-.13-.51-.29-.65h-.01c-.22-.2-.53-.12-.92.11h-.02c-.48.3-1.05.8-1.66,1.34-.87.77-1.82,1.61-2.87,2.21-.53.31-1.03.52-1.52.7-.48.17-.93.29-1.36.41h-.01c-.41.12-.8.22-1.15.36-.34.13-.65.3-.93.53-.81.68-.8,1.26-.79,2.25v.28c.02,1.05.04,2.15-.6,4.37-.05.16-.22.26-.38.21-.13-.04-.21-.15-.22-.27-.04-.27-.09-.55-.16-.82-.07-.28-.16-.55-.26-.8-.33-.8-.79-1.27-1.27-1.46-.26-.1-.53-.12-.79-.06-.26.06-.5.2-.71.4-.4.4-.67,1.04-.65,1.87,0,.13.01.25.03.38.02.13.04.26.07.39.08.36.23.76.4,1.15.17.39.36.77.54,1.1.08.15.09.37.06.59h0c-.02.2-.08.41-.13.59,1.17,1.29,2.59,2.38,4.05,3.16,1.49.79,3.01,1.24,4.36,1.24.6,0,1.26-.13,1.88-.36.58-.22,1.12-.54,1.53-.94h0ZM26.69,22.77c-.94,1.93-1.93,3.97-3.16,5.15-.48.46-1.09.82-1.74,1.07-.68.26-1.42.4-2.1.4-1.45,0-3.07-.48-4.64-1.31-1.57-.83-3.09-2.01-4.33-3.41-.08-.08-.11-.2-.07-.31.05-.17.12-.42.15-.64h0c.01-.12.02-.21,0-.24-.18-.33-.38-.73-.56-1.14-.18-.42-.34-.85-.43-1.26-.03-.15-.06-.29-.08-.45-.02-.15-.03-.29-.03-.44-.02-1.01.32-1.81.83-2.32.29-.28.63-.48,1-.56.37-.09.76-.06,1.15.09.62.24,1.21.82,1.61,1.79.07.16.13.33.18.5.29-1.34.28-2.16.26-2.94v-.28c-.02-1.17-.03-1.86,1-2.73.33-.28.7-.48,1.1-.63.38-.15.78-.26,1.19-.37h.02c.43-.12.87-.24,1.33-.4.45-.16.93-.36,1.42-.65.99-.57,1.92-1.39,2.77-2.14.64-.56,1.23-1.08,1.76-1.4h.02c.62-.38,1.18-.47,1.64-.06l.02.02c.27.25.41.59.48,1,.06.36.07.77.08,1.2,0,.3.01.62.04.94.02.31.07.61.14.9l.46,1.5s.01.06.01.09v.45c-.01,2.49-.03,5.49-1.33,8.15l-.2.41Z"/>
      <path class="cls-4" d="M7.86,6.87c-2.24,4.1-.83,15.32,3.03,17.75.08-.2.34-1.02.19-1.28-.35-.66-.79-1.56-.96-2.32-.84-3.7,3.56-5.43,4.34.02.66-2.3.6-3.37.59-4.45-.02-1.15-.06-1.8.89-2.6.61-.51,1.36-.72,2.2-.94h0c.86-.24,1.8-.49,2.82-1.08,1.02-.59,1.96-1.42,2.82-2.18,1.27-1.12,2.35-2.07,3.03-1.45.43.39.44,1.15.46,1.98.01.63.02,1.3.19,1.92l.46,1.51c.13-2,.09-4.31-.19-6.2-.54-3.66-2.17-3.8-6.69-6.19-.72-.38-1.66-1.01-3.05-1.06-3.4-.11-8.45,3.86-10.12,6.56Z"/>
      <path class="cls-2" d="M8.12,7.03c-1.13,2.07-1.29,6.04-.66,9.73.54,3.17,1.67,6.1,3.26,7.38.03-.11.06-.24.08-.36.02-.14.03-.25.01-.29-.18-.33-.38-.73-.56-1.14-.18-.42-.34-.85-.43-1.26-.32-1.43.08-2.6.78-3.25.3-.28.66-.47,1.04-.54.38-.07.79-.03,1.18.16.66.31,1.28,1.03,1.66,2.25.29-1.34.28-2.16.26-2.94v-.28c-.02-1.17-.03-1.86,1-2.73.33-.28.7-.48,1.1-.63.39-.15.78-.26,1.2-.37h.01c.43-.12.87-.24,1.33-.4.45-.16.93-.36,1.42-.65h.02c.99-.58,1.91-1.39,2.75-2.14.65-.57,1.24-1.1,1.78-1.41.63-.37,1.19-.46,1.66-.03.27.25.41.59.48,1,.06.36.07.77.08,1.2,0,.3.01.62.04.94.01.19.04.38.07.57,0-.44,0-.88-.01-1.32-.03-1.01-.11-2.01-.24-2.92-.42-2.89-1.59-3.48-4.5-4.92-.6-.3-1.26-.63-2.03-1.04l-.33-.18c-.65-.36-1.47-.81-2.59-.84-1.49-.05-3.32.74-5.04,1.85-2.06,1.33-3.92,3.13-4.81,4.56h0ZM6.85,16.86c-.65-3.8-.46-7.94.74-10.13h0c.93-1.52,2.87-3.4,5-4.78C14.41.77,16.37-.05,17.99,0c1.27.04,2.17.53,2.87.92l.32.17c.74.39,1.41.73,2.02,1.03,3.11,1.55,4.36,2.17,4.83,5.39.13.92.21,1.95.25,2.99.03,1.11.01,2.24-.05,3.27,0,.12-.09.24-.22.27-.16.05-.33-.04-.38-.2l-.47-1.52c-.09-.33-.14-.67-.16-1.01-.03-.32-.03-.65-.04-.98,0-.4-.02-.78-.07-1.11-.05-.28-.13-.51-.29-.65-.22-.2-.54-.12-.93.11-.49.28-1.06.79-1.69,1.34-.87.77-1.81,1.6-2.85,2.2h-.02c-.53.32-1.04.53-1.52.71-.47.17-.92.29-1.35.41h-.02c-.41.12-.8.22-1.15.36-.34.13-.65.3-.93.53-.81.68-.8,1.26-.79,2.25v.28c.02,1.05.04,2.15-.6,4.37-.03.11-.13.2-.25.22-.17.02-.32-.09-.35-.26-.25-1.79-.9-2.74-1.6-3.07-.27-.13-.54-.16-.8-.11-.26.05-.52.18-.73.38-.55.52-.87,1.48-.6,2.67.08.36.23.76.4,1.15.17.39.36.77.54,1.1.09.17.09.41.05.66-.05.33-.17.71-.23.86,0,.02-.02.04-.03.07-.09.14-.28.19-.42.1-1.93-1.22-3.27-4.49-3.87-8.03Z"/>
      <path class="cls-1" d="M34.17,33.57v-4.82c0-3.85-4.75-5.25-8.04-5.54-.28.57-.56,1.14-.86,1.68l-.09.17c.28,2.65-1.86,3.92-3.92,5.99h0l-.39.23h0c-5.49-.49-8.56-.64-11.43-3.58l-.16-.16h-.01s0-.01,0-.01h0c-1.65,2.13-3.93,3.73-5.75,5.72-1.63,1.83-2.91,3.54-3.18,6.05-.05,1.44-.02,2.93-.02,4.37,0,1.45.18,1.83,1.76,2.74,5.1,2.95,11.57,1.67,17.35-1.02l3.37-1.76c6.44-3.72,11.37-8.64,11.37-10.05Z"/>
      <path class="cls-2" d="M33.86,33.57v-4.82c0-1.52-.8-2.63-1.96-3.43-1.57-1.08-3.77-1.6-5.59-1.77l-.33.66c-.15.29-.29.57-.44.84l-.05.09c.19,2.23-1.18,3.5-2.83,5.01-.39.36-.8.73-1.19,1.13-.02.02-.05.04-.08.06l-.38.22c-.06.03-.12.04-.18.04l-.73-.07c-5.07-.45-8.02-.71-10.82-3.54-.93,1.14-2.02,2.13-3.11,3.11-.84.76-1.67,1.52-2.44,2.34-.8.91-1.52,1.78-2.06,2.72-.54.93-.91,1.95-1.04,3.15-.04,1.02-.03,2.06-.02,3.09v1.25c0,.67.04,1.08.25,1.41.21.34.62.64,1.37,1.07h.01c2.29,1.33,4.87,1.77,7.53,1.62,3.15-.19,6.44-1.22,9.53-2.65l3.35-1.75c2.94-1.7,5.56-3.65,7.54-5.39,2.28-2.01,3.67-3.71,3.67-4.39h0ZM34.48,28.75v4.82c0,.85-1.48,2.73-3.89,4.85-2,1.77-4.66,3.74-7.63,5.46-1.14.58-2.27,1.18-3.4,1.77-3.15,1.46-6.51,2.52-9.75,2.71-2.78.16-5.47-.31-7.87-1.69h-.02c-.84-.49-1.31-.84-1.58-1.28-.28-.45-.33-.95-.33-1.73v-1.25c-.01-1.04-.02-2.1.02-3.12v-.03c.14-1.3.55-2.39,1.12-3.4.57-1,1.31-1.89,2.14-2.82h0c.77-.84,1.62-1.62,2.48-2.39,1.15-1.04,2.3-2.08,3.24-3.29l.04-.05c.12-.12.32-.12.44,0,.06.06.11.12.17.18,2.66,2.73,5.53,2.99,10.5,3.43l.64.06.27-.16c.4-.4.8-.77,1.18-1.12,1.54-1.42,2.83-2.61,2.62-4.59,0-.06,0-.12.04-.18l.09-.17c.15-.27.29-.55.43-.82l.41-.82c.05-.12.17-.21.31-.2,1.93.17,4.36.71,6.09,1.9,1.32.91,2.23,2.18,2.23,3.94Z"/>
      <path class="cls-2" d="M22.93,33.62c.08.15.02.34-.13.41-.15.08-.33.02-.41-.13l-1.27-2.48c.01.05.01.11,0,.16l-1.18,3.64c-.05.16-.23.25-.39.2-.16-.05-.25-.23-.2-.39l1.18-3.64c.05-.16.23-.25.39-.2.07.02.13.07.17.13-.03-.13.03-.28.16-.34.15-.08.34-.02.41.13l1.28,2.5Z"/>
      <path class="cls-3" d="M15.75,32.81c.92,1.16,1.13,2.94.87,4.57l4.1-2.63,1.17-.55,3.23-1.24c-.28-1.44-.06-2.78.01-4.03l-3.58,3.5-.98.32-4.83.06Z"/>
      <path class="cls-2" d="M16.33,33.11c.28.49.47,1.04.58,1.63.13.65.15,1.35.1,2.03l3.56-2.28,1.2-.57,3.02-1.16c-.17-1.07-.09-2.07,0-3.03h0s-3,2.92-3,2.92c-.04.03-.08.06-.12.07l-.98.32s-.07.02-.11.01l-4.25.06h0ZM16.31,34.85c-.13-.7-.39-1.34-.79-1.85-.04-.05-.07-.12-.07-.19,0-.17.13-.31.3-.31l4.78-.06.87-.28,3.52-3.45c.06-.06.14-.09.23-.09.17,0,.3.15.29.32-.02.3-.04.57-.06.84-.08.99-.17,2.03.04,3.11.03.14-.05.29-.19.34l-3.21,1.23-1.15.54-4.09,2.62c-.06.04-.14.06-.21.04-.17-.03-.28-.18-.26-.35.13-.82.13-1.69-.02-2.48Z"/>
      <path class="cls-3" d="M21.5,34.72c1.71-.73.83-2.97-.28-2.56-1.85.68-1.52,3.34.28,2.56Z"/>
      <path class="cls-2" d="M21.38,34.44c.54-.23.76-.65.77-1.04,0-.15-.02-.3-.07-.43-.05-.13-.11-.25-.2-.34-.15-.17-.35-.25-.56-.17-.65.24-.97.75-1.03,1.23-.02.16,0,.31.03.45h0c.04.13.1.23.18.3.17.15.46.19.86.02h0ZM22.77,33.42c-.02.61-.34,1.24-1.15,1.59-.65.28-1.17.18-1.51-.12-.17-.15-.29-.34-.36-.56v-.02c-.07-.21-.09-.46-.06-.7.08-.68.54-1.41,1.43-1.74.48-.18.92,0,1.23.35.14.15.25.34.32.55.07.2.11.43.1.65Z"/>
      <path class="cls-2" d="M21.2,34.76c-.02-.17.1-.32.27-.34.17-.02.32.1.34.27.19,1.67.26,3.3.25,4.9-.01,1.59-.11,3.15-.25,4.7-.01.17-.16.29-.33.28s-.29-.16-.28-.33c.14-1.53.23-3.07.24-4.65.01-1.57-.06-3.17-.24-4.83Z"/>
      <path class="cls-2" d="M16.25,33.76c.16.06.24.23.18.39-.06.16-.23.24-.39.18l-.24-.09c-1.49-.54-3.25-1.18-4.8-2.08-.15-.09-.2-.27-.11-.42.08-.15.27-.2.42-.11,1.5.88,3.24,1.5,4.7,2.03l.24.09Z"/>
      <path class="cls-2" d="M25.26,31.32c-.08.15-.27.2-.42.12-.15-.08-.2-.27-.12-.42.43-.76.78-1.47,1.07-2.14.29-.66.52-1.3.74-1.92.06-.16.23-.25.39-.19.16.06.25.23.19.39-.21.62-.45,1.26-.76,1.96-.3.69-.66,1.42-1.1,2.2Z"/>
    </g>
  </g>
</svg>