<?xml version="1.0" encoding="UTF-8"?>
<svg id="Layer_2" data-name="Layer 2" xmlns="http://www.w3.org/2000/svg" viewBox="0 0 36.46 43.34" fill="currentColor">
  <defs>
    <style>
      .cls-1 {
        fill: #fff;
      }

      .cls-1, .cls-2, .cls-3, .cls-4 {
        fill-rule: evenodd;
      }

      .cls-2 {
        fill: #1a87c7;
      }

      .cls-3 {
        fill: #bdedf8;
      }

      .cls-4 {
        fill: #66ceef;
      }
    </style>
  </defs>
  <g id="_Layer_" data-name="&amp;lt;Layer&amp;gt;">
    <g>
      <path class="cls-4" d="M6.21,40.47l4.41,2.55c-.21-.14-.21-.39-.18-.62l2.1-11.95c.08-.5.07-1.05-.4-1.35l-4.41-2.54-.07-.04c.54.32.55.82.47,1.39l-2.09,11.95c-.03.23-.04.48.17.62Z"/>
      <path class="cls-2" d="M6.36,40.24l3.81,2.2s0-.06,0-.08l2.09-11.96c.08-.57,0-.89-.28-1.08l-3.56-2.06c.02.22,0,.45-.03.67l-2.09,11.96c-.04.23,0,.31.05.34h0ZM10.62,43.29s-.09-.01-.14-.04l-4.4-2.54s-.02,0-.02-.01c-.38-.26-.31-.72-.29-.89l2.09-11.96c.09-.61,0-.9-.33-1.11-.13-.07-.17-.24-.1-.37.08-.13.24-.18.37-.11l.07.04,4.42,2.55c.63.42.6,1.13.53,1.63l-2.1,11.95c-.03.25,0,.31.06.35.13.08.16.25.08.37-.05.08-.15.13-.23.13Z"/>
      <path class="cls-3" d="M20.78,8.79l4.41,2.55c.31.14.57.08.88-.05l9.49-4.44c.16-.07.29-.1.44,0l-4.41-2.55c-.15-.08-.28-.06-.43,0l-9.5,4.44c-.3.13-.56.19-.88.05Z"/>
      <path class="cls-2" d="M21.72,9.01l3.61,2.09c.18.07.33.06.64-.07l9.25-4.33-3.76-2.18s-.06-.03-.19.02l-9.49,4.44s-.04.02-.06.03h0ZM25.55,11.69c-.15,0-.3-.03-.47-.1l-4.44-2.56c-.12-.07-.17-.23-.1-.36.06-.13.23-.18.36-.13.19.09.36.07.65-.05l9.49-4.44c.19-.08.43-.15.69,0l4.41,2.55c.12.07.17.24.1.37-.08.13-.24.18-.38.1-.03-.02-.05-.03-.19.02l-9.48,4.44c-.19.08-.4.16-.64.16Z"/>
      <path class="cls-3" d="M10.39,15.24L.9,21.75c-.22.16-.35.32-.46.56-.14.29-.29.79.02,1.02l4.41,2.54c-.33-.25-.16-.79,0-1.08.12-.21.24-.35.44-.5l9.49-6.51c.61-.45.98-1.01,1.22-1.73l3.79-12.29c.13-.37.63-1.15,1.13-.89L16.52.33c-.49-.26-.99.51-1.12.89l-3.79,12.3c-.24.72-.61,1.29-1.23,1.73Z"/>
      <path class="cls-2" d="M10.39,15.24h0,0ZM16.32.55s-.05,0-.08.02c-.23.09-.49.49-.57.73l-3.79,12.29c-.27.82-.69,1.41-1.32,1.87t0,0L1.05,21.98c-.16.12-.27.25-.38.46-.12.25-.19.57-.05.68l3.8,2.19c.02-.21.11-.44.21-.64.15-.26.29-.43.52-.59l9.5-6.51c.53-.39.88-.88,1.11-1.59l3.79-12.29c.07-.2.29-.65.63-.93l-3.79-2.19s-.04-.01-.07-.01h0ZM4.87,26.15s-.1-.01-.14-.04L.31,23.57c-.37-.28-.41-.79-.13-1.38.15-.29.31-.48.55-.66l9.5-6.51c.54-.39.89-.89,1.12-1.59L15.14,1.14c.11-.32.44-.9.89-1.08.21-.08.43-.08.62.02l4.42,2.55c.12.07.17.24.1.37-.08.13-.24.18-.37.11-.05-.03-.09-.03-.15,0-.24.09-.5.5-.58.75l-3.79,12.29c-.27.82-.69,1.41-1.33,1.87l-9.49,6.51c-.16.11-.26.22-.36.4-.14.27-.22.62-.08.73.12.09.14.25.06.37-.05.08-.14.12-.22.12Z"/>
      <path class="cls-1" d="M14.8,17.79l-9.49,6.51c-.61.41-.85,1.43-.39,1.61l7.15,3.15c.41.18.58.69.47,1.39l-2.1,11.95c-.12.75.5.92,1.02.27l8.21-10.34c.47-.6,1.03-.92,1.5-.87l8.21.88c.52.06,1.15-.84,1.02-1.44l-2.08-9.55c-.12-.55.05-1.27.47-1.92l7.15-11.41c.46-.72.21-1.44-.39-1.16l-9.49,4.44c-.56.26-.99.13-1.23-.32l-3.78-7.93c-.24-.5-1.02-.05-1.26.73l-3.79,12.3c-.2.65-.71,1.43-1.23,1.73Z"/>
      <path class="cls-2" d="M14.94,18.02l-9.48,6.5c-.34.23-.54.71-.5,1,0,.03.01.11.05.12l7.17,3.16c.53.24.77.87.63,1.69l-2.1,11.95c-.04.22.02.33.05.35.06.03.26-.01.48-.3l8.21-10.34c.54-.68,1.18-1.03,1.75-.97l8.2.88c.09.02.26-.08.4-.24.23-.26.37-.63.32-.87l-2.08-9.55c-.14-.63.05-1.4.5-2.13l7.15-11.41c.25-.39.22-.7.15-.78-.04-.04-.14,0-.18.02l-9.5,4.44c-.68.32-1.29.15-1.59-.44l-3.78-7.94c-.03-.05-.05-.06-.09-.05-.18.01-.53.29-.66.74l-3.79,12.3c-.21.67-.73,1.52-1.34,1.88h0ZM10.82,43.34c-.09,0-.18-.02-.27-.06-.31-.14-.45-.49-.37-.94l2.09-11.95c.09-.56-.02-.96-.31-1.09l-7.15-3.15c-.21-.08-.36-.29-.39-.57-.05-.46.2-1.15.74-1.52l9.49-6.51s.01,0,.02,0c.41-.24.9-.93,1.09-1.58l3.79-12.29c.18-.61.67-1.09,1.15-1.13.28-.02.5.12.62.37l3.78,7.93c.05.11.24.47.86.19l9.49-4.44c.32-.15.63-.11.83.11.28.32.24.91-.09,1.44l-7.15,11.41c-.38.6-.54,1.24-.44,1.72l2.08,9.54c.1.48-.15,1.03-.44,1.36-.27.3-.59.45-.88.42l-8.2-.88c-.38-.04-.86.26-1.27.77l-8.21,10.35c-.26.33-.57.51-.86.51Z"/>
      <path class="cls-4" d="M15.19,17.46c.41-.43.65-.84.83-1.4l3.79-12.3c.12-.37.63-1.15,1.12-.89L16.52.33c-.47-.25-.96.47-1.09.82l-3.81,12.36c-.19.56-.43.97-.83,1.4l4.4,2.55Z"/>
      <path class="cls-2" d="M11.21,14.84l3.93,2.27c.29-.33.47-.68.62-1.14l3.79-12.29c.08-.26.31-.67.63-.92l-3.79-2.2s-.07-.02-.14,0c-.23.09-.48.46-.57.68l-3.81,12.35c-.16.5-.36.88-.66,1.25h0ZM15.19,17.73s-.09-.01-.13-.03l-4.41-2.55c-.07-.04-.12-.11-.13-.2-.02-.08.01-.17.07-.23.36-.39.59-.76.77-1.3L15.16,1.07c.12-.33.46-.86.89-1.02.21-.07.41-.06.6.04l4.42,2.55c.12.07.17.24.1.37-.08.13-.24.18-.37.11-.03-.02-.08-.03-.16,0-.23.09-.5.5-.57.74l-3.79,12.29c-.2.61-.46,1.06-.89,1.51-.05.06-.12.08-.2.08Z"/>
    </g>
  </g>
</svg>