<?xml version="1.0" encoding="UTF-8"?>
<svg id="Layer_2" data-name="Layer 2" xmlns="http://www.w3.org/2000/svg" viewBox="0 0 34.07 41.58" fill="currentColor">
  <defs>
    <style>
      .cls-1 {
        fill: #fff;
      }

      .cls-1, .cls-2, .cls-3, .cls-4 {
        fill-rule: evenodd;
      }

      .cls-2 {
        fill: #1a87c7;
      }

      .cls-3 {
        fill: #bdedf8;
      }

      .cls-4 {
        fill: #66ceef;
      }
    </style>
  </defs>
  <g id="_Layer_" data-name="&amp;lt;Layer&amp;gt;">
    <g>
      <path class="cls-4" d="M18.24,19.76l-2.71-1.56c-1.29-.82-1.81-1.89-2.14-3.35-.3-1.71-.16-3.12.23-4.81.6-2.27,1.46-4.09,2.77-6.03,1.05-1.47,2.07-2.59,3.5-3.7l2.71,1.56c-1.82,1.42-3.09,2.96-4.28,4.92-.99,1.74-1.64,3.31-2.09,5.26-.28,1.41-.37,2.53-.21,3.95.28,1.61.79,2.86,2.22,3.75Z"/>
      <path class="cls-2" d="M19.9.68c-1.25,1-2.21,2.02-3.27,3.51-1.34,1.98-2.16,3.75-2.72,5.93-.36,1.54-.53,2.92-.22,4.68.29,1.3.75,2.35,2,3.14l.79.46c-.42-.74-.63-1.55-.76-2.34-.18-1.58-.05-2.76.21-4.07.43-1.9,1.07-3.5,2.12-5.34,1.22-2.01,2.43-3.44,4-4.73l-2.14-1.23h0ZM18.24,20.08c-.05,0-.1-.02-.16-.04l-2.71-1.56c-1.52-.96-2-2.28-2.28-3.55-.27-1.61-.2-3.03.23-4.94.58-2.22,1.45-4.11,2.82-6.13,1.13-1.58,2.19-2.7,3.56-3.77.1-.08.24-.09.35-.03l2.7,1.56c.09.05.15.15.16.24,0,.1-.04.21-.12.27-1.68,1.31-2.94,2.76-4.2,4.84-1.02,1.78-1.63,3.33-2.05,5.16-.29,1.48-.35,2.57-.19,3.85.25,1.49.7,2.67,2.07,3.53.14.09.18.28.1.42-.06.09-.16.16-.26.16Z"/>
      <path class="cls-4" d="M22.69,12.74l-2.71-1.56c1.06.56,1.95.55,3.09.26.95-.3,1.64-.67,2.46-1.23,1.1-.81,1.93-1.64,2.78-2.72l.2-.27,2.71,1.56c-1.25,1.65-2.58,2.93-4.45,3.84-1.39.6-2.69.85-4.08.11Z"/>
      <path class="cls-2" d="M22.83,12.47c1.13.59,2.24.56,3.82-.12,1.57-.77,2.81-1.82,4.11-3.47l-2.17-1.25-.03.05c-.93,1.17-1.78,2-2.85,2.77-.91.63-1.62.99-2.55,1.28-.43.1-.85.18-1.26.2l.94.54h0ZM24.47,13.5c-.61,0-1.26-.14-1.93-.49t0,0l-2.71-1.57c-.14-.09-.19-.27-.11-.42.08-.15.27-.2.41-.12,1.02.53,1.86.49,2.88.23.83-.26,1.5-.59,2.36-1.17,1.01-.75,1.83-1.54,2.71-2.66l.2-.26c.09-.12.26-.15.4-.08l2.7,1.56c.08.04.13.11.16.2,0,.09-.01.18-.06.25-1.42,1.87-2.82,3.08-4.56,3.93-.74.31-1.56.6-2.44.6Z"/>
      <path class="cls-3" d="M31.22,8.78c-1.06,4.18-3.99,8.44-7.43,10.43-4.34,2.5-7.86.47-7.86-4.54,0-4.54,2.88-9.96,6.66-12.8-1.16,2.08-1.89,4.39-1.89,6.49,0,4.31,3.03,6.06,6.76,3.9,1.39-.8,2.68-2.04,3.76-3.49Z"/>
      <path class="cls-2" d="M21.63,3.08c-3.15,2.96-5.39,7.7-5.39,11.6,0,2.31.75,4.01,2.14,4.81,1.39.8,3.25.61,5.25-.55,2.9-1.68,5.53-5.08,6.84-8.76-.89.97-1.86,1.77-2.86,2.35-1.9,1.09-3.71,1.26-5.09.47-1.37-.79-2.13-2.44-2.13-4.64,0-1.65.43-3.49,1.23-5.28h0ZM20.28,20.6c-.8,0-1.54-.19-2.2-.57-1.58-.91-2.45-2.82-2.45-5.35,0-4.6,2.85-10.09,6.77-13.05.11-.09.28-.09.39,0,.11.1.14.26.06.38-1.18,2.12-1.84,4.37-1.84,6.35s.65,3.42,1.83,4.11c1.17.68,2.76.51,4.47-.48,1.3-.76,2.57-1.93,3.66-3.4.1-.12.25-.16.38-.1.13.06.2.21.16.36-1.1,4.37-4.14,8.64-7.58,10.61-1.29.75-2.53,1.12-3.66,1.12Z"/>
      <polygon class="cls-1" points="25.41 5.46 25 5.22 24.98 5.18 24.96 5.13 24.93 5.11 24.89 5.08 25.31 5.32 25.35 5.34 25.37 5.38 25.4 5.41 25.41 5.46"/>
      <path class="cls-2" d="M25.39,5.76s-.09-.01-.12-.03l-.42-.24c-.06-.03-.1-.09-.13-.15-.13-.09-.17-.29-.08-.42.09-.14.27-.18.41-.11l.42.24s.09.06.1.08c.02.02.05.06.06.08.01.02.04.07.05.09.05.12.03.29-.07.37-.07.05-.15.09-.23.09Z"/>
      <polygon class="cls-1" points="29.58 6.37 29.17 6.13 29.19 6.14 29.25 6.14 29.66 6.37 29.64 6.39 29.62 6.39 29.6 6.37 29.58 6.37"/>
      <path class="cls-2" d="M29.61,6.69s-.06-.01-.08-.01c0,0-.09-.04-.1-.04l-.42-.24c-.14-.08-.19-.26-.12-.4.07-.13.22-.2.36-.17.06,0,.1.02.15.04l.42.24c.12.06.18.2.15.33-.03.13-.14.23-.27.24h-.09Z"/>
      <path class="cls-1" d="M29.18,4.82l.27.83c.03.08.09.11.17.09l.86-.17c.07-.02.11.03.11.12,0,.09-.04.19-.11.25l-.86.82c-.09.08-.14.18-.17.3l-.27,1.14c-.03.1-.09.19-.16.24-.08.04-.15.03-.17-.04l-.28-.83c-.03-.08-.09-.11-.17-.1l-.85.18c-.08,0-.12-.03-.12-.12,0-.09.04-.19.12-.26l.85-.82c.08-.08.15-.18.17-.29l.28-1.15c.02-.1.09-.19.17-.24.07-.04.14-.03.16.04Z"/>
      <path class="cls-2" d="M29.74,5.55h0,0ZM28.44,7.16c.19,0,.36.12.42.31l.1.3.19-.78c.04-.16.13-.32.25-.43l.59-.57-.31.06c-.24.05-.44-.07-.52-.3l-.09-.29-.2.78c-.03.17-.13.32-.25.44l-.59.56.31-.06s.07-.02.11-.02h0ZM28.94,8.77c-.05,0-.11,0-.15-.03-.11-.05-.2-.13-.24-.25l-.24-.69-.71.15c-.13.03-.25,0-.34-.08-.09-.08-.16-.2-.16-.34,0-.17.09-.36.22-.48l.86-.82s.07-.09.08-.14l.28-1.15c.04-.18.17-.35.31-.43.12-.07.25-.08.37-.03.11.04.2.13.23.25h0l.24.7.71-.15c.12-.03.25,0,.34.08.1.08.16.2.16.35,0,.18-.09.35-.22.48l-.86.82s-.07.09-.08.14l-.28,1.15c-.04.18-.16.35-.31.44-.07.04-.16.06-.23.06Z"/>
      <path class="cls-1" d="M26.44.82l.47,1.4c.04.14.14.2.28.17l1.44-.3c.13-.03.21.06.21.21s-.08.32-.21.43l-1.44,1.37c-.14.13-.23.3-.28.5l-.47,1.94c-.04.17-.15.32-.28.39-.13.08-.24.04-.28-.07l-.47-1.4c-.04-.14-.14-.19-.29-.17l-1.44.3c-.12.03-.2-.05-.2-.21,0-.15.08-.32.2-.43l1.44-1.37c.14-.13.24-.3.29-.5l.47-1.94c.03-.17.15-.31.28-.39.13-.08.23-.04.28.07Z"/>
      <path class="cls-2" d="M27.2,2.13h.01-.01ZM25.2,4.99c.24,0,.43.14.51.37l.39,1.2s.04-.06.04-.09l.47-1.94c.06-.24.19-.47.37-.63l1.44-1.38s.05-.05.06-.07l-1.23.25c-.29.06-.54-.09-.63-.37l-.4-1.19s-.03.05-.04.09l-.46,1.94c-.06.24-.19.47-.37.64l-1.44,1.38s-.04.04-.06.07l1.23-.25s.09,0,.13,0h0ZM26.03,7.28c-.06,0-.11,0-.17-.02-.13-.05-.23-.16-.28-.3l-.45-1.35-1.4.29c-.14.03-.29-.01-.39-.1-.11-.1-.18-.24-.18-.42,0-.22.12-.48.31-.66l1.44-1.37c.1-.09.17-.21.2-.34l.46-1.94c.06-.24.23-.47.42-.59.15-.09.31-.1.45-.05.13.05.23.16.27.3h0l.45,1.35,1.39-.28c.15-.03.28,0,.4.09.12.1.18.24.18.42,0,.23-.11.48-.3.66l-1.44,1.38c-.09.09-.16.21-.2.34l-.47,1.94c-.06.25-.22.47-.42.59-.1.05-.19.08-.29.08Z"/>
      <path class="cls-3" d="M10.62,40.57c-1.4.81-2.67.89-3.59.36h0s-5.24-3.03-5.24-3.03c-.29-.18-.54-.4-.75-.68-.83-1.09-.84-2.74-.6-4.03.45-2.48,2-5.13,3.96-6.71l.23-.18c.03-.28.07-.55.12-.82.7-4.02,3.5-8.54,7.06-10.61,1.4-.81,3.23-1.36,4.78-.68l.16.08,1.09.63c.98-.87,2.32-1.69,3.66-1.67.32.01.67.07.96.19l.15.06,2.29,1.32.23-.05c.53-.09,1.09-.06,1.59.14l.17.08,5.24,3.02c1,.49,1.62,1.66,1.62,3.36,0,3.24-2.28,7.19-5.09,8.81l-18.05,10.41Z"/>
      <path class="cls-2" d="M15.05,14.18c-1.22,0-2.38.55-3.08.96-3.35,1.95-6.2,6.21-6.92,10.39-.05.27-.08.52-.12.8,0,.08-.05.17-.12.22l-.23.18c-1.9,1.53-3.41,4.09-3.85,6.53-.14.74-.36,2.61.55,3.79.18.24.39.42.66.59l5.23,3.03c.87.5,2.04.37,3.29-.36h0l18.05-10.41c2.71-1.56,4.93-5.39,4.93-8.54,0-1.5-.53-2.63-1.46-3.08l-5.4-3.1c-.41-.16-.89-.2-1.41-.11l-.23.05c-.08,0-.16,0-.21-.03l-2.4-1.37c-.24-.1-.55-.16-.85-.17h-.04c-1.39,0-2.73,1-3.4,1.59-.09.09-.24.11-.36.04l-1.23-.69c-.46-.2-.94-.29-1.42-.29h0ZM8.35,41.58c-.54,0-1.03-.13-1.48-.39l-5.24-3.03c-.35-.21-.61-.44-.84-.75-1.04-1.38-.81-3.45-.66-4.28.47-2.57,2.07-5.28,4.08-6.89l.13-.1c.04-.24.06-.47.11-.71.76-4.34,3.73-8.8,7.22-10.83,1.06-.62,3.14-1.53,5.06-.69l.16.08.92.53c.79-.67,2.18-1.6,3.7-1.61.37,0,.75.09,1.08.22l.15.07,2.22,1.27.12-.02c.64-.11,1.25-.06,1.76.15l.18.08,5.27,3.04c1.13.55,1.79,1.89,1.79,3.63,0,3.34-2.36,7.41-5.24,9.08l-18.05,10.41c-.85.49-1.67.74-2.43.74Z"/>
      <path class="cls-1" d="M10.62,40.57c-2.81,1.61-5.07.3-5.07-2.94,0-2.95,1.88-6.47,4.33-8.3.45-4.37,3.49-9.31,7.18-11.44,2.44-1.41,4.61-1.26,5.92.13.45-.43.94-.79,1.44-1.08,2.24-1.29,4.13-.72,4.8,1.19,2.56-1.15,4.54.19,4.54,3.21,0,3.24-2.28,7.19-5.09,8.81l-18.05,10.41Z"/>
      <path class="cls-2" d="M20.29,17.22c-.94,0-1.99.31-3.08.94-3.56,2.05-6.58,6.87-7.03,11.2-.01.09-.05.17-.12.22-2.4,1.79-4.21,5.25-4.21,8.05,0,1.45.48,2.53,1.34,3.03.86.5,2.02.37,3.28-.36h0l18.05-10.41c2.71-1.56,4.93-5.39,4.93-8.54,0-1.39-.44-2.45-1.25-2.97-.74-.47-1.76-.46-2.85.03-.08.04-.17.04-.25,0-.08-.03-.14-.1-.17-.18-.28-.76-.77-1.31-1.41-1.54-.81-.3-1.87-.12-2.95.51-.48.28-.94.63-1.39,1.04-.13.11-.32.1-.43-.02-.63-.67-1.49-1.01-2.46-1.01h0ZM8.35,41.58c-.54,0-1.03-.13-1.48-.38-1.06-.62-1.64-1.88-1.64-3.56.01-2.98,1.83-6.51,4.35-8.47.52-4.48,3.65-9.42,7.33-11.54,2.36-1.36,4.6-1.36,6.08-.03.42-.36.84-.67,1.28-.92,1.25-.72,2.49-.92,3.48-.56.74.27,1.3.83,1.66,1.62,1.18-.46,2.3-.42,3.15.13.98.63,1.53,1.88,1.53,3.48,0,3.34-2.36,7.41-5.24,9.08l-18.05,10.41c-.85.49-1.67.74-2.43.74Z"/>
      <path class="cls-2" d="M9.87,29.64c-.06,0-.11-.02-.16-.04l-5.24-3.03c-.15-.09-.2-.28-.11-.42.09-.15.27-.19.42-.11l5.24,3.02c.15.09.2.28.11.42-.05.1-.16.16-.26.16Z"/>
      <path class="cls-2" d="M23.04,18.21c-.05,0-.11-.02-.16-.04l-5.2-3c-.15-.09-.2-.28-.11-.42.08-.15.27-.2.42-.11l5.2,3.01c.15.08.2.27.11.42-.05.09-.15.16-.26.16Z"/>
      <path class="cls-2" d="M27.87,16.82c-.05,0-.11-.02-.16-.04l-2.97-1.71c-.15-.09-.2-.28-.11-.43.09-.15.28-.19.42-.11l2.98,1.72c.14.08.19.27.1.42-.05.1-.15.16-.26.16Z"/>
    </g>
  </g>
</svg>