<?xml version="1.0" encoding="UTF-8"?>
<svg id="Layer_2" data-name="Layer 2" xmlns="http://www.w3.org/2000/svg" viewBox="0 0 40.29 40.28" fill="currentColor">
  <defs>
    <style>
      .cls-1 {
        fill: #fff;
      }

      .cls-1, .cls-2, .cls-3 {
        fill-rule: evenodd;
      }

      .cls-2 {
        fill: #1a87c7;
      }

      .cls-3 {
        fill: #bdedf8;
      }
    </style>
  </defs>
  <g id="_Layer_" data-name="&amp;lt;Layer&amp;gt;">
    <g>
      <path class="cls-3" d="M12.56,1.81c-2.42,1.01-4.61,2.48-6.44,4.31-1.83,1.83-3.3,4.02-4.31,6.44-.96,2.33-1.49,4.89-1.49,7.59s.53,5.25,1.49,7.59c1.01,2.41,2.48,4.61,4.31,6.43,1.83,1.84,4.02,3.31,6.44,4.31,2.34.97,4.89,1.5,7.59,1.5s5.25-.54,7.59-1.5c2.42-1,4.61-2.48,6.44-4.31,1.82-1.83,3.3-4.02,4.3-6.43.97-2.34,1.5-4.9,1.5-7.59s-.53-5.26-1.5-7.59c-1-2.42-2.48-4.61-4.3-6.44-1.83-1.83-4.02-3.3-6.44-4.31-2.34-.97-4.9-1.5-7.59-1.5s-5.25.54-7.59,1.5Z"/>
      <path class="cls-2" d="M12.67,2.09c-2.37.98-4.5,2.41-6.34,4.24-1.83,1.83-3.26,3.96-4.24,6.34-.98,2.36-1.48,4.88-1.48,7.47s.5,5.1,1.48,7.46c.98,2.37,2.42,4.51,4.24,6.34,1.83,1.83,3.96,3.26,6.34,4.25,2.37.97,4.89,1.47,7.47,1.47s5.1-.5,7.47-1.48c2.38-.98,4.51-2.41,6.35-4.24,1.82-1.83,3.25-3.96,4.24-6.34.98-2.36,1.48-4.88,1.48-7.46s-.5-5.1-1.48-7.47c-.98-2.37-2.42-4.5-4.24-6.34-1.83-1.83-3.96-3.26-6.35-4.24-2.36-.98-4.88-1.48-7.47-1.48s-5.1.5-7.47,1.48h0ZM20.15,40.28c-2.67,0-5.27-.51-7.71-1.52-2.45-1.02-4.65-2.49-6.54-4.38-1.89-1.89-3.36-4.09-4.37-6.54-1.02-2.44-1.53-5.03-1.53-7.7s.51-5.27,1.53-7.71c1.01-2.45,2.49-4.65,4.37-6.54,1.89-1.89,4.09-3.36,6.54-4.38h0c2.45-1.01,5.04-1.52,7.71-1.52s5.26.51,7.7,1.52c2.45,1.02,4.66,2.49,6.54,4.38,1.89,1.89,3.35,4.08,4.37,6.54,1.02,2.44,1.53,5.03,1.53,7.71s-.51,5.26-1.53,7.7c-1.02,2.45-2.48,4.65-4.37,6.54-1.89,1.9-4.09,3.36-6.54,4.38-2.44,1.01-5.03,1.52-7.7,1.52Z"/>
      <path class="cls-1" d="M22.39,36.17c9.42,0,17.06-7.64,17.06-17.06S31.81,2.05,22.39,2.05,5.33,9.69,5.33,19.11s7.64,17.06,17.06,17.06Z"/>
      <path class="cls-2" d="M22.39,2.36C13.15,2.36,5.63,9.87,5.63,19.11s7.52,16.76,16.76,16.76,16.76-7.52,16.76-16.76S31.63,2.36,22.39,2.36h0ZM22.39,36.49c-9.58,0-17.38-7.8-17.38-17.37S12.81,1.74,22.39,1.74s17.38,7.8,17.38,17.38-7.8,17.37-17.38,17.37Z"/>
      <path class="cls-3" d="M22.03,13.86c1.97,0,3.58-1.61,3.58-3.58s-1.61-3.59-3.58-3.59-3.59,1.61-3.59,3.59,1.62,3.58,3.59,3.58Z"/>
      <path class="cls-2" d="M22.03,7c-1.81,0-3.28,1.47-3.28,3.28s1.47,3.28,3.28,3.28,3.28-1.47,3.28-3.28-1.47-3.28-3.28-3.28h0ZM22.03,14.17c-2.15,0-3.89-1.74-3.89-3.89s1.75-3.89,3.89-3.89,3.89,1.75,3.89,3.89-1.75,3.89-3.89,3.89Z"/>
      <path class="cls-3" d="M29.14,19.56c1.46.18,2.46,1.78,2.24,3.57-.22,1.79-1.58,3.09-3.04,2.91-1.46-.18-2.47-1.77-2.24-3.56.22-1.79,1.58-3.09,3.04-2.91Z"/>
      <path class="cls-2" d="M28.87,19.86c-1.2,0-2.28,1.14-2.47,2.65-.1.8.06,1.57.44,2.18.37.6.92.96,1.53,1.04,1.29.15,2.5-1.03,2.7-2.64.2-1.62-.69-3.06-1.97-3.22h0c-.08,0-.16-.02-.23-.02h0ZM28.61,26.36c-.1,0-.21-.01-.31-.02-.8-.1-1.49-.57-1.97-1.32-.46-.73-.65-1.65-.53-2.58.23-1.96,1.76-3.38,3.38-3.18h0c1.63.2,2.76,1.96,2.51,3.91-.23,1.83-1.57,3.19-3.08,3.19Z"/>
      <path class="cls-3" d="M30.93,8.57c.41-.18.97.15,1.23.75.28.6.18,1.23-.23,1.43-.41.19-.96-.15-1.24-.75-.28-.6-.17-1.23.24-1.43Z"/>
      <path class="cls-2" d="M31.06,8.85c-.22.11-.31.55-.09,1.02.21.47.62.69.83.59.22-.1.3-.55.09-1.02-.22-.48-.62-.69-.82-.6h0ZM31.68,11.11c-.48,0-.99-.37-1.27-.98-.36-.76-.18-1.57.39-1.83h0c.56-.26,1.29.13,1.65.9.35.76.17,1.57-.39,1.83-.12.06-.25.09-.38.09Z"/>
      <path class="cls-3" d="M4.82,21.39c1.08,0,1.96-1.17,1.96-2.61s-.88-2.61-1.96-2.61-1.95,1.17-1.95,2.61.88,2.61,1.95,2.61Z"/>
      <path class="cls-2" d="M4.82,16.49c-.91,0-1.65,1.02-1.65,2.29s.74,2.3,1.65,2.3,1.64-1.03,1.64-2.3-.74-2.29-1.64-2.29h0ZM4.82,21.7c-1.25,0-2.27-1.32-2.27-2.92s1.02-2.91,2.27-2.91,2.26,1.3,2.26,2.91-1.02,2.92-2.26,2.92Z"/>
      <path class="cls-3" d="M13.18,34.21c.74-.74.55-2.13-.43-3.1-.97-.97-2.36-1.17-3.1-.43-.73.74-.54,2.12.44,3.1.97.97,2.36,1.16,3.09.42Z"/>
      <path class="cls-2" d="M10.8,30.53c-.38,0-.71.13-.95.36-.61.62-.42,1.81.45,2.66.85.85,2.04,1.05,2.66.44h0c.29-.29.41-.72.34-1.21-.07-.51-.35-1.03-.77-1.46-.43-.43-.95-.69-1.46-.77-.09-.02-.18-.03-.26-.03h0ZM12.02,34.96c-.73,0-1.52-.33-2.16-.95-1.1-1.1-1.29-2.69-.44-3.54.43-.43,1.04-.62,1.72-.52.65.1,1.3.43,1.82.95.52.51.86,1.17.95,1.82.1.68-.08,1.29-.5,1.72h0c-.37.36-.85.53-1.38.53Z"/>
      <path class="cls-3" d="M15.76,24.57c1.45,0,2.63-1.18,2.63-2.63s-1.18-2.63-2.63-2.63-2.63,1.18-2.63,2.63,1.18,2.63,2.63,2.63Z"/>
      <path class="cls-2" d="M15.76,19.62c-1.28,0-2.32,1.04-2.32,2.32s1.04,2.33,2.32,2.33,2.33-1.04,2.33-2.33-1.04-2.32-2.33-2.32h0ZM15.76,24.88c-1.63,0-2.94-1.32-2.94-2.95s1.31-2.94,2.94-2.94,2.95,1.32,2.95,2.94-1.32,2.95-2.95,2.95Z"/>
      <path class="cls-3" d="M33.13,29.41c-.38-.22-.95.06-1.25.61-.3.56-.23,1.17.16,1.39.38.21.95-.06,1.25-.62.3-.55.23-1.17-.16-1.38Z"/>
      <path class="cls-2" d="M32.85,29.65c-.22,0-.5.18-.7.52-.14.26-.18.54-.12.75.02.08.06.17.16.23.2.11.59-.06.83-.5.24-.42.18-.85-.03-.96-.03-.03-.09-.03-.14-.03h0ZM32.32,31.79c-.15,0-.3-.04-.44-.11-.22-.12-.37-.33-.44-.59-.11-.37-.04-.81.17-1.22.39-.71,1.13-1.03,1.68-.73h0c.54.3.66,1.1.27,1.8-.3.54-.78.85-1.23.85Z"/>
      <path class="cls-3" d="M12.63,5.74c-.6-.48-1.57-.29-2.16.45-.59.73-.59,1.71,0,2.2.6.49,1.56.29,2.16-.44.59-.73.58-1.71,0-2.2Z"/>
      <path class="cls-2" d="M11.85,5.79c-.39,0-.82.21-1.14.59-.24.3-.37.65-.36,1,0,.32.12.59.33.76.22.18.51.24.83.18.34-.07.66-.27.9-.57.24-.3.37-.65.37-1,0-.32-.12-.59-.34-.76h0c-.16-.14-.36-.2-.58-.2h0ZM11.25,8.96c-.36,0-.69-.11-.96-.34-.36-.29-.56-.73-.56-1.24-.01-.49.17-.98.5-1.38.71-.86,1.86-1.08,2.59-.49h0c.36.29.56.73.56,1.24s-.17.98-.51,1.38c-.33.41-.78.69-1.25.79-.12.03-.24.03-.37.03Z"/>
      <path class="cls-3" d="M35.71,13.98c.83-.15,1.63.55,1.82,1.55.18,1.01-.34,1.95-1.16,2.1-.82.15-1.63-.54-1.82-1.55-.19-1.01.33-1.94,1.15-2.1Z"/>
      <path class="cls-2" d="M35.77,14.29c-.65.12-1.06.9-.9,1.74.15.83.8,1.42,1.46,1.29.65-.12,1.05-.89.9-1.73-.16-.84-.82-1.42-1.46-1.3h0ZM36.15,17.95c-.88,0-1.7-.76-1.9-1.82-.21-1.17.41-2.27,1.4-2.45h0c.97-.17,1.96.63,2.18,1.8.21,1.17-.42,2.27-1.41,2.45-.09.02-.18.02-.28.02Z"/>
      <path class="cls-3" d="M25.58,33.76c.28.58-.17,1.38-1.03,1.8-.85.41-1.76.27-2.05-.3-.28-.58.18-1.38,1.03-1.8.85-.41,1.77-.28,2.04.3Z"/>
      <path class="cls-2" d="M24.52,33.52c-.27,0-.57.08-.85.21-.35.17-.64.43-.8.71-.09.14-.21.42-.09.67.12.25.42.33.58.36.32.04.7-.03,1.05-.19.69-.33,1.09-.96.9-1.38-.13-.25-.42-.33-.58-.36-.07-.01-.14-.02-.21-.02h0ZM23.57,36.1c-.1,0-.2,0-.3-.02-.5-.07-.86-.32-1.04-.7-.18-.38-.15-.82.09-1.24.23-.39.61-.74,1.07-.97.47-.23.97-.31,1.42-.24.49.07.86.32,1.04.7.36.74-.15,1.71-1.17,2.2-.36.18-.75.27-1.11.27Z"/>
    </g>
  </g>
</svg>