<?xml version="1.0" encoding="UTF-8"?>
<svg id="Layer_2" data-name="Layer 2" xmlns="http://www.w3.org/2000/svg" viewBox="0 0 60.01 95.56" fill="currentColor">
  <defs>
    <style>
      .cls-1 {
        fill: #fff;
      }

      .cls-1, .cls-2, .cls-3, .cls-4 {
        fill-rule: evenodd;
      }

      .cls-2 {
        fill: #1a87c7;
      }

      .cls-3 {
        fill: #bdedf8;
      }

      .cls-4 {
        fill: #66ceef;
      }
    </style>
  </defs>
  <g id="_Layer_" data-name="&amp;lt;Layer&amp;gt;">
    <g>
      <path class="cls-1" d="M14.45,58.2c2.03-2.59,2.71-2.31,3.08-5.86,5.91,6.83,19.82-3.34,25.36-6.53l1.22,4.1c.54.03,1.23.08,2.11.17,6.19.54,13.18,4.31,13.17,11.58v9.07c-.01,7.63-35.44,32.75-55.39,21.24-2.98-1.72-3.32-2.43-3.32-5.16,0-8.97-1.15-11.82,5.79-19.64,3.43-3.74,4.87-4.96,7.98-8.97Z"/>
      <path class="cls-2" d="M14.93,58.58c-2.23,2.89-3.58,4.31-5.45,6.28-.74.78-1.57,1.65-2.55,2.73-5.84,6.57-5.78,9.49-5.66,15.89.02,1.03.04,2.12.04,3.34,0,2.48.2,3.01,3.01,4.62,13.36,7.7,32.44-2.1,37.97-5.3,10.18-5.88,16.48-12.57,16.48-15.41v-9.07c0-6.8-6.53-10.43-12.61-10.96-.88-.1-1.55-.15-2.08-.17-.26-.01-.49-.19-.56-.45l-1-3.35c-.56.35-1.18.73-1.85,1.15-6.42,3.98-16.94,10.48-22.69,5.77-.3,1.76-.81,2.38-1.79,3.46-.35.38-.76.85-1.26,1.48h0ZM16.13,95.52c-4.71,0-8.94-.99-12.44-3.01-3.05-1.77-3.63-2.68-3.63-5.7,0-1.22-.02-2.3-.04-3.32-.13-6.52-.18-9.79,5.98-16.72,1-1.09,1.82-1.96,2.57-2.75,1.85-1.95,3.19-3.36,5.38-6.21h0c.52-.66.95-1.13,1.32-1.53,1.04-1.15,1.38-1.55,1.64-4,.03-.24.19-.45.43-.52.24-.09.49,0,.65.17,4.8,5.54,15.58-1.13,22.02-5.11.97-.61,1.84-1.14,2.56-1.56.16-.09.36-.1.53-.04.18.07.31.21.36.4l1.09,3.68c.47.04,1.03.08,1.7.16,6.61.57,13.73,4.62,13.73,12.19v9.07c-.01,3.77-7.36,10.85-17.11,16.48-9.51,5.48-18.83,8.31-26.76,8.31Z"/>
      <path class="cls-1" d="M39.57,56.78c4.91-6.11,7.08-11.58,8.49-19.57.39-2.19.68-4.33.77-6.54.05-1.35.05-2.72-.02-4.08-.33-2.92-3.97-1.51-7.88,0-4.6,1.77-9.51,3.67-11.49.05-3.21,5.04-5.81,10.08-6.45,16.13-.07.64-.12,1.29-.15,1.96-.15,4.02.71,5.51-1.79,9.74,3.1,3.83,9.61,6.83,14.55,5.72,1.42-.33,2.25-1.29,3.96-3.41Z"/>
      <path class="cls-2" d="M39.57,56.78h0,0ZM21.81,54.4c2.97,3.39,9.02,6.24,13.66,5.18,1.19-.26,1.9-1.05,3.61-3.19,4.64-5.79,6.9-11.02,8.37-19.31.43-2.47.68-4.52.75-6.44.06-1.34.05-2.69-.02-4.03-.07-.61-.31-.82-.49-.92-1.07-.66-3.99.47-6.55,1.46-4.34,1.67-9.21,3.55-11.69.61-2.73,4.35-5.24,9.2-5.85,15.08-.07.62-.12,1.27-.14,1.93-.04.94-.02,1.74,0,2.48.06,2.33.11,4.03-1.66,7.15h0ZM33.37,61.04c-4.87,0-10.14-2.94-12.78-6.19-.17-.21-.18-.49-.05-.71,1.81-3.04,1.77-4.55,1.71-6.85-.02-.77-.04-1.6,0-2.57.03-.7.07-1.37.15-2.02.68-6.47,3.54-11.7,6.54-16.39.11-.18.32-.3.54-.28.21,0,.41.13.52.32,1.72,3.15,6.29,1.37,10.72-.33,3.25-1.25,6.05-2.33,7.64-1.37.61.38.98,1.01,1.07,1.88.07,1.43.08,2.82.02,4.19-.08,1.98-.32,4.07-.77,6.61-1.51,8.51-3.84,13.89-8.63,19.85h0c-1.75,2.19-2.66,3.25-4.3,3.62-.78.17-1.57.26-2.38.26Z"/>
      <path class="cls-1" d="M59.38,70.73v-9.07c0-4.99-3.27-8.33-7.33-10.1,3.34,4.96,2.23,16.2,2.39,26.49,3.09-2.92,4.95-5.58,4.95-7.32Z"/>
      <path class="cls-2" d="M53.49,52.99c1.75,4.28,1.67,11.02,1.58,18.1-.02,1.82-.04,3.68-.03,5.53,2.38-2.44,3.73-4.54,3.73-5.88h0v-9.07c0-4.54-2.82-7.22-5.28-8.68h0ZM54.44,78.68c-.08,0-.16-.02-.24-.05-.23-.08-.37-.31-.38-.56-.04-2.31,0-4.67.02-7.01.09-7.96.18-15.49-2.3-19.16-.16-.24-.14-.54.04-.74.18-.21.47-.28.72-.18,4.9,2.16,7.71,6.04,7.71,10.68v9.07c0,2.4-2.8,5.57-5.15,7.77-.12.12-.27.17-.42.17Z"/>
      <path class="cls-1" d="M6.5,67.13l-.03.04C-.47,74.99.69,77.84.69,86.82c0,2.73.34,3.44,3.32,5.16,4.67,2.7,10.18,3.37,15.89,2.76-.61-15.03-6.32-26.92-13.4-27.6Z"/>
      <path class="cls-2" d="M6.75,67.8c-5.66,6.43-5.61,9.35-5.49,15.68.02,1.03.04,2.12.04,3.34,0,2.48.2,3.01,3.01,4.62,4.09,2.37,9.12,3.28,14.94,2.75-.7-14.26-6.01-25.45-12.5-26.39h0ZM16.08,95.56c-4.71,0-8.86-1.03-12.39-3.04-3.05-1.77-3.63-2.68-3.63-5.7,0-1.22-.02-2.3-.04-3.32-.13-6.52-.18-9.79,5.98-16.72.13-.16.37-.26.55-.25,7.34.7,13.34,12.81,13.95,28.18.01.33-.23.61-.55.64-1.33.14-2.62.21-3.88.21Z"/>
      <path class="cls-1" d="M6.5,67.13l-.03.04C-.47,74.99.69,77.84.69,86.82c0,2.73.34,3.44,3.32,5.16,4.67,2.7,10.18,3.37,15.89,2.76-.61-15.03-6.32-26.92-13.4-27.6Z"/>
      <path class="cls-2" d="M6.75,67.8c-5.66,6.43-5.61,9.35-5.49,15.68.02,1.03.04,2.12.04,3.34,0,2.48.2,3.01,3.01,4.62,4.09,2.37,9.12,3.28,14.94,2.75-.7-14.26-6.01-25.45-12.5-26.39h0ZM16.08,95.56c-4.71,0-8.86-1.03-12.39-3.04-3.05-1.77-3.63-2.68-3.63-5.7,0-1.22-.02-2.3-.04-3.32-.13-6.52-.18-9.79,5.98-16.72.13-.16.37-.26.55-.25,7.34.7,13.34,12.81,13.95,28.18.01.33-.23.61-.55.64-1.33.14-2.62.21-3.88.21Z"/>
      <path class="cls-2" d="M41.63,85.74h0c-.35,0-.62-.28-.62-.61,0-1.69-.23-2.61-.73-4.62-.24-.97-.54-2.19-.9-3.85-.07-.31.11-.62.42-.71.3-.1.63.05.75.35,2.01,4.87,3.22,6.52,4.05,7.4.24.26.22.64-.03.87-.26.24-.64.22-.88-.02-.47-.51-1.04-1.24-1.78-2.5.22,1.01.32,1.86.32,3.08,0,.33-.28.61-.61.61Z"/>
      <path class="cls-3" d="M59.38,70.73v-9.07c.01-6.5-5.57-10.21-11.17-11.3.82,1.27-.85,8,1.25,14.6,1.36,4.26.79,8.6-.68,12.13-1.37,3.31-3.51,5.88-5.6,7.02-.28.13-.6.26-.88.37-6.83,2.09-17.14-.41-21.13-9.45-3.07-6.98-9.62-10.99-10.45-12.4-1.23,1.34-2.47,2.59-4.25,4.54C-.47,74.99.69,77.84.69,86.82c0,2.73.34,3.44,3.32,5.16,19.94,11.51,55.38-13.61,55.38-21.24Z"/>
      <path class="cls-2" d="M10.7,63.57c-.39.42-.79.84-1.21,1.29-.75.78-1.57,1.65-2.56,2.73-5.84,6.57-5.78,9.49-5.66,15.89.02,1.03.04,2.12.04,3.34,0,2.48.2,3.01,3.01,4.62,13.36,7.7,32.44-2.1,37.97-5.3,10.18-5.88,16.48-12.57,16.48-15.41h0v-9.07c0-5.96-4.86-9.27-9.73-10.48.06.68.03,1.55-.02,2.68-.09,2.76-.25,6.92,1.03,10.92,1.26,3.98,1.01,8.43-.71,12.57-1.38,3.32-3.57,6.07-5.86,7.32-.34.15-.67.29-.97.4-7.47,2.3-17.95-.82-21.9-9.79-2.14-4.85-6.06-8.27-8.4-10.32-.64-.56-1.15-1.01-1.51-1.38h0ZM16.13,95.52c-4.71,0-8.94-.99-12.44-3.01-3.05-1.77-3.63-2.68-3.63-5.7,0-1.22-.02-2.3-.04-3.32-.13-6.52-.18-9.79,5.98-16.72,1-1.09,1.83-1.99,2.58-2.77.59-.62,1.14-1.2,1.68-1.79.14-.14.32-.2.52-.19.19.02.37.14.47.29.18.32.92.96,1.76,1.71,2.42,2.1,6.47,5.65,8.72,10.76,3.68,8.34,13.44,11.23,20.38,9.11.24-.09.55-.22.81-.33,1.98-1.09,4.01-3.67,5.27-6.7,1.6-3.86,1.84-8.03.67-11.72-1.34-4.22-1.18-8.5-1.07-11.33.05-1.32.1-2.8-.11-3.11-.13-.21-.13-.48.01-.68.14-.21.38-.31.62-.26,5.39,1.04,11.68,4.8,11.68,11.89v9.07c-.01,3.77-7.36,10.85-17.11,16.48-9.51,5.48-18.83,8.31-26.76,8.31Z"/>
      <path class="cls-2" d="M38.94,73.71c-.05,0-.1-.02-.15-.02-4.88-1.2-9.05-3.13-12.73-5.87-3.2-2.4-5.89-5.75-7.88-8.41-.2-.28-.15-.66.13-.87.27-.19.66-.14.86.12,1.94,2.61,4.56,5.88,7.63,8.17,3.44,2.57,7.33,4.4,11.87,5.56,2.18-3.2,3.74-6.73,4.62-10.5.89-3.77,1.13-7.77.7-11.87-.04-.35.21-.65.55-.68.34-.03.64.21.68.54.43,4.26.19,8.4-.73,12.29-.96,4.07-2.65,7.85-5.05,11.28-.12.15-.31.26-.5.26Z"/>
      <path class="cls-2" d="M39.18,74.78c-.28,0-.52-.19-.6-.47l-.35-1.37c-.08-.34.12-.66.44-.75.33-.09.67.1.75.43l.36,1.37c.08.33-.12.68-.45.76-.05,0-.1.02-.15.02Z"/>
      <path class="cls-3" d="M39.46,75.41c.74-.16,1.15-1.12.92-2.14-.23-1.01-1.01-1.69-1.74-1.53-.74.18-1.15,1.12-.93,2.14.23,1.01,1.01,1.68,1.74,1.53Z"/>
      <path class="cls-2" d="M38.86,72.33s-.06,0-.08.02c-.35.07-.62.66-.46,1.39.17.73.67,1.15,1.01,1.06h0c.34-.07.61-.66.45-1.39-.15-.66-.58-1.08-.92-1.08h0ZM39.24,76.05c-.95,0-1.84-.83-2.12-2.03-.3-1.37.31-2.64,1.39-2.89,1.07-.23,2.17.64,2.48,2.02.3,1.36-.3,2.63-1.39,2.87-.12.02-.24.03-.36.03Z"/>
      <path class="cls-3" d="M39.35,74.91c.53-.12.83-.82.67-1.55-.17-.73-.73-1.24-1.27-1.11-.53.12-.83.82-.67,1.55.17.73.73,1.24,1.27,1.11Z"/>
      <path class="cls-2" d="M38.92,72.84h-.03c-.13.03-.31.36-.2.82.1.45.38.69.53.66.13-.03.31-.36.2-.81-.1-.44-.37-.66-.5-.66h0ZM39.35,74.91h.02-.02ZM39.18,75.55c-.77,0-1.48-.66-1.7-1.61-.25-1.09.25-2.09,1.13-2.3.89-.19,1.76.5,2,1.58.25,1.1-.25,2.09-1.13,2.3h0c-.1.02-.2.03-.3.03Z"/>
      <path class="cls-4" d="M9.21,64.25c-2.91-8.97-.17-11.37-.92-17.77-1.08-9.3-5.38-16.15-2.67-25.68C8.38,11.13,16.45,2.44,21.63,5.43c.88-1.43,1.79-2.35,3.05-3.39,7.56-4.99,19.77,4.34,23.65,10.93,3.19,5.39,5.62,18.32.45,33.29-.2.59-1.27,3.43-1.53,3.95-1.02-.14-2.1-.24-3.13-.29,1.98-4,3.18-8.33,3.96-12.71.63-3.56.93-7.01.74-10.62-.33-2.92-3.97-1.51-7.88,0-4.6,1.77-9.51,3.67-11.49.05-3.64,5.72-6.32,11.19-6.59,18.09-.06,1.62.11,3.18.02,4.78-.51,9.39-7.47,12.29-13.67,14.74Z"/>
      <path class="cls-2" d="M19.37,5.44c-.66,0-1.36.14-2.11.45-4.34,1.76-9.09,8.24-11.05,15.07-1.76,6.21-.47,11.3.9,16.7.7,2.77,1.42,5.62,1.79,8.74.29,2.5.06,4.43-.16,6.29-.35,2.94-.68,5.7.85,10.73,5.83-2.31,12.18-5.13,12.66-13.96.05-.8.02-1.6,0-2.44-.03-.78-.05-1.55-.02-2.33.29-7.4,3.38-13.23,6.69-18.41.11-.18.32-.3.54-.28.21,0,.41.13.52.32,1.72,3.15,6.29,1.37,10.72-.33,3.25-1.25,6.05-2.33,7.64-1.37.61.38.98,1.01,1.07,1.88.18,3.48-.06,6.89-.75,10.8-.82,4.61-2,8.57-3.61,12.05.62.05,1.23.11,1.8.17.38-.92,1.14-2.94,1.33-3.46,5.54-16.03,2.16-28.46-.4-32.8-2.67-4.52-9.34-10.29-15.47-11.7-2.86-.66-5.32-.33-7.31.97-1.15.97-2.01,1.82-2.86,3.2-.18.3-.55.38-.83.21-.6-.35-1.25-.5-1.95-.5h0ZM9.21,64.88c-.09,0-.18-.02-.26-.07-.16-.07-.27-.19-.32-.37-1.84-5.69-1.47-8.83-1.11-11.87.23-1.88.44-3.65.16-6.01-.36-3.04-1.07-5.86-1.76-8.57-1.41-5.58-2.75-10.83-.89-17.35,2.08-7.28,7.03-13.97,11.77-15.89,1.67-.68,3.25-.71,4.61-.12.84-1.25,1.74-2.12,2.87-3.08C26.61.02,29.39-.38,32.6.37c6.53,1.51,13.39,7.42,16.25,12.29,3.7,6.26,5.44,19.52.5,33.81-.18.5-1.27,3.42-1.56,4.01-.12.22-.38.38-.64.33-.92-.14-1.98-.22-3.06-.28-.21-.01-.4-.14-.5-.31-.11-.18-.11-.4-.02-.58,1.77-3.58,3.04-7.7,3.9-12.57.67-3.81.91-7.13.73-10.47-.07-.61-.31-.82-.49-.92-1.07-.66-3.99.47-6.55,1.46-4.34,1.67-9.21,3.55-11.69.61-3.43,5.51-5.74,10.59-6,17-.03.75-.01,1.49.02,2.24.03.82.05,1.69,0,2.54-.55,9.93-8.04,12.9-14.06,15.28-.07.04-.15.05-.23.05Z"/>
    </g>
  </g>
</svg>