<?xml version="1.0" encoding="UTF-8"?>
<svg id="Layer_2" data-name="Layer 2" xmlns="http://www.w3.org/2000/svg" viewBox="0 0 34.47 48.39" fill="currentColor">
  <defs>
    <style>
      .cls-1 {
        fill: #fff;
      }

      .cls-1, .cls-2, .cls-3, .cls-4 {
        fill-rule: evenodd;
      }

      .cls-2 {
        fill: #1a87c7;
      }

      .cls-3 {
        fill: #bdedf8;
      }

      .cls-4 {
        fill: #66ceef;
      }
    </style>
  </defs>
  <g id="_Layer_" data-name="&amp;lt;Layer&amp;gt;">
    <g>
      <path class="cls-3" d="M34.16,33.57v-4.82c0-3.86-4.74-5.26-8.03-5.54-.28.57-.56,1.14-.86,1.68l-.09.17c.86,2.04-2.17,5.04-5.29,6.21-2.3.86-4.77.52-7.01-.35-2.38-.92-3.83-2.23-3.6-3.41-1.65,2.13-3.93,3.73-5.75,5.72-1.43,1.6-2.54,3.04-3.06,5.16l-.08.44-.04.45-.02.45c0,1.31-.01,2.61-.01,3.92,0,1.45.18,1.83,1.77,2.74,12.18,7.03,32.09-9.98,32.09-12.83Z"/>
      <path class="cls-2" d="M9.02,28.31c-.88,1.01-1.88,1.91-2.84,2.79-.84.75-1.69,1.52-2.44,2.35-1.27,1.43-2.46,2.9-2.99,5.03l-.11.84-.02.43v3.9c0,1.33.1,1.61,1.61,2.48,6.79,3.92,15.7-.05,20.4-2.77,6.6-3.81,11.23-8.63,11.23-9.79h0v-4.82c0-4.14-5.88-5.04-7.55-5.21-.25.51-.5,1.01-.77,1.5l-.03.05c.21.59.15,1.26-.17,1.98-.76,1.75-2.96,3.6-5.36,4.5-2.15.8-4.57.68-7.23-.35-2.08-.8-3.4-1.85-3.73-2.91h0ZM8.74,48.39c-2.35,0-4.69-.49-6.83-1.72-1.63-.94-1.91-1.39-1.91-3.01l.02-4.38.13-.93c.57-2.29,1.81-3.82,3.13-5.31.78-.85,1.65-1.63,2.49-2.39,1.14-1.03,2.32-2.1,3.26-3.31.09-.11.24-.15.37-.09.13.06.21.2.18.34-.19.99,1.15,2.19,3.41,3.06,2.51.97,4.8,1.09,6.79.35,2.23-.83,4.33-2.58,5.02-4.16.27-.62.3-1.17.11-1.64-.03-.08-.03-.18.01-.26l.09-.17c.3-.54.57-1.11.85-1.67.05-.12.18-.18.31-.17,4.02.35,8.32,2.06,8.32,5.84v4.82c0,1.66-5.15,6.64-11.53,10.33-3.36,1.94-8.81,4.49-14.19,4.49Z"/>
      <path class="cls-4" d="M34.16,33.57v-4.82c0-3.49-3.88-4.96-7.05-5.42.3.36.5.85.61,1.36.18.77.16,1.62.02,2.24-.12.54-.33,1.08-.62,1.6-.29.54-.67,1.06-1.1,1.55-.6.69-1.35,1.36-2.17,1.94-1.55,1.09-3.29,1.9-5.18,2.18-.74.11-1.48.14-2.22.11-.75-.04-1.5-.14-2.22-.31-.78-.17-1.55-.41-2.28-.7-.76-.29-1.44-.62-2.05-.98-.62-.36-1.15-.76-1.59-1.17-.46-.44-.84-.91-1.11-1.4-1.23,1.17-2.55,2.26-3.69,3.5-1.43,1.6-2.54,3.04-3.06,5.16l-.08.44-.04.45-.02.45c0,1.31-.01,2.61-.01,3.92,0,1.45.18,1.83,1.77,2.74,12.18,7.03,32.09-9.98,32.09-12.83Z"/>
      <path class="cls-2" d="M7.14,30.22c-.31.3-.64.59-.96.88-.84.75-1.69,1.52-2.44,2.35-1.27,1.43-2.46,2.9-2.99,5.03l-.11.84-.02.43v3.9c0,1.33.1,1.61,1.61,2.48,6.79,3.92,15.7-.05,20.4-2.77,6.6-3.81,11.23-8.63,11.23-9.79h0v-4.82c0-3.37-3.87-4.58-6.13-5.01.12.26.23.55.3.88.17.76.17,1.67.02,2.37-.13.56-.35,1.12-.65,1.68-.31.55-.69,1.09-1.14,1.61-.61.7-1.38,1.39-2.22,1.99-1.71,1.21-3.5,1.96-5.32,2.24-.73.11-1.49.15-2.28.11-.74-.04-1.5-.14-2.27-.32-.76-.17-1.55-.41-2.32-.71-.76-.3-1.47-.63-2.09-1-.63-.37-1.19-.78-1.64-1.22-.38-.36-.7-.74-.96-1.14h0ZM8.74,48.39c-2.35,0-4.69-.49-6.83-1.72-1.63-.94-1.91-1.39-1.91-3.01l.02-4.38.13-.93c.57-2.29,1.81-3.82,3.13-5.31.78-.85,1.65-1.63,2.49-2.39.42-.37.83-.75,1.23-1.13.07-.06.16-.09.26-.08.09.01.17.07.22.16.25.46.61.91,1.05,1.33.42.4.94.78,1.53,1.13.6.35,1.27.68,2,.96.75.29,1.5.52,2.23.68.74.17,1.46.27,2.17.3.74.04,1.46,0,2.16-.11,1.72-.26,3.42-.97,5.05-2.13.8-.57,1.54-1.23,2.12-1.89.43-.49.78-.99,1.06-1.5.28-.51.48-1.02.59-1.52.14-.62.13-1.42-.02-2.1-.11-.5-.31-.93-.56-1.23-.08-.1-.09-.24-.02-.35.06-.11.18-.17.31-.15,2.2.32,7.32,1.52,7.32,5.73v4.82c0,1.66-5.15,6.64-11.53,10.33-3.36,1.94-8.81,4.49-14.19,4.49Z"/>
      <path class="cls-1" d="M9.26,27.52c.25-.32.98-1.07,1.17-1.41.39-.66.38-.92.46-1.7,3.36,3.88,11.25,6.16,14.27.65h0c.86,2.05-2.17,5.04-5.29,6.21-2.3.86-4.77.52-7.01-.35-2.38-.92-3.83-2.23-3.6-3.41Z"/>
      <path class="cls-2" d="M9.55,27.65c-.11.97,1.22,2.14,3.42,2.99,2.51.97,4.8,1.09,6.79.35,2.23-.83,4.33-2.58,5.02-4.16.14-.32.22-.63.23-.92-1.1,1.56-2.73,2.49-4.74,2.7-3.06.32-6.8-1.12-9.14-3.49-.05.38-.15.68-.43,1.16-.15.24-.48.61-.8.97-.13.16-.26.3-.36.41h0ZM17.02,32.08c-1.35,0-2.77-.29-4.27-.87-2.63-1.02-4.04-2.42-3.79-3.75.01-.05.04-.09.06-.13.1-.12.25-.3.43-.5.27-.3.61-.68.72-.87.31-.54.33-.75.39-1.34l.03-.24c0-.12.1-.23.21-.26.12-.04.25,0,.33.09,2.17,2.52,5.98,4.11,9.08,3.78,2.08-.22,3.7-1.28,4.68-3.08.06-.1.18-.15.29-.16.12,0,.22.08.27.19.26.63.23,1.34-.11,2.12-.76,1.75-2.96,3.6-5.36,4.5-.94.35-1.93.52-2.96.52Z"/>
      <path class="cls-1" d="M23.31,27.7c1.27-1.22,2.3-3.44,3.29-5.47,1.36-2.77,1.29-5.93,1.3-8.47l-.47-1.51c-.17-.63-.18-1.29-.19-1.92,0-.83-.03-1.59-.45-1.98-.69-.62-1.77.33-3.03,1.45-.86.76-1.8,1.59-2.82,2.18-1.02.59-1.95.84-2.82,1.07h0c-.83.23-1.58.43-2.19.94-.96.8-.91,1.45-.9,2.6.02,1.08.07,2.15-.59,4.45-.08-.58-.22-1.17-.44-1.72-.17-.4-.38-.79-.68-1.11-.32-.35-.75-.61-1.23-.64-.04,0-.07,0-.11,0s-.07,0-.1,0c-1.64,0-2.06,2.18-1.77,3.45.18.77.61,1.66.97,2.32.11.21-.04.79-.14,1.11,2.42,2.75,5.94,4.63,8.75,4.62,1.24,0,2.71-.51,3.63-1.39Z"/>
      <path class="cls-2" d="M11.28,24.38c2.38,2.64,5.74,4.39,8.4,4.39h0c1.23,0,2.61-.52,3.42-1.3h0c1.14-1.1,2.1-3.07,3.02-4.98l.2-.41c1.24-2.54,1.26-5.5,1.27-7.88v-.41l-.45-1.47c-.18-.67-.19-1.35-.2-2-.02-.75-.03-1.46-.36-1.76-.48-.43-1.51.48-2.62,1.45-.85.75-1.82,1.61-2.87,2.22-1.06.61-2.03.87-2.89,1.11-.82.22-1.52.41-2.09.88-.81.68-.8,1.21-.78,2.25v.28c.02,1.05.04,2.15-.6,4.37-.04.14-.17.24-.31.22-.15-.01-.27-.12-.29-.27-.09-.63-.23-1.17-.42-1.64-.17-.41-.38-.75-.62-1.01-.21-.23-.57-.51-1.03-.55l-.09-.31v.31h-.09c-.43,0-.76.17-1.03.5-.53.66-.63,1.82-.46,2.58.13.58.44,1.34.93,2.25.12.23.11.62-.06,1.18h0ZM19.68,29.39c-2.87,0-6.48-1.9-8.97-4.73-.07-.08-.09-.19-.06-.3.15-.47.18-.8.15-.88-.5-.95-.83-1.76-.98-2.39-.21-.92-.08-2.28.58-3.1.38-.47.89-.73,1.49-.73h.1s.12,0,.13,0c.52.04,1.02.29,1.43.74.3.31.54.72.74,1.2.07.16.12.32.18.5.29-1.34.27-2.15.26-2.94v-.27c-.03-1.08-.03-1.86,1-2.73.66-.56,1.46-.78,2.31-1,.87-.24,1.77-.48,2.75-1.05,1-.58,1.94-1.41,2.77-2.14,1.37-1.21,2.55-2.26,3.44-1.44.52.48.54,1.32.56,2.2,0,.62.03,1.26.18,1.85l.45,1.5s.02.06.02.09v.45c-.02,2.44-.03,5.48-1.33,8.15l-.2.4c-.95,1.95-1.93,3.97-3.15,5.15-.93.89-2.43,1.47-3.84,1.47h0Z"/>
      <path class="cls-3" d="M7.85,6.88c-2.23,4.1-.82,15.32,3.03,17.75.08-.2.33-1.02.19-1.28-.36-.66-.78-1.56-.97-2.32-.83-3.7,3.56-5.43,4.34.02.66-2.3.61-3.37.59-4.45-.02-1.14-.06-1.8.9-2.6.61-.51,1.36-.72,2.19-.94h0c.86-.23,1.8-.49,2.82-1.07,1.02-.59,1.96-1.42,2.82-2.18,1.27-1.12,2.35-2.07,3.03-1.45.42.39.44,1.16.45,1.98.02.63.03,1.3.19,1.92l.47,1.51c.12-1.99.08-4.31-.19-6.2-.54-3.66-2.17-3.8-6.69-6.19-.72-.38-1.65-1.01-3.05-1.06-3.41-.11-8.45,3.86-10.13,6.56Z"/>
      <path class="cls-2" d="M8.12,7.03c-2.1,3.86-.86,14.34,2.6,17.1.07-.28.11-.56.08-.65-.5-.95-.83-1.76-.98-2.39-.3-1.32.02-2.59.84-3.3.57-.5,1.32-.65,2-.4.51.19,1.33.73,1.83,2.31.29-1.34.27-2.15.26-2.94v-.27c-.03-1.08-.03-1.86,1-2.73.66-.56,1.46-.78,2.31-1,.87-.24,1.77-.48,2.75-1.05,1-.58,1.94-1.41,2.77-2.14,1.37-1.21,2.55-2.26,3.44-1.44.52.48.54,1.32.56,2.2,0,.5.02,1.02.11,1.51.02-1.51-.08-2.99-.25-4.23-.42-2.89-1.54-3.45-4.5-4.92-.6-.3-1.28-.64-2.03-1.04l-.31-.17c-.65-.36-1.47-.81-2.6-.85-3.33-.11-8.24,3.82-9.85,6.41h0ZM10.88,24.94c-.06,0-.12-.02-.17-.05-4-2.52-5.46-13.91-3.14-18.16,0,0,0-.01,0-.01C9.28,3.97,14.3,0,17.84,0c.05,0,.09,0,.15,0,1.28.04,2.21.55,2.88.93l.3.16c.75.4,1.42.73,2.02,1.03,2.99,1.49,4.36,2.18,4.83,5.39.26,1.81.33,4.09.19,6.26-.01.15-.12.27-.27.29-.15.02-.29-.07-.33-.22l-.47-1.51c-.18-.67-.19-1.35-.2-2-.02-.75-.03-1.46-.36-1.76-.48-.43-1.51.48-2.62,1.45-.85.75-1.82,1.61-2.87,2.22-1.06.61-2.03.87-2.89,1.11-.82.22-1.52.41-2.09.88-.81.68-.8,1.21-.78,2.25v.28c.02,1.05.04,2.15-.6,4.37-.04.14-.17.24-.31.22-.15-.01-.27-.12-.29-.27-.24-1.67-.86-2.8-1.71-3.12-.46-.17-.96-.07-1.37.29-.51.44-.94,1.39-.65,2.7.13.58.44,1.34.93,2.25.24.45-.15,1.5-.17,1.54-.03.08-.11.15-.19.18-.03.01-.07.02-.09.02Z"/>
      <path class="cls-3" d="M19.18,26.29c.87-.5,3.29-1.65,4.01-2.92.72.44,3.14-1.2,4.01-1.7-.53-1.31-3.3-.9-4.01.33-.7-.42-3.47,2.36-4.01,4.29Z"/>
      <path class="cls-2" d="M23.02,22.26s-.15,0-.38.14c-.89.49-2.21,1.93-2.85,3.21,1.06-.58,2.61-1.46,3.13-2.39.04-.07.12-.13.19-.15.09-.02.17,0,.24.03.45.27,2.51-.98,3.18-1.4.09-.05.18-.1.24-.15-.26-.29-.7-.37-.98-.39-.93-.07-1.99.38-2.33.98-.04.07-.11.13-.19.15-.08.02-.16,0-.23-.03h-.01ZM19.18,26.59c-.06,0-.13-.02-.18-.06-.11-.08-.15-.21-.11-.33.46-1.67,2.55-4,3.71-4.47.17-.07.32-.09.45-.09.6-.79,1.84-1.15,2.78-1.09.81.05,1.42.42,1.65,1,.05.14,0,.3-.13.38-.14.08-.3.18-.5.3-1.41.86-2.76,1.62-3.53,1.5-.75,1.06-2.44,1.98-3.48,2.54-.2.11-.37.2-.51.28-.05.03-.1.04-.15.04Z"/>
      <path class="cls-3" d="M14.37,20.55c-1.99,7.99,4.28,9.56,7.18,9.26,1.23-.13,2.23-.71,3.25-2.34,1.4-2.23,2.82-5.98,2.83-8.59-.37,3.16-3.05,7.47-4.04,6.38-.33.87-5.99,4.08-9.22-4.71Z"/>
      <path class="cls-2" d="M14.45,21.61c-.43,2.44-.03,4.39,1.18,5.78,1.7,1.97,4.5,2.26,5.88,2.11,1.25-.13,2.12-.77,3.02-2.2.68-1.07,1.38-2.53,1.89-4.04-.69,1.25-1.49,2.22-2.16,2.43-.22.07-.42.07-.6,0-.51.55-1.75,1.17-3.15,1.17h-.03c-1.77-.01-4.2-.96-6.04-5.25h0ZM20.89,30.15c-1.62,0-4.1-.49-5.72-2.36-1.5-1.74-1.88-4.2-1.1-7.32.03-.13.15-.23.29-.23.16,0,.25.07.3.2,1.76,4.78,4.15,5.79,5.84,5.8h.03c1.6,0,2.69-.87,2.78-1.09.04-.1.12-.17.23-.19.1-.02.21.02.28.09.05.05.11.1.26.05,1.06-.34,2.95-3.7,3.24-6.26.03-.16.16-.28.33-.27.16,0,.29.14.29.31,0,2.71-1.49,6.53-2.88,8.75-1,1.59-2.04,2.34-3.48,2.49-.21.02-.45.03-.7.03Z"/>
      <path class="cls-4" d="M22.75,15.34c1.68-.97,3.12-1.8,4.92-2.84l.37-.22c.36-.2.5-.27.55.25v2.54c0,.33-.11.69-.3,1.02h0c-.18.32-.44.61-.73.77l-3.26,1.88c-.42.25-.81.27-1.09.11-.28-.16-.45-.51-.45-1v-2.51h0ZM22.15,15.69v2.51c0,.49-.17,1.04-.45,1.52-.28.49-.67.91-1.09,1.16l-3.26,1.88c-.29.17-.54.18-.73.07h0c-.19-.11-.3-.34-.3-.67v-2.54c0-.5.11-.63.48-.85l.46-.27c1.74-1.01,3.29-1.9,4.9-2.83h0Z"/>
      <path class="cls-2" d="M23.05,15.52v2.33c0,.36.11.62.3.73s.48.07.78-.11l3.26-1.88c.23-.13.44-.36.61-.64,0,0,0-.01.02-.02.17-.29.26-.6.26-.86v-2.49s0-.06,0-.08c-.03.02-.06.03-.08.05l-5.15,2.97h0ZM16.77,22.56s0,0,0,0c.09.06.25.03.42-.07l3.26-1.89c.36-.21.72-.59.98-1.04.26-.45.42-.95.42-1.37v-1.98l-4.9,2.83c-.28.16-.33.2-.33.58v2.54c0,.19.05.34.15.4h0ZM16.89,23.2c-.15,0-.29-.03-.41-.1,0,0,0,0-.02-.01-.29-.17-.45-.51-.45-.93v-2.49c0-.69.19-.91.63-1.16l5.36-3.1c.09-.05.22-.05.31,0,.05.03.11.09.13.14v-.22c0-.11.05-.21.15-.27l5.29-3.06c.24-.14.47-.27.7-.14.23.11.28.37.3.63,0,.01,0,.07,0,.08v2.49c0,.36-.12.77-.34,1.15,0,0,0,.02,0,.02-.23.39-.52.7-.84.88l-3.26,1.88c-.51.3-1.01.33-1.41.11-.32-.18-.51-.51-.57-.93h0c0,.53-.18,1.13-.51,1.68-.31.55-.75,1-1.2,1.27l-3.26,1.88c-.21.12-.42.18-.62.18Z"/>
      <path class="cls-2" d="M16.12,19.32s-.08,0-.12-.03l-4.2-1.9c-.16-.08-.34-.09-.44-.04-.03.02-.09.05-.1.16l-.07.29c-.04.17-.2.27-.37.23-.17-.04-.27-.2-.23-.37l.07-.29c.05-.26.21-.46.44-.57.27-.14.63-.13.96.03l4.2,1.9c.16.07.22.25.16.41-.05.11-.17.18-.29.18Z"/>
      <path class="cls-2" d="M22.15,15.99c-.1,0-.21-.06-.27-.15-.08-.15-.04-.34.11-.42l.59-.34c.15-.09.34-.04.43.11.08.15.03.34-.11.42l-.59.34c-.05.03-.1.04-.16.04Z"/>
    </g>
  </g>
</svg>