<?xml version="1.0" encoding="UTF-8"?>
<svg id="Layer_2" data-name="Layer 2" xmlns="http://www.w3.org/2000/svg" viewBox="0 0 21.41 39.49" fill="currentColor">
  <defs>
    <style>
      .cls-1 {
        fill: #fff;
      }

      .cls-1, .cls-2, .cls-3, .cls-4 {
        fill-rule: evenodd;
      }

      .cls-2 {
        fill: #1a87c7;
      }

      .cls-3 {
        fill: #bdedf8;
      }

      .cls-4 {
        fill: #66ceef;
      }
    </style>
  </defs>
  <g id="_Layer_" data-name="&amp;lt;Layer&amp;gt;">
    <g>
      <path class="cls-1" d="M6.05,7.37h9.28v6.5s4.41,4.77,4.41,4.77c.86.93,1.3,1.94,1.32,2.95h.02v11.27c0,8.61-20.77,8.09-20.77.37v-11.64h0c.01-.99.44-1.99,1.29-2.91l4.46-4.82-.02-6.49Z"/>
      <path class="cls-2" d="M.62,21.66v11.57c0,2.13,1.69,3.43,3.1,4.16,1.85.94,4.42,1.49,7.05,1.49,4.82,0,10-1.89,10-6.01v-11.17s-.02-.07-.02-.1c-.01-.93-.44-1.88-1.24-2.74l-4.42-4.77c-.05-.06-.08-.13-.08-.21v-6.2s-8.65,0-8.65,0l.02,6.19c0,.08-.03.16-.08.21l-4.46,4.82c-.78.84-1.2,1.78-1.21,2.7,0,.03,0,.04,0,.07h0ZM10.77,39.49c-2.76,0-5.36-.56-7.32-1.55-2.25-1.15-3.44-2.77-3.44-4.7v-11.64s0-.05.01-.08c.03-1.06.51-2.1,1.37-3.04l4.38-4.73-.02-6.37c0-.08.03-.17.09-.22.06-.06.14-.09.22-.09h9.28c.08,0,.16.03.22.09.06.05.09.13.09.22v6.38s4.33,4.68,4.33,4.68c.87.94,1.35,1.99,1.4,3.03.02.03.02.08.02.12v11.27c0,4.57-5.33,6.62-10.62,6.62Z"/>
      <path class="cls-3" d="M3.36,26.98c4.06-2.47,10.64-2.47,14.7,0,4.06,2.46,4.06,6.46,0,8.93-4.06,2.47-10.64,2.47-14.7,0-4.06-2.47-4.06-6.47,0-8.93Z"/>
      <path class="cls-2" d="M3.36,26.98h0,0ZM10.71,25.43c-2.6,0-5.21.61-7.19,1.81h0c-1.87,1.14-2.89,2.63-2.89,4.21s1.03,3.06,2.89,4.2c3.97,2.41,10.42,2.41,14.38,0,1.87-1.14,2.9-2.63,2.9-4.2s-1.03-3.07-2.9-4.21c-1.98-1.2-4.58-1.81-7.19-1.81h0ZM10.71,38.05c-2.72,0-5.44-.63-7.51-1.89-2.06-1.25-3.19-2.93-3.19-4.72s1.14-3.48,3.2-4.73c4.14-2.52,10.88-2.52,15.02,0,2.06,1.25,3.19,2.93,3.19,4.73s-1.13,3.47-3.19,4.72c-2.07,1.26-4.79,1.89-7.51,1.89Z"/>
      <path class="cls-3" d="M19.82,22.37v9.07H1.56v-9.2c-.15-1.45.74-2.94,2.67-4.06,3.57-2.07,9.37-2.07,12.94,0,1.99,1.15,2.87,2.69,2.65,4.19Z"/>
      <path class="cls-2" d="M1.87,31.14h17.64v-8.76s0-.03,0-.05c.21-1.43-.7-2.83-2.5-3.87-3.48-2.02-9.15-2.02-12.63,0-1.74,1-2.66,2.37-2.51,3.77v8.92h0ZM19.82,31.75H1.56c-.08,0-.16-.04-.22-.1-.06-.05-.09-.13-.09-.22v-9.2c-.17-1.6.86-3.19,2.82-4.33,3.65-2.11,9.6-2.1,13.25,0,2.02,1.17,3.04,2.8,2.8,4.48v9.05c0,.17-.14.31-.31.31Z"/>
      <path class="cls-2" d="M7.02,14.53c-.17,0-.31-.14-.31-.32v-6.84c0-.17.14-.31.31-.31s.31.14.31.31v6.84c0,.18-.14.32-.31.32Z"/>
      <path class="cls-2" d="M14.39,14.53c-.17,0-.31-.14-.31-.32v-6.84c0-.17.14-.31.31-.31s.31.14.31.31v6.84c0,.18-.14.32-.31.32Z"/>
      <path class="cls-2" d="M2.59,19.79c-.07,0-.14-.03-.2-.07-.13-.11-.14-.31-.03-.43l4.53-5.18c.11-.13.31-.14.44-.03.13.11.14.31.03.44l-4.53,5.17c-.06.07-.15.11-.23.11Z"/>
      <path class="cls-4" d="M4.23,27.71c3.57-2.07,9.37-2.07,12.94,0,3.57,2.06,3.58,5.41,0,7.47-3.57,2.07-9.37,2.07-12.94,0-3.58-2.06-3.57-5.41,0-7.47Z"/>
      <path class="cls-2" d="M4.23,27.71l.15.26c-1.63.95-2.53,2.17-2.53,3.48s.9,2.52,2.53,3.47c3.49,2.01,9.16,2.01,12.64,0,1.63-.95,2.52-2.17,2.52-3.47s-.9-2.54-2.53-3.48c-3.48-2.01-9.15-2.01-12.63,0l-.15-.26h0ZM10.71,37.03c-2.4,0-4.8-.53-6.63-1.58-1.83-1.05-2.84-2.48-2.83-4,0-1.53,1.01-2.96,2.83-4.01,3.65-2.11,9.6-2.11,13.25,0,1.83,1.05,2.84,2.48,2.84,4.01s-1.01,2.94-2.83,4c-1.83,1.05-4.23,1.58-6.63,1.58Z"/>
      <path class="cls-2" d="M4.23,18.19l.15.27c-1.63.94-2.53,2.18-2.53,3.47s.9,2.53,2.53,3.47c3.49,2.01,9.16,2.01,12.64,0,1.63-.94,2.52-2.17,2.52-3.47s-.9-2.53-2.53-3.47c-3.48-2.02-9.15-2.02-12.63,0l-.15-.27h0ZM10.71,27.5c-2.4,0-4.8-.52-6.63-1.58-1.83-1.05-2.84-2.48-2.83-4,0-1.53,1.01-2.95,2.83-4.01,3.65-2.11,9.6-2.1,13.25,0,1.83,1.06,2.84,2.48,2.84,4.01s-1.01,2.95-2.83,4c-1.83,1.06-4.23,1.58-6.63,1.58Z"/>
      <path class="cls-2" d="M18.82,19.79c-.09,0-.17-.03-.23-.11l-4.52-5.15c-.11-.13-.1-.32.03-.43.13-.11.32-.1.44.03l4.52,5.16c.11.12.1.32-.03.43-.06.04-.13.07-.2.07Z"/>
      <path class="cls-1" d="M8.1,15.54c1.44.74,3.77.74,5.21,0,1.44-.73,1.44-1.92,0-2.66-1.44-.74-3.77-.74-5.21,0-1.44.74-1.44,1.93,0,2.66Z"/>
      <path class="cls-2" d="M10.71,12.64c-.89,0-1.79.17-2.47.52-.58.29-.91.68-.91,1.05s.33.77.91,1.06c1.36.69,3.57.69,4.93,0,.58-.3.91-.69.91-1.06s-.33-.76-.91-1.05c-.68-.35-1.57-.52-2.46-.52h0ZM10.71,16.41c-.99,0-1.98-.2-2.75-.59-.8-.41-1.25-.98-1.25-1.61s.44-1.19,1.24-1.61c1.54-.78,3.95-.78,5.49,0,.8.42,1.25.98,1.25,1.61s-.44,1.2-1.25,1.61c-.77.39-1.76.59-2.74.59Z"/>
      <path class="cls-1" d="M4.68,27.03c3.48,1.25,9.83,1.5,13.39-.56,1.85-1.08,2.86-2.45,3.01-3.85v6.88c.03.25.03.5,0,.75h0c-.15,1.41-1.16,2.78-3.01,3.85-3.56,2.05-9.92,1.81-13.39.56v-7.62Z"/>
      <path class="cls-2" d="M4.99,34.44c3.65,1.23,9.63,1.29,12.93-.61,1.69-.97,2.71-2.26,2.85-3.61.03-.24.03-.46,0-.69v-5.14c-.54.88-1.4,1.68-2.55,2.34-3.38,1.95-9.44,1.95-13.23.72v6.98h0ZM10.95,35.93c-2.32,0-4.63-.35-6.37-.98-.12-.04-.2-.16-.2-.29v-7.62c0-.1.05-.19.13-.25.08-.06.19-.08.28-.03,3.63,1.3,9.77,1.4,13.13-.54,1.7-.98,2.71-2.26,2.85-3.62.02-.16.15-.27.32-.27.16.01.29.14.29.3v6.88c.03.24.03.51,0,.78-.17,1.56-1.29,3.01-3.16,4.08-1.88,1.08-4.59,1.56-7.28,1.56Z"/>
      <path class="cls-2" d="M13.1,32.01c-.16,0-.29-.12-.31-.28-.02-.17.11-.32.27-.34,1.97-.2,3.67-.68,4.9-1.38,1.53-.87,2.5-1.96,2.8-3.16.04-.16.21-.27.37-.22.17.03.26.21.22.37-.35,1.36-1.42,2.58-3.09,3.54-1.31.75-3.09,1.26-5.15,1.46-.01,0-.02,0-.03,0Z"/>
      <path class="cls-2" d="M13.1,30.02c-.16,0-.29-.11-.31-.28-.02-.17.11-.32.27-.33,1.97-.2,3.67-.68,4.9-1.38,1.53-.88,2.5-1.97,2.8-3.16.04-.17.21-.27.37-.23.17.05.26.21.22.37-.35,1.37-1.42,2.59-3.09,3.55-1.31.75-3.09,1.25-5.15,1.46h-.03Z"/>
      <path class="cls-2" d="M13.1,34c-.16,0-.29-.12-.31-.28-.02-.17.11-.32.27-.34,1.97-.19,3.67-.67,4.9-1.38,1.53-.87,2.5-1.97,2.8-3.16.04-.16.21-.26.37-.22.17.04.26.21.22.37-.35,1.37-1.42,2.59-3.09,3.54-1.31.75-3.09,1.25-5.15,1.46h-.03Z"/>
      <path class="cls-3" d="M6.29,30.22c.51.14,1.06.24,1.64.33v-1.67c.72.11,1.47.18,2.24.22v1.67c.56.03,1.13.03,1.7,0v2.22c-.57.02-1.14.02-1.7-.01v1.56c-.77-.03-1.52-.1-2.24-.21v-1.56c-.58-.09-1.13-.2-1.64-.33v-2.22Z"/>
      <path class="cls-2" d="M8.24,34.05c.53.08,1.07.13,1.62.16v-1.23c0-.08.03-.16.1-.22.06-.06.14-.09.23-.09.47.02.93.03,1.38.02v-1.6c-.47,0-.94,0-1.41-.02-.16,0-.3-.14-.3-.3v-1.37c-.55-.03-1.09-.09-1.62-.16v1.31c0,.09-.04.18-.11.23-.07.06-.15.09-.25.07-.44-.06-.88-.15-1.29-.24v1.58c.44.11.9.19,1.38.27.15.02.26.15.26.31v1.28h0ZM10.17,34.84h-.01c-.77-.03-1.53-.1-2.27-.22-.15-.02-.26-.15-.26-.3v-1.3c-.49-.08-.97-.18-1.41-.29-.14-.04-.23-.16-.23-.3v-2.22c0-.09.05-.18.12-.24.08-.05.17-.07.27-.05.4.1.82.19,1.26.27v-1.31c0-.09.04-.18.11-.23.07-.06.16-.09.25-.08.71.11,1.45.18,2.2.21.17,0,.3.14.3.31v1.37c.46,0,.93,0,1.38,0,.07-.01.17.02.23.09.06.05.09.14.09.22v2.22c0,.16-.13.3-.3.3-.46.02-.93.03-1.41,0v1.24c0,.08-.04.17-.1.22-.06.06-.13.09-.21.09Z"/>
      <path class="cls-4" d="M17.44,3.9v6.38c-.38,1.82-2.29,2.72-3.91,3.18-1.33.34-2.48.42-3.84.33-1.51-.15-2.78-.47-4.08-1.26-.86-.58-1.5-1.21-1.72-2.26V3.9c.22,1.04.85,1.67,1.72,2.25,1.3.79,2.58,1.11,4.08,1.26,1.36.09,2.52,0,3.84-.32,1.62-.47,3.53-1.37,3.91-3.19Z"/>
      <path class="cls-2" d="M4.19,5.31v4.96c.19.9.77,1.46,1.58,2.01,1.13.68,2.31,1.05,3.94,1.2,1.36.1,2.48,0,3.74-.31,2.16-.62,3.41-1.62,3.68-2.96v-4.92c-.69.91-1.88,1.63-3.53,2.1-1.34.33-2.52.43-3.95.33-1.73-.17-2.99-.56-4.22-1.31-.46-.3-.9-.65-1.25-1.1h0ZM10.68,14.14c-.32,0-.66,0-1.01-.03-1.73-.17-2.99-.56-4.22-1.3-.82-.55-1.61-1.23-1.86-2.45V3.9c0-.17.11-.29.27-.31.15,0,.3.1.33.24.2.96.78,1.52,1.59,2.07,1.13.69,2.31,1.04,3.94,1.21,1.36.09,2.48,0,3.74-.32,1.48-.43,3.34-1.28,3.68-2.96.03-.15.16-.26.33-.24.16.02.27.15.27.31v6.38c-.33,1.62-1.75,2.8-4.13,3.49-1.01.25-1.93.36-2.94.36Z"/>
      <path class="cls-3" d="M5.74,1.49C8.48-.09,12.92-.09,15.67,1.49c2.74,1.58,2.74,4.16,0,5.74-2.74,1.58-7.19,1.58-9.94,0-2.74-1.58-2.74-4.16,0-5.74Z"/>
      <path class="cls-2" d="M5.89,1.76c-1.23.7-1.9,1.63-1.9,2.6s.68,1.89,1.9,2.6c2.66,1.54,6.97,1.53,9.63,0,1.23-.7,1.9-1.62,1.9-2.6s-.67-1.89-1.9-2.6C12.86.23,8.55.23,5.89,1.76h0ZM10.71,8.71c-1.86,0-3.71-.41-5.12-1.22-1.42-.83-2.21-1.94-2.21-3.14s.79-2.31,2.21-3.14h0c2.82-1.63,7.42-1.63,10.24,0,1.43.83,2.21,1.94,2.21,3.14s-.79,2.31-2.21,3.14c-1.41.81-3.26,1.22-5.12,1.22Z"/>
      <path class="cls-4" d="M6.92,2.17c2.09-1.21,5.48-1.21,7.57,0,2.09,1.21,2.09,3.17,0,4.38-2.09,1.21-5.49,1.21-7.58,0-2.09-1.21-2.09-3.17,0-4.38Z"/>
      <path class="cls-2" d="M7.07,2.44c-.91.53-1.42,1.21-1.42,1.92s.5,1.39,1.42,1.92c2,1.16,5.27,1.16,7.27,0,.91-.53,1.41-1.21,1.41-1.92s-.5-1.39-1.41-1.92c-2-1.16-5.26-1.16-7.27,0h0ZM10.71,7.76c-1.43,0-2.86-.31-3.94-.95-1.11-.64-1.72-1.51-1.72-2.45s.61-1.81,1.72-2.45h0c2.18-1.26,5.71-1.26,7.88,0,1.11.64,1.72,1.51,1.72,2.45s-.61,1.82-1.72,2.45c-1.09.63-2.52.95-3.94.95Z"/>
      <path class="cls-2" d="M4.88,10.9c-.17,0-.31-.13-.31-.3v-2.94c0-.18.14-.31.31-.31s.31.14.31.31v2.94c0,.17-.14.3-.31.3Z"/>
      <path class="cls-2" d="M6.68,12.2c-.17,0-.31-.14-.31-.31v-3.17c0-.16.14-.3.31-.3s.31.14.31.3v3.17c0,.17-.14.31-.31.31Z"/>
      <path class="cls-2" d="M9.25,12.97c-.17,0-.31-.14-.31-.31v-3.36c0-.17.14-.31.31-.31s.31.14.31.31v3.36c0,.17-.14.31-.31.31Z"/>
      <path class="cls-2" d="M16.53,10.9c-.17,0-.31-.13-.31-.3v-2.94c0-.18.14-.31.31-.31s.31.14.31.31v2.94c0,.17-.14.3-.31.3Z"/>
      <path class="cls-2" d="M14.73,12.16c-.17,0-.31-.14-.31-.3v-3.14c0-.16.14-.3.31-.3s.31.14.31.3v3.14c0,.16-.14.3-.31.3Z"/>
      <path class="cls-2" d="M12.15,12.97c-.17,0-.31-.14-.31-.31v-3.36c0-.17.14-.31.31-.31s.31.14.31.31v3.36c0,.17-.14.31-.31.31Z"/>
    </g>
  </g>
</svg>