<?xml version="1.0" encoding="UTF-8"?>
<svg id="Layer_2" data-name="Layer 2" xmlns="http://www.w3.org/2000/svg" viewBox="0 0 40.58 44.83" fill="currentColor">
  <defs>
    <style>
      .cls-1 {
        fill: #fff;
      }

      .cls-1, .cls-2, .cls-3, .cls-4 {
        fill-rule: evenodd;
      }

      .cls-2 {
        fill: #1a87c7;
      }

      .cls-3 {
        fill: #bdedf8;
      }

      .cls-4 {
        fill: #66ceef;
      }
    </style>
  </defs>
  <g id="_Layer_" data-name="&amp;lt;Layer&amp;gt;">
    <g>
      <path class="cls-4" d="M3.56,20.86l21.19-12.22c.46-.21.65-.29,1.14-.11l6.66,3.85c-.49-.18-.68-.1-1.14.11l-21.18,12.22c-.5.31-.81.67-1.12,1.16-.13.24-.23.44-.32.69l-.08,17.61.1.14.16.14-6.64-3.87-.14-.12-.12-.16.05-16.98c0-1.08.53-1.91,1.44-2.47Z"/>
      <path class="cls-2" d="M2.38,40.22l.14.14,5.87,3.42.07-17.21s0-.07.02-.1c.1-.27.2-.49.35-.74.37-.6.72-.97,1.22-1.27l21.19-12.22c.08-.04.16-.07.23-.1l-5.75-3.32c-.33-.12-.43-.07-.86.12L3.71,21.13c-.86.53-1.29,1.28-1.29,2.21l-.05,16.88h0ZM8.96,44.77c-.05,0-.1-.01-.15-.04l-6.64-3.87-.18-.16-.16-.2c-.04-.05-.06-.12-.06-.18l.05-16.98c0-1.15.55-2.09,1.59-2.74,0,0,0,0,0,0l21.19-12.22c.54-.25.81-.35,1.4-.13l6.7,3.86c.14.08.19.25.13.4-.07.15-.24.21-.39.16-.37-.14-.47-.09-.9.1l-21.16,12.21c-.41.25-.69.55-1.01,1.06-.11.2-.2.38-.28.59l-.08,17.46.16.15c.12.1.14.28.05.41-.06.08-.15.13-.25.13Z"/>
      <path class="cls-3" d="M10.18,24.73l21.19-12.22c.89-.51,1.61-.09,1.61.93v15.78c0,1.02-.73,2.28-1.62,2.79l-21.19,12.22c-.63.36-1.44.48-1.44-.2v-17.45c.27-.76.82-1.5,1.45-1.86Z"/>
      <path class="cls-2" d="M10.18,24.73h.01-.01ZM9.05,26.64v17.4c0,.12.03.14.05.15.13.08.52,0,.93-.22l21.18-12.22c.79-.46,1.46-1.61,1.46-2.53v-15.78c0-.38-.11-.66-.31-.78-.2-.12-.51-.08-.83.11l-21.19,12.22h0c-.53.31-1.03.95-1.29,1.65h0ZM9.25,44.83c-.17,0-.33-.03-.46-.11-.13-.08-.36-.27-.36-.69v-17.45s.01-.07.03-.1c.3-.86.91-1.64,1.58-2.02l21.18-12.22c.53-.3,1.04-.34,1.45-.11.41.23.63.7.63,1.31v15.78c0,1.13-.8,2.5-1.77,3.06l-21.18,12.22c-.32.19-.72.33-1.08.33Z"/>
      <path class="cls-3" d="M11.34,20.35v.98c-.07.32-.25.52-.5.71-1,.67-2.92.69-3.8-.22-.13-.16-.21-.29-.25-.49v-.98c.1.48.5.75.92.94.98.39,2.34.36,3.2-.29.22-.19.37-.36.43-.65Z"/>
      <path class="cls-2" d="M7.09,21.3v.03c.02.08.06.16.18.28.77.79,2.51.76,3.4.17.22-.16.32-.29.36-.48-1.04.72-2.5.66-3.44.28-.16-.07-.33-.16-.5-.28h0ZM9.01,22.83c-.83,0-1.66-.25-2.2-.8-.16-.19-.27-.36-.33-.64v-1.04c0-.16.11-.29.27-.31.15-.01.3.09.33.24.06.29.29.52.75.72.82.33,2.08.35,2.89-.25.19-.16.27-.28.31-.47.03-.15.17-.26.33-.24.16.02.28.15.28.31v.98c-.1.51-.37.76-.63.95-.53.35-1.27.55-2.01.55Z"/>
      <path class="cls-3" d="M7.44,19.29c.89-.51,2.34-.51,3.23,0,.89.52.89,1.35,0,1.87-.89.52-2.34.52-3.23,0-.89-.52-.89-1.35,0-1.87Z"/>
      <path class="cls-2" d="M7.6,19.56c-.33.19-.52.43-.52.67s.19.48.52.67c.79.46,2.13.46,2.93,0,.33-.19.51-.43.51-.67s-.19-.48-.51-.67c-.79-.46-2.13-.46-2.93,0h0ZM9.06,21.85c-.63,0-1.27-.14-1.77-.43-.53-.31-.82-.73-.82-1.2s.29-.89.82-1.2h0c.99-.57,2.55-.57,3.54,0,.53.31.83.73.83,1.2s-.29.89-.82,1.2c-.5.29-1.13.43-1.77.43Z"/>
      <polygon class="cls-1" points="28.52 5.3 26.59 4.18 20.16 7.89 22.1 9.01 28.52 5.3"/>
      <path class="cls-2" d="M20.78,7.89l1.32.76,5.81-3.35-1.32-.76-5.81,3.35h0ZM22.1,9.32c-.06,0-.11-.01-.15-.04l-1.94-1.12c-.1-.05-.16-.16-.16-.27s.06-.21.16-.27l6.42-3.71c.09-.06.21-.06.31,0l1.94,1.12c.1.05.15.16.15.27s-.06.21-.15.27l-6.42,3.71c-.05.03-.1.04-.15.04Z"/>
      <polygon class="cls-1" points="27.82 5.3 26.59 4.59 20.87 7.89 22.1 8.6 27.82 5.3"/>
      <path class="cls-2" d="M21.48,7.89l.62.35,5.1-2.94-.61-.36-5.1,2.94h0ZM22.1,8.91c-.06,0-.11-.01-.15-.04l-1.23-.71c-.1-.05-.16-.16-.16-.27s.06-.21.16-.27l5.72-3.3c.09-.05.21-.05.31,0l1.23.71c.09.05.15.16.15.27s-.06.21-.15.27l-5.72,3.3c-.05.03-.1.04-.15.04Z"/>
      <polygon class="cls-4" points="21.13 8.45 19.58 7.56 19.58 14.07 21.13 14.96 21.13 8.45"/>
      <path class="cls-2" d="M19.89,13.89l.93.54v-5.8s-.93-.54-.93-.54v5.8h0ZM21.13,15.27c-.05,0-.11-.01-.15-.04l-1.55-.89c-.09-.06-.15-.16-.15-.27v-6.52c0-.11.06-.21.16-.27.09-.06.21-.06.31,0l1.55.89c.1.06.16.16.16.27v6.52c0,.11-.06.21-.16.27-.05.03-.1.04-.15.04Z"/>
      <polygon class="cls-4" points="27.56 4.74 21.13 8.45 21.13 14.96 27.55 11.26 27.56 4.74"/>
      <path class="cls-2" d="M21.44,8.63v5.8s5.81-3.35,5.81-3.35v-5.8s-5.81,3.35-5.81,3.35h0ZM21.13,15.27c-.05,0-.11-.01-.15-.04-.09-.06-.15-.16-.15-.27v-6.52c0-.11.06-.21.16-.27l6.42-3.7c.09-.06.21-.06.31,0,.09.06.15.15.15.26v6.52c0,.11-.06.22-.16.27l-6.42,3.71s-.1.04-.15.04Z"/>
      <polygon class="cls-1" points="27.82 5.3 26.59 4.59 26.59 6.01 27.82 5.3"/>
      <path class="cls-2" d="M26.89,5.12v.36l.31-.18-.31-.18h0ZM26.59,6.32c-.06,0-.11-.02-.15-.04-.1-.06-.16-.16-.16-.27v-1.42c0-.11.06-.21.16-.27.09-.05.21-.05.31,0l1.23.71c.09.05.15.16.15.27s-.06.21-.15.27l-1.23.71s-.1.04-.15.04Z"/>
      <polygon class="cls-4" points="27.64 5.41 27.64 5.37 27.05 5.03 21.63 8.16 21.63 8.33 22.1 8.6 27.64 5.41"/>
      <path class="cls-2" d="M27.64,5.41h0,0ZM22.1,8.91c-.06,0-.11-.01-.16-.04l-.47-.27c-.09-.06-.15-.16-.15-.27v-.17c0-.11.06-.21.15-.26l5.42-3.13c.1-.05.21-.06.31,0l.58.34c.1.06.15.16.15.27s-.06.25-.15.3l-5.54,3.19c-.05.03-.1.04-.15.04Z"/>
      <polygon class="cls-4" points="27.64 5.37 27.05 5.03 21.63 8.16 22.22 8.5 27.64 5.37"/>
      <path class="cls-2" d="M22.22,8.81c-.05,0-.11-.02-.15-.04l-.59-.34c-.09-.06-.15-.15-.15-.27s.06-.21.15-.26l5.42-3.13c.1-.05.21-.06.31,0l.58.34c.1.06.15.16.15.27s-.06.21-.15.27l-5.42,3.13s-.1.04-.15.04Z"/>
      <polygon class="cls-1" points="22.3 8.07 18.75 6.02 26.39 1.62 29.93 3.66 22.3 8.07"/>
      <path class="cls-2" d="M19.37,6.02l2.93,1.69,7.02-4.05-2.93-1.69-7.02,4.05h0ZM22.3,8.38c-.06,0-.11-.02-.16-.04l-3.54-2.05c-.1-.05-.15-.16-.15-.27s.06-.21.15-.27l7.64-4.4c.09-.05.21-.05.31,0l3.54,2.05c.1.05.15.15.15.26s-.06.21-.15.27l-7.64,4.41s-.1.04-.15.04Z"/>
      <polygon class="cls-1" points="22.29 11.84 18.75 9.8 18.75 6.02 22.3 8.07 22.29 11.84"/>
      <path class="cls-2" d="M19.06,9.62l2.93,1.69v-3.06l-2.93-1.69v3.06h0ZM22.29,12.15c-.05,0-.11-.02-.15-.04l-3.54-2.05c-.1-.05-.15-.15-.15-.26v-3.78c0-.11.06-.21.16-.27.1-.05.21-.05.31,0l3.54,2.05c.1.06.15.16.15.27v3.77c0,.11-.06.21-.15.27-.05.03-.1.04-.16.04Z"/>
      <polygon class="cls-4" points="22.3 6.76 18.75 4.72 26.39 .31 29.93 2.35 22.3 6.76"/>
      <path class="cls-2" d="M19.37,4.72l2.93,1.69,7.02-4.05-2.93-1.69-7.02,4.05h0ZM22.3,7.07c-.06,0-.11-.01-.16-.04l-3.54-2.04c-.1-.06-.15-.16-.15-.27,0-.11.06-.21.15-.27L26.24.04c.09-.06.21-.06.31,0l3.54,2.05c.1.06.15.16.15.26s-.06.21-.15.27l-7.64,4.41s-.1.04-.15.04Z"/>
      <polygon class="cls-1" points="22.29 11.84 22.3 8.07 29.93 3.66 29.93 7.44 22.29 11.84"/>
      <path class="cls-2" d="M22.6,8.25v3.06l7.02-4.05v-3.06s-7.02,4.05-7.02,4.05h0ZM22.29,12.15c-.05,0-.11-.02-.15-.04-.09-.05-.15-.16-.15-.27v-3.77c0-.11.06-.21.16-.27l7.64-4.4c.1-.06.21-.06.31,0,.1.05.15.15.15.26v3.78c0,.11-.06.21-.16.27l-7.64,4.4s-.1.04-.16.04Z"/>
      <polygon class="cls-3" points="22.3 6.76 29.93 2.35 29.93 3.66 22.29 8.07 22.3 6.76"/>
      <path class="cls-2" d="M22.6,6.94v.6l7.02-4.05v-.6s-7.02,4.05-7.02,4.05h0ZM22.29,8.38c-.05,0-.1-.02-.15-.04-.1-.05-.15-.16-.15-.27v-1.31c0-.11.06-.21.15-.27l7.64-4.41c.1-.06.21-.06.31,0,.1.06.15.16.15.26v1.31c0,.11-.06.21-.15.27l-7.64,4.41s-.1.04-.16.04Z"/>
      <polygon class="cls-4" points="20.34 10.7 18.75 9.78 18.75 4.72 20.34 5.63 22.3 6.76 22.29 8.07 20.34 6.94 20.34 10.7"/>
      <path class="cls-2" d="M19.06,9.61l.97.56v-3.23c0-.11.06-.21.16-.26.09-.06.21-.06.31,0l1.5.87v-.6l-2.93-1.69v4.36h0ZM20.34,11.01c-.05,0-.11-.02-.15-.04l-1.58-.91c-.1-.06-.15-.16-.15-.27v-5.07c0-.11.06-.21.15-.27.1-.06.21-.06.31,0l3.54,2.05c.1.06.15.15.15.27v1.31c0,.11-.06.21-.15.27-.09.06-.21.06-.31,0l-1.5-.86v3.23c0,.11-.06.21-.16.27-.05.03-.1.04-.15.04Z"/>
      <path class="cls-4" d="M9.07,25.92c-.12.21-.21.41-.3.64v17.66s.11.14.11.14l.16.14-6.64-3.87-.14-.12-.11-.15-.05-17.02c0-.47.1-.89.29-1.27l6.67,3.85Z"/>
      <path class="cls-2" d="M2.47,40.26l.14.14,5.87,3.42-.02-17.25s0-.07.02-.11c.06-.15.11-.29.17-.42l-6.11-3.53c-.08.25-.13.53-.13.82l.04,16.92h0ZM9.05,44.81c-.05,0-.11-.02-.15-.04l-6.64-3.87-.19-.16-.16-.2c-.04-.05-.06-.11-.06-.18l-.04-17.02c0-.51.11-.98.32-1.4.04-.08.1-.13.19-.16.08-.03.17-.02.24.03l6.67,3.85c.15.08.2.27.12.42-.1.17-.18.33-.26.55l.02,17.5.04.06.11.09c.12.11.14.28.04.41-.06.08-.15.13-.25.13Z"/>
      <path class="cls-3" d="M9.04,29.26c-.08.05-.15.11-.2.2-.06.09-.1.22-.1.31v13.22c0,.09.03.16.08.19.06.03.13.03.21-.02h0s1.07-.62,1.07-.62c.93-.53,1.78-1.46,2.39-2.51.61-1.05.99-2.23.99-3.29v-6.2c0-1.06-.37-1.81-.99-2.15-.61-.34-1.46-.29-2.39.25l-1.07.62h0Z"/>
      <path class="cls-2" d="M9.04,29.26l.16.26s-.07.06-.09.09c-.03.06-.06.13-.06.16v13.03s.91-.53.91-.53c.85-.49,1.66-1.34,2.28-2.4.61-1.05.95-2.17.95-3.14v-6.2c0-.91-.29-1.58-.83-1.88-.54-.3-1.28-.21-2.09.25l-1.07.62-.16-.26h0ZM8.9,43.51c-.08,0-.15-.02-.22-.05-.16-.09-.25-.26-.25-.46v-13.22c0-.15.06-.32.14-.47.07-.13.17-.23.31-.31,0,0,0,0,.01,0l1.07-.62c1-.58,1.95-.67,2.69-.25.74.41,1.15,1.27,1.15,2.42v6.2c0,1.08-.37,2.31-1.04,3.45-.66,1.14-1.56,2.07-2.5,2.62l-1.07.62c-.1.06-.2.08-.3.08Z"/>
      <path class="cls-4" d="M2.11,23.49l-.84.48c-.4.23-.95.42-.96.9v6.9s0,6.31,0,6.31c0,.08.02.14.09.19l8.46,4.89c-.07-.05-.08-.11-.09-.19v-13.21c.02-.19.14-.43.31-.52l1.24-.71c.73-.36,1.42-.52,2.19-.13l-1.38-.83c-.22-.11-.4-.17-.64-.2-.6-.05-1.04.09-1.57.36l-.18.09-6.63-3.83v-.49Z"/>
      <path class="cls-2" d="M.62,38.05l7.85,4.53v-12.82c.02-.33.21-.65.47-.79l1.24-.71c.28-.14.6-.27.95-.34l-.15-.09c-.17-.08-.31-.13-.52-.16-.52-.04-.91.09-1.4.33l-.16.09c-.1.05-.21.05-.3,0l-6.63-3.83c-.08-.05-.14-.13-.15-.22l-.38.21c-.08.04-.15.09-.24.13-.36.19-.57.31-.58.52v13.17h0ZM8.86,43.47c-.05,0-.1-.01-.15-.04L.24,38.55c-.23-.16-.24-.37-.24-.45v-13.22c.02-.59.54-.86.91-1.05.07-.04.15-.08.21-.12l.83-.48c.1-.05.21-.05.31,0,.09.06.16.16.16.27v.31s6.32,3.65,6.32,3.65h.02c.58-.3,1.07-.46,1.75-.4.3.04.51.11.75.24l1.4.84c.14.08.19.27.11.41s-.26.2-.41.13c-.57-.29-1.12-.25-1.91.14l-1.23.7c-.08.04-.15.17-.15.27v13.17c.1.1.12.26.04.38-.06.09-.16.14-.26.14Z"/>
      <path class="cls-4" d="M.35,24.7c-.02.07-.03.11-.03.18v6.9s0,6.16,0,6.16v.15c0,.08.02.14.09.19l.08.05,1.28.74,7.1,4.1c-.07-.05-.08-.11-.09-.19v-13.21c.01-.07.02-.12.04-.18l-7.33-4.23-1.13-.65Z"/>
      <path class="cls-2" d="M.62,38.05l1.29.74,6.55,3.79v-12.82s0-.02,0-.03L.62,25.21v12.85h0ZM8.86,43.47c-.05,0-.1-.01-.15-.04L.24,38.55c-.23-.16-.24-.37-.24-.45v-13.22c.01-.11.02-.18.06-.28.03-.09.1-.16.18-.19.09-.03.18-.02.26.02l8.46,4.89c.13.07.18.23.14.37-.02.04-.02.06-.02.1v13.17c.1.1.12.26.04.38-.06.09-.16.14-.26.14Z"/>
      <path class="cls-4" d="M34.36,20.31c-4.53-1.59-9.5,4.55-11.13,8.77-1.04,2.69-1.78,6.97.6,9.19-1.12-.65-5.01-2.73-5.55-3.34-3.05-3.46-.16-10.57,2.77-13.99,1.77-2.07,5.06-4.65,7.94-3.7l5.37,3.07Z"/>
      <path class="cls-2" d="M27.7,17.33c-2.29,0-4.8,1.93-6.41,3.8-3.03,3.55-5.56,10.42-2.77,13.58.36.42,2.72,1.74,4.17,2.55-1.25-2.31-.76-5.66.26-8.3,1.58-4.1,5.73-9.13,9.82-9.21l-3.92-2.25c-.37-.12-.75-.18-1.14-.18h0ZM23.83,38.57c-.05,0-.1-.01-.15-.04-.24-.14-.61-.34-1.04-.58-2.18-1.21-4.16-2.34-4.59-2.82-3.12-3.54-.35-10.75,2.76-14.39,2.01-2.34,5.38-4.74,8.27-3.79l5.43,3.1c.14.08.19.25.13.39-.07.15-.24.22-.38.17-4.35-1.53-9.23,4.68-10.74,8.58-1.15,2.97-1.62,6.86.52,8.85.12.1.13.28.04.41-.06.08-.15.13-.25.13Z"/>
      <path class="cls-1" d="M29.4,23.7c2.83-1.63,5.13-.31,5.13,2.96s-2.3,7.24-5.13,8.88c-2.83,1.63-5.12.31-5.12-2.96s2.29-7.24,5.12-8.88h0ZM29.5,21.02c-4.09,2.36-7.41,8.11-7.41,12.83,0,4.73,3.31,6.64,7.4,4.28,4.09-2.36,7.41-8.11,7.41-12.83,0-4.73-3.31-6.64-7.4-4.28h0Z"/>
      <path class="cls-2" d="M29.4,23.7h.01-.01ZM31.69,23.31c-.65,0-1.38.22-2.14.66h0c-2.74,1.58-4.97,5.45-4.97,8.61,0,1.47.48,2.55,1.35,3.05.87.5,2.05.37,3.32-.36,2.74-1.58,4.97-5.45,4.97-8.61,0-1.47-.48-2.55-1.35-3.05-.35-.2-.75-.3-1.18-.3h0ZM27.11,36.55c-.54,0-1.05-.13-1.49-.39-1.07-.62-1.66-1.89-1.66-3.59,0-3.36,2.37-7.46,5.28-9.14h0c1.47-.85,2.87-.98,3.93-.36,1.07.62,1.66,1.89,1.66,3.59,0,3.36-2.37,7.46-5.28,9.15-.85.5-1.69.74-2.44.74h0ZM29.65,21.29c-4,2.31-7.26,7.94-7.26,12.57,0,2.17.71,3.78,2.01,4.53,1.3.75,3.05.57,4.93-.52,4-2.31,7.25-7.94,7.26-12.57,0-2.17-.71-3.78-2.01-4.53-1.3-.75-3.05-.57-4.93.52h0ZM26.18,39.46c-.76,0-1.46-.18-2.08-.54-1.5-.87-2.32-2.67-2.32-5.07,0-4.82,3.4-10.7,7.57-13.1h0c2.08-1.2,4.05-1.38,5.54-.52,1.5.87,2.32,2.67,2.32,5.07,0,4.82-3.4,10.69-7.57,13.1-1.22.7-2.39,1.05-3.46,1.05Z"/>
      <path class="cls-4" d="M30.53,21.8c.71-.4,1.4-.71,2.2-.89.78-.17,1.61-.18,2.37.07l.14.05,2.5,1.44c-.46-.16-.85-.24-1.34-.24-2.12-.03-4.28,1.41-5.74,2.83-2.7,2.62-4.86,6.76-5.02,10.55-.07,1.63.24,3.53,1.46,4.71l.11.1-2.5-1.44c-.05-.04-.26-.26-.31-.32-1.44-1.63-1.43-4.3-1.03-6.32.78-3.95,3.51-8.33,6.98-10.43l.19-.12Z"/>
      <path class="cls-2" d="M30.68,22.07l-.19.11c-3.22,1.95-6.03,6.16-6.83,10.23-.24,1.22-.63,4.26.96,6.06.04.05.21.23.27.27l1.14.66c-.68-1.32-.75-2.86-.71-3.8.16-3.68,2.16-7.9,5.11-10.76.89-.86,3.19-2.83,5.73-2.91l-1.17-.65c-.65-.21-1.41-.23-2.2-.06-.68.15-1.31.4-2.11.85h0ZM27.21,40.74c-.05,0-.11-.02-.15-.04l-2.5-1.44c-.13-.09-.37-.36-.39-.38-1.77-2-1.36-5.27-1.1-6.58.84-4.23,3.77-8.6,7.12-10.64l.19-.12s0,0,0,0c.85-.47,1.55-.76,2.28-.92.9-.2,1.78-.17,2.53.08l.14.05,2.55,1.47c.14.08.19.25.13.4-.07.14-.23.21-.38.16-.44-.15-.8-.22-1.24-.23-2.4-.05-4.66,1.91-5.52,2.74-2.8,2.71-4.78,6.87-4.92,10.35-.05,1.13.06,3.22,1.36,4.47l.11.1c.11.11.13.28.04.41-.06.08-.15.13-.25.13Z"/>
      <path class="cls-1" d="M32.77,25.87c-2.83,1.63-5.12,5.61-5.12,8.88s2.29,4.6,5.12,2.96c2.83-1.63,5.13-5.61,5.13-8.88s-2.3-4.59-5.13-2.96Z"/>
      <path class="cls-2" d="M35.06,25.48c-.65,0-1.38.22-2.14.66-2.74,1.58-4.97,5.45-4.97,8.61,0,1.47.48,2.55,1.35,3.05.87.5,2.05.37,3.32-.36,2.74-1.58,4.97-5.45,4.97-8.62,0-1.46-.48-2.55-1.35-3.05-.35-.2-.75-.3-1.18-.3h0ZM30.48,38.72c-.54,0-1.04-.13-1.49-.39-1.07-.62-1.66-1.89-1.66-3.58,0-3.36,2.37-7.47,5.28-9.15,1.47-.85,2.86-.97,3.93-.36,1.07.62,1.65,1.89,1.65,3.58,0,3.36-2.37,7.47-5.28,9.15-.85.5-1.69.74-2.44.74Z"/>
      <path class="cls-4" d="M29.15,38.07l-2.5-1.44c4.68,2.57,11.63-9,7.58-12.33l-.33-.23c2.55,1.47,4.76,2.06,3.81,6.5-.92,4.26-5.38,9.25-8.56,7.51Z"/>
      <path class="cls-2" d="M29.3,37.8c.81.44,1.74.42,2.78-.05,2.31-1.05,4.7-4.31,5.33-7.25.7-3.28-.33-4.28-2.08-5.28,1.06,2.17.08,5.54-1.72,8.2-1.27,1.87-3.21,3.7-5.18,3.88l.88.51h0ZM30.55,38.73c-.55,0-1.07-.13-1.55-.39h0s-2.5-1.45-2.5-1.45c-.15-.08-.2-.27-.12-.42.08-.15.27-.2.42-.12,2.19,1.2,4.76-1.02,6.3-3.29,1.96-2.9,2.96-6.88.94-8.53l-.31-.22c-.14-.09-.17-.28-.08-.42.09-.14.27-.18.41-.1.28.16.56.32.83.46,2.15,1.18,4.02,2.2,3.12,6.36-.68,3.16-3.17,6.54-5.68,7.68-.61.28-1.21.42-1.78.42Z"/>
      <polygon class="cls-1" points="36.4 25.51 33.9 24.07 33.81 24.02 33.72 23.98 33.63 23.93 36.13 25.38 36.22 25.42 36.31 25.46 36.4 25.51"/>
      <path class="cls-2" d="M36.4,25.82s-.1-.01-.15-.04l-.25-.13-2.53-1.46c-.14-.08-.2-.26-.12-.41.08-.15.25-.21.4-.14l.3.15,2.51,1.45c.15.08.2.27.12.42-.06.1-.16.16-.27.16Z"/>
      <path class="cls-3" d="M32.77,25.87c2.83-1.63,5.13-.31,5.13,2.96s-2.3,7.25-5.13,8.88c-2.83,1.63-5.12.31-5.12-2.96s2.29-7.24,5.12-8.88h0ZM32.87,23.19c-4.09,2.36-7.41,8.11-7.41,12.83,0,4.73,3.31,6.64,7.41,4.28,4.09-2.36,7.41-8.1,7.41-12.83,0-4.73-3.31-6.64-7.4-4.28h0Z"/>
      <path class="cls-2" d="M32.93,26.14c-2.74,1.58-4.97,5.45-4.97,8.61,0,1.47.48,2.55,1.35,3.05.87.5,2.05.37,3.32-.36,2.74-1.58,4.97-5.45,4.97-8.62,0-1.46-.48-2.55-1.35-3.05-.87-.5-2.05-.37-3.32.36h0ZM30.48,38.72c-.54,0-1.04-.13-1.49-.38-1.07-.62-1.66-1.89-1.66-3.59,0-3.36,2.37-7.47,5.28-9.15h0c1.47-.85,2.86-.97,3.93-.36,1.07.62,1.66,1.89,1.66,3.58,0,3.36-2.37,7.47-5.28,9.15-.85.5-1.69.74-2.44.74h0ZM32.87,23.19l.15.27c1.88-1.08,3.63-1.27,4.93-.52,1.3.75,2.01,2.36,2.01,4.53,0,4.62-3.26,10.26-7.26,12.57-1.88,1.08-3.63,1.27-4.93.52-1.3-.75-2.01-2.36-2.01-4.53,0-4.62,3.26-10.26,7.26-12.57l-.15-.27h0ZM29.55,41.63c-.76,0-1.46-.18-2.08-.54-1.5-.87-2.32-2.67-2.32-5.06,0-4.82,3.4-10.69,7.57-13.1,2.08-1.2,4.05-1.38,5.54-.52,1.5.87,2.32,2.66,2.32,5.07,0,4.82-3.4,10.69-7.57,13.1-1.22.7-2.39,1.06-3.46,1.06Z"/>
    </g>
  </g>
</svg>