<?xml version="1.0" encoding="UTF-8"?>
<svg id="Layer_2" data-name="Layer 2" xmlns="http://www.w3.org/2000/svg" viewBox="0 0 41.97 24.24" fill="currentColor">
  <defs>
    <style>
      .cls-1 {
        fill: #fff;
      }

      .cls-1, .cls-2, .cls-3, .cls-4 {
        fill-rule: evenodd;
      }

      .cls-2 {
        fill: #1a87c7;
      }

      .cls-3 {
        fill: #bdedf8;
      }

      .cls-4 {
        fill: #66ceef;
      }
    </style>
  </defs>
  <g id="_Layer_" data-name="&amp;lt;Layer&amp;gt;">
    <g>
      <path class="cls-1" d="M22.14,5.43l.68.38,3.04-1.76c1-.57,2.57-.58,3.59,0l11.4,6.58c1.1.64,1.13,1.78,0,2.42l-18.08,10.46c-1,.58-2.59.57-3.59,0L1.15,13.1c-1.07-.62-1.15-1.76,0-2.43L15.77,2.24c.58-.34,1.23.21,1.73.5,1.54.9,3.09,1.79,4.64,2.69Z"/>
      <path class="cls-2" d="M16.17,2.44c-.08,0-.16.02-.24.06L1.31,10.95c-.45.25-.68.58-.68.94s.26.7.68.95l18.02,10.4c.89.52,2.38.52,3.27,0l18.08-10.45c.45-.25.68-.59.68-.95s-.24-.7-.68-.95l-11.4-6.57c-.92-.52-2.38-.52-3.27,0l-3.2,1.85-5.48-3.16c-.08-.04-.18-.1-.29-.16-.34-.23-.63-.4-.89-.4h0ZM20.96,24.24c-.68,0-1.39-.16-1.94-.47L1,13.37c-.63-.37-1-.9-1-1.48s.37-1.11,1-1.47L15.62,1.97c.66-.37,1.31.04,1.78.35.08.05.18.11.26.16l5.16,2.98,2.88-1.68c1.1-.62,2.8-.62,3.9,0l11.4,6.58c.63.36.97.9.97,1.48s-.34,1.12-.97,1.48l-18.08,10.45c-.55.31-1.26.47-1.96.47Z"/>
      <path class="cls-4" d="M17.53,4.1l-1.34-.77-3.98,2.3,3.48,2.01c.39.21,1.1.12,1.13-.42v1.82c-.03.53-.73.63-1.13.42l-5.06-2.93L1.99,11.52c-.05.05-.11.09-.18.15l8.65,4.97v-1.34l7.68-4.44c-.08-.1-.13-.2-.13-.34v-1.81c0,.19.11.32.26.42l.26.16v1.34l1.18-.67.58.34c.39.21,1.1.1,1.13-.42v1.82c-.03.52-.71.63-1.13.42l-.58-.34-8.83,5.1,8.31,4.8c1.05.57,2.51.59,3.59,0l7.02-4.06c-2.15-1.26-4.3-2.56-6.47-3.76l-.47-.25c-.16-.09-.26-.23-.26-.42v-1.82c0,.19.11.32.26.42l.47.25c.71.4,1.41.8,2.12,1.21v-1.29l.73-.42c.16-.1.26-.23.26-.42v1.82c0,.2-.1.33-.26.42l-.26.16.16.1c1.39.82,2.78,1.63,4.14,2.43v1.34l9.98-5.76c-.05-.05-.13-.09-.18-.14l-5.32-3.05-5.95,3.44c-.39.2-1.1.12-1.13-.42v-1.5l-1.65-.96c-.16-.1-.26-.23-.26-.42v-1.83c0,.19.11.32.26.42l2.73,1.57v1.34l.05-.03,4.38-2.53-4.51-2.61c-.55-.29-1.36-.29-1.89,0l-2.2,1.27v.89c-.03.53-.73.63-1.13.43l-.16-.1c-.89-.5-1.73-1.02-2.62-1.49-.16-.1-.26-.23-.26-.43v-1.82c0,.19.11.32.26.42.89.47,1.73.99,2.62,1.5l.16.09c.18.1.37.13.58.1v-1.11l2.75-1.58c.52-.3,1.34-.3,1.89,0l4.93,2.85v1.34l1.15-.67,5.32,3.05c.13.08.29.2.29.37v1.53l.55-.32c.47-.28.81-.64.84-1.22v1.83c-.03.57-.37.93-.84,1.21l-18.08,10.46c-1.07.58-2.54.58-3.59,0L1.15,13.1c-.47-.28-.81-.63-.84-1.21v-1.83c.03.57.37.93.84,1.21l.55.32v-1.53c0-.17.16-.29.29-.36l8.65-4.98,1.15.67v-1.34l4.4-2.55,1.34.76c.39.21,1.1.1,1.1-.42v1.82c0,.53-.71.63-1.1.43Z"/>
      <path class="cls-2" d="M12.1,4.23v1.11l3.93-2.28h.31l1.31.76c.18.09.45.09.58,0,.08-.04.11-.11.11-.16v-1.03c-.31.1-.68.07-.97-.09l-1.18-.68-4.09,2.36h0ZM20.67,4.44v1.03s0,.09.13.16c.63.35,1.28.73,1.94,1.11l.81.48c.16.08.42.08.55,0,.08-.05.1-.11.1-.17v-.89l.16-.27,2.2-1.27c.63-.35,1.55-.35,2.17,0l4.48,2.59v-1.11l-4.77-2.76c-.45-.24-1.13-.24-1.6,0l-2.57,1.5v.92l-.26.3c-.29.04-.52,0-.76-.12l-.81-.47c-.58-.36-1.18-.7-1.78-1.04h0ZM10.64,5.08l1,.57.42-.24v.48l3.51,2.02c.26.15.65.17.94.08v1.03c0,.05-.03.12-.11.17-.13.09-.39.08-.55,0l-5.06-2.92h-.31L2.02,11.16v-1.08s.03-.04.13-.11l8.49-4.89h0ZM25.99,7.52l2.41,1.38v1.16l.5.24,4.38-2.53v-.48l.42.24,1-.58,5.16,2.96c.13.08.13.11.13.11v1.09l-5.14-2.96h-.29l-5.95,3.43c-.18.09-.45.09-.58,0-.08-.04-.11-.09-.11-.16v-1.5l-.16-.27-1.65-.95c-.11-.07-.13-.12-.13-.16v-1.03h0ZM25.75,12.11v1.11l.26-.16c.11-.06.13-.11.13-.17v-1.01l-.39.22h0ZM10.74,15.48v1.11l8.8-5.08h.31l.58.34c.16.08.42.09.55,0,.1-.05.1-.11.1-.17v-1.03c-.29.1-.68.07-.94-.08l-.45-.26-1.02.58-.34-.2-.05.43-7.55,4.35h0ZM22.9,12.15l.26.15c.71.4,1.41.8,2.15,1.21l.45-.27v.53l1.68,1c.84.49,1.65.96,2.46,1.44v1.11c-.58-.35-1.18-.7-1.76-1.05-1.52-.89-3.09-1.82-4.69-2.69l-.45-.24c-.1-.07-.1-.11-.1-.16v-1.03h0ZM.63,11.29v.61c.03.37.21.66.68.95l18.02,10.39c.97.53,2.31.53,3.27,0l18.08-10.45c.47-.28.68-.56.68-.96v-.59c-.13.11-.24.18-.37.25l-.55.33-.1-.06-.03.12-9.96,5.76-.42-.24v.48l-7.02,4.07c-1.18.64-2.72.64-3.9,0l-8.3-4.8v-.48l-.42.24L1.65,11.93v-.12l-.1.06-.55-.32c-.1-.07-.23-.15-.37-.26h0ZM20.96,24.24c-.68,0-1.34-.16-1.94-.48L1,13.37c-.39-.25-.94-.67-1-1.47v-1.83h.63c.03.38.21.67.68.95l.1.05v-1c0-.37.34-.56.42-.63l8.64-4.99h.31l.68.4v-.8l.16-.27,4.4-2.54h.31l1.34.76c.13.08.42.09.55,0,.08-.05.11-.12.11-.17h.6v1.83c0,.3-.16.53-.39.68-.34.2-.81.2-1.18.02l-1.18-.69-3.38,1.95,3.04,1.76c.16.08.42.08.58,0,.05-.04.08-.09.08-.16h.63v1.83c-.03.3-.16.54-.42.69-.34.19-.81.2-1.15,0l-4.93-2.84L2.41,11.65l7.73,4.45v-.8l.16-.27,7.42-4.28c0-.07-.03-.14-.03-.21v-1.83h.6s.03.09.13.16l.26.15.16.27v.81l.71-.4h.31l.58.34c.16.08.42.08.55-.01.1-.05.1-.11.1-.15h.63v1.83c0,.29-.16.54-.42.69-.34.19-.81.19-1.15,0l-.45-.25-8.23,4.75,7.86,4.53c.97.53,2.31.53,3.27-.01l6.58-3.8c-.45-.26-.92-.53-1.36-.8-1.52-.9-3.09-1.83-4.66-2.68l-.47-.25c-.26-.18-.42-.4-.42-.69v-1.83h.63s0,.1.1.16l.45.24c.58.31,1.13.63,1.7.95v-.76l.16-.27.71-.42c.11-.06.13-.11.13-.16h.6v1.82c0,.23-.08.42-.26.57l1.26.75c.89.51,1.76,1.03,2.62,1.53l.16.27v.81l9.06-5.25-4.9-2.82-5.79,3.35c-.37.19-.86.19-1.18,0-.26-.15-.39-.39-.39-.68v-1.34l-1.52-.87c-.34-.21-.42-.49-.42-.68v-1.83h.6s.03.09.13.17l2.72,1.57.16.26v.81l3.51-2.03-4.06-2.34c-.45-.24-1.13-.24-1.6,0l-2.02,1.17v.72c-.03.3-.16.54-.42.69-.31.19-.81.2-1.15.01l-.84-.49c-.65-.37-1.28-.76-1.94-1.11-.34-.21-.42-.48-.44-.68v-1.83h.63s0,.09.13.15c.65.36,1.31.75,1.96,1.14l.79.46s.08.03.1.04v-.79l.16-.26,2.75-1.59c.63-.35,1.55-.35,2.17,0l4.95,2.85.16.27v.81l.71-.4h.29l5.29,3.05c.13.07.45.27.47.63v1l.08-.05c.47-.28.68-.56.68-.96h.6v1.84c0,.81-.55,1.22-.97,1.48l-18.08,10.45c-.6.32-1.28.48-1.96.48Z"/>
      <path class="cls-3" d="M10.45,15.79v-.49c3.83-2.22,7.68-4.42,9.25-5.34v1.83l-8.15,4.69-1.1-.69Z"/>
      <path class="cls-2" d="M10.74,15.61l.81.5,7.83-4.52v-1.1l-8.65,4.99v.13h0ZM11.71,16.74h-.31s-1.13-.69-1.13-.69l-.13-.26v-.49l.16-.27,9.25-5.33.45.26v1.83l-.13.26-8.15,4.7Z"/>
      <polygon class="cls-3" points="16.19 3.32 12.94 5.21 11.79 4.48 11.79 4.06 16.19 1.51 16.19 3.32"/>
      <path class="cls-2" d="M12.1,4.31l.84.55,2.93-1.7v-1.11l-3.77,2.19v.08h0ZM13.07,5.48h-.31s-1.13-.74-1.13-.74l-.16-.26v-.42l.16-.27,4.4-2.54.47.27v1.82l-.16.27-3.27,1.89Z"/>
      <path class="cls-3" d="M10.64,6.54L2.31,11.35h-.6v-1.28c0-.17.16-.29.29-.36l8.65-4.98v1.82Z"/>
      <path class="cls-2" d="M2.02,11.04h.21l8.1-4.68v-1.11L2.15,9.97c-.1.07-.13.11-.13.11v.96h0ZM2.31,11.66h-.6l-.29-.31v-1.28c0-.37.34-.56.42-.63l8.64-4.99.45.27v1.82l-.13.27L2.46,11.62l-.16.04Z"/>
      <path class="cls-3" d="M21.27,22.1c.52-.04,1.05-.18,1.49-.43l7.02-4.06-.76-.46,1.18-.68v.9l9.98-5.76c-.05-.05-.13-.09-.18-.14l-.45-.26.73-.42v.75l.55-.32c.47-.28.81-.64.84-1.22v1.83c-.03.57-.37.93-.84,1.21l-18.08,10.46c-.45.24-.97.39-1.49.42v-1.82Z"/>
      <path class="cls-2" d="M29.63,17.15l.26.17v-.31l-.26.15h0ZM21.59,22.38c.47-.06.92-.21,1.34-.44l7.02-4.07v-.48l.42.24,9.96-5.76.03-.12.1.06.55-.33c.13-.07.24-.15.37-.25v.59c0,.39-.21.68-.68.96l-18.08,10.45c-.31.17-.66.29-1.02.35v-1.2h0ZM21.3,24.23l-.34-.31v-1.82l.29-.3c.5-.04.97-.17,1.36-.39l6.58-3.8-.31-.19v-.53l1.2-.68.45.27v.37l9.06-5.25-.18-.11v-.53l.73-.43.47.27v.22l.08-.05c.47-.28.68-.56.68-.96h.6v1.84c0,.81-.55,1.22-.97,1.48l-18.08,10.45c-.5.26-1.05.42-1.62.46Z"/>
      <path class="cls-3" d="M27.61,4.67c-.31,0-.63.08-.89.23l-2.2,1.27v-.82l-.55-.7,2.75-1.58c.26-.14.58-.21.89-.22v1.82Z"/>
      <path class="cls-2" d="M24.44,4.75l.32.41.08.19v.28l1.73-1c.21-.12.47-.2.73-.23v-1.2c-.16.03-.31.08-.45.15l-2.41,1.41h0ZM24.68,6.43l-.47-.26v-.71l-.47-.61.08-.45,2.75-1.59c.29-.17.65-.25,1.02-.26l.31.31v1.82l-.29.31c-.29,0-.55.07-.76.18l-2.17,1.26Z"/>
      <path class="cls-3" d="M34.69,8.42l-5.95,3.44s-.03.02-.05.03v-2.63h0s0,.81,0,.81l.05-.03,4.38-2.53-.63-.37,1.05-.6v.73l1.15-.67v1.83Z"/>
      <path class="cls-2" d="M33.09,7.13l.13.08v-.16l-.13.08h0ZM29,10.25l4.27-2.48v-.48l.42.24.71-.4v1.1l-5.4,3.12v-1.1h0ZM28.79,12.17l-.42-.28v-2.63l.16-.27.47.26v.28l3.51-2.03-.18-.11v-.53l1.05-.6.47.27v.2l.71-.4.45.26v1.83l-.16.26-6.05,3.49Z"/>
      <path class="cls-1" d="M17.95,2.38c-.16,0-.31-.03-.42-.1l-1.34-.76-4.4,2.55,4.77,2.75c.08.05.13.11.18.18v.02c.05.07.08.15.08.23,0,.07-.03.13-.05.2l-.03.02c-.03.08-.1.15-.21.2-.1.08-.26.12-.42.12-.13,0-.29-.03-.42-.12l-5.06-2.92L1.99,9.7c-.11.06-.18.13-.24.2-.03.06-.05.11-.05.17s.03.1.05.17c.05.07.13.14.24.2l7.28,4.2,9.25-5.34-.26-.16c-.1-.05-.16-.11-.18-.19h-.03c-.03-.08-.05-.16-.05-.23,0-.07,0-.14.05-.2v-.03c.05-.08.11-.15.21-.2.13-.07.26-.1.42-.1s.31.03.42.1l2.04,1.17c.08.04.16.11.18.18l.03.02c.03.07.05.15.05.22,0,.06-.03.13-.05.2v.02c-.05.08-.13.15-.21.2-.13.07-.29.11-.45.11-.13,0-.29-.05-.42-.11l-.58-.34-9.25,5.34,9.59,5.53c.11.07.24.12.39.17.18.03.37.05.52.05.18,0,.37-.02.52-.06.16-.03.31-.09.42-.16l8.3-4.8c-2.41-1.4-4.9-2.94-7.36-4.26-.08-.05-.16-.12-.21-.19-.03-.08-.05-.15-.05-.23,0-.07,0-.14.05-.2v-.03c.05-.08.13-.15.21-.2.13-.07.29-.11.42-.11.16,0,.31.03.45.11l.58.34,1.05-.6c.26-.15.58-.13.84,0,.34.19.37.63,0,.85l-.73.42,5.92,3.42,8.65-4.98c.11-.06.18-.13.24-.2.03-.06.05-.11.05-.16s-.03-.11-.05-.17c-.05-.07-.13-.14-.24-.21l-5.32-3.05-5.95,3.44c-.13.07-.29.11-.42.11-.16,0-.31-.04-.45-.11-.08-.04-.13-.11-.18-.18v-.02c-.05-.07-.08-.15-.08-.23,0-.06.03-.13.05-.2v-.02c.05-.08.13-.15.21-.2l.81-.47-2.73-1.57c-.1-.05-.16-.12-.21-.2h0c-.05-.08-.05-.15-.05-.23,0-.07,0-.14.05-.21v-.02c.05-.08.11-.15.21-.2.13-.07.26-.1.42-.1s.31.03.42.1l3.04,1.76,3.69-2.13-4.93-2.85c-.13-.07-.26-.12-.42-.16-.18-.05-.37-.06-.52-.06-.18,0-.37.02-.52.06-.16.03-.31.09-.42.16l-2.75,1.58.26.17c.11.05.18.12.21.2.05.07.08.15.08.23,0,.07-.03.14-.05.21l-.03.02c-.03.07-.1.14-.18.19-.13.08-.29.11-.45.11s-.29-.03-.42-.11c-.92-.52-1.83-1.1-2.78-1.59-.08-.05-.13-.12-.18-.19h-.03c-.03-.08-.05-.16-.05-.23,0-.07.03-.14.05-.2v-.03c.05-.08.13-.15.21-.2.13-.07.29-.1.45-.1.13,0,.29.04.42.1l1.34.76,3.04-1.76c.5-.29,1.15-.43,1.78-.43.34,0,.68.03.97.1.31.08.58.18.84.33l11.4,6.57c.26.16.47.33.6.52.16.22.24.45.24.69s-.08.48-.24.69c-.13.19-.34.37-.6.52l-18.08,10.45c-.26.15-.55.25-.84.33-.31.07-.63.1-.97.1-.31,0-.65-.04-.94-.1-.29-.07-.58-.18-.84-.32L1.15,11.28c-.24-.14-.45-.31-.58-.5l-.03-.02c-.16-.21-.24-.45-.24-.69s.08-.48.24-.69c.13-.19.34-.36.6-.51L15.77.41c.13-.07.29-.1.42-.1.16,0,.29.04.42.1l1.76,1.01c.1.06.16.13.21.21.05.07.05.14.05.22,0,.07,0,.14-.03.21l-.03.02c-.05.08-.11.15-.21.2-.11.07-.26.1-.42.1Z"/>
      <path class="cls-2" d="M16.19.61c-.11,0-.18.03-.26.07L1.31,9.12c-.21.13-.39.27-.5.43-.13.16-.18.34-.18.51,0,.18.05.35.18.51.13.17.29.31.5.44l18.02,10.4c.21.12.47.23.76.29.52.13,1.18.14,1.76,0,.29-.06.52-.17.76-.29l18.08-10.46c.24-.12.39-.27.5-.44.13-.15.18-.33.18-.5s-.05-.36-.18-.52c-.1-.15-.29-.3-.5-.42l-11.4-6.58c-.21-.12-.47-.22-.76-.29-.81-.2-1.86-.09-2.51.29l-3.2,1.85-1.49-.85c-.13-.09-.39-.09-.55,0-.03.03-.08.05-.08.09l-.29.3.29-.17s.05.07.08.09c.63.33,1.26.7,1.89,1.07.29.18.6.36.89.53.16.08.39.08.55,0,.03-.03.05-.06.08-.09v-.15s-.03-.05-.08-.09l-.76-.43,3.22-1.85c.13-.08.31-.15.5-.19.37-.09.81-.09,1.18,0,.18.04.37.11.5.19l5.42,3.12-4.32,2.49-3.17-1.84c-.16-.09-.42-.09-.55,0-.05.03-.08.05-.11.09l-.26.3.26-.17s.05.08.11.11l3.2,1.84-1.28.73s-.08.06-.08.09l-.26.3.26-.16s.05.07.08.09c.16.09.42.09.55,0l6.1-3.53,5.45,3.15c.16.08.26.18.34.29.08.12.13.24.13.35s-.05.23-.13.34c-.08.11-.18.21-.34.29l-8.78,5.07-6.52-3.78,1.18-.69c.08-.04.13-.09.13-.15s-.05-.12-.13-.16c-.18-.09-.39-.09-.52,0l-1.21.69-.73-.43c-.16-.09-.39-.09-.55,0-.05.03-.08.05-.1.09l-.26.3.26-.16s.05.06.1.09c1.65.88,3.3,1.87,4.93,2.82.81.48,1.62.96,2.44,1.43l.47.27-8.78,5.07c-.13.08-.31.15-.5.19-.37.09-.81.09-1.18,0-.21-.04-.37-.11-.5-.19l-10.06-5.8,9.88-5.7.73.43c.16.08.39.08.55,0,.05-.03.08-.06.1-.09l.26-.3-.26.16s-.08-.07-.1-.1l-2.02-1.16c-.16-.09-.42-.09-.55,0-.05.03-.08.05-.1.09l-.26.29.26-.17c.03.05.05.08.1.11l.73.43-9.88,5.7L1.86,10.7c-.16-.09-.26-.18-.34-.29-.08-.11-.13-.24-.1-.35,0-.11.03-.23.1-.34.08-.1.18-.2.34-.29l8.78-5.07,5.21,3.02c.16.08.39.09.55,0,.03-.03.05-.06.08-.09l.26-.3-.26.17c-.03-.05-.05-.08-.08-.09l-5.24-3.02,5.03-2.91,1.49.85c.13.09.39.09.52,0,.05-.02.08-.05.11-.09l.26-.29-.26.15s-.05-.06-.11-.09l-1.76-1.01c-.08-.04-.16-.07-.26-.07h0ZM20.96,22.42c-.34,0-.71-.04-1.02-.12-.34-.08-.63-.2-.92-.36L1,11.55c-.29-.17-.5-.36-.68-.58-.21-.29-.31-.59-.31-.9s.11-.61.31-.87c.16-.24.39-.45.68-.61L15.62.14c.34-.19.81-.19,1.15,0l1.76,1.02c.13.08.24.18.31.31.08.12.11.24.11.37,0,.12-.03.23-.08.35-.08.16-.21.27-.34.35-.31.19-.81.19-1.15,0l-1.18-.68-3.77,2.19,4.27,2.48c.13.08.24.17.31.29.08.14.13.27.13.41,0,.11-.05.24-.1.34-.08.17-.18.27-.34.35-.31.19-.81.19-1.15,0l-4.9-2.83L2.15,9.97c-.08.04-.1.09-.13.11,0-.02.05.03.13.08l7.13,4.11,8.67-5c-.05-.05-.1-.11-.16-.17-.08-.14-.11-.27-.11-.4,0-.12.03-.24.08-.34.1-.17.21-.28.34-.36.34-.18.84-.18,1.15,0l2.04,1.17c.13.08.24.17.29.29.1.15.13.28.13.41,0,.11-.03.24-.08.34-.1.16-.21.27-.34.35-.34.19-.84.19-1.18,0l-.42-.25-8.64,4.99,9.12,5.27c.11.05.21.09.34.12.29.07.63.07.92,0,.13-.03.24-.08.31-.12l7.86-4.54c-.65-.38-1.31-.77-1.99-1.17-1.6-.95-3.27-1.94-4.92-2.82-.13-.09-.24-.19-.31-.32-.08-.11-.11-.24-.11-.37,0-.12.03-.23.08-.34.11-.17.21-.28.34-.36.34-.19.84-.19,1.15,0l.45.25.89-.51c.34-.19.76-.19,1.13,0,.29.17.45.42.45.7s-.16.54-.42.69l-.26.16,5.29,3.07,8.49-4.89c.08-.05.13-.1.13-.11,0,.02-.05-.04-.13-.09l-5.16-2.96-5.79,3.36c-.34.19-.84.19-1.18,0-.11-.07-.21-.18-.29-.29-.08-.14-.1-.27-.1-.41,0-.11,0-.23.08-.34.08-.17.18-.27.34-.35l.34-.2-2.28-1.31c-.13-.07-.24-.18-.31-.3-.08-.12-.11-.25-.11-.38s.03-.24.11-.36c.05-.15.18-.26.31-.34.34-.19.84-.19,1.15,0l2.88,1.67,3.09-1.77-4.48-2.58c-.11-.05-.21-.1-.34-.13-.29-.07-.63-.07-.89,0-.13.03-.26.08-.34.13l-2.31,1.33c.05.05.11.12.16.19.05.12.11.24.11.38,0,.12-.05.24-.11.36-.08.15-.18.25-.34.33-.31.19-.81.19-1.15,0-.29-.17-.6-.35-.89-.53-.63-.36-1.26-.73-1.86-1.06-.13-.08-.23-.18-.31-.3-.08-.14-.13-.27-.13-.4s.05-.24.08-.35c.11-.16.21-.27.37-.35.32-.19.81-.18,1.15,0l1.18.68,2.88-1.67c.79-.46,1.99-.59,2.99-.36.34.08.63.2.92.36l11.4,6.58c.29.17.52.37.71.6.18.27.26.57.26.87s-.08.61-.26.88c-.18.24-.42.44-.71.61l-18.08,10.45c-.29.16-.6.28-.92.36-.34.08-.68.12-1.05.12Z"/>
    </g>
  </g>
</svg>