<?xml version="1.0" encoding="UTF-8"?>
<svg id="Layer_2" data-name="Layer 2" xmlns="http://www.w3.org/2000/svg" viewBox="0 0 32.96 43.01" fill="currentColor">
  <defs>
    <style>
      .cls-1 {
        fill: #fff;
      }

      .cls-1, .cls-2, .cls-3, .cls-4 {
        fill-rule: evenodd;
      }

      .cls-2 {
        fill: #1a87c7;
      }

      .cls-3 {
        fill: #bdedf8;
      }

      .cls-4 {
        fill: #66ceef;
      }
    </style>
  </defs>
  <g id="_Layer_" data-name="&amp;lt;Layer&amp;gt;">
    <g>
      <path class="cls-4" d="M10.3,11.59c-1.98.82-3.76,2.02-5.25,3.51-1.5,1.49-2.7,3.27-3.51,5.25-.79,1.9-1.22,3.99-1.22,6.18s.43,4.29,1.22,6.19c.82,1.97,2.02,3.76,3.51,5.24,1.49,1.49,3.27,2.69,5.25,3.52,1.9.78,3.99,1.22,6.18,1.22s4.29-.44,6.19-1.22c1.97-.83,3.75-2.03,5.24-3.52,1.49-1.48,2.69-3.27,3.51-5.24.79-1.9,1.23-4,1.23-6.19s-.43-4.28-1.23-6.18c-.82-1.98-2.02-3.76-3.51-5.25-1.49-1.5-3.27-2.69-5.24-3.51-1.9-.79-4-1.22-6.19-1.22s-4.28.43-6.18,1.22Z"/>
      <path class="cls-2" d="M16.48,10.67c-2.1,0-4.14.41-6.07,1.2h0c-1.93.8-3.66,1.96-5.15,3.45-1.49,1.48-2.65,3.21-3.45,5.14-.79,1.92-1.2,3.96-1.2,6.07s.41,4.15,1.2,6.07c.8,1.93,1.96,3.67,3.45,5.14,1.49,1.5,3.22,2.65,5.15,3.45,3.85,1.59,8.29,1.59,12.14,0,1.93-.8,3.66-1.95,5.15-3.45,1.49-1.48,2.65-3.21,3.45-5.14.79-1.92,1.2-3.96,1.2-6.07s-.41-4.14-1.2-6.07c-.8-1.93-1.96-3.66-3.45-5.14-1.49-1.49-3.22-2.65-5.15-3.45-1.92-.79-3.96-1.2-6.07-1.2h0ZM16.48,43.01c-2.18,0-4.3-.42-6.3-1.25-2.01-.83-3.81-2.04-5.34-3.57s-2.75-3.35-3.58-5.35c-.83-2-1.25-4.11-1.25-6.3s.43-4.3,1.25-6.3c.82-2,2.03-3.81,3.58-5.34,1.54-1.55,3.34-2.75,5.34-3.58,4-1.65,8.6-1.65,12.6,0,2.01.83,3.81,2.03,5.36,3.58,1.54,1.55,2.74,3.35,3.57,5.34.82,2,1.25,4.12,1.25,6.3s-.43,4.3-1.25,6.3c-.83,2.01-2.04,3.8-3.57,5.35-1.55,1.54-3.35,2.75-5.36,3.57-2,.83-4.12,1.25-6.3,1.25Z"/>
      <path class="cls-3" d="M18.31,39.56c7.67,0,13.89-6.21,13.89-13.89s-6.22-13.89-13.89-13.89-13.89,6.22-13.89,13.89,6.23,13.89,13.89,13.89Z"/>
      <path class="cls-2" d="M18.31,12.1c-7.49,0-13.58,6.09-13.58,13.58s6.09,13.59,13.58,13.59,13.58-6.09,13.58-13.59-6.09-13.58-13.58-13.58h0ZM18.31,39.88c-7.82,0-14.19-6.37-14.19-14.2s6.37-14.19,14.19-14.19,14.2,6.36,14.2,14.19-6.37,14.2-14.2,14.2Z"/>
      <path class="cls-4" d="M4.46,18.29c.03-1.38.2-2.45.53-3.79.65-2.28,1.44-3.88,2.68-5.89,1.69-2.43,3.07-3.95,5.58-5.55l2.75-1.59c1.3-.67,1.97-.95,3.42-1.17,1.23-.03,1.69.04,2.8.57l2.02,1.16c-1.39-.65-2.09-.67-3.6-.44l-1.71.58-.9.47-2.75,1.58-1.76,1.22c-2.38,2.1-3.93,4.17-5.28,6.93-1.07,2.37-1.7,4.48-1.75,7.08v9.6l-2.03-2.84v-7.94h0ZM22.47,5.14l-2.03-1.17c1.84,1.28,2.13,2.88,2.23,4.89v2.73c.7.29,1.37.63,2.02,1.01v-2.57c-.1-2.1-.42-3.64-2.22-4.89h0Z"/>
      <path class="cls-2" d="M22.97,11.39c.48.21.96.44,1.41.69v-2.04c-.1-2.12-.45-3.49-2.08-4.63l-.16-.09c.65,1.09.77,2.3.83,3.54v2.54h0ZM24.69,12.92c-.05,0-.11-.02-.16-.04-.63-.37-1.3-.71-1.99-.99-.11-.05-.19-.17-.19-.29v-2.73c-.1-2.13-.45-3.51-2.09-4.63-.14-.09-.18-.28-.09-.42.09-.14.27-.18.42-.1l2.02,1.17s.02.01.02.02c1.83,1.27,2.24,2.84,2.35,5.12v2.59c0,.11-.06.22-.16.27-.04.03-.09.04-.15.04h0ZM4.76,26.14l1.41,1.97v-8.64c.05-2.42.59-4.58,1.78-7.2,1.41-2.88,3.01-4.97,5.35-7.03l1.79-1.25,2.77-1.6.9-.47,1.76-.6c.62-.09,1.1-.15,1.56-.15l-.04-.02c-1.05-.51-1.47-.55-2.63-.53-1.33.21-1.96.45-3.28,1.14l-2.74,1.57c-2.56,1.63-3.9,3.18-5.49,5.47-1.12,1.82-1.95,3.43-2.63,5.8-.35,1.39-.5,2.43-.52,3.71v7.83h0ZM6.49,29.38c-.1,0-.19-.04-.25-.13l-2.02-2.83c-.04-.05-.06-.12-.06-.18v-7.94h0c.03-1.33.18-2.42.55-3.87.69-2.44,1.55-4.09,2.71-5.97,1.63-2.37,3.02-3.96,5.67-5.65l2.76-1.59c1.28-.67,1.99-.98,3.52-1.21,1.3-.03,1.82.05,2.97.59l2.05,1.18c.14.08.19.26.11.41-.07.15-.25.21-.4.13-1.3-.62-1.94-.64-3.42-.42l-1.66.57-.85.45-2.74,1.58-1.74,1.21c-2.25,1.98-3.81,4.03-5.17,6.82-1.17,2.57-1.67,4.59-1.72,6.94v9.6c0,.13-.09.25-.22.29-.03.02-.06.02-.09.02Z"/>
      <path class="cls-3" d="M6.49,29.07l.02-.03v-.03s.03-.03.03-.03l.02-.03.02-.03h0s.02-.03.02-.03l.02-.03.02-.03.02-.04h0s.02-.02.02-.02v-.03s.03-.02.03-.02l.02-.04c.59-4.2,1.92-4.85,1.92-7.68v-1.7c0-2.4.85-5.08,2.22-7.45,1.36-2.37,3.26-4.45,5.34-5.65l.95-.56c2.09-1.2,3.97-1.3,5.34-.51,1.37.79,2.22,2.48,2.22,4.89v2.57c.75.45,1.46.95,2.12,1.5v-6.38c0-2.79-.98-4.76-2.58-5.68-1.59-.92-3.79-.79-6.21.61l-2.75,1.58c-2.42,1.4-4.62,3.81-6.21,6.57-1.59,2.76-2.58,5.87-2.58,8.66v9.6Z"/>
      <path class="cls-2" d="M21.93,1.77c-1.15,0-2.42.38-3.75,1.14l-2.75,1.59c-2.29,1.32-4.46,3.62-6.09,6.46-1.64,2.83-2.55,5.86-2.55,8.51v7.14c.24-.96.52-1.68.78-2.34.41-1.05.73-1.89.73-3.26v-1.69c0-2.38.8-5.09,2.26-7.61,1.46-2.52,3.4-4.57,5.46-5.76l.96-.55c2.11-1.23,4.11-1.41,5.65-.52,1.53.89,2.37,2.71,2.37,5.16v2.4c.52.31,1.03.66,1.51,1.04v-5.74c0-2.59-.86-4.51-2.43-5.41-.64-.37-1.37-.55-2.15-.55h0ZM6.49,29.38c-.17,0-.31-.14-.31-.3v-9.6c0-2.76.93-5.88,2.62-8.82,1.69-2.93,3.94-5.3,6.33-6.68l2.75-1.59c2.43-1.41,4.76-1.62,6.52-.6,1.77,1.02,2.74,3.13,2.74,5.94v6.38c0,.11-.07.22-.18.28-.1.05-.23.04-.32-.04-.65-.55-1.36-1.04-2.09-1.47-.09-.06-.15-.16-.15-.27v-2.57c0-2.21-.73-3.85-2.06-4.63-1.34-.76-3.13-.58-5.04.52l-.96.56c-1.96,1.13-3.83,3.1-5.23,5.54-1.4,2.43-2.17,5.02-2.17,7.29v1.7c0,1.49-.36,2.42-.77,3.48-.4,1.04-.86,2.22-1.14,4.25,0,.04-.03.09-.04.12l-.17-.04v.05l.12.07-.05.09-.07-.02v.08l.03.02s-.03.06-.03.07h0c-.04.11-.16.2-.29.2Z"/>
      <path class="cls-1" d="M19.62,36.16c.59.56,1.29.92,2.06,1.07.76.15,1.58.09,2.42-.2.8-.27,1.62-.76,2.41-1.44,3.21-2.82,4.71-8.11,3.36-11.81-.33-.91-.81-1.64-1.37-2.18-.59-.57-1.29-.92-2.06-1.07-.76-.15-1.58-.09-2.42.2-5.65,1.93-8.33,11.71-4.4,15.44Z"/>
      <path class="cls-2" d="M19.83,35.94c.55.52,1.19.85,1.91.99.73.14,1.49.08,2.26-.18.79-.27,1.57-.74,2.3-1.39,3.12-2.74,4.59-7.88,3.28-11.47-.3-.84-.74-1.54-1.29-2.06-.55-.52-1.18-.85-1.9-.99-.72-.14-1.48-.08-2.25.18-2.71.93-4.98,3.89-5.78,7.57-.68,3.09-.11,5.83,1.49,7.35h0ZM22.5,37.62c-.3,0-.59-.03-.88-.08-.84-.17-1.57-.55-2.21-1.15h0c-1.76-1.68-2.39-4.64-1.68-7.94.85-3.87,3.28-7.03,6.19-8.02.88-.29,1.74-.36,2.57-.21.83.17,1.57.55,2.21,1.15.63.59,1.11,1.36,1.45,2.3,1.39,3.81-.15,9.26-3.45,12.14-.8.7-1.64,1.22-2.51,1.51-.57.19-1.14.29-1.69.29Z"/>
      <path class="cls-2" d="M23.69,29.37v3.24l3.76-2.17c.1-.06.21-.24.21-.36v-3l-3.97,2.29h0ZM23.58,33.3c-.09,0-.18-.03-.25-.07-.17-.1-.26-.28-.26-.51v-6.22c0-.6.48-.88.63-.97l3.75-2.15c.15-.09.33-.03.42.11.09.15.03.33-.11.42l-3.74,2.16c-.23.13-.33.26-.33.44v2.16l3.76-2.17c.19-.11.4-.12.56-.02.17.09.26.28.26.5v3.11c0,.34-.23.73-.52.89l-3.86,2.24c-.11.06-.21.09-.31.09h0ZM22.13,34.22c-.18,0-.31-.14-.31-.3v-6.59l-.93.54c-.15.09-.33.03-.42-.11-.09-.15-.04-.34.11-.42l1.02-.59c.19-.12.4-.13.57-.03.17.1.26.29.26.51v6.69c0,.17-.14.3-.3.3Z"/>
    </g>
  </g>
</svg>