<?xml version="1.0" encoding="UTF-8"?>
<svg id="Layer_2" data-name="Layer 2" xmlns="http://www.w3.org/2000/svg" viewBox="0 0 32.83 41.01" fill="currentColor">
  <defs>
    <style>
      .cls-1 {
        fill: #fff;
      }

      .cls-1, .cls-2, .cls-3 {
        fill-rule: evenodd;
      }

      .cls-2 {
        fill: #1a87c7;
      }

      .cls-3 {
        fill: #bdedf8;
      }
    </style>
  </defs>
  <g id="_Layer_" data-name="&amp;lt;Layer&amp;gt;">
    <g>
      <path class="cls-3" d="M14.01,8.09c4.82-2.64,6.33-.9,10.92,1.75-8.55-4.47-20.84,15.26-14.65,22.35l1.18.97c-2.09-1.2-4.73-2.29-5.84-4.03-3.58-5.65,1.5-16.85,8.4-21.03Z"/>
      <path class="cls-2" d="M14.16,8.34c-4.11,2.51-7.82,7.82-9.02,12.95-.73,3.11-.48,5.75.73,7.66.73,1.15,2.21,2.03,3.73,2.84-2.91-4.29-.56-11.97,3.61-17.25,3.04-3.87,6.54-5.87,9.55-5.64-3.14-1.9-4.71-2.69-8.6-.56h0ZM11.45,33.47c-.05,0-.1-.02-.15-.04-.45-.26-.94-.52-1.43-.78-1.77-.95-3.61-1.92-4.52-3.35-1.29-2.04-1.57-4.86-.81-8.13,1.25-5.36,5-10.73,9.31-13.34h0c4.35-2.39,6.21-1.26,9.59.77.5.3,1.03.64,1.63.97.15.09.2.27.12.42-.09.15-.27.2-.42.12-3.81-1.99-8.22,1.18-11.08,4.82-4.22,5.34-6.56,13.19-3.19,17.05l1.15.94c.12.11.15.28.05.42-.06.08-.15.13-.25.13Z"/>
      <path class="cls-3" d="M27.1,4.03l-1.99,2.48c-1.82,2.42.2,3.01,1.09,3.52-1.33-1.37,1.47-4.15,2.34-5.17.46-.53,1.06-1.03,1.76-.69-1.56-.9-1.95-1.52-3.2-.14h0ZM28.51,19.33l1.66.89c-.54-.13-2.33-.44-3.02.02-.86.56-1.98,2.56-.84,3.33-.91-.52-2.96-1.08-1.35-3.4.96-1.4,1.81-.99,3.55-.83h0ZM21.47,31.52c-.75-1.06-2.36-2.54-.37-4.45,1.07-1.02,1.6-.35,2.94.43-1.41-.69-2.98,2.04-2.28,3.21l1.31,1.81-1.6-1h0ZM7.52,37.94c.27-.7,1.54-5.33,3.31-4.61l1.44.83c-1.85-.47-2.87,3.35-3.31,4.61-.23.65-.37,1.43.28,1.87-1.56-.91-2.28-.92-1.72-2.71h0ZM2.93,34.1c-1.74,2.44,0,2.9,1.08,3.52-1.34-1.37,1.47-4.15,2.34-5.17.45-.53,1.06-1.02,1.76-.69-2.49-1.44-1.98-1.65-5.18,2.34h0ZM4.33,17.17c2.53.23,1.7-.07,3.66,1.07-.54-.14-2.34-.44-3.03,0-.87.57-1.98,2.57-.84,3.33-.9-.52-2.94-1.08-1.35-3.4.38-.56.87-.97,1.56-1.01h0ZM8.03,9.14c1.26-1.38,1.63-.76,3.2.14-1.4-.69-2.97,2.04-2.28,3.21l1.32,1.81c-1.6-.92-1.75-.96-2.75-2.64-.49-.81.03-1.84.51-2.52h0ZM1.76,26.49c3.32-1.92,2.51-1.88,4.73-.6-.98-.36-3.65,1.67-3.84,1.88-.64.68-1.35,2.18-.45,2.91-.81-.47-2.96-1.11-1.23-3.46l.79-.73h0ZM14.3,36.99c0-1.31-.43-4.51,1.69-5.22.64-.22,1.24.33,2.16.86-1.24-.47-2.36,1.39-2.41,2.54-.06,1.3-.25,3.03.41,3.57-1.43-.83-1.76-.76-1.85-1.75h0ZM29.68,10.38c.89-.41,1-.1,2.43.73-.98-.37-3.66,1.66-3.85,1.87-.63.68-1.34,2.18-.45,2.91-.81-.47-2.97-1.09-1.23-3.45.6-.81,2.08-1.48,3.09-2.06h0ZM15.72,2.32c.89-.42,1-.1,2.43.73-1.24-.47-2.36,1.38-2.41,2.54-.06,1.29-.25,3.03.41,3.57-1.96-1.14-2.01-.56-1.85-4.4.04-1.02.58-1.87,1.42-2.44h0ZM22.05,7.63c-2.25-1.29-2.61-.83-.57-5.66,1.18-2.79,2.71-1.33,3.6-.82-1.86-.47-2.87,3.35-3.31,4.61-.24.65-.36,1.43.29,1.86h0Z"/>
      <path class="cls-2" d="M23.2.62c-.09,0-.18.01-.27.03-.43.14-.84.62-1.17,1.44-1.61,3.79-1.7,4.08-.5,4.76-.04-.49.13-.97.21-1.18.04-.14.1-.3.16-.49.45-1.36,1.21-3.67,2.5-4.24-.3-.18-.62-.31-.93-.31h0ZM22.05,7.94c-.05,0-.1-.02-.15-.04-.23-.13-.43-.24-.61-.34-1.92-1.05-1.93-1.37-.09-5.71.42-1,.94-1.58,1.56-1.77.82-.26,1.59.24,2.15.61.12.07.23.14.32.2.14.08.19.24.13.38-.05.14-.2.23-.36.18-1.38-.35-2.32,2.54-2.77,3.92-.07.19-.12.36-.17.5-.35,1.01-.09,1.34.17,1.51.14.1.18.28.1.42-.06.1-.16.15-.26.15h0ZM15.87,2.58c-.77.55-1.22,1.33-1.25,2.19-.13,2.98-.13,3.13.84,3.65-.14-.66-.1-1.5-.05-2.33l.03-.51c.03-.85.58-2.06,1.43-2.63.09-.06.19-.11.29-.16-.64-.4-.76-.44-1.28-.22h0ZM16.15,9.47c-.05,0-.11-.01-.16-.04-.25-.15-.48-.26-.67-.36-1.48-.78-1.47-.98-1.33-4.31.04-1.07.59-2.03,1.54-2.69.02,0,.04-.02.05-.03.86-.39,1.19-.18,2,.31.2.12.43.27.71.43.14.08.2.25.13.4-.07.14-.24.21-.39.16-.27-.1-.56-.06-.84.13-.65.43-1.12,1.45-1.15,2.14l-.03.51c-.05,1.03-.13,2.43.33,2.8.12.1.15.29.05.42-.06.09-.15.13-.25.13h0ZM27.33,4.23l-1.98,2.47c-.53.7-.75,1.29-.65,1.72.1.4.45.69.84.91-.16-1.41,1.46-3.22,2.42-4.28.13-.15.25-.28.34-.39.15-.18.48-.57.94-.78-.84-.5-1.09-.54-1.9.35h0ZM26.19,10.34c-.05,0-.1-.02-.16-.04-.1-.06-.21-.12-.33-.18-.6-.31-1.42-.73-1.61-1.56-.15-.63.1-1.37.76-2.24l2-2.48s0-.02,0-.02c1.24-1.37,1.89-.96,2.96-.3.18.11.39.24.62.37.14.09.19.27.12.42-.08.15-.26.2-.41.13-.28-.14-.69-.2-1.39.61-.09.11-.22.25-.35.4-.97,1.09-2.99,3.35-2,4.36.11.1.11.28.02.4-.06.08-.15.12-.24.12h0ZM8.27,9.33c-.44.63-.89,1.51-.5,2.17.58.97.86,1.35,1.33,1.71l-.4-.55c-.54-.89-.05-2.3.69-3.1.24-.27.51-.46.77-.57-.83-.5-1.1-.54-1.89.34h0ZM10.27,14.6c-.05,0-.11-.02-.16-.04l-.2-.12c-1.44-.83-1.66-.96-2.66-2.63-.45-.75-.27-1.74.53-2.86,0-.01,0-.02.02-.03,1.24-1.36,1.89-.96,2.96-.3.19.11.39.24.63.37.15.09.2.27.12.41-.08.15-.26.21-.41.14-.51-.25-1,.15-1.25.42-.64.69-.95,1.82-.63,2.35l1.29,1.78c.09.12.08.28-.02.39-.06.07-.15.1-.22.1h0ZM29.82,10.65c-.22.13-.45.25-.7.39-.87.47-1.85,1-2.28,1.58-.48.65-.68,1.2-.57,1.63.1.4.45.69.84.91-.01-.04-.01-.07-.01-.1-.05-.83.45-1.77.95-2.3.12-.13,1.79-1.46,3.11-1.89-.69-.42-.8-.48-1.33-.23h0ZM27.81,16.21c.1,0,.2-.05.25-.14.09-.13.07-.31-.05-.41-.19-.16-.3-.37-.31-.64-.04-.61.38-1.4.79-1.83.35-.35,2.8-2.06,3.51-1.79.15.05.32,0,.39-.16.06-.15.01-.32-.13-.4-.28-.17-.51-.3-.71-.43-.81-.5-1.15-.71-2-.32,0,.01-.02.01-.03.02-.22.12-.45.25-.7.38-.92.51-1.97,1.08-2.48,1.76-.61.82-.82,1.52-.68,2.14.21.86,1.05,1.28,1.66,1.59.13.06.24.11.34.17.04.03.1.04.15.04h0ZM4.33,17.47c-.5.04-.91.32-1.3.88-.44.64-.62,1.17-.51,1.58.11.39.44.66.83.89,0-.07,0-.15,0-.23,0-.97.77-2.16,1.46-2.61.39-.25,1.03-.3,1.63-.28-.24-.09-.47-.11-.99-.15-.28-.02-.64-.04-1.11-.09h0ZM4.12,21.88c-.05,0-.1,0-.15-.03-.12-.07-.25-.14-.39-.21-.61-.3-1.45-.72-1.66-1.55-.16-.6.04-1.28.6-2.09.5-.73,1.09-1.1,1.79-1.14.02,0,.04-.01.05,0,.49.04.84.06,1.12.08,1.04.08,1.08.09,2.01.63.18.11.39.23.66.39.13.08.18.24.13.38-.06.14-.21.22-.36.18-.69-.17-2.26-.37-2.78-.03-.54.36-1.18,1.35-1.18,2.09,0,.32.11.56.35.71.14.1.17.28.09.43-.05.09-.16.14-.26.14h0ZM26.7,19.45c-.6,0-1.01.19-1.48.88-.45.65-.62,1.17-.51,1.58.1.39.44.66.82.89,0-.07-.02-.15-.02-.23,0-.97.78-2.15,1.47-2.61.37-.24.97-.3,1.55-.28l-.11-.06c-.27-.03-.52-.06-.76-.09-.37-.04-.69-.09-.96-.09h0ZM26.31,23.86c-.05,0-.11,0-.15-.03-.12-.07-.24-.14-.39-.21-.62-.3-1.45-.72-1.67-1.55-.15-.6.04-1.28.6-2.09.91-1.32,1.8-1.21,3.03-1.05.24.03.51.06.8.09.03,0,.08.02.11.04l1.67.88c.14.08.2.24.14.38-.05.15-.21.23-.36.19-.69-.17-2.26-.37-2.78-.03-.55.36-1.18,1.35-1.19,2.1,0,.32.12.56.35.71.14.09.18.28.1.42-.06.09-.16.14-.26.14h0ZM1.94,26.75l-.76.71c-.44.62-.63,1.16-.53,1.59.1.41.45.69.84.91,0-.03,0-.07,0-.11-.06-.83.45-1.76.95-2.3.11-.12,1.78-1.45,3.1-1.88-.89-.54-.96-.51-2.39.36-.33.19-.71.43-1.19.7h0ZM2.19,30.99c-.05,0-.11-.01-.16-.04-.09-.05-.2-.1-.33-.16-.58-.3-1.46-.73-1.66-1.59-.16-.63.07-1.32.67-2.15l.84-.77s.03-.03.05-.04c.49-.28.88-.51,1.21-.71,1.69-1.02,1.82-1.1,3.15-.29.19.12.42.25.68.41.14.08.19.25.12.39-.07.15-.23.22-.38.17-.73-.28-3.17,1.44-3.51,1.79-.42.43-.83,1.23-.79,1.83.02.27.12.47.31.63.12.1.15.28.05.42-.06.09-.16.13-.25.13h0ZM21.69,31.28l.2.13-.38-.52c-.53-.9-.05-2.3.69-3.11.24-.27.5-.46.77-.57-.71-.43-1.03-.52-1.66.09-1.56,1.49-.71,2.57.09,3.62.1.13.2.26.28.37h0ZM23.07,32.82c-.05,0-.12-.02-.16-.04l-1.61-1s-.06-.05-.09-.09c-.09-.13-.19-.26-.3-.4-.78-1.03-1.97-2.58-.03-4.44,1.06-1.02,1.78-.57,2.7,0,.18.12.38.24.61.37.14.08.19.26.11.41-.08.15-.26.2-.41.13-.51-.25-1,.16-1.24.43-.64.7-.95,1.82-.64,2.36l1.31,1.78c.09.12.08.28-.03.39-.06.06-.14.1-.23.1h0ZM3.17,34.28c-.53.76-.75,1.36-.64,1.78.09.37.44.63.83.86-.15-1.41,1.47-3.22,2.43-4.29.13-.15.24-.28.34-.39.15-.18.48-.56.91-.77-1.13-.64-1.29-.43-3.09,1.84l-.76.96h0ZM4.01,37.93c.09,0,.18-.04.24-.12.1-.12.08-.3-.03-.4-.99-1.02,1.04-3.28,2-4.36.14-.15.26-.29.35-.4.69-.81,1.11-.75,1.39-.61.15.07.33.02.41-.13.08-.15.03-.33-.12-.41-.2-.12-.38-.23-.55-.32-1.94-1.16-2.11-.94-4.27,1.76l-.76.96h-.01c-.65.93-.89,1.68-.75,2.3.18.77.9,1.14,1.54,1.47.13.07.27.14.39.21.04.03.1.04.15.04h0ZM14.62,36.99h0,0ZM14.62,36.99c.05.56.15.65.83,1.02-.13-.66-.09-1.5-.04-2.33l.03-.51c.03-.84.59-2.07,1.43-2.63.09-.06.19-.11.29-.16-.46-.28-.76-.42-1.05-.32-1.64.56-1.56,2.92-1.5,4.34.01.22.02.42.02.59h0ZM16.15,39.05c-.05,0-.11-.01-.16-.03-.28-.16-.52-.3-.72-.41-.84-.44-1.19-.63-1.28-1.57v-.03c0-.17,0-.36-.02-.58-.06-1.58-.16-4.24,1.92-4.94.63-.22,1.2.14,1.85.56.17.1.36.22.55.33.14.08.2.25.13.4-.07.15-.24.22-.39.15-.27-.1-.56-.06-.84.13-.65.44-1.12,1.45-1.15,2.14l-.03.52c-.05,1.02-.13,2.42.33,2.79.12.1.15.29.05.42-.06.09-.15.13-.25.13h0ZM7.81,38.05c.03-.09.08-.23.14-.42.32-.96,1.17-3.52,2.21-4,.19-.09.36-.09.51-.03l.63.36c-1.28.59-2.03,2.88-2.47,4.22-.06.18-.12.35-.16.49-.08.22-.25.7-.21,1.19-.85-.47-1.01-.67-.64-1.82h0ZM9.23,40.95c-.05,0-.1-.01-.16-.04-.23-.13-.44-.24-.63-.35-1.11-.59-1.78-.96-1.22-2.7,0,0,0-.02,0-.02.03-.08.08-.22.14-.39.62-1.87,1.41-3.85,2.53-4.36.35-.16.69-.17,1.04-.03l1.48.84c.13.08.18.24.13.38-.06.15-.22.22-.36.18-1.37-.35-2.32,2.54-2.77,3.92-.06.19-.12.36-.17.49-.36,1.01-.1,1.34.17,1.51.14.09.17.28.09.42-.06.1-.16.15-.26.15Z"/>
      <path class="cls-1" d="M18.56,6.62c0,.91-.63,2-1.41,2.44-.78.45-1.41.09-1.41-.81v-2.66c0-.9.63-1.99,1.41-2.44.78-.45,1.41-.09,1.41.82v2.65Z"/>
      <path class="cls-2" d="M17.78,3.26c-.14,0-.31.05-.47.16-.69.39-1.26,1.39-1.26,2.17v2.66c0,.31.1.55.26.64.16.1.42.06.69-.09.69-.4,1.26-1.39,1.26-2.18v-2.65c0-.32-.1-.56-.26-.65-.06-.04-.13-.05-.21-.05h0ZM16.52,9.56c-.18,0-.36-.05-.52-.14-.36-.21-.56-.63-.56-1.17v-2.66c0-1.01.69-2.2,1.56-2.71.48-.27.94-.3,1.3-.1.37.21.57.63.57,1.18v2.65c0,1.02-.69,2.21-1.57,2.71-.27.16-.53.24-.78.24Z"/>
      <path class="cls-1" d="M28.81,15.8c-.77.44-1.41.09-1.41-.82s.63-1.99,1.41-2.44l2.3-1.33c.77-.45,1.41-.09,1.41.82s-.64,1.99-1.41,2.44l-2.3,1.33Z"/>
      <path class="cls-2" d="M31.74,11.32c-.14,0-.3.05-.48.16l-2.3,1.32c-.69.4-1.26,1.39-1.26,2.18,0,.31.1.55.26.64.17.1.42.06.7-.09h0l2.29-1.33c.68-.39,1.26-1.39,1.26-2.17,0-.32-.1-.56-.26-.65-.06-.03-.13-.05-.22-.05h0ZM28.18,16.29c-.19,0-.37-.04-.52-.13-.36-.22-.57-.64-.57-1.18,0-1.02.69-2.21,1.57-2.71l2.29-1.33c.48-.27.94-.3,1.3-.09.37.21.57.63.57,1.18,0,1.01-.69,2.2-1.57,2.71l-2.3,1.32c-.27.16-.54.24-.78.24Z"/>
      <path class="cls-1" d="M15.74,35.17c0-.9.63-1.99,1.41-2.44.78-.45,1.41-.09,1.41.82v2.65c0,.9-.63,2-1.41,2.45-.78.44-1.41.08-1.41-.81v-2.66Z"/>
      <path class="cls-2" d="M17.78,32.84c-.14,0-.31.05-.48.16-.68.39-1.25,1.39-1.25,2.17v2.66c0,.31.1.55.26.64.16.1.42.06.69-.09.69-.39,1.26-1.39,1.26-2.18v-2.65c0-.31-.1-.56-.26-.65-.06-.03-.13-.05-.21-.05h0ZM16.52,39.14c-.18,0-.36-.04-.52-.13-.36-.22-.56-.63-.56-1.18v-2.66c0-1.01.69-2.2,1.56-2.71.48-.27.94-.3,1.3-.1.37.21.57.63.57,1.18v2.65c0,1.02-.69,2.21-1.57,2.71-.27.16-.53.23-.78.23Z"/>
      <path class="cls-1" d="M5.49,26c.78-.45,1.42-.09,1.42.81s-.63,2-1.42,2.45l-2.29,1.32c-.78.45-1.41.09-1.41-.81s.63-2,1.41-2.45l2.29-1.32Z"/>
      <path class="cls-2" d="M6.12,26.11c-.14,0-.3.05-.48.15l-2.3,1.33c-.69.39-1.26,1.39-1.26,2.18,0,.31.1.55.26.64.17.09.42.06.69-.1l2.3-1.33c.68-.39,1.25-1.39,1.25-2.18,0-.31-.09-.55-.26-.64-.05-.04-.13-.05-.21-.05h0ZM2.56,31.08c-.18,0-.36-.04-.52-.14-.36-.21-.56-.63-.56-1.17,0-1.02.69-2.21,1.56-2.71l2.3-1.33.15.27-.15-.27c.48-.28.94-.32,1.31-.1.36.21.56.63.56,1.17,0,1.02-.69,2.21-1.56,2.71l-2.3,1.33c-.28.16-.54.24-.79.24Z"/>
      <path class="cls-1" d="M12.55,11.09c.39.55.16,1.68-.52,2.52-.67.84-1.54,1.07-1.93.52l-1.15-1.63c-.39-.55-.16-1.69.52-2.52.67-.84,1.54-1.07,1.93-.52l1.15,1.65Z"/>
      <path class="cls-2" d="M10.81,9.45c-.26,0-.69.18-1.11.7-.63.79-.77,1.77-.5,2.15l1.15,1.63c.08.11.18.17.32.18.23,0,.7-.18,1.12-.7.63-.79.77-1.77.5-2.16h0l-1.15-1.63c-.08-.11-.18-.17-.32-.17h-.02ZM10.69,14.74h-.03c-.33-.02-.62-.17-.81-.44l-1.15-1.64c-.47-.67-.24-1.95.53-2.89.49-.6,1.09-.95,1.62-.94.33.02.61.17.81.43l1.15,1.63c.47.67.24,1.95-.53,2.89-.47.59-1.06.94-1.58.94Z"/>
      <path class="cls-1" d="M7.76,18.18c.68.06.91.92.52,1.93-.39,1-1.25,1.77-1.93,1.7l-1.99-.17c-.68-.06-.9-.93-.52-1.93.39-1.01,1.26-1.77,1.93-1.71l1.99.18Z"/>
      <path class="cls-2" d="M5.7,18.3c-.48,0-1.22.61-1.57,1.52-.24.63-.18,1.09-.04,1.31.07.12.17.18.3.19l1.99.18c.46.04,1.25-.57,1.62-1.51.24-.64.18-1.1.05-1.32-.08-.12-.18-.18-.31-.19l-1.99-.18s-.03,0-.04,0h0ZM6.42,22.12s-.06,0-.09-.01l-1.99-.17c-.33-.03-.6-.2-.78-.48-.28-.45-.28-1.15,0-1.87.44-1.14,1.43-1.97,2.24-1.9l1.99.17c.33.03.61.2.78.49.28.44.28,1.15,0,1.86-.43,1.09-1.35,1.91-2.15,1.91Z"/>
      <path class="cls-1" d="M6.35,32.45c.68-.83,1.54-1.07,1.93-.51.39.56.16,1.69-.52,2.52l-1.99,2.48c-.67.84-1.54,1.08-1.93.52-.38-.56-.16-1.69.52-2.53l1.99-2.48Z"/>
      <path class="cls-2" d="M6.35,32.45h0,0ZM7.69,31.94c-.26,0-.68.18-1.1.7h0l-1.99,2.48c-.63.78-.78,1.76-.51,2.15.08.11.18.17.32.17.26,0,.7-.17,1.12-.7l1.99-2.48c.63-.79.77-1.76.5-2.15-.08-.11-.18-.17-.32-.17h-.02ZM4.43,38.06h-.03c-.33,0-.62-.17-.81-.43-.47-.67-.24-1.94.53-2.89l1.99-2.48c.49-.6,1.09-.95,1.62-.93.33,0,.62.17.81.43.47.67.24,1.94-.53,2.9l-1.99,2.48c-.47.58-1.06.93-1.58.93Z"/>
      <path class="cls-1" d="M10.1,35.81c.39-1.01,1.26-1.77,1.93-1.71.68.06.91.92.52,1.93l-1.15,2.96c-.39,1-1.26,1.76-1.93,1.7-.68-.06-.91-.92-.52-1.92l1.15-2.96Z"/>
      <path class="cls-2" d="M10.38,35.93l-1.15,2.96c-.24.63-.18,1.1-.04,1.32.07.12.16.18.3.19.49.04,1.24-.57,1.62-1.51l1.15-2.96c.24-.63.18-1.1.05-1.32-.08-.12-.18-.18-.31-.19-.46-.03-1.24.57-1.62,1.52h0ZM9.54,41.01h-.09c-.33-.04-.61-.2-.78-.49-.28-.44-.28-1.14,0-1.86l1.15-2.96h0c.44-1.14,1.43-1.98,2.24-1.91.33.03.61.2.78.48.28.45.28,1.15,0,1.87l-1.15,2.96c-.43,1.1-1.36,1.9-2.15,1.9Z"/>
      <path class="cls-1" d="M21.76,30.71c-.39-.56-.16-1.68.51-2.53.68-.83,1.54-1.07,1.93-.51l1.15,1.63c.39.56.17,1.69-.51,2.53-.68.84-1.54,1.07-1.93.51l-1.15-1.64Z"/>
      <path class="cls-2" d="M23.61,27.68c-.26,0-.68.18-1.1.7-.63.78-.77,1.77-.5,2.15h0l1.15,1.64c.08.1.18.17.32.17h.02c.26,0,.68-.18,1.1-.7.63-.78.78-1.76.51-2.15l-1.15-1.64c-.08-.1-.18-.17-.32-.17h-.02ZM23.5,32.95h-.03c-.33,0-.62-.17-.81-.43l-1.15-1.63c-.47-.67-.24-1.94.53-2.9.48-.6,1.06-.95,1.62-.93.33,0,.61.17.8.44l1.15,1.64c.47.67.24,1.94-.52,2.89-.48.58-1.06.93-1.58.93Z"/>
      <path class="cls-1" d="M26.54,23.62c-.67-.06-.9-.93-.51-1.93.39-1.01,1.25-1.77,1.93-1.71l1.99.18c.67.06.9.92.51,1.92-.39,1.01-1.25,1.77-1.93,1.71l-1.99-.18Z"/>
      <path class="cls-2" d="M26.58,23.31l1.99.18c.49.04,1.24-.57,1.61-1.51.24-.63.19-1.1.05-1.32-.07-.11-.18-.18-.3-.19l-1.99-.17c-.47-.03-1.25.57-1.62,1.51-.24.63-.19,1.1-.05,1.31.07.12.17.18.32.19h0ZM28.61,24.1s-.07,0-.1,0l-1.99-.18h0c-.32-.02-.6-.2-.77-.48-.28-.45-.28-1.15,0-1.87.44-1.14,1.43-1.97,2.24-1.91l1.99.17c.32.04.6.2.77.49.28.45.28,1.15,0,1.86-.42,1.09-1.35,1.91-2.14,1.91Z"/>
      <path class="cls-1" d="M27.96,9.34c-.68.84-1.54,1.07-1.93.51-.39-.55-.16-1.68.51-2.52l1.99-2.48c.68-.84,1.54-1.07,1.93-.51.39.55.15,1.68-.51,2.52l-1.99,2.48Z"/>
      <path class="cls-2" d="M27.96,9.34h0,0ZM29.87,4.34c-.26,0-.68.19-1.1.7l-1.99,2.48c-.63.79-.77,1.77-.5,2.15.08.11.18.17.32.18.23.02.69-.18,1.11-.7l1.99-2.48c.63-.79.77-1.77.5-2.15-.08-.11-.18-.16-.32-.18h-.02ZM26.62,10.47h-.04c-.33-.02-.61-.17-.8-.43-.47-.67-.23-1.94.53-2.89l1.99-2.48c.48-.6,1.08-.95,1.62-.93.33,0,.61.16.8.43.47.67.24,1.95-.53,2.89l-1.99,2.48h0c-.47.59-1.06.94-1.57.94Z"/>
      <path class="cls-1" d="M24.2,5.98c-.39,1-1.25,1.76-1.93,1.7-.67-.06-.9-.92-.51-1.92l1.15-2.96c.39-1.01,1.25-1.77,1.93-1.71.68.06.9.92.51,1.93l-1.15,2.96Z"/>
      <path class="cls-2" d="M24.76,1.39c-.47,0-1.21.6-1.56,1.52l-1.15,2.96c-.24.63-.19,1.09-.05,1.32.07.11.18.18.31.19.46.05,1.25-.56,1.62-1.51h0l1.15-2.96c.25-.63.19-1.09.05-1.32-.07-.11-.18-.18-.31-.19h-.05ZM22.35,8h-.1c-.32-.03-.6-.2-.77-.49-.28-.44-.28-1.15,0-1.86l1.15-2.96c.44-1.15,1.42-1.98,2.24-1.9.33.03.6.2.77.48.29.45.29,1.15,0,1.87l-1.15,2.96c-.42,1.1-1.35,1.91-2.14,1.91Z"/>
      <path class="cls-1" d="M18.19,10.49c1.29-.74,2.52-1.15,3.64-1.27,1.17-.11,2.22.09,3.1.61.88.5,1.58,1.31,2.06,2.37.47,1.03.72,2.31.72,3.79s-.25,3.06-.72,4.62c-.48,1.62-1.18,3.24-2.06,4.76-1.73,2.98-4.11,5.59-6.74,7.11-1.29.74-2.52,1.16-3.64,1.27-1.16.11-2.22-.1-3.09-.61-.88-.51-1.58-1.3-2.07-2.37-.46-1.03-.72-2.3-.72-3.79s.26-3.06.72-4.62c.49-1.63,1.19-3.24,2.07-4.76.88-1.52,1.93-2.94,3.09-4.17,1.12-1.18,2.35-2.19,3.64-2.94Z"/>
      <path class="cls-2" d="M18.19,10.49h0,0ZM22.45,9.5c-.19,0-.39,0-.59.03-1.11.1-2.29.52-3.51,1.23h0c-1.23.71-2.44,1.68-3.57,2.88-1.15,1.21-2.17,2.6-3.05,4.12-.88,1.52-1.56,3.11-2.04,4.7-.47,1.58-.7,3.11-.7,4.53s.23,2.64.69,3.66c.46,1.01,1.11,1.76,1.95,2.24.83.48,1.82.67,2.9.56,1.11-.11,2.3-.52,3.52-1.23,2.49-1.44,4.85-3.93,6.62-7,.88-1.52,1.57-3.1,2.04-4.7.48-1.58.71-3.1.71-4.53s-.24-2.64-.69-3.66c-.45-1.01-1.11-1.76-1.94-2.24-.69-.39-1.46-.59-2.32-.59h0ZM13.93,34.1c-.98,0-1.85-.22-2.63-.68-.95-.55-1.69-1.39-2.19-2.52-.5-1.09-.75-2.4-.75-3.91s.24-3.07.73-4.71c.48-1.64,1.2-3.27,2.1-4.83.9-1.56,1.96-2.98,3.14-4.22,1.18-1.24,2.43-2.25,3.71-2.99,1.29-.75,2.56-1.19,3.76-1.31,1.23-.12,2.33.09,3.28.64.95.55,1.68,1.39,2.2,2.52.5,1.1.75,2.41.75,3.91s-.25,3.07-.74,4.71c-.49,1.64-1.19,3.27-2.09,4.82-1.83,3.17-4.26,5.73-6.84,7.22-1.31.75-2.57,1.19-3.77,1.31-.22.02-.43.03-.64.03Z"/>
    </g>
  </g>
</svg>