<?xml version="1.0" encoding="UTF-8"?>
<svg id="Layer_2" data-name="Layer 2" xmlns="http://www.w3.org/2000/svg" viewBox="0 0 30.56 39.32" fill="currentColor">
  <defs>
    <style>
      .cls-1 {
        fill: #fff;
      }

      .cls-1, .cls-2, .cls-3, .cls-4 {
        fill-rule: evenodd;
      }

      .cls-2 {
        fill: #1a87c7;
      }

      .cls-3 {
        fill: #bdedf8;
      }

      .cls-4 {
        fill: #66ceef;
      }
    </style>
  </defs>
  <g id="_Layer_" data-name="&amp;lt;Layer&amp;gt;">
    <g>
      <path class="cls-2" d="M15.91,18.41c-.23,0-.49.08-.76.24-.51.29-.99.8-1.35,1.43-.36.63-.56,1.29-.56,1.87,0,.52.16.9.45,1.07.29.17.7.12,1.15-.15h0c.5-.29.98-.8,1.34-1.43.36-.63.56-1.29.56-1.88,0-.52-.16-.9-.45-1.07-.11-.07-.24-.1-.38-.1h0ZM14.99,23.15h.01-.01ZM14.07,23.74c-.25,0-.48-.06-.69-.18-.49-.28-.75-.85-.75-1.6,0-.69.23-1.46.64-2.18.41-.72.97-1.31,1.57-1.65.65-.37,1.28-.42,1.76-.15.49.28.76.85.76,1.6,0,.69-.23,1.47-.65,2.18-.41.72-.97,1.31-1.57,1.65h0c-.37.21-.74.32-1.08.32Z"/>
      <path class="cls-2" d="M18.44,22.79c-.05,0-.11-.01-.15-.04l-1.87-1.08c-.15-.08-.2-.27-.11-.42.08-.15.27-.2.42-.11l1.87,1.08c.15.09.2.28.11.42-.06.1-.16.15-.27.15Z"/>
      <path class="cls-2" d="M11.55,26.65c-.05,0-.11-.01-.16-.04-.15-.09-.2-.27-.11-.42l1.83-3.16c.09-.15.27-.2.42-.12.15.09.2.27.11.42l-1.82,3.16c-.06.1-.16.15-.27.15Z"/>
      <path class="cls-4" d="M14.53,9.1c1.13-.62,2.31-.99,3.52-.35-.88-.51-2.16-1.43-3.06-1.54-.92-.12-1.79.22-2.58.66-2.75,1.67-4.72,5.02-4.96,8.22l2.13,1.23c.24-3.19,2.21-6.55,4.96-8.21Z"/>
      <path class="cls-2" d="M7.77,15.92l1.54.89c.4-3.19,2.39-6.35,5.06-7.97,0,0,.01,0,.01,0,.58-.32,1.28-.63,2.03-.71-.53-.3-1.06-.55-1.46-.6-.9-.11-1.76.27-2.39.62-2.54,1.54-4.49,4.72-4.79,7.78h0ZM9.57,17.62c-.06,0-.11-.01-.15-.04l-2.12-1.23c-.1-.06-.16-.17-.16-.29.25-3.36,2.31-6.75,5.11-8.45.73-.4,1.7-.84,2.78-.7.77.1,1.72.68,2.56,1.2.22.14.43.26.62.37.14.08.2.27.12.42-.08.14-.27.2-.41.12-.93-.49-1.89-.38-3.22.34-2.6,1.58-4.57,4.86-4.81,7.97,0,.11-.07.2-.16.25-.05.02-.1.04-.14.04Z"/>
      <path class="cls-3" d="M14.53,9.1h0s-2.12-1.23-2.12-1.23h0l2.12,1.23h0ZM16.6,1.73c-.64-.37-2.09-1.34-2.67-1.41-2.89-.36-6.03,5.87-3.59,7.35l2.12,1.23c-2.67-1.7,1.34-8.64,4.14-7.17h0Z"/>
      <path class="cls-2" d="M13.68.61c-1.45,0-2.98,1.84-3.61,3.65-.52,1.49-.36,2.67.43,3.15l.89.52c-.33-1.15.09-2.69.82-3.95.73-1.27,1.87-2.42,3.05-2.69-.53-.32-1.1-.62-1.38-.66-.07-.01-.14-.01-.21-.01h0ZM12.46,9.21c-.06,0-.11-.01-.15-.04l-2.13-1.23c-1.06-.64-1.32-2.09-.7-3.88C10.24,1.89,12.11-.21,13.96.02c.49.06,1.32.55,2.28,1.14.2.12.37.23.51.31.15.08.2.27.12.42-.08.15-.27.2-.41.12-1.21-.63-2.78.67-3.71,2.28-.93,1.61-1.27,3.62-.12,4.35.14.09.19.28.1.42-.06.1-.16.15-.26.15h0ZM14.53,9.41c-.05,0-.1-.01-.15-.04l-2.12-1.23c-.1-.05-.16-.16-.15-.28,0-.11.07-.22.17-.27.09-.05.2-.04.29,0l2.12,1.23c.09.05.15.15.16.26,0,.11-.05.21-.14.26h0s-.11.06-.17.06Z"/>
      <path class="cls-4" d="M18.05,8.75c-.94-.54-2.2-.42-3.52.35-1.37.79-2.61,2.15-3.52,3.71-.83,1.43-1.36,3.03-1.44,4.5l9.92-5.73c-.08-1.38-.62-2.36-1.44-2.83Z"/>
      <path class="cls-2" d="M16.76,8.73c-.63,0-1.33.21-2.07.64-1.28.74-2.49,2.02-3.4,3.6-.71,1.23-1.18,2.56-1.35,3.78l9.24-5.33c-.11-1.13-.56-1.98-1.28-2.4h0c-.34-.19-.72-.29-1.14-.29h0ZM9.57,17.62c-.06,0-.11-.02-.16-.05-.1-.06-.16-.17-.15-.28.09-1.48.61-3.13,1.49-4.64.97-1.67,2.26-3.03,3.63-3.83,1.43-.83,2.79-.95,3.83-.35h0c.95.55,1.51,1.64,1.6,3.08,0,.12-.05.23-.15.29l-9.93,5.73s-.1.04-.15.04Z"/>
      <path class="cls-1" d="M14.53,8.69h0c.81-.47,1.54-1.27,2.07-2.18h0c.53-.92.86-1.95.86-2.88s-.33-1.59-.86-1.89c-.53-.31-1.26-.26-2.07.2-.81.47-1.54,1.27-2.07,2.19-.53.92-.86,1.95-.86,2.88s.33,1.59.86,1.89c.53.3,1.26.26,2.07-.21Z"/>
      <path class="cls-2" d="M15.84,1.84c-.35,0-.74.12-1.15.36-.74.42-1.43,1.16-1.95,2.07-.53.91-.82,1.88-.82,2.73,0,.79.25,1.37.7,1.63.46.26,1.08.19,1.76-.21,0,0,.01,0,.02,0h0c.71-.42,1.41-1.15,1.94-2.06.53-.91.82-1.88.82-2.73,0-.79-.25-1.37-.71-1.63-.18-.11-.38-.15-.61-.15h0ZM13.22,9.4c-.33,0-.64-.08-.91-.24-.65-.37-1.01-1.14-1.01-2.16,0-.96.32-2.04.9-3.04.58-1,1.35-1.82,2.18-2.3.88-.51,1.73-.58,2.38-.2.65.37,1.01,1.15,1.01,2.16,0,.96-.32,2.03-.9,3.04-.58,1.01-1.35,1.82-2.18,2.3h0c-.51.29-1.01.44-1.46.44Z"/>
      <path class="cls-2" d="M14.99,18.7c-.17,0-.31-.14-.31-.31v-2.91c0-.17.14-.31.31-.31s.31.14.31.31v2.91c0,.17-.14.31-.31.31Z"/>
      <path class="cls-4" d="M7.39,30.79c1.13-.62,2.31-.98,3.52-.35-.88-.51-2.16-1.42-3.06-1.54-.93-.11-1.79.23-2.58.66-2.75,1.67-4.72,5.02-4.96,8.22l2.12,1.23c.24-3.19,2.22-6.55,4.96-8.22Z"/>
      <path class="cls-2" d="M.63,37.61l1.54.89c.4-3.2,2.39-6.35,5.06-7.97h.01c.58-.33,1.27-.64,2.03-.71-.53-.3-1.06-.55-1.46-.61-.91-.12-1.76.28-2.4.62-2.53,1.54-4.49,4.72-4.79,7.78h0ZM2.43,39.32c-.06,0-.11-.01-.15-.04l-2.13-1.23c-.1-.06-.16-.17-.15-.29.25-3.36,2.31-6.75,5.11-8.45.73-.4,1.69-.84,2.78-.7.77.09,1.72.68,2.56,1.2.22.14.43.27.62.38.15.08.2.27.12.41-.08.15-.27.2-.41.13-.93-.49-1.89-.39-3.22.34-2.6,1.58-4.58,4.85-4.81,7.97,0,.11-.07.2-.16.25-.05.02-.1.03-.14.03Z"/>
      <path class="cls-3" d="M7.39,30.79h0l-2.12-1.23h0s2.12,1.23,2.12,1.23h0ZM9.46,23.42c-.65-.37-2.09-1.33-2.68-1.41-2.88-.36-6.03,5.87-3.59,7.35l2.12,1.23c-2.67-1.69,1.34-8.63,4.14-7.17h0Z"/>
      <path class="cls-2" d="M6.54,22.31c-1.45,0-2.98,1.84-3.61,3.64-.52,1.49-.36,2.67.43,3.15l.9.52c-.33-1.15.09-2.69.82-3.95.73-1.27,1.87-2.42,3.05-2.69-.53-.31-1.1-.62-1.38-.65-.07-.01-.14-.01-.21-.01h0ZM5.32,30.9c-.05,0-.11-.01-.15-.04l-2.12-1.23c-1.06-.64-1.32-2.09-.7-3.88.75-2.17,2.63-4.27,4.47-4.04.49.06,1.32.55,2.28,1.14.2.12.37.23.51.31.15.08.2.27.12.42-.08.14-.27.2-.41.12-1.21-.63-2.78.67-3.71,2.28-.93,1.61-1.27,3.62-.12,4.35.14.09.18.28.1.42-.06.09-.16.15-.26.15h0ZM7.39,31.1c-.05,0-.11-.02-.16-.04l-2.12-1.23c-.09-.05-.15-.15-.15-.25,0-.1.04-.2.12-.26.1-.07.24-.08.34-.02l2.12,1.23c.09.05.15.15.15.26,0,.1-.05.21-.14.26h0s-.11.05-.17.05Z"/>
      <path class="cls-4" d="M10.91,30.44c-.94-.54-2.19-.41-3.52.35-1.37.79-2.62,2.16-3.52,3.71-.83,1.43-1.36,3.03-1.44,4.5l9.93-5.73c-.08-1.38-.62-2.36-1.45-2.84Z"/>
      <path class="cls-2" d="M9.62,30.42c-.63,0-1.33.21-2.07.64-1.28.74-2.49,2.02-3.4,3.6-.71,1.23-1.18,2.56-1.35,3.78l9.24-5.33c-.11-1.14-.56-1.98-1.28-2.4-.33-.19-.72-.29-1.14-.29h0ZM2.43,39.32c-.06,0-.11-.01-.16-.04-.1-.06-.15-.17-.15-.28.08-1.47.61-3.12,1.49-4.64.97-1.67,2.26-3.03,3.63-3.82,1.43-.83,2.79-.95,3.83-.35h0c.94.54,1.51,1.64,1.6,3.08,0,.12-.05.23-.15.28l-9.93,5.73s-.1.04-.15.04Z"/>
      <path class="cls-1" d="M7.39,30.39h0c.8-.47,1.54-1.27,2.06-2.18h0c.53-.92.86-1.95.86-2.88s-.33-1.59-.86-1.9c-.53-.3-1.26-.26-2.07.21-.81.47-1.54,1.27-2.07,2.19-.53.92-.86,1.95-.86,2.88s.33,1.59.86,1.89c.53.31,1.26.26,2.07-.2Z"/>
      <path class="cls-2" d="M7.39,30.39h.01-.01ZM8.7,23.54c-.35,0-.74.12-1.15.36-.74.42-1.43,1.16-1.96,2.07-.53.91-.82,1.88-.82,2.73,0,.79.25,1.37.7,1.63.45.26,1.08.19,1.76-.21h0c.75-.43,1.43-1.17,1.96-2.07.52-.91.81-1.88.81-2.73,0-.79-.25-1.37-.7-1.63-.18-.1-.38-.15-.61-.15h0ZM6.09,31.1c-.33,0-.64-.08-.91-.24-.65-.38-1.01-1.14-1.01-2.16,0-.96.32-2.04.9-3.04.58-1,1.35-1.82,2.18-2.3.88-.51,1.72-.58,2.38-.2.65.38,1.01,1.14,1.01,2.16,0,.96-.32,2.03-.9,3.04-.58,1-1.35,1.82-2.18,2.29h0c-.51.3-1.01.45-1.46.45Z"/>
      <path class="cls-4" d="M25.28,20.47c1.13-.62,2.31-.99,3.52-.35-.88-.51-2.16-1.42-3.06-1.54-.92-.12-1.79.23-2.58.66-2.75,1.67-4.72,5.02-4.96,8.22l2.12,1.23c.24-3.19,2.22-6.55,4.96-8.22Z"/>
      <path class="cls-2" d="M18.52,27.29l1.54.89c.4-3.2,2.39-6.36,5.06-7.97,0,0,0,0,.01,0,.58-.32,1.27-.64,2.03-.7-.53-.3-1.06-.56-1.46-.61-.91-.11-1.76.27-2.39.62-2.54,1.54-4.49,4.72-4.79,7.78h0ZM20.32,28.99c-.05,0-.1-.01-.15-.04l-2.12-1.23c-.1-.06-.16-.17-.15-.29.25-3.36,2.31-6.75,5.11-8.46.73-.4,1.69-.84,2.78-.7.77.1,1.72.68,2.56,1.2.22.14.43.27.62.38.14.08.2.27.11.41-.08.15-.27.2-.41.12-.93-.48-1.89-.38-3.22.34-2.6,1.58-4.57,4.86-4.81,7.97,0,.11-.07.2-.16.25-.05.02-.09.03-.14.03Z"/>
      <path class="cls-3" d="M25.29,20.46h0s-2.12-1.22-2.12-1.22h0s2.12,1.22,2.12,1.22h0ZM27.35,13.1c-.64-.37-2.09-1.33-2.67-1.41-2.89-.36-6.02,5.87-3.59,7.35l2.12,1.23c-2.67-1.7,1.34-8.63,4.14-7.17h0Z"/>
      <path class="cls-2" d="M24.43,11.98c-1.45,0-2.98,1.84-3.61,3.64-.52,1.49-.36,2.67.43,3.15l.9.52c-.33-1.15.09-2.69.82-3.95.73-1.27,1.87-2.42,3.04-2.69-.53-.31-1.1-.62-1.38-.65-.07-.01-.14-.01-.21-.01h0ZM23.21,20.57c-.05,0-.11-.02-.15-.04l-2.12-1.23c-1.06-.64-1.32-2.09-.7-3.88.75-2.17,2.64-4.27,4.48-4.04.48.06,1.32.55,2.28,1.14.2.12.37.23.51.31.15.08.2.27.12.41-.08.15-.27.2-.41.13-1.2-.63-2.78.67-3.71,2.28-.93,1.61-1.27,3.63-.12,4.36.14.09.19.28.1.42-.06.09-.16.15-.26.15h0ZM25.28,20.78c-.06,0-.11-.02-.15-.04l-2.12-1.23c-.1-.06-.16-.16-.15-.28,0-.11.07-.21.17-.26.09-.05.2-.04.29,0l2.12,1.23c.09.06.15.15.15.26,0,.11-.05.21-.14.27h0c-.05.04-.11.06-.17.06Z"/>
      <path class="cls-4" d="M28.8,20.11c-.94-.54-2.2-.41-3.52.35-1.37.79-2.62,2.15-3.52,3.71-.83,1.43-1.36,3.03-1.45,4.5l9.93-5.73c-.08-1.38-.62-2.36-1.45-2.83Z"/>
      <path class="cls-2" d="M27.51,20.09c-.63,0-1.33.21-2.07.64-1.28.74-2.49,2.02-3.4,3.6-.72,1.23-1.18,2.56-1.35,3.78l9.24-5.34c-.11-1.13-.56-1.98-1.28-2.4h0c-.33-.19-.72-.29-1.14-.29h0ZM20.32,28.99c-.06,0-.11-.02-.16-.04-.1-.06-.15-.17-.14-.28.08-1.48.61-3.12,1.48-4.64.97-1.67,2.25-3.03,3.63-3.83,1.43-.83,2.79-.95,3.83-.35.94.54,1.51,1.64,1.6,3.08,0,.12-.05.23-.15.29l-9.93,5.73s-.1.04-.15.04Z"/>
      <path class="cls-1" d="M25.28,20.06h0c.81-.47,1.53-1.27,2.06-2.18h0c.53-.92.86-1.95.86-2.89s-.33-1.59-.86-1.89c-.53-.31-1.26-.26-2.07.2-.81.47-1.54,1.27-2.07,2.19-.53.92-.86,1.95-.86,2.88s.33,1.59.86,1.89c.53.31,1.26.26,2.07-.2Z"/>
      <path class="cls-2" d="M26.59,13.21c-.35,0-.74.12-1.15.36-.74.42-1.43,1.16-1.96,2.07-.53.91-.82,1.88-.82,2.73,0,.79.25,1.37.7,1.63.46.26,1.08.19,1.76-.2,0,0,.01,0,.02,0h0c.72-.42,1.41-1.15,1.94-2.06.53-.91.81-1.88.81-2.73,0-.79-.25-1.37-.7-1.63-.18-.1-.39-.15-.61-.15h0ZM23.98,20.77c-.33,0-.64-.08-.92-.24-.65-.38-1.01-1.14-1.01-2.16,0-.95.32-2.03.9-3.04.58-1,1.35-1.82,2.18-2.3.88-.51,1.73-.58,2.38-.2.65.37,1.01,1.14,1.01,2.16,0,.96-.32,2.04-.9,3.04-.58,1-1.35,1.82-2.18,2.3h0c-.51.3-1.01.45-1.46.45Z"/>
    </g>
  </g>
</svg>