<?xml version="1.0" encoding="UTF-8"?>
<svg id="Layer_2" data-name="Layer 2" xmlns="http://www.w3.org/2000/svg" viewBox="0 0 74.83 87.13" fill="currentColor">
  <defs>
    <style>
      .cls-1, .cls-2, .cls-3, .cls-4 {
        fill-rule: evenodd;
      }

      .cls-1, .cls-5 {
        fill: #fff;
      }

      .cls-2 {
        fill: #1a87c7;
      }

      .cls-3 {
        fill: #bdedf8;
      }

      .cls-4 {
        fill: #66ceef;
      }
    </style>
  </defs>
  <g id="_Layer_" data-name="&amp;lt;Layer&amp;gt;">
    <g>
      <polygon class="cls-1" points="73.46 10.17 73.46 74.81 46.01 69.96 46.01 5.34 73.46 10.17"/>
      <path class="cls-2" d="M46.64,69.44l26.2,4.64V10.7l-26.2-4.63v63.37h0ZM73.46,75.42h-.11l-27.46-4.85c-.32-.05-.52-.31-.52-.61V5.34c0-.19.11-.36.21-.49.16-.1.37-.16.52-.12l27.46,4.85c.26.04.52.3.52.59v64.63c0,.17-.11.35-.26.47-.11.08-.21.14-.37.14Z"/>
      <polygon class="cls-3" points="46.01 5.34 46.01 69.96 30.97 86.52 30.97 21.91 46.01 5.34"/>
      <path class="cls-2" d="M31.6,22.14v62.79l13.78-15.21V6.93l-13.78,15.21h0ZM30.97,87.13c-.11,0-.16,0-.21-.04-.26-.08-.42-.31-.42-.57V21.91c0-.16.05-.31.16-.42l15.04-16.57c.21-.19.47-.26.68-.15.26.08.42.31.42.57v64.61c0,.16-.05.3-.16.42l-15.04,16.56c-.16.13-.31.19-.47.19Z"/>
      <rect class="cls-5" x=".63" y="21.91" width="30.33" height="64.61"/>
      <path class="cls-2" d="M1.26,85.9h29.08V22.52H1.26v63.38h0ZM30.97,87.13H.63c-.37,0-.63-.28-.63-.61V21.91c0-.35.26-.63.63-.63h30.34c.31,0,.63.28.63.63v64.61c0,.33-.31.61-.63.61Z"/>
      <polygon class="cls-1" points="74.2 5.99 74.2 70.62 73.46 74.81 73.46 10.17 74.2 5.99"/>
      <path class="cls-2" d="M73.46,75.42h-.05c-.31-.04-.58-.29-.58-.61V10.17l.73-4.29c.05-.31.37-.5.68-.5.31.03.58.29.58.61v64.63l-.79,4.3c-.05.29-.31.5-.58.5Z"/>
      <polygon class="cls-3" points="73.46 10.17 46.01 5.34 30.97 21.91 .63 21.91 .63 17.65 28.5 17.65 43.81 .62 74.2 5.99 73.46 10.17"/>
      <path class="cls-2" d="M1.26,21.28h29.45l14.83-16.36c.16-.15.37-.24.58-.19l26.83,4.73.52-2.97L44.01,1.29l-15.09,16.76c-.1.14-.26.21-.42.21H1.26v3.02h0ZM30.97,22.52H.63c-.37,0-.63-.28-.63-.61v-4.26c0-.35.26-.63.63-.63h27.56L43.33.22c.16-.16.37-.25.58-.21l30.39,5.37c.31.07.52.38.47.71l-.73,4.19c0,.17-.1.31-.26.4-.11.11-.26.14-.42.11l-27.14-4.78-14.78,16.31c-.16.14-.31.21-.47.21Z"/>
      <polygon class="cls-4" points="46.01 13.72 64.29 16.98 64.29 52.94 46.01 49.69 46.01 47.08 61.67 49.72 61.67 33.7 46.01 31.07 46.01 28.47 61.67 31.09 61.67 18.96 46.01 16.33 46.01 13.72"/>
      <path class="cls-2" d="M46.64,49.19l17.03,3.02V17.48l-17.03-3.03v1.36l15.14,2.54c.31.05.52.31.52.61v12.13c0,.19-.05.37-.21.47-.16.12-.31.17-.52.14l-14.93-2.53v1.38l15.14,2.54c.31.05.52.31.52.61v16.03c0,.19-.05.36-.21.47-.16.12-.31.18-.52.14l-14.93-2.52v1.37h0ZM64.29,53.57q-.05,0-.11-.02l-18.29-3.25c-.32-.05-.52-.29-.52-.61v-2.6c0-.18.11-.35.21-.47.16-.1.32-.16.52-.12l14.99,2.5v-14.78l-15.2-2.54c-.32-.05-.52-.31-.52-.61v-2.61c0-.19.11-.37.21-.47.16-.12.32-.18.52-.14l14.99,2.52v-10.9l-15.2-2.54c-.32-.05-.52-.32-.52-.61v-2.61c0-.19.11-.36.21-.49.16-.1.32-.15.52-.12l18.29,3.25c.31.05.52.29.52.61v35.97c0,.19-.1.36-.21.49-.16.08-.26.14-.42.14Z"/>
      <path class="cls-4" d="M30.97,57.37l2.62-2.64v2.07l1.89-1.84v-5.57l-1.89,1.84v.91l-2.62,2.64v2.6h0ZM46.01,28.47l-1.1,1.11-.94.92-.94.92-1,1.01v2.6l1-1.01v7.04l1.89-1.84v-7.04l1.1-1.11v-2.61h0ZM46.01,49.69l-1.1,1.13v13.71l-11.32,11.28-2.62,2.65v-2.61l2.62-2.64v-9.75l1.89-1.84v9.75l7.55-7.6v-16.04l1.89-1.84v2.33l1.1-1.13v2.6h0ZM30.97,28.76l4.51-4.49,10.53-10.55v2.61l-10.53,10.55v12.13l1.83-1.88v2.61l-1.83,1.88v1.09l-1.89,1.86v-15.86l-2.62,2.64v-2.6Z"/>
      <path class="cls-2" d="M43.02,33.42c.11,0,.16.02.26.03.21.11.37.34.37.58v5.57l.63-.63v-6.78c0-.17.05-.33.16-.44l.94-.94v-.86l-2.72,2.72v.87c.11-.09.26-.12.37-.12h0ZM43.02,41.69c-.05,0-.16-.02-.21-.05-.21-.11-.37-.31-.37-.57v-5.57c-.21.14-.42.17-.63.09-.26-.09-.42-.31-.42-.56v-2.6c0-.17.1-.33.21-.44l3.98-3.98c.16-.17.42-.23.68-.12.21.09.37.31.37.58v2.61c0,.16-.05.31-.21.43l-.94.92v6.8c0,.16-.05.31-.16.43l-1.83,1.84c-.1.13-.31.19-.47.19h0ZM33.59,28.12c-.16,0-.32.05-.42.17l-1.57,1.58v-.87l13.78-13.8v.87l-10.37,10.38c-.1.1-.16.26-.16.43v12.13c0,.25.16.47.37.58.21.08.52.03.68-.14l.84-.82v.87l-1.73,1.69c-.1.1-.16.28-.16.44v.85l-.63.61v-14.36c0-.24-.16-.47-.37-.57-.11-.02-.16-.04-.26-.04h0ZM33.59,45.19c-.05,0-.16-.02-.21-.05-.26-.09-.37-.31-.37-.56v-14.36l-1.62,1.58c-.16.17-.42.23-.68.13-.21-.09-.37-.31-.37-.56v-2.6c0-.17.05-.33.21-.44l15.04-15.05c.16-.17.42-.22.68-.12.21.08.37.31.37.57v2.61c0,.16-.05.31-.21.44l-10.38,10.37v10.38l.84-.82c.16-.17.42-.23.68-.12.21.08.37.32.37.56v2.61c0,.17-.05.33-.21.43l-1.68,1.7v.84c0,.17-.05.33-.16.44l-1.89,1.86c-.1.12-.26.17-.42.17h0ZM31.6,55.01v.87l1.57-1.58c.16-.17.42-.23.68-.14.21.11.37.33.37.57v.59l.63-.63v-3.82l-.63.61v.64c0,.15-.05.33-.21.44l-2.41,2.45h0ZM30.97,57.98c-.11,0-.16-.02-.26-.05-.21-.09-.37-.31-.37-.56v-2.6c0-.18.05-.33.21-.46l2.46-2.45v-.64c0-.16.05-.31.16-.43l1.83-1.85c.21-.17.47-.23.68-.14.21.1.37.33.37.58v5.57c0,.16-.05.31-.16.44l-1.89,1.86c-.16.17-.42.23-.63.12-.26-.08-.37-.31-.37-.57v-.57l-1.62,1.58c-.1.1-.26.17-.42.17h0ZM31.6,76.09l2.41-2.45c.16-.11.21-.26.21-.44v-9.49l.63-.62v8.27c0,.25.16.47.37.57.21.09.52.04.68-.14l7.6-7.6c.11-.1.16-.26.16-.44v-15.78l.63-.63v.85c0,.24.16.47.37.56.21.1.52.05.68-.12l.05-.07v.87l-.94.94c-.1.11-.16.26-.16.44v13.46l-12.68,12.69v-.87h0ZM30.97,79.07c-.11,0-.16-.02-.26-.05-.21-.09-.37-.32-.37-.56v-2.61c0-.17.05-.33.21-.43l2.46-2.45v-9.5c0-.16.05-.31.16-.44l1.83-1.84c.21-.17.47-.22.68-.14.21.1.37.31.37.58v8.26l6.39-6.35v-15.8c0-.16.05-.31.16-.43l1.83-1.84c.21-.19.47-.25.68-.14.26.09.37.31.37.58v.83l.1-.07c.16-.17.42-.23.68-.12.21.09.37.31.37.56v2.6c0,.17-.05.33-.21.45l-.94.92v13.47c0,.16-.05.31-.16.44l-13.94,13.92c-.1.13-.26.18-.42.18Z"/>
      <polygon class="cls-4" points="13.68 28.76 30.97 28.76 30.97 31.36 14.93 31.36 14.93 54.77 30.97 54.77 30.97 57.37 14.93 57.37 14.93 75.85 30.97 75.85 30.97 78.46 12.37 78.46 12.37 28.76 13.68 28.76"/>
      <path class="cls-2" d="M12.99,77.83h17.34v-1.37h-15.4c-.31,0-.58-.28-.58-.61v-18.48c0-.35.26-.62.58-.62h15.4v-1.37h-15.4c-.31,0-.58-.28-.58-.61v-23.4c0-.35.26-.62.58-.62h15.4v-1.37H12.99v48.46h0ZM30.97,79.07H12.37c-.37,0-.63-.28-.63-.61V28.76c0-.35.26-.63.63-.63h18.6c.31,0,.63.28.63.63v2.6c0,.33-.31.61-.63.61h-15.41v22.17h15.41c.31,0,.63.27.63.62v2.6c0,.34-.31.61-.63.61h-15.41v17.24h15.41c.31,0,.63.28.63.63v2.61c0,.32-.31.61-.63.61Z"/>
      <path class="cls-3" d="M63.77,59.7c2.1.37,3.77,2.63,3.77,5.02s-1.68,4.05-3.77,3.67c-2.1-.37-3.77-2.63-3.77-5.03s1.68-4.05,3.77-3.67Z"/>
      <path class="cls-2" d="M63.14,60.26c-.52,0-1.05.19-1.47.56-.68.56-1.05,1.5-1.05,2.56,0,2.12,1.47,4.1,3.25,4.41.73.14,1.41-.03,1.99-.5.63-.56,1.05-1.49,1.05-2.55,0-2.12-1.47-4.1-3.25-4.42h0c-.21-.03-.37-.05-.52-.05h0ZM64.35,69.07c-.21,0-.47-.03-.68-.07-2.36-.42-4.3-2.96-4.3-5.63,0-1.42.58-2.71,1.52-3.51.84-.7,1.89-.98,2.99-.77h0c2.36.42,4.24,2.96,4.24,5.63,0,1.43-.52,2.71-1.47,3.51-.68.54-1.47.83-2.31.83Z"/>
      <path class="cls-2" d="M62.93,58.36c-.84,0-1.68.3-2.36.84-1,.87-1.57,2.28-1.57,3.88,0,3.14,2.15,6.1,4.87,6.59,1.15.21,2.2-.07,3.04-.78,1.05-.85,1.62-2.26,1.62-3.86,0-3.14-2.2-6.1-4.87-6.59h0c-.26-.05-.52-.07-.73-.07h0ZM64.61,70.97c-.31,0-.63-.04-.94-.09-3.25-.59-5.92-4.09-5.92-7.8,0-1.96.79-3.73,2.04-4.82,1.15-.93,2.62-1.32,4.09-1.04h0c3.25.59,5.92,4.08,5.92,7.8,0,1.97-.79,3.72-2.1,4.82-.89.75-1.94,1.13-3.09,1.13Z"/>
    </g>
  </g>
</svg>