<?xml version="1.0" encoding="UTF-8"?>
<svg id="Layer_2" data-name="Layer 2" xmlns="http://www.w3.org/2000/svg" viewBox="0 0 23.3 43.75" fill="currentColor">
  <defs>
    <style>
      .cls-1 {
        fill: #fff;
      }

      .cls-1, .cls-2, .cls-3, .cls-4 {
        fill-rule: evenodd;
      }

      .cls-2 {
        fill: #1a87c7;
      }

      .cls-3 {
        fill: #bdedf8;
      }

      .cls-4 {
        fill: #66ceef;
      }
    </style>
  </defs>
  <g id="_Layer_" data-name="&amp;lt;Layer&amp;gt;">
    <g>
      <path class="cls-3" d="M2.34,43.34l-1.62-.94c-.33-.23-.39-.51-.41-.89V13.45c.02-.53.15-.9.41-1.36.28-.45.53-.74.98-1.03l2.96-1.71,1.77-1.02L15.26,3.22l1.54-.89,3.19-1.84c.34-.18.61-.27.98-.09l1.62.94c-.36-.17-.64-.08-.98.09l-3.19,1.84-1.54.89-8.85,5.11-1.76,1.02-2.96,1.71c-.45.29-.7.58-.98,1.03-.25.47-.38.83-.41,1.36v28.07c.02.38.08.66.41.89Z"/>
      <path class="cls-2" d="M20.59.61c-.12,0-.26.05-.46.16L1.85,11.32c-.41.26-.62.53-.87.93-.21.4-.34.71-.36,1.21v28.06c.02.36.08.5.27.64l.74.42s0-.08,0-.12V14.38c.03-.63.19-1.04.44-1.51.29-.47.56-.82,1.08-1.14L21.45,1.16s.08-.04.12-.06l-.76-.44c-.08-.04-.14-.05-.22-.05h0ZM2.34,43.65c-.05,0-.11-.01-.15-.04l-1.62-.93c-.48-.33-.54-.77-.56-1.15V13.45c.03-.62.19-1.04.44-1.51.29-.47.56-.82,1.08-1.15L19.83.23c.35-.18.75-.35,1.26-.11l1.64.95c.14.08.2.26.12.41-.08.15-.25.2-.4.14-.22-.1-.37-.08-.7.09L3.47,12.26c-.41.26-.62.53-.87.93-.21.4-.34.71-.36,1.21v28.05c.02.36.08.5.27.64.14.09.17.28.08.42-.06.09-.16.14-.26.14Z"/>
      <path class="cls-3" d="M21.61,32.69L3.31,43.25c-.76.44-1.38.08-1.38-.8V14.38c0-.88.62-1.95,1.38-2.39l2.96-1.71,1.76-1.02,8.85-5.11,1.54-.89,3.19-1.84c.76-.44,1.38-.08,1.38.8v28.07c0,.88-.62,1.95-1.38,2.39Z"/>
      <path class="cls-2" d="M21.61,32.69h0,0ZM22.22,1.55c-.14,0-.29.05-.46.15L3.47,12.26c-.66.39-1.23,1.36-1.23,2.13v28.07c0,.31.09.53.25.63.16.09.4.06.67-.09l18.29-10.56c.67-.39,1.23-1.36,1.23-2.13V2.23c0-.31-.09-.54-.25-.63-.06-.03-.13-.05-.21-.05h0ZM2.7,43.75c-.18,0-.36-.04-.52-.13-.36-.21-.56-.62-.56-1.16V14.38c0-1,.68-2.16,1.54-2.66L21.45,1.16c.47-.27.93-.3,1.28-.09.36.21.56.62.56,1.16v28.07c0,.99-.67,2.16-1.54,2.66h0L3.47,43.52c-.27.15-.53.23-.77.23Z"/>
      <path class="cls-1" d="M4.46,13.97v26.72l16.65-9.61V4.36c-5.55,3.2-11.1,6.41-16.65,9.61Z"/>
      <path class="cls-2" d="M4.77,14.15v26.01l16.03-9.25V4.89L4.77,14.15h0ZM4.46,41c-.05,0-.1-.01-.15-.04-.1-.05-.15-.15-.15-.27V13.97c0-.11.06-.21.15-.26L20.95,4.09c.1-.05.21-.05.31,0,.1.06.15.16.15.27v26.72c0,.11-.06.21-.15.27l-16.65,9.61s-.1.04-.15.04Z"/>
      <path class="cls-1" d="M10.28,11.82v-2.74c2.04-1.18,4.08-2.35,6.12-3.53v2.74c-2.04,1.18-4.08,2.35-6.12,3.53h0ZM17.3,8.65v-4.52l-7.92,4.57v4.52l7.92-4.58h0Z"/>
      <path class="cls-2" d="M10.59,9.25v2.03l5.5-3.18v-2.03l-5.5,3.18h0ZM10.28,12.12c-.05,0-.1-.01-.15-.04-.09-.06-.15-.16-.15-.27v-2.74c0-.11.06-.21.15-.26l6.12-3.53c.09-.06.21-.06.31,0,.1.06.16.16.16.26v2.74c0,.11-.06.21-.16.27l-6.11,3.53s-.1.04-.16.04h0ZM17.3,8.65h0,0ZM9.69,8.88l7.31-4.22v3.81l-7.31,4.22v-3.81h0ZM9.38,13.54c-.05,0-.1-.01-.15-.04-.1-.06-.15-.15-.15-.26v-4.52c0-.11.06-.21.15-.27l7.92-4.57c.1-.06.21-.06.31,0,.09.06.15.16.15.26v4.52c0,.11-.06.21-.15.27l-7.92,4.57s-.1.04-.15.04Z"/>
      <polygon class="cls-1" points="9.38 8.71 17.3 4.13 16.22 3.51 15.57 3.13 7.65 7.71 9.38 8.71"/>
      <path class="cls-2" d="M8.26,7.71l1.12.65,7.31-4.22-1.12-.64-7.3,4.22h0ZM9.38,9.02c-.05,0-.1-.01-.15-.04l-1.73-1c-.1-.06-.15-.16-.15-.27s.06-.21.15-.27l7.92-4.57c.1-.06.21-.05.31,0l1.73,1c.09.06.15.16.15.27s-.06.21-.15.27l-7.92,4.57s-.1.04-.15.04Z"/>
      <path class="cls-3" d="M7.04,19.04h0c-.33.19-.6.65-.6,1.03h0c0,.38.27.53.6.34h0c.33-.19.59-.65.59-1.03h0c0-.37-.26-.53-.59-.34Z"/>
      <path class="cls-2" d="M7.3,19.27s-.04,0-.11.04c-.23.13-.44.5-.44.76,0,.08.02.11.02.12,0,0,.04,0,.11-.04.23-.13.44-.5.44-.76,0-.08-.02-.11-.03-.12h0ZM6.77,20.81c-.11,0-.21-.03-.31-.08-.21-.12-.33-.36-.33-.65,0-.48.33-1.05.75-1.29.25-.15.52-.16.73-.04.21.12.33.36.33.65,0,.49-.33,1.05-.75,1.29-.14.08-.28.12-.42.12Z"/>
      <path class="cls-3" d="M7.04,22.73h0c-.33.19-.6.65-.6,1.03h0c0,.38.27.53.6.34h0c.33-.19.59-.65.59-1.03h0c0-.38-.26-.53-.59-.35Z"/>
      <path class="cls-2" d="M7.19,23c-.23.13-.44.5-.44.76,0,.08.02.11.02.12,0,0,.04,0,.11-.05.23-.13.44-.5.44-.76,0-.08-.02-.12-.03-.12,0,0-.04,0-.11.04h0ZM6.77,24.49c-.11,0-.21-.03-.31-.08-.21-.12-.33-.36-.33-.65,0-.48.33-1.05.75-1.29h0c.25-.15.52-.16.73-.04.21.12.33.36.33.65,0,.48-.33,1.05-.75,1.29-.14.08-.28.12-.42.12Z"/>
      <path class="cls-3" d="M7.04,26.65h0c-.33.19-.6.65-.6,1.03h0c0,.38.27.53.6.34h0c.33-.19.59-.65.59-1.03h0c0-.37-.26-.53-.59-.34Z"/>
      <path class="cls-2" d="M7.3,26.87s-.04,0-.11.04c-.23.13-.44.5-.44.76,0,.08.02.11.02.12,0,0,.04,0,.11-.04.23-.13.44-.5.44-.76,0-.08-.02-.11-.03-.12h0ZM6.77,28.4c-.11,0-.21-.03-.31-.08-.21-.12-.33-.36-.33-.65,0-.48.33-1.05.75-1.29.25-.15.52-.16.73-.04.21.12.33.36.33.65,0,.48-.33,1.05-.75,1.29-.14.08-.28.12-.42.12Z"/>
      <path class="cls-4" d="M2.34,43.34l-1.62-.94c-.13-.09-.22-.19-.28-.31-.15-.29-.12-.74-.12-1.07V14.2c0-.52-.03-.96.12-1.47.07-.23.17-.44.29-.65l1.62.94c-.16.26-.27.54-.34.83-.09.38-.07.71-.07,1.1v26.96c0,.28-.02.62.04.89.04.21.15.39.36.54Z"/>
      <path class="cls-2" d="M.85,12.5c-.04.1-.08.2-.12.31-.12.39-.12.75-.11,1.16v.23s0,26.98,0,26.98c0,.26,0,.6.09.78.04.08.1.14.19.2l.74.42c-.01-.17-.01-.34,0-.5v-.17s0-27.11,0-27.11c0-.34,0-.66.08-1.03.05-.22.13-.44.23-.64l-1.08-.63h0ZM2.34,43.65c-.05,0-.11-.01-.15-.04l-1.62-.94c-.19-.13-.31-.27-.4-.43-.17-.32-.17-.74-.16-1.07v-5.21S0,13.98,0,13.98c0-.44,0-.86.14-1.34.08-.26.18-.5.32-.72.09-.14.27-.19.42-.1l1.62.93c.07.04.12.11.14.19.02.08,0,.16-.04.24-.14.23-.24.47-.3.74-.07.3-.07.57-.07.89v27.29c0,.23,0,.46.03.64.04.16.1.26.24.36.14.09.18.28.09.42-.06.09-.16.14-.26.14Z"/>
      <polygon class="cls-3" points="7.65 8.6 8.42 9.04 8.42 12.67 9.38 13.23 9.38 8.71 7.65 7.71 7.65 8.6"/>
      <path class="cls-2" d="M8.73,12.49l.35.2v-3.81l-1.12-.64v.18l.62.36c.09.06.16.16.16.26v3.45h0ZM9.38,13.54c-.05,0-.1-.01-.15-.04l-.96-.55c-.1-.06-.15-.16-.15-.27v-3.45l-.62-.36c-.1-.05-.15-.16-.15-.27v-.89c0-.11.06-.21.15-.27.09-.05.21-.05.31,0l1.73,1c.1.06.16.16.16.27v4.52c0,.11-.06.21-.16.26-.05.03-.1.04-.15.04Z"/>
      <path class="cls-2" d="M9.36,18.9c-.11,0-.21-.06-.27-.15-.08-.15-.03-.33.11-.42l9.65-5.57c.14-.09.33-.04.42.11.09.14.03.33-.11.42l-9.65,5.57s-.1.04-.15.04Z"/>
      <path class="cls-2" d="M9.36,22.81c-.11,0-.21-.05-.27-.15-.08-.15-.03-.34.11-.42l9.65-5.57c.14-.08.33-.03.42.11.09.15.03.34-.11.42l-9.65,5.57s-.1.04-.15.04Z"/>
      <path class="cls-2" d="M9.36,26.5c-.11,0-.21-.06-.27-.16-.08-.15-.03-.33.11-.42l6.87-3.97c.15-.08.34-.03.42.11.09.15.04.34-.11.42l-6.88,3.97s-.1.04-.15.04Z"/>
      <polygon class="cls-1" points="15.44 6.1 15.44 7.63 16.4 8.28 16.4 5.54 15.44 6.1"/>
      <path class="cls-2" d="M15.75,7.47l.35.24v-1.63l-.35.2v1.19h0ZM16.4,8.59c-.06,0-.12-.02-.17-.06l-.96-.65c-.09-.06-.14-.15-.14-.25v-1.53c0-.11.06-.21.15-.27l.96-.56c.1-.06.21-.06.31,0,.1.06.16.16.16.26v2.74c0,.12-.06.22-.17.27-.04.02-.09.04-.14.04Z"/>
      <polygon class="cls-1" points="10.28 10.61 15.44 7.63 16.4 8.28 10.28 11.82 10.28 10.61"/>
      <path class="cls-2" d="M10.59,10.79v.5l5.23-3.02-.4-.27-4.83,2.79h0ZM10.28,12.12c-.05,0-.1-.01-.15-.04-.09-.06-.15-.16-.15-.27v-1.21c0-.11.06-.21.15-.27l5.16-2.97c.1-.06.23-.06.33.01l.96.65c.09.06.14.16.14.26,0,.11-.06.2-.16.26l-6.11,3.53s-.1.04-.16.04Z"/>
    </g>
  </g>
</svg>