<?xml version="1.0" encoding="UTF-8"?>
<svg id="Layer_2" data-name="Layer 2" xmlns="http://www.w3.org/2000/svg" viewBox="0 0 46.37 30.69" fill="currentColor">
  <defs>
    <style>
      .cls-1 {
        fill: #fff;
      }

      .cls-1, .cls-2, .cls-3, .cls-4 {
        fill-rule: evenodd;
      }

      .cls-2 {
        fill: #1a87c7;
      }

      .cls-3 {
        fill: #bdedf8;
      }

      .cls-4 {
        fill: #66ceef;
      }
    </style>
  </defs>
  <g id="_Layer_" data-name="&amp;lt;Layer&amp;gt;">
    <g>
      <path class="cls-4" d="M45.97,15.54v1.29c-.02.13-.15.31-.25.4-.08.08-.18.16-.29.22l-21.72,12.53c-.76.43-1.93.43-2.69,0L.93,18.38c-.22-.13-.43-.31-.51-.57l-.02-.04v-1.29c.09.29.29.46.54.61l20.09,11.62c.77.42,1.93.42,2.69,0l21.72-12.54c.26-.15.45-.33.54-.62Z"/>
      <path class="cls-2" d="M.79,17.71c.06.14.17.25.34.35l20.09,11.61c.65.35,1.67.35,2.31,0l21.71-12.54c.08-.05.16-.11.21-.16.06-.06.13-.16.14-.19v-.26l-21.69,12.53c-.88.5-2.19.5-3.06,0L.79,17.45v.26h0ZM22.37,30.69c-.55,0-1.1-.12-1.53-.37L.74,18.72c-.36-.21-.58-.47-.69-.77-.01-.05-.04-.14-.04-.17v-1.29c0-.19.14-.36.32-.38.19-.02.38.08.42.27.06.15.15.27.37.4l20.09,11.61c.65.37,1.67.37,2.31,0l21.71-12.55c.21-.12.31-.24.37-.39.05-.18.24-.3.42-.28.18.03.32.19.32.38v1.29c-.05.37-.32.65-.36.68-.09.1-.21.18-.37.27l-21.72,12.54c-.44.25-.99.37-1.54.37Z"/>
      <path class="cls-3" d="M.93,15.54L22.66,3c.74-.43,1.95-.42,2.69,0l20.09,11.61c.74.43.74,1.13,0,1.56l-21.72,12.54c-.74.42-1.95.42-2.69-.01L.93,17.09c-.74-.42-.73-1.12,0-1.55Z"/>
      <path class="cls-2" d="M.93,15.54h.01-.01ZM24,3.06c-.42,0-.84.09-1.15.27L1.13,15.88c-.24.13-.37.29-.37.44s.13.31.37.45l20.09,11.61c.63.35,1.68.35,2.31,0l21.71-12.55c.24-.13.37-.29.37-.44s-.13-.31-.37-.45L25.15,3.33c-.31-.18-.73-.27-1.15-.27h0ZM22.37,29.41c-.55,0-1.1-.13-1.54-.38L.74,17.42c-.47-.27-.74-.68-.74-1.11s.27-.83.75-1.11L22.46,2.68c.86-.51,2.21-.51,3.06,0l20.1,11.61c.47.27.74.68.74,1.11s-.27.83-.74,1.11l-21.72,12.54c-.43.25-.98.38-1.54.38Z"/>
      <path class="cls-1" d="M19.7,24.14v.98c.47,2.27,6.13,2.31,6.61,0v-.98c-.47,2.3-6.05,2.25-6.58.09l-.02-.09Z"/>
      <path class="cls-2" d="M20.31,25.57c.51.59,1.67.88,2.71.88h0c.99,0,2.1-.27,2.63-.86-.71.44-1.67.63-2.5.65-.99.02-2.09-.18-2.84-.67h0ZM23.02,27.22c-1.63,0-3.41-.62-3.7-2.02v-1.05c-.01-.2.14-.36.33-.38.2-.02.38.11.41.3l.02.09c.22.9,1.69,1.36,3.05,1.32,1.26-.02,2.61-.47,2.81-1.41.03-.19.2-.32.41-.3.2.02.35.18.35.38v.98c-.3,1.47-2.06,2.1-3.67,2.1h0Z"/>
      <path class="cls-1" d="M25.35,22.6c-1.29-.75-3.4-.75-4.69,0-1.3.75-1.3,1.96,0,2.71,1.29.75,3.4.75,4.69,0,1.3-.75,1.3-1.96,0-2.71Z"/>
      <path class="cls-2" d="M23,22.43c-.79,0-1.57.16-2.15.51-.51.29-.79.66-.79,1.02s.28.73.78,1.02c1.17.68,3.15.68,4.33,0,.49-.29.77-.66.77-1.02s-.28-.73-.77-1.02c-.59-.34-1.38-.51-2.16-.51h0ZM23,26.26c-.91,0-1.83-.2-2.54-.61-.75-.44-1.16-1.03-1.16-1.69s.41-1.25,1.16-1.69c1.42-.82,3.66-.82,5.08,0h0c.75.44,1.16,1.04,1.16,1.69s-.41,1.25-1.16,1.69c-.71.41-1.62.61-2.54.61Z"/>
      <path class="cls-1" d="M25.32,12.32v11.43c-.4,1.53-4.28,1.53-4.66,0v-.06s-.01-11.36-.01-11.36c.01.05.01.08.03.13.06.16.16.31.28.43.3.29.74.47,1.14.57.78.18,1.75.12,2.45-.25.23-.12.45-.29.6-.49.06-.1.12-.2.15-.32v-.06Z"/>
      <path class="cls-2" d="M21.04,13.41v10.26c.13.47.95.83,1.96.83h0c1,0,1.83-.35,1.95-.86v-10.23c-.07.06-.14.08-.2.12-.75.4-1.79.5-2.71.29-.24-.07-.64-.18-.99-.41h0ZM22.99,25.27h0c-1.07,0-2.43-.38-2.69-1.43-.01-.03-.03-.13-.03-.16v-11.36c0-.19.15-.36.36-.38.19-.02.36.12.41.31.04.17.11.27.2.35.2.2.56.38.96.47.74.17,1.6.09,2.18-.22.22-.11.38-.24.47-.38.04-.05.08-.13.09-.18.05-.2.24-.34.43-.32.18.02.34.16.34.35v11.36s-.01.12-.02.14c-.27,1.08-1.62,1.45-2.69,1.45Z"/>
      <path class="cls-2" d="M24.19,23.77c-.2,0-.38-.17-.38-.39v-8.77c0-.21.17-.38.38-.38.21,0,.39.17.39.38v8.77c0,.22-.17.39-.39.39Z"/>
      <path class="cls-2" d="M23,24.1c-.21,0-.38-.17-.38-.39v-9.45c0-.21.17-.39.38-.39s.38.17.38.39v9.45c0,.21-.16.39-.38.39Z"/>
      <path class="cls-2" d="M21.82,23.85c-.2,0-.38-.17-.38-.39v-9.3c0-.21.17-.38.38-.38s.39.16.39.38v9.3c0,.21-.17.39-.39.39Z"/>
      <path class="cls-1" d="M35.17,14.87v.98c.47,2.27,6.13,2.32,6.62,0v-.98c-.47,2.3-6.06,2.25-6.6.1l-.02-.1Z"/>
      <path class="cls-2" d="M35.78,16.3c.51.59,1.67.89,2.71.89h0c.99,0,2.09-.28,2.61-.87-.71.44-1.65.63-2.49.65-1.01.01-2.08-.18-2.84-.67h0ZM38.5,17.94c-1.62,0-3.4-.63-3.69-2.02v-1.05c0-.19.14-.35.32-.38.21-.01.38.11.42.3l.02.09c.23.9,1.73,1.36,3.05,1.32,1.25-.02,2.6-.47,2.8-1.41.04-.19.2-.32.41-.3.2.02.34.18.34.38v.98c-.29,1.47-2.06,2.1-3.66,2.1h0Z"/>
      <path class="cls-1" d="M40.83,13.33c-1.3-.75-3.4-.75-4.7,0-1.29.76-1.29,1.96,0,2.71,1.3.75,3.4.75,4.7,0,1.29-.76,1.29-1.96,0-2.71Z"/>
      <path class="cls-2" d="M38.49,13.16c-.8,0-1.58.16-2.16.5-.51.29-.78.66-.78,1.02s.28.73.78,1.02c1.17.68,3.14.68,4.31,0,.51-.29.79-.64.79-1.02s-.28-.73-.79-1.02c-.58-.34-1.37-.5-2.15-.5h0ZM38.49,16.98c-.91,0-1.83-.2-2.54-.61-.75-.44-1.17-1.03-1.17-1.69s.42-1.25,1.17-1.69c1.42-.82,3.65-.82,5.08,0h0c.74.44,1.16,1.03,1.16,1.69s-.42,1.26-1.16,1.69c-.72.41-1.63.61-2.54.61Z"/>
      <path class="cls-1" d="M40.8,9.22v5.25c-.39,1.53-4.27,1.53-4.65,0l-.02-.07v-5.19s.02.09.03.13c.06.16.16.31.28.43.3.29.74.47,1.14.57.78.18,1.74.12,2.45-.25.23-.12.46-.29.6-.51.06-.08.13-.2.15-.31v-.07Z"/>
      <path class="cls-2" d="M36.52,10.31v4.09c.12.47.94.83,1.95.83h0c1.01,0,1.83-.36,1.96-.86v-4.06c-.08.05-.14.09-.2.12-.75.39-1.8.5-2.72.28-.24-.05-.63-.17-.98-.4h0ZM38.46,16h0c-1.08,0-2.42-.38-2.69-1.43-.01-.03-.02-.13-.02-.16v-5.19c0-.19.15-.35.34-.38.2-.03.37.11.41.3.06.17.12.28.2.37.2.2.56.38.96.46.75.18,1.61.09,2.19-.22.2-.11.38-.24.46-.38.04-.06.07-.13.1-.18.04-.19.21-.35.42-.32.19.02.34.15.34.34v5.19s-.02.12-.02.14c-.27,1.08-1.62,1.45-2.7,1.45Z"/>
      <path class="cls-2" d="M39.67,14.5c-.21,0-.39-.17-.39-.39v-3.86c0-.2.17-.38.39-.38s.38.18.38.38v3.86c0,.22-.17.39-.38.39Z"/>
      <path class="cls-2" d="M38.49,14.83c-.22,0-.39-.17-.39-.39v-4.03c0-.2.17-.38.39-.38.2,0,.38.17.38.38v4.03c0,.21-.18.39-.38.39Z"/>
      <path class="cls-2" d="M37.3,14.57c-.22,0-.39-.17-.39-.39v-3.73c0-.22.17-.39.39-.39.2,0,.38.17.38.39v3.73c0,.21-.17.39-.38.39Z"/>
      <path class="cls-1" d="M27.62,10.52v.97c.47,2.28,6.13,2.33,6.61,0v-.97c-.47,2.3-6.05,2.25-6.59.08l-.02-.08Z"/>
      <path class="cls-2" d="M28.23,11.95c.5.59,1.67.88,2.71.88.99,0,2.1-.27,2.63-.86-.71.44-1.67.63-2.51.65-.97.02-2.08-.19-2.83-.67h0ZM30.94,13.59c-1.63,0-3.41-.62-3.7-2.02v-1.05c-.01-.19.14-.37.33-.38.19-.02.38.1.41.3l.02.09c.23.9,1.69,1.33,3.05,1.32,1.25-.02,2.6-.47,2.81-1.41.03-.2.21-.32.41-.3.19,0,.34.18.34.38v.97c-.3,1.48-2.06,2.11-3.67,2.11Z"/>
      <path class="cls-1" d="M33.27,8.98c-1.29-.75-3.4-.75-4.69,0-1.3.74-1.3,1.96,0,2.71,1.29.74,3.4.74,4.69,0,1.3-.75,1.3-1.97,0-2.71Z"/>
      <path class="cls-2" d="M30.92,8.8c-.79,0-1.57.17-2.16.51-.49.3-.77.66-.77,1.03s.28.73.77,1.02c1.17.68,3.16.68,4.33,0,.5-.29.77-.66.77-1.02s-.28-.73-.77-1.03c-.59-.33-1.38-.51-2.16-.51h0ZM30.92,12.64c-.91,0-1.83-.21-2.54-.62-.75-.43-1.16-1.02-1.16-1.68s.41-1.26,1.16-1.69c1.42-.82,3.66-.82,5.08,0,.75.43,1.16,1.03,1.16,1.69s-.41,1.25-1.16,1.68c-.71.42-1.62.62-2.54.62Z"/>
      <path class="cls-1" d="M13.47,12.58c1.61.94,4.73.57,5.11-1.23v-1.02c-.08.44-.44.87-1.05,1.22-1.35.74-2.77,1.79-4.06,1.03Z"/>
      <path class="cls-2" d="M18.05,11.67c-.11.07-.22.14-.33.21-.17.08-.34.18-.52.29-.27.15-.54.3-.81.45.27-.06.53-.13.77-.24.31-.13.68-.37.9-.72h0ZM15.56,13.47c-.83,0-1.66-.19-2.28-.55-.18-.11-.25-.34-.14-.53.11-.18.33-.24.52-.14.95.55,2.02-.07,3.16-.74.18-.1.36-.19.53-.29.49-.28.79-.61.86-.96.03-.19.2-.33.41-.31.19.02.34.18.34.39v1.02c-.16.8-.68,1.38-1.49,1.74-.57.25-1.24.38-1.91.38Z"/>
      <path class="cls-1" d="M17.62,8.84c-.82-.44-1.67-.26-2.5.12-.53.7-1.1.39-1.1,1.48,0,.61-.56,1.55-.56,2.15,1.29.76,2.71-.29,4.06-1.03,1.36-.75,1.46-1.96.1-2.71Z"/>
      <path class="cls-2" d="M13.88,12.36c.88.34,1.88-.24,2.94-.85.18-.1.36-.19.53-.29.56-.31.87-.7.87-1.07,0-.35-.28-.69-.78-.97h0c-.57-.31-1.22-.28-2.08.1-.21.27-.45.4-.62.51-.26.15-.33.19-.33.66,0,.38-.15.79-.3,1.21-.09.26-.18.5-.23.72h0ZM14.43,13.22c-.39,0-.78-.08-1.15-.3-.12-.07-.19-.19-.19-.33,0-.36.16-.79.3-1.2.13-.34.26-.71.26-.95,0-.83.31-1.08.71-1.31.16-.1.31-.18.46-.39.04-.06.09-.1.15-.12.71-.32,1.77-.69,2.84-.11h0c.75.42,1.17.99,1.17,1.64s-.46,1.29-1.26,1.73c-.17.09-.34.19-.52.3-.87.49-1.82,1.04-2.77,1.04Z"/>
      <path class="cls-1" d="M12.1,19.43v.97c.47,2.28,6.13,2.33,6.61,0v-.97c-.47,2.29-6.06,2.25-6.59.08l-.02-.08Z"/>
      <path class="cls-2" d="M12.74,20.86c.51.57,1.63.88,2.7.88h0c.99,0,2.09-.28,2.62-.86-.71.43-1.66.63-2.5.65-1.02.01-2.07-.19-2.82-.67h0ZM15.44,22.5c-1.63,0-3.41-.62-3.7-2.03v-1.04c0-.2.14-.37.33-.39.19,0,.37.12.41.3l.02.1c.22.89,1.69,1.36,3.05,1.32,1.24-.03,2.6-.47,2.8-1.42.04-.18.2-.33.42-.3.19.02.33.18.33.39v.97c-.29,1.48-2.05,2.11-3.66,2.11h0Z"/>
      <path class="cls-1" d="M17.76,17.88c-1.3-.74-3.4-.74-4.7,0-1.29.75-1.29,1.97,0,2.71,1.3.75,3.4.75,4.7,0,1.29-.74,1.29-1.96,0-2.71Z"/>
      <path class="cls-2" d="M15.42,17.71c-.78,0-1.58.17-2.16.51-.51.29-.79.66-.79,1.03s.28.73.79,1.02c1.17.67,3.14.68,4.31,0,.51-.29.79-.66.79-1.02s-.28-.74-.79-1.03h0c-.58-.33-1.37-.51-2.15-.51h0ZM15.42,21.54c-.91,0-1.83-.2-2.54-.62-.75-.43-1.16-1.03-1.16-1.68s.41-1.26,1.16-1.69c1.42-.83,3.65-.83,5.08,0h0c.74.43,1.16,1.03,1.16,1.69s-.42,1.25-1.16,1.68c-.72.41-1.62.62-2.54.62Z"/>
      <path class="cls-1" d="M17.73,16.04v2.98c-.39,1.54-4.27,1.54-4.66,0v-.07s-.01-2.52-.01-2.52c.01.05.02.09.03.13.06.16.16.31.28.43.3.29.74.47,1.14.57,1.34.31,2.83.03,3.21-1.46v-.07Z"/>
      <path class="cls-2" d="M13.45,17.53v1.42c.12.48.95.84,1.95.84h0c1.01,0,1.83-.36,1.96-.86v-1.51c-.68.59-1.71.8-2.93.51-.24-.05-.63-.17-.98-.4h0ZM15.4,20.54h0c-1.08,0-2.42-.36-2.69-1.43,0-.03-.02-.13-.02-.16v-2.52c0-.19.15-.35.34-.38.2-.02.37.11.41.3.05.17.12.28.2.37.22.2.56.37.96.46.39.1,2.34.46,2.75-1.18.04-.18.23-.34.42-.32.19.03.35.16.35.36v2.91s-.02.12-.02.15c-.27,1.08-1.62,1.44-2.7,1.44Z"/>
      <path class="cls-2" d="M16.6,19.05c-.21,0-.39-.18-.39-.38v-1.25c0-.21.18-.39.39-.39s.38.17.38.39v1.25c0,.2-.17.38-.38.38Z"/>
      <path class="cls-2" d="M15.42,19.38c-.22,0-.39-.17-.39-.38v-1.37c0-.2.17-.38.39-.38.2,0,.38.17.38.38v1.37c0,.2-.17.38-.38.38Z"/>
      <path class="cls-2" d="M14.23,19.13c-.22,0-.39-.17-.39-.38v-1.27c0-.2.17-.38.39-.38.2,0,.38.17.38.38v1.27c0,.2-.17.38-.38.38Z"/>
      <path class="cls-1" d="M4.29,15.03v.98c.47,2.27,6.13,2.32,6.6,0v-.98c-.47,2.31-6.05,2.25-6.58.1l-.02-.1Z"/>
      <path class="cls-2" d="M4.91,16.46c.49.59,1.67.88,2.71.88.99,0,2.1-.27,2.62-.86-.71.44-1.67.62-2.51.64-1,.04-2.08-.19-2.83-.66h0ZM7.62,18.1c-1.64,0-3.41-.62-3.7-2.02v-1.06c-.01-.19.14-.35.33-.38.2-.02.38.11.42.3v.09c.24.87,1.63,1.32,2.94,1.32h.12c1.26-.02,2.61-.47,2.81-1.41.03-.19.19-.32.41-.3.19.02.34.18.34.38v.98c-.3,1.48-2.06,2.1-3.67,2.1Z"/>
      <path class="cls-1" d="M9.94,13.49c-1.29-.75-3.4-.75-4.69,0-1.3.75-1.3,1.96,0,2.71,1.29.75,3.4.75,4.69,0,1.3-.75,1.3-1.96,0-2.71Z"/>
      <path class="cls-2" d="M7.6,13.32c-.78,0-1.57.16-2.15.51-.51.29-.78.65-.78,1.02s.28.73.78,1.02c1.16.68,3.14.68,4.31,0,.51-.29.78-.65.78-1.02s-.27-.73-.78-1.02h0c-.59-.34-1.38-.51-2.16-.51h0ZM7.6,17.15c-.91,0-1.83-.2-2.54-.61-.75-.44-1.16-1.03-1.16-1.69s.41-1.25,1.16-1.69c1.42-.82,3.66-.82,5.08,0h0c.75.44,1.16,1.03,1.16,1.69s-.41,1.25-1.16,1.69c-.71.41-1.62.61-2.54.61Z"/>
      <path class="cls-1" d="M9.92,7.93v6.7c-.4,1.53-4.28,1.53-4.66,0v-.06s0-6.64,0-6.64c0,.04,0,.09.03.13.06.16.16.31.28.43.29.29.74.47,1.14.57.77.18,1.74.12,2.45-.25.23-.12.45-.29.6-.51.06-.09.12-.2.15-.31v-.06Z"/>
      <path class="cls-2" d="M5.63,9.02v5.54c.13.47.95.83,1.96.83h0c1,0,1.83-.35,1.95-.86v-5.51c-.06.05-.14.09-.2.12-.74.39-1.78.49-2.71.28-.24-.05-.64-.17-.99-.4h0ZM7.59,16.16h0c-1.08,0-2.43-.38-2.69-1.43,0-.03-.03-.13-.03-.16v-6.64c0-.19.15-.35.35-.38.21-.03.38.11.41.3.06.17.12.28.22.36.2.21.56.37.96.46.74.17,1.61.1,2.2-.21.2-.11.37-.24.46-.38.04-.06.08-.13.08-.18.06-.19.24-.35.43-.32.18.02.33.15.33.34v6.64s-.01.12-.02.14c-.26,1.08-1.61,1.45-2.69,1.45Z"/>
      <path class="cls-2" d="M8.78,14.66c-.2,0-.38-.17-.38-.39v-5.32c0-.2.17-.38.38-.38s.39.18.39.38v5.32c0,.22-.17.39-.39.39Z"/>
      <path class="cls-2" d="M7.6,15c-.2,0-.38-.17-.38-.39v-5.45c0-.21.17-.39.38-.39.21,0,.39.17.39.39v5.45c0,.22-.17.39-.39.39Z"/>
      <path class="cls-2" d="M6.41,14.74c-.2,0-.38-.17-.38-.39v-5.38c0-.2.17-.38.38-.38.22,0,.39.17.39.38v5.38c0,.21-.17.39-.39.39Z"/>
      <path class="cls-1" d="M27.37,19.41v.97c.47,2.28,6.13,2.32,6.62,0v-.97c-.47,2.3-6.06,2.25-6.6.08l-.02-.08Z"/>
      <path class="cls-2" d="M27.98,20.84c.51.59,1.68.88,2.72.88.99,0,2.09-.27,2.63-.86-.72.44-1.67.62-2.51.65-1,.02-2.08-.19-2.84-.67h0ZM30.71,22.48c-1.63,0-3.41-.63-3.7-2.02v-1.05c-.01-.19.14-.37.33-.38.21-.02.37.11.41.3l.02.09c.23.9,1.7,1.33,3.05,1.32,1.25-.02,2.6-.47,2.8-1.41.04-.19.22-.32.42-.3.19,0,.33.18.33.38v.97c-.29,1.48-2.06,2.11-3.66,2.11Z"/>
      <path class="cls-1" d="M33.03,17.87c-1.3-.75-3.4-.75-4.69,0-1.3.74-1.3,1.96-.01,2.71,1.3.74,3.4.74,4.7,0,1.3-.75,1.3-1.97,0-2.71Z"/>
      <path class="cls-2" d="M30.69,17.68c-.79,0-1.57.17-2.16.51-.51.3-.78.65-.78,1.03,0,.36.27.73.78,1.02,1.17.68,3.15.68,4.31,0,.51-.29.79-.65.79-1.02s-.28-.73-.79-1.03h0c-.58-.33-1.37-.51-2.15-.51h0ZM30.69,21.52c-.92,0-1.83-.2-2.54-.62-.75-.43-1.16-1.02-1.16-1.68s.41-1.26,1.16-1.69c1.42-.82,3.66-.82,5.08,0h0c.74.43,1.16,1.03,1.16,1.69s-.42,1.25-1.16,1.68c-.71.42-1.62.62-2.54.62Z"/>
      <path class="cls-1" d="M17.05,14.68c-.9-.53-2.38.28-3.28.81-.9.53-.9,1.38,0,1.89.9.53,2.38.53,3.28,0,.9-.52.9-2.17,0-2.7Z"/>
      <path class="cls-2" d="M16.36,14.9c-.8,0-1.88.62-2.4.92-.31.17-.5.4-.5.61s.18.44.5.61c.79.46,2.11.46,2.91.01.3-.18.48-.57.48-1.02s-.18-.85-.48-1.02h0c-.15-.08-.32-.12-.51-.12h0ZM15.42,18.16c-.67,0-1.32-.15-1.84-.44-.56-.32-.87-.78-.87-1.28s.31-.96.87-1.28c.89-.51,2.54-1.45,3.67-.8h0c.54.31.87.96.87,1.69s-.33,1.37-.87,1.68c-.52.29-1.17.44-1.83.44Z"/>
      <path class="cls-1" d="M19.7,11.57v.98c.47,2.27,6.13,2.31,6.61,0v-.98c-.47,2.3-6.05,2.25-6.58.08l-.02-.08Z"/>
      <path class="cls-2" d="M20.32,13.01c.5.56,1.64.87,2.7.87h0c.99,0,2.1-.27,2.63-.86-.71.44-1.67.62-2.5.65-1.02,0-2.07-.18-2.83-.66h0ZM23.02,14.65c-1.63,0-3.41-.62-3.7-2.02v-1.05c-.01-.19.14-.36.33-.38.2-.02.38.11.41.3l.02.08c.22.9,1.69,1.37,3.05,1.32,1.26-.02,2.61-.47,2.81-1.41.03-.19.2-.34.41-.3.2.02.35.18.35.38v.98c-.3,1.47-2.06,2.1-3.67,2.1h0Z"/>
      <path class="cls-1" d="M25.35,10.03c-1.29-.75-3.4-.75-4.69,0-1.3.74-1.3,1.96,0,2.71,1.29.74,3.4.75,4.69,0,1.3-.75,1.3-1.97,0-2.71Z"/>
      <path class="cls-2" d="M23,9.85c-.79,0-1.57.17-2.15.51-.51.29-.79.66-.79,1.02s.28.73.78,1.02c1.17.68,3.15.68,4.33,0,.49-.29.77-.66.77-1.02s-.28-.73-.77-1.02c-.59-.34-1.38-.51-2.16-.51h0ZM23,13.69c-.91,0-1.83-.2-2.54-.61-.75-.44-1.16-1.03-1.16-1.69s.41-1.26,1.16-1.69c1.42-.82,3.66-.82,5.08,0h0c.75.43,1.16,1.03,1.16,1.69s-.41,1.25-1.16,1.69c-.71.41-1.62.61-2.54.61Z"/>
      <path class="cls-1" d="M19.63,5.74v.97c.47,2.28,6.14,2.33,6.62,0v-.97c-.47,2.3-6.06,2.25-6.6.08l-.02-.08Z"/>
      <path class="cls-2" d="M20.25,7.16c.5.6,1.68.9,2.72.9h0c.99,0,2.09-.27,2.61-.86-.71.44-1.66.62-2.5.64-1,.02-2.07-.19-2.84-.68h0ZM22.97,8.82c-1.64,0-3.41-.62-3.7-2.02v-1.05c-.01-.19.14-.37.33-.38.19-.02.37.11.41.3l.02.08c.23.9,1.68,1.35,3.05,1.32,1.25-.02,2.6-.47,2.79-1.41.05-.19.2-.34.42-.3.19.01.33.18.33.38v.97c-.29,1.48-2.05,2.11-3.66,2.11h0Z"/>
      <path class="cls-1" d="M25.29,4.2c-1.3-.75-3.4-.75-4.69,0-1.3.74-1.3,1.96,0,2.71,1.29.74,3.39.74,4.69,0,1.3-.75,1.3-1.97,0-2.71Z"/>
      <path class="cls-2" d="M22.95,4.02c-.79,0-1.57.17-2.16.51-.51.29-.77.66-.77,1.03s.27.73.77,1.02c1.17.68,3.15.68,4.32,0,.51-.29.78-.66.78-1.02s-.28-.74-.78-1.03h0c-.58-.33-1.37-.51-2.15-.51h0ZM22.95,7.86c-.91,0-1.83-.2-2.54-.62-.75-.43-1.16-1.02-1.16-1.68s.41-1.26,1.16-1.69c1.42-.82,3.66-.82,5.08,0h0c.74.43,1.16,1.03,1.16,1.69s-.41,1.25-1.16,1.68c-.71.42-1.62.62-2.54.62Z"/>
      <path class="cls-1" d="M9.24,6.98c-.91-.53-2.23-.06-3.28,0-1.05.05-1.04,1.45-.01,1.89,1.04.44,2.38.53,3.29,0,.9-.52.9-1.37,0-1.89Z"/>
      <path class="cls-2" d="M8.16,7.12c-.38,0-.79.07-1.2.12-.34.05-.68.11-.99.12-.24.02-.37.13-.41.32-.04.29.12.66.54.85,1.03.43,2.21.44,2.95.02.31-.19.48-.41.48-.63s-.17-.44-.48-.61c-.25-.15-.56-.19-.89-.19h0ZM7.7,9.63c-.62,0-1.28-.14-1.89-.4-.79-.34-1.1-1.1-1-1.68.11-.56.54-.93,1.13-.95.28-.02.59-.06.9-.12.86-.13,1.83-.28,2.58.16h0c.56.33.86.79.86,1.28s-.3.96-.87,1.28c-.47.28-1.08.42-1.72.42Z"/>
      <path class="cls-1" d="M33.24,3.97v6.16c-.4,1.53-4.28,1.53-4.66,0v-.06s-.01-6.64-.01-6.64c-.02,1.05,3.81,1.79,4.66.61v-.07Z"/>
      <path class="cls-2" d="M28.95,4.44v5.62c.13.46.95.83,1.96.83h0c1,0,1.83-.37,1.95-.86v-5.26c-.91.4-2.31.26-3.24-.05-.25-.08-.47-.18-.67-.28h0ZM30.91,11.65h0c-1.08,0-2.43-.38-2.69-1.44-.01-.04-.03-.12-.03-.15V3.41c0-.2.14-.38.39-.38.2.01.38.17.38.39h0c0,.1.24.36.9.58,1.11.35,2.62.37,3.05-.17.07-.13.21-.23.38-.21.2.02.34.15.34.35v6.09s-.01.12-.02.14c-.27,1.08-1.61,1.45-2.69,1.45Z"/>
      <path class="cls-2" d="M32.1,10.15c-.2,0-.38-.17-.38-.39v-5.31c0-.22.17-.38.38-.38.22,0,.39.16.39.38v5.31c0,.22-.17.39-.39.39Z"/>
      <path class="cls-2" d="M30.92,10.49c-.21,0-.38-.17-.38-.39v-5.45c0-.21.16-.39.38-.39s.38.17.38.39v5.45c0,.21-.16.39-.38.39Z"/>
      <path class="cls-2" d="M29.74,10.22c-.2,0-.38-.16-.38-.38v-5.38c0-.21.17-.38.38-.38.22,0,.39.16.39.38v5.38c0,.21-.17.38-.39.38Z"/>
      <path class="cls-1" d="M32.61,3.31c-.93-.54-2.23-.37-3.3-.31-1.08.05-1.08.96,0,1.41,1.06.46,2.37.86,3.3.31.94-.54.94-.87,0-1.41Z"/>
      <path class="cls-2" d="M30.78,3.31c-.34,0-.69.02-1.02.04l-.43.02c-.32.02-.44.12-.45.16,0,.09.14.33.58.52.87.38,2.13.82,2.97.34.43-.26.49-.38.51-.4,0,.01-.05-.1-.51-.35h0c-.46-.27-1.04-.33-1.65-.33h0ZM31.55,5.37c-.85,0-1.72-.31-2.39-.6-.72-.3-1.12-.84-1.02-1.36.07-.46.51-.77,1.15-.8l.43-.02c1.01-.06,2.17-.14,3.09.39h0c.46.27.89.58.89,1.04s-.43.76-.89,1.03c-.39.23-.82.31-1.26.31Z"/>
      <path class="cls-1" d="M36.75,7.86c1.01-.46,2.56.02,3.51.61.94.58.88,1.43-.12,1.88-1.01.46-2.59.37-3.54-.23-.94-.58-.86-1.81.15-2.27Z"/>
      <path class="cls-2" d="M36.75,7.86h0,0ZM37.7,8.06c-.29,0-.56.04-.78.14h0c-.35.16-.56.44-.58.78-.02.32.15.64.47.83.83.52,2.28.61,3.17.2.34-.16.56-.37.57-.57,0-.21-.17-.44-.5-.65-.65-.42-1.59-.73-2.36-.73h0ZM38.64,11.04c-.81,0-1.63-.2-2.24-.57-.57-.36-.88-.92-.84-1.54.04-.61.42-1.14,1.02-1.41,1.13-.52,2.8-.03,3.86.64.59.35.89.83.86,1.33-.03.51-.4.94-1.02,1.23-.47.22-1.05.32-1.65.32Z"/>
      <path class="cls-1" d="M25.27,1.2v4.08l-.02.07c-.38,1.53-4.26,1.53-4.64,0l-.02-.07V1.2s.02.08.04.13c.05.16.16.31.29.43.29.29.73.47,1.13.57.77.17,1.75.12,2.46-.26.22-.12.45-.28.6-.49.07-.09.12-.2.14-.31l.02-.07Z"/>
      <path class="cls-2" d="M20.98,2.3v2.98c.12.46.95.83,1.95.83h0c1.01,0,1.83-.36,1.96-.86v-2.95c-.07.04-.14.08-.2.12-.75.39-1.8.49-2.72.28-.24-.06-.63-.17-.98-.4h0ZM22.93,6.87h0c-1.07,0-2.42-.38-2.69-1.44,0-.04-.02-.12-.02-.15V1.2c0-.19.15-.36.35-.38.21-.02.37.11.41.3.05.17.12.27.2.36.21.2.56.37.96.46.75.17,1.62.08,2.2-.21.2-.11.38-.25.46-.38.04-.06.08-.13.09-.19.05-.18.24-.33.42-.31.19.02.34.15.34.35v4.08s-.02.12-.02.14c-.27,1.08-1.62,1.45-2.7,1.45Z"/>
      <path class="cls-2" d="M24.13,5.38c-.21,0-.38-.17-.38-.39v-2.75c0-.2.16-.38.38-.38s.38.17.38.38v2.75c0,.22-.16.39-.38.39Z"/>
      <path class="cls-2" d="M22.95,5.71c-.21,0-.39-.17-.39-.39v-2.92c0-.2.17-.38.39-.38s.38.17.38.38v2.92c0,.22-.17.39-.38.39Z"/>
      <path class="cls-2" d="M21.76,5.44c-.21,0-.39-.16-.39-.38v-2.63c0-.21.17-.39.39-.39s.38.17.38.39v2.63c0,.21-.17.38-.38.38Z"/>
      <path class="cls-1" d="M21.24.43c1.01.34,2.54.2,3.49.02.93-.18.88,1.43-.12,1.89-1.01.46-2.59.37-3.53-.22-.95-.58-.85-2.02.16-1.69Z"/>
      <path class="cls-2" d="M20.96.76c-.09,0-.11.04-.12.07-.11.21.01.7.43.96.84.52,2.29.61,3.17.2.46-.21.64-.79.55-1.06-.03-.1-.06-.13-.19-.11-1.11.21-2.65.31-3.68-.04-.07-.02-.12-.03-.16-.03h0ZM23.11,3.02c-.81,0-1.63-.2-2.24-.58-.75-.46-.99-1.38-.73-1.93.22-.45.69-.62,1.22-.44.89.29,2.34.18,3.29.01.52-.1.93.15,1.07.61.2.65-.14,1.63-.95,1.99-.49.23-1.07.33-1.66.33Z"/>
    </g>
  </g>
</svg>