<?xml version="1.0" encoding="UTF-8"?>
<svg id="Layer_2" data-name="Layer 2" xmlns="http://www.w3.org/2000/svg" viewBox="0 0 29.38 41.07" fill="currentColor">
  <defs>
    <style>
      .cls-1 {
        fill: #fff;
      }

      .cls-1, .cls-2, .cls-3, .cls-4 {
        fill-rule: evenodd;
      }

      .cls-2 {
        fill: #1a87c7;
      }

      .cls-3 {
        fill: #bdedf8;
      }

      .cls-4 {
        fill: #66ceef;
      }
    </style>
  </defs>
  <g id="_Layer_" data-name="&amp;lt;Layer&amp;gt;">
    <g>
      <path class="cls-4" d="M13.93,36.33v-5.48c0-.51-.11-.84-.56-1.1l5.99,3.44c.37.27.44.64.44,1.07v5.47c.03.5.11.74.53.99l-5.98-3.44c-.35-.24-.41-.54-.43-.95h0ZM19.7,16.54l-2.1-1.22,5.07-11.61L16.78.31l-6.41,14.71,3.56,2.05v4.96c-.03.27-.14.48-.36.63L1.77,29.47c-.85.55-1.41,1.52-1.45,2.53v3.21c.02.41.08.7.42.95l5.99,3.44c-.44-.25-.51-.49-.54-.99v-3.21c.04-1.02.61-1.98,1.46-2.53l11.8-6.81c.22-.15.35-.36.36-.62v-8.66c-.01-.11-.02-.16-.11-.23h0Z"/>
      <path class="cls-2" d="M10.76,14.89l3.32,1.91c.09.06.16.16.16.27v4.96c-.03.39-.2.68-.5.89L1.92,29.74c-.76.49-1.27,1.36-1.3,2.27v3.2c.02.39.09.55.3.7l4.98,2.86s-.01-.1-.01-.14v-3.22c.04-1.13.66-2.19,1.6-2.79l11.81-6.81c.12-.1.19-.21.21-.39v-8.62l-2.06-1.19c-.14-.08-.19-.24-.13-.39l4.96-11.36-5.35-3.09-6.17,14.13h0ZM14.24,36.32v-5.48c0-.09,0-.17,0-.25l4.95,2.85c.23.17.32.39.32.82v5.48c0,.05,0,.1,0,.15l-4.98-2.86c-.21-.15-.28-.3-.3-.7h0ZM20.34,41.02c-.05,0-.1,0-.15-.03l-5.99-3.45c-.5-.35-.56-.8-.58-1.19v-5.5c0-.46-.1-.65-.4-.84h0l-5.42,3.13c-.76.49-1.27,1.36-1.3,2.27v3.2c.02.44.08.55.37.72h0c.15.09.2.28.12.43-.09.15-.27.19-.42.11l-5.99-3.45c-.5-.35-.57-.8-.58-1.19v-3.22c.05-1.12.66-2.18,1.6-2.79l11.81-6.81c.13-.09.2-.21.21-.39v-4.75l-3.41-1.97c-.13-.08-.18-.24-.12-.38L16.51.19c.03-.08.1-.14.18-.17.09-.03.17-.02.25.03l5.88,3.4c.14.08.19.24.13.39l-4.95,11.36,1.87,1.09s.03.02.03.03c.2.16.21.31.23.44v8.68c-.03.38-.2.68-.5.89l-5.79,3.34,5.68,3.27c.54.38.61.91.61,1.34v5.47c.02.43.08.55.37.72.15.09.2.28.11.43-.05.1-.16.15-.27.15Z"/>
      <path class="cls-1" d="M25.51,36.43V13.49c0-.23.17-.51.37-.63l3.2-1.84-6.41-7.3-6.41,14.7,3.19-1.84c.21-.11.36-.02.36.21v8.66c0,.23-.16.51-.36.62l-11.8,6.81c-.4.23-.76.63-1.03,1.09h0c-.26.46-.43.97-.43,1.44v3.21c0,.46.16.79.43.94.26.16.63.14,1.03-.09l10.23-5.91c.57-.33,1.01-.63,1.49-.35.41.24.44.69.44,1.28v5.26c0,.46.17.79.43.94.26.16.63.13,1.02-.1l2.78-1.61c.81-.46,1.46-1.6,1.46-2.53Z"/>
      <path class="cls-2" d="M18.97,32.77c.18,0,.36.04.55.16.6.36.6,1.04.6,1.54v5.26c0,.33.1.57.27.68.18.09.44.06.72-.1l2.78-1.61c.71-.41,1.3-1.44,1.3-2.26V13.49c0-.34.23-.73.52-.9l2.88-1.67-5.84-6.65-5.85,13.4,2.39-1.37c.19-.11.4-.12.57-.03.16.1.26.28.26.5v8.66c0,.34-.23.72-.52.9l-11.8,6.81c-.34.19-.68.55-.92.97-.24.43-.38.9-.38,1.29v3.21c0,.33.09.57.27.68.18.1.45.06.72-.1l10.37-5.99c.36-.21.72-.42,1.11-.42h0ZM20.62,41.07c-.19,0-.36-.04-.53-.14-.37-.22-.58-.65-.58-1.21v-5.26c0-.57-.04-.86-.3-1.02-.25-.15-.49-.04-1.03.28l-10.37,5.99c-.49.28-.96.31-1.34.09-.37-.22-.58-.64-.58-1.21v-3.21c0-.5.17-1.07.47-1.59.3-.52.7-.95,1.14-1.21l11.8-6.8c.1-.06.21-.24.21-.37v-8.54l-3.1,1.78c-.11.07-.25.05-.36-.03-.09-.09-.13-.23-.08-.36l6.41-14.7c.04-.1.13-.17.23-.18.11-.02.21.02.28.09l6.41,7.3c.06.07.09.17.07.25,0,.1-.07.17-.15.22l-3.21,1.85c-.11.06-.21.24-.21.36v22.95c0,1.05-.7,2.28-1.61,2.8l-2.78,1.6c-.28.17-.55.24-.81.24Z"/>
      <polygon class="cls-3" points="19.65 25.87 13.77 22.47 13.77 22.47 13.71 22.54 13.64 22.61 13.57 22.67 1.77 29.47 1.62 29.57 1.48 29.68 1.34 29.8 1.2 29.93 1.07 30.08 .96 30.24 .84 30.39 .74 30.56 .74 30.57 .64 30.74 .63 30.76 6.51 34.16 6.53 34.13 6.61 33.96 6.62 33.96 6.73 33.79 6.83 33.63 6.95 33.48 7.08 33.33 7.22 33.19 7.35 33.08 7.5 32.96 7.65 32.87 19.45 26.05 19.52 26.01 19.59 25.94 19.65 25.87 19.65 25.87"/>
      <path class="cls-2" d="M1.04,30.64l5.36,3.1.3-.45.45-.44.33-.23,11.61-6.7-5.28-3.05-.08.06L1.54,30.04l-.5.61h0ZM6.49,34.46s-.1-.02-.13-.03L.48,31.03c-.14-.08-.19-.25-.12-.4l.47-.74.44-.44.33-.24,11.93-6.94c.09-.11.26-.14.39-.07l5.88,3.4c.08.04.13.12.15.21.02.1,0,.18-.07.25l-.26.25-12.2,7.11-.44.54-.18.31c-.04.08-.12.14-.19.16-.04,0-.07.02-.11.02Z"/>
      <polygon class="cls-3" points="10.37 15.02 13.93 17.07 16.25 18.41 22.67 3.71 16.78 .31 10.37 15.02"/>
      <path class="cls-2" d="M10.76,14.89l5.35,3.09,6.16-14.13-5.34-3.09-6.17,14.13h0ZM16.25,18.72c-.05,0-.11-.02-.16-.04l-5.88-3.4c-.13-.08-.18-.24-.12-.38L16.51.19c.03-.08.1-.14.18-.17.09-.03.17-.02.25.03l5.88,3.4c.14.08.19.24.13.39l-6.42,14.71c-.03.08-.09.14-.18.17-.03,0-.06.02-.09.02Z"/>
    </g>
  </g>
</svg>