<?xml version="1.0" encoding="UTF-8"?>
<svg id="Layer_2" data-name="Layer 2" xmlns="http://www.w3.org/2000/svg" viewBox="0 0 40.62 40.57" fill="currentColor">
  <defs>
    <style>
      .cls-1 {
        fill: #fff;
      }

      .cls-1, .cls-2, .cls-3, .cls-4 {
        fill-rule: evenodd;
      }

      .cls-2 {
        fill: #1a87c7;
      }

      .cls-3 {
        fill: #bdedf8;
      }

      .cls-4 {
        fill: #66ceef;
      }
    </style>
  </defs>
  <g id="_Layer_" data-name="&amp;lt;Layer&amp;gt;">
    <g>
      <path class="cls-3" d="M34.4,34.41c-3.61,3.61-8.6,5.85-14.12,5.85s-10.51-2.24-14.12-5.85C2.54,30.8.3,25.8.3,20.28.3,9.24,9.23.31,20.28.31c17.11,0,27.09,21.15,14.12,34.1Z"/>
      <path class="cls-2" d="M20.28.62C9.44.62.62,9.44.62,20.28c0,5.26,2.04,10.2,5.76,13.91,3.72,3.72,8.66,5.76,13.9,5.76s10.2-2.04,13.91-5.76h0c5.8-5.79,7.4-13.72,4.29-21.21C35.37,5.47,28.23.62,20.28.62h0ZM20.28,40.57c-5.41,0-10.51-2.11-14.34-5.93C2.11,30.8,0,25.7,0,20.28,0,9.1,9.1,0,20.28,0c8.2,0,15.57,5,18.77,12.74,3.16,7.61,1.46,16-4.43,21.89h0c-3.82,3.82-8.92,5.93-14.34,5.93Z"/>
      <path class="cls-1" d="M20.53.31c2.78.03,5.37.63,7.7,1.65-.17,0-.35,0-.52,0-2.16.07-4.61.79-7.2,2.23,0-1.47,0-2.49.02-3.21V.31Z"/>
      <path class="cls-2" d="M20.83.63v.37c-.01.64-.02,1.49-.02,2.69,2.09-1.09,4.08-1.75,5.98-1.95-1.9-.68-3.9-1.05-5.96-1.11h0ZM20.5,4.5c-.05,0-.1-.02-.16-.04-.1-.05-.15-.15-.15-.27,0-1.46,0-2.49.02-3.21V.31c0-.09.04-.17.1-.22.06-.06.13-.1.22-.1h0c2.74.04,5.37.6,7.82,1.69.14.05.21.2.18.35-.03.14-.15.23-.31.23-.17,0-.33,0-.51.01-2.15.07-4.6.83-7.07,2.19-.04.03-.09.03-.15.03Z"/>
      <path class="cls-1" d="M39.49,14.91c1.75,5.92.83,12.64-3.84,18.15.36-1.12.55-2.4.55-3.83,0-4.35-1.76-9.31-4.62-13.8-2.67-4.2-6.29-7.99-10.31-10.52,5.29.19,10.04,1.88,13.54,4.52,2.04,1.54,3.66,3.41,4.68,5.48Z"/>
      <path class="cls-2" d="M22.38,5.28c3.57,2.46,6.89,5.96,9.45,9.98,3.02,4.74,4.68,9.7,4.68,13.97,0,.9-.08,1.74-.22,2.53,3.56-4.86,4.63-10.88,2.91-16.73-.99-1.98-2.57-3.83-4.59-5.36-3.29-2.48-7.61-4.03-12.23-4.39h0ZM35.64,33.36c-.05,0-.1,0-.15-.03-.13-.07-.19-.23-.14-.37.35-1.1.53-2.36.53-3.74,0-4.16-1.63-9-4.58-13.64-2.74-4.3-6.36-8-10.21-10.42-.12-.07-.17-.22-.13-.35.04-.13.13-.23.3-.22,5.17.18,10.05,1.81,13.72,4.58,2.09,1.57,3.74,3.51,4.78,5.6.01.02.02.03.02.05,1.93,6.52.5,13.23-3.9,18.43-.06.07-.15.11-.23.11Z"/>
      <path class="cls-1" d="M20,40.25c-5.4-.07-10.29-2.29-13.85-5.84-.1-.11-.22-.23-.32-.33l-.06-.13c-.59-1.29-.92-2.86-.92-4.7,0-4.26,1.74-9.12,4.55-13.53,2.73-4.28,6.46-8.14,10.59-10.62v.41c-.01,4.35-.02,9.68-.02,14.78s0,10.44.02,14.78c0,2.07,0,3.51.02,4.48v.7Z"/>
      <path class="cls-2" d="M6.09,33.9c.1.1.19.2.28.3,3.57,3.56,8.29,5.6,13.32,5.75v-.39c0-.97-.02-2.42-.02-4.48-.02-4.34-.02-9.67-.02-14.78s0-10.31.02-14.63c-3.79,2.38-7.33,6-10.02,10.23-2.9,4.55-4.49,9.3-4.49,13.37,0,1.76.3,3.29.9,4.57l.03.08h0ZM20,40.57h0c-5.31-.07-10.31-2.18-14.06-5.93-.1-.12-.22-.23-.32-.34-.03-.03-.04-.05-.06-.08l-.06-.13c-.62-1.36-.95-2.98-.95-4.83,0-4.18,1.62-9.04,4.59-13.7,2.86-4.5,6.65-8.3,10.69-10.72.09-.06.22-.06.31,0,.1.06.16.16.16.27v.41c-.02,4.35-.02,9.68-.02,14.78s0,10.44.01,14.78c0,2.07.02,3.51.02,4.48v.7c.01.09-.03.17-.09.23-.05.05-.13.09-.22.09Z"/>
      <path class="cls-1" d="M1.79,12.71c1.78-4.36,5.07-7.95,9.22-10.14.57-.09,1.17-.12,1.78-.1,1.96.06,4.16.69,6.52,1.91-5.41.19-10.28,1.92-13.86,4.62-1.44,1.08-2.69,2.34-3.66,3.7Z"/>
      <path class="cls-2" d="M11.11,2.88c-3.35,1.77-6.12,4.47-7.97,7.75.64-.66,1.36-1.28,2.12-1.86,3.48-2.63,8-4.25,12.86-4.62-1.88-.85-3.67-1.31-5.33-1.37-.57-.02-1.14.02-1.68.1h0ZM1.79,13.02c-.05,0-.1-.02-.15-.04-.14-.07-.2-.24-.14-.38C3.31,8.18,6.63,4.52,10.87,2.31c.03-.02.05-.03.09-.03.59-.1,1.21-.14,1.85-.11,2.06.06,4.29.72,6.64,1.95.12.06.19.2.16.34-.03.14-.15.24-.29.24-5.16.17-10.03,1.79-13.69,4.55-1.43,1.08-2.64,2.3-3.6,3.64-.05.09-.15.13-.24.13Z"/>
      <path class="cls-4" d="M17.36,3.3c1.62-.93,4.22-.93,5.84,0,1.61.93,1.61,2.44,0,3.37-1.62.93-4.22.93-5.84,0-1.61-.93-1.61-2.44,0-3.37Z"/>
      <path class="cls-2" d="M17.51,3.57c-.68.39-1.05.9-1.05,1.42s.37,1.02,1.05,1.42c1.52.88,4.01.88,5.53,0,.68-.39,1.05-.89,1.05-1.42s-.37-1.03-1.05-1.42c-1.52-.88-4.01-.88-5.53,0h0ZM20.28,7.68c-1.11,0-2.22-.24-3.07-.73-.88-.51-1.36-1.2-1.36-1.95s.48-1.44,1.36-1.95h0c1.69-.98,4.45-.98,6.14,0,.89.5,1.37,1.2,1.37,1.95s-.48,1.44-1.37,1.95c-.84.49-1.96.73-3.07.73Z"/>
    </g>
  </g>
</svg>