<?xml version="1.0" encoding="UTF-8"?>
<svg id="Layer_2" data-name="Layer 2" xmlns="http://www.w3.org/2000/svg" viewBox="0 0 40.58 44.12" fill="currentColor">
  <defs>
    <style>
      .cls-1 {
        fill: #fff;
      }

      .cls-1, .cls-2, .cls-3, .cls-4 {
        fill-rule: evenodd;
      }

      .cls-2 {
        fill: #1a87c7;
      }

      .cls-3 {
        fill: #bdedf8;
      }

      .cls-4 {
        fill: #66ceef;
      }
    </style>
  </defs>
  <g id="_Layer_" data-name="&amp;lt;Layer&amp;gt;">
    <g>
      <polygon class="cls-3" points="22.5 34.47 12.55 28.72 12.56 26.73 22.51 32.47 22.5 34.47"/>
      <path class="cls-2" d="M12.86,28.55l9.34,5.39v-1.28l-9.34-5.39v1.28h0ZM22.5,34.78c-.05,0-.11-.02-.16-.04l-9.95-5.75c-.1-.05-.15-.16-.15-.27v-1.99c0-.1.06-.21.16-.26.09-.06.22-.06.31,0l9.94,5.75c.1.05.16.16.16.27v1.98c0,.11-.07.22-.16.27-.04.03-.1.04-.15.04Z"/>
      <polygon class="cls-1" points="22.5 34.47 22.51 32.47 40.27 22.24 40.26 24.23 22.5 34.47"/>
      <path class="cls-2" d="M22.81,32.66v1.28s17.14-9.88,17.14-9.88v-1.28s-17.14,9.88-17.14,9.88h0ZM22.5,34.78c-.05,0-.11-.02-.16-.04-.09-.05-.16-.16-.16-.27v-1.99c.01-.1.07-.21.17-.26l17.77-10.25c.1-.05.21-.05.3,0,.1.06.16.17.16.27v1.99c0,.11-.07.22-.17.27l-17.77,10.24s-.1.04-.15.04Z"/>
      <polygon class="cls-1" points="30.33 16.48 40.27 22.24 39.07 22.93 30.33 17.89 30.33 16.48"/>
      <path class="cls-2" d="M30.65,17.71l8.42,4.87.58-.34-9-5.21v.69h0ZM39.07,23.24c-.05,0-.1-.01-.16-.03l-8.73-5.05c-.09-.05-.15-.16-.15-.26v-1.41c0-.11.05-.21.15-.27.1-.05.22-.05.31.01l9.93,5.75c.1.06.16.16.16.27s-.06.21-.16.27l-1.2.7c-.05.02-.11.03-.16.03Z"/>
      <polygon class="cls-1" points="13.78 27.43 12.56 26.73 30.33 16.48 30.33 17.89 13.78 27.43"/>
      <path class="cls-2" d="M13.18,26.73l.6.35,16.25-9.37v-.69l-16.85,9.72h0ZM13.78,27.75c-.05,0-.11-.02-.16-.04l-1.22-.7c-.1-.05-.15-.15-.15-.27,0-.1.05-.21.15-.26l17.77-10.26c.1-.05.22-.05.31.01.09.05.16.15.16.26v1.41c0,.1-.06.21-.16.26l-16.57,9.55s-.1.04-.15.04Z"/>
      <polygon class="cls-3" points="22.51 32.47 13.78 27.43 30.33 17.89 39.07 22.93 22.51 32.47"/>
      <path class="cls-2" d="M14.39,27.43l8.12,4.69,15.94-9.2-8.12-4.68-15.94,9.19h0ZM22.51,32.79c-.06,0-.11-.02-.16-.04l-8.73-5.04c-.09-.05-.15-.16-.15-.27,0-.1.06-.21.15-.26l16.56-9.55c.1-.05.22-.05.31,0l8.72,5.04c.1.06.16.16.16.27s-.06.21-.16.27l-16.56,9.54s-.09.04-.15.04Z"/>
      <polygon class="cls-4" points="22.51 36.85 12.56 31.11 12.55 28.72 22.51 34.47 22.51 36.85"/>
      <path class="cls-2" d="M12.86,30.93l9.34,5.4v-1.68l-9.34-5.39v1.67h0ZM22.51,37.16c-.06,0-.11,0-.16-.03l-9.95-5.75c-.1-.06-.15-.15-.15-.27v-2.39c0-.1.04-.21.14-.26.09-.06.22-.06.31,0l9.95,5.75c.1.05.16.15.16.26v2.39c0,.11-.06.21-.16.27-.04.03-.09.03-.15.03Z"/>
      <polygon class="cls-4" points="22.51 36.85 22.51 34.47 40.26 24.23 40.27 26.75 22.51 36.85"/>
      <path class="cls-2" d="M22.81,34.65v1.68l17.15-9.75v-1.82s-17.15,9.89-17.15,9.89h0ZM22.51,37.16c-.06,0-.11,0-.16-.03-.09-.06-.15-.16-.15-.27v-2.39c0-.11.06-.21.15-.26l17.76-10.25c.1-.05.21-.05.3,0,.1.06.16.16.16.27v2.53c0,.12-.05.21-.15.27l-17.77,10.1s-.09.03-.15.03Z"/>
      <polygon class="cls-3" points="22.5 43.81 12.55 38.06 12.56 31.11 22.51 36.85 22.5 43.81"/>
      <path class="cls-2" d="M12.86,37.89l9.32,5.39v-6.25s-9.32-5.39-9.32-5.39v6.25h0ZM22.5,44.12c-.05,0-.11-.02-.16-.04l-9.95-5.74c-.1-.06-.15-.16-.15-.27v-6.95c0-.11.06-.21.16-.27.09-.05.22-.05.31,0l9.94,5.75c.1.06.16.15.16.27v6.95c0,.12-.07.21-.16.27-.04.03-.1.04-.15.04Z"/>
      <polygon class="cls-1" points="22.5 43.81 22.51 36.85 40.27 26.62 40.26 33.57 22.5 43.81"/>
      <path class="cls-2" d="M22.81,37.03v6.25s17.14-9.89,17.14-9.89v-6.24s-17.14,9.88-17.14,9.88h0ZM22.5,44.12c-.05,0-.11-.02-.16-.04-.09-.06-.16-.16-.16-.27v-6.95c.01-.11.07-.21.17-.27l17.77-10.24c.1-.05.21-.05.3,0,.1.05.16.16.16.27v6.96c0,.11-.07.21-.17.27l-17.77,10.24s-.1.04-.15.04Z"/>
      <polygon class="cls-4" points="35.57 32.1 39.32 29.94 39.31 34.12 35.57 36.27 35.57 32.1"/>
      <path class="cls-2" d="M35.88,32.28v3.47l3.13-1.81v-3.47l-3.13,1.81h0ZM35.57,36.59c-.05,0-.11-.02-.15-.05-.09-.06-.15-.16-.15-.27v-4.18c0-.1.06-.21.15-.26l3.75-2.16c.1-.05.21-.05.31,0,.09.06.16.15.16.27v4.18c0,.1-.06.21-.16.26l-3.75,2.16s-.1.05-.16.05Z"/>
      <polygon class="cls-4" points="10.26 42.94 .3 37.2 .31 32.43 10.26 38.18 10.26 42.94"/>
      <path class="cls-2" d="M.62,37.01l9.34,5.39v-4.05L.63,32.96v4.05h-.01ZM10.26,43.25c-.05,0-.1-.02-.16-.05L.15,37.45c-.09-.05-.15-.15-.15-.26v-4.76c0-.11.07-.22.15-.27.1-.05.22-.05.31,0l9.94,5.75c.1.05.16.15.16.27v4.76c0,.1-.06.21-.16.26-.05.03-.11.05-.16.05Z"/>
      <polygon class="cls-1" points="10.25 42.93 10.26 38.17 15.64 35.07 15.63 39.84 10.25 42.93"/>
      <path class="cls-2" d="M10.57,38.34v4.06s4.74-2.74,4.74-2.74v-4.05s-4.74,2.73-4.74,2.73h0ZM10.25,43.24c-.05,0-.11-.01-.15-.05-.1-.05-.16-.16-.16-.26v-4.76c0-.11.07-.22.16-.27l5.37-3.08c.1-.06.22-.05.3,0,.1.05.16.16.16.27v4.76c0,.1-.07.21-.16.26l-5.37,3.09s-.11.04-.16.04Z"/>
      <path class="cls-3" d="M15.62,3.52c.24-.61.48-1.05.87-1.6.82-1.03,2.13-2.09,3.44-1.4l1.14.66c-.52-.28-.87-.28-1.43-.13-.88.29-1.43.81-2.01,1.53-.39.55-.62.97-.87,1.59-.71.26-1.25.78-1.7,1.38-.35.04-.56.15-.85.32-.94.64-1.62,1.64-1.96,2.72-.11.41-.31,1.5.09,1.8l-1.14-.66c-.31-.22-.25-1.02-.2-1.36.17-.9.6-1.66,1.18-2.37.46-.51,1.03-1.03,1.74-1.11.44-.59.99-1.12,1.7-1.37Z"/>
      <path class="cls-2" d="M15.62,3.52h.01-.01ZM19.05.61c-.96,0-1.83.89-2.33,1.5-.34.49-.56.9-.81,1.52-.04.08-.1.14-.18.17-.55.2-1.07.62-1.56,1.28-.05.06-.12.11-.21.12-.63.07-1.16.57-1.54,1.01-.61.73-.96,1.44-1.12,2.23-.08.55,0,.98.08,1.05l.41.24c-.02-.55.14-1.11.17-1.22.39-1.22,1.14-2.24,2.08-2.88.28-.16.51-.3.85-.36.52-.66,1.04-1.09,1.64-1.33.25-.61.49-1.02.85-1.54.6-.76,1.2-1.31,2.16-1.64.04,0,.08-.02.12-.03-.2-.09-.4-.12-.6-.12h0ZM12.33,10.71s-.1-.02-.15-.05l-1.14-.66c-.5-.35-.41-1.29-.35-1.67.18-.9.57-1.7,1.25-2.52.44-.5,1.03-1.06,1.8-1.2.51-.65,1.05-1.1,1.64-1.34.25-.6.48-1.03.85-1.53,1.26-1.58,2.65-2.12,3.83-1.49l1.15.66c.15.09.2.27.12.42-.09.15-.27.2-.42.12-.42-.22-.67-.24-1.21-.11-.81.28-1.31.75-1.85,1.43-.35.5-.56.89-.81,1.52-.04.08-.1.14-.18.18-.57.2-1.06.61-1.56,1.27-.05.07-.12.11-.21.12-.28.03-.44.11-.73.29-.83.56-1.48,1.47-1.82,2.55-.18.61-.19,1.34-.03,1.45.14.09.18.28.09.42-.06.1-.17.15-.26.15Z"/>
      <path class="cls-1" d="M15.91,4.66c.29-.23.57-.39.85-.49.37-.98.91-1.76,1.5-2.29.45-.42.92-.7,1.37-.83.45-.13.88-.13,1.23.02.56.24.95.84.92,1.85,0,.38-.07.78-.18,1.17-.11.41-.29.82-.49,1.21h0c-.07.12-.14.22-.23.32-.09.09-.17.17-.27.22l-7.81,4.51c-.15.09-.28.12-.39.08-.11-.03-.2-.12-.23-.26h0c-.04-.11-.06-.22-.07-.33-.02-.12-.03-.24-.02-.37,0-.37.09-.77.25-1.17.2-.51.5-1.03.84-1.46.35-.44.76-.82,1.17-1.04.24-.13.47-.22.7-.24.25-.35.55-.66.85-.9Z"/>
      <path class="cls-2" d="M15.91,4.66h0,0ZM12.47,10.09c.04.05.1.04.18,0l7.81-4.51c.07-.04.14-.1.2-.16.06-.07.12-.16.17-.26.2-.37.36-.76.47-1.15.11-.38.16-.75.17-1.1.02-.79-.24-1.35-.74-1.55-.28-.12-.62-.12-1.02-.01-.42.12-.85.38-1.25.76-.6.55-1.1,1.31-1.42,2.18-.03.09-.1.15-.19.18-.23.08-.5.22-.75.43h0c-.29.22-.56.51-.79.84-.05.07-.14.12-.23.12-.18.02-.37.09-.57.2-.37.2-.74.53-1.08.96-.33.42-.62.9-.8,1.38-.15.38-.23.75-.23,1.07,0,.11,0,.23.02.33,0,.1.03.19.06.28h0ZM12.5,10.75c-.06,0-.12-.01-.18-.03-.22-.06-.37-.24-.44-.46-.01,0-.01-.02-.01-.03-.03-.11-.06-.23-.07-.36-.02-.13-.03-.27-.03-.42,0-.39.1-.82.28-1.27.2-.54.52-1.08.89-1.55.39-.5.83-.89,1.27-1.12.22-.13.45-.22.67-.25.24-.32.53-.62.83-.85h0c.27-.21.54-.37.81-.48.37-.91.89-1.7,1.53-2.3.47-.43.99-.73,1.5-.89.52-.16,1.02-.14,1.43.03.43.18,1.14.7,1.11,2.14,0,.4-.08.82-.2,1.24-.12.43-.3.86-.51,1.27-.08.15-.16.28-.27.39-.1.11-.22.21-.34.28l-7.82,4.51c-.16.09-.3.13-.45.13Z"/>
      <path class="cls-2" d="M36.42,34c-.11,0-.21-.05-.26-.16-.09-.15-.03-.33.12-.42l2.04-1.18c.15-.09.33-.03.42.11.09.15.04.34-.11.42l-2.04,1.18c-.05.03-.1.04-.16.04Z"/>
      <path class="cls-2" d="M36.42,32.97c-.11,0-.21-.06-.26-.16-.09-.15-.03-.34.12-.43l2.04-1.17c.15-.09.33-.03.42.11.09.15.04.33-.11.42l-2.04,1.18c-.05.03-.1.04-.16.04Z"/>
      <path class="cls-2" d="M36.42,35.04c-.11,0-.21-.05-.26-.15-.09-.15-.03-.34.12-.42l2.04-1.18c.15-.08.33-.04.42.11.09.15.04.34-.11.43l-2.04,1.17c-.05.04-.1.04-.16.04Z"/>
      <polygon class="cls-4" points="30.32 35.13 34.05 32.97 34.05 37.14 30.31 39.31 30.32 35.13"/>
      <path class="cls-2" d="M30.62,35.31v3.47l3.13-1.81v-3.47l-3.13,1.81h0ZM30.31,39.61c-.05,0-.11,0-.15-.03-.09-.06-.15-.16-.15-.27v-4.18c0-.1.06-.21.15-.26l3.75-2.16c.1-.05.21-.05.3,0,.1.05.16.15.16.27v4.17c0,.11-.06.22-.16.27l-3.74,2.16s-.1.03-.16.03Z"/>
      <path class="cls-2" d="M31.16,37.04c-.11,0-.21-.06-.26-.16-.09-.15-.03-.34.11-.42l2.04-1.18c.15-.09.33-.03.42.11.09.15.04.33-.11.42l-2.04,1.18s-.1.04-.16.04Z"/>
      <path class="cls-2" d="M31.16,36c-.11,0-.21-.05-.26-.15-.09-.15-.03-.34.11-.43l2.04-1.17c.15-.09.33-.04.42.1.09.15.04.34-.11.42l-2.04,1.18s-.1.03-.16.03Z"/>
      <path class="cls-2" d="M31.16,38.07c-.11,0-.21-.05-.26-.16-.09-.15-.03-.33.11-.42l2.04-1.18c.15-.09.33-.04.42.11.09.15.04.34-.11.42l-2.04,1.17s-.1.04-.16.04Z"/>
      <polygon class="cls-3" points="7.18 36.4 .31 32.43 16.37 23.18 17.56 23.85 12.56 26.73 12.55 33.29 15.64 35.08 10.26 38.18 7.18 36.4 7.18 36.4"/>
      <path class="cls-2" d="M7.33,36.13l2.94,1.7,4.76-2.74-2.63-1.52c-.1-.05-.15-.16-.15-.27v-6.56c0-.1.06-.21.16-.26l4.54-2.61-.57-.32L.93,32.43l6.4,3.69h0ZM10.26,38.48c-.05,0-.1,0-.16-.04l-3.09-1.78.16-.26-.16.27L.15,32.69c-.09-.05-.15-.16-.15-.26,0-.11.05-.22.15-.27l16.06-9.26c.1-.05.22-.05.32,0l1.18.68c.09.06.15.16.15.27s-.06.21-.16.27l-4.84,2.79v6.21l2.94,1.69c.1.05.15.16.15.27s-.06.21-.15.27l-5.39,3.09s-.09.04-.15.04Z"/>
      <path class="cls-1" d="M15.5,12.66v12.39l-2.94,1.69v1.99s0,1.32,0,1.32c-.09-.03-.16-.04-.24-.07-.45-.17-.92-.44-1.03-.94V12.66c.1.54.64.82,1.11.96.31.09.57.13.89.14.39,0,.7-.03,1.09-.14.38-.12.73-.3.97-.62.08-.12.11-.2.15-.35Z"/>
      <path class="cls-2" d="M11.59,13.58v15.46c.05.21.26.41.65.58v-2.88c0-.1.06-.21.16-.26l2.78-1.61v-11.28c-.24.17-.5.27-.72.34-.4.12-.74.15-1.17.16-.36-.02-.65-.06-.97-.16-.28-.09-.53-.2-.73-.34h0ZM12.56,30.35s-.05,0-.08-.01c-.09-.02-.18-.04-.26-.07-.71-.26-1.13-.65-1.23-1.17V12.66c0-.16.11-.29.27-.31.15,0,.3.09.33.24.07.31.37.57.91.74.26.07.51.11.81.12.35,0,.65-.04.98-.13.39-.12.64-.28.82-.51.04-.09.07-.13.09-.23.03-.15.17-.25.33-.24.15.02.28.15.28.31v12.39c0,.11-.06.21-.16.26l-2.78,1.61v3.13c0,.09-.04.18-.12.24-.05.04-.12.06-.18.06Z"/>
      <path class="cls-3" d="M12.56,30.04c-.28-.07-.56-.18-.81-.35-.24-.18-.4-.37-.46-.66V12.66c.05.28.18.43.39.61.37.27.78.41,1.23.47v12.79l-.36.2v1.99s0,1.32,0,1.32Z"/>
      <path class="cls-2" d="M11.59,13.58v15.46c.04.12.12.25.34.41.09.06.2.12.31.18v-2.88c0-.1.06-.21.16-.26l.21-.12v-12.35c-.39-.08-.72-.22-1.02-.42h0ZM12.56,30.35s-.05,0-.08-.02c-.33-.08-.63-.21-.9-.39-.25-.18-.51-.42-.59-.84V12.66c0-.16.11-.29.27-.31.16,0,.3.09.33.24.03.17.11.28.3.43.29.21.63.34,1.08.4.16.02.27.15.27.3v12.79c0,.11-.06.21-.16.26l-.21.12v3.13c0,.09-.04.18-.12.24-.05.04-.12.07-.18.07Z"/>
      <path class="cls-4" d="M11.9,11.68c.83-.48,2.17-.48,2.98,0,.83.47.83,1.24,0,1.72-.81.48-2.15.48-2.98,0-.83-.48-.83-1.25,0-1.72Z"/>
      <path class="cls-2" d="M12.05,11.94c-.3.18-.46.39-.46.6s.16.43.46.59c.73.42,1.95.42,2.69,0,.3-.17.46-.39.46-.6s-.17-.42-.46-.6c-.73-.42-1.95-.42-2.69,0h0ZM13.39,14.07c-.6,0-1.19-.13-1.65-.4-.5-.28-.78-.68-.78-1.13s.28-.84.78-1.13h0c.92-.54,2.37-.53,3.29,0,.5.29.77.69.77,1.13s-.27.84-.77,1.13c-.46.27-1.05.4-1.64.4Z"/>
      <path class="cls-3" d="M15.5,14.03v1.6c-.09.38-.37.61-.7.79-.34.16-.63.24-1.01.29-.45.04-.85.03-1.3-.09-.5-.15-1.1-.42-1.21-.99v-1.6c.1.48.51.73.94.9.63.23,1.29.25,1.95.1.53-.13,1.18-.42,1.31-1.01Z"/>
      <path class="cls-2" d="M11.59,14.95v.68c.06.27.4.52.99.7.38.09.74.12,1.18.08.36-.05.62-.12.9-.26.32-.18.47-.35.52-.57v-.62c-.24.16-.56.3-.93.39-.75.16-1.47.12-2.14-.12-.17-.07-.36-.16-.53-.27h0ZM13.38,17.04c-.33,0-.64-.04-.96-.12-.83-.24-1.31-.65-1.43-1.23v-1.66c0-.16.11-.3.27-.3.15-.02.3.09.33.24.06.28.3.49.76.68.56.2,1.15.23,1.78.1.42-.11.97-.34,1.07-.77.03-.16.17-.26.33-.24.15,0,.28.15.28.3v1.6c-.11.59-.51.87-.84,1.06-.36.17-.68.27-1.12.32-.17.02-.31.02-.46.02Z"/>
      <path class="cls-4" d="M12.92,16.7c-.33-.04-.64-.13-.94-.28-.33-.18-.61-.41-.69-.79v-1.6c.08.38.36.61.69.79.31.15.61.23.94.28v1.6Z"/>
      <path class="cls-2" d="M11.59,14.94v.69c.05.16.19.33.53.52.16.07.31.13.49.18v-.97c-.27-.05-.52-.14-.77-.27-.08-.04-.17-.09-.24-.15h0ZM12.92,17.01s-.03,0-.04,0c-.37-.04-.71-.15-1.04-.31-.35-.19-.74-.47-.85-1v-1.66c0-.16.11-.3.27-.3.15-.02.3.09.33.24.05.23.2.39.54.58.26.12.53.21.83.24.15.02.27.15.27.3v1.6c0,.09-.04.17-.11.24-.06.05-.13.08-.21.08Z"/>
      <path class="cls-1" d="M8.77,16.49v16.44c-.03.08-.07.16-.1.23-.03.06-.08.11-.13.17-.09.1-.19.18-.29.25-.16.09-.33.17-.5.23-.74.24-1.7.23-2.41-.11-.15-.07-.31-.17-.43-.28-.07-.06-.14-.14-.19-.22-.06-.08-.11-.18-.14-.28v-.06s-.01-16.38-.01-16.38c.01.04.02.08.03.12.03.08.07.17.12.23.08.12.2.24.31.31.54.37,1.31.5,1.95.44.46-.04.96-.17,1.34-.44.13-.09.27-.22.36-.36.03-.07.08-.15.1-.23v-.06Z"/>
      <path class="cls-2" d="M4.87,17.41v15.46s.05.1.1.16c.03.05.09.11.14.16.1.09.22.16.36.23.61.29,1.49.33,2.17.09.15-.05.3-.12.43-.2.09-.06.17-.13.23-.2.03-.03.07-.08.09-.12.03-.03.05-.09.06-.14v-15.44c-.37.26-.9.43-1.46.48-.79.07-1.59-.11-2.13-.48h0ZM6.66,34.28c-.52,0-1.03-.1-1.46-.3-.19-.09-.37-.21-.5-.32-.1-.08-.18-.18-.24-.27-.09-.12-.15-.25-.18-.39,0-.02-.02-.1-.02-.13v-16.38c0-.15.11-.29.27-.3.16,0,.3.09.34.24l.02.08s.05.11.08.15c.05.08.14.17.24.23.5.35,1.23.43,1.74.38.47-.03.89-.17,1.18-.38.12-.08.22-.17.27-.27.03-.04.05-.1.06-.15.04-.15.2-.28.35-.26.16.03.28.12.28.28v16.38s-.02.1-.02.12c-.03.12-.09.24-.14.32-.05.08-.1.16-.17.22-.1.11-.22.21-.36.3-.16.11-.37.2-.57.27-.36.12-.77.19-1.17.19Z"/>
      <path class="cls-3" d="M6.2,33.94c-.42-.05-.82-.19-1.17-.42-.23-.18-.4-.36-.46-.65v-16.38c.06.27.19.43.4.61.37.27.78.41,1.23.46v16.38Z"/>
      <path class="cls-2" d="M4.87,17.41v15.46c.04.12.13.25.34.41.2.13.43.23.68.3v-15.75c-.38-.08-.71-.21-1.02-.41h0ZM6.2,34.25h-.04c-.48-.06-.93-.23-1.29-.47-.25-.18-.5-.43-.6-.85v-16.44c0-.15.11-.29.27-.3.17,0,.3.09.34.24.04.16.1.28.3.43.29.22.63.35,1.07.4.15.02.27.15.27.3v16.38c0,.09-.03.16-.1.23-.05.05-.13.08-.2.08Z"/>
      <path class="cls-4" d="M5.17,15.51c.83-.47,2.16-.47,2.99,0,.82.48.82,1.25,0,1.73-.83.48-2.16.48-2.99,0-.83-.48-.83-1.25,0-1.73Z"/>
      <path class="cls-2" d="M6.66,15.47c-.48,0-.97.11-1.34.31-.29.17-.47.39-.47.6s.18.43.47.59c.73.42,1.96.42,2.68,0,.3-.17.47-.38.47-.59s-.17-.42-.47-.6c-.36-.21-.85-.31-1.34-.31h0ZM6.66,17.91c-.59,0-1.18-.14-1.65-.4-.5-.3-.76-.7-.76-1.13s.27-.84.76-1.13c.93-.54,2.37-.54,3.3,0,.5.29.77.69.77,1.13s-.28.84-.77,1.13c-.46.26-1.06.4-1.65.4Z"/>
      <path class="cls-3" d="M8.77,17.87v1.6c-.08.38-.36.6-.69.78-.34.17-.63.24-1.01.29-.46.04-.85.02-1.29-.09-.51-.14-1.09-.42-1.22-.98v-1.6c.1.47.52.73.94.89.63.24,1.3.26,1.96.11.53-.13,1.18-.42,1.3-1.01Z"/>
      <path class="cls-2" d="M4.87,18.78v.69c.07.26.4.52.99.69.38.11.75.12,1.18.09.37-.05.62-.12.9-.26.33-.18.48-.35.52-.58v-.62c-.24.17-.56.3-.93.39-.75.17-1.46.13-2.14-.11-.17-.07-.35-.16-.53-.28h0ZM6.66,20.87c-.33,0-.63-.04-.96-.12-.84-.24-1.32-.65-1.44-1.23v-1.66c0-.17.11-.3.27-.31.16,0,.3.1.34.24.05.29.29.5.76.68.55.21,1.15.23,1.77.09.43-.1.98-.33,1.07-.77.03-.15.18-.26.34-.24.16.02.28.15.28.31v1.6c-.12.59-.52.87-.85,1.05-.35.18-.68.27-1.12.33-.15.02-.3.03-.45.03Z"/>
      <path class="cls-4" d="M6.2,20.53c-.34-.04-.64-.14-.95-.29-.33-.18-.61-.4-.69-.78v-1.6c.08.38.36.6.69.78.3.16.61.24.95.29v1.6Z"/>
      <path class="cls-2" d="M4.87,18.78v.69c.04.16.2.33.53.51.16.08.32.14.49.18v-.96c-.26-.06-.51-.15-.77-.27-.09-.04-.16-.09-.25-.15h0ZM6.2,20.84h-.04c-.36-.04-.7-.15-1.04-.31-.34-.19-.74-.47-.85-1v-1.66c0-.17.11-.3.27-.31.16,0,.3.1.34.24.04.24.2.4.53.58.26.13.53.21.84.25.15.02.27.15.27.31v1.6c0,.09-.03.17-.1.24-.05.04-.13.07-.2.07Z"/>
      <path class="cls-1" d="M26.29,27.46c.37,0,.73-.08,1.01-.23.28-.17.42-.37.42-.59s-.14-.42-.42-.58c-.28-.17-.64-.24-1.01-.24s-.73.08-1.02.24c-.28.17-.42.37-.42.58s.14.42.42.59c.29.15.65.23,1.02.23Z"/>
      <path class="cls-2" d="M26.29,26.12c-.32,0-.63.07-.86.2-.16.09-.26.21-.26.31s.1.22.26.32c.44.25,1.28.25,1.72,0,.17-.1.26-.22.26-.32s-.09-.22-.26-.31c-.23-.13-.54-.2-.86-.2h0ZM26.29,27.77c-.43,0-.85-.1-1.16-.29-.37-.21-.57-.52-.57-.85s.2-.63.57-.85c.63-.37,1.7-.37,2.33,0,.36.22.57.52.57.85s-.21.64-.57.85c-.31.18-.73.29-1.17.29Z"/>
      <path class="cls-4" d="M27.3,27.21c.21-.12.42-.32.42-.57v-7.4c-.03.46-.61.69-.99.76-.52.1-1.26.03-1.66-.35-.12-.11-.21-.25-.22-.42v7.4c0,.34.36.57.64.67.55.21,1.29.19,1.8-.1Z"/>
      <path class="cls-2" d="M25.17,20.1v6.54c0,.15.24.3.45.38.49.19,1.11.15,1.54-.09.08-.05.26-.17.26-.3v-6.54c-.19.1-.41.18-.63.21-.5.09-1.14.05-1.62-.21h0ZM27.3,27.21h0,0ZM26.29,27.76c-.31,0-.62-.05-.9-.16-.52-.2-.83-.56-.84-.95v-7.41c0-.17.13-.3.29-.3h.01c.16,0,.3.12.31.29,0,.04.02.12.11.21.31.3.94.36,1.39.27.29-.05.72-.23.74-.48,0-.16.13-.3.32-.29.17,0,.29.14.29.3v7.4c0,.33-.21.62-.57.84h0c-.33.19-.75.29-1.17.29Z"/>
      <path class="cls-1" d="M27.36,18.81l1.18.11,2.57.23,1.88-1.08c.19-.11.31-.38.29-.56-.02-.09-.07-.15-.11-.2l-.86-1.23-3.75-.34c.02.27,0,.56-.07.86-.13.68-.47,1.4-.96,2.02h0c-.05.07-.1.12-.15.18Z"/>
      <path class="cls-2" d="M27.96,18.55l3.09.28,1.79-1.04c.09-.05.15-.19.14-.23,0-.01-.05-.07-.06-.08l-.78-1.11-3.27-.29c0,.19-.03.38-.08.58-.13.65-.42,1.31-.83,1.89h0ZM31.11,19.46h-.03l-3.75-.34c-.11,0-.22-.09-.26-.19-.04-.11-.02-.23.06-.32.04-.05.09-.11.13-.16.46-.57.78-1.24.92-1.9.05-.28.08-.54.05-.77,0-.09.03-.18.1-.24.06-.07.16-.09.24-.09l3.75.33c.09.01.17.06.22.13l.86,1.23c.06.08.14.18.16.31.05.32-.14.72-.44.88l-1.88,1.09c-.05.03-.1.04-.16.04Z"/>
      <path class="cls-3" d="M26.51,19.19c.28.1.47.06.73-.06.55-.3.88-.75,1.12-1.31.19-.51.36-1.29-.21-1.63l-1.17-.67.09-.08c.54-.35,1.04-.58,1.67-.34l-1.91-1.1c-.88-.35-1.68.27-2.26.87-.45.52-.73.98-.98,1.61-.2.57-.29.96-.24,1.56.07.51.2.84.65,1.12l1.91,1.11c-.64-.39-.72-1.09-.63-1.78l1.23.7Z"/>
      <path class="cls-2" d="M26.32,14.21c-.44,0-.94.29-1.53.89-.42.48-.68.9-.91,1.5-.18.51-.26.87-.23,1.44.06.42.16.66.5.87l.82.48c-.07-.39-.03-.75,0-.93,0-.1.08-.19.17-.24.1-.04.2-.04.3.01l1.21.69c.16.05.25.03.48-.06.41-.23.71-.58.96-1.15.13-.36.3-1.01-.09-1.25l-1.16-.67c-.09-.05-.15-.14-.16-.24,0-.1.04-.2.12-.26l.09-.08c.23-.15.46-.29.73-.39l-.95-.55c-.11-.04-.24-.06-.36-.06h0ZM25.91,20.58c-.05,0-.1-.02-.15-.04l-1.92-1.11c-.56-.34-.72-.76-.8-1.34-.04-.69.05-1.13.26-1.71.26-.67.57-1.16,1.04-1.7.36-.36,1.4-1.43,2.6-.96l1.96,1.13c.14.09.19.26.12.4-.07.15-.24.22-.39.15-.37-.15-.7-.08-1.05.11l.72.42c.58.35.7,1.06.35,2.01-.31.71-.7,1.17-1.26,1.47-.3.14-.58.23-.99.08,0-.01-.03-.02-.03-.02l-.81-.46c.02.49.18.81.52,1.01.14.09.19.28.1.42-.06.11-.17.16-.27.16Z"/>
      <path class="cls-1" d="M26.16,18c.08-.39.27-.81.56-1.17.29-.36.62-.59.91-.67.31-.09.57-.02.74.23.17.24.2.6.12.98-.09.39-.28.82-.57,1.17v.02c-.3.35-.63.58-.92.65-.64.18-1.03-.37-.85-1.22h0ZM25.32,18.23c-.26,1.26.22,2.2,1.11,2.16,1.11-.03,2.56-1.52,2.91-3.24.14-.67.08-1.3-.21-1.71-.28-.41-.75-.53-1.27-.39-1.1.3-2.25,1.72-2.55,3.17h0Z"/>
      <path class="cls-2" d="M26.16,18h0,0ZM27.87,16.44s-.1.01-.15.03c-.25.06-.52.27-.75.56-.25.3-.43.69-.5,1.03h0c-.09.44,0,.69.11.81.09.08.21.09.36.05.24-.06.51-.27.75-.55.26-.33.43-.69.51-1.06.06-.31.03-.59-.07-.75-.03-.03-.1-.13-.25-.13h0ZM26.79,19.56c-.24,0-.46-.08-.62-.24-.31-.29-.42-.79-.31-1.38h0c.1-.45.32-.91.63-1.3.32-.4.71-.67,1.08-.77.43-.12.83.02,1.07.35.21.31.27.74.17,1.23-.09.46-.31.92-.63,1.31-.33.41-.7.68-1.07.77-.12.03-.21.04-.31.04h0ZM25.32,18.23h0,0ZM28.26,15.31c-.11,0-.22.03-.31.05-.99.26-2.06,1.61-2.33,2.93h0c-.14.65-.06,1.23.21,1.55.15.17.37.25.59.25.91-.03,2.28-1.37,2.62-3,.12-.61.07-1.15-.16-1.46-.18-.24-.4-.32-.62-.32h0ZM26.4,20.7c-.41,0-.77-.16-1.04-.48-.39-.46-.52-1.22-.35-2.06.32-1.58,1.55-3.08,2.77-3.41.66-.17,1.24.01,1.6.51.33.46.42,1.16.26,1.94-.36,1.79-1.89,3.45-3.21,3.49h-.04Z"/>
      <path class="cls-1" d="M27.66,14.48v-5.01l-.94-1.34c-.12-.17-.39,0-.5.3l-.94,2.4v5.01c.05-.07.1-.13.15-.19v-.02c.5-.61,1.07-1,1.58-1.14.23-.06.45-.07.65-.03Z"/>
      <path class="cls-2" d="M25.6,10.9v4.13c.42-.42.89-.69,1.34-.82.15-.04.29-.06.42-.06v-4.58l-.79-1.12s-.03.06-.06.11l-.9,2.34h0ZM25.28,16.16s-.06,0-.09,0c-.12-.04-.21-.17-.21-.3v-5.01s.01-.08.02-.11l.94-2.4c.12-.32.36-.54.61-.57.18-.03.34.05.43.19l.94,1.34c.03.05.05.11.05.17v5.01c0,.1-.04.18-.11.24-.07.06-.17.08-.26.06-.15-.03-.31-.03-.51.02-.46.13-.97.5-1.41,1.04-.06.07-.11.13-.15.19-.06.08-.16.12-.25.12Z"/>
      <path class="cls-1" d="M24.39,18.15l-3.75,4.66-.9,2.32c-.03.09-.08.19-.08.29,0,.06.01.12.04.15.04.05.09.07.15.06.07,0,.16-.07.21-.09l1.77-1.03,2.52-3.14,1.09-1.37-.41-.24c-.29-.17-.39-.3-.53-.62-.12-.36-.15-.63-.12-1Z"/>
      <path class="cls-2" d="M20.91,22.97l-.85,2.21,1.57-.9,3.36-4.18-.1-.05c-.35-.21-.5-.38-.67-.76-.04-.11-.06-.21-.09-.31l-3.22,4.01h0ZM19.83,25.94c-.15,0-.28-.07-.37-.19-.06-.1-.09-.21-.09-.33,0-.15.05-.27.09-.37l.91-2.34s.03-.06.05-.09l3.74-4.66c.09-.1.24-.14.36-.09.13.05.21.17.19.31-.02.35,0,.57.1.87.11.24.18.32.41.46l.4.23c.08.04.13.11.15.21.02.09,0,.17-.06.24l-3.62,4.5s-.06.06-.09.08l-1.77,1.02c-.1.06-.2.12-.32.14-.02.01-.04.01-.07.01Z"/>
    </g>
  </g>
</svg>