<?xml version="1.0" encoding="UTF-8"?>
<svg id="Layer_2" data-name="Layer 2" xmlns="http://www.w3.org/2000/svg" viewBox="0 0 33.07 41.84" fill="currentColor">
  <defs>
    <style>
      .cls-1 {
        fill: #fff;
      }

      .cls-1, .cls-2, .cls-3, .cls-4 {
        fill-rule: evenodd;
      }

      .cls-2 {
        fill: #1a87c7;
      }

      .cls-3 {
        fill: #bdedf8;
      }

      .cls-4 {
        fill: #66ceef;
      }
    </style>
  </defs>
  <g id="_Layer_" data-name="&amp;lt;Layer&amp;gt;">
    <g>
      <path class="cls-4" d="M21.13,27.44c-.68-.34-1.34-.29-2.07-.16-.63.15-1.07.31-1.62.65l1.52.87c.63-.39,1.15-.56,1.89-.7.65-.08,1.18-.09,1.81.21l-1.52-.87h0ZM18.93,31.36c.05.07.34.32-.03,1.81-.24.84-.42,1.63-.81,2.45-.37.6-1.18,1.27-1.94.87l1.52.87c.26.14.58.1.86.03.84-.23,1.07-.87,1.36-1.63.31-.89,1.02-2.82.52-3.52l-1.49-.87h0ZM14.48,25.81l3.46-2c.05-.03.08-.03.16,0l1.47.86c-.08-.03-.31.13-.39.18l-3.17,1.83c-.08.06-.13.12-.16.23-.24,1.44-.45,2.88-.66,4.33-.16,1.04-.29,2.09-.42,3.14-.16,1.62-.97,5.85.71,6.87l-1.49-.87c-1.36-.83-1.02-3.01-.94-4.36.16-2.24.45-4.44.79-6.65.16-1.11.34-2.22.52-3.33.03-.09.05-.17.13-.23h0Z"/>
      <path class="cls-2" d="M18.07,27.94l.86.5c.6-.33,1.1-.51,1.86-.65.11,0,.18-.02.29-.03l-.08-.06c-.6-.27-1.15-.26-1.89-.12-.42.1-.73.21-1.05.36h0ZM18.96,29.11c-.08,0-.13-.01-.16-.03l-1.52-.87c-.11-.06-.16-.16-.16-.27,0-.11.05-.21.16-.26.55-.34,1.02-.52,1.7-.69.86-.16,1.55-.18,2.28.17h.03s1.49.88,1.49.88c.16.09.21.27.13.41-.08.15-.26.21-.39.14-.52-.26-1-.26-1.65-.17-.71.12-1.18.3-1.78.65-.05.03-.1.04-.13.04h0ZM17.25,36.76l.58.32c.16.09.39.05.66,0,.66-.18.84-.69,1.13-1.41l.08-.23c.24-.74.81-2.43.52-3l-.81-.47c0,.3-.05.71-.18,1.25l-.05.17c-.21.8-.42,1.56-.79,2.34-.29.44-.68.82-1.13,1.02h0ZM18.07,37.76c-.18,0-.37-.04-.55-.13l-1.52-.88c-.13-.08-.18-.27-.1-.42.08-.15.26-.2.42-.11.55.29,1.21-.27,1.52-.77.34-.7.52-1.44.73-2.2l.05-.17c.29-1.15.13-1.44.08-1.51-.08-.11-.1-.29,0-.4.11-.11.26-.15.37-.07l1.52.86c.05.03.08.05.1.09.5.71.08,2.16-.42,3.59l-.05.21c-.34.83-.63,1.56-1.6,1.83-.16.04-.37.08-.55.08h0ZM14.66,26.07l3.35-1.95.89.51-3.09,1.79c-.16.11-.24.24-.26.43-.24,1.44-.47,2.89-.68,4.34-.13,1.05-.29,2.09-.39,3.15-.03.2-.05.43-.1.7-.18,1.5-.5,3.75.03,5.22l-.26-.15c-1.05-.65-.92-2.35-.81-3.6,0-.17.03-.33.03-.49.16-2.32.47-4.65.76-6.62.18-1.11.37-2.22.55-3.34h0ZM15.47,41.55c-.05,0-.1,0-.16-.04l-1.49-.86c-1.39-.84-1.23-2.76-1.13-4.17.03-.17.03-.33.03-.48.18-2.35.5-4.69.79-6.67.18-1.11.34-2.23.52-3.34.05-.18.13-.32.29-.42h0s3.48-2.01,3.48-2.01c.05-.03.21-.13.45,0l1.47.86c.16.08.21.25.13.4-.05.11-.16.17-.29.17-.05.02-.13.07-.16.09,0,0-.08.04-.08.05l-3.17,1.83c-.24,1.44-.47,2.88-.68,4.33-.13,1.04-.26,2.09-.39,3.13-.03.2-.05.44-.08.71-.24,1.77-.68,5.07.63,5.87.16.09.21.27.1.42-.05.09-.16.15-.26.15Z"/>
      <path class="cls-3" d="M17.73,35.44c-.08.25-.13.54-.18.81-.21,1.3.39,1.51,1.41.99.55-.28.89-1.26,1.13-2.03.13-.43.26-.92.39-1.35.13-.58.21-1.07.11-1.38-.18-.51-1.05-.45-1.6,0-.45.36-.68.98-.89,1.69-.13.43-.26.87-.37,1.29h0ZM15.79,41.37c-.42-.14-.79-.42-1.05-.87-.42-.76-.29-3.34.03-6.14.31-2.77.81-5.78,1.07-7.47.03-.09.08-.18.16-.23l3.46-2.01s.03-.01.05-.01c.08-.03.1.03.1.13-.16.85-.29,1.68-.42,2.49-.08.52-.18,1.03-.24,1.52,1.13-.7,2.52-.92,3.38-.62,1.55.51,1.65,2.55,1.15,4.85-.24,1.08-.58,2.29-1.07,3.47-1.57,3.74-4.43,5.61-6.63,4.88h0Z"/>
      <path class="cls-2" d="M18.01,35.52c-.05.24-.11.52-.16.78-.11.65.03.82.08.85.1.08.39.06.86-.18.34-.18.68-.81,1-1.85.13-.43.26-.91.37-1.34.08-.25.24-.92.13-1.22,0-.03-.03-.1-.16-.13-.23-.06-.63.01-.94.27-.39.32-.63.93-.81,1.55-.13.42-.26.85-.37,1.27h0ZM18.09,37.81c-.18,0-.37-.05-.5-.16-.37-.24-.47-.74-.34-1.46.03-.28.11-.56.16-.83h0c.1-.42.24-.87.37-1.29.21-.7.5-1.42,1.02-1.84.45-.36,1.05-.51,1.49-.38.29.08.5.27.58.52.16.41.05.99-.11,1.57-.1.43-.24.92-.37,1.36-.24.78-.63,1.87-1.31,2.23-.37.19-.71.3-1,.3h0ZM15.89,41.08h0c-.39-.12-.68-.36-.86-.72-.18-.34-.45-1.56.05-5.95.24-2.04.58-4.55,1.07-7.46l3.07-1.78c-.1.7-.24,1.39-.34,2.07-.08.52-.16,1.03-.24,1.52-.03.12.03.23.13.3.11.07.21.07.31,0,1.05-.63,2.33-.87,3.14-.6,1.49.5,1.34,2.72.94,4.49-.26,1.26-.63,2.42-1.05,3.42-1.41,3.4-4.11,5.42-6.24,4.7h0ZM16.81,41.84c-.39,0-.76-.05-1.13-.17h0c-.52-.18-.92-.52-1.21-1.02-.16-.27-.6-1.08,0-6.32.24-2.05.58-4.57,1.07-7.48,0-.17.13-.35.29-.44l3.48-2s.03-.02.03-.03c.03,0,.08-.03.08-.03.11-.03.26,0,.34.08.13.09.16.24.13.41-.13.85-.29,1.68-.42,2.49-.03.3-.08.61-.13.91,1.05-.5,2.23-.64,3.09-.36,1.05.36,2.15,1.55,1.34,5.21-.29,1.3-.65,2.49-1.07,3.52-1.36,3.21-3.69,5.23-5.89,5.23Z"/>
      <path class="cls-3" d="M32.71,5.32l-.63-.36c-.34-.1-.65.25-.89.46L13.74,21.97v3.99l.6.36v-3.99L31.79,5.78c.24-.21.58-.57.92-.46Z"/>
      <path class="cls-2" d="M14.03,25.79h.03v-3.43c-.03-.09,0-.19.08-.26L31.69,5.46c.08-.07.16-.15.26-.22l-.03-.02h0c-.08,0-.29.19-.45.34l-.1.09L14.03,22.1v3.69h0ZM14.35,26.63c-.05,0-.1-.02-.13-.04l-.63-.36c-.11-.06-.16-.16-.16-.27v-3.96c-.03-.1.03-.18.11-.26L31.09,5.1c.24-.23.63-.57,1.1-.43l.68.38c.13.08.18.24.13.39-.05.14-.21.22-.37.18-.13-.04-.37.15-.52.3l-.11.09L14.66,22.46v3.86c0,.11-.05.22-.16.27-.03.02-.08.04-.16.04Z"/>
      <path class="cls-1" d="M23.25,17.72c3.22-3.57,6.81-7.88,8.93-11.06,1.07-1.59.47-1.71-.39-.89L14.35,22.33v3.99c3.3-2.95,5.76-5.13,8.91-8.6Z"/>
      <path class="cls-2" d="M14.66,22.46v3.17c3.09-2.76,5.4-4.84,8.36-8.12h0c3.75-4.14,7.07-8.26,8.91-11.02.26-.38.39-.63.45-.8-.08.07-.21.17-.37.3L14.66,22.46h0ZM14.35,26.63s-.08,0-.1-.03c-.13-.05-.18-.17-.18-.29v-3.96c-.03-.1,0-.18.08-.26L31.59,5.55c.58-.55,1.02-.72,1.31-.48.34.26.18.81-.45,1.76-1.86,2.78-5.21,6.93-8.99,11.08h0c-3.09,3.44-5.48,5.56-8.78,8.51l-.13.12c-.05.05-.13.08-.21.08Z"/>
      <path class="cls-3" d="M24.43.7l-.68-.39c-.66.17-1.52,2.49-1.81,3.14-.68,1.57-1.28,3.15-1.89,4.75-.68,1.89-1.34,3.8-1.96,5.72l-.21.63c-.52,1.67-1.02,3.33-1.49,5.01-.34,1.3-.63,2.66-.92,3.99-.16.93-.34,1.85-.5,2.78l.65.39c.18-1.04.37-2.07.58-3.09.31-1.41.63-2.79,1-4.17.5-1.73,1.02-3.43,1.57-5.15.68-2.14,1.42-4.25,2.18-6.35.6-1.57,1.23-3.11,1.89-4.65.26-.58.97-2.45,1.6-2.61Z"/>
      <path class="cls-2" d="M15.32,26.17l.1.05c.13-.9.31-1.76.5-2.67.29-1.32.6-2.75.99-4.18.45-1.62.97-3.31,1.55-5.16.73-2.26,1.47-4.34,2.23-6.36.65-1.77,1.26-3.26,1.89-4.67l.11-.31c.39-.88.76-1.7,1.18-2.15l-.1-.07c-.24.18-.63.79-1.39,2.58l-.13.34c-.63,1.42-1.23,2.96-1.89,4.73-.66,1.82-1.31,3.69-1.97,5.71l-.18.62c-.6,1.84-1.07,3.48-1.49,5.01-.37,1.33-.66,2.75-.92,3.96-.18.85-.34,1.7-.47,2.56h0ZM15.63,27.02c-.05,0-.11-.02-.16-.04l-.65-.38c-.1-.07-.18-.19-.16-.32.16-.94.34-1.86.52-2.79.26-1.23.55-2.66.92-4.01.42-1.54.92-3.19,1.49-5.03l.21-.62c.65-2.03,1.28-3.91,1.96-5.74.65-1.77,1.28-3.33,1.89-4.76l.13-.33c.73-1.73,1.31-2.83,1.89-2.99.08-.02.18-.01.24.03l.68.38c.1.06.16.18.13.3,0,.13-.11.23-.21.26-.39.09-1.05,1.62-1.26,2.12l-.13.32c-.6,1.4-1.21,2.87-1.89,4.62-.73,2.03-1.44,4.09-2.2,6.35-.58,1.84-1.07,3.52-1.55,5.14-.37,1.42-.68,2.83-.97,4.15-.21,1.03-.39,2.04-.58,3.08-.03.1-.08.19-.18.23-.03.02-.08.02-.13.02Z"/>
      <path class="cls-1" d="M19.11,24.71l.34-1.67.21-1.06,1.28-5.41,3.54-14.87c.29-1.15-.1-1.59-.97.12-2.41,4.92-5.27,13.69-6.58,18.59-.42,1.76-.79,3.44-1.07,5.02-.03.18-.16.78-.24,1.27l3.46-1.98.03-.02h0Z"/>
      <path class="cls-2" d="M24.28,1.17c-.11.13-.26.37-.47.79-2.49,5.07-5.32,13.89-6.58,18.53-.42,1.79-.79,3.48-1.07,5,0,.08-.03.23-.08.42,0,.06,0,.13-.03.2l2.8-1.61.52-2.59L24.2,1.63c.05-.2.08-.35.08-.46h0ZM15.63,27.02c-.05,0-.13-.02-.18-.05-.08-.07-.13-.19-.13-.31.05-.29.1-.6.16-.86l.08-.42c.29-1.54.65-3.23,1.1-5.05,1.23-4.67,4.11-13.54,6.6-18.65.5-1.03.89-1.43,1.28-1.29.37.12.45.6.26,1.37l-5.03,21.32-.37,1.67c0,.11-.08.19-.18.23l-3.43,1.98c-.05.03-.1.04-.16.04Z"/>
      <path class="cls-4" d="M7.14,24.35l1.49.87c.79.71.44,1.7-.11,2.39-.63.8-1.52,1.72-2.36,2.32-.26.17-.5.3-.79.15l-1.52-.87c.6.32,1.76-.94,2.12-1.31.5-.5.97-1,1.36-1.59.37-.61.34-1.44-.21-1.95h0ZM9.45,20.57c-1.23-.66-2.23-.22-3.33.48-.92.67-1.65,1.35-2.46,2.17-1.13,1.19-2.02,2.31-2.7,3.8-.63,1.55-.89,3.01-.39,4.66.34.76.58,1.1,1.28,1.52l1.49.87c-1-.6-1.28-1.28-1.49-2.45-.13-1.51.1-2.6.73-3.99.65-1.35,1.57-2.45,2.57-3.54,1-1,1.94-1.9,3.2-2.58.97-.43,1.62-.58,2.59-.06l-1.49-.87h0ZM13.82,21.41l1.49.87c-.08-.03-.16.07-.24.13-.94.77-1.89,1.54-2.83,2.32l-1.49-.87c.94-.8,1.91-1.57,2.88-2.37.05-.04.1-.11.18-.08h0Z"/>
      <path class="cls-2" d="M11.28,23.82l.94.54c.37-.31.76-.63,1.13-.94.47-.37.92-.75,1.39-1.13l-.94-.54c-.52.45-1.02.86-1.52,1.26-.34.27-.66.54-1,.81h0ZM12.25,25.03c-.05,0-.1-.02-.16-.04l-1.49-.87c-.08-.04-.16-.14-.16-.24,0-.11.03-.2.1-.27.45-.36.89-.72,1.34-1.08.52-.43,1.02-.85,1.54-1.29.08-.07.26-.23.5-.13t.05.02l1.49.87c.13.08.18.25.13.4-.05.1-.16.17-.26.17-.03.03-.05.06-.05.06-.52.42-1.02.84-1.55,1.25-.42.36-.86.71-1.28,1.07-.08.04-.13.07-.21.07h0ZM4.76,29.37l.79.45c.1.06.18.03.47-.14.68-.5,1.55-1.35,2.28-2.25.29-.36.86-1.31.13-1.96l-.55-.32c.08.47-.03.96-.26,1.33-.39.62-.89,1.13-1.41,1.65l-.13.14c-.42.43-.86.86-1.31,1.11h0ZM5.65,30.46c-.13,0-.26-.03-.42-.1l-1.49-.87c-.16-.09-.21-.27-.13-.42.08-.15.26-.2.42-.12.13.07.5,0,1.62-1.12l.13-.14c.5-.51.94-.98,1.31-1.54.26-.45.29-1.14-.16-1.56-.13-.11-.13-.29-.05-.41.1-.13.26-.16.42-.09l1.49.87c.84.73.81,1.78,0,2.84-.76.95-1.68,1.83-2.44,2.38-.21.11-.42.27-.71.27h0ZM8.24,20.56c.34,0,.68.09,1.05.29h.03c-.37.08-.71.21-1.13.39-1.31.72-2.33,1.7-3.25,2.64-.89.95-1.91,2.12-2.65,3.62-.68,1.5-.86,2.63-.76,4.17.1.44.18.83.34,1.17-.55-.35-.73-.65-1.02-1.26-.42-1.43-.31-2.76.39-4.44.66-1.44,1.52-2.53,2.65-3.71.66-.69,1.42-1.42,2.38-2.12.76-.47,1.36-.76,1.97-.76h0ZM3.34,34.37c-.05,0-.1-.01-.16-.04l-1.49-.86c-.79-.48-1.05-.89-1.41-1.67-.47-1.59-.34-3.09.39-4.89.68-1.53,1.6-2.66,2.78-3.89.68-.71,1.47-1.46,2.51-2.21,1.05-.68,2.17-1.27,3.62-.5,0,0,.03,0,.03,0l1.49.86c.16.09.21.27.1.42-.08.15-.26.2-.39.12-.86-.45-1.39-.35-2.36.07-1.21.68-2.18,1.62-3.07,2.52-.86.91-1.83,2.04-2.51,3.46-.63,1.39-.84,2.43-.71,3.84.18,1.05.45,1.66,1.34,2.2.16.09.21.28.11.42-.05.1-.16.15-.26.15Z"/>
      <path class="cls-3" d="M4.97,29.2c.08.34.18.66.34.83.18.16.42.18.76-.02.26-.18.65-.51,1.07-.89.47-.45.94-.97,1.26-1.34.39-.45.6-.78.68-1.08h0c.08-.3.03-.6-.13-.97-.18-.51-.42-.64-.71-.56-.76.24-3.49,2.89-3.28,4.03h0ZM13.53,23.67c.52-.42,1.05-.84,1.57-1.28.1-.09.26-.22.26-.03v3.91c0,.3-.16.36-.39.55-2.88,2.43-7.94,6.64-10.53,7.27-1.62.39-2.57-1.17-2.65-2.99-.08-2.8,1.6-5.26,3.72-7.38,2.1-2.09,4.19-3.42,5.69-2.07.71.64,1.07,1.75,1.05,3.08.39-.33.84-.7,1.28-1.06h0Z"/>
      <path class="cls-2" d="M8.37,25.46s-.03,0-.05,0c-.71.22-3.22,2.78-3.04,3.68h0c.08.44.18.6.24.65.03.03.11.11.39-.06.24-.15.58-.45,1.02-.85.45-.43.94-.93,1.23-1.31.37-.43.55-.73.6-.96.08-.23.03-.45-.1-.78-.11-.33-.21-.38-.29-.38h0ZM5.62,30.46c-.24,0-.42-.11-.52-.21-.21-.2-.34-.51-.42-.99-.26-1.35,2.62-4.13,3.46-4.39.34-.11.81-.05,1.13.74.16.46.21.81.11,1.17-.08.33-.29.69-.73,1.2-.31.39-.81.92-1.28,1.36-.31.3-.79.71-1.13.92-.24.15-.45.2-.6.2h0ZM9.81,21.42c.45,0,.86.16,1.2.46.6.57.94,1.58.92,2.84,0,.12.08.24.18.29.1.05.24.03.34-.04.39-.33.84-.69,1.28-1.06h0c.45-.36.86-.71,1.31-1.08v3.45q0,.09-.13.21l-.13.1c-2.57,2.13-7.86,6.58-10.43,7.2-.47.12-.92.04-1.26-.23-.58-.44-.94-1.36-1-2.48-.08-2.3,1.1-4.63,3.62-7.14,1.7-1.69,3.04-2.53,4.09-2.53h0ZM3.94,34.45c-.45,0-.86-.14-1.23-.41-.71-.55-1.18-1.65-1.2-2.94-.1-2.48,1.15-4.96,3.8-7.61.97-.98,3.98-3.99,6.1-2.08.66.58,1.05,1.51,1.13,2.66.26-.21.52-.44.81-.65l.18.24-.18-.24v-.02c.5-.41,1.02-.84,1.55-1.26.13-.11.34-.28.55-.17.08.03.24.12.24.37v3.91c0,.39-.24.56-.39.7l-.1.09c-2.78,2.33-7.97,6.68-10.66,7.33-.21.05-.39.07-.58.07Z"/>
      <path class="cls-4" d="M19.43,19.67c.52.3.52,1.3,0,2.22-.52.93-1.41,1.42-1.94,1.12-.52-.31-.52-1.31,0-2.23.52-.92,1.41-1.43,1.94-1.11Z"/>
      <path class="cls-2" d="M19.06,19.89c-.37,0-.92.36-1.31,1.05-.24.39-.37.83-.37,1.19,0,.3.11.53.26.62.34.19,1.05-.17,1.52-1,.47-.84.45-1.63.1-1.82-.05-.03-.13-.04-.21-.04h0ZM17.83,23.42c-.16,0-.34-.04-.5-.14-.34-.2-.55-.61-.55-1.15,0-.48.16-1.01.45-1.5.63-1.09,1.68-1.62,2.36-1.23h0c.68.4.73,1.56.1,2.65-.5.84-1.2,1.37-1.86,1.37Z"/>
    </g>
  </g>
</svg>