<?xml version="1.0" encoding="UTF-8"?>
<svg id="Layer_2" data-name="Layer 2" xmlns="http://www.w3.org/2000/svg" viewBox="0 0 30.06 47.78" fill="currentColor">
  <defs>
    <style>
      .cls-1 {
        fill: #fff;
      }

      .cls-1, .cls-2, .cls-3, .cls-4 {
        fill-rule: evenodd;
      }

      .cls-2 {
        fill: #1a87c7;
      }

      .cls-3 {
        fill: #bdedf8;
      }

      .cls-4 {
        fill: #66ceef;
      }
    </style>
  </defs>
  <g id="_Layer_" data-name="&amp;lt;Layer&amp;gt;">
    <g>
      <path class="cls-1" d="M7.36,29.14c.24-.3.78-1.04.97-1.36.37-.63.36-.87.43-1.61,2.95,3.42,9.91-1.67,12.68-3.27.11,1.71.76,2.48,1.31,3.58h0c2.6,4.03.2,12.24-2.75,13.34-2.17.81-4.57-1.33-6.69-2.12-2.27-.85-5.57-7.34-5.95-8.57Z"/>
      <path class="cls-2" d="M7.71,29.19c.54,1.48,3.68,7.46,5.71,8.22.65.24,1.33.61,1.99.97,1.52.83,3.09,1.68,4.49,1.16,1.09-.4,2.21-2,2.92-4.16.83-2.5,1.25-6.3-.32-8.73-.13-.26-.25-.47-.37-.68-.39-.71-.79-1.43-.95-2.55-.26.16-.55.33-.85.52-3.2,1.98-8.45,5.23-11.33,2.9-.05.36-.14.64-.41,1.1-.17.29-.62.9-.89,1.26h0ZM18.98,40.32c-1.29,0-2.59-.71-3.86-1.39-.67-.36-1.3-.7-1.91-.93-2.44-.92-5.8-7.66-6.14-8.77-.03-.1-.01-.2.05-.28.23-.29.77-1.02.95-1.33.3-.5.32-.71.37-1.26l.02-.22c.01-.12.1-.23.21-.26.12-.04.24,0,.33.09,2.39,2.77,7.79-.56,11.01-2.56.49-.3.92-.57,1.28-.78.09-.05.21-.06.3,0,.09.05.16.15.16.25.08,1.28.49,2.01.92,2.79.12.22.25.44.36.68,1.67,2.59,1.25,6.6.37,9.23-.78,2.37-2.02,4.06-3.29,4.54-.38.14-.76.2-1.14.2Z"/>
      <path class="cls-3" d="M29.69,35.36v-4.54c0-3.63-3.49-5.52-6.59-5.78-.44-.04-.78-.07-1.05-.09-.06.13-.13.25-.19.37l-.29.52c.45,3.9,1.52,6.07.05,9.98-.73,1.93-1.51,3.41-1.96,3.59-.47.19-1.2-.21-2.08-.71-4.54-2.58-6.71-5.03-10.22-9.59-.02-.02-.04-.03-.07-.03-.15,0-.67.57-.59.9-1.45,1.86-1.8,1.78-3.46,3.59C-.23,37.49.34,38.92.34,43.4c0,1.37.17,1.72,1.66,2.58,9.97,5.76,27.69-6.8,27.69-10.62Z"/>
      <path class="cls-2" d="M7.25,29.49c-.12.13-.26.34-.25.43.02.09,0,.19-.06.26-.85,1.09-1.34,1.53-1.9,2.05-.41.37-.88.8-1.58,1.56-2.92,3.29-2.89,4.75-2.83,7.95,0,.5.02,1.06.02,1.66,0,1.25.1,1.51,1.51,2.32,6.68,3.86,16.22-1.05,18.99-2.65,5.09-2.94,8.24-6.29,8.24-7.71h0v-4.54c0-3.39-3.27-5.21-6.3-5.48-.34-.03-.61-.06-.84-.07-.03.07-.07.13-.1.2l-.25.44c.11.9.25,1.71.38,2.48.43,2.52.78,4.51-.36,7.54-.39,1.03-1.37,3.45-2.14,3.77-.62.25-1.42-.2-2.35-.73-4.53-2.58-6.71-5-10.18-9.49h0ZM8.07,47.76c-2.36,0-4.47-.5-6.22-1.51-1.53-.88-1.81-1.33-1.81-2.85,0-.6,0-1.15-.02-1.65-.06-3.26-.09-4.9,2.99-8.37.72-.79,1.2-1.22,1.62-1.61.55-.5.99-.9,1.76-1.88,0-.28.18-.55.3-.7.15-.19.38-.4.61-.42.09,0,.25.08.3.15,3.5,4.54,5.64,6.96,10.13,9.51.72.41,1.47.83,1.81.69.25-.1.97-1.23,1.79-3.42,1.08-2.87.75-4.79.33-7.22-.14-.81-.29-1.66-.4-2.62,0-.06,0-.13.04-.19l.29-.52c.06-.12.13-.24.19-.36.06-.11.15-.17.29-.17.27.01.62.04,1.07.09,3.3.28,6.86,2.31,6.86,6.09v4.54c0,1.88-3.68,5.43-8.56,8.24-4.75,2.74-9.41,4.15-13.38,4.15Z"/>
      <path class="cls-1" d="M24.01,25.16s-.03,0-.05,0c.02,0,.03,0,.05,0Z"/>
      <path class="cls-2" d="M24.01,25.47s-.03,0-.05,0h-.05c-.15-.04-.25-.17-.25-.31,0-.02,0-.04,0-.06.03-.17.2-.28.36-.24.15.03.27.17.27.31,0,.02,0,.03,0,.05-.03.15-.14.25-.28.25Z"/>
      <path class="cls-1" d="M19.78,28.38c1.05-1.3,1.77-2.38,2.41-3.71l-.04.08c.54-1.17,1.01-2.44,1.37-3.79h0c.19-.77.36-1.58.51-2.38.32-1.82.47-3.46.37-5.3-.16-1.46-1.98-.76-3.94,0-2.3.89-4.76,1.83-5.74.03l-.02.03c-.99,1.55-2.83,4.45-3.21,8.04-.28,2.7.25,6.32,2.1,8.22l-.04.02c.73.23,1.48.37,2.23.44,2.37.24,2.58.09,4-1.68Z"/>
      <path class="cls-2" d="M13.8,29.37c.64.18,1.31.31,2.01.38,2.3.23,2.4.09,3.73-1.56h0c1.07-1.33,1.75-2.37,2.33-3.56h0c.54-1.16,1-2.42,1.36-3.74,0,0,0-.02,0-.02.19-.76.36-1.55.49-2.33.34-1.93.45-3.55.37-5.24-.04-.3-.16-.41-.24-.46-.54-.33-1.99.24-3.28.73-2.17.84-4.61,1.78-5.84.3-1.02,1.62-2.59,4.3-2.93,7.53-.28,2.64.24,6.13,2,7.96h0ZM17.09,30.45c-.37,0-.8-.03-1.34-.08-.8-.08-1.57-.23-2.29-.46-.11-.03-.19-.12-.21-.23-1.81-2.01-2.34-5.61-2.06-8.34.39-3.66,2.25-6.6,3.25-8.17.06-.09.14-.16.28-.16.11,0,.22.05.27.15.86,1.57,3.15.68,5.36-.17,1.62-.63,3.03-1.17,3.82-.68.31.19.49.5.54.94.09,1.76-.02,3.41-.37,5.39-.14.81-.31,1.61-.51,2.4,0,.02,0,.03-.01.04-.36,1.3-.8,2.54-1.33,3.69,0,.01,0,.02-.02.03-.61,1.27-1.32,2.36-2.45,3.77-1.15,1.44-1.57,1.88-2.94,1.88Z"/>
      <path class="cls-4" d="M11.89,30.16c-5.41-3.12-7.18-2.92-9.15-8.32-1.41-5.27-1.61-10.39,1.09-14.97,1.03-1.6,5.29-5.14,6.98-4.17.19-.31.41-.58.64-.87l.43-.45.45-.38c3.78-2.5,11.12,2.17,13.06,5.46,1.73,2.93,2.03,8.55-1.53,16.85-.47.42-1.03.87-1.68,1.35l-.04.08c.54-1.17,1.01-2.44,1.37-3.79h0c.19-.77.36-1.58.51-2.38.32-1.82.47-3.46.37-5.3-.16-1.46-1.98-.76-3.94,0-2.3.89-4.76,1.83-5.74.03l-.02.03c-.99,1.55-2.83,4.45-3.21,8.04-.28,2.7.25,6.32,2.1,8.22-.67.27-1.24.46-1.7.56Z"/>
      <path class="cls-2" d="M10.12,2.84c-1.7,0-5.05,2.67-6.03,4.19-2.34,3.98-2.68,8.66-1.05,14.72,1.52,4.15,2.86,4.85,6.09,6.55.82.43,1.74.91,2.81,1.52.32-.08.7-.2,1.13-.36-1.67-2.04-2.15-5.49-1.88-8.13.39-3.66,2.25-6.6,3.25-8.17.06-.09.14-.16.28-.16.11,0,.22.05.27.15.86,1.57,3.15.68,5.36-.17,1.62-.63,3.03-1.17,3.82-.68.31.19.49.5.54.94.09,1.76-.02,3.41-.37,5.39-.14.81-.31,1.61-.51,2.4,0,.02,0,.03-.01.04-.25.91-.54,1.79-.88,2.63.24-.2.47-.38.67-.57,4.27-9.99,2.49-14.88,1.52-16.51-1.27-2.15-4.98-5-8.49-5.81-1.7-.39-3.1-.24-4.14.45l-.43.36-.41.42c-.23.29-.42.54-.59.81-.09.14-.27.19-.42.1-.15-.09-.33-.13-.54-.13h0ZM11.89,30.47c-.05,0-.11-.01-.15-.04-1.11-.64-2.06-1.13-2.89-1.57-3.29-1.72-4.79-2.5-6.39-6.9-1.68-6.26-1.33-11.09,1.11-15.23.93-1.45,5.04-5.1,7.13-4.4.15-.22.3-.41.47-.62,0,0,.06-.07.06-.08l.43-.45.48-.4C13.34-.02,14.94-.2,16.79.22c3.66.85,7.54,3.83,8.88,6.09,2.14,3.64,1.59,9.88-1.51,17.13-.02.04-.05.08-.08.11-.46.41-1.02.86-1.64,1.32h0c-.08.17-.26.23-.41.15-.15-.07-.22-.25-.15-.41.54-1.16,1-2.42,1.36-3.74,0,0,0-.02,0-.02.19-.76.36-1.55.49-2.33.34-1.93.45-3.55.37-5.24-.04-.3-.16-.41-.24-.46-.54-.33-1.99.24-3.28.73-2.17.84-4.61,1.78-5.84.3-1.02,1.62-2.59,4.3-2.93,7.53-.28,2.65.24,6.14,2.01,7.98.07.08.1.18.08.28-.02.1-.09.18-.19.22-.68.27-1.27.46-1.75.57-.02,0-.04,0-.07,0Z"/>
      <path class="cls-4" d="M6.7,29.99c-.06.04-3.13,3.23-3.46,3.59C-.23,37.49.34,38.92.34,43.4c0,1.37.17,1.72,1.66,2.58,4.01,2.32,9.27,1.67,14.13-.18-2.5-2.38-2.87-5.02-3.42-7.64l-3.86,2.53-2.15-10.7Z"/>
      <path class="cls-2" d="M6.51,30.62c-.85.87-2.78,2.88-3.05,3.17-2.92,3.29-2.89,4.75-2.83,7.95,0,.5.02,1.06.02,1.66,0,1.25.1,1.51,1.51,2.32,4.21,2.43,9.54,1.38,13.41-.03-2.09-2.18-2.57-4.56-3.04-6.87l-.03-.14-3.48,2.28c-.09.06-.19.07-.29.03-.09-.04-.16-.12-.18-.23l-2.04-10.13h0ZM8.04,47.78c-2.13,0-4.26-.42-6.19-1.53-1.53-.88-1.81-1.33-1.81-2.85,0-.6,0-1.15-.02-1.65-.06-3.26-.09-4.9,2.99-8.37.03-.04,3.4-3.57,3.54-3.65.09-.05.19-.06.28-.02.09.04.16.12.18.22l2.06,10.25,3.48-2.28c.09-.06.19-.07.29-.03.09.04.16.12.18.22l.12.58c.5,2.45.97,4.76,3.21,6.9.08.07.11.18.09.28-.02.1-.09.19-.19.23-2.34.89-5.26,1.69-8.2,1.69Z"/>
      <path class="cls-2" d="M13.83,46.15c-.11,0-.21-.06-.27-.15l-3.49-6.12c-.08-.15-.03-.33.11-.42.15-.08.34-.03.42.12l3.49,6.12c.08.15.03.34-.12.42-.05.03-.1.04-.15.04Z"/>
      <path class="cls-4" d="M29.76,34.76l-.06-3.94c0-3.63-3.49-5.52-6.59-5.78-.44-.04-.78-.07-1.05-.09-.06.13-.13.25-.19.37h0s5.99,7.81,5.99,7.81l-3.61-.25c.75,3.4-.19,7.1-.53,8.93,5.25-2.86,6.05-5.25,6.05-7.06Z"/>
      <path class="cls-2" d="M24.62,33.22c.54,2.94-.09,6.04-.47,7.92,0,.03-.01.06-.02.08,4.69-2.69,5.31-4.86,5.31-6.47l-.06-3.93c0-3.39-3.27-5.22-6.31-5.48-.34-.03-.61-.06-.84-.07,0,0,0,.01,0,.02l5.87,7.66c.07.1.08.23.03.34-.06.1-.17.17-.29.16l-3.21-.23h0ZM23.71,42.13c-.06,0-.13-.02-.18-.06-.1-.07-.14-.19-.12-.3.04-.22.09-.47.15-.74.39-1.92,1.03-5.14.39-8.07-.02-.09,0-.19.07-.27.06-.07.15-.12.25-.11l2.93.2-5.53-7.22c-.1-.09-.13-.23-.08-.35,0,0,0-.02.01-.02.06-.12.13-.24.19-.37.06-.11.15-.17.29-.17.27.01.62.04,1.07.09,3.3.28,6.86,2.31,6.86,6.09l.06,3.93h0c0,1.85-.71,4.35-6.21,7.34-.05.02-.1.04-.15.04Z"/>
      <path class="cls-2" d="M25.01,40.44s-.02,0-.03,0c-.17-.02-.29-.17-.27-.34l.72-6.92c.02-.17.16-.29.34-.27.17.02.29.17.27.34l-.72,6.92c-.02.16-.15.27-.31.27Z"/>
      <path class="cls-2" d="M19.65,39.73s-.02,0-.03,0c-2.33-.2-4.67-.63-6.98-1.28-.16-.04-.26-.22-.21-.38.05-.16.22-.26.38-.21,2.22.63,4.48,1.05,6.72,1.25,1.55-1.54,2.94-3.57,4.37-6.36.08-.15.27-.21.42-.13.15.08.21.26.13.41-1.5,2.92-2.96,5.02-4.59,6.62-.06.06-.13.09-.21.09Z"/>
      <path class="cls-2" d="M19.65,44.45h-.02c-.17-.01-.3-.16-.29-.33.1-1.65.1-3.23,0-4.68-.01-.17.12-.32.28-.33.17,0,.32.12.33.29.1,1.48.1,3.08,0,4.76-.01.16-.14.29-.31.29Z"/>
    </g>
  </g>
</svg>