<?xml version="1.0" encoding="UTF-8"?>
<svg id="Layer_2" data-name="Layer 2" xmlns="http://www.w3.org/2000/svg" viewBox="0 0 36.46 42.07" fill="currentColor">
  <defs>
    <style>
      .cls-1 {
        fill: #fff;
      }

      .cls-1, .cls-2, .cls-3, .cls-4 {
        fill-rule: evenodd;
      }

      .cls-2 {
        fill: #1a87c7;
      }

      .cls-3 {
        fill: #bdedf8;
      }

      .cls-4 {
        fill: #66ceef;
      }
    </style>
  </defs>
  <g id="_Layer_" data-name="&amp;lt;Layer&amp;gt;">
    <g>
      <path class="cls-1" d="M27.05,4.9c.11-.22.21-.45.27-.7.05-.24.09-.49.09-.74,0-.87-.36-1.66-.92-2.23-.58-.57-1.36-.92-2.23-.92s-1.65.35-2.22.92c-.57.57-.91,1.36-.91,2.23,0,.25.02.5.09.74.05.24.14.48.25.69v.02c.54,1.03.63,2.32.41,3.45-.24.73-.78,1.93-1.17,2.55-1.17,1.82-2.55,4-1.02,11.71.28,1.39.36,3.15,1.7,3.92,1.59.92,4.18.92,5.78,0,1.43-.83,1.43-2.61,1.74-4.15,1.46-7.53.1-9.68-1.06-11.48-.4-.62-.94-1.82-1.18-2.55-.23-1.14-.13-2.41.4-3.45Z"/>
      <path class="cls-2" d="M24.26.62c-.75,0-1.47.3-2,.83-.54.54-.83,1.24-.83,2.01,0,.23.02.45.08.67.05.21.13.42.24.62.54,1.04.7,2.37.43,3.67-.25.77-.8,2-1.23,2.65-1.16,1.83-2.48,3.9-.96,11.49.05.22.08.45.12.69.21,1.2.42,2.45,1.43,3.03,1.5.88,3.95.88,5.47,0,1.05-.61,1.24-1.83,1.45-3.12.04-.28.09-.56.14-.83,1.44-7.41.13-9.46-1.02-11.26-.42-.65-.96-1.88-1.21-2.61-.27-1.33-.11-2.66.42-3.69h0c.11-.2.18-.42.24-.63.05-.22.08-.44.08-.67,0-.77-.3-1.48-.83-2.01-.54-.54-1.25-.83-2.01-.83h0ZM24.26,27.53c-1.1,0-2.2-.24-3.04-.72-1.25-.73-1.5-2.18-1.72-3.47-.03-.23-.08-.44-.12-.66-1.56-7.84-.1-10.12,1.06-11.94.39-.61.91-1.8,1.14-2.48.23-1.13.1-2.31-.37-3.21-.14-.25-.23-.51-.29-.77-.06-.26-.1-.54-.1-.81,0-.93.36-1.79,1.01-2.44.65-.65,1.52-1.02,2.44-1.02s1.79.37,2.44,1.02c.65.65,1.01,1.51,1.01,2.44,0,.28-.03.56-.09.81-.06.26-.17.52-.29.78-.47.9-.61,2.08-.37,3.24.22.64.75,1.83,1.14,2.44,1.15,1.81,2.58,4.05,1.1,11.71-.05.26-.09.53-.13.8-.22,1.38-.45,2.81-1.76,3.57-.83.48-1.94.72-3.04.72Z"/>
      <path class="cls-3" d="M25.12.43c-.27-.07-.56-.11-.85-.11-.87,0-1.65.35-2.22.92-.57.57-.91,1.36-.91,2.23,0,.25.02.5.09.74.05.24.14.48.25.69v.02c.54,1.03.63,2.32.41,3.45-.24.73-.78,1.93-1.17,2.55-1.17,1.82-2.55,4-1.02,11.71.28,1.39.36,3.15,1.7,3.92,1.02.58,2.42.8,3.74.64-.75-.09-1.46-.3-2.04-.64-1.34-.77-1.42-2.53-1.69-3.92-1.54-7.72-.16-9.89,1.02-11.71.39-.62.93-1.82,1.17-2.55.23-1.13.13-2.42-.4-3.45v-.02c-.12-.21-.21-.44-.26-.69-.06-.24-.09-.49-.09-.74,0-.87.35-1.66.91-2.23.38-.37.85-.66,1.38-.81Z"/>
      <path class="cls-2" d="M23.97.64c-.64.07-1.24.35-1.7.81-.54.54-.83,1.24-.83,2.01,0,.23.02.45.08.67.05.21.13.42.24.62.54,1.04.7,2.37.43,3.67-.25.77-.8,2-1.23,2.65-1.16,1.83-2.48,3.9-.96,11.49.05.22.08.45.12.69.21,1.2.42,2.45,1.43,3.03.38.23.83.39,1.33.5-1.21-.74-1.45-2.16-1.67-3.43-.03-.23-.08-.44-.12-.66-1.56-7.85-.1-10.12,1.06-11.94.39-.62.91-1.8,1.14-2.48.23-1.13.1-2.31-.37-3.21-.14-.25-.23-.51-.3-.77-.06-.27-.09-.55-.09-.81,0-.93.36-1.79,1.01-2.44.14-.14.3-.27.45-.38h0ZM24.26,27.54c-1.13,0-2.22-.26-3.04-.73-1.25-.73-1.5-2.18-1.72-3.47-.03-.23-.08-.44-.12-.66-1.56-7.84-.1-10.12,1.06-11.94.39-.61.91-1.8,1.14-2.48.23-1.13.1-2.31-.37-3.21-.14-.25-.23-.51-.29-.77-.06-.26-.1-.54-.1-.81,0-.93.36-1.79,1.01-2.44.88-.88,2.21-1.22,3.37-.89.14.03.22.16.22.3s-.09.26-.22.3c-.46.13-.89.38-1.23.73-.54.54-.83,1.24-.83,2.01,0,.23.02.45.08.67.05.22.13.43.23.62.54,1.04.7,2.37.43,3.67-.25.77-.8,1.99-1.23,2.65-1.16,1.83-2.48,3.9-.96,11.49.04.22.08.45.12.69.21,1.2.42,2.45,1.42,3.03.53.3,1.2.51,1.93.6.15.03.27.15.27.31,0,.15-.11.29-.27.3-.3.04-.59.05-.89.05Z"/>
      <path class="cls-1" d="M23.1.55c-.38.15-.71.38-1,.66-.28.29-.51.62-.66,1-.16.36-.24.76-.24,1.16s.08.82.24,1.18c.15.37.38.71.66.99.29.29.62.51,1,.67.36.15.75.24,1.16.24s.82-.09,1.17-.24c.37-.16.71-.38.99-.67.29-.28.51-.62.67-.99.15-.36.23-.76.23-1.18s-.09-.81-.23-1.16c-.16-.38-.38-.71-.67-1s-.62-.51-.99-.66c-.36-.15-.76-.23-1.17-.23s-.81.08-1.16.23Z"/>
      <path class="cls-2" d="M24.26.62c-.36,0-.72.07-1.05.21h0c-.34.14-.63.35-.9.6-.26.26-.46.56-.6.89-.14.33-.21.69-.21,1.05s.07.72.21,1.05c.14.34.34.64.6.89.26.26.56.46.9.6.67.28,1.43.28,2.1,0,.34-.14.64-.34.89-.6.26-.25.46-.56.6-.89.14-.33.21-.69.21-1.05s-.07-.72-.21-1.05c-.14-.33-.34-.63-.6-.89-.25-.26-.56-.46-.89-.6-.33-.14-.69-.21-1.05-.21h0ZM24.26,6.75c-.44,0-.88-.09-1.29-.25-.41-.18-.78-.42-1.1-.74-.31-.31-.56-.68-.73-1.08-.17-.41-.26-.84-.26-1.3s.09-.88.26-1.29c.17-.41.42-.78.73-1.09.31-.31.69-.56,1.1-.73.82-.34,1.76-.34,2.58,0,.41.16.77.42,1.09.73.31.31.56.69.73,1.09.16.41.25.84.25,1.29s-.09.89-.25,1.3c-.17.41-.42.77-.74,1.08-.31.32-.68.57-1.08.74-.42.16-.84.25-1.3.25Z"/>
      <path class="cls-4" d="M26.6,8.01c0,1.7-4.25,1.83-4.66.2v-.21c.06-.54.07-1.1,0-1.63h0c.34,1.62,4.34,1.6,4.66.01-.08.54-.07,1.1.01,1.63Z"/>
      <path class="cls-2" d="M22.3,7.36c0,.22-.02.45-.06.68l.02.16c.16.66,1.43.96,2.49.83.7-.09,1.52-.39,1.54-.99-.03-.22-.04-.45-.05-.66-.52.35-1.27.51-1.97.51h0c-.7,0-1.44-.17-1.96-.52h0ZM24.26,9.67c-1.18,0-2.37-.43-2.61-1.37l-.03-.27c.08-.57.08-1.11,0-1.61,0-.16.11-.31.27-.33.15-.01.3.06.33.22.14.67,1.15.97,2.03.97h0c.91,0,1.91-.33,2.04-.96.03-.16.19-.27.35-.24.16.03.27.18.25.35-.08.51-.08,1.02,0,1.55v.04c0,.84-.79,1.47-2.08,1.62-.18.02-.38.03-.57.03Z"/>
      <path class="cls-4" d="M21.93,6.37l.03.33v1.57c.17.51.78.81,1.26.95.3-.71.4-.95.45-1.69-.66-.1-1.58-.43-1.74-1.18h0Z"/>
      <path class="cls-2" d="M22.28,8.22c.11.28.44.5.78.63.17-.42.25-.64.28-1.06-.29-.07-.71-.2-1.07-.44v.88h0ZM23.23,9.54s-.05-.01-.09-.02c-.36-.1-1.22-.42-1.47-1.15-.01-.03-.02-.07-.02-.1v-1.57s-.03-.3-.03-.3v-.03h0c0-.17.12-.3.28-.31.17,0,.3.09.33.24.11.54.84.84,1.5.94.15.03.27.17.25.32-.04.8-.16,1.07-.46,1.79-.05.12-.17.19-.29.19Z"/>
      <path class="cls-1" d="M17.7,10.3c.12-.22.21-.45.27-.7.05-.24.09-.49.09-.75,0-.87-.36-1.66-.92-2.23-.57-.57-1.36-.92-2.23-.92s-1.65.36-2.21.92c-.57.56-.92,1.35-.92,2.23,0,.26.03.5.09.75.06.24.15.47.25.69h.01c.54,1.04.63,2.33.4,3.46-.24.73-.78,1.93-1.17,2.55-1.17,1.83-2.55,4-1.02,11.72.28,1.39.36,3.15,1.7,3.92,1.6.92,4.18.92,5.78,0,1.43-.82,1.44-2.61,1.74-4.15,1.46-7.53.09-9.67-1.06-11.48-.4-.62-.94-1.82-1.18-2.55-.22-1.13-.13-2.42.4-3.45Z"/>
      <path class="cls-2" d="M14.91,6.02c-.75,0-1.47.29-2,.83-.54.54-.84,1.25-.84,2.01,0,.22.03.45.08.67.05.22.13.43.23.62.54,1.04.7,2.37.44,3.67-.25.76-.8,1.99-1.22,2.65-1.17,1.82-2.49,3.89-.97,11.49.04.23.09.45.12.69.21,1.2.42,2.45,1.43,3.03,1.5.87,3.95.87,5.47,0,1.05-.61,1.24-1.83,1.45-3.13.04-.28.09-.55.14-.83,1.44-7.4.14-9.45-1.02-11.25-.43-.65-.97-1.89-1.21-2.62-.27-1.33-.12-2.66.42-3.68h0c.1-.2.18-.42.23-.64.05-.22.09-.44.09-.67,0-.76-.29-1.47-.83-2.01-.54-.54-1.25-.83-2.01-.83h0ZM14.91,32.93c-1.09,0-2.2-.24-3.04-.72-1.25-.73-1.5-2.18-1.72-3.46-.03-.23-.08-.45-.11-.67-1.57-7.84-.12-10.12,1.05-11.94.39-.61.92-1.8,1.15-2.48.22-1.12.09-2.3-.38-3.21-.13-.26-.22-.51-.3-.77-.06-.26-.09-.54-.09-.82,0-.92.36-1.79,1.01-2.44.65-.65,1.52-1.01,2.44-1.01s1.79.36,2.45,1.01c.65.65,1.01,1.52,1.01,2.44,0,.27-.03.55-.1.82-.06.27-.15.52-.29.77-.47.9-.6,2.09-.37,3.24.22.64.75,1.83,1.14,2.44,1.15,1.81,2.59,4.05,1.1,11.71-.05.26-.09.53-.13.8-.22,1.38-.44,2.8-1.75,3.56-.84.48-1.95.72-3.05.72Z"/>
      <path class="cls-3" d="M15.76,5.82c-.27-.07-.56-.11-.85-.11-.87,0-1.65.36-2.21.92-.57.56-.92,1.35-.92,2.23,0,.26.03.5.09.75.06.24.15.47.25.69h.01c.54,1.04.63,2.33.4,3.46-.24.73-.78,1.93-1.17,2.55-1.17,1.83-2.55,4-1.02,11.72.28,1.39.36,3.15,1.7,3.92,1.02.58,2.43.8,3.74.64-.75-.09-1.46-.3-2.04-.64-1.34-.77-1.42-2.53-1.7-3.92-1.54-7.72-.15-9.88,1.02-11.72.4-.62.93-1.82,1.17-2.55.23-1.13.14-2.42-.4-3.45h0c-.11-.23-.19-.46-.25-.7-.06-.24-.09-.49-.09-.75,0-.87.35-1.66.92-2.23.37-.37.84-.66,1.37-.81Z"/>
      <path class="cls-2" d="M14.62,6.03c-.64.07-1.24.36-1.7.81-.54.54-.84,1.25-.84,2.01,0,.22.03.45.08.67.05.22.13.43.23.62.54,1.04.7,2.37.44,3.67-.25.76-.8,1.99-1.22,2.65-1.17,1.82-2.49,3.89-.97,11.49.04.23.09.45.12.69.21,1.2.42,2.45,1.43,3.03.38.22.83.38,1.33.5-1.21-.74-1.45-2.17-1.67-3.43-.03-.23-.07-.44-.11-.66-1.56-7.84-.11-10.12,1.05-11.94.39-.61.91-1.8,1.14-2.48.23-1.12.1-2.3-.37-3.21-.14-.26-.23-.51-.3-.77-.06-.27-.09-.54-.09-.82,0-.92.35-1.79,1.01-2.44.15-.14.3-.27.45-.38h0ZM14.91,32.93c-1.12,0-2.21-.26-3.04-.73-1.25-.73-1.5-2.18-1.72-3.46-.03-.23-.08-.45-.11-.67-1.57-7.84-.12-10.12,1.05-11.94.39-.61.92-1.8,1.15-2.48.22-1.12.09-2.3-.38-3.21-.13-.26-.22-.51-.3-.77-.06-.26-.09-.54-.09-.82,0-.92.36-1.79,1.01-2.44.88-.88,2.21-1.22,3.37-.89.14.05.22.17.22.3s-.09.26-.22.3c-.46.13-.9.38-1.24.72-.54.54-.83,1.25-.83,2.01,0,.22.03.45.08.67.05.22.13.43.24.62.54,1.04.69,2.37.43,3.67-.25.76-.8,2-1.22,2.66-1.17,1.82-2.49,3.89-.97,11.48.04.23.09.45.12.68.21,1.21.42,2.46,1.42,3.04.52.3,1.19.51,1.92.6.15.02.27.15.27.3s-.12.29-.27.3c-.3.04-.59.05-.89.05Z"/>
      <path class="cls-1" d="M13.75,5.95c-.38.15-.71.38-1,.66-.28.29-.51.63-.66,1-.15.36-.23.76-.23,1.17s.09.81.23,1.17c.16.37.38.71.66,1,.29.28.62.51,1,.66.36.15.76.24,1.16.24s.82-.09,1.17-.24c.37-.15.71-.38,1-.66.28-.28.5-.63.66-1,.15-.36.24-.76.24-1.17s-.09-.81-.24-1.17c-.16-.37-.38-.71-.66-1-.29-.28-.63-.5-1-.66-.35-.16-.75-.24-1.17-.24s-.81.08-1.16.24Z"/>
      <path class="cls-2" d="M13.75,5.95h0,0ZM14.91,6.02c-.36,0-.71.07-1.05.21h0c-.33.14-.63.35-.9.6-.25.26-.46.56-.6.89-.13.34-.21.69-.21,1.05s.08.72.21,1.06c.14.33.35.64.6.89.26.26.57.46.9.6.67.28,1.44.28,2.11,0,.33-.14.63-.34.89-.59.26-.26.46-.56.6-.9.14-.34.21-.69.21-1.06s-.07-.71-.21-1.05c-.14-.33-.34-.63-.6-.89-.25-.25-.56-.45-.89-.6-.34-.14-.69-.21-1.06-.21h0ZM14.91,12.14c-.44,0-.88-.09-1.29-.25-.41-.18-.78-.42-1.1-.73-.31-.32-.56-.69-.73-1.09-.17-.41-.25-.84-.25-1.29s.08-.88.25-1.29c.17-.41.42-.78.73-1.09.31-.31.69-.56,1.1-.73.82-.34,1.77-.34,2.58,0,.41.17.78.42,1.09.73.31.32.56.69.73,1.09.17.41.25.84.25,1.29s-.09.89-.25,1.29c-.17.41-.42.77-.73,1.09-.31.31-.69.56-1.09.73-.41.16-.84.25-1.3.25Z"/>
      <path class="cls-4" d="M17.25,13.41c0,1.69-4.25,1.83-4.66.2v-.21c.06-.53.07-1.1-.01-1.63h0c.34,1.62,4.34,1.6,4.67.01-.08.54-.08,1.1,0,1.63Z"/>
      <path class="cls-2" d="M12.95,12.76c-.01.23-.03.45-.06.69l.02.15c.16.66,1.44.96,2.5.83.69-.08,1.51-.39,1.53-.98-.02-.23-.04-.45-.05-.67-.52.36-1.27.52-1.98.52h0c-.7,0-1.44-.17-1.96-.53h0ZM14.91,15.07c-1.18,0-2.38-.44-2.61-1.38l-.02-.27c.07-.57.07-1.11,0-1.61,0-.16.11-.31.28-.33.15-.02.29.06.33.22.14.67,1.15.97,2.02.97h0c.92,0,1.91-.33,2.04-.96.03-.17.19-.27.36-.24.17.03.27.18.25.35-.08.5-.07,1.03,0,1.55v.04c0,.84-.79,1.47-2.08,1.62-.18.02-.37.04-.57.04Z"/>
      <path class="cls-4" d="M12.58,11.77l.04.33v1.58c.17.5.77.82,1.26.95.3-.71.4-.95.44-1.69-.66-.11-1.58-.43-1.74-1.18h0Z"/>
      <path class="cls-2" d="M12.92,13.62c.12.28.44.5.78.63.17-.42.25-.64.28-1.05-.3-.08-.71-.21-1.07-.45v.88h0ZM13.88,14.94s-.05,0-.09,0c-.36-.11-1.23-.43-1.47-1.16,0-.04-.02-.07-.02-.1v-1.58s-.03-.3-.03-.3v-.03h0c0-.17.11-.3.27-.31.17-.02.3.09.34.24.11.54.84.83,1.49.94.16.03.27.17.26.32-.05.81-.17,1.08-.47,1.79-.05.12-.17.19-.29.19Z"/>
      <path class="cls-1" d="M8.35,15.7c.12-.22.21-.45.27-.7.05-.23.09-.48.09-.75,0-.87-.35-1.65-.92-2.23-.56-.57-1.35-.92-2.22-.92s-1.65.36-2.22.92c-.57.57-.92,1.35-.92,2.23,0,.26.03.51.09.75.06.24.15.47.25.69h0c.54,1.04.63,2.33.4,3.46-.24.73-.77,1.93-1.17,2.55-1.17,1.83-2.56,3.99-1.02,11.72.28,1.38.36,3.14,1.69,3.91,1.6.92,4.18.92,5.78,0,1.43-.82,1.43-2.61,1.74-4.15,1.46-7.53.1-9.66-1.06-11.47-.4-.63-.94-1.83-1.17-2.55-.24-1.13-.14-2.42.39-3.45Z"/>
      <path class="cls-2" d="M5.56,11.42c-.76,0-1.47.3-2,.83-.54.54-.84,1.25-.84,2.01,0,.23.03.46.08.67.05.22.13.43.23.63.54,1.03.7,2.36.43,3.66-.25.77-.8,2-1.22,2.66-1.16,1.82-2.48,3.89-.97,11.49.04.22.09.44.12.68.21,1.21.42,2.45,1.42,3.03,1.5.87,3.97.87,5.47,0,1.05-.61,1.24-1.83,1.45-3.13.04-.28.09-.56.14-.83,1.44-7.4.14-9.45-1.02-11.25-.42-.66-.96-1.89-1.21-2.63-.27-1.33-.11-2.66.42-3.68h0c.1-.2.18-.42.23-.64.05-.21.09-.44.09-.67,0-.76-.3-1.47-.84-2.01-.54-.53-1.24-.83-2.01-.83h0ZM5.56,38.33c-1.09,0-2.2-.24-3.04-.73-1.25-.72-1.5-2.18-1.72-3.46-.03-.23-.07-.45-.11-.67-1.56-7.84-.11-10.11,1.05-11.93.39-.62.91-1.8,1.15-2.49.22-1.1.08-2.32-.38-3.21-.13-.26-.23-.51-.28-.77-.07-.26-.11-.54-.11-.82,0-.92.36-1.79,1.02-2.44.65-.65,1.51-1.01,2.43-1.01s1.79.36,2.44,1.01c.65.65,1.01,1.52,1.01,2.44,0,.28-.03.56-.1.82-.06.27-.15.52-.29.77-.47.9-.6,2.09-.37,3.24.22.65.75,1.83,1.14,2.44,1.16,1.81,2.59,4.05,1.1,11.71-.05.26-.09.53-.14.8-.22,1.38-.44,2.81-1.76,3.56-.84.48-1.94.73-3.04.73Z"/>
      <path class="cls-3" d="M6.41,11.23c-.27-.08-.56-.12-.85-.12-.86,0-1.65.36-2.22.92-.57.57-.92,1.35-.92,2.23,0,.26.03.51.09.75.06.24.15.47.25.69h0c.54,1.04.63,2.33.4,3.46-.24.73-.77,1.93-1.17,2.55-1.17,1.83-2.56,3.99-1.02,11.72.28,1.38.36,3.14,1.69,3.91,1.02.59,2.43.8,3.74.64-.75-.1-1.46-.3-2.04-.64-1.34-.77-1.42-2.53-1.7-3.91-1.54-7.73-.15-9.89,1.02-11.72.4-.63.93-1.83,1.17-2.55.22-1.13.14-2.42-.4-3.45h-.01c-.1-.23-.19-.46-.25-.7-.06-.23-.09-.48-.09-.75,0-.87.35-1.65.92-2.23.37-.37.84-.66,1.37-.8Z"/>
      <path class="cls-2" d="M5.26,11.44c-.64.06-1.24.35-1.7.81-.54.54-.84,1.25-.84,2.01,0,.23.03.46.08.67.05.22.13.43.23.63.54,1.03.7,2.36.43,3.66-.25.77-.8,2-1.22,2.66-1.16,1.82-2.48,3.89-.97,11.49.04.22.09.44.12.68.21,1.21.42,2.45,1.42,3.03.38.21.84.39,1.33.5-1.21-.73-1.45-2.17-1.67-3.42-.03-.23-.07-.45-.11-.67-1.56-7.84-.11-10.12,1.05-11.93.39-.62.92-1.81,1.15-2.49.22-1.1.08-2.32-.38-3.21-.13-.26-.22-.51-.29-.77-.07-.26-.1-.54-.1-.82,0-.92.36-1.79,1.02-2.44.14-.14.29-.26.44-.38h0ZM5.56,38.33c-1.12,0-2.22-.25-3.04-.73-1.25-.72-1.5-2.18-1.72-3.46-.03-.23-.07-.45-.11-.67-1.56-7.84-.11-10.11,1.05-11.93.39-.62.91-1.8,1.15-2.49.22-1.1.08-2.32-.38-3.21-.13-.26-.23-.51-.28-.77-.07-.26-.11-.54-.11-.82,0-.92.36-1.79,1.02-2.44.87-.88,2.2-1.22,3.36-.88.14.03.23.16.23.3s-.09.25-.23.29c-.46.13-.9.38-1.23.72-.54.54-.83,1.25-.83,2.01,0,.23.02.45.08.67.05.22.13.43.24.63.54,1.03.69,2.36.43,3.66-.25.76-.8,1.99-1.22,2.66-1.16,1.82-2.49,3.89-.97,11.49.04.22.09.44.12.68.21,1.21.42,2.45,1.43,3.03.52.3,1.19.51,1.92.6.16.02.27.15.27.3s-.11.29-.27.3c-.29.03-.59.05-.89.05Z"/>
      <path class="cls-1" d="M4.39,11.34c-.37.15-.71.38-1,.66-.28.29-.5.63-.66,1-.15.36-.24.76-.24,1.17s.09.81.24,1.17c.16.37.38.71.66,1,.29.28.63.51,1,.66.36.16.76.24,1.17.24s.81-.08,1.17-.24c.37-.15.71-.38,1-.66.28-.29.51-.63.66-1,.15-.36.23-.76.23-1.17s-.09-.82-.23-1.17c-.16-.37-.38-.71-.66-1-.29-.28-.62-.51-1-.66-.36-.15-.76-.24-1.17-.24s-.82.09-1.17.24Z"/>
      <path class="cls-2" d="M4.39,11.34h.01-.01ZM5.57,11.42c-.37,0-.72.07-1.06.21h0c-.33.14-.63.34-.89.6-.25.25-.46.56-.6.89-.13.34-.2.69-.2,1.06s.07.71.21,1.05c.13.33.34.64.59.9.26.25.57.46.89.6.67.27,1.44.27,2.11,0,.33-.14.63-.35.89-.6.25-.26.46-.56.6-.9.13-.34.2-.69.2-1.05s-.07-.72-.2-1.06c-.14-.33-.35-.64-.6-.89-.26-.26-.56-.46-.89-.6-.34-.14-.69-.21-1.05-.21h0ZM5.57,17.54c-.45,0-.89-.08-1.29-.25-.41-.18-.77-.42-1.09-.73-.31-.31-.56-.69-.73-1.09-.17-.41-.25-.84-.25-1.29s.09-.88.25-1.29c.17-.41.42-.78.73-1.1.32-.31.69-.56,1.09-.73h0c.82-.34,1.76-.34,2.58,0,.41.18.77.42,1.09.73.31.32.57.69.73,1.1.17.41.25.84.25,1.29s-.09.88-.25,1.29c-.17.41-.42.78-.73,1.09-.32.31-.69.57-1.09.73-.41.17-.84.25-1.29.25Z"/>
      <path class="cls-4" d="M7.9,18.81c0,1.69-4.25,1.83-4.65.2l-.02-.21c.08-.53.08-1.09,0-1.64h0c.34,1.63,4.34,1.6,4.67.01-.08.54-.08,1.1,0,1.63Z"/>
      <path class="cls-2" d="M3.59,18.16c0,.24-.03.46-.06.69l.02.15c.17.66,1.43.96,2.5.83.7-.08,1.52-.39,1.54-.98-.03-.23-.05-.44-.06-.67-1.04.7-2.89.71-3.94-.01h0ZM5.56,20.47c-1.18,0-2.38-.44-2.62-1.38l-.02-.27c.07-.57.07-1.11,0-1.61,0-.16.12-.31.28-.33.17-.02.3.06.33.22.14.67,1.15.97,2.03.97s1.9-.33,2.03-.96c.03-.16.19-.27.36-.24.17.03.28.18.25.35-.07.5-.07,1.03,0,1.55v.04c0,.84-.79,1.47-2.08,1.63-.18.03-.37.03-.57.03Z"/>
      <path class="cls-4" d="M3.23,17.17l.03.33v1.58c.16.51.77.82,1.26.96.3-.72.4-.95.45-1.7-.66-.1-1.58-.43-1.74-1.18h0Z"/>
      <path class="cls-2" d="M3.57,19.02c.12.28.45.49.78.63.17-.42.25-.64.28-1.06-.3-.07-.71-.21-1.07-.45v.88h0ZM4.52,20.34s-.05,0-.08,0c-.36-.11-1.23-.42-1.48-1.16,0-.04-.02-.06-.02-.1v-1.58s-.03-.3-.03-.3v-.04h0c0-.17.11-.3.27-.31.16-.02.3.09.34.24.11.54.84.84,1.49.94.16.03.27.17.26.32-.05.81-.17,1.08-.47,1.8-.05.11-.17.18-.29.18Z"/>
      <path class="cls-1" d="M30.48,12.28c.11-.23.21-.46.26-.7.06-.23.09-.48.09-.75,0-.87-.36-1.65-.92-2.22-.58-.57-1.36-.92-2.23-.92s-1.65.36-2.23.92c-.56.57-.92,1.35-.92,2.22,0,.26.04.51.1.75.05.24.14.47.25.69v.02c.54,1.02.63,2.31.41,3.44-.24.73-.78,1.93-1.18,2.55-1.17,1.83-2.55,3.99-1.01,11.72.28,1.38.36,3.14,1.7,3.92,1.59.92,4.18.92,5.77,0,1.43-.83,1.44-2.62,1.74-4.16,1.47-7.53.11-9.66-1.05-11.47-.4-.63-.94-1.83-1.18-2.55-.23-1.13-.13-2.42.4-3.44Z"/>
      <path class="cls-2" d="M27.69,8c-.75,0-1.47.3-2.01.83-.53.54-.82,1.25-.82,2.01,0,.23.03.45.08.68.05.21.13.42.23.62.54,1.03.7,2.36.43,3.66-.26.77-.8,2-1.23,2.66-1.16,1.82-2.48,3.89-.96,11.49.04.22.08.44.12.67.2,1.2.42,2.45,1.42,3.03,1.51.87,3.96.87,5.48,0,1.05-.61,1.24-1.82,1.44-3.12.05-.28.1-.56.15-.83,1.44-7.41.13-9.46-1.02-11.25-.42-.66-.97-1.89-1.21-2.63-.27-1.33-.12-2.66.42-3.68h0c.1-.2.18-.42.23-.63.05-.22.08-.45.08-.68,0-.76-.3-1.47-.83-2-.54-.54-1.25-.84-2.01-.84h0ZM27.69,34.91c-1.1,0-2.2-.24-3.04-.73-1.26-.72-1.5-2.18-1.72-3.47-.03-.22-.08-.44-.12-.65-1.56-7.85-.11-10.12,1.06-11.94.39-.61.91-1.8,1.14-2.49.23-1.12.09-2.3-.37-3.21-.14-.26-.23-.51-.29-.77-.06-.26-.1-.54-.1-.82,0-.92.36-1.79,1.01-2.44.65-.65,1.52-1.01,2.44-1.01s1.79.36,2.44,1.01c.65.65,1.01,1.52,1.01,2.44,0,.28-.03.56-.09.82-.07.27-.17.53-.3.77-.46.9-.6,2.09-.36,3.24.22.64.74,1.83,1.13,2.45,1.16,1.8,2.59,4.05,1.1,11.7-.05.27-.09.54-.14.81-.22,1.38-.44,2.81-1.75,3.56-.83.48-1.94.73-3.04.73Z"/>
      <path class="cls-3" d="M28.54,7.81c-.28-.08-.56-.12-.85-.12-.87,0-1.65.36-2.23.92-.56.57-.92,1.35-.92,2.22,0,.26.04.51.1.75.05.24.14.47.25.69v.02c.54,1.02.63,2.31.41,3.44-.24.73-.78,1.93-1.18,2.55-1.17,1.83-2.55,3.99-1.01,11.72.28,1.38.36,3.14,1.7,3.92,1.01.58,2.43.79,3.74.63-.75-.09-1.47-.3-2.04-.63-1.35-.78-1.42-2.54-1.69-3.92-1.54-7.73-.16-9.89,1.01-11.72.4-.63.94-1.83,1.18-2.55.23-1.13.13-2.42-.4-3.44v-.02c-.12-.22-.21-.44-.26-.69-.06-.23-.1-.48-.1-.75,0-.87.36-1.65.92-2.22.38-.37.85-.65,1.38-.8Z"/>
      <path class="cls-2" d="M27.39,8.01c-.64.06-1.24.35-1.71.81-.53.54-.82,1.25-.82,2.01,0,.23.03.45.08.68.05.21.13.42.23.62.54,1.03.7,2.36.43,3.66-.26.77-.8,2-1.23,2.66-1.16,1.82-2.48,3.89-.96,11.49.04.22.08.44.12.67.2,1.2.42,2.45,1.42,3.03.39.22.84.39,1.34.5-1.21-.73-1.45-2.17-1.67-3.43-.03-.23-.08-.45-.12-.66-1.56-7.85-.12-10.12,1.06-11.94.39-.61.91-1.81,1.14-2.49.23-1.12.09-2.3-.38-3.21-.13-.25-.23-.51-.29-.77-.06-.26-.1-.54-.1-.82,0-.92.36-1.79,1.01-2.44.14-.14.3-.26.45-.37h0ZM27.69,34.91c-1.13,0-2.23-.25-3.04-.73-1.26-.72-1.5-2.18-1.72-3.47-.03-.22-.08-.44-.12-.65-1.56-7.85-.11-10.12,1.06-11.94.39-.61.91-1.8,1.14-2.49.23-1.12.09-2.3-.37-3.21-.14-.26-.23-.51-.29-.77-.06-.26-.1-.54-.1-.82,0-.92.36-1.79,1.01-2.44.88-.87,2.2-1.22,3.37-.88.13.03.23.16.23.29s-.1.26-.23.3c-.47.13-.89.38-1.24.73-.53.53-.83,1.24-.83,2,0,.23.03.46.08.68.05.21.13.42.23.62.55,1.03.69,2.36.44,3.66-.25.76-.8,2-1.23,2.66-1.16,1.82-2.49,3.89-.96,11.49.04.22.08.44.12.67.2,1.21.42,2.45,1.42,3.03.53.31,1.19.51,1.93.6.15.02.27.15.27.3s-.11.29-.27.31c-.3.03-.59.05-.89.05Z"/>
      <path class="cls-1" d="M26.51,7.92c-.37.15-.71.38-.99.67-.28.28-.51.62-.67.99-.15.37-.23.76-.23,1.17s.08.81.23,1.17c.16.37.38.71.67.99.28.29.62.51.99.66.37.16.76.24,1.17.24s.81-.08,1.17-.24c.37-.15.71-.37.99-.66.29-.28.51-.62.67-.99.15-.37.23-.76.23-1.17s-.08-.81-.23-1.17c-.16-.37-.38-.71-.67-.99-.28-.29-.62-.51-.99-.67-.36-.15-.76-.24-1.17-.24s-.81.09-1.17.24Z"/>
      <path class="cls-2" d="M26.64,8.21c-.34.14-.63.34-.9.6-.26.25-.46.56-.6.9-.14.33-.21.69-.21,1.05s.07.72.21,1.05c.14.34.34.64.6.9.26.26.56.46.9.6.67.28,1.44.28,2.1,0,.34-.14.63-.34.89-.6.26-.26.46-.56.6-.9.14-.33.21-.69.21-1.05s-.07-.72-.21-1.05c-.14-.34-.34-.64-.6-.9-.25-.26-.56-.46-.89-.6-.67-.28-1.44-.28-2.1,0h0ZM27.69,14.12c-.44,0-.88-.09-1.29-.26-.41-.17-.78-.42-1.1-.73-.31-.31-.56-.68-.73-1.09-.18-.41-.26-.84-.26-1.29s.09-.88.26-1.29c.17-.41.42-.78.73-1.09.31-.32.68-.57,1.1-.74h0c.82-.34,1.76-.34,2.57,0,.42.17.78.42,1.1.73.32.32.57.69.74,1.1.17.42.25.84.25,1.29s-.09.88-.25,1.29c-.17.42-.42.78-.74,1.09-.31.31-.68.57-1.1.73-.41.17-.83.26-1.29.26Z"/>
      <path class="cls-4" d="M30.03,15.39c0,1.68-4.25,1.82-4.66.2v-.22c.06-.53.07-1.09,0-1.63h0c.33,1.62,4.34,1.59,4.66,0-.08.55-.07,1.11.01,1.65Z"/>
      <path class="cls-2" d="M25.72,14.74c0,.23-.03.45-.05.68l.02.15c.17.66,1.43.96,2.49.84.7-.09,1.52-.4,1.54-.99-.03-.22-.05-.44-.05-.67-.52.36-1.27.52-1.98.52h0c-.7,0-1.45-.17-1.97-.52h0ZM27.68,17.05c-1.18,0-2.37-.44-2.61-1.38l-.03-.27c.08-.57.08-1.11,0-1.6,0-.16.11-.32.27-.34.16-.01.3.07.33.22.14.67,1.15.97,2.03.97h0c.91,0,1.9-.33,2.04-.96.03-.17.18-.27.35-.24.17.03.28.18.25.35-.07.51-.07,1.03.01,1.56v.04c0,.84-.8,1.46-2.08,1.62-.19.03-.38.03-.57.03Z"/>
      <path class="cls-4" d="M25.36,13.75l.04.32v1.58c.17.51.77.82,1.26.96.3-.72.4-.95.45-1.7-.67-.1-1.59-.43-1.74-1.17h0Z"/>
      <path class="cls-2" d="M25.7,15.6c.11.28.44.49.78.63.17-.41.24-.64.29-1.06-.3-.07-.72-.21-1.07-.45v.89h0ZM26.65,16.91s-.06,0-.09,0c-.36-.1-1.22-.42-1.47-1.16-.02-.03-.02-.06-.02-.1v-1.58l-.03-.29v-.04h0c0-.17.12-.3.28-.32.17-.02.3.09.33.24.11.54.84.84,1.49.94.16.03.27.16.26.32-.05.81-.17,1.08-.47,1.8-.04.12-.16.18-.28.18Z"/>
      <path class="cls-1" d="M33.68,19.44c.12-.23.21-.46.27-.7.05-.24.09-.49.09-.75,0-.87-.35-1.65-.92-2.23-.56-.56-1.35-.92-2.22-.92s-1.65.36-2.22.92c-.57.57-.92,1.36-.92,2.23,0,.26.03.51.09.75.06.24.15.47.25.69v.02c.55,1.03.63,2.31.41,3.44-.24.73-.77,1.93-1.17,2.56-1.17,1.82-2.55,3.99-1.02,11.72.28,1.38.36,3.14,1.7,3.91,1.59.92,4.18.92,5.78,0,1.43-.81,1.43-2.61,1.74-4.15,1.46-7.53.1-9.66-1.06-11.47-.4-.63-.94-1.83-1.17-2.56-.24-1.13-.14-2.42.39-3.44Z"/>
      <path class="cls-2" d="M30.89,15.16c-.76,0-1.47.3-2,.83-.54.54-.84,1.25-.84,2.01,0,.22.03.45.08.67.05.22.13.43.23.63.54,1.03.7,2.36.43,3.66-.25.77-.8,2-1.22,2.66-1.17,1.82-2.49,3.89-.97,11.49.04.22.09.45.12.68.21,1.2.42,2.45,1.42,3.03,1.51.87,3.96.87,5.47,0,1.05-.61,1.24-1.83,1.45-3.12.04-.28.09-.56.14-.83,1.44-7.41.14-9.46-1.02-11.25-.42-.67-.96-1.9-1.21-2.63-.27-1.33-.11-2.66.42-3.69h0c.1-.2.18-.42.24-.64.05-.21.08-.43.08-.67,0-.76-.29-1.47-.83-2.01-.54-.53-1.24-.83-2.01-.83h0ZM30.89,42.07c-1.09,0-2.2-.24-3.04-.73-1.25-.72-1.5-2.18-1.72-3.47-.03-.23-.07-.44-.11-.65-1.56-7.85-.11-10.12,1.05-11.94.39-.62.91-1.81,1.15-2.49.22-1.12.09-2.3-.38-3.21-.13-.26-.23-.51-.3-.77-.06-.26-.1-.54-.1-.81,0-.92.36-1.79,1.02-2.44.64-.65,1.51-1.01,2.43-1.01s1.79.36,2.44,1.01c.65.65,1.01,1.52,1.01,2.44,0,.28-.03.55-.09.81-.06.27-.16.53-.29.77-.47.9-.6,2.09-.37,3.24.21.64.74,1.83,1.14,2.45,1.15,1.8,2.59,4.04,1.1,11.7-.05.26-.09.53-.14.81-.22,1.38-.44,2.8-1.76,3.56-.83.48-1.94.73-3.04.73Z"/>
      <path class="cls-3" d="M31.74,14.97c-.27-.08-.56-.12-.85-.12-.86,0-1.65.36-2.22.92-.57.57-.92,1.36-.92,2.23,0,.26.03.51.09.75.06.24.15.47.25.69v.02c.55,1.03.63,2.31.41,3.44-.24.73-.77,1.93-1.17,2.56-1.17,1.82-2.55,3.99-1.02,11.72.28,1.38.36,3.14,1.7,3.91,1.02.59,2.43.8,3.74.65-.75-.09-1.46-.3-2.04-.65-1.34-.77-1.42-2.53-1.69-3.91-1.54-7.73-.16-9.89,1.02-11.72.39-.63.93-1.83,1.17-2.56.23-1.13.14-2.42-.4-3.44v-.02c-.11-.22-.2-.45-.26-.69-.06-.24-.09-.49-.09-.75,0-.87.35-1.65.92-2.23.37-.37.84-.65,1.37-.8Z"/>
      <path class="cls-2" d="M30.59,15.18c-.64.06-1.24.35-1.7.81-.54.54-.84,1.25-.84,2.01,0,.22.03.45.08.67.05.22.13.43.23.63.54,1.03.7,2.36.43,3.66-.25.77-.8,2-1.22,2.66-1.17,1.82-2.49,3.89-.97,11.49.04.22.09.45.12.68.21,1.2.42,2.45,1.42,3.03.38.22.84.39,1.33.5-1.21-.73-1.45-2.16-1.67-3.42-.03-.23-.07-.45-.11-.66-1.56-7.85-.11-10.12,1.05-11.94.39-.62.92-1.81,1.15-2.49.22-1.12.09-2.3-.38-3.21-.13-.25-.23-.51-.29-.77-.06-.26-.1-.54-.1-.81,0-.92.36-1.79,1.01-2.44.15-.14.29-.26.45-.37h0ZM30.89,42.07c-1.13,0-2.22-.25-3.04-.73-1.25-.72-1.5-2.18-1.72-3.47-.03-.23-.07-.44-.11-.65-1.56-7.85-.11-10.12,1.05-11.94.39-.62.91-1.81,1.15-2.49.22-1.12.09-2.3-.38-3.21-.13-.26-.23-.51-.3-.77-.06-.26-.1-.54-.1-.81,0-.92.36-1.79,1.02-2.44.87-.87,2.19-1.22,3.36-.88.14.04.23.16.23.3s-.09.26-.23.3c-.46.13-.9.38-1.23.72-.54.54-.83,1.25-.83,2.01,0,.23.02.46.08.67.05.22.13.43.24.63.54,1.03.69,2.36.44,3.66-.25.76-.8,1.99-1.22,2.66-1.16,1.82-2.48,3.89-.97,11.49.04.22.09.45.12.68.21,1.21.42,2.45,1.43,3.03.52.3,1.19.51,1.92.6.16.02.27.15.27.3s-.12.28-.27.3c-.29.03-.59.05-.89.05Z"/>
      <path class="cls-1" d="M29.72,15.08c-.37.16-.71.38-1,.67-.28.28-.5.62-.66.99-.15.36-.23.76-.23,1.17s.09.81.23,1.17c.16.37.38.7.66.99.29.28.63.51,1,.66.36.16.75.23,1.17.23s.81-.08,1.16-.23c.37-.15.71-.38,1-.66.28-.29.51-.62.66-.99.15-.37.23-.76.23-1.17s-.09-.82-.23-1.17c-.16-.37-.38-.71-.66-.99-.28-.29-.62-.51-1-.67-.36-.15-.76-.23-1.16-.23s-.82.09-1.17.23Z"/>
      <path class="cls-2" d="M29.84,15.37c-.33.14-.63.34-.9.6-.25.25-.46.56-.6.89-.13.33-.2.69-.2,1.05s.07.72.2,1.05c.15.34.35.63.6.9.26.26.57.46.9.6.67.28,1.44.28,2.11,0,.33-.14.63-.34.9-.6.25-.26.45-.56.59-.9.14-.33.21-.69.21-1.05s-.07-.72-.21-1.05c-.14-.34-.34-.64-.59-.89-.26-.26-.57-.46-.9-.6-.67-.28-1.44-.28-2.11,0h0ZM30.9,21.29c-.45,0-.89-.09-1.3-.26-.41-.16-.77-.42-1.09-.73-.31-.31-.56-.69-.73-1.09-.18-.41-.25-.84-.25-1.29s.08-.89.25-1.3c.17-.41.42-.77.73-1.08.31-.32.69-.57,1.09-.74h0c.82-.34,1.77-.34,2.58,0,.41.17.78.42,1.1.73.31.32.55.69.73,1.1.17.41.25.84.25,1.3s-.09.88-.25,1.29c-.17.41-.42.78-.73,1.09-.32.31-.69.56-1.1.73-.41.18-.84.26-1.29.26Z"/>
      <path class="cls-4" d="M33.23,22.56c0,1.69-4.25,1.82-4.65.19l-.02-.21c.08-.53.08-1.09,0-1.63v-.02c.34,1.63,4.34,1.61,4.67.02-.08.55-.08,1.11,0,1.64Z"/>
      <path class="cls-2" d="M28.92,21.91c0,.22-.03.45-.06.68l.02.15c.17.66,1.43.96,2.5.83.7-.09,1.51-.4,1.54-.99-.03-.23-.05-.45-.06-.67-.52.35-1.27.52-1.97.52h0c-.7,0-1.44-.17-1.96-.52h0ZM30.89,24.21c-1.18,0-2.38-.44-2.61-1.38l-.02-.27c.07-.57.07-1.1,0-1.6,0-.16.11-.32.28-.34.16-.01.3.06.33.21.14.67,1.15.98,2.02.98h0c.91,0,1.91-.33,2.03-.96.04-.17.18-.27.36-.24.16.03.27.18.25.35-.08.5-.07,1.03,0,1.56v.04c0,.84-.79,1.46-2.08,1.62-.18.03-.37.03-.57.03Z"/>
      <path class="cls-4" d="M28.56,20.91l.03.32v1.58c.16.51.78.82,1.26.96.3-.72.4-.95.44-1.7-.66-.11-1.58-.43-1.74-1.18v.02Z"/>
      <path class="cls-2" d="M28.9,22.76c.12.28.44.49.78.63.18-.41.25-.65.29-1.06-.3-.07-.72-.21-1.07-.45v.89h0ZM29.85,24.08s-.05,0-.09,0c-.36-.11-1.23-.42-1.47-1.16,0-.03-.02-.06-.02-.09v-1.58s-.03-.28-.03-.28v-.05c0-.16.11-.29.27-.31.17,0,.3.1.34.24.1.54.84.84,1.49.94.16.03.27.16.26.32-.05.81-.17,1.08-.47,1.8-.05.11-.17.18-.29.18Z"/>
      <path class="cls-1" d="M21.04,17.66c.11-.22.2-.46.26-.7.06-.24.09-.49.09-.75,0-.87-.35-1.65-.92-2.22-.56-.57-1.35-.92-2.22-.92s-1.66.35-2.22.92c-.57.57-.92,1.35-.92,2.22,0,.26.04.51.09.75.06.24.15.47.26.69v.02c.54,1.03.63,2.31.41,3.44-.24.73-.78,1.93-1.18,2.55-1.17,1.83-2.55,3.99-1.01,11.72.28,1.38.35,3.15,1.7,3.92,1.59.92,4.18.92,5.77,0,1.43-.83,1.43-2.61,1.74-4.16,1.47-7.53.09-9.67-1.06-11.48-.39-.62-.93-1.82-1.17-2.55-.23-1.13-.14-2.41.4-3.44Z"/>
      <path class="cls-2" d="M18.25,13.38c-.75,0-1.47.3-2.01.84-.54.53-.83,1.24-.83,2,0,.23.03.46.08.68.05.21.12.42.23.62.54,1.03.7,2.37.43,3.66-.25.77-.79,2-1.22,2.66-1.17,1.82-2.49,3.89-.97,11.49.04.22.08.44.12.68.2,1.21.41,2.45,1.41,3.03,1.51.87,3.96.87,5.47,0,1.05-.61,1.25-1.83,1.45-3.12.05-.28.09-.56.14-.83,1.44-7.41.14-9.46-1.02-11.25-.42-.66-.96-1.89-1.21-2.62-.27-1.34-.11-2.67.42-3.69h0c.11-.2.19-.41.24-.63.05-.22.08-.44.08-.68,0-.75-.3-1.47-.83-2-.53-.54-1.24-.84-2-.84h0ZM18.25,40.29c-1.1,0-2.21-.24-3.04-.73-1.26-.72-1.5-2.18-1.72-3.46-.04-.22-.08-.45-.12-.66-1.56-7.85-.11-10.12,1.05-11.94.39-.62.92-1.8,1.15-2.49.23-1.12.09-2.31-.38-3.21-.13-.26-.23-.51-.29-.77-.07-.26-.1-.54-.1-.82,0-.92.36-1.79,1.01-2.44.65-.65,1.52-1.01,2.44-1.01s1.79.36,2.45,1.02c.64.64,1.01,1.51,1.01,2.43,0,.28-.03.56-.09.82-.07.27-.17.53-.3.77-.47.9-.6,2.09-.36,3.24.21.65.74,1.83,1.13,2.45,1.16,1.8,2.59,4.05,1.11,11.7-.05.27-.1.54-.14.81-.22,1.38-.44,2.81-1.75,3.55-.84.49-1.94.73-3.05.73Z"/>
      <path class="cls-3" d="M19.09,13.19c-.27-.08-.55-.11-.84-.11-.87,0-1.66.35-2.22.92-.57.57-.92,1.35-.92,2.22,0,.26.04.51.09.75.06.24.15.47.26.69v.02c.54,1.03.63,2.31.41,3.44-.24.73-.78,1.93-1.18,2.55-1.17,1.83-2.55,3.99-1.01,11.72.28,1.38.35,3.15,1.7,3.92,1.01.58,2.42.8,3.73.63-.75-.09-1.46-.3-2.04-.63-1.34-.77-1.41-2.54-1.68-3.92-1.54-7.73-.16-9.89,1.01-11.72.4-.62.94-1.82,1.18-2.55.23-1.13.13-2.41-.4-3.44v-.02c-.12-.22-.21-.44-.27-.69-.05-.24-.09-.49-.09-.75,0-.87.36-1.65.92-2.22.37-.38.85-.66,1.37-.81Z"/>
      <path class="cls-2" d="M17.95,13.39c-.65.06-1.25.35-1.71.82-.54.53-.83,1.24-.83,2,0,.23.03.46.08.68.05.21.12.42.23.62.54,1.03.7,2.37.43,3.66-.25.77-.79,2-1.22,2.66-1.17,1.82-2.49,3.89-.97,11.49.04.22.08.44.12.68.2,1.21.41,2.45,1.41,3.03.38.23.84.39,1.33.5-1.21-.74-1.45-2.17-1.66-3.43-.04-.22-.08-.45-.12-.66-1.56-7.85-.11-10.12,1.05-11.94.4-.62.92-1.8,1.15-2.49.23-1.12.09-2.31-.38-3.21-.13-.25-.22-.51-.29-.77-.07-.26-.1-.54-.1-.82,0-.92.36-1.79,1.01-2.44.14-.14.29-.26.45-.37h0ZM18.24,40.3c-1.12,0-2.22-.26-3.03-.74-1.26-.72-1.5-2.18-1.72-3.46-.04-.22-.08-.45-.12-.66-1.56-7.85-.11-10.12,1.05-11.94.39-.62.92-1.8,1.15-2.49.23-1.12.09-2.31-.38-3.21-.13-.26-.23-.51-.29-.77-.07-.26-.1-.54-.1-.82,0-.92.36-1.79,1.01-2.44.87-.87,2.2-1.21,3.37-.88.13.04.23.16.23.3s-.1.26-.23.3c-.47.13-.89.38-1.24.73-.54.53-.83,1.24-.83,2,0,.24.03.46.08.68.05.21.13.42.23.62.54,1.03.7,2.37.44,3.66-.25.77-.79,2-1.22,2.66-1.16,1.82-2.48,3.89-.96,11.49.05.22.08.44.12.68.2,1.21.41,2.45,1.41,3.03.53.3,1.19.51,1.93.6.15.02.27.15.27.3s-.12.29-.27.3c-.3.04-.6.06-.9.06Z"/>
      <path class="cls-1" d="M17.08,13.3c-.37.16-.71.38-.99.67-.29.28-.51.62-.67.99-.15.36-.23.75-.23,1.17s.09.81.23,1.17c.16.37.38.71.67.99.28.29.62.51.99.67.36.15.75.22,1.17.22s.81-.08,1.17-.22c.37-.16.71-.38.99-.67.29-.28.51-.62.67-.99.15-.36.23-.75.23-1.17s-.08-.81-.23-1.17c-.16-.37-.38-.71-.67-.99-.28-.29-.62-.51-.99-.67-.36-.15-.75-.23-1.17-.23s-.81.08-1.17.23Z"/>
      <path class="cls-2" d="M17.2,13.59c-.34.14-.64.34-.9.6-.26.26-.46.56-.6.9-.14.33-.21.69-.21,1.05s.07.72.21,1.05c.14.34.34.63.6.9.25.26.56.46.9.6.67.28,1.43.28,2.1,0,.34-.14.63-.34.9-.6.26-.26.46-.56.6-.9.14-.33.21-.69.21-1.05s-.07-.72-.21-1.05c-.14-.34-.34-.63-.6-.9-.26-.26-.56-.46-.9-.6-.66-.28-1.44-.28-2.1,0h0ZM18.25,19.51c-.44,0-.87-.09-1.29-.26-.41-.17-.77-.42-1.09-.73-.32-.31-.56-.68-.74-1.1-.17-.41-.25-.84-.25-1.29s.09-.88.25-1.28c.17-.41.42-.78.74-1.1.31-.31.68-.56,1.09-.73h0c.83-.35,1.77-.34,2.58,0,.42.17.78.41,1.09.73.31.31.56.69.73,1.1.18.41.26.84.26,1.28s-.09.88-.26,1.29c-.16.42-.42.78-.73,1.1-.31.32-.69.56-1.09.73-.41.18-.84.26-1.29.26Z"/>
      <path class="cls-4" d="M20.58,20.77c0,1.69-4.25,1.83-4.65.2l-.02-.21c.08-.53.08-1.09,0-1.63h0c.34,1.62,4.34,1.59,4.67,0-.08.55-.07,1.1,0,1.64Z"/>
      <path class="cls-2" d="M16.28,20.12c-.01.23-.03.45-.06.68l.02.15c.17.66,1.43.96,2.5.83.7-.09,1.52-.4,1.54-.99-.03-.23-.05-.44-.06-.67-.52.36-1.26.52-1.97.52h0c-.7,0-1.44-.17-1.96-.52h0ZM18.24,22.42c-1.18,0-2.38-.43-2.61-1.38l-.03-.26c.08-.58.08-1.11,0-1.61,0-.16.12-.32.28-.34.16,0,.3.07.33.22.14.67,1.15.97,2.02.97h0c.91,0,1.9-.33,2.03-.96.04-.17.19-.27.36-.24.17.03.28.18.25.35-.07.5-.07,1.04,0,1.55,0,.01,0,.03,0,.04,0,.84-.8,1.46-2.08,1.62-.19.03-.38.03-.57.03Z"/>
      <path class="cls-4" d="M15.91,19.13l.04.32v1.58c.17.51.78.82,1.25.96.31-.72.4-.95.45-1.7-.67-.1-1.59-.43-1.75-1.17h0Z"/>
      <path class="cls-2" d="M16.26,20.98c.11.28.44.49.78.63.17-.42.24-.64.29-1.06-.3-.07-.72-.2-1.07-.45v.89h0ZM17.21,22.3s-.05,0-.08-.01c-.37-.11-1.23-.42-1.48-1.16,0-.03,0-.06,0-.09v-1.58l-.03-.29v-.03h0c0-.17.12-.3.28-.32.16-.02.3.1.33.24.11.54.84.84,1.48.94.16.03.27.17.26.33-.05.8-.16,1.07-.47,1.79-.05.11-.17.18-.29.18Z"/>
    </g>
  </g>
</svg>