<?xml version="1.0" encoding="UTF-8"?>
<svg id="Layer_2" data-name="Layer 2" xmlns="http://www.w3.org/2000/svg" viewBox="0 0 34.43 37" fill="currentColor">
  <defs>
    <style>
      .cls-1 {
        fill: #fff;
      }

      .cls-1, .cls-2, .cls-3, .cls-4 {
        fill-rule: evenodd;
      }

      .cls-2 {
        fill: #1a87c7;
      }

      .cls-3 {
        fill: #bdedf8;
      }

      .cls-4 {
        fill: #66ceef;
      }
    </style>
  </defs>
  <g id="_Layer_" data-name="&amp;lt;Layer&amp;gt;">
    <g>
      <polygon class="cls-4" points="10.13 33.56 .31 27.9 24.3 14.04 34.13 19.71 10.13 33.56"/>
      <path class="cls-2" d="M.92,27.9l9.2,5.31,23.38-13.5-9.2-5.31L.92,27.9h0ZM10.13,33.87c-.05,0-.11-.02-.16-.04L.16,28.16c-.1-.06-.16-.16-.16-.27s.06-.21.16-.27l24-13.85c.09-.05.21-.05.3,0l9.81,5.67c.1.05.16.15.16.26s-.06.21-.16.27l-24,13.85s-.1.04-.15.04Z"/>
      <polygon class="cls-4" points="10.13 36.69 .31 31.02 .31 27.9 10.13 33.56 10.13 36.69"/>
      <path class="cls-2" d="M.62,30.85l9.2,5.31v-2.42L.62,28.43v2.42h0ZM10.13,37c-.05,0-.11-.01-.16-.04L.16,31.29c-.1-.05-.16-.16-.16-.27v-3.13c0-.11.06-.21.16-.27.1-.06.21-.06.3,0l9.81,5.67c.09.06.16.16.16.27v3.13c0,.11-.06.21-.16.27-.05.03-.1.04-.15.04Z"/>
      <polygon class="cls-4" points="10.13 33.56 34.13 19.71 34.13 22.84 10.13 36.69 10.13 33.56"/>
      <path class="cls-2" d="M10.43,33.74v2.42l23.38-13.5v-2.42l-23.38,13.5h0ZM10.13,37c-.05,0-.11-.01-.16-.04-.1-.06-.16-.16-.16-.27v-3.13c0-.11.06-.21.16-.27l24-13.85c.1-.06.21-.06.3,0,.1.06.16.16.16.27v3.13c0,.11-.06.21-.16.27l-24,13.86s-.1.04-.15.04Z"/>
      <polygon class="cls-1" points="29.57 9.2 24.18 6.09 17.81 9.77 23.2 12.88 29.57 9.2"/>
      <path class="cls-2" d="M18.43,9.77l4.77,2.76,5.75-3.32-4.77-2.76-5.76,3.32h0ZM23.2,13.19c-.05,0-.11-.02-.16-.04l-5.39-3.11c-.09-.06-.16-.16-.16-.27s.06-.21.16-.27l6.37-3.68c.1-.06.22-.06.31,0l5.39,3.11c.1.06.16.16.16.27s-.06.21-.16.27l-6.37,3.68c-.05.03-.11.04-.16.04Z"/>
      <polygon class="cls-1" points="23.2 12.88 17.81 9.77 17.81 20.47 23.2 23.58 23.2 12.88"/>
      <path class="cls-2" d="M18.11,20.29l4.78,2.76v-9.99l-4.78-2.76v9.99h0ZM23.2,23.89c-.05,0-.11-.01-.16-.04l-5.39-3.11c-.09-.06-.16-.16-.16-.26v-10.7c0-.11.06-.21.16-.27.1-.05.22-.05.31,0l5.39,3.11c.09.06.15.16.15.27v10.7c0,.11-.05.21-.15.27-.05.03-.11.04-.16.04Z"/>
      <polygon class="cls-3" points="10.46 30.94 5.07 27.83 5.07 3.99 10.46 7.1 10.46 30.94"/>
      <path class="cls-2" d="M5.37,27.65l4.78,2.75V7.28l-4.78-2.76v23.13h0ZM10.46,31.24c-.05,0-.1-.01-.15-.04l-5.39-3.11c-.1-.06-.16-.16-.16-.27V3.99c0-.11.06-.21.16-.27.09-.06.22-.06.31,0l5.39,3.11c.09.06.15.15.15.26v23.84c0,.11-.05.21-.15.27-.05.03-.11.04-.16.04Z"/>
      <polygon class="cls-3" points="10.46 7.1 5.07 3.99 11.44 .31 16.83 3.42 10.46 7.1"/>
      <path class="cls-2" d="M5.69,3.99l4.77,2.76,5.75-3.32L11.44.67l-5.75,3.32h0ZM10.46,7.41c-.05,0-.1-.01-.15-.04l-5.39-3.11c-.1-.06-.16-.15-.16-.26s.06-.21.16-.27L11.28.04c.09-.06.21-.06.31,0l5.39,3.11c.09.06.15.15.15.26s-.05.21-.15.27l-6.37,3.68c-.05.03-.11.04-.16.04Z"/>
      <polygon class="cls-4" points="16.83 27.26 11.44 24.15 11.44 8.61 16.83 11.72 16.83 27.26"/>
      <path class="cls-2" d="M11.74,23.97l4.78,2.75v-14.82l-4.78-2.76v14.83h0ZM16.83,27.57c-.05,0-.1-.02-.15-.04l-5.39-3.11c-.1-.06-.16-.15-.16-.27v-15.54c0-.11.06-.21.16-.26.09-.06.21-.06.31,0l5.39,3.11c.09.06.15.16.15.27v15.54c0,.11-.05.21-.15.27-.05.03-.11.04-.16.04Z"/>
      <polygon class="cls-4" points="16.83 11.72 11.44 8.61 17.81 4.93 23.2 8.04 16.83 11.72"/>
      <path class="cls-2" d="M12.06,8.61l4.77,2.76,5.75-3.32-4.77-2.76-5.75,3.32h0ZM16.83,12.03c-.05,0-.1-.01-.15-.04l-5.39-3.11c-.1-.06-.16-.16-.16-.27s.06-.21.16-.26l6.37-3.68c.1-.05.22-.05.31,0l5.39,3.11c.09.06.15.16.15.27s-.05.21-.15.27l-6.37,3.68c-.05.03-.11.04-.16.04Z"/>
      <polygon class="cls-4" points="16.83 27.26 16.83 11.72 23.2 8.04 23.2 23.58 16.83 27.26"/>
      <path class="cls-2" d="M17.13,11.9v14.82l5.76-3.32v-14.82l-5.76,3.32h0ZM16.83,27.57c-.05,0-.1-.02-.15-.04-.1-.06-.15-.16-.15-.27v-15.54c0-.11.05-.21.15-.27l6.37-3.68c.1-.06.22-.06.31,0,.09.06.15.16.15.27v15.54c0,.11-.05.21-.15.27l-6.37,3.68c-.05.03-.11.04-.16.04Z"/>
      <polygon class="cls-3" points="10.46 30.94 10.46 7.1 16.83 3.42 16.83 27.26 10.46 30.94"/>
      <path class="cls-2" d="M10.76,7.28v23.13l5.76-3.32V3.95l-5.76,3.32h0ZM10.46,31.24c-.05,0-.1-.01-.15-.04-.1-.06-.16-.16-.16-.27V7.1c0-.11.06-.21.16-.26l6.37-3.68c.09-.06.21-.06.31,0,.09.06.15.15.15.26v23.84c0,.11-.05.21-.15.26l-6.37,3.68c-.05.03-.11.04-.16.04Z"/>
      <polygon class="cls-1" points="29.57 19.9 29.57 9.2 23.2 12.88 23.2 23.58 29.57 19.9"/>
      <path class="cls-2" d="M29.57,19.9h0,0ZM23.5,13.05v9.99l5.76-3.32v-9.99l-5.76,3.32h0ZM23.2,23.89c-.05,0-.11-.01-.16-.04-.1-.06-.15-.16-.15-.27v-10.7c0-.11.05-.21.15-.26l6.37-3.68c.09-.05.22-.05.31,0,.1.06.16.16.16.27v10.7c0,.11-.06.21-.16.27l-6.37,3.68c-.05.03-.11.04-.16.04Z"/>
    </g>
  </g>
</svg>