<?xml version="1.0" encoding="UTF-8"?>
<svg id="Layer_2" data-name="Layer 2" xmlns="http://www.w3.org/2000/svg" viewBox="0 0 38.77 40.68" fill="currentColor">
  <defs>
    <style>
      .cls-1 {
        fill: #fff;
      }

      .cls-1, .cls-2, .cls-3, .cls-4 {
        fill-rule: evenodd;
      }

      .cls-2 {
        fill: #1a87c7;
      }

      .cls-3 {
        fill: #bdedf8;
      }

      .cls-4 {
        fill: #66ceef;
      }
    </style>
  </defs>
  <g id="_Layer_" data-name="&amp;lt;Layer&amp;gt;">
    <g>
      <path class="cls-4" d="M38.45,30.89v2.24c-.15.72-.32,1.14-.68,1.78-.86,1.31-1.77,2.03-3.1,2.84-4.94,2.71-11.3,2.84-16.48.97-1.11-.45-1.96-.88-2.96-1.55-.69-.51-1.16-.93-1.72-1.59-.63-.83-.94-1.42-1.15-2.46v-2.25h26.09Z"/>
      <path class="cls-2" d="M12.67,31.2v1.94c.21.97.52,1.51,1.09,2.28.5.58.94.99,1.66,1.53.91.61,1.73,1.03,2.89,1.5,5.38,1.95,11.6,1.58,16.22-.96,1.25-.76,2.15-1.46,2.99-2.75.35-.62.49-1,.63-1.67v-1.88H12.67ZM25.46,40.3c-2.48,0-5-.42-7.37-1.28-1.21-.49-2.06-.93-3.02-1.57-.78-.58-1.24-1.01-1.79-1.65-.63-.84-.98-1.45-1.22-2.6v-2.31c0-.08.02-.15.08-.21.06-.05.14-.09.22-.09h26.09c.17,0,.31.14.31.31v2.24c-.16.8-.32,1.23-.71,1.93-.92,1.41-1.87,2.15-3.21,2.96-2.74,1.5-6.03,2.27-9.38,2.27Z"/>
      <path class="cls-3" d="M16.18,25.41c5.1-2.94,13.36-2.94,18.46,0,5.1,2.94,5.1,7.71,0,10.66-5.1,2.94-13.37,2.94-18.46,0-5.1-2.95-5.09-7.72,0-10.66Z"/>
      <path class="cls-2" d="M16.18,25.41h0,0ZM25.41,23.51c-3.29,0-6.57.72-9.08,2.16h0c-2.37,1.37-3.67,3.17-3.67,5.07s1.3,3.69,3.67,5.06c5,2.89,13.15,2.89,18.16,0,2.36-1.37,3.67-3.15,3.67-5.06s-1.3-3.69-3.67-5.07c-2.5-1.44-5.79-2.16-9.07-2.16h0ZM25.4,38.58c-3.4,0-6.8-.75-9.39-2.24-2.56-1.49-3.98-3.47-3.98-5.6,0-2.13,1.41-4.11,3.98-5.6h0c5.17-2.98,13.59-2.99,18.77,0,2.56,1.49,3.98,3.47,3.98,5.6s-1.41,4.11-3.98,5.6c-2.59,1.5-5.99,2.24-9.39,2.24Z"/>
      <path class="cls-1" d="M37.77,30.83c0,1.3-.76,2.02-1.66,2.96-1.21,1.12-2.34,1.73-3.87,2.34-2.13.76-3.98,1.08-6.24,1.17-2.67.03-4.92-.27-7.43-1.17-1.89-.76-3.43-1.64-4.68-3.29-.45-.68-.85-1.2-.85-2.01V7.77c.05.24.09.44.17.69.19.58.54,1.17.92,1.64,1.32,1.64,3.52,2.74,5.5,3.34,4.34,1.31,10.04,1.09,14.09-1.02,1.2-.63,2.41-1.51,3.19-2.63.35-.5.64-1.09.78-1.67l.07-.35v23.06Z"/>
      <path class="cls-2" d="M13.35,9.5v21.33c0,.64.29,1.08.66,1.63l.14.21c1.28,1.69,2.93,2.53,4.53,3.17,2.34.84,4.53,1.19,7.31,1.15,2.35-.1,4.13-.43,6.14-1.16,1.41-.56,2.53-1.15,3.76-2.28l.12-.12c.81-.84,1.45-1.5,1.45-2.61V9.5c-.09.16-.19.31-.29.46-.91,1.3-2.3,2.2-3.3,2.72-3.91,2.04-9.67,2.46-14.33,1.05-1.43-.43-4.06-1.46-5.64-3.44-.2-.26-.39-.53-.54-.8h0ZM25.59,37.61c-2.67,0-4.82-.36-7.12-1.19-1.69-.68-3.44-1.56-4.82-3.4l-.14-.21c-.4-.59-.77-1.16-.77-1.98V7.77c0-.16.12-.29.28-.3.15-.02.3.09.33.24.05.24.09.44.16.64.17.51.49,1.08.87,1.56,1.48,1.85,3.99,2.82,5.34,3.23,4.51,1.37,10.09.97,13.86-1.01.94-.48,2.24-1.33,3.08-2.53.34-.49.61-1.04.74-1.56l.07-.33c.03-.16.16-.26.33-.24.16.02.28.15.28.3v23.06c0,1.37-.75,2.14-1.62,3.04l-.13.13c-1.31,1.21-2.49,1.82-3.97,2.42-2.08.75-3.91,1.09-6.34,1.19h-.43Z"/>
      <path class="cls-2" d="M36.58,30.16c-.17,0-.31-.13-.31-.3v-15.16c0-.17.14-.3.31-.3s.31.14.31.3v15.16c0,.17-.14.3-.31.3Z"/>
      <path class="cls-2" d="M14.52,30.16c-.17,0-.31-.13-.31-.3v-15.16c0-.17.14-.3.31-.3s.31.14.31.3v15.16c0,.17-.14.3-.31.3Z"/>
      <path class="cls-3" d="M33.23,32.32c0,.91.99.87.99-.11v-15.32c0-.96-.99-1.02-.99-.11v15.53Z"/>
      <path class="cls-2" d="M33.69,16.44c-.07,0-.16.12-.16.35v15.53c0,.49.37.47.37-.11v-15.32c0-.3-.13-.45-.22-.45h0ZM33.69,33.28c-.22,0-.42-.1-.56-.28-.14-.17-.21-.41-.21-.69v-15.53c0-.27.07-.51.21-.68.41-.52,1.39-.28,1.39.78v15.32c0,.7-.42,1.07-.83,1.07Z"/>
      <path class="cls-3" d="M28.96,34.23c0,1.45-1.28,1.45-1.28,0v-15.32c0-1.45,1.28-1.45,1.28,0v15.32Z"/>
      <path class="cls-2" d="M28.32,18.13c-.13,0-.33.25-.33.78v15.32c0,1.07.66,1.06.66,0v-15.32c0-.53-.2-.78-.33-.78h0ZM28.32,35.63c-.46,0-.95-.44-.95-1.4v-15.32c0-.96.49-1.39.95-1.39s.95.43.95,1.39v15.32c0,.96-.49,1.4-.95,1.4Z"/>
      <path class="cls-3" d="M23.12,34.23c0,1.45-1.28,1.45-1.28,0v-15.32c0-1.45,1.28-1.45,1.28,0v15.32Z"/>
      <path class="cls-2" d="M22.48,18.13c-.13,0-.33.25-.33.78v15.32c0,1.07.66,1.06.66,0v-15.32c0-.53-.2-.78-.33-.78h0ZM22.48,35.63c-.46,0-.95-.44-.95-1.4v-15.32c0-.96.49-1.39.95-1.39s.95.43.95,1.39v15.32c0,.96-.49,1.4-.95,1.4Z"/>
      <path class="cls-4" d="M17.14,3.21c4.57-2.63,11.97-2.64,16.54,0,4.57,2.64,4.57,6.91,0,9.54-4.56,2.64-11.97,2.64-16.54,0-4.57-2.63-4.56-6.91,0-9.54Z"/>
      <path class="cls-2" d="M17.29,3.48c-2.11,1.22-3.27,2.82-3.27,4.5s1.16,3.29,3.27,4.51c4.48,2.58,11.76,2.58,16.23,0,2.11-1.22,3.27-2.82,3.27-4.51s-1.16-3.28-3.27-4.5c-4.47-2.58-11.75-2.59-16.23,0h0ZM25.4,15.03c-3.05,0-6.1-.67-8.42-2.01-2.31-1.33-3.58-3.12-3.58-5.04s1.27-3.7,3.58-5.04h0c4.64-2.68,12.2-2.68,16.84,0,2.31,1.34,3.58,3.12,3.58,5.04s-1.27,3.71-3.58,5.04c-2.32,1.34-5.37,2.01-8.42,2.01Z"/>
      <path class="cls-1" d="M16.35,2.75C21.35-.14,29.46-.14,34.46,2.75c5,2.89,5,7.58,0,10.46-5,2.88-13.12,2.88-18.12,0-5-2.89-5-7.57,0-10.46Z"/>
      <path class="cls-2" d="M16.5,3.02c-2.32,1.34-3.6,3.11-3.6,4.96s1.28,3.62,3.6,4.96c4.91,2.83,12.9,2.83,17.81,0,2.32-1.34,3.6-3.1,3.6-4.96s-1.28-3.63-3.6-4.96C29.4.18,21.41.18,16.5,3.02h0ZM25.4,15.68c-3.34,0-6.67-.74-9.21-2.2-2.52-1.46-3.91-3.41-3.91-5.5s1.39-4.04,3.91-5.49h0c5.08-2.94,13.34-2.94,18.42,0,2.52,1.45,3.91,3.41,3.91,5.49s-1.39,4.04-3.9,5.5c-2.54,1.46-5.88,2.2-9.21,2.2Z"/>
      <path class="cls-3" d="M16.53,2.55c4.9-3,12.84-3.01,17.74,0,4.9,3,4.9,7.87,0,10.86-4.9,3.01-12.85,3.01-17.74,0-4.9-3-4.9-7.86,0-10.86Z"/>
      <path class="cls-2" d="M16.7,2.81c-2.28,1.39-3.53,3.23-3.53,5.17s1.25,3.78,3.53,5.17c4.8,2.94,12.62,2.94,17.42,0,2.27-1.39,3.52-3.23,3.52-5.17s-1.25-3.78-3.53-5.17C29.31-.13,21.5-.13,16.7,2.81h0ZM25.41,15.97c-3.27,0-6.54-.76-9.03-2.29-2.46-1.51-3.82-3.54-3.82-5.7s1.36-4.19,3.82-5.69h0c4.98-3.05,13.08-3.05,18.06,0,2.46,1.5,3.82,3.53,3.82,5.69s-1.35,4.19-3.82,5.7c-2.49,1.52-5.76,2.29-9.03,2.29Z"/>
      <path class="cls-4" d="M17.14,3.21c4.57-2.63,11.97-2.64,16.54,0,4.57,2.64,4.57,6.91,0,9.54-4.56,2.64-11.97,2.64-16.54,0-4.57-2.63-4.56-6.91,0-9.54Z"/>
      <path class="cls-2" d="M17.29,3.48c-2.11,1.22-3.27,2.82-3.27,4.5s1.16,3.29,3.27,4.51c4.48,2.58,11.76,2.58,16.23,0,2.11-1.22,3.27-2.82,3.27-4.51s-1.16-3.28-3.27-4.5c-4.47-2.58-11.75-2.59-16.23,0h0ZM25.4,15.03c-3.05,0-6.1-.67-8.42-2.01-2.31-1.33-3.58-3.12-3.58-5.04s1.27-3.7,3.58-5.04h0c4.64-2.68,12.2-2.68,16.84,0,2.31,1.34,3.58,3.12,3.58,5.04s-1.27,3.71-3.58,5.04c-2.32,1.34-5.37,2.01-8.42,2.01Z"/>
      <path class="cls-1" d="M21.37,14.32l-2.11-5.07-1.75,2.29.75,1.79c.96.44,2.01.77,3.11.99Z"/>
      <path class="cls-2" d="M18.5,13.1c.73.31,1.52.57,2.35.78l-1.67-4.03-1.31,1.72.63,1.52h0ZM21.37,14.63s-.04-.01-.06-.01c-1.14-.24-2.2-.58-3.17-1.01-.07-.04-.13-.1-.16-.17l-.75-1.8c-.04-.11-.03-.22.04-.3l1.74-2.28c.07-.1.17-.14.29-.12.11.02.2.09.24.18l2.11,5.07c.04.1.02.22-.05.31-.06.07-.15.12-.24.12Z"/>
      <path class="cls-3" d="M30.73,14l-3.66-8.81c-.21-.5-.81-1.12-1.33-1.02-6.6,1.28-5.09-7.15-9.42,2.44l2.96,7.13c3.48,1.23,7.84,1.32,11.45.26Z"/>
      <path class="cls-2" d="M19.51,13.49c3.27,1.12,7.36,1.23,10.8.3l-3.53-8.48c-.18-.42-.68-.9-.99-.84-2.93.57-4.37-.7-5.33-1.55-.51-.45-.82-.7-1.1-.64-.58.12-1.39,1.43-2.71,4.35l2.86,6.88h0ZM25.41,15.04c-2.17,0-4.34-.34-6.23-1.02-.08-.02-.15-.09-.18-.17l-2.96-7.13c-.03-.08-.03-.17,0-.24,1.52-3.37,2.36-4.63,3.2-4.82.61-.13,1.09.3,1.64.78.92.81,2.17,1.91,4.8,1.41.71-.14,1.43.61,1.68,1.2l3.66,8.81c.03.08.03.18,0,.25-.04.08-.11.14-.19.17-1.69.5-3.55.75-5.41.75Z"/>
      <polygon class="cls-1" points="20.16 8.07 19.26 9.25 20.66 12.61 23.03 9.5 20.16 8.07"/>
      <path class="cls-2" d="M19.61,9.3l1.12,2.7,1.82-2.39-2.31-1.15-.64.84h0ZM20.66,12.92s-.03,0-.04,0c-.11-.01-.2-.09-.24-.18l-1.4-3.36c-.04-.1-.03-.22.04-.31l.9-1.18c.09-.11.25-.15.38-.09l2.87,1.43c.08.04.14.12.16.21.02.09,0,.18-.06.25l-2.38,3.11c-.06.07-.15.12-.24.12Z"/>
      <path class="cls-1" d="M26.68,14.69c-7.79-5.8-5.28-2.7-2.94-8.4,2.78-6.77,13.23-.85,12.17,4.65-.54.57-1.3,1.27-2.24,1.81-1.96,1.13-4.44,1.78-6.99,1.94Z"/>
      <path class="cls-2" d="M28.11,3.58c-1.44,0-3.14.55-4.08,2.83-.68,1.66-1.38,2.6-1.84,3.22-.3.39-.49.66-.47.83.05.32.84.89,2.28,1.91.73.52,1.64,1.17,2.77,2.02,2.54-.17,4.94-.84,6.75-1.89.72-.42,1.43-.98,2.11-1.69.5-2.96-2.54-6.02-5.63-6.94-.45-.14-1.13-.29-1.89-.29h0ZM26.68,15c-.07,0-.13-.03-.18-.07-1.17-.87-2.11-1.54-2.85-2.07-1.82-1.3-2.44-1.74-2.53-2.32-.07-.42.19-.77.58-1.29.44-.59,1.11-1.49,1.76-3.08,1.13-2.74,3.63-3.83,6.72-2.9,3.44,1.02,6.69,4.38,6.04,7.73,0,.05-.04.11-.08.15-.74.78-1.52,1.42-2.31,1.87-1.94,1.12-4.41,1.81-7.13,1.97,0,0-.01,0-.02,0Z"/>
      <path class="cls-1" d="M34.67,12.1v-1.59s1.08.63,1.08.63c-.31.33-.67.66-1.08.96Z"/>
      <path class="cls-2" d="M34.98,11.04v.42c.09-.09.19-.18.27-.25l-.27-.17h0ZM34.67,12.41s-.09,0-.14-.03c-.1-.05-.17-.16-.17-.28v-1.59c0-.11.06-.22.15-.27s.21-.05.31,0l1.08.63c.08.04.14.13.15.22.01.1-.02.19-.08.26-.32.35-.7.69-1.12,1-.05.04-.12.06-.19.06Z"/>
      <polygon class="cls-1" points="32.02 7.26 31.85 7.17 31.85 7.16 32.02 7.26"/>
      <path class="cls-2" d="M32.02,7.57c-.05,0-.11-.02-.15-.04l-.17-.1c-.09-.04-.15-.14-.15-.24,0-.1.04-.2.12-.27.1-.07.24-.08.35-.02l.17.1c.14.09.19.27.11.42-.06.1-.16.16-.27.16Z"/>
      <path class="cls-3" d="M24.2,14.7v-3.75c0-.53.32-1.36.84-1.45,2.45-.41,4.44-1.56,6-3.46l3.64,2.1v3.95c-.31.23-.64.44-1,.65-2.59,1.5-6.1,2.15-9.48,1.95Z"/>
      <path class="cls-2" d="M24.5,14.4c3.37.16,6.64-.54,9.02-1.91.3-.17.58-.36.84-.55v-3.62s-3.26-1.89-3.26-1.89c-1.57,1.83-3.59,2.97-6.01,3.37-.31.05-.58.69-.58,1.15v3.45h0ZM25.41,15.04c-.41,0-.82-.01-1.24-.04-.16,0-.29-.15-.29-.3v-3.75c0-.66.38-1.64,1.1-1.76,2.36-.4,4.31-1.52,5.81-3.35.1-.11.26-.15.39-.07l3.64,2.1c.09.06.15.16.15.27v3.95c0,.1-.05.19-.13.24-.32.24-.66.47-1.03.68-2.26,1.3-5.27,2.02-8.41,2.02Z"/>
      <path class="cls-1" d="M34.67,8.15c-3.36,1-5.15.83-3.64-2.1l3.64,2.1Z"/>
      <path class="cls-2" d="M31.16,6.47c-.37.81-.46,1.39-.24,1.66.22.27.93.45,2.96-.08l-2.72-1.58h0ZM31.82,9.01c-.66,0-1.11-.16-1.38-.49-.43-.52-.33-1.37.31-2.63.04-.07.11-.13.19-.15.08-.03.17-.02.24.03l3.64,2.1c.11.06.17.18.15.3-.01.12-.1.23-.22.26-1.26.37-2.22.56-2.94.56Z"/>
      <path class="cls-1" d="M16.98,8.2l6.38,2.33c.5.18.78-.27.59-.78-1.42-3.75,1.99-5.74-2.17-4.67-1.54.4-1.26-.02-2.33.05-1.35.08-1.98,2.38-2.47,3.07Z"/>
      <path class="cls-2" d="M17.43,8.04l6.03,2.21s.14.05.18,0c.05-.05.07-.2.01-.36-.64-1.71-.35-3.05-.15-3.95.07-.29.16-.7.1-.77-.05-.05-.32-.13-1.76.24-.94.24-1.27.2-1.65.11-.19-.04-.36-.09-.73-.07-.82.05-1.38,1.23-1.78,2.09-.09.19-.17.36-.25.51h0ZM23.58,10.88c-.1,0-.21-.02-.32-.06l-6.38-2.33c-.09-.03-.16-.11-.19-.2-.03-.09-.01-.19.04-.27.11-.16.25-.45.4-.75.47-1,1.13-2.37,2.31-2.43.46-.04.71.02.91.08.27.06.49.12,1.35-.11,1.44-.36,2.02-.39,2.34-.09.31.3.2.76.07,1.36-.18.82-.46,2.05.12,3.59.15.38.09.77-.15,1.02-.14.14-.31.21-.51.21Z"/>
      <path class="cls-1" d="M26.74,14.69l-1.62-4.45c-.18-.5-.8-.95-1.33-1.02-2.29-.3-6.41-5.12-8.41-2.64l-1.38,2.91c.47,1.2,1.52,2.34,3.13,3.27,2.63,1.52,6.19,2.16,9.61,1.94Z"/>
      <path class="cls-2" d="M14.34,9.49c.48,1.12,1.5,2.16,2.95,3,2.39,1.38,5.66,2.07,9.03,1.91l-1.48-4.06c-.13-.37-.65-.77-1.08-.83-.89-.11-1.98-.82-3.13-1.57-2.29-1.5-3.98-2.45-5.01-1.18l-1.28,2.73h0ZM25.39,15.04c-3.14,0-6.15-.72-8.41-2.02-1.63-.94-2.75-2.12-3.27-3.42-.03-.09-.03-.18,0-.25l1.38-2.91c1.5-1.86,3.81-.35,5.86.99,1.09.71,2.12,1.38,2.87,1.48.66.09,1.37.63,1.58,1.23l1.62,4.44c.03.09.02.2-.03.28-.05.08-.14.13-.24.14-.46.03-.92.05-1.38.05Z"/>
      <path class="cls-3" d="M16.66,32.32c0,.91.99.87.99-.11v-15.32c0-.96-.99-1.02-.99-.11v15.53Z"/>
      <path class="cls-2" d="M17.12,16.44c-.08,0-.15.12-.15.35v15.53c0,.49.37.47.37-.11v-15.32c0-.3-.13-.45-.22-.45h0ZM17.12,33.28c-.22,0-.42-.1-.56-.28-.14-.17-.21-.41-.21-.69v-15.53c0-.27.07-.51.21-.68.41-.52,1.4-.28,1.4.78v15.32c0,.7-.42,1.07-.83,1.07Z"/>
      <path class="cls-3" d="M.83,33.99c-1.64-6.1.66-14.67,5.13-19.14,4.47-4.47,9.42-3.15,11.05,2.96,1.64,6.1-.66,14.67-5.13,19.14-4.47,4.47-9.41,3.14-11.05-2.96Z"/>
      <path class="cls-2" d="M11.29,12.51c-1.66,0-3.44.88-5.12,2.55C1.79,19.46-.48,27.91,1.13,33.91h0c.76,2.84,2.27,4.69,4.25,5.22,1.98.53,4.21-.32,6.29-2.4,4.39-4.39,6.66-12.85,5.05-18.84-.76-2.84-2.27-4.7-4.24-5.23-.38-.1-.77-.16-1.17-.16h0ZM6.55,39.91c-.45,0-.9-.06-1.34-.17-2.2-.59-3.86-2.6-4.68-5.67h0c-1.66-6.18.68-14.9,5.21-19.43,2.24-2.24,4.69-3.15,6.89-2.57,2.2.59,3.86,2.6,4.68,5.66,1.66,6.19-.68,14.92-5.21,19.44-1.8,1.8-3.72,2.74-5.55,2.74Z"/>
      <path class="cls-4" d="M13.28,12.62c2.76.75,4.36.82,5.88,3.9,4.16,8.46-2.27,23.98-9.8,23.85l-3.31-.8c6.61.37,10.82-9.45,11.39-15.52.36-3.9-.23-9.44-4.17-11.43Z"/>
      <path class="cls-2" d="M7.94,39.71l1.5.36s.05,0,.07,0c2.42,0,5.04-1.88,7.12-5.16,3.07-4.83,4.9-12.87,2.25-18.25-1.12-2.29-2.27-2.83-4.01-3.3,3.28,2.99,3.05,8.82,2.87,10.72-.56,6.03-4.29,14.32-9.81,15.64h0ZM9.46,40.68h-.1l-3.37-.81c-.15-.03-.26-.19-.23-.35.02-.16.17-.26.32-.26,6.18.37,10.46-8.79,11.06-15.24.19-2.04.46-8.87-4-11.13-.14-.07-.2-.23-.15-.38.06-.15.22-.24.37-.19.3.09.59.16.87.23,2.29.58,3.8.96,5.21,3.83,2.74,5.59.87,13.89-2.29,18.86-2.23,3.51-4.96,5.43-7.69,5.43Z"/>
      <path class="cls-1" d="M.94,33.32c-1.52-5.68.61-13.66,4.78-17.83,4.16-4.16,8.78-2.93,10.3,2.75,1.52,5.69-.62,13.68-4.78,17.85-4.17,4.16-8.78,2.93-10.3-2.76Z"/>
      <path class="cls-2" d="M10.7,13.33c-1.54,0-3.2.82-4.76,2.37C1.85,19.79-.25,27.66,1.24,33.24h0c.71,2.64,2.11,4.37,3.94,4.86,1.83.5,3.91-.3,5.84-2.23,4.09-4.08,6.2-11.96,4.7-17.54-.71-2.64-2.11-4.37-3.94-4.86-.36-.09-.72-.14-1.09-.14h0ZM6.28,38.86c-.42,0-.84-.05-1.25-.16-2.06-.56-3.61-2.43-4.38-5.3-1.55-5.77.63-13.91,4.86-18.13,2.1-2.1,4.38-2.95,6.44-2.39,2.05.55,3.61,2.43,4.38,5.29,1.55,5.78-.63,13.91-4.86,18.14-1.68,1.68-3.48,2.56-5.19,2.56Z"/>
      <path class="cls-1" d="M4.51,27.09c-.38-1.41.15-3.38,1.18-4.42,1.03-1.03,2.17-.73,2.55.68.38,1.41-.15,3.39-1.18,4.43-1.03,1.02-2.17.72-2.55-.69Z"/>
      <path class="cls-2" d="M4.81,27.01c.15.56.44.94.81,1.04.37.1.8-.07,1.22-.49.96-.96,1.46-2.82,1.1-4.13-.15-.57-.44-.94-.81-1.03-.37-.09-.81.08-1.22.5-.96.96-1.46,2.81-1.1,4.12h0ZM5.83,28.69c-.13,0-.25,0-.37-.04-.59-.15-1.04-.69-1.25-1.48h0c-.41-1.52.15-3.6,1.26-4.71.58-.58,1.23-.81,1.82-.65.59.15,1.04.68,1.25,1.47.41,1.53-.15,3.6-1.26,4.72-.46.46-.96.69-1.45.69Z"/>
      <path class="cls-4" d="M7.39,22.16l1.39.37.08.03c.14.08.27.19.37.31.37.44.51,1.12.53,1.69.04,1.14-.37,2.49-1.11,3.37-.21.25-.48.5-.77.64-.15.08-.32.14-.48.16-.05,0-.13.02-.19.02h-.09s-1.39-.38-1.39-.38c.06,0,.12,0,.18,0,.19-.02.4-.08.57-.18.46-.23.84-.68,1.11-1.1.62-1.01.95-2.45.69-3.62-.08-.35-.22-.71-.45-.98-.1-.12-.23-.23-.37-.31l-.08-.04Z"/>
      <path class="cls-2" d="M6.84,28.36l.35.09h.03s.09,0,.13-.02c.12,0,.26-.06.38-.12.23-.12.47-.32.68-.57.66-.78,1.08-2.05,1.04-3.16-.02-.63-.19-1.17-.46-1.5-.08-.1-.18-.19-.28-.24l-.07-.03-.3-.08c.12.25.2.5.24.7.26,1.17-.03,2.72-.73,3.84-.18.29-.52.77-1.01,1.1h0ZM7.21,29.06h-.12l-1.46-.39c-.15-.03-.25-.19-.22-.34.02-.16.14-.28.32-.26h.15c.14,0,.3-.05.45-.13.47-.24.82-.73.99-1,.62-1,.88-2.36.65-3.39-.05-.24-.16-.59-.38-.84-.08-.1-.18-.19-.28-.24l-.07-.03c-.14-.07-.21-.24-.15-.39.06-.15.22-.22.37-.19l1.53.45c.17.09.33.23.46.38.49.59.59,1.43.6,1.88.04,1.27-.43,2.68-1.19,3.58-.19.22-.49.52-.87.72-.18.1-.39.17-.58.19-.06.01-.15.01-.22.01Z"/>
    </g>
  </g>
</svg>