<?xml version="1.0" encoding="UTF-8"?>
<svg id="Layer_2" data-name="Layer 2" xmlns="http://www.w3.org/2000/svg" viewBox="0 0 40.04 30.82" fill="currentColor">
  <defs>
    <style>
      .cls-1 {
        fill: #fff;
      }

      .cls-1, .cls-2, .cls-3, .cls-4 {
        fill-rule: evenodd;
      }

      .cls-2 {
        fill: #1a87c7;
      }

      .cls-3 {
        fill: #bdedf8;
      }

      .cls-4 {
        fill: #66ceef;
      }
    </style>
  </defs>
  <g id="_Layer_" data-name="&amp;lt;Layer&amp;gt;">
    <g>
      <path class="cls-1" d="M29.71,19.87l-2.62,1.5c-.32.2-.54.44-.72.77l-1.59,2.75c-.09.16-.17.26-.33.36l-5.62,3.25c-.12.05-.2.09-.31.03l-3.64-2.1c.11.03.17,0,.28-.05l5.62-3.24c.16-.1.23-.2.33-.36l1.59-2.76c.19-.32.4-.57.72-.76l2.62-1.51c.23-.12.48-.21.72-.07l1.64.95.1.05.04-.03,4.79-2.76.97-.57c.26-.17.42-.45.44-.75V4.04c-.01-.11-.02-.18-.1-.26l3.65,2.11c.1.07.12.16.13.28v10.53c-.02.3-.18.6-.43.76l-1.26.72-4.37,2.52c-.09.06-.2.1-.31.04l-1.56-.9c-.28-.16-.5-.1-.76.05Z"/>
      <path class="cls-2" d="M15.59,26.48l3.09,1.79,5.63-3.28c.09-.05.13-.09.22-.24l1.58-2.75c.24-.4.49-.67.84-.88l2.61-1.51s.01,0,.01-.01c.28-.15.64-.29,1.07-.04l1.56.9,5.63-3.28c.16-.1.28-.3.28-.51V6.16l-3.07-1.79v10.2c-.02.42-.23.8-.58,1.02l-5.77,3.34c-.09.05-.26.08-.36.03l-1.73-1c-.08-.04-.18-.06-.43.07l-2.61,1.51c-.25.15-.43.35-.62.65l-1.59,2.76c-.1.17-.21.33-.44.46l-5.35,3.09h0ZM18.64,28.87c-.08,0-.17-.02-.25-.05l-3.67-2.13c-.14-.08-.19-.24-.13-.38s.21-.22.36-.18l5.67-3.27c.09-.05.13-.11.21-.24l1.59-2.76c.24-.4.5-.67.84-.87l2.61-1.52c.15-.08.59-.32,1.03-.07l1.58.92,5.66-3.26c.15-.1.27-.3.29-.51V4.04c-.11-.11-.13-.3-.03-.42.09-.12.26-.18.39-.11l3.65,2.1c.26.18.28.42.28.53v10.54c-.02.42-.23.81-.57,1.02l-5.64,3.25c-.23.13-.43.14-.62.04l-1.56-.91c-.14-.08-.23-.08-.46.04l-2.62,1.51c-.25.15-.43.35-.62.65l-1.58,2.76c-.11.18-.22.33-.44.47l-5.63,3.25c-.08.03-.2.09-.35.09Z"/>
      <path class="cls-1" d="M39.56,4.05l-3.94-2.28c-.3-.15-.54-.07-.83.08L14.48,13.57c-.38.24-.59.5-.83.88l3.94,2.28c.23-.38.44-.63.82-.88l20.32-11.73c.29-.15.52-.22.82-.08Z"/>
      <path class="cls-2" d="M14.09,14.35l3.41,1.96c.19-.27.41-.5.76-.72L38.58,3.86s.02-.01.03-.01l-3.13-1.81c-.15-.07-.26-.05-.54.09L14.64,13.84c-.23.15-.39.29-.55.51h0ZM17.6,17.03c-.05,0-.11-.01-.16-.04l-3.94-2.27c-.07-.04-.12-.11-.14-.19-.03-.08-.01-.17.03-.23.24-.39.48-.69.92-.97L34.64,1.59c.31-.17.66-.31,1.11-.1l3.96,2.28c.14.08.2.26.12.41-.08.15-.26.21-.41.14-.16-.08-.28-.07-.55.07l-20.3,11.72c-.3.19-.48.38-.72.77-.05.09-.16.15-.26.15Z"/>
      <path class="cls-3" d="M13.31,27.47c.02.32.07.57.35.76l3.94,2.27c-.28-.19-.33-.43-.35-.76v-11.86c.02-.45.14-.77.35-1.16l-3.94-2.28c-.21.39-.33.71-.35,1.16v11.86Z"/>
      <path class="cls-2" d="M13.62,27.47h.01-.01ZM13.62,27.46c.01.3.06.41.21.51l3.11,1.79h0v-11.88c.02-.42.1-.73.24-1.04l-3.4-1.96c-.1.25-.16.47-.17.74v11.84h0ZM17.6,30.81c-.05,0-.11-.02-.16-.04l-3.94-2.28c-.43-.29-.48-.67-.5-1.01h0v-11.87c.03-.54.16-.91.38-1.31.03-.07.1-.12.18-.15.08-.02.17-.01.24.03l3.94,2.27c.14.09.19.27.11.42-.18.34-.28.61-.3,1.02v11.85c0,.3.05.4.21.5.14.1.17.28.09.42-.06.09-.16.15-.26.15Z"/>
      <path class="cls-3" d="M37.51,6.19v9.97c0,.14-.05.3-.13.44h0c-.08.14-.19.26-.3.33l-5.63,3.25c-.06.04-.12.05-.17.06h0c-.05,0-.09-.01-.15-.04h-.02s-.67-.4-.67-.4h-.02s-.02,0-.02,0l-.88-.51h0c-.1-.06-.21-.09-.33-.07h-.02c-.12.02-.25.06-.38.14l-2.62,1.51c-.13.07-.25.17-.38.29l-.02.02c-.12.13-.24.28-.33.45h0l-1.59,2.76-.02.03c-.04.07-.09.14-.14.19h0c-.05.05-.11.09-.17.13l-5.15,2.98v-9.98c0-.14.05-.29.13-.44.08-.14.19-.26.31-.33l18.68-10.78Z"/>
      <path class="cls-2" d="M37.2,6.71l-18.22,10.52c-.07.04-.15.12-.2.22-.05.1-.09.2-.09.28v9.44l4.69-2.7s.07-.05.1-.08c.03-.03.07-.09.1-.14l1.6-2.78c.11-.18.23-.36.37-.51.17-.16.31-.28.47-.37l2.62-1.51c.16-.1.33-.16.49-.18.21-.03.39.02.55.1l1.58.92,5.65-3.28c.07-.04.14-.12.2-.22.05-.09.09-.19.09-.28V6.71h0ZM18.39,28.01c-.05,0-.1,0-.15-.04-.09-.05-.16-.16-.16-.26v-9.98c0-.19.06-.4.17-.59.1-.18.25-.34.42-.44l18.68-10.79c.1-.05.22-.05.32,0,.09.05.15.16.15.27v9.97c0,.19-.06.4-.17.59-.11.19-.26.35-.43.45l-5.62,3.24c-.1.06-.2.09-.3.1-.11,0-.23-.01-.32-.07l-1.61-.93s-.08-.03-.15-.03c-.09.01-.17.04-.27.1l-2.62,1.5c-.11.06-.21.15-.3.25-.13.12-.23.26-.3.4l-1.59,2.76c-.08.13-.14.22-.2.28-.07.08-.15.14-.24.19l-5.16,2.97s-.09.04-.16.04Z"/>
      <path class="cls-4" d="M15.17,25.12C12.08,22.93.93,15.38.36,11.92l-.05-4.62.82,2.37c0-3.25-.17-4.92,4.55-6.95,4.58-1.98,9.6-2.22,14.25-.21,4.32,1.87,7.03,1.09,10.98,1.58-.98.57-5.88,3.7-6.6,3.61-5.01-.63-8.34-4.56-17.36-1.48-1.8.61-4.76,2.04-5.52,3.84,2.23,2.75,10.54,8.8,13.73,11.06v4Z"/>
      <path class="cls-2" d="M13.17,1.43c-2.45,0-4.95.52-7.37,1.56C1.42,4.89,1.43,6.38,1.43,9.35v.08c1.02-1.56,3.48-2.83,5.43-3.49,6.41-2.19,10.07-.87,13.3.29,1.4.5,2.72.98,4.19,1.17h0c.56,0,4.07-2.15,5.39-2.96.08-.04.15-.09.22-.13-.91-.08-1.76-.11-2.6-.12-2.36-.05-4.57-.1-7.56-1.39-2.1-.91-4.35-1.37-6.64-1.37h0ZM.64,9.2l.19.57c.04.13.14.2.31.21-.03.1-.01.2.05.28,2.38,2.93,11.53,9.49,13.67,11.02v3.24l-.42-.29C10.82,21.69,1.17,14.92.66,11.92l-.03-2.72h0ZM15.17,25.43c-.06,0-.12-.02-.18-.05l-.9-.64C10.06,21.91.6,15.28.06,11.97L0,7.3c0-.15.1-.28.25-.3.15-.03.3.06.35.2l.23.7c.12-2.21.78-3.75,4.72-5.46,4.82-2.09,9.98-2.15,14.5-.2,2.87,1.23,5.03,1.29,7.33,1.34,1.12.03,2.28.06,3.56.22.14.02.24.11.27.24.03.13-.03.27-.15.33-.2.11-.55.33-1,.6-3.32,2.03-5.25,3.11-5.8,3.04-1.54-.19-2.89-.68-4.32-1.2-3.28-1.18-6.69-2.41-12.9-.29-1.58.54-4.41,1.87-5.26,3.5,2.57,3.01,11.72,9.55,13.56,10.86.08.05.13.15.13.25v4c0,.11-.07.22-.17.27-.04.03-.09.04-.14.04Z"/>
      <path class="cls-3" d="M15.17,21.12c-3.11-2.21-6.89-5-9.8-7.4-2.25-1.87-4.01-3.52-4.55-4.51-.48-.86-.61-1.71-.45-2.53.24-1.29,1.22-2.46,2.63-3.43,1.36-.94,3.16-1.71,5.12-2.22C11.97.01,16.49-.02,19.68,1.5c3.1,1.48,5.62,1.54,8.08,1.59,1.42.03,2.81.07,4.27.36l-1.13.64c-1.07-.14-2.11-.16-3.16-.18-2.55-.06-5.17-.12-8.41-1.67-3.02-1.44-7.33-1.4-11.01-.42-1.87.49-3.57,1.22-4.86,2.1-1.23.85-2.09,1.85-2.29,2.92-.12.63-.02,1.3.37,1.98.49.89,2.17,2.47,4.36,4.28,2.9,2.4,6.66,5.18,9.75,7.36l-.47.67Z"/>
      <path class="cls-2" d="M13.59.61c-1.75,0-3.59.23-5.39.71-1.96.51-3.7,1.26-5.02,2.17-1.41.97-2.28,2.09-2.5,3.23-.15.78,0,1.56.42,2.33.33.6,1.37,1.85,4.47,4.42,2.46,2.03,5.92,4.65,9.53,7.2l.12-.15c-3.61-2.55-7.07-5.17-9.52-7.21-2.48-2.04-3.97-3.51-4.43-4.37-.41-.72-.54-1.46-.39-2.19.21-1.09,1.05-2.17,2.42-3.11,1.29-.89,3.02-1.64,4.95-2.15,4.09-1.08,8.39-.9,11.22.44,3.18,1.51,5.78,1.58,8.29,1.64,1.01.03,2.04.05,3.09.18l.29-.17c-1.13-.15-2.23-.17-3.38-.2-2.49-.06-5.06-.12-8.21-1.62-1.62-.77-3.7-1.17-5.96-1.17h0ZM15.17,21.43c-.06,0-.12-.02-.18-.05-3.71-2.62-7.29-5.33-9.82-7.42-2.55-2.11-4.11-3.66-4.62-4.6C.06,8.46-.11,7.54.07,6.62c.25-1.31,1.21-2.56,2.76-3.63,1.37-.96,3.18-1.74,5.22-2.27,4.27-1.12,8.78-.93,11.78.5,3.02,1.44,5.53,1.5,7.95,1.56,1.39.04,2.83.07,4.32.36.13.03.23.12.25.25.02.12-.04.25-.15.31l-1.12.65c-.06.03-.12.04-.19.03-1.05-.13-2.06-.16-3.14-.18-2.57-.06-5.24-.12-8.54-1.69-2.7-1.3-6.84-1.44-10.8-.41-1.88.5-3.52,1.21-4.76,2.06-1.24.85-1.98,1.79-2.17,2.72-.11.58,0,1.18.33,1.78.29.54,1.28,1.69,4.28,4.18,2.5,2.08,6.05,4.75,9.73,7.35.14.09.17.3.08.42l-.47.67c-.04.07-.12.11-.2.13h-.05Z"/>
      <polygon class="cls-3" points="16.36 19.43 15.1 18.7 13.45 19.66 14.71 20.38 16.36 19.43"/>
      <path class="cls-2" d="M14.07,19.66l.64.37,1.04-.6-.65-.37-1.03.6h0ZM14.71,20.69c-.05,0-.11,0-.16-.04l-1.26-.72c-.09-.06-.15-.16-.15-.27s.06-.21.15-.27l1.65-.96c.09-.05.22-.05.31,0l1.26.73c.1.05.15.16.15.27,0,.1-.05.21-.15.26l-1.66.96s-.1.04-.15.04Z"/>
      <polygon class="cls-4" points="14.71 20.38 13.45 19.66 13.45 24.97 14.71 25.71 14.71 20.38"/>
      <path class="cls-2" d="M13.75,24.79l.64.37v-4.61l-.64-.37v4.61h0ZM14.71,26.01c-.05,0-.11-.02-.16-.05l-1.26-.72c-.09-.06-.15-.17-.15-.27v-5.32c0-.12.06-.21.15-.27.1-.05.22-.05.3,0l1.26.73c.1.05.16.15.16.27v5.32c0,.11-.06.21-.16.26-.04.03-.1.05-.15.05Z"/>
      <polygon class="cls-1" points="16.36 24.75 14.71 25.7 14.71 20.38 15.27 20.06 16.36 19.43 16.36 24.75"/>
      <path class="cls-2" d="M16.36,24.75h0,0ZM15.01,20.56v4.61l1.04-.6v-4.61l-1.04.6h0ZM14.71,26.01c-.05,0-.11-.02-.16-.05-.09-.05-.15-.15-.15-.27v-5.31c0-.11.06-.22.15-.27l1.65-.96c.09-.05.22-.05.31,0,.1.05.15.16.15.27v5.32c0,.1-.05.21-.15.26l-1.66.96s-.1.05-.15.05Z"/>
      <path class="cls-1" d="M18.83,16.96l19.16-11.06c.11-.07.23-.08.3-.02.08.04.13.14.13.28v10.53c0,.28-.2.63-.43.76l-5.63,3.24c-.06.04-.12.06-.16.07,0,0-.14-.03-.17-.04l-1.58-.92c-.16-.09-.47-.08-.73.08l-2.62,1.5c-.27.17-.53.43-.72.77l-1.59,2.75c-.05.09-.09.15-.16.23,0,.02-.15.12-.17.13l-5.62,3.25c-.24.14-.44.03-.44-.25v-10.53c0-.28.2-.62.44-.77h0ZM39.73,16.6V4.73c0-.37-.13-.63-.35-.76-.21-.12-.5-.1-.83.08l-20.31,11.74c-.64.37-1.17,1.28-1.17,2.02v11.87c0,.37.14.63.35.75.21.12.5.1.83-.08,8.11-4.68,12.54-7.24,20.31-11.73.65-.37,1.17-1.28,1.17-2.02h0Z"/>
      <path class="cls-2" d="M18.83,16.96h0,0ZM38.12,6.16l-19.13,11.07h0c-.15.09-.28.32-.28.5v10.49l5.61-3.23s.05-.03.08-.05c0,0,0-.02.02-.03.05-.04.07-.09.12-.17l1.58-2.75c.23-.39.51-.69.84-.88l2.61-1.51c.35-.2.78-.23,1.04-.07l1.58.9,5.66-3.26c.15-.09.28-.32.28-.5V6.16h0ZM18.63,28.87c-.09,0-.18-.02-.26-.07-.18-.11-.29-.3-.29-.55v-10.53c0-.39.25-.83.59-1.02l19.16-11.06c.21-.13.43-.14.61-.04.18.1.29.31.29.55v10.53c0,.39-.26.84-.6,1.02l-5.62,3.25c-.11.06-.2.1-.29.11-.04,0-.07,0-.11,0-.13-.03-.18-.04-.22-.06l-1.61-.93s-.22-.04-.42.07l-2.62,1.51c-.23.13-.44.36-.61.65l-1.59,2.76c-.05.09-.11.17-.18.25-.04.07-.13.14-.26.22l-5.63,3.25c-.12.06-.24.09-.36.09h0ZM39.08,4.2c-.1,0-.23.04-.36.12l-20.31,11.73c-.55.32-1.02,1.13-1.02,1.76v11.87c0,.24.07.42.19.49.12.07.31.04.52-.08l20.3-11.73c.56-.32,1.02-1.13,1.02-1.76V4.73c0-.24-.07-.42-.19-.49-.04-.03-.1-.04-.16-.04h0ZM17.72,30.82c-.17,0-.32-.04-.46-.12-.32-.19-.5-.56-.5-1.02v-11.87c0-.86.58-1.87,1.33-2.3L38.4,3.79c.41-.23.83-.27,1.14-.09.32.19.5.56.5,1.03v11.86c0,.86-.58,1.87-1.32,2.29l-20.31,11.72c-.23.14-.46.2-.68.2Z"/>
      <path class="cls-4" d="M26.42,17.6l-3,1.65c-.32.19-.53.44-.72.76l-1.59,2.76c-.1.16-.17.26-.33.36l-2.39,1.37v3.2l5.15-2.98c.16-.09.23-.2.33-.35l1.53-2.66c.07-.11.13-.22.22-.34.15-.21.35-.4.56-.52l2.62-1.51c.22-.13.5-.21.73-.07l1.6.92c.11.06.22.03.31-.03l5.63-3.25c.11-.07.22-.19.3-.33.08-.14.13-.3.13-.44V6.19l-2.76,1.58v6.8c-.02.3-.18.59-.44.75l-.97.57-4.79,2.76-.04.03-.1-.06-1.64-.94c-.11-.06-.23-.13-.34-.07Z"/>
      <path class="cls-2" d="M26.42,17.6h0,0ZM18.7,24.69v2.48l4.69-2.7c.09-.05.13-.11.22-.25l1.53-2.64c.07-.14.14-.25.22-.37.2-.26.43-.47.67-.61l2.62-1.51c.36-.22.73-.24,1.02-.07l1.61.93,5.63-3.29c.07-.04.14-.12.2-.21.05-.1.09-.21.09-.29V6.71l-2.16,1.23v6.62c-.02.42-.23.8-.57,1.02l-5.78,3.34c-.09.05-.26.08-.36.03l-1.73-1s-.05-.03-.09-.04l-2.96,1.63c-.24.15-.43.34-.61.65l-1.58,2.76c-.11.18-.22.33-.44.46l-2.23,1.29h0ZM18.39,28.01c-.05,0-.1,0-.15-.04-.09-.05-.16-.16-.16-.26v-3.2c0-.1.06-.21.16-.26l2.39-1.38c.09-.05.13-.11.22-.25l1.58-2.75c.24-.4.5-.67.84-.87l3.01-1.66c.26-.14.52,0,.64.07l1.58.92,5.66-3.26c.15-.1.27-.3.28-.51v-6.78c0-.11.06-.22.16-.27l2.77-1.58c.1-.05.21-.05.31,0,.09.05.15.16.15.27v9.97c0,.19-.06.4-.17.59-.1.19-.26.35-.43.45l-5.62,3.24c-.28.16-.5.11-.63.03l-1.6-.93c-.12-.07-.31.02-.42.08l-2.62,1.5c-.16.1-.33.25-.48.44-.07.1-.12.2-.18.3l-1.54,2.66c-.12.18-.22.34-.44.47l-5.16,2.97s-.09.04-.16.04Z"/>
      <path class="cls-3" d="M37.53,6.17v9.99c0,.19-.1.4-.21.55l.91.53c.12-.16.19-.35.21-.55V6.17c-.02-.3-.16-.43-.38-.3l-.53.3Z"/>
      <path class="cls-2" d="M37.74,16.6l.37.21s.02-.09.02-.13V6.17l-.3.17v9.82c0,.14-.03.29-.1.44h0ZM38.24,17.55c-.05,0-.11-.02-.15-.04l-.91-.52c-.08-.04-.13-.12-.15-.21-.02-.09,0-.17.05-.24.09-.11.14-.26.14-.36V6.17c0-.11.06-.21.16-.26l.53-.31c.25-.15.45-.08.54-.03.13.07.29.23.3.59v10.54c0,.28-.11.52-.27.73-.06.08-.15.12-.24.12Z"/>
    </g>
  </g>
</svg>