<?xml version="1.0" encoding="UTF-8"?>
<svg id="Layer_2" data-name="Layer 2" xmlns="http://www.w3.org/2000/svg" viewBox="0 0 39.01 41.34" fill="currentColor">
  <defs>
    <style>
      .cls-1 {
        fill: #fff;
      }

      .cls-1, .cls-2, .cls-3, .cls-4 {
        fill-rule: evenodd;
      }

      .cls-2 {
        fill: #1a87c7;
      }

      .cls-3 {
        fill: #bdedf8;
      }

      .cls-4 {
        fill: #66ceef;
      }
    </style>
  </defs>
  <g id="_Layer_" data-name="&amp;lt;Layer&amp;gt;">
    <g>
      <path class="cls-3" d="M19.08,26.82c-.11.04-.15.07-.25.03l6.24,3.61c.11.03.15.02.26-.03l2.58-1.49-6.24-3.61-2.59,1.49Z"/>
      <path class="cls-2" d="M19.55,26.91l5.61,3.25,2.13-1.23-5.62-3.25-2.12,1.22h0ZM25.16,30.78c-.06,0-.12-.02-.2-.04l-6.29-3.62c-.14-.09-.19-.25-.12-.4.06-.15.24-.22.38-.16h0s2.58-1.49,2.58-1.49c.09-.06.21-.06.3,0l6.25,3.6c.1.06.15.16.15.27s-.05.21-.15.27l-2.59,1.49c-.1.05-.2.1-.31.1Z"/>
      <path class="cls-4" d="M24.61,11c-.03.27-.14.47-.36.63l6.24,3.61c.23-.16.35-.36.36-.64v-2.97l-6.24-3.61v2.98h0ZM24.61,17.23v2.99l6.24,3.6v-2.98c0-.11,0-.18-.11-.23l-6.24-3.61c.09.07.1.12.1.23h0Z"/>
      <path class="cls-2" d="M24.61,11h0,0ZM24.74,11.56l5.71,3.29c.05-.07.09-.16.1-.27v-2.78l-5.63-3.24v2.47c-.02.2-.07.37-.17.53h0ZM30.49,15.54c-.05,0-.1,0-.15-.03l-6.25-3.61c-.09-.05-.15-.15-.15-.25-.01-.1.04-.21.13-.27.15-.1.22-.22.23-.39v-2.96c0-.1.05-.21.15-.26.1-.06.22-.06.31,0l6.24,3.6c.09.06.15.16.15.27v2.97c-.03.39-.19.68-.5.89-.05.03-.11.05-.18.05h0ZM24.92,20.04l5.63,3.25v-2.45l-5.63-3.25v2.45h0ZM30.85,24.13c-.05,0-.11-.02-.15-.04l-6.25-3.61c-.09-.05-.15-.16-.15-.26v-3.02c-.13-.1-.16-.27-.06-.4.09-.13.27-.16.41-.08l6.25,3.61c.22.13.24.33.25.44v3.04c0,.11-.05.22-.15.27-.05.03-.11.04-.16.04Z"/>
      <path class="cls-3" d="M30.49,15.23l-6.24-3.61-5.17,2.99c-.11.04-.15.06-.25.03l6.24,3.6c.11.04.15.03.26-.03l5.16-2.98Z"/>
      <path class="cls-2" d="M19.55,14.7l5.62,3.24,4.7-2.71-5.62-3.25-4.7,2.72h0ZM25.17,18.57c-.07,0-.13,0-.22-.03l-6.28-3.63c-.14-.08-.19-.25-.12-.4.07-.14.24-.21.38-.16l5.16-2.98c.1-.06.22-.06.31,0l6.24,3.6c.1.06.16.16.16.27s-.06.21-.16.27l-5.17,2.98c-.1.04-.18.09-.31.09Z"/>
      <path class="cls-4" d="M14.04,29.31c-.03.28-.14.48-.36.64l6.24,3.6c.23-.16.35-.36.36-.62v-5.97c0-.11-.02-.17-.1-.23l-6.25-3.61c.09.08.11.12.11.24v5.97h0ZM14.04,17.1c-.03.27-.14.47-.36.63l6.24,3.61c.23-.16.35-.36.36-.62v-5.96c0-.11-.02-.17-.1-.23l-6.25-3.61c.09.08.11.12.11.23v5.96Z"/>
      <path class="cls-2" d="M14.04,17.1h0,0ZM14.17,17.66l5.71,3.3c.05-.08.09-.17.1-.28v-5.94l-5.63-3.25v5.63c-.02.2-.08.38-.17.53h0ZM19.92,21.65c-.05,0-.11-.02-.16-.04l-6.24-3.61c-.09-.05-.15-.15-.16-.25,0-.1.05-.21.14-.27.15-.1.21-.22.23-.39v-5.95c-.12-.1-.14-.28-.05-.41.09-.14.27-.17.41-.09l6.25,3.61c.23.18.24.34.25.48v5.99c-.03.38-.19.67-.5.88-.05.03-.11.06-.17.06h0ZM14.04,29.31h0,0ZM14.17,29.87l5.71,3.29c.05-.08.09-.16.1-.28v-5.94l-5.63-3.25v5.64c-.02.21-.08.38-.17.54h0ZM19.92,33.85c-.05,0-.11-.02-.16-.04l-6.24-3.61c-.09-.05-.15-.15-.16-.25,0-.1.05-.21.14-.26.15-.1.21-.22.23-.39v-5.96c-.12-.1-.15-.28-.05-.41.09-.13.27-.17.41-.1l6.25,3.61c.23.18.24.34.25.48v6c-.03.39-.19.67-.5.89-.05.04-.11.05-.17.05Z"/>
      <path class="cls-3" d="M19.92,21.33l-6.24-3.61-5.16,2.98c-.11.05-.15.07-.26.03l6.25,3.61c.11.04.15.02.25-.03l5.16-2.98Z"/>
      <path class="cls-2" d="M8.98,20.8l5.62,3.25,4.7-2.71-5.62-3.25-4.7,2.71h0ZM14.6,24.67c-.06,0-.13-.02-.21-.04l-6.29-3.62c-.14-.08-.2-.25-.13-.4.07-.15.24-.22.39-.16l5.15-2.98c.1-.06.22-.06.31,0l6.24,3.6c.1.06.16.16.16.27s-.06.21-.16.27l-5.16,2.98c-.1.04-.19.09-.31.09Z"/>
      <polygon class="cls-3" points="19.92 33.54 13.68 29.94 11.1 31.43 17.35 35.03 19.92 33.54"/>
      <path class="cls-2" d="M11.71,31.43l5.63,3.25,1.95-1.14-5.62-3.24-1.96,1.13h0ZM17.35,35.34c-.05,0-.1-.02-.16-.04l-6.24-3.6c-.09-.06-.16-.16-.16-.27s.06-.21.16-.27l2.57-1.49c.1-.05.22-.05.31,0l6.24,3.61c.1.05.16.16.16.26,0,.11-.06.22-.16.27l-2.58,1.49s-.09.04-.15.04Z"/>
      <polygon class="cls-4" points="17.35 35.03 11.1 31.43 16.38 37.43 22.62 41.04 17.35 35.03"/>
      <path class="cls-2" d="M16.58,37.2l4.58,2.64-4.02-4.57-4.58-2.64,4.02,4.57h0ZM22.62,41.34c-.05,0-.1,0-.15-.04l-6.25-3.61s-.05-.03-.08-.06l-5.28-6.01c-.11-.11-.11-.28,0-.4.09-.11.26-.14.39-.07l6.24,3.61s.06.03.08.06l5.28,6.01c.09.11.1.28,0,.39-.06.08-.15.11-.24.11Z"/>
      <polygon class="cls-3" points="14.39 21.13 8.15 17.53 .31 28.16 6.55 31.76 14.39 21.13"/>
      <path class="cls-2" d="M.76,28.06l5.7,3.29,7.47-10.13-5.7-3.3L.76,28.06h0ZM6.55,32.07c-.05,0-.11-.02-.16-.04L.15,28.42c-.08-.04-.13-.11-.15-.2-.02-.09,0-.17.05-.24l7.85-10.63c.09-.13.26-.16.4-.09l6.24,3.61c.08.04.13.11.15.2.02.09,0,.17-.05.24l-7.85,10.63c-.06.09-.15.13-.24.13Z"/>
      <polygon class="cls-3" points="38.7 13.2 32.46 9.59 24.61 8.02 30.85 11.63 38.7 13.2"/>
      <path class="cls-2" d="M30.97,11.33l5.96,1.2-4.58-2.65-5.96-1.19,4.58,2.64h0ZM38.7,13.5s-.04,0-.06,0l-7.85-1.57s-.06-.02-.09-.03l-6.25-3.61c-.13-.08-.18-.23-.13-.37.05-.14.19-.23.35-.19l7.84,1.56s.07.02.09.03l6.24,3.61c.14.08.19.23.14.37-.05.12-.16.2-.29.2Z"/>
      <polygon class="cls-3" points="22.62 3.92 16.38 .31 11.1 12.42 17.35 16.02 22.62 3.92"/>
      <path class="cls-2" d="M11.5,12.29l5.7,3.29,5.03-11.53-5.7-3.29-5.03,11.53h0ZM17.35,16.33c-.05,0-.12,0-.16-.04l-6.24-3.6c-.14-.08-.19-.25-.13-.39L16.1.19c.03-.08.1-.14.18-.17.09-.03.17-.02.25.03l6.24,3.61c.14.08.19.24.13.39l-5.28,12.11c-.03.08-.1.14-.18.17-.03.02-.07.02-.09.02Z"/>
      <path class="cls-1" d="M24.96,18.01v-5.95c0-.23.16-.52.36-.63l2.58-1.5-5.28-6.01-5.27,12.11,2.57-1.49c.2-.12.36-.03.36.21v5.96c0,.23-.17.51-.36.62l-5.16,2.98c-.2.11-.36.02-.36-.21v-2.98l-7.84,10.63,7.84,1.57v-2.99c0-.23.16-.51.36-.62l5.16-2.98c.2-.12.36-.03.36.21v5.97c0,.23-.17.51-.36.62l-2.57,1.5,5.27,6.01,5.28-12.11-2.58,1.49c-.21.11-.36.02-.36-.21v-5.97c0-.24.16-.52.36-.63l5.16-2.98c.21-.12.36-.03.36.21v2.98l7.85-10.62-7.85-1.57v2.97c0,.24-.16.52-.36.64l-5.16,2.98c-.21.12-.36.03-.36-.21Z"/>
      <path class="cls-2" d="M25.26,18.03h0,0ZM17.82,35.11l4.71,5.36,4.72-10.81-1.78,1.03c-.19.11-.39.12-.57.03-.17-.1-.26-.28-.26-.5v-5.97c0-.35.23-.73.52-.9l5.17-2.98c.19-.11.4-.12.57-.03.17.1.26.28.26.5v2.05l7-9.49-7-1.4v2.6c0,.35-.23.73-.52.9l-5.17,2.98c-.19.11-.39.12-.57.03-.17-.1-.26-.28-.26-.5v-5.95c0-.35.23-.73.52-.9l2.26-1.3-4.71-5.36-4.72,10.8,1.77-1.02c.2-.11.41-.12.57-.03.17.1.26.28.26.5v5.96c0,.34-.23.72-.52.9l-5.16,2.98c-.19.11-.4.12-.56.03-.17-.1-.26-.29-.26-.5v-2.04l-7,9.48,7,1.4v-2.61c0-.34.23-.72.52-.9l5.15-2.98c.2-.11.4-.12.57-.03.17.1.26.28.26.5v5.97c0,.34-.23.72-.52.9l-2.25,1.3h0ZM22.62,41.34c-.09,0-.17-.04-.23-.1l-5.28-6.01c-.06-.07-.09-.16-.07-.25.02-.09.07-.17.15-.22l2.57-1.49c.11-.06.22-.24.22-.36v-5.86l-5.07,2.92c-.1.06-.21.24-.21.37v2.99c0,.09-.04.17-.11.23-.07.06-.17.09-.26.06l-7.84-1.56c-.1-.02-.19-.1-.22-.19-.04-.1-.03-.21.03-.3l7.85-10.63c.08-.1.22-.15.34-.1.13.04.22.16.22.29v2.87l5.06-2.93c.11-.06.22-.23.22-.36v-5.85l-2.49,1.43c-.11.07-.26.05-.36-.03-.09-.09-.13-.23-.08-.35l5.29-12.11c.04-.1.13-.16.23-.18.1-.02.21.02.28.09l5.28,6.02c.06.07.09.16.07.25-.02.09-.07.17-.15.22l-2.59,1.5c-.1.06-.21.23-.21.36v5.84l5.07-2.93c.11-.06.21-.24.21-.37v-2.97c0-.1.04-.18.11-.23.07-.06.16-.09.25-.07l7.85,1.57c.1.02.19.1.22.19.03.1.03.21-.05.3l-7.84,10.62c-.08.11-.22.16-.35.11-.12-.04-.21-.16-.21-.3v-2.87l-5.08,2.93c-.1.06-.21.23-.21.37v5.85l2.49-1.43c.11-.06.26-.05.36.04.1.09.13.23.08.35l-5.28,12.11c-.04.1-.13.17-.24.18h-.05Z"/>
    </g>
  </g>
</svg>