<?xml version="1.0" encoding="UTF-8"?>
<svg id="Layer_2" data-name="Layer 2" xmlns="http://www.w3.org/2000/svg" viewBox="0 0 32.24 40.71" fill="currentColor">
  <defs>
    <style>
      .cls-1 {
        fill: #fff;
      }

      .cls-1, .cls-2, .cls-3, .cls-4 {
        fill-rule: evenodd;
      }

      .cls-2 {
        fill: #1a87c7;
      }

      .cls-3 {
        fill: #bdedf8;
      }

      .cls-4 {
        fill: #66ceef;
      }
    </style>
  </defs>
  <g id="_Layer_" data-name="&amp;lt;Layer&amp;gt;">
    <g>
      <path class="cls-4" d="M14.93.9C10.48,6.91,4.14,12.98,1.57,19.14c-.86,2.07-1.27,4.15-1.27,6.15,0,3.05.93,5.92,2.56,8.33,1.63,2.4,3.98,4.35,6.81,5.53,1.94.81,4.12,1.26,6.44,1.26s4.5-.45,6.45-1.26c2.82-1.18,5.17-3.13,6.8-5.53,1.63-2.41,2.56-5.28,2.56-8.33,0-2-.4-4.08-1.27-6.15-2.57-6.16-8.91-12.23-13.36-18.23-.29-.39-.7-.6-1.19-.6s-.9.21-1.19.6Z"/>
      <path class="cls-2" d="M15.18,1.09c-1.45,1.97-3.12,3.95-4.74,5.88C7.06,10.99,3.58,15.14,1.86,19.25c-.82,1.97-1.24,4.01-1.24,6.03,0,2.92.87,5.74,2.51,8.15,1.63,2.4,3.94,4.28,6.67,5.41,1.97.83,4.1,1.24,6.33,1.24s4.36-.42,6.33-1.24c2.73-1.14,5.04-3.02,6.67-5.41,1.64-2.42,2.51-5.23,2.51-8.15,0-2.03-.42-4.06-1.24-6.03-1.72-4.11-5.2-8.27-8.58-12.28-1.62-1.93-3.3-3.92-4.75-5.88-.46-.62-1.42-.62-1.89,0h0ZM16.12,40.71c-2.31,0-4.52-.43-6.56-1.29-2.84-1.18-5.25-3.14-6.94-5.63-1.71-2.52-2.61-5.46-2.61-8.5,0-2.11.43-4.22,1.29-6.27,1.76-4.2,5.27-8.39,8.67-12.44,1.61-1.92,3.28-3.91,4.72-5.86h0c.35-.47.86-.72,1.44-.72s1.09.25,1.44.72c1.44,1.95,3.11,3.94,4.72,5.86,3.4,4.05,6.92,8.24,8.67,12.44.85,2.05,1.29,4.16,1.29,6.27,0,3.04-.9,5.98-2.61,8.5-1.7,2.49-4.1,4.45-6.94,5.63-2.05.86-4.26,1.29-6.57,1.29Z"/>
      <path class="cls-3" d="M15.06,1.42c-3.64,6.93-10.98,16.74-10.98,22.74,0,2.65.81,5.15,2.23,7.25,1.43,2.1,3.47,3.79,5.93,4.82,1.69.71,3.59,1.1,5.61,1.1s3.93-.4,5.62-1.1c2.46-1.02,4.51-2.72,5.93-4.82,1.42-2.09,2.23-4.6,2.23-7.25,0-1.75-.35-3.57-1.1-5.36-2.37-5.67-8.65-11.83-12.98-17.57-.31-.42-.78-.63-1.3-.59-.52.04-.95.32-1.19.78Z"/>
      <path class="cls-2" d="M15.06,1.42h0,0ZM16.37.94h-.1c-.41.04-.75.25-.94.63h0c-1.02,1.94-2.32,4.08-3.68,6.35-3.4,5.62-7.26,12-7.26,16.25,0,2.53.75,4.98,2.18,7.07,1.41,2.09,3.42,3.71,5.79,4.7,1.72.72,3.57,1.09,5.5,1.09s3.79-.36,5.5-1.09c2.37-.99,4.38-2.62,5.8-4.7,1.43-2.1,2.18-4.55,2.18-7.07,0-1.77-.36-3.53-1.08-5.24-1.6-3.85-5.09-7.99-8.46-11.99-1.54-1.82-3.12-3.7-4.49-5.51-.23-.3-.56-.47-.93-.47h0ZM17.85,37.62c-2.01,0-3.94-.37-5.73-1.12-2.48-1.04-4.58-2.75-6.07-4.93-1.5-2.2-2.28-4.77-2.28-7.42,0-4.41,3.91-10.86,7.35-16.57,1.37-2.25,2.65-4.39,3.67-6.31.29-.56.81-.9,1.44-.95.61-.05,1.19.2,1.57.7,1.35,1.8,2.94,3.68,4.46,5.49,3.4,4.03,6.91,8.21,8.55,12.14.75,1.79,1.13,3.63,1.13,5.49,0,2.65-.79,5.22-2.28,7.42-1.48,2.18-3.58,3.89-6.07,4.93-1.79.75-3.72,1.12-5.74,1.12Z"/>
      <path class="cls-1" d="M27.69,15.65c-3.92-5.16-9.93-3.49-9.93,2.79,0,3.72,3.02,6.74,6.74,6.74,6.1,0,5.94-5.92,3.19-9.53Z"/>
      <path class="cls-2" d="M22.46,12.89c-.45,0-.89.08-1.32.22-1.92.65-3.07,2.64-3.07,5.33,0,3.55,2.88,6.43,6.43,6.43,2.1,0,3.57-.74,4.27-2.14.91-1.84.37-4.67-1.32-6.9h0c-1.44-1.88-3.26-2.94-4.99-2.94h0ZM24.5,25.48c-3.89,0-7.05-3.15-7.05-7.04,0-2.96,1.3-5.17,3.49-5.91,2.34-.79,5.02.34,6.99,2.93h0c1.83,2.4,2.4,5.51,1.39,7.55-.56,1.13-1.85,2.47-4.82,2.47Z"/>
    </g>
  </g>
</svg>