<?xml version="1.0" encoding="UTF-8"?>
<svg id="Layer_2" data-name="Layer 2" xmlns="http://www.w3.org/2000/svg" viewBox="0 0 22.22 43.39" fill="currentColor">
  <defs>
    <style>
      .cls-1 {
        fill: #1a87c7;
      }

      .cls-1, .cls-2, .cls-3 {
        fill-rule: evenodd;
      }

      .cls-2 {
        fill: #bdedf8;
      }

      .cls-3 {
        fill: #66ceef;
      }
    </style>
  </defs>
  <g id="_Layer_" data-name="&amp;lt;Layer&amp;gt;">
    <g>
      <path class="cls-3" d="M11.49,17.52c-.1.03-.14.03-.24-.02l2.58,1.49c.1.05.14.05.24.01,1.77-.62,3.36-.78,5.06.13l-2.58-1.49c-.71-.37-1.22-.52-2.02-.61-1.15-.06-1.96.1-3.04.48Z"/>
      <path class="cls-1" d="M12.09,17.64l1.89,1.09c1.08-.39,2.02-.57,2.91-.53l-.49-.29c-.65-.35-1.11-.49-1.9-.57-.93-.05-1.63.07-2.4.3h0ZM19.13,19.44s-.1,0-.15-.03c-1.42-.76-2.86-.79-4.81-.11-.15.05-.29.07-.48-.03l-2.59-1.49c-.15-.08-.2-.27-.11-.42.08-.14.26-.2.41-.12h0c1.03-.37,1.91-.57,3.16-.51.88.11,1.42.26,2.15.65l2.59,1.5c.15.09.2.27.12.42-.06.1-.16.15-.27.15Z"/>
      <path class="cls-3" d="M7.2,38.12c-.89.06-1.44-.02-2.23-.43,2.86,1.64,4.56,3.25,8.45.33,5.12-3.84,8.05-13.06,3.82-15.63l-2.58-1.49c5.2,3.3-.47,16.29-7.46,17.21Z"/>
      <path class="cls-1" d="M7.2,38.12h0,0ZM6.86,38.45c1.92,1.08,3.48,1.5,6.37-.67,3.34-2.51,5.9-7.64,5.71-11.43-.06-1.2-.43-2.82-1.87-3.69l-.81-.47c.76,1.37.93,3.28.44,5.51-1.04,4.68-4.95,10.12-9.47,10.72,0,0-.01,0-.02,0-.13,0-.24,0-.36.02h0ZM9.56,39.95c-1.41,0-2.59-.71-3.93-1.51-.26-.16-.53-.32-.81-.48-.15-.08-.2-.27-.12-.42.08-.15.26-.2.41-.12.69.36,1.17.46,2.05.4,4.25-.57,7.95-5.76,8.94-10.24.66-3,.08-5.33-1.61-6.4-.14-.1-.19-.28-.1-.42.09-.15.27-.19.42-.12l2.58,1.5c1.33.8,2.07,2.24,2.17,4.18.2,4.04-2.42,9.29-5.96,11.95-1.63,1.23-2.91,1.68-4.04,1.68Z"/>
      <path class="cls-3" d="M8.49,8.58v10.23c-.02.27-.13.46-.32.63-1.38,1.11-2.46,2.24-3.53,3.65-1.06,1.42-1.88,2.82-2.63,4.46-.89,2.02-1.47,4.01-1.66,6.21-.1,1.55-.01,2.94.52,4.41.49,1.24,1.1,2.05,2.23,2.77l2.58,1.49c-1.25-.79-1.9-1.74-2.37-3.18l-.07-.22c-.59-2.23-.37-4.49.19-6.7.66-2.5,1.71-4.7,3.13-6.84,1.22-1.77,2.51-3.22,4.19-4.57.2-.17.3-.36.32-.63v-10.78c-.01-.12-.02-.17-.12-.25l-2.15-1.24,3.6-6.23-2.58-1.49L.4,16.62l2.58,1.5,5.5-9.53Z"/>
      <path class="cls-1" d="M8.49,8.26s.05.01.08.02c.14.03.23.15.23.3v10.23c-.03.36-.16.63-.43.86-1.34,1.09-2.41,2.19-3.49,3.6-1.04,1.4-1.86,2.8-2.59,4.41-.94,2.15-1.46,4.09-1.63,6.11-.11,1.71.03,3,.5,4.28.48,1.23,1.08,1.97,2.11,2.62l.48.28c-.29-.46-.53-.99-.74-1.62l-.07-.23c-.53-2.01-.47-4.26.18-6.86.65-2.43,1.68-4.7,3.18-6.95,1.28-1.87,2.6-3.29,4.26-4.63.14-.12.2-.24.21-.42v-10.75l-2.11-1.23c-.15-.08-.2-.27-.11-.42l3.44-5.96-2.05-1.18L.82,16.5l2.05,1.18,5.35-9.26c.06-.1.16-.16.27-.16h0ZM5.67,42.75c-.05,0-.1-.02-.15-.05l-2.58-1.49c-1.15-.73-1.83-1.57-2.36-2.93-.49-1.36-.66-2.76-.54-4.55.18-2.1.71-4.09,1.68-6.31.75-1.65,1.6-3.09,2.66-4.53,1.11-1.45,2.22-2.6,3.59-3.7.13-.12.2-.23.21-.41v-9.07s-4.93,8.55-4.93,8.55c-.04.07-.11.12-.19.14-.08.03-.16,0-.23-.03l-2.58-1.5c-.15-.09-.2-.27-.11-.42L9.55.16c.08-.15.27-.2.42-.11l2.58,1.49c.07.04.12.11.14.19.02.08.01.16-.03.24l-3.44,5.96,1.88,1.08c.24.19.25.35.27.5v10.8c-.02.36-.16.63-.43.86-1.62,1.3-2.89,2.7-4.14,4.51-1.45,2.18-2.46,4.39-3.09,6.75-.63,2.49-.69,4.63-.18,6.54l.06.21c.47,1.44,1.1,2.29,2.25,3.01.14.1.19.28.1.42-.06.1-.16.15-.26.15Z"/>
      <path class="cls-3" d="M8.45,19.02l2.58,1.5c.02-.08.03-.13.04-.21v-10.78c-.01-.12-.02-.17-.12-.25l-2.11-1.23-.35,5.49v5.27c0,.08-.01.14-.04.21Z"/>
      <path class="cls-1" d="M8.79,18.86l1.97,1.14v-10.47l-1.65-.96-.32,4.99v5.25s0,.03,0,.05h0ZM11.03,20.82c-.06,0-.11-.01-.15-.04l-2.58-1.49c-.13-.07-.18-.22-.14-.36.01-.05.02-.08.02-.14v-5.25s.35-5.51.35-5.51c0-.11.07-.2.16-.25.09-.05.21-.05.3,0l2.11,1.23c.24.19.25.35.27.5v10.8c0,.11-.02.19-.05.3-.03.09-.1.16-.18.19-.03.02-.07.02-.11.02Z"/>
      <path class="cls-2" d="M15.02,21.97c.84-.09,1.6.06,2.23.43.63.36,1.14.95,1.49,1.71.34.74.52,1.66.52,2.73s-.19,2.19-.52,3.32c-.35,1.17-.86,2.34-1.49,3.42-.63,1.09-1.39,2.12-2.23,3.01-.81.85-1.69,1.57-2.62,2.11-.93.53-1.81.83-2.62.91-.84.08-1.6-.07-2.23-.43-.63-.36-1.14-.94-1.49-1.71-.33-.74-.52-1.65-.52-2.72,0-.97.15-2.01.44-3.03.29-1.07.72-2.14,1.26-3.16.54-1.02,1.18-1.99,1.91-2.86.7-.84,1.48-1.59,2.29-2.19.02-.02.03-.03.05-.03l.86-.57s.03-.03.05-.03l.03-.02c.91-.52,1.78-.81,2.58-.89h0ZM11.07,9.52v10.78c0,.21-.13.48-.32.63-1.08.84-2.1,1.86-3.02,2.99-.94,1.16-1.78,2.43-2.49,3.78-.75,1.42-1.34,2.89-1.75,4.38-.39,1.42-.61,2.84-.61,4.21,0,1.49.26,2.76.72,3.78.48,1.07,1.19,1.87,2.06,2.37.88.51,1.93.72,3.09.61,1.12-.11,2.35-.53,3.64-1.27,1.29-.75,2.52-1.76,3.64-2.94,1.16-1.22,2.21-2.64,3.09-4.16.88-1.52,1.59-3.15,2.07-4.76.46-1.56.72-3.13.72-4.62s-.26-2.76-.72-3.79c-.48-1.07-1.19-1.87-2.07-2.37-.68-.39-1.47-.61-2.34-.64-.84-.02-1.76.15-2.72.51-.19.08-.33-.03-.33-.25V7.99c0-.4.42-.85.67-.7l5.54,3.2,1.87-3.24L12.4,1.8,2.98,18.11l1.87,1.08,5.54-9.6c.24-.42.67-.47.67-.06h0Z"/>
      <path class="cls-1" d="M15.05,22.28c-.78.08-1.61.36-2.46.85,0,0-.07.03-.07.04l-.86.56c-.82.6-1.57,1.32-2.27,2.16-.71.85-1.34,1.8-1.87,2.81-.53,1.01-.95,2.05-1.23,3.08-.28,1.03-.43,2.03-.43,2.96,0,1,.17,1.87.49,2.59.32.71.78,1.23,1.36,1.57.58.34,1.27.47,2.04.4.79-.09,1.63-.37,2.5-.88.88-.5,1.73-1.2,2.55-2.05.82-.87,1.55-1.86,2.18-2.94.63-1.09,1.12-2.22,1.46-3.36.34-1.13.51-2.22.51-3.24s-.17-1.88-.49-2.6c-.32-.7-.78-1.23-1.36-1.57-.58-.34-1.27-.47-2.04-.39h0ZM9.33,39.95c-.71,0-1.36-.17-1.93-.5-.7-.41-1.24-1.03-1.62-1.85-.36-.81-.55-1.77-.55-2.85,0-.98.15-2.04.45-3.11.29-1.09.73-2.16,1.28-3.22.55-1.05,1.21-2.03,1.94-2.92.73-.88,1.52-1.63,2.35-2.24,0,0,.06-.04.06-.04l.86-.56s.06-.04.07-.04c.96-.56,1.88-.87,2.74-.96h0c.91-.09,1.72.07,2.41.48.7.4,1.24,1.02,1.61,1.85.36.8.55,1.75.55,2.85s-.18,2.22-.53,3.41c-.36,1.19-.87,2.37-1.52,3.49-.65,1.13-1.42,2.16-2.27,3.06-.85.91-1.76,1.63-2.69,2.17-.94.54-1.86.86-2.74.95-.16.02-.32.03-.48.03h0ZM10.85,8.93c-.26,0-.54.19-.72.51l-5.39,9.34-1.34-.77L12.51,2.21l8.88,5.14-1.57,2.71-5.28-3.05c-.17-.1-.38-.09-.58.03-.31.18-.55.58-.55.95v10.77c0,.22.09.4.24.51.15.09.34.11.51.03.91-.34,1.8-.5,2.61-.48.81.02,1.55.22,2.19.59.84.48,1.49,1.23,1.94,2.22.46,1.02.69,2.25.69,3.67s-.24,2.95-.7,4.53c-.47,1.59-1.16,3.16-2.04,4.69-.88,1.52-1.9,2.91-3.04,4.11-1.13,1.19-2.33,2.17-3.57,2.88-1.23.7-2.41,1.12-3.52,1.24-1.09.1-2.07-.09-2.91-.57-.83-.49-1.49-1.23-1.94-2.23-.46-1.02-.69-2.25-.69-3.66,0-1.31.2-2.7.59-4.13.4-1.45.98-2.9,1.72-4.32.7-1.33,1.53-2.59,2.46-3.73.93-1.13,1.92-2.12,2.97-2.94.26-.2.44-.56.44-.87v-10.78c0-.35-.2-.52-.39-.57-.05,0-.09-.02-.14-.02h0ZM8.14,43.39c-.97,0-1.85-.22-2.63-.68-.95-.55-1.69-1.39-2.2-2.51-.49-1.09-.75-2.42-.75-3.91,0-1.36.21-2.8.62-4.29.41-1.49,1.01-2.98,1.77-4.44.72-1.38,1.57-2.66,2.53-3.83.95-1.17,1.98-2.19,3.06-3.03.12-.1.21-.28.21-.38v-10.68s-.06.07-.09.12l-5.54,9.6c-.04.07-.11.12-.19.15-.08.02-.16.01-.23-.03l-1.87-1.08c-.15-.09-.2-.28-.11-.43L12.13,1.64c.08-.15.27-.19.42-.11l9.42,5.44c.15.09.2.27.11.42l-1.87,3.25c-.04.07-.11.12-.19.14-.08.03-.16.02-.23-.03l-5.54-3.21s-.21.25-.21.44v10.71c.97-.36,1.9-.51,2.76-.5.91.02,1.75.24,2.48.67.95.55,1.69,1.4,2.2,2.51.49,1.1.75,2.42.75,3.92s-.25,3.07-.73,4.7c-.48,1.63-1.19,3.26-2.09,4.82-.91,1.57-1.96,2.99-3.13,4.23-1.17,1.23-2.42,2.24-3.71,2.98-1.3.75-2.57,1.19-3.76,1.31-.22.03-.44.03-.65.03Z"/>
    </g>
  </g>
</svg>