<?xml version="1.0" encoding="UTF-8"?>
<svg id="Layer_2" data-name="Layer 2" xmlns="http://www.w3.org/2000/svg" viewBox="0 0 40.74 43.03" fill="currentColor">
  <defs>
    <style>
      .cls-1 {
        fill: #fff;
      }

      .cls-1, .cls-2, .cls-3, .cls-4 {
        fill-rule: evenodd;
      }

      .cls-2 {
        fill: #1a87c7;
      }

      .cls-3 {
        fill: #bdedf8;
      }

      .cls-4 {
        fill: #66ceef;
      }
    </style>
  </defs>
  <g id="_Layer_" data-name="&amp;lt;Layer&amp;gt;">
    <g>
      <polygon class="cls-4" points="25.85 10.79 23.74 9.57 4.69 20.56 6.81 21.78 25.85 10.79"/>
      <path class="cls-2" d="M5.31,20.56l1.5.86,18.44-10.63-1.5-.86L5.31,20.56h0ZM6.81,22.09c-.05,0-.1-.01-.15-.04l-2.11-1.22c-.1-.06-.16-.16-.16-.27s.06-.21.16-.27l19.04-10.99c.1-.05.22-.05.31,0l2.11,1.22c.09.05.15.16.15.26s-.06.21-.15.27L6.96,22.05s-.1.04-.15.04Z"/>
      <polygon class="cls-4" points="7.51 10.85 9.64 12.07 9.64 20.15 7.51 18.93 7.51 10.85"/>
      <path class="cls-2" d="M7.83,18.75l1.5.86v-7.37l-1.5-.86v7.37h0ZM9.64,20.46c-.06,0-.12-.02-.16-.04l-2.11-1.22c-.1-.06-.16-.16-.16-.27v-8.08c0-.11.06-.21.16-.27.09-.05.21-.05.3,0l2.11,1.22c.09.05.16.16.16.27v8.08c0,.11-.06.21-.16.27-.04.03-.09.04-.15.04Z"/>
      <polygon class="cls-4" points="23.83 3.88 21.72 2.66 7.51 10.85 9.64 12.07 23.83 3.88"/>
      <path class="cls-2" d="M8.13,10.85l1.51.86,13.57-7.83-1.49-.86-13.59,7.83h0ZM9.64,12.38c-.06,0-.12-.01-.16-.04l-2.11-1.22c-.1-.06-.16-.16-.16-.27s.06-.21.16-.27L21.56,2.39c.1-.06.21-.06.3,0l2.12,1.22c.09.06.15.16.15.27s-.05.21-.15.27l-14.2,8.19s-.09.04-.15.04Z"/>
      <polygon class="cls-4" points="9.63 21.94 23.83 13.76 23.83 3.88 9.64 12.07 9.63 21.94"/>
      <path class="cls-2" d="M9.94,12.25v9.16l13.57-7.83V4.41l-13.57,7.83h0ZM9.63,22.25c-.05,0-.11-.01-.15-.04-.1-.06-.16-.16-.16-.27v-9.87c0-.11.06-.21.16-.27L23.67,3.61c.1-.05.22-.05.31,0,.09.06.15.16.15.27v9.88c0,.11-.05.21-.15.27l-14.19,8.19s-.09.04-.16.04Z"/>
      <polygon class="cls-4" points="17.48 30.77 5.12 23.64 23.27 13.18 35.62 20.31 17.48 30.77"/>
      <path class="cls-2" d="M5.74,23.64l11.73,6.78,17.53-10.11-11.73-6.77L5.74,23.64h0ZM17.48,31.08c-.05,0-.1-.01-.15-.04l-12.35-7.13c-.09-.06-.16-.16-.16-.27s.06-.21.16-.27l18.14-10.46c.09-.05.21-.05.3,0l12.35,7.13c.1.06.16.16.16.27s-.06.21-.16.27l-18.14,10.46s-.11.04-.16.04Z"/>
      <polygon class="cls-4" points="35.62 20.31 23.27 13.18 23.72 12.92 36.08 20.05 35.62 20.31"/>
      <path class="cls-2" d="M35.62,20.62c-.06,0-.11-.02-.16-.04l-12.35-7.13c-.09-.05-.16-.15-.16-.26s.06-.21.16-.27l.45-.26c.09-.06.22-.06.31,0l12.34,7.13c.11.05.16.15.16.26s-.05.21-.16.27l-.45.26s-.09.04-.15.04Z"/>
      <polygon class="cls-4" points="36.08 20.05 23.72 12.92 23.72 9.59 36.08 16.72 36.08 20.05"/>
      <path class="cls-2" d="M24.03,12.74l11.74,6.78v-2.62l-11.74-6.77v2.61h0ZM36.08,20.36s-.1-.02-.16-.04l-12.35-7.13c-.1-.06-.16-.16-.16-.27v-3.32c0-.11.06-.21.16-.27.09-.06.22-.06.31,0l12.35,7.13c.1.06.15.16.15.27v3.32c0,.11-.05.21-.16.27-.04.03-.1.04-.15.04Z"/>
      <path class="cls-3" d="M36.08,16.72l-12.35-7.13c.7-.58,2.2-.43,2.98-.07l12.35,7.13c-.97-.46-1.71-.4-2.72-.09-.11.04-.17.09-.26.16Z"/>
      <path class="cls-2" d="M24.37,9.61l11.69,6.75c.05-.03.11-.06.17-.08.39-.12.76-.21,1.12-.24l-10.8-6.24c-.58-.27-1.54-.37-2.18-.19h0ZM36.08,17.03s-.1-.01-.16-.04l-12.35-7.13c-.09-.05-.14-.14-.15-.24,0-.1.03-.2.1-.26.83-.68,2.48-.5,3.31-.1l12.37,7.14c.15.08.2.27.12.41-.08.15-.25.21-.4.14-.92-.43-1.58-.36-2.49-.08-.05.02-.09.04-.15.1-.06.05-.13.07-.2.07Z"/>
      <polygon class="cls-4" points="17.02 31.04 4.67 23.91 5.12 23.64 17.48 30.77 17.02 31.04"/>
      <path class="cls-2" d="M17.02,31.34c-.05,0-.1-.01-.15-.04l-12.34-7.13c-.11-.05-.16-.15-.16-.26s.05-.21.16-.27l.45-.26c.1-.06.21-.06.31,0l12.35,7.13c.09.06.15.16.15.27s-.06.21-.15.27l-.45.26c-.05.03-.11.04-.16.04Z"/>
      <path class="cls-3" d="M17.48,30.77l18.15-10.46.45-.26v-3.32c.09-.07.18-.13.26-.16,1.78-.63,4.09-.16,4.09,3.11v5.64c0,1.24-.88,2.76-1.95,3.37l-23.88,13.77c-1.07.62-1.95.11-1.95-1.13v-5.63c0-2.98,1.97-6.25,4.12-7.87.07-.05.36-.18.24-.12v3.33l.45-.26Z"/>
      <path class="cls-2" d="M17.48,30.77h0,0ZM16.72,28.27c-1.86,1.53-3.74,4.56-3.74,7.43v5.63c-.01.48.15.84.41.99.27.16.64.11,1.06-.13l23.87-13.77c.97-.56,1.8-1.98,1.8-3.11v-5.64c0-1.26-.35-2.15-1.04-2.64-.66-.47-1.65-.54-2.64-.19-.02,0-.04.01-.06.03v3.16c0,.11-.05.21-.16.27l-18.59,10.73h0l-.45.26c-.09.05-.22.05-.31,0-.1-.06-.15-.16-.15-.27v-2.77h0ZM13.75,43.03c-.24,0-.47-.06-.67-.17-.47-.27-.72-.81-.72-1.53v-5.63c0-3.23,2.13-6.53,4.24-8.12.11-.08.38-.26.58-.17.1.05.17.15.18.27,0,.04-.01.08-.03.12v2.71l18.43-10.63v-3.14c0-.09.04-.18.11-.24.11-.1.24-.17.36-.22,1.18-.42,2.38-.32,3.21.27.59.42,1.3,1.3,1.3,3.14v5.64c0,1.34-.95,2.97-2.11,3.64l-23.87,13.77c-.36.2-.7.31-1.02.31Z"/>
      <polygon class="cls-4" points="17.48 38.83 35.62 28.36 35.62 27.04 17.48 37.5 17.48 38.83"/>
      <path class="cls-2" d="M17.78,37.68v.61l17.53-10.11v-.61l-17.53,10.11h0ZM17.48,39.14c-.05,0-.1-.02-.16-.04-.09-.06-.15-.16-.15-.27v-1.32c0-.11.05-.21.15-.26l18.14-10.47c.09-.06.22-.06.31,0,.1.06.16.16.16.27v1.32c0,.11-.06.21-.16.27l-18.14,10.46c-.05.03-.11.04-.16.04Z"/>
      <polygon class="cls-1" points="34.2 23.78 35.62 22.96 35.62 24.6 34.19 25.42 34.2 23.78"/>
      <path class="cls-2" d="M34.5,23.96v.93l.81-.47v-.93l-.81.46h0ZM34.19,25.73c-.05,0-.11-.01-.15-.04-.09-.06-.15-.16-.15-.27v-1.64c0-.11.06-.21.15-.27l1.43-.82c.1-.05.21-.05.3,0,.1.05.16.15.16.26v1.65c0,.11-.06.21-.16.27l-1.42.82s-.09.04-.15.04Z"/>
      <polygon class="cls-1" points="32.27 24.89 33.69 24.07 33.69 25.71 32.27 26.53 32.27 24.89"/>
      <path class="cls-2" d="M32.58,25.07v.93l.81-.46v-.93l-.81.46h0ZM32.27,26.84c-.05,0-.1-.01-.15-.04-.1-.06-.15-.16-.15-.27v-1.64c0-.11.06-.21.16-.27l1.42-.82c.09-.05.22-.05.31,0,.1.06.16.16.16.27v1.64c0,.11-.06.21-.16.27l-1.43.82c-.05.03-.11.04-.16.04Z"/>
      <polygon class="cls-1" points="30.35 26 31.77 25.18 31.77 26.82 30.35 27.64 30.35 26"/>
      <path class="cls-2" d="M30.65,26.18v.93l.81-.47v-.93l-.81.47h0ZM30.35,27.95c-.05,0-.1-.01-.16-.04-.09-.06-.15-.16-.15-.27v-1.64c0-.11.06-.21.15-.27l1.43-.82c.09-.05.21-.06.31,0,.09.06.15.16.15.26v1.65c0,.11-.06.21-.15.27l-1.42.82c-.05.03-.11.04-.16.04Z"/>
      <polygon class="cls-4" points="6.81 25.11 25.85 14.12 25.86 10.79 6.81 21.78 6.81 25.11"/>
      <path class="cls-2" d="M7.12,21.96v2.62l18.43-10.63v-2.62L7.12,21.96h0ZM6.81,25.42c-.06,0-.11-.02-.15-.04-.1-.06-.16-.16-.16-.27v-3.33c0-.11.06-.21.16-.27l19.05-10.99c.09-.06.21-.06.3,0,.09.05.15.16.15.26v3.33c0,.11-.06.21-.15.27L6.96,25.38s-.1.04-.15.04Z"/>
      <path class="cls-1" d="M9.96,31.33h0s14.85-8.55,14.85-8.55c.61-.35,1.12-1.22,1.12-1.94V4.64l-3.36-2.59c.38.51.66,1.1.77,1.74v3.8l-1.42-.82v-2.83c.03-1.29-1.43-2.92-3.43-1.91l-7.7,4.45c-.68.43-1.12,1.2-1.15,2v22.1c.02.36.04.51.32.74Z"/>
      <path class="cls-2" d="M19.72,2.02c-.31,0-.68.08-1.09.28l-7.69,4.44c-.57.37-.98,1.05-1,1.74v22.09c.02.19.02.28.08.36l14.64-8.44c.52-.3.96-1.07.96-1.67V4.8s-2.12-1.64-2.12-1.64c.06.19.11.38.15.58v3.85c0,.11-.06.21-.16.27-.1.06-.21.06-.3,0l-1.42-.82c-.1-.05-.16-.16-.16-.27v-2.83c.02-.62-.36-1.29-.93-1.64-.23-.15-.55-.28-.96-.28h0ZM9.96,31.64s-.11-.01-.16-.04c-.02,0-.03-.02-.04-.03-.39-.32-.41-.58-.44-.95V8.48c.04-.91.54-1.77,1.29-2.26l7.72-4.45c.96-.48,1.9-.47,2.68.02.75.47,1.23,1.34,1.22,2.17v2.64l.8.46v-3.26c-.1-.51-.34-1.06-.7-1.55-.09-.12-.08-.3.03-.4.11-.11.29-.12.41-.03l3.36,2.59c.07.06.12.15.12.24v16.19c0,.83-.56,1.79-1.29,2.21l-14.84,8.56c-.05.03-.11.04-.16.04Z"/>
      <path class="cls-1" d="M23.34,7.59l2.07-1.19c1.02-.56,1.58-1.05.56-1.85l-4.37-3.41,1.75,2.65v3.8Z"/>
      <path class="cls-2" d="M22.88,2.53l.72,1.1c.03.05.04.11.04.17v3.26l1.61-.93c.26-.14.93-.51.95-.78.02-.14-.14-.34-.43-.56l-2.89-2.26h0ZM23.34,7.9c-.05,0-.1-.01-.15-.04-.1-.06-.16-.16-.16-.27v-3.7s-1.69-2.58-1.69-2.58c-.09-.13-.07-.29.04-.4.11-.1.28-.11.4-.02l4.37,3.41c.47.37.69.73.66,1.1-.04.56-.68.95-1.26,1.27l-2.07,1.19s-.1.04-.15.04Z"/>
      <path class="cls-3" d="M9.96,31.33l-1.32-.76c-.29-.24-.3-.39-.34-.75V7.72c.04-.8.49-1.57,1.16-2L17.6,1.02C18.81.34,19.48,0,20.9.68c1.15.55,2.19,1.7,2.44,3.11v3.8l-1.42-.82v-2.83c.03-1.29-1.43-2.92-3.43-1.91l-7.7,4.45c-.68.43-1.12,1.2-1.15,2v22.1c.02.36.04.51.33.75Z"/>
      <path class="cls-2" d="M19.54.62c-.56,0-1.04.26-1.78.67l-8.14,4.7c-.57.36-.96,1.05-1,1.74v22.09c.03.31.03.35.22.51l.49.27V8.48c.04-.91.54-1.77,1.29-2.26l7.72-4.45c.96-.48,1.9-.47,2.68.02.75.47,1.23,1.34,1.22,2.17v2.64l.8.46v-3.26c-.21-1.14-1.11-2.28-2.26-2.83-.5-.24-.88-.34-1.23-.34h0ZM9.96,31.64s-.1-.01-.16-.04l-1.32-.76c-.41-.34-.45-.58-.48-.98V7.72c.04-.92.54-1.78,1.3-2.26L17.46.75c1.19-.67,1.98-1.11,3.57-.35,1.35.65,2.36,1.93,2.62,3.34v3.85c0,.11-.06.21-.16.27-.1.06-.21.06-.3,0l-1.42-.82c-.1-.05-.16-.16-.16-.27v-2.83c.02-.62-.36-1.29-.93-1.64-.41-.26-1.1-.47-2.05,0l-7.69,4.44c-.57.37-.96,1.05-1,1.74v22.09c.02.31.02.35.22.51.13.1.16.28.06.41-.06.09-.16.13-.25.13Z"/>
      <polygon class="cls-4" points="36.08 16.72 27.43 11.72 8.37 22.71 17.02 27.71 36.08 16.72"/>
      <path class="cls-2" d="M8.99,22.71l8.03,4.64,18.44-10.63-8.03-4.64-18.43,10.63h0ZM17.02,28.01c-.05,0-.1-.02-.15-.05l-8.66-4.99c-.1-.05-.15-.16-.15-.27s.05-.21.15-.27l19.05-10.99c.09-.06.22-.06.3,0l8.66,4.99c.1.06.15.16.15.27s-.05.21-.15.27l-19.05,10.99c-.05.03-.11.04-.16.04Z"/>
      <polygon class="cls-4" points="17.02 31.04 36.08 20.05 36.08 16.72 17.02 27.71 17.02 31.04"/>
      <path class="cls-2" d="M17.34,27.88v2.62l18.43-10.63v-2.62l-18.43,10.63h0ZM17.02,31.34c-.05,0-.1-.01-.15-.04-.1-.06-.15-.16-.15-.27v-3.33c0-.11.05-.21.16-.27l19.04-10.99c.09-.05.22-.05.31,0,.1.06.15.16.15.27v3.33c0,.11-.05.21-.16.27l-19.04,10.99c-.05.03-.11.04-.16.04Z"/>
      <path class="cls-3" d="M12.66,41.33L.31,34.2v-4.24c0-1.53-.03-2.43.43-3.93.26-.79.56-1.44.96-2.16l.16-.26c.42-.68.85-1.24,1.39-1.84.19-.2.37-.39.58-.58.29-.26.5-.45.86-.63l12.35,7.13c-.12.05-.41.24-.47.29-.36.3-.65.58-.97.92-1.21,1.34-2.06,2.78-2.6,4.54-.41,1.49-.35,2.51-.35,4.02v3.87Z"/>
      <path class="cls-2" d="M.62,34.02l11.74,6.78v-3.89c-.01-1.24-.02-2.21.35-3.55.55-1.78,1.4-3.26,2.67-4.67.35-.36.65-.65,1.01-.95.02-.01.04-.03.07-.05l-11.75-6.79c-.25.15-.42.31-.66.51-.19.18-.37.36-.56.56-.52.57-.94,1.12-1.36,1.79l-.15.25c-.41.72-.69,1.35-.95,2.1-.42,1.35-.41,2.17-.41,3.53v4.37h0ZM12.66,41.64c-.05,0-.1-.01-.16-.04L.15,34.47c-.1-.06-.15-.16-.15-.27v-4.55C0,28.29,0,27.39.45,25.94c.27-.8.57-1.46,1-2.22l.15-.26c.44-.7.89-1.29,1.43-1.89.2-.21.39-.4.59-.59.29-.26.54-.47.94-.68.1-.05.2-.04.3,0l12.35,7.13c.09.06.16.17.15.28,0,.12-.08.22-.18.26-.09.04-.35.21-.4.25-.33.28-.63.55-.95.89-1.21,1.33-2.01,2.74-2.53,4.42-.34,1.25-.33,2.19-.33,3.37v.56s0,3.87,0,3.87c0,.11-.05.22-.15.27-.05.03-.11.04-.16.04Z"/>
      <polygon class="cls-4" points="35.62 27.04 34.47 27.7 35.62 28.36 35.62 27.04"/>
      <path class="cls-2" d="M35.08,27.7l.23.13v-.26l-.23.13h0ZM35.62,28.67c-.05,0-.1-.02-.16-.04l-1.15-.66c-.1-.05-.15-.16-.15-.27s.05-.21.15-.27l1.15-.66c.09-.06.22-.06.31,0,.1.06.16.16.16.27v1.32c0,.11-.06.21-.16.27-.05.03-.11.04-.15.04Z"/>
      <path class="cls-4" d="M14.04,31.04L1.69,23.91c-.88,1.56-1.38,3.06-1.38,4.86v3.98c0,.63-.02,1.25.04,1.89.14.45.17.53.53.83l12.35,7.13c-.36-.3-.39-.38-.53-.83-.06-.63-.04-1.25-.04-1.89v-3.13c0-1.4,0-2.21.43-3.59.26-.77.55-1.41.95-2.12Z"/>
      <path class="cls-2" d="M1.8,24.33c-.82,1.53-1.18,2.91-1.18,4.44v4.36c0,.51,0,.99.03,1.48.12.36.13.38.43.62l11.31,6.53c-.04-.51-.04-1.01-.04-1.5v-3.51c.01-1.4.01-2.24.45-3.68.23-.69.5-1.3.82-1.92L1.8,24.33h0ZM13.23,42.9c-.05,0-.1-.02-.16-.04L.73,35.73c-.45-.37-.51-.51-.67-.99,0-.02,0-.06-.02-.08-.04-.52-.04-1.04-.03-1.54v-4.35c0-1.73.43-3.27,1.42-5.01.03-.07.1-.13.18-.15.09-.02.17-.01.24.03l12.35,7.13c.15.08.2.27.11.42-.38.68-.67,1.32-.92,2.07-.41,1.34-.41,2.15-.41,3.49v3.51c-.01.51-.01.99.03,1.48.12.36.13.38.42.62.13.1.16.28.06.41-.06.09-.16.13-.25.13Z"/>
    </g>
  </g>
</svg>