<?xml version="1.0" encoding="UTF-8"?>
<svg id="Layer_2" data-name="Layer 2" xmlns="http://www.w3.org/2000/svg" viewBox="0 0 29.44 40.39" fill="currentColor">
  <defs>
    <style>
      .cls-1 {
        fill: #fff;
      }

      .cls-1, .cls-2, .cls-3, .cls-4 {
        fill-rule: evenodd;
      }

      .cls-2 {
        fill: #1a87c7;
      }

      .cls-3 {
        fill: #bdedf8;
      }

      .cls-4 {
        fill: #66ceef;
      }
    </style>
  </defs>
  <g id="_Layer_" data-name="&amp;lt;Layer&amp;gt;">
    <g>
      <path class="cls-4" d="M20.65,1.17c1.76,1.02,3.54,2.08,5.29,3.07,4.01,2.29,3.46,8.49,2.36,12.22-1.55,5.13-5.16,10.66-9.93,13.45l-9.83,5.67-.99.58-5.32-3.07v-11.36c-.08-2.26.13-4.08.79-6.29C4.82,9.34,12.92-3.06,20.65,1.17Z"/>
      <path class="cls-2" d="M2.54,32.92l5,2.89,10.66-6.16c4.27-2.49,8.12-7.7,9.8-13.27,1.23-4.17,1.39-9.79-2.2-11.87-1.18-.65-2.36-1.35-3.56-2.04-.58-.35-1.15-.69-1.76-1.02-1.83-1.01-3.83-1.1-5.89-.23C9.35,3.35,4.69,10.91,3.3,15.53c-.63,2.12-.84,3.91-.76,6.19v11.2h0ZM7.55,36.47c-.05,0-.11,0-.16-.04l-5.29-3.06c-.11-.05-.16-.16-.16-.27v-11.36c-.11-2.34.13-4.19.76-6.38C4.11,10.61,8.96,2.85,14.36.63c2.25-.93,4.43-.83,6.44.27h0c.58.35,1.18.69,1.76,1.03,1.18.69,2.36,1.37,3.54,2.03,3.93,2.26,3.8,8.19,2.52,12.58-1.73,5.72-5.69,11.06-10.09,13.63l-10.82,6.25c-.05.03-.1.04-.16.04Z"/>
      <path class="cls-3" d="M6.13,15.89l-2.67-1.53c-.94,2.58-1.55,5.11-1.62,7.88l2.67,1.54c.08-2.77.65-5.3,1.62-7.88Z"/>
      <path class="cls-2" d="M2.15,22.06l2.07,1.18c.11-2.34.6-4.65,1.52-7.21l-2.12-1.23c-.92,2.58-1.39,4.9-1.47,7.26h0ZM4.51,24.08c-.05,0-.11,0-.16-.04l-2.65-1.53c-.1-.06-.16-.16-.16-.28.05-2.59.58-5.13,1.62-7.98.03-.09.1-.15.18-.18.08-.03.18-.02.26.03l2.65,1.54c.13.07.21.22.16.37-1.05,2.78-1.55,5.25-1.6,7.78,0,.11-.05.2-.16.25-.05.04-.1.04-.16.04Z"/>
      <polygon class="cls-3" points="7.6 16.03 4.95 14.49 3.46 14.36 6.13 15.89 7.6 16.03"/>
      <path class="cls-2" d="M6.21,15.59h.03l-1.41-.81,1.39.81h0ZM7.6,16.33h-.03l-1.49-.13s-.08-.02-.1-.04l-2.67-1.54c-.13-.07-.18-.22-.13-.36.05-.14.18-.22.31-.21l1.49.14s.08.01.1.04l2.67,1.54c.13.07.18.22.13.36-.03.13-.16.22-.29.22Z"/>
      <path class="cls-3" d="M6.13,15.89c-.52,1.34-.89,2.69-1.18,4.03-.26,1.3-.42,2.59-.45,3.85l1.7-1c.05-2.07.55-4.45,1.39-6.74l-1.47-.14Z"/>
      <path class="cls-2" d="M6.31,16.22c-.44,1.27-.81,2.53-1.05,3.76-.24,1.11-.37,2.2-.42,3.24l1.07-.63c.05-1.94.5-4.16,1.26-6.3l-.86-.08h0ZM4.51,24.08c-.05,0-.11-.02-.16-.04-.1-.05-.16-.16-.16-.27.03-1.25.18-2.56.45-3.9.29-1.34.68-2.71,1.18-4.08.05-.13.18-.21.34-.2l1.47.13c.11.01.18.06.24.15.05.08.05.18.03.27-.84,2.27-1.34,4.63-1.36,6.65,0,.1-.05.21-.16.26l-1.7.99c-.05.03-.1.04-.16.04Z"/>
      <path class="cls-1" d="M5,40.05l-4.61-2.67c-.05-.05-.08-.09-.08-.17v-3.56c.03-.21.11-.37.29-.49l2.02-1.17,4.61,2.67-2.02,1.17c-.18.11-.26.27-.29.48v3.56c.03.09.03.12.08.18Z"/>
      <path class="cls-2" d="M.63,37.17l4.01,2.3-.03-3.15c.05-.32.18-.57.42-.74l1.6-.91-4.01-2.31-1.86,1.09c-.08.05-.13.12-.13.23v3.5h0ZM5,40.35c-.05,0-.1-.02-.13-.04L.24,37.65c-.18-.16-.21-.29-.24-.42v-3.58c.03-.33.16-.57.42-.74l2.04-1.18c.1-.06.21-.06.31,0l4.61,2.66c.11.06.16.15.16.27s-.05.21-.16.27l-2.02,1.17c-.08.05-.13.13-.13.24v3.5c.08.11.08.27.03.38-.08.08-.16.13-.26.13Z"/>
      <path class="cls-1" d="M7.23,35.58l-1.52.88v2.96c0,.63-.79.95-.79.32v-3.42c0-.17.13-.39.29-.48l2.02-1.17v.91Z"/>
      <path class="cls-2" d="M7.23,35.58h.03-.03ZM6.94,35.19l-1.57.9c-.05.03-.13.15-.13.22v3.42h0c.08-.05.16-.16.16-.32v-2.96c0-.11.05-.21.16-.27l1.39-.79v-.2h0ZM5.19,40.39c-.16,0-.31-.07-.42-.2-.11-.11-.16-.26-.16-.45v-3.42c0-.29.18-.6.45-.75l2.02-1.17c.1-.05.21-.05.31,0,.11.06.16.15.16.27v.91c0,.1-.05.21-.16.26l-1.36.8v2.78c0,.56-.45.97-.84.97Z"/>
      <path class="cls-3" d="M5,40.05l-4.61-2.67c-.05-.05-.08-.09-.08-.17v-3.56c0-.12.03-.18.08-.28l4.61,2.66c-.05.11-.05.16-.08.28v3.56c.03.09.03.12.08.18Z"/>
      <path class="cls-2" d="M.63,37.17l4.01,2.3-.03-3.15c.03-.05.03-.1.03-.13l-4.01-2.32v3.3h0ZM5,40.35c-.05,0-.1-.02-.13-.04L.24,37.65c-.18-.16-.21-.29-.24-.42v-3.58c.03-.2.05-.29.13-.42.03-.08.11-.13.18-.16.08-.03.16-.01.24.03l4.61,2.67c.16.08.21.26.13.41-.05.07-.05.09-.05.16v3.5c.08.11.08.27.03.38-.08.08-.16.13-.26.13Z"/>
      <path class="cls-3" d="M24.31,3.62c-2.88-.56-5.97,1.1-8.12,2.82-1.47,1.19-2.75,2.59-3.88,4.1-1.18,1.6-2.2,3.36-2.99,5.19-1.2,2.77-1.78,5.98-1.78,9.03v11.4l.99-.58,8.8-5.08c1.13-.66,2.02-1.15,3.09-2.04,2.96-2.37,5.34-5.78,6.86-9.27,1.36-3.1,2.25-6.94,1.62-10.29-.5-2.57-1.96-4.77-4.61-5.29Z"/>
      <path class="cls-2" d="M23.13,3.82c-2.86,0-5.61,1.95-6.73,2.87-1.39,1.11-2.67,2.47-3.83,4.05-1.2,1.59-2.17,3.31-2.99,5.12-1.1,2.6-1.73,5.76-1.73,8.91v10.86l9.43-5.44c1.07-.63,1.91-1.11,2.96-1.95,2.78-2.24,5.19-5.49,6.76-9.15.92-2.1,2.33-6.21,1.6-10.12-.31-1.62-1.28-4.44-4.35-5.04h0c-.39-.07-.76-.11-1.13-.11h0ZM7.55,36.47c-.05,0-.11,0-.16-.04-.1-.05-.16-.15-.16-.26v-11.4c0-3.22.66-6.48,1.81-9.15.81-1.85,1.83-3.62,3.04-5.25,1.18-1.62,2.52-3.02,3.93-4.16,1.68-1.37,5-3.54,8.36-2.88h0c2.52.49,4.27,2.5,4.85,5.53.79,4.07-.68,8.31-1.62,10.47-1.62,3.75-4.09,7.08-6.94,9.39-1.07.86-1.94,1.37-3.04,2l-9.9,5.71c-.05.03-.1.04-.16.04Z"/>
      <path class="cls-1" d="M18.31,8.56c-2.12,1.23-4.06,3.35-5.48,5.76-1.39,2.42-2.23,5.15-2.23,7.61s.84,4.19,2.23,5c1.42.8,3.35.69,5.48-.55,2.12-1.23,4.06-3.34,5.45-5.75,1.42-2.42,2.25-5.15,2.25-7.61s-.84-4.19-2.25-5c-1.39-.81-3.33-.69-5.45.54Z"/>
      <path class="cls-2" d="M18.47,8.83c-2.02,1.16-3.93,3.17-5.34,5.65-1.44,2.48-2.23,5.12-2.23,7.45s.76,3.94,2.1,4.73c1.39.78,3.2.59,5.16-.54,2.02-1.16,3.9-3.17,5.35-5.65,1.44-2.48,2.23-5.13,2.23-7.45s-.76-3.95-2.12-4.73c-1.36-.78-3.17-.59-5.14.54h0ZM14.86,27.75c-.79,0-1.52-.19-2.15-.56-1.57-.9-2.41-2.77-2.41-5.26s.81-5.19,2.31-7.76c1.47-2.57,3.46-4.65,5.55-5.87h0c2.15-1.25,4.22-1.44,5.76-.55,1.57.9,2.41,2.77,2.41,5.27s-.81,5.19-2.31,7.75c-1.47,2.57-3.46,4.66-5.55,5.88-1.26.73-2.49,1.1-3.62,1.1Z"/>
      <path class="cls-2" d="M16.24,22.61c-.11,0-.21-.05-.26-.15-.08-.15-.03-.34.13-.43l4.11-2.37c.05-.04.1-.15.1-.22v-2.82l-3.93,2.28c-.16.1-.34.1-.5.02-.16-.09-.24-.24-.24-.44v-2.97c0-.3.18-.61.45-.75l4.11-2.38c.13-.09.31-.03.42.11.08.15.03.34-.13.42l-4.11,2.38c-.05.03-.11.15-.11.22v2.76l3.9-2.27c.18-.11.37-.11.52-.03.16.09.24.25.24.45v3.03c0,.29-.18.6-.45.75l-4.11,2.38c-.05.03-.11.03-.16.03Z"/>
    </g>
  </g>
</svg>