<?xml version="1.0" encoding="UTF-8"?>
<svg id="Layer_2" data-name="Layer 2" xmlns="http://www.w3.org/2000/svg" viewBox="0 0 40.89 42.11" fill="currentColor">
  <defs>
    <style>
      .cls-1 {
        fill: #fff;
      }

      .cls-1, .cls-2, .cls-3, .cls-4 {
        fill-rule: evenodd;
      }

      .cls-2 {
        fill: #1a87c7;
      }

      .cls-3 {
        fill: #bdedf8;
      }

      .cls-4 {
        fill: #66ceef;
      }
    </style>
  </defs>
  <g id="_Layer_" data-name="&amp;lt;Layer&amp;gt;">
    <g>
      <path class="cls-4" d="M33.53,17.09l-3.03-1.75c-1.44.77-6.31,13.45-5.42,13.98l3.02,1.75c-.89-.55,3.97-13.2,5.42-13.98Z"/>
      <path class="cls-2" d="M25.28,29.08l2.42,1.4c.22-2.45,3.68-11.38,5.32-13.32l-2.5-1.43c-1.34,1.27-5.61,12.1-5.24,13.36h0ZM28.32,30.86h0,0ZM28.11,31.37c-.05,0-.11-.01-.15-.05l-3.03-1.75c-.24-.14-.27-.46-.26-.68.05-2.37,4.23-13.04,5.69-13.83.1-.05.21-.05.3,0l3.03,1.75c.09.05.16.16.15.27,0,.11-.06.22-.16.27-1.17.63-5.78,12.22-5.36,13.47.1.1.13.25.06.38-.06.1-.17.15-.27.15Z"/>
      <path class="cls-4" d="M24.24,22.46l-3.03-1.76c-1.45.77-6.31,13.45-5.42,13.98l3.03,1.75c-.9-.54,3.97-13.2,5.42-13.97Z"/>
      <path class="cls-2" d="M15.99,34.45l2.42,1.39c.22-2.45,3.68-11.38,5.32-13.32l-2.49-1.44c-1.34,1.27-5.61,12.1-5.24,13.37h0ZM19.03,36.22h0,0ZM18.82,36.73c-.05,0-.11,0-.16-.03l-3.02-1.76c-.24-.14-.27-.45-.26-.68.05-2.37,4.23-13.05,5.69-13.83.09-.05.21-.04.3,0l3.03,1.75c.09.05.15.16.15.27s-.06.22-.16.27c-1.17.63-5.78,12.22-5.36,13.47.1.09.13.25.06.38-.06.1-.17.15-.27.15Z"/>
      <path class="cls-4" d="M14.92,27.84l-3.03-1.76c-1.45.78-6.31,13.45-5.42,13.98l3.02,1.75c-.89-.54,3.97-13.19,5.43-13.97Z"/>
      <path class="cls-2" d="M6.67,39.82l2.42,1.4c.21-2.45,3.68-11.38,5.32-13.31l-2.49-1.44c-1.34,1.27-5.61,12.1-5.24,13.36h0ZM9.72,41.6h0,0ZM9.5,42.11c-.05,0-.1-.01-.15-.03l-3.03-1.76c-.24-.14-.27-.45-.26-.68.05-2.37,4.23-13.05,5.69-13.83.09-.04.21-.04.3,0l3.02,1.75c.1.05.16.16.16.27s-.06.22-.16.27c-1.17.63-5.77,12.22-5.36,13.47.1.09.13.25.06.38-.06.1-.16.15-.27.15Z"/>
      <path class="cls-3" d="M24.24,22.46c-1.29.35-6.44,13.88-5.42,13.97,1.02.09,6.36-13.42,5.42-13.97Z"/>
      <path class="cls-2" d="M24.05,23.01c-1.35,1.7-5.06,11.16-5.07,13,1.15-1.24,4.92-10.87,5.07-13h0ZM18.82,36.73h-.03c-.11,0-.37-.08-.41-.5-.16-1.79,4.36-13.69,5.78-14.07.08-.02.16,0,.24.03.31.18.53.62-.45,3.7-.71,2.23-3.88,10.84-5.13,10.84Z"/>
      <path class="cls-3" d="M11.99,37.65c1.78-3.96,3.52-9.47,2.93-9.81-1.3.35-6.44,13.87-5.43,13.97.47.04,2.23-3.56,2.5-4.15Z"/>
      <path class="cls-2" d="M14.74,28.38c-1.32,1.65-4.93,10.8-5.08,12.9.55-.73,1.63-2.83,2.04-3.76h0c1.61-3.57,2.95-7.85,3.03-9.14h0ZM9.49,42.11h-.02c-.12-.01-.37-.08-.41-.51-.16-1.79,4.36-13.69,5.78-14.07.08-.02.15,0,.23.04,1.16.67-2.16,8.75-2.81,10.2h0c-.2.45-1.98,4.34-2.78,4.34Z"/>
      <path class="cls-3" d="M33.53,17.09c-1.29.35-6.44,13.88-5.42,13.98,1.03.08,6.36-13.43,5.42-13.98Z"/>
      <path class="cls-2" d="M33.34,17.65c-1.35,1.7-5.06,11.15-5.07,13,1.15-1.24,4.92-10.87,5.07-13h0ZM28.11,31.37h-.03c-.11-.01-.37-.08-.41-.51-.16-1.79,4.36-13.69,5.78-14.07.08-.02.16,0,.24.03.31.18.53.62-.44,3.69-.7,2.23-3.89,10.85-5.14,10.85Z"/>
      <path class="cls-3" d="M12.73,33.24c-1.7.97-3.22,1.06-4.33.42h0s-6.3-3.65-6.3-3.65c-.36-.22-.65-.47-.9-.81-1-1.31-1.01-3.3-.73-4.86.54-2.98,2.41-6.17,4.78-8.07l.27-.21c.04-.35.08-.66.14-1,.84-4.84,4.22-10.27,8.52-12.78,1.69-.98,3.87-1.64,5.75-.82l.19.1,1.3.75c1.18-1.04,2.79-2.03,4.41-2.01.39,0,.8.09,1.16.23l.18.08,2.75,1.58.29-.06c.63-.1,1.31-.07,1.91.17l.21.09,6.31,3.64c1.2.59,1.96,2.01,1.96,4.06,0,3.9-2.75,8.64-6.13,10.59l-21.73,12.54Z"/>
      <path class="cls-2" d="M12.73,33.24h.01-.01ZM18.06,1.4c-1.49,0-2.89.66-3.75,1.16-4.04,2.35-7.48,7.52-8.36,12.56-.05.32-.09.63-.13.95,0,.09-.06.19-.12.24l-.28.21c-2.29,1.84-4.13,4.95-4.66,7.89-.16.9-.42,3.16.67,4.62.23.29.48.53.82.73l6.3,3.63c1.06.62,2.48.47,4.02-.42l21.74-12.54c3.29-1.89,5.96-6.53,5.96-10.32,0-1.85-.65-3.23-1.79-3.78l-6.5-3.73c-.5-.2-1.1-.25-1.74-.15l-.28.06c-.07.02-.15,0-.22-.03l-2.89-1.65c-.3-.12-.68-.19-1.04-.2h-.06c-1.7,0-3.31,1.21-4.13,1.93-.1.09-.24.1-.36.03l-1.47-.84c-.57-.24-1.16-.35-1.73-.35h0ZM9.99,34.38c-.63,0-1.22-.15-1.75-.45l-6.31-3.64c-.41-.25-.72-.53-1-.89C-.3,27.75-.02,25.28.15,24.29c.57-3.09,2.48-6.33,4.88-8.27l.18-.13c.04-.31.07-.59.12-.89.9-5.21,4.47-10.55,8.66-12.98,1.27-.75,3.75-1.83,6.03-.84l.2.1,1.14.65C22.32,1.14,23.98-.05,25.82,0c.44,0,.89.09,1.28.25l.18.08,2.68,1.55.17-.03c.76-.13,1.48-.07,2.09.17l.22.1,6.34,3.66c1.35.66,2.12,2.25,2.12,4.33,0,3.99-2.81,8.86-6.27,10.86l-21.74,12.53h0c-1.01.58-1.99.88-2.89.88Z"/>
      <path class="cls-1" d="M12.73,33.24c-3.38,1.95-6.12.36-6.12-3.55,0-3.54,2.26-7.78,5.21-9.99.55-5.27,4.21-11.21,8.66-13.78,2.94-1.7,5.54-1.51,7.12.15.55-.51,1.14-.94,1.74-1.3,2.69-1.55,4.97-.86,5.79,1.44,3.08-1.4,5.47.23,5.47,3.88,0,3.9-2.75,8.64-6.13,10.59l-21.73,12.54Z"/>
      <path class="cls-2" d="M12.73,33.24h.01-.01ZM24.36,5.06c-1.14,0-2.42.37-3.74,1.14-4.29,2.48-7.95,8.3-8.5,13.53,0,.09-.05.16-.11.22-2.9,2.17-5.09,6.36-5.09,9.74,0,1.78.58,3.09,1.64,3.7,1.05.61,2.48.46,4.02-.43l21.74-12.54c3.29-1.89,5.96-6.53,5.96-10.32,0-1.71-.54-3-1.53-3.63-.9-.58-2.15-.57-3.5.03-.08.03-.16.05-.25,0-.08-.03-.14-.11-.17-.18-.34-.95-.94-1.6-1.74-1.89-1-.37-2.28-.15-3.6.62-.57.33-1.14.76-1.69,1.26-.12.11-.32.11-.43-.02-.78-.83-1.82-1.23-3.01-1.23h0ZM9.99,34.38c-.63,0-1.22-.15-1.75-.45-1.25-.72-1.95-2.23-1.95-4.23,0-3.57,2.2-7.82,5.23-10.15.61-5.38,4.37-11.32,8.79-13.87,2.84-1.64,5.54-1.63,7.28,0,.51-.45,1.04-.83,1.57-1.14,1.5-.86,2.96-1.09,4.14-.66.89.32,1.56,1,1.98,1.95,1.43-.57,2.76-.52,3.79.13,1.17.75,1.81,2.23,1.81,4.16,0,3.99-2.81,8.86-6.27,10.86l-21.74,12.53h0c-1.01.58-1.99.88-2.89.88Z"/>
      <path class="cls-2" d="M11.82,20.01c-.05,0-.11-.01-.15-.05l-6.32-3.64c-.15-.09-.19-.27-.11-.42.09-.15.28-.2.42-.11l6.31,3.64c.15.09.2.28.11.43-.06.1-.17.15-.27.15Z"/>
      <path class="cls-2" d="M27.68,6.24c-.06,0-.11-.02-.16-.04l-6.27-3.62c-.15-.09-.19-.27-.11-.42.09-.15.28-.2.43-.11l6.26,3.61c.15.09.2.27.11.42-.05.11-.16.16-.26.16Z"/>
      <path class="cls-2" d="M33.49,4.57c-.05,0-.1,0-.16-.03l-3.58-2.07c-.15-.09-.19-.28-.11-.42.09-.16.28-.2.43-.12l3.58,2.06c.15.09.19.28.12.42-.06.1-.17.15-.27.15Z"/>
    </g>
  </g>
</svg>