<?xml version="1.0" encoding="UTF-8"?>
<svg id="Layer_2" data-name="Layer 2" xmlns="http://www.w3.org/2000/svg" viewBox="0 0 62.92 83.17" fill="currentColor">
  <defs>
    <style>
      .cls-1 {
        fill: #fff;
      }

      .cls-1, .cls-2, .cls-3, .cls-4 {
        fill-rule: evenodd;
      }

      .cls-2 {
        fill: #1a87c7;
      }

      .cls-3 {
        fill: #bdedf8;
      }

      .cls-4 {
        fill: #66ceef;
      }
    </style>
  </defs>
  <g id="_Layer_" data-name="&amp;lt;Layer&amp;gt;">
    <g>
      <path class="cls-4" d="M19.53,74.72l-7.49-4.35c8.8,4.96,19.81-3.35,25.36-9.75,7.86-8.96,14.78-24.2,11.79-36.09-.89-3.5-2.67-6.59-5.82-8.45l7.91,4.57c7.91,5.03,6.65,17.77,4.19,25.59-3.61,11.57-13.47,25.6-25.47,29.2-3.51,1.08-7.18,1.13-10.48-.73Z"/>
      <path class="cls-2" d="M19.85,74.18c2.83,1.6,6.24,1.82,10.01.68,11.58-3.47,21.38-17.12,25.05-28.8,2.73-8.6,3.3-20.29-3.98-24.87l-3.35-1.96c1,1.46,1.73,3.18,2.2,5.16,3.09,12.32-3.98,27.64-11.9,36.64-5.4,6.16-13.52,12.02-21.01,11.44l2.99,1.72h0ZM25.3,76.82c-2.15,0-4.19-.52-6.08-1.57h0l-7.49-4.34c-.31-.17-.42-.54-.26-.83.21-.3.58-.4.84-.25,8.59,4.83,19.55-3.77,24.68-9.63,7.91-9.05,14.46-24.16,11.63-35.51-.94-3.74-2.83-6.47-5.55-8.09-.31-.17-.37-.56-.21-.83.16-.3.52-.4.84-.22l7.91,4.57c7.86,4.99,7.28,17.3,4.45,26.3-3.72,12-13.83,26.01-25.83,29.63-1.73.52-3.35.78-4.93.78Z"/>
      <path class="cls-1" d="M32.84,20.94c-12.1,6.98-21.9,23.96-21.9,37.9s9.8,19.63,21.9,12.64c12.1-6.97,21.9-23.94,21.9-37.9s-9.8-19.62-21.9-12.64Z"/>
      <path class="cls-2" d="M42.64,18.56c-2.93,0-6.13.97-9.48,2.9h0c-11.89,6.88-21.59,23.64-21.59,37.37,0,6.54,2.15,11.37,6.13,13.65,3.93,2.27,9.22,1.72,14.83-1.53,11.89-6.87,21.59-23.64,21.59-37.38,0-6.53-2.15-11.37-6.08-13.64-1.62-.92-3.46-1.37-5.4-1.37h0ZM23.1,75.08c-2.2,0-4.24-.5-6.03-1.55-4.35-2.51-6.71-7.72-6.71-14.71,0-14.13,9.96-31.38,22.17-38.44h0c6.08-3.49,11.79-4.03,16.09-1.53,4.35,2.5,6.76,7.72,6.76,14.71,0,14.13-9.96,31.38-22.22,38.43-3.56,2.05-6.97,3.08-10.06,3.08Z"/>
      <path class="cls-4" d="M27.71,11.95c5.5-3.1,12.68-5.37,18.71-2.15l7.49,4.34c-11.06-5.51-24.21,4.71-31.02,12.69-9.17,10.71-16.98,28.18-14.2,42.36.89,4.62,2.93,8.64,6.92,11.28-1.78-1.05-7.02-3.91-8.38-4.96C-1.43,69-.01,54.52,2.71,45.46c3.98-13.11,13.1-26.47,24.99-33.51Z"/>
      <path class="cls-2" d="M28.02,12.49C17.02,19.01,7.53,31.7,3.34,45.64c-2.99,9.84-3.67,23.44,4.24,29.4.63.49,2.25,1.42,3.88,2.38-1.62-2.17-2.73-4.85-3.41-8.1-2.88-14.59,5.45-32.46,14.36-42.88,6.71-7.84,17.13-15.44,26.72-14.34l-3.04-1.76c-6.08-3.23-13.21-.62-18.08,2.16h0ZM15.6,81.08c-.11,0-.21-.02-.31-.09-.42-.22-1-.56-1.68-.94-2.36-1.36-5.66-3.22-6.76-4.05-8.38-6.35-7.91-20.03-4.72-30.72,4.3-14.22,13.99-27.21,25.26-33.87v-.02c5.19-2.92,12.73-5.66,19.28-2.15l7.55,4.34c.26.17.37.54.21.84-.16.29-.47.4-.79.26-10.11-5.04-22.64,3.62-30.29,12.53-8.75,10.22-16.87,27.68-14.04,41.85.94,5,3.14,8.57,6.65,10.88.26.19.37.56.16.83-.11.19-.31.3-.52.3Z"/>
      <polygon class="cls-4" points="19.17 74.49 11.62 70.15 11.83 70.27 12.04 70.37 19.53 74.72 19.38 74.62 19.17 74.49"/>
      <path class="cls-2" d="M19.53,75.33c-.1,0-.21-.02-.31-.07l-7.91-4.58c-.26-.18-.37-.56-.21-.84.21-.29.58-.38.84-.22l7.55,4.35v.02l.37.23c.32.17.42.54.21.83-.1.19-.31.3-.52.3Z"/>
      <polygon class="cls-4" points="50.87 20.42 43.37 16.09 43.16 15.96 42.95 15.86 50.5 20.21 50.71 20.31 50.87 20.42"/>
      <path class="cls-2" d="M50.87,21.04c-.1,0-.21-.04-.31-.08l-7.86-4.56c-.31-.17-.42-.54-.26-.83.16-.29.52-.4.84-.24l.42.23,7.49,4.34c.31.16.42.54.26.83-.16.19-.37.31-.58.31Z"/>
      <path class="cls-3" d="M50.81,12.99c1.99.83,4.93,2.69,6.34,4.43l1.78-2.8c1.68-2.4-4.66-6.57-6.03-4.9l-2.1,3.27Z"/>
      <path class="cls-2" d="M51.71,12.71c1.78.85,3.93,2.26,5.34,3.7l1.36-2.12c.58-.83-.42-2.15-1.62-3.08-1.47-1.12-3.09-1.51-3.41-1.12l-1.68,2.61h0ZM57.16,18.05c-.21,0-.37-.08-.52-.24-1.26-1.6-4.09-3.43-6.08-4.26-.16-.07-.26-.2-.37-.38,0-.17,0-.37.11-.5l2.1-3.27c1.05-1.27,3.35-.52,5.14.83,2.1,1.58,2.83,3.44,1.89,4.76l-1.78,2.77c-.11.17-.26.28-.47.28v.02Z"/>
      <path class="cls-4" d="M37.71,10.14v2.5c-.05.17-.16.36-.26.52-.37.52-1.05.89-1.62,1.1-1.36.46-3.14.42-4.45-.19-.31-.16-.63-.37-.89-.61-.21-.19-.37-.43-.47-.71l-.05-.1v-2.5c0,.07,0,.12.05.21.21.61.79,1.04,1.36,1.32,1.47.68,3.62.68,5.08-.09.31-.17.68-.41.89-.71.1-.12.21-.28.26-.41.05-.05.05-.16.1-.21v-.1Z"/>
      <path class="cls-2" d="M30.59,11.91v.63c.05.17.16.33.31.49.21.17.47.35.73.49,1.1.52,2.73.59,3.98.15.58-.2,1.1-.52,1.31-.85.11-.11.16-.23.16-.33v-.58c-.1.09-.26.16-.37.23-1.57.83-3.93.86-5.61.08-.16-.08-.37-.19-.52-.31h0ZM33.84,15.18c-1,0-1.94-.19-2.72-.56-.31-.14-.73-.38-1.05-.73-.31-.28-.52-.61-.63-.95,0-.02-.05-.16-.05-.17,0-.04-.05-.19-.05-.23v-2.4c0-.33.26-.59.58-.62.31-.02.58.19.63.48.16.51.58.85,1.1,1.12,1.31.61,3.25.59,4.51-.07.31-.16.58-.37.73-.56.11-.08.16-.19.16-.28l.05.02v-.08h.31l-.31-.14c.11-.29.37-.52.68-.48.31.03.58.29.58.62v2.4s-.05.19-.05.23c-.05.28-.16.54-.31.75-.58.76-1.47,1.16-1.99,1.32-.63.22-1.41.35-2.15.35Z"/>
      <path class="cls-3" d="M42.17,5.9v2.15c-.26,1.31-1.05,2.07-2.1,2.78-1.83,1.11-3.72,1.51-5.82,1.6-2.2.04-4.09-.28-6.08-1.24-.84-.5-1.52-.95-2.15-1.79-.31-.47-.42-.79-.58-1.36v-2.15c.16.57.26.89.58,1.37.63.82,1.31,1.27,2.15,1.77,1.99.95,3.88,1.27,6.08,1.24,2.1-.09,3.98-.49,5.82-1.6,1.05-.72,1.83-1.48,2.1-2.78Z"/>
      <path class="cls-2" d="M26.19,8.35c.05.21.21.42.37.73.58.73,1.15,1.13,1.94,1.56,1.68.84,3.46,1.22,5.76,1.18,2.2-.11,3.93-.58,5.5-1.51.79-.53,1.41-1.1,1.68-1.94-.31.33-.68.59-1.05.83-1.73,1.08-3.67,1.6-6.13,1.69-2.52.05-4.4-.37-6.29-1.3-.68-.37-1.26-.73-1.78-1.24h0ZM33.99,13.04c-2.36,0-4.24-.4-6.02-1.3-1-.52-1.73-1.03-2.41-1.94-.42-.61-.58-.99-.68-1.6v-2.3c0-.31.21-.58.52-.61.31-.04.63.17.68.48.1.47.21.71.47,1.15.58.73,1.15,1.11,1.94,1.58,1.68.83,3.46,1.2,5.76,1.17,2.2-.1,3.93-.56,5.5-1.51.89-.63,1.57-1.27,1.83-2.38.05-.31.32-.54.68-.48.31.03.52.29.52.61v2.15c-.31,1.74-1.42,2.63-2.41,3.3-1.73,1.06-3.62,1.58-6.13,1.69h-.26Z"/>
      <path class="cls-4" d="M27.92,2.02c3.25-1.9,8.59-1.9,11.84,0,3.3,1.88,3.3,4.95,0,6.85-3.25,1.9-8.59,1.9-11.84,0-3.3-1.9-3.3-4.97,0-6.85Z"/>
      <path class="cls-2" d="M33.84,1.21c-2.04,0-4.09.45-5.66,1.34h0c-1.36.8-2.1,1.82-2.1,2.9s.73,2.09,2.1,2.89c3.14,1.79,8.17,1.79,11.27,0,1.41-.8,2.15-1.82,2.15-2.89s-.73-2.1-2.15-2.9c-1.52-.88-3.56-1.34-5.61-1.34h0ZM33.84,10.89c-2.25,0-4.51-.49-6.24-1.5-1.78-1.02-2.78-2.43-2.78-3.95s1-2.93,2.78-3.96h0c3.46-1.98,9.01-1.98,12.47,0,1.78,1.03,2.78,2.44,2.78,3.96s-1,2.92-2.78,3.95c-1.73,1.01-3.98,1.5-6.24,1.5Z"/>
      <path class="cls-3" d="M50.87,20.42c-2.04-1.17-4.45-1.67-7.18-1.39-2.62.26-5.45,1.22-8.49,2.96-2.99,1.74-5.87,4.07-8.44,6.83-2.72,2.85-5.19,6.17-7.23,9.72-2.04,3.53-3.67,7.3-4.82,11.07-1.1,3.65-1.68,7.3-1.68,10.76s.58,6.43,1.68,8.83c1.15,2.48,2.78,4.34,4.82,5.53,2.04,1.18,4.51,1.67,7.23,1.4,2.57-.26,5.45-1.23,8.44-2.96,3.04-1.73,5.87-4.08,8.49-6.83,2.73-2.87,5.13-6.17,7.18-9.72,2.1-3.55,3.72-7.32,4.82-11.09,1.1-3.63,1.73-7.28,1.73-10.76s-.63-6.44-1.73-8.81c-1.1-2.48-2.72-4.37-4.82-5.54h0ZM16.07,36.51c4.87-8.48,11.68-15.91,19.12-20.22,7.49-4.31,14.25-4.73,19.18-1.89,4.87,2.84,7.91,8.9,7.91,17.54s-3.04,18.2-7.91,26.68c-4.93,8.5-11.68,15.91-19.18,20.22-7.44,4.33-14.25,4.73-19.12,1.91-4.93-2.83-7.97-8.9-7.97-17.54s3.04-18.21,7.97-26.7h0Z"/>
      <path class="cls-2" d="M45.1,19.56c-.42,0-.89.02-1.36.07-2.57.26-5.34,1.24-8.23,2.87-2.88,1.67-5.66,3.93-8.33,6.73-2.67,2.81-5.03,6.03-7.13,9.59-2.04,3.56-3.62,7.25-4.72,10.97-1.1,3.69-1.68,7.25-1.68,10.57s.52,6.19,1.62,8.57c1.05,2.35,2.57,4.12,4.56,5.25,1.94,1.13,4.3,1.58,6.81,1.34,2.62-.26,5.4-1.24,8.28-2.88,2.88-1.67,5.66-3.93,8.28-6.73,2.73-2.82,5.08-6.04,7.13-9.6,2.04-3.55,3.67-7.23,4.77-10.95,1.1-3.68,1.68-7.25,1.68-10.58s-.58-6.19-1.62-8.57c-1.1-2.34-2.62-4.12-4.61-5.24h0c-1.57-.92-3.41-1.39-5.45-1.39h0ZM25.3,76.81c-2.2,0-4.3-.52-6.08-1.55-2.15-1.27-3.88-3.23-5.08-5.82-1.1-2.54-1.68-5.58-1.68-9.07s.58-7.13,1.68-10.93c1.15-3.79,2.78-7.57,4.87-11.21,2.1-3.65,4.56-6.95,7.28-9.84,2.73-2.87,5.66-5.21,8.65-6.94,2.99-1.73,5.92-2.76,8.7-3.04,2.83-.28,5.4.23,7.55,1.49,2.2,1.25,3.93,3.22,5.08,5.81,1.15,2.54,1.73,5.6,1.73,9.08s-.58,7.13-1.68,10.94c-1.15,3.8-2.78,7.58-4.87,11.21-2.1,3.65-4.56,6.95-7.28,9.84-2.72,2.87-5.66,5.21-8.65,6.94-3.04,1.76-5.92,2.76-8.7,3.04-.52.05-1.05.07-1.52.07h0ZM47.3,13.2c2.46,0,4.77.57,6.76,1.72,4.93,2.85,7.6,8.88,7.6,17.02s-2.78,17.61-7.81,26.39c-5.08,8.76-11.79,15.87-18.92,19.99-7.07,4.07-13.68,4.73-18.55,1.9-4.93-2.83-7.65-8.88-7.65-17s2.78-17.63,7.86-26.39h0c5.03-8.78,11.79-15.87,18.92-19.99,4.19-2.42,8.18-3.63,11.79-3.63h0ZM23.1,83.17c-2.67,0-5.14-.63-7.34-1.9-5.34-3.06-8.23-9.47-8.23-18.06s2.83-18.06,8.02-27.01h0c5.14-8.96,12.05-16.2,19.39-20.44,7.39-4.3,14.41-4.96,19.75-1.9,5.29,3.08,8.23,9.49,8.23,18.08s-2.83,18.05-8.02,27c-5.19,8.95-12.05,16.22-19.39,20.45-4.35,2.52-8.59,3.79-12.42,3.79Z"/>
      <path class="cls-2" d="M33,51.48c-.11,0-.21-.04-.31-.09-.26-.17-.37-.56-.21-.85l14.88-25.78c.16-.29.58-.4.84-.23.31.17.42.54.26.83l-14.93,25.8c-.11.19-.32.31-.52.31Z"/>
      <path class="cls-2" d="M34.41,68.87c-.37,0-.63-.28-.63-.63v-4.59c0-.35.26-.61.63-.61.31,0,.58.26.58.61v4.59c0,.35-.26.63-.58.63Z"/>
      <path class="cls-2" d="M48.67,39.57c-.26,0-.47-.1-.58-.29-.16-.29-.05-.68.26-.85l3.98-2.3c.26-.16.63-.07.84.23.16.29.05.67-.26.85l-3.98,2.3c-.05.05-.16.07-.26.07Z"/>
      <path class="cls-2" d="M34.41,31.35c-.37,0-.63-.28-.63-.61v-4.58c0-.35.26-.63.63-.63.31,0,.58.28.58.63v4.58c0,.33-.26.61-.58.61Z"/>
      <path class="cls-2" d="M16.18,58.33c-.21,0-.42-.1-.52-.31-.21-.29-.11-.66.21-.83l3.98-2.3c.26-.17.68-.07.84.23.16.3.05.68-.21.84l-3.98,2.3c-.1.07-.21.08-.31.08Z"/>
      <path class="cls-3" d="M33.78,46.75c.37-.65.89-1.2,1.41-1.51.58-.33,1.1-.36,1.47-.14.37.2.58.66.58,1.3s-.21,1.36-.58,2c-.37.62-.89,1.18-1.47,1.51-.52.31-1.05.35-1.41.14-.37-.21-.58-.66-.58-1.32s.21-1.36.58-1.98Z"/>
      <path class="cls-2" d="M34.31,47.05c-.32.57-.52,1.18-.52,1.69,0,.38.11.68.31.78.16.1.47.05.84-.14.42-.26.84-.73,1.15-1.29.37-.56.52-1.18.52-1.69,0-.38-.11-.68-.26-.78-.21-.1-.52-.05-.84.14-.42.26-.89.73-1.2,1.28h0ZM34.31,50.8c-.32,0-.58-.07-.84-.21-.58-.35-.89-1.01-.89-1.86,0-.73.21-1.55.68-2.3h0c.42-.75,1-1.37,1.68-1.74.68-.41,1.42-.47,1.99-.14.58.33.94,1.01.94,1.84,0,.73-.26,1.55-.68,2.29-.47.76-1.05,1.37-1.68,1.74-.42.24-.84.37-1.2.37Z"/>
    </g>
  </g>
</svg>