<?xml version="1.0" encoding="UTF-8"?>
<svg id="Layer_2" data-name="Layer 2" xmlns="http://www.w3.org/2000/svg" viewBox="0 0 26.89 41.97" fill="currentColor">
  <defs>
    <style>
      .cls-1 {
        fill: #1a87c7;
      }

      .cls-1, .cls-2, .cls-3 {
        fill-rule: evenodd;
      }

      .cls-2 {
        fill: #bdedf8;
      }

      .cls-3 {
        fill: #66ceef;
      }
    </style>
  </defs>
  <g id="_Layer_" data-name="&amp;lt;Layer&amp;gt;">
    <g>
      <path class="cls-2" d="M2.97,41.54l-2.13-1.23c-.45-.37-.48-.6-.53-1.17V15.53c.11-1.36.69-2.36,1.81-3.13C8.96,8.44,15.8,4.5,22.64.54c.52-.23.73-.33,1.27-.12l2.13,1.23c-.54-.2-.76-.12-1.28.13-6.36,3.67-15.08,8.07-20.89,12.1-.9.84-1.34,1.64-1.44,2.88v23.62c.05.57.08.8.53,1.17Z"/>
      <path class="cls-1" d="M23.41.61c-.17,0-.33.07-.64.21L2.27,12.66c-1.02.71-1.55,1.63-1.65,2.89v23.59c.05.5.06.63.42.93l1.13.65c-.01-.1-.02-.21-.03-.32v-23.65c.1-1.29.55-2.17,1.54-3.1L24.62,1.51c.12-.05.22-.1.32-.14l-1.17-.68c-.15-.06-.25-.08-.35-.08h0ZM2.97,41.85c-.05,0-.1-.01-.15-.04l-2.13-1.22c-.58-.47-.63-.78-.68-1.41V15.53c.12-1.46.75-2.56,1.94-3.38L22.49.27c.59-.27.89-.38,1.54-.14l2.18,1.24c.14.09.19.26.13.4-.07.15-.24.22-.39.16-.43-.16-.55-.11-1.04.12L4.06,14.13c-.84.8-1.22,1.55-1.31,2.65v23.59c.05.51.06.63.42.93.12.1.15.28.06.42-.06.09-.16.13-.25.13Z"/>
      <path class="cls-2" d="M4.24,13.62c6.84-3.95,13.69-7.9,20.53-11.85,1-.58,1.81-.11,1.81,1.04v23.62c0,1.15-.81,2.56-1.81,3.13-6.84,3.95-13.69,7.9-20.53,11.85-.99.57-1.81.11-1.81-1.04v-23.62c0-1.15.81-2.55,1.81-3.13Z"/>
      <path class="cls-1" d="M4.24,13.62h0,0ZM25.58,1.84c-.19,0-.41.07-.65.2L4.4,13.89h0c-.89.51-1.65,1.82-1.65,2.86v23.62c0,.44.13.76.38.9.24.14.58.09.97-.12l20.53-11.86c.89-.52,1.65-1.82,1.65-2.86V2.82c0-.44-.13-.76-.38-.9-.09-.05-.2-.08-.32-.08h0ZM3.44,41.97c-.23,0-.44-.05-.62-.17-.44-.25-.68-.76-.68-1.43v-23.62c0-1.25.88-2.77,1.96-3.4L24.62,1.51c.58-.34,1.14-.38,1.58-.12.44.25.68.76.68,1.43v23.62c0,1.24-.88,2.77-1.96,3.39l-20.53,11.86c-.33.19-.66.29-.96.29Z"/>
      <path class="cls-1" d="M12.01,33.76c-.19,0-.37-.05-.53-.14-.37-.22-.58-.65-.58-1.22,0-.69.32-1.5.83-2.11.11-.13.3-.15.43-.04.13.1.15.31.04.43-.42.51-.69,1.17-.69,1.72,0,.33.1.58.27.68.18.1.44.07.73-.11.71-.41,1.31-1.44,1.31-2.26,0-.21-.05-.71-.47-.74-.17,0-.3-.15-.29-.32,0-.17.16-.29.32-.29.64.04,1.05.57,1.05,1.35,0,1.04-.71,2.28-1.62,2.8-.28.16-.55.24-.81.24Z"/>
      <path class="cls-1" d="M8.01,36.17c-.36,0-.68-.16-.88-.48-.09-.14-.05-.33.09-.42.14-.09.33-.05.43.09.23.36.69.15.87.04.71-.41,1.31-1.45,1.31-2.27,0-.33-.1-.58-.27-.68-.17-.11-.44-.06-.73.1-.47.27-.91.83-1.15,1.45-.06.17-.24.24-.4.18-.16-.06-.24-.23-.18-.39.28-.76.82-1.44,1.42-1.78.49-.28.97-.31,1.34-.1.37.21.58.64.58,1.21,0,1.05-.71,2.28-1.61,2.8-.28.17-.56.24-.81.24Z"/>
      <path class="cls-1" d="M19.94,29.36h-.01c-.64-.04-1.05-.57-1.05-1.35,0-1.04.71-2.28,1.62-2.8.49-.29.97-.32,1.34-.11.38.22.58.65.58,1.22,0,.68-.32,1.49-.83,2.11-.11.13-.3.15-.43.04-.13-.12-.15-.3-.04-.43.43-.51.69-1.17.69-1.72,0-.33-.1-.58-.27-.68-.17-.11-.44-.07-.73.1-.71.41-1.31,1.45-1.31,2.27,0,.21.04.72.47.73.17.02.3.16.29.33-.01.17-.15.29-.31.29Z"/>
      <path class="cls-1" d="M16.04,31.54c-.19,0-.37-.05-.53-.14-.37-.22-.58-.65-.58-1.22,0-1.04.71-2.28,1.62-2.8.67-.39,1.34-.3,1.69.23.09.15.05.34-.09.43-.14.09-.33.05-.43-.09-.23-.36-.69-.15-.87-.03-.71.41-1.31,1.44-1.31,2.26,0,.33.1.58.27.68.18.1.44.07.73-.1.47-.28.91-.84,1.15-1.46.06-.16.24-.24.4-.18.16.06.24.24.18.4-.28.75-.82,1.43-1.42,1.77-.28.16-.55.24-.81.24Z"/>
      <path class="cls-1" d="M13.51,26.25c-.46,0-.85-.21-1.11-.6-.09-.14-.05-.33.09-.42.14-.09.33-.05.43.09.26.39.75.43,1.33.09.99-.57,1.83-2.03,1.83-3.18,0-.5-.15-.86-.43-1.02-.28-.16-.67-.11-1.1.14-.66.38-1.28,1.17-1.61,2.04-.06.15-.23.23-.4.17-.16-.06-.24-.24-.18-.39.37-1,1.09-1.9,1.88-2.36.63-.37,1.24-.42,1.71-.14.47.27.74.83.74,1.55,0,1.39-.94,3.02-2.14,3.71-.36.21-.72.31-1.04.31Z"/>
      <path class="cls-1" d="M8.02,29.52h-.02c-.8-.04-1.32-.72-1.32-1.72,0-1.39.94-3.02,2.14-3.71.63-.36,1.24-.41,1.71-.14.47.28.74.83.74,1.56,0,.9-.42,1.98-1.1,2.8-.11.14-.3.16-.43.05-.13-.11-.15-.3-.04-.44.59-.71.96-1.64.96-2.41,0-.5-.15-.86-.43-1.02-.28-.17-.67-.11-1.1.14-.99.57-1.83,2.02-1.83,3.17,0,.67.28,1.08.74,1.1.17.02.3.16.29.33,0,.17-.14.29-.31.29Z"/>
      <path class="cls-1" d="M13.56,18.34c-.34,0-.66-.09-.95-.25-.67-.38-1.05-1.18-1.05-2.23,0-2.04,1.44-4.53,3.2-5.55,1.25-.72,2.46-.57,3.09.38.09.15.05.34-.09.43-.14.09-.33.06-.43-.09-.45-.68-1.29-.75-2.26-.18-1.6.92-2.89,3.16-2.89,5.01,0,.83.26,1.43.74,1.7.48.28,1.13.2,1.85-.22,1.05-.61,2.03-1.83,2.54-3.21.06-.17.23-.24.4-.18.16.06.24.23.18.4-.56,1.5-1.64,2.85-2.81,3.53-.53.3-1.04.46-1.52.46Z"/>
      <path class="cls-1" d="M19.41,22.71c-.24,0-.47-.06-.67-.18-.47-.28-.74-.83-.74-1.55,0-.91.42-1.97,1.1-2.8.11-.13.3-.15.43-.04.13.1.15.3.04.43-.59.72-.96,1.64-.96,2.41,0,.5.15.86.43,1.02.27.16.66.11,1.1-.14,1.01-.58,1.83-2.01,1.83-3.18,0-.66-.28-1.08-.74-1.1-.17,0-.3-.16-.29-.33.01-.16.17-.28.33-.28.8.04,1.32.72,1.32,1.72,0,1.39-.94,3.02-2.14,3.71-.36.21-.72.31-1.04.31Z"/>
      <path class="cls-3" d="M2.97,41.54l-2.13-1.23c-.45-.37-.48-.6-.53-1.17V15.53c.06-.66.15-1.04.45-1.63l2.13,1.23c-.3.6-.39.96-.45,1.62v23.62c.05.57.08.8.53,1.17Z"/>
      <path class="cls-1" d="M.89,14.34c-.17.38-.23.69-.28,1.22v23.59c.05.5.06.63.42.93l1.13.65c-.01-.1-.02-.21-.03-.32v-23.65c.05-.63.14-1.02.36-1.5l-1.59-.92h0ZM2.97,41.85c-.05,0-.1-.01-.15-.04l-2.13-1.22c-.57-.47-.62-.78-.68-1.41V15.53c.06-.75.17-1.15.48-1.77.04-.08.11-.13.19-.16.08-.03.17-.02.24.03l2.13,1.23c.14.08.2.26.12.4-.28.55-.36.87-.42,1.51v23.59c.05.51.06.64.42.93.12.1.15.28.06.42-.06.09-.16.13-.25.13Z"/>
    </g>
  </g>
</svg>