<?xml version="1.0" encoding="UTF-8"?>
<svg id="Layer_2" data-name="Layer 2" xmlns="http://www.w3.org/2000/svg" viewBox="0 0 30.19 48.81" fill="currentColor">
  <defs>
    <style>
      .cls-1 {
        fill: #fff;
      }

      .cls-1, .cls-2, .cls-3 {
        fill-rule: evenodd;
      }

      .cls-2 {
        fill: #1a87c7;
      }

      .cls-3 {
        fill: #66ceef;
      }
    </style>
  </defs>
  <g id="_Layer_" data-name="&amp;lt;Layer&amp;gt;">
    <g>
      <path class="cls-1" d="M8.23,32.19c.21-.26.7-.92.86-1.21.33-.56.32-.77.39-1.43,2.63,3.04,8.82-1.5,11.29-2.91.09,1.51.68,2.21,1.17,3.19h0c2.31,3.59.18,10.9-2.45,11.88-1.93.72-4.07-1.18-5.96-1.89-2.02-.76-4.96-6.54-5.29-7.63Z"/>
      <path class="cls-2" d="M8.57,32.25c.5,1.34,3.27,6.61,5.07,7.28.58.22,1.18.55,1.77.86,1.35.73,2.74,1.49,3.97,1.02.95-.36,1.95-1.76,2.58-3.68.74-2.22,1.1-5.59-.29-7.75-.11-.23-.22-.42-.33-.61-.34-.63-.7-1.26-.84-2.24-.22.14-.46.29-.71.44-2.84,1.76-7.49,4.63-10.08,2.62-.04.29-.13.55-.35.93-.16.26-.55.79-.79,1.11h0ZM18.58,42.19c-1.16,0-2.32-.64-3.46-1.24-.59-.32-1.16-.63-1.7-.84-2.18-.81-5.18-6.84-5.49-7.82-.03-.09,0-.2.05-.28.21-.27.69-.92.84-1.18.26-.44.27-.61.32-1.1l.02-.2c.02-.12.1-.23.22-.26.12-.03.24,0,.32.09,2.12,2.44,6.91-.52,9.77-2.29.43-.26.82-.51,1.14-.69.09-.05.2-.06.3,0,.09.05.15.15.16.25.07,1.13.43,1.78.81,2.47.11.2.22.39.33.61,1.49,2.31,1.11,5.89.33,8.24-.7,2.12-1.81,3.64-2.94,4.07-.35.13-.69.18-1.03.18Z"/>
      <path class="cls-1" d="M28.11,37.73v-4.04c.01-3.23-3.1-4.91-5.86-5.15-.39-.04-.69-.07-.94-.08-.05.11-.11.23-.17.33l-.26.47c2.84,3.79-1.56,5.98-8.74,7.54l-3.91-4.63c-1.23,1.24-3.32,3.6-3.67,3.97-3.09,3.48-2.57,4.75-2.57,8.74,0,1.21.15,1.53,1.48,2.3,8.87,5.13,24.65-6.06,24.65-9.46Z"/>
      <path class="cls-2" d="M8.21,32.64c-.99,1.02-2.38,2.56-3.08,3.33l-.35.39c-2.59,2.92-2.56,4.22-2.51,7.05.01.45.02.95.02,1.49,0,1.09.09,1.32,1.32,2.04,5.93,3.41,14.41-.94,16.87-2.37,4.53-2.61,7.33-5.57,7.33-6.83v-4.04c0-3-2.89-4.61-5.58-4.84-.3-.03-.53-.05-.73-.06-.03.05-.05.1-.08.15l-.17.3c.79,1.11,1.01,2.17.65,3.12-.73,1.96-3.81,3.46-9.69,4.75-.11.02-.23-.02-.3-.1l-3.69-4.37h0ZM8.86,48.81c-2.1,0-3.99-.44-5.55-1.35-1.37-.79-1.63-1.2-1.63-2.57,0-.54-.01-1.02-.02-1.47-.05-2.92-.08-4.38,2.68-7.47l.35-.39c.75-.83,2.32-2.58,3.33-3.6.06-.06.15-.1.23-.09.09.01.18.04.23.12l3.79,4.49c5.48-1.21,8.44-2.63,9.07-4.32.3-.8.07-1.69-.69-2.7-.08-.1-.09-.23-.03-.33l.26-.47c.05-.1.11-.21.16-.32.06-.11.17-.19.3-.17.24,0,.55.03.95.07,2.97.26,6.15,2.07,6.15,5.46v4.04c0,1.69-3.29,4.86-7.63,7.37-4.24,2.44-8.4,3.7-11.93,3.7Z"/>
      <path class="cls-1" d="M19.29,31.53c.93-1.17,1.58-2.12,2.15-3.3l-.04.07c.48-1.03.9-2.17,1.23-3.37h0c.17-.69.32-1.4.45-2.12.12-.7.22-1.4.29-2.07h0c.02-.28.03-.56.05-.83,0-.25,0-.53,0-.83v-.52c0-.14,0-.31-.02-.47-.15-1.31-1.76-.68-3.51,0-2.04.78-4.23,1.63-5.11.02l-.02.03c-.88,1.38-2.52,3.96-2.86,7.16-.02.28-.05.57-.06.88,0,.29-.02.58,0,.89h0c.18,2.55.89,4.48,1.93,5.56l-.03.02c.65.2,1.31.33,1.98.39,2.11.22,2.3.09,3.56-1.49Z"/>
      <path class="cls-2" d="M19.29,31.53h0,0ZM13.99,32.37c.56.17,1.16.28,1.77.34,2.02.2,2.1.11,3.3-1.38h0c.95-1.18,1.55-2.1,2.06-3.15h0c.48-1.04.89-2.16,1.21-3.33.17-.68.31-1.39.45-2.09.12-.69.21-1.39.28-2.05,0,0,0-.02,0-.03.02-.26.03-.52.04-.78.01-.25.02-.52.02-.82v-.51c0-.14-.02-.3-.03-.46-.03-.25-.12-.35-.2-.39-.46-.28-1.75.22-2.88.66-1.93.74-4.1,1.58-5.22.3-.9,1.44-2.28,3.81-2.57,6.65-.03.28-.05.56-.07.86,0,.29,0,.57,0,.87.17,2.37.82,4.27,1.83,5.33h0ZM16.87,33.4c-.32,0-.7-.03-1.17-.07-.71-.07-1.4-.21-2.05-.41-.1-.03-.18-.12-.21-.23-1.05-1.17-1.73-3.16-1.9-5.62,0-.31,0-.62,0-.92,0-.3.04-.61.06-.89.35-3.27,2.01-5.88,2.91-7.29.06-.09.15-.16.28-.16.11.01.22.05.27.15.75,1.37,2.77.6,4.73-.17,1.46-.56,2.71-1.04,3.43-.6.29.17.45.46.5.86,0,.19.02.35.02.5,0,.13,0,.3,0,.53,0,.3,0,.58-.02.84,0,.28-.03.56-.05.83v.04c-.07.66-.16,1.35-.29,2.07-.13.71-.29,1.43-.46,2.14-.32,1.17-.72,2.29-1.2,3.32,0,0,0,.03,0,.03-.54,1.13-1.17,2.1-2.18,3.36h0c-1.04,1.29-1.44,1.68-2.66,1.68Z"/>
      <path class="cls-3" d="M12.27,33.1c-4.82-2.78-6.4-2.6-8.15-7.4-1.25-4.68.71-7.8.44-12.34.91-1.43,5.24-5.56,6.74-4.7.18-.29.37-.52.57-.77l.39-.4.4-.34c3.37-2.22,9.91,1.94,11.63,4.87.6,2.08,1.41,7.39-1.36,15.01-.42.37-.92.78-1.49,1.2l-.04.07c.48-1.03.9-2.17,1.23-3.37h0c.17-.69.32-1.4.45-2.12.12-.7.22-1.4.29-2.07h0c.02-.28.03-.56.05-.83,0-.25,0-.53,0-.83v-.52c0-.14,0-.31-.02-.47-.15-1.31-1.76-.68-3.51,0-2.04.78-4.23,1.63-5.11.02l-.02.03c-.88,1.38-2.52,3.96-2.86,7.16-.02.28-.05.57-.06.88,0,.29-.02.58,0,.89h0c.18,2.55.89,4.48,1.93,5.56-.59.24-1.1.41-1.51.5Z"/>
      <path class="cls-2" d="M4.87,13.43c.1,1.88-.17,3.51-.44,5.1-.37,2.27-.73,4.41,0,7.08,1.34,3.68,2.53,4.3,5.41,5.81.72.38,1.54.81,2.49,1.35.28-.07.59-.17.95-.3-.95-1.2-1.56-3.09-1.72-5.4,0-.31,0-.62,0-.92,0-.3.04-.61.06-.89.35-3.27,2.01-5.88,2.91-7.29.06-.09.15-.16.28-.16.11.01.22.05.27.15.75,1.37,2.77.6,4.73-.17,1.46-.56,2.71-1.04,3.43-.6.29.17.45.46.5.86,0,.19.02.35.02.5,0,.13,0,.3,0,.53,0,.3,0,.58-.02.84,0,.28-.03.56-.05.83v.04c-.07.66-.16,1.35-.29,2.07-.13.71-.29,1.43-.46,2.14-.21.78-.46,1.53-.75,2.26.17-.15.34-.28.49-.42,2.86-7.9,1.77-13.2,1.35-14.71-1.13-1.86-4.47-4.41-7.52-5.12-1.51-.35-2.75-.22-3.66.39l-.38.31-.36.37c-.2.25-.37.47-.53.72-.09.15-.27.19-.42.1-1.19-.68-5.2,2.92-6.28,4.51h0ZM12.27,33.42c-.05,0-.11-.02-.16-.04-.98-.56-1.83-1.01-2.57-1.4-2.94-1.54-4.28-2.24-5.71-6.17-.75-2.83-.37-5.14,0-7.37.26-1.58.53-3.21.42-5.06,0-.07.02-.13.05-.19.8-1.24,4.91-5.4,6.88-4.9.14-.19.27-.36.42-.55,0,0,.04-.05.05-.06l.38-.4.43-.36c1.07-.71,2.5-.88,4.16-.5,3.27.75,6.74,3.42,7.93,5.44,0,.03.03.05.03.07.43,1.49,1.61,7.01-1.37,15.2-.02.04-.05.09-.09.12-.42.37-.9.76-1.45,1.17h0c-.08.15-.26.22-.41.15-.15-.07-.21-.25-.15-.41.48-1.03.89-2.15,1.21-3.32.17-.68.31-1.39.45-2.09.12-.69.21-1.39.28-2.05,0,0,0-.02,0-.03.02-.26.03-.52.04-.78.01-.25.02-.52.02-.82v-.51c0-.14-.02-.3-.03-.46-.03-.25-.12-.35-.2-.39-.46-.28-1.75.22-2.88.66-1.93.74-4.1,1.58-5.22.3-.9,1.44-2.28,3.81-2.57,6.65-.03.28-.05.56-.07.86,0,.29,0,.57,0,.87.17,2.38.83,4.29,1.85,5.36.07.07.1.17.08.28-.03.09-.1.18-.19.22-.61.24-1.13.42-1.56.51-.03,0-.05.01-.07.01Z"/>
      <polygon class="cls-1" points="4.51 5.96 4.51 14.41 4.57 14.68 4.66 14.96 4.76 15.24 4.89 15.52 5.04 15.79 5.22 16.06 5.42 16.32 5.63 16.58 5.88 16.83 6.15 17.07 6.44 17.32 6.75 17.55 7.08 17.78 7.45 17.99 7.83 18.2 8.22 18.4 8.63 18.58 9.05 18.75 9.47 18.91 9.91 19.05 10.36 19.17 10.81 19.29 11.28 19.39 11.75 19.47 12.22 19.55 12.7 19.61 13.19 19.66 13.67 19.69 14.16 19.71 14.65 19.72 15.13 19.71 15.62 19.69 16.11 19.66 16.6 19.61 17.07 19.55 17.54 19.47 18.01 19.39 18.48 19.29 18.93 19.18 19.38 19.05 19.82 18.91 20.24 18.75 20.66 18.58 21.07 18.4 21.46 18.2 21.85 17.99 22.21 17.78 22.55 17.55 22.86 17.32 23.15 17.07 23.42 16.83 23.66 16.58 23.89 16.32 24.08 16.05 24.25 15.79 24.41 15.52 24.54 15.24 24.64 14.96 24.72 14.68 24.78 14.41 24.78 5.96 21.88 5.96 21.85 5.97 21.46 6.18 21.07 6.37 20.66 6.56 20.24 6.72 19.82 6.88 19.38 7.02 18.93 7.15 18.48 7.26 18.01 7.36 17.54 7.45 17.07 7.52 16.6 7.59 16.11 7.63 15.62 7.67 15.13 7.69 14.65 7.7 14.16 7.69 13.67 7.67 13.19 7.63 12.7 7.59 12.22 7.52 11.75 7.45 11.28 7.36 10.81 7.26 10.36 7.15 9.91 7.02 9.47 6.88 9.05 6.72 8.63 6.56 8.22 6.37 7.83 6.18 7.45 5.97 7.42 5.96 4.51 5.96"/>
      <path class="cls-2" d="M4.83,6.26v8.14l.23.73.26.5.35.5.44.49.53.47.63.43,1.1.61,1.22.49,1.32.37,1.38.26,1.42.14.96.03,1.43-.06,1.41-.18,1.37-.29,1.28-.42,1.19-.53,1.04-.63.83-.69.63-.74.3-.5.22-.5.12-.51V6.26h-2.52l-.75.39-1.29.52-1.37.39-1.43.27-1.47.14-.99.03-1.49-.06-1.47-.18-1.42-.31-1.34-.43-1.25-.56-.36-.2h-2.51ZM14.66,20.03l-1.5-.06-1.46-.19-1.42-.3-1.34-.43-1.25-.56-1.11-.68-.63-.5-.53-.52-.44-.55-.36-.57-.25-.59-.15-.61V5.96c0-.18.13-.31.3-.31h2.91c.06,0,.12.02.17.05l1.16.58,1.25.45,1.34.33,1.4.22,1.43.1h.49l1.43-.05,1.41-.18,1.37-.3,1.28-.42,1.19-.53.36-.2s.13-.06.18-.06h2.9c.16,0,.3.14.3.31v8.45l-.15.64-.25.6-.35.57-.45.55-.54.52-.63.5-.72.46-1.22.61-1.32.47-1.39.36-1.45.23-1.48.1h-.5Z"/>
      <path class="cls-3" d="M14.57,43.02c.4-.16.85.1,1.02.57.17.47-.03.97-.43,1.13-.4.15-.85-.11-1.02-.57-.17-.47.03-.97.43-1.13Z"/>
      <path class="cls-2" d="M14.68,43.31c-.24.1-.36.43-.24.75.05.16.17.3.3.37.08.03.19.06.3.02.24-.09.36-.43.25-.75-.06-.16-.18-.3-.31-.36-.07-.04-.18-.06-.3-.02h0ZM14.92,45.08c-.15,0-.28-.03-.42-.11-.3-.13-.52-.4-.64-.72-.22-.63.05-1.3.6-1.52h0c.25-.1.53-.09.78.03.3.14.53.4.64.73.21.62-.06,1.31-.61,1.52-.11.04-.23.07-.36.07Z"/>
      <path class="cls-3" d="M23.56,38.92c.33-.19.76,0,.96.43.19.44.08.93-.25,1.11-.34.18-.76-.02-.96-.44-.2-.42-.09-.92.25-1.1Z"/>
      <path class="cls-2" d="M23.56,38.92h0,0ZM23.82,39.15s-.08.01-.12.04h0c-.19.1-.24.43-.12.7.07.16.19.28.31.32.08.02.15.02.22-.02.18-.1.24-.44.12-.71-.07-.15-.18-.27-.31-.31-.03,0-.06-.02-.09-.02h0ZM23.99,40.84c-.1,0-.19-.02-.29-.04-.29-.09-.54-.33-.69-.64-.26-.58-.09-1.24.39-1.5h0c.21-.12.46-.15.7-.06.3.09.55.33.69.64.26.57.1,1.23-.38,1.5-.13.07-.27.11-.42.11Z"/>
      <path class="cls-2" d="M13.97,48.04c-.11,0-.23-.07-.28-.18l-4.59-10.34c-.03-.09-.03-.18,0-.27.04-.09.12-.14.21-.17l2.76-.56c.17-.03.33.08.36.24.03.17-.08.33-.24.36l-2.37.49,4.43,10c.07.16,0,.34-.15.41-.04.02-.09.03-.13.03Z"/>
      <path class="cls-1" d="M.31,6.03C.31,1.34,4.63-.06,9.61.39c6.65.61,31.93,10,13.9,10.09-2.07,0-5.27-.36-9.01-.73-3.33-.34-7.74.5-10.63.54-3.2.05-3.55-1.27-3.55-4.26Z"/>
      <path class="cls-2" d="M12.75,9.36c.61,0,1.21.03,1.77.08l1.71.17c2.97.3,5.52.55,7.27.57,5.59-.03,6.06-.98,6.08-1.26.09-2.36-14.68-7.74-20-8.22-3.33-.3-5.99.29-7.47,1.64-.98.9-1.48,2.14-1.48,3.69h0c0,1.66.12,2.74.71,3.32.46.45,1.28.66,2.53.63,1.07-.02,2.36-.15,3.72-.28,1.66-.17,3.49-.35,5.17-.35h0ZM23.41,10.79c-1.75,0-4.3-.26-7.24-.56l-1.71-.18c-2.05-.21-4.58.04-6.81.26-1.37.14-2.68.27-3.77.29-1.47.02-2.37-.23-2.97-.81C.15,9.05.01,7.89,0,6.03h0c0-1.73.57-3.13,1.68-4.14C3.76-.01,7.14-.14,9.63.08c4.81.43,20.69,5.76,20.56,8.86-.05,1.23-2.18,1.82-6.68,1.85h-.1Z"/>
    </g>
  </g>
</svg>