<?xml version="1.0" encoding="UTF-8"?>
<svg id="Layer_2" data-name="Layer 2" xmlns="http://www.w3.org/2000/svg" viewBox="0 0 32.75 43" fill="currentColor">
  <defs>
    <style>
      .cls-1 {
        fill: #fff;
      }

      .cls-1, .cls-2, .cls-3, .cls-4 {
        fill-rule: evenodd;
      }

      .cls-2 {
        fill: #1a87c7;
      }

      .cls-3 {
        fill: #bdedf8;
      }

      .cls-4 {
        fill: #66ceef;
      }
    </style>
  </defs>
  <g id="_Layer_" data-name="&amp;lt;Layer&amp;gt;">
    <g>
      <path class="cls-1" d="M7.78,13.33c.13-.16.47-.51.58-.68.18-.31.18-.43.21-.81,1.62,1.85,5.4,2.95,6.84.31h0c.39.97-.76,2.86-2.25,3.42-1.1.42-2.78.16-3.64-.62l-1.44-1.31-.29-.31Z"/>
      <path class="cls-2" d="M8.2,13.32l.11.12,1.41,1.29c.73.68,2.31.94,3.33.56.92-.35,1.65-1.22,1.94-1.92.05-.09.08-.2.1-.3-.52.53-1.2.85-2.02.94-1.44.15-3.14-.48-4.3-1.52-.03.09-.08.2-.16.32-.08.12-.21.28-.39.49,0,0-.03.02-.03.02h0ZM11.97,16.07c-1,0-2.04-.32-2.67-.89l-1.44-1.32-.29-.34c-.11-.11-.11-.28-.03-.39.05-.06.13-.16.21-.25.13-.12.29-.31.34-.39.13-.22.13-.29.16-.57l.03-.11c0-.12.08-.23.21-.26.1-.03.24,0,.31.09,1.02,1.17,2.78,1.89,4.22,1.75.94-.09,1.65-.57,2.1-1.38.08-.11.18-.17.29-.17.13.01.24.08.29.19.16.42.13.98-.13,1.57-.45,1.01-1.34,1.89-2.31,2.26-.39.14-.84.21-1.28.21Z"/>
      <path class="cls-1" d="M14.51,13.41c.6-.58,1.1-1.64,1.57-2.61.66-1.33.63-2.84.63-4.06l-.24-.72c-.08-.3-.08-.62-.08-.91,0-.4-.03-.77-.21-.95-.34-.3-.86.16-1.47.69-.42.36-.86.76-1.34,1.04-.63.36-1.96.58-2.41.96-.45.38-.42.7-.42,1.24s.03,1.02-.29,2.13c-.05-.33-.13-.68-.29-.98-.11-.22-.26-.43-.5-.57-.16-.09-.34-.13-.5-.11-.18.03-.34.12-.47.25-.18.18-.29.42-.34.66-.05.24-.03.5.03.73.08.37.29.8.45,1.11.08.11,0,.38-.05.53,1.15,1.31,2.83,2.22,4.19,2.22.58,0,1.28-.24,1.73-.67Z"/>
      <path class="cls-2" d="M8.93,11.78c1.1,1.19,2.62,1.98,3.85,1.98h0c.55,0,1.15-.24,1.52-.57h0c.52-.51.97-1.44,1.42-2.34l.08-.19c.6-1.18.6-2.52.6-3.69v-.17l-.21-.68c-.11-.36-.11-.7-.11-1.01s0-.62-.1-.72c-.13-.12-.73.41-1.05.7-.42.36-.89.78-1.42,1.08-.31.18-.73.32-1.18.46-.45.14-.97.3-1.15.47-.34.28-.34.46-.31.95v.14c0,.5,0,1.05-.31,2.14-.03.14-.16.23-.31.22-.13-.01-.26-.11-.29-.26-.05-.36-.13-.65-.24-.88-.08-.15-.21-.34-.37-.44-.11-.06-.24-.09-.34-.07-.11.02-.21.08-.29.17-.13.12-.21.3-.24.51-.05.18-.03.39,0,.6.08.27.21.62.45,1.03.03.05.1.2,0,.6h0ZM12.78,14.38c-1.41,0-3.2-.93-4.43-2.31-.08-.09-.11-.2-.05-.3.05-.17.08-.3.05-.34-.24-.42-.39-.82-.47-1.14-.05-.3-.08-.58-.03-.85.08-.33.21-.62.42-.83.18-.18.42-.29.65-.34.24-.03.5,0,.71.14.21.13.42.34.58.61.03-.33.03-.58.03-.83v-.08c0-.6-.03-1.02.55-1.48.29-.25.81-.42,1.36-.59.39-.12.81-.25,1.07-.41.45-.26.89-.65,1.28-1,.68-.61,1.34-1.18,1.86-.7.31.28.31.73.34,1.17,0,.27,0,.57.08.84l.21.71v.31c0,1.18,0,2.66-.63,3.96l-.1.19c-.47.95-.94,1.93-1.55,2.51-.47.45-1.23.75-1.94.75h0Z"/>
      <path class="cls-1" d="M7.13,3.45c-1.07,1.96-.42,7.33,1.44,8.49.03-.1.16-.48.08-.62-.16-.31-.37-.74-.45-1.11-.42-1.76,1.7-2.6,2.07.01.31-1.11.29-1.61.29-2.13,0-.55-.03-.86.42-1.24.29-.24.65-.34,1.05-.45h0c.42-.12.86-.23,1.36-.51.47-.28.92-.68,1.34-1.04.6-.53,1.13-.99,1.47-.69.18.18.21.55.21.95,0,.3,0,.62.08.91l.24.72c.05-.95.03-2.06-.11-2.96-.24-1.75-1.02-1.82-3.2-2.96-.34-.18-.79-.49-1.47-.5-1.62-.05-4.03,1.84-4.82,3.14Z"/>
      <path class="cls-2" d="M7.39,3.61c-.89,1.64-.45,6.09.92,7.68-.21-.37-.34-.72-.42-1.01-.13-.69.03-1.36.47-1.74.31-.28.73-.36,1.1-.22.21.07.5.25.76.69.03-.33.03-.58.03-.83v-.08c0-.6-.03-1.02.55-1.48.34-.29.73-.4,1.15-.51.42-.11.84-.23,1.28-.49.45-.26.89-.65,1.28-1,.66-.58,1.28-1.13,1.81-.75v-.05c-.21-1.3-.68-1.53-2.07-2.23-.29-.14-.63-.3-1-.5l-.13-.08c-.31-.18-.68-.37-1.18-.39-1.52-.04-3.8,1.77-4.56,2.99h0ZM8.57,12.25c-.05,0-.1-.02-.16-.04-1.97-1.24-2.7-6.82-1.57-8.9,0-.01.03-.01.03-.02C7.7,1.93,10.24-.08,11.97,0c.66.03,1.1.28,1.44.47l.16.07c.34.19.68.36.94.5,1.44.71,2.17,1.08,2.41,2.69.13.88.16,1.98.08,3.03,0,.15-.1.27-.26.29-.16,0-.29-.08-.31-.22l-.24-.72c-.11-.36-.11-.7-.11-1.01s0-.62-.1-.72c-.13-.12-.73.41-1.05.7-.42.36-.89.78-1.42,1.08-.5.3-.97.42-1.41.54-.37.1-.68.19-.92.39-.34.28-.34.46-.31.95v.14c0,.5,0,1.05-.31,2.14-.03.14-.16.23-.31.22-.13-.01-.26-.11-.29-.26-.1-.72-.37-1.23-.71-1.36-.24-.09-.39.04-.5.11-.21.18-.37.57-.26,1.13.08.27.21.62.45,1.03.13.25,0,.7-.08.87-.03.09-.11.16-.18.18-.05,0-.08.02-.11.02Z"/>
      <path class="cls-4" d="M7.78,13.33h0c-1.41,1.83-3.98,3.09-4.27,5.62-.03.69,0,10.86,0,11.54,0,3.77,8.3.69,10.01-4.37,2.73-.12,6.18-1.91,6.18-3.46v-8.75c0-1.84-2.28-2.51-3.85-2.64-.13.3-.29.59-.45.89.47,4.43-5.87,3.05-7.62,1.17Z"/>
      <path class="cls-2" d="M7.81,13.78c-.42.51-.94.99-1.44,1.44-1.23,1.11-2.38,2.16-2.54,3.76-.03.56,0,8.13,0,10.61v.9c0,.77.37,1.21,1.15,1.34,2.25.36,7.05-2.2,8.23-5.81.05-.12.16-.2.29-.21,2.65-.12,5.9-1.86,5.9-3.15v-8.75c0-1.76-2.46-2.22-3.35-2.32-.1.21-.21.42-.31.63.16,1.75-.71,2.52-1.47,2.87-1.83.83-4.95-.02-6.45-1.3h0ZM5.42,32.47c-.18,0-.37,0-.55-.03-1.07-.18-1.68-.87-1.68-1.95v-.9c0-2.75,0-10.06.03-10.66.18-1.85,1.47-3.03,2.72-4.17.6-.54,1.15-1.06,1.6-1.63.05-.07.16-.11.24-.12.08.01.18.04.24.1,1.15,1.23,4.32,2.16,5.97,1.4.86-.38,1.23-1.17,1.1-2.34,0-.06,0-.12.03-.17.16-.29.31-.58.47-.88.05-.11.16-.18.29-.18,1.99.18,4.14,1.04,4.14,2.96v8.75c0,1.75-3.49,3.54-6.29,3.75-1.31,3.57-5.71,6.06-8.31,6.06Z"/>
      <path class="cls-4" d="M7.86,13.41l-.05-.09s.03.06.05.09Z"/>
      <path class="cls-2" d="M7.86,13.72c-.08,0-.16-.03-.21-.09l-.08-.1c-.11-.12-.11-.31.03-.42.11-.12.31-.11.42,0l.08.08c.1.12.1.31,0,.43-.08.06-.16.09-.24.09Z"/>
      <polygon class="cls-3" points="28.95 29.18 23.66 26.13 7.91 35.23 13.2 38.28 28.95 29.18"/>
      <path class="cls-2" d="M8.51,35.23l4.69,2.69,15.12-8.74-4.66-2.69-15.14,8.74h0ZM13.2,38.59c-.05,0-.11-.01-.16-.04l-5.29-3.06c-.11-.05-.16-.15-.16-.26,0-.11.05-.22.16-.27l15.77-9.1c.08-.05.21-.05.29,0l5.29,3.05c.1.06.16.16.16.27s-.05.21-.16.27l-15.77,9.1c-.05.03-.08.04-.13.04Z"/>
      <path class="cls-4" d="M13.2,38.28l-5.29-3.05v4.41l5.29,3.05v-4.42Z"/>
      <path class="cls-2" d="M8.23,39.46l4.66,2.7v-3.71l-4.66-2.7v3.7h0ZM13.2,43c-.05,0-.11,0-.16-.04l-5.29-3.05c-.11-.06-.16-.16-.16-.27v-4.41c0-.11.05-.22.16-.27.08-.05.21-.05.31,0l5.27,3.05c.11.06.16.16.16.27v4.42c0,.11-.05.21-.16.27-.05.03-.08.04-.13.04Z"/>
      <path class="cls-3" d="M28.95,33.6v-4.41l-15.75,9.1v4.42l15.75-9.1Z"/>
      <path class="cls-2" d="M13.49,38.46v3.71l15.14-8.74v-3.71l-15.14,8.75h0ZM13.2,43c-.05,0-.11,0-.16-.04-.1-.06-.16-.15-.16-.27v-4.42c0-.11.05-.21.16-.27l15.75-9.1c.11-.05.21-.05.31,0,.1.06.16.16.16.27v4.41c0,.11-.05.21-.16.27l-15.77,9.1c-.05.03-.08.04-.13.04Z"/>
      <polygon class="cls-1" points="32.43 24.06 23.05 18.64 .31 31.76 9.69 37.18 32.43 24.06"/>
      <path class="cls-2" d="M.92,31.76l8.78,5.07,22.14-12.77-8.78-5.07L.92,31.76h0ZM9.69,37.5c-.05,0-.1-.02-.16-.04L.16,32.03c-.1-.05-.16-.16-.16-.27,0-.11.05-.21.16-.26l22.74-13.13c.1-.05.21-.05.31,0l9.38,5.42c.1.05.16.16.16.27,0,.1-.05.21-.16.26l-22.74,13.13c-.05.03-.11.04-.16.04Z"/>
      <polygon class="cls-4" points="9.69 37.18 .31 31.76 .31 35.86 9.69 41.28 9.69 37.18"/>
      <path class="cls-2" d="M.6,35.68l8.8,5.07v-3.38L.6,32.3v3.38h0ZM9.69,41.59c-.05,0-.1-.02-.16-.04L.16,36.13c-.1-.05-.16-.16-.16-.26v-4.1c0-.11.05-.21.16-.26.1-.06.21-.06.31,0l9.38,5.42c.1.05.16.15.16.26v4.09c0,.11-.05.22-.16.27-.05.03-.11.04-.16.04Z"/>
      <polygon class="cls-3" points="9.69 41.28 32.43 28.15 32.43 24.06 9.69 37.18 9.69 41.28"/>
      <path class="cls-2" d="M10.01,37.37v3.38l22.14-12.78v-3.38l-22.14,12.78h0ZM9.69,41.59c-.05,0-.1-.02-.16-.04-.08-.05-.13-.16-.13-.27v-4.09c0-.11.05-.21.13-.26l22.74-13.13c.1-.05.24-.05.31,0,.1.05.16.16.16.27v4.09c0,.11-.05.21-.16.26l-22.74,13.13c-.05.03-.11.04-.16.04Z"/>
      <path class="cls-3" d="M10.3,24.42c.58,0,1.02-.45,1.02-1s-.45-1-1.02-1-.97.45-.97,1,.42,1,.97,1Z"/>
      <path class="cls-2" d="M10.3,22.73c-.37,0-.68.3-.68.69s.31.69.68.69c.39,0,.71-.3.71-.69s-.31-.69-.71-.69h0ZM10.3,24.72c-.71,0-1.28-.58-1.28-1.3s.58-1.31,1.28-1.31,1.31.58,1.31,1.31-.58,1.3-1.31,1.3Z"/>
      <path class="cls-2" d="M7.31,28.04h-.03c-.18-.02-.31-.15-.29-.33l.29-4.92c.03-.17.18-.3.34-.29.16.02.29.15.29.33l-.31,4.92c0,.17-.13.3-.29.3Z"/>
      <path class="cls-2" d="M17.92,21.78c-.18,0-.31-.13-.31-.29l-.18-3.35c0-.18.13-.32.29-.33.16,0,.31.12.34.3l.16,3.35c.03.17-.11.31-.29.32h0Z"/>
      <polygon class="cls-1" points="13.41 30.42 10.56 28.77 7.18 30.73 10.03 32.38 13.41 30.42"/>
      <path class="cls-2" d="M7.78,30.73l2.25,1.3,2.78-1.6-2.25-1.29-2.78,1.6h0ZM10.03,32.69c-.05,0-.11-.02-.16-.04l-2.86-1.65c-.1-.06-.16-.15-.16-.27s.05-.21.16-.27l3.38-1.96c.11-.05.21-.05.32,0l2.86,1.66c.11.05.16.16.16.26,0,.11-.05.22-.16.27l-3.38,1.96c-.05.03-.11.04-.16.04Z"/>
      <polygon class="cls-3" points="10.03 32.38 7.18 30.73 7.18 31.76 10.03 33.41 10.03 32.38"/>
      <path class="cls-2" d="M7.49,31.58l2.23,1.3v-.32l-2.23-1.3v.32h0ZM10.03,33.73c-.05,0-.11-.02-.16-.04l-2.86-1.65c-.1-.06-.16-.16-.16-.27v-1.04c0-.11.05-.21.16-.27.1-.05.21-.05.31,0l2.86,1.66c.1.05.16.16.16.26v1.03c0,.11-.05.22-.16.27-.05.03-.11.04-.16.04Z"/>
      <polygon class="cls-1" points="13.41 31.46 13.41 30.42 10.03 32.38 10.03 33.41 13.41 31.46"/>
      <path class="cls-2" d="M13.41,31.46h.03-.03ZM10.35,32.56v.32l2.78-1.6v-.32l-2.78,1.6h0ZM10.03,33.73c-.05,0-.11-.02-.16-.04-.08-.05-.16-.16-.16-.27v-1.03c0-.11.08-.21.16-.26l3.41-1.95c.08-.06.21-.06.29,0,.11.05.16.16.16.26v1.04c0,.11-.05.22-.16.27l-3.38,1.95c-.05.03-.11.04-.16.04Z"/>
      <path class="cls-2" d="M9.43,31.41c-.18,0-.31-.13-.31-.3-.05-4.29.18-6.72.73-7.64.08-.15.26-.19.42-.11.13.09.18.28.11.42-.47.8-.71,3.26-.66,7.32,0,.17-.13.31-.29.31h0Z"/>
      <path class="cls-2" d="M10.56,30.14c-.11,0-.21-.05-.26-.16-.08-.15-.03-.33.1-.42l.13-.06c.13-.09.31-.04.42.11.08.15.03.34-.13.42l-.1.06c-.05.03-.11.05-.16.05Z"/>
      <path class="cls-1" d="M19.62,21.95c-.11-.03-.24-.03-.39,0h0c-.13.03-.26.09-.37.18l-3.98,3.35c-.1.09-.13.18-.1.26,0,.08.08.15.21.19l7.44,2.87c.1.03.26.03.39.01h0c.13-.04.29-.1.37-.18l3.98-3.43c.1-.09.13-.18.13-.26-.03-.08-.11-.15-.21-.19l-7.47-2.8Z"/>
      <path class="cls-2" d="M15.14,25.67l7.39,2.85s.13,0,.21,0c.11-.02.18-.06.24-.11l3.93-3.39-7.36-2.77c-.08,0-.16,0-.24.01-.08.02-.18.06-.24.11l-3.93,3.31h0ZM22.61,29.15c-.1,0-.18-.02-.29-.04l-7.44-2.88c-.21-.07-.37-.22-.42-.41-.03-.19.03-.4.21-.56l4.01-3.36c.11-.11.29-.2.5-.24.18-.04.37-.04.55,0t.03,0l7.44,2.8c.21.07.37.21.39.41.05.2-.03.4-.21.56l-3.98,3.44c-.13.11-.31.2-.5.24-.11.02-.18.03-.29.03Z"/>
      <path class="cls-1" d="M10.98,25.62l5.19-3.01c.24-.14.63-.14.86,0l5.4,3.12.34,2.12c-1.23,1.2-2.36,1.72-3.88,2.58-.26.15-.6.15-.86,0l-7.07-4.08c-.37-.21-.47-.46.03-.74Z"/>
      <path class="cls-2" d="M10.95,26s.08.04.16.09l7.07,4.08c.16.09.39.09.58,0,.26-.16.52-.3.79-.45,1.1-.61,1.96-1.08,2.91-1.97l-.29-1.81-5.29-3.05c-.13-.08-.42-.08-.55,0l-5.19,3.01h0c-.1.06-.16.1-.18.12h0ZM18.47,30.85c-.21,0-.42-.05-.6-.14l-7.07-4.08c-.31-.18-.47-.39-.47-.63s.18-.46.5-.64l5.19-3.01c.34-.19.84-.19,1.18,0l5.4,3.12c.08.05.13.13.16.22l.34,2.13c0,.09-.03.2-.1.27-1.02,1-1.99,1.55-3.12,2.17-.26.15-.52.3-.81.45-.18.09-.39.15-.58.15Z"/>
      <path class="cls-1" d="M20.96,26.03l.79-.46c.39-.24.68-.33.73.17l.29,2.11c-.63-.99-1.13-1.34-1.81-1.82Z"/>
      <path class="cls-2" d="M21.51,26.05c.29.21.55.42.81.69l-.13-.96s-.03-.06-.03-.09c-.05.02-.13.06-.23.13l-.42.23h0ZM22.77,28.16c-.11,0-.18-.05-.26-.14-.6-.96-1.05-1.27-1.73-1.75-.08-.06-.13-.16-.13-.27,0-.11.05-.2.16-.25l.79-.46c.26-.16.58-.31.84-.18.29.14.34.47.37.58l.29,2.11c.03.15-.05.29-.21.34-.03,0-.05.02-.1.02Z"/>
      <path class="cls-2" d="M15.01,27.82c-.1,0-.21-.06-.26-.16-.08-.15-.03-.34.13-.42l2.99-1.74c.16-.09.34-.04.42.11.08.15.05.34-.11.42l-3.01,1.73c-.05.02-.1.04-.16.04Z"/>
      <path class="cls-2" d="M15.98,28.43c-.11,0-.21-.05-.26-.16-.11-.15-.05-.33.1-.42l3.8-2.2c.16-.09.34-.03.42.11.11.15.05.33-.1.42l-3.8,2.2c-.05.03-.11.04-.16.04Z"/>
      <path class="cls-2" d="M17.21,29.01c-.1,0-.21-.06-.26-.16-.08-.15-.03-.34.11-.42l3.12-1.79c.13-.09.31-.03.42.11.08.15.03.34-.13.42l-3.09,1.79c-.05.03-.11.04-.16.04Z"/>
      <path class="cls-2" d="M18.29,29.63c-.13,0-.24-.05-.29-.16-.08-.15-.03-.33.13-.42l2.88-1.68c.16-.09.34-.03.42.11.1.15.05.33-.11.42l-2.91,1.68s-.08.04-.13.04Z"/>
      <path class="cls-2" d="M11.74,10.08c-.05,0-.08,0-.13-.03l-1.99-.88c-.13-.07-.21-.25-.13-.41.05-.16.24-.22.39-.16l1.99.88c.16.07.21.25.16.41-.05.11-.18.18-.29.18Z"/>
      <path class="cls-1" d="M14.67,7.81c.76-.42,1.41-.8,2.2-1.26l.16-.1c.16-.09.24-.12.24.11v1.13c0,.14-.03.3-.13.45h0c-.08.14-.18.27-.31.34l-1.44.84c-.21.11-.37.12-.5.05-.13-.07-.21-.23-.21-.44v-1.12Z"/>
      <path class="cls-2" d="M14.99,8v.94c0,.1.03.16.05.17,0,0,.08,0,.18-.04l1.44-.83c.08-.05.16-.13.21-.24.05-.1.11-.22.11-.3v-.85l-1.99,1.15h0ZM15.06,9.74c-.11,0-.24-.04-.34-.09-.21-.13-.34-.39-.34-.71v-1.12c0-.1.05-.21.16-.26l2.33-1.37c.13-.06.29-.17.5-.07.18.1.21.32.21.42v1.16c0,.19-.05.41-.16.6-.13.2-.29.37-.45.46l-1.47.84c-.13.09-.31.14-.44.14Z"/>
      <path class="cls-1" d="M14.41,7.97v1.11c0,.22-.08.46-.18.68-.13.22-.31.41-.5.51l-1.44.84c-.13.07-.24.08-.34.03h0c-.08-.04-.13-.15-.13-.3v-1.13c0-.22.05-.28.21-.37l.21-.12c.79-.44,1.47-.84,2.17-1.25Z"/>
      <path class="cls-2" d="M12.13,9.65v1.2l1.44-.83c.13-.08.29-.23.37-.4.11-.18.18-.37.18-.53v-.58l-1.94,1.11s-.05.03-.05.03h0ZM12.08,11.48c-.1,0-.18-.02-.29-.07-.18-.1-.29-.31-.29-.57v-1.1c0-.38.13-.53.37-.67l2.41-1.38c.08-.05.21-.05.29,0,.11.05.16.16.16.27v1.11c0,.27-.08.56-.24.83-.16.27-.37.5-.6.63l-1.44.84c-.13.07-.26.1-.37.1Z"/>
      <path class="cls-1" d="M12.55,13.14c.47-.27,1.76-.88,2.12-1.56.39.23,1.68-.64,2.15-.9-.29-.71-1.78-.49-2.15.17-.37-.23-1.84,1.26-2.12,2.3Z"/>
      <path class="cls-2" d="M14.51,11.1c-.13.03-.79.62-1.26,1.27.47-.27.97-.62,1.15-.95.05-.08.1-.13.21-.15.08-.02.16,0,.24.03.21.05,1.1-.49,1.47-.71-.08-.03-.21-.05-.26-.05-.45-.03-.97.18-1.1.45-.05.07-.11.12-.21.14-.08.03-.16,0-.24-.03h0ZM12.55,13.44c-.08,0-.13-.03-.18-.06-.11-.08-.16-.21-.13-.33.26-.94,1.41-2.22,2.07-2.48.08-.03.16-.05.24-.06.37-.42,1.05-.62,1.54-.58.5.03.86.26,1.02.62.05.15,0,.31-.13.39-.08.04-.16.1-.26.16-.79.48-1.47.85-1.89.83-.45.57-1.34,1.05-1.86,1.34-.11.05-.21.1-.26.14-.05.02-.1.04-.16.04Z"/>
      <path class="cls-2" d="M10.58,7.72h-.03c-.16,0-.29-.15-.29-.32.05-1.5-.89-1.62-1.73-1.74l-.47-.06c-.44-.07-1-.15-1.1-.06-.03.02-.05.06-.05.16,0,.17-.13.31-.31.3-.16-.01-.29-.15-.29-.32,0-.27.08-.47.26-.61.31-.27.84-.19,1.6-.08l.39.05c.89.12,2.41.33,2.33,2.39-.03.17-.16.3-.31.3Z"/>
    </g>
  </g>
</svg>