<?xml version="1.0" encoding="UTF-8"?>
<svg id="Layer_2" data-name="Layer 2" xmlns="http://www.w3.org/2000/svg" viewBox="0 0 40.92 34.69" fill="currentColor">
  <defs>
    <style>
      .cls-1 {
        fill: #fff;
      }

      .cls-1, .cls-2, .cls-3, .cls-4 {
        fill-rule: evenodd;
      }

      .cls-2 {
        fill: #1a87c7;
      }

      .cls-3 {
        fill: #bdedf8;
      }

      .cls-4 {
        fill: #66ceef;
      }
    </style>
  </defs>
  <g id="_Layer_" data-name="&amp;lt;Layer&amp;gt;">
    <g>
      <polygon class="cls-3" points="37.77 3.62 32.02 .31 3.16 16.97 8.9 20.29 37.77 3.62"/>
      <path class="cls-2" d="M3.77,16.97l5.13,2.96L37.15,3.62l-5.13-2.96L3.77,16.97h0ZM8.9,20.6c-.05,0-.11,0-.16-.04l-5.75-3.31c-.09-.05-.16-.16-.16-.27,0-.1.06-.21.16-.27L31.87.04c.09-.05.21-.05.3,0l5.75,3.31c.1.06.15.16.15.27s-.05.21-.15.27L9.05,20.55s-.09.04-.15.04Z"/>
      <polygon class="cls-4" points="8.9 20.29 3.16 16.97 .31 27.78 11.74 34.38 8.9 20.29"/>
      <path class="cls-2" d="M.66,27.64l10.65,6.15-2.69-13.3-5.28-3.04L.66,27.64h0ZM11.74,34.69c-.05,0-.1-.02-.15-.04L.16,28.04c-.12-.07-.18-.21-.15-.34l2.85-10.81c.02-.1.09-.17.17-.21.1-.03.19-.03.27.02l5.75,3.32c.08.05.13.12.15.21l2.85,14.09c.03.12-.03.24-.12.31-.05.04-.12.06-.18.06Z"/>
      <polygon class="cls-1" points="40.62 17.72 37.77 3.62 8.9 20.29 11.74 34.38 40.62 17.72"/>
      <path class="cls-2" d="M9.24,20.45l2.72,13.46,28.31-16.34-2.72-13.46L9.24,20.45h0ZM11.74,34.69s-.09,0-.12-.03c-.09-.04-.16-.12-.18-.22l-2.84-14.1c-.03-.13.03-.26.15-.33L37.61,3.35c.09-.04.19-.05.28,0,.09.03.16.12.18.22l2.84,14.1c.03.13-.03.26-.15.32l-28.87,16.67s-.1.04-.16.04Z"/>
      <path class="cls-3" d="M35.38,19.1c-.32-1.66-.65-3.33-.98-5-.33-1.67-.66-3.34-.99-5.01.33-.19.66-.39,1-.58.33,1.67.66,3.34.98,5.01.33,1.67.66,3.34.99,5-.33.19-.67.38-1,.57Z"/>
      <path class="cls-2" d="M33.76,9.25l1.85,9.37.43-.25-1.84-9.37-.44.25h0ZM35.38,19.41s-.09-.01-.12-.03c-.1-.04-.16-.12-.17-.23l-1.98-10c-.02-.13.03-.26.15-.33l1-.58c.09-.04.19-.05.28,0,.09.03.16.12.18.22l1.97,10.01c.03.13-.04.26-.15.32l-1,.58s-.09.04-.16.04Z"/>
      <path class="cls-3" d="M27.49,23.71c.3-1.14.62-2.3.93-3.44.31-1.15.63-2.3.93-3.44-.58-.56-1.17-1.11-1.75-1.67-.58-.56-1.17-1.11-1.75-1.67.39-.23.78-.45,1.18-.69.3.3.62.59.93.89.31.3.63.59.94.88.39.36.66.65.83.87.1-.45.23-.94.37-1.46.17-.59.32-1.18.49-1.77.16-.58.32-1.17.48-1.76.36-.22.72-.43,1.08-.64-.27,1.05-.56,2.1-.82,3.14-.28,1.04-.56,2.09-.84,3.14.64.61,1.28,1.21,1.92,1.81.64.61,1.28,1.21,1.91,1.81-.4.24-.81.48-1.21.71-.43-.41-.87-.83-1.3-1.23-.42-.41-.86-.83-1.29-1.23-.15-.14-.29-.28-.43-.43-.1.43-.17.74-.22.91-.2.76-.41,1.53-.61,2.29-.2.76-.41,1.53-.61,2.28-.39.24-.79.47-1.18.7Z"/>
      <path class="cls-2" d="M26.37,13.56l3.2,3.05c.08.08.11.2.09.3l-1.68,6.15.44-.25,1.18-4.45c.04-.17.11-.48.22-.9.03-.11.1-.2.22-.23.11-.03.23,0,.3.09.13.14.27.28.41.41l2.43,2.31.66-.38c-.55-.51-1.09-1.02-1.62-1.53l-1.92-1.81c-.09-.08-.11-.19-.09-.3l1.47-5.55-.33.19-.94,3.42c-.15.52-.27,1.01-.37,1.45-.03.11-.11.21-.22.23-.12.03-.24-.02-.31-.11-.17-.21-.44-.5-.8-.83l-1.7-1.62-.63.36h0ZM27.49,24.02c-.07,0-.14-.03-.19-.07-.09-.07-.14-.2-.11-.32l1.82-6.7-3.36-3.21c-.07-.07-.1-.16-.09-.26,0-.09.07-.18.15-.23l1.18-.69c.11-.07.27-.05.36.04l1.87,1.76c.18.16.33.31.46.45.07-.29.16-.59.24-.91l.97-3.54c.02-.08.07-.14.14-.18l1.09-.64c.1-.06.23-.05.34.03.09.07.14.2.11.32l-1.62,6.1,1.78,1.69c.64.6,1.28,1.2,1.92,1.81.07.06.1.15.1.25-.02.11-.07.18-.16.24l-1.21.71c-.12.06-.27.05-.37-.04l-2.59-2.47s-.03-.03-.04-.04c-.03.17-.07.29-.09.38l-1.21,4.57c-.03.09-.08.15-.15.19l-1.19.69s-.09.04-.15.04Z"/>
      <path class="cls-3" d="M21.8,22.45c.84-.5,1.7-.99,2.55-1.49l-2.12-3.83-.42,5.32h0ZM20.45,27.81c.15-1.95.3-3.9.45-5.84.15-1.95.3-3.89.44-5.84.37-.22.73-.43,1.1-.64.83,1.38,1.67,2.75,2.5,4.12.83,1.37,1.68,2.74,2.51,4.11-.37.22-.75.44-1.12.66-.24-.43-.5-.84-.74-1.27-.24-.42-.49-.84-.73-1.26-1.05.61-2.1,1.23-3.15,1.83-.05.58-.08,1.17-.11,1.76-.03.58-.07,1.17-.1,1.75-.35.21-.7.42-1.05.62h0Z"/>
      <path class="cls-2" d="M22.45,18.16l-.3,3.72,1.78-1.03-1.48-2.69h0ZM21.8,22.75c-.06,0-.12-.02-.16-.04-.11-.06-.16-.17-.15-.29l.43-5.32c.02-.14.11-.25.24-.28.14-.03.27.04.34.15l2.12,3.83c.08.15.03.34-.11.42l-2.56,1.49s-.09.04-.15.04h0ZM21.64,16.31l.69-.4,4.7,7.71-.58.34-.04-.07c-.18-.31-.36-.62-.54-.92l-.73-1.27c-.04-.07-.1-.12-.18-.14-.09-.03-.17-.02-.24.03l-3.14,1.83c-.09.05-.15.15-.16.25l-.2,3.34-.41.24.84-10.93h0ZM20.45,28.11c-.06,0-.11,0-.17-.04-.1-.06-.15-.17-.14-.29l.9-11.68c.01-.11.07-.19.16-.24l1.09-.63c.14-.09.33-.04.42.1l5.02,8.24c.04.07.05.16.04.23-.03.08-.08.15-.15.19l-1.12.65c-.08.05-.16.05-.23.03-.08-.03-.15-.08-.19-.15l-.19-.33c-.18-.31-.37-.62-.54-.93l-.58-1-2.74,1.6-.21,3.35c0,.1-.06.19-.15.24l-1.05.62c-.05.03-.1.04-.15.04Z"/>
      <path class="cls-3" d="M17.57,29.49c-.29-1.47-.58-2.94-.87-4.41-.3-1.47-.58-2.95-.87-4.42-.83.48-1.65.96-2.47,1.44-.08-.39-.16-.78-.24-1.17.99-.57,1.97-1.15,2.96-1.73.98-.58,1.97-1.15,2.97-1.72.08.39.15.78.23,1.17-.82.48-1.65.95-2.47,1.43.29,1.48.58,2.95.87,4.42.29,1.47.58,2.94.87,4.42-.33.19-.66.38-.99.57Z"/>
      <path class="cls-2" d="M15.83,20.35s.08.01.12.03c.1.04.16.12.17.22l1.66,8.41.43-.25-1.7-8.62c-.03-.13.03-.26.15-.32l2.28-1.33-.11-.54-5.36,3.13.1.54,2.09-1.23s.1-.03.16-.03h0ZM17.57,29.8s-.09,0-.13-.03c-.09-.04-.16-.12-.18-.23l-1.66-8.4-2.09,1.22c-.09.05-.19.05-.29.02-.09-.04-.16-.13-.18-.22l-.22-1.17c-.03-.13.03-.26.14-.33l5.93-3.45c.09-.05.19-.05.28-.02.1.04.16.13.18.23l.23,1.17c.03.13-.03.26-.14.33l-2.28,1.32,1.69,8.62c.03.13-.03.26-.15.32l-.99.58c-.05.03-.1.04-.16.04Z"/>
    </g>
  </g>
</svg>