<?xml version="1.0" encoding="UTF-8"?>
<svg id="Layer_2" data-name="Layer 2" xmlns="http://www.w3.org/2000/svg" viewBox="0 0 35.76 48.93" fill="currentColor">
  <defs>
    <style>
      .cls-1 {
        fill: #fff;
      }

      .cls-1, .cls-2, .cls-3, .cls-4 {
        fill-rule: evenodd;
      }

      .cls-2 {
        fill: #1a87c7;
      }

      .cls-3 {
        fill: #bdedf8;
      }

      .cls-4 {
        fill: #66ceef;
      }
    </style>
  </defs>
  <g id="_Layer_" data-name="&amp;lt;Layer&amp;gt;">
    <g>
      <polygon class="cls-4" points="29.03 30.82 26.12 29.14 26.12 32.04 29.03 33.72 29.03 30.82"/>
      <path class="cls-2" d="M26.44,31.86l2.28,1.32v-2.19l-2.28-1.32v2.19h0ZM29.03,34.02c-.05,0-.11-.02-.16-.04l-2.88-1.68c-.11-.06-.16-.16-.16-.27v-2.9c0-.11.05-.21.16-.26.08-.05.21-.05.29,0l2.91,1.68c.11.06.16.16.16.27v2.9c0,.11-.05.21-.16.27-.05.03-.1.04-.16.04Z"/>
      <polygon class="cls-4" points="29.03 5.69 26.12 4.02 26.12 6.44 29.03 8.12 29.03 5.69"/>
      <path class="cls-2" d="M26.44,6.26l2.28,1.32v-1.72l-2.28-1.32v1.72h0ZM29.03,8.43c-.05,0-.11-.01-.16-.04l-2.88-1.68c-.11-.05-.16-.16-.16-.27v-2.43c0-.11.05-.21.16-.27.08-.06.21-.06.29,0l2.91,1.68c.11.05.16.15.16.27v2.43c0,.11-.05.21-.16.27-.05.03-.1.04-.16.04Z"/>
      <polygon class="cls-4" points="29.03 8.12 26.12 6.44 6.73 17.64 9.64 19.32 29.03 8.12"/>
      <path class="cls-2" d="M7.36,17.64l2.28,1.32,18.79-10.84-2.31-1.32L7.36,17.64h0ZM9.64,19.63c-.05,0-.1-.02-.16-.04l-2.91-1.68c-.11-.05-.16-.15-.16-.27s.05-.21.16-.26L25.99,6.18c.08-.06.21-.06.29,0l2.91,1.68c.11.05.16.16.16.26s-.05.21-.16.27l-19.39,11.2c-.05.03-.11.04-.16.04Z"/>
      <polygon class="cls-4" points="35.47 1.99 32.54 .31 26.12 4.02 29.03 5.69 35.47 1.99"/>
      <path class="cls-2" d="M26.75,4.02l2.28,1.32,5.82-3.35-2.3-1.32-5.79,3.35h0ZM29.03,6c-.05,0-.11-.01-.16-.04l-2.88-1.68c-.11-.06-.16-.16-.16-.27s.05-.21.16-.27L32.41.04c.08-.06.21-.06.29,0l2.91,1.68c.1.06.16.16.16.27s-.05.21-.16.27l-6.42,3.71c-.05.03-.1.04-.16.04Z"/>
      <polygon class="cls-3" points="9.64 44.91 9.64 42.02 29.03 30.82 29.03 33.72 35.47 30.01 35.47 1.99 29.03 5.69 29.03 8.12 9.64 19.32 9.64 16.89 3.22 20.6 3.22 48.62 9.64 44.91"/>
      <path class="cls-2" d="M3.54,20.78v27.31l5.79-3.35v-2.72c0-.11.05-.21.16-.27l19.39-11.2c.11-.05.21-.05.31,0,.11.06.16.16.16.27v2.36l5.82-3.35V2.52l-5.82,3.35v2.25c0,.11-.05.21-.16.27l-19.39,11.2c-.11.05-.21.05-.32,0-.1-.06-.16-.16-.16-.27v-1.89l-5.79,3.35h0ZM3.22,48.93c-.05,0-.11-.02-.16-.04-.11-.06-.16-.16-.16-.27v-28.02c0-.11.05-.21.16-.27l6.42-3.71c.11-.06.21-.06.32,0,.1.05.16.16.16.26v1.89L28.72,7.94v-2.25c0-.11.08-.21.16-.27l6.45-3.71c.08-.06.21-.06.29,0,.1.06.16.16.16.27v28.02c0,.11-.05.21-.16.26l-6.42,3.71c-.1.06-.21.06-.31,0-.08-.05-.16-.16-.16-.27v-2.36l-18.76,10.84v2.72c0,.11-.05.21-.16.27l-6.42,3.71c-.05.03-.1.04-.16.04Z"/>
      <polygon class="cls-1" points="10.19 21.23 28.35 10.76 28.35 28.99 10.19 39.46 10.19 21.23"/>
      <path class="cls-2" d="M10.51,21.41v17.52l17.53-10.12V11.29l-17.53,10.12h0ZM10.19,39.77c-.05,0-.11-.01-.16-.04-.08-.06-.16-.16-.16-.26v-18.23c0-.11.08-.21.16-.27l18.16-10.48c.11-.05.21-.05.29,0,.11.06.16.16.16.27v18.23c0,.11-.05.21-.16.27l-18.13,10.47c-.05.03-.1.04-.16.04Z"/>
      <polygon class="cls-4" points="14.7 21.33 25.99 21.23 14.7 34.17 14.7 21.33"/>
      <path class="cls-2" d="M15.01,21.63v11.72l10.27-11.81-10.27.09h0ZM14.7,34.48c-.05,0-.08,0-.1-.02-.13-.04-.21-.16-.21-.29v-12.85c0-.17.13-.31.31-.31l11.29-.09c.08.01.21.07.26.18.05.11.05.24-.03.33l-11.29,12.94c-.08.07-.16.11-.24.11Z"/>
      <path class="cls-4" d="M33.9,26.96c0,.47-.34,1.03-.73,1.27l-1.86,1.07c-.42.23-.73.04-.73-.42h0v-1.69c0-.47.31-1.04.73-1.27.63-.36,1.23-.72,1.86-1.07.39-.23.73-.04.73.42h0v1.69Z"/>
      <path class="cls-2" d="M33.48,25.06s-.11.02-.16.06l-1.86,1.07c-.32.18-.58.65-.58,1v1.69c0,.12.03.19.05.2.03.02.1.01.21-.05l1.86-1.07c.31-.18.58-.64.58-1v-1.69c0-.12-.03-.19-.05-.21-.03,0-.03,0-.05,0h0ZM30.97,29.71c-.1,0-.24-.03-.34-.09-.23-.14-.37-.4-.37-.74v-1.69c0-.57.39-1.25.89-1.54l1.86-1.07c.29-.16.58-.19.81-.05.23.13.37.4.37.74v1.69c0,.57-.39,1.25-.86,1.54l-1.86,1.07c-.16.09-.34.14-.5.14Z"/>
      <path class="cls-4" d="M33.9,7.82c0,.46-.34,1.03-.73,1.27l-1.86,1.07c-.42.23-.73.04-.73-.42h0s0-1.69,0-1.69c0-.47.31-1.04.73-1.27.63-.36,1.23-.72,1.86-1.07.39-.23.73-.04.73.42v1.69Z"/>
      <path class="cls-2" d="M33.48,5.91s-.11.02-.16.06l-1.86,1.07c-.32.18-.58.64-.58,1v1.69c0,.12.03.19.05.21.03.02.1,0,.21-.05l1.86-1.07c.31-.18.58-.65.58-1v-1.69c0-.12-.03-.19-.05-.21-.03,0-.03,0-.05,0h0ZM30.97,10.57c-.1,0-.24-.03-.34-.09-.23-.13-.37-.41-.37-.74v-1.69c0-.57.39-1.25.89-1.53l1.86-1.07c.29-.17.58-.19.81-.05.23.13.37.4.37.74v1.69c0,.57-.39,1.25-.86,1.54l-1.86,1.07c-.16.09-.34.14-.5.14Z"/>
      <path class="cls-4" d="M33.9,20.58c0,.47-.34,1.04-.73,1.27-.63.36-1.23.72-1.86,1.07-.42.23-.73.04-.73-.42h0v-1.69c0-.47.31-1.04.73-1.27.63-.36,1.23-.71,1.86-1.07.39-.23.73-.04.73.42h0v1.69Z"/>
      <path class="cls-2" d="M33.48,18.67s-.11.01-.16.06l-1.86,1.07c-.32.18-.58.65-.58,1v1.69c0,.12.03.19.05.2.03.02.1.01.21-.05l1.86-1.07c.31-.18.58-.64.58-1v-1.69c0-.12-.03-.19-.05-.21-.03,0-.03,0-.05,0h0ZM30.97,23.33c-.1,0-.24-.03-.34-.09-.23-.14-.37-.41-.37-.74v-1.69c0-.57.39-1.25.89-1.54l1.86-1.07c.29-.17.58-.19.81-.05.23.14.37.41.37.74v1.69c0,.57-.39,1.25-.86,1.54l-1.86,1.07c-.16.09-.34.14-.5.14Z"/>
      <path class="cls-4" d="M33.9,14.2c0,.47-.34,1.03-.73,1.27-.63.36-1.23.72-1.86,1.07-.42.23-.73.04-.73-.42h0v-1.69c0-.47.31-1.04.73-1.27.63-.36,1.23-.71,1.86-1.07.39-.23.73-.04.73.42h0v1.69Z"/>
      <path class="cls-2" d="M33.48,12.29s-.11.02-.16.06l-1.86,1.07c-.32.18-.58.65-.58,1v1.69c0,.12.03.19.05.21.03.02.1,0,.21-.05l1.86-1.07c.31-.18.58-.65.58-1v-1.69c0-.12-.03-.19-.05-.21-.03,0-.03,0-.05,0h0ZM30.97,16.95c-.1,0-.24-.03-.34-.09-.23-.13-.37-.4-.37-.74v-1.69c0-.57.39-1.25.89-1.54l1.86-1.07c.29-.17.58-.19.81-.05.23.14.37.41.37.74v1.69c0,.57-.39,1.25-.86,1.53l-1.86,1.07c-.16.09-.34.14-.5.14Z"/>
      <polygon class="cls-4" points="3.22 20.6 .31 18.92 .31 46.94 3.22 48.62 3.22 20.6"/>
      <path class="cls-2" d="M.62,46.77l2.29,1.32v-27.31l-2.29-1.32v27.31h0ZM3.22,48.93c-.05,0-.11-.02-.16-.04l-2.91-1.68c-.1-.06-.16-.15-.16-.27v-28.02c0-.11.06-.21.16-.26.09-.06.21-.06.3,0l2.92,1.68c.08.06.16.16.16.27v28.02c0,.11-.08.21-.16.27-.05.03-.1.04-.16.04Z"/>
      <polygon class="cls-4" points="9.64 16.89 6.73 15.21 .31 18.92 3.22 20.6 9.64 16.89"/>
      <path class="cls-2" d="M.93,18.92l2.29,1.32,5.79-3.35-2.28-1.32-5.8,3.35h0ZM3.22,20.91c-.05,0-.11-.02-.16-.04l-2.91-1.68c-.1-.05-.16-.16-.16-.27s.06-.21.16-.26l6.42-3.71c.1-.05.21-.05.31,0l2.91,1.68c.1.05.16.16.16.26s-.05.22-.16.27l-6.42,3.71c-.05.03-.1.04-.16.04Z"/>
      <path class="cls-4" d="M8.07,22.72c0,.46-.31,1.03-.73,1.27l-1.86,1.07c-.39.23-.73.05-.73-.42v-1.69c0-.47.34-1.03.73-1.27.63-.36,1.23-.71,1.86-1.07.42-.23.73-.04.73.42v1.69Z"/>
      <path class="cls-2" d="M7.68,20.82c-.05,0-.11.02-.18.06l-1.86,1.07c-.31.18-.58.65-.58,1v1.69c0,.12.03.19.05.21.03.02.1,0,.21-.05l1.86-1.07c.31-.18.58-.65.58-1v-1.69c0-.12-.03-.19-.05-.21,0,0-.03,0-.03,0h0ZM5.16,25.47c-.13,0-.24-.03-.34-.09-.24-.14-.37-.41-.37-.74v-1.69c0-.57.37-1.25.86-1.54l1.86-1.07c.29-.17.6-.19.84-.05.24.14.37.41.37.74v1.69c0,.57-.39,1.25-.89,1.54l-1.86,1.07c-.16.09-.31.14-.47.14Z"/>
      <path class="cls-4" d="M8.07,41.87c0,.47-.31,1.03-.73,1.27l-1.86,1.07c-.39.23-.73.04-.73-.42v-1.69c0-.47.34-1.04.73-1.27.63-.36,1.23-.71,1.86-1.07.42-.23.73-.04.73.42v1.69Z"/>
      <path class="cls-2" d="M7.68,39.96c-.05,0-.11.02-.18.06l-1.86,1.07c-.31.18-.58.64-.58,1v1.69c0,.12.03.19.05.21.03.02.1.01.21-.05l1.86-1.07c.31-.18.58-.64.58-1v-1.69c0-.12-.03-.19-.05-.21,0,0-.03,0-.03,0h0ZM5.16,44.62c-.13,0-.24-.03-.34-.09-.24-.13-.37-.4-.37-.74v-1.69c0-.57.37-1.25.86-1.54l1.86-1.07c.29-.17.6-.19.84-.05.24.13.37.4.37.74v1.69c0,.57-.39,1.25-.89,1.53l-1.86,1.07c-.16.09-.31.14-.47.14Z"/>
      <path class="cls-4" d="M8.07,35.49c0,.47-.31,1.04-.73,1.27-.63.36-1.23.71-1.86,1.07-.39.23-.73.04-.73-.42h0v-1.69c0-.47.34-1.04.73-1.27.63-.36,1.23-.71,1.86-1.07.42-.23.73-.04.73.42h0v1.69Z"/>
      <path class="cls-2" d="M7.68,33.58c-.05,0-.11.02-.18.06l-1.86,1.07c-.31.18-.58.65-.58,1v1.69c0,.12.03.19.05.21.05.02.13.01.21-.05l1.86-1.07c.31-.18.58-.65.58-1v-1.69c0-.12-.03-.19-.05-.21h-.03ZM5.16,38.24c-.13,0-.24-.03-.34-.09-.24-.14-.37-.41-.37-.74v-1.69c0-.57.37-1.25.86-1.54l1.86-1.07c.29-.17.6-.19.84-.05.24.14.37.41.37.74v1.69c0,.58-.39,1.25-.89,1.53l-1.86,1.07c-.16.09-.31.14-.47.14Z"/>
      <path class="cls-4" d="M8.07,29.11c0,.47-.31,1.04-.73,1.27-.63.36-1.23.72-1.86,1.07-.39.23-.73.04-.73-.42h0v-1.69c0-.46.34-1.03.73-1.27.63-.36,1.23-.71,1.86-1.07.42-.23.73-.04.73.42h0v1.69Z"/>
      <path class="cls-2" d="M7.68,27.2c-.05,0-.11.02-.18.06l-1.86,1.07c-.31.18-.58.65-.58,1v1.7c0,.12.03.19.05.2.05.02.13.01.21-.05l1.86-1.07c.31-.18.58-.65.58-1v-1.69c0-.12-.03-.19-.05-.21,0,0-.03,0-.03,0h0ZM5.16,31.85c-.13,0-.24-.03-.34-.09-.24-.14-.37-.41-.37-.74v-1.69c0-.57.37-1.25.86-1.53l1.86-1.07c.29-.17.6-.19.84-.05.24.14.37.41.37.74v1.69c0,.57-.39,1.25-.89,1.53l-1.86,1.07c-.16.1-.31.14-.47.14Z"/>
    </g>
  </g>
</svg>