<?xml version="1.0" encoding="UTF-8"?>
<svg id="Layer_2" data-name="Layer 2" xmlns="http://www.w3.org/2000/svg" viewBox="0 0 40.99 31.58" fill="currentColor">
  <defs>
    <style>
      .cls-1 {
        fill: #fff;
      }

      .cls-1, .cls-2, .cls-3, .cls-4 {
        fill-rule: evenodd;
      }

      .cls-2 {
        fill: #1a87c7;
      }

      .cls-3 {
        fill: #bdedf8;
      }

      .cls-4 {
        fill: #66ceef;
      }
    </style>
  </defs>
  <g id="_Layer_" data-name="&amp;lt;Layer&amp;gt;">
    <g>
      <path class="cls-4" d="M1.09,9.05c-.93,1.8-1.3,6.82.48,9.38,5.2,7.49,26.58,17.17,35.71,10.71,1.49-1.05,2.62-2.45,3.13-4.26.62-2.22.05-4.47-.34-6.06-.59,2.92-2.74,4.65-5.24,5.9-15.79,4.95-17.47-5.01-29.92-9.75-2.42-1.78-3.44-2.79-3.82-5.92Z"/>
      <path class="cls-2" d="M.97,10.27c-.56,2.17-.6,5.91.85,7.99,3.53,5.09,13.99,10.7,22.85,12.26,5.31.93,9.61.37,12.43-1.62,1.54-1.09,2.55-2.47,3.01-4.09.46-1.66.24-3.35-.07-4.77-1,2.65-3.32,4.08-5.07,4.96-10.57,3.32-15.05-.02-20.23-3.88-2.67-1.99-5.7-4.25-9.93-5.86-.03-.01-.05-.02-.07-.04-2.16-1.6-3.24-2.61-3.75-4.96h0ZM29.36,31.58c-1.49,0-3.09-.15-4.79-.45-8.99-1.58-19.64-7.31-23.25-12.51C-.61,15.84-.1,10.68.81,8.91c.06-.12.2-.19.33-.16.13.03.23.13.25.27.36,2.98,1.29,3.94,3.66,5.69,4.29,1.64,7.34,3.91,10.04,5.93,5.25,3.92,9.41,7.01,19.64,3.8,2.94-1.47,4.55-3.28,5.03-5.67.03-.14.15-.24.29-.25.16.01.27.09.31.23.42,1.69.97,3.94.34,6.22-.49,1.76-1.58,3.25-3.24,4.43-2.04,1.44-4.79,2.17-8.1,2.18Z"/>
      <path class="cls-3" d="M11.34,1.3c-1.44.55-2.77,1.16-3.98,1.82l-.68.39C2.97,5.72.62,8.48.36,11.69c-.67,8.13,9.72,4.9,14.09,10.57,4.94,6.43,17.58,8.65,23.78,3.53,1.64-1.35,2.37-3.13,2.19-5.21-.15-1.73-.91-3.52-2.03-5.31-2.74-4.4-7.78-10.06-14.33-12.93-4.53-1.99-7.95-2.85-12.7-1.03Z"/>
      <path class="cls-2" d="M11.45,1.59c-1.43.55-2.75,1.15-3.94,1.8l-.68.39C3.04,6.03.91,8.78.67,11.71c-.37,4.43,2.61,5.26,6.38,6.29,2.69.74,5.74,1.59,7.65,4.07,2.46,3.2,7.12,5.54,12.16,6.11,4.47.51,8.54-.45,11.17-2.62,1.55-1.29,2.25-2.95,2.08-4.95-.14-1.56-.79-3.25-1.98-5.17-1.33-2.13-6.27-9.34-14.2-12.82C19.35.61,16-.14,11.45,1.59h0ZM29.16,28.93c-.78,0-1.57-.04-2.38-.14-5.21-.59-10.03-3.02-12.58-6.34-1.79-2.32-4.6-3.1-7.32-3.85C3.16,17.58-.36,16.61.05,11.66c.26-3.14,2.5-6.05,6.48-8.41l.69-.39c1.21-.67,2.56-1.29,4.02-1.84h0C15.98-.8,19.45-.02,24.17,2.05c8.09,3.55,13.12,10.89,14.47,13.06,1.25,2,1.93,3.78,2.07,5.45.19,2.18-.6,4.08-2.3,5.48-2.28,1.88-5.57,2.89-9.26,2.89Z"/>
      <path class="cls-2" d="M21.66,12.54c-.08,0-.16-.03-.22-.09-2.22-2.32-6.85-5.13-14.54-8.85-.16-.07-.22-.26-.14-.41.07-.15.26-.22.41-.14,7.77,3.75,12.44,6.6,14.72,8.98.12.12.11.32-.01.44-.06.06-.14.09-.21.09Z"/>
      <path class="cls-1" d="M15.38,6.36c-1.26-1.91-3.42-3.99-5.85-3.08l-2.05,1.2c2.31-.73,4.51,1.46,5.67,3.24.16.24.47.31.71.17l1.34-.77c.27-.15.35-.5.18-.76Z"/>
      <path class="cls-2" d="M8.81,4.05c1.81.22,3.5,1.82,4.6,3.5.07.1.2.13.3.07l1.34-.77c.06-.03.09-.08.11-.14.01-.06,0-.12-.03-.18h0c-.79-1.21-2.92-3.93-5.48-2.96l-.83.49h0ZM13.6,8.27c-.28,0-.55-.14-.71-.38-1.26-1.92-3.32-3.75-5.32-3.11-.15.05-.31-.02-.37-.17-.07-.14-.01-.31.13-.39l2.05-1.2c3.03-1.14,5.39,1.84,6.27,3.18.13.19.17.43.12.66-.05.23-.2.42-.4.54l-1.33.77c-.13.08-.28.11-.42.11Z"/>
      <path class="cls-1" d="M10.35,4.89c-1.08-.63-2.08-.74-2.84-.42-.05.02-.08.07-.08.12,0,.06.02.1.07.13l5.74,3.11c-.79-1.36-1.68-2.23-2.89-2.93Z"/>
      <path class="cls-2" d="M7.64,4.43h0s0,0,0,0h0ZM8.02,4.64l4.28,2.32c-.58-.74-1.24-1.31-2.1-1.8h0c-.79-.46-1.54-.63-2.18-.52h0ZM13.24,8.12c-.05,0-.1-.01-.15-.04l-5.74-3.11c-.15-.08-.24-.23-.23-.41,0-.17.11-.32.27-.39.88-.36,1.98-.21,3.11.44h0c1.29.74,2.22,1.68,3,3.04.07.12.05.27-.04.37-.06.06-.14.09-.22.09Z"/>
    </g>
  </g>
</svg>