<?xml version="1.0" encoding="UTF-8"?>
<svg id="Layer_2" data-name="Layer 2" xmlns="http://www.w3.org/2000/svg" viewBox="0 0 37.43 42.41" fill="currentColor">
  <defs>
    <style>
      .cls-1 {
        fill: #fff;
      }

      .cls-1, .cls-2, .cls-3, .cls-4 {
        fill-rule: evenodd;
      }

      .cls-2 {
        fill: #1a87c7;
      }

      .cls-3 {
        fill: #bdedf8;
      }

      .cls-4 {
        fill: #66ceef;
      }
    </style>
  </defs>
  <g id="_Layer_" data-name="&amp;lt;Layer&amp;gt;">
    <g>
      <path class="cls-3" d="M36.02,3.91L30.02.44c-.53-.25-.92-.12-1.42.14L2.32,15.75c-1.12.67-1.99,2.16-2,3.47v12.89c0,.8-.05,5.19.04,5.64.07.36.23.66.55.85,2.73,1.57,4.52,2.62,5.99,3.47-.08-.06-.08-.09-.09-.2v-18.91c.02-1.3.88-2.8,2-3.47l26.28-15.18c.49-.25.89-.38,1.41-.13l-.48-.28Z"/>
      <path class="cls-2" d="M29.48.61c-.22,0-.44.09-.73.23L2.48,16.01c-1.02.61-1.83,2.02-1.85,3.21v13.67c-.01,1.33-.03,4.45.03,4.79.06.31.19.52.41.65,1.66.96,2.98,1.72,4.09,2.37.48.28.92.53,1.34.78v-18.52c.01-1.41.94-3.02,2.15-3.73l26.29-15.18c.13-.07.26-.14.4-.19l-5.48-3.16c-.14-.06-.26-.09-.39-.09h0ZM6.92,42.38c-.06,0-.12,0-.18-.04-.57-.33-1.19-.69-1.89-1.09-1.11-.64-2.43-1.41-4.1-2.37-.37-.23-.6-.59-.69-1.06-.07-.33-.07-2.13-.05-4.91v-2.42s0-11.25,0-11.25c.02-1.41.94-3.02,2.15-3.73L28.45.31c.49-.25,1.02-.47,1.7-.15l6.51,3.75c.14.08.2.26.12.41-.08.15-.26.21-.4.14-.39-.19-.68-.11-1.14.13l-26.27,15.17c-1.02.6-1.84,2.01-1.85,3.2v18.91c.12.1.14.27.05.4-.06.08-.15.11-.24.11Z"/>
      <path class="cls-3" d="M37.12,24.4V5.49c0-1.27-.9-1.79-2-1.15l-26.28,15.17c-1.1.63-2,2.19-2,3.47v18.91c0,.2.14.28.31.18,11.75-6.79,17.92-10.35,29.67-17.13.17-.09.31-.34.31-.53Z"/>
      <path class="cls-2" d="M36.01,4.37c-.22,0-.47.08-.74.24l-26.28,15.17c-1,.57-1.85,2.04-1.85,3.2v18.73l29.51-17.04c.07-.04.15-.18.15-.26V5.49c0-.5-.15-.86-.44-1.02-.11-.06-.23-.1-.37-.1h0ZM7,42.41c-.08,0-.16-.03-.23-.06-.15-.1-.25-.26-.25-.47v-18.91c0-1.37.97-3.05,2.16-3.74l26.28-15.17c.63-.36,1.24-.41,1.72-.13.48.27.74.83.74,1.56v18.91c0,.3-.2.64-.46.8L7.29,42.33c-.09.06-.19.09-.29.09Z"/>
      <polygon class="cls-1" points="19.79 16.87 24.3 14.27 24.3 19.26 28.63 16.77 28.63 21.97 24.3 24.47 24.3 29.47 19.79 32.07 19.79 27.07 15.47 29.57 15.47 24.37 19.79 21.86 19.79 16.87"/>
      <path class="cls-2" d="M19.79,21.86h0,0ZM19.79,26.77c.06,0,.11.01.16.04.1.05.15.16.15.26v4.47l3.89-2.25v-4.81c0-.12.06-.22.15-.27l4.17-2.41v-4.5l-3.87,2.23c-.09.05-.21.05-.31,0-.1-.06-.15-.16-.15-.27v-4.46l-3.89,2.24v4.82c0,.11-.06.22-.15.27l-4.17,2.41v4.49l3.87-2.22s.1-.04.15-.04h0ZM19.79,32.38c-.05,0-.11-.02-.15-.04-.09-.06-.16-.16-.16-.27v-4.46l-3.86,2.22c-.1.06-.21.06-.31,0-.09-.05-.16-.16-.16-.26v-5.21c0-.11.06-.22.16-.27l4.17-2.41v-4.82c0-.11.06-.22.16-.27l4.51-2.6c.1-.06.21-.06.31,0,.1.05.15.16.15.26v4.47l3.87-2.24c.09-.05.21-.05.31,0,.1.05.15.16.15.27v5.2c0,.11-.06.22-.15.27l-4.17,2.41v4.82c0,.11-.06.21-.15.26l-4.51,2.61s-.1.04-.16.04Z"/>
      <path class="cls-4" d="M7.39,20.98l-6.49-3.75c-.35.64-.57,1.24-.59,1.98v18.1c.03.55.11.95.59,1.29,2.73,1.57,4.52,2.62,5.99,3.47-.08-.06-.08-.09-.09-.2v-18.91c.02-.72.24-1.35.59-1.97Z"/>
      <path class="cls-2" d="M1.03,17.67c-.27.54-.39,1.03-.4,1.55v18.09c.02.5.1.79.45,1.03,1.65.95,2.97,1.71,4.08,2.36.48.28.92.53,1.34.78v-18.52c.01-.63.16-1.22.48-1.85l-5.95-3.43h0ZM6.92,42.38c-.06,0-.12,0-.18-.04-.57-.33-1.19-.69-1.89-1.09-1.11-.64-2.43-1.41-4.1-2.37-.64-.44-.71-1.01-.74-1.55v-18.1c.02-.72.21-1.38.63-2.12.04-.07.11-.12.19-.15.08-.02.17-.01.24.03l6.49,3.74c.15.09.2.28.12.42-.37.65-.54,1.22-.55,1.83v18.9c.12.1.14.27.05.4-.06.08-.15.11-.24.11Z"/>
      <path class="cls-2" d="M5.45,41.53c-.05,0-.11-.02-.17-.05-.36-.23-.59-.58-.68-1.05-.07-.33-.07-2.13-.05-4.91v-2.42s0-11.26,0-11.26c.02-1.41.94-3.02,2.15-3.73L33,2.93c.49-.25,1.02-.47,1.7-.15.16.07.22.25.15.41-.07.16-.25.22-.41.15-.39-.19-.68-.1-1.14.13L7.02,18.64c-1.02.61-1.83,2.02-1.85,3.21v13.67c-.01,1.33-.03,4.45.04,4.79.06.31.19.52.41.65.14.09.19.29.1.42-.06.1-.16.15-.26.15Z"/>
      <path class="cls-1" d="M12.72,14.03l-1.09-.62c0-.58-.05-2.28.04-2.84.18-1.14.96-2.39,1.96-2.98l7.68-4.42c.4-.18.81-.24,1.21-.03l1.09.64c-.51-.24-.93-.13-1.42.14l-7.47,4.31c-1.12.66-1.99,2.16-2,3.47v2.36Z"/>
      <path class="cls-2" d="M11.94,13.23l.47.27v-1.83c.01-1.41.94-3.02,2.15-3.73l7.48-4.32c.13-.07.26-.14.4-.19l-.08-.04c-.26-.13-.57-.12-.93.04l-7.65,4.42c-.89.52-1.63,1.66-1.81,2.75-.07.42-.05,1.58-.04,2.28v.35h0ZM12.72,14.35c-.06,0-.11-.02-.15-.04l-1.09-.63c-.09-.06-.15-.15-.15-.27v-.51c-.02-.81-.03-1.91.04-2.38.2-1.27,1.07-2.58,2.11-3.2l7.68-4.43c.57-.26,1.06-.27,1.51-.03l1.1.64c.14.08.2.26.12.41-.08.15-.26.21-.41.14-.36-.17-.65-.14-1.13.13l-7.47,4.31c-1.02.6-1.83,2.01-1.85,3.2v2.36c0,.11-.06.22-.15.27-.05.03-.1.04-.15.04Z"/>
      <polygon class="cls-1" points="22.8 8.22 21.72 7.58 21.72 5.44 21.71 5.34 21.7 5.26 21.68 5.19 21.66 5.12 21.62 5.06 21.58 5.01 21.54 4.97 21.49 4.93 22.58 5.57 22.63 5.6 22.67 5.64 22.71 5.69 22.74 5.75 22.77 5.82 22.79 5.89 22.8 5.98 22.8 6.06 22.8 8.22"/>
      <path class="cls-2" d="M22.02,7.41l.47.27v-1.75s.25-.18.25-.18l-.3.09-.42-.24v1.81h0ZM22.8,8.52c-.05,0-.11,0-.16-.04l-1.09-.62c-.1-.05-.16-.16-.16-.27v-2.28s.04-.04.04-.04l-.09-.05h0s-.01,0-.01,0h0,0c-.12-.1-.17-.29-.09-.42.09-.14.25-.2.4-.12l1.09.63s.06.04.06.04c.02.02.11.1.12.11,0,.02.06.08.06.09,0,.02.04.09.05.1,0,.02.03.09.04.1,0,.01.02.1.02.11l.02.2v2.17c0,.1-.06.21-.15.26-.05.04-.1.04-.15.04Z"/>
      <path class="cls-1" d="M14.13,11.07v2.16l-1.41.81v-2.36c0-1.27.9-2.83,2-3.47l7.47-4.31c1.11-.64,2-.12,2,1.16v2.35l-1.4.81v-2.16c0-.5-.35-.69-.77-.44l-7.13,4.11c-.42.25-.77.85-.77,1.34Z"/>
      <path class="cls-2" d="M14.13,13.23h0,0ZM23.09,3.93c-.22,0-.47.08-.74.22l-7.47,4.32c-1,.57-1.85,2.04-1.85,3.2v1.83l.79-.46v-1.97c0-.6.4-1.31.92-1.6l7.13-4.12c.3-.17.61-.19.85-.05.24.14.38.42.38.76v1.62l.78-.45v-2.17c0-.5-.15-.87-.43-1.04-.11-.06-.23-.09-.37-.09h0ZM12.72,14.35c-.06,0-.11-.02-.15-.04-.1-.05-.15-.16-.15-.27v-2.36c0-1.37.97-3.05,2.16-3.74l7.47-4.31c.63-.36,1.24-.42,1.72-.14.48.28.74.83.74,1.56v2.35c0,.11-.06.21-.15.27l-1.4.8c-.1.06-.21.06-.31,0-.09-.05-.15-.16-.15-.26v-2.16c0-.14-.04-.22-.07-.23-.04-.02-.12-.01-.24.05l-7.13,4.12c-.33.19-.61.69-.61,1.07v2.16c0,.1-.06.21-.16.26l-1.41.82s-.1.04-.15.04Z"/>
    </g>
  </g>
</svg>