<?xml version="1.0" encoding="UTF-8"?>
<svg id="Layer_2" data-name="Layer 2" xmlns="http://www.w3.org/2000/svg" viewBox="0 0 32.15 48.65" fill="currentColor">
  <defs>
    <style>
      .cls-1 {
        fill: #fff;
      }

      .cls-1, .cls-2, .cls-3, .cls-4 {
        fill-rule: evenodd;
      }

      .cls-2 {
        fill: #1a87c7;
      }

      .cls-3 {
        fill: #bdedf8;
      }

      .cls-4 {
        fill: #66ceef;
      }
    </style>
  </defs>
  <g id="_Layer_" data-name="&amp;lt;Layer&amp;gt;">
    <g>
      <path class="cls-1" d="M31.03,2.79v14.79c0,.98-.69,2.19-1.55,2.68-5.86,3.39-11.72,6.77-17.59,10.16-.85.49-1.55.09-1.55-.89v-14.79L31.03,2.79Z"/>
      <path class="cls-2" d="M10.65,14.91v14.61c0,.35.11.62.3.73.19.11.48.07.79-.11l17.59-10.16c.75-.43,1.39-1.54,1.39-2.41V3.32L10.65,14.91h0ZM11.2,30.93c-.2,0-.39-.05-.56-.15-.39-.23-.61-.68-.61-1.27v-14.79c0-.11.06-.21.15-.27L30.88,2.53c.09-.06.21-.06.31,0,.1.05.15.15.15.26v14.79c0,1.1-.75,2.39-1.7,2.95l-17.59,10.16c-.29.17-.58.25-.84.25Z"/>
      <path class="cls-3" d="M22.23,16.78l4.27-7.41c.63-1.09,1.6-.53.97.56-2.12,3.68-3.12,5.4-5.25,9.09l-2.73-1.57c-1.8,3.12-2.82,4.89-4.62,8.01-.63,1.09-1.6.53-.97-.56,2.12-3.68,3.47-6.01,5.59-9.69,0,0,2.5,1.44,2.73,1.57Z"/>
      <path class="cls-2" d="M19.62,15.63l-5.44,9.42c-.17.3-.19.54-.13.64.08.13.34,0,.57-.39l4.62-8.01c.09-.15.27-.2.42-.11l2.46,1.42,5.09-8.82c.22-.39.17-.64.1-.68-.07-.04-.31.04-.54.43l-4.28,7.41c-.09.15-.27.2-.42.11l-.84-.49c-.56-.32-1.25-.72-1.62-.93h0ZM14.12,26.36h0c-.26,0-.48-.13-.61-.35-.19-.33-.14-.79.13-1.26l5.59-9.69c.06-.09.16-.15.27-.15q.08,0,2.04,1.13l.58.33,4.12-7.14c.43-.75,1.02-.86,1.38-.65.36.21.56.77.13,1.52l-5.25,9.09c-.09.15-.27.2-.42.11l-2.46-1.42-4.47,7.74c-.27.47-.65.75-1.02.75Z"/>
      <polygon class="cls-4" points="10.48 15.03 9.14 14.26 9.14 12.64 10.48 13.42 10.48 15.03"/>
      <path class="cls-2" d="M9.45,14.08l.73.42v-.9l-.73-.42v.9h0ZM10.48,15.34c-.06,0-.11-.01-.15-.04l-1.34-.78c-.09-.05-.16-.16-.16-.27v-1.62c0-.11.06-.21.16-.26.1-.06.21-.06.31,0l1.34.77c.1.06.15.16.15.27v1.62c0,.11-.06.21-.15.27-.05.03-.1.04-.15.04Z"/>
      <path class="cls-4" d="M9.73,39.78h0c.99,2.26.51,4.72,2.75,6.84-3.68,1.71-7.79,2.52-11.04.65-1-.58-1.12-.82-1.12-1.75s-.02-1.87.01-2.78c.17-1.6.99-2.68,2.03-3.85,1.16-1.26,2.61-2.28,3.66-3.64h0c1.17,1.32,3.06,3.01,3.71,4.52h0ZM6.12,35.37l-.1-.1s.07.07.1.1h0ZM21.85,39.11v-3.07c0-2.45-3.02-3.34-5.11-3.52-.18.36-.36.73-.54,1.07,1.64,2.94.24,9.25-1.57,11.91,4.1-2.37,7.23-5.49,7.23-6.39h0Z"/>
      <path class="cls-2" d="M21.85,39.11h0,0ZM16.54,33.59c1.42,2.79.42,8.04-1.06,11.03,3.56-2.25,6.06-4.87,6.06-5.52v-3.07c0-2.48-3.49-3.07-4.62-3.19-.13.25-.25.5-.38.74h0ZM14.62,45.81c-.08,0-.17-.04-.23-.1-.1-.1-.11-.26-.03-.38,1.74-2.56,3.13-8.77,1.56-11.59-.05-.09-.05-.2,0-.3.19-.34.36-.7.54-1.06.06-.12.18-.18.3-.17,2.61.22,5.4,1.35,5.4,3.83v3.07h0c0,1.08-3.3,4.3-7.39,6.66-.05.03-.1.04-.15.04h0ZM6.03,35.73c-.58.69-1.25,1.29-1.9,1.88-.52.48-1.07.97-1.55,1.49-.93,1.05-1.78,2.12-1.95,3.67-.02.62-.02,1.28-.01,1.93v.82c0,.77.03.94.97,1.48,3.29,1.9,7.38.84,10.36-.48-1.25-1.36-1.55-2.83-1.84-4.25-.17-.83-.32-1.61-.66-2.37h0c-.46-1.06-1.62-2.27-2.63-3.34-.28-.29-.54-.57-.78-.83h0ZM5.69,48.65c-1.51,0-3.02-.31-4.41-1.11C.22,46.92,0,46.58,0,45.52v-.81c0-.66-.01-1.33.01-1.98.19-1.76,1.1-2.91,2.1-4.04.5-.55,1.06-1.05,1.59-1.53.72-.65,1.46-1.33,2.06-2.09.06-.07.14-.12.24-.12.08-.01.17.03.24.1h0s.1.11.1.11c.02.02.03.04.04.06.26.29.56.61.87.92,1.06,1.1,2.25,2.35,2.76,3.52.36.83.53,1.67.7,2.49.31,1.51.59,2.94,1.98,4.25.08.07.11.17.09.27-.02.1-.08.19-.18.23-1.95.91-4.44,1.75-6.92,1.75Z"/>
      <path class="cls-1" d="M6.01,35.26c.16-.2.62-.68.75-.89.25-.42.24-.59.29-1.08,2.14,2.47,7.15,3.92,9.08.42h0c.54,1.3-1.01,3.81-3,4.55-1.46.55-3.7.21-4.83-.82l-1.92-1.75-.37-.42Z"/>
      <path class="cls-2" d="M6.42,35.25l.2.22,1.89,1.72c1.02.93,3.13,1.28,4.52.76,1.09-.41,2.16-1.46,2.66-2.61.12-.28.2-.54.23-.78-.71.86-1.69,1.37-2.88,1.5-1.92.2-4.24-.67-5.76-2.1-.04.17-.11.34-.25.57-.09.16-.31.4-.51.63-.03.04-.06.07-.09.11h0ZM11.56,38.81c-1.29,0-2.66-.42-3.47-1.16l-1.92-1.75-.4-.44c-.1-.11-.1-.28-.01-.4.06-.08.17-.2.28-.33.16-.18.38-.42.44-.53.19-.32.2-.43.24-.81l.02-.15c.01-.12.1-.23.21-.26.12-.04.25,0,.32.09,1.37,1.58,3.76,2.57,5.69,2.37,1.29-.14,2.29-.79,2.89-1.9.06-.1.18-.16.28-.16.12,0,.22.08.27.19.22.53.16,1.25-.17,2.02-.56,1.3-1.77,2.48-3.01,2.94-.51.19-1.08.27-1.68.27Z"/>
      <path class="cls-1" d="M14.95,35.37c.8-.78,1.46-2.19,2.09-3.48.86-1.76.81-3.77.83-5.39l-.29-.96c-.11-.4-.11-.82-.12-1.22,0-.52-.02-1.01-.29-1.26-.43-.4-1.12.21-1.93.92-.55.48-1.14,1.01-1.79,1.39-.84.48-2.59.77-3.19,1.28-.61.51-.58.93-.57,1.65.01.69.05,1.37-.37,2.83-.06-.44-.18-.9-.38-1.3-.15-.3-.37-.59-.66-.76-.21-.12-.45-.17-.69-.14-.24.04-.45.16-.62.33-.24.24-.38.56-.44.89-.06.32-.04.65.03.97.11.49.39,1.06.61,1.48.07.14-.02.51-.09.71,1.54,1.75,3.78,2.95,5.57,2.94.79,0,1.73-.33,2.31-.88Z"/>
      <path class="cls-2" d="M7.42,33.23c1.49,1.63,3.57,2.71,5.21,2.71h0c.76,0,1.6-.32,2.1-.79h0c.72-.69,1.32-1.93,1.9-3.13l.13-.26c.78-1.59.79-3.39.79-4.97v-.24s-.28-.92-.28-.92c-.12-.45-.13-.88-.13-1.3,0-.43-.02-.88-.19-1.04-.23-.21-.92.39-1.52.93-.55.48-1.17,1.03-1.84,1.42-.41.24-1,.42-1.57.6-.63.2-1.29.41-1.57.65-.47.4-.47.68-.46,1.34v.18c.01.68.03,1.38-.38,2.82-.04.14-.18.23-.32.22-.14-.01-.26-.12-.28-.26-.07-.48-.19-.89-.35-1.2-.1-.2-.28-.48-.54-.63-.16-.09-.33-.12-.49-.1-.16.02-.32.11-.45.24-.18.18-.3.43-.36.72-.05.26-.03.55.03.85.08.36.28.83.58,1.4.03.06.13.24-.01.77h0ZM12.64,36.56c-1.85,0-4.18-1.22-5.79-3.04-.07-.08-.09-.2-.06-.3.08-.26.11-.45.09-.5-.32-.58-.53-1.11-.63-1.53-.09-.37-.1-.75-.04-1.09.08-.42.26-.78.53-1.05.23-.23.5-.37.79-.42.31-.04.61.01.89.17.31.18.58.48.78.88.03.06.05.12.08.18.11-.62.1-1.04.09-1.46v-.11c-.01-.79-.02-1.3.68-1.89.38-.32,1.06-.53,1.79-.76.54-.17,1.1-.35,1.45-.55.62-.36,1.22-.89,1.74-1.35.88-.77,1.71-1.5,2.34-.92.37.33.38.89.39,1.48,0,.39.01.79.11,1.15l.29.95s.01.06.01.09v.29c-.01,1.57-.02,3.51-.86,5.24l-.13.26c-.61,1.25-1.24,2.55-2.03,3.31h0c-.61.59-1.6.97-2.52.97h0Z"/>
      <path class="cls-4" d="M5.11,22.12c-1.43,2.61-.53,9.75,1.93,11.29.05-.13.21-.65.12-.82-.23-.42-.5-.99-.61-1.48-.53-2.35,2.27-3.46,2.76.01.42-1.47.39-2.15.37-2.83-.01-.73-.04-1.14.57-1.65.39-.32.87-.46,1.4-.6h0c.55-.15,1.14-.31,1.79-.68.65-.38,1.24-.9,1.79-1.39.81-.71,1.49-1.32,1.93-.92.27.25.28.73.29,1.26.01.4.02.83.12,1.22l.29.96c.08-1.27.06-2.74-.12-3.94-.34-2.33-1.38-2.42-4.26-3.94-.46-.24-1.05-.64-1.94-.67-2.16-.07-5.37,2.45-6.44,4.18Z"/>
      <path class="cls-2" d="M5.38,22.28c-1.29,2.38-.58,8.73,1.49,10.62.01-.08.02-.14.02-.18-.32-.58-.53-1.11-.63-1.53-.2-.88.02-1.73.57-2.21.4-.35.91-.45,1.39-.28.3.11.75.4,1.08,1.16.11-.62.1-1.04.09-1.45v-.11c-.01-.79-.02-1.3.68-1.89.44-.37.96-.51,1.52-.66.55-.15,1.11-.3,1.72-.65.62-.36,1.22-.89,1.74-1.35.88-.77,1.71-1.5,2.34-.92.04.04.08.09.12.13-.02-.12-.03-.25-.05-.36-.26-1.78-.9-2.1-2.8-3.05-.38-.19-.81-.41-1.29-.66l-.2-.11c-.41-.23-.91-.51-1.61-.53h-.08c-2.05,0-5.09,2.42-6.08,4.02h0ZM7.04,33.72c-.06,0-.12-.02-.17-.05-2.58-1.63-3.53-8.97-2.03-11.7,0,0,0,0,0-.01,1.11-1.79,4.41-4.43,6.71-4.32.84.03,1.45.36,1.89.6l.19.1c.47.25.9.46,1.28.66,1.94.97,2.83,1.41,3.13,3.51.17,1.15.21,2.62.13,4.01-.01.15-.13.27-.27.29-.15.01-.29-.07-.33-.22l-.3-.96c-.12-.45-.13-.88-.13-1.3,0-.43-.02-.88-.19-1.04-.23-.21-.92.39-1.52.93-.55.48-1.17,1.03-1.84,1.42-.68.4-1.31.57-1.87.71-.51.14-.95.25-1.28.54-.47.4-.47.68-.46,1.34v.18c.01.68.03,1.38-.38,2.82-.04.14-.18.23-.32.22-.14-.01-.26-.12-.28-.26-.14-1.02-.52-1.71-1.02-1.89-.26-.1-.54-.04-.76.16-.3.26-.55.82-.37,1.61.08.36.28.83.58,1.4.17.31-.06.95-.11,1.07-.03.09-.1.15-.19.18-.03.01-.06.02-.09.02Z"/>
      <path class="cls-3" d="M13.39,37.65c-3.57-.32-5.52-.41-7.38-2.39,1.17,1.32,3.06,3.01,3.72,4.52.99,2.26.51,4.72,2.75,6.84l2.15-1.12c1.67-2.38,3.32-8.77,1.57-11.91l-.06.11c.18,1.69-1.18,2.49-2.49,3.81h0l-.25.14h0Z"/>
      <path class="cls-2" d="M8.18,37.11c.76.84,1.47,1.71,1.84,2.54.36.82.53,1.67.7,2.49.29,1.45.57,2.83,1.82,4.09l1.88-.98c1.4-2.05,2.87-7.25,1.94-10.49-.27.89-.99,1.55-1.73,2.24-.25.23-.5.46-.75.72-.02.02-.04.04-.07.05l-.25.15c-.05.03-.12.05-.18.04l-.47-.04c-1.95-.17-3.44-.31-4.72-.8h0ZM12.48,46.93c-.08,0-.15-.03-.21-.09-1.52-1.44-1.85-3.03-2.16-4.57-.17-.83-.32-1.61-.66-2.37-.46-1.07-1.62-2.27-2.64-3.34-.37-.39-.72-.76-1.02-1.1-.11-.13-.1-.32.02-.43.12-.12.32-.11.43.02,1.7,1.81,3.48,1.97,6.71,2.26l.38.03.13-.08c.25-.25.5-.48.74-.7.98-.91,1.76-1.62,1.63-2.83,0-.06,0-.12.04-.18l.06-.11c.05-.1.15-.16.27-.16h0c.11,0,.21.06.27.16,1.89,3.39.02,9.94-1.59,12.24-.03.04-.07.08-.11.1l-2.15,1.12s-.09.04-.14.04Z"/>
      <path class="cls-2" d="M12.6,40.4s-.08,0-.11-.02l-3.47-1.35c-.16-.06-.24-.24-.18-.4.06-.16.24-.24.4-.18l3.17,1.23.65-2c.05-.16.22-.25.38-.2.03-.05.07-.1.13-.13.15-.08.34-.02.42.14l.57,1.1c.23-.37.48-.76.73-1.15.52-.8,1.06-1.63,1.25-2.05.07-.15.25-.22.41-.15.15.07.22.25.15.41-.21.46-.74,1.27-1.29,2.13-.36.55-.72,1.12-1.01,1.6-.06.1-.16.17-.28.15-.11,0-.21-.07-.26-.17l-.67-1.3-.69,2.12c-.02.08-.08.15-.16.18-.04.02-.09.03-.13.03Z"/>
      <path class="cls-4" d="M12.48,46.62l2.15-1.12c-.04-.31-.04-.37-.08-.67-.18-1.51-.23-3.13-.42-4.75,0-.07.07-.69.16-1.32l-.64-1.25-.25.14-.53,1.63c.14.46.27.94.26,1.05-.19,1.89-.38,3.76-.57,5.56-.03.27-.05.45-.08.73Z"/>
      <path class="cls-2" d="M13.19,39.28c.26.88.25,1,.24,1.07-.17,1.69-.34,3.36-.51,4.97l-.08.75,1.45-.75-.06-.46c-.09-.78-.15-1.57-.21-2.41-.06-.77-.12-1.56-.2-2.34,0-.05-.02-.14.14-1.3l-.38-.75-.4,1.22h0ZM12.48,46.93c-.06,0-.12-.02-.17-.06-.1-.06-.14-.17-.13-.29l.14-1.32c.17-1.62.34-3.29.51-4.97,0-.04-.06-.3-.25-.93-.02-.06-.02-.12,0-.18l.53-1.63c.02-.07.07-.13.14-.17l.25-.14c.07-.04.16-.06.24-.03.08.02.15.08.19.16l.64,1.25c.03.06.04.12.03.18-.11.77-.15,1.19-.15,1.27.09.77.15,1.56.2,2.34.06.83.12,1.61.21,2.38l.08.67c.01.13-.05.25-.16.31l-2.15,1.12s-.09.04-.14.04Z"/>
      <path class="cls-2" d="M13.62,40.55c-.19,0-.4-.04-.63-.13-.16-.06-.24-.24-.18-.4.06-.16.24-.24.4-.18.51.2.61.04.67-.06.09-.15.28-.19.42-.1.14.09.19.28.1.42-.18.3-.45.44-.79.44Z"/>
      <polygon class="cls-1" points="10.48 15.03 31.84 2.7 31.84 1.08 10.48 13.42 10.48 15.03"/>
      <path class="cls-2" d="M10.79,13.59v.9L31.54,2.52v-.9L10.79,13.59h0ZM10.48,15.34c-.06,0-.11-.01-.15-.04-.1-.06-.16-.16-.16-.27v-1.62c0-.11.06-.21.16-.27L31.69.82c.1-.06.22-.06.31,0,.09.05.15.15.15.26v1.62c0,.11-.06.21-.15.27L10.63,15.3s-.1.04-.15.04Z"/>
      <polygon class="cls-3" points="31.84 1.08 10.48 13.42 9.14 12.64 30.5 .31 31.84 1.08"/>
      <path class="cls-2" d="M9.75,12.64l.73.42L31.23,1.08l-.73-.42L9.75,12.64h0ZM10.48,13.73c-.06,0-.11-.01-.15-.04l-1.34-.78c-.09-.06-.15-.16-.15-.27s.06-.21.15-.26L30.35.04c.1-.06.21-.06.31,0l1.34.78c.09.05.15.15.15.26s-.06.21-.15.27L10.63,13.68s-.1.04-.15.04Z"/>
    </g>
  </g>
</svg>