<?xml version="1.0" encoding="UTF-8"?>
<svg id="Layer_2" data-name="Layer 2" xmlns="http://www.w3.org/2000/svg" viewBox="0 0 38.03 26.79" fill="currentColor">
  <defs>
    <style>
      .cls-1 {
        fill: #fff;
      }

      .cls-1, .cls-2, .cls-3 {
        fill-rule: evenodd;
      }

      .cls-2 {
        fill: #1a87c7;
      }

      .cls-3 {
        fill: #bdedf8;
      }
    </style>
  </defs>
  <g id="_Layer_" data-name="&amp;lt;Layer&amp;gt;">
    <g>
      <path class="cls-3" d="M10.19,11.99L30.03.54c.33-.17.6-.34.93-.15l6.24,3.61c-.36-.1-.6-.02-.93.15l-19.84,11.46c-.1.05-.15.07-.25.02l-6.25-3.61c.11.04.16.03.26-.03Z"/>
      <path class="cls-2" d="M10.64,12.09l5.62,3.24L36.12,3.87s.09-.04.14-.07l-5.46-3.15c-.15-.09-.26-.04-.57.12L10.64,12.09h0ZM16.27,15.96c-.06,0-.13,0-.21-.04l-6.28-3.62c-.14-.08-.2-.25-.13-.4.07-.14.24-.21.38-.16h0L29.88.28s.07-.04.07-.04c.31-.17.7-.37,1.15-.11l6.25,3.61c.13.08.19.24.13.39-.06.14-.23.22-.37.17-.25-.07-.39-.03-.69.12l-19.84,11.46c-.11.05-.2.09-.31.09Z"/>
      <polygon class="cls-3" points="6.55 24.58 .31 20.97 9.82 8.09 16.06 11.7 6.55 24.58"/>
      <path class="cls-2" d="M.76,20.88l5.71,3.29,9.13-12.39-5.7-3.29L.76,20.88h0ZM6.55,24.89c-.05,0-.11-.02-.15-.04L.15,21.24c-.08-.04-.13-.12-.15-.2-.02-.09,0-.17.05-.25L9.58,7.91c.1-.12.27-.16.4-.08l6.24,3.6c.08.04.13.12.15.21.02.09,0,.17-.05.24l-9.51,12.88c-.06.09-.16.13-.25.13Z"/>
      <path class="cls-1" d="M16.43,15.6l19.84-11.46c.41-.23.77-.25,1.03-.09.26.15.43.48.43.94v3.21c0,.46-.16.97-.43,1.43h0c-.27.45-.63.85-1.03,1.09l-19.84,11.46c-.2.11-.37.4-.37.63v3.69l-9.51-1.9,9.51-12.88v3.69c0,.23.16.33.37.21Z"/>
      <path class="cls-2" d="M7.09,24.37l8.66,1.74v-3.31c0-.34.23-.72.52-.9l19.84-11.45c.33-.19.67-.55.91-.97.25-.43.38-.89.38-1.28v-3.21c0-.33-.09-.57-.27-.68-.18-.1-.44-.06-.72.1l-19.84,11.46c-.19.11-.4.12-.56.03-.17-.1-.26-.28-.26-.5v-2.76l-8.66,11.73h0ZM16.06,26.79h-.05l-9.52-1.9c-.1-.03-.19-.1-.23-.19-.03-.09-.03-.21.04-.29l9.51-12.88c.08-.1.22-.15.34-.11.13.04.22.17.22.3v3.58L36.12,3.87c.49-.28.96-.31,1.34-.1.36.21.57.65.57,1.21v3.21c0,.5-.17,1.06-.46,1.58-.3.53-.71.96-1.15,1.2l-19.84,11.46c-.1.06-.21.23-.21.36v3.69c0,.09-.04.18-.12.23-.05.05-.12.07-.2.07Z"/>
    </g>
  </g>
</svg>