<?xml version="1.0" encoding="UTF-8"?>
<svg id="Layer_2" data-name="Layer 2" xmlns="http://www.w3.org/2000/svg" viewBox="0 0 39.29 41.24" fill="currentColor">
  <defs>
    <style>
      .cls-1 {
        fill: #fff;
      }

      .cls-1, .cls-2, .cls-3, .cls-4 {
        fill-rule: evenodd;
      }

      .cls-2 {
        fill: #1a87c7;
      }

      .cls-3 {
        fill: #bdedf8;
      }

      .cls-4 {
        fill: #66ceef;
      }
    </style>
  </defs>
  <g id="_Layer_" data-name="&amp;lt;Layer&amp;gt;">
    <g>
      <path class="cls-4" d="M7.72,26.25l-2.74-1.58c.65,0,1.28-.29,1.75-.74.5-.51.87-1.17,1-1.88.13-.83-.06-2.55-.12-3.45-.09-1.34-.2-2.67-.33-4.01-.08-.81.09-1.3.53-1.99.35-.52.73-.93,1.23-1.31.88-.66,1.78-1.31,2.68-1.94.73-.51,1.46-1,2.21-1.49.41-.27.85-.53,1.34-.28l2.74,1.58c-.34-.17-.63-.1-.96.05-.58.31-1.25.8-1.8,1.18-.8.54-1.58,1.1-2.37,1.67-.55.4-1.15.8-1.64,1.28-.49.5-.87,1.03-1.12,1.68-.28.86,0,2.23.07,3.15.09,1.12.17,2.24.23,3.37v.23c.05.66.15,1.43,0,2.07-.19.69-.57,1.34-1.12,1.81-.45.36-1.02.59-1.6.59Z"/>
      <path class="cls-2" d="M5.86,24.81l1.94,1.12c.45-.02.93-.21,1.32-.52.47-.42.84-1.01,1.01-1.65.11-.46.07-1.02.03-1.57l-.04-.63c-.06-1.12-.14-2.24-.23-3.36-.02-.21-.05-.44-.07-.68-.11-.87-.22-1.86.01-2.59.24-.66.62-1.23,1.19-1.81.42-.41.9-.75,1.37-1.09l.3-.22c.79-.57,1.58-1.13,2.37-1.67l.4-.28c.45-.32.97-.67,1.43-.92.02-.01.04-.02.06-.03l-1.86-1.07c-.29-.14-.56-.03-1.02.27-.74.49-1.47.98-2.2,1.48-.89.62-1.79,1.27-2.68,1.93-.46.36-.82.74-1.16,1.24-.38.6-.55,1.03-.48,1.78.13,1.34.24,2.69.33,4.02.01.19.03.41.05.66.08.96.17,2.16.07,2.85-.14.76-.53,1.48-1.09,2.05-.32.3-.69.53-1.09.67h0ZM7.72,26.55c-.05,0-.11-.02-.15-.04l-2.75-1.58c-.12-.07-.18-.21-.14-.35.04-.13.16-.23.3-.23.54,0,1.1-.24,1.54-.65.47-.47.79-1.09.91-1.71.09-.61,0-1.82-.07-2.7-.02-.25-.04-.48-.05-.67-.09-1.32-.2-2.67-.33-4-.09-.93.13-1.48.57-2.18.37-.56.79-1,1.3-1.39.9-.67,1.8-1.32,2.7-1.94.73-.51,1.47-1.01,2.21-1.49.39-.25.98-.64,1.65-.3l2.76,1.59c.14.08.19.26.12.41-.08.15-.26.2-.41.13-.21-.1-.38-.09-.7.06-.41.22-.91.57-1.35.87l-.41.28c-.79.54-1.58,1.1-2.36,1.66l-.31.22c-.45.32-.92.66-1.29,1.03-.5.51-.84,1.01-1.04,1.57-.19.59-.08,1.5.02,2.31.03.25.06.49.08.7.09,1.12.17,2.25.23,3.38l.04.63c.04.56.08,1.2-.05,1.76-.21.77-.64,1.47-1.21,1.98-.53.43-1.18.67-1.8.67Z"/>
      <path class="cls-4" d="M18.55,15.92l-2.74-1.59c2.58,1.35,6.77-4.25,5.05-7.36-.49-.88-.4-1.64.03-2.51l2.75,1.58c-1.34,2.72,1.85,2.8-.46,7.06-.81,1.49-2.87,3.73-4.63,2.81Z"/>
      <path class="cls-2" d="M18.7,15.65c1.47.76,3.39-1.15,4.22-2.68,1.23-2.27.83-3.24.45-4.17-.3-.72-.6-1.46-.12-2.62l-2.21-1.27c-.29.72-.25,1.29.1,1.93,1.11,2.02-.05,4.9-1.7,6.59-.73.75-1.5,1.21-2.23,1.37l1.49.86h0ZM19.41,16.43c-.34,0-.68-.08-1-.25h-.01s-2.74-1.59-2.74-1.59c-.15-.08-.2-.27-.12-.41.08-.15.26-.2.41-.12.82.43,1.96.03,3.05-1.08,1.52-1.55,2.53-4.17,1.6-5.86-.5-.9-.49-1.76.03-2.8.04-.08.1-.13.19-.16.08-.02.17-.01.24.03l2.75,1.59c.14.08.19.26.12.4-.53,1.06-.29,1.64.01,2.37.42,1.02.89,2.17-.47,4.7-.8,1.49-2.45,3.18-4.05,3.18Z"/>
      <path class="cls-3" d="M23.64,6.05l-2.75-1.58c.55-1.03.97-1.22,1.98-1.73.81-.4,1.62-.79,2.44-1.17.75-.34,1.5-.68,2.26-1,.51-.21.95-.37,1.49-.17l2.74,1.59c-.3-.11-.46-.11-.77-.07-.4.08-.69.23-1.06.38-.87.38-1.74.77-2.61,1.18-.82.38-1.63.78-2.43,1.19-.1.05-.19.11-.28.17-.46.33-.74.71-1,1.21Z"/>
      <path class="cls-2" d="M21.32,4.35l2.21,1.28c.26-.44.55-.75.93-1.03.11-.08.2-.13.31-.19.82-.41,1.63-.81,2.45-1.2.87-.41,1.74-.8,2.61-1.18l.14-.06c.23-.1.45-.19.69-.27l-1.77-1.02c-.39-.14-.75-.01-1.21.18-.75.32-1.51.65-2.25,1-.81.37-1.62.76-2.42,1.16-.9.45-1.27.64-1.69,1.34h0ZM23.64,6.35c-.05,0-.11-.01-.15-.04l-2.74-1.58c-.15-.08-.2-.27-.12-.41.58-1.09,1.07-1.34,2.04-1.82.88-.44,1.69-.83,2.51-1.21.75-.35,1.51-.68,2.27-1,.53-.23,1.06-.41,1.71-.17l2.79,1.61c.14.08.19.25.13.4-.07.14-.24.21-.39.16-.23-.08-.34-.09-.63-.05-.29.06-.54.17-.84.3l-.14.06c-.87.38-1.73.77-2.6,1.17-.81.38-1.62.78-2.43,1.19-.08.05-.16.09-.25.15-.37.27-.63.59-.9,1.1-.04.07-.11.13-.19.15-.03,0-.06.01-.08.01Z"/>
      <path class="cls-3" d="M31.97,11.5l-2.75-1.59c.68.36,1.37-.19,1.81-.67.77-.93,1.19-1.54,2.33-2.1.62-.27,1.18-.39,1.82-.11l2.75,1.58c-.7-.3-1.33-.13-1.99.19-.54.3-.92.6-1.35,1.03-.43.46-.74.98-1.22,1.38-.41.31-.9.54-1.4.27Z"/>
      <path class="cls-2" d="M32.12,11.24c.3.15.62.07,1.06-.25.26-.22.47-.48.7-.77.15-.19.31-.39.48-.57.48-.49.89-.8,1.43-1.09.26-.13.54-.25.84-.32l-1.6-.92c-.52-.22-1-.11-1.55.13-.94.46-1.35.96-1.96,1.71l-.25.3c-.32.35-.64.6-.96.75l1.81,1.04h0ZM32.42,11.93c-.19,0-.39-.04-.6-.15,0,0,0,0,0,0l-2.75-1.58c-.15-.08-.2-.27-.11-.42.08-.15.27-.2.41-.12.52.28,1.12-.26,1.44-.61l.23-.29c.65-.79,1.11-1.35,2.19-1.88.58-.25,1.28-.46,2.08-.12l2.78,1.6c.14.08.19.26.12.4-.07.15-.25.21-.4.15-.51-.22-1.02-.17-1.73.19-.47.26-.83.53-1.27.98-.16.17-.3.35-.45.53-.24.3-.48.61-.8.87-.18.14-.62.46-1.14.46Z"/>
      <path class="cls-4" d="M24.63,33.52l-2.74-1.58c-.37-.25-.46-.61-.47-1.03.04-.82.44-1.57.49-2.57.02-.89-.13-1.79-.94-2.3l2.75,1.58c.34.22.51.42.69.78.33.78.29,1.65.14,2.46-.15.74-.53,1.39-.3,2.16.09.23.18.36.39.5Z"/>
      <path class="cls-2" d="M22.06,27.02c.14.46.16.93.15,1.32-.03.56-.16,1.05-.27,1.48-.1.38-.2.74-.22,1.1,0,.4.1.6.33.76l1.82,1.05c-.05-.49.08-.93.21-1.35.06-.19.11-.37.15-.57.18-.94.14-1.67-.12-2.28-.16-.31-.29-.47-.57-.64l-1.48-.85h0ZM24.63,33.83c-.05,0-.11-.02-.15-.04l-2.74-1.58c-.54-.36-.61-.88-.62-1.29.02-.45.13-.84.24-1.25.11-.42.23-.85.25-1.34.03-1.04-.22-1.66-.79-2.03-.14-.09-.19-.28-.1-.42.09-.14.27-.19.42-.11l2.74,1.59c.43.27.62.54.81.91.32.75.37,1.59.17,2.66-.05.22-.11.43-.17.63-.15.49-.28.92-.14,1.38.07.16.12.24.26.33.14.09.18.28.09.42-.06.09-.16.15-.26.15Z"/>
      <path class="cls-4" d="M10.36,40.78l-2.74-1.59c-.63-.51-.28-1.87-.21-2.63.1-1.13.18-2.26.24-3.39.05-.8.41-2.84-.33-3.32l2.75,1.58c.28.18.37.4.43.72v.12c.04.5-.02,1.09-.04,1.59-.07,1.28-.15,2.55-.26,3.83-.06.79-.47,2.56.18,3.09Z"/>
      <path class="cls-2" d="M8.04,30.62c.11.64.03,1.43-.04,2.08-.02.19-.04.35-.04.49-.07,1.13-.15,2.26-.25,3.39-.01.15-.03.32-.06.49-.09.67-.21,1.57.16,1.88l1.91,1.1c-.07-.59.02-1.29.1-1.86.03-.2.05-.38.06-.53.11-1.29.19-2.58.26-3.82l.02-.39c.03-.4.05-.81.04-1.17v-.1c-.07-.27-.13-.38-.3-.5l-1.85-1.07h0ZM10.36,41.08c-.05,0-.1-.01-.15-.04l-2.75-1.58c-.68-.55-.54-1.61-.42-2.46.02-.17.04-.33.06-.46.1-1.12.18-2.25.24-3.38,0-.14.03-.31.04-.51.07-.73.22-2.23-.24-2.53-.14-.09-.18-.28-.1-.42.09-.14.27-.19.42-.11l2.75,1.58c.38.25.51.55.58.93l.02.14c.02.41,0,.84-.03,1.25l-.02.39c-.07,1.25-.15,2.54-.26,3.84-.01.16-.04.35-.07.56-.1.73-.26,1.95.13,2.27.12.1.15.28.06.41-.06.09-.16.13-.25.13Z"/>
      <path class="cls-3" d="M3.88,34.23l-2.74-1.58c-.51-.38-.69-.85-.8-1.46-.1-.91.05-1.68.35-2.53.46-1.18,1.08-2.13,2.01-2.98.51-.43,1.01-.76,1.66-.94.61-.14.9-.02,1.56-.28.51-.22.82-.5,1.15-.94l2.75,1.59c-.27.36-.53.61-.92.83l-.09.04c-.83.38-1.36.17-2.17.51-.97.44-1.7,1.18-2.31,2.04-.73,1.08-1.2,2.21-1.28,3.51-.02.84.12,1.66.83,2.2Z"/>
      <path class="cls-2" d="M7.16,23.91c-.28.33-.6.61-1.11.83-.45.18-.74.2-1.03.22-.18.01-.35.03-.58.08-.52.14-.97.4-1.53.88-.86.78-1.48,1.69-1.93,2.86-.32.92-.42,1.61-.33,2.38.09.52.23.92.67,1.25l1.57.9c-.13-.43-.15-.88-.14-1.28.08-1.28.5-2.45,1.34-3.68.75-1.06,1.52-1.74,2.43-2.15.45-.19.8-.23,1.14-.26.33-.04.65-.07,1.03-.25l.07-.04c.23-.13.41-.27.6-.47l-2.2-1.27h0ZM3.88,34.54c-.05,0-.1-.01-.15-.04l-2.75-1.58c-.67-.5-.85-1.1-.95-1.68-.1-.87,0-1.67.36-2.68.49-1.27,1.16-2.26,2.1-3.11.46-.38,1.02-.8,1.79-1.01.28-.07.5-.08.69-.09.26-.02.49-.03.84-.18.42-.18.69-.4,1.02-.84.09-.12.27-.16.4-.08l2.75,1.58c.08.04.13.12.15.2.02.09,0,.18-.06.25-.32.43-.62.7-1.02.92l-.1.05c-.49.22-.87.26-1.23.3-.32.03-.61.07-.97.22-.8.36-1.49.98-2.17,1.94-.76,1.13-1.15,2.2-1.23,3.35-.02.96.19,1.54.7,1.93.13.1.16.28.07.42-.06.09-.16.14-.26.14Z"/>
      <path class="cls-1" d="M11.78,12.88c1.68-1.26,3.36-2.44,5.05-3.53.61-.4,1.16-.37,1.45.07.3.44.27,1.18-.09,1.96-.36.81-.58,1.67-.58,2.46,0,2.04,1.43,2.87,3.2,1.85,1.77-1.02,3.2-3.51,3.2-5.55,0-.61-.13-1.11-.36-1.49-.14-.24-.26-.53-.34-.86-.12-.5,0-1.11.32-1.75.33-.64.78-1.12,1.28-1.38,1.85-.95,3.71-1.8,5.56-2.59.97-.41,1.94-.18,1.78,1.03-.32,2.47-.57,4.9-.71,7.27-.05.73.24,1.2.77,1.24.53.05,1.15-.34,1.65-1.03.51-.7,1.13-1.3,1.8-1.68,1.77-1.02,3.2-.19,3.2,1.85s-1.44,4.52-3.2,5.55c-.53.31-1.03.45-1.47.44-.38,0-.79.1-1.2.31-.46.24-.86.65-1.18,1.21-.32.56-.48,1.12-.45,1.63.13,2.41.39,4.74.79,7,.18,1.01-.81,2.33-1.78,3.08-1.54,1.19-3.08,2.31-4.64,3.36-.58.39-1.1.4-1.42.03-.32-.37-.35-1.02-.09-1.77.23-.63.31-1.29.31-1.89,0-2.04-1.43-2.87-3.2-1.85-1.77,1.02-3.2,3.51-3.2,5.55,0,.61.13,1.12.36,1.49.02.03.03.06.05.08.24.45.2,1.12-.12,1.85-.32.73-.82,1.3-1.39,1.58-1.77.88-3.56,1.67-5.36,2.37-.97.38-1.9.16-1.78-1.03.24-2.45.41-4.85.5-7.22.03-.71-.27-1.16-.8-1.19-.53-.03-1.14.35-1.64,1.04-.52.71-1.14,1.32-1.82,1.71-1.77,1.02-3.2.19-3.2-1.85s1.43-4.52,3.2-5.55c.53-.31,1.03-.45,1.47-.44.34,0,.71-.09,1.1-.27.46-.22.88-.63,1.21-1.19.33-.57.5-1.13.48-1.65-.1-2.43-.27-4.83-.51-7.18-.11-1.06.81-2.36,1.78-3.08Z"/>
      <path class="cls-2" d="M11.78,12.88h0,0ZM9.64,31.02s.06,0,.08,0c.71.04,1.12.62,1.09,1.51-.09,2.38-.26,4.82-.5,7.24-.03.35.04.6.21.73.23.17.67.16,1.15-.02,1.79-.7,3.58-1.49,5.33-2.36.5-.25.96-.77,1.25-1.43.28-.63.33-1.22.13-1.58,0,0-.04-.07-.04-.07-.27-.44-.4-1-.4-1.65,0-2.14,1.5-4.75,3.36-5.81.95-.55,1.86-.63,2.57-.22.7.41,1.09,1.24,1.09,2.34,0,.71-.11,1.39-.33,1.99-.23.64-.22,1.19.03,1.47.28.33.76.09,1.02-.08,1.55-1.04,3.11-2.17,4.62-3.35.92-.71,1.81-1.93,1.66-2.78-.39-2.22-.66-4.58-.8-7.03-.03-.58.13-1.18.48-1.8.36-.62.79-1.07,1.31-1.33.46-.24.92-.35,1.36-.35.38.01.85-.13,1.31-.4,1.68-.97,3.05-3.34,3.05-5.28,0-.87-.28-1.51-.78-1.81-.51-.29-1.2-.21-1.96.22-.61.35-1.2.91-1.71,1.6-.57.78-1.29,1.21-1.93,1.15-.71-.06-1.11-.66-1.05-1.57.15-2.31.39-4.76.72-7.29.03-.25.02-.58-.19-.74-.24-.18-.68-.17-1.16.04-1.88.8-3.74,1.67-5.54,2.58-.44.23-.85.67-1.14,1.24-.29.57-.4,1.11-.3,1.54.07.28.17.54.31.77.27.44.4,1,.4,1.65,0,2.14-1.51,4.74-3.36,5.81-.95.55-1.86.63-2.57.22-.7-.41-1.09-1.24-1.09-2.34,0-.81.21-1.71.61-2.59.3-.67.35-1.31.11-1.66-.27-.4-.76-.16-1.03.01-1.69,1.1-3.38,2.28-5.03,3.52h0c-.88.65-1.75,1.86-1.66,2.8.24,2.38.41,4.8.51,7.2.02.58-.16,1.21-.52,1.82-.37.61-.83,1.07-1.35,1.31-.43.2-.87.29-1.23.3-.4-.01-.85.13-1.31.4-1.68.97-3.05,3.34-3.05,5.28,0,.87.28,1.51.78,1.81.51.29,1.2.21,1.96-.23.62-.35,1.21-.91,1.72-1.62.55-.75,1.2-1.17,1.82-1.17h0ZM10.97,41.24c-.32,0-.61-.08-.83-.25-.24-.19-.52-.56-.45-1.28.24-2.41.41-4.83.5-7.2.01-.31-.04-.84-.51-.87-.42-.03-.94.32-1.37.91-.56.77-1.22,1.39-1.91,1.79-.95.55-1.87.63-2.57.23-.7-.41-1.09-1.24-1.09-2.34,0-2.14,1.5-4.74,3.36-5.81.57-.33,1.08-.48,1.63-.48.26.01.61-.08.96-.24.41-.19.78-.56,1.08-1.07.3-.51.45-1.02.44-1.49-.09-2.38-.26-4.78-.51-7.16-.12-1.18.86-2.58,1.9-3.36h0c1.66-1.24,3.36-2.43,5.06-3.54.76-.49,1.48-.43,1.88.16.36.53.34,1.38-.06,2.25-.36.8-.56,1.61-.56,2.33,0,.87.28,1.52.78,1.81.51.29,1.2.21,1.96-.23,1.68-.97,3.05-3.34,3.05-5.28,0-.53-.11-.99-.31-1.33-.17-.28-.3-.6-.38-.95-.14-.58-.02-1.26.35-1.96.36-.7.85-1.22,1.42-1.51,1.82-.93,3.69-1.8,5.58-2.6.7-.29,1.36-.28,1.77.04.25.19.53.57.43,1.31-.33,2.51-.57,4.95-.71,7.24-.02.33.02.88.49.92.41.03.94-.31,1.38-.9.56-.76,1.21-1.37,1.9-1.77.95-.55,1.87-.63,2.57-.22.7.41,1.09,1.24,1.09,2.34,0,2.14-1.51,4.75-3.36,5.81-.57.33-1.13.47-1.63.48-.35-.01-.69.09-1.06.28-.4.21-.77.59-1.06,1.09-.3.51-.43,1-.41,1.46.13,2.42.4,4.77.79,6.96.21,1.15-.84,2.56-1.89,3.38-1.53,1.18-3.09,2.32-4.65,3.37-.71.48-1.4.47-1.83-.03-.4-.46-.45-1.22-.14-2.08.19-.53.29-1.15.29-1.78,0-.87-.28-1.51-.78-1.8-.51-.29-1.2-.21-1.96.23-1.68.97-3.05,3.34-3.05,5.28,0,.53.11,1,.31,1.33l.05.09c.3.54.26,1.32-.1,2.13-.35.79-.91,1.43-1.54,1.73-1.77.87-3.58,1.67-5.39,2.38-.32.13-.64.19-.92.19Z"/>
      <path class="cls-4" d="M29.94,30.39c-1.36,1.03-2.72,2.01-4.09,2.93-.58.39-1.1.4-1.42.03-.32-.37-.35-1.02-.09-1.77.23-.63.31-1.29.31-1.89,0-2.04-1.43-2.87-3.2-1.85-1.77,1.02-3.2,3.51-3.2,5.55,0,.61.13,1.12.36,1.49.02.03.03.06.05.08.24.45.2,1.12-.12,1.85-.32.73-.82,1.3-1.39,1.58-1.77.88-3.56,1.67-5.36,2.37-.97.38-1.9.16-1.78-1.03.24-2.45.41-4.85.5-7.22.03-.71-.27-1.16-.8-1.19-.53-.03-1.14.35-1.64,1.04-.52.71-1.14,1.32-1.82,1.71-1.77,1.02-3.2.19-3.2-1.85s1.43-4.52,3.2-5.55c.53-.31,1.03-.45,1.47-.44.34,0,.71-.09,1.09-.27.46-.22.88-.63,1.22-1.19.33-.57.5-1.13.48-1.65-.01-.31-.03-.61-.04-.92,9.66-4.97,17.59-1.42,19.47,8.17Z"/>
      <path class="cls-2" d="M9.64,31.02s.06,0,.08,0c.71.04,1.12.62,1.09,1.51-.09,2.38-.26,4.82-.5,7.24-.03.35.04.6.21.73.23.17.67.16,1.15-.02,1.79-.7,3.58-1.49,5.33-2.36.5-.25.96-.77,1.25-1.43.28-.63.33-1.22.13-1.58,0,0-.04-.07-.04-.07-.27-.44-.4-1-.4-1.65,0-2.14,1.5-4.75,3.36-5.81.95-.55,1.86-.63,2.57-.22.7.41,1.09,1.24,1.09,2.34,0,.71-.11,1.39-.33,1.99-.23.64-.22,1.19.03,1.47.28.33.76.09,1.02-.08,1.32-.89,2.63-1.83,3.93-2.81-.89-4.33-3.02-7.42-6.18-8.95-3.45-1.67-7.93-1.29-12.64,1.09l.03.72c.02.58-.16,1.21-.52,1.82-.37.61-.83,1.07-1.35,1.31-.43.2-.89.29-1.23.3-.41-.02-.85.13-1.31.4-1.68.97-3.05,3.34-3.05,5.28,0,.87.28,1.51.78,1.81.51.29,1.2.21,1.96-.23.62-.36,1.21-.92,1.72-1.62.55-.75,1.2-1.17,1.82-1.17h0ZM10.97,41.24c-.32,0-.61-.08-.83-.25-.24-.19-.52-.56-.45-1.28.24-2.41.41-4.83.5-7.2.01-.31-.04-.84-.51-.87-.42-.03-.94.32-1.37.91-.56.77-1.22,1.39-1.91,1.79-.96.55-1.87.63-2.57.23-.7-.41-1.09-1.24-1.09-2.34,0-2.14,1.5-4.74,3.36-5.81.57-.33,1.1-.48,1.63-.48h.03c.27,0,.59-.08.93-.24.41-.19.78-.56,1.08-1.07.3-.51.45-1.02.44-1.49l-.04-.91c0-.12.06-.23.17-.29,4.94-2.54,9.69-2.96,13.36-1.18,3.38,1.64,5.65,4.95,6.55,9.57.02.12-.02.23-.12.3-1.35,1.03-2.73,2.02-4.1,2.94-.71.48-1.4.47-1.83-.03-.4-.46-.45-1.22-.14-2.08.19-.53.29-1.15.29-1.78,0-.87-.28-1.51-.78-1.8-.51-.29-1.2-.21-1.96.23-1.68.97-3.05,3.34-3.05,5.28,0,.53.11,1,.31,1.33l.05.09c.3.55.26,1.32-.1,2.13-.35.79-.91,1.42-1.54,1.73-1.77.87-3.58,1.67-5.39,2.38-.32.13-.64.19-.92.19Z"/>
      <path class="cls-3" d="M21.84,14.9c1.27-1.22,2.18-3.13,2.18-4.76,0-.61-.13-1.11-.36-1.49-.14-.24-.26-.53-.34-.86-.12-.5,0-1.11.32-1.75.33-.64.78-1.12,1.28-1.38,1.85-.95,3.71-1.8,5.56-2.59.97-.41,1.94-.18,1.78,1.03-.32,2.47-.57,4.9-.71,7.27-.05.73.24,1.2.77,1.24.53.05,1.15-.34,1.65-1.03.51-.7,1.13-1.3,1.8-1.68,1.43-.83,2.65-.44,3.05.82-1.41,1.18-2.87,2.22-4.38,3.09-4.78,2.76-9.17,3.35-12.61,2.09Z"/>
      <path class="cls-2" d="M22.4,14.77c3.39,1.05,7.58.27,11.89-2.22,1.4-.81,2.8-1.79,4.17-2.92-.16-.37-.42-.64-.75-.76-.48-.19-1.12-.08-1.78.31-.61.35-1.2.91-1.71,1.6-.57.78-1.29,1.21-1.93,1.15-.71-.06-1.11-.66-1.05-1.57.15-2.31.39-4.76.72-7.29.03-.25.02-.58-.19-.74-.24-.18-.68-.17-1.16.04-1.88.8-3.74,1.67-5.54,2.58-.44.23-.85.67-1.14,1.24-.29.56-.4,1.11-.3,1.54.07.28.17.54.31.77.27.44.4,1,.4,1.65,0,1.52-.76,3.32-1.93,4.62h0ZM25.53,15.84c-1.34,0-2.62-.21-3.79-.64-.1-.04-.17-.12-.2-.22-.02-.1.01-.21.09-.28,1.24-1.21,2.08-3.03,2.08-4.54,0-.53-.11-.99-.31-1.33-.17-.29-.3-.6-.38-.95-.14-.58-.02-1.26.35-1.96.36-.7.85-1.22,1.42-1.51,1.81-.92,3.69-1.8,5.58-2.6.7-.29,1.36-.28,1.77.04.25.19.53.57.43,1.31-.33,2.51-.57,4.95-.71,7.24-.02.33.02.88.49.92.41.03.94-.31,1.38-.9.56-.76,1.21-1.37,1.9-1.77.83-.48,1.65-.6,2.31-.35.56.22.97.68,1.19,1.34.04.12,0,.25-.09.33-1.45,1.21-2.93,2.26-4.43,3.12-3.15,1.82-6.27,2.75-9.08,2.75Z"/>
      <path class="cls-3" d="M7.42,13.34c.47-1.26,1.51-1.99,2.56-2.75,1.14-.83,2.29-1.64,3.47-2.42.52-.34,1.17-.91,1.82-.59l2.74,1.58c-.3-.15-.54-.11-.85,0-.39.18-.76.46-1.12.7-.74.5-1.48,1-2.21,1.52-.73.52-1.53,1.07-2.23,1.64-.39.33-.69.66-.98,1.07-.19.28-.32.52-.45.83h0s-2.74-1.58-2.74-1.58Z"/>
      <path class="cls-2" d="M7.82,13.21l2.21,1.28c.1-.19.2-.38.34-.58.31-.44.63-.79,1.04-1.13.59-.48,1.24-.94,1.87-1.38l.38-.27c.74-.52,1.47-1.03,2.22-1.52l.24-.16c.28-.19.56-.39.86-.53l-1.85-1.07c-.35-.17-.75.07-1.27.43l-.22.15c-1.15.77-2.28,1.55-3.46,2.41l-.12.09c-.91.66-1.77,1.29-2.23,2.28h0ZM10.16,15.23c-.05,0-.1-.01-.15-.04l-2.74-1.59c-.13-.08-.19-.23-.14-.37.49-1.3,1.53-2.06,2.54-2.8l.13-.09c1.18-.86,2.32-1.66,3.48-2.42l.21-.14c.51-.35,1.19-.83,1.92-.47l2.76,1.59c.14.08.19.26.12.41-.08.15-.26.2-.41.13-.19-.09-.32-.09-.61.02-.26.12-.54.31-.81.5l-.25.17c-.74.49-1.47,1-2.2,1.51l-.39.28c-.62.43-1.26.89-1.83,1.35-.36.3-.64.62-.92,1.01-.18.27-.3.49-.41.77-.03.08-.1.15-.19.18-.03.01-.07.02-.11.02Z"/>
    </g>
  </g>
</svg>