<?xml version="1.0" encoding="UTF-8"?>
<svg id="Layer_2" data-name="Layer 2" xmlns="http://www.w3.org/2000/svg" viewBox="0 0 30.84 41.92" fill="currentColor">
  <defs>
    <style>
      .cls-1 {
        fill: #fff;
      }

      .cls-1, .cls-2, .cls-3, .cls-4 {
        fill-rule: evenodd;
      }

      .cls-2 {
        fill: #1a87c7;
      }

      .cls-3 {
        fill: #bdedf8;
      }

      .cls-4 {
        fill: #66ceef;
      }
    </style>
  </defs>
  <g id="_Layer_" data-name="&amp;lt;Layer&amp;gt;">
    <g>
      <path class="cls-4" d="M4.19,41.55l-3.59-2.07c-.24-.16-.28-.37-.29-.64V9.62c.02-.3.16-.48.42-.63.41-.24.82-.47,1.23-.71.1-.04.14-.06.24-.02l3.59,2.07c-.1-.04-.14-.02-.24.02-.44.25-.88.51-1.31.76-.2.14-.31.33-.33.58v23.92l22.7-13.11c.1-.04.14-.06.24-.02l3.59,2.07c-.1-.04-.14-.02-.24.02l-24.31,14.04-1.98-1.15v3.44c.01.27.06.48.29.64Z"/>
      <path class="cls-2" d="M2.1,8.55l-1.22.7c-.18.11-.25.2-.26.39v29.19c.01.24.05.31.16.39l2.82,1.62v-3.38c0-.11.06-.21.15-.27.09-.06.21-.06.31,0l1.83,1.06,23.83-13.76-2.97-1.71-22.69,13.1c-.1.06-.21.06-.31,0-.1-.06-.15-.16-.15-.27V11.69c.03-.37.19-.64.47-.84l1.01-.58-2.97-1.72h0ZM4.19,41.86c-.05,0-.11-.01-.15-.04l-3.59-2.07c-.37-.25-.43-.58-.44-.9V9.62c.03-.41.21-.69.57-.89l1.23-.71c.16-.08.29-.12.5-.05l3.64,2.1c.14.08.19.25.12.4-.07.14-.24.21-.39.16l-1.29.76c-.11.08-.17.18-.18.34v23.37s22.25-12.84,22.25-12.84c.14-.06.28-.13.5-.04l3.64,2.1c.14.08.19.25.12.4-.07.15-.24.22-.39.16l-24.29,14.04c-.1.05-.21.05-.31,0l-1.52-.88v2.9c.01.25.05.31.16.39.14.09.17.28.08.42-.06.09-.16.14-.26.14Z"/>
      <path class="cls-3" d="M4.89,41.48c-.28.16-.52.17-.7.07-.18-.1-.29-.33-.29-.64V11.69c0-.21.15-.47.33-.58.44-.25.88-.51,1.32-.76.19-.1.34-.02.34.2v28.07l24.31-14.04c.19-.11.34-.02.34.19v1.52c0,.21-.15.47-.34.58l-25.3,14.61Z"/>
      <path class="cls-2" d="M5.58,10.69l-1.19.68c-.09.05-.18.21-.18.31v29.22c0,.19.05.33.14.38.08.05.23.02.39-.07h0l25.3-14.61c.09-.05.18-.21.18-.31v-1.37l-24.18,13.96c-.1.05-.21.05-.31,0-.1-.06-.15-.16-.15-.27V10.69h0ZM4.45,41.92c-.15,0-.29-.03-.41-.11-.28-.16-.45-.5-.45-.91V11.69c0-.32.21-.69.49-.85l1.31-.76c.19-.11.39-.12.55-.02.16.09.25.27.25.48v27.54l23.85-13.77c.19-.11.39-.11.55-.02.16.09.25.27.25.48v1.52c0,.32-.21.69-.49.85l-25.3,14.61c-.2.12-.41.18-.6.18Z"/>
      <polygon class="cls-1" points="25.74 25.3 5.88 36.76 5.88 15.47 25.74 4.01 25.74 25.3"/>
      <path class="cls-2" d="M25.74,25.3h0,0ZM6.19,15.65v20.58l19.24-11.11V4.54L6.19,15.65h0ZM5.88,37.07c-.05,0-.1-.02-.15-.04-.1-.06-.15-.16-.15-.27V15.47c0-.11.06-.21.15-.27L25.59,3.74c.09-.06.21-.06.31,0,.1.05.15.15.15.27v21.29c0,.11-.06.21-.15.27l-19.86,11.47s-.1.04-.16.04Z"/>
      <path class="cls-4" d="M19.36,12.09c-.08-.06-.1-.09-.16-.17l-.38-.68c-.16-.34-.09-.67.03-1.01.21-.51.49-.76.86-1.18.55-.62,1.09-1.24,1.63-1.86,1.16-1.33,2.33-2.66,3.49-3.99.62-.71,1.24-1.42,1.86-2.13l-1.31-.76c-.85.97-1.71,1.95-2.56,2.92-1.01,1.15-2.01,2.3-3.02,3.46-.54.62-1.09,1.24-1.63,1.86-.33.37-.5.56-.67,1.03-.09.31-.13.6.01.9l.38.67c.06.08.08.11.16.17l1.31.76h0ZM24.57,12.7l-1.31-.76c-.24-.17-.26-.29-.29-.57l-.06-1.82,1.31.76.06,1.82c.04.29.06.4.29.57h0ZM8.45,31.93l-1.31-.76c-.46-.29-.27-.97-.09-1.37l4.94-10.23c.26-.51.58-.93,1.08-1.23l5.23-3.04,2.32-6.08,1.31.76-2.32,6.08-5.23,3.04c-.49.3-.82.72-1.08,1.23l-4.94,10.23c-.18.4-.37,1.08.09,1.37h0Z"/>
      <path class="cls-2" d="M23.23,10.1l.04,1.26c.03.23.03.24.17.33l.53.3-.05-1.5-.68-.4h0ZM24.57,13.01c-.06,0-.11-.01-.16-.04l-1.31-.76c-.36-.26-.4-.47-.45-.8l-.06-1.85c0-.11.06-.22.15-.27.09-.06.22-.06.31,0l1.31.76c.09.05.15.15.16.26l.05,1.82c.03.22.03.23.17.33.13.1.17.28.08.42-.06.09-.16.14-.26.14h0ZM25.44.7l.77.45-5.1,5.83-1.81,2.06c-.28.32-.53.59-.74,1.08-.11.32-.21.7-.07,1.11l-.25-.15q-.05-.04-.08-.08l-.37-.65c-.1-.21-.07-.41,0-.67.14-.4.28-.55.61-.93L25.44.7h0ZM20.77,9.68l-2.19,5.75c-.03.07-.07.12-.13.16l-5.23,3.04c-.39.24-.7.59-.96,1.1l-4.93,10.22c-.06.12-.33.78-.02.97l.55.32c.02-.24.09-.51.22-.79l4.94-10.24c.32-.63.7-1.06,1.2-1.36l5.14-2.98,2.19-5.74-.77-.45h0ZM8.45,32.24c-.05,0-.1-.01-.15-.04l-1.31-.76c-.5-.31-.57-.97-.22-1.76l4.94-10.24c.31-.63.69-1.06,1.2-1.36l5.14-2.98,1.07-2.81-1.22-.7c-.14-.11-.19-.16-.26-.27l-.39-.69c-.2-.42-.14-.79-.04-1.14.19-.53.38-.75.7-1.11L25.14.1c.1-.11.26-.14.39-.06l1.31.76c.08.04.13.12.15.21.02.09-.01.18-.07.25l-7.16,8.18c-.27.3-.46.52-.62.9-.1.29-.15.53-.04.76l.28.49.95-2.48c.03-.08.1-.15.18-.18.09-.03.18-.02.26.02l1.31.76c.13.08.19.24.13.38l-2.32,6.08c-.03.07-.07.12-.13.16l-5.23,3.04c-.39.24-.7.59-.96,1.1l-4.93,10.22c-.08.17-.32.78-.02.97.14.09.19.28.1.42-.06.09-.16.15-.26.15Z"/>
      <path class="cls-3" d="M8.36,30.56l4.94-10.23c.13-.27.3-.52.48-.73.19-.21.39-.38.6-.5l5.23-3.04,2.32-6.08-1.49,1.7c-.46.52-1.01.62-1.23.22l-.38-.68c-.22-.4-.03-1.14.42-1.67,2.48-2.83,4.96-5.67,7.44-8.51.1,3.13.2,6.26.29,9.39.02.58-.38,1.3-.89,1.62l-.86.53c-.51.31-.94.1-.95-.47l-.06-1.82-2.72,7.08c-.12.27-.27.54-.46.77-.2.25-.43.45-.67.58l-5.35,3.11-4.53,9.39c-.31.64-.89,1.06-1.29.94l-.68-.22c-.4-.13-.47-.75-.17-1.4Z"/>
      <path class="cls-2" d="M8.63,30.7c-.19.4-.19.71-.12.86.04.09.08.1.1.11l.68.21c.2.06.65-.21.92-.78l4.53-9.39c.03-.06.07-.11.12-.13l5.35-3.11c.2-.12.4-.29.58-.51.17-.21.31-.45.42-.7l2.71-7.06c.06-.14.19-.22.34-.19.14.02.25.15.26.29l.05,1.82c0,.15.05.26.12.3.08.04.22.01.37-.08l.86-.53c.41-.25.76-.88.74-1.34l-.27-8.61-6.93,7.92c-.39.45-.53,1.06-.39,1.32l.38.67c.03.06.07.08.12.08.13.01.38-.09.61-.36l1.49-1.7c.1-.11.26-.14.39-.06.13.08.18.24.13.37l-2.32,6.08c-.03.07-.07.12-.13.16l-5.23,3.04c-.18.1-.36.25-.52.44-.17.19-.32.42-.44.66l-4.93,10.23h0ZM9.36,32.51c-.08,0-.17-.01-.25-.04l-.68-.22c-.21-.07-.38-.23-.48-.45-.16-.36-.11-.88.13-1.38h0l4.94-10.23c.14-.29.32-.56.52-.79.21-.24.44-.43.68-.57l5.14-2.98,1.67-4.37-.36.41c-.35.4-.76.61-1.14.57-.25-.03-.47-.17-.59-.4l-.38-.67c-.29-.51-.09-1.4.46-2.02L26.46.86c.08-.09.21-.13.33-.09.12.04.2.15.21.28l.29,9.39c.02.68-.43,1.51-1.03,1.89l-.86.53c-.35.21-.7.25-.98.1-.27-.15-.43-.45-.44-.83v-.29s-2.18,5.65-2.18,5.65c-.13.31-.31.6-.51.85-.22.28-.48.51-.75.66l-5.27,3.06-4.49,9.3c-.33.69-.91,1.14-1.42,1.14Z"/>
    </g>
  </g>
</svg>