<?xml version="1.0" encoding="UTF-8"?>
<svg id="Layer_2" data-name="Layer 2" xmlns="http://www.w3.org/2000/svg" viewBox="0 0 34.48 47.91" fill="currentColor">
  <defs>
    <style>
      .cls-1 {
        fill: #fff;
      }

      .cls-1, .cls-2, .cls-3 {
        fill-rule: evenodd;
      }

      .cls-2 {
        fill: #1a87c7;
      }

      .cls-3 {
        fill: #66ceef;
      }
    </style>
  </defs>
  <g id="_Layer_" data-name="&amp;lt;Layer&amp;gt;">
    <g>
      <path class="cls-1" d="M34.16,33.09v-4.82c0-3.85-4.77-5.25-8.04-5.54-.29.57-.58,1.14-.86,1.68l-.08.17c.84,2.04-2.18,5.04-5.32,6.21-2.28.86-4.77.52-7-.35-2.38-.92-3.83-2.23-3.62-3.41-1.65,2.13-3.93,3.73-5.74,5.72-1.55,1.72-2.72,3.29-3.14,5.6l-.05.44v4.37c-.03,1.45.18,1.83,1.76,2.74,12.18,7.03,32.09-9.99,32.09-12.83Z"/>
      <path class="cls-2" d="M9.01,27.83c-.86,1.01-1.89,1.91-2.83,2.79-.84.75-1.7,1.52-2.46,2.35-1.36,1.55-2.65,3.13-3.04,5.45l-.08.85v3.91c0,1.33.1,1.61,1.62,2.48,6.79,3.92,15.69-.05,20.38-2.77,6.6-3.81,11.24-8.63,11.24-9.79h0v-4.82c0-4.15-5.89-5.04-7.55-5.21-.26.51-.5,1.01-.79,1.5l-.03.05c.21.6.16,1.26-.16,1.98-.76,1.75-2.96,3.6-5.37,4.49-2.12.8-4.56.68-7.23-.35-2.07-.8-3.38-1.85-3.72-2.91h0ZM8.75,47.91c-2.36,0-4.69-.49-6.84-1.72-1.62-.94-1.91-1.39-1.91-3.01v-4.38l.05-.47c.45-2.49,1.78-4.15,3.22-5.77.79-.85,1.65-1.63,2.49-2.39,1.13-1.03,2.31-2.1,3.25-3.31.08-.11.24-.15.37-.09.13.06.21.2.18.34-.18.99,1.15,2.19,3.41,3.07,2.52.97,4.8,1.09,6.79.34,2.23-.83,4.35-2.58,5.03-4.16.26-.62.29-1.17.1-1.64-.03-.09-.03-.18,0-.27l.1-.17c.29-.54.58-1.1.84-1.67.05-.11.18-.18.31-.17,4.04.35,8.33,2.06,8.33,5.84v4.82c0,1.66-5.16,6.64-11.55,10.33-3.35,1.94-8.8,4.5-14.17,4.5Z"/>
      <path class="cls-3" d="M34.16,33.09v-4.82c0-3.49-3.88-4.96-7.05-5.42.29.36.47.85.6,1.36.16.77.16,1.63,0,2.24-.11.54-.31,1.08-.6,1.6-.29.54-.66,1.06-1.1,1.55-.6.7-1.36,1.36-2.17,1.94-.81.58-1.73,1.08-2.62,1.47,0,0-.05.02-.16.05l-.31.12c-.71.26-1.39.44-2.1.54-.73.11-1.47.14-2.23.11-.73-.04-1.49-.14-2.2-.3-.79-.18-1.55-.41-2.28-.7-.76-.29-1.44-.62-2.04-.98-.63-.36-1.15-.76-1.6-1.17-.47-.44-.84-.91-1.1-1.4-1.23,1.17-2.57,2.26-3.69,3.5-1.55,1.72-2.72,3.29-3.14,5.6l-.05.44v4.37c-.03,1.45.18,1.83,1.76,2.74,12.18,7.03,32.09-9.99,32.09-12.83Z"/>
      <path class="cls-2" d="M7.13,29.75c-.31.3-.63.59-.94.88-.84.75-1.7,1.52-2.46,2.35-1.36,1.55-2.65,3.13-3.04,5.45l-.08.85v3.91c0,1.33.1,1.61,1.62,2.48,6.79,3.92,15.69-.05,20.38-2.77,6.6-3.81,11.24-8.63,11.24-9.79h0v-4.82c0-3.37-3.88-4.59-6.13-5.01.13.26.24.55.29.87.18.76.18,1.67.03,2.37-.13.56-.34,1.13-.66,1.68-.29.55-.68,1.09-1.13,1.61-.63.7-1.39,1.39-2.23,1.99-.84.6-1.78,1.12-2.67,1.5,0,0-.05.02-.16.06l-.34.12c-.68.26-1.41.45-2.15.56-.73.11-1.49.14-2.28.11-.73-.04-1.52-.14-2.28-.31-.76-.17-1.55-.41-2.31-.71-.79-.3-1.47-.63-2.1-1-.66-.38-1.21-.79-1.65-1.22-.39-.36-.71-.75-.97-1.14h0ZM8.75,47.91c-2.36,0-4.69-.49-6.84-1.72-1.62-.94-1.91-1.39-1.91-3.01v-4.38l.05-.47c.45-2.49,1.78-4.15,3.22-5.77.79-.85,1.65-1.63,2.49-2.39.42-.37.81-.75,1.23-1.13.08-.07.16-.09.26-.08.08.02.16.07.21.16.26.46.6.91,1.05,1.33.42.4.94.78,1.55,1.13.6.35,1.26.68,1.99.96.73.29,1.49.52,2.23.68.73.16,1.47.26,2.17.3.73.04,1.47,0,2.15-.1.71-.11,1.39-.28,2.04-.53l.47-.17c.84-.36,1.73-.86,2.54-1.43.81-.57,1.54-1.23,2.12-1.89.42-.49.79-.99,1.07-1.5.26-.51.47-1.02.58-1.52.13-.61.13-1.42-.03-2.1-.1-.5-.29-.93-.55-1.23-.08-.1-.08-.24-.03-.35.08-.11.18-.17.31-.15,2.2.32,7.34,1.51,7.34,5.73v4.82c0,1.66-5.16,6.64-11.55,10.33-3.35,1.94-8.8,4.5-14.17,4.5Z"/>
      <path class="cls-1" d="M9.25,27.05c.26-.32,1-1.07,1.18-1.4.39-.67.39-.92.47-1.7,3.35,3.88,11.24,6.16,14.28.65h0c.84,2.05-2.18,5.04-5.32,6.21-2.28.86-4.77.52-7-.35-2.38-.92-3.83-2.23-3.62-3.41Z"/>
      <path class="cls-2" d="M9.54,27.17c-.1.97,1.23,2.14,3.43,2.99,2.52.97,4.8,1.09,6.79.34,2.23-.83,4.35-2.58,5.03-4.16.13-.32.21-.63.24-.92-1.13,1.56-2.72,2.49-4.74,2.7-3.07.32-6.81-1.12-9.14-3.49-.05.37-.16.67-.45,1.15-.13.24-.45.61-.79.96-.13.16-.26.3-.37.41h0ZM17,31.61c-1.34,0-2.75-.29-4.27-.87-2.62-1.02-4.03-2.42-3.77-3.75,0-.05.03-.09.05-.13.11-.12.26-.31.45-.5.26-.3.6-.68.71-.87.31-.53.34-.75.39-1.34l.03-.24c.03-.12.11-.22.21-.26.13-.04.26,0,.34.09,2.17,2.52,5.97,4.11,9.07,3.78,2.1-.22,3.72-1.28,4.69-3.08.08-.1.18-.16.29-.16.13,0,.24.08.29.19.24.63.21,1.34-.13,2.12-.76,1.75-2.96,3.6-5.37,4.49-.92.35-1.91.52-2.96.52Z"/>
      <path class="cls-1" d="M23.32,27.22c1.26-1.22,2.28-3.45,3.27-5.47,1.36-2.77,1.28-5.93,1.31-8.47.13-2,.08-4.31-.18-6.2-1.2-8.17-14.36-9.61-19.89-.68-2.23,4.1-.81,15.32,3.04,17.75l.05-.17c2.44,2.75,5.95,4.63,8.75,4.63,1.26,0,2.73-.51,3.64-1.39Z"/>
      <path class="cls-2" d="M10.93,23.67c.11,0,.18.04.24.11,2.38,2.7,5.82,4.52,8.51,4.52h0c1.23,0,2.62-.52,3.43-1.3h0c1.13-1.1,2.1-3.08,3.01-4.99l.21-.4c1.23-2.54,1.26-5.51,1.26-7.89v-.45c.13-2.15.08-4.39-.18-6.15-.47-3.19-2.88-5.54-6.47-6.28C16.85,0,11.29,1.43,8.1,6.56c-2.1,3.86-.84,14.48,2.7,17.15,0-.02.05-.03.08-.03.03,0,.03,0,.05,0h0ZM19.68,28.91c-2.78,0-6.24-1.78-8.72-4.46-.11.02-.16,0-.24-.04-4.01-2.52-5.48-13.91-3.14-18.16C10.93.86,16.74-.65,21.06.24c3.85.8,6.44,3.34,6.94,6.8.26,1.81.34,4.09.21,6.26v.43c-.03,2.45-.03,5.49-1.34,8.16l-.18.4c-.97,1.96-1.94,3.98-3.17,5.16-.94.89-2.44,1.47-3.85,1.47h0Z"/>
      <path class="cls-3" d="M27.43,11.77l.47,1.51c.13-2,.08-4.31-.18-6.2-.6-.09-.47,4.49-.29,4.69h0ZM10.87,24.15c.08-.2.34-1.02.18-1.28-.34-.66-.76-1.56-.94-2.33-.84-3.7,3.56-5.43,4.32.02.66-2.31.63-4.81.68-5.89.16-3.82-2.54-4.08-4.3-4.33-2.59-.36-4.04-.73-4.09.71-.13,4.15.29,10.64,4.14,13.09h0Z"/>
      <path class="cls-2" d="M27.59,8.94c-.03.92,0,1.98.08,2.47,0-.84-.03-1.68-.08-2.47h0ZM27.9,13.59c-.13,0-.26-.09-.29-.22l-.47-1.51h0c-.26-.76-.21-4.15.11-4.79.18-.31.42-.31.5-.29.13.02.24.13.26.26.26,1.81.34,4.09.21,6.26-.03.15-.13.27-.29.29h-.03ZM8.04,10.33c-.37,0-.66.05-.81.18-.08.07-.18.2-.18.56-.13,4.44.39,10.16,3.64,12.59.1-.28.13-.56.1-.65-.5-.95-.84-1.76-1-2.4-.29-1.32.03-2.59.84-3.3.58-.5,1.34-.65,1.99-.4.52.19,1.34.72,1.84,2.27.26-1.53.31-3.02.34-4v-.52c.13-3.44-2.1-3.75-3.88-3.99l-.89-.13c-.79-.12-1.49-.22-1.99-.22h0ZM10.87,24.46c-.05,0-.13-.02-.18-.05-3.8-2.44-4.4-8.61-4.27-13.36.03-.46.16-.79.42-1.01.6-.49,1.68-.34,3.27-.1l.89.13c1.7.23,4.58.63,4.43,4.63l-.03.51c-.03,1.28-.08,3.42-.68,5.45-.03.14-.16.23-.31.22-.13-.01-.24-.12-.26-.26-.24-1.67-.87-2.8-1.73-3.12-.45-.17-.97-.07-1.36.29-.5.44-.94,1.39-.65,2.7.13.59.45,1.34.94,2.25.24.45-.16,1.5-.18,1.54-.03.08-.11.15-.18.18-.05.01-.08.02-.11.02Z"/>
      <path class="cls-2" d="M23.4,15v2.33c0,.36.1.62.29.74.21.11.5.07.79-.11l3.27-1.88c.21-.13.45-.36.6-.64v-.02c.18-.29.26-.6.26-.86v-2.56s-.05.03-.08.04l-5.14,2.97h0ZM22.19,15.7l-4.9,2.83c-.29.16-.34.2-.34.58v2.54c0,.2.05.35.16.4.11.05.26.03.42-.07l3.27-1.88c.34-.21.71-.59.97-1.04.26-.45.42-.95.42-1.37v-1.98h0ZM17.24,22.68c-.16,0-.31-.04-.45-.11-.29-.17-.45-.51-.45-.93v-2.49c0-.69.18-.91.63-1.16l5.95-3.43h0s5.29-3.06,5.29-3.06c.26-.14.47-.26.71-.14.21.11.29.37.31.63v2.57c0,.36-.1.77-.34,1.15v.02c-.24.38-.52.7-.86.88l-3.25,1.88c-.5.3-1.02.33-1.39.11-.31-.18-.52-.51-.6-.93h0c0,.54-.16,1.13-.5,1.69-.31.55-.73,1-1.21,1.27l-3.25,1.88c-.21.12-.42.18-.6.18Z"/>
      <path class="cls-3" d="M18.99,26.47c.94-.53,3.54-1.76,4.3-3.12.79.47,3.38-1.29,4.3-1.82-.58-1.41-3.54-.97-4.3.35-.73-.46-3.72,2.53-4.3,4.59Z"/>
      <path class="cls-2" d="M23.11,22.14s-.13.01-.34.11c-.94.47-2.46,2.13-3.17,3.55,1.15-.62,2.86-1.59,3.43-2.6.05-.07.1-.12.18-.14.08-.02.18,0,.24.03.5.3,2.65-1.01,3.43-1.49.1-.06.21-.12.29-.17-.29-.34-.79-.42-1.1-.44-1.02-.07-2.12.41-2.49,1.06-.05.07-.13.13-.21.15-.08.02-.16,0-.24-.04h-.03ZM18.99,26.78c-.05,0-.13-.02-.18-.07-.11-.08-.13-.2-.11-.33.5-1.78,2.73-4.28,3.96-4.77.18-.07.37-.1.5-.09.63-.85,1.94-1.24,2.96-1.17.86.06,1.49.44,1.76,1.05.05.14,0,.31-.13.38-.16.08-.34.19-.55.32-1.52.93-2.93,1.74-3.77,1.6-.79,1.14-2.62,2.13-3.72,2.73-.21.11-.39.21-.55.29-.03.03-.1.04-.16.04Z"/>
      <path class="cls-2" d="M16.45,18.8s-.08,0-.1-.03l-4.22-1.9c-.16-.08-.31-.09-.42-.04-.05.02-.1.06-.13.16l-.05.29c-.03.16-.21.27-.37.24-.16-.04-.26-.2-.24-.37l.05-.29c.08-.26.21-.46.45-.57.26-.14.63-.13.97.03l4.19,1.9c.16.07.24.25.16.41-.05.12-.16.18-.29.18Z"/>
    </g>
  </g>
</svg>