<?xml version="1.0" encoding="UTF-8"?>
<svg id="Layer_2" data-name="Layer 2" xmlns="http://www.w3.org/2000/svg" viewBox="0 0 55.03 82.76" fill="currentColor">
  <defs>
    <style>
      .cls-1 {
        fill: #fff;
      }

      .cls-1, .cls-2, .cls-3, .cls-4 {
        fill-rule: evenodd;
      }

      .cls-2 {
        fill: #1a87c7;
      }

      .cls-3 {
        fill: #bdedf8;
      }

      .cls-4 {
        fill: #66ceef;
      }
    </style>
  </defs>
  <g id="_Layer_" data-name="&amp;lt;Layer&amp;gt;">
    <g>
      <path class="cls-3" d="M39,39.64q-15.75-9.09,0,0h0Z"/>
      <path class="cls-2" d="M39,40.26c-.07,0-.15-.02-.24-.05l-.05-.04h0l-8.96-5.16c-.28-.16-.52-.31-.76-.44l-2.12-1.24.03-.05c-.5-.37-.43-.51-.26-.8.15-.28.24-.42.82-.16l.02-.05,2.12,1.22c.23.14.49.28.76.43l8.96,5.18c.28.16.38.5.25.8-.1.21-.33.35-.56.35Z"/>
      <path class="cls-4" d="M28.52,30.55l-12.48-7.22c.16.14.17.23.19.42v14.08c-.02.26-.07.42-.19.64l12.48,7.21c.12-.23.19-.4.19-.64v-14.08c-.02-.21-.02-.3-.19-.42Z"/>
      <path class="cls-2" d="M16.8,38.19l11.3,6.54v-13.72l-11.26-6.5v13.32c0,.14-.02.26-.04.37h0ZM28.52,46.29c-.11,0-.21-.03-.3-.09l-12.5-7.2c-.28-.17-.38-.54-.22-.84.09-.16.1-.23.12-.38l-.02-14.05c-.24-.21-.28-.54-.09-.8.17-.26.56-.31.84-.16l12.48,7.21s.05.03.08.07c.33.26.38.54.42.83v14.13c-.02.4-.13.66-.26.92-.09.16-.22.26-.38.31-.05.02-.11.02-.17.02Z"/>
      <polygon class="cls-3" points="33.74 7.83 21.26 .61 9.9 26.65 22.38 33.86 33.74 7.83"/>
      <path class="cls-2" d="M10.68,26.39l11.42,6.6,10.86-24.91L21.54,1.5l-10.86,24.89h0ZM22.38,34.49c-.1,0-.21-.04-.29-.09l-12.5-7.21c-.26-.16-.37-.49-.24-.78L20.69.37c.07-.16.21-.28.38-.33.16-.07.35-.03.49.05l12.5,7.2c.26.16.37.5.25.78l-11.35,26.04c-.07.17-.21.3-.38.35-.05.02-.12.04-.19.04Z"/>
      <path class="cls-4" d="M34.22,53.35l-4.9-2.81.27.17c1.36.97,1.86,2.15,2.17,3.77.12.9.04,1.77.92,2.3l12.48,7.21-.17-.09c-.82-.69-.7-2.24-1.01-3.34-.26-.73-.48-1.18-.95-1.79-.47-.52-.83-.82-1.43-1.15l-7.39-4.28Z"/>
      <path class="cls-2" d="M31.92,52.74c.21.54.35,1.1.45,1.62.02.21.04.36.05.54.07.73.12,1.1.58,1.36l10.69,6.17c-.05-.21-.07-.42-.11-.63-.05-.36-.1-.73-.19-1.06-.25-.68-.46-1.06-.85-1.6-.38-.42-.7-.66-1.24-.97l-9.39-5.42h0ZM45.17,64.6c-.11,0-.21-.02-.31-.07l-12.48-7.21c-1.01-.59-1.09-1.53-1.16-2.29-.02-.16-.04-.3-.05-.45-.26-1.39-.68-2.45-1.93-3.37l-.25-.14c-.28-.19-.36-.55-.2-.85.17-.28.56-.38.85-.21l4.88,2.83h0l7.41,4.26c.65.38,1.07.73,1.56,1.27.58.75.82,1.27,1.08,2,.12.42.19.84.24,1.27.1.71.21,1.44.56,1.77l.13.05c.29.17.38.55.23.85-.12.19-.33.3-.54.3Z"/>
      <path class="cls-3" d="M6.42,55.11c-2.26,3.98-3.93,7.84-5,12.31-.4,1.84-.66,3.56-.8,5.46-.03.78.07,1.48.79,1.91l12.48,7.22c-.31-.19-.44-.35-.61-.68-.18-.43-.19-.78-.16-1.25l.04-.54c.13-1.5.33-2.89.64-4.35.5-2.35,1.18-4.45,2.07-6.66.9-2.17,1.89-4.17,3.06-6.21l9.59-16.64-12.48-7.21-9.62,16.64Z"/>
      <path class="cls-2" d="M6.96,55.42c-2.43,4.26-3.94,8.01-4.94,12.13-.42,1.84-.66,3.55-.78,5.35-.04.77.08,1.11.47,1.35l10.78,6.22v-.44l.04-.56c.14-1.51.35-2.92.66-4.45.5-2.28,1.16-4.42,2.1-6.75.89-2.16,1.88-4.15,3.1-6.29l9.3-16.1-11.42-6.61-9.3,16.12h0ZM13.88,82.61c-.11,0-.21-.02-.31-.07l-12.48-7.22C.06,74.68-.03,73.66,0,72.84c.14-1.88.38-3.63.82-5.55,1.01-4.28,2.57-8.12,5.08-12.5h0l9.59-16.64c.09-.14.22-.24.38-.28.16-.05.33-.02.47.05l12.48,7.22c.29.17.4.54.23.84l-9.62,16.64c-1.18,2.1-2.14,4.05-3.01,6.15-.9,2.26-1.56,4.35-2.05,6.54-.3,1.48-.5,2.83-.63,4.28l-.04.54c-.02.38,0,.66.13.97.08.19.16.24.36.38.28.17.37.54.21.83-.12.19-.33.3-.53.3Z"/>
      <path class="cls-1" d="M48.6,45.18l-9.37-5.42c-.2-.1-.41-.17-.41-.54v-14.08c0-.42.28-.92.64-1.13l5.65-3.27-11.36-12.92-11.36,26.04,5.68-3.27c.36-.21.64-.05.64.37v13.75c0,.33.04.59-.19.97l-9.59,16.64c-1.76,3.02-3.11,6.03-4.09,8.99-.98,2.97-1.55,5.89-1.72,8.76-.12,1.81,1.05,2.61,2.57,1.74l4.9-2.85c1.36-.76,2.47-2.59,2.57-4.21.09-1.25.35-2.54.78-3.82.42-1.29,1.01-2.59,1.78-3.91l7.58-13.12c.26-.45.66-.68.92-.54l6.85,3.97c1.03.59,1.84,1.03,2.5,2.28.43.8.69,1.78.78,2.92.05.75.37,1.25.82,1.48.45.23,1.07.16,1.76-.23l4.9-2.83c1.51-.89,2.69-3.03,2.59-4.69-.19-2.68-.76-4.94-1.74-6.78-.97-1.84-2.33-3.27-4.08-4.28Z"/>
      <path class="cls-2" d="M28.36,29.88c.16,0,.33.03.47.12.31.19.5.54.5.96v13.75c0,.42,0,.78-.28,1.27l-9.62,16.64c-1.72,2.99-3.07,5.98-4.01,8.88-.96,2.92-1.53,5.81-1.71,8.62-.05.64.13,1.13.42,1.32.3.17.73.1,1.24-.17l4.92-2.83c1.16-.68,2.15-2.31,2.26-3.74.08-1.29.37-2.63.8-3.96.43-1.32,1.06-2.68,1.82-4.02l7.6-13.14c.24-.44.61-.75.99-.85.28-.05.54-.04.76.1l6.85,3.95c1.07.62,2.02,1.17,2.73,2.52.47.89.76,1.95.85,3.18.04.49.21.84.47.96.29.14.71.07,1.18-.21l4.92-2.83c1.31-.75,2.36-2.68,2.26-4.12-.17-2.57-.73-4.76-1.65-6.52-.92-1.74-2.21-3.09-3.84-4.03h0l-9.39-5.42c-.26-.14-.73-.38-.73-1.08v-14.08c0-.63.42-1.34.96-1.65l5-2.9-10.22-11.63-10.22,23.45,4.05-2.35c.21-.12.41-.17.61-.17h0ZM14.5,82.76c-.37,0-.71-.09-1.01-.28-.71-.43-1.07-1.34-1.01-2.45.19-2.9.79-5.91,1.76-8.92.99-2.99,2.38-6.05,4.14-9.11l9.61-16.64c.1-.19.1-.29.1-.54v-13.56l-5.4,3.13c-.23.12-.52.1-.71-.07-.21-.19-.26-.47-.16-.71l11.35-26.04c.08-.19.26-.33.47-.36.21-.02.42.03.56.21l11.37,12.92c.13.14.17.33.14.5-.02.19-.14.35-.29.43l-5.65,3.27c-.17.1-.35.4-.35.59v14.08l9.49,5.42c1.84,1.06,3.3,2.59,4.31,4.54,1.01,1.91,1.62,4.28,1.81,7.01.14,1.91-1.16,4.28-2.89,5.27l-4.92,2.85c-.81.47-1.65.56-2.31.24-.69-.33-1.11-1.04-1.18-1.98-.07-1.06-.31-1.96-.7-2.68-.56-1.06-1.24-1.44-2.17-1.98l-6.83-3.94s-.12.12-.19.22l-7.6,13.14c-.73,1.27-1.31,2.55-1.7,3.79-.42,1.23-.66,2.47-.74,3.67-.14,1.81-1.38,3.84-2.89,4.71l-4.92,2.83c-.5.3-1.01.43-1.48.43Z"/>
    </g>
  </g>
</svg>