<?xml version="1.0" encoding="UTF-8"?>
<svg id="Layer_2" data-name="Layer 2" xmlns="http://www.w3.org/2000/svg" viewBox="0 0 34.34 41.27" fill="currentColor">
  <defs>
    <style>
      .cls-1 {
        fill: #fff;
      }

      .cls-1, .cls-2, .cls-3, .cls-4 {
        fill-rule: evenodd;
      }

      .cls-2 {
        fill: #1a87c7;
      }

      .cls-3 {
        fill: #bdedf8;
      }

      .cls-4 {
        fill: #66ceef;
      }
    </style>
  </defs>
  <g id="_Layer_" data-name="&amp;lt;Layer&amp;gt;">
    <g>
      <path class="cls-4" d="M6,38.89l3.49,2.02c-.2-.14-.2-.38-.17-.6l2.01-11.47c.07-.48.07-1-.38-1.29l-3.5-2.02-.07-.04c.51.3.53.78.44,1.33l-2,11.47c-.03.22-.03.46.17.6Z"/>
      <path class="cls-2" d="M6.17,38.62l2.86,1.65h0s2.01-11.49,2.01-11.49c.08-.52,0-.82-.24-.98l-2.61-1.5c0,.23-.02.43-.04.57l-2,11.48c-.03.21,0,.26.03.28h0ZM9.5,41.22c-.05,0-.1-.02-.15-.05l-3.5-2.01s0-.01-.02-.02c-.39-.27-.32-.74-.3-.9l2.01-11.47c.08-.56,0-.83-.3-1.02-.15-.09-.19-.27-.11-.42.09-.15.27-.2.42-.12l.07.04,3.5,2.02c.63.42.61,1.12.53,1.62l-2.01,11.47c-.03.24.02.28.04.29.13.1.17.29.08.43-.05.09-.15.14-.26.14Z"/>
      <path class="cls-3" d="M19.99,8.48l3.5,2.02c.3.13.55.08.83-.05l9.12-4.27c.15-.06.27-.09.42,0l-3.51-2.02c-.15-.09-.27-.05-.42.01l-9.11,4.27c-.29.12-.54.18-.84.04Z"/>
      <path class="cls-2" d="M20.98,8.71l2.66,1.53c.16.07.29.05.57-.07l8.81-4.12-2.81-1.62s-.04-.03-.15.02l-9.08,4.26h0ZM23.83,10.89c-.15,0-.3-.03-.47-.1l-3.53-2.03c-.14-.08-.19-.26-.11-.41.07-.14.25-.2.4-.14.17.08.31.07.59-.05l9.1-4.26c.19-.08.43-.16.7,0l3.49,2.03c.15.08.2.27.12.42-.09.15-.28.2-.43.11-.03-.01-.04-.02-.15.03l-9.1,4.26c-.19.09-.4.15-.63.15Z"/>
      <path class="cls-3" d="M10.01,14.68L.9,20.92c-.21.15-.33.3-.45.53-.13.29-.27.76.03.98l3.5,2.03c-.31-.24-.15-.76,0-1.04.12-.2.24-.34.43-.47l9.11-6.25c.59-.42.95-.97,1.17-1.66l3.63-11.81c.12-.35.6-1.1,1.08-.85L15.89.36c-.47-.25-.96.5-1.07.85l-3.64,11.8c-.22.69-.58,1.23-1.17,1.66Z"/>
      <path class="cls-2" d="M10.01,14.68h.01-.01ZM15.7.62s-.03,0-.06.02c-.22.09-.45.46-.53.68l-3.63,11.8c-.26.8-.67,1.37-1.29,1.82t0,.01L1.08,21.17c-.15.11-.25.22-.35.42-.1.23-.17.51-.06.59l2.84,1.64c.03-.19.1-.38.2-.56.15-.26.3-.43.51-.58l9.12-6.25c.5-.36.83-.84,1.05-1.5l3.63-11.8c.07-.18.27-.6.57-.87l-2.86-1.65s-.02,0-.04,0h0ZM3.98,24.76c-.05,0-.1-.01-.16-.03l-3.49-2.03c-.38-.28-.43-.79-.16-1.38.16-.29.31-.48.55-.65l9.12-6.24c.51-.36.83-.84,1.06-1.51L14.53,1.12c.1-.31.43-.88.89-1.06.21-.09.42-.08.63.03l3.5,2.03c.15.09.2.27.12.41-.09.15-.27.2-.42.12-.03-.02-.06-.02-.11,0-.21.08-.45.45-.54.69l-3.62,11.79c-.27.8-.68,1.38-1.29,1.82l-9.12,6.25c-.14.09-.24.2-.33.37-.12.24-.2.56-.09.64.13.09.16.28.07.41-.06.09-.16.14-.25.14Z"/>
      <path class="cls-3" d="M13.51,16.69l-9.11,6.25c-.58.39-.81,1.38-.37,1.54l6.86,3.02c.4.18.56.67.45,1.33l-2.01,11.47c-.12.72.48.89.98.25l7.88-9.93c.45-.57.99-.89,1.45-.83l7.87.84c.5.05,1.1-.81.98-1.38l-2-9.17c-.11-.52.05-1.21.45-1.84l6.87-10.95c.43-.69.2-1.38-.37-1.11l-9.12,4.27c-.53.25-.95.13-1.17-.3l-3.62-7.61c-.23-.48-.98-.04-1.21.69l-3.63,11.81c-.19.62-.69,1.37-1.17,1.66Z"/>
      <path class="cls-2" d="M13.68,16.96l-9.1,6.24c-.28.18-.44.56-.47.81,0,.12.02.18.03.19l6.88,3.03c.53.23.76.86.63,1.67l-2.01,11.47c-.03.19,0,.28.03.29.04,0,.21-.03.41-.28l7.88-9.93c.53-.66,1.16-1.01,1.72-.95l7.88.84c.07,0,.21-.06.35-.22.22-.24.35-.59.3-.8l-1.99-9.16c-.14-.62.04-1.37.49-2.08l6.87-10.95c.24-.38.18-.67.14-.7,0,0-.04,0-.11.03l-9.12,4.27c-.67.31-1.28.15-1.57-.45l-3.63-7.62s-.07-.03-.14,0c-.17.09-.39.32-.5.65l-3.63,11.8c-.2.65-.71,1.49-1.3,1.83h0ZM9.69,41.27c-.1,0-.19-.02-.28-.06-.31-.14-.46-.5-.39-.95l2.01-11.47c.09-.5-.01-.88-.27-1l-6.87-3.02c-.22-.08-.36-.3-.4-.57-.05-.46.2-1.14.73-1.5l9.11-6.24s0,0,.02-.02c.38-.22.85-.89,1.04-1.49l3.63-11.8c.18-.6.68-1.08,1.15-1.11.26-.02.51.12.63.38l3.63,7.61c.06.11.21.43.76.17l9.11-4.27c.33-.15.64-.11.84.12.29.32.25.91-.08,1.43l-6.87,10.95c-.36.56-.5,1.16-.41,1.62l2,9.16c.09.48-.15,1.02-.45,1.34-.27.3-.59.44-.87.42l-7.87-.84c-.32-.04-.79.24-1.17.72l-7.88,9.93c-.26.33-.57.51-.86.51Z"/>
      <path class="cls-1" d="M16.37,23.7c0,.82-.57,1.81-1.28,2.22-.7.41-1.28.08-1.28-.74s.57-1.81,1.28-2.21c.7-.41,1.28-.08,1.28.73Z"/>
      <path class="cls-2" d="M15.67,23.1c-.12,0-.27.04-.42.13-.61.36-1.12,1.24-1.12,1.95,0,.28.08.48.22.57.14.08.36.04.59-.1.62-.35,1.13-1.24,1.13-1.95,0-.27-.08-.48-.23-.56-.05-.03-.11-.04-.17-.04h0ZM14.53,26.4c-.18,0-.35-.04-.5-.13-.34-.2-.52-.58-.52-1.09,0-.92.63-2.02,1.42-2.48.44-.25.88-.28,1.22-.09.34.19.53.58.53,1.09,0,.93-.63,2.02-1.43,2.49-.25.14-.5.22-.72.22Z"/>
      <path class="cls-1" d="M20.08,19.52c.59-.34,1.07-.06,1.07.62,0,.35-.12.72-.31,1.05-.19.34-.46.63-.75.8-.58.34-1.07.06-1.07-.62s.49-1.51,1.07-1.85Z"/>
      <path class="cls-2" d="M20.23,19.79c-.5.29-.91,1.01-.91,1.58,0,.22.06.37.15.43.1.06.27.03.45-.07.23-.14.47-.39.63-.69.17-.3.28-.63.28-.9,0-.21-.06-.36-.16-.42-.1-.06-.26-.04-.44.07h0ZM19.6,22.44c-.15,0-.29-.03-.42-.11-.3-.17-.47-.51-.47-.96,0-.79.54-1.72,1.23-2.11h0c.37-.22.76-.25,1.06-.08.3.17.47.52.47.96,0,.38-.13.82-.36,1.21-.23.4-.54.72-.87.91-.22.12-.43.18-.64.18Z"/>
      <path class="cls-1" d="M19.95,11.46c.4-.23.73-.04.73.43s-.33,1.03-.73,1.27c-.2.11-.38.12-.52.04-.13-.07-.21-.23-.21-.47,0-.47.33-1.04.73-1.27Z"/>
      <path class="cls-2" d="M19.95,11.46h0,0ZM20.27,11.67s-.09.02-.17.06h0c-.31.17-.58.64-.58,1,0,.11.03.19.06.21.04.02.11,0,.21-.05.31-.18.58-.64.58-1,0-.12-.03-.19-.06-.21,0,0-.03,0-.04,0h0ZM19.63,13.56c-.12,0-.24-.03-.34-.09-.24-.14-.37-.41-.37-.74,0-.57.39-1.25.89-1.54.29-.17.59-.18.83-.04.24.13.37.4.37.74,0,.57-.39,1.24-.89,1.53-.17.09-.33.14-.48.14Z"/>
      <path class="cls-1" d="M22.13,13.76c.62-.36,1.12-.07,1.12.65,0,.36-.13.75-.33,1.1-.2.35-.49.66-.79.83-.31.18-.59.2-.8.08-.2-.11-.32-.36-.32-.72,0-.71.5-1.59,1.12-1.95Z"/>
      <path class="cls-2" d="M22.27,14.03c-.52.3-.96,1.07-.96,1.68,0,.23.06.39.17.46.12.06.29.03.49-.08.25-.15.5-.41.68-.73.18-.31.29-.66.29-.95,0-.24-.06-.4-.17-.46-.11-.06-.29-.03-.49.08h0ZM21.62,16.82c-.15,0-.31-.04-.44-.12-.31-.17-.49-.54-.49-.99,0-.82.57-1.8,1.28-2.22h0c.39-.23.79-.25,1.1-.07.31.17.48.54.48.99,0,.4-.13.84-.36,1.26-.24.41-.57.75-.91.95-.22.13-.44.2-.65.2Z"/>
      <path class="cls-1" d="M24.74,25.27c.62-.36,1.13-.07,1.13.65s-.51,1.6-1.13,1.95c-.31.18-.6.19-.8.08-.21-.12-.33-.37-.33-.73,0-.72.51-1.6,1.13-1.96Z"/>
      <path class="cls-2" d="M24.9,25.54c-.53.3-.98,1.08-.98,1.69,0,.23.07.4.18.46.11.07.29.03.49-.08.53-.3.97-1.08.97-1.69,0-.24-.06-.4-.17-.46-.11-.07-.3-.04-.49.08h0ZM24.24,28.33c-.17,0-.31-.03-.45-.11-.3-.18-.48-.55-.48-1,0-.84.56-1.81,1.28-2.23h0c.4-.23.79-.26,1.1-.08.31.18.49.54.49,1,0,.83-.56,1.81-1.29,2.22-.22.13-.44.19-.65.19Z"/>
      <path class="cls-1" d="M27.27,10.79c.38-.22.72-.24.97-.1.24.15.4.45.4.89,0,.87-.62,1.94-1.37,2.37-.75.43-1.37.08-1.37-.79s.62-1.93,1.37-2.37Z"/>
      <path class="cls-2" d="M27.43,11.06c-.65.38-1.2,1.34-1.2,2.1,0,.3.09.52.24.62.16.09.39.05.66-.1.65-.38,1.21-1.34,1.21-2.1,0-.3-.09-.52-.24-.62-.16-.09-.4-.05-.66.09h0ZM26.66,14.45c-.18,0-.36-.05-.51-.14-.36-.21-.55-.62-.55-1.15,0-.98.67-2.15,1.52-2.63h0c.46-.27.91-.3,1.27-.09.36.21.56.62.56,1.15,0,.99-.67,2.15-1.52,2.63-.26.15-.52.23-.76.23Z"/>
      <path class="cls-1" d="M19.42,25.2c.33-.18.63-.2.84-.08.22.12.35.38.35.76,0,.75-.53,1.66-1.18,2.03-.64.37-1.17.07-1.17-.68s.53-1.66,1.17-2.04Z"/>
      <path class="cls-2" d="M19.58,25.47c-.56.32-1.03,1.13-1.03,1.77,0,.24.07.42.19.49.12.07.31.03.53-.09.55-.31,1.02-1.13,1.02-1.77,0-.25-.07-.42-.19-.5-.12-.08-.3-.04-.52.08h0ZM18.9,28.4c-.17,0-.32-.04-.46-.12-.31-.18-.5-.55-.5-1.02,0-.86.58-1.88,1.33-2.31h0c.41-.24.81-.27,1.14-.09.31.18.5.57.5,1.04,0,.86-.58,1.87-1.33,2.3-.23.13-.46.2-.68.2Z"/>
      <path class="cls-1" d="M18.83,7.83c.49-.28.89-.05.89.51s-.4,1.24-.89,1.53c-.24.14-.46.15-.63.06-.16-.09-.25-.3-.25-.57,0-.56.39-1.25.88-1.53Z"/>
      <path class="cls-2" d="M18.83,7.83h0,0ZM19.23,8.02c-.07,0-.15.03-.24.08h0c-.39.22-.73.81-.73,1.26,0,.16.04.27.11.3.06.04.18.02.32-.06.39-.23.73-.81.73-1.26,0-.16-.04-.27-.11-.3-.02-.02-.04-.02-.07-.02h0ZM18.44,10.3c-.14,0-.27-.04-.38-.1-.27-.16-.42-.46-.42-.84,0-.67.46-1.46,1.04-1.8h0c.32-.19.67-.21.93-.06.26.16.41.46.41.84,0,.67-.45,1.46-1.04,1.79-.18.11-.37.16-.55.16Z"/>
      <path class="cls-1" d="M16.61,15.96c.43-.25.84-.28,1.12-.11.29.17.47.52.47,1.03,0,1.02-.71,2.25-1.59,2.75-.44.25-.83.28-1.12.11-.29-.16-.47-.52-.47-1.03,0-1.01.71-2.25,1.59-2.75Z"/>
      <path class="cls-2" d="M16.76,16.23c-.77.44-1.43,1.58-1.43,2.48,0,.37.12.65.31.76.2.11.5.08.82-.12.78-.44,1.43-1.58,1.43-2.48,0-.37-.11-.64-.31-.76-.19-.11-.49-.08-.81.11h0ZM15.89,20.15c-.2,0-.39-.04-.57-.15-.4-.23-.62-.69-.62-1.29,0-1.12.76-2.45,1.74-3.02h0c.53-.31,1.04-.34,1.43-.12.4.24.62.7.62,1.3,0,1.13-.76,2.46-1.75,3.02-.3.17-.59.25-.86.25Z"/>
      <path class="cls-1" d="M13.77,29.88c.62-.36,1.12-.07,1.12.65s-.5,1.59-1.12,1.95c-.63.36-1.13.06-1.13-.65s.51-1.6,1.13-1.95Z"/>
      <path class="cls-2" d="M13.91,30.14c-.53.31-.98,1.09-.98,1.69,0,.23.06.4.18.46.12.07.29.03.5-.08.53-.3.97-1.08.97-1.68,0-.24-.06-.4-.17-.47-.11-.06-.3-.04-.49.08h0ZM13.25,32.95c-.16,0-.31-.04-.45-.12-.31-.17-.48-.54-.48-.99,0-.83.56-1.81,1.29-2.22h0c.39-.23.8-.25,1.1-.08.31.18.49.54.49,1,0,.83-.57,1.81-1.29,2.22-.22.13-.44.2-.66.2Z"/>
      <path class="cls-1" d="M11.42,20.95c.56-.33,1.01-.06,1.01.58s-.45,1.43-1.01,1.75c-.56.32-1.01.06-1.01-.58s.45-1.42,1.01-1.75Z"/>
      <path class="cls-2" d="M11.87,21.12c-.09,0-.19.03-.3.09-.47.27-.86.95-.86,1.48,0,.19.05.33.14.38.09.05.24.02.41-.07.47-.27.86-.95.86-1.48,0-.19-.05-.34-.15-.39-.03-.02-.06-.03-.11-.03h0ZM10.97,23.73c-.15,0-.3-.03-.42-.11-.29-.17-.45-.5-.45-.92,0-.75.51-1.64,1.16-2.01.36-.21.74-.23,1.03-.07.29.17.45.5.45.92,0,.75-.51,1.63-1.17,2.01-.21.12-.42.18-.61.18Z"/>
      <path class="cls-1" d="M23.76,18.22c.19-.33.45-.62.74-.78.29-.17.55-.18.74-.07.18.1.3.34.3.68s-.12.71-.3,1.03c-.19.33-.45.62-.74.78-.29.16-.55.18-.74.07-.19-.11-.3-.34-.3-.67s.12-.7.3-1.03Z"/>
      <path class="cls-2" d="M23.76,18.22h.01-.01ZM24.96,17.6c-.09,0-.19.04-.31.1-.23.13-.45.37-.62.67h0c-.18.28-.27.61-.27.88,0,.2.05.35.15.4.11.06.26.03.44-.07.22-.13.46-.37.63-.67.17-.29.26-.61.26-.87,0-.2-.05-.36-.15-.41-.04-.02-.07-.04-.12-.04h0ZM24.03,20.3c-.16,0-.3-.04-.43-.11-.3-.17-.46-.51-.46-.94,0-.38.12-.8.35-1.19h0c.23-.38.53-.7.85-.89.37-.22.75-.24,1.05-.08.29.17.45.51.45.95,0,.38-.12.79-.35,1.18-.22.38-.52.7-.85.89-.21.12-.42.18-.62.18Z"/>
      <path class="cls-4" d="M13.89,16.37c.39-.4.61-.81.8-1.34l3.63-11.81c.12-.36.61-1.1,1.08-.85L15.89.36c-.44-.24-.92.44-1.05.78l-3.66,11.87c-.17.53-.4.93-.79,1.34l3.5,2.01Z"/>
      <path class="cls-2" d="M10.87,14.28l2.96,1.7c.25-.3.42-.63.56-1.04l3.63-11.8c.08-.24.29-.62.57-.87l-2.86-1.65s-.04,0-.09,0c-.2.07-.43.42-.52.63l-3.65,11.85c-.15.46-.34.83-.61,1.17h0ZM13.89,16.69c-.05,0-.11-.02-.15-.05l-3.5-2.02c-.08-.05-.14-.13-.15-.22-.02-.1.02-.18.08-.25.35-.37.57-.73.73-1.23L14.55,1.06c.13-.33.46-.84.89-1.01.21-.08.42-.06.61.03l3.5,2.03c.15.09.2.27.12.41-.09.15-.27.2-.42.12-.03,0-.05-.03-.11,0-.21.09-.45.46-.52.68l-3.63,11.8c-.2.6-.46,1.03-.87,1.47-.06.06-.14.1-.23.1Z"/>
      <path class="cls-1" d="M23.08,22.15c.41-.23.73-.04.73.42s-.32,1.04-.73,1.27c-.4.24-.73.04-.73-.42s.33-1.04.73-1.27Z"/>
      <path class="cls-2" d="M23.41,22.36s-.11.02-.17.06c-.3.18-.58.64-.58,1,0,.12.04.19.07.21.03.02.1,0,.2-.05.31-.17.58-.64.58-1,0-.12-.03-.19-.06-.21,0,0-.02,0-.03,0h0ZM22.76,24.26c-.13,0-.24-.03-.35-.09-.23-.13-.36-.4-.36-.74,0-.57.38-1.24.89-1.53.29-.17.59-.19.82-.05.23.13.37.4.37.74,0,.57-.39,1.25-.89,1.54-.17.08-.33.14-.48.14Z"/>
    </g>
  </g>
</svg>