<?xml version="1.0" encoding="UTF-8"?>
<svg id="Layer_2" data-name="Layer 2" xmlns="http://www.w3.org/2000/svg" viewBox="0 0 61.4 85.94" fill="currentColor">
  <defs>
    <style>
      .cls-1 {
        fill: #fff;
      }

      .cls-1, .cls-2, .cls-3, .cls-4 {
        fill-rule: evenodd;
      }

      .cls-2 {
        fill: #1a87c7;
      }

      .cls-3 {
        fill: #bdedf8;
      }

      .cls-4 {
        fill: #66ceef;
      }
    </style>
  </defs>
  <g id="_Layer_" data-name="&amp;lt;Layer&amp;gt;">
    <g>
      <polygon class="cls-4" points="44.27 69.32 42.24 68.15 41.83 67.73 41.66 66.91 41.67 62.62 43.7 63.8 43.7 68.07 43.85 68.9 44.27 69.32"/>
      <path class="cls-2" d="M42.62,67.66l.47.27v-3.78s-.81-.46-.81-.46v3.21l.11.52.23.23h0ZM44.27,69.93c-.1,0-.22-.03-.31-.08l-2.03-1.17s-.09-.06-.13-.1l-.41-.42c-.09-.08-.15-.19-.17-.31l-.16-.83v-4.4c0-.22.11-.42.3-.53.18-.11.42-.11.61,0l2.03,1.17c.19.11.31.31.31.53v4.28s.11.52.11.52l.28.29c.21.22.24.57.05.81-.12.16-.3.24-.49.24Z"/>
      <polygon class="cls-3" points="43.7 63.8 41.67 62.62 45.33 60.51 47.35 61.69 43.7 63.8"/>
      <path class="cls-2" d="M42.9,62.62l.8.46,2.43-1.4-.8-.46-2.43,1.4h0ZM43.7,64.41c-.1,0-.21-.03-.3-.08l-2.03-1.17c-.19-.11-.31-.31-.31-.53s.12-.42.31-.53l3.66-2.11c.19-.1.42-.1.61,0l2.03,1.17c.19.11.31.31.31.53s-.12.42-.31.53l-3.66,2.11c-.09.06-.2.08-.31.08Z"/>
      <polygon class="cls-4" points="30.45 77.29 28.43 76.11 28.01 75.7 27.86 74.87 27.86 70.59 29.88 71.76 29.88 76.04 30.04 76.87 30.45 77.29"/>
      <path class="cls-2" d="M28.8,75.62l.47.27v-3.77s-.8-.46-.8-.46v3.21l.11.52.22.23h0ZM30.45,77.9c-.1,0-.21-.03-.3-.08l-2.03-1.17c-.05-.02-.09-.06-.13-.09l-.41-.42c-.09-.08-.15-.2-.17-.32l-.16-.82v-4.4c-.01-.22.1-.42.3-.53.19-.1.42-.1.61,0l2.03,1.17c.19.11.31.31.31.54v4.28l.11.52.29.29c.21.22.24.57.05.81-.13.16-.31.24-.49.24Z"/>
      <polygon class="cls-3" points="29.88 71.76 27.86 70.59 31.52 68.48 33.55 69.65 29.88 71.76"/>
      <path class="cls-2" d="M29.09,70.59l.79.46,2.43-1.4-.8-.46-2.43,1.39h0ZM29.88,72.38c-.1,0-.21-.03-.3-.08l-2.03-1.17c-.19-.11-.31-.31-.31-.54s.12-.42.31-.53l3.66-2.11c.19-.11.42-.11.62,0l2.03,1.17c.19.11.3.31.3.53s-.12.42-.3.53l-3.66,2.11c-.1.05-.2.08-.31.08Z"/>
      <polygon class="cls-4" points="16.65 85.25 14.62 84.08 14.2 83.66 14.05 82.84 14.05 78.56 16.08 79.73 16.08 84.01 16.23 84.83 16.65 85.25"/>
      <path class="cls-2" d="M15,83.58l.47.27v-3.77s-.8-.46-.8-.46v3.21l.11.52.22.23h0ZM16.65,85.87c-.1,0-.21-.03-.31-.08l-2.03-1.17s-.09-.06-.13-.1l-.41-.41c-.08-.09-.15-.2-.17-.32l-.16-.83v-4.39c-.01-.22.11-.42.3-.53.19-.11.42-.11.62,0l2.03,1.17c.19.11.31.31.31.53v4.28l.11.52.28.28c.22.22.24.57.05.81-.12.16-.3.25-.49.25Z"/>
      <polygon class="cls-3" points="16.08 79.73 14.05 78.56 17.71 76.45 19.74 77.62 16.08 79.73"/>
      <path class="cls-2" d="M15.28,78.56l.8.46,2.43-1.4-.8-.46-2.43,1.4h0ZM16.08,80.35c-.11,0-.21-.03-.3-.08l-2.03-1.17c-.19-.11-.31-.31-.31-.53s.12-.42.31-.53l3.66-2.11c.19-.11.42-.11.61,0l2.03,1.17c.19.12.31.31.31.53s-.12.42-.31.53l-3.66,2.11c-.09.06-.2.08-.31.08Z"/>
      <path class="cls-3" d="M19.74,77.62v4.28c0,2.79-3.67,4.9-3.66,2.11v-4.28l3.66-2.11Z"/>
      <path class="cls-2" d="M16.7,80.08v3.92c0,.41.09.61.18.67.11.06.37.03.72-.17.76-.43,1.52-1.47,1.52-2.61v-3.21s-2.42,1.4-2.42,1.4h0ZM17.01,85.94c-.27,0-.53-.06-.75-.19-.37-.21-.8-.69-.8-1.73v-4.28c0-.22.11-.42.31-.53l3.66-2.11c.19-.1.42-.1.62,0,.19.12.3.31.3.53v4.28c0,1.68-1.11,3.09-2.14,3.68-.41.24-.82.36-1.2.36Z"/>
      <path class="cls-3" d="M33.55,69.65v4.28c0,2.79-3.66,4.9-3.66,2.11v-4.28l3.66-2.11Z"/>
      <path class="cls-2" d="M30.5,72.12v3.92c0,.7.24.7.32.7.71,0,2.1-1.27,2.1-2.81v-3.21l-2.43,1.4h0ZM30.83,77.97c-.47,0-.88-.19-1.16-.54-.26-.34-.4-.8-.4-1.38v-4.28c0-.22.12-.42.31-.54l3.66-2.11c.19-.11.42-.11.62,0,.19.11.3.31.3.53v4.28c0,2.14-1.87,4.04-3.33,4.04Z"/>
      <path class="cls-3" d="M47.35,61.69v4.28c0,2.79-3.66,4.91-3.66,2.11v-4.28l3.66-2.11Z"/>
      <path class="cls-2" d="M44.31,64.15v3.93c0,.7.24.7.32.7h0c.71,0,2.1-1.27,2.1-2.81v-3.21l-2.43,1.39h0ZM44.64,70.01h0c-.75,0-1.56-.51-1.56-1.93v-4.28c0-.22.12-.42.31-.53l3.66-2.11c.19-.11.42-.11.61,0,.19.11.31.31.31.53v4.28c0,2.14-1.86,4.05-3.33,4.05Z"/>
      <polygon class="cls-3" points="55.27 11.88 53.24 10.71 56.95 8.58 57.74 8.3 58.31 8.45 60.34 9.62 59.77 9.47 58.98 9.75 55.27 11.88"/>
      <path class="cls-2" d="M54.47,10.71l.8.46,3.26-1.88-.46-.27-.3-.08-.62.21-2.68,1.55h0ZM55.27,12.5c-.1,0-.21-.03-.3-.08l-2.03-1.17c-.19-.11-.31-.31-.31-.53s.12-.42.31-.53l3.7-2.14.9-.32c.11-.04.24-.05.36-.02l.57.15s.1.03.15.06l2.03,1.17c.27.16.38.48.26.77-.12.28-.44.44-.73.36l-.38-.1-.62.21-3.6,2.09c-.09.06-.2.08-.31.08Z"/>
      <polygon class="cls-3" points="55.27 16.11 53.24 14.94 53.24 10.71 55.27 11.88 55.27 16.11"/>
      <path class="cls-2" d="M53.86,14.59l.8.46v-2.81l-.8-.46v2.8h0ZM55.27,16.73c-.1,0-.21-.03-.3-.08l-2.03-1.17c-.19-.11-.32-.31-.32-.53v-4.23c0-.22.12-.42.32-.53.19-.11.42-.11.61,0l2.03,1.17c.19.11.31.31.31.53v4.23c0,.22-.12.42-.31.53-.09.06-.2.08-.31.08Z"/>
      <polygon class="cls-3" points="55.26 27.84 53.23 26.66 56.94 24.53 57.73 24.25 58.3 24.41 60.33 25.57 59.76 25.42 58.97 25.7 55.26 27.84"/>
      <path class="cls-2" d="M54.46,26.66l.8.46,3.26-1.88-.46-.27-.31-.08-.61.22-2.68,1.56h0ZM55.26,28.45c-.1,0-.21-.03-.3-.08l-2.03-1.17c-.19-.11-.31-.31-.31-.53s.12-.42.31-.54l3.7-2.14.9-.32c.12-.05.25-.05.36-.02l.57.15c.06.01.1.03.15.06l2.03,1.17c.27.16.38.49.26.77-.12.28-.44.44-.73.36l-.38-.1-.62.21-3.6,2.09c-.09.05-.2.08-.31.08Z"/>
      <polygon class="cls-3" points="55.26 32.06 53.23 30.89 53.23 26.66 55.26 27.84 55.26 32.06"/>
      <path class="cls-2" d="M53.85,30.54l.8.46v-2.8l-.8-.46v2.8h0ZM55.26,32.68c-.1,0-.21-.03-.31-.08l-2.03-1.17c-.19-.11-.3-.31-.3-.53v-4.22c0-.22.12-.42.31-.54.19-.11.42-.11.61,0l2.03,1.17c.19.11.31.31.31.53v4.22c0,.22-.12.42-.31.53-.09.05-.2.08-.31.08Z"/>
      <polygon class="cls-3" points="55.26 43.78 53.23 42.61 56.93 40.48 57.73 40.2 58.3 40.35 60.32 41.52 59.76 41.37 58.97 41.65 55.26 43.78"/>
      <path class="cls-2" d="M54.45,42.61l.8.46,3.26-1.89-.47-.26-.3-.08-.62.22-2.68,1.56h0ZM55.26,44.4c-.1,0-.21-.03-.3-.08l-2.03-1.17c-.19-.11-.31-.31-.31-.53s.12-.42.31-.54l3.7-2.14.9-.32c.12-.04.25-.04.36-.01l.57.15s.1.04.15.06l2.03,1.17c.27.15.38.48.26.77-.12.28-.44.44-.73.36l-.38-.1-.62.21-3.6,2.09c-.1.06-.2.08-.31.08Z"/>
      <polygon class="cls-3" points="55.26 48.01 53.23 46.84 53.23 42.61 55.26 43.78 55.26 48.01"/>
      <path class="cls-2" d="M53.85,46.49l.8.46v-2.8l-.8-.47v2.81h0ZM55.26,48.63c-.11,0-.21-.03-.31-.08l-2.03-1.17c-.19-.11-.31-.31-.31-.53v-4.23c0-.22.12-.42.31-.54.19-.1.42-.11.62,0l2.03,1.17c.19.1.31.31.31.53v4.23c0,.22-.12.42-.31.53-.1.05-.2.08-.31.08Z"/>
      <path class="cls-3" d="M55.26,43.78l3.71-2.13c2.41-1.4,2.41,2.83,0,4.22l-3.7,2.14v-4.23Z"/>
      <path class="cls-2" d="M55.87,44.14v2.8l2.78-1.6c1.33-.78,1.74-2.61,1.38-3.23-.04-.07-.16-.29-.77.06l-3.4,1.96h0ZM55.26,48.63c-.11,0-.21-.03-.31-.08-.19-.11-.3-.31-.3-.53v-4.23c0-.22.12-.42.31-.53l3.7-2.14c1.23-.71,2.08-.27,2.45.38.73,1.27.02,3.84-1.83,4.91l-3.7,2.14c-.1.05-.2.08-.31.08Z"/>
      <path class="cls-3" d="M55.26,27.84l3.71-2.14c2.42-1.4,2.42,2.83,0,4.22l-3.71,2.14v-4.22Z"/>
      <path class="cls-2" d="M55.88,28.19v2.8s2.78-1.6,2.78-1.6c1.33-.76,1.73-2.61,1.38-3.22-.04-.07-.17-.28-.77.06l-3.4,1.96h0ZM55.26,32.68c-.1,0-.21-.03-.31-.08-.19-.11-.3-.31-.3-.53v-4.22c0-.23.12-.42.31-.53l3.7-2.14c1.23-.71,2.07-.27,2.45.38.74,1.27.02,3.84-1.83,4.91l-3.7,2.14c-.09.05-.2.08-.31.08Z"/>
      <path class="cls-3" d="M55.27,11.88l3.71-2.13c2.42-1.39,2.42,2.83,0,4.22l-3.7,2.14v-4.23Z"/>
      <path class="cls-2" d="M55.88,12.24v2.81l2.78-1.61c.98-.57,1.5-1.75,1.5-2.62,0-.4-.11-.65-.21-.71-.1-.05-.31-.04-.68.17l-3.4,1.95h0ZM55.27,16.73c-.1,0-.21-.03-.3-.08-.19-.11-.31-.31-.31-.53v-4.23c0-.22.12-.42.31-.54l3.71-2.13c.91-.52,1.54-.38,1.91-.17.52.3.83.95.83,1.77,0,1.18-.66,2.85-2.12,3.69l-3.7,2.14c-.09.06-.2.08-.31.08Z"/>
      <path class="cls-3" d="M57.17,4.37l-4.15-2.39c-.22-.08-.31-.05-.52.05L6.92,28.32c-.19.13-.27.21-.42.39-.21.32-.29.51-.33.9l-.02,52.64c.02.23.03.33.21.49l4.16,2.39c-.19-.15-.2-.25-.22-.48l.02-52.64c.03-.31.08-.45.22-.73.17-.26.27-.38.53-.56L56.65,4.42c.21-.1.3-.14.52-.05Z"/>
      <path class="cls-2" d="M52.71,2.51L7.23,28.85c-.1.07-.13.11-.25.25-.13.21-.17.3-.19.56l-.02,52.59,2.92,1.69.02-51.93c.04-.47.12-.67.28-1.01.25-.38.39-.55.73-.79L55.72,4.24l-3.01-1.73h0ZM10.52,85.74c-.11,0-.21-.03-.3-.08l-4.16-2.4c-.47-.37-.5-.7-.52-.96l.02-52.7c.05-.57.18-.85.43-1.24.21-.26.33-.38.58-.56L52.19,1.49c.35-.16.61-.26,1.05-.09l4.24,2.44c.28.16.39.5.25.79-.14.29-.47.43-.77.32l.21-.58-.25.57L11.38,31.25c-.14.1-.18.15-.32.36-.08.16-.11.22-.12.45l-.02,52.59c.25.21.29.57.11.83-.12.17-.31.27-.51.27Z"/>
      <path class="cls-4" d="M57.37,57.49l.02-52.64c0-.48-.34-.67-.74-.43L11.07,30.71c-.41.23-.75.82-.75,1.29l-.02,52.64c0,.47.33.67.74.43l45.58-26.29c.41-.24.75-.82.75-1.29Z"/>
      <path class="cls-2" d="M56.78,5.06L11.38,31.25c-.22.13-.44.51-.44.76l-.02,52.44,45.4-26.18c.22-.13.44-.5.44-.76h0l.02-52.43h0ZM10.71,85.8c-.18,0-.35-.04-.5-.13-.34-.19-.53-.57-.53-1.02l.02-52.64c0-.69.45-1.48,1.05-1.82L56.34,3.88c.39-.22.81-.25,1.14-.05.34.19.53.57.53,1.02l-.03,52.64c0,.7-.45,1.48-1.05,1.82l-45.58,26.29c-.22.12-.43.18-.65.18Z"/>
      <path class="cls-4" d="M16.1,25.36l-2.03-1.17v-4.28c0-1.64,1.14-3.54,3.09-3.35l2.03,1.17c-1.94-.18-3.09,1.7-3.09,3.35v4.28Z"/>
      <path class="cls-2" d="M14.69,23.83l.79.46v-3.21c0-1.2.51-2.41,1.34-3.15.21-.19.43-.35.67-.48l-.51-.29c-.55-.03-.97.15-1.36.51-.57.51-.93,1.39-.93,2.24v3.92h0ZM16.1,25.98c-.11,0-.21-.03-.31-.08l-2.03-1.17c-.19-.11-.31-.31-.31-.53v-4.28c0-1.2.51-2.4,1.34-3.15.68-.62,1.52-.9,2.43-.82.09.01.18.04.25.08l2.03,1.17c.25.14.37.44.28.72-.09.27-.34.46-.64.42-.57-.06-1.06.12-1.49.5-.57.52-.93,1.39-.93,2.24v4.28c0,.22-.12.42-.31.53-.09.05-.2.08-.31.08Z"/>
      <path class="cls-3" d="M16.1,25.36v-4.28c0-2.79,3.66-4.91,3.66-2.11v4.28l-3.66,2.11Z"/>
      <path class="cls-2" d="M18.82,18.27c-.71,0-2.1,1.27-2.1,2.81v3.21l2.43-1.4v-3.92c0-.7-.25-.7-.32-.7h0ZM16.1,25.98c-.11,0-.21-.03-.31-.08-.19-.11-.31-.31-.31-.53v-4.28c0-2.14,1.86-4.05,3.34-4.05h0c.75,0,1.56.51,1.56,1.94v4.28c0,.22-.12.42-.31.53l-3.66,2.11c-.09.05-.2.08-.31.08Z"/>
      <path class="cls-3" d="M54.48,12.88l-1.91-1.1c-.19-.07-.27-.04-.47.05L15.18,33.13c-.4.28-.62.65-.66,1.14l-.02,42.65c.02.21.03.29.19.43l1.91,1.1c-.17-.14-.18-.22-.19-.43l.02-42.65c.04-.5.25-.86.66-1.15L54.01,12.93c.19-.09.27-.12.47-.05Z"/>
      <path class="cls-2" d="M15.12,76.89l.68.39.02-41.9c.06-.73.37-1.27.92-1.66L53.05,12.77l-.66-.38L15.49,33.66c-.21.15-.33.35-.36.67v42.56h-.01ZM16.63,79.08c-.12,0-.23-.03-.34-.09l-1.9-1.09c-.45-.36-.48-.66-.5-.91l.02-42.71c.06-.73.37-1.26.92-1.65L51.8,11.29c.32-.15.58-.25.99-.09l2,1.14c.28.16.38.51.25.8-.14.29-.48.43-.78.31l.22-.58-.23.57-36.85,21.32c-.21.15-.33.35-.36.66l-.02,42.6c.25.21.28.54.1.8-.11.17-.3.25-.49.25Z"/>
      <path class="cls-1" d="M54.01,12.93l-36.93,21.3c-.37.21-.66.72-.66,1.15l-.02,42.65c0,.42.29.59.65.38l36.93-21.3c.37-.21.66-.72.66-1.14l.02-42.65c0-.42-.3-.6-.66-.38Z"/>
      <path class="cls-2" d="M54.01,12.93h.02-.02ZM54.06,13.62l-36.66,21.15c-.18.1-.35.41-.35.61l-.02,42.34,36.67-21.15c.17-.1.35-.41.35-.61l.02-42.35h0ZM16.77,79.12c-.17,0-.33-.04-.48-.13-.32-.18-.5-.53-.5-.96l.02-42.65c0-.64.41-1.36.96-1.68L53.7,12.39c.37-.21.76-.23,1.09-.05.31.18.5.53.5.96l-.02,42.65c0,.63-.41,1.36-.97,1.67l-36.93,21.31c-.19.12-.4.17-.6.17Z"/>
      <path class="cls-4" d="M47.83,23.88l-24.58,14.17c-.24.14-.44.48-.44.76v28.38c0,.28.19.39.43.26l24.58-14.18c.24-.14.44-.48.44-.76v-28.38c.01-.28-.19-.39-.43-.26Z"/>
      <path class="cls-2" d="M48.14,24.42h0,0ZM47.65,24.69l-24.09,13.9c-.05.03-.13.17-.13.23v27.82s24.08-13.9,24.08-13.9c.05-.03.13-.16.13-.23v-27.82h.01ZM23.05,68.13c-.15,0-.29-.04-.42-.12-.28-.16-.43-.46-.43-.82v-28.38c.01-.5.32-1.05.76-1.3l24.57-14.17h0c.31-.18.65-.19.92-.03.28.16.43.46.43.82v28.38c-.01.5-.32,1.05-.75,1.29l-24.58,14.17c-.17.09-.34.15-.5.15Z"/>
      <path class="cls-4" d="M6.5,28.71c-.21.32-.29.51-.33.9l-.02,52.64c.02.23.03.33.21.49l4.16,2.39c-.19-.15-.2-.25-.22-.48l.02-52.64c.03-.31.08-.45.22-.73l-4.04-2.56Z"/>
      <path class="cls-2" d="M6.79,29.62s0,.03,0,.04l-.02,52.59,2.92,1.69.02-51.93c.02-.2.04-.35.07-.49l-2.99-1.9h0ZM10.52,85.74c-.11,0-.21-.03-.3-.08l-4.16-2.4c-.47-.37-.5-.7-.52-.96l.02-52.7c.05-.57.18-.85.43-1.24.19-.28.56-.36.85-.18l4.03,2.57c.27.17.37.51.22.8-.12.23-.14.28-.15.51l-.02,52.59c.25.21.29.57.11.83-.12.17-.31.27-.51.27Z"/>
      <path class="cls-4" d="M3.12,77.43l-2.03-1.17c-1.13-1.59-.07-3.52,1.36-4.35l3.7-2.14,2.03,1.17-3.7,2.14c-1.44.83-2.49,2.76-1.36,4.36Z"/>
      <path class="cls-2" d="M1.52,75.79l.51.29c-.01-.27.01-.54.07-.82.24-1.08,1.03-2.13,2.06-2.72l2.78-1.6-.8-.46-3.4,1.95c-.74.43-1.32,1.18-1.48,1.92-.11.52-.03,1,.24,1.44h0ZM3.12,78.04c-.11,0-.21-.03-.3-.08l-2.03-1.17c-.08-.05-.14-.11-.19-.18-.53-.75-.71-1.62-.51-2.51.24-1.08,1.03-2.13,2.06-2.72l3.71-2.14c.19-.11.42-.11.61,0l2.03,1.17c.19.11.3.31.3.53s-.12.42-.3.53l-3.7,2.14c-.73.42-1.32,1.18-1.48,1.92-.12.55-.02,1.07.31,1.54.17.24.15.56-.05.77-.12.13-.28.2-.46.2Z"/>
      <path class="cls-4" d="M3.12,61.48l-2.03-1.17c-1.13-1.59-.07-3.52,1.36-4.35l3.7-2.14,2.03,1.17-3.7,2.14c-1.44.83-2.48,2.76-1.36,4.36Z"/>
      <path class="cls-2" d="M1.53,59.84l.5.29c0-.27.02-.54.08-.82.24-1.09,1.03-2.13,2.07-2.73l2.78-1.6-.8-.46-3.4,1.96c-.73.42-1.32,1.18-1.48,1.92-.12.51-.03,1,.24,1.43h0ZM3.12,62.09c-.1,0-.21-.03-.3-.08l-2.03-1.17c-.08-.05-.15-.1-.2-.18-.53-.75-.7-1.62-.51-2.52.24-1.08,1.03-2.13,2.06-2.72l3.7-2.14c.19-.11.42-.11.62,0l2.03,1.17c.19.11.31.31.31.53s-.12.42-.31.54l-3.7,2.13c-.73.42-1.32,1.18-1.48,1.92-.12.55-.02,1.07.31,1.54.17.23.15.56-.05.77-.12.13-.29.2-.46.2Z"/>
      <path class="cls-4" d="M3.13,45.53l-2.03-1.17c-1.12-1.59-.07-3.52,1.36-4.35l3.7-2.14,2.03,1.17-3.7,2.14c-1.44.83-2.48,2.76-1.36,4.35Z"/>
      <path class="cls-2" d="M1.54,43.89l.51.29c-.01-.27.02-.55.07-.82.24-1.09,1.03-2.13,2.07-2.73l2.78-1.6-.8-.46-3.4,1.96c-.73.42-1.32,1.18-1.48,1.92-.11.52-.03,1,.24,1.44h0ZM3.13,46.14c-.1,0-.21-.03-.3-.08l-2.03-1.17c-.08-.04-.15-.11-.19-.18-.53-.75-.71-1.62-.51-2.52.24-1.08,1.03-2.13,2.07-2.72l3.7-2.14c.18-.11.42-.11.61,0l2.03,1.17c.19.11.31.31.31.53s-.12.42-.31.53l-3.7,2.14c-.73.43-1.32,1.18-1.48,1.92-.12.55-.02,1.07.31,1.54.16.24.15.56-.05.77-.12.13-.29.2-.46.2Z"/>
      <path class="cls-3" d="M8.2,43.26l-3.7,2.14c-2.42,1.39-2.42-2.83,0-4.23l3.7-2.14v4.23Z"/>
      <path class="cls-2" d="M8.2,43.26h.02-.02ZM7.58,40.1l-2.78,1.6c-.99.57-1.51,1.76-1.51,2.63,0,.4.12.64.22.71.1.05.31.04.67-.17l3.4-1.96v-2.8h0ZM3.63,46.3c-.31,0-.55-.09-.73-.19-.53-.3-.83-.95-.83-1.77,0-1.19.67-2.85,2.13-3.69l3.7-2.13c.19-.11.42-.11.61,0,.19.11.31.31.31.53v4.23c0,.22-.12.42-.31.54l-3.7,2.14c-.47.27-.85.36-1.17.36Z"/>
      <path class="cls-3" d="M8.19,59.21l-3.7,2.14c-2.42,1.39-2.42-2.84,0-4.23l3.7-2.14v4.23Z"/>
      <path class="cls-2" d="M8.19,59.21h.02-.02ZM7.58,56.05l-2.78,1.6c-1.33.77-1.74,2.61-1.38,3.23.04.07.16.28.76-.07l3.4-1.96v-2.8h0ZM3.62,62.25c-.6,0-1.03-.34-1.27-.75-.73-1.27-.02-3.84,1.84-4.91l3.7-2.14c.19-.11.42-.11.62,0,.19.11.31.31.31.53v4.23c0,.22-.12.42-.31.54l-3.7,2.14c-.45.26-.84.36-1.18.36Z"/>
      <path class="cls-3" d="M8.19,75.16l-3.7,2.14c-2.42,1.39-2.42-2.83,0-4.23l3.7-2.14v4.23Z"/>
      <path class="cls-2" d="M8.19,75.16h.02-.02ZM7.57,72l-2.78,1.6c-.99.57-1.51,1.76-1.51,2.63,0,.4.11.64.22.7.09.06.31.04.67-.17l3.4-1.96v-2.8h0ZM3.61,78.2c-.3,0-.55-.09-.73-.19-.53-.3-.83-.95-.83-1.77,0-1.19.67-2.85,2.12-3.69l3.7-2.14c.19-.1.42-.1.62,0,.19.11.3.31.3.53v4.23c0,.22-.12.42-.3.54l-3.71,2.13c-.46.27-.85.37-1.17.37Z"/>
      <path class="cls-4" d="M43.72,9.43l-2.03-1.17V3.98c0-1.64,1.14-3.54,3.09-3.35l2.03,1.17c-1.94-.18-3.09,1.69-3.09,3.35v4.28Z"/>
      <path class="cls-2" d="M42.31,7.9l.8.46v-3.21c0-1.2.51-2.4,1.33-3.15.21-.19.44-.35.67-.48l-.51-.29c-.53-.03-.96.15-1.36.5-.56.51-.93,1.39-.93,2.24v3.93h0ZM43.72,10.05c-.11,0-.21-.03-.31-.08l-2.03-1.17c-.19-.11-.31-.31-.31-.53V3.98c0-1.19.51-2.41,1.34-3.16.68-.62,1.52-.89,2.43-.81.09.01.17.04.25.08l2.03,1.17c.25.15.37.45.28.72-.09.28-.35.46-.64.43-.57-.05-1.07.12-1.49.5-.57.51-.93,1.39-.93,2.24v4.28c0,.22-.12.42-.31.53-.09.06-.2.08-.3.08Z"/>
      <path class="cls-3" d="M43.72,9.43v-4.28c0-2.8,3.66-4.91,3.66-2.11v4.28l-3.66,2.11Z"/>
      <path class="cls-2" d="M46.44,2.34c-.14,0-.34.06-.58.19-.75.43-1.52,1.48-1.52,2.62v3.21s2.43-1.4,2.43-1.4v-3.92c0-.41-.09-.62-.19-.67-.03-.02-.08-.03-.14-.03h0ZM43.72,10.05c-.11,0-.21-.03-.31-.08-.19-.11-.31-.31-.31-.53v-4.28c0-1.68,1.12-3.09,2.14-3.68.71-.41,1.42-.47,1.95-.16.37.21.8.68.8,1.73v4.28c0,.22-.12.42-.3.53l-3.67,2.11c-.09.06-.2.08-.3.08Z"/>
      <path class="cls-4" d="M29.91,17.39l-2.02-1.17v-4.28c0-1.64,1.14-3.54,3.09-3.35l2.03,1.17c-1.94-.18-3.09,1.69-3.09,3.35v4.27Z"/>
      <path class="cls-2" d="M28.5,15.87l.8.46v-3.21c0-1.2.51-2.41,1.33-3.15.21-.19.43-.35.67-.47l-.51-.29c-.54-.02-.97.15-1.36.5-.57.51-.93,1.39-.93,2.25v3.92h0ZM29.91,18.01c-.11,0-.21-.03-.31-.08l-2.02-1.17c-.19-.11-.31-.31-.31-.53v-4.28c0-1.2.51-2.41,1.34-3.16.68-.61,1.52-.89,2.43-.81.09,0,.17.03.25.08l2.03,1.17c.25.15.37.45.28.72-.09.27-.33.45-.65.42-.56-.05-1.06.12-1.49.5-.56.51-.93,1.39-.93,2.24v4.27c0,.23-.12.43-.31.53-.09.06-.2.08-.31.08Z"/>
      <path class="cls-3" d="M29.91,17.39v-4.27c0-2.79,3.66-4.91,3.66-2.11v4.28l-3.66,2.11Z"/>
      <path class="cls-2" d="M32.62,10.31c-.71,0-2.1,1.27-2.1,2.81v3.21l2.43-1.4v-3.93c0-.7-.25-.7-.32-.7h0ZM29.91,18.01c-.11,0-.21-.03-.31-.08-.19-.1-.3-.31-.3-.53v-4.27c0-2.14,1.86-4.04,3.33-4.04h0c.75,0,1.56.5,1.56,1.93v4.28c0,.21-.12.42-.31.53l-3.66,2.11c-.09.06-.2.08-.31.08Z"/>
    </g>
  </g>
</svg>