<?xml version="1.0" encoding="UTF-8"?>
<svg id="Layer_2" data-name="Layer 2" xmlns="http://www.w3.org/2000/svg" viewBox="0 0 40.97 42.46" fill="currentColor">
  <defs>
    <style>
      .cls-1 {
        fill: #fff;
      }

      .cls-1, .cls-2, .cls-3, .cls-4 {
        fill-rule: evenodd;
      }

      .cls-2 {
        fill: #1a87c7;
      }

      .cls-3 {
        fill: #bdedf8;
      }

      .cls-4 {
        fill: #66ceef;
      }
    </style>
  </defs>
  <g id="_Layer_" data-name="&amp;lt;Layer&amp;gt;">
    <g>
      <path class="cls-3" d="M20.65,14.83l-1.6-.92c-1.63.55-6,3.66-7.41,5.5-2.37,3.13-2.33,8.93-2.89,13.24-.24,1.86-1.11,5.81-.88,7.18.14.82.5,1.46,1.18,1.93-1.34-.77-7.4-4.07-8.02-4.78-1.36-1.53-.45-4.26-.15-6.2.54-3.48,1.03-11.05,2.08-13.65,1.29-3.21,5.17-5.83,8.1-7.35,1.15-.6,1.29-.2,2.78.66.28-.13,5.86-3.24,6.38-3.86,1.36-1.6-.59-2.49,6.03-5.47,1.12-.5,2.69-1.18,3.87-.55l7.52,4.34c-1.94-.93-6,1.52-7.57,2.53-2.21,1.42-1.28,2.98-2.96,4-.75.45-5.67,3.48-6.22,3.47l-.24-.07Z"/>
      <path class="cls-2" d="M11.94,9.79c-.2,0-.41.08-.74.26-2.39,1.24-6.6,3.83-7.95,7.19-.7,1.75-1.17,5.99-1.55,9.4-.18,1.59-.35,3.09-.51,4.19-.06.36-.13.74-.21,1.14-.35,1.72-.73,3.67.29,4.81.45.51,4.52,2.79,6.53,3.92-.1-.25-.18-.52-.23-.81-.17-1.03.22-3.29.56-5.28.13-.76.25-1.46.32-1.99.12-.93.21-1.93.31-2.98.34-3.7.73-7.89,2.64-10.41,1.42-1.87,5.85-5.04,7.55-5.6.08-.03.17-.02.25.02l1.7.94c.24-.05,1.35-.57,5.74-3.24l.31-.18c.69-.42.87-.92,1.09-1.55.28-.76.59-1.63,1.85-2.44,1.94-1.25,4.39-2.58,6.27-2.76l-6.2-3.58c-1.08-.57-2.59.11-3.59.56-4.64,2.08-4.95,3.08-5.24,4.03-.13.42-.26.85-.69,1.35-.6.7-6.43,3.91-6.48,3.93-.09.04-.2.04-.29-.01-.29-.17-.52-.31-.73-.44-.48-.3-.73-.46-1.01-.46h0ZM9.06,42.07c-.05,0-.11-.02-.16-.04-.27-.16-.75-.43-1.34-.76-3.15-1.76-6.27-3.53-6.75-4.08-1.22-1.37-.8-3.48-.44-5.34.08-.39.15-.77.21-1.11.16-1.08.33-2.58.51-4.16.4-3.62.86-7.73,1.59-9.56,1.43-3.55,5.78-6.23,8.24-7.51,1.1-.57,1.5-.32,2.36.23.17.1.35.22.57.35.98-.52,5.72-3.22,6.14-3.7.34-.4.44-.74.57-1.13.34-1.09.69-2.22,5.58-4.41,1.05-.47,2.79-1.25,4.14-.54l7.53,4.34c.14.08.19.26.11.41-.08.15-.25.21-.4.13-1.23-.59-3.88.32-7.28,2.51-1.09.7-1.35,1.43-1.6,2.13-.24.66-.49,1.34-1.37,1.87l-.3.18c-4.83,2.94-5.77,3.32-6.09,3.33-.02,0-.05,0-.07-.01l-.24-.07s-.05-.02-.07-.03l-1.47-.85c-1.7.65-5.83,3.64-7.13,5.35-1.81,2.37-2.19,6.47-2.53,10.09-.09,1.06-.19,2.06-.31,3-.07.53-.19,1.25-.32,2.01-.32,1.85-.71,4.15-.56,5.08.13.77.46,1.32,1.05,1.72.14.09.17.28.09.42-.06.09-.15.14-.26.14Z"/>
      <path class="cls-4" d="M19.96,9.2c.85,0,1.54.4,1.54.88s-.69.89-1.54.89-1.53-.4-1.53-.89.69-.88,1.53-.88Z"/>
      <path class="cls-2" d="M19.96,9.5c-.7,0-1.23.31-1.23.58s.53.58,1.23.58,1.23-.3,1.23-.58-.52-.58-1.23-.58h0ZM19.96,11.27c-1.03,0-1.83-.53-1.83-1.19s.81-1.19,1.83-1.19,1.84.52,1.84,1.19-.81,1.19-1.84,1.19Z"/>
      <path class="cls-1" d="M6.64,14.92c.51-.97,1.01-1.56,1.86-2.27.75-.64,2.42-1.74,3.27-2.18.24-.12.57-.27.83-.14l3.2,1.66c-.33-.14-.69.06-.97.22-1.67.96-3.85,2.32-4.82,4.03l-.18.34-3.2-1.67Z"/>
      <path class="cls-2" d="M7.06,14.79l2.65,1.38.03-.07c.99-1.75,3.16-3.14,4.94-4.16.05-.03.11-.07.18-.1l-2.39-1.24c-.15-.07-.44.09-.55.14-.84.44-2.5,1.54-3.22,2.15-.76.64-1.21,1.16-1.63,1.91h0ZM9.84,16.89s-.1-.01-.15-.03l-3.2-1.66c-.15-.08-.21-.27-.13-.42.5-.96,1.02-1.61,1.94-2.37.76-.63,2.44-1.76,3.34-2.22.3-.16.71-.33,1.1-.15l3.21,1.67c.14.08.2.25.13.4-.07.15-.24.22-.4.16-.18-.08-.44.06-.69.2-1.71.98-3.8,2.31-4.7,3.92l-.18.33c-.03.07-.1.13-.18.15-.03.01-.06.01-.09.01Z"/>
      <path class="cls-1" d="M9.85,16.57c.71-1.48,2.08-2.67,4.98-4.36.86-.5,1.18-.25,1.25.08l.12.61-6.35,3.67Z"/>
      <path class="cls-2" d="M15.63,12.23c-.09,0-.3.04-.64.24-2.15,1.25-3.42,2.21-4.22,3.2l5.09-2.94-.09-.39c-.02-.08-.04-.1-.06-.1,0,0-.03-.01-.09-.01h0ZM9.85,16.87c-.08,0-.16-.03-.21-.08-.11-.09-.13-.24-.07-.36.74-1.54,2.12-2.76,5.1-4.49.55-.32.97-.4,1.29-.26.22.1.37.29.42.54l.12.61c.03.13-.03.26-.15.33l-6.36,3.67s-.1.04-.15.04Z"/>
      <path class="cls-1" d="M23.93,4.8c.12-.94.57-1.59,1.37-2.07.94-.56,3.25-1.9,4.38-1.72l.43.15,3.2,1.66c-.24-.12-.4-.17-.69-.17-1.11,0-3.18,1.18-4.12,1.73-.96.57-1.24,1.21-1.43,2.33l-3.15-1.93Z"/>
      <path class="cls-2" d="M24.27,4.65l2.59,1.58c.2-.91.56-1.55,1.49-2.1,1.52-.9,2.71-1.46,3.57-1.67l-1.95-1.02-.39-.14c-.64-.09-2.04.47-4.12,1.69-.68.4-1.05.91-1.19,1.65h0ZM27.08,7.04c-.05,0-.11-.02-.17-.05l-3.14-1.93c-.1-.06-.16-.18-.15-.3.14-1.02.63-1.77,1.52-2.29,1.43-.84,3.45-1.94,4.58-1.76l.49.17,3.23,1.68c.15.08.21.26.13.41-.07.15-.25.21-.41.14-.2-.1-.31-.14-.54-.14h0c-.51,0-1.61.3-3.96,1.69-.88.52-1.11,1.1-1.28,2.11-.02.1-.09.19-.17.23-.04.02-.09.03-.13.03Z"/>
      <path class="cls-1" d="M27.15,6.18c.08-.59.35-1.2,1.35-1.78,2.98-1.73,4.33-2.11,5.02-1.38l-6.3,3.62-.15.09.08-.54Z"/>
      <path class="cls-2" d="M32.62,2.97c-.75,0-1.98.54-3.96,1.69-.89.52-1.11,1.01-1.19,1.48l5.46-3.14c-.1-.03-.19-.04-.3-.04h0ZM27.08,7.04c-.06,0-.12-.02-.17-.05-.1-.07-.15-.18-.13-.3l.08-.54h0c.08-.58.32-1.33,1.49-2.01,2.72-1.58,4.48-2.31,5.41-1.33.06.07.09.16.08.26-.01.09-.07.17-.15.22l-6.45,3.71c-.05.03-.11.04-.16.04Z"/>
      <path class="cls-4" d="M11.5,19.62c-.56.79-1.03,1.46-1.23,2.57-.04.23-2.6,16.47-2.4,17.64.14.82.5,1.46,1.18,1.93l-.07-.04c-2.27-1.3-5.73-2.99-7.77-4.58-.07-.06-.12-.1-.18-.16-1.36-1.53-.45-4.26-.15-6.2.54-3.48,1.03-11.05,2.08-13.65.26-.63.62-1.25,1.04-1.83l7.49,4.32Z"/>
      <path class="cls-2" d="M4.1,15.7c-.36.51-.64,1.03-.84,1.54-.7,1.75-1.17,5.99-1.55,9.4-.18,1.59-.35,3.09-.51,4.19-.06.36-.13.74-.21,1.14-.35,1.72-.73,3.67.29,4.81.04.04.09.08.14.13,1.46,1.13,3.68,2.33,5.64,3.4.26.14.51.27.75.41-.1-.25-.18-.53-.24-.83-.22-1.27,2.37-17.59,2.4-17.75.18-1.04.59-1.71,1.09-2.42l-6.96-4.01h0ZM9.06,42.07c-.05,0-.11-.02-.16-.04-.69-.39-1.39-.78-2.14-1.18-1.99-1.07-4.23-2.29-5.74-3.46-.08-.07-.15-.12-.21-.19-1.22-1.38-.8-3.49-.44-5.35.08-.39.15-.77.21-1.11.16-1.08.33-2.58.51-4.16.4-3.62.86-7.73,1.59-9.56.26-.63.63-1.27,1.09-1.9.09-.13.26-.16.4-.08l7.48,4.32c.08.04.13.12.15.2.02.08,0,.17-.04.24l-.02.02c-.55.78-.97,1.39-1.16,2.42-.12.64-2.58,16.46-2.4,17.54.13.77.46,1.32,1.05,1.72.14.09.17.28.09.42-.06.09-.15.14-.26.14Z"/>
      <path class="cls-4" d="M31.84,28.56c-1.23-.71-7.47-4.15-8.03-4.78-1.31-1.49-.53-4.72-1.73-5.52,1.08.62,7.52,4.15,7.85,4.68.77,1.18.03,4.37,1.9,5.62Z"/>
      <path class="cls-2" d="M22.95,19.11c.14.47.2,1.02.26,1.6.11,1.08.23,2.2.83,2.88.39.45,4.59,2.82,6.56,3.93-.36-.8-.45-1.74-.53-2.55-.08-.75-.15-1.46-.4-1.85-.34-.42-4.9-2.98-6.62-3.95-.03-.02-.07-.04-.1-.06h0ZM31.84,28.87c-.05,0-.11-.01-.15-.04-.24-.14-.68-.38-1.23-.69-3.24-1.82-6.45-3.65-6.89-4.15-.72-.82-.86-2.09-.98-3.21-.1-1-.21-1.94-.69-2.25-.14-.09-.17-.28-.09-.42.09-.14.27-.19.42-.1.2.12.6.34,1.11.63,4.82,2.7,6.62,3.79,6.85,4.15.33.51.41,1.29.49,2.12.13,1.27.28,2.71,1.33,3.41.14.09.18.28.1.42-.06.09-.17.15-.27.15Z"/>
      <path class="cls-3" d="M21.51,14.68l5.6-3.26c1.71-.99.69-2.68,3.18-4.13,10.97-6.39,7.52-.74,10.27,11.6.32,1.42-.09,3.19-1.07,5.04-.99,1.84-2.32,3.29-3.86,4.19l-.09.05c-2.47,1.44-4.53.75-4.91-1.64l-.47-2.95c-.18-1.12-1.15-1.45-2.31-.77l-7.18,4.18c-1.16.67-2.14,2.13-2.33,3.47l-.51,3.52c-.4,2.84-2.48,5.94-4.94,7.37l-.09.05c-1.54.9-2.86,1-3.84.3-.97-.7-1.36-2-1.04-3.81,2.88-15.61-.55-17.26,10.42-23.65,2.49-1.45,1.46,1.44,3.16.45Z"/>
      <path class="cls-2" d="M21.51,14.68h0,0ZM19.48,14.13c-.21,0-.51.1-.97.37-8.01,4.66-8.21,6.59-8.94,13.78-.26,2.5-.58,5.61-1.33,9.65-.31,1.65.02,2.86.91,3.51,1.09.79,2.51.26,3.5-.31l.09-.05c2.39-1.39,4.41-4.4,4.8-7.16l.51-3.52c.2-1.42,1.24-2.98,2.48-3.7l7.18-4.18c.71-.42,1.41-.51,1.94-.25.44.21.74.65.84,1.24l.47,2.96c.15.94.58,1.61,1.24,1.92.84.4,1.97.22,3.21-.5l.09-.05c1.49-.87,2.78-2.27,3.74-4.06.98-1.83,1.34-3.5,1.04-4.83-.71-3.21-1.01-5.96-1.24-8.17-.34-3.09-.56-5.14-1.63-5.68-1.03-.52-3.04.19-6.93,2.45-1.27.74-1.56,1.53-1.82,2.28-.24.67-.49,1.35-1.36,1.85l-5.6,3.26h0c-1.04.6-1.41-.01-1.63-.38-.14-.24-.26-.43-.56-.43h0ZM10.44,42.46c-.72,0-1.27-.24-1.65-.52-.77-.56-1.6-1.72-1.17-4.11.74-4.02,1.06-7.12,1.32-9.6.75-7.25.98-9.43,9.26-14.25,1.5-.88,1.99-.34,2.36.27.22.37.28.47.79.17l5.6-3.26c.68-.4.86-.9,1.08-1.53.3-.82.64-1.76,2.1-2.6,4.2-2.45,6.24-3.12,7.52-2.47,1.38.69,1.6,2.76,1.96,6.17.24,2.2.53,4.93,1.24,8.1.32,1.47-.05,3.29-1.11,5.25-1.02,1.89-2.39,3.39-3.97,4.31l-.09.05c-1.42.82-2.76,1.01-3.78.53-.86-.41-1.41-1.23-1.59-2.38l-.47-2.96c-.05-.27-.17-.63-.5-.78-.34-.16-.84-.08-1.36.23l-7.18,4.18c-1.09.63-2.01,2-2.18,3.25l-.5,3.52c-.41,2.92-2.55,6.12-5.09,7.6l-.09.05c-1.01.59-1.84.8-2.52.8Z"/>
      <polygon class="cls-1" points="23.09 22.73 26.38 20.81 26.38 21.84 23.09 23.76 23.09 22.73"/>
      <path class="cls-2" d="M23.4,22.9v.32s2.67-1.56,2.67-1.56v-.32l-2.67,1.56h0ZM23.09,24.06c-.05,0-.1-.01-.15-.04-.1-.06-.16-.16-.16-.27v-1.03c0-.11.07-.21.16-.27l3.29-1.92c.1-.06.22-.06.31,0,.1.06.15.16.15.27v1.03c0,.11-.06.21-.16.27l-3.28,1.91c-.05.03-.11.04-.16.04Z"/>
      <path class="cls-1" d="M15.8,20.58l.69-.4c.51-.29.91-.06.9.52v1.34l1.16-.68c.5-.29.91-.06.9.52v.79c0,.58-.42,1.29-.91,1.58l-1.16.68v1.34c0,.58-.42,1.29-.92,1.58l-.68.4c-.5.29-.91.05-.91-.52v-1.34s-1.15.67-1.15.67c-.5.29-.91.06-.91-.52v-.79c0-.58.42-1.29.92-1.58l1.16-.67v-1.34c0-.58.42-1.29.92-1.58Z"/>
      <path class="cls-2" d="M15.8,20.58h0,0ZM14.87,26.1c.05,0,.11.02.16.04.09.06.15.16.15.27v1.34c0,.16.03.28.11.32.07.04.2.02.34-.07l.68-.4c.41-.24.76-.85.76-1.32v-1.34c.01-.11.07-.21.16-.27l1.16-.67c.4-.23.76-.85.76-1.32v-.79c.01-.16-.03-.28-.11-.32-.07-.04-.19-.02-.33.07l-1.16.68c-.11.06-.22.06-.31,0-.1-.06-.16-.16-.16-.27v-1.34c0-.16-.04-.28-.1-.32-.07-.04-.19-.01-.33.06l-.69.4h0c-.4.24-.76.85-.76,1.32v1.34c0,.11-.07.21-.16.27l-1.15.68c-.41.24-.77.85-.77,1.32v.79c0,.16.04.28.11.32.07.04.19.01.33-.07l1.16-.68c.05-.03.11-.04.16-.04h0ZM15.37,28.71c-.15,0-.28-.03-.39-.1-.27-.15-.42-.47-.42-.86v-.8l-.69.4c-.34.2-.69.22-.96.07-.27-.15-.42-.47-.42-.86v-.79c0-.69.48-1.5,1.07-1.85l1.01-.59v-1.17c0-.69.48-1.5,1.08-1.85l.68-.4c.34-.2.69-.22.95-.06.26.15.42.47.42.86v.8s.69-.4.69-.4c.34-.2.69-.22.96-.07.27.15.42.47.42.86v.79c0,.69-.48,1.5-1.08,1.85l-1,.59v1.17c0,.69-.48,1.5-1.08,1.85l-.69.4c-.18.11-.38.17-.56.17Z"/>
      <path class="cls-1" d="M35.53,12.93c.83-.48,1.51-1.66,1.51-2.63s-.68-1.36-1.51-.88c-.84.49-1.52,1.66-1.52,2.63s.68,1.36,1.52.88Z"/>
      <path class="cls-2" d="M36.2,9.53c-.15,0-.33.06-.52.17-.74.43-1.36,1.51-1.36,2.36,0,.35.11.61.29.72.18.11.46.07.76-.11.74-.43,1.36-1.51,1.36-2.36,0-.35-.11-.61-.3-.72-.07-.04-.15-.06-.24-.06h0ZM34.85,13.44c-.2,0-.39-.05-.56-.14-.38-.22-.59-.67-.59-1.25,0-1.08.73-2.35,1.67-2.89.5-.29.99-.33,1.38-.11.38.22.59.67.59,1.25,0,1.08-.73,2.35-1.67,2.89h0c-.29.17-.56.25-.83.25Z"/>
      <path class="cls-4" d="M32.2,18.45c.84-.48,1.51-1.66,1.51-2.63s-.68-1.36-1.51-.88c-.84.48-1.52,1.66-1.52,2.63s.68,1.36,1.52.88Z"/>
      <path class="cls-2" d="M32.88,15.05c-.16,0-.34.06-.53.17-.74.43-1.36,1.51-1.36,2.36,0,.35.1.61.29.72.18.11.46.07.76-.11h0c.74-.43,1.36-1.51,1.36-2.36,0-.35-.11-.61-.29-.72-.07-.04-.15-.06-.24-.06h0ZM31.52,18.96c-.2,0-.38-.05-.55-.14-.39-.22-.6-.67-.6-1.25,0-1.08.73-2.35,1.67-2.89.5-.29.99-.33,1.38-.1.38.22.6.66.6,1.25,0,1.08-.74,2.35-1.68,2.89-.29.17-.57.25-.83.25Z"/>
    </g>
  </g>
</svg>