<?xml version="1.0" encoding="UTF-8"?>
<svg id="Layer_2" data-name="Layer 2" xmlns="http://www.w3.org/2000/svg" viewBox="0 0 44.88 35.55" fill="currentColor">
  <defs>
    <style>
      .cls-1 {
        fill: #fff;
      }

      .cls-1, .cls-2, .cls-3, .cls-4 {
        fill-rule: evenodd;
      }

      .cls-2 {
        fill: #1a87c7;
      }

      .cls-3 {
        fill: #bdedf8;
      }

      .cls-4 {
        fill: #66ceef;
      }
    </style>
  </defs>
  <g id="_Layer_" data-name="&amp;lt;Layer&amp;gt;">
    <g>
      <path class="cls-4" d="M12.58.66c-1.35-.57-2.48-.4-3.82.1-2.05.88-3.54,2.25-4.92,3.97-1.46,1.93-2.43,3.79-3.09,6.12-.44,1.78-.62,3.35-.21,5.16.33,1.13.72,1.89,1.68,2.61l1.01.58,1.77,1.02L15.33,2.26l-2.75-1.59Z"/>
      <path class="cls-2" d="M10.9.61c-.67,0-1.32.17-2.03.43-1.76.76-3.24,1.96-4.79,3.88-1.46,1.93-2.4,3.78-3.03,6.01-.5,2-.56,3.45-.21,5,.29,1.01.64,1.74,1.56,2.44l2.48,1.43L14.92,2.37l-2.47-1.43c-.54-.23-1.05-.32-1.55-.32h0ZM4.99,20.53c-.05,0-.11-.01-.16-.04l-2.77-1.6c-1.09-.81-1.5-1.67-1.82-2.79-.47-2.07-.17-3.77.21-5.32.66-2.32,1.63-4.24,3.14-6.23C5.21,2.54,6.77,1.29,8.64.48c1.2-.45,2.5-.76,4.06-.1.01,0,.02.01.03.02l2.75,1.59c.15.09.2.27.11.42L5.25,20.38c-.04.07-.11.12-.19.14-.03,0-.05.01-.08.01Z"/>
      <path class="cls-3" d="M10.43,19.87c4.05-2.34,7.34-8.03,7.34-12.71S14.48.57,10.43,2.92C6.38,5.26,3.09,10.95,3.09,15.63s3.29,6.58,7.34,4.24Z"/>
      <path class="cls-2" d="M10.43,19.87h0,0ZM13.71,2.22c-.95,0-2.01.33-3.12.96-3.96,2.29-7.19,7.87-7.19,12.45,0,2.15.71,3.74,2,4.48,1.29.74,3.02.56,4.88-.51,3.96-2.29,7.19-7.87,7.19-12.44,0-2.15-.71-3.75-2-4.49-.52-.3-1.11-.45-1.76-.45h0ZM7.15,21.18c-.75,0-1.45-.18-2.07-.53-1.48-.86-2.3-2.64-2.3-5.02,0-4.77,3.36-10.6,7.5-12.98,2.06-1.19,4.01-1.37,5.5-.51,1.49.86,2.31,2.64,2.31,5.02,0,4.77-3.36,10.59-7.49,12.98h0c-1.21.7-2.37,1.05-3.44,1.05Z"/>
      <path class="cls-1" d="M13.71,4.7l-.19-.08c-.75-.25-1.29-.21-2.04-.02-1.49.46-2.58,1.36-3.61,2.5-1.42,1.66-2.37,3.47-2.83,5.61-.22,1.24-.27,2.34.16,3.54.26.62.51.99,1.05,1.4l.73.42.27.16c.97.67,1.68,1.03,3.92-.26,2.24-1.29,5.29-6.57,5.29-9.16s-.68-3.03-1.75-3.53l-.98-.57Z"/>
      <path class="cls-2" d="M12.52,4.75c-.31,0-.61.06-.97.14-1.24.39-2.28,1.11-3.46,2.4-1.42,1.66-2.32,3.45-2.76,5.47-.18,1.01-.29,2.14.14,3.37.25.6.49.9.95,1.25l.96.55c.84.59,1.44,1,3.61-.26,2.16-1.25,5.13-6.4,5.13-8.89s-.66-2.83-1.57-3.25l-1.16-.65c-.32-.11-.6-.15-.88-.15h0ZM8.77,19.13c-.66,0-1.15-.28-1.7-.67l-.97-.56c-.66-.49-.92-.92-1.18-1.54-.49-1.39-.37-2.6-.17-3.71.46-2.13,1.41-4.01,2.9-5.76,1.27-1.39,2.39-2.16,3.76-2.59.79-.2,1.39-.25,2.23.02l.22.09s.02.01.03.02l.98.57c1.14.52,1.91,1.08,1.91,3.8s-3.1,8.07-5.44,9.42c-1.14.66-1.92.91-2.55.91Z"/>
      <path class="cls-1" d="M18.38,32.56l-4.55-3.61-5.82-11.03c-.65-.49-.92-1.01-1.15-1.79-.35-1.55-.07-3,.45-4.48.52-1.34,1.12-2.39,2.02-3.5,3.6-4.21,11.63-2.78,16.19-1.35.77.24,1.35.74,1.69,1.48l1.07,2.31c.27.58.33,1.15.19,1.77l-.89,4.04,4.88,11.12-5.12,2.85c.1.34-1.13,1.79-2.51,1.4-.19.29-.07.95-1.62.9.07.29-.31.56-1.01.56l-3.24-.44c-.23-.03-.41-.11-.59-.25Z"/>
      <path class="cls-2" d="M14.07,28.75l4.5,3.57h0c.13.11.27.17.44.19l3.24.43c.44,0,.65-.15.67-.2-.02-.09,0-.18.06-.26.06-.08.18-.11.25-.11,1.04.03,1.13-.24,1.23-.5.03-.09.07-.18.12-.26.07-.11.21-.16.34-.13.57.16,1.07-.06,1.4-.27.47-.31.72-.7.73-.79-.04-.14.02-.24.15-.31l4.87-2.72-4.77-10.87c-.03-.06-.03-.13-.02-.19l.89-4.04c.12-.56.07-1.06-.17-1.57l-1.07-2.3c-.31-.66-.81-1.1-1.5-1.32-2.73-.86-11.96-3.31-15.86,1.25-.87,1.09-1.46,2.11-1.97,3.41-.59,1.68-.73,3-.43,4.29.2.68.42,1.15,1.03,1.61.04.03.07.06.09.1l5.79,10.97h0ZM22.21,33.55h-.01l-3.27-.44c-.28-.04-.52-.14-.74-.31l-4.55-3.61s-.06-.06-.08-.1l-5.79-10.97c-.7-.55-.98-1.14-1.2-1.9-.32-1.43-.18-2.86.46-4.66.53-1.38,1.15-2.45,2.07-3.59,4.16-4.86,13.7-2.34,16.52-1.45.85.27,1.5.84,1.87,1.65l1.07,2.3c.3.64.37,1.28.21,1.96l-.87,3.94,4.84,11.03c.06.15,0,.31-.13.39l-4.97,2.77c-.07.3-.34.6-.48.74-.24.25-1.07.98-2.15.82-.16.41-.45.83-1.53.85-.02.05-.05.1-.09.15-.21.26-.64.41-1.17.41Z"/>
      <path class="cls-3" d="M31.62,27.9l-2.9-2.28-2.22-3.44-1.94-1.95c-.94-.94-1.43-2.07-1.48-3.4l-.09-2.44-4.2-.42-1.66,1.99c-.45.54-1.12.84-1.8.63l-1.57-.48c-.15-.05-.26-.15-.31-.3-.05-.15-.04-.3.05-.43l3.27-5.15c.23-.36.57-.65,1-.72l6.98-1.08c.16-.03.29.05.41.16l4.22,3.71c3.67,3.23,1.93,3.17,5.58,4.05,1.11.26,1.7.54,3.35,1.19,2.56,5.07-1.28,8.79-5.04,9.96,0,0-1.32.54-1.65.4Z"/>
      <path class="cls-2" d="M31.76,27.61c.19.02.82-.17,1.39-.4,1.91-.59,4.27-2.04,5.24-4.32.67-1.59.57-3.31-.31-5.11l-.77-.31c-1.01-.4-1.56-.62-2.42-.82-2.34-.56-2.56-.76-3.36-1.72-.41-.49-1.03-1.23-2.35-2.4l-4.22-3.71c-.05-.05-.12-.09-.16-.09l-6.98,1.08c-.41.06-.67.39-.79.58l-3.27,5.15c-.03.05-.04.1-.02.15.02.06.05.09.11.11l1.57.48c.5.16,1.06-.05,1.47-.53l1.66-1.99c.07-.08.17-.12.27-.11l4.2.42c.15.01.27.14.28.29l.09,2.45c.04,1.26.5,2.3,1.39,3.19l1.94,1.94,2.23,3.45,2.81,2.21h0ZM31.77,28.22c-.1,0-.19-.01-.27-.05-.03-.01-.05-.02-.07-.04l-2.91-2.28s-.05-.05-.07-.08l-2.22-3.44-1.9-1.89c-.99-.99-1.52-2.21-1.57-3.61l-.08-2.18-3.77-.37-1.56,1.86c-.56.68-1.38.96-2.12.73l-1.57-.48c-.24-.07-.42-.25-.51-.48-.09-.24-.06-.48.08-.7l3.27-5.15c.3-.48.73-.78,1.21-.86l6.98-1.08c.34-.06.58.16.66.23l4.22,3.71c1.36,1.2,2,1.97,2.42,2.47.69.83.81.98,3.03,1.51.9.21,1.47.44,2.51.85l.88.35c.07.03.13.08.16.15,1,1.98,1.13,3.96.38,5.73-1.05,2.48-3.58,4.04-5.6,4.67-.42.17-1.14.43-1.59.43Z"/>
      <path class="cls-2" d="M24.83,32.09h-.01c-1.7-.06-3.06-.53-4.17-1.44-1.06-.88-2.96-2.98-3.37-3.47-.11-.13-.1-.32.03-.43.13-.11.32-.09.43.03.41.48,2.26,2.54,3.29,3.39,1,.82,2.24,1.25,3.8,1.3.17,0,.3.15.3.32,0,.17-.14.3-.31.3Z"/>
      <path class="cls-2" d="M27.34,30.72h-.14c-1.3-.02-2.65-.04-3.88-1.11-1.04-.91-3.87-3.5-4.45-4.13-.12-.13-.11-.32.02-.43.12-.11.32-.11.44.02.57.62,3.37,3.18,4.4,4.08,1.06.92,2.24.94,3.48.96h.13c.17,0,.31.14.3.31,0,.17-.14.31-.31.31Z"/>
      <path class="cls-2" d="M30.47,29.15h-.03c-1.83-.2-3.72-.49-5.11-1.7-1.11-.96-3.57-3.15-4.05-3.78-.1-.13-.08-.33.06-.43.13-.1.33-.08.43.05.39.51,2.55,2.47,3.97,3.69,1.26,1.09,2.98,1.35,4.78,1.55.17.02.29.17.27.34-.02.16-.15.27-.31.27Z"/>
      <path class="cls-2" d="M23.21,33h-.03c-1.4-.14-3.15-.43-4.24-1.39-.9-.79-2.37-2.18-2.85-2.71-.11-.13-.1-.32.02-.43.13-.11.32-.11.44.02.45.5,1.92,1.88,2.8,2.66.96.84,2.58,1.1,3.9,1.24.17.02.29.17.27.34-.02.16-.15.28-.31.28Z"/>
      <path class="cls-4" d="M42.17,16.64l-2.79-1.61c-.98-.41-1.71-.42-2.75-.23-1.61.4-2.76,1.15-4.02,2.2-.21.19-.49.45-.69.65-1.81,1.81-3.28,4.23-4.09,6.65-.42,1.24-.63,2.36-.71,3.65-.04,1.93.26,3.8,1.9,5.04l2.78,1.6,10.38-17.96Z"/>
      <path class="cls-2" d="M37.77,14.98c-.34,0-.69.04-1.08.12-1.58.4-2.69,1.14-3.87,2.14-.2.18-.47.43-.67.63-1.75,1.75-3.21,4.13-4.02,6.53-.4,1.2-.62,2.3-.7,3.57-.03,1.57.14,3.54,1.78,4.77l2.48,1.43,10.07-17.42-2.52-1.45c-.54-.22-1-.31-1.47-.31h0ZM31.79,34.9c-.05,0-.11-.01-.15-.04l-2.78-1.6c-1.89-1.43-2.09-3.59-2.05-5.31.09-1.34.31-2.49.73-3.74.84-2.49,2.36-4.96,4.17-6.77.21-.21.49-.47.7-.66,1.08-.91,2.33-1.82,4.15-2.27,1.04-.19,1.85-.21,2.95.25l2.82,1.62c.07.04.12.11.14.19.02.08,0,.17-.03.24l-10.38,17.95c-.06.1-.16.15-.27.15Z"/>
      <path class="cls-3" d="M37.23,34.23c4.06-2.34,7.34-8.03,7.34-12.71s-3.28-6.58-7.34-4.24c-4.05,2.34-7.34,8.04-7.34,12.72s3.29,6.58,7.34,4.24Z"/>
      <path class="cls-2" d="M40.51,16.58c-.95,0-2.01.33-3.12.96-3.96,2.29-7.19,7.87-7.19,12.45,0,2.15.71,3.74,1.99,4.49,1.29.74,3.02.56,4.88-.51,3.96-2.29,7.19-7.87,7.19-12.45,0-2.15-.71-3.74-2-4.49-.52-.3-1.11-.45-1.76-.45h0ZM33.95,35.55c-.75,0-1.45-.18-2.06-.53-1.49-.86-2.31-2.64-2.31-5.02,0-4.77,3.36-10.6,7.5-12.98,2.06-1.19,4.01-1.37,5.5-.51,1.49.86,2.31,2.64,2.31,5.02,0,4.77-3.36,10.59-7.5,12.98-1.2.7-2.37,1.05-3.43,1.05Z"/>
      <path class="cls-3" d="M15.64,30.33l-2.15-.06c-.33-.01-.61-.12-.85-.34l-.33-.3c-.29-.26-.44-.6-.44-.99v-.84l-.18-.05c-.28-.08-.5-.22-.68-.44l-.6-.73c-.19-.23-.28-.49-.3-.79l-.02-.59-.22-.08c-.33-.12-.57-.32-.75-.62l-.38-.63c-.25-.41-.35-.84-.32-1.32l.02-.27c-.82-.39-1.42-1.18-1.39-2.2v-.65s.09-1.37.09-1.37c.08-.76.35-.92.97-.97.28-.02.6.01.86.13l.34.16c.29.13.45.28.67.57.18.25.28.5.31.81l.02.2v.66s.41.18.41.18l.44.39c.37.32.55.74.54,1.23l-.03,1.24c.19.1.35.18.54.33l.44.35c.38.3.61.89.59,1.36l-.05,1.54c.52.02.75.2,1.22.58.32.26.51.59.56.99l.19,1.28.49,1.24Z"/>
      <path class="cls-2" d="M8.28,17.38s-.09,0-.14,0c-.47.04-.62.08-.69.7l-.09,1.99c-.02.83.43,1.54,1.22,1.92.11.05.18.17.17.3l-.02.27c-.03.42.06.78.28,1.15l.38.63c.14.24.33.39.59.48l.22.08c.12.04.2.15.2.28l.02.58c0,.24.08.43.23.61l.6.73c.14.17.3.28.52.34l.18.05c.13.04.23.16.23.3v.84c0,.3.11.56.34.76l.33.3c.19.17.4.26.65.26l1.68.05-.32-.81-.21-1.35c-.05-.32-.2-.58-.45-.79-.46-.37-.63-.49-1.04-.51-.17,0-.3-.15-.29-.32l.05-1.54c.01-.4-.19-.89-.47-1.11l-.44-.35c-.17-.13-.31-.2-.5-.3-.11-.06-.17-.17-.17-.29l.03-1.24c.01-.39-.13-.73-.43-.98l-.41-.36-.37-.17c-.11-.05-.18-.16-.18-.28l-.02-.84c-.02-.25-.1-.45-.25-.65-.2-.27-.32-.37-.55-.47l-.35-.16c-.15-.07-.36-.11-.56-.11h0ZM15.64,30.63h0l-2.15-.06c-.4-.01-.76-.15-1.05-.42l-.33-.3c-.35-.32-.54-.74-.54-1.22v-.61c-.32-.1-.58-.27-.79-.53l-.6-.73c-.23-.29-.35-.6-.37-.97l-.03-.38c-.4-.14-.69-.39-.91-.75l-.38-.62c-.28-.47-.4-.96-.37-1.5v-.07c-.89-.51-1.4-1.39-1.38-2.39l.02-.65.08-1.38c.1-.98.54-1.2,1.25-1.27.36-.03.73.03,1.01.16l.35.16c.37.17.56.36.79.66.22.3.34.61.37.97l.02.2v.5s.23.1.23.1c.03.01.05.03.08.05l.44.39c.44.38.66.89.64,1.47l-.03,1.04c.14.08.27.16.42.27l.44.35c.49.38.72,1.1.71,1.61l-.04,1.25c.44.08.71.3,1.09.62.38.3.61.7.68,1.18l.19,1.28.47,1.18c.04.1.03.2-.03.29-.06.08-.15.13-.25.13Z"/>
      <path class="cls-1" d="M7.42,17.93l.93.72-.1,1.61s-.05.05-.09.05c-.04,0-.12-.08-.15-.1l-.38-.39c-.12-.11-.25-.25-.24-.42l.04-1.47Z"/>
      <path class="cls-2" d="M7.71,18.55l-.02.86s.05.09.15.19l.13.13.06-.94-.32-.25h0ZM8.15,20.62c-.15,0-.26-.09-.36-.19l-.39-.39c-.13-.13-.34-.34-.33-.65l.04-1.48c0-.12.07-.22.18-.27.1-.05.23-.04.32.03l.93.72c.08.06.13.16.12.26l-.1,1.61c-.01.16-.13.32-.38.34h-.02Z"/>
      <path class="cls-1" d="M8.71,20.41l1.07.72v1.39s-.02.06-.04.09c-.02.02-.05.03-.09.03h-.13c-.22,0-.4-.09-.54-.25l-.1-.11c-.12-.14-.18-.3-.18-.48v-1.38Z"/>
      <path class="cls-2" d="M9.01,20.99v.81c0,.11.03.19.1.28l.1.12c.07.08.16.13.26.14v-1.03s-.46-.3-.46-.3h0ZM9.65,22.33h0,0ZM9.65,22.94h-.14c-.31,0-.57-.13-.77-.36l-.1-.11c-.17-.2-.25-.43-.25-.68v-1.38c0-.12.07-.22.17-.27.1-.05.22-.05.32.02l1.07.71c.09.06.14.15.14.26v1.39c0,.11-.05.22-.14.3-.08.08-.19.12-.3.12Z"/>
      <path class="cls-1" d="M10.51,23.41l1.08.82v1.28s-.02.06-.04.09c-.02.02-.05.03-.09.03h-.13c-.21,0-.4-.09-.54-.25l-.1-.11c-.12-.14-.18-.3-.18-.48v-1.38Z"/>
      <path class="cls-2" d="M10.81,24.03v.76c0,.11.03.19.1.28l.1.11c.07.08.16.13.26.14v-.94s-.46-.35-.46-.35h0ZM11.45,25.33h0,0ZM11.27,25.51h0s0,0,0,0h0ZM11.46,25.94h-.14c-.31,0-.57-.13-.77-.36l-.1-.11c-.17-.19-.26-.42-.26-.68v-1.38c0-.12.08-.22.18-.28.1-.05.23-.04.32.03l1.07.82c.08.06.12.15.12.25v1.28c0,.11-.05.22-.13.3-.08.08-.19.13-.3.13Z"/>
      <path class="cls-1" d="M12.28,26.89l1.07.78-.09,1.11c0,.06-.06.11-.12.11h-.14c-.22,0-.4-.09-.54-.25h0c-.12-.14-.16-.52-.16-.7v-1.05Z"/>
      <path class="cls-2" d="M12.59,27.49v.44c0,.2.05.44.09.5.08.09.17.14.28.15l.06-.76-.44-.32h0ZM13.14,29.19h-.15c-.3,0-.57-.13-.77-.36-.24-.27-.24-.84-.24-.9v-1.04c0-.12.06-.23.16-.28.1-.05.23-.04.32.02l1.07.78c.09.06.13.17.13.28l-.09,1.11c-.02.22-.21.39-.43.39Z"/>
      <path class="cls-3" d="M10.31,19.62c-.22.02-.4.04-.54.08-.36.08-.82.21-1.04.51-.22.29-.25,1.65-.28,2.07-.04-1.8-.4-2.77,1.87-2.66Z"/>
      <path class="cls-2" d="M8.44,22.59h0c-.16,0-.3-.14-.3-.3,0-.21-.01-.42-.02-.61-.04-.84-.07-1.5.36-1.94.34-.34.91-.47,1.85-.43.16,0,.29.14.29.3,0,.16-.12.3-.28.31-.2.02-.37.04-.51.07-.17.04-.67.14-.86.4-.12.18-.18,1.19-.2,1.57,0,.14-.01.26-.02.34-.01.16-.15.28-.31.28Z"/>
      <path class="cls-1" d="M14.73,13.3l.85.1c.08,0,.14.05.18.11.25.41-1.33,2-1.61,2.32l-1.04-.21c.35-.8.74-1.55,1.39-2.22.07-.07.14-.12.23-.11Z"/>
      <path class="cls-2" d="M14.7,13.6h0,0ZM13.55,15.4l.48.1s.06-.07.1-.1c.96-1.04,1.27-1.5,1.33-1.7l-.73-.08c-.55.57-.9,1.19-1.19,1.79h0ZM14.14,16.14s-.04,0-.06,0l-1.03-.21c-.09-.02-.17-.08-.21-.16-.04-.08-.05-.18,0-.26.33-.76.74-1.57,1.45-2.31.15-.15.31-.22.48-.2h0l.85.09c.17.02.32.11.41.25.29.46-.26,1.19-1.44,2.46-.09.1-.16.18-.21.23-.06.07-.14.11-.23.11Z"/>
      <path class="cls-3" d="M11.66,22.66c-.5.05-1.11.21-1.34.64-.15.3-.18,1.49-.22,1.89-.05-1.3-.41-2.63,1.56-2.53Z"/>
      <path class="cls-2" d="M10.1,25.5h-.01c-.16,0-.29-.13-.3-.3,0-.15-.02-.31-.02-.46-.05-.73-.1-1.48.37-1.96.32-.32.83-.47,1.54-.43.16,0,.29.14.29.3,0,.16-.12.3-.28.32-.58.06-.97.23-1.1.48-.08.16-.13.95-.16,1.33-.01.18-.02.35-.04.45-.02.16-.15.28-.3.28Z"/>
      <path class="cls-3" d="M13.15,26.24c-1.2.08-1.2.58-1.28,1.6-.03-1.24-.14-1.65,1.28-1.6Z"/>
      <path class="cls-2" d="M11.87,28.1h0c-.16,0-.3-.1-.3-.26v-.23c-.02-.63-.03-1.08.27-1.38.24-.24.62-.33,1.33-.3.16,0,.29.14.3.3,0,.17-.12.3-.29.31-.9.06-.92.28-.99,1.24,0,.01,0,.02,0,.04h0c-.03.15-.16.28-.3.28Z"/>
      <path class="cls-3" d="M18.43,12.96c.09.26.44.92-.05,1.52.38-.39.71-.44,1.13-.44-.63-.16-.82-.7-1.07-1.08Z"/>
      <path class="cls-2" d="M18.37,14.79c-.07,0-.15-.03-.2-.08-.12-.11-.14-.3-.03-.43.3-.36.18-.75.04-1.12l-.04-.1c-.05-.15.01-.31.15-.38.14-.07.31-.03.4.1.05.08.1.16.15.25.18.31.36.61.74.7.15.04.25.18.23.34-.02.15-.15.27-.31.27h0c-.38.03-.62.05-.9.34-.06.07-.14.1-.22.1Z"/>
      <path class="cls-3" d="M24.01,13.86c-.43.23-.58.38-1.68.46.89.09.59.39.7.93.03-.85.53-1,.99-1.39Z"/>
      <path class="cls-2" d="M23.02,15.55c-.15,0-.28-.1-.3-.25-.03-.15-.03-.29-.03-.41,0-.07,0-.15-.01-.18h0s-.07-.05-.38-.08c-.16-.01-.28-.15-.28-.31,0-.16.13-.29.29-.3.9-.07,1.1-.17,1.41-.35l.15-.08c.14-.07.31-.03.4.1.09.13.07.31-.05.41-.1.09-.21.17-.31.24-.35.25-.55.4-.57.92,0,.15-.13.28-.28.3h-.02Z"/>
    </g>
  </g>
</svg>