<?xml version="1.0" encoding="UTF-8"?>
<svg id="Layer_2" data-name="Layer 2" xmlns="http://www.w3.org/2000/svg" viewBox="0 0 40.36 43.59" fill="currentColor">
  <defs>
    <style>
      .cls-1 {
        fill: #fff;
      }

      .cls-1, .cls-2, .cls-3, .cls-4 {
        fill-rule: evenodd;
      }

      .cls-2 {
        fill: #1a87c7;
      }

      .cls-3 {
        fill: #bdedf8;
      }

      .cls-4 {
        fill: #66ceef;
      }
    </style>
  </defs>
  <g id="_Layer_" data-name="&amp;lt;Layer&amp;gt;">
    <g>
      <polygon class="cls-3" points="38.48 14.1 20.24 3.57 1.88 14.17 20.11 24.7 38.48 14.1"/>
      <path class="cls-2" d="M2.49,14.17l17.62,10.17,17.75-10.25L20.24,3.92,2.49,14.17h0ZM20.11,25.01s-.1-.02-.15-.04L1.72,14.44c-.1-.06-.16-.16-.16-.27s.06-.21.16-.27L20.09,3.3c.09-.06.22-.06.31,0l18.23,10.53c.1.06.15.16.15.27s-.05.21-.15.27l-18.37,10.61s-.1.04-.15.04Z"/>
      <polygon class="cls-3" points="20.11 24.7 1.88 14.17 1.88 32.76 20.11 43.28 20.11 24.7"/>
      <path class="cls-2" d="M2.18,32.58l17.62,10.17v-17.87L2.18,14.71v17.87h0ZM20.11,43.59s-.1-.01-.15-.04L1.72,33.02c-.1-.05-.16-.16-.16-.27V14.17c0-.11.06-.21.16-.27.09-.06.21-.06.3,0l18.23,10.53c.09.06.15.16.15.27v18.58c0,.11-.06.21-.15.27-.04.03-.1.04-.15.04Z"/>
      <polygon class="cls-1" points="38.48 32.68 38.48 14.09 20.11 24.7 20.11 43.29 38.48 32.68"/>
      <path class="cls-2" d="M20.41,24.88v17.87l17.75-10.25V14.63l-17.75,10.25h0ZM20.11,43.59s-.1-.01-.15-.04c-.1-.06-.16-.16-.16-.26v-18.59c0-.11.06-.21.16-.26l18.37-10.61c.09-.06.22-.06.3,0,.1.06.16.16.16.26v18.59c0,.11-.05.21-.15.27l-18.37,10.6s-.1.04-.15.04Z"/>
      <polygon class="cls-1" points="11.18 8.8 20.24 3.57 38.48 14.1 29.41 19.33 11.18 8.8"/>
      <path class="cls-2" d="M11.8,8.8l17.62,10.17,8.45-4.88L20.24,3.92l-8.45,4.88h0ZM29.41,19.64s-.1-.02-.15-.04L11.02,9.07c-.1-.06-.16-.16-.16-.27s.06-.21.16-.27l9.06-5.24c.09-.06.22-.06.31,0l18.23,10.53c.1.06.15.16.15.27s-.05.21-.15.27l-9.07,5.24s-.1.04-.15.04Z"/>
      <polygon class="cls-1" points="1.88 14.17 10.94 8.94 29.18 19.47 20.11 24.7 1.88 14.17"/>
      <path class="cls-2" d="M2.49,14.17l17.62,10.17,8.45-4.88L10.94,9.29,2.49,14.17h0ZM20.11,25.01s-.1-.02-.15-.04L1.72,14.44c-.1-.06-.16-.16-.16-.27s.06-.21.16-.27l9.06-5.24c.09-.05.21-.05.3,0l18.23,10.53c.11.05.16.16.16.27s-.05.21-.16.27l-9.06,5.23s-.1.04-.15.04Z"/>
      <polygon class="cls-3" points="9.47 9.79 12.65 7.95 30.88 18.48 27.7 20.32 9.47 9.79"/>
      <path class="cls-2" d="M10.08,9.79l17.62,10.17,2.56-1.48L12.65,8.31l-2.56,1.48h0ZM27.7,20.63c-.05,0-.1-.02-.16-.04L9.32,10.06c-.09-.06-.16-.16-.16-.27s.06-.21.16-.27l3.18-1.84c.09-.06.21-.06.3,0l18.23,10.53c.09.06.16.16.16.27s-.06.21-.16.27l-3.18,1.84c-.05.03-.1.04-.15.04Z"/>
      <polygon class="cls-3" points="30.61 9.55 27.43 7.72 9.06 18.32 12.25 20.16 30.61 9.55"/>
      <path class="cls-2" d="M9.67,18.32l2.57,1.48,17.75-10.25-2.57-1.48-17.76,10.25h0ZM12.25,20.47c-.06,0-.11-.01-.16-.04l-3.18-1.84c-.09-.06-.15-.16-.15-.27s.06-.21.15-.26L27.27,7.45c.1-.06.21-.06.3,0l3.18,1.84c.09.06.15.16.15.27s-.06.21-.15.27l-18.37,10.61s-.1.04-.15.04Z"/>
      <polygon class="cls-4" points="9.06 18.32 12.24 20.16 12.24 38.74 9.06 36.9 9.06 18.32"/>
      <path class="cls-2" d="M9.37,36.73l2.57,1.48v-17.87l-2.57-1.48v17.87h0ZM12.24,39.05c-.05,0-.1-.02-.15-.04l-3.18-1.84c-.09-.06-.15-.16-.15-.27v-18.58c0-.11.06-.21.15-.26.1-.06.21-.06.3,0l3.18,1.84c.09.06.16.16.16.27v18.58c0,.11-.06.21-.16.27-.05.03-.11.04-.16.04Z"/>
      <polygon class="cls-4" points="30.88 18.48 27.7 20.32 27.7 38.9 30.88 37.06 30.88 18.48"/>
      <path class="cls-2" d="M28.01,20.5v17.87l2.56-1.48v-17.87l-2.56,1.48h0ZM27.7,39.21c-.05,0-.1-.01-.15-.04-.09-.06-.15-.15-.15-.27v-18.58c0-.11.06-.21.15-.27l3.18-1.84c.1-.06.21-.06.31,0,.09.06.16.16.16.27v18.58c0,.11-.06.21-.16.27l-3.18,1.83s-.09.04-.15.04Z"/>
      <polygon class="cls-3" points="40.04 11.74 20.25 .31 .3 11.82 20.1 23.25 40.04 11.74"/>
      <path class="cls-2" d="M.92,11.82l19.18,11.08,19.32-11.16L20.25.66.92,11.82h0ZM20.1,23.56c-.05,0-.1-.01-.15-.04L.15,12.09c-.09-.05-.15-.16-.15-.27s.05-.21.15-.27L20.09.04c.1-.06.21-.06.3,0l19.8,11.43c.1.06.16.16.16.27s-.06.21-.16.27l-19.94,11.52c-.05.03-.1.04-.16.04Z"/>
      <polygon class="cls-3" points="20.1 23.25 .3 11.82 .3 16.53 20.1 27.96 20.1 23.25"/>
      <path class="cls-2" d="M.62,16.35l19.18,11.08v-4L.62,12.36v4h0ZM20.1,28.27c-.05,0-.1-.01-.15-.04L.15,16.8c-.09-.06-.15-.16-.15-.27v-4.71c0-.11.05-.21.15-.27.1-.05.22-.05.31,0l19.8,11.43c.09.05.15.15.15.26v4.71c0,.11-.06.21-.15.27-.05.03-.1.04-.16.04Z"/>
      <polygon class="cls-1" points="40.04 16.45 40.04 11.74 20.1 23.25 20.1 27.96 40.04 16.45"/>
      <path class="cls-2" d="M20.41,23.43v4l19.32-11.16v-4l-19.32,11.16h0ZM20.1,28.27c-.05,0-.1-.01-.15-.04-.1-.05-.15-.16-.15-.27v-4.71c0-.11.05-.21.15-.26l19.95-11.52c.1-.05.21-.05.3,0,.1.06.16.16.16.27v4.71c0,.11-.06.21-.16.27l-19.94,11.51c-.05.03-.1.04-.16.04Z"/>
      <polygon class="cls-1" points="10.4 5.99 20.25 .31 40.04 11.74 30.2 17.42 10.4 5.99"/>
      <path class="cls-2" d="M11.02,5.99l19.18,11.07,9.22-5.33L20.25.66l-9.23,5.33h0ZM30.2,17.73c-.05,0-.1-.01-.15-.04L10.25,6.26c-.09-.06-.15-.16-.15-.27s.05-.21.15-.27L20.09.04c.1-.06.21-.06.3,0l19.8,11.43c.1.06.16.16.16.27s-.06.21-.16.27l-9.84,5.69s-.1.04-.15.04Z"/>
      <polygon class="cls-1" points=".3 11.82 10.15 6.14 29.95 17.57 20.1 23.25 .3 11.82"/>
      <path class="cls-2" d="M.92,11.82l19.18,11.08,9.23-5.33L10.15,6.49.92,11.82h0ZM20.1,23.56c-.05,0-.1-.01-.15-.04L.16,12.09c-.1-.05-.16-.16-.16-.27s.06-.21.16-.27l9.84-5.68c.09-.05.21-.05.3,0l19.8,11.43c.09.05.15.16.15.27s-.06.21-.15.26l-9.84,5.69c-.05.03-.1.04-.16.04Z"/>
      <polygon class="cls-4" points="8.55 7.06 12 5.07 31.8 16.5 28.34 18.49 8.55 7.06"/>
      <path class="cls-2" d="M9.17,7.06l19.17,11.08,2.84-1.64L12,5.42l-2.83,1.64h0ZM28.34,18.8c-.05,0-.1-.01-.15-.04L8.4,7.33c-.1-.06-.16-.16-.16-.27s.06-.21.16-.26l3.45-2c.09-.05.22-.05.31,0l19.8,11.43c.1.05.15.15.15.26s-.05.21-.15.27l-3.46,1.99s-.1.04-.16.04Z"/>
      <polygon class="cls-4" points="31.51 6.81 28.05 4.81 8.11 16.33 11.56 18.32 31.51 6.81"/>
      <path class="cls-2" d="M8.73,16.33l2.83,1.64L30.89,6.81l-2.84-1.64-19.32,11.16h0ZM11.56,18.63c-.05,0-.11-.01-.15-.04l-3.46-2c-.09-.06-.15-.15-.15-.26s.06-.21.15-.27L27.9,4.55c.09-.06.21-.06.3,0l3.45,1.99c.1.06.16.16.16.27s-.06.21-.16.27l-19.94,11.51s-.11.04-.16.04Z"/>
      <polygon class="cls-4" points="8.11 16.33 11.56 18.32 11.56 23.03 8.11 21.04 8.11 16.33"/>
      <path class="cls-2" d="M8.41,20.86l2.84,1.64v-4l-2.84-1.64v4h0ZM11.56,23.34c-.05,0-.11-.01-.16-.04l-3.45-1.99c-.09-.06-.15-.15-.15-.26v-4.71c0-.11.06-.21.15-.27.1-.06.22-.06.3,0l3.46,1.99c.09.06.16.16.16.27v4.71c0,.11-.06.21-.16.27-.05.03-.11.04-.16.04Z"/>
      <polygon class="cls-4" points="31.8 16.5 28.34 18.49 28.35 23.2 31.8 21.21 31.8 16.5"/>
      <path class="cls-2" d="M28.66,18.67v4l2.84-1.64v-4s-2.84,1.64-2.84,1.64h0ZM28.35,23.51c-.06,0-.11-.02-.15-.04-.1-.06-.16-.16-.16-.27v-4.71c0-.11.06-.21.16-.27l3.45-1.99c.1-.06.22-.06.31,0,.1.05.15.15.15.26v4.71c0,.11-.05.21-.15.27l-3.46,1.99s-.1.04-.15.04Z"/>
      <path class="cls-4" d="M21.25,11.54l-2.94-.4c-3.67,2.95-10.09,6.2-11.42,10.12,1.82.25,2.89,1.24,4.16,3.38,1.44-4.61,6.65-9.09,10.2-13.11Z"/>
      <path class="cls-2" d="M7.3,21.03c1.64.34,2.66,1.34,3.67,2.91,1.28-3.35,4.34-6.55,7.3-9.65.84-.87,1.63-1.7,2.37-2.52l-2.24-.3c-1,.8-2.18,1.61-3.42,2.46-3.09,2.11-6.56,4.49-7.67,7.1h0ZM11.05,24.96c-.1,0-.21-.06-.26-.15-1.32-2.2-2.31-3.01-3.94-3.24-.1-.01-.18-.07-.23-.14-.04-.08-.05-.18-.03-.26,1-2.93,4.74-5.49,8.03-7.75,1.28-.88,2.49-1.71,3.48-2.51.07-.06.16-.08.24-.07l2.96.39c.11.02.21.09.24.2.04.1.03.22-.05.31-.85.97-1.78,1.94-2.78,2.97-3.09,3.24-6.3,6.59-7.37,10.03-.03.12-.14.2-.26.21-.01,0-.02,0-.04,0Z"/>
      <path class="cls-4" d="M18.7,11.54l2.96-.4c3.66,2.95,10.09,6.2,11.42,10.12-1.82.25-2.88,1.24-4.16,3.38-1.44-4.61-6.66-9.09-10.21-13.11Z"/>
      <path class="cls-2" d="M19.31,11.77c.74.82,1.54,1.65,2.37,2.52,2.96,3.1,6.02,6.3,7.3,9.65,1.01-1.57,2.01-2.57,3.67-2.91-1.11-2.61-4.58-4.99-7.67-7.1-1.24-.85-2.43-1.66-3.42-2.46l-2.25.3h0ZM28.91,24.96s-.03,0-.04,0c-.12-.02-.22-.1-.25-.21-1.07-3.44-4.28-6.79-7.37-10.03-.99-1.03-1.92-2-2.77-2.97-.08-.08-.1-.21-.06-.31.04-.11.14-.18.25-.2l2.95-.39c.09-.02.17.01.24.07,1.01.81,2.22,1.64,3.49,2.51,3.3,2.26,7.03,4.82,8.03,7.75.03.09.02.18-.03.26-.04.08-.13.13-.22.14-1.63.23-2.64,1.05-3.95,3.24-.06.09-.15.15-.26.15Z"/>
      <path class="cls-4" d="M19.69,13.58l6.81-.69c2.19-.16,8.52-.79,8.18-3.65l-.5-2.49c-3.34,3.85-9.22,3.88-13.85,4.02l-.65,2.82Z"/>
      <path class="cls-2" d="M20.58,11.06l-.5,2.17,6.38-.65c3.95-.28,6.63-1.06,7.56-2.19.28-.35.39-.71.35-1.13l-.37-1.88c-3.35,3.37-8.76,3.53-13.14,3.66h-.28ZM19.69,13.89c-.09,0-.17-.04-.23-.1-.07-.08-.1-.18-.07-.27l.65-2.82c.03-.14.15-.24.28-.24l.52-.02c4.45-.13,9.99-.3,13.12-3.9.07-.09.19-.13.31-.1.11.03.2.12.22.24l.5,2.49c.07.61-.1,1.14-.49,1.61-1.33,1.61-5.07,2.2-7.97,2.41l-6.81.69h-.03Z"/>
      <path class="cls-4" d="M21.74,9.16c3.86-5.2,9.43-8.27,11.59-4.79.78,1.25.79,2.19,1.36,4.87-1.64-4.33-6.19-2.98-13,2.92l.05-3Z"/>
      <path class="cls-2" d="M22.04,9.26l-.03,2.21c4.64-3.94,8.03-5.57,10.35-4.98.65.16,1.21.5,1.67,1.01-.27-1.38-.42-2.11-.96-2.98-.52-.84-1.28-1.29-2.26-1.33-2.46-.12-5.96,2.33-8.76,6.07h0ZM21.69,12.47s-.09,0-.13-.03c-.11-.05-.18-.16-.17-.29l.04-3c0-.06.02-.13.06-.18,2.87-3.85,6.53-6.4,9.18-6.4.06,0,.11,0,.18,0,1.16.05,2.12.61,2.75,1.62.63,1.01.78,1.84,1.08,3.35.09.46.18,1,.32,1.62.03.16-.06.31-.22.36-.16.04-.32-.04-.37-.19-.48-1.26-1.19-2-2.18-2.25-2.17-.55-5.64,1.23-10.33,5.29-.05.05-.13.08-.2.08Z"/>
      <path class="cls-4" d="M20.26,13.58l-6.81-.69c-2.19-.16-8.52-.79-8.18-3.65l.49-2.49c3.33,3.85,9.22,3.88,13.85,4.02l.64,2.82Z"/>
      <path class="cls-2" d="M5.95,7.39l-.37,1.9c-.05.39.06.76.35,1.1.93,1.13,3.61,1.9,7.55,2.19l6.4.65-.5-2.17h-.27c-4.38-.14-9.8-.3-13.14-3.67h0ZM20.26,13.89h-.03l-6.81-.69c-2.89-.21-6.63-.79-7.97-2.41-.39-.47-.55-1.01-.48-1.59l.5-2.52c.02-.12.1-.21.21-.24.12-.03.24,0,.31.1,3.13,3.61,8.66,3.77,13.12,3.9l.51.02c.14,0,.26.1.29.24l.65,2.82c.02.1,0,.2-.07.27-.06.07-.15.1-.24.1Z"/>
      <path class="cls-4" d="M18.22,9.16C14.35,3.96,8.79.89,6.63,4.36c-.78,1.25-.79,2.19-1.35,4.87,1.63-4.33,6.19-2.98,12.99,2.92l-.05-3Z"/>
      <path class="cls-2" d="M8.57,6.38c2.26,0,5.34,1.68,9.38,5.1l-.04-2.21c-2.8-3.73-6.31-6.18-8.77-6.07-.98.04-1.73.49-2.25,1.33-.55.88-.7,1.6-.97,2.98.46-.51,1.02-.85,1.67-1.01.3-.08.62-.12.97-.12h0ZM18.27,12.47c-.08,0-.15-.03-.21-.08-4.68-4.06-8.15-5.84-10.32-5.29-.99.25-1.71.99-2.18,2.25-.06.15-.22.23-.37.19-.16-.05-.25-.2-.22-.36.13-.63.23-1.16.32-1.62.29-1.51.45-2.34,1.07-3.35.64-1.01,1.58-1.57,2.76-1.62,2.69-.12,6.42,2.46,9.34,6.4.04.05.06.12.06.18l.05,3c0,.12-.07.23-.17.29-.04.02-.09.03-.13.03Z"/>
      <path class="cls-4" d="M19.97,9.01c.46,0,1.01.06,1.7.14.75,1.6.86,3.11.16,4.44-.45.16-1.14.28-1.86.35-.7-.06-1.4-.19-1.86-.35-.69-1.32-.58-2.84.16-4.44.69-.08,1.24-.14,1.69-.14Z"/>
      <path class="cls-2" d="M18.33,13.33c.43.13,1.04.24,1.67.29.59-.06,1.2-.16,1.62-.29.54-1.12.5-2.43-.16-3.9-1.35-.16-1.61-.16-2.96,0-.65,1.46-.7,2.77-.17,3.9h0ZM20,14.24c-.81-.07-1.51-.2-1.98-.36-.08-.02-.14-.08-.17-.15-.71-1.37-.66-2.95.16-4.71.05-.1.14-.16.24-.18.8-.1,1.3-.14,1.73-.14h0c.44,0,.93.04,1.74.14.11.01.19.08.23.18.83,1.76.88,3.34.17,4.71-.04.07-.11.12-.17.15-.47.16-1.17.3-1.94.36Z"/>
    </g>
  </g>
</svg>