<?xml version="1.0" encoding="UTF-8"?>
<svg id="Layer_2" data-name="Layer 2" xmlns="http://www.w3.org/2000/svg" viewBox="0 0 39.34 43.61" fill="currentColor">
  <defs>
    <style>
      .cls-1 {
        fill: #fff;
      }

      .cls-1, .cls-2, .cls-3, .cls-4 {
        fill-rule: evenodd;
      }

      .cls-2 {
        fill: #1a87c7;
      }

      .cls-3 {
        fill: #bdedf8;
      }

      .cls-4 {
        fill: #66ceef;
      }
    </style>
  </defs>
  <g id="_Layer_" data-name="&amp;lt;Layer&amp;gt;">
    <g>
      <polygon class="cls-3" points="39.03 28.03 24.97 19.92 .31 34.15 14.37 42.26 39.03 28.03"/>
      <path class="cls-2" d="M.93,34.15l13.44,7.76,24.04-13.87-13.44-7.75L.93,34.15h0ZM14.37,42.57c-.05,0-.11-.02-.16-.04L.16,34.42c-.1-.06-.15-.16-.15-.27s.05-.21.15-.27l24.67-14.23c.1-.05.21-.05.3,0l14.06,8.11c.09.06.15.17.15.27,0,.11-.06.21-.15.27l-24.67,14.23s-.09.04-.15.04Z"/>
      <polygon class="cls-3" points="14.37 43.3 39.03 29.07 39.03 28.03 14.37 42.26 14.37 43.3"/>
      <path class="cls-2" d="M14.67,42.44v.33l24.05-13.87v-.33l-24.05,13.87h0ZM14.37,43.61c-.06,0-.11-.02-.16-.04-.09-.05-.15-.15-.15-.27v-1.04c0-.1.06-.21.15-.26l24.67-14.24c.09-.05.21-.05.31,0,.09.06.15.17.15.27v1.04c0,.11-.06.21-.15.27l-24.67,14.23s-.09.04-.15.04Z"/>
      <path class="cls-4" d="M30.69,27.19c.2-.12.4-.3.4-.54v-15.69c-.03.44-.57.67-.94.74-.5.09-1.2.02-1.58-.34-.12-.1-.2-.23-.21-.4v15.69c.01.31.35.54.62.64.52.2,1.22.17,1.71-.1Z"/>
      <path class="cls-2" d="M28.67,11.81v14.85c.01.12.22.27.42.35.46.17,1.06.14,1.46-.08.15-.09.24-.2.24-.29v-14.83c-.18.1-.38.16-.59.19-.47.1-1.07.05-1.54-.19h0ZM30.69,27.19h.01-.01ZM29.73,27.73c-.3,0-.59-.05-.86-.16-.49-.18-.8-.53-.81-.91v-15.7c0-.17.14-.3.3-.3.15-.04.3.12.31.29,0,.04.02.11.12.19.29.28.88.34,1.31.26.34-.06.68-.23.7-.45,0-.17.15-.32.32-.29.17,0,.29.14.29.3v15.69c0,.31-.21.6-.56.8h0c-.32.18-.72.28-1.12.28Z"/>
      <path class="cls-1" d="M30.75,10.56l1.13.11,2.45.21,1.8-1.03c.17-.1.3-.36.27-.53-.02-.08-.07-.14-.11-.19l-.82-1.17-3.59-.32c.03.26,0,.54-.06.83-.13.64-.45,1.34-.92,1.93h-.01c-.05.07-.09.12-.14.18Z"/>
      <path class="cls-2" d="M31.34,10.3l2.92.26,1.71-.99c.07-.04.13-.17.12-.21,0,0-.05-.06-.05-.06l-.75-1.06-3.1-.28c0,.18-.03.36-.07.55-.12.62-.4,1.24-.78,1.79h0ZM34.33,11.19s-.02,0-.03-.01l-3.58-.32c-.12-.01-.22-.08-.26-.19-.04-.11-.03-.24.05-.32.04-.04.09-.1.13-.15.44-.55.75-1.18.88-1.81.05-.26.07-.51.05-.74-.01-.09.03-.17.09-.24.07-.06.17-.1.24-.09l3.59.32c.09,0,.17.05.23.13l.83,1.17c.06.08.13.17.16.31.05.3-.14.69-.43.85l-1.79,1.03s-.09.04-.16.04Z"/>
      <path class="cls-3" d="M29.94,10.92c.27.11.44.06.7-.05.51-.28.83-.71,1.06-1.24.18-.5.34-1.24-.2-1.57l-1.11-.64.09-.07c.51-.33.99-.56,1.6-.32l-1.83-1.06c-.84-.33-1.6.26-2.16.83-.44.5-.7.93-.94,1.53-.19.56-.27.93-.24,1.5.07.5.19.81.63,1.07l1.83,1.06c-.62-.37-.69-1.04-.61-1.71l1.18.67Z"/>
      <path class="cls-2" d="M29.75,6.18c-.42,0-.89.27-1.45.84-.39.46-.64.87-.87,1.43-.17.5-.24.83-.22,1.36.06.4.15.63.48.83l.75.43c-.06-.36-.02-.69,0-.86.02-.1.08-.19.18-.24.09-.04.2-.04.28.01l1.16.66c.14.05.23.04.44-.05.39-.22.68-.56.91-1.1.12-.33.29-.95-.08-1.17l-1.1-.63c-.1-.05-.15-.15-.16-.24,0-.1.03-.21.12-.27l.09-.07c.22-.14.43-.27.68-.37l-.89-.51c-.11-.03-.21-.05-.33-.05h0ZM29.36,12.27c-.05,0-.1-.02-.15-.04l-1.83-1.06c-.54-.33-.69-.74-.77-1.29-.04-.65.05-1.08.25-1.63.25-.65.54-1.11.99-1.64.34-.35,1.34-1.37,2.5-.91l1.87,1.08c.14.08.19.25.12.4-.07.15-.24.21-.38.16-.35-.14-.65-.08-.98.1l.67.38c.56.34.68,1.02.34,1.94-.3.68-.69,1.12-1.21,1.41-.29.13-.57.23-.96.07-.01,0-.03,0-.04-.02l-.75-.43c.02.45.17.74.49.93.14.09.19.28.11.42-.06.1-.17.16-.27.16Z"/>
      <path class="cls-1" d="M29.6,9.79c.08-.37.26-.77.54-1.12.28-.34.59-.56.88-.63.28-.08.54-.01.7.21.17.23.19.57.11.94-.07.37-.26.78-.53,1.12l-.02.02c-.27.33-.58.55-.86.63-.62.16-.98-.36-.82-1.16h0ZM28.8,10.01c-.24,1.2.21,2.09,1.06,2.07,1.05-.03,2.45-1.46,2.78-3.1.13-.64.08-1.23-.2-1.63-.27-.39-.71-.5-1.21-.37-1.06.28-2.15,1.64-2.43,3.03h0Z"/>
      <path class="cls-2" d="M29.6,9.79h.01-.01ZM31.24,8.31s-.09,0-.14.02c-.23.06-.5.25-.72.53-.24.3-.4.65-.47.99h0c-.09.4,0,.65.1.76.08.07.18.08.33.04.23-.06.48-.25.7-.52.24-.3.42-.66.49-1,.06-.3.03-.56-.07-.7-.02-.03-.08-.11-.23-.11h0ZM30.2,11.3c-.23,0-.44-.09-.61-.24-.3-.28-.4-.76-.29-1.32.1-.43.3-.88.6-1.25.32-.38.68-.64,1.04-.74.42-.12.8,0,1.03.33.21.29.26.71.16,1.18-.09.44-.3.89-.6,1.25-.31.39-.68.65-1.03.75-.11.03-.2.04-.3.04h0ZM28.8,10.01h0,0ZM31.61,7.24c-.11,0-.21.02-.3.03-.95.25-1.95,1.54-2.22,2.8h0c-.13.62-.05,1.16.2,1.46.14.17.33.24.55.24.87-.03,2.17-1.3,2.5-2.85.11-.57.06-1.08-.16-1.39-.16-.22-.37-.29-.57-.29h0ZM29.82,12.38c-.39,0-.75-.16-.99-.45-.38-.45-.5-1.17-.34-1.98h0c.31-1.52,1.48-2.96,2.66-3.27.64-.17,1.2,0,1.54.5.32.44.41,1.1.25,1.86-.35,1.71-1.82,3.3-3.07,3.35h-.05Z"/>
      <path class="cls-1" d="M31.04,6.43V1.65l-.9-1.28c-.11-.16-.37,0-.49.29l-.89,2.3v4.79c.04-.07.09-.13.14-.19h0c.47-.59,1.01-.97,1.51-1.1.21-.06.42-.07.62-.03Z"/>
      <path class="cls-2" d="M29.07,3.01v3.9c.4-.38.84-.64,1.26-.76.14-.04.27-.06.39-.06V1.75l-.74-1.06s-.03.06-.05.09l-.87,2.24h0ZM28.77,8.05s-.07,0-.09-.02c-.13-.03-.22-.16-.22-.28V2.95s0-.08.03-.11l.89-2.3c.12-.3.36-.51.6-.54.17-.03.32.04.42.18l.9,1.28c.03.05.05.11.05.18v4.78c0,.09-.03.18-.11.24-.07.05-.17.08-.26.05-.14-.02-.3-.02-.47.03-.44.12-.93.48-1.35.99-.05.06-.1.12-.14.17-.05.09-.15.13-.24.13Z"/>
      <path class="cls-1" d="M27.91,9.93l-3.58,4.45-.85,2.22c-.04.09-.08.18-.08.28,0,.05,0,.1.03.14.04.05.09.07.14.06.07-.02.15-.07.21-.1l1.69-.98,2.41-3,1.05-1.29-.39-.23c-.27-.17-.37-.29-.51-.6-.11-.34-.14-.59-.11-.95Z"/>
      <path class="cls-2" d="M24.6,14.54l-.8,2.07,1.47-.84,3.19-3.97-.08-.05c-.32-.19-.47-.37-.63-.73-.04-.09-.06-.18-.09-.27l-3.06,3.8h0ZM23.55,17.38c-.14,0-.28-.07-.36-.19-.06-.09-.09-.2-.09-.31,0-.15.05-.26.09-.36l.87-2.24s.03-.06.05-.09l3.57-4.45c.09-.1.23-.14.36-.1.12.05.2.18.19.31-.02.33,0,.54.09.83.1.23.18.3.38.42l.38.22c.08.04.14.12.16.21,0,.09,0,.18-.07.25l-3.45,4.29s-.05.06-.09.08l-1.7.97c-.09.06-.19.12-.3.14h-.08Z"/>
      <polygon class="cls-4" points="14.37 42.26 .31 34.15 .31 35.19 14.37 43.3 14.37 42.26"/>
      <path class="cls-2" d="M.62,35.01l13.44,7.76v-.33L.62,34.68v.33h0ZM14.37,43.61c-.06,0-.11-.02-.16-.04L.16,35.45c-.1-.05-.16-.16-.16-.26v-1.04c0-.11.06-.21.16-.27.09-.05.22-.05.31,0l14.05,8.12c.1.05.16.16.16.26v1.04c0,.11-.06.21-.16.27-.04.03-.09.04-.15.04Z"/>
      <polygon class="cls-1" points="14.33 31.49 4.5 25.81 4.49 34.49 14.33 40.16 14.33 31.49"/>
      <path class="cls-2" d="M4.8,34.31l9.22,5.32v-7.96s-9.21-5.33-9.21-5.33v7.97h-.01ZM14.33,40.47c-.05,0-.1-.02-.16-.04l-9.84-5.67c-.1-.06-.15-.16-.15-.27v-8.68c0-.11.06-.21.16-.27.1-.05.21-.05.3,0l9.84,5.68c.1.05.16.16.16.26v8.67c0,.11-.07.22-.17.27-.04.03-.09.04-.15.04Z"/>
      <polygon class="cls-1" points="21.01 18.19 11.17 12.51 3.08 26.64 12.91 32.31 21.01 18.19"/>
      <path class="cls-2" d="M3.49,26.52l9.3,5.37,7.8-13.59-9.31-5.37-7.79,13.59h0ZM12.91,32.62c-.05,0-.1,0-.15-.03l-9.84-5.69c-.15-.08-.2-.27-.11-.42l8.1-14.12c.04-.07.11-.12.18-.15.08-.02.16,0,.24.03l9.84,5.67c.15.09.2.28.11.43l-8.1,14.12c-.03.07-.1.12-.18.14-.03,0-.05,0-.09,0Z"/>
      <polygon class="cls-1" points="27.73 32.44 27.73 23.76 29.16 22.94 21.01 18.19 12.91 32.31 14.33 31.49 14.33 40.16 27.73 32.44"/>
      <path class="cls-2" d="M14.33,31.18c.06,0,.11.02.16.04.1.05.16.16.16.26v8.14s12.78-7.38,12.78-7.38v-8.49c0-.1.06-.21.16-.26l.96-.55-7.42-4.33-7.37,12.86.43-.25s.1-.04.15-.04h0ZM14.33,40.47c-.05,0-.1-.02-.16-.04-.1-.05-.16-.16-.16-.27v-8.13s-.95.56-.95.56c-.12.07-.27.04-.37-.05-.1-.09-.11-.25-.04-.37l8.09-14.12c.04-.07.11-.12.19-.14.08-.02.17,0,.23.03l8.15,4.76c.09.06.15.16.15.27,0,.1-.06.21-.16.27l-1.27.73v8.49c0,.11-.06.21-.16.27l-13.4,7.73s-.09.04-.15.04Z"/>
      <polygon class="cls-4" points="18.73 37.62 23.12 35.09 23.12 26.78 18.73 29.31 18.73 37.62"/>
      <path class="cls-2" d="M19.04,29.49v7.61l3.77-2.18v-7.6l-3.77,2.17h0ZM18.73,37.94c-.05,0-.1-.02-.15-.04-.09-.05-.15-.15-.15-.27v-8.31c0-.11.06-.22.16-.27l4.39-2.53c.1-.05.21-.06.31,0,.09.05.16.16.16.26v8.32c0,.11-.06.21-.16.27l-4.39,2.53c-.05.03-.1.04-.16.04Z"/>
      <path class="cls-3" d="M8.37,33.8v-2.68s-.03-.08-.05-.1l-1.75-1.01s-.05,0-.05.04v2.67s.03.08.05.1l1.75,1.01s.05,0,.05-.03Z"/>
      <path class="cls-2" d="M6.82,32.61l1.24.72v-2.09l-1.24-.71v2.09h0ZM8.35,33.83h.01-.01ZM8.34,34.14c-.07,0-.13-.02-.18-.04l-1.74-1.01c-.13-.08-.22-.22-.22-.37v-2.67c0-.11.08-.25.17-.3.1-.05.25-.05.35,0l1.75,1c.12.08.21.23.21.37v2.68c0,.11-.08.24-.17.3-.04.04-.11.04-.17.04Z"/>
      <polygon class="cls-3" points="21.67 18.73 10.26 12.14 18.74 17.08 30.15 23.67 21.67 18.73"/>
      <path class="cls-2" d="M30.15,23.98s-.11-.01-.16-.04h0s-11.41-6.59-11.41-6.59l-8.48-4.95c-.15-.09-.2-.28-.11-.42.09-.15.28-.2.42-.11l11.41,6.58h0s8.48,4.95,8.48,4.95c.15.09.2.28.11.42-.05.1-.16.15-.26.15Z"/>
      <polygon class="cls-3" points="30.15 23.67 31.66 22.8 21.67 16.98 11.75 34.28 13.25 33.42 21.67 18.73 30.15 23.67"/>
      <path class="cls-2" d="M21.78,17.41l-9.2,16.05.44-.26,8.39-14.61c.04-.08.1-.13.18-.15.09-.03.17,0,.23.03l8.33,4.85.89-.51-9.26-5.4h0ZM11.75,34.6c-.09,0-.16-.03-.21-.1-.11-.09-.12-.25-.05-.37l9.92-17.3c.04-.08.11-.13.19-.15.08-.03.17,0,.23.04l9.99,5.82c.09.05.15.16.15.26,0,.11-.06.21-.16.27l-1.5.87c-.1.05-.21.05-.3,0l-8.21-4.79-8.27,14.42s-.06.09-.11.11l-1.5.87s-.1.04-.15.04Z"/>
      <path class="cls-3" d="M10.99,35.3v-2.67s-.03-.08-.06-.09l-1.74-1.01s-.06-.01-.06.03v2.68s.03.08.06.1l1.74,1.01s.06,0,.06-.03Z"/>
      <path class="cls-2" d="M9.33,34.06h.01-.01ZM9.44,34.12l1.23.71v-2.09l-1.23-.72v2.09h0ZM10.97,35.34h0,0ZM10.95,35.64c-.06,0-.13-.01-.17-.04l-1.75-1c-.12-.08-.21-.22-.21-.37v-2.68c0-.1.07-.24.17-.3.09-.06.25-.05.35,0l1.75,1.01c.13.07.21.22.21.36v2.67c0,.11-.07.25-.16.3-.05.02-.11.03-.18.03Z"/>
      <polygon class="cls-3" points="21.67 16.98 10.26 10.39 .34 27.7 11.75 34.28 21.67 16.98"/>
      <path class="cls-2" d="M.76,27.59l10.88,6.28,9.61-16.78-10.88-6.27L.76,27.59h0ZM11.75,34.6c-.06,0-.11-.02-.15-.04L.18,27.97c-.15-.09-.2-.27-.11-.42L9.99,10.24c.04-.07.1-.12.18-.15.08-.02.17-.01.23.03l11.41,6.58c.15.09.19.28.12.43l-9.93,17.31c-.03.07-.1.12-.18.14-.03,0-.05.02-.08.02Z"/>
      <path class="cls-4" d="M16.37,20.81l-7.26-4.22c-.17-.1-.23-.32-.12-.5l2.08-3.54c.11-.17.33-.23.5-.13l7.26,4.22c.18.11.23.32.13.5l-2.09,3.54c-.1.17-.33.23-.51.13Z"/>
      <path class="cls-2" d="M11.39,12.67s-.04,0-.05.03l-2.09,3.54s0,.06.02.08l7.26,4.22h0s.06,0,.08-.02l2.09-3.54-.02-.07-7.26-4.22s-.02,0-.03,0h0ZM16.56,21.16c-.11,0-.23-.03-.34-.1l-7.25-4.22c-.16-.09-.27-.23-.31-.41-.04-.17-.02-.36.07-.51l2.09-3.54c.18-.32.6-.43.92-.24l7.25,4.22c.15.09.27.24.31.42.05.17.03.35-.07.5l-2.09,3.55c-.12.21-.35.33-.58.33Z"/>
      <path class="cls-2" d="M17.93,19.2c-.05,0-.11-.02-.15-.04l-7.9-4.56c-.15-.08-.2-.27-.11-.42.09-.15.27-.2.42-.12l7.9,4.56c.15.09.2.27.11.42-.05.1-.16.15-.26.15Z"/>
      <path class="cls-2" d="M12.68,18.93c-.05,0-.1-.02-.15-.04-.15-.09-.2-.27-.11-.42l2.34-4.05c.09-.15.27-.2.42-.11.15.09.2.28.11.43l-2.33,4.04c-.06.11-.17.16-.27.16Z"/>
      <path class="cls-2" d="M10.76,17.75c-.05,0-.1-.02-.16-.04-.15-.09-.2-.27-.11-.42l2.34-4.05c.08-.15.27-.19.42-.11.15.09.2.28.11.43l-2.34,4.04c-.05.11-.16.16-.26.16Z"/>
      <path class="cls-2" d="M14.67,20.11c-.05,0-.11,0-.15-.03-.15-.09-.2-.28-.11-.42l2.33-4.04c.09-.16.28-.2.42-.11.15.08.2.27.12.42l-2.34,4.05c-.06.09-.17.15-.27.15Z"/>
      <path class="cls-4" d="M13.3,26.14l-7.26-4.22c-.17-.1-.23-.32-.13-.5l2.09-3.54c.1-.17.32-.23.5-.13l7.26,4.22c.17.1.23.32.13.49l-2.09,3.55c-.09.17-.32.22-.5.13Z"/>
      <path class="cls-2" d="M6.2,21.66l7.26,4.22h0s.06,0,.08-.02l2.09-3.54-.03-.07-7.25-4.22s-.07,0-.09.03l-2.08,3.54-.14.34.16-.26h0ZM13.48,26.5c-.11,0-.23-.03-.34-.1l-7.26-4.21c-.15-.1-.26-.23-.31-.41-.04-.18-.02-.36.07-.51l2.09-3.54c.19-.32.6-.43.92-.24l7.26,4.22c.16.1.27.24.31.42.05.17.02.35-.07.5l-2.09,3.55c-.13.21-.36.33-.58.33Z"/>
      <path class="cls-2" d="M14.85,24.53c-.05,0-.11-.02-.16-.04l-7.9-4.56c-.15-.08-.19-.27-.11-.42.09-.15.28-.2.42-.11l7.9,4.56c.15.09.2.27.11.42-.06.11-.17.16-.27.16Z"/>
      <path class="cls-2" d="M9.6,24.26c-.05,0-.1-.02-.15-.04-.15-.09-.2-.27-.11-.42l2.33-4.05c.09-.15.28-.2.43-.11.15.09.2.28.11.43l-2.34,4.04c-.06.1-.16.15-.27.15Z"/>
      <path class="cls-2" d="M7.67,23.08s-.1-.02-.15-.04c-.15-.08-.19-.27-.11-.42l2.34-4.05c.09-.15.28-.2.42-.11.15.09.19.28.11.43l-2.34,4.04c-.06.11-.16.16-.27.16Z"/>
      <path class="cls-2" d="M11.6,25.45c-.05,0-.1-.01-.16-.04-.15-.09-.2-.28-.11-.42l2.34-4.04c.09-.16.27-.2.42-.11.15.08.2.27.12.42l-2.34,4.05c-.05.1-.16.15-.26.15Z"/>
      <path class="cls-4" d="M10.07,31.64l-7.26-4.22c-.18-.1-.24-.33-.13-.51l2.09-3.54c.1-.17.32-.24.5-.13l7.26,4.22c.18.11.24.33.13.51l-2.09,3.54c-.11.17-.32.23-.5.13Z"/>
      <path class="cls-2" d="M2.96,27.15l7.25,4.21s0,0,0,0c.03,0,.06,0,.08-.03l2.08-3.54-.02-.08-7.26-4.22s-.06,0-.08.02l-2.09,3.54-.13.35.15-.27h0ZM10.25,31.99c-.12,0-.24-.03-.34-.09l-7.26-4.22c-.16-.09-.27-.24-.31-.41-.04-.17-.02-.36.07-.51l2.09-3.54c.19-.32.6-.43.92-.24l7.26,4.22c.16.09.26.24.31.41.04.17.02.36-.07.51l-2.09,3.54c-.13.22-.36.33-.58.33Z"/>
      <path class="cls-2" d="M11.61,30.03c-.05,0-.11-.01-.16-.03l-7.9-4.56c-.15-.09-.2-.28-.11-.43.09-.15.28-.2.42-.11l7.9,4.56c.15.09.19.28.11.42-.06.1-.17.15-.27.15Z"/>
      <path class="cls-2" d="M6.36,29.76c-.05,0-.1,0-.15-.04-.15-.08-.2-.27-.11-.42l2.33-4.05c.09-.15.28-.19.43-.11.15.09.19.28.11.42l-2.34,4.04c-.06.11-.16.16-.27.16Z"/>
      <path class="cls-2" d="M4.44,28.58c-.05,0-.11,0-.16-.04-.15-.09-.19-.28-.12-.42l2.34-4.05c.09-.15.28-.19.42-.1.15.08.19.27.11.42l-2.33,4.05c-.06.1-.17.15-.27.15Z"/>
      <path class="cls-2" d="M8.36,30.95c-.05,0-.11-.02-.16-.05-.15-.09-.2-.28-.11-.43l2.34-4.04c.09-.15.27-.2.42-.11.15.09.2.27.11.42l-2.34,4.05c-.05.09-.16.16-.26.16Z"/>
    </g>
  </g>
</svg>