<?xml version="1.0" encoding="UTF-8"?>
<svg id="Layer_2" data-name="Layer 2" xmlns="http://www.w3.org/2000/svg" viewBox="0 0 26.48 36.82" fill="currentColor">
  <defs>
    <style>
      .cls-1 {
        fill: #fff;
      }

      .cls-1, .cls-2, .cls-3, .cls-4 {
        fill-rule: evenodd;
      }

      .cls-2 {
        fill: #1a87c7;
      }

      .cls-3 {
        fill: #bdedf8;
      }

      .cls-4 {
        fill: #66ceef;
      }
    </style>
  </defs>
  <g id="_Layer_" data-name="&amp;lt;Layer&amp;gt;">
    <g>
      <path class="cls-1" d="M7.66,28.74c3.08-1.78,8.08-1.78,11.17,0,3.08,1.78,3.08,4.67,0,6.45-3.09,1.78-8.09,1.78-11.17,0-3.09-1.78-3.09-4.67,0-6.45Z"/>
      <path class="cls-2" d="M13.24,27.72c-1.96,0-3.93.42-5.42,1.29-1.4.8-2.16,1.85-2.16,2.96s.76,2.15,2.16,2.96c3,1.73,7.87,1.73,10.87,0,1.4-.8,2.16-1.85,2.16-2.96s-.77-2.16-2.16-2.96c-1.5-.87-3.46-1.29-5.43-1.29h0ZM13.24,36.82c-2.08,0-4.15-.45-5.74-1.37-1.59-.92-2.47-2.15-2.47-3.49s.88-2.57,2.47-3.5c3.16-1.82,8.32-1.82,11.48,0,1.59.92,2.47,2.16,2.47,3.5s-.88,2.57-2.47,3.49c-1.58.91-3.66,1.37-5.75,1.37Z"/>
      <path class="cls-1" d="M.51,9.1h0c-.72-2.33.47-4.81,3.59-6.61C9.15-.43,17.33-.43,22.38,2.49c3.21,1.85,4.38,4.43,3.52,6.81h0v.03c-.03.05-.05.1-.07.15-.55,1.43-4.29,11.07-5.02,12.96-.14,1.01-.87,1.99-2.2,2.75-2.96,1.71-7.77,1.71-10.73,0-1.4-.81-2.14-1.85-2.22-2.91L.77,9.73c-.1-.2-.18-.41-.24-.62v-.02Z"/>
      <path class="cls-2" d="M.81,9h0c.06.21.14.41.24.6l4.9,12.56s.02.06.03.09c.07.99.8,1.94,2.06,2.67,2.87,1.66,7.55,1.66,10.42,0,1.2-.7,1.92-1.59,2.05-2.54.75-1.95,4.49-11.6,5.04-13.02l.05-.15c.85-2.35-.41-4.75-3.36-6.47C17.27-.11,9.22-.11,4.25,2.75,1.39,4.4.11,6.74.81,9h0ZM13.24,26.78c-2,0-4-.44-5.52-1.32-1.42-.82-2.26-1.92-2.37-3.11L.48,9.85c-.09-.2-.18-.42-.25-.64h0c-.79-2.58.6-5.17,3.73-6.98,5.13-2.96,13.47-2.96,18.59,0,3.23,1.87,4.6,4.56,3.65,7.18-.02.09-.05.14-.07.19-.55,1.41-4.29,11.06-5.03,12.95-.14,1.07-.97,2.12-2.33,2.91-1.53.88-3.53,1.32-5.53,1.32Z"/>
      <path class="cls-1" d="M14.13,26.45v2.57c-.14.63-1.66.62-1.78,0v-2.57c.59.03,1.19.03,1.78,0Z"/>
      <path class="cls-2" d="M12.66,26.77v2.24s.25.16.57.16h.01c.32,0,.56-.12.58-.22v-2.18c-.39.02-.78.02-1.17,0h0ZM13.25,29.78h-.02c-.63,0-1.1-.29-1.18-.71v-2.63c0-.09.03-.17.09-.23.06-.06.15-.09.24-.09.57.04,1.16.04,1.73,0,.08,0,.17.03.24.09.06.05.09.14.09.23v2.57c-.09.5-.56.77-1.19.77Z"/>
      <path class="cls-3" d="M7.88,19c2.96-1.71,7.77-1.71,10.73,0,2.97,1.7,2.97,4.48,0,6.19-2.96,1.71-7.77,1.71-10.73,0-2.97-1.7-2.97-4.48,0-6.19Z"/>
      <path class="cls-2" d="M7.88,19h0,0ZM13.24,18.02c-1.88,0-3.77.42-5.21,1.24h0c-1.34.77-2.07,1.78-2.07,2.83s.73,2.06,2.07,2.83c2.87,1.66,7.55,1.66,10.42,0,1.34-.78,2.07-1.77,2.07-2.83s-.74-2.06-2.07-2.83c-1.44-.83-3.33-1.24-5.22-1.24h0ZM13.24,26.78c-2,0-3.99-.44-5.52-1.32-1.53-.89-2.37-2.08-2.37-3.36s.84-2.48,2.38-3.36h0c3.04-1.76,7.99-1.76,11.03,0,1.54.89,2.38,2.08,2.38,3.36s-.84,2.48-2.37,3.36c-1.53.88-3.53,1.32-5.53,1.32Z"/>
      <path class="cls-3" d="M6.71,10.7c3.61-2.09,9.46-2.09,13.06,0,3.61,2.08,3.61,5.46,0,7.55-3.61,2.07-9.45,2.07-13.06,0-3.62-2.09-3.61-5.47,0-7.55Z"/>
      <path class="cls-2" d="M6.87,10.96c-1.65.96-2.56,2.2-2.56,3.51s.9,2.55,2.55,3.5c3.52,2.03,9.24,2.03,12.77,0,1.64-.95,2.55-2.2,2.55-3.5s-.9-2.56-2.55-3.51c-3.51-2.02-9.24-2.02-12.75,0h0ZM13.24,20.1c-2.42,0-4.84-.53-6.68-1.6-1.84-1.06-2.86-2.49-2.86-4.03s1.02-2.98,2.86-4.04h0c3.69-2.13,9.69-2.13,13.38,0,1.84,1.06,2.86,2.49,2.86,4.04s-1.02,2.97-2.86,4.03c-1.84,1.07-4.27,1.6-6.69,1.6Z"/>
      <path class="cls-3" d="M5.19,3.12C.75,5.69.74,9.85,5.19,12.42c4.44,2.56,11.65,2.56,16.11,0,4.45-2.57,4.44-6.73,0-9.3C16.84.55,9.64.55,5.19,3.12h0ZM4.1,2.49C9.15-.43,17.33-.43,22.38,2.49c5.05,2.91,5.06,7.64.01,10.56-5.05,2.91-13.25,2.91-18.3,0-5.05-2.92-5.04-7.65.01-10.56h0Z"/>
      <path class="cls-2" d="M5.35,3.39c-2.05,1.18-3.18,2.74-3.18,4.38s1.13,3.2,3.18,4.38c4.36,2.52,11.44,2.52,15.79,0,2.05-1.18,3.18-2.74,3.18-4.38s-1.13-3.2-3.18-4.38C16.78.88,9.7.88,5.35,3.39h0ZM13.24,14.64c-2.96,0-5.94-.65-8.2-1.95-2.25-1.3-3.49-3.05-3.49-4.92s1.23-3.62,3.49-4.91h0C9.56.24,16.92.24,21.44,2.86c2.25,1.29,3.5,3.04,3.5,4.91s-1.23,3.62-3.48,4.92c-2.27,1.3-5.24,1.95-8.22,1.95h0ZM4.25,2.75h0C9.22-.11,17.27-.11,22.23,2.75c2.34,1.35,3.63,3.14,3.63,5.01s-1.3,3.66-3.63,5.01c-4.95,2.86-13.03,2.86-17.98,0-2.35-1.35-3.63-3.13-3.63-5.01s1.29-3.66,3.63-5.01h0ZM13.24,15.54c-3.36,0-6.74-.74-9.3-2.22C1.4,11.85,0,9.88,0,7.77S1.4,3.69,3.95,2.22h0c5.13-2.96,13.47-2.96,18.59,0,2.55,1.47,3.95,3.44,3.95,5.55s-1.4,4.08-3.95,5.55c-2.56,1.49-5.93,2.22-9.3,2.22Z"/>
      <polygon class="cls-3" points="4.17 15.49 22.29 15.56 19.39 22.61 7.04 22.49 4.17 15.49"/>
      <path class="cls-2" d="M7.25,22.19l11.93.11,2.64-6.43-17.19-.06,2.62,6.38h0ZM19.39,22.92h0l-12.35-.12c-.12,0-.24-.07-.28-.19l-2.88-6.99c-.03-.1-.03-.21.03-.29.05-.09.15-.14.25-.14h0l18.11.06c.1,0,.2.05.26.14.05.09.06.19.02.29l-2.89,7.05c-.05.12-.17.19-.29.19Z"/>
      <path class="cls-3" d="M22.18,13.12c.8,1.77,0,3.73-2.41,5.12-3.61,2.07-9.45,2.07-13.06,0-2.41-1.39-3.21-3.35-2.42-5.12.06.03.11.07.17.1,4.84,2.79,12.71,2.79,17.55,0,.06-.03.11-.07.17-.1Z"/>
      <path class="cls-2" d="M22.18,13.12l.16.27-.16-.27h0ZM4.45,13.58c-.52,1.59.35,3.22,2.41,4.4,3.52,2.03,9.24,2.03,12.77,0,2.05-1.18,2.92-2.81,2.4-4.4-4.88,2.73-12.68,2.73-17.57,0h0ZM13.24,20.1c-2.42,0-4.84-.53-6.68-1.6-2.45-1.42-3.42-3.53-2.54-5.5.03-.09.1-.15.19-.17.09-.03.17-.02.25.03l.17.09c4.75,2.75,12.48,2.75,17.23,0l.11-.06c.07-.05.19-.08.28-.05.08.03.18.07.22.16.89,1.98-.09,4.08-2.54,5.5-1.84,1.07-4.27,1.6-6.69,1.6Z"/>
      <path class="cls-4" d="M8.81,19.34c2.45-1.41,6.42-1.41,8.87,0,2.44,1.42,2.44,3.71,0,5.12-2.45,1.42-6.42,1.42-8.87,0-2.45-1.41-2.44-3.7,0-5.12Z"/>
      <path class="cls-2" d="M8.96,19.61c-1.08.63-1.68,1.44-1.68,2.3s.6,1.67,1.68,2.3c2.36,1.36,6.2,1.36,8.56,0,1.08-.63,1.68-1.44,1.68-2.3s-.6-1.67-1.68-2.3c-2.36-1.36-6.2-1.36-8.56,0h0ZM13.24,25.82c-1.66,0-3.32-.36-4.59-1.09-1.28-.74-1.99-1.75-1.99-2.83s.71-2.09,2-2.83h0c2.53-1.46,6.64-1.46,9.17,0,1.29.75,1.99,1.75,1.99,2.83s-.7,2.09-1.99,2.83c-1.26.73-2.92,1.09-4.59,1.09Z"/>
      <path class="cls-3" d="M14.13,25.48c-.59.05-1.19.05-1.78,0v-3.34c.13.62,1.65.62,1.78,0v3.34Z"/>
      <path class="cls-2" d="M12.66,25.19c.38.02.78.02,1.16,0v-2.37c-.16.06-.37.09-.58.09h0c-.22,0-.41-.03-.57-.09v2.37h0ZM13.24,25.83c-.3,0-.61-.02-.91-.04-.16,0-.28-.14-.28-.3v-3.34c0-.16.12-.3.28-.31.17-.02.3.1.33.25.02.09.27.22.58.22h0c.32,0,.57-.12.59-.22.03-.16.17-.27.33-.24.16,0,.28.15.28.3v3.34c0,.17-.12.3-.29.3-.3.03-.61.04-.91.04Z"/>
      <path class="cls-4" d="M9.03,19.22c2.38-1.25,6.03-1.25,8.42,0-2.63.78-5.79.78-8.42,0Z"/>
      <path class="cls-2" d="M9.96,19.14c2.1.47,4.45.47,6.55,0-1.97-.73-4.57-.73-6.55,0h0ZM13.24,20.11c-1.47,0-2.94-.2-4.29-.6-.12-.03-.21-.14-.21-.26-.02-.13.05-.25.17-.3,2.48-1.3,6.22-1.3,8.7,0,.11.05.18.18.16.3,0,.12-.09.23-.21.26-1.35.4-2.82.6-4.3.6Z"/>
      <path class="cls-3" d="M12.61,21.73c.35-.2.91-.2,1.26,0,.35.2.35.53,0,.73-.35.2-.91.2-1.26,0-.35-.2-.35-.53,0-.73Z"/>
      <path class="cls-2" d="M12.77,22c-.08.04-.11.09-.11.09,0,.01.03.05.11.1.25.15.7.15.95,0,.08-.04.1-.09.1-.1,0,0-.03-.05-.1-.09-.25-.15-.69-.15-.95,0h0ZM13.24,22.92c-.28,0-.56-.07-.77-.2-.27-.15-.42-.37-.42-.63s.15-.48.41-.63h0c.44-.26,1.11-.26,1.56,0,.27.15.42.38.42.63s-.15.48-.42.63c-.22.13-.5.2-.78.2Z"/>
    </g>
  </g>
</svg>