<?xml version="1.0" encoding="UTF-8"?>
<svg id="Layer_2" data-name="Layer 2" xmlns="http://www.w3.org/2000/svg" viewBox="0 0 36.39 45.44" fill="currentColor">
  <defs>
    <style>
      .cls-1 {
        fill: #fff;
      }

      .cls-1, .cls-2, .cls-3, .cls-4 {
        fill-rule: evenodd;
      }

      .cls-2 {
        fill: #1a87c7;
      }

      .cls-3 {
        fill: #bdedf8;
      }

      .cls-4 {
        fill: #66ceef;
      }
    </style>
  </defs>
  <g id="_Layer_" data-name="&amp;lt;Layer&amp;gt;">
    <g>
      <path class="cls-4" d="M22.85,32.46l-9.35-5.41v5.68c0,.2.03.34.21.46l9.35,5.41c-.16-.12-.18-.26-.21-.46v-5.67Z"/>
      <path class="cls-2" d="M13.81,27.58l-.03,5.14c.03.16.05.17.08.2l8.67,5.01.03-5.3-8.75-5.05h0ZM23.06,38.9c-.05,0-.1-.01-.16-.04l-9.35-5.41c-.31-.21-.37-.46-.37-.71v-5.69c0-.11.05-.21.16-.27.11-.05.21-.05.31,0l9.35,5.41c.1.06.16.16.16.27v5.67c0,.16.03.17.08.2.13.09.18.28.08.42-.05.09-.16.14-.26.14Z"/>
      <path class="cls-3" d="M35.89,12.56l-7.18-4.13c-.18-.09-.31-.04-.5.05l-11.82,6.81c-.24.15-.34.3-.5.53l7.15,4.13c.16-.23.29-.38.52-.53l10.82-6.25.97-.56c.18-.09.31-.14.52-.05Z"/>
      <path class="cls-2" d="M16.35,15.72l6.63,3.82c.11-.14.23-.26.42-.38l11.66-6.72-6.5-3.75s-.05-.02-.18.06l-11.82,6.81c-.08.05-.13.1-.21.17h0ZM23.06,20.26c-.05,0-.1-.02-.13-.04l-7.18-4.13c-.08-.04-.13-.11-.13-.19-.03-.08-.03-.17.03-.24.16-.24.31-.44.6-.63l11.82-6.82c.24-.12.5-.21.79-.06l7.2,4.14c.13.08.18.26.1.41-.08.14-.26.2-.39.13-.05-.02-.08-.04-.24.04l-11.79,6.81c-.18.1-.26.21-.39.42-.08.1-.18.15-.29.15Z"/>
      <path class="cls-4" d="M13.49,23.52v3.53l9.35,5.41v-11.85c.03-.28.08-.46.21-.7l-7.15-4.09-2.41,7.7Z"/>
      <path class="cls-2" d="M13.81,26.87l8.75,5.05v-11.31c0-.23.05-.41.11-.57l-6.58-3.76-2.28,7.29v3.31h0ZM22.85,32.77c-.05,0-.1-.02-.13-.04l-9.38-5.41c-.11-.06-.16-.16-.16-.26v-3.53s0-.06.03-.09l2.41-7.7c.03-.09.08-.16.18-.2.08-.03.18-.03.26.02l7.15,4.09c.16.08.21.27.13.42-.13.22-.16.36-.18.56v11.83c0,.11-.05.21-.16.27-.05.03-.11.04-.16.04Z"/>
      <path class="cls-1" d="M22.85,32.86v5.27c0,.23.08.38.21.46.13.07.31.06.5-.05l11.82-6.81c.21-.11.37-.31.5-.53.13-.22.21-.47.21-.7l.03-5.27-.18.09v-.41l.18-.09v-11.84c0-.23-.08-.39-.21-.46-.13-.07-.31-.06-.52.05l-.97.56-10.82,6.25h0c-.21.11-.39.31-.52.53-.1.23-.21.47-.21.7v11.85l.18-.09v.41l-.18.09Z"/>
      <path class="cls-2" d="M23.16,33.04v5.09c0,.13.03.18.05.19.03.01.11,0,.21-.05l11.79-6.81c.16-.08.29-.24.39-.42.11-.19.18-.39.18-.55v-4.91h0c-.11-.06-.16-.16-.16-.27v-.41c0-.11.05-.21.13-.27h.03v-11.66c0-.13-.05-.18-.05-.19-.03-.01-.11,0-.21.05l-11.79,6.81c-.16.08-.29.23-.39.42-.1.19-.18.38-.18.55v11.48s0,0,.03,0c.08.06.13.16.13.27v.41c0,.11-.05.21-.13.27h-.03ZM23.24,38.94c-.1,0-.24-.03-.34-.09-.24-.13-.37-.4-.37-.72l.03-5.27c0-.07.03-.15.08-.2-.05-.06-.08-.13-.08-.2v-11.85c0-.27.08-.57.24-.85.16-.28.39-.5.63-.64l11.82-6.81c.26-.17.58-.18.81-.05.21.13.34.4.34.73v11.84c0,.08-.03.15-.08.2.05.06.08.13.08.21v5.27c0,.27-.08.57-.24.85-.16.28-.39.51-.63.64l-11.82,6.82c-.16.09-.31.14-.47.14Z"/>
      <path class="cls-1" d="M22.85,32.46v5.67c0,.22.08.38.21.46.13.07.31.06.5-.05l11.82-6.81c.21-.11.37-.31.5-.53.13-.22.21-.47.21-.7l.03-5.68-13.26,7.64Z"/>
      <path class="cls-2" d="M23.16,32.63v5.5c0,.12.03.18.05.19.03.01.11,0,.21-.05l11.79-6.81c.16-.08.29-.24.39-.42.11-.19.18-.39.18-.55v-5.15l-12.63,7.29h0ZM23.24,38.94c-.1,0-.24-.03-.34-.09-.24-.13-.37-.4-.37-.72l.03-5.67c0-.11.05-.21.16-.27l13.23-7.64c.08-.06.21-.06.29,0,.1.05.16.16.16.27v5.68c0,.27-.08.57-.24.85-.16.28-.39.51-.63.64l-11.82,6.82c-.16.09-.31.14-.47.14Z"/>
      <path class="cls-1" d="M22.85,20.71v11.74l13.26-7.64v-11.84c0-.45-.34-.64-.73-.41l-.97.56-10.69,6.17c-.55.31-.86.75-.86,1.41Z"/>
      <path class="cls-2" d="M22.85,20.71h.03-.03ZM35.68,12.78s-.08.02-.16.06l-11.66,6.73c-.47.28-.71.64-.71,1.15v11.21l12.63-7.28v-11.66c0-.12-.03-.18-.05-.19-.03,0-.03,0-.05,0h0ZM22.85,32.76c-.05,0-.1-.01-.13-.04-.1-.06-.16-.16-.16-.26v-11.74c0-.74.31-1.29,1-1.68l11.69-6.73c.26-.16.58-.18.81-.05.21.13.34.4.34.73v11.84c0,.11-.05.21-.16.27l-13.23,7.64c-.05.03-.11.04-.16.04Z"/>
      <path class="cls-4" d="M31.6,19.12c-.39-.24-1-.21-1.62.16-.63.37-1.23,1.01-1.65,1.73-.42.73-.68,1.55-.68,2.29s.26,1.26.68,1.5c.42.24,1.02.21,1.65-.16.63-.37,1.23-1.01,1.62-1.73h.03c.42-.73.68-1.55.68-2.29s-.26-1.25-.68-1.49h-.03Z"/>
      <path class="cls-2" d="M31.02,19.28c-.29,0-.58.09-.89.28-.58.33-1.13.91-1.55,1.62-.39.71-.63,1.47-.63,2.14,0,.6.18,1.04.52,1.24.34.19.81.14,1.34-.16.58-.33,1.13-.91,1.52-1.62,0,0,.03-.01.03-.02.39-.7.63-1.46.63-2.11,0-.59-.18-1.03-.52-1.23l.13-.27-.13.27c-.13-.08-.29-.11-.45-.11h0ZM28.92,25.27c-.26,0-.52-.06-.76-.2-.52-.31-.81-.94-.81-1.77,0-.77.24-1.64.71-2.44.47-.81,1.1-1.46,1.76-1.85.71-.41,1.42-.47,1.94-.16h.03c.52.33.81.96.81,1.77,0,.77-.24,1.64-.71,2.44,0,0-.03.02-.03.02-.47.79-1.07,1.44-1.73,1.82-.42.24-.81.36-1.21.36Z"/>
      <path class="cls-1" d="M27.14,15.61c.37-.22.73-.56.76-1.02v-3.07c-.03.36-.21.63-.5.85-.65.51-1.68.66-2.46.6-.73-.06-1.65-.33-2.07-.95-.11-.15-.16-.31-.16-.49v3.07c0,.49.45.87.86,1.08,1,.52,2.51.52,3.51-.03l.05-.03Z"/>
      <path class="cls-2" d="M23.03,12.61v1.98c0,.33.34.63.68.8.92.48,2.31.47,3.22-.02l.21.24-.16-.26c.26-.16.6-.42.6-.77v-1.97h0c-.73.59-1.89.73-2.67.66-.34-.03-1.26-.15-1.89-.66h0ZM25.31,16.36c-.68,0-1.34-.14-1.89-.43-.29-.16-1-.6-1.02-1.34v-3.08c0-.17.13-.3.29-.31.18-.03.31.13.31.29.03.12.05.23.13.34.34.52,1.18.76,1.83.82.66.05,1.62-.05,2.23-.53.26-.2.37-.39.39-.63.03-.16.13-.3.31-.29.16,0,.29.14.29.31v3.07c0,.51-.31.95-.89,1.29,0,0,0,0-.03,0l-.03.02c-.58.3-1.26.46-1.94.46Z"/>
      <path class="cls-3" d="M12.84,26.91c.55-.33,1.36-.29,2.23.22.89.51,1.68,1.38,2.25,2.37.58,1,.94,2.12.94,3.14s-.37,1.72-.94,2.06c-.58.33-1.36.29-2.25-.22-.86-.51-1.68-1.38-2.23-2.37-.58-1-.94-2.12-.94-3.14s.37-1.73.94-2.06Z"/>
      <path class="cls-2" d="M13.65,27c-.24,0-.47.06-.65.17h0c-.52.29-.79.93-.79,1.8,0,.93.31,1.98.89,2.98.58,1,1.34,1.8,2.12,2.26.76.44,1.44.51,1.94.22.52-.29.79-.93.79-1.79,0-.93-.31-1.99-.89-2.98-.58-.99-1.34-1.8-2.15-2.26-.45-.26-.86-.4-1.26-.4h0ZM16.51,35.22c-.5,0-1.05-.16-1.6-.48-.89-.52-1.73-1.4-2.36-2.49-.63-1.09-.97-2.26-.97-3.29,0-1.1.39-1.92,1.1-2.33.68-.4,1.6-.32,2.54.22.92.52,1.73,1.4,2.36,2.49.66,1.09,1,2.26,1,3.29,0,1.09-.39,1.92-1.1,2.32-.29.17-.63.25-.97.25Z"/>
      <path class="cls-4" d="M15.85,33.89c-2.67-1.69-4.14-5.9-2.17-7.26l-.76.44c-1.89,1.2-.52,4.92,1.26,6.58,1.65,1.54,2.51,1.2,3.83.46-.81.38-1.39.18-2.15-.21h0ZM12,25.5c4.43-2.55,10.56,8.07,6.13,10.61,3.96-2.5-1.97-12.78-6.13-10.61h0Z"/>
      <path class="cls-2" d="M12.52,27.94c-.11.22-.16.47-.18.76-.13,1.42.79,3.54,2.04,4.72.79.73,1.34,1.01,1.89,1.01h0c-.18-.08-.39-.17-.58-.27,0,0-.03,0-.03-.01-1.78-1.13-3.14-3.47-3.2-5.43,0-.27.03-.54.05-.78h0ZM16.27,35.05c-.68,0-1.39-.32-2.3-1.17-1.23-1.15-2.41-3.42-2.25-5.23.08-.82.45-1.45,1.05-1.83l.76-.45c.16-.08.34-.04.42.1.11.14.05.33-.08.42-.65.46-.79,1.24-.79,1.82.05,1.77,1.31,3.88,2.91,4.92.76.39,1.23.51,1.89.2.16-.07.31-.01.39.14.08.15.03.33-.11.41-.68.38-1.26.68-1.89.68h0ZM18.13,36.42c-.11,0-.18-.05-.26-.15-.08-.14-.03-.33.1-.42,1.86-1.18,1.23-4.28-.13-6.65-1.36-2.37-3.72-4.46-5.69-3.43-.16.08-.34.02-.42-.12-.08-.15-.03-.33.13-.42,1.1-.63,2.36-.57,3.67.18,2.41,1.4,4.45,4.93,4.45,7.71-.03,1.5-.6,2.63-1.7,3.26-.05.03-.1.04-.16.04Z"/>
      <path class="cls-4" d="M15.06,27.28c-.84-.49-1.6-.53-2.15-.22-.55.32-.89,1-.89,1.98s.34,2.05.89,3.01,1.31,1.79,2.15,2.28c.86.49,1.6.54,2.17.22.55-.32.89-1,.89-1.98s-.34-2.05-.89-3c-.58-.96-1.31-1.79-2.17-2.28h0ZM12,25.5c.81-.45,1.89-.39,3.07.3,1.2.69,2.28,1.88,3.07,3.23.79,1.36,1.28,2.89,1.28,4.27s-.5,2.35-1.28,2.8c-.79.45-1.86.39-3.07-.3-1.18-.69-2.25-1.88-3.07-3.23-.79-1.36-1.26-2.89-1.26-4.27s.47-2.35,1.26-2.8h0Z"/>
      <path class="cls-2" d="M13.7,27.17c-.24,0-.45.05-.63.16-.47.27-.73.88-.73,1.71,0,.89.29,1.9.84,2.85.55.95,1.28,1.72,2.04,2.17.73.41,1.39.49,1.86.21.47-.27.73-.88.73-1.71,0-.89-.31-1.9-.86-2.85-.52-.95-1.26-1.72-2.04-2.16h0c-.42-.25-.84-.38-1.21-.38h0ZM16.45,35.05c-.5,0-1-.15-1.54-.46-.84-.5-1.65-1.35-2.25-2.39-.6-1.04-.94-2.17-.94-3.16,0-1.06.37-1.85,1.05-2.24.68-.39,1.55-.31,2.46.22.86.5,1.68,1.35,2.28,2.39.6,1.05.94,2.17.94,3.16,0,1.06-.39,1.85-1.05,2.24-.29.17-.6.24-.94.24h0ZM12.16,25.77h0c.73-.42,1.7-.31,2.75.3,1.13.64,2.17,1.75,2.96,3.12.79,1.37,1.23,2.83,1.23,4.12s-.39,2.12-1.1,2.54c-.73.42-1.7.31-2.78-.3-1.1-.64-2.15-1.75-2.93-3.12-.81-1.37-1.23-2.83-1.23-4.12s.39-2.12,1.1-2.54h0ZM17,36.71c-.63,0-1.36-.21-2.1-.64-1.18-.69-2.31-1.88-3.17-3.35-.84-1.46-1.31-3.04-1.31-4.42s.52-2.54,1.44-3.07h0c.92-.53,2.1-.42,3.35.3,1.21.7,2.33,1.88,3.2,3.35.84,1.46,1.31,3.03,1.31,4.42s-.52,2.54-1.44,3.07c-.37.22-.81.33-1.28.33Z"/>
      <path class="cls-4" d="M.29,34.96v1.94c.03.32.21.51.5.67l12.42,7.29c.71.37,1.6.38,2.31.02l2.33-1.32c.26-.16.47-.33.47-.66v-1.93c0,.33-.21.5-.47.66l-2.33,1.32c-.71.36-1.6.36-2.31-.02L.79,35.62c-.26-.16-.47-.34-.5-.67Z"/>
      <path class="cls-2" d="M.6,35.89v1.01c0,.13.05.24.34.4l12.42,7.29c.6.31,1.39.32,1.99,0l2.33-1.31c.24-.14.31-.24.31-.41v-1h0s-2.36,1.33-2.36,1.33c-.79.42-1.78.41-2.57-.01L.63,35.89s-.03,0-.03,0h0ZM14.36,45.44c-.45,0-.89-.11-1.28-.32L.63,37.82c-.29-.17-.63-.43-.63-.92v-1.94c0-.17.13-.31.29-.31H.29c.18,0,.31.13.31.3,0,.14.05.25.34.41l12.42,7.29c.6.31,1.39.32,1.99,0l2.33-1.31c.26-.16.31-.27.31-.41.03-.17.16-.31.31-.29.18,0,.31.14.31.31v1.93c-.03.51-.34.76-.63.93l-2.36,1.32c-.39.21-.84.31-1.28.31Z"/>
      <path class="cls-3" d="M3.12,32.98l-2.33,1.32c-.63.36-.65.95,0,1.33l12.42,7.29c.31.19.73.28,1.15.28.42,0,.84-.09,1.15-.27l2.33-1.32c.65-.37.63-.96,0-1.33-4.14-2.43-8.28-4.86-12.42-7.29-.63-.37-1.68-.38-2.31-.02Z"/>
      <path class="cls-2" d="M4.24,33.02c-.34,0-.71.08-.97.23h0l-2.33,1.32c-.21.12-.34.26-.34.39s.13.28.34.4l12.42,7.29c.26.15.63.24,1,.24.39,0,.73-.08,1-.22l2.33-1.32c.21-.12.34-.26.34-.39s-.13-.28-.34-.4l-12.42-7.29c-.29-.16-.66-.24-1.02-.24h0ZM14.38,43.5h-.03c-.5,0-.97-.12-1.31-.32L.63,35.89c-.42-.24-.63-.57-.63-.94s.24-.69.63-.93l2.33-1.32c.73-.42,1.89-.41,2.62.02l12.42,7.29c.42.24.63.57.63.93s-.24.69-.63.93l-2.36,1.32c-.34.2-.79.3-1.26.3Z"/>
      <path class="cls-1" d="M25.31,12.98c.65,0,1.31-.15,1.83-.44.5-.29.76-.68.76-1.06s-.26-.77-.76-1.06c-.52-.29-1.18-.44-1.83-.44s-1.34.15-1.83.44c-.52.29-.76.68-.76,1.06s.24.77.76,1.06c.5.29,1.15.44,1.83.44Z"/>
      <path class="cls-2" d="M25.31,10.29c-.65,0-1.26.14-1.68.4-.39.23-.63.51-.63.79s.24.57.63.79c.86.51,2.46.51,3.35,0,.39-.23.6-.51.6-.79s-.21-.57-.6-.79c-.45-.25-1.05-.4-1.68-.4h0ZM25.31,13.28c-.76,0-1.47-.17-1.99-.48-.6-.34-.92-.81-.92-1.33s.31-.99.92-1.33c1.07-.62,2.91-.62,3.98,0,.58.34.89.81.89,1.33s-.31.99-.89,1.33c-.55.31-1.26.48-1.99.48Z"/>
      <path class="cls-4" d="M23.55,11.12c0,1.28,3.38,1.28,3.38,0v-2c.03-11.38-18.84-13.27-18.84,3.48v25.6c.11,1.13,2.96.79,3.3-.23V12.37c0-10.96,11.89-10.41,12.08-3.06.03.33.08,1.46.08,1.81Z"/>
      <path class="cls-2" d="M17.95.62c-1.55,0-3.09.39-4.45,1.16-3.27,1.89-5.08,5.73-5.08,10.82v25.6c.03.27.47.36.66.38.81.11,1.83-.24,2.04-.67V12.37c0-5.98,3.41-8.7,6.81-8.74,2.83-.02,5.79,1.9,5.87,5.67,0,.13.03.39.03.68.03.43.05.93.05,1.14h0c0,.41.68.65,1.36.65s1.39-.24,1.39-.65v-2.01c0-3.11-1.49-5.77-4.11-7.28-1.39-.81-2.96-1.21-4.56-1.21h0ZM9.35,39.21c-.13,0-.24,0-.37-.02-.71-.09-1.15-.44-1.18-.96V12.6c0-5.32,1.91-9.35,5.37-11.35,2.91-1.68,6.71-1.66,9.64.05,2.83,1.63,4.43,4.48,4.43,7.82v2c0,.87-1.05,1.27-2.02,1.27s-1.99-.39-1.99-1.27h0c0-.21-.03-.69-.03-1.12-.03-.29-.03-.55-.03-.69-.1-3.34-2.67-5.07-5.19-5.07-.03,0-.05,0-.08,0-3.09.04-6.21,2.56-6.21,8.12v25.6s0,.07-.03.1c-.26.76-1.44,1.14-2.33,1.14Z"/>
    </g>
  </g>
</svg>