<?xml version="1.0" encoding="UTF-8"?>
<svg id="Layer_2" data-name="Layer 2" xmlns="http://www.w3.org/2000/svg" viewBox="0 0 33.12 46.49" fill="currentColor">
  <defs>
    <style>
      .cls-1 {
        fill: #fff;
      }

      .cls-1, .cls-2, .cls-3, .cls-4 {
        fill-rule: evenodd;
      }

      .cls-2 {
        fill: #1a87c7;
      }

      .cls-3 {
        fill: #bdedf8;
      }

      .cls-4 {
        fill: #66ceef;
      }
    </style>
  </defs>
  <g id="_Layer_" data-name="&amp;lt;Layer&amp;gt;">
    <g>
      <path class="cls-4" d="M32.8,32.26v-4.62c0-3.7-4.56-5.04-7.72-5.32-.29.6-.59,1.2-.9,1.78.82,1.96-2.09,4.83-5.09,5.96-2.21.82-4.57.5-6.73-.34-2.29-.88-3.68-2.13-3.46-3.27-1.58,2.05-3.77,3.59-5.52,5.49-1.07,1.2-1.89,2.25-2.56,3.74-.38,1.02-.51,1.7-.51,2.79,0,1.16,0,2.31-.01,3.47,0,1.39.18,1.76,1.69,2.63,11.68,6.75,30.81-9.59,30.81-12.32Z"/>
      <path class="cls-2" d="M32.8,32.26h0,0ZM8.67,27.24c-.84.97-1.79,1.83-2.72,2.67-.79.71-1.61,1.46-2.34,2.25-1.1,1.24-1.87,2.24-2.49,3.65-.37.99-.5,1.62-.5,2.67v3.47c0,1.27.11,1.54,1.54,2.36,6.51,3.76,15.05-.05,19.57-2.65,6.33-3.66,10.77-8.28,10.77-9.4v-4.62c0-3.96-5.62-4.82-7.22-4.99-.24.5-.49.99-.75,1.48.2.57.14,1.21-.16,1.9-.73,1.68-2.85,3.46-5.15,4.32-2.07.76-4.41.65-6.95-.34-1.98-.77-3.25-1.77-3.58-2.77h0ZM8.4,46.49c-2.26,0-4.5-.47-6.56-1.65-1.57-.91-1.84-1.35-1.84-2.9v-3.47c0-1.13.13-1.83.54-2.9.67-1.5,1.46-2.54,2.62-3.83.75-.82,1.57-1.56,2.38-2.29,1.1-.99,2.23-2.01,3.12-3.18.1-.1.24-.15.38-.09.13.06.2.2.17.34-.18.94,1.11,2.09,3.27,2.92,2.41.94,4.6,1.05,6.51.34,2.13-.8,4.15-2.48,4.81-3.99.25-.6.29-1.12.1-1.56-.03-.09-.03-.18.01-.27.32-.58.61-1.17.91-1.77.05-.11.18-.17.3-.17,3.86.33,8,1.98,8,5.62v4.62h0c0,1.6-4.95,6.39-11.08,9.93-3.23,1.86-8.46,4.31-13.62,4.31Z"/>
      <path class="cls-1" d="M8.9,26.45c.24-.3.94-1.02,1.13-1.35.38-.63.36-.89.44-1.63,3.23,3.73,10.79,5.91,13.71.63h0c.82,1.96-2.09,4.83-5.09,5.96-2.21.82-4.57.5-6.73-.34-2.29-.88-3.68-2.13-3.46-3.27Z"/>
      <path class="cls-2" d="M9.2,26.58c-.1.92,1.17,2.03,3.28,2.85,2.41.94,4.6,1.05,6.51.34,2.13-.8,4.15-2.48,4.81-3.99.12-.3.2-.57.22-.84-1.06,1.48-2.61,2.36-4.53,2.55-2.93.31-6.51-1.07-8.77-3.33-.05.35-.14.63-.41,1.09-.14.23-.45.58-.75.93-.14.15-.26.29-.35.39h0ZM16.35,30.85c-1.29,0-2.67-.28-4.1-.84-2.53-.98-3.9-2.33-3.64-3.62,0-.04.03-.09.06-.13.09-.11.24-.29.42-.48.26-.3.58-.65.69-.84.3-.5.32-.72.37-1.28l.03-.24c0-.12.09-.22.21-.26.12-.03.25,0,.33.1,2.09,2.41,5.73,3.94,8.71,3.62,1.99-.21,3.54-1.22,4.49-2.94.06-.11.17-.18.28-.16.12,0,.23.08.27.18.25.61.22,1.29-.1,2.05-.73,1.68-2.85,3.46-5.15,4.32-.9.34-1.85.5-2.85.5Z"/>
      <path class="cls-2" d="M16.39,32.7c-2.24,0-4.71-.67-6.74-1.88-1.23-.73-2.1-1.58-2.57-2.52-.08-.16,0-.34.14-.42.16-.07.34-.01.42.14.41.83,1.19,1.6,2.32,2.27,2.38,1.41,5.39,2.06,7.83,1.69,1.56-.23,3.11-.89,4.6-1.94,1.53-1.09,4-3.33,3.37-6.13-.13-.57-.42-1.2-.72-1.31-.17-.05-.24-.23-.19-.39.05-.16.23-.24.39-.19.73.26,1.04,1.41,1.12,1.76.7,3.16-1.96,5.59-3.62,6.76-1.56,1.11-3.2,1.8-4.86,2.05-.49.07-.98.1-1.5.1Z"/>
      <path class="cls-1" d="M22.39,26.63c1.22-1.17,2.21-3.31,3.16-5.25,1.29-2.66,1.23-5.69,1.24-8.14l-.44-1.45c-.16-.6-.17-1.23-.18-1.84-.02-.79-.03-1.53-.44-1.9-.65-.6-1.69.32-2.9,1.39-.83.74-1.73,1.53-2.7,2.09-.98.57-1.89.81-2.71,1.03h0c-.8.22-1.52.41-2.11.9-.91.77-.87,1.39-.85,2.49.02,1.04.07,2.06-.57,4.27-.11-.76-.32-1.58-.73-2.24-.34-.55-.86-1.02-1.53-1.08-1.77,0-2.22,1.93-1.9,3.31.17.74.58,1.59.92,2.22.11.21-.03.76-.13,1.07,2.33,2.63,5.71,4.44,8.4,4.44,1.2,0,2.61-.5,3.49-1.33Z"/>
      <path class="cls-2" d="M10.86,23.44c2.28,2.52,5.49,4.21,8.04,4.21h0c1.18,0,2.5-.5,3.27-1.25h0c1.11-1.06,2.02-2.94,2.91-4.78l.19-.38c1.19-2.43,1.2-5.28,1.21-7.56v-.39s-.43-1.4-.43-1.4c-.17-.65-.18-1.29-.2-1.92,0-.73-.03-1.41-.34-1.69-.44-.42-1.44.46-2.49,1.39-.82.73-1.75,1.55-2.75,2.13-1,.57-1.94.83-2.76,1.05,0,.01-.02.01-.03.01-.78.21-1.45.39-1.99.84-.77.65-.76,1.12-.75,2.15v.27c.02,1.02.04,2.06-.57,4.2-.04.14-.16.24-.32.23-.14,0-.26-.12-.28-.27-.13-.87-.36-1.59-.69-2.12-.2-.33-.64-.88-1.29-.94-.49,0-.89.19-1.18.56-.51.63-.56,1.65-.39,2.38.12.56.42,1.29.89,2.16.12.22.11.6-.05,1.13h0ZM18.9,28.26c-2.76,0-6.22-1.82-8.61-4.55-.08-.08-.1-.19-.06-.3.14-.45.16-.75.15-.83-.5-.91-.81-1.69-.95-2.3-.19-.81-.17-2.05.51-2.9.41-.51.99-.78,1.69-.78.7.05,1.33.48,1.79,1.22.19.31.36.67.49,1.08.27-1.25.25-2.02.24-2.77v-.27c-.03-1.03-.03-1.79.96-2.63.63-.54,1.39-.75,2.2-.96.01,0,.02,0,.03,0,.84-.23,1.69-.45,2.64-1,.95-.55,1.81-1.31,2.65-2.05,1.32-1.16,2.46-2.17,3.32-1.39.51.47.52,1.27.54,2.12.02.6.03,1.22.17,1.77l.44,1.44s0,.06,0,.09v.43c0,2.35-.03,5.27-1.28,7.83l-.18.38c-.91,1.88-1.86,3.83-3.03,4.95h0c-.9.86-2.35,1.42-3.7,1.42h0Z"/>
      <path class="cls-3" d="M7.55,6.64c-2.15,3.94-.79,14.71,2.91,17.05.07-.2.32-.98.18-1.23-.34-.63-.76-1.49-.92-2.22-.81-3.56,3.42-5.22,4.16,0,.63-2.21.58-3.23.57-4.27-.02-1.11-.06-1.73.85-2.49.59-.5,1.31-.69,2.11-.9h0c.83-.23,1.73-.47,2.71-1.03.97-.56,1.88-1.35,2.7-2.09,1.22-1.07,2.25-1.99,2.9-1.39.41.37.43,1.11.44,1.9.01.61.03,1.24.18,1.84l.44,1.45c.12-1.91.08-4.13-.18-5.94-.51-3.52-2.09-3.65-6.42-5.95-.69-.36-1.59-.97-2.93-1.02-3.27-.09-8.11,3.7-9.72,6.3Z"/>
      <path class="cls-2" d="M7.82,6.79c-2.01,3.69-.83,13.72,2.48,16.39.06-.26.11-.51.08-.6-.5-.91-.81-1.69-.95-2.3-.29-1.27.02-2.49.8-3.18.55-.49,1.28-.63,1.93-.38.49.17,1.27.69,1.75,2.18.27-1.25.25-2.02.24-2.77v-.27c-.03-1.03-.03-1.79.96-2.63.63-.54,1.39-.75,2.2-.96.01,0,.02,0,.03,0,.84-.23,1.69-.45,2.64-1,.95-.55,1.81-1.31,2.65-2.05,1.32-1.16,2.46-2.17,3.32-1.39.51.47.52,1.27.54,2.12.01.44.02.89.08,1.31,0-1.4-.08-2.76-.24-3.91-.41-2.77-1.47-3.3-4.31-4.72-.57-.29-1.23-.61-1.95-.99l-.3-.17c-.63-.35-1.41-.78-2.5-.81h-.12c-3.15,0-7.8,3.69-9.32,6.14h0ZM10.46,23.98c-.06,0-.11-.02-.17-.04-3.84-2.42-5.24-13.36-3.02-17.45h0C8.94,3.81,13.87-.07,17.27.03c1.23.03,2.13.53,2.78.9l.29.15c.72.38,1.36.7,1.94.99,2.88,1.43,4.19,2.09,4.64,5.17.25,1.74.32,3.93.18,6.01,0,.15-.12.27-.27.29-.15.02-.29-.07-.33-.21l-.44-1.45c-.17-.65-.18-1.29-.2-1.92,0-.73-.03-1.41-.34-1.69-.44-.42-1.44.46-2.49,1.39-.82.73-1.75,1.55-2.75,2.13-1,.57-1.94.83-2.76,1.05,0,.01-.02.01-.03.01-.78.21-1.45.39-1.99.84-.77.65-.76,1.12-.75,2.15v.27c.02,1.02.04,2.06-.57,4.2-.04.14-.16.24-.32.23-.14,0-.26-.12-.28-.27-.22-1.59-.83-2.67-1.63-2.98-.45-.16-.92-.07-1.31.28-.49.42-.9,1.32-.61,2.58.12.56.42,1.29.89,2.16.23.43-.15,1.44-.17,1.49-.04.09-.1.15-.19.18-.03,0-.07,0-.1,0Z"/>
      <path class="cls-4" d="M16.65,16.09c1.56-1.95,1.43-2.8,3.76-4.14,2.64-1.52,5.27-2.37,6.66-1.94.07-4.4-2.09-7.68-6-9.02-3.93-1.35-7.71-.68-10.99,1.8-2.6,1.95-5.33,7.84-3.47,11.33,1.34,1.28,5.09,2.76,7.05,2.69,1.39-.05,2.63-.36,2.99-.72Z"/>
      <path class="cls-2" d="M16.65,16.09h.01-.01ZM6.86,13.93c1.36,1.26,5.01,2.65,6.8,2.58,1.39-.05,2.49-.36,2.77-.63.47-.59.78-1.09,1.06-1.51.64-1,1.1-1.72,2.77-2.69,2.66-1.52,5.05-2.26,6.5-2.05-.06-4.08-2.16-7.1-5.79-8.35C17.2,0,13.5.6,10.27,3.04c-2.58,1.95-5.12,7.59-3.41,10.89h0ZM13.53,17.13c-2,0-5.73-1.44-7.13-2.78-.03-.03-.04-.05-.06-.08-1.89-3.55.8-9.64,3.56-11.72C13.3-.02,17.19-.67,21.17.7c4.01,1.37,6.28,4.77,6.21,9.32,0,.1-.05.19-.13.24-.08.06-.17.07-.27.04-1.23-.38-3.69.35-6.42,1.91-1.54.88-1.94,1.51-2.55,2.48-.28.44-.62.96-1.11,1.58,0,0-.02.02-.02.02-.5.51-1.96.77-3.2.83h-.15Z"/>
      <path class="cls-4" d="M19.61,20.43l-5.08-2.93-.87-.69c2.48-3.1,9.12-7.72,12.82-7.38l5.15,2.94c-3.87-.4-10.53,4.41-12.89,7.37l.86.69Z"/>
      <path class="cls-2" d="M14.11,16.77l.62.48,3.84,2.22c2.15-2.63,7.84-6.95,11.93-7.4l-4.11-2.35c-3.52-.24-9.71,3.98-12.28,7.04h0ZM19.61,20.73c-.05,0-.1,0-.15-.04l-5.07-2.93-.9-.7c-.07-.05-.11-.12-.12-.21,0-.08.02-.17.07-.23,2.54-3.19,9.29-7.84,13.08-7.5.04.01.09.02.13.05l5.14,2.94c.13.07.18.22.14.36-.04.13-.17.23-.32.21-3.5-.36-9.81,3.93-12.42,7.02l.62.48c.13.1.15.28.07.42-.06.09-.16.13-.26.13Z"/>
      <path class="cls-3" d="M31.51,13.47c-.14-.02-.3-.03-.45-.02-.18.01-.36.03-.55.06-2.52.4-5.75,2.37-7.62,3.8-1.18.9-2.35,1.94-3.28,3.12l-.86-.69c.97-1.23,2.23-2.37,3.48-3.31,1.71-1.3,3.69-2.49,5.69-3.3.87-.35,1.7-.59,2.42-.7.24-.04.47-.06.68-.07.23,0,.44,0,.63.02l-.13,1.09Z"/>
      <path class="cls-2" d="M19.18,19.7l.38.29c.81-.98,1.87-1.96,3.14-2.94,2.01-1.52,5.24-3.45,7.76-3.85.21-.03.41-.05.59-.06.06,0,.13,0,.19,0l.05-.48c-.09,0-.17,0-.26,0-.21.01-.43.04-.64.07-.69.1-1.48.34-2.36.69-1.86.75-3.8,1.87-5.62,3.26-1.31,1-2.39,2.01-3.22,3.03h0ZM19.61,20.73c-.06,0-.13-.02-.19-.06l-.86-.69c-.07-.05-.11-.12-.12-.21-.01-.08.02-.16.07-.23.89-1.13,2.08-2.26,3.53-3.36,1.87-1.43,3.86-2.58,5.77-3.35.91-.36,1.75-.61,2.48-.72.25-.05.5-.07.72-.08.23-.01.46,0,.66.02.09,0,.16.05.21.12.05.06.08.14.07.23l-.13,1.09c-.02.17-.17.28-.34.27-.12-.02-.26-.02-.4,0-.16,0-.34.03-.52.05-2.4.39-5.53,2.25-7.48,3.74-1.33,1.01-2.41,2.04-3.22,3.07-.06.08-.15.11-.24.11Z"/>
      <polygon class="cls-1" points="29.64 32.9 25.37 35.81 25.47 37.4 29.73 34.49 29.64 32.9"/>
      <path class="cls-2" d="M25.69,35.97l.04.88,3.67-2.51-.04-.87-3.67,2.5h0ZM25.47,37.72c-.05,0-.1,0-.14-.03-.1-.04-.17-.15-.17-.26l-.09-1.59c0-.1.04-.21.13-.27l4.27-2.91c.09-.06.21-.07.3-.03.11.05.17.15.17.26l.09,1.59c0,.11-.04.21-.13.27l-4.26,2.92c-.05.03-.11.05-.17.05Z"/>
    </g>
  </g>
</svg>