<?xml version="1.0" encoding="UTF-8"?>
<svg id="Layer_2" data-name="Layer 2" xmlns="http://www.w3.org/2000/svg" viewBox="0 0 37.01 42.37" fill="currentColor">
  <defs>
    <style>
      .cls-1 {
        fill: #fff;
      }

      .cls-1, .cls-2, .cls-3, .cls-4 {
        fill-rule: evenodd;
      }

      .cls-2 {
        fill: #1a87c7;
      }

      .cls-3 {
        fill: #bdedf8;
      }

      .cls-4 {
        fill: #66ceef;
      }
    </style>
  </defs>
  <g id="_Layer_" data-name="&amp;lt;Layer&amp;gt;">
    <g>
      <path class="cls-4" d="M22.22,3.92l6.26,3.61c.18-.1.29-.32.31-.54v-3.07L22.56.31v3.07c-.03.22-.13.44-.34.54h0ZM22.56,20.34c-.03.23-.13.39-.31.52l6.26,3.61c.18-.13.26-.3.29-.52v-3.07l-6.24-3.6v3.06h0ZM22.56,26.49v3.08l6.24,3.6v-3.07c0-.1,0-.13-.08-.19l-6.26-3.61c.08.06.08.1.1.19h0ZM28.71,12.95l-6.26-3.61c.08.06.08.1.1.2v3.06l6.24,3.61v-3.07c0-.09,0-.13-.08-.19h0Z"/>
      <path class="cls-2" d="M22.72,3.85l5.71,3.29c.05-.05.05-.12.05-.18v-2.87l-5.61-3.25v2.54c-.03.17-.08.34-.16.47h0ZM28.48,7.83c-.05,0-.13,0-.16-.04l-6.24-3.6c-.1-.06-.16-.16-.16-.28s.05-.21.16-.26c.08-.04.16-.17.16-.3V.31c0-.11.05-.21.16-.27.08-.05.21-.05.31,0l6.23,3.61c.1.05.16.16.16.27v3.07c-.03.37-.21.66-.5.81-.05.03-.1.03-.13.03h0ZM22.87,12.43l5.61,3.24v-2.49l-5.61-3.25v2.5h0ZM28.79,16.51c-.05,0-.1,0-.16-.04l-6.24-3.6c-.11-.06-.16-.16-.16-.27v-3.06c-.1-.1-.13-.26-.05-.39.1-.14.29-.16.42-.07l6.26,3.6s.03.02.03.03c.18.15.21.31.21.41v3.1c0,.1-.05.21-.16.26-.05.03-.1.04-.16.04h0ZM22.74,20.78l5.71,3.3c.03-.05.03-.11.03-.17v-2.86l-5.61-3.25v2.55c-.03.16-.08.3-.13.42h0ZM28.5,24.77c-.05,0-.13,0-.16-.03l-6.24-3.61c-.11-.05-.16-.15-.16-.25s.03-.21.13-.27c.11-.08.16-.16.16-.29v-3.04c0-.11.05-.22.16-.27.08-.06.21-.06.31,0l6.23,3.61c.1.05.16.16.16.26v3.07c-.03.34-.18.59-.45.77-.05.03-.11.05-.16.05h0ZM22.87,29.39l5.61,3.25v-2.5l-5.61-3.25v2.5h0ZM28.79,33.48c-.05,0-.1-.02-.16-.04l-6.24-3.6c-.11-.06-.16-.16-.16-.27v-3.08h.1s-.1,0-.1,0c-.13-.1-.13-.26-.05-.39.1-.13.29-.14.42-.06l6.26,3.61c.21.17.24.31.24.43v3.1c0,.11-.05.22-.16.27-.05.03-.1.04-.16.04Z"/>
      <polygon class="cls-3" points="36.71 22.46 30.47 18.86 22.56 17.28 28.79 20.88 36.71 22.46"/>
      <path class="cls-2" d="M28.9,20.59l6.03,1.2-4.58-2.64-6-1.2,4.56,2.64h0ZM36.71,22.77s-.03,0-.05,0l-7.91-1.58s-.08-.02-.1-.03l-6.24-3.61c-.13-.07-.18-.23-.13-.37.05-.14.18-.23.34-.19l7.91,1.58s.05.02.08.03l6.26,3.61c.13.07.18.24.13.37-.05.12-.16.2-.29.2Z"/>
      <path class="cls-2" d="M15.75,19.66c-.05,0-.11,0-.16-.04l-.21-.11c-.13-.09-.18-.28-.1-.43.08-.15.26-.2.42-.11l.08.04h0s.13.08.13.08c.16.09.21.28.11.43-.05.1-.16.15-.26.15Z"/>
      <polygon class="cls-3" points="11.76 17.05 15.69 19.31 15.61 19.28 11.76 17.05"/>
      <path class="cls-2" d="M15.54,19.58h0l-3.93-2.26c-.13-.09-.18-.27-.1-.42.08-.15.29-.2.42-.11l3.9,2.25-.29.54Z"/>
      <path class="cls-3" d="M1.52,32.84c-.39.25-.63.5-.86.9l6.24,3.6c.24-.38.47-.65.86-.9l.45-.26c1.49-.91,2.31-2.02,3.17-3.55l3.3-5.69c.08-.15.16-.37,0-.5l-6.24-3.61c.16.13.08.35,0,.5-1.28,2.22-2.51,4.54-3.88,6.68l-.16.23c-.71.99-1.39,1.69-2.44,2.32l-.45.26Z"/>
      <path class="cls-2" d="M1.1,33.64l5.71,3.29c.18-.28.42-.52.76-.75l.47-.27c1.41-.85,2.17-1.86,3.09-3.43l3.27-5.69c.03-.05.03-.09.05-.11l-5.71-3.28s-.03.06-.05.09c-.39.7-.79,1.4-1.18,2.1-.86,1.53-1.76,3.12-2.7,4.61l-.18.24c-.79,1.1-1.52,1.81-2.52,2.42l-.45.25c-.26.17-.42.33-.58.54h0ZM6.89,37.65c-.05,0-.1-.02-.16-.04l-6.24-3.61c-.08-.03-.13-.1-.13-.19-.03-.08,0-.17.03-.24.23-.4.5-.7.94-1,.03,0,.03,0,.03,0l.45-.25c.92-.56,1.6-1.2,2.33-2.24l.16-.23c.94-1.46,1.81-3.04,2.67-4.57.42-.7.79-1.4,1.21-2.09.03-.1.03-.14.03-.15-.1-.1-.13-.26-.03-.39.08-.13.26-.15.42-.07l6.24,3.61c.21.16.34.43.13.89l-3.3,5.71c-.94,1.62-1.78,2.74-3.3,3.65l-.45.26c-.31.2-.52.42-.76.8-.05.1-.16.15-.26.15Z"/>
      <path class="cls-3" d="M19.1,21.29l2.7,1.56,3.54,2.05.16.08c1.1.47,2.04.05,3.01-.5l-6.26-3.61c-1.02.59-2.02,1.02-3.14.43Z"/>
      <path class="cls-2" d="M20.67,21.84l4.98,2.85c.79.35,1.52.13,2.2-.23l-5.61-3.24c-.47.27-1,.53-1.57.62h0ZM26.46,25.48c-.34,0-.71-.07-1.07-.24l-.18-.09-6.26-3.61c-.16-.09-.21-.27-.11-.42.08-.15.26-.2.39-.12.94.49,1.76.22,2.88-.42.08-.06.18-.06.29,0l6.24,3.6c.1.06.16.16.16.27s-.05.21-.16.27c-.66.38-1.36.75-2.17.75Z"/>
      <path class="cls-3" d="M14.62,18.7l3.41,1.96c.18.07.34-.1.42-.24l3.41-5.88c1.7-2.9,3.69-5.28,6.63-7l-6.26-3.61c-2.91,1.73-4.93,4.1-6.63,7.01l-3.38,5.88c-.1.14-.24.31-.45.24l-3.38-1.96-.18-.1c-1.78-.9-3.48-.62-5.29.14-.89.43-1.7.76-2.25,1.64l6.24,3.61c.97-1.57,4.14-2.5,5.9-2.31.71.1,1.2.28,1.83.63Z"/>
      <path class="cls-2" d="M12.34,17.75c.16,0,.34,0,.47.03.76.11,1.31.3,1.96.66h0l3.33,1.92s.05-.05.08-.11l3.38-5.87c1.81-3.09,3.83-5.28,6.29-6.84l-5.61-3.26c-2.57,1.55-4.53,3.65-6.39,6.81l-3.38,5.88c-.29.45-.6.45-.81.38l-3.62-2.08c-1.49-.76-2.99-.7-5,.16l-.13.06c-.76.34-1.36.62-1.81,1.2l5.71,3.29c1.1-1.44,3.8-2.23,5.53-2.23h0ZM18.1,20.98c-.08,0-.13-.02-.18-.03l-3.46-1.98c-.58-.32-1.05-.48-1.7-.58-1.76-.18-4.77.8-5.61,2.16-.08.15-.26.19-.42.1L.5,17.05c-.08-.04-.13-.11-.13-.19-.03-.09,0-.17.03-.24.55-.91,1.39-1.29,2.25-1.69l.16-.06c1.44-.63,3.41-1.21,5.53-.14l.18.1,3.35,1.92s.03-.05.08-.11l3.38-5.86c1.91-3.28,4.06-5.54,6.73-7.12.1-.06.24-.06.31,0l6.24,3.61c.11.05.16.16.16.27,0,.1-.05.21-.13.26-2.65,1.56-4.64,3.69-6.52,6.9l-3.41,5.88c-.21.34-.45.42-.6.42Z"/>
      <polygon class="cls-3" points="36.71 5.49 30.47 1.89 22.56 .31 28.79 3.92 36.71 5.49"/>
      <path class="cls-2" d="M28.9,3.62l6.03,1.2-4.58-2.64-6.03-1.2,4.59,2.64h0ZM36.71,5.8s-.03,0-.05,0l-7.91-1.58s-.08-.02-.1-.03l-6.24-3.61c-.13-.07-.18-.23-.13-.37.05-.14.18-.23.34-.19l7.91,1.58s.05.02.08.03l6.26,3.61c.13.07.18.23.13.37-.05.12-.16.2-.29.2Z"/>
      <path class="cls-4" d="M6.89,20.39l-6.24-3.61c-.24.41-.34.73-.34,1.19v2.67c0,.34.05.58.34.78l6.24,3.61c-.29-.2-.34-.45-.34-.78v-2.67c.03-.49.13-.76.34-1.19Z"/>
      <path class="cls-2" d="M.79,17.22c-.11.23-.16.46-.18.77v2.65c.03.3.05.42.24.53l5.4,3.12v-2.71c.03-.45.1-.74.26-1.07l-5.71-3.29h0ZM6.89,25.33c-.05,0-.1,0-.16-.04L.5,21.69c-.45-.31-.5-.7-.5-1.03v-2.69c.03-.56.16-.92.39-1.34.03-.07.1-.12.18-.15.08-.03.16,0,.23.03l6.24,3.61c.16.08.21.26.13.41-.21.42-.31.65-.31,1.06v2.66c0,.3.05.42.21.53.13.09.18.28.08.42-.05.09-.16.14-.26.14Z"/>
      <path class="cls-4" d="M6.89,37.34l-6.24-3.6h0c-.24.41-.34.72-.34,1.19v2.67c0,.33.05.58.34.78l6.24,3.6c-.29-.2-.34-.44-.34-.78v-2.66c0-.47.13-.79.34-1.19h0Z"/>
      <path class="cls-2" d="M.79,34.17c-.13.28-.16.5-.18.77v2.66c.03.3.05.42.24.52l5.4,3.12v-2.7c.03-.43.1-.76.26-1.08l-5.71-3.29h0ZM6.89,42.29c-.05,0-.1-.02-.16-.04l-6.24-3.61c-.45-.31-.5-.7-.5-1.04v-2.68c.03-.56.16-.92.39-1.34.03-.09.08-.13.16-.17.08-.03.18,0,.26.04l6.24,3.61c.16.08.21.25.13.4h0c-.21.37-.31.64-.31,1.07v2.65c0,.3.05.42.21.53.13.09.18.28.08.42-.05.1-.16.15-.26.15Z"/>
      <path class="cls-1" d="M14.62,34.76l3.41-5.88c.1-.2.31-.31.42-.24l3.41,1.96c.92.53,1.91.74,3.01.63,1.05-.1,2.2-.5,3.41-1.17.24-.12.52-.31.52.05v3.07l7.91-10.71-7.91-1.58v3.07c0,.37-.31.53-.52.65-.58.33-1.1.52-1.6.56-.5.05-.92-.04-1.34-.27l-3.54-2.05c-.13-.07-.13-.3,0-.5l3.54-6.16c.42-.69.84-1.29,1.34-1.82.5-.51,1.02-.94,1.6-1.26l.24-.14c.16-.09.29-.02.29.17v3.07l7.91-10.72-7.91-1.57v3.07c0,.43-.42.59-.66.74-1.18.71-2.25,1.61-3.27,2.67-1.1,1.16-2.1,2.55-3.01,4.14l-3.41,5.88c-.11.2-.31.31-.42.24l-3.41-1.96c-.92-.53-1.94-.75-3.04-.64-1.1.11-2.31.54-3.62,1.29l-.21.13c-.65.38-1.21,1.32-1.21,2.09v2.67c0,.38.13.65.34.78.24.12.52.1.86-.09l.45-.25c1.13-.66,2.12-.76,2.93-.3l3.54,2.05c.13.07.13.3,0,.5l-3.25,5.61c-.5.89-.92,1.6-1.65,2.36-.47.52-1,.94-1.57,1.27-.81.47-1.65,1.19-1.65,2.36v2.66c0,.39.13.66.34.78.24.13.52.11.86-.08l.21-.13c1.31-.75,2.52-1.71,3.62-2.88,1.1-1.17,2.12-2.55,3.04-4.14Z"/>
      <path class="cls-2" d="M10.03,23.81c.45,0,.86.1,1.23.33l3.56,2.05c.26.16.31.55.11.91l-3.22,5.6c-.5.88-.94,1.63-1.7,2.43-.52.53-1.07.98-1.65,1.32-1.02.59-1.49,1.25-1.49,2.09v2.66c0,.26.05.44.18.52.13.07.34.04.55-.09l.21-.13c1.28-.73,2.46-1.68,3.54-2.82,1.1-1.15,2.1-2.52,3.01-4.08h0l3.38-5.88c.24-.36.58-.51.86-.36l3.41,1.96c.84.49,1.81.69,2.83.59,1.02-.1,2.12-.49,3.3-1.14.24-.13.5-.29.73-.14.11.06.24.19.24.46v2.14l7.07-9.57-7.07-1.42v2.69c0,.53-.42.77-.65.9-.65.37-1.21.57-1.76.63-.55.05-1.05-.04-1.52-.31l-3.54-2.05c-.16-.09-.26-.25-.26-.46,0-.15.05-.31.13-.45l3.56-6.15c.42-.71.89-1.34,1.39-1.88.5-.53,1.05-.98,1.65-1.32l.24-.13c.18-.1.37-.11.52-.03.16.09.24.26.24.46v2.13l7.07-9.57-7.07-1.41v2.69c0,.55-.45.79-.71.94l-.1.06c-1.13.7-2.2,1.58-3.2,2.62-1.07,1.15-2.1,2.52-2.99,4.08l-3.41,5.88c-.21.36-.58.52-.84.36l-3.41-1.96c-.86-.5-1.81-.69-2.86-.59-1.05.1-2.23.53-3.48,1.25l-.21.13c-.58.33-1.05,1.17-1.05,1.82v2.67c0,.25.05.44.18.51.13.07.34.04.55-.09l.45-.25c.71-.42,1.39-.62,1.99-.62h0ZM7.2,42.37c-.16,0-.31-.04-.47-.12-.31-.19-.5-.57-.5-1.05v-2.66c0-1.06.6-1.92,1.81-2.63.55-.3,1.05-.71,1.52-1.21.71-.75,1.1-1.44,1.62-2.31l3.22-5.61s.03-.09.05-.11l-3.48-2.01c-.71-.41-1.6-.3-2.62.29l-.45.26c-.42.23-.84.27-1.18.08-.31-.18-.5-.57-.5-1.04v-2.67c0-.89.6-1.92,1.36-2.36l.21-.13c1.34-.76,2.59-1.21,3.75-1.32,1.15-.12,2.25.1,3.22.67l3.33,1.92s.05-.05.08-.09l3.38-5.88c.94-1.6,1.96-3.02,3.09-4.19,1.02-1.09,2.15-2,3.3-2.72l.13-.08c.29-.15.39-.24.39-.4v-3.07c0-.09.05-.18.13-.24.05-.06.16-.08.24-.06l7.91,1.58c.11.02.21.09.24.19.03.1.03.21-.03.29l-7.91,10.72c-.08.11-.24.15-.37.11-.1-.04-.21-.16-.21-.29v-2.88l-.05.04c-.55.3-1.05.71-1.52,1.21-.47.5-.92,1.09-1.28,1.76l-3.56,6.15c-.03.05-.05.09-.05.11l3.49,2.02c.34.2.73.28,1.15.23.45-.04.94-.22,1.47-.52.26-.16.37-.23.37-.39v-3.07c0-.09.05-.17.13-.24.05-.06.16-.09.24-.07l7.91,1.59c.11.02.21.09.24.19.03.1.03.21-.03.29l-7.91,10.72c-.08.11-.24.15-.37.11-.1-.04-.21-.16-.21-.3v-2.89h0c-1.28.73-2.49,1.14-3.56,1.24-1.18.11-2.25-.11-3.22-.67l-3.33-1.92s-.05.05-.08.1l-3.41,5.88c-.92,1.6-1.94,3.01-3.07,4.19-1.13,1.18-2.36,2.17-3.69,2.94l-.21.12c-.24.14-.47.21-.71.21Z"/>
      <path class="cls-2" d="M14.8,19.11c-.05,0-.11,0-.16-.04l-3.67-2.12c-.13-.09-.18-.27-.11-.42.08-.16.29-.2.42-.11l3.67,2.11c.16.09.18.28.11.43-.05.1-.16.15-.26.15Z"/>
    </g>
  </g>
</svg>