<?xml version="1.0" encoding="UTF-8"?>
<svg id="Layer_2" data-name="Layer 2" xmlns="http://www.w3.org/2000/svg" viewBox="0 0 38.54 86.86" fill="currentColor">
  <defs>
    <style>
      .cls-1 {
        fill: #fff;
      }

      .cls-1, .cls-2, .cls-3, .cls-4 {
        fill-rule: evenodd;
      }

      .cls-2 {
        fill: #1a87c7;
      }

      .cls-3 {
        fill: #bdedf8;
      }

      .cls-4 {
        fill: #66ceef;
      }
    </style>
  </defs>
  <g id="_Layer_" data-name="&amp;lt;Layer&amp;gt;">
    <g>
      <path class="cls-3" d="M36.4,3.39l-4.61-2.66c-.82-.26-1.5-.04-2.23.36L4.33,15.67c-1.32.81-2.19,2-2.87,3.36-.52,1.14-.82,2.19-.85,3.45l.02,58.11c.04.98.21,1.9.97,2.57l4.61,2.66c-.77-.67-.94-1.59-.97-2.57l-.02-58.11c.04-1.26.33-2.31.85-3.46.68-1.37,1.54-2.55,2.87-3.36L34.17,3.75c.73-.4,1.41-.61,2.23-.36Z"/>
      <path class="cls-2" d="M31.14,1.21c-.35,0-.73.12-1.27.41L4.64,16.2c-1.06.65-1.91,1.64-2.62,3.1-.52,1.15-.77,2.11-.79,3.2l.02,58.09c.02,1.05.24,1.66.74,2.11l2.71,1.56c-.05-.34-.08-.68-.08-.99l-.02-58.12c.02-1.28.29-2.38.91-3.71.83-1.69,1.82-2.84,3.11-3.63L33.86,3.21c.17-.09.35-.18.54-.26l-2.92-1.69c-.11-.03-.23-.04-.35-.04h0ZM6.2,86.45c-.11,0-.21-.03-.29-.08l-4.63-2.66c-1.1-.94-1.25-2.14-1.27-3.1l-.02-58.12c.02-1.28.29-2.39.9-3.71.84-1.7,1.83-2.84,3.11-3.63L29.25.55c.73-.4,1.63-.75,2.73-.41l4.73,2.71c.26.16.38.49.25.78-.12.29-.44.43-.75.34-.53-.17-1.01-.09-1.73.31l-25.23,14.58c-1.06.65-1.91,1.64-2.63,3.1-.52,1.15-.76,2.11-.78,3.2l.02,58.1c.02,1.05.24,1.66.75,2.11.24.21.29.57.1.82-.13.17-.31.26-.51.26Z"/>
      <path class="cls-3" d="M8.97,85.77l25.22-14.59c2.05-1.18,3.74-4.25,3.72-6.82l-.02-58.11c0-2.57-1.67-3.69-3.72-2.51l-25.24,14.58c-2.05,1.18-3.72,4.25-3.72,6.82l.02,58.11c0,2.57,1.68,3.69,3.74,2.52Z"/>
      <path class="cls-2" d="M35.72,3.89c-.36,0-.8.13-1.23.39l-25.24,14.58c-1.86,1.07-3.41,3.95-3.41,6.28l.02,58.11c0,1.07.33,1.87.89,2.2.5.28,1.18.2,1.91-.22l25.24-14.59c1.84-1.07,3.41-3.95,3.41-6.28l-.02-58.11c0-1.07-.33-1.87-.9-2.2-.19-.11-.42-.17-.66-.17h0ZM7.4,86.86c-.45,0-.89-.11-1.27-.34-.96-.55-1.51-1.74-1.51-3.26l-.02-58.11c0-2.77,1.81-6.06,4.01-7.35L33.86,3.21c1.15-.65,2.26-.73,3.15-.22.95.56,1.51,1.75,1.51,3.26l.02,58.11c0,2.77-1.81,6.07-4.03,7.35l-25.24,14.58h0c-.62.37-1.27.56-1.86.56Z"/>
      <path class="cls-1" d="M37.91,63.67l-.02-57.41c0-2.57-1.67-3.69-3.72-2.51l-25.24,14.58c-2.05,1.18-3.72,4.25-3.72,6.82l.02,57.4,32.68-18.88Z"/>
      <path class="cls-2" d="M35.72,3.89c-.36,0-.8.13-1.23.39l-25.24,14.58c-1.86,1.07-3.41,3.95-3.41,6.28l.02,56.33,31.44-18.17-.02-57.06c0-1.07-.33-1.87-.9-2.2-.19-.11-.42-.17-.66-.17h0ZM5.23,83.17c-.1,0-.21-.03-.3-.08-.19-.11-.31-.31-.31-.53l-.02-57.4c0-2.77,1.81-6.06,4.01-7.35L33.86,3.21c1.13-.65,2.26-.73,3.15-.22.95.56,1.51,1.75,1.51,3.26l.02,57.41c0,.22-.13.42-.31.54L5.54,83.08c-.08.05-.19.08-.31.08Z"/>
      <path class="cls-4" d="M1.49,18.97l-.03.06c-.52,1.14-.82,2.19-.85,3.45l.02,58.11c.02.98.21,1.9.97,2.57l4.61,2.66c-.77-.67-.94-1.59-.97-2.57l-.02-58.11c.04-1.26.33-2.31.85-3.46l.03-.06-4.61-2.66Z"/>
      <path class="cls-2" d="M1.77,19.85c-.36.91-.52,1.73-.54,2.65l.02,58.09c.02,1.05.24,1.66.74,2.11l2.71,1.56c-.05-.34-.08-.68-.08-.99l-.02-58.12c.02-1.14.23-2.13.7-3.26l-3.53-2.04h0ZM6.2,86.45c-.11,0-.21-.03-.29-.08l-4.63-2.66c-1.1-.94-1.25-2.15-1.27-3.1l-.02-58.12c.02-1.28.29-2.39.9-3.71.07-.16.22-.3.38-.36.18-.05.37-.06.51.03l4.61,2.66c.28.16.4.5.26.79-.56,1.21-.8,2.17-.81,3.26l.02,58.1c.02,1.05.24,1.66.75,2.11.24.21.29.57.1.82-.13.17-.31.26-.51.26Z"/>
      <path class="cls-2" d="M3.01,44.6c-.35,0-.63-.28-.63-.62v-5.84c0-.34.28-.62.63-.62s.61.28.61.62v5.84c0,.34-.28.62-.61.62Z"/>
      <path class="cls-2" d="M3.01,34.92c-.35,0-.63-.27-.63-.61v-5.84c0-.34.28-.61.63-.61s.61.27.61.61v5.84c0,.34-.28.61-.61.61Z"/>
      <path class="cls-2" d="M19.87,77.43c-.21,0-.42-.11-.54-.31-.17-.29-.07-.67.23-.84l5.06-2.92c.3-.16.68-.07.85.23.16.29.07.67-.23.84l-5.06,2.92c-.11.06-.21.08-.31.08Z"/>
      <path class="cls-3" d="M33.08,7.09h0c-.36.21-.66.76-.66,1.22h0c0,.46.3.66.66.45h0c.37-.22.66-.76.66-1.22h0c0-.46-.29-.66-.66-.45Z"/>
      <path class="cls-2" d="M33.08,7.09l.3.53s.02,0,.02,0l-.31-.52h0ZM32.8,9.45c-.17,0-.33-.04-.49-.13-.33-.19-.52-.56-.52-1.02,0-.68.41-1.43.97-1.75h0c.37-.21.75-.22,1.06-.04.33.19.52.56.52,1.02,0,.68-.41,1.43-.97,1.75-.19.11-.38.16-.58.16Z"/>
      <path class="cls-2" d="M13.28,64.4c-.23,0-.43-.12-.54-.31-.17-.3-.07-.67.23-.84l4.95-2.85c.3-.17.68-.07.85.23.16.3.07.68-.23.84l-4.97,2.85c-.09.06-.19.08-.29.08Z"/>
      <path class="cls-2" d="M13.28,71.63c-.23,0-.43-.12-.54-.31-.17-.29-.07-.67.23-.84l4.95-2.85c.3-.17.68-.07.85.23.16.29.07.67-.23.84l-4.97,2.86c-.09.05-.19.08-.29.08Z"/>
      <path class="cls-2" d="M26.73,56.66c-.21,0-.41-.11-.54-.31-.15-.29-.05-.67.25-.84l4.95-2.85c.3-.17.68-.07.84.23.17.29.07.67-.23.84l-4.96,2.85c-.1.06-.21.08-.31.08Z"/>
      <path class="cls-2" d="M26.73,63.89c-.21,0-.41-.11-.54-.31-.15-.3-.05-.67.25-.84l4.95-2.85c.3-.17.68-.07.84.23.17.29.07.67-.23.84l-4.96,2.85c-.1.06-.21.08-.31.08Z"/>
      <path class="cls-2" d="M9.44,23.64c-.21,0-.41-.11-.54-.31-.16-.29-.07-.67.23-.84l1.46-.84c.3-.17.68-.07.85.22.16.3.05.68-.25.84l-1.44.83c-.1.06-.21.08-.31.08Z"/>
      <path class="cls-2" d="M12.36,21.96c-.21,0-.42-.11-.54-.31-.17-.29-.07-.67.22-.84l1.46-.84c.3-.17.68-.07.84.23.17.29.07.67-.23.84l-1.46.84c-.08.05-.19.08-.29.08Z"/>
      <path class="cls-2" d="M15.26,20.29c-.21,0-.42-.12-.52-.31-.17-.3-.07-.67.23-.84l1.46-.84c.28-.17.66-.07.83.23.17.29.07.67-.22.84l-1.46.84c-.08.06-.19.08-.31.08Z"/>
      <path class="cls-2" d="M13.28,57.16c-.23,0-.43-.11-.54-.31-.17-.29-.07-.67.23-.84l4.95-2.85c.3-.17.68-.07.85.23.16.3.07.67-.23.84l-4.97,2.85c-.09.06-.19.08-.29.08Z"/>
      <path class="cls-2" d="M26.73,49.42c-.21,0-.41-.11-.54-.31-.15-.29-.05-.67.25-.84l4.95-2.85c.3-.17.68-.07.84.23.17.29.07.67-.23.84l-4.96,2.85c-.1.06-.21.08-.31.08Z"/>
      <path class="cls-2" d="M17.96,44.19c.21.06.4.13.61.2.35.11.68.22,1.01.32.44.13,1.43-.44,2.02-1.61,2.96-5.81,5.36-11.97,6.94-17.82.21-.72.11-1.25-.07-1.46-.07-.06-.16-.13-.35-.1-.31.05-.62.08-.94.12-.45.05-.92.1-1.42.19-.36,1.22-.68,2.42-.98,3.62-.12.42-.23.83-.33,1.25.23-.04.47-.08.72-.13.23-.04.43.04.57.19.14.16.19.39.12.6-1.08,3.47-2.38,6.85-3.79,9.79-.14.28-.45.41-.76.31-.29-.11-.61-.21-.94-.31-.37.75-.75,1.49-1.09,2.22-.45.89-.89,1.75-1.31,2.61h0ZM19.7,45.96c-.17,0-.33-.02-.49-.07-.33-.1-.68-.22-1.04-.33-.42-.14-.83-.28-1.24-.4-.17-.05-.33-.17-.4-.34-.07-.16-.07-.36,0-.52.52-1.07,1.06-2.16,1.61-3.27.43-.88.89-1.77,1.34-2.68.12-.27.44-.41.71-.32.36.11.68.2.97.31,1.16-2.49,2.26-5.29,3.2-8.17-.25.03-.5.05-.75.05h0c-.19,0-.38-.09-.5-.24-.1-.16-.16-.35-.1-.54.19-.7.38-1.39.56-2.09.32-1.31.68-2.66,1.11-4.03.07-.21.24-.37.45-.42.7-.15,1.31-.21,1.91-.28.3-.03.59-.06.89-.11.58-.07,1.08.1,1.44.51.51.57.63,1.54.35,2.59-1.62,5.93-4.05,12.17-7.02,18.05-.71,1.38-1.95,2.3-3.01,2.3Z"/>
      <path class="cls-2" d="M17.56,39.72c-.3,0-.56-.22-.61-.51-.34-1.79-.09-3.79.68-5.79.85-2.24,1.98-4.05,3.35-5.37.25-.24.65-.23.87.02.25.24.23.63-.02.87-1.24,1.2-2.28,2.86-3.06,4.93-.87,2.26-.82,4.04-.63,5.13.07.34-.16.66-.49.72-.03,0-.07.01-.1.01Z"/>
      <path class="cls-2" d="M15.16,42.17c-.26,0-.5-.17-.59-.43-.7-2.25-.41-5.33.75-8.46,1.18-3.11,2.97-5.85,5.21-7.93.24-.23.64-.22.87.03.23.25.23.64-.04.87-2.07,1.93-3.8,4.58-4.88,7.47-1.08,2.83-1.34,5.7-.73,7.66.11.32-.09.67-.4.77-.07.02-.12.03-.19.03Z"/>
    </g>
  </g>
</svg>