<?xml version="1.0" encoding="UTF-8"?>
<svg id="Layer_2" data-name="Layer 2" xmlns="http://www.w3.org/2000/svg" viewBox="0 0 32.98 42.8" fill="currentColor">
  <defs>
    <style>
      .cls-1 {
        fill: #fff;
      }

      .cls-1, .cls-2, .cls-3, .cls-4 {
        fill-rule: evenodd;
      }

      .cls-2 {
        fill: #1a87c7;
      }

      .cls-3 {
        fill: #bdedf8;
      }

      .cls-4 {
        fill: #66ceef;
      }
    </style>
  </defs>
  <g id="_Layer_" data-name="&amp;lt;Layer&amp;gt;">
    <g>
      <path class="cls-4" d="M17.2,29.9c.77-.42,1.58-.67,2.4-.24-.6-.35-1.48-.97-2.09-1.05-.63-.08-1.22.15-1.76.45-1.87,1.14-3.22,3.43-3.39,5.61l1.45.84c.16-2.18,1.51-4.47,3.39-5.61Z"/>
      <path class="cls-2" d="M12.69,34.51l.87.5c.32-2.16,1.68-4.27,3.48-5.37,0,0,0,0,.01,0,.33-.18.71-.36,1.13-.45-.26-.14-.51-.24-.71-.26-.59-.07-1.15.19-1.58.42-1.68,1.02-2.99,3.13-3.21,5.17h0ZM13.81,35.82c-.05,0-.11-.02-.16-.04l-1.45-.84c-.1-.06-.16-.17-.15-.29.18-2.32,1.6-4.67,3.53-5.85.52-.28,1.19-.59,1.96-.49.55.07,1.2.47,1.78.83.15.09.29.18.42.25.14.08.2.27.11.42-.08.15-.27.2-.41.12-.6-.31-1.23-.24-2.11.23-1.74,1.06-3.07,3.27-3.23,5.36,0,.11-.07.2-.16.25-.05.02-.1.04-.14.04Z"/>
      <path class="cls-3" d="M18.61,24.88c-.44-.25-1.43-.91-1.83-.96-1.97-.25-4.11,4.01-2.45,5.01l1.45.84c-1.82-1.16.92-5.89,2.82-4.89Z"/>
      <path class="cls-2" d="M16.62,24.21c-.92,0-1.96,1.22-2.38,2.42-.26.75-.33,1.68.25,2.03l.42.24c-.13-.78.16-1.75.62-2.55.47-.81,1.17-1.54,1.92-1.82-.29-.16-.57-.3-.7-.32-.04,0-.08,0-.13,0h0ZM15.79,30.07c-.05,0-.11-.01-.15-.04l-1.45-.84c-.77-.46-.96-1.5-.52-2.76.53-1.52,1.86-2.98,3.16-2.82.35.04.91.37,1.6.79.13.08.25.15.35.21.14.08.19.27.12.41-.08.15-.27.2-.41.13-.77-.4-1.79.46-2.4,1.52-.61,1.06-.85,2.38-.12,2.84.14.09.19.28.1.42-.06.09-.16.15-.26.15Z"/>
      <path class="cls-4" d="M19.6,29.66c-.62-.35-1.47-.3-2.4.24-.9.52-1.76,1.43-2.4,2.53-.56.98-.93,2.06-.98,3.07l6.77-3.91c-.06-.94-.42-1.61-.98-1.93Z"/>
      <path class="cls-2" d="M18.72,29.75c-.41,0-.87.14-1.36.42-.86.5-1.67,1.36-2.29,2.42-.44.76-.74,1.58-.88,2.34l6.08-3.51c-.08-.71-.37-1.24-.82-1.5-.21-.12-.46-.19-.73-.19h0ZM13.81,35.82c-.06,0-.11-.02-.16-.05-.1-.06-.15-.16-.14-.28.06-1.03.42-2.16,1.03-3.21.67-1.16,1.56-2.1,2.51-2.65,1.01-.58,1.97-.67,2.71-.24h0c.67.39,1.08,1.17,1.14,2.18,0,.12-.05.23-.15.28l-6.77,3.91s-.1.04-.15.04Z"/>
      <path class="cls-1" d="M17.2,29.63c1.1-.64,2-2.18,2-3.46,0-.64-.23-1.08-.59-1.29-.36-.21-.86-.18-1.41.14-.55.32-1.05.86-1.41,1.49-.36.63-.59,1.33-.59,1.97s.23,1.08.59,1.29c.36.21.86.18,1.41-.14Z"/>
      <path class="cls-2" d="M18.09,25.05c-.22,0-.47.08-.74.23-.49.28-.95.77-1.3,1.38-.35.61-.54,1.25-.54,1.81,0,.5.15.87.43,1.03.28.16.67.11,1.11-.14h0c1.01-.59,1.84-2.02,1.84-3.19,0-.5-.15-.86-.43-1.02-.11-.06-.23-.09-.37-.09h0ZM17.2,29.63h0,0ZM16.31,30.21c-.24,0-.47-.06-.68-.17-.47-.27-.74-.83-.74-1.56,0-.67.22-1.42.63-2.12.4-.7.95-1.27,1.53-1.6.63-.36,1.24-.42,1.72-.14.48.28.74.83.74,1.56,0,1.39-.95,3.03-2.15,3.73h0c-.36.21-.72.31-1.04.31Z"/>
      <path class="cls-4" d="M17.1,9.1c1.13-.62,2.31-.98,3.52-.35-.88-.51-2.16-1.42-3.07-1.54-.93-.11-1.79.22-2.58.66-2.75,1.67-4.72,5.02-4.96,8.22l2.12,1.23c.24-3.19,2.22-6.55,4.97-8.22Z"/>
      <path class="cls-2" d="M10.34,15.92l1.54.89c.4-3.2,2.39-6.35,5.06-7.97,0,0,0,0,.01,0,.59-.32,1.28-.63,2.03-.71-.53-.3-1.06-.55-1.46-.6-.91-.11-1.76.28-2.39.62-2.54,1.54-4.49,4.72-4.79,7.78h0ZM12.14,17.63c-.05,0-.1-.01-.15-.04l-2.12-1.23c-.1-.06-.16-.17-.15-.29.25-3.36,2.31-6.75,5.11-8.45.73-.4,1.7-.84,2.78-.7.77.1,1.72.68,2.56,1.2.22.14.43.26.62.37.15.08.2.27.12.42-.08.15-.27.2-.41.12-.93-.49-1.9-.38-3.22.34-2.6,1.58-4.57,4.86-4.81,7.97,0,.11-.07.2-.16.25-.05.02-.1.04-.15.04Z"/>
      <path class="cls-3" d="M17.1,9.1h0s-2.12-1.23-2.12-1.23h0l2.12,1.23h0ZM19.17,1.73c-.64-.37-2.09-1.34-2.68-1.41-2.89-.36-6.03,5.87-3.59,7.35l2.12,1.23c-2.67-1.7,1.34-8.63,4.14-7.17h0Z"/>
      <path class="cls-2" d="M16.25.62c-1.45,0-2.98,1.84-3.61,3.64-.52,1.5-.36,2.67.43,3.15l.9.52c-.33-1.15.1-2.69.82-3.95.73-1.27,1.87-2.42,3.05-2.69-.53-.31-1.1-.62-1.37-.66-.07,0-.14-.01-.21-.01h0ZM15.03,9.21c-.05,0-.11-.02-.15-.04l-2.12-1.23c-1.06-.64-1.32-2.09-.7-3.88C12.8,1.89,14.68-.21,16.53.02c.49.06,1.32.55,2.28,1.14.2.12.37.23.51.31.15.08.2.27.12.41-.08.15-.27.2-.41.13-1.21-.63-2.78.67-3.71,2.28-.93,1.61-1.27,3.62-.12,4.35.14.09.19.28.1.42-.06.09-.16.15-.26.15h0ZM17.1,9.41c-.05,0-.11-.01-.15-.04l-2.12-1.23c-.1-.05-.16-.16-.15-.27,0-.12.07-.21.17-.27.09-.04.2-.04.29,0l2.12,1.23c.09.05.15.15.15.26,0,.11-.05.21-.14.27h0c-.05.04-.11.05-.17.05Z"/>
      <path class="cls-4" d="M20.62,8.75c-.94-.54-2.2-.41-3.52.35-1.37.79-2.62,2.15-3.52,3.71-.83,1.43-1.36,3.03-1.45,4.5l9.93-5.73c-.08-1.38-.62-2.36-1.45-2.83Z"/>
      <path class="cls-2" d="M19.32,8.73c-.63,0-1.33.21-2.07.64-1.28.74-2.49,2.02-3.4,3.6-.71,1.24-1.18,2.56-1.35,3.78l9.24-5.33c-.11-1.13-.56-1.98-1.28-2.4h0c-.34-.2-.72-.29-1.14-.29h0ZM12.14,17.63c-.06,0-.11-.02-.16-.05-.1-.06-.15-.17-.15-.28.08-1.48.61-3.13,1.48-4.64.97-1.67,2.26-3.03,3.63-3.82,1.43-.82,2.79-.95,3.83-.35.95.55,1.52,1.64,1.6,3.08,0,.12-.05.23-.15.28l-9.93,5.73s-.1.04-.16.04Z"/>
      <path class="cls-1" d="M17.1,8.69h0c.81-.47,1.54-1.27,2.07-2.18h0c.53-.92.86-1.95.86-2.88s-.33-1.59-.86-1.89c-.53-.31-1.26-.26-2.07.2-.81.47-1.54,1.27-2.07,2.19-.53.92-.86,1.95-.86,2.88s.33,1.59.86,1.89c.53.3,1.26.26,2.07-.21Z"/>
      <path class="cls-2" d="M18.41,1.85c-.35,0-.74.12-1.15.36-.74.42-1.43,1.16-1.96,2.07-.53.91-.81,1.88-.81,2.73,0,.79.25,1.37.7,1.63.46.26,1.08.19,1.76-.2,0,0,.01,0,.02-.01h0c.71-.42,1.41-1.15,1.94-2.06.53-.91.82-1.88.82-2.73,0-.79-.25-1.37-.7-1.63-.18-.1-.38-.15-.61-.15h0ZM15.79,9.4c-.33,0-.64-.08-.92-.24-.65-.38-1.01-1.14-1.01-2.16,0-.96.32-2.04.9-3.04.58-1,1.36-1.82,2.18-2.3.88-.51,1.72-.58,2.38-.21.65.38,1.01,1.14,1.01,2.16,0,.96-.32,2.04-.9,3.04-.58,1-1.36,1.82-2.18,2.29h0c-.51.3-1.01.44-1.46.44Z"/>
      <path class="cls-2" d="M17,22.11c-.17,0-.31-.14-.31-.31v-5.53c0-.17.14-.31.31-.31s.31.14.31.31v5.53c0,.17-.14.31-.31.31Z"/>
      <path class="cls-2" d="M4.83,29.13c-.17,0-.31-.14-.31-.31v-2.85c0-.11.06-.21.15-.27l24.34-14.05c.09-.06.21-.06.31,0,.1.05.15.16.15.26v2.87c0,.17-.14.31-.31.31s-.31-.14-.31-.31v-2.33L5.14,26.15v2.67c0,.17-.14.31-.31.31Z"/>
      <path class="cls-4" d="M5.14,36.88c.77-.42,1.58-.67,2.4-.24-.6-.35-1.48-.97-2.09-1.05-.63-.08-1.22.15-1.76.45-1.87,1.14-3.22,3.43-3.39,5.61l1.45.83c.17-2.18,1.51-4.47,3.39-5.61Z"/>
      <path class="cls-2" d="M.63,41.48l.87.5c.32-2.16,1.68-4.27,3.48-5.37,0,0,0,0,0,0,.34-.18.72-.36,1.13-.45-.26-.14-.51-.24-.71-.26-.59-.08-1.15.18-1.57.41-1.68,1.02-2.99,3.13-3.21,5.17h0ZM1.76,42.8c-.05,0-.11-.01-.15-.04l-1.45-.84c-.1-.06-.16-.17-.16-.29.17-2.32,1.6-4.67,3.53-5.85.51-.28,1.19-.59,1.96-.49.54.07,1.2.47,1.78.83.15.09.29.18.42.25.15.08.2.27.12.42-.08.15-.27.2-.41.12-.6-.31-1.23-.24-2.1.23-1.75,1.06-3.08,3.27-3.23,5.36-.01.11-.07.2-.16.25-.04.03-.09.04-.14.04Z"/>
      <path class="cls-3" d="M6.56,31.85c-.44-.26-1.43-.91-1.83-.96-1.97-.24-4.11,4.01-2.45,5.02l1.45.84c-1.82-1.16.91-5.89,2.82-4.89Z"/>
      <path class="cls-2" d="M4.57,31.19c-.92,0-1.96,1.22-2.38,2.42-.26.75-.33,1.68.25,2.03l.42.24c-.13-.78.15-1.75.62-2.55.47-.81,1.17-1.54,1.92-1.82-.29-.16-.57-.3-.7-.32-.04,0-.08,0-.13,0h0ZM3.73,37.05c-.05,0-.11-.02-.16-.04l-1.45-.84c-.77-.46-.96-1.5-.52-2.76.53-1.51,1.83-2.99,3.16-2.82.35.04.91.37,1.6.79.13.08.25.15.35.21.14.08.19.27.12.41-.08.15-.27.2-.41.13-.77-.4-1.79.46-2.4,1.52-.61,1.06-.85,2.38-.12,2.84.14.09.19.27.1.42-.06.1-.16.15-.26.15Z"/>
      <path class="cls-4" d="M7.55,36.64c-.62-.35-1.46-.3-2.4.24-.91.52-1.76,1.43-2.4,2.53-.56.98-.93,2.07-.99,3.07l6.78-3.91c-.06-.94-.42-1.61-.99-1.93Z"/>
      <path class="cls-2" d="M6.66,36.72c-.41,0-.88.14-1.36.42-.86.5-1.67,1.36-2.29,2.42-.44.76-.74,1.58-.88,2.35l6.07-3.51c-.08-.71-.37-1.24-.81-1.5-.22-.12-.46-.19-.73-.19h0ZM1.76,42.8c-.06,0-.11-.02-.16-.05-.1-.06-.15-.17-.15-.28.06-1.02.42-2.16,1.03-3.21.67-1.16,1.56-2.1,2.52-2.65,1.01-.58,1.97-.67,2.71-.24h0c.68.39,1.08,1.16,1.14,2.18,0,.12-.05.23-.15.29l-6.78,3.91s-.1.04-.15.04Z"/>
      <path class="cls-1" d="M5.14,36.6c1.1-.64,2-2.18,2-3.46,0-.64-.22-1.08-.58-1.29-.36-.21-.86-.18-1.41.14-.55.32-1.05.86-1.41,1.49-.36.63-.59,1.33-.59,1.97s.23,1.08.59,1.29c.36.21.86.18,1.41-.14Z"/>
      <path class="cls-2" d="M6.03,32.03c-.22,0-.47.08-.73.23-.49.28-.95.77-1.3,1.38-.35.61-.54,1.25-.54,1.82,0,.5.15.86.43,1.02.28.16.67.11,1.1-.14h0c1.02-.59,1.84-2.02,1.84-3.19,0-.5-.15-.86-.43-1.02-.11-.06-.23-.09-.37-.09h0ZM5.14,36.6h0,0ZM4.25,37.19c-.24,0-.47-.06-.67-.18-.48-.27-.74-.83-.74-1.56,0-.67.22-1.42.63-2.12.4-.7.95-1.27,1.52-1.61.63-.36,1.24-.42,1.72-.14.48.27.74.83.74,1.56,0,1.39-.95,3.03-2.15,3.73h0c-.36.21-.72.32-1.05.32Z"/>
      <path class="cls-4" d="M29.28,22.93c.77-.42,1.57-.67,2.4-.24-.6-.35-1.48-.97-2.09-1.05-.63-.08-1.22.15-1.76.45-1.88,1.14-3.22,3.43-3.38,5.61l1.45.84c.17-2.18,1.51-4.47,3.39-5.61Z"/>
      <path class="cls-2" d="M24.77,27.53l.87.5c.32-2.16,1.68-4.27,3.48-5.37,0,0,0,0,.01,0,.33-.18.72-.36,1.13-.45-.26-.13-.51-.24-.71-.26-.46-.06-.95.07-1.58.41-1.68,1.02-2.99,3.13-3.21,5.17h0ZM25.9,28.84c-.06,0-.1-.01-.15-.04l-1.45-.84c-.11-.06-.16-.17-.16-.29.18-2.32,1.6-4.67,3.53-5.85.52-.28,1.19-.59,1.96-.49.55.07,1.2.47,1.78.83.15.09.29.18.42.25.14.08.2.27.12.41-.08.15-.27.2-.41.13-.6-.32-1.23-.25-2.1.23-1.75,1.06-3.08,3.27-3.24,5.36,0,.11-.07.2-.16.25-.04.02-.09.03-.14.03Z"/>
      <path class="cls-3" d="M30.69,17.9c-.44-.25-1.42-.91-1.83-.96-1.97-.25-4.11,4.01-2.45,5.01l1.45.84c-1.82-1.16.91-5.9,2.82-4.89Z"/>
      <path class="cls-2" d="M28.7,17.24c-.92,0-1.96,1.22-2.37,2.42-.26.75-.33,1.68.25,2.03l.42.24c-.13-.78.16-1.75.62-2.55.47-.81,1.17-1.54,1.92-1.82-.29-.17-.57-.3-.7-.32-.04,0-.08,0-.13,0h0ZM27.87,23.1c-.05,0-.1-.01-.15-.04l-1.45-.84c-.77-.47-.96-1.5-.52-2.77.53-1.51,1.83-2.99,3.16-2.82.35.04.91.37,1.6.79.13.08.25.16.35.21.14.08.2.27.12.42-.08.15-.27.2-.41.12-.77-.4-1.79.46-2.4,1.52-.61,1.06-.85,2.38-.12,2.84.14.09.19.28.1.42-.06.1-.16.15-.26.15Z"/>
      <path class="cls-4" d="M31.68,22.69c-.61-.35-1.47-.3-2.4.24-.9.52-1.76,1.43-2.4,2.54-.57.97-.93,2.06-.99,3.07l6.78-3.91c-.06-.94-.43-1.61-.99-1.94Z"/>
      <path class="cls-2" d="M30.8,22.77c-.41,0-.87.14-1.36.42-.86.5-1.67,1.36-2.29,2.42-.44.76-.74,1.58-.88,2.35l6.07-3.51c-.08-.71-.37-1.24-.82-1.5h0c-.21-.13-.46-.19-.73-.19h0ZM25.9,28.84c-.06,0-.11-.01-.16-.04-.09-.06-.15-.17-.15-.28.06-1.02.42-2.16,1.03-3.21.66-1.16,1.56-2.1,2.51-2.65,1.01-.58,1.97-.67,2.71-.24h0c.67.39,1.08,1.16,1.14,2.18,0,.12-.05.23-.15.29l-6.78,3.91s-.1.04-.15.04Z"/>
      <path class="cls-1" d="M29.28,22.65c1.1-.64,2-2.18,2-3.46,0-.64-.22-1.08-.58-1.29-.36-.21-.86-.18-1.41.14-.55.32-1.05.87-1.41,1.49-.36.63-.58,1.33-.58,1.97s.22,1.08.58,1.29c.36.21.86.18,1.41-.14Z"/>
      <path class="cls-2" d="M30.17,18.07c-.22,0-.47.08-.74.23-.49.28-.95.77-1.3,1.38-.35.61-.55,1.25-.55,1.82,0,.5.15.87.43,1.03.28.16.67.11,1.11-.14h0c1.02-.59,1.84-2.02,1.84-3.19,0-.5-.15-.87-.43-1.03-.11-.06-.23-.09-.37-.09h0ZM29.28,22.65h0,0ZM28.39,23.23c-.24,0-.47-.06-.67-.18-.48-.27-.74-.83-.74-1.56,0-.67.22-1.42.63-2.12.4-.7.94-1.27,1.52-1.6.63-.37,1.24-.42,1.72-.14.48.27.74.83.74,1.56,0,1.39-.95,3.03-2.15,3.73h0c-.36.21-.72.31-1.05.31Z"/>
    </g>
  </g>
</svg>