<?xml version="1.0" encoding="UTF-8"?>
<svg id="Layer_2" data-name="Layer 2" xmlns="http://www.w3.org/2000/svg" viewBox="0 0 41.4 34.8" fill="currentColor">
  <defs>
    <style>
      .cls-1 {
        fill: #fff;
      }

      .cls-1, .cls-2, .cls-3 {
        fill-rule: evenodd;
      }

      .cls-2 {
        fill: #1a87c7;
      }

      .cls-3 {
        fill: #bdedf8;
      }
    </style>
  </defs>
  <g id="_Layer_" data-name="&amp;lt;Layer&amp;gt;">
    <g>
      <path class="cls-3" d="M12.88,33.65c-1.71.98-3.26,1.08-4.38.43h0l-6.39-3.69c-.37-.22-.66-.48-.91-.83-1.01-1.33-1.02-3.34-.74-4.91.55-3.03,2.44-6.26,4.83-8.18l.28-.22c.04-.35.09-.67.14-1.01.86-4.91,4.28-10.4,8.62-12.93,1.71-.99,3.93-1.66,5.83-.83l.19.09,1.32.77c1.19-1.06,2.82-2.06,4.46-2.04.4.01.82.09,1.18.24l.18.08,2.78,1.61.3-.06c.64-.11,1.32-.08,1.93.17l.21.1,6.4,3.69c1.22.6,1.99,2.02,1.98,4.11,0,3.95-2.77,8.75-6.2,10.73l-22.01,12.7Z"/>
      <path class="cls-2" d="M12.88,33.65h0,0ZM18.28,1.41c-1.5,0-2.94.67-3.79,1.16-4.1,2.38-7.58,7.62-8.48,12.73-.05.34-.09.65-.14.99,0,.09-.05.16-.11.21l-.28.22c-2.33,1.87-4.18,5.01-4.72,7.99-.17.92-.43,3.21.68,4.68.23.3.49.54.83.74l6.38,3.68c1.08.63,2.53.47,4.08-.43l22.01-12.7c3.33-1.92,6.04-6.61,6.04-10.45,0-1.87-.66-3.27-1.82-3.83l-6.59-3.78c-.5-.2-1.11-.25-1.76-.14l-.29.05c-.07.02-.15,0-.21-.03l-2.94-1.67c-.31-.12-.69-.2-1.06-.2-.02,0-.04,0-.06,0-1.71,0-3.36,1.22-4.19,1.96-.1.09-.24.11-.36.04l-1.48-.84c-.58-.25-1.17-.36-1.76-.36h0ZM10.12,34.8c-.64,0-1.24-.15-1.77-.46l-6.39-3.69c-.41-.24-.73-.53-1.01-.9C-.3,28.09-.02,25.59.16,24.59c.57-3.12,2.51-6.4,4.95-8.36l.18-.14c.04-.3.07-.59.12-.9.92-5.28,4.53-10.68,8.77-13.15,1.29-.75,3.8-1.85,6.11-.84l.2.09,1.15.67C22.59,1.16,24.34-.02,26.14,0c.45,0,.9.1,1.29.25l.19.08,2.7,1.57.18-.04c.76-.13,1.49-.06,2.11.18l.22.09,6.41,3.7c1.36.67,2.15,2.27,2.15,4.38,0,4.04-2.85,8.97-6.35,10.99l-22.01,12.69h0c-1.02.59-2.01.89-2.92.89Z"/>
      <path class="cls-1" d="M12.88,33.65c-3.42,1.97-6.19.37-6.19-3.59,0-3.59,2.29-7.87,5.27-10.12.56-5.34,4.27-11.35,8.76-13.94,2.98-1.72,5.61-1.53,7.22.15.56-.51,1.15-.96,1.76-1.31,2.72-1.57,5.03-.88,5.87,1.45,3.11-1.41,5.54.24,5.53,3.93,0,3.95-2.77,8.75-6.2,10.73l-22.01,12.7Z"/>
      <path class="cls-2" d="M12.88,33.65h0,0ZM24.66,5.11c-1.15,0-2.44.38-3.78,1.15-4.35,2.51-8.06,8.41-8.6,13.71,0,.09-.06.17-.12.22-2.94,2.2-5.15,6.44-5.15,9.86,0,1.8.59,3.13,1.66,3.75,1.08.62,2.52.46,4.07-.43l22.01-12.7c3.33-1.92,6.04-6.61,6.04-10.45,0-1.73-.55-3.04-1.55-3.69-.93-.59-2.19-.58-3.55.03-.08.04-.17.04-.25.01-.08-.04-.14-.11-.17-.18-.35-.96-.96-1.62-1.77-1.92-1.01-.37-2.31-.15-3.66.63-.57.34-1.16.76-1.7,1.28-.12.11-.32.1-.43-.02-.79-.84-1.84-1.25-3.05-1.25h0ZM10.12,34.8c-.64,0-1.24-.15-1.76-.46-1.27-.73-1.98-2.25-1.98-4.29,0-3.62,2.23-7.92,5.3-10.28.62-5.44,4.42-11.47,8.9-14.05,2.87-1.65,5.6-1.65,7.37,0,.52-.45,1.05-.84,1.6-1.16,1.5-.87,2.99-1.1,4.18-.67.9.33,1.58,1.01,2.01,1.98,1.44-.57,2.8-.53,3.83.13,1.18.76,1.83,2.26,1.83,4.21,0,4.04-2.85,8.97-6.35,10.99l-22.01,12.69h0c-1.02.59-2.01.89-2.92.89Z"/>
      <path class="cls-2" d="M11.96,20.25c-.05,0-.11-.02-.15-.04l-6.39-3.69c-.15-.09-.2-.28-.12-.43.08-.15.27-.2.42-.11l6.39,3.69c.15.08.2.27.11.42-.05.1-.16.16-.27.16Z"/>
      <path class="cls-2" d="M28.02,6.31c-.05,0-.11-.02-.16-.04l-6.35-3.66c-.15-.09-.19-.28-.11-.43.09-.15.28-.19.43-.11l6.33,3.67c.15.08.2.27.12.42-.05.09-.16.16-.26.16Z"/>
      <path class="cls-2" d="M33.9,4.62c-.05,0-.1-.02-.15-.04l-3.62-2.1c-.15-.08-.2-.27-.11-.42.08-.15.27-.2.42-.11l3.62,2.09c.15.09.2.27.11.42-.06.1-.15.16-.27.16Z"/>
    </g>
  </g>
</svg>