<?xml version="1.0" encoding="UTF-8"?>
<svg id="Layer_2" data-name="Layer 2" xmlns="http://www.w3.org/2000/svg" viewBox="0 0 36.04 42.96" fill="currentColor">
  <defs>
    <style>
      .cls-1 {
        fill: #fff;
      }

      .cls-1, .cls-2, .cls-3, .cls-4 {
        fill-rule: evenodd;
      }

      .cls-2 {
        fill: #1a87c7;
      }

      .cls-3 {
        fill: #bdedf8;
      }

      .cls-4 {
        fill: #66ceef;
      }
    </style>
  </defs>
  <g id="_Layer_" data-name="&amp;lt;Layer&amp;gt;">
    <g>
      <path class="cls-4" d="M14.18,28.62l-1.83-1.05c2.91,2.11,2.91,5.05,2.91,8.42l1.81,1.05c0-3.37,0-6.31-2.88-8.42Z"/>
      <path class="cls-2" d="M15.57,35.82l1.2.69c-.03-2.98-.16-5.56-2.54-7.46,1.31,1.94,1.34,4.3,1.34,6.77h0ZM17.06,37.35c-.05,0-.11-.01-.13-.04l-1.84-1.05c-.08-.05-.16-.16-.16-.27,0-3.3,0-6.15-2.75-8.17-.16-.1-.18-.28-.08-.42.08-.14.26-.18.39-.1l1.83,1.05s0,.01.03.02c3.01,2.21,3.01,5.35,3.01,8.67,0,.11-.05.21-.16.26-.03.03-.08.04-.16.04Z"/>
      <path class="cls-4" d="M17.06,37.05l-1.81-1.05c-2.46.81-4.11,1.03-6.52-.1l1.81,1.05c2.44,1.13,4.06.91,6.52.1Z"/>
      <path class="cls-2" d="M11.4,36.97c1.7.65,3.07.53,4.9-.01l-1.07-.63c-1.47.47-2.62.73-3.83.64h0ZM13.68,38.03c-1.02,0-2.04-.24-3.27-.81l-1.83-1.06c-.13-.08-.18-.27-.11-.41.08-.15.24-.21.39-.14,2.31,1.07,3.88.89,6.31.08.08-.03.16-.02.24.03l1.81,1.05c.11.06.18.18.16.3,0,.12-.08.22-.21.26-1.34.43-2.41.7-3.48.7Z"/>
      <path class="cls-4" d="M31.31,14.67l-1.81-1.05c.08,7.35-4.32,15.21-9.9,19.8l1.81,1.05c5.58-4.6,9.98-12.46,9.9-19.81Z"/>
      <path class="cls-2" d="M20.15,33.39l1.23.72c5.79-4.85,9.64-12.54,9.62-19.25l-1.18-.69c-.13,6.74-3.96,14.34-9.67,19.23h0ZM21.41,34.79c-.05,0-.1-.01-.16-.04l-1.81-1.05c-.08-.05-.13-.14-.13-.24-.03-.1.03-.2.11-.26,5.92-4.88,9.85-12.75,9.77-19.57,0-.11.05-.21.16-.27.1-.06.21-.06.31,0l1.81,1.05c.11.06.16.15.16.26.08,6.99-3.96,15.05-10.01,20.05-.05.05-.13.07-.21.07Z"/>
      <path class="cls-1" d="M8.07,42.02c-6.34-3.72-6.26-15.61,0-26.51l.24-.37,3.09,1.79-.21.36c-4.61,8-4.61,16.65-.03,19.36l.21.12-.21.36-2.7,4.64-.18.37-.21-.12Z"/>
      <path class="cls-2" d="M8.41,15.57l-.05.1c-6.18,10.75-6.26,22.42-.21,26.06l2.8-4.83c-4.66-2.82-4.69-11.66-.05-19.75l.08-.1-2.57-1.48h0ZM8.28,42.45c-.05,0-.11-.02-.16-.04l-.21-.12h0c-6.44-3.78-6.47-15.86-.1-26.93l.21-.37c.05-.07.1-.12.18-.14.08-.02.16-.01.24.03l3.12,1.79c.13.08.18.27.11.42l-.21.37c-4.51,7.83-4.56,16.32-.13,18.94l.21.12c.13.09.18.27.1.42l-3.09,5.37c-.05.07-.13.12-.18.14-.05,0-.05.01-.08.01Z"/>
      <path class="cls-3" d="M27.8.37l3.01,1.74-3.09,5.37c6.42,3.8,3.12,14.4-.03,19.85l-3.01-1.74c2.96-5.17,6.13-15.04.89-19.27L27.8.37Z"/>
      <path class="cls-2" d="M25.1,25.47l2.49,1.44c3.27-5.88,5.92-15.64-.03-19.16-.16-.09-.18-.27-.11-.42l2.93-5.1-2.44-1.41-2.02,5.4c4.92,4.24,2.28,13.69-.84,19.25h0ZM27.7,27.63c-.05,0-.11-.01-.16-.04l-3.01-1.74c-.13-.09-.18-.27-.11-.42,3.09-5.4,5.92-14.88.97-18.87-.1-.08-.16-.22-.1-.35L27.51.26c.03-.08.1-.15.18-.18.08-.03.18-.02.26.02l3.01,1.74c.08.04.13.11.16.19,0,.08,0,.16-.05.23l-2.93,5.11c6.08,3.93,3.25,14.13-.18,20.11-.03.07-.1.12-.18.14-.03,0-.05.01-.08.01Z"/>
      <path class="cls-4" d="M30.26,28.81l-2.36-1.36-.34-.2-.03.03c-1.65,2.8-3.77,5.32-6.13,7.2v-1.4c0-7.01,3.49-13.52,9.2-17.99l.03-.03c-.03-.68-.1-1.32-.21-1.92-.16-.8-.37-1.53-.66-2.18-.08-.16-.16-.32-.24-.47l-20.65,11.92c-.11.27-.18.53-.26.8-.29.99-.52,1.98-.68,2.96-.11.76-.18,1.51-.21,2.25,5.4-1.76,9.33.36,9.33,7.18v1.45c-2.25.86-4.3.89-5.95.18l-2.65,4.56-.05.12c2.83,1.32,6.6.95,10.71-1.43,4.32-2.5,8.25-6.77,11.14-11.66h0ZM8.07,15.02c2.88-4.82,6.76-9.01,11.06-11.48,4.4-2.55,8.41-2.79,11.29-1.12.05.03.1.06.16.09l-2.65,4.6-.03.04c-.05-.03-.11-.07-.16-.09-1.13-.65-2.46-.92-3.96-.77-1.44.14-3.01.67-4.66,1.63-1.65.96-3.25,2.25-4.69,3.76-1.36,1.45-2.62,3.12-3.69,4.89l-2.25-1.3-.42-.25h0Z"/>
      <path class="cls-2" d="M8.49,14.91l2.15,1.24c1.07-1.72,2.28-3.3,3.59-4.69,1.49-1.58,3.09-2.87,4.74-3.82,1.65-.96,3.28-1.52,4.8-1.67,1.49-.15,2.86.1,4.03.75l2.36-4.1c-2.91-1.62-6.76-1.2-10.87,1.18-4.01,2.32-7.83,6.25-10.79,11.1h0ZM10.74,16.88c-.05,0-.1-.01-.13-.04l-2.67-1.55c-.08-.04-.13-.11-.16-.19-.03-.08,0-.17.03-.24,3.01-5.06,6.97-9.18,11.16-11.59,4.35-2.52,8.49-2.92,11.61-1.12l.16.1c.16.09.21.27.1.42l-2.65,4.6c-.03.07-.1.14-.18.17-.1.02-.18.03-.26-.02l-.16-.09c-1.07-.63-2.36-.88-3.77-.73-1.44.14-2.96.68-4.53,1.59-1.6.92-3.14,2.16-4.61,3.71-1.36,1.43-2.59,3.06-3.64,4.84-.08.1-.18.15-.29.15h0ZM8.86,41.75l2.38-4.15c1.73.65,3.77.56,5.95-.28.1-.04.18-.16.18-.28v-1.45c0-3.3-.94-5.72-2.7-7-1.62-1.18-3.9-1.39-6.6-.59.03-.58.11-1.18.18-1.78.16-.96.37-1.94.66-2.92.08-.22.16-.45.21-.68l20.28-11.7c.03.05.05.11.08.17.29.63.5,1.34.65,2.11.1.56.16,1.12.18,1.72-5.84,4.63-9.2,11.25-9.2,18.17v1.4c0,.12.05.23.16.28.11.05.24.04.34-.04,2.28-1.82,4.35-4.24,6.05-7.05l2.17,1.25c-2.96,4.94-6.81,8.93-10.87,11.28-3.75,2.16-7.31,2.7-10.11,1.55h0ZM11.98,42.96c-1.34,0-2.57-.26-3.69-.78-.08-.04-.13-.11-.16-.19-.03-.08-.03-.17.03-.25l2.7-4.67c.08-.14.24-.19.39-.13,1.57.67,3.46.63,5.53-.11v-1.24c0-3.09-.86-5.34-2.46-6.5-1.55-1.12-3.8-1.26-6.47-.38-.1.03-.21.02-.29-.04-.08-.06-.13-.16-.13-.26.03-.74.1-1.51.24-2.29.16-.99.37-2,.68-3,.08-.27.16-.54.24-.81.03-.07.08-.13.16-.17l20.65-11.92c.08-.04.16-.05.23-.03.08.02.16.08.18.15.08.16.16.32.24.49.31.68.55,1.44.71,2.25.1.63.18,1.28.21,1.97,0,.1-.05.2-.13.26-5.79,4.55-9.09,11.02-9.09,17.78v.75c2.1-1.78,4.01-4.08,5.55-6.7.11-.14.31-.23.45-.14l2.7,1.56c.08.04.13.11.13.19.03.08.03.17-.03.24-3.01,5.15-7.02,9.33-11.24,11.77-2.57,1.47-5.06,2.22-7.31,2.22Z"/>
      <path class="cls-1" d="M23.11,17c-.32-1.7-7.42,2.41-7.73,4.45-1.6,10.89,9.33,4.57,7.73-4.45Z"/>
      <path class="cls-2" d="M22.46,16.91h0c-1.73.03-6.55,3.09-6.76,4.59-.39,2.68-.05,4.51.97,5.16.71.44,1.68.28,2.73-.41,2.23-1.51,4.14-5.15,3.41-9.19h0s-.03-.15-.34-.15h0ZM17.56,27.52c-.45,0-.86-.11-1.2-.34-.89-.56-1.83-2.01-1.26-5.77.29-1.94,5.48-5.09,7.34-5.12.79-.04.94.45.97.66.79,4.3-1.26,8.19-3.67,9.81-.76.5-1.49.76-2.18.76Z"/>
      <path class="cls-3" d="M22.22,18.22c-.24-1.3-5.71,1.85-5.95,3.42-1.23,8.37,7.18,3.51,5.95-3.42Z"/>
      <path class="cls-2" d="M21.72,18.22c-.11,0-.26.02-.47.08-1.62.43-4.53,2.43-4.66,3.39-.29,2-.03,3.42.71,3.89.5.32,1.26.2,2.02-.31,1.7-1.15,3.14-3.92,2.59-6.99h0v-.02s-.08-.04-.18-.04h0ZM17.95,26.37c-.37,0-.68-.09-.97-.27-.71-.44-1.44-1.57-1-4.5.21-1.52,4.27-3.97,5.71-3.99.65,0,.79.39.81.56h0c.6,3.34-1,6.35-2.86,7.61-.58.4-1.18.6-1.7.6Z"/>
      <path class="cls-4" d="M9.96,19.69l17.74-10.25,1.83,1.05-.47.26-.73.43-19.44,11.23c.24-.73.52-1.46.84-2.18.08-.18.16-.36.24-.53Z"/>
      <path class="cls-2" d="M10.19,19.9c-.08.14-.13.29-.18.43-.21.46-.39.92-.58,1.38l19.47-11.24-1.2-.69-17.5,10.12h0ZM8.88,22.71c-.08,0-.16-.02-.21-.07-.11-.08-.13-.21-.11-.34.26-.73.55-1.47.86-2.21.08-.18.16-.36.24-.54.03-.06.08-.11.13-.14l17.76-10.25c.08-.05.21-.05.29,0l1.83,1.05c.08.06.13.16.13.27s-.05.21-.13.27l-20.65,11.92c-.05.03-.1.04-.16.04Z"/>
      <path class="cls-1" d="M31.02,2.23c6.52,3.84,6.18,15.75-.24,26.88-1.02-.6-2.07-1.19-3.09-1.79,3.51-6.09,4.72-12.5,2.78-16.79-.65-1.46-1.55-2.35-2.75-3.06l.21-.36,2.67-4.64.21-.37.21.12Z"/>
      <path class="cls-2" d="M28.12,27.21l2.57,1.48c6.26-11.06,6.37-22.48.24-26.16l-2.78,4.84c1.21.77,2.02,1.72,2.59,3.04,1.91,4.23.94,10.49-2.62,16.8h0ZM30.79,29.42c-.05,0-.1-.01-.16-.04l-3.09-1.79c-.13-.08-.18-.27-.1-.42,3.51-6.14,4.58-12.46,2.75-16.51-.6-1.31-1.39-2.19-2.62-2.92-.16-.09-.18-.27-.11-.42l3.09-5.36c.05-.07.11-.12.18-.14.08-.02.18-.01.23.03l.21.12c6.52,3.84,6.47,15.83-.1,27.3-.05.07-.13.12-.21.14-.03,0-.05.01-.08.01Z"/>
      <path class="cls-2" d="M27.72,7.78s-.05,0-.08-.01l-1.28-.34c-.16-.04-.26-.21-.21-.38.05-.17.21-.26.37-.22l1.28.34c.16.05.26.22.21.38-.03.14-.16.23-.29.23Z"/>
      <path class="cls-4" d="M7.81,15.48l-1.81-1.05C9.7,8.13,17.14-.07,24.92.32c2.36.12,3.51.95,5.5,2.1C22.3-1.83,12.84,7.5,8.65,14.09l-.84,1.39Z"/>
      <path class="cls-2" d="M6.42,14.32l1.28.74.68-1.13C12.29,7.78,20.07.18,27.38,1.14c-.73-.28-1.47-.46-2.46-.51-6.97-.36-14.25,6.58-18.5,13.69h0ZM7.81,15.79c-.05,0-.1-.01-.16-.04l-1.81-1.05c-.08-.04-.13-.11-.13-.19-.03-.08-.03-.16.03-.23C9.75,7.45,17.19-.38,24.94.01c2.18.11,3.35.81,5,1.77l.63.37c.16.08.21.27.11.41-.08.15-.26.2-.39.13C22.56-1.35,13.26,7.39,8.91,14.25l-.84,1.39c-.05.09-.16.15-.26.15Z"/>
      <path class="cls-3" d="M8.07,42.02c-4.24-2.44-6.76-3.68-7.57-9.56-.92-6.5,1.57-13.5,4.77-19.06l3.04,1.74c-3.96,6.88-8.02,19.53-1.78,25.69l1.55,1.19Z"/>
      <path class="cls-2" d="M5.4,13.82C3.17,17.76-.21,25.16.81,32.42c.6,4.36,2.1,6.07,4.66,7.73-5.35-6.78-.94-18.93,2.38-24.88l-2.46-1.43h0ZM8.07,42.33c-.05,0-.1-.01-.16-.04l-.45-.26c-4.03-2.32-6.45-3.71-7.28-9.53-1.05-7.61,2.57-15.33,4.82-19.25.03-.07.1-.12.18-.14.08-.02.16-.01.23.03l3.01,1.74c.16.09.21.27.1.42-3.43,5.98-8.23,18.97-1.81,25.31l1.52,1.17c.11.1.16.28.05.41-.05.09-.16.14-.24.14Z"/>
    </g>
  </g>
</svg>