<?xml version="1.0" encoding="UTF-8"?>
<svg id="Layer_2" data-name="Layer 2" xmlns="http://www.w3.org/2000/svg" viewBox="0 0 42.35 35.81" fill="currentColor">
  <defs>
    <style>
      .cls-1 {
        fill: #fff;
      }

      .cls-1, .cls-2, .cls-3, .cls-4 {
        fill-rule: evenodd;
      }

      .cls-2 {
        fill: #1a87c7;
      }

      .cls-3 {
        fill: #bdedf8;
      }

      .cls-4 {
        fill: #66ceef;
      }
    </style>
  </defs>
  <g id="_Layer_" data-name="&amp;lt;Layer&amp;gt;">
    <g>
      <polygon class="cls-4" points="35.1 12.32 21.22 4.31 7.25 12.38 21.12 20.39 35.1 12.32"/>
      <path class="cls-2" d="M7.86,12.38l13.26,7.66,13.36-7.71-13.26-7.65-13.36,7.71h0ZM21.12,20.7s-.1-.02-.15-.04L7.09,12.65c-.09-.05-.15-.16-.15-.27s.05-.21.15-.26l13.98-8.07c.09-.05.22-.05.31,0l13.87,8.01c.09.05.16.15.16.26s-.06.21-.16.27l-13.98,8.07s-.09.04-.16.04Z"/>
      <polygon class="cls-4" points="21.12 20.39 7.25 12.38 7.25 27.49 21.12 35.5 21.12 20.39"/>
      <path class="cls-2" d="M7.55,27.31l13.26,7.66v-14.39l-13.26-7.66v14.39h0ZM21.12,35.81s-.1-.01-.15-.04l-13.88-8.01c-.09-.06-.15-.16-.15-.27v-15.11c0-.11.05-.21.15-.26.09-.06.22-.06.31,0l13.87,8.01c.1.05.16.16.16.27v15.11c0,.11-.06.21-.16.26-.04.03-.09.04-.16.04Z"/>
      <polygon class="cls-1" points="35.1 27.43 35.1 12.32 21.12 20.39 21.12 35.5 35.1 27.43"/>
      <path class="cls-2" d="M35.1,27.43h0,0ZM21.43,20.57v14.39l13.36-7.71v-14.39l-13.36,7.71h0ZM21.12,35.81s-.1-.01-.15-.04c-.09-.06-.16-.16-.16-.27v-15.11c0-.11.06-.21.16-.27l13.97-8.07c.1-.05.22-.05.31,0,.09.06.16.16.16.27v15.11c0,.11-.06.21-.16.27l-13.98,8.07c-.05.03-.1.04-.16.04Z"/>
      <polygon class="cls-4" points="35.1 12.32 21.22 4.31 21.12 20.39 35.1 12.32"/>
      <path class="cls-2" d="M21.53,4.85l-.09,15.01,13.05-7.53-12.95-7.48h0ZM21.12,20.7s-.1-.02-.15-.04c-.09-.05-.16-.16-.16-.27l.1-16.08c0-.11.06-.21.16-.26.09-.05.22-.05.31,0l13.87,8.01c.09.05.16.15.16.26s-.06.21-.16.27l-13.98,8.07s-.09.04-.16.04Z"/>
      <polygon class="cls-3" points="21.22 4.31 14.29 .31 .31 8.38 7.25 12.38 21.22 4.31"/>
      <path class="cls-2" d="M.93,8.38l6.32,3.65,13.36-7.71L14.29.66.93,8.38h0ZM7.25,12.69c-.05,0-.11-.02-.16-.04L.16,8.64c-.1-.05-.16-.16-.16-.27s.06-.21.16-.27L14.13.04c.1-.06.21-.06.3,0l6.94,4c.09.06.15.16.15.27s-.06.21-.15.26L7.4,12.65s-.1.04-.15.04Z"/>
      <polygon class="cls-3" points="42.03 16.33 35.1 12.32 21.12 20.39 28.06 24.4 42.03 16.33"/>
      <path class="cls-2" d="M21.74,20.39l6.32,3.65,13.36-7.71-6.32-3.65-13.36,7.71h0ZM28.06,24.71c-.05,0-.11-.01-.15-.04l-6.94-4c-.09-.06-.16-.16-.16-.27s.06-.21.16-.27l13.97-8.07c.1-.06.22-.06.31,0l6.94,4c.1.06.16.16.16.27s-.06.21-.16.27l-13.98,8.07s-.1.04-.16.04Z"/>
      <polygon class="cls-3" points="21.12 4.31 28.06 .31 42.03 8.38 35.1 12.38 21.12 4.31"/>
      <path class="cls-2" d="M21.74,4.31l13.36,7.71,6.32-3.65L28.06.66l-6.32,3.65h0ZM35.1,12.69c-.05,0-.11-.02-.16-.04l-13.97-8.07c-.09-.06-.16-.16-.16-.26s.06-.21.16-.27L27.91.04c.1-.06.21-.06.31,0l13.98,8.07c.1.06.16.16.16.27s-.06.21-.16.27l-6.94,4c-.05.03-.1.04-.16.04Z"/>
      <polygon class="cls-3" points=".31 16.33 7.25 12.32 21.22 20.39 14.29 24.4 .31 16.33"/>
      <path class="cls-2" d="M.93,16.33l13.36,7.71,6.32-3.65-13.36-7.71-6.32,3.65h0ZM14.29,24.71c-.06,0-.11-.01-.16-.04L.16,16.6c-.1-.06-.16-.16-.16-.27s.06-.21.16-.27l6.94-4c.09-.06.22-.06.31,0l13.97,8.07c.09.05.15.16.15.27s-.06.21-.15.27l-6.94,4s-.09.04-.15.04Z"/>
      <path class="cls-2" d="M30.73,28.96c-.11,0-.21-.06-.26-.15-.09-.15-.03-.34.11-.42l3.23-1.87c.14-.08.33-.03.42.11.09.15.04.33-.11.42l-3.23,1.86s-.1.04-.15.04Z"/>
      <path class="cls-2" d="M30.9,25.77s-.05,0-.08-.01c-.16-.05-.26-.22-.22-.38l.31-1.1c.05-.19.16-.59.49-.6.14,0,.31.05.44.35l.32.77c.06.16-.02.34-.17.4-.15.07-.34-.01-.4-.17l-.14-.35-.25.87c-.04.14-.16.23-.3.23Z"/>
      <path class="cls-2" d="M31.42,27.53c-.17,0-.31-.14-.31-.31v-3.22c0-.17.14-.31.31-.31s.31.14.31.31v3.22c0,.17-.14.31-.31.31Z"/>
      <path class="cls-2" d="M32.52,24.84s-.06,0-.09-.01c-.17-.04-.26-.22-.21-.38l.3-1.1c.05-.19.16-.58.5-.61.15,0,.31.05.43.35l.31.77c.06.16-.01.34-.17.4-.15.07-.34-.01-.41-.17l-.14-.35-.24.88c-.03.13-.17.22-.29.22Z"/>
      <path class="cls-2" d="M33.03,26.6c-.17,0-.31-.14-.31-.31v-3.22c0-.17.14-.31.31-.31s.31.14.31.31v3.22c0,.17-.14.31-.31.31Z"/>
    </g>
  </g>
</svg>