<?xml version="1.0" encoding="UTF-8"?>
<svg id="Layer_2" data-name="Layer 2" xmlns="http://www.w3.org/2000/svg" viewBox="0 0 34.47 48.99" fill="currentColor">
  <defs>
    <style>
      .cls-1 {
        fill: #fff;
      }

      .cls-1, .cls-2, .cls-3, .cls-4 {
        fill-rule: evenodd;
      }

      .cls-2 {
        fill: #1a87c7;
      }

      .cls-3 {
        fill: #bdedf8;
      }

      .cls-4 {
        fill: #66ceef;
      }
    </style>
  </defs>
  <g id="_Layer_" data-name="&amp;lt;Layer&amp;gt;">
    <g>
      <path class="cls-1" d="M34.16,33.57v-4.82c.01-3.85-4.74-5.25-8.03-5.54-.28.57-.56,1.14-.86,1.69l-.1.17c.86,2.04-2.16,5.03-5.3,6.21-2.31.86-4.76.52-7.01-.35-2.38-.92-3.83-2.23-3.6-3.41-1.65,2.14-3.94,3.74-5.75,5.72l-.33.37-.32.37-.31.38-.3.38-.28.38-.26.39-.24.39-.24.4-.2.41-.18.41-.16.42-.14.43-.11.42-.08.43-.05.45v.45s-.01,2.41-.01,2.41v.15s0,1.36,0,1.36c0,1.45.18,1.83,1.76,2.75,12.18,7.03,32.09-9.99,32.09-12.83Z"/>
      <path class="cls-2" d="M9.01,28.31c-.87,1.01-1.87,1.91-2.84,2.79-.82.75-1.68,1.52-2.43,2.35l-1.24,1.49-.76,1.15-.43.78-.32.8-.24.82-.11.84-.02,4.33c0,1.34.1,1.62,1.61,2.48,6.79,3.92,15.7-.05,20.4-2.77,6.6-3.81,11.23-8.62,11.23-9.78v-4.82c0-4.14-5.88-5.04-7.54-5.21-.25.51-.5,1.02-.77,1.5l-.02.04c.2.59.15,1.26-.17,1.98-.75,1.75-2.96,3.6-5.36,4.49-2.15.8-4.57.69-7.23-.35-2.07-.8-3.4-1.85-3.74-2.91h0ZM8.74,48.39c-2.35,0-4.68-.49-6.83-1.72-1.63-.95-1.91-1.4-1.91-3.02l.02-4.38.13-.92.25-.9.35-.86.45-.83.81-1.2,1.27-1.54c.78-.84,1.64-1.62,2.49-2.38,1.14-1.03,2.31-2.1,3.26-3.32.09-.11.24-.15.37-.09.13.05.21.2.18.34-.19.98,1.15,2.18,3.41,3.06,2.5.97,4.79,1.1,6.79.35,2.22-.83,4.34-2.58,5.01-4.16.27-.63.3-1.17.11-1.64-.03-.09-.03-.18,0-.26l.1-.18c.3-.54.57-1.1.85-1.67.05-.11.17-.17.3-.17,4.02.35,8.32,2.06,8.32,5.84v4.82c0,1.66-5.15,6.64-11.53,10.33-3.36,1.94-8.81,4.49-14.19,4.49Z"/>
      <path class="cls-1" d="M9.26,27.52c.25-.32.98-1.07,1.17-1.4.39-.67.38-.92.46-1.71,3.36,3.88,11.25,6.15,14.27.65h0c.86,2.04-2.16,5.03-5.3,6.21-2.31.86-4.76.52-7.01-.35-2.38-.92-3.83-2.23-3.6-3.41Z"/>
      <path class="cls-2" d="M9.55,27.65c-.11.97,1.22,2.14,3.42,2.99,2.5.97,4.79,1.1,6.79.35,2.22-.83,4.33-2.58,5.01-4.16.14-.33.22-.63.24-.92-1.11,1.56-2.73,2.49-4.74,2.7-3.06.31-6.8-1.13-9.14-3.48-.05.37-.15.67-.43,1.16-.15.24-.48.61-.79.96-.14.16-.27.3-.36.41h0ZM17.02,32.08c-1.35,0-2.77-.29-4.27-.87-2.63-1.02-4.04-2.43-3.79-3.76,0-.04.03-.09.06-.13.1-.12.25-.3.43-.49.27-.3.61-.69.72-.88.31-.53.33-.75.39-1.34l.03-.24c0-.12.09-.23.21-.26.12-.04.24,0,.33.09,2.17,2.52,5.99,4.1,9.08,3.78,2.08-.22,3.7-1.28,4.68-3.08.06-.09.18-.18.29-.16.12,0,.23.08.27.19.26.63.23,1.34-.12,2.12-.75,1.75-2.96,3.6-5.36,4.49-.94.35-1.93.52-2.97.52Z"/>
      <path class="cls-3" d="M27.78,17.67c-1.94,8.47-6.78,14.66-19.36,4.13l-1.53,7.85c9.8,12.34,22.39,2.19,21.57-4.84l-.68-7.13Z"/>
      <path class="cls-2" d="M7.22,29.57c4.06,5.04,9.19,6.77,14.1,4.73,4.18-1.73,7.24-5.98,6.83-9.46l-.5-5.4c-1.27,4.34-3.25,6.99-5.89,7.87-3.34,1.12-7.75-.55-13.13-4.95l-1.4,7.2h0ZM17.2,35.74c-2.99,0-6.84-1.22-10.56-5.9-.06-.07-.08-.17-.06-.25l1.53-7.85c.03-.1.1-.19.2-.23.11-.04.22-.02.3.05,5.39,4.5,9.74,6.24,12.93,5.17,2.76-.93,4.76-4,5.93-9.14.04-.15.18-.25.32-.23.16,0,.28.12.29.28l.68,7.13c.44,3.8-2.72,8.23-7.21,10.1-.96.39-2.48.87-4.35.87Z"/>
      <path class="cls-3" d="M28.16,21.7c-1.94,8.46-4.82,11.99-15.17,17.4l1.57,9.59c10.42-4.86,15.12-14.67,14.31-21.7l-.71-5.28Z"/>
      <path class="cls-2" d="M13.33,39.26l1.47,8.96c10.1-4.88,14.57-14.32,13.76-21.21l-.49-3.68c-2.01,7.56-5.22,10.93-14.74,15.92h0ZM14.57,48.99c-.05,0-.11,0-.15-.04-.09-.04-.14-.13-.16-.23l-1.57-9.58c-.02-.13.04-.26.17-.32,10.11-5.29,13.05-8.67,15-17.2.04-.15.14-.26.31-.24.15.01.28.12.29.27l.71,5.28c.84,7.21-3.87,17.08-14.48,22.03-.04.02-.09.03-.13.03Z"/>
      <path class="cls-1" d="M23.31,27.69c1.27-1.22,2.31-3.44,3.3-5.47,1.35-2.76,1.29-5.93,1.3-8.47l-.47-1.51c-.17-.62-.17-1.29-.19-1.92,0-.83-.03-1.59-.45-1.97-.69-.62-1.77.32-3.03,1.44-.86.77-1.8,1.59-2.82,2.18-1.02.59-1.96.84-2.82,1.08h0c-.84.23-1.58.43-2.19.94-.96.8-.91,1.45-.9,2.6.02,1.09.07,2.15-.59,4.45-.08-.58-.22-1.17-.44-1.71-.17-.4-.38-.79-.68-1.1-.33-.36-.75-.61-1.24-.64h0s-.07-.01-.1-.01h0s-.07,0-.11.01h0c-1.7.1-2.06,2.17-1.77,3.44.17.77.61,1.67.96,2.33.12.22-.03.79-.14,1.11,2.43,2.74,5.94,4.62,8.75,4.62,1.24,0,2.71-.51,3.62-1.39Z"/>
      <path class="cls-2" d="M11.28,24.38c2.38,2.63,5.74,4.39,8.4,4.39h0c1.23,0,2.61-.52,3.42-1.29h0c1.14-1.1,2.1-3.08,3.03-4.99l.19-.39c1.24-2.55,1.25-5.51,1.27-7.89v-.4l-.45-1.47c-.18-.68-.19-1.38-.2-2.01-.02-.75-.03-1.46-.36-1.75-.48-.44-1.51.48-2.62,1.45-.86.76-1.82,1.61-2.87,2.22-1.04.6-2.01.86-2.87,1.09-.01,0-.02.01-.03.01-.81.22-1.51.41-2.07.88-.81.69-.8,1.21-.78,2.25v.28c.03,1.06.04,2.15-.6,4.37-.03.14-.17.24-.31.23-.15-.02-.27-.12-.29-.27-.09-.64-.23-1.17-.42-1.64-.17-.41-.37-.75-.62-1.01-.22-.24-.56-.51-1.02-.55h-.18c-.45.02-.81.22-1.08.58-.51.69-.57,1.77-.4,2.49.13.58.44,1.34.93,2.24.12.23.11.63-.06,1.18h0ZM19.68,29.39c-2.87,0-6.48-1.91-8.97-4.73-.08-.08-.1-.19-.06-.3.15-.48.17-.8.15-.88-.5-.95-.84-1.76-.98-2.4-.2-.88-.12-2.15.51-2.99.37-.5.9-.79,1.54-.83h.25c.52.04,1.02.3,1.44.75.29.31.54.71.74,1.19.07.16.12.33.18.5.29-1.33.27-2.15.26-2.93v-.29c-.03-1.08-.03-1.86,1-2.73.66-.56,1.45-.77,2.29-1t.02,0c.87-.24,1.77-.47,2.74-1.04.99-.57,1.9-1.36,2.76-2.14,1.38-1.22,2.57-2.26,3.45-1.44.52.47.54,1.31.56,2.2,0,.58.02,1.25.17,1.84l.46,1.51s.02.06.02.09v.45c-.02,2.44-.02,5.48-1.33,8.15l-.19.39c-.96,1.95-1.94,3.98-3.16,5.16-.93.9-2.43,1.47-3.84,1.47h0Z"/>
      <path class="cls-4" d="M7.85,6.88c-2.23,4.1-.83,15.31,3.03,17.75.08-.2.33-1.02.19-1.28-.36-.66-.79-1.56-.96-2.33-.84-3.69,3.56-5.42,4.34.02.66-2.3.61-3.36.59-4.45-.02-1.15-.06-1.8.9-2.6.61-.51,1.36-.71,2.19-.94h0c.86-.24,1.8-.49,2.82-1.08,1.02-.59,1.95-1.42,2.82-2.18,1.27-1.12,2.35-2.07,3.03-1.44.42.38.44,1.15.45,1.97.02.63.03,1.31.19,1.92l.47,1.51c.12-1.99.08-4.3-.19-6.2-.54-3.66-2.18-3.8-6.69-6.19-.72-.38-1.66-1.01-3.05-1.05-3.41-.11-8.45,3.85-10.13,6.56Z"/>
      <path class="cls-2" d="M8.12,7.03c-2.1,3.86-.86,14.33,2.59,17.1.08-.28.12-.56.09-.64-.5-.95-.84-1.76-.98-2.4-.3-1.32.02-2.59.84-3.3.57-.5,1.32-.65,2-.4.5.19,1.33.73,1.82,2.31.29-1.34.27-2.15.26-2.93v-.29c-.03-1.08-.03-1.86,1-2.73.66-.56,1.45-.77,2.29-1t.02,0c.87-.24,1.77-.47,2.74-1.04.99-.57,1.9-1.36,2.76-2.14,1.38-1.22,2.57-2.26,3.45-1.44.52.47.54,1.31.56,2.2,0,.48.02,1.01.1,1.51,0-1.51-.08-2.99-.26-4.23-.42-2.89-1.53-3.44-4.49-4.92-.6-.3-1.28-.64-2.04-1.04l-.31-.17c-.65-.36-1.47-.82-2.6-.85-3.26-.12-8.24,3.81-9.85,6.41h0ZM10.88,24.94c-.06,0-.12-.02-.17-.05-4-2.52-5.46-13.91-3.14-18.16t0-.02C9.28,3.97,14.29,0,17.83,0h.15c1.28.04,2.21.56,2.88.93l.3.17c.75.39,1.42.73,2.02,1.03,2.99,1.49,4.36,2.17,4.83,5.39.26,1.81.33,4.08.19,6.27,0,.15-.12.27-.27.29-.16.02-.29-.08-.33-.22l-.47-1.51c-.18-.68-.19-1.38-.2-2.01-.02-.75-.03-1.46-.36-1.75-.48-.44-1.51.48-2.62,1.45-.86.76-1.82,1.61-2.87,2.22-1.04.6-2.01.86-2.87,1.09-.01,0-.02.01-.03.01-.81.22-1.51.41-2.07.88-.81.69-.8,1.21-.78,2.25v.28c.03,1.06.04,2.15-.6,4.37-.03.14-.17.24-.31.23-.15-.02-.27-.12-.29-.27-.23-1.67-.86-2.8-1.71-3.12-.46-.16-.97-.07-1.37.29-.51.44-.95,1.39-.64,2.71.13.58.44,1.34.93,2.24.24.44-.15,1.49-.17,1.54-.03.09-.1.16-.19.18-.03,0-.07.02-.1.02Z"/>
      <path class="cls-4" d="M19.18,26.28c.87-.5,3.29-1.65,4.01-2.92.72.43,3.14-1.2,4.01-1.7-.53-1.31-3.3-.9-4.01.33-.7-.43-3.47,2.36-4.01,4.29Z"/>
      <path class="cls-2" d="M23.02,22.26s-.15,0-.38.13c-.89.49-2.21,1.94-2.85,3.21,1.06-.57,2.61-1.46,3.13-2.39.04-.07.11-.12.19-.14.09-.03.17,0,.24.03.45.27,2.5-.98,3.18-1.4.09-.05.17-.1.24-.15-.26-.3-.7-.37-.98-.39-.95-.06-1.99.38-2.33.98-.04.07-.11.12-.19.15-.08.02-.16,0-.24-.03h0ZM19.18,26.59c-.07,0-.13-.02-.18-.06-.1-.08-.15-.21-.11-.33.46-1.67,2.55-4.01,3.71-4.47.16-.06.32-.09.45-.09.6-.79,1.83-1.15,2.77-1.09.82.05,1.43.41,1.66.99.05.14,0,.3-.13.38-.14.08-.3.18-.5.3-1.41.87-2.75,1.63-3.53,1.5-.75,1.06-2.44,1.98-3.48,2.55-.2.1-.37.2-.5.28-.05.03-.11.03-.16.03Z"/>
    </g>
  </g>
</svg>