<?xml version="1.0" encoding="UTF-8"?>
<svg id="Layer_2" data-name="Layer 2" xmlns="http://www.w3.org/2000/svg" viewBox="0 0 37.62 43.91" fill="currentColor">
  <defs>
    <style>
      .cls-1 {
        fill: #fff;
      }

      .cls-1, .cls-2, .cls-3, .cls-4 {
        fill-rule: evenodd;
      }

      .cls-2 {
        fill: #1a87c7;
      }

      .cls-3 {
        fill: #bdedf8;
      }

      .cls-4 {
        fill: #66ceef;
      }
    </style>
  </defs>
  <g id="_Layer_" data-name="&amp;lt;Layer&amp;gt;">
    <g>
      <path class="cls-3" d="M37.05,8.01l-1.91-1.11c-2.33-.88-13.83,6.17-16.09,7.56-2.59,1.62-5.55,3.47-7.55,5.66-.39.47-.76.91-.81,1.54v4.13l1.91,1.11v-4.13c.08-.62.42-1.07.81-1.54,1.49-1.62,3.56-3.05,5.42-4.29,4.19-2.75,11.84-7.47,16.53-8.84.55-.13,1.15-.3,1.68-.09Z"/>
      <path class="cls-2" d="M11,25.61l1.28.76v-3.6c.08-.76.5-1.25.89-1.74,1.52-1.64,3.54-3.04,5.48-4.35,3.35-2.18,11.63-7.41,16.64-8.88.18-.05.37-.1.55-.13l-.86-.51c-1.34-.5-7.23,2.32-15.77,7.57-2.57,1.62-5.5,3.44-7.47,5.6-.37.43-.71.83-.76,1.37l.03,3.92h0ZM12.6,27.21c-.05,0-.11-.02-.16-.04l-1.91-1.11c-.1-.05-.16-.16-.16-.27v-4.13c.08-.76.5-1.25.89-1.74,2.04-2.23,5-4.07,7.6-5.71,6.34-3.9,14.31-8.37,16.37-7.6l1.96,1.13c.13.08.18.25.13.4-.08.14-.24.21-.39.16-.42-.16-.94-.03-1.41.09-5,1.45-13.21,6.65-16.51,8.81-1.94,1.28-3.93,2.67-5.37,4.24-.37.43-.68.83-.73,1.37v4.09c0,.11-.05.22-.16.27-.05.03-.11.04-.16.04Z"/>
      <path class="cls-3" d="M12.6,26.9l-1.91-1.11c.03,1.76.39,3.65.79,5.35.47,1.96,1.02,3.63,1.86,5.49,1.1,2.14,2.04,3.54,4.06,4.9l1.91,1.11c-2.41-1.63-3.61-3.8-4.72-6.47-.76-2.05-1.26-3.92-1.62-6.07-.18-1.06-.34-2.14-.37-3.22Z"/>
      <path class="cls-2" d="M11,26.34c.11,1.6.45,3.27.76,4.74.52,2.09,1.07,3.71,1.86,5.43.92,1.79,1.7,3.01,3.07,4.13-1-1.24-1.7-2.69-2.38-4.33-.73-1.99-1.23-3.89-1.65-6.14-.16-1.04-.31-2.06-.34-3.09l-1.31-.75h0ZM19.31,42.96c-.05,0-.1-.01-.16-.03l-1.91-1.11c-2.07-1.4-3.01-2.79-4.17-5.03-.81-1.77-1.39-3.43-1.91-5.56-.37-1.67-.73-3.61-.79-5.42,0-.11.05-.22.16-.27.08-.06.21-.06.32,0l1.91,1.11c.11.05.16.15.16.25.03,1.04.18,2.1.34,3.17.42,2.22.92,4.07,1.62,6.02,1.1,2.65,2.28,4.74,4.61,6.31.13.1.18.28.08.43-.05.09-.16.14-.26.14Z"/>
      <path class="cls-3" d="M31.88,33.3l-1.91-1.11c-.26-1.29-.55-2.08-1.65-2.87,2.04,1.17,3.09,1.41,3.56,3.98Z"/>
      <path class="cls-2" d="M30.23,31.99l1.18.69c-.31-1.16-.81-1.67-1.65-2.18.21.44.37.92.47,1.5h0ZM31.88,33.6c-.05,0-.1,0-.16-.05l-1.91-1.11c-.08-.04-.13-.12-.16-.21-.24-1.26-.5-1.95-1.52-2.67-.13-.1-.16-.28-.08-.42.11-.14.29-.18.42-.09.26.14.5.28.73.4,1.57.88,2.52,1.4,2.99,3.78,0,.12-.03.24-.13.31-.05.04-.13.05-.18.05Z"/>
      <path class="cls-3" d="M19.96,40.18l-1.94-1.11c1.1-2.25,2.33-3.96,4.19-5.63,1.18-.95,2.12-1.56,3.56-2.04,1.23-.32,2.15-.36,3.33.18l1.94,1.1c-1.34-.61-2.41-.48-3.77-.03-1.44.58-2.41,1.25-3.54,2.29-1.62,1.57-2.78,3.19-3.77,5.25Z"/>
      <path class="cls-2" d="M18.44,38.95l1.39.81c1-2,2.15-3.57,3.69-5.05,1.1-.99,2.1-1.72,3.61-2.34.71-.24,1.36-.39,2.02-.4l-.18-.12c-1.13-.5-1.96-.44-3.12-.15-1.44.47-2.33,1.09-3.43,1.99-1.68,1.5-2.88,3.09-3.98,5.27h0ZM19.96,40.49c-.05,0-.1-.02-.16-.04l-1.94-1.11c-.13-.08-.18-.26-.1-.4,1.15-2.39,2.44-4.1,4.27-5.73,1.13-.93,2.12-1.61,3.64-2.11,1.28-.33,2.25-.4,3.56.19l1.97,1.13c.13.08.18.26.1.41-.05.15-.24.21-.39.14-1.28-.58-2.28-.45-3.56-.03-1.44.57-2.36,1.28-3.41,2.22-1.55,1.5-2.7,3.09-3.72,5.16-.03.08-.1.13-.18.16-.03.01-.05.02-.08.02Z"/>
      <path class="cls-3" d="M27.14,21.96l-1.91-1.11h.05s.73-.02.73-.02c1.96-.14,3.09-.33,4.58-1.67,1.02-1.07,1.65-2.11,2.41-3.36.05-.12.13-.35,0-.46l-.42-.24,1.94,1.11.42.24c.1.11.05.33-.03.46-.76,1.25-1.39,2.3-2.38,3.36-1.49,1.34-2.65,1.53-4.61,1.67l-.73.03-.05-.02Z"/>
      <path class="cls-2" d="M27.25,21.67h0l.68-.03c1.97-.13,2.99-.33,4.4-1.59.94-.99,1.52-1.95,2.33-3.29,0-.04.03-.07.03-.1l-1.39-.8s-.03.06-.03.09c-.81,1.35-1.44,2.37-2.44,3.42-1.49,1.34-2.62,1.6-4.53,1.75l.94.55h0ZM27.2,22.28s-.08,0-.1-.02c-.03,0-.08-.02-.11-.04l-1.91-1.11c-.13-.07-.21-.24-.16-.37.05-.14.21-.22.37-.19l.73-.02c1.96-.14,2.99-.34,4.38-1.6.94-.99,1.55-1.95,2.33-3.29.03-.03.03-.07.05-.09l-.34-.19c-.13-.09-.18-.27-.11-.42.08-.15.29-.2.42-.11l2.33,1.36c.26.23.29.55.1.88-.79,1.34-1.44,2.37-2.44,3.42-1.54,1.4-2.7,1.62-4.79,1.76l-.73.03h-.03Z"/>
      <path class="cls-4" d="M34.95,16.45s.05.09.05.19c0,.09-.03.18-.08.27-2.36,4.05-3.56,4.98-7.73,5.06-.08,0-.13-.06-.13-.17-.03-.1,0-.23.08-.34,2.2-3.54,5.69-6.6,7.81-5.02h0ZM31.88,33.3c-1.36-1.32-3.51-1.43-5.97-.02-2.44,1.42-4.61,4.02-5.95,6.9.42-3.61,2.93-7.62,5.95-9.37,3.04-1.75,5.55-.63,5.97,2.49h0ZM24.97,43.3c10.3-2.76,12.37-28.44,12.37-30.67v-4.13c0-1.9-6.18,1.09-12.37,4.71-6.18,3.51-12.37,7.66-12.37,9.56v4.13c0,2.24,2.04,19.17,12.37,16.4h0Z"/>
      <path class="cls-2" d="M34.74,16.7h.03-.03ZM33.61,16.33c-.13,0-.29.02-.45.05-1.7.32-4.01,2.43-5.76,5.26v.03c3.75-.1,4.92-.91,7.26-4.9.03-.04.03-.07.03-.1-.31-.21-.65-.32-1.07-.32h0ZM27.2,22.28c-.24,0-.42-.18-.45-.43-.03-.18.03-.37.13-.53,1.42-2.28,3.88-5.11,6.18-5.55.79-.15,1.47,0,2.07.43.05.06.18.19.18.45-.03.14-.05.28-.13.42-2.36,4.03-3.62,5.13-7.99,5.21h0ZM28.61,30.29c-.76,0-1.62.27-2.54.78-2.3,1.34-4.37,4.14-5.32,7.02,1.36-2.19,3.14-3.99,5.03-5.08,2.1-1.23,4.14-1.38,5.63-.48-.29-.93-.81-1.62-1.55-1.97-.37-.18-.79-.28-1.26-.28h0ZM19.96,40.49s-.05,0-.08-.02c-.16-.04-.26-.18-.23-.33.47-3.78,3.01-7.82,6.13-9.6,1.6-.93,3.14-1.11,4.37-.52,1.1.54,1.81,1.69,2.04,3.23,0,.13-.05.25-.18.31-.1.06-.26.04-.34-.05-1.31-1.27-3.35-1.26-5.61.03-2.28,1.32-4.45,3.85-5.84,6.76-.05.11-.16.18-.26.18h0ZM36.52,8.21c-1.26,0-4.74,1.36-11.4,5.27-7.55,4.28-12.21,7.84-12.21,9.29v4.13c0,1.38,1.1,11.34,5.9,15.03,1.73,1.33,3.77,1.69,6.08,1.08,9.72-2.61,12.13-27,12.13-30.38v-4.13c0-.14-.05-.18-.1-.21-.08-.05-.21-.08-.39-.08h0ZM22.77,43.91c-1.57,0-3.04-.5-4.32-1.5-5.03-3.84-6.16-13.84-6.16-15.52v-4.13c0-2.36,7.86-7.17,12.52-9.83,4.85-2.83,10.92-6.04,12.42-5.19.18.11.39.32.39.75v4.13c0,.28-1.52,28.01-12.58,30.97-.79.21-1.55.31-2.28.31Z"/>
      <path class="cls-3" d="M26.67,1.51l-1.91-1.11c-1.2-.46-4.17,1.02-4.95,1.38-1.86.87-3.62,1.82-5.4,2.82-2.1,1.21-4.22,2.42-6.26,3.71-1.36.86-2.67,1.73-3.98,2.68-.65.5-1.28.99-1.91,1.53-.71.65-1.49,1.35-1.86,2.26l1.91,1.11c.34-.79.94-1.38,1.57-1.97.71-.65,1.44-1.23,2.23-1.83,1.13-.81,2.25-1.58,3.41-2.33,1.89-1.19,3.75-2.28,5.66-3.39,1.68-.96,3.33-1.88,5.03-2.75.73-.36,5.08-2.65,6.47-2.12Z"/>
      <path class="cls-2" d="M.79,14.65l1.39.8c.37-.71.97-1.26,1.47-1.76.68-.6,1.36-1.17,2.28-1.85,1.02-.74,2.12-1.5,3.43-2.34,1.76-1.11,3.48-2.11,5.29-3.17l.37-.22c1.86-1.07,3.51-1.97,5.06-2.76l.21-.09c2.31-1.19,4.06-1.88,5.24-2.08l-.92-.52c-.94-.35-3.59.89-4.45,1.29l-.21.11c-1.62.76-3.28,1.62-5.37,2.81-2.02,1.15-4.17,2.39-6.26,3.7-1.52.96-2.78,1.81-3.96,2.66-.71.55-1.34,1.03-1.89,1.52-.63.57-1.28,1.17-1.68,1.9h0ZM2.31,16.2c-.05,0-.1-.02-.16-.04l-1.91-1.11c-.13-.08-.18-.24-.13-.38.39-.98,1.23-1.72,1.94-2.36.58-.51,1.2-1,1.94-1.56,1.21-.86,2.46-1.71,3.98-2.69,2.12-1.32,4.27-2.57,6.29-3.72,2.12-1.18,3.8-2.06,5.42-2.82l.21-.1c1.76-.82,3.9-1.71,4.98-1.3l1.96,1.14c.16.08.21.25.13.4-.08.14-.24.21-.39.16-.45-.17-1.81-.13-6.03,2.01l-.18.09c-1.55.78-3.17,1.68-5.03,2.74l-.37.23c-1.83,1.05-3.54,2.05-5.27,3.15-1.28.83-2.41,1.59-3.41,2.32-.89.67-1.57,1.23-2.23,1.81-.55.54-1.15,1.1-1.47,1.86-.03.08-.11.14-.18.18-.03,0-.08.02-.11.02Z"/>
      <path class="cls-3" d="M.45,14.61c-.08.22-.11.31-.13.55,0,4.08-.08,5.64.79,9.48.26,1.08.55,2.08.92,3.14.63,1.71,1.2,2.99,2.23,4.53.92,1.23,1.49,1.87,2.78,2.73l1.94,1.11c-1.47-.99-2.25-1.89-3.25-3.42-.92-1.57-1.47-2.91-2.04-4.63-.39-1.28-.68-2.49-.94-3.8-.58-3.13-.5-4.64-.5-8.02.03-.23.05-.33.16-.55l-1.94-1.11Z"/>
      <path class="cls-2" d="M.63,15.07v.9c0,3.47,0,5.05.79,8.6.26,1.08.55,2.07.89,3.11.58,1.56,1.15,2.85,2.17,4.45.65.85,1.13,1.42,1.86,2.01-.31-.38-.6-.79-.89-1.25-.86-1.5-1.44-2.82-2.07-4.7-.39-1.29-.71-2.51-.97-3.83-.5-2.79-.47-4.35-.47-6.95v-1.14c.03-.17.03-.3.08-.41l-1.39-.79h0ZM8.96,36.45c-.05,0-.1,0-.16-.04l-1.91-1.11c-1.39-.92-2.02-1.62-2.91-2.82-1.07-1.67-1.68-3-2.25-4.61-.37-1.07-.65-2.08-.92-3.17-.81-3.62-.81-5.22-.81-8.73v-.82c.05-.3.08-.44.18-.67.03-.08.11-.14.18-.17.08-.03.16-.02.23.02l1.94,1.11c.13.08.18.24.13.38-.08.2-.11.27-.13.47v1.1c0,2.64,0,4.1.5,6.83.24,1.29.55,2.49.92,3.76.63,1.84,1.18,3.11,2.02,4.56.92,1.41,1.65,2.32,3.17,3.32.13.09.16.28.08.42-.05.09-.16.14-.26.14Z"/>
      <path class="cls-3" d="M20.96,22.63l-1.94-1.11c-.08.73-.23,1.35-.44,2.05-.55,1.72-1.31,3.1-2.41,4.54-.92,1.16-1.81,2.01-3.09,2.78-1.49.78-2.78,1.19-4.35.38l1.94,1.11c1.18.61,1.99.52,3.22.14,1.49-.63,2.41-1.32,3.51-2.48.5-.56.92-1.1,1.34-1.72.79-1.2,1.34-2.29,1.78-3.64.21-.7.34-1.32.45-2.05Z"/>
      <path class="cls-2" d="M10.64,32.02l.18.1c1.07.56,1.78.49,2.99.11,1.31-.56,2.2-1.18,3.35-2.39.5-.54.89-1.06,1.34-1.69.76-1.19,1.28-2.26,1.73-3.56.18-.63.31-1.19.39-1.8l-1.34-.78c-.11.55-.24,1.06-.42,1.65-.55,1.73-1.31,3.16-2.44,4.63-1.05,1.3-1.96,2.13-3.2,2.86-.92.49-1.76.82-2.59.87h0ZM12.29,33.13c-.58,0-1.13-.14-1.78-.48l-1.94-1.12c-.13-.08-.18-.26-.1-.41.08-.15.26-.21.42-.13,1.39.73,2.54.41,4.06-.37,1.13-.69,1.99-1.48,2.99-2.7,1.07-1.42,1.81-2.79,2.36-4.44.21-.71.34-1.31.45-2,0-.11.08-.19.16-.23.11-.04.21-.04.29,0l1.94,1.11c.1.06.16.18.16.31-.11.73-.24,1.35-.47,2.1-.45,1.36-1,2.48-1.81,3.72-.45.66-.86,1.2-1.39,1.77-1.05,1.1-1.96,1.87-3.59,2.55-.65.2-1.2.32-1.73.32Z"/>
      <path class="cls-3" d="M14.83,14.33s.03.02.08.03c.71-.03,1.36-.06,2.04-.15,1.49-.27,2.17-.55,3.3-1.55.81-.86,1.34-1.64,1.94-2.64l.45-.72c.05-.12.13-.35,0-.46l-.39-.24,1.91,1.11.42.24c.13.11.05.33-.03.46l-.42.72c-.73,1.17-1.31,2.06-2.36,2.99-1.6,1.21-2.99,1.28-4.95,1.35l-1.99-1.14Z"/>
      <path class="cls-2" d="M15.96,14.61l.94.55c1.99-.07,3.22-.17,4.69-1.28.97-.87,1.55-1.72,2.28-2.91l.42-.71s.03-.07.03-.09l-1.36-.8s-.03.06-.05.09l-.45.73c-.58.94-1.13,1.78-1.99,2.7-1.21,1.09-1.99,1.38-3.46,1.64-.34.04-.68.07-1.05.09h0ZM16.82,15.78s-.08-.02-.13-.05l-1.99-1.13h-.03c-.13-.09-.18-.28-.11-.43.08-.13.24-.18.39-.13.76-.03,1.34-.07,1.96-.14,1.39-.25,2.04-.51,3.12-1.48.81-.85,1.31-1.63,1.91-2.57l.42-.71s.03-.07.03-.1l-.31-.19c-.16-.09-.21-.27-.1-.42.08-.15.26-.2.39-.11l2.36,1.35c.26.23.26.55.11.88l-.45.73c-.79,1.24-1.36,2.12-2.41,3.07-1.68,1.24-3.04,1.35-5.14,1.42h-.03Z"/>
      <path class="cls-3" d="M12.42,17.48l-1.91-1.11c.18.12.05.43-.05.57l-.76.84c-.79.87-1.55,1.64-2.41,2.42-1.76,1.42-2.65,1.62-4.56.61l1.91,1.1c1.7.9,2.49.89,4.09-.21,1.1-.88,1.96-1.78,2.91-2.82l.73-.83c.13-.14.24-.45.05-.57Z"/>
      <path class="cls-2" d="M4.95,21.72c1.52.77,2.15.7,3.59-.29,1.05-.84,1.89-1.71,2.86-2.76l.73-.83s.05-.09.08-.13l-1.39-.8c-.05.08-.08.16-.13.22l-.76.84c-.84.9-1.57,1.67-2.44,2.44-.97.78-1.73,1.24-2.54,1.3h0ZM6.63,22.85c-.63,0-1.28-.23-2.12-.67l-1.94-1.12c-.16-.08-.21-.27-.13-.42.11-.15.29-.2.42-.12,1.76.92,2.49.82,4.24-.57.84-.75,1.55-1.49,2.36-2.39l.76-.83s.05-.11.05-.15c-.08-.1-.1-.24-.03-.37.08-.14.26-.19.42-.11l1.91,1.11h0c.13.08.21.2.24.35.05.25-.08.52-.21.68l-.76.84c-.94,1.04-1.83,1.97-2.93,2.84-.89.62-1.57.92-2.28.92Z"/>
      <path class="cls-1" d="M4.64,21.46c2.1-4.02,5.58-4.99,7.78-3.98.08.03.1.12.1.24-.03.12-.08.24-.16.33-4.14,4.72-5.37,5.19-7.73,3.86-.05-.03-.08-.09-.08-.18s.03-.17.08-.27h0ZM24.58,9.95c.05.04.05.1.05.19,0,.09-.03.18-.08.27-2.36,4.05-3.56,4.98-7.73,5.06-.08,0-.13-.06-.13-.17s.03-.23.1-.34c2.17-3.54,5.66-6.6,7.78-5.01h0ZM20.96,22.63h0c-1.36,2.88-3.54,5.48-5.97,6.89-2.44,1.42-4.61,1.31-5.95,0,.42,3.1,2.93,4.23,5.95,2.49,3.04-1.75,5.53-5.77,5.97-9.37h0ZM14.59,36.8c10.32-2.76,12.37-28.44,12.37-30.67V2c0-1.91-6.18,1.08-12.37,4.71-6.18,3.51-12.37,7.65-12.37,9.56v4.13c0,2.23,2.07,19.17,12.37,16.4h0Z"/>
      <path class="cls-2" d="M23.27,9.83c-.16,0-.29.02-.45.04-1.7.32-4.03,2.43-5.79,5.26v.03c3.75-.09,4.95-.91,7.26-4.9.03-.03.03-.07.05-.1-.31-.21-.68-.32-1.07-.32h0ZM16.82,15.78c-.18,0-.39-.13-.45-.44,0-.17.05-.36.16-.53,1.39-2.29,3.88-5.11,6.16-5.55.79-.14,1.49,0,2.07.43h0c.08.06.18.19.18.45,0,.14-.03.28-.13.41-2.33,4.04-3.59,5.14-7.96,5.22h-.03ZM4.79,21.63h0s0,0,0,0h0ZM4.87,21.69c2.1,1.15,3.2.77,7.26-3.84.03-.03.05-.08.08-.12-2.12-.9-5.35.15-7.31,3.89h0s-.03.05-.03.08h0ZM6.63,22.86c-.68,0-1.34-.24-2.12-.69-.1-.04-.24-.16-.26-.43,0-.14.05-.28.1-.42h0c2.17-4.13,5.84-5.21,8.2-4.12.21.09.29.3.26.55,0,.18-.08.36-.21.5-2.91,3.3-4.43,4.61-5.97,4.61h0ZM9.51,30.27c.29.93.81,1.61,1.55,1.96,1,.51,2.36.32,3.8-.5,2.3-1.34,4.37-4.14,5.32-7.01-1.36,2.19-3.14,3.99-5.03,5.08-2.12,1.22-4.14,1.37-5.63.48h0ZM12.29,33.13c-.55,0-1.05-.11-1.52-.34-1.1-.54-1.83-1.69-2.04-3.24-.03-.13.05-.26.16-.32.13-.05.26-.04.37.06,1.31,1.27,3.35,1.26,5.61-.03,2.28-1.32,4.45-3.85,5.82-6.77.08-.13.24-.21.37-.16.16.03.24.18.24.33-.47,3.78-3.04,7.81-6.13,9.6-.99.58-1.96.86-2.85.86h0ZM26.15,1.71c.18,0,.31.03.42.08.03.03.08.07.08.21v4.13c0,3.38-2.41,27.77-12.13,30.38h0c-2.28.62-4.35.25-6.08-1.08-4.79-3.69-5.89-13.65-5.89-15.03v-4.13c0-1.45,4.69-5.01,12.21-9.29,6.65-3.9,10.17-5.27,11.4-5.27h0ZM12.42,37.41c-1.6,0-3.07-.5-4.35-1.49-5-3.84-6.13-13.84-6.13-15.52v-4.13c0-2.36,7.83-7.17,12.52-9.83C19.28,3.61,25.36.4,26.85,1.25c.18.1.42.32.42.75v4.13c0,.28-1.54,28-12.6,30.97h0c-.76.21-1.52.31-2.25.31Z"/>
    </g>
  </g>
</svg>