<?xml version="1.0" encoding="UTF-8"?>
<svg id="Layer_2" data-name="Layer 2" xmlns="http://www.w3.org/2000/svg" viewBox="0 0 46.43 41.44" fill="currentColor">
  <defs>
    <style>
      .cls-1 {
        fill: #fff;
      }

      .cls-1, .cls-2, .cls-3, .cls-4 {
        fill-rule: evenodd;
      }

      .cls-2 {
        fill: #1a87c7;
      }

      .cls-3 {
        fill: #bdedf8;
      }

      .cls-4 {
        fill: #66ceef;
      }
    </style>
  </defs>
  <g id="_Layer_" data-name="&amp;lt;Layer&amp;gt;">
    <g>
      <polygon class="cls-3" points="46.11 25.61 24.29 13 .31 26.84 22.14 39.44 46.11 25.61"/>
      <path class="cls-2" d="M.92,26.84l21.22,12.25,23.37-13.48-21.22-12.25L.92,26.84h0ZM22.14,39.75c-.05,0-.11-.02-.16-.05L.16,27.1c-.1-.05-.16-.15-.16-.26s.05-.22.16-.27l23.97-13.84c.11-.05.24-.05.31,0l21.82,12.6c.11.06.16.16.16.27s-.05.21-.16.26l-23.97,13.84c-.05.03-.11.05-.16.05Z"/>
      <polygon class="cls-4" points="22.14 39.44 .31 26.84 .31 28.54 22.14 41.14 22.14 39.44"/>
      <path class="cls-2" d="M.6,28.36l21.22,12.24v-.98L.63,27.37l-.03.99h0ZM22.14,41.44c-.05,0-.11,0-.16-.04L.16,28.81c-.1-.06-.16-.16-.16-.27v-1.69c0-.11.05-.22.16-.27.1-.05.21-.05.31,0l21.82,12.6c.08.05.16.16.16.27v1.7c0,.1-.08.21-.16.26-.05.03-.11.04-.16.04Z"/>
      <polygon class="cls-3" points="22.14 41.14 46.11 27.3 46.11 25.61 22.14 39.44 22.14 41.14"/>
      <path class="cls-2" d="M22.45,39.62v.98l23.37-13.48v-.98l-23.37,13.48h0ZM22.14,41.44c-.05,0-.11,0-.16-.04-.11-.05-.16-.16-.16-.26v-1.7c0-.11.05-.22.16-.27l24-13.84c.08-.05.21-.05.29,0,.11.06.16.16.16.27v1.7c0,.11-.05.21-.16.27l-23.97,13.83c-.05.03-.11.04-.16.04Z"/>
      <polygon class="cls-4" points="22.09 36.03 7.1 27.39 7.13 10.76 22.09 19.4 22.09 36.03"/>
      <path class="cls-2" d="M7.41,27.22l14.36,8.28v-15.92L7.44,11.29l-.03,15.92h0ZM22.09,36.34c-.05,0-.1-.02-.16-.04l-14.96-8.64c-.11-.05-.16-.16-.16-.27V10.76c0-.11.08-.21.16-.27.1-.06.21-.06.31,0l14.96,8.64c.1.05.16.16.16.27l-.03,16.63c0,.11-.05.21-.13.27-.05.03-.11.04-.16.04Z"/>
      <polygon class="cls-1" points="22.09 36.03 22.09 19.39 40.22 8.95 40.19 25.58 22.09 36.03"/>
      <path class="cls-2" d="M22.4,19.58l-.03,15.92,17.53-10.09v-15.92l-17.5,10.09h0ZM22.09,36.34c-.05,0-.1-.02-.16-.04-.11-.06-.16-.15-.16-.27v-16.64c0-.1.05-.21.16-.26l18.13-10.45c.1-.06.21-.06.31,0,.08.05.16.16.16.26l-.03,16.64c0,.11-.05.22-.16.27l-18.1,10.45c-.05.03-.11.04-.16.04Z"/>
      <polygon class="cls-1" points="25.26 .3 40.22 8.95 39.09 9.59 25.26 1.59 25.26 .3"/>
      <path class="cls-2" d="M25.54,1.42l13.55,7.81.5-.29L25.54.84v.57h0ZM39.09,9.9c-.05,0-.11-.02-.16-.04L25.1,1.86c-.1-.05-.16-.16-.16-.27V.3c0-.1.05-.21.16-.26.11-.06.21-.06.29,0l14.99,8.64c.08.05.16.16.16.26,0,.11-.08.22-.16.27l-1.13.64c-.05.02-.11.04-.16.04Z"/>
      <polygon class="cls-1" points="8.25 11.41 7.13 10.76 25.26 .3 25.26 1.59 8.25 11.41"/>
      <path class="cls-2" d="M7.73,10.76l.52.29L24.94,1.42v-.57L7.73,10.76h0ZM8.25,11.71c-.05,0-.1-.02-.16-.04l-1.13-.64c-.08-.05-.16-.16-.16-.26,0-.11.08-.21.16-.27L25.1.05c.11-.06.21-.06.29,0,.1.05.16.16.16.26v1.29c0,.12-.05.22-.16.27L8.38,11.66s-.08.04-.13.04Z"/>
      <polygon class="cls-3" points="22.09 19.39 8.25 11.41 25.26 1.63 39.22 9.5 22.09 19.39"/>
      <path class="cls-2" d="M8.86,11.41l13.23,7.63,16.51-9.53L25.26,1.98,8.86,11.41h0ZM22.09,19.7c-.05,0-.1-.02-.16-.04l-13.83-8c-.11-.05-.16-.15-.16-.26,0-.11.05-.22.16-.27L25.12,1.36c.08-.05.18-.05.29,0l13.96,7.87c.11.06.16.16.16.27s-.05.22-.16.27l-17.13,9.89c-.05.02-.11.04-.16.04Z"/>
      <polygon class="cls-4" points="27.14 10.67 23.58 8.61 23.58 5.95 27.14 8.01 27.14 10.67"/>
      <path class="cls-2" d="M23.89,8.43l2.96,1.71v-1.95l-2.96-1.71v1.95h0ZM27.14,10.98c-.05,0-.08,0-.13-.04l-3.59-2.06c-.08-.05-.16-.16-.16-.27v-2.66c0-.11.08-.21.16-.27.1-.05.21-.05.31,0l3.56,2.07c.1.05.16.16.16.26v2.67c0,.1-.05.21-.16.26-.05.03-.11.04-.16.04Z"/>
      <polygon class="cls-3" points="27.14 8.01 23.58 5.95 26.99 3.93 30.6 6.02 27.14 8.01"/>
      <path class="cls-2" d="M24.18,5.95l2.96,1.7,2.86-1.64-2.99-1.73-2.83,1.66h0ZM27.14,8.32c-.05,0-.08-.02-.13-.04l-3.59-2.07c-.08-.05-.16-.15-.16-.26s.08-.21.16-.27l3.41-2.01c.11-.06.24-.06.31,0l3.62,2.09c.11.06.16.16.16.27s-.05.22-.16.27l-3.46,1.99c-.05.03-.11.04-.16.04Z"/>
      <polygon class="cls-1" points="27.14 8.01 30.6 6.02 30.6 8.68 27.14 10.67 27.14 8.01"/>
      <path class="cls-2" d="M27.46,8.19v1.95l2.86-1.63v-1.95l-2.86,1.63h0ZM27.14,10.98c-.05,0-.08,0-.13-.04-.1-.05-.16-.16-.16-.26v-2.67c0-.11.05-.21.16-.26l3.46-1.99c.08-.06.21-.06.29,0,.11.05.16.16.16.26v2.67c0,.11-.05.21-.16.26l-3.46,1.99c-.05.03-.11.04-.16.04Z"/>
      <polygon class="cls-4" points="26.59 22.38 36.5 16.66 36.47 27.73 26.57 33.46 26.59 22.38"/>
      <path class="cls-2" d="M26.88,22.57v10.35l9.3-5.36v-10.36l-9.3,5.37h0ZM26.57,33.76c-.05,0-.1-.02-.16-.04-.08-.05-.16-.16-.16-.26l.03-11.08c0-.1.05-.21.16-.26l9.9-5.73c.1-.05.21-.05.31,0,.08.06.16.16.16.27l-.03,11.06c0,.11-.05.21-.16.27l-9.9,5.72c-.05.03-.11.04-.16.04Z"/>
      <path class="cls-2" d="M32.49,21.12c-.1,0-.21-.05-.26-.15-.1-.15-.05-.34.1-.42l2.93-1.7c.13-.08.34-.03.42.11.08.15.03.34-.13.43l-2.93,1.7s-.08.03-.13.03Z"/>
      <path class="cls-2" d="M32.49,28.85c-.1,0-.21-.05-.26-.15-.1-.15-.05-.34.1-.43l2.93-1.68c.13-.09.34-.04.42.11.08.14.03.33-.13.42l-2.93,1.7s-.08.03-.13.03Z"/>
      <path class="cls-2" d="M32.49,26.92c-.1,0-.21-.05-.26-.16-.1-.15-.05-.33.1-.42l2.93-1.7c.13-.09.34-.03.42.11.08.15.03.34-.13.42l-2.93,1.69s-.08.04-.13.04Z"/>
      <path class="cls-2" d="M32.49,24.99c-.1,0-.21-.06-.26-.15-.1-.15-.05-.34.1-.42l2.93-1.7c.13-.09.34-.03.42.12.08.15.03.34-.13.42l-2.93,1.69s-.08.04-.13.04Z"/>
      <path class="cls-2" d="M32.49,23.06c-.1,0-.21-.06-.26-.16-.1-.15-.05-.34.1-.43l2.93-1.68c.13-.09.34-.03.42.11.08.15.03.33-.13.42l-2.93,1.69s-.08.04-.13.04Z"/>
      <path class="cls-2" d="M27.61,23.93c-.1,0-.21-.05-.26-.15-.1-.15-.05-.34.11-.43l3.14-1.8c.13-.08.31-.04.39.11.1.15.05.34-.11.43l-3.12,1.81c-.05.03-.11.04-.16.04Z"/>
      <path class="cls-2" d="M27.61,31.67c-.1,0-.21-.06-.26-.15-.1-.15-.05-.34.11-.43l3.14-1.81c.13-.08.31-.03.39.11.1.15.05.34-.11.43l-3.12,1.81c-.05.02-.11.04-.16.04Z"/>
      <path class="cls-2" d="M27.61,25.87c-.1,0-.21-.06-.26-.16-.1-.15-.05-.34.11-.42l3.14-1.81c.13-.09.31-.04.39.11.1.15.05.33-.11.42l-3.12,1.81c-.05.03-.11.04-.16.04Z"/>
      <path class="cls-2" d="M27.61,29.73c-.1,0-.21-.05-.26-.15-.1-.15-.05-.34.11-.43l3.14-1.8c.13-.09.31-.04.39.11.1.15.05.34-.11.43l-3.12,1.81c-.05.03-.11.04-.16.04Z"/>
      <path class="cls-2" d="M27.61,27.8c-.1,0-.21-.05-.26-.16-.1-.15-.05-.33.11-.42l3.14-1.81c.13-.09.31-.03.39.11.1.15.05.34-.11.42l-3.12,1.81c-.05.03-.11.04-.16.04Z"/>
      <path class="cls-2" d="M31.54,30.89c-.18,0-.31-.14-.31-.31v-11.06c0-.16.13-.3.31-.3.16,0,.31.14.31.3v11.06c0,.17-.16.31-.31.31Z"/>
      <path class="cls-3" d="M18.21,21.27c.16.09.26.29.26.45v2.1c0,.17-.1.23-.26.15-1.57-.9-6.52-3.77-8.1-4.68-.16-.08-.26-.28-.26-.44v-2.11c0-.17.11-.24.26-.15l8.1,4.68Z"/>
      <path class="cls-2" d="M10.17,16.97v1.88c0,.05.05.15.11.17l7.89,4.57v-1.87c0-.06-.05-.16-.11-.18l-7.89-4.57h0ZM18.34,24.32c-.11,0-.18-.03-.29-.08l-8.1-4.68c-.24-.14-.42-.44-.42-.71v-2.11c0-.19.08-.35.24-.43.13-.09.31-.08.5.02l8.1,4.7c.24.13.42.43.42.71v2.1c0,.19-.08.35-.24.43-.05.04-.13.06-.21.06Z"/>
    </g>
  </g>
</svg>