<?xml version="1.0" encoding="UTF-8"?>
<svg id="Layer_2" data-name="Layer 2" xmlns="http://www.w3.org/2000/svg" viewBox="0 0 66.89 84.89" fill="currentColor">
  <defs>
    <style>
      .cls-1 {
        fill: #fff;
      }

      .cls-1, .cls-2, .cls-3, .cls-4 {
        fill-rule: evenodd;
      }

      .cls-2 {
        fill: #1a87c7;
      }

      .cls-3 {
        fill: #bdedf8;
      }

      .cls-4 {
        fill: #66ceef;
      }
    </style>
  </defs>
  <g id="_Layer_" data-name="&amp;lt;Layer&amp;gt;">
    <g>
      <path class="cls-4" d="M16.52,37.99l-12.5-7.21c-2.03,3.65-3.3,7.2-3.41,11.42v32.78c.05.82.17,1.41.87,1.9l12.69,7.3c-.87-.51-1.03-.99-1.06-1.98v-32.78c.09-4.22,1.36-7.77,3.41-11.42Z"/>
      <path class="cls-2" d="M4.26,31.63c-2.02,3.74-2.96,7.02-3.03,10.59v32.77c.04.78.16,1.08.59,1.37l10.67,6.15c0-.09,0-.19-.02-.28v-32.82c.08-3.79,1.08-7.27,3.2-11.19l-11.42-6.59h0ZM14.17,84.79c-.1,0-.21-.02-.31-.07v-.02l-12.69-7.3c-1.01-.69-1.13-1.58-1.16-2.38v-32.82c.08-3.97,1.16-7.58,3.47-11.72.09-.16.23-.26.38-.3.16-.05.33-.02.47.05l12.48,7.22c.29.17.4.54.24.83-2.22,3.96-3.25,7.41-3.34,11.12v32.78c.05.89.16,1.09.75,1.44h0c.29.17.4.56.22.85-.1.19-.31.3-.52.3Z"/>
      <path class="cls-4" d="M34.77,8.02c-.05.54-.28.94-.73,1.25l12.48,7.22c.46-.31.68-.71.73-1.27v-7.39L34.77.62v7.41h0ZM46.93,29.52l-12.5-7.21c.26.11.29.26.33.52v7.37l12.48,7.2v-7.35c-.02-.28-.05-.42-.31-.52h0Z"/>
      <path class="cls-2" d="M34.77,8.02h.02-.02ZM35.02,9.13l11.42,6.59c.1-.14.17-.33.19-.56v-6.97l-11.27-6.5v6.38c-.04.4-.16.75-.35,1.06h0ZM46.52,17.09c-.1,0-.2-.02-.31-.09l-12.48-7.2c-.17-.1-.3-.29-.31-.5,0-.22.1-.42.28-.54.28-.21.42-.43.45-.78V.62c0-.21.13-.42.31-.52.19-.12.42-.12.61,0l12.5,7.2c.19.12.29.31.29.54v7.39c-.05.8-.38,1.35-.99,1.77-.11.07-.22.1-.35.1h0ZM46.72,30.11h.02-.02ZM35.37,29.84l11.27,6.5v-6.27h-.02l-11.24-6.5v6.28h0ZM47.25,38.02c-.1,0-.21-.03-.31-.09l-12.48-7.22c-.19-.1-.31-.31-.31-.52v-7.35c-.28-.15-.4-.5-.26-.8.14-.28.49-.42.78-.31.12.05.22.12.31.17l12.22,7.06c.59.26.65.76.66,1.01v7.42c0,.23-.11.43-.29.54-.11.05-.21.09-.32.09Z"/>
      <polygon class="cls-3" points="66.26 11.63 53.78 4.42 34.77 .62 47.25 7.83 66.26 11.63"/>
      <path class="cls-2" d="M47.47,7.25l15.24,3.04-9.16-5.29-15.24-3.06,9.16,5.3h0ZM66.26,12.24h-.12l-19.02-3.81c-.07-.02-.12-.04-.19-.07l-12.48-7.21c-.26-.16-.38-.47-.26-.75.1-.28.38-.45.7-.38l19.02,3.79c.07.02.12.05.19.07l12.48,7.22c.26.16.38.47.28.75-.11.24-.33.4-.59.4Z"/>
      <path class="cls-1" d="M16.52,37.99c-2.11,3.63-3.41,7.7-3.41,11.42v32.78c0,1.86,1.31,2.61,2.9,1.69l5.57-3.22c1.6-.92,2.9-3.18,2.9-5.04v-28.72c0-1.36-.07-2.38.9-4.07.94-1.64,1.78-2.03,2.87-2.68l18.27-10.55c.4-.23.73-.03.73.43v7.35l19.02-25.76-19.02-3.81v7.39c0,.47-.33,1.03-.73,1.27l-19.78,11.42c-1.25.71-2.24,1.23-3.47,2.19-2.63,2.02-4.97,4.8-6.74,7.89Z"/>
      <path class="cls-2" d="M47.86,8.57v6.64c0,.68-.43,1.46-1.03,1.79l-20.36,11.75c-.98.55-1.82,1.04-2.83,1.82-2.5,1.91-4.84,4.66-6.61,7.7h0c-2.14,3.72-3.32,7.67-3.32,11.12v32.78c0,.66.21,1.15.56,1.36.35.19.87.12,1.43-.21l5.57-3.2c1.41-.82,2.61-2.89,2.61-4.52v-28.98c-.02-1.29-.02-2.38.97-4.12.95-1.67,1.85-2.17,2.88-2.77l18.48-10.67c.4-.23.8-.24,1.13-.05.33.19.52.56.52,1.01v5.49l17.35-23.49-17.35-3.48h0ZM14.7,84.89c-.38,0-.73-.09-1.06-.28-.75-.43-1.16-1.29-1.16-2.42v-32.78c0-3.67,1.25-7.84,3.49-11.73,1.87-3.23,4.26-6.01,6.92-8.06,1.08-.84,1.95-1.34,2.97-1.91l.56-.33,19.79-11.42c.23-.12.44-.49.44-.73v-7.39c0-.19.07-.36.22-.47.14-.12.33-.17.5-.14l19.02,3.81c.21.03.38.19.45.38.09.19.06.42-.07.59l-19.03,25.76c-.16.23-.43.31-.68.23-.26-.09-.41-.31-.41-.59v-7.13l-18.31,10.55c-.99.57-1.63.94-2.42,2.31-.83,1.44-.83,2.31-.82,3.51v28.98c0,2.09-1.43,4.54-3.23,5.58l-5.54,3.2c-.56.33-1.09.49-1.62.49Z"/>
      <path class="cls-3" d="M24.89,28.97l21.63-12.48-12.48-7.22-21.63,12.48c-3.65,2.35-6.18,5.32-8.39,9.02l12.5,7.21c2.24-3.79,4.73-6.66,8.37-9.02Z"/>
      <path class="cls-2" d="M4.87,30.55l11.42,6.61c2.38-3.86,4.94-6.55,8.28-8.71.02,0,.02-.02.03-.02l20.69-11.94-11.25-6.5-21.31,12.31c-3.14,2.02-5.58,4.59-7.85,8.26h0ZM16.52,38.6c-.11,0-.21-.03-.31-.09l-12.48-7.2c-.16-.09-.26-.23-.3-.38-.04-.16-.02-.33.07-.47,2.45-4.14,5.11-6.97,8.59-9.23l21.65-12.5c.19-.1.44-.1.61,0l12.5,7.21c.19.1.31.31.31.54,0,.21-.13.42-.31.52l-21.61,12.48c-3.35,2.17-5.81,4.8-8.19,8.81-.12.19-.31.29-.52.29Z"/>
    </g>
  </g>
</svg>