<?xml version="1.0" encoding="UTF-8"?>
<svg id="Layer_2" data-name="Layer 2" xmlns="http://www.w3.org/2000/svg" viewBox="0 0 29.68 50.91" fill="currentColor">
  <defs>
    <style>
      .cls-1 {
        fill: #fff;
      }

      .cls-1, .cls-2, .cls-3, .cls-4 {
        fill-rule: evenodd;
      }

      .cls-2 {
        fill: #1a87c7;
      }

      .cls-3 {
        fill: #bdedf8;
      }

      .cls-4 {
        fill: #66ceef;
      }
    </style>
  </defs>
  <g id="_Layer_" data-name="&amp;lt;Layer&amp;gt;">
    <g>
      <polygon class="cls-4" points="15.37 50.6 .31 41.9 .31 40.73 15.37 49.43 15.37 50.6"/>
      <path class="cls-2" d="M.62,41.72l14.45,8.34v-.46S.62,41.27.62,41.27v.46h0ZM15.37,50.91c-.05,0-.1-.01-.15-.04L.15,42.17c-.09-.06-.15-.16-.15-.27v-1.17c0-.11.06-.21.15-.27.1-.05.21-.05.31,0l15.07,8.7c.1.05.15.16.15.27v1.17c0,.11-.06.21-.15.27-.05.03-.1.04-.16.04Z"/>
      <polygon class="cls-3" points="15.37 49.43 .31 40.73 14.14 32.58 29.37 41.37 15.37 49.43"/>
      <path class="cls-2" d="M.92,40.73l14.45,8.35,13.38-7.71-14.61-8.44L.92,40.73h0ZM15.37,49.74c-.05,0-.11-.01-.16-.04L.15,41c-.09-.05-.15-.16-.15-.26,0-.11.06-.21.15-.27l13.83-8.15c.1-.06.21-.06.31,0l15.23,8.79c.1.06.16.16.16.27s-.06.21-.16.27l-13.99,8.06c-.05.03-.1.04-.15.04Z"/>
      <polygon class="cls-3" points="15.37 49.43 24.94 43.92 29.37 41.37 29.37 42.54 15.37 50.6 15.37 49.43"/>
      <path class="cls-2" d="M15.68,49.61v.46l13.38-7.7v-.46l-13.38,7.7h0ZM15.37,50.91c-.05,0-.1-.01-.15-.04-.1-.06-.15-.15-.15-.26v-1.17c0-.11.06-.21.15-.27l14-8.06c.09-.05.21-.05.31,0,.09.06.15.16.15.26v1.17c0,.11-.06.21-.16.27l-14,8.06s-.1.04-.16.04Z"/>
      <polygon class="cls-3" points="13.12 23.44 4.16 18.27 4.17 16.47 13.12 21.65 13.12 23.44"/>
      <path class="cls-2" d="M4.47,18.09l8.34,4.82v-1.08s-8.34-4.82-8.34-4.82v1.08h0ZM13.12,23.75c-.05,0-.1-.01-.15-.04l-8.96-5.17c-.09-.06-.15-.16-.15-.27v-1.79c.01-.11.07-.21.16-.26.1-.06.21-.06.31,0l8.96,5.17c.09.05.16.16.16.27v1.79c0,.11-.07.21-.16.26-.05.03-.1.04-.15.04Z"/>
      <polygon class="cls-1" points="13.12 23.44 13.12 21.65 21.79 16.66 21.78 18.45 13.12 23.44"/>
      <path class="cls-2" d="M13.43,21.82v1.08s8.04-4.63,8.04-4.63v-1.08s-8.04,4.63-8.04,4.63h0ZM13.12,23.75c-.05,0-.1-.01-.15-.04-.1-.05-.16-.16-.16-.27v-1.79c0-.11.07-.21.16-.26l8.66-4.99c.1-.05.22-.05.31,0,.1.06.16.16.16.27v1.79c0,.11-.07.21-.16.27l-8.66,4.98s-.1.04-.15.04Z"/>
      <polygon class="cls-1" points="12.84 11.84 21.17 16.65 20.39 17.1 12.84 12.74 12.84 11.84"/>
      <path class="cls-2" d="M13.15,12.56l7.24,4.18.16-.09-7.4-4.28v.19h0ZM20.39,17.41c-.06,0-.11-.02-.15-.04l-7.55-4.36c-.09-.06-.15-.16-.15-.27v-.9c0-.11.06-.21.15-.27.1-.05.21-.06.31,0l8.33,4.81c.09.05.16.16.16.27s-.06.21-.16.27l-.78.45s-.1.04-.15.04Z"/>
      <polygon class="cls-1" points="5.57 16.93 4.78 16.48 12.84 11.84 12.84 12.74 5.57 16.93"/>
      <path class="cls-2" d="M5.4,16.48l.17.09,6.97-4.01v-.19l-7.13,4.1h0ZM5.57,17.24c-.06,0-.11-.02-.16-.04l-.78-.45c-.09-.06-.15-.16-.15-.27s.06-.21.16-.27l8.05-4.64c.1-.06.21-.05.31,0,.09.06.15.16.15.27v.9c0,.11-.06.21-.15.27l-7.28,4.19s-.1.04-.15.04Z"/>
      <polygon class="cls-1" points="13.12 21.44 5.3 16.93 12.83 12.59 20.65 17.11 13.12 21.44"/>
      <path class="cls-2" d="M5.92,16.93l7.2,4.16,6.92-3.98-7.2-4.16-6.92,3.98h0ZM13.12,21.75c-.05,0-.11-.02-.15-.04l-7.82-4.52c-.09-.05-.15-.15-.15-.26s.06-.21.15-.27l7.53-4.34c.09-.06.21-.06.31,0l7.82,4.51c.09.06.15.16.15.27s-.06.21-.15.26l-7.53,4.34s-.1.04-.16.04Z"/>
      <polygon class="cls-1" points="13.12 21.65 4.17 16.47 12.83 11.49 21.79 16.66 13.12 21.65"/>
      <path class="cls-2" d="M4.78,16.47l8.34,4.82,8.05-4.63-8.34-4.82-8.05,4.63h0ZM13.12,21.96c-.05,0-.1-.01-.15-.04l-8.96-5.17c-.1-.06-.15-.15-.15-.27s.06-.21.15-.26l8.66-4.99c.1-.06.21-.06.31,0l8.96,5.17c.1.06.16.15.16.26s-.06.21-.16.27l-8.66,4.99s-.1.04-.15.04Z"/>
      <polygon class="cls-3" points="13.07 20.71 7.5 17.5 7.5 11.75 13.07 14.97 13.07 20.71"/>
      <path class="cls-2" d="M7.81,17.32l4.95,2.86v-5.03s-4.95-2.86-4.95-2.86v5.03h0ZM13.07,21.02c-.05,0-.1-.01-.15-.04l-5.57-3.22c-.09-.05-.15-.15-.15-.26v-5.74c0-.11.06-.21.15-.26.1-.06.21-.06.31,0l5.57,3.21c.1.05.15.15.15.27v5.74c0,.11-.06.21-.15.27-.05.03-.1.04-.16.04Z"/>
      <polygon class="cls-1" points="13.07 14.97 7.5 11.75 12.82 8.62 18.45 11.87 13.07 14.97"/>
      <path class="cls-2" d="M8.11,11.75l4.96,2.86,4.77-2.75-5.01-2.89-4.71,2.78h0ZM13.07,15.28c-.06,0-.11-.01-.15-.04l-5.57-3.21c-.09-.06-.15-.16-.15-.26,0-.11.06-.21.15-.27l5.32-3.14c.09-.05.22-.05.31,0l5.63,3.25c.09.06.15.16.15.27s-.06.21-.15.27l-5.38,3.1s-.1.04-.15.04Z"/>
      <polygon class="cls-1" points="13.07 14.97 18.45 11.87 18.45 17.61 13.07 20.71 13.07 14.97"/>
      <path class="cls-2" d="M13.37,15.15v5.03l4.77-2.75v-5.03s-4.77,2.75-4.77,2.75h0ZM13.07,21.02c-.05,0-.1-.01-.15-.04-.09-.05-.15-.16-.15-.27v-5.74c0-.11.06-.21.16-.27l5.38-3.1c.1-.05.21-.05.31,0,.09.06.15.16.15.27v5.74c0,.11-.06.21-.15.27l-5.38,3.1s-.1.04-.16.04Z"/>
      <polygon class="cls-4" points="13.03 13.56 9.93 11.77 12.89 10.03 16.02 11.83 13.03 13.56"/>
      <path class="cls-2" d="M10.54,11.77l2.49,1.43,2.38-1.37-2.52-1.45-2.35,1.39h0ZM13.03,13.87c-.06,0-.11-.02-.16-.04l-3.09-1.79c-.1-.06-.15-.16-.16-.27,0-.11.06-.21.15-.27l2.96-1.75c.09-.05.22-.05.31,0l3.13,1.81c.1.05.16.16.16.27s-.06.21-.16.27l-2.99,1.72s-.1.04-.15.04Z"/>
      <polygon class="cls-3" points="13.03 13.56 9.93 11.77 9.93 6.22 13.03 8 13.03 13.56"/>
      <path class="cls-2" d="M10.24,11.59l2.48,1.43v-4.84l-2.48-1.43v4.84h0ZM13.03,13.87c-.06,0-.11-.02-.16-.04l-3.1-1.79c-.1-.06-.16-.16-.16-.27v-5.55c0-.11.06-.21.16-.27.09-.05.21-.05.31,0l3.1,1.79c.1.06.15.16.15.26v5.55c0,.11-.06.21-.15.27-.05.03-.1.04-.15.04Z"/>
      <polygon class="cls-1" points="13.03 8 9.93 6.22 12.89 4.47 16.02 6.28 13.03 8"/>
      <path class="cls-2" d="M10.54,6.21l2.49,1.44,2.38-1.37-2.52-1.45-2.35,1.39h0ZM13.03,8.31c-.06,0-.11-.01-.16-.04l-3.1-1.79c-.1-.06-.16-.15-.16-.27s.06-.21.15-.27l2.96-1.75c.09-.06.22-.06.31,0l3.13,1.81c.1.06.16.16.16.27s-.06.21-.16.27l-2.99,1.72s-.1.04-.15.04Z"/>
      <polygon class="cls-1" points="13.03 8 16.02 6.28 16.02 11.83 13.03 13.56 13.03 8"/>
      <path class="cls-2" d="M13.33,8.18v4.84l2.38-1.37v-4.84l-2.38,1.37h0ZM13.03,13.87c-.06,0-.11-.02-.16-.04-.1-.06-.15-.16-.15-.27v-5.55c0-.11.06-.21.15-.26l2.99-1.73c.09-.05.21-.06.31,0,.1.06.16.16.16.27v5.55c0,.11-.06.21-.16.27l-2.99,1.72s-.1.04-.15.04Z"/>
      <path class="cls-2" d="M12.98,6.68c-.17,0-.31-.14-.31-.31V.82c0-.17.14-.31.31-.31s.31.14.31.31v5.55c0,.17-.14.31-.31.31Z"/>
      <path class="cls-3" d="M12.97,1.06c.21,0,.38-.17.38-.38s-.17-.37-.38-.37-.37.17-.37.37.17.38.37.38Z"/>
      <path class="cls-2" d="M12.97.62s-.07.03-.07.07c0,.08.14.08.14,0,0-.04-.03-.07-.07-.07h0ZM12.97,1.37c-.38,0-.68-.31-.68-.69s.31-.68.68-.68.68.31.68.68-.31.69-.68.69Z"/>
      <polygon class="cls-3" points="13.12 26.26 4.48 21.26 4.47 20.24 13.11 25.23 13.12 26.26"/>
      <path class="cls-2" d="M4.78,21.08l8.02,4.63v-.31s-8.03-4.64-8.03-4.64v.31h0ZM13.12,26.56c-.05,0-.1-.01-.15-.04l-8.64-4.99c-.1-.06-.16-.16-.16-.26v-1.02c0-.11.05-.21.15-.27.09-.05.21-.05.31,0l8.64,4.99c.09.06.15.15.15.26v1.02c.01.11-.05.21-.14.27-.05.03-.1.04-.15.04Z"/>
      <polygon class="cls-4" points="13.12 25.23 4.47 20.24 4.48 18.45 13.12 23.44 13.12 25.23"/>
      <path class="cls-2" d="M4.78,20.06l8.03,4.64v-1.08s-8.03-4.64-8.03-4.64v1.08h0ZM13.12,25.54c-.05,0-.1-.01-.15-.04l-8.65-4.99c-.1-.06-.16-.16-.16-.27v-1.79c0-.11.07-.21.16-.26.09-.06.21-.06.31,0l8.65,4.99c.09.06.16.16.16.27v1.79c0,.11-.07.21-.16.27-.05.03-.1.04-.15.04Z"/>
      <polygon class="cls-3" points="13.12 25.23 13.12 23.44 21.48 18.63 21.47 20.42 13.12 25.23"/>
      <path class="cls-2" d="M13.43,23.62v1.08s7.74-4.46,7.74-4.46v-1.08s-7.74,4.46-7.74,4.46h0ZM13.12,25.54c-.05,0-.1-.01-.15-.04-.1-.06-.16-.16-.16-.27v-1.79c0-.11.07-.21.16-.27l8.36-4.81c.09-.06.21-.06.31,0,.09.06.15.16.15.27v1.8c0,.11-.07.21-.16.26l-8.36,4.81s-.1.04-.15.04Z"/>
      <polygon class="cls-4" points="13.12 28.05 4.47 23.05 4.48 21.26 13.12 26.26 13.12 28.05"/>
      <path class="cls-2" d="M4.78,22.88l8.03,4.64v-1.08s-8.03-4.64-8.03-4.64v1.08h0ZM13.12,28.35c-.05,0-.1-.01-.15-.04l-8.65-4.99c-.1-.05-.16-.16-.16-.27v-1.79c0-.11.07-.21.16-.26.09-.06.21-.06.31,0l8.65,4.99c.09.06.16.16.16.27v1.79c0,.11-.07.21-.16.27-.05.03-.1.04-.15.04Z"/>
      <polygon class="cls-3" points="13.12 28.05 13.12 26.26 21.48 21.44 21.47 23.23 13.12 28.05"/>
      <path class="cls-2" d="M13.43,26.43v1.08s7.74-4.46,7.74-4.46v-1.08s-7.74,4.46-7.74,4.46h0ZM13.12,28.36c-.05,0-.1-.02-.15-.04-.1-.05-.16-.16-.16-.27v-1.8c0-.11.07-.21.16-.26l8.36-4.81c.09-.06.21-.06.31,0,.09.06.15.16.15.27v1.79c0,.11-.07.21-.16.26l-8.36,4.81s-.1.04-.15.04Z"/>
      <polygon class="cls-4" points="13.12 30.86 4.47 25.87 4.48 24.08 13.12 29.07 13.12 30.86"/>
      <path class="cls-2" d="M4.78,25.69l8.03,4.64v-1.08s-8.03-4.64-8.03-4.64v1.08h0ZM13.12,31.17c-.05,0-.1-.01-.15-.04l-8.65-4.99c-.1-.06-.16-.16-.16-.27v-1.79c0-.11.07-.21.16-.26.09-.06.21-.06.31,0l8.65,4.99c.09.06.16.16.16.27v1.79c0,.11-.07.21-.16.27-.05.03-.1.04-.15.04Z"/>
      <polygon class="cls-3" points="13.12 30.86 13.12 29.07 21.48 24.26 21.47 26.05 13.12 30.86"/>
      <path class="cls-2" d="M13.43,29.25v1.08s7.74-4.46,7.74-4.46v-1.08s-7.74,4.46-7.74,4.46h0ZM13.12,31.17c-.05,0-.1-.01-.15-.04-.1-.06-.16-.16-.16-.27v-1.79c0-.11.07-.21.16-.27l8.36-4.81c.09-.06.21-.06.31,0,.09.06.15.16.15.27v1.79c0,.11-.07.21-.16.27l-8.36,4.81s-.1.04-.15.04Z"/>
      <polygon class="cls-4" points="13.12 33.68 4.47 28.69 4.48 26.89 13.12 31.89 13.12 33.68"/>
      <path class="cls-2" d="M4.78,28.51l8.03,4.64v-1.08s-8.03-4.64-8.03-4.64v1.08h0ZM13.12,33.99c-.05,0-.1-.01-.15-.04l-8.65-4.99c-.1-.06-.16-.16-.16-.27v-1.79c0-.11.07-.21.16-.27.09-.06.21-.05.31,0l8.65,4.99c.09.06.16.16.16.27v1.79c0,.11-.07.21-.16.26-.05.03-.1.04-.15.04Z"/>
      <polygon class="cls-3" points="13.12 33.68 13.12 31.89 21.48 27.08 21.47 28.87 13.12 33.68"/>
      <path class="cls-2" d="M13.43,32.06v1.08s7.74-4.46,7.74-4.46v-1.08s-7.74,4.46-7.74,4.46h0ZM13.12,33.99c-.05,0-.1-.01-.15-.04-.1-.05-.16-.16-.16-.27v-1.79c0-.11.07-.21.16-.27l8.36-4.81c.09-.06.21-.06.31,0,.09.05.15.16.15.27v1.79c0,.11-.07.21-.16.27l-8.36,4.81s-.1.04-.15.04Z"/>
      <polygon class="cls-4" points="13.12 36.49 4.47 31.5 4.48 29.71 13.12 34.7 13.12 36.49"/>
      <path class="cls-2" d="M4.78,31.33l8.03,4.64v-1.08s-8.03-4.64-8.03-4.64v1.08h0ZM13.12,36.8c-.05,0-.1-.01-.15-.04l-8.65-4.99c-.1-.05-.16-.16-.16-.27v-1.79c0-.11.07-.21.16-.27.09-.06.21-.05.31,0l8.65,4.99c.09.05.16.16.16.27v1.79c0,.11-.07.21-.16.26-.05.03-.1.04-.15.04Z"/>
      <polygon class="cls-3" points="13.12 36.49 13.12 34.7 21.48 29.89 21.47 31.68 13.12 36.49"/>
      <path class="cls-2" d="M13.43,34.88v1.08s7.74-4.46,7.74-4.46v-1.08s-7.74,4.46-7.74,4.46h0ZM13.12,36.8c-.05,0-.1-.01-.15-.04-.1-.06-.16-.16-.16-.27v-1.79c0-.11.07-.21.16-.27l8.36-4.81c.09-.05.21-.05.31,0,.09.05.15.16.15.27v1.79c0,.11-.07.21-.16.27l-8.36,4.81s-.1.04-.15.04Z"/>
      <polygon class="cls-4" points="13.12 43.84 4.47 38.85 4.48 35.34 13.12 40.34 13.12 43.84"/>
      <path class="cls-2" d="M4.78,38.67l8.03,4.63v-2.8s-8.02-4.64-8.02-4.64v2.8h0ZM13.12,44.15c-.05,0-.1-.02-.15-.04l-8.65-4.99c-.1-.06-.16-.16-.16-.27v-3.51c0-.11.07-.21.16-.27.09-.05.21-.05.31,0l8.65,4.99c.09.06.16.16.16.27v3.51c0,.11-.07.21-.16.27-.05.03-.1.04-.15.04Z"/>
      <polygon class="cls-3" points="13.12 43.84 13.12 40.34 21.48 35.52 21.47 39.03 13.12 43.84"/>
      <path class="cls-2" d="M13.43,40.51v2.8s7.74-4.45,7.74-4.45v-2.8s-7.74,4.46-7.74,4.46h0ZM13.12,44.15c-.05,0-.1-.02-.15-.04-.1-.06-.16-.16-.16-.27v-3.51c0-.11.07-.21.16-.27l8.36-4.81c.09-.05.21-.05.31,0,.09.05.15.15.15.27v3.51c0,.11-.07.21-.16.27l-8.36,4.81s-.1.04-.15.04Z"/>
      <path class="cls-4" d="M13.11,39.3v-1.79s-8.63-4.98-8.63-4.98v1.79c4.5,2.6,4.13,2.39,8.63,4.98Z"/>
      <path class="cls-2" d="M4.78,34.14c3.78,2.19,4.04,2.33,6.98,4.03l1.04.6v-1.08s-8.02-4.63-8.02-4.63v1.08h0ZM13.11,39.61c-.05,0-.1-.02-.15-.04l-1.5-.86c-2.99-1.72-3.21-1.85-7.14-4.12-.1-.06-.16-.16-.16-.27v-1.79c0-.11.07-.21.16-.27.09-.05.21-.05.31,0l8.63,4.98c.1.06.15.16.15.27v1.79c0,.11-.05.21-.15.27-.05.03-.1.04-.16.04Z"/>
      <polygon class="cls-4" points="15.03 17.62 14.6 17.37 14.6 17.38 14.62 17.39 15.05 17.64 15.04 17.63 15.03 17.62"/>
      <path class="cls-2" d="M15.05,17.95s-.09-.01-.13-.03h0s-.02,0-.02-.01l-.44-.25s0,0-.01,0h0c-.13-.1-.18-.28-.1-.42.08-.15.26-.2.41-.12l.44.25s.01,0,.01,0h.01c.15.09.2.28.11.43-.06.1-.16.16-.27.16Z"/>
      <polygon class="cls-4" points="16.88 14.49 16.44 14.23 16.42 14.23 16.41 14.22 16.85 14.47 16.86 14.48 16.88 14.49"/>
      <path class="cls-2" d="M16.88,14.79s-.09,0-.13-.03c0,0-.01,0-.02,0l-.47-.27c-.15-.08-.2-.27-.12-.42.08-.14.25-.19.39-.13h0s.02,0,.03.01l.46.27c.15.08.2.27.12.42-.06.1-.16.16-.27.16Z"/>
      <path class="cls-1" d="M14.85,15.42c.28-.49.68-.92,1.11-1.17.44-.25.83-.28,1.11-.11.28.16.46.52.46,1.02s-.18,1.06-.46,1.55c-.29.5-.68.92-1.11,1.18-.43.25-.83.27-1.11.11-.29-.17-.46-.52-.46-1.02s.18-1.06.46-1.55Z"/>
      <path class="cls-2" d="M14.85,15.42h0,0ZM16.67,14.34c-.16,0-.35.06-.55.17-.37.22-.73.59-1,1.06h0c-.26.46-.42.97-.42,1.4,0,.37.11.64.31.75.2.11.49.07.8-.11.37-.21.73-.6,1-1.06.27-.46.42-.97.42-1.4,0-.37-.11-.64-.31-.75-.07-.04-.16-.06-.26-.06h0ZM15.26,18.4c-.2,0-.39-.05-.56-.15-.4-.23-.62-.69-.62-1.29,0-.54.18-1.14.5-1.7.33-.56.76-1.02,1.22-1.29.52-.3,1.02-.34,1.42-.11.4.23.61.68.61,1.29,0,.54-.18,1.14-.5,1.7-.32.56-.76,1.02-1.23,1.29-.29.17-.58.26-.86.26Z"/>
      <path class="cls-2" d="M16.14,16.5s-.06,0-.09-.02l-.73-.23c-.17-.05-.25-.23-.2-.39.05-.16.23-.25.38-.2l.73.23c.16.05.25.23.2.39-.04.13-.17.21-.3.21Z"/>
      <path class="cls-2" d="M15.91,16.68s-.09-.01-.14-.03c-.15-.08-.21-.26-.14-.41l.68-1.36c.07-.15.26-.21.41-.14.15.08.21.26.14.41l-.68,1.36c-.06.11-.16.17-.28.17Z"/>
      <path class="cls-2" d="M6.02,17.65c-.11,0-.21-.06-.27-.15-.08-.15-.03-.34.11-.42l1.48-.85c.15-.08.34-.03.42.12.08.15.03.34-.11.42l-1.49.85s-.1.04-.15.04h0ZM20.11,17.93c-.05,0-.11-.01-.16-.04l-1.66-.96c-.15-.08-.2-.27-.11-.42.09-.15.28-.2.42-.11l1.66.96c.15.08.2.27.11.42-.06.1-.16.15-.27.15Z"/>
      <polygon class="cls-3" points="13.11 39.3 13.11 37.51 21.47 32.71 21.46 34.5 13.11 39.3"/>
      <path class="cls-2" d="M13.41,37.69v1.08s7.74-4.45,7.74-4.45v-1.08s-7.74,4.44-7.74,4.44h0ZM13.11,39.61c-.05,0-.1-.02-.15-.04-.1-.05-.15-.15-.15-.26v-1.8c0-.11.05-.21.15-.27l8.36-4.8c.09-.06.21-.06.31,0,.09.05.15.16.15.27v1.79c0,.11-.06.21-.16.27l-8.35,4.8s-.1.04-.16.04Z"/>
      <polygon class="cls-1" points="13.12 26.26 21.47 21.44 21.47 20.41 13.13 25.23 13.12 26.26"/>
      <path class="cls-2" d="M13.44,25.41v.31s7.72-4.46,7.72-4.46v-.31s-7.72,4.46-7.72,4.46h0ZM13.12,26.56c-.05,0-.11-.01-.16-.04-.09-.05-.15-.16-.15-.27v-1.02c.01-.11.07-.21.16-.26l8.34-4.82c.1-.05.21-.05.31,0,.1.06.16.16.16.27v1.02c0,.11-.07.21-.16.26l-8.35,4.82s-.1.04-.15.04Z"/>
      <polygon class="cls-3" points="13.12 29.07 4.48 24.08 4.47 23.05 13.11 28.05 13.12 29.07"/>
      <path class="cls-2" d="M4.78,23.9l8.02,4.64v-.31s-8.03-4.63-8.03-4.63v.31h0ZM13.12,29.38c-.05,0-.1-.01-.15-.04l-8.64-4.99c-.1-.06-.16-.15-.16-.26v-1.02c0-.11.05-.21.15-.27.09-.06.21-.06.31,0l8.64,4.99c.09.06.15.16.15.26v1.02c.01.11-.05.21-.14.27-.05.03-.1.04-.15.04Z"/>
      <polygon class="cls-1" points="13.12 29.07 21.47 24.25 21.47 23.23 13.13 28.05 13.12 29.07"/>
      <path class="cls-2" d="M13.44,28.23v.31s7.72-4.46,7.72-4.46v-.31s-7.72,4.46-7.72,4.46h0ZM13.12,29.38c-.05,0-.11-.01-.16-.04-.09-.06-.15-.16-.15-.27v-1.02c.01-.11.07-.21.16-.26l8.34-4.82c.1-.05.21-.05.31,0,.1.06.16.16.16.27v1.03c0,.11-.07.21-.16.26l-8.35,4.82s-.1.04-.15.04Z"/>
      <polygon class="cls-3" points="13.12 31.89 4.48 26.89 4.47 25.87 13.11 30.86 13.12 31.89"/>
      <path class="cls-2" d="M4.78,26.71l8.02,4.63v-.31s-8.03-4.64-8.03-4.64v.31h0ZM13.12,32.19c-.05,0-.1-.01-.15-.04l-8.64-4.99c-.1-.06-.16-.15-.16-.26v-1.02c0-.11.05-.21.15-.27.09-.05.21-.05.31,0l8.64,4.99c.09.06.15.15.15.26v1.02c.01.11-.05.21-.14.27-.05.03-.1.04-.15.04Z"/>
      <polygon class="cls-1" points="13.12 31.89 21.47 27.07 21.47 26.04 13.13 30.86 13.12 31.89"/>
      <path class="cls-2" d="M13.44,31.04v.31s7.72-4.46,7.72-4.46v-.31s-7.72,4.46-7.72,4.46h0ZM13.12,32.19c-.05,0-.11-.01-.16-.04-.09-.06-.15-.16-.15-.27v-1.02c.01-.11.07-.21.16-.26l8.34-4.82c.1-.05.21-.06.31,0,.1.06.16.16.16.27v1.02c0,.11-.07.21-.16.26l-8.35,4.82s-.1.04-.15.04Z"/>
      <polygon class="cls-3" points="13.12 34.7 4.48 29.71 4.47 28.69 13.11 33.68 13.12 34.7"/>
      <path class="cls-2" d="M4.78,29.53l8.02,4.63v-.31s-8.03-4.64-8.03-4.64v.31h0ZM13.12,35.01c-.05,0-.1-.01-.15-.04l-8.64-4.99c-.1-.05-.16-.15-.16-.26v-1.02c0-.11.05-.21.15-.27.09-.06.21-.06.31,0l8.64,4.99c.09.05.15.15.15.26v1.02c.01.11-.05.21-.14.27-.05.03-.1.04-.15.04Z"/>
      <polygon class="cls-1" points="13.12 34.7 21.47 29.88 21.47 28.86 13.13 33.68 13.12 34.7"/>
      <path class="cls-2" d="M13.44,33.86v.31s7.72-4.46,7.72-4.46v-.31s-7.72,4.46-7.72,4.46h0ZM13.12,35.01c-.05,0-.11-.01-.16-.04-.09-.06-.15-.16-.15-.27v-1.02c.01-.11.07-.21.16-.26l8.34-4.82c.1-.05.21-.05.31,0,.1.05.16.16.16.27v1.02c0,.11-.07.21-.16.26l-8.35,4.82s-.1.04-.15.04Z"/>
      <polygon class="cls-3" points="13.12 37.52 4.48 32.53 4.47 31.5 13.11 36.49 13.12 37.52"/>
      <path class="cls-2" d="M4.78,32.35l8.02,4.63v-.31s-8.03-4.64-8.03-4.64v.31h0ZM13.12,37.83c-.05,0-.1-.01-.15-.04l-8.64-4.99c-.1-.06-.16-.16-.16-.27v-1.02c0-.11.05-.21.15-.27.09-.06.21-.06.31,0l8.64,4.99c.09.05.15.16.15.26v1.02c.01.11-.05.21-.14.27-.05.03-.1.04-.15.04Z"/>
      <polygon class="cls-3" points="13.12 40.34 4.48 35.34 4.47 34.32 13.11 39.31 13.12 40.34"/>
      <path class="cls-2" d="M4.78,35.16l8.02,4.63v-.31s-8.03-4.63-8.03-4.63v.31h0ZM13.12,40.64c-.05,0-.1-.01-.15-.04l-8.64-4.99c-.1-.06-.16-.16-.16-.27v-1.02c0-.11.05-.21.15-.27.09-.06.21-.06.31,0l8.64,4.99c.09.06.15.15.15.26v1.02c.01.11-.05.22-.14.27-.05.03-.1.04-.15.04Z"/>
      <polygon class="cls-1" points="13.12 40.34 21.47 35.51 21.47 34.49 13.13 39.31 13.12 40.34"/>
      <path class="cls-2" d="M13.44,39.49v.31s7.72-4.46,7.72-4.46v-.31s-7.72,4.46-7.72,4.46h0ZM13.12,40.64c-.05,0-.11-.01-.16-.04-.09-.05-.15-.16-.15-.27v-1.02c.01-.11.07-.21.16-.26l8.34-4.82c.1-.06.21-.06.31,0,.1.06.16.16.16.27v1.02c0,.11-.07.21-.16.27l-8.35,4.82s-.1.04-.15.04Z"/>
      <polygon class="cls-1" points="13.12 37.52 21.47 32.7 21.47 31.68 13.13 36.49 13.12 37.52"/>
      <path class="cls-2" d="M13.44,36.67v.31s7.72-4.46,7.72-4.46v-.31s-7.72,4.46-7.72,4.46h0ZM13.12,37.83c-.05,0-.11-.01-.16-.04-.09-.06-.15-.16-.15-.27v-1.02c.01-.11.07-.21.16-.26l8.34-4.82c.1-.06.21-.06.31,0,.1.06.16.16.16.27v1.02c0,.11-.07.21-.16.26l-8.35,4.82s-.1.04-.15.04Z"/>
      <polygon class="cls-1" points="17.27 39.64 25.42 34.98 21.47 32.7 13.33 37.38 17.27 39.64"/>
      <path class="cls-2" d="M13.95,37.38l3.32,1.91,7.54-4.3-3.34-1.93-7.52,4.32h0ZM17.27,39.95c-.05,0-.11-.01-.15-.04l-3.94-2.27c-.1-.06-.15-.16-.15-.27s.06-.21.15-.27l8.13-4.68c.09-.06.21-.05.31,0l3.96,2.29c.1.06.15.15.15.27s-.06.21-.15.27l-8.15,4.66s-.1.04-.15.04Z"/>
      <polygon class="cls-3" points="13.12 44.87 4.48 39.87 4.47 38.85 13.11 43.84 13.12 44.87"/>
      <path class="cls-2" d="M4.78,39.69l8.02,4.64v-.31s-8.03-4.64-8.03-4.64v.31h0ZM13.12,45.17c-.05,0-.1-.01-.15-.04l-8.64-4.99c-.1-.05-.16-.16-.16-.26v-1.02c0-.11.05-.21.15-.27.09-.06.21-.06.31,0l8.64,4.99c.09.06.15.16.15.27v1.02c.01.11-.05.21-.14.27-.05.03-.1.04-.15.04Z"/>
      <polygon class="cls-1" points="13.12 44.87 21.47 40.05 21.47 39.03 13.13 43.84 13.12 44.87"/>
      <path class="cls-2" d="M13.44,44.02v.31s7.72-4.46,7.72-4.46v-.31s-7.72,4.46-7.72,4.46h0ZM13.12,45.17c-.05,0-.11-.01-.16-.04-.09-.06-.15-.16-.15-.27v-1.02c.01-.11.07-.21.16-.27l8.34-4.82c.1-.06.21-.06.31,0,.1.06.16.16.16.27v1.02c0,.11-.07.21-.16.26l-8.35,4.82s-.1.04-.15.04Z"/>
      <path class="cls-4" d="M17.27,47.26l-.86-.5v-6.5s-3.29-1.96-3.29-1.96v-1.06c1.39.83,2.77,1.67,4.16,2.48v7.54Z"/>
      <path class="cls-2" d="M16.72,46.58l.25.14v-6.82c-.88-.51-1.75-1.04-2.63-1.56l-.91-.55v.34s3.14,1.87,3.14,1.87c.09.05.15.15.15.26v6.32h0ZM17.27,47.57c-.06,0-.11-.02-.15-.04l-.86-.5c-.1-.05-.15-.16-.15-.27v-6.32l-3.14-1.87c-.09-.06-.15-.16-.15-.27v-1.06c0-.11.07-.21.16-.27.09-.05.21-.05.31,0l1.38.83c.92.56,1.84,1.11,2.77,1.65.1.06.15.16.15.27v7.54c0,.11-.06.21-.15.27-.05.03-.1.04-.15.04Z"/>
      <polygon class="cls-4" points="24.59 43.08 23.73 42.59 23.73 35.05 24.59 35.55 24.59 43.08"/>
      <path class="cls-2" d="M24.04,42.41l.25.14v-6.82l-.25-.14v6.83h0ZM24.59,43.39c-.05,0-.11-.01-.15-.04l-.86-.5c-.1-.06-.16-.16-.16-.26v-7.54c0-.11.06-.21.16-.27.09-.05.21-.05.31,0l.86.5c.1.06.15.16.15.27v7.54c0,.11-.06.21-.15.26-.05.03-.1.04-.15.04Z"/>
      <path class="cls-1" d="M18.11,40.96l6.49-3.7v5.82l.83-.48c0-2.82,0-6.68,0-9.5l-8.15,4.66v2.91s0,6.59,0,6.59l.83-.48v-5.82Z"/>
      <path class="cls-2" d="M17.57,37.94v8.79s.22-.13.22-.13v-5.64c0-.11.06-.21.16-.27l6.49-3.7c.09-.05.21-.05.31,0,.1.06.15.16.15.27v5.29l.22-.13c0-2.63,0-6.1,0-8.79l-7.54,4.3h0ZM18.11,46.78h0,0ZM17.27,47.57c-.06,0-.11-.02-.16-.04-.09-.06-.15-.16-.15-.27v-9.5c0-.11.05-.21.15-.27l8.15-4.66c.09-.06.21-.05.3,0,.1.06.15.16.15.27,0,2.82,0,6.68,0,9.5,0,.11-.06.21-.15.27l-.83.48c-.1.06-.21.06-.31,0-.09-.06-.15-.15-.15-.26v-5.29l-5.87,3.35v5.64c0,.11-.06.21-.15.27l-.83.48s-.1.04-.15.04Z"/>
      <path class="cls-2" d="M23.56,37.03s-.09-.01-.12-.03c-.08-.04-.12-.13-.12-.22v-1.3c0-.09.05-.17.12-.21l.56-.32c.12-.07.27-.03.34.09.07.12.03.27-.09.34l-.43.25v.73l.2-.12c.12-.07.27-.03.34.09.07.12.03.27-.09.34l-.57.33s-.08.03-.12.03Z"/>
      <path class="cls-2" d="M22.65,37.56c-.16,0-.33-.08-.43-.33-.16-.39-.08-1.2.35-1.46.26-.15.46-.08.58.03.09.1.09.25,0,.35-.08.08-.2.09-.29.04-.1.06-.18.2-.2.42-.03.2,0,.36.03.44.03-.03.06-.09.09-.2.04-.13.18-.2.3-.17.13.04.21.18.17.31-.05.17-.14.48-.48.57-.03,0-.07.01-.1.01Z"/>
      <path class="cls-2" d="M21.79,38.06c-.14,0-.25-.11-.25-.25v-1.3c0-.14.11-.25.25-.25s.24.11.24.25v1.3c0,.14-.11.25-.24.25Z"/>
      <path class="cls-2" d="M19.6,39.31c-.14,0-.25-.11-.25-.25v-1.3c0-.09.05-.17.12-.21l.53-.3c.12-.07.27-.03.34.09.07.12.03.27-.09.34l-.4.23v1.16c0,.14-.11.25-.25.25Z"/>
      <path class="cls-2" d="M19.6,38.65c-.08,0-.17-.04-.21-.12-.07-.12-.03-.27.09-.34l.39-.23c.11-.07.26-.03.34.09.07.12.03.27-.09.34l-.39.22s-.08.03-.12.03Z"/>
      <path class="cls-2" d="M18.71,38.29h0,0ZM18.8,38.53c-.08.08-.15.23-.18.41-.03.18,0,.33.02.41.06-.07.13-.2.16-.38.04-.19.02-.35,0-.43h0ZM18.66,39.4h0,0ZM18.6,39.87c-.07,0-.14-.02-.2-.05-.26-.15-.29-.55-.29-.71,0-.36.13-.83.48-1.03h0c.24-.14.48-.07.62.16.21.37.11,1.3-.37,1.58-.08.04-.15.07-.23.07Z"/>
      <path class="cls-2" d="M23.56,36.38c-.09,0-.17-.04-.21-.12-.07-.12-.03-.27.09-.34l.39-.22c.11-.07.27-.03.34.09.07.12.03.27-.09.34l-.39.22s-.08.03-.12.03Z"/>
      <path class="cls-2" d="M20.71,38.68c-.14,0-.25-.11-.25-.25v-1.3c0-.09.05-.17.12-.21l.53-.3c.12-.07.27-.03.34.09.07.12.03.27-.09.34l-.4.23v1.16c0,.14-.11.25-.25.25Z"/>
      <path class="cls-2" d="M20.71,38.01c-.08,0-.17-.05-.21-.13-.07-.12-.03-.27.09-.34l.39-.23c.11-.07.26-.03.34.09.07.12.03.27-.09.34l-.39.23s-.08.03-.12.03Z"/>
    </g>
  </g>
</svg>