<?xml version="1.0" encoding="UTF-8"?>
<svg id="Layer_2" data-name="Layer 2" xmlns="http://www.w3.org/2000/svg" viewBox="0 0 82.28 88.87" fill="currentColor">
  <defs>
    <style>
      .cls-1 {
        fill: #fff;
      }

      .cls-1, .cls-2, .cls-3, .cls-4 {
        fill-rule: evenodd;
      }

      .cls-2 {
        fill: #1a87c7;
      }

      .cls-3 {
        fill: #bdedf8;
      }

      .cls-4 {
        fill: #66ceef;
      }
    </style>
  </defs>
  <g id="_Layer_" data-name="&amp;lt;Layer&amp;gt;">
    <g>
      <path class="cls-4" d="M2.9,64.87l-1.9-1.29c-.3-.5-.37-.95-.38-1.54v-30.6c.06-2.12,1.39-4.44,3.21-5.54L46.93,1.05c.73-.4,1.48-.63,2.26-.22l1.89,1.29c-.78-.4-1.54-.18-2.26.22L5.72,27.2c-1.82,1.1-3.16,3.44-3.2,5.54v30.6c0,.58.07,1.03.38,1.54Z"/>
      <path class="cls-2" d="M1.47,63.16l.42.29s0-.06,0-.09l.02-30.61c.05-2.32,1.52-4.87,3.5-6.07L48.52,1.8c.18-.1.38-.2.6-.28l-.27-.18c-.4-.21-.89-.15-1.61.25L4.13,26.45c-1.63.99-2.85,3.1-2.89,5.02l-.02,30.58c.01.43.05.75.24,1.11h0ZM2.9,65.49c-.12,0-.25-.04-.35-.11l-1.89-1.29c-.08-.05-.14-.12-.19-.19-.37-.63-.46-1.19-.47-1.83v-30.61c.06-2.36,1.5-4.85,3.51-6.06L46.63.52c.7-.38,1.74-.81,2.86-.23l1.95,1.33c.27.18.35.55.18.83-.17.28-.52.38-.82.23-.46-.24-.96-.18-1.68.21L6.03,27.74c-1.63.99-2.85,3.1-2.89,5.02l-.02,30.58c.02.48.06.82.3,1.22.15.25.1.57-.11.76-.12.12-.27.17-.42.17Z"/>
      <path class="cls-3" d="M5.72,27.2L48.83,2.34c1.76-1.02,3.2-.18,3.2,1.84v30.6c-.01,2.03-1.45,4.52-3.21,5.54L5.71,65.19c-1.76,1.02-3.2.18-3.2-1.85v-30.6c.01-2.03,1.45-4.53,3.21-5.54Z"/>
      <path class="cls-2" d="M5.72,27.2h.02-.02ZM50.25,2.52c-.33,0-.71.12-1.11.35L6.03,27.74h0c-1.57.9-2.89,3.2-2.89,5l-.02,30.6c0,.74.23,1.3.63,1.54.4.23,1,.15,1.64-.22l43.1-24.87c1.57-.9,2.89-3.2,2.89-5V4.18c.01-.74-.22-1.3-.62-1.53-.15-.09-.33-.13-.53-.13h0ZM4.29,66.24c-.41,0-.8-.1-1.15-.3-.8-.47-1.25-1.39-1.25-2.6l.02-30.6c0-2.23,1.57-4.96,3.51-6.07L48.52,1.8c1.05-.6,2.07-.68,2.88-.22.8.47,1.25,1.39,1.25,2.6v30.6c-.02,2.27-1.56,4.94-3.52,6.07L6.02,65.72c-.6.35-1.18.52-1.73.52Z"/>
      <path class="cls-1" d="M5.91,29.5l11.35-6.55L48.63,4.85c.81-.47,1.46-.09,1.46.85v29.79c-.01.93-.67,2.07-1.47,2.54L13.23,58.44l-7.33,4.23c-.81.46-1.46.09-1.46-.85v-29.79c.01-.93.67-2.07,1.47-2.54Z"/>
      <path class="cls-2" d="M5.91,29.5h.02-.02ZM49.28,5.27c-.07,0-.19.03-.34.12L6.22,30.03h0c-.61.36-1.16,1.29-1.16,2v29.79c-.01.24.05.38.11.41.06.03.22.02.42-.1l42.73-24.64c.61-.36,1.15-1.29,1.15-2l.02-29.79c0-.23-.06-.38-.12-.41-.02-.01-.04-.02-.08-.02h0ZM5.25,63.48c-.25,0-.48-.06-.69-.18-.47-.27-.73-.81-.73-1.48v-29.79c.01-1.15.79-2.49,1.79-3.07L48.33,4.32c.58-.33,1.18-.37,1.65-.1.47.27.74.81.74,1.48v29.79c-.01,1.15-.79,2.49-1.79,3.07L6.2,63.21c-.32.18-.65.28-.96.28Z"/>
      <polygon class="cls-1" points="12.46 33.35 42.09 16.25 42.09 36.67 12.46 53.78 12.46 33.35"/>
      <path class="cls-2" d="M13.07,33.71v19l28.41-16.4v-19l-28.41,16.4h0ZM12.46,54.4c-.11,0-.22-.03-.31-.08-.19-.11-.31-.31-.31-.53v-20.43c0-.22.12-.42.31-.54l29.64-17.11c.19-.11.42-.11.61,0,.19.11.31.31.31.53v20.43c0,.22-.12.42-.31.53l-29.64,17.11c-.09.06-.2.08-.3.08Z"/>
      <polygon class="cls-3" points="12.46 33.35 42.09 16.25 42.09 13.3 12.46 30.41 12.46 33.35"/>
      <path class="cls-2" d="M13.07,30.76v1.53l28.41-16.4v-1.52L13.07,30.76h0ZM12.46,33.97c-.11,0-.22-.03-.31-.08-.19-.11-.31-.31-.31-.53v-2.95c0-.22.12-.42.31-.53l29.64-17.11c.19-.11.42-.11.61,0,.19.11.31.31.31.54v2.94c0,.22-.12.42-.31.53l-29.64,17.1c-.09.06-.2.08-.3.08Z"/>
      <path class="cls-3" d="M19.96,33.88h0c.4-.23.73-.04.73.42h0c0,.46-.32,1.03-.73,1.26h0c-.4.23-.73.05-.73-.42h0c0-.46.33-1.02.73-1.26Z"/>
      <path class="cls-2" d="M19.96,33.88h.02-.02ZM19.64,36.27c-.17,0-.35-.04-.49-.13-.34-.19-.52-.56-.52-1.01,0-.68.45-1.45,1.04-1.79.38-.22.8-.24,1.13-.05.33.19.52.56.52,1,0,.68-.45,1.45-1.04,1.79-.21.12-.42.18-.63.18Z"/>
      <path class="cls-3" d="M19.96,38.39h0c.4-.24.73-.05.73.41h0c0,.47-.32,1.03-.73,1.26h0c-.4.23-.73.04-.73-.42h0c0-.46.33-1.03.73-1.25Z"/>
      <path class="cls-2" d="M19.96,38.39h.02-.02ZM19.64,40.78c-.17,0-.34-.04-.49-.13-.34-.19-.52-.56-.52-1.01,0-.68.45-1.45,1.04-1.79.38-.22.8-.24,1.13-.05.33.19.52.56.52,1,0,.68-.45,1.46-1.04,1.79-.21.13-.42.18-.63.18Z"/>
      <path class="cls-3" d="M19.96,43.18h0c.4-.23.73-.05.73.41h0c0,.46-.32,1.03-.73,1.26h0c-.4.23-.73.04-.73-.41h0c0-.46.33-1.03.73-1.26Z"/>
      <path class="cls-2" d="M19.96,43.18h.02-.02ZM19.64,45.57c-.17,0-.35-.05-.49-.13-.34-.19-.52-.56-.52-1,0-.69.45-1.46,1.04-1.79.38-.23.8-.24,1.13-.05.33.19.52.56.52,1,0,.68-.45,1.45-1.04,1.79-.21.12-.42.18-.63.18Z"/>
      <path class="cls-3" d="M81.61,58.68v2.34c-.2.7-.67,1.11-1.28,1.48l-43.28,24.99c-.96.52-1.91.71-2.99.75-1.23.02-2.35-.17-3.43-.76l-26.57-15.37c-.61-.37-1.07-.78-1.28-1.48v-2.34c.2.7.67,1.11,1.28,1.48l26.57,15.37c1.08.6,2.2.78,3.43.77,1.08-.04,2.03-.24,2.99-.76l43.28-24.99c.61-.37,1.07-.78,1.28-1.48Z"/>
      <path class="cls-2" d="M3.41,70.55c.14.41.41.7.98,1.04l26.56,15.36c.88.48,1.83.69,3.11.68,1.1-.05,1.91-.25,2.7-.69l43.27-24.98c.55-.34.83-.63.97-1.04v-.46c-.12.08-.23.15-.35.22l-43.29,25c-.97.53-1.98.79-3.28.84-1.52.03-2.67-.25-3.75-.84l-26.58-15.37c-.12-.07-.24-.15-.35-.23v.47h0ZM33.94,88.87c-1.42,0-2.56-.27-3.6-.84l-26.58-15.37c-.62-.38-1.28-.89-1.56-1.84-.02-.06-.02-.11-.02-.17v-2.34c0-.31.22-.57.53-.61.3-.03.59.15.68.44.13.46.4.75,1.01,1.13l26.56,15.36c.88.49,1.83.71,3.11.68,1.1-.04,1.91-.25,2.7-.68l43.27-24.98c.59-.36.86-.67.99-1.12.08-.29.39-.48.68-.44.3.05.53.3.53.61v2.34c0,.06-.01.12-.03.17-.28.95-.94,1.46-1.55,1.83l-43.29,25c-.97.53-1.98.79-3.28.84h-.15Z"/>
      <path class="cls-4" d="M4.07,66.06l43.28-24.98c1.77-1.02,4.66-1.02,6.42,0l26.57,15.37c1.77,1.03,1.77,2.69,0,3.71l-43.28,24.99c-1.77,1.02-4.65,1.02-6.42,0l-26.57-15.37c-1.77-1.02-1.77-2.69,0-3.71Z"/>
      <path class="cls-2" d="M4.07,66.06h.02-.02ZM4.38,66.6c-.65.38-1.02.86-1.02,1.33s.37.95,1.02,1.32l26.57,15.37c1.57.91,4.23.91,5.81,0l43.28-24.99c.64-.37,1.02-.85,1.02-1.32s-.37-.95-1.02-1.33l-26.57-15.37c-1.57-.91-4.23-.91-5.8,0L4.38,66.6h0ZM33.85,86.52c-1.27,0-2.55-.28-3.52-.84l-26.57-15.37c-1.05-.61-1.63-1.46-1.63-2.39s.58-1.78,1.63-2.39l43.28-24.99c1.94-1.12,5.1-1.12,7.04,0l26.57,15.37c1.05.61,1.63,1.46,1.63,2.39s-.58,1.78-1.63,2.38l-43.28,24.99c-.97.56-2.24.84-3.52.84Z"/>
      <polygon class="cls-3" points="50.59 74.8 62.43 67.96 53.36 62.72 41.53 69.56 50.59 74.8"/>
      <path class="cls-2" d="M42.76,69.56l7.83,4.53,10.61-6.13-7.83-4.53-10.61,6.13h0ZM50.59,75.42c-.11,0-.22-.03-.31-.08l-9.07-5.24c-.19-.11-.31-.31-.31-.53s.12-.42.31-.53l11.84-6.84c.19-.11.42-.11.62,0l9.06,5.24c.19.11.3.31.3.53s-.12.42-.3.54l-11.84,6.84c-.1.06-.2.08-.31.08Z"/>
      <path class="cls-3" d="M9.48,66.93c13.12-7.57,26.23-15.15,39.34-22.73.94-.54,2.48-.54,3.43,0l13.41,7.76c.94.55.94,1.44,0,1.98-13.11,7.57-26.22,15.15-39.34,22.73-.94.54-2.48.54-3.43,0l-13.41-7.75c-.94-.55-.94-1.44,0-1.98Z"/>
      <path class="cls-2" d="M9.48,66.93l.31.53c-.25.14-.4.32-.4.46s.15.31.4.46l13.41,7.75c.74.43,2.06.43,2.81,0l39.34-22.73c.25-.14.4-.32.4-.46s-.15-.31-.4-.46l-13.41-7.76c-.74-.43-2.06-.43-2.81,0l-39.34,22.73-.31-.53h0ZM24.61,77.69c-.73,0-1.46-.16-2.02-.49l-13.41-7.75c-.65-.37-1.01-.93-1.01-1.52s.37-1.15,1.02-1.52l39.34-22.73c1.13-.65,2.91-.65,4.04,0l13.41,7.76c.64.37,1.01.93,1.01,1.52s-.37,1.15-1.02,1.52l-39.34,22.72c-.56.33-1.29.49-2.02.49Z"/>
      <path class="cls-1" d="M26.76,64.76l1.93-1.12c.39-.23,1.03-.23,1.41,0l1.93,1.12c.39.23.39.59,0,.82l-1.94,1.12c-.39.23-1.02.23-1.41,0l-1.93-1.12c-.39-.23-.39-.59,0-.82Z"/>
      <path class="cls-2" d="M27.28,65.17l1.72.99c.2.11.6.11.8,0l1.71-.99-1.71-.99c-.2-.12-.6-.12-.8,0l-1.72.99h0ZM29.4,67.48c-.37,0-.73-.08-1.02-.25l-1.93-1.12c-.38-.22-.6-.56-.6-.94s.22-.72.6-.94h0l1.94-1.12c.58-.34,1.45-.34,2.03,0l1.93,1.12c.38.22.6.57.6.94s-.22.72-.6.94l-1.94,1.12c-.29.17-.65.25-1.01.25Z"/>
      <path class="cls-1" d="M19.16,69.14l-1.93,1.12c-.39.23-.39.59,0,.82l1.93,1.12c.39.23,1.03.23,1.42,0l1.93-1.12c.39-.23.39-.59,0-.82l-1.93-1.12c-.39-.22-1.03-.22-1.42,0Z"/>
      <path class="cls-2" d="M17.75,70.67l1.71.99c.2.12.6.12.8,0l1.72-.99-1.72-.99c-.19-.12-.6-.12-.8,0l-1.71.99h0ZM19.86,72.98c-.36,0-.72-.08-1.01-.25l-1.94-1.12c-.38-.23-.6-.57-.6-.94s.22-.72.6-.94l1.93-1.12h0c.58-.33,1.45-.33,2.03,0l1.93,1.12c.38.22.6.57.6.94s-.22.72-.6.94l-1.93,1.12c-.29.17-.65.25-1.02.25Z"/>
      <path class="cls-1" d="M23.92,71.89l-1.93,1.12c-.39.23-.39.59,0,.82l1.93,1.12c.39.23,1.02.23,1.41,0l1.93-1.11c.39-.23.39-.59,0-.82l-1.93-1.12c-.39-.22-1.02-.22-1.42,0Z"/>
      <path class="cls-2" d="M22.52,73.42l1.71,1c.2.12.6.12.8,0l1.71-.99-1.71-1c-.19-.12-.6-.12-.8,0l-1.71.99h0ZM24.62,75.73c-.36,0-.72-.08-1.01-.25l-1.93-1.12c-.38-.22-.6-.56-.6-.94s.22-.72.6-.94l1.93-1.12h0c.58-.33,1.45-.33,2.03,0l1.93,1.12c.38.21.6.56.6.94s-.22.72-.6.94l-1.94,1.12c-.29.16-.65.25-1.02.25Z"/>
      <path class="cls-1" d="M20.58,66.69l1.93-1.12c.39-.22.39-.59,0-.81l-1.93-1.12c-.39-.23-1.02-.23-1.41,0l-1.93,1.12c-.39.22-.39.59,0,.82l1.93,1.12c.39.23,1.03.23,1.42,0Z"/>
      <path class="cls-2" d="M17.76,65.16l1.71,1c.2.11.6.11.8,0l1.71-.99-1.71-1c-.19-.11-.6-.11-.8,0l-1.71.99h0ZM20.58,66.69h.02-.02ZM19.87,67.47c-.36,0-.72-.08-1.01-.25l-1.94-1.12c-.38-.22-.6-.56-.6-.94s.22-.72.6-.94l1.94-1.12c.58-.33,1.45-.33,2.03,0l1.93,1.12c.38.22.6.56.6.94s-.22.72-.6.94l-1.93,1.12h0c-.29.17-.65.25-1.02.25Z"/>
      <path class="cls-1" d="M25.34,63.94l1.93-1.12c.39-.23.39-.59,0-.82l-1.93-1.12c-.39-.22-1.03-.22-1.41,0l-1.93,1.12c-.39.22-.39.59,0,.81l1.93,1.12c.38.23,1.02.23,1.41,0Z"/>
      <path class="cls-2" d="M22.52,62.41l1.71.99c.2.12.6.12.8,0l1.72-.99-1.71-.99c-.2-.11-.6-.12-.8,0l-1.71.99h0ZM25.34,63.94h.02-.02ZM24.63,64.73c-.36,0-.72-.08-1.01-.25l-1.93-1.12c-.38-.22-.6-.57-.6-.94s.22-.72.6-.94l1.93-1.12c.58-.33,1.45-.33,2.03,0l1.93,1.12c.38.22.6.57.6.94s-.22.72-.6.94l-1.93,1.12h0c-.29.17-.65.25-1.02.25Z"/>
      <path class="cls-1" d="M17.75,68.32l-1.93,1.12c-.39.23-1.02.23-1.42,0l-1.93-1.12c-.39-.23-.39-.59,0-.81l1.94-1.12c.39-.23,1.02-.23,1.41,0l1.93,1.12c.39.22.39.59,0,.82Z"/>
      <path class="cls-2" d="M12.99,67.91l1.71,1c.2.12.6.12.8,0l1.71-.99-1.71-1c-.19-.12-.6-.12-.79,0l-1.72.99h0ZM15.11,70.23c-.36,0-.72-.09-1.02-.25l-1.93-1.12c-.38-.22-.6-.57-.6-.94s.22-.72.6-.94l1.93-1.12c.58-.34,1.45-.34,2.03,0l1.93,1.12c.38.22.6.57.6.94s-.22.72-.6.94l-1.93,1.12c-.29.16-.65.25-1.02.25Z"/>
      <path class="cls-1" d="M21.99,67.51l1.93-1.12c.39-.23,1.02-.23,1.41,0l1.93,1.12c.39.22.39.59,0,.82l-1.94,1.12c-.39.23-1.02.23-1.41,0l-1.93-1.12c-.39-.22-.39-.59,0-.82Z"/>
      <path class="cls-2" d="M22.52,67.92l1.71.99c.2.12.6.12.8,0l1.72-.99-1.72-.99c-.19-.12-.59-.12-.79,0l-1.72.99h0ZM24.63,70.23c-.37,0-.73-.08-1.02-.25l-1.93-1.12c-.38-.22-.6-.56-.6-.94s.22-.72.6-.94h0l1.94-1.12c.58-.33,1.45-.34,2.02,0l1.94,1.12c.38.21.6.56.6.94s-.22.72-.6.94l-1.94,1.12c-.29.17-.65.25-1.01.25Z"/>
      <path class="cls-1" d="M36.28,59.25l1.93-1.12c.39-.23,1.03-.23,1.42,0l1.93,1.12c.39.22.39.59,0,.81l-1.93,1.12c-.39.22-1.03.22-1.42,0l-1.93-1.12c-.39-.23-.39-.59,0-.82Z"/>
      <path class="cls-2" d="M36.28,59.25h.02-.02ZM36.81,59.66l1.71.99c.19.12.6.12.8,0l1.71-.99-1.71-.99c-.19-.12-.6-.12-.8,0l-1.71.99h0ZM38.92,61.97c-.37,0-.73-.08-1.02-.25l-1.93-1.12c-.38-.22-.6-.56-.6-.94s.22-.72.6-.94l1.94-1.12c.58-.33,1.45-.33,2.03,0l1.93,1.12c.38.22.6.56.6.94,0,.38-.21.72-.6.94l-1.93,1.12c-.29.17-.65.25-1.01.25Z"/>
      <path class="cls-1" d="M41.05,62.01l1.93-1.12c.39-.23,1.02-.23,1.42,0l1.93,1.12c.39.23.39.59,0,.82l-1.93,1.12c-.39.23-1.02.23-1.41,0l-1.93-1.12c-.39-.22-.39-.59,0-.81Z"/>
      <path class="cls-2" d="M41.05,62.01h.02-.02ZM41.57,62.41l1.71,1c.2.12.6.12.8,0l1.72-.99-1.71-1c-.2-.11-.6-.11-.8,0l-1.71.99h0ZM43.69,64.73c-.37,0-.73-.08-1.02-.25l-1.93-1.12c-.38-.22-.6-.57-.6-.94,0-.38.21-.72.6-.94l1.93-1.12c.58-.33,1.46-.33,2.03,0l1.93,1.12c.39.22.6.57.6.94s-.22.72-.6.94l-1.93,1.12c-.29.17-.65.25-1.01.25Z"/>
      <path class="cls-1" d="M30.1,61.19l1.94-1.12c.39-.22.39-.59,0-.81l-1.93-1.12c-.39-.23-1.03-.23-1.42,0l-1.94,1.11c-.39.23-.39.59,0,.82l1.94,1.12c.38.22,1.02.22,1.41,0Z"/>
      <path class="cls-2" d="M27.28,59.66l1.72,1c.19.12.59.12.79,0h0l1.71-.99-1.71-1c-.2-.11-.6-.11-.8,0l-1.72.99h0ZM29.4,61.97c-.36,0-.72-.08-1.01-.25l-1.93-1.12c-.38-.22-.6-.57-.6-.94s.22-.72.6-.94l1.93-1.12c.58-.33,1.45-.33,2.03,0l1.93,1.12c.38.22.6.57.6.94s-.22.72-.6.94l-1.93,1.12c-.29.17-.65.25-1.02.25Z"/>
      <path class="cls-1" d="M34.87,58.44l1.93-1.12c.39-.22.39-.59,0-.82l-1.93-1.12c-.39-.22-1.02-.22-1.42,0l-1.93,1.12c-.39.22-.39.59,0,.81l1.93,1.12c.39.22,1.02.22,1.42,0Z"/>
      <path class="cls-2" d="M32.05,56.91l1.71,1c.19.12.6.12.8,0l1.71-.99-1.71-1c-.2-.12-.6-.12-.8,0l-1.71.99h0ZM34.87,58.44h.01-.01ZM34.16,59.22c-.37,0-.73-.08-1.02-.25l-1.93-1.12c-.38-.22-.6-.57-.6-.94s.22-.72.6-.94l1.93-1.12c.58-.34,1.45-.34,2.03,0l1.93,1.12c.38.22.6.57.6.94s-.22.72-.6.94l-1.94,1.12h0c-.29.17-.65.25-1.01.25Z"/>
      <path class="cls-1" d="M31.52,62.01l1.93-1.12c.39-.23,1.03-.23,1.41,0l1.93,1.12c.39.23.39.59,0,.82l-1.93,1.12c-.39.23-1.03.23-1.41,0l-1.93-1.12c-.39-.23-.39-.59,0-.82Z"/>
      <path class="cls-2" d="M31.52,62.01h.02-.02ZM32.04,62.41l1.72,1c.19.11.6.11.8,0l1.72-.99-1.72-.99c-.19-.11-.6-.11-.8,0l-1.72.99h0ZM34.16,64.73c-.37,0-.73-.08-1.02-.25l-1.93-1.12c-.38-.22-.6-.56-.6-.94s.22-.72.6-.94l1.93-1.12c.58-.33,1.45-.33,2.03,0l1.93,1.12c.38.22.6.56.6.94s-.22.72-.6.94l-1.93,1.12c-.29.17-.65.25-1.01.25Z"/>
      <path class="cls-1" d="M26.75,70.26l11.46-6.62c.39-.23,1.03-.23,1.42,0l1.93,1.12c.39.23.39.59,0,.82l-11.46,6.62c-.39.22-1.03.22-1.41,0l-1.93-1.12c-.39-.23-.39-.59,0-.81Z"/>
      <path class="cls-2" d="M27.28,70.67l1.71,1c.2.12.6.12.8,0l11.24-6.49-1.71-1c-.19-.12-.6-.12-.79,0l-11.24,6.49h0ZM29.39,72.98c-.36,0-.72-.08-1.01-.25l-1.93-1.12c-.38-.22-.6-.56-.6-.94s.22-.72.6-.94h0l11.46-6.62c.58-.34,1.46-.33,2.03,0l1.93,1.12c.38.22.6.57.6.94s-.22.73-.6.94l-11.47,6.62c-.29.16-.65.25-1.02.25Z"/>
      <path class="cls-1" d="M52.12,50.1l1.93-1.12c.39-.22,1.03-.22,1.42,0l1.93,1.12c.39.23.39.59,0,.82l-1.93,1.12c-.39.23-1.03.23-1.42,0l-1.93-1.12c-.39-.22-.39-.59,0-.82Z"/>
      <path class="cls-2" d="M52.12,50.1h.01-.01ZM52.64,50.51l1.72.99c.2.12.6.12.8,0l1.71-.99-1.71-1c-.2-.11-.6-.11-.8,0l-1.72,1h0ZM54.75,52.82c-.36,0-.72-.08-1.01-.26l-1.93-1.12c-.38-.22-.6-.56-.6-.94s.22-.72.6-.94l1.94-1.12c.58-.34,1.45-.34,2.03,0l1.93,1.12c.38.22.6.57.6.94s-.22.72-.6.94l-1.93,1.11c-.29.17-.66.26-1.02.26Z"/>
      <path class="cls-1" d="M56.88,52.86l1.93-1.12c.39-.22,1.02-.22,1.41,0l1.93,1.12c.39.23.39.59,0,.81l-1.94,1.12c-.38.22-1.02.22-1.41,0l-1.93-1.12c-.39-.23-.39-.59,0-.82Z"/>
      <path class="cls-2" d="M56.88,52.86h.01-.01ZM57.4,53.27l1.71,1c.2.11.6.12.8,0l1.71-.99-1.71-1c-.2-.11-.6-.11-.8,0l-1.71.99h0ZM59.52,55.58c-.36,0-.73-.08-1.02-.25l-1.93-1.12c-.38-.22-.6-.57-.6-.94s.22-.72.6-.94l1.93-1.12c.59-.34,1.46-.33,2.03,0l1.93,1.12c.38.22.6.56.6.94s-.22.72-.6.94l-1.94,1.12c-.29.17-.65.25-1.01.25Z"/>
      <path class="cls-1" d="M50.7,49.29l1.94-1.12c.39-.22.39-.59,0-.82l-1.94-1.12c-.39-.22-1.02-.22-1.41,0l-1.93,1.12c-.39.22-.39.59,0,.82l1.93,1.12c.39.22,1.03.22,1.41,0Z"/>
      <path class="cls-2" d="M47.88,47.76l1.71,1c.2.12.6.11.8,0h0l1.71-.99-1.71-1c-.19-.12-.6-.12-.79,0l-1.72.99h0ZM49.99,50.07c-.36,0-.72-.08-1.01-.25l-1.94-1.12c-.38-.22-.6-.57-.6-.94s.22-.72.6-.95l1.94-1.12c.58-.34,1.46-.34,2.03,0l1.94,1.12c.38.22.6.56.6.94s-.22.72-.6.94l-1.94,1.12c-.29.17-.65.25-1.02.25Z"/>
      <path class="cls-1" d="M47.35,52.86l1.93-1.12c.39-.22,1.03-.22,1.41,0l1.93,1.12c.39.23.39.59,0,.82l-1.93,1.12c-.39.22-1.03.22-1.41,0l-1.93-1.12c-.39-.23-.39-.6,0-.82Z"/>
      <path class="cls-2" d="M47.35,52.86h.02-.02ZM47.88,53.27l1.71.99c.2.12.6.12.8,0l1.71-.99-1.71-.99c-.19-.11-.6-.11-.8,0l-1.71.99h0ZM49.99,55.58c-.36,0-.72-.08-1.02-.25l-1.93-1.12c-.38-.23-.6-.57-.6-.94s.22-.72.6-.94l1.94-1.12c.58-.33,1.45-.34,2.03,0l1.93,1.12c.38.22.6.56.6.94,0,.38-.22.72-.6.94l-1.93,1.12c-.29.17-.65.25-1.02.25Z"/>
      <path class="cls-1" d="M52.12,55.61l1.93-1.12c.39-.23,1.02-.23,1.42,0l1.93,1.12c.39.22.39.59,0,.81l-1.93,1.12c-.39.23-1.02.23-1.41,0l-1.93-1.12c-.39-.23-.38-.59,0-.82Z"/>
      <path class="cls-2" d="M52.12,55.61h.01-.01ZM52.64,56.02l1.71,1c.19.11.6.12.8,0l1.71-.99-1.71-1c-.2-.12-.6-.12-.8,0l-1.72.99h0ZM54.75,58.33c-.36,0-.72-.08-1.01-.25l-1.93-1.12c-.38-.22-.6-.56-.6-.94s.21-.72.6-.94l1.93-1.12c.58-.34,1.45-.33,2.03,0l1.93,1.12c.38.22.6.56.6.94,0,.38-.22.72-.6.94l-1.93,1.12c-.29.17-.65.25-1.02.25Z"/>
      <path class="cls-1" d="M41.18,54.79l1.94-1.12c.39-.23.39-.6,0-.82l-1.94-1.12c-.38-.23-1.02-.23-1.41,0l-1.93,1.12c-.39.23-.39.59,0,.82l1.93,1.12c.39.22,1.02.22,1.41,0Z"/>
      <path class="cls-2" d="M38.36,53.26l1.72.99c.2.12.59.12.8,0l1.71-.99-1.71-.99c-.2-.12-.6-.12-.8,0l-1.72.99h0ZM41.18,54.79h.02-.02ZM40.47,55.57c-.36,0-.72-.08-1.01-.25l-1.94-1.12c-.38-.22-.6-.56-.6-.94s.22-.72.6-.95l1.93-1.12c.58-.33,1.45-.33,2.03,0l1.94,1.12c.38.22.6.57.6.94s-.22.72-.6.94l-1.94,1.12h0c-.29.17-.66.25-1.02.25Z"/>
      <path class="cls-1" d="M45.94,52.04l1.94-1.12c.39-.22.39-.59,0-.82l-1.93-1.12c-.39-.22-1.02-.23-1.41,0l-1.93,1.12c-.39.23-.39.59,0,.82l1.93,1.12c.39.22,1.02.22,1.41,0Z"/>
      <path class="cls-2" d="M43.12,50.51l1.71,1c.19.12.6.12.79,0h0l1.71-.99-1.71-1c-.2-.11-.6-.11-.8,0l-1.71.99h0ZM45.24,52.82c-.37,0-.73-.08-1.02-.26l-1.93-1.12c-.38-.22-.6-.57-.6-.94s.22-.72.6-.94l1.93-1.12c.58-.34,1.45-.34,2.03,0l1.94,1.12c.38.22.6.57.6.94s-.22.72-.6.94l-1.94,1.12c-.29.17-.65.26-1.01.26Z"/>
      <path class="cls-1" d="M42.6,55.61l1.93-1.12c.39-.23,1.02-.23,1.41,0l1.94,1.12c.39.22.39.59,0,.82l-1.93,1.12c-.39.23-1.03.23-1.41,0l-1.93-1.12c-.39-.23-.39-.59,0-.82Z"/>
      <path class="cls-2" d="M43.12,56.02l1.71,1c.2.12.6.12.8,0l1.71-1-1.71-.99c-.2-.12-.6-.12-.79,0l-1.72,1h0ZM45.23,58.33c-.37,0-.73-.08-1.02-.25l-1.93-1.12c-.38-.22-.6-.57-.6-.94s.22-.72.6-.94h0l1.93-1.12c.58-.34,1.45-.34,2.03,0l1.94,1.12c.38.22.6.56.59.94,0,.38-.22.72-.6.94l-1.93,1.12c-.29.17-.66.25-1.02.25Z"/>
      <path class="cls-1" d="M47.35,58.36l1.93-1.12c.39-.23,1.02-.23,1.41,0l1.93,1.12c.39.23.39.59,0,.81l-1.93,1.12c-.39.23-1.03.23-1.42,0l-1.93-1.12c-.39-.23-.39-.59,0-.82Z"/>
      <path class="cls-2" d="M47.88,58.77l1.72,1c.19.12.6.12.8,0l1.71-.99-1.71-1c-.2-.12-.6-.12-.8,0l-1.72.99h0ZM49.99,61.08c-.36,0-.72-.08-1.01-.26l-1.93-1.12c-.38-.22-.6-.56-.6-.94s.22-.72.6-.94h0l1.94-1.12c.58-.34,1.45-.34,2.03,0l1.93,1.12c.38.22.6.57.6.94s-.22.72-.6.94l-1.93,1.12c-.29.17-.65.26-1.02.26Z"/>
      <path class="cls-4" d="M34.1,88.25v-2.34h-.04c-1.22.02-2.35-.17-3.43-.77l-26.57-15.37c-.61-.37-1.07-.77-1.28-1.48v2.34c.21.71.66,1.11,1.28,1.48l26.57,15.37c1.07.59,2.21.78,3.43.76h.04Z"/>
      <path class="cls-2" d="M3.41,70.54c.14.41.41.71.98,1.05l26.56,15.36c.73.4,1.55.62,2.54.67v-1.11c-1.23-.05-2.23-.32-3.14-.83l-26.58-15.37c-.12-.07-.24-.15-.35-.23v.46h0ZM34.1,88.25h.02-.02ZM33.94,88.87c-1.43,0-2.57-.27-3.6-.84l-26.58-15.37c-.62-.38-1.28-.89-1.56-1.84-.02-.06-.03-.11-.03-.17v-2.34c0-.31.22-.57.53-.61.3-.05.59.14.68.44.13.46.41.76,1.01,1.12l26.56,15.36c.86.48,1.84.71,3.11.68.15,0,.34.06.46.18.12.12.2.27.2.44v2.34c0,.33-.26.6-.58.62h-.19Z"/>
      <path class="cls-2" d="M22.77,38.23c-.21,0-.42-.11-.53-.31-.17-.29-.07-.67.23-.84l11.59-6.69c.29-.17.67-.07.84.23.17.29.07.67-.23.84l-11.59,6.69c-.09.06-.2.08-.3.08Z"/>
      <path class="cls-2" d="M22.77,33.72c-.21,0-.42-.11-.53-.31-.17-.29-.07-.67.23-.84l11.59-6.69c.29-.17.67-.07.84.22.17.3.07.67-.23.84l-11.59,6.69c-.09.06-.2.08-.3.08Z"/>
      <path class="cls-2" d="M22.77,43.02c-.21,0-.42-.11-.53-.31-.17-.29-.07-.67.23-.84l9.37-5.41c.29-.17.67-.07.84.23.17.29.07.67-.22.84l-9.37,5.41c-.09.06-.2.08-.3.08Z"/>
    </g>
  </g>
</svg>