<?xml version="1.0" encoding="UTF-8"?>
<svg id="Layer_2" data-name="Layer 2" xmlns="http://www.w3.org/2000/svg" viewBox="0 0 34.07 41.95" fill="currentColor">
  <defs>
    <style>
      .cls-1 {
        fill: #fff;
      }

      .cls-1, .cls-2, .cls-3 {
        fill-rule: evenodd;
      }

      .cls-2 {
        fill: #1a87c7;
      }

      .cls-3 {
        fill: #bdedf8;
      }
    </style>
  </defs>
  <g id="_Layer_" data-name="&amp;lt;Layer&amp;gt;">
    <g>
      <path class="cls-3" d="M18.39,5.33c3.2-1.76,3.63-.97,6.68.8-5.69-2.97-13.86,10.16-9.75,14.87l.79.65c-1.39-.8-2.57-1.16-3.3-2.32-2.39-3.75.99-11.21,5.59-14Z"/>
      <path class="cls-2" d="M18.54,5.6c-2.71,1.65-5.16,5.16-5.95,8.55-.48,2.04-.31,3.78.47,5.01.39.61.9.98,1.54,1.33-1.66-2.96-.09-7.88,2.6-11.3,1.91-2.43,4.09-3.76,6.04-3.8-1.62-.96-2.33-1.09-4.69.2h0ZM16.11,21.97c-.05,0-.12-.02-.16-.04-.34-.2-.66-.36-.98-.52-.98-.51-1.83-.96-2.43-1.9-.88-1.38-1.07-3.28-.56-5.48.84-3.6,3.35-7.19,6.24-8.94t.02,0c2.94-1.62,3.76-1.13,5.94.18.31.19.66.4,1.04.62.14.09.19.27.11.42-.08.15-.26.2-.41.12-2.49-1.3-5.37.8-7.25,3.18-2.78,3.53-4.34,8.69-2.13,11.22l.75.62c.12.1.15.28.06.41-.06.09-.16.14-.25.14Z"/>
      <path class="cls-1" d="M20.83,3.99c0,.6-.42,1.32-.94,1.63-.52.3-.94.05-.94-.54v-1.77c0-.6.42-1.32.94-1.63.52-.29.94-.05.94.54v1.77Z"/>
      <path class="cls-2" d="M20.31,1.86c-.07,0-.17.03-.26.09-.43.24-.79.87-.79,1.36v1.77c0,.17.05.3.12.34.08.04.21.02.36-.07.43-.24.79-.87.79-1.36v-1.77c0-.16-.05-.3-.12-.34-.03-.01-.06-.02-.1-.02h0ZM19.48,6.05c-.15,0-.28-.03-.4-.1-.27-.15-.42-.48-.42-.87v-1.77c0-.7.48-1.54,1.08-1.9.35-.2.7-.22.97-.06.28.16.43.48.43.87v1.77c0,.71-.49,1.54-1.1,1.9-.2.11-.39.16-.57.16Z"/>
      <path class="cls-1" d="M27.66,10.1c-.52.3-.94.06-.94-.54s.42-1.33.94-1.62l1.53-.89c.52-.3.94-.05.94.55s-.42,1.32-.94,1.63l-1.53.88Z"/>
      <path class="cls-2" d="M29.61,7.23c-.07,0-.17.03-.26.09l-1.53.89c-.42.24-.79.87-.79,1.36,0,.17.04.3.12.34.08.05.21.03.36-.06h0l1.53-.89c.42-.24.79-.87.79-1.36,0-.17-.05-.3-.12-.35-.03,0-.06-.02-.09-.02h0ZM27.23,10.54c-.14,0-.28-.03-.39-.1-.28-.16-.44-.48-.44-.88,0-.7.48-1.54,1.09-1.89l1.53-.88c.35-.21.71-.23.97-.07.28.16.43.48.43.88,0,.7-.49,1.54-1.1,1.89l-1.53.88c-.2.11-.39.18-.58.18Z"/>
      <path class="cls-1" d="M18.96,23c0-.6.42-1.33.94-1.63.52-.29.94-.05.94.55v1.77c0,.6-.42,1.33-.94,1.62-.52.3-.94.06-.94-.54v-1.76Z"/>
      <path class="cls-2" d="M20.31,21.55c-.07,0-.17.03-.26.09-.43.24-.79.87-.79,1.37v1.76c0,.17.05.3.12.34.08.04.21.02.36-.06.43-.25.79-.87.79-1.37v-1.77c0-.17-.05-.29-.12-.35-.03,0-.06-.02-.1-.02h0ZM19.48,25.74c-.15,0-.28-.03-.4-.1-.27-.16-.42-.47-.42-.87v-1.76c0-.71.48-1.55,1.08-1.89.35-.2.7-.23.97-.07.28.16.43.48.43.88v1.77c0,.71-.49,1.54-1.1,1.89-.2.11-.39.17-.57.17Z"/>
      <path class="cls-1" d="M12.14,16.89c.52-.3.94-.06.94.54s-.42,1.33-.94,1.62l-1.53.89c-.52.3-.94.06-.94-.54s.42-1.33.94-1.63l1.53-.88Z"/>
      <path class="cls-2" d="M12.29,17.16l-1.53.88c-.42.24-.78.87-.78,1.36,0,.17.04.3.11.34.08.05.21.02.36-.07l1.53-.88c.42-.24.79-.87.79-1.36,0-.17-.04-.3-.12-.34-.08-.04-.21-.02-.36.07h0ZM10.19,20.38c-.15,0-.28-.03-.4-.1-.27-.16-.43-.47-.43-.87,0-.71.48-1.54,1.09-1.9l1.53-.89h0c.35-.2.7-.22.97-.06.28.16.43.47.43.87,0,.71-.49,1.54-1.09,1.89l-1.53.89c-.2.11-.39.17-.57.17Z"/>
      <path class="cls-1" d="M16.83,6.96c.26.37.11,1.12-.34,1.68-.45.56-1.03.72-1.29.34l-.76-1.09c-.26-.36-.1-1.12.35-1.68.45-.56,1.02-.71,1.28-.35l.76,1.1Z"/>
      <path class="cls-2" d="M15.67,5.98c-.14,0-.39.11-.65.42-.38.48-.49,1.09-.33,1.31l.76,1.09s.07.07.13.07c.13,0,.4-.11.66-.43.38-.48.48-1.08.33-1.31h0l-.76-1.09c-.03-.05-.07-.07-.13-.07h0ZM15.59,9.5h-.03c-.25-.01-.47-.12-.62-.33l-.76-1.09c-.35-.5-.19-1.37.36-2.05.34-.42.75-.66,1.13-.66h.03c.25,0,.47.12.62.33l.76,1.09c.35.49.19,1.37-.36,2.05-.34.43-.75.66-1.13.66Z"/>
      <path class="cls-1" d="M13.65,11.69c.44.03.6.62.34,1.28-.25.67-.83,1.18-1.28,1.14l-1.33-.11c-.44-.05-.6-.62-.34-1.29.26-.67.83-1.17,1.28-1.14l1.33.12Z"/>
      <path class="cls-2" d="M12.26,11.87c-.28,0-.73.39-.94.95-.16.39-.12.67-.04.78.04.05.07.08.12.08l1.33.12c.29.03.75-.37.96-.94.15-.39.12-.67.04-.79-.03-.05-.07-.07-.12-.08l-1.33-.11s-.02-.01-.03-.01h0ZM12.75,14.42h-.07l-1.33-.12c-.25-.03-.46-.16-.59-.36-.21-.33-.21-.82,0-1.34.31-.81.97-1.38,1.59-1.33l1.33.12h0c.25.02.46.15.59.36.21.32.21.83.01,1.33-.3.78-.94,1.34-1.52,1.34Z"/>
      <path class="cls-1" d="M12.71,21.19c.45-.56,1.03-.71,1.28-.34.26.37.11,1.12-.34,1.68l-1.33,1.65c-.44.55-1.02.71-1.28.34-.26-.36-.1-1.12.34-1.68l1.33-1.65Z"/>
      <path class="cls-2" d="M12.71,21.19h.01-.01ZM13.6,20.95c-.14,0-.39.11-.65.43h0l-1.32,1.65c-.38.48-.5,1.09-.33,1.31.03.04.07.07.13.07.13,0,.4-.1.66-.43l1.32-1.64c.38-.48.5-1.09.33-1.31-.03-.04-.07-.07-.13-.07h0ZM11.43,25.03h-.03c-.25,0-.48-.13-.62-.33-.35-.5-.19-1.37.36-2.05l1.32-1.65c.35-.43.81-.67,1.16-.66.26,0,.48.13.62.33.35.5.19,1.37-.36,2.05l-1.32,1.65c-.34.42-.75.66-1.13.66Z"/>
      <path class="cls-1" d="M15.2,23.42c.26-.66.84-1.17,1.29-1.14.44.04.6.62.34,1.29l-.76,1.97c-.26.67-.83,1.18-1.28,1.14-.45-.04-.61-.62-.35-1.29l.76-1.97Z"/>
      <path class="cls-2" d="M15.49,23.53l-.76,1.97c-.15.39-.11.67-.04.78.03.05.07.08.13.09.27.03.75-.37.97-.95l.76-1.97c.15-.39.12-.66.04-.78-.03-.05-.07-.08-.13-.08-.29-.03-.75.38-.96.94h0ZM14.83,26.99s-.05-.01-.08-.01c-.24-.02-.46-.15-.59-.36-.2-.33-.21-.83,0-1.34l.76-1.96h0c.31-.82.99-1.4,1.6-1.34.25.03.46.15.59.37.21.32.21.83,0,1.33l-.76,1.97c-.31.77-.94,1.34-1.52,1.34Z"/>
      <path class="cls-1" d="M22.96,20.03c-.26-.37-.1-1.12.34-1.69.45-.55,1.02-.71,1.29-.34l.76,1.09c.26.37.1,1.12-.35,1.68-.45.56-1.02.71-1.28.35l-.77-1.08Z"/>
      <path class="cls-2" d="M23.22,19.85l.76,1.09s.07.06.13.07h0c.15,0,.4-.12.65-.43.38-.48.49-1.09.33-1.31l-.76-1.09s-.07-.07-.13-.07c-.13-.03-.4.1-.66.43-.38.47-.49,1.08-.33,1.31h0ZM24.12,21.62h-.02c-.25-.01-.47-.12-.62-.33l-.76-1.08h0c-.35-.49-.19-1.37.36-2.05.34-.43.75-.68,1.16-.66.25,0,.47.13.62.34l.76,1.09c.35.48.19,1.37-.36,2.05-.33.41-.76.65-1.13.65Z"/>
      <path class="cls-1" d="M26.15,15.3c-.44-.03-.6-.61-.34-1.28.25-.67.83-1.18,1.28-1.14l1.33.12c.44.03.6.61.34,1.28-.26.67-.84,1.18-1.28,1.14l-1.33-.12Z"/>
      <path class="cls-2" d="M27.03,13.19c-.28,0-.73.39-.94.95-.16.38-.12.66-.04.78.03.05.07.08.12.08h0l1.33.12c.28.03.75-.37.96-.95.16-.38.12-.66.04-.78-.03-.05-.07-.08-.12-.08l-1.33-.12h-.03ZM27.52,15.73s-.05,0-.07,0l-1.33-.11c-.25-.03-.46-.15-.59-.37-.21-.32-.21-.81,0-1.33.31-.82,1.01-1.38,1.59-1.33l1.33.11c.25.02.46.16.59.37.21.33.21.82,0,1.33-.3.78-.94,1.34-1.52,1.34Z"/>
      <path class="cls-1" d="M27.09,5.8c-.45.55-1.03.71-1.28.35-.26-.37-.1-1.12.34-1.68l1.33-1.64c.44-.57,1.02-.71,1.28-.35.26.37.1,1.12-.34,1.68l-1.33,1.65Z"/>
      <path class="cls-2" d="M27.09,5.8h0,0ZM28.36,2.58c-.14,0-.39.11-.65.43l-1.32,1.65c-.38.47-.5,1.08-.33,1.31.03.05.07.07.13.07.11,0,.4-.1.66-.43l1.32-1.65c.38-.48.5-1.09.33-1.31-.03-.05-.07-.07-.13-.08h-.01ZM26.2,6.65h-.03c-.25,0-.47-.12-.61-.33-.35-.49-.19-1.37.36-2.05l1.32-1.65c.35-.43.73-.68,1.16-.65.26,0,.48.12.62.33.35.49.19,1.37-.36,2.05l-1.32,1.64h0c-.33.42-.75.66-1.13.66Z"/>
      <path class="cls-1" d="M24.59,3.57c-.26.67-.84,1.17-1.29,1.14-.45-.04-.6-.62-.34-1.29l.77-1.97c.26-.67.83-1.17,1.28-1.14.45.04.61.62.35,1.29l-.76,1.97Z"/>
      <path class="cls-2" d="M24.96.62c-.29,0-.73.39-.95.94l-.76,1.97c-.15.39-.12.67-.04.78.03.05.07.08.13.08.3.04.75-.37.96-.94h0l.77-1.97c.15-.38.12-.66.04-.78-.03-.05-.07-.08-.13-.08h-.02ZM23.35,5.01h-.08c-.24-.02-.46-.16-.59-.36-.21-.33-.21-.82-.01-1.34l.77-1.97c.31-.81,1.01-1.38,1.6-1.33.24.03.46.16.59.36.21.33.21.82,0,1.34l-.76,1.97c-.3.78-.94,1.33-1.52,1.33Z"/>
      <path class="cls-1" d="M20.58,6.57c.86-.5,1.68-.77,2.43-.84.77-.08,1.48.06,2.06.4.58.34,1.05.87,1.37,1.58.31.69.49,1.53.49,2.52s-.18,2.03-.49,3.08c-.32,1.08-.79,2.16-1.37,3.17-1.15,1.98-2.73,3.72-4.49,4.73-.85.5-1.68.77-2.43.84-.77.08-1.47-.06-2.05-.4-.59-.34-1.06-.87-1.38-1.58-.3-.69-.48-1.53-.48-2.52s.17-2.03.48-3.07c.32-1.08.79-2.16,1.38-3.17.58-1.01,1.28-1.96,2.05-2.77.75-.79,1.57-1.46,2.43-1.96Z"/>
      <path class="cls-2" d="M20.58,6.57h0,0ZM23.42,6.02c-.12,0-.25,0-.37.02-.73.07-1.5.34-2.3.8h0c-.82.48-1.61,1.11-2.36,1.9-.76.8-1.44,1.71-2.02,2.72-.58,1.01-1.03,2.05-1.35,3.11-.31,1.05-.47,2.05-.47,2.99s.15,1.73.46,2.39c.29.65.71,1.14,1.24,1.44.54.31,1.17.43,1.88.36.72-.07,1.49-.34,2.3-.81,1.64-.95,3.19-2.59,4.36-4.62.58-1.01,1.03-2.05,1.35-3.1.31-1.04.47-2.05.47-2.99s-.15-1.73-.45-2.4c-.3-.64-.71-1.13-1.25-1.44-.43-.25-.94-.37-1.49-.37h0ZM17.75,22.38c-.66,0-1.27-.16-1.8-.46-.65-.37-1.16-.96-1.5-1.72-.34-.75-.51-1.64-.51-2.65s.17-2.06.5-3.16c.33-1.1.8-2.19,1.41-3.24.61-1.04,1.31-2,2.1-2.83.78-.84,1.62-1.51,2.49-2.01h0c.88-.5,1.73-.8,2.55-.89.83-.08,1.59.07,2.24.44.65.38,1.16.96,1.5,1.72.33.75.5,1.63.5,2.65s-.16,2.06-.5,3.16c-.32,1.1-.8,2.19-1.4,3.23-1.23,2.12-2.86,3.84-4.6,4.85-.88.51-1.74.8-2.55.88-.15.02-.3.02-.44.02Z"/>
      <path class="cls-3" d="M10.63,40.94c-1.41.81-2.67.89-3.6.36h0s-5.23-3.03-5.23-3.03c-.3-.18-.54-.4-.76-.68-.82-1.09-.83-2.74-.6-4.03.45-2.48,2-5.13,3.96-6.71l.23-.18c.04-.28.06-.55.12-.83.7-4.03,3.5-8.54,7.07-10.61,1.4-.81,3.22-1.36,4.78-.68l.16.08,1.09.63c.98-.87,2.32-1.69,3.66-1.67.32.01.67.07.97.19l.14.06,2.29,1.32.24-.05c.52-.09,1.09-.06,1.58.14l.17.08,5.24,3.02c1,.49,1.63,1.66,1.63,3.36,0,3.24-2.28,7.19-5.09,8.81l-18.05,10.41Z"/>
      <path class="cls-2" d="M15.05,14.55c-1.22,0-2.38.55-3.08.96-3.35,1.95-6.2,6.21-6.92,10.39-.05.28-.08.53-.11.81-.01.09-.05.15-.12.21l-.23.18c-1.89,1.53-3.41,4.08-3.85,6.53-.13.74-.35,2.6.55,3.79.18.24.39.42.66.59l5.24,3.03c.87.5,2.03.37,3.29-.36l18.05-10.41c2.71-1.56,4.93-5.39,4.93-8.54,0-1.5-.53-2.63-1.46-3.08l-5.4-3.11c-.41-.15-.9-.2-1.42-.11l-.23.05c-.08,0-.15,0-.22-.03l-2.4-1.37c-.24-.1-.55-.16-.84-.17h-.05c-1.39,0-2.72,1-3.4,1.59-.1.09-.24.11-.36.04l-1.22-.69c-.46-.2-.94-.29-1.42-.29h0ZM8.35,41.95c-.53,0-1.03-.13-1.48-.39l-5.24-3.03c-.35-.21-.61-.44-.84-.75-1.04-1.38-.81-3.45-.66-4.28.47-2.57,2.07-5.28,4.08-6.89l.13-.1c.04-.24.06-.47.11-.72.76-4.34,3.73-8.8,7.22-10.83,1.06-.62,3.14-1.53,5.06-.69l.16.08.92.53c.79-.67,2.22-1.6,3.7-1.61.37,0,.75.09,1.08.22l.16.07,2.21,1.27.12-.02c.64-.11,1.25-.06,1.76.15l.18.08,5.27,3.04c1.13.56,1.79,1.89,1.79,3.63,0,3.34-2.36,7.41-5.24,9.08l-18.05,10.41h0c-.84.49-1.67.74-2.43.74Z"/>
      <path class="cls-1" d="M10.63,40.94c-2.81,1.61-5.08.3-5.08-2.94,0-2.95,1.88-6.47,4.33-8.3.45-4.37,3.49-9.31,7.18-11.44,2.44-1.41,4.61-1.26,5.92.13.45-.43.94-.79,1.44-1.08,2.23-1.29,4.13-.72,4.81,1.19,2.55-1.16,4.55.19,4.54,3.21,0,3.24-2.28,7.19-5.09,8.81l-18.05,10.41Z"/>
      <path class="cls-2" d="M20.29,17.6c-.94,0-1.99.31-3.08.94-3.55,2.05-6.58,6.87-7.03,11.2,0,.09-.05.17-.12.22-2.4,1.79-4.21,5.25-4.21,8.05,0,1.45.48,2.53,1.34,3.03.86.5,2.02.37,3.28-.36h0l18.05-10.41c2.71-1.56,4.93-5.39,4.93-8.54,0-1.4-.44-2.45-1.24-2.97-.75-.47-1.76-.46-2.86.03-.08.04-.17.04-.25,0-.08-.03-.14-.1-.17-.18-.28-.77-.76-1.31-1.41-1.54-.82-.3-1.87-.12-2.96.51-.48.28-.95.63-1.39,1.04-.13.11-.32.11-.44-.02-.63-.67-1.48-1.01-2.46-1.01h0ZM8.35,41.95c-.53,0-1.03-.13-1.48-.38-1.06-.61-1.64-1.88-1.64-3.56.01-2.98,1.83-6.51,4.35-8.47.52-4.48,3.65-9.41,7.33-11.54,2.36-1.36,4.61-1.36,6.08-.03.42-.36.84-.67,1.28-.92,1.25-.72,2.49-.91,3.48-.56.74.27,1.31.83,1.66,1.62,1.18-.46,2.29-.42,3.15.13.98.63,1.53,1.88,1.53,3.48,0,3.34-2.36,7.41-5.24,9.08l-18.05,10.41c-.84.49-1.67.74-2.43.74Z"/>
      <path class="cls-2" d="M9.88,30.02c-.05,0-.11-.02-.16-.04l-5.24-3.03c-.15-.09-.2-.28-.11-.42.09-.15.27-.19.42-.11l5.24,3.02c.15.09.2.28.11.42-.05.1-.15.16-.26.16Z"/>
      <path class="cls-2" d="M23.04,18.58c-.05,0-.1-.02-.16-.04l-5.2-3c-.15-.09-.2-.28-.11-.42.08-.15.27-.2.42-.11l5.2,3.01c.15.08.2.27.12.42-.05.09-.16.16-.26.16Z"/>
      <path class="cls-2" d="M27.87,17.2c-.05,0-.1-.02-.15-.04l-2.97-1.71c-.15-.09-.2-.28-.11-.43.09-.15.28-.19.42-.11l2.98,1.72c.15.08.19.27.11.42-.06.1-.16.16-.27.16Z"/>
    </g>
  </g>
</svg>