<?xml version="1.0" encoding="UTF-8"?>
<svg id="Layer_2" data-name="Layer 2" xmlns="http://www.w3.org/2000/svg" viewBox="0 0 83.73 88.22" fill="currentColor">
  <defs>
    <style>
      .cls-1 {
        fill: #fff;
      }

      .cls-1, .cls-2, .cls-3, .cls-4 {
        fill-rule: evenodd;
      }

      .cls-2 {
        fill: #1a87c7;
      }

      .cls-3 {
        fill: #bdedf8;
      }

      .cls-4 {
        fill: #66ceef;
      }
    </style>
  </defs>
  <g id="_Layer_" data-name="&amp;lt;Layer&amp;gt;">
    <g>
      <polygon class="cls-4" points=".62 66.39 36.7 45.56 73.04 66.54 36.96 87.38 .62 66.39"/>
      <path class="cls-2" d="M1.85,66.39l35.11,20.27,34.85-20.12-35.11-20.27L1.85,66.39h0ZM36.96,87.99c-.11,0-.22-.03-.31-.08L.31,66.93c-.19-.11-.31-.31-.31-.53s.12-.42.31-.53l36.08-20.83c.19-.11.42-.11.62,0l36.34,20.99c.19.11.31.31.31.54s-.12.42-.31.53l-36.08,20.83c-.1.06-.2.08-.31.08Z"/>
      <polygon class="cls-1" points=".62 27.11 36.7 6.27 36.7 45.56 .62 66.39 .62 27.11"/>
      <path class="cls-2" d="M1.23,27.46v37.86l34.85-20.12V7.34L1.23,27.46h0ZM.62,67.01c-.11,0-.22-.03-.31-.08-.19-.11-.31-.31-.31-.53V27.11c0-.23.11-.42.31-.53L36.39,5.74c.19-.11.42-.11.62,0,.19.11.31.31.31.53v39.28c0,.22-.12.42-.31.54L.92,66.93c-.09.05-.2.08-.3.08Z"/>
      <polygon class="cls-4" points="36.7 45.56 36.7 6.27 73.04 27.25 73.04 66.54 36.7 45.56"/>
      <path class="cls-2" d="M37.32,45.2l35.11,20.27V27.61L37.32,7.34v37.86h0ZM73.04,67.16c-.11,0-.21-.03-.3-.08l-36.35-20.99c-.19-.11-.31-.31-.31-.54V6.27c0-.22.12-.42.31-.53.19-.11.42-.11.61,0l36.34,20.99c.19.11.31.31.31.53v39.29c0,.22-.12.42-.31.53-.09.05-.2.08-.31.08Z"/>
      <path class="cls-1" d="M67.08,62.9v-25.11l-23.89,13.79v25.11l23.89-13.8h0ZM67.08,30.7l6.23-3.59v7.08s0,0,0,0v32.2s-30.11,17.39-30.11,17.39h0s-6.22,3.6-6.22,3.6h0s0,0,0,0v-7.09h0v-25.11h0v-7.09h0l6.22-3.59h0l23.89-13.79h0Z"/>
      <path class="cls-2" d="M67.08,62.9h.02-.02ZM43.8,51.93v23.69l22.66-13.08v-23.69l-22.66,13.08h0ZM43.19,77.31c-.11,0-.21-.03-.31-.08-.19-.11-.31-.31-.31-.53v-25.11c0-.22.12-.42.31-.53l23.89-13.8c.19-.11.43-.11.62,0,.19.11.31.31.31.53v25.11c0,.23-.12.42-.31.53l-23.89,13.8c-.09.05-.2.08-.3.08h0ZM67.08,30.7h.02-.02ZM37.58,48.44v37.86l35.11-20.27V28.17l-35.11,20.27h0ZM36.96,87.99c-.11,0-.22-.03-.31-.08-.19-.11-.31-.31-.31-.53v-39.29c0-.22.12-.42.31-.53l36.34-20.99c.19-.11.42-.11.61,0,.19.11.31.31.31.53v39.28c0,.22-.12.42-.31.53l-36.34,20.98c-.1.06-.2.08-.31.08Z"/>
      <path class="cls-3" d="M30.74,51.58l-23.89-13.79v25.11l23.89,13.8v-25.11h0ZM.61,66.39v-7.09h0v-25.1h0s0-7.09,0-7.09h0l6.23,3.59h0l23.89,13.79h0l6.23,3.59v39.29h0s0,0,0,0l-2.6-1.51-3.63-2.09h0L.61,66.39h0Z"/>
      <path class="cls-2" d="M7.46,62.54l22.66,13.08v-23.69l-22.66-13.08v23.69h0ZM30.74,77.31c-.11,0-.21-.03-.31-.08l-23.89-13.79c-.19-.11-.31-.31-.31-.53v-25.11c0-.22.12-.42.31-.53.19-.11.42-.11.61,0l23.89,13.79c.19.11.31.31.31.53v25.11c0,.22-.12.42-.31.53-.09.06-.2.08-.3.08h0ZM1.23,66.03v-31.84s0-.05,0-.08v-5.94l35.11,20.27v37.86L1.23,66.03h0ZM36.96,87.99c-.11,0-.22-.03-.31-.08L.31,66.93c-.19-.11-.31-.31-.31-.53V27.11c0-.22.11-.41.29-.52.18-.12.41-.13.6-.03l36.38,21c.19.12.3.31.3.53v39.29c0,.22-.12.42-.3.53-.1.06-.2.08-.31.08Z"/>
      <polygon class="cls-1" points=".62 27.11 36.7 6.27 73.04 27.25 36.96 48.09 .62 27.11"/>
      <path class="cls-2" d="M1.85,27.11l35.11,20.27,34.85-20.13L36.7,6.99,1.85,27.11h0ZM36.96,48.71c-.11,0-.22-.03-.31-.08L.31,27.64c-.19-.12-.31-.31-.31-.53s.12-.42.31-.53L36.39,5.74c.19-.12.42-.11.62,0l36.34,20.99c.19.11.31.31.31.53s-.12.42-.31.53l-36.08,20.83c-.1.06-.2.08-.31.08Z"/>
      <polygon class="cls-4" points="28.5 50.29 6.84 37.79 6.75 62.85 28.5 50.29"/>
      <path class="cls-2" d="M7.46,38.86l-.08,22.92,19.9-11.49-19.81-11.44h0ZM6.75,63.47c-.11,0-.21-.03-.31-.08-.19-.11-.31-.32-.31-.54l.09-25.06c0-.22.12-.42.31-.53.19-.11.42-.11.61,0l21.66,12.5c.19.11.31.31.31.54s-.12.42-.31.53l-21.75,12.55c-.09.05-.2.08-.3.08Z"/>
      <polygon class="cls-4" points="28.5 50.29 30.74 51.58 30.74 76.7 6.75 62.85 28.5 50.29"/>
      <path class="cls-2" d="M7.99,62.85l22.13,12.78v-23.69l-1.62-.93-20.51,11.84h0ZM30.74,77.31c-.11,0-.21-.03-.31-.08l-23.98-13.84c-.19-.11-.31-.31-.31-.53s.12-.42.31-.53l21.75-12.55c.19-.11.42-.11.61,0l2.23,1.29c.19.11.31.31.31.53v25.11c0,.22-.12.42-.31.53-.09.06-.2.08-.3.08Z"/>
      <polygon class="cls-4" points="43.19 66.57 58.12 57.95 81.87 71.67 58.24 85.31 43.19 76.61 43.19 66.57"/>
      <path class="cls-2" d="M43.8,76.26l14.44,8.34,22.4-12.93-22.52-13.01-14.32,8.27v9.33h0ZM58.24,85.93c-.1,0-.21-.03-.31-.08l-15.05-8.69c-.19-.1-.31-.31-.31-.54v-10.04c0-.22.12-.42.31-.53l14.93-8.62c.19-.11.42-.11.62,0l23.75,13.71c.19.11.3.31.3.53s-.12.42-.3.53l-23.63,13.64c-.1.06-.2.08-.31.08Z"/>
      <polygon class="cls-3" points="44.82 79.85 44.82 77.55 58.24 85.31 58.24 87.6 44.82 79.85"/>
      <path class="cls-2" d="M45.43,79.49l12.2,7.05v-.86l-12.2-7.05v.87h0ZM58.24,88.22c-.1,0-.21-.03-.31-.08l-13.43-7.76c-.19-.1-.31-.31-.31-.53v-2.29c0-.21.12-.42.31-.53.19-.1.42-.1.61,0l13.43,7.76c.19.11.31.31.31.53v2.29c0,.22-.12.42-.31.53-.1.06-.2.08-.31.08Z"/>
      <polygon class="cls-3" points="81.87 73.95 81.87 71.66 58.24 85.31 58.24 87.6 81.87 73.95"/>
      <path class="cls-2" d="M58.86,85.66v.87l22.4-12.93v-.87l-22.4,12.93h0ZM58.24,88.22c-.1,0-.21-.03-.31-.08-.19-.11-.3-.31-.3-.53v-2.29c0-.22.12-.42.3-.53l23.63-13.64c.19-.11.42-.11.62,0,.19.11.31.31.31.53v2.29c0,.22-.12.42-.31.54l-23.63,13.64c-.1.05-.2.08-.31.08Z"/>
      <path class="cls-3" d="M58.19,72.23l-5.52-3.19c1.99,1.83-.81,7.24-4.01,7.6l-1.03-.24,5.99,3.4c2.27.52,6.16-3.85,5.03-6.92l-.46-.66Z"/>
      <path class="cls-2" d="M53.83,79.22c.73.11,1.9-.53,2.84-1.61.98-1.11,1.93-2.93,1.42-4.44l-.33-.47-3.82-2.21c.05.6-.05,1.28-.28,2.01-.58,1.76-2.03,3.7-3.82,4.46l3.99,2.26h0ZM54,80.46c-.18,0-.36-.02-.52-.06-.06-.02-.12-.04-.17-.06l-5.98-3.4c-.27-.15-.38-.47-.27-.76.1-.28.41-.45.71-.37l.93.21c1.66-.25,3.23-2.16,3.79-3.9.38-1.16.29-2.14-.23-2.62-.23-.22-.27-.57-.08-.82.18-.25.53-.33.8-.17l5.52,3.19c.08.05.14.11.19.18l.46.65s.06.09.07.14c.75,2.03-.35,4.31-1.62,5.76-1.14,1.29-2.47,2.03-3.6,2.03Z"/>
      <polygon class="cls-3" points="54.31 70.11 48.79 66.92 48.79 70.13 54.31 73.32 54.31 70.11"/>
      <path class="cls-2" d="M49.41,69.78l4.28,2.48v-1.8l-4.28-2.47v1.79h0ZM54.31,73.94c-.11,0-.21-.03-.3-.08l-5.52-3.19c-.19-.11-.31-.31-.31-.54v-3.21c0-.22.12-.42.31-.53.19-.11.42-.11.62,0l5.51,3.19c.19.11.31.31.31.54v3.21c0,.22-.12.42-.31.53-.09.05-.2.08-.3.08Z"/>
      <path class="cls-3" d="M76.96,53.16l-5.52-3.18c2.1,1.22,1.93,4.72,1.65,6.85-.49,3.77-2.35,6.58-5.63,8.5l-3.18,1.83,5.52,3.19c4.22-2.44,7.62-4,8.68-9.54.38-1.98.59-6.16-1.15-7.43l-.38-.22Z"/>
      <path class="cls-2" d="M65.53,67.16l4.29,2.47.59-.34c3.8-2.17,6.55-3.74,7.48-8.61.42-2.25.43-5.84-.91-6.81l-3.43-1.98c.38,1.27.43,2.95.16,5-.52,3.93-2.51,6.94-5.93,8.95l-2.25,1.31h0ZM69.81,70.96c-.1,0-.21-.03-.3-.08l-5.52-3.18c-.19-.11-.31-.31-.31-.53s.12-.42.31-.54l3.17-1.83c3.11-1.83,4.86-4.46,5.33-8.05.3-2.31.32-5.27-1.35-6.23h0c-.29-.17-.4-.55-.22-.84.17-.3.55-.39.84-.23h0l5.51,3.19h0l.38.22c2.09,1.51,1.86,5.94,1.45,8.08-1.04,5.43-4.3,7.29-8.09,9.45l-.89.51c-.09.06-.2.08-.31.08Z"/>
      <polygon class="cls-3" points="52.27 76.9 46.76 73.72 42.94 75.92 48.46 79.11 52.27 76.9"/>
      <path class="cls-2" d="M44.17,75.92l4.29,2.47,2.58-1.49-4.29-2.47-2.58,1.49h0ZM48.46,79.72c-.11,0-.21-.03-.3-.08l-5.52-3.18c-.19-.12-.31-.31-.31-.53s.12-.42.31-.53l3.81-2.2c.19-.11.42-.11.61,0l5.52,3.19c.19.11.31.31.31.53s-.12.42-.31.53l-3.81,2.2c-.09.06-.2.08-.31.08Z"/>
      <path class="cls-3" d="M48.46,79.11l-5.52-3.19c0,1.65.18,3.81,1.72,4.8l5.52,3.18c-1.56-1.1-1.72-3.03-1.72-4.79Z"/>
      <path class="cls-2" d="M43.6,77.01c.09,1.27.41,2.56,1.39,3.19l3.19,1.84c-.24-.81-.31-1.69-.33-2.57l-4.25-2.46h0ZM50.18,84.52c-.11,0-.21-.03-.3-.08l-5.52-3.19c-1.8-1.15-2.03-3.45-2.03-5.33,0-.22.12-.42.31-.53.19-.11.42-.11.61,0l5.52,3.19c.19.11.31.31.31.53,0,1.96.25,3.44,1.46,4.29.27.19.34.56.16.84-.12.18-.31.28-.52.28Z"/>
      <polygon class="cls-3" points="65.5 54.13 59.98 50.94 59.98 73.83 65.5 77.02 65.5 54.13"/>
      <path class="cls-2" d="M60.6,73.48l4.28,2.47v-21.46l-4.28-2.48v21.47h0ZM65.5,77.63c-.11,0-.21-.03-.31-.08l-5.52-3.19c-.19-.11-.31-.31-.31-.53v-22.89c0-.22.12-.42.31-.53.19-.11.42-.11.62,0l5.52,3.19c.19.11.3.31.3.53v22.89c0,.22-.11.42-.3.53-.1.05-.2.08-.31.08Z"/>
      <polygon class="cls-3" points="61.76 68.62 56.24 65.44 55.98 65.29 55.71 65.19 55.4 65.12 55.07 65.1 54.71 65.11 54.34 65.16 53.94 65.26 59.46 68.45 59.86 68.35 60.23 68.29 60.58 68.28 60.91 68.3 61.22 68.37 61.51 68.48 61.76 68.62"/>
      <path class="cls-2" d="M61.76,69.24c-.11,0-.21-.03-.3-.08l-.68-.26-.25-.02-.93.16c-.15.04-.32.02-.46-.07l-5.52-3.18c-.22-.13-.34-.37-.3-.62.03-.25.22-.45.46-.51l.83-.17.42-.02.8.1.71.32,5.52,3.19c.29.17.39.54.23.84-.11.2-.32.31-.53.31Z"/>
      <path class="cls-3" d="M80.63,48.34l-5.52-3.19c-2.34-1.27-5-.02-7.11,1.15l-8.02,4.63,5.52,3.19,8.02-4.63c2.11-1.17,4.77-2.42,7.11-1.15Z"/>
      <path class="cls-2" d="M61.21,50.94l4.29,2.47,7.71-4.45c.97-.54,2.58-1.44,4.33-1.69l-2.74-1.59c-1.96-1.06-4.28-.07-6.5,1.16l-7.08,4.09h0ZM65.5,54.74c-.11,0-.21-.03-.31-.08l-5.52-3.19c-.19-.1-.31-.31-.31-.53s.12-.42.31-.53l8.02-4.63c1.58-.88,4.86-2.7,7.71-1.16l5.53,3.2c.29.17.4.54.24.83-.17.29-.54.4-.83.24-1.98-1.08-4.31-.08-6.52,1.15l-8.01,4.63c-.1.05-.2.08-.31.08Z"/>
      <path class="cls-3" d="M57.63,63.34l-5.52-3.19c1.4.83,1.05,4.09-2.24,6.17l-1.08.6,5.52,3.19c2.16-1.03,4.51-3.1,4.01-5.73-.09-.5-.28-.8-.69-1.04Z"/>
      <path class="cls-2" d="M50.04,66.93l4.29,2.48c1.95-1.01,3.79-2.79,3.39-4.92-.07-.37-.18-.49-.4-.62l-3.81-2.2v.07c.03,1.44-.83,3.54-3.3,5.1l-.17.09h0ZM54.31,70.72c-.11,0-.21-.03-.3-.08l-5.52-3.18c-.19-.12-.31-.32-.31-.54,0-.22.12-.42.32-.54l1.08-.6c2.02-1.27,2.72-2.97,2.7-4.02,0-.51-.18-.9-.48-1.07-.29-.17-.39-.55-.22-.84.17-.29.55-.39.84-.22l5.52,3.19h0c.56.33.86.77.99,1.46.56,2.92-1.89,5.22-4.35,6.4-.08.04-.18.06-.27.06Z"/>
      <path class="cls-3" d="M60.79,59.21c-1.14-.66-5.44-3.32-6.37-3.51-3.13-.6-7.37,3.01-9.1,5.95-1.21,2.06-1.77,4.2-1.88,6.58l5.52,3.18c.24-5.28,3.25-10.13,8.12-12.09,1.3-.52,2.45-.72,3.71-.12Z"/>
      <path class="cls-2" d="M44.08,67.9l4.34,2.5c.58-5.27,3.81-9.78,8.43-11.64.4-.16.82-.31,1.27-.41-1.48-.88-3.35-1.94-3.82-2.04-2.82-.53-6.89,2.99-8.45,5.66-1.05,1.8-1.62,3.69-1.77,5.93h0ZM48.96,72.04c-.11,0-.21-.03-.31-.08l-5.52-3.19c-.2-.12-.32-.33-.3-.56.11-2.6.74-4.78,1.95-6.86,1.75-2.99,6.23-6.93,9.75-6.24.71.14,2.58,1.19,5.56,2.98.42.26.78.47,1,.6.29.17.39.53.24.82-.16.29-.51.41-.81.27-.95-.45-1.85-.42-3.21.13-4.46,1.8-7.5,6.34-7.73,11.55-.01.22-.13.41-.32.52-.09.05-.19.07-.29.07Z"/>
      <path class="cls-1" d="M69.81,70.35v-14.53l3.18-1.83c3.92-2.26,5.76-.66,5.76,3.93s-1.78,8.3-5.76,10.6l-3.18,1.83h0ZM65.5,77.02l8.01-4.63c6.15-3.55,9.6-9.63,9.6-16.99s-3.45-9.45-9.6-5.9l-8.01,4.63v22.88h0ZM48.96,71.43l3.76-2.17c.06-2.54,1.12-4.5,2.95-5.56,1.61-.93,2.7-.43,2.7,1.27,0,1.9-1.12,3.47-3.4,4.79-.25.14-.36.2-.67.35v3.21c.39-.25.56-.35.97-.59,1.87-1.08,3.53-1.21,3.53,1.3,0,2.02-1.28,4.14-3.23,5.27-2.12,1.22-3.28.35-3.31-2.4l-3.81,2.21v.32c0,4.82,2.78,6.24,7.21,3.68,4.26-2.46,7.24-7.19,7.24-11.47,0-2.64-1.28-3.83-3.45-3.19,1.67-1.48,2.72-3.82,2.72-6.01,0-3.66-2.65-4.64-6.49-2.43-4.12,2.38-6.6,6.7-6.73,11.41h0Z"/>
      <path class="cls-2" d="M70.42,56.18v13.1l2.25-1.3c3.61-2.09,5.45-5.47,5.45-10.06,0-2.21-.44-3.64-1.28-4.13-.95-.55-2.45.09-3.55.73l-2.87,1.66h0ZM69.81,70.97c-.11,0-.21-.03-.31-.08-.19-.11-.31-.31-.31-.53v-14.53c0-.22.12-.42.31-.53l3.18-1.83c2-1.16,3.61-1.4,4.78-.72,1.26.73,1.9,2.48,1.9,5.19,0,5.06-2.04,8.8-6.07,11.13l-3.17,1.83c-.1.05-.2.08-.3.08h0ZM66.11,54.49l7.71-4.45c2.78-1.6,5-2.02,6.42-1.19,1.48.85,2.26,3.12,2.26,6.56,0,7.15-3.3,12.99-9.3,16.45l-7.09,4.09v-21.46h0ZM65.5,77.64c-.11,0-.21-.03-.31-.08-.19-.11-.31-.31-.31-.53v-22.88c0-.22.12-.42.31-.53l8.01-4.63c3.23-1.87,5.81-2.26,7.66-1.2,1.91,1.1,2.88,3.67,2.88,7.63,0,7.61-3.52,13.83-9.91,17.52l-8.02,4.63c-.09.05-.2.08-.3.08h0ZM49.08,79.46c0,2.03.52,3.4,1.51,3.97,1.06.61,2.76.31,4.77-.85,4.08-2.36,6.93-6.85,6.93-10.94,0-1.21-.29-2.06-.82-2.46-.43-.32-1.05-.37-1.84-.14-.28.08-.58-.04-.71-.29-.14-.25-.09-.57.13-.76,1.54-1.35,2.52-3.53,2.52-5.55,0-.94-.19-2.17-1.12-2.71-.96-.56-2.58-.26-4.44.82-3.56,2.06-5.88,5.65-6.35,9.76l2.46-1.42c.15-2.57,1.29-4.6,3.24-5.73,1.33-.76,2.17-.59,2.66-.31.44.26.97.83.97,2.12,0,2.11-1.25,3.9-3.71,5.32-.14.08-.25.14-.36.2v1.73s.03-.02.05-.03c1.46-.84,2.6-1.04,3.42-.57.69.4,1.04,1.21,1.04,2.4,0,2.25-1.42,4.58-3.54,5.8-1.17.69-2.16.81-2.93.37-.67-.38-1.07-1.14-1.23-2.27l-2.65,1.54h0ZM51.87,84.98c-.82,0-1.44-.21-1.9-.48-.97-.56-2.13-1.9-2.13-5.07v-.32c0-.22.12-.42.31-.53l3.81-2.2c.18-.11.42-.12.61,0,.19.11.31.31.31.53.01,1.19.25,1.99.68,2.23.34.2.95.08,1.71-.36,1.75-1.01,2.92-2.91,2.92-4.74,0-.41-.06-1.12-.42-1.33-.37-.22-1.19-.01-2.18.56-.41.24-.57.32-.94.58-.19.13-.43.14-.63.03-.2-.1-.32-.31-.32-.54v-3.21c0-.24.14-.46.36-.56.28-.14.39-.19.62-.33,2.08-1.2,3.09-2.59,3.09-4.26,0-.53-.13-.92-.36-1.05-.27-.16-.81-.04-1.42.31-1.66.96-2.59,2.75-2.64,5.04,0,.22-.12.41-.31.52l-3.76,2.17c-.19.11-.43.11-.62,0-.19-.12-.31-.33-.3-.55.15-5.01,2.79-9.46,7.05-11.92,2.29-1.32,4.3-1.61,5.67-.81.79.45,1.74,1.48,1.74,3.77,0,1.82-.69,3.75-1.82,5.25.55.08.95.28,1.23.49.6.45,1.32,1.41,1.32,3.45,0,4.51-3.1,9.44-7.55,12-1.72,1-3.07,1.34-4.11,1.34Z"/>
      <path class="cls-4" d="M34.27,27.32c1.34.78,3.52.78,4.87,0,1.35-.78,1.35-2.04,0-2.81-1.34-.78-3.53-.78-4.87,0-1.35.77-1.34,2.04,0,2.81Z"/>
      <path class="cls-2" d="M36.7,24.54c-.78,0-1.55.16-2.13.5-.45.26-.7.58-.7.87s.25.62.7.88h0c1.15.66,3.1.66,4.26,0,.44-.26.7-.58.7-.88s-.26-.61-.7-.87c-.58-.33-1.36-.5-2.13-.5h0ZM36.7,28.52c-.99,0-1.98-.22-2.74-.66-.85-.49-1.32-1.18-1.32-1.95s.47-1.45,1.32-1.94c1.54-.89,3.95-.89,5.49,0,.85.49,1.32,1.18,1.32,1.94s-.47,1.45-1.32,1.95c-.77.44-1.76.66-2.75.66Z"/>
      <path class="cls-3" d="M35.73,27.83v-1.05c.01-2.87.6-5.97,1.61-8.96,1.05-3.12,2.55-6.14,4.32-8.68,1.96-2.81,4.33-5.1,6.68-6.58,2.49-1.57,4.98-2.26,6.98-1.79,2.68.63,5.19,2.49,7.15,6.76,1.55,3.39,2.75,8.36,3.39,15.57l-2.23-1.28c-.64-6.16-1.72-10.46-3.07-13.41-1.63-3.57-3.63-5.09-5.72-5.59-1.44-.34-3.36.24-5.38,1.51-2.11,1.34-4.28,3.42-6.07,6.01-1.67,2.39-3.08,5.22-4.06,8.14-.94,2.8-1.49,5.66-1.5,8.3v1.02c-.68.14-1.42.15-2.1.03Z"/>
      <path class="cls-2" d="M36.34,27.28c.29.02.58.02.86-.01v-.49c0-2.6.54-5.53,1.53-8.49,1-2.98,2.44-5.85,4.14-8.3,1.78-2.56,3.99-4.75,6.25-6.18,2.21-1.39,4.29-1.96,5.85-1.59,2.59.61,4.6,2.56,6.14,5.93,1.46,3.19,2.47,7.55,3.09,13.29l.93.53c-.62-6.07-1.7-10.84-3.22-14.18-1.66-3.64-3.86-5.74-6.73-6.42-1.79-.42-4.1.18-6.51,1.71-2.36,1.49-4.66,3.77-6.5,6.41-1.75,2.51-3.21,5.45-4.24,8.53-1.03,3.03-1.57,6.07-1.58,8.77v.5h0ZM36.7,28.52c-.36,0-.72-.03-1.07-.09-.3-.05-.52-.3-.52-.61v-1.05c.01-2.83.58-5.99,1.65-9.15,1.07-3.18,2.59-6.23,4.4-8.83,1.92-2.78,4.36-5.18,6.85-6.75,2.69-1.7,5.34-2.37,7.46-1.87,3.26.78,5.73,3.1,7.56,7.11,1.7,3.73,2.82,8.89,3.44,15.77.02.23-.09.45-.28.57-.19.13-.44.13-.64.02l-2.23-1.28c-.17-.1-.29-.28-.3-.47-.59-5.69-1.61-10.14-3.01-13.23-1.37-3-3.11-4.72-5.3-5.24-1.23-.3-2.98.21-4.91,1.43-2.11,1.34-4.2,3.41-5.9,5.84-1.63,2.36-3.01,5.12-3.98,7.99-.95,2.83-1.46,5.63-1.47,8.1v1.02c0,.29-.21.55-.5.6-.4.08-.82.12-1.24.12Z"/>
    </g>
  </g>
</svg>