<?xml version="1.0" encoding="UTF-8"?>
<svg id="Layer_2" data-name="Layer 2" xmlns="http://www.w3.org/2000/svg" viewBox="0 0 36.91 42.72" fill="currentColor">
  <defs>
    <style>
      .cls-1 {
        fill: #1a87c7;
      }

      .cls-1, .cls-2, .cls-3 {
        fill-rule: evenodd;
      }

      .cls-2 {
        fill: #bdedf8;
      }

      .cls-3 {
        fill: #66ceef;
      }
    </style>
  </defs>
  <g id="_Layer_" data-name="&amp;lt;Layer&amp;gt;">
    <g>
      <path class="cls-3" d="M30.25,15.44l-2.73-1.57c-1.3.69-5.69,12.11-4.89,12.58l2.73,1.58c-.81-.5,3.58-11.9,4.88-12.59Z"/>
      <path class="cls-1" d="M22.84,26.22l2.13,1.23c.23-2.27,3.29-10.14,4.77-11.95l-2.21-1.27c-1.23,1.19-5.01,10.74-4.7,11.99h0ZM25.59,27.83h0,0ZM25.36,28.33c-.05,0-.1-.02-.16-.04l-2.73-1.57c-.24-.14-.25-.43-.25-.64.05-2.14,3.83-11.79,5.15-12.49.1-.04.21-.04.3.01l2.73,1.57c.09.06.15.17.15.28,0,.11-.07.21-.16.26-1.1.58-5.18,10.87-4.82,12.1.09.1.12.25.05.38-.06.09-.17.15-.27.15Z"/>
      <path class="cls-2" d="M30.25,15.44c-1.17.31-5.81,12.51-4.88,12.59.92.08,5.74-12.1,4.88-12.59Z"/>
      <path class="cls-1" d="M30.04,16.03c-1.22,1.67-4.32,9.53-4.49,11.47,1.19-1.53,4.28-9.44,4.49-11.47h0ZM25.36,28.33h-.03c-.09,0-.36-.07-.4-.48-.14-1.62,3.96-12.37,5.23-12.71.08-.03.17-.02.24.03.3.18.5.57-.38,3.36-.38,1.17-3.44,9.8-4.66,9.8Z"/>
      <path class="cls-3" d="M23.98,24.97l-2.73-1.58c-1.31.7-5.69,12.11-4.89,12.59l2.73,1.57c-.8-.48,3.58-11.89,4.89-12.58Z"/>
      <path class="cls-1" d="M16.58,35.75l2.12,1.23c.24-2.26,3.28-10.13,4.77-11.94l-2.2-1.27c-1.23,1.18-5.01,10.74-4.69,11.99h0ZM19.32,37.37h0,0ZM19.09,37.87c-.05,0-.11-.02-.15-.04l-2.73-1.58c-.23-.14-.26-.43-.25-.64.04-2.14,3.83-11.78,5.15-12.49.09-.05.21-.04.3,0l2.73,1.57c.1.05.16.16.16.27s-.06.22-.17.27c-1.09.58-5.17,10.87-4.82,12.1.1.1.12.25.05.37-.06.1-.15.16-.27.16Z"/>
      <path class="cls-2" d="M23.98,24.97c-1.16.31-5.81,12.51-4.89,12.58.92.09,5.73-12.09,4.89-12.58Z"/>
      <path class="cls-1" d="M23.77,25.56c-1.23,1.67-4.32,9.53-4.49,11.47,1.18-1.53,4.27-9.44,4.49-11.47h0ZM19.09,37.87h-.03c-.08-.01-.36-.07-.39-.49-.14-1.62,3.95-12.37,5.22-12.71.09-.03.17-.02.23.02.3.18.51.58-.39,3.39-.37,1.17-3.43,9.78-4.65,9.78Z"/>
      <path class="cls-3" d="M21.88,20.27l-2.73-1.58c-1.31.69-5.69,12.12-4.89,12.59l2.73,1.58c-.81-.49,3.57-11.9,4.88-12.59Z"/>
      <path class="cls-1" d="M14.47,31.06l2.12,1.22c.24-2.27,3.28-10.13,4.77-11.95l-2.2-1.27c-1.23,1.19-5.01,10.74-4.69,11.99h0ZM17.21,32.66h0,0ZM16.99,33.17c-.05,0-.11,0-.16-.04l-2.73-1.57c-.23-.14-.26-.44-.25-.65.04-2.14,3.83-11.78,5.15-12.48.1-.05.21-.05.3,0l2.73,1.58c.09.05.15.16.15.27s-.06.21-.16.26c-1.09.58-5.17,10.88-4.82,12.1.11.1.13.25.05.38-.05.1-.16.15-.26.15Z"/>
      <path class="cls-2" d="M21.88,20.27c-1.16.31-5.81,12.5-4.88,12.59.92.08,5.73-12.1,4.88-12.59Z"/>
      <path class="cls-1" d="M21.67,20.86c-1.23,1.68-4.32,9.53-4.49,11.47,1.18-1.54,4.28-9.44,4.49-11.47h0ZM16.98,33.17h-.02c-.08,0-.36-.06-.39-.49-.14-1.62,3.95-12.36,5.22-12.71.08-.02.17,0,.24.03.3.16.5.57-.38,3.37-.37,1.17-3.44,9.79-4.66,9.79Z"/>
      <path class="cls-3" d="M15.58,29.82l-2.73-1.58c-1.31.7-5.69,12.11-4.89,12.59l2.73,1.57c-.81-.48,3.58-11.89,4.88-12.59Z"/>
      <path class="cls-1" d="M8.18,40.6l2.12,1.23c.23-2.26,3.29-10.13,4.77-11.94l-2.2-1.27c-1.24,1.18-5.01,10.74-4.69,11.99h0ZM10.92,42.22h0,0ZM10.69,42.72c-.05,0-.1-.02-.15-.04l-2.73-1.57c-.24-.14-.26-.43-.25-.64.04-2.14,3.83-11.79,5.15-12.49.1-.05.21-.04.3,0l2.73,1.57c.09.05.16.15.16.27s-.07.22-.16.27c-1.09.58-5.17,10.87-4.82,12.1.09.1.12.25.05.37-.06.09-.17.16-.27.16Z"/>
      <path class="cls-2" d="M12.94,38.66c1.6-3.57,3.17-8.54,2.63-8.84-1.17.31-5.81,12.51-4.88,12.59.42.05,2.01-3.21,2.25-3.74Z"/>
      <path class="cls-1" d="M15.38,30.4c-1.21,1.62-4.27,9.38-4.49,11.42.5-.72,1.42-2.49,1.77-3.28h0c1.41-3.12,2.59-6.88,2.72-8.14h0ZM10.68,42.72h-.02c-.09-.01-.36-.07-.39-.49-.15-1.62,3.95-12.37,5.22-12.72.08-.02.16,0,.24.04,1.06.62-1.92,7.92-2.51,9.24-.3.66-1.81,3.93-2.54,3.93Z"/>
      <path class="cls-3" d="M13.47,25.12l-2.73-1.57c-1.3.7-5.69,12.11-4.88,12.59l2.73,1.58c-.81-.5,3.58-11.9,4.88-12.59Z"/>
      <path class="cls-1" d="M6.08,35.9l2.12,1.24c.23-2.27,3.28-10.14,4.77-11.95l-2.2-1.27c-1.24,1.19-5.01,10.74-4.69,11.99h0ZM8.81,37.52h.01-.01ZM8.59,38.02c-.05,0-.1,0-.15-.04l-2.73-1.57c-.24-.14-.26-.44-.25-.65.04-2.14,3.82-11.78,5.15-12.49.09-.04.21-.04.29,0l2.73,1.58c.1.06.16.16.16.28s-.07.21-.17.26c-1.09.58-5.17,10.87-4.82,12.1.1.1.12.25.05.39-.06.09-.17.15-.27.15Z"/>
      <path class="cls-2" d="M10.84,33.97c1.6-3.57,3.17-8.54,2.63-8.85-1.15.31-5.81,12.51-4.88,12.59.42.03,2.01-3.21,2.25-3.75Z"/>
      <path class="cls-1" d="M13.27,25.7c-1.21,1.62-4.27,9.39-4.49,11.42.5-.71,1.42-2.49,1.77-3.29h0c1.41-3.12,2.59-6.87,2.72-8.13h0ZM8.59,38.02h-.03c-.08,0-.36-.06-.39-.49-.15-1.62,3.95-12.37,5.22-12.71.08-.03.16,0,.23.03,1.06.62-1.92,7.92-2.51,9.24-.29.66-1.81,3.93-2.53,3.93Z"/>
      <path class="cls-3" d="M11.5,29.99c-1.52.88-2.9.95-3.89.38h0s-5.69-3.29-5.69-3.29c-.32-.2-.58-.42-.82-.73-.89-1.18-.9-2.98-.65-4.38.49-2.68,2.17-5.56,4.3-7.28l.25-.19c.03-.3.07-.59.12-.9.76-4.37,3.8-9.26,7.68-11.51,1.52-.89,3.49-1.48,5.19-.74l.16.08,1.18.69c1.06-.94,2.51-1.83,3.97-1.82.35,0,.72.08,1.04.21l.16.07,2.47,1.43.27-.05c.57-.09,1.17-.07,1.72.15l.18.08,5.69,3.29c1.1.54,1.77,1.81,1.77,3.66,0,3.51-2.47,7.79-5.52,9.55l-19.59,11.3Z"/>
      <path class="cls-1" d="M11.5,29.99h.01-.01ZM16.31,1.32c-1.33,0-2.6.6-3.36,1.03-3.64,2.12-6.74,6.76-7.53,11.31-.05.3-.09.57-.12.88-.01.08-.05.16-.12.21l-.24.19c-2.07,1.66-3.71,4.44-4.19,7.09-.15.81-.38,2.84.6,4.14.2.26.43.47.73.65l5.68,3.28c.95.55,2.22.41,3.6-.38l19.58-11.3c2.96-1.7,5.36-5.88,5.36-9.28,0-1.65-.57-2.89-1.59-3.38l-5.87-3.36c-.45-.17-.98-.21-1.54-.12l-.25.05c-.08,0-.16,0-.22-.03l-2.61-1.49c-.27-.11-.6-.17-.93-.18h-.05c-1.52,0-2.97,1.08-3.71,1.73-.1.09-.24.11-.36.03l-1.32-.75c-.51-.22-1.03-.31-1.55-.31h0ZM9.04,31.05c-.58,0-1.11-.14-1.59-.42l-5.68-3.27c-.37-.23-.66-.49-.91-.82-1.12-1.49-.87-3.72-.71-4.61.51-2.78,2.24-5.71,4.42-7.47l.15-.11c.03-.27.07-.52.11-.79.82-4.7,4.03-9.53,7.82-11.72,1.16-.67,3.4-1.66,5.47-.75l.17.08,1.02.58c.84-.71,2.34-1.74,3.95-1.74h.06c.41,0,.81.09,1.16.23l.17.08,2.41,1.38.15-.03c.68-.11,1.34-.06,1.9.17l.19.09,5.72,3.29c1.22.6,1.92,2.04,1.92,3.93,0,3.61-2.54,8.01-5.67,9.81l-19.59,11.3h0c-.91.53-1.81.8-2.62.8Z"/>
      <path class="cls-2" d="M11.5,29.99c-3.04,1.76-5.51.33-5.51-3.19,0-3.2,2.04-7.01,4.69-9,.5-4.76,3.8-10.11,7.8-12.41,2.65-1.53,5-1.37,6.42.13.5-.46,1.03-.85,1.57-1.16,2.43-1.4,4.48-.78,5.22,1.29,2.77-1.26,4.92.2,4.92,3.5,0,3.51-2.47,7.79-5.52,9.55l-19.59,11.3Z"/>
      <path class="cls-1" d="M11.5,29.99h.01-.01ZM21.99,4.62c-1.02,0-2.17.35-3.35,1.02-3.87,2.24-7.16,7.47-7.65,12.18,0,.09-.05.16-.12.22-2.6,1.95-4.56,5.72-4.57,8.76,0,1.58.52,2.76,1.46,3.3.95.55,2.22.41,3.6-.38l19.58-11.3c2.96-1.7,5.36-5.88,5.36-9.28,0-1.53-.48-2.69-1.37-3.25-.81-.52-1.91-.51-3.12.03-.08.04-.17.04-.24,0-.09-.02-.15-.09-.17-.17-.3-.84-.84-1.43-1.55-1.68-.9-.33-2.04-.13-3.22.55-.51.31-1.03.68-1.52,1.13-.12.11-.31.11-.43-.02-.69-.73-1.62-1.1-2.69-1.1h0ZM9.04,31.05c-.57,0-1.11-.14-1.59-.41-1.14-.66-1.77-2.02-1.76-3.84,0-3.23,1.97-7.07,4.7-9.17.57-4.86,3.96-10.22,7.95-12.51,2.55-1.48,4.99-1.48,6.58-.03.45-.39.92-.73,1.4-1.01,1.35-.78,2.69-.99,3.75-.6.79.3,1.41.9,1.79,1.75,1.29-.5,2.49-.46,3.42.13,1.06.69,1.64,2.02,1.64,3.77,0,3.61-2.54,8.01-5.67,9.81l-19.59,11.3h0c-.91.53-1.81.8-2.62.8Z"/>
      <path class="cls-1" d="M10.68,18.1c-.05,0-.1-.02-.15-.04l-5.69-3.29c-.15-.08-.2-.27-.11-.42.09-.15.27-.2.42-.11l5.69,3.29c.15.09.2.27.11.42-.06.1-.17.16-.27.16Z"/>
      <path class="cls-1" d="M24.97,5.69c-.05,0-.1,0-.15-.05l-5.65-3.26c-.15-.08-.2-.27-.11-.42.09-.15.28-.2.43-.11l5.64,3.26c.15.09.2.28.11.42-.06.1-.16.16-.27.16Z"/>
      <path class="cls-1" d="M30.21,4.19c-.05,0-.1-.02-.16-.04l-3.23-1.86c-.15-.09-.2-.28-.11-.43.09-.15.27-.2.42-.11l3.23,1.87c.15.08.2.27.11.42-.05.1-.15.16-.26.16Z"/>
    </g>
  </g>
</svg>