<?xml version="1.0" encoding="UTF-8"?>
<svg id="Layer_2" data-name="Layer 2" xmlns="http://www.w3.org/2000/svg" viewBox="0 0 61.67 83.85" fill="currentColor">
  <defs>
    <style>
      .cls-1 {
        fill: #fff;
      }

      .cls-1, .cls-2, .cls-3, .cls-4 {
        fill-rule: evenodd;
      }

      .cls-2 {
        fill: #1a87c7;
      }

      .cls-3 {
        fill: #bdedf8;
      }

      .cls-4 {
        fill: #66ceef;
      }
    </style>
  </defs>
  <g id="_Layer_" data-name="&amp;lt;Layer&amp;gt;">
    <g>
      <path class="cls-4" d="M8.38,83.1l-7.18-4.14c-.47-.32-.56-.74-.58-1.28V19.23c.05-.6.33-.96.83-1.25.82-.47,1.64-.95,2.46-1.43.19-.08.27-.12.48-.05l7.18,4.15c-.2-.08-.28-.04-.48.04-.88.51-1.75,1.02-2.62,1.52-.41.29-.63.66-.67,1.16v47.85l45.41-26.22c.19-.09.27-.13.48-.05l7.18,4.15c-.2-.07-.28-.04-.48.05l-48.62,28.07-3.97-2.29v6.88c.02.55.11.96.58,1.28Z"/>
      <path class="cls-2" d="M4.2,17.11l-2.44,1.4c-.36.21-.5.41-.52.77v58.39c.02.49.1.63.31.78l5.63,3.25v-6.76c0-.22.12-.42.31-.53.19-.11.43-.11.62,0l3.66,2.12,47.67-27.53-5.94-3.43-45.39,26.19c-.19.11-.43.11-.62,0-.19-.11-.31-.31-.31-.53V23.38c.06-.73.37-1.28.94-1.67l2.02-1.17-5.94-3.43h0ZM8.38,83.72c-.11,0-.22-.03-.31-.08l-7.18-4.14c-.74-.51-.86-1.16-.89-1.79V19.23c.07-.82.42-1.37,1.14-1.79l2.47-1.42c.32-.15.59-.25,1-.09l7.27,4.19c.27.16.38.5.25.8-.14.29-.47.42-.77.31l-2.58,1.52c-.22.16-.34.36-.36.68v46.74s44.49-25.69,44.49-25.69c.27-.13.55-.26,1-.09l7.27,4.19c.28.16.38.5.25.79-.14.29-.48.43-.77.32l-48.57,28.08c-.19.11-.42.11-.61,0l-3.04-1.76v5.81c.02.49.09.63.31.78.27.19.35.56.17.83-.12.19-.31.29-.52.29Z"/>
      <path class="cls-3" d="M9.78,82.96c-.55.31-1.04.35-1.4.14-.36-.2-.58-.66-.58-1.28V23.38c0-.42.3-.95.66-1.16.88-.5,1.76-1.01,2.63-1.52.37-.21.67-.04.67.39v56.14l48.62-28.07c.37-.22.67-.04.67.39v3.03c0,.42-.3.95-.67,1.16l-50.6,29.22Z"/>
      <path class="cls-2" d="M11.15,21.38l-2.38,1.37c-.18.1-.36.42-.36.63v58.44c0,.37.1.65.27.75.17.1.47.04.79-.14h0l50.61-29.22c.18-.11.36-.42.36-.63v-2.74l-48.37,27.92c-.19.11-.42.11-.61,0-.19-.11-.31-.32-.31-.54V21.38h0ZM8.89,83.85c-.29,0-.57-.07-.82-.21-.57-.32-.89-.99-.89-1.82V23.38c0-.64.42-1.37.98-1.7l2.63-1.51c.38-.22.78-.24,1.09-.05.32.18.5.54.5.97v55.08l47.7-27.54c.37-.22.77-.23,1.09-.04.32.18.5.53.5.96v3.03c0,.64-.42,1.37-.98,1.7l-50.61,29.21c-.41.24-.81.36-1.19.36Z"/>
      <polygon class="cls-1" points="51.48 50.59 11.76 73.52 11.76 30.94 51.48 8.01 51.48 50.59"/>
      <path class="cls-2" d="M51.48,50.59h.02-.02ZM12.38,31.29v41.16l38.48-22.22V9.07L12.38,31.29h0ZM11.76,74.14c-.1,0-.21-.03-.3-.08-.19-.11-.31-.31-.31-.53V30.94c0-.22.12-.42.31-.53L51.17,7.48c.19-.11.42-.11.61,0,.19.11.31.31.31.53v42.58c0,.22-.12.42-.31.53l-39.71,22.93c-.1.05-.2.08-.31.08Z"/>
      <path class="cls-4" d="M38.72,24.17c-.16-.12-.2-.18-.32-.34l-.76-1.35c-.31-.68-.18-1.35.06-2.03.43-1.03.98-1.52,1.71-2.37,1.09-1.24,2.18-2.48,3.26-3.72,2.32-2.66,4.65-5.32,6.97-7.98,1.24-1.42,2.48-2.83,3.72-4.25l-2.63-1.51c-1.71,1.95-3.41,3.9-5.11,5.85-2.02,2.3-4.03,4.61-6.05,6.91-1.08,1.24-2.17,2.48-3.25,3.72-.66.75-1,1.12-1.33,2.06-.18.63-.27,1.2.02,1.8l.75,1.35c.12.17.16.22.32.35l2.63,1.51h0ZM49.14,25.4l-2.63-1.51c-.48-.35-.52-.58-.59-1.14l-.12-3.64,2.63,1.52.12,3.63c.07.57.11.8.59,1.15h0ZM16.9,63.87l-2.63-1.51c-.92-.58-.55-1.93-.19-2.73l9.87-20.46c.51-1.02,1.16-1.86,2.15-2.46l10.46-6.08,4.64-12.17,2.63,1.52-4.64,12.17-10.46,6.08c-.98.59-1.64,1.43-2.15,2.45l-9.87,20.45c-.36.81-.73,2.15.19,2.74h0Z"/>
      <path class="cls-2" d="M46.47,20.19l.08,2.53c.06.46.06.47.34.66l1.05.61-.1-3.01-1.37-.79h0ZM49.14,26.02c-.11,0-.21-.03-.31-.08l-2.63-1.52c-.72-.51-.81-.94-.89-1.59l-.12-3.7c0-.22.11-.43.3-.55.19-.11.43-.11.62,0l2.63,1.51c.19.1.3.3.31.51l.11,3.64c.06.45.06.47.33.66.27.19.34.56.16.83-.12.18-.31.28-.51.28h0ZM50.88,1.4l1.53.89-10.2,11.66-3.61,4.12c-.57.63-1.06,1.18-1.48,2.16-.22.64-.41,1.4-.14,2.22l-.51-.29q-.1-.08-.16-.16l-.74-1.3c-.2-.41-.14-.82,0-1.34.28-.8.55-1.11,1.22-1.86L50.88,1.4h0ZM41.54,19.36l-4.39,11.49c-.05.14-.15.24-.27.31l-10.46,6.08c-.79.47-1.39,1.17-1.91,2.2l-9.87,20.45c-.11.24-.65,1.56-.04,1.94l1.1.64c.04-.48.18-1.01.44-1.59l9.88-20.47c.63-1.25,1.39-2.12,2.39-2.72l10.28-5.97,4.38-11.48-1.55-.89h0ZM16.9,64.48c-.11,0-.21-.03-.31-.08l-2.63-1.52c-.99-.62-1.15-1.93-.45-3.52l9.88-20.47c.63-1.25,1.39-2.11,2.39-2.72l10.28-5.97,2.14-5.61-2.44-1.4c-.29-.22-.38-.32-.52-.53l-.78-1.39c-.4-.85-.27-1.59-.07-2.27.37-1.06.75-1.5,1.39-2.23L50.29.21c.19-.22.51-.27.77-.13l2.63,1.52c.16.09.27.25.3.43s-.02.37-.15.5l-14.32,16.36c-.54.6-.93,1.04-1.24,1.79-.2.58-.29,1.06-.07,1.53l.56.98,1.89-4.96c.06-.17.19-.3.37-.36.17-.06.36-.04.51.05l2.63,1.52c.26.16.38.47.27.75l-4.64,12.17c-.05.13-.14.25-.27.31l-10.46,6.08c-.78.47-1.39,1.17-1.91,2.2l-9.87,20.45c-.16.34-.64,1.56-.04,1.95.28.18.37.55.2.84-.12.19-.32.29-.53.29Z"/>
      <path class="cls-3" d="M16.71,61.13l9.87-20.45c.26-.54.59-1.03.95-1.45.37-.42.78-.76,1.2-1l10.46-6.08,4.64-12.17-2.98,3.41c-.91,1.04-2.02,1.24-2.47.45l-.76-1.35c-.44-.79-.06-2.29.85-3.33,4.96-5.67,9.92-11.34,14.88-17.01.2,6.26.39,12.52.59,18.78.04,1.15-.76,2.6-1.78,3.23l-1.72,1.06c-1.02.63-1.88.2-1.91-.95l-.12-3.64-5.43,14.15c-.24.54-.55,1.08-.93,1.55-.4.49-.86.9-1.33,1.17l-10.7,6.21-9.06,18.78c-.62,1.28-1.78,2.13-2.59,1.88l-1.36-.43c-.8-.25-.95-1.51-.33-2.8Z"/>
      <path class="cls-2" d="M17.27,61.4c-.39.8-.37,1.43-.24,1.72.07.17.17.2.2.21l1.37.43c.41.13,1.3-.43,1.84-1.56l9.06-18.77c.06-.12.14-.21.25-.27l10.69-6.21c.4-.23.81-.59,1.16-1.03.34-.41.62-.9.84-1.4l5.42-14.13c.11-.28.38-.44.68-.39.29.05.5.29.51.59l.11,3.64c.01.3.1.53.24.61.16.08.44.02.73-.16l1.72-1.06c.82-.51,1.51-1.76,1.49-2.69l-.54-17.22-13.85,15.84c-.78.9-1.05,2.13-.77,2.63l.76,1.35c.06.11.14.16.24.17.27.03.75-.18,1.23-.72l2.98-3.4c.19-.22.53-.28.78-.13.26.16.37.47.26.75l-4.64,12.17c-.05.13-.14.25-.27.31l-10.46,6.08c-.36.2-.72.51-1.04.88-.33.39-.64.84-.87,1.31l-9.87,20.46h0ZM18.72,65.02c-.17,0-.34-.02-.49-.07l-1.36-.43c-.43-.14-.77-.46-.96-.9-.31-.73-.21-1.76.26-2.75h0l9.87-20.46c.28-.58.63-1.12,1.05-1.59.42-.48.88-.86,1.36-1.14l10.27-5.96,3.34-8.75-.71.81c-.7.8-1.52,1.21-2.28,1.14-.51-.05-.93-.34-1.19-.79l-.75-1.35c-.58-1.02-.18-2.8.92-4.04L52.91,1.72c.16-.19.43-.26.66-.17.24.09.4.31.41.56l.59,18.78c.04,1.37-.86,3.02-2.07,3.77l-1.72,1.06c-.69.42-1.41.5-1.97.2-.54-.29-.86-.89-.89-1.65l-.02-.59-4.34,11.3c-.27.62-.62,1.21-1.03,1.71-.45.56-.97,1.01-1.5,1.32l-10.53,6.12-8.98,18.6c-.67,1.38-1.81,2.27-2.83,2.27Z"/>
    </g>
  </g>
</svg>