<?xml version="1.0" encoding="UTF-8"?>
<svg id="Layer_2" data-name="Layer 2" xmlns="http://www.w3.org/2000/svg" viewBox="0 0 36.92 41.5" fill="currentColor">
  <defs>
    <style>
      .cls-1 {
        fill: #fff;
      }

      .cls-1, .cls-2, .cls-3, .cls-4 {
        fill-rule: evenodd;
      }

      .cls-2 {
        fill: #1a87c7;
      }

      .cls-3 {
        fill: #bdedf8;
      }

      .cls-4 {
        fill: #66ceef;
      }
    </style>
  </defs>
  <g id="_Layer_" data-name="&amp;lt;Layer&amp;gt;">
    <g>
      <path class="cls-4" d="M9.4,38.39l6.23-7.76-1.94-1.08-3.18,1.37c-.86.5-1.57,1.7-1.57,2.69l.45,4.78Z"/>
      <path class="cls-2" d="M13.68,29.89l-3.04,1.3c-.73.42-1.37,1.54-1.37,2.42l.37,4,5.53-6.88-1.49-.84h0ZM9.4,38.7s-.06,0-.09,0c-.12-.04-.2-.14-.22-.27l-.44-4.77c0-1.14.75-2.44,1.71-3l3.22-1.38c.08-.03.19-.03.27.02l1.94,1.08c.09.05.14.12.16.22.02.09-.01.18-.06.25l-6.24,7.75c-.06.08-.15.11-.23.11Z"/>
      <path class="cls-4" d="M25.45,1.95c1.78.1,3.25,1.22,4.94,2.2-2.3-1.28-3.66-1.19-6.13.21-7.5,4.23-7.94,4.83-11.63,12.39-.7,1.45-2.51,6-3.99,6.67l-1.32.27-1.89-1.61c1.7.85,3.63-3.88,4.26-5.14,2.28-4.58,3.75-8.81,8.42-11.59,1.53-.91,4.59-2.94,6.52-3.31l.82-.09Z"/>
      <path class="cls-2" d="M6.29,22.41l1.11.95,1.17-.24c1.04-.49,2.52-3.75,3.31-5.49.18-.41.34-.76.46-1.01,3.68-7.55,4.14-8.22,11.75-12.52,1.43-.81,2.52-1.18,3.58-1.16-.71-.36-1.44-.62-2.23-.67l-.79.1c-1.55.29-3.96,1.77-5.55,2.75-.31.19-.6.36-.84.51-3.94,2.34-5.53,5.68-7.37,9.54-.31.63-.61,1.27-.93,1.92-.07.14-.17.33-.27.56-.97,2.08-2.11,4.33-3.41,4.77h0ZM7.32,23.99c-.07,0-.15-.03-.2-.07l-1.89-1.61c-.12-.1-.15-.28-.06-.4.09-.13.26-.18.39-.11.17.09.34.09.53.03,1.15-.4,2.43-3.13,3.05-4.45.1-.23.2-.43.27-.57.32-.64.63-1.29.93-1.91,1.81-3.79,3.51-7.37,7.61-9.8.24-.14.52-.31.84-.5,1.63-1,4.1-2.52,5.78-2.83l.84-.1h.05c1.53.09,2.8.86,4.15,1.69.3.18.62.36.93.55.15.09.2.28.11.43-.09.15-.27.19-.42.11-2.16-1.2-3.42-1.16-5.83.21-7.34,4.15-7.77,4.61-11.5,12.26-.12.25-.28.59-.45.99-1.2,2.64-2.47,5.27-3.68,5.82l-1.39.28s-.04.01-.06.01Z"/>
      <path class="cls-4" d="M1.86,41.16l-1.44-.97c-.09-.07-.1-.15-.11-.25v-21.09c0-.3.35-.9.69-.71l1.45.97c-.35-.18-.7.42-.7.71v21.09c0,.1.03.18.11.25Z"/>
      <path class="cls-2" d="M.81,18.39s-.21.3-.21.45v21.09s.83.57.83.57v-20.68c0-.23.13-.56.33-.79l-.96-.63h0ZM1.86,41.46c-.06,0-.12-.02-.17-.05l-1.44-.97c-.23-.18-.24-.39-.24-.49v-21.1c0-.31.21-.76.53-.96.2-.12.42-.13.61-.03l1.47.99c.14.09.18.27.09.41-.09.15-.27.19-.41.11-.07.03-.23.3-.23.44v21.09c.13.1.15.29.05.43-.06.09-.15.13-.25.13Z"/>
      <path class="cls-3" d="M18.88,4.9l2.22,1.29c1.31-.76,2.81-1.76,4.21-2.36l-2.21-1.29c-1.41.61-2.9,1.6-4.22,2.36Z"/>
      <path class="cls-2" d="M19.5,4.9l1.6.93c.31-.18.63-.38.96-.58.85-.51,1.72-1.04,2.58-1.46l-1.56-.9c-.96.42-1.95,1.03-2.92,1.62-.22.14-.45.27-.66.4h0ZM21.09,6.49c-.05,0-.1-.02-.15-.04l-2.21-1.28c-.1-.05-.16-.16-.16-.26,0-.11.06-.22.16-.27.36-.21.73-.43,1.11-.67,1.03-.62,2.09-1.26,3.13-1.71.09-.04.19-.03.27.02l2.21,1.28c.1.06.16.18.15.29,0,.11-.08.22-.18.26-.99.43-2.04,1.06-3.05,1.68-.39.23-.76.46-1.12.67-.05.03-.11.04-.16.04Z"/>
      <path class="cls-3" d="M10.41,15.47l2.22,1.28c1.25-2.58,2.14-4.62,3.91-6.85l-2.22-1.28c-1.79,2.24-2.68,4.31-3.91,6.85Z"/>
      <path class="cls-2" d="M10.81,15.34l1.69.97.3-.62c.98-2.05,1.84-3.83,3.29-5.71l-1.68-.96c-1.44,1.86-2.29,3.62-3.26,5.65l-.33.67h0ZM12.63,17.05c-.05,0-.1,0-.16-.03l-2.21-1.29c-.15-.08-.2-.25-.13-.4l.45-.93c1.03-2.14,1.91-3.98,3.5-5.97.09-.12.26-.15.39-.08l2.22,1.28c.08.05.13.12.15.21.02.09-.01.18-.06.25-1.54,1.93-2.42,3.75-3.43,5.87l-.44.91c-.03.08-.11.14-.19.16-.03,0-.05,0-.09,0Z"/>
      <path class="cls-3" d="M14.19,32.82c-1.41-1.15-2.81-2.3-4.22-3.45-.65-.53-1.81.14-2.46,1.42l-5.07,10c-.14.27-.38.45-.56.39-.1-.04-.15-.14-.15-.27v-21.09c0-.25.18-.56.4-.69.13-.08.25-.07.32,0l5.05,4.14c.46.38,1.25.14,1.91-.6.97-1.09,4.05-7.73,4.77-9.16.76-1.49,1.67-2.87,2.73-4.06,1.03-1.16,2.17-2.1,3.4-2.82l3.93-2.28c1.18-.69,2.33-1.09,3.41-1.12,2.64-.09,6.42,3.92,8.4,5.54.36.3.55.82.55,1.43,0,2.32-1.89,3.99-3.36,5.58l.53,1.15c-1.94,3.95-4.29,8.55-6.1,10.58-1.08,1.21-2.22,2.13-3.4,2.82-1.31.76-2.62,1.51-3.93,2.28-1.23.71-2.37,1.08-3.41,1.12h-.38c-.89-.04-1.68-.35-2.36-.91Z"/>
      <path class="cls-2" d="M2.28,19.37h0s0,0,0,0h0ZM2.31,19.39c-.15.09-.25.29-.25.43v21s.08-.09.12-.17l5.07-10c.46-.92,1.2-1.59,1.92-1.74.38-.09.73,0,1,.22l4.22,3.46h0c.63.51,1.36.8,2.18.83.16,0,.26,0,.35,0,.99-.03,2.1-.4,3.27-1.08l3.93-2.28c1.2-.7,2.31-1.62,3.32-2.76,1.74-1.95,4-6.33,6-10.38l-.47-1.01c-.06-.11-.04-.24.05-.34.17-.18.35-.36.52-.56,1.36-1.42,2.77-2.88,2.77-4.82,0-.54-.16-.96-.45-1.2-.4-.32-.87-.75-1.39-1.22-2-1.8-4.73-4.25-6.71-4.25h-.08c-.99.03-2.1.4-3.27,1.08l-3.93,2.29c-1.19.69-2.31,1.61-3.32,2.75-1.02,1.14-1.92,2.49-2.69,4-.16.31-.44.88-.77,1.57-1.65,3.44-3.32,6.84-4.05,7.66-.77.86-1.73,1.12-2.33.63l-5.01-4.12h0ZM1.96,41.5c-.06,0-.12-.02-.17-.03-.22-.09-.35-.3-.35-.56v-21.09c0-.36.24-.77.56-.95.24-.14.51-.12.69.04l5.03,4.13c.32.26.96.02,1.48-.57.73-.82,2.83-5.17,3.96-7.51.34-.71.61-1.28.77-1.59.78-1.57,1.72-2.95,2.77-4.13,1.05-1.18,2.22-2.16,3.47-2.88l3.93-2.28c1.27-.73,2.47-1.13,3.56-1.17h.1c2.21,0,5.05,2.55,7.13,4.41.51.46.97.88,1.36,1.2.42.36.67.95.67,1.68,0,2.18-1.56,3.81-2.93,5.24-.13.14-.26.27-.38.4l.45.96c.04.08.04.18,0,.26-2.02,4.14-4.35,8.63-6.15,10.66-1.05,1.18-2.22,2.16-3.47,2.88l-3.93,2.28c-1.27.74-2.47,1.13-3.55,1.17-.12,0-.23,0-.34,0-.02,0-.09,0-.11-.01-.91-.03-1.76-.36-2.5-.96l-4.22-3.46c-.12-.11-.29-.13-.49-.1-.43.1-1.07.57-1.5,1.42l-5.07,10.01c-.17.35-.48.56-.76.56Z"/>
      <path class="cls-1" d="M21.09,6.19l3.16-1.83c.35-.21.7-.38,1.05-.54,3.04,2.08,4.39,20.83,0,25.85-.34.24-.68.47-1.03.67l-3.18,1.84c3.53-7.64,3.38-24.26,0-25.99Z"/>
      <path class="cls-2" d="M21.66,6.21c3.08,2.81,3.14,17.51.09,25.23l2.37-1.38c.34-.19.68-.41,1-.65,2.63-3.01,3.16-11.67,2.31-18.27-.45-3.55-1.28-6.17-2.17-6.97-.27.13-.56.28-.84.44l-2.75,1.6h0ZM21.09,32.48c-.07,0-.15-.03-.21-.08-.09-.09-.12-.24-.07-.36,3.56-7.72,3.14-24.04.14-25.59-.1-.05-.17-.16-.17-.27,0-.1.05-.21.15-.27l3.16-1.83c.36-.21.73-.4,1.08-.55.1-.04.21-.04.3.02,1.59,1.08,2.32,5.61,2.56,7.5.89,6.9.31,15.58-2.5,18.81-.4.29-.75.52-1.1.72l-3.18,1.84c-.05.03-.11.04-.16.04Z"/>
      <path class="cls-1" d="M14.19,32.82l-1.65-1.35c2.17-4.95,2.09-11.97.1-14.76.74-1.51,1.28-2.65,1.56-3.21.7-1.39,1.36-2.46,2.34-3.61,3.6,4.27,4.61,16.46.2,23.83h-.18c-.89-.04-1.68-.35-2.36-.91Z"/>
      <path class="cls-2" d="M12.91,31.38l1.47,1.21h0c.63.51,1.36.8,2.18.83,4-6.88,3.37-18.53-.04-23.03-.88,1.08-1.46,2.09-2.05,3.26-.16.31-.4.81-.71,1.45-.22.46-.48.99-.77,1.59,1.98,3.03,1.94,9.88-.09,14.69h0ZM16.74,34.05h-.12s-.1,0-.12-.02c-.91-.03-1.76-.36-2.5-.96l-1.64-1.35c-.11-.09-.15-.24-.09-.36,2.04-4.65,2.1-11.68.13-14.47-.06-.09-.07-.21-.03-.31.32-.66.61-1.24.85-1.75.31-.65.55-1.15.71-1.46.66-1.31,1.32-2.44,2.37-3.67.06-.07.16-.13.23-.11.09,0,.17.03.23.11,3.79,4.49,4.66,16.79.23,24.19-.05.1-.15.16-.26.16Z"/>
      <path class="cls-4" d="M30.03,8.79c-.32.26-.62.65-.8,1.08-.23.53-.27,1.07-.11,1.43.16.35.5.48.91.34.32-.11.67-.39.94-.75.36-.48.56-1.05.56-1.53,0-.92-.73-1.18-1.5-.56Z"/>
      <path class="cls-2" d="M30.22,9.03c-.29.23-.55.58-.7.96-.2.45-.24.9-.12,1.18.12.25.36.24.53.16.27-.09.57-.33.8-.64.31-.43.5-.93.5-1.35,0-.29-.08-.49-.22-.56-.18-.09-.48,0-.78.24h0ZM29.72,11.99c-.39,0-.72-.21-.89-.57-.2-.45-.16-1.07.11-1.68.2-.47.52-.9.89-1.2h0c.49-.39,1.01-.51,1.41-.31.38.18.58.58.58,1.11s-.23,1.19-.62,1.71c-.31.42-.71.73-1.09.86-.13.05-.27.08-.4.08Z"/>
      <path class="cls-4" d="M10.39,18.3c1.04-2.24,2.44-5.61,4.14-8.16,1.44-2.18,3.07-3.66,5.21-4.74.04-2.93-1.1-4.83-1.55-5.05-1.47-.73-7.4,9.36-7.79,17.95Z"/>
      <path class="cls-2" d="M18.01.62s-.13.02-.25.09c-1.72,1.02-6,8.52-6.91,15.84.94-2.07,2.09-4.56,3.42-6.58,1.44-2.17,3.03-3.64,5.15-4.75,0-2.7-1.05-4.43-1.38-4.6h-.03ZM10.39,18.6s-.04,0-.07-.01c-.14-.03-.24-.16-.24-.31C10.44,10.68,15.24,1.49,17.45.18c.33-.19.62-.23.87-.1.62.3,1.76,2.41,1.72,5.34,0,.11-.07.22-.17.27-2.11,1.07-3.68,2.49-5.1,4.63-1.37,2.07-2.55,4.69-3.51,6.8-.21.46-.41.91-.59,1.32-.05.1-.16.17-.29.17Z"/>
      <path class="cls-4" d="M23.99,28.48l3.59-4.69.26-1.73-3.15,1.77c-.54.3-.97,1.06-.97,1.68l.28,2.97Z"/>
      <path class="cls-2" d="M27.44,22.63l-2.61,1.46c-.44.26-.81.9-.81,1.42l.2,2.16,3.07-4.01.15-1.03h0ZM23.99,28.79s-.05,0-.08,0c-.12-.04-.22-.15-.23-.27l-.28-2.97c0-.75.5-1.61,1.12-1.97l3.16-1.77c.1-.05.23-.05.33.02.09.07.15.18.13.3l-.25,1.73c0,.05-.03.1-.06.14l-3.59,4.69c-.06.08-.16.12-.25.12Z"/>
      <polygon class="cls-4" points="21.5 37.03 22.98 31.08 21.09 32.18 19.13 35.63 21.5 37.03"/>
      <path class="cls-2" d="M19.54,35.52l1.76,1.04,1.21-4.85-1.19.69-1.77,3.12h0ZM21.5,37.34c-.05,0-.11-.02-.16-.04l-2.37-1.4c-.14-.09-.19-.27-.11-.41l1.95-3.46s.07-.09.11-.11l1.89-1.1c.11-.06.24-.05.34.03.09.07.14.2.11.31l-1.48,5.96c-.03.09-.09.17-.18.21-.04.02-.08.02-.12.02Z"/>
    </g>
  </g>
</svg>