<?xml version="1.0" encoding="UTF-8"?>
<svg id="Layer_2" data-name="Layer 2" xmlns="http://www.w3.org/2000/svg" viewBox="0 0 68.96 96.79" fill="currentColor">
  <defs>
    <style>
      .cls-1 {
        fill: #fff;
      }

      .cls-1, .cls-2, .cls-3, .cls-4 {
        fill-rule: evenodd;
      }

      .cls-2 {
        fill: #1a87c7;
      }

      .cls-3 {
        fill: #bdedf8;
      }

      .cls-4 {
        fill: #66ceef;
      }
    </style>
  </defs>
  <g id="_Layer_" data-name="&amp;lt;Layer&amp;gt;">
    <g>
      <path class="cls-1" d="M30.23,69.26h0c3.1,7.11,1.6,14.85,8.64,21.5-11.57,5.37-24.5,7.92-34.71,2.03-3.16-1.83-3.52-2.59-3.52-5.48,0-2.89-.07-5.88.04-8.75.54-5.02,3.11-8.43,6.37-12.1,3.64-3.96,8.2-7.16,11.51-11.44h0c3.67,4.16,9.62,9.47,11.68,14.22h0ZM18.89,55.4l-.31-.33c.1.11.21.23.31.33h0ZM68.35,67.13v-9.63c0-7.72-9.51-10.52-16.07-11.09-.56,1.15-1.13,2.28-1.71,3.37,5.15,9.27.74,29.08-4.95,37.44,12.89-7.44,22.73-17.26,22.73-20.09h0Z"/>
      <path class="cls-2" d="M68.35,67.13h.01-.01ZM51.26,49.79c4.71,9.01,1.13,26.51-3.84,35.65,12.04-7.37,20.31-16.1,20.31-18.3v-9.63c.01-8.29-11.76-10.08-15.09-10.43-.45.92-.91,1.82-1.38,2.71h0ZM45.61,87.85c-.17,0-.33-.07-.45-.2-.19-.21-.22-.52-.06-.76,5.51-8.12,9.9-27.83,4.91-36.81-.1-.17-.1-.4,0-.59.59-1.08,1.15-2.21,1.7-3.34.11-.23.36-.37.61-.35,8.05.7,16.64,4.14,16.64,11.7v9.63h0c0,3.32-10.28,13.26-23.03,20.63-.1.05-.21.08-.31.08h0ZM18.58,55.99c-1.86,2.27-4.06,4.28-6.2,6.2-1.66,1.49-3.37,3.04-4.89,4.7-2.96,3.34-5.67,6.74-6.21,11.75-.07,1.98-.06,4.1-.05,6.14,0,.85.01,1.7.01,2.54,0,2.66.22,3.21,3.22,4.94,10.64,6.15,23.85,2.59,33.33-1.69-4.17-4.3-5.12-9-6.05-13.56-.5-2.5-1.03-5.07-2.09-7.51h0c-1.48-3.41-5.14-7.23-8.36-10.61-.96-1.01-1.89-1.98-2.72-2.9h0ZM17.53,96.79c-4.69,0-9.38-.97-13.68-3.46C.59,91.45.02,90.55.02,87.32c0-.84,0-1.69,0-2.52-.01-2.07-.03-4.19.05-6.24.58-5.41,3.42-8.99,6.52-12.48,1.56-1.71,3.29-3.27,4.97-4.8,2.28-2.05,4.63-4.19,6.52-6.61.11-.16.28-.24.47-.24.17-.02.35.07.47.19,0,.02.01.02.02.02l.32.33c.04.05.07.08.09.14.84.92,1.79,1.91,2.76,2.94,3.3,3.44,7.03,7.35,8.6,10.95,1.11,2.56,1.65,5.21,2.17,7.77.98,4.82,1.9,9.35,6.33,13.54.15.14.22.35.18.54-.03.21-.16.38-.35.47-6.1,2.83-13.86,5.48-21.6,5.48Z"/>
      <path class="cls-1" d="M18.55,55.03c.5-.64,1.95-2.14,2.35-2.8.79-1.34.76-1.84.92-3.41,6.71,7.75,22.49,12.32,28.55,1.31h0c1.71,4.08-3.17,11.97-9.44,14.3-4.61,1.72-11.63.66-15.19-2.59l-6.02-5.47-1.17-1.34Z"/>
      <path class="cls-2" d="M19.36,55.03l.82.92,5.98,5.44c3.28,2.99,10.08,4.14,14.56,2.47,3.52-1.32,6.96-4.69,8.57-8.39.59-1.37.87-2.64.82-3.72-2.21,3.15-5.47,5.04-9.51,5.46-6.12.64-13.59-2.24-18.3-6.97-.11.75-.29,1.34-.86,2.31-.28.47-.93,1.22-1.57,1.93-.18.19-.35.38-.49.55h0ZM35.98,65.88c-3.97,0-8.16-1.31-10.64-3.58l-6.03-5.48-1.22-1.37c-.2-.23-.21-.56-.02-.8.19-.24.52-.61.87-1.01.54-.59,1.21-1.35,1.43-1.72.64-1.08.68-1.51.79-2.69l.05-.47c.02-.24.19-.45.43-.52.24-.07.49,0,.65.19,4.35,5.02,12.01,8.2,18.17,7.56,4.16-.46,7.4-2.57,9.38-6.16.11-.21.33-.33.57-.33.23.02.45.17.53.38.67,1.58.48,3.74-.52,6.07-1.73,4-5.45,7.63-9.26,9.06-1.56.59-3.34.87-5.17.87Z"/>
      <path class="cls-1" d="M46.65,55.4c2.54-2.45,4.61-6.9,6.58-10.95,2.71-5.53,2.56-11.86,2.6-16.93l-.93-3.03c-.34-1.25-.36-2.59-.38-3.84-.03-1.65-.06-3.18-.91-3.96-1.36-1.25-3.52.66-6.06,2.9-1.73,1.51-3.6,3.16-5.64,4.34-2.04,1.18-3.91,1.69-5.64,2.15h0c-1.67.46-3.17.85-4.39,1.88-1.9,1.61-1.82,2.9-1.79,5.2.03,2.17.15,4.31-1.18,8.92-.16-1.17-.43-2.35-.88-3.44-2.39-5.79-8.12-3.77-8,1.73.01.56.09,1.12.21,1.67.35,1.53,1.21,3.32,1.92,4.64.23.44-.07,1.58-.27,2.22,4.85,5.5,11.89,9.25,17.49,9.25,2.5,0,5.44-1.03,7.26-2.76Z"/>
      <path class="cls-2" d="M46.65,55.4h.01-.01ZM22.59,48.76c4.76,5.27,11.47,8.78,16.79,8.78h.01c2.48,0,5.23-1.04,6.84-2.59h0c2.29-2.21,4.2-6.14,6.06-9.94l.4-.82c2.49-5.09,2.51-11.02,2.53-15.78v-.8s-.89-2.94-.89-2.94c-.36-1.34-.38-2.69-.41-4.01-.03-1.49-.06-2.9-.71-3.51-.96-.87-3.03.95-5.23,2.9-1.72,1.51-3.65,3.22-5.74,4.43-2.11,1.22-4.06,1.74-5.78,2.21-1.64.44-3.05.82-4.16,1.76-1.62,1.37-1.6,2.42-1.57,4.5v.56c.04,2.12.08,4.29-1.2,8.74-.08.28-.34.47-.63.46-.29-.02-.53-.25-.57-.52-.18-1.28-.46-2.35-.85-3.29-.91-2.23-2.47-3.39-4.05-3.06-1.37.3-2.82,1.84-2.76,4.55.01.49.08,1.01.2,1.53.26,1.17.89,2.68,1.86,4.48.24.46.2,1.25-.12,2.36h0ZM39.37,58.77c-5.74,0-12.94-3.79-17.94-9.45-.15-.16-.19-.38-.13-.59.31-.96.36-1.6.31-1.76-1.02-1.9-1.68-3.51-1.97-4.78-.14-.61-.21-1.22-.23-1.79-.07-2.92,1.47-5.3,3.74-5.77,1.74-.36,4.06.43,5.44,3.79.13.31.25.64.36.99.58-2.68.55-4.31.52-5.9v-.56c-.04-2.16-.07-3.72,2-5.46,1.33-1.11,2.93-1.55,4.63-2,1.74-.47,3.53-.95,5.5-2.1,1.99-1.13,3.79-2.72,5.53-4.28,2.75-2.42,5.12-4.52,6.89-2.89,1.05.96,1.08,2.63,1.11,4.4.02,1.23.05,2.52.36,3.7l.92,2.99c.02.07.03.12.03.19v.89c-.03,4.9-.05,10.98-2.66,16.32l-.4.82c-1.9,3.89-3.86,7.94-6.31,10.29h0c-1.86,1.79-4.87,2.93-7.69,2.93h-.01Z"/>
      <path class="cls-4" d="M15.72,13.75c-4.48,8.21-1.66,30.63,6.06,35.5.16-.4.67-2.03.39-2.55-.71-1.32-1.57-3.11-1.92-4.64-1.68-7.4,7.13-10.86,8.67.04,1.33-4.61,1.21-6.75,1.18-8.92-.03-2.3-.12-3.58,1.79-5.2,1.22-1.03,2.73-1.43,4.39-1.88h0c1.73-.47,3.6-.97,5.64-2.15,2.04-1.18,3.91-2.84,5.64-4.34,2.53-2.24,4.69-4.16,6.06-2.9.85.78.88,2.31.91,3.96.02,1.25.05,2.59.38,3.84l.93,3.03c.26-4,.17-8.63-.38-12.41-1.07-7.32-4.35-7.6-13.38-12.38-1.44-.75-3.31-2.02-6.11-2.11-6.8-.21-16.89,7.72-20.25,13.13Z"/>
      <path class="cls-2" d="M16.25,14.06c-4.19,7.72-1.71,28.68,5.19,34.19.15-.54.23-1.11.17-1.28-1.02-1.9-1.68-3.51-1.97-4.78-.6-2.66.04-5.18,1.67-6.63,1.15-.99,2.64-1.3,4-.8,1.01.38,2.66,1.48,3.64,4.62.58-2.68.55-4.29.52-5.87v-.56c-.04-2.16-.07-3.72,2-5.46,1.33-1.11,2.93-1.55,4.63-2,1.74-.47,3.53-.95,5.5-2.1,1.99-1.13,3.79-2.72,5.53-4.28,2.75-2.42,5.12-4.52,6.89-2.89,1.05.96,1.08,2.63,1.11,4.4.02,1.01.04,2.05.21,3.02.03-3.01-.15-5.96-.51-8.45-.85-5.79-3.07-6.9-8.99-9.86-1.21-.61-2.55-1.27-4.07-2.06l-.62-.35c-1.31-.73-2.95-1.63-5.21-1.7h-.25c-6.57,0-16.26,7.7-19.45,12.83h0ZM21.78,49.87c-.12,0-.23-.04-.33-.11-8-5.04-10.91-27.81-6.27-36.31,0,0,.01-.02.02-.02C18.59,7.94,28.61,0,35.7,0h.28c2.56.08,4.42,1.11,5.77,1.86l.6.33c1.5.8,2.84,1.46,4.04,2.06,5.99,2.98,8.72,4.35,9.66,10.76.52,3.62.66,8.19.39,12.54-.02.29-.25.54-.54.58-.29.03-.57-.16-.66-.43l-.93-3.03c-.36-1.34-.38-2.69-.41-4.01-.03-1.49-.06-2.9-.71-3.51-.96-.87-3.03.95-5.23,2.9-1.72,1.51-3.65,3.22-5.74,4.43-2.11,1.22-4.06,1.74-5.78,2.21-1.64.44-3.05.82-4.16,1.76-1.62,1.37-1.6,2.42-1.57,4.5v.56c.04,2.12.08,4.29-1.2,8.74-.08.28-.34.47-.63.46-.29-.02-.53-.25-.57-.52-.47-3.34-1.72-5.61-3.42-6.24-.93-.35-1.94-.14-2.76.58-1.01.89-1.88,2.76-1.28,5.4.26,1.17.89,2.68,1.86,4.48.48.91-.32,2.99-.36,3.08-.07.18-.21.31-.38.37-.06.02-.13.04-.2.04Z"/>
      <path class="cls-3" d="M41.75,62.56c-11.21-1.01-17.36-1.27-23.2-7.52,3.66,4.16,9.62,9.47,11.68,14.22,3.1,7.11,1.6,14.85,8.64,21.5l6.74-3.53c5.24-7.47,10.44-27.57,4.95-37.44l-.19.35c.56,5.3-3.72,7.84-7.83,11.97h0l-.79.45h0Z"/>
      <path class="cls-2" d="M23.92,59.87c2.79,2.96,5.57,6.16,6.87,9.13,1.11,2.56,1.65,5.21,2.17,7.77.95,4.69,1.85,9.13,6.02,13.23l6.22-3.24c4.61-6.71,9.51-24.37,5.77-34.59-.44,3.34-2.87,5.58-5.62,8.12-.77.71-1.58,1.46-2.38,2.26-.04.04-.08.07-.13.1l-.79.45c-.11.05-.25.09-.36.07l-1.48-.12c-6.91-.61-11.96-1.06-16.29-3.18h0ZM38.87,91.37c-.15,0-.3-.05-.42-.18-4.72-4.45-5.72-9.4-6.69-14.18-.5-2.5-1.03-5.07-2.09-7.51-1.48-3.41-5.14-7.23-8.36-10.61-1.15-1.22-2.26-2.36-3.22-3.44-.22-.26-.2-.64.05-.87.25-.22.64-.21.86.03,5.42,5.79,11.07,6.29,21.32,7.2l1.29.12.55-.31c.79-.8,1.59-1.53,2.36-2.25,3.16-2.92,5.66-5.23,5.24-9.2-.02-.12,0-.24.07-.35l.19-.35c.11-.19.31-.31.54-.33h0c.22,0,.43.12.54.33,5.87,10.53.03,30.94-4.98,38.11-.06.07-.13.14-.22.19l-6.74,3.51c-.09.05-.19.07-.29.07Z"/>
      <path class="cls-2" d="M39.25,70.85c-.08,0-.17-.02-.24-.05l-9.66-4.17c-.31-.12-.46-.49-.32-.8.13-.31.5-.47.81-.33l9.03,3.91,2.16-6.64c.11-.31.45-.49.78-.38.14.04.26.14.34.26-.06-.28.07-.56.32-.68.31-.16.67-.04.83.26l2.06,4.01c.59-.97,1.2-1.95,1.79-2.89,1.54-2.48,3.01-4.83,3.68-6.33.14-.31.5-.45.81-.31.31.16.45.52.3.82-.71,1.56-2.19,3.94-3.76,6.47-.78,1.25-1.59,2.55-2.35,3.83-.11.19-.32.34-.55.31-.22-.02-.43-.14-.53-.34l-2.54-4.95c.02.1.01.2-.02.31l-2.37,7.28c-.06.16-.18.3-.33.37-.08.04-.17.05-.25.05Z"/>
      <path class="cls-4" d="M38.87,90.76l6.74-3.53c-.11-.99-.14-1.18-.25-2.1-.57-4.75-.73-9.86-1.3-14.92-.02-.22.22-2.15.49-4.15l-2.02-3.95-.79.45-1.67,5.13c.43,1.45.85,2.96.81,3.29-.59,5.95-1.2,11.81-1.79,17.49-.09.85-.15,1.39-.24,2.29Z"/>
      <path class="cls-2" d="M40.72,67.69c.84,2.81.8,3.18.78,3.34-.59,5.93-1.2,11.78-1.78,17.44l-.12,1.22,5.36-2.8-.2-1.69c-.29-2.45-.48-4.94-.67-7.56-.18-2.4-.36-4.91-.64-7.36-.01-.1-.04-.38.46-4.12l-1.64-3.2-.02.02-1.54,4.71h0ZM38.87,91.37c-.12,0-.24-.04-.34-.1-.19-.13-.29-.35-.27-.58l.24-2.29c.59-5.71,1.2-11.56,1.79-17.49,0-.02-.02-.49-.79-3.04-.04-.12-.04-.24,0-.36l1.67-5.13c.05-.14.15-.26.28-.35l.79-.46c.14-.08.32-.1.48-.05.16.05.3.15.38.31l2.02,3.94c.06.11.08.23.06.37-.34,2.48-.49,3.81-.48,4.01.28,2.47.46,4.97.64,7.39.19,2.61.37,5.08.66,7.51l.25,2.11c.03.26-.1.5-.33.62l-6.74,3.51c-.09.05-.19.07-.29.07Z"/>
      <path class="cls-2" d="M42.42,71.36c-.77,0-1.48-.28-1.84-.41-.32-.13-.47-.47-.35-.8.12-.31.48-.47.8-.35,1.75.66,2.22.19,2.53-.31.18-.3.56-.38.85-.21.29.17.38.55.21.83-.59.97-1.42,1.25-2.19,1.25Z"/>
      <path class="cls-2" d="M34.32,91.4c-.2,0-.4-.1-.51-.28l-9.21-13.87c-.1-.14-.13-.33-.08-.51l.82-2.95-3.21-7.51c-.13-.31.01-.68.33-.8.3-.14.67,0,.81.31l3.29,7.72c.06.12.07.28.03.4l-.8,2.89,9.05,13.64c.19.28.11.66-.17.85-.1.07-.22.1-.34.1Z"/>
      <path class="cls-2" d="M53.23,79.76s-.1,0-.15-.02c-.33-.07-.53-.4-.45-.73l3.62-14.91c.08-.34.41-.55.74-.46.33.07.53.42.45.75l-3.62,14.9c-.07.29-.32.47-.6.47Z"/>
      <path class="cls-2" d="M46.82,30.94v4.67c0,.72.22,1.25.6,1.46.38.22.95.14,1.57-.21l6.52-3.77c.44-.24.88-.71,1.22-1.27,0-.02.01-.03.02-.05.33-.57.52-1.2.52-1.72v-4.97c0-.07-.01-.11-.02-.16-.06.04-.12.07-.16.09l-10.28,5.93h0ZM44.4,32.35l-9.8,5.65c-.56.33-.65.4-.65,1.16v5.06c0,.4.11.7.3.8.19.12.5.07.84-.14l6.52-3.76c.72-.41,1.44-1.19,1.96-2.09.53-.92.83-1.91.83-2.75v-3.95h0ZM34.48,46.31c-.3,0-.59-.07-.84-.2-.59-.35-.92-1.03-.92-1.88v-4.97c0-1.38.39-1.81,1.27-2.31l11.89-6.87s.01-.02.02-.02l10.58-6.1c.48-.28.93-.54,1.4-.29.44.23.55.73.61,1.25,0,.04,0,.16,0,.17v4.97c0,.73-.24,1.55-.67,2.31,0,0-.01.02-.02.04-.45.76-1.04,1.4-1.69,1.77l-6.52,3.76c-1.02.59-2.02.68-2.8.23-.63-.37-1.03-1.03-1.17-1.88v.02c0,1.06-.35,2.26-.99,3.35-.64,1.11-1.5,2.02-2.41,2.54l-6.52,3.77c-.42.25-.83.35-1.23.35Z"/>
      <path class="cls-4" d="M38.04,53.9c1.86-1.07,7.03-3.53,8.59-6.26,1.55.94,6.73-2.57,8.58-3.65-1.14-2.81-7.08-1.93-8.58.71-1.51-.9-7.44,5.06-8.59,9.2Z"/>
      <path class="cls-2" d="M46.26,45.23c-.09,0-.29.04-.66.21-1.91.95-4.94,4.28-6.35,7.09,2.28-1.23,5.7-3.17,6.85-5.19.08-.14.22-.25.38-.28.16-.05.33-.02.47.07.99.59,5.25-2.02,6.85-2.99.21-.12.4-.24.57-.35-.56-.68-1.56-.85-2.18-.89-2.04-.14-4.29.8-5.03,2.11-.08.16-.22.26-.38.29-.16.05-.33.02-.48-.07h-.05ZM38.04,54.51c-.13,0-.27-.03-.37-.12-.2-.16-.29-.41-.22-.66.99-3.56,5.44-8.55,7.93-9.54.36-.14.71-.21.98-.19,1.26-1.68,3.92-2.47,5.92-2.33,1.73.11,3.01.87,3.51,2.1.11.28,0,.61-.26.77-.29.16-.66.38-1.08.64-3.03,1.86-5.89,3.48-7.55,3.2-1.59,2.28-5.23,4.26-7.46,5.46-.42.25-.79.43-1.07.61-.09.05-.2.07-.31.07Z"/>
      <path class="cls-2" d="M32.96,38.56c-.08,0-.17-.02-.25-.05l-8.4-3.81c-.33-.14-.67-.17-.88-.07-.07.04-.17.11-.22.31l-.13.57c-.07.35-.41.56-.74.47-.33-.07-.54-.4-.47-.73l.13-.58c.11-.52.42-.94.87-1.16.55-.26,1.26-.24,1.94.07l8.39,3.79c.31.14.45.5.31.82-.1.23-.33.37-.56.37Z"/>
      <path class="cls-1" d="M25.62,92.74c.12.74.6,1.22,1.15,1.04l1-.31c1.59-.5,1.29-5-.24-4.54l-1,.31c-.38.12-.7.52-.88,1.03l-.04,2.47Z"/>
      <path class="cls-2" d="M26.24,92.7c.06.26.17.42.25.47l1.1-.3c.55-.17.81-1.76.48-2.83-.09-.28-.24-.56-.35-.52l-1,.31c-.13.05-.32.23-.44.56l-.04,2.31h0ZM26.55,94.42c-.25,0-.49-.07-.71-.19-.43-.28-.73-.78-.83-1.39,0-.04,0-.07,0-.1l.04-2.49c0-.05.01-.12.03-.19.24-.7.72-1.22,1.27-1.39l1-.31c.65-.21,1.49.04,1.89,1.32.46,1.48.19,3.91-1.29,4.36l-1,.33c-.14.03-.28.05-.41.05Z"/>
      <path class="cls-1" d="M24.56,92.97l1.64.77c-.96-.7-.56-2.42-.54-3.46.19-.47.39-.82.88-1.03.53-.16.99-.42,1.52-.28l-1.64-.75c-.69-.05-.86.07-1.52.28-.48.19-.69.54-.87,1.01-.02,1.04-.34,2.83.54,3.46Z"/>
      <path class="cls-2" d="M24.89,92.44l.09.04c-.05-.54,0-1.08.03-1.55.02-.24.04-.47.04-.68,0-.07.02-.14.04-.21.18-.45.42-.92.93-1.22-.2.02-.35.05-.6.14l-.34.12c-.18.07-.3.21-.45.56,0,.16-.01.35-.03.56-.05.75-.12,1.88.28,2.24h0ZM26.2,94.34c-.09,0-.18-.02-.26-.05l-1.64-.77s-.07-.04-.1-.05c-1-.71-.9-2.24-.83-3.35.01-.22.02-.43.03-.61,0-.09.02-.16.04-.23.21-.52.5-1.06,1.22-1.36l.36-.12c.45-.16.74-.25,1.43-.21.07.02.15.03.22.07l1.64.75c.29.14.43.47.32.78-.11.29-.43.47-.75.37-.22-.05-.43.02-.79.15-.12.04-.24.09-.37.13-.18.08-.3.2-.45.56,0,.21-.03.41-.04.64-.07.82-.15,1.84.33,2.2.26.17.33.54.17.8-.11.21-.32.31-.53.31Z"/>
      <path class="cls-4" d="M19.49,81.61c.22.84.13.52.33,1.25,1.3,4.71,2.37,7.07,5.34,7.18l-.04,2.47h0c-3.97.16-5.22-2.66-6.81-8.48-.21-.75-.11-.42-.33-1.27l1.51-1.15Z"/>
      <path class="cls-2" d="M18.68,83.01l.06.22c.03.14.05.23.17.65,1.55,5.68,2.69,7.89,5.61,8.03l.02-1.3c-3.1-.43-4.17-3.43-5.31-7.56l-.1-.38-.44.35h0ZM24.81,93.14c-4.32,0-5.62-3.56-7.1-8.95-.12-.41-.14-.5-.18-.64l-.16-.63c-.06-.24.02-.49.22-.64l1.5-1.15c.16-.14.38-.17.57-.1.2.07.34.22.4.43l.33,1.25c1.29,4.68,2.24,6.64,4.77,6.71.34.02.6.29.6.62l-.04,2.49c0,.31-.26.59-.59.59-.11.02-.23.02-.34.02Z"/>
      <polygon class="cls-4" points="33.25 86.27 32.25 85.8 31.11 84.24 32.11 84.71 33.25 86.27"/>
      <path class="cls-2" d="M33.25,86.88c-.09,0-.18-.02-.26-.05l-1-.47c-.1-.03-.18-.1-.24-.19l-1.14-1.57c-.16-.23-.15-.54.03-.75.18-.23.48-.29.73-.17l1,.46c.1.05.18.12.24.2l1.14,1.57c.16.23.15.54-.02.74-.12.16-.3.23-.47.23Z"/>
      <path class="cls-4" d="M33.53,70.82c.21.75.11.37.3,1.04,1.63,5.96,2.12,9.42-.58,14.41l-1.14-1.56c1.93-3.89,1.53-6.81.23-11.63-.19-.69-.09-.32-.31-1.1l1.5-1.16Z"/>
      <path class="cls-2" d="M32.82,84.64l.33.45c2.08-4.33,1.58-7.56.08-13.05l-.05-.18-.45.35.2.71c1.35,5,1.67,7.94-.11,11.72h0ZM33.25,86.88c-.2,0-.38-.09-.5-.25l-1.14-1.58c-.14-.17-.16-.41-.05-.62,1.79-3.62,1.52-6.26.18-11.19l-.31-1.1c-.07-.25.02-.51.22-.67l1.5-1.15c.16-.12.37-.15.57-.1.19.07.34.22.4.41l.3,1.06c1.54,5.65,2.27,9.48-.63,14.87-.1.17-.29.31-.5.31h-.04Z"/>
      <path class="cls-1" d="M31.97,72.63c-1.15-4.23-2.14-4.61-5.51-6.17h0l.27.14c2.03,1.3,2.54,2.74,3.18,5.08l2.06.96h0ZM29.64,63.47h0c-.45-.17-.76-.3-1.22-.4-3.61-.64-6.26,1.68-8,4.07-3.03,4.42-4.11,10.2-2.46,16.27l-2.06-.95c-1.98-8.68,2.69-24.03,13.75-18.98h0Z"/>
      <path class="cls-2" d="M30.43,71.24l.56.26c-.38-1.15-.77-1.88-1.3-2.44.29.64.51,1.36.74,2.17h0ZM31.97,73.25c-.09,0-.18-.04-.26-.07l-2.06-.94c-.17-.08-.29-.23-.34-.4-.65-2.4-1.13-3.58-2.92-4.73l-.22-.11c-.3-.16-.42-.52-.27-.82.15-.29.51-.43.81-.29l.02.02h0l.17.07c3.23,1.49,4.45,2.05,5.66,6.48.06.23-.02.47-.2.63-.12.1-.26.16-.4.16h0ZM16.43,82.02l.62.29c-1.2-5.6-.2-11.07,2.86-15.52,1.1-1.51,2.31-2.66,3.58-3.39-.83.26-1.62.7-2.36,1.28-4.23,3.44-5.84,11.81-4.7,17.33h0ZM17.95,84.01c-.09,0-.18-.02-.26-.05l-2.06-.95c-.17-.09-.3-.23-.34-.42-1.37-5.99.34-15,5.06-18.86,2.67-2.17,5.97-2.45,9.55-.82.31.14.44.5.31.8-.13.31-.49.45-.8.32-.42-.17-.71-.28-1.14-.38-2.66-.47-5.14.82-7.35,3.85-3.07,4.46-3.91,10.07-2.37,15.73.07.24-.01.49-.2.65-.11.08-.25.14-.4.14Z"/>
      <path class="cls-1" d="M17.74,82.6c-1.57-5.75.23-13.92,4.37-17.41l1.51-1.17c4.37-2.71,9.05-.24,10.7,5.84l.22.8-2.56,1.96c-1.34-4.94-4.57-7.22-8.14-4.47-3.59,2.76-4.66,8.34-3.31,13.28l-2.56,1.96-.22-.8Z"/>
      <path class="cls-2" d="M27.19,63.53c-1.08,0-2.18.35-3.25,1.01l-1.45,1.13c-3.75,3.16-5.7,10.95-4.18,16.67l1.51-1.15c-1.31-5.34.16-10.85,3.64-13.52,2.01-1.55,3.68-1.45,4.74-1.1,1.78.61,3.22,2.38,4.11,5.02l1.53-1.18-.11-.4c-.83-3.06-2.52-5.29-4.63-6.12-.62-.25-1.25-.37-1.9-.37h0ZM17.95,84.01c-.07,0-.13,0-.2-.03-.19-.05-.34-.23-.4-.42l-.22-.8h0c-1.7-6.25.39-14.52,4.57-18.06l1.52-1.17c2.09-1.3,4.31-1.56,6.31-.78,2.47.99,4.43,3.51,5.37,6.95l.22.8c.07.23-.02.49-.22.64l-2.56,1.97c-.16.13-.38.16-.57.1-.19-.07-.34-.22-.4-.43-.73-2.68-2.03-4.5-3.58-5.02-1.12-.38-2.33-.09-3.59.89-3.18,2.45-4.45,7.63-3.1,12.62.07.24-.02.5-.22.66l-2.57,1.96c-.11.09-.24.12-.37.12Z"/>
      <path class="cls-1" d="M31.42,90.03l-1.64-.74c-1.23-.97-1.23-2.61-.64-3.6l.8-1.06c.26-.31.53-.56,1.03-.46l1.64.76c-.5-.1-.77.14-1.03.45l-.8,1.06c-.59.99-.59,2.63.64,3.58Z"/>
      <path class="cls-2" d="M30.71,84.73s-.06,0-.3.29l-.78,1.04c-.32.54-.45,1.61.2,2.42-.14-.83.02-1.69.41-2.35l.83-1.13s.04-.03.07-.07l-.44-.2h0ZM31.42,90.66c-.09,0-.18-.02-.26-.07l-1.64-.74c-1.57-1.22-1.66-3.2-.91-4.47l.83-1.11c.23-.28.73-.89,1.66-.68l1.77.8c.28.12.42.45.32.75-.1.29-.4.49-.72.4-.12-.02-.18-.04-.42.24l-.78,1.05c-.37.62-.48,1.94.53,2.72.25.19.31.54.15.82-.11.19-.32.3-.53.3Z"/>
      <path class="cls-1" d="M33.75,86.5c.26.64.15,1.56-.29,2.14l-.8,1.07c-1.26,1.69-3.1-1.63-1.88-3.26l.8-1.06c.3-.41.69-.56,1.03-.45l1.14,1.57Z"/>
      <path class="cls-2" d="M32.29,85.54c-.07.04-.14.11-.22.21l-.79,1.06c-.58.78-.16,2.22.42,2.66.13.11.24.17.47-.12l.8-1.08c.29-.38.39-1.03.24-1.48l-.91-1.25h0ZM31.89,90.79c-.31,0-.63-.11-.93-.33-1.12-.83-1.66-3.06-.68-4.38l.8-1.08c.45-.59,1.11-.85,1.71-.66.12.04.23.13.31.23l1.14,1.57c.03.05.05.09.07.14.34.85.19,2-.37,2.75l-.8,1.06c-.35.47-.8.71-1.27.71Z"/>
      <path class="cls-1" d="M56.47,63.43c1.91-1.79,3.94-1.18,4.54,1.38.6,2.55-.46,6.08-2.37,7.87-1.91,1.79-3.94,1.18-4.54-1.37-.6-2.55.46-6.07,2.38-7.88Z"/>
      <path class="cls-2" d="M56.47,63.43h.02-.02ZM58.65,63.03c-.55,0-1.15.3-1.76.85h0c-1.77,1.65-2.75,4.92-2.2,7.28.24,1.01.72,1.67,1.36,1.86.64.19,1.41-.09,2.16-.8,1.77-1.65,2.74-4.92,2.19-7.28-.24-1.01-.72-1.67-1.36-1.86-.13-.04-.27-.05-.41-.05h0ZM56.46,74.31c-.26,0-.51-.04-.76-.11-1.07-.33-1.86-1.3-2.2-2.76-.65-2.78.47-6.5,2.55-8.45h0c1.1-1.03,2.28-1.43,3.36-1.1,1.07.34,1.86,1.31,2.2,2.77.65,2.78-.47,6.5-2.55,8.47-.84.78-1.74,1.18-2.6,1.18Z"/>
      <path class="cls-1" d="M58.66,71.7l-2.02-.61c-2.26-.78-.58-6.6,1.83-6.08l2.02.61c-2.52-.32-4.05,5.01-1.83,6.08Z"/>
      <path class="cls-2" d="M58.15,65.59c-.73,0-1.46,1.11-1.78,2.24-.31,1.11-.26,2.43.47,2.69l.26.07c-.21-.82-.14-1.79.12-2.66.26-.85.72-1.68,1.35-2.24l-.28-.09c-.05-.02-.1-.02-.15-.02h0ZM58.66,72.33c-.06,0-.12-.02-.18-.04l-2.03-.61c-1.54-.54-1.75-2.48-1.27-4.19.48-1.74,1.77-3.44,3.41-3.1l2.07.63c.31.08.49.4.43.71-.06.31-.36.52-.68.49-.94-.12-1.69.99-2.02,2.05-.34,1.13-.27,2.48.53,2.87.29.16.41.49.3.79-.09.24-.32.4-.57.4Z"/>
      <path class="cls-1" d="M58.98,66.14c1.05-.99,2.16-.64,2.49.75.32,1.39-.26,3.32-1.3,4.31-1.04.98-2.16.64-2.48-.76-.33-1.39.25-3.32,1.29-4.29Z"/>
      <path class="cls-2" d="M58.98,66.14h.02-.02ZM60.18,66.2c-.23,0-.5.14-.78.4h0c-.89.82-1.4,2.52-1.12,3.7.1.45.3.75.56.82.23.08.58-.05.91-.37.89-.83,1.4-2.54,1.12-3.72-.1-.45-.3-.74-.55-.82-.05-.02-.09-.02-.14-.02h0ZM58.98,72.37c-.17,0-.34-.02-.5-.07-.69-.21-1.19-.82-1.4-1.7-.38-1.61.27-3.77,1.48-4.9h0c.67-.63,1.43-.87,2.11-.66.69.2,1.18.81,1.39,1.72.38,1.62-.27,3.75-1.47,4.88-.51.49-1.07.73-1.61.73Z"/>
      <path class="cls-4" d="M52.27,46.41c1.59,1.71,3.11,4.84,4.38,10.21l2.06,8.72c-.29.07-.6.25-.91.54-.21.19-.41.43-.58.71l-1.01-4.29-1.02-4.31c-1.19-5.02-2.56-7.89-3.97-9.42.35-.71.7-1.43,1.05-2.16Z"/>
      <path class="cls-2" d="M51.95,48.48c1.52,1.83,2.78,4.9,3.84,9.37l1.76,7.44c.15-.13.29-.23.44-.31l-1.94-8.22c-1.01-4.23-2.23-7.32-3.65-9.22l-.45.94h0ZM57.23,67.2h-.1c-.25-.05-.44-.23-.49-.47l-2.04-8.6c-1.06-4.45-2.34-7.53-3.82-9.15-.17-.19-.21-.45-.1-.69l1.05-2.14c.09-.19.26-.31.46-.35.2-.02.4.06.54.19,1.85,1.98,3.33,5.41,4.53,10.48l2.06,8.73c.08.33-.13.66-.46.74-.2.04-.41.18-.63.38-.17.16-.34.35-.49.59-.12.17-.31.28-.52.28Z"/>
      <path class="cls-4" d="M21.94,64.2c-2.7-4.26-4.57-11.24-1.47-15.99.42.4.85.76,1.3,1.04-2.56,4.14-.12,9.08,1.67,14.03l-1.5.92Z"/>
      <path class="cls-2" d="M20.62,49.16c-2.26,4.2-.88,10.1,1.53,14.18l.55-.33c-.17-.46-.34-.92-.52-1.37-1.56-4.15-3.18-8.45-1.21-12.2-.11-.09-.23-.17-.35-.28h0ZM21.94,64.81c-.2,0-.4-.09-.52-.28-2.93-4.62-4.64-11.8-1.46-16.67.1-.14.27-.25.45-.26.18-.03.37.04.5.17.39.37.79.7,1.2.97.28.17.36.56.19.83-2.08,3.38-.57,7.39,1.03,11.63.23.62.47,1.25.69,1.86.1.28,0,.59-.26.74l-1.5.91c-.1.07-.21.09-.32.09Z"/>
    </g>
  </g>
</svg>