<?xml version="1.0" encoding="UTF-8"?>
<svg id="Layer_2" data-name="Layer 2" xmlns="http://www.w3.org/2000/svg" viewBox="0 0 19.27 43.43" fill="currentColor">
  <defs>
    <style>
      .cls-1 {
        fill: #fff;
      }

      .cls-1, .cls-2, .cls-3, .cls-4 {
        fill-rule: evenodd;
      }

      .cls-2 {
        fill: #1a87c7;
      }

      .cls-3 {
        fill: #bdedf8;
      }

      .cls-4 {
        fill: #66ceef;
      }
    </style>
  </defs>
  <g id="_Layer_" data-name="&amp;lt;Layer&amp;gt;">
    <g>
      <path class="cls-3" d="M15.9.37c-.3-.13-.73-.02-1.02.13l-.1.05L2.17,7.84c-1.09.65-1.85,2.16-1.86,3.41v29.05c.02.49.11.95.49,1.29l2.3,1.33c-.39-.33-.47-.8-.48-1.29V12.58c0-1.25.76-2.76,1.85-3.41L17.09,1.88c.36-.2.71-.3,1.11-.18l-2.3-1.33Z"/>
      <path class="cls-2" d="M15.59.61c-.18,0-.4.07-.57.15l-.09.05L2.32,8.1c-.94.56-1.7,1.94-1.71,3.14v29.05c.02.52.13.83.39,1.05l1.35.78c-.03-.17-.04-.34-.04-.5V12.58c0-1.42.87-3,2-3.67L16.94,1.61c.08-.05.17-.09.27-.14l-1.44-.83c-.05-.02-.11-.03-.17-.03h0ZM3.11,43.23c-.05,0-.1-.02-.15-.04l-2.3-1.33c-.55-.47-.63-1.07-.64-1.55V11.25c0-1.43.87-3,2-3.67L14.73.22c.36-.19.88-.32,1.29-.14,0,0,.02,0,.03.01l2.3,1.33c.14.08.19.25.13.39-.06.14-.22.22-.37.17-.27-.08-.52-.04-.87.15l-12.62,7.29c-.94.56-1.69,1.94-1.71,3.14v29.05c.02.52.13.83.39,1.06.12.1.14.28.05.41-.06.08-.15.13-.25.13Z"/>
      <path class="cls-3" d="M4.48,42.89l12.62-7.29c1.03-.59,1.86-2.12,1.86-3.41V3.13c-.01-1.28-.85-1.85-1.87-1.25l-12.62,7.29c-1.03.59-1.86,2.12-1.86,3.41v29.06c.01,1.29.85,1.85,1.87,1.26Z"/>
      <path class="cls-2" d="M17.87,1.95c-.19,0-.4.06-.62.19l-12.62,7.29c-.93.54-1.71,1.97-1.71,3.14v29.06c0,.53.17.94.46,1.1.25.14.58.1.95-.11h0l12.62-7.29c.93-.54,1.71-1.97,1.7-3.14V3.13c-.01-.53-.17-.93-.46-1.1-.1-.06-.21-.08-.33-.08h0ZM3.71,43.43c-.23,0-.44-.06-.64-.17-.48-.28-.76-.87-.76-1.63V12.58c-.01-1.38.89-3.03,2-3.67L16.94,1.61c.57-.33,1.12-.37,1.57-.11.48.28.75.87.75,1.63v29.06c.01,1.38-.89,3.03-2,3.67l-12.62,7.29c-.32.19-.64.28-.93.28Z"/>
      <path class="cls-1" d="M18.96,31.84V3.13c-.01-1.28-.85-1.85-1.87-1.25l-12.62,7.29c-1.03.59-1.86,2.12-1.86,3.41v28.7s16.35-9.44,16.35-9.44Z"/>
      <path class="cls-2" d="M17.87,1.95c-.19,0-.4.06-.62.19l-12.62,7.29c-.93.54-1.71,1.97-1.71,3.14v28.17s15.73-9.09,15.73-9.09V3.13c-.01-.53-.17-.93-.46-1.1-.1-.06-.21-.08-.33-.08h0ZM2.62,41.59c-.05,0-.11-.01-.15-.04-.1-.06-.16-.16-.16-.27V12.58c-.01-1.38.89-3.03,2-3.67L16.94,1.61c.57-.33,1.12-.37,1.57-.11.48.28.76.87.76,1.63v28.71c.01.11-.05.21-.14.27L2.78,41.54s-.1.04-.15.04Z"/>
      <path class="cls-4" d="M.75,9.49c-.27.55-.43,1.14-.44,1.76v29.05c.02.49.11.95.49,1.29l2.3,1.33c-.39-.33-.47-.8-.48-1.29V12.58c0-.64.16-1.17.43-1.76l-2.3-1.33Z"/>
      <path class="cls-2" d="M.89,9.93c-.17.44-.27.88-.27,1.33v29.05c.02.52.13.83.39,1.05l1.35.78c-.03-.17-.04-.34-.04-.5V12.58c0-.57.11-1.06.34-1.63l-1.77-1.02h0ZM3.11,43.23c-.05,0-.1-.02-.15-.04l-2.3-1.33c-.55-.47-.63-1.07-.64-1.55V11.25c0-.64.16-1.28.46-1.89.04-.08.11-.13.19-.16.08-.02.17-.01.24.03l2.3,1.33c.14.08.19.25.13.4-.28.59-.4,1.08-.41,1.63v29.05c.02.52.13.83.39,1.05.12.11.14.28.05.41-.06.08-.15.13-.25.13Z"/>
      <path class="cls-2" d="M1.51,22.3c-.17,0-.31-.14-.31-.31v-2.92c0-.17.14-.31.31-.31s.31.14.31.31v2.92c0,.17-.14.31-.31.31Z"/>
      <path class="cls-2" d="M1.51,17.46c-.17,0-.31-.14-.31-.31v-2.92c0-.17.14-.31.31-.31s.31.14.31.31v2.92c0,.17-.14.31-.31.31Z"/>
      <path class="cls-2" d="M9.93,38.72c-.11,0-.21-.06-.27-.15-.09-.15-.03-.34.11-.42l2.53-1.46c.15-.08.33-.03.42.11.09.15.03.34-.11.42l-2.53,1.46s-.1.04-.16.04Z"/>
      <path class="cls-3" d="M16.54,3.55h0c-.18.11-.33.38-.33.61h0c0,.23.15.33.33.22h0c.18-.11.33-.38.33-.61h0c0-.23-.15-.33-.33-.22Z"/>
      <path class="cls-2" d="M16.54,3.55h0,0ZM16.4,4.73c-.08,0-.17-.02-.24-.07-.17-.09-.26-.28-.26-.51,0-.34.21-.72.49-.88.18-.1.37-.11.53-.02.17.1.26.28.26.51,0,.34-.21.72-.49.88-.1.05-.2.08-.29.08Z"/>
      <path class="cls-2" d="M6.64,32.2c-.11,0-.21-.06-.27-.16-.08-.15-.03-.33.11-.42l2.48-1.43c.15-.08.33-.03.42.11.08.15.03.34-.11.42l-2.48,1.43s-.1.04-.15.04Z"/>
      <path class="cls-2" d="M6.64,35.82c-.11,0-.21-.06-.27-.16-.08-.15-.03-.33.11-.42l2.48-1.43c.15-.08.34-.03.42.12.08.15.03.34-.11.42l-2.48,1.43s-.1.04-.15.04Z"/>
      <path class="cls-2" d="M13.37,28.33c-.11,0-.21-.06-.27-.15-.08-.15-.03-.33.11-.42l2.48-1.43c.15-.09.34-.03.42.11.08.15.03.34-.11.42l-2.48,1.43s-.1.04-.15.04Z"/>
      <path class="cls-2" d="M13.37,31.95c-.11,0-.21-.05-.27-.15-.08-.15-.03-.34.11-.42l2.48-1.42c.15-.08.34-.03.42.12.08.15.03.33-.11.42l-2.48,1.43s-.1.04-.15.04Z"/>
      <path class="cls-2" d="M7.98,17.69s0,0,0,0h0ZM8.11,18.4c.08,0,.17-.02.25-.07l2.28-1.32c.18-.1.24-.33.14-.5-.1-.18-.33-.24-.51-.14l-1.86,1.08v-1.03l2.1-1.21c.19-.11.32-.33.32-.55v-1.59c0-.17-.08-.33-.22-.4-.14-.08-.31-.08-.46,0l-2.29,1.32c-.18.1-.24.33-.13.5.1.18.33.24.51.14l1.86-1.08v1.04l-2.1,1.21c-.19.11-.32.33-.32.55v1.58c0,.17.08.32.22.41.07.04.14.06.22.06Z"/>
      <path class="cls-2" d="M14.02,11.28h0,0ZM13.65,14.42h0,0ZM11.92,12.49v2.92l1.68-.97v-2.92l-1.68.97h0ZM11.68,15.98h0,0ZM11.62,16.37c-.08,0-.15-.02-.22-.06-.14-.08-.22-.23-.22-.4v-3.47c0-.21.13-.44.32-.55l2.15-1.24c.15-.09.32-.09.46-.01.14.08.22.23.22.41v3.47c0,.21-.13.44-.32.55l-2.15,1.24h0c-.08.04-.16.07-.24.07Z"/>
      <path class="cls-2" d="M4.72,11.82c-.11,0-.21-.06-.27-.15-.08-.15-.03-.34.11-.42l.73-.42c.14-.08.33-.03.42.12.08.15.03.33-.11.42l-.73.42s-.1.04-.15.04Z"/>
      <path class="cls-2" d="M6.18,10.98c-.11,0-.21-.06-.27-.15-.08-.15-.03-.34.11-.42l.73-.42c.14-.08.33-.03.42.12.08.15.03.33-.11.42l-.73.42s-.1.04-.15.04Z"/>
      <path class="cls-2" d="M7.64,10.15c-.11,0-.21-.05-.27-.15-.08-.15-.03-.34.11-.42l.73-.42c.15-.09.33-.04.42.11.08.15.03.34-.11.42l-.73.42s-.1.04-.15.04Z"/>
      <path class="cls-2" d="M6.64,28.58c-.11,0-.21-.06-.27-.16-.08-.15-.03-.34.11-.42l2.48-1.43c.15-.08.33-.03.42.12.08.15.03.33-.11.42l-2.48,1.42s-.1.04-.15.04Z"/>
      <path class="cls-2" d="M13.37,24.71c-.11,0-.21-.06-.27-.16-.08-.15-.03-.33.11-.42l2.48-1.43c.15-.08.33-.04.42.11.08.15.03.34-.11.42l-2.48,1.43s-.1.04-.15.04Z"/>
      <path class="cls-2" d="M10.13,20.35s0,0,0,0h0ZM8.17,24.17c-.13,0-.25-.07-.32-.18-.1-.17-.04-.4.14-.5l2.1-1.21v-1.04l-1.73,1c-.18.1-.4.04-.51-.13-.1-.18-.04-.4.14-.51l2.1-1.21v-1.04l-1.86,1.08c-.18.1-.4.04-.51-.14-.1-.18-.04-.4.13-.51l2.29-1.32c.15-.08.32-.09.46,0,.14.08.22.23.22.41v1.59c0,.05,0,.1-.02.16.02.04.02.1.02.15v1.59c0,.22-.13.44-.32.55l-2.15,1.24c-.06.03-.12.05-.19.05Z"/>
      <path class="cls-2" d="M14.02,17.22h0,0ZM11.62,22.3c-.08,0-.15-.02-.22-.06-.14-.08-.22-.23-.22-.41v-1.58c0-.22.13-.44.32-.55l2.1-1.21v-1.04l-1.86,1.07c-.18.1-.4.04-.51-.13-.1-.18-.04-.4.13-.51l2.29-1.32c.15-.09.32-.09.46-.01.14.08.22.23.22.41v1.59c0,.21-.13.44-.32.55l-2.1,1.21v1.03l1.86-1.07c.18-.1.4-.04.51.14.1.18.04.4-.14.5l-2.28,1.32c-.08.04-.16.07-.25.07Z"/>
    </g>
  </g>
</svg>