<?xml version="1.0" encoding="UTF-8"?>
<svg id="Layer_2" data-name="Layer 2" xmlns="http://www.w3.org/2000/svg" viewBox="0 0 31.92 42.21" fill="currentColor">
  <defs>
    <style>
      .cls-1 {
        fill: #fff;
      }

      .cls-1, .cls-2, .cls-3, .cls-4 {
        fill-rule: evenodd;
      }

      .cls-2 {
        fill: #1a87c7;
      }

      .cls-3 {
        fill: #bdedf8;
      }

      .cls-4 {
        fill: #66ceef;
      }
    </style>
  </defs>
  <g id="_Layer_" data-name="&amp;lt;Layer&amp;gt;">
    <g>
      <path class="cls-1" d="M29.85,41.91c.44,0,.9-.1,1.24-.3.34-.19.51-.45.51-.71s-.17-.52-.51-.72c-.35-.2-.8-.3-1.24-.3s-.9.1-1.24.3c-.35.2-.52.46-.52.72s.17.52.52.71c.34.2.79.3,1.24.3Z"/>
      <path class="cls-2" d="M29.85,40.18c-.42,0-.81.1-1.09.26-.23.13-.36.29-.36.45s.13.32.36.45c.57.32,1.62.32,2.18,0,.24-.13.36-.3.36-.45s-.13-.32-.36-.45c-.28-.17-.68-.26-1.09-.26h0ZM29.85,42.21c-.52,0-1.02-.12-1.4-.34-.43-.25-.67-.6-.67-.98s.23-.74.67-.99c.76-.43,2.03-.43,2.8,0,.43.24.67.59.67.98s-.25.74-.67.98c-.38.22-.88.34-1.4.34Z"/>
      <path class="cls-3" d="M31.61,1.34c-.03.56-.75.85-1.22.94-.64.12-1.54.03-2.03-.43-.15-.14-.25-.3-.27-.51v39.55c.02.41.45.7.79.83.7.26,1.75.22,2.36-.23.19-.15.36-.36.37-.6V1.34Z"/>
      <path class="cls-2" d="M28.4,2.27v38.63c0,.22.3.43.59.54.59.22,1.53.22,2.07-.19.15-.11.24-.24.24-.36V2.26c-.26.17-.57.27-.86.32-.63.12-1.46.05-2.04-.31h0ZM29.86,42.19c-.4,0-.78-.07-1.08-.18-.22-.09-.97-.42-.99-1.1V1.34c0-.17.13-.31.29-.31.18,0,.31.12.32.3,0,.06.03.17.16.3.4.37,1.2.46,1.77.35.32-.05.94-.27.96-.65.01-.17.14-.3.3-.3h0c.17,0,.3.15.3.31v39.55c-.01.32-.18.62-.49.84-.43.32-1.01.45-1.57.45Z"/>
      <path class="cls-3" d="M17.83,6.62c2.89-3.19,7.19-6.16,11.28-4.91v20.12c-2.21-.64-4.59.16-6.49,1.3-2.66,1.6-4.91,4.15-6.55,6.71-1.77,2.75-4.81,5.93-8.18,7.4-2.43,1.05-4.8,1.09-7.2-.21-.41-.21-.38-.24-.38-.71v-19.6c2.04,1.18,4.22,1.23,5.97.78,2.93-.74,5.43-2.96,7.58-5.61,1.53-1.87,2.75-3.93,3.97-5.28Z"/>
      <path class="cls-2" d="M.62,17.23v19.09c0,.18,0,.3.01.32.02.03.16.09.21.12,2.23,1.19,4.49,1.26,6.94.19,3.44-1.49,6.4-4.74,8.04-7.28,1.9-2.95,4.26-5.37,6.65-6.8,2.22-1.34,4.46-1.85,6.35-1.44V1.94c-4.57-1.23-9.03,2.99-10.75,4.88h0c-.64.7-1.29,1.62-1.99,2.61-.61.88-1.25,1.78-1.96,2.66-2.59,3.17-5.12,5.04-7.75,5.71-1.97.5-3.99.3-5.75-.57h0ZM4.41,38.33c-1.32,0-2.6-.34-3.87-1.02-.5-.27-.55-.42-.55-.92v-19.67c0-.1.06-.21.16-.26.1-.06.21-.06.3,0,1.72.99,3.76,1.25,5.76.75,2.48-.63,4.91-2.43,7.41-5.5.71-.86,1.33-1.75,1.95-2.63.7-.99,1.37-1.94,2.04-2.67h0c1.83-2.01,6.61-6.52,11.59-5,.13.04.22.17.22.3v20.12c0,.1-.04.18-.12.24-.08.06-.17.08-.27.05-2.43-.71-4.96.5-6.25,1.28-2.32,1.39-4.61,3.74-6.45,6.61-1.68,2.61-4.75,5.95-8.32,7.51-1.23.54-2.43.81-3.6.81Z"/>
      <path class="cls-4" d="M24.6,15.68s-.04.02-.06.02c-.63.24-1.28.57-1.92.96-.9.54-1.81,1.22-2.69,2.03-.02.02-.03.03-.05.04l-.23.22v-6.45l.23-.22s.03-.03.05-.05c.88-.81,1.78-1.49,2.69-2.02.64-.39,1.29-.71,1.92-.96.02,0,.04,0,.06-.02l.06-.03v6.46l-.06.03Z"/>
      <path class="cls-2" d="M19.96,12.63v5.62c.84-.75,1.67-1.36,2.49-1.86.63-.38,1.28-.69,1.9-.95v-5.79c-.51.21-1.04.49-1.58.81-.89.53-1.77,1.21-2.63,2,0,0-.05.04-.06.05l-.12.11h0ZM19.66,19.26s-.09,0-.12-.03c-.11-.05-.19-.16-.19-.29v-6.45c0-.09.04-.17.11-.23l.23-.22c.95-.87,1.86-1.57,2.78-2.12.67-.4,1.33-.72,1.98-.97.1-.04.26-.05.34.02.09.06.2.13.2.23v6.46c0,.13-.09.24-.2.29l-.18-.26.12.28s-.08.03-.1.03c-.59.23-1.22.54-1.85.92-.89.53-1.77,1.2-2.63,1.99,0,0-.05.05-.06.05l-.21.21c-.05.06-.13.09-.21.09Z"/>
      <path class="cls-1" d="M24.67,9.2c1.58-.58,3.1-.7,4.45-.31v6.46c-1.35-.39-2.87-.27-4.45.31v-6.46Z"/>
      <path class="cls-2" d="M24.98,9.42v5.81c1.35-.43,2.66-.52,3.83-.27v-5.82c-1.16-.29-2.47-.18-3.83.29h0ZM24.67,15.96c-.06,0-.12-.02-.18-.05-.08-.06-.13-.15-.13-.25v-6.46c0-.13.08-.24.2-.29,1.65-.61,3.26-.72,4.64-.32.13.04.22.17.22.3v6.46c0,.1-.04.19-.12.24-.08.06-.17.08-.27.05-1.25-.36-2.73-.26-4.25.3-.04.02-.08.02-.11.02Z"/>
      <path class="cls-1" d="M24.6,22.17s-.04.01-.06.02c-.63.24-1.28.56-1.92.95-.9.54-1.81,1.23-2.69,2.04-.02.02-.03.03-.05.04l-.23.22v-6.46l.23-.22s.03-.03.05-.04c.88-.81,1.78-1.48,2.69-2.03.64-.38,1.29-.7,1.92-.95.02,0,.04,0,.06-.02l.06-.03v6.46l-.06.03Z"/>
      <path class="cls-2" d="M19.96,19.11v5.61c.84-.75,1.67-1.36,2.49-1.85.63-.38,1.27-.7,1.9-.95v-5.79c-.51.21-1.05.49-1.58.81-.89.53-1.77,1.2-2.63,1.99,0,.01-.05.05-.06.05l-.12.12h0ZM19.66,25.74s-.09,0-.12-.03c-.11-.05-.19-.16-.19-.29v-6.46c0-.08.04-.17.11-.22l.23-.22c.94-.87,1.86-1.56,2.78-2.12.66-.4,1.33-.72,1.98-.97.09-.04.26-.04.34,0,.09.06.2.13.2.23v6.46c0,.12-.08.24-.2.29l-.18-.26.12.28s-.08.03-.09.04c-.6.22-1.22.54-1.85.92-.89.53-1.77,1.2-2.63,1.99,0,0-.05.05-.06.05l-.21.21c-.05.05-.13.09-.21.09Z"/>
      <path class="cls-4" d="M24.67,15.68c1.58-.58,3.1-.7,4.45-.31v6.46c-1.35-.39-2.87-.27-4.45.31v-6.46Z"/>
      <path class="cls-2" d="M24.98,15.9v5.8c1.35-.43,2.66-.52,3.83-.28v-5.82c-1.15-.27-2.47-.17-3.83.3h0ZM24.67,22.45c-.06,0-.12-.02-.18-.05-.08-.06-.13-.16-.13-.25v-6.46c0-.13.08-.24.2-.29,1.66-.61,3.26-.72,4.64-.32.13.03.22.16.22.3v6.46c0,.1-.04.18-.12.24-.08.06-.17.08-.27.05-1.25-.37-2.72-.26-4.25.3-.04,0-.08.02-.11.02Z"/>
      <path class="cls-1" d="M24.67,9.2V2.74l-.06.02s-.04.02-.06.03c-.63.24-1.28.56-1.92.95-.9.54-1.81,1.23-2.69,2.03-.02.02-.03.03-.05.04l-.23.22v6.46l.23-.22s.03-.03.05-.05c.88-.81,1.78-1.49,2.69-2.02.64-.39,1.29-.71,1.92-.96.02,0,.04,0,.06-.02l.06-.03Z"/>
      <path class="cls-2" d="M24.67,9.2h0,0ZM19.96,6.17v5.62c.84-.75,1.67-1.35,2.49-1.86.64-.38,1.28-.69,1.9-.94V3.19c-.51.22-1.05.49-1.58.81-.89.54-1.77,1.21-2.63,2l-.18.17h0ZM19.66,12.8s-.09,0-.12-.03c-.11-.04-.19-.16-.19-.28v-6.46c0-.09.04-.17.11-.23l.23-.22c.94-.86,1.86-1.56,2.78-2.11.66-.4,1.33-.73,1.98-.98.09-.04.26-.05.34,0,.09.05.2.13.2.23v6.46c0,.13-.09.24-.2.3l-.07.02s-.07.03-.08.03c-.59.22-1.22.53-1.85.91-.89.53-1.77,1.21-2.63,2,0,0-.05.04-.06.05l-.21.2c-.05.06-.13.09-.21.09Z"/>
      <path class="cls-1" d="M10.07,29.56c-.4.26-.8.51-1.2.72-1.1.59-2.17.98-3.22,1.17-.03.01-.04.01-.07.01-.18.03-.35.06-.52.08v-6.46c.17-.02.35-.04.52-.07.03,0,.04,0,.07-.02,1.04-.18,2.12-.58,3.22-1.17.4-.22.8-.45,1.2-.72v6.46Z"/>
      <path class="cls-2" d="M10.07,29.56h.01-.01ZM5.37,25.36v5.83c.06,0,.11-.02.17-.03,1.07-.2,2.12-.58,3.19-1.15.35-.19.7-.4,1.04-.63v-5.72c-.25.15-.5.3-.75.42-1.12.61-2.23,1.02-3.31,1.21-.02,0-.09.02-.11.02-.07.02-.15.03-.23.04h0ZM5.07,31.84c-.08,0-.15-.03-.21-.08-.06-.05-.11-.14-.11-.23v-6.46c0-.16.12-.29.28-.31.17-.02.34-.04.5-.07,1.08-.2,2.13-.58,3.19-1.16.39-.21.79-.45,1.18-.71.09-.06.21-.07.31-.01.09.05.16.16.16.27v6.46c0,.1-.05.2-.14.25-.41.27-.83.52-1.23.74-1.13.61-2.24,1.01-3.31,1.21-.02,0-.09.02-.11.02-.15.03-.33.05-.5.07h-.03Z"/>
      <path class="cls-4" d="M15.09,24.75c-1.4,1.81-2.9,3.28-4.43,4.4-.02.02-.05.03-.06.05-.18.13-.35.24-.52.36v-6.46c.18-.11.35-.23.52-.36.02-.02.04-.03.06-.05,1.53-1.11,3.03-2.59,4.43-4.39v6.45Z"/>
      <path class="cls-2" d="M10.41,28.94l.24.21-.18-.25c1.52-1.11,2.97-2.54,4.3-4.25v-5.47c-1.23,1.49-2.55,2.76-3.93,3.76l-.08.05c-.12.09-.25.18-.37.27v5.7s.02-.02.03-.03h0ZM10.07,29.86c-.05,0-.09,0-.15-.03-.09-.05-.16-.16-.16-.27v-6.46c0-.11.05-.2.14-.26.16-.11.34-.23.5-.35l.24.2-.18-.24c1.55-1.13,3.02-2.59,4.37-4.34.08-.11.22-.15.34-.11.12.04.21.16.21.3v6.45c0,.07-.03.14-.06.19-1.39,1.79-2.9,3.29-4.49,4.45l-.24-.2.17.25c-.17.13-.35.25-.52.36-.05.04-.11.05-.18.05Z"/>
      <path class="cls-1" d="M19.66,18.94c-1.27,1.22-2.49,2.69-3.59,4.41-.35.54-.6.89-.98,1.39v-6.45c.38-.5.63-.86.98-1.4,1.1-1.72,2.32-3.2,3.59-4.41v6.45Z"/>
      <path class="cls-2" d="M19.66,18.94h0,0ZM15.39,18.4v5.42c.14-.19.27-.39.42-.63,1.07-1.66,2.26-3.13,3.54-4.38v-5.58c-1.08,1.11-2.09,2.4-3.02,3.83-.33.5-.57.85-.94,1.34h0ZM15.09,25.06s-.07,0-.11-.02c-.12-.04-.21-.17-.21-.3v-6.45c0-.07.03-.14.07-.19.39-.51.63-.86.96-1.37,1.1-1.7,2.31-3.21,3.63-4.47.09-.09.23-.11.34-.06.11.05.18.16.18.29v6.45c0,.09-.03.17-.09.23-1.29,1.23-2.48,2.69-3.54,4.35-.35.54-.6.89-1,1.42-.06.08-.15.12-.24.12Z"/>
      <path class="cls-1" d="M5.07,25.08v-6.46c-1.54.17-2.6-.04-3.82-.62v6.15c.01.13.05.23.14.29,1.09.58,2.35.79,3.68.64Z"/>
      <path class="cls-2" d="M1.56,18.48v5.65c.92.54,2.01.75,3.19.67v-5.84c-1.2.1-2.16-.04-3.19-.48h0ZM5.07,25.08h0,0ZM4.26,25.44c-1.1,0-2.1-.24-3.02-.73-.18-.11-.3-.3-.3-.56v-6.15c0-.11.05-.21.15-.26.09-.06.2-.06.29-.02,1.2.58,2.22.75,3.64.59.08,0,.17.02.23.08.07.06.1.14.1.23v6.46c0,.15-.11.29-.27.31-.29.03-.57.04-.84.04Z"/>
      <path class="cls-4" d="M5.07,25.08v-6.46c.17-.02.35-.04.52-.07.03,0,.04,0,.07,0,1.04-.19,2.12-.59,3.22-1.17.4-.22.8-.46,1.2-.73v6.46c-.4.27-.8.51-1.2.72-1.1.59-2.17.99-3.22,1.17-.03,0-.04.02-.07.02-.18.03-.35.05-.52.07Z"/>
      <path class="cls-2" d="M5.37,18.9v5.83c.06-.01.11-.02.17-.03,1.08-.2,2.13-.58,3.19-1.16.35-.18.7-.39,1.04-.62v-5.73c-.25.16-.5.3-.75.44-1.13.6-2.24,1.01-3.31,1.21,0,0-.09,0-.09,0-.07.02-.16.03-.24.04h0ZM5.07,25.39c-.08,0-.15-.03-.21-.08-.06-.06-.11-.15-.11-.23v-6.46c0-.16.12-.29.28-.3.17-.02.34-.04.5-.07,1.07-.19,2.12-.57,3.19-1.15.39-.21.79-.45,1.18-.7.09-.07.21-.07.31-.02.09.05.16.15.16.27v6.46c0,.1-.05.2-.14.25-.41.28-.83.52-1.23.74-1.12.61-2.23,1.02-3.31,1.21-.02,0-.09.02-.11.02-.15.03-.33.05-.5.08h-.03Z"/>
      <path class="cls-4" d="M15.09,18.3v-6.46c.38-.51.63-.86.98-1.39,1.1-1.72,2.32-3.21,3.59-4.41v6.46c-1.27,1.21-2.49,2.69-3.59,4.41-.35.54-.6.9-.98,1.4Z"/>
      <path class="cls-2" d="M15.39,11.95v5.42c.14-.19.27-.39.42-.63,1.07-1.66,2.26-3.13,3.54-4.37v-5.59c-1.08,1.12-2.1,2.41-3.02,3.84-.33.51-.57.85-.94,1.33h0ZM15.09,18.6s-.07,0-.11-.02c-.12-.04-.21-.15-.21-.28v-6.46c0-.07.03-.14.07-.19.38-.5.63-.85.96-1.37,1.1-1.7,2.31-3.2,3.63-4.47.09-.08.23-.11.34-.06.11.05.18.16.18.29v6.46c0,.08-.03.16-.09.22-1.29,1.23-2.48,2.69-3.54,4.35-.35.54-.6.9-1,1.41-.06.08-.15.12-.24.12Z"/>
      <path class="cls-4" d="M24.67,9.2V2.74c1.58-.58,3.1-.7,4.45-.3v6.45c-1.35-.39-2.87-.27-4.45.31Z"/>
      <path class="cls-2" d="M24.98,2.96v5.81c1.35-.43,2.66-.52,3.83-.27V2.67c-1.16-.28-2.47-.18-3.83.28h0ZM24.67,9.51c-.06,0-.12-.02-.18-.06-.08-.05-.13-.15-.13-.25V2.74c0-.13.08-.24.2-.29,1.65-.61,3.26-.72,4.64-.31.13.03.22.15.22.3v6.45c0,.1-.04.19-.12.25-.08.05-.17.07-.27.04-1.25-.36-2.73-.25-4.25.3-.04.02-.08.03-.11.03Z"/>
      <path class="cls-1" d="M5.07,38.02c-1.33.14-2.58-.07-3.68-.65-.09-.04-.13-.16-.14-.29v-6.42c.01.11.06.21.14.25,1.09.59,2.35.79,3.68.65v6.46Z"/>
      <path class="cls-2" d="M1.56,31.35v5.73c.92.53,2.01.75,3.19.66v-5.83c-1.15.07-2.22-.11-3.19-.55h0ZM5.07,38.02h0,0ZM4.26,38.37c-1.1,0-2.1-.24-3.02-.73-.18-.1-.3-.3-.3-.55v-6.42c0-.17.13-.31.3-.32.13-.02.3.11.32.28,1,.56,2.17.77,3.47.63.08,0,.17.02.23.07.07.06.1.15.1.23v6.46c0,.16-.11.29-.27.31-.29.02-.57.04-.84.04Z"/>
      <path class="cls-4" d="M19.66,25.43c-1.27,1.22-2.49,2.7-3.59,4.42-.35.54-.6.89-.98,1.39v-6.46c.38-.5.63-.85.98-1.39,1.1-1.72,2.32-3.2,3.59-4.42v6.46Z"/>
      <path class="cls-2" d="M19.66,25.43h0,0ZM15.39,24.88v5.42c.14-.19.27-.39.42-.62,1.07-1.66,2.26-3.14,3.54-4.38v-5.59c-1.08,1.12-2.09,2.41-3.02,3.84-.33.5-.57.85-.94,1.33h0ZM15.09,31.54s-.07,0-.11-.02c-.12-.03-.21-.16-.21-.29v-6.46c0-.07.03-.13.07-.18.39-.51.63-.86.96-1.37,1.1-1.71,2.31-3.21,3.63-4.47.09-.09.23-.12.34-.06.11.04.18.16.18.28v6.46c0,.09-.03.17-.09.23-1.29,1.22-2.48,2.69-3.54,4.36-.35.53-.6.89-1,1.41-.06.07-.15.12-.24.12Z"/>
      <path class="cls-4" d="M5.07,31.54c-1.33.15-2.58-.06-3.68-.65-.09-.04-.13-.15-.14-.28v-6.43c.01.12.06.22.14.26,1.09.58,2.35.79,3.68.64v6.46Z"/>
      <path class="cls-2" d="M1.56,24.86v5.73c.92.53,2.01.75,3.19.67v-5.84c-1.15.08-2.22-.11-3.19-.56h0ZM5.07,31.54h0,0ZM4.26,31.89c-1.1,0-2.1-.25-3.02-.73-.18-.1-.3-.3-.3-.56v-6.41c0-.17.13-.31.3-.32.13,0,.3.1.32.28.99.55,2.17.76,3.47.62.08,0,.17.02.23.08.07.06.1.14.1.23v6.46c0,.15-.11.29-.27.3-.29.03-.57.05-.84.05Z"/>
      <path class="cls-1" d="M15.09,18.3v-6.46c-1.4,1.8-2.9,3.28-4.43,4.39-.02.02-.05.04-.06.05-.18.12-.35.24-.52.36v6.46c.18-.11.35-.23.52-.36.02-.02.04-.03.06-.05,1.53-1.11,3.03-2.59,4.43-4.39Z"/>
      <path class="cls-2" d="M10.41,22.49l.24.2-.18-.24c1.52-1.11,2.97-2.55,4.3-4.26v-5.47c-1.23,1.49-2.55,2.76-3.93,3.76-.02.02-.05.03-.08.06-.12.09-.25.17-.37.26v5.7s.02-.01.03-.02h0ZM10.07,23.4c-.05,0-.09,0-.15-.03-.09-.05-.16-.15-.16-.27v-6.46c0-.1.05-.2.14-.25.16-.11.34-.24.5-.36l.24.2-.18-.24c1.55-1.13,3.02-2.59,4.37-4.34.08-.11.22-.15.34-.11.12.04.21.17.21.3v6.46c0,.06-.03.13-.06.18-1.39,1.8-2.9,3.3-4.49,4.46l-.08.05c-.17.12-.34.24-.51.36-.05.03-.11.05-.18.05Z"/>
      <path class="cls-4" d="M10.07,36.03c-.4.27-.8.52-1.2.73-1.1.58-2.17.98-3.22,1.17-.03.01-.04.01-.07.01-.18.03-.35.05-.52.08v-6.46c.17-.02.35-.04.52-.08.03,0,.04,0,.07-.01,1.04-.19,2.12-.58,3.22-1.17.4-.22.8-.46,1.2-.72v6.45Z"/>
      <path class="cls-2" d="M10.07,36.03h.01-.01ZM5.37,31.84v5.83c.06,0,.11-.02.17-.02,1.07-.19,2.12-.58,3.19-1.16.34-.18.7-.39,1.04-.62v-5.73c-.25.16-.5.31-.75.43-1.12.61-2.23,1.01-3.31,1.21,0,0-.09.02-.09.02-.07,0-.16.03-.24.04h0ZM5.07,38.33c-.08,0-.15-.03-.21-.08-.06-.06-.11-.14-.11-.23v-6.46c0-.15.12-.28.28-.3.17-.02.34-.04.5-.08,1.08-.19,2.13-.57,3.19-1.15.39-.21.79-.45,1.18-.71.09-.06.21-.07.31-.02.09.05.16.16.16.28v6.45c0,.11-.05.2-.14.26-.42.27-.83.52-1.23.74-1.13.61-2.24,1.01-3.31,1.21,0,0-.09.01-.09.01-.16.03-.34.06-.51.08h-.03Z"/>
      <path class="cls-1" d="M15.09,31.23c-1.4,1.8-2.9,3.28-4.43,4.39-.02.02-.05.03-.06.05-.18.12-.35.24-.52.35v-6.45c.18-.12.35-.24.52-.36.02,0,.04-.03.06-.04,1.53-1.11,3.03-2.59,4.43-4.4v6.46Z"/>
      <path class="cls-2" d="M10.41,35.42l.24.2-.18-.24c1.52-1.11,2.97-2.54,4.3-4.25v-5.48c-1.23,1.49-2.55,2.75-3.93,3.76l-.24-.2.17.25c-.12.1-.25.18-.38.27v5.71s.02-.02.03-.03h0ZM10.07,36.34c-.05,0-.09-.02-.15-.04-.09-.05-.16-.16-.16-.27v-6.45c0-.1.05-.2.13-.26.17-.11.35-.24.51-.36l.24.21-.18-.25c1.55-1.12,3.02-2.58,4.37-4.33.08-.1.22-.15.34-.1.12.04.21.16.21.28v6.46c0,.07-.03.13-.06.19-1.39,1.79-2.9,3.29-4.49,4.45-.02.02-.05.04-.08.06-.17.11-.34.24-.51.36-.05.03-.11.05-.18.05Z"/>
      <path class="cls-1" d="M29.85,2.33c.44,0,.9-.11,1.24-.3.34-.2.51-.46.51-.72s-.17-.52-.51-.72c-.35-.19-.8-.29-1.24-.29s-.9.1-1.24.29c-.35.2-.52.46-.52.72s.17.52.52.72c.34.19.79.3,1.24.3Z"/>
      <path class="cls-2" d="M29.85.61c-.41,0-.81.09-1.09.25-.23.13-.36.3-.36.45s.13.32.36.45c.57.32,1.62.32,2.18,0,.24-.13.36-.3.36-.45s-.13-.32-.36-.45c-.28-.17-.68-.25-1.09-.25h0ZM29.85,2.64c-.52,0-1.02-.12-1.4-.34-.43-.24-.67-.6-.67-.98s.23-.74.67-.98c.76-.45,2.03-.45,2.8-.01.43.25.67.61.67.99s-.24.74-.67.98c-.38.22-.88.34-1.4.34Z"/>
      <path class="cls-2" d="M1.25,18.31c-.09,0-.18-.04-.24-.12l-.95-1.29c-.1-.13-.07-.33.07-.43.14-.1.33-.07.42.06l.95,1.29c.1.13.07.33-.07.43-.05.04-.11.06-.18.06Z"/>
    </g>
  </g>
</svg>