<?xml version="1.0" encoding="UTF-8"?>
<svg id="Layer_2" data-name="Layer 2" xmlns="http://www.w3.org/2000/svg" viewBox="0 0 28.93 42.92" fill="currentColor">
  <defs>
    <style>
      .cls-1 {
        fill: #fff;
      }

      .cls-1, .cls-2, .cls-3, .cls-4 {
        fill-rule: evenodd;
      }

      .cls-2 {
        fill: #1a87c7;
      }

      .cls-3 {
        fill: #bdedf8;
      }

      .cls-4 {
        fill: #66ceef;
      }
    </style>
  </defs>
  <g id="_Layer_" data-name="&amp;lt;Layer&amp;gt;">
    <g>
      <path class="cls-3" d="M18.89,28.21c.26-.14.47-.21.76-.09h.03s5.84,3.38,5.84,3.38c-.24-.14-.55-.03-.79.09-4.61,2.66-9.22,5.33-13.86,8-.42.28-.68.62-.89,1.1-.18.45-.29,1.09-.1,1.58.08.13.1.18.24.27l-5.74-3.31c-.21-.12-.29-.17-.39-.43-.13-.49-.05-1.03.13-1.49.24-.47.47-.81.92-1.1,4.64-2.66,9.25-5.33,13.86-8Z"/>
      <path class="cls-2" d="M19.05,28.48l-13.86,8c-.34.22-.58.5-.79.96-.18.42-.21.89-.13,1.29q.08.13.26.23l4.93,2.86c-.03-.46.08-.91.24-1.25.26-.59.58-.94,1.02-1.23l13.86-8-5.06-2.92c-.13-.06-.24-.04-.47.08h0ZM10.11,42.84c-.05,0-.11,0-.16-.04l-5.74-3.3c-.24-.14-.39-.24-.52-.59-.13-.54-.08-1.14.13-1.71.29-.59.58-.95,1.05-1.23l13.86-8.01h.03c.26-.15.6-.28,1.02-.09t.08.03h0l5.79,3.35s.03,0,.03.02c.13.09.18.28.1.42-.08.15-.29.2-.42.11h0c-.1-.05-.26-.03-.47.09l-13.86,8c-.34.22-.55.49-.79.96-.16.37-.24.95-.08,1.34.03.06.03.07.13.13.13.09.16.28.08.42-.05.09-.16.14-.26.14Z"/>
      <path class="cls-4" d="M10.38,40.03c-.18.22-.34.51-.45.78-.18.48-.31,1.38.18,1.72l-5.82-3.35c-.18-.11-.24-.2-.31-.4-.08-.32-.05-.74,0-1.07.1-.42.26-.71.52-1.05l5.87,3.36Z"/>
      <path class="cls-2" d="M4.61,37.08c-.16.22-.26.43-.34.72-.05.31-.05.67.03.92.03.11.05.14.16.2l5,2.88c-.03-.39.08-.81.16-1.09.08-.18.18-.39.31-.59l-5.32-3.05h0ZM10.11,42.84c-.05,0-.11,0-.16-.04l-5.79-3.35c-.29-.15-.37-.3-.47-.55-.1-.36-.1-.81-.03-1.24.13-.48.31-.81.6-1.18.11-.12.26-.16.39-.08l5.87,3.36c.08.04.13.12.16.22,0,.09-.03.18-.08.25-.13.17-.29.41-.42.7-.13.42-.21,1.14.11,1.35.13.09.16.28.08.42-.05.09-.16.14-.26.14Z"/>
      <path class="cls-1" d="M24.73,31.59c.63-.36,1.1-.07,1.1.63v.32c0,.7-.47,1.56-1.1,1.91l-13.86,8c-.37.22-.68.19-.89-.03-.31-.32-.26-1.26.08-1.92.18-.38.5-.73.81-.92,12.52-7.22,1.15-.67,13.86-8Z"/>
      <path class="cls-2" d="M24.89,31.85l-13.86,8c-.26.15-.52.44-.71.8-.31.6-.29,1.38-.11,1.57.16.17.45.02.52-.04l13.86-8c.5-.29.94-1.05.94-1.64v-.32c0-.22-.05-.38-.18-.45-.1-.06-.26-.03-.47.08h0ZM10.4,42.92c-.26,0-.47-.09-.65-.27-.45-.48-.34-1.58.03-2.28.23-.45.6-.83.97-1.05l13.86-8h0c.37-.23.79-.25,1.07-.08.32.17.47.53.47.98v.32c0,.81-.55,1.77-1.26,2.17l-13.86,8c-.21.12-.42.19-.63.19Z"/>
      <polygon class="cls-4" points="12.68 32.4 11.45 31.7 11.45 35.27 12.68 35.98 12.68 32.4"/>
      <path class="cls-2" d="M11.74,35.09l.63.36v-2.86l-.63-.36v2.86h0ZM12.68,36.29c-.08,0-.11,0-.16-.04l-1.23-.7c-.11-.06-.16-.16-.16-.27v-3.57c0-.11.05-.22.16-.27.08-.05.21-.05.31,0l1.21.71c.1.05.16.16.16.26v3.58c0,.1-.05.21-.16.26-.03.04-.08.04-.13.04Z"/>
      <polygon class="cls-1" points="18.5 29.04 12.68 32.4 12.68 35.98 18.5 32.61 18.5 29.04"/>
      <path class="cls-2" d="M12.97,32.58v2.86l5.21-3.01v-2.86l-5.21,3.01h0ZM12.68,36.29c-.08,0-.11-.02-.16-.04-.11-.05-.16-.16-.16-.26v-3.58c0-.11.05-.21.16-.26l5.82-3.37c.11-.05.21-.05.31,0,.1.06.16.17.16.27v3.57c0,.11-.05.21-.16.27l-5.84,3.36s-.08.04-.13.04Z"/>
      <path class="cls-4" d="M3.04,37.48l-2.36-1.35c-.39-.24-.31-.52-.37-.97v-18.82c.08-.98.42-1.81,1.26-2.4L24.92.45c.37-.17.52-.21.89-.02l2.33,1.35c-.37-.19-.5-.14-.86.03L3.9,15.28c-.81.59-1.18,1.38-1.23,2.4v18.84c.03.45.05.63.37.96Z"/>
      <path class="cls-2" d="M25.41.61c-.1,0-.18.03-.37.12L1.73,14.19c-.68.49-1.02,1.17-1.1,2.16v19.01c.03.33.03.4.21.5l1.55.89c-.03-.07-.03-.14-.03-.21v-18.86c.08-1.2.52-2.03,1.36-2.65L27.12,1.53l-1.47-.83c-.1-.06-.18-.09-.24-.09h0ZM3.04,37.79c-.05,0-.11-.02-.16-.05l-2.36-1.35c-.47-.28-.5-.67-.5-1.02l-.03-.2v-18.85c.11-1.19.55-2.05,1.39-2.65L24.76.19c.45-.2.68-.29,1.18-.03l2.36,1.36c.16.08.21.27.13.41-.11.15-.29.21-.42.13-.26-.13-.29-.12-.63.02L4.06,15.55c-.65.49-1.02,1.15-1.1,2.16v18.81c.05.4.05.51.29.76.1.1.13.28.03.4-.05.08-.16.12-.24.12Z"/>
      <path class="cls-4" d="M3.9,15.28L27.27,1.81c.68-.4,1.23.02,1.23.95v18.84c0,.92-.55,2-1.23,2.39L3.9,37.46c-.68.4-1.23-.03-1.23-.95v-18.84c0-.92.55-2,1.23-2.4Z"/>
      <path class="cls-2" d="M3.9,15.28h.03-.03ZM27.75,1.96c-.11,0-.24.05-.34.1L4.06,15.55h0c-.58.35-1.1,1.32-1.1,2.13v18.84c0,.36.11.65.29.75.16.09.37.02.5-.07l23.37-13.47c.58-.35,1.1-1.32,1.1-2.13V2.75c0-.36-.11-.64-.29-.75-.05-.04-.13-.04-.18-.04h0ZM3.43,37.92c-.18,0-.34-.04-.5-.13-.37-.22-.58-.68-.58-1.28v-18.84c0-1.03.63-2.21,1.39-2.66L27.12,1.53c.39-.23.79-.25,1.13-.06.37.21.58.68.58,1.28v18.84c0,1.03-.63,2.21-1.41,2.66l-23.34,13.48c-.21.12-.45.19-.63.19Z"/>
      <path class="cls-3" d="M.81,14.72l2.36,1.35c.21-.35.42-.56.73-.79L27.27,1.81c.37-.17.5-.22.86-.03l-2.33-1.35c-.37-.19-.52-.15-.89.02L1.57,13.93c-.31.24-.55.44-.76.79Z"/>
      <path class="cls-2" d="M1.26,14.62l1.81,1.04c.18-.26.42-.44.66-.63L27.12,1.53l-1.47-.83c-.24-.13-.26-.11-.6.03L1.73,14.19c-.18.13-.34.26-.47.42h0ZM3.17,16.38c-.05,0-.1-.02-.16-.05l-2.36-1.35c-.05-.03-.1-.11-.13-.18-.03-.08-.03-.17.03-.24.24-.41.52-.65.84-.89L24.76.19c.45-.2.68-.29,1.18-.03l2.36,1.36c.16.08.21.27.13.41-.11.15-.29.21-.42.13-.26-.13-.29-.12-.63.02L4.06,15.55c-.26.18-.45.36-.63.68-.05.1-.16.16-.26.16Z"/>
      <path class="cls-2" d="M9.01,34.83c-.16,0-.29-.14-.29-.31V12.34c0-.17.13-.31.29-.31.18,0,.31.14.31.31v22.17c0,.18-.13.31-.31.31Z"/>
      <path class="cls-2" d="M15.59,31.03c-.18,0-.31-.14-.31-.3V8.54c0-.17.13-.3.31-.3s.32.13.32.3v22.18c0,.17-.13.3-.32.3Z"/>
      <path class="cls-2" d="M22.22,27.17c-.18,0-.31-.14-.31-.3V4.72c0-.17.13-.31.31-.31.16,0,.31.14.31.31v22.15c0,.17-.16.3-.31.3Z"/>
      <path class="cls-2" d="M2.67,31.22c-.11,0-.21-.06-.29-.16-.08-.15-.03-.34.13-.42l25.89-14.95c.13-.08.31-.04.42.11.08.15.03.34-.13.43L2.8,31.17s-.08.04-.13.04Z"/>
      <path class="cls-2" d="M2.67,23.4c-.11,0-.21-.06-.29-.16-.08-.15-.03-.34.13-.42L28.48,7.83c.13-.09.31-.03.42.12.08.15.03.34-.13.42L2.8,23.35s-.08.04-.13.04Z"/>
    </g>
  </g>
</svg>