<?xml version="1.0" encoding="UTF-8"?>
<svg id="Layer_2" data-name="Layer 2" xmlns="http://www.w3.org/2000/svg" viewBox="0 0 45.77 40.58" fill="currentColor">
  <defs>
    <style>
      .cls-1 {
        fill: #fff;
      }

      .cls-1, .cls-2, .cls-3, .cls-4 {
        fill-rule: evenodd;
      }

      .cls-2 {
        fill: #1a87c7;
      }

      .cls-3 {
        fill: #bdedf8;
      }

      .cls-4 {
        fill: #66ceef;
      }
    </style>
  </defs>
  <g id="_Layer_" data-name="&amp;lt;Layer&amp;gt;">
    <g>
      <path class="cls-4" d="M32.04,23.29l7.76-4.48c.42-.24.68-.69.68-1.15v-2.04l.31-.19.81.46v2.04c0,.63-.47,1.41-1,1.72l-7.91,4.56-.65-.91Z"/>
      <path class="cls-2" d="M32.48,23.38l.29.42,7.68-4.42c.45-.26.84-.94.84-1.46v-1.85l-.5-.29-.03.02v1.86c0,.57-.31,1.12-.81,1.41l-7.47,4.32h0ZM32.69,24.51c-.1,0-.18-.04-.24-.13l-.68-.91c-.05-.08-.08-.17-.05-.25.03-.08.08-.16.16-.2l7.76-4.49c.31-.17.52-.53.52-.88v-2.04c0-.1.05-.21.16-.26l.31-.19c.1-.06.21-.06.31,0l.79.46c.11.05.16.16.16.26v2.04c0,.75-.5,1.62-1.15,1.99l-7.89,4.56c-.05.03-.1.04-.16.04Z"/>
      <path class="cls-4" d="M41.89,16.44c.18-.11.37-.27.37-.49v-4.2c-.03.22-.16.36-.34.47-.52.31-1.42.3-1.89-.07-.13-.09-.24-.23-.24-.4v4.2c0,.24.21.42.39.51.5.25,1.2.24,1.68,0l.03-.02Z"/>
      <path class="cls-2" d="M41.73,16.18l.16.26-.16-.26c.13-.08.21-.16.21-.23v-3.38c-.55.26-1.31.25-1.83,0v3.39c0,.07.08.16.24.24.39.2,1,.19,1.39-.02h0ZM41.02,16.96c-.34,0-.68-.08-.97-.23-.37-.18-.58-.46-.58-.77v-4.2c0-.17.13-.31.29-.32.18-.03.31.13.34.3,0,.08.08.15.11.17.37.29,1.13.31,1.55.05.18-.11.18-.2.18-.23.03-.16.16-.29.31-.29h0c.18,0,.32.15.32.32v4.2c-.03.3-.21.57-.52.75h0l-.03.02c-.29.16-.65.23-1,.23Z"/>
      <path class="cls-4" d="M45.45,5.66l-2.96-1.71c-2.41,1.4-4.85,2.8-7.28,4.2v5.51c.03.22.05.37.24.5l2.96,1.71c-.18-.13-.21-.28-.21-.5v-5.51c2.41-1.4,4.85-2.8,7.26-4.2Z"/>
      <path class="cls-2" d="M35.52,8.33v5.33c0,.18.03.21.1.25l2.25,1.3v-5.35c0-.11.05-.21.16-.26l6.81-3.94-2.36-1.36-6.97,4.02h0ZM38.4,16.18c-.05,0-.11,0-.16-.04l-2.96-1.71c-.31-.22-.37-.49-.37-.75v-5.53c0-.1.05-.21.16-.27l7.26-4.2c.11-.05.24-.05.31,0l2.96,1.71c.11.05.16.16.16.27,0,.1-.05.21-.16.26l-7.13,4.12v5.33c.03.18.05.21.1.25.13.09.18.28.08.42-.05.09-.16.14-.26.14Z"/>
      <path class="cls-1" d="M38.95,15.82c2.17-1.25,3.56-2.07,5.74-3.31.21-.12.39-.34.55-.57h0c.13-.25.21-.52.21-.76v-5.51c-2.41,1.4-4.85,2.8-7.26,4.2v5.51c0,.25.08.42.21.5.16.08.34.07.55-.05Z"/>
      <path class="cls-2" d="M38.48,10.04v5.33c0,.14.05.22.08.23.05.02.13.02.24-.05h0l5.74-3.31c.16-.1.31-.26.45-.46.1-.21.18-.42.18-.61v-4.98l-6.68,3.85h0ZM38.61,16.23c-.13,0-.26-.03-.37-.09-.23-.13-.37-.42-.37-.76v-5.51c0-.11.05-.21.16-.26l7.28-4.21c.08-.05.21-.05.29,0,.11.05.16.16.16.27v5.51c0,.29-.08.62-.26.91-.18.3-.42.55-.65.69l-5.74,3.31c-.18.1-.34.15-.5.15Z"/>
      <path class="cls-3" d="M45.45,5.66l-2.96-1.71c-2.41,1.4-4.85,2.8-7.28,4.2l2.99,1.71c2.41-1.4,4.85-2.8,7.26-4.2Z"/>
      <path class="cls-2" d="M35.84,8.15l2.36,1.36,6.65-3.84-2.36-1.36-6.65,3.84h0ZM38.19,10.17c-.05,0-.1-.02-.16-.04l-2.96-1.71c-.1-.05-.16-.16-.16-.27,0-.1.05-.21.16-.27l7.26-4.2c.11-.05.24-.05.31,0l2.96,1.71c.11.05.16.16.16.27,0,.1-.05.21-.16.26l-7.26,4.2c-.05.03-.11.04-.16.04Z"/>
      <path class="cls-4" d="M43.07,3.36c.1-.06.21-.15.21-.27V.71c0,.12-.08.21-.18.27-.29.18-.79.18-1.05-.03-.08-.06-.13-.14-.16-.23v2.36c0,.13.13.23.24.29.29.14.68.14.94-.01h0Z"/>
      <path class="cls-2" d="M42.91,3.09l.16.26-.16-.26c.05-.03.08-.04.08-.05l-.03-1.68c-.24.07-.5.07-.76,0v1.71s.03,0,.08.02c.18.1.45.1.63,0h0ZM42.6,3.78c-.21,0-.42-.04-.6-.14-.26-.12-.39-.33-.39-.56V.72c0-.18.13-.3.29-.31.18,0,.31.13.31.3.18.12.55.13.73.02,0-.17.16-.3.34-.3.16,0,.31.12.31.29v2.37c0,.22-.13.41-.37.54h0c-.18.11-.42.16-.63.16Z"/>
      <path class="cls-4" d="M42.6,1.11c.6,0,.92-.43.47-.68-.42-.25-1.18-.08-1.18.28,0,.28.42.4.71.4Z"/>
      <path class="cls-2" d="M42.2.73s.21.07.39.07c.24,0,.37-.09.39-.12-.31-.14-.73-.03-.79.05h0ZM42.6,1.42c-.5,0-1-.25-1-.71,0-.22.11-.42.34-.55.37-.21.92-.21,1.28,0,.34.19.39.49.34.69-.08.35-.47.57-.97.57Z"/>
      <path class="cls-1" d="M42.6,6.05c.16,0,.34-.04.47-.12.16-.08.21-.18.21-.28,0-.11-.05-.21-.21-.29-.13-.08-.31-.11-.47-.11-.18,0-.37.03-.5.11-.13.08-.21.18-.21.29,0,.09.08.2.21.28.13.08.31.12.5.12Z"/>
      <path class="cls-2" d="M42.6,5.55c-.13,0-.26.03-.34.08.16.16.5.13.68.03-.1-.09-.21-.11-.34-.11h0ZM42.6,6.36c-.24,0-.47-.05-.65-.16-.21-.13-.34-.33-.34-.55,0-.23.13-.43.34-.56.37-.2.94-.2,1.28,0,.24.14.37.34.37.56s-.13.42-.37.55c-.16.11-.39.16-.63.16Z"/>
      <path class="cls-1" d="M43.07,5.93c.1-.06.21-.16.21-.28v-2.9c0,.14-.11.23-.21.29-.29.16-.79.15-1.05-.06-.05-.06-.1-.13-.13-.23v2.9c.03.14.16.24.26.3.26.12.66.12.92-.03h0Z"/>
      <path class="cls-2" d="M42.91,5.66l.16.27-.16-.27c.05-.03.08-.04.08-.04l-.03-2.22c-.24.06-.5.07-.76,0v2.25s.03,0,.08.03c.18.09.47.08.63-.02h0ZM42.6,6.36c-.21,0-.39-.04-.58-.12-.26-.12-.42-.34-.42-.57v-2.91c0-.17.13-.3.29-.3.16,0,.31.13.31.29.16.11.52.13.71.03.05-.03.08-.05.08-.05,0-.16.16-.28.32-.28.16.01.29.15.29.31v2.9c0,.23-.13.41-.37.54h0c-.18.12-.42.17-.63.17Z"/>
      <path class="cls-4" d="M38.77,5.85c.08-.06.18-.15.18-.27v-2.37c0,.12-.08.21-.18.27-.29.18-.79.17-1.05-.03-.08-.06-.13-.14-.16-.23v2.37c0,.13.13.23.24.29.29.14.68.14.94-.01h.03Z"/>
      <path class="cls-2" d="M38.61,5.59l.16.26-.16-.26s.05-.04.05-.05v-1.68c-.26.07-.52.07-.79,0v1.71s.03,0,.08.02c.18.1.47.1.66,0h0ZM38.27,6.27c-.21,0-.42-.04-.6-.14-.26-.13-.39-.33-.39-.56v-2.37c0-.17.13-.3.29-.3.21.02.31.13.31.3.18.12.55.13.73.02.03-.17.18-.31.34-.3.16,0,.31.12.31.29v2.37c0,.22-.13.41-.37.54h0c-.18.11-.42.15-.63.15Z"/>
      <path class="cls-4" d="M38.27,3.6c.63,0,.92-.43.5-.68-.45-.25-1.2-.08-1.2.28,0,.28.42.4.71.4Z"/>
      <path class="cls-2" d="M37.88,3.23s.21.07.39.07c.24,0,.37-.09.39-.12-.31-.13-.73-.03-.79.05h0ZM38.27,3.91c-.5,0-1-.25-1-.71,0-.22.11-.42.34-.55.37-.21.94-.21,1.28,0,.34.19.39.49.34.69-.08.34-.47.57-.97.57Z"/>
      <path class="cls-1" d="M38.27,8.54c.18,0,.37-.04.5-.12.13-.08.18-.18.18-.28,0-.1-.05-.21-.18-.29-.13-.08-.31-.11-.5-.11s-.37.03-.5.11c-.13.08-.21.18-.21.29,0,.1.08.2.21.28.13.08.31.12.5.12Z"/>
      <path class="cls-2" d="M38.27,8.05c-.13,0-.26.03-.34.08.16.16.5.13.68.03-.08-.08-.21-.11-.34-.11h0ZM38.27,8.85c-.24,0-.47-.05-.65-.16-.21-.13-.34-.33-.34-.55s.13-.43.34-.56c.37-.2.94-.2,1.28,0,.24.13.37.34.37.56s-.13.42-.37.55c-.16.11-.39.16-.63.16Z"/>
      <path class="cls-1" d="M38.77,8.42c.08-.06.18-.16.18-.28v-2.9c0,.14-.1.22-.21.29-.29.16-.79.15-1.05-.06-.05-.06-.11-.13-.13-.22v2.9c.03.14.16.24.26.3.26.12.65.12.92-.03h.03Z"/>
      <path class="cls-2" d="M38.61,8.15l.16.27-.16-.27s.05-.04.05-.04v-2.22c-.24.06-.52.07-.79,0v2.25s.03,0,.08.03c.18.08.47.08.66-.02h0ZM38.27,8.85c-.21,0-.39-.04-.58-.12-.26-.12-.42-.34-.42-.57v-2.91c0-.16.13-.3.29-.3.18.02.31.13.31.29.16.11.52.13.73.03l.05-.05c0-.16.13-.28.29-.28h.03c.16.01.29.15.29.31v2.9c0,.22-.13.41-.37.54h0v.02c-.18.1-.39.15-.63.15Z"/>
      <polygon class="cls-1" points="36.02 17.57 36.02 15.85 34.37 16.8 34.37 18.52 36.02 17.57"/>
      <path class="cls-2" d="M34.68,16.99v1.01l1.02-.59v-1.02l-1.02.6h0ZM34.37,18.83c-.05,0-.1-.02-.16-.04-.08-.05-.13-.16-.13-.27v-1.72c0-.11.05-.21.13-.27l1.65-.95c.11-.05.21-.05.31,0,.1.06.16.15.16.27v1.72c0,.11-.05.22-.16.27l-1.65.95c-.05.03-.11.04-.16.04Z"/>
      <path class="cls-4" d="M3.24,23.44c-.01.05-.02.1-.03.15l-.62.36c.07-.05.07-.09.08-.17,0-.37.04-.65.12-1.01.18-.63.43-1.04.99-1.4l1.5-.87.3.6c-1.06.55-2.15,1.17-2.35,2.34Z"/>
      <path class="cls-2" d="M5.16,20.93l-1.23.7c-.43.27-.66.59-.84,1.22h0c.4-.93,1.34-1.49,2.1-1.89l-.03-.03h0ZM3.24,23.44h0,0ZM2.6,24.26c-.1,0-.2-.05-.25-.14-.09-.11-.08-.28.02-.38.02-.41.05-.69.14-1.04.19-.66.45-1.17,1.12-1.59l1.51-.87c.07-.05.16-.05.24-.04.08.03.15.09.18.16l.31.6c.03.07.04.15.02.23-.03.08-.08.15-.15.18-1.06.54-2.03,1.11-2.2,2.12h0l-.03.14c0,.09-.07.18-.15.23l-.63.36s-.09.04-.15.04Z"/>
      <path class="cls-4" d="M11.21,23.22c-.81-1.43-2.91-3.57-4.59-2.65l-2.48,1.44c1.81-.95,3.93,1.38,4.74,2.94.73,1.4,1.42,4.01-.16,5,.5-.28,2.49-1.37,2.78-1.66,1.26-1.2.47-3.69-.29-5.06Z"/>
      <path class="cls-2" d="M5.55,21.53c1.46.32,2.88,1.88,3.61,3.26.58,1.14,1.07,2.88.66,4.17.63-.36,1.34-.77,1.47-.91,1.1-1.05.39-3.37-.34-4.68h-.03c-.71-1.29-2.67-3.35-4.16-2.53l-1.21.69h0ZM8.72,30.25c-.11,0-.21-.06-.26-.16-.08-.14-.05-.32.11-.42,1.34-.85.73-3.28.05-4.6-.86-1.61-2.8-3.6-4.34-2.81-.15.08-.33.03-.41-.12-.09-.15-.04-.33.11-.42l2.48-1.43c1.82-.99,4.07,1.07,5.01,2.76.71,1.27,1.7,4.04.24,5.43-.24.24-1.26.83-2.38,1.46l-.45.25c-.05.02-.1.04-.16.04Z"/>
      <path class="cls-4" d="M8.72,24.64c-.58-1.02-1.4-1.9-2.29-2.42-.89-.52-1.71-.57-2.29-.23h0c-.59.34-.96,1.06-.96,2.09s.37,2.18.96,3.2c.58,1.02,1.4,1.91,2.29,2.42.89.52,1.71.56,2.29.23.6-.34.94-1.06.94-2.1s-.34-2.18-.94-3.2h0Z"/>
      <path class="cls-2" d="M4.98,22.09c-.25,0-.48.06-.69.17-.51.31-.79.95-.79,1.83,0,.95.32,2.03.91,3.04.58,1.02,1.36,1.83,2.17,2.3.76.45,1.46.52,1.98.23.52-.3.81-.94.81-1.83,0-.95-.34-2.02-.92-3.04l.26-.16-.26.16c-.6-1.02-1.36-1.83-2.18-2.31-.46-.26-.91-.4-1.3-.4h0ZM7.88,30.46c-.5,0-1.05-.16-1.6-.49-.91-.53-1.77-1.43-2.41-2.54-.64-1.11-.99-2.3-.99-3.35,0-1.11.39-1.95,1.11-2.36.71-.41,1.63-.33,2.6.23.91.53,1.77,1.43,2.4,2.53.03.02.03.03.03.04h0c.6,1.07.97,2.26.97,3.31,0,1.11-.39,1.96-1.1,2.37-.31.17-.63.26-1,.26Z"/>
      <path class="cls-4" d="M20.46,33.58l-.6.36c.05-.06.08-.09.08-.18,0-.51.05-.87.24-1.35.21-.49.39-.78.86-1.07l2.38-1.37v.83l-2.04,1.17c-.58.33-.84.98-.92,1.62Z"/>
      <path class="cls-2" d="M23.1,30.49l-1.91,1.11c-.37.23-.55.45-.76.92,0,.04-.03.09-.03.12.18-.42.47-.75.84-.96l1.86-1.08v-.12h0ZM19.85,34.25c-.11,0-.21-.04-.26-.13-.08-.12-.08-.28.03-.38.03-.51.05-.9.24-1.44.24-.5.47-.88,1-1.23l2.41-1.38c.08-.05.21-.05.31,0,.08.05.16.16.16.27v.83c0,.11-.08.21-.16.27l-2.04,1.16c-.55.33-.71,1.02-.76,1.4-.03.1-.08.18-.16.24l-.6.35c-.05.03-.1.04-.16.04Z"/>
      <path class="cls-4" d="M28.45,33.17c-.76-1.42-2.91-3.56-4.58-2.64l-2.49,1.43c1.86-.95,4.01,1.44,4.79,3.04.71,1.38,1.34,3.93-.21,4.9.5-.28,2.49-1.37,2.8-1.66,1.23-1.2.47-3.69-.31-5.07Z"/>
      <path class="cls-2" d="M22.82,31.49c.08.02.16.04.26.07,1.39.45,2.75,2.02,3.38,3.29.5.97,1.05,2.73.63,4.06.63-.36,1.31-.76,1.44-.9,1.1-1.05.39-3.38-.34-4.68h0c-.55-1.03-1.76-2.3-2.91-2.63-.47-.15-.89-.12-1.26.09l-1.2.7h0ZM25.96,40.2c-.08,0-.18-.05-.26-.15-.08-.14-.03-.33.1-.42,1.34-.83.79-3.15.11-4.5-.6-1.2-1.83-2.61-3.01-2.99-.5-.16-.94-.13-1.36.09-.16.08-.34.02-.42-.13-.08-.14-.03-.33.13-.41l2.46-1.43c.52-.29,1.13-.34,1.76-.15,1.31.38,2.62,1.76,3.25,2.91.73,1.27,1.7,4.03.26,5.43-.26.24-1.28.83-2.41,1.46l-.45.25c-.05.02-.11.03-.16.03Z"/>
      <path class="cls-4" d="M25.96,34.6c-.58-1.02-1.39-1.9-2.28-2.42-.89-.52-1.7-.57-2.31-.24h0c-.58.35-.94,1.07-.94,2.1s.37,2.17.94,3.19c.6,1.02,1.41,1.9,2.31,2.43.89.51,1.7.56,2.28.23.6-.34.97-1.07.97-2.1s-.37-2.18-.97-3.2h0Z"/>
      <path class="cls-2" d="M22.24,32.05c-.26,0-.5.06-.71.17-.5.3-.79.95-.79,1.83,0,.95.31,2.02.92,3.04.58,1.01,1.34,1.83,2.17,2.3.76.45,1.47.52,1.99.23.5-.3.79-.95.79-1.83,0-.95-.34-2.02-.92-3.04l.26-.16-.26.16c-.58-1.02-1.36-1.83-2.17-2.31-.47-.27-.92-.4-1.28-.4h0ZM25.12,40.42c-.5,0-1.02-.16-1.6-.49-.92-.52-1.76-1.42-2.41-2.53-.63-1.11-.97-2.29-.97-3.35,0-1.11.37-1.95,1.1-2.36.71-.42,1.62-.33,2.59.23.92.52,1.76,1.43,2.38,2.53.03.02.03.03.03.05h0c.63,1.07.97,2.25.97,3.31,0,1.11-.39,1.95-1.1,2.37-.29.17-.63.25-1,.25Z"/>
      <path class="cls-1" d="M18.05,17.96l12.94-7.48,4.06,8.31c.13.32.26.62.55.79l6.42,3.7c.81.49.94.83.94,1.07v7.76l-12.94,7.48v-7.77c0-.27,0-.51-.63-.88l-6.73-3.89c-.31-.18-.42-.48-.58-.79-1.26-2.55-2.52-6.04-4.03-8.31Z"/>
      <path class="cls-2" d="M18.49,18.05c.92,1.48,1.76,3.37,2.57,5.21.45,1.02.86,2,1.31,2.87l.05.12c.11.24.21.43.39.54l6.71,3.89c.73.42.81.77.81,1.14v7.23l12.34-7.12v-7.59c0-.27-.45-.59-.81-.8l-6.39-3.7c-.37-.21-.5-.52-.65-.83l-.05-.1-3.9-8.01-12.37,7.14h0ZM30.02,39.9c-.05,0-.1-.01-.16-.04-.11-.05-.13-.16-.13-.26v-7.77c0-.2-.03-.33-.5-.62l-6.73-3.89c-.34-.2-.5-.5-.63-.8l-.05-.12c-.45-.88-.86-1.85-1.31-2.89-.86-1.93-1.73-3.92-2.73-5.39-.05-.07-.05-.15-.03-.23,0-.09.05-.16.13-.2l12.97-7.47c.05-.04.16-.06.24-.03.08.03.16.09.18.17l4.09,8.42c.13.25.21.44.39.55l6.42,3.69c.73.44,1.1.87,1.1,1.33v7.77c0,.11-.05.22-.16.27l-12.94,7.48c-.05.03-.11.04-.16.04Z"/>
      <polygon class="cls-1" points="42.96 24.35 42.96 32.11 30.02 39.59 30.02 31.82 42.96 24.35"/>
      <path class="cls-2" d="M30.33,32v7.05l12.34-7.12v-7.06l-12.34,7.13h0ZM30.02,39.9c-.05,0-.1-.01-.16-.04-.11-.05-.13-.16-.13-.26v-7.77c0-.1.03-.21.13-.26l12.97-7.48c.08-.05.21-.05.29,0,.11.06.16.15.16.27v7.76c0,.11-.05.22-.16.27l-12.94,7.48c-.05.03-.11.04-.16.04Z"/>
      <path class="cls-1" d="M29.99,9.5c.42.26.71.57.99.97l-12.94,7.48s-.92-.91-1.02-.97l-11.3-6.5s-.08-.03-.1-.03l.05-.03,12.75-7.36c.13-.07.16-.1.29-.03l11.29,6.47Z"/>
      <path class="cls-2" d="M6.25,10.44l10.93,6.27s.13.07.92.85l12.44-7.18c-.21-.26-.45-.45-.71-.62l-11.29-6.47s.08,0,.08-.01l-.21-.22.16.27-12.32,7.11h0ZM18.05,18.26c-.08,0-.16-.03-.21-.09-.42-.42-.89-.88-.97-.94l-11.31-6.48c-.13-.02-.23-.11-.26-.24-.03-.13.04-.26.16-.32l12.8-7.39c.18-.11.31-.17.58-.05l11.32,6.49h0c.42.26.76.58,1.1,1.06.05.07.08.16.05.24-.03.09-.08.16-.16.2l-12.94,7.47c-.05.03-.11.04-.16.04Z"/>
      <polygon class="cls-3" points=".3 18.65 .73 18.91 .73 20.34 .3 20.09 .3 18.65"/>
      <path class="cls-2" d="M.73,20.65c-.05,0-.1-.02-.16-.04l-.42-.24c-.1-.05-.15-.16-.15-.27v-1.44c0-.1.05-.21.15-.26.09-.06.21-.06.31,0l.43.24c.09.05.15.16.15.27v1.43c0,.11-.05.22-.15.27-.05.03-.11.04-.16.04Z"/>
      <polygon class="cls-3" points=".89 18.81 .64 18.68 .64 18.46 .3 18.65 .73 18.91 .89 18.81"/>
      <path class="cls-2" d="M.73,19.21c-.05,0-.1-.02-.16-.04l-.42-.24c-.1-.05-.15-.15-.15-.27,0-.1.05-.21.15-.26l.35-.2c.1-.05.21-.05.31,0,.09.05.15.16.15.27v.03l.08.05c.1.05.16.16.16.26,0,.11-.06.22-.16.27l-.15.09c-.05.03-.11.04-.16.04Z"/>
      <path class="cls-3" d="M5.72,10.48l11.3,6.5c1.78,1.02,4.06,7.24,5.06,9.28.16.31.26.61.58.79l6.73,3.89.03.02c.52.32.6.54.6.77v7.85c0,.18-.13.24-.29.16l-2.02-1.17c-.16-.09-.29-.3-.29-.48,0-1.19-.42-2.52-1.1-3.69v-.03c-.68-1.17-1.62-2.18-2.65-2.77-1.05-.6-1.97-.65-2.65-.26-.68.39-1.1,1.23-1.1,2.42,0,.18-.13.25-.29.17h0c-1.99-1.15-7.49-4.36-9.2-5.35-.1-.06-.18-.17-.23-.3-.05-.15-.03-.39-.05-.55-.08-1.08-.47-2.27-1.07-3.32-.71-1.16-1.63-2.18-2.65-2.78-1.03-.59-1.96-.65-2.64-.27-.68.39-1.11,1.22-1.11,2.41,0,.37-.38.1-.52,0-.4-.28-.76-.69-1.02-1.15-.3-.52-.5-1.11-.5-1.64v-4.28c0-.4.08-.75.3-1.01.46-.53,3.72-4.41,4.51-5.14.1-.1.13-.16.26-.09Z"/>
      <path class="cls-2" d="M5.59,10.71l.04.05s.08-.02.11-.03l-.12-.07.1-.18-.1.18-.15-.09.12.13-.03.05h0l.03-.04h0ZM22,30.78c.58,0,1.18.18,1.83.55,1.05.61,2.02,1.63,2.75,2.89.73,1.3,1.15,2.66,1.15,3.87,0,.07.05.18.1.21l1.89,1.07v-7.56s0-.05,0-.08c-.03-.1-.03-.24-.47-.52l-6.76-3.9c-.34-.2-.5-.5-.63-.8l-.05-.12c-.26-.5-.58-1.22-.94-2.07-1.07-2.53-2.73-6.35-3.98-7.09l-11.24-6.44c-.63.6-2.82,3.17-3.88,4.41-.29.33-.5.58-.59.7-.16.17-.23.43-.23.8v4.28c0,.45.17.99.44,1.48.26.45.58.81.93,1.05.02,0,.04.02.04.03.06-1.17.5-2.02,1.26-2.45.81-.46,1.85-.36,2.95.27,1.04.6,2.03,1.62,2.77,2.89.63,1.13,1.05,2.35,1.13,3.46v.16c0,.09,0,.24.03.3.03.07.08.12.11.14.81.47,2.46,1.44,4.19,2.44,1.83,1.06,3.75,2.16,4.82,2.8.05-1.17.5-2.04,1.26-2.49.34-.19.71-.29,1.13-.29h0ZM29.86,40.1c-.08,0-.18-.03-.26-.08l-2.04-1.18c-.26-.14-.45-.45-.45-.75,0-1.11-.37-2.36-1.05-3.54-.68-1.19-1.6-2.14-2.54-2.69-.92-.52-1.73-.62-2.33-.26-.63.35-.94,1.11-.94,2.15,0,.2-.11.37-.24.45-.16.09-.34.09-.52-.02-1.05-.62-3.14-1.83-5.11-2.97-1.68-.98-3.28-1.91-4.09-2.36-.16-.09-.29-.26-.37-.45-.05-.15-.05-.34-.05-.5l-.03-.13c-.05-1.02-.45-2.15-1.05-3.19-.68-1.17-1.57-2.12-2.52-2.67-.91-.52-1.73-.62-2.34-.27-.61.35-.95,1.1-.95,2.14,0,.29-.16.4-.24.45-.28.14-.59-.07-.75-.18-.42-.29-.83-.74-1.12-1.25-.34-.6-.53-1.23-.53-1.8v-4.28c0-.52.12-.91.37-1.21.1-.11.31-.36.59-.69,1.16-1.36,3.3-3.88,3.94-4.48.12-.11.31-.3.62-.12l11.32,6.49c1.44.83,3.09,4.62,4.27,7.37.37.84.68,1.56.92,2.04l.05.12c.13.28.21.43.39.54l6.71,3.89c.66.39.79.69.81,1.04v7.87c0,.19-.08.36-.24.45-.08.04-.16.06-.24.06Z"/>
      <path class="cls-4" d="M13.59,16.8l2.72,1.56c.21.13.42.33.58.57h0c.6.86,3.01,5.82,3.62,6.98.05.19-.03.32-.18.28-.03,0-.03-.02-.05-.03h0l-6.68-3.85c-.16-.1-.29-.3-.29-.49v-4.87c0-.18.13-.25.29-.16Z"/>
      <path class="cls-2" d="M13.59,16.8l-.16.27h0l.16-.27h0ZM13.62,17.18v4.66c0,.07.05.18.13.22l6.31,3.65c-.18-.37-.47-.94-.79-1.57-.94-1.88-2.25-4.44-2.65-5.02-.13-.21-.31-.37-.47-.48l-2.54-1.46h0ZM20.38,26.52s-.08,0-.11-.02c-.08-.02-.1-.03-.16-.07l-6.68-3.85c-.26-.14-.42-.46-.42-.75v-4.87c0-.2.08-.36.21-.45.16-.09.34-.08.52.02l2.73,1.57c.23.15.47.37.68.66.42.61,1.65,3.09,2.67,5.09.42.85.79,1.56.97,1.92,0,.03.03.05.03.08.05.21,0,.42-.13.54-.08.09-.18.13-.31.13Z"/>
      <path class="cls-4" d="M7.62,13.34l4.47,2.59c.16.1.31.33.31.52v5.11c0,.19-.16.27-.31.17l-4.47-2.58c-.17-.09-.3-.34-.3-.53v-5.11c0-.19.14-.26.3-.17Z"/>
      <path class="cls-2" d="M7.62,13.34l-.16.27h0l.16-.27h0ZM7.63,13.71v4.92c0,.09.09.22.14.26l4.32,2.49v-4.93c0-.08-.08-.22-.16-.25l-4.31-2.49h0ZM12.23,22.09c-.08,0-.18-.03-.29-.08l-4.48-2.59c-.26-.15-.45-.48-.45-.79v-5.11c0-.2.09-.36.24-.46.16-.09.34-.08.52.03h0l4.48,2.58c.26.16.47.5.47.79v5.11c0,.2-.11.37-.26.46-.08.04-.16.06-.24.06Z"/>
      <path class="cls-4" d="M6.09,12.67c.16.1.3.33.3.52v4.89c0,.19-.14.27-.3.17l-2.93-1.68c-.57-.33-.51-.78-.12-1.22l2.25-2.55c.32-.37.58-.25.8-.13Z"/>
      <path class="cls-2" d="M5.74,12.86c-.07,0-.13.04-.22.14l-2.25,2.55c-.16.18-.24.35-.22.47.02.09.11.19.26.28l2.76,1.6v-4.71c0-.08-.08-.22-.14-.25h0c-.09-.04-.15-.08-.2-.08h0ZM6.21,18.61c-.09,0-.19-.03-.29-.08l-2.93-1.7c-.4-.22-.52-.51-.56-.71-.03-.22,0-.56.37-.97l2.24-2.56c.5-.57,1-.29,1.18-.19.26.15.46.49.46.79v4.89c0,.21-.09.37-.24.46-.07.04-.15.06-.24.06Z"/>
      <path class="cls-2" d="M14.8,25.29c-.05,0-.1,0-.16-.04l-1.83-1.06c-.16-.09-.21-.27-.13-.42.1-.15.29-.2.45-.11l1.83,1.06c.13.09.18.28.11.42-.05.1-.16.16-.26.16Z"/>
      <path class="cls-2" d="M8.14,21.45c-.08,0-.13-.02-.16-.04l-1.85-1.07c-.15-.08-.2-.27-.12-.42.08-.15.27-.2.42-.11l1.83,1.06c.16.09.21.28.13.42-.05.1-.16.16-.26.16Z"/>
      <path class="cls-1" d="M30.02,39.59l12.94-7.48c0,.09,0,.13-.08.18l-12.94,7.47c.08-.05.08-.09.08-.18Z"/>
      <path class="cls-2" d="M29.94,40.08c-.11,0-.21-.05-.26-.14-.08-.12-.05-.29.05-.39.03-.09.08-.19.13-.23l12.97-7.47c.08-.06.21-.06.31,0,.1.07.16.17.13.29,0,.14-.03.27-.18.4l-12.99,7.5c-.05.03-.1.04-.16.04Z"/>
      <polygon class="cls-4" points="42.96 32.79 42.96 30.72 30.02 38.19 30.02 40.28 42.96 32.79"/>
      <path class="cls-2" d="M42.96,32.79h.03-.03ZM30.33,38.37v1.37l12.34-7.12v-1.37l-12.34,7.12h0ZM30.02,40.58c-.05,0-.1,0-.16-.04-.11-.05-.13-.16-.13-.26v-2.09c0-.12.03-.21.13-.27l12.97-7.47c.08-.05.21-.05.29,0,.11.05.16.15.16.27v2.08c0,.11-.05.22-.16.27l-12.94,7.47c-.05.03-.11.04-.16.04Z"/>
      <polygon class="cls-4" points="30.02 38.19 27.24 36.7 27.24 38.78 30.02 40.28 30.02 38.19"/>
      <path class="cls-2" d="M27.56,38.59l2.17,1.17v-1.39l-2.17-1.16v1.38h0ZM30.02,40.58c-.05,0-.1,0-.16-.04l-2.75-1.49c-.1-.05-.18-.16-.18-.27v-2.09c0-.11.08-.21.16-.27.1-.05.21-.05.31,0l2.78,1.49c.08.05.16.16.16.27v2.09c0,.1-.05.21-.16.26-.05.03-.11.04-.16.04Z"/>
      <path class="cls-2" d="M22.66,27.36c-.11,0-.21-.05-.26-.16-.08-.14-.05-.33.11-.42l12.97-7.48c.13-.09.31-.04.42.11.08.15.03.33-.13.42l-12.94,7.47c-.05.03-.11.04-.16.04Z"/>
      <polygon class="cls-4" points="19.64 18.64 30.7 12.26 34.16 19.19 23.1 25.57 19.64 18.64"/>
      <path class="cls-2" d="M20.06,18.77l3.17,6.37,10.51-6.07-3.17-6.38-10.51,6.07h0ZM23.1,25.87s-.05,0-.1,0c-.08-.03-.13-.08-.18-.16l-3.43-6.93c-.08-.15-.03-.33.13-.41l11.03-6.38c.08-.04.16-.05.26-.02.08.02.13.08.18.16l3.43,6.93c.08.15.03.33-.13.41l-11.03,6.38c-.05.03-.11.03-.16.03Z"/>
      <polygon class="cls-3" points="22.29 23.95 28.26 20.59 29.34 18.72 32.22 17.09 33.24 17.34 34.16 19.19 23.1 25.57 22.29 23.95"/>
      <path class="cls-2" d="M22.71,24.09l.52,1.05,10.51-6.07-.71-1.46-.76-.19-2.72,1.53-1,1.8s-.08.09-.13.11l-5.71,3.22h0ZM23.1,25.87s-.05,0-.1,0c-.08-.03-.13-.08-.18-.16l-.79-1.62c-.08-.15-.03-.32.13-.41l5.89-3.32,1-1.79s.08-.09.13-.11l2.88-1.64c.08-.04.16-.04.24-.03l.99.25c.11.03.16.08.21.17l.92,1.84c.08.15.03.33-.13.41l-11.03,6.38c-.05.03-.11.03-.16.03Z"/>
      <polygon class="cls-1" points="20.56 26.47 20.56 24.76 18.94 25.7 18.94 27.42 20.56 26.47"/>
      <path class="cls-2" d="M20.56,26.47h.03-.03ZM19.23,25.87v1.01l1.05-.59v-1.01l-1.05.59h0ZM18.94,27.73c-.05,0-.13,0-.16-.03-.11-.06-.16-.16-.16-.27v-1.72c0-.11.05-.22.16-.27l1.65-.95c.08-.05.18-.05.29,0,.1.05.16.16.16.27v1.72c0,.1-.05.21-.16.27l-1.65.95s-.08.03-.13.03Z"/>
      <path class="cls-2" d="M20.56,26.78c-.11,0-.18-.05-.26-.15-.08-.15-.03-.34.13-.42l.6-.37c.16-.08.34-.03.42.11.11.15.05.34-.1.43l-.63.36c-.05.03-.11.04-.16.04Z"/>
      <path class="cls-3" d="M41.15,30.12c-.58.34-1.05.07-1.05-.6s.47-1.49,1.05-1.82c.58-.34,1.05-.07,1.05.6s-.47,1.49-1.05,1.82Z"/>
      <path class="cls-2" d="M41.63,27.87c-.1,0-.21.03-.31.1-.5.29-.89.99-.89,1.56,0,.2.05.36.13.41.11.06.26.04.45-.07.47-.28.89-.99.89-1.56,0-.2-.05-.36-.16-.41-.03-.02-.08-.03-.11-.03h0ZM40.68,30.57c-.16,0-.29-.03-.42-.11-.32-.17-.47-.51-.47-.95,0-.78.52-1.7,1.2-2.09.37-.22.76-.24,1.05-.07.29.17.47.51.47.94,0,.78-.55,1.69-1.2,2.09h0c-.24.12-.45.18-.63.18Z"/>
      <path class="cls-2" d="M33.66,32.45c-.11,0-.21-.06-.26-.16-.11-.15-.05-.34.11-.42l5.61-3.24c.16-.09.34-.03.42.11.08.15.03.33-.11.42l-5.63,3.24s-.08.04-.13.04Z"/>
      <path class="cls-2" d="M33.66,34.62c-.11,0-.21-.06-.26-.16-.11-.15-.05-.34.11-.42l5.61-3.24c.16-.09.34-.04.42.11.08.15.03.33-.11.42l-5.61,3.24c-.05.03-.11.05-.16.05Z"/>
      <path class="cls-2" d="M33.66,33.52c-.11,0-.21-.05-.26-.15-.08-.15-.03-.34.11-.42l5.55-3.21c.16-.08.34-.03.42.12.11.15.05.34-.11.42l-5.55,3.21c-.05.03-.11.04-.16.04Z"/>
      <path class="cls-3" d="M31.83,35.48c-.58.33-1.05.06-1.05-.61s.47-1.49,1.05-1.82c.58-.34,1.05-.06,1.05.61s-.47,1.48-1.05,1.82Z"/>
      <path class="cls-2" d="M32.3,33.22c-.08,0-.18.03-.32.11-.47.28-.89.99-.89,1.55,0,.21.05.36.16.42.11.05.26.03.42-.08h0c.5-.28.92-.99.92-1.55,0-.21-.05-.36-.16-.42-.03-.02-.08-.03-.13-.03h0ZM31.38,35.93c-.16,0-.31-.04-.45-.11-.29-.18-.47-.51-.47-.95,0-.77.55-1.69,1.21-2.09.39-.22.76-.24,1.07-.07.29.17.45.51.45.95,0,.77-.52,1.7-1.21,2.08h0c-.21.13-.42.19-.6.19Z"/>
      <path class="cls-3" d="M24.94,35.2c.32.56.52,1.19.52,1.76s-.21.96-.52,1.16c-.31.18-.76.16-1.26-.13-.5-.28-.94-.76-1.26-1.33l-.03-.03c-.31-.56-.5-1.17-.5-1.73s.21-.96.52-1.16h0c.32-.18.76-.16,1.26.13.5.28.94.76,1.26,1.33Z"/>
      <path class="cls-2" d="M22.89,33.93c-.13,0-.24.03-.31.08-.23.14-.37.45-.37.89,0,.49.16,1.04.45,1.57.34.57.73,1,1.18,1.25.37.22.71.26.94.12.24-.13.37-.46.37-.89,0-.5-.16-1.07-.47-1.61-.31-.52-.73-.97-1.15-1.22-.24-.13-.45-.2-.63-.2h0ZM24.47,38.54c-.29,0-.6-.09-.94-.29-.52-.3-1.02-.82-1.36-1.44-.37-.65-.58-1.32-.58-1.91,0-.66.24-1.16.68-1.42.42-.25,1-.21,1.57.12.52.3,1,.82,1.36,1.44h0c.37.64.58,1.32.58,1.91,0,.66-.24,1.17-.68,1.42-.18.11-.39.17-.63.17Z"/>
      <path class="cls-3" d="M7.7,25.24c.31.56.52,1.19.52,1.76s-.21.97-.52,1.16c-.33.18-.78.15-1.27-.12-.5-.29-.95-.77-1.27-1.33v-.04c-.33-.55-.52-1.17-.52-1.73s.2-.96.52-1.15h0c.32-.19.77-.16,1.27.12.49.28.93.77,1.27,1.33Z"/>
      <path class="cls-2" d="M5.63,23.97c-.12,0-.22.03-.31.08-.23.14-.37.45-.37.89,0,.49.17,1.05.46,1.58.32.55.74,1,1.17,1.24.38.22.71.26.96.12.24-.13.37-.45.37-.89,0-.5-.18-1.07-.48-1.6h0c-.31-.54-.72-.98-1.15-1.22-.24-.14-.45-.21-.65-.21h0ZM7.22,28.58c-.29,0-.62-.09-.95-.29-.52-.3-1.01-.81-1.37-1.44-.37-.65-.57-1.32-.57-1.91,0-.66.24-1.16.68-1.41.44-.25.99-.21,1.57.12.52.3,1.01.82,1.38,1.44h0c.37.63.55,1.31.55,1.91,0,.67-.24,1.18-.68,1.43-.16.1-.38.15-.61.15Z"/>
    </g>
  </g>
</svg>