<?xml version="1.0" encoding="UTF-8"?>
<svg id="Layer_2" data-name="Layer 2" xmlns="http://www.w3.org/2000/svg" viewBox="0 0 40.37 40.45" fill="currentColor">
  <defs>
    <style>
      .cls-1 {
        fill: #fff;
      }

      .cls-1, .cls-2, .cls-3, .cls-4 {
        fill-rule: evenodd;
      }

      .cls-2 {
        fill: #1a87c7;
      }

      .cls-3 {
        fill: #bdedf8;
      }

      .cls-4 {
        fill: #66ceef;
      }
    </style>
  </defs>
  <g id="_Layer_" data-name="&amp;lt;Layer&amp;gt;">
    <g>
      <polygon class="cls-3" points="36.34 24.74 21.2 15.99 4.01 25.92 19.15 34.66 36.34 24.74"/>
      <path class="cls-2" d="M4.64,25.92l14.51,8.39,16.59-9.57-14.54-8.39L4.64,25.92h0ZM19.15,34.97c-.05,0-.1-.01-.16-.04L3.85,26.18c-.11-.06-.16-.16-.16-.27s.05-.21.16-.27l17.19-9.92c.1-.06.24-.06.31,0l15.14,8.75c.1.06.16.15.16.27s-.05.21-.16.27l-17.19,9.92c-.05.03-.1.04-.16.04Z"/>
      <path class="cls-3" d="M39.69,19.83l-15.17-8.74c-.34-.16-.6-.08-.92.09l-.79.46c-.37.24-.71.58-.92.97l15.14,8.74h0c.26-.42.5-.7.92-.97l.79-.46c.31-.15.52-.23.84-.13l.11.04Z"/>
      <path class="cls-2" d="M22.35,12.5l14.59,8.44c.21-.29.45-.56.86-.81l.81-.47s.05-.03.05-.04l-14.3-8.26c-.16-.08-.31-.06-.6.1l-.79.45c-.23.15-.47.36-.63.59h0ZM36.99,21.64s-.08,0-.1-.03l-15.14-8.75c-.16-.08-.21-.27-.1-.41.24-.44.58-.81,1.02-1.08l.79-.47c.34-.17.73-.33,1.21-.1l15.17,8.76c.16.08.21.26.13.41-.08.15-.26.21-.42.14l-.08-.04c-.16-.04-.29,0-.55.13l-.79.45c-.39.24-.58.49-.81.86-.08.07-.18.13-.31.13Z"/>
      <path class="cls-4" d="M37.05,21.35l-15.14-8.74c-.24.44-.37.78-.39,1.27v1.55c0,.24-.11.42-.32.56l15.14,8.74c.21-.14.31-.32.34-.56v-1.55c0-.5.13-.84.37-1.28Z"/>
      <path class="cls-2" d="M21.69,15.92l14.59,8.44c.05-.06.08-.12.08-.2v-1.52c0-.47.1-.81.26-1.16l-14.59-8.43c-.13.26-.18.51-.21.86v1.54c0,.19-.05.35-.13.49h0ZM36.34,25.04c-.05,0-.1-.01-.16-.04l-15.14-8.75c-.08-.05-.13-.15-.16-.26,0-.11.05-.2.16-.26.1-.09.16-.18.18-.33v-1.53c.03-.59.18-.98.42-1.42.03-.07.1-.13.18-.15.08-.02.16-.01.24.03l15.14,8.74c.16.08.21.27.11.41-.18.38-.31.68-.34,1.14v1.54c-.03.36-.18.62-.45.81-.05.04-.11.05-.18.05Z"/>
      <path class="cls-3" d="M16.74,32.64l.79-.46c.39-.2.63-.25,1-.03L3.3,23.34c-.34-.16-.6-.08-.92.09l-.79.46c-.42.27-.66.54-.92.97l15.14,8.74c.47-.77.86-.94.92-.97Z"/>
      <path class="cls-2" d="M1.13,24.75l14.59,8.44c.29-.38.55-.65.86-.81l.16.26-.16-.27.81-.46s.03-.02.05-.04L3.14,23.61c-.16-.08-.29-.06-.6.1l-.79.45c-.26.17-.45.34-.63.6h0ZM15.82,33.91c-.05,0-.11-.01-.16-.04L.52,25.13c-.08-.04-.13-.11-.13-.19-.03-.08-.03-.17.03-.24.26-.42.52-.75,1-1.06l.81-.47c.34-.17.73-.33,1.2-.1l15.25,8.81c.16.08.21.27.13.42-.11.15-.29.2-.42.11h0c-.26-.15-.37-.14-.71.04l-.79.45h0s-.03.01-.03.01c-.34.18-.6.56-.79.85-.05.09-.16.15-.26.15Z"/>
      <path class="cls-4" d="M15.82,33.6L.68,24.86h0c-.24.44-.37.77-.39,1.28v4.34c.03.33.08.54.31.78l15.14,8.74c-.24-.23-.29-.45-.29-.78v-4.34c0-.5.13-.84.37-1.27h0Z"/>
      <path class="cls-2" d="M.81,25.29c-.13.27-.18.52-.21.86v4.33c.03.28.05.41.21.56l14.33,8.26v-4.42c.03-.47.11-.81.29-1.15L.81,25.29h0ZM15.75,40.3c-.05,0-.1-.01-.16-.04L.45,31.52c-.39-.37-.45-.69-.45-1.03v-4.36c.03-.59.16-.98.42-1.42.03-.08.08-.13.16-.16.1-.03.18,0,.26.04l15.14,8.75c.13.08.18.26.11.4h0c-.18.39-.31.69-.34,1.15v4.33c.03.28.05.4.21.55.1.11.13.28.03.41-.05.08-.13.12-.24.12Z"/>
      <path class="cls-1" d="M16.74,39.97l22.01-12.71c.73-.41,1.31-1.42,1.31-2.24v-4.34c0-.41-.16-.7-.37-.84-.26-.13-.58-.12-.94.09l-.79.46c-.34.2-.68.56-.92.96-.24.42-.37.88-.37,1.28v1.55c0,.2-.16.46-.34.56l-17.19,9.92c-.18.1-.31.02-.31-.19v-1.55c0-.82-.6-1.16-1.31-.75l-.79.46c-.71.41-1.28,1.42-1.28,2.24v4.34c0,.82.58,1.16,1.28.75Z"/>
      <path class="cls-2" d="M18.1,32.31c-.1,0-.26.04-.42.13l-.79.46c-.63.36-1.15,1.26-1.15,1.97v4.34c0,.28.1.49.24.57.13.08.37.05.6-.09l22.03-12.71c.6-.36,1.13-1.26,1.13-1.98v-4.34c0-.28-.08-.49-.21-.57-.16-.08-.37-.05-.63.09l-.79.46c-.29.17-.58.48-.81.85-.21.38-.34.78-.34,1.12v1.55c0,.31-.18.67-.47.83l-17.19,9.92c-.18.11-.37.11-.52.02-.18-.09-.26-.26-.26-.48v-1.55c0-.28-.08-.49-.24-.57-.05-.03-.1-.04-.18-.04h0ZM16.17,40.45c-.18,0-.34-.04-.5-.13-.34-.2-.52-.59-.52-1.1v-4.34c0-.94.63-2.04,1.44-2.51l.81-.46c.45-.26.86-.29,1.21-.09.34.2.55.59.55,1.1v1.39l17.03-9.84c.08-.05.18-.2.18-.29v-1.55c0-.45.16-.96.42-1.43.26-.47.63-.85,1.02-1.08l.79-.46c.47-.26.89-.29,1.23-.09.34.2.55.59.55,1.11v4.34c0,.94-.65,2.04-1.47,2.51l-22.01,12.72-.16-.27.16.27c-.26.15-.5.22-.73.22Z"/>
      <path class="cls-4" d="M20.51,15.19l-5.69-3.28v8.77c.03.32.05.55.31.78l5.69,3.29c-.26-.23-.29-.45-.31-.78v-8.77Z"/>
      <path class="cls-2" d="M15.14,12.44v8.24c0,.28.05.4.21.56l4.87,2.81v-.06l-.03-8.61-5.06-2.93h0ZM20.83,25.05c-.05,0-.11-.01-.16-.04l-5.69-3.28c-.42-.37-.45-.7-.47-1.03v-8.79c0-.11.08-.21.16-.27.11-.05.21-.05.31,0l5.69,3.29c.11.05.16.15.16.26v8.77c.03.28.05.4.21.56.1.11.13.28.03.41-.05.08-.16.12-.24.12Z"/>
      <polygon class="cls-4" points="23.06 3.59 17.37 .31 11.66 13.37 17.34 16.65 23.06 3.59"/>
      <path class="cls-2" d="M12.05,13.24l5.16,2.97,5.45-12.49-5.16-2.97-5.45,12.49h0ZM17.34,16.96c-.05,0-.11-.01-.16-.04l-5.68-3.28c-.13-.08-.18-.25-.13-.39L17.08.18c.03-.08.1-.14.18-.17.08-.03.18-.02.26.02l5.69,3.29c.13.08.18.25.13.39l-5.71,13.06c-.03.08-.11.14-.18.17-.03.01-.05.01-.1.01Z"/>
      <path class="cls-1" d="M20.51,15.19v8.77c0,.82.6,1.16,1.31.75l2.46-1.43c.71-.41,1.28-1.42,1.28-2.24v-8.77c0-.2.16-.46.34-.56l2.83-1.64-5.69-6.48-5.71,13.06,2.86-1.65c.18-.1.31-.02.31.19Z"/>
      <path class="cls-2" d="M20.23,15.19h.29-.31s.03,0,.03,0h0ZM20.33,14.65c-.08,0-.18.03-.29.09l-2.04,1.17,5.14-11.76,5.14,5.83-2.52,1.45c-.29.16-.47.51-.47.83v8.77c0,.71-.52,1.62-1.15,1.98l-2.46,1.43c-.24.14-.47.17-.6.09-.16-.08-.24-.29-.24-.57v-8.77c0-.21-.08-.38-.24-.47-.08-.04-.16-.06-.26-.06h0ZM21.25,25.2c-.18,0-.34-.04-.5-.13-.34-.2-.55-.59-.55-1.1v-8.61l-2.7,1.56c-.11.07-.26.05-.34-.04-.1-.09-.13-.23-.08-.35l5.68-13.06c.05-.1.13-.17.24-.18.1-.02.21.02.29.1l5.68,6.48c.05.07.08.16.08.25-.03.09-.08.17-.16.22l-2.83,1.64c-.1.05-.18.2-.18.29v8.77c0,.94-.63,2.04-1.44,2.51l-2.49,1.43c-.24.14-.5.22-.71.22Z"/>
    </g>
  </g>
</svg>