<?xml version="1.0" encoding="UTF-8"?>
<svg id="Layer_2" data-name="Layer 2" xmlns="http://www.w3.org/2000/svg" viewBox="0 0 36.03 41.57" fill="currentColor">
  <defs>
    <style>
      .cls-1 {
        fill: #fff;
      }

      .cls-1, .cls-2, .cls-3, .cls-4 {
        fill-rule: evenodd;
      }

      .cls-2 {
        fill: #1a87c7;
      }

      .cls-3 {
        fill: #bdedf8;
      }

      .cls-4 {
        fill: #66ceef;
      }
    </style>
  </defs>
  <g id="_Layer_" data-name="&amp;lt;Layer&amp;gt;">
    <g>
      <path class="cls-3" d="M3.86,22.39v17.64c.01.47.1.89.49,1.18l-3.35-1.94c-.39-.29-.48-.72-.49-1.18v-17.64l3.36,1.94Z"/>
      <path class="cls-2" d="M.81,20.99v17.11c.01.47.12.74.37.94l2.4,1.38c-.02-.13-.03-.25-.03-.37v-17.47l-2.74-1.58h0ZM4.34,41.52s-.1-.01-.15-.04l-3.35-1.94c-.56-.42-.64-.99-.65-1.44v-17.65c0-.11.06-.21.15-.27.09-.05.21-.05.31,0l3.36,1.94c.09.05.15.16.15.27v17.64c.01.48.11.74.37.93.13.1.16.28.07.42-.06.09-.16.14-.26.14Z"/>
      <path class="cls-1" d="M26.13,9.29v17.64c0,.6-.21,1.27-.56,1.87-.34.59-.81,1.11-1.34,1.41l-18.7,10.79c-1.04.6-1.89.11-1.89-1.1v-17.64l22.48-12.98Z"/>
      <path class="cls-2" d="M3.96,22.45v17.46c0,.47.14.81.4.96.26.15.62.1,1.03-.13l18.69-10.79c.46-.26.89-.73,1.22-1.3.33-.56.51-1.19.51-1.71V9.83L3.96,22.45h0ZM4.7,41.57c-.23,0-.45-.05-.65-.17-.46-.26-.71-.79-.71-1.49v-17.64c0-.11.06-.21.15-.27l22.48-12.98c.09-.05.21-.05.31,0,.09.06.15.16.15.27v17.64c0,.64-.21,1.35-.6,2.02-.38.67-.9,1.21-1.45,1.53l-18.69,10.79c-.35.2-.68.3-1,.3Z"/>
      <path class="cls-3" d="M5.75,13.41C14.85,8.15,21.67,4.21,24.44,2.61c.52-.3,1-.33,1.34-.13h0c.34.2.56.62.56,1.22v5.71L3.86,22.39v-5.71c0-.6.21-1.27.56-1.87.34-.59.82-1.11,1.34-1.41Z"/>
      <path class="cls-2" d="M5.9,13.67c-.45.26-.9.74-1.22,1.3-.33.57-.51,1.18-.51,1.71v5.17l21.86-12.62V3.71c0-.47-.14-.81-.4-.96-.26-.15-.63-.1-1.03.13L5.9,13.67h0ZM3.86,22.7c-.05,0-.1-.01-.15-.04-.1-.05-.16-.16-.16-.26v-5.71c0-.63.21-1.35.6-2.02.39-.67.9-1.21,1.45-1.53h0L24.29,2.35c.6-.35,1.19-.39,1.64-.13.46.27.71.79.71,1.49v5.71c0,.11-.06.21-.15.26L4.01,22.66s-.1.04-.16.04Z"/>
      <path class="cls-4" d="M2.2,11.36C8.43,7.76,14.67,4.16,20.9.57c.41-.23.82-.36,1.27-.17l3.55,2.05c-.45-.19-.86-.06-1.27.17l-.27.15-.29.17c-6.04,3.49-12.09,6.98-18.13,10.47-1.06.64-1.88,2.02-1.89,3.28v5.71l-3.55-2.05v-5.71c.02-1.26.84-2.64,1.9-3.28Z"/>
      <path class="cls-2" d="M.62,20.35h.01-.01ZM.62,20.17l2.93,1.69v-5.17c.01-1.35.87-2.83,2.04-3.54L24.29,2.35c.11-.06.22-.12.35-.16l-2.63-1.52c-.26-.1-.55-.06-.97.17L2.36,11.62c-.98.6-1.73,1.9-1.74,3.02v5.53h0ZM3.86,22.7c-.05,0-.1-.01-.15-.04L.16,20.61c-.09-.05-.16-.16-.16-.26v-5.71c.01-1.35.87-2.83,2.04-3.54t0,0L20.74.3c.4-.22.94-.44,1.54-.18l3.58,2.06c.14.08.19.26.12.4-.07.15-.25.21-.4.15-.29-.12-.58-.08-1,.15L5.9,13.67c-.98.59-1.73,1.89-1.74,3.02v5.71c0,.11-.06.21-.15.26-.05.03-.1.04-.16.04Z"/>
      <path class="cls-2" d="M8.38,34.54c-.1,0-.19-.02-.27-.07-.18-.11-.28-.3-.28-.54v-4.08c0-.35.22-.74.53-.91l5.56-3.21c.07-.04.16-.19.16-.27v-3.85l-5.69,3.28c-.18.1-.4.04-.51-.14-.1-.17-.04-.4.13-.5l5.9-3.41c.21-.12.43-.13.61-.03.18.1.29.3.29.54v4.1c0,.35-.22.73-.53.91l-5.56,3.2c-.07.04-.16.18-.16.27v3.83l5.69-3.28c.18-.1.4-.04.51.13.1.18.04.4-.14.51l-5.9,3.41c-.11.07-.23.1-.34.1Z"/>
      <path class="cls-2" d="M21.63,17.24l-5.35,3.08c-.07.04-.16.19-.16.27v3.84l5.5-3.18v-4.02h0ZM16.13,25.29l5.5-3.18v3.84c0,.08-.08.23-.16.27l-5.34,3.09v-4.02h0ZM15.92,29.43s0,0,0,0l.19.32-.19-.32h0ZM15.95,30.17c-.1,0-.19-.02-.27-.07-.18-.11-.28-.3-.28-.54v-4.47h0v-4.48c0-.35.22-.74.52-.91l5.56-3.21c.21-.12.43-.13.61-.02.18.1.28.3.28.54v4.47h0v4.49c0,.35-.22.74-.53.91l-5.56,3.21h0c-.11.07-.22.1-.34.1Z"/>
      <path class="cls-2" d="M18.57,8.72h0,0ZM18.36,12.64c-.06,0-.13-.02-.18-.05-.12-.07-.19-.19-.19-.34v-3.6c0-.18.11-.37.27-.46l2.1-1.21c.14-.09.33-.04.42.11.08.15.03.33-.12.42l-2.05,1.19v3.14l1.76-1.02c.15-.08.34-.03.42.11.08.15.03.34-.11.42l-2.11,1.22c-.06.04-.13.06-.2.06Z"/>
      <path class="cls-2" d="M18.3,10.66c-.11,0-.21-.05-.27-.15-.08-.15-.03-.33.11-.42l2.08-1.2c.15-.08.33-.03.42.11.08.15.03.34-.12.42l-2.08,1.2s-.1.04-.15.04Z"/>
      <path class="cls-2" d="M15.07,14.55c-.17,0-.31-.14-.31-.31v-3.86c0-.13.08-.24.19-.29.12-.04.25-.02.34.08l1.81,1.93-.02-3.06c0-.17.14-.31.31-.31h0c.17,0,.31.14.31.31l.02,3.85c0,.13-.08.24-.19.29-.12.05-.25.02-.34-.08l-1.82-1.94v3.08c0,.17-.14.31-.31.31Z"/>
      <path class="cls-2" d="M12.24,16.02c-.15,0-.29-.04-.41-.11-.33-.19-.49-.59-.49-1.23v-2.4c0-.17.14-.31.31-.31s.31.14.31.31v2.4c0,.55.14.67.18.69.11.07.36,0,.67-.18.75-.43,1.13-1.11,1.13-2v-2.41c0-.17.14-.31.31-.31s.31.14.31.31v2.41c0,1.12-.5,1.99-1.44,2.54-.34.19-.62.29-.87.29Z"/>
      <path class="cls-2" d="M9.29,17.84c-.12,0-.23-.02-.34-.09-.36-.21-.4-.69-.4-1.03,0-.17.14-.31.31-.31s.31.14.31.31c0,.43.09.5.09.5.02.01.13.02.41-.14.53-.31.79-.77.79-1.41v-2.82c0-.17.14-.31.31-.31s.31.14.31.31v2.82c0,.86-.38,1.53-1.1,1.94-.11.07-.39.23-.68.23Z"/>
      <path class="cls-4" d="M4.58,14.56l-3.55-2.05c-.41.62-.72,1.38-.72,2.13v5.71l3.55,2.05v-5.71c0-.75.31-1.51.72-2.13Z"/>
      <path class="cls-2" d="M.62,20.17l2.93,1.69v-5.17c0-.66.22-1.37.6-2.02l-3.02-1.74c-.33.57-.51,1.17-.52,1.72v5.53h0ZM3.86,22.7c-.05,0-.1-.01-.15-.04L.16,20.61c-.09-.05-.16-.16-.16-.26v-5.71c0-.75.28-1.57.78-2.3.09-.13.27-.18.41-.09l3.55,2.05c.07.04.13.11.15.2.02.08,0,.17-.04.24-.42.63-.66,1.33-.67,1.96v5.71c0,.11-.06.21-.15.26-.05.03-.1.04-.16.04Z"/>
      <path class="cls-4" d="M23.14,35.72l-2.21-1.28c2.59,1.46,5.82-.99,7.47-2.87,2.3-2.63,4.33-7.12,3.46-10.61-.26-1.03-.78-1.94-1.71-2.49l2.32,1.35c2.33,1.48,1.96,5.23,1.24,7.52-1.07,3.41-3.97,7.53-7.48,8.59-1.04.31-2.12.33-3.09-.22Z"/>
      <path class="cls-2" d="M23.3,35.45c.8.45,1.76.52,2.84.19,3.37-1.01,6.21-4.99,7.28-8.39.78-2.49.96-5.86-1.11-7.17l-.57-.33c.18.34.32.72.42,1.14.91,3.66-1.19,8.21-3.53,10.89-1.49,1.7-3.68,3.32-5.79,3.41l.45.26h0ZM24.85,36.46c-.67,0-1.29-.16-1.85-.47h0s-2.21-1.28-2.21-1.28c-.14-.08-.2-.27-.11-.42.08-.15.27-.2.42-.12,2.45,1.38,5.61-1.11,7.09-2.8,2.31-2.64,4.22-7.04,3.4-10.33-.27-1.07-.8-1.84-1.57-2.3-.15-.09-.19-.28-.11-.42.08-.15.27-.19.42-.11l2.32,1.35c2.38,1.51,2.23,5.19,1.38,7.88-1.12,3.56-4.12,7.72-7.69,8.8-.51.15-1.01.23-1.48.23Z"/>
      <path class="cls-1" d="M27.06,19.9c-3.55,2.05-6.44,7.05-6.44,11.15s2.88,5.77,6.44,3.71c3.55-2.05,6.44-7.04,6.44-11.15s-2.88-5.77-6.44-3.72Z"/>
      <path class="cls-2" d="M27.06,19.9h0,0ZM29.93,19.33c-.83,0-1.75.28-2.72.84h0c-3.46,2-6.28,6.88-6.28,10.88,0,1.87.61,3.25,1.73,3.9,1.12.65,2.62.49,4.24-.45,3.46-2,6.28-6.88,6.28-10.88,0-1.87-.62-3.26-1.73-3.9-.45-.26-.96-.39-1.52-.39h0ZM24.18,35.95c-.67,0-1.28-.16-1.83-.47-1.32-.76-2.04-2.33-2.04-4.43,0-4.2,2.96-9.32,6.59-11.42h0c1.82-1.05,3.54-1.21,4.86-.45,1.32.76,2.04,2.33,2.04,4.43,0,4.2-2.96,9.32-6.59,11.42-1.06.61-2.09.92-3.03.92Z"/>
      <path class="cls-4" d="M25.54,17.26c1.62-.91,3.73-1.58,5.49-.63l2.21,1.28c-3.25-1.62-7.11,1.39-9.12,3.73-2.69,3.15-5,8.29-4.18,12.46.27,1.36.86,2.54,2.04,3.32-.53-.3-2.06-1.15-2.47-1.46-2.54-1.92-2.12-6.18-1.32-8.84,1.17-3.85,3.84-7.78,7.34-9.86Z"/>
      <path class="cls-2" d="M25.69,17.52c-3.21,1.9-5.97,5.61-7.2,9.68-.86,2.85-1.06,6.79,1.21,8.5.12.09.37.25.66.42-.33-.56-.56-1.22-.71-1.97-.85-4.33,1.6-9.63,4.24-12.72,1.87-2.18,4.7-4.3,7.39-4.3h.03l-.43-.25c-1.72-.92-3.77-.17-5.19.63h0ZM21.99,37.72c-.05,0-.1-.01-.15-.04l-.5-.28c-.71-.4-1.67-.95-2-1.19-2.52-1.91-2.39-5.99-1.43-9.18,1.27-4.21,4.14-8.05,7.48-10.03h0c1.55-.88,3.82-1.7,5.79-.64l2.22,1.28c.14.08.2.27.12.41-.08.15-.26.2-.41.13-2.91-1.45-6.53,1.06-8.75,3.65-2.55,2.98-4.92,8.07-4.11,12.2.28,1.44.91,2.46,1.9,3.12.14.09.18.28.09.42-.06.09-.16.14-.26.14Z"/>
      <polygon class="cls-4" points="23.03 35.65 20.82 34.37 23.14 35.72 23.03 35.65"/>
      <path class="cls-2" d="M23.14,36.03c-.05,0-.11-.02-.15-.04l-2.33-1.34c-.14-.09-.19-.28-.11-.42.08-.15.27-.2.42-.11h0l2.21,1.28h0s.11.07.11.07c.15.09.19.27.11.42-.06.1-.16.15-.27.15Z"/>
      <path class="cls-3" d="M32.36,19.75c-.6-.35-1.32-.49-2.12-.41-.77.08-1.61.36-2.49.87-.88.51-1.72,1.2-2.49,2.01-.8.84-1.51,1.82-2.11,2.86-.6,1.04-1.09,2.15-1.41,3.26-.32,1.07-.5,2.15-.5,3.16s.18,1.89.5,2.6c.33.73.81,1.28,1.41,1.62.6.35,1.32.49,2.11.41.77-.08,1.61-.36,2.49-.87.88-.51,1.73-1.2,2.49-2.01.8-.84,1.51-1.81,2.12-2.86.6-1.04,1.08-2.15,1.41-3.26.32-1.07.5-2.14.5-3.16s-.18-1.89-.5-2.59c-.33-.73-.81-1.28-1.41-1.63h0ZM22.12,24.48c1.44-2.5,3.43-4.68,5.63-5.95,2.2-1.27,4.19-1.39,5.63-.56,1.44.83,2.33,2.62,2.33,5.16s-.89,5.36-2.33,7.85-3.43,4.68-5.63,5.95c-2.2,1.27-4.19,1.39-5.63.56-1.44-.83-2.33-2.62-2.33-5.16s.89-5.36,2.33-7.85h0Z"/>
      <path class="cls-2" d="M30.67,19.62c-.13,0-.26,0-.39.02-.75.08-1.55.36-2.37.83-.84.49-1.65,1.14-2.43,1.95-.78.82-1.47,1.76-2.07,2.8-.6,1.04-1.06,2.11-1.38,3.19-.32,1.07-.48,2.11-.48,3.08s.16,1.78.47,2.47c.3.67.73,1.17,1.29,1.49.56.32,1.21.45,1.93.37.75-.07,1.54-.35,2.37-.83.84-.48,1.66-1.14,2.42-1.95.78-.82,1.47-1.76,2.07-2.8.6-1.04,1.06-2.11,1.39-3.2.32-1.07.48-2.11.48-3.08s-.16-1.78-.47-2.47c-.3-.67-.74-1.16-1.29-1.49h0c-.45-.26-.97-.39-1.54-.39h0ZM24.84,36.46c-.68,0-1.3-.16-1.85-.47-.67-.38-1.19-.98-1.54-1.77-.35-.76-.52-1.68-.52-2.72s.17-2.12.51-3.25c.33-1.13.82-2.25,1.44-3.33.62-1.08,1.35-2.06,2.16-2.92.81-.85,1.67-1.55,2.57-2.06.9-.52,1.78-.83,2.61-.91.86-.08,1.63.07,2.3.45,0,0,0,0,0,0,.67.39,1.18.98,1.54,1.77.35.76.52,1.68.52,2.72s-.17,2.12-.51,3.25c-.33,1.13-.82,2.25-1.44,3.33-.62,1.08-1.35,2.06-2.16,2.92-.81.85-1.67,1.55-2.56,2.06-.9.52-1.78.83-2.62.91-.15.02-.31.02-.45.02h0ZM22.12,24.48h0,0ZM31.31,17.75c.7,0,1.35.16,1.92.49,1.41.81,2.18,2.55,2.18,4.89s-.81,5.14-2.29,7.7c-1.48,2.56-3.44,4.63-5.52,5.83-2.03,1.17-3.92,1.37-5.33.55-1.4-.81-2.18-2.55-2.18-4.89s.81-5.14,2.29-7.7h0c1.48-2.56,3.44-4.63,5.52-5.83,1.21-.7,2.37-1.05,3.4-1.05h0ZM24.2,38.33c-.81,0-1.56-.19-2.23-.57-1.6-.92-2.49-2.85-2.49-5.42s.84-5.35,2.37-8h0c1.53-2.65,3.57-4.81,5.75-6.06,2.22-1.29,4.34-1.48,5.94-.56,1.6.93,2.49,2.85,2.49,5.42s-.84,5.35-2.37,8.01c-1.53,2.65-3.57,4.8-5.75,6.06-1.3.75-2.56,1.13-3.71,1.13Z"/>
      <polygon class="cls-3" points="28.41 27.51 27.83 28.74 23.73 27.57 24.3 26.34 28.41 27.51"/>
      <path class="cls-2" d="M24.16,27.37l3.5,1,.31-.66-3.5-1-.31.66h0ZM27.83,29.04s-.06,0-.08-.01l-4.1-1.17c-.09-.03-.16-.09-.2-.17-.04-.08-.04-.18,0-.26l.58-1.22c.06-.14.21-.21.36-.16l4.11,1.17c.08.02.16.09.19.17.04.08.04.18,0,.26l-.57,1.22c-.05.11-.16.18-.28.18Z"/>
      <path class="cls-2" d="M26.88,29.84c-.05,0-.11-.01-.15-.04-.15-.08-.2-.27-.12-.42l4.76-8.24c.08-.15.27-.2.42-.11.15.08.2.27.11.42l-4.76,8.24c-.06.1-.16.16-.27.16Z"/>
      <path class="cls-2" d="M1.97,40.15c-.07,0-.13-.02-.19-.06-.52-.4-.61-.97-.61-1.42v-17.65c0-.17.14-.31.31-.31s.31.14.31.31v17.64c.01.47.12.75.37.94.14.11.16.3.06.43-.06.08-.15.12-.25.12Z"/>
      <path class="cls-2" d="M3,40.75c-.07,0-.13-.02-.19-.06-.52-.4-.61-.97-.61-1.42v-17.65c0-.17.14-.31.31-.31s.31.14.31.31v17.64c.01.47.12.75.37.94.14.1.16.3.06.43-.06.08-.15.12-.24.12Z"/>
    </g>
  </g>
</svg>