<?xml version="1.0" encoding="UTF-8"?>
<svg id="Layer_2" data-name="Layer 2" xmlns="http://www.w3.org/2000/svg" viewBox="0 0 45.6 38.54" fill="currentColor">
  <defs>
    <style>
      .cls-1 {
        fill: #fff;
      }

      .cls-1, .cls-2, .cls-3, .cls-4 {
        fill-rule: evenodd;
      }

      .cls-2 {
        fill: #1a87c7;
      }

      .cls-3 {
        fill: #bdedf8;
      }

      .cls-4 {
        fill: #66ceef;
      }
    </style>
  </defs>
  <g id="_Layer_" data-name="&amp;lt;Layer&amp;gt;">
    <g>
      <path class="cls-3" d="M43.2.62c-.41-.24-.97-.41-1.43-.16l-13.47,7.78c.86-.43,1.88.39,2.4,1.02.69.82,1.27,2.15,1.03,3.22-.07.32-.23.62-.51.81l13.48-7.78c.54-.33.62-1.12.54-1.69-.15-1.23-.97-2.56-2.04-3.19Z"/>
      <path class="cls-2" d="M29.53,7.93c.55.22,1.07.66,1.44,1.11.7.85,1.3,2.18,1.12,3.34l12.42-7.17c.38-.23.43-.87.38-1.35-.15-1.16-.91-2.37-1.87-2.94-.25-.14-.74-.35-1.09-.16l-12.41,7.17h0ZM31.21,13.63c-.11,0-.23-.06-.29-.16-.1-.16-.06-.36.11-.47.18-.12.3-.32.37-.59.21-.96-.35-2.19-.96-2.93-.42-.5-1.3-1.27-1.98-.93-.18.08-.37.02-.46-.15-.09-.16-.03-.37.13-.46L41.6.16c.49-.26,1.11-.2,1.76.16,0,0,0,0,0,0,1.14.68,2.02,2.07,2.2,3.45.05.35.13,1.52-.71,2.02l-13.48,7.78c-.06.03-.12.05-.17.05Z"/>
      <path class="cls-4" d="M31.17,9.94c-.37-.65-.88-1.21-1.45-1.54-.57-.33-1.09-.36-1.46-.14-.37.22-.6.68-.6,1.33s.23,1.38.6,2.03c.38.65.89,1.21,1.46,1.54.57.33,1.08.36,1.45.14.38-.21.61-.68.61-1.33s-.23-1.38-.61-2.03Z"/>
      <path class="cls-2" d="M28.8,8.46c-.13,0-.26.03-.37.09-.28.16-.44.53-.44,1.04,0,.58.2,1.24.56,1.86.36.62.84,1.12,1.33,1.41.45.25.84.31,1.12.14.27-.16.43-.53.43-1.04,0-.57-.19-1.24-.55-1.86h0c-.37-.62-.84-1.12-1.34-1.41-.27-.16-.52-.24-.75-.24h0ZM30.64,13.79c-.34,0-.72-.11-1.1-.33-.6-.35-1.16-.94-1.58-1.66-.43-.72-.65-1.5-.66-2.2,0-.76.28-1.34.78-1.63.5-.29,1.13-.24,1.79.15.61.35,1.17.94,1.59,1.66.42.72.65,1.51.65,2.2,0,.76-.27,1.34-.77,1.63-.21.12-.46.18-.71.18Z"/>
      <path class="cls-1" d="M30.28,10.46c-.2-.35-.48-.66-.79-.84-.31-.18-.59-.19-.79-.08-.19.12-.32.37-.32.72s.13.75.32,1.1c.2.35.48.66.79.84.31.18.59.2.79.08.2-.12.33-.37.33-.73s-.13-.75-.33-1.1Z"/>
      <path class="cls-2" d="M29,9.82s-.09,0-.13.03c-.1.06-.16.22-.16.43,0,.28.11.62.28.93.18.31.43.57.67.71.18.11.35.13.44.08.1-.06.16-.22.16-.43,0-.28-.1-.62-.28-.93-.17-.31-.42-.57-.67-.71-.11-.07-.23-.11-.32-.11h0ZM29.99,12.7c-.21,0-.44-.07-.68-.2-.35-.2-.66-.54-.91-.96-.24-.42-.38-.87-.38-1.28,0-.47.17-.84.5-1.02.32-.18.73-.15,1.13.08.35.2.68.55.91.96.24.42.38.87.38,1.28,0,.47-.18.84-.49,1.02-.15.08-.3.12-.47.12Z"/>
      <path class="cls-4" d="M29.48,9.63c-.22-.13-.53-.22-.78-.09l-14.13,8.16c.48-.23,1.03.21,1.31.56.37.45.69,1.17.56,1.75-.04.18-.13.34-.28.44l14.13-8.16c.29-.18.33-.6.29-.92-.08-.65-.51-1.38-1.08-1.72l-.03-.02Z"/>
      <path class="cls-2" d="M15.57,17.53c.22.14.41.32.57.51.35.41.65,1.04.67,1.63l13.31-7.68c.12-.07.16-.35.13-.58-.07-.56-.47-1.19-.91-1.47l.15-.31-.17.3c-.19-.11-.35-.13-.44-.09l-13.3,7.68h0ZM16.16,20.79c-.12,0-.23-.06-.3-.17-.1-.16-.05-.36.11-.47.07-.04.11-.12.13-.23.1-.45-.16-1.07-.48-1.45-.26-.31-.65-.58-.89-.46-.16.08-.37.02-.46-.15-.09-.16-.03-.37.14-.46l14.13-8.16c.31-.17.71-.14,1.1.09,0,0,0,0,0,0l.03.02c.64.39,1.14,1.2,1.24,1.97.08.56-.1,1.03-.45,1.25l-14.14,8.16s-.11.05-.17.05Z"/>
      <path class="cls-1" d="M7.78,34.25C.67,31.88-1.77,26.63,2.33,22.52c4.11-4.11,13.21-5.52,20.32-3.15,7.12,2.37,9.55,7.63,5.45,11.74-4.11,4.11-13.21,5.52-20.33,3.14Z"/>
      <path class="cls-2" d="M7.89,33.93c7,2.33,15.95.96,19.97-3.06,1.58-1.58,2.19-3.35,1.77-5.13-.6-2.54-3.18-4.74-7.08-6.04-6.99-2.33-15.96-.96-19.98,3.06-1.57,1.57-2.19,3.35-1.76,5.12.6,2.54,3.18,4.74,7.08,6.04h0ZM15.18,35.74c-2.56,0-5.14-.37-7.51-1.16h0c-4.13-1.38-6.88-3.76-7.53-6.53-.47-1.99.23-4.04,1.95-5.77,4.18-4.19,13.46-5.64,20.67-3.23,4.14,1.38,6.88,3.76,7.54,6.53.46,1.99-.22,4.04-1.96,5.77-2.81,2.82-7.92,4.39-13.16,4.39Z"/>
      <path class="cls-4" d="M21,24.35c0,.47.02,3.02-.02,3.27-.17,1.41-1.76,2.29-2.97,2.67-2.21.7-5.3.55-7.23-.78-.69-.48-1.31-1.19-1.34-2.07v-3.11c.05.62.28,1.08.71,1.54,1.34,1.41,3.9,1.83,5.75,1.71,1.61-.11,3.77-.7,4.71-2.11.25-.36.36-.69.4-1.12Z"/>
      <path class="cls-2" d="M9.78,25.97v1.47c.03.86.76,1.49,1.19,1.79,1.91,1.32,4.93,1.37,6.93.74,1.23-.39,2.6-1.22,2.74-2.39.02-.12.02-.89.02-1.62-1.09,1.27-3.12,1.84-4.74,1.95-1.87.13-4.56-.27-6.02-1.82-.04-.04-.08-.09-.12-.13h0ZM15.2,31.05c-1.63,0-3.34-.37-4.61-1.25-.53-.37-1.45-1.17-1.49-2.34v-3.13c0-.18.14-.34.33-.34.17-.03.34.13.36.32.04.51.22.91.62,1.33,1.21,1.28,3.63,1.73,5.47,1.6,1.51-.1,3.58-.68,4.45-1.96.21-.31.3-.57.34-.95,0-.18.15-.31.35-.31.18,0,.33.16.33.34v.47c0,1.62,0,2.66-.01,2.85-.24,1.88-2.53,2.74-3.22,2.96-.84.27-1.86.42-2.91.42Z"/>
      <path class="cls-3" d="M21,24.35c0,.47.02,3.02-.02,3.27-.16,1.23-1.39,2.06-2.52,2.51v-3.11c.87-.34,1.66-.84,2.14-1.55.25-.36.36-.69.4-1.12Z"/>
      <path class="cls-2" d="M18.81,27.25v2.35c.72-.36,1.71-1.02,1.83-2.02.02-.12.02-.89.02-1.62-.45.52-1.06.95-1.85,1.29h0ZM18.47,30.48c-.07,0-.14-.02-.2-.06-.09-.06-.15-.17-.15-.28v-3.11c0-.14.09-.27.22-.32.9-.35,1.59-.84,1.98-1.43.21-.31.3-.57.34-.95,0-.18.15-.31.35-.31.18,0,.33.16.33.34v.47c0,1.62,0,2.66-.01,2.85-.21,1.62-1.99,2.49-2.74,2.79-.04.01-.08.02-.13.02Z"/>
      <path class="cls-3" d="M12.33,27.15c-2.77-.92-3.71-2.96-2.12-4.56,1.6-1.6,5.13-2.14,7.9-1.22,2.76.92,3.71,2.96,2.11,4.56-1.6,1.59-5.13,2.14-7.89,1.22Z"/>
      <path class="cls-2" d="M15.21,21.26c-1.9,0-3.74.56-4.76,1.57-.55.56-.77,1.18-.63,1.8.22.9,1.19,1.72,2.62,2.2h0c2.65.88,6.04.37,7.55-1.14.56-.56.77-1.18.63-1.8-.21-.9-1.19-1.72-2.62-2.2-.87-.3-1.84-.43-2.79-.43h0ZM15.2,27.94c-1.02,0-2.04-.15-2.98-.46-1.68-.56-2.8-1.54-3.07-2.69-.2-.85.08-1.71.81-2.44,1.68-1.68,5.38-2.26,8.26-1.31,1.67.56,2.79,1.54,3.06,2.69.2.85-.09,1.71-.81,2.44-1.14,1.13-3.18,1.76-5.27,1.76Z"/>
      <path class="cls-3" d="M19.81,20.17v4.18c-.05,1.12-1.25,1.85-2.19,2.19-1.78.63-4.36.53-5.92-.56-.55-.38-1.05-.95-1.07-1.64v-4.18c.04.49.23.86.57,1.22,1.05,1.12,3.09,1.46,4.56,1.36,1.27-.09,2.98-.56,3.74-1.67.19-.29.28-.55.31-.89Z"/>
      <path class="cls-2" d="M10.98,21.64v2.7c.02.65.58,1.13.92,1.36,1.55,1.07,4.05,1.07,5.61.52.92-.32,1.93-.99,1.97-1.88v-2.69c-.9.93-2.44,1.35-3.69,1.43-1.47.1-3.62-.21-4.81-1.44h0ZM15.18,27.27c-1.3,0-2.65-.29-3.68-1.01-.75-.52-1.18-1.2-1.21-1.91v-4.19c0-.19.14-.34.33-.34.15-.02.34.13.36.32.03.39.17.7.46,1.01.95,1,2.84,1.35,4.29,1.25,1.19-.08,2.82-.53,3.49-1.52.16-.23.23-.43.25-.73,0-.18.18-.32.36-.31.18,0,.33.16.33.34v4.18c-.08,1.56-1.87,2.32-2.42,2.51-.74.26-1.63.41-2.56.41Z"/>
      <path class="cls-1" d="M19.81,20.17v4.18c-.05,1.12-1.25,1.85-2.19,2.19-.47.17-1,.28-1.55.34v-4.17c1.23-.14,2.74-.62,3.43-1.64.19-.29.28-.55.31-.89Z"/>
      <path class="cls-2" d="M16.42,23v3.48c.39-.06.75-.15,1.08-.27.92-.32,1.93-.99,1.97-1.88v-2.69c-.89.91-2.32,1.25-3.05,1.36h0ZM16.07,27.22c-.09,0-.16-.03-.23-.09-.07-.07-.11-.16-.11-.26v-4.17c0-.18.13-.32.3-.34.55-.06,2.41-.35,3.18-1.5.16-.23.23-.43.25-.73,0-.18.18-.32.36-.31.18,0,.33.16.33.34v4.18c-.08,1.56-1.87,2.32-2.42,2.51-.5.18-1.05.3-1.63.36-.01,0-.03,0-.04,0Z"/>
      <path class="cls-4" d="M21,14.91v5.26c-.06,1.41-1.58,2.34-2.76,2.76-2.24.79-5.48.66-7.46-.7-.69-.48-1.31-1.19-1.35-2.07v-5.26c.06.62.29,1.08.72,1.54,1.34,1.41,3.9,1.84,5.75,1.71,1.61-.11,3.77-.7,4.71-2.11.25-.36.36-.69.4-1.12Z"/>
      <path class="cls-2" d="M9.78,16.53v3.62c.03.86.76,1.49,1.19,1.79,1.99,1.37,5.16,1.37,7.16.66,1.18-.42,2.47-1.28,2.52-2.45v-3.62c-1.07,1.26-3.11,1.83-4.73,1.95-1.87.12-4.56-.27-6.02-1.81-.04-.04-.08-.09-.12-.13h0ZM15.17,23.76c-1.62,0-3.31-.37-4.58-1.26-.93-.64-1.45-1.47-1.49-2.34v-5.27c0-.18.14-.33.33-.34.16-.01.34.13.36.32.04.51.22.91.62,1.33,1.21,1.28,3.63,1.73,5.47,1.6,1.51-.11,3.58-.68,4.45-1.96.21-.31.3-.57.34-.96,0-.18.15-.31.35-.31.18,0,.33.16.33.34v5.26c-.08,1.91-2.3,2.84-2.98,3.08-.91.32-2.03.51-3.19.51Z"/>
      <path class="cls-3" d="M21,14.91v5.26c-.06,1.32-1.4,2.22-2.54,2.67v-5.26c.87-.34,1.66-.84,2.14-1.55.25-.36.36-.69.4-1.12Z"/>
      <path class="cls-2" d="M18.81,17.81v4.5c.72-.36,1.8-1.08,1.84-2.16v-3.62c-.43.52-1.05.95-1.84,1.28h0ZM18.47,23.18c-.07,0-.14-.02-.2-.06-.09-.06-.15-.17-.15-.28v-5.26c0-.14.09-.27.22-.32.9-.35,1.59-.84,1.98-1.42.21-.31.3-.57.34-.96,0-.18.15-.31.35-.31.18,0,.33.16.33.34v5.26c-.08,1.75-1.95,2.68-2.75,2.99-.04.02-.08.02-.13.02Z"/>
      <path class="cls-3" d="M12.33,17.71c-2.77-.92-3.71-2.96-2.12-4.56,1.6-1.59,5.13-2.14,7.9-1.22,2.76.92,3.71,2.96,2.11,4.56-1.6,1.6-5.13,2.14-7.89,1.22Z"/>
      <path class="cls-2" d="M15.21,11.82c-1.9,0-3.74.56-4.76,1.57-.55.56-.77,1.18-.63,1.8.22.9,1.19,1.72,2.62,2.19h0c2.65.88,6.04.37,7.55-1.14.56-.56.77-1.18.63-1.8-.21-.9-1.19-1.72-2.62-2.2-.87-.29-1.84-.43-2.79-.43h0ZM15.2,18.5c-1.02,0-2.04-.15-2.98-.46-1.68-.56-2.8-1.54-3.07-2.69-.2-.85.08-1.71.81-2.44,1.68-1.68,5.38-2.26,8.26-1.31,1.67.56,2.79,1.54,3.06,2.69.2.85-.09,1.71-.81,2.44-1.14,1.13-3.18,1.77-5.27,1.77Z"/>
      <path class="cls-3" d="M19.81,10.73v4.18c-.05,1.12-1.25,1.86-2.19,2.19-1.78.63-4.36.53-5.92-.56-.55-.38-1.05-.95-1.07-1.65v-4.18c.04.49.23.86.57,1.22,1.05,1.12,3.09,1.46,4.56,1.35,1.27-.08,2.98-.56,3.74-1.67.19-.29.28-.55.31-.89Z"/>
      <path class="cls-2" d="M10.98,12.2v2.69c.02.65.58,1.13.92,1.36,1.55,1.07,4.05,1.07,5.61.52.92-.33,1.93-.99,1.97-1.88v-2.69c-.9.92-2.44,1.35-3.69,1.43-1.48.1-3.62-.22-4.81-1.44h0ZM15.18,17.83c-1.3,0-2.65-.3-3.68-1.01-.75-.52-1.18-1.2-1.21-1.91v-4.19c0-.18.14-.34.33-.34.15-.02.34.13.36.31.03.39.17.69.46,1.01.96,1,2.85,1.35,4.29,1.25,1.19-.08,2.82-.53,3.49-1.52.16-.23.23-.43.25-.73,0-.18.18-.31.36-.31.18,0,.33.16.33.34v4.18c-.08,1.57-1.87,2.32-2.42,2.51-.74.26-1.63.41-2.56.41Z"/>
      <path class="cls-1" d="M19.81,10.73v4.18c-.05,1.12-1.25,1.86-2.19,2.19-.47.17-1,.28-1.55.34v-4.17c1.23-.14,2.74-.62,3.43-1.64.19-.29.28-.55.31-.89Z"/>
      <path class="cls-2" d="M16.42,13.57v3.48c.39-.06.75-.16,1.08-.27.92-.33,1.93-.99,1.97-1.88v-2.69c-.89.91-2.32,1.24-3.05,1.36h0ZM16.07,17.78c-.09,0-.16-.03-.23-.08-.07-.07-.11-.16-.11-.26v-4.17c0-.18.13-.32.3-.34.55-.06,2.41-.35,3.18-1.49.16-.23.23-.43.25-.73,0-.18.18-.31.36-.31.18,0,.33.16.33.34v4.18c-.08,1.57-1.87,2.32-2.42,2.51-.5.18-1.05.3-1.63.36h-.04Z"/>
      <path class="cls-4" d="M21,7.46c0,.47.02,3.02-.02,3.28-.17,1.4-1.76,2.29-2.97,2.68-2.21.7-5.3.54-7.23-.79-.69-.48-1.31-1.19-1.34-2.07v-3.11c.05.62.28,1.08.71,1.54,1.34,1.41,3.9,1.84,5.75,1.71,1.61-.11,3.77-.7,4.71-2.1.25-.37.36-.69.4-1.12Z"/>
      <path class="cls-2" d="M9.78,9.09v1.47c.03.86.76,1.49,1.19,1.79,1.91,1.32,4.93,1.37,6.93.74,1.23-.39,2.6-1.22,2.74-2.39.02-.12.02-.89.02-1.61-1.09,1.27-3.12,1.84-4.74,1.95-1.87.13-4.56-.27-6.02-1.81-.04-.04-.08-.09-.12-.13h0ZM15.2,14.16c-1.63,0-3.34-.37-4.61-1.25-.53-.37-1.45-1.17-1.49-2.34v-3.13c0-.18.14-.33.33-.34.17-.03.34.13.36.32.04.51.22.91.62,1.33,1.21,1.28,3.63,1.73,5.47,1.6,1.51-.1,3.58-.68,4.45-1.96.21-.31.3-.57.34-.96,0-.18.15-.31.35-.31.18,0,.33.16.33.34v.47c0,1.62,0,2.66-.01,2.85-.24,1.88-2.53,2.74-3.22,2.96-.84.27-1.85.42-2.91.42Z"/>
      <path class="cls-3" d="M21,7.46c0,.47.02,3.02-.02,3.28-.16,1.23-1.39,2.06-2.52,2.51v-3.11c.87-.34,1.66-.84,2.14-1.55.25-.37.36-.69.4-1.12Z"/>
      <path class="cls-2" d="M18.81,10.37v2.35c.72-.36,1.71-1.02,1.83-2.02.02-.12.02-.89.02-1.61-.44.52-1.06.95-1.85,1.28h0ZM18.47,13.59c-.07,0-.14-.02-.2-.06-.09-.06-.15-.17-.15-.29v-3.11c0-.14.09-.27.22-.32.9-.35,1.59-.84,1.98-1.42.21-.31.3-.57.34-.96,0-.18.15-.31.35-.31.18,0,.33.16.33.34v.47c0,1.62,0,2.66-.01,2.85-.21,1.62-1.99,2.49-2.74,2.78-.04.02-.08.03-.13.03Z"/>
      <path class="cls-4" d="M12.33,10.26c-2.77-.92-3.71-2.96-2.12-4.56,1.6-1.59,5.13-2.14,7.9-1.22,2.76.92,3.71,2.96,2.11,4.56-1.6,1.6-5.13,2.14-7.89,1.22Z"/>
      <path class="cls-2" d="M12.44,9.94c2.65.88,6.04.37,7.55-1.14.56-.56.77-1.18.63-1.8-.21-.9-1.19-1.72-2.62-2.2-2.64-.89-6.03-.37-7.55,1.14-.55.56-.77,1.18-.63,1.8.22.9,1.19,1.72,2.62,2.2h0ZM15.19,11.05c-1.01,0-2.03-.15-2.96-.46h0c-1.68-.56-2.8-1.54-3.07-2.69-.2-.85.08-1.71.81-2.44,1.68-1.68,5.38-2.26,8.26-1.31,1.67.56,2.79,1.54,3.06,2.69.2.85-.09,1.71-.81,2.44-1.14,1.13-3.18,1.77-5.28,1.77Z"/>
      <path class="cls-3" d="M30.04,27.07c0,.67.04,2.69-.03,3.23-.47,3.6-4.54,5.87-7.65,6.86-5.65,1.79-13.59,1.39-18.51-2.01-1.77-1.23-3.36-3.06-3.45-5.31v-2.81c.13,1.58.73,2.78,1.83,3.94,3.43,3.62,9.97,4.71,14.73,4.38,4.12-.28,9.65-1.8,12.08-5.4.63-.94.9-1.77,1-2.87Z"/>
      <path class="cls-2" d="M.74,29.51v.33c.11,2.46,2.11,4.2,3.3,5.03,5.04,3.48,12.98,3.62,18.21,1.97,3.31-1.05,6.99-3.32,7.41-6.58.02-.15.03-.42.04-.74-.11.21-.23.41-.38.62-2.45,3.63-7.98,5.25-12.34,5.55-4.66.32-11.38-.66-15.01-4.49-.52-.55-.93-1.1-1.24-1.69h0ZM15.16,38.54c-4.07,0-8.34-.92-11.51-3.11-1.3-.89-3.49-2.81-3.59-5.57v-2.83c0-.18.15-.34.33-.34.17-.02.34.13.35.32.12,1.45.64,2.57,1.73,3.73,3.25,3.42,9.6,4.61,14.47,4.27,4.18-.29,9.49-1.82,11.81-5.25.59-.87.85-1.63.95-2.71.02-.18.15-.32.36-.32.18,0,.33.16.33.34v.55c.01.9.02,2.27-.04,2.72-.58,4.49-6.19,6.6-7.88,7.14-2.12.67-4.67,1.05-7.3,1.05Z"/>
    </g>
  </g>
</svg>