<?xml version="1.0" encoding="UTF-8"?>
<svg id="Layer_2" data-name="Layer 2" xmlns="http://www.w3.org/2000/svg" viewBox="0 0 16.13 48.1" fill="currentColor">
  <defs>
    <style>
      .cls-1, .cls-2, .cls-3, .cls-4 {
        fill-rule: evenodd;
      }

      .cls-1, .cls-5 {
        fill: #fff;
      }

      .cls-2 {
        fill: #1a87c7;
      }

      .cls-3 {
        fill: #bdedf8;
      }

      .cls-4 {
        fill: #66ceef;
      }
    </style>
  </defs>
  <g id="_Layer_" data-name="&amp;lt;Layer&amp;gt;">
    <g>
      <polygon class="cls-1" points="7.5 45.88 7.5 38.79 8.51 38.79 8.51 47.79 7.5 45.88"/>
      <path class="cls-2" d="M7.81,45.8l.39.75v-7.44h-.39v6.69h0ZM8.51,48.1c-.11,0-.22-.06-.27-.17l-1.01-1.91s-.04-.1-.04-.15v-7.08c0-.17.14-.3.31-.3h1.01c.17,0,.31.14.31.3v9c0,.15-.1.27-.23.3-.03,0-.05,0-.07,0Z"/>
      <polygon class="cls-4" points="9.53 36.68 9.53 37.97 9.52 38.01 9.5 38.05 9.49 38.09 9.47 38.13 9.45 38.17 9.42 38.22 9.39 38.25 9.36 38.3 9.32 38.33 9.28 38.37 9.24 38.4 9.19 38.43 9.14 38.47 9.09 38.5 9.03 38.54 8.97 38.57 8.91 38.59 8.85 38.62 8.78 38.64 8.72 38.66 8.65 38.68 8.58 38.69 8.51 38.71 8.44 38.73 8.37 38.74 8.3 38.75 8.23 38.76 8.15 38.76 8.08 38.76 7.94 38.76 7.86 38.76 7.79 38.76 7.72 38.75 7.64 38.74 7.57 38.73 7.5 38.71 7.43 38.69 7.36 38.68 7.3 38.66 7.23 38.64 7.17 38.62 7.1 38.59 7.04 38.57 6.99 38.54 6.93 38.5 6.88 38.47 6.82 38.43 6.78 38.4 6.74 38.37 6.69 38.33 6.66 38.3 6.63 38.25 6.6 38.22 6.57 38.17 6.55 38.13 6.53 38.09 6.51 38.05 6.5 38.01 6.49 37.97 6.49 36.68 9.53 36.68"/>
      <path class="cls-2" d="M7.87,38.45l.14.31v-.31s.14.3.14.3l-.02-.3.17.29-.04-.3.18.29-.06-.3.2.27-.08-.29.21.26-.09-.29.22.25-.11-.29.23.24-.14-.28.25.22-.16-.26.26.19-.18-.24.28.18-.21-.23.29.16-.23-.21.29.13-.23-.21.31.04-.28-.13v-.94h-2.42v.98l-.2.25.27-.15-.13.3.19-.24-.11.3.17-.25-.07.32.15-.27-.03.33.13-.28v.33l.1-.29.03.33.09-.29.05.33.07-.29.07.33.05-.3.09.32.03-.3.12.31v-.3h.01ZM8,39.07h-.16s-.08,0-.08,0h-.08s-.09-.02-.09-.02c0,0-.14-.03-.15-.03l-.09-.02s-.15-.05-.15-.05c0,0-.08-.03-.08-.03l-.07-.03s-.07-.03-.07-.03c0,0-.07-.03-.07-.03,0,0-.07-.03-.07-.03,0,0-.12-.07-.12-.07,0,0-.07-.05-.07-.05-.01,0-.11-.09-.12-.1,0,0-.09-.09-.1-.09-.01-.02-.08-.11-.09-.11,0,0-.07-.1-.07-.12,0-.02-.05-.12-.05-.12,0-.03-.03-.14-.03-.17v-1.29c0-.18.14-.31.31-.31h3.04c.17,0,.31.14.31.31v1.29s-.01.09-.01.1c0,.02-.02.08-.03.09,0,.02-.04.11-.05.13,0,.01-.06.1-.07.11l-.09.1s-.09.1-.1.11c0,0-.11.08-.12.09,0,0-.06.04-.06.04l-.12.07s-.08.03-.08.03c0,0-.07.03-.07.03,0,0-.07.03-.07.03,0,0-.14.05-.14.05,0,0-.08.03-.08.03,0,0-.15.03-.15.03l-.08.02s-.08,0-.08,0h-.08s-.08.02-.08.02c0,0-.08,0-.08,0h-.16Z"/>
      <rect class="cls-5" x="1.6" y="16.68" width="12.83" height="16.31"/>
      <path class="cls-2" d="M1.9,32.67h12.21v-15.68H1.9v15.68h0ZM14.42,33.29H1.6c-.17,0-.31-.14-.31-.3v-16.31c0-.17.14-.3.31-.3h12.83c.17,0,.31.14.31.3v16.31c0,.16-.14.3-.31.3Z"/>
      <path class="cls-1" d="M3.48,30.6c2.51-1.45,6.57-1.45,9.08,0,2.51,1.45,2.51,3.8,0,5.24-2.51,1.45-6.58,1.45-9.08,0-2.51-1.44-2.51-3.79,0-5.24Z"/>
      <path class="cls-2" d="M8.02,29.82c-1.59,0-3.18.35-4.39,1.05-1.11.64-1.73,1.48-1.73,2.35s.61,1.71,1.72,2.36c2.42,1.39,6.36,1.39,8.77,0,1.11-.64,1.73-1.49,1.73-2.36s-.61-1.71-1.73-2.35c-1.21-.7-2.8-1.05-4.39-1.05h0ZM8.02,37.23c-1.7,0-3.4-.37-4.69-1.12-1.31-.76-2.04-1.78-2.04-2.89s.72-2.13,2.04-2.89c2.59-1.5,6.8-1.5,9.39,0,1.31.76,2.03,1.79,2.03,2.89s-.72,2.13-2.03,2.89c-1.29.75-2.99,1.12-4.7,1.12Z"/>
      <path class="cls-3" d="M3.48,29.5c2.51-1.45,6.57-1.45,9.08,0,2.51,1.44,2.51,3.79,0,5.24-2.51,1.45-6.58,1.45-9.08,0-2.51-1.45-2.51-3.8,0-5.24Z"/>
      <path class="cls-2" d="M8.02,28.72c-1.59,0-3.18.35-4.39,1.04-1.11.64-1.73,1.49-1.73,2.36s.61,1.71,1.72,2.35c2.42,1.4,6.36,1.4,8.77,0,1.11-.64,1.73-1.48,1.73-2.35s-.61-1.71-1.73-2.36c-1.21-.69-2.8-1.04-4.39-1.04h0ZM8.02,36.13c-1.7,0-3.4-.37-4.69-1.12-1.31-.76-2.04-1.78-2.04-2.89s.72-2.13,2.04-2.88c2.59-1.5,6.8-1.5,9.39,0,1.31.75,2.03,1.78,2.03,2.88s-.72,2.14-2.03,2.89c-1.29.75-2.99,1.12-4.7,1.12Z"/>
      <path class="cls-3" d="M2.37,31.64h11.28v-9.21c-.11.74-.65,1.46-1.64,2.03-2.21,1.28-5.79,1.28-8,0-1.02-.58-1.56-1.34-1.65-2.1v9.29Z"/>
      <path class="cls-2" d="M2.68,31.33h10.66v-7.57c-.3.36-.69.68-1.17.96-2.29,1.32-6.02,1.32-8.31,0-.49-.29-.88-.61-1.18-.96v7.58h0ZM13.65,31.95H2.37c-.08,0-.16-.03-.22-.1-.06-.05-.09-.13-.09-.21v-9.29c0-.17.13-.29.3-.3.16,0,.3.11.32.27.08.69.6,1.37,1.49,1.88,2.12,1.22,5.57,1.22,7.69-.01.86-.5,1.39-1.13,1.48-1.81.03-.16.16-.27.33-.26.16.02.29.15.29.31v9.21c0,.17-.14.31-.31.31Z"/>
      <path class="cls-4" d="M4.02,19.83c2.21-1.28,5.79-1.28,8,0,2.21,1.28,2.21,3.34,0,4.62-2.21,1.28-5.79,1.28-8,0-2.21-1.28-2.21-3.34,0-4.62Z"/>
      <path class="cls-2" d="M4.17,20.1c-.97.56-1.5,1.29-1.5,2.04s.53,1.48,1.5,2.04c2.12,1.22,5.57,1.22,7.69-.01.97-.56,1.5-1.28,1.5-2.03s-.53-1.49-1.5-2.04c-2.12-1.22-5.57-1.22-7.69,0h0ZM8.02,25.71c-1.5,0-3.01-.33-4.15-.99-1.17-.68-1.81-1.59-1.81-2.57s.64-1.9,1.81-2.58h0c2.29-1.32,6.02-1.32,8.3,0,1.17.68,1.81,1.59,1.81,2.58s-.65,1.89-1.81,2.57c-1.14.66-2.65.99-4.15.99Z"/>
      <path class="cls-4" d="M4.02,29.34c2.21-1.28,5.79-1.28,8,0,2.21,1.27,2.21,3.34,0,4.61-2.21,1.28-5.79,1.28-8,0-2.21-1.28-2.21-3.35,0-4.61Z"/>
      <path class="cls-2" d="M4.02,29.34h0,0ZM8.02,28.68c-1.39,0-2.78.3-3.84.91h0c-.97.56-1.5,1.29-1.5,2.04s.53,1.49,1.5,2.04c2.12,1.23,5.57,1.23,7.69,0,.97-.56,1.5-1.28,1.5-2.04s-.53-1.48-1.5-2.04c-1.06-.61-2.45-.91-3.84-.91h0ZM8.02,35.21c-1.5,0-3.01-.33-4.15-.99-1.17-.68-1.81-1.59-1.81-2.58s.64-1.89,1.81-2.57c2.29-1.32,6.02-1.32,8.3,0,1.17.68,1.81,1.59,1.81,2.57s-.65,1.9-1.81,2.58c-1.14.66-2.65.99-4.15.99Z"/>
      <path class="cls-1" d="M4.02,14.38c2.21-1.28,5.79-1.28,8,0,2.21,1.28,2.21,3.34,0,4.62-2.21,1.28-5.79,1.28-8,0-2.21-1.28-2.21-3.34,0-4.62Z"/>
      <path class="cls-2" d="M4.02,14.38h0,0ZM8.02,13.72c-1.39,0-2.78.3-3.84.92h0c-.97.56-1.5,1.28-1.5,2.04s.53,1.48,1.5,2.03c2.12,1.22,5.57,1.22,7.69,0,.97-.56,1.5-1.28,1.5-2.03s-.53-1.49-1.5-2.04c-1.06-.62-2.45-.92-3.84-.92h0ZM8.02,20.25c-1.5,0-3.01-.33-4.15-.99-1.17-.68-1.81-1.59-1.81-2.57s.64-1.9,1.81-2.58c2.29-1.32,6.02-1.32,8.3,0,1.17.68,1.81,1.59,1.81,2.58s-.65,1.89-1.81,2.57c-1.14.66-2.65.99-4.15.99Z"/>
      <path class="cls-4" d="M8.06,24.12c-1.44,0-2.87-.31-3.97-.95-1.09-.62-1.64-1.46-1.64-2.28s.55-1.66,1.64-2.29c1.1-.63,2.53-.95,3.97-.95s2.87.31,3.96.95c1.09.63,1.64,1.46,1.64,2.29s-.55,1.66-1.64,2.28c-1.09.63-2.53.95-3.96.95Z"/>
      <path class="cls-2" d="M8.06,17.96c-1.44,0-2.8.32-3.81.9-.96.56-1.49,1.28-1.49,2.02s.53,1.47,1.49,2.03c1.01.58,2.37.9,3.81.9s2.8-.32,3.81-.9c.96-.56,1.49-1.28,1.49-2.03s-.53-1.47-1.49-2.02c-1.01-.58-2.37-.9-3.81-.9h0ZM8.06,24.43c-1.55,0-3.02-.36-4.12-.99-1.16-.67-1.8-1.57-1.8-2.55s.64-1.89,1.8-2.55c1.1-.64,2.57-.99,4.12-.99s3.01.36,4.12.99c1.16.67,1.8,1.57,1.8,2.55s-.64,1.89-1.8,2.55c-1.11.63-2.57.99-4.12.99Z"/>
      <path class="cls-3" d="M.31,18.5v-1.76c.16,2.49,3.27,3.76,5.37,4.16,2.8.52,6.66.13,8.86-1.8.7-.62,1.22-1.38,1.28-2.36v1.76c-.05,1.65-1.63,2.82-3.01,3.44-.58.25-1.2.46-1.82.6-1.94.44-3.9.44-5.84,0-1.96-.46-4.69-1.72-4.84-4.04Z"/>
      <path class="cls-2" d="M.62,18.5c.13,2.01,2.46,3.25,4.6,3.75,1.89.42,3.8.42,5.7,0,.62-.15,1.23-.35,1.76-.59.65-.29,2.77-1.37,2.83-3.16h0c-.2.29-.46.57-.76.84-2.31,2.02-6.35,2.38-9.13,1.87-1.85-.35-3.97-1.23-5-2.71h0ZM8.06,23.18c-1,0-2-.1-2.99-.33C2.72,22.29.15,20.87,0,18.52v-1.77c0-.16.13-.3.3-.31.15-.03.31.13.32.3.13,2.17,2.84,3.44,5.11,3.87,2.63.49,6.45.16,8.61-1.73.73-.63,1.12-1.35,1.17-2.14,0-.16.13-.32.32-.3.17.01.3.15.3.31v1.76c-.06,2.09-2.25,3.3-3.19,3.72-.58.26-1.21.47-1.88.63-.99.23-1.99.33-2.99.33Z"/>
      <path class="cls-3" d="M2.45,16.71c0,.42.14.84.43,1.24.27.38.68.74,1.22,1.05.54.31,1.16.55,1.82.7.69.17,1.42.24,2.15.24s1.46-.08,2.15-.24c.66-.16,1.28-.39,1.82-.7.54-.31.94-.67,1.22-1.05.29-.39.43-.82.43-1.24s-.14-.85-.43-1.24c-.27-.38-.68-.74-1.22-1.05-.54-.3-1.15-.54-1.82-.7-.69-.16-1.42-.24-2.15-.24s-1.46.09-2.15.24c-.66.16-1.28.4-1.82.7-.54.31-.94.67-1.22,1.05-.28.39-.43.82-.43,1.24h0ZM8.06,21.19c-1.99,0-3.97-.44-5.49-1.31-1.51-.88-2.27-2.03-2.27-3.16s.76-2.29,2.27-3.17c1.52-.87,3.5-1.31,5.49-1.31s3.97.44,5.48,1.31c1.51.88,2.27,2.02,2.27,3.17s-.76,2.29-2.27,3.16c-1.51.87-3.5,1.31-5.48,1.31h0Z"/>
      <path class="cls-2" d="M8.06,13.78c-.72,0-1.42.08-2.08.24-.65.16-1.24.38-1.74.67-.49.28-.86.61-1.12.97-.25.34-.37.69-.37,1.06s.12.71.37,1.06c.25.36.63.68,1.12.96.5.29,1.08.51,1.73.67,1.32.32,2.84.32,4.15,0,.65-.15,1.23-.38,1.73-.67.49-.28.86-.6,1.12-.96.24-.34.37-.7.37-1.06s-.12-.72-.37-1.07c-.26-.35-.63-.68-1.12-.96-.5-.29-1.08-.51-1.73-.67-.66-.16-1.36-.24-2.07-.24h0ZM8.06,20.26c-.77,0-1.52-.09-2.22-.26-.71-.17-1.35-.42-1.9-.73-.56-.33-1.01-.71-1.32-1.14-.31-.44-.48-.93-.48-1.42s.16-.97.48-1.43c.31-.42.75-.81,1.32-1.13.55-.32,1.19-.57,1.9-.74,1.41-.34,3.03-.34,4.44,0,.71.16,1.35.42,1.9.74.56.32,1.01.7,1.31,1.13.32.45.49.93.49,1.43s-.17.97-.49,1.42c-.31.43-.75.81-1.31,1.14-.55.31-1.19.56-1.9.73-.7.18-1.45.26-2.22.26h0ZM8.06,12.54c2.02,0,3.91.45,5.33,1.27,1.37.79,2.12,1.82,2.12,2.9s-.75,2.1-2.12,2.9c-1.42.82-3.31,1.27-5.33,1.27s-3.91-.45-5.33-1.27c-1.37-.78-2.12-1.82-2.12-2.9s.75-2.11,2.12-2.9c1.42-.81,3.31-1.27,5.33-1.27h0ZM8.06,21.49c-2.12,0-4.13-.48-5.64-1.35-1.56-.9-2.43-2.13-2.43-3.43s.86-2.53,2.43-3.43c1.51-.88,3.51-1.36,5.64-1.36s4.13.48,5.64,1.36c1.57.9,2.43,2.12,2.43,3.43s-.86,2.53-2.43,3.43c-1.51.87-3.51,1.35-5.64,1.35Z"/>
      <path class="cls-4" d="M5.06,19.44V4.88h6.01v14.55c-.94.35-2.02.52-3.09.51h-.08c-.68-.02-1.34-.09-1.98-.24-.29-.07-.58-.16-.85-.26Z"/>
      <path class="cls-2" d="M5.37,19.22c.2.07.41.12.62.17.6.15,1.25.23,1.91.24,1.06.04,2.02-.14,2.86-.42V5.19h-5.39v14.04h0ZM8.02,20.25h-.13c-.71-.01-1.4-.1-2.05-.25-.3-.07-.6-.15-.89-.27-.12-.05-.2-.16-.2-.29V4.88c0-.17.14-.31.31-.31h6.01c.17,0,.31.14.31.31v14.55c0,.13-.08.24-.2.29-.94.35-2.03.53-3.15.53Z"/>
      <path class="cls-4" d="M1.01,6.08v-1.6c.14,2.27,2.97,3.42,4.88,3.77,2.55.48,6.06.12,8.06-1.63.64-.57,1.1-1.26,1.16-2.14v1.6c-.05,1.55-1.59,2.64-2.88,3.18-2.88,1.23-7.38,1.08-9.86-.87-.73-.58-1.3-1.34-1.36-2.31Z"/>
      <path class="cls-2" d="M1.33,6.17c.08.73.49,1.4,1.23,1.98,2.5,1.95,6.9,1.95,9.55.83.61-.26,2.57-1.22,2.69-2.82-.18.24-.39.48-.64.69-2.11,1.85-5.79,2.18-8.32,1.71-1.66-.31-3.55-1.1-4.51-2.39h0ZM8.02,10.35c-2.12,0-4.31-.51-5.83-1.72-.92-.72-1.42-1.57-1.48-2.53t0-.02v-1.6c0-.17.13-.31.3-.32.16-.03.31.12.32.3.12,1.96,2.57,3.11,4.63,3.49,2.39.44,5.85.14,7.81-1.56.67-.58,1.01-1.22,1.06-1.93,0-.17.17-.33.32-.3.16,0,.3.15.3.32v1.6c-.06,2.04-2.37,3.17-3.07,3.47-1.2.51-2.75.8-4.34.8Z"/>
      <path class="cls-4" d="M8.06,8.46c-1.81,0-3.61-.4-4.99-1.19-1.38-.8-2.06-1.84-2.06-2.88s.69-2.08,2.06-2.88c1.38-.79,3.18-1.19,4.99-1.19s3.61.4,4.99,1.19c1.38.8,2.06,1.84,2.06,2.88s-.69,2.09-2.06,2.88c-1.38.79-3.18,1.19-4.99,1.19Z"/>
      <path class="cls-2" d="M8.06.62c-1.83,0-3.55.41-4.84,1.16-1.23.71-1.91,1.63-1.91,2.61s.68,1.9,1.91,2.62c1.29.75,3.01,1.16,4.84,1.16s3.55-.41,4.83-1.16c1.23-.71,1.91-1.64,1.91-2.62s-.68-1.89-1.91-2.61c-1.29-.75-3.01-1.16-4.83-1.16h0ZM8.06,8.76c-1.94,0-3.76-.43-5.14-1.23-1.43-.83-2.22-1.94-2.22-3.15s.79-2.31,2.22-3.15c1.38-.79,3.2-1.23,5.14-1.23s3.76.44,5.14,1.24c1.43.83,2.22,1.94,2.22,3.14s-.79,2.32-2.22,3.15c-1.38.8-3.2,1.23-5.14,1.23Z"/>
      <path class="cls-4" d="M8.06,7.28c-1.15,0-2.3-.26-3.18-.76-.88-.51-1.32-1.17-1.32-1.83s.44-1.33,1.32-1.83c.88-.51,2.03-.77,3.18-.77s2.3.25,3.18.77c.88.5,1.32,1.16,1.32,1.83s-.44,1.33-1.32,1.83c-.88.5-2.03.76-3.18.76Z"/>
      <path class="cls-2" d="M8.06,2.38c-1.15,0-2.22.26-3.03.72-.75.43-1.16.99-1.16,1.58s.41,1.14,1.16,1.56c.8.47,1.88.72,3.03.72s2.22-.25,3.03-.72c.75-.43,1.16-.99,1.16-1.56s-.41-1.14-1.16-1.58c-.8-.46-1.88-.72-3.03-.72h0ZM8.06,7.58c-1.26,0-2.44-.29-3.34-.8-.95-.55-1.47-1.3-1.47-2.1s.52-1.56,1.47-2.1c.9-.52,2.08-.8,3.34-.8s2.44.28,3.33.8c.95.55,1.47,1.29,1.47,2.1s-.52,1.56-1.47,2.1c-.9.51-2.08.8-3.34.8Z"/>
    </g>
  </g>
</svg>