<?xml version="1.0" encoding="UTF-8"?>
<svg id="Layer_2" data-name="Layer 2" xmlns="http://www.w3.org/2000/svg" viewBox="0 0 68.62 83.2" fill="currentColor">
  <defs>
    <style>
      .cls-1 {
        fill: #fff;
      }

      .cls-1, .cls-2, .cls-3, .cls-4 {
        fill-rule: evenodd;
      }

      .cls-2 {
        fill: #1a87c7;
      }

      .cls-3 {
        fill: #bdedf8;
      }

      .cls-4 {
        fill: #66ceef;
      }
    </style>
  </defs>
  <g id="_Layer_" data-name="&amp;lt;Layer&amp;gt;">
    <g>
      <path class="cls-3" d="M19.53,33.07L2.34,42.99c-1.06.73-1.62,1.7-1.72,2.99v18.77c.05.54.08.75.51,1.12l9.85,5.69c-.43-.35-.46-.58-.5-1.12v-18.77c.1-1.28.65-2.24,1.72-2.99l17.19-9.92v-19.85c.11-1.28.66-2.24,1.72-2.97l16.25-9.39c.5-.23.7-.31,1.22-.12L38.73.73c-.52-.21-.73-.12-1.22.11l-16.25,9.39c-1.06.75-1.62,1.71-1.72,2.99v19.85h0ZM49.09,27.38l-9.86-5.69,17.19-9.92c.49-.22.7-.31,1.22-.12l9.85,5.68c-.52-.19-.72-.1-1.22.13l-17.19,9.92h0ZM29.89,82.47l-9.86-5.68c-.43-.35-.45-.57-.5-1.11v-19.85l9.85,5.68v19.85c.05.54.08.76.51,1.11h0Z"/>
      <path class="cls-2" d="M40.47,21.7l8.62,4.97,16.67-9.63-8.42-4.87c-.2-.05-.2-.05-.65.16l-16.21,9.37h0ZM49.09,27.99c-.11,0-.21-.02-.31-.07l-9.86-5.7c-.19-.1-.31-.31-.31-.52,0-.22.12-.43.31-.54l17.2-9.92c.57-.26.98-.45,1.74-.16l9.95,5.72c.28.17.39.52.25.8-.14.3-.48.44-.78.31-.29-.11-.29-.11-.74.1l-17.14,9.91c-.09.05-.2.07-.3.07h0ZM19.53,33.07h.02-.02ZM38.26,1.22c.05,0,.1.02.17.04l8.42,4.87-16.09,9.3c-1.22.83-1.87,1.96-1.99,3.47v19.5l-16.93,9.77c-1.21.85-1.87,1.96-1.99,3.49v18.53l-8.34-4.82q-.24-.19-.28-.63v-18.72c.09-1.09.56-1.91,1.41-2.5l17.19-9.92c.19-.12.31-.31.31-.54V13.27c.09-1.09.55-1.89,1.42-2.5L37.77,1.41c.29-.14.39-.19.48-.19h0ZM10.98,72.16c-.11,0-.21-.02-.31-.07l-9.85-5.7c-.69-.55-.75-.96-.81-1.58v-18.83c.12-1.53.78-2.66,1.99-3.5l16.92-9.77V13.21c.13-1.53.78-2.64,1.99-3.49L37.21.31c.62-.29,1.01-.45,1.74-.15l9.94,5.72c.28.16.38.5.25.8-.14.29-.48.42-.78.31-.28-.11-.29-.11-.74.1l-16.2,9.35c-.86.61-1.33,1.41-1.41,2.5v19.8c0,.23-.12.43-.31.54l-17.19,9.93c-.86.61-1.33,1.41-1.42,2.51v18.72q.05.43.28.64c.25.19.3.56.12.82-.12.17-.31.26-.5.26h0ZM20.15,56.88v18.79c.05.43.05.45.28.64l8.34,4.8v-19.24s-8.62-4.99-8.62-4.99h0ZM29.89,83.09c.19,0,.38-.1.5-.26.18-.28.14-.63-.12-.84-.24-.19-.24-.2-.28-.64v-19.85c0-.21-.12-.42-.31-.52l-9.86-5.7c-.19-.11-.42-.11-.61,0-.19.12-.31.31-.31.53v19.91c.06.62.13,1.04.82,1.6l9.85,5.69c.1.05.2.08.31.08Z"/>
      <path class="cls-3" d="M47.36,72.98l-16.25,9.37c-.95.55-1.72.1-1.72-.99v-19.85l-17.19,9.93c-.95.55-1.72.1-1.72-1v-18.77c0-1.09.77-2.43,1.72-2.99l17.19-9.92v-19.85c0-1.1.77-2.44,1.72-2.97l16.25-9.39c.95-.56,1.73-.11,1.73.99v19.85l17.19-9.92c.95-.56,1.72-.11,1.72.99v18.77c0,1.1-.77,2.43-1.72,2.99l-17.19,9.93v19.85c0,1.09-.78,2.44-1.73,2.99Z"/>
      <path class="cls-2" d="M29.39,60.9c.11,0,.21.02.31.09.19.1.31.31.31.52v19.85c0,.29.07.52.19.59.13.07.36.02.61-.13l16.25-9.38h0c.75-.43,1.41-1.58,1.41-2.45v-19.85c0-.23.12-.44.31-.54l17.19-9.93c.75-.43,1.42-1.58,1.42-2.45v-18.77c0-.28-.07-.51-.19-.58-.13-.07-.36-.03-.61.13l-17.19,9.92c-.19.11-.42.11-.61,0-.19-.12-.31-.31-.31-.54V7.53c0-.29-.07-.5-.2-.57-.12-.07-.35-.04-.6.1l-16.26,9.39c-.75.43-1.41,1.58-1.41,2.45v19.85c0,.23-.12.43-.31.54l-17.19,9.93c-.75.44-1.42,1.58-1.42,2.45v18.77c0,.28.08.51.2.58.13.07.35.04.6-.1l17.19-9.92c.1-.07.2-.09.31-.09h0ZM30.34,83.2c-.27,0-.53-.05-.75-.19-.52-.3-.82-.91-.82-1.65v-18.77l-16.26,9.38c-.65.37-1.32.42-1.83.12-.52-.29-.81-.9-.81-1.65v-18.77c0-1.32.89-2.85,2.03-3.51l16.88-9.76v-19.5c0-1.31.9-2.85,2.04-3.51l16.25-9.38c.65-.37,1.32-.42,1.83-.13.51.3.81.91.81,1.65v18.8l16.27-9.41c.64-.37,1.32-.42,1.83-.12.52.31.81.9.81,1.65v18.77c0,1.32-.89,2.87-2.03,3.51l-16.88,9.75v19.5c0,1.3-.9,2.85-2.03,3.51l-16.26,9.39c-.36.2-.73.31-1.08.31Z"/>
      <path class="cls-4" d="M10.5,51.3L.65,45.62l-.03.37v18.77c.05.54.08.75.51,1.12l9.85,5.69c-.43-.35-.46-.58-.5-1.12v-18.77l.03-.36Z"/>
      <path class="cls-2" d="M1.23,46.68v18.08q.05.44.28.63l8.34,4.82v-18.55l-8.63-4.97h0ZM10.98,72.16c-.11,0-.21-.02-.31-.07l-9.85-5.7c-.69-.55-.75-.96-.81-1.58v-18.83s.03-.42.03-.42c.02-.21.14-.4.33-.49.18-.1.41-.1.59.02l9.86,5.68c.2.12.33.35.3.58l-.03.37v18.72q.05.43.28.64c.25.19.3.56.12.82-.12.17-.31.26-.5.26Z"/>
      <path class="cls-4" d="M11.12,71.62v-19.96l-.63-.36c-.02.12-.02.24-.02.36v18.77c0,.63.25,1.04.65,1.18Z"/>
      <path class="cls-2" d="M11.12,72.23c-.07,0-.14,0-.2-.04-.67-.23-1.07-.89-1.07-1.76v-18.77c0-.14.01-.29.03-.45.03-.19.16-.36.34-.47.18-.09.4-.07.58.03l.63.35c.19.12.3.31.3.53v19.96c0,.19-.1.38-.26.5-.1.07-.23.11-.36.11Z"/>
      <path class="cls-4" d="M11.12,71.62v-19.96l-.63-.36c-.02.12-.02.24-.02.36v18.77c0,.63.25,1.04.65,1.18Z"/>
      <path class="cls-2" d="M11.12,72.23c-.07,0-.14,0-.2-.04-.67-.23-1.07-.89-1.07-1.76v-18.77c0-.14.01-.29.03-.45.03-.19.16-.36.34-.47.18-.09.4-.07.58.03l.63.35c.19.12.3.31.3.53v19.96c0,.19-.1.38-.26.5-.1.07-.23.11-.36.11Z"/>
      <path class="cls-4" d="M19.53,33.07l9.85,5.68v-19.85c.05-.54.1-.77.29-1.27l-9.85-5.69c-.19.5-.25.73-.29,1.27v19.85Z"/>
      <path class="cls-2" d="M20.15,33.07h.02-.02ZM20.15,32.72l8.62,4.97v-18.79c.04-.42.08-.7.17-.99l-8.74-5.04c-.02.12-.04.24-.05.4v19.45h0ZM29.39,39.38c-.11,0-.21-.04-.31-.09l-9.85-5.68c-.19-.12-.31-.31-.31-.54V13.21c.05-.66.13-.94.34-1.49.06-.16.19-.3.37-.37.17-.05.36-.04.51.05l9.85,5.68c.26.16.38.47.27.75-.17.47-.21.64-.25,1.11v19.8c0,.23-.12.43-.31.54-.09.05-.2.09-.31.09Z"/>
      <path class="cls-4" d="M29.89,82.47l-9.86-5.68c-.43-.35-.46-.57-.5-1.11v-19.85l9.85,5.68v19.85c.05.54.08.76.51,1.11Z"/>
      <path class="cls-2" d="M20.15,56.88v18.79c.04.42.05.43.28.64l8.34,4.8v-19.24s-8.62-4.99-8.62-4.99h0ZM29.89,83.09c-.11,0-.21-.03-.31-.08l-9.85-5.69c-.69-.56-.76-.97-.81-1.6v-19.91c0-.23.12-.41.3-.53.19-.11.42-.11.61,0l9.86,5.7c.19.1.31.31.31.52v19.85c.04.43.04.45.28.64.25.21.3.56.12.84-.12.16-.31.26-.5.26Z"/>
      <path class="cls-1" d="M47.36,72.98l-16.25,9.37c-.95.55-1.72.1-1.72-.99v-19.85l-17.19,9.93c-.95.55-1.72.1-1.72-1v-18.77c0-1.09.77-2.43,1.72-2.99l17.19-9.92v-19.85c0-1.1.77-2.44,1.72-2.97l16.25-9.39c.95-.56,1.73-.11,1.73.99v19.85l17.19-9.92c.95-.56,1.72-.11,1.72.99v18.77c0,1.1-.77,2.43-1.72,2.99l-17.19,9.93v19.85c0,1.09-.78,2.44-1.73,2.99Z"/>
      <path class="cls-2" d="M29.39,60.9c.11,0,.21.02.31.09.19.1.31.31.31.52v19.85c0,.29.07.52.19.59.13.07.36.02.61-.13l16.25-9.38h0c.75-.43,1.41-1.58,1.41-2.45v-19.85c0-.23.12-.44.31-.54l17.19-9.93c.75-.43,1.42-1.58,1.42-2.45v-18.77c0-.28-.07-.51-.19-.58-.13-.07-.36-.03-.61.13l-17.19,9.92c-.19.11-.42.11-.61,0-.19-.12-.31-.31-.31-.54V7.53c0-.29-.07-.5-.2-.57-.12-.07-.35-.04-.6.1l-16.26,9.39c-.75.43-1.41,1.58-1.41,2.45v19.85c0,.23-.12.43-.31.54l-17.19,9.93c-.75.44-1.42,1.58-1.42,2.45v18.77c0,.28.08.51.2.58.13.07.35.04.6-.1l17.19-9.92c.1-.07.2-.09.31-.09h0ZM30.34,83.2c-.27,0-.53-.05-.75-.19-.52-.3-.82-.91-.82-1.65v-18.77l-16.26,9.38c-.65.37-1.32.42-1.83.12-.52-.29-.81-.9-.81-1.65v-18.77c0-1.32.89-2.85,2.03-3.51l16.88-9.76v-19.5c0-1.31.9-2.85,2.04-3.51l16.25-9.38c.65-.37,1.32-.42,1.83-.13.51.3.81.91.81,1.65v18.8l16.27-9.41c.64-.37,1.32-.42,1.83-.12.52.31.81.9.81,1.65v18.77c0,1.32-.89,2.87-2.03,3.51l-16.88,9.75v19.5c0,1.3-.9,2.85-2.03,3.51l-16.26,9.39c-.36.2-.73.31-1.08.31Z"/>
    </g>
  </g>
</svg>