<?xml version="1.0" encoding="UTF-8"?>
<svg id="Layer_2" data-name="Layer 2" xmlns="http://www.w3.org/2000/svg" viewBox="0 0 20.42 42.31" fill="currentColor">
  <defs>
    <style>
      .cls-1 {
        fill: #fff;
      }

      .cls-1, .cls-2, .cls-3, .cls-4 {
        fill-rule: evenodd;
      }

      .cls-2 {
        fill: #1a87c7;
      }

      .cls-3 {
        fill: #bdedf8;
      }

      .cls-4 {
        fill: #66ceef;
      }
    </style>
  </defs>
  <g id="_Layer_" data-name="&amp;lt;Layer&amp;gt;">
    <g>
      <polygon class="cls-3" points="17.37 .7 17.59 .31 20.1 1.76 19.88 2.15 18.89 2.73 16.37 1.27 17.37 .7"/>
      <path class="cls-2" d="M17.37.7h.01-.01ZM16.98,1.27l1.9,1.1.8-.5-1.98-1.14-.08.13s-.06.08-.11.11l-.53.31h0ZM18.89,3.04c-.06,0-.11-.02-.16-.04l-2.51-1.45c-.09-.06-.16-.16-.16-.27s.06-.21.16-.27l.92-.53.19-.33c.08-.15.27-.19.42-.11l2.51,1.45c.07.04.12.11.15.19.02.08.01.16-.03.23l-.23.4s-.07.08-.11.11l-1,.58s-.09.04-.15.04Z"/>
      <path class="cls-3" d="M2.82,42l-2.51-1.45V9.94l.51.29,1.01-.57,1.01-1.72,1,.56,1.13-.65,1-1.72,1,.56,1.13-.66,1.01-1.72.99.56,1.14-.65,1-1.72,1,.56,1.13-.65,1-1.72,2.52,1.45-1,1.72-1.14.66-1-.56-1,1.72-1.13.65-1-.56-1,1.72-1.14.65-1-.56-1,1.72-1.13.66-1-.56-1,1.72-1.02.57-.51-.29v30.61Z"/>
      <path class="cls-2" d="M.62,40.37l1.89,1.1V11.4c0-.11.06-.21.15-.27.1-.05.21-.05.3,0l.37.2.79-.44.96-1.64c.09-.14.27-.19.42-.11l.85.47.9-.53.96-1.65c.08-.15.27-.19.42-.11l.84.48.91-.53.95-1.65c.09-.15.27-.2.42-.11l.84.47.91-.52.96-1.65c.09-.15.28-.2.42-.11l.85.48.91-.53.8-1.38-1.98-1.14-.84,1.45s-.06.08-.12.11l-1.13.66c-.09.05-.21.05-.3,0l-.74-.42-.85,1.46s-.06.08-.11.11l-1.13.65c-.09.06-.21.06-.3,0l-.74-.41-.84,1.46s-.07.08-.11.11l-1.13.65c-.09.05-.21.06-.3,0l-.74-.41-.84,1.45s-.07.09-.11.11l-1.14.65c-.1.05-.21.05-.3,0l-.73-.41-.85,1.45s-.07.09-.11.11l-1.02.57c-.09.05-.2.05-.29,0l-.06-.03v29.9h0ZM2.82,42.31c-.05,0-.11-.01-.16-.04l-2.51-1.45c-.1-.05-.16-.15-.16-.27V9.94c0-.11.06-.21.16-.26.09-.06.21-.06.3,0l.36.2.79-.44.96-1.64c.09-.15.27-.2.42-.12l.84.48.91-.53.96-1.65c.09-.15.28-.19.42-.11l.85.47.9-.52.97-1.64c.09-.15.27-.2.42-.11l.84.47.91-.53.96-1.65c.09-.15.28-.19.42-.11l.85.48.91-.53.96-1.65c.09-.15.27-.2.42-.11l2.51,1.45c.07.04.12.11.15.19.02.08,0,.16-.03.23l-1,1.71s-.06.09-.11.11l-1.13.65c-.1.06-.21.06-.3,0l-.74-.41-.84,1.46s-.07.08-.11.11l-1.14.65c-.09.06-.21.06-.3,0l-.73-.41-.85,1.45s-.06.08-.12.11l-1.13.65c-.09.05-.21.06-.3,0l-.74-.41-.84,1.45s-.07.09-.11.11l-1.14.65c-.09.06-.2.06-.3,0l-.73-.41-.85,1.45s-.07.09-.11.12l-1.01.57c-.1.05-.21.05-.3,0l-.06-.03v30.08c0,.11-.05.21-.15.26-.05.03-.1.04-.16.04Z"/>
      <path class="cls-1" d="M20.1,31.68l-.23-.13-.99.57-1,1.72-1-.56-1.14.66-1,1.72-1-.56-1.13.66-1,1.71-1-.56-1.14.66-1,1.72-1-.56-1.13.65-1,1.72-1-.56-1.02.6-.51.89V11.4l.51.29,1.02-.57,1-1.72,1,.56,1.13-.66,1-1.72,1,.56,1.14-.65,1-1.72,1,.56,1.13-.65,1-1.72,1,.56,1.14-.66,1-1.71,1,.56.99-.57.23-.4v29.93Z"/>
      <path class="cls-2" d="M3.13,11.92v28.97s.03-.03.05-.04l1.02-.6c.09-.06.21-.06.3,0l.74.41.84-1.45s.07-.09.11-.11l1.13-.66c.1-.06.22-.06.31,0l.73.42.85-1.45s.06-.09.11-.11l1.13-.66c.1-.05.21-.05.3,0l.74.41.84-1.45s.07-.08.11-.11l1.13-.65c.09-.06.21-.06.3,0l.74.41.85-1.46s.06-.08.11-.11l1.13-.66c.1-.05.21-.05.3,0l.73.41.85-1.45s.06-.08.11-.11l.99-.57s.05-.03.08-.03V2.55l-.76.44c-.09.05-.21.06-.3,0l-.73-.41-.85,1.45s-.06.09-.11.11l-1.13.65c-.1.06-.21.06-.3,0l-.74-.41-.84,1.45s-.07.08-.11.11l-1.14.65c-.09.06-.21.06-.3,0l-.73-.41-.85,1.45s-.06.09-.12.11l-1.13.65c-.09.05-.21.06-.3,0l-.74-.41-.84,1.45s-.07.09-.11.11l-1.14.65c-.09.06-.2.06-.3,0l-.73-.41-.85,1.45s-.07.09-.11.12l-1.01.57c-.1.06-.21.06-.3,0l-.06-.03h0ZM2.82,42.31s-.05,0-.08-.01c-.14-.04-.23-.16-.23-.3V11.4c0-.11.06-.21.15-.27.1-.05.21-.05.3,0l.37.2.79-.44.96-1.64c.09-.14.27-.19.42-.11l.85.47.9-.53.96-1.65c.08-.15.27-.19.42-.11l.84.48.91-.53.95-1.65c.09-.15.27-.2.42-.11l.84.47.91-.52.96-1.65c.09-.14.28-.2.42-.11l.85.48.91-.53.96-1.65c.09-.15.27-.2.42-.11l.84.48.78-.45.19-.32c.07-.12.21-.18.35-.14.13.04.22.16.22.3v29.93c0,.11-.06.21-.16.26-.1.06-.21.06-.3,0l-.08-.04-.77.45-.96,1.65c-.09.14-.27.19-.42.11l-.84-.48-.91.53-.96,1.64c-.09.15-.28.19-.42.12l-.85-.48-.9.53-.96,1.64c-.08.14-.27.2-.42.11l-.84-.47-.91.52-.95,1.65c-.09.14-.28.19-.42.11l-.85-.48-.9.53-.96,1.65c-.08.14-.27.19-.42.11l-.84-.47-.79.47-.47.81c-.06.09-.17.15-.27.15Z"/>
      <path class="cls-2" d="M16.65,9.97c-.11,0-.21-.05-.27-.15-.09-.14-.04-.34.11-.42l1.27-.74c.15-.08.34-.03.42.12.08.15.04.34-.11.42l-1.28.73s-.1.04-.15.04Z"/>
      <path class="cls-2" d="M4.92,26.02c-.11,0-.21-.05-.26-.15-.09-.14-.03-.34.11-.42l13.08-7.55c.15-.08.34-.04.42.11.09.15.04.33-.11.42l-13.08,7.55s-.09.04-.15.04Z"/>
      <path class="cls-2" d="M4.92,23.01c-.11,0-.21-.05-.26-.15-.09-.15-.03-.34.11-.42l12.1-6.98c.14-.08.33-.03.42.12.09.15.04.33-.11.42l-12.1,6.98s-.09.04-.15.04Z"/>
      <path class="cls-2" d="M4.92,29.21c-.11,0-.21-.06-.26-.16-.09-.15-.03-.33.11-.42l10.3-5.95c.15-.08.34-.03.43.11.08.15.03.34-.11.42l-10.31,5.95s-.09.04-.15.04Z"/>
      <path class="cls-2" d="M4.92,36.37c-.11,0-.21-.06-.26-.15-.09-.15-.03-.34.11-.42l5.15-2.97c.14-.09.33-.04.42.11.09.15.03.33-.11.42l-5.16,2.97s-.09.04-.15.04Z"/>
      <path class="cls-2" d="M15.37,30.33c-.1,0-.21-.06-.26-.15-.09-.15-.03-.33.11-.42l2.54-1.47c.15-.08.34-.04.42.11.08.15.04.34-.11.42l-2.55,1.47c-.05.03-.11.04-.16.04Z"/>
      <path class="cls-2" d="M4.92,14.02c-.11,0-.21-.06-.26-.15-.09-.15-.03-.34.11-.42l3.95-2.28c.15-.08.34-.03.43.11.09.15.03.34-.11.42l-3.96,2.28s-.09.04-.15.04Z"/>
      <path class="cls-2" d="M4.92,16.74c-.11,0-.21-.05-.26-.15-.09-.15-.03-.33.11-.42l7.35-4.24c.15-.08.33-.03.42.12.09.15.03.34-.11.42l-7.35,4.24s-.09.04-.15.04Z"/>
      <path class="cls-2" d="M13.57,9.03c-.11,0-.21-.05-.26-.15-.09-.15-.03-.34.11-.42l4.35-2.51c.15-.09.34-.04.42.11.08.15.04.34-.11.42l-4.35,2.51c-.05.03-.1.04-.15.04Z"/>
      <path class="cls-4" d="M.31,9.94v30.6l2.51,1.45V11.4l-2.51-1.45Z"/>
      <path class="cls-2" d="M.62,40.37l1.89,1.1V11.57l-1.89-1.1v29.89h0ZM2.82,42.31c-.05,0-.11-.01-.16-.04l-2.51-1.45c-.1-.05-.16-.15-.16-.27V9.94c0-.11.06-.21.16-.27.09-.06.22-.06.3,0l2.52,1.45c.09.06.15.16.15.27v30.61c0,.11-.05.21-.15.26-.05.03-.1.04-.16.04Z"/>
      <path class="cls-2" d="M14.75,4.28c-.05,0-.1-.02-.16-.04l-2.51-1.45c-.15-.08-.19-.27-.11-.42.09-.15.28-.2.43-.11l2.51,1.45c.15.09.2.28.11.42-.06.1-.16.16-.27.16Z"/>
      <path class="cls-2" d="M11.62,6.09c-.05,0-.1-.01-.16-.04l-2.51-1.45c-.15-.09-.2-.27-.11-.42.09-.15.27-.2.42-.12l2.51,1.45c.15.09.2.28.11.42-.05.1-.16.16-.26.16Z"/>
      <path class="cls-2" d="M8.48,7.9c-.05,0-.11-.01-.15-.04l-2.52-1.45c-.15-.08-.19-.27-.11-.42.09-.15.28-.2.43-.11l2.51,1.45c.15.08.2.27.11.42-.06.1-.17.15-.27.15Z"/>
      <path class="cls-2" d="M5.35,9.71c-.05,0-.1-.01-.15-.04l-2.51-1.45c-.15-.09-.2-.28-.11-.42.09-.15.27-.2.42-.11l2.51,1.45c.15.09.2.27.11.42-.05.1-.16.16-.26.16Z"/>
    </g>
  </g>
</svg>