<?xml version="1.0" encoding="UTF-8"?>
<svg id="Layer_2" data-name="Layer 2" xmlns="http://www.w3.org/2000/svg" viewBox="0 0 68.53 82.35" fill="currentColor">
  <defs>
    <style>
      .cls-1 {
        fill: #fff;
      }

      .cls-1, .cls-2, .cls-3, .cls-4 {
        fill-rule: evenodd;
      }

      .cls-2 {
        fill: #1a87c7;
      }

      .cls-3 {
        fill: #bdedf8;
      }

      .cls-4 {
        fill: #66ceef;
      }
    </style>
  </defs>
  <g id="_Layer_" data-name="&amp;lt;Layer&amp;gt;">
    <g>
      <path class="cls-4" d="M21.27,73.18l-8.23-4.74c9.64,5.41,21.64-3.66,27.72-10.65,8.54-9.76,16.09-26.41,12.84-39.37-.94-3.82-2.88-7.18-6.34-9.23l8.65,4.99c8.65,5.49,7.28,19.39,4.61,27.92-3.98,12.64-14.72,27.94-27.77,31.88-3.88,1.16-7.86,1.22-11.48-.81Z"/>
      <path class="cls-2" d="M21.58,72.65c3.09,1.75,6.81,2,10.95.74,12.68-3.81,23.37-18.72,27.35-31.47,2.99-9.41,3.61-22.18-4.35-27.22l-3.88-2.26c1.15,1.62,1.99,3.57,2.57,5.83,3.35,13.42-4.4,30.1-13,39.93-5.92,6.77-14.88,13.22-23.11,12.45l3.46,2h0ZM27.61,75.42c-2.41,0-4.66-.57-6.65-1.7h0s-8.23-4.74-8.23-4.74c-.26-.17-.37-.55-.21-.84.16-.29.58-.39.84-.24,9.38,5.28,21.38-4.12,26.99-10.52,8.65-9.89,15.77-26.4,12.68-38.82-1.05-4.09-3.04-7.07-6.08-8.85-.26-.17-.37-.55-.21-.84.16-.29.58-.39.84-.22l8.65,4.99c8.54,5.43,7.96,18.82,4.87,28.65-4.14,13.06-15.09,28.34-28.19,32.28-1.83.56-3.62.84-5.29.84Z"/>
      <path class="cls-1" d="M35.78,14.49c-13.21,7.61-23.89,26.14-23.89,41.37s10.69,21.41,23.89,13.79c13.2-7.61,23.89-26.14,23.89-41.36s-10.69-21.4-23.89-13.79Z"/>
      <path class="cls-2" d="M46.47,11.83c-3.2,0-6.71,1.07-10.38,3.18-12.99,7.51-23.58,25.83-23.58,40.84,0,7.14,2.41,12.44,6.71,14.93,4.3,2.49,10.06,1.89,16.24-1.67,12.99-7.51,23.58-25.83,23.58-40.83,0-7.14-2.36-12.44-6.71-14.93-1.73-1.01-3.72-1.51-5.87-1.51h0ZM25.15,73.53c-2.41,0-4.61-.56-6.55-1.68-4.72-2.72-7.34-8.4-7.34-15.99,0-15.4,10.9-34.2,24.21-41.9,6.6-3.8,12.78-4.39,17.5-1.67,4.72,2.72,7.34,8.4,7.34,16,0,15.4-10.85,34.2-24.21,41.9-3.88,2.23-7.6,3.35-10.95,3.35Z"/>
      <path class="cls-4" d="M30.18,4.69c6.03-3.39,13.83-5.86,20.38-2.35l8.17,4.74c-12.05-6.01-26.36,5.14-33.8,13.85-10.01,11.67-18.55,30.75-15.51,46.23,1,5.04,3.2,9.42,7.55,12.3-1.94-1.13-7.65-4.27-9.17-5.4C-1.58,66.95-.06,51.13,2.93,41.26,7.28,26.96,17.18,12.37,30.18,4.69Z"/>
      <path class="cls-2" d="M30.49,5.22C18.44,12.34,8.12,26.21,3.51,41.43c-3.25,10.74-3.93,25.6,4.66,32.13.73.56,2.62,1.66,4.51,2.74-1.89-2.4-3.14-5.39-3.88-9.03-3.14-15.89,5.92-35.37,15.67-46.75,7.39-8.64,18.86-17,29.34-15.6l-3.56-2.05c-6.6-3.54-14.41-.68-19.75,2.35h0ZM16.97,80.07c-.1,0-.21-.03-.31-.08-.42-.26-1.1-.62-1.83-1.04-2.62-1.48-6.18-3.5-7.39-4.4C-1.68,67.64-1.16,52.73,2.35,41.08,7.02,25.57,17.55,11.43,29.86,4.15h0c5.66-3.19,13.89-6.18,21.01-2.36l8.17,4.75c.31.17.42.53.26.83-.16.29-.52.4-.79.26-11.11-5.5-24.78,3.94-33.12,13.7-9.59,11.15-18.44,30.21-15.4,45.7,1.1,5.48,3.51,9.37,7.34,11.91.26.18.37.56.16.84-.11.19-.31.29-.52.29Z"/>
      <polygon class="cls-4" points="55.49 13.93 47.26 9.19 47.05 9.07 46.84 8.96 55.07 13.7 55.28 13.81 55.49 13.93"/>
      <path class="cls-2" d="M55.49,14.55c-.1,0-.21-.03-.31-.08l-.42-.23-8.23-4.75c-.26-.17-.37-.54-.21-.84.16-.29.52-.39.84-.24l.42.24,8.23,4.74c.26.17.37.55.21.84-.11.2-.31.31-.52.31Z"/>
      <path class="cls-3" d="M55.49,13.93c-2.25-1.29-4.87-1.82-7.86-1.54-2.83.28-5.97,1.34-9.27,3.23-3.25,1.9-6.39,4.45-9.22,7.46-2.99,3.12-5.61,6.73-7.86,10.6-2.25,3.87-4.03,7.98-5.24,12.1-1.2,3.97-1.83,7.96-1.83,11.74s.63,7.02,1.83,9.63c1.2,2.71,2.99,4.75,5.24,6.03,2.25,1.29,4.87,1.83,7.86,1.54,2.83-.28,5.97-1.34,9.22-3.23,3.3-1.89,6.44-4.45,9.27-7.46,2.99-3.12,5.61-6.73,7.86-10.6,2.25-3.86,4.03-7.98,5.24-12.09,1.21-3.97,1.83-7.95,1.83-11.74s-.63-7.02-1.83-9.63c-1.21-2.71-2.99-4.75-5.24-6.04h0ZM17.5,31.49c5.34-9.26,12.73-17.35,20.86-22.06,8.17-4.71,15.56-5.16,20.91-2.07,5.34,3.09,8.7,9.71,8.7,19.14s-3.35,19.87-8.7,29.13c-5.35,9.26-12.73,17.35-20.91,22.06-8.12,4.71-15.51,5.16-20.86,2.07-5.4-3.09-8.7-9.71-8.7-19.13s3.3-19.87,8.7-29.13h0Z"/>
      <path class="cls-2" d="M49.2,12.93c-.52,0-1,.03-1.52.07-2.83.29-5.87,1.35-9.01,3.15-3.14,1.82-6.18,4.29-9.06,7.35-2.93,3.07-5.55,6.6-7.81,10.49-2.25,3.89-3.98,7.92-5.19,11.97-1.2,4.03-1.78,7.93-1.78,11.56s.58,6.77,1.73,9.37c1.2,2.57,2.88,4.51,5.03,5.75,2.15,1.24,4.66,1.73,7.49,1.45,2.83-.28,5.87-1.34,9.01-3.15,3.14-1.82,6.18-4.29,9.12-7.34,2.88-3.08,5.5-6.6,7.76-10.48,2.25-3.89,3.98-7.91,5.19-11.97,1.2-4.03,1.78-7.92,1.78-11.56s-.58-6.77-1.78-9.37c-1.15-2.57-2.83-4.51-4.98-5.75h0c-1.78-1.02-3.77-1.53-5.97-1.53h0ZM27.56,75.41c-2.41,0-4.66-.56-6.6-1.69-2.36-1.37-4.24-3.5-5.5-6.31-1.26-2.77-1.89-6.09-1.89-9.88s.63-7.77,1.83-11.92c1.26-4.14,3.04-8.26,5.34-12.23,2.25-3.97,4.98-7.58,7.91-10.72,2.99-3.14,6.13-5.68,9.43-7.56,3.25-1.9,6.45-3.01,9.48-3.31,3.09-.3,5.82.24,8.23,1.61,2.36,1.37,4.19,3.5,5.5,6.31,1.26,2.77,1.89,6.09,1.89,9.88s-.63,7.77-1.89,11.92c-1.21,4.15-2.99,8.26-5.29,12.23-2.31,3.97-4.93,7.57-7.96,10.72-2.93,3.14-6.08,5.69-9.38,7.57-3.25,1.9-6.45,3.01-9.48,3.31-.52.06-1.1.08-1.62.08h0ZM18.02,31.8h0c5.5-9.58,12.84-17.33,20.65-21.84,7.7-4.44,14.93-5.18,20.28-2.07,5.4,3.11,8.38,9.71,8.38,18.6s-3.04,19.25-8.59,28.83c-5.5,9.58-12.89,17.33-20.65,21.84-7.7,4.44-14.93,5.18-20.28,2.07-5.4-3.11-8.38-9.72-8.38-18.6s3.04-19.25,8.59-28.82h0ZM25.2,82.35c-2.93,0-5.66-.68-8.02-2.06-5.82-3.34-9.01-10.32-9.01-19.67s3.14-19.68,8.75-29.44h0c5.66-9.76,13.15-17.68,21.17-22.28,8.07-4.67,15.72-5.41,21.48-2.08,5.82,3.34,8.96,10.33,8.96,19.67s-3.09,19.68-8.75,29.44c-5.61,9.77-13.1,17.68-21.12,22.29-4.72,2.75-9.33,4.13-13.47,4.13Z"/>
      <polygon class="cls-4" points="52.24 17.04 35.47 40.59 23.42 66.95 40.19 43.32 52.24 17.04"/>
      <path class="cls-2" d="M48.94,22.68l-12.94,18.27-9.33,20.34,13.05-18.33,9.22-20.28h0ZM23.42,67.57c-.1,0-.21-.03-.31-.08-.31-.16-.42-.5-.26-.79l12.05-26.36,16.82-23.66c.21-.26.52-.33.79-.17.31.16.42.5.26.79l-12,26.28-16.87,23.73c-.11.17-.32.26-.47.26Z"/>
      <polygon class="cls-3" points="52.24 17.04 35.47 40.59 35.47 40.59 40.19 43.32 52.24 17.04"/>
      <path class="cls-2" d="M36.36,40.4l3.56,2.05,9.01-19.75-12.58,17.71h0ZM40.19,43.93c-.1,0-.21-.03-.31-.08l-4.72-2.73c-.16-.09-.26-.23-.26-.4-.05-.17,0-.35.05-.49l16.77-23.56c.16-.26.52-.33.79-.17.31.16.42.5.26.79l-12,26.28c-.1.16-.21.28-.37.33-.05.02-.11.03-.21.03Z"/>
      <path class="cls-2" d="M37.83,22.72q-.05,0-.11,0c-.31-.03-.58-.33-.52-.67l.26-2.86c.05-.34.32-.6.68-.56.37.03.58.33.58.67l-.31,2.86c0,.32-.26.56-.58.56Z"/>
      <path class="cls-2" d="M55.02,32.71c-.21,0-.42-.11-.52-.31-.16-.29-.05-.67.21-.84l2.41-1.4c.31-.17.68-.07.89.22.16.3.05.67-.26.84l-2.41,1.4c-.1.06-.21.08-.31.08Z"/>
      <path class="cls-2" d="M18.18,53.97c-.21,0-.42-.11-.52-.31-.16-.29-.05-.67.21-.84l2.46-1.4c.26-.17.63-.07.84.22.16.29.05.67-.26.84l-2.41,1.4c-.1.05-.21.08-.31.08Z"/>
      <path class="cls-2" d="M37.83,65.3c-.37,0-.63-.27-.63-.62v-2.8c0-.34.26-.61.63-.61.31,0,.58.28.58.61v2.8c0,.35-.26.62-.58.62Z"/>
    </g>
  </g>
</svg>