<?xml version="1.0" encoding="UTF-8"?>
<svg id="Layer_2" data-name="Layer 2" xmlns="http://www.w3.org/2000/svg" viewBox="0 0 34.48 48.39" fill="currentColor">
  <defs>
    <style>
      .cls-1 {
        fill: #fff;
      }

      .cls-1, .cls-2, .cls-3 {
        fill-rule: evenodd;
      }

      .cls-2 {
        fill: #1a87c7;
      }

      .cls-3 {
        fill: #66ceef;
      }
    </style>
  </defs>
  <g id="_Layer_" data-name="&amp;lt;Layer&amp;gt;">
    <g>
      <path class="cls-3" d="M34.16,33.57v-4.82c0-3.85-4.74-5.25-8.02-5.54-.29.57-.58,1.14-.86,1.68l-.11.17c.86,2.04-2.15,5.04-5.29,6.21-2.31.86-4.77.52-7.02-.35-2.36-.92-3.83-2.23-3.59-3.41-1.65,2.13-3.93,3.74-5.76,5.72-1.62,1.83-2.91,3.53-3.17,6.05l-.03.45v3.92c0,1.45.18,1.83,1.78,2.74,12.16,7.03,32.07-9.99,32.07-12.83Z"/>
      <path class="cls-2" d="M34.16,33.57h.03-.03ZM9.04,28.3c-.86,1.01-1.89,1.92-2.86,2.8-.81.75-1.68,1.52-2.44,2.34-1.47,1.67-2.83,3.37-3.09,5.87l-.03.43v3.91c0,1.33.11,1.61,1.6,2.48,6.79,3.92,15.69-.05,20.41-2.77,6.6-3.81,11.24-8.63,11.24-9.8v-4.82c0-4.14-5.89-5.04-7.55-5.21-.26.51-.52,1.02-.79,1.5l-.03.05c.21.59.16,1.26-.16,1.98-.76,1.75-2.96,3.6-5.37,4.5-2.15.8-4.56.68-7.23-.35-2.07-.8-3.38-1.85-3.72-2.91h0ZM8.75,48.39c-2.33,0-4.69-.49-6.81-1.73-1.65-.94-1.94-1.39-1.94-3.01l.03-4.38c.29-2.7,1.7-4.49,3.28-6.24.76-.85,1.62-1.63,2.46-2.39,1.15-1.03,2.33-2.1,3.27-3.31.08-.11.24-.15.37-.09.13.06.21.2.18.34-.21.98,1.13,2.19,3.41,3.06,2.51.97,4.8,1.09,6.79.35,2.23-.83,4.32-2.58,5.03-4.16.26-.62.29-1.17.1-1.64-.05-.09-.03-.18,0-.27l.08-.17c.31-.54.6-1.1.86-1.67.05-.11.18-.18.32-.17,4.01.35,8.3,2.06,8.3,5.84v4.82h0c0,1.66-5.13,6.64-11.53,10.33-3.35,1.93-8.83,4.49-14.2,4.49Z"/>
      <path class="cls-3" d="M34.16,33.57v-4.82c0-3.48-3.88-4.96-7.05-5.42.31.36.5.85.63,1.36.16.77.16,1.62,0,2.24-.13.54-.34,1.08-.63,1.6-.29.54-.65,1.06-1.07,1.55-.63.69-1.36,1.36-2.17,1.94-.84.58-1.73,1.08-2.62,1.46,0,0-.05.02-.16.06l-.31.12c-.71.26-1.39.44-2.1.54-.76.11-1.49.14-2.23.11-.73-.04-1.49-.14-2.23-.31-.76-.17-1.52-.41-2.25-.7-.76-.29-1.47-.62-2.07-.98-.6-.36-1.15-.76-1.57-1.17-.47-.44-.84-.91-1.13-1.4-1.23,1.17-2.54,2.26-3.69,3.5-1.62,1.83-2.91,3.53-3.17,6.05l-.03.45v3.92c0,1.45.18,1.83,1.78,2.74,12.16,7.03,32.07-9.99,32.07-12.83Z"/>
      <path class="cls-2" d="M34.16,33.57h.03-.03ZM7.15,30.22c-.31.3-.63.59-.97.88-.84.75-1.68,1.52-2.44,2.34-1.47,1.67-2.83,3.37-3.09,5.87l-.03.43v3.91c0,1.33.11,1.61,1.6,2.48,6.79,3.92,15.69-.05,20.41-2.77,6.6-3.81,11.24-8.63,11.24-9.8v-4.82c0-3.37-3.88-4.58-6.13-5.01.13.26.21.55.29.87.18.76.18,1.67.03,2.37-.13.56-.37,1.12-.65,1.68-.31.55-.68,1.09-1.13,1.61-.63.7-1.39,1.39-2.25,1.99-.84.6-1.76,1.12-2.67,1.5l-.47.18c-.71.26-1.42.45-2.15.56-.76.11-1.52.15-2.28.11-.76-.04-1.52-.14-2.28-.31-.76-.17-1.55-.41-2.33-.71-.76-.3-1.47-.63-2.1-1-.63-.38-1.18-.79-1.62-1.22-.39-.36-.71-.75-.97-1.14h0ZM8.75,48.39c-2.33,0-4.69-.48-6.81-1.72-1.65-.94-1.94-1.39-1.94-3.01l.03-4.38c.29-2.7,1.7-4.49,3.28-6.24.76-.85,1.62-1.63,2.46-2.39.42-.38.84-.75,1.23-1.14.08-.07.18-.09.26-.08.1.02.18.07.24.16.26.46.6.91,1.05,1.33.42.4.94.78,1.55,1.13.58.35,1.26.68,1.99.96.73.29,1.49.52,2.23.69.73.16,1.47.26,2.17.3.73.03,1.44,0,2.15-.1.71-.11,1.39-.28,2.04-.53l.42-.16c.89-.38,1.78-.87,2.59-1.45.81-.57,1.52-1.22,2.12-1.89.42-.48.79-.99,1.05-1.5.29-.51.47-1.02.6-1.52.13-.62.13-1.42-.03-2.1-.1-.51-.31-.93-.55-1.23-.08-.1-.08-.24-.03-.35.05-.11.18-.17.31-.15,2.2.32,7.31,1.52,7.31,5.73v4.82h0c0,1.66-5.13,6.64-11.53,10.33-3.35,1.93-8.83,4.49-14.2,4.49Z"/>
      <path class="cls-1" d="M9.27,27.52c.26-.32,1-1.07,1.18-1.4.39-.67.37-.92.45-1.71,3.35,3.88,11.27,6.16,14.28.65h0c.86,2.05-2.15,5.04-5.29,6.21-2.31.86-4.77.52-7.02-.35-2.36-.92-3.83-2.23-3.59-3.41Z"/>
      <path class="cls-2" d="M9.56,27.65c-.11.97,1.2,2.14,3.43,2.99,2.51.97,4.8,1.09,6.79.35,2.23-.83,4.32-2.58,5.03-4.16.13-.32.21-.63.21-.91-1.1,1.56-2.72,2.49-4.72,2.7-3.07.32-6.81-1.12-9.17-3.49-.05.37-.13.67-.42,1.15-.13.24-.47.61-.79.96-.13.15-.26.3-.37.41h0ZM17.03,32.08c-1.34,0-2.78-.29-4.27-.87-2.62-1.02-4.04-2.42-3.8-3.75.03-.05.05-.09.08-.13.08-.12.26-.3.42-.5.29-.31.63-.68.73-.87.31-.53.34-.75.39-1.34l.03-.24c0-.12.08-.23.21-.26.1-.04.24,0,.31.09,2.17,2.52,6,4.11,9.09,3.78,2.1-.22,3.69-1.28,4.69-3.08.05-.1.18-.16.29-.16.11,0,.21.08.26.19.26.63.24,1.34-.1,2.12-.76,1.75-2.96,3.6-5.37,4.49-.92.35-1.91.52-2.96.52Z"/>
      <path class="cls-3" d="M9.77,26.94c.29-.31.58-.63.68-.83.39-.67.37-.92.45-1.71,2.65,3.05,8.07,5.1,11.74,3.19-.84.65-1.81,1.2-2.8,1.57-2.31.86-4.77.52-7.02-.35-1.36-.53-2.44-1.19-3.04-1.88Z"/>
      <path class="cls-2" d="M10.19,26.94c.6.58,1.57,1.14,2.73,1.6,2.51.98,4.79,1.09,6.81.35.21-.08.45-.18.65-.28-3.25.39-6.94-1.18-9.25-3.48-.05.37-.13.67-.42,1.15-.1.17-.29.41-.52.66h0ZM16.98,29.98c-1.34,0-2.78-.29-4.27-.87-1.42-.55-2.52-1.23-3.17-1.96-.1-.12-.1-.29,0-.41.21-.22.55-.6.65-.78.31-.53.34-.75.39-1.34l.03-.24c0-.12.08-.23.21-.26.1-.04.24,0,.31.09,2.57,2.94,7.86,4.95,11.37,3.12.13-.07.31-.03.39.11.11.13.05.31-.08.41-.89.68-1.89,1.23-2.88,1.61-.94.35-1.94.52-2.96.52Z"/>
      <path class="cls-3" d="M7.86,6.87c-4.22,7.74,2.02,22.22,11.84,22.2,1.26,0,2.72-.51,3.61-1.38,1.28-1.22,2.31-3.45,3.3-5.47,1.36-2.77,1.28-5.93,1.31-8.47.13-2,.08-4.31-.21-6.2-.52-3.67-2.17-3.8-6.68-6.19-.73-.38-1.65-1.01-3.07-1.06-3.38-.11-8.44,3.86-10.11,6.56Z"/>
      <path class="cls-2" d="M8.12,7.03c-2.12,3.91-1.55,10.08,1.39,15.02,2.54,4.27,6.24,6.72,10.17,6.72h.03c1.23,0,2.59-.52,3.41-1.3,1.15-1.1,2.1-3.07,3.04-4.97l.21-.41c1.23-2.54,1.23-5.5,1.26-7.88v-.46c.13-2.15.08-4.39-.18-6.15-.44-2.9-1.54-3.45-4.51-4.93-.6-.3-1.28-.64-2.02-1.04l-.31-.17c-.68-.36-1.49-.82-2.62-.85-.05,0-.08,0-.13,0-3.27,0-8.12,3.85-9.72,6.41h0ZM19.68,29.39c-4.14,0-8.04-2.56-10.72-7.02-3.09-5.2-3.64-11.48-1.36-15.64v-.02C9.3,3.97,14.3,0,17.84,0c.05,0,.1,0,.16,0,1.28.04,2.2.55,2.88.93l.31.17c.73.4,1.42.73,2.02,1.03,2.99,1.49,4.35,2.17,4.82,5.39.26,1.81.34,4.09.18,6.26v.44c0,2.44-.03,5.48-1.34,8.15l-.18.41c-.94,1.95-1.94,3.97-3.17,5.15-.92.89-2.41,1.47-3.83,1.47h-.03Z"/>
      <path class="cls-1" d="M23.74,17.03v.16c0,.56.39.79.89.51.34-.2.68-.36,1-.51.97-.46,1.62-.78,1.62-2.04,0-.38-.16-.53-.47-.71-.89-.51-3.04.66-3.04,2.59Z"/>
      <path class="cls-2" d="M26.28,14.63c-.29,0-.6.1-.94.29-.63.36-1.28,1.11-1.28,2.12v.16c0,.15.03.26.1.3.05.04.18.01.31-.06.34-.2.68-.36.97-.51,1-.46,1.49-.7,1.49-1.78,0-.23-.05-.29-.31-.45-.08-.06-.21-.08-.34-.08h0ZM24.23,18.13c-.16,0-.29-.03-.39-.1-.26-.15-.42-.46-.42-.84v-.16c0-1.27.84-2.2,1.62-2.65.68-.4,1.41-.48,1.89-.21.39.23.63.46.63.98,0,1.46-.84,1.86-1.81,2.32-.34.15-.65.3-.97.5-.18.11-.39.16-.55.16Z"/>
      <path class="cls-1" d="M18.44,20.38c.03.55.42,1.03,2.8-.35.26-.15.5-.41.66-.71.55-.95.21-1.63-.26-1.9-.97-.56-3.25.95-3.2,2.96Z"/>
      <path class="cls-2" d="M21.17,17.62c-.29,0-.6.1-.94.3-.76.45-1.49,1.38-1.47,2.46h0c0,.18.05.21.08.21.08.04.52.19,2.25-.82.21-.12.39-.33.55-.59.21-.37.29-.71.21-1-.08-.28-.26-.42-.37-.48-.11-.05-.18-.08-.31-.08h0ZM19,21.24c-.18,0-.34-.04-.47-.11-.16-.09-.37-.3-.39-.74-.03-1.41.94-2.5,1.78-3,.71-.42,1.41-.5,1.89-.23.31.19.55.5.65.86.08.31.1.82-.26,1.46-.21.35-.5.64-.79.82-1.1.63-1.86.93-2.41.93Z"/>
      <path class="cls-1" d="M21.25,24.82c0,1.46,3.62-.62,3.38-1.7-.18-.83-3.38.42-3.38,1.7Z"/>
      <path class="cls-2" d="M24.13,23.16c-.21,0-.63.07-1.15.3-.84.38-1.44.94-1.44,1.36,0,.14.05.15.08.17.26.13,1.2-.19,1.96-.8.55-.44.79-.82.73-1-.03-.02-.08-.03-.18-.03h0ZM21.77,25.63c-.16,0-.31-.03-.42-.09-.16-.07-.42-.27-.42-.72,0-1.18,1.94-2.15,2.96-2.26.81-.09,1,.32,1.02.5.13.63-.52,1.28-.94,1.61-.55.43-1.49.96-2.2.96Z"/>
    </g>
  </g>
</svg>