<?xml version="1.0" encoding="UTF-8"?>
<svg id="Layer_2" data-name="Layer 2" xmlns="http://www.w3.org/2000/svg" viewBox="0 0 57.4 84.32" fill="currentColor">
  <defs>
    <style>
      .cls-1 {
        fill: #fff;
      }

      .cls-1, .cls-2, .cls-3, .cls-4 {
        fill-rule: evenodd;
      }

      .cls-2 {
        fill: #1a87c7;
      }

      .cls-3 {
        fill: #bdedf8;
      }

      .cls-4 {
        fill: #66ceef;
      }
    </style>
  </defs>
  <g id="_Layer_" data-name="&amp;lt;Layer&amp;gt;">
    <g>
      <polygon class="cls-3" points="12.15 71.61 1.12 65.23 1.12 37.14 12.15 43.5 12.15 71.61"/>
      <path class="cls-2" d="M1.72,64.89l9.8,5.65.02-26.67-9.8-5.67-.02,26.69h0ZM12.15,72.22c-.1,0-.2-.02-.31-.09l-11.04-6.36c-.19-.13-.31-.32-.31-.54l.02-28.09c0-.23.1-.43.3-.54.19-.11.44-.11.63,0l11.04,6.38c.19.11.32.31.32.52l-.02,28.11c0,.21-.11.42-.29.52-.1.07-.21.09-.31.09Z"/>
      <polygon class="cls-1" points="46.03 14.04 34.37 7.31 36.73 5.97 48.38 12.7 46.03 14.04"/>
      <path class="cls-2" d="M35.62,7.31l10.41,6.02,1.12-.63-10.42-6.01-1.11.62h0ZM46.03,14.65c-.12,0-.23-.02-.31-.07l-11.64-6.73c-.19-.12-.31-.31-.31-.54s.12-.43.31-.54l2.34-1.34c.19-.11.43-.11.61,0l11.66,6.73c.19.12.31.31.31.53s-.12.43-.31.54l-2.36,1.34c-.09.05-.19.07-.3.07Z"/>
      <polygon class="cls-3" points="56.39 7.35 44.73 .62 36.12 5.61 47.77 12.34 54.12 8.67 56.39 7.35"/>
      <path class="cls-2" d="M37.34,5.61l10.43,6.02,7.39-4.28-10.43-6.02-7.39,4.28h0ZM47.77,12.96c-.11,0-.21-.03-.31-.08l-11.65-6.73c-.19-.12-.31-.31-.31-.54,0-.21.13-.42.31-.54L44.43.08c.19-.1.42-.1.61,0l11.65,6.74c.2.1.31.31.31.52,0,.23-.11.43-.31.54l-8.61,4.99c-.1.05-.2.08-.31.08Z"/>
      <polygon class="cls-1" points="21.21 27.56 10.26 21.23 12.83 19.75 23.78 26.08 21.21 27.56"/>
      <path class="cls-2" d="M11.49,21.23l9.72,5.62,1.34-.77-9.71-5.61-1.34.76h0ZM21.21,28.17c-.11,0-.21-.04-.31-.09l-10.95-6.32c-.19-.11-.31-.32-.31-.52,0-.22.13-.43.31-.53l2.59-1.46c.19-.12.42-.12.61,0l10.95,6.32c.19.1.31.31.31.52,0,.23-.12.43-.31.54l-2.57,1.46c-.1.05-.21.09-.31.09Z"/>
      <polygon class="cls-1" points="12.1 32.77 55.77 7.71 55.94 58.17 12.17 83.23 12.1 32.77"/>
      <path class="cls-2" d="M12.73,33.12l.05,49.04,42.54-24.33-.16-49.06L12.73,33.12h0ZM12.17,83.83c-.13,0-.23-.02-.31-.09-.19-.11-.31-.31-.31-.52l-.05-50.45c0-.22.12-.43.31-.54L55.48,7.17c.19-.1.41-.1.61,0,.19.12.31.31.31.54l.16,50.47c0,.22-.12.43-.32.54l-43.77,25.03c-.09.07-.19.09-.29.09Z"/>
      <polygon class="cls-3" points="35.7 36.95 35.69 52.82 56.77 40.67 56.77 24.79 35.7 36.95"/>
      <path class="cls-2" d="M36.32,37.3v14.46l19.83-11.44.02-14.46-19.85,11.44h0ZM35.69,53.45c-.1,0-.21-.04-.29-.09-.19-.1-.31-.31-.31-.54v-15.87c0-.23.12-.41.31-.54l21.07-12.15c.19-.1.43-.1.62,0,.19.11.29.31.29.53v15.87c0,.23-.12.44-.31.54l-21.07,12.15c-.09.05-.19.09-.31.09Z"/>
      <path class="cls-3" d="M21.29,42.54v-14.93l-8.36,4.82c-.35.21-.64.69-.64,1.09v14.22l9-5.2Z"/>
      <path class="cls-2" d="M21.29,42.54h.02-.02ZM20.69,28.67l-7.46,4.3c-.16.08-.32.38-.33.57v13.14l7.79-4.49v-13.52h0ZM12.29,48.37c-.12,0-.22-.04-.31-.09-.19-.12-.31-.31-.31-.53v-14.22c.02-.63.43-1.32.96-1.62l8.38-4.83c.19-.12.41-.12.61,0,.19.11.31.31.31.54l-.02,14.93c0,.23-.11.44-.29.55l-9.02,5.19c-.09.05-.19.09-.29.09Z"/>
      <polygon class="cls-3" points="45.42 13.69 33.78 6.96 11.99 19.53 23.64 26.26 45.42 13.69"/>
      <path class="cls-2" d="M13.23,19.53l10.41,6.02,20.55-11.86-10.41-6.01-20.54,11.85h0ZM23.64,26.86c-.11,0-.21-.01-.29-.09l-11.66-6.72c-.19-.11-.31-.31-.31-.52,0-.23.12-.43.31-.54l21.78-12.57c.19-.11.41-.11.61,0l11.66,6.73c.19.12.29.31.29.53s-.1.44-.29.55l-21.78,12.54c-.09.07-.21.09-.31.09Z"/>
      <polygon class="cls-4" points="12.29 50.45 .63 43.73 .63 59.61 12.27 66.34 12.29 50.45"/>
      <path class="cls-2" d="M1.24,59.25l10.43,6.01v-14.44l-10.41-6.03-.02,14.46h0ZM12.27,66.95c-.1,0-.2-.03-.29-.08L.31,60.14c-.19-.1-.31-.31-.31-.52l.02-15.89c0-.22.11-.41.31-.54.17-.1.42-.1.61,0l11.64,6.72c.19.13.31.31.31.54v15.89c0,.21-.12.42-.31.52-.1.05-.21.08-.31.08Z"/>
      <polygon class="cls-4" points="12.27 69.06 .63 62.31 .63 76.53 12.27 83.26 12.27 69.06"/>
      <path class="cls-2" d="M1.24,76.16l10.41,6.02.02-12.78-10.43-6.02v12.77h0ZM12.27,83.87c-.1,0-.2-.02-.31-.08L.31,77.05c-.19-.11-.31-.31-.31-.52v-14.22c0-.21.13-.42.31-.52.19-.12.43-.12.61,0l11.66,6.73c.19.11.31.31.31.54l-.02,14.2c0,.21-.1.42-.29.52-.1.07-.21.08-.31.08Z"/>
      <path class="cls-3" d="M47.77,12.34v14.95l9-5.2V7.85c0-.38-.28-.54-.61-.35l-8.39,4.83Z"/>
      <path class="cls-2" d="M48.38,12.7v13.53l7.79-4.51v-13.5l-7.79,4.48h0ZM47.77,27.89c-.11,0-.21-.02-.31-.08-.19-.1-.31-.3-.31-.52l.02-14.95c0-.23.11-.42.29-.52l8.4-4.85c.38-.21.76-.21,1.06-.04.29.17.47.52.49.9l-.02,14.26c0,.23-.1.41-.29.52l-9.02,5.2c-.08.07-.19.08-.29.08Z"/>
      <path class="cls-3" d="M47.76,48.58v14.95l8.37-4.85c.35-.2.63-.69.63-1.09l.02-14.2-9.02,5.2Z"/>
      <path class="cls-2" d="M48.38,48.95l-.02,13.5,7.47-4.29c.14-.09.31-.38.31-.58v-13.12l-7.77,4.49h0ZM47.76,64.14c-.11,0-.21-.02-.31-.09-.19-.11-.31-.31-.31-.52l.02-14.95c0-.21.12-.42.31-.52l9.01-5.2c.19-.12.41-.12.61,0,.19.11.31.32.31.52v14.2c0,.61-.4,1.3-.92,1.63l-8.4,4.83c-.1.07-.21.09-.31.09Z"/>
      <polygon class="cls-3" points="33.34 54.18 33.36 38.3 12.29 50.45 12.27 66.34 33.34 54.18"/>
      <path class="cls-2" d="M33.34,54.18h.02-.02ZM12.9,50.82v14.44l19.83-11.43v-14.47l-19.83,11.46h0ZM12.27,66.95c-.1,0-.2-.03-.31-.08-.18-.1-.3-.31-.3-.52v-15.89c0-.22.12-.41.31-.54l21.07-12.15c.19-.1.42-.1.61,0,.19.12.31.31.31.54v15.87c0,.22-.12.43-.31.54l-21.07,12.15c-.1.05-.21.08-.31.08Z"/>
      <path class="cls-3" d="M21.28,78.79v-14.93l-9.01,5.2v14.22c0,.38.28.53.61.36l8.4-4.85Z"/>
      <path class="cls-2" d="M21.28,78.79h.02-.02ZM12.9,69.4l-.02,13.52,7.79-4.49v-13.52l-7.77,4.49h0ZM12.62,84.32c-.17,0-.33-.04-.47-.13-.31-.17-.49-.5-.5-.9l.02-14.24c0-.23.11-.43.3-.54l9.02-5.2c.19-.12.41-.12.61,0,.19.11.31.31.31.54v14.93c0,.22-.12.43-.31.53l-8.4,4.84c-.19.11-.38.16-.57.16Z"/>
      <polygon class="cls-3" points="45.42 28.64 45.42 13.69 23.64 26.26 23.64 41.19 45.42 28.64"/>
      <path class="cls-2" d="M24.27,26.6l-.02,13.53,20.55-11.86.02-13.52-20.55,11.85h0ZM23.64,41.81c-.11,0-.21-.03-.31-.08-.19-.11-.29-.31-.29-.54v-14.93c0-.23.12-.44.31-.54l21.76-12.57c.19-.11.43-.11.63,0,.19.12.29.31.29.53v14.95c0,.2-.12.41-.31.52l-21.76,12.57c-.1.05-.21.08-.31.08Z"/>
      <polygon class="cls-3" points="45.4 64.89 45.4 49.94 23.64 62.5 23.63 77.44 45.4 64.89"/>
      <path class="cls-2" d="M45.4,64.89h.02-.02ZM24.25,62.85v13.52l20.53-11.85.02-13.52-20.55,11.85h0ZM23.63,78.06c-.1,0-.21-.03-.31-.08-.19-.11-.29-.32-.29-.54v-14.93c0-.23.12-.43.31-.54l21.78-12.56c.17-.11.42-.11.61,0,.19.12.31.31.31.54l-.02,14.95c0,.21-.1.41-.31.52l-21.76,12.57c-.1.05-.21.08-.31.08Z"/>
      <path class="cls-4" d="M21.29,27.61l-11.64-6.74L1.27,25.7c-.38.23-.59.7-.62,1.11l-.02,14.2,11.66,6.73v-14.21c.04-.47.24-.82.62-1.1l8.38-4.83Z"/>
      <path class="cls-2" d="M1.25,40.67l10.41,6.02v-13.14c.07-.71.35-1.22.89-1.6l7.51-4.33-10.41-6.03L1.58,26.24c-.17.11-.31.36-.33.62v13.8h0ZM12.29,48.37c-.12,0-.22-.04-.31-.09L.33,41.55c-.2-.12-.31-.31-.31-.53v-14.2c.05-.59.33-1.28.95-1.64l8.36-4.83c.19-.12.43-.12.62,0l11.65,6.73c.19.11.31.31.31.54,0,.21-.13.42-.31.52l-8.39,4.85c-.17.14-.28.31-.31.61v14.15c0,.22-.12.41-.31.53-.09.05-.19.09-.29.09Z"/>
      <polygon class="cls-3" points="21.29 27.61 9.65 20.87 1.27 25.7 12.92 32.45 21.29 27.61"/>
      <path class="cls-2" d="M2.5,25.7l10.41,6.03,7.15-4.12-10.41-6.03-7.15,4.12h0ZM12.92,33.05c-.1,0-.22-.02-.31-.07L.97,26.24c-.19-.11-.31-.31-.31-.54,0-.21.12-.42.31-.52l8.36-4.83c.19-.12.43-.12.62,0l11.65,6.73c.19.11.31.31.31.54,0,.21-.13.42-.31.52l-8.39,4.85c-.09.05-.19.07-.3.07Z"/>
    </g>
  </g>
</svg>