<?xml version="1.0" encoding="UTF-8"?>
<svg id="Layer_2" data-name="Layer 2" xmlns="http://www.w3.org/2000/svg" viewBox="0 0 40.98 28.03" fill="currentColor">
  <defs>
    <style>
      .cls-1 {
        fill: #fff;
      }

      .cls-1, .cls-2, .cls-3, .cls-4 {
        fill-rule: evenodd;
      }

      .cls-2 {
        fill: #1a87c7;
      }

      .cls-3 {
        fill: #bdedf8;
      }

      .cls-4 {
        fill: #66ceef;
      }
    </style>
  </defs>
  <g id="_Layer_" data-name="&amp;lt;Layer&amp;gt;">
    <g>
      <path class="cls-1" d="M4.76,8.6c0-3.17,4.5-5.74,10.04-5.74s10.04,2.57,10.04,5.74-4.5,5.74-10.04,5.74-10.04-2.57-10.04-5.74Z"/>
      <path class="cls-2" d="M14.8,3.16c-5.37,0-9.73,2.44-9.73,5.44s4.37,5.44,9.73,5.44,9.74-2.44,9.74-5.44-4.37-5.44-9.74-5.44h0ZM14.8,14.65c-5.71,0-10.35-2.71-10.35-6.05S9.1,2.55,14.8,2.55s10.35,2.71,10.35,6.05-4.65,6.05-10.35,6.05Z"/>
      <path class="cls-4" d="M14.81,7.18c1.85.01,3.67.26,5.41.91,1.85.68,4.09,2.04,4.55,4.11.06.26.08.46.08.73v-4.33c-.03-2.48-2.55-4.08-4.63-4.84-3.75-1.38-9.01-1.23-12.52.77-1.5.86-2.92,2.22-2.94,4.06v4.47c0-.35,0-.54.08-.88.45-2.01,2.56-3.34,4.35-4.03,1.68-.65,3.56-.95,5.36-.98h.26Z"/>
      <path class="cls-2" d="M14.82,3.17c-2.55,0-5.08.56-6.97,1.64-1.03.59-2.76,1.87-2.79,3.8v2.24c1.02-1.66,3.05-2.6,4.01-2.97,1.62-.63,3.51-.97,5.46-1h.26s0,0,0,0c2.06.02,3.86.32,5.52.92,1.01.37,3.15,1.33,4.21,3.05v-2.24c-.03-2.73-3.4-4.17-4.42-4.55-1.62-.59-3.46-.88-5.29-.88h0ZM4.77,13.38c-.17,0-.31-.13-.31-.3v-.15s0-4.33,0-4.33c.02-1.66,1.12-3.2,3.1-4.33,3.38-1.94,8.76-2.27,12.77-.8,1.12.41,4.79,2,4.83,5.13v4.33c0,.17-.14.31-.31.31h0c-.17,0-.3-.13-.31-.3,0-.24-.02-.42-.07-.67-.5-2.25-3.21-3.47-4.35-3.89-1.59-.58-3.32-.87-5.31-.89h-.26c-1.88.03-3.7.36-5.25.96-1.09.42-3.67,1.63-4.16,3.81-.07.3-.07.47-.07.81,0,.17-.14.3-.3.31h0Z"/>
      <path class="cls-4" d="M.31,8.81v4.33c.09,1.38.6,2.37,1.43,3.38,1.42,1.63,3.25,2.64,5.25,3.39,3.33,1.19,6.85,1.52,10.36,1.18,1.34-.14,2.6-.37,3.9-.74v-4.33c-1.3.36-2.56.6-3.9.74-3.51.34-7.03,0-10.36-1.18-1.94-.73-3.68-1.67-5.1-3.21-.92-1.06-1.49-2.12-1.58-3.56Z"/>
      <path class="cls-2" d="M.62,11.08v2.07c.08,1.16.48,2.12,1.36,3.19,1.21,1.39,2.83,2.44,5.12,3.3,3.15,1.12,6.59,1.51,10.22,1.16,1.27-.13,2.45-.35,3.62-.67v-3.69c-1.14.3-2.31.51-3.56.64-3.73.36-7.26-.04-10.5-1.2-2.31-.87-3.92-1.88-5.22-3.29-.44-.51-.79-1.01-1.05-1.51h0ZM14.76,21.53c-2.77,0-5.4-.44-7.88-1.33-2.39-.9-4.1-2-5.38-3.48C.54,15.54.09,14.48,0,13.16v-4.35c0-.17.13-.3.3-.31.16-.02.3.12.32.29.08,1.25.53,2.26,1.51,3.38,1.22,1.33,2.76,2.29,4.97,3.13,3.15,1.12,6.59,1.51,10.22,1.16,1.35-.14,2.61-.38,3.85-.73.09-.03.19,0,.27.05.08.06.12.15.12.25v4.33c0,.14-.09.26-.22.3-1.27.36-2.56.6-3.95.74-.89.09-1.76.13-2.62.13Z"/>
      <path class="cls-4" d="M27.79,12.29v4.33c.87-1.01,1.48-2.21,1.51-3.57v-4.33c-.06,1.4-.61,2.52-1.51,3.57Z"/>
      <path class="cls-2" d="M28.1,12.41v3.3c.58-.87.88-1.76.9-2.66v-1.97c-.23.45-.53.89-.9,1.33h0ZM27.79,16.93s-.07,0-.11-.02c-.12-.04-.2-.16-.2-.29v-4.33c0-.07.03-.14.07-.2.94-1.09,1.39-2.17,1.44-3.38,0-.16.14-.3.31-.3h0c.17,0,.3.14.3.31v4.33c-.03,1.3-.56,2.56-1.59,3.76-.06.07-.15.11-.23.11Z"/>
      <path class="cls-4" d="M21.25,16.03v4.33c.21.19.42.33.66.47l10.67,6.1c.87.47,1.69.67,2.67.76,1.09.07,2.04-.01,3.09-.35,1.03-.37,2.17-1.01,2.32-2.21v-4.33c-.15,1.2-1.29,1.84-2.32,2.2-1.05.34-2,.42-3.09.35-.98-.1-1.8-.29-2.67-.76l-10.67-6.1c-.25-.14-.45-.28-.66-.47Z"/>
      <path class="cls-2" d="M21.55,20.22c.15.13.31.23.51.35l10.67,6.1c.76.41,1.5.62,2.55.72,1.11.07,2-.03,2.97-.33,1.29-.46,2-1.12,2.11-1.95v-2.95c-.43.47-1.07.85-1.91,1.15-1.05.33-2.04.44-3.22.36-1.13-.11-1.96-.35-2.8-.8l-10.68-6.11c-.07-.04-.14-.08-.2-.13v3.57h0ZM35.94,28.03c-.23,0-.46-.01-.71-.03-1.13-.11-1.96-.35-2.8-.8l-10.68-6.11c-.28-.17-.5-.32-.71-.51-.07-.06-.1-.14-.1-.23v-4.33c0-.12.07-.23.18-.28.11-.05.24-.03.33.05.19.17.37.3.62.44l10.67,6.1c.76.41,1.5.62,2.55.73,1.11.07,2-.03,2.97-.33,1.29-.46,2-1.12,2.11-1.95.02-.16.14-.27.32-.27.16.01.29.14.29.31v4.33c-.14,1.12-.99,1.95-2.53,2.49-.83.26-1.62.39-2.51.39Z"/>
      <path class="cls-3" d="M7.7,12.67c-1.82-1.04-2.94-2.48-2.94-4.06s1.12-3.02,2.94-4.06c1.82-1.04,4.33-1.68,7.1-1.68s5.28.64,7.1,1.68c1.82,1.04,2.94,2.48,2.94,4.06s-1.12,3.02-2.94,4.06c-1.82,1.04-4.33,1.68-7.1,1.68s-5.28-.64-7.1-1.68h0ZM.31,8.6c0,2.29,1.62,4.36,4.25,5.86,2.62,1.5,6.25,2.43,10.25,2.43,2.32,0,4.5-.31,6.44-.86.18.17.41.33.66.47l10.67,6.1c1.85,1.06,4.86,1.06,6.7,0h0c1.84-1.06,1.84-2.78,0-3.84l-10.67-6.1c-.26-.15-.54-.27-.83-.38.97-1.11,1.51-2.37,1.51-3.69,0-2.29-1.62-4.36-4.25-5.87C22.43,1.24,18.81.31,14.81.31s-7.63.93-10.25,2.43C1.93,4.24.31,6.31.31,8.6H.31Z"/>
      <path class="cls-2" d="M7.85,12.4c1.85,1.06,4.32,1.64,6.95,1.64s5.1-.58,6.95-1.64c1.8-1.03,2.78-2.37,2.78-3.79s-.99-2.77-2.78-3.8c-1.85-1.06-4.32-1.64-6.95-1.64s-5.1.58-6.95,1.64c-1.79,1.03-2.79,2.38-2.79,3.8s.99,2.77,2.79,3.79h0ZM14.8,14.65c-2.73,0-5.31-.61-7.25-1.72h0c-2-1.14-3.1-2.68-3.1-4.33s1.1-3.19,3.1-4.33c1.94-1.11,4.52-1.72,7.25-1.72s5.31.61,7.25,1.72c2,1.14,3.1,2.68,3.1,4.33s-1.1,3.19-3.1,4.33c-1.94,1.11-4.52,1.72-7.25,1.72h0ZM21.25,15.72s-.06,0-.08.01c-1.99.56-4.13.85-6.36.85-3.82,0-7.4-.85-10.1-2.39-2.64-1.51-4.09-3.5-4.09-5.6s1.45-4.09,4.09-5.6C7.4,1.46,10.99.62,14.81.62s7.41.85,10.1,2.39c2.64,1.51,4.09,3.5,4.09,5.6,0,1.22-.49,2.39-1.44,3.49-.07.08-.09.18-.07.28.03.1.1.18.19.21.28.1.54.22.78.35l10.67,6.1c.79.45,1.23,1.04,1.23,1.65s-.44,1.2-1.23,1.65c-1.73.99-4.67.99-6.4,0l-10.67-6.1c-.23-.13-.44-.28-.61-.44-.06-.05-.13-.08-.21-.08h0ZM35.93,23.71c-1.27,0-2.54-.28-3.51-.83l-10.67-6.1c-.21-.13-.41-.26-.58-.4-2,.55-4.14.83-6.37.83-3.92,0-7.62-.88-10.4-2.47C1.56,13.11,0,10.93,0,8.6S1.56,4.09,4.4,2.47C7.18.88,10.88,0,14.81,0s7.62.88,10.4,2.47c2.84,1.62,4.4,3.8,4.4,6.13,0,1.23-.45,2.45-1.32,3.56.17.07.32.15.47.24l10.67,6.11c.99.57,1.54,1.34,1.54,2.18s-.55,1.62-1.54,2.19c-.96.55-2.24.83-3.51.83Z"/>
      <path class="cls-1" d="M12.75,8.6c.46-1.97,2.25-3.53,4.61-4.28-.43-.16-.91-.3-1.5-.38-4.51-.64-8.77,1.46-9.51,4.66h6.41Z"/>
      <path class="cls-2" d="M6.75,8.29h5.76c.48-1.67,1.89-3.09,3.88-3.94-.19-.04-.38-.08-.58-.11-4.15-.59-8.11,1.21-9.06,4.05h0ZM12.75,8.91h-6.41c-.1,0-.18-.04-.24-.12-.06-.07-.08-.17-.06-.26.79-3.37,5.21-5.56,9.86-4.9.57.08,1.08.21,1.57.4.12.05.2.17.2.3,0,.13-.09.25-.22.29-2.33.75-3.98,2.26-4.4,4.06-.03.14-.16.24-.3.24Z"/>
    </g>
  </g>
</svg>