<?xml version="1.0" encoding="UTF-8"?>
<svg id="Layer_2" data-name="Layer 2" xmlns="http://www.w3.org/2000/svg" viewBox="0 0 41.6 34.42" fill="currentColor">
  <defs>
    <style>
      .cls-1, .cls-2, .cls-3, .cls-4 {
        fill-rule: evenodd;
      }

      .cls-1, .cls-5 {
        fill: #fff;
      }

      .cls-2 {
        fill: #1a87c7;
      }

      .cls-3 {
        fill: #bdedf8;
      }

      .cls-4 {
        fill: #66ceef;
      }
    </style>
  </defs>
  <g id="_Layer_" data-name="&amp;lt;Layer&amp;gt;">
    <g>
      <path class="cls-4" d="M15.46,4.59c.39.23.66.51.92.88l-11.74,6.77c-.21-.34-.45-.66-.92-.88-.31-.19-2.8-1.62-2.93-1.64L12.47,2.98c.08-.03.11-.02.18.02l2.8,1.59Z"/>
      <path class="cls-2" d="M1.44,9.71c.37.2,1,.55,2.04,1.15l.39.24c.39.19.65.45.86.74l11.19-6.46c-.21-.22-.39-.38-.63-.52l-2.75-1.56L1.44,9.71h0ZM4.64,12.55c-.11,0-.18-.05-.26-.14-.21-.33-.39-.59-.79-.77l-.42-.25c-.63-.35-2.25-1.3-2.46-1.37-.13-.02-.21-.11-.24-.24-.03-.13.05-.26.18-.32L12.31,2.71c.26-.09.39-.04.47,0l2.83,1.6h0c.39.24.71.54,1.02.97.03.07.05.16.03.24,0,.08-.05.16-.13.2l-11.74,6.78c-.05.03-.11.04-.16.04Z"/>
      <polygon class="cls-1" points="34.98 13.75 34.98 12 33.51 12.86 33.51 14.61 34.98 13.75"/>
      <path class="cls-2" d="M34.98,13.75h.03-.03ZM33.8,13.03v1.04l.89-.5v-1.05l-.89.51h0ZM33.51,14.92c-.05,0-.1-.01-.16-.04-.11-.06-.16-.16-.16-.26v-1.76c0-.11.05-.21.16-.27l1.47-.86c.11-.06.24-.06.31,0,.11.05.16.16.16.27v1.75c0,.11-.05.21-.16.27l-1.49.86s-.08.04-.13.04Z"/>
      <path class="cls-4" d="M4.74,18.53v.13l-.58.32c.05-.05.05-.08.08-.16,0-.46.05-.78.21-1.22.18-.44.39-.7.79-.96l1.68-.96.31.57-1.68.96c-.39.24-.71.69-.81,1.31Z"/>
      <path class="cls-2" d="M6.79,16.11l-1.39.8c-.21.13-.34.25-.47.44.13-.16.31-.3.5-.4l1.39-.81-.03-.03h0ZM4.74,18.53h.03-.03ZM4.17,19.29c-.11,0-.21-.05-.26-.13-.08-.12-.05-.27.03-.37.03-.45.05-.81.24-1.28.21-.47.42-.8.92-1.12l1.68-.97c.08-.04.16-.05.24-.03.08.02.16.08.18.15l.31.57c.08.15.03.33-.13.41l-1.65.96c-.34.2-.58.58-.65,1.1h0s-.03.12-.03.12c0,.09-.05.18-.16.23l-.55.32c-.05.03-.1.04-.16.04Z"/>
      <path class="cls-4" d="M11.95,18.32c-.68-1.28-2.62-3.23-4.14-2.4l-2.25,1.3c1.68-.87,3.62,1.3,4.35,2.75.63,1.25,1.2,3.56-.18,4.44.42-.25,2.25-1.24,2.52-1.51,1.13-1.08.45-3.35-.29-4.58Z"/>
      <path class="cls-2" d="M6.94,16.78c.05.02.11.03.16.05,1.28.41,2.49,1.84,3.09,3,.42.87.92,2.43.58,3.63.55-.31,1.13-.66,1.26-.78.97-.95.34-3.04-.34-4.21h0c-.5-.93-1.57-2.07-2.59-2.37-.42-.12-.81-.09-1.13.09l-1.02.59h0ZM9.72,24.72c-.1,0-.21-.05-.26-.15-.1-.14-.05-.33.08-.42,1.2-.75.71-2.83.08-4.05-.52-1.08-1.65-2.35-2.7-2.69-.45-.14-.86-.12-1.21.07-.16.08-.34.02-.42-.12-.08-.15-.03-.33.1-.42l2.25-1.29c.47-.27,1.02-.31,1.6-.14,1.34.39,2.51,1.8,2.99,2.66.65,1.16,1.55,3.68.21,4.96-.21.2-.94.63-2.18,1.32l-.39.23c-.05.03-.1.04-.16.04Z"/>
      <path class="cls-4" d="M9.72,19.61c-.52-.92-1.28-1.72-2.1-2.19-.79-.47-1.54-.51-2.07-.21h0c-.52.31-.86.97-.86,1.9s.34,1.97.86,2.89c.52.92,1.28,1.72,2.07,2.19.81.47,1.57.51,2.1.2.52-.31.86-.96.86-1.9s-.34-1.97-.86-2.89h0Z"/>
      <path class="cls-2" d="M6.31,17.33c-.21,0-.42.05-.6.15-.45.26-.71.84-.71,1.63,0,.85.29,1.82.81,2.74.55.92,1.23,1.66,1.96,2.08.71.4,1.34.47,1.78.21.45-.26.71-.84.71-1.63,0-.85-.29-1.82-.81-2.73,0,0,0,0-.03-.02-.52-.91-1.2-1.65-1.94-2.08-.42-.24-.81-.36-1.18-.36h0ZM8.96,24.92c-.47,0-.97-.15-1.49-.45-.81-.48-1.6-1.29-2.17-2.3-.58-1.01-.89-2.09-.89-3.05,0-1.02.34-1.79,1.02-2.17.63-.38,1.49-.31,2.36.2.84.48,1.6,1.29,2.2,2.29v.02c.58,1.01.89,2.09.89,3.05,0,1.02-.34,1.79-1,2.17-.29.16-.6.24-.92.24Z"/>
      <path class="cls-4" d="M20.91,27.89s0,.09-.03.13l-.55.32c.05-.05.08-.08.08-.16,0-.4.03-.69.16-1.08.18-.51.37-.83.84-1.12l2.15-1.25v.75l-1.52.88c-.16.09-.34.18-.47.3-.34.26-.55.67-.66,1.22Z"/>
      <path class="cls-2" d="M23.27,25.27l-1.7.98c-.21.13-.34.27-.47.45.08-.1.18-.19.26-.27.13-.1.29-.19.45-.27l1.47-.89h0ZM20.33,28.65c-.1,0-.18-.05-.24-.13-.11-.12-.08-.27,0-.37.03-.38.05-.7.16-1.13.18-.53.42-.95,1-1.3l2.17-1.25c.08-.06.21-.06.29,0,.1.06.16.16.16.27v.75c0,.11-.05.21-.16.26l-1.62.94c-.1.07-.24.14-.34.21-.26.22-.45.58-.52,1.03h0s-.03.12-.03.12c0,.1-.05.18-.16.23l-.55.32c-.05.03-.11.04-.16.04Z"/>
      <path class="cls-4" d="M28.14,27.65c-.71-1.27-2.65-3.23-4.17-2.4l-2.25,1.3c1.68-.87,3.62,1.3,4.35,2.75.63,1.26,1.21,3.56-.18,4.44.45-.25,2.25-1.24,2.52-1.5,1.13-1.09.45-3.35-.26-4.59Z"/>
      <path class="cls-2" d="M23.11,26.12c.05.01.1.03.16.05,1.28.41,2.49,1.84,3.09,3,.42.87.94,2.43.58,3.63.55-.31,1.13-.66,1.26-.78.97-.94.34-3.03-.34-4.21h0c-.5-.92-1.57-2.07-2.59-2.37-.42-.12-.81-.09-1.13.09l-1.02.59h0ZM25.89,34.05c-.11,0-.21-.05-.26-.15-.08-.14-.05-.33.08-.42,1.2-.75.71-2.83.08-4.04-.52-1.08-1.65-2.35-2.7-2.69-.45-.14-.84-.12-1.2.07-.16.08-.34.02-.42-.13-.08-.15-.03-.33.13-.41l2.23-1.3c.5-.27,1.02-.31,1.62-.14,1.34.39,2.49,1.8,2.96,2.66.65,1.16,1.54,3.68.21,4.95-.21.2-.94.64-2.17,1.32l-.39.23c-.05.03-.11.04-.16.04Z"/>
      <path class="cls-4" d="M25.89,28.95c-.52-.92-1.26-1.72-2.1-2.19-.79-.47-1.52-.51-2.07-.2h0c-.52.31-.86.96-.86,1.9s.34,1.97.89,2.89c.52.92,1.26,1.73,2.04,2.19.84.47,1.57.51,2.1.2.52-.31.86-.96.86-1.9s-.34-1.97-.86-2.89h0Z"/>
      <path class="cls-2" d="M22.5,26.66c-.23,0-.45.05-.63.16-.45.26-.71.84-.71,1.63,0,.85.29,1.83.81,2.74.55.92,1.23,1.66,1.96,2.08.71.4,1.34.47,1.78.21.45-.26.71-.84.71-1.63,0-.85-.29-1.83-.81-2.74l.26-.15-.26.15c-.52-.91-1.23-1.65-1.96-2.08-.42-.24-.81-.36-1.15-.36h0ZM25.12,34.25c-.47,0-.97-.15-1.47-.44-.84-.48-1.62-1.3-2.2-2.31-.58-1.01-.89-2.09-.89-3.05,0-1.02.34-1.79,1.02-2.17.63-.38,1.49-.3,2.36.21.84.48,1.62,1.29,2.2,2.3,0,.01,0,.03.03.04h0c.55.97.89,2.05.89,3.01,0,1.02-.37,1.79-1.02,2.17-.29.16-.58.24-.92.24Z"/>
      <rect class="cls-5" x="20.09" y="28.11" width=".88" height="0" transform="translate(-11.26 13.91) rotate(-29.79)"/>
      <path class="cls-2" d="M20.15,28.64c-.1,0-.21-.06-.26-.16-.08-.15-.03-.33.13-.42l.73-.43c.16-.08.34-.03.42.11.03.05.05.1.05.15,0,.11-.05.21-.16.27l-.76.43h0c-.05.03-.11.04-.16.04Z"/>
      <path class="cls-4" d="M34.64,15.33l5.76,3.35c.76.44.89.75.89.97v7.04l-11.74,6.78v-7.04c0-.24,0-.46-.58-.8l-6.1-3.52,11.76-6.78Z"/>
      <path class="cls-2" d="M23.5,22.11l5.63,3.26c.65.39.73.71.73,1.06v6.5l11.11-6.42v-6.86c0-.24-.45-.54-.73-.7l-5.61-3.26-11.13,6.42h0ZM29.55,33.77c-.05,0-.1-.01-.16-.04-.11-.05-.16-.16-.16-.27v-7.04c0-.17,0-.28-.42-.53l-6.08-3.52c-.1-.06-.16-.16-.16-.27s.05-.21.16-.27l11.74-6.77c.08-.06.21-.06.29,0l5.79,3.35c.71.41,1.05.8,1.05,1.23v7.04c0,.11-.05.21-.16.26l-11.74,6.78c-.05.03-.11.04-.16.04Z"/>
      <polygon class="cls-4" points="41.29 19.65 41.29 26.69 29.55 33.47 29.55 26.43 41.29 19.65"/>
      <path class="cls-2" d="M29.87,26.61v6.32l11.11-6.42v-6.33l-11.11,6.42h0ZM29.55,33.77c-.05,0-.1-.01-.16-.04-.11-.05-.16-.16-.16-.27v-7.04c0-.11.05-.21.16-.26l11.74-6.78c.11-.06.21-.06.31,0,.11.06.16.16.16.27v7.04c0,.11-.05.21-.16.26l-11.74,6.78c-.05.03-.11.04-.16.04Z"/>
      <path class="cls-1" d="M29.53,6.21c.37.23.65.52.92.88l-11.74,6.77h0c-.26-.35-.55-.66-.92-.88L7.52,7.1s-.05-.03-.08-.03l.05-.03L19.02.38c.11-.07.13-.11.29-.04l10.22,5.87Z"/>
      <path class="cls-2" d="M8.07,7.05l9.88,5.66c.31.18.58.43.84.74l11.19-6.46c-.18-.22-.37-.38-.6-.52L19.15.6s.08,0,.11,0l-.24-.22.13.27-11.08,6.4h0ZM18.71,14.17c-.1,0-.21-.05-.26-.13-.24-.35-.5-.62-.81-.79L7.36,7.36c-.1-.02-.21-.11-.24-.24-.03-.13.05-.26.16-.33L18.86.11c.16-.1.31-.17.55-.05l10.27,5.88h0c.39.24.71.54,1,.97.05.07.08.16.05.24,0,.08-.05.16-.13.2l-11.74,6.78c-.05.03-.1.04-.16.04Z"/>
      <polygon class="cls-3" points=".31 13.16 .68 13.38 .68 14.69 .31 14.47 .31 13.16"/>
      <path class="cls-2" d="M.68,15c-.05,0-.11-.01-.13-.04l-.39-.22c-.1-.06-.16-.16-.16-.27v-1.31c0-.11.05-.21.16-.27.08-.05.21-.06.31,0l.37.22c.11.06.16.16.16.27v1.31c0,.11-.05.21-.16.27-.03.03-.1.04-.16.04Z"/>
      <polygon class="cls-3" points=".84 13.3 .63 13.18 .63 12.98 .31 13.16 .68 13.38 .84 13.3"/>
      <path class="cls-2" d="M.68,13.69c-.05,0-.11-.02-.13-.04l-.39-.22c-.1-.06-.16-.16-.16-.27s.05-.21.16-.27l.31-.18c.08-.05.21-.05.29,0,.11.06.16.16.16.27v.02l.08.03c.08.06.16.16.16.27s-.08.21-.16.27l-.16.08s-.1.04-.16.04Z"/>
      <path class="cls-4" d="M7.44,7.06s.05.02.08.03l10.27,5.89c.24.13.45.31.63.52.24.26.42.54.6.84,1.21,2.06,2.8,5.93,3.35,7.04.13.29.24.56.5.72l6.1,3.52.03.02c.47.29.55.49.55.7v7.12c0,.16-.1.23-.26.14l-1.83-1.07c-.13-.08-.26-.28-.26-.44,0-1.08-.37-2.28-1-3.35v-.02c-.63-1.06-1.47-1.97-2.41-2.51-.92-.54-1.76-.59-2.38-.24-.63.35-1,1.12-1,2.2,0,.16-.13.22-.26.14h0c-1.78-1.04-7.34-4.26-8.86-5.15-.16-.08-.26-.27-.26-.44v-.02c0-1.07-.39-2.26-.99-3.31-.63-1.06-1.47-1.98-2.41-2.52-.92-.54-1.78-.59-2.38-.24-.6.35-1,1.1-1,2.17,0,.16-.13.22-.26.14h0l-1.86-1.07c-.39-.24-.79-.66-1.05-1.13-.29-.47-.45-1.01-.45-1.49v-5.09c0-.79.89-.65,1.28-.43.63.37,1.41.7,1.47.67l4.06-3.36Z"/>
      <path class="cls-2" d="M7.36,7.36h.03-.03ZM22.3,25.45c.52,0,1.07.17,1.65.51.97.55,1.83,1.48,2.51,2.63.68,1.18,1.05,2.42,1.05,3.52,0,.05.05.15.11.17l1.62.95v-6.87c0-.08,0-.2-.39-.44l-6.11-3.53c-.34-.19-.47-.48-.6-.74l-.05-.11c-.16-.34-.42-.94-.76-1.66-.73-1.66-1.73-3.94-2.59-5.36-.18-.31-.34-.56-.55-.79-.16-.2-.37-.35-.55-.47L7.49,7.43l-3.9,3.23c-.1.07-.31.24-1.83-.63-.21-.12-.58-.18-.73-.08-.03.02-.1.06-.1.25v5.09c0,.41.16.89.42,1.34.26.44.6.81.94,1.02l1.65.96c.05-1.03.47-1.81,1.15-2.2.73-.42,1.7-.33,2.7.24.97.55,1.86,1.48,2.51,2.63.66,1.14,1.02,2.37,1.05,3.46,0,.07.05.17.1.19.73.42,2.36,1.38,4.09,2.38,1.76,1.02,3.56,2.07,4.58,2.66.03-1.04.45-1.83,1.13-2.23.31-.18.65-.27,1.05-.27h0ZM29.42,33.95c-.1,0-.18-.02-.26-.08l-1.86-1.07c-.24-.14-.39-.43-.39-.7,0-.99-.34-2.13-.97-3.19-.63-1.07-1.44-1.93-2.28-2.42-.81-.47-1.57-.55-2.1-.24-.55.32-.84,1-.84,1.93,0,.19-.1.35-.24.43-.16.08-.34.08-.47-.02-1-.56-3.07-1.77-5-2.89-1.62-.95-3.17-1.85-3.88-2.25-.24-.14-.39-.43-.39-.7-.03-1-.37-2.13-.97-3.18-.63-1.06-1.44-1.92-2.31-2.41-.79-.47-1.52-.55-2.07-.24-.55.31-.84.99-.84,1.91,0,.19-.1.34-.24.43-.16.08-.34.08-.5-.02l-1.86-1.07c-.45-.26-.86-.7-1.18-1.24-.31-.54-.47-1.12-.47-1.64v-5.09c0-.35.13-.63.39-.78.45-.25,1.05-.09,1.34.08.52.29,1.05.52,1.26.6l3.96-3.26.18.24-.18-.24c.1-.09.31-.07.42,0l10.27,5.89c.24.14.47.34.71.58.23.28.42.57.63.89.84,1.45,1.86,3.75,2.62,5.42.31.71.58,1.3.73,1.64l.05.11c.13.25.21.39.34.47l6.1,3.52c.5.31.71.58.73.97v7.13c0,.19-.08.35-.24.43-.08.04-.13.06-.21.06Z"/>
      <path class="cls-4" d="M29.55,32.22v1.25c0,.15-.1.22-.26.14l-1.83-1.07c-.13-.08-.26-.28-.26-.44,0-.43-.05-.89-.16-1.34l2.51,1.46Z"/>
      <path class="cls-2" d="M27.46,31.37c.03.25.05.5.05.74,0,.05.05.15.11.17l1.62.95v-.82l-1.78-1.03h0ZM29.42,33.95c-.1,0-.18-.03-.26-.08l-1.86-1.07c-.24-.14-.39-.43-.39-.7,0-.4-.08-.83-.18-1.27-.03-.12.03-.24.13-.32.08-.07.24-.08.34-.02l2.52,1.46c.1.06.16.16.16.27v1.24c0,.2-.1.35-.24.43-.08.04-.13.06-.21.06Z"/>
      <path class="cls-1" d="M22.87,22.11l-.92,3.68c-.21.04-.39.1-.55.2-.63.35-1,1.12-1,2.2,0,.16-.13.22-.26.14h0c-1.73-.99-6.86-3.99-8.65-5.02-.08-.04-.13-.09-.21-.13-.16-.08-.26-.27-.26-.44v-.02c0-2.09-1.47-4.73-3.41-5.83-.92-.54-1.78-.59-2.38-.24l-.92-1.57-1.02-1.79.26-3.02,3.88-3.21s.05.02.08.03l1.07.61,2.91,1.67,6.29,3.6c.34.2.66.51.92.88h0s0,0,0,0c1.02,1.53,3.38,6.45,4.17,8.25Z"/>
      <path class="cls-2" d="M7.36,7.36h.03-.03ZM6.1,16.12c.52,0,1.1.17,1.68.51,1.94,1.11,3.54,3.85,3.56,6.1,0,.07.05.17.1.19l.21.13c.84.48,2.36,1.37,3.96,2.3,1.73,1,3.51,2.04,4.51,2.61.03-1.04.45-1.83,1.13-2.23.13-.08.29-.14.45-.19l.86-3.4c-.81-1.8-3.09-6.61-4.11-8.1-.24-.34-.52-.61-.81-.79L7.49,7.43l-3.64,3.01-.24,2.79,1.76,3.03c.24-.09.47-.13.73-.13h0ZM20.28,28.67c-.1,0-.18-.03-.26-.08-.97-.56-3.01-1.74-4.95-2.86-1.49-.88-2.93-1.71-3.72-2.17l-.21-.13c-.24-.14-.39-.43-.39-.7-.03-2.07-1.49-4.57-3.27-5.59-.79-.47-1.52-.55-2.07-.24-.13.08-.34.03-.42-.11l-1.94-3.36c-.03-.05-.05-.12-.05-.18l.26-3.02c0-.08.05-.16.11-.21l3.9-3.22c.1-.09.31-.07.42,0l10.27,5.89c.37.21.71.55,1,.97,1.07,1.56,3.46,6.57,4.22,8.3.03.07.05.14.03.2l-.94,3.68c-.05.11-.13.2-.26.22-.13.03-.29.08-.42.16-.55.32-.84,1-.84,1.93,0,.19-.1.35-.24.43-.08.04-.16.06-.21.06Z"/>
      <path class="cls-4" d="M14.67,12.82l2.46,1.42c.18.11.37.29.52.51h0c.55.78,2.72,5.27,3.3,6.32.03.18-.05.29-.18.26-.03,0-.05-.02-.08-.03h0s-6.03-3.49-6.03-3.49c-.13-.08-.26-.27-.26-.44v-4.41c0-.16.13-.23.26-.14Z"/>
      <path class="cls-2" d="M14.67,12.82l-.16.26h0l.16-.26h0ZM14.72,13.21v4.17s.05.14.08.17l5.66,3.26c-.18-.33-.39-.81-.68-1.35-.84-1.69-2.02-4.01-2.38-4.53-.13-.18-.26-.33-.42-.42l-2.25-1.3h0ZM20.83,21.65c-.05,0-.08,0-.13-.02-.03,0-.13-.05-.16-.06l-6.03-3.49c-.24-.14-.42-.43-.42-.7v-4.41c0-.19.1-.35.24-.43.16-.08.31-.08.47.02l2.46,1.42c.23.13.47.34.65.61.37.56,1.49,2.8,2.41,4.61.39.77.71,1.42.89,1.75.03.03.03.05.03.08.05.21,0,.39-.13.51-.08.08-.18.12-.29.12Z"/>
      <path class="cls-4" d="M9.25,9.69l4.06,2.34c.16.08.29.3.29.47v4.63c0,.17-.13.25-.29.16l-4.06-2.34c-.13-.09-.26-.3-.26-.47v-4.63c0-.17.13-.24.26-.16Z"/>
      <path class="cls-2" d="M9.25,9.69l-.13.27h0l.13-.27h0ZM9.3,10.06v4.41c0,.07.05.18.11.21l3.88,2.23v-4.41c0-.06-.08-.18-.13-.21l-3.85-2.23h0ZM13.44,17.64c-.11,0-.18-.03-.29-.08l-4.03-2.34c-.26-.14-.45-.46-.45-.74v-4.63c0-.19.11-.36.24-.44.16-.08.34-.08.5.02h0l4.06,2.34c.26.14.45.46.45.74v4.63c0,.2-.11.36-.24.44-.08.04-.16.06-.24.06Z"/>
      <path class="cls-4" d="M7.86,9.08c.16.08.29.3.29.47v4.44c0,.17-.13.24-.29.16l-2.65-1.53c-.5-.29-.45-.71-.11-1.1l2.04-2.31c.26-.33.52-.23.71-.11Z"/>
      <path class="cls-2" d="M7.55,9.28c-.05,0-.1.03-.18.12l-2.02,2.31c-.13.15-.21.3-.18.4,0,.1.1.18.21.23l2.46,1.42v-4.22c0-.06-.08-.18-.13-.2h0c-.05-.04-.1-.07-.16-.07h0ZM7.99,14.49c-.1,0-.18-.03-.29-.08l-2.65-1.53c-.37-.21-.5-.48-.52-.67-.03-.2,0-.52.34-.9l2.04-2.32c.47-.54.92-.28,1.1-.18h0c.24.14.42.46.42.74v4.44c0,.19-.08.36-.24.44-.05.04-.13.06-.21.06Z"/>
      <path class="cls-2" d="M15.75,20.13c-.05,0-.11-.01-.13-.04l-1.68-.96c-.16-.08-.21-.28-.11-.42.08-.15.26-.2.42-.11l1.65.96c.16.09.21.28.13.42-.05.1-.16.15-.29.15Z"/>
      <path class="cls-2" d="M9.72,16.64c-.05,0-.1-.01-.16-.04l-1.68-.96c-.13-.09-.18-.28-.1-.42.08-.15.26-.2.42-.11l1.68.96c.16.08.18.28.1.42-.05.1-.16.15-.26.15Z"/>
      <path class="cls-1" d="M29.55,33.47l11.74-6.78c0,.08,0,.11-.08.16l-11.74,6.78.03-.02c.05-.06.05-.07.05-.14Z"/>
      <path class="cls-2" d="M29.47,33.94c-.1,0-.18-.04-.24-.13-.08-.12-.08-.28,0-.38.05-.08.08-.18.16-.22l11.74-6.78c.11-.06.24-.05.31,0,.11.06.16.17.16.29-.03.1-.03.24-.18.37l-11.79,6.8c-.05.03-.1.04-.16.04Z"/>
      <path class="cls-1" d="M40.06,24.69c-.55.31-1,.06-1-.57s.45-1.39,1-1.7c.52-.31.97-.06.97.57s-.45,1.39-.97,1.7Z"/>
      <path class="cls-2" d="M40.48,22.59c-.08,0-.18.03-.29.09-.45.26-.81.92-.81,1.44,0,.18.05.32.13.37.08.05.24.02.39-.07h0c.45-.26.81-.92.81-1.44,0-.18-.05-.32-.13-.37-.03-.02-.05-.02-.11-.02h0ZM39.61,25.13c-.16,0-.29-.04-.42-.11-.29-.16-.45-.49-.45-.9,0-.74.5-1.6,1.15-1.97.34-.21.71-.23,1-.07.29.16.45.49.45.9,0,.74-.5,1.6-1.15,1.97h0c-.18.12-.39.18-.58.18Z"/>
      <polygon class="cls-1" points="41.29 27.34 41.29 25.44 29.55 32.22 29.55 34.11 41.29 27.34"/>
      <path class="cls-2" d="M29.87,32.4v1.18l11.11-6.42v-1.18l-11.11,6.42h0ZM29.55,34.42c-.05,0-.1-.01-.16-.04-.11-.05-.16-.15-.16-.26v-1.89c0-.11.05-.21.16-.27l11.74-6.78c.11-.05.21-.05.31,0,.11.06.16.16.16.26v1.89c0,.11-.05.21-.16.27l-11.74,6.77c-.05.03-.11.04-.16.04Z"/>
      <path class="cls-2" d="M33.33,27.85c-.11,0-.21-.06-.26-.16-.08-.15-.03-.34.1-.42l4.74-2.73c.16-.09.34-.03.42.11.08.15.03.34-.1.42l-4.74,2.73c-.05.03-.11.04-.16.04Z"/>
      <path class="cls-2" d="M33.33,26.83c-.11,0-.21-.05-.26-.15-.08-.15-.03-.34.1-.42l4.74-2.73c.16-.09.34-.04.42.11.08.15.03.34-.1.42l-4.74,2.73c-.05.03-.11.04-.16.04Z"/>
      <path class="cls-2" d="M33.33,28.86c-.11,0-.21-.05-.26-.15-.08-.15-.03-.33.1-.42l4.74-2.73c.16-.09.34-.04.42.11.08.15.03.33-.1.42l-4.74,2.73c-.05.03-.11.04-.16.04Z"/>
      <path class="cls-1" d="M31.31,29.71c-.52.31-.97.06-.97-.57s.45-1.39.97-1.7c.55-.31,1-.06,1,.57s-.45,1.39-1,1.71Z"/>
      <path class="cls-2" d="M31.75,27.61c-.08,0-.18.03-.29.09-.45.26-.81.92-.81,1.44,0,.18.05.32.13.37.08.05.24.02.37-.07.47-.26.84-.92.84-1.44,0-.18-.05-.32-.13-.37-.03-.02-.05-.02-.1-.02h0ZM31.31,29.71h.03-.03ZM30.89,30.15c-.16,0-.29-.04-.42-.11-.29-.16-.45-.49-.45-.9,0-.74.5-1.6,1.13-1.97.37-.21.73-.23,1.02-.07.29.16.45.49.45.9,0,.74-.5,1.6-1.15,1.97h0c-.21.12-.39.18-.58.18Z"/>
      <polygon class="cls-1" points="29.55 32.22 26.78 30.62 26.78 32.51 29.55 34.11 29.55 32.22"/>
      <path class="cls-2" d="M27.09,32.33l2.15,1.24v-1.18l-2.15-1.24v1.18h0ZM29.55,34.42c-.05,0-.1-.01-.16-.04l-2.78-1.6c-.08-.06-.13-.16-.13-.27v-1.89c0-.11.05-.21.13-.27.11-.05.24-.05.31,0l2.78,1.6c.1.06.16.16.16.27v1.89c0,.11-.05.21-.16.26-.05.03-.11.04-.16.04Z"/>
      <path class="cls-1" d="M18.71,13.86l11.74-6.78,3.67,7.53c.13.29.24.56.52.72l-11.76,6.78c-.13-.08-.21-.18-.29-.31-.08-.13-.16-.27-.21-.41-.6-1.19-2.36-5.51-3.62-7.42v-.03l-.05-.07Z"/>
      <path class="cls-2" d="M19.13,13.97c.92,1.46,1.99,3.86,2.78,5.64.31.71.58,1.3.73,1.64l.05.08c.03.1.08.21.16.31.03.04.05.07.05.1l11.21-6.47c-.11-.14-.18-.29-.24-.42l-.05-.1-3.51-7.23-11.19,6.45h0ZM22.87,22.42c-.05,0-.1-.01-.16-.04-.16-.1-.29-.22-.39-.41-.08-.13-.13-.24-.21-.37l-.03-.07c-.16-.34-.42-.94-.76-1.67-.76-1.74-1.94-4.38-2.83-5.72l-.05-.1c-.05-.07-.08-.16-.05-.24.03-.08.08-.16.16-.2l11.74-6.78c.08-.04.16-.05.24-.03.08.02.16.08.18.16l3.72,7.63c.13.25.21.4.34.49.1.06.16.16.16.26s-.05.21-.16.27l-11.74,6.78s-.08.04-.16.04Z"/>
      <polygon class="cls-4" points="20.02 14.57 30.02 8.79 33.14 15.07 23.13 20.84 20.02 14.57"/>
      <path class="cls-2" d="M20.44,14.69l2.83,5.72,9.48-5.47-2.86-5.73-9.46,5.47h0ZM23.13,21.15s-.05,0-.08-.01c-.08-.03-.16-.08-.18-.16l-3.12-6.28c-.08-.14-.03-.32.13-.4l9.98-5.78c.08-.04.18-.05.26-.03.08.03.13.08.18.16l3.12,6.28c.08.15.03.32-.13.4l-10.01,5.78s-.1.04-.16.04Z"/>
      <polygon class="cls-3" points="22.43 19.38 27.82 16.34 28.79 14.64 31.41 13.16 32.33 13.39 33.14 15.07 23.13 20.84 22.43 19.38"/>
      <path class="cls-2" d="M22.82,19.51l.45.91,9.48-5.47-.63-1.29-.68-.17-2.44,1.38-.89,1.62s-.08.09-.13.12l-5.16,2.9h0ZM23.13,21.15s-.05,0-.08-.01c-.08-.03-.16-.08-.18-.16l-.73-1.46c-.08-.15-.03-.32.13-.41l5.34-3,.89-1.62s.08-.09.13-.12l2.62-1.48c.05-.04.13-.05.21-.03l.94.23c.08.02.16.08.18.16l.84,1.67c.08.15.03.32-.13.4l-10.01,5.78s-.1.04-.16.04Z"/>
      <polygon class="cls-1" points="20.99 21.81 20.99 20.06 19.49 20.92 19.49 22.67 20.99 21.81"/>
      <path class="cls-2" d="M19.81,21.1v1.04l.86-.51v-1.04l-.86.51h0ZM19.49,22.98c-.05,0-.1-.01-.13-.04-.1-.06-.16-.16-.16-.27v-1.75c0-.11.05-.21.16-.27l1.47-.86c.1-.05.21-.05.31,0,.1.06.16.16.16.27v1.75c0,.11-.05.21-.16.27l-1.49.86s-.08.04-.16.04Z"/>
      <path class="cls-2" d="M20.99,21.89c-.11,0-.21-.05-.26-.15-.08-.15-.03-.34.11-.42l.52-.29c.13-.09.34-.04.42.11.08.15.03.34-.11.42l-.52.29c-.05.03-.11.04-.16.04Z"/>
      <path class="cls-3" d="M23.53,7.1c-.03-.73-.63-1.31-1.36-1.31s-1.31.58-1.34,1.31v1.44c.03.19.16.37.39.51.52.3,1.39.3,1.91,0,.24-.14.37-.32.39-.51v-1.44Z"/>
      <path class="cls-2" d="M22.16,6.09c-.55,0-1.02.45-1.02,1.01v1.43c0,.06.1.16.24.24.45.25,1.15.25,1.6,0,.13-.08.24-.18.24-.27v-1.41c-.03-.56-.47-1.01-1.05-1.01h0ZM22.16,9.58c-.39,0-.79-.09-1.1-.27-.31-.19-.52-.46-.55-.75v-1.46c.03-.9.76-1.62,1.65-1.62s1.62.73,1.65,1.61h0v1.45c-.03.32-.21.59-.52.78-.31.18-.73.27-1.13.27Z"/>
      <path class="cls-3" d="M17.37,22.59l.86.6c.08.05.31.19.34.28,0,.05-.05.1-.11.11l-.76.34c-.08.04-.18.05-.16.22l.18.97c0,.06.03.21.05.35.03.12.05.28,0,.3-.05.03-.26-.28-.34-.36l-.81-1.02c-.05-.08-.1-.12-.18-.11l-1.05.11c-.05,0-.13-.11-.13-.19l.26-1.22c.03-.07,0-.16-.05-.25l-.84-1.33c-.03-.07-.16-.22-.11-.25.05-.03.13,0,.16.02l.97.45c.34.15.29.12.42-.15l.26-.53.08-.19c.08-.17.13-.23.26.15l.42,1.41c.05.16.16.22.26.29Z"/>
      <path class="cls-2" d="M15.38,24.07h0s0,0,0,0h0ZM16.48,23.96c.13,0,.29.08.42.23l.47.6-.1-.59c-.03-.18,0-.42.31-.55l.47-.21-.84-.59.16-.25-.21.24c-.1-.08-.26-.18-.34-.44l-.34-1.07-.16.37c-.05.11-.1.25-.26.3-.18.06-.34,0-.52-.09l-.29-.14.5.81c.1.15.13.32.1.47l-.21,1,.79-.08s.03,0,.05,0h0ZM17.79,26.06c-.21,0-.37-.21-.52-.43l-.84-1.06-1,.1c-.11.02-.24-.04-.34-.14-.11-.11-.13-.27-.11-.41l.26-1.22-.86-1.35c-.08-.14-.29-.45-.03-.66.16-.14.37-.07.47-.02l.97.45.34-.73c.05-.09.18-.32.42-.31.26.02.37.31.42.5l.45,1.41s0,.05.11.11l.03.02.86.59c.21.14.45.28.45.52.03.2-.13.35-.26.41l-.71.32.16.95c.03.08.03.17.05.27.03.22.08.51-.18.63-.05.02-.08.03-.13.03Z"/>
      <path class="cls-1" d="M24.94,29.49c.29.51.47,1.08.47,1.59s-.18.87-.47,1.05c-.29.17-.68.14-1.15-.11-.42-.26-.84-.7-1.13-1.21l-.03-.03c-.26-.5-.45-1.06-.45-1.56s.18-.88.47-1.05h0c.29-.17.71-.15,1.13.11.47.26.86.7,1.15,1.21Z"/>
      <path class="cls-2" d="M23.08,28.37c-.1,0-.18.02-.26.07-.21.12-.31.4-.31.78,0,.43.13.94.42,1.41.29.51.65.9,1.02,1.12.34.19.65.23.84.11.21-.12.34-.4.34-.78,0-.45-.16-.96-.45-1.44h0c-.29-.48-.65-.88-1.02-1.1-.21-.12-.39-.18-.58-.18h0ZM24.52,32.55c-.26,0-.58-.09-.86-.26-.47-.28-.94-.75-1.26-1.32-.34-.59-.52-1.2-.52-1.74,0-.61.23-1.08.63-1.31.42-.23.92-.19,1.44.11.5.28.94.74,1.26,1.32h0c.34.57.52,1.19.52,1.75,0,.61-.21,1.08-.63,1.31-.18.1-.37.15-.58.15Z"/>
      <path class="cls-1" d="M8.78,20.15c.29.51.47,1.08.47,1.59s-.18.88-.47,1.05c-.29.17-.71.14-1.15-.11-.42-.26-.84-.7-1.13-1.21l-.03-.03c-.29-.5-.45-1.06-.45-1.57s.18-.87.47-1.05h0c.29-.17.71-.14,1.13.11.45.26.86.7,1.15,1.2Z"/>
      <path class="cls-2" d="M6.92,19.04c-.1,0-.18.02-.26.07-.21.12-.31.4-.31.78,0,.43.13.94.42,1.41.29.5.65.9,1.02,1.12.34.19.65.23.84.12.21-.12.34-.4.34-.78,0-.45-.16-.96-.45-1.44h0c-.29-.47-.66-.87-1.02-1.09-.21-.12-.42-.18-.58-.18h0ZM8.36,23.21c-.26,0-.58-.09-.86-.26-.5-.28-.94-.74-1.26-1.32-.34-.6-.52-1.21-.52-1.75,0-.61.24-1.08.63-1.31.39-.23.92-.19,1.44.11.5.28.94.74,1.26,1.32h0c.34.57.52,1.2.52,1.75,0,.62-.24,1.08-.63,1.31-.18.1-.37.15-.58.15Z"/>
    </g>
  </g>
</svg>