<?xml version="1.0" encoding="UTF-8"?>
<svg id="Layer_2" data-name="Layer 2" xmlns="http://www.w3.org/2000/svg" viewBox="0 0 27.28 42.89" fill="currentColor">
  <defs>
    <style>
      .cls-1 {
        fill: #fff;
      }

      .cls-1, .cls-2, .cls-3, .cls-4 {
        fill-rule: evenodd;
      }

      .cls-2 {
        fill: #1a87c7;
      }

      .cls-3 {
        fill: #bdedf8;
      }

      .cls-4 {
        fill: #66ceef;
      }
    </style>
  </defs>
  <g id="_Layer_" data-name="&amp;lt;Layer&amp;gt;">
    <g>
      <polygon class="cls-3" points="13.64 39.89 26.98 32.19 13.64 24.5 .33 32.19 13.64 39.89"/>
      <path class="cls-2" d="M.96,32.19l12.68,7.32,12.68-7.32-12.68-7.32L.96,32.19h0ZM13.64,40.21c-.06,0-.11-.01-.16-.04L.16,32.47c-.11-.05-.16-.16-.16-.28,0-.11.05-.22.16-.27l13.31-7.7c.11-.06.25-.06.33,0l13.34,7.7c.08.05.14.16.14.27,0,.12-.05.22-.14.28l-13.34,7.7c-.05.03-.11.04-.16.04Z"/>
      <polygon class="cls-4" points=".33 34.87 13.64 42.56 13.64 39.89 .33 32.19 .33 34.87"/>
      <path class="cls-2" d="M.63,34.68l12.68,7.32v-1.93L.63,32.76v1.93h0ZM13.64,42.89c-.06,0-.11-.02-.16-.04L.16,35.15c-.11-.06-.16-.16-.16-.28v-2.67c0-.11.05-.22.16-.27.08-.06.22-.06.3,0l13.34,7.69c.11.06.16.16.16.28v2.67c0,.12-.05.22-.16.28-.05.03-.11.04-.16.04Z"/>
      <polygon class="cls-1" points="26.98 34.87 13.64 42.56 13.64 39.89 26.98 32.19 26.98 34.87"/>
      <path class="cls-2" d="M13.97,40.07v1.93l12.68-7.32v-1.93l-12.68,7.32h0ZM13.64,42.89c-.06,0-.11-.02-.16-.04-.08-.07-.16-.16-.16-.28v-2.67c0-.12.08-.22.16-.28l13.34-7.69c.11-.06.22-.06.33,0,.08.05.14.16.14.27v2.67c0,.12-.05.23-.14.28l-13.34,7.7c-.05.03-.11.04-.16.04Z"/>
      <path class="cls-1" d="M13.64,33.89c.74,0,1.51-.16,2.05-.5.58-.33.88-.75.88-1.19s-.3-.86-.88-1.19c-.55-.33-1.31-.49-2.05-.49s-1.51.16-2.05.49c-.57.33-.85.76-.85,1.19s.27.86.85,1.19c.55.34,1.32.5,2.05.5Z"/>
      <path class="cls-2" d="M13.64,30.83c-.71,0-1.4.16-1.89.45-.47.25-.71.58-.71.91s.25.66.71.92c.99.58,2.79.58,3.81,0,.44-.26.68-.58.68-.92s-.25-.65-.68-.91c-.52-.29-1.18-.45-1.92-.45h0ZM13.64,34.2c-.82,0-1.62-.19-2.22-.54-.66-.38-1.01-.9-1.01-1.47s.36-1.09,1.01-1.47c1.2-.69,3.26-.69,4.44,0,.66.38,1.04.9,1.04,1.47s-.38,1.09-1.04,1.47c-.58.34-1.37.54-2.22.54Z"/>
      <path class="cls-4" d="M15.69,33.37c.44-.25.85-.64.88-1.16v-15.11c-.05.94-1.23,1.42-2.03,1.57-1.07.2-2.57.04-3.37-.72-.25-.23-.44-.51-.44-.85v15.11c0,.68.74,1.16,1.29,1.37,1.12.42,2.63.37,3.67-.22Z"/>
      <path class="cls-2" d="M15.69,33.37h.03-.03ZM11.04,18.28v13.93c.03.48.63.87,1.12,1.06,1.07.41,2.47.33,3.4-.19.25-.16.66-.47.68-.88v-13.92c-.44.36-1.07.59-1.64.7-1.07.21-2.63.06-3.56-.7h0ZM13.64,34.18c-.6,0-1.18-.1-1.73-.3-.33-.14-1.48-.65-1.51-1.66v-15.12c0-.17.14-.31.3-.32h.03c.16,0,.3.14.3.3.03.24.14.45.36.64.71.66,2.11.82,3.1.64.63-.12,1.7-.52,1.75-1.27,0-.17.19-.32.33-.3.16.01.33.15.33.32v15.11c-.03.56-.38,1.05-1.04,1.43h0c-.63.36-1.42.55-2.22.55Z"/>
      <path class="cls-1" d="M15.69,33.37c.44-.25.85-.64.88-1.16v-13.67l-2,.2v15.02l1.12-.4Z"/>
      <path class="cls-2" d="M14.9,19.04v14.28l.69-.24c.25-.16.63-.46.66-.87v-13.3l-1.34.14h0ZM15.69,33.37h.03-.03ZM14.57,34.09c-.05,0-.11-.02-.16-.06-.11-.06-.14-.16-.14-.27v-15.02c0-.16.11-.31.27-.32l2-.2c.08-.01.16.02.25.08.05.05.11.15.11.24v13.67c-.03.55-.38,1.05-1.04,1.43,0,0-.03.02-.06.03l-1.12.41s-.06.02-.11.02Z"/>
      <path class="cls-4" d="M24.19,9.66C23.61,4.41,19.17.32,13.75.32,8.71.32,4.49,3.91,3.51,8.67c-.16.75-.25,1.53-.22,2.3.03,3.59.03,3.24,0,6.83h0c.14,5.67,4.77,10.22,10.46,10.22s10.35-4.55,10.49-10.22c0,0,0-2.44.03-5.59,0-.88.03-1.69-.08-2.55Z"/>
      <path class="cls-2" d="M3.61,17.72v.07c.14,5.47,4.68,9.92,10.13,9.92s10.03-4.44,10.16-9.92h0c0-.16.03-2.6.03-5.59v-.44c0-.71,0-1.37-.08-2.07h0C23.31,4.53,18.98.64,13.75.64,8.98.64,4.79,4.04,3.81,8.73c-.14.73-.22,1.48-.22,2.24.03,3.23.03,3.27.03,5.86v.89h0ZM13.75,28.35c-5.78,0-10.6-4.69-10.76-10.47-.03-.03-.03-.05-.03-.08v-.97c.03-2.59.03-2.63,0-5.86,0-.8.05-1.59.22-2.36C4.22,3.62,8.65,0,13.75,0c5.56,0,10.16,4.14,10.76,9.63h0c.08.74.08,1.42.06,2.14v.44c0,3.68,0,5.07-.08,5.6h.08c-.14,5.81-4.99,10.54-10.82,10.54Z"/>
      <path class="cls-1" d="M24.24,17.8c0,2.97-3.12,9.22-9.26,9.28-6.14.06-8.96-4.02-8.96-8.97,0-4.11-.08-5.24-.08-7.86C5.94,5.28,8.79,1.19,14.95,1.24c6.16.05,9.29,6.33,9.29,9.32v7.24h0ZM3.26,10.56h.03-.03Z"/>
      <path class="cls-2" d="M3.29,10.88c-.19,0-.33-.14-.33-.32,0-.18.14-.33.3-.33h.03c.16,0,.33.15.33.33,0,.17-.16.32-.33.32h0ZM3.37,18.13c-.19,0-.33-.15-.33-.33,0-.17.14-.32.33-.32h0c.16,0,.33.15.33.32,0,.18-.16.33-.33.33h0ZM14.82,1.56c-2.6,0-4.68.76-6.19,2.24-1.53,1.54-2.36,3.77-2.36,6.45,0,1.16,0,2.03.03,3,0,1.21.03,2.57.03,4.86,0,2.67.82,4.89,2.36,6.42,1.51,1.48,3.56,2.22,6.16,2.22h.14c5.78-.05,8.93-5.94,8.93-8.95v-4.02l.03-3.22c0-3.03-3.18-8.94-8.98-9h-.14ZM14.87,27.4c-2.77,0-5.04-.83-6.63-2.41-1.67-1.65-2.55-4.03-2.55-6.88,0-2.28-.03-3.64-.05-4.85,0-.97-.03-1.85-.03-3.01,0-2.85.88-5.24,2.58-6.91,1.59-1.59,3.89-2.42,6.63-2.42h.14c6.22.06,9.61,6.4,9.61,9.64v7.24h0c0,3.23-3.4,9.54-9.59,9.6h-.11Z"/>
    </g>
  </g>
</svg>