<?xml version="1.0" encoding="UTF-8"?>
<svg id="Layer_2" data-name="Layer 2" xmlns="http://www.w3.org/2000/svg" viewBox="0 0 82.11 82.05" fill="currentColor">
  <defs>
    <style>
      .cls-1 {
        fill: #fff;
      }

      .cls-1, .cls-2, .cls-3, .cls-4 {
        fill-rule: evenodd;
      }

      .cls-2 {
        fill: #1a87c7;
      }

      .cls-3 {
        fill: #bdedf8;
      }

      .cls-4 {
        fill: #66ceef;
      }
    </style>
  </defs>
  <g id="_Layer_" data-name="&amp;lt;Layer&amp;gt;">
    <g>
      <path class="cls-1" d="M12.47,12.45C19.81,5.15,29.87.62,41.03.62s21.27,4.52,28.61,11.82c7.28,7.32,11.84,17.42,11.84,28.58s-4.56,21.26-11.84,28.58c-7.34,7.32-17.45,11.84-28.61,11.84s-21.22-4.52-28.56-11.84C5.19,62.28.63,52.18.63,41.02S5.19,19.77,12.47,12.45Z"/>
      <path class="cls-2" d="M41.03,1.23c-10.58,0-20.59,4.14-28.09,11.65h0C5.4,20.41,1.26,30.4,1.26,41.02s4.14,20.64,11.69,28.14c7.49,7.51,17.5,11.66,28.09,11.66s20.65-4.16,28.14-11.66c7.55-7.51,11.69-17.5,11.69-28.14s-4.14-20.61-11.69-28.14C61.67,5.37,51.67,1.23,41.03,1.23h0ZM41.03,82.05c-10.95,0-21.22-4.26-28.98-12.01C4.3,62.28,0,51.99,0,41.02S4.3,19.77,12.05,12.01h0C19.81,4.28,30.08,0,41.03,0s21.27,4.28,29.03,12.01c7.75,7.76,12,18.06,12,29.01s-4.24,21.26-12,29.01c-7.76,7.76-18.03,12.01-29.03,12.01Z"/>
      <path class="cls-3" d="M53.5,70.33c-17.97,4.82-36.37-5.82-41.19-23.76C7.49,28.65,18.13,10.22,36.1,5.42c17.92-4.82,36.31,5.82,41.13,23.76,4.82,17.92-5.82,36.35-23.74,41.14h0ZM51.51,80.05c21.54-5.79,34.32-27.93,28.56-49.48C74.3,9.02,52.14-3.76,30.6,2.02,9.07,7.79-3.72,29.94,2.04,51.49c5.76,21.54,27.93,34.33,49.46,28.56h0Z"/>
      <path class="cls-2" d="M44.8,4.88c-2.83,0-5.71.37-8.54,1.13-8.54,2.27-15.61,7.73-20.07,15.36-4.4,7.63-5.55,16.52-3.25,25.04,2.25,8.52,7.7,15.63,15.35,20.02,7.6,4.42,16.51,5.58,25.05,3.31,17.55-4.71,28.03-22.82,23.32-40.4-3.98-14.72-17.34-24.46-31.86-24.46h0ZM44.8,72.11c-15.14,0-28.98-10.1-33.06-25.38-2.36-8.83-1.15-18.04,3.41-25.95,4.56-7.93,11.95-13.59,20.75-15.96C54.13-.07,72.94,10.79,77.87,29.01c4.87,18.24-6.03,37.04-24.21,41.93-2.99.79-5.92,1.17-8.86,1.17h0ZM41.13,1.23c6.86,0,13.68,1.81,19.81,5.35,9.22,5.3,15.77,13.89,18.55,24.15,5.66,21.19-6.97,43.04-28.14,48.71h0c-10.27,2.76-20.96,1.34-30.18-3.97-9.22-5.32-15.77-13.89-18.55-24.16C-.1,41.06,1.31,30.35,6.6,21.14,11.95,11.94,20.49,5.36,30.76,2.6c3.41-.92,6.92-1.37,10.38-1.37h0ZM40.98,82.05c-7.07,0-14.1-1.86-20.44-5.51-9.48-5.48-16.24-14.33-19.07-24.9C-1.36,41.06.05,30,5.55,20.53,11,11.04,19.86,4.26,30.44,1.43,41.03-1.41,52.08.03,61.57,5.51c9.48,5.48,16.24,14.32,19.07,24.91,5.87,21.83-7.13,44.36-28.98,50.22h0c-3.51.94-7.13,1.4-10.69,1.4Z"/>
      <path class="cls-4" d="M47.84,13.71c-7.07.21-14.15,1.86-20.7,4.54-1.31,6.8-1.57,13.73-1.68,20.65,2.2.84,4.35,1.71,6.55,2.57,4.66,1.86,9.38,3.74,14.15,5.36,5.03-4.88,9.85-10.43,13.26-16.58-3.3-6.15-6.65-11.51-11.58-16.53Z"/>
      <path class="cls-2" d="M26.09,38.49c2.04.78,4.04,1.58,6.08,2.38,4.56,1.83,9.22,3.67,13.83,5.25,5.61-5.42,9.75-10.64,12.73-15.89-2.83-5.23-6.18-10.78-11.16-15.89-6.55.23-13.26,1.69-19.91,4.34-1.26,6.64-1.47,13.4-1.57,19.8h0ZM46.16,47.44c-.05,0-.16,0-.21-.02-4.77-1.64-9.54-3.53-14.2-5.37-2.2-.89-4.35-1.74-6.5-2.57-.26-.09-.42-.33-.42-.59.1-6.65.31-13.77,1.68-20.76.05-.21.16-.38.37-.45,6.97-2.83,14.04-4.36,20.96-4.57.16-.03.31.05.47.18,5.24,5.39,8.75,11.19,11.68,16.67.1.19.1.4,0,.59-3.09,5.54-7.49,11-13.41,16.74-.11.1-.26.15-.42.15Z"/>
      <path class="cls-4" d="M74.83,34.47c.31.83.58,1.68.79,2.54.16.73.37,1.48.52,2.21.31,1.36.52,2.75.73,4.1.47,3.01.73,6.03.89,9.05l2.46-1.34c.79-3.2,1.26-6.56,1.26-10.01,0-5.94-1.31-11.61-3.61-16.71-.21,1.9-.58,3.6-1.05,5.16-.58,1.81-1.26,3.44-1.99,4.99Z"/>
      <path class="cls-2" d="M75.51,34.51c.21.79.47,1.57.68,2.35.21.75.37,1.49.52,2.24.31,1.25.58,2.61.79,4.14.37,2.41.63,5,.84,8.13l1.36-.75c.73-3.13,1.15-6.34,1.15-9.59,0-5-.89-9.86-2.73-14.46-.21,1.06-.42,2.09-.73,3.1-.47,1.6-1.1,3.18-1.89,4.85h0ZM77.76,52.98c-.05,0-.16-.02-.26-.07-.21-.11-.31-.29-.31-.5-.26-3.51-.52-6.38-.89-8.99-.26-1.51-.47-2.83-.73-4.07-.16-.73-.37-1.46-.52-2.17-.26-.85-.52-1.7-.79-2.52-.05-.16-.05-.33.05-.47.79-1.69,1.42-3.29,1.89-4.89.52-1.63.84-3.29,1.05-5.06.05-.28.26-.49.52-.54.26-.05.58.11.68.37,2.41,5.33,3.67,11.04,3.67,16.95,0,3.44-.47,6.85-1.31,10.16-.05.17-.16.31-.26.4l-2.46,1.34c-.11.05-.21.07-.31.07Z"/>
      <path class="cls-4" d="M42.55,81.42c7.07-.26,13.62-2.31,19.23-5.7l3.88-8.14c-5.08-.69-10.17-1.41-15.25-2.1l-.05-.02c-4.35,3.7-8.96,6.98-13.94,9.8,1.89,2.22,3.83,4.36,6.13,6.15Z"/>
      <path class="cls-2" d="M37.36,75.43c1.62,1.86,3.35,3.75,5.4,5.37,6.55-.28,12.94-2.19,18.55-5.51l3.46-7.22c-4.77-.64-9.48-1.31-14.25-1.97-4.14,3.55-8.59,6.68-13.15,9.32h0ZM42.55,82.03c-.1,0-.21-.03-.31-.12-2.46-1.88-4.51-4.1-6.29-6.26-.16-.14-.16-.31-.16-.5.05-.18.16-.34.31-.42,4.82-2.73,9.49-6,13.83-9.74.16-.1.31-.17.47-.14,5.19.71,10.27,1.41,15.35,2.12.16.02.37.14.42.31.11.17.11.38.05.56l-3.88,8.14c-.05.1-.11.19-.21.26-5.92,3.53-12.63,5.52-19.55,5.78h-.05Z"/>
      <path class="cls-4" d="M20.91,5.98c-3.09,1.79-5.92,3.96-8.44,6.47-3.72,3.74-6.39,7.82-8.54,12.64,1.73-2.71,4.4-6.1,6.55-8.21,1.94-1.86,3.93-3.32,5.97-4.03.37-1.35,1.15-2.76,2.2-4.15.68-.92,1.47-1.83,2.25-2.71Z"/>
      <path class="cls-2" d="M17.92,8.62c-1.78,1.29-3.46,2.71-5.03,4.26-1.57,1.6-2.99,3.27-4.24,5.06.47-.56,1-1.06,1.41-1.52,1.99-1.95,3.98-3.32,5.87-4.05.37-1.16,1.05-2.4,1.99-3.76h0ZM3.93,25.69c-.11,0-.21-.02-.31-.07-.31-.16-.42-.5-.26-.8,2.25-5.06,4.98-9.13,8.7-12.81,2.52-2.56,5.4-4.76,8.54-6.57.26-.14.58-.08.79.16.21.25.16.57,0,.8-.89.95-1.62,1.82-2.25,2.66-1.05,1.46-1.78,2.78-2.1,3.95-.05.19-.21.35-.37.42-1.83.64-3.77,1.97-5.71,3.89-2.1,2.03-4.77,5.37-6.55,8.1-.1.17-.31.28-.47.28Z"/>
      <path class="cls-4" d="M47.95,1.2c1.62.66,3.46,1.63,4.93,3.14,1.1-.19,2.78.05,4.61.54,1.31.33,2.72.8,4.03,1.3-4.09-2.43-8.64-4.15-13.57-4.99Z"/>
      <path class="cls-2" d="M53.76,3.67c.37,0,.79.03,1.31.09-1.05-.37-2.04-.71-3.04-1,.37.3.73.61,1.1.94.16-.02.37-.03.63-.03h0ZM61.52,6.8c-.05,0-.16-.01-.21-.04-1.36-.52-2.72-.97-3.98-1.28-1.89-.5-3.41-.68-4.35-.52-.16.04-.37-.03-.52-.17-1.15-1.2-2.78-2.21-4.72-3.01-.31-.12-.47-.44-.37-.75.05-.29.37-.48.68-.43,4.87.83,9.54,2.54,13.78,5.06.31.16.42.5.26.8-.1.22-.31.35-.58.35Z"/>
      <path class="cls-4" d="M2.2,43.18c-.26,1.39-.37,2.76-.37,4.13-.05,1.53.05,3.06.26,4.59,1.83,6.47,5.19,12.27,9.69,16.98,1.1-.1,2.15-.24,3.14-.4.89-.14,1.68-.31,2.31-.52-.94-2.69-1.94-5.4-2.78-8.27-.89-2.92-1.68-6-2.25-9.33-1.99-1.03-3.88-2.19-5.61-3.46-1.62-1.17-3.09-2.44-4.4-3.72Z"/>
      <path class="cls-2" d="M2.62,44.45c-.1.94-.21,1.88-.21,2.87,0,1.41.11,2.89.31,4.5,1.68,6.07,4.93,11.77,9.27,16.43,1-.1,1.94-.22,2.83-.36.63-.11,1.15-.21,1.62-.33-.84-2.28-1.78-4.92-2.62-7.67-.89-3.15-1.62-6.14-2.15-9.13-1.94-.99-3.77-2.12-5.45-3.35-1.31-.94-2.51-1.93-3.62-2.96h0ZM11.79,69.52c-.16,0-.37-.07-.47-.19-4.61-4.85-8.02-10.83-9.8-17.24-.26-1.77-.37-3.3-.31-4.78,0-1.45.16-2.87.42-4.24.05-.21.21-.4.42-.47.21-.05.47,0,.63.16,1.26,1.27,2.67,2.5,4.3,3.67,1.73,1.25,3.56,2.39,5.55,3.39.16.1.26.26.31.46.52,3.04,1.26,6.07,2.2,9.26.89,2.99,1.94,5.84,2.78,8.24.05.16.05.34,0,.47-.11.16-.21.28-.37.33-.63.19-1.41.38-2.41.54-1,.16-2.04.3-3.2.42h-.05Z"/>
      <path class="cls-2" d="M47.84,14.32c-.11,0-.21-.02-.26-.07-.31-.16-.42-.54-.26-.83l5.03-9.37c.16-.29.52-.4.84-.25.31.16.42.54.26.84l-5.03,9.37c-.16.2-.37.31-.58.31Z"/>
      <path class="cls-2" d="M74.83,35.08c-.05,0-.1,0-.16-.02l-15.41-4.22c-.31-.08-.52-.43-.42-.76.1-.31.42-.52.79-.41l15.35,4.2c.31.1.52.43.42.76-.05.28-.31.46-.58.46Z"/>
      <path class="cls-2" d="M50.41,66.09c-.26,0-.52-.19-.58-.47l-4.3-18.65c-.05-.33.16-.66.47-.73.37-.08.68.13.73.46l4.3,18.65c.05.33-.16.67-.47.73-.05.02-.11.02-.16.02Z"/>
      <path class="cls-2" d="M12.21,51c-.16,0-.31-.07-.47-.2-.21-.26-.16-.64.1-.87l13.21-11.49c.26-.23.68-.19.89.07.21.25.21.65-.05.87l-13.26,11.48c-.1.1-.26.15-.42.15Z"/>
      <path class="cls-2" d="M27.14,18.86c-.1,0-.21-.02-.31-.07l-10.69-5.41c-.26-.16-.42-.52-.26-.81.16-.31.52-.44.84-.28l10.69,5.41c.31.16.42.52.26.83-.1.21-.31.33-.52.33Z"/>
      <path class="cls-2" d="M2.2,43.81h0c-.37-.04-.63-.35-.58-.68l1.68-18.11c0-.33.31-.58.68-.56.31.03.58.35.52.68l-1.68,18.11c0,.31-.31.56-.63.56Z"/>
      <path class="cls-2" d="M36.42,75.88c-.1,0-.16-.02-.21-.04l-19.18-7.3c-.31-.12-.47-.49-.37-.8.16-.31.47-.49.79-.35l19.18,7.28c.31.12.47.49.37.8-.11.25-.32.4-.58.4Z"/>
      <path class="cls-2" d="M65.66,68.2c-.1,0-.26-.04-.37-.14-.26-.21-.31-.59-.11-.85l12.1-15.22c.21-.27.63-.31.89-.11.26.21.31.61.11.88l-12.16,15.21c-.11.16-.26.23-.47.23Z"/>
    </g>
  </g>
</svg>