<?xml version="1.0" encoding="UTF-8"?>
<svg id="Layer_2" data-name="Layer 2" xmlns="http://www.w3.org/2000/svg" viewBox="0 0 35.22 41.55" fill="currentColor">
  <defs>
    <style>
      .cls-1 {
        fill: #fff;
      }

      .cls-1, .cls-2, .cls-3, .cls-4 {
        fill-rule: evenodd;
      }

      .cls-2 {
        fill: #1a87c7;
      }

      .cls-3 {
        fill: #bdedf8;
      }

      .cls-4 {
        fill: #66ceef;
      }
    </style>
  </defs>
  <g id="_Layer_" data-name="&amp;lt;Layer&amp;gt;">
    <g>
      <path class="cls-4" d="M29.39,12.35l-5.55-3.21,4.87-1.3c.21-.03.24-.04.44.06l5.54,3.21c-.18-.09-.23-.09-.43-.06l-4.87,1.3Z"/>
      <path class="cls-2" d="M24.64,9.24l4.8,2.77,4.25-1.14-4.7-2.71q-.09-.04-.23-.03l-4.12,1.1h0ZM29.39,12.66c-.05,0-.1-.02-.16-.04l-5.55-3.21c-.11-.06-.17-.18-.15-.3.02-.12.1-.23.23-.26l4.87-1.3c.3-.05.41-.05.66.09l5.56,3.21c.15.09.2.27.11.42-.08.15-.26.2-.41.13q-.1-.05-.24-.03l-4.84,1.29s-.05.02-.08.02Z"/>
      <path class="cls-4" d="M25.51,4.73c.29-.32.64-.65,1.1-.43l5.55,3.2c-.45-.22-.8.11-1.09.43l-2.55,3.17-5.55-3.21,2.55-3.17Z"/>
      <path class="cls-2" d="M23.43,7.81l5.01,2.89,2.39-2.97c.09-.1.24-.27.43-.4l-4.81-2.77c-.19-.09-.37,0-.7.36l-2.32,2.89h0ZM28.51,11.41c-.05,0-.11,0-.16-.04l-5.54-3.2c-.08-.05-.13-.12-.15-.22-.02-.09,0-.18.06-.24l2.55-3.17s0,0,.02-.02c.23-.25.76-.83,1.45-.5l5.57,3.22c.15.08.19.26.12.41-.08.15-.26.2-.4.13-.21-.1-.4,0-.73.36l-2.54,3.16c-.06.07-.15.11-.24.11Z"/>
      <polygon class="cls-4" points="22.14 21.36 16.6 18.16 21.69 18.61 27.24 21.82 22.14 21.36"/>
      <path class="cls-2" d="M22.24,21.07l3.64.32-4.29-2.47-3.64-.33,4.28,2.48h0ZM27.24,22.13h-.03l-5.09-.45s-.09-.02-.13-.04l-5.54-3.21c-.13-.07-.18-.21-.14-.36.04-.14.18-.23.32-.22l5.1.46s.08.02.13.03l5.55,3.21c.13.07.18.22.14.35-.04.13-.16.22-.3.22Z"/>
      <polygon class="cls-4" points="29.39 22.01 23.84 18.81 26.39 19.03 26.53 19.08 32.09 22.27 31.94 22.24 29.39 22.01"/>
      <path class="cls-2" d="M29.49,21.71l1.19.11-4.37-2.48-1.12-.11,4.29,2.48h0ZM32.09,22.59s-.05,0-.08,0l-.14-.04-2.5-.22c-.05,0-.1-.02-.13-.04l-5.56-3.21c-.12-.07-.18-.23-.14-.36.04-.13.17-.23.32-.21l2.75.27s.05.02.08.03l5.55,3.21c.14.07.19.24.14.38-.05.12-.17.19-.29.19Z"/>
      <path class="cls-4" d="M27.24,21.82l-5.55-3.21,6.57-5.82c.26-.2.44-.34.8-.25l5.54,3.21c-.35-.09-.52.04-.8.25l-6.57,5.82Z"/>
      <path class="cls-2" d="M22.21,18.56l4.99,2.88,6.41-5.68c.06-.04.12-.09.18-.14l-4.84-2.79c-.17-.03-.27.02-.5.2l-6.23,5.53h0ZM27.24,22.13c-.05,0-.1-.01-.15-.04l-5.55-3.2c-.09-.05-.14-.14-.15-.23-.02-.11.03-.2.1-.26l6.57-5.83c.28-.21.58-.44,1.08-.31.04.01.06.02.09.04l5.55,3.2c.13.08.19.24.13.38-.05.15-.2.22-.36.18-.2-.04-.28,0-.54.2l-6.55,5.81c-.06.05-.13.08-.21.08Z"/>
      <path class="cls-4" d="M21.27,20.11l-5.55-3.2,5.09-6.34,1.77-8.61c.15-.56.77-1.65,1.5-1.27l5.55,3.21c-.74-.38-1.36.7-1.51,1.27l-1.76,8.59-5.09,6.34Z"/>
      <path class="cls-2" d="M16.19,16.82l5.01,2.88,4.89-6.07,1.75-8.53c.11-.42.42-1.06.89-1.39l-4.78-2.76c-.09-.04-.2-.05-.3,0-.36.16-.66.75-.75,1.1l-1.76,8.58s-.04.09-.06.13l-4.87,6.06h0ZM21.27,20.42c-.05,0-.11-.02-.15-.04l-5.55-3.21c-.08-.05-.13-.12-.15-.21-.02-.09.01-.17.06-.24l5.05-6.28,1.75-8.53c.13-.48.53-1.26,1.11-1.51.27-.12.57-.11.84.03l5.56,3.21c.14.08.19.27.12.41-.08.15-.26.21-.41.13-.12-.05-.21-.06-.32,0-.35.16-.66.74-.76,1.09l-1.76,8.57c0,.05-.03.09-.06.13l-5.09,6.35c-.06.07-.15.11-.24.11Z"/>
      <path class="cls-4" d="M22.58,27.44l-1.77-6.57,5.55,3.21,1.76,6.57c.08.19.09.23.28.34l-5.55-3.2c-.18-.11-.19-.15-.27-.35Z"/>
      <path class="cls-2" d="M22.86,27.34q.05.12.15.18l4.68,2.7-1.6-5.95-4.79-2.76,1.56,5.83h0ZM28.4,31.3c-.06,0-.11-.02-.15-.04l-5.55-3.21c-.25-.16-.3-.25-.4-.49,0-.02,0-.03,0-.04l-1.77-6.56c-.03-.12.01-.25.12-.33.09-.07.23-.09.34-.02l5.55,3.2c.08.04.13.11.15.19l1.76,6.57q.05.11.15.17c.14.09.18.27.09.42-.06.1-.17.15-.26.15Z"/>
      <polygon class="cls-4" points="21.27 30.42 15.72 27.21 20.53 29.98 26.08 33.19 21.27 30.42"/>
      <path class="cls-2" d="M26.08,33.49c-.06,0-.11,0-.16-.04l-4.8-2.77h0l-5.55-3.21c-.15-.09-.19-.28-.12-.42.09-.15.28-.19.43-.11l10.35,5.97c.15.09.2.28.11.42-.05.1-.16.15-.26.15Z"/>
      <path class="cls-4" d="M13.96,34.49v-3.4l5.56,3.21v3.39c.02.28.03.39.25.57l-5.54-3.21c-.23-.17-.24-.3-.26-.56Z"/>
      <path class="cls-2" d="M14.27,34.48c.03.23.03.24.15.35l4.79,2.76v-3.11l-4.94-2.85v2.85h0ZM19.77,38.57c-.05,0-.1,0-.16-.03l-5.54-3.21c-.35-.28-.38-.49-.41-.81v-3.43c0-.11.05-.21.15-.27.1-.05.22-.05.31,0l5.54,3.21c.1.05.16.15.16.27v3.39c.02.23.02.24.15.33.12.1.15.29.05.42-.06.09-.16.13-.25.13Z"/>
      <path class="cls-4" d="M9.16,36.54l4.81-8.32,5.56,3.21-4.81,8.32c-.23.45-.45,1.06,0,1.44l-5.55-3.21c-.45-.37-.22-.99,0-1.44Z"/>
      <path class="cls-2" d="M9.43,36.69c-.35.7-.21.94-.07,1.05l4.79,2.76c.03-.38.2-.73.29-.9l4.66-8.06-5.02-2.9-4.65,8.05h0ZM14.71,41.5c-.05,0-.1-.02-.16-.04l-5.55-3.21c-.51-.42-.53-1.03-.12-1.83,0-.01,0-.02,0-.02l4.81-8.33c.09-.15.28-.19.43-.11l5.54,3.21c.07.04.12.1.15.18.02.08,0,.16-.03.23l-4.81,8.33c-.35.7-.2.93-.07,1.04.13.11.15.28.06.41-.06.09-.16.14-.25.14Z"/>
      <polygon class="cls-4" points="19.52 31.44 13.96 28.23 13.96 21.43 19.52 24.64 19.52 31.44"/>
      <path class="cls-2" d="M14.27,28.05l4.94,2.85v-6.08l-4.94-2.85v6.08h0ZM19.52,31.74c-.06,0-.11-.02-.16-.04l-5.55-3.2c-.09-.06-.15-.15-.15-.27v-6.8c0-.11.05-.21.15-.27.1-.05.22-.05.31,0l5.54,3.21c.1.05.16.15.16.27v6.8c0,.11-.06.21-.16.26-.04.03-.09.04-.15.04Z"/>
      <path class="cls-3" d="M5.41,36.82l1.31-6.38,5.54,3.21-1.3,6.38c-.04.35-.06.56.18.82l-5.54-3.21c-.25-.26-.24-.48-.19-.82Z"/>
      <path class="cls-2" d="M5.79,37.4l4.84,2.8c0-.07.02-.14.03-.21l1.26-6.19-4.99-2.88-1.22,5.95c-.04.3-.04.39.08.52h0ZM11.15,41.15c-.05,0-.11-.01-.15-.04l-5.55-3.2s-.04-.03-.07-.05c-.35-.38-.31-.73-.27-1.08,0,0,0,0,0-.02l1.3-6.38c.02-.09.09-.18.17-.23.09-.03.19-.03.28.02l5.55,3.21c.11.06.18.2.15.33l-1.3,6.38c-.04.3-.04.39.11.54.1.11.11.29.02.41-.06.07-.15.12-.24.12Z"/>
      <polygon class="cls-4" points="8.63 37.25 3.07 34.04 2.97 33.94 8.52 37.14 8.63 37.25"/>
      <path class="cls-2" d="M8.63,37.55c-.05,0-.1,0-.15-.03l-5.55-3.21s-.05-.03-.07-.05l-.1-.11c-.11-.11-.11-.29-.03-.41.09-.12.27-.16.4-.08l5.55,3.21s.04.04.06.05l.11.1c.11.11.12.29.03.41-.06.08-.15.11-.24.11Z"/>
      <path class="cls-3" d="M8.52,37.14l-5.55-3.21c-.27-.55,0-1.11.32-1.56l2.56-3.18,5.54,3.21-2.55,3.17c-.33.46-.6,1.02-.32,1.57Z"/>
      <path class="cls-2" d="M3.21,33.72l4.89,2.82c.05-.52.36-.96.49-1.15l2.34-2.91-5.01-2.9-2.38,2.97c-.33.47-.43.84-.32,1.15h0ZM8.52,37.45c-.05,0-.1,0-.16-.04l-5.55-3.2c-.05-.03-.09-.08-.12-.13-.42-.82.15-1.62.34-1.89l2.57-3.19c.09-.11.27-.15.39-.07l5.55,3.2c.08.05.13.12.15.22.02.09,0,.17-.06.24l-2.55,3.18c-.36.5-.45.9-.28,1.23.06.12.03.27-.07.36-.05.06-.13.09-.21.09Z"/>
      <path class="cls-3" d="M.51,29.17c.23-.43.44-.7.91-.89l6.57-1.76,5.56,3.2-6.57,1.77c-.54.21-.79.59-1.01,1.11-.11.38-.18.73.12,1.04l-5.56-3.21c-.35-.36-.2-.84-.02-1.27Z"/>
      <path class="cls-2" d="M.73,30.2l4.83,2.79c.02-.17.06-.34.1-.48.22-.54.51-1.04,1.19-1.31l5.88-1.58-4.8-2.76-6.44,1.73c-.34.13-.5.33-.72.72-.19.46-.21.7-.05.9h0ZM6.09,33.95c-.05,0-.11,0-.16-.03L.39,30.7s-.05-.03-.07-.05c-.53-.55-.24-1.26-.1-1.6,0-.01,0-.03.02-.03.28-.51.53-.81,1.08-1.03l6.6-1.76c.08-.03.17-.02.24.02l5.54,3.21c.11.06.18.18.16.3-.02.12-.1.23-.22.26l-6.57,1.76c-.41.17-.62.48-.81.93-.09.37-.11.54.06.71.11.12.12.29.02.41-.06.08-.16.11-.24.11Z"/>
      <polygon class="cls-4" points="13.55 29.72 7.99 26.52 13.1 20.18 18.64 23.39 13.55 29.72"/>
      <path class="cls-2" d="M8.45,26.44l5.01,2.89,4.71-5.86-5.01-2.89-4.71,5.86h0ZM13.55,30.03c-.06,0-.11-.02-.16-.04l-5.55-3.2c-.08-.05-.13-.12-.15-.22-.02-.09,0-.17.06-.24l5.1-6.34c.09-.12.26-.15.39-.08l5.55,3.21c.08.04.13.12.15.21.02.09,0,.18-.06.25l-5.1,6.34c-.06.07-.15.11-.23.11Z"/>
      <path class="cls-3" d="M6.18,29l-5.55-3.21c-.7-.44-.09-1.55.35-1.94l4.88-4.32,5.55,3.2-4.88,4.32c-.49.44-1.04,1.5-.35,1.95Z"/>
      <path class="cls-2" d="M5.88,19.91l-4.7,4.17c-.25.23-.59.77-.56,1.16,0,.14.07.24.17.31l4.76,2.75c.04-.55.41-1.14.76-1.46l4.55-4.04-4.99-2.88h0ZM6.18,29.31c-.05,0-.1-.02-.16-.04L.47,26.06c-.29-.18-.44-.44-.47-.77-.05-.63.42-1.35.76-1.67l4.87-4.32c.11-.09.25-.1.37-.04l5.54,3.21c.09.04.15.13.16.24,0,.09-.03.19-.11.26l-4.87,4.32c-.3.26-.59.79-.57,1.15,0,.14.07.23.18.3.14.1.18.28.09.43-.06.09-.16.15-.26.15Z"/>
      <path class="cls-3" d="M8.7,22.47l-5.55-3.21c-.81-.54.17-2.3,1.02-2.22l2.55.23,5.54,3.21-2.55-.23c-.94-.09-1.77,1.71-1.02,2.22Z"/>
      <path class="cls-2" d="M4.12,17.35c-.31,0-.72.43-.89.91-.06.16-.17.57.1.75l4.77,2.76c0-.18.04-.37.11-.56.24-.68.85-1.33,1.53-1.27l1.17.11-4.29-2.47-2.49-.23h-.02ZM8.7,22.78c-.05,0-.1,0-.15-.03l-5.55-3.21c-.44-.3-.57-.84-.35-1.48.24-.69.89-1.37,1.55-1.31l2.56.23s.09.02.12.05l5.55,3.2c.12.08.18.23.14.36-.04.14-.17.22-.32.21l-2.55-.23c-.37-.03-.74.42-.9.86-.09.28-.14.65.08.79.14.09.18.28.09.42-.06.09-.16.14-.27.14Z"/>
      <polygon class="cls-4" points="14.41 20.68 8.87 17.47 13.96 17.93 19.52 21.13 14.41 20.68"/>
      <path class="cls-2" d="M14.51,20.37l3.64.33-4.28-2.48-3.63-.32,4.28,2.47h0ZM19.52,21.44h-.03l-5.09-.46s-.09-.02-.12-.04l-5.55-3.21c-.12-.07-.18-.22-.14-.36.04-.14.18-.23.32-.22l5.09.45s.09.02.13.04l5.54,3.2c.13.07.18.22.14.36-.04.13-.16.22-.29.22Z"/>
      <path class="cls-3" d="M12.27,20.48l-5.54-3.21-1.31-4.88c-.11-.76.57-2.05,1.43-1.84l5.55,3.21c-.86-.22-1.55,1.07-1.43,1.84l1.3,4.88Z"/>
      <path class="cls-2" d="M6.98,17.08l4.8,2.76-1.11-4.16c-.1-.64.2-1.45.69-1.9.06-.05.12-.1.19-.15l-4.83-2.79c-.17-.02-.33.05-.5.19-.34.3-.57.91-.51,1.32l1.27,4.72h0ZM12.27,20.79c-.05,0-.11-.01-.15-.04l-5.55-3.21c-.07-.04-.12-.1-.15-.19l-1.3-4.87c-.09-.65.2-1.46.69-1.91.33-.3.72-.41,1.11-.31.03,0,.05.02.08.03l5.54,3.21c.14.08.19.24.14.38-.06.14-.21.22-.36.18-.18-.04-.36.02-.53.18-.34.3-.57.91-.51,1.32l1.29,4.84c.04.12,0,.24-.11.32-.06.04-.12.06-.19.06Z"/>
      <polygon class="cls-4" points="19.52 21.13 13.96 17.93 13.96 11.13 19.52 14.33 19.52 21.13"/>
      <path class="cls-2" d="M14.27,17.75l4.94,2.85v-6.09l-4.94-2.85v6.08h0ZM19.52,21.44c-.06,0-.11-.02-.16-.05l-5.55-3.21c-.09-.05-.15-.16-.15-.26v-6.8c0-.11.05-.22.15-.27.1-.05.22-.05.31,0l5.54,3.21c.1.05.16.16.16.26v6.8c0,.11-.06.22-.16.27-.04.03-.09.05-.15.05Z"/>
      <polygon class="cls-4" points="19.52 14.33 13.96 11.13 9.16 8.35 14.71 11.56 19.52 14.33"/>
      <path class="cls-2" d="M19.52,14.64c-.06,0-.11-.02-.16-.04l-10.36-5.98c-.15-.09-.19-.27-.11-.42.09-.15.28-.2.42-.11l10.35,5.98c.15.08.2.27.12.42-.05.09-.16.15-.26.15Z"/>
      <path class="cls-3" d="M9.78,6.26c.25-.12.35-.15.62-.06l5.55,3.21c-.27-.1-.38-.06-.63.06-.5.34-.73.74-.86,1.31-.02.34-.03.55.24.78l-5.55-3.21c-.38-.32-.26-.79-.11-1.21.21-.41.36-.62.74-.88Z"/>
      <path class="cls-2" d="M9.93,6.53c-.31.22-.43.37-.61.75-.17.46-.16.68.03.84l4.8,2.76s0-.08,0-.11c.15-.7.43-1.14.92-1.5l-4.84-2.79c-.11-.04-.11-.04-.31.06h0ZM14.71,11.87c-.05,0-.1-.02-.16-.04l-5.55-3.21c-.63-.52-.36-1.23-.24-1.58.24-.48.41-.73.85-1.02,0,0,.03-.02.04-.03.29-.14.48-.21.85-.07l5.6,3.22c.14.08.2.25.13.4-.07.14-.24.21-.39.16-.15-.06-.16-.05-.38.05-.37.25-.57.58-.69,1.11-.03.27-.02.35.13.47.13.1.15.28.06.41-.06.09-.16.14-.25.14Z"/>
      <path class="cls-3" d="M19.28,1.08c.27-.42.69-.92,1.24-.72l5.55,3.21c-.56-.2-.97.3-1.24.72l-3.56,6.17-5.55-3.21,3.57-6.17Z"/>
      <path class="cls-2" d="M16.15,7.13l5.01,2.9,3.41-5.9c.1-.16.32-.5.64-.71l-4.83-2.79c-.11-.03-.39-.04-.83.61l-3.4,5.9h0ZM21.27,10.76c-.05,0-.11-.02-.15-.04l-5.55-3.21c-.07-.04-.12-.1-.14-.18-.03-.08-.01-.17.02-.24l3.57-6.17s0,0,0-.02c.5-.75,1.05-1.04,1.61-.83l5.6,3.23c.14.09.19.25.13.4-.07.15-.24.21-.39.16-.16-.05-.43-.07-.88.6l-3.56,6.15c-.04.07-.11.12-.18.15-.03,0-.05,0-.08,0Z"/>
      <path class="cls-3" d="M19.52,11.46l-5.56-3.2c0-1.37-.22-3.44.26-4.27.22-.38.75-.95,1.24-.71l5.55,3.2c-.77-.29-1.47.87-1.5,1.58v3.4Z"/>
      <path class="cls-2" d="M14.27,8.08l4.94,2.85v-2.87c.03-.57.37-1.36.93-1.73l-4.83-2.79c-.24-.11-.64.3-.83.61-.32.55-.28,1.95-.23,3.07,0,.3.02.59.02.86h0ZM19.52,11.77c-.06,0-.11-.02-.16-.04l-5.55-3.21c-.09-.05-.15-.16-.15-.26,0-.31-.02-.66-.03-1.02-.04-1.32-.09-2.69.32-3.4.36-.61,1.02-1.13,1.64-.84l5.57,3.22c.14.08.19.25.12.39-.07.15-.24.22-.38.16-.14-.04-.28-.03-.43.08-.37.24-.64.84-.66,1.24v3.38c0,.11-.06.22-.16.27-.04.03-.09.04-.15.04Z"/>
      <path class="cls-1" d="M19.52,8.06c0-.56.39-1.23.88-1.52.48-.28.88-.05.88.51v3.4l3.56-6.17c.34-.6.9-.92,1.24-.72.34.2.34.84,0,1.44l-4.81,8.33v6.79l5.09-6.34,1.76-8.59c.13-.61.61-1.21,1.08-1.34.47-.12.75.27.62.89l-1.3,6.38,2.55-3.17c.42-.52.95-.67,1.2-.32.24.34.1,1.04-.31,1.57l-2.55,3.17,4.87-1.3c.47-.13.75.27.62.88-.13.62-.61,1.22-1.08,1.34l-6.56,1.76-5.1,6.34,5.09.46,6.57-5.82c.47-.42.95-.37,1.08.09.12.47-.15,1.18-.62,1.6l-4.87,4.32,2.55.23c.42.03.56.57.32,1.19-.23.63-.77,1.1-1.19,1.06l-2.55-.23,1.3,4.88c.13.47-.15,1.18-.62,1.6-.47.42-.95.38-1.08-.09l-1.76-6.57-5.09-.45v6.8l4.81,2.77c.34.2.34.84,0,1.43-.35.59-.9.91-1.24.72l-3.56-2.06v3.4c0,.56-.4,1.24-.88,1.52-.49.28-.88.05-.88-.51v-3.39l-3.56,6.17c-.35.59-.9.91-1.24.71-.35-.2-.35-.84,0-1.44l4.81-8.32v-6.8l-5.1,6.34-1.75,8.6c-.12.61-.61,1.21-1.08,1.34-.46.12-.74-.27-.62-.89l1.3-6.38-2.55,3.17c-.42.53-.96.67-1.2.33-.24-.35-.1-1.05.32-1.57l2.55-3.17-4.87,1.3c-.47.13-.75-.27-.62-.88.12-.62.6-1.22,1.07-1.34l6.57-1.77,5.09-6.34-5.09-.46-6.57,5.83c-.47.41-.95.36-1.07-.11-.13-.47.15-1.18.62-1.6l4.88-4.32-2.56-.23c-.42-.04-.56-.57-.32-1.19.24-.63.77-1.1,1.19-1.06l2.55.23-1.3-4.88c-.12-.47.15-1.18.62-1.6.47-.41.96-.36,1.08.1l1.75,6.57,5.1.45v-6.8l-4.81-2.77c-.35-.2-.35-.84,0-1.44.34-.59.9-.91,1.24-.71l3.56,2.05v-3.4Z"/>
      <path class="cls-2" d="M19.52,24.33s.06,0,.09.02c.13.04.21.17.21.29v6.8c0,.05-.02.11-.04.15l-4.81,8.33c-.13.24-.21.5-.21.71,0,.15.04.26.1.3.07.04.18.02.31-.06.19-.11.37-.3.51-.54l3.56-6.17c.07-.12.21-.18.35-.15.13.04.22.17.22.3v3.39c0,.16.03.27.11.3.07.04.18.02.31-.06.39-.23.72-.8.72-1.25v-3.4c0-.11.06-.21.16-.27.09-.05.21-.05.3,0l3.56,2.06c.15.08.55-.12.83-.61.14-.24.22-.5.22-.72,0-.15-.05-.26-.11-.3l-4.8-2.77c-.1-.06-.16-.16-.16-.27v-6.8c0-.09.03-.17.11-.23.06-.06.15-.09.23-.09l5.09.46c.13,0,.24.1.27.23l1.76,6.57c.03.08.06.13.11.14.08.03.25,0,.46-.2.42-.37.62-.97.53-1.29l-1.3-4.88c-.03-.1,0-.2.06-.28.06-.07.17-.12.26-.11l2.56.23c.24.03.68-.34.88-.86.13-.34.11-.6.04-.71-.02-.04-.06-.06-.1-.07l-2.55-.23c-.13-.01-.24-.1-.27-.21-.03-.11,0-.24.09-.33l4.88-4.32c.42-.36.61-.97.52-1.29-.02-.09-.05-.13-.1-.15-.08-.03-.25,0-.46.2l-6.57,5.82c-.06.06-.15.09-.24.08l-5.09-.45c-.11,0-.21-.09-.26-.19-.04-.11-.02-.23.04-.31l5.1-6.35s.1-.09.17-.1l6.56-1.76c.31-.09.74-.56.85-1.1.05-.28,0-.44-.06-.51-.03-.03-.09-.03-.18-.02l-4.87,1.3c-.13.03-.26-.02-.34-.13-.07-.11-.06-.25.02-.36l2.55-3.17c.38-.48.44-1.02.3-1.2-.02-.03-.05-.05-.11-.05-.12-.01-.37.11-.6.39l-2.55,3.17c-.1.11-.24.15-.37.09-.13-.06-.2-.2-.17-.34l1.31-6.38c.05-.28,0-.44-.06-.51-.04-.03-.1-.04-.18-.02-.31.08-.74.55-.85,1.09l-1.77,8.6c0,.05-.03.09-.06.13l-5.09,6.35c-.08.1-.22.14-.34.1-.12-.04-.21-.17-.21-.3v-6.79c0-.06.02-.11.04-.16l4.81-8.33c.14-.24.22-.5.22-.71,0-.15-.05-.26-.11-.3-.07-.04-.18-.02-.31.06-.19.1-.37.3-.51.54l-3.56,6.17c-.07.12-.21.18-.34.15-.14-.03-.23-.16-.23-.3v-3.4c0-.15-.03-.27-.1-.3-.06-.03-.18-.02-.31.06-.39.23-.72.8-.72,1.25v3.4c0,.11-.06.22-.16.27-.09.05-.21.05-.3,0l-3.56-2.06c-.07-.04-.18-.01-.31.06-.19.11-.37.3-.51.55-.13.23-.21.49-.21.71,0,.15.04.26.1.3l4.81,2.78c.1.05.16.16.16.26v6.8c0,.09-.03.17-.1.23-.06.05-.15.09-.23.08l-5.09-.46c-.13-.01-.24-.1-.27-.23l-1.76-6.56c-.03-.09-.06-.14-.11-.15-.09-.03-.25,0-.46.2-.42.36-.61.97-.53,1.29l1.3,4.88c.03.09,0,.2-.06.28-.06.08-.16.12-.26.11l-2.55-.23c-.19,0-.66.3-.88.87-.13.33-.11.59-.04.7.03.04.06.06.1.07l2.55.23c.12,0,.23.1.26.21.04.12,0,.24-.09.33l-4.87,4.32c-.41.36-.61.98-.52,1.29.02.09.05.13.1.15.08.02.25-.01.47-.2l6.56-5.82c.07-.06.16-.09.23-.08l5.09.45c.11.02.22.09.26.19.04.1.03.23-.04.31l-5.1,6.34c-.04.05-.1.09-.16.11l-6.57,1.76c-.31.09-.74.56-.85,1.11-.05.28,0,.44.06.5.03.03.09.03.18.02l4.86-1.31c.13-.03.27.02.34.13.07.11.07.25-.02.36l-2.55,3.18c-.38.47-.44,1.01-.3,1.19.03.04.06.05.1.06.17,0,.38-.12.6-.4l2.55-3.17c.09-.1.24-.14.37-.09.13.06.2.21.17.35l-1.3,6.37c-.06.28,0,.45.05.5.04.03.1.04.18.03.31-.09.75-.57.85-1.11l1.76-8.59c0-.05.03-.1.06-.13l5.09-6.34c.06-.08.15-.12.24-.12h0ZM14.94,41.55c-.14,0-.27-.03-.38-.09-.26-.16-.41-.46-.41-.84,0-.33.11-.69.3-1.02l4.76-8.25v-5.84l-4.5,5.61-1.74,8.52c-.15.73-.72,1.42-1.3,1.57-.29.08-.56.02-.76-.17-.24-.23-.33-.62-.24-1.08l1.05-5.13-1.76,2.18c-.32.41-.73.64-1.09.62-.24,0-.45-.11-.59-.31-.33-.46-.18-1.29.33-1.94l1.96-2.44-3.96,1.06c-.29.09-.56.03-.76-.16-.24-.23-.33-.62-.23-1.07.15-.73.71-1.41,1.29-1.57l6.47-1.74,4.68-5.81-4.39-.39-6.47,5.74c-.35.3-.73.43-1.05.33-.26-.08-.45-.29-.53-.58-.16-.57.16-1.41.71-1.9l4.35-3.85-1.84-.16c-.24-.02-.44-.14-.57-.35-.19-.32-.2-.77,0-1.26.3-.76.96-1.3,1.5-1.26l2.12.19-1.19-4.45c-.16-.57.16-1.42.71-1.9.35-.3.73-.43,1.05-.33.26.08.44.28.52.57l1.7,6.36,4.55.41v-6.28l-4.65-2.69c-.26-.15-.41-.46-.41-.83,0-.33.11-.69.3-1.03.19-.33.45-.6.73-.76.33-.19.67-.21.93-.06l3.1,1.79v-2.87c0-.66.45-1.45,1.04-1.78.33-.19.67-.22.93-.06.26.15.41.45.41.83v2.24l2.99-5.17c.19-.34.45-.61.73-.77.33-.18.67-.21.93-.06.26.16.42.46.42.83,0,.33-.11.69-.3,1.02l-4.76,8.25v5.84l4.5-5.6,1.75-8.53c.15-.72.71-1.42,1.29-1.57.29-.08.56-.02.75.17.25.23.34.63.24,1.08l-1.05,5.13,1.76-2.18c.32-.4.75-.63,1.1-.62.24,0,.45.11.59.31.33.46.18,1.29-.33,1.94l-1.96,2.44,3.96-1.06c.3-.08.56-.03.76.17.24.23.33.62.23,1.07-.15.73-.71,1.42-1.29,1.57l-6.47,1.74-4.68,5.81,4.39.39,6.48-5.74c.34-.3.72-.42,1.05-.33.26.08.44.29.52.58.16.57-.16,1.42-.71,1.9l-4.34,3.85,1.83.16c.24.02.44.14.57.35.19.31.2.77,0,1.26-.3.76-.92,1.31-1.5,1.26l-2.12-.19,1.19,4.45c.16.57-.16,1.42-.71,1.9-.34.32-.72.44-1.05.33-.26-.08-.44-.28-.52-.57l-1.71-6.36-4.55-.41v6.28l4.65,2.69c.26.16.42.46.42.83,0,.33-.11.69-.3,1.03-.43.75-1.16,1.11-1.66.83l-3.1-1.79v2.87c0,.67-.45,1.45-1.03,1.78-.33.19-.66.22-.93.07-.26-.16-.41-.46-.41-.84v-2.24l-2.99,5.17c-.19.34-.45.61-.73.77-.18.11-.37.16-.55.16Z"/>
      <path class="cls-2" d="M26.37,14.09c-.05,0-.11-.02-.16-.04l-4.01-2.32c-.15-.09-.2-.28-.11-.43.09-.15.27-.19.42-.1l4.02,2.32c.15.08.2.27.11.42-.05.1-.16.16-.26.16Z"/>
    </g>
  </g>
</svg>