<?xml version="1.0" encoding="UTF-8"?>
<svg id="Layer_2" data-name="Layer 2" xmlns="http://www.w3.org/2000/svg" viewBox="0 0 38.97 41.23" fill="currentColor">
  <defs>
    <style>
      .cls-1 {
        fill: #fff;
      }

      .cls-1, .cls-2, .cls-3, .cls-4 {
        fill-rule: evenodd;
      }

      .cls-2 {
        fill: #1a87c7;
      }

      .cls-3 {
        fill: #bdedf8;
      }

      .cls-4 {
        fill: #66ceef;
      }
    </style>
  </defs>
  <g id="_Layer_" data-name="&amp;lt;Layer&amp;gt;">
    <g>
      <path class="cls-4" d="M25.06,15.61c-.09.24-.22.44-.46.5l6.24,3.6c.25-.06.39-.26.46-.49l1.19-4.01-6.24-3.61-1.19,4.01h0ZM22.67,23.66l-1.19,4,6.25,3.61,1.18-4.01c.03-.15.06-.29-.07-.39l-6.25-3.61c.14.11.11.24.08.4h0Z"/>
      <path class="cls-2" d="M25.06,15.61h.01-.01ZM25.16,16.07l5.69,3.29c.05-.04.1-.11.16-.25l1.11-3.76-5.69-3.28-1.08,3.63s0,.02,0,.03c-.03.07-.08.21-.18.35h0ZM30.84,20.01s-.1-.02-.15-.04l-6.24-3.61c-.1-.06-.16-.18-.15-.31.02-.12.11-.23.24-.25.07-.02.16-.06.24-.29l1.19-4c.03-.1.1-.17.18-.2.09-.03.18-.03.27.02l6.24,3.61c.12.07.18.22.14.36l-1.19,4.01c-.14.4-.37.63-.69.7-.02,0-.04,0-.07,0h0ZM21.84,27.51l5.7,3.29,1.07-3.63s.02-.07.02-.1l-5.69-3.26-1.1,3.69h0ZM27.73,31.57c-.05,0-.11,0-.16-.04l-6.24-3.6c-.12-.07-.18-.22-.15-.36l1.19-3.99c.01-.06.02-.1.02-.11-.12-.1-.15-.27-.05-.41.09-.13.27-.16.41-.08l6.24,3.61c.33.27.26.58.22.73l-1.19,4.02c-.02.09-.09.17-.18.2-.03,0-.08.02-.11.02Z"/>
      <path class="cls-3" d="M8.13,25.6c-.12.11-.23.19-.38.14l6.24,3.6c.16.06.27-.03.38-.13l5.22-5.51-6.24-3.61-5.22,5.51Z"/>
      <path class="cls-2" d="M8.4,25.76l5.73,3.32s.01-.08.03-.1l4.94-5.21-5.69-3.29-5.01,5.28h0ZM14.09,29.67c-.06,0-.13,0-.2-.03l-6.29-3.63c-.14-.08-.19-.25-.13-.39.07-.15.23-.22.38-.17,0,0,.03-.03.07-.06l5.22-5.5c.09-.1.25-.13.37-.06l6.25,3.61c.08.05.13.13.15.23.01.1-.02.18-.08.25l-5.22,5.51c-.11.1-.27.25-.52.25Z"/>
      <polygon class="cls-3" points="12.72 26.62 6.48 23.01 .3 37.32 6.55 40.92 12.72 26.62"/>
      <path class="cls-2" d="M.69,37.19l5.71,3.29,5.93-13.73-5.71-3.3L.69,37.19h0ZM6.55,41.23c-.06,0-.11-.02-.15-.04L.16,37.58c-.14-.08-.19-.24-.13-.38l6.17-14.31c.04-.08.1-.14.18-.17.09-.03.18-.02.25.03l6.25,3.61c.13.08.19.24.12.39l-6.17,14.3c-.04.09-.1.15-.18.17-.03,0-.07.02-.1.02Z"/>
      <path class="cls-3" d="M30.84,19.7l-6.24-3.6c-1.26.12-5.18.51-5.24.52l-.09-.02,6.24,3.61h.04s.05,0,.05,0l5.23-.52Z"/>
      <path class="cls-2" d="M20.28,16.84l5.33,3.07,4.25-.42-5.33-3.08c-.94.1-3.04.31-4.25.43h0ZM25.59,20.54h-.04s-.16-.04-.19-.05l-6.24-3.61c-.13-.07-.18-.23-.14-.36.04-.14.19-.24.33-.21h.1s3.91-.38,5.16-.51c.07,0,.13,0,.19.04l6.24,3.61c.11.06.18.2.15.33-.02.13-.14.22-.27.24l-5.24.52h-.04Z"/>
      <path class="cls-4" d="M19.74,16.38l-6.24-3.61c.09.07.09.12.11.23v6.56c-.02.22-.1.37-.24.53l6.24,3.61c.15-.16.23-.31.24-.53v-6.56c-.01-.11-.02-.16-.11-.23Z"/>
      <path class="cls-2" d="M13.8,20l5.71,3.29s.03-.09.03-.15v-6.53l-5.63-3.25v6.2c0,.16-.04.3-.1.43h0ZM19.6,24c-.05,0-.11,0-.16-.03l-6.24-3.61c-.09-.05-.14-.13-.15-.23-.02-.1,0-.18.08-.25.11-.12.15-.21.17-.34v-6.54c-.13-.1-.15-.28-.06-.41.1-.13.28-.16.42-.09l6.24,3.61s.03.02.04.03c.18.15.2.29.22.44v6.59c-.03.3-.12.52-.33.74-.06.07-.15.1-.23.1Z"/>
      <polygon class="cls-3" points="22.61 3.91 16.37 .31 10.13 14.6 16.37 18.2 22.61 3.91"/>
      <path class="cls-2" d="M10.52,14.47l5.7,3.29,5.99-13.73-5.71-3.29-5.98,13.73h0ZM16.37,18.51c-.05,0-.11-.02-.16-.04l-6.24-3.61c-.14-.08-.19-.24-.13-.38L16.08.18c.04-.08.1-.14.19-.17.08-.03.18-.02.24.03l6.25,3.61c.13.08.19.24.13.38l-6.24,14.3c-.03.08-.09.14-.18.17-.03,0-.06.02-.1.02Z"/>
      <path class="cls-1" d="M19.6,23.7l-5.22,5.51c-.18.19-.39.21-.46.04l-1.19-2.63-6.17,14.3,10.94-3.75-1.18-2.63c-.08-.16,0-.45.19-.64l5.98-6.31c.09-.09.18-.14.26-.15l5.98-.6c.18-.02.27.17.19.42l-1.18,4.01,10.94-8.88-6.18-7.17-1.19,4.01c-.07.25-.28.47-.46.49l-5.23.52c-.14.02-.23-.09-.23-.25v-6.56c0-.23.16-.5.36-.61l3.1-1.8-6.23-7.09-6.23,14.29,3.11-1.8c.2-.11.36-.02.36.21v6.56c0,.18-.11.39-.24.53Z"/>
      <path class="cls-2" d="M12.73,27.38l-5.62,13.03,9.96-3.41-1.05-2.32c-.14-.32.02-.74.25-.98l5.98-6.31c.14-.15.3-.24.46-.25l5.98-.59c.16-.02.32.04.43.16.13.16.16.4.09.65l-.9,3.04,9.92-8.05-5.6-6.51-1.03,3.47c-.09.32-.37.67-.72.71l-5.24.52c-.14,0-.28-.03-.38-.12-.11-.1-.17-.26-.17-.44v-6.57c0-.33.22-.71.5-.88l2.78-1.61-5.67-6.44-5.67,12.99,2.31-1.33c.19-.11.39-.12.56-.03.16.1.26.28.26.5v6.56c0,.25-.14.55-.34.75l-5.21,5.5c-.18.19-.41.28-.61.24-.16-.03-.28-.13-.36-.29l-.9-2h0ZM6.55,41.23c-.09,0-.17-.04-.22-.1-.09-.09-.11-.22-.06-.33l6.17-14.3c.05-.11.14-.16.29-.19.12,0,.23.07.28.18l1.14,2.52s.01,0,.01-.02l5.22-5.51s0,0,.02,0c.08-.08.15-.22.15-.3v-6.44l-3.01,1.74c-.12.07-.26.05-.37-.03-.09-.09-.13-.24-.08-.36l6.24-14.29c.03-.09.13-.16.23-.18.11,0,.21.03.28.1l6.23,7.09c.06.07.09.16.07.25-.01.09-.07.17-.15.22l-3.1,1.79c-.1.06-.2.23-.2.35v6.5l5.12-.51s.15-.11.19-.27l1.19-4.02c.03-.1.12-.18.23-.21.1-.03.23.02.3.1l6.17,7.18c.06.06.09.15.08.23-.01.09-.05.17-.11.22l-10.94,8.87c-.11.09-.25.1-.36.02-.11-.07-.17-.21-.12-.34l1.18-4.01s0,0,0,0l-5.85.58s-.03.02-.08.06l-5.97,6.31c-.11.11-.15.26-.14.3l1.19,2.63c.03.08.03.16,0,.25-.03.08-.1.14-.18.17l-10.94,3.75s-.07.02-.1.02Z"/>
    </g>
  </g>
</svg>