<?xml version="1.0" encoding="UTF-8"?>
<svg id="Layer_2" data-name="Layer 2" xmlns="http://www.w3.org/2000/svg" viewBox="0 0 42.05 38.93" fill="currentColor">
  <defs>
    <style>
      .cls-1 {
        fill: #fff;
      }

      .cls-1, .cls-2, .cls-3, .cls-4 {
        fill-rule: evenodd;
      }

      .cls-2 {
        fill: #1a87c7;
      }

      .cls-3 {
        fill: #bdedf8;
      }

      .cls-4 {
        fill: #66ceef;
      }
    </style>
  </defs>
  <g id="_Layer_" data-name="&amp;lt;Layer&amp;gt;">
    <g>
      <path class="cls-4" d="M32.22,3.91L25.98.31v3.7l6.24,3.61v-3.7h0ZM32.11,14.8l-6.25-3.6c.09.07.11.12.11.24v3.69l6.24,3.61v-3.69c0-.12-.02-.16-.11-.24h0Z"/>
      <path class="cls-2" d="M26.28,3.84l5.63,3.25v-2.99l-5.63-3.25v2.99h0ZM32.22,7.92c-.05,0-.11,0-.16-.03l-6.24-3.61c-.09-.05-.15-.16-.15-.27V.31c0-.1.06-.21.15-.26.1-.06.22-.06.3,0l6.25,3.6c.09.06.15.16.15.27v3.7c0,.11-.05.21-.15.27-.05.03-.11.03-.16.03h0ZM26.28,14.94l5.63,3.25v-3.15l-5.63-3.25v3.15h0ZM32.22,19.03c-.05,0-.11,0-.16-.04l-6.24-3.61c-.09-.05-.15-.16-.15-.27v-3.69c-.12-.1-.14-.28-.05-.42.09-.13.27-.16.41-.09l6.25,3.61s.03.02.03.02c.19.16.21.31.22.44v3.72c0,.11-.05.21-.15.27-.05.03-.11.04-.16.04Z"/>
      <path class="cls-3" d="M17.56,10.12c-1.14,0-2.05.36-3.02.91l-4.34,2.5c-.1.05-.15.07-.26.03l6.12,3.53c.16.09.2.14.38.05l4.45-2.56c.91-.53,1.84-.86,2.91-.85.26,0,.34,0,.52-.2.96-1.16,1.95-2.06,3.23-2.8l4.29-2.48c.23-.16.35-.36.36-.63l-6.24-3.61c-.04.36-.2.55-.5.71l-4.28,2.47c-.37.22-.65.4-1,.66-.75.57-1.35,1.16-1.95,1.87-.27.32-.29.42-.69.4Z"/>
      <path class="cls-2" d="M10.67,13.62l5.65,3.27,4.42-2.58c1.06-.61,2.02-.9,3.03-.9h.05c.06,0,.17,0,.18,0,0,0,.03,0,.11-.09,1.04-1.25,2.06-2.14,3.31-2.86l4.29-2.48c.09-.06.14-.12.17-.21l-5.71-3.29c-.12.25-.34.4-.52.51l-4.28,2.47c-.38.22-.65.4-.97.63-.69.54-1.28,1.1-1.9,1.83l-.09.1c-.22.27-.36.43-.84.4-.93.03-1.77.25-2.86.88l-4.02,2.32h0ZM16.27,17.5c-.13,0-.23-.05-.33-.11l-6.15-3.55c-.14-.08-.19-.25-.13-.4.07-.14.24-.22.39-.16l4.33-2.5c.87-.5,1.84-.96,3.15-.96h.05c.19,0,.19.02.34-.17l.09-.11c.66-.77,1.27-1.36,2-1.92.35-.26.64-.45,1.04-.68l4.28-2.47c.24-.14.31-.26.33-.48.02-.1.08-.19.16-.24.1-.05.21-.05.3,0l6.25,3.6c.1.06.15.17.15.3-.03.37-.19.65-.5.86l-4.31,2.49c-1.17.69-2.15,1.52-3.15,2.73-.26.3-.44.33-.76.31-.88-.02-1.78.25-2.76.82l-4.44,2.56c-.13.06-.23.09-.32.09Z"/>
      <path class="cls-4" d="M15.06,33.98c.02.41.08.7.43.95l6.24,3.6c-.35-.24-.41-.53-.42-.94v-14.61c0-.5.02-.97-.45-1.29l-6.24-3.6c.42.29.45.71.45,1.18v14.71Z"/>
      <path class="cls-2" d="M15.36,33.98c.02.39.09.55.3.69l5.34,3.08c0-.05,0-.1,0-.15v-14.63c0-.55-.02-.83-.32-1.04l-5.32-3.07c0,.14,0,.28,0,.4v14.71h0ZM21.72,38.84s-.1-.02-.15-.04l-6.25-3.61c-.51-.35-.57-.8-.58-1.19v-14.73c0-.5-.04-.74-.31-.93-.14-.1-.17-.28-.09-.42.09-.14.27-.18.42-.1l6.24,3.61c.61.43.61,1,.61,1.51v14.65c.02.38.08.55.3.69.13.1.16.28.08.42-.05.1-.16.15-.26.15Z"/>
      <polygon class="cls-3" points="16.09 13.23 9.84 9.62 .31 22.53 6.56 26.14 16.09 13.23"/>
      <path class="cls-2" d="M.76,22.44l5.71,3.29,9.15-12.4-5.7-3.29L.76,22.44h0ZM6.56,26.44c-.06,0-.11,0-.15-.04L.15,22.8c-.07-.04-.12-.12-.15-.21-.02-.09,0-.17.06-.24l9.53-12.91c.1-.12.26-.16.4-.08l6.24,3.6c.08.04.13.12.15.21.02.09,0,.17-.05.24l-9.53,12.91c-.06.08-.16.12-.24.12Z"/>
      <polygon class="cls-3" points="41.74 5.82 35.5 2.22 25.98 .31 32.22 3.91 41.74 5.82"/>
      <path class="cls-2" d="M32.33,3.63l7.64,1.52-4.58-2.64-7.64-1.53,4.58,2.65h0ZM41.74,6.13s-.04,0-.06,0l-9.53-1.9s-.06-.02-.1-.03l-6.24-3.61c-.13-.08-.18-.23-.13-.37.05-.14.19-.23.35-.19l9.53,1.9s.06.02.09.03l6.25,3.6c.13.08.18.23.13.38-.04.12-.15.2-.28.2Z"/>
      <path class="cls-1" d="M23.6,13.72c-.33,0-.67.06-1.02.15-.54.14-1.09.36-1.65.69l-4.48,2.59c-.2.11-.36.03-.36-.21v-3.7l-9.53,12.91,9.53,1.9v-3.69c0-.23.15-.51.36-.63l3.13-1.81c.5-.29.86-.48,1.28-.23.45.27.45.76.45,1.38v14.52c0,.93.66,1.3,1.46.84l2.78-1.61c.8-.46,1.45-1.59,1.45-2.52v-14.7c0-1.52.72-2.39,1.97-3.1l2.9-1.68c.2-.11.36-.02.36.22v3.69l9.53-12.91-9.53-1.9v3.7c0,.23-.17.51-.36.63l-4.31,2.49c-.64.37-1.18.75-1.82,1.32-.49.44-.96.94-1.39,1.47-.05.07-.12.12-.18.16-.15.09-.41.04-.54.04Z"/>
      <path class="cls-2" d="M23.6,13.72h0,0ZM20.46,21.26c.18,0,.36.04.55.16.61.36.61,1.02.61,1.64v14.52c0,.33.1.57.27.68.18.1.43.06.72-.1l2.78-1.61c.7-.4,1.3-1.43,1.3-2.25v-14.7c0-1.51.63-2.51,2.11-3.37l2.89-1.67c.2-.11.4-.12.57-.02.17.1.25.28.25.5v2.75l8.68-11.76-8.68-1.74v3.33c0,.34-.22.73-.51.89l-4.32,2.5c-.68.39-1.19.76-1.76,1.28-.47.43-.93.91-1.36,1.43-.09.1-.18.17-.27.23-.2.1-.42.1-.59.08h-.1c-.3,0-.62.05-.95.14-.53.13-1.05.35-1.58.65l-4.49,2.59c-.19.11-.4.12-.56.03s-.26-.28-.26-.5v-2.76l-8.68,11.76,8.68,1.74v-3.32c0-.34.23-.72.52-.9l3.12-1.8c.33-.2.68-.39,1.04-.39h0ZM22.11,38.93c-.19,0-.37-.04-.53-.14-.38-.22-.58-.64-.58-1.21v-14.52c0-.66-.03-.95-.3-1.11-.24-.15-.44-.07-.98.23l-3.12,1.81c-.1.06-.21.23-.21.36v3.69c0,.1-.04.18-.12.24-.07.06-.17.09-.25.07l-9.53-1.91c-.1-.02-.19-.09-.23-.19-.03-.1-.02-.21.04-.29l9.53-12.91c.08-.1.22-.15.35-.11.12.04.21.16.21.3v3.59l4.39-2.53c.57-.34,1.14-.57,1.72-.72.37-.1.75-.15,1.1-.16.03,0,.09,0,.15,0,.07,0,.21,0,.25,0,.02,0,.05-.03.1-.09.44-.55.92-1.05,1.43-1.5.6-.54,1.15-.93,1.87-1.35l4.31-2.49c.11-.06.22-.24.22-.36v-3.7c0-.1.03-.18.11-.23.07-.06.15-.09.25-.07l9.53,1.9c.11.03.19.1.23.19.04.1.03.21-.03.3l-9.53,12.91c-.09.11-.23.16-.35.11-.13-.04-.21-.16-.21-.3v-3.57l-2.8,1.61c-1.29.75-1.8,1.56-1.8,2.84v14.7c0,1.04-.72,2.27-1.62,2.79l-2.77,1.61c-.28.16-.56.23-.81.23Z"/>
      <path class="cls-2" d="M24.24,13.93s-.1-.02-.16-.04l-6.21-3.59c-.15-.09-.2-.28-.12-.42.09-.16.28-.2.43-.11l6.21,3.59c.15.08.2.27.11.42-.06.1-.17.16-.27.16Z"/>
    </g>
  </g>
</svg>