<?xml version="1.0" encoding="UTF-8"?>
<svg id="Layer_2" data-name="Layer 2" xmlns="http://www.w3.org/2000/svg" viewBox="0 0 43.42 39.78" fill="currentColor">
  <defs>
    <style>
      .cls-1 {
        fill: #fff;
      }

      .cls-1, .cls-2, .cls-3, .cls-4 {
        fill-rule: evenodd;
      }

      .cls-2 {
        fill: #1a87c7;
      }

      .cls-3 {
        fill: #bdedf8;
      }

      .cls-4 {
        fill: #66ceef;
      }
    </style>
  </defs>
  <g id="_Layer_" data-name="&amp;lt;Layer&amp;gt;">
    <g>
      <path class="cls-4" d="M20.09,10.22l-4.95-2.86c-3.12-1.32-6.34.72-8.6,2.76-.25.24-.58.56-.82.81-2.11,2.25-3.82,5.21-4.72,8.17-.96,3.16-1.37,7.7,1.61,9.95l4.94,2.85c1.62,1.13,2.82,1.73,6.58-.43,3.75-2.17,8.87-11.02,8.87-15.36s-1.14-5.09-2.95-5.92l.04.02Z"/>
      <path class="cls-2" d="M13.05,7.24c-1.9,0-4.02,1.04-6.31,3.12-.25.23-.57.55-.8.8-2.08,2.21-3.77,5.15-4.65,8.05-.49,1.62-1.83,7.1,1.49,9.61l4.91,2.83c1.61,1.12,2.68,1.64,6.27-.43,3.67-2.11,8.71-10.86,8.71-15.09s-.99-4.83-2.76-5.64c-.03-.01-.05-.03-.08-.04l-4.86-2.81c-.62-.26-1.26-.39-1.93-.39h0ZM10.12,33.24c-1.07,0-1.85-.46-2.74-1.08l-4.92-2.84C-1.23,26.55.18,20.74.7,19.02c.9-2.99,2.65-6.02,4.79-8.3.24-.26.57-.59.83-.83,3.25-2.94,6.34-3.92,8.93-2.82l4.99,2.88h0c1.9.89,3.05,1.78,3.05,6.17s-5.14,13.38-9.02,15.63c-1.87,1.08-3.14,1.49-4.15,1.49Z"/>
      <path class="cls-4" d="M14.12,31.48c4.89-2.83,8.87-9.7,8.87-15.36s-3.97-7.95-8.87-5.13c-4.9,2.83-8.87,9.71-8.87,15.37s3.97,7.94,8.87,5.12Z"/>
      <path class="cls-2" d="M18.08,10.09c-1.17,0-2.46.39-3.81,1.17-4.81,2.78-8.72,9.55-8.72,15.1,0,2.62.87,4.56,2.44,5.47,1.58.91,3.7.69,5.97-.62,4.8-2.77,8.71-9.54,8.71-15.09,0-2.62-.87-4.57-2.44-5.48-.64-.37-1.37-.55-2.16-.55h0ZM10.16,33c-.9,0-1.73-.21-2.47-.64-1.77-1.02-2.75-3.16-2.75-6,0-5.75,4.04-12.76,9.02-15.63,2.47-1.43,4.8-1.65,6.58-.62,1.77,1.02,2.75,3.16,2.75,6.01,0,5.74-4.04,12.75-9.02,15.63-1.44.83-2.84,1.26-4.11,1.26Z"/>
      <path class="cls-1" d="M13.78,27.48c3.14-1.81,5.68-6.22,5.68-9.84s-2.55-5.09-5.68-3.28c-3.14,1.81-5.68,6.22-5.68,9.85s2.55,5.09,5.68,3.28Z"/>
      <path class="cls-2" d="M16.31,13.88c-.73,0-1.54.25-2.38.74-3.05,1.76-5.54,6.06-5.54,9.58,0,1.64.54,2.85,1.51,3.41.97.56,2.29.42,3.71-.4h0c3.05-1.76,5.53-6.06,5.53-9.58,0-1.64-.54-2.85-1.51-3.41-.39-.23-.84-.34-1.32-.34h0ZM11.24,28.57c-.6,0-1.15-.14-1.63-.42-1.17-.68-1.82-2.08-1.82-3.94,0-3.72,2.63-8.25,5.84-10.11,1.62-.94,3.15-1.08,4.33-.4,1.17.68,1.82,2.08,1.82,3.95,0,3.72-2.61,8.25-5.83,10.11-.95.54-1.87.82-2.69.82Z"/>
      <path class="cls-3" d="M18.44,13.36c-1.52-.64-2.91-.19-4.29.56-1.98,1.2-3.34,2.79-4.52,4.77-.94,1.68-1.53,3.21-1.8,5.13-.19,1.88-.04,3.94,1.59,5.17l.88.51.92.53c1.17.81,2.03,1.25,4.74-.31,2.7-1.56,6.39-7.94,6.39-11.06s-.82-3.66-2.12-4.26l-1.78-1.03Z"/>
      <path class="cls-2" d="M16.96,13.36c-.97,0-1.87.4-2.66.83-1.76,1.07-3.12,2.5-4.4,4.65-.98,1.76-1.51,3.26-1.76,5.02-.24,2.38.21,3.94,1.47,4.88l1.77,1.02c1.03.72,1.76,1.23,4.42-.31,2.63-1.51,6.23-7.77,6.23-10.8s-.81-3.46-1.94-3.98l-1.79-1.04c-.46-.19-.91-.27-1.35-.27h0ZM13.07,31.08c-.79,0-1.37-.33-2.03-.79l-1.78-1.03c-1.92-1.45-1.91-3.81-1.74-5.47.26-1.85.81-3.42,1.83-5.25,1.34-2.25,2.76-3.75,4.62-4.88,1.3-.71,2.84-1.32,4.58-.58.01,0,.02.01.04.02l1.78,1.03c1.4.65,2.27,1.28,2.27,4.53s-3.73,9.71-6.54,11.33c-1.37.79-2.3,1.09-3.04,1.09Z"/>
      <path class="cls-3" d="M15.96,29.72c3.53-2.04,6.39-6.99,6.39-11.06s-2.86-5.72-6.39-3.69c-3.53,2.04-6.39,6.99-6.39,11.07s2.86,5.72,6.39,3.69Z"/>
      <path class="cls-2" d="M18.81,14.4c-.83,0-1.74.28-2.69.83-3.44,1.98-6.24,6.83-6.24,10.8,0,1.86.61,3.23,1.72,3.87,1.1.64,2.6.48,4.21-.45h0c3.44-1.99,6.23-6.83,6.23-10.8,0-1.86-.61-3.23-1.71-3.87-.45-.26-.96-.39-1.51-.39h0ZM13.1,30.9c-.66,0-1.27-.15-1.82-.47-1.3-.75-2.02-2.32-2.02-4.4,0-4.17,2.94-9.25,6.54-11.33,1.81-1.04,3.52-1.2,4.82-.45,1.3.75,2.02,2.32,2.02,4.4,0,4.17-2.93,9.25-6.54,11.33h0c-1.06.61-2.09.92-3.02.92Z"/>
      <path class="cls-1" d="M40.89,31.4c-.47.35-.52.75-.53,1.31.02.49.05.94-.04,1.43-.06.29-.13.48-.36.67l-6.73,4.05c-1.97,1.13-4.77.58-7.81-.73-5.4-2.32-10.07-6.35-13.4-8.27-1.45-1.09-1.66-2.83-1.55-4.53.28-2.73,1.43-5.14,3.15-7.26,3.04-3.55,4.76-2.17,6.7-6.72.72-1.68,1.53-5.03,2.13-6.63.04-.12.1-.12.19-.02.24-.63.68-2.01.9-2.53.37-.86.93-1.63,1.61-1.81.61-.15,2.25-.05,3.04,1.08.49.76-.03,4.45-.11,5.49-.03.29-.16.97-.32,1.69-.38,1.79-.54,2.34-.18,4.17.24,1.2.66,2.5,1.21,2.89l.02-1.77c0-.16.11-.27.26-.32,4.1-1.25,5.52-1.45,9.66,1.23,1.37.9,3.78,2.44,4.26,4.14.23.9.13,1.71-.09,2.6-.26,1.17-.09,1.4.11,2.48.13.75.16,1.72-.14,2.44-.38.81-.63.78-.56,1.83.07.68.21,1.29-.01,1.96-.1.24-.19.34-.39.5l-1.02.62Z"/>
      <path class="cls-2" d="M22.67,5c-.24.69-.52,1.63-.81,2.63-.42,1.41-.84,2.88-1.25,3.84-1.17,2.74-2.3,3.42-3.6,4.2-.91.54-1.92,1.15-3.16,2.6-1.78,2.21-2.82,4.6-3.08,7.09-.13,2.1.3,3.41,1.42,4.26,1.13.65,2.47,1.59,3.89,2.58,2.78,1.94,5.94,4.15,9.44,5.65,3.41,1.47,5.87,1.71,7.55.74l6.72-4.05c.11-.1.17-.22.22-.47.07-.38.05-.76.04-1.16v-.2c0-.6.06-1.13.63-1.57,0,0,.02-.01.03-.02l1.02-.61c.14-.11.19-.17.28-.37.15-.45.09-.9.02-1.42-.01-.13-.03-.25-.04-.38-.05-.83.08-1.08.33-1.49.08-.13.16-.28.27-.49.32-.77.19-1.83.11-2.25-.03-.19-.07-.36-.11-.51-.15-.69-.23-1.07,0-2.09.18-.74.32-1.54.1-2.46-.43-1.53-2.67-3-4.01-3.88l-.13-.08c-4.07-2.63-5.4-2.4-9.4-1.19l-.06,1.8c0,.11-.06.22-.17.27-.1.05-.23.04-.32-.03-.73-.53-1.14-2.16-1.33-3.08-.35-1.77-.21-2.41.11-3.95l.08-.34c.12-.61.29-1.37.3-1.65.02-.17.04-.41.08-.7.13-1.21.44-4.05.09-4.6-.69-.99-2.2-1.08-2.7-.95-.5.12-1.01.71-1.4,1.63-.13.29-.33.88-.52,1.45-.15.41-.28.8-.38,1.06-.04.1-.12.17-.23.19,0,0-.02,0-.03,0h0ZM30.69,39.78c-1.49,0-3.29-.46-5.4-1.37-3.56-1.53-6.74-3.75-9.55-5.71-1.41-.98-2.74-1.91-3.89-2.57-1.72-1.29-1.79-3.37-1.7-4.82.28-2.63,1.36-5.13,3.22-7.43,1.3-1.53,2.37-2.17,3.31-2.73,1.26-.76,2.26-1.36,3.35-3.91.39-.93.82-2.38,1.23-3.77.32-1.1.63-2.14.9-2.85.07-.19.19-.25.29-.28.08-.23.18-.51.28-.79.19-.58.4-1.18.54-1.49.34-.78.92-1.76,1.81-1.98.76-.19,2.52-.03,3.37,1.21.44.68.24,2.85.01,5-.03.28-.05.52-.07.69-.03.3-.15.9-.32,1.72l-.07.34c-.32,1.5-.44,2.06-.11,3.7.15.81.37,1.51.6,2v-.83c.02-.28.21-.52.49-.61,4.12-1.25,5.62-1.51,9.93,1.26l.13.09c1.41.92,3.77,2.47,4.26,4.23.27,1.06.1,1.99-.09,2.76-.19.88-.14,1.16,0,1.82.04.16.07.33.11.53.09.48.24,1.68-.17,2.62-.11.25-.21.42-.3.56-.19.33-.28.46-.23,1.12,0,.11.03.23.04.35.07.55.14,1.12-.06,1.73-.15.32-.25.46-.5.65l-1.03.63c-.34.26-.38.54-.39,1.06v.18c.02.43.03.85-.05,1.3-.06.31-.15.59-.46.85l-6.77,4.08c-.76.44-1.65.66-2.69.66Z"/>
      <path class="cls-4" d="M28.79,13.92c-.05.8.31,1.29,2.12,1.32l1.04-.1c1.56-.15,2.07.28,2.83.74l1.14.69c.28.17.42.45.39.77-.03.32-.23.57-.53.68l-.82.3c-1.38.51-4.19-.89-4.94-1.54l-1.26-1.1.02-1.77Z"/>
      <path class="cls-2" d="M29.08,15.55l1.15,1c.77.67,3.44,1.92,4.63,1.48l.82-.3c.19-.07.3-.22.33-.43.02-.2-.07-.38-.24-.48l-1.35-.81c-.63-.39-1.12-.7-2.43-.57l-1.04.1c-.89-.02-1.48-.13-1.86-.36v.36h0ZM34.27,18.74c-1.62,0-3.82-1.18-4.44-1.72l-1.25-1.09c-.07-.06-.11-.15-.11-.24l.02-1.52c-.01-.09,0-.19,0-.26,0-.16.16-.31.32-.29.16,0,.3.14.3.31v.22c0,.18.06.3.15.4.22.25.79.38,1.68.4l1.01-.1c1.51-.15,2.15.24,2.82.66l1.34.81c.38.23.58.63.54,1.07-.04.44-.31.8-.73.95l-.82.3c-.24.09-.51.13-.81.13Z"/>
      <path class="cls-1" d="M22.63,4.7c.05-.58.63-2.98,1.46-3.97.24-.29.79.44.65.86l-.77,2.32c-.27.82-.52,1.54-1.14,1.02-.13-.12-.07-.08-.2-.23Z"/>
      <path class="cls-2" d="M22.95,4.6s.02.03.03.04c.16.14.22.15.23.16.16-.04.37-.68.47-.99l.77-2.31c.03-.12-.09-.37-.2-.48-.67.89-1.2,2.87-1.3,3.58h0ZM23.21,5.41c-.19,0-.38-.08-.58-.25-.09-.08-.12-.12-.16-.17-.02-.02-.03-.04-.07-.08-.06-.06-.09-.14-.08-.23.04-.63.65-3.09,1.53-4.14.15-.19.41-.23.64-.1.37.2.69.81.54,1.25l-.77,2.32c-.22.64-.42,1.25-.89,1.38-.05.02-.11.02-.17.02Z"/>
      <path class="cls-2" d="M33.05,18.55c-.18,0-.31-.14-.31-.31v-3.11c0-.17.14-.31.31-.31.17,0,.3.14.3.31v3.11c0,.17-.14.31-.3.31Z"/>
      <path class="cls-2" d="M35.44,26.89c-.1,0-.21-.05-.27-.15-.09-.15-.03-.33.11-.42l7.28-4.2c.15-.08.34-.04.43.11.08.15.03.34-.11.42l-7.29,4.21s-.09.04-.15.04Z"/>
      <path class="cls-2" d="M34.97,31.4c-.11,0-.21-.05-.27-.15-.09-.15-.03-.33.11-.42l7.85-4.53c.15-.08.33-.03.42.11.09.15.04.34-.11.42l-7.85,4.53s-.09.04-.15.04Z"/>
      <path class="cls-2" d="M32.95,36.27c-.1,0-.21-.05-.26-.15-.09-.15-.03-.33.12-.42l7.84-4.53c.15-.09.33-.04.42.11.09.15.04.33-.11.42l-7.84,4.53c-.05.03-.1.04-.16.04Z"/>
    </g>
  </g>
</svg>