<?xml version="1.0" encoding="UTF-8"?>
<svg id="Layer_2" data-name="Layer 2" xmlns="http://www.w3.org/2000/svg" viewBox="0 0 44.56 31.99" fill="currentColor">
  <defs>
    <style>
      .cls-1 {
        fill: #fff;
      }

      .cls-1, .cls-2, .cls-3, .cls-4 {
        fill-rule: evenodd;
      }

      .cls-2 {
        fill: #1a87c7;
      }

      .cls-3 {
        fill: #bdedf8;
      }

      .cls-4 {
        fill: #66ceef;
      }
    </style>
  </defs>
  <g id="_Layer_" data-name="&amp;lt;Layer&amp;gt;">
    <g>
      <path class="cls-3" d="M27.58,2.48l-.03.04-.03.04-.02.04-.02.04v.05s-.01.05-.01.05v5.26c0,.12-.03.17-.11.26l1.02-.65c.08-.09.1-.15.11-.26V2.05s.01-.05.01-.05v-.04s.03-.04.03-.04l.03-.04.03-.04-1.02.64h0ZM26.73,1.22l1.02-.64c.63-.32,1-.28,1.65-.05l12.92,6.21-1.02.65L28.38,1.17c-.65-.24-1.02-.28-1.65.04h0Z"/>
      <path class="cls-2" d="M28.19.75c.1.03.2.06.3.1l12.78,6.14.34-.21L29.25.83c-.44-.16-.7-.2-1.05-.08h0ZM27.82,2.74v4.84s.32-.2.32-.2l.02-4.85-.34.21h0ZM27.37,8.61c-.1,0-.19-.04-.26-.12-.11-.13-.11-.32,0-.45l.02-5.3s0-.09,0-.12c0-.01.03-.12.03-.13,0-.01.05-.11.06-.13,0-.01.04-.06.05-.07.02-.03.08-.08.11-.1l1-.63-.17-.08c-.56-.2-.83-.23-1.35.04-.16.08-.36.02-.45-.13-.09-.16-.04-.36.11-.46l1.02-.65c.77-.4,1.24-.34,1.95-.08l12.95,6.22c.11.05.19.16.19.29,0,.12-.05.24-.16.31l-1.02.65c-.1.06-.22.07-.33.02L28.94,1.82c0,.08-.02.17-.08.24l-.02,5.3c-.01.22-.06.35-.19.49-.02.02-.04.04-.07.06l-1.02.65c-.06.03-.12.05-.18.05Z"/>
      <path class="cls-4" d="M26.22,2.53c0-1.84,1.5-1.66,2.16-1.36l12.91,6.2c-.05.22-.08.48-.08.82v1.26l-11.59-6.21-1.6-.83c-.12-.06-.25-.06-.37.01-.11.07-.18.18-.18.32v5.26c0,.14-.07.25-.19.32-.12.07-.25.07-.37,0l-.52-.3c-.12-.07-.19-.19-.19-.32V2.53Z"/>
      <path class="cls-2" d="M27.85,2.03c.11,0,.22.03.33.08l1.6.84,11.09,5.94v-.67c0-.25.01-.46.04-.64L28.23,1.48c-.36-.17-.91-.24-1.26-.02-.27.18-.41.53-.41,1.07v5.17l.53.32.04-5.29c0-.25.13-.48.34-.61.12-.07.24-.1.37-.1h0ZM41.22,9.8c-.06,0-.11-.02-.16-.04l-13.19-7.04-.04,5.29c0,.26-.13.49-.36.62-.22.13-.49.13-.71,0l-.52-.3c-.22-.13-.36-.36-.36-.62V2.53c0-.97.39-1.43.72-1.64.6-.39,1.41-.26,1.92-.03l12.92,6.21c.15.07.22.23.18.39-.04.18-.06.41-.06.74v1.26c0,.12-.06.23-.17.29-.06.03-.11.05-.17.05Z"/>
      <path class="cls-3" d="M1.71,17.75l-.03.04-.03.04-.02.04v.04s-.02.05-.02.05v.05s0,5.26,0,5.26c0,.12-.03.17-.1.26l1.02-.64c.08-.09.1-.15.11-.26v-5.31s.01-.05.01-.05v-.04s.03-.04.03-.04l.02-.04.03-.04-1.02.65h0ZM.85,16.49l1.02-.65c.62-.32,1-.28,1.65-.05l12.91,6.21-1.02.64-12.91-6.2c-.65-.24-1.02-.28-1.65.05h0Z"/>
      <path class="cls-2" d="M2.32,16.02c.1.03.2.06.3.1l12.77,6.14.34-.21-12.36-5.94c-.44-.16-.7-.21-1.05-.08h0ZM1.93,18.01v4.83s.33-.2.33-.2l.02-4.85-.35.22h0ZM1.5,23.87c-.1,0-.2-.04-.26-.12-.11-.13-.11-.32,0-.45l.02-5.3s0-.09,0-.11c0-.02.02-.08.02-.1,0-.01.06-.15.07-.16,0-.01.04-.07.06-.08.02-.03.08-.08.1-.1l1-.63-.17-.08c-.56-.2-.83-.22-1.35.04-.16.08-.36.02-.45-.14-.09-.16-.04-.36.11-.46l1.02-.64c.76-.4,1.23-.34,1.95-.08l12.95,6.22c.11.05.19.16.2.29,0,.12-.06.24-.16.31l-1.02.65c-.1.06-.22.07-.33.02l-12.2-5.86c0,.09-.02.17-.08.24l-.02,5.3c-.02.22-.07.34-.19.49-.02.02-.05.04-.08.06l-1.02.65c-.05.04-.12.05-.18.05Z"/>
      <path class="cls-4" d="M.34,17.8c0-1.83,1.5-1.66,2.16-1.36l12.91,6.2c-.06.22-.08.48-.08.82v1.26l-11.59-6.21-1.6-.83c-.12-.06-.25-.06-.36.01-.11.07-.18.18-.18.32v5.26c0,.14-.07.26-.18.32-.12.07-.26.07-.37,0l-.52-.3c-.12-.07-.19-.19-.19-.32v-5.17Z"/>
      <path class="cls-2" d="M1.98,17.29c.11,0,.23.03.33.08l1.6.83,11.09,5.94v-.67c0-.26.01-.46.04-.65l-12.68-6.09c-.36-.16-.91-.24-1.26-.02-.27.18-.41.54-.41,1.07v5.17l.53.33.05-5.29c0-.25.13-.48.34-.61.12-.07.24-.1.37-.1h0ZM15.34,25.06c-.06,0-.11-.01-.16-.04L1.99,17.98l-.04,5.29c0,.26-.13.49-.35.62-.22.13-.5.13-.72,0l-.52-.3c-.22-.13-.36-.36-.36-.62v-5.17c0-.97.4-1.43.72-1.64.6-.39,1.41-.26,1.92-.03l12.92,6.21c.15.07.22.23.18.39-.05.18-.07.42-.07.74v1.26c0,.12-.06.23-.17.29-.05.03-.11.05-.17.05Z"/>
      <path class="cls-4" d="M29.68,15.89v3.77c0,.74.17,1.54.75,2.05.22.19,1.4.68,1.64.82-.79-.48-1.02-1.38-1.02-2.26v-3.77l-1.37-.62h0ZM28.42,14.71l.63-.37h0l1.83-1.06,10.01-5.78c.15-.08,1.11-.67,1.41-.78.1-.04.23-.07.34-.03l1.24.71c-.26-.09-.69.19-.9.31l-10.86,6.27-1.65.95h0l-.82.47-12.02,6.94c-.95.55-1.08.88-1.08,2.01v5.61c0,.52.12,1.05.53,1.4-.16-.09-1.19-.67-1.31-.78-.35-.34-.46-.86-.46-1.34v-5.7c0-1.08.19-1.4,1.08-1.92l12.02-6.94h0Z"/>
      <path class="cls-2" d="M28.42,14.71h0,0ZM30.02,16.42v3.24c0,.56.12,1.34.63,1.8.04.03.14.09.27.16-.14-.39-.22-.83-.22-1.33v-3.55l-.68-.31h0ZM42.51,7.02s-.03.02-.08.03c-.22.08-.98.53-1.23.68l-.13.08-24.5,14.15c-.79.46-.91.67-.91,1.62v5.7c0,.34.07.81.36,1.09.03.02.11.07.24.15-.03-.16-.04-.34-.04-.53v-5.61c0-1.22.16-1.67,1.25-2.3l25.43-14.68s.08-.05.13-.08l-.51-.3h0ZM17.08,31.73c-.06,0-.12-.01-.17-.05l-.15-.08c-.93-.52-1.14-.66-1.22-.74-.37-.36-.56-.9-.57-1.58v-5.7c0-1.2.25-1.63,1.25-2.22l24.63-14.22c.55-.32,1.1-.64,1.34-.73.23-.09.43-.09.6-.02l1.26.73c.15.09.21.28.14.44-.07.16-.26.24-.42.18-.1-.02-.43.17-.54.24l-.08.05-13.19,7.62,1.23.55c.12.06.2.18.2.31v3.77c0,.96.29,1.62.86,1.96.16.1.21.31.12.46-.1.16-.31.22-.46.13-.08-.05-.28-.13-.5-.24-.62-.28-1.03-.48-1.2-.62-.56-.5-.85-1.3-.86-2.31v-3.66l-11.54,6.66c-.81.47-.91.66-.91,1.71v5.61c0,.53.14.9.41,1.14.14.12.16.31.06.46-.06.09-.17.14-.28.14Z"/>
      <path class="cls-3" d="M16.55,24.38v-.11c0-1.12.25-1.42,1.08-1.91l1.04-.6c8.21-4.74,15.27-8.82,23.46-13.54l.85-.49c.8-.45,1.1-.6,1.23.57v5.72c0,.74-.26,1.56-.68,2.29h0c-.42.73-1.01,1.37-1.65,1.74l-7.35,4.24c-.96.55-1.83.6-2.47.24-.63-.37-1.02-1.15-1.02-2.26v-3.77l-1.33.77v3.77c0,1.11-.17,2.45-.81,3.54-.63,1.1-1.72,1.94-2.68,2.5l-7.35,4.24c-.64.37-1.22.4-1.64.16h0c-.42-.25-.68-.76-.68-1.5v-5.61Z"/>
      <path class="cls-2" d="M43.73,7.72c-.06.01-.37.19-.58.31l-25.35,14.63c-.74.42-.91.62-.91,1.61v5.72c0,.58.18,1.01.51,1.21.33.19.8.13,1.31-.16l7.35-4.24c.67-.39,1.88-1.2,2.56-2.37.63-1.09.76-2.44.76-3.37v-3.77c0-.12.06-.23.17-.3l1.33-.77c.11-.06.23-.06.34,0,.11.06.17.17.17.29v3.77c0,.95.3,1.64.85,1.96.55.32,1.3.23,2.12-.24l7.35-4.24c.56-.33,1.1-.89,1.5-1.59,0-.01.01-.02.02-.03.41-.71.64-1.46.64-2.12v-5.72c-.06-.48-.13-.57-.14-.58h0ZM17.84,31.99c-.28,0-.54-.07-.78-.2-.55-.32-.85-.96-.85-1.8v-5.7c0-1.27.33-1.69,1.25-2.22l25.35-14.63c.49-.28.88-.5,1.24-.31.33.17.43.57.49,1.14v.15s0,5.61,0,5.61c0,.76-.25,1.63-.71,2.43,0,.01,0,.03-.02.03-.47.81-1.1,1.47-1.77,1.86l-7.35,4.24c-1.04.6-2.03.69-2.8.24-.77-.44-1.2-1.35-1.2-2.55v-3.18l-.65.38v3.57c0,1.02-.15,2.49-.85,3.71-.72,1.24-1.92,2.11-2.81,2.63l-7.35,4.24c-.42.24-.83.36-1.21.36Z"/>
      <path class="cls-1" d="M28.41,17.85l-10.55,6.09v5.45c0,.23.08.4.21.48h0c.14.08.32.06.52-.05l7.83-4.52c.54-.31,1.04-.85,1.39-1.47.36-.62.58-1.32.58-1.95v-4.01Z"/>
      <path class="cls-2" d="M18.2,24.14v5.25c0,.13.04.18.04.18,0,0,.07,0,.18-.06l7.83-4.52c.47-.27.93-.76,1.27-1.35.34-.59.53-1.24.53-1.78v-3.42l-9.86,5.69h0ZM18.27,30.26c-.13,0-.25-.03-.36-.09-.25-.15-.39-.43-.39-.78v-5.45c0-.12.06-.23.17-.29l10.54-6.09c.11-.06.24-.06.34,0,.1.06.17.17.17.3v4.01c0,.67-.22,1.42-.63,2.12-.4.7-.94,1.26-1.52,1.6l-7.83,4.52c-.17.1-.34.15-.51.15Z"/>
      <path class="cls-3" d="M25.56,24.6c1.15-.74,1.76-1.71,1.82-3.08v-3.07l1.03-.59v4.01c-.06,1.37-.82,2.69-1.97,3.42l-7.83,4.52-.74-.42.04-.36,7.66-4.42Z"/>
      <path class="cls-2" d="M25.56,24.6h0,0ZM18.25,29.22l.35.2,7.66-4.42c1.05-.67,1.75-1.88,1.81-3.14v-3.41l-.35.2v2.87c-.06,1.47-.71,2.57-1.98,3.37,0,0,0,0,0,0l-7.48,4.32h0ZM18.6,30.16c-.06,0-.12-.02-.17-.05l-.74-.43c-.12-.07-.19-.2-.17-.33l.04-.36c.01-.11.08-.21.17-.26l7.65-4.42c1.08-.69,1.6-1.58,1.65-2.81v-3.06c0-.12.07-.24.17-.3l1.03-.59c.11-.06.24-.06.34,0,.1.06.17.17.17.3v4.01c-.06,1.5-.88,2.91-2.13,3.71l-7.84,4.53c-.06.03-.11.05-.17.05Z"/>
      <path class="cls-1" d="M42.97,9.44l-10.43,6.03-.21.13v4.05c0,.49.14,1.03.59,1.29.45.26.99.1,1.41-.14l7.44-4.35c.44-.28,1.21-1.14,1.21-2.17v-4.83Z"/>
      <path class="cls-2" d="M32.66,15.79v3.86c0,.28.06.79.42.99.37.22.87-.03,1.07-.14l7.44-4.35c.33-.21,1.04-.96,1.04-1.88v-4.24l-9.97,5.75h0ZM33.43,21.41c-.25,0-.48-.06-.69-.18-.49-.28-.76-.84-.76-1.58v-4.05c0-.13.07-.24.17-.3l10.65-6.15c.1-.06.24-.06.34,0,.11.06.17.17.17.3v4.83c0,1.16-.84,2.13-1.37,2.47l-7.45,4.35c-.37.21-.73.32-1.06.32Z"/>
      <path class="cls-3" d="M42.01,14.09v-4.09l.96-.56v4.83c0,1.04-.77,1.9-1.21,2.17l-7.44,4.35c-.38.2-.71.32-1.08.25l-.74-.54c.28,0,.55-.11.85-.27l7.59-4.39c.77-.49,1.06-.74,1.06-1.76Z"/>
      <path class="cls-2" d="M33.37,20.72c.23.02.47-.07.78-.23l7.43-4.34c.33-.21,1.04-.96,1.04-1.88v-4.24l-.28.16v3.9c0,1.16-.35,1.5-1.22,2.05l-7.61,4.39c-.08.04-.16.08-.24.12l.09.07h0ZM33.45,21.41c-.09,0-.18,0-.27-.03-.05,0-.1-.03-.14-.06l-.74-.53c-.12-.09-.17-.24-.12-.38.04-.14.17-.24.32-.24.21,0,.43-.1.69-.23l7.58-4.38c.7-.45.89-.61.89-1.47v-4.09c0-.12.06-.24.17-.3l.97-.56c.1-.06.24-.06.34,0,.11.06.17.17.17.3v4.83c0,1.16-.84,2.13-1.37,2.47l-7.45,4.35c-.31.16-.65.31-1.04.31Z"/>
    </g>
  </g>
</svg>