<?xml version="1.0" encoding="UTF-8"?>
<svg id="Layer_2" data-name="Layer 2" xmlns="http://www.w3.org/2000/svg" viewBox="0 0 69.28 82.13" fill="currentColor">
  <defs>
    <style>
      .cls-1 {
        fill: #fff;
      }

      .cls-1, .cls-2, .cls-3, .cls-4 {
        fill-rule: evenodd;
      }

      .cls-2 {
        fill: #1a87c7;
      }

      .cls-3 {
        fill: #bdedf8;
      }

      .cls-4 {
        fill: #66ceef;
      }
    </style>
  </defs>
  <g id="_Layer_" data-name="&amp;lt;Layer&amp;gt;">
    <g>
      <path class="cls-3" d="M38.47,41.06c-1.68.98-14.94,9.02-15.64,8.76l12.92,7.23c.42-.16,15.14-8.34,19.28-11.58,4.87-3.79,10.32-9.2,13.62-14.44l-12.47-7.22c-3.82,6.12-11.53,13.56-17.71,17.24Z"/>
      <path class="cls-2" d="M38.47,41.06h.05-.05ZM24.29,49.92l11.45,6.43c1.94-1.01,14.99-8.35,18.92-11.37,5.29-4.12,10.17-9.21,13.1-13.75l-11.42-6.59c-3.93,6.05-11.37,13.25-17.55,16.95h0c-.31.17-.94.56-1.78,1.08-7.63,4.52-11.08,6.45-12.71,7.25h0ZM35.74,57.66c-.1,0-.21-.02-.31-.07l-12.9-7.23c-.28-.16-.38-.51-.26-.8.12-.23.35-.38.61-.35,1.22-.31,10.4-5.79,13.44-7.6.89-.52,1.57-.9,1.83-1.08,6.24-3.72,13.73-11.04,17.5-17.05.16-.28.52-.36.79-.19l12.52,7.2c.16.09.26.23.26.4.05.16.05.33-.05.47-2.99,4.78-8.17,10.24-13.78,14.6-4.19,3.27-18.97,11.51-19.44,11.67-.1.03-.16.03-.21.03Z"/>
      <polygon class="cls-3" points="35.06 48.17 22.6 40.95 1.13 70.02 13.63 77.21 35.06 48.17"/>
      <path class="cls-2" d="M2.05,69.83l11.4,6.59,20.71-28.07-11.41-6.59L2.05,69.83h0ZM13.63,77.84c-.1,0-.21-.03-.31-.09l-12.48-7.21c-.15-.09-.26-.23-.29-.4-.03-.17,0-.35.11-.49l21.45-29.06c.19-.26.54-.33.8-.17l12.48,7.21c.16.09.26.23.31.4.05.17,0,.35-.1.5l-21.47,29.07c-.12.16-.29.24-.49.24Z"/>
      <path class="cls-1" d="M68.65,31.03c-3.98,6.47-12.47,14.24-17.66,17.24l-15.09,8.69c-.47.26-.84.05-.84-.47v-8.33l-21.43,29.05,21.43,4.29v-8.31c0-.52.42-1.17.84-1.41l19.33-10.95c11.79-6.71,13.1-19.4,13.41-29.81Z"/>
      <path class="cls-2" d="M14.69,76.82l19.79,3.95v-7.56c0-.75.47-1.58,1.1-1.95l19.34-10.95c10.27-5.82,12.47-16.32,13.05-27.1-4.35,6.08-11.95,12.85-16.66,15.61l-15.09,8.69c-.42.24-.84.26-1.2.05-.37-.19-.52-.59-.52-1.06v-6.47l-19.79,26.79h0ZM35.06,82.13s-.05,0-.11-.02l-21.45-4.29c-.21-.03-.38-.17-.45-.38-.09-.19-.05-.42.07-.59l21.46-29.05c.16-.22.42-.31.68-.22.26.09.42.31.42.59v8.2l14.99-8.64c5.14-2.95,13.57-10.69,17.45-17.02.16-.24.42-.35.68-.28.26.09.47.33.47.61-.37,11.91-2.25,23.82-13.78,30.33l-19.28,10.93c-.26.16-.52.59-.52.89v8.31c0,.19-.05.36-.21.49-.11.09-.26.14-.42.14Z"/>
      <polygon class="cls-3" points="68.13 12.11 55.65 4.92 34.17 .62 46.69 7.82 68.13 12.11"/>
      <path class="cls-2" d="M46.9,7.24l17.66,3.53-9.12-5.29-17.71-3.53,9.17,5.28h0ZM68.13,12.74q-.05,0-.11-.02l-21.48-4.29c-.05-.02-.1-.03-.16-.07l-12.47-7.21c-.26-.14-.42-.47-.31-.75.16-.28.42-.45.73-.38l21.43,4.29c.05.02.16.03.21.07l12.47,7.22c.26.14.37.47.26.75-.1.24-.31.4-.58.4Z"/>
      <path class="cls-3" d="M45.86,17.55l-12.47-7.22c-4,2.28-18.41,10.1-21.3,12.26C5.72,27.34,1.13,36.34.82,44.26l-.19,6.85,12.48,7.21c.28-9.19.24-14.98,6.2-23.1,1.96-2.69,4.33-5.02,7.23-6.71l19.31-10.95Z"/>
      <path class="cls-2" d="M1.25,50.76l11.27,6.5c.26-8.69.45-14.44,6.29-22.41,2.21-3.01,4.64-5.25,7.42-6.88l18.37-10.41-11.21-6.5c-.94.52-2.31,1.27-3.83,2.12-5.94,3.3-14.91,8.27-17.11,9.91C6.28,27.69,1.76,36.41,1.44,44.29l-.19,6.47h0ZM13.11,58.93c-.1,0-.21-.03-.31-.09L.32,51.64c-.19-.12-.32-.33-.32-.56l.21-6.85c.33-8.22,5.06-17.33,11.51-22.15,2.26-1.67,11.27-6.67,17.23-9.99,1.71-.96,3.18-1.77,4.12-2.29.21-.1.42-.1.63.02l12.47,7.2c.16.12.31.31.31.54s-.16.43-.31.54l-19.31,10.95c-2.64,1.53-4.96,3.67-7.06,6.54-5.63,7.68-5.81,13.3-6.05,21.82l-.03.94c0,.21-.12.4-.31.5-.09.07-.19.09-.29.09Z"/>
      <path class="cls-4" d="M33.38,10.34l12.47,7.22c.52-.35.73-.8.84-1.43V7.82L34.17.62v8.31c-.05.61-.31,1.06-.79,1.41h0ZM46.43,32.31l-12.47-7.21c.21.17.21.28.21.54v8.33l12.52,7.21v-8.33c-.05-.26-.05-.36-.26-.54h0Z"/>
      <path class="cls-2" d="M34.38,10.22l11.37,6.59c.21-.19.26-.42.31-.73v-7.89l-11.27-6.5v7.25c-.05.51-.21.92-.42,1.29h0ZM45.86,18.16c-.11,0-.21-.02-.31-.07l-12.47-7.21c-.21-.1-.31-.3-.31-.51s.1-.42.26-.54c.37-.24.52-.52.58-.96V.62c0-.23.11-.44.31-.54.16-.1.37-.1.58,0l12.52,7.21c.16.1.26.31.26.52v8.31c-.05.89-.42,1.48-1.1,1.93-.1.07-.21.1-.31.1h0ZM34.8,33.62l11.27,6.5v-7.3l-11.27-6.5v7.3h0ZM46.69,41.8c-.1,0-.21-.03-.31-.09l-12.47-7.21c-.21-.1-.31-.31-.31-.54v-8.33c-.26-.21-.31-.59-.16-.85.21-.26.58-.38.79-.21l12.52,7.2s.05.03.05.05c.42.35.47.66.47.95v8.4c0,.23-.11.42-.26.54-.1.05-.21.09-.31.09Z"/>
      <path class="cls-1" d="M13.11,58.32c1.49-2.45,3.62-5.04,5.93-7.47,3.96-4.15,8.59-7.95,11.73-9.77l15.09-8.71c.47-.26.84-.03.84.49v8.33l21.43-29.06-21.43-4.29v8.31c0,.54-.42,1.17-.84,1.43l-19.31,10.95c-11.81,6.69-13.13,19.4-13.43,29.81Z"/>
      <path class="cls-2" d="M47.27,8.58v7.55c0,.77-.47,1.6-1.1,1.96l-19.31,10.95c-10.28,5.82-12.52,16.31-13.06,27.1,1.31-1.83,2.92-3.77,4.78-5.72,3.89-4.09,8.55-7.96,11.86-9.89l15.09-8.69c.42-.24.84-.26,1.2-.07.37.21.52.59.52,1.08v6.45l19.81-26.77-19.81-3.95h0ZM13.11,58.93c-.05,0-.12-.02-.18-.02-.28-.09-.45-.35-.45-.63.37-11.89,2.28-23.8,13.77-30.32l19.29-10.95c.26-.14.52-.58.52-.89V7.82c0-.17.05-.35.21-.47.16-.12.37-.17.52-.12l21.43,4.29c.21.03.42.17.47.38.11.19.05.42-.05.57l-21.48,29.06c-.16.21-.42.3-.68.23-.26-.09-.42-.33-.42-.59v-8.2l-14.99,8.62c-3.23,1.88-7.78,5.67-11.59,9.68-2.45,2.57-4.49,5.11-5.86,7.35-.1.19-.31.3-.52.3Z"/>
    </g>
  </g>
</svg>