<?xml version="1.0" encoding="UTF-8"?>
<svg id="Layer_2" data-name="Layer 2" xmlns="http://www.w3.org/2000/svg" viewBox="0 0 37.4 43.57" fill="currentColor">
  <defs>
    <style>
      .cls-1, .cls-2, .cls-3, .cls-4 {
        fill-rule: evenodd;
      }

      .cls-1, .cls-5 {
        fill: #fff;
      }

      .cls-2 {
        fill: #1a87c7;
      }

      .cls-6, .cls-4 {
        fill: #66ceef;
      }

      .cls-3, .cls-7 {
        fill: #bdedf8;
      }
    </style>
  </defs>
  <g id="_Layer_" data-name="&amp;lt;Layer&amp;gt;">
    <g>
      <polygon class="cls-3" points="36.72 5.09 36.72 37.4 23 34.97 23 2.66 36.72 5.09"/>
      <path class="cls-2" d="M23.31,34.72l13.11,2.31V5.35l-13.11-2.32v31.69h0ZM36.72,37.71s-.03,0-.05,0l-13.72-2.42c-.15-.03-.25-.16-.25-.3V2.66c0-.09.03-.18.11-.24.07-.06.16-.08.25-.07l13.72,2.43c.15.02.26.15.26.3v32.31c0,.09-.04.18-.11.24-.06.05-.13.07-.2.07Z"/>
      <polygon class="cls-3" points="23 2.66 23 34.97 15.48 43.26 15.48 10.95 23 2.66"/>
      <path class="cls-2" d="M15.78,11.07v31.4l6.91-7.61V3.46l-6.91,7.6h0ZM15.48,43.57s-.08,0-.11-.02c-.12-.05-.2-.16-.2-.29V10.95c0-.08.03-.15.09-.21l7.52-8.28c.09-.09.22-.13.34-.08.12.04.2.16.2.29v32.31c0,.08-.03.15-.09.21l-7.52,8.28c-.06.07-.14.1-.23.1Z"/>
      <rect class="cls-7" x=".31" y="10.95" width="15.17" height="32.31"/>
      <path class="cls-2" d="M.62,42.95h14.55V11.25H.62v31.69h0ZM15.48,43.57H.31c-.17,0-.31-.14-.31-.31V10.95c0-.17.14-.31.31-.31h15.17c.17,0,.3.14.3.31v32.31c0,.17-.14.31-.3.31Z"/>
      <polygon class="cls-1" points="37.09 2.99 37.09 35.3 36.72 37.4 36.72 5.09 37.09 2.99"/>
      <path class="cls-2" d="M36.72,37.71h-.03c-.16-.02-.28-.15-.28-.31V5.09l.36-2.15c.04-.16.18-.26.33-.25.17.02.29.15.29.31v32.31l-.37,2.15c-.03.15-.16.25-.3.25Z"/>
      <polygon class="cls-3" points="36.72 5.09 23 2.66 15.48 10.95 .31 10.95 .31 8.82 14.24 8.82 21.88 .31 37.09 2.99 36.72 5.09"/>
      <path class="cls-2" d="M.62,10.64h14.72l7.43-8.18c.07-.08.18-.11.28-.1l13.42,2.37.26-1.49L22,.64l-7.54,8.38c-.06.07-.14.1-.22.1H.62v1.51h0ZM15.48,11.25H.31c-.17,0-.31-.14-.31-.31v-2.13c0-.17.14-.31.31-.31h13.78L21.65.1c.08-.08.18-.12.29-.1l15.2,2.68c.18.03.29.19.25.36l-.36,2.1c-.02.08-.06.15-.13.2-.06.05-.15.07-.23.05l-13.56-2.4-7.4,8.16c-.06.06-.14.1-.23.1Z"/>
      <polygon class="cls-1" points="36.72 28.63 36.72 31.16 31.41 30.22 31.41 36.46 29.02 36.04 29.02 29.8 23 28.73 23 26.2 29.02 27.27 29.02 16.35 23 15.28 23 12.75 29.02 13.81 29.02 3.73 31.41 4.15 31.41 14.24 36.72 15.17 36.72 17.71 31.41 16.77 31.41 27.69 36.72 28.63"/>
      <path class="cls-2" d="M29.33,35.78l1.78.31v-5.87c0-.09.03-.18.1-.24.07-.06.17-.08.25-.07l4.95.87v-1.9l-5.06-.89c-.15-.03-.25-.15-.25-.3v-10.92c0-.09.03-.18.1-.23.07-.06.17-.08.25-.07l4.95.87v-1.91l-5.06-.89c-.15-.03-.25-.16-.25-.3V4.41l-1.78-.31v9.72c0,.09-.04.18-.11.24-.07.06-.16.08-.25.07l-5.65-1v1.91l5.76,1.02c.15.02.25.15.25.3v10.92c0,.09-.04.18-.11.24-.07.06-.16.08-.25.07l-5.65-1v1.91l5.76,1.02c.15.03.25.15.25.3v5.98h0ZM31.41,36.77s-.03,0-.05,0l-2.4-.42c-.14-.03-.25-.15-.25-.3v-5.98l-5.76-1.02c-.15-.03-.25-.16-.25-.3v-2.53c0-.09.03-.18.11-.24.07-.06.16-.08.25-.07l5.66,1v-10.29l-5.76-1.02c-.15-.02-.25-.15-.25-.3v-2.53c0-.09.03-.18.11-.24.07-.06.16-.08.25-.07l5.66,1V3.73c0-.09.04-.18.11-.23.07-.06.16-.08.25-.07l2.39.42c.15.03.26.16.26.3v9.83l5.05.89c.15.03.26.15.26.3v2.53c0,.09-.04.18-.11.24-.07.06-.17.08-.25.07l-4.94-.87v10.29l5.05.89c.15.02.26.15.26.3v2.53c0,.09-.04.18-.11.24-.07.06-.17.08-.25.07l-4.94-.87v5.87c0,.09-.04.18-.11.24-.06.04-.13.07-.2.07Z"/>
      <rect class="cls-5" x=".31" y="34.48" width="15.17" height="2.53"/>
      <path class="cls-2" d="M.62,36.71h14.55v-1.92H.62v1.92h0ZM15.48,37.33H.31c-.17,0-.31-.14-.31-.31v-2.53c0-.17.14-.31.31-.31h15.17c.17,0,.3.14.3.31v2.53c0,.17-.14.31-.3.31Z"/>
      <polygon class="cls-1" points="23 12.75 23 15.28 15.48 23.57 15.48 21.03 19.24 16.89 19.24 6.81 20.95 4.91 20.95 15 23 12.75"/>
      <path class="cls-2" d="M15.78,21.15v1.62l6.91-7.61v-1.62l-1.51,1.66c-.09.09-.21.13-.34.08-.12-.05-.19-.16-.19-.29V5.71l-1.1,1.21v9.97c0,.08-.03.15-.08.21l-3.69,4.05h0ZM15.48,23.88s-.08,0-.11-.02c-.12-.05-.2-.16-.2-.29v-2.53c0-.08.03-.15.09-.21l3.68-4.05V6.81c0-.08.03-.15.08-.21l1.72-1.89c.09-.09.22-.13.34-.08.11.05.19.16.19.29v9.29l1.51-1.66c.09-.09.22-.13.34-.08.12.04.2.16.2.29v2.53c0,.08-.03.15-.09.21l-7.52,8.28c-.06.07-.14.1-.23.1Z"/>
      <polygon class="cls-1" points="15.48 21.03 15.48 23.57 8.38 23.57 8.38 29.27 15.48 29.27 15.48 31.43 6.86 31.43 6.86 23.57 .31 23.57 .31 21.03 6.86 21.03 6.86 10.95 8.38 10.95 8.38 21.03 15.48 21.03"/>
      <path class="cls-2" d="M7.17,31.13h8v-1.55h-6.79c-.17,0-.3-.14-.3-.31v-5.7c0-.17.14-.31.3-.31h6.79v-1.91h-6.79c-.17,0-.3-.14-.3-.31v-9.78h-.9v9.78c0,.17-.14.31-.31.31H.62v1.91h6.25c.17,0,.31.14.31.31v7.56h0ZM15.48,31.74H6.86c-.17,0-.31-.14-.31-.31v-7.56H.31c-.17,0-.31-.14-.31-.31v-2.53c0-.17.14-.31.31-.31h6.24v-9.78c0-.17.14-.31.31-.31h1.51c.17,0,.31.14.31.31v9.78h6.79c.17,0,.3.14.3.31v2.53c0,.17-.14.31-.3.31h-6.79v5.09h6.79c.17,0,.3.14.3.31v2.16c0,.17-.14.31-.3.31Z"/>
      <path class="cls-1" d="M20.15,24.11v5.22l2.84-3.13v2.53l-2.84,3.13v6.24l-.91,1.01v-6.24l-3.76,4.14v-2.53l3.76-4.14v-3.05l-3.76,4.14v-2.16l4.68-5.16Z"/>
      <path class="cls-2" d="M19.24,32.57s.07,0,.1.02c.12.04.2.16.2.29v5.44l.3-.33v-6.12c0-.08.03-.15.08-.21l2.76-3.04v-1.61l-2.31,2.54c-.08.09-.22.13-.34.08-.11-.05-.19-.16-.19-.29v-4.42l-4.07,4.48v1.25l3.22-3.55c.09-.09.23-.13.34-.08.12.05.2.16.2.29v3.05c0,.08-.03.15-.08.21l-3.69,4.05v1.62l3.22-3.55c.06-.07.15-.1.24-.1h0ZM19.24,39.42s-.08,0-.11-.02c-.12-.05-.2-.16-.2-.29v-5.44l-3.22,3.55c-.09.09-.22.13-.34.08-.12-.05-.2-.16-.2-.29v-2.53c0-.08.03-.15.09-.21l3.68-4.05v-2.14l-3.22,3.55c-.09.09-.22.13-.34.08-.12-.05-.2-.16-.2-.29v-2.16c0-.08.03-.15.09-.21l4.68-5.15c.09-.09.21-.13.34-.08.12.04.2.16.2.28v4.42l2.3-2.54c.09-.1.22-.13.34-.08.12.05.2.16.2.29v2.53c0,.08-.03.15-.09.21l-2.75,3.04v6.12c0,.08-.04.15-.09.21l-.91,1.01c-.06.07-.15.1-.23.1Z"/>
      <polygon class="cls-4" points="23 2.66 29.02 3.73 29.02 13.81 23 12.75 23 2.66"/>
      <path class="cls-2" d="M23.31,12.49l5.4.96V3.99l-5.4-.96v9.46h0ZM29.02,14.12s-.04,0-.06,0l-6.02-1.06c-.15-.03-.25-.15-.25-.3V2.66c0-.09.03-.18.11-.24.07-.06.16-.08.25-.07l6.02,1.06c.15.03.25.16.25.3v10.09c0,.09-.04.18-.11.24-.05.05-.12.07-.19.07Z"/>
      <polygon class="cls-4" points="23 15.28 29.02 16.35 29.02 27.27 23 26.2 23 15.28"/>
      <path class="cls-2" d="M23.31,25.94l5.4.95v-10.29l-5.4-.95v10.29h0ZM29.02,27.57s-.04,0-.06,0l-6.02-1.06c-.15-.03-.25-.16-.25-.3v-10.92c0-.09.03-.18.11-.24.07-.06.16-.08.25-.07l6.02,1.06c.15.02.25.15.25.3v10.92c0,.09-.04.18-.11.24-.05.05-.12.07-.19.07Z"/>
      <rect class="cls-6" x="8.38" y="23.57" width="7.1" height="5.7"/>
      <path class="cls-2" d="M8.69,28.96h6.48v-5.09h-6.48v5.09h0ZM15.48,29.58h-7.1c-.17,0-.3-.14-.3-.31v-5.7c0-.17.14-.31.3-.31h7.1c.17,0,.3.14.3.31v5.7c0,.17-.14.31-.3.31Z"/>
      <polygon class="cls-4" points="20.95 4.91 23 2.66 23 12.75 20.95 15 20.95 4.91"/>
      <path class="cls-2" d="M21.26,5.04v9.17l1.44-1.57V3.46l-1.44,1.57h0ZM20.95,15.31s-.08,0-.11-.02c-.12-.05-.19-.16-.19-.29V4.91c0-.08.03-.15.08-.21l2.04-2.25c.09-.09.22-.13.34-.08.12.04.2.16.2.29v10.09c0,.08-.03.15-.09.21l-2.04,2.25c-.06.06-.14.1-.22.1Z"/>
      <polygon class="cls-4" points="20.15 18.41 23 15.28 23 26.2 20.15 29.33 20.15 24.11 15.48 29.27 15.48 23.57 20.15 18.41"/>
      <path class="cls-2" d="M20.15,18.41h0,0ZM20.15,23.81s.08,0,.11.02c.12.04.2.16.2.28v4.42l2.22-2.45v-10l-2.31,2.54h0l-4.6,5.06v4.78l4.15-4.56c.06-.07.14-.1.22-.1h0ZM20.15,29.64s-.07,0-.11-.02c-.11-.05-.19-.16-.19-.29v-4.42l-4.14,4.56c-.09.09-.22.13-.34.08-.12-.04-.2-.16-.2-.29v-5.7c0-.08.03-.15.09-.21l7.52-8.28c.09-.09.22-.13.34-.08.12.05.2.16.2.29v10.92c0,.08-.03.15-.09.21l-2.84,3.13c-.05.07-.14.1-.23.1Z"/>
      <rect class="cls-6" x=".31" y="37.02" width="15.17" height="6.24"/>
      <path class="cls-2" d="M.62,42.95h14.55v-5.62H.62v5.62h0ZM15.48,43.57H.31c-.17,0-.31-.14-.31-.31v-6.24c0-.17.14-.31.31-.31h15.17c.17,0,.3.14.3.31v6.24c0,.17-.14.31-.3.31Z"/>
      <rect class="cls-6" x=".31" y="10.95" width="6.55" height="10.09"/>
      <path class="cls-2" d="M.62,20.73h5.94v-9.47H.62v9.47h0ZM6.86,21.34H.31c-.17,0-.31-.14-.31-.31v-10.09c0-.17.14-.31.31-.31h6.55c.17,0,.31.14.31.31v10.09c0,.17-.14.31-.31.31Z"/>
      <polygon class="cls-4" points="19.24 32.88 15.48 37.02 15.48 43.26 19.24 39.12 19.24 32.88"/>
      <path class="cls-2" d="M15.78,37.13v5.33l3.15-3.46v-5.32l-3.15,3.46h0ZM15.48,43.57s-.08,0-.11-.02c-.12-.05-.2-.16-.2-.29v-6.24c0-.08.03-.15.09-.21l3.75-4.14c.09-.09.23-.13.34-.08.12.04.2.16.2.29v6.24c0,.07-.03.15-.08.2l-3.76,4.14c-.06.07-.14.1-.23.1Z"/>
      <polygon class="cls-4" points="31.41 30.22 36.72 31.16 36.72 37.4 31.41 36.46 31.41 30.22"/>
      <path class="cls-2" d="M31.73,36.2l4.69.83v-5.61l-4.69-.83v5.61h0ZM36.72,37.71s-.03,0-.05,0l-5.31-.94c-.15-.03-.25-.16-.25-.31v-6.24c0-.09.03-.18.1-.24.07-.06.17-.08.25-.07l5.31.94c.15.03.26.15.26.3v6.24c0,.09-.04.18-.11.24-.06.05-.13.07-.2.07Z"/>
    </g>
  </g>
</svg>