<?xml version="1.0" encoding="UTF-8"?>
<svg id="Layer_2" data-name="Layer 2" xmlns="http://www.w3.org/2000/svg" viewBox="0 0 36.33 42.97" fill="currentColor">
  <defs>
    <style>
      .cls-1 {
        fill: #fff;
      }

      .cls-1, .cls-2, .cls-3, .cls-4, .cls-5 {
        fill-rule: evenodd;
      }

      .cls-2 {
        fill: #1a87c7;
      }

      .cls-3 {
        fill: #bdedf8;
      }

      .cls-4 {
        fill: #ecf6f9;
      }

      .cls-5 {
        fill: #66ceef;
      }
    </style>
  </defs>
  <g id="_Layer_" data-name="&amp;lt;Layer&amp;gt;">
    <g>
      <path class="cls-5" d="M.33,27.3c0,5.67-.84,9.2,5.89,12.71,10.95,5.72,29.58,1.65,29.79-7.65v-5.06c-.37,8.45-13.7,10.95-21.25,10.11-5.48-.61-14.17-3.48-14.44-10.11Z"/>
      <path class="cls-2" d="M.62,29.95c-.05,4.09.29,6.94,5.74,9.78,6.94,3.62,17.95,3.41,24.55-.49,2.15-1.28,4.72-3.51,4.79-6.89v-2.28c-.52,1.19-1.34,2.28-2.46,3.25-4.38,3.75-12.63,5.06-18.5,4.4-4.61-.51-12-2.71-14.12-7.76h0ZM18.15,42.97c-4.3,0-8.62-.9-12.08-2.69C-.11,37.04-.06,33.65.02,28.96v-1.67c0-.17.13-.3.31-.31H.33c.16,0,.29.13.31.3.26,6.53,9.01,9.25,14.15,9.82,5.61.63,13.83-.65,18.05-4.26,1.81-1.55,2.78-3.42,2.86-5.56,0-.17.13-.3.31-.3h0c.16.01.31.14.31.31v5.06c-.08,2.91-1.83,5.47-5.14,7.41-3.59,2.12-8.3,3.2-13.05,3.2Z"/>
      <path class="cls-3" d="M28.97,21.06c2.96,1.72,4.45,3.97,4.45,6.23s-1.49,4.5-4.45,6.22c-2.99,1.72-6.89,2.58-10.79,2.58s-7.81-.86-10.79-2.58c-2.99-1.72-4.48-3.97-4.48-6.22s1.49-4.51,4.48-6.23c2.99-1.72,6.89-2.58,10.79-2.58s7.81.86,10.79,2.58h0ZM5.57,34.57c6.94,4.02,18.24,4.02,25.2.01,6.97-4.02,6.97-10.55,0-14.57-6.97-4.02-18.26-4.02-25.2,0-6.99,4.02-6.99,10.55,0,14.56h0Z"/>
      <path class="cls-2" d="M18.17,18.79c-4.03,0-7.81.9-10.64,2.54-2.78,1.61-4.32,3.72-4.32,5.96s1.55,4.35,4.32,5.96c2.83,1.63,6.6,2.54,10.64,2.54s7.78-.9,10.64-2.54c2.78-1.61,4.3-3.73,4.3-5.96s-1.52-4.36-4.3-5.96c-2.86-1.64-6.63-2.54-10.64-2.54h0ZM18.17,36.41c-4.14,0-8.02-.94-10.95-2.63-2.99-1.72-4.61-4.02-4.61-6.49s1.62-4.78,4.61-6.5c2.93-1.68,6.81-2.62,10.95-2.62h0c4.11,0,8.02.93,10.95,2.62,2.96,1.72,4.61,4.03,4.61,6.5s-1.65,4.77-4.61,6.49c-2.93,1.68-6.84,2.63-10.95,2.63h0ZM18.17,17.3c4.51,0,9.01.99,12.44,2.97,3.27,1.89,5.08,4.38,5.08,7.02s-1.81,5.13-5.08,7.01c-6.86,3.96-18.02,3.96-24.92,0-3.27-1.89-5.06-4.38-5.06-7.01s1.78-5.13,5.06-7.02c3.46-1.98,7.96-2.97,12.47-2.97h0ZM18.17,37.89c-4.64,0-9.25-1.02-12.76-3.05C1.93,32.84.02,30.15.02,27.3s1.91-5.56,5.4-7.55c7.02-4.07,18.5-4.07,25.52,0,3.49,2,5.4,4.68,5.4,7.55s-1.91,5.54-5.4,7.54c-3.51,2.03-8.15,3.05-12.76,3.05Z"/>
      <path class="cls-3" d="M5.57,34.57c6.94,4.02,18.24,4.02,25.2.01,6.97-4.02,6.97-10.55,0-14.57-6.97-4.02-18.26-4.02-25.2,0-6.99,4.02-6.99,10.55,0,14.56Z"/>
      <path class="cls-2" d="M18.17,17.3c-4.51,0-9.01.99-12.47,2.97-3.27,1.89-5.06,4.38-5.06,7.02s1.78,5.13,5.06,7.01c6.89,3.96,18.05,3.96,24.92,0,3.27-1.89,5.08-4.38,5.08-7.01s-1.81-5.13-5.08-7.02c-3.43-1.98-7.94-2.97-12.44-2.97h0ZM18.17,37.89c-4.64,0-9.25-1.02-12.76-3.05C1.93,32.84.02,30.15.02,27.3s1.91-5.56,5.4-7.55c7.02-4.07,18.5-4.07,25.52,0,3.49,2,5.4,4.68,5.4,7.55s-1.91,5.54-5.4,7.54c-3.51,2.03-8.15,3.05-12.76,3.05Z"/>
      <path class="cls-1" d="M28.97,22.26c-2.99-1.62-6.89-2.43-10.79-2.43s-7.81.81-10.79,2.43c-2.99,1.62-4.48,3.74-4.48,5.86s1.49,4.25,4.48,5.87c2.99,1.62,6.89,2.43,10.79,2.43s7.81-.81,10.79-2.43c2.96-1.62,4.45-3.74,4.45-5.87s-1.49-4.24-4.45-5.86Z"/>
      <path class="cls-2" d="M18.17,20.14c-4.03,0-7.81.85-10.64,2.39-2.78,1.51-4.32,3.49-4.32,5.59s1.55,4.08,4.32,5.6c2.83,1.54,6.6,2.39,10.64,2.39s7.81-.85,10.64-2.39c2.78-1.51,4.3-3.49,4.3-5.6s-1.52-4.08-4.3-5.59h0c-2.83-1.54-6.63-2.39-10.64-2.39h0ZM18.17,36.72c-4.14,0-8.02-.88-10.93-2.47-3.01-1.63-4.64-3.8-4.64-6.14s1.62-4.5,4.64-6.13c2.91-1.59,6.79-2.47,10.93-2.47s7.99.88,10.93,2.47h0c2.99,1.62,4.64,3.8,4.64,6.13s-1.65,4.51-4.64,6.14c-2.93,1.59-6.81,2.47-10.93,2.47Z"/>
      <path class="cls-3" d="M28.97,21.06c2.96,1.72,4.45,3.97,4.45,6.23s-1.49,4.5-4.45,6.22c-2.99,1.72-6.89,2.58-10.79,2.58s-7.81-.86-10.79-2.58c-2.99-1.72-4.48-3.97-4.48-6.22s1.49-4.51,4.48-6.23c2.99-1.72,6.89-2.58,10.79-2.58s7.81.86,10.79,2.58h0ZM5.57,34.57c6.94,4.02,18.24,4.02,25.2.01,6.97-4.02,6.97-10.55,0-14.57-6.97-4.02-18.26-4.02-25.2,0-6.99,4.02-6.99,10.55,0,14.56h0Z"/>
      <path class="cls-2" d="M18.17,18.79c-4.03,0-7.81.9-10.64,2.54-2.78,1.61-4.32,3.72-4.32,5.96s1.55,4.35,4.32,5.96c2.83,1.63,6.6,2.54,10.64,2.54s7.78-.9,10.64-2.54c2.78-1.61,4.3-3.73,4.3-5.96s-1.52-4.36-4.3-5.96c-2.86-1.64-6.63-2.54-10.64-2.54h0ZM18.17,36.41c-4.14,0-8.02-.94-10.95-2.63-2.99-1.72-4.61-4.02-4.61-6.49s1.62-4.78,4.61-6.5c2.93-1.68,6.81-2.62,10.95-2.62h0c4.11,0,8.02.93,10.95,2.62,2.96,1.72,4.61,4.03,4.61,6.5s-1.65,4.77-4.61,6.49c-2.93,1.68-6.84,2.63-10.95,2.63h0ZM18.17,17.3c4.51,0,9.01.99,12.44,2.97,3.27,1.89,5.08,4.38,5.08,7.02s-1.81,5.13-5.08,7.01c-6.86,3.96-18.02,3.96-24.92,0-3.27-1.89-5.06-4.38-5.06-7.01s1.78-5.13,5.06-7.02c3.46-1.98,7.96-2.97,12.47-2.97h0ZM18.17,37.89c-4.64,0-9.25-1.02-12.76-3.05C1.93,32.84.02,30.15.02,27.3s1.91-5.56,5.4-7.55c7.02-4.07,18.5-4.07,25.52,0,3.49,2,5.4,4.68,5.4,7.55s-1.91,5.54-5.4,7.54c-3.51,2.03-8.15,3.05-12.76,3.05Z"/>
      <path class="cls-3" d="M20.79,1.61c1.57,3.56,10.69,22.7,10.87,24.86.03.18.03.36.03.52-.13,2.23-2.17,3.71-3.93,4.79-5.76,3.16-14.17,3.13-19.81-.3-1.54-1.04-3.22-2.29-3.43-4.3-.03-.16-.03-.3-.03-.47.05-1.5,9.69-22.04,11.06-25.1h5.24Z"/>
      <path class="cls-2" d="M15.76,1.91c-.31.7-.92,1.97-1.65,3.61-2.78,6.01-9.27,20.07-9.3,21.2,0,.16,0,.28.03.42.18,1.85,1.73,3.03,3.27,4.09,5.5,3.34,13.7,3.46,19.49.28,1.81-1.1,3.67-2.49,3.77-4.53v-.48c-.16-1.61-5.79-13.75-8.8-20.27-.89-1.91-1.6-3.46-1.99-4.32h-4.82ZM18.07,34.42c-3.67,0-7.34-.9-10.27-2.68-1.7-1.14-3.35-2.41-3.59-4.53-.03-.18-.03-.32-.03-.51.03-1.17,4.85-11.68,9.35-21.44.84-1.79,1.47-3.15,1.76-3.79.05-.12.16-.18.26-.18h5.24c.11,0,.21.07.26.18.37.82,1.13,2.44,2.07,4.49,4.4,9.49,8.7,18.89,8.86,20.47.03.19.03.38.03.56-.13,2.32-2.15,3.85-4.09,5.03-2.91,1.59-6.39,2.38-9.85,2.38Z"/>
      <path class="cls-4" d="M23.36,7.2c.76,1.66,1.62,3.51,2.49,5.4h-.11c.13,1.22-.6,2.46-2.2,3.38-2.99,1.72-7.78,1.72-10.77,0-1.6-.92-2.33-2.16-2.2-3.38v-.14c.84-1.83,1.65-3.62,2.38-5.21.13,2.11,3.43,2.82,4.77,2.88,1.47.07,2.99-.22,4.11-.87.76-.43,1.49-1.15,1.52-2.08Z"/>
      <path class="cls-2" d="M10.89,12.54v.07c-.13,1.17.6,2.3,2.04,3.12,2.88,1.66,7.57,1.66,10.45,0,1.44-.83,2.17-1.95,2.07-3.08-.03-.05,0-.1,0-.15-.68-1.51-1.39-3.01-2.02-4.38-.34.7-1,1.18-1.44,1.43-1.13.65-2.7.99-4.27.91-1.1-.05-3.98-.59-4.85-2.31-.63,1.38-1.31,2.86-1.99,4.38h0ZM18.17,17.58c-2.02,0-4.01-.45-5.55-1.32-1.65-.96-2.52-2.3-2.36-3.68v-.1c0-.05,0-.09.03-.13.84-1.83,1.65-3.62,2.41-5.22.05-.12.18-.2.31-.17s.24.15.26.29c.1,1.81,3.07,2.53,4.48,2.6,1.47.07,2.91-.23,3.93-.83.39-.23,1.34-.88,1.36-1.82,0-.15.1-.27.26-.3.13-.04.26.04.34.17.76,1.65,1.62,3.51,2.49,5.41.03.09.03.2-.03.29-.03.02-.03.04-.05.04.03,1.29-.81,2.54-2.36,3.44-1.55.87-3.54,1.32-5.53,1.32Z"/>
      <path class="cls-4" d="M27.58,16.43c1.02,2.23,1.94,4.36,2.67,6.09-.05,1.75-1.23,3.49-3.56,4.82-4.74,2.74-12.44,2.74-17.19,0-2.2-1.26-3.38-2.88-3.54-4.53.71-1.7,1.62-3.78,2.65-6,.05,1.35.97,2.69,2.75,3.72,3.72,2.14,9.75,2.14,13.47,0,1.94-1.13,2.86-2.63,2.75-4.1Z"/>
      <path class="cls-2" d="M6.28,22.86c.18,1.57,1.39,3.07,3.38,4.22,4.66,2.69,12.24,2.69,16.87,0,2.12-1.22,3.33-2.82,3.41-4.5-.55-1.31-1.26-2.94-2.18-4.98-.31,1.22-1.31,2.34-2.8,3.2-3.77,2.19-9.96,2.19-13.73,0-1.41-.81-2.36-1.84-2.75-2.97-.92,2.04-1.62,3.69-2.2,5.04h0ZM18.09,29.7c-3.17,0-6.34-.7-8.75-2.1-2.2-1.26-3.51-2.96-3.69-4.76,0-.05,0-.11.03-.15.65-1.55,1.52-3.51,2.65-6.01.05-.13.18-.21.34-.18.13.02.24.15.24.29.08,1.3,1,2.53,2.62,3.47,3.64,2.09,9.51,2.09,13.15,0,1.76-1.02,2.72-2.41,2.62-3.81-.03-.15.08-.29.24-.32.13-.03.29.03.34.18,1.15,2.55,2.02,4.54,2.67,6.09.03.04.03.09.03.13-.08,1.93-1.39,3.74-3.72,5.07-2.41,1.4-5.58,2.1-8.75,2.1Z"/>
      <path class="cls-5" d="M23.47,33.44L19.09,1.61h1.7c1.57,3.56,10.69,22.7,10.87,24.86.37,3.84-5.19,6.2-8.2,6.97Z"/>
      <path class="cls-2" d="M19.46,1.91l4.27,31.14c3.14-.87,7.96-3.13,7.65-6.55-.16-1.61-5.79-13.75-8.8-20.27-.89-1.91-1.6-3.46-1.99-4.32h-1.13ZM23.47,33.74c-.05,0-.11-.02-.16-.05-.08-.04-.13-.12-.13-.21L18.78,1.65c0-.09.03-.18.08-.24.05-.06.16-.1.24-.1h1.7c.11,0,.21.07.26.18.37.82,1.13,2.44,2.07,4.49,4.4,9.49,8.7,18.89,8.86,20.47.37,3.96-5.14,6.45-8.44,7.29-.03,0-.05,0-.08,0Z"/>
      <path class="cls-3" d="M16.31.76c1.02-.6,2.7-.6,3.72,0,1.02.59,1.02,1.56,0,2.16-1.02.59-2.7.59-3.72,0-1.05-.6-1.05-1.56,0-2.16Z"/>
      <path class="cls-2" d="M18.17.62c-.63,0-1.26.14-1.7.41h0c-.42.23-.63.51-.63.81s.21.58.63.81c.92.54,2.49.54,3.41,0,.39-.22.63-.51.63-.81s-.24-.58-.63-.81c-.45-.27-1.07-.41-1.7-.41h0ZM18.17,3.67c-.73,0-1.47-.16-2.02-.49-.6-.35-.94-.82-.94-1.35s.34-1,.94-1.35h0c1.13-.65,2.91-.65,4.03,0,.6.35.92.83.92,1.35s-.31,1-.92,1.35c-.58.32-1.28.49-2.02.49Z"/>
      <path class="cls-3" d="M21.21,16.91l-.97-6.99c1.2-.3,3.09-1.17,3.12-2.71.76,1.66,1.44,3.18,2.31,5.08l.08.32c.26,2.38-2.59,3.82-4.53,4.3Z"/>
      <path class="cls-2" d="M20.58,10.14l.86,6.39c1.73-.51,4.22-1.81,4.01-3.88l-.08-.28c-.39-.81-.73-1.58-1.07-2.33-.29-.65-.58-1.28-.86-1.91-.5,1-1.73,1.68-2.86,2.02h0ZM21.21,17.22c-.08,0-.13-.02-.18-.05-.08-.05-.13-.13-.13-.22l-.97-7c-.03-.16.08-.3.24-.35,1.31-.32,2.85-1.16,2.88-2.41,0-.15.1-.27.26-.3.13-.04.26.04.34.17.42.91.81,1.78,1.23,2.7.31.75.68,1.52,1.05,2.37l.11.37c.29,2.51-2.38,4.09-4.77,4.68-.03,0-.03.01-.05.01Z"/>
      <path class="cls-3" d="M22.84,28.84l-.97-7.15c2.41-.6,5.92-2.33,5.71-5.26,1.02,2.23,1.94,4.36,2.67,6.09-.13,3.54-4.4,5.59-7.42,6.32Z"/>
      <path class="cls-2" d="M22.21,21.91l.89,6.54c3.14-.84,6.68-2.84,6.84-5.88-.55-1.31-1.26-2.94-2.15-4.96-.6,2.21-3.2,3.66-5.58,4.3h0ZM22.84,29.16c-.05,0-.1-.02-.16-.05-.08-.05-.13-.13-.13-.22l-1-7.16c-.03-.16.08-.3.24-.34,2.12-.53,5.69-2.16,5.5-4.94-.03-.15.08-.29.24-.32.13-.03.29.03.34.18,1.15,2.55,2.02,4.54,2.67,6.09.03.04.03.09.03.13-.13,3.53-4.19,5.77-7.65,6.61-.03,0-.05.01-.08.01Z"/>
    </g>
  </g>
</svg>