<?xml version="1.0" encoding="UTF-8"?>
<svg id="Layer_2" data-name="Layer 2" xmlns="http://www.w3.org/2000/svg" viewBox="0 0 17.71 40.71" fill="currentColor">
  <defs>
    <style>
      .cls-1 {
        fill: #fff;
      }

      .cls-1, .cls-2, .cls-3, .cls-4 {
        fill-rule: evenodd;
      }

      .cls-2 {
        fill: #1a87c7;
      }

      .cls-3 {
        fill: #bdedf8;
      }

      .cls-4 {
        fill: #66ceef;
      }
    </style>
  </defs>
  <g id="_Layer_" data-name="&amp;lt;Layer&amp;gt;">
    <g>
      <path class="cls-3" d="M.31,13.65C.39,6.36,7.83-1.76,12.5.79l2.8,1.63C10.45-.12,3.22,8.21,3.14,15.28l.08,22.84c.18.9.55,1.47,1.26,1.97-1.1-.64-3.04-1.53-3.61-2.41-.42-.64-.55-1.45-.55-2.21V13.65Z"/>
      <path class="cls-2" d="M.6,13.65v21.83c.03.88.18,1.54.52,2.04.31.5,1.2,1.04,2.04,1.5-.1-.25-.18-.53-.24-.84l-.1-22.9c.05-4.68,3.2-10.2,7.18-12.59,1.15-.7,2.28-1.04,3.33-1.05l-1-.58c-1.68-.92-3.49-.24-4.74.48C4.22,3.52.68,8.59.6,13.65h0ZM4.48,40.4c-.05,0-.1,0-.16-.04-.24-.13-.5-.29-.79-.44-1.15-.61-2.44-1.31-2.93-2.05-.37-.6-.58-1.38-.6-2.38V13.65h0C.05,8.36,3.75,3.08,7.28,1.01c1.99-1.16,3.85-1.32,5.34-.49l2.83,1.63c.16.09.21.27.13.42-.08.15-.26.2-.42.12-1.76-.91-3.62-.22-4.85.53-3.75,2.24-6.84,7.65-6.89,12.06l.11,22.84c.16.76.47,1.27,1.13,1.72.13.09.18.28.08.42-.05.09-.16.14-.26.14Z"/>
      <path class="cls-4" d="M15.3,28.99l-2.83-1.63c-.31-.25-.34-.42-.37-.8V8.92c-1.31.02-2.44.89-3.3,1.77l2.65,1.52c.37.23.45.62.45,1.02v9.12l.03,9.69c-.08,1.49-.92,2.92-2.15,3.72l-2.02,1.16c-.52.28-.94.41-1.52.15l-2.83-1.63c.58.27,1,.13,1.52-.14l1.86-1.09c.24-.12.39-.22.58-.37.71-.62,1.1-1.22,1.47-2.09.18-.55.26-.9.26-1.48V11.6c-.03-.2-.03-.31-.08-.5-.05-.14-.13-.29-.24-.39-.26.26-.5.57-.73.86-1.07,1.57-1.7,3-1.78,4.92v16.7c.03.39.05.55.37.8l-2.83-1.62c-.31-.26-.31-.42-.37-.81V14.87c.08-1.57.47-2.64,1.2-4,1.07-1.75,3.38-4.42,5.74-3.32l1.73,1.01v-1.72c-.03-1.29-.29-2.27-1.36-3.01l2.83,1.63c1.07.69,1.34,1.81,1.36,3.02v19.71c.03.39.05.55.37.81Z"/>
      <path class="cls-2" d="M9.3,10.62l2.28,1.32c.08.05.16.1.21.16v-2.86c-.79.1-1.6.55-2.49,1.37h0ZM12.37,8.74s.05.11.05.18v17.64c.03.33.03.38.24.56l1.97,1.13V8.47c-.03-1.38-.39-2.24-1.23-2.76l-1.31-.75c.26.59.34,1.23.34,1.87v1.73c0,.07-.03.13-.05.18h0ZM9.22,7.59c.31,0,.66.07,1,.23l1.44.83c-1.31.19-2.36,1.11-3.07,1.82t-.03.02h0c-.26.26-.47.54-.68.82l-.08.1c-1.23,1.77-1.78,3.25-1.86,5.09v16.76l-1.96-1.13c-.18-.18-.21-.23-.24-.57V14.87c.05-1.57.47-2.61,1.15-3.85.39-.63,2.23-3.43,4.32-3.43h0ZM8.72,11.23c-.13.14-.24.29-.37.44l-.05.09c-1.15,1.66-1.65,3.03-1.73,4.75v16.68c.03.33.03.39.23.57.03.02.05.03.05.05.11-.07.21-.14.31-.22.63-.55,1.02-1.1,1.36-1.96.18-.53.24-.85.24-1.36V11.6c0-.15-.03-.24-.05-.37h0ZM4.61,35.77c.16-.06.31-.14.47-.22l1.86-1.08c.24-.13.39-.24.63-.42.71-.62,1.15-1.26,1.55-2.22.21-.61.29-1.01.29-1.58V11.59c-.03-.08-.03-.15-.03-.21l1.89,1.09c.24.14.31.37.34.76v18.8c-.08,1.36-.84,2.73-1.99,3.46l-2.02,1.15c-.47.25-.79.34-1.2.15l-1.78-1.03h0ZM6.84,37.52c-.24,0-.47-.05-.73-.18l-2.83-1.64c-.16-.09-.21-.26-.13-.41.08-.15.26-.21.39-.14.45.2.76.12,1.26-.14l1.49-.87-2.65-1.52c-.45-.36-.47-.63-.5-1.03V14.87c.05-1.71.5-2.82,1.2-4.15,1.47-2.39,3.85-4.54,6.16-3.45l1.28.76v-1.19c-.03-1.16-.24-2.07-1.23-2.76-.13-.09-.16-.28-.08-.42s.26-.18.42-.1l2.8,1.63c1.34.84,1.52,2.27,1.55,3.27v19.72c.03.34.03.39.24.57.13.1.16.29.05.42-.08.13-.26.17-.39.09l-2.83-1.63s-.08-.06-.11-.09v4.5c-.05,1.61-.94,3.12-2.28,3.98l-2.02,1.17c-.34.17-.68.33-1.07.33Z"/>
      <path class="cls-1" d="M17.4,26.76c0,.79-.55,1.75-1.23,2.15-.68.39-1.23.07-1.23-.72V8.46c0-1.47-.52-2.51-1.36-3.01-.71-.4-1.65-.43-2.67,0-.21.09-.42.19-.63.31-1.28.75-2.86,2.25-3.69,3.72-.84,1.46-1.36,3.11-1.36,4.59v21.83c0,.68.24,1.16.63,1.38.39.22.92.19,1.52-.15l.79-.47,1.62-.93c.45-.26,1.13-.93,1.49-1.6.39-.68.66-1.43.66-2.11l-.03-9.69v-9.12c0-.49-.16-.84-.45-1.02-.29-.16-.68-.15-1.13.11-.42.24-.81.67-1.1,1.18-.31.51-.47,1.06-.47,1.57v16.7c0,.78-.58,1.75-1.26,2.14-.68.4-1.23.08-1.23-.71v-16.7c0-1.29.47-2.72,1.2-4,.76-1.32,1.78-2.41,2.86-3.03,1.13-.64,2.15-.7,2.86-.28.79.44,1.2,1.38,1.2,2.63v18.82c0,1.47-.52,3.09-1.36,4.55-.84,1.44-1.96,2.7-3.25,3.44l-2.02,1.16c-1.28.74-2.44.8-3.28.32-.81-.48-1.34-1.52-1.34-2.99V15.28c0-2.28.79-4.8,2.1-7.03,1.28-2.24,3.07-4.2,5.03-5.34,1.96-1.13,3.75-1.23,5.03-.49,1.31.74,2.1,2.34,2.1,4.62v19.71Z"/>
      <path class="cls-2" d="M12.34,5.45c-.42,0-.86.09-1.31.3-.21.08-.39.18-.6.29-1.31.76-2.83,2.27-3.59,3.6-.86,1.49-1.31,3.06-1.31,4.44v21.83c0,.54.16.93.47,1.11.29.17.73.12,1.2-.15l2.41-1.39c.39-.24,1.02-.85,1.39-1.5.37-.64.6-1.35.6-1.95V13.23c0-.37-.13-.63-.31-.75-.21-.12-.5-.08-.81.1-.37.21-.73.6-1.02,1.07-.26.47-.42.98-.42,1.41v16.7c0,.9-.6,1.95-1.39,2.41-.42.25-.84.28-1.18.09-.34-.19-.52-.57-.52-1.07v-16.7c0-1.29.45-2.77,1.26-4.16.79-1.37,1.83-2.49,2.96-3.14,1.18-.68,2.31-.78,3.17-.29.68.4,1.13,1.11,1.28,2.06v-2.51c0-1.32-.42-2.29-1.21-2.74-.31-.18-.68-.27-1.07-.27h0ZM13.44,2.25c.63,0,1.2.15,1.7.43,1.26.72,1.94,2.27,1.94,4.36,0,0,0,.03.03.04v19.67c0,.68-.5,1.54-1.1,1.88-.21.13-.42.17-.55.09-.16-.08-.21-.27-.21-.54V8.46c0-1.54-.55-2.7-1.55-3.27-.79-.47-1.83-.47-2.93,0-.21.09-.42.2-.65.33-1.41.81-2.96,2.38-3.8,3.82-.92,1.57-1.41,3.26-1.41,4.75v21.83c0,.77.29,1.36.79,1.65.5.29,1.15.24,1.81-.14l2.44-1.4c.55-.32,1.23-1.04,1.62-1.71.42-.76.66-1.56.66-2.27V13.23c0-.6-.21-1.05-.63-1.29-.39-.23-.89-.19-1.42.1-.47.27-.89.73-1.23,1.3-.31.57-.5,1.17-.5,1.71v16.7c0,.68-.5,1.54-1.07,1.88-.24.13-.45.16-.58.09-.13-.08-.21-.28-.21-.54v-16.7c0-1.19.39-2.55,1.15-3.84.73-1.29,1.7-2.32,2.75-2.92.97-.57,1.89-.67,2.54-.28.68.38,1.05,1.22,1.05,2.36v18.82c0,1.36-.47,2.92-1.31,4.39-.84,1.46-1.96,2.64-3.14,3.33l-2.02,1.17c-1.13.66-2.17.76-2.96.32-.79-.44-1.2-1.41-1.2-2.72V15.28c0-2.15.73-4.59,2.07-6.88,1.31-2.3,3.07-4.14,4.92-5.21,1.07-.62,2.1-.93,3.01-.93h0ZM5.69,40.71c-.47,0-.94-.11-1.36-.36-.97-.55-1.49-1.71-1.49-3.25V15.28c0-2.25.76-4.81,2.12-7.19,1.39-2.39,3.22-4.32,5.16-5.44,2.02-1.16,3.9-1.33,5.34-.5,1.44.83,2.25,2.55,2.25,4.83v19.76c0,.9-.6,1.95-1.39,2.41-.42.25-.84.28-1.18.09-.24-.12-.37-.33-.45-.59v1.97c0,1.47-.5,3.14-1.41,4.69-.89,1.56-2.1,2.82-3.35,3.56l-2.02,1.17c-.79.45-1.52.67-2.23.67Z"/>
      <path class="cls-4" d="M3.33,13.28l-2.83-1.63c-.13.69-.18,1.3-.18,2.01v21.83c.05,1.28.23,2.21,1.36,2.98l2.8,1.63c-1.1-.76-1.28-1.7-1.34-2.99V15.28c0-.7.05-1.32.18-2.01Z"/>
      <path class="cls-2" d="M.73,12.13c-.08.48-.1.97-.13,1.53v21.83c.08,1.29.29,2.06,1.23,2.73l1.34.76c-.26-.58-.31-1.21-.34-1.85V15.28c0-.68.05-1.26.16-1.85l-2.25-1.3h0ZM4.48,40.4c-.05,0-.1,0-.16-.04l-2.8-1.63c-1.31-.9-1.47-2.05-1.52-3.24V13.65c.03-.76.08-1.39.18-2.06.03-.11.1-.18.18-.23.1-.04.21-.04.29.01l2.83,1.63c.11.06.18.19.16.32-.13.64-.18,1.23-.21,1.96v21.82c.08,1.29.29,2.07,1.23,2.74.13.09.18.28.08.42-.05.09-.16.14-.26.14Z"/>
    </g>
  </g>
</svg>