<?xml version="1.0" encoding="UTF-8"?>
<svg id="Layer_2" data-name="Layer 2" xmlns="http://www.w3.org/2000/svg" viewBox="0 0 14.51 41.41" fill="currentColor">
  <defs>
    <style>
      .cls-1 {
        fill: #fff;
      }

      .cls-1, .cls-2, .cls-3, .cls-4 {
        fill-rule: evenodd;
      }

      .cls-2 {
        fill: #1a87c7;
      }

      .cls-3 {
        fill: #bdedf8;
      }

      .cls-4 {
        fill: #66ceef;
      }
    </style>
  </defs>
  <g id="_Layer_" data-name="&amp;lt;Layer&amp;gt;">
    <g>
      <path class="cls-1" d="M1.95,14.99h10.33v16.26c0,13.05-10.33,13.14-10.33.18V14.99Z"/>
      <path class="cls-2" d="M2.26,15.3v16.14c0,6.42,2.49,9.35,4.81,9.35s4.89-3.27,4.89-9.53v-15.96H2.26ZM7.07,41.41c-2.61,0-5.43-3.12-5.43-9.97V14.99c0-.17.14-.31.31-.31h10.33c.17,0,.31.14.31.31v16.26c0,6.97-2.86,10.15-5.51,10.15Z"/>
      <polygon class="cls-3" points="2.99 32.45 11.24 32.45 11.24 25.7 2.99 25.65 2.99 32.45"/>
      <path class="cls-2" d="M3.29,32.14h7.64v-6.14l-7.64-.04v6.18h0ZM11.24,32.75H2.99c-.08,0-.16-.02-.22-.08-.06-.06-.09-.14-.09-.22v-6.8c0-.09.04-.17.09-.22.06-.06.13-.09.22-.09h0l8.25.06c.17,0,.31.14.31.3v6.74c0,.18-.14.3-.31.3Z"/>
      <path class="cls-3" d="M4.19,23.81c1.62-.93,4.23-.93,5.85,0,1.61.94,1.62,2.45,0,3.38-1.61.93-4.23.93-5.85,0-1.62-.93-1.61-2.44,0-3.38Z"/>
      <path class="cls-2" d="M7.12,23.41c-1,0-2.01.22-2.77.66-.68.39-1.06.89-1.06,1.43s.37,1.03,1.06,1.42c1.53.89,4.02.89,5.54,0,.68-.39,1.06-.9,1.06-1.42s-.37-1.03-1.06-1.43c-.76-.44-1.77-.66-2.77-.66h0ZM7.12,28.19c-1.11,0-2.23-.24-3.08-.73-.88-.51-1.37-1.21-1.37-1.96s.49-1.45,1.37-1.96c1.7-.98,4.46-.98,6.16,0,.88.51,1.37,1.2,1.37,1.96s-.48,1.44-1.37,1.96c-.85.49-1.97.73-3.08.73Z"/>
      <path class="cls-4" d="M11.24,32.45c-.47,9.85-7.78,9.91-8.25,0,0-3.32,8.25-3.35,8.25,0Z"/>
      <path class="cls-2" d="M7.12,30.25h0c-1.9,0-3.83.75-3.83,2.19.24,4.88,2.14,7.1,3.81,7.1s3.59-2.23,3.83-7.11c0-1.43-1.92-2.18-3.81-2.18h0ZM7.11,40.16c-2.02,0-4.17-2.38-4.43-7.7,0-1.95,2.31-2.82,4.45-2.82h0c2.13,0,4.42.88,4.42,2.81v.02c-.25,5.32-2.41,7.7-4.44,7.7Z"/>
      <path class="cls-4" d="M2.22,19.46l-.12-.07c-.51-.34-.91-.68-1.28-1.18-.31-.45-.47-.86-.51-1.41v-1.57c.03.55.2.96.51,1.41.36.5.76.84,1.28,1.18l.12.07c.78.46,1.55.75,2.42.96,1.05.23,2.04.32,3.11.29,1.16-.06,2.23-.24,3.32-.65.74-.29,1.37-.63,1.98-1.15.4-.36.67-.69.9-1.16.14-.33.22-.59.24-.95v1.57c-.06.88-.5,1.53-1.14,2.11-.61.51-1.24.85-1.98,1.14-1.1.41-2.16.59-3.32.65-1.07.04-2.06-.04-3.11-.29-.88-.21-1.64-.49-2.42-.96Z"/>
      <path class="cls-2" d="M2.38,19.2c.7.42,1.42.7,2.34.92.99.23,1.95.31,3.03.28,1.19-.06,2.22-.26,3.23-.63.79-.31,1.35-.63,1.88-1.08.63-.57.95-1.12,1.02-1.78-.17.23-.37.44-.62.67-.58.5-1.22.87-2.07,1.2-1.07.4-2.16.61-3.42.67-1.14.05-2.15-.05-3.2-.28-.98-.24-1.76-.55-2.51-.99l-.13-.08c-.57-.38-.97-.73-1.31-1.18.04.4.17.74.45,1.14.3.42.65.74,1.19,1.09l.11.07h0ZM7.28,21.02c-.94,0-1.81-.09-2.7-.3-.98-.24-1.76-.55-2.51-.99h0l-.12-.08c-.61-.4-1.01-.77-1.37-1.26-.36-.53-.53-1-.57-1.57v-1.59c0-.17.13-.3.3-.31.17-.03.31.12.32.29.03.47.15.83.45,1.26.31.42.65.74,1.19,1.1l.12.07c.69.42,1.41.7,2.33.92,1,.22,1.96.31,3.03.27,1.19-.05,2.22-.25,3.23-.63.77-.3,1.36-.64,1.88-1.09.4-.35.63-.65.83-1.05.13-.29.19-.53.21-.84.01-.17.15-.32.32-.29.17,0,.3.14.3.31v1.57c-.05.89-.45,1.62-1.24,2.34-.58.49-1.22.87-2.07,1.2-1.07.4-2.16.61-3.42.67-.17,0-.33,0-.49,0Z"/>
      <path class="cls-3" d="M7.25,19.14c-1.78,0-3.55-.39-4.91-1.17-1.36-.78-2.03-1.81-2.03-2.83s.68-2.06,2.03-2.84c1.36-.78,3.13-1.17,4.91-1.17s3.56.39,4.91,1.17c1.36.78,2.03,1.82,2.03,2.84s-.68,2.05-2.03,2.83c-1.35.78-3.13,1.17-4.91,1.17Z"/>
      <path class="cls-2" d="M7.25,11.43c-1.8,0-3.49.4-4.76,1.13-1.21.7-1.88,1.62-1.88,2.57s.67,1.87,1.88,2.57c1.27.73,2.96,1.13,4.76,1.13s3.49-.4,4.76-1.13c1.21-.7,1.88-1.61,1.88-2.57s-.67-1.87-1.88-2.57c-1.27-.73-2.96-1.13-4.76-1.13h0ZM7.25,19.44c-1.91,0-3.71-.42-5.06-1.22-1.41-.81-2.19-1.91-2.19-3.09s.78-2.29,2.19-3.1c1.36-.79,3.15-1.22,5.06-1.22s3.71.43,5.06,1.22c1.41.81,2.19,1.91,2.19,3.1s-.78,2.29-2.19,3.09c-1.35.79-3.15,1.22-5.06,1.22Z"/>
      <path class="cls-4" d="M13.07,6.07c-.07-3.2-2.69-5.77-5.91-5.77S1.33,2.88,1.25,6.07h0l.02,8.67c.07.82.65,1.62,1.72,2.24,2.3,1.33,6.05,1.33,8.36,0,1.08-.62,1.65-1.42,1.72-2.24V6.07s0,0,0,0Z"/>
      <path class="cls-2" d="M1.56,6.13l.02,8.61c.07.71.62,1.43,1.57,1.97,2.22,1.28,5.83,1.28,8.05,0,.95-.55,1.5-1.26,1.57-2V6.13s0-.03,0-.05c-.07-3.02-2.58-5.47-5.6-5.47S1.63,3.07,1.56,6.09c0,.02,0,.03,0,.05h0ZM7.17,18.28c-1.57,0-3.14-.34-4.33-1.04-1.13-.64-1.79-1.53-1.88-2.48l-.02-8.69s0-.04,0-.07C1.06,2.68,3.84,0,7.17,0s6.11,2.68,6.22,6.01c0,.03,0,.04,0,.07v8.67c-.09.97-.76,1.86-1.88,2.5-1.19.7-2.76,1.04-4.33,1.04Z"/>
      <path class="cls-3" d="M13.07,6.07c0-1.68-1.77-5.22-5.24-5.25-3.48-.03-5.08,2.27-5.08,5.08,0,4.21,0,6.74,0,10.93.07.05.15.1.23.15,2.3,1.33,6.05,1.33,8.36,0,1.08-.62,1.65-1.42,1.72-2.24V6.07Z"/>
      <path class="cls-2" d="M3.07,16.67s.05.03.08.04c2.22,1.28,5.83,1.28,8.05,0,.95-.55,1.5-1.26,1.57-2V6.07c0-1.66-1.75-4.91-4.94-4.94-1.49-.04-2.63.4-3.47,1.22-.85.84-1.3,2.07-1.3,3.55v10.77h0ZM7.17,18.28c-1.57,0-3.14-.34-4.33-1.04-.09-.04-.17-.09-.25-.15-.09-.06-.14-.16-.14-.26V5.9c0-1.64.51-3.03,1.48-3.98.94-.94,2.3-1.4,3.91-1.41,3.64.03,5.55,3.64,5.55,5.56h0v8.67c-.09.97-.75,1.86-1.88,2.5-1.19.7-2.76,1.04-4.33,1.04Z"/>
      <path class="cls-3" d="M6.65,36.86c.41,0,.75-.34.75-.76s-.34-.75-.75-.75-.75.34-.75.75.33.76.75.76Z"/>
      <path class="cls-2" d="M6.65,35.67c-.24,0-.44.19-.44.43s.2.44.44.44.44-.2.44-.44-.2-.43-.44-.43h0ZM6.65,37.17c-.58,0-1.06-.48-1.06-1.06s.47-1.05,1.06-1.05,1.06.47,1.06,1.05-.47,1.06-1.06,1.06Z"/>
      <path class="cls-3" d="M9.63,31.02c.39,0,.71-.31.71-.71s-.32-.71-.71-.71-.71.32-.71.71.32.71.71.71Z"/>
      <path class="cls-2" d="M9.63,29.91c-.23,0-.4.18-.4.4,0,.23.18.41.4.41s.4-.18.4-.41c0-.22-.18-.4-.4-.4h0ZM9.63,31.33c-.56,0-1.02-.46-1.02-1.03s.46-1.02,1.02-1.02,1.02.46,1.02,1.02-.46,1.03-1.02,1.03Z"/>
      <path class="cls-3" d="M5.83,26.08c.43,0,.78-.35.78-.77s-.35-.78-.78-.78-.78.36-.78.78.35.77.78.77Z"/>
      <path class="cls-2" d="M5.83,24.84c-.26,0-.47.21-.47.47s.21.47.47.47.47-.21.47-.47-.21-.47-.47-.47h0ZM5.83,26.4c-.6,0-1.08-.49-1.08-1.08s.49-1.09,1.08-1.09,1.08.49,1.08,1.09-.49,1.08-1.08,1.08Z"/>
      <path class="cls-3" d="M8.45,33.39c.16,0,.29-.13.29-.29,0-.17-.13-.3-.29-.3s-.29.13-.29.3c0,.16.13.29.29.29Z"/>
      <path class="cls-2" d="M8.45,33.08s-.02,0-.02.03l.02-.03h0ZM8.45,33.7c-.33,0-.6-.27-.6-.59s.27-.6.6-.6.6.27.6.6-.27.59-.6.59Z"/>
      <path class="cls-3" d="M4.68,29.26c.17,0,.31-.14.31-.31s-.14-.31-.31-.31-.31.14-.31.31.14.31.31.31Z"/>
      <path class="cls-2" d="M4.69,28.94h0s0,0,0,0h0ZM4.68,29.57c-.34,0-.62-.28-.62-.62s.28-.62.62-.62.62.28.62.62-.28.62-.62.62Z"/>
      <path class="cls-2" d="M2.99,25.95c-.17,0-.31-.14-.31-.3v-5.71c0-.18.14-.31.31-.31s.31.14.31.31v5.71c0,.17-.14.3-.31.3Z"/>
      <path class="cls-2" d="M11.24,26c-.17,0-.31-.13-.31-.3v-5.6c0-.16.14-.3.31-.3s.31.14.31.3v5.6c0,.18-.14.3-.31.3Z"/>
    </g>
  </g>
</svg>