<?xml version="1.0" encoding="UTF-8"?>
<svg id="Layer_2" data-name="Layer 2" xmlns="http://www.w3.org/2000/svg" viewBox="0 0 64.6 87.68" fill="currentColor">
  <defs>
    <style>
      .cls-1 {
        fill: #fff;
      }

      .cls-1, .cls-2, .cls-3 {
        fill-rule: evenodd;
      }

      .cls-2 {
        fill: #1a87c7;
      }

      .cls-3 {
        fill: #66ceef;
      }
    </style>
  </defs>
  <g id="_Layer_" data-name="&amp;lt;Layer&amp;gt;">
    <g>
      <path class="cls-3" d="M63.97,59.92v-9.02c.02-7.22-8.88-9.84-15.03-10.36-.52,1.06-1.05,2.12-1.6,3.15l-.17.33c1.6,3.83-4.05,9.42-9.92,11.61-4.31,1.6-8.92.97-13.11-.64-4.45-1.73-7.16-4.17-6.75-6.38-3.09,4-7.35,6.99-10.76,10.69-3.04,3.44-5.46,6.62-5.96,11.32-.09,2.69-.04,5.48-.04,8.18s.35,3.43,3.31,5.13c22.77,13.14,60.04-18.69,60.04-24Z"/>
      <path class="cls-2" d="M16.92,50.15c-1.62,1.87-3.48,3.55-5.29,5.18-1.55,1.41-3.14,2.85-4.55,4.38-2.76,3.11-5.3,6.31-5.79,10.97-.07,1.84-.07,3.82-.05,5.74,0,.8.02,1.58.02,2.38,0,2.47.19,2.98,2.99,4.59,12.68,7.32,29.33-.1,38.13-5.18,12.34-7.13,21-16.12,21-18.29v-9.02c0-7.7-10.91-9.39-14.06-9.7-.47.94-.94,1.88-1.43,2.78l-.03.07c.36,1.11.26,2.36-.31,3.72-1.43,3.28-5.57,6.74-10.07,8.43-4.03,1.49-8.59,1.28-13.56-.64-3.86-1.49-6.33-3.44-6.99-5.41h0ZM16.41,87.68c-4.4,0-8.78-.91-12.8-3.23C.6,82.71.02,81.8.02,78.8c0-.8,0-1.58-.02-2.38,0-1.91-.02-3.91.05-5.83.54-5.06,3.2-8.43,6.12-11.7,1.44-1.6,3.08-3.06,4.64-4.49,2.12-1.91,4.33-3.91,6.09-6.19.17-.23.48-.29.74-.19.26.12.4.4.35.68-.35,1.82,2.14,4.07,6.35,5.7,4.69,1.81,8.97,2.03,12.69.65,4.15-1.57,8.09-4.82,9.37-7.77.49-1.15.56-2.17.19-3.04-.07-.17-.05-.36.04-.52l.17-.33c.53-1.01,1.07-2.07,1.58-3.11.13-.25.37-.35.61-.35,7.55.64,15.61,3.86,15.61,10.97v9.02c-.02,3.11-9.65,12.45-21.61,19.35-6.29,3.63-16.5,8.42-26.58,8.42Z"/>
      <path class="cls-3" d="M63.97,59.92v-9.02c.02-6.52-7.27-9.29-13.19-10.16,2.15,2.61,1.53,6.95.02,9.72-4.57,8.34-15.07,12.27-24.13,10.26-4.57-1.03-10.78-3.65-13.13-7.98-2.31,2.19-4.78,4.24-6.92,6.55-3.04,3.44-5.46,6.62-5.96,11.32l-.02.85c-.02,2.44-.02,4.88-.02,7.34,0,2.69.35,3.43,3.31,5.13,22.77,13.14,60.04-18.69,60.04-24Z"/>
      <path class="cls-2" d="M13.41,53.71c-.58.54-1.17,1.08-1.76,1.62-1.55,1.39-3.17,2.85-4.57,4.38-2.76,3.11-5.3,6.31-5.79,10.97l-.03.8v7.32c0,2.47.19,2.98,2.99,4.59,12.68,7.32,29.33-.1,38.13-5.18,12.34-7.13,21-16.12,21-18.29v-9.02c0-6.22-7.11-8.5-11.33-9.32,1.34,2.76.77,6.52-.7,9.17-4.46,8.19-15.12,12.73-24.81,10.55-4.71-1.04-10.48-3.58-13.12-7.6h0ZM16.41,87.68c-4.4,0-8.78-.91-12.8-3.23C.6,82.71.02,81.8.02,78.8l.04-8.21c.54-5.07,3.2-8.43,6.12-11.7,1.44-1.6,3.08-3.06,4.64-4.49.79-.7,1.55-1.39,2.3-2.1.14-.14.33-.19.52-.18.19.04.36.16.45.31,2.21,4.05,8.01,6.62,12.73,7.67,9.14,2.05,19.23-2.23,23.45-9.95,1.44-2.64,1.94-6.71.04-9.02-.16-.19-.18-.47-.06-.69.13-.22.37-.35.63-.31,4.12.61,13.73,2.85,13.73,10.76v9.02c-.02,3.11-9.65,12.45-21.61,19.35-6.29,3.63-16.5,8.42-26.58,8.42Z"/>
      <path class="cls-1" d="M17.38,48.6c.47-.61,1.83-2,2.21-2.63.73-1.25.71-1.72.85-3.2,6.29,7.26,21.05,11.54,26.72,1.23h0c1.6,3.83-4.05,9.42-9.92,11.61-4.31,1.6-8.92.97-13.11-.64-4.45-1.73-7.16-4.17-6.75-6.38Z"/>
      <path class="cls-2" d="M17.98,48.87c-.2,1.79,2.28,3.94,6.36,5.54,4.69,1.81,8.97,2.03,12.69.65,4.15-1.57,8.09-4.82,9.37-7.77.23-.56.37-1.08.42-1.57-2.07,2.85-5.09,4.55-8.81,4.96-5.7.61-12.68-2.09-17.09-6.49-.11.68-.28,1.22-.8,2.11-.26.45-.87,1.13-1.48,1.81-.26.28-.49.56-.66.77h0ZM31.9,57.19c-2.52,0-5.19-.56-7.99-1.63-4.94-1.91-7.6-4.57-7.11-7.07.02-.09.05-.19.11-.26.19-.23.48-.58.81-.94.5-.58,1.15-1.27,1.34-1.62.59-.99.62-1.4.74-2.5l.04-.44c.04-.24.19-.45.43-.52.23-.09.49,0,.64.17,4.07,4.7,11.18,7.67,16.97,7.06,3.88-.4,6.9-2.38,8.75-5.74.1-.19.26-.29.53-.31.25,0,.46.14.56.35.5,1.22.43,2.56-.19,4.03-1.43,3.28-5.57,6.74-10.07,8.43-1.76.66-3.62.99-5.56.99Z"/>
      <path class="cls-1" d="M50.21,57.84c2.69-2.59,4.88-7.3,6.97-11.6,2.87-5.86,2.73-12.55,2.77-17.94.28-4.22.17-9.12-.4-13.14-2.54-17.3-30.39-20.34-42.08-1.44-4.75,8.69-1.78,32.45,6.41,37.62l.12-.37c5.13,5.82,12.6,9.8,18.53,9.79,2.65,0,5.75-1.08,7.69-2.92Z"/>
      <path class="cls-2" d="M50.21,57.84h.02-.02ZM23.99,50.34c.17,0,.35.08.47.2,5.06,5.74,12.31,9.6,18.05,9.6h.02c2.63,0,5.55-1.11,7.27-2.77,2.44-2.33,4.47-6.52,6.44-10.55l.41-.85c2.63-5.41,2.66-11.7,2.68-16.74v-.94c.3-4.57.16-9.3-.4-13.04-.97-6.78-6.12-11.77-13.73-13.35C36.49.1,24.7,3.16,17.98,14.05c-4.48,8.21-1.77,30.75,5.69,36.4.07-.03.14-.07.21-.08.04,0,.08-.02.12-.02h0ZM42.5,61.38c-5.87,0-13.23-3.77-18.48-9.45-.18.05-.35.02-.49-.07-8.47-5.33-11.54-29.43-6.64-38.44C23.98,2.02,36.32-1.18,45.43.71c8.15,1.69,13.64,7.06,14.72,14.36.56,3.83.7,8.66.4,13.27v.9c-.02,5.18-.05,11.63-2.82,17.28l-.41.85c-2,4.14-4.09,8.42-6.68,10.9h0c-1.96,1.9-5.15,3.11-8.12,3.11h-.02Z"/>
      <path class="cls-1" d="M60.06,25.64c2.07-6.59,2.64-27.95-17.07-24.68h-.07c8.27.89,15.4,5.91,16.62,14.2.46,3.2.61,6.95.52,10.48Z"/>
      <path class="cls-2" d="M47.42,1.23c6.94,2.12,11.75,7.23,12.72,13.83.11.77.19,1.58.28,2.42-.07-4.21-1.05-8.96-3.91-12.28-2.19-2.52-5.23-3.86-9.09-3.98h0ZM60.06,26.25h-.11c-.31-.05-.52-.33-.52-.63.1-3.72-.08-7.4-.52-10.36-1.08-7.39-7.37-12.76-16.06-13.7-.34-.04-.56-.32-.56-.63.02-.33.28-.59.59-.59,6.41-1.06,11.3.31,14.57,4.07,5.46,6.29,4.47,17.33,3.18,21.4-.07.26-.31.44-.57.44Z"/>
      <path class="cls-1" d="M23.87,51.33c.17-.44.71-2.16.41-2.71-.76-1.4-1.67-3.3-2.03-4.94-1.79-7.82,7.55-11.51,9.18.04,1.39-4.87,1.2-10.19,1.42-12.47C34.72,12.34,15.51,1.81,10.44,19.62c-2.4,8.47,5.3,26.49,13.43,31.71Z"/>
      <path class="cls-2" d="M19.75,11.09c-3.95,0-7.15,3.14-8.73,8.71-2.26,7.98,4.76,24.93,12.52,30.56.16-.62.26-1.27.19-1.46-1.07-2.02-1.77-3.72-2.09-5.08-.62-2.78.04-5.45,1.76-6.95,1.2-1.06,2.76-1.37,4.21-.85,1.06.4,2.8,1.55,3.84,4.88.49-2.75.59-5.48.66-7.44.05-.9.07-1.68.14-2.27,1.06-10.83-4.88-18.79-11.02-19.96-.51-.08-1-.14-1.48-.14h0ZM23.87,51.94c-.12,0-.22-.04-.33-.09-8.33-5.33-16.13-23.79-13.7-32.4,1.96-6.92,6.32-10.45,11.63-9.44,6.65,1.27,13.14,9.77,11.99,21.29-.05.58-.09,1.32-.12,2.21-.11,2.66-.26,6.66-1.32,10.38-.09.28-.35.49-.65.45-.28-.02-.52-.24-.56-.54-.51-3.54-1.84-5.96-3.65-6.64-1.01-.37-2.09-.14-2.96.62-1.07.94-2.02,2.96-1.37,5.76.28,1.25.96,2.84,1.98,4.78.49.92-.35,3.13-.38,3.23-.07.16-.2.29-.38.37-.07.02-.12.02-.19.02Z"/>
      <path class="cls-1" d="M37.95,58.75c2.56-1.48,9.63-4.83,11.77-8.59,2.12,1.29,9.21-3.53,11.77-4.99-1.57-3.86-9.71-2.66-11.77.97-2.07-1.25-10.2,6.94-11.77,12.6Z"/>
      <path class="cls-2" d="M49.2,46.64c-.14,0-.36.04-.66.16-2.52,1.01-7.51,6.17-9.45,10.62.02,0,.03-.02.05-.02,3.13-1.7,8.35-4.52,10.05-7.52.08-.14.23-.26.38-.29.16-.04.33-.02.47.07,1.48.89,7.19-2.61,9.65-4.1.36-.23.69-.42.99-.61-.78-1.16-2.36-1.44-3.3-1.51-2.89-.19-6.07,1.18-7.11,3.03-.09.15-.23.26-.38.29-.17.05-.33.02-.47-.07-.05-.02-.11-.04-.21-.04h0ZM37.95,59.36c-.14,0-.28-.03-.38-.12-.19-.16-.28-.41-.21-.66,1.34-4.83,7.37-11.6,10.73-12.93.52-.21.98-.28,1.37-.22,1.6-2.24,5.24-3.39,7.98-3.22,2.29.14,3.96,1.15,4.62,2.73.11.29,0,.62-.28.76-.38.24-.89.54-1.46.89-4.24,2.59-8.23,4.85-10.36,4.34-2.09,3.13-7.14,5.88-10.24,7.54-.57.31-1.07.58-1.48.8-.08.07-.19.08-.29.08Z"/>
      <path class="cls-2" d="M37.06,31.6c-.19,0-.4-.08-.51-.26-.19-.3-.12-.68.16-.85,7.58-5.09,14.49-8.69,21.12-11.02.33-.1.68.07.8.38.1.33-.07.68-.38.78-6.54,2.3-13.35,5.84-20.84,10.86-.11.07-.23.1-.35.1Z"/>
      <path class="cls-2" d="M37.01,27.85c-.21,0-.42-.1-.52-.3-.19-.29-.11-.68.19-.85,7.14-4.4,13.61-7.76,19.75-10.28.31-.12.66.02.8.33.12.31-.02.68-.33.8-6.08,2.5-12.48,5.84-19.57,10.2-.09.05-.21.09-.31.09Z"/>
      <path class="cls-2" d="M37.37,24.32c-.21,0-.4-.11-.52-.28-.17-.29-.1-.68.19-.87,6.26-4.07,12.05-7.07,17.65-9.2.31-.11.67.05.8.37.12.31-.05.68-.36.8-5.53,2.09-11.21,5.06-17.42,9.07-.1.07-.21.11-.33.11Z"/>
      <path class="cls-2" d="M50.43,32.12v4.66c0,.71.22,1.25.61,1.46.38.23.96.14,1.57-.21l6.52-3.77c.45-.24.89-.71,1.22-1.27,0-.02.02-.04.02-.04.33-.59.52-1.22.52-1.74v-4.97c0-.05,0-.11-.02-.16-.05.03-.1.07-.15.08l-10.28,5.95h0ZM48.02,33.51l-9.79,5.65c-.58.34-.66.4-.66,1.17v5.07c0,.38.11.68.29.8.19.1.5.05.85-.14l6.52-3.77c.71-.42,1.44-1.18,1.97-2.09.52-.91.82-1.91.82-2.75v-3.95h0ZM38.11,47.49c-.31,0-.59-.08-.85-.23-.59-.32-.92-1.02-.92-1.86v-4.99c0-1.37.4-1.81,1.27-2.31l10.73-6.19c.19-.12.41-.12.61,0,.12.05.2.16.26.28v-.44c0-.23.13-.41.31-.54l10.58-6.1c.49-.28.94-.54,1.41-.29.43.23.56.74.61,1.25v5.15c0,.73-.23,1.55-.66,2.32-.02,0-.02.02-.02.03-.45.77-1.04,1.39-1.69,1.78l-6.53,3.75c-1.01.59-2.02.68-2.8.23-.63-.36-1.03-1.02-1.17-1.88v.02c0,1.06-.35,2.26-.99,3.36-.64,1.11-1.49,2.01-2.41,2.54l-6.52,3.77c-.41.24-.83.36-1.22.36Z"/>
      <path class="cls-2" d="M36.58,39.72c-.09,0-.16-.02-.25-.05l-9.04-3.98c-.35-.14-.69-.17-.88-.07-.07.03-.17.1-.23.31l-.12.57c-.07.33-.4.54-.73.49-.33-.09-.56-.42-.47-.75l.12-.57c.13-.52.42-.94.87-1.15.54-.28,1.25-.26,1.93.05l9.04,3.96c.31.14.47.5.33.82-.1.22-.33.37-.57.37Z"/>
      <path class="cls-2" d="M48.64,33.06c-.23,0-.41-.12-.54-.31-.17-.3-.07-.68.23-.84l1.18-.7c.3-.15.66-.07.83.23.18.29.07.68-.22.85l-1.18.68c-.09.05-.19.09-.3.09Z"/>
    </g>
  </g>
</svg>