<?xml version="1.0" encoding="UTF-8"?>
<svg id="Layer_2" data-name="Layer 2" xmlns="http://www.w3.org/2000/svg" viewBox="0 0 38.26 39.78" fill="currentColor">
  <defs>
    <style>
      .cls-1 {
        fill: #fff;
      }

      .cls-1, .cls-2, .cls-3, .cls-4 {
        fill-rule: evenodd;
      }

      .cls-2 {
        fill: #1a87c7;
      }

      .cls-3 {
        fill: #bdedf8;
      }

      .cls-4 {
        fill: #66ceef;
      }
    </style>
  </defs>
  <g id="_Layer_" data-name="&amp;lt;Layer&amp;gt;">
    <g>
      <path class="cls-1" d="M10.11,39.16l25.56-14.76c1.26-.72,2.28-2.5,2.28-3.95V6.27c0-1.45-1.02-2.04-2.28-1.32l-25.56,14.76c-1.25.72-2.28,2.5-2.28,3.95v14.19c0,1.45,1.02,2.04,2.28,1.32Z"/>
      <path class="cls-2" d="M10.11,39.16h0,0ZM36.68,4.95c-.26,0-.55.09-.86.27l-25.56,14.76c-1.15.66-2.12,2.35-2.12,3.68v14.19c0,.59.18,1.01.51,1.21.33.19.79.14,1.3-.15l25.56-14.76c1.15-.66,2.12-2.35,2.12-3.68V6.27c0-.59-.18-1.01-.52-1.2-.13-.08-.28-.11-.44-.11h0ZM9.1,39.78c-.27,0-.52-.07-.75-.2-.53-.31-.82-.92-.82-1.74v-14.19c0-1.55,1.09-3.44,2.43-4.21l25.56-14.76c.7-.41,1.39-.46,1.92-.16.53.31.82.93.82,1.74v14.19c0,1.55-1.09,3.44-2.43,4.21l-25.56,14.76h0c-.4.23-.8.35-1.17.35Z"/>
      <path class="cls-3" d="M20.45,28.06c-1.02-.45-1.69-1.75-1.69-3.65s.67-3.96,1.69-5.6v9.25Z"/>
      <path class="cls-2" d="M20.15,20.01c-.68,1.41-1.07,2.99-1.07,4.4s.39,2.53,1.07,3.1v-7.5h0ZM20.45,28.37s-.08-.01-.13-.03c-1.19-.53-1.87-1.96-1.87-3.93s.65-4.03,1.73-5.76c.07-.12.21-.17.35-.13.13.04.22.16.22.3v9.25c0,.1-.05.2-.14.26-.05.03-.11.05-.17.05Z"/>
      <path class="cls-3" d="M25.33,13.31c1.76.33,2.97,2.4,2.97,5.59s-1.21,6.66-2.97,9.02v.52c3.49-2.01,6.97-4.02,10.45-6.03.42-.24.76-.88.76-1.4V7.27c0-.53-.34-.76-.76-.52-3.48,2.01-6.97,4.02-10.45,6.04v.52Z"/>
      <path class="cls-2" d="M25.64,13.07c1.84.51,2.97,2.71,2.97,5.83s-1.08,6.44-2.83,8.93l9.85-5.69c.33-.19.61-.72.61-1.13V7.27c0-.17-.05-.27-.1-.3-.04-.02-.12,0-.21.04l-10.3,5.95v.1h0ZM25.33,28.76c-.06,0-.11-.01-.15-.04-.1-.05-.15-.16-.15-.27v-.52c0-.07.02-.13.06-.18,1.8-2.41,2.91-5.8,2.91-8.84s-1.04-4.97-2.72-5.29c-.14-.03-.25-.16-.25-.3v-.52c0-.11.06-.21.15-.27l10.45-6.03c.29-.17.59-.18.82-.05.26.15.4.45.4.83v13.74c0,.64-.4,1.37-.92,1.67l-10.45,6.04s-.1.04-.15.04Z"/>
      <path class="cls-3" d="M25.33,25.24c1.02-1.63,1.69-3.7,1.69-5.6s-.66-3.2-1.69-3.65v9.25Z"/>
      <path class="cls-2" d="M25.64,16.55v7.5c.68-1.42,1.07-2.99,1.07-4.4s-.39-2.53-1.07-3.1h0ZM25.33,25.55s-.06,0-.09-.01c-.13-.04-.22-.16-.22-.3v-9.25c0-.1.05-.2.14-.26.09-.06.2-.07.29-.02,1.19.52,1.87,1.96,1.87,3.93s-.63,4-1.73,5.76c-.06.09-.16.14-.26.14Z"/>
      <path class="cls-3" d="M20.45,16.12c-1.76,2.37-2.97,5.83-2.97,9.03s1.21,5.26,2.97,5.59v.52c-3.48,2.01-6.97,4.02-10.45,6.04-.42.24-.76.01-.76-.52v-13.74c0-.53.34-1.16.76-1.4,3.49-2.01,6.97-4.02,10.45-6.04v.52Z"/>
      <path class="cls-2" d="M20.45,16.12h0,0ZM20.01,16.22l-9.85,5.69c-.32.19-.61.72-.61,1.14v13.74c0,.17.05.27.09.3.04.03.12,0,.21-.04l10.3-5.95v-.1c-1.84-.51-2.97-2.71-2.97-5.83s1.08-6.44,2.83-8.93h0ZM9.68,37.7c-.13,0-.24-.03-.35-.09-.26-.15-.4-.45-.4-.83v-13.74c0-.64.41-1.37.92-1.67l10.45-6.03c.09-.06.21-.06.31,0,.1.05.15.16.15.27v.52c0,.07-.02.13-.06.18-1.8,2.41-2.91,5.8-2.91,8.84s1.04,4.97,2.73,5.29c.14.03.25.15.25.3v.52c0,.11-.06.22-.15.27l-10.45,6.04c-.16.09-.32.14-.47.14Z"/>
      <path class="cls-1" d="M33.91,14.26c.71-.41,1.28-.09,1.28.7s-.57,1.78-1.28,2.19c-.7.41-1.28.09-1.28-.71s.57-1.78,1.28-2.18Z"/>
      <path class="cls-2" d="M33.91,14.26h0,0ZM34.48,14.39c-.12,0-.27.05-.42.14h0c-.61.35-1.12,1.23-1.12,1.92,0,.26.08.46.21.53.14.08.36.05.6-.09.61-.35,1.12-1.23,1.12-1.92,0-.26-.08-.46-.21-.53-.05-.03-.11-.04-.18-.04h0ZM33.33,17.64c-.18,0-.34-.04-.49-.13-.34-.19-.52-.57-.52-1.07,0-.91.63-1.99,1.43-2.45h0c.45-.26.88-.29,1.22-.09.34.19.52.57.52,1.07,0,.91-.63,1.99-1.43,2.45-.25.15-.5.22-.73.22Z"/>
      <path class="cls-1" d="M11.88,26.98c-.7.41-1.28,1.38-1.28,2.18s.57,1.12,1.28.71c.71-.41,1.28-1.39,1.28-2.18s-.57-1.12-1.28-.71Z"/>
      <path class="cls-2" d="M12.03,27.24c-.61.35-1.12,1.23-1.12,1.92,0,.26.08.46.21.53.14.08.36.05.61-.09.61-.35,1.12-1.23,1.12-1.92,0-.26-.08-.46-.21-.53-.14-.08-.36-.05-.61.09h0ZM11.3,30.35c-.18,0-.34-.04-.49-.13-.34-.19-.52-.57-.52-1.07,0-.91.63-1.99,1.43-2.45h0c.45-.26.88-.29,1.22-.09.33.19.52.57.52,1.07,0,.91-.63,1.99-1.43,2.45-.25.15-.5.22-.73.22Z"/>
      <polygon class="cls-1" points="25.9 10.6 19.89 14.07 19.89 33.52 25.9 30.05 25.9 10.6"/>
      <path class="cls-2" d="M20.2,14.24v18.74l5.39-3.11V11.13l-5.39,3.12h0ZM19.89,33.83c-.05,0-.1-.02-.15-.04-.1-.05-.15-.15-.15-.27V14.07c0-.11.06-.21.15-.26l6.01-3.47c.09-.06.21-.06.31,0,.09.06.15.16.15.27v19.45c0,.11-.06.21-.15.27l-6.01,3.47s-.1.04-.15.04Z"/>
      <polygon class="cls-3" points="21.01 13.41 21.63 13.06 22.24 12.71 22.24 32.16 21.63 32.51 21.01 32.87 21.01 13.41"/>
      <path class="cls-2" d="M21.32,13.59v18.74l.61-.35V13.24l-.61.35h0ZM21.01,33.18c-.05,0-.11-.02-.15-.04-.1-.05-.15-.16-.15-.27V13.41c0-.11.06-.21.15-.26l1.22-.7c.09-.06.21-.06.31,0,.09.05.16.16.16.27v19.45c0,.11-.06.21-.16.27l-1.22.7s-.1.04-.15.04Z"/>
      <polygon class="cls-3" points="24.16 11.6 23.55 11.95 23.55 31.4 24.16 31.05 24.77 30.7 24.77 11.25 24.16 11.6"/>
      <path class="cls-2" d="M24.16,11.6h0,0ZM23.86,12.13v18.74l.61-.35V11.78l-.15.08h0l-.46.27h0ZM23.55,31.71c-.05,0-.11-.01-.15-.04-.09-.06-.15-.16-.15-.27V11.95c0-.11.06-.21.15-.26l1.22-.71c.09-.06.21-.06.31,0,.1.06.16.16.16.27v19.45c0,.11-.06.21-.16.27l-1.22.71c-.05.03-.1.04-.16.04Z"/>
      <path class="cls-3" d="M29.61.38c-.49-.18-1.02,0-1.45.24L2.61,15.37c-1.27.75-2.26,2.46-2.28,3.94,0,1.58-.06,14.16.05,14.69.08.41.27.74.62.97l7.51,4.34c-.53-.36-.66-.84-.67-1.47v-14.19c.02-1.48,1-3.19,2.28-3.95l25.56-14.76c.55-.3,1.03-.43,1.61-.16L29.61.38Z"/>
      <path class="cls-2" d="M29.19.62c-.25,0-.55.09-.88.27L2.76,15.64c-1.18.69-2.11,2.31-2.13,3.68-.02,3.57-.05,14.09.04,14.63.07.36.23.61.48.77l6.42,3.71c-.04-.19-.06-.39-.06-.58v-14.2c.02-1.59,1.06-3.4,2.43-4.21l25.56-14.76c.17-.09.34-.18.53-.24l-6.57-3.78c-.09-.03-.19-.04-.3-.04h0ZM8.5,39.63c-.06,0-.11-.01-.15-.04l-7.51-4.34c-.41-.26-.66-.65-.77-1.18-.12-.62-.06-14.61-.05-14.76.02-1.59,1.06-3.4,2.43-4.21L28.01.35c.65-.35,1.22-.44,1.71-.26.02,0,.03.01.04.02l7.67,4.41c.15.08.2.26.12.41-.08.15-.25.21-.4.14-.42-.2-.78-.15-1.33.15l-25.55,14.75c-1.17.69-2.11,2.31-2.12,3.68v14.19c.01.63.16.96.53,1.22.14.09.18.28.09.42-.06.09-.16.14-.26.14Z"/>
      <path class="cls-4" d="M1.07,16.95c-.43.72-.73,1.52-.74,2.37v14.19c.01.58.14,1.14.67,1.47l7.51,4.34c-.53-.36-.66-.85-.67-1.47v-14.19c.01-.86.31-1.64.74-2.37l-7.51-4.34Z"/>
      <path class="cls-2" d="M1.19,17.37c-.36.68-.54,1.32-.55,1.95v14.19c.01.62.17.99.52,1.21l6.42,3.71c-.04-.19-.06-.39-.06-.58v-14.2c0-.74.21-1.48.63-2.26l-6.97-4.03h0ZM8.5,39.63c-.06,0-.11-.01-.15-.04l-7.51-4.34c-.71-.45-.81-1.2-.82-1.73v-14.2c0-.83.26-1.65.78-2.53.09-.14.27-.19.42-.11l7.51,4.34c.07.04.13.11.14.19.02.08.01.16-.03.24-.46.78-.69,1.5-.7,2.21v14.19c.01.63.16.96.53,1.22.14.09.18.28.09.42-.06.09-.16.14-.26.14Z"/>
      <path class="cls-2" d="M3.89,36.96c-.06,0-.12-.02-.17-.06-.68-.47-.79-1.13-.8-1.72v-14.2c.02-1.59,1.06-3.4,2.43-4.21L30.9,2.02c.65-.35,1.22-.44,1.71-.25l.18.09c.15.07.22.25.15.41-.07.15-.26.22-.41.15l-.16-.08c-.29-.11-.69-.04-1.17.22L5.65,17.31c-1.17.7-2.11,2.32-2.12,3.68v14.19c.01.63.16.96.54,1.22.14.1.17.29.08.43-.06.09-.16.13-.25.13Z"/>
      <path class="cls-2" d="M6.86,38.68c-.06,0-.12-.02-.18-.06-.68-.47-.79-1.13-.8-1.72v-14.2c.02-.66.16-1.26.48-1.96.13-.26.25-.48.4-.71.13-.19.24-.35.38-.52.27-.31.5-.53.79-.76.13-.1.25-.17.38-.25L33.87,3.74c.52-.29,1.15-.52,1.9-.17.15.07.22.25.15.41-.07.15-.26.22-.41.15-.42-.2-.77-.15-1.33.15l-25.55,14.75c-.11.07-.21.14-.32.21-.25.2-.45.39-.68.66-.12.15-.23.3-.34.47-.13.21-.24.41-.36.64-.28.62-.41,1.13-.42,1.71v14.18c.01.63.16.96.54,1.22.14.1.17.29.08.43-.06.09-.15.13-.25.13Z"/>
      <path class="cls-2" d="M5.36,37.82c-.06,0-.12-.02-.18-.06-.68-.47-.79-1.14-.8-1.72v-14.2c0-.42.06-.76.19-1.21.12-.38.25-.69.44-1.04.14-.25.28-.46.43-.69.44-.58.84-.95,1.36-1.27L32.37,2.88c.49-.27,1.14-.52,1.89-.17.16.07.22.26.15.41-.07.15-.26.22-.41.15-.41-.19-.78-.15-1.33.15L7.12,18.17c-.45.27-.79.59-1.18,1.11-.14.2-.26.39-.39.62-.17.31-.28.59-.39.93-.11.39-.16.68-.17,1.04v14.18c.01.63.16.96.54,1.22.14.1.17.29.08.43-.06.09-.16.13-.25.13Z"/>
      <path class="cls-2" d="M2.37,36.08c-.06,0-.12-.02-.17-.06-.68-.47-.79-1.13-.8-1.72v-14.2c0-.42.06-.77.19-1.21.12-.38.25-.69.44-1.04.14-.25.27-.46.44-.69.44-.58.83-.95,1.36-1.27L29.39,1.14c.49-.27,1.14-.53,1.9-.17.15.07.22.26.15.41-.07.15-.25.22-.41.15-.41-.19-.78-.15-1.33.15L4.14,16.43c-.45.27-.79.59-1.18,1.1-.14.2-.26.4-.39.62-.17.31-.28.59-.39.93-.11.38-.15.68-.16,1.04v14.18c.01.63.16.96.54,1.22.14.1.17.29.08.43-.06.09-.15.13-.25.13Z"/>
      <path class="cls-3" d="M25.9,10.6l-7.51-4.34c-3.48,2.01-2.84,1.64-6.33,3.65l7.51,4.34c3.48-2.01,2.84-1.64,6.33-3.65Z"/>
      <path class="cls-2" d="M12.68,9.91l6.89,3.98,5.71-3.3-6.89-3.98-5.71,3.3h0ZM19.57,14.56c-.06,0-.11-.01-.16-.04l-7.51-4.34c-.1-.05-.15-.15-.15-.27s.06-.21.15-.26l6.33-3.66c.09-.05.21-.05.31,0l7.51,4.34c.09.06.15.16.15.27s-.06.21-.15.27l-6.33,3.65s-.1.04-.15.04Z"/>
      <path class="cls-2" d="M10.51,23.48c-.11,0-.21-.05-.27-.15-.09-.15-.04-.34.11-.42l3.09-1.79c.14-.09.33-.04.42.11.09.15.03.34-.11.42l-3.09,1.79s-.1.04-.15.04Z"/>
      <path class="cls-2" d="M10.51,35.55c-.11,0-.21-.06-.27-.15-.09-.15-.04-.34.11-.42l3.09-1.79c.14-.08.33-.04.42.11.09.15.03.34-.11.42l-3.09,1.78s-.1.04-.15.04Z"/>
      <path class="cls-2" d="M32.18,23.04c-.11,0-.21-.05-.27-.15-.08-.15-.03-.33.11-.42l3.1-1.79c.14-.08.33-.04.42.11.08.15.03.34-.12.42l-3.09,1.79c-.05.03-.1.04-.16.04Z"/>
      <path class="cls-2" d="M32.18,10.97c-.11,0-.21-.05-.27-.15-.08-.15-.03-.33.11-.42l3.1-1.79c.14-.09.33-.04.42.11.08.15.03.34-.12.42l-3.09,1.79c-.05.03-.1.04-.16.04Z"/>
      <polygon class="cls-4" points="21.01 13.41 21.63 13.06 22.24 12.71 14.73 8.37 14.12 8.73 13.51 9.08 21.01 13.41"/>
      <path class="cls-2" d="M14.12,9.08l6.89,3.98.61-.35-6.89-3.98-.61.35h0ZM21.01,13.72c-.05,0-.11-.01-.15-.04l-7.51-4.33c-.1-.06-.16-.16-.16-.27s.06-.21.16-.27l1.22-.71c.1-.06.22-.06.31,0l7.51,4.34c.09.05.16.15.16.26s-.06.21-.16.27l-1.22.7s-.1.04-.15.04Z"/>
      <polygon class="cls-4" points="24.16 11.6 23.55 11.95 16.04 7.62 16.65 7.26 17.26 6.91 24.77 11.25 24.16 11.6"/>
      <path class="cls-2" d="M16.66,7.62l6.89,3.98.61-.35-6.89-3.98-.61.35h0ZM24.16,11.6h0,0ZM23.55,12.26c-.05,0-.11-.01-.15-.04l-7.51-4.33c-.09-.05-.15-.16-.15-.27s.06-.21.15-.27l1.22-.7c.1-.06.21-.06.31,0l7.51,4.33c.1.06.16.16.16.27s-.06.21-.16.27l-.61.35h0l-.61.35c-.05.03-.1.04-.16.04Z"/>
    </g>
  </g>
</svg>