<?xml version="1.0" encoding="UTF-8"?>
<svg id="Layer_2" data-name="Layer 2" xmlns="http://www.w3.org/2000/svg" viewBox="0 0 33.45 46.27" fill="currentColor">
  <defs>
    <style>
      .cls-1 {
        fill: #fff;
      }

      .cls-1, .cls-2, .cls-3, .cls-4 {
        fill-rule: evenodd;
      }

      .cls-2 {
        fill: #1a87c7;
      }

      .cls-3 {
        fill: #bdedf8;
      }

      .cls-4 {
        fill: #66ceef;
      }
    </style>
  </defs>
  <g id="_Layer_" data-name="&amp;lt;Layer&amp;gt;">
    <g>
      <path class="cls-4" d="M17.28,45.39c2.04,1.17,4.64.48,5.82-1.56,1.18-2.04.47-4.64-1.57-5.81-2.02-1.17-4.61-.48-5.79,1.56-1.18,2.03-.47,4.64,1.55,5.81Z"/>
      <path class="cls-2" d="M19.4,37.76c-.31,0-.68.04-1.02.13-1,.28-1.86.93-2.38,1.84-.52.91-.68,1.97-.39,2.99.26,1.02.92,1.87,1.83,2.4h0c.92.53,1.96.67,2.99.39,1.02-.27,1.89-.92,2.41-1.83.52-.91.65-1.98.39-3-.29-1.02-.92-1.87-1.83-2.39-.6-.36-1.28-.53-1.99-.53h0ZM19.4,46.27c-.79,0-1.57-.21-2.28-.62-1.05-.61-1.81-1.59-2.12-2.76-.31-1.18-.16-2.41.45-3.47.63-1.05,1.6-1.81,2.78-2.12,1.18-.32,2.41-.16,3.46.45,1.07.61,1.81,1.59,2.15,2.77.31,1.17.13,2.41-.47,3.46-.6,1.06-1.6,1.82-2.78,2.13-.39.1-.79.16-1.18.16Z"/>
      <path class="cls-1" d="M1.27,24.51h.03c3.8-1.46,10.45-10.85,15.35-11.99.08-.02.16-.03.21-.04,1.62-.3,2.7.09,4.24-.64l.03-.02.03-.02,6.26,3.61v.24h0c.21,1.6,1.05,2.43,1.55,3.81.03.07.05.14.08.21,1.47,4.82-3.35,15.26-2.7,19.3h0c-5.11,10.13-31.34-4.88-25.07-14.46Z"/>
      <path class="cls-2" d="M1.48,24.76c-1.52,2.41-.73,4.94.21,6.65,3.07,5.52,11.87,10.63,18.26,10.63.08,0,.16,0,.21,0,1.97-.04,4.56-.61,5.87-3.11-.24-1.9.52-4.9,1.34-8.07,1.02-3.96,2.18-8.47,1.39-11.08-.03-.07-.05-.14-.08-.2-.18-.5-.42-.95-.63-1.37-.39-.72-.81-1.46-.92-2.51,0,0-.03-.09-.03-.09l-5.95-3.44c-1,.45-1.78.47-2.62.5-.5.02-1.02.03-1.6.14-.08,0-.16.03-.21.04-2.67.62-6,3.87-8.91,6.73-2.36,2.31-4.61,4.5-6.34,5.21h0ZM19.95,42.66c-6.58,0-15.64-5.27-18.79-10.95-1.49-2.69-1.55-5.24-.16-7.37.05-.07.13-.11.21-.13h0c1.57-.61,3.8-2.78,6.16-5.08,3.14-3.07,6.37-6.24,9.2-6.89.08-.02.16-.04.24-.05.63-.11,1.18-.13,1.7-.15.84-.02,1.54-.04,2.46-.47.08-.04.26-.07.34-.02l6.24,3.6c.1.05.16.15.16.25l-.29.09.31.02-.31.15.31-.04c.1.94.47,1.6.84,2.29.24.45.5.92.68,1.46.03.08.05.15.08.23.84,2.77-.29,7.16-1.36,11.41-.81,3.19-1.6,6.21-1.31,7.92,0,.08,0,.12-.03.2-1.15,2.25-3.38,3.48-6.45,3.53-.08,0-.16.01-.24.01Z"/>
      <path class="cls-3" d="M1.27,24.51h.03c3.8-1.46,10.45-10.85,15.35-11.99.08-.02.16-.03.21-.04,1.62-.3,2.7.09,4.24-.64l.03-.02.03-.02,2.17,1.25h0c-.63.61-1.91,1.01-4.43,1.01-4.9,0-10.35,9.34-12.73,12.98-1.52,2.29-.71,5.17.55,7.37,1.28,2.21,3.17,4.41,5.5,6.07-7.57-3.35-14.51-10.53-10.95-15.97Z"/>
      <path class="cls-2" d="M1.48,24.76c-.89,1.43-1.1,3.03-.58,4.79.97,3.3,4.48,6.91,9.06,9.46-1.39-1.3-2.57-2.82-3.51-4.44-1.68-2.88-1.89-5.69-.55-7.69.24-.36.5-.76.76-1.2,2.67-4.17,7.65-11.93,12.24-11.93h0c1.89,0,3.14-.22,3.88-.66l-1.62-.94c-1,.45-1.78.47-2.62.5-.5.02-1.02.03-1.62.14-.05,0-.13.03-.18.04-2.67.62-6,3.87-8.91,6.73-2.36,2.31-4.61,4.5-6.34,5.21h0ZM12.22,40.8s-.08,0-.13-.02c-5.84-2.59-10.58-7.02-11.76-11.05-.6-1.97-.37-3.78.68-5.39.05-.07.13-.11.21-.13h0c1.57-.61,3.8-2.78,6.16-5.08,3.14-3.07,6.37-6.24,9.2-6.89.08-.02.16-.04.24-.05.63-.11,1.18-.13,1.7-.15.84-.02,1.54-.04,2.46-.47.08-.04.26-.07.34-.02l2.17,1.24c.08.04.13.13.13.23.03.09,0,.19-.08.26-.76.75-2.23,1.09-4.64,1.09-4.24,0-9.09,7.58-11.71,11.65-.29.45-.55.85-.79,1.21-1.6,2.46-.31,5.48.58,7.05,1.34,2.32,3.27,4.44,5.42,5.96.13.1.16.27.08.41-.05.09-.16.15-.26.15Z"/>
      <path class="cls-3" d="M25.79,16.2c-1.65,0-3.67-1.17-4.51-2.59-.81-1.44-.16-2.59,1.49-2.59s3.67,1.16,4.51,2.59c.81,1.42.16,2.59-1.49,2.59Z"/>
      <path class="cls-2" d="M22.78,11.33c-.68,0-1.18.22-1.42.61-.21.38-.16.93.18,1.52.79,1.34,2.67,2.43,4.24,2.43.66,0,1.18-.22,1.39-.6.24-.39.16-.94-.18-1.53-.76-1.34-2.65-2.43-4.22-2.43h0ZM25.79,16.51c-1.78,0-3.88-1.21-4.77-2.75-.45-.79-.52-1.55-.18-2.14.34-.59,1.02-.91,1.94-.91,1.76,0,3.88,1.23,4.77,2.75.45.79.52,1.55.18,2.14-.34.59-1.05.91-1.94.91Z"/>
      <path class="cls-3" d="M25.43,14.95c-1.02,0-2.31-.73-2.83-1.63-.52-.9-.11-1.64.94-1.64s2.33.74,2.86,1.64c.5.9.08,1.63-.97,1.63Z"/>
      <path class="cls-2" d="M23.54,11.99c-.39,0-.65.11-.79.32-.13.21-.08.52.11.85.47.81,1.65,1.49,2.57,1.49.39,0,.68-.12.81-.33.11-.2.08-.51-.13-.85-.45-.8-1.62-1.48-2.57-1.48h0ZM25.43,15.26c-1.15,0-2.51-.79-3.09-1.8-.31-.53-.37-1.05-.1-1.46.24-.41.68-.63,1.31-.63,1.18,0,2.54.78,3.09,1.79.31.54.37,1.06.13,1.47-.23.41-.71.64-1.34.64Z"/>
      <path class="cls-4" d="M32.81,4.35c.71-1.3.26-2.94-1.02-3.68-1.31-.75-2.93-.32-3.72.95h0l-2.36,4.1-3.54,6.15c-.18.34-.13.8.16,1.29.63,1.07,2.12,1.94,3.35,1.94.58,0,1-.19,1.2-.5l5.92-10.25h0Z"/>
      <path class="cls-2" d="M28.33,1.8l-5.9,10.23c-.11.23-.05.59.16.98.58.96,1.99,1.78,3.09,1.78.45,0,.79-.13.94-.37l5.89-10.19s.03-.02.03-.03c.63-1.16.21-2.62-.92-3.28-1.15-.65-2.62-.28-3.3.84v.03h0ZM25.69,15.41c-1.34,0-2.93-.91-3.62-2.09-.34-.57-.39-1.13-.18-1.58L27.81,1.46s.03-.03.03-.04c.86-1.38,2.7-1.84,4.11-1.02,1.39.82,1.91,2.62,1.15,4.06,0,.02,0,.03-.03.04l-5.92,10.25c-.29.43-.81.65-1.47.65Z"/>
    </g>
  </g>
</svg>