<?xml version="1.0" encoding="UTF-8"?>
<svg id="Layer_2" data-name="Layer 2" xmlns="http://www.w3.org/2000/svg" viewBox="0 0 33.14 45.86" fill="currentColor">
  <defs>
    <style>
      .cls-1 {
        fill: #fff;
      }

      .cls-1, .cls-2, .cls-3, .cls-4 {
        fill-rule: evenodd;
      }

      .cls-2 {
        fill: #1a87c7;
      }

      .cls-3 {
        fill: #bdedf8;
      }

      .cls-4 {
        fill: #66ceef;
      }
    </style>
  </defs>
  <g id="_Layer_" data-name="&amp;lt;Layer&amp;gt;">
    <g>
      <path class="cls-4" d="M14.58,2.27c2.91-1.64,6.7-2.83,9.86-1.14l3.97,2.29c-5.84-2.9-12.76,2.49-16.36,6.7-4.83,5.64-8.97,14.86-7.49,22.34.48,2.43,1.55,4.55,3.65,5.95-.95-.55-3.7-2.06-4.43-2.61C-.77,32.36-.03,24.72,1.42,19.94,3.5,13.03,8.3,5.98,14.58,2.27Z"/>
      <path class="cls-2" d="M19.94.06c1.58-.18,3.18,0,4.65.8l3.98,2.3c.15.08.2.27.11.42-.08.14-.26.19-.4.12-2.39-1.19-4.99-.93-7.45.08-3.37,1.38-6.49,4.15-8.54,6.54-2.57,3-4.94,7.03-6.36,11.27-1.22,3.63-1.73,7.41-1.06,10.82.23,1.19.61,2.29,1.18,3.27.57.97,1.33,1.81,2.34,2.48.14.09.18.28.09.43-.09.14-.28.18-.43.09l-.86-.49c-1.22-.69-3.01-1.7-3.58-2.13-2.02-1.53-3.03-3.85-3.41-6.38-.5-3.33.11-7.05.94-9.81,1.09-3.6,2.91-7.25,5.29-10.45C9.47,5.3,14.51.69,19.94.06h0ZM20.01.67c-5.19.6-10.12,5.1-13.1,9.1-2.34,3.14-4.13,6.72-5.2,10.26-.81,2.69-1.4,6.31-.92,9.54.36,2.39,1.3,4.56,3.17,5.98.36.27,1.24.79,2.13,1.31-.22-.28-.41-.57-.59-.88-.61-1.04-1.01-2.21-1.26-3.46-.69-3.52-.17-7.41,1.08-11.13,1.44-4.31,3.86-8.41,6.48-11.47,2.09-2.45,5.3-5.29,8.77-6.71,1.75-.72,3.58-1.08,5.36-.85l-1.66-.96c-1.35-.72-2.82-.9-4.29-.73Z"/>
      <polygon class="cls-4" points="26.82 6.74 22.85 4.44 22.75 4.39 22.64 4.33 26.61 6.62 26.71 6.68 26.82 6.74"/>
      <path class="cls-2" d="M26.66,7c-1.39-.8-2.78-1.6-4.17-2.4-.14-.08-.2-.26-.12-.41.08-.15.27-.21.42-.13,1.4.76,2.8,1.61,4.18,2.41.14.08.2.27.11.42-.08.15-.27.2-.42.12h0Z"/>
      <polygon class="cls-4" points="8.45 38.55 3.78 35.8 1.91 42.78 6.59 45.48 8.45 38.55"/>
      <path class="cls-2" d="M8.16,38.67l-4.23-2.5-1.74,6.49,4.24,2.45,1.73-6.44h0ZM3.9,35.59l4.83,2.85c-.67,2.47-1.33,4.95-1.99,7.42l-5.12-2.96,2-7.48.28.17Z"/>
      <polygon class="cls-4" points="8.61 38.47 11.85 35.23 13.44 36.15 10.17 39.37 8.61 38.47"/>
      <path class="cls-4" d="M9.5,33.88c3.88-.04,7.9-3.3,10.21-5.94,4.13-4.72,7.77-12.76,6.21-19.03-.46-1.84-1.4-3.47-3.07-4.46l4.17,2.41c4.18,2.65,3.52,9.37,2.23,13.5-1.92,6.11-7.11,13.51-13.42,15.41-.77.23-1.59.37-2.38.39l-3.94-2.27Z"/>
      <path class="cls-2" d="M9.5,33.57c1.64-.02,3.31-.64,4.87-1.54,2.02-1.18,3.83-2.83,5.12-4.3,2.21-2.52,4.27-6,5.46-9.65,1.01-3.09,1.38-6.29.68-9.11-.23-.94-.59-1.81-1.11-2.57-.47-.68-1.06-1.26-1.82-1.71-.15-.09-.19-.27-.11-.42.09-.15.27-.19.42-.11,1.38.83,2.8,1.59,4.18,2.42,1.87,1.19,2.82,3.14,3.18,5.33.47,2.87-.07,6.13-.82,8.52-1.05,3.33-3.05,7.03-5.67,10.04-2.26,2.59-4.98,4.68-7.96,5.58-.4.12-.82.22-1.24.29-.41.07-.82.11-1.22.11-.06,0-.12-.02-.17-.05l-3.93-2.27c-.15-.08-.2-.27-.11-.42.06-.1.16-.15.26-.15h0ZM14.67,32.56c-1.32.77-2.74,1.34-4.16,1.54l3.01,1.73c.34-.01.69-.05,1.04-.1.39-.06.79-.16,1.17-.27,2.85-.86,5.48-2.88,7.67-5.39,2.56-2.94,4.52-6.56,5.55-9.82.73-2.33,1.26-5.48.8-8.24-.33-2.02-1.2-3.82-2.9-4.9l-1.85-1.07.02.02c.56.82.95,1.76,1.2,2.77.74,2.94.35,6.26-.69,9.45-1.22,3.73-3.33,7.29-5.58,9.86-1.32,1.51-3.19,3.21-5.27,4.43Z"/>
      <path class="cls-1" d="M17.3,7c-6.38,3.68-11.54,12.63-11.54,20,0,3.91,1.42,6.88,3.75,7.97l-.93,3.48,3.27-3.22c1.63.07,3.47-.43,5.45-1.57,6.37-3.68,11.54-12.63,11.54-19.99s-5.17-10.35-11.54-6.66Z"/>
      <path class="cls-2" d="M17.44,7.28c-6.27,3.63-11.37,12.47-11.37,19.72,0,1.9.34,3.57.96,4.9.62,1.31,1.51,2.28,2.61,2.8.14.06.21.22.16.36l-.64,2.39,2.47-2.43c.06-.06.15-.09.23-.09.79.04,1.64-.07,2.53-.33.87-.25,1.8-.65,2.75-1.2h.02c3.13-1.82,5.97-4.94,8.04-8.51,2.06-3.57,3.34-7.6,3.34-11.22,0-2.08-.42-3.8-1.17-5.1-.53-.92-1.23-1.63-2.06-2.11-.83-.48-1.79-.73-2.85-.73-1.5,0-3.2.49-5,1.53h-.02ZM17.13,6.75h.02c1.9-1.11,3.71-1.63,5.31-1.63,1.17,0,2.24.28,3.16.81.92.53,1.7,1.32,2.28,2.33.8,1.39,1.25,3.21,1.25,5.41,0,3.74-1.31,7.87-3.42,11.53-2.11,3.65-5.03,6.85-8.26,8.72h-.02c-1,.59-1.96,1-2.89,1.27-.91.26-1.77.38-2.59.36l-3.17,3.12c-.07.08-.19.11-.3.08-.16-.04-.26-.21-.22-.38l.86-3.24c-1.13-.6-2.04-1.63-2.67-2.98-.66-1.41-1.02-3.16-1.02-5.16,0-7.47,5.22-16.51,11.68-20.25Z"/>
      <path class="cls-3" d="M8.45,15.22c2.58-4.48,6.16-8.39,10.1-10.66,3.94-2.28,7.52-2.49,10.1-1,2.59,1.49,4.18,4.7,4.18,9.25s-1.6,9.6-4.18,14.08c-2.59,4.48-6.16,8.39-10.1,10.66-2.14,1.23-4.16,1.86-5.98,1.94l-5.98,5.99,1.86-6.93c-2.59-1.49-4.19-4.69-4.19-9.25s1.6-9.6,4.19-14.08h0ZM26.82,6.74c-1.08-.62-2.37-.88-3.79-.74-1.38.14-2.89.65-4.47,1.56-1.58.91-3.09,2.15-4.47,3.6-1.43,1.51-2.72,3.26-3.8,5.12-1.08,1.87-1.95,3.86-2.54,5.85-.57,1.92-.89,3.85-.89,5.67s.31,3.39.89,4.65c.59,1.31,1.46,2.29,2.54,2.92.27.16.55.29.84.4l-.96,3.6,3.27-3.22c.21,0,.42-.02.64-.04,1.38-.14,2.89-.65,4.47-1.56,1.59-.92,3.09-2.15,4.47-3.6,1.43-1.51,2.72-3.26,3.79-5.12,1.08-1.87,1.95-3.86,2.54-5.85.57-1.92.88-3.84.88-5.68s-.31-3.39-.88-4.65c-.59-1.31-1.46-2.29-2.54-2.92Z"/>
      <path class="cls-2" d="M12.86,8.75c1.7-1.8,3.57-3.32,5.53-4.46,1.97-1.14,3.86-1.77,5.59-1.95,1.81-.18,3.45.15,4.82.94,1.37.79,2.48,2.04,3.23,3.7.71,1.58,1.11,3.53,1.11,5.81s-.39,4.64-1.1,7.02c-.73,2.46-1.8,4.91-3.13,7.21-1.33,2.3-2.92,4.46-4.68,6.32-1.7,1.8-3.57,3.33-5.53,4.46-1.07.62-2.12,1.09-3.13,1.42-1,.32-1.96.51-2.88.56l-5.89,5.91c-.12.12-.31.12-.43,0-.08-.08-.11-.19-.08-.3l1.8-6.71c-1.28-.8-2.31-2.01-3.03-3.58-.71-1.58-1.11-3.53-1.11-5.81s.39-4.65,1.09-7.02c1.47-4.93,4.28-9.8,7.81-13.53h0ZM13.31,9.17c-3.47,3.67-6.23,8.44-7.67,13.28-.69,2.32-1.07,4.64-1.07,6.85s.38,4.06,1.05,5.56c.69,1.53,1.7,2.69,2.95,3.41.13.06.2.21.16.36l-1.56,5.82,5.16-5.17c.05-.05.12-.09.2-.09.89-.04,1.84-.22,2.83-.54.97-.31,1.98-.77,3.01-1.36,1.91-1.1,3.73-2.59,5.39-4.35,1.73-1.83,3.29-3.94,4.6-6.2,1.3-2.26,2.36-4.67,3.07-7.08.69-2.32,1.07-4.64,1.07-6.85s-.38-4.06-1.05-5.56c-.7-1.54-1.72-2.7-2.98-3.43-1.26-.73-2.77-1.03-4.46-.86-1.64.16-3.44.77-5.34,1.87-1.91,1.1-3.73,2.59-5.39,4.35h0ZM26.66,7c-.51-.3-1.07-.5-1.68-.62-.6-.12-1.25-.15-1.93-.08-.67.07-1.38.23-2.12.48-.72.25-1.47.6-2.23,1.04-.76.44-1.52.96-2.24,1.55-.75.6-1.47,1.27-2.16,2-.7.74-1.37,1.54-1.99,2.38-1.27,1.71-2.35,3.59-3.2,5.54-.42.96-.78,1.94-1.07,2.92-.29.96-.51,1.92-.65,2.87-.14.92-.22,1.83-.22,2.72s.07,1.71.22,2.45c.15.76.36,1.46.64,2.07.28.62.63,1.17,1.03,1.63.41.47.87.85,1.38,1.14.13.07.26.14.39.2.13.06.26.12.41.17.16.06.24.23.18.39l-.66,2.49,2.47-2.43c.06-.06.14-.09.22-.09h.29s.31-.04.31-.04c.67-.07,1.38-.23,2.11-.48.72-.25,1.47-.6,2.23-1.04.77-.44,1.52-.96,2.25-1.55.75-.6,1.47-1.27,2.16-2,.7-.74,1.37-1.54,1.99-2.38.63-.86,1.22-1.75,1.76-2.68,1.05-1.81,1.91-3.77,2.51-5.78.29-.96.51-1.92.65-2.87.14-.92.22-1.83.22-2.72s-.08-1.71-.22-2.45c-.15-.76-.36-1.46-.64-2.07-.28-.62-.63-1.17-1.03-1.63-.41-.47-.87-.85-1.38-1.14h0ZM25.1,5.77c-.66-.13-1.37-.16-2.11-.09-.72.07-1.48.24-2.26.51-.75.26-1.54.62-2.34,1.09-.8.46-1.57,1-2.32,1.6-.77.62-1.51,1.31-2.22,2.06-.72.76-1.4,1.58-2.04,2.44-1.3,1.75-2.4,3.66-3.27,5.66-.43.99-.8,1.99-1.09,2.99-.29.98-.52,1.97-.67,2.95-.15.96-.23,1.9-.23,2.81s.08,1.78.23,2.57c.16.81.39,1.55.68,2.21.31.68.69,1.27,1.13,1.78.45.51.96.94,1.54,1.27.14.08.29.16.44.23l.19.09-.89,3.34c-.04.16.05.33.22.37.11.03.22,0,.3-.08l3.18-3.13h.2s.33-.03.33-.03c.72-.07,1.48-.24,2.26-.51.76-.26,1.54-.62,2.34-1.09.8-.46,1.58-1,2.33-1.6.77-.62,1.51-1.31,2.22-2.05.72-.76,1.4-1.58,2.04-2.44.64-.87,1.25-1.79,1.79-2.74,1.07-1.86,1.96-3.86,2.57-5.91.29-.98.52-1.97.67-2.95.15-.96.23-1.9.23-2.82s-.08-1.78-.23-2.57c-.16-.81-.39-1.55-.68-2.21-.31-.68-.69-1.28-1.13-1.78-.45-.51-.96-.94-1.54-1.27-.57-.33-1.2-.56-1.87-.7Z"/>
      <polygon class="cls-4" points="14.39 28.81 16.12 27.81 16.12 20.55 14.34 21.58 14.34 18.41 19.75 15.29 19.75 25.72 21.55 24.68 21.55 27.91 14.39 32.04 14.39 28.81"/>
      <path class="cls-2" d="M14.24,28.54l1.57-.91v-6.56l-1.78,1.03v-3.87l6.02-3.48v10.43l1.8-1.04v3.94c-2.59,1.49-5.18,2.99-7.77,4.49v-3.94l.16-.09h0ZM16.27,28.08l-1.57.91v2.52l6.54-3.78v-2.52l-1.8,1.04v-10.43l-4.79,2.76v2.46l1.78-1.03v7.97l-.16.09Z"/>
      <path class="cls-4" d="M16.73,11.69c.34-.58.8-1.09,1.31-1.39.51-.3.98-.32,1.31-.13.34.19.54.61.54,1.2s-.21,1.25-.54,1.83c-.34.58-.8,1.09-1.31,1.39-.51.3-.98.32-1.31.13-.34-.19-.54-.61-.54-1.2s.21-1.25.54-1.83Z"/>
      <path class="cls-2" d="M17.11,10.67c.41-.44,1-.85,1.61-.91.29-.03.56.03.79.16.23.13.41.33.53.6.11.24.17.53.17.86s-.06.65-.15.99c-.1.34-.25.68-.43,1-.18.32-.4.61-.65.87-.24.25-.5.47-.78.63-.29.17-.57.26-.83.29-.58.06-1.07-.23-1.32-.76-.11-.24-.17-.53-.17-.87s.06-.65.15-.99c.2-.68.59-1.35,1.08-1.87h0ZM17.56,11.09c-.42.45-.76,1.03-.93,1.62-.08.28-.13.55-.13.81,0,.25.04.45.11.61.13.3.37.43.7.4.18-.02.37-.08.59-.21.23-.13.44-.31.64-.52.21-.22.4-.48.56-.76.16-.27.29-.57.37-.86.08-.28.13-.55.13-.81,0-.25-.04-.45-.11-.61-.07-.15-.16-.26-.28-.32-.12-.07-.26-.09-.42-.08-.46.05-.93.41-1.23.73Z"/>
    </g>
  </g>
</svg>