<?xml version="1.0" encoding="UTF-8"?>
<svg id="Layer_2" data-name="Layer 2" xmlns="http://www.w3.org/2000/svg" viewBox="0 0 20.93 40.99" fill="currentColor">
  <defs>
    <style>
      .cls-1 {
        fill: #fff;
      }

      .cls-1, .cls-2, .cls-3, .cls-4 {
        fill-rule: evenodd;
      }

      .cls-2 {
        fill: #1a87c7;
      }

      .cls-3 {
        fill: #bdedf8;
      }

      .cls-4 {
        fill: #66ceef;
      }
    </style>
  </defs>
  <g id="_Layer_" data-name="&amp;lt;Layer&amp;gt;">
    <g>
      <path class="cls-4" d="M3.28,38.96c-1.45-.85-2.91-2.2-2.97-4v-2.3c.21,3.27,4.28,4.93,7.02,5.44,3.67.68,8.72.17,11.6-2.35.94-.82,1.59-1.82,1.67-3.09,0,.55.03,2.12-.02,2.59-.35,2.84-3.87,4.44-6.31,5.01-3.53.83-7.8.51-11-1.29Z"/>
      <path class="cls-2" d="M3.43,38.69c2.93,1.65,7.05,2.13,10.78,1.25,2.6-.61,5.76-2.22,6.07-4.75.02-.12.02-.33.03-.58-.29.47-.68.92-1.17,1.35-3.01,2.63-8.25,3.1-11.87,2.42-2.52-.47-5.41-1.71-6.66-3.78v.34c.06,1.74,1.56,2.99,2.82,3.74h0ZM10.46,40.99c-2.67,0-5.28-.61-7.33-1.76,0,0,0,0,0,0C1.74,38.4.07,37,0,34.97v-2.31c0-.16.13-.3.3-.31h0c.16,0,.3.13.31.29.19,2.91,3.76,4.59,6.78,5.15,3.46.65,8.5.21,11.34-2.28.99-.86,1.5-1.8,1.56-2.87.01-.17.14-.31.32-.29.17,0,.3.14.3.31v.51c.01.73.02,1.74-.03,2.11-.35,2.84-3.61,4.58-6.54,5.27-1.27.3-2.59.44-3.89.44Z"/>
      <path class="cls-4" d="M10.46,38.37c-2.6,0-5.2-.57-7.18-1.72-1.98-1.14-2.97-2.64-2.97-4.14s.99-3,2.97-4.14c1.98-1.14,4.58-1.72,7.18-1.72s5.2.57,7.18,1.72c1.98,1.14,2.97,2.64,2.97,4.14s-.99,3-2.97,4.14c-1.98,1.15-4.58,1.72-7.18,1.72Z"/>
      <path class="cls-2" d="M10.46,26.96c-2.66,0-5.15.6-7.03,1.68-1.82,1.05-2.82,2.43-2.82,3.88s1,2.83,2.82,3.88c1.87,1.08,4.37,1.67,7.03,1.67s5.15-.6,7.02-1.67c1.82-1.05,2.82-2.43,2.82-3.88s-1-2.83-2.82-3.88c-1.87-1.08-4.37-1.67-7.02-1.67h0ZM10.46,38.68c-2.76,0-5.37-.62-7.33-1.76-2.01-1.16-3.13-2.73-3.13-4.41s1.11-3.25,3.13-4.41c1.96-1.13,4.57-1.76,7.33-1.76s5.37.62,7.33,1.76c2.02,1.16,3.13,2.73,3.13,4.41s-1.11,3.25-3.13,4.41c-1.96,1.14-4.57,1.76-7.33,1.76Z"/>
      <path class="cls-1" d="M13.29,20.1l4.57-4.61c.76-.76,1.19-1.62,1.1-2.66v-6.25H1.95v6.17c-.13,1.05.31,1.96,1.07,2.72l4.6,4.63-4.6,4.64c-.83.83-1.18,1.78-1.07,2.71v5.07h17v-5.15c.08-.92-.29-1.84-1.1-2.66l-4.57-4.61Z"/>
      <path class="cls-2" d="M2.26,32.21h16.38v-4.84c.07-.87-.28-1.7-1.01-2.44l-4.57-4.61c-.12-.12-.12-.31,0-.43l4.57-4.6c.76-.76,1.09-1.55,1.01-2.42v-5.97H2.26v5.87c-.11.91.22,1.74.97,2.5l4.6,4.63c.12.12.12.31,0,.43l-4.6,4.64c-.74.75-1.08,1.6-.98,2.45v4.8h0ZM18.95,32.82H1.95c-.17,0-.31-.14-.31-.31v-5.07c-.13-1.01.27-2.04,1.15-2.93l4.39-4.42-4.39-4.41c-.88-.89-1.28-1.91-1.15-2.97v-6.14c0-.17.14-.31.3-.31h17c.17,0,.31.14.31.31v6.25c.09,1.03-.3,1.99-1.18,2.88l-4.35,4.39,4.35,4.39c.86.87,1.27,1.88,1.18,2.9v5.12c0,.17-.14.31-.31.31Z"/>
      <path class="cls-3" d="M1.95,29.32v3.2h17v-3.22c-.37-.33-.81-.64-1.31-.93-1.98-1.14-4.58-1.72-7.18-1.72s-5.2.57-7.18,1.72c-.51.29-.95.61-1.33.95Z"/>
      <path class="cls-2" d="M2.26,32.21h16.38v-2.77c-.34-.29-.73-.56-1.16-.8-1.87-1.08-4.37-1.67-7.02-1.67s-5.15.6-7.03,1.68c-.43.25-.83.53-1.17.82v2.75h0ZM18.95,32.82H1.95c-.17,0-.31-.14-.31-.31v-3.2c0-.09.04-.17.1-.23.4-.35.86-.68,1.38-.98,1.96-1.13,4.57-1.76,7.33-1.76s5.37.62,7.33,1.76c.51.29.97.62,1.36.96.07.06.1.14.1.23v3.22c0,.17-.14.31-.31.31Z"/>
      <path class="cls-3" d="M4.45,29.04c3.32-1.92,8.71-1.92,12.03,0,3.32,1.92,3.32,5.03,0,6.95-3.32,1.92-8.71,1.92-12.03,0-3.32-1.92-3.32-5.03,0-6.95Z"/>
      <path class="cls-2" d="M4.6,29.31c-1.51.87-2.34,2.01-2.34,3.21s.83,2.33,2.34,3.2c3.23,1.87,8.49,1.87,11.73,0,1.51-.87,2.33-2.01,2.34-3.2,0-1.2-.83-2.34-2.34-3.21-3.23-1.86-8.49-1.86-11.72,0h0ZM10.46,37.73c-2.24,0-4.47-.49-6.17-1.47-1.71-.99-2.65-2.31-2.65-3.74s.94-2.76,2.65-3.74h0c3.4-1.96,8.93-1.96,12.34,0,1.71.99,2.65,2.32,2.65,3.74s-.94,2.75-2.64,3.74c-1.7.98-3.93,1.47-6.17,1.47Z"/>
      <path class="cls-3" d="M4.45,29.04c3.32-1.92,8.71-1.92,12.03,0,3.32,1.92,3.32,5.03,0,6.95-3.32,1.92-8.71,1.92-12.03,0-3.32-1.92-3.32-5.03,0-6.95Z"/>
      <path class="cls-2" d="M4.6,29.31c-1.51.87-2.34,2.01-2.34,3.21s.83,2.33,2.34,3.2c3.23,1.87,8.49,1.87,11.73,0,1.51-.87,2.33-2.01,2.34-3.2,0-1.2-.83-2.34-2.34-3.21-3.23-1.86-8.49-1.86-11.72,0h0ZM10.46,37.73c-2.24,0-4.47-.49-6.17-1.47-1.71-.99-2.65-2.31-2.65-3.74s.94-2.76,2.65-3.74h0c3.4-1.96,8.93-1.96,12.34,0,1.71.99,2.65,2.32,2.65,3.74s-.94,2.75-2.64,3.74c-1.7.98-3.93,1.47-6.17,1.47Z"/>
      <path class="cls-3" d="M5.17,12.48c-2.93-1.69-2.93-4.43,0-6.12,2.93-1.69,7.67-1.69,10.6,0,2.92,1.69,2.92,4.43,0,6.12-2.93,1.69-7.67,1.69-10.59,0h0ZM4.45,12.9c3.32,1.92,8.71,1.92,12.03,0,3.32-1.92,3.32-5.03,0-6.95-3.32-1.92-8.71-1.92-12.03,0-3.32,1.92-3.32,5.03,0,6.95h0Z"/>
      <path class="cls-2" d="M10.46,5.4c-1.86,0-3.73.41-5.14,1.23-1.32.76-2.04,1.75-2.04,2.79s.73,2.03,2.04,2.79h0c2.84,1.64,7.45,1.64,10.29,0,1.32-.76,2.04-1.75,2.04-2.79s-.72-2.03-2.04-2.79c-1.42-.82-3.28-1.23-5.14-1.23h0ZM4.6,12.63h0c-1.51-.87-2.34-2.01-2.34-3.21s.83-2.34,2.34-3.21c.93-.54,2.04-.92,3.21-1.15-1.02.21-1.98.56-2.79,1.03-1.51.87-2.35,2.05-2.35,3.32s.84,2.45,2.35,3.32c.81.47,1.77.81,2.78,1.03-1.17-.23-2.26-.61-3.19-1.15h0ZM13.13,5.07c1.17.23,2.27.61,3.2,1.15,1.51.87,2.33,2.01,2.34,3.2,0,1.2-.83,2.34-2.34,3.21-.93.53-2.03.92-3.19,1.15,1.02-.22,1.97-.56,2.78-1.03,1.51-.88,2.35-2.05,2.35-3.32s-.83-2.45-2.35-3.32c-.81-.47-1.77-.81-2.79-1.03h0ZM10.46,14.64c-2.24,0-4.47-.49-6.17-1.47h0c-1.71-.99-2.65-2.32-2.65-3.74s.94-2.75,2.65-3.74c3.4-1.96,8.94-1.96,12.34,0,1.71.98,2.64,2.31,2.64,3.74s-.94,2.76-2.65,3.74c-1.7.98-3.93,1.48-6.17,1.48Z"/>
      <path class="cls-3" d="M4.45,11.43c3.32,1.92,8.71,1.92,12.03,0,3.32-1.92,3.32-5.03,0-6.95-3.32-1.92-8.71-1.92-12.03,0-3.32,1.92-3.32,5.03,0,6.95Z"/>
      <path class="cls-2" d="M10.46,3.35c-2.12,0-4.25.47-5.86,1.4-1.51.87-2.34,2.01-2.34,3.2s.83,2.34,2.34,3.21c3.23,1.86,8.49,1.86,11.72,0,1.51-.87,2.34-2.01,2.34-3.21,0-1.2-.83-2.33-2.34-3.2-1.62-.93-3.74-1.4-5.86-1.4h0ZM10.46,13.17c-2.24,0-4.47-.49-6.17-1.48-1.71-.99-2.65-2.31-2.65-3.74s.94-2.75,2.65-3.74c3.4-1.97,8.94-1.97,12.34,0,1.71.98,2.64,2.31,2.64,3.74s-.94,2.76-2.65,3.74c-1.7.98-3.93,1.48-6.17,1.48Z"/>
      <path class="cls-1" d="M14.02,12.42c.89-.24,1.93-.68,2.45-.99.53-.3.62-.38.88-.59v-5.77c-.26-.21-.35-.29-.87-.59-.53-.3-1.57-.75-2.46-.99v8.92Z"/>
      <path class="cls-2" d="M14.33,3.9v8.1c.76-.24,1.56-.59,1.99-.84.42-.24.55-.34.72-.47v-5.47c-.18-.14-.3-.23-.72-.47-.43-.25-1.23-.61-1.99-.85h0ZM14.02,12.73c-.07,0-.13-.02-.19-.06-.08-.06-.12-.15-.12-.24V3.5c0-.1.04-.19.12-.24.07-.06.18-.08.26-.06.92.24,1.99.71,2.53,1.02.5.29.63.39.85.57l.06.05c.07.06.12.15.12.24v5.77c0,.09-.04.18-.12.24l-.06.05c-.22.18-.35.28-.85.57-.54.31-1.61.78-2.53,1.02-.02,0-.05.01-.08.01Z"/>
      <path class="cls-4" d="M3.28,12.62c-1.45-.86-2.91-2.2-2.97-4v-2.3c.21,3.27,4.28,4.93,7.02,5.44,3.67.68,8.72.17,11.6-2.35.94-.82,1.59-1.82,1.67-3.08,0,.55.03,2.13-.02,2.58-.35,2.84-3.87,4.44-6.31,5.01-3.53.83-7.8.51-11-1.29Z"/>
      <path class="cls-2" d="M3.43,12.35c2.93,1.65,7.06,2.13,10.78,1.26,2.6-.61,5.76-2.22,6.07-4.75.02-.12.02-.33.03-.58-.29.47-.68.93-1.17,1.35-3.01,2.63-8.25,3.1-11.87,2.42-2.52-.47-5.41-1.71-6.66-3.78v.34c.06,1.74,1.56,2.99,2.82,3.74h0ZM10.46,14.65c-2.67,0-5.28-.61-7.33-1.76,0,0,0,0,0,0C1.74,12.06.07,10.65,0,8.62v-2.31c0-.17.13-.3.3-.31h0c.16,0,.3.13.31.29.18,2.91,3.76,4.59,6.78,5.15,3.46.64,8.5.21,11.34-2.28.98-.86,1.5-1.8,1.56-2.87.01-.17.18-.31.32-.29.17,0,.3.14.3.31v.51c.01.73.02,1.73-.03,2.11-.35,2.84-3.61,4.59-6.54,5.27-1.27.3-2.59.44-3.89.44Z"/>
      <path class="cls-3" d="M9.93,24.97l-5.27,4.36h0c-2.41,1.7-2.24,4.2.51,5.79,2.93,1.69,7.67,1.69,10.6,0,2.71-1.56,2.91-4.03.6-5.73h0l-5.39-4.43v-4.65l1.26-1.04,1.15-.95h-5.84l2.4,1.98v4.65Z"/>
      <path class="cls-2" d="M9.93,24.97h0,0ZM8.39,18.65l1.73,1.43c.07.06.11.14.11.24v4.65c0,.09-.04.18-.11.24l-5.27,4.36c-1.06.75-1.61,1.67-1.57,2.6.04,1,.77,1.96,2.04,2.69,2.84,1.64,7.45,1.64,10.29,0,1.26-.73,1.98-1.67,2.04-2.67.05-.91-.47-1.81-1.47-2.54l-5.4-4.44c-.07-.06-.11-.15-.11-.24v-4.65c0-.09.04-.18.11-.24l1.75-1.44h-4.13ZM10.46,36.7c-1.98,0-3.95-.43-5.45-1.3-1.46-.84-2.29-1.97-2.34-3.2-.05-1.15.59-2.25,1.81-3.12l5.14-4.25v-4.36l-2.28-1.89c-.1-.08-.14-.22-.09-.34.04-.12.16-.2.29-.2h5.84c.13,0,.25.08.29.2.04.12,0,.26-.09.34l-2.3,1.89v4.36l5.28,4.34c1.16.85,1.77,1.94,1.7,3.06-.07,1.21-.9,2.34-2.34,3.17-1.5.87-3.48,1.3-5.45,1.3Z"/>
      <path class="cls-4" d="M10.46,12.03c-2.6,0-5.2-.57-7.18-1.72C1.3,9.17.31,7.67.31,6.17s.99-3,2.97-4.15C5.26.88,7.86.31,10.46.31s5.2.57,7.18,1.72c1.98,1.14,2.97,2.65,2.97,4.15s-.99,3-2.97,4.14c-1.98,1.14-4.58,1.72-7.18,1.72Z"/>
      <path class="cls-2" d="M10.46.62c-2.66,0-5.15.6-7.03,1.67C1.62,3.34.62,4.72.62,6.17s1,2.83,2.82,3.88c1.87,1.08,4.37,1.67,7.03,1.67s5.15-.6,7.02-1.67c1.82-1.05,2.82-2.43,2.82-3.88s-1-2.83-2.82-3.88c-1.87-1.08-4.37-1.67-7.02-1.67h0ZM10.46,12.34c-2.76,0-5.37-.62-7.33-1.76C1.11,9.42,0,7.85,0,6.17S1.11,2.92,3.13,1.76c1.96-1.13,4.57-1.76,7.33-1.76s5.37.63,7.33,1.76c2.02,1.17,3.13,2.73,3.13,4.41s-1.11,3.25-3.13,4.41c-1.96,1.13-4.57,1.76-7.33,1.76Z"/>
      <path class="cls-4" d="M10.46,19.51c-.81,0-1.63-.18-2.25-.54-.62-.36-.93-.83-.93-1.3s.31-.94.93-1.3c.62-.36,1.43-.54,2.25-.54s1.63.18,2.25.54c.62.36.93.83.93,1.3s-.31.94-.93,1.3c-.62.36-1.43.54-2.25.54Z"/>
      <path class="cls-2" d="M10.46,16.14c-.8,0-1.54.18-2.1.5-.5.29-.78.66-.78,1.03s.28.74.78,1.03c1.11.64,3.08.64,4.19,0,.5-.29.78-.66.78-1.03s-.27-.74-.78-1.03c-.56-.32-1.3-.5-2.1-.5h0ZM10.46,19.81c-.9,0-1.76-.2-2.4-.58-.7-.4-1.08-.96-1.08-1.56s.38-1.16,1.08-1.56c1.29-.75,3.51-.75,4.81,0,.7.4,1.08.96,1.08,1.56s-.39,1.16-1.08,1.56c-.65.38-1.5.58-2.4.58Z"/>
      <path class="cls-2" d="M10.46,22.32c-2.1,0-4.06.47-5.53,1.32-1.42.82-2.2,1.89-2.2,3.02s.78,2.2,2.2,3.02c1.47.85,3.44,1.32,5.53,1.32s4.06-.47,5.53-1.32c1.42-.82,2.2-1.89,2.2-3.02s-.78-2.2-2.2-3.02c-1.47-.85-3.44-1.32-5.53-1.32h0ZM10.46,31.6c-2.2,0-4.28-.5-5.84-1.4-1.62-.94-2.51-2.2-2.51-3.55s.89-2.62,2.51-3.55c1.57-.9,3.64-1.4,5.84-1.4s4.28.5,5.84,1.4c1.62.94,2.51,2.2,2.51,3.55s-.89,2.62-2.51,3.55c-1.56.9-3.64,1.4-5.84,1.4Z"/>
      <path class="cls-2" d="M10.46,18.6c-2.2,0-4.28-.5-5.84-1.4-1.62-.94-2.51-2.19-2.51-3.55,0-.49.12-.97.35-1.43.08-.15.26-.21.41-.14.15.08.22.26.14.41-.19.37-.28.76-.28,1.15,0,1.13.78,2.2,2.2,3.02,1.47.85,3.44,1.32,5.53,1.32s4.06-.47,5.53-1.32c1.42-.82,2.2-1.89,2.2-3.02,0-.39-.09-.78-.28-1.15-.08-.15-.02-.34.14-.41.15-.07.34-.01.41.14.23.46.35.94.35,1.43,0,1.36-.89,2.62-2.51,3.55-1.56.9-3.64,1.4-5.84,1.4Z"/>
    </g>
  </g>
</svg>