<?xml version="1.0" encoding="UTF-8"?>
<svg id="Layer_2" data-name="Layer 2" xmlns="http://www.w3.org/2000/svg" viewBox="0 0 40.35 40.35" fill="currentColor">
  <defs>
    <style>
      .cls-1 {
        fill: #fff;
      }

      .cls-1, .cls-2, .cls-3, .cls-4 {
        fill-rule: evenodd;
      }

      .cls-2 {
        fill: #1a87c7;
      }

      .cls-3 {
        fill: #bdedf8;
      }

      .cls-4 {
        fill: #66ceef;
      }
    </style>
  </defs>
  <g id="_Layer_" data-name="&amp;lt;Layer&amp;gt;">
    <g>
      <path class="cls-4" d="M12.58,1.81c-2.42,1.01-4.61,2.49-6.45,4.32-1.83,1.83-3.31,4.01-4.31,6.45-.97,2.34-1.5,4.9-1.5,7.6s.53,5.26,1.5,7.6c1,2.42,2.48,4.61,4.31,6.45,1.83,1.83,4.02,3.31,6.45,4.31,2.34.97,4.91,1.5,7.6,1.5s5.26-.53,7.6-1.5c2.43-1,4.61-2.48,6.45-4.31,1.83-1.83,3.31-4.02,4.32-6.45.96-2.34,1.5-4.9,1.5-7.6s-.53-5.26-1.5-7.6c-1.01-2.43-2.49-4.61-4.32-6.45-1.83-1.83-4.01-3.31-6.45-4.32-2.34-.97-4.9-1.5-7.6-1.5s-5.26.54-7.6,1.5Z"/>
      <path class="cls-2" d="M12.58,1.81h.01-.01ZM20.17.62c-2.59,0-5.11.5-7.48,1.48h0c-2.38.99-4.52,2.42-6.35,4.25-1.83,1.83-3.26,3.96-4.25,6.35-.98,2.37-1.48,4.88-1.48,7.48s.5,5.11,1.48,7.47c.99,2.38,2.42,4.52,4.25,6.35,1.83,1.83,3.97,3.26,6.35,4.25,2.36.98,4.88,1.48,7.48,1.48s5.11-.5,7.48-1.48c2.37-.99,4.51-2.42,6.35-4.25,1.83-1.83,3.26-3.97,4.25-6.35.98-2.36,1.48-4.88,1.48-7.47s-.5-5.11-1.48-7.48c-.98-2.37-2.42-4.51-4.25-6.35-1.83-1.83-3.97-3.26-6.35-4.25-2.37-.98-4.89-1.48-7.48-1.48h0ZM20.17,40.35c-2.68,0-5.27-.52-7.72-1.53-2.45-1.02-4.65-2.49-6.54-4.38-1.89-1.89-3.36-4.09-4.38-6.54-1.02-2.45-1.53-5.04-1.53-7.72s.51-5.28,1.53-7.72c1.02-2.45,2.49-4.66,4.38-6.54,1.89-1.89,4.09-3.36,6.54-4.38h0c2.45-1.02,5.04-1.53,7.72-1.53s5.27.51,7.72,1.53c2.45,1.02,4.66,2.49,6.54,4.38,1.89,1.89,3.36,4.09,4.38,6.54,1.02,2.44,1.53,5.04,1.53,7.72s-.51,5.27-1.53,7.72c-1.02,2.45-2.49,4.65-4.38,6.54-1.89,1.89-4.09,3.36-6.54,4.38-2.44,1.01-5.04,1.53-7.72,1.53Z"/>
      <path class="cls-3" d="M22.42,36.18c9.42,0,17.07-7.64,17.07-17.07S31.84,2.05,22.42,2.05,5.36,9.69,5.36,19.11s7.64,17.07,17.06,17.07Z"/>
      <path class="cls-2" d="M22.42,2.36C13.18,2.36,5.66,9.87,5.66,19.11s7.52,16.76,16.76,16.76,16.76-7.52,16.76-16.76S31.65,2.36,22.42,2.36h0ZM22.42,36.49c-9.58,0-17.38-7.8-17.38-17.38S12.84,1.75,22.42,1.75s17.37,7.79,17.37,17.37-7.8,17.38-17.37,17.38Z"/>
      <path class="cls-1" d="M31.1,8.68c2.2,3.51,1.55,7.7-1.71,9.74-3.27,2.04-9.43.71-11.63-2.8-2.55-4.07-1.11-8.46,2.32-10.18,3.57-1.78,8.92-.12,11.02,3.23Z"/>
      <path class="cls-2" d="M23.4,5.02c-1.13,0-2.22.23-3.18.7-1.59.8-2.73,2.17-3.21,3.88-.53,1.89-.17,3.97,1.01,5.86,1,1.59,2.9,2.81,5.22,3.35,2.26.52,4.49.29,5.98-.65,3.05-1.91,3.74-5.92,1.62-9.32h0c-1.49-2.37-4.57-3.82-7.44-3.82h0ZM25.56,19.69c-.8,0-1.63-.09-2.46-.29-2.48-.57-4.52-1.89-5.61-3.62-1.27-2.04-1.66-4.29-1.08-6.35.52-1.87,1.77-3.38,3.52-4.26,3.65-1.83,9.19-.2,11.42,3.34h0c2.31,3.7,1.53,8.07-1.82,10.17-1.06.66-2.46,1.01-3.98,1.01Z"/>
      <path class="cls-4" d="M25.49,11.55c.82-.37,1.89-.39,2.4.52.48.87.11,1.69-.62,2.11-1.22.7-2.06.28-2.5-.47-.54-.92-.13-1.78.71-2.16h0ZM23.16,8.63h0c-1.97,1.01-.32,3.09,1.52,2,.69-.41.96-1.01.59-1.64-.36-.63-1.36-.74-2.11-.36h0ZM23.4,12.01c-.75.74-1.2,1.97-.63,2.92.83,1.42,3.37,1.6,5.1.63,2.46-1.36,2.22-3.63,1.62-4.48-.63-.91-1.93-1.2-2.94-.9.57-.66.5-1.31.03-2.1-.7-1.2-3.01-1.19-4.46-.34-1.44.85-2.2,2.28-1.5,3.49.46.78,1.65,1.03,2.76.78h0Z"/>
      <path class="cls-2" d="M23.16,8.63h.01-.01ZM24.09,8.72c-.26,0-.53.06-.78.19h0c-.46.24-.71.54-.72.87,0,.26.15.52.43.69.42.25.99.22,1.52-.1.32-.19.53-.42.59-.66.04-.17,0-.37-.1-.57-.17-.28-.53-.43-.93-.43h0ZM23.63,11.25c-.33,0-.65-.09-.94-.25-.47-.28-.75-.75-.73-1.24.01-.32.16-.93,1.05-1.39h0c.83-.42,2.04-.34,2.53.47.2.34.25.69.16,1.03-.11.4-.4.75-.87,1.03-.39.23-.81.35-1.21.35h0ZM25.61,11.83c-.36.17-.63.43-.72.76-.09.3-.04.63.15.97.26.43.87,1.05,2.08.36.55-.31.91-.96.5-1.68-.43-.77-1.35-.7-2.01-.4h0ZM26.1,14.85c.42,0,.86-.14,1.33-.41.95-.55,1.25-1.58.72-2.52-.59-1.06-1.82-1.09-2.79-.66h0c-.53.24-.9.64-1.06,1.14-.15.47-.08.98.21,1.47.38.64.94.98,1.59.98h0ZM23.4,11.71c.1,0,.21.06.27.15.06.12.04.27-.05.37-.66.64-1.07,1.73-.58,2.55.7,1.19,3.03,1.45,4.69.52,1.23-.68,1.65-1.56,1.8-2.16.17-.78,0-1.5-.28-1.87-.58-.84-1.77-1.03-2.6-.78-.13.04-.27-.02-.34-.13-.08-.11-.07-.26.02-.36.44-.51.44-1.01.01-1.75-.62-1.03-2.74-.99-4.04-.23-.81.48-1.38,1.14-1.56,1.82-.11.44-.05.85.18,1.24.35.61,1.37.88,2.42.65.02,0,.04,0,.07,0h0ZM25.48,16.47c-1.24,0-2.43-.43-2.98-1.38-.52-.88-.31-1.89.18-2.68-1.05.04-1.91-.35-2.31-1.02-.31-.52-.39-1.11-.23-1.71.21-.83.89-1.63,1.83-2.19,1.59-.93,4.07-.94,4.88.44.28.48.57,1.14.3,1.85.96-.05,1.98.28,2.58,1.14.32.44.61,1.33.37,2.36-.17.73-.67,1.77-2.09,2.56-.74.41-1.65.64-2.54.64Z"/>
    </g>
  </g>
</svg>