<?xml version="1.0" encoding="UTF-8"?>
<svg id="Layer_2" data-name="Layer 2" xmlns="http://www.w3.org/2000/svg" viewBox="0 0 40.86 48.57" fill="currentColor">
  <defs>
    <style>
      .cls-1 {
        fill: #fff;
      }

      .cls-1, .cls-2, .cls-3, .cls-4 {
        fill-rule: evenodd;
      }

      .cls-2 {
        fill: #1a87c7;
      }

      .cls-3 {
        fill: #bdedf8;
      }

      .cls-4 {
        fill: #66ceef;
      }
    </style>
  </defs>
  <g id="_Layer_" data-name="&amp;lt;Layer&amp;gt;">
    <g>
      <path class="cls-4" d="M6.96,45.35l4.94,2.85c-.23-.16-.23-.44-.2-.7l2.35-13.39c.09-.56.08-1.17-.45-1.52l-4.94-2.85-.08-.04c.6.36.62.92.52,1.56l-2.34,13.39c-.03.26-.04.54.19.7Z"/>
      <path class="cls-2" d="M7.12,45.09l4.27,2.46s.01-.07.01-.09l2.35-13.4c.09-.64,0-1-.31-1.2l-3.99-2.3c.03.25,0,.51-.03.75l-2.34,13.4c-.04.26,0,.34.05.38h0ZM11.9,48.51c-.05,0-.11-.02-.16-.04l-4.94-2.85s-.02-.01-.03-.02c-.42-.29-.35-.8-.32-.99l2.34-13.4c.1-.69,0-1.01-.37-1.24-.15-.08-.19-.27-.11-.41.09-.15.27-.2.42-.12l.08.04,4.95,2.86c.7.47.67,1.27.59,1.83l-2.35,13.4c-.03.28,0,.35.07.39.14.09.18.28.09.42-.06.09-.17.14-.26.14Z"/>
      <path class="cls-3" d="M23.29,9.85l4.95,2.85c.35.16.63.09.98-.06l10.63-4.98c.18-.07.32-.11.5,0l-4.95-2.85c-.17-.1-.31-.06-.48.01l-10.64,4.98c-.34.15-.63.22-.98.06Z"/>
      <path class="cls-2" d="M24.33,10.1l4.05,2.34c.2.08.37.07.71-.08l10.37-4.86-4.22-2.44s-.07-.04-.22.03l-10.63,4.98s-.04.02-.07.03h0ZM28.63,13.11c-.16,0-.34-.03-.53-.12l-4.97-2.87c-.14-.08-.19-.26-.11-.41.07-.15.25-.21.4-.14.22.1.4.08.73-.06l10.63-4.98c.22-.09.48-.17.77,0l4.95,2.85c.14.08.19.27.11.42-.09.15-.27.2-.43.12-.03-.02-.06-.04-.21.02l-10.62,4.98c-.22.09-.45.18-.71.18Z"/>
      <path class="cls-3" d="M11.64,17.08L1,24.37c-.24.18-.39.36-.52.62-.16.32-.32.88.03,1.15l4.95,2.85c-.37-.27-.18-.88,0-1.21.14-.24.27-.4.5-.56l10.64-7.29c.69-.5,1.1-1.13,1.36-1.94l4.24-13.77c.15-.41.71-1.29,1.26-1L18.51.37c-.55-.29-1.11.58-1.25.99l-4.24,13.78c-.27.8-.69,1.44-1.37,1.94Z"/>
      <path class="cls-2" d="M11.64,17.08h0,0ZM18.28.62s-.05,0-.09.02c-.26.1-.55.55-.63.82l-4.25,13.77c-.3.92-.77,1.58-1.48,2.1t0,0L1.18,24.62c-.18.14-.3.28-.42.51-.13.28-.21.64-.06.76l4.26,2.45c.03-.24.12-.49.24-.71.16-.29.33-.48.58-.66l10.65-7.3c.6-.43.98-.99,1.24-1.78l4.25-13.77c.08-.22.32-.73.7-1.04l-4.25-2.46s-.04-.02-.08-.02h0ZM5.46,29.3c-.05,0-.12-.01-.16-.04L.35,26.41c-.42-.31-.46-.88-.15-1.54.17-.33.35-.54.62-.74l10.64-7.29c.6-.43,1-1,1.26-1.78L16.96,1.27c.12-.36.5-1,1-1.21.23-.09.48-.09.69.03l4.95,2.86c.14.08.19.27.11.42-.09.15-.27.2-.42.12-.05-.03-.11-.03-.17,0-.27.1-.56.56-.65.84l-4.24,13.77c-.3.92-.77,1.58-1.49,2.1l-10.64,7.3c-.17.12-.29.25-.4.45-.15.3-.24.7-.09.82.13.1.16.28.07.42-.06.09-.16.14-.25.14Z"/>
      <path class="cls-1" d="M16.58,19.93l-10.63,7.29c-.68.46-.95,1.61-.43,1.8l8.01,3.53c.46.2.65.78.52,1.56l-2.35,13.39c-.14.84.56,1.03,1.15.3l9.2-11.59c.53-.67,1.16-1.03,1.68-.98l9.2.98c.58.06,1.29-.94,1.14-1.61l-2.33-10.7c-.13-.62.06-1.42.53-2.16l8.01-12.78c.51-.81.24-1.61-.43-1.3l-10.63,4.98c-.63.29-1.11.15-1.38-.36l-4.23-8.89c-.27-.56-1.15-.06-1.41.81l-4.25,13.78c-.23.72-.79,1.61-1.37,1.94Z"/>
      <path class="cls-2" d="M16.75,20.19l-10.62,7.29c-.38.26-.6.8-.56,1.12,0,.03.02.12.06.14l8.03,3.54c.6.27.86.98.71,1.89l-2.35,13.39c-.04.25.02.37.06.39.07.03.29-.01.54-.33l9.2-11.59c.61-.76,1.32-1.16,1.96-1.09l9.19.98c.11.02.3-.09.45-.27.26-.3.42-.71.36-.98l-2.33-10.7c-.16-.7.05-1.57.56-2.39l8.01-12.78c.28-.44.24-.79.16-.88-.04-.05-.15,0-.2.02l-10.64,4.98c-.76.36-1.44.17-1.78-.5l-4.23-8.89c-.04-.06-.05-.07-.1-.06-.2.02-.59.32-.74.83l-4.25,13.78c-.24.75-.82,1.71-1.5,2.11h0ZM12.12,48.57c-.11,0-.21-.02-.3-.06-.35-.15-.5-.55-.42-1.05l2.35-13.39c.1-.62-.02-1.08-.35-1.22l-8.01-3.53c-.24-.09-.4-.32-.43-.63-.06-.52.22-1.29.82-1.7l10.63-7.29s.02,0,.03-.01c.46-.27,1.01-1.04,1.22-1.77l4.25-13.78c.21-.68.75-1.23,1.29-1.27.32-.02.56.13.69.41l4.23,8.88c.06.13.27.53.96.21l10.63-4.98c.36-.17.7-.12.93.13.31.36.27,1.02-.11,1.61l-8.01,12.78c-.43.67-.6,1.39-.49,1.93l2.33,10.7c.11.54-.17,1.15-.5,1.52-.3.34-.66.51-.98.47l-9.19-.98c-.42-.05-.96.28-1.42.86l-9.2,11.59c-.29.37-.64.57-.96.57Z"/>
      <path class="cls-4" d="M17.02,19.56c.45-.48.72-.95.93-1.57l4.25-13.78c.13-.41.7-1.29,1.25-1L18.51.37c-.52-.28-1.08.52-1.23.92l-4.27,13.85c-.21.63-.48,1.09-.93,1.57l4.94,2.85Z"/>
      <path class="cls-2" d="M12.56,16.63l4.4,2.54c.32-.37.53-.76.69-1.27l4.25-13.77c.09-.29.35-.75.7-1.04l-4.25-2.46s-.08-.03-.16,0c-.26.1-.54.51-.63.76l-4.27,13.84c-.18.56-.41.99-.74,1.4h0ZM17.02,19.87c-.05,0-.1-.01-.15-.04l-4.95-2.86c-.08-.05-.14-.13-.15-.22-.02-.09.02-.19.08-.25.41-.43.66-.86.86-1.45L16.99,1.2c.14-.37.51-.96,1-1.14.24-.08.46-.07.67.04l4.95,2.86c.14.08.19.27.11.42-.09.15-.27.2-.42.12-.04-.02-.09-.04-.18,0-.26.1-.56.56-.64.83l-4.24,13.77c-.23.68-.52,1.19-1,1.69-.06.06-.14.09-.23.09Z"/>
    </g>
  </g>
</svg>