<?xml version="1.0" encoding="UTF-8"?>
<svg id="Layer_2" data-name="Layer 2" xmlns="http://www.w3.org/2000/svg" viewBox="0 0 44.14 37.09" fill="currentColor">
  <defs>
    <style>
      .cls-1 {
        fill: #fff;
      }

      .cls-1, .cls-2, .cls-3, .cls-4 {
        fill-rule: evenodd;
      }

      .cls-2 {
        fill: #1a87c7;
      }

      .cls-3 {
        fill: #bdedf8;
      }

      .cls-4 {
        fill: #66ceef;
      }
    </style>
  </defs>
  <g id="_Layer_" data-name="&amp;lt;Layer&amp;gt;">
    <g>
      <path class="cls-1" d="M38.48,5.65c-1.68-1.69-3.68-3.04-5.92-3.96-2.15-.9-4.5-1.38-6.98-1.38s-4.82.49-6.98,1.38c-2.22.92-4.23,2.28-5.92,3.96-1.69,1.68-3.03,3.68-3.96,5.92-.89,2.15-1.38,4.5-1.38,6.98s.5,4.82,1.38,6.98c.93,2.22,2.28,4.23,3.96,5.92,1.69,1.68,3.69,3.04,5.92,3.96,2.16.89,4.51,1.38,6.98,1.38s4.83-.5,6.98-1.38c2.24-.92,4.24-2.29,5.92-3.96s3.04-3.69,3.96-5.92c.9-2.16,1.38-4.51,1.38-6.98s-.49-4.83-1.38-6.98c-.92-2.24-2.28-4.24-3.96-5.92Z"/>
      <path class="cls-2" d="M25.58.6c-2.37,0-4.68.46-6.86,1.36-2.18.9-4.14,2.22-5.82,3.9-1.68,1.68-2.99,3.63-3.89,5.81-.9,2.18-1.36,4.49-1.36,6.87s.45,4.68,1.36,6.86c.9,2.18,2.22,4.14,3.89,5.82,1.68,1.68,3.64,2.99,5.82,3.89,4.34,1.8,9.37,1.8,13.72,0,2.18-.9,4.14-2.22,5.81-3.89,1.69-1.69,3-3.64,3.9-5.82.9-2.17,1.36-4.47,1.36-6.86s-.46-4.7-1.36-6.86c-.9-2.19-2.22-4.14-3.9-5.82h0c-1.68-1.69-3.63-3-5.81-3.9-2.18-.9-4.49-1.36-6.87-1.36h0ZM25.58,37.09c-2.46,0-4.84-.47-7.09-1.41-2.25-.93-4.28-2.29-6.02-4.02-1.74-1.74-3.09-3.77-4.02-6.02-.94-2.25-1.41-4.64-1.41-7.09s.47-4.85,1.41-7.1c.93-2.25,2.29-4.28,4.02-6.02,1.74-1.75,3.77-3.1,6.02-4.03,4.51-1.86,9.68-1.86,14.19,0,2.25.94,4.29,2.29,6.02,4.03,1.74,1.74,3.1,3.76,4.03,6.02.93,2.25,1.41,4.64,1.41,7.1s-.48,4.85-1.41,7.09c-.93,2.26-2.29,4.28-4.03,6.02-1.74,1.74-3.76,3.09-6.02,4.02-2.25.94-4.64,1.41-7.1,1.41Z"/>
      <path class="cls-3" d="M37.36,6.77c-1.54-1.54-3.37-2.77-5.41-3.61-1.96-.81-4.11-1.26-6.37-1.26s-4.41.45-6.36,1.26c-2.03.84-3.87,2.08-5.41,3.61-1.54,1.54-2.77,3.37-3.62,5.41-.82,1.97-1.26,4.11-1.26,6.37s.44,4.41,1.26,6.37c.84,2.04,2.08,3.87,3.62,5.4,1.54,1.54,3.37,2.77,5.41,3.62,1.95.81,4.11,1.26,6.36,1.26s4.41-.45,6.37-1.26c2.03-.84,3.87-2.08,5.41-3.62,1.54-1.53,2.77-3.36,3.61-5.4.81-1.96,1.26-4.11,1.26-6.37s-.45-4.41-1.26-6.37c-.84-2.03-2.07-3.87-3.61-5.41Z"/>
      <path class="cls-2" d="M25.58,2.2c-2.16,0-4.27.41-6.25,1.23-1.98.82-3.77,2.02-5.3,3.55-1.54,1.53-2.73,3.32-3.54,5.31-.83,1.97-1.24,4.07-1.24,6.25s.42,4.27,1.24,6.25c.81,1.99,2.01,3.77,3.54,5.3,1.53,1.54,3.32,2.73,5.3,3.55,3.96,1.64,8.54,1.63,12.51,0,1.98-.82,3.77-2.01,5.3-3.55,1.53-1.53,2.72-3.31,3.55-5.3.83-1.98,1.23-4.08,1.23-6.25s-.41-4.28-1.23-6.25c-.83-1.99-2.02-3.78-3.55-5.31-1.53-1.53-3.32-2.73-5.3-3.55-1.99-.82-4.1-1.23-6.26-1.23h0ZM25.58,35.5c-2.24,0-4.42-.43-6.48-1.29-2.06-.85-3.91-2.09-5.5-3.69-1.59-1.59-2.83-3.44-3.68-5.5-.85-2.05-1.29-4.24-1.29-6.48s.44-4.43,1.29-6.49c.85-2.06,2.09-3.91,3.68-5.5,1.59-1.59,3.44-2.83,5.5-3.69,4.12-1.7,8.86-1.69,12.98,0,2.06.86,3.91,2.1,5.5,3.69h0c1.59,1.59,2.82,3.44,3.69,5.5.85,2.06,1.28,4.24,1.28,6.49s-.43,4.43-1.28,6.48c-.86,2.07-2.1,3.92-3.69,5.5-1.59,1.59-3.44,2.83-5.5,3.69-2.06.85-4.24,1.29-6.49,1.29Z"/>
      <path class="cls-4" d="M38.24,7.71c.61.7,2.14,2.97,2.8,4.61.83,2.04,1.23,4.22,1.2,6.39-.03,2.18-.47,4.35-1.33,6.37-.83,1.95-2.06,3.78-3.68,5.36-1.62,1.58-3.47,2.77-5.44,3.56-.82.33,1.51-2.43.07-3.96-1.44-1.51-7.55.24-7.38-2.88.17-3.12,1.53-3.1,2.25-4.74.72-1.63,1.57-.31,4.63-1.36,3.06-1.04,7.13-.89,8.45-2.28,1.33-1.38-5.07.27-6.25-.03-1.17-.3-1.42-1.7-2.26-1.66-.84.05-.36,1.57-1.31,1.86-.94.3-3.48.74-3.63-.34-.59-4.14,2.6-2.82,2.79-3.05.84-.97-1-1.75.14-3.13,1.14-1.37,2.27-1.62,2.87-2.58.59-.97-1.41-1.7-.49-2.45.92-.75,5.94-.45,6.57.29Z"/>
      <path class="cls-2" d="M28.24,21.85c-.69,0-.93.05-1.22.71-.27.62-.62,1.01-.96,1.38-.6.67-1.17,1.32-1.27,3.25-.08,1.45,1.45,1.64,3.79,1.78,1.46.09,2.84.16,3.51.87,1.05,1.1.38,2.74.02,3.62-.02.02-.03.06-.04.09,1.85-.8,3.51-1.91,4.95-3.33,1.55-1.51,2.76-3.29,3.61-5.26.84-1.98,1.29-4.08,1.3-6.25.03-2.17-.36-4.28-1.17-6.27-.64-1.61-2.15-3.83-2.75-4.53h0c-.5-.58-5.3-.93-6.14-.24-.2.16-.21.24.19.75.32.41.76.97.36,1.62-.33.52-.8.85-1.29,1.21-.49.35-1.04.74-1.6,1.41-.5.59-.31,1-.09,1.5.21.46.46,1.03-.05,1.63-.14.16-.36.15-.68.11-.48-.05-1.23-.12-1.68.35-.4.42-.51,1.21-.35,2.35,0,.06.03.15.17.23.55.35,2.14.14,3.07-.14.29-.09.37-.37.49-.82.1-.44.25-1.03.9-1.06.59-.02.92.39,1.25.8.3.37.61.75,1.1.87.39.1,1.68-.09,2.81-.24,2.51-.36,3.55-.45,3.81.04.12.23.04.47-.22.74-.86.9-2.62,1.17-4.64,1.5-1.34.22-2.71.43-3.94.85-1.41.48-2.37.48-3.06.47h-.17ZM31.68,34.34c-.12,0-.21-.05-.26-.1-.21-.22-.1-.5.11-1.01.33-.8.89-2.14.11-2.96-.51-.53-1.83-.61-3.1-.68-2.1-.12-4.49-.26-4.37-2.43.12-2.15.78-2.89,1.43-3.62.32-.36.63-.7.85-1.22.48-1.09,1.11-1.09,1.95-1.08.66,0,1.55,0,2.87-.44,1.27-.43,2.67-.66,4.02-.88,1.84-.3,3.58-.57,4.3-1.32.01-.01.01-.02.02-.03-.5-.09-2.04.13-3.08.28-1.36.19-2.54.36-3.04.23-.7-.17-1.11-.68-1.44-1.08-.3-.36-.5-.6-.74-.57-.16,0-.22.11-.33.59-.11.44-.26,1.06-.9,1.25-.7.22-2.69.64-3.58.08-.25-.16-.41-.39-.45-.67-.19-1.36-.03-2.29.52-2.86.65-.69,1.66-.59,2.19-.54.07,0,.16.02.21.02.18-.25.09-.48-.09-.89-.24-.53-.57-1.26.17-2.15.6-.73,1.19-1.16,1.71-1.52.49-.34.86-.61,1.12-1.03.17-.25.03-.49-.31-.91-.3-.39-.8-1.04-.1-1.61,1-.82,6.22-.57,7,.32h0c.62.72,2.18,3.03,2.85,4.69.83,2.08,1.24,4.27,1.22,6.52-.02,2.25-.48,4.43-1.36,6.48-.87,2.04-2.13,3.89-3.74,5.46-1.61,1.57-3.48,2.79-5.54,3.63-.09.03-.17.04-.24.04Z"/>
      <path class="cls-4" d="M24.47,1.92c-3.89.26-7.7,1.88-10.67,4.84-1.6,1.6-2.81,3.44-3.62,5.4-1.69,4.08-1.69,8.69,0,12.77.68,1.63,1.62,3.18,2.85,4.58.09.11.21.16.35.17.13,0,.26-.03.35-.14,1.11-1.29,4.32-2.16,4.54-3.85.17-1.24-1.9-1.74-2.45-2.88-.61-1.29-.12-3.01-.93-4.19-.84-1.23-3.11-1.05-3.96-2.27-.47-.66-.12-1.65.13-2.42.11-.34.51-.54.86-.63,2.27-.57,3.8-.3,6.81-1.6,1.45-.63.65-1.46,1.29-1.72.63-.26,1.63,1.66,2.62.81.98-.84,1.75-4.95,2.09-5.9.36-.96,1.65-.03,2,.17.34.2-.61,2.04-.16,2.37.43.34,2.28-.82,2.51-1.06,1.38-1.37,1.04-2.63.26-3.25-.77-.62-3.15.21-4.51-1.07-.1-.09-.22-.14-.36-.13Z"/>
      <path class="cls-2" d="M24.47,1.92h0,0ZM26.56,5.32h0,0ZM24.5,2.23h-.02c-3.95.26-7.66,1.95-10.46,4.74-1.54,1.54-2.73,3.32-3.55,5.3-1.65,3.98-1.65,8.54,0,12.53.68,1.63,1.62,3.14,2.8,4.49.03.03.07.05.12.05.09,0,.11-.03.11-.04.46-.53,1.23-.97,2.02-1.44,1.14-.67,2.32-1.36,2.43-2.23.07-.5-.36-.86-1.1-1.38-.52-.39-1.06-.78-1.33-1.33-.3-.64-.36-1.37-.41-2.07-.05-.77-.1-1.51-.5-2.08-.36-.53-1.08-.78-1.83-1.03-.81-.27-1.64-.55-2.13-1.23-.54-.76-.19-1.84.06-2.63l.03-.08c.17-.54.81-.75,1.08-.83.82-.21,1.56-.31,2.27-.41,1.27-.17,2.59-.36,4.49-1.18.71-.3.76-.62.8-.94.04-.26.08-.61.5-.78.43-.17.84.16,1.24.48.63.5.96.68,1.29.38.63-.55,1.26-2.96,1.62-4.4.16-.61.29-1.1.38-1.37.14-.36.37-.51.56-.57.6-.21,1.37.26,1.77.51l.11.07c.36.22.23.72.05,1.37-.09.31-.24.9-.17,1.04.28.09,1.83-.79,2.1-1.05.58-.57.88-1.17.85-1.73-.03-.42-.23-.79-.57-1.06-.23-.18-.8-.2-1.39-.21-1-.02-2.24-.04-3.14-.88-.03-.03-.07-.04-.11-.04h0ZM13.4,29.97h-.03c-.23,0-.42-.09-.57-.27-1.22-1.39-2.2-2.97-2.89-4.66-1.72-4.14-1.72-8.87,0-13,.84-2.06,2.09-3.9,3.68-5.5,2.91-2.9,6.76-4.66,10.85-4.93.22-.02.43.06.59.21.72.67,1.79.69,2.73.71.74.02,1.36.03,1.76.35.48.38.76.91.79,1.5.03.51-.12,1.31-1.03,2.2-.11.12-2.2,1.63-2.92,1.08-.39-.3-.22-.96-.03-1.67.07-.24.16-.58.16-.73l-.05-.03c-.25-.16-.92-.57-1.24-.46-.05,0-.12.05-.17.2-.1.24-.22.74-.36,1.31-.55,2.13-1.1,4.1-1.83,4.72-.78.67-1.56.04-2.08-.37-.17-.14-.52-.42-.63-.38-.08.03-.09.04-.12.28-.05.39-.13.98-1.17,1.43-1.98.86-3.34,1.04-4.66,1.23-.72.1-1.41.19-2.2.4-.33.08-.59.24-.64.42l-.03.08c-.23.7-.51,1.56-.15,2.08.37.52,1.08.76,1.83,1.01.82.28,1.67.56,2.15,1.26.48.7.54,1.56.6,2.38.04.67.09,1.31.35,1.85.2.41.68.75,1.14,1.08.69.5,1.46,1.06,1.35,1.97-.16,1.17-1.47,1.95-2.74,2.69-.76.44-1.48.86-1.88,1.32-.14.16-.34.24-.57.24Z"/>
      <path class="cls-1" d="M7.76,8.67l-2.96-1.36,3.31-1.91.64.37c.32.18.45.43.36.68l-.84,2.46-.53-.24Z"/>
      <path class="cls-2" d="M7.89,8.39l.22.09.72-2.13s.05-.16-.22-.31l-.5-.29-2.64,1.52,2.42,1.11h0ZM8.29,9.22s-.08,0-.13-.03l-.53-.24h0l-2.94-1.35c-.11-.05-.18-.16-.18-.27,0-.11.05-.22.16-.28l3.3-1.91c.09-.05.21-.05.3,0l.65.37c.45.26.64.65.5,1.05l-.84,2.45c-.03.09-.09.15-.17.18-.04.02-.08.03-.12.03Z"/>
      <path class="cls-1" d="M23.69,13.37l-2.55-1.48c-.63-.21-1.43,1.18-.93,1.62l2.55,1.48c-.28-.25-.11-.78.05-1.05.12-.2.24-.35.43-.48.14-.09.29-.14.45-.09Z"/>
      <path class="cls-2" d="M20.97,12.17c-.06,0-.29.16-.46.45-.17.3-.19.58-.11.66l1.91,1.11c.04-.21.12-.42.22-.59.12-.21.25-.36.41-.5l-1.97-1.13h0ZM22.76,15.29c-.05,0-.1,0-.16-.04l-2.55-1.48c-.39-.33-.4-.89-.07-1.46.33-.57.83-.85,1.25-.71l2.62,1.5c.14.08.19.25.13.4-.07.14-.24.21-.38.16-.03,0-.06-.02-.2.06-.12.09-.23.19-.33.36-.15.27-.19.58-.1.66.12.1.15.29.05.41-.06.09-.15.13-.25.13Z"/>
      <path class="cls-4" d="M23.22,14.95c.37-.22.68-.75.68-1.18s-.3-.61-.68-.39c-.38.22-.69.75-.69,1.18s.3.61.69.39Z"/>
      <path class="cls-2" d="M23.53,13.59s-.09.02-.16.05c-.28.16-.53.59-.53.92,0,.12.03.17.05.18,0,0,.08,0,.17-.04.28-.17.53-.59.53-.92,0-.11-.04-.16-.05-.17,0,0,0,0-.02,0h0ZM22.91,15.35c-.11,0-.22-.03-.33-.09-.23-.13-.36-.38-.36-.7,0-.55.37-1.18.84-1.45.28-.15.57-.17.79-.05.23.13.36.39.36.71,0,.54-.37,1.18-.84,1.45h0c-.16.09-.31.13-.46.13Z"/>
      <path class="cls-1" d="M20.89,15.66c1.53-2.45,3.07-4.89,4.61-7.34.1-.17.12-.34.06-.5-.06-.17-.21-.31-.43-.43l-1.63-.94-7.44,6.43,4.82,2.78Z"/>
      <path class="cls-2" d="M16.6,12.83l4.19,2.42,4.45-7.09c.06-.1.05-.18.03-.23-.04-.09-.14-.19-.3-.27l-1.43-.84-6.95,6.01h0ZM20.89,15.96c-.05,0-.1,0-.16-.04l-4.82-2.78c-.09-.04-.15-.14-.16-.23-.01-.1.03-.2.1-.26l7.44-6.43c.1-.09.24-.11.36-.03l1.63.94c.28.16.47.36.55.59.09.25.06.52-.09.77l-4.61,7.34c-.06.09-.17.14-.26.14Z"/>
      <path class="cls-1" d="M25.29,22.89c-.74-.2-1.53-.41-2.24-.67-.29-.12-.52-.24-.79-.38l-5.06-2.92-5.34-3.08-.58-.42c-1.35-.98-2.69-1.96-4.04-2.93l-4.22-3.84c-.78-.25-.37-2.17.98-1.7l8.65,3.98,5.69,2.99,2.16,1.25,1.39.83,3.1,1.84c.75.45,1.09,1.07,1.36,1.37,1.39,1.53,1.29,1.74,1.29,2.97-.09.66-1.19.88-1.7.86-.27-.03-.39-.07-.66-.14Z"/>
      <path class="cls-2" d="M25.37,22.6s.05,0,.05,0c.22.06.34.09.57.12.44.01,1.3-.19,1.36-.6v-.2c0-.96,0-1.18-1.21-2.52-.07-.08-.15-.17-.23-.29-.24-.32-.54-.72-1.06-1.03l-6.64-3.91-5.69-2.99L3.87,7.22c-.26-.09-.48-.06-.67.09-.24.21-.3.57-.25.8.02.09.06.2.15.24.04,0,.09.04.12.06l4.22,3.85,4.58,3.32,10.38,5.99c.25.14.48.25.75.36.67.24,1.41.45,2.13.64l.08.03h0ZM26.02,23.33h-.09c-.29-.03-.42-.07-.67-.13l-.05-.02-.09-.02c-.73-.2-1.49-.4-2.19-.66-.3-.12-.55-.24-.83-.4l-10.41-6.02-4.64-3.35-4.2-3.83c-.26-.1-.44-.35-.51-.66-.1-.5.09-1.06.45-1.39.35-.3.81-.37,1.3-.21l8.68,4,5.71,3,3.57,2.09,3.09,1.83c.62.36.97.83,1.23,1.18.07.1.14.18.2.24,1.31,1.46,1.37,1.81,1.37,2.94v.24c-.12.9-1.32,1.16-1.94,1.16Z"/>
      <path class="cls-4" d="M25.3,20.26c-.98.57-1.74.04-2.66-.42l.39.03c1.23.1,2.84-.9,2.55-1.56.54.77.89,1.29-.28,1.95Z"/>
      <path class="cls-2" d="M23.89,20.11c.42.14.8.15,1.25-.11.37-.22.57-.42.62-.59.02-.09,0-.21-.07-.34-.36.47-1.08.86-1.8,1.04h0ZM25.3,20.26h.01-.01ZM24.44,20.82c-.59,0-1.13-.28-1.66-.56l-.28-.14c-.13-.07-.2-.22-.16-.37.03-.14.16-.23.31-.22l.4.03c.8.07,1.84-.43,2.16-.9.04-.06.11-.16.07-.23-.06-.15-.01-.32.13-.4.14-.08.31-.03.41.1.33.47.64.91.53,1.41-.08.36-.37.68-.91.99h0c-.36.21-.69.29-1.01.29Z"/>
      <path class="cls-1" d="M13.58,19.27l-2.57-1.48c-.63-.22-1.42,1.18-.93,1.61l2.55,1.48c-.21-.18-.16-.53-.09-.76.07-.18.17-.36.29-.51.16-.2.46-.43.74-.34Z"/>
      <path class="cls-2" d="M10.85,18.05c-.07,0-.3.16-.47.46-.17.3-.19.58-.11.66l1.91,1.1c.02-.08.04-.17.07-.25.07-.22.19-.42.34-.61.07-.08.14-.16.22-.22l-1.96-1.14h0ZM12.64,21.19c-.05,0-.1-.02-.15-.04l-2.57-1.48c-.39-.33-.4-.89-.07-1.46.33-.58.82-.86,1.25-.71l2.62,1.5c.14.08.19.25.13.39-.07.15-.22.22-.38.17-.08-.03-.26.08-.4.25-.09.11-.17.26-.23.4-.06.19-.07.38,0,.44.11.11.14.28.04.41-.06.09-.16.13-.25.13Z"/>
      <path class="cls-1" d="M17.22,17.78c-4.24.89-8.48,1.77-12.73,2.66-.57.12-1.17.04-1.61-.21l-1.62-.94,11.13-4.29,4.83,2.78Z"/>
      <path class="cls-2" d="M1.97,19.34l1.07.62c.36.22.89.28,1.39.18l11.93-2.49-4-2.3L1.97,19.34h0ZM3.95,20.8c-.45,0-.88-.1-1.23-.3l-1.62-.95c-.11-.05-.16-.17-.15-.29,0-.12.08-.22.19-.26l11.14-4.3c.09-.03.18-.02.26.02l4.82,2.78c.11.07.17.19.16.32-.02.12-.12.23-.24.25l-12.72,2.65c-.21.04-.41.07-.61.07Z"/>
      <path class="cls-1" d="M6.14,9.91l-4,.6c-.45.05-.86-.03-1.18-.21l-.64-.37,3.3-1.91,2.53,1.9Z"/>
      <path class="cls-2" d="M.92,9.93l.19.1c.26.16.61.21.99.17l3.27-.48-1.78-1.33-2.67,1.54h0ZM1.86,10.83c-.39,0-.76-.09-1.06-.26l-.64-.39c-.09-.05-.15-.16-.15-.26,0-.11.06-.22.15-.27l3.3-1.9c.11-.07.24-.06.34.02l2.53,1.9c.1.07.15.2.12.32-.03.12-.13.21-.26.23l-4.01.6c-.11,0-.21.02-.32.02Z"/>
      <polygon class="cls-1" points="3.13 6.99 2.22 2.16 3.62 2.97 6.92 8.92 3.13 6.99"/>
      <path class="cls-2" d="M3.4,6.79l2.76,1.4L3.39,3.19l-.75-.43.76,4.03h0ZM6.92,9.23s-.1,0-.14-.03l-3.79-1.93c-.09-.05-.15-.12-.17-.22l-.91-4.84c-.03-.11.02-.23.12-.3.11-.07.22-.08.33-.02l1.41.81s.09.07.12.12l3.3,5.96c.07.11.05.26-.04.36-.06.06-.14.09-.22.09Z"/>
      <path class="cls-4" d="M13.19,20.92c.37-.22.68-.75.68-1.18s-.3-.61-.68-.39c-.38.22-.69.75-.69,1.18s.31.61.69.39Z"/>
      <path class="cls-2" d="M13.5,19.55s-.08.02-.15.05c-.29.17-.53.59-.53.92,0,.11.03.17.04.17.02.01.08.01.17-.04h0c.29-.17.53-.59.53-.92,0-.11-.03-.17-.04-.17,0,0-.02,0-.03,0h0ZM12.89,21.32c-.12,0-.23-.03-.34-.09-.22-.12-.35-.38-.35-.7,0-.54.37-1.18.84-1.45.28-.16.57-.17.79-.05.23.12.36.38.36.71,0,.54-.36,1.18-.84,1.45h0c-.15.09-.31.13-.46.13Z"/>
      <path class="cls-2" d="M20.45,18.88c-.16,0-.3-.14-.3-.31v-.31c0-.17.14-.3.3-.3.17,0,.31.13.31.3v.31c0,.17-.14.31-.31.31Z"/>
      <path class="cls-2" d="M19.18,18.16c-.16,0-.3-.14-.3-.31v-.3c0-.17.14-.31.3-.31.18,0,.31.14.31.31v.3c0,.17-.14.31-.31.31Z"/>
      <path class="cls-2" d="M17.92,17.41c-.18,0-.31-.13-.31-.3v-.3c0-.17.14-.31.31-.31.16,0,.3.14.3.31v.3c0,.17-.14.3-.3.3Z"/>
      <path class="cls-2" d="M16.65,16.68c-.16,0-.3-.13-.3-.3v-.3c0-.18.14-.31.3-.31.17,0,.31.14.31.31v.3c0,.17-.14.3-.31.3Z"/>
      <path class="cls-2" d="M15.39,15.95c-.17,0-.31-.13-.31-.3v-.3c0-.17.14-.31.31-.31s.3.14.3.31v.3c0,.17-.14.3-.3.3Z"/>
      <path class="cls-2" d="M14.12,15.23c-.17,0-.3-.14-.3-.31v-.3c0-.17.14-.31.3-.31s.31.14.31.31v.3c0,.17-.14.31-.31.31Z"/>
      <path class="cls-2" d="M12.85,14.49c-.17,0-.3-.14-.3-.3v-.3c0-.18.14-.31.3-.31.18,0,.31.14.31.31v.3c0,.16-.14.3-.31.3Z"/>
      <path class="cls-2" d="M11.59,13.76c-.17,0-.31-.14-.31-.3v-.3c0-.18.14-.31.31-.31s.3.14.3.31v.3c0,.17-.14.3-.3.3Z"/>
    </g>
  </g>
</svg>