<?xml version="1.0" encoding="UTF-8"?>
<svg id="Layer_2" data-name="Layer 2" xmlns="http://www.w3.org/2000/svg" viewBox="0 0 41.05 41.02" fill="currentColor">
  <defs>
    <style>
      .cls-1 {
        fill: #fff;
      }

      .cls-1, .cls-2, .cls-3, .cls-4 {
        fill-rule: evenodd;
      }

      .cls-2 {
        fill: #1a87c7;
      }

      .cls-3 {
        fill: #bdedf8;
      }

      .cls-4 {
        fill: #66ceef;
      }
    </style>
  </defs>
  <g id="_Layer_" data-name="&amp;lt;Layer&amp;gt;">
    <g>
      <path class="cls-1" d="M6.24,6.22C9.9,2.57,14.93.31,20.51.31s10.64,2.26,14.31,5.91c3.64,3.66,5.92,8.71,5.92,14.29s-2.28,10.63-5.92,14.29c-3.67,3.66-8.72,5.92-14.31,5.92s-10.61-2.26-14.28-5.92C2.59,31.14.31,26.09.31,20.51S2.59,9.88,6.24,6.22Z"/>
      <path class="cls-2" d="M20.51.62c-5.29,0-10.3,2.07-14.04,5.82h0C2.7,10.21.63,15.2.63,20.51s2.07,10.32,5.84,14.07c3.75,3.75,8.75,5.83,14.04,5.83s10.32-2.08,14.07-5.83c3.77-3.75,5.84-8.75,5.84-14.07s-2.07-10.31-5.84-14.07C30.84,2.69,25.83.62,20.51.62h0ZM20.51,41.02c-5.48,0-10.61-2.13-14.49-6.01C2.15,31.14,0,26,0,20.51S2.15,9.88,6.03,6h0C9.9,2.14,15.04,0,20.51,0s10.64,2.14,14.51,6c3.88,3.88,6,9.03,6,14.51s-2.12,10.63-6,14.51c-3.88,3.88-9.01,6.01-14.51,6.01Z"/>
      <path class="cls-3" d="M26.75,35.17c-8.99,2.41-18.18-2.91-20.59-11.88C3.75,14.32,9.06,5.11,18.05,2.71c8.96-2.41,18.16,2.91,20.57,11.88,2.41,8.96-2.91,18.17-11.87,20.57h0ZM25.75,40.03c10.77-2.89,17.16-13.97,14.28-24.74C37.15,4.51,26.07-1.88,15.3,1.01,4.53,3.89-1.86,14.97,1.02,25.74c2.88,10.77,13.96,17.17,24.73,14.28h0Z"/>
      <path class="cls-2" d="M22.4,2.44c-1.42,0-2.86.18-4.27.57-4.27,1.14-7.81,3.87-10.03,7.68-2.2,3.82-2.78,8.26-1.62,12.52,1.13,4.26,3.85,7.81,7.68,10.01,3.8,2.21,8.25,2.79,12.52,1.65,8.78-2.36,14.02-11.41,11.66-20.2-1.99-7.36-8.67-12.23-15.93-12.23h0ZM22.4,36.05c-7.57,0-14.49-5.05-16.53-12.69-1.18-4.41-.58-9.02,1.7-12.98,2.28-3.96,5.97-6.8,10.37-7.98C27.06-.04,36.47,5.4,38.93,14.51c2.44,9.12-3.01,18.52-12.1,20.96-1.49.39-2.96.58-4.43.58h0ZM20.57.62c3.43,0,6.84.91,9.9,2.68,4.61,2.65,7.89,6.94,9.27,12.07,2.83,10.6-3.49,21.52-14.07,24.36h0c-5.14,1.38-10.48.67-15.09-1.98-4.61-2.66-7.89-6.94-9.27-12.08C-.05,20.53.65,15.17,3.3,10.57,5.97,5.97,10.24,2.68,15.38,1.3c1.7-.46,3.46-.69,5.19-.69h0ZM20.49,41.02c-3.54,0-7.05-.93-10.22-2.75-4.74-2.74-8.12-7.16-9.54-12.45C-.68,20.53.03,15,2.78,10.27,5.5,5.52,9.93,2.13,15.22.71,20.51-.7,26.04.02,30.78,2.76c4.74,2.74,8.12,7.16,9.54,12.45,2.93,10.92-3.56,22.18-14.49,25.11h0c-1.76.47-3.56.7-5.34.7Z"/>
      <path class="cls-4" d="M23.92,6.86c-3.54.11-7.07.93-10.35,2.27-.65,3.4-.79,6.87-.84,10.33,1.1.42,2.17.85,3.28,1.29,2.33.93,4.69,1.87,7.07,2.68,2.52-2.44,4.93-5.21,6.63-8.29-1.65-3.08-3.33-5.75-5.79-8.27Z"/>
      <path class="cls-2" d="M13.05,19.24c1.02.39,2.02.79,3.04,1.19,2.28.91,4.61,1.83,6.92,2.63,2.8-2.71,4.87-5.32,6.37-7.94-1.42-2.62-3.09-5.39-5.58-7.94-3.28.11-6.63.84-9.96,2.17-.63,3.32-.73,6.7-.79,9.9h0ZM23.08,23.72s-.08,0-.1,0c-2.38-.82-4.77-1.76-7.1-2.69-1.1-.44-2.17-.87-3.25-1.29-.13-.05-.21-.17-.21-.3.05-3.33.16-6.88.84-10.38.03-.1.08-.19.18-.22,3.49-1.42,7.02-2.18,10.48-2.29.08-.02.16.03.24.09,2.62,2.69,4.38,5.6,5.84,8.33.05.09.05.2,0,.3-1.55,2.77-3.75,5.5-6.71,8.37-.05.05-.13.08-.21.08Z"/>
      <path class="cls-4" d="M37.41,17.24c.16.42.29.84.39,1.27.08.36.18.74.26,1.1.16.68.26,1.37.37,2.05.24,1.5.37,3.02.45,4.53l1.23-.67c.39-1.6.63-3.28.63-5.01,0-2.97-.65-5.81-1.81-8.35-.11.95-.29,1.8-.52,2.58-.29.9-.63,1.72-1,2.5Z"/>
      <path class="cls-2" d="M37.75,17.25c.1.39.24.78.34,1.17.1.38.18.75.26,1.12.16.63.29,1.31.39,2.07.18,1.21.31,2.5.42,4.07l.68-.37c.37-1.56.58-3.17.58-4.8,0-2.5-.45-4.93-1.36-7.23-.11.53-.21,1.04-.37,1.55-.23.8-.55,1.59-.94,2.42h0ZM38.88,26.49s-.08,0-.13-.03c-.11-.05-.16-.15-.16-.25-.13-1.76-.26-3.19-.45-4.49-.13-.75-.24-1.42-.37-2.03-.08-.37-.18-.73-.26-1.09-.13-.43-.26-.85-.39-1.26-.03-.08-.03-.16.03-.23.39-.84.71-1.64.94-2.44.26-.82.42-1.64.52-2.53.03-.14.13-.24.26-.27.13-.03.29.05.34.18,1.21,2.67,1.83,5.52,1.83,8.47,0,1.72-.24,3.42-.66,5.08-.03.09-.08.15-.13.2l-1.23.67c-.05.03-.1.03-.16.03Z"/>
      <path class="cls-4" d="M21.27,40.71c3.54-.13,6.81-1.16,9.62-2.85l1.94-4.07c-2.54-.35-5.08-.7-7.62-1.05h-.03c-2.17,1.84-4.48,3.48-6.97,4.89.94,1.11,1.91,2.18,3.07,3.08Z"/>
      <path class="cls-2" d="M18.68,37.71c.81.93,1.68,1.88,2.7,2.69,3.28-.14,6.47-1.09,9.27-2.76l1.73-3.61c-2.38-.32-4.74-.65-7.13-.98-2.07,1.77-4.3,3.34-6.58,4.66h0ZM21.27,41.02c-.05,0-.11-.02-.16-.06-1.23-.94-2.25-2.05-3.14-3.13-.08-.07-.08-.16-.08-.25.03-.09.08-.17.16-.21,2.41-1.37,4.74-3,6.92-4.87.08-.05.16-.09.24-.07,2.59.36,5.14.71,7.68,1.06.08.01.18.07.21.16.05.09.05.19.03.28l-1.94,4.07s-.05.09-.11.13c-2.96,1.76-6.31,2.76-9.77,2.89h-.03Z"/>
      <path class="cls-4" d="M10.45,2.99c-1.55.9-2.96,1.98-4.22,3.23-1.86,1.87-3.2,3.91-4.27,6.32.87-1.35,2.2-3.05,3.27-4.1.97-.93,1.96-1.66,2.99-2.02.18-.68.58-1.38,1.1-2.08.34-.46.73-.91,1.13-1.36Z"/>
      <path class="cls-2" d="M8.96,4.31c-.89.65-1.73,1.36-2.51,2.13-.79.8-1.49,1.64-2.12,2.53.24-.28.5-.53.71-.76,1-.97,1.99-1.66,2.93-2.02.18-.58.52-1.2,1-1.88h0ZM1.96,12.85c-.05,0-.1,0-.16-.03-.16-.08-.21-.25-.13-.4,1.13-2.53,2.49-4.56,4.35-6.41,1.26-1.28,2.7-2.38,4.27-3.28.13-.07.29-.04.39.08.1.12.08.29,0,.4-.45.48-.81.91-1.13,1.33-.52.73-.89,1.39-1.05,1.97-.03.1-.1.18-.18.21-.92.32-1.89.98-2.85,1.95-1.05,1.02-2.38,2.69-3.28,4.05-.05.09-.16.14-.24.14Z"/>
      <path class="cls-4" d="M23.97.6c.81.33,1.73.82,2.46,1.57.55-.09,1.39.03,2.31.27.65.17,1.36.4,2.02.65-2.04-1.22-4.32-2.08-6.79-2.49Z"/>
      <path class="cls-2" d="M26.88,1.83c.18,0,.39.02.65.04-.52-.18-1.02-.36-1.52-.5.18.15.37.31.55.47.08,0,.18-.02.31-.02h0ZM30.76,3.4s-.08,0-.11-.02c-.68-.26-1.36-.49-1.99-.64-.94-.25-1.7-.34-2.17-.26-.08.02-.18-.02-.26-.09-.58-.6-1.39-1.1-2.36-1.5-.16-.06-.24-.22-.18-.37.03-.15.18-.24.34-.22,2.44.42,4.77,1.27,6.89,2.53.16.08.21.25.13.4-.05.11-.16.17-.29.17Z"/>
      <path class="cls-4" d="M1.1,21.59c-.13.69-.18,1.38-.18,2.07-.03.76.03,1.53.13,2.29.92,3.23,2.59,6.14,4.85,8.49.55-.05,1.07-.12,1.57-.2.45-.07.84-.16,1.15-.26-.47-1.35-.97-2.7-1.39-4.14-.45-1.46-.84-3-1.13-4.67-1-.51-1.94-1.1-2.8-1.73-.81-.58-1.55-1.22-2.2-1.86Z"/>
      <path class="cls-2" d="M1.31,22.22c-.05.47-.1.94-.1,1.43,0,.7.05,1.44.16,2.25.84,3.03,2.46,5.88,4.64,8.21.5-.05.97-.11,1.41-.18.31-.05.58-.1.81-.17-.42-1.14-.89-2.46-1.31-3.83-.45-1.57-.81-3.07-1.07-4.56-.97-.5-1.89-1.06-2.72-1.68-.66-.47-1.26-.96-1.81-1.48h0ZM5.89,34.76c-.08,0-.18-.04-.24-.1-2.31-2.43-4.01-5.42-4.9-8.62-.13-.89-.18-1.65-.16-2.39,0-.72.08-1.44.21-2.12.03-.11.11-.2.21-.23.11-.03.24,0,.31.08.63.63,1.34,1.25,2.15,1.83.86.63,1.78,1.2,2.78,1.69.08.05.13.13.16.23.26,1.52.63,3.03,1.1,4.63.45,1.5.97,2.92,1.39,4.12.03.08.03.17,0,.23-.05.08-.11.14-.18.17-.31.1-.71.19-1.2.27-.5.08-1.02.15-1.6.21h-.03Z"/>
      <path class="cls-2" d="M23.92,7.16c-.05,0-.11,0-.13-.03-.16-.08-.21-.27-.13-.42l2.51-4.68c.08-.15.26-.2.42-.12.16.08.21.27.13.42l-2.52,4.68c-.08.1-.18.15-.29.15Z"/>
      <path class="cls-2" d="M37.41,17.54s-.05,0-.08-.01l-7.7-2.11c-.16-.04-.26-.22-.21-.38.05-.16.21-.26.39-.21l7.68,2.1c.16.05.26.22.21.38-.03.14-.16.23-.29.23Z"/>
      <path class="cls-2" d="M25.2,33.05c-.13,0-.26-.09-.29-.23l-2.15-9.33c-.03-.17.08-.33.24-.37.18-.04.34.06.37.23l2.15,9.32c.03.16-.08.33-.24.37-.03,0-.05,0-.08,0Z"/>
      <path class="cls-2" d="M6.1,25.5c-.08,0-.16-.03-.23-.1-.11-.13-.08-.32.05-.44l6.6-5.75c.13-.11.34-.09.45.03.1.12.1.32-.03.43l-6.63,5.74c-.05.05-.13.08-.21.08Z"/>
      <path class="cls-2" d="M13.57,9.43c-.05,0-.11,0-.16-.03l-5.35-2.7c-.13-.08-.21-.26-.13-.41.08-.16.26-.22.42-.14l5.35,2.7c.16.08.21.26.13.42-.05.11-.16.17-.26.17Z"/>
      <path class="cls-2" d="M1.1,21.9h0c-.18-.02-.31-.17-.29-.34l.84-9.06c0-.16.16-.29.34-.28.16.02.29.17.26.34l-.84,9.06c0,.15-.16.28-.31.28Z"/>
      <path class="cls-2" d="M18.21,37.94c-.05,0-.08-.01-.1-.02l-9.59-3.65c-.16-.06-.24-.24-.18-.4.08-.16.24-.24.39-.17l9.59,3.64c.16.06.24.24.18.4-.05.12-.16.2-.29.2Z"/>
      <path class="cls-2" d="M32.83,34.1c-.05,0-.13-.02-.18-.07-.13-.1-.16-.3-.05-.42l6.05-7.61c.11-.14.31-.15.45-.05.13.11.16.31.05.44l-6.08,7.6c-.05.08-.13.12-.24.12Z"/>
    </g>
  </g>
</svg>