<?xml version="1.0" encoding="UTF-8"?>
<svg id="Layer_2" data-name="Layer 2" xmlns="http://www.w3.org/2000/svg" viewBox="0 0 21.02 41.41" fill="currentColor">
  <defs>
    <style>
      .cls-1 {
        fill: #1a87c7;
      }

      .cls-1, .cls-2, .cls-3 {
        fill-rule: evenodd;
      }

      .cls-2 {
        fill: #bdedf8;
      }

      .cls-3 {
        fill: #66ceef;
      }
    </style>
  </defs>
  <g id="_Layer_" data-name="&amp;lt;Layer&amp;gt;">
    <g>
      <path class="cls-3" d="M14.3,16.91l6.41-3.7-6.33-3.65-6.42,3.7,6.34,3.65h0ZM.31,7.55L12.85.31l6.33,3.65-12.54,7.25v12.58l3.55,2.04v15.27l-6.34-3.65v-11.19l-3.54-2.04V7.55Z"/>
      <path class="cls-1" d="M8.58,13.26l5.72,3.29,5.8-3.35-5.72-3.3-5.8,3.35h0ZM14.3,17.22c-.05,0-.1-.02-.16-.04l-6.33-3.66c-.09-.05-.16-.16-.16-.26,0-.11.06-.22.16-.27l6.41-3.7c.1-.05.22-.05.31,0l6.33,3.66c.09.05.15.16.15.26,0,.11-.06.22-.15.27l-6.41,3.7c-.05.03-.1.04-.16.04h0ZM4.16,37.27v-11.01c0-.11-.05-.21-.15-.26l-3.39-1.96V7.72L12.85.67l5.71,3.29-12.07,6.98c-.1.05-.16.16-.16.27v12.58c0,.11.06.21.16.26l3.38,1.95v14.57l-5.72-3.3h0ZM10.19,41.41c-.06,0-.11-.02-.16-.04l-6.34-3.66c-.09-.05-.15-.16-.15-.26v-11.01l-3.39-1.95c-.09-.06-.15-.16-.15-.27V7.55c0-.11.06-.22.15-.27L12.7.04c.1-.05.21-.05.3,0l6.34,3.66c.1.05.16.15.16.26,0,.11-.06.22-.16.27l-12.39,7.15v12.22l3.38,1.96c.09.05.16.16.16.27v15.27c0,.11-.06.22-.16.27-.04.02-.09.04-.15.04Z"/>
      <polygon class="cls-3" points="6.64 11.5 .31 7.85 .31 24.21 3.85 26.26 3.85 37.45 10.19 41.1 10.19 25.83 6.64 23.78 6.64 11.5"/>
      <path class="cls-1" d="M4.16,37.27l5.72,3.3v-14.57l-3.38-1.95c-.1-.05-.16-.16-.16-.26v-12.1L.62,8.38v15.65l3.39,1.96c.1.05.15.16.15.26v11.01h0ZM10.19,41.41c-.06,0-.11-.02-.16-.04l-6.34-3.66c-.09-.05-.15-.16-.15-.26v-11.01l-3.39-1.95c-.09-.06-.15-.16-.15-.27V7.85c0-.11.06-.22.15-.27.1-.05.22-.05.31,0l6.33,3.66c.09.05.16.16.16.26v12.1l3.38,1.96c.09.05.16.16.16.27v15.27c0,.11-.06.22-.16.27-.04.02-.09.04-.15.04Z"/>
      <polygon class="cls-2" points="6.64 11.21 19.18 3.96 14.3 16.91 20.71 13.21 10.19 41.1 10.19 25.83 6.64 27.87 6.64 11.21"/>
      <path class="cls-1" d="M10.19,25.52c.05,0,.11.02.15.04.09.05.16.16.16.27v13.58l9.63-25.5-5.67,3.27c-.11.07-.26.05-.36-.03-.09-.08-.14-.22-.09-.34l4.58-12.14-11.64,6.72v15.95l3.08-1.77s.09-.04.16-.04h0ZM10.19,41.41s-.04,0-.06,0c-.15-.03-.25-.16-.25-.3v-14.74l-3.08,1.77c-.1.06-.21.06-.3,0-.1-.05-.16-.16-.16-.26V11.21c0-.11.06-.22.16-.27l12.54-7.24c.1-.07.25-.05.35.02.1.09.14.23.09.35l-4.58,12.14,5.67-3.27c.12-.07.25-.05.36.03.09.09.13.23.09.35l-10.53,27.89c-.05.12-.17.2-.29.2Z"/>
      <path class="cls-1" d="M6.64,28.18c-.05,0-.1-.01-.15-.04L.15,24.48c-.15-.09-.2-.28-.11-.43.09-.15.28-.19.43-.11l6.33,3.66c.15.09.2.28.11.42-.05.11-.16.16-.27.16Z"/>
    </g>
  </g>
</svg>