<?xml version="1.0" encoding="UTF-8"?>
<svg id="Layer_2" data-name="Layer 2" xmlns="http://www.w3.org/2000/svg" viewBox="0 0 27.28 43.78" fill="currentColor">
  <defs>
    <style>
      .cls-1 {
        fill: #fff;
      }

      .cls-1, .cls-2, .cls-3, .cls-4 {
        fill-rule: evenodd;
      }

      .cls-2 {
        fill: #1a87c7;
      }

      .cls-3 {
        fill: #bdedf8;
      }

      .cls-4 {
        fill: #66ceef;
      }
    </style>
  </defs>
  <g id="_Layer_" data-name="&amp;lt;Layer&amp;gt;">
    <g>
      <polygon class="cls-3" points="13.64 40.78 26.98 33.09 13.64 25.4 .3 33.09 13.64 40.78"/>
      <path class="cls-2" d="M.96,33.09l12.68,7.32,12.68-7.32-12.68-7.31L.96,33.09h0ZM13.64,41.11c-.06,0-.11-.02-.14-.04L.16,33.37c-.11-.05-.16-.16-.16-.28,0-.11.05-.22.16-.27l13.34-7.69c.08-.06.22-.06.3,0l13.34,7.69c.08.06.14.16.14.27,0,.12-.06.23-.14.28l-13.34,7.7c-.06.03-.11.04-.16.04Z"/>
      <polygon class="cls-4" points=".33 35.77 13.64 43.45 13.64 40.78 .33 33.09 .33 35.77"/>
      <path class="cls-2" d="M.63,35.58l12.71,7.32v-1.93L.63,33.65v1.93h0ZM13.64,43.78c-.06,0-.11-.02-.14-.05L.16,36.04c-.11-.05-.16-.16-.16-.27v-2.68c0-.11.05-.22.16-.27.08-.06.22-.06.3,0l13.34,7.7c.11.05.16.16.16.27v2.67c0,.12-.06.23-.16.28-.06.03-.11.05-.16.05Z"/>
      <polygon class="cls-1" points="26.98 35.77 13.64 43.45 13.64 40.78 26.98 33.09 26.98 35.77"/>
      <path class="cls-2" d="M13.97,40.97v1.93l12.68-7.32v-1.93l-12.68,7.32h0ZM13.64,43.78c-.06,0-.11-.02-.14-.05-.11-.06-.16-.16-.16-.28v-2.67c0-.11.05-.22.16-.27l13.31-7.7c.11-.06.22-.06.33,0,.08.06.14.16.14.27v2.68c0,.11-.06.22-.14.27l-13.34,7.7c-.06.03-.11.05-.16.05Z"/>
      <path class="cls-1" d="M13.64,34.78c.74,0,1.51-.16,2.05-.49.57-.34.88-.76.88-1.2s-.3-.86-.88-1.19c-.55-.33-1.32-.49-2.05-.49s-1.48.16-2.06.49c-.57.33-.85.76-.85,1.19s.27.86.85,1.2c.58.33,1.32.49,2.06.49Z"/>
      <path class="cls-2" d="M13.64,31.72c-.71,0-1.4.16-1.89.45-.47.26-.71.58-.71.91s.25.65.71.92c.99.58,2.79.58,3.81,0,.44-.25.68-.58.68-.92s-.25-.65-.68-.91c-.52-.29-1.18-.45-1.92-.45h0ZM13.64,35.09c-.82,0-1.62-.19-2.22-.53-.66-.37-1.01-.9-1.01-1.47s.36-1.09,1.01-1.46c1.2-.7,3.26-.7,4.44,0,.66.37,1.04.9,1.04,1.46s-.38,1.1-1.04,1.47c-.57.35-1.37.53-2.22.53Z"/>
      <path class="cls-4" d="M15.69,34.26c.44-.25.85-.64.88-1.15v-15.1c-.05.94-1.23,1.42-2.03,1.56-1.07.2-2.55.04-3.37-.72-.25-.23-.44-.5-.44-.85v15.1c0,.68.74,1.15,1.29,1.37,1.12.43,2.63.37,3.67-.22Z"/>
      <path class="cls-2" d="M15.69,34.26h.03-.03ZM11.04,19.17v13.93c.03.48.6.87,1.12,1.07,1.07.41,2.46.33,3.4-.2.25-.15.68-.46.68-.88v-13.91c-.44.36-1.04.59-1.64.7-1.07.2-2.63.06-3.56-.71h0ZM13.64,35.08c-.58,0-1.18-.1-1.73-.3-.33-.13-1.48-.64-1.51-1.66v-15.11c0-.17.14-.32.3-.33.19-.04.33.14.33.31.03.23.14.44.36.63.71.66,2.11.83,3.1.64.63-.12,1.7-.52,1.75-1.27,0-.16.16-.3.33-.3h0c.19,0,.33.15.33.33v15.1c-.03.55-.38,1.05-1.01,1.44h-.03c-.63.35-1.42.54-2.22.54Z"/>
      <path class="cls-1" d="M15.69,34.26c.44-.25.85-.64.88-1.15v-13.67l-1.97.2v15.03l1.1-.41Z"/>
      <path class="cls-2" d="M14.9,19.93v14.27l.69-.24c.3-.19.66-.48.66-.87v-13.3l-1.34.14h0ZM15.69,34.26h.03-.03ZM14.6,34.98c-.08,0-.14-.02-.19-.05-.08-.07-.14-.16-.14-.27v-15.03c0-.16.11-.3.27-.32l2-.21c.08,0,.16.03.25.08.05.06.11.15.11.24v13.67c-.03.55-.38,1.04-1.01,1.44-.03,0-.05.02-.08.02l-1.1.41c-.06,0-.08.02-.11.02Z"/>
      <path class="cls-1" d="M13.64.32l9.94,22.27c.3.68.49,1.37.44,2.18-.06,1.29-.96,2.25-1.97,3-.33.25-.68.49-1.07.72-2.03,1.16-4.68,1.75-7.34,1.75h0c-2.66,0-5.31-.59-7.34-1.75-.38-.23-.74-.47-1.04-.72-1.04-.74-1.95-1.71-2-3-.03-.74.11-1.39.38-2.02L13.64.32Z"/>
      <path class="cls-2" d="M13.64,29.91h0c2.71,0,5.29-.61,7.18-1.71.38-.22.71-.45,1.01-.68,1.23-.91,1.83-1.78,1.89-2.77.03-.66-.11-1.3-.44-2.04L13.64,1.11,3.94,22.88c-.27.62-.38,1.21-.36,1.87.05.99.63,1.86,1.86,2.76.3.25.66.47,1.01.69,1.92,1.1,4.46,1.71,7.18,1.71h0ZM13.67,30.56h-.03c-2.82,0-5.48-.64-7.51-1.8-.38-.23-.74-.47-1.07-.74-1.37-1-2.08-2.05-2.14-3.24-.03-.76.11-1.47.41-2.16L13.37.19c.05-.12.16-.19.27-.19h0c.14,0,.25.07.3.19l9.92,22.26c.38.84.55,1.55.49,2.33-.06,1.18-.74,2.24-2.11,3.25-.33.25-.71.5-1.1.73-2,1.16-4.66,1.8-7.48,1.8Z"/>
      <path class="cls-4" d="M6.33,28.5h-.03c-.38-.24-.74-.47-1.04-.73-1.04-.74-1.95-1.71-2-3-.03-.74.11-1.39.38-2.02L13.64.32l-7.31,28.18Z"/>
      <path class="cls-2" d="M12.35,3.99L3.94,22.88c-.27.62-.38,1.21-.36,1.87.05.99.63,1.86,1.86,2.76.22.16.44.33.69.48L12.35,3.99h0ZM6.33,28.82c-.06,0-.11-.02-.16-.04l-.03-.02c-.38-.23-.74-.47-1.07-.74-1.37-1-2.08-2.05-2.14-3.24-.03-.76.11-1.47.41-2.16L13.37.19c.05-.16.22-.23.38-.17.16.05.25.22.19.38l-7.29,28.18c-.03.1-.11.18-.19.22-.05.02-.08.03-.14.03Z"/>
    </g>
  </g>
</svg>