<?xml version="1.0" encoding="UTF-8"?>
<svg id="Layer_2" data-name="Layer 2" xmlns="http://www.w3.org/2000/svg" viewBox="0 0 94.52 84.28" fill="currentColor">
  <defs>
    <style>
      .cls-1 {
        fill: #fff;
      }

      .cls-1, .cls-2, .cls-3, .cls-4 {
        fill-rule: evenodd;
      }

      .cls-2 {
        fill: #1a87c7;
      }

      .cls-3 {
        fill: #bdedf8;
      }

      .cls-4 {
        fill: #66ceef;
      }
    </style>
  </defs>
  <g id="_Layer_" data-name="&amp;lt;Layer&amp;gt;">
    <g>
      <path class="cls-4" d="M27.7,46.96c-1.5-2.94-6.32-7.81-10.01-5.79l-5.41,3.13c4.02-2.1,8.73,3.14,10.5,6.62,1.5,3.04,2.89,8.6-.48,10.73,1.07-.62,5.41-3,6.1-3.64,2.68-2.61,1.02-8.06-.7-11.05Z"/>
      <path class="cls-2" d="M15.27,43.3c.21.03.43.09.7.18,3.05.98,5.94,4.41,7.34,7.16,1.07,2.15,2.3,6.05,1.34,8.95,1.39-.8,3-1.7,3.32-2.02,2.36-2.33.8-7.43-.8-10.3v-.02c-1.02-1.88-3.59-4.9-6.32-5.72-1.07-.32-2.03-.26-2.84.2l-2.73,1.58h0ZM22.29,62.27c-.21,0-.43-.11-.53-.3-.16-.28-.11-.67.21-.85,2.89-1.85,1.71-6.95.21-9.92-1.34-2.61-4.02-5.7-6.64-6.54-1.07-.35-2.09-.28-2.94.2-.32.15-.7.04-.86-.27-.16-.3-.05-.68.21-.85l5.41-3.13c1.18-.62,2.46-.73,3.86-.3,2.89.87,5.78,3.9,7.07,6.34,1.55,2.75,3.7,8.78.54,11.81-.54.51-2.78,1.79-5.25,3.16l-.96.55c-.11.07-.21.09-.32.09Z"/>
      <path class="cls-4" d="M22.29,50.07c-1.28-2.2-3.05-4.15-4.98-5.27-1.98-1.14-3.75-1.25-5.03-.5h0c-1.28.74-2.09,2.32-2.09,4.58s.8,4.76,2.09,6.98c1.28,2.22,3.05,4.16,5.03,5.3,1.93,1.12,3.69,1.23,4.98.5,1.29-.74,2.09-2.33,2.09-4.58s-.8-4.76-2.09-6.98v-.02Z"/>
      <path class="cls-2" d="M14.1,44.46c-.54,0-1.07.12-1.5.39-1.12.66-1.77,2.1-1.77,4.04,0,2.08.7,4.44,1.98,6.66,1.29,2.24,3,4.03,4.82,5.06,1.66.98,3.21,1.16,4.34.5,1.12-.66,1.77-2.09,1.77-4.03,0-2.08-.7-4.44-1.98-6.66l.53-.34-.53.32c-1.28-2.22-3-4.01-4.77-5.05-1.02-.58-2.03-.88-2.89-.88h0ZM20.47,62.75c-1.12,0-2.3-.36-3.48-1.07-1.98-1.14-3.85-3.1-5.25-5.51-1.39-2.42-2.14-5.01-2.14-7.3,0-2.42.8-4.23,2.36-5.12,1.55-.9,3.53-.73,5.68.48,1.93,1.16,3.8,3.11,5.19,5.53.05.03.05.07.05.11v.02c1.34,2.29,2.14,4.88,2.14,7.17,0,2.42-.86,4.23-2.41,5.11-.64.37-1.39.57-2.14.57Z"/>
      <path class="cls-3" d="M20.04,51.38c.7,1.22,1.13,2.61,1.13,3.83s-.43,2.11-1.13,2.52c-.7.41-1.66.35-2.73-.27-1.07-.62-2.09-1.69-2.78-2.91l-.05-.05c-.64-1.2-1.07-2.55-1.07-3.78s.43-2.12,1.12-2.52h0c.7-.41,1.71-.36,2.78.26,1.07.62,2.04,1.69,2.73,2.92Z"/>
      <path class="cls-2" d="M15.54,48.57c-.27,0-.48.05-.7.18-.54.3-.86,1.01-.86,1.97,0,1.06.37,2.31,1.07,3.46.7,1.24,1.61,2.18,2.57,2.74.8.49,1.55.58,2.09.28.54-.32.86-1.01.86-1.99,0-1.08-.37-2.35-1.07-3.52h0c-.7-1.19-1.61-2.13-2.52-2.68-.54-.3-1.02-.44-1.45-.44h0ZM19.02,58.65c-.64,0-1.34-.21-2.03-.62-1.18-.65-2.19-1.77-3-3.14-.8-1.42-1.23-2.87-1.23-4.15,0-1.44.54-2.52,1.45-3.06.96-.55,2.14-.46,3.43.27,1.12.64,2.14,1.76,2.94,3.13v.02c.8,1.37,1.23,2.84,1.23,4.14,0,1.44-.48,2.54-1.45,3.07-.43.23-.86.35-1.34.35Z"/>
      <path class="cls-3" d="M4.94,34.22l38.39,22.15v12.31c-5.84-3.41-12.8-7.43-18.95-11.01v-.61c0-2.25-.8-4.76-2.09-6.98v-.02c-1.28-2.2-3.05-4.15-4.98-5.27-1.98-1.14-3.75-1.25-5.03-.5h0c-1.28.74-2.09,2.32-2.09,4.58,0,.21.05.42.05.62l-1.87-1.07c-.96-.55-1.82-1.48-2.41-2.54-.59-1.07-1.02-2.28-1.02-3.36v-8.31Z"/>
      <path class="cls-2" d="M25.02,57.31c5.73,3.34,12.15,7.06,17.67,10.27v-10.85L5.58,35.31v7.23c0,.93.32,2.05.91,3.04.59,1.01,1.39,1.85,2.2,2.31l.91.53c.11-2.18.91-3.83,2.36-4.65,1.55-.9,3.53-.73,5.68.48,1.93,1.16,3.8,3.11,5.19,5.53,1.39,2.42,2.19,5.01,2.19,7.3v.25h0ZM43.33,69.3c-.11,0-.21-.02-.32-.07-5.84-3.42-12.8-7.44-18.95-11.01-.22-.13-.38-.36-.32-.59v-.57c0-2.08-.7-4.44-1.98-6.66-1.28-2.24-3-4.03-4.77-5.06-1.71-.97-3.27-1.15-4.39-.5-1.12.66-1.77,2.1-1.77,4.04v.58c.05.23-.11.46-.27.59-.21.11-.43.12-.64,0l-1.87-1.07c-1.02-.59-1.93-1.56-2.62-2.77-.7-1.2-1.07-2.52-1.07-3.68v-8.31c0-.23.11-.44.27-.55.21-.11.48-.11.64,0l38.39,22.15c.21.12.32.32.32.55v12.31c0,.23-.11.42-.32.55-.11.05-.21.07-.32.07Z"/>
      <path class="cls-4" d="M4.94,34.22l26.45-15.26,38.5,22.24-26.4,15.26c-12.05-6.94-26.72-15.43-38.55-22.24Z"/>
      <path class="cls-2" d="M6.23,34.22l37.27,21.51,25.17-14.53L31.39,19.69l-25.17,14.53h0ZM43.49,57.1c-.11,0-.21-.04-.32-.09L4.62,34.75c-.16-.1-.27-.32-.27-.53,0-.23.11-.44.27-.55l26.45-15.26c.21-.11.43-.11.64,0l38.5,22.26c.21.11.32.32.32.53,0,.23-.11.45-.32.56l-26.4,15.25c-.11.05-.21.09-.32.09Z"/>
      <path class="cls-4" d="M29.36,54.22l1.77-1.01c.27-.16.32-.19.64-.04l11.03,6.36c.32.25.54.57.54,1v9.91l-2.09,1.21c.16-.12.16-.2.16-.37v-9.63c-.05-.43-.21-.74-.59-1l-11.03-6.39c-.16-.07-.27-.11-.43-.04Z"/>
      <path class="cls-2" d="M30.8,54.14l10.33,5.99c.59.37.86.85.91,1.47v8.86l.64-.39.05-9.54c-.05-.2-.11-.34-.32-.48l-10.98-6.3-.64.39h0ZM41.24,72.27c-.21,0-.37-.09-.54-.27-.16-.25-.11-.57.05-.78v-9.57c0-.2-.11-.34-.27-.48l-11.03-6.34c-.27.04-.54-.11-.64-.37-.11-.28-.05-.62.21-.78l1.77-1.01c.38-.21.7-.35,1.23-.03l11.08,6.38c.54.37.8.85.86,1.47v9.96c0,.21-.11.43-.32.54l-2.09,1.2c-.11.05-.21.09-.32.09Z"/>
      <path class="cls-3" d="M41.4,70.07v1.21c0,.36-.27.5-.59.32l-11.03-6.4c-.32-.18-.59-.6-.59-.96v-9.66c0-.35.27-.49.59-.32l11.03,6.39c.32.18.59.62.59.98v8.43Z"/>
      <path class="cls-2" d="M29.84,55.03v9.21c0,.13.11.36.21.41l10.71,6.18v-9.2c0-.12-.11-.36-.21-.43l-10.71-6.18h0ZM41.08,72.3c-.16,0-.37-.05-.53-.16l-11.08-6.4c-.48-.28-.86-.92-.91-1.49v-9.69c.05-.42.21-.74.48-.91.32-.18.7-.16,1.02.04l11.08,6.41c.54.28.91.92.91,1.51v9.64c0,.41-.16.73-.48.9-.16.09-.32.12-.48.12Z"/>
      <path class="cls-4" d="M32.25,60.64c.59.35,1.07.05,1.07-.66s-.48-1.58-1.07-1.95c-.64-.35-1.12-.07-1.12.66s.48,1.58,1.12,1.95Z"/>
      <path class="cls-2" d="M31.77,58.51s-.05.07-.05.18c0,.48.43,1.15.8,1.4h0c.11.05.16.05.21.07v-.18c0-.5-.37-1.16-.8-1.4-.11-.05-.16-.07-.16-.07h0ZM32.73,61.42c-.27,0-.54-.09-.8-.25-.86-.46-1.45-1.54-1.45-2.48,0-.57.21-1.05.64-1.28.43-.23.91-.2,1.39.09.86.46,1.45,1.54,1.45,2.48,0,.57-.21,1.03-.64,1.28-.16.11-.37.16-.59.16Z"/>
      <path class="cls-1" d="M40.06,51.26l23.34-13.46c.8-.59.96-1.32.96-2.28v-.59c-.05-7.32-.11-14.63-.21-21.95l1.82-1.47v-2.19l-23.34,13.48.05,2.16-1.87,1.48c.11,7.51.16,15.02.27,22.56l-.05.39c-.11.81-.27,1.37-.96,1.86Z"/>
      <path class="cls-2" d="M41.46,26.74l.21,22.24v.64l21.42-12.38c.53-.37.64-.85.7-1.74l-.27-22.53c0-.19.11-.38.27-.5l1.61-1.28-.05-.8-22.06,12.75v1.81c0,.18-.05.37-.21.48l-1.61,1.3h0ZM40.06,51.88c-.21,0-.43-.09-.54-.29-.16-.28-.11-.66.16-.85.54-.35.64-.67.75-1.42v-.36l-.21-22.52c0-.2.05-.37.21-.5l1.61-1.28-.05-1.86c0-.24.11-.43.32-.55l23.34-13.47c.21-.12.43-.12.59,0,.21.11.32.31.32.53l.05,2.16c0,.2-.11.38-.21.5l-1.61,1.28.21,22.26c0,1-.16,2.01-1.28,2.79l-23.34,13.5c-.11.05-.22.07-.32.07Z"/>
      <path class="cls-3" d="M.6,13.85l1.61,12.19c.32,2.38,1.61,5.01,3.53,6.15,11.14,6.55,20.77,12.26,31.86,18.82,1.93,1.13,3.48.25,3.48-1.99-.11-6.18-.21-16.38-.27-22.56l1.87-1.48-.05-2.16-7.28-2.52-4.28,1.84L.6,13.85Z"/>
      <path class="cls-2" d="M1.35,14.7l1.5,11.26c.21,2.02,1.34,4.57,3.21,5.66l31.86,18.82c.7.42,1.39.53,1.82.26.48-.25.7-.87.7-1.7l-.21-22.56c0-.2.05-.37.21-.5l1.61-1.28-.05-1.42-6.59-2.29-4.07,1.74c-.16.05-.27.07-.43.03L1.35,14.7h0ZM39.15,52.11c-.59,0-1.23-.19-1.87-.58L5.42,32.71c-2.25-1.32-3.53-4.26-3.85-6.59L.01,13.94c-.05-.21.05-.42.21-.55.16-.14.37-.19.53-.14l30.25,8.2,4.12-1.74c.11-.07.27-.07.43-.02l7.28,2.5c.27.09.43.34.43.58v2.18c0,.18-.05.37-.21.5l-1.61,1.28.21,22.24c.05,1.31-.43,2.32-1.28,2.82-.38.2-.75.3-1.23.3Z"/>
      <path class="cls-4" d="M30.91,24.67l-1.39-.84c-.21-.12-.43-.04-.43.23l.21,19.29c0,.25.16.57.43.69l1.39.84c.21.15.43.04.43-.21l-.21-19.29c0-.27-.16-.59-.43-.71Z"/>
      <path class="cls-2" d="M29.73,24.7l.21,18.63c0,.06.05.15.11.18l.86.5-.21-18.63s-.05-.14-.11-.16l-.86-.52h0ZM31.34,45.58c-.21,0-.37-.05-.54-.14l-1.39-.84c-.43-.25-.7-.77-.75-1.24l-.16-19.29c0-.35.16-.65.43-.82.27-.14.59-.14.91.04l1.39.85c.43.23.75.77.75,1.23l.16,19.29c0,.36-.16.66-.43.82-.11.07-.27.11-.37.11Z"/>
      <path class="cls-4" d="M24.97,23.05l-1.39-.84c-.21-.12-.43-.03-.43.23l.21,17.37c0,.25.16.57.37.69l1.39.85c.27.13.43.02.43-.23l-.16-17.37c0-.27-.21-.59-.43-.71Z"/>
      <path class="cls-2" d="M23.79,23.09l.16,16.73s.05.12.11.16l.86.52-.16-16.73c0-.05-.05-.14-.11-.16l-.86-.51h0ZM25.34,42.04c-.16,0-.32-.03-.48-.14l-1.44-.84c-.38-.23-.7-.77-.7-1.23l-.21-17.39c0-.35.16-.65.48-.81.27-.15.59-.15.91.05l1.39.84h0c.43.23.7.76.7,1.22l.21,17.39c0,.34-.16.64-.43.8-.16.07-.27.1-.43.1Z"/>
      <path class="cls-4" d="M19.02,21.43l-1.39-.84c-.21-.12-.43-.03-.43.23l.16,15.46c0,.26.16.58.37.71l1.45.84c.21.15.43.04.43-.23l-.16-15.45c0-.27-.21-.57-.43-.71Z"/>
      <path class="cls-2" d="M17.84,21.47l.16,14.82s.05.14.05.18l.91.5-.16-14.82s-.05-.15-.11-.16l-.86-.51h0ZM19.34,38.52c-.16,0-.32-.06-.48-.14l-1.39-.85c-.43-.23-.75-.77-.75-1.23l-.16-15.47c0-.34.16-.65.43-.8.32-.18.64-.16.91.02l1.45.86c.43.23.7.76.7,1.22l.16,15.47c0,.35-.16.66-.43.82-.11.07-.27.11-.43.11Z"/>
      <path class="cls-4" d="M13.08,19.78l-1.45-.84c-.21-.12-.37-.02-.37.23l.11,13.59c0,.25.21.57.43.69l1.45.85c.21.13.37.02.37-.23l-.11-13.59c0-.25-.21-.57-.43-.71Z"/>
      <path class="cls-2" d="M11.9,19.82l.11,12.93c0,.05.05.14.11.18l.86.5-.11-12.94s-.05-.14-.11-.16l-.86-.51h0ZM13.4,34.98c-.16,0-.32-.05-.48-.14l-1.45-.84c-.43-.25-.7-.77-.7-1.24l-.16-13.59c0-.35.16-.64.43-.8.27-.16.64-.14.91.04l1.45.84h0c.43.25.7.77.7,1.24l.16,13.57c0,.35-.16.66-.43.82-.11.07-.27.1-.43.1Z"/>
      <path class="cls-4" d="M7.14,18.25l-1.45-.83c-.21-.15-.37-.04-.37.21l.11,11.6c0,.27.21.57.43.71l1.39.84c.21.12.37.04.37-.23l-.11-11.6c0-.25-.16-.57-.37-.7Z"/>
      <path class="cls-2" d="M5.96,18.29l.11,10.94s.05.14.11.17l.8.51-.11-10.94c0-.05-.05-.14-.05-.18l-.86-.5h0ZM7.03,30.55v.02-.02h0ZM7.4,31.47c-.16,0-.32-.05-.48-.16l-1.39-.84c-.43-.25-.75-.76-.75-1.23l-.11-11.6c0-.36.16-.66.43-.82.27-.16.64-.14.91.03l1.45.84c.37.25.7.77.7,1.25l.11,11.6c0,.34-.16.64-.43.8-.11.07-.27.12-.43.12Z"/>
      <path class="cls-4" d="M36.91,28.2l-1.45-.85c-.21-.12-.38-.02-.38.23l.21,19.29c0,.27.16.57.37.71l1.45.84c.21.13.37.02.37-.23l-.21-19.29c0-.25-.16-.57-.37-.7Z"/>
      <path class="cls-2" d="M35.73,28.24l.16,18.63c.05.03.11.14.11.16l.86.51-.16-18.63c0-.05-.11-.14-.11-.18l-.86-.49h0ZM37.28,49.11c-.16,0-.32-.05-.48-.16l-1.45-.84c-.37-.23-.7-.77-.7-1.23l-.21-19.29c0-.35.16-.65.43-.81.27-.16.64-.15.91.03l1.45.84c.37.25.7.77.7,1.25l.21,19.29c0,.34-.16.64-.43.8-.16.09-.27.12-.43.12Z"/>
      <polygon class="cls-4" points="53.99 8.89 23.52 .63 .6 13.85 31.07 22.12 35.78 20.12 42.9 22.52 65.82 9.28 58.7 6.88 53.99 8.89"/>
      <path class="cls-2" d="M35.78,19.48c.05,0,.11.02.21.04l6.85,2.31,21.47-12.38-5.62-1.88-4.44,1.92c-.16.06-.32.07-.43.02L23.63,1.31,2.26,13.64l28.75,7.81,4.5-1.92c.11-.04.16-.05.27-.05h0ZM42.9,23.14c-.05,0-.11,0-.16-.04l-6.96-2.32-4.44,1.92c-.16.05-.27.07-.43.03L.44,14.45c-.21-.05-.43-.26-.43-.51-.05-.25.05-.5.27-.62L23.2.08c.16-.09.32-.11.48-.05l30.25,8.2,4.5-1.93c.16-.05.32-.05.43-.02l7.18,2.41c.21.07.43.28.43.53s-.11.48-.32.61l-22.92,13.21c-.05.07-.16.09-.32.09Z"/>
      <polygon class="cls-1" points="24 .75 23.52 .63 .6 13.85 26.2 20.79 24 .75"/>
      <path class="cls-2" d="M2.26,13.64l23.18,6.3L23.41,1.42,2.26,13.64h0ZM26.2,21.42c-.05,0-.11,0-.16-.02L.44,14.45c-.21-.05-.43-.26-.43-.51-.05-.25.05-.5.27-.62L23.2.08c.16-.09.32-.11.48-.05l.48.12c.27.07.43.28.48.53l2.14,20.04c.05.21-.05.41-.22.55-.11.09-.27.15-.37.15Z"/>
      <path class="cls-4" d="M64.96,68.49c-1.5-2.95-6.32-7.82-10.01-5.79l-5.41,3.12c4.02-2.09,8.73,3.15,10.49,6.64,1.5,3.02,2.89,8.58-.48,10.71,1.07-.61,5.41-2.99,6.1-3.62,2.68-2.63,1.02-8.08-.7-11.07Z"/>
      <path class="cls-2" d="M52.54,64.83c.21.04.43.11.7.18,3.05.98,5.94,4.41,7.34,7.17,1.07,2.13,2.3,6.06,1.34,8.95,1.39-.8,3-1.72,3.32-2.04,2.36-2.33.86-7.43-.8-10.3v-.02c-1.02-1.86-3.59-4.88-6.32-5.72-1.07-.32-2.04-.25-2.84.2l-2.73,1.58h0ZM59.55,83.82c-.21,0-.43-.12-.54-.32-.16-.29-.05-.68.21-.86,2.89-1.85,1.71-6.93.21-9.89-1.34-2.63-4.02-5.72-6.64-6.56-1.07-.34-2.09-.28-2.94.2-.32.16-.7.03-.86-.27-.16-.28-.05-.67.21-.84l5.41-3.13c1.18-.64,2.46-.74,3.85-.32,2.89.89,5.78,3.93,7.07,6.35,1.55,2.77,3.69,8.78.54,11.81-.54.51-2.78,1.79-5.19,3.14l-1.02.59c-.11.05-.21.09-.32.09Z"/>
      <path class="cls-4" d="M59.55,71.61c-1.28-2.22-3.05-4.15-4.98-5.3-1.98-1.12-3.75-1.23-5.03-.5v.02c-1.29.73-2.09,2.33-2.09,4.58s.8,4.74,2.09,6.98c1.29,2.22,3.05,4.16,5.03,5.27,1.93,1.13,3.7,1.24,4.98.5,1.28-.75,2.09-2.33,2.09-4.58s-.8-4.76-2.09-6.98h0Z"/>
      <path class="cls-2" d="M49.92,66.34s-.05.04-.05.04c-1.13.65-1.77,2.09-1.77,4.05,0,2.06.7,4.44,1.98,6.66,1.29,2.22,3,4.02,4.82,5.04,1.66.98,3.21,1.16,4.34.5,1.13-.64,1.77-2.08,1.77-4.03,0-2.06-.7-4.42-1.98-6.64v-.02c-1.28-2.24-3-4.03-4.77-5.07-1.66-.96-3.21-1.13-4.34-.53h0ZM57.73,84.28c-1.13,0-2.3-.35-3.48-1.04-1.98-1.16-3.85-3.11-5.25-5.53-1.39-2.4-2.14-4.99-2.14-7.28s.8-4.19,2.3-5.1c0-.02.05-.04.05-.04,1.55-.89,3.53-.73,5.68.5,1.93,1.13,3.8,3.07,5.19,5.47v.03c1.39,2.42,2.2,5.01,2.2,7.3,0,2.41-.86,4.25-2.41,5.13-.64.37-1.39.55-2.14.55Z"/>
      <path class="cls-3" d="M57.31,72.93c.7,1.2,1.12,2.59,1.12,3.83s-.43,2.12-1.12,2.52c-.7.41-1.66.34-2.73-.28-1.07-.62-2.09-1.69-2.78-2.89l-.05-.07c-.64-1.21-1.07-2.55-1.07-3.78s.43-2.1,1.12-2.51v-.02c.7-.4,1.71-.34,2.78.28s2.03,1.69,2.73,2.91Z"/>
      <path class="cls-2" d="M52.16,70.26l-.05.02c-.54.32-.86,1.01-.86,1.98,0,1.08.37,2.31,1.07,3.46.7,1.25,1.61,2.21,2.57,2.76.8.48,1.55.57,2.09.27.53-.31.86-1.02.86-1.98,0-1.1-.37-2.34-1.07-3.53h0c-.7-1.17-1.55-2.13-2.52-2.68-.8-.46-1.55-.57-2.09-.28h0ZM56.29,80.17c-.64,0-1.34-.21-2.04-.62-1.18-.66-2.2-1.78-3-3.14-.8-1.4-1.23-2.86-1.23-4.15,0-1.39.48-2.47,1.39-3.02.05-.02.05-.04.05-.04.96-.55,2.14-.45,3.43.27,1.12.66,2.14,1.78,2.94,3.14h0c.8,1.36,1.23,2.84,1.23,4.15,0,1.44-.48,2.52-1.45,3.06-.43.23-.86.35-1.34.35Z"/>
      <path class="cls-1" d="M60.95,46.25l26.4-15.24c.64.89,1.02,1.74,1.23,2.77l3.16,14.79c.05.39.11.73.11,1.13v15.83l-26.4,15.26v-15.84c0-.39-.05-.73-.11-1.12l-3.16-14.79c-.27-1.05-.64-1.9-1.23-2.79Z"/>
      <path class="cls-2" d="M61.86,46.48c.43.76.75,1.55.91,2.41l3.16,14.79c.11.37.16.78.16,1.26v14.76l25.17-14.53v-15.47c0-.35-.05-.65-.16-1.01l-3.11-14.78c-.16-.74-.43-1.4-.8-2.08l-25.33,14.64h0ZM65.44,81.44c-.11,0-.21-.04-.32-.09-.21-.12-.32-.32-.32-.55v-15.84c0-.35-.05-.66-.11-1.01l-3.16-14.78c-.21-.93-.53-1.72-1.12-2.56-.11-.14-.11-.32-.05-.5,0-.16.11-.32.27-.39l26.45-15.26c.27-.16.64-.09.8.2.7.97,1.07,1.9,1.28,2.98l3.21,14.82c.05.35.11.77.11,1.26v15.83c0,.23-.11.45-.32.55l-26.4,15.26c-.11.05-.21.09-.32.09Z"/>
      <path class="cls-3" d="M43.33,35.94c0-.35.27-.51.54-.32l14.99,8.65c.8.44,1.5,1.14,2.09,1.97h0c.59.83,1.02,1.81,1.23,2.79l3.16,14.79c.05.37.11.73.11,1.12v15.84c0,.36-.27.51-.59.34l-3.27-1.88c.05-.21.05-.43.05-.66,0-2.26-.8-4.76-2.09-6.98h0c-1.28-2.22-3.05-4.15-4.98-5.3-1.98-1.12-3.75-1.23-5.03-.5v.02c-1.29.73-2.09,2.33-2.09,4.58,0,.21.05.44.05.68-1.61-.93-3-1.74-4.18-2.42v-32.74Z"/>
      <path class="cls-2" d="M62.29,78.9l2.52,1.48v-15.42c0-.3,0-.58-.11-1l-3.16-14.8c-.16-.87-.53-1.76-1.12-2.56-.53-.78-1.18-1.4-1.82-1.79l-14.62-8.44v31.96l2.89,1.67c.11-2.19.86-3.82,2.3-4.67,0-.02.05-.04.05-.04,1.55-.89,3.53-.73,5.68.5,1.93,1.13,3.8,3.07,5.19,5.49v.02c1.39,2.42,2.2,5.01,2.2,7.3v.3h0ZM65.12,81.82c-.16,0-.37-.05-.59-.16l-3.21-1.88c-.21-.12-.37-.34-.32-.58v-.6c0-2.06-.7-4.42-1.98-6.64v-.02c-1.28-2.24-3-4.03-4.77-5.07-1.66-.96-3.21-1.13-4.34-.53,0,.02-.05.04-.05.04-1.13.65-1.77,2.09-1.77,4.05v.64c.05.23-.11.44-.27.57-.21.12-.43.12-.64,0l-4.18-2.4c-.16-.13-.32-.32-.32-.55v-32.74c0-.41.21-.74.48-.9.32-.18.7-.18,1.02.04l14.99,8.65c.86.48,1.66,1.23,2.3,2.17.64.92,1.07,1.97,1.29,3l3.16,14.79c.05.36.16.78.16,1.26v15.84c0,.41-.16.73-.48.9-.16.09-.32.12-.48.12Z"/>
      <path class="cls-4" d="M47.77,41.54l9.8,5.65c.43.26.86.67,1.18,1.15h0c.32.5.59,1.05.7,1.63h0l2.62,12.17c.05.39-.11.66-.37.57-.05,0-.11-.02-.16-.05h0l-13.76-7.94c-.32-.18-.54-.62-.54-.97v-11.87c0-.37.21-.52.54-.34Z"/>
      <path class="cls-2" d="M47.77,41.54l-.32.55h0l.32-.55h0ZM47.83,42.3v11.44c0,.14.16.37.27.44l13.28,7.65-2.52-11.74c-.11-.48-.32-.97-.59-1.38-.32-.43-.7-.78-1.02-.98l-9.42-5.44h0ZM61.75,63.37c-.05,0-.16-.02-.21-.04-.16-.03-.27-.09-.32-.12l-13.76-7.94c-.48-.31-.86-.94-.86-1.53v-11.87c0-.41.16-.75.48-.93.27-.18.64-.16,1.02.05l9.8,5.65c.48.28.96.76,1.39,1.33.37.57.64,1.2.8,1.85l2.57,12.16c.11.46,0,.86-.27,1.12-.16.16-.37.25-.64.25Z"/>
      <polygon class="cls-4" points="64.11 47.92 86.59 34.91 89.75 49.71 67.21 62.71 64.11 47.92"/>
      <path class="cls-2" d="M64.8,48.24l2.84,13.5,21.42-12.35-2.89-13.5-21.36,12.34h0ZM67.21,63.35c-.05,0-.16-.02-.21-.05-.21-.09-.32-.25-.37-.44l-3.16-14.8c-.05-.27.05-.55.32-.67l22.54-13.02c.16-.09.37-.1.54-.02.21.07.32.25.37.44l3.16,14.79c.05.27-.11.54-.32.68l-22.54,13c-.11.05-.21.09-.32.09Z"/>
      <polygon class="cls-3" points="66.19 57.88 77.55 51.47 79.69 47.67 85.58 44.33 88.79 45.13 89.75 49.71 67.21 62.71 66.19 57.88"/>
      <path class="cls-2" d="M66.89,58.2l.75,3.54,21.42-12.35-.8-3.75-2.57-.66-5.52,3.15-2.09,3.64c-.05.11-.11.19-.21.25l-10.98,6.18h0ZM67.21,63.35c-.05,0-.16-.02-.21-.05-.21-.09-.32-.25-.37-.44l-1.02-4.84c-.05-.26.05-.55.32-.69l11.19-6.32,2.04-3.66c.05-.09.11-.18.21-.23l5.89-3.34c.16-.09.32-.11.48-.07l3.21.8c.21.07.37.25.43.48l1.02,4.6c.05.27-.11.54-.32.68l-22.54,13c-.11.05-.21.09-.32.09Z"/>
      <path class="cls-3" d="M61.43,59.25l.64,2.9c.05.39-.11.66-.37.57-.05,0-.11-.02-.16-.05h0l-13.76-7.94c-.32-.18-.54-.62-.54-.97v-2.06l14.19,7.57Z"/>
      <path class="cls-2" d="M47.83,52.73v1.01c0,.14.16.37.27.44l13.28,7.65-.48-2.18-13.06-6.92h0ZM61.75,63.37c-.05,0-.16-.02-.21-.04-.11-.02-.21-.07-.32-.14l-13.76-7.92c-.48-.31-.86-.94-.86-1.53v-2.06c0-.23.11-.43.27-.55.21-.11.43-.11.64-.02l14.24,7.57c.16.09.27.25.32.43l.59,2.91c.11.44,0,.84-.27,1.1-.16.16-.37.25-.64.25Z"/>
      <path class="cls-1" d="M85.31,29.02c.86.51,1.5,1.17,2.03,1.99l-26.4,15.24h0c-.54-.78-1.23-1.49-2.09-1.97l-14.99-8.65c-.05-.05-.11-.07-.16-.09l.05-.05,26.24-15.12c.16-.07.21-.04.37.04l14.94,8.62Z"/>
      <path class="cls-2" d="M44.99,35.52l14.19,8.2c.7.41,1.39.98,1.93,1.71l25.33-14.62c-.43-.54-.91-.93-1.45-1.25l-14.89-8.58-25.11,14.53h0ZM60.95,46.89c-.21,0-.37-.11-.54-.28-.53-.78-1.18-1.4-1.82-1.79l-14.99-8.65c-.27-.02-.48-.23-.54-.49-.05-.27.05-.54.32-.68l26.29-15.17c.53-.21.8-.07.96.02l14.99,8.64v.02c.86.51,1.55,1.19,2.25,2.15.11.14.16.33.11.5-.05.18-.16.32-.32.41l-26.4,15.26c-.11.05-.21.09-.32.09Z"/>
      <path class="cls-2" d="M50.61,59.89c-.11,0-.21-.02-.32-.09l-3.64-2.12c-.32-.18-.43-.55-.27-.85.21-.3.59-.41.91-.23l3.64,2.11c.32.18.43.56.21.86-.11.21-.32.32-.54.32Z"/>
      <path class="cls-3" d="M88.09,60.9c-1.18.65-2.09.12-2.09-1.19s.91-2.91,2.09-3.57c1.12-.66,2.04-.13,2.04,1.19s-.91,2.91-2.04,3.57Z"/>
      <path class="cls-2" d="M89,56.48c-.16,0-.38.07-.59.19-.96.55-1.77,1.94-1.77,3.04,0,.39.11.68.27.79.21.1.53.05.86-.14h0c.96-.55,1.71-1.94,1.71-3.02,0-.39-.11-.69-.27-.8-.05-.04-.16-.05-.21-.05h0ZM87.13,61.81c-.27,0-.59-.07-.8-.21-.59-.34-.96-1.03-.96-1.88,0-1.54,1.07-3.36,2.41-4.12.75-.43,1.5-.48,2.09-.15.59.34.91,1.03.91,1.89,0,1.53-1.07,3.34-2.36,4.12h0c-.43.23-.86.36-1.29.36Z"/>
      <polygon class="cls-4" points="92.59 65.43 92.59 61.43 65.44 77.16 65.44 81.13 92.59 65.43"/>
      <path class="cls-2" d="M66.09,77.51v2.54l25.92-14.98v-2.54l-25.92,14.98h0ZM65.44,81.78c-.11,0-.21-.04-.32-.09-.21-.11-.32-.32-.32-.55v-3.98c0-.23.11-.45.32-.55l27.15-15.7c.22-.13.43-.13.64,0,.21.11.32.32.32.53v4c0,.23-.11.42-.32.55l-27.15,15.7c-.11.05-.21.09-.32.09Z"/>
      <path class="cls-3" d="M69.78,71.44c-1.13.66-2.09.12-2.09-1.19s.96-2.93,2.09-3.59c1.12-.66,2.03-.13,2.03,1.19s-.91,2.93-2.03,3.59Z"/>
      <path class="cls-2" d="M70.69,67.01c-.16,0-.37.07-.59.19-.96.55-1.77,1.94-1.77,3.04,0,.39.11.68.32.78.16.11.48.05.8-.14.96-.55,1.77-1.94,1.77-3.04,0-.39-.11-.67-.32-.78-.05-.04-.11-.05-.21-.05h0ZM68.87,72.34c-.32,0-.59-.07-.86-.23-.59-.34-.91-1.01-.91-1.86,0-1.55,1.02-3.36,2.36-4.12.75-.43,1.5-.48,2.09-.14.59.33.91,1.01.91,1.86,0,1.55-1.02,3.36-2.36,4.12-.43.25-.86.37-1.23.37Z"/>
      <path class="cls-2" d="M74.12,69.3h0c-.37,0-.64-.28-.64-.64v-6.09c0-.33.27-.62.64-.62h0c.32,0,.64.29.64.62l-.05,6.09c0,.36-.27.64-.59.64Z"/>
      <path class="cls-2" d="M76.42,67.96c-.32,0-.59-.28-.59-.64v-6.09c0-.34.27-.62.59-.62.38,0,.64.28.64.62v6.09c0,.36-.27.64-.64.64Z"/>
      <path class="cls-2" d="M78.88,66.55h0c-.38,0-.64-.28-.64-.64v-6.09c0-.35.32-.62.64-.62h0c.37,0,.64.27.64.62v6.09c0,.36-.32.64-.64.64Z"/>
      <path class="cls-2" d="M81.24,65.17c-.32,0-.59-.28-.59-.62v-6.09c0-.36.27-.64.59-.64h0c.37,0,.64.28.64.64v6.09c0,.34-.27.62-.64.62h0Z"/>
      <path class="cls-2" d="M83.76,63.73h0c-.32,0-.59-.28-.59-.64v-6.09c0-.34.27-.62.59-.62h0c.37,0,.64.28.64.62v6.09c0,.35-.27.64-.64.64Z"/>
      <path class="cls-4" d="M65.44,81.15c-.11.11-.32.12-.48,0l-3.32-1.92v-.64c0-1.32-.27-2.7-.75-4.07l4.55,2.63v4Z"/>
      <path class="cls-2" d="M62.29,78.9l2.52,1.46v-2.84l-2.84-1.65c.21.94.32,1.85.32,2.74v.3h0ZM65.23,81.88c-.21,0-.43-.08-.59-.18l-3.32-1.92c-.21-.12-.37-.34-.32-.58v-.6c0-1.19-.21-2.52-.7-3.87-.11-.23,0-.52.16-.67.21-.18.54-.2.75-.08l4.55,2.63c.21.11.32.32.32.55v4c0,.14-.05.3-.16.41-.21.21-.43.32-.7.32Z"/>
      <polygon class="cls-1" points="61.96 62.73 61.96 55.98 59.34 57.49 59.34 64.24 61.96 62.73"/>
      <path class="cls-2" d="M61.96,62.73h.05-.05ZM59.98,57.86v5.3l1.39-.8v-5.3l-1.39.8h0ZM59.34,64.88c-.11,0-.21-.04-.32-.09-.16-.12-.27-.32-.27-.55v-6.75c0-.21.11-.43.27-.54l2.68-1.53c.16-.11.43-.11.59,0,.21.11.32.32.32.55v6.75c0,.21-.11.43-.32.54l-2.62,1.53c-.11.05-.21.09-.32.09Z"/>
      <path class="cls-2" d="M61.96,63.35c-.21,0-.43-.1-.54-.32-.16-.31-.05-.67.27-.86l1.28-.74c.27-.18.64-.07.86.23.16.31.05.67-.27.86l-1.28.74c-.11.07-.21.09-.32.09Z"/>
      <polygon class="cls-1" points="93.88 44.2 93.88 37.45 91.25 38.98 91.25 45.73 93.88 44.2"/>
      <path class="cls-2" d="M93.88,44.2h.05-.05ZM91.89,39.34v5.3l1.39-.78v-5.3l-1.39.78h0ZM91.25,46.35c-.11,0-.21-.02-.27-.09-.21-.11-.32-.32-.32-.54v-6.75c0-.23.11-.43.32-.55l2.62-1.51c.16-.12.43-.12.59,0,.21.11.32.32.32.53v6.75c0,.23-.11.43-.32.55l-2.62,1.51c-.11.07-.21.09-.32.09Z"/>
    </g>
  </g>
</svg>