<?xml version="1.0" encoding="UTF-8"?>
<svg id="Layer_2" data-name="Layer 2" xmlns="http://www.w3.org/2000/svg" viewBox="0 0 29.43 41.65" fill="currentColor">
  <defs>
    <style>
      .cls-1 {
        fill: #fff;
      }

      .cls-1, .cls-2, .cls-3, .cls-4 {
        fill-rule: evenodd;
      }

      .cls-2 {
        fill: #1a87c7;
      }

      .cls-3 {
        fill: #bdedf8;
      }

      .cls-4 {
        fill: #66ceef;
      }
    </style>
  </defs>
  <g id="_Layer_" data-name="&amp;lt;Layer&amp;gt;">
    <g>
      <polygon class="cls-4" points="11.72 14.92 6.29 11.78 6.29 13.94 11.72 17.08 11.72 14.92"/>
      <path class="cls-2" d="M6.6,13.75l4.82,2.78v-1.43l-4.82-2.79v1.44h0ZM11.72,17.38c-.05,0-.1,0-.15-.04l-5.43-3.14c-.09-.05-.15-.16-.15-.26v-2.15c0-.11.06-.21.15-.27.1-.05.21-.05.3,0l5.43,3.14c.09.06.16.16.16.27v2.16c0,.1-.06.21-.16.26-.04.03-.1.04-.16.04Z"/>
      <polygon class="cls-3" points="16.71 9.77 11.27 6.63 6.29 5.08 11.72 8.22 16.71 9.77"/>
      <path class="cls-2" d="M8.81,6.19l3.07,1.77,2.32.71-3.07-1.77-2.32-.71h0ZM16.71,10.07s-.06,0-.09,0l-4.99-1.55-5.49-3.16c-.14-.08-.19-.24-.13-.39.06-.15.23-.22.37-.17l4.99,1.55,5.49,3.16c.14.08.19.25.13.39-.05.11-.17.18-.29.18Z"/>
      <path class="cls-4" d="M11.72,8.22l-5.43-3.14v2.16c-.02.18-.1.32-.25.43l5.43,3.14c.16-.11.24-.25.25-.43v-2.16Z"/>
      <path class="cls-2" d="M6.5,7.59l4.9,2.83s0-.04,0-.06v-1.95l-4.82-2.78v1.63c-.02.13-.04.24-.09.35h0ZM11.47,11.12c-.05,0-.1,0-.15-.04l-5.43-3.14c-.09-.05-.16-.15-.16-.25,0-.1.04-.2.13-.26.08-.06.11-.12.12-.21v-2.14c0-.11.06-.21.15-.26.1-.06.21-.06.3,0l5.43,3.14c.09.05.16.16.16.26v2.16c-.03.31-.16.53-.38.69-.05.04-.12.05-.18.05Z"/>
      <path class="cls-3" d="M25.9,3.68l-5.44-3.14c-.86-.45-1.68-.2-2.48.24l-2.7,1.55c-.32.21-.51.43-.7.75l5.43,3.14c.2-.33.38-.53.71-.75l2.69-1.56c.81-.44,1.63-.69,2.49-.24Z"/>
      <path class="cls-2" d="M15,2.99l4.9,2.83c.16-.22.35-.41.64-.6l2.71-1.56c.35-.19.75-.37,1.18-.46l-4.12-2.38c-.62-.33-1.27-.26-2.19.24l-2.69,1.56c-.18.1-.3.21-.43.38h0ZM20,6.54c-.05,0-.1-.02-.16-.04l-5.43-3.14c-.07-.04-.12-.11-.15-.19-.02-.08,0-.17.04-.24.21-.34.42-.6.81-.85l2.71-1.56c.75-.41,1.74-.8,2.79-.24l5.44,3.14c.15.09.2.27.12.42-.09.15-.27.2-.42.12-.63-.33-1.27-.26-2.2.24l-2.7,1.55c-.25.17-.4.33-.6.65-.06.09-.15.15-.26.15Z"/>
      <path class="cls-4" d="M17.88,7.75l-1.86,1.08,5.43,3.13,1.86-1.07c.16-.11.24-.25.25-.44l-5.43-3.14c-.02.19-.09.33-.25.44Z"/>
      <path class="cls-2" d="M17.88,7.75h0,0ZM16.64,8.83l4.82,2.78,1.71-.99s.02-.02.03-.03l-4.9-2.83c-.06.1-.14.17-.24.24,0,0-.01.01-.02.01l-1.4.81h0ZM21.45,12.27c-.05,0-.11-.02-.16-.04l-5.43-3.14c-.1-.05-.16-.16-.16-.26,0-.11.06-.22.16-.27l1.85-1.07c.08-.05.1-.11.11-.2.01-.1.07-.2.17-.25.09-.05.2-.05.3,0l5.43,3.14c.1.06.16.17.15.29-.02.28-.15.51-.38.67l-1.89,1.09c-.05.03-.1.04-.15.04Z"/>
      <path class="cls-4" d="M23.29,8.28l-5.44-3.14c.24.16.27.36.28.63v1.54l5.43,3.14v-1.56c0-.25-.05-.46-.27-.61Z"/>
      <path class="cls-2" d="M18.44,7.13l4.82,2.78v-1.02c0-.22-.04-.29-.13-.35l-4.68-2.7v1.3h0ZM23.56,10.76c-.05,0-.1-.02-.15-.04l-5.44-3.14c-.1-.05-.15-.16-.15-.27v-1.54c0-.24-.03-.3-.14-.37-.14-.09-.18-.28-.09-.42.09-.14.28-.18.42-.11l5.43,3.14s.02,0,.02,0c.37.25.42.62.42.87v1.56c0,.11-.06.21-.15.27-.04.03-.1.04-.16.04Z"/>
      <polygon class="cls-4" points="21.45 11.96 16.02 8.83 19.85 12.37 25.29 15.51 21.45 11.96"/>
      <path class="cls-2" d="M18.25,10.47l1.82,1.68,3.01,1.73-1.8-1.67-3.02-1.74h0ZM25.29,15.82c-.05,0-.11-.02-.16-.04l-5.43-3.14-3.89-3.58c-.12-.12-.14-.29-.04-.41.1-.13.27-.17.4-.09l5.44,3.14s.04.03.05.04l3.84,3.55c.11.11.13.29.04.42-.06.08-.16.12-.25.12Z"/>
      <path class="cls-1" d="M29.12,7.53l-5.43-3.14-1.87,1.08c-.08.03-.11.05-.18.02l5.43,3.14c.08.04.11.02.18-.02l1.87-1.08Z"/>
      <path class="cls-2" d="M22.33,5.53l4.82,2.78,1.35-.78-4.82-2.78-1.35.78h0ZM27.14,8.96c-.05,0-.1-.02-.18-.03l-5.48-3.16c-.14-.08-.2-.25-.13-.4.06-.12.2-.19.33-.16l1.84-1.06c.09-.06.22-.06.31,0l5.43,3.14c.09.05.15.16.15.26,0,.11-.05.22-.15.27l-1.87,1.08c-.08.04-.16.08-.27.08Z"/>
      <path class="cls-3" d="M26.7,18.69l-5.43-3.14c-.27-.12-.47-.05-.71.07l-1.42.82c-.29.19-.54.45-.71.75l5.43,3.14c.18-.31.42-.57.71-.76l1.33-.76c.3-.15.49-.27.8-.12Z"/>
      <path class="cls-2" d="M18.87,17.1l4.89,2.83c.18-.24.39-.44.64-.61l1.38-.79-4.68-2.7c-.1-.04-.18-.04-.42.08l-1.4.81c-.16.1-.3.24-.43.39h0ZM23.86,20.64c-.05,0-.11,0-.15-.03l-5.44-3.14c-.14-.09-.19-.28-.11-.42.21-.36.48-.64.81-.86l1.43-.82c.28-.15.59-.28,1-.09l5.46,3.16c.14.08.19.26.11.41-.08.15-.25.2-.4.13-.15-.06-.2-.04-.46.09l-.07.03-1.32.76c-.24.16-.44.37-.6.64-.04.07-.1.12-.19.14-.02,0-.05,0-.08,0Z"/>
      <path class="cls-4" d="M23.86,20.34l-5.43-3.14c-.18.34-.28.6-.3.99v2.03c0,.25-.02.42-.09.66-.16.45-.37.79-.75,1.09-.09.05-.16.09-.24.14l-1.22.7c-.07.04-.1.05-.18.03l5.43,3.13c.08.03.1.02.18-.02l1.27-.73c.18-.1.3-.18.45-.35.27-.31.41-.57.52-.97.05-.25.05-.36.05-.61v-1.97c.02-.39.11-.65.3-.99Z"/>
      <path class="cls-2" d="M16.34,22.87l4.82,2.78,1.23-.7c.15-.09.25-.15.39-.29.22-.26.35-.49.44-.84.04-.19.04-.29.04-.51v-1.98c.02-.35.09-.62.2-.87l-4.9-2.82c-.07.17-.11.35-.11.57v2.02c0,.26-.02.46-.1.75-.19.56-.45.93-.86,1.24-.1.06-.17.11-.25.16l-.89.5h0ZM21.16,26.3c-.05,0-.11-.01-.17-.03l-5.49-3.17c-.14-.08-.19-.25-.12-.4.06-.12.2-.19.33-.17l1.2-.69c.09-.05.15-.09.22-.14.3-.22.49-.5.63-.93.06-.2.07-.34.07-.56v-2.03c.02-.48.14-.78.33-1.14.03-.07.1-.13.18-.15.09-.03.18-.02.24.02l5.43,3.14c.15.09.19.27.12.42-.16.29-.25.51-.26.86v1.96c0,.25,0,.4-.06.67-.13.45-.3.76-.59,1.1-.2.21-.34.3-.54.42l-1.27.73c-.08.03-.16.08-.26.08Z"/>
      <polygon class="cls-3" points="21.02 23.66 15.59 20.52 10.59 27.83 16.03 30.97 21.02 23.66"/>
      <path class="cls-2" d="M11.03,27.72l4.9,2.83,4.64-6.8-4.9-2.83-4.64,6.8h0ZM16.03,31.27c-.05,0-.1-.01-.16-.05l-5.43-3.13c-.08-.04-.13-.12-.15-.2-.02-.09,0-.17.04-.24l4.99-7.31c.09-.13.27-.17.41-.09l5.43,3.14c.08.04.13.12.15.2.02.09,0,.17-.05.24l-4.99,7.31c-.06.09-.16.13-.25.13Z"/>
      <path class="cls-1" d="M25.96,25.93c.64-1.1,1.04-2.34,1.04-3.47v-3.12c0-.32-.11-.54-.29-.65-.18-.1-.43-.09-.71.07l-1.42.82c-.56.32-1.01,1.1-1.01,1.75v1.86c0,.31.03.55-.11.92-.05.12-.11.24-.17.36-.43.76-1.51,1.19-2.02,1.48-.14.09-.25.02-.25-.14v-2.16l-4.99,7.31,4.99,1.55v-2.16c0-.16.11-.36.25-.43,1.72-.99,3.35-1.65,4.69-3.98Z"/>
      <path class="cls-2" d="M25.96,25.93h.01-.01ZM16.52,30.79l4.19,1.3v-1.75c0-.27.18-.57.41-.7.24-.13.47-.26.7-.39,1.42-.78,2.76-1.53,3.89-3.48.64-1.11.99-2.29.99-3.31v-3.12c0-.19-.05-.33-.14-.38-.09-.05-.24-.03-.4.07l-1.42.82c-.46.27-.85.95-.85,1.48v1.97c0,.28,0,.54-.14.92-.04.14-.11.28-.19.41-.39.69-1.21,1.11-1.8,1.42-.12.06-.23.12-.33.18-.17.09-.34.11-.49.02-.14-.08-.23-.23-.23-.42v-1.16l-4.19,6.14h0ZM21.02,32.82s-.06,0-.1-.02l-4.99-1.54c-.09-.03-.17-.1-.2-.2-.03-.09-.02-.19.03-.27l4.99-7.31c.08-.12.22-.16.35-.12.13.05.22.17.22.3v1.92s.1-.05.15-.08c.52-.27,1.24-.64,1.55-1.18.06-.1.1-.21.15-.31.09-.28.09-.46.09-.7v-1.97c0-.75.51-1.63,1.16-2.01l1.41-.82c.36-.22.74-.24,1.02-.07.29.16.44.5.44.91v3.12c0,1.13-.38,2.42-1.07,3.62h0c-1.21,2.09-2.63,2.88-4.13,3.7-.23.13-.45.25-.69.39-.04.02-.1.11-.1.17v2.16c0,.09-.04.18-.12.24-.05.04-.12.06-.18.06Z"/>
      <path class="cls-1" d="M25.9,3.68c-.64-.37-1.51-.32-2.49.24l-2.69,1.56c-.56.32-1.01,1.11-1.01,1.75v1.63c0,.31.11.54.3.65.18.1.44.09.71-.07l1.58-.92c.19-.11.39-.24.58-.29.16-.03.3-.03.42.04.14.08.24.23.26.44.02.1,0,.29,0,.4v1.32c0,.17-.11.36-.25.44l-1.86,1.07,3.83,3.56,3.83-7.98-1.87,1.08c-.14.09-.25.02-.25-.14v-2.48c-.03-1.13-.44-1.94-1.1-2.31Z"/>
      <path class="cls-2" d="M21.97,12.02l3.22,2.98,3.22-6.7-1,.58c-.16.1-.35.1-.49.02-.15-.09-.24-.24-.24-.42v-2.48c-.03-.98-.37-1.71-.94-2.04-.57-.33-1.35-.24-2.18.23l-2.7,1.56c-.46.26-.85.94-.85,1.48v1.63c0,.18.05.33.15.38.09.05.24.03.4-.07l1.69-.97c.17-.11.35-.22.55-.26.24-.06.46-.03.64.07.23.13.38.36.42.67.02.1.02.24.02.36v1.4c0,.28-.17.57-.41.7l-1.5.87h0ZM25.29,15.82c-.08,0-.15-.03-.21-.08l-3.83-3.56c-.07-.06-.11-.16-.09-.25,0-.11.06-.19.15-.24l1.87-1.08s.09-.12.09-.17v-1.41c0-.09,0-.2-.01-.27,0-.06-.03-.17-.11-.22-.04-.03-.11-.03-.19,0-.11.03-.25.1-.39.19l-1.7.97c-.36.21-.73.23-1.02.07-.29-.16-.45-.5-.45-.91v-1.63c0-.75.51-1.64,1.16-2.02l2.69-1.55c1.03-.6,2.04-.69,2.8-.24h0c.77.44,1.22,1.35,1.25,2.57v2.24l1.66-.96c.12-.07.27-.05.36.03.1.09.13.24.07.36l-3.83,7.97c-.04.09-.12.15-.22.17-.03,0-.04,0-.06,0Z"/>
      <path class="cls-1" d="M6.77,14.8c-.63,1.1-1.03,2.34-1.03,3.47v3.12c0,.63.45.9,1.01.57l1.41-.82c.56-.31,1.01-1.09,1.01-1.74v-1.91c0-.17,0-.42.03-.59.04-.22.13-.44.24-.65.09-.15.18-.28.3-.4.21-.22.4-.31.62-.44l1.1-.64c.14-.08.25,0,.25.15v2.16l4.99-7.31-4.99-1.55v2.16c0,.16-.11.36-.25.43l-2.14,1.23c-1,.62-1.91,1.62-2.56,2.75Z"/>
      <path class="cls-2" d="M7.04,14.95c-.64,1.11-.99,2.3-.99,3.32v3.12c0,.18.05.33.14.38.09.05.24.03.4-.07l1.42-.82c.46-.27.85-.95.85-1.48v-1.91c0-.21,0-.46.04-.66.05-.24.15-.5.29-.73.09-.18.21-.33.33-.46.21-.24.41-.34.6-.45l1.2-.69c.17-.09.34-.11.48-.02.14.08.23.23.23.43v1.15l4.19-6.14-4.19-1.31v1.75c0,.27-.18.56-.41.7l-2.14,1.24c-.92.57-1.79,1.5-2.44,2.63h0ZM6.29,22.41c-.15,0-.29-.04-.42-.11-.28-.16-.44-.5-.44-.91v-3.12c0-1.13.38-2.42,1.08-3.62h0c.7-1.21,1.64-2.22,2.65-2.85l2.16-1.24s.09-.12.09-.17v-2.16c0-.09.05-.19.12-.24.09-.06.18-.08.28-.05l4.99,1.55c.09.03.17.11.2.19.03.1.02.2-.03.28l-4.99,7.31c-.08.11-.22.16-.35.12-.13-.04-.22-.17-.22-.3v-1.91l-.99.57c-.18.09-.3.17-.45.33-.1.09-.18.22-.25.35-.11.18-.17.37-.22.56-.03.14-.03.34-.03.49v1.95c0,.75-.51,1.63-1.16,2.01l-1.42.82c-.21.12-.42.18-.61.18Z"/>
      <path class="cls-4" d="M14.57,3.1c-.19.34-.29.6-.29.99v1.63c0,.28.05.48.29.65l5.43,3.14c-.24-.18-.29-.37-.3-.65v-1.63c.02-.39.11-.65.3-.99l-5.43-3.14Z"/>
      <path class="cls-2" d="M14.7,3.53c-.08.19-.11.36-.12.57v1.62c0,.24.05.32.16.39l4.65,2.7v-1.58c.02-.36.09-.62.2-.87l-4.89-2.83h0ZM20,9.82c-.05,0-.1-.02-.16-.04l-5.43-3.14c-.37-.26-.43-.58-.45-.9v-1.65c.02-.48.15-.79.33-1.14.04-.08.11-.13.19-.15.08-.03.17-.02.24.02l5.43,3.14c.15.08.2.27.12.41-.18.34-.24.56-.26.86v1.63c.02.24.05.31.17.39.14.1.18.28.09.42-.06.1-.15.15-.26.15Z"/>
      <path class="cls-3" d="M5.07,23.52c.03-.08.09-.15.15-.18.06-.04.11-.03.14.02,1.28,1.49,2.79,3.57,3.62,5.36.25.57.37,1.21.37,1.9,0,3.91-3.01,7.99-6.04,8.27-.84.08-1.55-.19-2.04-.74-.48-.55-.76-1.38-.76-2.43,0-.69.11-1.47.37-2.33.43-1.43,1.93-4.79,3.11-7.41.44-.98.83-1.87,1.08-2.46Z"/>
      <path class="cls-2" d="M5.07,23.52h.01-.01ZM5.3,23.77c-.25.59-.63,1.43-1.04,2.35-1.19,2.66-2.67,5.96-3.09,7.36-.24.81-.36,1.56-.36,2.24,0,.96.23,1.72.69,2.23.43.48,1.04.7,1.77.63,2.9-.28,5.76-4.22,5.76-7.97,0-.67-.12-1.26-.35-1.77-.67-1.45-1.92-3.34-3.39-5.09h0ZM3.01,39.22c-.79,0-1.47-.3-1.96-.85-.56-.63-.85-1.54-.85-2.64,0-.74.13-1.56.39-2.42.44-1.44,1.92-4.76,3.11-7.43.44-.99.84-1.87,1.09-2.46.05-.15.15-.27.28-.34.1-.06.23-.08.33-.05.08.03.19.11.24.18,1.55,1.8,2.91,3.83,3.62,5.39.27.59.41,1.27.41,2.03,0,4.03-3.14,8.28-6.33,8.58-.1,0-.22.02-.32.02Z"/>
      <path class="cls-2" d="M5.22,41.65c-.17,0-.3-.14-.3-.31v-18.06c0-.17.14-.3.3-.3s.3.14.3.3v18.06c0,.17-.13.31-.3.31Z"/>
      <path class="cls-2" d="M5.22,29.69h-.03l-2.64-.21c-.17-.02-.3-.16-.29-.33.02-.18.15-.3.33-.29l2.49.2,2.34-2.84c.12-.13.3-.15.44-.04.13.11.16.3.04.43l-2.45,2.96c-.05.07-.14.12-.23.12Z"/>
      <path class="cls-2" d="M5.22,33.14h-.02l-4.06-.26c-.16-.02-.3-.17-.29-.33.01-.17.16-.3.33-.28l3.9.25,3.5-4.29c.11-.14.3-.16.43-.05.13.11.16.3.04.44l-3.61,4.42c-.05.07-.14.11-.23.11Z"/>
      <path class="cls-2" d="M5.22,36.54h-.02l-4.71-.25c-.16-.01-.3-.16-.29-.33,0-.16.13-.28.32-.29l4.56.24,4-4.76c.11-.13.3-.15.43-.04.13.12.15.3.04.43l-4.1,4.89c-.06.07-.15.11-.23.11Z"/>
      <path class="cls-3" d="M1.34,11.66c-.32.57-.56,1.09-.76,1.73-.17.61-.26,1.1-.27,1.74v3.12c0,.25.04.42.22.6l.07.05,5.43,3.14c-.23-.17-.27-.37-.29-.65v-3.12c0-.38.04-.7.11-1.08.19-.9.48-1.6.92-2.39.26-.45.52-.81.84-1.21.27-.31.52-.57.82-.86.24-.2.46-.37.72-.56.16-.1.3-.19.48-.29l1.84-1.07-5.43-3.14c-2.28,1.32-3.35,1.73-4.69,3.98Z"/>
      <path class="cls-2" d="M1.61,11.81c-.32.58-.54,1.08-.73,1.67-.18.62-.25,1.09-.27,1.66v3.11c.02.22.04.29.14.38l.02.02,4.66,2.68v-3.07c0-.4.04-.72.11-1.14.19-.89.48-1.62.96-2.49.28-.46.54-.84.86-1.24.29-.34.55-.61.85-.89.25-.22.49-.4.75-.58.18-.12.33-.2.51-.31l1.39-.8-4.83-2.78-.59.34c-1.79,1.01-2.69,1.52-3.83,3.43h0ZM6.03,22.34s-.1-.02-.15-.04L.36,19.1c-.31-.3-.35-.57-.36-.84v-3.14c.01-.64.09-1.15.29-1.83.21-.65.44-1.18.78-1.8h0c1.23-2.07,2.24-2.63,4.06-3.67l.75-.42c.1-.05.21-.05.3,0l5.43,3.14c.09.05.16.15.16.27,0,.11-.06.21-.16.26l-1.85,1.07c-.16.09-.3.18-.46.29-.24.16-.45.33-.68.53-.28.26-.53.51-.79.83-.3.37-.55.74-.8,1.17-.45.81-.71,1.47-.89,2.29-.07.36-.09.67-.1,1.03v3.11c.01.24.05.32.16.39.14.1.17.29.09.43-.06.09-.16.14-.26.14Z"/>
    </g>
  </g>
</svg>