<?xml version="1.0" encoding="UTF-8"?>
<svg id="Layer_2" data-name="Layer 2" xmlns="http://www.w3.org/2000/svg" viewBox="0 0 40.98 49.15" fill="currentColor">
  <defs>
    <style>
      .cls-1, .cls-2, .cls-3, .cls-4 {
        fill-rule: evenodd;
      }

      .cls-1, .cls-5 {
        fill: #fff;
      }

      .cls-2 {
        fill: #1a87c7;
      }

      .cls-3 {
        fill: #bdedf8;
      }

      .cls-4 {
        fill: #66ceef;
      }
    </style>
  </defs>
  <g id="_Layer_" data-name="&amp;lt;Layer&amp;gt;">
    <g>
      <rect class="cls-5" x="18.58" y=".31" width="2.24" height="20.44" rx="1.12" ry="1.12"/>
      <path class="cls-2" d="M19.7,21.05c-.39,0-.75-.16-1.01-.42-.26-.26-.42-.61-.42-1.01V1.43c0-.39.16-.75.42-1.01s.61-.42,1.01-.42.75.16,1.01.42c.26.26.42.61.42,1.01v18.2c0,.39-.16.75-.42,1.01-.26.26-.61.42-1.01.42h0ZM19.7,20.44c.22,0,.42-.09.57-.24.15-.15.24-.35.24-.57V1.43c0-.22-.09-.42-.24-.57-.15-.15-.35-.24-.57-.24s-.43.09-.57.24c-.15.15-.24.35-.24.57v18.2c0,.22.09.42.24.57.15.15.35.24.57.24Z"/>
      <path class="cls-3" d="M40.32,25.68l-16.04-9.26c-.31-.15-.55-.07-.84.08L1.49,29.18c-.39.25-.6.5-.84.89l16.04,9.26.08-.14c.23-.33.41-.53.75-.75l21.96-12.68c.29-.15.52-.23.84-.08Z"/>
      <path class="cls-2" d="M1.09,29.96l15.5,8.95c.21-.29.42-.51.77-.73l21.97-12.68s.02,0,.03-.02l-15.23-8.79c-.15-.07-.27-.05-.54.09L1.65,29.45c-.24.15-.4.31-.55.52h0ZM16.69,39.63c-.05,0-.11-.02-.15-.04L.5,30.33c-.07-.04-.12-.11-.14-.19-.02-.08,0-.17.03-.24.25-.4.49-.7.94-.99l21.97-12.68c.31-.16.67-.31,1.12-.09l16.06,9.27c.14.08.2.26.12.41-.08.14-.26.2-.41.14-.17-.08-.29-.07-.56.07l-21.94,12.67c-.3.19-.46.37-.65.66l-.08.12c-.06.09-.16.15-.26.15Z"/>
      <path class="cls-1" d="M40.67,26.45c0-.75-.53-1.06-1.18-.69l-21.96,12.68c-.66.38-1.19,1.3-1.19,2.05v7.5c0,.75.53,1.06,1.19.69l21.96-12.68c.66-.38,1.18-1.3,1.18-2.05v-7.5Z"/>
      <path class="cls-2" d="M40.01,25.91c-.11,0-.24.04-.37.12l-21.96,12.68c-.56.32-1.03,1.14-1.03,1.79v7.5c0,.25.07.43.19.5.12.07.32.04.53-.08l21.96-12.67c.56-.32,1.03-1.14,1.03-1.79v-7.5c0-.25-.07-.43-.2-.5-.04-.02-.09-.04-.15-.04h0ZM17,49.15c-.17,0-.32-.04-.46-.12-.32-.18-.5-.56-.5-1.04v-7.5c0-.86.59-1.89,1.34-2.32l21.96-12.68c.41-.24.83-.27,1.14-.08.32.18.5.56.5,1.03v7.5c0,.87-.59,1.89-1.34,2.32l-21.96,12.68c-.23.13-.47.2-.68.2Z"/>
      <polygon class="cls-4" points="37.57 33.64 39.69 32.42 39.69 29.97 37.57 31.19 37.57 33.64"/>
      <path class="cls-2" d="M37.87,31.37v1.73l1.5-.87v-1.73l-1.5.87h0ZM37.57,33.95c-.06,0-.11-.01-.15-.04-.1-.06-.15-.16-.15-.27v-2.45c0-.11.06-.21.15-.27l2.12-1.22c.09-.06.21-.06.31,0,.1.06.15.15.15.26v2.45c0,.11-.06.21-.15.27l-2.12,1.22c-.05.03-.1.04-.16.04Z"/>
      <path class="cls-4" d="M16.69,39.32L.66,30.07c-.22.4-.33.71-.35,1.17v7.5c.01.33.07.57.35.77l16.04,9.26c-.28-.2-.33-.44-.35-.77v-7.5c.02-.46.13-.76.35-1.17h0Z"/>
      <path class="cls-2" d="M.79,30.5c-.1.23-.16.45-.17.75v7.49c.01.3.06.41.22.51l15.21,8.78h0v-7.53c.02-.43.11-.74.25-1.05L.79,30.5h0ZM16.69,49.07c-.05,0-.11-.02-.15-.04L.5,39.77c-.44-.3-.49-.68-.5-1.02v-7.52c.02-.55.16-.91.38-1.31.04-.08.11-.13.19-.15.08-.02.17-.01.24.03l16.04,9.26c.14.08.19.26.12.41h0c-.19.36-.3.62-.31,1.05v7.49c.01.3.06.41.21.51.14.09.18.28.09.42-.06.09-.16.14-.26.14Z"/>
      <polygon class="cls-4" points="34.51 35.4 36.63 34.18 36.63 31.73 34.51 32.96 34.51 35.4"/>
      <path class="cls-2" d="M34.82,33.13v1.73l1.5-.87v-1.73l-1.5.87h0ZM34.51,35.71c-.05,0-.11-.01-.16-.04-.09-.05-.15-.15-.15-.27v-2.44c0-.11.06-.21.15-.26l2.12-1.22c.09-.06.21-.06.31,0,.1.06.15.16.15.26v2.45c0,.11-.06.21-.15.27l-2.12,1.22s-.1.04-.15.04Z"/>
      <path class="cls-2" d="M19.85,47.48c-.05.09-.15.15-.27.15-.17,0-.31-.14-.31-.31v-4.14c0-.17.14-.31.31-.31.17,0,.31.14.31.31v4.13c0,.06-.01.11-.04.16Z"/>
      <path class="cls-1" d="M21.11,29.05c.26-.8,1.36-1.44,2.74-1.59.37-.04.63-.22.63-.44v-.41c0-.14-.09-.25-.27-.34-.18-.09-.39-.12-.62-.1-2.43.22-4.34,1.33-4.72,2.73-.04.13.02.26.18.36.15.1.35.16.59.16h.71c.38,0,.69-.15.76-.37Z"/>
      <path class="cls-2" d="M20.82,28.96c.15-.48.54-.89,1.09-1.21.52-.3,1.18-.51,1.92-.59.13-.01.24-.05.31-.1l.05-.04v-.41s-.05-.05-.1-.07c-.06-.03-.13-.05-.21-.06-.08-.01-.17-.02-.26,0-1.17.11-2.21.42-3,.88-.75.44-1.28.99-1.45,1.61,0,0,.02.02.05.04.05.03.1.06.17.07.07.02.16.03.25.03h.71c.14,0,.27-.03.36-.07.06-.03.1-.06.11-.08h0ZM22.22,28.28c-.42.24-.71.54-.81.87-.06.19-.22.35-.42.45-.18.08-.4.13-.63.13h-.71c-.15,0-.28-.02-.4-.05-.13-.03-.25-.09-.36-.16-.12-.08-.21-.18-.26-.29-.06-.13-.08-.27-.04-.41.22-.78.84-1.47,1.74-1.99.87-.5,2-.85,3.25-.96.14-.01.28,0,.41.01.14.02.26.06.38.12.13.06.23.14.31.24.09.11.14.24.14.38v.41c0,.22-.12.4-.31.54-.15.11-.36.18-.6.21-.65.07-1.23.25-1.67.51h0Z"/>
      <path class="cls-1" d="M17.49,29.01c.33-1.92,2.98-3.45,6.3-3.64.4-.02.7-.21.7-.45v-.41c0-.13-.09-.24-.25-.33-.17-.09-.37-.13-.59-.12-4.45.23-8.01,2.29-8.41,4.86-.02.13.05.25.2.34.15.1.35.15.57.15h.71c.4,0,.73-.17.77-.4Z"/>
      <path class="cls-2" d="M17.18,28.96c.18-1.05.98-1.99,2.18-2.68,1.16-.67,2.7-1.12,4.41-1.21.15,0,.27-.04.35-.1.04-.02.06-.04.06-.04v-.41s0,0,0,0c-.02-.02-.04-.04-.09-.06-.06-.03-.12-.05-.19-.07-.08-.01-.16-.02-.25-.02-2.18.11-4.13.67-5.59,1.51-1.41.82-2.34,1.89-2.53,3.08.01.01.03.03.06.05.05.03.11.05.17.07.07.02.15.03.24.03h.71c.15,0,.28-.03.38-.08.05-.03.09-.05.09-.07h0ZM19.67,26.81c-1.04.6-1.73,1.39-1.88,2.26-.04.21-.19.39-.41.51-.18.09-.41.15-.66.15h-.71c-.14,0-.27-.02-.39-.05-.13-.03-.24-.08-.35-.15-.12-.07-.21-.16-.27-.26-.07-.12-.1-.25-.07-.39.22-1.38,1.26-2.62,2.83-3.53,1.53-.89,3.59-1.48,5.86-1.59.14,0,.27,0,.39.03.13.02.25.07.36.13.12.06.22.14.29.23.08.11.13.23.13.37v.41c0,.23-.13.42-.34.56-.17.11-.4.18-.65.19-1.61.09-3.06.51-4.14,1.13Z"/>
      <path class="cls-1" d="M13.99,28.86c.35-2.98,4.48-5.36,9.64-5.57.41-.02.72-.21.72-.45v-.41c0-.13-.08-.24-.25-.33-.16-.09-.36-.13-.58-.12-6.31.24-11.39,3.17-11.79,6.81-.01.13.06.24.21.33.15.09.34.14.57.14h.71c.41,0,.75-.18.77-.42Z"/>
      <path class="cls-2" d="M13.68,28.83c.19-1.59,1.37-3.01,3.17-4.05,1.76-1.02,4.13-1.68,6.76-1.79.15,0,.28-.04.37-.09.04-.02.06-.04.06-.04v-.41s0,0,0,0c-.01-.02-.04-.04-.08-.06-.06-.03-.12-.05-.18-.07-.07-.02-.15-.02-.24-.02-3.11.12-5.9.89-7.97,2.09-2.02,1.17-3.33,2.73-3.52,4.44.01.01.03.03.06.05.05.03.11.05.17.07.07.02.15.03.23.03h.71c.15,0,.29-.03.38-.08.05-.03.08-.05.08-.06h0ZM17.16,25.3c-1.64.95-2.7,2.21-2.87,3.59-.03.22-.18.41-.4.53-.18.1-.42.16-.68.16h-.71c-.13,0-.26-.02-.38-.04-.13-.03-.24-.08-.34-.14-.12-.07-.21-.16-.27-.25-.07-.12-.1-.24-.09-.38.21-1.93,1.64-3.65,3.83-4.92,2.15-1.24,5.05-2.05,8.26-2.17.14,0,.27,0,.39.03.13.03.24.07.35.13.12.06.21.14.28.23.08.11.12.23.12.36v.41c0,.23-.13.43-.35.57-.17.11-.41.18-.66.19-2.53.1-4.8.74-6.48,1.71Z"/>
      <path class="cls-1" d="M23.06,28.59c-.61.35-.61.92,0,1.27.61.35,1.6.35,2.21,0,.61-.35.61-.92,0-1.27-.61-.35-1.6-.35-2.21,0Z"/>
      <path class="cls-2" d="M23.21,28.85c-.13.07-.22.16-.26.24-.02.04-.04.09-.04.13s.01.09.04.13c.05.08.14.17.26.24.26.15.6.22.95.22s.69-.07.95-.22c.13-.07.22-.16.27-.24.03-.04.04-.09.04-.13s-.01-.09-.04-.13c-.05-.08-.14-.17-.26-.24-.26-.15-.6-.22-.95-.22s-.69.07-.95.22h0ZM22.41,28.78c.1-.17.26-.33.49-.46.35-.2.81-.31,1.26-.31s.9.1,1.26.31c.23.13.39.29.49.46.08.14.12.29.12.44s-.04.3-.12.44c-.1.17-.26.33-.49.46-.35.2-.81.31-1.26.31s-.9-.1-1.26-.31c-.23-.13-.39-.29-.49-.46-.08-.14-.12-.29-.12-.44s.04-.3.12-.44Z"/>
      <path class="cls-2" d="M22,46.24c-.05.09-.15.15-.27.15-.17,0-.31-.14-.31-.31v-4.14c0-.17.14-.31.31-.31.17,0,.31.14.31.31v4.13c0,.06-.01.11-.04.16Z"/>
      <path class="cls-2" d="M24.15,45c-.05.09-.15.15-.27.15-.17,0-.31-.14-.31-.31v-4.14c0-.17.14-.31.31-.31.17,0,.31.14.31.31v4.13c0,.06-.01.11-.04.16Z"/>
      <path class="cls-2" d="M26.3,43.76c-.05.09-.15.15-.27.15-.17,0-.31-.14-.31-.31v-4.14c0-.17.14-.31.31-.31.17,0,.31.14.31.31v4.13c0,.06-.01.11-.04.16Z"/>
    </g>
  </g>
</svg>