<?xml version="1.0" encoding="UTF-8"?>
<svg id="Layer_2" data-name="Layer 2" xmlns="http://www.w3.org/2000/svg" viewBox="0 0 28.27 41.11" fill="currentColor">
  <defs>
    <style>
      .cls-1 {
        fill: #fff;
      }

      .cls-1, .cls-2, .cls-3, .cls-4 {
        fill-rule: evenodd;
      }

      .cls-2 {
        fill: #1a87c7;
      }

      .cls-3 {
        fill: #bdedf8;
      }

      .cls-4 {
        fill: #66ceef;
      }
    </style>
  </defs>
  <g id="_Layer_" data-name="&amp;lt;Layer&amp;gt;">
    <g>
      <path class="cls-3" d="M27.3,12.87l-5.24-3.02c-.66-.25-.94-.14-1.57.16L2.57,20.34c-1.31.84-2.17,2.34-2.25,3.9v11.94c.05.7.11.99.65,1.45l5.24,3.02c-.58-.46-.6-.75-.68-1.45l.03-11.94c.05-1.55.94-3.06,2.25-3.9l17.89-10.33c.66-.3.92-.41,1.6-.15Z"/>
      <path class="cls-2" d="M21.43,10.02c-.24,0-.45.1-.81.27L2.73,20.61c-1.23.78-2.04,2.18-2.1,3.64v11.93c.05.63.08.83.55,1.22l4.11,2.38c-.03-.16-.05-.34-.05-.55v-11.97c.08-1.68,1-3.26,2.38-4.16l17.92-10.34c.21-.09.39-.17.55-.23l-4.19-2.41c-.18-.07-.34-.1-.47-.1h0ZM6.21,40.96c-.05,0-.1-.02-.16-.04l-5.24-3.02c-.68-.56-.73-.92-.81-1.7v-11.97c.08-1.67,1-3.26,2.41-4.15l17.92-10.34c.73-.33,1.07-.47,1.86-.18l5.27,3.04c.13.08.18.25.13.4-.08.14-.26.21-.39.16-.58-.22-.76-.13-1.36.14L7.96,23.63c-1.21.77-2.04,2.2-2.12,3.64v11.93c.08.63.08.83.55,1.22.13.1.16.28.08.41-.08.09-.16.13-.26.13Z"/>
      <path class="cls-1" d="M25.7,13.03L7.81,23.36c-1.23.71-2.25,2.47-2.25,3.9l-.03,11.94c0,1.43,1.02,2.01,2.25,1.3l17.92-10.33c1.26-.72,2.25-2.47,2.25-3.9v-11.94c0-1.43-1-2.01-2.25-1.3Z"/>
      <path class="cls-2" d="M25.7,13.03l.16.27L7.96,23.63c-1.15.65-2.12,2.32-2.12,3.63v11.94c0,.58.18,1,.52,1.19.31.19.76.13,1.28-.15l17.89-10.33c1.15-.65,2.1-2.32,2.1-3.63v-11.94c0-.58-.16-1-.5-1.19-.32-.19-.79-.13-1.28.16l-.16-.27h0ZM6.79,41.11c-.26,0-.5-.06-.73-.19-.52-.3-.81-.91-.81-1.72v-11.94c0-1.53,1.07-3.4,2.41-4.16l17.89-10.33c.71-.4,1.39-.46,1.91-.15.52.3.81.91.81,1.72v11.94c0,1.53-1.1,3.4-2.41,4.17l-17.92,10.33c-.39.23-.79.35-1.15.35Z"/>
      <path class="cls-4" d="M16.74,22.06c1.28-.73,2.31-.14,2.31,1.32,0,.89-.39,1.89-.97,2.71v4.14c0,.7-.5,1.55-1.1,1.9l-.45.26c-.6.35-1.1.06-1.1-.63v-4.14c-.6-.14-.97-.71-.97-1.6,0-1.46,1.02-3.24,2.28-3.97Z"/>
      <path class="cls-2" d="M17.79,22.05c-.26,0-.58.09-.89.27-1.15.68-2.12,2.34-2.12,3.7,0,.71.26,1.19.73,1.3.13.03.24.16.24.3v4.14c0,.22.05.38.16.44.11.06.26.03.47-.08l.45-.27c.52-.29.94-1.04.94-1.63v-4.14c0-.06.03-.13.08-.18.55-.79.89-1.74.89-2.53,0-.59-.18-1.02-.52-1.22-.13-.08-.26-.11-.42-.11h0ZM16.03,32.85c-.16,0-.31-.04-.45-.11-.29-.18-.47-.53-.47-.98v-3.92c-.6-.26-.97-.93-.97-1.82,0-1.58,1.07-3.44,2.46-4.23.71-.41,1.39-.46,1.91-.16.52.31.84.93.84,1.75,0,.9-.37,1.92-.97,2.81v4.04c0,.81-.55,1.77-1.26,2.17l-.47.26c-.21.13-.42.19-.63.19Z"/>
      <path class="cls-4" d="M20.25,5.8c-.24-.77-.55-1.53-1.13-2.11.11.03.21.05.31.07,1.65.5,2.93,2.03,2.93,4.39l.03,4.58-1.94-1.12.03-3.54c0-.96-.13-1.82-.24-2.28Z"/>
      <path class="cls-2" d="M20.78,11.45l1.31.76-.03-4.04c0-1.75-.79-3.16-2.07-3.84.21.39.39.85.55,1.39,0,0,0,.01.03.02.11.5.24,1.38.21,2.35v3.36h0ZM22.4,13.05c-.05,0-.1-.01-.16-.04l-1.94-1.12c-.1-.06-.16-.16-.16-.27l.03-3.54c0-.92-.11-1.76-.21-2.2-.26-.89-.6-1.51-1.05-1.97-.11-.1-.13-.26-.05-.38.08-.12.24-.18.37-.13.03.01.08.02.13.03.05.01.1.02.16.04,1.94.58,3.17,2.38,3.17,4.69l.03,4.58c0,.11-.08.21-.16.27-.05.03-.1.04-.16.04Z"/>
      <path class="cls-4" d="M15.22.57c1.57-.38,2.8-.4,4.3.35l1.91,1.07c-1.62-.82-3.04-.72-4.74-.21-1.28.47-2.2.98-3.33,1.77-1.15.89-2.07,1.75-3.04,2.86-.84,1-1.49,1.92-2.17,3.03-.84,1.45-1.47,2.88-2.02,4.47-.34,1.18-.68,2.17-.68,3.41l-.03,5.23-1.91-1.11-.03-4.63c0-1.22.26-2.2.58-3.39.5-1.68,1.05-2.99,1.86-4.51.76-1.32,1.52-2.39,2.49-3.56,1.1-1.27,2.12-2.21,3.51-3.19,1.13-.73,2.02-1.19,3.3-1.58Z"/>
      <path class="cls-2" d="M3.83,21.25l1.28.76.05-4.69c0-1.15.26-2.07.58-3.14l.1-.35c.52-1.59,1.18-3.03,2.04-4.54.71-1.13,1.36-2.08,2.2-3.07,1.02-1.17,1.96-2.04,3.09-2.91,1.05-.75,1.99-1.31,3.41-1.81.81-.24,1.65-.44,2.57-.41-1.34-.62-2.49-.54-3.85-.21-1.31.4-2.2.88-3.22,1.53-1.28.91-2.28,1.82-3.43,3.13-.97,1.15-1.7,2.2-2.46,3.52-.84,1.56-1.36,2.84-1.83,4.44-.29,1.13-.55,2.11-.55,3.3l.03,4.46h0ZM5.42,22.84c-.05,0-.1-.02-.16-.04l-1.91-1.11c-.08-.05-.16-.16-.16-.27v-4.63c0-1.27.26-2.29.55-3.47.5-1.65,1.05-2.97,1.91-4.57.79-1.35,1.52-2.43,2.52-3.62,1.18-1.36,2.23-2.3,3.56-3.24,1.07-.69,2.02-1.2,3.41-1.62h0c1.55-.37,2.88-.45,4.51.37l1.91,1.08c.16.08.21.26.13.41-.08.15-.26.2-.39.13-1.6-.81-2.96-.66-4.53-.19-1.15.42-2.04.89-3.22,1.73-1.1.83-1.99,1.67-2.99,2.81-.81.96-1.47,1.89-2.15,2.98-.84,1.47-1.47,2.87-1.96,4.41l-.1.35c-.31,1.02-.58,1.9-.58,2.96l-.03,5.23c0,.11-.05.21-.16.26-.05.03-.1.04-.16.04Z"/>
      <path class="cls-4" d="M14.78,2.63c5.19-2.91,9.41-.55,9.41,5.26l-.03,3.83-1.76,1.02-.03-4.58c0-4.2-3.59-5.79-7.6-3.56-4.03,2.27-7.62,7.67-7.6,12.28l.03,4.63-1.78,1.02v-4.99c0-5.64,4.45-12.16,9.35-14.92h0Z"/>
      <path class="cls-2" d="M14.78,2.63h.03-.03ZM18.97,1.69c-1.21,0-2.59.4-4.04,1.21h0c-5.06,2.84-9.2,9.41-9.2,14.65v4.46l1.15-.66v-4.45c-.03-4.51,3.46-10.14,7.76-12.55,2.17-1.22,4.32-1.39,5.9-.47,1.39.8,2.15,2.33,2.15,4.29l.03,4.05,1.15-.67v-3.65c0-2.65-.89-4.64-2.51-5.59-.71-.41-1.52-.61-2.38-.61h0ZM5.42,22.84c-.05,0-.1-.02-.16-.04-.08-.06-.16-.16-.16-.27v-4.99c.03-5.53,4.19-12.2,9.54-15.19,2.65-1.48,5.14-1.69,7.02-.59,1.81,1.07,2.83,3.24,2.83,6.12l-.03,3.83c0,.11-.05.21-.16.27l-1.76,1.02c-.1.06-.21.06-.31,0-.1-.05-.16-.16-.16-.27l-.03-4.58c0-1.74-.63-3.08-1.81-3.76-1.39-.81-3.33-.64-5.32.47-4.11,2.31-7.47,7.7-7.44,12.01l.03,4.63c0,.11-.08.21-.16.27l-1.78,1.02c-.05.03-.1.04-.16.04Z"/>
      <path class="cls-4" d="M17.27,31.94c-.11.08-.18.14-.29.2l-.45.26c-.6.35-1.1.06-1.1-.63v-.88l1.83,1.06Z"/>
      <path class="cls-2" d="M15.75,31.41v.35c0,.22.05.38.16.44.11.06.26.03.47-.08l.29-.18-.92-.54h0ZM16.03,32.85c-.16,0-.31-.04-.45-.11-.29-.18-.47-.53-.47-.98v-.88c0-.11.05-.21.16-.27.08-.05.21-.05.31,0l1.81,1.06c.11.05.16.14.16.24.03.1-.03.2-.1.26-.11.09-.21.17-.31.23l-.47.26c-.21.13-.42.19-.63.19Z"/>
      <path class="cls-4" d="M16.74,22.06c1.28-.73,2.31-.14,2.31,1.32,0,.57-.16,1.19-.42,1.78l-.55.93-3.2-1.84c.42-.91,1.1-1.74,1.86-2.19Z"/>
      <path class="cls-2" d="M15.3,24.12l2.67,1.55.37-.67c.26-.54.39-1.11.39-1.62,0-.59-.18-1.02-.52-1.22-.31-.19-.79-.13-1.31.16h0c-.6.36-1.2,1.02-1.6,1.8h0ZM18.08,26.4c-.05,0-.1-.01-.16-.04l-3.2-1.84c-.13-.08-.18-.25-.13-.4.47-1,1.21-1.87,2.02-2.33h0c.71-.41,1.39-.46,1.91-.16.52.31.84.93.84,1.75,0,.6-.16,1.26-.47,1.91l-.55.96c-.05.1-.16.15-.26.15Z"/>
      <path class="cls-3" d="M.73,22.6l-.03.04c-.24.6-.34,1.03-.37,1.68v11.87c.08.7.1.99.66,1.45l5.21,3c-.58-.46-.6-.74-.65-1.45v-11.87c.03-.58.11-1.2.37-1.73l-5.19-3Z"/>
      <path class="cls-2" d="M.89,23.05c-.16.4-.21.76-.24,1.29v11.86c.05.63.08.82.55,1.21l4.09,2.37c-.03-.16-.03-.34-.05-.55v-11.9c.03-.61.13-1.15.29-1.6l-4.64-2.69h0ZM6.21,40.96c-.05,0-.1-.02-.16-.04l-5.19-3c-.71-.55-.76-.91-.84-1.68l.03-11.9c.03-.73.13-1.2.37-1.8.03-.08.1-.17.18-.2.1-.03.21-.04.29,0l5.19,3c.13.08.18.25.13.4-.21.42-.31.96-.34,1.61l-.03,11.86c.08.63.08.83.55,1.21.13.1.16.28.08.41-.08.09-.16.13-.26.13Z"/>
    </g>
  </g>
</svg>