<?xml version="1.0" encoding="UTF-8"?>
<svg id="Layer_2" data-name="Layer 2" xmlns="http://www.w3.org/2000/svg" viewBox="0 0 34.42 40.77" fill="currentColor">
  <defs>
    <style>
      .cls-1 {
        fill: #fff;
      }

      .cls-1, .cls-2, .cls-3, .cls-4 {
        fill-rule: evenodd;
      }

      .cls-2 {
        fill: #1a87c7;
      }

      .cls-3 {
        fill: #bdedf8;
      }

      .cls-4 {
        fill: #66ceef;
      }
    </style>
  </defs>
  <g id="_Layer_" data-name="&amp;lt;Layer&amp;gt;">
    <g>
      <path class="cls-4" d="M17.06,4.08c-.03.31-.16.54-.42.71l6.24,3.61c.26-.17.39-.41.42-.71v-3.77L17.06.31v3.77h0ZM23.3,16.53c0-.12-.03-.17-.13-.26l-6.24-3.61c.11.09.13.14.13.27v4.2l6.24,3.61v-4.21Z"/>
      <path class="cls-2" d="M17.14,4.73l5.71,3.29c.08-.1.13-.22.13-.37v-3.56l-5.63-3.25v3.26c-.03.24-.08.45-.21.62h0ZM22.88,8.71c-.05,0-.1-.02-.16-.04l-6.24-3.61c-.1-.05-.16-.15-.16-.25s.05-.21.13-.27c.18-.12.26-.26.29-.47V.31c0-.1.05-.21.16-.26.1-.06.21-.06.29,0l6.26,3.6c.08.06.16.16.16.27v3.77c-.05.43-.21.74-.55.96-.05.04-.13.06-.18.06h0ZM17.35,16.95l5.63,3.24v-3.71l-5.63-3.22v3.69h0ZM23.3,21.04c-.05,0-.11,0-.16-.04l-6.23-3.6c-.11-.06-.16-.16-.16-.27v-4.2c-.13-.1-.16-.3-.05-.43.08-.12.26-.18.39-.09l6.24,3.6c.21.17.29.31.29.53v4.21c0,.1-.08.21-.16.26-.05.04-.11.04-.16.04Z"/>
      <polygon class="cls-3" points="34.11 6.08 27.88 2.47 17.06 .31 23.3 3.91 34.11 6.08"/>
      <path class="cls-2" d="M23.4,3.62l8.93,1.79-4.58-2.64-8.91-1.79,4.56,2.64h0ZM34.11,6.39s-.05,0-.08,0l-10.79-2.16c-.05,0-.08-.02-.11-.03l-6.23-3.61c-.13-.08-.18-.24-.13-.37.05-.14.18-.23.34-.19l10.82,2.16s.05.02.08.03l6.26,3.6c.13.08.18.24.13.38-.05.12-.16.2-.29.2Z"/>
      <path class="cls-3" d="M22.88,8.4l-6.24-3.61c-5.61,3.24-8.44,4.69-12.05,10.46-3.17,5.05-6.81,15.28-1.86,19.86l6.6,3.91c-6.03-5.17-1.07-17.07,3.17-22.55,3.33-4.31,5.66-5.35,10.38-8.07Z"/>
      <path class="cls-2" d="M16.64,5.15l-.58.33c-5.19,2.99-7.78,4.48-11.21,9.93-3.28,5.19-6.65,15.06-1.91,19.48l4.85,2.85c-4.01-5.88.65-16.54,4.45-21.45,3.04-3.91,5.32-5.21,9.06-7.35.31-.17.63-.35.97-.54l-5.63-3.25h0ZM9.33,39.32c-.05,0-.11,0-.16-.04l-6.6-3.9c-5.08-4.7-1.62-14.93,1.76-20.3,3.51-5.57,6.31-7.2,11.42-10.14l.73-.42c.11-.06.21-.06.31,0l6.24,3.6c.1.06.16.16.16.27s-.05.21-.16.27c-.5.29-.97.56-1.42.81-3.83,2.18-5.92,3.38-8.88,7.19-4.04,5.21-9.12,17.04-3.2,22.12.13.11.16.29.05.42-.05.08-.16.12-.26.12Z"/>
      <path class="cls-1" d="M15.38,40.32c-1.55-.5-2.7-1.81-3.33-3.62-.47-1.33-.66-2.93-.52-4.67.16-1.76.63-3.64,1.47-5.54,1.7-3.75,4.87-7.51,9.88-10.22.24-.12.42,0,.42.24h0v4.21l10.82-14.65-10.82-2.16v3.77c0,.26-.18.58-.42.71l-4.04,2.34c-3.38,1.95-6.44,5.33-8.65,9.2-2.23,3.89-3.61,8.27-3.61,12.19,0,3.72,1.39,6.18,3.51,7.41,1.49.85,3.33,1.11,5.29.78Z"/>
      <path class="cls-2" d="M23.61,4.29v3.4c0,.37-.26.79-.58.98l-4.03,2.33c-3.22,1.86-6.24,5.09-8.54,9.08-2.31,4.02-3.56,8.29-3.56,12.05,0,3.4,1.15,5.88,3.35,7.15,1.15.65,2.52.95,4.01.87-1.1-.68-1.96-1.83-2.49-3.33-.5-1.4-.68-3.05-.52-4.8.13-1.88.63-3.77,1.47-5.64,1.36-2.98,4.19-7.2,10.03-10.36.21-.11.42-.11.58-.02.18.1.29.3.29.53v3.27l9.96-13.51-9.96-2h0ZM13.78,40.77c-1.41,0-2.72-.32-3.85-.96-2.36-1.36-3.67-4.09-3.67-7.68,0-3.86,1.31-8.25,3.64-12.35,2.36-4.09,5.48-7.41,8.78-9.31l4.03-2.34c.13-.07.26-.3.26-.44v-3.77c0-.1.05-.18.1-.23.08-.06.18-.09.26-.07l10.82,2.16c.1.03.18.1.23.19.03.1.03.21-.05.3l-10.82,14.65c-.08.11-.21.15-.34.11-.13-.04-.21-.16-.21-.29v-4.15c-5.66,3.08-8.38,7.15-9.69,10.04-.81,1.81-1.31,3.63-1.44,5.44-.13,1.65.05,3.23.5,4.54.63,1.76,1.73,2.98,3.14,3.43.13.03.21.17.21.31s-.1.26-.26.28c-.55.1-1.13.14-1.65.14Z"/>
    </g>
  </g>
</svg>