<?xml version="1.0" encoding="UTF-8"?>
<svg id="Layer_2" data-name="Layer 2" xmlns="http://www.w3.org/2000/svg" viewBox="0 0 31.31 40.6" fill="currentColor">
  <defs>
    <style>
      .cls-1, .cls-2, .cls-3, .cls-4 {
        fill-rule: evenodd;
      }

      .cls-1, .cls-5 {
        fill: #fff;
      }

      .cls-2 {
        fill: #1a87c7;
      }

      .cls-3 {
        fill: #bdedf8;
      }

      .cls-4 {
        fill: #66ceef;
      }
    </style>
  </defs>
  <g id="_Layer_" data-name="&amp;lt;Layer&amp;gt;">
    <g>
      <path class="cls-3" d="M22.02,4.73v1.34l1.46.84v-1.34l5.75-3.32c.43-.23.78-.34,1.24-.12l-1.46-.84c-.46-.23-.81-.1-1.25.12l-5.75,3.32Z"/>
      <path class="cls-2" d="M22.33,5.89l.85.49v-.81c0-.11.06-.22.16-.27l5.74-3.32c.1-.05.19-.1.3-.14l-.51-.3c-.31-.14-.56-.08-.95.13l-5.59,3.22v.99h0ZM23.48,7.22c-.05,0-.11-.02-.15-.04l-1.47-.84c-.09-.05-.16-.15-.16-.27v-1.34c0-.11.06-.22.16-.27l5.75-3.32c.43-.23.91-.43,1.53-.13l1.49.85c.15.09.2.26.12.41-.08.15-.26.21-.41.14-.33-.16-.57-.09-.97.11l-5.58,3.22v1.17c0,.11-.06.21-.16.27-.05.03-.1.04-.16.04Z"/>
      <path class="cls-4" d="M29.31,4.07l-1.47-.84c.38.25.44.57.45,1v15.8c-.04,1.07-.64,2.1-1.55,2.68l-4.72,2.73v1.35l1.46.84v-1.34l4.73-2.73c.9-.57,1.5-1.61,1.55-2.69V5.07c-.02-.43-.09-.74-.45-1Z"/>
      <path class="cls-2" d="M22.33,26.6l.85.5v-.81c0-.11.06-.22.16-.27l4.72-2.73c.82-.51,1.36-1.45,1.39-2.42V5.07c0-.37-.06-.57-.3-.74l-.56-.32c.01.07.02.14.02.2v15.82c-.05,1.19-.7,2.31-1.7,2.94l-4.58,2.65v.98h0ZM23.48,27.94c-.05,0-.11-.02-.15-.05l-1.47-.84c-.09-.06-.16-.16-.16-.27v-1.35c0-.1.06-.21.16-.26l4.73-2.73c.81-.52,1.35-1.45,1.39-2.42V4.23c-.02-.37-.07-.57-.32-.75-.14-.09-.18-.28-.09-.42.09-.14.28-.18.42-.1l1.47.85s0,0,.02,0c.51.36.57.83.58,1.24v15.81c-.04,1.19-.69,2.31-1.68,2.94l-4.58,2.65v1.16c0,.11-.06.22-.16.27-.05.03-.1.05-.16.05Z"/>
      <path class="cls-1" d="M23.48,6.91l4.73-2.72c.85-.5,1.55-.09,1.55.89v15.8c0,.99-.69,2.19-1.55,2.69l-4.73,2.73v1.34l5.75-3.32c.97-.56,1.77-1.93,1.77-3.06V3.27c0-.56-.2-.96-.52-1.14-.31-.18-.76-.16-1.24.12l-5.75,3.32v1.34Z"/>
      <path class="cls-2" d="M23.8,26.46v.63l5.28-3.05c.88-.51,1.62-1.79,1.62-2.8V3.27c0-.42-.14-.74-.37-.87-.23-.14-.57-.1-.95.12l-5.59,3.22v.63l4.26-2.46c.51-.29,1.01-.33,1.4-.1.4.22.61.67.61,1.26v15.8c0,1.1-.75,2.4-1.69,2.94l-4.57,2.64h0ZM23.48,27.94c-.05,0-.11-.02-.15-.05-.1-.05-.16-.16-.16-.27v-1.34c0-.11.06-.22.16-.27l4.72-2.73c.76-.43,1.4-1.54,1.4-2.41V5.07c0-.36-.11-.62-.3-.73-.19-.11-.48-.07-.78.1l-4.73,2.73c-.1.05-.21.05-.3,0-.1-.05-.16-.16-.16-.27v-1.34c0-.11.06-.22.16-.27l5.74-3.32c.58-.33,1.13-.37,1.56-.12.43.25.68.76.68,1.41v17.98c0,1.24-.85,2.7-1.93,3.33l-5.75,3.32s-.1.05-.16.05Z"/>
      <rect class="cls-5" x="1.66" y="9.89" width="24.57" height="23.41"/>
      <path class="cls-2" d="M1.97,32.98h23.95V10.2H1.97v22.78h0ZM26.23,33.6H1.66c-.17,0-.3-.14-.3-.3V9.89c0-.17.14-.3.3-.3h24.57c.17,0,.31.13.31.3v23.41c0,.17-.14.3-.31.3Z"/>
      <path class="cls-3" d="M6.3,5.47c-4.23,2.43-4.23,6.4,0,8.84,4.23,2.44,11.09,2.44,15.31,0,4.23-2.44,4.22-6.4,0-8.84-4.23-2.44-11.08-2.44-15.31,0h0ZM5.26,4.87c4.8-2.77,12.59-2.78,17.38,0,4.8,2.76,4.8,7.27,0,10.04-4.81,2.77-12.59,2.77-17.39,0C.46,12.14.46,7.64,5.26,4.87h0Z"/>
      <path class="cls-2" d="M6.3,5.47l.15.26c-1.95,1.13-3.02,2.6-3.02,4.15s1.07,3.03,3.02,4.16c4.14,2.39,10.86,2.39,15.01,0,1.94-1.12,3.01-2.6,3.01-4.16s-1.07-3.02-3.02-4.15c-4.14-2.38-10.86-2.38-15,0l-.15-.26h0ZM13.96,16.44c-2.82,0-5.66-.63-7.81-1.87-2.14-1.23-3.32-2.9-3.32-4.69s1.18-3.45,3.33-4.68c4.3-2.48,11.31-2.48,15.62,0,2.14,1.23,3.32,2.9,3.32,4.68s-1.17,3.45-3.32,4.69c-2.16,1.24-4.98,1.87-7.81,1.87h0ZM13.96,3.1c3.09,0,6.19.68,8.54,2.04,2.22,1.29,3.45,2.97,3.45,4.75s-1.23,3.47-3.45,4.76c-4.71,2.72-12.38,2.72-17.09,0-2.22-1.29-3.44-2.97-3.44-4.76s1.23-3.47,3.45-4.75c2.35-1.36,5.44-2.04,8.54-2.04h0ZM13.96,17.29c-3.21,0-6.41-.7-8.85-2.12-2.43-1.39-3.75-3.27-3.75-5.29s1.33-3.88,3.75-5.28c4.88-2.81,12.82-2.81,17.7,0,2.42,1.4,3.75,3.28,3.75,5.28s-1.33,3.9-3.75,5.29c-2.44,1.41-5.64,2.12-8.85,2.12Z"/>
      <path class="cls-1" d="M5.79,14c-1.37-.96-2.59-.8-3.81-1.02-2.96-.52-1.17-2.38-.76-4.39C2.67,1.21,8.29,2.6,12.54,2.12c1.23-.15,2.42-1.3,3.38-1.63,2.85-.97,5.25,2.47,7.02,3.97,10.3,8.72-8.66,15.5-17.15,9.54Z"/>
      <path class="cls-2" d="M16.92.62c-.29,0-.6.04-.9.15-.35.12-.75.37-1.18.64-.69.43-1.45.91-2.27,1.01-.76.09-1.59.11-2.39.14-3.69.13-7.51.26-8.66,6.09-.11.54-.3,1.05-.5,1.54-.29.78-.55,1.44-.31,1.85.16.3.61.51,1.32.63.3.05.61.09.91.12.96.09,1.95.19,3.03.95,5.43,3.82,15.64,2.21,18.73-1.8,1.71-2.22,1.03-4.72-1.97-7.26-.39-.33-.8-.74-1.23-1.18-1.3-1.3-2.88-2.88-4.59-2.88h0ZM13.94,16.56c-3.02,0-6.03-.7-8.32-2.31h0c-.96-.67-1.82-.76-2.73-.84-.32-.03-.64-.06-.96-.12-.93-.17-1.49-.46-1.76-.94-.37-.67-.06-1.49.28-2.37.18-.47.36-.96.46-1.44C2.16,2.22,6.41,2.08,10.17,1.95c.81-.03,1.59-.06,2.34-.14.68-.08,1.35-.51,2.01-.92.45-.29.89-.56,1.3-.7,2.43-.83,4.48,1.23,6.13,2.89.43.43.83.83,1.2,1.15,4.37,3.7,3.16,6.67,2.06,8.1-1.99,2.58-6.62,4.24-11.26,4.24Z"/>
      <path class="cls-1" d="M5.26,28.17c4.8-2.77,12.59-2.77,17.38,0,4.8,2.77,4.8,7.27,0,10.04-4.81,2.77-12.59,2.77-17.39,0-4.81-2.77-4.81-7.27,0-10.04Z"/>
      <path class="cls-2" d="M13.96,26.4c-3.09,0-6.19.68-8.54,2.04-2.22,1.29-3.45,2.97-3.45,4.75s1.23,3.47,3.44,4.76c4.71,2.71,12.38,2.71,17.09,0,2.22-1.29,3.45-2.97,3.45-4.76s-1.23-3.47-3.45-4.75c-2.35-1.36-5.45-2.04-8.54-2.04h0ZM13.96,40.6c-3.21,0-6.41-.7-8.85-2.11-2.43-1.4-3.75-3.28-3.75-5.29s1.33-3.89,3.75-5.29c4.88-2.82,12.82-2.82,17.7,0,2.42,1.4,3.75,3.27,3.75,5.29s-1.33,3.89-3.75,5.29c-2.44,1.41-5.64,2.11-8.85,2.11Z"/>
      <path class="cls-3" d="M6.3,26.66c-4.23,2.44-4.23,6.41,0,8.85,4.23,2.43,11.09,2.43,15.31,0,4.23-2.44,4.22-6.41,0-8.85-4.23-2.44-11.08-2.43-15.31,0h0ZM5.26,26.05c4.8-2.77,12.59-2.77,17.38,0,4.8,2.77,4.8,7.28,0,10.05-4.81,2.77-12.59,2.77-17.39,0-4.81-2.78-4.81-7.28,0-10.05h0Z"/>
      <path class="cls-2" d="M6.45,26.92c-1.95,1.12-3.02,2.6-3.02,4.16s1.07,3.03,3.02,4.15c4.14,2.39,10.86,2.39,15.01,0,1.94-1.12,3.01-2.6,3.01-4.15s-1.07-3.03-3.02-4.16c-4.14-2.39-10.86-2.39-15,0h0ZM13.96,37.63c-2.82,0-5.66-.63-7.81-1.87-2.14-1.24-3.32-2.9-3.32-4.68s1.18-3.45,3.33-4.69h0c4.3-2.48,11.31-2.48,15.62,0,2.14,1.23,3.32,2.9,3.32,4.69s-1.18,3.45-3.32,4.68c-2.16,1.24-4.98,1.87-7.81,1.87h0ZM5.42,26.32h0c4.7-2.72,12.37-2.72,17.08,0,2.22,1.29,3.45,2.97,3.45,4.76s-1.23,3.47-3.45,4.75c-4.71,2.72-12.38,2.72-17.09,0-2.22-1.29-3.44-2.97-3.44-4.75s1.23-3.47,3.45-4.76h0ZM13.96,38.48c-3.21,0-6.41-.71-8.85-2.11-2.43-1.4-3.75-3.27-3.75-5.28s1.33-3.89,3.75-5.29h0c4.88-2.82,12.82-2.82,17.7,0,2.42,1.4,3.75,3.28,3.75,5.29s-1.33,3.88-3.75,5.28c-2.44,1.41-5.64,2.11-8.85,2.11Z"/>
      <path class="cls-3" d="M3.14,31.08h21.6V13.43c-.21,1.41-1.25,2.8-3.13,3.89-4.22,2.44-11.08,2.44-15.31,0-1.94-1.12-2.99-2.57-3.15-4.04v17.8Z"/>
      <path class="cls-2" d="M3.45,30.77h20.99v-15.64c-.57.92-1.47,1.76-2.67,2.46-4.31,2.49-11.32,2.49-15.63,0-1.22-.7-2.13-1.55-2.69-2.48v15.67h-.01ZM24.74,31.38H3.14c-.08,0-.16-.03-.22-.09-.06-.06-.09-.14-.09-.21V13.28c0-.16.13-.3.3-.3.15,0,.3.11.32.28.16,1.42,1.22,2.76,3,3.79,4.14,2.39,10.86,2.39,15.01,0,1.71-.99,2.77-2.3,2.97-3.67.03-.16.17-.26.33-.26.16.02.29.15.29.31v17.65c0,.17-.14.3-.31.3Z"/>
      <path class="cls-1" d="M24.76,13.29c-.16,1.46-1.2,2.9-3.15,4.02-4.22,2.44-11.08,2.44-15.31,0-1.94-1.12-2.99-2.57-3.15-4.04.55.59,1.25,1.14,2.11,1.63,4.8,2.77,12.59,2.77,17.39,0,.85-.49,1.56-1.04,2.1-1.62Z"/>
      <path class="cls-2" d="M3.71,14.21c.42,1.05,1.37,2.04,2.75,2.83,4.14,2.39,10.86,2.39,15.01,0,1.36-.79,2.31-1.77,2.74-2.83-.41.34-.88.66-1.4.96-4.88,2.82-12.82,2.82-17.7,0-.51-.3-.98-.62-1.4-.96h0ZM13.96,19.44c-2.82,0-5.66-.62-7.81-1.86-1.95-1.13-3.12-2.64-3.3-4.27-.02-.13.05-.25.18-.31.12-.05.26-.03.36.07.54.58,1.23,1.11,2.03,1.57,4.71,2.72,12.38,2.72,17.09,0,.81-.47,1.5-1,2.04-1.57.09-.09.22-.12.35-.07.12.06.19.18.18.31-.18,1.63-1.35,3.14-3.3,4.27-2.16,1.24-4.98,1.86-7.81,1.86Z"/>
      <path class="cls-4" d="M6.3,26.66c4.23-2.43,11.08-2.44,15.31,0,4.22,2.44,4.23,6.41,0,8.85-4.22,2.43-11.08,2.43-15.31,0-4.23-2.44-4.23-6.41,0-8.85Z"/>
      <path class="cls-2" d="M6.45,26.92c-1.95,1.12-3.02,2.6-3.02,4.16s1.07,3.03,3.02,4.15c4.14,2.39,10.86,2.39,15.01,0,1.94-1.12,3.01-2.6,3.01-4.15s-1.07-3.03-3.02-4.16c-4.14-2.39-10.86-2.39-15,0h0ZM13.96,37.63c-2.82,0-5.66-.63-7.81-1.87-2.14-1.24-3.32-2.9-3.32-4.68s1.18-3.45,3.33-4.69h0c4.3-2.48,11.31-2.48,15.62,0,2.14,1.23,3.32,2.9,3.32,4.69s-1.18,3.45-3.32,4.68c-2.16,1.24-4.98,1.87-7.81,1.87Z"/>
      <path class="cls-1" d="M7.95,22.6c.62,0,1.1-.5,1.1-1.11s-.49-1.1-1.1-1.1-1.1.5-1.1,1.1.5,1.11,1.1,1.11Z"/>
      <path class="cls-2" d="M7.95,20.69c-.44,0-.79.36-.79.8s.36.8.79.8.8-.36.8-.8-.36-.8-.8-.8h0ZM7.95,22.91c-.78,0-1.41-.63-1.41-1.42s.63-1.41,1.41-1.41,1.42.63,1.42,1.41-.64,1.42-1.42,1.42Z"/>
      <path class="cls-1" d="M17.68,23.38c.64,0,1.17-.53,1.17-1.17s-.53-1.17-1.17-1.17-1.17.52-1.17,1.17.52,1.17,1.17,1.17Z"/>
      <path class="cls-2" d="M17.68,21.34c-.48,0-.87.39-.87.87s.39.86.87.86.86-.38.86-.86-.38-.87-.86-.87h0ZM17.68,23.68c-.81,0-1.49-.66-1.49-1.48s.67-1.48,1.49-1.48,1.48.66,1.48,1.48-.66,1.48-1.48,1.48Z"/>
      <path class="cls-1" d="M11.96,26.02c.57,0,1.02-.45,1.02-1.01s-.45-1.02-1.02-1.02-1.01.45-1.01,1.02.45,1.01,1.01,1.01Z"/>
      <path class="cls-2" d="M11.96,24.31c-.38,0-.7.31-.7.7s.32.7.7.7.71-.32.71-.7-.32-.7-.71-.7h0ZM11.96,26.33c-.72,0-1.32-.59-1.32-1.32s.6-1.32,1.32-1.32,1.33.59,1.33,1.32-.6,1.32-1.33,1.32Z"/>
      <path class="cls-1" d="M15.71,27.74c.36,0,.64-.29.64-.64s-.29-.65-.64-.65-.65.3-.65.65.3.64.65.64Z"/>
      <path class="cls-2" d="M15.71,26.76c-.19,0-.34.15-.34.34s.15.33.34.33.34-.15.34-.33-.16-.34-.34-.34h0ZM15.71,28.05c-.53,0-.96-.43-.96-.95s.43-.96.96-.96.95.43.95.96-.43.95-.95.95Z"/>
      <path class="cls-1" d="M21.25,18.88c.36,0,.64-.29.64-.64s-.29-.65-.64-.65-.64.3-.64.65.28.64.64.64Z"/>
      <path class="cls-2" d="M21.25,17.89c-.18,0-.34.15-.34.34s.16.33.34.33c.19,0,.34-.15.34-.33s-.15-.34-.34-.34h0ZM21.25,19.18c-.52,0-.95-.43-.95-.95s.44-.96.95-.96.96.43.96.96-.42.95-.96.95Z"/>
      <path class="cls-1" d="M14.22,32.4c.36,0,.64-.29.64-.64s-.29-.64-.64-.64-.65.29-.65.64.29.64.65.64Z"/>
      <path class="cls-2" d="M14.22,31.42c-.18,0-.34.15-.34.34s.16.34.34.34.34-.16.34-.34-.16-.34-.34-.34h0ZM14.22,32.71c-.52,0-.96-.43-.96-.96s.44-.96.96-.96.96.43.96.96-.43.96-.96.96Z"/>
      <path class="cls-1" d="M4.76,11c.61,0,1.1-.5,1.1-1.11s-.5-1.1-1.1-1.1-1.1.5-1.1,1.1.5,1.11,1.1,1.11Z"/>
      <path class="cls-2" d="M4.76,9.1c-.44,0-.8.36-.8.79s.36.8.8.8.8-.35.8-.8-.36-.79-.8-.79h0ZM4.76,11.3c-.78,0-1.42-.63-1.42-1.42s.64-1.41,1.42-1.41,1.42.63,1.42,1.41-.63,1.42-1.42,1.42Z"/>
      <path class="cls-1" d="M16.38,9.88c.59,0,1.07-.48,1.07-1.06s-.48-1.07-1.07-1.07-1.07.48-1.07,1.07.48,1.06,1.07,1.06Z"/>
      <path class="cls-2" d="M16.38,8.05c-.42,0-.76.35-.76.76s.34.76.76.76.75-.34.75-.76-.34-.76-.75-.76h0ZM16.38,10.19c-.76,0-1.38-.62-1.38-1.37s.62-1.37,1.38-1.37,1.37.62,1.37,1.37-.62,1.37-1.37,1.37Z"/>
      <path class="cls-1" d="M15.45,4.53c.75,0,1.35-.61,1.35-1.36s-.6-1.36-1.35-1.36-1.36.61-1.36,1.36.61,1.36,1.36,1.36Z"/>
      <path class="cls-2" d="M15.45,2.13c-.58,0-1.04.47-1.04,1.04s.46,1.04,1.04,1.04,1.04-.47,1.04-1.04-.47-1.04-1.04-1.04h0ZM15.45,4.83c-.92,0-1.66-.75-1.66-1.66s.74-1.66,1.66-1.66,1.66.75,1.66,1.66-.75,1.66-1.66,1.66Z"/>
      <path class="cls-1" d="M10.25,8.69c.41,0,.74-.33.74-.73s-.33-.74-.74-.74-.74.33-.74.74.33.73.74.73Z"/>
      <path class="cls-2" d="M10.25,7.52c-.24,0-.43.19-.43.43s.19.43.43.43.43-.19.43-.43-.19-.43-.43-.43h0ZM10.25,9c-.57,0-1.04-.47-1.04-1.04s.47-1.05,1.04-1.05,1.05.47,1.05,1.05-.47,1.04-1.05,1.04Z"/>
      <path class="cls-1" d="M6.51,4.64c.36,0,.64-.29.64-.65s-.29-.64-.64-.64-.64.29-.64.64.29.65.64.65Z"/>
      <path class="cls-2" d="M6.51,3.66c-.18,0-.34.15-.34.33s.16.34.34.34c.19,0,.34-.15.34-.34s-.15-.33-.34-.33h0ZM6.51,4.94c-.52,0-.95-.43-.95-.96s.43-.95.95-.95.96.43.96.95-.42.96-.96.96Z"/>
      <path class="cls-1" d="M20.37,5.5c.36,0,.64-.29.64-.64s-.28-.65-.64-.65-.64.29-.64.65.29.64.64.64Z"/>
      <path class="cls-2" d="M20.37,4.52c-.18,0-.34.15-.34.34,0,.18.16.33.34.33s.34-.15.34-.33c0-.19-.16-.34-.34-.34h0ZM20.37,5.8c-.52,0-.96-.42-.96-.95s.44-.96.96-.96.96.42.96.96-.44.95-.96.95Z"/>
      <path class="cls-1" d="M22.21,11.22c.71,0,1.29-.57,1.29-1.28s-.57-1.29-1.29-1.29-1.28.57-1.28,1.29.57,1.28,1.28,1.28Z"/>
      <path class="cls-2" d="M22.21,8.97c-.53,0-.97.43-.97.97s.44.98.97.98.97-.44.97-.98-.43-.97-.97-.97h0ZM22.21,11.53c-.88,0-1.59-.71-1.59-1.59s.71-1.59,1.59-1.59,1.59.71,1.59,1.59-.71,1.59-1.59,1.59Z"/>
      <path class="cls-1" d="M13.43,13.63c.36,0,.64-.29.64-.64s-.29-.64-.64-.64-.64.28-.64.64.28.64.64.64Z"/>
      <path class="cls-2" d="M13.43,12.64c-.18,0-.34.15-.34.34s.15.34.34.34.34-.16.34-.34-.15-.34-.34-.34h0ZM13.43,13.93c-.53,0-.96-.43-.96-.95s.43-.96.96-.96.96.43.96.96-.43.95-.96.95Z"/>
      <path class="cls-1" d="M12.97,21.5c.5,0,.9-.4.9-.89s-.41-.9-.9-.9-.9.4-.9.9.4.89.9.89Z"/>
      <path class="cls-2" d="M12.97,20.01c-.33,0-.6.26-.6.59s.27.59.6.59.59-.27.59-.59-.27-.59-.59-.59h0ZM12.97,21.81c-.67,0-1.21-.55-1.21-1.21s.54-1.21,1.21-1.21,1.21.54,1.21,1.21-.54,1.21-1.21,1.21Z"/>
    </g>
  </g>
</svg>