<?xml version="1.0" encoding="UTF-8"?>
<svg id="Layer_2" data-name="Layer 2" xmlns="http://www.w3.org/2000/svg" viewBox="0 0 80.46 84.43" fill="currentColor">
  <defs>
    <style>
      .cls-1 {
        fill: #fff;
      }

      .cls-1, .cls-2, .cls-3, .cls-4 {
        fill-rule: evenodd;
      }

      .cls-2 {
        fill: #1a87c7;
      }

      .cls-3 {
        fill: #bdedf8;
      }

      .cls-4 {
        fill: #66ceef;
      }
    </style>
  </defs>
  <g id="_Layer_" data-name="&amp;lt;Layer&amp;gt;">
    <g>
      <polygon class="cls-3" points="79.13 56.39 43.6 35.88 .62 60.67 36.13 81.18 79.13 56.39"/>
      <path class="cls-2" d="M1.86,60.67l34.28,19.8,41.76-24.08-34.3-19.8L1.86,60.67h0ZM36.13,81.8c-.1,0-.2-.03-.29-.08L.31,61.2c-.19-.11-.31-.31-.31-.53s.12-.42.31-.53l42.97-24.78c.19-.11.44-.11.61,0l35.53,20.51c.19.11.31.31.31.53s-.12.42-.31.53l-42.97,24.79c-.08.05-.19.08-.32.08Z"/>
      <polygon class="cls-4" points="36.13 81.18 .62 60.67 .62 63.3 36.13 83.82 36.13 81.18"/>
      <path class="cls-2" d="M1.23,62.95l34.3,19.8v-1.21L1.23,61.74v1.21h0ZM36.13,84.43c-.1,0-.2-.03-.29-.08L.31,63.84c-.19-.11-.31-.31-.31-.53v-2.64c0-.22.12-.42.31-.53.19-.11.42-.11.61,0l35.53,20.51c.19.11.31.31.31.53v2.64c0,.22-.12.42-.31.53-.11.06-.21.08-.32.08Z"/>
      <polygon class="cls-3" points="36.13 83.82 79.13 59.03 79.13 56.39 36.13 81.18 36.13 83.82"/>
      <path class="cls-2" d="M36.76,81.54v1.21l41.74-24.08v-1.21l-41.74,24.08h0ZM36.13,84.43c-.1,0-.2-.03-.29-.08-.19-.11-.31-.31-.31-.53v-2.64c0-.22.12-.42.31-.53l42.97-24.79c.19-.11.42-.11.61,0,.19.11.31.31.31.53v2.64c0,.22-.12.42-.31.53l-42.97,24.78c-.11.06-.21.08-.32.08Z"/>
      <polygon class="cls-1" points="36.07 53.96 11.21 39.59 11.19 61.53 36.05 75.88 36.07 53.96"/>
      <path class="cls-2" d="M11.8,61.17l23.64,13.65.02-20.51-23.64-13.65-.02,20.51h0ZM36.05,76.5c-.1,0-.21-.03-.3-.08l-24.87-14.36c-.19-.11-.31-.31-.31-.53l.02-21.93c0-.22.12-.42.31-.53.19-.11.41-.11.61,0l24.87,14.36c.19.11.32.31.32.53l-.02,21.93c0,.22-.12.43-.31.54-.09.06-.19.08-.31.08Z"/>
      <polygon class="cls-1" points="52.95 20.32 28.07 5.96 7.59 41.67 32.47 56.04 52.95 20.32"/>
      <path class="cls-2" d="M8.45,41.45l23.79,13.74,19.85-34.64L28.3,6.81,8.45,41.45h0ZM32.47,56.65c-.1,0-.2-.03-.31-.08l-24.86-14.36c-.3-.17-.4-.54-.23-.84L27.53,5.65c.09-.14.23-.24.38-.29.16-.04.33-.02.47.06l24.86,14.36c.29.17.4.55.24.84l-20.48,35.71c-.08.14-.21.25-.38.29-.06.02-.1.02-.16.02Z"/>
      <polygon class="cls-1" points="69.95 56.34 69.95 34.42 73.55 32.34 52.95 20.32 32.47 56.04 36.07 53.96 36.05 75.88 69.95 56.34"/>
      <path class="cls-2" d="M36.07,53.34c.11,0,.21.03.31.08.19.11.32.31.32.53l-.02,20.87,32.65-18.84v-21.57c0-.22.12-.42.31-.53l2.68-1.55-19.14-11.17-19.04,33.19,1.63-.94c.08-.05.19-.08.29-.08h0ZM36.05,76.5c-.1,0-.21-.03-.3-.08-.19-.11-.31-.31-.31-.54l.02-20.86-2.68,1.55c-.24.14-.54.1-.74-.1-.19-.2-.25-.5-.1-.74l20.48-35.71c.08-.14.22-.25.38-.29.16-.05.31-.02.47.06l20.6,12.02c.19.11.3.31.3.53s-.1.42-.3.53l-3.3,1.9v21.57c0,.22-.12.42-.31.54l-33.88,19.54c-.09.06-.19.08-.31.08Z"/>
      <polygon class="cls-4" points="47.2 69.47 58.28 63.06 58.28 42.05 47.2 48.45 47.2 69.47"/>
      <path class="cls-2" d="M47.8,48.8v19.59l9.87-5.69v-19.59l-9.87,5.69h0ZM47.2,70.08c-.1,0-.21-.03-.31-.08-.19-.11-.31-.31-.31-.53l.02-21.02c0-.22.1-.43.3-.53l11.11-6.4c.19-.11.41-.11.61,0,.19.11.31.31.31.54v21.02c0,.22-.13.42-.31.53l-11.11,6.4c-.09.05-.19.08-.29.08Z"/>
      <path class="cls-3" d="M21,59.78v-6.75c0-.09-.07-.2-.14-.25l-4.41-2.55c-.07-.04-.14,0-.14.08v6.75c0,.09.07.2.14.25l4.41,2.55c.07.04.14,0,.14-.08Z"/>
      <path class="cls-2" d="M16.91,56.88l3.48,2v-5.66l-3.48-2v5.66h0ZM20.93,60.48c-.14,0-.28-.03-.38-.09l-4.4-2.55c-.28-.15-.47-.47-.47-.78v-6.75c0-.22.17-.51.35-.62.23-.13.49-.13.73,0l4.41,2.55c.26.15.46.47.46.78v6.75c0,.22-.18.51-.37.62-.09.05-.21.08-.33.08Z"/>
      <polygon class="cls-3" points="54.62 21.69 25.78 5.04 47.21 17.53 76.05 34.19 54.62 21.69"/>
      <path class="cls-2" d="M76.05,34.8c-.11,0-.21-.03-.3-.08l-28.86-16.65L25.47,5.57c-.3-.17-.4-.55-.23-.84.18-.29.56-.4.85-.23l28.84,16.65h0l21.43,12.5c.3.17.4.54.23.84-.12.2-.33.31-.53.31Z"/>
      <polygon class="cls-3" points="76.05 34.19 79.86 32 54.62 17.27 29.53 61.02 33.32 58.83 54.62 21.69 76.05 34.19"/>
      <path class="cls-2" d="M54.84,18.11l-23.64,41.23,1.67-.97,21.22-37c.07-.15.21-.25.37-.29.16-.05.33-.02.47.06l21.12,12.32,2.57-1.48-23.78-13.88h0ZM29.53,61.64c-.16,0-.31-.06-.43-.18-.21-.19-.24-.5-.1-.74l25.08-43.75c.09-.15.21-.25.38-.29.16-.05.31-.02.47.06l25.24,14.72c.19.11.29.31.29.53s-.12.42-.29.53l-3.81,2.19c-.19.11-.43.11-.62,0l-20.9-12.19-20.98,36.61c-.05.09-.14.17-.22.23l-3.81,2.19c-.08.05-.19.08-.29.08Z"/>
      <path class="cls-3" d="M27.6,63.6v-6.75c0-.09-.07-.2-.14-.25l-4.42-2.55c-.08-.05-.14-.01-.14.08v6.75c0,.09.05.2.14.25l4.42,2.55c.07.05.14.01.14-.08Z"/>
      <path class="cls-2" d="M23.52,60.69l3.46,2v-5.65l-3.46-2v5.66h0ZM27.52,64.3c-.12,0-.26-.03-.37-.09l-4.41-2.55c-.26-.16-.46-.47-.46-.78v-6.75c0-.22.16-.52.35-.63.23-.13.5-.12.73.01l4.4,2.55c.27.16.45.47.45.78v6.75c0,.22-.16.51-.35.62-.09.05-.21.08-.35.08Z"/>
      <polygon class="cls-4" points="54.62 17.27 25.76 .62 .68 44.37 29.53 61.02 54.62 17.27"/>
      <path class="cls-2" d="M1.53,44.14l27.78,16.04,24.46-42.68L25.99,1.46,1.53,44.14h0ZM29.53,61.64c-.11,0-.23-.03-.31-.08L.38,44.9c-.29-.17-.4-.54-.22-.84L25.24.31c.07-.14.21-.25.37-.29.16-.04.33-.02.47.06l28.83,16.65c.3.17.4.55.23.84l-25.08,43.75c-.07.14-.21.25-.37.29-.05.01-.1.02-.16.02Z"/>
    </g>
  </g>
</svg>