<?xml version="1.0" encoding="UTF-8"?>
<svg id="Layer_2" data-name="Layer 2" xmlns="http://www.w3.org/2000/svg" viewBox="0 0 34.68 41" fill="currentColor">
  <defs>
    <style>
      .cls-1 {
        fill: #fff;
      }

      .cls-1, .cls-2, .cls-3, .cls-4 {
        fill-rule: evenodd;
      }

      .cls-2 {
        fill: #1a87c7;
      }

      .cls-3 {
        fill: #bdedf8;
      }

      .cls-4 {
        fill: #66ceef;
      }
    </style>
  </defs>
  <g id="_Layer_" data-name="&amp;lt;Layer&amp;gt;">
    <g>
      <path class="cls-4" d="M30.13,4.19C24.48.93,21.45-1.92,14.09,2.75,2.09,10.38-4.57,31.28,4.58,36.81l5.03,2.91c-8.21-5.21-3.03-19.95,2.15-26.97C15.51,7.66,23.36.65,30.13,4.19Z"/>
      <path class="cls-2" d="M20.95.61c-1.88,0-3.98.68-6.69,2.4C6.64,7.85.52,18.95.62,27.76c.03,2.89.77,6.76,4.12,8.79l2.48,1.43c-.97-1.22-1.63-2.72-1.95-4.49-1.22-6.51,2.22-15.45,6.26-20.92,3.18-4.32,9.74-10.5,16.03-9.54-2.31-1.37-4.28-2.41-6.59-2.41h0ZM9.62,40.03c-.05,0-.1-.02-.15-.04l-5.04-2.91C1.58,35.36.05,32.13,0,27.77-.1,18.62,6.02,7.52,13.93,2.49c6.75-4.3,10.09-2.3,14.7.45.53.32,1.08.65,1.66.98.14.08.19.27.11.41-.08.15-.27.2-.41.13-6.68-3.5-14.45,3.68-17.98,8.47-3.86,5.23-7.33,14.18-6.14,20.44.5,2.71,1.83,4.76,3.91,6.08.14.09.19.28.1.42-.05.09-.16.15-.26.15Z"/>
      <path class="cls-3" d="M19.87,36.28c-3.42,1.98-6.53,2.17-8.77.87-2.24-1.3-3.63-4.08-3.63-8.03s1.39-8.34,3.63-12.22c2.24-3.89,5.34-7.28,8.77-9.26,3.42-1.98,6.53-2.16,8.77-.87,2.25,1.3,3.63,4.08,3.63,8.03s-1.38,8.34-3.63,12.23c-2.24,3.89-5.34,7.28-8.77,9.26h0ZM19.87,5.21c-8,4.63-14.51,15.87-14.51,25.12s6.5,13,14.51,8.37c8.01-4.62,14.51-15.87,14.51-25.12S27.89.59,19.87,5.21h0Z"/>
      <path class="cls-2" d="M25.42,6.24c-1.65,0-3.48.56-5.39,1.66-3.27,1.89-6.35,5.14-8.66,9.15-2.32,4.01-3.6,8.3-3.6,12.07s1.23,6.47,3.49,7.77c2.24,1.3,5.25.99,8.45-.87,3.28-1.89,6.35-5.14,8.67-9.15,2.31-4.01,3.59-8.3,3.59-12.07s-1.23-6.47-3.48-7.77c-.91-.53-1.95-.79-3.08-.79h0ZM14.34,38.29c-1.23,0-2.38-.29-3.39-.87-2.44-1.41-3.79-4.36-3.79-8.3s1.31-8.28,3.68-12.38c2.37-4.11,5.53-7.43,8.88-9.37,3.42-1.97,6.64-2.28,9.08-.87,2.44,1.41,3.79,4.36,3.79,8.3s-1.31,8.28-3.68,12.38c-2.37,4.1-5.52,7.43-8.88,9.37-2.01,1.16-3.95,1.74-5.69,1.74h0ZM26.35,3.53c1.33,0,2.55.31,3.62.93,2.64,1.52,4.09,4.77,4.09,9.12,0,9.14-6.43,20.29-14.35,24.86-3.77,2.18-7.3,2.54-9.94,1.02-2.64-1.52-4.09-4.76-4.09-9.12,0-9.14,6.43-20.29,14.35-24.86,2.23-1.29,4.39-1.94,6.32-1.94h0ZM13.4,41c-1.44,0-2.76-.33-3.93-1.01-2.84-1.64-4.41-5.07-4.41-9.66,0-9.34,6.58-20.72,14.65-25.39,3.98-2.29,7.73-2.65,10.57-1.01,2.83,1.64,4.4,5.07,4.4,9.65,0,9.33-6.57,20.72-14.65,25.39-2.34,1.35-4.59,2.03-6.63,2.03Z"/>
      <path class="cls-3" d="M19.87,5.21c-8,4.63-14.51,15.87-14.51,25.12s6.5,13,14.51,8.37c8.01-4.62,14.51-15.87,14.51-25.12S27.89.59,19.87,5.21Z"/>
      <path class="cls-2" d="M19.87,5.21h0,0ZM26.35,3.53c-1.93,0-4.08.65-6.32,1.94h0c-7.92,4.57-14.35,15.72-14.35,24.86,0,4.36,1.45,7.6,4.09,9.12,2.64,1.52,6.17,1.16,9.94-1.02,7.92-4.57,14.35-15.72,14.35-24.86,0-4.36-1.45-7.6-4.09-9.12-1.07-.62-2.3-.93-3.62-.93h0ZM13.4,41c-1.44,0-2.76-.33-3.93-1.01-2.84-1.64-4.41-5.07-4.41-9.66,0-9.34,6.58-20.72,14.65-25.39h0c3.98-2.29,7.73-2.65,10.57-1.01,2.83,1.64,4.4,5.07,4.4,9.65,0,9.33-6.57,20.72-14.65,25.39-2.34,1.35-4.59,2.03-6.63,2.03Z"/>
      <path class="cls-1" d="M18.88,35.88c3.42-1.98,6.53-5.37,8.77-9.26,2.24-3.89,3.63-8.27,3.63-12.23s-1.39-6.74-3.63-8.03c-2.24-1.3-5.34-1.11-8.77.87-3.43,1.98-6.53,5.37-8.78,9.26-2.24,3.89-3.63,8.27-3.63,12.23s1.39,6.74,3.63,8.03c2.25,1.3,5.35,1.11,8.78-.87Z"/>
      <path class="cls-2" d="M24.42,5.84c-1.64,0-3.48.56-5.39,1.66-3.27,1.89-6.34,5.14-8.66,9.15-2.31,4.01-3.59,8.3-3.59,12.07s1.23,6.47,3.48,7.77c2.24,1.3,5.25.99,8.47-.87h0c3.27-1.89,6.35-5.14,8.66-9.15,2.32-4.01,3.59-8.3,3.59-12.07s-1.24-6.47-3.48-7.77c-.91-.53-1.95-.79-3.08-.79h0ZM13.33,37.89c-1.23,0-2.37-.29-3.38-.87-2.44-1.41-3.79-4.36-3.79-8.3s1.3-8.28,3.68-12.38c2.36-4.11,5.52-7.43,8.88-9.37,3.42-1.97,6.64-2.28,9.08-.87,2.44,1.41,3.78,4.36,3.78,8.3s-1.3,8.28-3.67,12.38c-2.37,4.1-5.53,7.43-8.89,9.37h0c-2,1.16-3.94,1.74-5.69,1.74Z"/>
      <path class="cls-3" d="M19.87,36.28c-3.42,1.98-6.53,2.17-8.77.87-2.24-1.3-3.63-4.08-3.63-8.03s1.39-8.34,3.63-12.22c2.24-3.89,5.34-7.28,8.77-9.26,3.42-1.98,6.53-2.16,8.77-.87,2.25,1.3,3.63,4.08,3.63,8.03s-1.38,8.34-3.63,12.23c-2.24,3.89-5.34,7.28-8.77,9.26h0ZM19.87,5.21c-8,4.63-14.51,15.87-14.51,25.12s6.5,13,14.51,8.37c8.01-4.62,14.51-15.87,14.51-25.12S27.89.59,19.87,5.21h0Z"/>
      <path class="cls-2" d="M25.42,6.24c-1.65,0-3.48.56-5.39,1.66-3.27,1.89-6.35,5.14-8.66,9.15-2.32,4.01-3.6,8.3-3.6,12.07s1.23,6.47,3.49,7.77c2.24,1.3,5.25.99,8.45-.87,3.28-1.89,6.35-5.14,8.67-9.15,2.31-4.01,3.59-8.3,3.59-12.07s-1.23-6.47-3.48-7.77c-.91-.53-1.95-.79-3.08-.79h0ZM14.34,38.29c-1.23,0-2.38-.29-3.39-.87-2.44-1.41-3.79-4.36-3.79-8.3s1.31-8.28,3.68-12.38c2.37-4.11,5.53-7.43,8.88-9.37,3.42-1.97,6.64-2.28,9.08-.87,2.44,1.41,3.79,4.36,3.79,8.3s-1.31,8.28-3.68,12.38c-2.37,4.1-5.52,7.43-8.88,9.37-2.01,1.16-3.95,1.74-5.69,1.74h0ZM26.35,3.53c1.33,0,2.55.31,3.62.93,2.64,1.52,4.09,4.77,4.09,9.12,0,9.14-6.43,20.29-14.35,24.86-3.77,2.18-7.3,2.54-9.94,1.02-2.64-1.52-4.09-4.76-4.09-9.12,0-9.14,6.43-20.29,14.35-24.86,2.23-1.29,4.39-1.94,6.32-1.94h0ZM13.4,41c-1.44,0-2.76-.33-3.93-1.01-2.84-1.64-4.41-5.07-4.41-9.66,0-9.34,6.58-20.72,14.65-25.39,3.98-2.29,7.73-2.65,10.57-1.01,2.83,1.64,4.4,5.07,4.4,9.65,0,9.33-6.57,20.72-14.65,25.39-2.34,1.35-4.59,2.03-6.63,2.03Z"/>
      <path class="cls-2" d="M25.9,3.55c-.05,0-.11-.01-.15-.04l-5.03-2.9c-.15-.09-.2-.28-.11-.42.09-.15.28-.2.43-.11l5.02,2.9c.15.08.2.27.11.42-.06.1-.17.15-.27.15Z"/>
      <path class="cls-2" d="M22.5,4.25c-.05,0-.11-.01-.16-.04l-5.06-2.92c-.15-.08-.2-.27-.11-.42.09-.15.27-.2.42-.11l5.06,2.92c.15.09.2.27.12.42-.05.1-.16.15-.26.15Z"/>
      <path class="cls-2" d="M19.51,5.73c-.05,0-.1-.01-.16-.04l-4.8-2.77c-.15-.09-.2-.28-.11-.42.09-.15.27-.2.42-.11l4.8,2.77c.15.08.2.27.12.42-.06.1-.17.15-.27.15Z"/>
      <path class="cls-2" d="M16.93,7.55c-.05,0-.1-.01-.16-.04l-4.92-2.85c-.15-.08-.2-.27-.11-.42.08-.15.27-.2.42-.11l4.93,2.85c.15.08.2.27.11.42-.06.1-.17.15-.27.15Z"/>
      <path class="cls-2" d="M14.63,9.68c-.06,0-.12-.01-.16-.04l-4.99-2.88c-.15-.08-.2-.27-.11-.42.09-.15.27-.2.42-.11l4.99,2.88c.15.09.2.27.11.42-.05.1-.15.16-.26.16Z"/>
      <path class="cls-2" d="M12.77,11.76c-.05,0-.11-.01-.16-.04l-4.96-2.86c-.15-.08-.2-.27-.11-.42.09-.15.28-.2.42-.11l4.96,2.86c.15.08.19.27.12.42-.06.1-.17.15-.27.15Z"/>
      <path class="cls-2" d="M11.12,13.97c-.05,0-.1-.02-.16-.04l-4.97-2.87c-.15-.09-.2-.28-.11-.42.08-.15.27-.2.42-.11l4.97,2.87c.15.09.2.27.11.42-.05.1-.16.15-.26.15Z"/>
      <path class="cls-2" d="M9.62,16.34c-.05,0-.1-.02-.16-.04l-4.99-2.96c-.15-.09-.19-.28-.11-.42.09-.15.28-.2.42-.11l4.99,2.96c.15.09.2.28.11.42-.06.1-.17.15-.27.15Z"/>
      <path class="cls-2" d="M8.37,18.7c-.05,0-.1-.01-.16-.04l-5.01-2.89c-.15-.08-.2-.28-.11-.42s.28-.2.42-.11l5.02,2.9c.15.08.19.27.11.42-.06.1-.17.15-.27.15Z"/>
      <path class="cls-2" d="M7.28,21.24c-.05,0-.1-.02-.16-.04l-5.01-2.89c-.15-.09-.2-.27-.11-.42.08-.15.27-.2.42-.11l5.02,2.89c.15.09.2.27.11.42-.06.1-.17.15-.27.15Z"/>
      <path class="cls-2" d="M6.35,24.01c-.05,0-.11-.01-.16-.04l-5.01-2.9c-.15-.09-.19-.27-.11-.42.09-.15.28-.2.43-.11l5.01,2.9c.15.08.2.27.11.42-.06.1-.17.15-.27.15Z"/>
      <path class="cls-2" d="M5.7,26.85c-.05,0-.1-.02-.16-.04l-5.02-2.91c-.15-.08-.2-.27-.11-.42.09-.15.27-.2.42-.11l5.04,2.9c.15.09.2.27.11.42-.06.1-.16.16-.27.16Z"/>
      <path class="cls-2" d="M5.38,29.91c-.05,0-.11-.02-.16-.04L.18,26.94c-.15-.08-.2-.27-.11-.42.09-.15.27-.2.42-.12l5.05,2.92c.15.09.2.27.11.42-.05.1-.15.16-.26.16Z"/>
      <path class="cls-2" d="M5.5,33.1c-.05,0-.11-.01-.15-.04L.31,30.15c-.15-.08-.19-.27-.12-.42.09-.15.28-.2.43-.11l5.03,2.91c.15.08.2.27.11.42-.05.1-.16.16-.27.16Z"/>
      <path class="cls-2" d="M6.34,36.49c-.05,0-.11-.02-.16-.04l-4.84-2.79c-.15-.09-.19-.28-.11-.42.09-.15.28-.2.43-.12l4.84,2.8c.15.09.2.27.11.42-.06.1-.17.15-.27.15Z"/>
      <path class="cls-4" d="M18.58,14.99l-.44.26c-.64.38-1.15.72-1.53,1.04-.37.31-.68.71-.9,1.18-.22.48-.34,1.08-.34,1.82,0,1.06.27,1.62.8,1.71.53.08,1.33-.18,2.41-.81v-5.2h0ZM20.42,21.99v5.74l.56-.32c.96-.55,1.67-1.17,2.14-1.84.46-.67.69-1.55.69-2.63,0-.85-.13-1.39-.4-1.64-.26-.25-.6-.3-1.01-.17-.42.13-1.08.42-1.98.85h0ZM20.42,13.93v5.28c1.39-.75,2.52-1.25,3.39-1.51.87-.27,1.57-.17,2.11.28.54.45.8,1.42.8,2.9s-.19,2.82-.57,3.9c-.39,1.08-1,2.05-1.82,2.9-.82.86-1.94,1.72-3.35,2.61l-.56.32v2.04l-1.83,1.06v-2.04c-.96.55-1.81.96-2.56,1.23-.76.26-1.41.35-1.97.25-.55-.1-.98-.43-1.29-1.01-.31-.57-.46-1.42-.46-2.54l-.02-.68,2.89-1.67c0,.84.06,1.45.18,1.84.12.38.3.6.57.67.26.06.55.02.9-.12.33-.13.92-.42,1.76-.85v-5.74c-1.11.56-2,.96-2.66,1.22-.66.25-1.25.35-1.78.3-.53-.05-.94-.36-1.23-.91-.29-.56-.43-1.43-.43-2.63,0-1.48.25-2.76.76-3.85.51-1.09,1.19-2.02,2.07-2.81.88-.79,1.97-1.55,3.28-2.31v-1.8l1.83-1.05v1.8c1.46-.77,2.59-1.26,3.39-1.45.81-.2,1.43-.02,1.85.53.42.55.64,1.63.64,3.24l-2.83,1.63c-.02-.1-.03-.22-.03-.38,0-.94-.17-1.47-.53-1.6-.35-.13-.95.06-1.78.54l-.71.41h0Z"/>
      <path class="cls-2" d="M18.28,15.52c-.62.36-1.11.7-1.47,1-.34.28-.62.64-.82,1.08-.21.43-.3,1-.3,1.69,0,.6.09,1.33.54,1.41.3.05.9-.04,2.05-.68v-4.49h0ZM16.38,21.32c-.09,0-.18,0-.25-.02-.7-.12-1.05-.8-1.05-2.01,0-.78.12-1.44.36-1.95.24-.51.57-.95.99-1.28.38-.33.9-.68,1.56-1.07l.45-.26c.09-.06.21-.06.3,0,.09.05.16.15.16.27v5.2c0,.11-.06.21-.16.27-1,.58-1.78.86-2.36.86h0ZM20.72,22.18v5.02l.1-.06c.91-.53,1.6-1.12,2.03-1.75.43-.61.65-1.43.65-2.45s-.18-1.31-.3-1.41c-.11-.11-.3-.23-.71-.1-.36.11-.93.36-1.77.75h0ZM20.42,28.04c-.05,0-.11-.01-.16-.04-.09-.06-.15-.16-.15-.27v-5.74c0-.12.07-.23.17-.28.97-.46,1.61-.74,2.03-.87.66-.21,1.08.01,1.32.24.33.31.49.9.49,1.86,0,1.15-.25,2.09-.75,2.8-.49.71-1.24,1.36-2.24,1.93l-.56.32s-.1.04-.15.04h0ZM18.58,31.36c-.05,0-.1.01-.15.04-.93.54-1.78.94-2.52,1.21-.7.25-1.31.33-1.82.24-.45-.08-.81-.36-1.07-.85-.28-.52-.42-1.33-.42-2.4l-.02-.5,2.28-1.32c.03.61.09,1.07.19,1.4.15.49.42.78.79.87.32.07.69.03,1.08-.14.33-.13.91-.42,1.79-.86.11-.05.17-.16.17-.27v-5.74c0-.11-.05-.21-.15-.26-.09-.06-.21-.06-.29-.01-1.11.55-1.99.95-2.64,1.2-.61.23-1.16.33-1.64.28-.42-.04-.75-.29-.98-.74-.27-.51-.4-1.35-.4-2.49,0-1.43.24-2.68.73-3.72.48-1.04,1.15-1.95,2-2.7.85-.77,1.94-1.53,3.23-2.27.09-.06.16-.16.16-.27v-1.62l1.21-.7v1.26c0,.11.06.21.15.26.1.06.21.06.3,0,1.44-.76,2.56-1.24,3.33-1.43.68-.17,1.18-.03,1.53.42.25.33.56,1.1.57,2.87l-2.24,1.29c-.03-1-.26-1.57-.74-1.74-.45-.16-1.1.02-2.04.56l-.72.41c-.09.06-.15.16-.15.27v5.28c0,.11.06.21.15.26.09.05.2.06.3,0,1.38-.74,2.49-1.24,3.34-1.49.77-.24,1.37-.16,1.83.22.45.38.69,1.3.69,2.67,0,1.48-.19,2.76-.56,3.8-.38,1.04-.96,1.98-1.75,2.8-.8.83-1.9,1.69-3.28,2.55l-.56.32c-.09.05-.15.16-.15.26v1.86l-1.21.7v-1.5c0-.11-.06-.21-.16-.27-.04-.03-.09-.04-.16-.04h0ZM18.58,34.02c-.05,0-.1-.01-.15-.04-.1-.05-.16-.16-.16-.27v-1.51c-.78.43-1.51.76-2.16.99-.83.29-1.51.37-2.13.27-.65-.11-1.16-.51-1.5-1.17-.34-.62-.5-1.5-.5-2.68l-.03-.67c0-.11.06-.22.15-.28l2.89-1.67c.09-.06.22-.06.32,0,.09.06.15.16.15.27,0,.8.06,1.39.16,1.75.09.27.2.42.35.46.19.04.43.01.7-.1.3-.12.81-.37,1.58-.76v-5.06c-.91.45-1.67.79-2.24,1.01-.71.27-1.35.37-1.93.32-.64-.07-1.13-.42-1.47-1.07-.31-.61-.47-1.52-.47-2.78,0-1.52.27-2.86.79-3.98.51-1.12,1.23-2.09,2.15-2.91.85-.76,1.92-1.52,3.17-2.26v-1.62c0-.11.06-.21.16-.27l1.82-1.05c.1-.05.21-.05.3,0,.1.06.16.15.16.27v1.29c1.28-.65,2.27-1.06,3.02-1.25,1.16-.29,1.82.19,2.17.65.48.61.7,1.73.7,3.43,0,.11-.05.21-.15.27l-2.83,1.63c-.09.05-.2.06-.29.01-.1-.04-.16-.13-.17-.23-.02-.11-.03-.25-.03-.42,0-1.1-.25-1.28-.33-1.3-.12-.04-.51-.07-1.53.52l-.56.32v4.59c1.22-.63,2.2-1.06,3-1.3.96-.3,1.77-.18,2.4.34.61.51.91,1.54.91,3.14s-.2,2.9-.6,4.01c-.4,1.12-1.03,2.14-1.89,3.02-.83.86-1.98,1.76-3.41,2.65l-.42.24v1.86c0,.11-.06.21-.16.26l-1.82,1.06s-.09.04-.16.04Z"/>
    </g>
  </g>
</svg>