<?xml version="1.0" encoding="UTF-8"?>
<svg id="Layer_2" data-name="Layer 2" xmlns="http://www.w3.org/2000/svg" viewBox="0 0 38.53 41.35" fill="currentColor">
  <defs>
    <style>
      .cls-1 {
        fill: #fff;
      }

      .cls-1, .cls-2, .cls-3, .cls-4 {
        fill-rule: evenodd;
      }

      .cls-2 {
        fill: #1a87c7;
      }

      .cls-3 {
        fill: #bdedf8;
      }

      .cls-4 {
        fill: #66ceef;
      }
    </style>
  </defs>
  <g id="_Layer_" data-name="&amp;lt;Layer&amp;gt;">
    <g>
      <path class="cls-4" d="M37.17,22.37c-2.01-1.17-2.79-1.87-4.88-2.23.69.4,2.47,1.57,3.13,1.7l1.76.54Z"/>
      <path class="cls-2" d="M37.17,22.68s-.06,0-.09-.02l-1.76-.53c-.49-.09-1.46-.67-2.58-1.36-.24-.15-.45-.28-.61-.36-.13-.08-.18-.24-.13-.37.05-.14.19-.23.34-.2,1.72.3,2.59.83,3.89,1.62.33.2.69.42,1.1.65.13.08.19.24.12.39-.04.11-.15.18-.28.18Z"/>
      <path class="cls-4" d="M32.83,24.66l-2.85-1.64c.03.63.13,3.11.62,3.46l2.85,1.64c-.5-.42-.59-2.77-.62-3.46Z"/>
      <path class="cls-2" d="M30.31,23.56c.14,2.22.39,2.59.46,2.66l2.02,1.17c-.13-.57-.22-1.4-.27-2.55l-2.22-1.28h0ZM33.45,28.42c-.05,0-.11-.01-.16-.04l-2.85-1.65c-.45-.3-.66-1.36-.76-3.63v-.08c-.01-.11.04-.23.14-.28.09-.06.22-.06.31,0l2.85,1.64c.1.05.15.15.16.25v.12c.11,2.45.36,3.01.5,3.12.13.1.16.29.06.42-.06.09-.16.13-.25.13Z"/>
      <path class="cls-4" d="M32.04,23.57l-2.85-1.65c-.53.7-2.58,3.38-2.52,4.18l2.85,1.64c-.06-.8,1.99-3.47,2.52-4.17Z"/>
      <path class="cls-2" d="M26.99,25.93l2.31,1.34c.24-.7.96-1.84,2.29-3.61l-2.31-1.33c-1.74,2.31-2.2,3.23-2.29,3.6h0ZM29.52,28.06c-.06,0-.11-.02-.16-.04l-2.85-1.65c-.09-.04-.15-.14-.16-.24-.04-.61.7-1.89,2.5-4.26l.09-.12c.1-.12.27-.16.4-.08l2.85,1.64c.08.04.13.12.15.21.02.09,0,.17-.05.24l-.09.12c-2.1,2.78-2.39,3.61-2.37,3.84.01.12-.04.23-.15.29-.04.04-.1.05-.16.05Z"/>
      <path class="cls-4" d="M26.68,20.67c-.08.33.16.49.43.65l2.85,1.65c-.28-.18-.51-.32-.43-.65.42-.76,2.52-.75,3.3-.74l-2.85-1.64c-.11-.03-2.85-.08-3.29.73Z"/>
      <path class="cls-2" d="M26.97,20.78c0,.06.04.12.3.28l1.97,1.14s0-.03.02-.03c.33-.62,1.33-.82,2.45-.88l-1.85-1.06c-.5-.04-2.54.06-2.9.55h0ZM29.96,23.28c-.05,0-.1-.02-.15-.04l-2.85-1.64c-.27-.16-.72-.43-.59-.99,0-.03.02-.05.03-.08.56-1.03,3.51-.92,3.65-.88.02,0,.04.02.07.03l2.85,1.65c.12.07.18.21.14.35-.03.13-.15.2-.29.23-2.16-.02-2.82.27-3.01.53,0,.07.05.12.31.27.14.09.19.28.11.43-.06.1-.17.15-.27.15Z"/>
      <path class="cls-4" d="M37.62,17.57l-2.94-1.64c-.59.12-2.69,2.56-3.15,3.09l2.85,1.65c.48-.56,2.59-3.07,3.24-3.1Z"/>
      <path class="cls-2" d="M32,18.95l2.31,1.33c1.37-1.6,2.15-2.36,2.64-2.72l-2.29-1.28c-.22.12-.88.63-2.66,2.67h0ZM34.37,20.98c-.05,0-.1-.01-.15-.04l-2.85-1.64c-.08-.04-.14-.12-.16-.22-.01-.09.02-.18.08-.25,2.63-3.05,3.13-3.15,3.32-3.19.08-.02.15-.01.22.02l2.93,1.64c.12.07.18.21.15.34-.03.14-.15.23-.29.24-.12,0-.69.26-2.91,2.88l-.1.11c-.06.07-.15.1-.24.1Z"/>
      <path class="cls-4" d="M33.6,17.25l-2.85-1.65c-.62.71-.73,3.36-.78,4.34l2.85,1.64c.04-.97.15-3.63.77-4.33Z"/>
      <path class="cls-2" d="M30.3,19.77l2.25,1.3c.08-1.49.23-2.94.62-3.7l-2.32-1.34c-.4.81-.51,2.87-.55,3.75h0ZM32.78,21.88s-.08-.01-.11-.03l-2.84-1.64c-.1-.06-.16-.17-.16-.29.09-1.89.24-3.84.85-4.52.1-.11.26-.14.38-.06l2.85,1.64c.08.04.14.12.15.21.02.09,0,.18-.07.25-.54.61-.66,3.21-.69,4.08,0,.1-.07.23-.17.29-.06.03-.13.06-.19.06Z"/>
      <polygon class="cls-4" points="33.76 17.28 30.9 15.64 30.83 15.6 30.75 15.6 33.6 17.25 33.69 17.25 33.76 17.28"/>
      <path class="cls-2" d="M33.76,17.59s-.09,0-.13-.03h-.02s-.11-.01-.16-.04l-2.85-1.64c-.12-.07-.18-.21-.15-.34.03-.14.15-.24.29-.24h.09s.09,0,.14.03l.07.03,2.88,1.66c.14.08.19.26.12.41-.06.11-.17.17-.28.17Z"/>
      <path class="cls-1" d="M33.6,17.25c-.44.39-.69,2.25-.77,4.33-1.63-.03-3.09.19-3.3.74-.21.54.98.99,2.51,1.25-1.48,1.94-2.64,3.73-2.52,4.17.32.19,1.74-1.24,3.3-3.09.09,2.07.36,3.69.77,3.45.42-.24.69-2.16.77-4.33,1.56.03,2.98-.17,3.3-.74.11-.57-1.05-1.02-2.54-1.26,1.54-2.03,2.74-3.87,2.53-4.17-.21-.3-1.67,1.16-3.29,3.07-.08-1.98-.33-3.55-.77-3.43Z"/>
      <path class="cls-2" d="M32.83,24.36s.07,0,.1.02c.12.03.2.15.21.28.08,1.84.26,2.73.39,3.06.18-.4.44-1.63.54-3.94,0-.17.15-.29.31-.3,1.73.03,2.73-.23,2.99-.54-.01,0-.01-.03-.03-.05-.17-.23-.84-.56-2.26-.8-.1-.02-.19-.09-.23-.18-.05-.1-.03-.21.04-.3,1.39-1.84,2.06-2.93,2.33-3.47-.44.36-1.27,1.17-2.61,2.75-.08.09-.22.13-.33.09-.12-.03-.2-.15-.21-.28-.08-1.77-.26-2.65-.4-2.99-.19.45-.44,1.59-.53,3.9,0,.16-.16.29-.31.3-2.04-.03-2.92.3-3.01.53.1.21.69.58,2.28.84.11.02.2.09.24.19.04.1.02.21-.05.3-1.36,1.79-2.02,2.87-2.3,3.44.45-.37,1.28-1.18,2.6-2.74.06-.07.15-.1.24-.1h0ZM33.52,28.44c-.08,0-.15-.02-.22-.05-.16-.09-.57-.31-.74-2.94-2.57,2.94-2.97,2.7-3.2,2.57-.07-.04-.12-.11-.15-.19-.05-.18-.19-.73,2.28-4.04-.93-.19-1.92-.5-2.21-1.01-.1-.18-.12-.38-.04-.57.3-.79,2.08-.93,3.29-.94.09-1.72.3-3.74.87-4.25.04-.03.08-.05.12-.07.15-.03.3,0,.42.09.14.1.54.39.7,2.86,2.33-2.67,2.81-2.63,2.96-2.63.12,0,.24.07.31.17.13.19.41.59-2.24,4.14.88.18,1.83.48,2.16.97.12.17.17.37.13.56,0,.04-.03.07-.04.1-.43.75-2.12.89-3.27.89-.12,2.56-.43,4-.91,4.29-.08.04-.16.06-.24.06Z"/>
      <path class="cls-4" d="M26.24,28.49c-2.01-1.16-2.79-1.87-4.88-2.23.68.4,2.47,1.57,3.13,1.69l1.76.54Z"/>
      <path class="cls-2" d="M26.24,28.8s-.06,0-.09,0l-1.77-.54c-.48-.09-1.45-.66-2.58-1.35-.24-.16-.45-.29-.61-.37-.13-.07-.18-.23-.13-.37.04-.14.18-.22.34-.19,1.72.3,2.58.81,3.89,1.61.33.2.7.42,1.1.65.13.08.19.25.12.39-.04.12-.16.18-.28.18Z"/>
      <path class="cls-4" d="M21.9,30.79l-2.85-1.65c.03.63.13,3.12.62,3.46l2.85,1.64c-.5-.42-.59-2.77-.61-3.45Z"/>
      <path class="cls-2" d="M19.38,29.69c.14,2.22.39,2.59.46,2.65l2.03,1.16c-.13-.57-.22-1.4-.27-2.54l-2.21-1.28h0ZM22.52,34.55c-.05,0-.1-.02-.16-.04l-2.85-1.64c-.44-.32-.66-1.36-.76-3.63v-.08c0-.11.04-.22.14-.28.1-.06.22-.06.31,0l2.85,1.64c.09.05.15.15.16.25v.12c.12,2.43.36,3,.51,3.11.12.11.15.28.05.41-.06.09-.16.14-.25.14Z"/>
      <path class="cls-4" d="M21.11,29.69l-2.85-1.64c-.52.7-2.58,3.37-2.52,4.17l2.85,1.64c-.06-.79,1.99-3.47,2.52-4.17Z"/>
      <path class="cls-2" d="M16.06,32.06l2.3,1.33c.24-.7.97-1.83,2.29-3.6l-2.31-1.34c-1.74,2.31-2.2,3.23-2.29,3.61h0ZM18.59,34.18c-.05,0-.12-.02-.16-.04l-2.85-1.64c-.09-.05-.15-.14-.16-.24-.05-.62.7-1.89,2.49-4.26l.09-.12c.1-.13.27-.17.4-.09l2.85,1.64c.08.04.13.12.15.21.02.09,0,.17-.05.24l-.1.12c-2.1,2.79-2.39,3.61-2.37,3.85,0,.11-.04.23-.14.28-.05.03-.11.05-.16.05Z"/>
      <path class="cls-4" d="M15.75,26.8c-.08.32.16.48.44.65l2.84,1.64c-.28-.17-.51-.32-.43-.65.42-.76,2.52-.74,3.29-.73l-2.85-1.65c-.11-.03-2.85-.07-3.29.74Z"/>
      <path class="cls-2" d="M16.03,26.91c0,.06.04.11.3.27l1.97,1.14s.01-.02.02-.03c.33-.61,1.33-.82,2.45-.88l-1.84-1.06c-.49-.04-2.54.06-2.9.56h0ZM19.03,29.4c-.05,0-.1,0-.15-.03l-2.85-1.65c-.27-.15-.72-.42-.59-.98.01-.03.02-.05.04-.08.56-1.02,3.52-.92,3.65-.89.03.01.04.02.07.04l2.85,1.64c.12.07.18.21.14.35-.03.13-.15.24-.3.22-2.14-.02-2.82.28-3.01.54,0,.06.05.11.31.28.14.09.19.27.1.42-.06.09-.15.15-.27.15Z"/>
      <path class="cls-4" d="M26.68,23.7l-2.94-1.64c-.59.12-2.69,2.55-3.15,3.09l2.84,1.64c.48-.55,2.59-3.07,3.24-3.1Z"/>
      <path class="cls-2" d="M21.07,25.08l2.31,1.33c1.38-1.61,2.16-2.37,2.64-2.72l-2.3-1.29c-.29.16-1.09.86-2.66,2.68h0ZM23.44,27.11c-.05,0-.1-.02-.15-.05l-2.85-1.64c-.08-.05-.14-.13-.15-.22-.02-.09,0-.18.07-.25,2.62-3.05,3.15-3.17,3.32-3.2.08-.02.15,0,.22.03l2.93,1.64c.12.06.18.2.15.34-.04.13-.15.23-.29.23-.12.02-.69.27-2.91,2.88l-.11.12c-.06.07-.15.11-.23.11Z"/>
      <path class="cls-4" d="M22.66,23.37l-2.85-1.64c-.62.7-.73,3.35-.77,4.33l2.85,1.65c.05-.97.15-3.63.77-4.34Z"/>
      <path class="cls-2" d="M19.36,25.89l2.25,1.3c.08-1.49.23-2.95.62-3.71l-2.31-1.34c-.41.81-.52,2.87-.56,3.75h0ZM21.86,28.01s-.08,0-.11-.03l-2.85-1.64c-.1-.06-.17-.17-.16-.28.09-1.89.24-3.85.85-4.53.1-.11.26-.13.38-.06l2.85,1.64c.08.05.14.13.15.22.02.1,0,.19-.07.26-.54.6-.66,3.22-.69,4.08-.01.1-.07.23-.17.28-.05.03-.12.06-.18.06Z"/>
      <polygon class="cls-4" points="22.82 23.41 19.97 21.76 19.9 21.72 19.81 21.73 22.66 23.37 22.75 23.37 22.82 23.41"/>
      <path class="cls-2" d="M22.82,23.71s-.09-.01-.13-.03h0c-.07,0-.12-.02-.17-.04l-2.85-1.65c-.12-.07-.18-.21-.15-.34.04-.13.15-.23.29-.24h.08c.05,0,.1.01.14.03l.08.03,2.88,1.66c.14.09.2.26.12.41-.06.1-.16.17-.28.17Z"/>
      <path class="cls-1" d="M22.66,23.37c-.43.39-.69,2.26-.77,4.34-1.62-.03-3.09.19-3.29.73-.21.54.98,1,2.51,1.25-1.48,1.95-2.64,3.74-2.52,4.17.32.19,1.74-1.24,3.31-3.08.09,2.06.35,3.69.76,3.45.43-.24.69-2.17.77-4.33,1.56.03,2.98-.18,3.3-.74.11-.58-1.05-1.03-2.54-1.26,1.54-2.04,2.74-3.88,2.53-4.17-.21-.3-1.67,1.16-3.29,3.06-.08-1.97-.33-3.54-.77-3.42Z"/>
      <path class="cls-2" d="M21.9,30.48s.06,0,.09.02c.12.04.2.15.21.28.08,1.85.26,2.74.39,3.07.19-.4.44-1.62.54-3.95,0-.17.14-.3.31-.3h0c1.74.04,2.73-.23,2.99-.53,0-.02,0-.03-.03-.05-.17-.24-.84-.57-2.26-.8-.1-.02-.19-.1-.24-.19-.05-.1-.03-.22.04-.3,1.39-1.84,2.06-2.92,2.33-3.47-.44.37-1.27,1.17-2.62,2.75-.08.09-.21.14-.33.09-.12-.04-.2-.16-.21-.28-.07-1.78-.26-2.65-.39-3-.2.45-.45,1.6-.54,3.9-.01.17-.18.27-.32.29-2.02-.03-2.92.31-3.01.54.11.21.7.57,2.28.84.1.02.2.09.23.19.04.11.03.22-.03.3-1.36,1.79-2.02,2.87-2.31,3.43.45-.36,1.28-1.17,2.61-2.73.05-.07.14-.11.24-.11h0ZM22.59,34.57c-.08,0-.15-.02-.22-.06-.16-.09-.57-.3-.74-2.95-2.58,2.94-2.97,2.7-3.2,2.57-.07-.04-.12-.1-.15-.18-.05-.19-.19-.73,2.28-4.04-.94-.19-1.93-.51-2.22-1.02-.1-.18-.12-.38-.04-.57.3-.79,2.08-.93,3.29-.93.09-1.73.31-3.75.87-4.25.03-.04.08-.06.12-.07.15-.04.3,0,.43.08.13.11.53.39.69,2.87,2.34-2.67,2.81-2.64,2.97-2.63.12,0,.24.07.31.17.13.2.41.59-2.23,4.14.88.18,1.82.48,2.16.96.12.18.17.37.13.57,0,.03-.02.06-.04.09-.43.76-2.12.9-3.27.9-.12,2.56-.43,4.01-.91,4.28-.08.04-.16.07-.24.07Z"/>
      <path class="cls-4" d="M14.63,35.27c-2.01-1.16-2.79-1.87-4.89-2.22.69.39,2.47,1.57,3.13,1.68l1.76.54Z"/>
      <path class="cls-2" d="M14.63,35.58s-.06,0-.09-.02l-1.76-.54c-.49-.09-1.45-.66-2.58-1.36-.24-.15-.45-.27-.6-.36-.13-.07-.19-.23-.14-.36.05-.14.18-.23.34-.2,1.72.29,2.59.81,3.89,1.61.33.2.69.42,1.1.66.14.08.19.24.13.38-.05.12-.17.19-.29.19Z"/>
      <path class="cls-4" d="M10.29,37.57l-2.85-1.65c.03.63.13,3.12.62,3.46l2.85,1.64c-.5-.42-.58-2.77-.62-3.45Z"/>
      <path class="cls-2" d="M7.78,36.47c.13,2.22.38,2.59.46,2.65l2.02,1.17c-.13-.57-.21-1.39-.27-2.54l-2.21-1.28h0ZM10.91,41.33c-.05,0-.11-.02-.15-.04l-2.85-1.64c-.45-.31-.67-1.36-.77-3.63v-.09c0-.11.05-.22.14-.28.1-.06.22-.06.32,0l2.84,1.64c.09.05.16.15.16.25v.12c.12,2.44.37,3,.51,3.11.12.11.15.29.05.42-.06.09-.16.13-.25.13Z"/>
      <path class="cls-4" d="M9.51,36.47l-2.85-1.64c-.53.7-2.59,3.38-2.53,4.17l2.85,1.65c-.06-.8,2-3.48,2.53-4.18Z"/>
      <path class="cls-2" d="M4.45,38.84l2.31,1.33c.24-.69.97-1.83,2.29-3.6l-2.31-1.34c-1.74,2.31-2.2,3.23-2.29,3.61h0ZM6.97,40.96c-.05,0-.1,0-.16-.04l-2.85-1.64c-.09-.05-.14-.14-.15-.24-.05-.62.69-1.89,2.49-4.27l.09-.11c.1-.13.27-.17.4-.09l2.85,1.65c.08.04.13.11.15.2.02.08,0,.18-.05.25l-.09.11c-2.11,2.79-2.4,3.61-2.38,3.85,0,.11-.04.22-.14.29-.05.03-.11.04-.17.04Z"/>
      <path class="cls-4" d="M4.13,33.58c-.08.33.16.48.45.65l2.85,1.64c-.29-.16-.52-.32-.44-.65.42-.76,2.52-.74,3.3-.73l-2.85-1.64c-.11-.03-2.86-.08-3.3.73Z"/>
      <path class="cls-2" d="M4.43,33.69c0,.06.04.12.3.27l1.96,1.14s0-.02.02-.02c.34-.61,1.33-.82,2.45-.87l-1.84-1.07c-.49-.04-2.54.06-2.89.56h0ZM7.43,36.18c-.05,0-.11-.02-.16-.04l-2.85-1.64c-.27-.16-.72-.42-.59-.99.01-.03.02-.05.04-.08.56-1.02,3.52-.92,3.65-.89.03,0,.05.02.07.03l2.85,1.64c.12.07.18.22.15.35-.04.14-.17.25-.3.23-2.16,0-2.82.28-3,.54-.01.06.03.11.3.28.15.09.19.27.1.42-.05.1-.16.16-.26.16Z"/>
      <path class="cls-4" d="M15.07,30.48l-2.93-1.64c-.6.12-2.7,2.55-3.15,3.09l2.85,1.64c.47-.55,2.59-3.07,3.23-3.1Z"/>
      <path class="cls-2" d="M9.46,31.86l2.3,1.33c1.23-1.44,2.08-2.31,2.64-2.72l-2.3-1.29c-.21.12-.87.63-2.65,2.68h0ZM11.83,33.89c-.05,0-.12-.02-.16-.04l-2.85-1.64c-.08-.04-.14-.12-.15-.22-.02-.09,0-.18.07-.25,2.63-3.05,3.13-3.15,3.32-3.2.08-.01.16,0,.22.03l2.93,1.64c.12.07.18.21.15.34-.03.13-.15.23-.28.24-.12.02-.69.27-2.92,2.88l-.11.12c-.05.07-.14.1-.23.1Z"/>
      <path class="cls-4" d="M11.06,30.15l-2.85-1.64c-.62.7-.73,3.35-.77,4.34l2.85,1.64c.04-.97.15-3.63.78-4.34Z"/>
      <path class="cls-2" d="M7.75,32.67l2.25,1.29c.08-1.49.22-2.94.62-3.71l-2.31-1.34c-.41.81-.52,2.88-.56,3.75h0ZM10.24,34.79s-.08,0-.12-.03l-2.85-1.65c-.11-.05-.16-.16-.16-.28.09-1.88.25-3.85.85-4.53.1-.1.26-.13.38-.06l2.85,1.65c.09.05.14.12.16.22,0,.09-.02.18-.08.25-.54.61-.65,3.23-.7,4.09,0,.1-.06.23-.16.29-.06.03-.13.05-.19.05Z"/>
      <polygon class="cls-4" points="11.22 30.19 8.37 28.54 8.29 28.51 8.21 28.51 11.06 30.15 11.14 30.15 11.22 30.19"/>
      <path class="cls-2" d="M11.22,30.49c-.05,0-.09,0-.13-.03h-.02c-.06.01-.11-.02-.16-.04l-2.85-1.64c-.12-.07-.18-.21-.15-.35.04-.13.16-.23.3-.23h.08s.1,0,.14.02l.08.03,2.87,1.66c.15.09.2.26.12.41-.05.11-.17.16-.27.16Z"/>
      <path class="cls-1" d="M11.06,30.15c-.45.39-.7,2.26-.78,4.34-1.63-.03-3.09.19-3.3.73-.21.54.98,1,2.52,1.25-1.49,1.95-2.65,3.74-2.53,4.18.32.18,1.75-1.24,3.31-3.08.09,2.07.35,3.69.78,3.45.42-.24.68-2.16.76-4.33,1.57.03,2.98-.18,3.3-.74.12-.58-1.05-1.02-2.54-1.26,1.54-2.03,2.74-3.88,2.53-4.17-.21-.3-1.67,1.16-3.29,3.06-.09-1.97-.34-3.54-.77-3.42Z"/>
      <path class="cls-2" d="M10.29,37.25s.07.01.1.02c.12.04.21.15.21.28.08,1.84.26,2.74.4,3.07.18-.4.43-1.64.53-3.95.01-.17.15-.29.31-.3,1.75.04,2.73-.24,2.99-.53,0-.02,0-.04-.03-.05-.17-.24-.84-.57-2.25-.8-.11-.02-.2-.09-.24-.19-.04-.09-.03-.21.04-.29,1.4-1.85,2.07-2.93,2.34-3.48-.45.36-1.28,1.17-2.62,2.75-.09.11-.23.14-.34.1-.12-.04-.2-.16-.21-.28-.07-1.78-.25-2.65-.39-2.99-.2.45-.45,1.59-.54,3.89,0,.17-.14.3-.3.3h0c-2.04-.03-2.92.31-3.01.54.11.21.7.57,2.28.84.12.02.2.09.24.19.04.1.03.22-.03.3-1.37,1.79-2.03,2.87-2.31,3.43.45-.36,1.28-1.17,2.61-2.73.06-.07.15-.11.23-.11h0ZM10.97,41.35c-.08,0-.15-.02-.21-.06-.16-.09-.57-.3-.74-2.94-2.56,2.93-2.97,2.69-3.2,2.56-.07-.03-.12-.1-.14-.18-.05-.18-.2-.73,2.28-4.04-.94-.19-1.93-.51-2.22-1.02-.11-.17-.11-.37-.05-.56.3-.78,2.08-.93,3.29-.93.08-1.72.3-3.75.86-4.25.03-.04.08-.06.12-.07.15-.04.3-.01.43.09.14.09.53.39.69,2.86,2.34-2.67,2.81-2.64,2.97-2.64.13.01.24.07.31.18.14.19.42.58-2.23,4.13.89.18,1.82.48,2.16.97.12.18.17.36.13.57,0,.03-.02.06-.03.09-.44.76-2.13.9-3.28.9-.12,2.55-.42,4-.91,4.28-.07.04-.16.07-.24.07Z"/>
      <path class="cls-3" d="M12,31.3c-1.59.92-3.03,1.01-4.07.4h0l-5.94-3.42c-.34-.21-.61-.44-.85-.77-.94-1.23-.95-3.11-.68-4.57.5-2.81,2.26-5.81,4.5-7.61l.25-.2c.04-.32.08-.62.13-.93.8-4.56,3.97-9.68,8.01-12.03,1.59-.92,3.65-1.55,5.41-.76l.18.08,1.23.72c1.1-.98,2.63-1.92,4.14-1.89.36,0,.76.07,1.1.21l.16.08,2.58,1.5.28-.06c.59-.09,1.22-.07,1.79.16l.2.09,5.94,3.42c1.14.57,1.85,1.89,1.85,3.82,0,3.67-2.58,8.14-5.76,9.97l-20.46,11.81Z"/>
      <path class="cls-2" d="M17.01,1.36c-1.39,0-2.72.63-3.51,1.08-3.81,2.22-7.04,7.08-7.87,11.82-.05.3-.09.58-.12.88,0,.08-.05.19-.12.24l-.26.2c-2.16,1.74-3.88,4.65-4.37,7.41-.15.85-.41,2.97.62,4.34.21.28.45.5.77.68l5.93,3.42c.99.57,2.33.43,3.76-.4l20.46-11.79c3.1-1.78,5.61-6.15,5.62-9.71,0-1.73-.62-3.02-1.68-3.54l-6.13-3.51c-.46-.18-1.02-.23-1.61-.13l-.26.05c-.08.02-.16,0-.22-.04l-2.73-1.55c-.28-.11-.63-.18-.97-.19-1.63-.02-3.15,1.12-3.94,1.82-.1.09-.24.1-.36.03l-1.39-.78c-.53-.24-1.08-.33-1.62-.33h0ZM9.43,32.4c-.6,0-1.15-.14-1.65-.43l-5.94-3.43c-.39-.24-.7-.5-.95-.84-1.17-1.55-.91-3.88-.74-4.81.52-2.91,2.33-5.96,4.6-7.79l.16-.13c.04-.3.07-.55.11-.83.86-4.91,4.22-9.94,8.17-12.24,1.2-.69,3.54-1.73,5.69-.78l.18.09,1.07.62C21.03,1.07,22.65-.02,24.32,0c.43.01.84.09,1.21.24l.17.07,2.51,1.45.17-.03c.71-.12,1.39-.07,1.97.17l.2.09,5.97,3.45c1.27.62,2.01,2.11,2,4.08,0,3.76-2.65,8.36-5.91,10.24l-20.46,11.8-.16-.27.16.27c-.96.55-1.89.83-2.73.83Z"/>
      <path class="cls-1" d="M12,31.3c-3.18,1.83-5.76.35-5.75-3.33,0-3.34,2.13-7.33,4.9-9.4.51-4.97,3.96-10.55,8.14-12.97,2.76-1.59,5.22-1.43,6.7.15.51-.48,1.07-.9,1.63-1.23,2.53-1.45,4.67-.81,5.45,1.36,2.89-1.31,5.15.22,5.15,3.65,0,3.67-2.58,8.14-5.76,9.97l-20.46,11.81Z"/>
      <path class="cls-2" d="M22.95,4.8c-1.07,0-2.27.35-3.51,1.07-4.04,2.33-7.48,7.8-7.99,12.72,0,.09-.05.17-.12.22-2.72,2.04-4.78,5.98-4.78,9.16,0,1.66.55,2.9,1.53,3.47.99.56,2.33.42,3.76-.41h0l20.46-11.79c3.1-1.78,5.61-6.15,5.62-9.71,0-1.6-.51-2.81-1.44-3.41-.85-.55-2.01-.53-3.27.03-.08.05-.17.05-.25.01-.08-.04-.14-.11-.16-.18-.31-.89-.88-1.5-1.62-1.77-.94-.34-2.14-.13-3.38.58-.54.31-1.07.7-1.58,1.18-.13.11-.32.1-.43-.02-.73-.77-1.71-1.16-2.82-1.16h0ZM9.43,32.4c-.6,0-1.15-.14-1.65-.43-1.19-.69-1.85-2.1-1.85-4,0-3.37,2.07-7.37,4.92-9.57.58-5.07,4.12-10.66,8.28-13.06,2.67-1.55,5.21-1.54,6.86-.02.48-.42.97-.78,1.48-1.06,1.4-.82,2.79-1.03,3.9-.63.83.3,1.47.94,1.87,1.83,1.34-.53,2.6-.49,3.56.14,1.11.71,1.71,2.1,1.71,3.92,0,3.76-2.65,8.36-5.91,10.24l-20.46,11.8c-.96.55-1.89.83-2.73.83Z"/>
      <path class="cls-2" d="M11.15,18.87c-.05,0-.1-.01-.16-.05l-5.94-3.42c-.15-.09-.2-.28-.11-.42.08-.16.27-.2.42-.11l5.94,3.43c.15.09.2.28.11.42-.05.1-.15.15-.26.15Z"/>
      <path class="cls-2" d="M26.07,5.91c-.05,0-.1,0-.16-.04l-5.89-3.4c-.15-.09-.2-.28-.11-.42.09-.15.27-.19.42-.11l5.9,3.41c.15.09.19.27.11.42-.06.11-.16.16-.27.16Z"/>
      <path class="cls-2" d="M31.54,4.35c-.05,0-.1-.02-.16-.04l-3.36-1.95c-.15-.08-.2-.27-.11-.42.09-.15.27-.2.42-.11l3.37,1.95c.15.09.19.27.11.42-.06.11-.17.16-.27.16Z"/>
    </g>
  </g>
</svg>