<?xml version="1.0" encoding="UTF-8"?>
<svg id="Layer_2" data-name="Layer 2" xmlns="http://www.w3.org/2000/svg" viewBox="0 0 49.08 42.52" fill="currentColor">
  <defs>
    <style>
      .cls-1 {
        fill: #fff;
      }

      .cls-1, .cls-2, .cls-3, .cls-4 {
        fill-rule: evenodd;
      }

      .cls-2 {
        fill: #1a87c7;
      }

      .cls-3 {
        fill: #bdedf8;
      }

      .cls-4 {
        fill: #66ceef;
      }
    </style>
  </defs>
  <g id="_Layer_" data-name="&amp;lt;Layer&amp;gt;">
    <g>
      <polygon class="cls-3" points="47.99 24.55 27.98 13 .3 28.96 20.31 40.52 47.99 24.55"/>
      <path class="cls-2" d="M.92,28.96l19.39,11.2,27.06-15.61-19.39-11.19L.92,28.96h0ZM20.31,40.83c-.05,0-.1-.02-.16-.04L.16,29.23c-.09-.05-.16-.15-.16-.27,0-.11.06-.21.16-.27l27.67-15.96c.09-.05.22-.05.31,0l20,11.55c.09.06.15.16.15.27s-.06.21-.15.27l-27.67,15.96c-.05.03-.1.04-.16.04Z"/>
      <polygon class="cls-4" points="20.31 40.52 .3 28.96 .3 30.66 20.31 42.21 20.31 40.52"/>
      <path class="cls-2" d="M.62,30.49l19.38,11.2v-.99L.62,29.5v.99h0ZM20.31,42.52c-.05,0-.1-.02-.16-.04L.15,30.93c-.1-.06-.15-.16-.15-.27v-1.7c0-.11.06-.21.16-.27.1-.05.21-.05.3,0l20.01,11.55c.09.06.15.16.15.27v1.7c0,.11-.06.21-.16.27-.04.03-.09.04-.15.04Z"/>
      <polygon class="cls-3" points="20.31 42.21 47.99 26.25 47.99 24.55 20.31 40.52 20.31 42.21"/>
      <path class="cls-2" d="M20.62,40.7v.99l27.06-15.61v-.99l-27.06,15.61h0ZM20.31,42.52c-.05,0-.1-.02-.16-.04-.09-.05-.15-.16-.15-.27v-1.7c0-.11.06-.21.15-.27l27.67-15.96c.1-.05.21-.06.31,0,.09.06.15.16.15.27v1.7c0,.11-.06.21-.15.27l-27.68,15.96s-.09.04-.15.04Z"/>
      <polygon class="cls-4" points="20.25 37.11 7.11 29.52 7.13 12.88 20.27 20.47 20.25 37.11"/>
      <path class="cls-2" d="M7.42,29.34l12.53,7.23v-15.92s-12.51-7.23-12.51-7.23v15.92h-.01ZM20.25,37.41c-.05,0-.1-.02-.15-.04l-13.14-7.59c-.1-.06-.16-.16-.16-.27V12.88c0-.11.07-.21.17-.26.09-.06.21-.06.3,0l13.14,7.59c.09.06.16.16.16.27v16.63c-.01.11-.07.21-.16.27-.04.03-.1.04-.16.04Z"/>
      <polygon class="cls-1" points="20.25 37.11 20.27 20.47 42.08 7.9 42.07 24.53 20.25 37.11"/>
      <path class="cls-2" d="M20.57,20.65v15.92s21.18-12.22,21.18-12.22v-15.92s-21.18,12.22-21.18,12.22h0ZM20.25,37.41c-.05,0-.1-.02-.15-.04-.1-.05-.16-.16-.16-.27v-16.63c0-.11.07-.21.17-.27l21.81-12.57c.1-.05.21-.05.31,0,.09.06.15.16.15.27v16.63c0,.11-.07.21-.17.27l-21.81,12.57s-.1.04-.16.04Z"/>
      <polygon class="cls-1" points="28.93 .31 42.08 7.9 40.97 8.54 28.93 1.59 28.93 .31"/>
      <path class="cls-2" d="M29.24,1.42l11.73,6.77.5-.29L29.24.84v.57h0ZM40.97,8.85c-.06,0-.11-.01-.16-.04L28.78,1.86c-.09-.06-.16-.16-.16-.27V.31c0-.11.06-.21.16-.26.1-.06.21-.06.3,0l13.15,7.59c.09.06.15.16.15.27s-.06.21-.15.27l-1.12.64s-.09.04-.15.04Z"/>
      <polygon class="cls-1" points="8.24 13.53 7.13 12.88 28.93 .31 28.93 1.59 8.24 13.53"/>
      <path class="cls-2" d="M7.74,12.88l.5.29L28.62,1.42v-.57L7.74,12.88h0ZM8.24,13.83c-.05,0-.1-.01-.15-.04l-1.11-.65c-.1-.05-.16-.16-.16-.27s.06-.21.16-.26L28.78.04c.1-.06.21-.06.31,0,.09.05.15.15.15.26v1.29c0,.11-.06.21-.16.27L8.39,13.8s-.1.04-.15.04Z"/>
      <polygon class="cls-3" points="20.27 20.47 8.24 13.53 28.95 1.62 41.09 8.45 20.27 20.47"/>
      <path class="cls-2" d="M8.86,13.53l11.41,6.59,20.19-11.66L28.95,1.98,8.86,13.53h0ZM20.27,20.78c-.05,0-.12-.01-.16-.04l-12.03-6.95c-.1-.05-.16-.15-.16-.27s.06-.21.16-.26L28.8,1.36c.09-.05.21-.05.3,0l12.13,6.83c.1.05.16.15.16.26s-.06.21-.16.27l-20.82,12.02s-.09.04-.15.04Z"/>
      <polygon class="cls-4" points="29.05 7.71 26.44 6.2 26.44 4.26 29.05 5.77 29.05 7.71"/>
      <path class="cls-2" d="M26.74,6.03l2,1.15v-1.23l-2-1.15v1.23h0ZM29.05,8.02c-.05,0-.1-.02-.16-.04l-2.6-1.51c-.1-.06-.15-.16-.15-.27v-1.94c0-.11.05-.21.15-.27.1-.06.21-.06.31,0l2.61,1.5c.1.05.16.16.16.27v1.94c0,.11-.06.21-.16.27-.05.03-.11.04-.16.04Z"/>
      <polygon class="cls-3" points="29.05 5.77 26.44 4.26 28.93 2.79 31.57 4.31 29.05 5.77"/>
      <path class="cls-2" d="M27.05,4.26l2,1.15,1.9-1.1-2.02-1.17-1.89,1.11h0ZM29.05,6.08c-.05,0-.1-.02-.16-.04l-2.6-1.51c-.1-.06-.15-.16-.15-.26s.05-.21.15-.27l2.49-1.47c.1-.06.21-.06.3,0l2.64,1.52c.1.06.16.15.16.26s-.06.21-.16.27l-2.52,1.45c-.05.03-.11.04-.16.04Z"/>
      <polygon class="cls-1" points="29.05 5.77 31.57 4.31 31.57 6.26 29.05 7.71 29.05 5.77"/>
      <path class="cls-2" d="M29.36,5.94v1.23l1.9-1.1v-1.23l-1.9,1.1h0ZM29.05,8.02c-.05,0-.1-.02-.16-.04-.09-.06-.15-.16-.15-.27v-1.94c0-.11.05-.21.15-.27l2.53-1.45c.09-.06.21-.06.3,0,.1.06.16.15.16.27v1.94c0,.11-.06.21-.16.27l-2.52,1.45c-.05.03-.11.04-.16.04Z"/>
      <polygon class="cls-4" points="24.01 10.61 21.4 9.11 21.4 7.17 24.01 8.67 24.01 10.61"/>
      <path class="cls-2" d="M21.7,8.93l1.99,1.15v-1.23l-1.99-1.15v1.23h0ZM24.01,10.92c-.05,0-.1-.01-.15-.04l-2.61-1.51c-.09-.05-.15-.16-.15-.27v-1.94c0-.11.06-.21.15-.27.1-.06.22-.06.31,0l2.61,1.51c.09.06.15.15.15.27v1.94c0,.11-.05.21-.15.27-.05.03-.11.04-.16.04Z"/>
      <polygon class="cls-3" points="24.01 8.67 21.4 7.17 23.89 5.7 26.53 7.22 24.01 8.67"/>
      <path class="cls-2" d="M22.01,7.16l2,1.15,1.9-1.1-2.02-1.17-1.89,1.11h0ZM24.01,8.98c-.05,0-.1-.01-.15-.04l-2.61-1.51c-.09-.05-.15-.16-.15-.27s.06-.21.15-.27l2.49-1.47c.09-.06.22-.06.31,0l2.64,1.52c.1.06.16.16.16.27s-.06.21-.16.27l-2.52,1.45c-.05.03-.11.04-.16.04Z"/>
      <polygon class="cls-1" points="24.01 8.67 26.53 7.22 26.53 9.16 24.01 10.61 24.01 8.67"/>
      <path class="cls-2" d="M24.31,8.85v1.23l1.91-1.1v-1.23l-1.91,1.1h0ZM24.01,10.92c-.05,0-.1-.01-.15-.04-.1-.06-.16-.16-.16-.27v-1.94c0-.11.06-.21.16-.27l2.52-1.45c.1-.06.22-.06.31,0,.1.06.16.16.16.27v1.94c-.01.11-.06.21-.16.27l-2.52,1.45c-.05.03-.11.04-.16.04Z"/>
      <polygon class="cls-4" points="24.11 34.88 29.69 31.66 29.7 21.08 24.11 24.3 24.11 34.88"/>
      <path class="cls-2" d="M24.42,24.48v9.87l4.97-2.87v-9.87l-4.97,2.87h0ZM24.11,35.19c-.06,0-.11-.01-.16-.04-.09-.06-.15-.15-.15-.27v-10.58c0-.11.06-.21.15-.26l5.59-3.22c.1-.05.21-.05.31,0,.09.06.15.16.15.27v10.58c0,.11-.06.21-.15.27l-5.59,3.22s-.09.04-.15.04Z"/>
      <path class="cls-3" d="M39.73,16.68v6.31s-.04.1-.07.12l-6.45,3.72s-.07,0-.07-.04v-6.31s.03-.1.07-.12l6.45-3.73s.07,0,.07.04Z"/>
      <path class="cls-2" d="M33.45,20.58v5.76l5.98-3.45v-5.76l-5.98,3.45h0ZM33.18,27.14c-.06,0-.12-.01-.17-.04-.11-.06-.17-.18-.17-.31v-6.31c0-.15.09-.31.22-.39l6.45-3.72c.1-.06.27-.06.36,0,.12.06.18.18.18.31v6.31c0,.16-.09.31-.22.39l-6.45,3.72c-.05.03-.12.04-.19.04Z"/>
      <polygon class="cls-1" points="23.43 17.53 23.01 17.29 23.45 17.02 23.89 17.27 23.43 17.53"/>
      <path class="cls-2" d="M23.43,17.84c-.05,0-.11-.02-.16-.04l-.42-.24c-.09-.05-.16-.15-.16-.26s.05-.21.15-.27l.44-.27c.1-.06.22-.06.31,0l.44.25c.09.06.15.16.15.27s-.06.21-.15.27l-.45.26c-.05.03-.11.04-.16.04Z"/>
      <polygon class="cls-1" points="24.32 17.04 25.18 16.54 25.18 17.69 24.32 18.18 24.32 17.04"/>
      <path class="cls-2" d="M24.62,17.22v.43l.25-.14v-.43l-.25.14h0ZM24.32,18.49c-.05,0-.11-.01-.16-.04-.1-.05-.15-.15-.15-.27v-1.14c0-.11.05-.21.15-.27l.86-.5c.1-.05.22-.06.31,0,.09.06.15.16.15.27v1.14c0,.11-.05.21-.15.27l-.86.5c-.05.03-.11.04-.15.04Z"/>
      <polygon class="cls-1" points="37.64 9.3 38.49 8.8 38.49 9.94 37.64 10.44 37.64 9.3"/>
      <path class="cls-2" d="M37.95,9.48v.43l.24-.14v-.43l-.24.14h0ZM37.64,10.75c-.05,0-.11-.02-.16-.04-.09-.05-.15-.16-.15-.27v-1.14c0-.11.05-.21.15-.26l.86-.5c.09-.06.22-.06.31,0,.1.05.15.15.15.27v1.14c0,.11-.05.21-.15.27l-.86.5c-.05.03-.11.04-.16.04Z"/>
      <polygon class="cls-1" points="22.77 12.98 39.44 3.35 39.44 8.31 22.77 17.94 22.77 12.98"/>
      <path class="cls-2" d="M23.08,13.16v4.24l16.06-9.27V3.89l-16.06,9.27h0ZM22.77,18.24c-.05,0-.11-.01-.15-.04-.1-.05-.16-.15-.16-.26v-4.95c0-.11.06-.21.16-.27L39.29,3.09c.1-.05.22-.05.31,0,.09.06.16.16.16.26v4.95c0,.11-.06.21-.16.27l-16.67,9.62c-.05.03-.1.04-.16.04Z"/>
      <path class="cls-2" d="M35.42,7.35v.76l.27-.15c.18-.11.32-.2.42-.27.06-.04.12-.11.17-.19.06-.08.11-.16.15-.26.03-.09.05-.19.05-.3,0-.12-.03-.16-.03-.16-.04.02-.13.05-.48.25l-.56.32h0ZM35.11,9.85c-.17,0-.3-.14-.3-.31v-2.37c0-.11.06-.21.15-.27l.7-.41c.39-.22.52-.28.6-.3.29-.08.48.01.6.11.15.13.23.34.23.62,0,.18-.03.36-.09.52-.06.15-.13.29-.22.41-.09.12-.18.22-.29.3-.11.09-.28.2-.5.33l-.57.33v.71c0,.17-.14.31-.31.31Z"/>
      <path class="cls-2" d="M33.54,8.46c-.1,0-.23.05-.39.14-.16.09-.29.19-.41.31-.09.09-.16.2-.23.32-.08.13-.14.26-.18.38-.05.17-.09.36-.09.57,0,.24.05.41.13.45.09.05.26,0,.48-.12.28-.16.5-.38.66-.66.17-.28.25-.58.25-.91,0-.25-.05-.42-.13-.47-.03-.01-.05-.02-.09-.02h0ZM32.46,11.28c-.14,0-.26-.03-.38-.09-.3-.16-.44-.5-.44-.99,0-.28.03-.53.11-.77.06-.17.14-.34.23-.5.1-.17.21-.31.32-.44.16-.16.34-.3.54-.42.42-.24.78-.29,1.08-.13.3.16.46.5.46,1.01,0,.44-.11.85-.34,1.22-.21.37-.51.67-.88.88-.26.15-.5.23-.7.23Z"/>
      <path class="cls-2" d="M29.15,12.09c-.11,0-.21-.06-.26-.16-.08-.15-.03-.34.12-.42l1.75-1.01c.15-.09.34-.04.42.11.09.15.03.34-.11.42l-1.76,1.01s-.1.04-.16.04Z"/>
      <path class="cls-2" d="M30.91,12.26c-.17,0-.3-.14-.3-.31v-2.37c0-.17.14-.31.3-.31.18,0,.31.14.31.31v2.37c0,.17-.14.31-.31.31Z"/>
      <path class="cls-2" d="M29.15,13.27c-.17,0-.3-.14-.3-.31v-2.37c0-.17.14-.31.3-.31s.31.14.31.31v2.37c0,.17-.14.31-.31.31Z"/>
      <path class="cls-2" d="M26.77,14.5c-.11,0-.21-.02-.3-.06-.17-.08-.36-.25-.42-.68-.02-.17.11-.32.28-.34.17-.02.32.1.34.27.02.14.05.18.06.19.03.02.21,0,.48-.18.36-.24.59-.52.58-.7.03-.03-.04-.03-.27.07-.29.13-.71.28-1.03.09-.13-.08-.29-.24-.3-.57-.03-.45.36-.9.73-1.17.18-.14.67-.45,1.07-.3.15.06.4.22.42.68,0,.17-.13.31-.29.32h-.02c-.17,0-.3-.13-.3-.3,0-.1-.03-.13-.03-.13-.05-.01-.29.05-.56.28-.27.22-.41.47-.41.58,0,.06.02.08.02.09h.02s.16,0,.44-.13c.18-.08.57-.26.87-.07.11.07.26.23.27.54.03.56-.52,1.01-.85,1.23-.29.19-.56.29-.78.29Z"/>
      <polygon class="cls-3" points="20.27 20.47 41.98 7.93 48.78 14.6 27.06 27.14 20.27 20.47"/>
      <path class="cls-2" d="M20.77,20.54l6.34,6.22,21.16-12.22-6.33-6.23-21.16,12.22h0ZM27.06,27.45c-.08,0-.16-.03-.22-.09l-6.79-6.67c-.07-.07-.11-.16-.09-.26.01-.1.06-.18.15-.23l21.72-12.54c.12-.07.27-.05.37.05l6.8,6.67c.07.07.1.17.09.26,0,.1-.07.18-.15.23l-21.72,12.54c-.05.03-.1.04-.15.04Z"/>
      <polygon class="cls-3" points="20.27 20.47 27.06 27.14 20.26 22.85 20.27 20.47"/>
      <path class="cls-2" d="M20.57,22.68l4.21,2.66-4.21-4.14v1.47h0ZM27.06,27.45c-.05,0-.12-.02-.17-.05l-6.8-4.3c-.09-.06-.14-.16-.14-.26v-2.37c0-.12.08-.24.19-.28.11-.05.24-.02.34.07l6.79,6.67c.11.11.12.29.02.41-.06.08-.15.12-.24.12Z"/>
      <polygon class="cls-1" points="22.24 19.33 24.22 18.19 31.01 24.87 29.03 26 22.24 19.33"/>
      <path class="cls-2" d="M22.75,19.4l6.34,6.22,1.42-.82-6.34-6.23-1.42.82h0ZM29.03,26.31c-.08,0-.16-.03-.21-.09l-6.8-6.67c-.07-.07-.11-.16-.09-.26,0-.1.07-.18.15-.23l1.97-1.14c.12-.07.28-.05.37.04l6.79,6.67c.07.07.1.16.09.26-.02.09-.07.18-.16.23l-1.97,1.14s-.1.04-.15.04Z"/>
      <polygon class="cls-1" points="26.19 17.05 28.16 15.91 34.96 22.59 32.99 23.73 26.19 17.05"/>
      <path class="cls-2" d="M26.69,17.12l6.34,6.22,1.43-.82-6.34-6.22-1.43.82h0ZM32.99,24.03c-.08,0-.15-.03-.22-.09l-6.8-6.67c-.07-.07-.1-.16-.09-.26,0-.1.07-.18.16-.23l1.97-1.14c.11-.07.27-.05.36.05l6.8,6.67c.07.07.1.16.09.26,0,.09-.07.18-.16.23l-1.97,1.14s-.1.04-.15.04Z"/>
      <polygon class="cls-1" points="30.13 14.77 32.11 13.63 38.9 20.3 36.93 21.44 30.13 14.77"/>
      <path class="cls-2" d="M30.65,14.84l6.33,6.23,1.42-.82-6.34-6.22-1.42.82h0ZM36.93,21.75c-.08,0-.15-.03-.22-.09l-6.79-6.67c-.07-.07-.1-.16-.09-.26.02-.1.07-.18.16-.23l1.97-1.14c.12-.07.27-.05.36.05l6.8,6.67c.07.07.1.16.08.26,0,.1-.07.18-.15.23l-1.97,1.14c-.05.03-.11.04-.16.04Z"/>
      <polygon class="cls-1" points="34.09 12.49 36.06 11.35 42.85 18.02 40.88 19.16 34.09 12.49"/>
      <path class="cls-2" d="M34.59,12.56l6.34,6.22,1.42-.82-6.33-6.22-1.42.82h0ZM40.88,19.47c-.08,0-.16-.03-.21-.09l-6.79-6.67c-.07-.07-.11-.16-.09-.26.01-.1.06-.18.15-.23l1.97-1.14c.12-.07.27-.05.37.05l6.79,6.67c.07.07.1.16.1.26-.02.09-.07.18-.16.23l-1.97,1.14c-.05.03-.11.04-.16.04Z"/>
      <polygon class="cls-1" points="38.04 10.21 40.01 9.07 46.81 15.75 44.83 16.88 38.04 10.21"/>
      <path class="cls-2" d="M38.54,10.28l6.34,6.22,1.42-.82-6.34-6.23-1.43.82h0ZM44.83,17.19c-.09,0-.17-.03-.22-.09l-6.8-6.67c-.07-.07-.11-.16-.09-.26,0-.1.07-.18.15-.23l1.97-1.14c.12-.07.28-.05.37.05l6.79,6.67c.07.07.1.16.09.26-.02.09-.07.18-.16.23l-1.98,1.14s-.09.04-.15.04Z"/>
    </g>
  </g>
</svg>