<?xml version="1.0" encoding="UTF-8"?>
<svg id="Layer_2" data-name="Layer 2" xmlns="http://www.w3.org/2000/svg" viewBox="0 0 31.54 47.32" fill="currentColor">
  <defs>
    <style>
      .cls-1 {
        fill: #1a87c7;
      }

      .cls-1, .cls-2, .cls-3 {
        fill-rule: evenodd;
      }

      .cls-2 {
        fill: #bdedf8;
      }

      .cls-3 {
        fill: #66ceef;
      }
    </style>
  </defs>
  <g id="_Layer_" data-name="&amp;lt;Layer&amp;gt;">
    <g>
      <path class="cls-3" d="M13.73,25.1l2.09,2.09c1,.9,2.62-1.26,2.37-2.51-.12-.54-1.66-1.89-2.3-2.52.79,1.22-.97,3.91-2.16,2.94h0ZM2.79,43.75l-2.09-2.09c-.7-.85-.34-1.95.14-2.83l9.24-16.01c.48-.78.87-1.25,1.6-1.8l2.68-1.86c.72-.46,1.31-.74,2.14-.36l1.67.96.21.14,2.09,2.09-.2-.14-1.67-.96c-.71-.33-1.17-.18-1.84.16l-.3.19-2.67,1.86c-.73.55-1.12,1.02-1.6,1.8L2.93,40.93c-.48.87-.84,1.98-.14,2.83h0Z"/>
      <path class="cls-1" d="M14.63,25.57l1.41,1.41c.06.05.27.25.7,0,.69-.4,1.29-1.55,1.14-2.24-.06-.29-.92-1.14-1.49-1.68-.05.77-.49,1.58-1.05,2.09-.23.21-.47.35-.72.42h0ZM15.74,18.92c.19,0,.38.05.59.14l1.65.95.59.54c-.79-.32-1.35-.09-2,.24l-2.99,2.06c-.82.61-1.22,1.13-1.69,1.89L2.66,40.78c-.37.68-.57,1.3-.58,1.84l-1.16-1.16c-.48-.58-.42-1.39.18-2.48l9.24-16.01c.43-.71.78-1.17,1.51-1.71l2.66-1.85c.5-.32.86-.5,1.22-.5h0ZM2.79,44.06c-.09,0-.17-.03-.23-.09l-2.09-2.09c-.67-.81-.63-1.88.09-3.19l9.25-16.02c.46-.77.87-1.29,1.68-1.89l2.68-1.87c.74-.47,1.46-.84,2.45-.38l1.92,1.14,2.14,2.13c.12.11.12.29.02.42-.11.12-.29.15-.42.05l-.2-.14-1.65-.95c-.54-.24-.87-.17-1.55.17l-.84.57s.04.03.07.05c.13.13.3.3.5.49,1,.94,1.77,1.71,1.87,2.19.21,1.03-.63,2.43-1.45,2.9-.52.29-1.03.26-1.43-.1l-2.1-2.1c-.11-.12-.12-.3-.01-.43.12-.12.3-.13.43-.03.36.29.75.07,1.01-.17.64-.57,1.1-1.75.7-2.36-.03-.04-.04-.08-.04-.12l-1.65,1.14c-.65.49-1.02.9-1.51,1.71L3.19,41.08c-.59,1.08-.65,1.9-.17,2.48.1.13.09.31-.03.42-.05.06-.13.08-.2.08Z"/>
      <path class="cls-2" d="M16.9,24.22c-.72.42-1.3,1.43-1.3,2.26s.58,1.17,1.3.75c.73-.42,1.31-1.43,1.31-2.26s-.58-1.17-1.31-.75h0ZM8.6,47.01c-1.11-.07-5.34-2.52-5.96-3.45-.2-.29-.27-.7-.21-1.17.05-.46.22-.97.51-1.47l9.24-16.02c.45-.78.97-1.36,1.6-1.8l2.67-1.86c.82-.57,1.56-.69,2.15-.36l1.67.96c.58.34.84,1.04.77,2.03l-.28,3.24c-.06.76-.31,1.51-.76,2.29l-9.25,16.01c-.29.49-.64.9-1.03,1.18-.37.28-.76.42-1.11.4h0Z"/>
      <path class="cls-1" d="M17.05,24.49c-.63.36-1.15,1.28-1.15,2,0,.29.08.5.23.58.15.08.36.05.62-.09.63-.36,1.15-1.28,1.15-2,0-.29-.08-.5-.22-.58-.15-.08-.37-.05-.62.09h0ZM16.31,27.73c-.17,0-.34-.04-.5-.13-.34-.2-.53-.59-.53-1.11,0-.94.64-2.06,1.46-2.53h0c.45-.26.89-.29,1.23-.09.34.2.53.59.53,1.11,0,.95-.64,2.06-1.46,2.53-.25.15-.5.22-.74.22h0ZM17.88,21.02c.18,0,.37.04.55.14l1.67.97c.6.34.66,1.13.61,1.74l-.27,3.24c-.06.71-.3,1.42-.72,2.16l-9.25,16.01c-.26.45-.58.83-.94,1.08-.32.24-.65.35-.91.34h0c-1.03-.07-5.15-2.45-5.73-3.31-.15-.23-.21-.57-.17-.96.05-.43.21-.9.47-1.35l9.25-16.01c.42-.73.91-1.29,1.5-1.7l2.67-1.86c.36-.25.82-.49,1.27-.49h0ZM8.67,47.32s-.07,0-.11,0h0c-1.18-.08-5.52-2.59-6.2-3.58-.23-.35-.32-.82-.26-1.37.05-.52.24-1.06.55-1.59l9.24-16.02c.47-.81,1.03-1.43,1.69-1.9l2.67-1.86c1.17-.81,1.99-.65,2.47-.37l1.68.97c.48.28,1.03.91.91,2.32l-.28,3.24c-.06.81-.32,1.6-.8,2.42l-9.25,16.01c-.3.52-.68.96-1.1,1.27-.41.3-.83.46-1.22.46Z"/>
      <path class="cls-1" d="M6.05,44.52c1.06.61,2.04,1.04,2.46,1.06.11,0,.22-.01.33-.05.14-.05.27-.12.41-.22.15-.11.29-.24.41-.39.14-.15.26-.32.36-.51l8.8-15.22c.18-.33.33-.64.42-.95.1-.31.18-.61.19-.93l.26-3.07c.04-.52-.01-1.19-.51-1.49l-.85-.49c-.19-.11-.41-.14-.65-.1-.27.04-.57.18-.89.4l-2.52,1.76c-.26.18-.49.38-.7.63-.22.24-.42.52-.61.85l-8.79,15.22c-.1.19-.19.38-.26.57-.07.19-.11.37-.13.55-.02.17-.02.32,0,.46.03.13.07.23.12.32.24.35,1.09.99,2.15,1.6h0ZM8.55,46.2s-.05,0-.09,0c-.77-.05-2.28-.89-2.72-1.14h0c-.44-.26-1.92-1.14-2.36-1.78-.1-.16-.17-.34-.22-.55-.03-.2-.03-.41,0-.64.03-.22.08-.45.15-.68.08-.23.18-.45.31-.68l8.79-15.22c.21-.36.43-.67.68-.95.24-.28.51-.52.81-.73l2.53-1.76c.39-.28.78-.45,1.14-.51.39-.07.75,0,1.06.18l.86.49c.43.25.92.81.82,2.07l-.26,3.07c-.03.36-.1.72-.22,1.07-.12.35-.28.7-.49,1.06l-8.79,15.22c-.12.22-.27.43-.43.61-.16.19-.33.35-.51.48-.18.14-.37.24-.56.31-.16.06-.33.09-.49.09Z"/>
      <path class="cls-3" d="M16.14,24.94c1.71-.02,3.54-.77,5.27-1.96,2.35-1.62,4.49-4.04,5.88-6.56,2.84-5.09,2.79-9.23,1.36-11.78-.63-1.11-1.5-1.9-2.52-2.34-.99-.43-2.13-.5-3.26-.16-2.42.73-4.84,3.31-6.13,8.29-.45,1.74-.77,3.57-.97,5.27-.13,1.06-.23,2.06-.3,2.95-.47.11-.71.25-1.11.51l-.57.39c.07-1.17.18-2.57.36-4.04.23-1.75.55-3.64,1.02-5.48,1.45-5.6,4.33-8.56,7.23-9.43,1.5-.46,3.02-.35,4.36.22,1.33.57,2.49,1.61,3.28,3.03,1.68,2.98,1.8,7.7-1.35,13.35-1.51,2.73-3.83,5.34-6.38,7.1-2.16,1.49-4.5,2.38-6.73,2.24v-.06c0-.5.22-1.07.55-1.54Z"/>
      <path class="cls-1" d="M15.92,26.25c1.91.04,4.08-.72,6.22-2.2,2.47-1.7,4.76-4.25,6.29-7,2.75-4.93,3.25-9.69,1.35-13.05-.75-1.34-1.84-2.35-3.14-2.9-1.31-.56-2.75-.64-4.15-.21-3.19.96-5.75,4.32-7.02,9.21-.42,1.64-.76,3.47-1.01,5.44-.14,1.08-.24,2.22-.33,3.39l.04-.02c.36-.22.62-.38,1.01-.5.07-.93.17-1.85.28-2.75.24-1.95.57-3.74.98-5.31,1.18-4.55,3.49-7.65,6.35-8.5,1.18-.36,2.38-.3,3.47.17,1.11.47,2.03,1.33,2.67,2.47,1.72,3.06,1.22,7.46-1.36,12.09-1.45,2.62-3.63,5.04-5.98,6.66-1.83,1.26-3.64,1.95-5.28,2.01-.2.32-.34.68-.38,1h0ZM16.05,26.87c-.16,0-.32,0-.48-.02-.16-.01-.29-.14-.29-.3,0-.62.22-1.24.6-1.78.05-.08.15-.13.24-.13,1.55-.02,3.32-.68,5.1-1.91,2.27-1.57,4.38-3.92,5.8-6.45,2.47-4.43,2.96-8.62,1.35-11.48-.57-1.03-1.4-1.79-2.37-2.21-.96-.41-2.01-.46-3.05-.15-2.64.79-4.8,3.74-5.93,8.07-.4,1.55-.72,3.31-.96,5.23-.12.96-.22,1.94-.29,2.94-.02.13-.11.24-.24.28-.42.1-.62.21-1.02.47l-.55.38c-.1.07-.23.07-.33.02-.1-.06-.17-.17-.15-.29.09-1.4.21-2.77.36-4.06.25-1.99.6-3.85,1.02-5.52,1.33-5.11,4.04-8.62,7.45-9.65,1.55-.47,3.13-.38,4.57.24,1.42.61,2.61,1.71,3.43,3.16,2,3.56,1.5,8.53-1.36,13.66-1.57,2.82-3.93,5.45-6.47,7.2-2.2,1.52-4.41,2.31-6.45,2.31Z"/>
      <path class="cls-1" d="M14.18,32.59c-.05,0-.11-.02-.15-.04l-.79-.45s0,0-.01,0c0,0,0,0,0,0l-.78-.45c-.15-.09-.2-.28-.11-.42l1.43-2.47c.09-.15.28-.2.42-.11.15.09.19.27.11.42l-1.28,2.2.26.15.98-1.69c.08-.15.27-.2.42-.11.15.09.2.27.11.42l-.97,1.69.25.15,1.28-2.2c.08-.15.27-.2.42-.11.15.08.2.27.11.42l-1.43,2.47c-.06.1-.16.16-.27.16h0ZM12.47,35.55c-.05,0-.1-.02-.15-.04l-1.59-.91c-.15-.09-.2-.28-.11-.42.09-.15.28-.2.43-.11l1.31.76,1.13-1.95c.09-.15.27-.2.42-.11.15.09.2.27.11.42l-1.28,2.22c-.04.07-.1.12-.18.14-.03,0-.06.01-.09.01h0ZM9.72,36.95l.31.7.7-1.22-.77.08-.25.43h0ZM10.29,39.33c-.12,0-.23-.07-.29-.19l-.29-.66s0-.02-.02-.04l-.61-1.39c-.04-.09-.04-.19.02-.28l.41-.7c.04-.08.13-.14.23-.15l2.26-.25c.18-.02.32.1.35.27.02.17-.1.32-.28.34l-.57.07-1.16,2.01.23.54c.07.16,0,.34-.16.41-.04.02-.09.03-.12.03h0ZM8.06,42.84c.05,0,.1-.01.15-.05.42-.25.72-.69,1.08-1.32.34-.59.62-1.37.47-1.8-.05-.14-.15-.24-.27-.29-.51-.2-.96.43-1.53,1.23-.22.31-.58.81-.79.97,0-.42.57-1.67,1.24-2.17.14-.1.16-.3.07-.43-.1-.14-.3-.16-.44-.06-.72.54-1.49,1.92-1.49,2.68,0,.31.14.47.24.56.11.08.24.11.38.09.39-.06.74-.52,1.27-1.27.22-.3.56-.76.73-.95-.03.23-.16.66-.43,1.13-.31.54-.56.92-.87,1.11-.15.09-.19.28-.1.42.06.09.16.14.27.14Z"/>
    </g>
  </g>
</svg>