<?xml version="1.0" encoding="UTF-8"?>
<svg id="Layer_2" data-name="Layer 2" xmlns="http://www.w3.org/2000/svg" viewBox="0 0 28.82 40.48" fill="currentColor">
  <defs>
    <style>
      .cls-1 {
        fill: #fff;
      }

      .cls-1, .cls-2, .cls-3, .cls-4 {
        fill-rule: evenodd;
      }

      .cls-2 {
        fill: #1a87c7;
      }

      .cls-3 {
        fill: #bdedf8;
      }

      .cls-4 {
        fill: #66ceef;
      }
    </style>
  </defs>
  <g id="_Layer_" data-name="&amp;lt;Layer&amp;gt;">
    <g>
      <path class="cls-2" d="M11.9,4.92c-.82,1.23-1.68,2.49-2.52,3.73-1.48,2.18-2.94,4.32-4.34,6.51l-.52-.33c1.4-2.18,2.86-4.34,4.34-6.52.82-1.21,1.66-2.44,2.52-3.73l.51.34Z"/>
      <path class="cls-2" d="M15.35,2.4c1.09.45,2.17.84,3.27,1.19,1.11.35,2.23.67,3.4.99l-.16.59c-1.17-.32-2.31-.64-3.42-1-1.12-.36-2.22-.75-3.32-1.2l.24-.57Z"/>
      <path class="cls-4" d="M3.04,40.04l-2.36-1.35c-.39-.24-.31-.52-.37-.97v-18.82c.08-.98.42-1.81,1.26-2.4L24.92,3.02c.37-.16.52-.21.89-.02l2.33,1.35c-.37-.19-.5-.14-.86.03L3.9,17.84c-.81.58-1.18,1.38-1.23,2.4v18.83c.03.45.05.63.37.96Z"/>
      <path class="cls-2" d="M25.41,3.18c-.1,0-.18.03-.37.12L1.73,16.76c-.68.48-1.02,1.17-1.1,2.16v19.01c.03.33.03.4.21.5l1.55.89c-.03-.07-.03-.14-.03-.21v-18.86c.08-1.2.52-2.03,1.36-2.65L27.12,4.1l-1.47-.83c-.1-.06-.18-.09-.24-.09h0ZM3.04,40.36c-.05,0-.11-.02-.16-.04l-2.36-1.35c-.47-.28-.5-.67-.5-1.02l-.03-.2v-18.85c.1-1.19.55-2.05,1.39-2.65L24.76,2.75c.45-.2.68-.29,1.18-.03l2.36,1.36c.16.08.21.27.13.41-.11.15-.29.21-.42.13-.26-.13-.29-.12-.63.02L4.06,18.11c-.66.49-1.02,1.16-1.1,2.16v18.81c.05.4.05.51.29.76.1.1.13.28.03.4-.05.08-.16.12-.24.12Z"/>
      <path class="cls-1" d="M3.9,17.84L27.27,4.37c.68-.4,1.23.02,1.23.95v18.84c0,.92-.55,2-1.23,2.39L3.9,40.03c-.68.4-1.23-.03-1.23-.95v-18.83c0-.92.55-2,1.23-2.4Z"/>
      <path class="cls-2" d="M3.9,17.84h.03-.03ZM27.75,4.53c-.11,0-.24.05-.34.11L4.06,18.11h0c-.58.35-1.1,1.32-1.1,2.13v18.83c0,.36.1.64.29.75.16.09.37.02.5-.07l23.37-13.47c.58-.35,1.1-1.32,1.1-2.13V5.32c0-.36-.11-.64-.29-.75-.05-.04-.13-.04-.18-.04h0ZM3.43,40.48c-.18,0-.34-.04-.5-.13-.37-.22-.58-.68-.58-1.28v-18.83c0-1.04.63-2.21,1.39-2.66L27.12,4.1c.39-.23.79-.25,1.13-.06.37.21.58.68.58,1.28v18.84c0,1.03-.63,2.21-1.41,2.66l-23.34,13.48c-.21.12-.45.19-.63.19Z"/>
      <path class="cls-3" d="M.81,17.29l2.36,1.35c.21-.35.42-.56.73-.79L27.27,4.37c.37-.17.5-.22.86-.03l-2.33-1.35c-.37-.19-.52-.15-.89.02L1.57,16.5c-.31.24-.55.44-.76.79Z"/>
      <path class="cls-2" d="M1.26,17.18l1.81,1.04c.18-.26.42-.44.66-.63L27.12,4.1l-1.47-.83c-.24-.13-.26-.11-.6.03L1.73,16.76c-.18.13-.34.26-.47.42h0ZM3.17,18.95c-.05,0-.11-.02-.16-.04l-2.36-1.35c-.05-.03-.1-.11-.13-.18-.03-.08-.03-.16.03-.23.24-.41.52-.65.84-.89L24.76,2.75c.45-.2.68-.29,1.18-.03l2.36,1.36c.16.08.21.27.13.41-.11.15-.29.21-.42.13-.26-.13-.29-.12-.63.02L4.06,18.11c-.26.18-.45.36-.63.68-.05.11-.16.16-.26.16Z"/>
      <path class="cls-1" d="M13.91,1.07c-1.07.61-1.93,2.11-1.93,3.34s.86,1.73,1.93,1.11c1.07-.62,1.93-2.11,1.93-3.34s-.87-1.73-1.93-1.11Z"/>
      <path class="cls-2" d="M14.06,1.34c-.49.28-.93.77-1.25,1.33-.32.56-.52,1.19-.52,1.75,0,.3.06.55.16.73.07.11.15.2.25.26.1.06.22.09.35.09.21,0,.45-.07.71-.22.49-.28.93-.77,1.25-1.33.32-.56.52-1.19.52-1.75,0-.3-.06-.55-.16-.73-.07-.11-.15-.2-.25-.26-.1-.06-.22-.09-.35-.09-.21,0-.45.07-.71.22h0ZM12.27,2.36c.37-.65.9-1.22,1.48-1.55.36-.21.7-.31,1.02-.31.24,0,.46.06.66.17.19.11.35.27.47.48.16.27.25.62.25,1.03,0,.67-.23,1.41-.61,2.06-.37.65-.9,1.22-1.48,1.55-.36.21-.71.31-1.02.31-.24,0-.46-.06-.66-.17-.19-.11-.35-.27-.47-.48-.16-.27-.24-.62-.24-1.03,0-.67.23-1.41.61-2.06Z"/>
      <path class="cls-4" d="M15.27.94c-.9-.52-1.52-1.09-2.78.08-1.13,1.05-1.98,3.41-.79,4.16l.84.48c-1.73-1.2.83-5.63,2.73-4.73Z"/>
      <path class="cls-2" d="M15.18.52l.24.14-.28.54c-.48-.23-1.05,0-1.54.46-.3.27-.57.62-.79,1-.22.38-.38.79-.47,1.18-.14.66-.06,1.26.37,1.56l-.33.52-.85-.49c-.11-.07-.2-.15-.29-.24-.4-.42-.5-1.04-.4-1.7.09-.61.36-1.27.72-1.83.21-.33.45-.64.71-.88C13.59-.43,14.29,0,15.18.52h0ZM14,.67c-.36-.06-.77.07-1.3.57-.22.21-.43.47-.61.75-.31.49-.55,1.07-.63,1.6-.07.47-.02.9.22,1.17-.05-.33-.02-.68.06-1.05.1-.45.29-.92.54-1.36.25-.43.56-.83.9-1.14.26-.24.54-.42.82-.55Z"/>
      <path class="cls-2" d="M7.07,34.33c-.15.08-.34.04-.42-.11-.08-.15-.03-.33.11-.42l2.49-1.44c.2-.12.41-.32.56-.56.13-.2.22-.42.22-.62v-.54c0-.09-.02-.16-.05-.22-.02-.04-.05-.07-.09-.09-.03-.02-.08-.03-.12-.03-.06,0-.14.02-.21.06l-1.71.99c-.14.08-.31.13-.46.13-.13,0-.25-.03-.37-.09-.12-.06-.22-.16-.3-.28-.07-.13-.12-.28-.12-.47v-.54c0-.3.11-.62.27-.89.19-.33.45-.61.66-.73l2.34-1.35c.15-.08.33-.03.42.11.08.15.03.34-.11.42l-2.34,1.35c-.13.07-.3.27-.44.5-.11.19-.19.4-.19.59v.54c0,.08.01.13.03.17.01.02.03.04.05.04.02.01.05.02.08.02.05,0,.11-.02.16-.04l1.72-.99c.17-.1.35-.15.52-.15.15,0,.3.04.43.11.13.07.24.18.31.32.09.15.13.32.13.53v.54c0,.32-.13.66-.32.95-.2.31-.48.59-.77.75l-2.49,1.44Z"/>
      <path class="cls-2" d="M17.83,28.1c-.15.08-.33.04-.42-.11-.08-.15-.03-.34.11-.42l2.81-1.62c.15-.08.33-.03.42.11.08.15.03.33-.11.42l-2.81,1.62Z"/>
      <path class="cls-2" d="M17.98,27.84c0,.17-.14.31-.31.31s-.31-.14-.31-.31v-4.87c0-.17.14-.31.31-.31s.31.14.31.31v4.87Z"/>
      <path class="cls-2" d="M22.66,25.13c0,.17-.14.31-.31.31s-.31-.14-.31-.31v-4.87c0-.12.07-.23.17-.28.46-.26.91-.53,1.41-.8.49-.27,1.01-.55,1.55-.82.15-.07.34-.01.41.14.07.15.01.34-.14.41-.54.27-1.05.54-1.53.8-.42.23-.84.48-1.26.72v4.69Z"/>
      <path class="cls-2" d="M22.5,22.87c-.15.08-.33.03-.42-.11-.08-.15-.04-.34.11-.42l2.49-1.44c.15-.08.33-.03.42.11.08.15.03.33-.11.42l-2.49,1.44Z"/>
      <path class="cls-2" d="M22.5,25.39c-.15.08-.33.03-.42-.11s-.04-.34.11-.42l2.81-1.62c.15-.08.34-.03.42.11.08.15.03.33-.11.42l-2.81,1.62Z"/>
      <path class="cls-2" d="M12.2,31.27c-.05.16-.22.25-.38.2-.16-.05-.25-.22-.2-.38l1.87-5.95c.05-.16.22-.25.39-.2.16.05.25.22.2.38l-1.87,5.95Z"/>
      <path class="cls-2" d="M16.06,28.75c.09.14.06.33-.09.43-.14.09-.33.05-.43-.09-.39-.59-.75-1.21-1.09-1.84-.34-.63-.65-1.26-.96-1.89-.07-.15-.01-.34.14-.41.15-.07.34-.01.41.14.31.63.63,1.27.95,1.87.33.61.67,1.21,1.06,1.79Z"/>
      <path class="cls-2" d="M12.53,30.27c-.15.08-.33.03-.42-.11-.09-.15-.04-.33.11-.42l2.9-1.68c.15-.09.33-.03.42.11.08.15.03.33-.11.42l-2.9,1.68Z"/>
      <path class="cls-2" d="M17.05,17.74v-1.98c0-.18-.03-.32-.09-.43-.03-.05-.07-.1-.11-.12h-.01s-.09-.04-.14-.04c-.11,0-.25.04-.42.14l-1.09.63c-.26.15-.54.47-.75.83-.21.36-.35.76-.35,1.06v1.98c0,.19.03.34.09.43.03.05.07.09.11.12.04.02.1.04.16.04.12,0,.27-.05.42-.13l1.09-.63c.34-.2.62-.48.8-.8.19-.32.29-.7.29-1.1h0ZM17.67,15.76v1.98c0,.5-.13.98-.37,1.4-.24.42-.59.77-1.03,1.03l-1.09.63c-.24.14-.5.22-.73.22-.16,0-.32-.04-.46-.11-.14-.08-.26-.19-.35-.35-.11-.19-.17-.43-.17-.74v-1.98c0-.41.17-.92.43-1.37.26-.45.61-.85.97-1.06l1.09-.63c.27-.15.51-.22.73-.22.17,0,.32.04.45.11h.03c.13.1.24.21.33.36.12.2.18.46.18.74Z"/>
      <path class="cls-2" d="M20.16,15.05l.6-.33c.4-.22.83-.44,1.28-.68.28-.14.55-.42.75-.75.2-.31.33-.66.33-.96v-.18c0-.12-.02-.21-.06-.27-.03-.04-.06-.08-.1-.1h0s-.1-.04-.17-.04c-.13,0-.29.05-.45.14-.41.24-.87.48-1.31.71-.31.16-.61.32-.88.47v2h0ZM21.06,15.26c-.33.18-.63.34-.9.49v1.99c0,.17-.14.31-.31.31s-.31-.14-.31-.31v-4.87c0-.11.06-.21.15-.27.29-.17.66-.36,1.05-.57.42-.22.87-.46,1.28-.7.26-.15.52-.22.75-.22.16,0,.31.03.44.1h.02c.14.09.26.2.35.35.09.16.14.35.14.58v.18c0,.42-.17.88-.42,1.29-.26.41-.62.78-.99.97-.47.24-.9.47-1.28.67Z"/>
      <path class="cls-2" d="M8.94,24.24c0,.17-.14.31-.31.31s-.31-.14-.31-.31v-4.87c0-.12.07-.23.17-.28l3.1-1.79c.15-.08.33-.03.42.11.08.15.03.33-.11.42l-2.96,1.72v4.69Z"/>
      <path class="cls-2" d="M8.78,22.16c-.15.09-.34.03-.42-.11-.08-.15-.03-.33.11-.42l2.81-1.62c.15-.08.33-.03.42.11.08.15.03.34-.11.42l-2.81,1.62Z"/>
      <path class="cls-2" d="M22.09,14.56c-.08-.15-.03-.33.11-.42.15-.08.33-.03.42.11.14.24.31.46.5.65.2.2.42.37.63.5.15.08.2.27.11.42-.08.15-.27.2-.42.11-.27-.15-.53-.36-.77-.6-.22-.23-.43-.49-.59-.78Z"/>
    </g>
  </g>
</svg>