<?xml version="1.0" encoding="UTF-8"?>
<svg id="Layer_2" data-name="Layer 2" xmlns="http://www.w3.org/2000/svg" viewBox="0 0 38.4 41.88" fill="currentColor">
  <defs>
    <style>
      .cls-1 {
        fill: #fff;
      }

      .cls-1, .cls-2, .cls-3, .cls-4 {
        fill-rule: evenodd;
      }

      .cls-2 {
        fill: #1a87c7;
      }

      .cls-3 {
        fill: #bdedf8;
      }

      .cls-4 {
        fill: #66ceef;
      }
    </style>
  </defs>
  <g id="_Layer_" data-name="&amp;lt;Layer&amp;gt;">
    <g>
      <path class="cls-4" d="M21.56,1.03L2.05,12.3c-1.02.64-1.69,1.81-1.74,3.01v17.91c.05.55.07.77.51,1.12l12.32,7.11c-.44-.36-.46-.58-.51-1.12v-17.91c.05-1.2.72-2.37,1.74-3.01l19.5-11.26.86-.5c.5-.23.7-.32,1.23-.12L23.65.42c-.53-.2-.73-.11-1.23.12l-.86.5Z"/>
      <path class="cls-2" d="M21.56,1.03h0,0ZM23.16.61c-.17,0-.32.07-.62.21l-.84.49h0L2.2,12.57c-.92.59-1.54,1.65-1.58,2.76v17.9c.04.49.06.61.4.89l11.33,6.54c0-.09-.02-.18-.03-.29v-.7s0-17.24,0-17.24c.06-1.32.78-2.57,1.89-3.27l20.38-11.77c.1-.05.2-.09.29-.13L23.5.68c-.14-.05-.24-.07-.33-.07h0ZM13.14,41.76c-.06,0-.11-.01-.15-.04L.67,34.61c-.56-.45-.61-.76-.67-1.36V15.31c.06-1.32.78-2.57,1.89-3.27L22.27.27c.57-.27.86-.38,1.49-.14l12.36,7.13c.14.08.2.25.13.4-.07.14-.24.21-.39.16-.41-.16-.52-.11-.99.11l-.84.48-19.5,11.26c-.93.59-1.54,1.65-1.59,2.76v17.9c.05.48.06.61.4.89.12.1.15.28.06.41-.06.08-.16.13-.25.13Z"/>
      <path class="cls-3" d="M14.37,19.41c-.96.55-1.74,1.9-1.74,3.01v17.91c0,1.11.78,1.56,1.74,1l12.9-7.45,7.86-4.58c.78-.65,1.35-1.79,1.35-2.74V8.65c0-1.11-.77-1.55-1.74-1l-.86.5-19.5,11.26Z"/>
      <path class="cls-2" d="M14.37,19.41h0,0ZM35.51,7.72c-.19,0-.4.07-.62.2l-20.37,11.76h0c-.86.5-1.59,1.75-1.59,2.75v17.91c0,.41.13.73.36.86.23.13.56.09.92-.12l12.9-7.45,7.85-4.58c.68-.58,1.2-1.63,1.2-2.47V8.65c0-.41-.13-.73-.36-.85-.09-.05-.18-.08-.3-.08h0ZM13.59,41.88c-.22,0-.43-.05-.61-.16-.43-.25-.67-.74-.67-1.39v-17.91c0-1.23.83-2.66,1.89-3.28h0l20.37-11.76c.57-.33,1.1-.37,1.54-.12.42.25.66.74.66,1.39v17.92c0,1.03-.6,2.25-1.47,2.98l-7.9,4.62-12.89,7.44c-.32.19-.64.28-.93.28Z"/>
      <path class="cls-1" d="M31.77,13.83l-1.12.65c-.08.04-.14.15-.14.23v1.22c0,.09.06.12.14.08l1.12-.65c.08-.04.14-.15.14-.24v-1.22c0-.09-.06-.12-.14-.08Z"/>
      <path class="cls-2" d="M31.77,13.83h0,0ZM31.6,13.9h0s0,0,0,0h0ZM31.6,14.28l-.8.47v.81s.82-.47.82-.47l-.02-.81h0ZM30.82,15.92h0s0,0,0,0h0ZM30.59,16.33c-.07,0-.13-.02-.19-.05-.12-.07-.19-.2-.19-.35v-1.22c0-.2.11-.4.29-.5l1.13-.65c.13-.08.28-.08.4-.01.12.07.2.2.2.35v1.22c0,.2-.12.4-.29.5l-1.12.65c-.07.04-.15.06-.21.06Z"/>
      <path class="cls-1" d="M29.45,15.17l-1.13.65c-.07.04-.14.15-.14.23v1.22c0,.09.07.12.14.08l1.13-.65c.07-.04.13-.15.13-.24v-1.22c0-.09-.06-.12-.13-.08Z"/>
      <path class="cls-2" d="M29.45,15.17h0,0ZM29.27,15.25h0s0,0,0,0h0ZM29.28,15.62l-.81.47v.81s.82-.47.82-.47v-.81h0ZM28.49,17.27h0s0,0,0,0h0ZM28.26,17.68c-.06,0-.13-.02-.19-.05-.12-.07-.19-.2-.19-.35v-1.22c0-.2.12-.4.29-.5l1.13-.65c.13-.08.28-.08.4-.01.12.07.2.2.2.35v1.22c0,.2-.12.4-.3.5l-1.12.65c-.07.04-.15.06-.21.06Z"/>
      <path class="cls-1" d="M34.1,15.08l-1.12.65c-.08.04-.14.15-.14.23v1.22c0,.09.06.12.14.08l1.12-.65c.08-.04.14-.15.14-.23v-1.22c0-.09-.06-.12-.14-.08Z"/>
      <path class="cls-2" d="M34.1,15.08h0,0ZM33.92,15.16h0s0,0,0,0h0ZM33.93,15.53l-.81.47.02.81.8-.47v-.81h0ZM33.14,17.18h0s0,0,0,0h0ZM32.92,17.59c-.07,0-.14-.02-.19-.05-.12-.07-.2-.2-.2-.35v-1.22c0-.2.12-.4.3-.5l1.12-.65c.14-.08.28-.08.41-.01.12.07.19.2.19.36v1.22c0,.2-.11.4-.29.5l-1.13.65c-.07.04-.14.06-.21.06Z"/>
      <path class="cls-1" d="M31.77,16.43l-1.12.65c-.08.04-.14.15-.14.23v1.22c0,.09.06.12.14.08l1.12-.65c.08-.04.14-.15.14-.24v-1.22c0-.09-.06-.12-.14-.08Z"/>
      <path class="cls-2" d="M31.77,16.43h0,0ZM31.6,16.51h0s0,0,0,0h0ZM31.6,16.88l-.8.47v.81s.82-.47.82-.47l-.02-.81h0ZM30.82,18.53h0s0,0,0,0h0ZM30.59,18.93c-.07,0-.13-.02-.19-.05-.12-.07-.19-.2-.19-.35v-1.22c0-.2.11-.4.29-.5l1.13-.65c.13-.08.28-.08.4-.01.12.07.2.2.2.36v1.22c0,.2-.12.4-.29.5l-1.12.65c-.07.04-.15.06-.21.06Z"/>
      <path class="cls-1" d="M29.45,17.77l-1.13.65c-.07.04-.14.15-.14.24v1.22c0,.09.07.12.14.08l1.13-.65c.07-.04.13-.15.13-.24v-1.22c0-.09-.06-.12-.13-.08Z"/>
      <path class="cls-2" d="M29.45,17.77h0,0ZM29.27,17.85h0s0,0,0,0h0ZM29.28,18.22l-.81.46v.81s.82-.47.82-.47v-.81h0ZM28.49,19.87h0s0,0,0,0h0ZM28.26,20.28c-.06,0-.13-.02-.19-.05-.12-.07-.19-.2-.19-.36v-1.22c0-.2.12-.41.29-.5l1.13-.65c.13-.08.28-.08.4-.01.12.07.2.2.2.36v1.22c0,.2-.12.4-.3.5l-1.12.65c-.07.04-.15.06-.21.06Z"/>
      <path class="cls-1" d="M34.1,17.68l-1.12.65c-.08.04-.14.15-.14.24v1.22c0,.09.06.12.14.08l1.12-.65c.08-.04.14-.15.14-.24v-1.22c0-.09-.06-.12-.14-.08Z"/>
      <path class="cls-2" d="M34.1,17.68h0,0ZM33.92,17.76h0s0,0,0,0h0ZM33.93,18.14l-.81.46.02.81.8-.47v-.81h0ZM33.14,19.78h0s0,0,0,0h0ZM32.92,20.19c-.07,0-.14-.02-.19-.05-.12-.07-.2-.2-.2-.35v-1.22c0-.2.12-.4.3-.5l1.12-.65c.13-.08.28-.08.41,0,.12.07.19.2.19.35v1.22c0,.2-.11.4-.29.5l-1.13.65c-.07.04-.14.06-.21.06Z"/>
      <path class="cls-1" d="M31.77,19.03l-1.12.65c-.08.05-.14.15-.14.24v1.22c0,.08.06.12.14.08l1.12-.65c.08-.04.14-.15.14-.24v-1.22c0-.09-.06-.12-.14-.08Z"/>
      <path class="cls-2" d="M31.77,19.03h0,0ZM31.6,19.11h0s0,0,0,0h0ZM31.6,19.48l-.8.46v.81s.82-.46.82-.46l-.02-.81h0ZM30.82,21.13h0s0,0,0,0ZM30.59,21.54c-.07,0-.13-.02-.19-.05-.12-.07-.19-.2-.19-.35v-1.22c0-.2.11-.4.29-.5l1.13-.65c.13-.08.28-.08.4,0,.12.07.2.2.2.36v1.22c0,.2-.12.4-.29.5l-1.12.65c-.07.04-.15.06-.21.06Z"/>
      <path class="cls-1" d="M29.45,20.37l-1.13.65c-.07.04-.14.15-.14.24v1.22c0,.09.07.12.14.08l1.13-.65c.07-.04.13-.15.13-.23v-1.22c0-.09-.06-.12-.13-.08Z"/>
      <path class="cls-2" d="M29.45,20.37h0,0ZM29.27,20.45h0s0,0,0,0h0ZM29.28,20.82l-.81.47v.81s.82-.46.82-.46v-.81h0ZM28.49,22.47h0s0,0,0,0h0ZM28.26,22.88c-.06,0-.13-.02-.19-.05-.12-.07-.19-.2-.19-.36v-1.22c0-.2.12-.4.29-.5l1.13-.65c.13-.08.28-.08.4,0,.12.07.2.2.2.36v1.22c0,.2-.12.4-.29.5l-1.13.65c-.07.04-.15.06-.21.06Z"/>
      <path class="cls-1" d="M34.1,12.48l-1.12.65c-.08.04-.14.15-.14.24v1.22c0,.09.06.12.14.08l1.12-.65c.08-.04.14-.15.14-.24v-1.22c0-.09-.06-.12-.14-.08Z"/>
      <path class="cls-2" d="M34.1,12.48h0,0ZM33.92,12.56h0s0,0,0,0h0ZM33.93,12.93l-.81.47.02.81.8-.47v-.81h0ZM33.14,14.58h0s0,0,0,0h0ZM32.92,14.99c-.07,0-.14-.02-.19-.05-.12-.07-.2-.2-.2-.36v-1.22c0-.2.12-.41.3-.5l1.12-.65c.14-.08.28-.08.41-.01.12.07.19.2.19.36v1.22c0,.2-.11.4-.29.5l-1.13.65c-.07.04-.14.06-.21.06Z"/>
      <path class="cls-1" d="M14.78,23.44v11.43c0,.17.12.24.27.15l10.39-6c.15-.08.27-.29.27-.46v-11.42c0-.17-.12-.24-.27-.15l-10.39,6c-.15.09-.27.29-.27.46Z"/>
      <path class="cls-2" d="M25.39,17.36l-10.19,5.88c-.05.03-.11.14-.11.2v11.2l10.19-5.88c.05-.03.11-.14.11-.2v-11.2h0ZM14.92,35.37c-.08,0-.15-.02-.22-.06-.15-.08-.23-.24-.23-.44v-11.43c0-.28.18-.59.42-.73l10.39-6c.17-.1.36-.1.5-.02.15.09.23.25.23.44v11.42c0,.28-.18.59-.42.73l-10.39,6c-.09.05-.18.08-.28.08Z"/>
      <polygon class="cls-4" points="27.69 25.1 34.32 21.27 34.32 22.73 33.18 23.38 33.18 23.89 28.95 26.34 28.95 25.83 27.69 26.56 27.69 25.1"/>
      <path class="cls-2" d="M28,25.28v.74l.8-.46c.1-.05.21-.05.31,0,.09.05.15.14.15.24l3.62-2.09v-.33c0-.11.06-.21.16-.27l.98-.57v-.74l-6.02,3.47h0ZM27.69,26.87c-.05,0-.11-.01-.16-.04-.1-.05-.15-.16-.15-.27v-1.45c0-.11.05-.21.15-.27l6.64-3.83c.09-.05.21-.06.31,0,.09.05.15.16.15.27v1.45c0,.11-.06.21-.15.27l-.98.57v.33c0,.11-.06.21-.16.26l-4.23,2.45c-.1.05-.21.05-.31,0-.09-.05-.15-.14-.15-.24l-.8.46c-.05.03-.1.04-.15.04Z"/>
      <polygon class="cls-4" points="15.17 39.08 30.39 30.29 30.39 29.41 15.17 38.19 15.17 39.08"/>
      <path class="cls-2" d="M15.47,38.37v.17l14.6-8.43v-.17l-14.6,8.43h0ZM15.17,39.39c-.06,0-.11-.01-.15-.04-.1-.05-.16-.16-.16-.27v-.88c0-.11.06-.21.16-.27l15.22-8.78c.1-.06.21-.06.31,0,.09.05.15.16.15.26v.89c0,.11-.06.21-.15.27l-15.22,8.78s-.1.04-.15.04Z"/>
      <path class="cls-4" d="M.82,13.59c-.31.59-.48,1.05-.51,1.71v17.91c.05.55.07.77.51,1.12l12.32,7.11c-.44-.36-.46-.58-.51-1.12v-17.91c.03-.67.19-1.13.51-1.71L.82,13.59Z"/>
      <path class="cls-2" d="M.95,14.02c-.19.4-.3.78-.33,1.3v17.9c.04.49.06.61.4.89l11.33,6.54c0-.09-.02-.18-.03-.29v-17.94c.03-.65.17-1.12.41-1.59L.95,14.02h0ZM13.14,41.76c-.06,0-.11-.01-.15-.04L.67,34.61c-.56-.45-.61-.76-.67-1.36V15.31c.03-.77.24-1.28.55-1.86.04-.08.11-.13.19-.15.08-.02.16-.01.24.03l12.32,7.11c.15.08.2.27.12.41-.28.51-.45.94-.48,1.58v17.9c.05.48.06.61.4.89.12.1.15.28.06.41-.06.08-.16.13-.25.13Z"/>
      <polygon class="cls-4" points="15.17 39.08 30.39 30.29 29.61 29.85 15.17 38.19 15.17 39.08"/>
      <path class="cls-2" d="M15.47,38.37v.17l14.3-8.25-.16-.09-14.14,8.17h0ZM15.17,39.39c-.06,0-.11-.01-.15-.04-.1-.05-.16-.16-.16-.27v-.88c0-.11.06-.21.16-.27l14.45-8.34c.1-.06.21-.06.3,0l.77.44c.09.06.15.16.15.27s-.06.21-.15.27l-15.22,8.78s-.1.04-.15.04Z"/>
      <path class="cls-1" d="M32.42,27.83l-4.73-2.73,5.42-3.13,4.72,2.72c.35.2.35.53,0,.74l-4.14,2.39c-.35.2-.92.2-1.27,0Z"/>
      <path class="cls-2" d="M28.31,25.1l4.26,2.46h0c.26.15.71.15.97,0l4.14-2.39c.09-.05.1-.09.11-.1-.01,0-.03-.05-.11-.1l-4.56-2.64-4.81,2.77h0ZM33.06,28.29c-.29,0-.57-.07-.79-.19l-4.72-2.72c-.09-.06-.16-.16-.16-.27s.06-.21.16-.27l5.42-3.12c.1-.06.21-.06.3,0l4.72,2.73c.27.15.42.38.42.63s-.15.48-.41.63l-4.15,2.39c-.23.13-.5.19-.79.19Z"/>
      <path class="cls-3" d="M33.11,26.52c-.1.06-.28.06-.38,0-.39-.23-.79-.45-1.18-.68-.1-.06-.1-.16,0-.22.28-.16.63-.36.9-.52.1-.06.28-.06.38,0,.39.23.78.46,1.18.68.1.06.1.16,0,.22-.28.16-.63.36-.9.52Z"/>
      <path class="cls-2" d="M31.69,25.57h0,0ZM33.86,26.05h0s0,0,0,0h0ZM31.97,25.73l.91.53s.05,0,.07,0l.63-.36-.91-.53s-.06,0-.08,0l-.63.36h0ZM33.11,26.52h0,0ZM32.92,26.88c-.12,0-.24-.03-.35-.09l-1.18-.68c-.15-.08-.23-.22-.23-.38s.09-.29.23-.37l.9-.52c.2-.12.49-.12.69,0l1.18.68c.15.08.24.23.24.38s-.09.29-.24.38l-.9.52h0c-.1.06-.23.09-.35.09Z"/>
      <path class="cls-1" d="M29.71,29.79l5.04,2.91c.6.35.6.91,0,1.26l-12.25,7.07c-.61.35-1.58.35-2.19,0l-5.03-2.91,14.43-8.33Z"/>
      <path class="cls-2" d="M15.9,38.13l4.57,2.64c.51.29,1.37.29,1.88,0l12.25-7.07c.19-.11.3-.24.3-.36s-.1-.25-.3-.36l-4.89-2.82-13.81,7.98h0ZM21.41,41.6c-.45,0-.89-.1-1.24-.3l-5.04-2.91c-.1-.05-.15-.16-.15-.27s.05-.21.15-.27l14.44-8.33c.09-.05.21-.05.3,0l5.03,2.91c.39.22.61.55.61.9s-.22.68-.61.9l-12.25,7.07c-.35.2-.79.3-1.24.3Z"/>
      <path class="cls-2" d="M18.39,30.38c-.11,0-.2-.05-.26-.14-.09-.14-.05-.33.09-.42.96-.61,2.03-1.22,3.07-1.81.25-.14.48-.48.48-.71v-1.83s-.07-.04-.17.02c-.99.56-1.82,1.05-2.52,1.5-.33.21-.58.13-.69.07-.12-.07-.31-.24-.31-.64v-1.83c0-.36.27-.92.67-1.17.8-.5,1.71-1.03,2.86-1.69.15-.08.34-.03.42.12.09.15.03.34-.11.42-1.15.65-2.05,1.19-2.83,1.68-.22.13-.38.51-.38.65v1.91s.04-.02.05-.03c.71-.45,1.55-.94,2.54-1.51.26-.14.55-.15.78-.02.2.12.31.31.31.53v1.83c0,.51-.4,1.02-.78,1.24-1.05.59-2.11,1.2-3.05,1.8-.05.03-.11.05-.17.05Z"/>
      <path class="cls-2" d="M20.18,30.76c-.17,0-.3-.14-.3-.31v-8.9c0-.17.14-.31.3-.31.18,0,.31.14.31.31v8.9c0,.17-.14.31-.31.31Z"/>
      <path class="cls-1" d="M30.67,32.41c.35-.2.35-.52,0-.72-.34-.2-.9-.19-1.24,0-.35.2-.36.52-.02.72.35.2.9.19,1.25,0Z"/>
      <path class="cls-2" d="M30.07,31.85c-.18,0-.36.04-.48.11-.09.05-.11.09-.11.1,0,0,.03.04.09.09.25.14.69.14.94,0h0c.09-.05.1-.09.11-.1,0,0-.03-.04-.1-.08-.11-.07-.29-.11-.45-.11h0ZM30.04,32.87c-.28,0-.55-.06-.77-.19-.26-.15-.41-.37-.41-.62s.15-.48.42-.63c.44-.25,1.12-.26,1.56,0,.26.15.41.37.41.62s-.16.48-.43.63h0c-.23.13-.51.2-.78.2Z"/>
      <path class="cls-1" d="M19.83,38.67c-.35.2-.91.2-1.24,0-.34-.2-.33-.52,0-.72.35-.2.91-.2,1.25,0,.34.2.33.52-.02.72Z"/>
      <path class="cls-2" d="M19.23,38.11c-.18,0-.35.04-.48.11-.09.05-.11.09-.11.1,0,0,.03.04.11.08.24.14.68.14.93,0,.09-.05.11-.09.11-.1,0,0-.03-.04-.1-.09-.12-.07-.29-.1-.46-.1h0ZM19.83,38.67h0,0ZM19.19,39.13c-.27,0-.55-.06-.76-.19-.25-.15-.4-.37-.4-.62s.15-.48.42-.63c.44-.26,1.11-.26,1.55,0,.26.15.41.37.41.62s-.15.48-.42.63h0c-.23.13-.5.19-.79.19Z"/>
      <path class="cls-2" d="M21.11,40.5c-.1,0-.21-.05-.26-.15-.09-.15-.03-.33.11-.42l1.52-.88c.15-.08.33-.03.42.11.09.15.03.34-.11.42l-1.52.88c-.05.03-.1.04-.16.04Z"/>
      <path class="cls-2" d="M31.78,34.34c-.1,0-.21-.05-.26-.15-.09-.15-.03-.34.12-.42l1.52-.88c.15-.08.33-.03.42.11.09.15.04.34-.11.42l-1.52.88c-.05.03-.11.04-.16.04Z"/>
      <path class="cls-2" d="M24.85,37.09c-.11,0-.21-.06-.26-.15-.09-.15-.04-.34.11-.42.69-.4,1.38-.79,2.21-1.24l-1.02-.6c-.08-.04-.35-.07-.47,0-.33.19-.68.38-1.02.56-.3.17-.61.33-.87.49-.33.19-.76.19-1.09,0l-1.36-.79c-.14-.09-.19-.28-.1-.42.09-.15.27-.2.42-.11l1.36.79c.13.08.33.08.47,0,.27-.15.58-.32.89-.5.34-.18.68-.37,1-.55.32-.19.84-.15,1.1,0l1.09.64c.3.17.33.39.33.5s-.05.33-.34.49c-.86.46-1.57.86-2.28,1.28-.04.03-.09.04-.15.04Z"/>
      <path class="cls-2" d="M26.97,36.86c-.05,0-.1-.01-.15-.04-.71-.41-1.28-.75-1.81-1.07-.81-.49-1.55-.93-2.62-1.54-.15-.08-.2-.27-.12-.42.09-.15.27-.2.42-.12,1.09.61,1.83,1.05,2.64,1.54.54.32,1.1.66,1.81,1.07.14.09.19.27.1.42-.05.1-.16.15-.26.15Z"/>
      <path class="cls-2" d="M36.01,25.35s-.1-.02-.16-.04l-.89-.52c-.15-.08-.2-.27-.11-.42.08-.15.27-.2.42-.11l.9.51c.15.09.19.27.11.42-.06.1-.17.15-.27.15Z"/>
      <path class="cls-2" d="M34.21,24.31c-.05,0-.11-.01-.16-.04l-.89-.51c-.15-.09-.19-.27-.12-.42.09-.15.28-.2.43-.11l.9.51c.15.09.19.28.1.42-.05.1-.15.16-.26.16Z"/>
      <path class="cls-2" d="M32.41,23.27c-.05,0-.1-.01-.16-.04l-.5-.29c-.15-.08-.2-.27-.11-.42.08-.15.27-.2.42-.11l.5.29c.15.08.2.27.11.42-.05.1-.16.15-.26.15Z"/>
    </g>
  </g>
</svg>