<?xml version="1.0" encoding="UTF-8"?>
<svg id="Layer_2" data-name="Layer 2" xmlns="http://www.w3.org/2000/svg" viewBox="0 0 25.11 44.74" fill="currentColor">
  <defs>
    <style>
      .cls-1 {
        fill: #fff;
      }

      .cls-1, .cls-2, .cls-3, .cls-4 {
        fill-rule: evenodd;
      }

      .cls-2 {
        fill: #1a87c7;
      }

      .cls-3 {
        fill: #bdedf8;
      }

      .cls-4 {
        fill: #66ceef;
      }
    </style>
  </defs>
  <g id="_Layer_" data-name="&amp;lt;Layer&amp;gt;">
    <g>
      <path class="cls-4" d="M2.63,40.01c-.08.04-.1.05-.19.02l2.79,1.61c.09.03.12.01.19-.02l17.35-10.09-.02-27.5-2.88-.94v26.88L2.63,40.01Z"/>
      <path class="cls-2" d="M3.13,40.07l2.18,1.25,17.15-9.98-.03-27.1-2.25-.73v26.45c0,.11-.06.21-.16.26L3.13,40.07h0ZM5.3,41.96s-.11-.01-.16-.03l-2.85-1.64c-.14-.08-.2-.25-.13-.39.05-.13.2-.2.34-.18l17.06-9.93V3.09c0-.1.04-.19.12-.25.09-.06.19-.07.28-.04l2.87.94c.13.04.22.16.22.29l.03,27.5c0,.11-.06.21-.16.27l-17.34,10.09c-.08.04-.17.08-.28.08Z"/>
      <path class="cls-4" d="M19.9,29.91c-.06.12-.11.18-.23.26L2.63,40.01c-.08.04-.1.05-.19.02l2.79,1.61c.09.03.12.01.19-.02l17.04-9.84c.12-.08.17-.14.23-.26l-2.79-1.61Z"/>
      <path class="cls-2" d="M3.14,40.07l2.17,1.25,16.88-9.74-2.2-1.27s-.09.07-.14.11L3.14,40.07h0ZM5.3,41.96s-.11-.01-.16-.03l-2.85-1.64c-.14-.08-.2-.25-.13-.39.06-.14.23-.22.37-.17l16.99-9.84s.05-.05.11-.14c.03-.07.1-.13.18-.15.09-.02.17-.01.24.03l2.79,1.61c.14.08.19.26.12.41-.09.15-.16.25-.33.37l-17.06,9.85c-.08.04-.17.08-.28.08Z"/>
      <path class="cls-4" d="M3.61,44.32l-2.79-1.61c-.44-.36-.47-.59-.52-1.14V14.09c.11-1.32.68-2.3,1.77-3.06L20.24.54c.51-.23.71-.32,1.25-.12l2.79,1.61c-.54-.2-.75-.11-1.25.12L4.86,12.64c-1.08.76-1.65,1.74-1.76,3.06v27.47c.05.55.08.78.52,1.14Z"/>
      <path class="cls-2" d="M21,.61c-.17,0-.32.07-.63.21L2.22,11.3c-.99.69-1.51,1.59-1.62,2.82v27.45c.05.5.06.62.41.9l1.81,1.04c-.02-.09-.03-.19-.03-.3V15.7c.11-1.43.74-2.51,1.89-3.31L22.89,1.89c.1-.05.21-.1.3-.13l-1.85-1.07c-.14-.05-.24-.08-.34-.08h0ZM3.61,44.62c-.05,0-.1-.01-.16-.04l-2.79-1.61c-.56-.46-.61-.77-.67-1.38V14.09c.11-1.43.74-2.51,1.89-3.31L20.08.27c.58-.27.88-.38,1.51-.14l2.83,1.63c.14.08.2.25.13.4-.07.15-.24.21-.39.16-.42-.16-.53-.11-1.01.11L5.01,12.91c-.99.69-1.51,1.59-1.61,2.82v27.45c.04.49.05.62.4.9.13.1.16.28.06.41-.06.09-.16.13-.25.13Z"/>
      <path class="cls-4" d="M3.61,44.32l-2.79-1.61c-.44-.36-.47-.59-.52-1.14V14.09c.04-.56.11-.79.3-1.31l2.79,1.61c-.19.52-.25.76-.3,1.32v27.47c.05.55.08.78.52,1.14Z"/>
      <path class="cls-2" d="M.77,13.23c-.09.29-.13.5-.17.89v27.45c.05.5.06.62.41.9l1.81,1.04c-.02-.09-.03-.19-.03-.3V15.7c.04-.52.1-.79.23-1.18l-2.25-1.3h0ZM3.61,44.62c-.05,0-.1-.01-.16-.04l-2.79-1.61c-.56-.46-.61-.77-.67-1.38V14.09c.05-.62.12-.88.32-1.42.03-.08.09-.15.18-.18.09-.03.18-.02.26.02l2.79,1.61c.13.07.18.23.13.37-.18.5-.23.7-.28,1.23v27.44c.04.49.05.62.4.9.13.1.16.28.06.41-.06.09-.16.13-.25.13Z"/>
      <polygon class="cls-4" points="4.27 19.42 3.38 18.9 20.97 8.75 21.86 9.26 4.27 19.42"/>
      <path class="cls-2" d="M4,18.9l.27.16,16.98-9.8-.27-.15L4,18.9h0ZM4.27,19.72c-.05,0-.1-.01-.15-.04l-.89-.51c-.1-.05-.16-.16-.16-.27s.06-.21.16-.27l17.58-10.15c.1-.06.22-.06.32,0l.88.51c.09.05.15.16.15.27s-.06.21-.15.27L4.42,19.68s-.09.04-.16.04Z"/>
      <polygon class="cls-4" points="4.27 20.71 3.38 20.2 3.38 18.9 4.27 19.42 4.27 20.71"/>
      <path class="cls-2" d="M3.69,20.02l.27.16v-.58l-.27-.15v.58h0ZM4.27,21.02c-.05,0-.1-.01-.15-.04l-.89-.51c-.1-.05-.16-.15-.16-.26v-1.3c0-.11.06-.21.16-.26.09-.06.21-.06.3,0l.89.51c.1.06.16.16.16.26v1.29c0,.11-.06.21-.16.27-.04.03-.09.04-.16.04Z"/>
      <polygon class="cls-4" points="4.27 28.81 3.38 28.29 3.38 27 4.27 27.51 4.27 28.81"/>
      <path class="cls-2" d="M3.69,28.12l.27.15v-.58l-.27-.16v.58h0ZM4.27,29.11c-.05,0-.1-.01-.15-.04l-.89-.51c-.1-.06-.16-.15-.16-.27v-1.29c0-.11.06-.21.16-.27.09-.06.21-.06.3,0l.89.51c.1.05.16.16.16.27v1.29c0,.11-.06.21-.16.26-.04.03-.09.04-.16.04Z"/>
      <polygon class="cls-4" points="4.27 27.51 3.38 27 20.97 16.85 21.86 17.36 4.27 27.51"/>
      <path class="cls-2" d="M4,27l.27.15,16.98-9.8-.27-.16L4,27h0ZM4.27,27.82c-.05,0-.1-.01-.15-.04l-.89-.51c-.1-.06-.16-.16-.16-.26s.06-.21.16-.27l17.58-10.15c.1-.06.22-.06.32,0l.88.51c.09.06.15.16.15.27s-.06.21-.15.27L4.42,27.78s-.09.04-.16.04Z"/>
      <polygon class="cls-4" points="4.27 36.9 3.38 36.39 3.38 35.09 4.27 35.6 4.27 36.9"/>
      <path class="cls-2" d="M3.69,36.21l.27.15v-.58l-.27-.15v.58h0ZM4.27,37.21c-.05,0-.1-.01-.15-.04l-.89-.51c-.1-.05-.16-.16-.16-.26v-1.29c0-.11.06-.21.16-.27.09-.06.21-.06.3,0l.89.51c.1.05.16.16.16.27v1.29c0,.11-.06.21-.16.26-.04.03-.09.04-.16.04Z"/>
      <polygon class="cls-4" points="4.27 35.6 3.38 35.09 20.97 24.94 21.86 25.45 4.27 35.6"/>
      <path class="cls-2" d="M4,35.09l.27.16,16.98-9.8-.27-.15L4,35.09h0ZM4.27,35.91c-.05,0-.1-.01-.15-.04l-.89-.51c-.1-.06-.16-.16-.16-.27s.06-.21.16-.27l17.58-10.15c.1-.06.22-.06.32,0l.88.51c.09.05.15.16.15.27s-.06.21-.15.27l-17.58,10.15s-.09.04-.16.04Z"/>
      <path class="cls-3" d="M21.86,26.74c-8.34,4.82-11.69,6.75-17.59,10.16v-1.29l17.59-10.16v1.29h0ZM21.86,18.65v-1.29L4.27,27.51v1.29c8.9-5.14,9.88-5.7,17.59-10.16h0ZM4.27,19.42l17.59-10.15v1.29c-7.71,4.45-8.7,5.02-17.59,10.15v-1.29Z"/>
      <path class="cls-2" d="M4.58,19.59v.58l16.97-9.8v-.58L4.58,19.59h0ZM4.27,21.02c-.05,0-.1-.01-.15-.04-.09-.05-.15-.16-.15-.27v-1.29c0-.11.06-.21.15-.26l17.58-10.15c.09-.06.21-.06.3,0,.09.05.15.16.15.27v1.29c0,.11-.06.21-.15.26L4.42,20.98s-.09.04-.16.04h0ZM21.86,18.65h0,0ZM4.58,27.69l16.97-9.8v.58L4.58,28.27v-.58h0ZM4.27,29.11c-.05,0-.1-.01-.15-.04-.09-.05-.15-.16-.15-.26v-1.29c0-.11.06-.21.15-.27l17.58-10.16c.09-.06.21-.06.3,0,.09.06.15.16.15.27v1.29c0,.11-.06.21-.15.27L4.42,29.07s-.09.04-.16.04h0ZM21.86,26.74h0,0ZM4.58,35.78v.58l16.97-9.8v-.58l-16.97,9.8h0ZM4.27,37.21c.06,0,.11-.01.16-.04l17.58-10.15c.09-.06.15-.16.15-.27v-1.29c0-.11-.06-.21-.15-.27-.1-.05-.21-.05-.3,0l-17.58,10.16c-.09.05-.15.16-.15.27v1.29c0,.11.06.21.15.26.04.03.1.04.15.04Z"/>
      <path class="cls-3" d="M22.75,31.33V4.86c0-.16-.13-.22-.28-.14L5.42,14.57c-.15.09-.27.29-.27.45v26.46c0,.16.12.22.27.14l17.04-9.84c.15-.09.28-.29.28-.45h0ZM4.86,12.64L23.03,2.15c.97-.56,1.77-.1,1.77,1.02v27.47c0,1.12-.79,2.5-1.77,3.06l-18.18,10.49c-.96.56-1.76.11-1.76-1.02V15.7c0-1.12.8-2.5,1.76-3.06h0Z"/>
      <path class="cls-2" d="M22.43,5.1L5.58,14.83c-.06.04-.12.14-.12.19v26.22l16.85-9.73c.06-.04.11-.14.11-.19V5.1h0ZM5.3,41.97c-.08,0-.16-.02-.23-.06-.15-.08-.23-.24-.23-.42V15.02c0-.28.17-.58.42-.72L22.32,4.46c.17-.1.36-.11.5-.02.14.08.23.24.23.42v26.46c0,.27-.18.58-.43.72l-17.04,9.84c-.1.05-.19.08-.28.08h0ZM4.86,12.64h.01-.01ZM23.82,2.22c.12,0,.23.03.31.08.24.13.37.45.37.87v27.47c0,1.01-.74,2.29-1.61,2.79l-18.18,10.49c-.37.22-.71.26-.94.12-.24-.14-.37-.45-.37-.88V15.7c0-1.01.74-2.29,1.61-2.79h0L23.19,2.42c.23-.13.44-.2.63-.2h0ZM4.08,44.74c-.23,0-.44-.05-.62-.16-.43-.25-.67-.75-.67-1.41V15.7c0-1.24.84-2.71,1.92-3.33h0L22.89,1.89c.56-.33,1.12-.37,1.54-.12.44.25.68.75.68,1.41v27.47c0,1.24-.84,2.7-1.92,3.32l-18.17,10.49c-.32.19-.65.28-.94.28Z"/>
      <path class="cls-3" d="M16.69,9.35c.26-.15,1.31-.8,1.54-.86,1.08-.31,2.26,1.14,2.66,2.14.28.7.51,1.96-.27,2.44l-1.34.77c1.06-.67.36-2.6-.35-3.51-.48-.61-1.43-1.41-2.24-.98Z"/>
      <path class="cls-2" d="M17.8,9.05c.53.21,1.03.64,1.37,1.09.56.73,1.06,1.93.94,2.86l.36-.2c.56-.35.39-1.42.14-2.06-.4-.98-1.46-2.2-2.29-1.96-.08.02-.28.13-.51.26h0ZM19.28,14.14c-.1,0-.21-.06-.26-.15-.09-.14-.04-.33.1-.42.21-.13.33-.33.37-.61.13-.73-.3-1.82-.8-2.44-.39-.49-1.21-1.24-1.86-.9-.15.08-.33.02-.41-.13-.09-.15-.03-.33.11-.41l.23-.14c.75-.45,1.19-.7,1.38-.75,1.34-.38,2.63,1.32,3.03,2.32.32.77.57,2.23-.39,2.82l-1.35.78s-.1.04-.15.04Z"/>
      <path class="cls-4" d="M17.98,9.47c1.01.58,1.83,2.01,1.83,3.17s-.83,1.64-1.83,1.06c-.23-.13-.46-.31-.66-.52l1.18-.69c.13-.08.21-.24.21-.48,0-.47-.33-1.04-.73-1.28-.1-.06-.2-.09-.28-.1h-.01c-.17-.02-.32.07-.4.23l-1,.58c-.09-.31-.15-.63-.15-.92,0-1.17.81-1.64,1.83-1.06Z"/>
      <path class="cls-2" d="M17.83,13.24c.11.08.2.14.3.2.39.23.75.27.99.13.25-.14.38-.47.38-.92,0-1.05-.76-2.38-1.68-2.91h0c-.39-.23-.74-.27-.99-.13-.24.14-.38.47-.38.92,0,.14.02.29.04.45l.57-.33c.14-.22.39-.34.66-.32.14.02.27.06.4.14.51.29.9.96.9,1.54,0,.34-.14.61-.37.74l-.82.48h0ZM18.8,14.27c-.3,0-.63-.1-.97-.29-.25-.15-.5-.34-.72-.57-.07-.07-.1-.16-.09-.26.01-.09.07-.18.15-.22l1.18-.69s.06-.09.06-.21c0-.36-.27-.83-.58-1.01-.06-.03-.11-.05-.16-.06-.05,0-.07,0-.09.05-.03.06-.08.11-.13.14l-1,.58c-.09.05-.18.06-.27.02-.09-.03-.16-.11-.18-.2-.1-.35-.16-.69-.16-1.01,0-.68.25-1.2.7-1.45.44-.26,1.02-.21,1.6.13,1.12.64,1.99,2.16,1.99,3.44,0,.68-.24,1.2-.69,1.45-.19.11-.41.16-.64.16Z"/>
      <path class="cls-3" d="M13.75,11.04c.26-.15,1.31-.79,1.54-.86,1.08-.31,2.26,1.14,2.67,2.14.28.7.5,1.96-.28,2.44l-1.34.78c1.06-.67.36-2.6-.35-3.51-.48-.61-1.43-1.41-2.24-.99Z"/>
      <path class="cls-2" d="M14.87,10.74c.52.21,1.02.64,1.37,1.09.56.72,1.06,1.93.94,2.86l.36-.2c.57-.34.39-1.42.14-2.05-.4-.98-1.46-2.2-2.3-1.96-.07.02-.28.13-.5.26h0ZM16.34,15.84c-.1,0-.21-.05-.26-.15-.09-.14-.04-.33.1-.42.21-.13.33-.33.38-.61.12-.73-.31-1.82-.81-2.44-.38-.49-1.21-1.24-1.86-.9-.15.08-.33.02-.41-.13-.09-.15-.03-.33.11-.41l.24-.14c.75-.44,1.18-.69,1.36-.74,1.34-.38,2.63,1.32,3.03,2.32.31.77.58,2.23-.39,2.82l-1.35.78c-.05.03-.11.04-.16.04Z"/>
      <path class="cls-4" d="M15.04,11.17c1.01.58,1.83,2.01,1.83,3.17s-.82,1.64-1.83,1.06c-.23-.13-.45-.31-.66-.52l1.18-.69c.13-.08.22-.24.22-.48,0-.47-.33-1.04-.74-1.28-.09-.06-.19-.09-.28-.1h0s0,0,0,0c-.18-.02-.33.06-.41.23l-1,.58c-.1-.31-.15-.63-.15-.92,0-1.17.82-1.64,1.83-1.06Z"/>
      <path class="cls-2" d="M14.91,14.93c.1.08.19.14.3.2.39.23.74.27.98.13.25-.14.38-.47.38-.92,0-1.05-.76-2.38-1.68-2.91h0c-.39-.23-.74-.27-.99-.13-.24.14-.38.47-.38.92,0,.14.02.29.04.45l.57-.33c.15-.22.38-.34.67-.31.13.01.26.06.4.14.5.29.89.97.89,1.54,0,.34-.14.61-.37.74l-.81.48h0ZM15.86,15.96c-.3,0-.63-.1-.97-.29-.25-.15-.5-.34-.72-.57-.07-.07-.1-.16-.09-.26,0-.09.07-.18.15-.23l1.18-.69s.06-.09.06-.21c0-.36-.27-.83-.58-1.01-.07-.04-.12-.06-.16-.06-.05,0-.07,0-.09.05-.03.06-.07.11-.13.14l-1,.58c-.09.05-.18.06-.27.02-.09-.03-.16-.11-.18-.2-.11-.35-.17-.69-.17-1.01,0-.68.25-1.2.69-1.45.45-.26,1.02-.21,1.6.13,1.12.64,1.99,2.15,1.99,3.44,0,.68-.24,1.2-.69,1.45-.19.11-.41.17-.64.17Z"/>
      <path class="cls-1" d="M10.75,12.77c.26-.15,1.31-.79,1.54-.86,1.08-.31,2.26,1.14,2.66,2.14.28.7.51,1.96-.27,2.44l-1.34.77c1.06-.67.36-2.6-.35-3.51-.48-.61-1.43-1.41-2.24-.99Z"/>
      <path class="cls-2" d="M11.86,12.47c.53.21,1.02.64,1.37,1.09.57.72,1.06,1.93.94,2.86l.35-.2c.57-.35.4-1.42.15-2.06-.4-.98-1.47-2.2-2.3-1.96-.08.02-.28.13-.51.26h0ZM13.34,17.57c-.11,0-.21-.06-.26-.15-.1-.14-.04-.33.09-.42.21-.13.33-.33.37-.61.13-.73-.3-1.82-.8-2.44-.38-.49-1.22-1.24-1.86-.9-.15.08-.33.02-.41-.12-.09-.15-.03-.33.11-.41l.23-.14c.75-.45,1.19-.7,1.38-.75,1.33-.38,2.63,1.32,3.03,2.32.31.77.57,2.23-.4,2.82l-1.35.78s-.1.04-.15.04Z"/>
      <path class="cls-3" d="M12.05,12.9c1.01.58,1.83,2.01,1.83,3.17s-.83,1.64-1.83,1.06c-.24-.13-.46-.31-.66-.52l1.18-.7c.13-.08.21-.24.21-.47,0-.47-.33-1.04-.73-1.28-.31-.18-.57-.11-.69.13l-1,.58c-.09-.31-.15-.63-.15-.92,0-1.17.82-1.64,1.83-1.06Z"/>
      <path class="cls-2" d="M11.9,16.67c.11.08.2.15.3.2.39.23.75.27.99.13.24-.14.38-.47.38-.92,0-1.05-.77-2.38-1.68-2.91h0c-.39-.22-.74-.27-.99-.13-.24.14-.38.47-.38.92,0,.14.02.3.04.45l.57-.33c.09-.14.22-.24.36-.28.15-.05.39-.07.69.11.51.29.9.96.9,1.54,0,.34-.14.61-.37.74l-.82.48h0ZM12.86,17.69c-.31,0-.63-.1-.97-.29-.25-.14-.5-.34-.72-.57-.07-.07-.1-.16-.09-.26,0-.09.07-.18.15-.23l1.18-.69s.06-.09.06-.21c0-.36-.27-.83-.58-1.01-.09-.06-.17-.07-.2-.06-.03.06-.12.16-.18.19l-1,.58c-.09.05-.18.05-.27.02-.09-.03-.16-.1-.18-.2-.1-.35-.16-.69-.16-1.01,0-.68.25-1.2.69-1.45.44-.26,1.02-.22,1.6.13,1.12.64,1.99,2.15,1.99,3.44,0,.68-.24,1.2-.69,1.45-.18.11-.4.17-.63.17Z"/>
      <path class="cls-3" d="M7.87,14.43c.26-.15,1.31-.79,1.54-.86,1.08-.31,2.26,1.14,2.66,2.14.29.7.51,1.96-.27,2.44l-1.34.77c1.06-.67.36-2.6-.35-3.51-.48-.61-1.43-1.41-2.24-.99Z"/>
      <path class="cls-2" d="M8.98,14.13c.53.21,1.02.64,1.37,1.09.56.72,1.06,1.93.94,2.86l.35-.21c.57-.35.4-1.42.15-2.06-.39-.95-1.46-2.2-2.3-1.95-.08.02-.28.13-.51.26h0ZM10.46,19.23c-.1,0-.21-.05-.26-.15-.09-.14-.04-.33.1-.42.21-.13.33-.33.37-.61.13-.73-.3-1.82-.8-2.44-.38-.49-1.22-1.24-1.86-.9-.15.08-.33.02-.42-.12-.08-.15-.03-.33.12-.41l.24-.14c.75-.45,1.19-.7,1.37-.75,1.33-.39,2.63,1.32,3.03,2.32.31.77.57,2.23-.39,2.82l-1.35.78s-.1.04-.15.04Z"/>
      <path class="cls-4" d="M9.16,14.56c1.01.58,1.83,2.01,1.83,3.18s-.83,1.64-1.83,1.06c-.24-.13-.46-.31-.66-.52l1.18-.69c.13-.08.21-.24.21-.48,0-.47-.33-1.04-.73-1.28-.31-.18-.58-.11-.69.14l-1,.58c-.1-.31-.15-.63-.15-.93,0-1.17.81-1.64,1.83-1.06Z"/>
      <path class="cls-2" d="M9.01,18.32c.11.08.2.14.3.2.39.23.75.27.99.13.25-.14.38-.47.38-.92,0-1.05-.76-2.38-1.68-2.91h0c-.39-.23-.74-.27-.99-.13-.24.14-.38.47-.38.92,0,.15.02.3.04.46l.57-.33c.09-.14.21-.25.36-.3.21-.07.47-.04.71.1.5.29.89.96.89,1.54,0,.34-.14.61-.37.74l-.82.48h0ZM9.98,19.35c-.3,0-.63-.1-.97-.29-.25-.14-.5-.34-.72-.57-.07-.07-.1-.16-.09-.26,0-.09.07-.18.15-.23l1.18-.69s.06-.09.06-.21c0-.36-.27-.83-.58-1.01-.1-.06-.18-.07-.2-.06-.03.06-.12.17-.18.2l-.99.57c-.09.05-.18.05-.27.02-.09-.04-.16-.11-.18-.2-.11-.35-.17-.7-.17-1.02,0-.68.24-1.19.69-1.45.44-.26,1.02-.21,1.6.13h0c1.12.64,1.99,2.16,1.99,3.45,0,.68-.24,1.19-.69,1.45-.19.11-.41.17-.63.17Z"/>
      <path class="cls-3" d="M16.69,17.43c.27-.15,1.32-.79,1.55-.86,1.08-.31,2.26,1.14,2.66,2.14.29.7.51,1.96-.27,2.44l-1.34.78c1.05-.67.37-2.6-.35-3.51-.48-.61-1.43-1.41-2.25-.99Z"/>
      <path class="cls-2" d="M17.81,17.13c.53.21,1.02.65,1.38,1.1.56.72,1.06,1.93.93,2.86l.36-.2c.62-.37.36-1.51.14-2.06-.39-.98-1.46-2.2-2.29-1.95-.07.02-.27.13-.51.26h0ZM19.28,22.23c-.1,0-.21-.05-.27-.15-.09-.14-.04-.33.1-.42.2-.13.33-.33.38-.61.13-.73-.3-1.82-.8-2.44-.38-.5-1.22-1.24-1.86-.9-.15.08-.33.02-.42-.13-.08-.15-.02-.33.12-.41l.24-.14c.75-.44,1.18-.69,1.37-.74,1.34-.38,2.63,1.32,3.03,2.32.31.77.58,2.23-.4,2.82l-1.35.78s-.1.04-.15.04Z"/>
      <path class="cls-4" d="M17.99,17.56c1.01.58,1.83,2.01,1.83,3.17s-.82,1.65-1.83,1.06c-.24-.13-.46-.31-.66-.52l1.17-.69c.14-.08.22-.24.22-.48,0-.47-.33-1.04-.73-1.28-.1-.06-.2-.09-.28-.1h0c-.18-.02-.32.07-.4.23l-1,.58c-.1-.31-.15-.63-.15-.92,0-1.17.82-1.64,1.83-1.06Z"/>
      <path class="cls-2" d="M17.84,21.33c.09.08.2.14.3.2.39.22.75.27.99.13.24-.14.38-.47.38-.92,0-1.05-.77-2.38-1.68-2.91-.39-.23-.74-.27-.99-.13-.24.14-.38.47-.38.92,0,.14.02.29.04.45l.57-.33c.14-.23.39-.34.66-.31.13.01.27.06.4.14.5.29.89.97.89,1.54,0,.34-.14.61-.37.74l-.81.48h0ZM18.81,22.36c-.3,0-.63-.1-.98-.29-.25-.15-.5-.34-.73-.57-.06-.07-.1-.16-.08-.26,0-.09.06-.18.15-.23l1.17-.69s.07-.09.07-.21c0-.36-.27-.83-.59-1.01-.08-.04-.13-.06-.15-.06-.05,0-.07,0-.1.05-.03.06-.07.11-.12.14l-1.01.58c-.08.05-.18.05-.26.02-.09-.03-.16-.11-.18-.2-.11-.35-.17-.69-.17-1.01,0-.68.24-1.2.69-1.45.44-.26,1.02-.21,1.6.13h0c1.11.64,1.99,2.15,1.99,3.44,0,.68-.24,1.2-.69,1.45-.19.11-.4.17-.63.17Z"/>
      <path class="cls-3" d="M13.75,19.13c.27-.15,1.32-.79,1.55-.86,1.08-.31,2.26,1.14,2.66,2.14.29.7.51,1.96-.27,2.44l-1.34.77c1.06-.67.36-2.6-.35-3.51-.48-.61-1.43-1.41-2.25-.99Z"/>
      <path class="cls-2" d="M14.87,18.83c.53.21,1.03.65,1.37,1.09.57.73,1.06,1.93.93,2.86l.37-.21c.56-.35.39-1.42.13-2.06-.38-.95-1.47-2.19-2.28-1.96-.08.02-.28.13-.51.26h0ZM16.35,23.93c-.1,0-.21-.05-.26-.15-.09-.14-.04-.33.1-.42.21-.13.33-.33.37-.61.13-.73-.3-1.82-.8-2.44-.38-.49-1.21-1.24-1.86-.9-.15.08-.33.02-.42-.13-.08-.15-.03-.33.12-.41l.24-.15c.75-.44,1.18-.69,1.37-.74,1.33-.39,2.63,1.32,3.03,2.32.31.77.57,2.23-.39,2.82l-1.35.78s-.1.04-.15.04Z"/>
      <path class="cls-4" d="M15.05,19.26c1.01.59,1.83,2.01,1.83,3.17s-.82,1.65-1.83,1.06c-.24-.14-.46-.31-.66-.52l1.18-.69c.13-.08.21-.24.21-.48,0-.47-.33-1.04-.73-1.27-.1-.06-.19-.09-.28-.1h0c-.18-.02-.33.07-.41.23l-1,.58c-.09-.31-.15-.63-.15-.92,0-1.17.82-1.64,1.83-1.06Z"/>
      <path class="cls-2" d="M14.91,23.02c.1.08.2.14.3.2.39.23.75.27.99.13.25-.14.38-.47.38-.92,0-1.05-.76-2.38-1.68-2.91h0c-.39-.22-.74-.27-.99-.13-.24.14-.38.47-.38.92,0,.14.02.3.04.45l.57-.33c.14-.23.38-.35.66-.32.14.02.27.06.4.14.51.29.9.97.9,1.54,0,.34-.14.61-.37.74l-.82.48h0ZM15.87,24.05c-.31,0-.64-.1-.97-.29-.25-.15-.5-.34-.72-.57-.07-.07-.11-.16-.09-.25.01-.09.07-.18.15-.22l1.18-.7s.06-.09.06-.21c0-.36-.27-.83-.58-1.01-.06-.03-.11-.05-.16-.06-.04,0-.07,0-.09.05-.03.06-.07.11-.12.14l-1,.58c-.09.05-.18.06-.27.02-.09-.03-.16-.11-.18-.2-.1-.35-.17-.69-.17-1.01,0-.68.24-1.2.69-1.45.45-.26,1.02-.21,1.6.13,1.12.64,1.99,2.15,1.99,3.44,0,.68-.24,1.2-.69,1.45-.19.11-.41.17-.63.17Z"/>
      <path class="cls-1" d="M10.75,20.86c.27-.16,1.32-.79,1.55-.86,1.08-.31,2.26,1.14,2.66,2.14.29.7.51,1.96-.27,2.44l-1.34.78c1.05-.67.37-2.6-.35-3.51-.48-.61-1.42-1.41-2.25-.98Z"/>
      <path class="cls-2" d="M11.87,20.56c.53.21,1.02.65,1.38,1.09.56.73,1.06,1.93.93,2.86l.36-.21c.57-.34.4-1.42.14-2.06-.39-.97-1.45-2.2-2.3-1.95-.07.02-.27.13-.51.26h0ZM13.35,25.66c-.1,0-.21-.05-.27-.15-.09-.14-.04-.33.1-.42.2-.13.33-.33.37-.61.13-.73-.3-1.82-.8-2.44-.39-.5-1.22-1.24-1.86-.9-.15.08-.33.02-.42-.13-.08-.15-.03-.33.12-.41l.24-.14c.75-.45,1.19-.7,1.37-.75,1.33-.38,2.63,1.32,3.03,2.32.31.77.57,2.23-.4,2.82l-1.35.78s-.1.04-.15.04Z"/>
      <path class="cls-3" d="M12.05,20.99c1.02.58,1.83,2.01,1.83,3.18s-.82,1.64-1.83,1.06c-.23-.13-.45-.31-.65-.52l1.17-.69c.14-.08.22-.24.22-.48,0-.47-.33-1.04-.74-1.28-.3-.18-.57-.11-.68.13l-1,.58c-.1-.31-.15-.62-.15-.92,0-1.17.82-1.64,1.83-1.06Z"/>
      <path class="cls-2" d="M11.91,24.76c.09.08.2.14.3.2.39.23.75.27.99.13.24-.14.38-.47.38-.92,0-1.05-.78-2.38-1.68-2.91h0c-.39-.22-.74-.27-.99-.13-.24.14-.38.47-.38.92,0,.15.02.3.04.45l.57-.33c.09-.14.21-.24.36-.29.16-.05.4-.07.7.11.5.29.89.97.89,1.54,0,.34-.14.61-.37.74l-.82.48h0ZM12.87,25.78c-.3,0-.63-.1-.97-.29-.25-.14-.5-.34-.73-.57-.06-.07-.1-.16-.08-.26,0-.09.06-.18.15-.22l1.17-.69s.07-.09.07-.21c0-.36-.28-.83-.58-1.01-.1-.06-.17-.07-.21-.06-.03.06-.11.16-.17.19l-1.01.58c-.08.05-.17.06-.26.02-.09-.03-.16-.11-.18-.2-.11-.35-.17-.69-.17-1.01,0-.68.24-1.19.69-1.45.44-.26,1.01-.21,1.6.13,1.11.64,1.99,2.16,1.99,3.44,0,.68-.24,1.2-.7,1.45-.19.11-.4.17-.63.17Z"/>
      <path class="cls-3" d="M7.87,22.52c.27-.16,1.32-.79,1.55-.86,1.08-.31,2.26,1.14,2.66,2.14.29.7.51,1.96-.27,2.44l-1.34.78c1.06-.67.36-2.6-.35-3.51-.48-.61-1.43-1.41-2.25-.98Z"/>
      <path class="cls-2" d="M8.99,22.22c.53.21,1.02.65,1.37,1.09.57.72,1.06,1.93.93,2.86l.36-.21c.57-.35.4-1.42.14-2.05-.39-.95-1.46-2.19-2.3-1.96-.07.02-.27.13-.5.26h0ZM10.46,27.32c-.1,0-.21-.06-.27-.15-.09-.14-.04-.33.1-.42.2-.13.33-.33.37-.61.13-.73-.3-1.82-.8-2.45-.38-.5-1.22-1.24-1.86-.9-.15.08-.33.02-.42-.12-.08-.15-.02-.33.12-.42l.23-.14c.75-.45,1.19-.7,1.37-.75,1.33-.38,2.64,1.32,3.03,2.32.31.77.57,2.23-.4,2.82l-1.35.78s-.09.04-.15.04Z"/>
      <path class="cls-4" d="M9.17,22.65c1.01.58,1.83,2.01,1.83,3.18s-.82,1.64-1.83,1.06c-.24-.13-.46-.31-.66-.52l1.17-.69c.14-.08.22-.24.22-.48,0-.47-.33-1.04-.73-1.27-.31-.18-.58-.11-.69.14l-1,.58c-.09-.31-.15-.63-.15-.93,0-1.17.81-1.64,1.83-1.06Z"/>
      <path class="cls-2" d="M9.02,26.41c.1.08.2.14.3.2.39.23.75.27.99.13.24-.14.38-.47.38-.92,0-1.05-.76-2.38-1.68-2.91-.39-.23-.75-.27-.99-.13-.24.14-.38.47-.38.92,0,.15.02.3.04.46l.56-.32c.09-.14.21-.25.37-.3.21-.07.46-.03.7.11.51.29.9.96.9,1.54,0,.34-.14.61-.37.74l-.82.48h0ZM9.99,27.44c-.31,0-.64-.1-.98-.3-.25-.14-.5-.34-.73-.57-.06-.07-.09-.17-.08-.26.01-.09.06-.18.15-.22l1.17-.69s.07-.09.07-.21c0-.36-.27-.83-.58-1.01-.11-.06-.17-.07-.21-.06-.03.06-.11.17-.17.2l-.99.57c-.09.05-.18.05-.27.02-.09-.03-.16-.1-.18-.19-.1-.35-.17-.7-.17-1.02,0-.68.24-1.2.7-1.45.44-.26,1.02-.21,1.6.13,1.11.64,1.99,2.16,1.99,3.44,0,.68-.24,1.19-.7,1.45-.18.11-.4.17-.62.17Z"/>
      <path class="cls-3" d="M16.69,25.54c.27-.15,1.32-.8,1.55-.86,1.08-.31,2.26,1.14,2.66,2.14.29.7.51,1.96-.27,2.44l-1.34.77c1.05-.67.37-2.6-.35-3.51-.48-.61-1.43-1.41-2.25-.98Z"/>
      <path class="cls-2" d="M17.81,25.24c.53.21,1.02.65,1.38,1.1.56.72,1.06,1.93.93,2.86l.36-.21c.57-.34.4-1.42.14-2.06-.39-.98-1.46-2.2-2.29-1.95-.07.02-.27.13-.51.26h0ZM19.28,30.34c-.1,0-.21-.05-.27-.15-.09-.14-.04-.33.1-.42.2-.13.33-.33.38-.61.13-.73-.3-1.82-.8-2.45-.39-.49-1.22-1.23-1.86-.9-.15.08-.33.02-.42-.13-.08-.15-.02-.33.12-.41l.23-.14c.75-.45,1.19-.7,1.38-.75,1.34-.38,2.63,1.32,3.03,2.32.31.77.58,2.23-.4,2.82l-1.35.77s-.1.04-.15.04Z"/>
      <path class="cls-4" d="M17.99,25.67c1.01.58,1.83,2.01,1.83,3.18s-.82,1.64-1.83,1.06c-.24-.14-.46-.31-.66-.52l1.17-.69c.14-.08.22-.24.22-.48,0-.47-.33-1.04-.73-1.28-.1-.06-.2-.09-.28-.1h0c-.18-.02-.32.07-.4.23l-1,.58c-.1-.31-.15-.62-.15-.92,0-1.17.82-1.64,1.83-1.06Z"/>
      <path class="cls-2" d="M17.84,29.43c.09.08.2.14.3.2.39.23.75.27.99.13.24-.14.38-.47.38-.92,0-1.05-.77-2.38-1.68-2.91-.39-.23-.74-.27-.99-.13-.24.14-.38.47-.38.92,0,.14.02.3.04.45l.57-.33c.14-.23.39-.34.66-.31.13.01.27.06.4.14.5.29.89.96.89,1.54,0,.33-.14.61-.37.74l-.81.48h0ZM18.81,30.46c-.3,0-.63-.1-.98-.29-.25-.14-.5-.34-.73-.57-.06-.07-.1-.16-.08-.26,0-.09.06-.18.15-.22l1.17-.69s.07-.09.07-.21c0-.36-.27-.83-.59-1.01-.08-.04-.13-.06-.15-.06-.05,0-.07,0-.1.05-.03.06-.07.11-.12.14l-1.01.58c-.08.05-.18.05-.26.02-.09-.03-.16-.11-.18-.2-.11-.35-.17-.69-.17-1.01,0-.68.24-1.19.69-1.45.44-.26,1.02-.21,1.6.13h0c1.11.64,1.99,2.16,1.99,3.44,0,.68-.24,1.19-.69,1.45-.19.11-.4.17-.63.17Z"/>
      <path class="cls-3" d="M13.75,27.23c.27-.16,1.32-.79,1.55-.86,1.08-.31,2.26,1.14,2.66,2.14.29.7.51,1.96-.27,2.44l-1.34.77c1.06-.67.36-2.6-.35-3.51-.48-.61-1.43-1.41-2.25-.99Z"/>
      <path class="cls-2" d="M14.87,26.93c.53.21,1.03.64,1.37,1.09.57.73,1.06,1.93.94,2.86l.36-.2c.56-.35.39-1.42.13-2.06-.38-.96-1.47-2.19-2.28-1.96-.08.02-.28.14-.51.26h0ZM16.35,32.03c-.1,0-.21-.05-.26-.15-.09-.14-.04-.33.1-.42.21-.13.33-.33.37-.61.13-.73-.3-1.82-.8-2.45-.38-.49-1.21-1.24-1.86-.9-.15.08-.33.02-.42-.13-.08-.15-.03-.33.12-.42l.24-.14c.75-.44,1.18-.69,1.37-.74,1.33-.38,2.63,1.32,3.03,2.32.31.77.57,2.23-.39,2.82l-1.35.78s-.1.04-.15.04Z"/>
      <path class="cls-4" d="M15.05,27.36c1.01.59,1.83,2.01,1.83,3.17s-.82,1.64-1.83,1.06c-.24-.13-.46-.31-.66-.52l1.18-.69c.13-.08.21-.24.21-.48,0-.47-.33-1.04-.73-1.28-.1-.06-.19-.09-.28-.1h0c-.18-.02-.33.06-.41.23l-1,.58c-.09-.31-.15-.62-.15-.92,0-1.17.82-1.64,1.83-1.06Z"/>
      <path class="cls-2" d="M14.91,31.13c.1.08.2.14.3.2.39.23.75.27.99.13.25-.14.38-.47.38-.92,0-1.05-.76-2.38-1.68-2.91-.39-.23-.74-.27-.99-.13-.24.14-.38.47-.38.92,0,.14.02.3.04.45l.57-.33c.14-.23.38-.34.66-.32.14.02.27.06.4.14.51.29.9.97.9,1.54,0,.34-.14.61-.37.74l-.82.48h0ZM15.87,32.15c-.31,0-.64-.1-.97-.29-.25-.14-.5-.34-.72-.57-.07-.07-.11-.16-.09-.26.01-.09.07-.18.15-.22l1.18-.7s.06-.09.06-.21c0-.36-.27-.83-.58-1.01-.06-.03-.11-.05-.16-.06-.05,0-.07,0-.09.05-.03.06-.07.11-.12.14l-1,.58c-.09.05-.18.05-.27.02-.09-.03-.16-.11-.18-.2-.1-.35-.17-.69-.17-1.01,0-.68.24-1.19.69-1.45.45-.26,1.02-.21,1.6.13,1.12.64,1.99,2.16,1.99,3.44,0,.68-.24,1.2-.69,1.45-.19.11-.41.17-.63.17Z"/>
      <path class="cls-1" d="M8.81,30.08c.26-.15,1.31-.8,1.54-.86,1.08-.31,2.26,1.14,2.66,2.14.29.7.51,1.96-.27,2.44l-1.34.77c1.06-.67.37-2.6-.35-3.51-.48-.61-1.43-1.41-2.24-.98Z"/>
      <path class="cls-2" d="M9.92,29.78c.53.21,1.03.64,1.38,1.09.56.73,1.06,1.93.93,2.86l.36-.21c.57-.35.4-1.42.14-2.06-.38-.95-1.46-2.2-2.29-1.96-.08.02-.28.13-.51.27h0ZM11.4,34.88c-.1,0-.21-.05-.27-.15-.09-.14-.04-.33.1-.42.21-.13.33-.33.37-.61.13-.73-.3-1.82-.8-2.44-.38-.49-1.22-1.23-1.86-.9-.15.08-.33.02-.42-.13-.08-.15-.03-.33.12-.41l.23-.14c.75-.45,1.19-.7,1.38-.75,1.34-.38,2.63,1.32,3.03,2.32.31.77.58,2.22-.39,2.81l-1.35.78s-.1.04-.15.04Z"/>
      <path class="cls-3" d="M10.11,30.2c1.01.59,1.83,2.01,1.83,3.18s-.83,1.64-1.83,1.06c-.23-.13-.46-.31-.66-.52l1.18-.7c.13-.08.21-.24.21-.47,0-.47-.33-1.04-.73-1.28-.31-.18-.57-.11-.69.13l-1,.58c-.1-.31-.15-.62-.15-.92,0-1.17.82-1.64,1.83-1.06Z"/>
      <path class="cls-2" d="M9.96,33.97c.1.08.2.14.3.2.39.23.75.27.99.13.25-.14.38-.47.38-.92,0-1.05-.76-2.38-1.68-2.91h0c-.39-.23-.74-.27-.99-.13-.24.14-.38.47-.38.92,0,.14.02.3.05.45l.57-.33c.09-.14.22-.24.36-.29.15-.05.39-.07.7.11.5.29.89.97.89,1.54,0,.33-.14.61-.37.74l-.81.48h0ZM10.93,35c-.3,0-.64-.1-.97-.29-.25-.14-.5-.34-.72-.57-.07-.07-.11-.16-.09-.26,0-.09.07-.18.15-.23l1.18-.69s.06-.09.06-.21c0-.36-.27-.83-.58-1.01-.11-.06-.18-.07-.2-.06-.03.06-.12.16-.17.19l-1.01.58c-.08.05-.18.06-.26.02-.09-.04-.16-.11-.18-.2-.11-.35-.17-.69-.17-1.01,0-.68.24-1.2.69-1.45.44-.26,1.02-.21,1.6.13h0c1.12.64,1.99,2.16,1.99,3.44,0,.68-.24,1.19-.69,1.45-.19.11-.41.16-.63.16Z"/>
      <path class="cls-3" d="M5.93,31.73c.26-.15,1.31-.8,1.54-.86,1.08-.31,2.26,1.14,2.66,2.14.29.7.51,1.96-.27,2.44l-1.34.78c1.06-.67.36-2.6-.35-3.51-.48-.61-1.43-1.41-2.24-.98Z"/>
      <path class="cls-2" d="M7.04,31.43c.53.21,1.03.65,1.37,1.1.57.72,1.06,1.93.94,2.86l.36-.21c.56-.35.39-1.42.14-2.05-.39-.96-1.48-2.19-2.3-1.96-.08.02-.28.13-.51.26h0ZM8.52,36.53c-.11,0-.21-.05-.26-.15-.09-.14-.04-.33.1-.42.21-.13.33-.33.37-.61.13-.73-.3-1.82-.8-2.44-.38-.5-1.22-1.24-1.86-.9-.15.07-.33.02-.41-.13-.09-.15-.03-.33.11-.41l.24-.14c.75-.44,1.19-.69,1.37-.75,1.33-.39,2.64,1.32,3.03,2.32.31.77.58,2.23-.39,2.81l-1.35.78c-.05.03-.1.04-.16.04Z"/>
      <path class="cls-4" d="M7.22,31.86c1.01.58,1.83,2.01,1.83,3.18s-.83,1.64-1.83,1.06c-.24-.14-.46-.31-.66-.52l1.18-.69c.13-.08.21-.24.21-.48,0-.47-.33-1.04-.73-1.28-.31-.18-.58-.11-.69.15l-1,.57c-.09-.31-.15-.63-.15-.93,0-1.17.81-1.64,1.83-1.06Z"/>
      <path class="cls-2" d="M7.07,35.63c.11.08.2.14.3.2.4.22.75.27.99.13.25-.14.38-.47.38-.92,0-1.05-.77-2.38-1.68-2.91h0c-.39-.23-.74-.27-.99-.13-.24.14-.38.47-.38.92,0,.15.02.3.05.46l.56-.32c.09-.14.21-.25.36-.3.22-.07.46-.04.71.1.5.29.9.97.9,1.54,0,.34-.14.61-.37.74l-.82.48h0ZM8.04,36.66c-.3,0-.63-.1-.97-.29-.25-.14-.5-.34-.72-.57-.07-.07-.1-.16-.09-.26.01-.09.07-.18.15-.22l1.18-.69s.06-.09.06-.21c0-.36-.27-.83-.58-1.01-.1-.06-.17-.07-.2-.06-.03.06-.12.17-.18.2l-.99.57c-.09.05-.18.05-.27.02-.09-.03-.16-.11-.18-.2-.11-.35-.16-.7-.16-1.02,0-.68.25-1.19.69-1.45.45-.26,1.02-.21,1.6.13,1.12.64,1.99,2.16,1.99,3.44,0,.68-.24,1.19-.69,1.45-.19.11-.41.16-.64.16Z"/>
    </g>
  </g>
</svg>