<?xml version="1.0" encoding="UTF-8"?>
<svg id="Layer_2" data-name="Layer 2" xmlns="http://www.w3.org/2000/svg" viewBox="0 0 29.77 40.93" fill="currentColor">
  <defs>
    <style>
      .cls-1 {
        fill: #fff;
      }

      .cls-1, .cls-2, .cls-3, .cls-4 {
        fill-rule: evenodd;
      }

      .cls-2 {
        fill: #1a87c7;
      }

      .cls-3 {
        fill: #bdedf8;
      }

      .cls-4 {
        fill: #66ceef;
      }
    </style>
  </defs>
  <g id="_Layer_" data-name="&amp;lt;Layer&amp;gt;">
    <g>
      <polygon class="cls-3" points="1.63 34.1 .31 33.33 27.52 17.63 28.84 18.38 1.63 34.1"/>
      <path class="cls-2" d="M.92,33.33l.71.41,26.59-15.36-.7-.4L.92,33.33h0ZM1.63,34.4c-.05,0-.11-.02-.16-.04l-1.32-.76c-.1-.05-.16-.16-.16-.26s.06-.21.16-.27l27.21-15.71c.09-.05.21-.05.3,0l1.32.76c.1.05.16.16.16.26,0,.12-.06.22-.16.27L1.78,34.36s-.09.04-.15.04Z"/>
      <polygon class="cls-4" points="1.63 37.24 .3 36.47 .31 33.33 1.63 34.1 1.63 37.24"/>
      <path class="cls-2" d="M.62,36.3l.7.41v-2.43l-.7-.41v2.43h0ZM1.63,37.54c-.06,0-.11,0-.16-.03l-1.32-.76c-.1-.06-.16-.16-.16-.27v-3.14c0-.11.06-.21.16-.27.09-.05.21-.05.3,0l1.32.77c.1.05.16.15.16.27v3.14c0,.11-.06.21-.16.27-.04.03-.09.03-.15.03Z"/>
      <polygon class="cls-3" points="1.63 20.69 .31 19.92 27.44 4.22 28.76 4.98 1.63 20.69"/>
      <path class="cls-2" d="M.93,19.92l.7.41L28.15,4.98l-.7-.41L.93,19.92h0ZM1.63,20.99c-.05,0-.11-.01-.15-.04l-1.33-.77c-.1-.06-.15-.15-.15-.27s.05-.21.15-.27L27.28,3.95c.09-.05.21-.05.31,0l1.32.76c.1.05.15.16.15.27,0,.1-.05.21-.15.26L1.79,20.95s-.1.04-.16.04Z"/>
      <polygon class="cls-4" points="1.63 23.82 .31 23.06 .31 19.92 1.63 20.69 1.63 23.82"/>
      <path class="cls-2" d="M.62,22.89l.71.41v-2.43l-.7-.41v2.43h0ZM1.63,24.14c-.05,0-.11-.02-.16-.04l-1.32-.76c-.1-.05-.15-.16-.15-.27v-3.14c0-.11.05-.21.15-.27.09-.05.22-.05.31,0l1.32.76c.09.06.15.16.15.27v3.14c0,.11-.06.22-.15.27-.05.03-.1.04-.16.04Z"/>
      <polygon class="cls-3" points="1.63 20.69 28.76 4.98 28.76 8.12 1.63 23.82 1.63 20.69"/>
      <path class="cls-2" d="M1.95,20.86v2.43L28.45,7.94v-2.43L1.95,20.86h0ZM1.63,24.14c-.05,0-.11-.02-.16-.04-.09-.06-.15-.16-.15-.27v-3.14c0-.12.06-.21.16-.27L28.6,4.71c.1-.05.22-.05.3,0,.11.05.16.16.16.27v3.14c0,.12-.06.21-.16.27L1.79,24.09c-.05.03-.1.04-.16.04Z"/>
      <polygon class="cls-3" points="1.63 34.1 28.84 18.38 28.84 21.53 1.63 37.24 1.63 34.1"/>
      <path class="cls-2" d="M1.94,34.27v2.43l26.59-15.36v-2.42L1.94,34.27h0ZM1.63,37.54c-.06,0-.11,0-.16-.03-.09-.06-.15-.16-.15-.27v-3.14c0-.11.06-.22.15-.27l27.2-15.71c.09-.06.21-.06.32,0,.09.05.15.16.15.26v3.15c0,.11-.06.21-.16.27L1.78,37.5s-.09.03-.15.03Z"/>
      <path class="cls-4" d="M9.14,12.19c-2.63-1.52-2.96-2.66-4.83,1.83-1.52,3.65-1.08,5.02-1.09,9.33,0,1.86-.17,14.83.15,15.49.25.53,1.74,1.23,2.49,1.66-.82-.68-.55-2.81-.55-4.4,0-2.74-.21-16.8.19-18.31.28-1.04,1.9-5.93,3.17-5.77l.47.17Z"/>
      <path class="cls-2" d="M6.55,11.16c-.05,0-.1,0-.16.02-.46.15-.98,1.01-1.8,2.96-1.19,2.85-1.16,4.29-1.1,6.91.02.67.03,1.43.03,2.29,0,.32,0,.98-.02,1.85-.03,3.51-.1,12.84.13,13.52.13.26.85.69,1.45,1.02-.18-.74-.15-1.71-.12-2.66.01-.34.03-.67.03-.97,0-.53,0-1.47-.02-2.65-.06-7-.1-14.57.21-15.73.01-.06,1.34-4.8,2.86-5.81-.03-.02-.05-.04-.08-.05-.63-.4-1.09-.69-1.43-.69h0ZM5.86,40.8c-.05,0-.1,0-.15-.04-.16-.09-.35-.19-.55-.3-1.04-.56-1.84-1.02-2.06-1.5-.22-.44-.26-4.17-.18-13.77,0-.87,0-1.53,0-1.85,0-.86-.02-1.61-.03-2.29-.06-2.69-.1-4.19,1.14-7.16.94-2.25,1.49-3.09,2.18-3.3.63-.21,1.25.19,2.1.73.29.19.61.39.98.61.14.08.19.25.12.4-.07.14-.23.21-.38.16l-.47-.18h-.03c-.75,0-2.23,3.62-2.75,5.56-.31,1.18-.24,10.9-.2,15.57.02,1.19.02,2.13.02,2.66,0,.31,0,.65-.02.99-.04,1.28-.09,2.72.45,3.16.12.1.15.28.06.42-.06.09-.15.13-.25.13Z"/>
      <path class="cls-4" d="M14.88,6.03c-1.21,1.71-2.51,4.83-2.51,6.93,0,2.35-.2,19.9.14,20.61.25.53,1.74,1.23,2.49,1.66-.83-.68-.55-2.82-.55-4.42,0-2.73-.21-16.78.19-18.3.28-1.03,1.89-5.92,3.17-5.76l.47.17c-2.27-1.3-2.57-1.83-3.4-.9Z"/>
      <path class="cls-2" d="M15.12,6.22c-1.18,1.68-2.45,4.72-2.45,6.74,0,.41,0,1.27-.02,2.43-.02,4.72-.12,17.28.13,18.06.13.26.86.69,1.45,1.02-.18-.75-.15-1.72-.12-2.67,0-.34.03-.67.03-.98,0-.52-.01-1.46-.02-2.64-.06-7-.09-14.57.22-15.73,0-.05,1.33-4.77,2.85-5.8-.06-.03-.11-.07-.17-.1-1.35-.82-1.43-.84-1.9-.31h0ZM14.99,35.53c-.05,0-.1-.02-.16-.04-.16-.09-.35-.19-.55-.3-1.03-.56-1.84-1.02-2.06-1.49-.22-.47-.28-5.61-.18-18.32.01-1.15.01-2.01.01-2.42,0-2.16,1.31-5.32,2.57-7.1,0,0,.02-.02.02-.03.84-.96,1.38-.63,2.7.17.3.19.67.41,1.1.66.14.08.19.25.12.39-.07.15-.23.21-.38.15l-.47-.17h-.03c-.74,0-2.22,3.63-2.75,5.56-.31,1.17-.24,10.89-.19,15.56,0,1.19,0,2.13,0,2.65,0,.32,0,.66-.02,1-.04,1.28-.09,2.73.45,3.17.12.1.15.29.06.42-.06.09-.16.13-.25.13Z"/>
      <path class="cls-4" d="M24.13,29.95c-.83-.67-.55-2.82-.55-4.41,0-2.73-.22-16.78.19-18.3.28-1.03,1.89-5.92,3.17-5.76l.47.17c-2.63-1.52-2.96-2.68-4.83,1.83-1.52,3.64-1.08,5.02-1.08,9.33,0,1.85-.17,14.81.15,15.48.25.53,1.74,1.23,2.49,1.65Z"/>
      <path class="cls-2" d="M24.82.62c-.05,0-.11.01-.16.02-.46.15-.98,1.01-1.8,2.96-1.19,2.85-1.16,4.29-1.1,6.92.02.68.04,1.43.04,2.3,0,.32,0,.98-.02,1.85-.03,3.5-.09,12.82.13,13.51.13.26.86.69,1.45,1.02-.18-.75-.16-1.72-.12-2.67,0-.34.02-.67.02-.98,0-.53,0-1.48,0-2.69-.06-6.98-.1-14.53.22-15.69,0-.05,1.34-4.8,2.86-5.81-.03-.03-.06-.04-.09-.06-.63-.4-1.08-.69-1.43-.69h0ZM24.13,30.26c-.05,0-.11-.02-.16-.04-.16-.09-.35-.19-.55-.3-1.03-.56-1.84-1.02-2.06-1.49-.22-.45-.26-4.18-.18-13.77,0-.87,0-1.52,0-1.84,0-.87-.02-1.62-.03-2.29-.06-2.7-.09-4.2,1.15-7.16.94-2.26,1.5-3.09,2.18-3.31.64-.2,1.24.19,2.09.73.29.18.62.4.99.61.14.09.19.26.12.4-.07.15-.24.22-.38.16l-.47-.18c-.76-.1-2.25,3.6-2.77,5.55-.31,1.18-.23,10.88-.2,15.52.01,1.21.02,2.16.02,2.7,0,.32,0,.66-.02,1.01-.04,1.27-.09,2.72.45,3.16.12.11.15.28.06.42-.06.08-.16.13-.25.13Z"/>
      <path class="cls-1" d="M23.58,28.75c0,1.18.83,1.67,1.86,1.08.72-.42,1.44-.83,2.15-1.24,1.03-.59,1.86-2.04,1.86-3.23,0-6.83,0-13.66,0-20.49,0-.97-1.27-2.96-2.29-3.34-.54-.19-.72-.03-1.11.49-1.05,1.41-2.47,5.21-2.47,6.23,0,6.83,0,13.67,0,20.5Z"/>
      <path class="cls-2" d="M23.58,28.75h0,0ZM26.81,1.76c-.15,0-.25.11-.51.44-1.05,1.43-2.41,5.15-2.41,6.05v20.5h0c0,.45.14.79.39.94.26.15.62.1,1.01-.13l2.15-1.23c.93-.54,1.71-1.89,1.71-2.97V4.88c0-.85-1.18-2.72-2.1-3.05-.1-.03-.17-.06-.24-.06h0ZM24.61,30.39c-.23,0-.45-.05-.64-.16-.45-.26-.71-.78-.71-1.47h0V8.26c0-1.1,1.48-4.98,2.55-6.41.39-.53.71-.87,1.45-.59,1.15.42,2.5,2.54,2.5,3.62v20.49c-.01,1.29-.92,2.85-2.04,3.5l-2.14,1.23c-.34.2-.68.3-.98.3Z"/>
      <path class="cls-1" d="M14.45,34.02c0,1.18.83,1.67,1.86,1.08.71-.42,1.43-.83,2.15-1.23,1.03-.59,1.86-2.04,1.86-3.23.01-6.83.01-13.66.01-20.49,0-1.03-1.46-3.25-2.51-3.39-.35-.04-.47-.01-.87.52-1.05,1.38-2.49,5.23-2.49,6.25,0,6.83,0,13.66,0,20.5Z"/>
      <path class="cls-2" d="M14.75,34.02c0,.46.14.79.39.94.26.15.62.09,1.02-.13l2.14-1.23c.93-.54,1.71-1.89,1.71-2.96V10.14c.01-.91-1.38-2.97-2.24-3.08-.22-.03-.25-.04-.58.4-1.03,1.38-2.42,5.17-2.42,6.07v20.5h-.01ZM15.48,35.66c-.24,0-.45-.06-.64-.18-.45-.26-.7-.78-.7-1.47h0V13.52c.01-1.11,1.49-5.02,2.57-6.44.42-.55.63-.7,1.15-.63,1.29.16,2.79,2.56,2.79,3.69v20.49c0,1.29-.92,2.86-2.03,3.49l-2.14,1.24c-.34.19-.68.3-.98.3Z"/>
      <path class="cls-1" d="M11.18,35.9c0-6.82,0-13.65,0-20.49,0-.96-1.24-2.92-2.26-3.32-.56-.22-.79-.02-1.23.6-1.04,1.5-2.38,5.11-2.38,6.11,0,6.8,0,13.68,0,20.49,0,1.18.84,1.67,1.86,1.08.71-.41,1.44-.82,2.15-1.23,1.02-.59,1.86-2.04,1.86-3.23Z"/>
      <path class="cls-2" d="M11.18,35.9h0,0ZM8.54,12.3c-.15,0-.29.14-.59.57-1.04,1.51-2.33,5.07-2.33,5.94v20.49c-.01.46.13.79.39.94.25.15.61.1,1.01-.13l2.14-1.23c.93-.53,1.71-1.89,1.71-2.96V15.41c.01-.82-1.17-2.69-2.07-3.03-.11-.04-.18-.08-.26-.08h0ZM6.35,40.93c-.24,0-.45-.06-.64-.17-.45-.26-.7-.78-.7-1.47v-20.49c0-1.06,1.37-4.74,2.45-6.29.43-.62.79-1.03,1.59-.71,1.17.46,2.46,2.55,2.46,3.61v20.49h0c0,1.29-.91,2.86-2.03,3.5l-2.14,1.24c-.34.19-.68.3-.98.3Z"/>
    </g>
  </g>
</svg>