<?xml version="1.0" encoding="UTF-8"?>
<svg id="Layer_2" data-name="Layer 2" xmlns="http://www.w3.org/2000/svg" viewBox="0 0 29.41 43.95" fill="currentColor">
  <defs>
    <style>
      .cls-1 {
        fill: #fff;
      }

      .cls-1, .cls-2, .cls-3, .cls-4 {
        fill-rule: evenodd;
      }

      .cls-2 {
        fill: #1a87c7;
      }

      .cls-3 {
        fill: #bdedf8;
      }

      .cls-4 {
        fill: #66ceef;
      }
    </style>
  </defs>
  <g id="_Layer_" data-name="&amp;lt;Layer&amp;gt;">
    <g>
      <polygon class="cls-3" points="29.1 2.78 24.82 .31 .32 14.44 4.6 16.91 29.1 2.78"/>
      <path class="cls-2" d="M.94,14.44l3.66,2.11L28.48,2.78l-3.66-2.11L.94,14.44h0ZM4.6,17.21c-.05,0-.1,0-.15-.03L.17,14.7c-.1-.05-.15-.16-.15-.26,0-.11.06-.22.15-.27L24.67.04c.1-.05.21-.05.31,0l4.28,2.47c.1.05.15.16.15.27s-.06.21-.15.26L4.75,17.18s-.1.03-.16.03Z"/>
      <polygon class="cls-4" points="4.6 16.91 .32 14.44 .31 41.17 4.58 43.64 4.6 16.91"/>
      <path class="cls-2" d="M.62,40.99l3.66,2.11v-26.02s-3.65-2.11-3.65-2.11v26.02h-.01ZM4.58,43.95c-.05,0-.1-.02-.15-.04L.15,41.44c-.09-.05-.15-.15-.15-.27V14.44c.01-.11.07-.22.17-.27.09-.05.21-.05.31,0l4.28,2.47c.09.06.15.15.15.27v26.73c-.01.12-.07.22-.17.27-.05.02-.1.04-.15.04Z"/>
      <polygon class="cls-1" points="29.1 2.78 4.6 16.91 4.58 43.64 29.09 29.5 29.1 2.78"/>
      <path class="cls-2" d="M4.9,17.09v26.02s23.88-13.78,23.88-13.78V3.31S4.9,17.09,4.9,17.09h0ZM4.58,43.95c-.05,0-.1-.02-.15-.04-.09-.05-.15-.16-.15-.27v-26.73c0-.11.07-.22.16-.27L28.95,2.51c.1-.05.21-.05.31,0,.09.05.15.16.15.27v26.73c-.01.11-.07.22-.17.27l-24.5,14.13s-.1.04-.15.04Z"/>
      <polygon class="cls-3" points="16.84 23.21 4.6 16.91 4.58 43.64 16.84 23.21"/>
      <path class="cls-2" d="M4.9,17.42v25.11s11.5-19.19,11.5-19.19l-11.5-5.92h0ZM4.58,43.95s-.06,0-.08,0c-.13-.05-.23-.17-.23-.31v-26.73c0-.11.07-.21.16-.26.09-.06.21-.06.3-.02l12.25,6.3c.08.04.13.1.16.19.02.08.01.17-.03.24l-12.26,20.43c-.06.09-.16.15-.26.15Z"/>
      <polygon class="cls-3" points="29.1 2.78 4.6 16.91 16.84 23.21 29.1 2.78"/>
      <path class="cls-2" d="M5.24,16.89l11.49,5.91L28.22,3.64,5.24,16.89h0ZM16.84,23.51s-.09,0-.14-.03l-12.25-6.3c-.1-.05-.17-.15-.17-.26,0-.11.06-.22.15-.28L28.95,2.51c.12-.07.27-.05.37.05.1.1.11.25.04.37l-12.26,20.43c-.06.09-.16.15-.26.15Z"/>
      <polygon class="cls-1" points="29.09 29.5 4.58 43.64 16.84 23.21 29.09 29.5"/>
      <path class="cls-2" d="M16.96,23.61l-11.5,19.17,22.98-13.25-11.49-5.91h0ZM4.58,43.95c-.08,0-.16-.03-.22-.09-.1-.1-.12-.25-.04-.37l12.26-20.43c.09-.14.26-.18.41-.12l12.25,6.3c.1.05.17.15.17.26,0,.11-.06.23-.15.28l-24.5,14.13s-.1.04-.15.04Z"/>
      <path class="cls-4" d="M26.59,21.95v6.26l-19.49,11.25v-10.33s.21-.3.21-.3c.67-.92,1.58-1.43,2.23-1.25l6.09,1.77c.62.18,1.47-.27,2.14-1.12l4.6-5.9c.69-.89,1.58-1.34,2.2-1.11l2.03.74Z"/>
      <path class="cls-2" d="M7.4,29.23v9.71s18.87-10.89,18.87-10.89v-5.88s-1.82-.66-1.82-.66c-.47-.17-1.25.25-1.84,1.01l-4.6,5.91c-.75.97-1.72,1.45-2.47,1.22l-6.09-1.76c-.52-.16-1.32.32-1.9,1.13l-.15.21h0ZM7.09,39.77c-.06,0-.11,0-.16-.03-.09-.06-.15-.16-.15-.27v-10.33c0-.07.02-.13.06-.18l.21-.3c.75-1.03,1.78-1.59,2.57-1.36l6.09,1.77c.49.15,1.23-.28,1.81-1.02l4.6-5.9c.77-.99,1.8-1.49,2.54-1.21l2.03.73c.12.04.2.17.2.3v6.26c0,.11-.06.22-.16.27l-19.49,11.25s-.1.03-.15.03Z"/>
      <path class="cls-1" d="M26.59,21.95l-2.03-.74c-.62-.23-1.51.22-2.2,1.11l-4.6,5.9c-.67.85-1.52,1.3-2.14,1.12l-6.09-1.77c-.65-.18-1.56.33-2.23,1.25l-.21.3v-10.94S26.59,6.96,26.59,6.96v14.99Z"/>
      <path class="cls-2" d="M9.26,27.25c.13,0,.25.02.37.04l6.09,1.77c.5.15,1.23-.28,1.81-1.02l4.6-5.9c.77-.99,1.8-1.49,2.54-1.21l1.62.58V7.49S7.41,18.38,7.41,18.38v9.85c.57-.62,1.25-.98,1.85-.98h0ZM15.91,29.7c-.13,0-.25-.02-.37-.05l-6.09-1.76c-.52-.16-1.32.32-1.9,1.13l-.21.29c-.08.11-.22.16-.35.11-.13-.03-.21-.16-.21-.29v-10.94c0-.11.06-.21.16-.26L26.44,6.69c.09-.05.21-.05.31,0,.1.05.15.16.15.27v14.99c0,.09-.06.19-.14.25-.08.05-.19.07-.28.03l-2.03-.74c-.47-.17-1.25.25-1.84,1.01l-4.6,5.91c-.63.81-1.42,1.28-2.1,1.28Z"/>
      <path class="cls-3" d="M20.97,11.97c1.75-1.01,3.16-.19,3.16,1.82,0,2.02-1.42,4.48-3.17,5.49-1.75,1.01-3.17.19-3.16-1.83,0-2.02,1.42-4.47,3.17-5.48Z"/>
      <path class="cls-2" d="M20.97,11.97h0,0ZM22.38,11.84c-.38,0-.81.13-1.26.39h0c-1.66.95-3.01,3.3-3.01,5.21,0,.86.27,1.49.77,1.78.5.3,1.18.21,1.93-.22,1.66-.96,3.01-3.29,3.01-5.22,0-.86-.27-1.49-.77-1.78-.2-.11-.42-.17-.67-.17h0ZM19.56,20.02c-.35,0-.69-.09-.98-.25-.7-.41-1.08-1.23-1.08-2.32,0-2.11,1.49-4.7,3.32-5.75h0c.95-.55,1.85-.63,2.55-.22.7.4,1.08,1.23,1.08,2.31,0,2.11-1.49,4.69-3.32,5.75-.55.32-1.08.48-1.57.48Z"/>
    </g>
  </g>
</svg>