<?xml version="1.0" encoding="UTF-8"?>
<svg id="Layer_2" data-name="Layer 2" xmlns="http://www.w3.org/2000/svg" viewBox="0 0 27.46 44.48" fill="currentColor">
  <defs>
    <style>
      .cls-1 {
        fill: #fff;
      }

      .cls-1, .cls-2, .cls-3, .cls-4 {
        fill-rule: evenodd;
      }

      .cls-2 {
        fill: #1a87c7;
      }

      .cls-3 {
        fill: #bdedf8;
      }

      .cls-4 {
        fill: #66ceef;
      }
    </style>
  </defs>
  <g id="_Layer_" data-name="&amp;lt;Layer&amp;gt;">
    <g>
      <path class="cls-4" d="M1.75,35.5v2.34l.07.34c.14.57.43,1.15.77,1.63.97,1.36,2.58,2.36,4.11,3.01,4.42,1.86,10.61,1.82,14.96-.22,1.56-.73,3.2-1.87,4.01-3.43.15-.29.3-.67.38-.98l.07-.34v-2.72c-.05.24-.09.43-.17.66-.23.71-.68,1.38-1.18,1.92-1.55,1.69-4.03,3.06-6.23,3.57-4.03.94-9.1.68-12.81-1.23-1.49-.77-3.02-1.96-3.69-3.53-.08-.18-.18-.47-.22-.66l-.07-.34Z"/>
      <path class="cls-2" d="M2.06,37.22v.63l.06.27c.13.5.39,1.05.72,1.51.8,1.14,2.22,2.16,3.97,2.91,4.41,1.85,10.46,1.76,14.71-.22,1.06-.5,2.98-1.58,3.86-3.29.14-.28.28-.63.35-.92l.07-.32v-.97c-.22.37-.5.75-.81,1.09-1.55,1.68-4.05,3.12-6.39,3.66-4.43,1.02-9.54.53-13.02-1.27-1.17-.61-2.67-1.62-3.53-3.09h0ZM13.93,44.48c-2.58,0-5.16-.46-7.36-1.38-1.86-.78-3.37-1.89-4.24-3.12-.38-.53-.67-1.15-.82-1.73l-.07-.34v-2.41c0-.15.11-.29.27-.3.16-.02.3.09.33.24l.07.33c.04.16.13.43.21.61.7,1.63,2.31,2.74,3.55,3.37,3.35,1.74,8.3,2.21,12.59,1.22,2.22-.51,4.61-1.88,6.07-3.48.51-.56.9-1.2,1.11-1.81.07-.21.11-.39.16-.61.03-.16.18-.28.34-.25.16.02.28.14.28.3v2.72l-.08.4c-.08.34-.24.76-.4,1.07-.97,1.87-3.02,3.04-4.15,3.56-2.28,1.07-5.07,1.61-7.86,1.61Z"/>
      <path class="cls-3" d="M22.53,29.75c-4.77-2.76-12.51-2.76-17.29,0-4.77,2.76-4.78,7.22,0,9.98,4.78,2.76,12.52,2.76,17.3,0,4.78-2.76,4.77-7.22,0-9.98Z"/>
      <path class="cls-2" d="M13.88,27.99c-3.08,0-6.15.68-8.49,2.02-2.21,1.28-3.43,2.96-3.43,4.73s1.22,3.45,3.42,4.73c4.68,2.7,12.3,2.7,16.99,0,2.21-1.28,3.42-2.96,3.42-4.73s-1.22-3.45-3.43-4.73h0c-2.34-1.35-5.42-2.02-8.49-2.02h0ZM13.88,42.1c-3.19,0-6.37-.7-8.8-2.1-2.41-1.39-3.73-3.26-3.73-5.26s1.33-3.87,3.74-5.26c4.85-2.8,12.75-2.8,17.6,0h0c2.41,1.39,3.74,3.26,3.74,5.26,0,2-1.33,3.87-3.73,5.26-2.43,1.4-5.61,2.1-8.8,2.1Z"/>
      <path class="cls-1" d="M3.47,11.26v23.18l.06.29c.15.6.47,1.18.85,1.66,1.1,1.37,2.94,2.28,4.58,2.78,3.39,1.04,7.68.92,10.95-.47,1.29-.55,2.66-1.41,3.48-2.58.29-.41.53-.9.65-1.39l.06-.29V11.26c-.04.2-.08.36-.14.56-.16.49-.45.98-.77,1.38-1.19,1.48-3.24,2.42-5.04,2.91-3.52.94-8.05.71-11.31-.99-1.27-.66-2.56-1.67-3.13-3.02-.07-.16-.15-.41-.19-.57l-.06-.29Z"/>
      <path class="cls-2" d="M3.78,12.88v21.55l.05.23c.13.5.41,1.05.79,1.53,1.23,1.54,3.31,2.34,4.43,2.68,3.42,1.04,7.64.86,10.74-.46,1.48-.62,2.67-1.5,3.35-2.47.28-.4.5-.87.61-1.29l.06-.28V12.87c-.12.18-.24.36-.37.52-1.44,1.8-3.88,2.66-5.2,3.02-3.85,1.03-8.38.63-11.54-1.02-.96-.5-2.18-1.32-2.93-2.51h0ZM13.78,40.15c-1.68,0-3.37-.23-4.9-.69-1.2-.37-3.4-1.22-4.73-2.89-.44-.54-.76-1.17-.91-1.77l-.06-.3V11.26c0-.16.11-.3.27-.31.15,0,.3.09.33.25l.06.28c.04.14.11.37.17.51.58,1.38,1.95,2.32,2.98,2.87,3.03,1.57,7.38,1.95,11.09.96,2.13-.57,3.91-1.59,4.88-2.81.32-.39.58-.85.72-1.28.06-.17.09-.33.13-.5.03-.15.18-.28.34-.26.16.02.28.13.28.3v23.18l-.07.35c-.13.51-.37,1.04-.7,1.51-.74,1.06-2.02,2.01-3.61,2.68-1.84.78-4.05,1.18-6.26,1.18Z"/>
      <path class="cls-4" d="M3.47,30.64l.06.29c.86,3.44,4.88,4.82,8.89,5.03,4.02.21,6.76-.44,9.24-2v-13.38c-5.75,3.87-16.86,2.08-18.14-3.03l-.06-.28v13.38Z"/>
      <path class="cls-2" d="M3.78,30.6l.05.26c.99,3.95,6.35,4.66,8.61,4.78,3.79.2,6.47-.36,8.92-1.86v-12.65c-4.01,2.38-9.76,2.23-13.52.78-1.9-.73-3.29-1.78-4.06-3.02v11.7h0ZM13.88,36.3c-.47,0-.96-.02-1.47-.04-5.06-.27-8.41-2.19-9.18-5.26l-.06-.3s0-.04,0-.06v-13.38c0-.16.12-.29.28-.3.15-.01.3.09.33.24l.06.29c.4,1.59,1.9,2.96,4.23,3.87,3.67,1.41,9.62,1.53,13.43-1.02.1-.06.22-.07.32-.02.1.05.16.16.16.27v13.38c0,.11-.06.2-.14.26-2.28,1.44-4.71,2.09-7.95,2.09Z"/>
      <path class="cls-2" d="M13.97,28.87c-4.31,0-9.78-1.5-10.74-5.34-.04-.16.06-.33.23-.37.17-.04.33.06.37.23.97,3.88,7.54,5.28,11.91,4.78,1.72-.19,3.33-.63,4.64-1.29.15-.08.34-.02.41.14.07.15.01.33-.14.41-1.38.69-3.05,1.16-4.84,1.35-.57.06-1.19.1-1.84.1Z"/>
      <path class="cls-2" d="M13.97,34.45c-4.32,0-9.78-1.5-10.74-5.34l-.06-.3c-.04-.17.07-.33.24-.36.17-.04.33.07.36.23l.06.29c.97,3.87,7.53,5.27,11.91,4.78,1.72-.2,3.32-.64,4.64-1.29.15-.08.34-.01.41.14.07.15.01.34-.14.41-1.38.69-3.05,1.15-4.84,1.36-.57.06-1.2.09-1.84.09Z"/>
      <path class="cls-2" d="M13.97,31.77c-4.31,0-9.78-1.5-10.74-5.35l-.06-.3c-.04-.16.07-.33.24-.36.17-.03.33.08.36.24l.06.29c.97,3.87,7.54,5.27,11.91,4.77,1.72-.19,3.32-.64,4.64-1.3.15-.07.34,0,.41.14.07.15.01.34-.14.42-1.38.69-3.05,1.14-4.84,1.35-.57.07-1.19.1-1.84.1Z"/>
      <path class="cls-1" d="M3.47,21v-1.88l.06.29c1.06,4.25,8.14,5.48,12.24,5.01,1.61-.18,3.29-.6,4.74-1.32v1.88c-5.75,2.85-15.76,1.23-16.99-3.69l-.06-.29Z"/>
      <path class="cls-2" d="M3.78,20.96l.05.26c.45,1.82,2.15,2.94,3.49,3.56,3.75,1.74,9.25,1.73,12.89,0v-1.2c-1.29.57-2.8.96-4.4,1.14-3.95.43-10-.57-12.03-3.94v.17h0ZM13.8,26.69c-2.39,0-4.8-.45-6.74-1.35-2.1-.97-3.42-2.35-3.83-3.99l-.06-.29s0-.04,0-.06v-1.88c0-.16.12-.3.28-.3.15-.02.3.09.33.24l.06.28c.97,3.87,7.53,5.27,11.91,4.78,1.72-.19,3.32-.64,4.64-1.29.1-.04.21-.04.3.02.09.05.15.15.15.26v1.88c0,.12-.07.23-.17.28-1.92.96-4.38,1.43-6.85,1.43Z"/>
      <path class="cls-4" d="M.44,9.29v2.59l.08.37c.19.77.61,1.53,1.11,2.15,1.42,1.77,3.8,2.95,5.93,3.6,4.54,1.37,10.39,1.18,14.71-.85,1.71-.81,3.51-2.08,4.4-3.81.16-.31.33-.75.41-1.09l.08-.37v-2.59c-.06.26-.1.49-.18.74-.26.77-.74,1.52-1.29,2.12-1.57,1.72-4.02,2.83-6.23,3.42-4.4,1.18-9.97.94-14.12-1.02-1.6-.76-3.26-1.9-4.2-3.44-.26-.43-.49-.97-.61-1.45l-.08-.37Z"/>
      <path class="cls-2" d="M.75,11.06v.81l.07.3c.17.67.54,1.39,1.04,2.02,1.61,2,4.31,3.05,5.78,3.5,4.7,1.43,10.39,1.09,14.49-.83,1.17-.56,3.28-1.77,4.25-3.67.16-.31.31-.71.39-1.03l.07-.36v-.76c-.25.45-.57.9-.94,1.3-1.89,2.08-4.81,3.09-6.38,3.51-4.7,1.27-10.32.86-14.33-1.04-1.39-.65-3.26-1.8-4.33-3.56-.04-.07-.08-.14-.12-.21h0ZM13.8,19.2c-2.16,0-4.33-.3-6.33-.9-1.54-.47-4.38-1.57-6.08-3.7-.56-.69-.97-1.5-1.16-2.27l-.08-.38v-2.65c0-.16.11-.29.27-.3.17-.02.3.09.33.24l.08.36c.1.42.32.94.58,1.36.77,1.28,2.21,2.46,4.06,3.33,3.88,1.83,9.34,2.22,13.91,1,1.5-.4,4.3-1.38,6.08-3.34.56-.62,1-1.33,1.22-2.01.08-.24.12-.44.17-.68.03-.16.17-.27.34-.26.16.02.28.14.28.3v2.59l-.08.43c-.09.37-.26.82-.44,1.17-1.06,2.07-3.3,3.36-4.54,3.95-2.48,1.17-5.53,1.77-8.6,1.77Z"/>
      <path class="cls-3" d="M7.22,1.82c-1.06.34-2.06.77-2.96,1.29-5.27,3.04-5.27,7.97,0,11.01.61.36,1.28.67,1.97.94L13.8.93l-6.58.89Z"/>
      <path class="cls-2" d="M7.29,2.11c-1.05.35-2.02.77-2.88,1.26C1.96,4.79.62,6.65.62,8.62s1.35,3.83,3.79,5.23c.52.3,1.08.58,1.68.83L13.24,1.31l-5.95.8h0ZM6.23,15.37s-.08,0-.11-.02c-.72-.29-1.4-.61-2.01-.96C1.46,12.86,0,10.81,0,8.62S1.46,4.37,4.1,2.84c.9-.52,1.92-.96,3.02-1.32.02-.01.03-.01.05-.01l6.58-.89c.12-.02.23.03.29.13.06.09.07.22.02.32l-7.57,14.13c-.05.1-.16.16-.27.16Z"/>
      <path class="cls-3" d="M23.24,3.14C18.02.05,9.57.05,4.36,3.14c-5.21,3.09-5.22,8.11,0,11.2,5.21,3.09,13.67,3.09,18.89,0,5.22-3.09,5.21-8.11,0-11.2Z"/>
      <path class="cls-2" d="M13.8,1.14c-3.36,0-6.72.76-9.28,2.28-2.43,1.44-3.76,3.33-3.76,5.34s1.33,3.89,3.76,5.33c5.12,3.04,13.46,3.04,18.58,0,2.42-1.44,3.76-3.33,3.76-5.33s-1.34-3.9-3.76-5.34c-2.56-1.52-5.92-2.28-9.28-2.28h0ZM13.8,16.96c-3.48,0-6.95-.78-9.6-2.36C1.58,13.05.14,10.98.14,8.75S1.58,4.43,4.2,2.88C9.49-.25,18.1-.25,23.4,2.88h0c2.62,1.55,4.06,3.63,4.06,5.87s-1.44,4.3-4.06,5.86c-2.65,1.57-6.12,2.36-9.6,2.36Z"/>
      <path class="cls-4" d="M12.89.89v1c.03.1.09.18.17.24.06.05.13.09.2.11.32.14.76.14,1.08,0,.13-.05.27-.14.34-.27.01-.03.02-.05.03-.08v-.03s0-.97,0-.97c0,.02,0,.03-.01.04-.01.03-.03.07-.05.11-.08.12-.24.2-.38.25-.3.1-.67.1-.96-.02-.13-.04-.26-.12-.34-.23-.02-.04-.05-.09-.06-.13v-.02Z"/>
      <path class="cls-2" d="M13.2,1.84s.02.02.05.04c.03.02.08.05.13.07.24.09.59.1.84,0,.1-.04.17-.1.18-.13v-.26s-.03.01-.04.01c-.36.13-.8.12-1.16-.01v.3s0-.02,0-.02h0ZM13.8,2.65c-.23,0-.46-.04-.65-.13-.07-.03-.17-.08-.27-.15-.1-.08-.23-.21-.28-.4,0-.03-.02-.08-.02-.1v-.97c0-.16.12-.3.28-.31.16,0,.3.1.33.25v.03s.12.1.21.13c.22.09.52.09.75.01.13-.04.2-.1.23-.14.03-.15.21-.27.34-.26.16.02.29.13.29.3v.97s0,.07-.01.1c-.01.05-.03.09-.05.14-.13.24-.36.37-.49.42-.2.09-.43.13-.66.13Z"/>
      <path class="cls-3" d="M14.44.46c-.36-.21-.93-.21-1.29,0-.36.21-.36.54,0,.74.36.21.93.21,1.29,0,.36-.2.36-.53,0-.74Z"/>
      <path class="cls-2" d="M13.8.62c-.18,0-.36.03-.49.11-.09.05-.11.1-.11.11,0,0,.02.05.11.11.26.15.72.15.98,0,.09-.05.11-.1.11-.11,0-.01-.02-.05-.11-.11-.13-.08-.31-.11-.49-.11h0ZM13.8,1.67c-.29,0-.57-.07-.8-.2-.27-.16-.42-.38-.42-.63s.15-.49.42-.64c.45-.25,1.15-.25,1.6,0h0c.27.16.42.39.42.64,0,.25-.15.48-.42.63-.22.13-.51.2-.8.2Z"/>
    </g>
  </g>
</svg>