<?xml version="1.0" encoding="UTF-8"?>
<svg id="Layer_2" data-name="Layer 2" xmlns="http://www.w3.org/2000/svg" viewBox="0 0 19.67 41.22" fill="currentColor">
  <defs>
    <style>
      .cls-1 {
        fill: #fff;
      }

      .cls-1, .cls-2, .cls-3, .cls-4 {
        fill-rule: evenodd;
      }

      .cls-2 {
        fill: #1a87c7;
      }

      .cls-3 {
        fill: #bdedf8;
      }

      .cls-4 {
        fill: #66ceef;
      }
    </style>
  </defs>
  <g id="_Layer_" data-name="&amp;lt;Layer&amp;gt;">
    <g>
      <path class="cls-3" d="M10.54,6.8l-6.24-3.61c.29-.47.56-.78,1.02-1.09l2.78-1.6c.32-.17.57-.26.92-.16l6.25,3.61c-.36-.1-.6-.02-.93.15l-2.77,1.61c-.48.3-.74.61-1.03,1.09Z"/>
      <path class="cls-2" d="M4.74,3.09l5.71,3.3c.24-.36.52-.65.96-.93l2.79-1.61s.09-.05.14-.07L8.88.62c-.18-.04-.33,0-.64.16l-2.76,1.6c-.34.21-.55.43-.75.71h0ZM10.54,7.1c-.05,0-.1,0-.15-.03l-6.25-3.61c-.07-.04-.12-.11-.14-.19-.03-.08-.01-.17.03-.23.29-.48.58-.84,1.12-1.19L7.95.24c.34-.17.68-.32,1.16-.18l6.31,3.63c.14.08.19.24.13.39-.06.14-.22.22-.37.17-.24-.07-.4-.03-.69.13l-2.77,1.6c-.43.27-.66.56-.91.97-.06.1-.17.15-.27.15Z"/>
      <path class="cls-3" d="M9.93,24.47l3.19-1.84,6.24,3.61-3.19,1.84c-.1.04-.15.06-.25.03l-6.24-3.61c.1.04.15.02.25-.03Z"/>
      <path class="cls-2" d="M10.4,24.56l5.62,3.24,2.72-1.57-5.63-3.25-2.72,1.57h0ZM16.02,28.43c-.07,0-.13-.02-.21-.04l-6.29-3.63c-.14-.08-.19-.25-.12-.39.06-.15.24-.22.38-.16h0l3.18-1.84c.1-.05.22-.05.31,0l6.24,3.61c.09.05.16.16.16.27,0,.1-.06.21-.16.26l-3.19,1.84c-.09.05-.19.1-.3.1Z"/>
      <polygon class="cls-4" points="12.96 40.91 6.71 37.31 .31 30.02 6.55 33.62 12.96 40.91"/>
      <path class="cls-2" d="M6.91,37.06l4.58,2.64-5.14-5.84-4.57-2.64,5.13,5.84h0ZM12.96,41.22c-.05,0-.11,0-.16-.04l-6.24-3.6s-.06-.04-.08-.07L.08,30.22c-.09-.11-.11-.28,0-.4.09-.11.27-.15.4-.07l6.24,3.61s.05.03.08.06l6.4,7.28c.1.11.1.29,0,.4-.06.08-.15.11-.23.11Z"/>
      <polygon class="cls-3" points="6.55 33.62 .31 30.02 3.51 28.17 9.75 31.78 6.55 33.62"/>
      <path class="cls-2" d="M.93,30.02l5.62,3.24,2.58-1.49-5.62-3.25-2.58,1.5h0ZM6.55,33.94c-.05,0-.1-.02-.15-.04L.16,30.29c-.1-.05-.16-.16-.16-.26,0-.11.06-.22.16-.27l3.2-1.85c.09-.05.22-.05.31,0l6.24,3.61c.1.05.16.16.16.27,0,.1-.06.21-.16.26l-3.2,1.85c-.05.03-.11.04-.16.04Z"/>
      <path class="cls-1" d="M10.12,31.15V8.23c0-.46.17-.98.42-1.43.27-.46.63-.86,1.03-1.09l2.77-1.61c.4-.23.76-.25,1.03-.09.28.16.43.5.43.94v22.91c0,.24.15.33.36.22l3.19-1.84-6.4,14.68-6.41-7.29,3.2-1.84c.2-.12.36-.4.36-.63Z"/>
      <path class="cls-2" d="M7.03,33.7l5.83,6.64,5.84-13.38-2.38,1.37c-.19.11-.4.12-.56.03-.17-.1-.26-.28-.26-.5V4.95c0-.33-.09-.57-.27-.68-.17-.1-.44-.06-.72.1l-2.78,1.61c-.33.19-.67.55-.91.97-.24.42-.38.89-.38,1.28v22.91c0,.34-.23.73-.52.89l-2.88,1.66h0ZM12.96,41.22c-.09,0-.17-.03-.23-.1l-6.4-7.28c-.06-.07-.09-.17-.08-.25.02-.1.07-.17.16-.22l3.2-1.85c.1-.06.21-.24.21-.36V8.23c0-.5.16-1.07.47-1.59.3-.52.7-.95,1.14-1.2l2.78-1.6c.48-.29.96-.32,1.33-.1.37.22.58.65.58,1.21v22.8l3.09-1.78c.11-.07.26-.05.36.03.09.09.13.23.08.36l-6.41,14.68c-.05.1-.13.17-.24.18h-.04Z"/>
      <path class="cls-4" d="M3.88,4.63c.03-.56.17-.94.43-1.43l6.24,3.61c-.26.49-.4.87-.42,1.43v22.91c-.02.28-.14.48-.36.63l-6.24-3.61c.22-.16.34-.36.36-.63V4.63Z"/>
      <path class="cls-2" d="M4.01,28.1l5.71,3.29c.05-.08.09-.17.1-.28V8.23c.02-.54.14-.92.33-1.31l-5.71-3.29c-.15.3-.22.6-.25,1.01v22.91c-.02.21-.08.4-.17.56h0ZM9.75,32.08c-.05,0-.11,0-.15-.04l-6.25-3.6c-.09-.05-.15-.15-.15-.25,0-.11.04-.21.13-.27.15-.1.22-.22.24-.4V4.63s-.01,0-.01,0c.04-.64.2-1.08.47-1.57.04-.07.1-.12.18-.15.09-.03.17,0,.24.03l6.24,3.61c.15.09.2.27.12.42-.23.44-.37.77-.39,1.3v22.9c-.03.39-.2.68-.5.89-.05.03-.12.05-.18.05Z"/>
    </g>
  </g>
</svg>