<?xml version="1.0" encoding="UTF-8"?>
<svg id="Layer_2" data-name="Layer 2" xmlns="http://www.w3.org/2000/svg" viewBox="0 0 27.31 43.97" fill="currentColor">
  <defs>
    <style>
      .cls-1 {
        fill: #fff;
      }

      .cls-1, .cls-2, .cls-3, .cls-4 {
        fill-rule: evenodd;
      }

      .cls-2 {
        fill: #1a87c7;
      }

      .cls-3 {
        fill: #bdedf8;
      }

      .cls-4 {
        fill: #66ceef;
      }
    </style>
  </defs>
  <g id="_Layer_" data-name="&amp;lt;Layer&amp;gt;">
    <g>
      <polygon class="cls-3" points="13.67 40.97 26.98 33.27 13.67 25.58 .33 33.27 13.67 40.97"/>
      <path class="cls-2" d="M.96,33.27l12.71,7.32,12.68-7.32-12.68-7.32L.96,33.27h0ZM13.67,41.28c-.08,0-.14,0-.16-.04L.16,33.55c-.11-.06-.16-.16-.16-.28,0-.11.06-.22.16-.28l13.34-7.69c.08-.07.22-.07.3,0l13.34,7.69c.11.06.16.17.16.28,0,.12-.06.23-.16.28l-13.34,7.7s-.08.04-.14.04Z"/>
      <polygon class="cls-4" points=".33 35.94 13.67 43.64 13.67 40.97 .33 33.27 .33 35.94"/>
      <path class="cls-2" d="M.66,35.76l12.68,7.32v-1.94L.66,33.83v1.93h0ZM13.67,43.97c-.08,0-.14-.02-.16-.04L.16,36.22c-.11-.05-.16-.16-.16-.28v-2.67c0-.11.06-.22.16-.28.11-.06.22-.06.33,0l13.31,7.69c.11.07.16.16.16.28v2.67c0,.12-.06.22-.16.29-.03.02-.08.04-.14.04Z"/>
      <polygon class="cls-1" points="26.98 35.94 13.67 43.64 13.67 40.97 26.98 33.27 26.98 35.94"/>
      <path class="cls-2" d="M13.97,41.15v1.94l12.68-7.32v-1.93l-12.68,7.31h0ZM13.67,43.97c-.08,0-.14-.02-.16-.04-.11-.07-.16-.16-.16-.29v-2.67c0-.12.05-.22.16-.28l13.31-7.69c.11-.06.22-.06.33,0,.11.06.16.17.16.28v2.67c0,.12-.06.22-.16.28l-13.34,7.7s-.08.04-.14.04Z"/>
      <path class="cls-1" d="M13.67,34.96c.74,0,1.48-.16,2.05-.5.58-.33.85-.75.85-1.19s-.27-.86-.85-1.19c-.58-.33-1.31-.49-2.05-.49s-1.51.16-2.08.49c-.58.33-.85.76-.85,1.19s.27.86.85,1.19c.57.34,1.32.5,2.08.5Z"/>
      <path class="cls-2" d="M13.67,31.91c-.74,0-1.42.16-1.92.45-.44.25-.69.58-.69.91s.25.65.69.92c1.01.58,2.79.58,3.81,0,.44-.26.69-.58.69-.92s-.25-.65-.69-.91c-.49-.29-1.18-.45-1.89-.45h0ZM13.67,35.28c-.85,0-1.64-.19-2.25-.53-.66-.38-1.01-.9-1.01-1.47s.36-1.09,1.01-1.47c1.21-.69,3.26-.69,4.47,0,.66.38,1.01.9,1.01,1.47s-.36,1.09-1.01,1.47c-.6.35-1.4.53-2.22.53Z"/>
      <polygon class="cls-4" points="15.72 34.44 15.78 34.41 15.83 34.38 15.86 34.34 15.91 34.32 15.97 34.28 16 34.24 16.05 34.21 16.08 34.18 16.13 34.14 16.16 34.1 16.19 34.07 16.24 34.03 16.27 34 16.3 33.96 16.32 33.92 16.35 33.88 16.38 33.84 16.41 33.81 16.43 33.77 16.46 33.72 16.46 33.69 16.49 33.65 16.52 33.61 16.52 33.57 16.54 33.53 16.54 33.49 16.54 33.45 16.57 33.41 16.57 33.37 16.57 33.32 16.57 18.18 16.57 18.22 16.57 18.26 16.57 18.3 16.54 18.34 16.54 18.38 16.54 18.42 16.52 18.46 16.52 18.5 16.49 18.54 16.46 18.59 16.46 18.62 16.43 18.66 16.41 18.69 16.38 18.74 16.35 18.78 16.32 18.81 16.3 18.85 16.27 18.89 16.24 18.92 16.19 18.96 16.16 19 16.13 19.03 16.08 19.07 16.05 19.1 16 19.14 15.97 19.17 15.91 19.2 15.86 19.24 15.83 19.27 15.78 19.3 15.72 19.33 15.67 19.37 15.61 19.4 15.56 19.42 15.5 19.45 15.45 19.47 15.39 19.5 15.31 19.52 15.26 19.55 15.2 19.57 15.15 19.59 15.06 19.61 15.01 19.63 14.96 19.65 14.87 19.67 14.82 19.69 14.76 19.7 14.68 19.72 14.63 19.73 14.54 19.75 14.49 19.76 14.41 19.77 14.35 19.78 14.27 19.78 14.22 19.79 14.13 19.8 14.08 19.81 14 19.81 13.94 19.82 13.72 19.82 13.67 19.83 13.59 19.82 13.37 19.82 13.31 19.81 13.23 19.81 13.18 19.8 13.09 19.79 13.04 19.78 12.96 19.78 12.9 19.77 12.82 19.76 12.76 19.75 12.68 19.73 12.63 19.72 12.55 19.7 12.49 19.69 12.41 19.67 12.35 19.65 12.3 19.63 12.22 19.61 12.16 19.59 12.11 19.57 12.05 19.55 12 19.52 11.94 19.5 11.86 19.47 11.81 19.45 11.75 19.42 11.7 19.4 11.64 19.37 11.59 19.33 11.53 19.3 11.48 19.27 11.45 19.24 11.39 19.2 11.34 19.17 11.28 19.14 11.26 19.1 11.2 19.07 11.18 19.03 11.15 19 11.09 18.96 11.07 18.92 11.04 18.89 11.01 18.85 10.98 18.81 10.96 18.78 10.93 18.74 10.9 18.69 10.87 18.66 10.85 18.62 10.82 18.59 10.82 18.54 10.79 18.5 10.79 18.46 10.76 18.42 10.76 18.38 10.76 18.34 10.74 18.3 10.74 18.26 10.74 18.22 10.74 18.18 10.74 33.29 10.74 33.32 10.74 33.37 10.74 33.41 10.76 33.45 10.76 33.49 10.76 33.53 10.79 33.57 10.79 33.61 10.82 33.65 10.82 33.69 10.85 33.72 10.87 33.77 10.9 33.81 10.93 33.84 10.96 33.88 10.98 33.92 11.01 33.96 11.04 34 11.07 34.03 11.09 34.07 11.15 34.1 11.18 34.14 11.2 34.18 11.26 34.21 11.28 34.24 11.34 34.28 11.39 34.32 11.45 34.34 11.48 34.38 11.53 34.41 11.59 34.44 11.64 34.47 11.7 34.5 11.75 34.52 11.81 34.56 11.86 34.58 11.94 34.61 12 34.63 12.05 34.66 12.11 34.68 12.16 34.7 12.22 34.72 12.3 34.74 12.35 34.76 12.41 34.78 12.49 34.8 12.55 34.81 12.63 34.82 12.68 34.84 12.76 34.85 12.82 34.86 12.9 34.88 12.96 34.89 13.04 34.9 13.09 34.91 13.18 34.91 13.23 34.91 13.31 34.92 13.37 34.92 13.45 34.93 13.86 34.93 13.94 34.92 14 34.92 14.08 34.91 14.13 34.91 14.22 34.91 14.27 34.9 14.35 34.89 14.41 34.88 14.49 34.86 14.54 34.85 14.63 34.84 14.68 34.82 14.76 34.81 14.82 34.8 14.87 34.78 14.96 34.76 15.01 34.74 15.06 34.72 15.15 34.7 15.2 34.68 15.26 34.66 15.31 34.63 15.39 34.61 15.45 34.58 15.5 34.56 15.56 34.52 15.61 34.5 15.67 34.47 15.72 34.44"/>
      <path class="cls-2" d="M13.67,34.61l.06.32.06-.33.08.33.05-.33.08.32.06-.33.08.32.03-.34.11.32.03-.33.11.31.03-.33.11.31v-.33l.14.3v-.33l.14.3-.03-.33.16.29-.03-.33.14.29-.03-.33.16.28-.06-.33.16.28-.05-.32.19.26-.08-.32.19.26-.08-.31.19.26-.11-.31.06-.02.22.24-.14-.3.22.24-.14-.3.22.22-.14-.28.22.22-.16-.27.25.2-.19-.26.3.16-.22-.25.3.13-.25-.22.33.11-.27-.2.33.08-.27-.16.33.04-.33-.13h.36l-.33-.08v-13.97s-.08.07-.08.07c-.03,0-.11.07-.11.07,0,.01-.11.07-.11.07-.03,0-.11.06-.11.07-.03,0-.14.05-.14.07,0,0-.11.06-.14.06,0,0-.11.05-.11.05,0,0-.14.05-.14.05l-.14.05s-.14.04-.14.05l-.14.04-.14.03s-.16.03-.16.03c0,0-.14.03-.14.03l-.14.02s-.16.02-.16.02l-.14.02h-.3s-.14,0-.14,0h-.16s-.14,0-.14,0l-.16-.02-.14-.02-.14-.02-.16-.03-.14-.03-.14-.03s-.14-.04-.14-.05l-.14-.04-.14-.05s-.14-.05-.14-.05l-.11-.05s-.14-.06-.14-.07c0,0-.11-.05-.14-.06l-.11-.06s-.11-.07-.11-.07c0,0-.11-.07-.11-.07,0-.01-.06-.06-.08-.07v13.93l-.3.16.3-.08-.3.16.33-.06-.27.22.3-.14-.25.22.3-.13-.19.28.25-.2-.19.27.25-.21-.19.28.27-.19-.19.26.25-.21-.16.28.25-.22-.16.28.25-.23-.14.29.22-.24-.14.3.22-.25-.11.31.22-.26-.11.31.19-.25-.08.31.19-.26-.05.32.16-.27-.05.32.16-.28-.06.33.16-.29-.03.33.16-.29-.03.33.14-.3v.33l.11-.3.03.33.11-.3.03.33.11-.31.03.33.11-.31.03.33.08-.32.05.33.08-.32.06.33.08-.32.06.32.08-.32h0ZM13.67,35.26s-.16,0-.16,0h-.3s-.14-.03-.14-.03l-.14-.02s-.16-.02-.16-.02c0,0-.08-.02-.08-.02l-.14-.03-.14-.04-.14-.04-.14-.04s-.14-.05-.14-.06c0,0-.11-.05-.14-.05l-.11-.06s-.14-.05-.14-.06c0,0-.11-.06-.11-.06-.03,0-.14-.06-.14-.06l-.11-.07s-.11-.07-.11-.08l-.08-.07s-.11-.08-.11-.08l-.08-.08s-.08-.08-.08-.09c0,0-.08-.08-.08-.09,0,0-.06-.08-.06-.09,0,0-.05-.09-.05-.1,0,0-.06-.09-.06-.1l-.05-.09s-.03-.1-.03-.11c0-.01-.03-.09-.03-.1s-.03-.1-.03-.11v-15.24c0-.17.14-.31.3-.32.19-.03.33.13.36.3l-.08.02h.08v.2h.03s-.03.02-.03.02v.08l.06-.03-.06.06v.08l.11-.04-.11.21.16-.14-.16.27.25-.16-.22.24.27-.19-.19.26.25-.2-.16.27.25-.22-.16.28.25-.22-.14.3.22-.24-.14.3.22-.24-.11.31.22-.25-.11.31.19-.26-.08.32.19-.27-.05.32.16-.27-.05.32.16-.28-.06.33.16-.29-.03.33.16-.29-.03.33.14-.29v.33l.14-.31v.34l.11-.31.03.33.11-.31.03.33.08-.31.06.33.08-.32.05.33.08-.32.06.33.08-.32.06.32.08-.32.06.32.06-.32.08.32.05-.33.08.32.06-.33.08.32.03-.33.11.31.03-.33.11.31.03-.33.11.31v-.34l.14.31v-.34l.14.3-.03-.33.16.29-.03-.33.14.29-.03-.33.16.28-.06-.32.16.27-.05-.32.19.27-.08-.32.19.26-.08-.32.19.26-.11-.32.22.25-.11-.31.19.24-.11-.3.22.22-.16-.28.25.22-.16-.28.25.21-.19-.26.25.19-.19-.26.25.08v-.04l-.16-.13.16.06v-.06l-.11-.1.11.02v-.05l-.06-.04h.06s0-.21,0-.21v-.06c.06-.15.22-.28.33-.28.19.01.33.11.33.28v15.11s-.03.11-.03.13v.1s-.03.1-.03.11c0,0-.03.1-.05.11l-.03.09s-.06.1-.06.1c0,0-.06.09-.06.1,0,0-.05.09-.08.09,0,0-.05.09-.05.09,0,0-.08.08-.08.09l-.08.08-.11.08s-.08.07-.08.08c-.03,0-.11.07-.11.07l-.11.07s-.08.04-.08.04l-.03.03-.14.06s-.11.05-.11.06c0,0-.14.05-.14.06l-.14.05-.14.05-.14.04-.14.04-.14.04s-.14.03-.16.03c0,0-.06,0-.06.02l-.14.02s-.16.02-.16.02c0,0-.14,0-.14.02h-.16s-.14.01-.14.01h-.14Z"/>
      <polygon class="cls-1" points="15.72 34.44 15.78 34.41 15.83 34.38 15.86 34.34 15.91 34.32 15.97 34.28 16 34.24 16.05 34.21 16.08 34.18 16.13 34.14 16.16 34.1 16.19 34.07 16.24 34.03 16.27 34 16.3 33.96 16.32 33.92 16.35 33.88 16.38 33.84 16.41 33.81 16.43 33.77 16.46 33.72 16.46 33.69 16.49 33.65 16.52 33.61 16.52 33.57 16.54 33.53 16.54 33.49 16.54 33.45 16.57 33.41 16.57 33.37 16.57 33.32 16.57 18.18 16.57 18.22 16.57 18.26 16.57 18.3 16.54 18.34 16.54 18.38 16.54 18.42 16.52 18.46 16.52 18.5 16.49 18.54 16.46 18.59 16.46 18.62 16.43 18.66 16.41 18.69 16.38 18.74 16.35 18.78 16.32 18.81 16.3 18.85 16.27 18.89 16.24 18.92 16.19 18.96 16.16 19 16.13 19.03 16.08 19.07 16.05 19.1 16 19.14 15.97 19.17 15.91 19.2 15.86 19.24 15.83 19.27 15.78 19.3 15.72 19.33 15.67 19.37 15.61 19.4 15.56 19.42 15.5 19.45 15.45 19.47 15.39 19.5 15.31 19.52 15.26 19.55 15.2 19.57 15.15 19.59 15.06 19.61 15.01 19.63 14.96 19.65 14.87 19.67 14.82 19.69 14.76 19.7 14.68 19.72 14.63 19.73 14.6 19.74 14.6 34.84 14.63 34.84 14.68 34.82 14.76 34.81 14.82 34.8 14.87 34.78 14.96 34.76 15.01 34.74 15.06 34.72 15.15 34.7 15.2 34.68 15.26 34.66 15.31 34.63 15.39 34.61 15.45 34.58 15.5 34.56 15.56 34.52 15.61 34.5 15.67 34.47 15.72 34.44"/>
      <path class="cls-2" d="M14.9,34.52l.16.2-.08-.31.22.27-.11-.3.22.25-.11-.3.25.24-.14-.29.25.24-.14-.28.25.23-.16-.28.22.26-.16-.28.06-.02.22.24-.14-.3.22.24-.14-.3.22.22-.14-.28.22.22-.16-.27.25.2-.19-.26.3.16-.22-.25.3.13-.25-.22.33.11-.27-.2.33.08-.27-.16.33.04-.33-.13h.36l-.33-.08v-13.97s-.08.07-.08.07c-.03,0-.11.07-.11.07,0,.01-.11.07-.11.07-.03,0-.11.06-.11.07-.03,0-.14.05-.14.07,0,0-.11.06-.14.06,0,0-.11.05-.11.05,0,0-.14.05-.14.05l-.14.05s-.14.04-.14.05c0,0-.08.02-.14.02v14.53h0ZM14.9,34.71v-.06l.05.11-.05-.04h0ZM14.6,35.17c-.08,0-.16-.03-.22-.07-.08-.06-.11-.15-.11-.26v-15.1c0-.15.11-.29.27-.32l.14.3-.06-.32.19.28-.08-.31.22.27-.11-.31.22.27-.08-.31.22.27-.11-.3.22.25-.11-.29.25.24-.14-.29.25.23-.14-.29.25.24-.16-.28.27.22-.16-.27.25.21-.16-.26.27.19-.19-.25.27.19-.19-.24.27.17-.22-.23.27.15-.22-.22.27.14h0s-.19-.24-.19-.24l.19.06v-.05l-.14-.09.14.05v-.08l-.08-.06h.08s0-.05,0-.05l-.06-.02h.06v-.2c.03-.18.19-.32.33-.32.19.01.33.14.33.3v15.11s-.03.11-.03.13v.1s-.03.1-.03.11c0,0-.03.1-.05.11l-.03.09s-.06.1-.06.1c0,0-.06.09-.06.1,0,0-.05.09-.08.09,0,0-.05.09-.05.09,0,0-.08.08-.08.09l-.08.08-.11.08s-.08.07-.08.08c-.03,0-.11.07-.11.07l-.11.07s-.08.04-.08.04l-.03.03-.14.06s-.11.05-.11.06c0,0-.14.05-.14.06l-.14.05-.14.05-.14.04-.14.04-.14.04-.11.02s-.06,0-.06,0Z"/>
      <polygon class="cls-3" points="13.67 14.4 25.83 7.36 13.67 .32 1.45 7.36 13.67 14.4"/>
      <path class="cls-2" d="M2.11,7.36l11.56,6.67,11.53-6.67L13.67.69,2.11,7.36h0ZM13.67,14.72c-.08,0-.14,0-.16-.04L1.29,7.65c-.08-.06-.16-.16-.16-.28s.08-.22.16-.28L13.5.05c.08-.06.22-.06.3,0l12.19,7.03c.11.06.16.16.16.28s-.06.22-.16.28l-12.19,7.03s-.08.04-.14.04Z"/>
      <polygon class="cls-4" points="1.45 23.06 13.67 30.1 13.67 14.4 1.45 7.36 1.45 23.06"/>
      <path class="cls-2" d="M1.78,22.87l11.56,6.66v-14.95L1.78,7.93v14.95h0ZM13.67,30.41c-.08,0-.14,0-.16-.04L1.29,23.34c-.08-.05-.16-.16-.16-.28V7.36c0-.12.08-.22.16-.28.11-.06.25-.06.33,0l12.19,7.04c.11.06.16.16.16.28v15.69c0,.11-.06.22-.16.27-.03.04-.08.04-.14.04Z"/>
      <polygon class="cls-1" points="25.83 23.06 13.67 30.1 13.67 14.4 25.83 7.36 25.83 23.06"/>
      <path class="cls-2" d="M25.83,23.06h.03-.03ZM13.97,14.59v14.95l11.56-6.66V7.93l-11.56,6.66h0ZM13.67,30.41c-.08,0-.14,0-.16-.04-.11-.06-.16-.16-.16-.27v-15.69c0-.12.05-.23.16-.28l12.19-7.04c.08-.06.22-.06.3,0,.11.06.16.16.16.28v15.69c0,.12-.06.23-.16.28l-12.19,7.03s-.08.04-.14.04Z"/>
    </g>
  </g>
</svg>