<?xml version="1.0" encoding="UTF-8"?>
<svg id="Layer_2" data-name="Layer 2" xmlns="http://www.w3.org/2000/svg" viewBox="0 0 34.44 45.4" fill="currentColor">
  <defs>
    <style>
      .cls-1 {
        fill: #fff;
      }

      .cls-1, .cls-2, .cls-3, .cls-4 {
        fill-rule: evenodd;
      }

      .cls-2 {
        fill: #1a87c7;
      }

      .cls-3 {
        fill: #bdedf8;
      }

      .cls-4 {
        fill: #66ceef;
      }
    </style>
  </defs>
  <g id="_Layer_" data-name="&amp;lt;Layer&amp;gt;">
    <g>
      <polygon class="cls-4" points="10.13 41.97 .31 36.3 24.31 22.45 34.12 28.12 10.13 41.97"/>
      <path class="cls-2" d="M.93,36.3l9.2,5.31,23.38-13.5-9.2-5.31L.93,36.3h0ZM10.13,42.28c-.05,0-.11-.02-.15-.04L.16,36.57c-.1-.05-.16-.16-.16-.26s.06-.21.16-.27l24-13.85c.1-.06.22-.06.31,0l9.81,5.67c.1.05.16.16.16.27s-.06.21-.16.26l-24,13.86s-.1.04-.15.04Z"/>
      <polygon class="cls-4" points="10.13 45.1 .31 39.43 .31 36.3 10.13 41.97 10.13 45.1"/>
      <path class="cls-2" d="M.61,39.25l9.21,5.31v-2.42L.61,36.83v2.42h0ZM10.13,45.4c-.05,0-.11-.01-.15-.04L.16,39.7c-.1-.06-.16-.16-.16-.27v-3.13c0-.11.06-.21.16-.27.09-.06.22-.06.31,0l9.81,5.67c.1.06.16.16.16.27v3.13c0,.11-.06.21-.16.26-.04.03-.1.04-.15.04Z"/>
      <polygon class="cls-4" points="10.13 41.97 34.12 28.12 34.12 31.24 10.13 45.1 10.13 41.97"/>
      <path class="cls-2" d="M10.44,42.15v2.42l23.38-13.5v-2.42l-23.38,13.5h0ZM10.13,45.4c-.05,0-.11-.01-.15-.04-.09-.05-.15-.15-.15-.26v-3.13c0-.11.06-.21.15-.27l24-13.85c.1-.06.21-.06.3,0,.1.05.16.16.16.27v3.13c0,.11-.06.21-.16.27l-24,13.85s-.1.04-.15.04Z"/>
      <polygon class="cls-3" points="22.87 32.18 17.48 29.07 17.48 11.14 22.87 14.25 22.87 32.18"/>
      <path class="cls-2" d="M17.78,28.89l4.77,2.76V14.43l-4.77-2.76v17.22h0ZM22.87,32.49c-.05,0-.1-.01-.15-.04l-5.39-3.11c-.1-.06-.16-.16-.16-.27V11.14c0-.11.06-.21.16-.27.09-.06.21-.06.3,0l5.39,3.11c.09.06.15.15.15.26v17.93c0,.11-.06.22-.15.27-.04.03-.1.04-.15.04Z"/>
      <polygon class="cls-3" points="22.87 14.25 17.48 11.14 23.85 7.46 29.24 10.58 22.87 14.25"/>
      <path class="cls-2" d="M18.1,11.14l4.77,2.76,5.75-3.32-4.77-2.76-5.75,3.32h0ZM22.87,14.56c-.05,0-.1-.01-.15-.04l-5.39-3.11c-.1-.06-.16-.16-.16-.27s.06-.21.16-.27l6.37-3.68c.09-.06.21-.06.3,0l5.4,3.11c.09.06.15.16.15.27s-.05.21-.15.26l-6.38,3.68s-.1.04-.15.04Z"/>
      <polygon class="cls-4" points="16.84 35.66 11.45 32.55 11.45 19.6 16.84 22.71 16.84 35.66"/>
      <path class="cls-2" d="M11.75,32.38l4.77,2.76v-12.24l-4.77-2.76v12.24h0ZM16.84,35.97c-.06,0-.11-.02-.16-.04l-5.39-3.11c-.1-.06-.16-.16-.16-.26v-12.95c0-.11.06-.21.16-.27.09-.05.21-.05.3,0l5.39,3.11c.1.06.16.16.16.27v12.95c0,.11-.06.21-.16.27-.04.03-.1.04-.15.04Z"/>
      <polygon class="cls-4" points="16.84 22.71 11.45 19.6 17.82 15.92 23.21 19.04 16.84 22.71"/>
      <path class="cls-2" d="M12.05,19.6l4.78,2.76,5.75-3.32-4.77-2.76-5.76,3.32h0ZM16.84,23.02c-.06,0-.11-.01-.16-.04l-5.39-3.11c-.1-.06-.16-.16-.16-.27s.06-.21.16-.27l6.37-3.68c.1-.06.21-.06.3,0l5.39,3.11c.1.06.16.16.16.27s-.06.21-.16.27l-6.37,3.68s-.1.04-.15.04Z"/>
      <polygon class="cls-4" points="16.84 35.66 16.84 22.71 23.21 19.04 23.21 31.99 16.84 35.66"/>
      <path class="cls-2" d="M17.14,22.89v12.24l5.75-3.32v-12.24l-5.75,3.32h0ZM16.84,35.97c-.06,0-.11-.02-.16-.04-.09-.06-.16-.16-.16-.27v-12.95c0-.11.06-.21.16-.27l6.37-3.68c.1-.05.21-.05.3,0,.1.06.16.16.16.27v12.95c0,.11-.06.21-.16.27l-6.37,3.68s-.1.04-.15.04Z"/>
      <polygon class="cls-3" points="22.87 32.18 22.87 14.25 29.24 10.58 29.24 28.5 22.87 32.18"/>
      <path class="cls-2" d="M23.17,14.43v17.22l5.76-3.32V11.11l-5.76,3.32h0ZM22.87,32.49c-.05,0-.1-.01-.15-.04-.1-.05-.16-.16-.16-.27V14.25c0-.11.06-.21.16-.26l6.37-3.68c.1-.06.22-.06.31,0,.09.06.15.16.15.27v17.93c0,.11-.06.22-.15.27l-6.37,3.68s-.1.04-.15.04Z"/>
      <polygon class="cls-1" points="16.84 28.33 11.45 25.22 5.07 28.9 10.46 32.01 16.84 28.33"/>
      <path class="cls-2" d="M5.68,28.9l4.78,2.76,5.76-3.33-4.77-2.75-5.76,3.32h0ZM10.46,32.32c-.06,0-.11-.01-.15-.04l-5.39-3.11c-.1-.05-.16-.16-.16-.27s.06-.21.16-.27l6.37-3.68c.09-.05.21-.05.3,0l5.39,3.11c.1.06.16.16.16.26,0,.11-.06.22-.16.27l-6.37,3.68s-.1.04-.15.04Z"/>
      <polygon class="cls-1" points="10.46 32.01 5.07 28.9 5.07 36.23 10.46 39.34 10.46 32.01"/>
      <path class="cls-2" d="M5.38,36.05l4.77,2.75v-6.62l-4.77-2.76v6.63h0ZM10.46,39.65c-.06,0-.11-.02-.15-.04l-5.39-3.11c-.1-.05-.16-.16-.16-.27v-7.33c0-.11.06-.21.16-.27.09-.06.21-.06.3,0l5.39,3.11c.09.06.15.16.15.26v7.34c0,.11-.06.21-.15.27-.04.03-.1.04-.15.04Z"/>
      <polygon class="cls-1" points="16.84 35.66 16.84 28.33 10.46 32.01 10.46 39.34 16.84 35.66"/>
      <path class="cls-2" d="M10.77,32.19v6.62l5.76-3.32v-6.62l-5.76,3.32h0ZM10.46,39.65c-.06,0-.11-.02-.15-.04-.1-.06-.16-.16-.16-.27v-7.34c0-.11.06-.21.16-.26l6.37-3.68c.1-.05.21-.05.3,0,.1.06.16.15.16.26v7.34c0,.11-.06.21-.16.27l-6.37,3.68s-.1.04-.15.04Z"/>
      <polygon class="cls-1" points="23.35 6.25 27.54 3.84 26.22 2.88 27.54 .31 23.35 2.72 23.35 6.25"/>
      <path class="cls-2" d="M23.67,2.9v2.82l3.3-1.91-.94-.68c-.12-.09-.16-.25-.09-.39l.84-1.64-3.12,1.8h0ZM23.35,6.56c-.05,0-.1-.01-.15-.04-.1-.06-.16-.16-.16-.27v-3.53c0-.11.05-.21.16-.27L27.38.04c.12-.07.27-.05.36.04.1.09.13.24.07.36l-1.2,2.33,1.1.8c.09.06.13.16.12.27,0,.1-.06.2-.15.25l-4.18,2.41c-.05.03-.1.04-.16.04Z"/>
      <path class="cls-2" d="M23.35,11.17c-.16,0-.3-.14-.3-.31v-4.61c0-.17.14-.31.3-.31.17,0,.31.14.31.31v4.61c0,.17-.14.31-.31.31Z"/>
    </g>
  </g>
</svg>