<?xml version="1.0" encoding="UTF-8"?>
<svg id="Layer_2" data-name="Layer 2" xmlns="http://www.w3.org/2000/svg" viewBox="0 0 36.36 43.22" fill="currentColor">
  <defs>
    <style>
      .cls-1 {
        fill: #fff;
      }

      .cls-1, .cls-2, .cls-3, .cls-4 {
        fill-rule: evenodd;
      }

      .cls-2 {
        fill: #1a87c7;
      }

      .cls-3, .cls-5 {
        fill: #bdedf8;
      }

      .cls-4 {
        fill: #66ceef;
      }
    </style>
  </defs>
  <g id="_Layer_" data-name="&amp;lt;Layer&amp;gt;">
    <g>
      <path class="cls-3" d="M17.03,35.94l-6.25-3.61c-.3-.14-.53-.07-.82.08l-2.1,1.22c-.28.17-.54.27-.86.12l6.24,3.61c.33.15.59.03.88-.13l2.1-1.21c.28-.15.51-.22.82-.08Z"/>
      <path class="cls-2" d="M7.94,33.95l5.46,3.15c.15.06.28.04.56-.13l2.09-1.21s0,0,.02,0l-5.44-3.14c-.15-.07-.26-.05-.53.09l-2.09,1.21s-.05.03-.08.04h0ZM13.55,37.74c-.13,0-.28-.03-.44-.1l-6.27-3.62c-.14-.09-.19-.27-.11-.41.07-.15.25-.21.4-.14.17.08.3.05.58-.11l2.1-1.21c.3-.16.65-.3,1.1-.09l6.27,3.62c.15.09.2.27.12.41-.08.15-.25.21-.4.14-.18-.08-.29-.06-.55.07l-2.09,1.21c-.16.09-.41.23-.72.23Z"/>
      <path class="cls-3" d="M8.91,36.95l-1.37-.79,3.42-7.11-6.25-3.61L.31,34.61l2.43,1.41c0,1.26.21,2.29,1.27,3.03l6.24,3.6c-.95-.64-1.27-1.63-1.27-2.75v-2.75c0-.1,0-.13-.08-.19Z"/>
      <path class="cls-2" d="M.71,34.48l2.19,1.27c.1.05.16.16.16.26,0,1.19.19,2.12,1.13,2.77l4.79,2.76c-.2-.48-.3-1.03-.3-1.66v-2.71l-1.29-.75c-.14-.08-.19-.25-.12-.4l3.29-6.86-5.71-3.29L.71,34.48h0ZM10.25,42.95c-.05,0-.1-.02-.16-.04l-6.24-3.61c-1.19-.82-1.4-1.96-1.42-3.1l-2.28-1.32c-.14-.08-.19-.25-.12-.4l4.4-9.16c.04-.08.11-.14.19-.16.08-.03.17-.02.24.03l6.24,3.6c.15.09.2.26.13.4l-3.3,6.86,1.11.64s.03.02.04.04c.17.13.18.26.2.4v2.77c0,1.16.36,1.97,1.13,2.49.14.1.18.28.09.42-.06.1-.16.15-.26.15Z"/>
      <path class="cls-4" d="M10.38,16.95l-6.24-3.61c-.51.91-.84,1.73-1.06,2.75-.09.5-.13.91-.13,1.41v3.32c0,.22.01.36.09.56.08.14.12.19.25.28l6.24,3.61c-.16-.13-.21-.18-.29-.38-.04-.19-.05-.31-.05-.51v-2.95c0-.34,0-.65.03-.98.13-1.3.53-2.36,1.17-3.5Z"/>
      <path class="cls-2" d="M4.26,13.77c-.43.82-.69,1.53-.88,2.39-.08.48-.12.88-.12,1.34v3.32c0,.2.02.3.07.45.04.07.05.08.14.14l5.42,3.13v-3.1c0-.35,0-.66.02-1.01.12-1.18.44-2.2,1.07-3.36l-5.71-3.29h0ZM9.53,25.58s-.1-.02-.15-.04l-6.25-3.61c-.2-.14-.26-.23-.36-.4-.12-.29-.13-.46-.13-.71v-3.32c0-.5.04-.93.14-1.46.22-1.02.55-1.86,1.1-2.84.04-.07.1-.12.18-.15.08-.02.17,0,.24.03l6.24,3.6c.15.09.2.27.12.42-.67,1.2-1.01,2.22-1.13,3.38-.02.32-.02.62-.02.96v2.95c0,.18,0,.28.04.43q.04.12.17.22c.13.1.16.28.07.42-.06.09-.16.14-.26.14Z"/>
      <polygon class="cls-3" points="16.07 17.1 9.82 13.49 9.82 15.96 16.07 19.57 16.07 17.1"/>
      <path class="cls-2" d="M10.13,15.79l5.63,3.25v-1.76l-5.63-3.25v1.76h0ZM16.07,19.88c-.05,0-.1-.02-.16-.04l-6.24-3.61c-.1-.05-.16-.16-.16-.27v-2.47c0-.11.06-.21.16-.27.09-.05.21-.05.3,0l6.25,3.61c.09.05.15.16.15.27v2.47c0,.11-.05.22-.15.27-.05.03-.11.04-.16.04Z"/>
      <path class="cls-3" d="M13.96,13.43l1.82-1.05-6.25-3.61-2,1.16c-.42.24-.7.42-1.09.71-.98.79-1.66,1.63-2.3,2.7l6.24,3.61c.7-1.18,1.61-2.24,2.74-3.02.27-.18.56-.33.84-.5Z"/>
      <path class="cls-2" d="M13.96,13.43h0,0ZM4.57,13.24l5.71,3.29c.76-1.19,1.65-2.16,2.67-2.86.22-.15.44-.27.66-.4l1.56-.9-5.63-3.25-1.84,1.07c-.39.23-.68.4-1.06.69-.83.67-1.45,1.39-2.06,2.36h0ZM10.38,17.27c-.05,0-.11-.02-.15-.04l-6.25-3.61c-.07-.04-.12-.11-.14-.19-.03-.08,0-.16.03-.23.7-1.16,1.41-2,2.37-2.79.42-.31.73-.51,1.13-.73l2.01-1.16c.1-.06.21-.06.3,0l6.24,3.6c.1.06.16.16.16.27s-.06.21-.16.27l-1.82,1.04h0l-.2.12c-.21.11-.42.23-.62.36-1.02.7-1.9,1.7-2.64,2.93-.06.1-.17.16-.27.16Z"/>
      <polygon class="cls-3" points="21.8 11.17 15.55 7.58 9.82 5.79 16.07 9.4 21.8 11.17"/>
      <path class="cls-2" d="M12.35,6.9l3.88,2.23,3.05.95-3.87-2.24-3.06-.94h0ZM21.8,11.49s-.06,0-.09-.02l-5.73-1.77-6.31-3.63c-.14-.08-.19-.24-.13-.39.07-.14.23-.22.37-.17l5.74,1.78,6.3,3.63c.14.08.19.24.13.38-.05.12-.16.19-.29.19Z"/>
      <path class="cls-4" d="M16.07,9.4l-6.24-3.61v2.49c-.02.22-.11.37-.3.5l6.25,3.61c.17-.12.27-.29.29-.5v-2.48Z"/>
      <path class="cls-2" d="M10.02,8.7l5.71,3.3s.03-.09.03-.15v-2.27l-5.63-3.25v1.95c0,.16-.05.3-.11.42h0ZM15.78,12.69c-.05,0-.11-.02-.16-.04l-6.24-3.61c-.09-.05-.15-.15-.16-.25,0-.1.04-.21.13-.27.1-.07.15-.15.16-.27v-2.46c0-.1.06-.21.16-.26.09-.06.21-.06.3,0l6.25,3.6c.09.06.15.16.15.27v2.48c-.02.34-.17.58-.42.76-.05.04-.11.06-.17.06Z"/>
      <path class="cls-3" d="M32.36,4.19l-6.24-3.61c-1.05-.55-2.06-.18-3.02.37l-2.77,1.6c-.47.28-.7.51-.99.97l6.24,3.61c.23-.38.44-.62.81-.86l2.92-1.69c.97-.56,1.98-.94,3.04-.38Z"/>
      <path class="cls-2" d="M19.77,3.41l5.71,3.29c.19-.27.4-.49.75-.71l2.93-1.7c.51-.29,1.05-.56,1.64-.65l-4.84-2.8c-.96-.5-1.9-.09-2.7.37l-2.77,1.6c-.33.19-.52.35-.71.6h0ZM25.58,7.43c-.05,0-.11-.02-.15-.04l-6.25-3.61c-.07-.04-.12-.11-.14-.19-.03-.08,0-.17.03-.24.3-.5.58-.77,1.09-1.07l2.78-1.6c.89-.52,2.08-1.03,3.31-.37l6.26,3.61c.14.09.19.27.11.42-.08.15-.26.2-.42.12-.96-.5-1.89-.11-2.74.38l-2.92,1.68c-.3.2-.48.39-.71.76-.05.1-.16.15-.26.15Z"/>
      <path class="cls-3" d="M23.14,8.85l-2.14,1.24,6.24,3.6,2.15-1.23c.17-.12.27-.29.29-.5l-6.24-3.6c-.02.22-.12.37-.3.5Z"/>
      <path class="cls-2" d="M23.14,8.85h0,0ZM21.62,10.1l5.62,3.24,1.99-1.15s.06-.05.09-.09l-5.72-3.29c-.07.11-.16.22-.28.29,0,0-.02.02-.02.02l-1.68.97h0ZM27.24,14.01c-.05,0-.1-.02-.15-.04l-6.25-3.61c-.09-.05-.16-.16-.16-.26,0-.11.06-.22.16-.27l2.13-1.23c.1-.07.14-.14.15-.26.01-.11.07-.2.17-.25.1-.04.21-.04.3,0l6.25,3.61c.11.06.16.17.15.29-.03.31-.17.56-.42.73l-2.16,1.25c-.05.03-.1.04-.16.04Z"/>
      <path class="cls-4" d="M29.36,9.47l-6.24-3.61c.22.15.28.3.31.56.01.11.01.22.01.33v1.61l6.24,3.6v-1.6c0-.18,0-.35-.04-.53-.04-.14-.12-.26-.28-.36Z"/>
      <path class="cls-2" d="M23.74,8.18l5.62,3.25v-1.15c0-.14,0-.24-.03-.36-.02-.07-.05-.12-.15-.18l-5.45-3.15v1.59h0ZM29.68,12.27c-.05,0-.11-.02-.16-.04l-6.24-3.61c-.09-.05-.16-.16-.16-.26v-1.92c-.03-.18-.06-.23-.18-.32-.14-.09-.18-.27-.09-.42.09-.14.27-.18.42-.11l6.24,3.61s.01,0,.02,0c.2.14.33.3.4.52.06.2.05.37.05.54v1.69c0,.11-.06.22-.16.27-.04.03-.09.04-.15.04Z"/>
      <rect class="cls-5" x="25.45" y="4.14" height="7.21" transform="translate(6.01 25.9) rotate(-59.97)"/>
      <path class="cls-2" d="M28.57,9.85c-.05,0-.11,0-.15-.03l-6.25-3.61c-.09-.05-.15-.16-.15-.27,0-.1.05-.21.15-.26.1-.06.22-.06.31,0l6.24,3.61c.1.06.16.16.16.27h0c0,.11-.06.21-.16.27-.05.03-.1.03-.15.03Z"/>
      <polygon class="cls-4" points="27.24 13.69 21 10.1 25.41 14.16 31.65 17.77 27.24 13.69"/>
      <path class="cls-2" d="M23.23,11.74l2.39,2.2,3.82,2.2-2.37-2.19-3.83-2.21h0ZM31.65,18.08c-.05,0-.1-.02-.16-.04l-6.24-3.61-4.46-4.11c-.11-.11-.13-.29-.04-.41.09-.13.27-.16.41-.09l6.24,3.61s.03.03.05.03l4.41,4.08c.11.1.13.29.04.41-.06.08-.16.13-.25.13Z"/>
      <polygon class="cls-1" points="36.06 8.61 29.81 5.01 27.66 6.25 33.9 9.85 36.06 8.61"/>
      <path class="cls-2" d="M28.28,6.25l5.63,3.25,1.54-.89-5.63-3.25-1.53.89h0ZM33.9,10.16c-.05,0-.11,0-.15-.03l-6.24-3.61c-.1-.05-.15-.16-.15-.27,0-.1.05-.21.15-.26l2.15-1.24c.09-.06.21-.06.3,0l6.24,3.61c.09.05.16.16.16.26,0,.11-.06.22-.16.27l-2.15,1.24s-.1.03-.16.03Z"/>
      <polygon class="cls-3" points="33.9 9.85 27.66 6.25 27.6 6.27 27.55 6.29 27.5 6.28 27.46 6.27 33.7 9.87 33.74 9.89 33.8 9.89 33.85 9.88 33.9 9.85"/>
      <path class="cls-2" d="M33.8,10.2h-.02s-.11,0-.15-.03c0,0-.07-.03-.09-.03l-6.24-3.61c-.14-.08-.19-.25-.12-.4.06-.13.21-.2.35-.17.09-.03.21-.03.29.02l6.24,3.6c.1.06.16.16.16.29,0,.11-.08.22-.18.26l-.05.03s-.1.03-.12.03c-.02,0-.04,0-.06,0Z"/>
      <path class="cls-3" d="M33.28,21.44l-6.24-3.61c-.3-.15-.53-.07-.82.08l-1.62.94c-.38.24-.59.49-.82.86l6.24,3.61h0c.23-.37.44-.63.82-.86l1.49-.87c.71-.41.9-.17.95-.15Z"/>
      <path class="cls-2" d="M24.21,19.61l5.71,3.29c.19-.28.41-.5.75-.71l1.51-.87c.05-.03.09-.06.15-.09l-5.45-3.14c-.14-.07-.25-.05-.52.09l-1.61.93c-.24.15-.39.3-.54.5h0ZM30.02,23.63c-.05,0-.11-.02-.16-.04l-6.24-3.61c-.07-.05-.12-.11-.15-.19-.02-.08,0-.16.04-.23.24-.39.47-.69.91-.97l1.63-.95c.3-.16.66-.29,1.1-.09l6.16,3.56s.07.03.1.06h0c.14.08.19.26.12.41-.08.15-.25.21-.41.14,0,0,0,0-.02-.02l-.07-.03c-.09-.04-.3.03-.57.19l-1.5.86c-.33.22-.51.44-.71.77-.06.1-.16.15-.26.15Z"/>
      <path class="cls-4" d="M30.02,23.32l-6.24-3.6c-.22.38-.32.69-.34,1.14v2.26c0,.55-.05.83-.33,1.35-.32.54-.52.67-1.02.97l-1.29.74,6.25,3.61,1.4-.81c.44-.25.63-.43.91-.9.25-.46.33-.78.33-1.26v-2.35c.02-.44.13-.75.34-1.14Z"/>
      <path class="cls-2" d="M21.4,26.17l5.63,3.25,1.24-.71c.41-.24.57-.39.81-.8.21-.39.28-.66.28-1.09v-2.35c.02-.41.1-.71.24-1.02l-5.7-3.29c-.1.22-.16.43-.17.72v2.25c0,.57-.05.91-.37,1.49-.36.59-.6.76-1.14,1.08l-.84.48h0ZM27.04,30.09c-.05,0-.11-.02-.16-.04l-6.24-3.61c-.09-.05-.15-.16-.15-.27,0-.1.06-.21.15-.26l1.29-.75c.47-.27.63-.37.92-.85.24-.45.28-.69.28-1.19v-2.26c.03-.54.17-.89.37-1.29.04-.08.11-.13.19-.16.08-.02.17,0,.24.03l6.25,3.61c.14.08.19.26.11.41-.18.34-.29.6-.3,1.01v2.34c0,.54-.1.9-.36,1.41-.31.5-.54.73-1.04,1.02l-1.4.81s-.09.04-.15.04Z"/>
      <polygon class="cls-3" points="27.04 29.77 20.79 26.17 20.73 26.19 20.67 26.21 20.63 26.21 20.58 26.19 26.83 29.79 26.87 29.81 26.92 29.82 26.97 29.8 27.04 29.77"/>
      <path class="cls-2" d="M26.92,30.12h-.02s-.11,0-.14-.03c-.02,0-.08-.03-.09-.03l-6.25-3.61c-.14-.08-.19-.25-.12-.4.06-.13.22-.2.35-.16.1-.02.22-.02.29.02l6.24,3.6c.1.06.17.17.16.29,0,.11-.07.22-.17.26l-.06.03s-.1.04-.12.04c-.02,0-.04,0-.06,0Z"/>
      <path class="cls-1" d="M32.36,4.19c-.9-.52-1.89-.29-3.1.42l-2.57,1.49c-.73.42-1.44,1.12-1.44,2.17v1.88c0,.37.13.63.34.75.21.12.5.1.81-.08l1.89-1.09c.41-.23.74-.44,1.08-.24.31.17.32.49.32.9v1.58c0,.19-.13.42-.29.5l-2.15,1.23,4.41,4.08,4.4-9.16-2.15,1.24c-.16.1-.29.02-.29-.16v-2.57c0-1.4-.39-2.43-1.26-2.94Z"/>
      <path class="cls-2" d="M27.77,13.75l3.79,3.51,3.79-7.89-1.29.75c-.18.1-.36.1-.51.02-.15-.09-.24-.25-.24-.45v-2.57c0-1.35-.37-2.24-1.11-2.67h0c-.72-.42-1.56-.3-2.8.42l-2.56,1.48c-.59.34-1.29.95-1.29,1.9v1.88c0,.24.06.42.18.49.11.06.3.03.51-.09l1.89-1.08c.47-.28.9-.53,1.39-.25.47.27.47.75.47,1.17v1.58c0,.3-.18.63-.44.77l-1.77,1.03h0ZM31.65,18.08c-.08,0-.15-.03-.21-.09l-4.41-4.08c-.07-.06-.11-.16-.09-.26,0-.1.07-.18.16-.23l2.14-1.24c.06-.03.13-.16.13-.23v-1.58c0-.43-.02-.56-.16-.63-.17-.1-.33-.02-.73.22l-1.93,1.11c-.4.23-.81.26-1.12.08-.32-.18-.49-.55-.49-1.02v-1.88c0-1.25.87-2.02,1.59-2.43l2.57-1.49c.96-.56,2.23-1.1,3.42-.42h0c.94.55,1.42,1.63,1.42,3.21v2.36l1.97-1.14c.11-.07.26-.05.36.03.1.1.12.24.07.36l-4.41,9.15c-.04.1-.12.16-.22.17-.03,0-.04,0-.06,0Z"/>
      <path class="cls-1" d="M10.38,16.95c-.46.81-.82,1.67-1.01,2.53-.29,1.22-.18,2.84-.18,3.91,0,.63-.11,1.5.25,1.82.22.18.54.19.91-.02l1.63-.94c.63-.37,1.15-1.27,1.15-2.01v-2.03c0-.53-.05-.94.32-1.58.11-.19.24-.37.39-.52.23-.23.47-.35.7-.48l1.23-.7c.15-.1.29-.03.29.17v2.47l5.73-8.4-5.73-1.77v2.48c0,.19-.13.41-.29.5-1,.57-2.44,1.28-3.44,2.15-.75.67-1.43,1.51-1.95,2.43Z"/>
      <path class="cls-2" d="M10.65,17.11c-.46.79-.8,1.63-.98,2.43-.22.95-.19,2.16-.18,3.14,0,.26.01.5.01.71,0,.11-.01.23-.01.36-.02.42-.03,1.06.16,1.22.11.1.31.08.55-.05l1.62-.94c.54-.31,1-1.1,1-1.74v-2.18c0-.48,0-.92.36-1.58.13-.22.28-.42.43-.58.22-.22.45-.35.66-.46l1.34-.77c.18-.1.36-.11.51-.02.15.09.23.25.23.45v1.47l4.94-7.22-4.94-1.53v2.06c0,.3-.18.62-.44.77-.23.13-.47.27-.73.41-.9.49-1.91,1.05-2.65,1.7-.72.63-1.38,1.44-1.89,2.35h0ZM9.84,25.65c-.23,0-.43-.07-.59-.21-.4-.35-.38-1.07-.36-1.7,0-.12,0-.23,0-.35,0-.21,0-.45,0-.7-.02-1.02-.04-2.28.19-3.28.2-.87.56-1.77,1.05-2.62h0c.55-.96,1.25-1.82,2.02-2.49.79-.7,1.84-1.28,2.76-1.78.25-.14.5-.28.72-.41.06-.03.14-.16.14-.23v-2.48c0-.09.05-.19.12-.24.08-.06.18-.08.27-.05l5.73,1.77c.09.03.17.1.2.2.03.09.02.19-.03.27l-5.74,8.4c-.07.11-.22.17-.34.12-.13-.03-.22-.16-.22-.3v-2.27l-1.17.67c-.19.1-.36.21-.52.37-.13.13-.24.29-.34.45-.3.51-.3.83-.29,1.28v2.18c0,.85-.57,1.85-1.31,2.27l-1.63.94c-.23.14-.46.2-.67.2Z"/>
      <path class="cls-1" d="M10.25,42.64c.73.43,1.74.37,2.86-.27l2.76-1.6c.75-.43,1.5-1.1,1.5-2.2v-1.88c0-.37-.13-.63-.34-.75-.22-.12-.51-.1-.82.08l-2.03,1.16c-.36.21-.65.34-.95.17-.3-.17-.31-.46-.31-.87v-1.62c0-.18.13-.41.29-.5l2.14-1.23-4.4-4.08-4.41,9.16,2.15-1.24c.17-.09.29-.02.29.17v2.55c0,1.41.39,2.44,1.27,2.95Z"/>
      <path class="cls-2" d="M8.83,36.62c.08,0,.15.03.23.06.16.1.24.25.24.46v2.55c0,1.36.38,2.26,1.1,2.69h.01c.66.38,1.57.29,2.55-.28l2.76-1.59c.9-.53,1.34-1.16,1.34-1.94v-1.88c0-.23-.07-.41-.18-.48-.12-.07-.3-.04-.51.08l-2.02,1.16c-.3.17-.76.44-1.25.16-.48-.26-.48-.75-.48-1.13v-1.62c0-.3.19-.63.45-.76l1.77-1.03-3.79-3.5-3.79,7.88,1.28-.74c.1-.06.19-.09.29-.09h0ZM11.31,43.22c-.45,0-.85-.1-1.22-.31h0c-.94-.54-1.42-1.63-1.42-3.22v-2.35l-1.97,1.14c-.12.06-.27.05-.36-.04-.09-.1-.13-.23-.07-.36l4.4-9.16c.05-.09.12-.16.22-.17.09-.02.2,0,.27.08l4.4,4.08c.08.07.11.16.11.26-.02.09-.07.18-.16.23l-2.14,1.23c-.07.04-.14.16-.14.24v1.62c0,.42.03.52.17.6.14.08.28.03.63-.17l2.02-1.17c.4-.23.8-.26,1.12-.08.31.18.5.56.5,1.02v1.88c0,1.01-.55,1.83-1.65,2.47l-2.76,1.59c-.69.4-1.35.59-1.95.59Z"/>
      <path class="cls-4" d="M25.58,7.12l-6.24-3.61h0c-.21.39-.32.7-.34,1.15v1.88c0,.31.06.56.34.75l6.24,3.6c-.27-.19-.32-.43-.34-.75v-1.88c.02-.44.13-.75.34-1.14h0Z"/>
      <path class="cls-2" d="M19.47,3.94c-.1.23-.15.43-.17.72v1.87c.02.28.06.38.21.5l5.42,3.13h0v-1.9c.02-.41.1-.71.24-1.02l-5.7-3.3h0ZM25.58,11.19c-.05,0-.11-.02-.15-.04l-6.25-3.61c-.43-.3-.48-.67-.5-1v-1.89c.03-.54.17-.89.38-1.29.03-.08.1-.13.18-.16.09-.02.17,0,.24.03l6.24,3.6c.08.05.14.14.15.23,0,.07,0,.14-.04.2-.17.33-.28.59-.29.99v1.86c0,.29.05.39.2.5.14.1.17.28.09.42-.06.1-.16.15-.26.15Z"/>
      <path class="cls-3" d="M22.08,25.43l-1.29.74,6.25,3.61,1.4-.81c.28-.17.46-.3.63-.49l-6.25-3.61c-.19.23-.4.36-.74.56Z"/>
      <path class="cls-2" d="M21.4,26.17l5.63,3.25,1.24-.71c.11-.06.19-.12.27-.17l-5.67-3.28c-.17.16-.37.29-.63.43l-.84.48h0ZM27.04,30.09c-.05,0-.11-.02-.16-.04l-6.24-3.61c-.09-.05-.15-.16-.15-.27,0-.1.06-.21.15-.26l1.29-.75h0c.34-.19.51-.3.66-.49.09-.11.26-.14.39-.07l6.24,3.61c.08.04.14.12.15.22.02.09,0,.18-.07.25-.2.24-.43.39-.71.56l-1.4.81s-.09.04-.15.04Z"/>
      <polygon class="cls-3" points="26.75 27.13 20.5 23.53 14.77 31.93 21.01 35.53 26.75 27.13"/>
      <path class="cls-2" d="M15.21,31.83l5.71,3.29,5.39-7.88-5.71-3.29-5.39,7.88h0ZM21.01,35.84c-.05,0-.1-.02-.16-.04l-6.24-3.61c-.08-.04-.13-.11-.15-.2-.02-.08,0-.16.04-.23l5.73-8.4c.09-.14.27-.17.41-.1l6.24,3.61c.08.04.13.11.15.19.02.09,0,.17-.04.24l-5.74,8.4c-.05.09-.15.14-.25.14Z"/>
      <path class="cls-1" d="M32.42,29.75c.68-1.16,1.11-2.44,1.18-3.65.07-1.14,0-2.32,0-3.43,0-.54.04-1.01-.34-1.23-.21-.12-.5-.11-.82.08l-1.62.94c-.64.36-1.16,1.26-1.16,2v2.06c0,.51.04.91-.33,1.56-.33.59-.63.73-1.03.96l-1.28.74c-.17.1-.29.02-.29-.17v-2.48l-5.74,8.4,5.74,1.78v-2.49c0-.18.12-.41.29-.5,1.97-1.15,3.83-1.88,5.39-4.58Z"/>
      <path class="cls-2" d="M32.42,29.75h0,0ZM21.5,35.36l4.94,1.53v-2.07c0-.3.18-.62.44-.77.28-.16.55-.31.82-.46,1.63-.9,3.16-1.75,4.47-4h0c.67-1.17,1.07-2.41,1.14-3.52.04-.77.03-1.58.02-2.36-.01-.36-.01-.71-.01-1.06v-.15c0-.5,0-.71-.19-.82-.11-.06-.3-.03-.5.08l-1.63.94c-.55.32-1.01,1.11-1.01,1.74v2.2c0,.47,0,.91-.37,1.56-.36.64-.69.83-1.08,1.04l-1.36.78c-.17.1-.36.1-.5.02-.16-.09-.24-.25-.24-.45v-1.48l-4.94,7.23h0ZM26.75,37.61s-.07,0-.1-.02l-5.73-1.77c-.1-.03-.17-.09-.2-.19-.03-.1-.02-.19.04-.28l5.73-8.4c.08-.1.22-.16.35-.12.13.04.22.16.22.3v2.28l1.18-.68c.35-.2.57-.33.85-.82.29-.5.29-.83.29-1.26v-2.2c0-.84.57-1.84,1.31-2.27l1.63-.94c.4-.23.81-.26,1.13-.08.5.29.5.82.5,1.35v.15c0,.35,0,.7,0,1.05.01.79.03,1.61-.03,2.4-.07,1.2-.5,2.55-1.22,3.79h0c-1.38,2.4-2.99,3.28-4.7,4.23-.27.15-.54.3-.82.45-.06.03-.13.17-.13.24v2.49c0,.09-.04.18-.12.24-.06.04-.12.06-.18.06Z"/>
      <path class="cls-2" d="M6.55,38.53c-.05,0-.11-.02-.16-.04l-3.8-2.2c-.15-.09-.2-.27-.11-.42.08-.15.27-.2.42-.11l3.81,2.19c.15.09.19.28.12.43-.06.1-.17.16-.27.16Z"/>
    </g>
  </g>
</svg>