<?xml version="1.0" encoding="UTF-8"?>
<svg id="Layer_2" data-name="Layer 2" xmlns="http://www.w3.org/2000/svg" viewBox="0 0 45.69 46.02" fill="currentColor">
  <defs>
    <style>
      .cls-1 {
        fill: #fff;
      }

      .cls-1, .cls-2, .cls-3, .cls-4 {
        fill-rule: evenodd;
      }

      .cls-2 {
        fill: #1a87c7;
      }

      .cls-3 {
        fill: #bdedf8;
      }

      .cls-4 {
        fill: #66ceef;
      }
    </style>
  </defs>
  <g id="_Layer_" data-name="&amp;lt;Layer&amp;gt;">
    <g>
      <path class="cls-4" d="M25.29,44.08l-.36.69c-.3.55-.95.78-1.53.89-.56.09-1.06.07-1.61-.07-.48-.14-.97-.36-1.23-.82l-.35-.69c1.59.47,3.49.47,5.08,0Z"/>
      <path class="cls-2" d="M20.8,44.54l.04.08c.17.3.5.51,1.04.67.49.12.95.14,1.48.06.67-.13,1.11-.37,1.32-.73l.04-.07c-1.26.26-2.65.26-3.91,0h0ZM22.74,46.02c-.34,0-.67-.04-1.02-.13-.71-.2-1.17-.52-1.42-.97l-.36-.69c-.06-.11-.04-.24.04-.34.08-.09.21-.13.32-.1,1.53.46,3.37.46,4.9,0,.12-.03.25,0,.32.1.08.1.09.23.04.34l-.35.69c-.3.54-.89.89-1.76,1.05-.25.04-.49.06-.72.06Z"/>
      <path class="cls-4" d="M26.69,43.49c1.49-.86,1.96-2.09,1.4-3.19l-1.07-2.07h-8.53l-1.07,2.07c-.56,1.1-.09,2.33,1.4,3.19,2.17,1.25,5.7,1.25,7.87,0Z"/>
      <path class="cls-2" d="M26.69,43.49h0,0ZM18.68,38.54l-.98,1.91c-.51.99-.03,2.02,1.28,2.78,2.08,1.2,5.47,1.2,7.56,0,1.31-.76,1.78-1.8,1.28-2.78l-.98-1.91h-8.16ZM22.75,44.74c-1.48,0-2.96-.33-4.09-.98-1.6-.92-2.18-2.3-1.52-3.59l1.07-2.08c.05-.1.16-.17.27-.17h8.53c.12,0,.22.07.27.17l1.07,2.08c.66,1.29.08,2.67-1.52,3.59h0c-1.13.65-2.61.98-4.09.98Z"/>
      <path class="cls-1" d="M34.09,17.82c1.57,4.96-.14,8.34-1.92,11.38-1.12,1.92-1.91,2.19-2.53,4.36-.37,1.31-.24,2.32-1.27,3.39-2.82,2.93-8.72,3.01-11.24,0-.95-1.14-.9-2.08-1.27-3.39-.62-2.18-1.41-2.45-2.53-4.36-1.77-3.04-3.49-6.42-1.91-11.38,1.61-5.09,6.47-7.64,11.34-7.64s9.72,2.55,11.34,7.64Z"/>
      <path class="cls-2" d="M22.75,10.49c-5.28,0-9.61,2.92-11.04,7.43-1.5,4.73.04,7.96,1.89,11.13.4.68.76,1.15,1.08,1.57.58.76,1.08,1.42,1.48,2.86.1.35.17.68.23.99.18.85.32,1.51.98,2.29,1.06,1.27,2.86,2.04,4.92,2.11,2.32.08,4.51-.71,5.87-2.13.68-.7.8-1.37.96-2.2.06-.33.13-.68.23-1.06.41-1.44.91-2.1,1.48-2.86.32-.42.68-.89,1.08-1.57,1.85-3.17,3.38-6.4,1.89-11.13-1.43-4.51-5.76-7.43-11.04-7.43h0ZM22.6,39.49c-.11,0-.23,0-.34,0-2.23-.08-4.19-.93-5.37-2.33-.75-.9-.92-1.7-1.11-2.56-.06-.3-.13-.61-.23-.95-.38-1.33-.82-1.92-1.38-2.66-.33-.43-.7-.92-1.11-1.63-1.92-3.29-3.52-6.66-1.94-11.62,1.51-4.77,6.08-7.86,11.63-7.86s10.12,3.08,11.63,7.86h0c1.57,4.97-.02,8.33-1.94,11.62-.41.71-.79,1.2-1.12,1.63-.56.74-1.01,1.33-1.38,2.66-.1.36-.16.69-.22,1.01-.16.86-.32,1.68-1.12,2.52-1.41,1.47-3.64,2.32-5.99,2.32Z"/>
      <path class="cls-1" d="M25.95,41.47c1.77-1.02,1.77-2.67,0-3.69-1.76-1.02-4.63-1.02-6.39,0-1.76,1.02-1.76,2.67,0,3.69,1.76,1.02,4.63,1.02,6.39,0Z"/>
      <path class="cls-2" d="M22.75,37.32c-1.1,0-2.2.24-3.04.73-.75.44-1.17,1-1.17,1.58s.42,1.14,1.17,1.58c1.68.97,4.41.97,6.09,0,.75-.43,1.17-1,1.17-1.58s-.41-1.14-1.17-1.58c-.84-.48-1.94-.73-3.04-.73h0ZM22.75,42.53c-1.21,0-2.43-.26-3.35-.8-.95-.55-1.48-1.3-1.48-2.11s.52-1.56,1.48-2.11c1.85-1.07,4.85-1.07,6.7,0,.95.55,1.48,1.3,1.48,2.11s-.52,1.56-1.48,2.11c-.92.53-2.14.8-3.35.8Z"/>
      <path class="cls-4" d="M26.69,41.79c1.49-.86,1.96-2.09,1.4-3.18l-1.07-2.08h-8.53l-1.07,2.08c-.56,1.09-.09,2.32,1.4,3.18,2.17,1.26,5.7,1.26,7.87,0Z"/>
      <path class="cls-2" d="M18.68,36.83l-.98,1.91c-.51.99-.03,2.03,1.28,2.78,2.08,1.2,5.47,1.2,7.56,0h0c1.31-.75,1.78-1.79,1.28-2.78l-.98-1.91h-8.16ZM22.75,43.03c-1.48,0-2.96-.33-4.09-.98-1.6-.92-2.18-2.3-1.52-3.59l1.07-2.08c.05-.1.16-.17.27-.17h8.53c.12,0,.22.07.27.17l1.07,2.08c.66,1.29.08,2.67-1.52,3.59h0c-1.13.65-2.61.98-4.09.98Z"/>
      <path class="cls-3" d="M26.74,33.52c2.2,1.27,2.2,3.33,0,4.6-2.2,1.27-5.76,1.27-7.96,0-2.2-1.27-2.2-3.33,0-4.6,2.2-1.27,5.76-1.27,7.96,0Z"/>
      <path class="cls-2" d="M22.75,32.88c-1.39,0-2.77.3-3.83.91-.96.56-1.5,1.28-1.5,2.03s.53,1.48,1.5,2.03c2.11,1.22,5.54,1.22,7.65,0,.96-.56,1.49-1.28,1.49-2.03s-.53-1.47-1.49-2.03h0c-1.06-.61-2.44-.91-3.83-.91h0ZM22.75,39.37c-1.5,0-2.99-.33-4.13-.99-1.16-.67-1.8-1.58-1.8-2.56s.64-1.89,1.8-2.57c2.28-1.31,5.99-1.31,8.27,0,1.16.67,1.8,1.58,1.8,2.57s-.64,1.89-1.8,2.56c-1.14.66-2.64.99-4.13.99Z"/>
      <path class="cls-4" d="M28.38,35.98v1.96c-.02.37-.19.77-.4,1.07-.77,1.1-2.35,1.68-3.62,1.89-1.85.31-4.18.09-5.78-.94-.66-.42-1.29-1.06-1.42-1.87l-.02-.15v-1.96c.03.23.06.4.16.62.49,1.17,1.94,1.87,3.1,2.18,2.03.55,4.75.38,6.55-.77.66-.42,1.29-1.06,1.42-1.87l.02-.16Z"/>
      <path class="cls-2" d="M17.44,37.43l.02.63c.13.8.86,1.37,1.28,1.64,1.38.89,3.57,1.24,5.57.9.58-.1,2.54-.52,3.41-1.77.2-.29.33-.63.35-.91v-.5c-.25.31-.58.59-.97.84-2.01,1.28-4.86,1.33-6.8.81-.64-.17-2.04-.65-2.86-1.64h0ZM22.74,41.34c-1.43,0-3.05-.3-4.34-1.12-.88-.56-1.43-1.3-1.56-2.08l-.02-.17v-1.99c0-.16.13-.3.29-.31.15-.02.3.11.32.27.03.21.05.35.13.53.54,1.28,2.35,1.85,2.89,2,2.14.57,4.73.27,6.31-.73.42-.27,1.15-.84,1.28-1.66l.02-.14c.02-.16.14-.28.32-.27.16,0,.29.14.29.31v1.96c-.02.41-.2.86-.46,1.24-.98,1.4-3,1.88-3.81,2.02-.5.08-1.07.14-1.66.14Z"/>
      <polygon class="cls-4" points="24.74 33.58 24.74 35.28 24.74 35.3 24.74 35.31 24.73 35.32 24.73 35.33 24.72 35.34 24.71 35.36 24.69 35.37 24.68 35.37 21.81 37.03 21.79 37.04 21.77 37.05 21.76 37.05 21.73 37.06 21.71 37.06 21.69 37.07 21.67 37.07 21.65 37.07 21.63 37.07 21.6 37.07 21.58 37.06 21.56 37.06 21.54 37.05 21.52 37.05 21.5 37.04 21.48 37.03 21.47 37.02 21.26 36.9 20.73 36.59 20.71 36.58 20.7 36.57 20.69 36.56 20.68 36.55 20.67 36.54 20.66 36.52 20.66 36.51 20.66 34.8 20.66 34.81 20.66 34.82 20.67 34.84 20.68 34.85 20.69 34.86 20.7 34.87 20.71 34.88 20.73 34.89 21.26 35.2 21.47 35.32 21.48 35.33 21.5 35.34 21.52 35.35 21.54 35.35 21.56 35.36 21.58 35.36 21.6 35.37 21.63 35.37 21.65 35.37 21.67 35.37 21.69 35.37 21.71 35.36 21.73 35.36 21.76 35.35 21.77 35.35 21.79 35.34 21.81 35.33 24.68 33.67 24.69 33.67 24.71 33.65 24.72 33.65 24.73 33.63 24.73 33.62 24.74 33.61 24.74 33.59 24.74 33.58"/>
      <path class="cls-2" d="M20.97,36.38l.65.38,2.82-1.6v-.99s-2.47,1.43-2.47,1.43c-.01,0-.06.03-.07.03l-.09.03s-.07.01-.09.02h-.08s-.09,0-.1,0c-.01,0-.09-.02-.1-.03-.01,0-.06-.02-.07-.03l-.4-.23v.99h0ZM21.64,37.38s-.09,0-.1-.01c-.01,0-.07-.01-.08-.02-.01,0-.06-.02-.07-.02-.01,0-.06-.03-.08-.04l-.74-.42s-.09-.06-.1-.07c-.02-.02-.05-.06-.06-.07,0-.02-.03-.06-.04-.08,0-.02-.02-.08-.02-.11v-1.73c0-.17.13-.3.3-.31.13-.01.25.07.3.19l.67.37,2.85-1.61c.04-.13.17-.21.31-.19.16,0,.28.17.28.33v1.7s0,.08-.01.09c0,.02-.02.06-.03.08-.01.02-.03.05-.04.07,0,0-.07.07-.07.08-.01.01-.05.04-.06.04l-2.87,1.66s-.06.03-.07.03c0,0-.09.03-.1.03-.01,0-.07.01-.08.01-.01,0-.06,0-.08,0Z"/>
      <path class="cls-3" d="M23.92,33.05l.76.44c.09.05.09.14,0,.19l-2.87,1.65c-.09.05-.24.05-.33,0h-.02s-.21-.13-.21-.13l-.53-.31c-.09-.05-.09-.14,0-.19l2.86-1.65c.09-.05.24-.05.33,0Z"/>
      <path class="cls-2" d="M24.52,33.76h0,0ZM21.18,34.8l.44.25,2.6-1.47-.45-.26-2.59,1.48h0ZM21.65,35.68c-.11,0-.23-.03-.32-.08l-.76-.44c-.14-.08-.22-.22-.22-.36s.08-.28.22-.36l2.87-1.66c.18-.11.45-.1.63,0l.76.44c.14.08.22.22.22.36,0,.14-.08.28-.22.36l-2.87,1.66c-.09.05-.2.08-.32.08Z"/>
      <path class="cls-2" d="M23.71,33.81h0c-.17,0-.31-.14-.31-.31,0-4.09,1.51-9.81,1.96-11.47.05-.16.21-.26.38-.22.16.05.26.22.21.38-.94,3.37-1.94,8.12-1.94,11.31,0,.17-.14.31-.31.31h0ZM21.77,34.92c-.17,0-.31-.14-.31-.31,0-3.01-.7-6.57-1.82-9.29-.07-.16,0-.34.17-.4.16-.06.34.01.4.17,1.15,2.79,1.87,6.44,1.87,9.53,0,.17-.14.31-.31.31Z"/>
      <path class="cls-2" d="M20.93,23.34c-.2.16-.48.56-.54.94l-.17,1.03c-.03.17,0,.23,0,.23.2-.16.48-.56.54-.94h0l.17-1.04c.03-.17,0-.23,0-.23h0ZM20.17,26.13c-.11,0-.22-.03-.31-.1-.13-.09-.32-.31-.24-.82l.17-1.04c.09-.54.46-1.12.87-1.33.24-.12.47-.12.65.01.12.09.32.31.24.81l-.17,1.04c-.09.55-.46,1.12-.87,1.33-.11.06-.23.09-.34.09Z"/>
      <path class="cls-2" d="M22.15,22.31c-.2.16-.47.56-.54.94l-.27,1.67c-.03.17,0,.23,0,.23.2-.16.47-.55.54-.94l.3.05-.3-.05.27-1.67c.03-.17,0-.23,0-.23h0ZM21.28,25.74c-.11,0-.22-.03-.31-.1-.13-.09-.32-.31-.24-.82l.27-1.67c.09-.55.46-1.12.87-1.33.23-.12.47-.12.65.01.12.09.32.31.24.82l-.27,1.67c-.09.55-.46,1.12-.87,1.33-.11.06-.23.09-.34.09Z"/>
      <path class="cls-2" d="M23.3,23.89h0,0ZM23.37,21.3c-.2.16-.47.57-.54.94l-.38,2.3c-.03.17,0,.23,0,.23.2-.16.47-.56.54-.94l.38-2.3c.03-.17,0-.23,0-.23h0ZM22.4,25.36c-.11,0-.22-.03-.31-.1-.12-.09-.32-.31-.24-.81l.38-2.3c.09-.55.46-1.12.87-1.33.23-.12.47-.12.65.01.12.09.32.32.24.81l-.38,2.3h0c-.09.55-.46,1.12-.87,1.33-.12.06-.23.09-.34.09Z"/>
      <path class="cls-2" d="M24.49,20.87c-.2.16-.48.56-.54.94l-.27,1.67c-.03.17,0,.23,0,.23.2-.16.48-.56.54-.94h0l.27-1.67c.03-.17,0-.23,0-.23h0ZM23.62,24.29c-.12,0-.22-.03-.32-.1-.12-.09-.32-.31-.24-.82l.27-1.67c.09-.55.46-1.12.87-1.34.23-.12.47-.12.65.01.12.09.32.31.24.82l-.27,1.67c-.09.55-.46,1.12-.87,1.33-.11.06-.23.09-.34.09Z"/>
      <path class="cls-2" d="M25.59,20.58c-.2.16-.47.56-.54.94l-.17,1.03c-.03.17,0,.23,0,.23.2-.16.47-.55.54-.94h0l.17-1.04c.03-.17,0-.23,0-.23h0ZM24.83,23.37c-.11,0-.22-.03-.31-.1-.12-.09-.32-.31-.24-.81l.17-1.03c.09-.55.46-1.12.87-1.34.23-.12.47-.12.65.01.12.09.32.31.24.82l-.17,1.04c-.09.55-.46,1.12-.87,1.33-.11.06-.23.09-.34.09Z"/>
      <path class="cls-2" d="M22.84,8.29c-.24,0-.43-.19-.43-.43V.43c0-.24.19-.43.43-.43s.43.19.43.43v7.43c0,.24-.19.43-.43.43Z"/>
      <path class="cls-2" d="M11.74,11.98c-.11,0-.22-.04-.3-.13l-5.22-5.21c-.17-.17-.17-.44,0-.61.17-.17.44-.17.61,0l5.21,5.21c.17.17.17.44,0,.61-.08.08-.19.13-.3.13Z"/>
      <path class="cls-2" d="M7.73,23.04H.43c-.24,0-.43-.19-.43-.43s.19-.43.43-.43h7.3c.24,0,.43.19.43.43s-.19.43-.43.43Z"/>
      <path class="cls-2" d="M33.95,11.98c-.11,0-.22-.04-.3-.13-.17-.17-.17-.44,0-.61l5.22-5.21c.17-.17.44-.17.61,0,.17.17.17.44,0,.61l-5.22,5.21c-.08.08-.19.13-.31.13Z"/>
      <path class="cls-2" d="M45.25,23.04h-7.3c-.24,0-.43-.19-.43-.43s.19-.43.43-.43h7.3c.24,0,.43.19.43.43s-.19.43-.43.43Z"/>
    </g>
  </g>
</svg>