<?xml version="1.0" encoding="UTF-8"?>
<svg id="Layer_2" data-name="Layer 2" xmlns="http://www.w3.org/2000/svg" viewBox="0 0 18.65 43.28" fill="currentColor">
  <defs>
    <style>
      .cls-1 {
        fill: #fff;
      }

      .cls-1, .cls-2, .cls-3, .cls-4 {
        fill-rule: evenodd;
      }

      .cls-2 {
        fill: #1a87c7;
      }

      .cls-3 {
        fill: #bdedf8;
      }

      .cls-4 {
        fill: #66ceef;
      }
    </style>
  </defs>
  <g id="_Layer_" data-name="&amp;lt;Layer&amp;gt;">
    <g>
      <path class="cls-4" d="M6.24,24.53v17.38c0,.29-.22.46-.45.63-.52.36-1.15.45-1.78.42-.51-.03-.96-.14-1.39-.42-.23-.17-.45-.34-.45-.63v-17.38c.08.37.35.59.66.76.53.26,1.08.33,1.66.29.63-.06,1.58-.33,1.74-1.05Z"/>
      <path class="cls-2" d="M2.5,25.44v16.48c0,.12.09.21.32.38.32.22.7.33,1.22.36.65.03,1.17-.09,1.58-.37.22-.17.31-.25.31-.37v-16.47c-.5.33-1.14.43-1.4.45-.71.05-1.29-.05-1.83-.31-.07-.04-.14-.09-.22-.14h0ZM4.2,43.28h-.19c-.64-.04-1.12-.19-1.55-.49-.25-.18-.58-.43-.58-.88v-17.38c0-.16.12-.29.28-.3.15-.03.3.09.33.24.04.22.19.38.51.56.43.21.9.3,1.49.25.6-.06,1.35-.3,1.46-.81.03-.16.17-.26.33-.24.15.02.28.15.28.3v17.38c0,.45-.33.69-.57.88-.49.32-1.08.49-1.78.49Z"/>
      <path class="cls-3" d="M2.74,23.71c.82-.47,2.15-.47,2.97,0,.82.48.82,1.24,0,1.72-.82.47-2.15.47-2.97,0-.82-.48-.82-1.24,0-1.72Z"/>
      <path class="cls-2" d="M4.23,23.66c-.48,0-.97.11-1.33.31-.29.18-.46.39-.46.59s.17.43.46.59c.72.42,1.94.42,2.67,0,.29-.16.46-.38.46-.59s-.17-.42-.46-.59c-.36-.21-.85-.31-1.33-.31h0ZM4.23,26.09c-.59,0-1.18-.13-1.64-.39-.5-.29-.77-.69-.77-1.13s.28-.83.77-1.12c.92-.53,2.36-.53,3.28,0,.5.29.77.69.77,1.12s-.27.84-.77,1.13c-.46.26-1.05.39-1.64.39Z"/>
      <polygon class="cls-3" points="4.23 24.8 3.37 24.32 3.37 14.72 4.23 15.22 4.23 24.8"/>
      <path class="cls-2" d="M3.68,24.13l.24.14v-8.88l-.24-.13v8.87h0ZM4.23,25.12c-.05,0-.1-.02-.15-.04l-.86-.5c-.09-.05-.15-.16-.15-.26v-9.59c0-.12.06-.21.15-.27.1-.05.21-.05.31,0l.85.5c.1.05.15.15.15.27v9.59c0,.11-.06.22-.15.27-.05.03-.1.04-.15.04Z"/>
      <path class="cls-3" d="M1.16,13.46l-.74-.42c-.2-.17-.1-.44,0-.63l3.18-5.52c.12-.18.31-.4.55-.31l.74.42c-.24-.09-.43.14-.55.31l-3.19,5.52c-.1.19-.2.47,0,.64Z"/>
      <path class="cls-2" d="M4,6.84s-.03.04-.15.22L.69,12.56c-.09.18-.07.24-.07.24l.18.1c.02-.06.05-.13.09-.21l3.19-5.53c.05-.08.1-.14.15-.19l-.22-.13h0ZM1.16,13.76c-.05,0-.11,0-.15-.04l-.74-.43c-.23-.18-.4-.49-.12-1.03l3.19-5.53c.35-.53.7-.54.93-.45l.79.44c.14.09.19.25.13.4-.07.15-.24.21-.39.16h0s-.07.02-.18.2l-3.17,5.5c-.09.18-.07.23-.07.24.12.09.15.28.05.41-.06.09-.15.13-.25.13Z"/>
      <path class="cls-1" d="M4.23,24.8v-9.59l-3.07-1.76c-.14-.08-.15-.33-.03-.57.03-.06.06-.12.1-.17l3.12-5.41c.44-.76.94-.06.68.4l-2.91,5.04,2.75,1.57c.08.03.14.12.14.26v9.78l-.78.44Z"/>
      <path class="cls-2" d="M4.74,7.28s-.06.06-.13.18l-3.12,5.41c-.05.08-.07.11-.08.15-.05.11-.06.2-.05.22l3.02,1.71c.1.05.16.15.16.27v9.05l.16-.09v-9.6l-2.74-1.57c-.07-.03-.12-.11-.14-.18-.02-.08-.01-.16.03-.23l2.91-5.04c.06-.1.02-.24-.02-.27h0ZM4.23,25.12c-.05,0-.1-.02-.15-.04-.1-.05-.15-.16-.15-.27v-9.41l-2.92-1.66c-.28-.16-.35-.57-.16-.97.02-.05.05-.11.08-.15l3.15-5.45c.31-.54.71-.56.97-.42.35.2.47.73.25,1.11l-2.76,4.78,2.49,1.42c.17.07.29.27.29.53v9.78c0,.1-.06.21-.15.26l-.78.45c-.05.03-.1.04-.15.04Z"/>
      <path class="cls-4" d="M16.41,18.93v17.38c0,.29-.22.46-.45.63-.53.36-1.15.45-1.78.42-.5-.03-.96-.14-1.39-.42-.23-.16-.45-.34-.45-.63v-17.38c.08.37.35.59.67.77.53.26,1.07.33,1.66.29.63-.06,1.58-.33,1.74-1.05Z"/>
      <path class="cls-2" d="M12.66,19.83v16.48c0,.12.1.21.32.38.32.22.7.33,1.22.36.65.03,1.17-.09,1.58-.37.22-.17.31-.25.31-.37v-16.47c-.49.33-1.14.42-1.4.44-.72.05-1.29-.05-1.82-.31-.07-.04-.15-.09-.22-.14h0ZM14.36,37.68h-.19c-.64-.04-1.12-.19-1.55-.49-.25-.18-.58-.42-.58-.88v-17.38c0-.16.12-.29.28-.3.15-.02.3.09.33.24.04.22.19.38.51.56.43.21.9.29,1.49.25.6-.06,1.35-.31,1.46-.81.03-.16.18-.26.33-.24.16.02.27.15.27.3v17.38c0,.45-.33.69-.57.88-.49.32-1.09.49-1.78.49Z"/>
      <path class="cls-3" d="M12.9,18.02c.82-.47,2.15-.47,2.97,0,.82.48.82,1.24,0,1.72-.82.47-2.15.47-2.97,0-.82-.48-.82-1.24,0-1.72Z"/>
      <path class="cls-2" d="M14.38,17.98c-.49,0-.97.1-1.33.31-.29.17-.46.38-.46.59s.17.42.46.59c.72.42,1.94.42,2.66,0,.29-.17.46-.38.46-.59s-.17-.43-.46-.59c-.36-.21-.85-.31-1.33-.31h0ZM14.38,20.4c-.59,0-1.18-.13-1.64-.4-.5-.28-.77-.69-.77-1.12s.27-.84.77-1.13c.92-.53,2.36-.53,3.28,0,.5.29.77.69.77,1.13s-.28.83-.77,1.12c-.46.27-1.05.4-1.64.4Z"/>
      <polygon class="cls-3" points="14.38 19.1 13.41 18.54 13.41 9.2 14.38 9.77 14.38 19.1"/>
      <path class="cls-2" d="M13.71,18.36l.36.21v-8.62l-.36-.21v8.62h0ZM14.38,19.41c-.06,0-.11-.02-.16-.04l-.97-.56c-.1-.05-.16-.16-.16-.27v-9.34c0-.1.06-.21.16-.26.09-.06.21-.06.31,0l.98.57c.1.05.15.16.15.26v9.33c0,.11-.06.22-.15.27-.05.03-.1.04-.15.04Z"/>
      <path class="cls-3" d="M12.16,2.28c.65-.74,1.17-1.21,2.06-1.67.8-.32,1.36-.44,2.16-.06l.91.52c-.68-.32-1.09-.28-1.81-.08-.91.36-1.41.76-2.11,1.46-.59.66-.94,1.17-1.37,1.96-.51,1.09-.76,1.88-.81,3.09.05,1.02.21,1.73,1.05,2.31l-.91-.52c-.73-.5-.91-1.05-1.03-1.9-.06-1.34.24-2.32.8-3.5.33-.62.63-1.07,1.06-1.62Z"/>
      <path class="cls-2" d="M12.4,2.47c-.41.52-.7.96-1.03,1.56-.51,1.09-.82,2.02-.76,3.34.08.53.17.9.41,1.22-.08-.32-.12-.68-.14-1.07.06-1.34.34-2.16.84-3.24.46-.84.82-1.37,1.42-2.04.72-.72,1.26-1.15,2.23-1.54.1-.03.19-.05.27-.07-.4-.06-.78.05-1.31.26-.85.45-1.34.9-1.94,1.58h0ZM12.24,10.13c-.05,0-.11-.02-.15-.04l-.91-.53c-.82-.57-1.05-1.18-1.18-2.12-.07-1.47.27-2.5.83-3.68.35-.65.65-1.11,1.09-1.68,0,0,0,0,.01-.02.64-.72,1.2-1.23,2.15-1.73.93-.37,1.55-.49,2.43-.07l.93.54c.14.08.19.26.12.41-.08.15-.26.2-.4.13-.58-.27-.91-.25-1.59-.06-.84.34-1.31.71-1.97,1.38-.56.63-.89,1.11-1.32,1.89-.47,1.01-.73,1.75-.78,2.97.04.96.2,1.55.91,2.04.13.1.17.28.08.42-.06.1-.16.15-.26.15Z"/>
      <path class="cls-1" d="M14.38,19.1v-9.33c-.83.38-1.58.37-2.14.05-.65-.37-1.05-1.18-1.05-2.31s.4-2.4,1.05-3.52h0c.65-1.12,1.54-2.09,2.52-2.67.99-.57,1.88-.63,2.53-.25l.02.02c.63.38,1.03,1.17,1.03,2.29s-.4,2.41-1.05,3.52h0c-.56.97-1.31,1.84-2.14,2.42v9.33l-.77.44Z"/>
      <path class="cls-2" d="M14.38,9.46c.06,0,.11.02.16.05.09.05.14.15.14.25v8.8l.16-.09v-9.15c0-.1.05-.2.13-.25.76-.54,1.48-1.36,2.03-2.3,0,0,.01,0,.01-.02.65-1.13,1.01-2.32,1.01-3.37,0-.97-.31-1.7-.88-2.03-.59-.34-1.38-.25-2.23.24-.91.52-1.76,1.43-2.41,2.55-.65,1.13-1.01,2.33-1.01,3.37s.32,1.71.89,2.05c.48.28,1.14.25,1.85-.07.04-.02.08-.03.13-.03h0ZM14.38,19.41c-.06,0-.11-.02-.16-.04-.1-.05-.15-.16-.15-.27v-8.88c-.74.24-1.43.19-1.98-.13-.78-.45-1.2-1.36-1.2-2.58,0-1.16.39-2.46,1.09-3.68.7-1.22,1.64-2.2,2.64-2.77,1.06-.61,2.06-.7,2.83-.25.78.47,1.2,1.38,1.2,2.57s-.38,2.45-1.08,3.66c0,0,0,.02,0,.02-.57.98-1.31,1.83-2.1,2.43v9.18c0,.1-.06.21-.15.27l-.78.44s-.1.04-.15.04Z"/>
      <path class="cls-3" d="M17.31,3.88c.05-1.65-1.06-2.3-2.47-1.43-1.41.87-2.59,2.91-2.64,4.57-.02.83.24,1.4.69,1.66,1.96,1.13,4.37-2.83,4.42-4.81Z"/>
      <path class="cls-2" d="M17.31,3.88h0,0ZM16.01,2.38c-.3,0-.64.11-1.01.35-1.33.82-2.45,2.76-2.49,4.31-.02.69.17,1.17.54,1.39.4.23.84.21,1.33-.07,1.34-.75,2.59-3.13,2.62-4.49.02-.67-.18-1.17-.53-1.38-.13-.08-.29-.11-.45-.11h0ZM13.62,9.2c-.31,0-.6-.09-.88-.24-.57-.33-.87-1.02-.84-1.94.05-1.77,1.28-3.89,2.79-4.82.78-.48,1.53-.57,2.1-.24.57.32.87,1.02.84,1.93h0c-.04,1.54-1.41,4.14-2.94,5.01-.36.2-.72.3-1.06.3Z"/>
    </g>
  </g>
</svg>