<?xml version="1.0" encoding="UTF-8"?>
<svg id="Layer_2" data-name="Layer 2" xmlns="http://www.w3.org/2000/svg" viewBox="0 0 16.93 41.41" fill="currentColor">
  <defs>
    <style>
      .cls-1, .cls-2, .cls-3, .cls-4 {
        fill-rule: evenodd;
      }

      .cls-1, .cls-5 {
        fill: #fff;
      }

      .cls-2 {
        fill: #1a87c7;
      }

      .cls-3 {
        fill: #bdedf8;
      }

      .cls-4 {
        fill: #66ceef;
      }
    </style>
  </defs>
  <g id="_Layer_" data-name="&amp;lt;Layer&amp;gt;">
    <g>
      <rect class="cls-5" x="13.53" y="33.05" height="2.3" transform="translate(-22.86 28.85) rotate(-60.05)"/>
      <path class="cls-2" d="M14.53,35.09c-.05,0-.11-.02-.16-.04l-1.99-1.15c-.15-.09-.19-.28-.11-.43.09-.14.26-.19.41-.11t.02,0l1.99,1.15c.14.08.19.27.11.42-.05.09-.16.15-.26.15Z"/>
      <polygon class="cls-4" points="4.74 35.43 4.74 35.44 6.74 36.58 6.74 36.58 6.87 36.65 7.01 36.72 7.16 36.76 7.32 36.8 7.48 36.83 7.65 36.84 7.82 36.84 7.99 36.83 8.16 36.81 8.34 36.78 8.52 36.72 8.7 36.67 8.89 36.6 9.08 36.51 9.27 36.43 9.47 36.32 9.49 36.3 9.68 36.18 9.87 36.06 10.06 35.92 10.24 35.78 10.42 35.63 10.6 35.47 10.77 35.3 10.94 35.13 11.11 34.94 11.28 34.74 11.45 34.53 11.6 34.32 11.76 34.11 11.91 33.89 12.06 33.66 12.19 33.43 12.32 33.19 12.45 32.96 12.56 32.72 12.67 32.48 12.78 32.23 12.87 31.99 12.96 31.74 13.04 31.5 13.04 31.5 13.11 31.26 13.16 31.02 13.21 30.78 13.25 30.54 13.29 30.32 13.32 30.08 13.33 29.86 13.33 29.63 13.33 29.57 13.33 29.56 13.33 21.75 16.63 19.84 14.64 18.7 11.34 20.6 11.34 28.71 11.33 28.93 11.3 29.16 11.27 29.4 11.23 29.63 11.18 29.88 11.12 30.11 11.05 30.34 11.05 30.34 10.97 30.6 10.88 30.84 10.79 31.08 10.68 31.33 10.58 31.57 10.46 31.81 10.34 32.05 10.21 32.28 10.07 32.52 9.92 32.74 9.77 32.96 9.61 33.18 9.46 33.39 9.29 33.6 9.12 33.79 8.95 33.98 8.78 34.15 8.6 34.32 8.43 34.48 8.25 34.63 8.07 34.78 7.88 34.91 7.69 35.04 7.51 35.15 7.47 35.17 7.28 35.28 7.09 35.37 6.9 35.45 6.72 35.52 6.54 35.58 6.35 35.63 6.17 35.65 6.01 35.68 5.83 35.69 5.66 35.69 5.49 35.67 5.33 35.65 5.18 35.61 5.03 35.57 4.89 35.51 4.74 35.43"/>
      <path class="cls-2" d="M6.86,36.3s.02.01.02.01l.51.19.43.03.63-.11.69-.28.91-.61.84-.81.91-1.23.69-1.38.25-.71s0-.02,0-.02l.25-1.34.03-.42v-7.88c0-.11.05-.21.15-.27l2.83-1.64-1.37-.79-2.99,1.72v7.63s.01.08.01.09l-.09.95-.23.99s0,.03,0,.03l-.48,1.24-.68,1.21-.82,1.09-.9.87-.78.55-.84.4-.56.15.59.34h0ZM7.83,37.15l-.56-.05-.65-.24s-.03-.02-.04-.03l-1.98-1.15c-.15-.08-.2-.25-.13-.4.04-.08.1-.13.18-.16.08-.03.17-.02.24.02l.51.19.42.03.63-.1.69-.28.91-.61.84-.8.91-1.23.7-1.38.25-.71s0-.02,0-.03l.24-1.11.04-.64v-7.88c0-.11.05-.21.15-.27l3.29-1.9c.1-.05.22-.05.31,0l1.98,1.14c.1.05.16.16.16.27,0,.11-.06.21-.16.26l-3.14,1.82v7.72l-.08.96-.22.98s0,.03-.02.04l-.48,1.23-.83,1.44-1.03,1.23-.93.79-.84.48-.8.28-.58.08Z"/>
      <polygon class="cls-3" points="11.33 7.39 11.33 15.2 13.33 16.34 13.33 8.22 13.31 8.01 13.28 7.81 13.25 7.62 13.2 7.43 13.16 7.26 13.1 7.09 13.03 6.94 13.01 6.9 12.93 6.75 12.86 6.61 12.76 6.48 12.66 6.36 12.55 6.25 12.43 6.15 12.32 6.05 12.19 5.97 10.2 4.83 10.33 4.9 10.45 5 10.56 5.09 10.67 5.21 10.77 5.33 10.87 5.47 10.95 5.61 11.03 5.76 11.04 5.78 11.11 5.94 11.17 6.11 11.22 6.28 11.27 6.48 11.29 6.67 11.32 6.87 11.33 7.08 11.34 7.29 11.34 7.32 11.33 7.33 11.33 7.39"/>
      <path class="cls-2" d="M11.64,15.02l1.37.79v-7.28s0-.08,0-.09l-.11-.94-.32-.73-.46-.47-.71-.42.18.73.05.67v.09l-.31.02h.3v7.63h0ZM13.33,16.66c-.06,0-.11-.02-.16-.04l-1.99-1.15c-.1-.05-.16-.15-.16-.27v-7.81s0-.03,0-.05h0s-.11-.98-.11-.98l-.32-.73-.36-.4-.21-.14c-.14-.09-.18-.28-.1-.42.09-.15.27-.19.42-.11l2.4,1.46.35.42.28.54.21.79.05.67s0,.09,0,.1v7.81c0,.11-.06.22-.16.27-.04.03-.09.04-.15.04Z"/>
      <polygon class="cls-3" points="14.52 1.93 12.53 .78 12.27 .65 12.01 .54 11.73 .45 11.45 .38 11.15 .33 10.84 .31 10.53 .31 10.21 .33 9.88 .37 9.55 .43 9.22 .52 8.88 .63 8.54 .76 8.19 .91 7.83 1.08 7.47 1.28 6.74 1.75 6.03 2.28 5.34 2.88 4.68 3.54 4.06 4.25 3.47 5.01 2.92 5.8 2.41 6.62 2.16 7.06 1.94 7.5 1.72 7.95 1.52 8.39 1.33 8.84 1.16 9.29 1 9.75 .85 10.2 .73 10.64 .63 11.07 .53 11.51 .45 11.94 .39 12.38 .35 12.8 .32 13.22 .31 13.64 .31 13.74 .3 13.75 .3 21.57 2.29 22.71 2.29 14.87 2.3 14.86 2.3 14.79 2.31 14.37 2.34 13.95 2.38 13.52 2.44 13.09 2.52 12.66 2.61 12.23 2.72 11.79 2.84 11.35 2.98 10.9 3.15 10.44 3.32 9.99 3.51 9.54 3.71 9.09 3.93 8.65 4.15 8.21 4.4 7.78 4.9 6.95 5.46 6.15 6.05 5.4 6.68 4.69 7.34 4.02 8.01 3.42 8.73 2.89 9.46 2.43 9.82 2.23 10.18 2.05 10.53 1.9 10.87 1.77 11.21 1.67 11.54 1.58 11.87 1.52 12.19 1.48 12.52 1.45 12.83 1.46 13.13 1.48 13.44 1.53 13.72 1.6 14 1.69 14.26 1.8 14.52 1.93"/>
      <path class="cls-2" d="M.62,21.38l1.37.8v-7.35l.09-1.34.24-1.33.38-1.36.53-1.38.66-1.36.24-.44.51-.84.56-.81.6-.77.63-.72.67-.68.71-.61.73-.56,1.13-.69,1.08-.47.71-.21.69-.11.39-.03-.65-.32-.51-.15-.56-.06h-.3l-.61.06-.94.24-1.02.43-.35.19-.71.45-.69.52-.67.59-.64.64-.61.69-.58.74-.54.78-.96,1.67-.59,1.32-.47,1.34-.31,1.28-.18,1.25-.03.82v7.74h0ZM2.29,23.02c-.05,0-.1,0-.16-.03l-1.98-1.15c-.1-.06-.16-.17-.16-.27v-7.81s.01-.07.01-.08l.03-.9.18-1.32.33-1.33.48-1.4.62-1.36.48-.89.52-.84.56-.82.6-.76.65-.72.67-.68.69-.62.73-.55,1.13-.69,1.1-.47.7-.21.68-.1.35-.03.66.03.63.12.59.22.28.15,2,1.16c.15.08.2.26.11.41-.08.15-.26.2-.41.13l-.5-.24-.52-.15-.56-.06h-.3l-.6.06-.63.14-.98.37-.69.36-.71.46-.69.51-.67.59-.64.64-.62.7-.57.75-.54.78-.97,1.67-.59,1.32-.47,1.34-.32,1.28-.18,1.25-.04.82v7.92c0,.11-.06.21-.16.27-.05.03-.1.03-.16.03Z"/>
      <polygon class="cls-4" points="5.6 26.21 3.61 25.06 .31 26.96 .31 34.85 .32 35.25 .35 35.65 .39 36.03 .45 36.39 .53 36.74 .63 37.07 .73 37.39 .85 37.69 1 37.97 1.16 38.25 1.34 38.51 1.52 38.74 1.73 38.95 1.95 39.15 2.17 39.32 2.42 39.48 4.4 40.63 4.16 40.47 3.93 40.3 3.71 40.1 3.51 39.89 3.32 39.65 3.15 39.4 2.99 39.12 2.84 38.84 2.72 38.54 2.61 38.22 2.52 37.89 2.44 37.54 2.38 37.17 2.34 36.8 2.31 36.4 2.3 35.99 2.3 28.11 5.6 26.21"/>
      <path class="cls-2" d="M.62,27.15l.03,8.48.18,1.05.31.89.29.53.34.45.38.37.59.38-.17-.33-.24-.65-.18-.71-.11-.77-.04-.83v-7.89c0-.11.06-.21.16-.26l2.83-1.64-1.37-.79-2.99,1.73h0ZM4.4,40.93c-.05,0-.11-.01-.15-.04l-2.24-1.3-.49-.4-.43-.49-.36-.57-.29-.62-.21-.68-.15-.75-.07-.8v-.43s0-7.88,0-7.88c0-.1.05-.21.15-.26l3.3-1.9c.1-.06.21-.06.31,0l1.99,1.15c.1.05.16.16.16.26,0,.11-.06.22-.16.27l-3.15,1.82.04,8.48.17,1.05.31.89.29.53.34.45.38.37.43.3c.15.09.19.28.11.42-.06.1-.17.15-.27.15Z"/>
      <path class="cls-1" d="M12.19,1.48c-.83.08-1.76.39-2.73.95-1.97,1.14-3.76,3.1-5.06,5.35-.66,1.14-1.19,2.36-1.56,3.57-.35,1.17-.54,2.33-.54,3.43,0,.04,0,.08,0,.11v7.81l3.29-1.9v-7.88c0-.6.11-1.23.3-1.88.2-.66.49-1.32.84-1.94.36-.61.78-1.19,1.26-1.69.45-.48.95-.89,1.47-1.18h0c.52-.3,1.02-.47,1.47-.51.48-.05.9.03,1.26.24.35.2.63.51.83.93l.02.03c.19.41.3.91.3,1.5v7.9l3.29-1.9v-7.8s0-.04,0-.07c0-1.11-.19-2.07-.54-2.84-.36-.8-.89-1.41-1.56-1.79h0c-.66-.38-1.45-.54-2.33-.45Z"/>
      <path class="cls-2" d="M12.19,1.48h0,0ZM12.65,1.77c-.14,0-.28,0-.42.02h0c-.83.08-1.71.39-2.61.91-1.86,1.07-3.62,2.93-4.94,5.23-.66,1.15-1.17,2.33-1.53,3.52-.35,1.17-.53,2.29-.53,3.35,0,.03,0,.09,0,.15v7.24s2.69-1.56,2.69-1.56v-7.63c0-.68.11-1.34.3-2.02.21-.68.5-1.36.87-2,.38-.65.82-1.24,1.3-1.76.49-.52,1.01-.94,1.54-1.24.03-.02.03-.03.04-.03.53-.3,1.06-.48,1.55-.53.53-.04,1.03.05,1.44.29.41.24.73.6.96,1.07.23.5.34,1.05.34,1.67,0,.05,0,.09,0,.13v7.24l2.68-1.55v-7.63c0-1.12-.17-2.04-.51-2.79-.34-.73-.82-1.29-1.43-1.64-.01,0-.02,0-.03-.02-.5-.28-1.06-.42-1.69-.42h0ZM2.29,23.02c-.05,0-.1,0-.16-.03-.09-.06-.15-.16-.15-.27v-7.93c0-1.11.19-2.3.56-3.52.36-1.23.9-2.46,1.58-3.64,1.38-2.4,3.22-4.34,5.17-5.46.99-.57,1.95-.9,2.86-.99h0c.93-.09,1.78.07,2.51.5,0,0,.02.01.03.02.71.42,1.27,1.06,1.65,1.9.38.83.57,1.83.57,2.97v7.88c0,.11-.05.22-.15.27l-3.3,1.9c-.09.05-.21.05-.3,0-.09-.05-.16-.16-.16-.27v-7.88c0-.55-.09-1.01-.26-1.4-.18-.37-.43-.64-.72-.82-.31-.18-.67-.24-1.07-.21-.42.04-.88.2-1.35.47,0,0-.02,0-.03.02-.49.3-.94.66-1.37,1.12-.45.48-.86,1.02-1.21,1.63-.35.61-.63,1.23-.82,1.87-.19.64-.29,1.24-.29,1.79v7.88c.01.11-.05.21-.15.27l-3.29,1.9c-.05.03-.1.03-.16.03Z"/>
      <path class="cls-3" d="M5.6,34.09v-7.88l-3.29,1.9v7.88c0,1.11.19,2.07.54,2.84.36.8.9,1.41,1.56,1.79h0c.66.37,1.45.54,2.32.45.84-.08,1.77-.39,2.74-.95.96-.57,1.89-1.32,2.73-2.21.88-.93,1.67-2,2.33-3.15h0c.66-1.14,1.19-2.36,1.56-3.58.34-1.16.54-2.33.54-3.44v-.03s0-.05.01-.09v-7.8l-3.3,1.91v7.8s0,.05,0,.08c0,.59-.11,1.23-.3,1.87h0c-.2.65-.48,1.31-.85,1.93-.36.62-.78,1.2-1.25,1.7-.45.47-.93.87-1.44,1.16l-.03.03c-.52.3-1.02.46-1.48.51-.47.04-.9-.04-1.25-.24h0c-.36-.21-.64-.53-.84-.96-.19-.42-.3-.93-.3-1.53Z"/>
      <path class="cls-2" d="M4.52,40.34s.03,0,.03.02c.62.36,1.34.5,2.15.42.83-.09,1.7-.39,2.61-.91.92-.53,1.82-1.25,2.66-2.15.86-.9,1.63-1.95,2.29-3.08.66-1.15,1.17-2.33,1.53-3.52.35-1.16.52-2.29.53-3.36,0-.07,0-.1,0-.15v-7.23l-2.68,1.55v7.63c0,.69-.11,1.35-.3,2.03,0,.01,0,.02,0,.03-.21.67-.5,1.33-.87,1.97-.37.64-.81,1.24-1.29,1.76-.48.51-.99.92-1.51,1.23-.57.33-1.11.52-1.63.57-.52.05-1-.05-1.41-.27,0,0-.02,0-.04-.02-.41-.23-.75-.62-.96-1.1-.22-.47-.32-1.03-.32-1.66v-7.34l-2.69,1.55v7.7c0,1.04.17,1.97.51,2.71.33.73.8,1.28,1.4,1.63h0ZM6.27,41.41c-.73,0-1.4-.17-1.99-.51,0,0-.03,0-.04-.02-.73-.42-1.29-1.07-1.68-1.93-.38-.83-.57-1.82-.57-2.96v-7.88c0-.11.06-.21.16-.26l3.29-1.9c.09-.06.22-.06.31,0,.1.05.16.16.16.26v7.88c0,.54.09,1.01.26,1.4.16.36.4.63.69.81,0,.01.02.01.03.02.3.17.66.24,1.07.21.43-.04.88-.2,1.35-.47.5-.3.97-.67,1.4-1.14.46-.48.87-1.03,1.22-1.63.35-.62.63-1.24.82-1.88,0-.01,0-.02,0-.03.18-.62.28-1.21.28-1.75v-7.88c0-.11.05-.21.15-.27l3.3-1.91c.09-.05.21-.05.3,0,.1.06.16.16.16.27v7.8l-.31.09.3.03c0,1.12-.19,2.31-.55,3.53-.37,1.24-.9,2.47-1.59,3.65-.68,1.18-1.48,2.26-2.36,3.2-.89.94-1.83,1.71-2.81,2.26-.98.57-1.94.9-2.85.99-.17.02-.33.03-.49.03Z"/>
      <path class="cls-2" d="M13.33,22.05c-.05,0-.11,0-.15-.03l-1.99-1.15c-.15-.09-.2-.28-.11-.43.09-.15.27-.19.42-.11l1.99,1.15c.15.09.2.28.12.43-.06.09-.16.15-.27.15Z"/>
      <path class="cls-2" d="M2.3,28.42c-.05,0-.1-.02-.16-.04l-1.9-1.1c-.15-.09-.2-.28-.11-.42.08-.15.27-.19.42-.11l1.89,1.1c.15.08.2.27.11.42-.05.09-.16.16-.26.16Z"/>
    </g>
  </g>
</svg>