<?xml version="1.0" encoding="UTF-8"?>
<svg id="Layer_2" data-name="Layer 2" xmlns="http://www.w3.org/2000/svg" viewBox="0 0 77.53 92.11" fill="currentColor">
  <defs>
    <style>
      .cls-1 {
        fill: #fff;
      }

      .cls-1, .cls-2, .cls-3, .cls-4 {
        fill-rule: evenodd;
      }

      .cls-2 {
        fill: #1a87c7;
      }

      .cls-3 {
        fill: #bdedf8;
      }

      .cls-4 {
        fill: #66ceef;
      }
    </style>
  </defs>
  <g id="_Layer_" data-name="&amp;lt;Layer&amp;gt;">
    <g>
      <path class="cls-4" d="M67.08,84.79l-1.11-1.63c6.49-8.25,5.53-17.6,2.78-25.69l1.77-1.43c3.08,9.1,3.74,19.74-3.44,28.76Z"/>
      <path class="cls-2" d="M66.74,83.18l.38.56c5.39-7.23,6.43-16.19,3.1-26.67l-.73.6c3.37,10.26,2.47,18.61-2.74,25.51h0ZM67.08,85.41h-.02c-.19-.01-.38-.11-.49-.27l-1.11-1.63c-.16-.22-.14-.52.02-.72,5.27-6.7,6.14-14.92,2.69-25.11-.08-.24,0-.51.19-.68l1.76-1.43c.16-.13.37-.17.55-.12.21.05.35.2.42.39,3.88,11.42,2.64,21.57-3.53,29.34-.12.15-.29.24-.49.24Z"/>
      <path class="cls-4" d="M64.65,91.43c3.44-.51,5.84-3.73,5.32-7.18-.5-3.46-3.72-5.85-7.18-5.33-3.46.51-5.84,3.73-5.33,7.18.52,3.46,3.74,5.84,7.19,5.33Z"/>
      <path class="cls-2" d="M63.73,79.45c-.28,0-.56.02-.85.06-3.11.46-5.27,3.37-4.82,6.49.47,3.11,3.35,5.27,6.48,4.81h0c1.51-.22,2.85-1.02,3.76-2.25.92-1.22,1.28-2.73,1.06-4.24-.21-1.51-1.01-2.84-2.24-3.75-.99-.74-2.17-1.13-3.39-1.13h0ZM64.65,91.43h.02-.02ZM63.71,92.11c-3.39,0-6.36-2.49-6.87-5.93-.55-3.79,2.07-7.33,5.86-7.88,1.83-.28,3.67.18,5.17,1.29,1.48,1.11,2.45,2.73,2.73,4.56.26,1.83-.19,3.66-1.3,5.16-1.12,1.49-2.73,2.46-4.55,2.72h0c-.35.05-.68.08-1.03.08Z"/>
      <path class="cls-3" d="M8.59,54.36l6.07-3.5.43-.14c.94-.27,1.98-.29,2.95-.15,2.73.42,5.44,2.22,7.42,4.08,4.22,3.96,7.6,10.27,8.09,16.08.17,1.99,0,4.24-.85,6.08-.33.71-.82,1.44-1.39,1.99l-.35.31-6.07,3.5c.24-.22.45-.4.68-.64.66-.75,1.15-1.71,1.46-2.66.85-2.7.54-5.98-.19-8.68-1.44-5.39-5.09-11.11-9.7-14.31-1.77-1.23-4-2.28-6.2-2.33-.61-.01-1.32.06-1.91.24l-.43.14Z"/>
      <path class="cls-2" d="M11.49,53.39c2.36.2,4.55,1.4,6,2.41,4.5,3.12,8.39,8.87,9.94,14.66.52,1.95,1.25,5.71.17,9.03-.1.37-.26.73-.41,1.09l3.46-2,.24-.24c.47-.45.94-1.11,1.25-1.79.89-1.92.92-4.2.8-5.78-.45-5.38-3.64-11.68-7.89-15.68-1.36-1.26-4.07-3.45-7.11-3.91-.94-.15-1.9-.11-2.68.13l-.42.14-3.35,1.95h0ZM24.9,83.22c-.19,0-.37-.09-.49-.26-.19-.25-.16-.61.09-.82.24-.22.41-.38.61-.6.56-.63,1.04-1.49,1.34-2.44.97-3.02.29-6.52-.19-8.34-1.48-5.52-5.2-11-9.46-13.96-2.02-1.39-4.1-2.18-5.87-2.22-.58-.02-1.22.07-1.72.21l-.42.14c-.29.1-.62-.04-.74-.33-.14-.29-.02-.63.26-.79l6.05-3.5.56-.2c.97-.28,2.12-.34,3.23-.17,3.36.52,6.31,2.88,7.75,4.24,4.55,4.25,7.8,10.73,8.27,16.47.16,1.72.1,4.23-.9,6.39-.39.83-.92,1.6-1.51,2.18l-.37.32-6.17,3.57c-.09.06-.21.08-.31.08Z"/>
      <path class="cls-1" d="M15.96,82.31c-6.4-3.69-11.58-12.67-11.58-20.06s5.18-10.38,11.58-6.69c6.39,3.69,11.6,12.69,11.6,20.07s-5.2,10.37-11.6,6.68Z"/>
      <path class="cls-2" d="M16.28,81.78c2.9,1.67,5.57,1.96,7.58.81,1.98-1.15,3.08-3.62,3.08-6.96,0-7.18-5.06-15.95-11.28-19.54-2.89-1.67-5.58-1.96-7.56-.81-2,1.15-3.1,3.63-3.1,6.97,0,7.18,5.06,15.94,11.29,19.53h0ZM21.14,84.52c-1.7,0-3.56-.56-5.49-1.67h0c-6.56-3.78-11.89-13.03-11.89-20.6,0-3.8,1.32-6.65,3.7-8.03,2.4-1.38,5.53-1.09,8.82.81,6.55,3.78,11.89,13.03,11.89,20.6,0,3.8-1.3,6.65-3.7,8.03-.99.58-2.11.86-3.32.86Z"/>
      <path class="cls-1" d="M49.96,29.02l6.53-3.77.47-.16c1.01-.29,2.14-.31,3.18-.16,2.94.46,5.86,2.39,8,4.4,4.55,4.26,8.19,11.07,8.71,17.32.17,2.15,0,4.57-.92,6.55-.36.78-.89,1.56-1.49,2.15l-.37.33-6.53,3.77c.26-.24.49-.43.71-.7.71-.8,1.25-1.84,1.56-2.86.94-2.91.59-6.45-.19-9.35-1.55-5.8-5.48-11.97-10.45-15.42-1.91-1.33-4.31-2.46-6.68-2.51-.66-.02-1.42.07-2.07.26l-.47.15Z"/>
      <path class="cls-2" d="M52.93,28.01c2.59.18,5,1.5,6.59,2.6,4.84,3.35,9.04,9.54,10.69,15.76.57,2.09,1.34,6.13.19,9.7-.14.45-.31.89-.52,1.3l3.87-2.24.26-.26c.5-.49,1-1.21,1.36-1.94.97-2.08,1.01-4.54.85-6.24-.47-5.81-3.89-12.61-8.5-16.92-1.46-1.37-4.4-3.73-7.68-4.24-1.01-.15-2.05-.11-2.9.14l-.46.15-3.75,2.18h0ZM67.54,60.07c-.19,0-.38-.09-.5-.26-.19-.26-.14-.61.08-.82.26-.24.47-.41.68-.64.59-.69,1.12-1.63,1.45-2.65,1.04-3.27.31-7.05-.21-9.01-1.6-5.96-5.6-11.87-10.2-15.07-2.17-1.51-4.43-2.36-6.35-2.4-.65-.02-1.32.07-1.88.23l-.45.15c-.29.1-.62-.05-.74-.34-.14-.29-.02-.63.24-.79l6.53-3.77.59-.21c1.04-.3,2.28-.36,3.46-.18,3.62.56,6.76,3.09,8.33,4.55,4.89,4.58,8.38,11.53,8.9,17.72.16,1.84.11,4.54-.97,6.86-.4.89-.99,1.71-1.63,2.33l-.38.35-6.63,3.85c-.1.05-.2.08-.31.08Z"/>
      <path class="cls-3" d="M57.91,59.13c-6.9-3.98-12.48-13.66-12.48-21.62s5.58-11.19,12.48-7.21c6.88,3.98,12.48,13.66,12.48,21.62s-5.6,11.18-12.48,7.21Z"/>
      <path class="cls-2" d="M52.33,29.22c-1.08,0-2.07.25-2.94.75-2.15,1.25-3.35,3.93-3.35,7.55,0,7.75,5.46,17.21,12.17,21.08h0c3.15,1.81,6.07,2.12,8.23.88,2.15-1.25,3.33-3.92,3.33-7.55,0-7.75-5.45-17.21-12.17-21.09-1.88-1.08-3.67-1.62-5.27-1.62h0ZM63.49,61.46c-1.83,0-3.83-.61-5.89-1.8-7.06-4.07-12.78-14-12.78-22.14,0-4.08,1.41-7.14,3.96-8.62,2.54-1.47,5.89-1.16,9.42.87,7.06,4.07,12.8,14.01,12.8,22.15,0,4.08-1.41,7.14-3.96,8.61-1.06.61-2.26.92-3.55.92Z"/>
      <path class="cls-1" d="M5.15,54.88l6.54-3.77.47-.16c1.01-.29,2.14-.31,3.18-.16,2.96.46,5.86,2.39,8,4.4,4.56,4.27,8.19,11.07,8.71,17.32.17,2.15,0,4.57-.92,6.56-.35.77-.89,1.55-1.5,2.15l-.36.33-6.54,3.77c.26-.23.49-.42.71-.69.71-.81,1.25-1.84,1.58-2.87.92-2.91.58-6.45-.19-9.35-1.57-5.8-5.5-11.97-10.47-15.42-1.91-1.33-4.31-2.46-6.68-2.51-.66-.01-1.42.07-2.05.26l-.49.15Z"/>
      <path class="cls-2" d="M8.12,53.88c2.6.18,5,1.5,6.6,2.6,4.82,3.35,9.02,9.54,10.69,15.76.56,2.09,1.32,6.14.19,9.7-.16.45-.33.89-.54,1.3l3.88-2.23.26-.26c.52-.49,1.01-1.2,1.36-1.94.97-2.08,1.01-4.54.87-6.24-.48-5.81-3.91-12.61-8.51-16.92-1.46-1.36-4.4-3.73-7.67-4.23-1.03-.16-2.07-.11-2.92.14l-.45.15-3.75,2.18h0ZM22.72,85.94c-.19,0-.38-.09-.5-.26-.17-.26-.14-.61.09-.82.28-.24.47-.41.68-.64.61-.68,1.11-1.62,1.44-2.65,1.04-3.27.33-7.05-.2-9.01-1.6-5.96-5.6-11.87-10.21-15.07-2.17-1.51-4.43-2.36-6.35-2.4-.64-.01-1.32.07-1.88.23l-.43.15c-.31.1-.63-.04-.76-.33-.12-.29-.02-.63.26-.79l6.52-3.77.59-.2c1.05-.3,2.28-.37,3.46-.18,3.62.56,6.78,3.09,8.33,4.55,4.9,4.58,8.39,11.53,8.9,17.72.15,1.85.12,4.54-.97,6.86-.4.89-.97,1.72-1.62,2.33l-.4.35-6.62,3.85c-.1.06-.21.08-.31.08Z"/>
      <path class="cls-3" d="M13.09,85c-6.89-3.98-12.48-13.65-12.48-21.61s5.6-11.19,12.48-7.21c6.88,3.98,12.48,13.66,12.48,21.62s-5.6,11.18-12.48,7.21Z"/>
      <path class="cls-2" d="M7.53,55.09c-1.09,0-2.08.25-2.95.75-2.16,1.25-3.34,3.93-3.34,7.55,0,7.75,5.45,17.21,12.17,21.08,3.13,1.81,6.05,2.12,8.21.88,2.15-1.25,3.35-3.93,3.35-7.55,0-7.75-5.48-17.21-12.18-21.09-1.86-1.08-3.65-1.62-5.25-1.62h0ZM18.67,87.33c-1.82,0-3.83-.6-5.89-1.8-7.04-4.07-12.78-14-12.78-22.14,0-4.08,1.41-7.14,3.97-8.62,2.55-1.47,5.91-1.16,9.44.88,7.04,4.07,12.8,14.01,12.8,22.15,0,4.08-1.41,7.14-3.97,8.61-1.07.62-2.27.92-3.56.92Z"/>
      <path class="cls-4" d="M52.78,15c-.57-1.99-1.4-4-2.85-5.52h0c4.61,1.03,7.75,5.16,8.26,11.69.04.6.07,6.04.07,6.69,0,.87-.03,1.64-.12,2.53v.06l-.23-.14c-1.74-1-3.39-1.54-4.91-1.67h0c.7-3.11.5-10.39-.22-13.64Z"/>
      <path class="cls-2" d="M53.74,28.1c1.25.19,2.54.64,3.86,1.33.04-.51.04-1.02.04-1.57,0-.77-.02-6.08-.07-6.64-.38-5.19-2.51-8.91-5.91-10.51.68,1.12,1.25,2.46,1.72,4.12v.03c.68,2.98.94,9.71.37,13.24h0ZM58.08,31.05c-.09,0-.17-.03-.26-.07l-.23-.14c-1.62-.93-3.18-1.47-4.64-1.59-.18-.01-.34-.1-.44-.25-.1-.14-.14-.32-.1-.5.7-3.13.46-10.28-.24-13.35-.66-2.36-1.53-4.02-2.69-5.24-.17-.18-.23-.45-.12-.67.11-.23.31-.37.57-.37,5.18,1.15,8.36,5.61,8.87,12.26.05.67.07,6.35.07,6.73,0,.91-.03,1.71-.12,2.58-.02.2-.14.42-.33.52-.1.05-.21.08-.33.08Z"/>
      <path class="cls-4" d="M37.65,2.1c4.64-1.72,8.71-2.26,13.23.11l4.87,2.81c-3.37-1.77-6.07-1.88-9.77-1.18-10.12,2.51-17.73,10.75-23.12,19.27-4.21,7.04-6.85,13.81-7.7,22.01-.05,3.19-.24,6.54-.05,9.75-1.72-1-3.37-1.54-4.87-1.67-.05-3.17-.05-6.25-.03-9.44.49-7.65,2.62-13.9,6.15-20.66C21.35,14.2,28.11,6.21,37.65,2.1Z"/>
      <path class="cls-2" d="M10.85,52.64c1.17.17,2.37.56,3.6,1.17-.07-2-.02-4.05.04-6.03.03-.9.05-1.8.07-2.68.8-7.77,3.2-14.63,7.77-22.32,6.85-10.8,14.74-17.37,23.5-19.55,1.76-.33,3.37-.5,4.97-.37l-.23-.13c-4.68-2.45-8.87-1.49-12.69-.07-8.21,3.54-15.26,10.51-20.98,20.72-3.81,7.31-5.63,13.41-6.08,20.39-.02,2.98,0,5.88.03,8.85h0ZM15.11,55.48c-.11,0-.21-.03-.31-.08-1.6-.93-3.16-1.46-4.61-1.59-.31-.03-.56-.29-.57-.61-.04-3.17-.05-6.25-.04-9.44.47-7.2,2.33-13.46,6.24-20.94C21.68,12.34,28.95,5.18,37.41,1.54c0,0,.02,0,.03-.01,4.09-1.52,8.59-2.55,13.73.14l4.88,2.82c.28.17.38.54.23.83-.15.29-.53.4-.82.25-3.39-1.78-6.01-1.76-9.39-1.13-8.39,2.1-16.04,8.49-22.7,18.99-4.49,7.5-6.83,14.22-7.61,21.74,0,.84-.04,1.73-.05,2.64-.07,2.32-.14,4.72,0,7.01.02.23-.09.44-.28.56-.11.06-.23.09-.33.09Z"/>
      <path class="cls-3" d="M56.27,58.72c-6.24-3.61-11.3-12.37-11.3-19.58s5.06-10.14,11.3-6.53c6.24,3.6,11.31,12.38,11.31,19.59s-5.07,10.13-11.31,6.52Z"/>
      <path class="cls-2" d="M51.23,31.67c-.97,0-1.86.22-2.64.67-1.93,1.12-3.01,3.53-3.01,6.79,0,7,4.94,15.55,11,19.05,2.81,1.62,5.44,1.91,7.39.79,1.93-1.12,2.99-3.53,2.99-6.79,0-7.01-4.94-15.55-11-19.06-1.69-.97-3.29-1.46-4.73-1.46h0ZM61.33,60.88c-1.67,0-3.47-.55-5.37-1.63-6.4-3.69-11.61-12.72-11.61-20.12,0-3.71,1.29-6.51,3.64-7.85,2.33-1.35,5.39-1.07,8.6.79,6.4,3.7,11.61,12.73,11.61,20.12,0,3.71-1.29,6.5-3.62,7.85-.97.56-2.07.84-3.25.84Z"/>
      <path class="cls-4" d="M56.27,55.29c-4.61-2.66-8.34-9.13-8.34-14.45s3.74-7.48,8.34-4.82c4.61,2.66,8.34,9.13,8.34,14.45s-3.74,7.47-8.34,4.82Z"/>
      <path class="cls-2" d="M56.59,54.76c2.03,1.17,3.91,1.38,5.28.58,1.37-.79,2.14-2.52,2.14-4.86,0-5.11-3.62-11.35-8.05-13.92-2.01-1.17-3.89-1.38-5.27-.58-1.39.8-2.14,2.53-2.14,4.87,0,5.11,3.6,11.35,8.03,13.91h0ZM60.01,57.05c-1.25,0-2.63-.41-4.05-1.23h0c-4.76-2.75-8.64-9.47-8.64-14.98,0-2.8.97-4.91,2.75-5.93,1.77-1.03,4.08-.82,6.52.58,4.76,2.75,8.64,9.47,8.64,14.98,0,2.8-.97,4.91-2.75,5.93-.73.43-1.58.64-2.47.64Z"/>
      <path class="cls-3" d="M38.89,6.69c13.17-7.6,23.85-1.44,23.85,13.77l-.02,5.83c0,.55-.04.99-.09,1.56l-4.5,2.6c.09-.91.12-1.7.12-2.58,0-.64-.03-6.08-.07-6.69-.85-10.97-9.16-15.15-19.29-9.31-10.3,5.95-18.71,20.07-19.33,32.14-.02.47-.03,5.75-.03,6.21,0,.76.03,1.49.11,2.19l-.33.24-4.19,2.22c-.05-.66-.07-1.35-.07-2.05,0-.75.04-6.32.08-7.08.97-14.73,11.25-31.81,23.77-39.03Z"/>
      <path class="cls-2" d="M39.2,7.22c-12.18,7.04-22.5,23.97-23.47,38.55-.05.72-.08,6.15-.08,7.04,0,.36.02.71.04,1.05l3.3-1.74c-.05-.61-.07-1.25-.07-1.9,0-.36,0-5.74.03-6.24.63-12.31,9.25-26.64,19.63-32.64,5.21-3,10.17-3.55,13.99-1.54,3.6,1.9,5.81,5.93,6.22,11.33.05.67.07,6.35.07,6.73,0,.52,0,1-.03,1.47l3.23-1.86c.02-.42.05-.77.05-1.19l.02-5.82c0-7.12-2.38-12.41-6.69-14.9-4.3-2.48-10.07-1.89-16.24,1.67h0ZM15.11,55.48c-.11,0-.21-.02-.29-.08-.19-.1-.31-.29-.31-.5-.05-.68-.07-1.37-.07-2.09,0-.66.02-6.33.07-7.13.99-14.94,11.58-32.31,24.08-39.52h0c6.57-3.79,12.78-4.39,17.49-1.67,4.7,2.72,7.28,8.39,7.28,15.97v5.83c-.02.55-.05,1-.08,1.56-.02.2-.14.43-.31.53l-4.52,2.6c-.19.12-.43.12-.62-.02-.21-.12-.31-.35-.28-.58.07-.86.11-1.62.11-2.52,0-.77-.02-6.08-.07-6.64-.36-4.97-2.34-8.63-5.58-10.33-3.41-1.81-7.96-1.27-12.78,1.51-10.07,5.81-18.41,19.7-19.02,31.63-.04.44-.04,5.59-.04,6.18,0,.74.02,1.45.09,2.14.02.22-.07.42-.26.56l-.33.24-4.24,2.26c-.11.05-.19.07-.3.07Z"/>
      <path class="cls-1" d="M12.48,81.02c-4.83-2.78-8.74-9.55-8.74-15.13s3.91-7.83,8.74-5.05c4.82,2.78,8.73,9.56,8.73,15.13s-3.91,7.83-8.73,5.04Z"/>
      <path class="cls-2" d="M12.78,80.49c2.14,1.23,4.12,1.45,5.58.61,1.44-.83,2.24-2.66,2.24-5.12,0-5.37-3.79-11.92-8.43-14.6-2.13-1.23-4.1-1.45-5.56-.61-1.44.84-2.24,2.66-2.24,5.12,0,5.37,3.77,11.92,8.41,14.6h0ZM16.38,82.83c-1.3,0-2.73-.43-4.21-1.28h0c-4.99-2.88-9.04-9.9-9.04-15.66,0-2.93,1.01-5.12,2.87-6.19,1.85-1.07,4.25-.85,6.78.61,4.99,2.88,9.05,9.91,9.05,15.67,0,2.92-1.03,5.12-2.87,6.19-.79.45-1.66.67-2.59.67Z"/>
    </g>
  </g>
</svg>