<?xml version="1.0" encoding="UTF-8"?>
<svg id="Layer_2" data-name="Layer 2" xmlns="http://www.w3.org/2000/svg" viewBox="0 0 29.82 41.21" fill="currentColor">
  <defs>
    <style>
      .cls-1 {
        fill: #fff;
      }

      .cls-1, .cls-2, .cls-3, .cls-4 {
        fill-rule: evenodd;
      }

      .cls-2 {
        fill: #1a87c7;
      }

      .cls-3 {
        fill: #bdedf8;
      }

      .cls-4 {
        fill: #66ceef;
      }
    </style>
  </defs>
  <g id="_Layer_" data-name="&amp;lt;Layer&amp;gt;">
    <g>
      <path class="cls-1" d="M15.11,40.91c.75,0,1.51-.18,2.09-.5.58-.33.87-.77.87-1.2s-.29-.88-.87-1.21c-.57-.33-1.33-.5-2.09-.5s-1.5.17-2.08.5c-.58.33-.87.78-.87,1.21s.29.87.87,1.2c.57.33,1.33.5,2.08.5Z"/>
      <path class="cls-2" d="M15.11,37.8c-.73,0-1.42.17-1.93.46-.45.26-.7.6-.7.94s.25.67.7.94c1.03.58,2.84.58,3.87,0,.45-.27.7-.6.7-.94s-.25-.68-.7-.94c-.51-.29-1.2-.46-1.94-.46h0ZM15.11,41.21h0c-.84,0-1.64-.19-2.24-.54-.66-.38-1.02-.9-1.02-1.47s.36-1.1,1.02-1.47c1.21-.7,3.27-.7,4.48,0,.66.37,1.02.9,1.02,1.47s-.36,1.08-1.02,1.47c-.6.35-1.4.54-2.24.54Z"/>
      <path class="cls-4" d="M17.2,40.39c.43-.25.85-.64.87-1.16v-15.25c-.06.95-1.24,1.42-2.04,1.57-1.08.2-2.58.04-3.41-.71-.25-.24-.43-.51-.45-.86v15.25c.03.69.75,1.15,1.33,1.38,1.13.42,2.64.37,3.7-.22Z"/>
      <path class="cls-2" d="M17.2,40.39h0,0ZM12.48,25.12v14.11c.02.5.59.89,1.12,1.09,1.09.41,2.5.33,3.45-.2.26-.16.69-.48.7-.9v-14.09c-.44.37-1.08.61-1.67.72-1.1.21-2.68.06-3.61-.73h0ZM15.11,41.19c-.59,0-1.19-.1-1.73-.3-.35-.14-1.5-.64-1.52-1.66v-15.26c0-.17.13-.3.3-.31.17-.02.31.12.32.29,0,.24.12.45.35.66.72.67,2.13.83,3.14.63.64-.11,1.75-.52,1.79-1.29,0-.16.15-.29.31-.29h0c.16,0,.3.14.3.31v15.25c-.02.55-.37,1.05-1.02,1.43h0c-.64.36-1.43.54-2.24.54Z"/>
      <path class="cls-1" d="M17.32,23.08l2.44.22,5.29.47,3.35-1.93c.37-.22.83-.38,1.04-.96.24-.63-.23-.99-.45-1.3l-1.49-2.12-7.74-.69c.03.55,0,1.15-.13,1.77-.33,1.6-1.18,3.26-2.32,4.54Z"/>
      <path class="cls-2" d="M17.94,22.83l7.05.63,3.44-1.98c.31-.17.58-.32.73-.69.11-.32-.03-.53-.27-.84-.05-.06-.1-.13-.15-.19l-1.41-2-7.24-.64c0,.47-.04.97-.16,1.49-.3,1.47-1.02,2.98-2,4.22h0ZM25.06,24.08h-.03l-7.73-.69c-.12-.01-.22-.09-.26-.19-.04-.11-.02-.24.06-.32,1.11-1.23,1.92-2.84,2.24-4.39.12-.6.16-1.17.12-1.7,0-.09.03-.18.1-.24.06-.06.16-.09.24-.09l7.73.69c.09,0,.18.06.23.13l1.49,2.11c.03.05.08.1.12.17.24.3.62.76.37,1.43-.23.59-.66.83-1.02,1.02l-.16.09-3.36,1.93s-.09.04-.15.04Z"/>
      <path class="cls-3" d="M15.56,23.87c.57.22.96.12,1.51-.12,1.11-.61,1.79-1.54,2.31-2.69.39-1.06.72-2.67-.43-3.36l-2.4-1.38.19-.15c1.09-.73,2.13-1.21,3.42-.7l-3.94-2.29c-1.81-.7-3.44.56-4.65,1.79-.94,1.08-1.5,2.03-2.02,3.31-.41,1.19-.58,1.99-.51,3.22.16,1.06.41,1.74,1.35,2.3l3.94,2.29c-1.33-.81-1.49-2.24-1.31-3.69l2.54,1.46Z"/>
      <path class="cls-2" d="M15.17,13.28c-1.02,0-2.12.62-3.38,1.91-.9,1.04-1.45,1.95-1.96,3.21-.37,1.1-.56,1.88-.49,3.09.15.97.37,1.56,1.2,2.06l2.4,1.39c-.28-.69-.36-1.54-.22-2.57,0-.1.07-.19.16-.24.09-.05.2-.04.29.01l2.53,1.44c.45.16.74.09,1.25-.12.92-.51,1.59-1.29,2.14-2.54.31-.83.7-2.36-.31-2.97l-2.39-1.38c-.09-.05-.15-.14-.16-.24,0-.1.04-.2.12-.26l.19-.15c.64-.42,1.35-.84,2.16-.95l-2.64-1.53c-.3-.11-.59-.17-.9-.17h0ZM14.34,26.41c-.06,0-.11-.02-.15-.04l-3.95-2.29c-1.04-.63-1.33-1.4-1.5-2.53-.09-1.34.1-2.18.52-3.36.54-1.36,1.12-2.3,2.08-3.42,1.16-1.2,2.95-2.68,4.99-1.88l3.99,2.3c.14.08.19.25.12.4-.07.15-.23.21-.38.16-1.06-.41-1.9-.12-2.94.53l1.98,1.15c1.04.63,1.23,1.96.57,3.74-.61,1.37-1.38,2.27-2.44,2.85-.65.28-1.11.39-1.76.14-.02,0-.04-.02-.04-.03l-2.13-1.22c-.09,1.43.3,2.37,1.21,2.92.15.09.19.27.1.42-.06.1-.16.16-.26.16Z"/>
      <path class="cls-1" d="M14.85,21.43c.17-.81.57-1.68,1.17-2.42.59-.74,1.27-1.21,1.89-1.37.61-.17,1.16-.03,1.5.47.35.49.42,1.23.25,2.03-.17.8-.57,1.67-1.15,2.41l-.03.03c-.59.72-1.26,1.18-1.87,1.35-1.32.36-2.11-.77-1.76-2.5h0ZM13.11,21.89c-.54,2.59.44,4.52,2.3,4.46,2.27-.07,5.27-3.14,5.99-6.68.29-1.39.16-2.67-.42-3.51-.59-.84-1.55-1.09-2.61-.8-2.29.61-4.64,3.54-5.25,6.53h0Z"/>
      <path class="cls-2" d="M14.85,21.43h.01-.01ZM18.37,17.88c-.14,0-.28.02-.39.05-.57.15-1.2.62-1.73,1.27-.55.68-.93,1.5-1.1,2.28h0c-.18.86-.05,1.59.33,1.95.26.24.62.31,1.04.19.58-.15,1.17-.59,1.71-1.24.57-.7.97-1.51,1.12-2.31.15-.74.09-1.39-.2-1.79-.21-.31-.5-.4-.78-.4h0ZM16.15,24.31c-.42,0-.79-.15-1.08-.42-.56-.52-.74-1.43-.52-2.52h0c.18-.89.62-1.8,1.23-2.55.62-.76,1.34-1.29,2.04-1.49.78-.2,1.44.02,1.84.59.38.55.49,1.36.3,2.28-.18.89-.62,1.79-1.23,2.54-.63.78-1.35,1.3-2.04,1.49-.19.05-.37.08-.55.08h0ZM13.11,21.89h0,0ZM19.17,15.56c-.23,0-.47.03-.73.1-2.18.58-4.43,3.41-5.02,6.29h0c-.3,1.45-.11,2.71.5,3.45.37.43.88.66,1.47.64,2.04-.07,4.98-2.9,5.71-6.43.28-1.37.14-2.53-.38-3.28-.37-.51-.9-.78-1.55-.78h0ZM15.32,26.66c-.75,0-1.39-.3-1.87-.86-.75-.89-.98-2.34-.64-3.97h0c.63-3.09,3.09-6.13,5.48-6.77,1.22-.32,2.29,0,2.94.93.62.88.79,2.21.48,3.75-.72,3.54-3.72,6.84-6.28,6.92-.03,0-.06,0-.1,0Z"/>
      <path class="cls-3" d="M15.91,1.02l-1.17-.68c-.15-.08-.28-.03-.42.05-.28.17-.41.37-.53.67l-1.92,4.95v10.32l1.16.67V6.68l1.92-4.95c.1-.26.21-.44.44-.62.15-.09.33-.19.5-.09Z"/>
      <path class="cls-2" d="M12.19,16.14l.55.32V6.68s0-.07.02-.1l1.92-4.95c.11-.27.24-.5.47-.69l-.55-.32s-.03,0-.12.05c-.18.1-.28.24-.39.51l-1.89,4.89v10.07h0ZM13.04,17.31c-.05,0-.1-.02-.15-.04l-1.17-.67c-.09-.06-.16-.16-.16-.27V6.01s.01-.08.02-.11l1.92-4.95c.12-.28.28-.59.65-.81.15-.08.42-.23.73-.06l1.17.68c.15.09.2.27.11.42-.08.15-.26.2-.42.12,0,0-.04-.02-.18.09-.15.1-.24.23-.33.48l-1.9,4.89v10.26c0,.11-.06.21-.15.27-.04.03-.1.04-.16.04Z"/>
      <path class="cls-1" d="M17.94,14.17V3.85l-1.94-2.74c-.24-.35-.79,0-1.04.63l-1.92,4.95v10.32c.11-.13.2-.27.3-.4l.02-.02c1.02-1.26,2.18-2.07,3.24-2.36.47-.12.93-.15,1.34-.05Z"/>
      <path class="cls-2" d="M13.35,6.74v9.38c.98-1.14,2.1-1.9,3.17-2.19.38-.1.76-.14,1.11-.11V3.96l-1.88-2.67c-.06-.02-.35.17-.5.56l-1.9,4.89h0ZM13.04,17.31s-.06,0-.09-.02c-.12-.04-.21-.16-.21-.29V6.68s0-.07.02-.12l1.92-4.94c.21-.53.62-.91,1-.96.24-.03.45.06.58.26l1.94,2.75c.03.05.05.11.05.17v10.32c0,.1-.04.18-.11.24-.08.05-.17.08-.26.06-.36-.09-.76-.07-1.19.05-1.04.28-2.13,1.08-3.08,2.24-.12.15-.22.28-.31.41-.06.08-.16.13-.25.13Z"/>
      <path class="cls-3" d="M1.63,36.11l1.85-4.78,7.73-9.62-1.16-.68-7.73,9.63-1.93,4.97c-.09.25-.16.61.1.78l1.16.68c-.17-.12-.2-.31-.17-.51.02-.17.09-.31.15-.47Z"/>
      <path class="cls-2" d="M2.59,30.82l-1.91,4.93c-.05.16-.1.36-.02.42l.53.3c.03-.15.08-.28.13-.4l.31.04-.29-.11,1.85-4.78s.03-.05.04-.08l7.52-9.34-.63-.37-7.55,9.39h0ZM1.65,37.4c-.05,0-.1,0-.16-.04l-1.15-.67c-.21-.14-.49-.46-.24-1.16l1.93-4.98s.03-.06.05-.08l7.73-9.63c.1-.11.26-.15.39-.07l1.16.67c.08.04.13.12.15.21.02.09-.01.18-.06.25l-7.71,9.59-1.83,4.73-.03.08c-.05.12-.1.23-.1.34-.03.15.02.19.04.2.14.1.17.29.09.43-.06.09-.16.14-.26.14Z"/>
      <path class="cls-1" d="M11.2,21.73l-7.72,9.6-1.85,4.76c-.07.19-.16.39-.16.61,0,.11.03.22.09.3.08.11.19.15.31.13.13-.03.31-.14.43-.21l3.64-2.1,5.2-6.47,2.25-2.81-.84-.49c-.59-.36-.81-.62-1.1-1.28-.25-.73-.3-1.28-.24-2.04Z"/>
      <path class="cls-2" d="M3.75,31.49l-1.86,4.8c-.06.15-.11.29-.11.42,0,.07.02.11.03.12.06-.01.2-.1.27-.14l3.66-2.11,7.19-8.94-.53-.3c-.64-.38-.9-.69-1.23-1.42-.15-.47-.24-.86-.27-1.29l-7.14,8.87h0ZM1.8,37.44c-.2,0-.37-.09-.5-.27-.09-.13-.14-.28-.14-.47,0-.24.09-.46.16-.64l1.88-4.84s.03-.05.04-.08l7.72-9.61c.09-.1.23-.14.36-.09.12.04.2.17.19.3-.05.76,0,1.27.23,1.93.27.58.45.8.97,1.11l.83.48c.08.05.13.12.15.22.02.09,0,.17-.06.24l-7.45,9.27s-.05.05-.09.07l-3.65,2.1c-.19.12-.36.23-.54.25-.03,0-.07,0-.1,0Z"/>
      <path class="cls-4" d="M14.77,22.11l3.52,2.03c-1.58-.95.56-4.88,2.29-4.21l-3.42-1.97c-.39.24-.79.6-1.16,1.05-.59.74-.99,1.61-1.16,2.42-.04.24-.08.46-.08.68Z"/>
      <path class="cls-2" d="M15.09,21.94l2.36,1.37c-.06-.52.06-1.16.39-1.83.38-.79,1.02-1.5,1.71-1.79l-2.36-1.37c-.32.23-.64.53-.93.89-.55.68-.94,1.5-1.1,2.28-.04.15-.05.3-.07.45h0ZM18.29,24.45c-.05,0-.11-.01-.16-.04l-3.52-2.03c-.11-.05-.16-.16-.16-.27,0-.24.03-.49.09-.73.18-.89.62-1.79,1.23-2.55.38-.48.8-.85,1.23-1.12.1-.06.22-.06.32,0l3.41,1.97c.14.08.19.25.12.4-.07.15-.24.22-.38.16-.75-.29-1.63.57-2.1,1.52-.39.81-.52,1.78.07,2.13.14.09.19.28.1.43-.05.1-.15.15-.26.15Z"/>
      <path class="cls-1" d="M17.81,22.47c-.11.55-.07,1.04.16,1.38h0c.24.34.61.43,1.03.32.42-.11.87-.43,1.28-.91v-.02c.42-.51.69-1.11.8-1.65s.07-1.05-.17-1.38c-.23-.34-.61-.43-1.03-.32-.42.11-.88.43-1.29.94-.4.51-.68,1.1-.78,1.64Z"/>
      <path class="cls-2" d="M17.81,22.47h0,0ZM20.21,20.15c-.08,0-.16.02-.24.03-.38.1-.78.41-1.13.83-.37.45-.62.99-.73,1.52h0c-.1.48-.05.89.11,1.15.16.22.39.29.7.2.36-.1.77-.39,1.11-.82.37-.46.63-1,.74-1.53.1-.48.06-.9-.11-1.15-.12-.15-.26-.23-.45-.23h0ZM18.68,24.53c-.39,0-.73-.18-.96-.5-.28-.41-.35-.97-.22-1.63.12-.62.43-1.25.85-1.77.43-.54.95-.91,1.44-1.04.57-.15,1.06,0,1.37.43.28.39.36.98.22,1.63-.13.62-.43,1.25-.85,1.78-.45.55-.96.9-1.44,1.04-.14.03-.28.05-.41.05Z"/>
    </g>
  </g>
</svg>