<?xml version="1.0" encoding="UTF-8"?>
<svg id="Layer_2" data-name="Layer 2" xmlns="http://www.w3.org/2000/svg" viewBox="0 0 22.95 41.06" fill="currentColor">
  <defs>
    <style>
      .cls-1 {
        fill: #fff;
      }

      .cls-1, .cls-2, .cls-3, .cls-4 {
        fill-rule: evenodd;
      }

      .cls-2 {
        fill: #1a87c7;
      }

      .cls-3 {
        fill: #bdedf8;
      }

      .cls-4 {
        fill: #66ceef;
      }
    </style>
  </defs>
  <g id="_Layer_" data-name="&amp;lt;Layer&amp;gt;">
    <g>
      <path class="cls-4" d="M3.69,40.62l-3.04-1.81c-.47-.53-.32-1.77-.32-2.58V13.67c0-1.35.1-2.32,1.15-3.43.63-.68,3.74-2.33,4.73-2.9L18.33.38c.33-.11.64-.12.95.04l2.81,1.62c-.79-.37-1.51.24-2.34.72L5.02,11.27c-1.05.62-1.86,2.03-1.88,3.25v17.89c0,1.08-.09,7.04.08,7.6l.47.62Z"/>
      <path class="cls-2" d="M.86,38.58l2.02,1.2c-.08-.85-.08-3.1-.06-6.34,0-.47,0-.84,0-1.03V14.52c.01-1.33.89-2.84,2.03-3.52L19.59,2.5c.13-.08.26-.16.39-.24.32-.19.64-.39.97-.52l-1.83-1.06c-.2-.1-.42-.11-.7-.02L6.36,7.61c-.2.11-.47.27-.8.45-1.26.7-3.37,1.88-3.85,2.39-.99,1.06-1.06,1.96-1.06,3.22v22.56c0,.15,0,.32-.01.5-.02.63-.05,1.48.23,1.85h0ZM3.69,40.93c-.06,0-.11-.01-.16-.04l-3.04-1.81s-.05-.04-.07-.06c-.46-.52-.43-1.47-.41-2.31,0-.17.01-.33.01-.48V13.67c0-1.37.09-2.43,1.23-3.65.5-.53,2.25-1.53,4-2.51.32-.18.6-.34.8-.45L18.18.12c.49-.17.89-.15,1.24.04l2.82,1.63c.14.08.2.26.12.41-.08.14-.25.2-.4.13-.49-.23-.95.03-1.66.46-.13.08-.26.16-.4.24L5.17,11.53c-.95.57-1.71,1.88-1.72,2.99v17.89c0,.2,0,.57,0,1.04-.01,1.6-.05,5.8.07,6.42l.43.57c.09.12.08.28-.02.39-.06.07-.15.1-.23.1Z"/>
      <path class="cls-3" d="M22.64,3.26v24.89c0,1.19-.84,2.65-1.88,3.25-5.47,3.15-10.27,5.93-15.74,9.09-1.04.6-1.88.11-1.88-1.08V14.52c0-1.19.84-2.66,1.88-3.25,5.47-3.16,10.28-5.93,15.74-9.09,1.04-.6,1.88-.11,1.88,1.09Z"/>
      <path class="cls-2" d="M21.6,2.23c-.2,0-.43.07-.68.21L5.17,11.54c-.93.54-1.72,1.91-1.72,2.98v24.89c0,.46.14.8.4.95.26.15.62.1,1.02-.13l15.75-9.09c.93-.54,1.72-1.91,1.72-2.98V3.26c0-.46-.14-.8-.4-.95-.1-.06-.21-.09-.34-.09h0ZM4.18,41.06c-.23,0-.45-.06-.64-.17-.45-.26-.71-.79-.71-1.48V14.52c0-1.29.91-2.87,2.03-3.52L20.61,1.91c.6-.35,1.18-.39,1.63-.13.46.26.71.79.71,1.48v24.89c0,1.29-.91,2.87-2.03,3.52l-15.75,9.09c-.34.2-.68.3-.99.3Z"/>
      <path class="cls-1" d="M14.13,32.48l6.07-3.51c.16-.09.29-.32.29-.5v-6.03c0-.18-.13-.26-.29-.17l-6.07,3.5c-.16.09-.29.32-.29.5v6.03c0,.18.13.26.29.17Z"/>
      <path class="cls-2" d="M20.18,22.64l-5.89,3.4c-.07.04-.14.16-.14.23v5.83l5.9-3.4c.06-.04.13-.16.13-.24v-5.83h0ZM14,32.82c-.08,0-.16-.02-.23-.06-.15-.09-.24-.25-.24-.45v-6.03c0-.29.19-.62.44-.77l6.07-3.5c.17-.1.36-.11.51-.02.15.09.24.25.24.45v6.03c0,.29-.19.62-.44.77l-6.07,3.51c-.09.05-.19.08-.28.08Z"/>
      <path class="cls-1" d="M5.66,37.37l6.07-3.51c.16-.09.29-.31.29-.5v-6.03c0-.18-.13-.26-.29-.17l-6.07,3.51c-.16.09-.29.32-.29.5v6.03c0,.18.13.26.29.17Z"/>
      <path class="cls-2" d="M11.7,27.54l-5.89,3.4c-.07.04-.14.16-.14.23v5.83l5.9-3.41c.06-.04.13-.16.13-.23v-5.83h0ZM5.53,37.72c-.08,0-.16-.02-.23-.06-.15-.09-.24-.25-.24-.46v-6.03c0-.29.19-.62.44-.77l6.07-3.5c.17-.1.36-.11.51-.02.15.09.24.25.24.45v6.03c0,.29-.19.62-.44.77l-6.07,3.5c-.09.06-.19.08-.29.08Z"/>
      <path class="cls-1" d="M20.2,13.71l-6.07,3.5c-.16.09-.29.32-.29.5v6.03c0,.18.13.26.29.16l6.07-3.5c.16-.09.29-.32.29-.5v-6.03c0-.18-.13-.26-.29-.17Z"/>
      <path class="cls-2" d="M20.2,13.71h0,0ZM20.18,14.08l-5.89,3.4c-.07.04-.14.16-.14.23v5.83l5.9-3.4c.06-.04.13-.16.13-.23v-5.83h0ZM14,24.26c-.08,0-.16-.02-.23-.06-.15-.09-.24-.25-.24-.45v-6.03c0-.29.19-.62.44-.77l6.07-3.51c.17-.1.36-.11.51-.02.15.09.24.25.24.45v6.03c0,.29-.19.62-.44.77l-6.07,3.5c-.09.05-.19.08-.28.08Z"/>
      <path class="cls-1" d="M11.72,18.6l-6.07,3.5c-.16.09-.29.32-.29.5v6.03c0,.18.13.26.29.17l6.07-3.51c.16-.09.29-.32.29-.5v-6.03c0-.18-.13-.26-.29-.17Z"/>
      <path class="cls-2" d="M11.72,18.6h0,0ZM11.7,18.97l-5.89,3.4c-.07.04-.14.16-.14.23v5.83l5.9-3.4c.06-.04.13-.16.13-.24v-5.83h0ZM5.53,29.15c-.08,0-.16-.02-.23-.06-.15-.09-.24-.25-.24-.45v-6.03c0-.29.19-.62.44-.77l6.07-3.5c.18-.1.36-.11.51-.02.15.09.24.25.24.45v6.03c0,.29-.19.62-.44.77l-6.07,3.5c-.09.05-.19.08-.29.08Z"/>
      <path class="cls-1" d="M5.62,19.29l14.54-8.39c.16-.09.29-.32.29-.5v-4.71c0-.18-.13-.26-.29-.17L5.62,13.92c-.16.09-.29.32-.29.5v4.71c0,.18.13.26.29.17Z"/>
      <path class="cls-2" d="M20.14,5.89L5.77,14.19c-.06.03-.13.16-.13.23v4.51l14.37-8.3c.06-.04.13-.16.13-.23v-4.51h0ZM5.49,19.64c-.08,0-.16-.02-.23-.06-.15-.09-.24-.25-.24-.45v-4.71c0-.29.19-.62.45-.77l14.54-8.4c.17-.1.36-.1.51-.02.15.09.24.25.24.45v4.71c0,.29-.19.62-.44.77l-14.54,8.39c-.09.06-.19.08-.28.08Z"/>
      <path class="cls-2" d="M17.64,8.8v1.7l.43-.25v-1.71l-.43.25h0ZM17.33,11.35c-.05,0-.1-.01-.15-.04-.1-.06-.15-.16-.15-.27v-2.42c0-.11.06-.21.15-.26l1.04-.6c.09-.06.21-.06.31,0,.09.06.15.16.15.27v2.42c0,.11-.06.21-.15.27l-1.04.6s-.1.04-.16.04Z"/>
      <path class="cls-4" d="M3.75,12.56l-2.81-1.62c-.36.61-.6,1.24-.61,1.95v24.89c.02.52.1.9.55,1.21l2.81,1.62c-.45-.31-.53-.69-.55-1.21V14.52c.02-.72.25-1.35.61-1.96Z"/>
      <path class="cls-2" d="M1.06,11.36c-.28.53-.41,1.03-.42,1.54v24.88c.02.47.09.73.42.96l1.81,1.04c-.02-.12-.02-.24-.03-.36V14.52c.01-.63.17-1.22.5-1.84l-2.27-1.32h0ZM3.69,40.93c-.05,0-.11-.01-.15-.04l-2.81-1.62c-.61-.42-.68-.95-.7-1.46V12.9c.02-.72.22-1.39.66-2.11.09-.15.27-.19.42-.11l2.81,1.62c.07.04.12.11.14.19.02.08,0,.16-.03.24-.37.63-.55,1.2-.57,1.81v24.88c.02.48.09.73.42.96.14.09.18.28.09.42-.06.09-.16.14-.26.14Z"/>
      <path class="cls-2" d="M15.7,28.61c-.11,0-.21-.05-.27-.15-.09-.15-.03-.33.11-.42l2.93-1.69c.14-.08.33-.03.42.11.09.15.03.34-.11.42l-2.93,1.69s-.1.04-.15.04Z"/>
      <path class="cls-2" d="M15.7,19.96c-.11,0-.21-.06-.27-.15-.09-.15-.03-.34.11-.42l2.93-1.69c.14-.08.33-.04.42.11.09.15.03.34-.11.42l-2.93,1.69s-.1.04-.15.04Z"/>
      <path class="cls-2" d="M7.23,24.86c-.1,0-.21-.05-.27-.15-.09-.15-.03-.34.11-.42l2.93-1.69c.14-.08.34-.03.42.11.09.15.03.33-.11.42l-2.93,1.69s-.1.04-.15.04Z"/>
      <path class="cls-2" d="M8.69,25.71c-.17,0-.31-.14-.31-.31v-3.38c0-.17.14-.31.31-.31s.31.14.31.31v3.38c0,.17-.14.31-.31.31Z"/>
      <path class="cls-2" d="M7.66,34.42c-.05,0-.11-.01-.16-.04-.15-.09-.2-.27-.11-.42l2.05-3.56c.08-.15.27-.2.42-.11.15.08.2.27.11.42l-2.05,3.56c-.06.1-.16.16-.26.16Z"/>
      <path class="cls-2" d="M9.72,33.24c-.05,0-.11-.01-.15-.04l-2.05-1.19c-.15-.08-.2-.27-.11-.42.08-.15.27-.2.42-.11l2.06,1.19c.15.08.2.27.11.42-.06.1-.16.15-.27.15Z"/>
      <path class="cls-2" d="M17.16,28.51l.16.26-.16-.26h0ZM17.06,29.37c-.08,0-.15-.02-.21-.05-.14-.08-.22-.23-.22-.41,0-.25.16-.53.38-.66.16-.09.33-.1.47-.02.14.08.22.23.22.41,0,.25-.16.53-.38.66-.09.05-.17.07-.26.07Z"/>
      <path class="cls-2" d="M17.16,25.88h0,0ZM17.06,26.74c-.08,0-.15-.02-.21-.06-.14-.08-.22-.23-.22-.41,0-.25.16-.53.38-.66h0c.15-.09.33-.1.47-.02.14.08.22.23.22.41,0,.26-.16.53-.38.66-.09.05-.17.07-.26.07Z"/>
    </g>
  </g>
</svg>