<?xml version="1.0" encoding="UTF-8"?>
<svg id="Layer_2" data-name="Layer 2" xmlns="http://www.w3.org/2000/svg" viewBox="0 0 34.47 48.4" fill="currentColor">
  <defs>
    <style>
      .cls-1 {
        fill: #fff;
      }

      .cls-1, .cls-2, .cls-3, .cls-4 {
        fill-rule: evenodd;
      }

      .cls-2 {
        fill: #1a87c7;
      }

      .cls-3 {
        fill: #bdedf8;
      }

      .cls-4 {
        fill: #66ceef;
      }
    </style>
  </defs>
  <g id="_Layer_" data-name="&amp;lt;Layer&amp;gt;">
    <g>
      <path class="cls-1" d="M4.99,31.77c-.51.47-1.01.96-1.48,1.47-1.74,1.96-3.1,3.79-3.21,6.5v3.91c0,1.45.18,1.83,1.77,2.75,3.29,1.9,7.14,2.04,11.02,1.18-.23-8.3-3.7-15-8.1-15.81Z"/>
      <path class="cls-2" d="M5.09,32.1c-.55.5-.98.94-1.35,1.35-1.59,1.78-3.02,3.62-3.12,6.3v3.9c0,1.34.1,1.62,1.61,2.48,2.89,1.67,6.43,2.07,10.55,1.2-.29-7.85-3.56-14.32-7.69-15.23h0ZM8.75,48.4c-2.56,0-4.84-.58-6.84-1.73-1.62-.95-1.91-1.4-1.91-3.02v-3.91c.11-2.9,1.61-4.83,3.28-6.71.42-.45.89-.92,1.5-1.49.07-.07.17-.09.26-.08,4.61.84,8.12,7.62,8.36,16.11,0,.15-.09.28-.24.3-1.55.35-3.02.52-4.41.52Z"/>
      <path class="cls-1" d="M34.16,33.57v-4.82c0-2.78-2.47-4.28-5.08-5.01,0,.2,0,.41,0,.61,0,4.87,1.12,9.26,2.9,12.33,1.38-1.4,2.18-2.55,2.18-3.11Z"/>
      <path class="cls-2" d="M29.39,24.15v.2c0,4.44.96,8.72,2.66,11.82,1.32-1.4,1.81-2.27,1.81-2.6v-4.82c0-2.61-2.35-3.94-4.47-4.6h0ZM31.98,36.99s-.03,0-.03,0c-.1,0-.18-.06-.24-.15-1.87-3.22-2.94-7.77-2.94-12.49,0-.21,0-.41,0-.62,0-.1.04-.18.12-.24.08-.05.17-.07.27-.04,3.42.95,5.3,2.83,5.3,5.3v4.82c0,.84-1.23,2.28-2.28,3.33-.05.06-.13.09-.22.09Z"/>
      <path class="cls-4" d="M29.08,23.74c-1.01-.29-2.04-.45-2.96-.53-.28.57-.56,1.14-.86,1.69l-.09.17c.86,2.04-2.17,5.03-5.3,6.21-2.31.86-4.76.52-7.01-.35-2.38-.92-3.83-2.22-3.6-3.41-1.24,1.58-2.81,2.88-4.28,4.25,3.73,2.3,6.81,8,8.1,15.81,7.59-1.68,15.25-7.2,18.89-10.9-.6-4.67-.83-9.9-2.89-12.94Z"/>
      <path class="cls-2" d="M5.48,31.73c3.69,2.49,6.6,8.22,7.86,15.48,6.95-1.64,14.31-6.62,18.31-10.63-.1-.77-.19-1.56-.28-2.35-.43-3.82-.88-7.77-2.48-10.23-.81-.22-1.7-.37-2.58-.46-.25.5-.5,1.01-.77,1.49l-.03.05c.2.59.15,1.26-.17,1.98-.76,1.75-2.97,3.6-5.36,4.49-2.15.8-4.58.69-7.23-.35-2.08-.81-3.4-1.85-3.74-2.91-.87,1.02-1.87,1.92-2.83,2.79-.24.22-.46.42-.7.63h0ZM13.09,47.88c-.06,0-.12-.02-.17-.05-.08-.04-.12-.12-.14-.2-1.23-7.46-4.21-13.29-7.96-15.6-.08-.05-.13-.14-.14-.23-.02-.1.03-.19.09-.25.32-.3.65-.61.98-.9,1.14-1.02,2.32-2.09,3.26-3.31.09-.11.23-.15.36-.09.13.05.21.2.18.34-.19.98,1.14,2.18,3.41,3.06,2.51.98,4.8,1.09,6.79.35,2.22-.83,4.33-2.58,5.01-4.16.27-.63.3-1.17.11-1.64-.04-.09-.03-.18,0-.27l.1-.16c.3-.54.57-1.1.85-1.67.05-.11.18-.17.3-.17,1.03.09,2.07.28,3.02.54.07.02.13.06.17.12,1.74,2.57,2.21,6.65,2.65,10.6.1.84.19,1.67.3,2.49.02.09-.02.18-.09.25-4.09,4.16-11.8,9.38-19.03,10.98-.02,0-.05,0-.07,0Z"/>
      <path class="cls-1" d="M9.27,27.52c.24-.32.97-1.07,1.17-1.4.39-.67.38-.93.46-1.7,3.36,3.88,11.25,6.15,14.27.65,1.02,2.61-3.33,5.47-5.3,6.21-2.31.86-4.76.52-7.01-.35-2.38-.92-3.83-2.22-3.6-3.41Z"/>
      <path class="cls-2" d="M9.55,27.65c-.11.96,1.22,2.14,3.42,2.99,2.51.98,4.8,1.09,6.79.35,1.34-.5,4.18-2.22,5.02-4.11.15-.34.22-.67.22-.98-1.09,1.56-2.72,2.49-4.74,2.71-3.06.32-6.8-1.13-9.14-3.49-.05.37-.15.67-.44,1.16-.14.24-.47.61-.78.96-.14.16-.27.3-.36.41h0ZM17.02,32.08c-1.35,0-2.77-.29-4.27-.87-2.63-1.02-4.05-2.42-3.79-3.75.01-.04.03-.09.06-.13.09-.12.25-.3.43-.5.27-.3.61-.68.71-.86.32-.54.34-.75.4-1.35l.03-.23c0-.12.1-.23.21-.26.12-.04.24,0,.33.09,2.17,2.52,5.99,4.11,9.08,3.78,2.08-.21,3.7-1.28,4.68-3.08.06-.1.17-.16.29-.16.12.01.23.09.27.2.27.68.23,1.41-.11,2.17-.88,1.99-3.72,3.83-5.36,4.43-.94.35-1.93.52-2.97.52Z"/>
      <path class="cls-2" d="M17.15,34.01c-2.85,0-6.47-1.03-8.64-3.09-.5-.47-.88-.96-1.13-1.48-.08-.16-.02-.34.14-.42.15-.07.34,0,.41.14.23.46.56.9,1.01,1.32,2.14,2.03,6.44,3.29,9.59,2.82,1.63-.24,3.25-.93,4.8-2.03.76-.55,1.46-1.17,2.01-1.8,1.36-1.55,1.84-3.05,1.5-4.6-.13-.58-.42-1.25-.75-1.37-.17-.05-.25-.23-.19-.39.05-.15.23-.24.39-.19.75.26,1.07,1.46,1.16,1.82.38,1.73-.17,3.46-1.64,5.15-.58.66-1.31,1.32-2.12,1.89-1.62,1.16-3.33,1.87-5.06,2.13-.45.07-.95.11-1.47.11Z"/>
      <path class="cls-1" d="M23.31,27.69c1.27-1.22,2.31-3.44,3.3-5.47,1.35-2.76,1.29-5.93,1.29-8.48l-.46-1.51c-.17-.63-.17-1.29-.19-1.92-.02-.83-.03-1.59-.45-1.97-1-.92-4.5,2.85-5.85,3.62-1.32.76-4.07,1.22-5.01,2.02-.96.8-.91,1.45-.9,2.6.02,1.08.07,2.15-.59,4.45-.15-1.13-.61-2.71-1.72-3.28-1.46-.74-2.62.74-2.71,2.11-.03.39,0,.78.09,1.16.17.77.61,1.67.97,2.33.11.21-.03.79-.14,1.11,2.43,2.74,5.94,4.62,8.74,4.62,1.25,0,2.72-.51,3.63-1.39Z"/>
      <path class="cls-2" d="M11.28,24.38c2.38,2.63,5.74,4.39,8.4,4.39h0c1.24,0,2.62-.52,3.42-1.29h0c1.14-1.1,2.09-3.07,3.02-4.97l.2-.41c1.24-2.55,1.25-5.51,1.27-7.89v-.4l-.45-1.47c-.18-.68-.19-1.38-.2-2.01-.02-.75-.03-1.46-.36-1.76-.5-.44-2.57,1.32-3.69,2.27-.72.61-1.35,1.14-1.8,1.4-.63.36-1.54.65-2.44.93-1.01.32-2.06.65-2.54,1.05-.81.69-.8,1.21-.78,2.25v.28c.03,1.05.04,2.15-.6,4.37-.04.14-.17.24-.31.23-.15-.02-.27-.12-.29-.27-.13-.91-.5-2.51-1.55-3.05-.44-.22-.84-.22-1.23,0-.55.31-.98,1.08-1.04,1.85-.02.35,0,.71.1,1.07.13.59.45,1.35.93,2.25.12.22.1.62-.06,1.18h0ZM19.68,29.39c-2.87,0-6.48-1.91-8.97-4.73-.08-.08-.09-.19-.07-.3.15-.48.18-.8.15-.88-.5-.95-.83-1.76-.98-2.4-.1-.42-.13-.84-.1-1.25.07-.98.61-1.93,1.35-2.35.56-.32,1.19-.32,1.81-.01.84.43,1.33,1.35,1.6,2.23.3-1.34.28-2.16.27-2.95v-.28c-.03-1.08-.03-1.86,1-2.73.57-.48,1.63-.81,2.75-1.16.86-.28,1.74-.56,2.31-.89.4-.23,1.03-.77,1.71-1.33,1.78-1.51,3.62-3.07,4.51-2.25.52.47.54,1.31.56,2.2,0,.62.02,1.25.17,1.84l.46,1.5s.02.06.02.1v.44c-.02,2.44-.03,5.48-1.33,8.16l-.2.41c-.96,1.95-1.94,3.96-3.16,5.15-.93.89-2.43,1.47-3.85,1.47h0Z"/>
      <path class="cls-4" d="M7.85,6.88c-2.23,4.1-.83,15.32,3.03,17.75.09-.2.34-1.02.2-1.28-.36-.66-.79-1.56-.97-2.33-.83-3.69,3.57-5.42,4.34.02.66-2.3.61-3.37.59-4.45-.02-1.15-.06-1.8.9-2.6.95-.8,3.69-1.25,5.01-2.02,1.35-.77,4.85-4.55,5.85-3.62.42.38.44,1.15.45,1.97.02.63.03,1.29.19,1.92l.46,1.51c.13-1.99.09-4.3-.18-6.2-.54-3.66-2.18-3.8-6.69-6.19-.72-.38-1.66-1.02-3.05-1.05-3.41-.11-8.45,3.85-10.13,6.56Z"/>
      <path class="cls-2" d="M8.12,7.03c-2.11,3.85-.86,14.34,2.59,17.1.08-.28.12-.56.09-.65-.5-.95-.83-1.76-.98-2.4-.3-1.32.02-2.59.84-3.3.57-.51,1.32-.65,2-.4.5.19,1.33.73,1.83,2.31.29-1.34.27-2.15.26-2.94v-.28c-.03-1.08-.03-1.86,1-2.73.57-.48,1.63-.81,2.75-1.16.86-.28,1.74-.56,2.31-.89.4-.23,1.03-.77,1.71-1.33,1.78-1.51,3.62-3.07,4.51-2.25.52.47.54,1.31.56,2.2,0,.5.02,1.02.1,1.51.02-1.5-.08-2.99-.26-4.23-.42-2.89-1.53-3.44-4.49-4.92-.6-.3-1.28-.64-2.03-1.04l-.3-.17c-.66-.37-1.48-.82-2.61-.85-3.32-.1-8.24,3.81-9.85,6.41h0ZM10.87,24.94c-.05,0-.11-.02-.16-.05-4-2.52-5.45-13.91-3.13-18.16t0-.02C9.28,3.97,14.29,0,17.84,0h.15c1.28.05,2.21.56,2.88.93l.3.17c.76.39,1.43.73,2.03,1.03,2.99,1.49,4.36,2.17,4.83,5.39.26,1.81.33,4.09.19,6.27-.01.15-.13.27-.28.29-.15,0-.28-.08-.33-.22l-.46-1.51c-.18-.68-.19-1.38-.2-2.01-.02-.75-.03-1.46-.36-1.76-.5-.44-2.57,1.32-3.69,2.27-.72.61-1.35,1.14-1.8,1.4-.63.36-1.54.65-2.44.93-1.01.32-2.06.65-2.54,1.05-.81.69-.8,1.21-.78,2.25v.28c.03,1.05.04,2.15-.6,4.37-.04.14-.17.24-.31.23-.15-.02-.27-.12-.29-.27-.23-1.67-.86-2.8-1.71-3.12-.46-.17-.98-.07-1.37.29-.51.44-.95,1.39-.64,2.71.13.58.45,1.34.93,2.24.24.45-.17,1.49-.18,1.54-.03.09-.11.16-.19.18-.03.01-.06.02-.1.02Z"/>
      <path class="cls-3" d="M28.05,10.81c-1.71,3.18-8.78,7.42-17.17,6.23l-3.78-.54c-1.16.07-1.39-5.21-.3-4.94l3.4.58c7.7,1.33,15.29-3.06,17.17-6.36.56-.22.89,4.72.69,5.02Z"/>
      <path class="cls-2" d="M7.08,16.2l3.84.54c8.13,1.16,15.11-2.85,16.84-6.07.14-.5-.1-3.38-.38-4.35-2.34,3.46-9.86,7.41-17.24,6.13l-3.4-.58c-.29.12-.52,1.93-.14,3.43.18.66.37.88.48.9h0ZM13.77,17.56c-.96,0-1.93-.06-2.93-.21l-3.78-.53c-.17.01-.51-.09-.78-.62-.57-1.11-.69-3.9-.07-4.68.17-.22.42-.31.67-.24l3.37.57c7.4,1.29,14.92-2.82,16.84-6.21.04-.06.09-.11.16-.13.13-.06.34-.05.5.15.52.64.84,4.74.57,5.3h0c-1.6,2.96-7.44,6.6-14.55,6.6Z"/>
    </g>
  </g>
</svg>