<?xml version="1.0" encoding="UTF-8"?>
<svg id="Layer_2" data-name="Layer 2" xmlns="http://www.w3.org/2000/svg" viewBox="0 0 40.96 40.33" fill="currentColor">
  <defs>
    <style>
      .cls-1 {
        fill: #fff;
      }

      .cls-1, .cls-2, .cls-3, .cls-4 {
        fill-rule: evenodd;
      }

      .cls-2 {
        fill: #1a87c7;
      }

      .cls-3 {
        fill: #bdedf8;
      }

      .cls-4 {
        fill: #66ceef;
      }
    </style>
  </defs>
  <g id="_Layer_" data-name="&amp;lt;Layer&amp;gt;">
    <g>
      <path class="cls-4" d="M23.14,1.02c2.44.32,4.87,1.11,7.13,2.43,2.26,1.3,4.16,3,5.66,4.96,1.56,2.03,2.69,4.34,3.34,6.77.65,2.42.84,4.99.5,7.53-.32,2.44-1.11,4.87-2.43,7.13-1.3,2.26-3,4.16-4.95,5.66-2.03,1.56-4.34,2.69-6.77,3.34-2.42.65-4.99.83-7.53.5-2.44-.32-4.87-1.12-7.13-2.42-2.26-1.3-4.16-3.01-5.66-4.96-3.12-4.06-4.5-9.21-3.83-14.29.32-2.44,1.12-4.87,2.43-7.13,1.3-2.26,3.01-4.16,4.95-5.67C12.91,1.74,18.07.35,23.14,1.02Z"/>
      <path class="cls-2" d="M20.65,1.16c-4.16,0-8.29,1.38-11.62,3.94-1.98,1.52-3.63,3.39-4.88,5.57-1.26,2.17-2.06,4.53-2.39,7-.65,4.97.72,10.1,3.77,14.07,1.52,1.98,3.39,3.62,5.57,4.88,2.17,1.26,4.54,2.06,7.01,2.39,2.49.33,4.97.17,7.4-.49,2.43-.65,4.67-1.76,6.66-3.28,1.98-1.52,3.62-3.4,4.88-5.57,1.25-2.18,2.06-4.54,2.38-7.02.33-2.49.17-4.98-.49-7.4-.65-2.43-1.76-4.67-3.28-6.66-1.51-1.98-3.39-3.63-5.57-4.89-2.17-1.25-4.54-2.06-7.01-2.38h0c-.82-.11-1.63-.17-2.45-.17h0ZM20.61,39.79c-.85,0-1.71-.06-2.57-.17-2.56-.34-4.99-1.16-7.23-2.46-2.25-1.3-4.19-3-5.75-5.04C1.91,28.02.48,22.73,1.16,17.6c.34-2.55,1.17-4.99,2.46-7.24,1.29-2.24,2.99-4.18,5.04-5.75C12.77,1.46,18.07.04,23.19.72h0c2.55.33,4.99,1.17,7.24,2.46,2.24,1.29,4.18,2.99,5.75,5.04,1.57,2.05,2.71,4.36,3.38,6.88.68,2.5.84,5.07.5,7.65-.33,2.56-1.16,4.99-2.46,7.23-1.3,2.25-2.99,4.19-5.04,5.75-2.05,1.58-4.36,2.72-6.87,3.39-1.67.45-3.37.68-5.08.68Z"/>
      <path class="cls-3" d="M39.04,14.69c-.26.06-.52.12-.8.19-2.43.66-4.75,1.78-6.77,3.34-1.95,1.5-3.66,3.41-4.97,5.67-1.31,2.27-2.1,4.7-2.43,7.14-.34,2.54-.16,5.1.5,7.53.08.27.15.54.24.79.09.3.4.49.71.42.27-.06.54-.12.81-.19,2.43-.66,4.75-1.78,6.77-3.34,1.96-1.5,3.66-3.41,4.97-5.68,1.31-2.27,2.1-4.69,2.43-7.13.34-2.54.15-5.1-.5-7.54-.07-.27-.15-.53-.24-.79-.1-.31-.41-.49-.72-.42Z"/>
      <path class="cls-2" d="M39.11,14.98c-.25.06-.52.12-.79.2-2.43.65-4.67,1.76-6.67,3.28-1.98,1.52-3.62,3.4-4.89,5.59-1.26,2.18-2.07,4.55-2.39,7.02-.33,2.48-.17,4.98.49,7.42.08.27.15.53.23.78.05.15.21.24.37.21.26-.06.52-.13.78-.2,2.44-.65,4.68-1.76,6.68-3.28,1.97-1.52,3.62-3.4,4.88-5.59,1.26-2.18,2.06-4.55,2.39-7.02.33-2.49.17-4.98-.5-7.42-.07-.26-.14-.52-.23-.78-.04-.15-.2-.24-.36-.21h0ZM25.38,40.09c-.4,0-.76-.25-.88-.64-.09-.26-.17-.53-.24-.81-.68-2.51-.84-5.09-.51-7.66.34-2.55,1.17-4.99,2.48-7.25,1.3-2.26,3-4.2,5.04-5.76,2.05-1.57,4.37-2.71,6.89-3.39.28-.07.55-.14.81-.2h0c.47-.11.94.16,1.09.63.09.26.16.53.24.81.67,2.51.84,5.08.5,7.65-.34,2.57-1.16,5-2.47,7.26-1.31,2.25-3,4.19-5.04,5.76-2.05,1.57-4.37,2.72-6.89,3.39-.27.07-.55.14-.82.2-.07,0-.14.02-.2.02Z"/>
      <path class="cls-3" d="M15.52.67c-2.75.6-5.4,1.84-7.61,3.55-1.96,1.51-3.68,3.42-4.99,5.7-1.32,2.29-2.12,4.72-2.44,7.17-.36,2.76-.12,5.7.73,8.37.1.31.41.5.72.42.26-.06.51-.12.77-.19h.03c2.45-.67,4.77-1.8,6.81-3.36,1.96-1.5,3.68-3.41,4.99-5.7,1.32-2.28,2.12-4.72,2.45-7.17.33-2.55.15-5.13-.5-7.58h0c-.07-.26-.15-.53-.24-.79-.09-.31-.41-.48-.72-.42Z"/>
      <path class="cls-2" d="M15.52.67h0,0ZM15.66.95s-.05,0-.07,0h0c-2.7.6-5.29,1.8-7.5,3.49-1.99,1.53-3.64,3.42-4.91,5.62-1.27,2.2-2.08,4.57-2.4,7.06-.36,2.73-.1,5.65.72,8.24.04.16.2.24.36.21.26-.06.51-.12.76-.18,2.49-.67,4.74-1.78,6.74-3.31,1.99-1.53,3.64-3.42,4.91-5.62,1.27-2.2,2.08-4.57,2.4-7.06.33-2.49.17-5.01-.48-7.45-.07-.27-.15-.53-.24-.79-.03-.13-.15-.22-.29-.22h0ZM1.79,26.2c-.39,0-.76-.26-.88-.65C.06,22.88-.21,19.87.16,17.05c.34-2.56,1.17-5.02,2.49-7.29,1.31-2.26,3.02-4.22,5.07-5.79,2.28-1.75,4.95-2.99,7.73-3.61.48-.11.95.17,1.09.63.09.27.17.54.23.81.68,2.53.85,5.12.51,7.69-.34,2.58-1.17,5.02-2.49,7.29-1.3,2.26-3.02,4.22-5.07,5.79-2.06,1.58-4.39,2.73-6.92,3.41-.29.08-.56.14-.81.2-.07.02-.14.03-.21.03Z"/>
      <path class="cls-3" d="M18.08,1.21c.06.18.1.36.16.55h0s0,0,0,0c.7,2.62.9,5.39.53,8.13-.35,2.64-1.21,5.26-2.62,7.7-1.42,2.44-3.25,4.5-5.36,6.12-2.19,1.68-4.68,2.9-7.31,3.6h-.03c-.17.05-.35.1-.51.14-.19.04-.34.15-.42.34-.08.17-.09.36-.01.53.63,1.39,1.42,2.72,2.36,3.94,1.54,2.01,3.5,3.75,5.82,5.1,2.33,1.35,4.82,2.16,7.33,2.49,1.53.2,3.07.22,4.58.07.2-.03.36-.12.46-.28.11-.17.14-.35.09-.53-.06-.19-.11-.37-.16-.55-.7-2.63-.89-5.4-.54-8.14.35-2.64,1.21-5.26,2.61-7.7,1.42-2.44,3.25-4.49,5.36-6.11,2.19-1.68,4.68-2.9,7.31-3.61.17-.04.37-.09.55-.14.19-.04.34-.16.43-.34.08-.17.09-.36,0-.53-.63-1.39-1.42-2.72-2.35-3.94-1.54-2.01-3.5-3.75-5.82-5.1-2.33-1.35-4.82-2.16-7.33-2.49-1.53-.2-3.07-.22-4.58-.07-.2.02-.36.12-.46.28-.12.17-.14.35-.09.53Z"/>
      <path class="cls-2" d="M18.54,1.66s0,.02,0,.03c.72,2.71.9,5.49.54,8.26-.36,2.76-1.25,5.38-2.66,7.8-1.4,2.43-3.23,4.52-5.43,6.21-2.22,1.7-4.71,2.93-7.41,3.65-.22.06-.39.11-.56.14-.11.03-.18.09-.22.18-.04.09-.04.18,0,.28.62,1.38,1.4,2.68,2.31,3.88,1.56,2.03,3.49,3.72,5.73,5.01,2.25,1.29,4.67,2.12,7.22,2.46,1.49.19,3,.22,4.51.06.1-.01.18-.05.24-.14.05-.09.07-.18.04-.27-.06-.19-.11-.38-.17-.56-.72-2.71-.9-5.49-.54-8.26.36-2.76,1.26-5.39,2.66-7.8,1.4-2.43,3.22-4.51,5.43-6.21,2.22-1.7,4.71-2.93,7.42-3.65.18-.05.37-.09.56-.14.1-.02.17-.09.22-.17.04-.09.04-.18,0-.28-.62-1.38-1.39-2.69-2.31-3.88-1.56-2.03-3.49-3.72-5.73-5.01-2.25-1.29-4.68-2.12-7.21-2.46-1.49-.2-3.01-.22-4.52-.06-.09,0-.17.05-.23.14-.05.09-.07.17-.05.27.05.17.11.35.16.53h0ZM20.59,40.33c-.88,0-1.75-.06-2.62-.17-2.63-.35-5.13-1.2-7.44-2.53-2.31-1.34-4.31-3.08-5.91-5.18-.95-1.23-1.75-2.57-2.39-4-.11-.26-.11-.54.02-.8.12-.25.34-.44.62-.5.18-.04.34-.09.51-.13,2.67-.71,5.09-1.91,7.24-3.56,2.14-1.64,3.92-3.67,5.27-6.02,1.37-2.35,2.23-4.91,2.58-7.58.35-2.69.17-5.37-.52-7.99,0,0,0-.03,0-.04-.05-.18-.11-.36-.16-.52h0c-.08-.28-.03-.56.12-.8.17-.24.41-.37.69-.41,1.56-.15,3.12-.13,4.66.07,2.62.35,5.12,1.2,7.44,2.53,2.31,1.34,4.3,3.09,5.92,5.18.94,1.23,1.74,2.57,2.38,4,.11.26.11.54,0,.8-.13.26-.36.43-.63.5-.18.05-.37.09-.54.13-2.63.7-5.05,1.9-7.2,3.55-2.15,1.64-3.92,3.67-5.28,6.02-1.35,2.36-2.22,4.9-2.58,7.59-.36,2.69-.17,5.38.53,8.01.04.18.1.36.15.54.09.28.04.56-.11.79-.17.24-.41.39-.69.42-.68.07-1.37.11-2.04.11Z"/>
      <path class="cls-1" d="M24.12,36.47c8.89-.33,15.98-7.63,15.98-16.6,0-1.81-.29-3.56-.83-5.19-.08-.01-.16-.01-.24,0-.26.06-.52.12-.8.19-2.43.66-4.75,1.78-6.77,3.34-1.95,1.5-3.66,3.41-4.97,5.67-1.31,2.27-2.1,4.7-2.43,7.14-.24,1.82-.22,3.65.05,5.44Z"/>
      <path class="cls-2" d="M39.07,15c-.24.05-.5.11-.75.18-2.43.65-4.67,1.76-6.67,3.28-1.98,1.52-3.62,3.4-4.89,5.59-1.26,2.18-2.07,4.55-2.39,7.02-.23,1.68-.22,3.39.02,5.08,8.67-.46,15.41-7.56,15.41-16.28,0-1.66-.25-3.29-.74-4.87h0ZM24.12,36.78c-.15,0-.28-.11-.3-.27-.28-1.83-.3-3.7-.06-5.53.34-2.55,1.17-4.99,2.48-7.25,1.3-2.26,3-4.2,5.04-5.76,2.05-1.57,4.37-2.71,6.89-3.39.28-.07.55-.14.81-.2.12-.03.24-.03.37,0,.11.02.21.11.24.21.56,1.71.84,3.49.84,5.29,0,9.15-7.15,16.57-16.28,16.91h-.02Z"/>
      <path class="cls-1" d="M16.68,2.75c-6.65,2.2-11.44,8.47-11.44,15.84,0,2.03.36,3.96,1.02,5.76,1.16-.57,2.25-1.24,3.27-2.04,1.96-1.5,3.68-3.41,4.99-5.7,1.32-2.28,2.12-4.72,2.45-7.17.3-2.25.18-4.52-.3-6.7Z"/>
      <path class="cls-2" d="M16.46,3.15c-6.54,2.32-10.91,8.48-10.91,15.44,0,1.83.3,3.62.89,5.33,1.02-.52,2.01-1.15,2.92-1.84,1.99-1.53,3.64-3.42,4.91-5.62,1.27-2.2,2.08-4.57,2.4-7.06.28-2.09.21-4.19-.21-6.26h0ZM6.26,24.66s-.08,0-.12-.02c-.09-.03-.15-.11-.17-.18-.69-1.88-1.04-3.85-1.04-5.87,0-7.34,4.68-13.84,11.66-16.14.09-.03.17-.02.25.03.07.04.13.12.15.2.5,2.25.59,4.54.3,6.8-.34,2.58-1.17,5.02-2.49,7.29-1.3,2.26-3.02,4.22-5.07,5.79-1.03.8-2.16,1.49-3.33,2.06-.04.03-.09.04-.14.04Z"/>
      <path class="cls-1" d="M38.65,12.64c-2.56-6.21-8.66-10.59-15.79-10.59-1.52,0-3,.2-4.4.57.52,2.36.64,4.82.32,7.27-.35,2.64-1.21,5.26-2.62,7.7-1.42,2.44-3.25,4.5-5.36,6.12-1.12.86-2.32,1.6-3.58,2.21,2.58,5.93,8.43,10.09,15.27,10.24-.28-1.89-.29-3.82-.04-5.73.35-2.64,1.21-5.26,2.61-7.7,1.42-2.44,3.25-4.49,5.36-6.11,2.19-1.68,4.68-2.9,7.31-3.61.17-.04.37-.09.55-.14.15-.03.28-.11.37-.23Z"/>
      <path class="cls-2" d="M7.62,26.07c2.61,5.71,8.25,9.5,14.52,9.77-.23-1.81-.23-3.64.01-5.45.36-2.76,1.26-5.39,2.66-7.8,1.39-2.43,3.22-4.51,5.43-6.21,2.22-1.7,4.71-2.93,7.42-3.65.18-.05.37-.09.56-.14.03,0,.04-.02.06-.02-2.63-6.2-8.67-10.2-15.42-10.2-1.36,0-2.72.16-4.03.5.49,2.34.57,4.72.26,7.08-.36,2.76-1.25,5.38-2.66,7.8-1.4,2.43-3.23,4.52-5.43,6.21-1.05.81-2.18,1.51-3.37,2.11h0ZM22.49,36.48h0c-6.74-.15-12.85-4.24-15.55-10.43-.06-.15,0-.32.15-.4,1.25-.6,2.44-1.34,3.54-2.18,2.14-1.64,3.92-3.67,5.27-6.02,1.37-2.35,2.23-4.91,2.58-7.58.31-2.4.21-4.81-.32-7.17-.03-.16.06-.32.22-.36,1.46-.38,2.97-.58,4.48-.58,7.08,0,13.38,4.23,16.07,10.78.04.1.03.21-.03.3-.13.18-.31.3-.54.36-.18.05-.37.09-.54.13-2.63.7-5.05,1.9-7.2,3.55-2.15,1.64-3.92,3.67-5.28,6.02-1.35,2.36-2.22,4.9-2.58,7.59-.24,1.87-.24,3.76.04,5.64.01.09-.02.18-.08.24-.05.07-.14.11-.23.11Z"/>
    </g>
  </g>
</svg>