<?xml version="1.0" encoding="UTF-8"?>
<svg id="Layer_2" data-name="Layer 2" xmlns="http://www.w3.org/2000/svg" viewBox="0 0 34.43 40.68" fill="currentColor">
  <defs>
    <style>
      .cls-1 {
        fill: #fff;
      }

      .cls-1, .cls-2, .cls-3, .cls-4 {
        fill-rule: evenodd;
      }

      .cls-2 {
        fill: #1a87c7;
      }

      .cls-3 {
        fill: #bdedf8;
      }

      .cls-4 {
        fill: #66ceef;
      }
    </style>
  </defs>
  <g id="_Layer_" data-name="&amp;lt;Layer&amp;gt;">
    <g>
      <polygon class="cls-4" points="10.12 37.24 .31 31.58 24.31 17.72 34.12 23.39 10.12 37.24"/>
      <path class="cls-2" d="M.93,31.58l9.2,5.31,23.38-13.5-9.2-5.31L.93,31.58h0ZM10.12,37.55c-.05,0-.11-.01-.15-.04L.15,31.84c-.09-.06-.15-.16-.15-.27s.06-.21.15-.27l24-13.85c.1-.06.22-.06.31,0l9.82,5.67c.09.06.15.16.15.27s-.06.21-.15.27l-24,13.85s-.1.04-.15.04Z"/>
      <polygon class="cls-4" points="10.12 40.37 .31 34.7 .31 31.58 10.12 37.24 10.12 40.37"/>
      <path class="cls-2" d="M.62,34.52l9.2,5.31v-2.42L.62,32.11v2.42h0ZM10.12,40.68c-.05,0-.11-.02-.15-.04L.15,34.97c-.09-.05-.15-.15-.15-.26v-3.13c0-.11.06-.21.15-.27.09-.06.21-.06.31,0l9.81,5.67c.1.06.15.16.15.27v3.13c0,.11-.06.21-.15.27-.05.03-.1.04-.15.04Z"/>
      <polygon class="cls-4" points="10.12 37.24 34.12 23.39 34.12 26.52 10.12 40.37 10.12 37.24"/>
      <path class="cls-2" d="M10.43,37.42v2.42l23.38-13.5v-2.42l-23.38,13.5h0ZM10.12,40.68c-.05,0-.11-.02-.15-.04-.09-.06-.15-.16-.15-.27v-3.13c0-.11.06-.21.15-.27l24-13.85c.1-.06.21-.06.31,0,.09.06.15.16.15.27v3.13c0,.11-.06.21-.15.27l-24,13.86s-.1.04-.15.04Z"/>
      <polygon class="cls-3" points="16.83 30.94 11.44 27.83 11.44 3.99 16.83 7.1 16.83 30.94"/>
      <path class="cls-2" d="M11.75,27.65l4.77,2.76V7.27l-4.77-2.76v23.13h0ZM16.83,31.24c-.05,0-.11-.02-.15-.04l-5.39-3.11c-.09-.06-.15-.15-.15-.27V3.99c0-.11.06-.21.15-.27.1-.06.21-.06.31,0l5.39,3.11c.09.06.15.16.15.27v23.84c0,.11-.06.21-.15.27-.05.03-.1.04-.16.04Z"/>
      <polygon class="cls-3" points="16.83 7.1 11.44 3.99 17.81 .31 23.2 3.42 16.83 7.1"/>
      <path class="cls-2" d="M12.05,3.99l4.77,2.75,5.76-3.32-4.77-2.76-5.76,3.32h0ZM16.83,7.41c-.05,0-.11-.01-.15-.04l-5.39-3.11c-.09-.06-.15-.16-.15-.26,0-.11.06-.21.15-.27L17.66.04c.09-.05.21-.05.31,0l5.39,3.11c.09.05.15.16.15.26s-.06.21-.15.27l-6.37,3.68s-.1.04-.16.04Z"/>
      <polygon class="cls-1" points="16.83 20.23 11.44 17.12 5.07 20.8 10.46 23.91 16.83 20.23"/>
      <path class="cls-2" d="M5.68,20.8l4.77,2.75,5.76-3.32-4.77-2.76-5.75,3.33h0ZM10.46,24.22c-.05,0-.11-.02-.15-.04l-5.39-3.11c-.1-.06-.16-.16-.16-.26s.06-.21.16-.27l6.37-3.68c.1-.05.21-.05.31,0l5.39,3.11c.09.06.15.15.15.26s-.06.21-.15.27l-6.37,3.68s-.1.04-.16.04Z"/>
      <polygon class="cls-1" points="10.46 23.91 5.07 20.8 5.07 31.5 10.46 34.61 10.46 23.91"/>
      <path class="cls-2" d="M5.38,31.32l4.77,2.76v-9.99l-4.77-2.76v9.99h0ZM10.46,34.92c-.05,0-.11-.02-.15-.04l-5.39-3.11c-.1-.06-.16-.16-.16-.27v-10.7c0-.11.06-.21.16-.27.09-.06.21-.06.31,0l5.39,3.11c.1.06.15.16.15.27v10.7c0,.11-.06.21-.15.27-.05.03-.1.04-.16.04Z"/>
      <polygon class="cls-4" points="23.2 27.26 17.81 24.14 17.81 8.61 23.2 11.72 23.2 27.26"/>
      <path class="cls-2" d="M18.12,23.97l4.77,2.76v-14.83l-4.77-2.75v14.82h0ZM23.2,27.57c-.05,0-.11-.02-.15-.04l-5.39-3.11c-.1-.06-.15-.16-.15-.27v-15.54c0-.11.06-.21.15-.27.09-.05.21-.05.31,0l5.39,3.11c.09.06.15.16.15.26v15.54c0,.11-.06.21-.16.27-.05.03-.1.04-.15.04Z"/>
      <polygon class="cls-4" points="23.2 11.72 17.81 8.61 24.18 4.93 29.57 8.04 23.2 11.72"/>
      <path class="cls-2" d="M18.43,8.61l4.77,2.76,5.75-3.32-4.77-2.76-5.76,3.32h0ZM23.2,12.03c-.05,0-.1-.01-.15-.04l-5.39-3.11c-.1-.05-.15-.16-.15-.27s.06-.21.15-.27l6.37-3.67c.09-.06.21-.06.31,0l5.39,3.11c.1.05.16.16.16.27s-.06.21-.16.27l-6.37,3.68s-.1.04-.16.04Z"/>
      <polygon class="cls-4" points="23.2 27.26 23.2 11.72 29.57 8.04 29.57 23.58 23.2 27.26"/>
      <path class="cls-2" d="M23.51,11.9v14.83l5.76-3.32v-14.83l-5.76,3.32h0ZM23.2,27.57c-.05,0-.11-.02-.15-.04-.09-.06-.15-.16-.15-.27v-15.54c0-.11.06-.21.15-.26l6.37-3.68c.09-.06.21-.06.31,0,.09.05.15.16.15.27v15.54c0,.11-.06.21-.16.27l-6.37,3.68s-.1.04-.15.04Z"/>
      <polygon class="cls-1" points="16.83 30.94 16.83 20.23 10.46 23.91 10.46 34.61 16.83 30.94"/>
      <path class="cls-2" d="M16.83,30.94h0,0ZM10.77,24.09v9.99l5.75-3.32v-9.99l-5.75,3.32h0ZM10.46,34.92c-.05,0-.11-.02-.15-.04-.1-.05-.16-.16-.16-.27v-10.7c0-.11.06-.21.16-.27l6.37-3.68c.09-.06.21-.06.31,0,.09.05.15.16.15.27v10.7c0,.11-.06.21-.15.27l-6.37,3.68s-.1.04-.16.04Z"/>
      <polygon class="cls-3" points="16.83 30.94 16.83 7.1 23.2 3.42 23.2 27.26 16.83 30.94"/>
      <path class="cls-2" d="M17.14,7.27v23.13l5.75-3.32V3.95l-5.75,3.32h0ZM16.83,31.24c-.05,0-.11-.02-.15-.04-.09-.05-.15-.16-.15-.27V7.1c0-.11.06-.21.15-.27l6.37-3.68c.1-.06.21-.06.31,0,.1.05.15.16.15.26v23.84c0,.11-.06.21-.15.27l-6.37,3.68s-.1.04-.16.04Z"/>
    </g>
  </g>
</svg>