<?xml version="1.0" encoding="UTF-8"?>
<svg id="Layer_2" data-name="Layer 2" xmlns="http://www.w3.org/2000/svg" viewBox="0 0 34.28 41.17" fill="currentColor">
  <defs>
    <style>
      .cls-1 {
        fill: #fff;
      }

      .cls-1, .cls-2, .cls-3, .cls-4 {
        fill-rule: evenodd;
      }

      .cls-2 {
        fill: #1a87c7;
      }

      .cls-3 {
        fill: #bdedf8;
      }

      .cls-4 {
        fill: #66ceef;
      }
    </style>
  </defs>
  <g id="_Layer_" data-name="&amp;lt;Layer&amp;gt;">
    <g>
      <path class="cls-4" d="M10.64,36.59l-4.1-2.37c4.82,2.7,10.8-1.83,13.86-5.33,4.27-4.88,8.04-13.21,6.41-19.69-.48-1.9-1.44-3.59-3.17-4.61l4.31,2.49c4.32,2.74,3.64,9.69,2.3,13.96-1.99,6.33-7.36,13.98-13.89,15.94-1.93.58-3.93.61-5.73-.4Z"/>
      <path class="cls-2" d="M10.8,36.32c1.56.88,3.4,1,5.48.37,6.33-1.91,11.67-9.36,13.68-15.74,1.48-4.7,1.8-11.08-2.17-13.6l-1.96-1.13c.57.81,1,1.78,1.29,2.91,1.68,6.71-2.19,15.05-6.49,19.96-2.96,3.38-7.47,6.6-11.56,6.22l1.73,1h0ZM13.8,37.7c-1.2,0-2.31-.28-3.31-.84h0s-4.11-2.37-4.11-2.37c-.15-.09-.19-.28-.11-.42.09-.15.28-.2.42-.12,4.7,2.64,10.68-2.06,13.48-5.26,4.33-4.94,7.9-13.2,6.35-19.41-.51-2.05-1.53-3.54-3.03-4.42-.15-.09-.2-.28-.11-.42.09-.15.28-.2.42-.11l4.31,2.5c4.28,2.71,3.98,9.41,2.44,14.32-2.06,6.53-7.56,14.17-14.1,16.14-.92.28-1.82.42-2.65.42Z"/>
      <path class="cls-1" d="M17.91,7.24c-6.6,3.81-11.94,13.07-11.94,20.68s5.34,10.7,11.94,6.89c6.59-3.81,11.94-13.06,11.94-20.68s-5.35-10.7-11.94-6.89Z"/>
      <path class="cls-2" d="M17.91,7.24h0,0ZM23.23,5.92c-1.58,0-3.35.53-5.18,1.59h0c-6.5,3.76-11.78,12.91-11.78,20.42,0,3.57,1.19,6.21,3.35,7.47,2.16,1.24,5.05.95,8.14-.83,6.5-3.76,11.78-12.92,11.78-20.42,0-3.57-1.18-6.22-3.34-7.46-.87-.51-1.87-.76-2.96-.76h0ZM12.57,36.76c-1.19,0-2.29-.28-3.27-.84-2.35-1.35-3.65-4.2-3.65-8,0-7.7,5.43-17.09,12.1-20.95,3.28-1.9,6.4-2.19,8.75-.83,2.36,1.36,3.65,4.2,3.65,8,0,7.71-5.42,17.1-12.1,20.95-1.93,1.11-3.8,1.68-5.48,1.68Z"/>
      <path class="cls-4" d="M15.09,2.34c3.01-1.69,6.93-2.93,10.19-1.17l4.1,2.37c-6.03-3.01-13.19,2.57-16.92,6.93-4.99,5.83-9.27,15.37-7.75,23.11.5,2.51,1.61,4.71,3.78,6.15-.97-.56-3.83-2.14-4.58-2.7C-.79,33.47-.02,25.56,1.47,20.62,3.64,13.48,8.6,6.19,15.09,2.34Z"/>
      <path class="cls-2" d="M15.25,2.61C9.23,6.17,4.07,13.1,1.77,20.71c-1.62,5.37-1.98,12.8,2.34,16.07.37.28,1.3.83,2.24,1.36-.93-1.2-1.56-2.69-1.92-4.51-1.57-7.95,2.95-17.69,7.81-23.37,3.7-4.32,9.45-8.5,14.68-7.8l-1.78-1.02c-3.3-1.77-7.2-.34-9.88,1.17h0ZM8.49,40.03c-.05,0-.11-.01-.15-.05-.23-.12-.54-.3-.91-.51-1.31-.74-3.1-1.76-3.7-2.21C-.84,33.82-.58,26.36,1.17,20.54,3.52,12.78,8.79,5.71,14.93,2.08h.01c2.82-1.59,6.93-3.09,10.49-1.18l4.11,2.37c.15.09.2.27.12.42-.09.15-.26.2-.41.13-5.54-2.76-12.38,1.96-16.56,6.85-4.77,5.57-9.21,15.11-7.68,22.85.54,2.74,1.74,4.69,3.65,5.95.14.1.18.28.1.42-.06.1-.17.15-.27.15Z"/>
      <path class="cls-3" d="M27.75,6.96c-1.11-.64-2.44-.91-3.92-.76-1.43.14-2.99.67-4.63,1.62-1.64.95-3.2,2.22-4.62,3.73-1.48,1.56-2.81,3.36-3.93,5.29-1.11,1.94-2.01,4-2.63,6.06-.59,1.98-.91,3.97-.91,5.87s.32,3.51.91,4.82c.61,1.35,1.51,2.37,2.63,3.02,1.12.64,2.45.91,3.93.76,1.43-.14,2.99-.67,4.62-1.62,1.64-.95,3.21-2.22,4.63-3.73,1.48-1.56,2.81-3.36,3.92-5.3,1.11-1.94,2.02-3.99,2.63-6.05.59-1.99.92-3.98.92-5.88s-.33-3.51-.92-4.81c-.61-1.35-1.51-2.37-2.63-3.02h0ZM8.75,15.74c2.68-4.63,6.37-8.67,10.45-11.03,4.08-2.36,7.78-2.58,10.46-1.04,2.67,1.55,4.33,4.86,4.33,9.57s-1.66,9.93-4.33,14.57c-2.68,4.63-6.37,8.68-10.46,11.03-4.08,2.36-7.77,2.58-10.45,1.03-2.68-1.55-4.33-4.86-4.33-9.57s1.65-9.93,4.33-14.57h0Z"/>
      <path class="cls-2" d="M24.6,6.46c-.24,0-.5.01-.75.04-1.43.15-2.94.68-4.5,1.57-1.57.91-3.11,2.15-4.56,3.68-1.45,1.53-2.76,3.29-3.89,5.24-1.12,1.95-2,3.95-2.6,5.99-.6,2.01-.9,3.96-.9,5.78s.3,3.38.89,4.68c.58,1.29,1.43,2.25,2.5,2.88,1.08.63,2.34.86,3.74.73,1.42-.15,2.94-.67,4.51-1.57,1.57-.91,3.11-2.15,4.55-3.68,1.45-1.54,2.75-3.3,3.89-5.24,1.12-1.95,1.99-3.96,2.59-5.98.6-2.02.9-3.96.9-5.79s-.3-3.38-.89-4.68c-.58-1.29-1.43-2.26-2.49-2.88h0c-.89-.51-1.89-.77-3-.77h0ZM13.79,37.7c-1.22,0-2.32-.29-3.29-.85-1.2-.69-2.12-1.75-2.76-3.15-.63-1.38-.95-3.04-.95-4.94s.31-3.89.93-5.96c.62-2.07,1.51-4.13,2.66-6.11,1.15-1.99,2.48-3.79,3.96-5.36,1.49-1.57,3.08-2.84,4.7-3.78,1.63-.95,3.23-1.5,4.75-1.65,1.54-.16,2.92.12,4.11.81h0c1.19.69,2.11,1.75,2.76,3.15.62,1.38.94,3.04.94,4.94s-.31,3.89-.93,5.97c-.61,2.07-1.5,4.13-2.65,6.11-1.15,1.99-2.49,3.79-3.97,5.36-1.49,1.56-3.06,2.84-4.69,3.78-1.64.95-3.24,1.5-4.76,1.65-.27.03-.55.04-.81.04h0ZM9.02,15.9h0c2.76-4.79,6.43-8.66,10.34-10.92,3.85-2.22,7.45-2.59,10.14-1.03,2.7,1.56,4.17,4.86,4.17,9.3s-1.52,9.62-4.29,14.41c-2.76,4.79-6.44,8.66-10.33,10.91-3.86,2.23-7.46,2.59-10.14,1.03-2.69-1.56-4.18-4.86-4.18-9.3s1.52-9.62,4.29-14.41h0ZM12.6,41.17c-1.46,0-2.82-.34-4.01-1.02-2.89-1.67-4.49-5.16-4.49-9.84s1.56-9.84,4.37-14.71h0c2.82-4.89,6.57-8.84,10.57-11.15,4.04-2.33,7.87-2.7,10.75-1.03,2.89,1.67,4.49,5.16,4.49,9.84s-1.56,9.84-4.37,14.72c-2.82,4.88-6.57,8.84-10.56,11.15-2.38,1.37-4.68,2.06-6.75,2.06Z"/>
      <path class="cls-4" d="M22.57,22.45l-1.82,1.05v.71c0,1.16-.64,1.86-1.14,2.15-.83.47-1.11-.03-1.11-.87v-7.48c0-.99.22-1.83,1.13-2.35.69-.41,1.12.05,1.12.87v.7l1.82-1.05v-.83c0-2.03-1.25-2.77-2.92-1.81-1.77,1.02-2.97,3.17-2.97,5.09v8.06c0,2.67,1.61,2.53,3,1.72,1.62-.93,2.88-3.25,2.88-5.06v-.9Z"/>
      <path class="cls-2" d="M20.99,13.43c-.35,0-.75.13-1.19.38-1.62.94-2.8,2.96-2.8,4.82v8.06c0,.66.1,1.51.63,1.81.56.33,1.43-.08,1.9-.35,1.48-.86,2.73-3.05,2.73-4.8v-.37l-1.2.69v.54c0,1.23-.67,2.05-1.29,2.41-.43.25-.79.3-1.08.13-.33-.19-.48-.6-.48-1.26v-7.48c0-.88.15-1.97,1.28-2.63.49-.29.84-.2,1.05-.08.34.2.53.63.53,1.22v.17l1.2-.69v-.65c0-.89-.24-1.51-.7-1.78-.17-.09-.36-.14-.56-.14h0ZM18.13,29.24c-.28,0-.56-.06-.81-.21-.62-.36-.93-1.15-.93-2.34v-8.06c0-2.06,1.31-4.31,3.11-5.36.9-.51,1.74-.6,2.37-.23.65.37,1.01,1.2,1.01,2.31v.83c0,.11-.05.21-.15.27l-1.83,1.04c-.09.06-.21.06-.3,0-.1-.05-.16-.16-.16-.26v-.7c0-.41-.12-.62-.23-.69-.13-.08-.32.02-.43.08-.69.4-.96,1.01-.96,2.09v7.48c0,.46.1.68.18.73.06.03.21.02.47-.13.48-.28.98-.91.98-1.88v-.71c0-.11.06-.22.16-.27l1.82-1.05c.09-.05.21-.05.31,0,.1.06.15.16.15.27v.9c0,1.98-1.37,4.36-3.03,5.33-.49.28-1.12.56-1.72.56Z"/>
      <path class="cls-4" d="M15.43,16.77c0-1.44-.88-1.97-2.07-1.28-1.25.72-2.1,2.24-2.1,3.6v.62c0,1.9,1.14,1.8,2.12,1.23,1.16-.66,2.05-2.3,2.05-3.59,0-1.57,0-.5,0-.58h0ZM14.14,17.77v.19c0,.82-.46,1.32-.82,1.51-.58.34-.78-.01-.78-.61v-.22c0-.7.16-1.3.8-1.67.49-.29.8.03.8.62,0,1.76,0-1.58,0,.17h0Z"/>
      <path class="cls-2" d="M13.68,17.18c-.05,0-.12.03-.18.06-.46.27-.64.68-.64,1.41v.22c0,.35.08.43.08.43,0,0,.07.01.24-.09.31-.18.65-.61.65-1.25v-.36c0-.25-.07-.38-.11-.41-.01,0-.03,0-.03,0h0ZM12.94,19.3h.01-.01ZM12.94,19.92c-.11,0-.22-.03-.3-.09-.27-.15-.39-.47-.39-.96v-.22c0-.64.1-1.45.95-1.94.41-.24.7-.13.84-.05.13.07.23.19.3.34.08.06.12.15.12.24v.89s0,.06-.02.09c-.08.76-.53,1.29-.95,1.53-.2.12-.38.18-.55.18h0ZM14.31,15.49c.13,0,.25.03.36.09.3.18.45.59.45,1.18v.58c0,1.21-.86,2.73-1.89,3.33-.55.3-1,.4-1.27.24-.33-.19-.4-.77-.4-1.21v-.62c0-1.28.82-2.69,1.95-3.34.3-.17.57-.25.8-.25h0ZM12.27,21.61c-.24,0-.43-.05-.62-.16-.47-.27-.72-.85-.72-1.74v-.62c0-1.51.93-3.1,2.26-3.87.66-.38,1.29-.44,1.76-.17.41.24.67.7.75,1.31,0,.04.02.08.02.12v.86c0,1.43-.98,3.15-2.2,3.86-.47.27-.9.4-1.26.41Z"/>
    </g>
  </g>
</svg>