<?xml version="1.0" encoding="UTF-8"?>
<svg id="Layer_2" data-name="Layer 2" xmlns="http://www.w3.org/2000/svg" viewBox="0 0 28.82 40.48" fill="currentColor">
  <defs>
    <style>
      .cls-1 {
        fill: #fff;
      }

      .cls-1, .cls-2, .cls-3, .cls-4 {
        fill-rule: evenodd;
      }

      .cls-2 {
        fill: #1a87c7;
      }

      .cls-3 {
        fill: #bdedf8;
      }

      .cls-4 {
        fill: #66ceef;
      }
    </style>
  </defs>
  <g id="_Layer_" data-name="&amp;lt;Layer&amp;gt;">
    <g>
      <path class="cls-2" d="M11.9,4.92c-.82,1.23-1.67,2.49-2.52,3.73-1.48,2.18-2.94,4.32-4.34,6.51l-.52-.33c1.39-2.18,2.86-4.34,4.34-6.52.82-1.21,1.66-2.44,2.52-3.73l.51.34Z"/>
      <path class="cls-2" d="M15.35,2.4c1.09.45,2.17.84,3.27,1.19,1.11.35,2.23.67,3.4.99l-.16.59c-1.17-.32-2.31-.64-3.42-1-1.12-.36-2.22-.75-3.32-1.2l.24-.57Z"/>
      <path class="cls-4" d="M3.04,40.04l-2.36-1.35c-.39-.24-.31-.52-.37-.97v-18.82c.08-.98.42-1.81,1.26-2.4L24.92,3.02c.37-.16.52-.21.89-.02l2.33,1.35c-.37-.19-.5-.14-.86.03L3.9,17.84c-.81.58-1.18,1.38-1.23,2.4v18.83c.03.45.05.63.37.96Z"/>
      <path class="cls-2" d="M25.41,3.18c-.11,0-.18.03-.37.12L1.73,16.76c-.68.48-1.02,1.17-1.1,2.16v19.01c.03.33.03.4.21.5l1.55.89c-.03-.07-.03-.14-.03-.21v-18.86c.08-1.2.52-2.03,1.36-2.65L27.12,4.1l-1.47-.83c-.1-.06-.18-.09-.23-.09h0ZM3.04,40.36c-.05,0-.1-.02-.16-.04l-2.36-1.35c-.47-.28-.5-.67-.5-1.02l-.03-.2v-18.85c.1-1.19.55-2.05,1.39-2.65L24.76,2.75c.45-.2.68-.29,1.18-.03l2.36,1.36c.16.08.21.27.13.41-.1.15-.29.21-.42.13-.26-.13-.29-.12-.63.02L4.06,18.11c-.66.49-1.02,1.16-1.1,2.16v18.81c.05.4.05.51.29.76.11.1.13.28.03.4-.05.08-.16.12-.24.12Z"/>
      <path class="cls-1" d="M3.9,17.84L27.27,4.37c.68-.4,1.23.02,1.23.95v18.84c0,.92-.55,2-1.23,2.39L3.9,40.03c-.68.4-1.23-.03-1.23-.95v-18.83c0-.92.55-2,1.23-2.4Z"/>
      <path class="cls-2" d="M3.9,17.84h.03-.03ZM27.75,4.53c-.1,0-.24.05-.34.11L4.06,18.11h0c-.58.35-1.1,1.32-1.1,2.13v18.83c0,.36.1.64.29.75.16.09.37.02.5-.07l23.37-13.47c.58-.35,1.1-1.32,1.1-2.13V5.32c0-.36-.11-.64-.29-.75-.05-.04-.13-.04-.18-.04h0ZM3.43,40.48c-.18,0-.34-.04-.5-.13-.37-.22-.58-.68-.58-1.28v-18.83c0-1.04.63-2.21,1.39-2.66L27.12,4.1c.39-.23.79-.25,1.13-.06.37.21.58.68.58,1.28v18.84c0,1.03-.63,2.21-1.41,2.66l-23.34,13.48c-.21.12-.45.19-.63.19Z"/>
      <path class="cls-3" d="M.81,17.29l2.36,1.35c.21-.35.42-.56.73-.79L27.27,4.37c.37-.17.5-.22.86-.03l-2.33-1.35c-.37-.19-.52-.15-.89.02L1.57,16.5c-.31.24-.55.44-.76.79Z"/>
      <path class="cls-2" d="M1.26,17.18l1.81,1.04c.18-.26.42-.44.65-.63L27.12,4.1l-1.47-.83c-.23-.13-.26-.11-.6.03L1.73,16.76c-.18.13-.34.26-.47.42h0ZM3.17,18.95c-.05,0-.11-.02-.16-.04l-2.36-1.35c-.05-.03-.11-.11-.13-.18-.03-.08-.03-.16.03-.23.24-.41.52-.65.84-.89L24.76,2.75c.45-.2.68-.29,1.18-.03l2.36,1.36c.16.08.21.27.13.41-.1.15-.29.21-.42.13-.26-.13-.29-.12-.63.02L4.06,18.11c-.26.18-.45.36-.63.68-.05.11-.16.16-.26.16Z"/>
      <path class="cls-2" d="M20.63,26.25c0,.17-.14.31-.31.31-.08,0-.14-.03-.2-.07-1.08-.78-2.16-1.57-3.24-2.47v4.38c0,.17-.14.31-.31.31s-.31-.14-.31-.31v-5.05c0-.06.01-.11.04-.15h0s.01-.02.01-.02h0s0,0,0,0h0s.01-.02.01-.02h0s0-.01,0-.01h0s0,0,0,0h0s.01-.01.01-.01h0s0,0,0,0h0s0,0,0,0h0s0,0,0,0h0s0,0,0,0h0s0,0,0,0h0s0,0,0,0h0s0,0,0,0h0s0,0,0,0h0s0,0,0,0c.01,0,.02-.01.03-.02h0s0,0,0,0c.03-.01.06-.02.08-.02h.02c.06,0,.11.01.15.04h0s.02.01.02.01h0s0,0,0,0h0s.02.01.02.01h0s0,0,0,0h0c1.07.94,2.15,1.74,3.22,2.52v-4.62c0-.17.14-.31.31-.31s.31.14.31.31v5.23h0ZM24.37,24.1c0,.17-.14.31-.31.31s-.31-.14-.31-.31v-4.7l-1.57.9c-.15.08-.33.03-.42-.11-.08-.15-.03-.33.11-.42l2-1.15s.03-.02.05-.03l2.15-1.24c.15-.08.33-.03.42.11.08.15.03.34-.11.42l-2.03,1.16v5.05h0ZM12.21,30.64c.66-.38,1.39-.81,2.01-1.24.14-.1.33-.06.43.08.1.14.06.33-.08.43-.78.54-1.71,1.07-2.49,1.52h0s-.11.06-.18.06c-.17,0-.31-.14-.31-.31v-5.05c0-.12.07-.23.18-.28l2.63-1.51c.15-.08.33-.03.42.11.08.15.03.33-.11.42l-2.5,1.43v1.82l2.03-1.17c.15-.08.33-.03.42.11.08.15.03.33-.11.42l-2.34,1.34v1.82h0ZM22.36,14.21c.25-.21.48-.47.66-.76.25-.4.42-.84.42-1.25v-.18c0-.23-.05-.42-.14-.58-.09-.15-.21-.26-.35-.34-.14-.07-.3-.11-.46-.11-.23,0-.5.07-.75.22l-2.18,1.25c-.1.06-.15.16-.16.27v4.87c0,.17.14.31.31.31s.31-.14.31-.31v-1.99l1.84-1.06c.15.24.33.46.52.65.24.24.5.45.76.6.15.08.33.03.42-.11.08-.15.04-.33-.11-.42-.22-.13-.43-.3-.63-.5-.16-.17-.32-.35-.44-.56h0ZM8.94,21.35v-1.82l2.96-1.7c.15-.08.2-.27.11-.42-.08-.15-.27-.2-.42-.11l-3.09,1.78c-.11.05-.18.16-.18.28v4.87c0,.17.14.31.31.31s.31-.14.31-.31v-2.17l2.65-1.52c.15-.08.2-.27.11-.42-.08-.15-.27-.2-.42-.11l-2.35,1.35h0ZM17.05,17.59v-1.98c0-.17-.03-.32-.09-.43v-.02s-.07-.08-.12-.11h0s-.09-.04-.15-.04c-.11,0-.25.04-.42.14l-1.09.63c-.25.14-.51.48-.72.87-.22.42-.37.88-.37,1.2v1.98c0,.19.03.34.09.43.03.05.07.09.12.12.05.03.1.04.17.04.12,0,.27-.05.42-.13l1.09-.63c.33-.19.59-.49.78-.84.2-.38.31-.82.31-1.23h0ZM17.67,15.6c0-.28-.06-.54-.18-.74l-.02-.03c-.08-.13-.19-.24-.31-.32h-.02c-.13-.09-.29-.13-.46-.13-.21,0-.46.07-.72.22l-1.09.63c-.35.2-.7.64-.95,1.12-.27.5-.45,1.07-.45,1.49v1.98c0,.3.06.55.17.74.09.16.21.27.35.35.14.08.3.11.46.11.23,0,.48-.07.72-.21l1.09-.63c.43-.25.77-.64,1.01-1.09.25-.47.39-1.01.39-1.52v-1.98h0ZM8.7,31.13c.26.45.54.89.92,1.26.12.12.13.31,0,.43-.12.12-.31.13-.43,0-.42-.41-.71-.87-.99-1.34l-2.07,1.19v1.99c0,.17-.14.31-.31.31s-.31-.14-.31-.31v-5.05c0-.11.06-.21.16-.27l2.34-1.34c.2-.12.39-.17.57-.17.17,0,.33.05.47.14.12.08.23.19.31.32l.02.03c.12.21.18.47.18.76,0,.42-.14.92-.37,1.35-.13.25-.3.49-.49.68h0ZM6.13,31.98l1.88-1.08c.25-.14.47-.42.64-.74.18-.35.3-.74.3-1.07,0-.19-.04-.34-.1-.46v-.02c-.04-.05-.08-.09-.12-.12-.04-.03-.09-.04-.14-.04-.08,0-.17.03-.27.08l-2.18,1.25v2.18h0ZM20.01,14.9v-2l2.03-1.17c.16-.09.31-.14.45-.14.07,0,.13.01.18.04.04.02.08.06.11.1.04.06.06.16.06.28v.18c0,.29-.13.62-.32.93-.21.33-.49.62-.77.79l-1.72.99Z"/>
      <path class="cls-1" d="M13.91,1.07c-1.07.61-1.93,2.11-1.93,3.34s.86,1.73,1.93,1.11c1.07-.62,1.93-2.11,1.93-3.34s-.86-1.73-1.93-1.11Z"/>
      <path class="cls-2" d="M14.06,1.34c-.49.28-.93.77-1.25,1.33-.32.56-.52,1.19-.52,1.75,0,.3.06.55.16.73.07.11.15.2.25.26.1.06.22.09.35.09.21,0,.45-.07.71-.22.49-.28.93-.77,1.25-1.33.32-.56.52-1.19.52-1.75,0-.3-.06-.55-.16-.72-.07-.11-.15-.2-.25-.26-.1-.06-.21-.09-.35-.09-.21,0-.45.07-.71.22h0ZM12.27,2.36c.37-.65.9-1.22,1.48-1.55.36-.21.7-.31,1.02-.31.24,0,.46.06.65.17.19.11.36.27.48.48.16.27.24.62.24,1.03,0,.67-.23,1.41-.61,2.06s-.9,1.22-1.48,1.55c-.36.21-.71.31-1.02.31-.24,0-.46-.06-.66-.17-.19-.11-.35-.27-.47-.48-.16-.27-.24-.62-.24-1.03,0-.67.23-1.41.61-2.06Z"/>
      <path class="cls-4" d="M15.27.94c-.9-.52-1.52-1.09-2.78.08-1.13,1.05-1.98,3.41-.79,4.16l.84.48c-1.73-1.2.83-5.63,2.73-4.73Z"/>
      <path class="cls-2" d="M15.18.52l.24.14-.28.54c-.48-.23-1.05,0-1.54.46-.3.27-.57.62-.79,1-.22.38-.38.79-.47,1.18-.14.66-.06,1.26.37,1.56l-.33.52-.85-.49c-.11-.07-.2-.15-.29-.24-.4-.42-.5-1.04-.4-1.7.09-.61.36-1.27.71-1.83.21-.33.46-.64.71-.88C13.59-.43,14.29,0,15.18.52h0ZM14.01.67c-.36-.06-.77.07-1.3.57-.22.21-.43.47-.61.75-.31.49-.55,1.07-.63,1.6-.07.47-.02.9.22,1.17-.05-.33-.02-.68.06-1.05.1-.45.29-.92.54-1.36.25-.43.56-.83.9-1.14.26-.24.54-.42.82-.55Z"/>
    </g>
  </g>
</svg>