<?xml version="1.0" encoding="UTF-8"?>
<svg id="Layer_2" data-name="Layer 2" xmlns="http://www.w3.org/2000/svg" viewBox="0 0 40.16 28.84" fill="currentColor">
  <defs>
    <style>
      .cls-1 {
        fill: #1a87c7;
      }

      .cls-1, .cls-2, .cls-3 {
        fill-rule: evenodd;
      }

      .cls-2 {
        fill: #bdedf8;
      }

      .cls-3 {
        fill: #66ceef;
      }
    </style>
  </defs>
  <g id="_Layer_" data-name="&amp;lt;Layer&amp;gt;">
    <g>
      <path class="cls-2" d="M24.87,2.24l-.03.03-.02.03-.02.05-.02.03v.04s0,4.79,0,4.79c-.01.1-.03.15-.1.23l.91-.58c.07-.08.09-.13.09-.24V1.84s.02-.04.02-.04v-.04s.03-.04.03-.04l.02-.04.03-.02-.91.58h0ZM24.09,1.09l.91-.58c.57-.29.9-.25,1.49-.04l11.65,5.59-.92.58L25.58,1.06c-.58-.22-.92-.25-1.48.03h0Z"/>
      <path class="cls-1" d="M25.41.68c.09.03.18.05.27.09l11.52,5.53.3-.19L26.36.75c-.4-.15-.63-.19-.95-.08h0ZM25.08,2.47v4.36l.29-.18.02-4.37-.3.19h0ZM24.68,7.76c-.09,0-.17-.04-.23-.11-.11-.11-.1-.29,0-.41l.02-4.77s.01-.09.01-.1c0,0,.02-.06.02-.08.01,0,.03-.06.03-.08,0-.01.03-.06.04-.08.03-.02.12-.13.15-.15l.9-.57-.15-.08c-.51-.17-.75-.2-1.22.04-.15.07-.32.02-.41-.12-.08-.15-.03-.33.11-.42l.91-.57c.7-.36,1.11-.31,1.76-.08l11.67,5.6c.1.05.17.15.17.26,0,.11-.04.22-.14.28l-.92.58c-.09.05-.2.06-.3.02L26.08,1.64c0,.08-.02.16-.07.22l-.02,4.77c0,.2-.06.31-.17.44-.02.02-.04.04-.07.05l-.91.58s-.11.05-.16.05Z"/>
      <path class="cls-3" d="M23.63,2.28c0-1.66,1.35-1.49,1.95-1.22l11.64,5.59c-.05.19-.07.43-.07.74v1.13l-10.45-5.59-1.44-.76c-.1-.05-.22-.05-.33,0-.1.06-.16.17-.16.29v4.75c0,.12-.06.22-.17.28-.11.06-.23.06-.34,0l-.47-.27c-.1-.06-.17-.16-.17-.29V2.28Z"/>
      <path class="cls-1" d="M25.1,1.82c.1,0,.21.03.3.08l1.44.75,9.99,5.36v-.6c0-.24,0-.42.03-.58L25.45,1.33c-.33-.14-.83-.21-1.14,0-.24.16-.37.48-.37.96v4.66l.49.3.03-4.77c0-.23.12-.43.31-.55.11-.06.22-.09.33-.09h0ZM37.15,8.83c-.05,0-.1-.02-.15-.03l-11.88-6.35-.04,4.77c0,.23-.11.44-.32.55-.2.12-.43.11-.64,0l-.46-.27c-.21-.12-.32-.32-.32-.56V2.28c0-.87.35-1.29.65-1.49.54-.35,1.27-.23,1.72-.03l11.65,5.6c.13.06.2.21.17.36-.04.15-.06.37-.06.66v1.13c0,.11-.06.21-.16.27-.04.03-.1.04-.15.04Z"/>
      <path class="cls-2" d="M1.54,16l-.03.04-.03.03-.02.03v.04s-.02.03-.02.03v4.79c0,.11-.03.16-.11.24l.92-.57c.07-.09.09-.13.09-.24v-4.83s.03-.04.03-.04l.02-.03.03-.04.03-.03-.92.58h0ZM.77,14.86l.92-.59c.56-.29.9-.25,1.48-.04l11.64,5.59-.91.58L2.26,14.82c-.59-.22-.93-.25-1.49.05h0Z"/>
      <path class="cls-1" d="M2.09,14.43c.09.03.18.06.28.1l11.51,5.53.3-.19L3.04,14.51c-.41-.15-.64-.19-.96-.08h0ZM1.75,16.23v4.35s.29-.18.29-.18l.02-4.37-.3.2h0ZM1.35,21.52c-.09,0-.17-.03-.24-.11-.09-.11-.09-.29.01-.4l.02-4.77s0-.09,0-.1.02-.07.02-.09c.01,0,.03-.06.03-.07.01-.02.04-.06.04-.08,0,0,.03-.06.04-.07.02-.02.07-.07.09-.09l.9-.57-.16-.07c-.5-.18-.74-.21-1.22.03-.15.08-.32.03-.4-.12-.09-.14-.04-.32.1-.41l.92-.58c.7-.36,1.11-.3,1.76-.07l11.67,5.6c.09.05.17.15.17.26.01.11-.05.21-.15.28l-.91.58c-.1.06-.2.06-.31.02L2.76,15.4c0,.08-.02.15-.07.21l-.03,4.77c0,.2-.05.31-.17.44-.03.03-.04.04-.07.06l-.92.57c-.05.03-.1.05-.17.05Z"/>
      <path class="cls-3" d="M.31,16.04c0-1.65,1.35-1.49,1.95-1.23l11.64,5.59c-.05.2-.07.43-.07.74v1.14l-10.45-5.6-1.44-.76c-.11-.05-.23-.05-.33.02-.1.06-.15.16-.15.28v4.74c0,.12-.06.24-.17.3-.11.06-.23.06-.33,0l-.47-.27c-.11-.06-.16-.17-.16-.3v-4.66Z"/>
      <path class="cls-1" d="M1.78,15.58c.1,0,.2.03.3.08l1.44.75,9.99,5.35v-.6c0-.22.01-.42.04-.58L2.12,15.1c-.32-.15-.82-.22-1.13-.02-.25.16-.37.49-.37.96v4.66l.48.3.05-4.76c0-.23.11-.43.31-.56.1-.06.22-.1.33-.1h0ZM13.83,22.59c-.05,0-.11,0-.15-.03L1.79,16.21l-.03,4.76c0,.24-.12.44-.32.56-.2.12-.44.12-.64,0l-.47-.27c-.2-.11-.32-.32-.32-.56v-4.66c0-.88.36-1.29.65-1.48.55-.36,1.27-.24,1.73-.03l11.65,5.59c.13.07.2.22.16.36-.04.17-.06.37-.06.66v1.14c0,.1-.05.21-.15.26-.05.03-.11.04-.16.04Z"/>
      <path class="cls-3" d="M26.75,14.32v3.4c0,.66.16,1.39.67,1.85.2.17,1.27.62,1.49.74-.71-.43-.92-1.24-.92-2.03v-3.4l-1.23-.56h0ZM25.62,13.26l.57-.33h0l1.65-.95,9.03-5.21c.13-.08,1-.61,1.27-.7.09-.04.21-.06.3-.03l1.11.64c-.24-.08-.62.18-.82.29l-9.78,5.65-1.5.86h0l-.73.43-10.85,6.26c-.85.5-.97.79-.97,1.81v5.06c0,.47.11.95.48,1.26-.15-.08-1.08-.6-1.18-.69-.32-.31-.42-.77-.42-1.21v-5.14c0-.97.16-1.26.97-1.73l10.84-6.26h0Z"/>
      <path class="cls-1" d="M25.62,13.26h0,0ZM27.06,14.8v2.92c0,.51.1,1.21.57,1.62.04.03.13.08.24.14-.13-.35-.19-.75-.2-1.2v-3.21l-.62-.28h0ZM38.31,6.32s-.03,0-.07.03c-.2.08-.9.49-1.12.62l-.1.06-11.25,6.49h0l-10.84,6.26c-.71.42-.81.61-.81,1.47v5.14c0,.31.05.73.32.98.03.03.1.07.22.14-.03-.15-.04-.3-.04-.48v-5.06c0-1.11.15-1.5,1.13-2.08l22.92-13.23s.08-.05.12-.07l-.47-.27h0ZM15.4,28.6c-.05,0-.11-.02-.15-.04l-.14-.08c-.84-.47-1.03-.59-1.09-.67-.34-.31-.51-.81-.51-1.43v-5.14c0-1.08.22-1.47,1.12-2l10.85-6.26h0l11.34-6.55c.48-.28,1-.58,1.23-.66.2-.08.38-.09.54-.02l1.14.66c.14.08.19.24.12.39-.06.15-.24.22-.37.17-.1-.02-.39.15-.49.22l-.08.04-11.89,6.86,1.11.5c.1.05.17.17.17.28v3.4c.01.87.27,1.46.77,1.77.15.09.19.27.1.42-.08.15-.27.19-.42.11-.07-.04-.25-.12-.45-.22-.56-.25-.93-.43-1.08-.56-.5-.45-.77-1.17-.77-2.09v-3.3l-10.4,6c-.73.43-.82.6-.82,1.55v5.06c0,.48.12.82.37,1.03.12.1.14.29.05.42-.06.08-.16.13-.25.13Z"/>
      <path class="cls-2" d="M14.92,21.97v-.1c0-1.01.22-1.28.97-1.71l.95-.55c7.4-4.27,13.76-7.94,21.15-12.2l.76-.44c.72-.41,1-.55,1.11.51v5.15c0,.66-.23,1.41-.62,2.06h0c-.37.67-.9,1.24-1.48,1.57l-6.62,3.83c-.87.51-1.65.55-2.22.22-.57-.33-.92-1.04-.92-2.03v-3.4l-1.2.7v3.4c0,1-.16,2.21-.73,3.2-.57.98-1.55,1.75-2.42,2.25l-6.63,3.83c-.57.33-1.1.36-1.48.14h0c-.38-.22-.61-.69-.61-1.36v-5.06Z"/>
      <path class="cls-1" d="M39.42,6.96c-.05.01-.33.17-.52.28l-22.85,13.19c-.66.39-.82.57-.82,1.45v5.15c0,.53.16.92.46,1.09.3.17.71.12,1.17-.14l6.62-3.83c.6-.35,1.69-1.08,2.3-2.14.57-.98.69-2.2.69-3.04v-3.4c0-.1.06-.21.16-.26l1.2-.69c.1-.06.22-.06.31,0,.1.05.15.16.15.26v3.4c0,.85.28,1.49.77,1.77.5.27,1.17.21,1.91-.22l6.62-3.82c.51-.3.99-.8,1.36-1.43,0,0,0-.02.02-.02.36-.64.57-1.32.57-1.92v-5.15c-.05-.42-.12-.51-.13-.52h0ZM16.09,28.84c-.25,0-.5-.06-.7-.18-.51-.29-.77-.86-.77-1.63v-5.14c0-1.15.29-1.52,1.13-2l22.85-13.19c.45-.25.79-.45,1.12-.28.29.15.39.51.45,1.02v5.19c0,.69-.23,1.47-.64,2.19-.01.01-.01.03-.02.04-.43.73-.99,1.33-1.6,1.68l-6.62,3.83c-.93.54-1.83.62-2.53.22-.69-.4-1.08-1.22-1.08-2.3v-2.86l-.58.34v3.21c0,.92-.13,2.25-.76,3.35-.64,1.12-1.73,1.9-2.53,2.37l-6.62,3.82c-.38.22-.75.33-1.09.33Z"/>
      <path class="cls-3" d="M25.61,16.09l-9.51,5.48v4.91c0,.21.08.36.19.42h0c.12.07.29.06.47-.04l7.06-4.07c.49-.29.94-.77,1.26-1.33.32-.56.52-1.19.52-1.76v-3.62Z"/>
      <path class="cls-1" d="M16.41,21.75v4.74c0,.11.04.16.04.16,0,0,.06,0,.17-.05l7.06-4.08c.43-.24.84-.69,1.15-1.22.3-.53.48-1.11.48-1.6v-3.09l-8.88,5.13h0ZM16.46,27.27c-.11,0-.23-.03-.32-.09-.23-.13-.35-.38-.35-.69v-4.91c0-.11.06-.21.16-.27l9.5-5.48c.1-.05.22-.05.31,0,.09.05.15.16.15.27v3.62c0,.6-.2,1.28-.56,1.9-.36.64-.84,1.15-1.37,1.44l-7.07,4.08c-.15.1-.3.14-.45.14Z"/>
      <path class="cls-2" d="M23.04,22.18c1.03-.67,1.58-1.55,1.63-2.78v-2.77l.93-.53v3.62c-.05,1.23-.74,2.43-1.78,3.09l-7.06,4.07-.67-.38.03-.33,6.91-3.98Z"/>
      <path class="cls-1" d="M23.04,22.18h0,0ZM16.45,26.33l.31.18,6.9-3.99c.96-.61,1.58-1.7,1.63-2.82v-3.08l-.3.18v2.59c-.06,1.32-.65,2.31-1.78,3.04h-.02l-6.74,3.89h0ZM16.77,27.18c-.05,0-.1-.01-.15-.04l-.66-.38c-.12-.06-.17-.17-.16-.3l.03-.32c0-.1.07-.19.16-.23l6.89-3.99c.97-.62,1.44-1.42,1.5-2.53v-2.76c0-.1.05-.21.15-.26l.93-.54c.1-.05.22-.05.31,0,.09.05.15.16.15.27v3.62c-.05,1.35-.79,2.63-1.92,3.35l-7.07,4.08s-.1.04-.15.04Z"/>
      <path class="cls-3" d="M38.73,8.51l-9.41,5.43-.19.11v3.66c0,.44.12.92.53,1.16.4.24.89.1,1.27-.12l6.7-3.92c.4-.25,1.09-1.03,1.09-1.96v-4.35Z"/>
      <path class="cls-1" d="M29.44,14.23v3.48c0,.25.05.71.37.9.34.19.79-.03.96-.13l6.7-3.91c.3-.19.95-.87.95-1.7v-3.81l-8.99,5.18h0ZM30.14,19.3c-.23,0-.44-.06-.63-.17-.44-.25-.69-.76-.69-1.43v-3.66c0-.11.06-.21.15-.27l9.61-5.54c.09-.06.21-.06.3,0,.1.05.16.16.16.26v4.35c0,1.05-.76,1.92-1.24,2.22l-6.72,3.93c-.33.19-.65.28-.95.28Z"/>
      <path class="cls-2" d="M37.86,12.7v-3.69l.87-.5v4.35c0,.94-.7,1.71-1.09,1.96l-6.7,3.92c-.35.18-.64.28-.98.22l-.66-.49c.25,0,.49-.11.77-.24l6.84-3.94c.69-.44.96-.67.96-1.59Z"/>
      <path class="cls-1" d="M30.08,18.68c.21.02.42-.06.7-.2l6.69-3.91c.3-.19.95-.87.95-1.7v-3.81l-.25.15v3.51c0,1.04-.32,1.35-1.1,1.84l-6.86,3.96c-.07.03-.14.07-.22.11l.09.06h0ZM30.15,19.29c-.08,0-.17,0-.24-.02-.05,0-.09-.03-.13-.05l-.66-.49c-.11-.08-.15-.21-.11-.35.04-.12.16-.21.29-.21.19,0,.39-.09.63-.21l6.83-3.95c.64-.41.81-.55.81-1.32v-3.69c0-.11.05-.21.15-.27l.88-.5c.09-.06.21-.06.3,0,.1.05.16.16.16.26v4.35c0,1.05-.76,1.92-1.24,2.22l-6.72,3.93c-.27.14-.58.28-.93.28Z"/>
    </g>
  </g>
</svg>