<?xml version="1.0" encoding="UTF-8"?>
<svg id="Layer_2" data-name="Layer 2" xmlns="http://www.w3.org/2000/svg" viewBox="0 0 24.55 44.72" fill="currentColor">
  <defs>
    <style>
      .cls-1 {
        fill: #fff;
      }

      .cls-1, .cls-2, .cls-3, .cls-4 {
        fill-rule: evenodd;
      }

      .cls-2 {
        fill: #1a87c7;
      }

      .cls-3 {
        fill: #bdedf8;
      }

      .cls-4 {
        fill: #66ceef;
      }
    </style>
  </defs>
  <g id="_Layer_" data-name="&amp;lt;Layer&amp;gt;">
    <g>
      <path class="cls-3" d="M22.49,5L14.44.35c-.18-.09-.32-.04-.5.05L1.02,7.86c-.23.14-.36.29-.5.52l8.06,4.65c.14-.23.27-.38.5-.52l12.92-7.45c.17-.09.31-.14.5-.05Z"/>
      <path class="cls-2" d="M.97,8.29l7.51,4.34c.11-.14.24-.26.43-.37l12.76-7.36L14.29.62s-.05-.02-.21.06L1.17,8.12c-.08.05-.14.1-.2.17h0ZM8.58,13.34s-.1-.02-.15-.04L.37,8.65c-.07-.04-.12-.11-.14-.19-.03-.08-.01-.17.03-.24.15-.24.3-.44.59-.62L13.79.13c.23-.12.48-.2.77-.06l8.09,4.66c.14.08.19.26.11.41-.07.15-.25.2-.4.14-.05-.02-.08-.04-.22.04l-12.91,7.45c-.17.1-.26.2-.39.42-.06.1-.16.15-.26.15Z"/>
      <path class="cls-4" d="M.31,9.07v29.31c0,.2.03.34.2.46l8.06,4.65c-.17-.12-.19-.26-.2-.46V13.72c0-.27.08-.45.21-.69L.52,8.38c-.13.24-.19.42-.21.69Z"/>
      <path class="cls-2" d="M.63,9.08v29.3c0,.15.03.17.07.2l7.36,4.25c0-9.71,0-19.41,0-29.11,0-.23.04-.4.11-.57L.67,8.82c-.03.08-.04.16-.04.26h0ZM8.57,43.8c-.05,0-.1-.02-.15-.04L.37,39.1c-.31-.21-.36-.47-.37-.71V9.07s0,0,0-.01c.02-.34.1-.57.24-.83.04-.07.11-.13.18-.15.09-.02.17-.01.24.03l8.06,4.65c.14.08.19.27.11.41-.12.22-.16.36-.17.56,0,9.76,0,19.52,0,29.29,0,.16.03.17.08.2.13.09.17.28.08.42-.06.09-.16.14-.26.14Z"/>
      <path class="cls-4" d="M9.9,31.81l-1.53-.89v12.1c0,.19.03.34.2.45l1.54.89c-.17-.12-.2-.26-.21-.46v-12.1Z"/>
      <path class="cls-2" d="M8.67,31.46v11.57c0,.15.03.17.07.2l.84.49v-11.73s-.91-.53-.91-.53h0ZM10.11,44.68c-.06,0-.11-.01-.15-.04l-1.54-.89c-.3-.21-.35-.46-.36-.71v-12.11c0-.11.06-.21.16-.27.1-.06.22-.06.31,0l1.53.89c.09.05.15.16.15.27v12.1c0,.15.03.17.07.2.13.1.17.28.08.42-.05.09-.16.14-.25.14Z"/>
      <path class="cls-3" d="M24.02,5.89l-1.53-.89c-.18-.09-.32-.04-.5.05l-12.92,7.46c-.23.14-.36.29-.5.52l1.53.89c.15-.23.27-.38.5-.53l12.93-7.45c.17-.09.31-.13.5-.05Z"/>
      <path class="cls-2" d="M9.03,12.94l.99.57c.11-.14.24-.26.42-.38l12.77-7.36-.87-.5s-.04-.03-.2.06l-12.91,7.45c-.08.05-.14.1-.2.16h0ZM10.11,14.22s-.1-.01-.15-.04l-1.54-.88c-.07-.04-.12-.11-.14-.19-.03-.08-.01-.16.03-.24.15-.25.3-.44.59-.63l12.93-7.46c.24-.12.48-.2.78-.06l1.56.9c.15.08.2.26.12.41-.08.15-.25.21-.41.14-.05-.02-.07-.03-.22.04l-12.92,7.45c-.16.1-.26.21-.39.42-.05.09-.16.14-.26.14Z"/>
      <path class="cls-4" d="M8.37,13.72v17.21l1.53.89V14.61c.02-.27.09-.46.21-.69l-1.53-.89c-.13.24-.2.42-.21.69Z"/>
      <path class="cls-2" d="M8.67,30.75l.92.53V14.61c0-.21.04-.38.11-.57l-.99-.57c-.02.08-.04.17-.04.26v17.02h0ZM9.9,32.12c-.05,0-.11-.01-.15-.04l-1.54-.89c-.09-.06-.15-.16-.15-.27V13.72h0c0-.35.11-.58.24-.84.03-.07.11-.13.18-.15.09-.02.17-.01.24.03l1.53.89c.14.08.19.26.11.41-.11.22-.15.36-.16.56v17.19c0,.11-.06.21-.15.27-.04.03-.1.04-.16.04Z"/>
      <path class="cls-1" d="M9.9,31.81v12.1c0,.45.31.63.7.41l12.93-7.45c.38-.23.7-.77.7-1.22v-12.11l-14.33,8.27Z"/>
      <path class="cls-2" d="M10.21,31.99v11.92c0,.12.03.18.04.19.03.02.09.01.19-.05l12.92-7.45c.29-.17.55-.61.55-.95v-11.58s-13.71,7.92-13.71,7.92h0ZM10.29,44.72c-.12,0-.23-.03-.34-.09-.24-.13-.37-.4-.37-.72v-12.1c.01-.11.07-.21.16-.27l14.33-8.27c.09-.06.22-.06.31,0,.1.06.15.16.15.27v12.11c0,.55-.37,1.21-.86,1.48l-12.92,7.45c-.16.09-.31.13-.46.13Z"/>
      <path class="cls-1" d="M9.9,14.66v17.16l14.33-8.27V6.35c0-.45-.31-.63-.7-.41l-.97.56-11.86,6.84c-.47.27-.81.74-.81,1.33Z"/>
      <path class="cls-2" d="M9.9,14.66h0,0ZM23.84,6.15s-.09.01-.16.05l-12.82,7.4c-.42.24-.65.62-.65,1.06v16.62l13.71-7.92V6.35c0-.12-.03-.18-.05-.19-.01,0-.02,0-.04,0h0ZM9.9,32.12c-.05,0-.11-.01-.15-.04-.09-.06-.15-.16-.15-.27V14.66c0-.66.35-1.24.96-1.59l12.83-7.4c.28-.16.57-.18.8-.05.23.13.36.4.36.72v17.19c-.01.11-.06.21-.16.26l-14.33,8.28s-.1.04-.16.04Z"/>
      <path class="cls-4" d="M17.94,14.34c-.17-.09-.4-.08-.65.07-.25.15-.49.4-.65.69-.17.29-.27.61-.27.9s.11.5.27.6c.17.1.4.08.65-.06.25-.15.48-.4.65-.69h0c.17-.29.27-.61.27-.91s-.1-.49-.26-.59h-.01Z"/>
      <path class="cls-2" d="M17.7,14.59c-.07,0-.16.03-.25.08-.2.11-.4.32-.54.57-.15.25-.23.52-.23.75,0,.17.04.29.11.33.07.04.2.02.34-.06.2-.11.39-.32.54-.57.15-.25.23-.52.23-.75,0-.16-.05-.28-.11-.32l.15-.27-.15.27s-.05-.02-.09-.02h0ZM16.87,16.96c-.14,0-.27-.03-.39-.1-.27-.15-.42-.47-.42-.86,0-.33.11-.71.3-1.06.2-.35.48-.63.76-.8.34-.19.69-.22.95-.07h0c.29.18.43.48.43.86,0,.34-.11.71-.31,1.06-.2.35-.47.63-.76.8-.19.11-.39.17-.57.17Z"/>
      <path class="cls-2" d="M23.15,23.19s-.1,0-.13-.03l-.89-.42c-.15-.07-.22-.25-.14-.41.07-.15.25-.22.41-.15l.43.21v-5.22l-.7-.33c-.15-.07-.22-.26-.14-.41.07-.15.25-.22.41-.15l.88.42c.1.05.17.16.17.28v5.9c0,.1-.05.2-.14.26-.05.03-.11.05-.17.05Z"/>
      <path class="cls-2" d="M23.15,32.82s-.1-.01-.13-.03l-.89-.42c-.15-.07-.22-.26-.14-.41.07-.15.25-.22.41-.15l.43.21v-5.22l-.7-.33c-.15-.07-.22-.26-.14-.41.07-.16.25-.22.41-.15l.88.42c.1.05.17.16.17.28v5.9c0,.11-.05.2-.14.26-.05.03-.11.05-.17.05Z"/>
    </g>
  </g>
</svg>