<?xml version="1.0" encoding="UTF-8"?>
<svg id="Layer_2" data-name="Layer 2" xmlns="http://www.w3.org/2000/svg" viewBox="0 0 36.15 43.91" fill="currentColor">
  <defs>
    <style>
      .cls-1 {
        fill: #fff;
      }

      .cls-1, .cls-2, .cls-3, .cls-4 {
        fill-rule: evenodd;
      }

      .cls-2 {
        fill: #1a87c7;
      }

      .cls-3 {
        fill: #bdedf8;
      }

      .cls-4 {
        fill: #66ceef;
      }
    </style>
  </defs>
  <g id="_Layer_" data-name="&amp;lt;Layer&amp;gt;">
    <g>
      <path class="cls-1" d="M18.12,43.6c-2.49-.02-4.99-.34-7.37-1.12-3.31-1.1-7.49-3.55-7.53-7.48v-13.38c.17,8,16.46,11.25,25.42,6.1,2.26-1.31,4.34-3.3,4.39-6.1v13.38c-.06,5.54-7.79,8.02-12.37,8.47l-2.54.13Z"/>
      <path class="cls-2" d="M3.53,24.17v10.82c.05,4.43,5.62,6.62,7.33,7.19,2.16.71,4.61,1.09,7.27,1.11l2.53-.12c4.82-.48,12.02-3.06,12.07-8.18v-10.85c-.87,1.76-2.5,3.03-3.93,3.85-5.84,3.36-15.42,3.36-21.36.01-1.88-1.06-3.2-2.36-3.91-3.83h0ZM18.12,43.9h0c-2.73-.02-5.24-.4-7.47-1.14-1.8-.6-7.7-2.92-7.74-7.77v-13.38c0-.17.13-.3.3-.3h0c.17,0,.3.13.31.3.06,2.89,2.32,4.78,4.21,5.85,5.77,3.25,15.07,3.25,20.74-.02,1.9-1.09,4.18-2.99,4.24-5.83,0-.18.14-.3.31-.3h0c.17,0,.3.14.3.3v13.38c-.06,5.95-8.3,8.35-12.64,8.79l-2.55.12h-.02Z"/>
      <path class="cls-3" d="M12.42,42.94c-2.5-.57-5.38-1.82-7.22-3.66l-.8-.94v-13.37c1.83,2.48,5.1,3.89,8.01,4.59v13.38Z"/>
      <path class="cls-2" d="M4.71,38.23l.73.84c1.53,1.53,4.01,2.82,6.68,3.48l-.02-12.74c-1.99-.51-5.27-1.65-7.39-3.97v12.39h0ZM12.42,43.25s-.04,0-.07,0c-2.92-.65-5.68-2.05-7.38-3.74l-.82-.95c-.05-.06-.08-.13-.08-.21v-13.37c0-.13.09-.25.21-.3.13-.03.26,0,.34.11,2.03,2.73,5.78,3.97,7.84,4.48.14.03.24.16.24.3v13.38c.01.09-.03.18-.1.24-.05.04-.12.07-.19.07Z"/>
      <path class="cls-1" d="M30.78,26.16l.5-.5h0c1.06-1.14,1.71-2.47,1.75-4.05,0,2.01.12,13.06-.07,14.16-.25,1.46-1.11,2.72-2.17,3.71v-13.33Z"/>
      <path class="cls-2" d="M31.09,26.29v12.44c.67-.74,1.35-1.76,1.56-3.01.14-.84.1-7.9.08-11.61-.3.62-.71,1.2-1.23,1.76l-.42.42h0ZM30.78,39.79s-.08-.01-.12-.03c-.11-.04-.19-.16-.19-.28v-13.33c0-.08.03-.16.09-.22l.5-.5c1.08-1.16,1.63-2.42,1.66-3.83,0-.18.14-.3.31-.3h0c.17,0,.3.14.3.3,0,.41,0,1.17.01,2.15.03,5.39.06,11.21-.09,12.06-.29,1.75-1.39,3.08-2.27,3.89-.06.05-.13.08-.21.08Z"/>
      <path class="cls-3" d="M23.79,29.58c2.69-.62,5.57-1.88,7.49-3.91l.53-.64-.07,13.46-.47.56c-1.92,2.05-4.79,3.3-7.49,3.91v-13.37h0Z"/>
      <path class="cls-2" d="M24.1,29.82v12.74c2.91-.73,5.37-2.05,6.96-3.73l.38-.46.06-12.49c-2.26,2.39-5.51,3.49-7.4,3.94h0ZM23.79,43.26c-.07,0-.14-.02-.19-.07-.07-.06-.12-.15-.12-.24v-13.37c0-.14.1-.27.24-.3,1.78-.42,5.11-1.46,7.34-3.83l.52-.63c.08-.1.22-.13.34-.09.12.04.2.16.2.28l-.06,13.46c0,.08-.03.15-.07.2l-.47.56c-1.74,1.85-4.46,3.28-7.66,4.02-.02,0-.05,0-.07,0Z"/>
      <path class="cls-4" d="M18.11,31.88c-.63,4.39-3.54,7.43-5.31,11.15,3.51.75,7.11.76,10.62,0-1.77-3.71-4.55-6.83-5.31-11.15Z"/>
      <path class="cls-2" d="M13.25,42.8c3.24.64,6.5.64,9.72,0-.55-1.1-1.19-2.17-1.81-3.21-1.17-1.95-2.37-3.95-3.03-6.28-.62,2.36-1.85,4.35-3.05,6.3-.63,1.02-1.28,2.08-1.83,3.18h0ZM18.13,43.91c-1.8,0-3.6-.2-5.39-.58-.09-.02-.17-.08-.21-.17-.04-.08-.04-.18,0-.27.6-1.25,1.33-2.44,2.04-3.59,1.39-2.26,2.83-4.6,3.25-7.47.02-.15.15-.26.3-.26h0c.15,0,.28.1.31.25.5,2.82,1.91,5.18,3.28,7.47.69,1.16,1.41,2.36,2.01,3.6.04.09.04.18,0,.27-.04.09-.12.14-.21.17-1.78.38-3.57.57-5.36.57Z"/>
      <path class="cls-1" d="M11.03,32.23c-1.16-.3-2.32-.67-3.42-1.13-2.24-.95-4.53-2.39-5.94-4.36l-.02-.03L18.07,5.6l-7.04,26.63Z"/>
      <path class="cls-2" d="M2.03,26.71c1.55,2.06,3.94,3.36,5.7,4.1.96.41,2,.75,3.08,1.04l6.58-24.88L2.03,26.71h0ZM11.03,32.53s-.05,0-.08-.01c-1.22-.3-2.39-.69-3.47-1.14-1.88-.79-4.46-2.21-6.08-4.46-.08-.12-.1-.3-.01-.4L17.83,5.4c.09-.11.25-.16.38-.09.13.07.2.22.16.36l-7.04,26.63c-.04.13-.16.23-.3.23Z"/>
      <path class="cls-4" d="M1.64,26.71c-.89-1.25-1.33-2.57-1.33-3.9s.45-2.67,1.35-3.93c.14-.2.3-.4.47-.6v-.02c.25-.27.51-.55.79-.81.36-.51,4.45-3.2,5.41-3.97l9.74-7.88L1.64,26.71Z"/>
      <path class="cls-2" d="M16.18,7.52l-7.66,6.21c-.39.31-1.26.92-2.19,1.56-1.18.83-2.97,2.08-3.16,2.34-.31.3-.56.57-.8.84-.18.2-.32.39-.47.59-.86,1.19-1.29,2.46-1.29,3.75,0,1.16.35,2.3,1.04,3.37L16.18,7.52h0ZM1.64,27.01h0c-.1,0-.19-.04-.25-.13-.92-1.29-1.39-2.66-1.39-4.08s.47-2.81,1.41-4.11c.15-.2.31-.41.48-.62.26-.31.53-.59.82-.85.19-.29,1.37-1.11,3.27-2.44.92-.64,1.78-1.24,2.15-1.55l9.74-7.88c.12-.1.3-.09.41.03.11.11.12.28.03.41L1.88,26.9c-.06.07-.15.11-.24.11Z"/>
      <path class="cls-1" d="M34.5,26.71l-.02.03c-1.22,1.7-3.06,2.97-4.88,3.87-1.43.71-2.95,1.23-4.5,1.63l-7.04-26.63,16.43,21.11Z"/>
      <path class="cls-2" d="M18.75,6.98l6.58,24.87c1.5-.39,2.89-.9,4.14-1.51,1.41-.7,3.34-1.89,4.65-3.62L18.75,6.98h0ZM25.11,32.53c-.14,0-.26-.1-.3-.23l-7.04-26.63c-.04-.14.03-.29.16-.36.13-.07.29-.02.38.09l16.43,21.11c.08.11.09.26,0,.37l-.02.03c-1.38,1.92-3.47,3.21-4.99,3.96-1.37.68-2.9,1.23-4.56,1.64-.02.01-.05.01-.07.01Z"/>
      <path class="cls-4" d="M35.83,22.8c0,1.33-.44,2.65-1.33,3.9L18.07,5.6c3,2.43,6.74,5.99,10.15,8.42,1.73,1.23,3.67,2.12,5.19,3.63,1.39,1.37,2.41,3.15,2.41,5.16Z"/>
      <path class="cls-2" d="M36.14,22.8h0,0ZM20.11,7.71l14.37,18.47c.69-1.08,1.04-2.22,1.04-3.37h0c0-2.18-1.26-3.89-2.32-4.94-.96-.95-2.13-1.67-3.26-2.37-.63-.39-1.28-.79-1.9-1.22-2.17-1.55-4.44-3.52-6.63-5.43-.45-.38-.88-.76-1.31-1.14h0ZM34.5,27.01c-.09,0-.18-.04-.24-.11L17.83,5.79c-.1-.13-.08-.3.03-.41.11-.11.29-.12.41-.03,1.11.9,2.3,1.93,3.56,3.03,2.18,1.89,4.43,3.85,6.58,5.38.6.43,1.24.83,1.86,1.21,1.16.71,2.36,1.45,3.37,2.45,1.15,1.13,2.51,2.98,2.51,5.38h0c0,1.41-.47,2.78-1.39,4.08-.05.09-.15.13-.24.13h0Z"/>
      <path class="cls-4" d="M18.07,33.06c-2.31,0-4.63-.26-6.8-.78l-.23-.05,7.04-26.63h0l7.04,26.63-.23.05c-2.18.52-4.49.78-6.81.78Z"/>
      <path class="cls-2" d="M11.41,32c4.23,1,9.08,1,13.32,0l-6.66-25.2-6.66,25.2h0ZM18.07,33.36c-2.38,0-4.69-.26-6.88-.78l-.23-.06c-.08-.02-.15-.07-.19-.14-.04-.08-.05-.15-.03-.24l7.04-26.62c.03-.14.16-.24.3-.24h0c.14,0,.26.1.3.24l7.04,26.62c.02.09,0,.17-.03.24-.04.07-.11.12-.19.14l-.23.06c-2.19.52-4.51.78-6.88.78Z"/>
      <path class="cls-2" d="M18.07,6.13c-.17,0-.31-.14-.31-.3V.4c0-.16.14-.3.31-.3s.31.14.31.3v5.42c0,.17-.14.3-.31.3Z"/>
      <path class="cls-1" d="M15.52,2.17c.52-.43.78-1.02,1.28-1.45.33-.27.85-.57,1.27-.32v2.66c-.85-.25-1.48.72-1.92,1.29-.44.57-1.22,1.22-1.98.78h-.01s0-.02,0-.02h0s0-.02,0-.02v-2.65c.5.29.96.04,1.37-.27Z"/>
      <path class="cls-2" d="M15.52,2.17h0,0ZM14.46,4.93c.62.21,1.25-.52,1.44-.77l.12-.15c.4-.53.97-1.28,1.74-1.3V.62c-.29-.05-.62.22-.76.35-.21.18-.38.41-.57.64-.2.28-.42.56-.71.81,0,0,0,0-.01,0-.21.16-.69.51-1.25.44v2.06h0ZM14.68,5.58c-.22,0-.44-.05-.66-.18-.02-.02-.05-.04-.07-.05-.01-.02-.05-.07-.07-.09,0-.02-.03-.09-.03-.11v-2.7c0-.11.05-.21.15-.27.09-.05.21-.05.31,0,.28.17.58.09,1.02-.24.24-.19.42-.44.61-.69.19-.26.39-.52.66-.76.6-.49,1.17-.61,1.62-.36.1.06.15.16.15.27v2.66c0,.1-.05.18-.12.24-.08.06-.18.08-.27.05-.53-.16-.98.37-1.47,1.02l-.12.16c-.43.56-1.06,1.04-1.71,1.04Z"/>
      <path class="cls-3" d="M15.52,2.17c.52-.43.78-1.02,1.28-1.45h.01s0,2.8,0,2.8c-.26.27-.48.58-.67.83-.18.22-.4.46-.66.64v-2.79l.04-.02Z"/>
      <path class="cls-2" d="M15.79,2.34v1.95c.04-.05.08-.09.11-.14l.12-.15c.15-.19.31-.41.49-.61v-1.89s-.05.06-.08.1c-.19.25-.38.51-.64.74h0ZM15.48,5.29s-.1-.01-.14-.04c-.1-.05-.17-.15-.17-.27v-2.79c0-.1.05-.18.13-.24l.22.22-.2-.24c.24-.2.42-.44.62-.69.19-.26.39-.52.66-.76.09-.08.23-.1.34-.05.11.05.19.16.19.28v2.81c0,.09-.03.16-.09.22-.19.2-.37.43-.53.63l-.12.16c-.15.2-.41.48-.73.7-.05.03-.12.05-.18.05Z"/>
    </g>
  </g>
</svg>