<?xml version="1.0" encoding="UTF-8"?>
<svg id="Layer_2" data-name="Layer 2" xmlns="http://www.w3.org/2000/svg" viewBox="0 0 33.77 41.08" fill="currentColor">
  <defs>
    <style>
      .cls-1 {
        fill: #1a87c7;
      }

      .cls-1, .cls-2, .cls-3, .cls-4 {
        fill-rule: evenodd;
      }

      .cls-2 {
        fill: #bdedf8;
      }

      .cls-3 {
        fill: #ecf6f9;
      }

      .cls-4 {
        fill: #66ceef;
      }
    </style>
  </defs>
  <g id="_Layer_" data-name="&amp;lt;Layer&amp;gt;">
    <g>
      <path class="cls-2" d="M25.28,7.09L5.48.4c-.4-.13-.67-.12-1.07-.05C1.51.99-.98,6.32,1.04,8.11l15.64,13.75c-.44-.75-.69-1.74-.69-2.94,0-4.04,2.83-8.95,6.33-10.97,1.07-.62,2.08-.89,2.96-.86Z"/>
      <path class="cls-1" d="M4.88.61c-.13,0-.26.02-.42.04-1.69.37-3.2,2.5-3.68,4.35-.34,1.27-.18,2.32.45,2.87l14.66,12.88c-.15-.56-.23-1.16-.23-1.83,0-4.13,2.91-9.17,6.48-11.23.59-.34,1.17-.59,1.74-.74L5.37.7c-.18-.06-.34-.09-.5-.09h0ZM16.68,22.16c-.07,0-.14-.03-.2-.08L.83,8.33C.03,7.62-.21,6.35.19,4.85.71,2.85,2.34.49,4.34.06c.43-.08.77-.09,1.23.06l19.8,6.68c.15.04.23.19.21.35-.03.15-.17.27-.31.25-.86-.03-1.82.25-2.8.81-3.41,1.96-6.18,6.76-6.18,10.7,0,1.11.23,2.06.66,2.78.08.13.05.3-.07.39-.05.05-.13.07-.2.07Z"/>
      <path class="cls-4" d="M19.2,10.7L2.77,1.21c.51-.43,1.06-.73,1.63-.86.4-.07.67-.08,1.07.05l19.8,6.68c-.89-.03-1.89.24-2.96.86-1.13.65-2.19,1.61-3.11,2.75Z"/>
      <path class="cls-1" d="M3.33,1.18l15.8,9.12c.92-1.1,1.96-2,3.02-2.61.59-.34,1.17-.59,1.74-.74L5.37.7c-.35-.11-.57-.11-.91-.04-.37.09-.75.26-1.13.52h0ZM19.2,11c-.05,0-.11,0-.16-.04L2.63,1.47c-.09-.04-.15-.14-.16-.23,0-.1.03-.2.11-.26C3.16.49,3.75.19,4.34.06c.43-.08.77-.09,1.23.06l19.8,6.68c.15.04.23.19.21.35-.03.15-.17.27-.31.25-.86-.03-1.82.25-2.8.81-1.06.61-2.1,1.53-3.03,2.67-.05.08-.15.11-.24.11Z"/>
      <path class="cls-3" d="M25.28,7.09L7.68,1.15c-.45.03-.96.19-1.48.5-2.02,1.17-3.66,4.01-3.66,6.34,0,.83.21,1.5.57,1.94l13.58,11.93c-.44-.75-.69-1.74-.69-2.94,0-4.04,2.83-8.95,6.33-10.97,1.07-.62,2.08-.89,2.96-.86Z"/>
      <path class="cls-1" d="M7.64,1.47c-.4.03-.84.19-1.28.44-1.94,1.12-3.51,3.84-3.51,6.08,0,.74.17,1.34.5,1.75l12.55,11.02c-.15-.55-.23-1.16-.23-1.83,0-4.13,2.91-9.17,6.48-11.23.59-.34,1.17-.59,1.74-.74L7.64,1.47h0ZM16.68,22.16c-.07,0-.14-.03-.2-.08L2.91,10.16c-.45-.55-.68-1.29-.68-2.17,0-2.43,1.71-5.39,3.82-6.61.55-.32,1.09-.5,1.61-.54.04,0,.09,0,.12.02l17.6,5.94c.15.04.23.19.21.35-.03.15-.17.27-.31.25-.86-.03-1.82.25-2.8.81-3.41,1.96-6.18,6.76-6.18,10.7,0,1.11.23,2.06.66,2.78.08.13.05.3-.07.39-.05.05-.13.07-.2.07Z"/>
      <path class="cls-2" d="M19.2,10.7L5.05,2.52c.36-.35.75-.65,1.15-.88.52-.3,1.03-.47,1.48-.5l17.6,5.94c-.89-.03-1.89.24-2.96.86l-.16.09h-.02s-.14.1-.14.1h-.01s0,0,0,0c-.04.03-.1.06-.14.1h-.02s0,.02,0,.02l-.13.09-.02.02h-.02l-.12.09-.02.02-.03.02-.12.09h0l-.03.02-.1.08-.03.02-.02.02-.1.08-.04.03h0s-.14.12-.14.12h0s-.02.02-.02.02l-.04.04-.05.03-.02.02-.03.03-.04.04-.05.04-.04.04h0l-.05.04-.05.05h0s-.08.08-.08.08h-.01s-.04.05-.04.05l-.02.02-.08.08-.05.04-.04.05-.04.03h0s-.05.05-.05.05l-.04.05-.04.04-.05.05-.04.05-.04.04-.05.05-.13.15-.05.05-.09.11-.04.05-.09.09-.04.05-.04.06-.04.05-.04.05Z"/>
      <path class="cls-1" d="M5.57,2.46l13.56,7.83.42-.48.09-.11.1-.1.09-.09.05-.06s.09-.09.1-.09l.12-.12s.08-.07.08-.08l.08-.07.06-.06s.1-.09.1-.09l.1-.09.1-.09s.05-.05.05-.05l1.48-1.04c.59-.34,1.17-.59,1.74-.74L7.64,1.47c-.4.03-.84.18-1.28.44-.27.16-.53.34-.78.56h0ZM19.14,10.98s-.07,0-.1-.03L4.9,2.79c-.09-.04-.14-.13-.16-.22-.01-.1.03-.19.1-.26.39-.37.8-.68,1.21-.92.55-.32,1.09-.5,1.61-.54.04,0,.09,0,.12.02l17.6,5.94c.15.04.23.19.21.35-.03.15-.17.27-.31.25-.86-.03-1.82.25-2.8.81l-1.38.97-.26-.17.2.23-.27-.18.2.24-.28-.17.2.24-.29-.15.21.23-.31-.13.22.22-.1.09-.28-.16.21.23-.07.07-.31-.12.22.22-.31-.13.22.22-.3-.12.22.22-.31-.11.22.21-.32-.11.24.21-.4.44-.32-.09.24.19c-.08.1-.25.2-.38.2Z"/>
      <path class="cls-2" d="M25.28,7.09L11.51,2.45c-.56,0-1.19.19-1.85.58-2.36,1.36-4.27,4.67-4.27,7.39,0,.76.15,1.39.42,1.88l10.87,9.56c-.44-.75-.69-1.74-.69-2.94,0-4.04,2.83-8.95,6.33-10.97,1.07-.62,2.08-.89,2.96-.86Z"/>
      <path class="cls-1" d="M6.05,12.1l9.85,8.65c-.15-.56-.23-1.16-.23-1.83,0-4.13,2.91-9.17,6.48-11.23.59-.34,1.17-.59,1.74-.74L11.46,2.75c-.51.02-1.07.2-1.65.54-2.26,1.31-4.11,4.5-4.11,7.13,0,.66.12,1.23.36,1.68h0ZM16.68,22.16c-.07,0-.14-.03-.2-.08L5.6,12.53s-.04-.05-.07-.09c-.3-.56-.45-1.23-.45-2.03,0-2.82,1.99-6.25,4.42-7.66.69-.4,1.37-.61,2-.63.04.01.07.01.11.02l13.77,4.65c.15.04.23.19.21.35-.03.15-.17.27-.31.25-.86-.03-1.82.25-2.8.81-3.41,1.96-6.18,6.76-6.18,10.7,0,1.11.23,2.06.66,2.78.08.13.05.3-.07.39-.05.05-.13.07-.2.07Z"/>
      <path class="cls-4" d="M19.2,10.7l-11.12-6.42c.49-.5,1.02-.93,1.57-1.24.66-.39,1.29-.57,1.85-.58l13.77,4.64c-.89-.03-1.89.24-2.96.86-1.13.65-2.19,1.61-3.11,2.75Z"/>
      <path class="cls-1" d="M8.59,4.21l10.55,6.08c.92-1.1,1.96-2,3.02-2.61.59-.34,1.17-.59,1.74-.74L11.46,2.75c-.51.02-1.07.2-1.65.54-.42.24-.83.55-1.22.92h0ZM19.2,11c-.05,0-.11,0-.16-.04L7.93,4.54c-.08-.04-.13-.13-.15-.23,0-.1.02-.18.09-.25.51-.54,1.07-.98,1.63-1.31.69-.4,1.37-.61,2-.63.04.01.07.01.11.02l13.77,4.65c.15.04.23.19.21.35-.03.15-.17.27-.31.25-.86-.03-1.82.25-2.8.81-1.06.61-2.1,1.53-3.03,2.67-.05.08-.15.11-.24.11Z"/>
      <path class="cls-3" d="M25.28,7.09l-9.17-3.09c-.71-.07-1.55.13-2.44.65-2.67,1.54-4.84,5.29-4.84,8.38,0,1.18.32,2.1.87,2.69l.36.32,6.62,5.82c-.44-.75-.69-1.74-.69-2.94,0-4.04,2.83-8.95,6.33-10.97,1.07-.62,2.08-.89,2.96-.86Z"/>
      <path class="cls-1" d="M15.82,4.28c-.57,0-1.28.21-2,.62-2.58,1.5-4.69,5.14-4.69,8.12,0,1.07.27,1.93.78,2.48l5.98,5.25c-.15-.56-.23-1.16-.23-1.83,0-4.13,2.91-9.17,6.48-11.23.59-.34,1.17-.59,1.74-.74l-7.88-2.66c-.06,0-.12,0-.19,0h0ZM16.68,22.16c-.07,0-.14-.03-.2-.08l-6.99-6.14c-.64-.69-.97-1.69-.97-2.92,0-3.18,2.24-7.06,4.99-8.65.92-.53,1.83-.77,2.63-.69l9.23,3.11c.15.04.23.19.21.35-.03.15-.17.27-.31.25-.86-.03-1.82.25-2.8.81-3.41,1.96-6.18,6.76-6.18,10.7,0,1.11.23,2.06.66,2.78.08.13.05.3-.07.39-.05.05-.13.07-.2.07Z"/>
      <path class="cls-2" d="M25.28,7.09l-9.17-3.09c-.71-.07-1.55.13-2.44.65-.72.42-1.41,1-2.03,1.68l7.56,4.37.04-.05.04-.05.04-.06.04-.05.09-.09.04-.05.09-.11.05-.05.13-.15.05-.05.04-.04.04-.05.05-.05.04-.04.04-.05.05-.04h0s.04-.04.04-.04l.04-.05.05-.04.07-.07h0s.02-.03.02-.03l.04-.04h.01s.08-.08.08-.08h0s.05-.06.05-.06l.05-.04h0l.04-.04.05-.04.04-.04.03-.02h0s.02-.03.02-.03l.05-.03.04-.04h.02v-.02l.14-.11h0s.04-.03.04-.03l.1-.08.02-.02.03-.02.1-.08.03-.02h0l.12-.09.03-.02.02-.02.12-.09h.02l.02-.02.13-.09h0s.02-.02.02-.02h0l.1-.07h0s0,0,0,0h0s0-.01,0-.01h.01s0,0,0,0h.01s.14-.09.14-.09h0s0-.01,0-.01h0c.05-.03.11-.06.16-.09,1.07-.62,2.08-.89,2.96-.86Z"/>
      <path class="cls-1" d="M12.13,6.26l7.01,4.04s0,0,0-.02l.41-.46.09-.11.1-.1.09-.09.05-.06s.09-.09.1-.09l.12-.12s.08-.07.08-.08l.08-.07.06-.06s.1-.09.1-.09l.1-.09.1-.09s.05-.05.05-.05l.96-.72s.04-.03.07-.05l.07-.05s.02,0,.03-.02l.34-.21c.59-.34,1.18-.59,1.75-.74l-7.88-2.66c-.6-.05-1.39.16-2.19.61-.58.34-1.16.79-1.69,1.35h0ZM19.14,10.98s-.07,0-.1-.03l-7.56-4.36c-.08-.04-.13-.13-.15-.22-.02-.09,0-.18.07-.25.67-.74,1.38-1.32,2.1-1.75.92-.53,1.83-.77,2.63-.69l9.23,3.11c.15.04.23.19.21.35-.03.15-.17.27-.31.25-.86-.03-1.82.25-2.8.81l-.31.18s0,0,0,0l-1.06.78-.26-.17.2.23-.27-.18.2.24-.28-.17.2.24-.29-.15.21.23-.31-.13.22.22-.1.09-.28-.16.22.22-.08.08-.31-.12.22.22-.31-.13.22.22-.3-.12.22.22-.31-.11.22.21-.32-.11.24.21-.4.44-.32-.09.24.19c-.08.1-.25.2-.38.2Z"/>
      <path class="cls-4" d="M22.31,22.57c3.49-2.02,6.33-6.93,6.33-10.96s-2.83-5.68-6.33-3.66c-3.5,2.01-6.33,6.93-6.33,10.97s2.83,5.67,6.33,3.65Z"/>
      <path class="cls-1" d="M22.31,22.57h0,0ZM25.14,7.39c-.82,0-1.72.28-2.67.83-3.41,1.96-6.18,6.76-6.18,10.7,0,1.83.61,3.19,1.7,3.83,1.1.63,2.57.48,4.16-.44,3.41-1.96,6.18-6.76,6.18-10.69,0-1.84-.61-3.2-1.7-3.83-.45-.25-.95-.38-1.5-.38h0ZM19.49,23.74c-.66,0-1.27-.15-1.81-.46-1.3-.75-2.01-2.31-2.01-4.37,0-4.13,2.91-9.17,6.48-11.23,1.79-1.03,3.5-1.19,4.78-.44,1.29.75,2.01,2.3,2.01,4.36,0,4.13-2.9,9.16-6.48,11.22h0c-1.05.61-2.06.91-2.98.91Z"/>
      <path class="cls-2" d="M25.28,7.09l-3.65-1.23c-.93-.27-2.09-.08-3.34.64-3.09,1.78-5.59,6.13-5.59,9.69,0,1.2.28,2.16.77,2.83l3.21,2.83c-.44-.75-.69-1.74-.69-2.94,0-4.04,2.83-8.95,6.33-10.97,1.07-.62,2.08-.89,2.96-.86Z"/>
      <path class="cls-1" d="M20.78,6.05c-.71,0-1.5.24-2.34.72-3,1.73-5.44,5.95-5.44,9.42,0,1.1.25,2.01.72,2.66l2.17,1.9c-.15-.56-.23-1.17-.23-1.84,0-4.13,2.91-9.17,6.48-11.23.59-.34,1.17-.59,1.74-.74l-2.37-.8c-.24-.07-.48-.1-.75-.1h0ZM16.68,22.16c-.07,0-.14-.03-.2-.08l-3.21-2.82c-.6-.8-.89-1.84-.89-3.07,0-3.66,2.58-8.13,5.75-9.95,1.29-.75,2.52-.98,3.58-.69l3.66,1.24c.15.04.23.19.21.35-.03.15-.17.27-.31.25-.86-.03-1.82.25-2.8.81-3.41,1.96-6.18,6.76-6.18,10.7,0,1.11.23,2.06.66,2.78.08.13.05.3-.07.39-.05.05-.13.07-.2.07Z"/>
      <path class="cls-1" d="M29.72,27.45c-.05,0-.11-.02-.15-.04l-7.67-4.43c-.15-.08-.2-.27-.12-.42.08-.15.27-.2.42-.11l7.67,4.43c.15.08.19.27.11.42-.06.1-.17.16-.27.16Z"/>
      <path class="cls-1" d="M30.83,12.96c-.05,0-.11-.02-.15-.04l-8.21-4.74c-.15-.09-.2-.27-.11-.42.09-.15.27-.2.42-.11l8.21,4.73c.15.09.2.27.11.42-.05.1-.16.16-.26.16Z"/>
      <path class="cls-4" d="M19.2,10.7l-3.47-2c.77-.9,1.63-1.66,2.56-2.19,1.25-.72,2.41-.91,3.34-.64l3.65,1.23c-.89-.03-1.89.24-2.96.86-1.13.65-2.19,1.61-3.11,2.75Z"/>
      <path class="cls-1" d="M16.22,8.62l2.91,1.68c.92-1.1,1.96-2,3.02-2.61.59-.34,1.17-.59,1.74-.74l-2.37-.8c-.88-.24-1.95-.03-3.08.63-.76.44-1.53,1.08-2.23,1.84h0ZM19.2,11c-.05,0-.11,0-.16-.04l-3.46-2c-.08-.04-.14-.12-.16-.21,0-.1.02-.18.07-.25.82-.97,1.7-1.72,2.63-2.25,1.29-.75,2.52-.98,3.58-.69l3.66,1.24c.15.04.23.19.21.35-.03.15-.17.27-.31.25-.86-.03-1.82.25-2.8.81-1.06.61-2.1,1.53-3.03,2.67-.05.08-.15.11-.24.11Z"/>
      <path class="cls-3" d="M30.27,40.46c-.27-.16-.54-.41-.55-.74V10.69c.04.58.76.89,1.25.99.7.14,1.67.04,2.21-.45.15-.14.27-.32.28-.54v29.03c0,.43-.47.74-.84.88-.71.27-1.68.24-2.35-.14Z"/>
      <path class="cls-1" d="M30.42,40.19c.57.32,1.43.36,2.09.11.32-.11.64-.35.65-.59V11.63c-.65.42-1.56.49-2.24.35-.3-.06-.62-.17-.89-.35v28.08c0,.22.28.4.4.47h0ZM31.59,41.08c-.53,0-1.05-.12-1.47-.36h0c-.45-.26-.69-.62-.7-1V10.69c0-.16.13-.3.3-.31.18-.02.3.12.31.3.02.35.54.61,1.01.7.62.13,1.49.04,1.94-.37.11-.1.17-.21.18-.34,0-.16.13-.31.31-.29.17.01.3.15.3.31v29.03c-.03.72-.81,1.07-1.04,1.17-.36.13-.75.2-1.14.2Z"/>
      <path class="cls-2" d="M31.59,11.74c-.48,0-.96-.11-1.32-.31-.36-.22-.55-.5-.55-.77s.18-.56.55-.76c.37-.21.84-.31,1.32-.31s.95.11,1.32.31c.36.21.55.49.55.76s-.18.55-.55.77c-.37.21-.84.31-1.32.31Z"/>
      <path class="cls-1" d="M31.59,9.89c-.43,0-.86.1-1.17.27-.25.14-.4.32-.4.5,0,.16.15.35.4.5.6.35,1.73.35,2.33,0,.25-.15.4-.33.4-.5,0-.18-.15-.36-.4-.5-.3-.17-.72-.27-1.16-.27h0ZM31.59,12.04c-.56,0-1.08-.12-1.48-.36-.45-.26-.7-.63-.7-1.02s.25-.77.7-1.03c.8-.46,2.16-.46,2.96,0,.45.26.7.63.7,1.03s-.25.77-.7,1.02c-.4.24-.92.36-1.48.36Z"/>
    </g>
  </g>
</svg>