<?xml version="1.0" encoding="UTF-8"?>
<svg id="Layer_2" data-name="Layer 2" xmlns="http://www.w3.org/2000/svg" viewBox="0 0 30.06 47.78" fill="currentColor">
  <defs>
    <style>
      .cls-1 {
        fill: #fff;
      }

      .cls-1, .cls-2, .cls-3, .cls-4 {
        fill-rule: evenodd;
      }

      .cls-2 {
        fill: #1a87c7;
      }

      .cls-3 {
        fill: #bdedf8;
      }

      .cls-4 {
        fill: #66ceef;
      }
    </style>
  </defs>
  <g id="_Layer_" data-name="&amp;lt;Layer&amp;gt;">
    <g>
      <path class="cls-1" d="M7.37,29.14c.23-.3.78-1.04.96-1.36.37-.63.36-.87.44-1.6,2.96,3.42,9.91-1.67,12.68-3.27.1,1.71.76,2.48,1.31,3.58h0c2.6,4.03.2,12.24-2.75,13.34-2.17.81-4.58-1.33-6.7-2.12-2.26-.85-5.57-7.34-5.95-8.57Z"/>
      <path class="cls-2" d="M7.71,29.19c.55,1.48,3.68,7.46,5.72,8.22.64.24,1.33.61,1.98.97,1.52.83,3.1,1.68,4.49,1.16,1.09-.41,2.21-2,2.92-4.16.83-2.5,1.25-6.3-.32-8.73-.13-.26-.25-.47-.36-.69-.39-.7-.79-1.43-.95-2.55-.26.16-.55.33-.85.52-3.21,1.99-8.45,5.23-11.33,2.9-.05.36-.14.64-.41,1.1-.18.29-.62.91-.9,1.26h0ZM18.98,40.32c-1.29,0-2.59-.71-3.86-1.39-.67-.36-1.3-.7-1.91-.93-2.44-.92-5.8-7.66-6.14-8.77-.04-.1-.02-.2.05-.28.23-.29.76-1.02.95-1.33.3-.5.31-.7.36-1.25l.03-.23c.01-.12.1-.23.22-.26.11-.04.24,0,.32.09,2.4,2.77,7.79-.56,11.01-2.56.49-.3.92-.57,1.28-.77.09-.05.21-.06.3,0,.09.05.16.14.16.25.08,1.28.49,2.01.92,2.78.12.22.24.44.37.68,1.67,2.59,1.24,6.6.37,9.23-.79,2.37-2.01,4.06-3.29,4.54-.37.14-.75.2-1.14.2Z"/>
      <path class="cls-3" d="M29.7,35.36v-4.54c0-3.63-3.5-5.52-6.59-5.78-.44-.04-.78-.07-1.05-.09-.06.13-.13.25-.19.37l-.3.52c.45,3.9,1.52,6.07.05,9.98-.73,1.93-1.51,3.41-1.96,3.59-.48.19-1.2-.21-2.08-.71-4.55-2.58-6.71-5.03-10.22-9.59-.02-.02-.05-.03-.07-.03-.15,0-.67.57-.59.9-1.45,1.86-1.8,1.78-3.46,3.59C-.23,37.49.35,38.92.35,43.4c0,1.37.17,1.72,1.66,2.58,9.97,5.76,27.69-6.8,27.69-10.62Z"/>
      <path class="cls-2" d="M7.25,29.49c-.12.13-.25.34-.24.43.02.09,0,.19-.06.26-.85,1.08-1.34,1.53-1.9,2.05-.41.38-.88.8-1.57,1.56-2.92,3.29-2.89,4.75-2.83,7.94,0,.51.02,1.06.02,1.66,0,1.25.11,1.51,1.51,2.32,6.68,3.86,16.22-1.05,18.98-2.65,5.09-2.94,8.24-6.28,8.24-7.71h0v-4.54c0-3.39-3.26-5.21-6.3-5.48-.34-.03-.61-.06-.84-.07-.04.07-.07.14-.11.2l-.24.44c.1.9.24,1.71.37,2.48.44,2.52.78,4.51-.36,7.53-.39,1.03-1.36,3.46-2.14,3.77-.63.25-1.42-.2-2.34-.73-4.53-2.57-6.71-5-10.18-9.49h0ZM8.07,47.76c-2.36,0-4.47-.5-6.22-1.51-1.52-.88-1.81-1.33-1.81-2.85,0-.6-.02-1.15-.03-1.65-.06-3.26-.09-4.9,2.99-8.37.72-.79,1.2-1.22,1.62-1.61.56-.5.99-.9,1.76-1.88.01-.27.18-.54.3-.69.15-.19.39-.43.61-.42.09,0,.24.08.3.15,3.49,4.53,5.63,6.95,10.13,9.51.72.41,1.47.83,1.81.69.25-.1.97-1.23,1.8-3.42,1.08-2.87.75-4.79.32-7.22-.14-.81-.28-1.66-.39-2.62,0-.06,0-.13.03-.19l.3-.52c.06-.12.12-.24.19-.36.05-.11.16-.17.29-.17.28.01.62.04,1.07.09,3.3.29,6.86,2.31,6.86,6.09v4.54c0,1.89-3.68,5.43-8.56,8.24-4.76,2.74-9.41,4.15-13.38,4.15Z"/>
      <path class="cls-1" d="M19.79,28.38c1.04-1.3,1.76-2.38,2.41-3.71l-.05.08c.55-1.17,1.01-2.44,1.38-3.79h0c.2-.77.36-1.58.51-2.38.14-.79.25-1.58.32-2.33h0c.03-.31.04-.62.06-.93.01-.28.02-.6.02-.93,0-.25,0-.44,0-.58,0-.16-.01-.34-.03-.53-.15-1.46-1.98-.76-3.94,0-2.3.89-4.76,1.83-5.75.03v.02c-1,1.55-2.84,4.45-3.22,8.04-.03.32-.05.65-.07.99-.01.33-.02.66,0,1h0c.2,2.86,1,5.03,2.17,6.24l-.04.02c.73.22,1.48.37,2.22.44,2.37.24,2.58.09,4.01-1.68Z"/>
      <path class="cls-2" d="M13.81,29.37c.63.18,1.31.31,2.01.38,2.29.23,2.4.09,3.73-1.57h0c1.07-1.33,1.75-2.37,2.33-3.56h0c.54-1.17,1-2.42,1.36-3.74,0,0,0-.02,0-.02.19-.75.36-1.54.5-2.33.14-.8.24-1.57.32-2.31v-.03c.03-.29.04-.59.05-.89,0-.28.02-.59.02-.92v-.57c-.01-.16-.02-.33-.03-.52-.03-.3-.15-.41-.24-.46-.54-.33-1.99.24-3.28.73-2.17.84-4.61,1.78-5.85.3-1.02,1.62-2.58,4.29-2.92,7.53-.03.31-.06.63-.07.97-.02.32-.02.64,0,.97.19,2.68.92,4.82,2.08,6.03h0ZM17.1,30.45c-.37,0-.81-.03-1.34-.08-.8-.08-1.57-.23-2.29-.46-.11-.03-.18-.12-.21-.23-1.19-1.32-1.94-3.55-2.13-6.3-.02-.35-.02-.69,0-1.03.01-.35.04-.68.07-1,.39-3.67,2.25-6.6,3.26-8.17.05-.09.15-.15.28-.15.11,0,.22.05.26.15.86,1.57,3.15.69,5.36-.17,1.62-.63,3.02-1.17,3.82-.68.3.19.49.5.54.94,0,.21.02.39.02.56,0,.14,0,.34,0,.59,0,.34,0,.66-.02.95,0,.31-.03.63-.06.94v.04c-.08.74-.18,1.52-.32,2.32-.15.82-.32,1.62-.51,2.4-.01.01-.01.03-.01.04-.36,1.3-.81,2.54-1.34,3.69,0,.01-.01.02-.01.03-.61,1.27-1.32,2.36-2.45,3.77-1.15,1.43-1.56,1.88-2.93,1.88Z"/>
      <path class="cls-4" d="M11.9,30.16c-5.41-3.12-7.18-2.92-9.15-8.32-1.41-5.26-1.61-10.38,1.09-14.97,1.03-1.6,5.3-5.14,6.99-4.17.19-.31.4-.58.63-.87l.43-.45.45-.38c3.78-2.5,11.12,2.18,13.06,5.46,1.73,2.93,2.03,8.55-1.53,16.85-.47.42-1.04.87-1.68,1.35l-.05.08c.54-1.17,1.01-2.44,1.38-3.79h0c.2-.77.36-1.58.51-2.38.14-.79.25-1.58.32-2.33h0c.03-.31.04-.62.06-.93.01-.28.02-.6.02-.93,0-.25,0-.44,0-.58,0-.16-.01-.34-.03-.53-.15-1.46-1.98-.76-3.94,0-2.3.89-4.76,1.83-5.75.03v.02c-1,1.55-2.84,4.45-3.22,8.04-.03.32-.05.65-.07.99-.01.33-.02.66,0,1h0c.2,2.86,1,5.03,2.17,6.24-.67.26-1.24.45-1.7.56Z"/>
      <path class="cls-2" d="M10.12,2.84c-1.7,0-5.05,2.67-6.03,4.19-2.34,3.98-2.68,8.66-1.05,14.72,1.52,4.15,2.86,4.85,6.09,6.54.82.43,1.74.91,2.81,1.52.33-.08.7-.2,1.13-.36-1.08-1.34-1.77-3.48-1.95-6.09-.02-.35-.02-.69,0-1.03.01-.35.04-.68.07-1,.39-3.67,2.25-6.6,3.26-8.17.05-.09.15-.15.28-.15.11,0,.22.05.26.15.86,1.57,3.15.69,5.36-.17,1.62-.63,3.02-1.17,3.82-.68.3.19.49.5.54.94,0,.21.02.39.02.56,0,.14,0,.34,0,.59,0,.34,0,.66-.02.95,0,.31-.03.63-.06.94v.04c-.08.74-.18,1.52-.32,2.32-.15.82-.32,1.62-.51,2.4-.01.01-.01.03-.01.04-.25.91-.55,1.79-.88,2.63.24-.2.46-.39.67-.57,4.27-9.99,2.49-14.88,1.52-16.51-1.27-2.15-4.98-5-8.48-5.81-1.7-.39-3.1-.25-4.15.44l-.43.36-.41.42c-.23.29-.42.53-.59.81-.09.14-.28.19-.42.1-.15-.09-.33-.13-.54-.13h0ZM11.9,30.47c-.05,0-.11-.02-.16-.04-1.1-.64-2.05-1.13-2.89-1.57-3.29-1.72-4.78-2.5-6.39-6.9-1.69-6.26-1.33-11.09,1.11-15.23.93-1.45,5.04-5.1,7.13-4.4.15-.22.3-.41.47-.62,0,0,.05-.07.06-.08l.44-.45.48-.4C13.34-.02,14.94-.2,16.79.22c3.66.85,7.54,3.83,8.87,6.09,2.15,3.64,1.59,9.88-1.51,17.13-.02.04-.04.08-.08.11-.46.41-1.02.86-1.63,1.32h0c-.07.16-.26.23-.41.16-.16-.07-.22-.25-.15-.41.54-1.16,1-2.42,1.36-3.74,0,0,0-.02,0-.02.19-.75.36-1.54.5-2.33.14-.8.24-1.57.32-2.31v-.03c.03-.29.04-.59.05-.89,0-.28.02-.59.02-.92v-.57c-.01-.16-.02-.33-.03-.52-.03-.3-.15-.41-.24-.46-.54-.33-1.99.24-3.28.73-2.17.84-4.61,1.78-5.85.3-1.02,1.62-2.58,4.29-2.92,7.53-.03.31-.06.63-.07.97-.02.32-.02.64,0,.97.19,2.7.93,4.84,2.09,6.04.07.07.1.18.08.28-.02.1-.09.18-.18.22-.69.27-1.27.46-1.75.57-.03,0-.05,0-.07,0Z"/>
      <path class="cls-4" d="M6.7,29.99c-.06.04-3.13,3.23-3.46,3.59C-.23,37.49.35,38.92.35,43.4c0,1.37.17,1.72,1.66,2.58,4.01,2.32,9.27,1.67,14.12-.18-2.49-2.38-2.87-5.02-3.41-7.64l-3.86,2.53-2.16-10.7Z"/>
      <path class="cls-2" d="M6.52,30.62c-.85.87-2.79,2.89-3.05,3.17-2.92,3.29-2.89,4.75-2.83,7.94,0,.51.02,1.06.02,1.66,0,1.25.11,1.51,1.51,2.32,4.22,2.43,9.53,1.37,13.41-.03-2.09-2.18-2.57-4.57-3.04-6.88l-.03-.13-3.48,2.28c-.09.06-.2.07-.29.03-.09-.04-.17-.13-.19-.23l-2.04-10.13h0ZM8.04,47.78c-2.13,0-4.26-.42-6.19-1.53-1.52-.88-1.81-1.33-1.81-2.85,0-.6-.02-1.15-.03-1.65-.06-3.26-.09-4.9,2.99-8.37.03-.04,3.4-3.57,3.54-3.65.09-.05.19-.06.29-.02.09.04.15.12.17.22l2.07,10.25,3.48-2.28c.08-.05.19-.07.29-.03.09.04.16.12.18.22l.11.58c.5,2.45.96,4.77,3.21,6.9.08.07.11.18.09.28-.02.1-.09.19-.19.23-2.34.89-5.27,1.69-8.21,1.69Z"/>
      <path class="cls-2" d="M13.83,46.15c-.11,0-.22-.06-.27-.15l-3.5-6.12c-.09-.15-.03-.33.11-.42.15-.08.34-.03.43.12l3.48,6.12c.09.15.03.34-.11.42-.04.03-.1.04-.15.04Z"/>
      <path class="cls-4" d="M29.76,34.76l-.06-3.93c0-3.63-3.5-5.52-6.59-5.78-.44-.04-.78-.07-1.05-.09-.06.13-.13.25-.19.37h0s5.99,7.81,5.99,7.81l-3.62-.25c.76,3.4-.19,7.1-.53,8.94,5.25-2.86,6.05-5.25,6.05-7.06Z"/>
      <path class="cls-2" d="M24.62,33.22c.54,2.94-.09,6.04-.47,7.92,0,.03,0,.05,0,.08,4.68-2.69,5.3-4.86,5.31-6.47l-.06-3.93c0-3.39-3.27-5.22-6.31-5.48-.34-.03-.61-.06-.84-.07,0,0-.01.01-.01.02l5.87,7.66c.08.1.09.23.02.33-.05.11-.17.18-.29.16l-3.21-.22h0ZM23.71,42.13c-.06,0-.13-.02-.18-.06-.1-.07-.14-.19-.12-.3.05-.22.09-.47.15-.74.39-1.92,1.03-5.14.39-8.07-.03-.09,0-.19.06-.27.07-.07.16-.12.26-.11l2.93.2-5.55-7.23c-.1-.09-.12-.24-.05-.36.06-.12.12-.24.19-.37.05-.11.16-.17.29-.17.28.01.62.04,1.07.09,3.3.29,6.86,2.31,6.86,6.09l.05,3.93h0c0,1.85-.71,4.34-6.21,7.34-.04.03-.09.04-.15.04Z"/>
      <path class="cls-2" d="M25.01,40.44s-.03,0-.03,0c-.16-.02-.29-.17-.27-.34l.72-6.92c.02-.17.15-.28.34-.27.16.02.29.17.27.34l-.72,6.92c-.02.16-.15.28-.3.28Z"/>
      <path class="cls-2" d="M19.66,39.73h-.03c-2.32-.2-4.67-.63-6.97-1.28-.16-.04-.26-.22-.22-.38.05-.16.22-.26.38-.21,2.22.62,4.48,1.05,6.72,1.25,1.55-1.54,2.94-3.57,4.37-6.36.09-.15.27-.21.42-.13.16.08.21.26.14.41-1.5,2.92-2.96,5.02-4.6,6.62-.05.06-.13.09-.21.09Z"/>
      <path class="cls-2" d="M19.66,44.45s-.02,0-.03,0c-.17-.01-.3-.15-.29-.32.11-1.65.11-3.23,0-4.68-.01-.17.12-.32.29-.33.17-.02.32.12.33.28.11,1.48.11,3.08,0,4.76,0,.16-.15.29-.3.29Z"/>
      <path class="cls-2" d="M22.25,27.91c-.06,0-.13-.02-.19-.07-.13-.1-.16-.3-.05-.43,1.29-1.61,1.83-4.4,1.23-6.35-.04-.16.04-.34.21-.39.17-.05.33.04.38.21.66,2.16.09,5.13-1.33,6.91-.06.08-.15.12-.24.12Z"/>
      <path class="cls-3" d="M20.94,29.02c.92-.14,1.56-1,1.42-1.92-.13-.93-.99-1.57-1.92-1.43-.92.14-1.56,1-1.43,1.92.13.93.99,1.57,1.92,1.43Z"/>
      <path class="cls-2" d="M20.7,25.96c-.07,0-.14,0-.21.02-.76.11-1.28.82-1.17,1.57.11.76.81,1.28,1.57,1.17.75-.11,1.28-.82,1.16-1.57-.1-.69-.69-1.18-1.36-1.18h0ZM20.94,29.02h.01-.01ZM20.69,29.35c-.98,0-1.83-.72-1.97-1.71-.17-1.09.59-2.11,1.69-2.27,1.08-.16,2.11.59,2.27,1.69.17,1.09-.59,2.11-1.68,2.27h0c-.1.01-.19.02-.3.02Z"/>
    </g>
  </g>
</svg>