<?xml version="1.0" encoding="UTF-8"?>
<svg id="Layer_2" data-name="Layer 2" xmlns="http://www.w3.org/2000/svg" viewBox="0 0 40.79 91.04" fill="currentColor">
  <defs>
    <style>
      .cls-1 {
        fill: #fff;
      }

      .cls-1, .cls-2, .cls-3, .cls-4 {
        fill-rule: evenodd;
      }

      .cls-2 {
        fill: #1a87c7;
      }

      .cls-3 {
        fill: #bdedf8;
      }

      .cls-4 {
        fill: #66ceef;
      }
    </style>
  </defs>
  <g id="_Layer_" data-name="&amp;lt;Layer&amp;gt;">
    <g>
      <path class="cls-3" d="M39.06,72.17c-.24,10.12-8.5,18.23-18.67,18.23S1.95,82.29,1.72,72.17h-.02l.06-28.04c.23-2.57,2.04-5.11,5.44-7.07,7.29-4.21,19.12-4.21,26.41,0,3.4,1.96,5.21,4.5,5.44,7.07l.03,28.04h-.02Z"/>
      <path class="cls-2" d="M2.32,72.04s.02.08.02.12c.23,9.74,8.33,17.64,18.06,17.64s17.83-7.91,18.06-17.64c0-.04.01-.09.02-.12l-.02-27.9c-.22-2.42-2.04-4.75-5.14-6.53-7.11-4.1-18.68-4.1-25.8,0-3.1,1.79-4.92,4.12-5.14,6.59l-.06,27.85h0ZM20.39,91.04c-10.35,0-18.97-8.38-19.29-18.71-.02-.05-.02-.11-.02-.16l.06-28.04c.26-2.94,2.3-5.62,5.75-7.6,7.45-4.31,19.58-4.31,27.03,0,3.45,1.98,5.49,4.66,5.74,7.55l.03,28.09c0,.07,0,.13-.02.17-.32,10.31-8.94,18.69-19.28,18.69Z"/>
      <path class="cls-1" d="M39.06,72.17c0,5.3-5.56,16.44-16.51,16.55-10.95.09-15.99-7.16-15.99-15.99,0-13.24.02-21.85.02-35.08.23-.16.48-.3.73-.45,7.26-4.19,19.05-4.19,26.32,0,3.39,1.96,5.19,4.48,5.42,7.04v27.93Z"/>
      <path class="cls-2" d="M7.21,37.98c0,6.47,0,11.84-.01,17.21-.01,5.46-.01,10.91-.01,17.54,0,4.75,1.45,8.69,4.2,11.42,2.69,2.66,6.49,3.98,11.17,3.95,10.29-.09,15.9-10.57,15.9-15.92v-27.93c-.23-2.4-2.04-4.73-5.12-6.5-7.08-4.1-18.62-4.1-25.71,0-.14.09-.28.16-.41.25h0ZM22.34,89.34c-4.89,0-8.98-1.5-11.83-4.31-2.98-2.96-4.56-7.22-4.56-12.29,0-6.62,0-12.08.02-17.54,0-5.48.01-10.94.01-17.54,0-.21.1-.42.28-.52.24-.16.49-.31.75-.45,7.42-4.3,19.51-4.3,26.94,0,3.44,1.98,5.48,4.64,5.73,7.51v27.99h.01c0,5.77-6.04,17.06-17.12,17.16h-.22Z"/>
      <path class="cls-4" d="M40.15,19.9C39.9,9.21,31.15.62,20.39.62S.89,9.21.63,19.9h-.02l.07,25.07c.24,2.73,2.16,5.41,5.76,7.48,7.71,4.45,20.23,4.45,27.94,0,3.6-2.07,5.52-4.75,5.76-7.48l.03-25.07h-.02Z"/>
      <path class="cls-2" d="M1.23,20.06l.07,24.91c.22,2.57,2.16,5.06,5.44,6.95,7.54,4.35,19.8,4.35,27.34,0,3.28-1.89,5.22-4.38,5.45-7l.02-24.86s-.02-.08-.02-.14c-.24-10.31-8.83-18.69-19.14-18.69S1.49,9.61,1.25,19.92c0,.05-.01.11-.02.14h0ZM20.41,56.39c-5.17,0-10.34-1.13-14.28-3.41-3.64-2.11-5.8-4.92-6.06-7.96l-.07-25.1c0-.07,0-.13.03-.19C.36,8.85,9.47,0,20.39,0s20.03,8.85,20.37,19.73c.02.07.03.13.03.19l-.03,25.05c-.27,3.1-2.43,5.91-6.07,8.02-3.94,2.27-9.11,3.41-14.28,3.41Z"/>
      <path class="cls-3" d="M40.15,19.9c0-5.61-5.9-17.43-17.52-17.55-11.63-.11-16.98,7.61-16.98,16.98,0,14.04.02,18.6.02,32.64.25.16.5.31.77.47,7.71,4.45,20.23,4.45,27.94,0,3.6-2.07,5.52-4.75,5.76-7.48v-25.07Z"/>
      <path class="cls-2" d="M40.15,19.9h.02-.02ZM6.29,51.64c.15.09.3.17.46.28,7.53,4.35,19.79,4.35,27.33,0,3.28-1.89,5.22-4.38,5.45-7v-25.02c0-5.68-5.97-16.83-16.91-16.93-5.05-.05-9.03,1.37-11.89,4.21-2.92,2.9-4.47,7.09-4.47,12.15,0,7.02,0,11.68.01,16.32,0,4.57.02,9.14.02,15.99h0ZM20.41,56.39c-5.17,0-10.34-1.13-14.28-3.41-.27-.16-.54-.33-.8-.49-.18-.12-.28-.31-.28-.52,0-7.02,0-11.66-.01-16.32,0-4.64-.01-9.3-.01-16.32,0-5.39,1.67-9.89,4.83-13.02,3.07-3.04,7.48-4.61,12.77-4.57,11.73.1,18.14,12.06,18.14,18.16h0v25.07c-.28,3.1-2.43,5.91-6.07,8.02-3.94,2.27-9.11,3.41-14.28,3.41Z"/>
    </g>
  </g>
</svg>