<?xml version="1.0" encoding="UTF-8"?>
<svg id="Layer_2" data-name="Layer 2" xmlns="http://www.w3.org/2000/svg" viewBox="0 0 63.83 84.4" fill="currentColor">
  <defs>
    <style>
      .cls-1 {
        fill: #fff;
      }

      .cls-1, .cls-2, .cls-3, .cls-4 {
        fill-rule: evenodd;
      }

      .cls-2 {
        fill: #1a87c7;
      }

      .cls-3 {
        fill: #bdedf8;
      }

      .cls-4 {
        fill: #66ceef;
      }
    </style>
  </defs>
  <g id="_Layer_" data-name="&amp;lt;Layer&amp;gt;">
    <g>
      <path class="cls-4" d="M.8,60.06c.05,3.18.31,5.9,1.15,8.97.94,3.04,2.1,5.37,4.04,7.72,1.21,1.3,2.25,2.15,3.77,3.06l3.3,1.91c-2.25-1.37-3.72-2.8-5.29-5.09-1.15-1.9-1.89-3.55-2.52-5.69-.84-3.08-1.1-5.79-1.15-8.97,0-6.19-.73-13.38.89-19.57.68-2.54,1.57-4.76,2.83-7.07,1.41-2.65,2.99-4.8,4.98-7.03,2.57-2.63,5.29-4.78,8.8-5.94,1.52-.46,2.72-.63,4.35-.46.94.16,1.05.26,1.99.75l2.46,1.44c1.05.58,1.89.68,3.09.54.84-.12,1.42-.31,2.15-.62.68-.3,1.15-.58,1.73-.92,4.14-2.38,8.23-4.76,12.37-7.15l-3.3-1.91c-4.14,2.38-8.23,4.76-12.37,7.14-.47.29-.89.52-1.41.78-2.2,1.01-3.35,1.2-5.34.09l-2.2-1.22c-1.52-.8-2.88-.99-4.61-.85-3.77.47-6.92,2.63-9.64,5.11-2.2,2.09-3.77,4.09-5.4,6.64-1.68,2.81-2.93,5.61-3.83,8.76-1.57,6.21-.84,13.4-.84,19.57Z"/>
      <path class="cls-2" d="M30.41,23.36l.31.19c.89.49,1.52.61,2.73.47.68-.11,1.26-.28,1.94-.59.63-.28,1.1-.54,1.68-.89,3.83-2.19,7.6-4.38,11.37-6.55l.05-.06-2.04-1.2-1.73,1c-3.41,1.98-6.86,3.98-10.32,5.98-.52.29-.89.54-1.47.8-.94.43-1.78.73-2.52.85h0ZM1.43,60.06c0,3.37.37,6.02,1.1,8.81.94,3.13,2.1,5.3,3.93,7.48.42.44.79.82,1.2,1.16-.16-.17-.26-.37-.37-.54-1.21-1.86-1.94-3.56-2.62-5.86-.79-2.92-1.15-5.65-1.2-9.14,0-1.46-.05-2.96-.11-4.5-.1-5.11-.26-10.41,1-15.23.68-2.5,1.62-4.8,2.88-7.22,1.52-2.68,3.09-4.87,5.14-7.14,3.09-3.19,5.87-5.06,9.01-6.1,1.05-.31,2.04-.54,3.14-.56-1.2-.59-2.36-.76-3.98-.64-3.04.38-5.92,1.91-9.27,4.96-2.04,1.97-3.62,3.93-5.29,6.52-1.73,2.93-2.93,5.67-3.72,8.58-1.2,4.66-1.1,9.86-.94,14.9.05,1.55.1,3.06.1,4.52h0ZM13.06,82.33c-.11,0-.21-.02-.31-.07l-3.3-1.91c-1.52-.94-2.62-1.83-3.88-3.18-1.94-2.3-3.2-4.68-4.19-7.96-.79-2.92-1.15-5.65-1.2-9.14H.17c0-1.44-.05-2.96-.1-4.49-.11-5.12-.26-10.41,1-15.24.84-3.05,2.04-5.87,3.88-8.92,1.73-2.69,3.35-4.73,5.45-6.78,2.25-2.02,5.71-4.75,10.06-5.27,1.99-.17,3.41.09,4.93.91l2.2,1.23c1.83.99,2.73.85,4.82-.1.52-.24.89-.47,1.36-.76,3.46-1.98,6.92-3.98,10.38-5.98l1.99-1.15c.16-.12.42-.12.58,0l3.35,1.9c.16.12.26.31.26.53s-.1.42-.26.54l-1,.58c-3.77,2.19-7.6,4.36-11.37,6.57-.63.36-1.1.64-1.78.94-.84.37-1.47.56-2.31.68-1.26.14-2.2.09-3.46-.61l-2.72-1.56c-.68-.37-.79-.42-1.57-.56-1.36-.14-2.51-.03-4.09.43-2.93.97-5.55,2.77-8.49,5.79-1.99,2.17-3.51,4.31-4.93,6.88-1.26,2.33-2.15,4.54-2.78,6.94-1.2,4.66-1.1,9.86-.94,14.9.05,1.55.1,3.06.1,4.52,0,3.37.37,6,1.1,8.8.68,2.21,1.36,3.77,2.46,5.53,1.52,2.24,2.93,3.58,5.08,4.9.31.17.37.54.21.84-.11.19-.31.29-.52.29Z"/>
      <path class="cls-1" d="M4.1,61.97c0,9.72,3.41,16.55,8.96,19.75,5.55,3.2,13.15,2.75,21.59-2.11l15.09-8.71V15.94c-3.77,2.17-7.49,4.33-11.27,6.5-.89.54-1.89,1.16-2.83,1.57-1.94.85-3.67.9-5.08.16-2.1-1.13-2.93-2.42-6.03-2.33-1.83.05-3.93.7-6.13,1.94-3.98,2.3-7.54,6.21-10.11,10.69-2.62,4.49-4.19,9.54-4.19,14.1v13.4Z"/>
      <path class="cls-2" d="M24.85,22.44c-.11,0-.21,0-.31.02-1.78.05-3.77.68-5.82,1.86-3.72,2.15-7.23,5.87-9.9,10.46-2.67,4.59-4.09,9.48-4.09,13.79v13.4c0,9.16,3.04,15.99,8.65,19.21,5.61,3.23,13.05,2.48,20.96-2.1l14.78-8.54V17c-3.41,2-6.86,3.98-10.32,5.98l-.58.35c-.73.45-1.52.9-2.31,1.23-2.1.94-4.09.97-5.61.16-.58-.31-1.05-.61-1.47-.91-1.15-.76-2.1-1.37-3.98-1.37h0ZM21.03,84.4c-2.99,0-5.82-.71-8.28-2.14-5.97-3.46-9.27-10.66-9.27-20.29v-13.4c0-4.52,1.52-9.63,4.3-14.41,2.72-4.76,6.39-8.64,10.32-10.9,2.25-1.28,4.4-1.98,6.45-2.03,2.57-.07,3.67.71,4.98,1.55.42.28.84.58,1.36.85,1.2.64,2.78.59,4.51-.17.73-.32,1.47-.77,2.2-1.18l.58-.35c3.77-2.18,7.49-4.35,11.27-6.52.16-.11.42-.11.58,0,.21.12.31.31.31.53v54.97c0,.21-.1.42-.31.54l-15.04,8.69c-4.87,2.83-9.64,4.26-13.94,4.26Z"/>
      <path class="cls-4" d="M16.36,56.39c-1.62,1.45-2.93,3.43-3.67,5.44-1.68,4.36-.68,8.08,2.25,8.33,2.93.24,6.71-3.1,8.38-7.46.73-2.02,1-4.09.58-5.71-.47-1.63-1.52-2.5-2.88-2.62-1.36-.11-3.04.55-4.66,2.01Z"/>
      <path class="cls-2" d="M16.78,56.85c-1.52,1.34-2.78,3.2-3.56,5.21-.94,2.5-1,4.94-.11,6.32.42.71,1.1,1.09,1.89,1.17,2.62.22,6.18-3.03,7.75-7.06.73-2,.94-3.9.58-5.34-.37-1.32-1.21-2.07-2.36-2.15-1.26-.11-2.78.57-4.19,1.84h0ZM15.26,70.79c-.1,0-.21,0-.37-.02-1.21-.09-2.15-.68-2.83-1.72-1.1-1.75-1.1-4.52.05-7.43.84-2.21,2.2-4.23,3.88-5.7h0c1.68-1.51,3.46-2.28,5.08-2.16,1.68.14,2.88,1.25,3.41,3.06.47,1.7.26,3.88-.63,6.1-1.68,4.5-5.45,7.85-8.59,7.85Z"/>
      <path class="cls-4" d="M28.31,66.74c-2.36,2.12-3.77,5.75-3.09,8.12.31,1.18,1.1,1.83,2.04,1.91,2.15.17,4.87-2.26,6.13-5.44,1.2-3.17.47-5.87-1.68-6.05-1-.09-2.2.4-3.41,1.46Z"/>
      <path class="cls-2" d="M28.73,67.19c-2.15,1.95-3.51,5.39-2.93,7.51.16.62.58,1.37,1.57,1.44,1.78.14,4.3-2.15,5.45-5.02.68-1.79.68-3.5.1-4.46-.31-.47-.73-.73-1.26-.77-.89-.07-1.94.4-2.93,1.3h0ZM27.47,77.39c-.05,0-.16,0-.21-.02-1.31-.1-2.31-.96-2.67-2.35-.73-2.61.73-6.45,3.3-8.76h0c1.31-1.13,2.67-1.71,3.88-1.62.94.08,1.68.54,2.2,1.34.79,1.32.79,3.39,0,5.56-1.31,3.34-4.09,5.84-6.5,5.84Z"/>
      <path class="cls-4" d="M17.1,31.36c-2.25,2.03-4.09,4.78-5.14,7.6-2.36,6.05-.94,11.24,3.14,11.58,4.09.35,9.33-4.31,11.63-10.38,1.1-2.82,1.41-5.69.84-7.95-.63-2.26-2.1-3.49-3.98-3.65-1.94-.14-4.24.78-6.5,2.8Z"/>
      <path class="cls-2" d="M23.18,29.17c-1.73,0-3.77.95-5.66,2.66h0c-2.15,1.9-3.93,4.51-4.98,7.34-1.41,3.56-1.47,7.04-.21,9.04.68,1.04,1.62,1.61,2.83,1.72.16.02.26.02.42.02,3.77,0,8.44-4.38,10.58-10.01,1.1-2.79,1.36-5.49.84-7.56-.58-1.91-1.78-3.04-3.46-3.19-.16-.02-.26-.02-.37-.02h0ZM15.53,51.18c-.16,0-.31-.02-.47-.02-1.57-.14-2.88-.92-3.77-2.3-1.47-2.37-1.47-6.16.1-10.13,1.15-3.03,3.04-5.81,5.29-7.82h0c2.31-2.09,4.77-3.15,6.97-2.96,2.2.19,3.83,1.67,4.51,4.1.63,2.31.31,5.27-.84,8.33-2.36,6.07-7.55,10.79-11.79,10.79Z"/>
      <path class="cls-4" d="M43.66,80.14c3.3-4.73.89-8.69-1.52-12.65-4.98-8.14-5.45-11.82.42-19.33l15.72.07,1.83,1.7c1.57,1.49,2.57,3.25,2.99,5.13,1.52,7.19-9.9,21.71-15.09,26.16-3.04,2.55-6.92,2.57-4.35-1.08Z"/>
      <path class="cls-2" d="M42.88,48.78c-5.55,7.15-4.98,10.55-.21,18.38,2.52,4.07,5.03,8.27,1.47,13.35h0c-.73,1.06-.79,1.66-.63,1.78.37.35,2.25.04,4.09-1.53,5.24-4.49,16.35-18.79,14.88-25.57-.37-1.75-1.36-3.43-2.78-4.8l-1.68-1.55-15.14-.05h0ZM44.03,83.63c-.58,0-1.05-.14-1.36-.43-.52-.49-.89-1.48.47-3.41,3.09-4.42.84-8.11-1.52-12-4.98-8.2-5.66-12.25.47-20.01.11-.16.26-.24.47-.24h0l15.72.05c.16,0,.31.07.42.18l1.83,1.72c1.62,1.55,2.72,3.43,3.14,5.44,1.62,7.53-10.11,22.36-15.3,26.76-1.47,1.24-3.09,1.95-4.35,1.95Z"/>
      <path class="cls-2" d="M43.35,82.88c-.11,0-.26-.05-.37-.14-.26-.21-.31-.61-.11-.87,1.89-2.37,3.88-5.72,2.88-10.74-.52-2.66-1.36-4.87-2.1-6.8-1.52-3.96-2.83-7.38-.68-12.5.16-.31.52-.45.84-.33.31.14.47.5.31.82-1.99,4.66-.84,7.7.68,11.56.73,2,1.62,4.24,2.15,7.01,1.1,5.51-1.1,9.18-3.09,11.75-.16.15-.31.24-.52.24Z"/>
      <path class="cls-2" d="M43.82,82c-.16,0-.31-.07-.42-.19-.26-.24-.26-.62,0-.86,8.28-8.08,8.7-22.32,7.44-26.91-.11-.31.1-.66.42-.74.37-.09.68.1.79.43,1.26,4.78.89,19.66-7.76,28.11-.16.11-.31.17-.47.17Z"/>
      <path class="cls-2" d="M44.19,83.21c-.26,0-.47-.14-.58-.38-.16-.31,0-.67.31-.8.1-.04.16-.06.21-.09,0-.19.05-.38.21-.52,7.13-6.59,16.66-20.07,12.05-28.24-.21-.3-.1-.67.21-.84.26-.17.63-.07.84.23,4.66,8.19-3.14,19.84-9.01,26.41,4.98-4.58,10.11-12.69,11.48-19.05.52-2.44.79-5.79-1.2-7.86-.21-.26-.21-.65.05-.89.26-.22.63-.21.84.04,1.83,1.94,2.41,5.04,1.52,8.97-1.89,8.8-10.32,20.39-16.71,22.98-.05.04-.16.05-.21.05Z"/>
      <path class="cls-1" d="M61.11,48.34v-17.4c-.11,1.83-1.42,3.08-2.93,3.97-3.67,2.09-8.96,2.21-12.84.66-1.99-.8-4.19-2.3-4.35-4.63v17.27l.05.14c.73,7.35,19.34,7.39,20.07,0Z"/>
      <path class="cls-2" d="M61.11,48.34h.05-.05ZM41.62,33.83v14.38c.37,3.49,5.14,5.04,9.43,5.06h0c4.3,0,9.12-1.56,9.43-4.97l.05-.12v-14.34c-.52.57-1.21,1.12-2.04,1.62-3.72,2.1-9.12,2.38-13.36.69-1.52-.61-2.73-1.4-3.51-2.31h0ZM51.05,54.5h0c-5.03-.02-10.22-1.9-10.64-6.08v-17.48c0-.33.26-.61.58-.62h0c.37,0,.63.26.63.59.16,2.21,2.52,3.51,3.93,4.08,3.88,1.53,8.96,1.29,12.31-.62,1.73-.99,2.57-2.14,2.67-3.48,0-.33.26-.64.63-.57.31.02.58.29.58.62v17.48c-.42,4.2-5.66,6.08-10.69,6.08Z"/>
      <path class="cls-4" d="M58.18,37.03c1.47-.85,2.88-2.19,2.93-3.98V6.59c-.21,3.23-4.24,4.88-6.97,5.39-3.67.68-8.8.16-11.63-2.47-.84-.78-1.41-1.74-1.52-2.92v26.46c.1,2.35,2.57,3.96,4.56,4.71,3.82,1.48,9.01,1.3,12.63-.73Z"/>
      <path class="cls-2" d="M58.18,37.03h.05-.05ZM41.62,9.47v23.57c.05,1.91,2.2,3.39,4.14,4.13,3.83,1.46,8.8,1.17,12.1-.69,1-.58,2.62-1.78,2.67-3.46V9.47c-1.47,1.67-4.03,2.69-6.24,3.11-3.77.7-9.17.17-12.21-2.61-.16-.17-.31-.32-.47-.5h0ZM51.05,39.36c-1.94,0-3.93-.33-5.71-1.03-1.15-.41-4.87-2.07-4.93-5.27V6.59c0-.35.26-.61.58-.63.31-.04.63.25.63.57.05.94.47,1.76,1.31,2.53,2.72,2.5,7.7,2.96,11.11,2.31,2.88-.54,6.34-2.12,6.5-4.84,0-.32.37-.61.63-.57.31.02.58.28.58.63v26.46c-.05,2.17-1.78,3.65-3.25,4.5h0c-2.1,1.2-4.77,1.81-7.44,1.81Z"/>
      <path class="cls-3" d="M51.05,12.26c2.57,0,5.19-.58,7.13-1.7,1.99-1.13,2.93-2.63,2.93-4.12s-.94-2.98-2.93-4.1c-1.94-1.13-4.56-1.7-7.13-1.7s-5.14.57-7.07,1.7c-1.99,1.13-2.99,2.62-2.99,4.1s1,2.99,2.99,4.12c1.94,1.13,4.51,1.7,7.07,1.7Z"/>
      <path class="cls-2" d="M51.05,1.25c-2.57,0-4.98.58-6.81,1.61-1.68.97-2.62,2.25-2.62,3.57s.94,2.6,2.62,3.58c1.83,1.04,4.24,1.62,6.81,1.62s5.03-.58,6.81-1.62c1.73-.98,2.67-2.24,2.67-3.58s-.94-2.59-2.67-3.57c-1.78-1.04-4.19-1.61-6.81-1.61h0ZM51.05,12.86c-2.78,0-5.4-.62-7.39-1.77-2.1-1.22-3.25-2.87-3.25-4.66s1.15-3.43,3.25-4.64C45.66.64,48.28.02,51.05.02s5.45.62,7.44,1.77c2.1,1.22,3.25,2.87,3.25,4.64s-1.15,3.44-3.25,4.66c-1.99,1.15-4.61,1.77-7.44,1.77Z"/>
      <path class="cls-3" d="M59.12,5.2c0-6.1-16.09-6.1-16.09,0s16.09,6.12,16.09,0Z"/>
      <path class="cls-2" d="M51.05,1.24h0c-3.67,0-7.39,1.37-7.39,3.96s3.72,3.97,7.39,3.97h0c3.72,0,7.44-1.36,7.44-3.97s-3.72-3.96-7.44-3.96h0ZM51.05,10.4h0c-4.14,0-8.65-1.61-8.65-5.2S46.91,0,51.05,0h0c4.19,0,8.7,1.63,8.7,5.2h0c0,3.58-4.51,5.2-8.7,5.2Z"/>
      <path class="cls-3" d="M43.25,79.79c1.73-2.31.84-5.05-.05-7.65-.94-2.85,4.35,1.13,8.12-.33,4.61-1.79,3.67-6.95,7.65-7.7,1.41-.26,2.67-.4,2.1.92-3.04,7.14-9.17,13.51-12.89,16.71-3.04,2.56-7.49,1.69-4.93-1.94Z"/>
      <path class="cls-2" d="M43.72,80.15c-.31.45-1,1.57-.42,2.09.68.61,2.72.51,4.45-.97,4.35-3.7,10.01-10,12.73-16.48.11-.21.11-.3.11-.3,0,.05-.31,0-1.52.23-1.68.31-2.36,1.55-3.14,3.13-.89,1.67-1.89,3.56-4.4,4.53-2.04.8-4.4.16-6.13-.33-.58-.14-1.31-.35-1.68-.37,0,.07.05.14.05.26.89,2.68,1.89,5.65-.05,8.2h0ZM44.5,83.82c-.84,0-1.52-.2-2.04-.66-.42-.4-1.26-1.57.26-3.74v-.02c1.57-2.03.73-4.45-.1-7.02-.11-.29-.37-1.07.16-1.58.52-.57,1.47-.33,2.93.07,1.57.43,3.72,1.01,5.4.36,2.04-.81,2.88-2.42,3.72-3.96.84-1.65,1.73-3.34,4.04-3.77,1.15-.21,2.2-.35,2.73.3.31.36.31.86.05,1.48-2.83,6.69-8.59,13.12-13.1,16.93-1.2,1.06-2.78,1.61-4.03,1.61Z"/>
    </g>
  </g>
</svg>