<?xml version="1.0" encoding="UTF-8"?>
<svg id="Layer_2" data-name="Layer 2" xmlns="http://www.w3.org/2000/svg" viewBox="0 0 36.13 38.26" fill="currentColor">
  <defs>
    <style>
      .cls-1 {
        fill: #fff;
      }

      .cls-1, .cls-2, .cls-3, .cls-4 {
        fill-rule: evenodd;
      }

      .cls-2 {
        fill: #1a87c7;
      }

      .cls-3 {
        fill: #bdedf8;
      }

      .cls-4 {
        fill: #66ceef;
      }
    </style>
  </defs>
  <g id="_Layer_" data-name="&amp;lt;Layer&amp;gt;">
    <g>
      <polygon class="cls-3" points="27.99 26.88 21.73 23.26 8.15 31.1 14.41 34.71 27.99 26.88"/>
      <path class="cls-2" d="M8.77,31.1l5.64,3.25,12.96-7.47-5.64-3.26-12.96,7.48h0ZM14.41,35.02c-.05,0-.11-.02-.16-.04l-6.26-3.62c-.1-.05-.16-.16-.16-.26,0-.11.06-.22.16-.27l13.59-7.83c.1-.06.21-.06.3,0l6.26,3.61c.09.06.16.15.16.27s-.06.21-.16.27l-13.59,7.83s-.1.04-.15.04Z"/>
      <polygon class="cls-4" points="14.41 34.71 8.15 31.1 8.14 34.33 14.4 37.95 14.41 34.71"/>
      <path class="cls-2" d="M8.45,34.16l5.65,3.25v-2.52l-5.64-3.26v2.53h-.01ZM14.4,38.26c-.05,0-.11-.01-.16-.04l-6.26-3.61c-.1-.06-.15-.16-.15-.27v-3.23c0-.11.06-.22.16-.27.1-.05.21-.05.3,0l6.26,3.62c.09.05.16.16.16.26v3.24c0,.11-.06.21-.16.27-.05.02-.1.03-.16.03Z"/>
      <polygon class="cls-1" points="27.99 26.88 14.41 34.71 14.4 37.95 27.99 30.11 27.99 26.88"/>
      <path class="cls-2" d="M14.72,34.89v2.52l12.96-7.47v-2.53s-12.96,7.48-12.96,7.48h0ZM14.4,38.26c-.05,0-.11-.01-.16-.04-.1-.05-.15-.16-.15-.26v-3.24c0-.1.06-.21.15-.26l13.59-7.84c.09-.05.21-.05.3,0,.09.06.16.15.16.27v3.23c-.01.12-.07.22-.17.27l-13.58,7.84c-.05.02-.1.03-.16.03Z"/>
      <polygon class="cls-3" points="31.65 19.18 25.4 15.57 4.28 27.75 10.53 31.36 31.65 19.18"/>
      <path class="cls-2" d="M4.89,27.75l5.64,3.25,20.5-11.82-5.64-3.26L4.89,27.75h0ZM10.53,31.68c-.05,0-.11-.02-.15-.04l-6.26-3.62c-.1-.05-.16-.16-.16-.26,0-.11.06-.22.16-.27l21.11-12.19c.1-.05.21-.05.3,0l6.26,3.62c.09.05.16.16.16.27,0,.1-.06.21-.16.26l-21.11,12.19s-.1.04-.15.04Z"/>
      <polygon class="cls-4" points="10.53 31.36 4.28 27.75 4.28 30.99 10.53 34.61 10.53 31.36"/>
      <path class="cls-2" d="M4.58,30.81l5.64,3.25v-2.52s-5.63-3.26-5.63-3.26v2.53h0ZM10.53,34.91c-.05,0-.11-.01-.16-.04l-6.26-3.61c-.09-.06-.15-.16-.15-.27v-3.23c0-.11.07-.22.16-.27.09-.05.21-.05.3,0l6.26,3.62c.1.05.16.16.16.26v3.24c0,.1-.07.21-.17.26-.04.03-.09.04-.15.04Z"/>
      <polygon class="cls-1" points="31.65 19.18 10.53 31.36 10.53 34.61 31.65 22.42 31.65 19.18"/>
      <path class="cls-2" d="M10.85,31.54v2.52s20.5-11.83,20.5-11.83v-2.52l-20.5,11.83h0ZM10.53,34.91c-.05,0-.11-.01-.16-.04-.1-.05-.16-.16-.16-.26v-3.24c.01-.1.07-.21.16-.26l21.11-12.19c.1-.05.21-.05.31,0,.09.05.16.16.16.27v3.23c0,.11-.06.21-.16.27l-21.12,12.18s-.09.04-.15.04Z"/>
      <polygon class="cls-3" points="35.83 11.21 29.57 7.59 .31 24.47 6.57 28.08 35.83 11.21"/>
      <path class="cls-2" d="M.93,24.47l5.64,3.26,28.64-16.52-5.64-3.26L.93,24.47h0ZM6.57,28.39c-.05,0-.11-.01-.15-.04L.16,24.74c-.1-.05-.16-.15-.16-.27,0-.1.06-.21.16-.26L29.41,7.32c.1-.05.21-.05.3,0l6.26,3.62c.09.05.16.16.16.27s-.06.21-.16.27L6.73,28.35s-.11.04-.16.04Z"/>
      <polygon class="cls-4" points="6.57 28.08 .31 24.47 .31 27.71 6.57 31.32 6.57 28.08"/>
      <path class="cls-2" d="M.62,27.53l5.64,3.26v-2.53s-5.63-3.25-5.63-3.25v2.52h-.01ZM6.57,31.63c-.06,0-.11-.02-.16-.04L.16,27.97c-.1-.05-.16-.15-.16-.26v-3.24c0-.1.07-.21.16-.26.09-.06.21-.06.3,0l6.26,3.61c.09.06.16.15.16.27v3.24c-.01.11-.07.22-.17.27-.04.03-.09.04-.15.04Z"/>
      <polygon class="cls-1" points="35.83 11.21 6.57 28.08 6.57 31.32 35.82 14.44 35.83 11.21"/>
      <path class="cls-2" d="M6.89,28.27v2.52s28.63-16.52,28.63-16.52v-2.53L6.89,28.27h0ZM6.57,31.63c-.06,0-.11-.02-.16-.04-.09-.05-.15-.15-.15-.27v-3.24c0-.11.07-.21.16-.27l29.25-16.88c.09-.05.21-.05.3,0,.09.06.16.16.16.27v3.23c-.01.11-.06.22-.16.27L6.72,31.59s-.09.04-.15.04Z"/>
      <polygon class="cls-3" points="31.65 7.4 25.4 3.78 4.28 15.97 10.53 19.58 31.65 7.4"/>
      <path class="cls-2" d="M4.89,15.97l5.64,3.26L31.04,7.4l-5.64-3.26L4.89,15.97h0ZM10.53,19.89c-.05,0-.11,0-.15-.05l-6.26-3.6c-.1-.06-.16-.16-.16-.27s.06-.21.16-.27L25.24,3.52c.1-.06.21-.06.3,0l6.26,3.61c.09.06.16.16.16.27s-.06.21-.16.27l-21.11,12.18s-.1.05-.15.05Z"/>
      <polygon class="cls-4" points="10.53 19.58 4.28 15.97 4.28 19.2 10.53 22.82 10.53 19.58"/>
      <path class="cls-2" d="M4.58,19.03l5.64,3.26v-2.53s-5.63-3.26-5.63-3.26v2.53h0ZM10.53,23.13c-.05,0-.11-.02-.16-.04l-6.26-3.62c-.09-.05-.15-.16-.15-.27v-3.23c0-.11.07-.21.16-.27.09-.05.21-.05.3,0l6.26,3.62c.1.05.16.16.16.27v3.23c0,.11-.07.22-.17.27-.04.03-.09.04-.15.04Z"/>
      <polygon class="cls-1" points="31.65 7.4 10.53 19.58 10.53 22.82 31.65 10.63 31.65 7.4"/>
      <path class="cls-2" d="M10.85,19.76v2.53s20.5-11.83,20.5-11.83v-2.53l-20.5,11.83h0ZM10.53,23.13c-.05,0-.11-.02-.16-.04-.1-.06-.16-.16-.16-.27v-3.23c.01-.11.07-.22.16-.27L31.5,7.13c.1-.05.21-.05.31,0,.09.06.16.16.16.27v3.23c0,.11-.06.22-.16.27l-21.12,12.18s-.09.04-.15.04Z"/>
      <polygon class="cls-3" points="27.99 3.92 21.73 .31 8.15 8.15 14.41 11.76 27.99 3.92"/>
      <path class="cls-2" d="M8.77,8.15l5.64,3.26,12.96-7.48-5.64-3.26-12.96,7.48h0ZM14.41,12.07c-.05,0-.11-.02-.16-.04l-6.26-3.62c-.1-.05-.16-.16-.16-.26,0-.11.06-.22.16-.27L21.58.04c.1-.06.21-.06.3,0l6.26,3.62c.09.05.16.16.16.26,0,.11-.06.22-.16.27l-13.59,7.83s-.1.04-.15.04Z"/>
      <polygon class="cls-4" points="14.41 11.76 8.15 8.15 8.14 11.38 14.4 14.99 14.41 11.76"/>
      <path class="cls-2" d="M8.45,11.21l5.65,3.26v-2.53l-5.64-3.26v2.53h-.01ZM14.4,15.3c-.05,0-.11,0-.16-.03l-6.26-3.62c-.1-.05-.15-.16-.15-.27v-3.23c0-.11.06-.22.16-.27.1-.05.21-.05.3,0l6.26,3.62c.09.05.16.16.16.27v3.23c0,.12-.06.21-.16.27-.05.03-.1.03-.16.03Z"/>
      <polygon class="cls-1" points="27.99 3.92 14.41 11.76 14.4 14.99 27.99 7.16 27.99 3.92"/>
      <path class="cls-2" d="M14.72,11.94v2.52l12.96-7.47v-2.52s-12.96,7.48-12.96,7.48h0ZM14.4,15.3c-.05,0-.11,0-.16-.03-.1-.06-.15-.17-.15-.27v-3.24c0-.11.06-.21.15-.26l13.59-7.84c.09-.05.21-.05.3,0,.09.05.16.16.16.26v3.24c-.01.11-.07.21-.17.26l-13.58,7.84c-.05.03-.1.03-.16.03Z"/>
    </g>
  </g>
</svg>