<?xml version="1.0" encoding="UTF-8"?>
<svg id="Layer_2" data-name="Layer 2" xmlns="http://www.w3.org/2000/svg" viewBox="0 0 26.97 41.37" fill="currentColor">
  <defs>
    <style>
      .cls-1 {
        fill: #fff;
      }

      .cls-1, .cls-2, .cls-3, .cls-4 {
        fill-rule: evenodd;
      }

      .cls-2 {
        fill: #1a87c7;
      }

      .cls-3 {
        fill: #bdedf8;
      }

      .cls-4 {
        fill: #66ceef;
      }
    </style>
  </defs>
  <g id="_Layer_" data-name="&amp;lt;Layer&amp;gt;">
    <g>
      <path class="cls-3" d="M8.52,13.62l-4.97,2.87c-.78.45-1.43,1.56-1.43,2.47v19.44c0,1.05.74,1.48,1.65.95l4.75-2.74V13.62Z"/>
      <path class="cls-2" d="M8.21,14.16l-4.5,2.6c-.69.4-1.27,1.41-1.27,2.2v19.44c0,.39.11.68.32.8.21.12.52.08.86-.12l4.6-2.65V14.16h0ZM3.03,39.88c-.21,0-.41-.05-.58-.15-.41-.24-.64-.71-.64-1.33v-19.44c0-1.02.7-2.23,1.59-2.74l4.97-2.86c.1-.06.21-.06.31,0,.09.05.16.15.16.26v22.98c0,.11-.06.21-.16.27l-4.75,2.74c-.31.18-.61.27-.89.27Z"/>
      <path class="cls-1" d="M26.67,26.44v-.94c0-4.9-.02-23.49-.1-23.65-.22-.48-.75-.59-1.32-.26L7.15,12.03c-.78.45-1.43,1.56-1.43,2.47v24.03s-.66,2.26-.66,2.26l19.95-11.49c.46-.26.85-.68,1.17-1.23.32-.56.49-1.11.49-1.63Z"/>
      <path class="cls-2" d="M25.88,1.7c-.14,0-.31.05-.48.15L7.31,12.29c-.69.4-1.28,1.41-1.28,2.21v24.03s-.01.06-.02.09l-.44,1.53,19.29-11.11c.41-.24.76-.61,1.06-1.12.29-.51.44-1.01.44-1.48v-.94c0-8.37-.03-22.59-.09-23.56-.06-.11-.14-.18-.24-.21-.05-.02-.09-.02-.15-.02h0ZM5.07,41.1c-.07,0-.13-.02-.19-.07-.1-.08-.14-.21-.11-.33l.64-2.22V14.5c0-1.02.7-2.23,1.59-2.74L25.09,1.32c.39-.22.79-.29,1.12-.18.28.09.5.29.63.58.04.09.11.24.13,23.78v.94c0,.58-.17,1.18-.52,1.78-.35.6-.78,1.06-1.28,1.35l-19.95,11.49s-.1.04-.15.04Z"/>
      <path class="cls-4" d="M3.84,16.32v20.27c0,.41.07,2.39-.75,2.13-.93-.3-.98-2.28-.98-3.12v-16.64c0-1.15.76-2.09,1.72-2.64h0ZM3.84,14.23l-2.1,1.21c-.83.53-1.39,1.49-1.43,2.47v17.85c0,1.92.96,3.95,2.66,4.93,1.07.62,2.04.43,2.49-.36.35-.62.25-1.42.25-2.11V14.5c.05-.99.6-1.94,1.44-2.47L25.25,1.59c.36-.18.57-.25.96-.12l-1.88-1.09c-.39-.13-.61-.08-.96.12L5.27,10.94c-.83.53-1.39,1.49-1.43,2.47v.82Z"/>
      <path class="cls-2" d="M3.53,16.9c-.71.55-1.1,1.28-1.1,2.06v16.64c0,2.25.47,2.74.75,2.83.16-.06.35-.36.34-1.74v-19.79h0ZM3.23,39.05c-.07,0-.15-.01-.24-.04-.8-.26-1.19-1.37-1.19-3.42v-16.64c0-1.14.71-2.23,1.88-2.9.09-.05.21-.05.31,0,.1.05.15.16.15.26v20.27s0,.09,0,.09c0,.91-.05,1.89-.52,2.24-.09.06-.22.13-.39.13h0ZM3.84,14.23h0,0ZM23.96.61c.06,0,.13.01.21.04l1.06.61s-.09.04-.14.07L6.99,11.77c-.92.58-1.52,1.63-1.57,2.73v23.72c0,.12,0,.25,0,.37.01.57.03,1.15-.22,1.59-.15.27-.37.45-.66.53-.4.11-.9.01-1.41-.28-1.5-.87-2.51-2.74-2.51-4.66v-17.84c.04-.89.53-1.74,1.28-2.22l2.1-1.21c.1-.05.16-.16.16-.27v-.81c.04-.88.54-1.75,1.27-2.22L23.52.77c.2-.11.32-.16.44-.16h0ZM4.2,41.37c-.44,0-.91-.14-1.38-.41-1.69-.97-2.82-3.06-2.82-5.2v-17.85c.05-1.11.66-2.15,1.58-2.73l1.95-1.13v-.64c.05-1.11.65-2.15,1.57-2.73L23.21.24c.39-.22.69-.32,1.2-.15l1.94,1.11c.14.08.19.25.13.39-.06.14-.23.22-.37.17-.28-.09-.38-.06-.73.11L7.31,12.29c-.73.47-1.24,1.34-1.28,2.22v23.71c0,.12,0,.24,0,.36.01.62.03,1.32-.3,1.9-.23.41-.59.7-1.03.82-.16.04-.32.07-.5.07Z"/>
      <path class="cls-1" d="M9.6,22.37l6.15-3.56c.15-.09.28-.02.28.16v3.97c0,.18-.13.4-.28.49l-6.15,3.55c-.15.09-.28.02-.28-.16v-3.97c0-.18.13-.4.28-.48Z"/>
      <path class="cls-2" d="M9.6,22.37h0,0ZM15.73,19.19l-5.97,3.45h0c-.06.03-.13.15-.13.22v3.76l5.98-3.45c.06-.03.13-.15.13-.22v-3.76h0ZM9.48,27.34c-.08,0-.16-.02-.22-.06-.15-.09-.24-.25-.24-.45v-3.97c0-.29.18-.61.44-.75l6.16-3.55c.17-.1.35-.11.5-.02.15.09.24.25.24.45v3.97c0,.29-.18.61-.43.75l-6.16,3.55c-.09.05-.19.08-.28.08Z"/>
      <path class="cls-2" d="M10.04,19.81h0c-.17,0-.31-.14-.31-.31l.02-3.6c0-.4.23-.72.55-.79.25-.06.5.07.61.31l1.22,2.67s.03-.07.02-.09l.04-3.72c0-.17.14-.3.31-.3h0c.17,0,.31.14.3.31l-.04,3.7c.01.31-.21.73-.55.81-.09.02-.42.06-.61-.36l-1.22-2.66s-.02.07-.02.13l-.02,3.6c0,.17-.14.31-.31.31Z"/>
      <path class="cls-2" d="M13.7,17.79c-.08,0-.16-.02-.23-.06-.15-.09-.24-.25-.24-.45v-1.69h0v-1.58c0-.29.18-.61.44-.75l1.77-1.02c.14-.09.34-.03.42.11.08.15.03.33-.11.42l-1.77,1.02c-.06.03-.13.15-.13.22v1.04l1.06-.61c.14-.09.33-.04.42.11.08.15.03.34-.11.42l-1.37.79v1.31l1.61-.93c.14-.09.33-.04.42.11.09.15.04.33-.11.42l-1.79,1.04c-.09.05-.19.08-.28.08Z"/>
      <path class="cls-2" d="M17.25,15.77s-.09,0-.14-.02c-.15-.05-.27-.17-.31-.34l-.56-3.35c-.03-.17.08-.33.25-.35.17-.03.33.08.36.25l.5,2.98.47-2.92c.02-.14.14-.25.29-.26.14,0,.27.08.31.22l.61,2.05s.01-.03.02-.05l.43-3.99c.02-.17.18-.29.34-.27.17.02.29.17.27.34l-.44,4.02c-.05.22-.15.4-.29.53-.16.15-.36.21-.53.16-.15-.04-.27-.16-.31-.32l-.29-1-.26,1.62c-.04.21-.16.4-.31.53-.12.1-.26.16-.39.16Z"/>
      <path class="cls-2" d="M20.73,13.78c-.1,0-.21-.06-.26-.15-.09-.15-.04-.34.11-.42l1.98-1.16c.06-.03.13-.15.13-.22v-1.23l-1.52.87c-.17.1-.36.11-.51.02-.15-.09-.24-.25-.24-.45v-1.18c0-.29.18-.61.43-.75l1.98-1.16c.15-.09.33-.04.42.11.08.15.04.34-.11.42l-1.98,1.16c-.06.03-.13.15-.13.22v.98l1.52-.87c.17-.1.36-.11.51-.02.15.09.24.25.24.45v1.44c0,.29-.18.6-.43.75l-1.98,1.16s-.1.04-.15.04Z"/>
      <path class="cls-3" d="M16.04,20.69v2.27c0,.18-.12.38-.27.47h0s-6.15,3.56-6.15,3.56h0c-.15.09-.27.01-.27-.16v-1.07l1-1.44h2.31c.12,0,.25-.11.35-.25l2.34-3.34.71-.04Z"/>
      <path class="cls-2" d="M9.63,25.86v.76l5.98-3.45c.06-.04.12-.15.13-.22v-1.93l-.24.02-2.25,3.21c-.16.23-.39.37-.6.37h-2.15s-.86,1.23-.86,1.23h0ZM9.47,27.34c-.08,0-.16-.02-.23-.06-.15-.09-.23-.25-.23-.45v-1.07c0-.06.02-.12.05-.18l1-1.44c.06-.08.15-.13.25-.13h2.31s.05-.04.1-.12l2.34-3.34c.06-.08.14-.12.23-.13l.72-.05c.08,0,.17.02.23.08.06.06.1.14.1.23v2.26c0,.3-.18.6-.42.75l-6.17,3.56c-.1.05-.19.08-.28.08Z"/>
      <path class="cls-1" d="M6.35,12.78v-.02c.26-.32.46-.52.81-.74L25.25,1.59c.36-.18.57-.25.96-.12l-1.88-1.09c-.39-.13-.59-.05-.96.12L5.27,10.94c-.35.22-.54.41-.8.74v.02s1.87,1.08,1.87,1.08Z"/>
      <path class="cls-2" d="M4.93,11.61l1.34.77c.2-.24.41-.42.72-.62L25.09,1.32s.09-.05.14-.07l-1.06-.61c-.22-.07-.33-.04-.67.13L5.42,11.21c-.21.13-.35.25-.49.4h0ZM6.33,13.09s-.1-.01-.14-.04l-1.88-1.09c-.08-.04-.13-.12-.15-.2-.02-.08,0-.17.05-.24.28-.36.49-.58.89-.84L23.21.24c.41-.2.7-.31,1.21-.15l1.94,1.11c.14.08.19.25.13.39-.07.14-.23.22-.38.17-.28-.09-.38-.06-.73.11L7.31,12.29c-.32.2-.48.37-.71.66-.07.08-.17.13-.27.13Z"/>
      <path class="cls-1" d="M3.84,14.23l-2.1,1.21c-.48.3-.79.66-1.06,1.16l1.81,1.04c.26-.46.6-.89,1.06-1.16l.29-.17v-2.09Z"/>
      <path class="cls-2" d="M1.11,16.49l1.28.74c.3-.46.63-.79,1.02-1.01l.13-.08v-1.38l-1.64.94c-.32.21-.57.45-.79.78h0ZM2.49,17.96c-.05,0-.1-.01-.15-.04l-1.81-1.04c-.14-.08-.2-.27-.11-.42.31-.56.66-.95,1.16-1.27l2.11-1.22c.09-.06.21-.06.31,0,.09.05.15.16.15.27v2.09c0,.11-.06.21-.15.27l-.29.17c-.36.2-.67.55-.95,1.04-.04.07-.11.12-.19.15-.03,0-.06.01-.08.01Z"/>
      <path class="cls-2" d="M17.94,18.5c-.11,0-.21-.06-.27-.16-.09-.15-.03-.33.11-.42l5.28-3.05c.15-.08.34-.04.42.11.08.15.03.33-.11.42l-5.28,3.05s-.1.04-.15.04Z"/>
      <path class="cls-2" d="M17.94,21.85c-.11,0-.21-.05-.27-.15-.09-.15-.03-.34.11-.42l5.28-3.05c.15-.09.34-.04.42.11.08.15.03.33-.11.42l-5.28,3.05s-.1.04-.15.04Z"/>
      <path class="cls-2" d="M9.65,30.19c-.11,0-.21-.06-.27-.15-.08-.15-.03-.34.11-.42l13.57-7.84c.15-.08.34-.03.42.11.08.15.03.34-.11.42l-13.57,7.83s-.11.04-.16.04Z"/>
      <path class="cls-2" d="M9.65,33.75c-.11,0-.21-.05-.27-.15-.08-.15-.03-.34.11-.42l13.57-7.83c.15-.08.34-.04.42.11.08.15.03.34-.11.42l-13.57,7.83s-.11.04-.16.04Z"/>
    </g>
  </g>
</svg>