<?xml version="1.0" encoding="UTF-8"?>
<svg id="Layer_2" data-name="Layer 2" xmlns="http://www.w3.org/2000/svg" viewBox="0 0 28.06 41.29" fill="currentColor">
  <defs>
    <style>
      .cls-1 {
        fill: #fff;
      }

      .cls-1, .cls-2, .cls-3, .cls-4 {
        fill-rule: evenodd;
      }

      .cls-2 {
        fill: #1a87c7;
      }

      .cls-3 {
        fill: #bdedf8;
      }

      .cls-4 {
        fill: #66ceef;
      }
    </style>
  </defs>
  <g id="_Layer_" data-name="&amp;lt;Layer&amp;gt;">
    <g>
      <path class="cls-4" d="M14.07,18.28l-6.24-3.61c.05.09.05.11.05.22v21.38c.03.39.08.65.37.93l6.24,3.61c-.29-.28-.34-.54-.37-.93v-21.39c0-.1,0-.12-.05-.21Z"/>
      <path class="cls-2" d="M8.2,15.25v21.03c.03.36.05.51.26.71l5.37,3.09v-21.58l-5.63-3.25h0ZM14.49,41.11c-.05,0-.1,0-.16-.04l-6.24-3.6c-.45-.42-.5-.78-.5-1.18l-.03-21.4c-.05-.12-.05-.3.05-.41.08-.1.24-.14.37-.07l6.24,3.6s.08.06.11.1c.08.14.11.22.11.34v21.43c.03.35.05.51.26.7.1.11.13.29.03.41-.05.08-.13.12-.24.12Z"/>
      <path class="cls-4" d="M7,15.72L.76,12.12h0c-.29.52-.42.92-.45,1.52v3.4c.03.39.05.65.37.93l6.23,3.6c-.29-.28-.34-.54-.37-.92v-3.4c.03-.6.18-1,.45-1.52h0Z"/>
      <path class="cls-2" d="M.89,12.54c-.16.35-.24.66-.26,1.1v3.39c0,.35.05.51.26.7l5.37,3.09v-3.59c.03-.57.13-.99.34-1.41L.89,12.54h0ZM6.92,21.88c-.05,0-.1-.02-.16-.04l-6.24-3.61c-.44-.41-.5-.79-.52-1.18v-3.41c.03-.69.21-1.15.5-1.67.03-.07.1-.13.18-.15.08-.03.16-.02.24.03l6.24,3.61c.1.04.16.13.16.23.03.07,0,.14-.05.2-.24.45-.37.82-.39,1.37v3.39c.03.35.05.51.26.7.1.1.13.28.03.41-.05.08-.16.12-.24.12Z"/>
      <path class="cls-1" d="M13.75,11.31l-5.66,3.26c-.84.5-1.55,1.69-1.55,2.68v3.4c0,.49.18.84.45.99.29.16.68.14,1.1-.1l5.66-3.26c.21-.13.37-.03.37.22v21.39c0,.49.18.83.47,1,.26.16.65.14,1.1-.1l2.93-1.7c.84-.49,1.55-1.69,1.55-2.67V15.01c0-.24.16-.55.37-.67l5.66-3.26c.84-.5,1.55-1.69,1.55-2.68v-3.4c0-.49-.18-.83-.45-.99-.29-.17-.68-.14-1.1.1l-5.66,3.26-6.79,3.93Z"/>
      <path class="cls-2" d="M13.94,17.91c.08,0,.16.03.24.07.16.1.26.29.26.51v21.39c0,.36.1.62.31.73.18.11.47.07.79-.1l2.93-1.7c.76-.43,1.39-1.53,1.39-2.4V15.01c0-.36.24-.76.52-.94l5.66-3.26c.76-.43,1.39-1.54,1.39-2.41v-3.4c0-.35-.11-.62-.29-.73-.21-.1-.47-.07-.79.1L8.25,14.84c-.76.43-1.39,1.54-1.39,2.41v3.4c0,.35.1.62.29.72.21.11.47.08.79-.1l5.66-3.26c.1-.06.21-.09.34-.09h0ZM14.99,41.29c-.18,0-.39-.04-.55-.14-.39-.23-.6-.68-.6-1.27v-21.29l-5.58,3.22c-.5.3-1,.33-1.41.11-.37-.23-.58-.69-.58-1.26v-3.4c0-1.1.73-2.39,1.68-2.95L26.04,3.85c.5-.29,1.02-.33,1.39-.1.39.23.63.68.63,1.26v3.4c0,1.1-.76,2.39-1.7,2.94l-5.66,3.27c-.11.06-.24.26-.24.4v21.39c0,1.1-.73,2.39-1.68,2.94l-2.96,1.7c-.29.16-.58.25-.84.25Z"/>
      <path class="cls-3" d="M1.86,10.96c-.5.32-.79.65-1.1,1.15l6.24,3.61c.31-.5.6-.84,1.1-1.16,6.03-3.48,12.08-6.96,18.1-10.45.47-.25.73-.3,1.18-.04L21.04.41c-.39-.19-.71-.1-1.07.1C13.94,4,7.89,7.48,1.86,10.96Z"/>
      <path class="cls-2" d="M1.2,12.01l5.71,3.29c.26-.38.55-.7,1.02-1L26.04,3.85c.08-.03.13-.06.18-.09l-5.32-3.1c-.26-.11-.47-.06-.81.11L2.02,11.23c-.37.23-.6.47-.81.78h0ZM7,16.03c-.05,0-.11-.02-.13-.04L.6,12.38c-.05-.03-.1-.1-.13-.19-.03-.08,0-.16.03-.23.31-.5.63-.89,1.18-1.24h.03S19.81.24,19.81.24c.39-.2.81-.37,1.36-.11l6.37,3.69h0c.16.09.21.27.13.42-.1.15-.29.2-.45.11h0c-.31-.19-.45-.18-.86.04L8.25,14.84c-.47.29-.71.61-.97,1.04-.08.1-.18.15-.29.15Z"/>
    </g>
  </g>
</svg>