<?xml version="1.0" encoding="UTF-8"?>
<svg id="Layer_2" data-name="Layer 2" xmlns="http://www.w3.org/2000/svg" viewBox="0 0 15.4 40.16" fill="currentColor">
  <defs>
    <style>
      .cls-1 {
        fill: #fff;
      }

      .cls-1, .cls-2, .cls-3, .cls-4 {
        fill-rule: evenodd;
      }

      .cls-2 {
        fill: #1a87c7;
      }

      .cls-3 {
        fill: #bdedf8;
      }

      .cls-4 {
        fill: #66ceef;
      }
    </style>
  </defs>
  <g id="_Layer_" data-name="&amp;lt;Layer&amp;gt;">
    <g>
      <path class="cls-1" d="M10.53,25.64V2.03c-.12.58-.58.91-1.07,1.16-.53.23-1,.33-1.58.37-.76.04-1.44-.06-2.14-.37-.5-.24-.95-.58-1.07-1.16v23.69c-2.57,1.15-4.37,3.74-4.37,6.74,0,4.08,3.31,7.39,7.39,7.39s7.39-3.3,7.39-7.39c0-3.08-1.88-5.71-4.55-6.82Z"/>
      <path class="cls-2" d="M4.99,3.06v22.66c0,.12-.07.24-.18.28-2.54,1.15-4.19,3.69-4.19,6.47,0,3.9,3.18,7.08,7.08,7.08s7.08-3.18,7.08-7.08c0-2.87-1.71-5.43-4.36-6.54-.12-.05-.19-.16-.19-.29V3.06c-.2.18-.43.3-.63.4-.54.24-1.03.36-1.69.4-.89.04-1.59-.09-2.29-.4-.2-.1-.43-.23-.64-.4h0ZM7.7,40.16c-4.24,0-7.7-3.46-7.7-7.7,0-2.96,1.71-5.66,4.37-6.94V2.03c0-.16.12-.29.28-.3.15-.03.3.09.33.24.08.38.35.66.91.94.59.27,1.22.37,1.99.35.58-.04,1-.14,1.46-.35.55-.28.82-.56.9-.94.03-.15.17-.27.33-.24.16.02.28.15.28.3v23.42c2.77,1.24,4.55,3.97,4.55,7.02,0,4.24-3.45,7.7-7.7,7.7Z"/>
      <path class="cls-4" d="M7.7,38.19c3.16,0,5.73-2.56,5.73-5.73s-2.56-5.73-5.73-5.73-5.73,2.57-5.73,5.73,2.57,5.73,5.73,5.73Z"/>
      <path class="cls-2" d="M7.7,27.05c-2.99,0-5.42,2.42-5.42,5.41s2.43,5.42,5.42,5.42,5.42-2.43,5.42-5.42-2.43-5.41-5.42-5.41h0ZM7.7,38.51c-3.33,0-6.04-2.71-6.04-6.04s2.71-6.03,6.04-6.03,6.04,2.7,6.04,6.03-2.71,6.04-6.04,6.04Z"/>
      <path class="cls-4" d="M9.53,28.63c-.28,1.41-3.73,1.25-3.86,0V9.8c.26,1.34,3.59,1.34,3.86,0v18.84Z"/>
      <path class="cls-2" d="M9.53,28.63h0,0ZM5.99,10.69v17.94c.03.34.67.65,1.47.68.79.04,1.63-.19,1.76-.71V10.69c-.44.29-1.04.42-1.62.42h0c-.58,0-1.18-.13-1.62-.42h0ZM7.63,29.95c-.07,0-.13,0-.2,0-.97-.05-1.98-.46-2.06-1.27V9.8c0-.15.12-.29.28-.3.15-.02.3.1.33.24.09.5.89.76,1.62.76h0c.74,0,1.53-.26,1.62-.76.03-.15.17-.26.33-.24.16.02.28.15.28.3v18.84s0,.04,0,.06c-.17.88-1.2,1.25-2.2,1.25Z"/>
      <path class="cls-3" d="M6.24,8.99c.75-.43,1.97-.43,2.73,0,.75.43.75,1.14,0,1.57-.75.43-1.97.43-2.73,0-.75-.44-.75-1.14,0-1.57Z"/>
      <path class="cls-2" d="M6.24,8.99h.01-.01ZM7.61,8.97c-.44,0-.88.1-1.21.29h0c-.26.15-.41.34-.41.52,0,.17.15.36.41.52.65.37,1.76.37,2.42,0,.26-.16.41-.34.41-.52s-.15-.37-.41-.52c-.33-.19-.77-.29-1.21-.29h0ZM7.61,11.2c-.55,0-1.09-.12-1.51-.36-.46-.27-.72-.64-.72-1.05s.25-.79.72-1.05h0c.85-.5,2.18-.5,3.03,0,.46.26.72.65.72,1.05s-.25.78-.72,1.05c-.42.24-.97.36-1.52.36Z"/>
      <path class="cls-2" d="M7.24,22.96h-.02c-1.33-.09-2.22-.58-2.81-1.56-.09-.15-.04-.33.11-.42.14-.09.34-.04.42.1.48.8,1.19,1.18,2.32,1.25.17,0,.3.15.29.33-.01.17-.15.29-.31.29Z"/>
      <path class="cls-2" d="M7.24,20.82h-.02c-1.33-.09-2.22-.58-2.81-1.56-.09-.15-.04-.33.11-.42.14-.09.34-.05.42.1.48.79,1.19,1.18,2.32,1.25.17.02.3.15.29.33-.01.17-.15.29-.31.29Z"/>
      <path class="cls-2" d="M7.24,18.68h-.02c-1.33-.09-2.22-.58-2.81-1.56-.09-.15-.04-.33.11-.42.14-.09.34-.04.42.1.48.79,1.19,1.18,2.32,1.25.17.01.3.16.29.33-.01.17-.15.29-.31.29Z"/>
      <path class="cls-2" d="M7.24,14.41h-.02c-1.33-.09-2.22-.57-2.81-1.56-.09-.15-.04-.33.11-.42.14-.09.34-.05.42.1.48.8,1.19,1.18,2.32,1.25.17,0,.3.16.29.33-.01.17-.15.29-.31.29Z"/>
      <path class="cls-2" d="M7.24,12.27h-.02c-1.33-.09-2.22-.58-2.81-1.56-.09-.15-.04-.33.11-.42.14-.09.34-.04.42.1.48.79,1.19,1.18,2.32,1.25.17,0,.3.15.29.33-.01.17-.15.29-.31.29Z"/>
      <path class="cls-2" d="M7.24,10.15h-.02c-1.33-.09-2.22-.58-2.81-1.55-.09-.15-.04-.34.11-.43.14-.09.34-.03.42.11.48.79,1.19,1.18,2.32,1.25.17,0,.3.16.29.33-.01.15-.15.28-.31.28Z"/>
      <path class="cls-2" d="M7.69,25.11c-1.09,0-2.44-.18-3.27-1.57-.09-.15-.04-.33.11-.42.14-.09.34-.04.42.11.53.89,1.35,1.27,2.74,1.27.32,0,.64-.03.93-.09.17-.04.33.07.37.23.03.16-.07.33-.24.37-.34.07-.7.11-1.06.11Z"/>
      <path class="cls-2" d="M7.69,16.56c-1.09,0-2.44-.18-3.27-1.57-.09-.15-.04-.33.11-.42.14-.09.34-.04.42.1.53.89,1.35,1.27,2.74,1.27.32,0,.63-.04.93-.1.17-.03.33.07.37.24.03.17-.07.33-.24.36-.34.07-.7.11-1.06.11Z"/>
      <path class="cls-2" d="M7.69,8.03c-1.09,0-2.44-.17-3.27-1.57-.09-.15-.04-.33.11-.42.14-.09.34-.04.42.11.53.89,1.35,1.27,2.74,1.27.32,0,.63-.03.93-.1.17-.04.33.08.37.24.03.16-.07.33-.24.37-.34.07-.7.1-1.06.1Z"/>
      <path class="cls-1" d="M5.54.8c1.14-.66,3-.66,4.14,0,1.14.66,1.14,1.73,0,2.39-1.14.66-3,.66-4.14,0-1.14-.66-1.14-1.73,0-2.39Z"/>
      <path class="cls-2" d="M5.69,1.07c-.45.26-.7.59-.7.93s.25.66.7.93c1.04.6,2.8.6,3.83,0,.45-.27.7-.59.7-.93s-.25-.67-.7-.93c-1.06-.61-2.77-.61-3.83,0h0ZM7.61,4c-.8,0-1.6-.18-2.22-.54-.65-.38-1.01-.9-1.01-1.46s.36-1.09,1.01-1.46h0c1.25-.72,3.2-.72,4.45,0,.65.37,1.01.9,1.01,1.46s-.36,1.08-1.01,1.46c-.62.36-1.43.54-2.23.54Z"/>
    </g>
  </g>
</svg>