<?xml version="1.0" encoding="UTF-8"?>
<svg id="Layer_2" data-name="Layer 2" xmlns="http://www.w3.org/2000/svg" viewBox="0 0 35.8 41.66" fill="currentColor">
  <defs>
    <style>
      .cls-1 {
        fill: #fff;
      }

      .cls-1, .cls-2, .cls-3, .cls-4 {
        fill-rule: evenodd;
      }

      .cls-2 {
        fill: #1a87c7;
      }

      .cls-3 {
        fill: #bdedf8;
      }

      .cls-4 {
        fill: #66ceef;
      }
    </style>
  </defs>
  <g id="_Layer_" data-name="&amp;lt;Layer&amp;gt;">
    <g>
      <polygon class="cls-3" points="22.33 16.95 28.58 20.55 33.87 17.49 27.63 13.89 22.33 16.95"/>
      <path class="cls-2" d="M22.94,16.95l5.63,3.24,4.68-2.7-5.63-3.24-4.68,2.7h0ZM28.58,20.86c-.05,0-.11-.02-.16-.04l-6.24-3.61c-.09-.05-.16-.16-.16-.26,0-.11.06-.22.16-.27l5.29-3.06c.1-.05.21-.05.31,0l6.25,3.61c.09.05.16.16.16.26,0,.11-.06.22-.16.27l-5.3,3.06s-.09.04-.15.04Z"/>
      <path class="cls-4" d="M28.58,20.55l-6.25-3.6c-.16,2.87-1.43,5.63-3.18,7.88l-.59.75c-.11.13-.24.25-.42.16l6.24,3.61c.17.08.3-.04.42-.17l.6-.75c.82-1.05,1.44-2.07,2-3.28.67-1.51,1.08-2.96,1.18-4.62Z"/>
      <path class="cls-2" d="M18.8,25.77l5.71,3.3s.02-.04.06-.09l.58-.73c.81-1.03,1.41-2.03,1.96-3.22.68-1.54,1.04-2.89,1.14-4.31l-5.66-3.27c-.25,2.56-1.38,5.23-3.21,7.57l-.59.75h0ZM24.49,29.7c-.08,0-.16-.02-.24-.06l-6.27-3.62c-.14-.08-.19-.26-.11-.41.07-.14.24-.2.39-.14-.01-.02.02-.03.07-.09l.58-.74c1.86-2.38,2.96-5.13,3.11-7.72.01-.1.07-.2.17-.25.09-.04.21-.04.3,0l6.24,3.61c.1.05.16.16.16.28-.09,1.58-.46,3.03-1.2,4.72-.57,1.23-1.21,2.27-2.04,3.35l-.6.75c-.09.09-.28.31-.55.31Z"/>
      <path class="cls-3" d="M30.74,3.92L24.5.31l-1.74,4.48c-.09.19-.23.39-.45.4l6.24,3.61c.24-.02.36-.21.45-.4l1.74-4.48Z"/>
      <path class="cls-2" d="M22.89,5.17l5.7,3.29s.09-.11.13-.2l1.63-4.22-5.7-3.29-1.61,4.14c-.05.11-.1.19-.16.27h0ZM28.55,9.1c-.05,0-.11-.02-.16-.04l-6.24-3.61c-.11-.07-.17-.21-.15-.34.03-.13.15-.23.28-.23.06,0,.12-.08.19-.23L24.21.2c.02-.08.1-.15.18-.17.09-.03.18-.03.25.02l6.25,3.61c.13.08.18.23.13.38l-1.74,4.48c-.18.38-.42.57-.72.59,0,0,0,0-.02,0Z"/>
      <path class="cls-3" d="M22.42,5.25c-.13-.08-.09-.06-.25-.08-1.28-.1-2.04-.06-3.33.26-3.48,1.03-6.25,3.42-8.56,6.14l6.24,3.61c1.67-1.96,3.36-3.53,5.59-4.86,1.47-.83,2.75-1.34,4.43-1.56.5-.04.91-.05,1.41-.02l.59.04-6.13-3.54Z"/>
      <path class="cls-2" d="M10.76,11.49l5.7,3.29c1.77-2.06,3.48-3.52,5.49-4.72,1.68-.94,3-1.4,4.56-1.6.28-.03.53-.04.78-.04l-5.02-2.89s-.02-.02-.02-.02l-.1-.02c-1.18-.09-1.92-.08-3.22.25-2.85.84-5.53,2.72-8.16,5.75h0ZM16.52,15.48c-.05,0-.1,0-.15-.03l-6.25-3.61c-.08-.04-.13-.12-.15-.22-.02-.09.01-.18.07-.25,2.8-3.28,5.64-5.32,8.71-6.23,1.4-.36,2.19-.36,3.44-.27.18.02.23.03.35.1l-.12.29.16-.27,6.13,3.55c.12.07.18.22.14.36-.04.14-.16.22-.32.22l-.59-.05c-.47-.03-.86-.03-1.37.02-1.71.22-2.96.77-4.31,1.52-2.01,1.2-3.7,2.68-5.5,4.79-.06.07-.15.1-.24.1Z"/>
      <path class="cls-4" d="M19.78,12.48c.05-.16.1-.36-.06-.46l6.24,3.61c.16.1.12.3.06.46l-1.8,4.63-6.24-3.61,1.8-4.63h0ZM16.52,15.18l-6.24-3.61c.89,1.26,1.76,2.51,2.65,3.77l6.24,3.6c-.88-1.25-1.76-2.51-2.65-3.76h0Z"/>
      <path class="cls-2" d="M13.14,15.11l4.98,2.87-1.81-2.56-4.98-2.88,1.81,2.57h0ZM18.36,16.97l5.7,3.29,1.67-4.29c.03-.1.03-.13.03-.13l-5.69-3.27v.02h0l-1.7,4.38h0ZM24.22,21.02c-.05,0-.11-.02-.16-.04l-5.2-3,.56.79c.09.12.07.28-.03.38-.1.11-.25.13-.38.06l-6.24-3.61s-.07-.05-.1-.09l-2.65-3.76c-.09-.12-.07-.28.03-.39.1-.1.25-.13.38-.06l6.24,3.61s.07.05.1.09l1.09,1.56,1.62-4.19c.04-.09.03-.13.03-.13-.14-.09-.16-.26-.08-.4.09-.14.29-.16.43-.09l6.24,3.61c.17.1.39.34.2.83l-1.8,4.63c-.03.09-.09.16-.18.18-.04,0-.07.02-.1.02Z"/>
      <path class="cls-1" d="M28.58,20.55c-.12,2.58-1.31,5.53-3.18,7.89l-.6.75c-.13.17-.28.23-.39.17-.09-.04-.21-.27-.29-.37l-1.58-2.24c-1.58,4.87-3.16,9.73-4.75,14.6l11.27-5.33-1.74-2.47c-.23-.32.43-.99.71-1.34,3.52-4.4,5.72-9.95,5.84-14.72l-5.29,3.06Z"/>
      <path class="cls-2" d="M24.57,29.1h0,0ZM22.64,27.43l-4.35,13.34,10.3-4.87-1.53-2.17c-.33-.46.19-1.08.57-1.52l.15-.18c3.36-4.2,5.49-9.39,5.75-13.99l-4.67,2.69c-.16,2.61-1.37,5.54-3.24,7.9l-.59.75c-.26.33-.57.36-.76.26-.14-.06-.24-.21-.37-.4l-.04-.07-1.23-1.75h0ZM17.78,41.66c-.07,0-.15-.03-.2-.08-.09-.08-.13-.21-.09-.33l4.75-14.6c.03-.11.14-.19.25-.21.11-.02.23.03.3.13l1.64,2.34s.05.09.09.13c0,0,.02-.03.03-.04l.6-.75c1.83-2.31,3-5.19,3.11-7.71.01-.1.06-.2.16-.25l5.29-3.06c.1-.06.22-.06.31,0,.09.05.16.16.16.27-.12,4.87-2.34,10.44-5.91,14.92-.05.05-.11.12-.17.19-.15.17-.54.63-.53.79l1.73,2.45c.05.07.07.17.05.25-.02.09-.08.16-.16.2l-11.27,5.33s-.09.03-.13.03Z"/>
      <path class="cls-1" d="M19.17,18.94c.9-1.05,1.91-1.91,2.92-2.5,1.56-.9,2.52-.93,3.81-.83.17.02.22.23.12.48l-1.8,4.63c3.75-2.56,7.52-5.13,11.27-7.68l-4.76-9.12-1.74,4.48c-.09.24-.29.42-.45.4h0l-.59-.04c-1.85-.16-3.87.43-5.85,1.57-1.95,1.13-3.88,2.8-5.59,4.86.89,1.25,1.77,2.51,2.65,3.76Z"/>
      <path class="cls-2" d="M25.03,15.26c.3,0,.59.02.9.05.16,0,.29.09.36.22.12.17.12.42.02.68l-1.44,3.7,10.23-6.97-4.31-8.26-1.49,3.84c-.11.3-.39.59-.71.6h-.05l-.59-.05c-1.71-.15-3.69.38-5.68,1.54-1.85,1.07-3.69,2.66-5.34,4.61l2.28,3.25c.86-.95,1.8-1.73,2.75-2.28,1.26-.73,2.16-.91,3.08-.91h0ZM24.22,21.02c-.07,0-.14-.03-.19-.07-.11-.08-.15-.23-.1-.35l1.8-4.63s.02-.04.02-.07c-1.15-.08-2.04-.04-3.5.81-.98.57-1.97,1.41-2.84,2.43-.06.08-.16.11-.25.11-.1,0-.18-.05-.24-.13l-2.65-3.77c-.08-.11-.07-.26.02-.37,1.73-2.08,3.69-3.78,5.67-4.92,2.09-1.22,4.19-1.77,6.03-1.63l.56.05h.03s.09-.08.14-.21l1.74-4.48c.04-.11.15-.19.27-.2.13,0,.24.06.29.17l4.76,9.12c.08.14.03.31-.1.4l-11.27,7.68c-.05.03-.11.05-.17.05Z"/>
      <path class="cls-4" d="M11.54,37.75l6.24,3.6c1.59-4.87,3.17-9.73,4.75-14.6l-6.24-3.61c-1.59,4.87-3.17,9.74-4.75,14.61Z"/>
      <path class="cls-2" d="M11.91,37.6l5.69,3.29,4.55-14.01-5.69-3.29-4.55,14h0ZM17.78,41.66c-.05,0-.1-.02-.15-.04l-6.25-3.61c-.12-.07-.18-.22-.14-.36l4.76-14.61c.02-.09.09-.16.18-.19.09-.03.18-.03.26.03l6.25,3.6c.12.08.18.23.14.37l-4.76,14.6c-.03.09-.09.17-.18.19-.04.02-.08.03-.11.03Z"/>
      <path class="cls-4" d="M10.2,29.7l-6.19-3.57c.08.06.09.1.09.21,0,.89.02,1.66.11,2.54.33,2.27,1.07,4.21,2.97,5.59l6.24,3.61c-1.45-1.06-2.16-2.33-2.66-4.02-.3-1.16-.4-2.13-.42-3.31v-.79c-.02-.14-.03-.17-.15-.24Z"/>
      <path class="cls-2" d="M4.42,26.72c0,.71.03,1.38.11,2.12.37,2.55,1.25,4.21,2.85,5.37l4.24,2.45c-.48-.7-.84-1.51-1.14-2.53-.29-1.11-.41-2.09-.43-3.4v-.77l-5.63-3.24h0ZM13.44,38.38c-.05,0-.11,0-.15-.04l-6.25-3.6c-1.77-1.29-2.73-3.07-3.12-5.82-.1-.91-.11-1.7-.11-2.58-.13-.1-.15-.27-.05-.4.09-.13.28-.16.42-.08l6.19,3.57h0c.2.12.28.24.3.49v.82c.03,1.24.14,2.18.41,3.23.54,1.82,1.28,2.93,2.55,3.85.13.1.16.28.08.42-.06.09-.16.14-.26.14Z"/>
      <polygon class="cls-3" points="13.06 17.32 6.82 13.71 .3 28.16 6.55 31.76 13.06 17.32"/>
      <path class="cls-2" d="M.7,28.04l5.7,3.29,6.27-13.89-5.71-3.29L.7,28.04h0ZM6.55,32.07c-.06,0-.11,0-.16-.04L.15,28.43c-.14-.08-.19-.25-.13-.39l6.52-14.45c.03-.09.1-.15.18-.17.09-.03.17-.02.25.03l6.24,3.61c.14.08.19.25.13.39l-6.52,14.45c-.04.09-.11.14-.19.17-.02,0-.06,0-.09,0Z"/>
      <path class="cls-1" d="M18.6,32.2c-.85-.15-1.56-.6-2.08-1.32-.46-.63-.77-1.49-.85-2.53-.03-.44-.02-.98-.02-1.45s.48-.67.75-.82l3.19-1.84c-2.17-2.3-4.35-4.61-6.52-6.92l-6.51,14.45,3.47-2.01c.18-.1.33-.02.33.19v.79c0,2.45.58,4.42,1.58,5.83.97,1.38,2.36,2.22,4.02,2.45l2.65-6.82Z"/>
      <path class="cls-2" d="M10.17,29.4c.09,0,.17.03.24.07.16.09.25.27.25.48v.79c.01,2.3.53,4.26,1.52,5.66.88,1.24,2.1,2.02,3.56,2.29l2.43-6.27c-.77-.21-1.43-.68-1.91-1.36-.52-.72-.83-1.65-.91-2.69-.03-.34-.03-.74-.03-1.11v-.36c0-.6.52-.88.8-1.03l.1-.06,2.86-1.64-5.93-6.3-5.94,13.15,2.65-1.53c.1-.05.2-.09.3-.09h0ZM15.95,39.33s-.03,0-.04,0c-1.74-.23-3.2-1.12-4.22-2.57-1.06-1.5-1.63-3.59-1.63-6.01v-.63l-3.35,1.92c-.11.07-.26.05-.36-.04-.11-.09-.13-.23-.08-.36l6.52-14.45c.04-.1.13-.16.24-.17.09-.02.2.02.27.09l6.52,6.93c.07.07.09.16.08.25,0,.1-.07.17-.15.23l-3.31,1.9c-.28.15-.48.28-.48.49v.36c0,.37,0,.74.02,1.07.07.93.35,1.75.8,2.38.46.64,1.11,1.06,1.88,1.19.09.02.17.07.22.16.04.08.05.17.02.26l-2.65,6.82c-.04.12-.16.2-.28.2Z"/>
    </g>
  </g>
</svg>