<?xml version="1.0" encoding="UTF-8"?>
<svg id="Layer_2" data-name="Layer 2" xmlns="http://www.w3.org/2000/svg" viewBox="0 0 40.89 43.01" fill="currentColor">
  <defs>
    <style>
      .cls-1 {
        fill: #fff;
      }

      .cls-1, .cls-2, .cls-3, .cls-4 {
        fill-rule: evenodd;
      }

      .cls-2 {
        fill: #1a87c7;
      }

      .cls-3 {
        fill: #bdedf8;
      }

      .cls-4 {
        fill: #66ceef;
      }
    </style>
  </defs>
  <g id="_Layer_" data-name="&amp;lt;Layer&amp;gt;">
    <g>
      <path class="cls-4" d="M34.5,26.55c-2.01-1.16-2.79-1.87-4.89-2.24.69.4,2.47,1.57,3.13,1.7l1.76.54Z"/>
      <path class="cls-2" d="M34.5,26.86s-.06,0-.09,0l-1.77-.54c-.49-.09-1.46-.67-2.58-1.35-.24-.15-.45-.28-.61-.36-.12-.08-.18-.24-.13-.37.05-.14.18-.23.34-.2,1.72.3,2.59.83,3.9,1.62.33.2.69.42,1.09.65.13.08.19.24.13.39-.05.11-.17.18-.29.18Z"/>
      <path class="cls-4" d="M30.16,28.84l-2.85-1.64c.03.63.13,3.12.62,3.46l2.85,1.64c-.51-.42-.59-2.77-.62-3.46Z"/>
      <path class="cls-2" d="M27.65,27.75c.13,2.22.38,2.6.45,2.66l2.03,1.16c-.13-.57-.22-1.4-.27-2.55l-2.21-1.28h0ZM30.78,32.61c-.05,0-.1-.02-.16-.04l-2.85-1.65c-.44-.3-.66-1.35-.76-3.62v-.08c0-.11.04-.22.14-.28.09-.06.22-.06.31,0l2.85,1.65c.09.05.15.15.15.25v.12c.12,2.43.37,2.99.51,3.11.12.1.15.28.05.41-.06.08-.15.14-.25.14Z"/>
      <path class="cls-4" d="M29.37,27.75l-2.85-1.64c-.52.69-2.58,3.37-2.52,4.17l2.85,1.64c-.06-.8,1.99-3.47,2.52-4.17Z"/>
      <path class="cls-2" d="M24.32,30.12l2.3,1.33c.24-.7.97-1.84,2.3-3.6l-2.31-1.34c-1.74,2.31-2.2,3.23-2.29,3.61h0ZM26.85,32.24c-.05,0-.11-.02-.16-.04l-2.85-1.64c-.09-.05-.15-.15-.16-.24-.04-.62.7-1.9,2.5-4.28l.09-.11c.1-.12.27-.16.4-.08l2.85,1.64c.08.04.13.12.15.21.02.09,0,.17-.05.24l-.1.12c-2.1,2.79-2.39,3.61-2.37,3.85,0,.11-.04.22-.14.28-.05.03-.11.05-.17.05Z"/>
      <path class="cls-4" d="M24,24.86c-.08.32.16.48.43.64l2.85,1.65c-.28-.17-.51-.32-.43-.65.42-.77,2.52-.74,3.29-.74l-2.85-1.64c-.1-.03-2.85-.07-3.3.74Z"/>
      <path class="cls-2" d="M24.29,24.97c0,.05.04.12.3.27l1.97,1.14s0-.02.02-.03c.33-.62,1.33-.82,2.45-.88l-1.84-1.06c-.49-.04-2.54.06-2.9.56h0ZM27.29,27.46c-.05,0-.1,0-.15-.04l-2.85-1.64c-.27-.16-.72-.42-.59-.98.01-.04.02-.06.04-.09.56-1.01,3.52-.91,3.65-.88.03.01.04.02.07.03l2.85,1.65c.12.07.18.21.14.35-.04.13-.14.23-.3.23-2.16-.01-2.82.27-3.01.54,0,.06.05.12.31.27.14.09.19.28.1.43-.06.09-.15.15-.27.15Z"/>
      <path class="cls-4" d="M34.94,21.76l-2.94-1.63c-.59.12-2.69,2.55-3.15,3.09l2.84,1.64c.48-.56,2.59-3.07,3.24-3.1Z"/>
      <path class="cls-2" d="M29.33,23.13l2.31,1.34c1.38-1.61,2.16-2.37,2.64-2.72l-2.3-1.29c-.22.12-.88.63-2.66,2.67h0ZM31.7,25.16c-.05,0-.1,0-.15-.03l-2.85-1.65c-.08-.04-.14-.12-.15-.21-.02-.09,0-.18.07-.25,2.63-3.06,3.13-3.16,3.32-3.2.08-.02.15,0,.22.03l2.93,1.64c.12.06.18.2.15.34-.03.13-.15.22-.29.23-.11.02-.69.27-2.91,2.88l-.11.11c-.06.07-.14.1-.24.1Z"/>
      <path class="cls-4" d="M30.92,21.43l-2.85-1.64c-.62.7-.73,3.36-.77,4.33l2.85,1.64c.04-.97.16-3.62.77-4.33Z"/>
      <path class="cls-2" d="M27.62,23.95l2.25,1.31c.08-1.5.22-2.95.62-3.71l-2.32-1.34c-.4.81-.51,2.87-.55,3.75h0ZM30.11,26.06s-.08,0-.1-.03l-2.85-1.64c-.1-.06-.17-.17-.16-.28.09-1.89.24-3.85.85-4.53.09-.12.26-.13.38-.06l2.85,1.64c.08.05.14.13.15.22.02.1,0,.18-.07.25-.54.61-.66,3.23-.7,4.08,0,.11-.07.24-.17.3-.06.03-.12.05-.19.05Z"/>
      <polygon class="cls-4" points="31.08 21.46 28.23 19.82 28.16 19.78 28.07 19.79 30.92 21.43 31.01 21.43 31.08 21.46"/>
      <path class="cls-2" d="M31.08,21.77s-.09-.01-.12-.03h-.02s-.11-.02-.16-.05l-2.85-1.64c-.12-.07-.18-.21-.15-.34.04-.13.16-.23.29-.23h.09s.1,0,.14.03l.07.03,2.88,1.66c.14.08.19.26.12.41-.05.1-.16.16-.28.16Z"/>
      <path class="cls-1" d="M30.92,21.43c-.43.39-.69,2.25-.77,4.33-1.63-.03-3.09.2-3.29.74-.21.54.98,1,2.51,1.25-1.48,1.95-2.64,3.74-2.52,4.17.32.19,1.74-1.24,3.31-3.08.09,2.07.35,3.69.77,3.45.43-.24.69-2.17.77-4.33,1.57.03,2.98-.17,3.3-.74.11-.57-1.05-1.02-2.54-1.25,1.54-2.03,2.73-3.88,2.53-4.17-.21-.3-1.67,1.16-3.3,3.06-.08-1.98-.33-3.55-.77-3.42Z"/>
      <path class="cls-2" d="M30.16,28.53s.06,0,.1.02c.12.05.2.15.21.28.08,1.84.26,2.73.39,3.06.19-.4.44-1.63.54-3.94,0-.17.14-.3.3-.3h.01c1.76.04,2.73-.23,2.99-.53,0-.02,0-.03-.03-.06-.17-.24-.84-.57-2.26-.79-.1-.02-.19-.09-.23-.19-.03-.1-.03-.22.04-.3,1.4-1.84,2.06-2.92,2.33-3.47-.44.37-1.27,1.17-2.62,2.75-.08.09-.22.13-.33.09-.12-.04-.2-.16-.21-.29-.07-1.77-.26-2.64-.4-2.99-.19.45-.45,1.6-.53,3.9,0,.17-.17.3-.31.3-2.02-.03-2.92.31-3.01.54.11.21.7.57,2.28.84.1.02.2.09.24.19.04.09.03.21-.03.3-1.37,1.8-2.03,2.87-2.31,3.44.45-.37,1.28-1.18,2.61-2.74.06-.07.14-.1.23-.1h0ZM30.84,32.63c-.08,0-.15-.03-.22-.06-.17-.09-.57-.31-.74-2.95-2.58,2.94-2.97,2.7-3.2,2.57-.07-.04-.12-.1-.15-.19-.04-.18-.19-.73,2.28-4.04-.93-.19-1.92-.5-2.21-1.01-.1-.18-.12-.37-.04-.57.3-.79,2.08-.93,3.29-.93.09-1.73.3-3.75.87-4.26.03-.02.08-.05.12-.06.15-.04.3-.02.43.08.13.1.53.39.69,2.86,2.34-2.66,2.8-2.63,2.97-2.63.12,0,.24.06.31.17.13.19.41.59-2.23,4.14.88.17,1.82.48,2.16.96.12.18.17.37.13.57,0,.03-.03.06-.03.09-.44.76-2.13.9-3.28.9-.12,2.57-.42,4.01-.91,4.28-.08.05-.16.07-.24.07Z"/>
      <path class="cls-4" d="M24.65,23.36l-3.03-1.76c-1.45.77-6.32,13.45-5.42,13.98l3.03,1.75c-.9-.54,3.97-13.2,5.42-13.96Z"/>
      <path class="cls-2" d="M16.4,35.33l2.42,1.4c.21-2.45,3.67-11.38,5.32-13.31l-2.5-1.44c-1.33,1.27-5.61,12.1-5.23,13.36h0ZM19.44,37.11h0,0ZM19.22,37.63c-.05,0-.1-.01-.16-.04l-3.02-1.76c-.25-.14-.27-.45-.26-.68.05-2.37,4.23-13.05,5.69-13.83.09-.04.21-.04.3.01l3.02,1.74c.1.05.16.16.16.27s-.06.22-.17.27c-1.17.63-5.77,12.22-5.35,13.47.1.1.13.25.05.38-.05.1-.16.15-.26.15Z"/>
      <path class="cls-4" d="M15.32,28.74l-3.02-1.76c-1.45.78-6.32,13.45-5.42,13.98l3.03,1.75c-.9-.54,3.97-13.2,5.41-13.97Z"/>
      <path class="cls-2" d="M7.08,40.71l2.42,1.4c.21-2.45,3.68-11.38,5.31-13.31l-2.5-1.44c-1.33,1.27-5.61,12.1-5.23,13.36h0ZM10.12,42.5h.01-.01ZM9.91,43.01c-.05,0-.1,0-.16-.03l-3.03-1.76c-.25-.14-.27-.46-.27-.68.06-2.37,4.23-13.05,5.69-13.83.1-.05.21-.04.3,0l3.03,1.75c.09.05.16.16.16.27s-.07.22-.17.27c-1.17.62-5.77,12.22-5.35,13.47.1.09.13.25.05.38-.05.09-.16.15-.26.15Z"/>
      <path class="cls-3" d="M24.65,23.36c-1.29.35-6.45,13.87-5.42,13.96,1.02.09,6.36-13.42,5.42-13.96Z"/>
      <path class="cls-2" d="M24.46,23.9c-1.35,1.71-5.06,11.16-5.07,13,1.14-1.24,4.92-10.87,5.07-13h0ZM19.22,37.63h-.02c-.11-.01-.37-.08-.41-.51-.16-1.79,4.36-13.69,5.77-14.07.09-.02.17,0,.23.03.31.18.54.62-.44,3.7-.7,2.22-3.89,10.84-5.13,10.84Z"/>
      <path class="cls-3" d="M12.39,38.55c1.78-3.96,3.52-9.47,2.93-9.81-1.29.35-6.44,13.87-5.41,13.97.47.04,2.21-3.56,2.48-4.15Z"/>
      <path class="cls-2" d="M12.39,38.55h.01-.01ZM15.14,29.27c-1.31,1.65-4.92,10.8-5.07,12.9.55-.73,1.63-2.84,2.04-3.75,1.61-3.57,2.95-7.85,3.03-9.15h0ZM9.9,43.01h-.02c-.11,0-.37-.08-.41-.5-.16-1.79,4.36-13.69,5.77-14.07.08-.02.17-.01.24.03,1.17.67-2.15,8.74-2.8,10.21h0c-.33.73-2,4.34-2.78,4.34Z"/>
      <path class="cls-3" d="M12.73,33.23c-1.7.97-3.23,1.07-4.33.43h-.01l-6.3-3.64c-.36-.22-.65-.47-.91-.81-.99-1.31-1-3.3-.72-4.86.54-2.98,2.41-6.17,4.77-8.08l.28-.22c.04-.34.08-.65.14-.99.84-4.85,4.22-10.28,8.51-12.78,1.68-.98,3.88-1.64,5.75-.82l.19.09,1.31.76c1.18-1.05,2.79-2.04,4.4-2.01.39.01.81.09,1.17.24l.18.08,2.75,1.58.29-.06c.63-.1,1.31-.07,1.91.16l.2.1,6.32,3.64c1.21.59,1.96,2,1.96,4.06,0,3.9-2.75,8.65-6.13,10.59l-21.73,12.53Z"/>
      <path class="cls-2" d="M18.05,1.4c-1.48,0-2.89.66-3.74,1.16-4.04,2.35-7.48,7.51-8.36,12.56-.06.33-.1.64-.14.98,0,.08-.05.16-.11.2l-.28.22c-2.3,1.84-4.13,4.94-4.66,7.89-.17.9-.42,3.16.67,4.61.22.3.48.53.82.73l6.3,3.63c1.06.62,2.49.47,4.02-.42l.16.26-.16-.26,21.74-12.54c3.28-1.89,5.96-6.53,5.96-10.32,0-1.84-.65-3.23-1.79-3.78l-6.51-3.74c-.5-.19-1.09-.24-1.73-.14l-.28.06c-.08.02-.15,0-.22-.04l-2.89-1.65c-.3-.12-.68-.2-1.04-.2-1.7-.04-3.36,1.19-4.2,1.93-.09.09-.24.1-.36.04l-1.48-.84c-.56-.24-1.15-.35-1.73-.35h0ZM9.99,34.38c-.63,0-1.23-.15-1.75-.45l-6.31-3.64c-.41-.25-.72-.53-1-.89C-.3,27.75-.02,25.27.15,24.3c.56-3.09,2.48-6.33,4.89-8.27l.17-.14c.04-.3.08-.58.13-.88.9-5.21,4.47-10.55,8.66-12.99,1.27-.74,3.75-1.83,6.03-.83l.19.09,1.14.66C22.32,1.14,24-.03,25.82,0c.44.01.89.1,1.28.25l.18.08,2.68,1.55.17-.03c.76-.13,1.47-.07,2.09.17l.21.09,6.34,3.66c1.35.66,2.12,2.23,2.12,4.33,0,3.99-2.82,8.87-6.28,10.86l-21.74,12.53c-1.01.58-1.99.88-2.88.88Z"/>
      <path class="cls-1" d="M12.73,33.23c-3.38,1.95-6.12.36-6.12-3.54,0-3.55,2.26-7.78,5.21-9.99.55-5.28,4.22-11.21,8.65-13.78,2.95-1.7,5.55-1.51,7.13.15.55-.5,1.13-.95,1.74-1.29,2.69-1.55,4.96-.86,5.79,1.44,3.08-1.4,5.47.23,5.47,3.88,0,3.9-2.75,8.65-6.13,10.59l-21.73,12.53Z"/>
      <path class="cls-2" d="M24.36,5.06c-1.14,0-2.41.37-3.74,1.14-4.29,2.48-7.95,8.3-8.5,13.53,0,.09-.05.16-.12.22-2.9,2.17-5.09,6.36-5.09,9.74,0,1.77.58,3.09,1.64,3.7,1.05.61,2.48.46,4.02-.42l21.74-12.54c3.28-1.89,5.96-6.53,5.96-10.32,0-1.71-.54-3-1.53-3.63-.91-.59-2.16-.57-3.5.04-.08.03-.16.03-.25,0-.08-.03-.14-.1-.17-.18-.34-.95-.94-1.6-1.74-1.89-1-.37-2.29-.15-3.61.62-.57.33-1.14.75-1.69,1.25-.13.11-.32.11-.43-.01-.78-.83-1.82-1.23-3.01-1.23h0ZM9.99,34.38c-.63,0-1.23-.15-1.75-.45-1.25-.72-1.95-2.22-1.95-4.23,0-3.57,2.19-7.82,5.22-10.15.62-5.38,4.37-11.33,8.79-13.88,2.83-1.63,5.54-1.62,7.28,0,.51-.45,1.04-.84,1.57-1.14,1.5-.86,2.96-1.09,4.13-.67.89.33,1.56,1,1.99,1.97,1.43-.57,2.76-.53,3.79.13,1.17.76,1.81,2.23,1.81,4.16,0,3.99-2.82,8.87-6.28,10.86l-21.74,12.53h0c-1.01.58-1.99.88-2.88.88Z"/>
      <path class="cls-2" d="M11.82,20.01c-.05,0-.11-.02-.16-.04l-6.31-3.64c-.15-.09-.2-.27-.11-.42.09-.15.28-.2.42-.11l6.31,3.64c.15.09.19.27.11.42-.06.11-.17.16-.27.16Z"/>
      <path class="cls-2" d="M27.67,6.24c-.05,0-.1-.02-.15-.04l-6.27-3.61c-.15-.09-.2-.28-.11-.42.09-.16.28-.2.42-.11l6.27,3.62c.15.08.2.27.11.42-.06.1-.16.16-.27.16Z"/>
      <path class="cls-2" d="M33.49,4.57c-.05,0-.1,0-.16-.03l-3.58-2.07c-.15-.09-.2-.28-.11-.42.09-.15.28-.19.43-.11l3.57,2.07c.15.09.2.28.12.43-.05.09-.16.15-.26.15Z"/>
    </g>
  </g>
</svg>