<?xml version="1.0" encoding="UTF-8"?>
<svg id="Layer_2" data-name="Layer 2" xmlns="http://www.w3.org/2000/svg" viewBox="0 0 41.03 34.76" fill="currentColor">
  <defs>
    <style>
      .cls-1 {
        fill: #fff;
      }

      .cls-1, .cls-2, .cls-3, .cls-4 {
        fill-rule: evenodd;
      }

      .cls-2 {
        fill: #1a87c7;
      }

      .cls-3 {
        fill: #bdedf8;
      }

      .cls-4 {
        fill: #66ceef;
      }
    </style>
  </defs>
  <g id="_Layer_" data-name="&amp;lt;Layer&amp;gt;">
    <g>
      <path class="cls-1" d="M3.06,15.17L27.69.95l.29-.09c.61-.18,1.3-.19,1.92-.1,1.79.28,3.55,1.45,4.85,2.67,2.76,2.58,4.96,6.7,5.28,10.49.11,1.3,0,2.77-.56,3.97-.22.47-.54.94-.91,1.29l-.23.2-24.63,14.23c.16-.15.29-.26.43-.42.43-.49.75-1.11.95-1.73.56-1.77.35-3.91-.12-5.67-.94-3.52-3.32-7.26-6.33-9.34-1.16-.81-2.61-1.49-4.05-1.52-.4-.01-.86.04-1.25.15l-.28.09Z"/>
      <path class="cls-2" d="M4.64,14.61c1.64.05,3.18.89,4.18,1.58,2.91,2.02,5.45,5.75,6.45,9.51.34,1.26.8,3.69.12,5.84-.11.35-.25.68-.41.98l23.21-13.4.17-.17c.32-.31.62-.74.84-1.2.59-1.28.61-2.78.53-3.82-.3-3.59-2.33-7.63-5.18-10.29-.89-.83-2.68-2.28-4.69-2.59-.62-.09-1.26-.06-1.79.09l-.27.1L4.64,14.61h0ZM13.71,33.91c-.1,0-.19-.04-.25-.13-.09-.12-.07-.31.05-.41.16-.14.28-.24.41-.39.37-.42.69-1,.89-1.62.64-2,.2-4.3-.12-5.49-.98-3.63-3.41-7.22-6.21-9.17-1.33-.92-2.71-1.44-3.88-1.47-.38-.01-.81.04-1.16.15l-.27.09c-.15.05-.31-.03-.38-.16-.07-.15-.01-.31.13-.39L27.54.67l.34-.11c.63-.18,1.36-.22,2.07-.11,2.17.34,4.07,1.86,5.01,2.75,2.95,2.76,5.06,6.96,5.37,10.69.09,1.11.07,2.73-.58,4.13-.25.53-.59,1.02-.97,1.39l-.23.21-24.68,14.25s-.1.04-.15.04Z"/>
      <path class="cls-4" d="M32.5,19.19c-4.18-2.41-7.56-8.27-7.56-13.09s3.38-6.78,7.56-4.37c4.18,2.42,7.56,8.27,7.56,13.1s-3.38,6.78-7.56,4.37Z"/>
      <path class="cls-2" d="M29.13,1.01c-.67,0-1.28.15-1.82.46-1.33.77-2.06,2.42-2.06,4.63,0,4.71,3.32,10.47,7.41,12.83h0c1.92,1.1,3.71,1.3,5.04.53,1.33-.78,2.06-2.42,2.06-4.64,0-4.71-3.32-10.47-7.41-12.83-1.15-.66-2.24-.99-3.22-.99h0ZM35.88,20.54c-1.09,0-2.29-.36-3.53-1.08h0c-4.25-2.45-7.72-8.45-7.72-13.36,0-2.45.84-4.28,2.37-5.16,1.53-.89,3.54-.7,5.65.53,4.26,2.45,7.72,8.45,7.72,13.36,0,2.45-.84,4.29-2.37,5.16-.63.36-1.35.55-2.12.55Z"/>
      <path class="cls-4" d="M27.16,1.2c1.4-.81,2.32-1.16,4.1-.65,6.91,1.93,12.19,14.18,7.95,18.27-.41.4-.86.62-1.36.9,3.65-2.31,2.06-8.34.49-11.45-1.66-3.3-5.49-7.77-9.44-7.57-.67.04-1.16.19-1.74.5Z"/>
      <path class="cls-2" d="M32.34,1.27c2.76,1.5,5.11,4.56,6.27,6.87.87,1.74,1.85,4.57,1.77,7.14.09-1.09-.03-2.35-.37-3.7-.99-3.91-3.94-8.58-7.68-10.31h0ZM37.85,20.03c-.1,0-.2-.05-.26-.15-.09-.15-.04-.33.1-.42,3.32-2.1,2.04-7.76.38-11.06-1.56-3.08-5.3-7.61-9.15-7.41-.59.04-1.03.16-1.61.47-.15.08-.33.02-.41-.13-.08-.14-.03-.33.12-.41,1.53-.89,2.52-1.2,4.34-.7,4.56,1.28,8.12,6.6,9.28,11.19.83,3.29.4,6.07-1.2,7.61-.38.36-.77.59-1.19.83l-.22.12s-.1.04-.15.04Z"/>
      <path class="cls-3" d="M24.41,4.55l3.41-1.96.25-.08c.53-.15,1.12-.17,1.66-.09,1.54.24,3.06,1.24,4.17,2.29,2.38,2.23,4.27,5.77,4.54,9.03.09,1.12,0,2.39-.48,3.41-.19.41-.46.82-.78,1.12l-.19.17-3.41,1.96c.14-.12.25-.23.37-.37.37-.42.65-.96.82-1.49.49-1.52.3-3.36-.1-4.88-.81-3.03-2.86-6.24-5.45-8.04-1-.69-2.25-1.29-3.49-1.3-.34,0-.74.03-1.07.13l-.25.08Z"/>
      <path class="cls-2" d="M25.91,4.04c1.37.08,2.64.77,3.48,1.36,2.52,1.75,4.7,4.97,5.57,8.21.29,1.08.69,3.2.1,5.05-.08.25-.18.5-.29.72l2.05-1.19.14-.13c.27-.26.52-.62.71-1.02.51-1.09.52-2.37.45-3.26-.25-3.03-2.04-6.58-4.44-8.83-.76-.71-2.29-1.95-4.01-2.22-.53-.08-1.07-.05-1.52.08l-.24.08-2,1.16h0ZM33.57,20.74c-.1,0-.19-.05-.25-.13-.09-.13-.07-.31.04-.41.14-.12.24-.22.35-.34.32-.36.59-.85.76-1.38.55-1.71.17-3.69-.11-4.7-.83-3.11-2.92-6.21-5.33-7.88-1.14-.78-2.31-1.23-3.32-1.25-.33-.01-.69.03-.98.12l-.23.08c-.15.04-.31-.03-.38-.16-.07-.15-.01-.31.13-.4l3.41-1.97.3-.1c.55-.16,1.18-.19,1.8-.1,1.88.3,3.52,1.61,4.34,2.37,2.55,2.38,4.37,6.01,4.64,9.23.08.96.06,2.36-.51,3.57-.22.46-.52.9-.85,1.22l-.2.17-3.46,2.01c-.05.03-.1.04-.15.04Z"/>
      <path class="cls-4" d="M28.55,20.26c-3.59-2.08-6.51-7.12-6.51-11.27s2.91-5.83,6.51-3.75c3.6,2.07,6.51,7.13,6.51,11.27s-2.92,5.83-6.51,3.75Z"/>
      <path class="cls-2" d="M28.7,19.99c1.64.95,3.17,1.11,4.3.46,1.13-.65,1.75-2.05,1.75-3.95,0-4.05-2.85-8.99-6.36-11.01-1.64-.94-3.16-1.1-4.29-.45-1.13.65-1.75,2.05-1.75,3.94,0,4.05,2.85,8.99,6.35,11h0ZM31.46,21.46c-.95,0-1.99-.31-3.06-.93h0c-3.67-2.12-6.66-7.3-6.66-11.54,0-2.12.73-3.71,2.06-4.48,1.33-.77,3.07-.61,4.91.45,3.68,2.12,6.67,7.3,6.67,11.54,0,2.12-.73,3.71-2.06,4.47-.55.32-1.18.48-1.85.48Z"/>
      <path class="cls-4" d="M7.87,33.42C3.69,31,.31,25.14.31,20.32s3.38-6.78,7.56-4.37c4.18,2.42,7.56,8.28,7.56,13.11s-3.39,6.77-7.56,4.36Z"/>
      <path class="cls-2" d="M4.49,15.23c-.66,0-1.28.15-1.82.46-1.33.76-2.06,2.42-2.06,4.63,0,4.72,3.32,10.47,7.4,12.83h0c1.92,1.11,3.71,1.29,5.04.53,1.33-.76,2.06-2.41,2.06-4.62,0-4.72-3.32-10.48-7.41-12.84-1.14-.66-2.24-.99-3.22-.99h0ZM11.25,34.76c-1.09,0-2.29-.36-3.53-1.08h0C3.46,31.23,0,25.23,0,20.32c0-2.45.84-4.29,2.37-5.16,1.53-.88,3.54-.69,5.65.53,4.25,2.45,7.72,8.45,7.72,13.37,0,2.44-.84,4.28-2.37,5.15-.63.37-1.35.55-2.12.55Z"/>
      <path class="cls-1" d="M7.87,31.02c-3.03-1.76-5.48-6.01-5.48-9.5s2.45-4.92,5.48-3.17c3.03,1.76,5.49,6.01,5.49,9.5s-2.46,4.92-5.49,3.17Z"/>
      <path class="cls-2" d="M5.42,17.91c-.47,0-.9.11-1.28.32-.94.54-1.45,1.7-1.45,3.29,0,3.39,2.39,7.53,5.33,9.23h0c1.37.79,2.64.92,3.57.38.94-.54,1.45-1.7,1.45-3.29,0-3.39-2.39-7.53-5.33-9.23-.82-.47-1.6-.7-2.29-.7h0ZM10.32,32.07c-.81,0-1.69-.26-2.6-.79h0c-3.11-1.79-5.64-6.17-5.64-9.76,0-1.81.63-3.17,1.76-3.82,1.13-.66,2.62-.52,4.18.38,3.11,1.79,5.64,6.17,5.64,9.76,0,1.81-.63,3.16-1.76,3.82-.47.28-1.01.41-1.58.41Z"/>
      <path class="cls-1" d="M8.6,28.36c1.26-.73,2.41-1.05,1.88-3.36-.47-2.03-2.65-4.61-4.33-3.74l-1.23.71c2.56-1.21,6.01,4.77,3.68,6.38Z"/>
      <path class="cls-2" d="M6.21,21.6c1.04.28,2.02,1.27,2.65,2.35.63,1.09,1,2.43.72,3.48.61-.43.91-.99.59-2.35-.33-1.43-1.49-2.99-2.59-3.49-.48-.23-.91-.24-1.29-.03l-.09.05h0ZM8.6,28.66c-.1,0-.2-.05-.26-.14-.09-.14-.05-.32.08-.42,1.04-.72.68-2.49-.1-3.84-.78-1.35-2.13-2.55-3.28-2.01-.15.07-.33,0-.4-.13-.08-.15-.02-.33.12-.41l1.23-.71c.56-.3,1.2-.29,1.85,0,1.42.65,2.61,2.5,2.93,3.92.53,2.29-.52,2.86-1.63,3.47-.13.07-.26.15-.4.23-.05.03-.1.04-.15.04Z"/>
      <path class="cls-1" d="M6.76,28.18c1.44.83,2.6.16,2.6-1.5s-1.17-3.68-2.6-4.51c-1.44-.83-2.6-.15-2.6,1.5s1.17,3.68,2.6,4.51Z"/>
      <path class="cls-2" d="M5.6,22.12c-.19,0-.37.04-.52.13-.39.23-.61.73-.61,1.42,0,1.56,1.1,3.47,2.45,4.24h0c.59.35,1.14.41,1.53.18.39-.23.61-.73.61-1.42,0-1.56-1.1-3.46-2.45-4.24-.36-.21-.7-.31-1.01-.31h0ZM7.92,28.84c-.41,0-.86-.13-1.32-.39-1.52-.88-2.76-3.03-2.76-4.78,0-.91.33-1.61.92-1.95.59-.35,1.35-.28,2.15.18,1.55.89,2.76,2.99,2.76,4.77,0,.92-.33,1.61-.92,1.95-.25.14-.53.21-.83.21Z"/>
      <path class="cls-4" d="M2.52,15.43c1.4-.82,2.32-1.16,4.1-.66,7.3,2.04,12.69,15.51,7.24,18.81l-.64.37c3.65-2.31,2.06-8.34.49-11.45-1.67-3.3-5.5-7.78-9.44-7.58-.67.03-1.16.19-1.74.5Z"/>
      <path class="cls-2" d="M7.7,15.49c2.76,1.5,5.11,4.56,6.28,6.88.88,1.74,1.87,4.61,1.77,7.19.06-.68.04-1.43-.07-2.24-.61-4.45-3.87-9.92-7.98-11.82h0ZM13.22,34.25c-.11,0-.21-.05-.27-.15-.09-.15-.04-.33.1-.42,3.32-2.1,2.04-7.76.38-11.05-1.56-3.09-5.32-7.62-9.15-7.41-.59.03-1.03.15-1.62.46-.15.08-.33.03-.41-.12-.08-.15-.03-.34.12-.42,1.53-.89,2.52-1.2,4.34-.69,4.88,1.37,8.89,7.7,9.58,12.76.43,3.12-.38,5.47-2.27,6.61l-.65.37c-.05.03-.1.04-.15.04Z"/>
    </g>
  </g>
</svg>