<?xml version="1.0" encoding="UTF-8"?>
<svg id="Layer_2" data-name="Layer 2" xmlns="http://www.w3.org/2000/svg" viewBox="0 0 52.99 85.3" fill="currentColor">
  <defs>
    <style>
      .cls-1 {
        fill: #fff;
      }

      .cls-1, .cls-2, .cls-3, .cls-4 {
        fill-rule: evenodd;
      }

      .cls-2 {
        fill: #1a87c7;
      }

      .cls-3 {
        fill: #bdedf8;
      }

      .cls-4 {
        fill: #66ceef;
      }
    </style>
  </defs>
  <g id="_Layer_" data-name="&amp;lt;Layer&amp;gt;">
    <g>
      <path class="cls-1" d="M12.77,52.34c.41-.53,1.61-1.77,1.95-2.33.66-1.11.63-1.53.77-2.84,5.22,6.03,17.5-2.96,22.4-5.78.18,3.02.38,4.92,1.35,6.86h0c1.43,3.4-3.61,8.38-8.83,10.33-3.82,1.43-7.92.87-11.65-.57-3.96-1.54-6.37-3.71-5.98-5.67Z"/>
      <path class="cls-2" d="M13.28,52.57c-.17,1.6,2.03,3.52,5.66,4.94,4.18,1.62,7.97,1.81,11.28.57,3.69-1.38,7.19-4.29,8.33-6.91.44-1.02.5-1.93.18-2.7-.9-1.82-1.17-3.68-1.33-6.16-.44.27-.95.58-1.48.91-5.66,3.5-14.92,9.24-20.01,5.12-.08.63-.23,1.13-.73,1.94-.23.4-.78,1.01-1.3,1.61-.23.26-.44.5-.6.68h0ZM25.66,59.97c-2.24,0-4.62-.49-7.11-1.45-4.39-1.7-6.75-4.05-6.32-6.28.01-.08.04-.17.11-.23.15-.2.43-.51.72-.84.45-.5,1.02-1.13,1.18-1.43.54-.88.57-1.25.66-2.22l.05-.4c.01-.21.17-.4.37-.46.22-.07.43,0,.59.17,4.22,4.9,13.75-1,19.43-4.52.86-.53,1.63-1,2.27-1.37.15-.09.36-.1.52,0,.17.08.28.25.29.44.18,2.88.36,4.77,1.3,6.65.44,1.09.38,2.28-.19,3.59-1.26,2.92-4.93,6-8.93,7.49-1.57.58-3.21.87-4.95.87Z"/>
      <path class="cls-1" d="M34.95,51.08c1.54-1.92,2.69-3.57,3.67-5.42h0l.51-.99c.95-2.06,1.78-4.32,2.42-6.69h0c.34-1.37.64-2.79.89-4.2.26-1.39.45-2.79.58-4.12h0c.05-.55.08-1.09.09-1.64.03-.5.03-1.05.03-1.65v-1.02c-.01-.29-.03-.6-.05-.94-.29-2.58-3.5-1.34-6.96,0-4.07,1.57-8.4,3.24-10.15.05l-.03.05c-1.74,2.74-4.99,7.86-5.67,14.2-.06.56-.11,1.14-.12,1.74-.03.58-.03,1.17-.01,1.76h.01c.25,3.6-.35,4.75-1.58,6.83,2.73,3.39,8.47,6.04,12.85,5.06,1.24-.29,1.98-1.13,3.5-3Z"/>
      <path class="cls-2" d="M19.26,48.97c2.62,3,7.95,5.51,12.07,4.58,1.04-.24,1.67-.92,3.19-2.81h0c1.63-2.03,2.72-3.63,3.63-5.34l.49-.97c.95-2.03,1.75-4.25,2.4-6.59.34-1.34.63-2.74.89-4.15.25-1.39.43-2.77.55-4.08,0-.01,0-.03.01-.05.03-.52.06-1.04.09-1.57.02-.5.03-1.04.03-1.62,0-.43,0-.77-.01-1.01,0-.28-.02-.59-.03-.92-.06-.53-.28-.73-.43-.82-.95-.57-3.53.42-5.79,1.3-3.84,1.48-8.13,3.14-10.33.53-1.79,2.87-4.56,7.59-5.17,13.31-.05.55-.09,1.12-.13,1.71-.01.56-.01,1.14,0,1.72.25,3.52-.32,4.85-1.46,6.78h0ZM29.47,54.84c-4.3,0-8.97-2.59-11.3-5.47-.14-.18-.15-.42-.03-.62,1.2-2.04,1.73-3.08,1.48-6.51-.01-.62-.01-1.23,0-1.81.03-.61.08-1.21.14-1.78.68-6.46,3.98-11.64,5.74-14.42.11-.16.32-.31.49-.27.2,0,.38.08.48.25,1.52,2.77,5.56,1.21,9.47-.3,2.87-1.11,5.34-2.07,6.74-1.21.56.33.88.89.95,1.66.03.38.05.69.05.98,0,.25.01.6.01,1.04,0,.61-.01,1.16-.03,1.67-.03.56-.06,1.11-.11,1.67,0,.02,0,.04-.02.06-.12,1.32-.32,2.7-.57,4.1-.25,1.43-.55,2.85-.9,4.24-.66,2.41-1.49,4.69-2.46,6.78l-.5,1c-.95,1.78-2.07,3.43-3.75,5.52h0c-1.54,1.92-2.35,2.86-3.79,3.19-.69.16-1.4.23-2.11.23Z"/>
      <path class="cls-4" d="M52.44,63.41v-8.03c.01-6.41-6.15-9.74-11.62-10.21-.79-.08-1.38-.13-1.86-.16-.17.34-.35.68-.54,1,.18.78.44,1.5.81,2.24h0c1.43,3.4-3.61,8.38-8.83,10.33-3.82,1.43-7.92.87-11.65-.57-3.96-1.54-6.37-3.71-5.98-5.67-2.75,3.55-4.03,4.62-7.07,7.93C-.42,67.16.61,69.68.61,77.6c0,2.41.29,3.05,2.93,4.57,17.61,10.17,48.9-12.02,48.9-18.76Z"/>
      <path class="cls-2" d="M12.35,53.74c-1.5,1.87-2.58,3.01-3.99,4.49-.66.69-1.38,1.45-2.24,2.4-5.16,5.81-5.11,8.38-5,14.04.01.9.03,1.87.03,2.93,0,2.21.18,2.67,2.66,4.1,11.8,6.81,28.65-1.86,33.54-4.68,8.98-5.19,14.55-11.11,14.55-13.61v-8.03c.01-5.98-5.77-9.21-11.13-9.67-.6-.06-1.09-.11-1.49-.13-.09.18-.19.35-.28.52.18.69.42,1.3.72,1.91.44,1.09.38,2.28-.19,3.59-1.26,2.92-4.93,6-8.93,7.49-3.58,1.33-7.63,1.14-12.05-.58-3.41-1.32-5.6-3.03-6.2-4.78h0ZM14.24,85.3c-4.16,0-7.89-.88-10.98-2.66-2.7-1.56-3.21-2.36-3.21-5.04,0-1.06-.02-2.02-.03-2.92-.11-5.76-.17-8.65,5.28-14.78.88-.96,1.62-1.73,2.27-2.42,1.63-1.72,2.81-2.96,4.76-5.47.15-.2.41-.26.64-.16.23.11.35.35.31.6-.31,1.62,1.91,3.61,5.65,5.06,4.18,1.62,7.97,1.81,11.28.57,3.69-1.38,7.19-4.29,8.33-6.91.44-1.02.5-1.93.18-2.7-.35-.71-.63-1.48-.83-2.32-.03-.13-.01-.27.05-.39.18-.32.35-.65.52-.99.09-.19.26-.3.52-.3.48.03,1.09.07,1.89.16,5.84.5,12.11,4.08,12.11,10.75v8.03c0,3.33-6.49,9.58-15.1,14.55-8.4,4.84-16.63,7.34-23.64,7.34Z"/>
      <path class="cls-1" d="M42.42,45.39s-.06,0-.09-.01c.03,0,.06,0,.09.01Z"/>
      <path class="cls-2" d="M42.4,45.93s-.06,0-.09,0l-.09-.02c-.26-.05-.43-.28-.43-.53v-.11c.06-.3.34-.49.64-.43.26.05.48.29.48.55v.09c-.06.26-.24.45-.51.45Z"/>
      <path class="cls-4" d="M52.44,63.41v-8.03c.01-5.72-4.91-9-9.86-9.96.4.62.72,1.49.89,2.2.27,1.29.26,2.7.03,3.72-.21.9-.57,1.79-1.04,2.66-.48.89-1.11,1.76-1.83,2.59-1.01,1.16-2.26,2.26-3.62,3.23-1.35.97-2.84,1.8-4.35,2.44-.01,0-.09.04-.25.09l-.54.2c-1.15.43-2.32.73-3.48.9-1.23.19-2.46.24-3.69.18-1.24-.06-2.48-.24-3.7-.51-1.29-.29-2.56-.69-3.79-1.16-1.25-.49-2.4-1.04-3.4-1.63-1.03-.61-1.92-1.26-2.65-1.95-.69-.66-1.28-1.37-1.71-2.11-1.07,1.18-2.18,2.29-3.76,4.01C-.42,67.16.61,69.68.61,77.6c0,2.41.29,3.05,2.93,4.57,17.61,10.17,48.9-12.02,48.9-18.76Z"/>
      <path class="cls-2" d="M9.39,57.14c-.34.36-.68.71-1.03,1.09-.66.69-1.38,1.45-2.24,2.4-5.16,5.81-5.11,8.38-5,14.04.01.9.03,1.87.03,2.93,0,2.21.18,2.67,2.66,4.1,11.8,6.81,28.65-1.86,33.54-4.68,8.98-5.19,14.55-11.11,14.55-13.61v-8.03c.01-5.14-4.1-8.04-8.31-9.17.17.42.31.86.4,1.29.3,1.27.3,2.78.03,3.96-.22.93-.58,1.87-1.07,2.8-.51.92-1.15,1.82-1.9,2.68-1.03,1.17-2.3,2.31-3.72,3.32-1.41.99-2.94,1.86-4.45,2.49-.02,0-.09.04-.26.1l-.54.2c-1.17.43-2.38.75-3.61.94-1.23.18-2.5.24-3.79.18-1.24-.06-2.52-.23-3.79-.52-1.28-.29-2.57-.69-3.85-1.18-1.28-.5-2.46-1.06-3.5-1.67-1.06-.62-1.99-1.31-2.73-2.03-.54-.51-1.01-1.05-1.41-1.62h0ZM14.24,85.3c-4.16,0-7.89-.88-10.98-2.66-2.7-1.56-3.21-2.36-3.21-5.04,0-1.06-.02-2.02-.03-2.92-.11-5.76-.17-8.65,5.28-14.78.88-.96,1.62-1.73,2.27-2.42.52-.55,1.01-1.07,1.49-1.59.12-.13.29-.19.46-.18.17.02.32.12.41.27.4.69.93,1.35,1.61,1.99.69.66,1.55,1.29,2.55,1.88.98.58,2.11,1.12,3.32,1.59,1.24.49,2.48.87,3.72,1.14,1.21.27,2.42.44,3.59.5,1.23.06,2.42,0,3.59-.17,1.15-.18,2.29-.47,3.38-.88l.75-.29c1.44-.6,2.92-1.42,4.25-2.37,1.34-.95,2.57-2.04,3.54-3.15.7-.81,1.29-1.64,1.75-2.48.46-.84.8-1.69.98-2.53.23-1.02.21-2.35-.03-3.48-.15-.71-.47-1.5-.81-2.02-.13-.18-.13-.42,0-.6.12-.18.34-.27.56-.23,4.75.93,10.3,4.24,10.3,10.5v8.03c0,3.33-6.49,9.58-15.1,14.55-8.4,4.84-16.63,7.34-23.64,7.34Z"/>
      <path class="cls-3" d="M8.13,57.69c-2.56-7.93-.16-10.05-.81-15.69-.97-8.22-3.39-9.19-1-17.6C8.76,15.86,14.53,3.09,19.09,5.72c.34-.56.72-1.02,1.12-1.53l.77-.79.8-.67c6.68-4.41,14.88,5.52,18.3,11.33,3.05,5.17,7.92,16.54,1.64,31.21h0c-.31-.03-.61-.07-.9-.09-.79-.08-1.38-.13-1.86-.16-.11.22-.21.43-.34.64l.51-.99c.95-2.06,1.78-4.32,2.42-6.69h0c.34-1.37.64-2.79.89-4.2.26-1.39.45-2.79.58-4.12h0c.05-.55.08-1.09.09-1.64.03-.5.03-1.05.03-1.65v-1.02c-.01-.29-.03-.6-.05-.94-.29-2.58-3.5-1.34-6.96,0-4.07,1.57-8.4,3.24-10.15.05l-.03.05c-1.74,2.74-4.99,7.86-5.67,14.2-.06.56-.11,1.14-.12,1.74-.03.58-.03,1.17-.01,1.76h.01c.71,10.28-6.08,13.11-12.05,15.48Z"/>
      <path class="cls-2" d="M39.79,44.53c.32.02.68.06,1.09.1.17.01.34.03.52.05,3.13-7.47,3.3-14.13,2.29-19.53v.19c0,.25.01.6.01,1.04,0,.61-.01,1.16-.03,1.67-.03.56-.06,1.11-.11,1.67,0,.02,0,.04-.02.06-.12,1.32-.32,2.7-.57,4.1-.25,1.43-.55,2.85-.9,4.24-.62,2.26-1.38,4.42-2.29,6.41h0ZM17.82,5.91c.35,0,.69.09,1.01.28.25.15.57.06.72-.19.31-.48.63-.9.98-1.35l.8-.84.75-.63c1.44-.95,3.05-1.24,4.79-.83,4.85,1.12,9.89,7.15,12.74,11.97,1.26,2.13,2.7,5.16,3.64,8.9-.14-.22-.34-.4-.57-.54-1.39-.86-3.87.1-6.74,1.21-3.92,1.51-7.95,3.07-9.47.3-.09-.17-.28-.25-.48-.25-.17-.04-.38.12-.49.27-1.77,2.79-5.07,7.97-5.74,14.42-.06.57-.11,1.17-.14,1.78-.01.59-.01,1.19,0,1.81.68,9.71-5.48,12.47-11.16,14.72-1.35-4.44-1.06-6.89-.75-9.48.2-1.64.4-3.34.14-5.55-.32-2.74-.8-4.66-1.21-6.34-.83-3.34-1.37-5.53.2-11.05,2.26-7.87,6.56-17.01,10.09-18.45.31-.12.61-.18.89-.18h0ZM8.13,58.23c-.08,0-.17-.02-.23-.06-.14-.06-.24-.18-.29-.32-1.63-5.02-1.29-7.8-.97-10.49.18-1.66.38-3.22.14-5.3-.32-2.67-.78-4.55-1.2-6.21-.83-3.38-1.43-5.81.21-11.6,1.66-5.79,6.02-17.25,10.73-19.15.83-.34,1.62-.36,2.36-.07.26-.36.52-.69.8-1.04l.11-.13.8-.83.85-.71c1.75-1.16,3.64-1.48,5.68-1.01,5.19,1.2,10.47,7.47,13.43,12.48,3.3,5.59,7.91,17.15,1.68,31.7-.03.05-.06.1-.09.14-.12.14-.31.22-.49.19-.29-.04-.58-.07-.87-.1-.6-.06-1.09-.11-1.49-.13-.06.11-.13.23-.17.33-.16.26-.48.36-.74.23-.26-.13-.37-.46-.23-.73l.49-.99c.95-2.03,1.75-4.25,2.4-6.59.34-1.34.63-2.74.89-4.15.25-1.39.43-2.77.55-4.08,0-.01,0-.03.01-.05.03-.52.06-1.04.09-1.57.02-.5.03-1.04.03-1.62,0-.43,0-.77-.01-1.01,0-.28-.02-.59-.03-.92-.06-.53-.28-.73-.43-.82-.95-.57-3.53.42-5.79,1.3-3.84,1.48-8.13,3.14-10.33.53-1.79,2.87-4.56,7.59-5.17,13.31-.05.55-.09,1.12-.13,1.71-.01.56-.01,1.14,0,1.72.75,10.8-6.54,13.68-12.39,16-.06.03-.14.04-.2.04Z"/>
      <path class="cls-4" d="M24.33,28.41c2.74-3.42,2.5-4.93,6.63-7.3,4.68-2.67,9.32-4.19,11.76-3.42.12-7.77-3.67-13.57-10.59-15.94-6.92-2.38-13.62-1.2-19.42,3.18-4.57,3.46-9.41,13.85-6.13,20,2.38,2.26,9.01,4.88,12.47,4.76,2.44-.09,4.63-.62,5.28-1.28Z"/>
      <path class="cls-2" d="M24.33,28.41h.01-.01ZM7.03,24.6c2.4,2.21,8.88,4.64,12,4.55,2.44-.09,4.39-.63,4.88-1.1.85-1.05,1.4-1.92,1.89-2.68,1.14-1.77,1.95-3.04,4.9-4.73,4.69-2.69,8.9-4,11.48-3.63-.11-7.2-3.81-12.56-10.23-14.75C25.3-.02,18.76,1.05,13.04,5.36c-4.56,3.44-9.04,13.4-6.02,19.24h0ZM18.82,30.24c-3.53,0-10.12-2.55-12.61-4.91-.05-.04-.08-.09-.11-.14-3.35-6.28,1.4-17.02,6.28-20.7C18.4-.05,25.28-1.17,32.31,1.23c7.09,2.42,11.08,8.43,10.96,16.46,0,.17-.09.33-.23.43-.14.1-.32.13-.48.07-2.17-.68-6.51.62-11.33,3.38-2.72,1.55-3.44,2.67-4.52,4.37-.52.79-1.09,1.69-1.98,2.8,0,.01-.01.02-.03.04-.86.89-3.45,1.36-5.64,1.44-.08,0-.15,0-.25,0Z"/>
      <path class="cls-4" d="M29.55,36.07l-8.97-5.18-1.53-1.2c4.37-5.49,16.1-13.64,22.64-13.04l9.09,5.19c-3.95-.4-9.82,2.68-13.08,4.72-3.53,2.24-7.08,5.04-9.69,8.31l1.54,1.21Z"/>
      <path class="cls-2" d="M19.82,29.61l1.11.86,6.78,3.91c2.35-2.91,5.6-5.69,9.7-8.28,1.71-1.07,7.02-4.21,11.41-4.76l-7.29-4.16c-6.14-.44-17.15,7.03-21.71,12.43h0ZM29.55,36.61c-.09,0-.18-.02-.28-.07l-8.97-5.18-1.59-1.24c-.11-.09-.19-.22-.2-.37-.01-.14.02-.29.11-.4,4.5-5.63,16.44-13.85,23.12-13.24.07,0,.15.03.21.07l9.1,5.19c.22.13.32.39.25.64-.08.25-.29.4-.57.38-4.29-.44-10.84,3.44-12.74,4.64-3.85,2.45-6.95,5.06-9.21,7.76l1.1.86c.22.18.28.5.11.74-.09.15-.28.24-.44.24Z"/>
      <path class="cls-3" d="M50.57,23.78c-.24-.03-.52-.04-.8-.03-.31.01-.63.05-.97.1-1.14.18-2.44.57-3.85,1.14h0c-1.46.58-3.04,1.36-4.64,2.27-1.69.97-3.39,2.09-4.97,3.3-1.5,1.15-2.93,2.39-4.15,3.65-.29.29-.56.6-.84.89-.25.29-.52.61-.8.97l-1.54-1.21c.27-.34.57-.69.87-1.05.31-.35.62-.67.89-.96h.02c1.29-1.34,2.78-2.64,4.36-3.85,1.67-1.27,3.44-2.43,5.19-3.44,1.66-.94,3.32-1.75,4.88-2.38,1.54-.61,2.99-1.05,4.27-1.25.41-.06.81-.11,1.19-.12.38-.02.75,0,1.09.03l-.22,1.94Z"/>
      <path class="cls-2" d="M28.78,34.78l.67.53c.17-.2.34-.39.49-.57.26-.31.55-.61.84-.91,1.21-1.25,2.63-2.5,4.23-3.71,1.58-1.21,3.28-2.33,5.04-3.33,1.62-.94,3.21-1.71,4.7-2.31,0,0,.01,0,.03-.01,1.47-.59,2.79-.98,3.93-1.16.36-.06.7-.09,1.03-.11.12,0,.23,0,.34,0l.11-.86c-.15,0-.31,0-.47,0-.36.01-.74.06-1.14.12-1.21.19-2.61.6-4.15,1.22-1.55.62-3.16,1.41-4.8,2.35-1.78,1.02-3.5,2.16-5.13,3.4-1.63,1.24-3.07,2.51-4.31,3.79-.28.3-.57.61-.88.95-.18.2-.36.4-.52.6h0ZM29.55,36.61c-.12,0-.23-.04-.34-.12l-1.54-1.2c-.11-.09-.18-.22-.2-.36-.01-.15.01-.29.11-.4.28-.35.58-.71.91-1.07.31-.35.61-.68.91-.98,1.27-1.32,2.76-2.64,4.43-3.91,1.66-1.27,3.44-2.44,5.25-3.48,1.67-.96,3.35-1.78,4.94-2.42,1.61-.65,3.09-1.08,4.38-1.29.44-.07.86-.12,1.27-.13.41-.01.81,0,1.17.04.15.01.28.09.37.2.09.12.12.26.11.4l-.21,1.93c-.03.3-.31.51-.6.48-.23-.02-.46-.03-.72-.02-.28,0-.58.04-.91.09-1.06.17-2.31.55-3.73,1.11-.01,0-.01.01-.03.01-1.43.57-2.94,1.32-4.53,2.23-1.72.98-3.36,2.08-4.91,3.26-1.55,1.18-2.93,2.39-4.1,3.6-.28.29-.56.58-.81.88-.24.28-.52.59-.79.94-.11.13-.27.2-.43.2Z"/>
      <polygon class="cls-1" points="47.76 63.86 40.22 69.01 40.39 71.81 47.91 66.67 47.76 63.86"/>
      <path class="cls-2" d="M40.79,69.29l.08,1.54,6.48-4.43-.08-1.54-6.48,4.43h0ZM40.39,72.36c-.09,0-.17-.02-.25-.06-.19-.09-.29-.26-.31-.46l-.15-2.81c-.01-.19.08-.37.23-.48l7.54-5.15c.17-.11.37-.13.54-.04.19.09.29.26.31.46l.15,2.81c.02.19-.07.37-.23.48l-7.52,5.15c-.11.07-.2.1-.31.1Z"/>
    </g>
  </g>
</svg>