<?xml version="1.0" encoding="UTF-8"?>
<svg id="Layer_2" data-name="Layer 2" xmlns="http://www.w3.org/2000/svg" viewBox="0 0 41.03 41.02" fill="currentColor">
  <defs>
    <style>
      .cls-1 {
        fill: #fff;
      }

      .cls-1, .cls-2, .cls-3, .cls-4 {
        fill-rule: evenodd;
      }

      .cls-2 {
        fill: #1a87c7;
      }

      .cls-3 {
        fill: #bdedf8;
      }

      .cls-4 {
        fill: #66ceef;
      }
    </style>
  </defs>
  <g id="_Layer_" data-name="&amp;lt;Layer&amp;gt;">
    <g>
      <path class="cls-4" d="M1.02,16.64c.52-2.56,1.52-5,2.99-7.18,1.39-2.1,3.22-3.97,5.48-5.47,2.23-1.5,4.66-2.48,7.15-2.97,2.54-.5,5.19-.5,7.75,0,2.54.51,4.98,1.5,7.18,2.97,2.15,1.44,4.04,3.32,5.48,5.48,1.49,2.23,2.46,4.67,2.96,7.15.52,2.58.5,5.22,0,7.76-.52,2.57-1.52,5.01-2.96,7.17-1.41,2.11-3.25,3.98-5.48,5.48-2.17,1.45-4.61,2.46-7.15,2.96-2.59.51-5.24.51-7.78,0-2.57-.51-4.98-1.52-7.15-2.96-2.12-1.41-3.98-3.24-5.48-5.49-1.49-2.23-2.49-4.66-2.99-7.14-.5-2.59-.5-5.22,0-7.76Z"/>
      <path class="cls-2" d="M20.51.95c-1.28,0-2.57.12-3.83.37-2.52.5-4.9,1.49-7.05,2.92-2.15,1.44-3.96,3.25-5.37,5.39-1.44,2.15-2.44,4.52-2.93,7.06h0c-.5,2.55-.5,5.11,0,7.65.5,2.52,1.47,4.89,2.93,7.04,1.41,2.15,3.22,3.96,5.37,5.39,2.15,1.44,4.53,2.43,7.07,2.92,2.51.51,5.08.51,7.62,0,2.51-.5,4.9-1.49,7.05-2.93,2.15-1.43,3.96-3.25,5.4-5.39,1.41-2.15,2.41-4.52,2.91-7.06.52-2.54.52-5.11,0-7.64-.5-2.52-1.47-4.89-2.91-7.04-1.42-2.13-3.27-4-5.4-5.4-2.15-1.43-4.53-2.41-7.05-2.92-1.28-.25-2.57-.37-3.83-.37h0ZM20.54,40.69c-1.34,0-2.65-.13-3.96-.39-2.62-.52-5.06-1.53-7.28-3.02-2.2-1.47-4.09-3.35-5.55-5.56-1.49-2.22-2.51-4.66-3.01-7.27-.52-2.61-.52-5.26,0-7.87h0c.52-2.62,1.52-5.07,3.01-7.28,1.47-2.21,3.33-4.08,5.55-5.56,2.23-1.48,4.66-2.49,7.26-3.01,2.62-.52,5.27-.52,7.89,0,2.62.52,5.08,1.53,7.28,3.01,2.17,1.45,4.09,3.37,5.55,5.57,1.49,2.22,2.52,4.66,3.01,7.26.52,2.62.52,5.27,0,7.88-.52,2.62-1.52,5.07-3.01,7.28-1.47,2.21-3.33,4.08-5.55,5.55-2.23,1.49-4.66,2.49-7.26,3.02-1.31.26-2.62.39-3.93.39Z"/>
      <path class="cls-3" d="M22.82.44c.55.06,1.1.15,1.65.26,2.57.51,5.06,1.53,7.28,3.02l.13.09c.11.09.18.22.13.37-.29,1.61-.76,3.33-1.41,5.13-.03.11-.11.18-.21.23-.13.03-.21.03-.31-.03-1.2-.76-2.49-1.43-3.85-2.02h0c-.94-.4-1.86-.75-2.78-1.03-.21-.06-.31-.27-.26-.46.58-1.95-.08-3.53-.76-5.02-.05-.12-.03-.26.05-.37.08-.11.21-.17.34-.15Z"/>
      <path class="cls-2" d="M22.77.74s-.03,0-.03.03c.6,1.46,1.36,3.2.76,5.3-.03.03,0,.07.03.08.94.29,1.89.64,2.8,1.04,1.39.59,2.67,1.28,3.9,2.04l.08-.03c.63-1.76,1.13-3.47,1.42-5.08l-.16-.16c-2.17-1.45-4.58-2.45-7.18-2.96-.52-.11-1.07-.19-1.6-.26h-.03ZM30.26,9.86c-.13,0-.24-.03-.34-.1-1.21-.76-2.49-1.43-3.83-2-.92-.39-1.83-.74-2.75-1.02-.34-.1-.55-.49-.45-.84.55-1.88-.13-3.44-.73-4.81-.1-.23-.08-.48.05-.68.16-.19.39-.3.63-.27h0c.55.06,1.13.15,1.68.26,2.65.53,5.14,1.57,7.39,3.07l.13.09c.24.15.34.42.29.69-.31,1.64-.79,3.38-1.42,5.17-.08.19-.24.34-.42.41-.08.03-.16.04-.23.04Z"/>
      <path class="cls-3" d="M5.48,7.03c1.1-1.24,2.38-2.35,3.83-3.32,2.25-1.52,4.74-2.51,7.26-3.02,1.42-.28,2.83-.41,4.24-.39.16,0,.26.09.31.24.1.24.24.49.34.73.6,1.35,1.23,2.77.73,4.44-.05.19-.24.3-.45.26-3.9-.96-7.76-.99-11.11-.2-1.7.4-3.3,1.02-4.72,1.83-.16.09-.37.06-.47-.09-.11-.14-.11-.35.03-.48Z"/>
      <path class="cls-2" d="M5.69,7.23s-.03.06,0,.09c.03.02.05.02.08,0,1.44-.82,3.04-1.44,4.79-1.85,3.48-.83,7.39-.76,11.27.19.05.01.08,0,.08-.04.47-1.57-.16-2.92-.73-4.23-.1-.25-.21-.5-.31-.75-1.47-.06-2.88.07-4.22.34-2.57.51-4.98,1.51-7.18,2.97-1.39.93-2.65,2.03-3.77,3.27h0ZM5.74,7.96c-.21,0-.39-.09-.52-.25-.21-.26-.21-.63.03-.88h0c1.15-1.28,2.44-2.41,3.88-3.37,2.25-1.5,4.74-2.54,7.39-3.06C17.92.12,19.36-.02,20.8,0c.26,0,.5.17.6.42.1.24.21.48.34.73.6,1.35,1.26,2.87.76,4.65-.11.35-.47.56-.84.47-3.77-.93-7.57-1-10.98-.19-1.68.39-3.22,1-4.61,1.79-.1.06-.21.09-.34.09Z"/>
      <path class="cls-3" d="M.71,16.57c.18-1.02.47-2.01.84-2.98v-.04c1.73-3.46,5.14-5.79,9.33-6.78,3.09-.73,6.63-.72,10.24.11.13.03.24.11.26.22.05.11.05.24-.03.34-1.94,3-5.71,5.05-9.25,6.98-1.73.95-3.43,1.87-4.85,2.87-2.02,1.43-3.33,3.34-4.22,5.41-.5,1.17-.86,2.39-1.15,3.61-.05.16-.18.28-.37.29-.16,0-.31-.11-.37-.27-.18-.61-.31-1.24-.45-1.86-.52-2.63-.52-5.31,0-7.89Z"/>
      <path class="cls-2" d="M15.61,6.54c-1.62,0-3.2.17-4.69.53-4.24,1-7.47,3.36-9.09,6.61-.37,1-.63,1.95-.84,2.95h0c-.5,2.58-.5,5.2,0,7.77.13.61.29,1.23.47,1.83,0,.04.03.05.05.05.03,0,.05-.02.05-.05.34-1.39.73-2.59,1.18-3.66,1.05-2.4,2.46-4.21,4.35-5.55,1.41-1,3.06-1.9,4.82-2.87,3.61-1.96,7.28-3.96,9.17-6.89l.03-.4-.05.3c-1.83-.43-3.67-.63-5.45-.63h0ZM1.52,26.9c-.31,0-.58-.19-.65-.48-.18-.63-.34-1.27-.47-1.89-.52-2.65-.52-5.34,0-8.01H.39c.21-1.02.5-2.01.86-3.02,1.73-3.5,5.11-5.97,9.54-7.02,3.22-.75,6.81-.72,10.4.11.24.05.39.2.47.41.11.21.08.43-.05.62-1.99,3.06-5.74,5.1-9.35,7.07-1.78.98-3.43,1.88-4.82,2.86-1.78,1.27-3.12,2.99-4.11,5.28-.45,1.05-.81,2.21-1.15,3.56-.05.3-.31.51-.63.52h-.03Z"/>
      <path class="cls-3" d="M9.48,37.43l-.21-.12c-2.12-1.43-4.03-3.3-5.55-5.57-.5-.76-.97-1.55-1.34-2.34-.05-.08-.05-.16-.05-.24.37-2.01.81-4.13,1.65-6.06.81-1.91,2.02-3.67,3.88-4.98,1.36-.96,3.04-1.88,4.74-2.81,3.83-2.09,7.91-4.32,9.9-7.79.11-.15.26-.22.42-.17.97.29,1.94.64,2.88,1.05h0c1.44.62,2.78,1.34,4.01,2.14.16.1.21.29.16.45-1.23,3.01-2.93,6.21-5.16,9.56-3.56,5.4-8.46,11.12-14.88,16.84-.13.11-.31.13-.45.03Z"/>
      <path class="cls-2" d="M9.64,37.17s.05.02.08,0c6.05-5.39,11.06-11.03,14.86-16.78,2.12-3.22,3.85-6.41,5.11-9.51,0-.02,0-.05-.03-.07-1.26-.8-2.57-1.51-3.96-2.11-.94-.4-1.89-.75-2.86-1.04-.03-.01-.05,0-.08.03-2.02,3.54-6.08,5.75-10.01,7.9-1.73.94-3.35,1.83-4.72,2.79-1.65,1.16-2.88,2.74-3.77,4.85-.84,1.92-1.28,4.02-1.62,6,.39.84.84,1.62,1.34,2.35,1.47,2.19,3.3,4.03,5.48,5.48l.18.12h0ZM9.69,37.8c-.13,0-.26-.04-.39-.11h0l-.18-.13c-2.25-1.49-4.14-3.4-5.66-5.66-.5-.76-.97-1.55-1.36-2.37-.05-.13-.08-.27-.05-.42.37-2.01.81-4.15,1.65-6.14.94-2.21,2.25-3.89,3.98-5.11,1.39-.98,3.04-1.88,4.79-2.84,3.85-2.09,7.81-4.27,9.77-7.66.16-.28.5-.41.79-.31,1,.3,1.96.66,2.91,1.07,1.41.61,2.78,1.34,4.06,2.16.26.17.37.52.24.83-1.26,3.13-2.99,6.36-5.16,9.61-3.83,5.8-8.86,11.48-14.93,16.91-.13.11-.29.17-.45.17Z"/>
      <path class="cls-3" d="M38.59,29.52c-.39.77-.79,1.48-1.28,2.22-1.44,2.15-3.3,4.05-5.56,5.57-.45.3-.92.57-1.36.83-.34.19-.71-.23-.47-.55,2.91-3.96,3.67-8.26,4.4-12.25.5-2.74.97-5.33,2.1-7.51.13-.25.5-.27.63-.02.08.09.13.2.18.29,2.12,3.7,2.73,7.75,1.39,11.37,0,.02-.03.03-.03.04Z"/>
      <path class="cls-2" d="M36.42,17.83l.26.15c-1.1,2.14-1.57,4.7-2.07,7.41-.71,3.91-1.49,8.35-4.45,12.38,0,.02-.03.04,0,.08.03.04.08.03.08.02.45-.25.92-.53,1.34-.82,2.2-1.46,4.04-3.3,5.48-5.48.45-.66.81-1.31,1.28-2.19l.26.14-.26-.13.26.13-.26-.16c1.26-3.42.79-7.36-1.36-11.11l-.18-.29-.37-.14h0ZM30.21,38.49c-.18,0-.37-.08-.5-.23-.23-.24-.23-.59-.05-.85,2.86-3.91,3.61-8.08,4.35-12.12.5-2.76.97-5.36,2.12-7.59.13-.22.34-.35.6-.36.24-.03.47.11.6.33l.16.3c2.25,3.9,2.75,8.03,1.41,11.64,0,0-.03.06-.03.07-.47.89-.86,1.58-1.31,2.25-1.49,2.24-3.41,4.14-5.66,5.65-.45.3-.89.57-1.36.84-.11.06-.24.09-.34.09Z"/>
      <path class="cls-3" d="M39.9,14.85c.18.56.31,1.14.42,1.71.37,1.79.47,3.62.34,5.41,0,.18-.16.33-.34.35-.18.01-.34-.1-.39-.29-.37-1.5-.97-3-1.81-4.44-.21-.34-.42-.69-.63-1.02-.11-.14-.08-.32.03-.45.58-.68,1.18-1.11,1.86-1.5.08-.06.21-.06.31-.02.11.04.18.12.21.24Z"/>
      <path class="cls-2" d="M39.59,14.89c-.6.32-1.26.74-1.83,1.44.21.42.42.76.63,1.1.86,1.48,1.47,3,1.86,4.53,0,.03.03.05.05.04.03,0,.05-.03.05-.06.13-1.78.03-3.58-.31-5.33-.11-.56-.26-1.13-.42-1.69,0-.02-.03-.03-.03-.04h0ZM40.3,22.63c-.32,0-.58-.21-.66-.51-.37-1.47-.97-2.94-1.78-4.37-.21-.34-.39-.68-.63-1.01-.16-.25-.16-.57.05-.81.65-.77,1.34-1.22,1.94-1.56.18-.11.39-.13.58-.04.21.08.34.24.42.43h0c.16.57.31,1.16.42,1.74.37,1.81.47,3.66.34,5.5-.03.33-.29.6-.63.63h-.05Z"/>
      <path class="cls-3" d="M33.46,5c1.47,1.21,2.75,2.64,3.85,4.28.81,1.23,1.49,2.51,2.02,3.84.08.17,0,.37-.16.46-.79.42-1.49.87-2.15,1.58-.16.17-.45.16-.58-.03-1.34-1.69-2.96-3.26-4.87-4.64-.16-.1-.21-.28-.13-.44.63-1.69,1.1-3.31,1.42-4.85.05-.13.13-.23.26-.28.13-.04.26-.02.34.07Z"/>
      <path class="cls-2" d="M36.68,14.94s.11,0,.11,0h0c.68-.72,1.39-1.18,2.23-1.64.03-.02.03-.04.03-.08-.52-1.32-1.21-2.59-1.99-3.77-1.05-1.59-2.33-3.01-3.77-4.23-.03-.02-.05-.02-.08,0-.37,1.62-.86,3.26-1.47,4.94,1.94,1.46,3.59,3.04,4.95,4.78h0ZM36.73,15.59h-.03c-.18,0-.37-.1-.5-.26-1.34-1.69-2.96-3.23-4.82-4.59-.26-.18-.37-.5-.26-.78.63-1.65,1.1-3.27,1.44-4.82.05-.24.21-.42.45-.5.24-.08.47-.04.65.12h0c1.49,1.25,2.8,2.71,3.9,4.35.81,1.23,1.49,2.53,2.04,3.89.1.32-.03.68-.31.84-.79.43-1.44.86-2.07,1.52-.13.14-.31.22-.5.22Z"/>
      <path class="cls-3" d="M26.54,39.8c-.6.22-1.41.4-2.07.53-2.62.52-5.32.51-7.89,0-1.91-.38-3.75-1.02-5.48-1.94-.11-.06-.18-.16-.21-.28,0-.13.03-.24.13-.32,6.26-5.66,11.11-11.32,14.65-16.66,2.17-3.26,3.85-6.41,5.08-9.38.05-.11.13-.18.24-.22.13-.03.24,0,.34.06,1.81,1.36,3.35,2.91,4.58,4.55.11.13.11.29.03.42-1.52,2.48-2.07,5.43-2.65,8.59-.86,4.84-1.83,10.15-6.76,14.64Z"/>
      <path class="cls-2" d="M26.54,39.8h.03-.03ZM30.76,11.75l.29.12c-1.28,3.08-3.01,6.25-5.11,9.43-3.8,5.72-8.73,11.34-14.7,16.71v.11c1.7.89,3.51,1.53,5.4,1.9,2.59.51,5.19.51,7.78,0,.84-.16,1.49-.33,1.96-.5,4.82-4.41,5.76-9.73,6.63-14.42.58-3.18,1.1-6.17,2.67-8.7-1.23-1.72-2.78-3.23-4.53-4.56l-.39-.1h0ZM20.54,41.02c-1.36,0-2.7-.13-4.03-.4-1.94-.38-3.8-1.04-5.55-1.97-.18-.09-.31-.28-.34-.51-.03-.23.05-.44.21-.59,5.92-5.33,10.85-10.92,14.59-16.59,2.1-3.15,3.8-6.29,5.06-9.34.08-.2.24-.34.45-.39.21-.05.42-.02.6.11,1.81,1.36,3.38,2.92,4.66,4.61.16.23.18.53.03.76-1.49,2.43-2.04,5.37-2.59,8.48-.86,4.81-1.86,10.27-6.86,14.82-.03.03-.08.05-.1.06-.5.18-1.21.37-2.12.55-1.31.26-2.65.39-3.98.39Z"/>
      <path class="cls-1" d="M31.96,4.54c-.31,1.5-.76,3.09-1.36,4.76-.03.11-.11.18-.21.23-.13.03-.21.03-.31-.03-1.2-.76-2.49-1.43-3.85-2.02h0c-.94-.4-1.86-.75-2.78-1.03-.21-.06-.31-.27-.26-.46.47-1.52.16-2.82-.34-4.03,3.35,0,6.47.95,9.12,2.58Z"/>
      <path class="cls-2" d="M23.32,2.27c.37,1.06.6,2.32.18,3.8-.03.03,0,.07.03.08.94.29,1.89.64,2.8,1.04,1.39.59,2.67,1.28,3.9,2.04l.08-.03c.58-1.56,1-3.07,1.31-4.51-2.52-1.5-5.37-2.33-8.31-2.42h0ZM30.26,9.86c-.13,0-.24-.03-.34-.1-1.21-.76-2.49-1.43-3.83-2-.92-.39-1.83-.74-2.75-1.02-.34-.1-.55-.49-.45-.84.45-1.5.08-2.78-.31-3.82-.05-.1-.03-.21.03-.29.05-.09.16-.14.24-.14h0c3.3,0,6.5.92,9.27,2.63.1.06.16.19.13.32-.29,1.53-.76,3.15-1.34,4.81-.08.19-.24.34-.42.41-.08.03-.16.04-.23.04Z"/>
      <path class="cls-1" d="M21.77,1.99c.47,1.14.84,2.36.42,3.73-.05.19-.24.3-.45.26-3.25-.81-6.47-.96-9.41-.52,2.65-2,5.9-3.26,9.43-3.47Z"/>
      <path class="cls-2" d="M15.61,4.9c2.04,0,4.14.26,6.21.76.05.01.08,0,.08-.04.37-1.22.08-2.31-.34-3.32-2.88.21-5.63,1.13-8.04,2.7.68-.06,1.39-.1,2.1-.1h0ZM21.85,6.29c-.05,0-.11,0-.18-.02-3.12-.77-6.34-.95-9.3-.51-.13.02-.26-.06-.31-.19-.05-.13-.03-.28.08-.36,2.8-2.09,6.13-3.31,9.62-3.52.13-.01.26.07.31.19.47,1.16.86,2.45.45,3.93-.11.3-.37.49-.65.49Z"/>
      <path class="cls-1" d="M10.74,6.8l.13-.03c3.09-.73,6.63-.72,10.24.11.13.03.24.11.26.22.05.11.05.24-.03.34-1.94,3-5.71,5.05-9.25,6.98-1.73.95-3.43,1.87-4.85,2.87-.73.51-1.36,1.1-1.91,1.71.11-4.79,2.17-9.11,5.4-12.2Z"/>
      <path class="cls-2" d="M10.9,7.08c-3.07,2.96-4.9,6.88-5.21,11.12.45-.43.92-.82,1.42-1.17,1.41-1,3.06-1.9,4.82-2.86,3.59-1.97,7.28-3.97,9.17-6.9l.03-.4-.05.3c-3.51-.81-7-.84-10.14-.1h-.03ZM5.34,19.31s-.08,0-.1-.03c-.13-.04-.21-.16-.21-.29.13-4.74,2.07-9.14,5.5-12.42.03-.03.08-.06.13-.08l.13-.03c3.22-.75,6.81-.72,10.4.11.21.05.39.19.47.4.11.22.08.44-.05.63-1.99,3.06-5.74,5.1-9.35,7.07-1.78.98-3.43,1.88-4.82,2.86-.68.48-1.31,1.04-1.86,1.67-.05.07-.16.1-.24.1Z"/>
      <path class="cls-1" d="M5.37,20.59c.68-.93,1.49-1.76,2.49-2.48,1.36-.96,3.04-1.88,4.74-2.81,3.83-2.09,7.91-4.32,9.9-7.79.11-.15.26-.22.42-.17.97.29,1.94.64,2.88,1.05h0c1.44.62,2.78,1.34,4.01,2.14.16.1.21.29.16.45-1.23,3.01-2.93,6.21-5.16,9.56-2.88,4.38-6.65,8.97-11.4,13.6-4.56-2.9-7.65-7.87-8.04-13.56Z"/>
      <path class="cls-2" d="M5.69,20.68c.39,5.29,3.25,10.15,7.68,13.08,4.43-4.34,8.2-8.85,11.21-13.38,2.12-3.22,3.85-6.41,5.11-9.51,0-.02,0-.05-.03-.07-1.26-.8-2.57-1.51-3.96-2.11-.94-.4-1.89-.76-2.86-1.04-.03-.01-.05,0-.08.03-2.02,3.54-6.08,5.75-10.01,7.9-1.73.94-3.35,1.83-4.72,2.79-.89.63-1.7,1.41-2.36,2.31h0ZM13.41,34.47c-.05,0-.13-.02-.18-.05-4.74-3.03-7.78-8.19-8.15-13.8-.03-.07,0-.14.05-.2.71-1,1.57-1.85,2.54-2.55,1.39-.98,3.04-1.88,4.79-2.84,3.85-2.09,7.81-4.27,9.77-7.66.16-.28.47-.41.79-.31.97.3,1.96.66,2.91,1.07,1.41.62,2.78,1.34,4.06,2.16.26.17.37.52.24.83-1.26,3.13-2.99,6.36-5.16,9.61-3.07,4.63-6.92,9.22-11.45,13.66-.05.05-.13.09-.21.09Z"/>
      <path class="cls-1" d="M31.81,34.42c1.41-3.02,1.99-6.14,2.52-9.08.5-2.74.97-5.33,2.1-7.51.13-.25.5-.27.63-.02.08.09.13.2.18.29,1.31,2.27,2.04,4.68,2.1,7.03-1.36,3.91-4.03,7.19-7.52,9.28Z"/>
      <path class="cls-2" d="M36.42,17.83l.26.15c-1.1,2.14-1.57,4.7-2.07,7.41-.47,2.69-.97,5.46-2.12,8.21,3.01-2.07,5.32-5.05,6.52-8.51-.05-2.25-.76-4.62-2.04-6.83l-.18-.3-.37-.14h0ZM31.81,34.73c-.08,0-.16-.03-.21-.08-.11-.1-.13-.24-.08-.37,1.41-2.98,1.96-6.04,2.49-9,.5-2.76.97-5.36,2.12-7.59.1-.22.34-.35.6-.36.24,0,.47.12.6.33l.16.28c1.36,2.35,2.1,4.83,2.15,7.2,0,.04,0,.07-.03.11-1.36,3.94-4.09,7.29-7.65,9.44-.05.03-.1.04-.16.04Z"/>
      <path class="cls-1" d="M40.06,22.24c-.05-.04-.1-.11-.13-.2-.37-1.5-.97-3-1.81-4.44-.21-.34-.42-.69-.63-1.02-.11-.14-.08-.32.03-.45.58-.68,1.18-1.11,1.86-1.5.05-.04.13-.06.24-.04.45,1.54.68,3.16.68,4.84,0,.96-.08,1.89-.24,2.81Z"/>
      <path class="cls-2" d="M39.4,14.99c-.55.31-1.13.72-1.65,1.35.21.42.42.76.63,1.1.65,1.12,1.15,2.27,1.55,3.42.03-.48.05-.96.05-1.43,0-1.51-.21-3-.58-4.44h0ZM40.06,22.55c-.08,0-.13-.03-.18-.07-.13-.09-.21-.22-.24-.36-.37-1.47-.97-2.94-1.78-4.37-.21-.34-.39-.68-.63-1.01-.16-.25-.16-.57.05-.81.65-.77,1.34-1.22,1.94-1.56.13-.08.26-.11.42-.09.13.02.24.1.26.22.47,1.6.68,3.25.68,4.93,0,.96-.08,1.91-.21,2.86-.03.11-.11.2-.21.24-.03.02-.08.03-.11.03Z"/>
      <path class="cls-1" d="M39.25,13.5s-.05.06-.08.08c-.79.42-1.49.87-2.15,1.58-.16.17-.45.16-.58-.03-1.34-1.69-2.96-3.26-4.87-4.64-.16-.1-.21-.28-.13-.44.63-1.69,1.1-3.31,1.42-4.85.03-.02.03-.04.03-.06,2.91,2.05,5.14,4.95,6.37,8.35Z"/>
      <path class="cls-2" d="M36.68,14.94s.11,0,.11,0c.65-.69,1.31-1.13,2.1-1.57-1.15-3.08-3.14-5.74-5.79-7.71-.34,1.45-.81,2.96-1.36,4.49,1.94,1.46,3.59,3.04,4.95,4.78h0ZM36.73,15.59h-.03c-.18,0-.39-.1-.5-.26-1.34-1.69-2.96-3.24-4.82-4.59-.26-.18-.37-.5-.26-.78.63-1.65,1.1-3.27,1.44-4.82,0-.02.03-.1.03-.11.05-.09.11-.16.21-.18.08-.03.18,0,.26.04,2.99,2.12,5.24,5.06,6.47,8.5.05.1.03.23-.05.31-.05.05-.1.11-.18.14-.79.43-1.44.86-2.07,1.52-.13.14-.31.22-.5.22Z"/>
      <path class="cls-1" d="M14.31,34.7c4.72-4.62,8.49-9.21,11.37-13.58,2.17-3.26,3.85-6.41,5.08-9.38.05-.11.13-.18.24-.22.13-.03.24,0,.34.06,1.81,1.36,3.35,2.91,4.58,4.55.11.13.11.29.03.42-1.52,2.48-2.07,5.43-2.65,8.59-.58,3.29-1.23,6.8-3.12,10.12-2.23,1.04-4.74,1.62-7.36,1.62-3.09,0-6-.8-8.52-2.2Z"/>
      <path class="cls-2" d="M14.83,34.62c2.46,1.29,5.19,1.97,7.99,1.97,2.49,0,4.9-.53,7.15-1.56,1.83-3.24,2.44-6.64,3.04-9.93.58-3.18,1.1-6.17,2.67-8.7-1.23-1.72-2.78-3.23-4.53-4.56l-.39-.1.29.12c-1.28,3.08-3.01,6.25-5.11,9.43-2.99,4.51-6.73,9-11.11,13.32h0ZM22.82,37.21c-3.04,0-6.03-.78-8.65-2.25-.1-.05-.16-.13-.16-.23-.03-.09,0-.19.08-.26,4.48-4.39,8.3-8.94,11.32-13.51,2.1-3.15,3.8-6.29,5.06-9.34.08-.2.24-.34.45-.39.21-.05.42-.02.6.11,1.81,1.36,3.38,2.92,4.66,4.61.16.23.18.53.03.76-1.49,2.43-2.04,5.37-2.59,8.48-.6,3.38-1.23,6.86-3.17,10.22-.03.06-.08.1-.13.13-2.36,1.1-4.87,1.66-7.49,1.66Z"/>
    </g>
  </g>
</svg>