<?xml version="1.0" encoding="UTF-8"?>
<svg id="Layer_2" data-name="Layer 2" xmlns="http://www.w3.org/2000/svg" viewBox="0 0 30.99 41.7" fill="currentColor">
  <defs>
    <style>
      .cls-1 {
        fill: #fff;
      }

      .cls-1, .cls-2, .cls-3, .cls-4 {
        fill-rule: evenodd;
      }

      .cls-2 {
        fill: #1a87c7;
      }

      .cls-3 {
        fill: #bdedf8;
      }

      .cls-4 {
        fill: #66ceef;
      }
    </style>
  </defs>
  <g id="_Layer_" data-name="&amp;lt;Layer&amp;gt;">
    <g>
      <path class="cls-4" d="M12.25,22.35L.31,15.46v18.39c0,.25.04.43.26.58l11.93,6.89-.06-.04c-.17-.16-.19-.31-.2-.54v-18.4Z"/>
      <path class="cls-2" d="M.62,15.99v17.86c.01.21.04.27.13.33l11.19,6.46v-18.12S.62,15.99.62,15.99h0ZM12.5,41.64s-.1-.01-.15-.04L.42,34.71c-.35-.24-.41-.54-.42-.84V15.46c0-.11.06-.21.16-.27.09-.06.21-.06.31,0l11.93,6.89c.1.05.16.16.16.26v18.4c0,.18.02.23.09.31h0c.14.11.18.29.1.43-.06.09-.16.15-.26.15Z"/>
      <path class="cls-3" d="M30.46,7.24L18.47.37c-.24-.11-.42-.05-.64.06L1.22,10.01c-.3.19-.46.38-.63.68l11.93,6.89c.18-.3.35-.49.64-.68l15.37-8.87,1.24-.72c.23-.12.45-.2.69-.08Z"/>
      <path class="cls-2" d="M1.02,10.59l11.4,6.58c.15-.2.31-.36.57-.52L29.57,7.08,18.32.64c-.09-.04-.15-.04-.35.07L1.37,10.28c-.14.09-.25.18-.36.31h0ZM12.52,17.89c-.05,0-.1-.01-.16-.04L.42,10.95c-.07-.04-.13-.11-.15-.19-.02-.08,0-.17.03-.24.19-.31.38-.54.74-.77L17.68.16c.28-.14.56-.24.92-.08l12.01,6.88c.15.08.2.27.12.41-.08.15-.25.21-.41.14-.09-.05-.2-.03-.41.08l-16.6,9.58c-.22.14-.36.29-.53.57-.05.09-.16.15-.26.15Z"/>
      <path class="cls-4" d="M.31,11.52v3.94l11.93,6.89v-3.94c.02-.35.1-.58.27-.89L.6,10.65c-.16.3-.27.53-.29.88Z"/>
      <path class="cls-2" d="M.62,15.28l11.33,6.54v-3.4c.02-.31.08-.54.18-.77L.73,11.08c-.07.15-.1.28-.11.45v3.75h0ZM12.25,22.66c-.05,0-.11-.01-.15-.04L.16,15.73c-.1-.06-.16-.16-.16-.27v-3.94s0,0,0-.01c.02-.41.14-.68.32-1.01.04-.07.1-.13.19-.15.08-.02.17-.01.24.03l11.92,6.88c.14.08.19.26.11.41-.14.25-.22.45-.23.75v3.92c0,.11-.06.21-.16.27-.05.03-.09.04-.16.04Z"/>
      <path class="cls-1" d="M12.25,22.35v18.39c0,.28.1.49.26.58.16.09.39.08.64-.06l16.61-9.58c.25-.14.48-.39.64-.67.16-.28.26-.61.26-.89V11.72s-18.42,10.64-18.42,10.64Z"/>
      <path class="cls-2" d="M12.56,22.53v18.22c0,.16.03.27.1.32.07.04.19.02.33-.06l16.62-9.58c.19-.11.38-.31.52-.56.14-.25.23-.52.23-.74V12.25l-17.8,10.28h0ZM12.74,41.7c-.14,0-.27-.03-.38-.1-.27-.16-.42-.47-.42-.85v-18.39c0-.11.07-.21.17-.27l18.42-10.63c.09-.06.21-.06.31,0,.09.05.15.15.15.26v18.41c0,.33-.11.7-.31,1.04-.19.34-.46.62-.75.79l-16.62,9.58c-.18.11-.38.16-.56.16Z"/>
      <path class="cls-1" d="M12.25,18.66v3.69l18.43-10.64v-3.92c0-.29-.1-.49-.26-.58-.17-.1-.39-.08-.65.06l-1.24.71-15.19,8.76c-.1.06-.22.12-.31.19-.19.14-.37.35-.5.59-.27.47-.27.75-.27,1.13Z"/>
      <path class="cls-2" d="M30.17,7.45c-.07,0-.15.03-.24.08l-16.44,9.48c-.13.08-.22.12-.28.17-.16.12-.31.3-.42.5-.23.39-.23.62-.23.96v3.18l17.8-10.28v-3.74c0-.16-.03-.28-.1-.32-.03-.01-.05-.02-.09-.02h0ZM12.25,22.66c-.05,0-.11-.01-.15-.04-.09-.05-.16-.16-.16-.27v-3.69h.3-.3.3l-.3-.02c0-.38,0-.73.3-1.27.17-.27.37-.51.59-.68.09-.06.19-.13.28-.18L29.62,7c.33-.19.68-.21.94-.06.27.15.43.47.43.85v3.92c-.01.11-.06.21-.16.27l-18.43,10.64s-.09.04-.16.04Z"/>
      <path class="cls-4" d="M22.52,13.04c-.22-.12-.51-.11-.84.08-.33.19-.63.51-.84.88-.22.37-.35.79-.35,1.17s.13.64.35.76c.21.13.51.11.84-.08.32-.19.62-.51.84-.88h0c.21-.37.34-.79.34-1.16s-.12-.63-.33-.76h0Z"/>
      <path class="cls-2" d="M22.21,13.27c-.11,0-.23.04-.37.12-.26.15-.53.43-.72.77-.19.34-.3.7-.3,1.01,0,.25.07.43.19.5.12.07.31.04.53-.08.26-.15.53-.43.72-.77.19-.33.31-.7.31-1.01,0-.24-.07-.42-.18-.5l.15-.27-.16.27s-.1-.04-.16-.04h0ZM21.16,16.32c-.17,0-.32-.04-.46-.12-.32-.19-.5-.55-.5-1.03,0-.42.14-.89.39-1.32.25-.43.58-.78.95-.99.42-.24.82-.27,1.14-.08h.02c.31.2.49.56.49,1.03,0,.42-.14.89-.39,1.32-.24.44-.58.79-.95,1-.23.14-.46.2-.68.2Z"/>
      <path class="cls-4" d="M6.02,11.05c0,.68.45,1.37,1.35,1.89.9.52,2.1.78,3.28.78,1.18,0,2.36-.26,3.27-.78.9-.52,1.36-1.21,1.36-1.89s-.45-1.37-1.36-1.89c-.9-.52-2.09-.78-3.27-.78h0c-1.18,0-2.37.26-3.28.78-.89.51-1.34,1.18-1.35,1.86v.04Z"/>
      <path class="cls-2" d="M6.33,11.05c0,.6.43,1.17,1.2,1.62.83.48,1.93.74,3.12.74s2.28-.27,3.12-.74c.77-.45,1.2-1.02,1.2-1.62s-.43-1.17-1.2-1.62c-.84-.48-1.94-.74-3.12-.74-.01,0-.02,0-.03,0-1.17,0-2.27.27-3.09.74-.76.44-1.19,1.01-1.21,1.6l-.3.03h.31ZM10.65,14.03c-1.3,0-2.51-.29-3.44-.82-.96-.56-1.5-1.33-1.5-2.15v-.03c.02-.83.55-1.58,1.51-2.13.92-.53,2.13-.82,3.41-.82h.01c1.29,0,2.5.3,3.42.82.97.56,1.51,1.33,1.51,2.16s-.54,1.6-1.51,2.16c-.92.53-2.14.82-3.42.82Z"/>
      <path class="cls-4" d="M15.04,6.01c0,.68.45,1.37,1.36,1.89.9.52,2.09.78,3.27.78s2.37-.26,3.28-.78c.9-.52,1.35-1.2,1.35-1.89s-.45-1.37-1.35-1.89c-.9-.52-2.09-.78-3.28-.78h0c-1.18,0-2.36.26-3.27.78-.9.52-1.35,1.18-1.36,1.85v.04Z"/>
      <path class="cls-2" d="M15.34,6.01c0,.6.43,1.18,1.2,1.62.84.48,1.94.74,3.12.74s2.3-.26,3.12-.74c.77-.45,1.2-1.02,1.2-1.62s-.43-1.18-1.2-1.62c-.83-.48-1.94-.74-3.12-.74h-.03c-1.17,0-2.27.27-3.09.74-.76.44-1.19,1.01-1.21,1.6l-.3.03h.3ZM19.66,8.99c-1.29,0-2.5-.29-3.42-.83-.98-.56-1.5-1.33-1.51-2.15v-.03c.02-.83.56-1.58,1.51-2.13.92-.53,2.14-.83,3.42-.83,0,0,.03,0,.03,0,1.28,0,2.48.3,3.4.83.98.56,1.51,1.33,1.51,2.16s-.53,1.6-1.51,2.16c-.92.53-2.14.83-3.43.83Z"/>
      <polygon class="cls-4" points="15.86 27 15.85 36.28 27.78 29.4 27.78 20.12 15.86 27"/>
      <path class="cls-2" d="M16.17,27.18v8.57s11.3-6.53,11.3-6.53v-8.57s-11.3,6.53-11.3,6.53h0ZM15.85,36.59c-.05,0-.11-.01-.16-.04-.09-.05-.16-.16-.16-.27v-9.28c0-.11.07-.21.17-.27l11.92-6.88c.1-.06.21-.06.3,0,.1.05.16.16.16.26v9.28c0,.11-.06.21-.16.27l-11.92,6.88c-.05.03-.1.04-.16.04Z"/>
      <polygon class="cls-3" points="15.31 23.77 16.98 22.8 15.75 22.09 14.08 23.05 15.31 23.77"/>
      <path class="cls-2" d="M14.7,23.05l.62.36,1.05-.61-.62-.36-1.05.61h0ZM15.31,24.07c-.06,0-.11-.01-.16-.04l-1.23-.71c-.09-.06-.15-.15-.15-.26s.06-.21.15-.27l1.68-.97c.09-.06.21-.06.3,0l1.23.71c.09.06.16.16.16.27s-.06.21-.16.27l-1.68.96s-.1.04-.15.04Z"/>
      <polygon class="cls-4" points="15.31 23.77 15.31 24.73 14.08 24.02 14.08 23.05 15.31 23.77"/>
      <path class="cls-2" d="M14.39,23.84l.62.36v-.26l-.62-.36v.26h0ZM15.31,25.04c-.05,0-.11-.02-.16-.04l-1.23-.71c-.09-.05-.15-.15-.15-.26v-.97c0-.11.06-.21.15-.27.1-.05.22-.05.31,0l1.23.71c.09.05.16.16.16.27v.97c0,.11-.05.21-.15.27-.05.03-.1.04-.16.04Z"/>
      <polygon class="cls-3" points="28.2 16.32 29.88 15.35 28.65 14.64 26.98 15.61 28.2 16.32"/>
      <path class="cls-2" d="M27.59,15.61l.62.36,1.06-.61-.62-.36-1.06.61h0ZM28.2,16.63c-.05,0-.1-.01-.15-.04l-1.23-.71c-.1-.05-.16-.16-.16-.27s.06-.21.16-.27l1.67-.97c.09-.05.22-.05.31,0l1.23.71c.09.05.15.16.15.27s-.05.21-.15.27l-1.68.96s-.09.04-.16.04Z"/>
      <polygon class="cls-4" points="28.21 16.32 28.21 17.29 26.98 16.57 26.98 15.61 28.21 16.32"/>
      <path class="cls-2" d="M27.29,16.4l.61.36v-.26l-.61-.35v.25h0ZM28.21,17.59c-.06,0-.11-.02-.16-.04l-1.23-.71c-.1-.06-.16-.16-.16-.27v-.97c0-.11.06-.21.16-.27.09-.06.21-.06.3,0l1.23.71c.09.06.16.16.16.27v.97c0,.11-.06.21-.16.27-.04.03-.09.04-.15.04Z"/>
      <polygon class="cls-1" points="15.31 23.77 15.31 24.73 29.88 16.32 29.88 15.35 15.31 23.77"/>
      <path class="cls-2" d="M15.62,23.94v.25l13.95-8.05v-.25s-13.95,8.05-13.95,8.05h0ZM15.31,25.04c-.05,0-.11-.02-.16-.04-.09-.05-.15-.16-.15-.27v-.97c0-.11.06-.21.15-.27l14.57-8.41c.09-.06.22-.06.31,0,.09.05.15.16.15.27v.97c0,.11-.05.21-.15.27l-14.57,8.41s-.1.04-.15.04Z"/>
    </g>
  </g>
</svg>