<?xml version="1.0" encoding="UTF-8"?>
<svg id="Layer_2" data-name="Layer 2" xmlns="http://www.w3.org/2000/svg" viewBox="0 0 68.96 96.78" fill="currentColor">
  <defs>
    <style>
      .cls-1 {
        fill: #fff;
      }

      .cls-1, .cls-2, .cls-3, .cls-4 {
        fill-rule: evenodd;
      }

      .cls-2 {
        fill: #1a87c7;
      }

      .cls-3 {
        fill: #bdedf8;
      }

      .cls-4 {
        fill: #66ceef;
      }
    </style>
  </defs>
  <g id="_Layer_" data-name="&amp;lt;Layer&amp;gt;">
    <g>
      <path class="cls-1" d="M46.64,55.39c2.52-2.44,4.61-6.89,6.55-10.94,2.73-5.54,2.57-11.85,2.62-16.95l-.94-3.02c-.31-1.25-.37-2.57-.37-3.84-.05-1.65-.05-3.19-.89-3.96-1.36-1.25-3.56.66-6.08,2.9-1.73,1.52-3.62,3.18-5.66,4.36-2.62,1.52-8.12,2.43-10.01,4.03-1.89,1.6-1.83,2.9-1.78,5.19,0,2.17.16,4.3-1.2,8.91-.31-2.47-1.52-6.49-4.51-6.91-3.62-.5-4.82,4.03-4.14,6.88.31,1.54,1.21,3.33,1.94,4.65.21.43-.1,1.58-.31,2.22,4.87,5.49,11.9,9.25,17.5,9.25,2.51,0,5.45-1.02,7.28-2.77Z"/>
      <path class="cls-2" d="M22.58,48.76c4.72,5.27,11.48,8.78,16.77,8.78h0c2.46,0,5.24-1.05,6.81-2.6h0c2.31-2.2,4.25-6.14,6.08-9.94l.42-.82c2.46-5.09,2.52-11.01,2.52-15.78v-.81l-.89-2.93c-.37-1.36-.37-2.77-.42-4.01,0-1.5-.05-2.91-.68-3.52-1-.88-3.04.96-5.24,2.9-1.73,1.53-3.67,3.23-5.76,4.43-1.26.73-3.09,1.31-4.87,1.87-2.04.64-4.09,1.3-5.08,2.11-1.57,1.36-1.57,2.41-1.57,4.5v.57c.05,2.11.11,4.29-1.15,8.74-.11.28-.37.47-.68.45-.26-.02-.52-.24-.52-.53-.21-1.39-1.1-5.97-3.98-6.38-1-.14-1.78.14-2.41.82-1.2,1.31-1.47,3.71-1.1,5.31.26,1.17.89,2.68,1.89,4.49.26.46.21,1.25-.1,2.36h0ZM39.35,58.78c-5.71,0-12.94-3.8-17.92-9.46-.16-.16-.21-.39-.16-.59.31-.95.37-1.6.31-1.76-1-1.9-1.68-3.51-1.94-4.79-.47-1.95-.11-4.77,1.36-6.41.89-.98,2.1-1.39,3.46-1.2,2.52.35,3.77,2.8,4.46,4.88.58-2.7.58-4.33.52-5.91v-.57c-.05-2.16-.05-3.71,1.99-5.45,1.15-.95,3.25-1.62,5.5-2.34,1.73-.54,3.51-1.11,4.61-1.76,1.99-1.14,3.77-2.73,5.55-4.27,2.72-2.44,5.14-4.54,6.86-2.91,1.1.95,1.1,2.63,1.15,4.4,0,1.17.05,2.5.37,3.69l.89,3c0,.06.05.12.05.18l-.05.9c0,4.89,0,10.97-2.62,16.31l-.42.82c-1.89,3.9-3.88,7.94-6.29,10.29-1.83,1.78-4.87,2.94-7.7,2.94h0Z"/>
      <path class="cls-1" d="M18.55,55.04c.47-.64,1.94-2.14,2.31-2.81.79-1.33.79-1.84.94-3.41,6.71,7.76,22.48,12.32,28.56,1.3h0c1.73,4.09-3.2,11.97-9.43,14.31-4.61,1.72-11.63.65-15.2-2.58l-6.02-5.49-1.15-1.33Z"/>
      <path class="cls-2" d="M19.34,55.02l.84.93,5.97,5.44c3.25,2.99,10.06,4.14,14.57,2.47,3.51-1.31,6.92-4.68,8.54-8.4.58-1.37.84-2.65.79-3.72-2.15,3.16-5.45,5.04-9.48,5.47-6.13.65-13.57-2.25-18.29-6.97-.11.75-.31,1.35-.89,2.31-.26.48-.94,1.21-1.57,1.92-.16.2-.31.39-.47.56h0ZM35.95,65.88c-3.98,0-8.17-1.3-10.64-3.57l-6.03-5.49-1.21-1.37c-.21-.22-.21-.55-.05-.79.21-.24.52-.61.89-1.01.52-.6,1.2-1.36,1.41-1.72.63-1.07.68-1.51.79-2.68l.05-.48c.05-.25.21-.45.42-.52.26-.08.52,0,.68.18,4.35,5.03,12,8.22,18.18,7.56,4.14-.43,7.39-2.56,9.33-6.15.16-.2.37-.33.58-.31.26.01.47.16.58.38.63,1.59.47,3.74-.52,6.06-1.73,4-5.45,7.64-9.28,9.07-1.57.58-3.35.85-5.19.85Z"/>
      <path class="cls-4" d="M15.72,13.75c-4.51,8.2-1.68,30.63,6.03,35.5.16-.41.68-2.03.42-2.56-.73-1.32-1.62-3.11-1.94-4.65-1.68-7.39,7.13-10.86,8.65.03,1.36-4.61,1.2-6.74,1.2-8.91-.05-2.29-.1-3.59,1.78-5.19,1.89-1.6,7.39-2.51,10.01-4.03,2.04-1.18,3.93-2.83,5.66-4.36,2.52-2.24,4.72-4.15,6.08-2.9.84.78.84,2.31.89,3.96,0,1.27.05,2.59.37,3.84l.94,3.02c.26-3.99.16-8.61-.37-12.4-1.1-7.33-4.35-7.6-13.41-12.38-1.42-.77-3.3-2.03-6.08-2.11-6.81-.22-16.87,7.71-20.23,13.13Z"/>
      <path class="cls-2" d="M16.19,14.06c-4.14,7.71-1.68,28.68,5.24,34.2.16-.56.21-1.12.16-1.29-1-1.9-1.68-3.51-1.94-4.79-.63-2.65,0-5.18,1.62-6.61,1.15-1.01,2.67-1.31,4.03-.81.99.38,2.62,1.47,3.62,4.63.58-2.67.58-4.29.52-5.87v-.57c-.05-2.16-.05-3.71,1.99-5.45,1.15-.95,3.25-1.62,5.5-2.34,1.73-.54,3.51-1.11,4.61-1.76,1.99-1.14,3.77-2.73,5.55-4.27,2.72-2.44,5.14-4.54,6.86-2.91,1.1.95,1.1,2.63,1.15,4.4,0,.96.05,2.02.21,3.03,0-3.02-.16-5.97-.52-8.46-.84-5.79-3.04-6.9-9.01-9.85-1.15-.6-2.52-1.27-4.03-2.07l-.63-.34c-1.31-.73-2.93-1.63-5.24-1.7-6.55-.17-16.45,7.63-19.7,12.83h0ZM21.75,49.87c-.11,0-.21-.03-.31-.09-8.02-5.05-10.9-27.82-6.29-36.32,0-.01,0-.02.05-.03C18.55,7.94,28.56,0,35.68,0c.1,0,.16,0,.26,0,2.57.08,4.45,1.1,5.76,1.85l.63.33c1.52.79,2.83,1.46,4.03,2.06,5.97,2.99,8.7,4.35,9.64,10.77.52,3.62.68,8.19.42,12.53-.05.29-.26.53-.58.57-.26.03-.58-.15-.63-.43l-.94-3.02c-.37-1.36-.37-2.77-.42-4.01,0-1.5-.05-2.91-.68-3.52-1-.88-3.04.96-5.24,2.9-1.73,1.53-3.67,3.23-5.76,4.43-1.26.73-3.09,1.31-4.87,1.87-2.04.64-4.09,1.3-5.08,2.11-1.57,1.36-1.57,2.41-1.57,4.5v.57c.05,2.11.11,4.29-1.15,8.74-.11.28-.37.47-.68.45-.26-.02-.52-.24-.52-.53-.47-3.33-1.73-5.61-3.46-6.24-.94-.35-1.94-.14-2.73.57-1.05.89-1.89,2.78-1.31,5.41.26,1.17.89,2.68,1.89,4.49.47.9-.31,2.99-.37,3.08-.05.17-.21.3-.37.36-.05.02-.16.03-.21.03Z"/>
      <path class="cls-3" d="M68.33,67.13v-9.64c0-7.71-9.48-10.51-16.09-11.08-.52,1.14-1.1,2.27-1.73,3.36l-.16.35c.47,4.62-4.56,10.12-8.17,12.21-8.38-.76-17.03-.5-23.32-6.94l-.31-.36c-3.3,4.27-7.91,7.47-11.53,11.44-3.46,3.9-6.18,7.58-6.39,12.99v7.83c0,2.9.37,3.66,3.51,5.49,10.22,5.89,23.11,3.34,34.69-2.04l6.76-3.52c12.89-7.44,22.74-17.27,22.74-20.1Z"/>
      <path class="cls-2" d="M18.55,55.97c-1.83,2.28-4.03,4.29-6.24,6.22-1.62,1.5-3.35,3.04-4.82,4.7-3.2,3.57-6.08,7.23-6.23,12.61v7.81c0,2.67.16,3.22,3.2,4.95,10.95,6.32,24.58,2.36,34.11-2.06l6.76-3.51c13.15-7.6,22.37-17.23,22.37-19.56v-9.64c0-8.29-11.74-10.08-15.09-10.42-.47,1.02-1,2.03-1.52,3l-.1.18c.37,4.83-4.66,10.4-8.49,12.61-.11.06-.26.09-.37.08-1.1-.1-2.2-.18-3.25-.26-7.23-.54-14.72-1.09-20.33-6.72h0ZM17.5,96.78c-4.72,0-9.38-.97-13.68-3.45-3.25-1.88-3.83-2.78-3.83-6.02v-7.83c.21-5.81,3.2-9.66,6.55-13.4,1.57-1.7,3.3-3.27,4.98-4.78,2.25-2.06,4.61-4.19,6.5-6.62.11-.14.32-.23.47-.24.16,0,.37.06.47.19l.37.36c5.24,5.43,12.21,5.95,19.6,6.49,1.05.08,2.1.15,3.09.24,3.51-2.09,8.17-7.28,7.7-11.51,0-.12,0-.25.05-.36l.21-.35c.58-1.08,1.15-2.21,1.73-3.34.1-.23.37-.36.58-.35,8.02.69,16.66,4.12,16.66,11.69v9.64c-.05,3.32-10.32,13.26-23.06,20.63l-6.76,3.53c-6.13,2.84-13.89,5.49-21.64,5.49Z"/>
      <path class="cls-4" d="M66.08,51.77c-3.25-3.47-9.27-4.95-13.83-5.35-.52,1.14-.26.6-.84,1.69.21.38.37,1.93.58,2.34,4.98.27,8.85-.13,14.1,1.32Z"/>
      <path class="cls-2" d="M52.45,49.86c1.1.05,2.2.07,3.25.09,2.62.05,5.13.11,8.02.65-3.67-2.53-8.91-3.3-11.11-3.53-.05.18-.16.29-.16.37-.1.18-.1.25-.37.71.1.27.16.63.26,1.11,0,.18.05.4.1.59h0ZM66.08,52.38c-.05,0-.11,0-.16-.02-3.83-1.04-6.97-1.11-10.27-1.17-1.21-.02-2.41-.05-3.72-.12-.21-.02-.42-.16-.52-.37-.1-.24-.16-.61-.31-1.21-.05-.36-.16-.95-.21-1.09-.1-.18-.1-.41,0-.59.32-.63.37-.69.42-.89.1-.13.16-.32.42-.78.1-.23.37-.36.58-.35,2.99.26,10.27,1.3,14.2,5.54.21.2.21.5.1.74-.1.18-.31.29-.52.29Z"/>
      <path class="cls-1" d="M58.53,59.27c2.25,0,4.09,3.34,4.09,7.48s-1.83,7.48-4.09,7.48-4.09-3.35-4.09-7.48,1.78-7.48,4.09-7.48Z"/>
      <path class="cls-2" d="M58.53,59.89c-1.94,0-3.51,3.14-3.51,6.86s1.57,6.86,3.51,6.86c1.83,0,3.46-3.14,3.46-6.86s-1.62-6.86-3.46-6.86h0ZM58.53,74.84c-2.67,0-4.72-3.55-4.72-8.09s2.04-8.1,4.72-8.1,4.66,3.56,4.66,8.1-2.04,8.09-4.66,8.09Z"/>
      <path class="cls-2" d="M39.72,71.24c-.1,0-.16-.02-.26-.05l-10.17-4.56c-.26-.14-.42-.5-.26-.81.11-.31.47-.45.79-.31l9.48,4.27,2.31-7.62c.05-.23.26-.4.47-.43.26-.03.52.08.63.29l3.09,4.99,5.03-9.99c.11-.3.52-.42.79-.28.31.16.47.52.31.83l-5.55,10.98c-.11.2-.26.33-.52.34-.21.02-.42-.1-.52-.29l-2.93-4.76-2.1,6.97c-.05.17-.16.31-.31.39-.11.04-.16.05-.26.05Z"/>
      <path class="cls-4" d="M1.21,75.74l6.29,2.1c2.67-6.76,9.07-10.62,14.78-13.56l-6.92-5.73c-2.72,2.69-5.76,5.11-8.33,7.92-2.46,2.75-4.35,5.15-5.66,8.62l-.16.64Z"/>
      <path class="cls-2" d="M1.94,75.35l5.19,1.73c2.67-6.13,8.23-9.86,13.99-12.91l-5.71-4.79c-1,.96-2.04,1.89-3.09,2.81-1.62,1.5-3.35,3.04-4.82,4.7-2.57,2.87-4.3,5.17-5.55,8.43v.03h0ZM7.49,78.46c-.05,0-.1-.01-.21-.03l-6.29-2.1c-.31-.11-.52-.45-.42-.77l.21-.64c1.31-3.47,3.14-5.86,5.77-8.85,1.57-1.7,3.3-3.27,4.98-4.78,1.15-1.04,2.31-2.09,3.41-3.17.21-.23.58-.24.84-.04l6.86,5.74c.16.13.26.34.21.54,0,.2-.11.39-.31.48-6.03,3.11-11.95,6.86-14.46,13.23-.1.24-.31.39-.58.39Z"/>
      <path class="cls-4" d="M39.3,90.51l6.29-3.28.26-.38-1.47-15.94c0-.23.26-2.16.52-4.16l-2.72-4.41-1.78,6.05c.47,1.44.89,2.96.84,3.29-.63,6.29-1.31,12.56-1.94,18.84Z"/>
      <path class="cls-2" d="M41.08,68.39c.79,2.81.79,3.19.73,3.35-.26,3.19-.63,6.38-.94,9.56-.31,2.71-.58,5.42-.84,8.14l5.19-2.75-1.41-15.72c-.05-.09-.05-.37.47-4.08l-1.89-3.04-1.31,4.54h0ZM39.3,91.13c-.1,0-.26-.04-.37-.11-.16-.12-.26-.34-.26-.57.31-3.09.63-6.18.94-9.27.37-3.19.68-6.38.99-9.56,0-.03,0-.49-.79-3.05-.05-.11-.05-.24,0-.35l1.78-6.05c.05-.24.26-.4.47-.44.26-.03.52.08.63.29l2.72,4.42c.05.12.11.26.05.4-.31,2.5-.47,3.83-.47,4.03l1.47,15.92c0,.15-.05.29-.1.4l-.26.38c-.05.08-.16.16-.26.2l-6.29,3.28c-.05.05-.16.07-.26.07Z"/>
    </g>
  </g>
</svg>