<?xml version="1.0" encoding="UTF-8"?>
<svg id="Layer_2" data-name="Layer 2" xmlns="http://www.w3.org/2000/svg" viewBox="0 0 45.49 39.83" fill="currentColor">
  <defs>
    <style>
      .cls-1 {
        fill: #fff;
      }

      .cls-1, .cls-2, .cls-3, .cls-4 {
        fill-rule: evenodd;
      }

      .cls-2 {
        fill: #1a87c7;
      }

      .cls-3 {
        fill: #bdedf8;
      }

      .cls-4 {
        fill: #66ceef;
      }
    </style>
  </defs>
  <g id="_Layer_" data-name="&amp;lt;Layer&amp;gt;">
    <g>
      <polygon class="cls-1" points="37.86 15.65 37.86 13.85 36.13 14.84 36.13 16.65 37.86 15.65"/>
      <path class="cls-2" d="M36.46,15.03v1.06l1.07-.62v-1.06l-1.07.62h0ZM36.13,16.98c-.06,0-.11-.02-.17-.04-.08-.06-.16-.17-.16-.28v-1.81c0-.12.08-.23.16-.28l1.74-1c.11-.06.22-.06.33,0,.08.06.17.16.17.28v1.81c0,.12-.08.22-.17.28l-1.73,1c-.06.03-.11.04-.17.04Z"/>
      <path class="cls-4" d="M3.41,21.82s-.03.1-.03.15l-.66.38c.08-.06.08-.1.08-.19.03-.39.06-.68.14-1.05.19-.65.44-1.1,1.05-1.47l1.57-.91.33.63c-1.13.57-2.26,1.23-2.48,2.47Z"/>
      <path class="cls-2" d="M5.43,19.17l-1.29.74c-.44.29-.69.63-.88,1.28h0c.44-.98,1.4-1.57,2.2-1.98l-.03-.04h0ZM2.73,22.67c-.11,0-.19-.05-.27-.14-.08-.13-.06-.29.03-.4.03-.43.06-.73.14-1.1.22-.69.5-1.23,1.18-1.67l1.6-.92c.08-.04.17-.06.25-.03.08.02.16.08.19.16l.33.63c.05.08.05.17.03.25-.03.08-.08.15-.17.19-1.1.57-2.12,1.17-2.31,2.23v.14c-.03.1-.08.19-.16.24l-.66.38c-.05.03-.11.04-.17.04Z"/>
      <path class="cls-4" d="M11.76,21.58c-.83-1.5-3.06-3.75-4.79-2.78l-2.62,1.51c1.9-1,4.13,1.45,4.98,3.08.77,1.47,1.49,4.22-.17,5.26.5-.29,2.59-1.44,2.92-1.75,1.32-1.26.5-3.88-.33-5.32Z"/>
      <path class="cls-2" d="M5.84,19.81c1.54.34,3.03,1.97,3.77,3.43.63,1.19,1.16,3.03.72,4.38.66-.37,1.4-.81,1.54-.95,1.16-1.11.41-3.55-.39-4.93h0c-.74-1.35-2.81-3.52-4.38-2.66l-1.27.73h0ZM9.17,28.97c-.11,0-.22-.06-.28-.16-.11-.15-.06-.35.11-.44,1.41-.9.77-3.44.06-4.84-.91-1.69-2.95-3.79-4.57-2.95-.14.08-.33.02-.44-.13-.06-.15,0-.35.14-.44l2.62-1.5c1.87-1.05,4.24,1.12,5.26,2.9h0c.74,1.33,1.76,4.24.25,5.71-.25.25-1.32.86-2.51,1.52l-.47.27c-.06.03-.11.04-.17.04Z"/>
      <path class="cls-4" d="M9.17,23.08c-.63-1.07-1.46-2-2.42-2.54-.94-.54-1.79-.6-2.4-.24h0c-.61.35-.99,1.12-.99,2.2s.39,2.29.99,3.36c.61,1.07,1.46,2,2.4,2.54.96.55,1.79.6,2.42.24.61-.36.99-1.12.99-2.2s-.39-2.29-.99-3.36h0Z"/>
      <path class="cls-2" d="M5.23,20.39c-.28,0-.5.06-.72.18-.55.31-.83,1-.83,1.92,0,.99.33,2.13.94,3.2.63,1.07,1.43,1.93,2.29,2.43.83.46,1.54.55,2.09.24.55-.31.83-.99.83-1.92,0-.99-.33-2.13-.94-3.19h0c-.63-1.07-1.43-1.93-2.31-2.43-.47-.28-.94-.42-1.35-.42h0ZM8.29,29.2c-.52,0-1.1-.17-1.71-.51-.94-.55-1.85-1.49-2.51-2.66-.69-1.17-1.05-2.42-1.05-3.52,0-1.17.41-2.05,1.16-2.48.74-.43,1.71-.35,2.73.24.96.55,1.87,1.5,2.53,2.66h0s.03.02.03.02c.63,1.15,1.02,2.4,1.02,3.5,0,1.17-.41,2.05-1.16,2.49-.33.18-.69.27-1.05.27Z"/>
      <path class="cls-4" d="M21.51,32.48l-.63.37c.06-.06.06-.1.08-.19,0-.53.06-.92.22-1.42.22-.51.44-.82.94-1.13l2.51-1.45v.87l-2.15,1.23c-.61.35-.88,1.04-.96,1.71Z"/>
      <path class="cls-2" d="M24.29,29.23l-2.04,1.16c-.36.24-.55.48-.77.97-.03.04-.03.09-.06.13.22-.44.52-.79.88-1.01l1.98-1.13v-.12h0ZM20.87,33.17c-.11,0-.22-.05-.27-.14-.08-.13-.08-.29.03-.4,0-.54.05-.96.25-1.51.25-.53.5-.93,1.05-1.29l2.53-1.45c.08-.06.22-.06.33,0,.08.06.14.17.14.28v.87c0,.12-.06.22-.14.28l-2.15,1.23c-.58.34-.77,1.07-.8,1.47-.03.1-.08.19-.17.24l-.63.37c-.06.03-.11.04-.17.04Z"/>
      <path class="cls-4" d="M29.9,32.04c-.83-1.49-3.06-3.75-4.82-2.78l-2.62,1.5c1.93-1,4.19,1.51,5.04,3.19.74,1.45,1.4,4.13-.22,5.15.52-.29,2.62-1.44,2.95-1.74,1.29-1.26.5-3.88-.33-5.32Z"/>
      <path class="cls-2" d="M23.98,30.27c.08.02.17.05.28.07,1.46.48,2.86,2.13,3.55,3.46.52,1.02,1.1,2.87.66,4.27.63-.38,1.38-.8,1.51-.95,1.16-1.11.41-3.55-.36-4.93,0,0-.03,0-.03,0-.58-1.08-1.85-2.41-3.03-2.76-.5-.15-.94-.11-1.35.1l-1.24.73h0ZM27.29,39.43c-.11,0-.19-.06-.27-.16-.08-.15-.03-.35.11-.44,1.38-.88.83-3.32.11-4.74-.63-1.26-1.93-2.74-3.19-3.14-.5-.17-.99-.14-1.4.09-.17.08-.36.02-.44-.13-.08-.15-.03-.35.11-.43l2.62-1.5c.55-.31,1.18-.36,1.84-.16,1.38.41,2.75,1.85,3.41,3.07.77,1.33,1.79,4.24.28,5.71-.28.26-1.35.87-2.53,1.53l-.47.26c-.06.03-.11.04-.17.04Z"/>
      <path class="cls-4" d="M27.29,33.55c-.61-1.07-1.46-2-2.4-2.54-.94-.55-1.79-.59-2.42-.24h0c-.61.36-.99,1.12-.99,2.21s.39,2.29.99,3.36c.63,1.07,1.49,2,2.42,2.54.94.54,1.79.6,2.4.24.63-.35,1.02-1.12,1.02-2.2s-.38-2.29-1.02-3.36h0Z"/>
      <path class="cls-2" d="M23.35,30.86c-.25,0-.5.06-.72.18-.52.31-.83,1-.83,1.92,0,.99.33,2.13.96,3.2.61,1.07,1.4,1.93,2.29,2.43.8.46,1.54.55,2.06.24.55-.31.85-.99.85-1.92,0-.99-.36-2.13-.96-3.19h0c-.61-1.07-1.43-1.93-2.29-2.43-.5-.28-.96-.42-1.38-.42h0ZM26.41,39.66c-.52,0-1.1-.17-1.68-.51-.96-.55-1.85-1.5-2.53-2.66-.66-1.17-1.05-2.42-1.05-3.52,0-1.17.41-2.05,1.16-2.48.77-.43,1.73-.35,2.75.24.94.55,1.85,1.5,2.51,2.66h0c.69,1.19,1.05,2.43,1.05,3.52,0,1.17-.41,2.05-1.16,2.49-.3.18-.66.27-1.05.27Z"/>
      <path class="cls-1" d="M18.97,16.05l13.6-7.86,4.24,8.73c.17.33.3.65.61.83l6.75,3.89c.85.51.99.87.99,1.12v8.16l-13.6,7.86v-8.16c0-.28-.03-.54-.69-.93l-7.05-4.08c-.33-.19-.44-.5-.61-.83-1.32-2.67-2.64-6.35-4.24-8.73Z"/>
      <path class="cls-2" d="M19.44,16.16c.96,1.55,1.84,3.54,2.7,5.47.47,1.08.91,2.1,1.38,3.01l.05.13c.11.25.22.45.41.56l7.05,4.08c.77.45.85.81.85,1.2v7.61l12.97-7.49v-7.98c-.03-.29-.5-.62-.85-.84l-6.75-3.89c-.36-.21-.52-.54-.66-.87l-.06-.1-4.1-8.42-13,7.51h0ZM31.56,39.11c-.06,0-.11-.01-.17-.04-.11-.06-.17-.17-.17-.28v-8.16c0-.21,0-.34-.52-.65l-7.05-4.08c-.36-.21-.52-.53-.66-.84l-.06-.12c-.47-.93-.94-1.95-1.4-3.04-.88-2.02-1.82-4.12-2.84-5.66-.06-.07-.06-.17-.06-.25.03-.09.08-.16.17-.21l13.6-7.86c.08-.04.19-.06.27-.03.08.02.14.09.19.17l4.29,8.84c.11.26.22.47.41.58l6.72,3.89c.8.46,1.18.91,1.18,1.4v8.16c0,.12-.06.22-.17.28l-13.6,7.86c-.06.03-.11.04-.17.04Z"/>
      <polygon class="cls-1" points="45.16 22.77 45.16 30.93 31.56 38.79 31.56 30.63 45.16 22.77"/>
      <path class="cls-2" d="M31.89,30.81v7.42l12.97-7.49v-7.42l-12.97,7.49h0ZM31.56,39.11c-.06,0-.11-.01-.17-.04-.11-.06-.17-.17-.17-.28v-8.16c0-.12.06-.22.17-.28l13.6-7.86c.11-.06.25-.06.33,0,.11.06.17.17.17.28v8.16c0,.12-.06.22-.17.28l-13.6,7.86c-.06.03-.11.04-.17.04Z"/>
      <path class="cls-1" d="M31.53,7.17c.44.27.74.6,1.05,1.02l-13.6,7.86s-.96-.96-1.07-1.02l-11.9-6.83s-.06-.04-.11-.04l.06-.03L19.36.4c.11-.08.14-.11.3-.04l11.87,6.81Z"/>
      <path class="cls-2" d="M6.58,8.15l11.48,6.6s.14.08.96.9l13.08-7.55c-.25-.27-.47-.47-.74-.65L19.5.64s.06,0,.08,0l-.22-.23.14.28-12.91,7.47h0ZM18.97,16.37c-.08,0-.17-.03-.22-.1-.44-.43-.94-.91-1.02-.98l-11.9-6.81c-.14-.02-.22-.12-.25-.26-.03-.13.03-.27.14-.34L19.19.12c.19-.11.33-.18.61-.05l11.87,6.82s.03,0,.03,0c.44.27.8.61,1.16,1.11.03.07.06.17.03.26,0,.09-.06.17-.14.21l-13.6,7.86c-.06.03-.11.05-.17.05Z"/>
      <polygon class="cls-3" points=".33 16.79 .77 17.05 .77 18.56 .33 18.3 .33 16.79"/>
      <path class="cls-2" d="M.77,18.88c-.06,0-.11-.01-.17-.04l-.44-.26c-.11-.06-.17-.17-.17-.28v-1.52c0-.12.06-.22.17-.28.08-.06.22-.06.3,0l.47.26c.08.06.16.17.16.28v1.51c0,.12-.08.22-.16.28-.06.03-.11.04-.17.04Z"/>
      <polygon class="cls-3" points=".94 16.95 .69 16.81 .69 16.58 .33 16.79 .77 17.05 .94 16.95"/>
      <path class="cls-2" d="M.77,17.37c-.06,0-.11-.01-.17-.04l-.44-.26c-.11-.06-.17-.17-.17-.28s.06-.22.17-.28l.36-.21c.08-.06.22-.06.33,0,.08.06.14.17.14.28v.04l.11.05c.08.06.17.17.17.28s-.08.22-.17.28l-.16.09c-.06.03-.11.04-.17.04Z"/>
      <path class="cls-3" d="M6,8.2l11.9,6.83c1.87,1.08,4.24,7.61,5.32,9.75.16.33.28.65.61.83l7.05,4.08.03.02c.58.34.63.57.66.81v8.25c0,.19-.14.27-.3.17l-2.15-1.24c-.14-.09-.28-.32-.28-.51,0-1.26-.44-2.65-1.16-3.88l-.03-.02c-.69-1.23-1.68-2.29-2.75-2.92-1.1-.63-2.07-.69-2.78-.28-.72.41-1.16,1.3-1.16,2.55,0,.19-.14.26-.3.17h0c-2.09-1.21-7.88-4.58-9.67-5.61-.11-.06-.19-.18-.25-.31-.06-.15-.06-.41-.06-.57-.08-1.15-.52-2.38-1.16-3.49-.72-1.23-1.68-2.3-2.78-2.92-1.07-.63-2.07-.69-2.75-.29-.72.41-1.16,1.28-1.18,2.53,0,.4-.39.11-.55.01-.41-.29-.77-.72-1.07-1.2-.3-.55-.5-1.17-.5-1.73v-4.5c0-.41.08-.79.3-1.05.5-.56,3.91-4.63,4.74-5.4.11-.11.14-.17.28-.09Z"/>
      <path class="cls-2" d="M6,8.2l-.17.27h0s.17-.27.17-.27h0ZM23.13,29.52c.58,0,1.24.2,1.93.58,1.07.63,2.09,1.71,2.89,3.04.77,1.36,1.21,2.8,1.21,4.07,0,.07.06.19.11.23l1.96,1.12v-8.02c0-.12,0-.26-.47-.55l-7.1-4.1c-.36-.21-.52-.53-.66-.84l-.06-.12c-.28-.52-.61-1.29-.99-2.17-1.13-2.66-2.86-6.68-4.21-7.45l-11.79-6.77c-.66.63-2.97,3.32-4.08,4.63-.3.36-.52.62-.63.74-.16.18-.25.46-.25.84v4.5c0,.48.19,1.05.5,1.57.25.46.61.85.96,1.1.03.01.03.02.05.03.06-1.22.52-2.13,1.32-2.58.85-.48,1.95-.38,3.08.28,1.1.63,2.12,1.71,2.89,3.04.69,1.18,1.13,2.47,1.21,3.63v.17c0,.09,0,.25.03.31.03.07.08.13.11.15.85.5,2.67,1.55,4.54,2.64,1.87,1.09,3.8,2.22,4.93,2.86.05-1.23.52-2.15,1.32-2.61.36-.2.74-.31,1.18-.31h0ZM31.39,39.32c-.08,0-.19-.03-.3-.09l-2.12-1.24c-.28-.15-.47-.48-.47-.79,0-1.16-.39-2.48-1.1-3.72-.74-1.26-1.68-2.25-2.67-2.83-.96-.55-1.82-.64-2.48-.28-.63.37-.99,1.18-.99,2.27,0,.21-.08.38-.22.47-.17.09-.36.08-.55-.02-1.1-.64-3.25-1.89-5.31-3.08-1.79-1.05-3.5-2.05-4.35-2.53-.17-.1-.3-.27-.39-.48-.06-.16-.06-.36-.08-.53v-.14c-.08-1.06-.47-2.25-1.1-3.35-.72-1.23-1.65-2.23-2.67-2.81-.94-.55-1.82-.64-2.45-.28-.63.36-.99,1.16-.99,2.24,0,.3-.17.42-.25.47-.3.16-.63-.07-.8-.19-.44-.31-.85-.77-1.18-1.32-.36-.62-.55-1.29-.55-1.89v-4.5c0-.55.14-.96.39-1.26.11-.11.33-.38.63-.73,1.21-1.42,3.47-4.07,4.13-4.69.14-.12.33-.32.66-.13l11.9,6.83c1.51.88,3.25,4.86,4.49,7.75.39.88.69,1.63.96,2.14l.05.13c.11.25.22.45.41.56l7.05,4.08c.69.4.83.73.85,1.1v8.27c0,.21-.11.38-.25.47-.08.04-.17.06-.25.06Z"/>
      <path class="cls-4" d="M14.29,14.84l2.84,1.64c.25.13.44.34.63.6h0c.61.9,3.17,6.11,3.8,7.33.06.21-.03.34-.19.3-.03,0-.06-.02-.08-.03h0s-6.99-4.05-6.99-4.05c-.16-.09-.3-.32-.3-.51v-5.12c0-.19.14-.26.3-.17Z"/>
      <path class="cls-2" d="M14.29,14.84l-.16.28h0s.16-.28.16-.28h0ZM14.32,15.23v4.9c0,.07.05.19.14.23l6.64,3.84c-.19-.4-.5-1-.85-1.68-.99-1.96-2.34-4.64-2.75-5.25-.14-.21-.33-.39-.5-.5l-2.67-1.54h0ZM21.42,25.05c-.06,0-.08,0-.14-.02-.05-.01-.08-.04-.14-.06l-7.02-4.05c-.28-.15-.47-.48-.47-.79v-5.12c0-.21.08-.38.25-.47.17-.09.36-.08.55.02l2.84,1.64c.28.16.52.4.72.7.47.64,1.76,3.24,2.81,5.33.47.9.83,1.66,1.05,2.04,0,.02.03.05.03.08.06.23,0,.43-.14.56-.08.08-.22.13-.33.13Z"/>
      <path class="cls-4" d="M8.01,11.21l4.71,2.72c.16.1.33.35.33.55v5.37c0,.2-.17.28-.33.18l-4.71-2.72c-.16-.1-.3-.35-.3-.55v-5.37c0-.2.14-.28.3-.18Z"/>
      <path class="cls-2" d="M8.01,11.21l-.16.28h0s.16-.28.16-.28h0ZM8.01,11.59v5.18c0,.08.08.23.17.27l4.54,2.62v-5.18c0-.08-.08-.23-.17-.27l-4.54-2.62h0ZM12.86,20.39c-.11,0-.19-.03-.3-.09l-4.71-2.72c-.28-.16-.47-.51-.47-.83v-5.37c0-.22.08-.39.25-.49.17-.09.36-.08.55.02h0l4.71,2.72c.28.16.47.51.47.83v5.37c0,.22-.08.39-.25.48-.08.04-.17.07-.25.07Z"/>
      <path class="cls-4" d="M6.39,10.5c.19.1.33.35.33.55v5.14c0,.2-.16.28-.33.18l-3.08-1.78c-.58-.34-.52-.82-.11-1.28l2.37-2.68c.33-.38.61-.26.83-.13Z"/>
      <path class="cls-2" d="M6.03,10.7c-.08,0-.14.04-.22.15l-2.37,2.68c-.17.19-.25.36-.22.49,0,.1.11.2.25.29l2.92,1.68v-4.95c0-.09-.08-.23-.17-.27h0c-.08-.05-.14-.09-.19-.09h0ZM6.53,16.74c-.08,0-.19-.03-.3-.09l-3.06-1.78c-.44-.24-.55-.54-.61-.75-.03-.23,0-.59.39-1.02l2.37-2.68c.52-.6,1.05-.31,1.24-.21.28.16.5.51.5.83v5.14c0,.21-.11.39-.28.48-.08.04-.17.07-.25.07Z"/>
      <path class="cls-2" d="M15.56,23.77c-.06,0-.11-.01-.17-.04l-1.93-1.12c-.17-.09-.22-.29-.14-.44.11-.15.27-.21.44-.12l1.93,1.12c.17.09.22.29.14.44-.06.1-.17.16-.28.16Z"/>
      <path class="cls-2" d="M8.54,19.72c-.06,0-.11-.01-.16-.04l-1.93-1.12c-.17-.09-.19-.29-.11-.44.08-.15.27-.21.44-.12l1.93,1.12c.17.09.22.29.14.44-.08.1-.19.16-.3.16Z"/>
      <path class="cls-1" d="M31.56,38.79l13.6-7.86c0,.09,0,.13-.08.19l-13.6,7.86c.06-.06.08-.1.08-.19Z"/>
      <path class="cls-2" d="M31.47,39.3c-.11,0-.22-.05-.27-.14-.08-.13-.08-.3.03-.41.03-.09.08-.2.17-.24l13.6-7.86c.11-.06.25-.06.36,0,.08.07.14.18.14.3,0,.14-.03.27-.19.41l-13.66,7.89c-.06.03-.11.04-.17.04Z"/>
      <polygon class="cls-4" points="45.16 31.65 45.16 29.46 31.56 37.32 31.56 39.51 45.16 31.65"/>
      <path class="cls-2" d="M45.16,31.65h.03-.03ZM31.89,37.51v1.44l12.97-7.48v-1.45l-12.97,7.49h0ZM31.56,39.83c-.06,0-.11-.01-.17-.04-.11-.06-.17-.17-.17-.28v-2.19c0-.12.06-.22.17-.28l13.6-7.86c.11-.06.25-.06.33,0,.11.06.17.17.17.28v2.19c0,.12-.06.22-.17.28l-13.6,7.86c-.06.03-.11.04-.17.04Z"/>
      <polygon class="cls-4" points="31.56 37.32 28.64 35.75 28.64 37.94 31.56 39.51 31.56 37.32"/>
      <path class="cls-2" d="M28.97,37.74l2.26,1.23v-1.46l-2.26-1.23v1.46h0ZM31.56,39.83c-.06,0-.11-.01-.17-.04l-2.92-1.57c-.08-.06-.17-.17-.17-.28v-2.19c0-.11.06-.22.17-.28s.22-.06.33,0l2.92,1.57c.08.06.17.17.17.28v2.19c0,.11-.06.22-.17.28-.06.03-.11.04-.17.04Z"/>
      <path class="cls-2" d="M23.82,25.94c-.11,0-.22-.06-.28-.16-.11-.15-.06-.35.11-.44l13.6-7.86c.17-.09.36-.04.47.12.08.16.03.36-.14.44l-13.6,7.86c-.05.03-.11.04-.16.04Z"/>
      <polygon class="cls-4" points="20.65 16.77 32.27 10.07 35.88 17.35 24.29 24.06 20.65 16.77"/>
      <path class="cls-2" d="M21.09,16.9l3.33,6.7,11.04-6.38-3.33-6.7-11.04,6.38h0ZM24.29,24.38s-.08,0-.11-.01c-.08-.03-.14-.09-.19-.17l-3.61-7.28c-.08-.15-.03-.34.11-.43l11.62-6.7c.08-.04.16-.05.25-.03.11.03.17.09.22.17l3.61,7.28c.08.15.03.34-.14.42l-11.59,6.7c-.06.03-.11.04-.17.04Z"/>
      <polygon class="cls-3" points="23.43 22.36 29.71 18.82 30.81 16.86 33.87 15.14 34.92 15.41 35.88 17.35 24.29 24.06 23.43 22.36"/>
      <path class="cls-2" d="M23.87,22.49l.55,1.12,11.04-6.38-.77-1.54-.8-.2-2.84,1.61-1.05,1.88c-.03.05-.08.09-.14.12l-6,3.38h0ZM24.29,24.38s-.08,0-.11-.01c-.08-.03-.14-.09-.19-.17l-.83-1.7c-.08-.15-.03-.34.14-.43l6.2-3.49,1.05-1.88s.08-.09.14-.12l3.03-1.72c.08-.04.17-.06.25-.03l1.05.27c.08.02.16.08.22.17l.96,1.94c.08.15.03.34-.14.42l-11.59,6.7c-.06.03-.11.04-.17.04Z"/>
      <polygon class="cls-1" points="21.62 25.01 21.62 23.19 19.88 24.19 19.88 26 21.62 25.01"/>
      <path class="cls-2" d="M20.21,24.38v1.06l1.1-.62v-1.06l-1.1.62h0ZM19.88,26.32c-.06,0-.11-.02-.14-.04-.11-.05-.17-.16-.17-.28v-1.81c0-.12.06-.22.17-.28l1.71-.99c.11-.06.22-.06.33,0,.11.06.17.16.17.28v1.81c0,.12-.06.22-.17.28l-1.73,1s-.08.04-.17.04Z"/>
      <path class="cls-2" d="M21.62,25.33c-.11,0-.22-.06-.28-.16-.08-.15-.03-.35.11-.44l.66-.38c.16-.09.36-.04.44.12.11.16.06.35-.11.44l-.66.38c-.05.03-.11.04-.16.04Z"/>
      <path class="cls-3" d="M43.26,28.84c-.63.35-1.1.07-1.1-.63s.47-1.56,1.1-1.91c.61-.35,1.1-.07,1.1.64s-.5,1.56-1.1,1.91Z"/>
      <path class="cls-2" d="M43.76,26.47c-.11,0-.22.04-.36.11-.5.3-.94,1.04-.94,1.63,0,.22.06.37.17.43.11.06.28.03.47-.08h0c.5-.3.94-1.04.94-1.63,0-.21-.05-.37-.17-.43-.03-.02-.08-.03-.11-.03h0ZM42.76,29.31c-.17,0-.33-.04-.44-.11-.33-.18-.5-.54-.5-.99,0-.82.55-1.78,1.27-2.19.39-.23.8-.26,1.1-.08.3.18.47.54.47.99,0,.82-.55,1.78-1.27,2.19-.22.13-.44.19-.63.19Z"/>
      <path class="cls-2" d="M35.36,31.28c-.11,0-.22-.06-.28-.16-.08-.16-.03-.36.14-.44l5.89-3.41c.14-.09.36-.04.44.12.08.15.03.35-.11.44l-5.92,3.41c-.06.03-.11.04-.17.04Z"/>
      <path class="cls-2" d="M35.36,33.56c-.11,0-.22-.06-.28-.16-.08-.15-.03-.35.14-.44l5.89-3.41c.14-.09.36-.04.44.12.08.15.03.35-.11.44l-5.92,3.41s-.11.04-.17.04Z"/>
      <path class="cls-2" d="M35.38,32.41c-.11,0-.22-.06-.27-.16-.08-.16-.03-.35.11-.44l5.84-3.37c.17-.09.36-.04.44.12.11.15.05.35-.11.44l-5.84,3.37c-.05.03-.11.04-.17.04Z"/>
      <path class="cls-3" d="M33.46,34.47c-.61.35-1.1.07-1.1-.64s.5-1.56,1.1-1.91c.61-.35,1.1-.06,1.1.64s-.5,1.56-1.1,1.91Z"/>
      <path class="cls-2" d="M33.95,32.09c-.08,0-.22.04-.33.11-.52.29-.94,1.04-.94,1.63,0,.22.06.38.17.44.08.06.25.03.44-.08h0c.52-.3.96-1.04.96-1.63,0-.22-.08-.37-.17-.43-.06-.02-.08-.03-.14-.03h0ZM32.96,34.94c-.16,0-.3-.04-.44-.12-.3-.18-.5-.54-.5-.99,0-.82.58-1.78,1.27-2.19.41-.23.8-.26,1.1-.08.33.18.5.54.5.99,0,.82-.55,1.78-1.27,2.19h0c-.22.13-.44.19-.66.19Z"/>
      <path class="cls-3" d="M26.21,34.18c.33.59.55,1.25.55,1.85s-.22,1.02-.55,1.21c-.33.2-.83.17-1.32-.13-.52-.3-.99-.81-1.32-1.4l-.03-.03c-.33-.58-.52-1.23-.52-1.82s.19-1.02.55-1.21h0c.33-.2.8-.17,1.32.13.5.3.99.81,1.32,1.4Z"/>
      <path class="cls-2" d="M24.04,32.85c-.11,0-.22.03-.33.08-.25.15-.39.48-.39.93,0,.51.19,1.1.5,1.66.33.58.8,1.05,1.24,1.31.39.23.74.27.99.13.25-.14.39-.48.39-.93,0-.51-.19-1.13-.5-1.68-.33-.56-.77-1.02-1.21-1.28-.25-.14-.47-.21-.69-.21h0ZM25.72,37.69c-.3,0-.63-.1-.99-.3-.55-.32-1.07-.86-1.43-1.52-.41-.69-.61-1.39-.61-2.01,0-.7.25-1.23.72-1.49.44-.26,1.05-.22,1.65.13.52.32,1.05.86,1.43,1.52.38.66.61,1.38.61,2.01,0,.7-.25,1.23-.72,1.49-.19.11-.41.17-.66.17Z"/>
      <path class="cls-3" d="M8.07,23.71c.36.59.55,1.25.55,1.85s-.19,1.02-.55,1.21c-.33.19-.8.16-1.32-.13-.52-.3-.96-.81-1.32-1.4v-.03c-.33-.58-.55-1.23-.55-1.81s.22-1.02.55-1.21h0c.36-.2.8-.17,1.32.13.52.3.99.81,1.32,1.4Z"/>
      <path class="cls-2" d="M5.92,22.38c-.11,0-.22.03-.33.08-.25.15-.39.48-.39.93,0,.51.17,1.1.5,1.66.33.59.77,1.05,1.21,1.31.41.23.77.28.99.13.27-.15.41-.48.41-.93,0-.52-.19-1.12-.52-1.68h0c-.3-.56-.74-1.02-1.21-1.28-.22-.14-.47-.21-.66-.21h0ZM7.6,27.22c-.3,0-.66-.1-1.02-.3-.55-.32-1.05-.86-1.43-1.52-.39-.69-.61-1.39-.61-2.01,0-.7.27-1.23.72-1.49.47-.27,1.05-.22,1.65.13.55.31,1.07.85,1.46,1.51h0c.39.66.58,1.37.58,2.01,0,.7-.25,1.23-.72,1.49-.19.11-.41.17-.63.17Z"/>
    </g>
  </g>
</svg>