<?xml version="1.0" encoding="UTF-8"?>
<svg id="Layer_2" data-name="Layer 2" xmlns="http://www.w3.org/2000/svg" viewBox="0 0 38.8 82.87" fill="currentColor">
  <defs>
    <style>
      .cls-1 {
        fill: #fff;
      }

      .cls-1, .cls-2, .cls-3, .cls-4 {
        fill-rule: evenodd;
      }

      .cls-2 {
        fill: #1a87c7;
      }

      .cls-3 {
        fill: #bdedf8;
      }

      .cls-4 {
        fill: #66ceef;
      }
    </style>
  </defs>
  <g id="_Layer_" data-name="&amp;lt;Layer&amp;gt;">
    <g>
      <path class="cls-4" d="M30.08,8.48v64.6c-.31-2.98-2.62-5.22-4.93-6.86V1.61c2.31,1.65,4.61,3.89,4.93,6.87h0ZM19.91,8.43v2.89l.47.29c1.2-.71,2.15-1.69,2.2-3.16v64.61c-.05,1.44-1.05,2.46-2.2,3.15l-1.89-1.09v-4.52c-4.61-3.77-15.14-3.49-15.2,2.02V8.02c0-4.29,6.08-5.02,9.9-4.28,2.2.43,6.6,1.92,6.71,4.69h0Z"/>
      <path class="cls-2" d="M25.78,65.89c1.62,1.19,2.83,2.43,3.67,3.73V8.51c-.21-2.01-1.47-3.87-3.67-5.67v63.05h0ZM30.08,73.69c-.31,0-.58-.24-.63-.55-.26-2.29-1.78-4.39-4.66-6.43-.16-.12-.26-.3-.26-.5V1.61c0-.23.11-.44.31-.55.21-.11.47-.08.68.05,3.14,2.25,4.87,4.64,5.19,7.3v64.67c0,.33-.26.6-.63.62h0ZM19.12,74.76l1.26.73c1.05-.7,1.57-1.52,1.57-2.45V11.19c-.37.34-.79.66-1.26.95-.21.12-.42.12-.63,0l-.47-.29c-.21-.1-.31-.31-.31-.53v-2.88c-.11-2.29-4.09-3.68-6.24-4.1-2.57-.51-6.13-.26-7.96,1.22-.79.64-1.15,1.45-1.15,2.46v61.58c.47-.48,1.05-.89,1.73-1.22,3.77-1.76,9.96-.95,13.2,1.75.16.12.26.29.26.47v4.17h0ZM20.38,76.83c-.11,0-.21-.03-.31-.08l-1.89-1.1c-.21-.1-.31-.31-.31-.53v-4.22c-2.93-2.24-8.44-2.92-11.68-1.4-1.47.7-2.25,1.76-2.25,3.12,0,.34-.26.62-.63.62h0c-.31,0-.63-.28-.63-.62V8.02c0-1.38.58-2.53,1.62-3.41,2.2-1.8,6.24-2.02,9.01-1.47.73.14,7.07,1.49,7.18,5.27v2.39c.99-.67,1.41-1.43,1.47-2.37,0-.33.31-.59.63-.59h0c.37,0,.63.28.63.61v64.61c-.05,1.46-.89,2.73-2.51,3.68-.1.06-.21.09-.31.09Z"/>
      <polygon class="cls-4" points="20.38 11.61 20.38 76.21 18.5 75.12 18.5 10.51 20.38 11.61"/>
      <path class="cls-2" d="M19.12,74.76l.63.38V11.97l-.63-.39v63.18h0ZM20.38,76.83c-.11,0-.21-.03-.31-.08l-1.89-1.1c-.21-.1-.31-.31-.31-.53V10.51c0-.22.11-.42.31-.53.21-.11.42-.11.63,0l1.89,1.1c.21.11.31.31.31.53v64.6c0,.22-.11.42-.31.54-.1.05-.21.08-.31.08Z"/>
      <path class="cls-1" d="M32.75,9.14c0,6.73.21,64.08-.1,65.59-1.21,6.13-9.9,7.78-15.4,7.49-5.45-.28-15.98-3.21-16.61-9.25V8.19c.47,6.32,11.37,9.24,16.98,9.46,5.5.21,14.15-1.59,15.09-7.76l.05-.74Z"/>
      <path class="cls-2" d="M1.26,11.56v61.38c.52,5.56,10.69,8.39,15.98,8.67,5.34.29,13.73-1.35,14.83-7,.21-1.49.1-40.82.1-57.62v-4.03c-2.99,4.45-10.43,5.46-14.57,5.3-4.4-.17-13.1-2.1-16.35-6.7h0ZM18.39,82.87c-.42,0-.84-.01-1.2-.03-5.08-.27-16.51-3.11-17.13-9.81l-.05-.2V8.19c0-.33.26-.6.63-.61h0c.31,0,.63.25.63.57.42,5.85,10.9,8.67,16.35,8.89,5.4.19,13.62-1.55,14.46-7.24l.1-.7c0-.32.26-.57.63-.56.31.02.58.29.58.61v7.85c.11,29.37.11,56.71-.11,57.85-1.26,6.4-9.69,8.02-14.88,8.02Z"/>
      <path class="cls-4" d="M32.75,37.07c0,1.98.21,9.06-.16,10.61-1.42,6.2-10.22,7.76-15.77,7.38-5.29-.36-15.61-3.34-16.19-9.42v-9.55c.47,6.46,11.37,9.43,16.98,9.66,5.5.22,14.15-1.62,15.09-7.93l.05-.75Z"/>
      <path class="cls-2" d="M1.26,39.54v6.1c.52,5.5,10.43,8.46,15.61,8.8,5.34.37,13.83-1.17,15.14-6.91.21-.9.21-4.05.16-6.63-2.88,4.58-10.37,5.64-14.57,5.46-4.4-.17-13.1-2.15-16.35-6.82h0ZM18.34,55.73c-.52,0-1.05-.02-1.57-.05-5.19-.35-16.09-3.25-16.72-9.98l-.05-9.6c0-.33.26-.6.63-.62.31-.06.63.25.63.57.42,5.98,10.9,8.87,16.4,9.09,5.29.22,13.57-1.58,14.41-7.4l.1-.72c0-.33.31-.56.63-.56.31.02.58.28.58.61v1.82c.05,3.86.11,7.73-.16,8.93-1.47,6.31-9.64,7.91-14.88,7.91Z"/>
      <path class="cls-4" d="M17.5,62.11c0,.05,0,.1-.05.15l-1.15,2.96,3.35-2.72c.31-.25.58-.24.68.05l1.05,3.13,4.72-12.16c-1.94.66-3.72-.27-4.4-2.19l-4.19,10.78h0ZM28.4,52.18l4.66,6.63,1.1-4.37c.11-.39.42-.75.68-.84l3.35-1.12c-1.73-2.46-3.46-4.92-5.19-7.38-.73,2.65-2.46,5.36-4.61,7.07h0Z"/>
      <path class="cls-2" d="M29.24,52.29l3.56,5.07.79-3.06c.11-.6.58-1.14,1.1-1.28l2.52-.85-3.98-5.7c-.89,2.22-2.31,4.34-3.98,5.82h0ZM33.06,59.43c-.16,0-.37-.09-.47-.26l-4.66-6.64c-.21-.27-.16-.63.1-.83,1.99-1.58,3.67-4.16,4.35-6.75.05-.23.26-.4.52-.45.21-.04.47.06.58.26l5.19,7.37c.11.16.16.36.11.55-.11.19-.21.33-.42.39l-3.3,1.12c-.11.03-.26.2-.31.4l-1.05,4.37c-.05.24-.26.41-.47.46-.05,0-.1.01-.16.01h0ZM19.75,62.73h0s0,0,0,0h0ZM20.07,61.69c.05,0,.16.01.21.04.31.08.52.3.63.61l.52,1.52,3.72-9.54c-1.36.1-2.57-.47-3.41-1.53l-3.67,9.54c0,.05-.05.15-.05.17l-.31.75,1.52-1.24c.26-.21.52-.32.84-.32h0ZM21.38,66.28h0c-.26,0-.47-.17-.58-.42l-.94-2.77-3.14,2.59c-.26.18-.52.18-.73.02-.26-.16-.37-.46-.26-.72l1.15-2.96.63.08-.58-.22,4.19-10.79c.05-.23.31-.39.58-.39h0c.26,0,.47.17.58.41.58,1.62,2.04,2.35,3.67,1.81.21-.08.47-.02.63.16.16.17.21.42.16.65l-4.77,12.15c-.05.24-.31.39-.58.39Z"/>
      <path class="cls-4" d="M32.07,39.7c-1.1-.64-2.62-.54-4.3.43-1.68.97-3.2,2.61-4.3,4.5v.06c-1.15,1.92-1.83,4.08-1.83,6.02,0,1.23.21,1.97.63,2.79,1.1,1.84,3.2,2.07,5.56.7l.11-.05c2.62-1.59,4.93-4.96,5.71-8.29.16-.75.26-1.52.26-2.21,0-1.94-.68-3.32-1.83-3.96Z"/>
      <path class="cls-2" d="M30.5,39.91c-.73,0-1.57.26-2.41.76-1.52.88-2.99,2.4-4.09,4.28-1.1,1.97-1.73,4-1.73,5.78,0,1.17.21,1.8.58,2.51,1.21,2.13,3.67,1.03,4.72.45,2.52-1.53,4.72-4.78,5.45-7.94.16-.7.26-1.41.26-2.07,0-1.66-.52-2.87-1.52-3.42-.37-.22-.79-.33-1.26-.33h0ZM24.99,55.7c-1.36,0-2.52-.64-3.25-1.88-.42-.85-.73-1.69-.73-3.1,0-1.99.68-4.24,1.89-6.33,1.26-2.13,2.83-3.8,4.56-4.79,1.83-1.06,3.62-1.21,4.93-.43,1.36.78,2.15,2.37,2.15,4.49,0,.75-.1,1.56-.31,2.35-.79,3.52-3.2,7-5.97,8.68-1.15.68-2.31,1.01-3.25,1.01Z"/>
      <path class="cls-3" d="M18.5,10.51c1.05-.6,1.52-1.49,1.36-2.44-.16-.94-.94-1.93-2.41-2.78-1.78-1.05-4.14-1.69-6.34-1.82-2.04-.12-4.03.2-5.45,1.03-1.83,1.03-2.57,2.52-2.31,4.09.31,1.59,1.68,3.26,4.03,4.65,2.93,1.69,6.55,2.66,10.06,2.84,3.41.18,6.65-.38,9.01-1.73,2.62-1.5,3.83-3.62,3.62-5.87-.21-2.3-1.89-4.75-4.93-6.87l2.04-.99c3.46,2.39,5.29,5.16,5.55,7.78.21,2.69-1.2,5.22-4.4,7.06-2.93,1.7-6.97,2.39-11.11,2.17-4.14-.21-8.38-1.34-11.74-3.28-2.88-1.65-4.45-3.66-4.82-5.59-.37-2.03.68-3.97,3.04-5.35,2.04-1.18,4.82-1.64,7.65-1.47,2.83.16,5.71.95,8.02,2.26,1.89,1.12,2.93,2.45,3.14,3.74.26,1.4-.52,2.75-2.15,3.68l-1.89-1.1Z"/>
      <path class="cls-2" d="M10.27,2.51c-2.41,0-4.61.5-6.24,1.43-2.1,1.21-3.04,2.88-2.72,4.71.31,1.85,1.94,3.68,4.51,5.16,3.2,1.84,7.23,2.98,11.42,3.2,4.24.23,8.07-.52,10.79-2.1,2.88-1.64,4.3-3.95,4.09-6.47-.21-2.44-1.99-4.96-4.98-7.12l-.79.39c2.57,2.02,4.14,4.38,4.35,6.7.21,2.58-1.2,4.87-3.93,6.47-2.36,1.36-5.71,2.01-9.33,1.82-3.77-.2-7.44-1.24-10.38-2.92-2.41-1.42-3.98-3.22-4.3-5.07-.37-1.88.58-3.6,2.57-4.74,1.47-.85,3.51-1.24,5.76-1.11,2.41.14,4.77.81,6.65,1.9,1.99,1.14,2.57,2.38,2.73,3.22.1.92-.16,1.79-.89,2.47l.79.45c1.15-.78,1.73-1.78,1.52-2.87-.16-1.17-1.21-2.34-2.83-3.3-2.15-1.23-4.98-2.02-7.75-2.18-.37-.02-.68-.03-1.05-.03h0ZM18.71,18.28c-.47,0-1-.02-1.52-.04-4.4-.23-8.65-1.42-12-3.36C2.3,13.21.47,11.07.1,8.87c-.42-2.35.79-4.53,3.3-5.99,2.04-1.18,4.92-1.73,8.02-1.56,2.93.17,5.97,1.03,8.28,2.35,1.94,1.15,3.2,2.63,3.46,4.17.26,1.69-.63,3.26-2.46,4.32-.21.11-.42.11-.63,0l-1.89-1.09c-.21-.12-.31-.31-.31-.53s.11-.42.31-.53c.47-.27,1.21-.86,1.1-1.8-.16-.81-.89-1.65-2.15-2.35-1.68-.98-3.93-1.61-6.08-1.74-2.04-.12-3.88.22-5.14.95-1.47.87-2.2,2.1-1.94,3.45.26,1.49,1.57,2.99,3.72,4.23,2.78,1.59,6.24,2.57,9.8,2.76,3.41.18,6.5-.41,8.65-1.66,2.31-1.34,3.51-3.21,3.3-5.29-.21-2.2-1.83-4.47-4.66-6.42-.16-.12-.26-.33-.26-.55s.16-.41.37-.51L26.93.06c.21-.1.42-.07.63.05,3.46,2.42,5.56,5.34,5.82,8.23.26,3.03-1.42,5.74-4.72,7.65-2.57,1.5-6.08,2.3-9.96,2.3Z"/>
    </g>
  </g>
</svg>