<?xml version="1.0" encoding="UTF-8"?>
<svg id="Layer_2" data-name="Layer 2" xmlns="http://www.w3.org/2000/svg" viewBox="0 0 55.51 82.29" fill="currentColor">
  <defs>
    <style>
      .cls-1 {
        fill: #fff;
      }

      .cls-1, .cls-2, .cls-3 {
        fill-rule: evenodd;
      }

      .cls-2 {
        fill: #1a87c7;
      }

      .cls-3 {
        fill: #66ceef;
      }
    </style>
  </defs>
  <g id="_Layer_" data-name="&amp;lt;Layer&amp;gt;">
    <g>
      <path class="cls-1" d="M7.44,81.41l-5.67-3.27c-.99-.81-1.04-1.32-1.16-2.55l.02-33.34,5.67,3.28-.02,33.34c.12,1.24.17,1.74,1.16,2.55Z"/>
      <path class="cls-2" d="M1.23,43.31v32.27c.1,1.11.13,1.42.92,2.08l3.6,2.07c-.04-.25-.05-.51-.08-.82l.02-33.04-4.45-2.56h0ZM7.44,82.02c-.11,0-.21-.03-.31-.08l-5.67-3.27c-1.23-1-1.34-1.68-1.46-3.02l.02-33.4c0-.22.11-.42.3-.53.19-.1.43-.1.62,0l5.67,3.28c.19.11.31.31.31.53l-.02,33.34c.1,1.1.12,1.41.92,2.07.26.21.29.57.12.83-.12.17-.31.26-.5.26Z"/>
      <path class="cls-3" d="M6.29,45.52l-5.67-3.28v-10.8c.12-2.72,1.66-5.37,3.95-6.83L45.28,1.13c1.13-.52,1.6-.72,2.78-.27l5.66,3.27c-1.18-.45-1.65-.25-2.78.27L10.24,27.89c-2.29,1.46-3.83,4.1-3.95,6.83v10.8Z"/>
      <path class="cls-2" d="M1.23,41.89l4.45,2.56v-9.74c.12-2.97,1.73-5.77,4.22-7.35L50.64,3.87c.29-.14.55-.26.8-.35l-3.68-2.12c-.87-.32-1.15-.19-2.21.29L4.88,25.15c-2.12,1.35-3.53,3.78-3.63,6.32l-.02,10.42h0ZM6.29,46.14c-.1,0-.21-.03-.31-.09l-5.66-3.27c-.19-.11-.3-.31-.3-.54v-10.8c.12-2.97,1.74-5.77,4.22-7.35L44.97.6c1.27-.59,1.93-.83,3.32-.31l5.75,3.31c.28.16.38.51.24.8-.14.29-.47.43-.76.31-.95-.36-1.25-.23-2.31.25L10.55,28.42c-2.12,1.35-3.53,3.78-3.64,6.32v10.78c0,.22-.12.42-.31.53-.1.05-.2.08-.31.08Z"/>
      <path class="cls-3" d="M10.24,27.89L50.95,4.41c2.17-1.25,3.95-.23,3.95,2.28l-.02,10.79L6.29,45.52v-10.8c0-2.5,1.77-5.58,3.95-6.83Z"/>
      <path class="cls-2" d="M10.55,28.42c-1.96,1.14-3.64,4.02-3.64,6.29v9.74l47.35-27.33V6.69c0-.99-.29-1.7-.85-2.02-.53-.31-1.3-.22-2.15.27L10.55,28.42h0ZM6.29,46.14c-.1,0-.21-.03-.31-.09-.19-.1-.29-.31-.29-.53v-10.8c0-2.7,1.91-6.01,4.26-7.36h0L50.64,3.87c1.25-.72,2.47-.82,3.41-.27.94.55,1.46,1.64,1.46,3.09v10.79c0,.22-.13.42-.31.53L6.6,46.05c-.1.05-.2.08-.31.08Z"/>
      <path class="cls-1" d="M54.88,17.48v33.35c0,2.51-1.77,5.58-3.95,6.83-14.93,8.61-25.78,14.87-40.71,23.48-2.17,1.25-3.95.23-3.95-2.27l.02-33.34,48.59-28.04Z"/>
      <path class="cls-2" d="M6.92,45.87l-.02,32.99c0,.98.29,1.7.85,2.01.53.32,1.3.22,2.15-.27l40.71-23.48c1.96-1.13,3.64-4.02,3.64-6.29l.02-32.28L6.92,45.87h0ZM8.47,82.29c-.49,0-.94-.12-1.34-.35-.94-.55-1.46-1.64-1.46-3.08l.02-33.34c0-.22.11-.42.29-.53l48.6-28.04c.19-.11.41-.11.61,0,.19.11.31.31.31.53l-.02,33.35c0,2.71-1.91,6.01-4.24,7.36l-40.71,23.48c-.71.41-1.42.62-2.06.62Z"/>
      <path class="cls-1" d="M36.14,18.49c1.06-.61,1.91-.11,1.91,1.1s-.85,2.69-1.91,3.3c-1.04.6-1.9.12-1.9-1.1s.85-2.69,1.9-3.3Z"/>
      <path class="cls-2" d="M36.14,18.49h.02-.02ZM36.99,18.85c-.14,0-.34.06-.54.18h0c-.87.5-1.6,1.76-1.6,2.76,0,.35.11.61.26.7.16.09.44.04.73-.13.85-.5,1.58-1.77,1.58-2.76,0-.35-.08-.61-.24-.7-.05-.03-.12-.04-.19-.04h0ZM35.29,23.76c-.28,0-.56-.07-.8-.21-.54-.32-.87-.96-.87-1.77,0-1.43.97-3.12,2.23-3.83h0c.69-.4,1.4-.46,1.97-.14.53.32.85.96.85,1.77,0,1.43-.95,3.11-2.21,3.83-.38.23-.79.34-1.17.35Z"/>
      <path class="cls-1" d="M42.71,14.7c1.04-.6,1.9-.11,1.9,1.1s-.85,2.69-1.9,3.3c-1.06.61-1.91.12-1.91-1.1s.85-2.69,1.91-3.29Z"/>
      <path class="cls-2" d="M43.54,15.06c-.14,0-.33.06-.54.18h0c-.85.5-1.6,1.77-1.6,2.76,0,.35.11.61.26.7.16.09.42.04.73-.14.87-.5,1.6-1.77,1.6-2.76,0-.35-.1-.61-.26-.7-.05-.03-.11-.05-.19-.05h0ZM41.84,19.97c-.28,0-.55-.07-.8-.21-.54-.31-.85-.96-.85-1.77,0-1.43.98-3.11,2.21-3.82h0c.7-.4,1.41-.45,1.96-.14.54.32.87.96.87,1.77,0,1.44-.97,3.11-2.23,3.83-.38.23-.78.34-1.16.34Z"/>
      <path class="cls-1" d="M49.27,10.92c1.04-.61,1.89-.12,1.89,1.1s-.85,2.69-1.89,3.3c-1.06.61-1.91.12-1.91-1.1s.85-2.69,1.91-3.3Z"/>
      <path class="cls-2" d="M50.1,11.27c-.14,0-.33.06-.54.18-.85.5-1.58,1.76-1.58,2.76,0,.35.09.61.25.7.15.08.43.04.73-.14.87-.5,1.6-1.77,1.6-2.76,0-.35-.11-.61-.26-.7-.06-.03-.1-.04-.19-.04h0ZM48.41,16.19c-.29,0-.57-.07-.8-.21-.56-.31-.87-.96-.87-1.77,0-1.43.97-3.11,2.21-3.83.7-.4,1.41-.45,1.97-.13.55.31.87.96.87,1.77,0,1.43-.98,3.11-2.23,3.83-.38.23-.78.34-1.15.34Z"/>
      <polygon class="cls-3" points="21.52 53.97 21.52 52.21 29.62 47.52 29.62 49.29 21.52 53.97"/>
      <path class="cls-2" d="M22.13,52.57v.34l6.89-3.97v-.34l-6.89,3.97h0ZM21.52,54.58c-.1,0-.23-.03-.31-.08-.19-.11-.31-.31-.31-.53v-1.76c0-.22.13-.42.31-.53l8.12-4.68c.19-.12.42-.12.61,0,.19.11.31.31.31.53v1.76c0,.22-.12.42-.31.53l-8.12,4.68c-.08.06-.19.08-.29.08Z"/>
      <polygon class="cls-3" points="12.46 57.2 12.46 54.47 18.32 48.42 12.46 49.15 12.46 46.45 20.86 45.8 20.86 48.12 12.46 57.2"/>
      <path class="cls-2" d="M13.07,54.72v.91l7.18-7.76v-1.41l-7.18.55v1.44l5.18-.65c.25-.04.51.1.63.34.1.24.07.51-.12.7l-5.69,5.88h0ZM12.46,57.82c-.08,0-.15-.02-.22-.04-.24-.09-.4-.32-.4-.57v-2.73c0-.16.07-.31.17-.43l4.64-4.79-4.12.52c-.17.03-.35-.03-.49-.15-.12-.12-.21-.29-.21-.47v-2.7c0-.33.26-.59.58-.62l8.41-.65c.16-.02.33.04.45.16.14.11.21.28.21.45v2.32c0,.16-.07.31-.17.42l-8.39,9.08c-.12.13-.29.2-.46.2Z"/>
    </g>
  </g>
</svg>