<?xml version="1.0" encoding="UTF-8"?>
<svg id="Layer_2" data-name="Layer 2" xmlns="http://www.w3.org/2000/svg" viewBox="0 0 45.29 31.56" fill="currentColor">
  <defs>
    <style>
      .cls-1 {
        fill: #fff;
      }

      .cls-1, .cls-2, .cls-3, .cls-4 {
        fill-rule: evenodd;
      }

      .cls-2, .cls-5 {
        fill: #1a87c7;
      }

      .cls-3 {
        fill: #bdedf8;
      }

      .cls-4 {
        fill: #66ceef;
      }
    </style>
  </defs>
  <g id="_Layer_" data-name="&amp;lt;Layer&amp;gt;">
    <g>
      <path class="cls-3" d="M10.57,30.99L1.42,25.73c-1.9-1.1-.95-4.63-.16-6.04.65-1.16,1.61-2.07,2.94-2.84l4.9-2.83L31.99.79c.14-.08,1.36-.98,2.9-.09l8.5,4.9c-.26-.1-.54-.15-.84-.15-.52,0-1.09.16-1.66.49-.57.33-2.12,1.23-2.69,1.55-8.19,4.72-16.37,9.44-24.56,14.17-1.23.71-2.33,1.59-3.13,2.68-.81,1.11-1.3,2.43-1.3,3.99,0,.71.15,1.3.42,1.76.22.38.54.7.93.9Z"/>
      <path class="cls-2" d="M10.21,31.14L1.27,25.99C.37,25.48.03,24.51,0,23.45c-.04-1.43.51-3.05.99-3.91.34-.61.76-1.15,1.27-1.64.51-.49,1.1-.93,1.78-1.32L31.87.51c.28-.18,1.57-1,3.18-.07l8.5,4.9c.15.08.2.27.11.42-.08.13-.24.19-.37.13-.11-.04-.23-.07-.35-.1-.13-.02-.25-.03-.38-.03-.24,0-.48.04-.74.11h-.01c-.25.08-.5.19-.76.33l-27.25,15.72c-.62.36-1.22.77-1.75,1.22-.48.42-.92.87-1.29,1.37-.4.55-.72,1.15-.93,1.8-.2.62-.31,1.28-.31,2,0,.32.04.62.1.89.07.27.16.52.28.72.1.17.22.33.36.46.09.09.19.17.3.24l.14.08c.15.08.21.26.14.41-.08.15-.26.21-.41.13-.07-.04-.15-.08-.22-.13h0ZM1.57,25.46l7.6,4.38c-.06-.15-.11-.31-.15-.49-.07-.31-.11-.66-.11-1.03,0-.79.12-1.52.34-2.2.24-.72.58-1.38,1.02-1.97.4-.54.86-1.03,1.38-1.48.56-.48,1.18-.91,1.84-1.29l27.25-15.72c.3-.17.6-.3.89-.39h.01c.14-.05.28-.08.42-.1l-7.32-4.22c-1.29-.74-2.32-.08-2.54.06L4.35,17.11c-.64.37-1.2.78-1.67,1.23-.47.45-.85.95-1.16,1.5-.45.79-.95,2.29-.91,3.6.02.86.28,1.63.96,2.02Z"/>
      <path class="cls-1" d="M13.65,21.66c-1.23.71-2.33,1.59-3.13,2.68-.81,1.11-1.3,2.43-1.3,3.99,0,2.45,1.92,3.68,4.08,2.43,9.08-5.24,18.17-10.48,27.24-15.72,1.23-.71,2.33-1.59,3.13-2.68.81-1.11,1.3-2.43,1.3-3.99,0-.71-.15-1.3-.42-1.76-.22-.38-.51-.67-.85-.86-.34-.2-.74-.3-1.15-.29-.52,0-1.09.16-1.66.49-.57.33-2.12,1.23-2.69,1.55-8.19,4.72-16.37,9.44-24.56,14.17Z"/>
      <path class="cls-2" d="M13.8,21.92c-.62.36-1.22.77-1.75,1.22-.48.42-.92.87-1.29,1.37-.4.55-.72,1.15-.93,1.8-.2.62-.31,1.28-.31,2,0,.64.14,1.18.38,1.61.19.32.44.58.73.75.29.17.63.26,1,.26.46,0,.98-.14,1.51-.45l27.24-15.72c.62-.36,1.21-.77,1.75-1.22.49-.42.92-.87,1.29-1.37.4-.55.72-1.15.93-1.8.2-.62.31-1.28.31-2,0-.32-.04-.62-.1-.89-.07-.27-.16-.52-.28-.72-.09-.16-.2-.31-.33-.43-.12-.13-.26-.23-.41-.31-.15-.08-.31-.15-.47-.19-.17-.04-.35-.07-.53-.06-.24,0-.48.04-.74.11-.25.07-.51.18-.77.33l-27.25,15.72h0ZM11.66,22.68c.56-.48,1.18-.91,1.84-1.29l27.25-15.72c.3-.17.61-.3.9-.39.31-.09.61-.14.91-.14.24,0,.47.03.68.08.22.06.43.14.62.25.2.11.38.25.54.42.16.16.3.35.42.56.15.26.27.56.35.89.07.31.11.66.11,1.03,0,.79-.12,1.52-.34,2.19-.23.72-.58,1.38-1.02,1.97-.4.54-.86,1.03-1.38,1.48-.56.48-1.18.9-1.84,1.29l-27.24,15.72c-.63.36-1.25.53-1.82.53-.48,0-.93-.12-1.31-.35-.38-.23-.71-.56-.95-.97-.3-.51-.47-1.16-.47-1.91,0-.79.12-1.52.34-2.2.24-.72.58-1.38,1.02-1.97.4-.54.86-1.03,1.38-1.48Z"/>
      <path class="cls-4" d="M40.92,8.62c.76-.44,1.82.11,1.82,1.05,0,.48-.16.92-.42,1.3-.28.41-.69.75-1.1.99l-2.02,1.16-25.92,14.95c-.54.31-1.35.1-1.66-.44-.61-1.05.48-2.39,1.37-2.9,9.31-5.37,18.62-10.74,27.93-16.11Z"/>
      <path class="cls-2" d="M40.76,8.35c.23-.13.49-.2.73-.2.27,0,.54.07.77.21s.44.33.58.56c.12.22.2.47.2.74s-.04.52-.12.76c-.08.26-.2.49-.35.71-.15.22-.33.42-.53.6-.21.19-.44.35-.68.49L13.43,28.34c-.35.2-.77.23-1.15.13-.38-.1-.73-.34-.93-.69h0c-.37-.64-.23-1.34.12-1.96.33-.57.87-1.08,1.35-1.36l27.94-16.12h0ZM41.5,8.77c-.15,0-.3.04-.43.11L13.13,25c-.4.24-.85.65-1.13,1.14-.25.44-.36.92-.12,1.33h0c.12.21.32.35.56.41.23.06.49.05.69-.07l27.94-16.11c.2-.11.39-.25.57-.41.16-.15.31-.31.43-.49.12-.17.21-.36.28-.55.06-.18.09-.37.09-.57,0-.16-.04-.31-.11-.43-.08-.14-.2-.26-.35-.34-.14-.08-.31-.12-.47-.12Z"/>
      <path class="cls-3" d="M37.37,8.93v2.09c-.08.41-.36.65-.7.86l-14.16,8.19c-.9.5-2.21.57-3.12.07l-9.97-5.75c-.28-.17-.5-.37-.57-.7v-2.04c.09.19.26.37.51.52l10.06,5.8c.82.47,2.21.44,3.09-.07l14.18-8.2c.38-.22.61-.49.68-.77Z"/>
      <path class="cls-4" d="M20.78,20.47c-.5,0-.99-.11-1.4-.34l-9.97-5.75c-.28-.17-.5-.37-.57-.7v-2.04c.09.19.26.37.51.52l10.06,5.8c.37.21.86.32,1.37.33v2.17Z"/>
      <path class="cls-2" d="M37.67,8.93v2.15c-.06.26-.17.47-.33.65-.15.16-.33.29-.52.41l-14.17,8.19c-.5.28-1.12.44-1.73.45-.59.01-1.19-.11-1.68-.37-2.95-1.84-6.91-4.17-9.98-5.76-.17-.1-.31-.21-.44-.35-.13-.15-.23-.33-.27-.55v-.07s0-2.04,0-2.04l.59-.12c.03.07.07.13.13.19.07.07.15.13.25.19l10.06,5.8c.36.21.85.3,1.36.29.51-.01,1.03-.13,1.42-.36l14.18-8.2c.16-.09.28-.19.37-.29.08-.1.14-.2.16-.29l.61.08h0ZM37.06,10.99v-1.17c-.07.05-.14.1-.22.14l-14.18,8.2c-.49.28-1.11.43-1.72.45-.61.01-1.22-.11-1.68-.37l-10.11-5.83v1.25c.03.1.07.18.13.24.07.08.17.16.29.23l9.96,5.74c.4.22.88.31,1.37.3.51-.01,1.03-.14,1.44-.37l14.16-8.19c.14-.09.27-.18.37-.29.08-.09.14-.2.17-.33Z"/>
      <path class="cls-1" d="M36.81,7.91l-10.06-5.8c-.82-.47-2.21-.44-3.09.07l-14.18,8.2c-.89.51-.94,1.31-.13,1.79l10.06,5.8c.82.47,2.21.44,3.09-.07l14.18-8.2c.89-.51.94-1.31.13-1.79Z"/>
      <path class="cls-2" d="M36.66,8.18l-10.06-5.8c-.36-.21-.85-.3-1.36-.29-.51.01-1.03.13-1.43.36l-14.18,8.2c-.23.13-.39.28-.47.43-.05.09-.08.17-.08.26,0,.08.02.16.07.24.07.12.19.23.36.33l10.06,5.8c.36.21.85.3,1.36.29.51-.01,1.03-.13,1.42-.36l14.18-8.2c.23-.13.39-.28.47-.43.05-.09.08-.17.08-.25,0-.08-.02-.16-.07-.24-.07-.12-.19-.23-.36-.33h0ZM26.9,1.84l10.06,5.8c.27.16.46.35.58.55.1.17.15.36.15.55,0,.19-.06.37-.16.55-.14.24-.37.47-.7.66l-14.18,8.2c-.49.28-1.11.43-1.72.45-.61.01-1.22-.11-1.68-.37l-10.06-5.8c-.27-.15-.46-.35-.59-.55-.1-.17-.15-.36-.15-.55,0-.19.06-.38.16-.55.14-.24.37-.47.7-.66L23.51,1.92c.49-.28,1.11-.43,1.72-.45.61-.01,1.22.11,1.68.37Z"/>
      <path class="cls-2" d="M22.7,2.39c.23-.08.54-.11.82-.09.3.02.6.1.8.22l11.47,6.62c.1.06.18.13.25.2.11.12.19.26.22.41.03.16.02.33-.07.49-.03.06-.08.12-.14.17l-.42-.45.02-.02s0-.03,0-.05c0-.04-.03-.08-.07-.12-.03-.03-.07-.06-.11-.09l-11.47-6.62c-.12-.07-.33-.12-.54-.14-.21-.02-.42,0-.56.05l-.21-.58h0ZM23.86,17.46l-.21-.58c-.16.06-.34.08-.52.07-.17-.01-.33-.05-.45-.12l-11.57-6.68s-.08-.05-.11-.09c-.04-.04-.06-.08-.07-.12,0-.02,0-.04,0-.05l.02-.02-.41-.45c-.06.05-.1.11-.14.17-.09.15-.11.32-.07.49.03.14.11.29.22.41.07.08.16.15.26.2l11.57,6.68c.2.12.46.18.72.2.26.01.53-.02.76-.11Z"/>
      <path class="cls-2" d="M20.98,11.94c-.15.08-.33.03-.42-.11-.09-.15-.03-.33.11-.42l1.66-.96c.15-.08.34-.03.42.11.08.15.03.33-.11.42l-1.66.96h0ZM24.66,11.78l-3.28,1.89c-.15.08-.2.27-.11.42.08.15.27.2.42.11l3.28-1.89c.15-.08.2-.27.11-.42-.08-.15-.27-.2-.42-.11Z"/>
      <path class="cls-2" d="M15.76,10.97c-.15-.08-.2-.27-.11-.42.09-.15.27-.2.42-.11l1.96,1.13s.12.04.2.04c.08,0,.15-.01.2-.04l.8-.46-1.5-.87c-.1-.06-.18-.14-.23-.23-.05-.08-.07-.16-.07-.25s.02-.17.07-.25l.02-.02c.05-.08.12-.15.22-.2l.91-.52c.15-.08.33-.13.51-.13s.36.04.51.13l1.82,1.05c.15.08.2.27.11.42-.08.15-.27.2-.42.11l-1.82-1.05s-.12-.04-.2-.04-.15.01-.2.04l-.8.46,1.5.87c.11.06.18.14.23.23.05.08.07.16.07.25s-.02.17-.07.25c-.05.09-.13.16-.23.23l-.91.52c-.15.08-.33.13-.51.12-.18,0-.36-.04-.51-.13l-1.96-1.13Z"/>
      <path class="cls-2" d="M23.3,12.74c.15.08.2.27.11.42-.08.15-.27.2-.42.11l-2.32-1.34c-.15-.08-.2-.27-.11-.42.08-.15.27-.2.42-.11l2.32,1.34Z"/>
      <path class="cls-2" d="M25.77,11.66l-2.3-1.33c-.15-.08-.2-.27-.11-.42.03-.05.07-.09.11-.11l3.28-1.89c.1-.06.23-.05.32,0l2.3,1.33c.15.08.2.27.11.42-.03.05-.07.09-.11.11l-3.28,1.89c-.1.06-.23.05-.32,0h0ZM24.23,10.06l1.71.98,2.67-1.54-1.71-.98-2.67,1.54Z"/>
      <path class="cls-2" d="M24.37,6.66c.15-.08.33-.03.42.11.08.15.03.33-.11.42l-3.28,1.89c-.15.08-.33.03-.42-.11-.08-.15-.03-.33.11-.42l3.28-1.89Z"/>
      <path class="cls-2" d="M24.68,6.66c.15.08.2.27.11.42-.09.15-.27.2-.42.11l-.82-.47c-.15-.08-.2-.27-.11-.42.08-.15.27-.2.42-.11l.82.47Z"/>
      <path class="cls-2" d="M33.12,9.42c.15.08.2.27.11.42-.08.15-.27.2-.42.11l-.89-.51c-.15-.08-.2-.27-.11-.42.08-.15.27-.2.42-.11l.89.52Z"/>
      <path class="cls-2" d="M31.33,8.39c.15.08.2.27.11.42-.08.15-.27.2-.42.11l-.89-.52c-.15-.08-.2-.27-.11-.42.08-.15.27-.2.42-.11l.89.52Z"/>
      <rect class="cls-5" x="20.47" y="18.26" width=".61" height="2.25"/>
    </g>
  </g>
</svg>