<?xml version="1.0" encoding="UTF-8"?>
<svg id="Layer_2" data-name="Layer 2" xmlns="http://www.w3.org/2000/svg" viewBox="0 0 70.79 84.99" fill="currentColor">
  <defs>
    <style>
      .cls-1 {
        fill: #fff;
      }

      .cls-1, .cls-2, .cls-3, .cls-4 {
        fill-rule: evenodd;
      }

      .cls-2 {
        fill: #1a87c7;
      }

      .cls-3 {
        fill: #bdedf8;
      }

      .cls-4 {
        fill: #66ceef;
      }
    </style>
  </defs>
  <g id="_Layer_" data-name="&amp;lt;Layer&amp;gt;">
    <g>
      <path class="cls-4" d="M56.07,28.82c-5.94-3.43-10.74-11.75-10.74-18.6s4.8-9.63,10.74-6.2c5.93,3.42,10.73,11.75,10.73,18.6s-4.8,9.63-10.73,6.2Z"/>
      <path class="cls-2" d="M51.27,3.16c-.92,0-1.76.21-2.48.64-1.84,1.04-2.85,3.34-2.85,6.41,0,6.64,4.7,14.74,10.43,18.06h0c2.68,1.55,5.16,1.81,6.98.75,1.83-1.04,2.84-3.32,2.84-6.41,0-6.64-4.67-14.75-10.43-18.06-1.6-.92-3.13-1.39-4.49-1.39h0ZM60.87,30.91c-1.58,0-3.32-.52-5.11-1.57-6.08-3.51-11.06-12.08-11.06-19.12,0-3.55,1.24-6.2,3.46-7.49,2.22-1.28,5.15-1.01,8.21.77,6.1,3.52,11.05,12.1,11.05,19.13,0,3.54-1.23,6.2-3.46,7.49-.92.54-1.97.8-3.09.8Z"/>
      <path class="cls-4" d="M51.02,31.73c-5.93-3.43-10.73-11.73-10.73-18.58s4.8-9.64,10.73-6.21c5.93,3.43,10.74,11.75,10.74,18.6s-4.82,9.61-10.74,6.19Z"/>
      <path class="cls-2" d="M46.23,6.08c-.92,0-1.75.21-2.5.63-1.82,1.06-2.83,3.34-2.83,6.43,0,6.64,4.68,14.74,10.43,18.06,2.67,1.53,5.15,1.81,6.98.75,1.83-1.06,2.84-3.34,2.84-6.41,0-6.64-4.7-14.74-10.43-18.08-1.6-.92-3.13-1.38-4.49-1.38h0ZM55.81,33.83c-1.56,0-3.3-.53-5.09-1.56-6.1-3.51-11.06-12.1-11.06-19.12,0-3.55,1.24-6.21,3.46-7.49,2.22-1.29,5.15-1.03,8.21.74,6.08,3.52,11.05,12.1,11.05,19.14,0,3.54-1.23,6.19-3.46,7.47-.92.54-1.98.82-3.11.82Z"/>
      <path class="cls-3" d="M49.24,2.9l3.35-1.94.41-.12c1.03-.3,2.17-.28,3.22-.05,2.36.52,4.66,2.07,6.4,3.7,3.91,3.67,7.04,9.51,7.49,14.9.16,1.84,0,3.93-.8,5.63-.29.66-.74,1.34-1.29,1.84l-.31.3-3.37,1.92c.23-.19.42-.36.63-.59.61-.7,1.07-1.58,1.35-2.47.8-2.5.49-5.55-.17-8.05-1.39-5.17-4.99-10.73-9.54-13.63-1.51-.96-3.37-1.75-5.2-1.79-.57-.02-1.24.07-1.77.21l-.4.14Z"/>
      <path class="cls-2" d="M52.06,1.98c1.93.19,3.7,1.1,4.88,1.86,4.43,2.81,8.29,8.29,9.8,13.98.49,1.81,1.15,5.3.16,8.39-.09.29-.21.59-.33.89l1.06-.69c.42-.42.84-1.03,1.13-1.65.83-1.78.85-3.88.73-5.32-.4-4.99-3.34-10.81-7.28-14.52-1.15-1.06-3.47-2.95-6.1-3.53-1.04-.23-2.07-.21-2.94.03l-.38.13-.73.43h0ZM64.35,29.71c-.19,0-.38-.08-.49-.26-.19-.24-.15-.61.09-.81.23-.21.38-.35.56-.55.52-.59.95-1.39,1.24-2.24.89-2.8.26-6.03-.18-7.72-1.44-5.39-5.09-10.61-9.28-13.27-1.18-.74-2.99-1.65-4.88-1.7-.54-.02-1.12.07-1.58.21l-.38.12c-.31.09-.63-.05-.76-.33-.12-.29-.02-.62.26-.78l3.37-1.95.51-.19c1.37-.38,2.69-.25,3.56-.05,2.92.62,5.44,2.68,6.67,3.84,4.23,3.95,7.24,9.96,7.69,15.3.14,1.6.1,3.92-.83,5.94-.37.76-.87,1.49-1.42,2.03l-.35.3-3.46,2.02c-.11.05-.21.08-.31.08Z"/>
      <path class="cls-3" d="M44.24,5.81l3.35-1.95.4-.12c1.05-.3,2.19-.28,3.24-.05,2.36.52,4.66,2.07,6.39,3.68,3.91,3.67,7.04,9.53,7.49,14.92.16,1.84,0,3.93-.8,5.63-.3.66-.76,1.34-1.29,1.84l-.31.29-3.37,1.93c.23-.19.42-.37.62-.59.61-.7,1.06-1.58,1.36-2.47.8-2.5.49-5.54-.17-8.05-1.39-5.17-4.99-10.72-9.54-13.63-1.51-.96-3.37-1.76-5.2-1.79-.57-.02-1.23.05-1.77.21l-.4.14Z"/>
      <path class="cls-2" d="M47.05,4.89c1.93.19,3.7,1.09,4.88,1.84,4.43,2.82,8.29,8.31,9.8,14,.49,1.81,1.15,5.3.15,8.39-.08.3-.2.59-.33.89l1.06-.69c.41-.42.83-1.03,1.13-1.65.84-1.78.85-3.88.73-5.34-.42-4.97-3.34-10.79-7.3-14.5-1.15-1.07-3.46-2.96-6.09-3.53-1.04-.22-2.09-.21-2.93.04l-.38.12-.73.44h0ZM59.34,32.61c-.19,0-.38-.08-.49-.26-.19-.26-.16-.61.09-.82.23-.2.38-.35.56-.53.52-.59.95-1.39,1.23-2.26.89-2.78.26-6.02-.17-7.7-1.46-5.39-5.09-10.61-9.28-13.27-1.18-.74-2.99-1.67-4.88-1.7-.5-.03-1.11.07-1.58.19l-.38.14c-.31.09-.62-.05-.76-.35-.12-.28-.02-.62.26-.78l3.36-1.93.52-.19c1.37-.38,2.69-.25,3.56-.05,2.92.62,5.42,2.68,6.68,3.83,4.22,3.96,7.23,9.96,7.68,15.31.14,1.6.09,3.93-.85,5.95-.35.76-.85,1.49-1.41,2.04l-.35.29-3.46,2.02c-.11.05-.21.08-.31.08Z"/>
      <path class="cls-1" d="M40.71,36.41c.15,9.16-.09,8.24-5.77,17.41-2.35-1.38-4.05-2.54-5.53-3.48-7.1-4.42-21.21-3.63-25.53,3.01-4.9,7.55-4.71,19.66,3.22,25.92,8.69,6.85,16.62,5.6,25.31,3.01,1.91-.57,3.82-1.15,5.74-1.72,10.29.68,10.31,1.4,17.01-2.05,1.86-.95,2.99-2.67,3.11-4.76.17-2.52.33-5.04.49-7.56,2.09-13.05.02-18.65-2.89-31.81.04-3.39,1.01-8.64.4-13.66-.34-2.9-1.15-5.29-2.89-6.28l-6.05-3.35c-.66-.25-1.51.52-2.09.78-.35.12-.57.17-.92.02l-.92-.51c-.42-.17-.7-.08-1.08.1-.52.3-.92.71-1.46.94-.52.19-.94.04-1.51.17-.52.18-1.06.49-1.48.83-.59.49-.77.79-1.53,1.12-.5.19-.94.26-1.43.52-.68.32-1.13.69-1.48,1.35-.61,1.32-.71,2.97-.8,4.4-.21,4.34.56,5.33,3.32,7.92.09.09.24.13.35.05l1.37-.77c-.07.59-.87,1.48-1.69,2.2-1.23,1.07-1.73,1.2-3.26,1.7-.61.19-1.18.38-1.42.48-.84.4-3.86,1.63-4.23,2.33-.52,1.11.13,2.4.51,2.8.43.45,1.27.52,2.09.44.5-.05,1.74-.33,2.33-.42-.03.1-.02.14.11.13,1.48-.25,4.4-1.1,6-1.29,1.13-.14,1.94-.1,2.61.03Z"/>
      <path class="cls-2" d="M18.11,48.17c-5.63,0-11.28,1.78-13.72,5.51C-.3,60.93-.2,72.73,7.47,78.78c8.75,6.9,16.71,5.3,24.75,2.91l5.74-1.71c.07-.03.14-.03.22-.03,1.6.1,2.94.2,4.1.29,6.26.49,7.06.56,12.57-2.28,1.69-.86,2.68-2.38,2.8-4.26l.49-7.56c1.79-11.29.52-16.79-1.77-26.79-.35-1.51-.72-3.11-1.09-4.85,0-1.3.1-2.66.22-4.1.26-2.97.56-6.33.15-9.63-.36-3.08-1.23-5.04-2.59-5.82l-6.03-3.34c-.08-.07-.66.29-.95.47-.21.14-.4.24-.58.33-.5.19-.88.26-1.42.02l-.98-.52c-.1-.03-.17-.05-.52.12-.16.09-.35.23-.52.37-.28.21-.57.41-.95.59-.71.26-1.15.07-1.6.19-.38.12-.84.38-1.25.71-.16.12-.28.25-.38.35-.33.3-.64.59-1.29.85-.23.09-.41.16-.59.21-.28.08-.52.16-.81.29-.61.31-.94.63-1.2,1.12-.56,1.2-.64,2.83-.73,4.13-.19,4.05.45,4.92,2.97,7.28l1.15-.65c.21-.12.46-.1.64.02.19.12.3.35.28.57-.08.87-1.07,1.9-1.89,2.61-1.25,1.1-1.86,1.28-3.18,1.72l-.3.09c-.59.19-1.13.38-1.36.49l-.57.24c-.76.35-3.08,1.36-3.37,1.81-.37.76.14,1.81.41,2.07.23.24.83.35,1.57.26.28-.04.82-.14,1.32-.25.37-.07.73-.14.98-.17.15-.04.29,0,.41.07.61-.12,1.39-.29,2.19-.5,1.27-.29,2.59-.62,3.51-.73,1.13-.14,2.02-.12,2.82.03.28.06.49.3.49.59.15,8.24-.09,8.63-4.02,14.83-.54.85-1.15,1.81-1.84,2.9-.18.3-.54.38-.82.21-1.63-.94-2.94-1.79-4.1-2.54-.51-.33-.99-.64-1.46-.94-2.85-1.78-6.9-2.7-10.97-2.7h0ZM20.94,84.99c-4.57,0-9.26-1.32-14.23-5.25-8.19-6.47-8.35-19.04-3.34-26.72,4.51-6.94,19.14-7.7,26.36-3.2.47.3.98.61,1.49.96,1.01.66,2.16,1.39,3.53,2.21.56-.9,1.06-1.7,1.51-2.42,3.81-6.02,3.97-6.26,3.84-13.63-.56-.05-1.18-.04-1.93.05-.87.11-2.14.42-3.37.71-.99.25-1.93.47-2.6.58-.12.03-.29,0-.46-.07-.17.04-.38.07-.59.13-.54.11-1.12.2-1.41.24-.82.11-1.93.07-2.59-.61-.49-.5-1.3-2.07-.62-3.5.35-.68,1.67-1.36,3.98-2.36l.54-.26c.25-.11.85-.31,1.49-.52l.29-.09c1.27-.41,1.71-.56,2.77-1.49.12-.1.26-.22.37-.33-.16-.04-.3-.13-.42-.23-2.8-2.62-3.75-3.75-3.51-8.39.07-1.42.17-3.19.83-4.64.42-.75.92-1.22,1.78-1.66.35-.17.66-.28.99-.38.16-.05.33-.11.5-.17.42-.17.61-.33.89-.61.14-.12.28-.24.45-.4.54-.41,1.15-.74,1.69-.93.7-.18,1.11-.02,1.49-.16.21-.09.43-.26.68-.44.23-.18.44-.33.68-.47.49-.23.96-.41,1.63-.14l.98.53c.08.04.14.06.41-.05.09-.06.25-.14.4-.25.57-.35,1.36-.83,2.12-.54l6.11,3.38c1.74,1.01,2.78,3.21,3.22,6.76.4,3.43.11,6.85-.16,9.88-.12,1.41-.24,2.76-.24,3.86.36,1.6.73,3.22,1.08,4.73,2.26,9.81,3.61,15.73,1.79,27.19l-.47,7.49c-.16,2.31-1.41,4.22-3.46,5.28-5.82,2.99-6.81,2.92-13.23,2.42-1.13-.09-2.45-.19-4-.3l-5.63,1.69c-3.86,1.15-7.7,2.12-11.63,2.12Z"/>
      <path class="cls-2" d="M42.65,18.48c-.11,0-.23-.04-.31-.1l-5.81-3.48c-.29-.17-.38-.53-.21-.83.17-.29.56-.38.85-.2l5.79,3.47c.29.17.38.56.21.83-.11.19-.32.31-.52.31Z"/>
      <path class="cls-2" d="M46.08,16.6c-.1,0-.21-.04-.31-.09l-5.81-3.47c-.3-.19-.38-.56-.21-.85.17-.29.56-.38.85-.21l5.8,3.48c.28.17.39.56.21.85-.12.19-.33.3-.53.3Z"/>
      <path class="cls-2" d="M49.88,15.84c-.11,0-.21-.04-.31-.09l-5.84-3.51c-.3-.17-.38-.54-.21-.83.17-.3.54-.38.83-.21l5.86,3.5c.28.17.38.56.21.85-.12.2-.33.3-.54.3Z"/>
      <path class="cls-2" d="M38.76,69.39c-.09,0-.16-.02-.24-.04-2.92-1.22-4.57-5.04-5.17-8.2-.62-3.46-.17-6.52,1.16-7.79.25-.23.64-.23.87.02.25.26.23.64-.02.89-1.03.95-1.36,3.68-.8,6.65.52,2.85,1.96,6.26,4.41,7.28.31.14.47.49.33.8-.08.24-.31.38-.56.38Z"/>
      <path class="cls-2" d="M21.19,72.78c-5.63,0-11.63-2.69-15.75-7.09-.23-.24-.23-.62.04-.86.24-.23.62-.21.87.03,4,4.26,9.8,6.83,15.26,6.68,4.1-.11,7.56-1.67,10.01-4.57.23-.24.61-.28.87-.07.26.23.3.61.07.87-2.7,3.16-6.47,4.9-10.92,5.01-.16,0-.29.02-.45.02Z"/>
      <path class="cls-2" d="M38.14,81.18s-.07,0-.09-.02c-1.11-.17-2.96-.25-4.92-.31-4.73-.16-10.07-.33-11.52-2.21-.21-.28-.16-.66.1-.87.28-.21.67-.16.87.1,1.09,1.43,6.59,1.61,10.59,1.76,2.09.07,3.89.12,5.08.33.35.05.57.37.5.69-.06.31-.31.52-.61.52Z"/>
      <path class="cls-2" d="M56.33,77.68c-.21,0-.4-.08-.52-.28-1.61-2.43-1.34-11.42-.85-19.92.07-1.13.1-1.95.1-2.25,0-.35.28-.62.61-.62.36.04.62.26.62.61,0,.31-.03,1.15-.1,2.35-.28,4.57-.97,16.74.64,19.16.19.28.12.66-.17.85-.11.07-.21.11-.33.11Z"/>
      <path class="cls-4" d="M31.45,43.51c-5.93-3.43-10.73-11.75-10.73-18.6s4.8-9.63,10.73-6.2c5.95,3.43,10.75,11.77,10.75,18.62s-4.8,9.62-10.75,6.19Z"/>
      <path class="cls-2" d="M26.68,17.85c-.92,0-1.76.2-2.48.64-1.84,1.06-2.85,3.34-2.85,6.41,0,6.64,4.67,14.74,10.43,18.06h0c2.68,1.55,5.15,1.81,6.99.76,1.82-1.06,2.84-3.34,2.84-6.41,0-6.66-4.68-14.76-10.43-18.08-1.6-.92-3.13-1.39-4.48-1.39h0ZM36.28,45.6c-1.58,0-3.32-.52-5.11-1.55-6.1-3.53-11.06-12.1-11.06-19.14,0-3.54,1.24-6.2,3.46-7.49,2.22-1.27,5.14-1.01,8.2.76,6.1,3.52,11.06,12.1,11.06,19.14,0,3.53-1.23,6.19-3.46,7.48-.92.53-1.96.8-3.09.8Z"/>
      <path class="cls-3" d="M19.59,20.51l3.37-1.95.4-.12c1.04-.31,2.19-.28,3.23-.05,2.35.52,4.66,2.07,6.38,3.69,3.93,3.67,7.06,9.53,7.49,14.91.16,1.85.02,3.93-.78,5.63-.31.66-.76,1.34-1.29,1.85l-.33.29-3.35,1.93c.23-.19.41-.36.62-.59.61-.7,1.06-1.58,1.34-2.47.8-2.5.5-5.54-.16-8.04-1.39-5.17-4.99-10.73-9.54-13.63-1.53-.95-3.37-1.75-5.22-1.79-.56-.02-1.22.05-1.76.2l-.41.14Z"/>
      <path class="cls-2" d="M22.42,19.59c1.91.19,3.69,1.1,4.89,1.85,4.43,2.81,8.27,8.31,9.8,13.99.48,1.81,1.15,5.3.16,8.4-.09.29-.21.59-.33.89l1.04-.7c.43-.41.85-1.02,1.15-1.65.64-1.39.9-3.28.73-5.32-.42-4.99-3.34-10.81-7.3-14.51-1.15-1.08-3.46-2.96-6.09-3.53-1.04-.23-2.09-.23-2.93.04l-.38.12-.73.43h0ZM34.71,47.32c-.19,0-.38-.09-.5-.26-.18-.26-.14-.61.08-.82.23-.19.38-.35.58-.56.52-.58.95-1.37,1.22-2.24.9-2.78.28-6.01-.17-7.7-1.44-5.39-5.08-10.61-9.26-13.26-1.18-.75-3.01-1.67-4.89-1.7-.54-.04-1.13.07-1.6.19l-.36.14c-.31.09-.64-.05-.77-.35-.12-.28-.02-.62.26-.78l3.36-1.93.52-.19c1.37-.4,2.69-.25,3.56-.05,2.9.62,5.42,2.67,6.68,3.82,4.22,3.97,7.23,9.96,7.68,15.32.13,1.6.09,3.93-.85,5.95-.37.77-.87,1.49-1.43,2.03l-.33.29-3.46,2.02c-.11.05-.21.09-.32.09Z"/>
      <path class="cls-4" d="M26.42,46.43c-5.93-3.42-10.73-11.75-10.73-18.6s4.79-9.63,10.73-6.21c5.93,3.43,10.74,11.75,10.74,18.6s-4.82,9.63-10.74,6.2Z"/>
      <path class="cls-2" d="M21.64,20.77c-.92,0-1.76.21-2.51.62-1.82,1.06-2.83,3.34-2.83,6.43,0,6.64,4.67,14.74,10.43,18.06h0c2.68,1.55,5.15,1.81,6.99.74,1.82-1.06,2.84-3.34,2.84-6.41,0-6.64-4.7-14.74-10.43-18.06-1.6-.92-3.13-1.39-4.48-1.39h0ZM31.21,48.51c-1.58,0-3.32-.52-5.09-1.56-6.1-3.51-11.06-12.1-11.06-19.12,0-3.55,1.24-6.21,3.46-7.49,2.23-1.29,5.13-1.03,8.21.75,6.08,3.53,11.06,12.1,11.06,19.14,0,3.55-1.23,6.2-3.46,7.49-.92.52-1.98.8-3.11.8Z"/>
      <path class="cls-1" d="M18.37,31.36l3.56-2.05.18-.07c.29-.07.62-.11.94-.07,1.13.1,2.26.83,3.08,1.6,1.65,1.55,2.96,4,3.14,6.26.07.76,0,1.65-.32,2.36-.13.28-.31.56-.54.77l-.14.12-3.55,2.05c.09-.09.17-.16.25-.25.26-.29.45-.66.57-1.04.19-.61.23-1.32.17-1.96-.21-2.64-2-5.68-4.24-7.11-.59-.38-1.28-.68-1.98-.74-.25-.02-.52-.02-.77.03-.12.04-.22.07-.35.11Z"/>
      <path class="cls-2" d="M18.18,30.77l.19.59-.19-.59h0ZM20.52,30.82c.5.17.94.41,1.27.62,2.38,1.51,4.29,4.71,4.54,7.58.03.45.03,1.08-.09,1.7l1.74-1.02c.14-.14.29-.35.4-.58.25-.52.35-1.25.28-2.05-.17-2.02-1.35-4.36-2.96-5.86-.9-.84-1.89-1.37-2.72-1.45-.25-.02-.5,0-.71.07l-.14.03-1.6.94h0ZM24.71,42.95c-.19,0-.38-.09-.5-.26-.19-.24-.16-.61.09-.82.1-.08.16-.14.2-.19.19-.23.35-.51.44-.82.15-.49.2-1.1.15-1.74-.21-2.48-1.91-5.34-3.96-6.64-.42-.28-1.04-.59-1.7-.66-.21-.02-.42,0-.59.03-.09.02-.17.06-.26.07-.29.1-.62-.04-.76-.33-.12-.28-.02-.63.25-.78l3.84-2.16c.38-.11.8-.16,1.2-.11,1.49.12,2.81,1.17,3.46,1.78,1.82,1.7,3.13,4.31,3.32,6.64.07.71.05,1.75-.38,2.68-.16.35-.4.69-.66.95l-.16.14-3.67,2.12c-.09.06-.19.09-.3.09Z"/>
      <path class="cls-3" d="M21.24,42.23c-2.49-1.45-4.5-4.92-4.5-7.81s2.01-4.04,4.5-2.59c2.48,1.43,4.5,4.92,4.5,7.79s-2.02,4.03-4.5,2.61Z"/>
      <path class="cls-2" d="M19.22,31.83c-.31,0-.61.07-.87.21-.64.38-1.01,1.23-1.01,2.38,0,2.68,1.88,5.93,4.19,7.27h0c1.01.57,1.93.69,2.57.31.66-.36,1.01-1.22,1.01-2.38,0-2.66-1.88-5.93-4.19-7.27-.61-.35-1.2-.52-1.7-.52h0ZM23.25,43.46c-.73,0-1.53-.24-2.33-.71-2.69-1.55-4.82-5.21-4.82-8.33,0-1.61.59-2.84,1.64-3.44,1.04-.61,2.4-.49,3.79.31,2.72,1.56,4.82,5.21,4.82,8.33,0,1.62-.57,2.85-1.61,3.46-.46.25-.96.38-1.48.38Z"/>
      <path class="cls-3" d="M24.64,17.59l3.35-1.93.4-.14c1.04-.29,2.19-.26,3.23-.04,2.36.5,4.66,2.05,6.4,3.68,3.91,3.67,7.04,9.53,7.49,14.9.16,1.84,0,3.93-.8,5.63-.3.66-.75,1.34-1.29,1.86l-.31.28-3.37,1.94c.23-.21.41-.36.62-.61.61-.7,1.06-1.58,1.36-2.45.8-2.52.49-5.56-.17-8.05-1.39-5.16-4.99-10.74-9.54-13.63-1.51-.97-3.37-1.77-5.2-1.8-.58-.02-1.24.07-1.77.22l-.4.13Z"/>
      <path class="cls-2" d="M27.46,16.67c1.93.21,3.7,1.1,4.89,1.86,4.43,2.81,8.29,8.31,9.8,13.97.49,1.81,1.15,5.3.16,8.4-.09.31-.21.61-.33.89l1.06-.7c.42-.4.83-1.01,1.13-1.65.83-1.77.85-3.88.73-5.32-.41-4.99-3.34-10.82-7.28-14.5-1.16-1.08-3.48-2.97-6.1-3.55-.73-.16-1.85-.28-2.94.04l-.38.12-.73.43h0ZM39.75,44.4c-.19,0-.38-.09-.49-.26-.19-.25-.16-.61.09-.82.2-.19.38-.33.56-.54.52-.59.95-1.39,1.23-2.24.89-2.8.26-6.03-.17-7.7-1.46-5.4-5.09-10.61-9.28-13.26-1.18-.76-3.01-1.67-4.89-1.7-.53-.04-1.11.05-1.58.19l-.38.12c-.3.09-.63-.05-.76-.33-.12-.3-.02-.63.26-.79l3.36-1.94.52-.19c1.37-.38,2.7-.24,3.56-.05,2.92.64,5.44,2.68,6.68,3.85,4.22,3.95,7.23,9.96,7.68,15.3.14,1.6.09,3.93-.85,5.94-.35.79-.85,1.5-1.41,2.03l-.35.3-3.46,2.02c-.11.07-.21.09-.31.09Z"/>
    </g>
  </g>
</svg>