<?xml version="1.0" encoding="UTF-8"?>
<svg id="Layer_2" data-name="Layer 2" xmlns="http://www.w3.org/2000/svg" viewBox="0 0 30.01 47.76" fill="currentColor">
  <defs>
    <style>
      .cls-1 {
        fill: #fff;
      }

      .cls-1, .cls-2, .cls-3, .cls-4 {
        fill-rule: evenodd;
      }

      .cls-2 {
        fill: #1a87c7;
      }

      .cls-3 {
        fill: #bdedf8;
      }

      .cls-4 {
        fill: #66ceef;
      }
    </style>
  </defs>
  <g id="_Layer_" data-name="&amp;lt;Layer&amp;gt;">
    <g>
      <path class="cls-1" d="M7.24,29.1c.24-.3.92-1.01,1.1-1.32.37-.63.34-.87.42-1.61,2.96,3.42,9.93-1.67,12.68-3.27.1,1.71.24,2.78.79,3.89h0c.79,1.92-2.04,4.74-5,5.85-2.17.81-4.48.49-6.6-.33-2.25-.87-3.62-2.1-3.38-3.21Z"/>
      <path class="cls-2" d="M7.53,29.23c-.1.91,1.13,1.99,3.2,2.79,2.36.91,4.53,1.03,6.39.32,2.1-.78,4.06-2.42,4.72-3.91.24-.58.29-1.09.1-1.53-.52-1.03-.65-2.08-.76-3.49-.26.16-.52.33-.84.52-3.2,1.98-8.46,5.23-11.32,2.9-.05.36-.16.64-.42,1.1-.13.22-.45.57-.73.91-.13.14-.26.28-.34.38h0ZM14.53,33.42c-1.26,0-2.59-.27-4.01-.82-2.49-.96-3.83-2.29-3.59-3.56,0-.05.03-.09.05-.13.11-.12.26-.29.42-.48.26-.29.58-.64.68-.81.29-.5.31-.71.37-1.26l.03-.22c0-.12.08-.22.21-.26.11-.04.24,0,.31.09,2.41,2.78,7.81-.56,11.03-2.56.47-.3.92-.57,1.26-.78.11-.05.21-.05.31,0,.08.05.16.15.16.25.11,1.63.21,2.7.73,3.77.26.62.24,1.29-.11,2.03-.71,1.65-2.78,3.4-5.06,4.24-.89.33-1.81.49-2.8.49Z"/>
      <path class="cls-1" d="M19.79,28.39c.86-1.09,1.52-2.02,2.07-3.07h0l.29-.56c.55-1.17,1.02-2.45,1.39-3.79h0c.18-.77.37-1.58.5-2.38.16-.79.26-1.58.34-2.33h0c.03-.31.03-.62.05-.93v-1.51c0-.16,0-.34-.03-.53-.16-1.46-1.96-.76-3.93,0-2.31.89-4.77,1.83-5.74.03l-.03.03c-.97,1.55-2.83,4.45-3.2,8.04-.05.32-.05.65-.08.99,0,.33-.03.66,0,1h0c.13,2.04-.21,2.69-.89,3.86,1.55,1.92,4.79,3.42,7.26,2.86.73-.16,1.15-.64,1.99-1.7Z"/>
      <path class="cls-2" d="M10.91,27.2c1.49,1.7,4.51,3.12,6.84,2.59.6-.13.94-.52,1.81-1.59h0c.92-1.15,1.55-2.05,2.04-3.02l.29-.55c.52-1.15,1-2.4,1.34-3.73.21-.76.37-1.56.52-2.35.13-.8.24-1.57.31-2.3v-.03c.03-.29.05-.59.05-.89,0-.28.03-.59.03-.92,0-.24,0-.44-.03-.57v-.52c-.05-.3-.16-.41-.26-.46-.52-.32-1.99.24-3.27.73-2.17.84-4.61,1.77-5.84.3-1.02,1.62-2.59,4.3-2.93,7.54-.03.31-.05.63-.05.97-.03.32-.03.65,0,.97.13,1.99-.18,2.75-.84,3.84h0ZM16.7,30.52c-2.44,0-5.08-1.46-6.39-3.1-.1-.1-.1-.24-.03-.35.68-1.16.97-1.75.84-3.69v-1.03c.03-.34.05-.68.08-1.01.39-3.66,2.25-6.59,3.25-8.17.05-.09.18-.15.29-.16.1,0,.21.05.26.15.86,1.57,3.14.68,5.37-.17,1.62-.63,3.01-1.17,3.83-.68.29.19.47.5.52.94,0,.21.03.39.03.56v.59c0,.34,0,.66-.03.95,0,.31-.03.63-.05.94v.04c-.08.74-.18,1.52-.31,2.32-.16.81-.31,1.61-.52,2.4-.37,1.37-.84,2.66-1.39,3.84l-.29.57c-.55,1.01-1.18,1.94-2.12,3.12h0c-.86,1.09-1.34,1.62-2.15,1.81-.39.09-.79.13-1.18.13Z"/>
      <path class="cls-3" d="M29.7,35.37v-4.54c0-3.63-3.48-5.51-6.58-5.78-.45-.04-.79-.07-1.05-.09-.1.19-.21.38-.31.57.11.44.26.85.47,1.27h0c.79,1.92-2.04,4.74-5,5.85-2.17.81-4.48.49-6.6-.33-2.25-.87-3.62-2.1-3.38-3.21-1.57,2.01-2.28,2.62-4.01,4.49C-.22,37.49.35,38.92.35,43.4c0,1.36.18,1.72,1.65,2.58,9.98,5.76,27.69-6.8,27.69-10.62Z"/>
      <path class="cls-2" d="M7.01,29.89c-.86,1.06-1.47,1.7-2.28,2.54-.34.39-.76.82-1.26,1.36-2.91,3.29-2.88,4.75-2.83,7.95,0,.51.03,1.06.03,1.66,0,1.25.11,1.51,1.49,2.32,6.68,3.86,16.22-1.05,18.99-2.65,5.08-2.94,8.23-6.28,8.23-7.71v-4.54c.03-3.39-3.25-5.21-6.29-5.48-.34-.03-.6-.06-.84-.07-.05.1-.11.2-.16.29.11.39.24.74.39,1.08.26.62.24,1.29-.11,2.03-.71,1.65-2.78,3.4-5.06,4.24-2.02.75-4.32.64-6.81-.33-1.94-.75-3.17-1.72-3.51-2.7h0ZM8.08,47.76c-2.36,0-4.48-.5-6.24-1.51-1.52-.88-1.81-1.33-1.81-2.85,0-.6,0-1.15-.03-1.65-.05-3.26-.08-4.9,2.99-8.37.5-.54.92-.98,1.31-1.37.92-.97,1.57-1.68,2.67-3.1.11-.11.24-.15.37-.09.13.06.21.2.18.34-.18.92,1.07,2.04,3.2,2.87,2.36.91,4.53,1.03,6.39.32,2.1-.78,4.06-2.42,4.72-3.91.24-.58.29-1.09.1-1.53-.21-.4-.37-.83-.47-1.31-.03-.08-.03-.15.03-.22.1-.18.18-.37.29-.56.05-.11.16-.17.29-.17.29.02.63.04,1.07.09,3.3.29,6.86,2.31,6.86,6.09v4.54c0,1.89-3.67,5.43-8.57,8.24-4.74,2.74-9.41,4.16-13.36,4.16Z"/>
      <path class="cls-1" d="M29.7,35.37v-4.54c0-3.24-2.78-5.09-5.58-5.64.24.35.42.84.5,1.24.16.73.16,1.53.03,2.1-.13.51-.31,1.02-.6,1.51-.26.51-.63,1-1.02,1.46-.58.65-1.28,1.28-2.04,1.83-1.47,1.03-3.12,1.79-4.9,2.06-.68.1-1.39.13-2.07.1-.71-.03-1.42-.14-2.1-.29-.73-.16-1.47-.39-2.15-.66-.71-.28-1.36-.59-1.91-.93-.6-.34-1.1-.71-1.49-1.1-.42-.37-.73-.78-1-1.19-.6.67-1.23,1.29-2.12,2.27C-.22,37.49.35,38.92.35,43.4c0,1.36.18,1.72,1.65,2.58,9.98,5.76,27.69-6.8,27.69-10.62Z"/>
      <path class="cls-2" d="M5.33,31.82c-.18.19-.37.39-.58.6-.37.4-.79.83-1.28,1.38-2.91,3.29-2.88,4.75-2.83,7.95,0,.51.03,1.06.03,1.66,0,1.25.11,1.51,1.49,2.32,6.68,3.86,16.22-1.05,18.99-2.65,5.08-2.94,8.23-6.28,8.23-7.71v-4.54c.03-2.91-2.31-4.55-4.69-5.19.08.24.16.49.21.73.18.72.18,1.58.03,2.24-.13.53-.31,1.07-.6,1.59-.29.52-.65,1.03-1.07,1.52-.58.66-1.31,1.31-2.12,1.88-1.6,1.14-3.28,1.85-5,2.11-.68.11-1.42.14-2.15.1-.68-.03-1.42-.13-2.15-.3-.71-.16-1.44-.38-2.18-.67-.73-.28-1.39-.6-1.96-.95-.63-.36-1.15-.74-1.57-1.15-.29-.29-.58-.6-.79-.91h0ZM8.08,47.76c-2.36,0-4.48-.5-6.24-1.51-1.52-.88-1.81-1.33-1.81-2.85,0-.6,0-1.15-.03-1.65-.05-3.26-.08-4.9,2.99-8.37.52-.55.94-.99,1.31-1.39.29-.31.55-.59.84-.88.05-.07.16-.11.26-.1.08.01.18.07.24.15.21.39.52.77.89,1.12.39.37.89.73,1.47,1.07.55.33,1.18.64,1.86.9.71.27,1.41.49,2.1.64.71.16,1.39.25,2.04.28.68.04,1.39,0,2.04-.09,1.6-.24,3.22-.92,4.74-2,.76-.54,1.44-1.15,1.99-1.78.39-.46.73-.93,1-1.41.26-.48.45-.96.55-1.43.13-.58.13-1.33,0-1.97-.1-.4-.29-.85-.47-1.14-.08-.11-.05-.24,0-.34.08-.1.18-.15.31-.13,2.7.53,5.84,2.4,5.84,5.94v4.54c0,1.89-3.67,5.43-8.57,8.24-4.74,2.74-9.41,4.16-13.36,4.16Z"/>
      <path class="cls-4" d="M4.62,32.13c-1.47-4.49-.1-5.69-.47-8.88-.55-4.66-2.7-8.08-1.34-12.85,1.39-4.83,5.42-9.19,7.99-7.69.21-.31.42-.58.65-.87l.42-.45.47-.38c3.77-2.5,9.88,2.18,11.82,5.46,1.73,2.93,3.01,10.32-.55,18.62h0c-.16-.02-.34-.04-.5-.05-.45-.04-.79-.07-1.05-.09-.08.12-.13.24-.21.36l.29-.56c.55-1.17,1.02-2.45,1.39-3.79h0c.18-.77.37-1.58.5-2.38.16-.79.26-1.58.34-2.33h0c.03-.31.03-.62.05-.93v-1.51c0-.16,0-.34-.03-.53-.16-1.46-1.96-.76-3.93,0-2.31.89-4.77,1.83-5.74.03l-.03.03c-.97,1.55-2.83,4.45-3.2,8.04-.05.32-.05.65-.08.99,0,.33-.03.66,0,1h0c.39,5.82-3.43,7.42-6.81,8.76Z"/>
      <path class="cls-2" d="M9.68,2.72c-.31,0-.68.08-1.05.23-2.17.88-4.53,4.12-5.53,7.54-.86,3.1-.24,5.65.45,8.35.37,1.38.73,2.8.92,4.37.13,1.25.03,2.21-.08,3.14-.18,1.47-.34,2.85.42,5.37,3.22-1.28,6.71-2.84,6.31-8.34v-1.03c.03-.34.05-.68.08-1.01.39-3.66,2.25-6.59,3.25-8.17.05-.09.18-.15.29-.16.1,0,.21.05.26.15.86,1.57,3.14.68,5.37-.17,1.62-.63,3.01-1.17,3.83-.68.29.19.47.5.52.94,0,.21.03.39.03.56v.59c0,.34,0,.66-.03.95,0,.31-.03.63-.05.94v.04c-.08.74-.18,1.52-.31,2.32-.16.81-.31,1.61-.52,2.4-.34,1.29-.79,2.5-1.28,3.63.18.02.37.03.6.06.1,0,.18.02.29.03,3.41-8.11,2.15-15.27.47-18.13-1.34-2.26-4.69-5.15-7.73-5.86-1.44-.33-2.67-.17-3.67.49l-.42.36-.42.42c-.21.29-.42.53-.58.81-.1.14-.29.19-.42.1-.31-.17-.63-.26-1-.26h0ZM4.62,32.44c-.05,0-.1,0-.13-.03-.08-.04-.16-.1-.18-.18-.92-2.85-.73-4.42-.55-5.94.13-.94.24-1.82.08-3-.18-1.53-.52-2.93-.86-4.29-.71-2.79-1.39-5.42-.45-8.68,1.02-3.64,3.51-6.98,5.87-7.94.84-.34,1.62-.36,2.3-.06.16-.21.31-.41.47-.61,0,0,.05-.06.05-.07l.45-.45.47-.4C13.32,0,14.71-.19,16.31.18c3.25.75,6.68,3.71,8.12,6.14,1.78,2.99,3.09,10.49-.52,18.89,0,.04-.03.07-.05.1-.08.07-.18.1-.26.09-.18-.02-.34-.04-.5-.06-.34-.03-.6-.06-.84-.07-.05.06-.08.13-.11.19-.08.15-.26.2-.42.13-.16-.08-.21-.26-.13-.41l.29-.56c.52-1.15,1-2.4,1.34-3.73.21-.76.37-1.56.52-2.35.13-.8.24-1.57.31-2.3v-.03c.03-.29.05-.59.05-.89,0-.28.03-.59.03-.92,0-.24,0-.44-.03-.57v-.52c-.05-.3-.16-.41-.26-.46-.52-.32-1.99.24-3.27.73-2.17.84-4.61,1.78-5.84.3-1.02,1.62-2.59,4.3-2.93,7.54-.03.31-.05.63-.05.97-.03.32-.03.65,0,.97.42,6.12-3.72,7.75-7.02,9.06-.05.01-.08.02-.11.02Z"/>
    </g>
  </g>
</svg>