<?xml version="1.0" encoding="UTF-8"?>
<svg id="Layer_2" data-name="Layer 2" xmlns="http://www.w3.org/2000/svg" viewBox="0 0 40.98 33.11" fill="currentColor">
  <defs>
    <style>
      .cls-1 {
        fill: #fff;
      }

      .cls-1, .cls-2, .cls-3, .cls-4 {
        fill-rule: evenodd;
      }

      .cls-2 {
        fill: #1a87c7;
      }

      .cls-3 {
        fill: #bdedf8;
      }

      .cls-4 {
        fill: #66ceef;
      }
    </style>
  </defs>
  <g id="_Layer_" data-name="&amp;lt;Layer&amp;gt;">
    <g>
      <path class="cls-3" d="M40.32,9.64L24.29.39c-.31-.15-.54-.07-.84.08L1.49,13.14c-.38.25-.6.5-.84.89l16.04,9.26.08-.14c.23-.33.41-.53.75-.75l21.96-12.68c.29-.15.52-.23.84-.08Z"/>
      <path class="cls-2" d="M1.1,13.92l15.5,8.95c.21-.29.42-.51.77-.73l21.97-12.68s.02-.01.03-.02L24.13.65c-.15-.07-.27-.05-.54.09L1.65,13.41c-.24.15-.4.31-.55.52h0ZM16.69,23.6c-.05,0-.11-.02-.16-.04L.5,14.29c-.07-.04-.12-.11-.14-.19-.02-.08,0-.17.03-.24.25-.4.49-.7.94-.99L23.29.2c.31-.16.66-.31,1.12-.09l16.06,9.27c.14.08.2.26.12.41-.08.14-.26.2-.41.14-.18-.08-.29-.07-.56.07l-21.94,12.67c-.3.19-.46.37-.66.66l-.08.12c-.06.09-.16.15-.26.15Z"/>
      <path class="cls-1" d="M40.67,10.41c0-.75-.53-1.06-1.18-.69l-21.96,12.68c-.65.38-1.19,1.3-1.19,2.05v7.5c0,.75.53,1.06,1.19.69l21.96-12.68c.65-.38,1.18-1.3,1.18-2.05v-7.5Z"/>
      <path class="cls-2" d="M40.01,9.87c-.11,0-.24.04-.37.12l-21.96,12.68c-.56.32-1.03,1.14-1.03,1.79v7.5c0,.25.07.43.19.5.12.07.32.04.53-.08l21.96-12.67c.56-.32,1.03-1.14,1.03-1.79v-7.5c0-.25-.07-.43-.2-.5-.04-.02-.09-.04-.15-.04h0ZM17,33.11c-.17,0-.33-.04-.46-.12-.32-.18-.5-.56-.5-1.04v-7.5c0-.86.59-1.89,1.34-2.32l21.96-12.68c.41-.24.83-.27,1.14-.08.32.18.5.56.5,1.03v7.5c0,.87-.59,1.89-1.34,2.32l-21.96,12.67c-.23.13-.47.2-.68.2Z"/>
      <polygon class="cls-4" points="37.57 17.6 39.68 16.38 39.68 13.93 37.57 15.15 37.57 17.6"/>
      <path class="cls-2" d="M37.87,15.33v1.73l1.5-.87v-1.73l-1.5.87h0ZM37.57,17.91c-.06,0-.11-.01-.15-.04-.09-.05-.15-.16-.15-.27v-2.45c0-.11.06-.21.15-.27l2.12-1.22c.1-.05.21-.05.31,0,.09.06.15.16.15.27v2.45c0,.11-.06.21-.15.27l-2.12,1.22s-.1.04-.15.04Z"/>
      <path class="cls-4" d="M16.69,23.29L.66,14.03c-.22.4-.33.71-.35,1.17v7.5c.01.33.06.57.35.77l16.04,9.26c-.28-.2-.33-.44-.35-.77v-7.5c.02-.46.13-.76.35-1.17h0Z"/>
      <path class="cls-2" d="M.79,14.46c-.1.23-.16.45-.17.75v7.49c.01.3.06.41.22.51l15.21,8.78h0v-7.54c.02-.42.11-.74.25-1.05L.79,14.46h0ZM16.69,33.03c-.05,0-.11-.02-.16-.04L.5,23.73c-.44-.3-.49-.68-.5-1.02v-7.52c.02-.55.17-.91.39-1.31.04-.08.11-.13.19-.15.08-.02.17-.01.24.03l16.04,9.26c.14.08.19.26.12.41h0c-.19.36-.3.62-.31,1.05v7.48c.01.3.06.41.21.51.14.09.18.28.09.42-.06.09-.16.14-.26.14Z"/>
      <polygon class="cls-4" points="34.51 19.36 36.63 18.14 36.63 15.69 34.51 16.92 34.51 19.36"/>
      <path class="cls-2" d="M34.82,17.1v1.73l1.5-.87v-1.73l-1.5.87h0ZM34.51,19.67c-.05,0-.11-.01-.15-.04-.1-.05-.15-.16-.15-.27v-2.44c0-.11.06-.21.15-.27l2.12-1.22c.09-.06.21-.06.31,0,.1.06.15.16.15.26v2.45c0,.11-.06.21-.15.27l-2.12,1.22s-.1.04-.16.04Z"/>
      <path class="cls-2" d="M18.49,27.28c-.11,0-.21-.06-.27-.15-.09-.15-.03-.33.11-.42l13.21-7.63c.14-.08.34-.03.42.11.08.15.03.34-.12.42l-13.21,7.63s-.1.04-.15.04Z"/>
    </g>
  </g>
</svg>