<?xml version="1.0" encoding="UTF-8"?>
<svg id="Layer_2" data-name="Layer 2" xmlns="http://www.w3.org/2000/svg" viewBox="0 0 34.48 49.59" fill="currentColor">
  <defs>
    <style>
      .cls-1 {
        fill: #fff;
      }

      .cls-1, .cls-2, .cls-3, .cls-4 {
        fill-rule: evenodd;
      }

      .cls-2 {
        fill: #1a87c7;
      }

      .cls-3 {
        fill: #bdedf8;
      }

      .cls-4 {
        fill: #66ceef;
      }
    </style>
  </defs>
  <g id="_Layer_" data-name="&amp;lt;Layer&amp;gt;">
    <g>
      <path class="cls-3" d="M15.12,35.82h0c1.55,3.56.8,7.42,4.32,10.75-5.79,2.69-12.25,3.96-17.35,1.02-1.58-.91-1.76-1.29-1.76-2.74,0-1.44-.04-2.94.02-4.37.27-2.51,1.56-4.22,3.18-6.05,1.82-1.98,4.1-3.58,5.75-5.72h0c1.83,2.08,4.81,4.75,5.84,7.11h0ZM9.45,28.9l-.16-.17c.05.05.1.11.16.17h0ZM34.17,34.76v-4.82c0-3.85-4.75-5.25-8.04-5.53-.28.57-.56,1.13-.86,1.68,2.58,4.63.37,14.54-2.47,18.72,6.44-3.72,11.36-8.63,11.36-10.05h0Z"/>
      <path class="cls-2" d="M34.17,34.76h0,0ZM25.63,26.09c2.36,4.5.57,13.26-1.92,17.83,6.02-3.69,10.15-8.05,10.16-9.15v-4.82c0-4.14-5.88-5.03-7.54-5.21-.23.46-.45.91-.69,1.35h0ZM22.81,45.12c-.08,0-.17-.04-.23-.1-.1-.11-.11-.26-.03-.38,2.76-4.05,4.95-13.91,2.46-18.4-.05-.09-.05-.2,0-.3.29-.54.57-1.1.85-1.67.06-.11.18-.18.3-.17,4.02.35,8.32,2.06,8.32,5.84v4.82h0c0,1.66-5.14,6.63-11.52,10.32-.05.03-.1.04-.15.04h0ZM9.29,29.19c-.93,1.14-2.03,2.14-3.1,3.1-.83.75-1.68,1.52-2.44,2.35-1.48,1.67-2.84,3.37-3.1,5.87-.04,1-.03,2.06-.02,3.1,0,.42,0,.83,0,1.24,0,1.33.11,1.61,1.61,2.47,5.32,3.08,11.92,1.29,16.67-.84-2.08-2.15-2.56-4.5-3.02-6.78-.25-1.25-.52-2.54-1.05-3.75h0c-.74-1.71-2.57-3.62-4.18-5.3-.48-.5-.95-.99-1.36-1.45h0ZM8.77,49.59c-2.35,0-4.69-.49-6.84-1.73C.3,46.92.01,46.47.01,44.85c0-.41,0-.82,0-1.24,0-1.03-.01-2.1.02-3.14.29-2.7,1.71-4.49,3.26-6.24.78-.85,1.64-1.64,2.48-2.39,1.14-1.03,2.32-2.1,3.26-3.31.06-.08.14-.12.23-.12.09-.02.18.04.24.1,0,0,0,0,0,0l.16.17s.03.04.05.07c.42.47.89.96,1.38,1.47,1.65,1.72,3.51,3.68,4.3,5.48h0c.56,1.28.83,2.61,1.08,3.89.49,2.41.95,4.68,3.16,6.77.07.07.11.17.09.27-.02.11-.08.19-.17.24-3.05,1.42-6.93,2.74-10.8,2.74Z"/>
      <path class="cls-1" d="M9.27,28.71c.25-.32.98-1.07,1.18-1.4.39-.67.38-.92.46-1.7,3.36,3.88,11.24,6.16,14.27.65h0c.86,2.04-1.58,5.99-4.72,7.15-2.3.86-5.82.33-7.59-1.29l-3.01-2.74-.59-.67Z"/>
      <path class="cls-2" d="M9.68,28.71l.41.46,2.99,2.72c1.64,1.5,5.04,2.07,7.28,1.24,1.76-.66,3.48-2.35,4.28-4.2.3-.69.43-1.32.41-1.86-1.1,1.57-2.73,2.52-4.76,2.73-3.06.32-6.8-1.12-9.15-3.48-.05.37-.14.67-.43,1.16-.14.24-.47.6-.79.96-.09.1-.17.2-.25.28h0ZM17.99,34.14c-1.99,0-4.08-.65-5.32-1.79l-3.01-2.74-.61-.69c-.1-.11-.1-.28-.01-.4.1-.12.26-.3.44-.5.27-.3.61-.68.71-.86.32-.54.34-.76.4-1.35l.02-.23c.01-.12.1-.23.21-.26.12-.03.24,0,.32.1,2.18,2.51,6,4.1,9.08,3.78,2.08-.23,3.7-1.29,4.69-3.08.06-.11.17-.16.29-.17.12.01.22.09.27.19.33.79.24,1.87-.26,3.03-.87,2-2.73,3.83-4.63,4.53-.78.3-1.67.43-2.59.43Z"/>
      <path class="cls-1" d="M23.32,28.9c1.27-1.23,2.3-3.45,3.29-5.48,1.35-2.76,1.29-5.93,1.3-8.47l-.46-1.51c-.16-.62-.18-1.29-.19-1.92-.02-.83-.03-1.59-.46-1.98-.68-.63-1.76.33-3.03,1.45-.86.76-1.8,1.58-2.82,2.17-1.02.59-1.96.84-2.82,1.08h0c-.83.23-1.59.42-2.2.94-.95.8-.91,1.45-.89,2.6.02,1.09.07,2.15-.59,4.46-.08-.58-.22-1.17-.44-1.72-1.2-2.89-4.06-1.89-4,.87,0,.28.04.56.11.83.17.76.61,1.66.96,2.32.11.22-.03.79-.14,1.11,2.42,2.75,5.94,4.63,8.75,4.63,1.25,0,2.72-.51,3.63-1.38Z"/>
      <path class="cls-2" d="M11.29,25.58c2.38,2.63,5.74,4.39,8.4,4.39h0c1.24,0,2.61-.52,3.42-1.29h0c1.15-1.1,2.1-3.07,3.03-4.97l.2-.41c1.24-2.55,1.26-5.51,1.27-7.89v-.4s-.45-1.47-.45-1.47c-.18-.68-.19-1.38-.2-2.01-.01-.75-.03-1.45-.36-1.76-.48-.43-1.52.48-2.62,1.45-.86.77-1.83,1.62-2.87,2.22-1.05.61-2.03.87-2.89,1.1-.82.22-1.52.41-2.08.88-.81.69-.8,1.21-.79,2.25v.29c.02,1.05.04,2.14-.6,4.37-.04.14-.17.23-.32.22-.14,0-.26-.12-.28-.26-.09-.64-.23-1.17-.42-1.64-.46-1.11-1.23-1.69-2.02-1.53-.69.15-1.41.92-1.38,2.28,0,.24.04.5.1.76.13.58.45,1.34.93,2.24.12.22.1.63-.06,1.18h0ZM19.69,30.58c-2.87,0-6.47-1.9-8.97-4.73-.07-.08-.1-.19-.06-.3.15-.48.18-.8.15-.88-.51-.95-.84-1.76-.99-2.4-.07-.29-.1-.59-.11-.89-.03-1.46.74-2.65,1.87-2.89.86-.18,2.03.22,2.72,1.9.07.16.13.32.18.5.29-1.34.27-2.15.26-2.94v-.29c-.02-1.08-.03-1.86,1-2.73.66-.56,1.47-.77,2.31-1,.87-.24,1.76-.48,2.75-1.05.99-.57,1.89-1.37,2.76-2.13,1.38-1.22,2.56-2.27,3.45-1.45.52.48.54,1.31.56,2.2.01.59.02,1.25.18,1.85l.46,1.49s.01.06.01.1v.44c-.01,2.45-.03,5.49-1.33,8.16l-.2.41c-.95,1.95-1.93,3.97-3.16,5.15-.93.9-2.44,1.47-3.84,1.47h0Z"/>
      <path class="cls-4" d="M7.86,8.07c-2.24,4.1-.83,15.32,3.03,17.76.08-.21.34-1.03.2-1.29-.35-.66-.79-1.56-.96-2.32-.84-3.7,3.56-5.43,4.33.02.66-2.31.6-3.37.59-4.46-.02-1.15-.06-1.8.89-2.6.61-.51,1.36-.71,2.2-.94h0c.86-.24,1.8-.49,2.82-1.08,1.02-.59,1.96-1.41,2.82-2.17,1.27-1.12,2.35-2.08,3.03-1.45.43.39.44,1.16.46,1.98.01.63.02,1.3.19,1.92l.46,1.51c.13-2,.09-4.31-.19-6.21-.54-3.66-2.17-3.8-6.69-6.19-.72-.37-1.66-1.01-3.05-1.05-3.4-.1-8.45,3.86-10.12,6.56Z"/>
      <path class="cls-2" d="M8.13,8.23c-2.1,3.86-.86,14.34,2.6,17.1.07-.27.12-.56.09-.65-.51-.95-.84-1.76-.99-2.4-.3-1.32.02-2.58.84-3.3.57-.51,1.32-.65,2-.4.51.19,1.33.74,1.82,2.31.29-1.33.27-2.14.26-2.93v-.29c-.02-1.08-.03-1.86,1-2.73.66-.56,1.47-.77,2.31-1,.87-.24,1.76-.48,2.75-1.05.99-.57,1.89-1.37,2.76-2.13,1.38-1.22,2.56-2.27,3.45-1.45.52.48.54,1.31.56,2.2,0,.48.02,1.01.11,1.51.01-1.5-.08-2.98-.26-4.22-.42-2.89-1.53-3.45-4.5-4.93-.6-.3-1.28-.63-2.03-1.03l-.31-.17c-.66-.37-1.47-.82-2.61-.85-3.32-.1-8.24,3.82-9.85,6.41h0ZM10.89,26.13c-.06,0-.11-.02-.16-.05-4-2.53-5.45-13.91-3.13-18.16,0,0,0,0,0,0,1.72-2.78,6.83-6.84,10.4-6.72,1.28.05,2.21.56,2.88.93l.3.17c.75.4,1.42.73,2.02,1.03,2.99,1.49,4.36,2.18,4.83,5.39.26,1.81.33,4.09.19,6.27-.01.15-.12.27-.27.29-.15.02-.29-.08-.33-.22l-.46-1.51c-.18-.68-.19-1.38-.2-2.01-.01-.75-.03-1.45-.36-1.76-.48-.43-1.52.48-2.62,1.45-.86.77-1.83,1.62-2.87,2.22-1.05.61-2.03.87-2.89,1.1-.82.22-1.52.41-2.08.88-.81.69-.8,1.21-.79,2.25v.29c.02,1.05.04,2.14-.6,4.37-.04.14-.17.23-.32.22-.14,0-.26-.12-.28-.26-.24-1.67-.86-2.81-1.71-3.12-.47-.17-.97-.07-1.38.29-.51.44-.94,1.38-.64,2.7.13.58.45,1.34.93,2.24.24.45-.16,1.49-.18,1.54-.03.09-.1.16-.19.18-.03,0-.06.02-.1.02Z"/>
      <path class="cls-1" d="M20.87,32.48c-5.6-.5-8.68-.63-11.6-3.76,1.83,2.08,4.81,4.74,5.84,7.11,1.55,3.56.8,7.42,4.32,10.75l3.37-1.76c2.62-3.74,5.22-13.79,2.47-18.72l-.09.18c.28,2.65-1.86,3.92-3.92,5.99l-.39.23Z"/>
      <path class="cls-2" d="M11.96,31.13c1.39,1.48,2.78,3.08,3.44,4.56.56,1.28.83,2.61,1.08,3.89.47,2.35.93,4.56,3.01,6.62l3.11-1.62c2.31-3.36,4.76-12.19,2.89-17.3-.22,1.67-1.44,2.79-2.81,4.06-.39.36-.79.73-1.19,1.13-.02.02-.04.03-.06.05l-.39.23c-.06.03-.12.04-.18.03l-.74-.06c-3.45-.3-5.98-.53-8.14-1.59h0ZM19.43,46.88c-.08,0-.15-.03-.21-.09-2.36-2.22-2.86-4.7-3.35-7.09-.25-1.25-.51-2.54-1.04-3.75-.74-1.71-2.57-3.62-4.18-5.3-.58-.61-1.13-1.18-1.61-1.72-.11-.13-.1-.32.02-.43.12-.11.32-.11.43.02,2.71,2.89,5.53,3.15,10.66,3.6l.64.06.27-.16c.4-.4.8-.76,1.18-1.12,1.58-1.46,2.83-2.62,2.62-4.59,0-.07,0-.13.03-.18l.1-.18c.05-.1.16-.16.27-.17h0c.11,0,.22.06.27.17,2.93,5.27.02,15.47-2.49,19.05-.03.03-.07.07-.11.09l-3.37,1.76s-.1.03-.14.03Z"/>
      <path class="cls-2" d="M19.62,36.62s-.08,0-.12-.03l-4.83-2.09c-.16-.06-.23-.24-.16-.4.07-.16.25-.24.4-.17l4.52,1.95,1.08-3.32c.05-.16.23-.24.39-.19.07.02.13.07.17.13-.03-.14.03-.28.16-.34.15-.08.34-.02.41.13l1.03,2.01c.3-.49.6-.97.9-1.45.77-1.24,1.5-2.41,1.84-3.15.07-.16.26-.23.41-.15.16.07.22.25.15.4-.35.78-1.09,1.97-1.87,3.22-.39.63-.8,1.29-1.18,1.92-.06.11-.16.18-.28.16-.11-.01-.21-.07-.26-.17l-1.27-2.48c.01.05,0,.11,0,.16l-1.18,3.64c-.03.08-.09.15-.17.18-.04.02-.08.03-.13.03Z"/>
      <path class="cls-4" d="M19.43,46.58l3.37-1.76c-.06-.5-.07-.59-.12-1.05-.28-2.37-.37-4.93-.65-7.46-.01-.11.11-1.08.24-2.07l-1.01-1.98-.39.23-.83,2.57c.22.72.42,1.47.41,1.64-.29,2.97-.6,5.9-.89,8.74-.05.43-.07.69-.12,1.15Z"/>
      <path class="cls-2" d="M20.36,35.04c.42,1.4.4,1.59.39,1.67-.28,2.81-.57,5.58-.85,8.28l-.11,1.05,2.68-1.4-.1-.84c-.15-1.23-.24-2.47-.33-3.78-.09-1.2-.18-2.45-.32-3.68,0-.05-.02-.19.23-2.06l-.82-1.6h-.01s-.77,2.37-.77,2.37h0ZM19.43,46.88c-.06,0-.12-.02-.17-.05-.09-.06-.14-.17-.13-.29l.17-1.63c.28-2.69.57-5.46.84-8.27,0,0-.01-.24-.39-1.52-.02-.06-.02-.12,0-.18l.84-2.57c.02-.07.07-.13.14-.17l.39-.23c.07-.04.16-.05.24-.03.08.03.15.08.19.16l1.01,1.97c.03.05.04.12.03.18-.17,1.24-.25,1.9-.24,2.01.14,1.23.23,2.49.32,3.69.1,1.31.19,2.54.33,3.76l.12,1.05c.01.13-.05.25-.16.31l-3.37,1.76s-.1.03-.14.03Z"/>
      <path class="cls-2" d="M21.21,36.88c-.39,0-.74-.14-.92-.21-.16-.06-.24-.24-.18-.4.06-.16.24-.23.4-.17.88.33,1.11.1,1.27-.16.09-.15.28-.19.42-.1.14.08.19.27.1.42-.29.48-.71.62-1.1.62Z"/>
      <path class="cls-2" d="M17.16,46.9c-.1,0-.2-.05-.26-.14l-4.6-6.94c-.05-.07-.06-.17-.04-.25l.41-1.48-1.6-3.75c-.07-.16,0-.34.16-.4.15-.07.34,0,.4.16l1.65,3.86c.03.06.03.14.01.2l-.4,1.44,4.52,6.82c.09.14.06.33-.09.43-.05.03-.11.05-.17.05Z"/>
      <path class="cls-2" d="M26.61,41.07s-.05,0-.07-.01c-.16-.03-.27-.2-.23-.36l1.77-7.3-.71-.83s-.07-.12-.07-.19l-.15-4.07c0-.18.13-.31.3-.33.15-.02.31.13.32.3l.14,3.97.74.86c.06.08.09.18.07.28l-1.81,7.45c-.03.15-.16.24-.3.24Z"/>
      <path class="cls-2" d="M17.39,23.34c-.05,0-.1,0-.15-.03l-3.24-1.76c-.15-.08-.21-.27-.12-.42.08-.15.27-.21.42-.12l3.24,1.76c.15.08.21.27.13.42-.06.1-.16.16-.27.16Z"/>
      <path class="cls-2" d="M18.04,29.66c-.06,0-.13-.03-.18-.06l-6.98-5.09c-.14-.11-.17-.3-.07-.44s.29-.17.43-.07l6.98,5.1c.14.09.17.29.07.42-.06.09-.15.13-.25.13Z"/>
      <path class="cls-1" d="M17.84,22.87c-.14.08-.26.22-.35.36h0c-.09.16-.14.34-.14.49v6.42c0,.15.06.27.14.32.09.05.21.04.35-.03,6.51-.69,4.69-.05,9.08-5.24.14-.08.26-.22.35-.38h0c.09-.16.15-.33.15-.48v-6.44c0-.15-.06-.26-.15-.31-.09-.05-.21-.05-.35.03-4.76,4.33-3.16,3.8-9.08,5.24Z"/>
      <path class="cls-2" d="M17.96,23.15c-.07.05-.15.14-.2.24-.07.11-.1.23-.1.34v6.42s.11-.02.15-.02c.57-.06,1.08-.11,1.53-.16q3.65-.36,5.48-2.69c.48-.6,1.07-1.35,1.87-2.3.02-.02.05-.05.08-.07.08-.05.17-.15.24-.26.07-.11.1-.23.1-.33v-6.44c-.88.78-1.56,1.42-2.1,1.94-2.21,2.12-2.27,2.16-6.37,3.15l-.68.17h0ZM17.62,30.81c-.1,0-.2-.03-.28-.07-.19-.11-.3-.33-.3-.59v-6.42c0-.21.07-.44.19-.64.12-.21.28-.38.46-.49.02-.01.05-.03.08-.03l.73-.18q3.98-.96,6.09-2.99c.54-.52,1.22-1.17,2.13-2.01.28-.17.52-.18.71-.07.19.11.3.32.3.58v6.44c0,.2-.07.43-.19.64-.11.18-.26.35-.41.45-.78.92-1.36,1.65-1.82,2.24-1.98,2.51-2.04,2.54-5.91,2.92-.44.03-.92.09-1.47.15-.11.04-.21.07-.31.07Z"/>
      <path class="cls-3" d="M28.63,11.43c2.29-4.14-2.25-9.57-6.82-10.78C11.42-2.08-.46,12.11,6.88,19.48c1.53,1.53,4.28.16,6.5.08,4.54-.17,13.66-4.4,15.25-8.12Z"/>
      <path class="cls-2" d="M19.05.61c-5.2,0-10.13,3.75-12.53,7.91-2.32,4.02-2.11,8.04.57,10.73.94.94,2.46.63,4.07.31.73-.15,1.49-.31,2.2-.33,4.65-.17,13.5-4.46,14.98-7.92,0-.01,0-.02.01-.03.94-1.71.55-3.45.06-4.61-1.12-2.63-3.87-4.98-6.69-5.72-.89-.24-1.79-.35-2.68-.35h0ZM8.88,20.5c-.84,0-1.61-.19-2.22-.81-2.89-2.9-3.14-7.2-.67-11.48C8.91,3.14,15.47-1.32,21.89.36c2.99.79,5.91,3.29,7.1,6.08.78,1.84.76,3.62-.08,5.14-1.71,3.96-11.05,8.11-15.51,8.28-.66.03-1.39.17-2.1.31-.81.17-1.64.33-2.41.33Z"/>
      <path class="cls-1" d="M28.55,10.9c1.83-2.97-1.24-7.66-5.36-9.14-4.13-1.49-8.12-.76-11.58,1.99-1.65,1.3-3.03,3.24-3.54,5.4-1.54,6.51,2.72,10.39,7.81,8.15,2.96-1.31,8.39-7.82,12.67-6.41Z"/>
      <path class="cls-2" d="M19.04,1.32c-2.55,0-5,.89-7.25,2.67-1.71,1.37-2.96,3.27-3.43,5.24-.74,3.13-.13,5.87,1.64,7.34,1.49,1.23,3.58,1.4,5.75.44.9-.39,2.1-1.34,3.37-2.35,2.79-2.21,6.25-4.94,9.27-4.14.6-1.15.38-2.39.08-3.26-.79-2.24-2.96-4.35-5.4-5.22-1.36-.49-2.71-.73-4.04-.73h0ZM13.03,18.25c-1.28,0-2.46-.4-3.42-1.2-1.95-1.62-2.64-4.61-1.84-7.96.5-2.1,1.83-4.14,3.65-5.58C14.99.67,19.1-.04,23.29,1.47c2.61.94,4.93,3.19,5.78,5.61.52,1.5.43,2.87-.26,3.99-.08.12-.22.17-.36.13-2.77-.92-6.19,1.79-8.94,3.96-1.36,1.07-2.53,2-3.51,2.43-1.02.45-2.02.67-2.97.67Z"/>
    </g>
  </g>
</svg>