<?xml version="1.0" encoding="UTF-8"?>
<svg id="Layer_2" data-name="Layer 2" xmlns="http://www.w3.org/2000/svg" viewBox="0 0 23.97 43.29" fill="currentColor">
  <defs>
    <style>
      .cls-1, .cls-2, .cls-3, .cls-4 {
        fill-rule: evenodd;
      }

      .cls-1, .cls-5 {
        fill: #fff;
      }

      .cls-2 {
        fill: #1a87c7;
      }

      .cls-3 {
        fill: #bdedf8;
      }

      .cls-4 {
        fill: #66ceef;
      }
    </style>
  </defs>
  <g id="_Layer_" data-name="&amp;lt;Layer&amp;gt;">
    <g>
      <rect class="cls-5" x=".31" y="7.04" width="23.33" height="29.64"/>
      <path class="cls-2" d="M.62,36.38h22.71V7.35H.62v29.02h0ZM23.64,36.99H.31c-.17,0-.31-.14-.31-.31V7.04c0-.17.14-.3.31-.3h23.33c.17,0,.31.14.31.3v29.64c0,.17-.14.31-.31.31Z"/>
      <path class="cls-3" d="M3.73,31.48c4.56-2.63,11.95-2.63,16.51,0,4.56,2.63,4.56,6.9,0,9.53-4.56,2.64-11.95,2.64-16.52,0-4.56-2.63-4.56-6.9,0-9.53Z"/>
      <path class="cls-2" d="M3.73,31.48h0,0ZM11.98,29.82c-2.93,0-5.87.64-8.1,1.93h0c-2.11,1.22-3.27,2.82-3.27,4.5s1.16,3.28,3.26,4.5c4.47,2.57,11.74,2.57,16.21,0,2.1-1.22,3.26-2.82,3.26-4.5s-1.16-3.29-3.27-4.5c-2.24-1.29-5.17-1.93-8.1-1.93h0ZM11.98,43.29c-3.05,0-6.09-.67-8.41-2.01-2.31-1.33-3.57-3.12-3.57-5.03s1.27-3.7,3.58-5.03c4.63-2.68,12.18-2.68,16.82,0,2.31,1.33,3.58,3.12,3.58,5.03s-1.27,3.7-3.57,5.03c-2.32,1.34-5.37,2.01-8.41,2.01Z"/>
      <path class="cls-3" d="M4.72,30.04c-4.01,2.32-4.02,6.09,0,8.4,4.01,2.32,10.53,2.32,14.54,0,4.01-2.31,4.01-6.08,0-8.4-4.02-2.31-10.52-2.31-14.54,0h0ZM3.73,29.47c4.56-2.63,11.95-2.63,16.51,0,4.56,2.63,4.56,6.9,0,9.53-4.56,2.63-11.95,2.63-16.52,0-4.56-2.63-4.56-6.9,0-9.53h0Z"/>
      <path class="cls-2" d="M11.98,28.61c-2.58,0-5.15.57-7.11,1.7-1.84,1.07-2.86,2.46-2.86,3.94s1.01,2.86,2.86,3.93c3.92,2.26,10.31,2.26,14.23,0,1.84-1.07,2.85-2.46,2.85-3.93s-1.02-2.87-2.86-3.94c-1.96-1.13-4.54-1.7-7.12-1.7h0ZM11.98,40.48c-2.69,0-5.38-.59-7.43-1.77-2.04-1.18-3.16-2.76-3.16-4.46s1.12-3.29,3.16-4.47c4.09-2.37,10.75-2.37,14.85,0,2.04,1.17,3.16,2.76,3.16,4.47s-1.12,3.28-3.16,4.46c-2.05,1.18-4.73,1.77-7.42,1.77h0ZM3.73,29.47h0,0ZM11.98,27.8c2.93,0,5.87.64,8.1,1.94,2.11,1.22,3.27,2.82,3.27,4.5s-1.16,3.28-3.26,4.49c-4.47,2.58-11.74,2.58-16.21,0-2.11-1.22-3.26-2.81-3.26-4.49s1.16-3.29,3.27-4.5h0c2.23-1.3,5.17-1.94,8.1-1.94h0ZM11.98,41.28c-3.05,0-6.09-.67-8.41-2.01-2.31-1.34-3.57-3.12-3.57-5.03s1.27-3.71,3.58-5.04c4.63-2.68,12.18-2.68,16.82,0,2.31,1.33,3.58,3.12,3.58,5.04s-1.27,3.7-3.57,5.03c-2.32,1.34-5.37,2.01-8.41,2.01Z"/>
      <path class="cls-3" d="M1.72,34.24h20.51v-16.76c-.2,1.35-1.19,2.66-2.97,3.68-4.01,2.32-10.53,2.32-14.54,0-1.84-1.06-2.84-2.43-2.99-3.82v16.9Z"/>
      <path class="cls-2" d="M2.03,33.93h19.9v-14.79c-.54.86-1.39,1.65-2.51,2.29-4.09,2.36-10.76,2.36-14.85,0-1.13-.65-1.99-1.45-2.53-2.32v14.82h0ZM22.23,34.55H1.72c-.08,0-.16-.03-.22-.09-.06-.05-.09-.13-.09-.22v-16.9c0-.17.13-.3.3-.3.15,0,.3.11.32.27.14,1.35,1.15,2.62,2.84,3.6,3.92,2.26,10.31,2.26,14.23,0,1.63-.95,2.63-2.17,2.82-3.47.02-.17.17-.27.32-.27.16.02.29.15.29.31v16.76c0,.17-.14.31-.31.31Z"/>
      <path class="cls-3" d="M4.72,12.77c4.02-2.31,10.52-2.31,14.54,0,4.01,2.32,4.02,6.08,0,8.39-4.01,2.32-10.53,2.32-14.54,0-4.02-2.31-4.01-6.08,0-8.39Z"/>
      <path class="cls-2" d="M4.87,13.04c-1.84,1.07-2.86,2.46-2.86,3.94s1.01,2.86,2.86,3.93c3.92,2.26,10.31,2.26,14.23,0,1.84-1.07,2.85-2.46,2.85-3.93s-1.02-2.87-2.86-3.94c-3.92-2.26-10.3-2.26-14.23,0h0ZM11.98,23.21c-2.69,0-5.38-.59-7.43-1.77-2.04-1.18-3.16-2.76-3.16-4.46s1.12-3.29,3.16-4.47h0c4.09-2.36,10.75-2.36,14.85,0,2.04,1.17,3.16,2.76,3.16,4.47s-1.12,3.28-3.16,4.46c-2.05,1.18-4.73,1.77-7.42,1.77Z"/>
      <path class="cls-4" d="M4.72,30.04c4.02-2.31,10.52-2.31,14.54,0,4.01,2.32,4.02,6.09,0,8.4-4.01,2.32-10.53,2.32-14.54,0-4.02-2.31-4.01-6.08,0-8.4Z"/>
      <path class="cls-2" d="M11.98,28.61c-2.58,0-5.15.57-7.11,1.7-1.84,1.07-2.86,2.46-2.86,3.94s1.01,2.86,2.86,3.93c3.92,2.26,10.31,2.26,14.23,0,1.84-1.07,2.85-2.46,2.85-3.93s-1.02-2.87-2.86-3.94c-1.96-1.13-4.54-1.7-7.12-1.7h0ZM11.98,40.48c-2.69,0-5.38-.59-7.43-1.77-2.04-1.18-3.16-2.76-3.16-4.46s1.12-3.29,3.16-4.47c4.09-2.37,10.75-2.37,14.85,0,2.04,1.17,3.16,2.76,3.16,4.47s-1.12,3.28-3.16,4.46c-2.05,1.18-4.73,1.77-7.42,1.77Z"/>
      <path class="cls-3" d="M3.73,2.28C8.29-.36,15.68-.36,20.24,2.28c4.56,2.63,4.56,6.9,0,9.54-4.56,2.63-11.95,2.63-16.52,0-4.56-2.64-4.56-6.9,0-9.54Z"/>
      <path class="cls-2" d="M3.88,2.54C1.78,3.75.62,5.35.62,7.04s1.16,3.29,3.26,4.5c4.47,2.58,11.74,2.58,16.21,0,2.1-1.22,3.26-2.82,3.26-4.5s-1.16-3.29-3.26-4.5C15.62-.04,8.35-.04,3.88,2.55h0ZM11.98,14.09c-3.05,0-6.09-.68-8.41-2.02-2.31-1.33-3.57-3.11-3.57-5.03S1.27,3.34,3.58,2.01h0C8.21-.67,15.76-.67,20.39,2.01c2.31,1.33,3.58,3.12,3.58,5.03s-1.27,3.7-3.57,5.03c-2.32,1.34-5.37,2.02-8.41,2.02Z"/>
      <path class="cls-3" d="M1.7,7.04h20.56c0-1.52-1.01-3.03-3.01-4.2C15.24.53,8.73.53,4.72,2.84c-2.01,1.16-3.01,2.68-3.01,4.2Z"/>
      <path class="cls-2" d="M2.03,6.73h19.92c-.13-1.36-1.13-2.63-2.84-3.62C15.18.85,8.8.84,4.87,3.11c-1.72.99-2.71,2.27-2.84,3.62h0ZM22.27,7.35H1.7c-.08,0-.16-.03-.22-.1-.06-.05-.09-.13-.09-.22,0-1.7,1.12-3.29,3.16-4.46C8.65.22,15.32.22,19.41,2.58c2.04,1.17,3.16,2.76,3.16,4.46,0,.09-.03.17-.09.22-.06.06-.14.1-.22.1Z"/>
      <path class="cls-1" d="M4.72,2.84c4.02-2.31,10.52-2.31,14.54,0,4.01,2.32,4.02,6.08,0,8.4-4.01,2.32-10.53,2.32-14.54,0-4.02-2.32-4.01-6.08,0-8.4Z"/>
      <path class="cls-2" d="M4.72,2.84h0,0ZM11.98,1.42c-2.58,0-5.15.56-7.11,1.69h0c-1.84,1.07-2.86,2.46-2.86,3.93s1.01,2.87,2.86,3.94c3.92,2.26,10.31,2.26,14.23,0,1.84-1.06,2.85-2.45,2.85-3.93s-1.02-2.87-2.86-3.93c-1.96-1.13-4.54-1.69-7.12-1.69h0ZM11.98,13.28c-2.69,0-5.38-.59-7.43-1.77-2.04-1.18-3.16-2.76-3.16-4.47s1.12-3.29,3.16-4.46h0C8.65.22,15.31.22,19.41,2.58c2.04,1.17,3.16,2.76,3.16,4.46s-1.12,3.29-3.16,4.47c-2.05,1.18-4.73,1.77-7.42,1.77Z"/>
      <path class="cls-3" d="M17.63,12c-3.41,1.3-7.87,1.3-11.28,0,3.41-1.29,7.87-1.29,11.28,0Z"/>
      <path class="cls-2" d="M7.3,12c2.93.9,6.44.9,9.37,0-2.93-.89-6.44-.89-9.37,0h0ZM11.98,13.29c-2,0-4-.33-5.75-1-.12-.04-.2-.16-.2-.29,0-.12.08-.23.2-.29,3.5-1.32,8.01-1.32,11.5,0,.12.05.2.17.2.29,0,.13-.08.24-.2.29-1.75.67-3.75,1-5.75,1Z"/>
      <path class="cls-4" d="M9.61,24.94c.35-.45.71-.75,1.27-.91l-1.6.43c-2.25.65-2.32,4.09-2.01,5.92.17.94.44,1.79.86,2.66.55,1.11,1.28,2.15,2.35,2.81.64.37,1.22.53,1.96.36l1.6-.42c-.47.1-.77.09-1.23-.04-.75-.26-1.26-.65-1.8-1.22-.43-.49-.76-.97-1.07-1.53-.31-.57-.54-1.13-.74-1.76-.24-.77-.38-1.5-.45-2.31-.09-1.31.09-2.9.88-3.99h0Z"/>
      <path class="cls-2" d="M9.36,24.76h0c-1.92.56-2.12,3.63-1.79,5.57.17.92.44,1.75.83,2.58.61,1.25,1.35,2.13,2.23,2.68.63.36,1.13.46,1.73.32h0c-.58-.24-1.06-.61-1.59-1.17-.43-.48-.77-.96-1.12-1.59-.31-.57-.55-1.15-.76-1.81-.25-.82-.4-1.57-.46-2.38-.06-.8-.07-2.79.93-4.2h0ZM11.85,36.59c-.51,0-1-.16-1.55-.47-.99-.62-1.79-1.57-2.46-2.94-.42-.89-.7-1.76-.89-2.75-.32-1.85-.26-5.55,2.23-6.27l1.61-.44c.17-.04.33.05.38.22.05.17-.05.33-.21.37-.45.13-.76.36-1.11.8-.88,1.24-.86,3.06-.81,3.79.06.76.2,1.48.44,2.25.2.62.43,1.16.71,1.7.31.56.63,1.02,1.03,1.46.47.5.94.89,1.67,1.14.42.12.67.12,1.07.03.17-.04.32.07.36.23.04.16-.06.33-.22.37l-1.6.43c-.22.05-.44.08-.65.08Z"/>
      <path class="cls-1" d="M11.23,34.71c-1.95-1.95-2.95-5.68-2.24-8.34.71-2.66,2.87-3.24,4.82-1.29,1.95,1.95,2.95,5.68,2.24,8.34-.71,2.67-2.87,3.24-4.82,1.29Z"/>
      <path class="cls-2" d="M11.45,34.49c.86.86,1.78,1.22,2.58,1,.8-.21,1.42-.97,1.73-2.16.69-2.56-.28-6.17-2.16-8.05-.86-.86-1.78-1.22-2.57-1-.8.21-1.41.98-1.73,2.16-.69,2.56.28,6.17,2.16,8.05h0ZM13.55,36.16c-.84,0-1.72-.42-2.54-1.24h0c-2.01-2.02-3.05-5.89-2.31-8.64.37-1.4,1.14-2.32,2.16-2.6,1.02-.27,2.15.14,3.17,1.17,2.01,2.01,3.05,5.89,2.31,8.65-.37,1.39-1.14,2.31-2.16,2.59-.21.05-.42.08-.63.08Z"/>
      <path class="cls-2" d="M16.05,33.72c-.08,0-.16-.03-.22-.1l-7.06-7.05c-.12-.12-.12-.31,0-.43.12-.12.32-.12.44,0l7.05,7.05c.12.12.12.32,0,.43-.06.06-.14.1-.22.1Z"/>
      <path class="cls-3" d="M4.77,24.02c.41,0,.75-.34.75-.75s-.34-.75-.75-.75-.75.33-.75.75.33.75.75.75Z"/>
      <path class="cls-2" d="M4.77,22.83c-.24,0-.44.2-.44.44s.2.43.44.43.44-.19.44-.43-.2-.44-.44-.44h0ZM4.77,24.33c-.58,0-1.06-.47-1.06-1.05s.47-1.06,1.06-1.06,1.06.48,1.06,1.06-.47,1.05-1.06,1.05Z"/>
      <path class="cls-3" d="M14.42,19.09c.61,0,1.1-.5,1.1-1.1s-.49-1.1-1.1-1.1-1.1.5-1.1,1.1.49,1.1,1.1,1.1Z"/>
      <path class="cls-2" d="M14.42,17.2c-.44,0-.79.36-.79.79s.35.79.79.79.79-.36.79-.79-.35-.79-.79-.79h0ZM14.42,19.4c-.78,0-1.41-.63-1.41-1.41s.63-1.41,1.41-1.41,1.41.63,1.41,1.41-.63,1.41-1.41,1.41Z"/>
      <path class="cls-3" d="M10.97,31.91c.15,0,.27-.12.27-.27s-.12-.27-.27-.27-.27.12-.27.27.12.27.27.27Z"/>
      <path class="cls-2" d="M10.97,31.6s-.04.02-.04.03l.04-.03h0ZM10.97,32.22c-.32,0-.58-.26-.58-.58s.26-.57.58-.57.58.26.58.57-.26.58-.58.58Z"/>
      <path class="cls-3" d="M14.06,29.95c.39,0,.71-.32.71-.71s-.32-.71-.71-.71-.71.32-.71.71.32.71.71.71Z"/>
      <path class="cls-2" d="M14.06,28.83c-.22,0-.4.18-.4.41s.18.4.4.4.4-.18.4-.4-.18-.41-.4-.41h0ZM14.06,30.25c-.56,0-1.02-.45-1.02-1.02s.46-1.02,1.02-1.02,1.02.45,1.02,1.02-.46,1.02-1.02,1.02Z"/>
      <path class="cls-3" d="M18.53,26.73c.53,0,.96-.42.96-.95s-.43-.96-.96-.96-.96.42-.96.96.43.95.96.95Z"/>
      <path class="cls-2" d="M18.53,25.13c-.36,0-.65.29-.65.65s.29.65.65.65.65-.3.65-.65-.29-.65-.65-.65h0ZM18.53,27.04c-.7,0-1.26-.57-1.26-1.27s.57-1.26,1.26-1.26,1.27.57,1.27,1.26-.57,1.27-1.27,1.27Z"/>
      <path class="cls-3" d="M8.17,16.3c.43,0,.78-.35.78-.78s-.35-.77-.78-.77-.78.35-.78.77.35.78.78.78Z"/>
      <path class="cls-2" d="M8.17,15.05c-.26,0-.47.21-.47.47s.21.47.47.47.47-.21.47-.47-.21-.47-.47-.47h0ZM8.17,16.6c-.6,0-1.09-.49-1.09-1.09s.49-1.09,1.09-1.09,1.08.49,1.08,1.09-.49,1.09-1.08,1.09Z"/>
      <path class="cls-3" d="M19.73,18.99c.16,0,.29-.13.29-.3s-.13-.29-.29-.29-.29.13-.29.29.13.3.29.3Z"/>
      <path class="cls-2" d="M19.73,18.68s-.02.01-.02.02l.02-.02h0ZM19.73,19.29c-.33,0-.6-.27-.6-.6s.27-.59.6-.59.6.26.6.59-.27.6-.6.6Z"/>
      <path class="cls-3" d="M10.49,20.52c.17,0,.31-.14.31-.31s-.14-.31-.31-.31-.31.14-.31.31.14.31.31.31Z"/>
      <path class="cls-2" d="M10.49,20.21h0,0ZM10.49,20.83c-.34,0-.62-.28-.62-.62s.28-.62.62-.62.62.28.62.62-.28.62-.62.62Z"/>
      <path class="cls-2" d="M1.72,20.49c-.17,0-.31-.14-.31-.31v-9.67c0-.17.14-.31.31-.31s.31.14.31.31v9.67c0,.18-.14.31-.31.31Z"/>
      <path class="cls-2" d="M22.23,22.71c-.17,0-.31-.14-.31-.31v-11.77c0-.17.14-.3.31-.3s.31.14.31.3v11.77c0,.18-.14.31-.31.31Z"/>
    </g>
  </g>
</svg>