<?xml version="1.0" encoding="UTF-8"?>
<svg id="Layer_2" data-name="Layer 2" xmlns="http://www.w3.org/2000/svg" viewBox="0 0 38.53 41.77" fill="currentColor">
  <defs>
    <style>
      .cls-1 {
        fill: #fff;
      }

      .cls-1, .cls-2, .cls-3, .cls-4 {
        fill-rule: evenodd;
      }

      .cls-2 {
        fill: #1a87c7;
      }

      .cls-3 {
        fill: #bdedf8;
      }

      .cls-4 {
        fill: #66ceef;
      }
    </style>
  </defs>
  <g id="_Layer_" data-name="&amp;lt;Layer&amp;gt;">
    <g>
      <path class="cls-4" d="M24.26,10.84c-.03.27-.14.47-.37.62l6.25,3.6c.22-.15.33-.35.36-.62v-2.93l-6.24-3.61v2.93h0ZM30.39,20.35l-6.25-3.61c.09.08.09.12.11.23v2.94l6.24,3.61v-2.94c0-.11-.02-.17-.1-.23h0Z"/>
      <path class="cls-2" d="M24.39,11.39l5.71,3.29c.05-.08.09-.16.09-.27v-2.73l-5.62-3.25v2.42c-.02.2-.08.37-.17.53h0ZM30.14,15.37c-.06,0-.11-.02-.16-.04l-6.24-3.61c-.09-.05-.16-.15-.16-.25,0-.11.05-.21.13-.27.15-.09.21-.21.22-.38v-2.91c0-.11.06-.21.16-.27.1-.05.21-.05.3,0l6.25,3.61c.09.05.15.16.15.27v2.93c-.03.38-.19.67-.49.87-.05.04-.11.06-.17.06h0ZM24.56,19.74l5.62,3.25v-2.41l-5.62-3.25v2.41h0ZM30.5,23.83c-.05,0-.1,0-.16-.03l-6.24-3.61c-.09-.05-.16-.16-.16-.27v-2.94c-.12-.1-.15-.28-.05-.41.09-.13.27-.17.41-.09l6.25,3.6s.02.02.03.03c.19.16.21.32.22.44v2.97c0,.11-.05.21-.15.27-.05.03-.1.03-.16.03Z"/>
      <path class="cls-3" d="M18.8,14.4c-.1.04-.14.06-.25.03l6.25,3.61c.1.04.15.02.25-.03l5.09-2.95-6.25-3.6-5.09,2.94Z"/>
      <path class="cls-2" d="M19.27,14.49l5.63,3.24,4.63-2.67-5.63-3.25-4.62,2.68h0ZM24.89,18.35c-.06,0-.13,0-.21-.03l-6.29-3.63c-.14-.08-.19-.25-.12-.39.07-.15.24-.21.38-.17l5.09-2.94c.1-.06.21-.06.3,0l6.24,3.61c.1.05.16.16.16.26,0,.11-.06.22-.16.27l-5.09,2.94c-.09.04-.18.09-.3.09Z"/>
      <path class="cls-4" d="M13.85,36.87c.02.4.08.69.42.93l6.33,3.61c-.42-.24-.5-.44-.51-.93v-13.88c-.01-.11-.02-.16-.1-.23l-6.25-3.61c.1.07.1.12.12.23v13.87h0ZM13.85,16.85c-.03.27-.14.47-.37.62l6.25,3.61c.22-.16.33-.36.36-.62v-5.88c-.01-.11-.02-.16-.1-.24l-6.25-3.6c.1.07.1.11.12.23v5.88Z"/>
      <path class="cls-2" d="M13.97,17.4l5.71,3.3c.05-.07.08-.16.09-.26v-5.85l-5.62-3.24v5.54c-.02.2-.08.37-.18.52h0ZM19.73,21.38c-.06,0-.11,0-.15-.03l-6.24-3.61c-.1-.05-.16-.15-.16-.25,0-.1.04-.21.13-.27.15-.09.21-.21.23-.38v-5.86c-.12-.1-.15-.28-.05-.41.09-.13.27-.17.41-.09l6.24,3.61c.23.18.25.34.26.47v5.9c-.03.38-.19.66-.49.87-.05.04-.11.05-.18.05h0ZM14.15,36.87h0,0ZM14.15,36.86c.02.39.09.54.29.69l5.34,3.04s0-.07,0-.1v-13.89l-5.62-3.24v13.51h0ZM20.6,41.72c-.05,0-.1-.02-.15-.04l-6.35-3.61c-.5-.35-.56-.79-.57-1.18v-13.89c-.12-.1-.15-.28-.05-.42.09-.13.27-.16.41-.09l6.24,3.61c.23.18.25.34.26.47v13.91c.02.39.05.49.36.67.15.09.2.27.11.42-.06.1-.17.16-.27.16Z"/>
      <path class="cls-3" d="M19.73,21.07l-6.25-3.61-5.09,2.94c-.09.04-.14.07-.25.03l6.24,3.61c.11.03.16.02.26-.03l5.08-2.94Z"/>
      <path class="cls-2" d="M8.86,20.49l5.63,3.24,4.62-2.66-5.63-3.25-4.62,2.67h0ZM14.49,24.37c-.06,0-.13-.02-.21-.04l-6.29-3.62c-.14-.09-.19-.26-.12-.4.07-.15.24-.22.39-.16l5.08-2.94c.09-.06.21-.06.3,0l6.24,3.6c.09.06.16.16.16.27s-.06.21-.16.27l-5.09,2.93c-.09.05-.18.1-.3.1Z"/>
      <polygon class="cls-3" points="14.28 20.87 8.04 17.27 .31 27.74 6.55 31.34 14.28 20.87"/>
      <path class="cls-2" d="M.76,27.65l5.71,3.29,7.35-9.97-5.7-3.29L.76,27.65h0ZM6.55,31.65c-.05,0-.1-.02-.15-.04L.16,28c-.08-.04-.13-.11-.15-.2-.02-.09,0-.17.05-.25l7.74-10.46c.09-.12.26-.16.4-.09l6.24,3.61c.08.04.13.12.15.21.02.08,0,.17-.05.24l-7.73,10.47c-.06.09-.15.13-.25.13Z"/>
      <polygon class="cls-3" points="38.22 13.06 31.98 9.45 24.26 7.91 30.5 11.51 38.22 13.06"/>
      <path class="cls-2" d="M30.61,11.22l5.84,1.17-4.58-2.65-5.84-1.16,4.58,2.64h0ZM38.22,13.36s-.04,0-.06,0l-7.73-1.55s-.07-.02-.1-.03l-6.24-3.6c-.13-.08-.19-.23-.14-.38.06-.14.2-.23.36-.19l7.73,1.55s.06.02.09.03l6.25,3.61c.13.08.18.24.13.37-.04.12-.15.2-.29.2Z"/>
      <polygon class="cls-3" points="22.39 3.92 16.15 .31 10.94 12.23 17.19 15.84 22.39 3.92"/>
      <path class="cls-2" d="M11.33,12.11l5.71,3.29,4.95-11.36-5.71-3.29-4.95,11.36h0ZM17.19,16.15c-.06,0-.11,0-.16-.04l-6.24-3.6c-.14-.08-.19-.25-.13-.39L15.86.19c.03-.09.11-.15.19-.17.09-.03.18-.02.25.03l6.24,3.61c.13.08.19.24.13.39l-5.21,11.92c-.04.08-.1.14-.18.17-.03.02-.07.02-.09.02Z"/>
      <path class="cls-1" d="M24.68,17.75v-5.87c0-.23.17-.5.37-.62l2.55-1.48-5.21-5.92-5.2,11.93,2.54-1.47c.19-.11.36-.03.36.21v5.87c0,.23-.17.51-.36.62l-5.08,2.93c-.2.12-.37.03-.37-.2v-2.94l-7.73,10.47,7.73,1.55v-2.95c0-.23.17-.5.37-.62l5.08-2.94c.19-.11.36-.02.36.21v13.87c0,.92.64,1.29,1.43.83l1.73-1c.79-.46,1.43-1.57,1.43-2.49v-13.88c0-.23.17-.5.37-.62l5.09-2.95c.19-.11.36-.02.36.21v2.95l7.73-10.47-7.73-1.55v2.94c0,.23-.17.5-.36.62l-5.09,2.94c-.2.11-.37.03-.37-.21Z"/>
      <path class="cls-2" d="M19.88,25.99c.09,0,.17.03.24.07.17.09.26.27.26.5v13.87c0,.32.09.56.27.67.18.1.43.06.7-.1l1.73-1c.7-.4,1.29-1.42,1.29-2.22v-13.88c0-.34.22-.71.51-.89l5.09-2.94c.19-.11.39-.12.56-.03.16.09.26.28.26.5v2.01l6.88-9.33-6.88-1.37v2.56c0,.33-.22.71-.51.89l-5.09,2.94c-.19.11-.39.12-.56.03-.16-.09-.26-.28-.26-.5v-5.87c0-.34.22-.72.51-.89l2.22-1.29-4.63-5.27-4.63,10.62,1.73-1c.19-.11.39-.12.56-.03.17.09.26.28.26.5v5.87c0,.34-.22.72-.51.89l-5.09,2.94c-.19.11-.39.12-.56.03-.17-.09-.26-.28-.26-.5v-2l-6.88,9.32,6.88,1.37v-2.56c0-.33.22-.71.51-.89l5.09-2.94c.1-.05.21-.09.31-.09h0ZM20.88,41.77c-.19,0-.37-.04-.53-.14-.37-.22-.58-.64-.58-1.2v-13.75l-4.98,2.88c-.11.05-.2.23-.2.35v2.95c0,.09-.04.17-.11.23-.07.06-.18.09-.26.06l-7.73-1.54c-.1-.03-.18-.1-.23-.19-.04-.11-.02-.21.04-.3l7.73-10.47c.08-.1.21-.15.34-.1.13.04.22.16.22.29v2.82l4.98-2.88c.1-.06.2-.23.2-.36v-5.75l-2.43,1.4c-.11.07-.26.05-.36-.03-.1-.09-.13-.23-.08-.36l5.21-11.92c.04-.09.13-.16.24-.18.1,0,.21.03.28.1l5.2,5.92c.06.07.09.16.08.25-.02.09-.07.17-.16.22l-2.55,1.47c-.11.06-.2.23-.2.36v5.75l4.99-2.89c.11-.05.2-.23.2-.35v-2.94c0-.09.04-.17.11-.24.07-.06.17-.08.26-.06l7.73,1.54c.11.03.19.1.23.19.04.1.03.22-.03.3l-7.73,10.47c-.08.11-.22.15-.34.11-.13-.03-.22-.16-.22-.29v-2.83l-4.99,2.88c-.11.06-.2.24-.2.36v13.88c0,1.03-.7,2.23-1.59,2.76l-1.73,1c-.28.16-.55.24-.79.24Z"/>
    </g>
  </g>
</svg>