<?xml version="1.0" encoding="UTF-8"?>
<svg id="Layer_2" data-name="Layer 2" xmlns="http://www.w3.org/2000/svg" viewBox="0 0 40.98 34.99" fill="currentColor">
  <defs>
    <style>
      .cls-1 {
        fill: #fff;
      }

      .cls-1, .cls-2, .cls-3, .cls-4 {
        fill-rule: evenodd;
      }

      .cls-2 {
        fill: #1a87c7;
      }

      .cls-3 {
        fill: #bdedf8;
      }

      .cls-4 {
        fill: #66ceef;
      }
    </style>
  </defs>
  <g id="_Layer_" data-name="&amp;lt;Layer&amp;gt;">
    <g>
      <path class="cls-4" d="M23.68,1.17s.04.01.06.02l-1.5-.86c-.22-.08-.4.1-.52.27l-6.36,8.61c-.12.18-.3.58-.05.73l1.49.86c-.22-.15-.07-.54.07-.72l.23-.33c2.03-2.75,4.06-5.5,6.09-8.25.12-.16.28-.37.49-.32h0ZM23.86,3.7l3.02-1.79c.86-.51,1.97-.84,2.9-.3l-1.5-.86c-1.08-.51-1.89-.24-2.9.3l-1.52.9v1.75Z"/>
      <path class="cls-2" d="M24.16,2.12v1.04l2.56-1.52c.36-.21.91-.48,1.5-.58l-.1-.06c-.9-.43-1.59-.23-2.6.31l-1.36.81h0ZM23.86,4.01c-.05,0-.11-.01-.16-.04-.1-.06-.16-.16-.16-.27v-1.75c0-.11.06-.21.16-.27l1.52-.9c.97-.51,1.92-.92,3.19-.32l1.52.88h0c.15.09.2.27.12.42-.09.15-.28.2-.42.11h0c-.92-.53-2.01-.04-2.59.3l-3.02,1.79c-.05.03-.1.04-.16.04h0ZM22.1.6s-.03.06-.12.18l-6.35,8.61c-.09.13-.13.28-.12.32l.94.53c.05-.15.12-.27.18-.35L22.95,1.31s.07-.1.12-.15l-.97-.56h0ZM16.82,11.11c.09,0,.2-.05.25-.13.09-.14.06-.31-.07-.4-.02-.05.03-.21.11-.32L23.44,1.68c.09-.11.15-.18.18-.2.14.06.3,0,.38-.13.09-.15.03-.34-.1-.42h0s-1.54-.89-1.54-.89c-.18-.07-.54-.11-.88.37l-6.36,8.62c-.07.11-.28.47-.22.81.04.15.12.27.26.36l1.48.86c.05.03.11.05.18.05Z"/>
      <path class="cls-3" d="M29.78,1.61c.76.44,1.23,1.38,1.28,2.7l.08,2.5h0c0,.16-.07.36-.2.52-.18.23-.42.3-.53.14-.27-.37-.94-.47-1.73-.38-.99.11-2.14.49-2.93.94l-1.89,1.09v2.27c0,.09-.03.19-.07.29-.12.28-.36.47-.54.44l-6.38-1.27c-.32-.06-.13-.58,0-.75L23.22,1.46c.07-.1.16-.19.25-.24.22-.13.39-.02.39.23v2.25l3.02-1.79c1.14-.68,2.16-.73,2.9-.3Z"/>
      <path class="cls-2" d="M17,10.53l6.31,1.26s.12-.09.2-.26c.03-.06.03-.12.03-.17v-2.27c0-.11.06-.21.16-.26l1.89-1.09c.84-.49,2.04-.87,3.04-.98.95-.1,1.63.05,1.96.45.03-.02.06-.05.1-.09.09-.11.13-.24.12-.32l-.07-2.49c-.04-1.17-.43-2.04-1.12-2.44h0c-.68-.39-1.6-.28-2.59.3l-3.02,1.79c-.1.06-.22.06-.31,0-.1-.06-.16-.16-.16-.27V1.55s-.05.06-.07.09l-6.36,8.62c-.04.06-.09.2-.11.28h0ZM23.29,12.41s-.07,0-.11,0l-6.38-1.28c-.17-.03-.31-.15-.38-.31-.13-.33.07-.77.19-.93L22.97,1.28c.09-.13.21-.25.34-.32.2-.12.41-.13.58-.03.17.1.27.29.27.52v1.71l2.56-1.52c1.19-.7,2.33-.81,3.21-.31h0c.88.51,1.39,1.56,1.43,2.95l.08,2.5c.01.24-.08.51-.26.72-.17.22-.4.34-.61.34h-.02c-.16,0-.31-.09-.4-.22-.17-.24-.72-.33-1.44-.25-.93.1-2.03.45-2.81.9l-1.74,1v2.09c0,.14-.04.28-.09.41-.15.33-.45.63-.78.63Z"/>
      <path class="cls-3" d="M10.77,34.24c-.76-.44-1.23-1.38-1.28-2.69l-.08-2.5h0c0-.16.07-.36.2-.52.19-.23.43-.3.53-.14.27.38.94.47,1.73.38.99-.1,2.15-.49,2.93-.94l1.89-1.09v-2.26h0c0-.09.02-.19.06-.29.12-.28.37-.47.55-.44l6.38,1.28s.08.03.11.06c.12.14.07.45-.11.69l-6.35,8.61c-.07.1-.16.19-.24.24-.21.13-.4.02-.4-.23v-2.25l-3.02,1.79c-1.14.68-2.15.73-2.9.3Z"/>
      <path class="cls-2" d="M23.62,25.33h0s0,0,0,0h0ZM16.69,31.84c.06,0,.11.02.16.04.1.06.16.16.16.27v2.16s.05-.06.07-.09l6.36-8.62c.09-.11.11-.22.11-.28l-6.3-1.26s-.13.09-.2.26c-.03.06-.04.12-.04.16v2.27c0,.11-.06.21-.16.27l-1.9,1.09c-.84.49-2.04.87-3.04.98-.96.1-1.62-.06-1.96-.45-.02.02-.05.04-.09.09-.09.11-.12.24-.12.32l.08,2.5c.04,1.17.43,2.04,1.12,2.44h0c.68.39,1.6.29,2.58-.3l3.02-1.79c.05-.03.1-.05.16-.05h0ZM16.91,34.99c-.09,0-.18-.02-.25-.07-.17-.1-.27-.29-.27-.52v-1.71l-2.56,1.51c-1.19.7-2.33.82-3.21.31h0c-.88-.51-1.38-1.56-1.43-2.95l-.08-2.5c0-.24.09-.51.26-.72.18-.23.41-.34.63-.34.16,0,.3.08.39.21.17.24.71.33,1.45.26.92-.1,2.02-.45,2.8-.9l1.74-1v-2.09c0-.14.03-.28.09-.41.16-.36.51-.69.88-.62l6.39,1.28c.1.02.2.07.28.16.25.29.14.76-.1,1.07l-6.35,8.61c-.09.13-.21.25-.34.32-.11.07-.22.1-.33.1Z"/>
      <path class="cls-4" d="M23.33,31.02l3.06,1.77c.34-4.6,3.19-9.43,7.14-11.82,1.62-.89,3.33-1.41,5.07-.5-1.27-.73-3.11-2.05-4.41-2.21-1.33-.17-2.57.32-3.71.95-3.95,2.4-6.8,7.23-7.14,11.82Z"/>
      <path class="cls-2" d="M23.65,30.85l2.48,1.43c.51-4.63,3.37-9.23,7.24-11.58.95-.52,2.09-1.02,3.32-1.02h.02c-.9-.53-1.84-1.03-2.56-1.12-1.34-.17-2.59.4-3.52.91-3.77,2.29-6.56,6.85-6.97,11.38h0ZM26.39,33.09c-.05,0-.1-.01-.16-.04l-3.06-1.76c-.1-.06-.16-.17-.15-.29.36-4.79,3.29-9.64,7.28-12.07,1.03-.56,2.4-1.18,3.91-.99,1.08.13,2.43.97,3.63,1.71.31.2.62.38.9.54.14.08.19.27.11.42-.08.15-.27.2-.41.12-1.76-.91-3.48-.21-4.78.5-3.82,2.32-6.63,6.98-6.98,11.57,0,.11-.07.2-.17.25-.04.02-.09.04-.14.04Z"/>
      <path class="cls-3" d="M36.51,10.36c-.93-.54-3.01-1.92-3.85-2.03-4.16-.52-8.68,8.45-5.16,10.58l3.06,1.77c-3.85-2.44,1.93-12.43,5.96-10.31Z"/>
      <path class="cls-2" d="M32.3,8.62c-2.16,0-4.41,2.69-5.32,5.34-.77,2.21-.52,3.97.67,4.69l1.61.93c-.67-1.64-.05-4.01,1.05-5.91,1.11-1.93,2.88-3.66,4.65-3.88-.87-.52-1.87-1.08-2.35-1.14-.1-.01-.21-.02-.31-.02h0ZM30.55,20.98c-.05,0-.1-.01-.16-.04l-3.06-1.76c-1.46-.89-1.82-2.91-.94-5.42,1.06-3.07,3.71-6.05,6.29-5.73.68.08,1.86.78,3.23,1.62.28.17.53.33.73.45.15.08.2.27.12.41-.09.15-.27.2-.42.13-1.89-.99-4.18,1.03-5.51,3.33-1.34,2.3-1.95,5.3-.13,6.45.14.09.18.28.1.42-.06.1-.16.15-.26.15Z"/>
      <path class="cls-3" d="M38.59,20.46c-2.8-1.61-7.33,1-10.13,5.85-1.19,2.06-1.96,4.35-2.08,6.48l14.28-8.25c-.11-1.99-.89-3.39-2.08-4.08Z"/>
      <path class="cls-2" d="M36.71,20.29c-2.55,0-5.81,2.4-7.98,6.18-1.09,1.88-1.78,3.91-1.99,5.76l13.6-7.85c-.14-1.72-.82-3.01-1.91-3.64h0c-.51-.3-1.09-.44-1.72-.44h0ZM26.39,33.09c-.06,0-.11-.02-.16-.04-.1-.06-.15-.17-.15-.28.12-2.1.88-4.45,2.12-6.62,2.88-4.98,7.61-7.65,10.55-5.96,1.31.76,2.11,2.3,2.23,4.33,0,.11-.05.23-.16.28l-14.29,8.25s-.1.04-.15.04Z"/>
      <path class="cls-1" d="M37.74,13.08c0-1.34-.48-2.29-1.23-2.72-.76-.44-1.82-.38-2.98.29-1.17.67-2.22,1.82-2.97,3.14-.76,1.32-1.23,2.81-1.23,4.15s.47,2.29,1.23,2.73c2.64,1.52,7.19-3.27,7.19-7.59Z"/>
      <path class="cls-2" d="M35.4,10.39c-.52,0-1.1.18-1.72.53-1.08.62-2.1,1.7-2.87,3.03-.76,1.33-1.19,2.75-1.19,4s.38,2.06,1.08,2.46c.89.52,1.93.14,2.63-.27,1.97-1.14,4.09-4.16,4.09-7.05,0-1.18-.38-2.06-1.08-2.46-.28-.16-.6-.24-.95-.24h0ZM31.66,21.27c-.45,0-.88-.11-1.26-.33-.89-.52-1.39-1.58-1.39-2.99s.45-2.88,1.28-4.31c.82-1.42,1.92-2.58,3.09-3.25,1.22-.71,2.38-.81,3.28-.3.9.52,1.39,1.58,1.39,2.99,0,3.16-2.24,6.34-4.41,7.59-.69.4-1.37.6-1.98.6Z"/>
      <path class="cls-4" d="M10.51,16.82c1.62-.89,3.32-1.41,5.06-.5-1.26-.73-3.11-2.05-4.41-2.21-1.33-.17-2.57.32-3.71.95C3.5,17.45.65,22.28.3,26.88l3.06,1.77c.35-4.6,3.19-9.43,7.15-11.82Z"/>
      <path class="cls-2" d="M.63,26.71l2.47,1.43c.51-4.63,3.38-9.24,7.24-11.58t.02,0c.93-.51,2.07-1.02,3.3-1.02h.02c-.89-.53-1.85-1.03-2.55-1.12-1.34-.17-2.59.4-3.53.91-3.77,2.29-6.55,6.85-6.96,11.38h0ZM3.36,28.95c-.05,0-.1-.01-.16-.04l-3.05-1.77c-.1-.06-.16-.17-.16-.29.36-4.79,3.28-9.64,7.29-12.07,1.03-.56,2.39-1.18,3.91-.99,1.08.13,2.43.97,3.63,1.71.32.2.63.38.89.54.15.08.2.27.12.42-.08.14-.26.2-.41.12-1.75-.91-3.47-.22-4.77.5-3.83,2.33-6.64,6.98-6.99,11.58,0,.11-.07.2-.16.25-.05.02-.09.04-.15.04Z"/>
      <path class="cls-3" d="M13.48,6.22c-.93-.54-3-1.92-3.85-2.03C5.48,3.67.96,12.64,4.47,14.76l3.06,1.77c-3.84-2.44,1.93-12.43,5.95-10.31Z"/>
      <path class="cls-2" d="M9.28,4.47c-2.16,0-4.41,2.69-5.33,5.34-.77,2.22-.52,3.97.68,4.69l1.6.93c-.66-1.64-.04-4.01,1.06-5.91,1.11-1.93,2.88-3.65,4.64-3.87-.87-.52-1.87-1.08-2.34-1.14-.1-.01-.21-.02-.31-.02h0ZM7.53,16.84c-.05,0-.11-.01-.16-.04l-3.05-1.76c-1.47-.89-1.82-2.91-.95-5.42,1.06-3.07,3.72-6.05,6.29-5.73.68.08,1.87.78,3.23,1.62.29.17.54.33.74.45.15.08.19.27.12.41-.08.15-.27.2-.41.13-1.89-.99-4.19,1.03-5.52,3.33-1.33,2.3-1.94,5.3-.13,6.45.14.09.18.28.1.42-.05.09-.16.15-.26.15Z"/>
      <path class="cls-3" d="M15.57,16.32c-2.79-1.62-7.33,1-10.13,5.84-1.18,2.06-1.95,4.35-2.08,6.48l14.29-8.25c-.12-1.99-.9-3.39-2.09-4.08Z"/>
      <path class="cls-2" d="M13.7,16.14c-2.56,0-5.81,2.4-7.99,6.18-1.09,1.88-1.78,3.91-1.99,5.76l13.61-7.85c-.15-1.72-.83-3.01-1.91-3.64h0c-.52-.3-1.1-.44-1.72-.44h0ZM3.36,28.95c-.05,0-.11-.02-.16-.05-.11-.06-.15-.17-.15-.28.11-2.11.87-4.45,2.12-6.62,2.88-4.98,7.61-7.65,10.54-5.96,1.32.76,2.11,2.3,2.24,4.33,0,.12-.05.23-.16.29L3.52,28.91c-.05.03-.1.04-.16.04Z"/>
      <path class="cls-1" d="M14.72,8.94c0-1.34-.47-2.29-1.24-2.72-.76-.44-1.82-.38-2.97.29-1.16.67-2.22,1.82-2.98,3.14-.76,1.32-1.23,2.81-1.23,4.15s.47,2.29,1.23,2.73c2.64,1.52,7.19-3.27,7.19-7.59Z"/>
      <path class="cls-2" d="M12.38,6.24c-.52,0-1.11.18-1.73.53-1.08.62-2.09,1.7-2.86,3.03-.77,1.33-1.2,2.75-1.2,4s.39,2.06,1.09,2.46c.89.52,1.92.14,2.62-.27,1.98-1.14,4.1-4.16,4.1-7.05,0-1.18-.38-2.06-1.08-2.46-.28-.16-.59-.24-.94-.24h0ZM8.64,17.13c-.46,0-.89-.11-1.27-.33-.89-.52-1.38-1.58-1.38-2.99s.45-2.88,1.27-4.31c.82-1.42,1.92-2.58,3.09-3.26,1.23-.7,2.39-.81,3.29-.29.9.52,1.38,1.58,1.38,2.99,0,3.16-2.23,6.33-4.4,7.58-.69.4-1.37.6-1.98.6Z"/>
      <path class="cls-4" d="M22.18,24.16s.04.01.06.02l1.49.86h0s0,0,0,0h0s-.01,0-.01,0h-.02s0,0,0,0h0s-6.38-1.28-6.38-1.28c-.32-.06-.62.45-.62.74v2.25c-1.15.67-2.04,1.26-3.27,1.69-.88.26-1.7.45-2.61.32-.25-.07-.51-.14-.67-.37-.06-.1-.18-.11-.3-.04-.09.04-.17.11-.23.19-.06.08-.11.17-.15.26-.04.11-.05.2-.04.31l.07,2.44c.02.57.12,1.16.37,1.67.2.42.5.79.91,1.02l-1.5-.86c-.58-.4-.79-.72-1.06-1.38-.14-.5-.18-.8-.22-1.31l-.08-2.43c0-.24.05-.39.2-.58.12-.14.28-.29.48-.19.86.5.84.51,1.77.43,1.09-.15,1.96-.42,2.92-.94l1.89-1.09v-2.25c0-.31.26-.75.61-.74l6.38,1.28h0ZM15.19,33.03v.5c0,.12.02.18.11.25l1.5.86c-.09-.05-.12-.16-.12-.25v-2.25l-1.5.89h0Z"/>
      <path class="cls-2" d="M10.4,28.22c.09.13.24.18.49.24.78.11,1.51-.04,2.43-.32.96-.34,1.7-.78,2.57-1.29.16-.09.33-.19.5-.29v-2.07c0-.3.18-.68.42-.89.1-.07.19-.12.29-.15l-1.35-.27s-.04.04-.07.07c-.11.1-.17.27-.17.37v2.25c0,.11-.06.21-.16.27l-1.89,1.09c-.99.53-1.89.82-3.03.98h-.02ZM9.89,28.57s.01,0,.01,0c0,0-.01,0-.01,0h0ZM8.45,27.74s-.02.03-.11.13c-.09.12-.12.21-.11.36l.07,2.44c.04.46.08.75.21,1.24.24.58.42.85.94,1.21l.04.03c-.18-.46-.29-1-.3-1.59l-.08-2.44c0-.13,0-.26.07-.43.04-.13.11-.25.19-.35.04-.04.07-.08.11-.11-.27-.05-.5-.18-.96-.44l-.07-.04h0ZM10.77,34.55c-.05,0-.11-.01-.16-.04h0s0,0-.01,0l-1.49-.86c-.67-.46-.9-.85-1.18-1.53-.17-.57-.21-.9-.24-1.41l-.08-2.45c0-.29.06-.52.25-.77.13-.14.45-.49.87-.28l.1.05q.71.41,1.52.35c1.06-.14,1.88-.41,2.81-.9l1.73-1v-2.07c0-.28.14-.6.36-.81.17-.16.36-.24.57-.24l6.42,1.28s0,0,.02,0c.03,0,.11.03.12.04l1.5.87c.15.08.2.26.12.4-.07.15-.25.21-.4.14l-6.36-1.27c-.07.02-.24.27-.24.44v2.25c0,.11-.06.21-.16.27-.22.13-.43.25-.63.37-.9.53-1.66.98-2.69,1.34-.84.25-1.73.48-2.75.33-.29-.07-.59-.15-.82-.42-.04.02-.07.06-.1.09-.04.05-.07.11-.1.17-.02.06-.03.11-.03.2l.08,2.44c.02.6.13,1.13.34,1.55.18.39.45.7.77.88h0c.15.09.19.27.11.42-.06.1-.16.16-.27.16h0ZM15.51,33.21v.32l.88.52v-1.37l-.88.52h0ZM16.81,34.96c.11,0,.21-.06.26-.15.08-.14.04-.31-.08-.4v-2.26c0-.11-.05-.21-.15-.27-.09-.06-.22-.06-.31,0l-1.49.89c-.1.05-.15.15-.15.26v.53c0,.14.03.3.27.5l1.49.86h0c.05.03.11.04.16.04Z"/>
      <path class="cls-2" d="M16.91,24.26c-.05,0-.11-.01-.16-.04l-1.5-.86c-.15-.09-.19-.28-.11-.42.09-.15.28-.2.43-.11l1.49.86c.15.09.2.27.11.42-.05.1-.16.16-.26.16Z"/>
      <path class="cls-2" d="M9.61,28.84c-.05,0-.1-.01-.16-.04l-1.49-.86c-.15-.08-.2-.27-.11-.42.09-.15.27-.2.42-.11l1.5.86c.15.08.19.27.11.42-.06.1-.17.15-.27.15Z"/>
    </g>
  </g>
</svg>