<?xml version="1.0" encoding="UTF-8"?>
<svg id="Layer_2" data-name="Layer 2" xmlns="http://www.w3.org/2000/svg" viewBox="0 0 40.74 39.24" fill="currentColor">
  <defs>
    <style>
      .cls-1 {
        fill: #fff;
      }

      .cls-1, .cls-2, .cls-3, .cls-4 {
        fill-rule: evenodd;
      }

      .cls-2 {
        fill: #1a87c7;
      }

      .cls-3 {
        fill: #bdedf8;
      }

      .cls-4 {
        fill: #66ceef;
      }
    </style>
  </defs>
  <g id="_Layer_" data-name="&amp;lt;Layer&amp;gt;">
    <g>
      <path class="cls-4" d="M10.6,22.39c-.68-1.32-2.85-3.52-4.5-2.6l-2.45,1.4c1.81-.94,3.93,1.41,4.72,2.99.69,1.37,1.31,3.86-.21,4.83.48-.27,2.44-1.34,2.74-1.63,1.21-1.18.47-3.63-.31-4.98Z"/>
      <path class="cls-2" d="M5.1,20.72c.07.02.14.04.21.06,1.39.45,2.71,2,3.34,3.25.48.95,1.03,2.67.63,3.97.6-.34,1.26-.73,1.4-.86,1.07-1.04.38-3.32-.35-4.6,0,0,0,0,0,0-.44-.85-1.6-2.19-2.81-2.56-.47-.15-.9-.12-1.26.09l-1.15.66h0ZM8.16,29.33c-.11,0-.21-.05-.27-.16-.09-.15-.05-.34.1-.44,1.29-.82.76-3.08.09-4.42-.59-1.17-1.8-2.55-2.96-2.92-.49-.15-.92-.13-1.32.08-.15.08-.34.02-.43-.13-.08-.16-.03-.34.12-.42l2.44-1.41c.53-.29,1.12-.33,1.75-.14,1.31.4,2.63,1.78,3.2,2.87.71,1.26,1.67,3.99.24,5.37-.25.23-1.26.81-2.36,1.43l-.44.25c-.05.03-.11.05-.16.05Z"/>
      <path class="cls-4" d="M8.16,23.8c-.58-1-1.38-1.87-2.26-2.38-.88-.5-1.67-.56-2.26-.22h.01c-.59.33-.95,1.05-.95,2.07s.36,2.14.95,3.14c.57,1,1.37,1.87,2.25,2.38.88.5,1.68.55,2.26.21.57-.33.94-1.04.94-2.06s-.36-2.15-.94-3.15h0Z"/>
      <path class="cls-2" d="M4.48,21.3c-.25,0-.48.05-.67.17-.49.29-.77.93-.77,1.79,0,.92.31,1.99.89,2.98.57,1,1.34,1.8,2.14,2.27.75.43,1.44.51,1.94.22.5-.29.78-.93.78-1.79,0-.94-.33-1.99-.89-2.99l.27-.16-.28.16c-.57-1-1.33-1.81-2.13-2.27-.46-.26-.89-.4-1.27-.4h0ZM7.33,29.54c-.49,0-1.03-.16-1.58-.48-.9-.51-1.75-1.4-2.37-2.5-.63-1.09-.98-2.27-.98-3.3,0-1.11.39-1.94,1.1-2.34.7-.41,1.62-.33,2.57.21.9.52,1.74,1.41,2.37,2.5t0,.02h0c.62,1.08.97,2.25.97,3.29,0,1.1-.4,1.93-1.09,2.34-.3.17-.63.26-.99.26Z"/>
      <path class="cls-3" d="M7.14,24.38c.32.56.52,1.18.52,1.73s-.2.95-.52,1.13c-.31.19-.76.16-1.24-.12-.49-.28-.92-.76-1.24-1.3v-.03c-.32-.55-.51-1.16-.51-1.71s.2-.95.51-1.13h0c.33-.18.76-.16,1.24.12.48.28.93.76,1.24,1.3Z"/>
      <path class="cls-2" d="M5.12,23.16c-.11,0-.21.02-.3.07-.22.14-.35.44-.35.86,0,.47.16,1.02.45,1.54.32.55.73.98,1.14,1.22.37.21.69.25.93.12.22-.12.35-.44.35-.85,0-.48-.17-1.05-.47-1.57h0c-.31-.52-.71-.95-1.12-1.2-.22-.13-.44-.19-.63-.19h0ZM6.69,27.69c-.3,0-.62-.1-.94-.29-.52-.3-1-.8-1.36-1.43-.37-.64-.56-1.3-.56-1.89,0-.66.23-1.16.68-1.4.43-.25.98-.22,1.56.12.52.3,1,.81,1.36,1.43h0c.36.62.56,1.29.56,1.89,0,.66-.24,1.16-.67,1.41-.19.11-.4.16-.61.16Z"/>
      <path class="cls-4" d="M27.38,32.09c-.68-1.33-2.85-3.52-4.5-2.61l-2.44,1.41c1.81-.95,3.92,1.41,4.72,2.98.69,1.37,1.31,3.87-.21,4.83.47-.27,2.44-1.35,2.74-1.64,1.21-1.18.47-3.63-.31-4.98Z"/>
      <path class="cls-2" d="M21.88,30.43c.07.02.14.04.22.06,1.39.44,2.71,2,3.34,3.24.48.95,1.02,2.67.62,3.98.61-.34,1.27-.74,1.4-.86,1.07-1.03.38-3.32-.35-4.59h0c-.44-.85-1.6-2.2-2.82-2.57-.47-.14-.9-.12-1.26.08l-1.15.66h0ZM24.95,39.03c-.11,0-.22-.06-.27-.16-.09-.14-.04-.34.1-.43,1.3-.82.76-3.09.09-4.42-.59-1.17-1.8-2.56-2.96-2.93-.48-.15-.93-.13-1.32.08-.15.08-.34.03-.43-.13-.08-.15-.03-.34.13-.43l2.44-1.4c.52-.3,1.11-.34,1.75-.15,1.31.4,2.63,1.77,3.2,2.87.71,1.26,1.67,3.98.23,5.37-.22.22-1.04.69-2.37,1.44l-.43.24c-.05.03-.11.04-.16.04Z"/>
      <path class="cls-4" d="M24.95,33.5c-.58-1.01-1.38-1.88-2.26-2.38-.88-.51-1.67-.56-2.26-.22h0c-.57.33-.94,1.05-.94,2.07s.36,2.14.95,3.14c.57,1.01,1.37,1.88,2.25,2.38.88.51,1.68.56,2.26.23.57-.33.94-1.04.94-2.07s-.36-2.14-.94-3.14h0Z"/>
      <path class="cls-2" d="M21.27,31c-.25,0-.48.05-.67.17-.5.29-.77.92-.77,1.79,0,.93.31,1.99.89,2.98.57,1,1.34,1.8,2.14,2.27.75.43,1.44.5,1.93.22.5-.29.78-.92.78-1.79,0-.93-.32-1.99-.9-2.98l.28-.16-.28.15c-.58-.99-1.33-1.8-2.13-2.25-.46-.26-.89-.4-1.27-.4h0ZM24.12,39.24c-.49,0-1.03-.16-1.58-.47-.9-.52-1.75-1.4-2.37-2.5-.63-1.09-.98-2.26-.98-3.3,0-1.11.39-1.93,1.1-2.34.7-.41,1.62-.33,2.57.22.9.52,1.73,1.41,2.37,2.5.01.01.01.03.02.04h0c.61,1.05.95,2.23.95,3.26,0,1.11-.39,1.94-1.09,2.35-.3.17-.63.25-.99.25Z"/>
      <path class="cls-3" d="M23.93,34.09c.32.55.51,1.17.51,1.73s-.19.95-.51,1.13c-.31.18-.76.15-1.24-.13-.49-.28-.92-.75-1.24-1.3l-.02-.04c-.31-.54-.49-1.15-.49-1.7s.2-.95.51-1.13h0c.33-.19.76-.16,1.24.13.49.28.93.75,1.24,1.3Z"/>
      <path class="cls-2" d="M21.91,32.85c-.11,0-.22.03-.3.08-.22.13-.35.43-.35.85,0,.48.16,1.02.45,1.55.32.55.72.98,1.14,1.22.36.21.69.25.93.12.22-.12.35-.44.35-.85,0-.49-.17-1.05-.47-1.57-.31-.52-.71-.95-1.12-1.2-.23-.12-.44-.2-.63-.2h0ZM23.48,37.39c-.3,0-.62-.1-.94-.29-.52-.3-1-.8-1.36-1.43-.37-.64-.56-1.3-.56-1.89,0-.66.23-1.16.67-1.41.43-.25.98-.21,1.56.13.51.3,1,.8,1.35,1.43.36.62.56,1.29.56,1.89,0,.66-.24,1.16-.68,1.41-.19.11-.4.16-.61.16Z"/>
      <path class="cls-3" d="M.35,7.14c8.11,4.67,16.19,9.37,24.29,14.04.35.2.68.51.93.89h0c.26.38.45.82.55,1.26l1.41,6.66c.03.17.06.33.06.51v7.13c0,.16-.12.22-.26.14l-1.47-.85c.01-.09.01-.19.01-.3,0-1.02-.36-2.14-.94-3.14h0c-.58-1.01-1.38-1.88-2.26-2.38-.88-.51-1.67-.56-2.26-.22h0c-.57.33-.94,1.05-.94,2.07,0,.1.01.2.02.31-3.48-2.01-6.95-4.04-10.43-6.05.01-.08.01-.18.01-.27,0-1.02-.36-2.15-.94-3.15h0c-.58-1-1.38-1.87-2.26-2.38-.88-.5-1.67-.56-2.26-.22h.01c-.59.33-.95,1.05-.95,2.07,0,.09.01.19.02.28l-.85-.49c-.42-.24-.8-.66-1.08-1.14-.28-.48-.45-1.03-.45-1.51V7.14Z"/>
      <path class="cls-2" d="M26.2,36.76l1.08.62v-6.87c0-.16-.02-.3-.05-.45l-1.42-6.66c-.08-.39-.25-.78-.49-1.14-.24-.34-.53-.62-.83-.79-4.03-2.33-8.05-4.66-12.09-6.99-3.9-2.27-7.81-4.53-11.73-6.79v12.71c0,.41.15.91.4,1.35.26.45.61.83.97,1.04l.36.21c.05-.97.44-1.7,1.09-2.07.7-.41,1.62-.33,2.57.21.9.52,1.74,1.41,2.37,2.5.63,1.09.98,2.27.98,3.31,0,.02,0,.06,0,.1l4.88,2.82c1.63.95,3.27,1.9,4.9,2.84.05-.98.43-1.72,1.09-2.09.7-.41,1.62-.33,2.57.22.9.52,1.73,1.41,2.37,2.5.63,1.09.97,2.27.97,3.3v.12h0ZM27.46,38.14c-.09,0-.19-.03-.27-.08l-1.47-.85c-.1-.06-.16-.18-.15-.3,0-.09.01-.18.01-.28,0-.93-.32-1.99-.9-2.98-.58-1-1.33-1.81-2.13-2.27-.76-.43-1.44-.51-1.94-.22-.5.29-.77.92-.77,1.79,0,.09,0,.19,0,.28,0,.12-.05.23-.15.3-.1.06-.22.06-.32,0-1.8-1.03-3.59-2.08-5.39-3.12l-5.04-2.92c-.1-.06-.16-.17-.15-.3,0-.08.01-.17.01-.25,0-.94-.33-1.99-.89-2.99-.58-1-1.34-1.81-2.14-2.27-.76-.43-1.44-.51-1.94-.22-.49.29-.77.93-.77,1.79,0,.08,0,.17,0,.26,0,.12-.06.22-.15.29-.1.06-.22.06-.33,0l-.83-.49c-.46-.26-.89-.71-1.21-1.26-.32-.55-.49-1.14-.49-1.67V7.14c0-.12.06-.23.16-.28.1-.05.22-.05.31,0,4.08,2.36,8.15,4.71,12.22,7.06,4.03,2.34,8.05,4.66,12.07,6.98.39.22.74.57,1.03.99.29.42.5.9.59,1.37l1.42,6.66c.03.18.06.36.06.58v7.13c0,.2-.08.35-.23.44-.07.04-.14.06-.22.06Z"/>
      <path class="cls-1" d="M25.58,22.07l11.9-6.87c.27.4.44.78.55,1.26l1.42,6.66c.04.17.05.32.05.5v7.14l-11.9,6.87v-7.13c0-.19-.03-.34-.06-.51l-1.41-6.66c-.11-.48-.28-.85-.55-1.26Z"/>
      <path class="cls-2" d="M26.02,22.19c.2.34.33.68.41,1.07l1.42,6.66c.05.23.06.39.06.58v6.59l11.27-6.51v-6.95c0-.15-.03-.29-.05-.45l-1.42-6.65c-.07-.32-.18-.6-.34-.89l-11.35,6.56h0ZM27.6,37.95c-.05,0-.11,0-.16-.03-.1-.07-.16-.16-.16-.28v-7.13c0-.16-.02-.3-.05-.45l-1.42-6.66c-.09-.41-.25-.76-.5-1.14-.04-.07-.06-.16-.04-.25.02-.08.07-.15.15-.2l11.9-6.87c.14-.09.33-.04.43.1.3.44.48.86.59,1.36l1.41,6.66c.05.21.06.38.07.57v7.14c0,.12-.06.22-.16.28l-11.91,6.87s-.1.03-.15.03Z"/>
      <path class="cls-4" d="M19.64,19.95l4.41,2.55c.2.12.39.31.54.52h0c.15.22.27.47.32.74h0l1.16,5.48c.05.18-.04.3-.17.26-.03,0-.04,0-.07-.02h0l-6.19-3.57c-.14-.08-.26-.28-.26-.44v-5.35c0-.16.12-.23.26-.16Z"/>
      <path class="cls-2" d="M19.64,19.95l-.16.28h0l.16-.28h0ZM19.7,20.36v5.1s.05.14.1.16l5.9,3.41-1.11-5.21c-.04-.21-.14-.42-.27-.62-.13-.18-.29-.33-.44-.42l-4.18-2.42h0ZM25.95,29.82s-.08,0-.13-.02c-.03,0-.12-.04-.15-.06l-6.19-3.57c-.24-.14-.41-.44-.41-.72v-5.35c0-.2.08-.36.23-.44.14-.09.33-.08.5.02l4.4,2.54c.24.13.46.35.64.61.18.26.31.56.37.85l1.17,5.49c.05.21,0,.4-.13.53-.08.08-.19.12-.3.12Z"/>
      <polygon class="cls-4" points="26.99 22.83 37.14 16.97 38.55 23.64 28.4 29.49 26.99 22.83"/>
      <path class="cls-2" d="M27.35,22.99l1.28,6.01,9.57-5.52-1.28-6.01-9.57,5.52h0ZM28.4,29.82s-.08-.01-.12-.03c-.09-.05-.16-.12-.18-.22l-1.42-6.66c-.02-.14.04-.28.15-.35l10.15-5.85c.09-.05.19-.07.29-.02.09.04.16.12.18.22l1.42,6.66c.03.14-.04.28-.15.34l-10.15,5.86s-.1.05-.16.05Z"/>
      <polygon class="cls-3" points="27.94 27.32 33.06 24.43 34.02 22.71 36.67 21.21 38.11 21.57 38.55 23.64 28.4 29.49 27.94 27.32"/>
      <path class="cls-2" d="M28.3,27.48l.32,1.52,9.57-5.52-.35-1.64-1.13-.29-2.46,1.4-.92,1.64c-.03.05-.07.09-.13.12l-4.91,2.77h0ZM28.4,29.82s-.08-.01-.12-.03c-.09-.05-.16-.12-.18-.22l-.47-2.18c-.03-.14.04-.28.16-.35l5.03-2.84.92-1.63c.03-.05.07-.1.12-.13l2.66-1.5c.07-.04.15-.05.23-.04l1.44.36c.12.04.21.13.23.24l.44,2.07c.03.14-.04.28-.15.34l-10.15,5.86s-.1.05-.16.05Z"/>
      <path class="cls-3" d="M25.8,27.93l.27,1.3c.05.18-.04.3-.17.26-.03,0-.04,0-.07-.02h0l-6.19-3.57c-.14-.08-.26-.28-.26-.44v-.94l6.42,3.41Z"/>
      <path class="cls-2" d="M19.7,25.05v.4s.05.14.1.16l5.9,3.41-.19-.88-5.81-3.09h0ZM25.95,29.82s-.08,0-.13-.02c-.03,0-.12-.04-.15-.06l-6.19-3.57c-.24-.14-.41-.44-.41-.72v-.94c0-.11.05-.22.15-.27.1-.06.22-.06.31,0l6.41,3.41c.08.05.14.13.16.22l.28,1.3c.05.21,0,.4-.13.53-.08.08-.19.12-.3.12Z"/>
      <path class="cls-1" d="M36.55,14.31c.39.24.67.52.93.89l-11.9,6.87h0c-.24-.35-.56-.67-.93-.89L.43,7.2s-.06-.03-.09-.04l.04-.03L12.18.33c.07-.03.11-.02.18.02l24.19,13.96Z"/>
      <path class="cls-2" d="M.99,7.16l23.81,13.75c.31.18.6.44.86.76l11.34-6.55c-.19-.23-.38-.39-.61-.52L12.25.65.99,7.16h0ZM25.58,22.4c-.11,0-.21-.05-.26-.14-.24-.34-.53-.62-.83-.79L.27,7.48c-.14-.02-.24-.12-.27-.25-.03-.13.05-.27.17-.33L12.02.05c.25-.1.38-.03.48,0l24.21,13.97h0c.4.24.71.55,1.02.99.05.07.07.16.05.25-.02.09-.08.16-.15.21l-11.9,6.87s-.1.05-.15.05Z"/>
      <path class="cls-2" d="M20.92,28.26c-.05,0-.11-.02-.16-.05l-1.65-.95c-.15-.09-.21-.29-.12-.44.08-.15.28-.2.43-.12l1.65.95c.15.09.21.29.12.44-.06.1-.17.16-.28.16Z"/>
      <path class="cls-3" d="M37.8,28.67c-.51.3-.94.05-.94-.54s.42-1.31.94-1.6c.51-.3.93-.06.93.53s-.41,1.31-.93,1.61Z"/>
      <path class="cls-2" d="M38.21,26.72c-.07,0-.16.03-.26.08-.41.24-.76.85-.76,1.33,0,.17.05.29.11.33.07.03.2,0,.34-.07h0c.41-.24.77-.85.77-1.33,0-.16-.04-.28-.11-.33-.02,0-.05-.02-.08-.02h0ZM37.37,29.12c-.14,0-.28-.04-.4-.11-.28-.16-.43-.48-.43-.88,0-.7.48-1.53,1.09-1.88.34-.2.7-.23.97-.06.28.15.43.48.43.87,0,.71-.48,1.54-1.09,1.89h0c-.19.11-.39.17-.57.17Z"/>
      <polygon class="cls-4" points="39.83 30.72 39.83 28.92 27.6 35.99 27.6 37.79 39.83 30.72"/>
      <path class="cls-2" d="M39.83,30.72h0,0ZM27.91,36.17v1.07l11.6-6.71v-1.06l-11.6,6.7h0ZM27.6,38.11c-.05,0-.11-.02-.16-.05-.1-.06-.16-.16-.16-.28v-1.8c0-.12.06-.22.16-.28l12.24-7.08c.1-.05.21-.05.31,0,.1.07.16.16.16.28v1.8c0,.12-.06.22-.16.28l-12.24,7.08s-.1.05-.15.05Z"/>
      <path class="cls-3" d="M29.55,33.41c-.51.3-.93.06-.93-.53s.41-1.31.93-1.61c.51-.3.93-.05.93.54s-.42,1.31-.93,1.6Z"/>
      <path class="cls-2" d="M29.97,31.46c-.07,0-.16.03-.25.09-.42.23-.77.85-.77,1.33,0,.16.04.29.12.32.06.04.19.02.33-.07.42-.24.78-.85.78-1.33,0-.17-.05-.29-.12-.33-.02-.01-.04-.02-.08-.02h0ZM29.14,33.86c-.15,0-.29-.03-.4-.11-.27-.16-.43-.48-.43-.87,0-.71.48-1.54,1.09-1.89.34-.2.7-.22.98-.06.27.16.43.48.43.88,0,.7-.49,1.53-1.1,1.88-.19.12-.38.17-.57.17Z"/>
      <path class="cls-2" d="M31.5,32.5c-.18,0-.32-.15-.32-.33v-2.74c0-.18.15-.31.32-.31s.32.13.32.31v2.74c0,.18-.14.33-.32.33Z"/>
      <path class="cls-2" d="M32.55,31.88h0c-.18,0-.32-.14-.32-.31v-2.74c0-.18.14-.33.32-.33h0c.18,0,.31.15.31.33v2.74c0,.17-.14.31-.31.31Z"/>
      <path class="cls-2" d="M33.65,31.25h0c-.17,0-.31-.14-.31-.33v-2.74c0-.18.14-.31.31-.31h0c.18,0,.32.14.32.31v2.74c0,.18-.14.33-.32.33Z"/>
      <path class="cls-2" d="M34.73,30.63c-.18,0-.31-.14-.31-.32v-2.74c-.01-.17.14-.32.31-.32h0c.17,0,.31.14.31.32v2.74c0,.18-.13.32-.31.32h0Z"/>
      <path class="cls-2" d="M35.86,29.98h0c-.18,0-.32-.14-.32-.31v-2.74c0-.18.15-.32.32-.32h0c.18,0,.32.14.32.32v2.74c0,.18-.14.31-.32.31Z"/>
      <path class="cls-4" d="M27.6,37.79c-.05.05-.13.06-.23.01l-1.49-.86c.01-.1.01-.19.01-.3,0-.59-.12-1.21-.33-1.83l2.05,1.18v1.8Z"/>
      <path class="cls-2" d="M26.2,36.76l1.08.62v-1.21l-1.21-.69c.09.4.13.79.13,1.16v.12h0ZM27.6,37.79h.01-.01ZM27.49,38.16c-.09,0-.19-.02-.28-.08l-1.5-.86c-.1-.06-.16-.18-.15-.3,0-.09.01-.18.01-.28,0-.54-.11-1.13-.32-1.73-.04-.13,0-.26.1-.35.11-.08.25-.09.37-.02l2.04,1.18c.1.06.16.16.16.28v1.8c0,.08-.03.15-.08.22-.09.1-.21.15-.34.15Z"/>
      <polygon class="cls-1" points="26.04 29.5 26.04 26.46 24.86 27.15 24.86 30.18 26.04 29.5"/>
      <path class="cls-2" d="M26.04,29.5h0,0ZM25.17,27.32v2.3l.55-.31v-2.3l-.55.31h0ZM24.86,30.5c-.06,0-.12-.02-.16-.05-.1-.05-.16-.16-.16-.27v-3.04c0-.12.06-.22.16-.28l1.19-.68c.1-.05.21-.05.31,0,.1.05.16.16.16.28v3.04c0,.11-.06.21-.16.27l-1.19.68s-.1.05-.16.05Z"/>
      <path class="cls-2" d="M26.04,29.82c-.11,0-.22-.05-.27-.16-.09-.15-.04-.34.12-.43l.58-.34c.15-.08.34-.04.43.12.09.15.04.35-.12.44l-.58.33c-.05.03-.11.05-.16.05Z"/>
      <polygon class="cls-1" points="40.42 21.16 40.42 18.12 39.23 18.8 39.23 21.84 40.42 21.16"/>
      <path class="cls-2" d="M39.55,18.98v2.31l.55-.33v-2.3l-.55.31h0ZM39.23,22.15c-.05,0-.11,0-.16-.03-.1-.06-.16-.16-.16-.28v-3.04c0-.12.06-.22.16-.28l1.19-.68c.1-.05.22-.05.31,0,.1.05.16.16.16.28v3.04c0,.11-.06.22-.16.27l-1.19.69s-.1.03-.15.03Z"/>
      <path class="cls-4" d="M16.12,17.91l1.75,1.01c.17.1.31.35.31.55v12.69c0,.2-.14.28-.31.18l-1.75-1.01c-.17-.1-.31-.34-.31-.54v-12.7c0-.2.14-.28.31-.18Z"/>
      <path class="cls-2" d="M16.12,17.91l-.17.27h0l.16-.27h0ZM16.12,18.28v12.51c0,.09.08.22.16.27l1.58.92v-12.51c0-.09-.07-.23-.15-.27l-1.59-.92h0ZM18.02,32.7c-.1,0-.21-.03-.31-.08l-1.75-1.02c-.27-.15-.47-.5-.47-.82v-12.7c0-.22.09-.39.24-.48.16-.1.36-.09.54.02h0l1.76,1.02c.27.15.47.5.47.82v12.69c0,.22-.09.39-.25.48-.07.04-.15.06-.23.06Z"/>
      <path class="cls-4" d="M12.82,16.01l1.76,1.01c.18.1.31.35.31.54v12.7c0,.2-.14.28-.31.18l-1.76-1.02c-.17-.1-.31-.34-.31-.54v-12.7c0-.2.14-.27.31-.17Z"/>
      <path class="cls-2" d="M12.82,16.01l-.16.27h0l.16-.27h0ZM12.84,16.38v12.51c0,.09.08.22.15.27l1.59.92v-12.52c0-.08-.08-.22-.15-.26l-1.59-.92h0ZM14.72,30.8c-.1,0-.2-.03-.3-.08l-1.76-1.02c-.27-.15-.47-.5-.47-.82v-12.7c0-.21.09-.38.25-.47.16-.1.35-.09.54.02h0l1.75,1.02c.27.15.48.5.48.81v12.7c0,.22-.09.39-.25.48-.07.04-.16.06-.24.06Z"/>
      <path class="cls-4" d="M1.81,9.65l3.92,2.27c.17.1.31.34.31.54v5.18c0,.2-.14.28-.31.18l-3.92-2.27c-.17-.1-.31-.34-.31-.55v-5.17c0-.2.14-.28.31-.18Z"/>
      <path class="cls-2" d="M1.81,9.65l-.17.27s.01.01.01.01l.16-.28h0ZM1.81,10.02v4.98c0,.09.08.22.15.27l3.77,2.17v-4.98c0-.08-.08-.22-.15-.26l-3.77-2.18h0ZM5.88,18.17c-.1,0-.2-.03-.3-.09l-3.93-2.27c-.27-.15-.48-.5-.48-.82v-5.17c0-.21.1-.39.25-.48.16-.09.36-.08.54.02h0l3.93,2.27c.27.16.48.51.48.82v5.18c0,.21-.1.39-.25.48-.08.05-.16.07-.24.07Z"/>
      <path class="cls-4" d="M7.21,12.77l3.93,2.27c.17.1.31.34.31.54v5.17c0,.2-.14.28-.31.18l-3.93-2.27c-.17-.1-.31-.34-.31-.54v-5.17c0-.2.14-.28.31-.18Z"/>
      <path class="cls-2" d="M7.21,12.77l-.16.27h0l.16-.27h0ZM7.21,13.14v4.98c0,.08.08.22.16.27l3.76,2.17v-4.98c0-.08-.08-.22-.15-.26l-3.76-2.18h0ZM11.27,21.29c-.1,0-.2-.04-.3-.09l-3.93-2.27c-.27-.15-.47-.5-.47-.82v-5.17c0-.21.09-.39.25-.48.16-.1.35-.09.54.02h0l3.92,2.27c.27.15.48.5.48.82v5.17c0,.21-.09.39-.25.47-.07.05-.15.07-.24.07Z"/>
    </g>
  </g>
</svg>