<?xml version="1.0" encoding="UTF-8"?>
<svg id="Layer_2" data-name="Layer 2" xmlns="http://www.w3.org/2000/svg" viewBox="0 0 40.37 40.24" fill="currentColor">
  <defs>
    <style>
      .cls-1 {
        fill: #fff;
      }

      .cls-1, .cls-2, .cls-3, .cls-4 {
        fill-rule: evenodd;
      }

      .cls-2 {
        fill: #1a87c7;
      }

      .cls-3 {
        fill: #bdedf8;
      }

      .cls-4 {
        fill: #66ceef;
      }
    </style>
  </defs>
  <g id="_Layer_" data-name="&amp;lt;Layer&amp;gt;">
    <g>
      <path class="cls-4" d="M18.34,32.78c-.1,1.32-.46,2.04-1.32,2.99-.67.59-1.28,1.06-2.2.83l1.42.82c.62.15.87.04,1.43-.24,1.34-.91,1.95-1.96,2.09-3.58v-14.56c0-.71,1.03-1.62,1.81-1.33l-1.41-.82c-.78-.29-1.81.63-1.81,1.34v14.55h0ZM14.67,39.63l-1.41-.82c-.93-.76-.98-1.75-.98-2.88.63-.36,1.27-.73,1.89-1.09l1.42.81c-.63.37-1.26.73-1.9,1.09,0,1.13.05,2.12.98,2.88h0Z"/>
      <path class="cls-2" d="M18.34,32.78h0,0ZM16.35,37.12c.49.12.65.03,1.18-.23,1.23-.83,1.79-1.8,1.91-3.32v-14.53c0-.47.33-1.01.84-1.36.1-.07.2-.13.31-.18l-.6-.34c-.18-.06-.48,0-.77.21-.33.23-.58.59-.58.86v14.58c-.1,1.33-.46,2.13-1.4,3.17-.44.39-.86.73-1.35.89l.45.26h0ZM12.59,36.11c0,1.05.1,1.85.86,2.47l.17.09c-.2-.57-.23-1.21-.23-1.92,0-.11.06-.21.16-.26l1.43-.83-.8-.46-1.58.91h0ZM14.67,39.94c-.06,0-.11-.01-.15-.04l-1.42-.82c-1.05-.85-1.13-1.88-1.13-3.15,0-.11.06-.21.16-.27l1.88-1.09c.1-.06.22-.06.31,0l1.42.82c.09.06.15.15.15.26s-.05.21-.15.27l-.7.4c.69.1,1.18-.26,1.78-.79.82-.91,1.11-1.57,1.21-2.77v-14.54c0-.48.33-1.01.84-1.37.46-.32.96-.42,1.38-.26l1.47.84c.14.08.19.25.12.4-.07.15-.24.21-.39.16-.23-.09-.53-.02-.83.19-.33.23-.57.59-.57.86v14.56c-.14,1.73-.8,2.88-2.22,3.84-.61.3-.95.46-1.69.28-.03,0-.05-.02-.08-.03l-1.42-.82c-.09-.05-.14-.14-.15-.23l-.51.3c0,1.05.11,1.85.86,2.47.12.1.15.28.06.41-.06.09-.16.13-.25.13Z"/>
      <path class="cls-3" d="M21.64,32.51c0,6.05-7.95,10.64-7.95,4.59v-.35c.64-.36,1.26-.73,1.9-1.09v.35c0,3.18,4.17.75,4.17-2.41v-14.56c0-.86,1.89-1.96,1.89-1.1v14.56Z"/>
      <path class="cls-2" d="M14,36.93v.17c0,1.16.3,2.53,1.74,2.53,2.15,0,5.6-3.26,5.6-7.12v-14.56s-.32.03-.66.28c-.36.26-.62.59-.62.81v14.56c0,2.32-2.06,4.21-3.41,4.21-.42,0-.76-.16-1.01-.47-.22-.28-.34-.66-.36-1.15l-1.28.74h0ZM15.74,40.24c-.72,0-2.36-.31-2.36-3.15v-.35c0-.11.06-.21.16-.27l1.89-1.09c.09-.06.22-.06.31,0,.09.06.15.15.15.27v.35c0,.42.09.75.24.95.12.16.3.24.52.24,1.08,0,2.79-1.64,2.79-3.59v-14.56c0-.85,1.22-1.72,1.89-1.72.23,0,.36.09.44.16.08.08.18.22.18.47v14.56c0,4.27-3.76,7.74-6.21,7.74Z"/>
      <path class="cls-1" d="M6.14,4.61C13.9.13,26.47.13,34.25,4.61c7.76,4.48,7.77,11.75,0,16.23-7.76,4.48-20.36,4.48-28.12,0-7.76-4.48-7.75-11.75.01-16.23Z"/>
      <path class="cls-2" d="M6.14,4.61h0,0ZM20.19,1.56c-5.03,0-10.07,1.11-13.91,3.32h0C2.64,6.99.62,9.77.62,12.73s2.01,5.73,5.67,7.85c7.67,4.42,20.14,4.42,27.81,0,3.65-2.11,5.67-4.9,5.67-7.85s-2.01-5.74-5.67-7.85c-3.83-2.21-8.87-3.32-13.9-3.32h0ZM20.19,24.5c-5.15,0-10.3-1.13-14.21-3.39C2.12,18.88,0,15.9,0,12.73S2.12,6.57,5.98,4.34C13.82-.18,26.56-.18,34.4,4.34c3.85,2.22,5.97,5.2,5.97,8.38s-2.12,6.16-5.97,8.38c-3.92,2.26-9.06,3.39-14.21,3.39Z"/>
      <path class="cls-3" d="M16.47,1.45c4.42-.47,9.14-.13,13.41,1.25l-1.27-.07-8.42-.48-3.72-.7Z"/>
      <path class="cls-2" d="M18.85,1.58l1.39.26,6.61.37c-2.55-.53-5.25-.75-8.01-.64h0ZM29.88,3.01h-.02l-9.69-.56-3.75-.7c-.15-.03-.26-.16-.25-.31,0-.15.12-.28.28-.29,4.73-.5,9.41-.07,13.54,1.27.15.05.23.2.21.35-.03.15-.16.25-.3.25Z"/>
      <path class="cls-3" d="M31.34,22.23c-7.73,3.03-18.35,2.57-25.21-1.39-.97-.56-1.82-1.17-2.55-1.81L20.19,2.15l11.15,20.08Z"/>
      <path class="cls-2" d="M4.02,19.01c.66.56,1.43,1.08,2.26,1.56,6.57,3.79,16.86,4.4,24.61,1.49L20.12,2.66,4.02,19.01h0ZM20.21,24.51c-5.19,0-10.34-1.16-14.23-3.4-.98-.56-1.86-1.18-2.62-1.85-.06-.06-.09-.14-.1-.22,0-.09.03-.17.09-.23L19.97,1.93c.07-.07.17-.11.27-.09.09.01.17.07.23.15l11.15,20.08c.04.08.05.17.02.25-.03.08-.1.15-.17.18-3.42,1.34-7.34,1.99-11.25,1.99Z"/>
      <path class="cls-1" d="M6.14,4.61c2.93-1.69,6.54-2.74,10.33-3.16l3.72.7L3.57,19.03C-1.51,14.57-.65,8.53,6.14,4.61Z"/>
      <path class="cls-2" d="M6.28,4.87C2.92,6.82.91,9.39.64,12.1c-.23,2.3.78,4.55,2.91,6.5L19.57,2.34l-3.1-.58c-3.87.43-7.39,1.5-10.18,3.11h0ZM3.57,19.34c-.08,0-.15-.03-.21-.08C.97,17.16-.21,14.59.04,12.04c.29-2.92,2.4-5.65,5.95-7.7h0c2.88-1.66,6.49-2.76,10.46-3.2.03,0,.06,0,.09,0l3.71.7c.11.02.21.1.24.21.03.11,0,.23-.08.31L3.79,19.25c-.06.06-.14.09-.22.09Z"/>
      <path class="cls-4" d="M18.34,3.23v-1.53c0-.72,1.01-1.63,1.81-1.33.47.27.94.55,1.41.82-.87-.29-1.81.63-1.81,1.33v1.54c-.46-.49-.93-.8-1.42-.82Z"/>
      <path class="cls-2" d="M18.64,2.97c.27.06.53.19.8.39v-.84c0-.47.31-1.01.79-1.35.11-.08.23-.14.34-.2l-.58-.34c-.19-.06-.49,0-.78.2-.32.23-.57.6-.57.87v1.27h0ZM19.76,4.36c-.09,0-.17-.03-.23-.1-.44-.47-.84-.71-1.2-.72-.16,0-.3-.14-.3-.31v-1.53c0-.48.33-1.02.84-1.37.45-.32.95-.41,1.39-.25l1.46.84c.14.08.19.25.13.39-.07.14-.23.21-.39.16-.36-.12-.69.07-.86.19-.31.23-.54.58-.54.85v1.54c0,.13-.08.24-.19.28-.03.02-.08.02-.11.02Z"/>
      <path class="cls-3" d="M19.76,4.05v-1.54c0-.86,1.89-1.97,1.89-1.1v1.54c-.5,0-1.11.35-1.89,1.09Z"/>
      <path class="cls-2" d="M21.3,1.41c-.09,0-.33.08-.63.29-.36.26-.62.59-.62.82v.85c.47-.37.89-.6,1.28-.68v-1.27s-.02,0-.03,0h0ZM19.76,4.36s-.09,0-.12-.02c-.11-.05-.19-.16-.19-.28v-1.54c0-.85,1.22-1.72,1.89-1.72.23,0,.36.09.44.16.08.08.18.22.18.47v1.54c0,.17-.14.3-.3.31-.43,0-1,.34-1.68,1.01-.05.05-.13.09-.21.09Z"/>
    </g>
  </g>
</svg>