<?xml version="1.0" encoding="UTF-8"?>
<svg id="Layer_2" data-name="Layer 2" xmlns="http://www.w3.org/2000/svg" viewBox="0 0 31.86 45.79" fill="currentColor">
  <defs>
    <style>
      .cls-1 {
        fill: #fff;
      }

      .cls-1, .cls-2, .cls-3, .cls-4 {
        fill-rule: evenodd;
      }

      .cls-2 {
        fill: #1a87c7;
      }

      .cls-3 {
        fill: #bdedf8;
      }

      .cls-4 {
        fill: #66ceef;
      }
    </style>
  </defs>
  <g id="_Layer_" data-name="&amp;lt;Layer&amp;gt;">
    <g>
      <path class="cls-4" d="M4.9,18.69c6.11-3.52,15.98-3.53,22.09,0,6.1,3.52,6.1,9.24,0,12.76-6.1,3.52-16.01,3.52-22.11,0-6.1-3.53-6.1-9.24.03-12.76Z"/>
      <path class="cls-2" d="M15.93,16.35c-3.93,0-7.89.87-10.9,2.61h0c-2.83,1.64-4.43,3.82-4.43,6.11s1.6,4.47,4.43,6.11c6.03,3.47,15.8,3.47,21.8,0,2.86-1.64,4.43-3.81,4.43-6.11s-1.57-4.47-4.43-6.11c-2.99-1.74-6.94-2.61-10.9-2.61h0ZM15.93,34.39c-4.06,0-8.12-.89-11.21-2.68-3.04-1.76-4.72-4.12-4.72-6.65s1.68-4.88,4.74-6.65c6.18-3.56,16.22-3.56,22.4,0,3.04,1.77,4.72,4.13,4.72,6.65s-1.68,4.89-4.72,6.65c-3.09,1.78-7.15,2.68-11.21,2.68Z"/>
      <path class="cls-1" d="M29.37,13.43C29.19,6.15,23.24.31,15.93.31S2.65,6.15,2.49,13.43l.03,11.5c.16,1.85,1.47,3.67,3.93,5.09,5.24,3.02,13.75,3.02,18.99,0,2.44-1.42,3.75-3.23,3.9-5.09l.03-11.5Z"/>
      <path class="cls-2" d="M15.93.62C8.86.62,2.96,6.37,2.8,13.44l.03,11.49c.16,1.79,1.49,3.51,3.75,4.82,5.16,2.97,13.55,2.97,18.71,0,2.25-1.31,3.59-3.03,3.77-4.84v-11.47c-.18-7.07-6.08-12.81-13.13-12.81h0ZM15.93,32.59c-3.48,0-6.99-.78-9.64-2.31-2.44-1.41-3.9-3.29-4.09-5.32l-.03-11.53C2.36,6.02,8.51,0,15.93,0s13.57,6.02,13.73,13.42h0v11.51c-.18,2.05-1.62,3.94-4.06,5.35-2.67,1.54-6.16,2.31-9.67,2.31Z"/>
      <path class="cls-3" d="M6.45,19.08c5.24-3.03,13.73-3.03,18.99,0,5.24,3.03,5.24,7.94,0,10.97-5.24,3.02-13.75,3.02-18.99,0-5.27-3.03-5.24-7.94,0-10.97Z"/>
      <path class="cls-2" d="M15.93,17.12c-3.38,0-6.76.74-9.33,2.22h0c-2.44,1.41-3.8,3.26-3.8,5.21s1.34,3.81,3.8,5.22c5.14,2.98,13.52,2.97,18.68,0,2.44-1.41,3.77-3.26,3.77-5.22s-1.34-3.81-3.77-5.21c-2.59-1.48-5.97-2.22-9.35-2.22h0ZM15.93,32.62c-3.48,0-6.99-.77-9.64-2.3-2.65-1.52-4.09-3.57-4.09-5.76s1.44-4.22,4.09-5.74c5.32-3.08,13.99-3.08,19.31,0,2.62,1.52,4.09,3.56,4.09,5.74s-1.47,4.23-4.09,5.76c-2.67,1.53-6.16,2.3-9.67,2.3Z"/>
      <path class="cls-2" d="M10.79,28.04c-.18,0-.32-.14-.32-.31v-6.08c0-.11.05-.21.16-.27l11.76-6.79c.08-.05.21-.05.31,0,.08.05.13.16.13.27v6.02c0,.16-.13.3-.29.3-.18,0-.31-.14-.31-.3v-5.49l-11.14,6.44v5.9c0,.17-.16.31-.31.31h0ZM22.56,39.11c-.18,0-.31-.14-.31-.31v-3.08c0-.17.13-.31.31-.31.16,0,.29.14.29.31v3.08c0,.18-.13.31-.29.31h0ZM10.79,45.79c-.18,0-.32-.13-.32-.3v-9.42c0-.16.13-.3.32-.3.16,0,.31.14.31.3v9.42c0,.17-.16.3-.31.3Z"/>
      <path class="cls-1" d="M16.58,21.26c1.55,0,2.83-1.27,2.83-2.82s-1.28-2.83-2.83-2.83-2.83,1.27-2.83,2.83,1.26,2.82,2.83,2.82Z"/>
      <path class="cls-2" d="M16.58,15.92c-1.39,0-2.52,1.13-2.52,2.52s1.13,2.51,2.52,2.51,2.52-1.13,2.52-2.51-1.13-2.52-2.52-2.52h0ZM16.58,21.57c-1.73,0-3.14-1.4-3.14-3.13s1.42-3.14,3.14-3.14,3.12,1.41,3.12,3.14-1.39,3.13-3.12,3.13Z"/>
      <path class="cls-4" d="M31.49,25.94v2.47l-.08.43c-.18.73-.55,1.48-1,2.09-1.49,2.12-4.14,3.56-6.52,4.38-5.61,1.91-13.15,1.68-18.42-1.07-1.52-.79-3.04-1.9-4.03-3.31-.42-.61-.79-1.36-.97-2.09l-.1-.43v-2.47c.08.3.13.56.24.86.29.9.86,1.77,1.49,2.47,1.83,2.01,4.69,3.3,7.26,3.99,5.14,1.38,11.61,1.1,16.45-1.18,1.86-.88,3.8-2.23,4.87-4.02.31-.5.58-1.12.73-1.69l.08-.42Z"/>
      <path class="cls-2" d="M.68,27.8v.61l.08.37c.18.65.5,1.36.94,1.98,1.07,1.53,2.72,2.59,3.9,3.21,4.95,2.58,12.42,3.02,18.18,1.06,1.65-.57,4.72-1.89,6.37-4.27.45-.63.79-1.33.94-2l.11-.42v-.56c-.08.15-.16.29-.26.43-1.23,2.04-3.41,3.38-5,4.14-4.66,2.19-11.21,2.67-16.66,1.21-1.83-.5-5.21-1.68-7.42-4.08-.47-.52-.86-1.09-1.18-1.68h0ZM15.98,36.86c-3.85,0-7.7-.8-10.66-2.35-1.26-.65-2.99-1.77-4.11-3.4-.5-.69-.86-1.47-1.02-2.21l-.11-.43v-2.54c0-.16.11-.3.26-.3.16-.02.32.08.34.24.05.32.11.55.21.82.26.8.79,1.64,1.44,2.37,2.07,2.29,5.34,3.43,7.1,3.9,5.34,1.43,11.71.98,16.24-1.16,2.17-1.03,3.85-2.41,4.74-3.9.31-.49.55-1.09.68-1.6l.11-.42c.03-.16.16-.26.31-.24.16,0,.29.15.29.3v2.47l-.11.5c-.18.75-.55,1.53-1.02,2.22-1.78,2.52-4.95,3.89-6.71,4.49-2.46.84-5.24,1.25-7.99,1.25Z"/>
    </g>
  </g>
</svg>