<?xml version="1.0" encoding="UTF-8"?>
<svg id="Layer_2" data-name="Layer 2" xmlns="http://www.w3.org/2000/svg" viewBox="0 0 28.7 35.89" fill="currentColor">
  <defs>
    <style>
      .cls-1 {
        fill: #fff;
      }

      .cls-1, .cls-2, .cls-3, .cls-4 {
        fill-rule: evenodd;
      }

      .cls-2 {
        fill: #1a87c7;
      }

      .cls-3 {
        fill: #bdedf8;
      }

      .cls-4 {
        fill: #66ceef;
      }
    </style>
  </defs>
  <g id="_Layer_" data-name="&amp;lt;Layer&amp;gt;">
    <g>
      <path class="cls-4" d="M20.42,3.31l4.8-2.77.18-.09.17-.07.17-.05.16-.02h.15s.14.01.14.01l.13.04.12.06,1.44.83-.12-.06-.13-.04-.14-.02h-.15s-.16.03-.16.03l-.17.04-.17.07-.18.09-4.8,2.77v1.32l-1.44-.83v-1.32h0ZM26.73,3.17l-1.44-.83.1.07.09.08.08.1.07.12.05.13.04.15.02.16v.17s0,13.13,0,13.13v.19s-.03.19-.03.19l-.04.19-.05.19-.07.19-.08.19-.09.19-.1.18-.11.17-.12.17-.13.16-.13.15-.14.14-.14.13-.15.12-.16.1-3.2,1.85v2.97l1.44-.82v-1.32l3.2-1.84.15-.1.15-.11.14-.13.14-.14.13-.15.13-.16.11-.17.11-.18.1-.18.09-.19.07-.19.07-.19.05-.19.04-.19.02-.19v-.18s0-13.13,0-13.13v-.17s-.03-.16-.03-.16l-.04-.15-.05-.13-.07-.12-.07-.1-.09-.08-.1-.07h0Z"/>
      <path class="cls-2" d="M20.73,4.45l.82.48v-.79c0-.11.06-.21.15-.27l5.07-2.91-.68-.35h-.1s-.36.05-.36.05l-.29.14-4.63,2.68v.96h0ZM21.33,21.1l3.05-1.76.51-.38.43-.49.44-.77.21-.62.08-.62V3.3s-.01-.18-.01-.18l.54.31h0s.23.31.23.31l.06,13.52v.16s-.16.68-.16.68l-.33.67-.46.56-3.6,2.15c-.1.06-.16.16-.16.27v1.14l-.82.47v-2.26h0ZM21.02,24.2c-.05,0-.11-.02-.15-.04-.1-.06-.16-.16-.16-.27v-2.97c0-.11.06-.21.16-.27l3.6-2.15.46-.56.33-.67.16-.68v-.16s-.06-13.52-.06-13.52l-.23-.31-2.97,1.72v1.14c0,.11-.06.21-.16.27-.09.05-.21.05-.31,0l-1.44-.83c-.09-.06-.15-.16-.15-.26v-1.32c0-.11.06-.21.15-.27L25.46.1l.39-.09h.2s.37.06.37.06l.17.08,1.46.84c.14.08.19.26.12.41-.08.15-.26.21-.41.13l-.3-.09-.36.07-.29.14-1.04.6,1.13.65s.02,0,.02.01l.22.18.2.29.12.35.04.4-.03,13.55-.16.63-.4.79-.56.67-.5.38-3.05,1.76v1.14c0,.11-.06.21-.16.27l-1.44.82s-.1.04-.15.04Z"/>
      <path class="cls-1" d="M21.86,5.46l3.8-2.19c.4-.23.77-.26,1.05-.12,0,0,.02,0,.03.01.27.16.45.5.45.98v13.13c0,.48-.17,1.02-.45,1.5-.28.48-.66.89-1.07,1.14l-3.2,1.84v1.32l4.2-2.43c.48-.28.91-.75,1.23-1.29h0c.31-.55.51-1.16.51-1.71V2.38c0-.55-.19-.94-.51-1.12-.31-.18-.75-.15-1.23.12l-4.8,2.77v1.32Z"/>
      <path class="cls-2" d="M22.77,21.93v.61l3.74-2.16c.41-.24.81-.67,1.11-1.18.3-.52.47-1.08.47-1.56V2.38c0-.41-.13-.72-.36-.86-.22-.13-.56-.09-.92.12l-4.64,2.68v.61l3.33-1.93c.48-.28.96-.32,1.34-.13.42.24.64.7.64,1.27v13.13c0,.52-.17,1.11-.49,1.65-.31.55-.73.99-1.18,1.25l-3.04,1.76h0ZM22.46,23.38c-.05,0-.11-.01-.15-.04-.1-.06-.16-.16-.16-.27v-1.32c0-.11.06-.21.16-.27l3.19-1.85c.35-.2.7-.58.96-1.02.26-.45.4-.94.4-1.34V4.15c0-.35-.1-.61-.29-.71-.2-.11-.48-.06-.76.1l-3.8,2.19c-.09.05-.21.05-.31,0-.1-.06-.15-.16-.15-.27v-1.32c0-.11.06-.21.15-.27l4.8-2.77c.56-.32,1.11-.37,1.53-.12.43.25.66.74.66,1.39v15.26c0,.59-.19,1.25-.55,1.86-.36.62-.83,1.12-1.34,1.41l-4.2,2.42s-.1.04-.16.04Z"/>
      <path class="cls-4" d="M24.43,28.42c.03.29.03.59,0,.88h0c-.18,1.64-1.35,3.24-3.51,4.49-4.71,2.72-13.66,1.99-17.1,0-3.15-1.82-3.32-2.7-3.47-4.08-.01-.13-.03-.26-.04-.4V8.46h24.12v19.96Z"/>
      <path class="cls-2" d="M.62,8.77l.04,20.91c.13,1.24.21,2.06,3.32,3.85,3.32,1.91,12.16,2.67,16.79,0,1.99-1.15,3.18-2.66,3.36-4.25.03-.27.03-.55,0-.82,0-.01,0-.02,0-.03V8.77H.62ZM12.68,35.89c-3.63,0-7.15-.75-9.01-1.83C.45,32.2.2,31.26.04,29.74l-.04-.7V8.46c0-.17.14-.31.31-.31h24.12c.17,0,.31.14.31.31v19.95c.03.31.03.63,0,.94-.2,1.79-1.5,3.47-3.67,4.72-2.26,1.3-5.36,1.83-8.39,1.83Z"/>
      <path class="cls-3" d="M24.43,28.42c.03.29.03.59,0,.88h0c-.18,1.64-1.35,3.24-3.51,4.49-3.91,2.26-10.74,2.14-14.92.89V8.46h18.43v19.96Z"/>
      <path class="cls-2" d="M6.31,34.46c4.28,1.21,10.78,1.19,14.45-.93,1.99-1.15,3.18-2.66,3.36-4.25.03-.27.03-.55,0-.82,0-.01,0-.02,0-.03V8.77H6.31v25.69h0ZM12.61,35.87c-2.4,0-4.78-.32-6.69-.89-.13-.04-.22-.16-.22-.3V8.46c0-.17.14-.31.31-.31h18.43c.17,0,.31.14.31.31v19.95c.03.31.03.63,0,.94-.2,1.79-1.5,3.47-3.67,4.72-2.19,1.27-5.34,1.81-8.46,1.81Z"/>
      <path class="cls-1" d="M4.87,4.12c-4.15,2.4-4.16,6.28,0,8.68,4.15,2.4,10.88,2.4,15.03,0,4.15-2.39,4.15-6.28,0-8.68-4.15-2.4-10.88-2.4-15.03,0h0ZM3.85,3.53c4.71-2.72,12.35-2.72,17.07,0,4.71,2.72,4.72,7.13,0,9.86-4.71,2.72-12.36,2.72-17.08,0-4.72-2.72-4.71-7.13,0-9.86h0Z"/>
      <path class="cls-2" d="M5.02,4.39c-1.91,1.1-2.96,2.55-2.96,4.08s1.05,2.97,2.96,4.07c4.06,2.34,10.67,2.34,14.73,0,1.91-1.1,2.96-2.55,2.96-4.07s-1.05-2.97-2.96-4.08c-4.06-2.34-10.66-2.34-14.72,0h0ZM12.38,14.9c-2.78,0-5.56-.61-7.67-1.83-2.11-1.22-3.27-2.85-3.27-4.6s1.16-3.39,3.27-4.61h0c4.23-2.44,11.11-2.44,15.34,0,2.11,1.22,3.27,2.85,3.27,4.61s-1.16,3.39-3.27,4.6c-2.11,1.22-4.89,1.83-7.67,1.83h0ZM3.85,3.53h0,0ZM12.38,1.8c3.04,0,6.07.67,8.38,2,2.18,1.26,3.38,2.92,3.38,4.67s-1.2,3.4-3.38,4.66c-4.62,2.67-12.14,2.67-16.77,0-2.18-1.26-3.38-2.91-3.38-4.66s1.2-3.4,3.38-4.66h0c2.31-1.33,5.35-2,8.38-2h0ZM12.38,15.73c-3.15,0-6.29-.69-8.69-2.07-2.38-1.37-3.69-3.22-3.69-5.19s1.31-3.82,3.69-5.2C8.48.5,16.28.5,21.07,3.26c2.38,1.38,3.69,3.22,3.69,5.2s-1.31,3.82-3.69,5.19c-2.4,1.38-5.54,2.07-8.69,2.07Z"/>
      <path class="cls-3" d="M4.87,4.12c4.15-2.4,10.88-2.4,15.03,0,4.15,2.4,4.15,6.28,0,8.68-4.15,2.4-10.88,2.4-15.03,0-4.15-2.4-4.15-6.28,0-8.68Z"/>
      <path class="cls-2" d="M5.02,4.39c-1.91,1.1-2.96,2.55-2.96,4.08s1.05,2.97,2.96,4.07c4.06,2.34,10.67,2.34,14.73,0,1.91-1.1,2.96-2.55,2.96-4.07s-1.05-2.97-2.96-4.08c-4.06-2.34-10.66-2.34-14.72,0h0ZM12.38,14.9c-2.78,0-5.56-.61-7.67-1.83-2.11-1.22-3.27-2.85-3.27-4.6s1.16-3.39,3.27-4.61h0c4.23-2.44,11.11-2.44,15.34,0,2.11,1.22,3.27,2.85,3.27,4.61s-1.16,3.39-3.27,4.6c-2.11,1.22-4.89,1.83-7.67,1.83Z"/>
      <path class="cls-4" d="M22.7,9.94c-.45,1.05-1.38,2.04-2.8,2.86-4.15,2.4-10.88,2.4-15.03,0-1.42-.82-2.35-1.81-2.8-2.86.45-1.05,1.38-2.04,2.8-2.86,4.15-2.4,10.88-2.4,15.03,0,1.42.82,2.35,1.82,2.8,2.86Z"/>
      <path class="cls-2" d="M2.4,9.94c.46.97,1.36,1.87,2.61,2.59,4.06,2.34,10.67,2.34,14.73,0,1.26-.73,2.16-1.62,2.62-2.59-.46-.97-1.36-1.87-2.62-2.6-4.06-2.34-10.66-2.34-14.72,0-1.26.73-2.16,1.62-2.62,2.6h0ZM12.38,14.9c-2.78,0-5.55-.61-7.67-1.83-1.43-.82-2.44-1.86-2.93-3.01-.03-.08-.03-.17,0-.24.49-1.14,1.5-2.19,2.93-3.01,4.23-2.44,11.11-2.44,15.34,0,1.43.82,2.44,1.87,2.93,3.01.03.08.03.16,0,.24-.49,1.14-1.5,2.18-2.93,3.01-2.11,1.22-4.89,1.83-7.67,1.83Z"/>
      <path class="cls-2" d="M12.6,14.91c-.14,0-.27-.1-.3-.25-.03-.16.08-.33.24-.36,1.04-.2,2.07-.52,3.13-.98,1.09-.47,1.95-1.05,2.48-1.66.31-.36.67-.92.55-1.53-.02-.11-.06-.21-.1-.31-.32-.74-1.37-1.41-2.87-1.82-1.67-.46-3.67-.56-5.64-.29-1,.14-1.92.39-2.68.72-.67.29-1.21.64-1.54,1.02-.18.2-.38.5-.34.81.01.06.03.13.06.19.18.41.8.78,1.7,1.02,1.05.29,2.37.35,3.63.18.61-.08,1.15-.23,1.61-.42.4-.17.7-.38.89-.59.08-.1.18-.24.14-.34-.04-.13-.3-.34-.88-.5-.17-.04-.26-.21-.22-.37.04-.17.21-.26.38-.22.51.13,1.15.4,1.31.91.07.21.07.53-.26.93-.25.29-.62.54-1.11.75-.51.22-1.1.38-1.77.47-1.33.19-2.74.11-3.87-.19-.77-.21-1.77-.62-2.1-1.37-.05-.12-.08-.24-.1-.35-.06-.43.11-.88.48-1.31.39-.44,1-.85,1.76-1.18.82-.35,1.78-.61,2.84-.76,2.05-.28,4.14-.17,5.88.31,1.71.47,2.87,1.24,3.28,2.17.06.14.11.29.13.44.13.68-.11,1.39-.68,2.06-.59.68-1.52,1.31-2.7,1.82-1.1.48-2.16.81-3.25,1.02-.02,0-.04,0-.06,0Z"/>
      <path class="cls-1" d="M22.16,32.95c-.37.29-.78.57-1.24.84-1,.58-2.19,1-3.49,1.29V14.79c1.26-.34,2.44-.8,3.49-1.4.46-.26.87-.55,1.24-.84v20.4Z"/>
      <path class="cls-2" d="M22.16,32.95h0,0ZM17.74,15.02v19.67c1.17-.29,2.18-.68,3.02-1.17.39-.23.76-.47,1.09-.72V13.16c-.25.17-.51.34-.78.49-.98.57-2.1,1.03-3.33,1.37h0ZM17.43,35.39c-.07,0-.14-.02-.19-.07-.07-.06-.12-.15-.12-.24V14.79c0-.14.1-.26.23-.3,1.27-.33,2.41-.8,3.41-1.37.44-.25.84-.52,1.2-.81.09-.07.22-.09.32-.04.11.05.18.16.18.28v20.4c0,.09-.05.18-.12.24-.38.3-.81.59-1.28.86-.98.57-2.18,1.01-3.57,1.32-.02,0-.05,0-.07,0Z"/>
    </g>
  </g>
</svg>