<?xml version="1.0" encoding="UTF-8"?>
<svg id="Layer_2" data-name="Layer 2" xmlns="http://www.w3.org/2000/svg" viewBox="0 0 71.04 87.49" fill="currentColor">
  <defs>
    <style>
      .cls-1 {
        fill: #fff;
      }

      .cls-1, .cls-2, .cls-3, .cls-4 {
        fill-rule: evenodd;
      }

      .cls-2 {
        fill: #1a87c7;
      }

      .cls-3 {
        fill: #bdedf8;
      }

      .cls-4 {
        fill: #66ceef;
      }
    </style>
  </defs>
  <g id="_Layer_" data-name="&amp;lt;Layer&amp;gt;">
    <g>
      <path class="cls-3" d="M4.67,86.69l-3.23-1.87c-.66-.46-.78-1.02-.81-1.79V26.9c.04-1.07.3-1.79.81-2.72.55-.9,1.05-1.49,1.95-2.06l5.93-3.42,3.52-2.03L30.52,6.44l3.08-1.78,6.38-3.68c.68-.35,1.23-.53,1.95-.19l3.24,1.87c-.72-.34-1.27-.16-1.95.19l-6.37,3.67-3.08,1.78-17.68,10.21-3.53,2.04-5.93,3.42c-.9.57-1.4,1.16-1.95,2.06-.5.93-.76,1.66-.81,2.73v56.13c.03.76.15,1.33.81,1.79Z"/>
      <path class="cls-2" d="M41.18,1.22c-.23,0-.51.1-.93.31L3.69,22.64c-.82.52-1.25,1.05-1.73,1.85-.43.8-.68,1.43-.72,2.43v56.11c.04.72.15,1,.55,1.28l1.47.85c0-.08,0-.16,0-.24V28.77c.05-1.26.37-2.09.88-3.02.58-.94,1.13-1.63,2.16-2.29L42.9,2.32c.08-.04.15-.08.24-.12l-1.51-.88c-.15-.07-.29-.1-.44-.1h0ZM4.67,87.3c-.1,0-.21-.03-.3-.08l-3.24-1.87c-.97-.67-1.08-1.53-1.12-2.29V26.9c.06-1.26.38-2.08.89-3.02.58-.94,1.13-1.63,2.16-2.29L39.66.45c.7-.36,1.5-.69,2.52-.21l3.28,1.89c.28.17.39.53.24.82-.15.3-.51.41-.81.27-.44-.2-.74-.17-1.41.18L6.93,24.51c-.82.52-1.25,1.05-1.73,1.85-.43.79-.68,1.43-.72,2.43v56.1c.03.73.15,1.01.55,1.28.27.19.35.55.17.83-.12.18-.32.29-.52.29Z"/>
      <path class="cls-3" d="M43.21,65.38L6.62,86.5c-1.52.88-2.76.16-2.76-1.6V28.77c0-1.76,1.24-3.91,2.76-4.79l5.93-3.42,3.53-2.04,17.68-10.21,3.08-1.78,6.37-3.67c1.52-.88,2.77-.16,2.77,1.59v56.14c0,1.76-1.24,3.91-2.77,4.79Z"/>
      <path class="cls-2" d="M43.21,65.38h.02-.02ZM44.44,3.1c-.27,0-.59.1-.92.29L6.93,24.51c-1.33.76-2.46,2.71-2.46,4.26v56.13c0,.61.18,1.07.5,1.25.32.18.81.12,1.34-.19l36.59-21.12c1.33-.77,2.46-2.72,2.46-4.26V4.45c0-.61-.18-1.07-.5-1.25-.12-.07-.26-.1-.41-.1h0ZM5.39,87.49c-.37,0-.71-.08-1.03-.27-.72-.41-1.12-1.24-1.12-2.32V28.77c0-1.99,1.35-4.33,3.07-5.32L42.9,2.32c.94-.54,1.85-.61,2.57-.19.72.42,1.12,1.24,1.12,2.32v56.14c0,1.99-1.35,4.33-3.07,5.32h0L6.93,87.03c-.53.3-1.05.46-1.54.46Z"/>
      <path class="cls-1" d="M8.92,27.94v53.45l33.29-19.22V8.72c-11.1,6.41-22.2,12.82-33.29,19.22Z"/>
      <path class="cls-2" d="M9.54,28.3v52.02l32.06-18.51V9.78L9.54,28.3h0ZM8.92,82c-.11,0-.21-.03-.3-.08-.19-.11-.31-.31-.31-.53V27.94c0-.22.12-.42.31-.54L41.9,8.19c.19-.11.42-.11.61,0,.19.11.31.31.31.53v53.45c0,.22-.12.42-.31.53l-33.29,19.22c-.09.06-.2.08-.31.08Z"/>
      <path class="cls-1" d="M20.57,23.63v-5.48c4.07-2.36,8.15-4.71,12.23-7.06v5.48c-4.08,2.35-8.16,4.71-12.23,7.06h0ZM34.6,17.3v-9.04l-15.84,9.15v9.04l15.84-9.15h0Z"/>
      <path class="cls-2" d="M21.18,18.51v4.06l11-6.36v-4.05l-11,6.35h0ZM20.57,24.25c-.11,0-.21-.03-.31-.08-.19-.11-.31-.31-.31-.53v-5.48c0-.22.12-.42.31-.53l12.23-7.06c.19-.11.42-.11.61,0,.19.11.31.32.31.54v5.48c0,.22-.12.42-.31.53l-12.22,7.06c-.1.05-.2.08-.31.08h0ZM34.6,17.3h.02-.02ZM19.37,17.77l14.61-8.44v7.61l-14.61,8.44v-7.62h0ZM18.76,27.07c-.11,0-.22-.03-.31-.08-.19-.11-.31-.32-.31-.54v-9.04c0-.22.12-.42.31-.54l15.85-9.15c.19-.11.42-.11.61,0,.19.11.31.31.31.54v9.04c0,.22-.12.42-.31.53l-15.85,9.15c-.09.06-.2.08-.3.08Z"/>
      <polygon class="cls-1" points="18.76 17.41 34.6 8.27 32.43 7.01 31.13 6.26 15.29 15.41 18.76 17.41"/>
      <path class="cls-2" d="M16.52,15.41l2.24,1.29,14.61-8.44-2.24-1.29-14.61,8.44h0ZM18.76,18.03c-.11,0-.22-.03-.31-.08l-3.47-2c-.19-.12-.31-.31-.31-.53s.12-.42.31-.53l15.85-9.15c.19-.11.42-.11.61,0l3.47,2c.19.11.31.31.31.54s-.12.42-.31.53l-15.85,9.15c-.09.05-.2.08-.3.08Z"/>
      <path class="cls-3" d="M14.07,38.09h0c-.66.38-1.19,1.3-1.19,2.05h0c0,.76.53,1.06,1.19.69h0c.65-.38,1.18-1.3,1.18-2.05h0c0-.75-.53-1.06-1.18-.69Z"/>
      <path class="cls-2" d="M14.38,38.63c-.46.27-.88.99-.88,1.52,0,.16.04.23.05.24,0,0,.08-.01.21-.09.46-.26.88-.99.88-1.52,0-.15-.04-.22-.05-.24,0,0-.08.01-.22.09h0ZM13.54,41.61c-.22,0-.43-.05-.61-.16-.42-.24-.66-.71-.66-1.3,0-.96.66-2.1,1.5-2.58h0c.51-.3,1.04-.32,1.46-.08.41.24.66.71.66,1.3,0,.97-.66,2.11-1.49,2.59-.28.16-.57.24-.84.24Z"/>
      <path class="cls-3" d="M14.07,45.46h0c-.66.38-1.19,1.3-1.19,2.06h0c0,.75.53,1.06,1.19.68h0c.65-.37,1.18-1.3,1.18-2.05h0c0-.76-.53-1.07-1.18-.69Z"/>
      <path class="cls-2" d="M14.38,45.99c-.46.27-.88.99-.88,1.52,0,.15.04.22.05.24,0,0,.08-.01.21-.08.46-.27.88-.99.88-1.52,0-.16-.04-.23-.05-.25,0,0-.08.01-.22.09h0ZM13.54,48.98c-.22,0-.43-.06-.61-.16-.42-.24-.66-.71-.66-1.3,0-.97.66-2.11,1.5-2.59h0c.51-.29,1.04-.32,1.46-.08.41.24.66.72.66,1.3,0,.96-.66,2.1-1.49,2.58-.28.16-.57.25-.84.25Z"/>
      <path class="cls-3" d="M14.07,53.29h0c-.66.37-1.19,1.3-1.19,2.05h0c0,.75.53,1.06,1.19.68h0c.65-.38,1.18-1.29,1.18-2.05h0c0-.75-.53-1.06-1.18-.68Z"/>
      <path class="cls-2" d="M14.38,53.82c-.46.27-.88,1-.88,1.53,0,.15.04.22.05.24,0,0,.08-.01.21-.09.47-.27.88-.98.88-1.52,0-.15-.04-.23-.05-.24,0,0-.08.02-.22.09h0ZM13.54,56.81c-.22,0-.43-.06-.61-.16-.42-.24-.66-.72-.66-1.3,0-.97.66-2.11,1.5-2.59h0c.51-.3,1.04-.32,1.46-.08.41.24.66.71.66,1.3,0,.98-.64,2.1-1.49,2.59-.28.16-.57.25-.84.25Z"/>
      <path class="cls-4" d="M4.67,86.69l-3.23-1.87c-.27-.18-.45-.39-.57-.61-.3-.59-.24-1.49-.24-2.14V28.39c0-1.04-.06-1.92.24-2.94.14-.45.34-.89.58-1.29l3.24,1.87c-.31.51-.54,1.07-.67,1.66-.18.77-.15,1.43-.15,2.21v53.93c0,.57-.04,1.24.08,1.78.09.43.29.78.73,1.08Z"/>
      <path class="cls-2" d="M1.69,25.01c-.09.2-.17.4-.23.62-.24.78-.22,1.49-.22,2.31v54.42c0,.53-.02,1.19.18,1.56.07.15.19.27.37.4l1.47.85c-.02-.34-.02-.69-.02-1.01v-.34s0-54.22,0-54.22c0-.68,0-1.32.16-2.05.11-.45.26-.88.45-1.28l-2.17-1.25h0ZM4.67,87.3c-.1,0-.21-.03-.3-.08l-3.24-1.87c-.39-.26-.63-.53-.81-.86-.34-.64-.32-1.47-.31-2.14V27.95c0-.88-.02-1.72.27-2.68.15-.51.37-.99.64-1.44.17-.28.55-.38.83-.21l3.24,1.86c.14.08.25.22.29.38.04.16.02.33-.07.47-.28.45-.48.95-.6,1.48-.14.6-.13,1.14-.13,1.77v54.58c-.01.46-.02.93.07,1.3.07.32.2.52.48.71.27.19.35.56.17.84-.12.18-.32.29-.52.29Z"/>
      <polygon class="cls-3" points="15.29 17.19 16.83 18.08 16.83 25.34 18.76 26.45 18.76 17.41 15.29 15.41 15.29 17.19"/>
      <path class="cls-2" d="M17.45,24.99l.69.4v-7.62l-2.24-1.29v.36l1.24.72c.19.11.31.31.31.54v6.9h0ZM18.76,27.07c-.11,0-.22-.03-.31-.08l-1.92-1.11c-.19-.11-.31-.31-.31-.53v-6.9l-1.24-.72c-.19-.1-.31-.31-.31-.53v-1.78c0-.22.12-.42.31-.53.19-.11.42-.11.61,0l3.47,2c.19.11.31.31.31.54v9.04c0,.22-.12.42-.31.54-.09.06-.2.08-.3.08Z"/>
      <path class="cls-2" d="M18.7,37.79c-.21,0-.42-.11-.53-.3-.17-.3-.07-.68.22-.84l19.29-11.14c.29-.17.67-.07.84.23.17.29.07.67-.22.84l-19.29,11.14c-.1.06-.2.08-.31.08Z"/>
      <path class="cls-2" d="M18.7,45.62c-.21,0-.42-.11-.53-.31-.17-.29-.07-.67.22-.84l19.29-11.14c.29-.17.67-.07.84.23.17.29.07.67-.22.84l-19.29,11.14c-.1.06-.2.08-.31.08Z"/>
      <path class="cls-2" d="M18.7,52.99c-.21,0-.42-.11-.53-.3-.17-.3-.07-.67.22-.84l13.76-7.94c.29-.17.66-.07.84.23.17.29.07.67-.22.84l-13.75,7.94c-.1.06-.2.08-.31.08Z"/>
      <polygon class="cls-1" points="30.87 12.2 30.87 15.27 32.8 16.57 32.8 11.09 30.87 12.2"/>
      <path class="cls-2" d="M31.49,14.94l.69.47v-3.25l-.69.4v2.38h0ZM32.8,17.18c-.12,0-.24-.04-.35-.11l-1.92-1.3c-.17-.12-.27-.31-.27-.51v-3.07c0-.22.12-.42.31-.53l1.92-1.11c.19-.11.42-.11.61,0,.19.11.31.32.31.54v5.48c0,.23-.13.43-.32.54-.09.05-.19.07-.29.07Z"/>
      <polygon class="cls-1" points="20.57 21.22 30.87 15.27 32.8 16.57 20.57 23.63 20.57 21.22"/>
      <path class="cls-2" d="M21.18,21.57v.99l10.45-6.04-.79-.53-9.67,5.58h0ZM20.57,24.25c-.11,0-.21-.03-.31-.08-.19-.11-.31-.31-.31-.53v-2.41c0-.22.12-.42.31-.53l10.31-5.95c.2-.12.46-.11.65.02l1.93,1.3c.17.12.28.32.27.53,0,.21-.12.4-.31.51l-12.23,7.06c-.09.05-.2.08-.3.08Z"/>
      <path class="cls-4" d="M42.97,75.13l-4.83-2.79c5.66,3.19,12.71-2.15,16.31-6.27,5.03-5.74,9.46-15.54,7.56-23.17-.56-2.24-1.7-4.23-3.74-5.43l5.07,2.93c5.09,3.23,4.29,11.41,2.71,16.43-2.34,7.44-8.66,16.44-16.34,18.76-2.27.69-4.62.72-6.74-.48Z"/>
      <path class="cls-2" d="M43.28,74.6c1.77.99,3.87,1.13,6.26.41,7.37-2.22,13.59-10.91,15.93-18.36,1.71-5.44,2.1-12.83-2.45-15.73l-1.42-.82c.42.79.77,1.67,1.01,2.64,2,7.99-2.58,17.89-7.69,23.73-3.29,3.76-8.16,7.34-12.8,7.45l1.16.67h0ZM46.69,76.7c-1.46,0-2.8-.35-4.02-1.03,0,0,0,0-.01,0l-4.83-2.79c-.29-.17-.39-.54-.22-.84.17-.29.54-.4.83-.23,5.38,3.03,12.3-2.44,15.55-6.14,5.05-5.77,9.23-15.4,7.42-22.62-.58-2.34-1.75-4.03-3.45-5.05-.29-.17-.39-.55-.22-.84.17-.3.55-.39.84-.22l5.07,2.93c5.16,3.28,4.84,11.29,2.99,17.15-2.44,7.75-8.98,16.82-16.75,19.16-1.12.34-2.19.51-3.2.51Z"/>
      <path class="cls-1" d="M51.51,40.59c-7.76,4.49-14.05,15.38-14.05,24.34s6.29,12.59,14.05,8.11c7.76-4.48,14.05-15.38,14.05-24.34s-6.29-12.6-14.05-8.12Z"/>
      <path class="cls-2" d="M57.79,39.29c-1.82,0-3.85.61-5.97,1.84-7.58,4.37-13.74,15.05-13.74,23.81,0,4.1,1.35,7.14,3.8,8.56,2.46,1.42,5.77,1.07,9.33-.98,7.58-4.38,13.74-15.06,13.74-23.81,0-4.11-1.36-7.15-3.81-8.56-.99-.58-2.12-.86-3.35-.86h0ZM45.23,75.59c-1.45,0-2.78-.34-3.97-1.02-2.85-1.65-4.42-5.07-4.42-9.63,0-9.15,6.44-20.3,14.36-24.87,3.95-2.28,7.69-2.63,10.55-.98,2.85,1.64,4.43,5.07,4.43,9.63,0,9.14-6.45,20.3-14.36,24.87-2.31,1.33-4.55,2.01-6.59,2.01Z"/>
      <path class="cls-4" d="M48.2,34.83c3.54-2,8.15-3.45,12-1.38l4.83,2.79c-7.11-3.54-15.53,3.03-19.92,8.15-5.87,6.86-10.92,18.09-9.12,27.2.58,2.96,1.89,5.54,4.45,7.24-1.15-.66-4.51-2.51-5.39-3.18-5.54-4.19-4.63-13.49-2.88-19.3,2.54-8.41,8.38-17,16.02-21.52Z"/>
      <path class="cls-2" d="M48.51,35.36c-7.02,4.16-13.05,12.27-15.74,21.16-1.89,6.25-2.33,14.87,2.66,18.63.29.23.91.6,1.63,1.02-.77-1.26-1.32-2.74-1.67-4.48-1.86-9.43,3.5-20.98,9.26-27.72,4.13-4.83,10.41-9.55,16.38-9.35l-1.13-.66c-3.78-2.03-8.27-.37-11.39,1.38h0ZM40.45,79.44c-.11,0-.21-.03-.31-.08l-1.07-.61c-1.55-.87-3.67-2.07-4.39-2.61-5.48-4.14-5.19-13.03-3.09-19.97,2.77-9.18,9.02-17.56,16.3-21.87,0,0,.01,0,.01,0,3.38-1.91,8.31-3.69,12.6-1.39l4.85,2.8c.29.17.39.53.24.82-.16.3-.52.41-.82.26-6.38-3.18-14.32,2.32-19.17,8-5.58,6.52-10.77,17.65-8.99,26.68.62,3.15,1.99,5.39,4.19,6.84.28.18.36.56.18.84-.12.19-.31.29-.52.29Z"/>
      <polygon class="cls-4" points="42.72 74.98 37.89 72.19 42.97 75.13 42.72 74.98"/>
      <path class="cls-2" d="M42.97,75.74c-.1,0-.21-.03-.31-.08l-5.07-2.93c-.29-.17-.39-.55-.22-.84.17-.29.55-.39.84-.23l4.83,2.79s.01.01.01.01l.25.15c.28.18.38.55.21.84-.12.19-.32.3-.53.3Z"/>
      <path class="cls-3" d="M63.1,40.26c-1.32-.76-2.88-1.07-4.62-.9-1.68.17-3.51.79-5.44,1.9-1.93,1.12-3.77,2.62-5.44,4.39-1.74,1.84-3.3,3.97-4.62,6.24-1.31,2.27-2.37,4.7-3.09,7.12-.7,2.33-1.08,4.68-1.08,6.91s.38,4.13,1.08,5.66c.72,1.59,1.78,2.79,3.09,3.55,1.32.76,2.88,1.08,4.62.91,1.68-.17,3.52-.79,5.44-1.9,1.93-1.12,3.77-2.62,5.44-4.39,1.74-1.84,3.31-3.96,4.62-6.23,1.32-2.27,2.37-4.69,3.09-7.12.69-2.34,1.07-4.68,1.07-6.91s-.38-4.13-1.07-5.66c-.72-1.59-1.78-2.79-3.09-3.55h0ZM40.73,50.6c3.15-5.45,7.5-10.21,12.3-12.98,4.81-2.77,9.15-3.03,12.3-1.22,3.15,1.82,5.09,5.71,5.09,11.26s-1.94,11.69-5.09,17.14c-3.14,5.45-7.49,10.21-12.3,12.98-4.8,2.78-9.15,3.03-12.3,1.22-3.15-1.82-5.09-5.71-5.09-11.26s1.94-11.69,5.09-17.14h0Z"/>
      <path class="cls-2" d="M59.39,39.93c-.28,0-.57.01-.85.04-1.64.16-3.39.78-5.2,1.82-1.83,1.06-3.62,2.5-5.31,4.28-1.69,1.79-3.22,3.85-4.53,6.13-1.31,2.27-2.33,4.62-3.03,6.98-.7,2.35-1.05,4.62-1.05,6.73s.34,3.91,1.02,5.41c.66,1.46,1.62,2.56,2.83,3.27,1.23.7,2.65.98,4.25.82,1.64-.16,3.39-.78,5.2-1.82,1.83-1.06,3.62-2.5,5.3-4.28,1.7-1.79,3.22-3.85,4.53-6.12,1.31-2.27,2.33-4.62,3.03-6.99.7-2.35,1.05-4.61,1.05-6.73s-.35-3.91-1.02-5.41c-.67-1.47-1.62-2.57-2.84-3.27h0c-.99-.58-2.14-.86-3.39-.86h0ZM46.67,76.69c-1.47,0-2.82-.35-4.01-1.03-1.45-.83-2.57-2.12-3.34-3.82-.75-1.67-1.14-3.65-1.14-5.92s.37-4.62,1.1-7.08c.73-2.46,1.79-4.9,3.15-7.25,1.36-2.35,2.95-4.49,4.71-6.36,1.77-1.86,3.65-3.37,5.59-4.49,1.95-1.13,3.87-1.8,5.69-1.98,1.87-.19,3.55.15,4.99.98h0c1.45.84,2.58,2.12,3.35,3.83.75,1.66,1.13,3.65,1.13,5.92s-.37,4.63-1.11,7.08c-.73,2.46-1.79,4.9-3.15,7.25-1.35,2.35-2.94,4.49-4.71,6.35-1.76,1.86-3.64,3.37-5.58,4.5-1.97,1.13-3.88,1.8-5.69,1.98-.34.03-.66.05-.98.05h0ZM60.8,35.85c1.55,0,2.98.36,4.22,1.08,3.09,1.78,4.79,5.59,4.79,10.73s-1.78,11.23-5.01,16.83c-3.23,5.6-7.52,10.13-12.07,12.76-4.45,2.57-8.6,3-11.68,1.22-3.09-1.78-4.78-5.59-4.78-10.73s1.78-11.23,5.01-16.84c3.23-5.6,7.52-10.12,12.07-12.75,2.65-1.52,5.18-2.3,7.46-2.3h0ZM45.27,80.77c-1.77,0-3.4-.41-4.84-1.24-3.49-2.01-5.41-6.2-5.41-11.79s1.84-11.67,5.18-17.45c3.34-5.78,7.79-10.47,12.52-13.21,4.84-2.79,9.43-3.23,12.91-1.22,3.49,2.01,5.4,6.2,5.4,11.79s-1.84,11.66-5.18,17.45c-3.34,5.78-7.79,10.47-12.52,13.21-2.84,1.64-5.59,2.46-8.07,2.46Z"/>
      <polygon class="cls-3" points="54.46 57.22 53.2 59.89 44.24 57.33 45.5 54.66 54.46 57.22"/>
      <path class="cls-2" d="M45.11,56.94l7.75,2.21.73-1.53-7.76-2.22-.72,1.54h0ZM53.2,60.5c-.06,0-.11,0-.17-.02l-8.96-2.56c-.17-.05-.32-.17-.39-.34-.07-.17-.07-.35,0-.52l1.26-2.67c.13-.28.42-.42.73-.33l8.96,2.55c.18.05.32.17.39.34.07.16.07.35,0,.52l-1.26,2.67c-.1.22-.32.35-.56.35Z"/>
      <path class="cls-2" d="M51.12,62.23c-.11,0-.21-.03-.31-.08-.29-.17-.39-.55-.23-.84l10.39-18c.17-.29.55-.4.84-.23.3.17.4.55.22.84l-10.39,18c-.11.2-.32.31-.53.31Z"/>
    </g>
  </g>
</svg>