<?xml version="1.0" encoding="UTF-8"?>
<svg id="Layer_2" data-name="Layer 2" xmlns="http://www.w3.org/2000/svg" viewBox="0 0 57.28 86.42" fill="currentColor">
  <defs>
    <style>
      .cls-1 {
        fill: #fff;
      }

      .cls-1, .cls-2, .cls-3, .cls-4 {
        fill-rule: evenodd;
      }

      .cls-2 {
        fill: #1a87c7;
      }

      .cls-3 {
        fill: #bdedf8;
      }

      .cls-4 {
        fill: #66ceef;
      }
    </style>
  </defs>
  <g id="_Layer_" data-name="&amp;lt;Layer&amp;gt;">
    <g>
      <path class="cls-4" d="M54.58,67.6v4.5c-.3,1.45-.63,2.26-1.36,3.55-1.72,2.65-3.53,4.07-6.21,5.71-9.87,5.4-22.6,5.66-32.95,1.93-2.23-.89-3.92-1.74-5.91-3.08-1.39-1.05-2.32-1.87-3.44-3.18-1.27-1.69-1.88-2.86-2.32-4.93v-4.5h52.19Z"/>
      <path class="cls-2" d="M3.02,68.21v3.89c.4,1.93,1.03,3.03,2.17,4.54,1.01,1.18,1.88,1.99,3.32,3.06,1.83,1.24,3.46,2.09,5.77,3.01,10.78,3.89,23.2,3.17,32.43-1.89,2.52-1.53,4.31-2.92,6-5.49.69-1.26.98-2.02,1.25-3.36v-3.76H3.02ZM28.59,86.42c-4.97,0-10.01-.83-14.74-2.54-2.44-1-4.12-1.87-6.05-3.16-1.55-1.15-2.47-2.02-3.56-3.29-1.27-1.67-1.98-2.92-2.45-5.2v-4.63c0-.16.06-.33.18-.44.12-.12.28-.19.43-.19h0l52.19.02c.35,0,.61.26.61.61v4.5c-.31,1.58-.64,2.45-1.43,3.85-1.83,2.81-3.74,4.29-6.41,5.93-5.5,3.01-12.07,4.54-18.76,4.54Z"/>
      <path class="cls-3" d="M10.03,56.64c10.2-5.87,26.72-5.89,36.92,0,10.19,5.9,10.19,15.44,0,21.31-10.19,5.9-26.73,5.9-36.92,0C-.17,72.07-.16,62.53,10.03,56.64Z"/>
      <path class="cls-2" d="M28.49,52.85c-6.57,0-13.14,1.44-18.15,4.33-4.75,2.73-7.36,6.32-7.36,10.13s2.61,7.39,7.33,10.12c10.01,5.77,26.31,5.77,36.32,0,4.73-2.73,7.33-6.33,7.33-10.12s-2.61-7.4-7.33-10.13c-5.01-2.89-11.58-4.33-18.15-4.33h0ZM28.49,82.97c-6.8,0-13.59-1.49-18.77-4.49-5.12-2.96-7.94-6.93-7.94-11.18s2.82-8.24,7.94-11.2c10.36-5.98,27.19-5.98,37.53,0,5.15,2.96,7.96,6.94,7.96,11.2s-2.81,8.22-7.94,11.18c-5.18,2.99-11.98,4.49-18.77,4.49Z"/>
      <path class="cls-1" d="M53.21,67.48c0,2.61-1.53,4.07-3.32,5.91-2.42,2.24-4.68,3.47-7.74,4.69-4.26,1.53-7.96,2.15-12.48,2.35-5.32.07-9.83-.52-14.87-2.35-3.77-1.51-6.86-3.27-9.35-6.57-.89-1.37-1.7-2.41-1.7-4.03V21.38c.11.47.19.89.35,1.36.38,1.16,1.07,2.35,1.84,3.3,2.65,3.27,7.04,5.46,10.99,6.66,8.69,2.64,20.09,2.17,28.2-2.05,2.4-1.25,4.82-3.02,6.38-5.25.69-.99,1.27-2.17,1.56-3.33l.14-.68v46.1Z"/>
      <path class="cls-2" d="M4.38,24.83v42.66c0,1.27.57,2.15,1.32,3.27l.28.42c2.55,3.39,5.87,5.06,9.08,6.34,4.67,1.69,9.04,2.38,14.62,2.31,4.69-.19,8.26-.86,12.27-2.31,2.81-1.13,5.07-2.29,7.52-4.57l.23-.23c1.62-1.69,2.91-2.99,2.91-5.23V24.83c-.19.31-.38.63-.59.92-1.83,2.6-4.59,4.4-6.61,5.44-7.82,4.09-19.33,4.94-28.65,2.11-2.85-.87-8.12-2.9-11.28-6.87-.42-.5-.78-1.04-1.1-1.6h0ZM28.86,81.06c-5.34,0-9.65-.73-14.26-2.38-3.37-1.37-6.86-3.13-9.63-6.8l-.29-.45c-.78-1.18-1.53-2.31-1.53-3.95V21.38c0-.33.25-.59.56-.62.3-.02.59.19.66.48.1.51.18.87.33,1.31.33,1.03.97,2.16,1.73,3.11,2.97,3.69,7.96,5.63,10.67,6.45,9.04,2.74,20.18,1.93,27.74-2,1.88-.99,4.47-2.66,6.15-5.06.7-.99,1.22-2.1,1.48-3.14l.14-.66c.05-.29.35-.5.66-.48.31.03.56.29.56.62v46.1c0,2.73-1.52,4.28-3.25,6.08l-.25.26c-2.62,2.42-4.99,3.63-7.96,4.83-4.16,1.5-7.82,2.19-12.68,2.4h-.85Z"/>
      <path class="cls-3" d="M8.83,5.34C19.76-.99,37.49-.99,48.45,5.34c10.93,6.31,10.95,16.55,0,22.88-10.94,6.31-28.68,6.31-39.64,0-10.95-6.33-10.94-16.57.02-22.88Z"/>
      <path class="cls-2" d="M28.63,1.22c-7.06,0-14.12,1.55-19.51,4.64-5.09,2.96-7.89,6.83-7.89,10.92s2.8,7.96,7.89,10.9c10.76,6.21,28.26,6.21,39.03,0,5.08-2.93,7.89-6.81,7.89-10.9s-2.81-7.96-7.91-10.92c-5.37-3.09-12.45-4.64-19.5-4.64h0ZM28.63,33.55c-7.28,0-14.57-1.6-20.13-4.79C3.02,25.57,0,21.33,0,16.78S3.02,7.96,8.52,4.8c11.09-6.4,29.13-6.4,40.24,0,5.5,3.17,8.52,7.43,8.52,11.98s-3.02,8.8-8.52,11.98c-5.54,3.2-12.84,4.79-20.13,4.79Z"/>
      <path class="cls-4" d="M56.53,18.32c0,5.74.7,8.85-4.49,13.39C37.86,44.12,4.54,39.74.9,25.14l-.15-6.82c2.67,12.97,23.83,16.03,35.86,13.96,7.74-1.3,18.11-5.32,19.92-13.96Z"/>
      <path class="cls-2" d="M1.44,22.03l.07,3.09c1.2,4.73,6.19,8.87,13.7,11.23,10.91,3.42,27.39,2.8,36.42-5.11,3.84-3.34,4.29-5.86,4.31-9.44-4.08,7.89-15.47,10.46-19.23,11.09-11.93,2.05-29.86-.85-35.27-10.86h0ZM28.87,39.53c-5.02,0-9.91-.71-14.04-2.02C6.8,35,1.63,30.65.29,25.28l-.17-6.93c0-.31.22-.59.56-.63.33-.04.61.17.66.49,2.52,12.14,22.39,15.66,35.16,13.49,4.05-.7,17.39-3.73,19.42-13.49.07-.31.37-.5.68-.49.31.04.53.3.53.61,0,.63.02,1.24.02,1.79.07,4.73.12,7.84-4.71,12.06-5.93,5.18-14.93,7.36-23.57,7.36Z"/>
      <path class="cls-1" d="M10.17,5.22C20.37-.68,36.88-.68,47.09,5.22c10.2,5.87,10.2,15.44.02,21.31-10.2,5.89-26.75,5.89-36.94,0C-.04,20.63-.04,11.09,10.17,5.22Z"/>
      <path class="cls-2" d="M10.48,5.74c-4.75,2.75-7.35,6.35-7.35,10.13s2.6,7.39,7.34,10.13c10.03,5.77,26.31,5.77,36.33,0,4.73-2.74,7.34-6.32,7.34-10.13s-2.6-7.38-7.34-10.13C36.78-.03,20.49-.03,10.48,5.74h0ZM28.63,31.55c-6.8,0-13.6-1.5-18.77-4.48-5.13-2.96-7.96-6.94-7.96-11.2s2.84-8.24,7.96-11.19h0c10.36-5.98,27.21-5.98,37.54,0,5.13,2.96,7.96,6.94,7.96,11.19s-2.82,8.24-7.96,11.2c-5.16,2.99-11.97,4.48-18.77,4.48Z"/>
      <path class="cls-1" d="M24.06,8.87c2.52-1.46,6.62-1.46,9.14,0,2.52,1.46,2.54,3.82,0,5.28-2.52,1.46-6.62,1.46-9.14,0-2.52-1.46-2.52-3.83,0-5.28Z"/>
      <path class="cls-2" d="M24.37,9.4c-1.03.59-1.58,1.34-1.58,2.11s.55,1.51,1.58,2.1c2.35,1.37,6.17,1.36,8.54,0,1.01-.59,1.58-1.32,1.58-2.1s-.58-1.51-1.6-2.11c-2.35-1.36-6.17-1.36-8.52,0h0ZM28.63,15.87c-1.76,0-3.51-.4-4.88-1.18-1.41-.82-2.19-1.95-2.19-3.18s.78-2.35,2.19-3.17v-.02c2.74-1.57,7.02-1.57,9.77,0,1.43.83,2.21,1.97,2.21,3.18s-.78,2.36-2.21,3.18c-1.37.78-3.13,1.18-4.88,1.18Z"/>
      <path class="cls-4" d="M35.08,11.88v2.88l-.05.18c-.07.29-.23.61-.4.86-.68.96-1.9,1.57-2.99,1.9-2.19.68-5,.57-7.09-.4-.59-.28-1.2-.68-1.63-1.17-.23-.24-.43-.54-.56-.85-.05-.09-.1-.25-.12-.35l-.04-.18v-2.88c.02.12.04.22.09.35.12.38.35.73.62,1.03.68.76,1.74,1.28,2.71,1.56,2.26.7,5.23.57,7.34-.52.62-.33,1.27-.78,1.67-1.37.17-.26.33-.57.4-.86l.05-.17Z"/>
      <path class="cls-2" d="M22.8,14.01l.04.8c0,.05.05.17.07.25.1.2.26.45.46.66.35.38.85.74,1.44,1.02,1.86.87,4.54,1.01,6.65.37,1.2-.37,2.17-.97,2.66-1.67.14-.19.26-.44.31-.67l.03-.15v-.61c-.41.37-.87.63-1.22.82-2.14,1.11-5.29,1.35-7.8.57-.64-.2-1.76-.61-2.65-1.39h0ZM28.63,18.74c-1.55,0-3.08-.3-4.35-.89-.52-.25-1.27-.68-1.84-1.3-.28-.31-.52-.68-.66-1.03-.06-.12-.12-.32-.16-.44l-.04-.21-.02-3c0-.31.24-.59.56-.61.33-.04.61.17.66.47.04.14.05.21.07.29.1.26.28.56.51.8.71.8,1.82,1.22,2.43,1.41,2.24.68,5.02.47,6.88-.5.45-.23,1.06-.61,1.44-1.17.14-.21.26-.45.31-.66l.03-.16c.05-.31.35-.52.66-.48.31.02.55.29.55.61l-.05,3.18c-.09.38-.28.77-.5,1.1-.89,1.25-2.45,1.88-3.32,2.14-.99.31-2.09.45-3.18.45Z"/>
      <path class="cls-4" d="M29.79,44.43l-1.72,2.87,1.81,3.11c.08.16.03.35-.13.46l-.53.31,5.94,2.14,1.11-6.22-.69.4c-.16.09-.35.04-.45-.12l-1.12-1.95c-.52-.88-3.32-.97-4.22-.99Z"/>
      <path class="cls-2" d="M29.34,50.73h.02-.02ZM30.45,50.97l4.22,1.52.79-4.33c-.33.04-.68-.16-.85-.47l-1.13-1.95c-.17-.32-1.55-.65-3.34-.68l-1.35,2.24,1.61,2.8c.14.23.17.47.1.71-.02.05-.04.1-.05.15h0ZM35.17,53.93c-.07,0-.14,0-.21-.04l-5.94-2.14c-.23-.09-.38-.3-.42-.52-.02-.24.11-.47.31-.59l.29-.18-1.67-2.85c-.11-.19-.11-.43.02-.62l1.72-2.87c.1-.17.31-.29.52-.29h0c1.49,0,4.1.17,4.75,1.28l.99,1.7.45-.26c.21-.12.45-.1.66.04.19.14.3.36.24.61l-1.11,6.22c-.03.18-.14.33-.31.42-.09.07-.19.09-.3.09Z"/>
      <path class="cls-3" d="M29.79,44.43c-1.22,0-5.74-.02-6.45.83-.31.35-2.8,4.14-2.73,4.18-.36.62-.16,1.4.47,1.77l2.33,1.34c.61.37,1.43.14,1.78-.47l4.61-7.65Z"/>
      <path class="cls-2" d="M21.19,49.63s-.01.07-.05.12c-.17.31-.07.75.26.92l2.33,1.36c.29.17.75.05.94-.26l4.04-6.71c-4.14.07-4.8.52-4.91.61-.26.31-2.33,3.47-2.6,3.96h0ZM24.04,53.34c-.33,0-.64-.07-.94-.25l-2.33-1.34c-.9-.54-1.22-1.7-.69-2.63l.03.02c.52-1.18,2.73-4.24,2.77-4.28.61-.73,2.64-1.04,6.74-1.04.23,0,.53.09.66.31.12.19.16.43.03.62l-4.61,7.63c-.35.61-1.01.94-1.67.94Z"/>
      <path class="cls-4" d="M39.46,65.76l-1.61-2.92-3.6.02c-.17,0-.33-.16-.33-.33v-.63l-4.83,4.09,4.83,4.07v-.8c0-.18.16-.33.33-.33h2.26c1.01,0,2.5-2.36,2.96-3.16Z"/>
      <path class="cls-2" d="M30.04,65.99l3.37,2.83c.16-.29.47-.5.83-.5h2.26c.35,0,1.3-1.02,2.24-2.55l-1.27-2.29h-3.23c-.31,0-.59-.16-.76-.38l-3.44,2.9h0ZM33.91,70.69c-.14,0-.28-.06-.4-.14l-4.81-4.09c-.14-.12-.23-.29-.23-.47,0-.19.08-.37.23-.47l4.81-4.08c.19-.16.45-.19.66-.09.23.11.37.31.37.56v.33h3.3c.23,0,.43.13.54.31l1.61,2.92c.11.19.11.42-.02.61-.75,1.3-2.19,3.48-3.48,3.48h-1.96v.5c0,.25-.14.47-.37.57-.09.04-.17.06-.26.06Z"/>
      <path class="cls-3" d="M39.46,65.76c.61-1.04,2.89-4.94,2.5-6-.16-.44-2.17-4.49-2.24-4.45-.37-.61-1.15-.83-1.77-.47l-2.33,1.34c-.61.35-.82,1.16-.48,1.77l4.32,7.81Z"/>
      <path class="cls-2" d="M38.59,55.28c-.13,0-.23.04-.33.09l-2.33,1.36c-.31.17-.44.61-.26.94l3.79,6.85c2.04-3.62,1.97-4.42,1.93-4.54-.14-.4-1.85-3.77-2.12-4.24-.04-.03-.07-.07-.09-.1-.12-.23-.35-.35-.59-.35h0ZM39.48,66.35c-.21-.05-.45-.08-.56-.28l-4.33-7.82c-.51-.89-.18-2.09.71-2.61l2.33-1.34c.92-.52,2.09-.21,2.63.71l-.03.02c.76,1.02,2.31,4.48,2.33,4.52.23.64.1,1.91-2.54,6.47-.11.19-.33.32-.54.32Z"/>
      <path class="cls-4" d="M16.35,63.59l3.34.07,1.79-3.13c.11-.16.3-.21.45-.1l.54.31-1.11-6.22-5.96,2.14.71.4c.16.08.21.29.12.45l-1.13,1.95c-.51.89.8,3.35,1.25,4.13Z"/>
      <path class="cls-2" d="M16.72,62.98l2.63.05,1.62-2.8c.12-.23.31-.38.55-.44.05-.02.11-.04.16-.04l-.8-4.43-4.14,1.49c.19.28.21.67.04.97l-1.13,1.96c-.17.3.21,1.63,1.08,3.22h0ZM19.7,64.27h0l-3.34-.05c-.23-.02-.41-.13-.52-.32-.75-1.3-1.91-3.64-1.27-4.76l.99-1.71-.45-.24c-.21-.12-.33-.37-.31-.59.02-.24.17-.45.4-.54l5.96-2.13c.17-.06.37-.04.51.05.17.09.27.25.31.42l1.11,6.23c.05.24-.05.48-.24.62-.21.14-.47.14-.68.02l-.28-.16-1.66,2.86c-.11.19-.31.31-.54.31Z"/>
      <path class="cls-3" d="M16.35,63.59c.61,1.06,2.86,4.99,3.95,5.18.47.08,4.97.35,4.97.28.71,0,1.3-.59,1.3-1.31v-2.68c0-.71-.61-1.3-1.3-1.3l-8.92-.17Z"/>
      <path class="cls-2" d="M17.45,64.23c2.12,3.56,2.83,3.89,2.98,3.93.4.08,4.17.33,4.73.27h.12c.38,0,.7-.31.7-.69v-2.68c0-.37-.33-.7-.7-.7l-7.82-.14h0ZM25.24,69.07h.02-.02ZM25.27,69.66v-.04c-1.28.16-5.04-.24-5.07-.24-.68-.12-1.72-.87-4.33-5.41-.12-.21-.14-.47-.02-.66.11-.19.33-.37.52-.33l8.92.16c1.03.02,1.91.9,1.91,1.93v2.68c-.02,1.06-.87,1.91-1.93,1.91Z"/>
    </g>
  </g>
</svg>