<?xml version="1.0" encoding="UTF-8"?>
<svg id="Layer_2" data-name="Layer 2" xmlns="http://www.w3.org/2000/svg" viewBox="0 0 40.03 42.34" fill="currentColor">
  <defs>
    <style>
      .cls-1 {
        fill: #fff;
      }

      .cls-1, .cls-2, .cls-3, .cls-4 {
        fill-rule: evenodd;
      }

      .cls-2 {
        fill: #1a87c7;
      }

      .cls-3 {
        fill: #bdedf8;
      }

      .cls-4 {
        fill: #66ceef;
      }
    </style>
  </defs>
  <g id="_Layer_" data-name="&amp;lt;Layer&amp;gt;">
    <g>
      <path class="cls-3" d="M24.41,18.82L4.16,30.5c-.85.49-.85,1.28,0,1.77l11.61,6.71c.85.49,2.22.49,3.08,0l20.24-11.69c.84-.49.84-1.29,0-1.77l-11.62-6.71c-.84-.49-2.22-.49-3.07,0Z"/>
      <path class="cls-2" d="M24.41,18.82h0,0ZM25.93,18.76c-.5,0-1,.11-1.37.32h0L4.31,30.77c-.3.18-.48.4-.48.62s.17.45.48.62l11.62,6.71c.75.43,2.01.43,2.76,0l20.24-11.69c.3-.18.48-.4.48-.62s-.18-.44-.48-.62l-11.62-6.71c-.37-.22-.88-.32-1.38-.32h0ZM17.31,39.66c-.61,0-1.22-.14-1.68-.41l-11.62-6.71c-.51-.29-.79-.7-.79-1.15s.28-.86.79-1.15l20.24-11.69h0c.95-.55,2.43-.55,3.38,0l11.61,6.71c.51.29.79.7.79,1.15s-.28.86-.78,1.16l-20.25,11.69c-.47.27-1.08.41-1.69.41Z"/>
      <path class="cls-4" d="M5.57,33.09l19.49-11.25c.54-.28,1.21-.28,1.75,0l10.86,6.27,1.42-.81c.84-.49.84-1.29,0-1.77l-11.62-6.71c-.84-.49-2.22-.49-3.07,0L4.16,30.5c-.85.49-.85,1.28,0,1.77l1.41.81Z"/>
      <path class="cls-2" d="M25.93,18.76c-.5,0-1,.11-1.38.32L4.31,30.77c-.3.18-.48.4-.48.62s.17.45.48.62l1.26.73,19.34-11.17c.64-.33,1.42-.33,2.04,0l10.73,6.19,1.26-.73c.3-.18.48-.4.48-.62s-.18-.44-.48-.62l-11.62-6.71c-.37-.22-.88-.32-1.38-.32h0ZM5.57,33.4c-.05,0-.1-.01-.15-.04l-1.41-.82c-.51-.29-.79-.7-.79-1.15s.28-.86.79-1.15l20.24-11.69c.95-.55,2.43-.55,3.38,0l11.61,6.71c.51.29.79.7.79,1.15s-.28.86-.78,1.16l-1.42.81c-.1.05-.21.06-.3,0l-10.88-6.27c-.42-.22-1.01-.22-1.45,0l-19.48,11.25c-.05.03-.11.04-.16.04Z"/>
      <path class="cls-3" d="M21.82,22.02v2.94c-1.18.68-.97.56-2.15,1.24v-2.94c1.18-.68.97-.55,2.15-1.24Z"/>
      <path class="cls-2" d="M19.98,23.44v2.23l1.54-.89v-2.23l-1.54.88h0ZM19.68,26.51c-.05,0-.1-.01-.16-.04-.09-.05-.15-.16-.15-.27v-2.94c0-.11.06-.21.15-.27l2.15-1.24c.1-.06.22-.06.31,0,.1.06.16.16.16.27v2.94c0,.11-.06.21-.16.27l-2.15,1.24c-.05.03-.1.04-.16.04Z"/>
      <path class="cls-3" d="M21.94,21.96v2.94c-1.19.68-.96.56-2.16,1.24v-2.94c1.19-.68.96-.56,2.16-1.24Z"/>
      <path class="cls-2" d="M20.09,23.38v2.23l1.53-.89v-2.23l-1.53.88h0ZM19.78,26.45c-.05,0-.11-.01-.15-.04-.1-.05-.16-.15-.16-.26v-2.94c0-.11.06-.21.16-.27l2.15-1.24c.1-.06.21-.06.3,0,.1.05.16.16.16.27v2.94c0,.11-.06.21-.16.27l-2.15,1.24s-.09.04-.16.04Z"/>
      <path class="cls-3" d="M16.47,25.12l8.67-5.01c.43-.25,1.12-.25,1.55,0l4.17,2.41c.43.25.43.65,0,.89l-8.67,5.01c-.42.25-1.12.25-1.55,0l-4.17-2.41c-.42-.24-.42-.65,0-.89Z"/>
      <path class="cls-2" d="M16.62,25.38c-.12.07-.17.14-.17.18s.04.11.17.18l4.16,2.41c.33.19.91.19,1.24,0l8.67-5.01c.12-.07.17-.14.17-.18,0-.04-.04-.11-.17-.18l-4.17-2.41c-.33-.19-.91-.19-1.23,0l-8.68,5.01h0ZM21.42,28.91c-.34,0-.67-.07-.93-.23l-4.17-2.41c-.31-.17-.47-.43-.47-.71,0-.28.16-.54.47-.71h0l8.67-5.01c.52-.3,1.34-.3,1.86,0l4.16,2.41c.3.18.48.43.48.71s-.18.54-.48.71l-8.67,5.01c-.26.15-.59.23-.92.23Z"/>
      <path class="cls-1" d="M27.71,22.28c.17-.1.18-.26,0-.36-.17-.1-.45-.1-.63,0-.17.1-.17.26,0,.36.17.1.45.1.63,0Z"/>
      <path class="cls-2" d="M27.71,22.28l-.14-.27s-.01,0-.01,0l.15.27-.15-.26.15.26h0ZM27.39,22.67c-.17,0-.33-.04-.46-.11-.18-.1-.29-.27-.29-.45s.1-.34.29-.45c.27-.16.68-.16.94,0,.17.1.28.26.28.44s-.11.35-.29.45h0c-.14.08-.31.12-.47.12Z"/>
      <path class="cls-1" d="M20.23,26.6c-.18.1-.45.1-.63,0-.17-.1-.16-.26,0-.36.18-.1.45-.1.63,0,.17.1.17.26,0,.36Z"/>
      <path class="cls-2" d="M20.23,26.6l-.15-.27s0,0-.01.01l.16.26-.16-.26.16.26h0ZM19.91,26.98c-.17,0-.33-.04-.46-.11-.17-.1-.28-.26-.28-.44s.11-.35.29-.45c.27-.15.67-.16.94,0,.17.1.28.26.28.44s-.11.35-.29.45h0c-.14.08-.3.12-.48.12Z"/>
      <polygon class="cls-1" points="27.54 25.33 25.5 26.5 19.78 23.2 21.82 22.02 27.54 25.33"/>
      <path class="cls-2" d="M20.4,23.2l5.1,2.95,1.43-.82-5.1-2.94-1.43.82h0ZM25.5,26.81c-.05,0-.1-.01-.15-.04l-5.72-3.3c-.1-.06-.16-.16-.16-.27s.06-.21.16-.26l2.03-1.18c.1-.06.22-.06.31,0l5.72,3.3c.1.06.15.16.15.27s-.05.21-.15.27l-2.04,1.18s-.11.04-.16.04Z"/>
      <path class="cls-3" d="M31.18,22.96v2.94s0,.06,0,.06l-.02.06-.03.06-.03.06-.04.06-.05.05-.07.05-.07.05-8.67,5.01c-.23.13-.46.18-.72.19-.3,0-.57-.04-.83-.19l-4.17-2.4c-.18-.12-.3-.23-.32-.45v-2.94c.02.22.14.33.32.45l4.17,2.41c.26.14.53.19.83.19.26-.01.49-.06.72-.19l8.67-5.01.07-.05.07-.05.05-.06.04-.06.03-.06.03-.06.02-.06v-.06Z"/>
      <path class="cls-2" d="M16.45,26.36v2.15s.02.08.18.19l4.16,2.4c.19.1.41.15.67.14.24,0,.41-.05.58-.14l8.77-5.08.29.13-.23-.21v-2.17l-8.54,4.93c-.25.14-.52.21-.86.23-.37.01-.7-.06-.98-.22l-4.04-2.33h0ZM21.43,31.85c-.37,0-.67-.07-.94-.22l-4.18-2.41c-.24-.15-.44-.33-.47-.69v-2.97c0-.17.12-.3.29-.31.17-.02.31.12.32.28,0,.07.02.11.18.21l4.16,2.4c.19.1.39.15.67.14.24-.01.41-.05.57-.14l8.81-5.11h.03s.01-.07.01-.07c0-.16.12-.29.31-.29.17,0,.3.13.3.29v2.94s0,.08,0,.09c0,.02-.03.14-.04.15,0,.01-.03.08-.04.1,0,.01-.05.08-.06.09-.01,0-.06.07-.07.08,0,.01-.07.07-.08.08l-.16.12-8.69,5.01c-.25.14-.52.21-.86.22h-.04Z"/>
      <path class="cls-4" d="M21.46,31.55c-.29,0-.56-.04-.81-.19l-4.17-2.4c-.18-.12-.3-.23-.32-.45v-2.94c.02.22.14.33.32.45l4.17,2.41c.26.14.52.19.81.19v2.94Z"/>
      <path class="cls-2" d="M16.45,26.36v2.15s.02.08.18.19l4.16,2.4c.11.06.23.1.36.12v-2.32c-.24-.03-.46-.09-.66-.2l-4.04-2.33h0ZM21.46,31.55h.01-.01ZM21.42,31.85c-.36,0-.66-.07-.93-.22l-4.18-2.41c-.24-.15-.44-.33-.47-.69v-2.97c0-.17.12-.3.29-.31.17-.02.31.12.32.28,0,.07.02.11.18.21l4.16,2.4c.19.1.38.16.67.14h0c.09,0,.17.03.22.09.06.06.09.14.09.22v2.94c0,.17-.14.31-.3.31h-.04Z"/>
      <path class="cls-2" d="M21.23,28.02c-.1,0-.21-.05-.26-.15-.09-.15-.03-.34.11-.42l1.04-.61c.15-.08.34-.03.42.11.09.15.04.34-.11.42l-1.05.61c-.05.03-.1.04-.16.04Z"/>
      <path class="cls-2" d="M17.69,25.98c-.1,0-.21-.06-.27-.15-.08-.15-.04-.34.11-.42l1.05-.6c.15-.08.34-.03.43.11.08.15.03.34-.11.42l-1.05.61c-.05.03-.1.04-.15.04Z"/>
      <path class="cls-2" d="M25.04,21.73c-.1,0-.21-.05-.26-.15-.09-.15-.03-.34.11-.42l1.04-.61c.15-.08.34-.04.42.11.09.15.04.34-.11.42l-1.05.61c-.05.03-.1.04-.15.04Z"/>
      <path class="cls-2" d="M28.59,23.78c-.11,0-.21-.06-.26-.15-.09-.15-.03-.34.11-.42l1.05-.61c.14-.09.33-.04.42.11.09.15.03.33-.11.42l-1.05.61s-.09.04-.15.04Z"/>
      <path class="cls-3" d="M11.6,27.93v2.94c-1.18.68-.97.56-2.15,1.24v-2.94c1.18-.68.96-.56,2.15-1.24Z"/>
      <path class="cls-2" d="M9.76,29.34v2.23l1.54-.88v-2.23l-1.54.89h0ZM9.46,32.42c-.05,0-.1-.02-.16-.04-.09-.05-.15-.16-.15-.27v-2.94c0-.11.06-.21.15-.27l2.15-1.24c.09-.06.22-.06.31,0,.1.05.15.16.15.27v2.94c0,.11-.05.21-.15.27l-2.15,1.24c-.05.03-.1.04-.16.04Z"/>
      <path class="cls-3" d="M11.71,27.86v2.94c-1.18.68-.96.56-2.15,1.24v-2.95c1.18-.68.96-.56,2.15-1.24Z"/>
      <path class="cls-2" d="M9.87,29.28v2.23l1.53-.89v-2.23l-1.53.88h0ZM9.56,32.35c-.05,0-.11-.01-.15-.04-.09-.05-.15-.16-.15-.26v-2.95c0-.11.06-.21.15-.27l2.15-1.24c.1-.06.21-.06.3,0,.1.06.16.16.16.27v2.94c0,.11-.06.21-.16.27l-2.15,1.24s-.1.04-.16.04Z"/>
      <path class="cls-3" d="M6.25,31.02l8.67-5.01c.42-.24,1.12-.24,1.55,0l4.17,2.41c.42.25.42.65,0,.89l-8.67,5.01c-.43.25-1.12.25-1.55,0l-4.17-2.41c-.43-.25-.43-.65,0-.89Z"/>
      <path class="cls-2" d="M6.4,31.29c-.12.07-.16.14-.16.18,0,.04.04.11.16.18l4.17,2.41c.33.19.91.19,1.24,0l8.67-5.01c.12-.07.16-.14.16-.18s-.04-.11-.16-.18l-4.17-2.41c-.33-.19-.91-.19-1.24,0l-8.67,5.01h0ZM11.19,34.81c-.34,0-.67-.07-.93-.23l-4.17-2.41c-.3-.17-.47-.43-.47-.71,0-.28.17-.54.47-.71h0l8.67-5.01c.52-.3,1.34-.3,1.85,0l4.17,2.41c.3.17.48.43.48.71s-.17.54-.48.71l-8.67,5.01c-.26.15-.59.23-.92.23Z"/>
      <path class="cls-1" d="M17.49,28.18c.18-.1.18-.26.01-.36-.18-.1-.45-.1-.63,0-.18.1-.18.26,0,.36.17.1.45.1.62,0Z"/>
      <path class="cls-2" d="M17.49,28.18l-.14-.27s0,0,0,0l.15.27-.15-.26.15.26h0ZM17.17,28.57c-.17,0-.33-.04-.47-.12-.18-.1-.28-.26-.28-.44s.1-.35.29-.45c.27-.15.67-.16.94,0,.17.1.28.26.28.44s-.1.35-.29.45h0c-.14.08-.3.12-.47.12Z"/>
      <path class="cls-1" d="M10.01,32.5c-.17.1-.45.1-.62,0-.18-.1-.17-.26,0-.36.17-.1.45-.1.63,0,.17.1.17.26-.01.36Z"/>
      <path class="cls-2" d="M9.85,32.24l.16.26-.15-.27s0,0-.01.01h0ZM9.69,32.88c-.17,0-.33-.04-.46-.11-.18-.1-.28-.26-.28-.44s.1-.35.28-.45c.27-.16.67-.16.93,0,.18.1.29.26.29.44s-.11.35-.29.45c-.14.08-.3.12-.48.12Z"/>
      <polygon class="cls-1" points="17.32 31.23 15.28 32.4 9.56 29.1 11.6 27.93 17.32 31.23"/>
      <path class="cls-2" d="M10.18,29.1l5.1,2.95,1.43-.82-5.1-2.95-1.43.82h0ZM15.28,32.71c-.05,0-.1-.02-.15-.04l-5.72-3.3c-.09-.06-.15-.16-.15-.27s.06-.21.15-.26l2.04-1.18c.09-.06.22-.06.31,0l5.72,3.3c.1.06.15.16.15.27s-.05.21-.15.27l-2.04,1.18c-.05.03-.11.04-.16.04Z"/>
      <path class="cls-3" d="M20.95,28.86v2.94c-.02.22-.13.33-.31.45l-8.67,5.01c-.24.13-.46.17-.72.18-.29,0-.56-.04-.83-.18l-4.17-2.41c-.18-.12-.3-.22-.32-.45v-2.94c.02.22.14.33.32.45l4.17,2.41c.26.14.53.19.83.18.26-.01.49-.06.72-.18l8.67-5.01c.17-.11.3-.22.31-.45Z"/>
      <path class="cls-2" d="M6.23,32.26v2.15s.02.08.18.19l4.16,2.4c.19.1.41.15.67.14.24-.01.41-.05.57-.15l8.67-5c.15-.1.16-.13.16-.2v-2.12l-8.54,4.93c-.26.14-.52.21-.86.23-.41,0-.7-.07-.98-.22l-4.04-2.33h0ZM11.21,37.75c-.36,0-.67-.07-.94-.22l-4.18-2.41c-.23-.15-.44-.33-.47-.69v-2.97c0-.16.12-.3.29-.31.17-.02.31.12.32.28,0,.07.02.11.18.21l4.16,2.4c.19.1.39.14.67.14.24-.01.41-.05.58-.15l8.67-5c.15-.1.16-.13.16-.2,0-.16.17-.3.32-.28.17,0,.3.14.3.31v2.94c-.04.38-.24.56-.46.71l-8.69,5.02c-.26.14-.52.21-.86.23h-.04Z"/>
      <path class="cls-4" d="M11.24,37.45c-.29,0-.56-.04-.82-.18l-4.17-2.41c-.18-.12-.3-.22-.32-.45v-2.94c.02.22.14.33.32.45l4.17,2.41c.26.14.52.19.82.18v2.94Z"/>
      <path class="cls-2" d="M6.23,32.26v2.15s.02.08.18.19l4.16,2.4c.11.06.22.1.36.12v-2.32c-.24-.03-.46-.1-.66-.21l-4.04-2.33h0ZM11.24,37.45h0,0ZM11.2,37.75c-.37,0-.66-.07-.93-.22l-4.18-2.41c-.23-.15-.44-.33-.47-.69v-2.97c0-.16.12-.3.29-.31.17-.02.31.12.32.28,0,.07.02.11.18.21l4.16,2.4c.19.1.41.15.67.14.09,0,.16.03.22.09s.1.14.1.22v2.94c0,.17-.14.31-.31.31h-.04Z"/>
      <path class="cls-2" d="M11.01,33.92c-.1,0-.21-.05-.26-.15-.09-.15-.03-.33.12-.42l1.04-.61c.15-.08.34-.03.42.11.08.15.03.34-.11.42l-1.05.61c-.05.03-.11.04-.16.04Z"/>
      <path class="cls-2" d="M7.46,31.88c-.1,0-.21-.06-.27-.15-.08-.15-.04-.34.11-.42l1.05-.61c.15-.08.34-.03.42.12.09.15.03.33-.11.42l-1.04.61c-.05.03-.1.04-.16.04Z"/>
      <path class="cls-2" d="M14.82,27.63c-.11,0-.21-.05-.26-.15-.09-.15-.03-.34.12-.42l1.04-.61c.15-.08.34-.03.42.11.09.15.04.34-.11.42l-1.05.61c-.05.03-.1.04-.16.04Z"/>
      <path class="cls-2" d="M18.36,29.68c-.1,0-.21-.05-.26-.15-.09-.15-.03-.34.11-.42l1.05-.61c.14-.08.33-.03.42.11.09.15.03.34-.11.42l-1.05.61s-.11.04-.16.04Z"/>
      <path class="cls-3" d="M22.19,28.42l8.67-5.01c.43-.25,1.12-.25,1.55,0l4.17,2.41c.42.25.42.65,0,.89l-8.68,5.01c-.42.25-1.11.25-1.54,0l-4.17-2.41c-.42-.24-.42-.64,0-.89Z"/>
      <path class="cls-2" d="M22.34,28.68c-.12.07-.16.14-.16.18s.04.11.16.18l4.17,2.41c.33.19.91.19,1.24,0l8.67-5.01c.12-.07.16-.14.16-.18,0-.04-.04-.11-.16-.18l-4.17-2.41c-.33-.19-.91-.19-1.24,0l-8.67,5.01h0ZM27.13,32.21c-.34,0-.67-.07-.93-.22l-4.17-2.41c-.3-.17-.48-.43-.48-.71s.17-.54.48-.71h0l8.67-5.01c.52-.3,1.33-.3,1.85,0l4.17,2.41c.31.17.48.43.48.71s-.17.54-.48.71l-8.67,5.01c-.26.15-.59.22-.92.22Z"/>
      <path class="cls-1" d="M33.43,25.59c.17-.1.18-.26,0-.36-.17-.1-.45-.1-.63,0-.17.1-.17.27,0,.36.17.1.45.1.63,0Z"/>
      <path class="cls-2" d="M33.28,25.32l.15.27-.14-.28s-.01,0-.01.01h0ZM33.11,25.97c-.17,0-.32-.04-.46-.11-.17-.1-.28-.27-.28-.44s.11-.35.29-.45c.27-.16.67-.16.94,0,.17.1.28.26.28.45s-.1.34-.29.45h0c-.14.08-.3.12-.48.12Z"/>
      <path class="cls-1" d="M25.95,29.9c-.18.1-.45.1-.63,0-.18-.1-.17-.26,0-.36.17-.1.45-.1.63,0,.16.1.16.26,0,.36Z"/>
      <path class="cls-2" d="M25.8,29.64l.16.26-.15-.27s0,0,0,.01h0ZM25.63,30.29c-.16,0-.33-.04-.46-.11-.17-.1-.28-.26-.28-.45s.11-.35.29-.45c.27-.15.67-.15.93,0,.18.1.29.26.29.45s-.11.34-.29.45h0c-.14.08-.31.12-.48.12Z"/>
      <polygon class="cls-1" points="33.26 28.63 31.22 29.81 25.5 26.5 27.54 25.33 33.26 28.63"/>
      <path class="cls-2" d="M26.12,26.5l5.1,2.95,1.43-.82-5.1-2.94-1.43.82h0ZM31.22,30.11c-.05,0-.11-.01-.15-.04l-5.72-3.3c-.1-.05-.16-.15-.16-.26s.06-.21.16-.27l2.03-1.18c.1-.05.22-.05.31,0l5.72,3.3c.1.06.15.15.15.26s-.05.21-.15.27l-2.04,1.18c-.05.03-.1.04-.16.04Z"/>
      <path class="cls-4" d="M36.9,26.27v3l-.02.06-.03.06-.04.06-.04.06-.05.05-.07.05-.07.05-8.68,5.01c-.23.13-.46.17-.72.18-.3,0-.57-.04-.83-.18l-4.17-2.41c-.18-.11-.3-.22-.32-.45v-2.94c.02.22.14.33.32.45l4.17,2.41c.26.14.53.19.83.18.26-.01.49-.06.71-.18l8.68-5.01.07-.05.07-.05.05-.05.04-.06.04-.06.03-.06.02-.06v-.06Z"/>
      <path class="cls-2" d="M22.17,29.66v2.15s.02.08.18.19l4.15,2.4c.19.1.41.15.67.14.23,0,.41-.05.58-.14l8.77-5.08.28.13-.23-.22v-2.17l-8.54,4.93c-.26.14-.52.21-.86.22-.39,0-.7-.07-.99-.22l-4.03-2.33h0ZM27.16,35.15c-.37,0-.68-.07-.95-.22l-4.18-2.41c-.23-.15-.44-.33-.47-.69v-2.97c0-.16.12-.3.29-.31.16-.01.31.12.32.28,0,.07.02.11.18.21l4.15,2.4c.19.1.41.15.67.14.23,0,.41-.05.57-.14l8.78-5.08.06.03v-.11h0v-.02c.03-.16.17-.28.32-.29.16,0,.3.12.3.29v2.94s0,.08,0,.09c0,.02-.03.14-.04.15,0,.01-.03.08-.04.1,0,.01-.05.08-.06.09,0,.01-.06.07-.07.08,0,0-.07.07-.08.08l-.17.12-8.69,5.02c-.25.14-.52.21-.86.22h-.03Z"/>
      <path class="cls-4" d="M27.18,34.85c-.29,0-.57-.04-.82-.18l-4.17-2.41c-.18-.11-.3-.22-.32-.45v-2.94c.02.22.14.33.32.45l4.17,2.41c.26.14.52.19.82.18v2.94Z"/>
      <path class="cls-2" d="M22.17,29.66v2.15s.02.08.18.19l4.15,2.4c.11.06.23.1.36.12v-2.32c-.24-.03-.46-.1-.66-.21l-4.04-2.33h0ZM27.18,34.85h0,0ZM27.14,35.15c-.36,0-.66-.07-.93-.22l-4.18-2.41c-.23-.15-.44-.33-.47-.69v-2.97c0-.16.12-.3.29-.31.16-.01.31.12.32.28,0,.07.02.11.18.21l4.15,2.4c.19.1.39.15.67.14.08,0,.15.03.22.09.06.06.1.14.1.22v2.94c0,.17-.14.31-.3.31h-.04Z"/>
      <path class="cls-3" d="M33.26,28.63v2.94c-1.18.68-.97.56-2.15,1.24v-2.94c1.18-.68.97-.56,2.15-1.24Z"/>
      <path class="cls-2" d="M31.42,30.04v2.23l1.53-.88v-2.23l-1.53.88h0ZM31.11,33.12c-.05,0-.11-.02-.16-.04-.1-.06-.16-.16-.16-.27v-2.94c0-.11.06-.21.16-.27l2.15-1.24c.09-.06.22-.05.31,0,.1.06.15.15.15.26v2.94c0,.11-.05.21-.15.27l-2.15,1.24s-.1.04-.15.04Z"/>
      <path class="cls-2" d="M26.95,31.32c-.11,0-.21-.05-.27-.15-.08-.15-.03-.34.11-.42l1.05-.61c.15-.08.34-.04.43.11.08.15.03.33-.12.42l-1.05.61c-.05.03-.11.04-.16.04Z"/>
      <path class="cls-2" d="M23.41,29.28c-.1,0-.21-.06-.27-.15-.08-.15-.03-.33.11-.42l1.05-.61c.15-.08.34-.03.42.11.09.15.04.33-.11.42l-1.05.61s-.1.04-.15.04Z"/>
      <path class="cls-2" d="M30.76,25.03c-.1,0-.21-.06-.26-.15-.09-.15-.04-.33.11-.42l1.04-.61c.15-.08.34-.03.43.11.09.15.03.33-.12.42l-1.05.6c-.05.03-.1.04-.16.04Z"/>
      <path class="cls-2" d="M34.31,27.08c-.1,0-.21-.06-.26-.15-.09-.15-.03-.34.11-.42l1.05-.61c.14-.09.33-.04.42.11.09.15.03.34-.11.42l-1.05.61c-.05.03-.11.04-.16.04Z"/>
      <path class="cls-3" d="M11.97,34.32l8.67-5.01c.42-.24,1.12-.24,1.55,0l4.17,2.41c.43.25.43.65,0,.89l-8.68,5.01c-.42.25-1.12.25-1.55,0l-4.16-2.41c-.43-.25-.43-.65,0-.89Z"/>
      <path class="cls-2" d="M21.42,29.44c-.24,0-.46.05-.63.14l-8.67,5.01h0c-.12.07-.17.14-.17.18s.04.11.17.18l4.17,2.41c.33.19.91.19,1.24,0l8.67-5.01c.12-.07.17-.14.17-.18s-.04-.11-.17-.18l-4.17-2.41c-.16-.09-.39-.14-.62-.14h0ZM16.9,38.11c-.33,0-.66-.07-.92-.23l-4.17-2.41c-.3-.17-.48-.43-.48-.71s.18-.54.48-.71l8.67-5.01c.52-.3,1.34-.3,1.85,0l4.17,2.41c.3.17.48.43.48.71s-.17.54-.48.72l-8.67,5.01c-.26.15-.59.23-.93.23Z"/>
      <path class="cls-1" d="M23.21,31.49c.18-.1.18-.26.01-.36-.18-.1-.45-.1-.63,0-.17.1-.18.26,0,.36.17.1.45.1.63,0Z"/>
      <path class="cls-2" d="M23.06,31.22l.15.26-.14-.27s0,0,0,.01h0ZM22.88,31.87c-.16,0-.33-.04-.46-.11-.17-.1-.28-.26-.28-.45s.1-.35.29-.45c.27-.15.67-.16.94,0,.18.1.28.26.28.44s-.1.35-.29.45h0c-.14.08-.3.12-.48.12Z"/>
      <path class="cls-1" d="M15.73,35.8c-.17.1-.46.1-.63,0-.17-.1-.17-.26.01-.36.17-.1.45-.1.63,0,.17.1.17.26-.01.36Z"/>
      <path class="cls-2" d="M15.58,35.54l.15.26-.15-.27s0,0,0,0h0ZM15.41,36.19c-.17,0-.33-.04-.46-.11-.18-.1-.28-.27-.28-.45s.1-.35.29-.45c.27-.16.67-.16.93,0,.18.1.29.27.29.44-.01.18-.11.35-.29.45h0c-.14.08-.3.12-.48.12Z"/>
      <polygon class="cls-1" points="23.04 34.53 21 35.71 15.28 32.4 17.32 31.23 23.04 34.53"/>
      <path class="cls-2" d="M15.9,32.4l5.1,2.94,1.42-.82-5.1-2.95-1.43.82h0ZM21,36.01c-.05,0-.11-.01-.16-.04l-5.71-3.3c-.09-.06-.15-.16-.15-.27s.06-.21.15-.26l2.04-1.18c.09-.06.21-.06.31,0l5.71,3.3c.1.06.16.16.16.27s-.05.21-.16.26l-2.03,1.18c-.05.03-.11.04-.16.04Z"/>
      <path class="cls-4" d="M26.67,32.17v2.94c-.02.22-.14.33-.31.45l-8.67,5.01-.04.02-.04.02-.04.02-.04.02-.04.02-.05.02-.04.02h-.05s-.05.02-.05.02h-.05s-.05.02-.05.02h-.05s-.05.01-.05.01h-.05s-.05,0-.05,0c-.29,0-.56-.04-.83-.19l-4.17-2.41c-.18-.12-.3-.22-.32-.45v-2.94c.02.22.14.33.32.45l4.16,2.41.04.02.04.02.04.02.04.02.05.02.05.02.04.02h.05s.05.02.05.02h.05s.04.02.04.02h.05s.05.01.05.01h.05s.05,0,.05,0h.17s.05,0,.05,0h.05s.04-.01.04-.01h.05s.05-.02.05-.02h.05s.04-.02.04-.02l.05-.02.04-.02.05-.02.04-.02.04-.02.04-.02.03-.02,8.68-5.01c.18-.12.3-.23.31-.45Z"/>
      <path class="cls-2" d="M16.96,40.44l.11.3-.03-.3.14.29-.05-.3.15.29-.06-.3.17.28-.09-.3.18.27-.1-.29.19.26-.09-.3,8.73-5.04c.15-.1.16-.13.17-.2v-2.12l-8.54,4.92s-.1.06-.11.06c0,0-.1.04-.11.05,0,0-.11.04-.11.04,0,0-.11.03-.12.03l-.11.02s-.12.02-.12.02-.11.01-.12.01c-.01,0-.12,0-.12,0,0,0-.11,0-.12,0-.01,0-.11-.01-.12-.01,0,0-.11-.02-.12-.02-.01,0-.11-.02-.12-.02,0,0-.11-.03-.12-.03,0,0-.11-.04-.11-.04,0,0-.11-.04-.11-.04,0,0-.1-.05-.1-.06l-4.03-2.33v2.15s.02.08.18.19l4.16,2.4c.19.1.4.15.67.14h0ZM16.96,41.05c-.41,0-.7-.07-.98-.22l-4.17-2.41c-.24-.15-.44-.33-.47-.69v-2.97c-.01-.17.12-.3.29-.31.18-.01.31.12.32.28.01.07.02.11.18.21l4.16,2.4-.07.31.17-.26.02.33.09-.3v.32s.07-.3.07-.3l.04.32.04-.3.05.32.04-.3.07.31.02-.31.09.31v-.31l.11.31-.03-.31.13.3-.04-.3.14.29-.05-.3.16.28-.08-.3.18.27-.1-.29.19.26-.11-.29.2.25-.1-.3,8.7-5.02c.15-.1.16-.13.17-.2,0-.16.15-.31.32-.28.16,0,.29.14.29.31v2.94c-.03.38-.24.57-.46.71l-8.69,5.01s-.1.05-.11.06c0,0-.1.04-.11.05,0,0-.1.04-.11.04,0,0-.11.03-.12.03l-.11.02s-.12.02-.12.02c0,0-.11,0-.12,0h-.07Z"/>
      <path class="cls-4" d="M16.96,40.75c-.29,0-.57-.04-.82-.19l-4.17-2.41c-.18-.12-.3-.22-.32-.45v-2.94c.02.22.14.33.32.45l4.16,2.41.04.02.04.02.04.02.04.02.05.02.05.02.04.02h.05s.05.02.05.02h.05s.04.02.04.02h.05s.05.01.05.01h.05s.05,0,.05,0h.11v2.94Z"/>
      <path class="cls-2" d="M11.95,35.56v2.15s.02.08.18.19l4.16,2.4c.11.06.23.1.36.12v-2.32h-.05s-.11-.02-.11-.03c0,0-.12-.03-.12-.03-.01,0-.12-.03-.12-.04,0,0-.11-.04-.11-.04,0,0-.1-.05-.11-.05l-4.08-2.35h0ZM16.96,40.75h0,0ZM16.92,41.06c-.36,0-.66-.07-.94-.22l-4.17-2.41c-.24-.15-.44-.33-.47-.69v-2.97c-.01-.17.12-.3.29-.31.18-.01.31.12.32.28.01.07.02.11.18.21l4.16,2.4-.07.31.17-.26.02.33.09-.3v.32s.07-.3.07-.3l.04.32.04-.3.05.32.04-.3.07.31.02-.31.09.31v-.31c.06.01.19.03.24.09.06.06.12.14.12.22v2.94c0,.17-.14.3-.31.31h-.04Z"/>
      <path class="cls-3" d="M23.04,34.53v2.94c-1.18.68-.96.56-2.15,1.24v-2.94c1.18-.68.96-.56,2.15-1.24Z"/>
      <path class="cls-2" d="M21.2,35.95v2.23l1.53-.89v-2.23l-1.53.89h0ZM20.89,39.02c-.05,0-.1-.01-.16-.04-.09-.06-.15-.16-.15-.27v-2.94c0-.11.06-.21.15-.27l2.15-1.24c.1-.06.22-.06.31,0,.1.06.16.16.16.27v2.94c0,.11-.05.21-.16.27l-2.15,1.24s-.09.04-.15.04Z"/>
      <path class="cls-2" d="M16.73,37.22c-.11,0-.21-.06-.27-.15-.08-.15-.03-.34.11-.42l1.05-.61c.15-.08.34-.03.43.11.08.15.03.34-.11.42l-1.05.6c-.05.03-.1.04-.15.04Z"/>
      <path class="cls-2" d="M13.18,35.18c-.1,0-.21-.05-.27-.15-.09-.15-.03-.33.11-.42l1.05-.61c.15-.09.34-.04.42.11.09.15.04.34-.11.42l-1.04.61c-.05.03-.11.04-.16.04Z"/>
      <path class="cls-2" d="M20.54,30.93c-.1,0-.21-.05-.27-.15-.08-.15-.03-.34.11-.42l1.05-.61c.15-.08.34-.04.42.11.08.15.03.33-.11.42l-1.05.6c-.05.03-.11.04-.16.04Z"/>
      <path class="cls-2" d="M24.08,32.98c-.1,0-.21-.05-.26-.16-.09-.15-.04-.33.11-.42l1.05-.61c.14-.08.33-.03.42.11.09.15.03.33-.11.42l-1.05.6c-.05.03-.1.04-.16.04Z"/>
      <path class="cls-4" d="M3.53,31.39v2.68c.03.44.27.66.63.89l11.61,6.71c.9.49,2.18.49,3.08,0l20.24-11.69c.36-.23.6-.44.63-.89v-2.68c-.04.45-.28.66-.63.89l-20.24,11.69c-.89.49-2.18.49-3.08,0l-11.61-6.71c-.36-.23-.6-.45-.63-.89Z"/>
      <path class="cls-2" d="M3.83,32.43v1.64c.03.28.17.42.5.63l11.6,6.7c.8.44,1.96.44,2.77,0l20.23-11.68c.31-.2.46-.34.48-.65v-1.61c-.05.04-.1.08-.16.11l-20.26,11.7c-.99.55-2.38.55-3.37,0l-11.62-6.71c-.06-.04-.11-.07-.17-.12h0ZM17.31,42.34c-.6,0-1.19-.14-1.68-.41l-11.62-6.71c-.36-.23-.74-.52-.79-1.13v-2.7c0-.17.13-.3.3-.31.17-.01.3.12.32.28.03.31.17.45.5.66l11.6,6.7c.8.44,1.96.44,2.77,0l20.23-11.69c.31-.2.46-.34.48-.64.02-.17.15-.3.32-.28.16,0,.29.14.29.31v2.68c-.05.63-.41.91-.77,1.15l-20.26,11.69c-.5.27-1.1.41-1.69.41Z"/>
      <path class="cls-3" d="M24.41,18.82L4.16,30.5c-.85.49-1.54.09-1.54-.89v-13.41c0-.98.68-2.17,1.54-2.66L24.41,1.86c.84-.49,1.53-.09,1.53.89v13.41c0,.98-.69,2.17-1.53,2.66Z"/>
      <path class="cls-2" d="M24.41,18.82h0,0ZM25.08,1.96c-.16,0-.34.05-.53.17L4.31,13.81c-.75.43-1.38,1.53-1.38,2.39v13.41c0,.35.11.62.3.73.18.11.47.07.77-.11l20.24-11.69c.75-.43,1.38-1.53,1.38-2.39V2.74c0-.35-.1-.62-.3-.73-.07-.04-.16-.06-.25-.06h0ZM3.48,31.02c-.2,0-.39-.05-.56-.15-.39-.23-.6-.67-.6-1.26v-13.41c0-1.09.74-2.38,1.69-2.93L24.25,1.59c.5-.29,1-.33,1.39-.1.39.22.61.67.61,1.26v13.41c0,1.1-.75,2.38-1.68,2.93h0L4.31,30.77c-.29.17-.57.25-.83.25Z"/>
      <path class="cls-4" d="M2.63,27.99l19.5-11.26c.5-.32.84-.91.87-1.51V2.67l1.42-.81c.84-.49,1.53-.09,1.53.89v13.41c0,.98-.69,2.17-1.53,2.66L4.16,30.5c-.85.49-1.54.09-1.54-.89v-1.63Z"/>
      <path class="cls-2" d="M2.93,28.17v1.45c0,.35.11.62.3.73.18.11.47.07.77-.11l20.24-11.69c.75-.43,1.38-1.53,1.38-2.39V2.74c0-.35-.1-.62-.3-.73-.19-.11-.47-.07-.78.11l-1.25.72v12.37c-.03.72-.43,1.39-1.02,1.77L2.93,28.17h0ZM3.48,31.02c-.2,0-.39-.05-.56-.15-.39-.23-.6-.67-.6-1.26v-1.63c0-.11.05-.21.15-.27l19.49-11.25c.41-.26.7-.76.72-1.26V2.67c0-.11.06-.21.16-.27l1.41-.81c.5-.29,1-.33,1.39-.1.39.22.61.67.61,1.26v13.41c0,1.1-.75,2.38-1.68,2.93L4.31,30.77c-.29.17-.57.25-.83.25Z"/>
      <path class="cls-4" d="M3.08,30.61l-2.32-1.34c-.36-.25-.43-.57-.45-.99v-13.42c.02-1.02.67-2.13,1.54-2.66L22.08.52c.38-.2.69-.3,1.09-.11l2.32,1.34c-.41-.19-.71-.09-1.09.11L4.16,13.54c-.88.53-1.51,1.64-1.54,2.66v13.41c.02.42.08.74.45.99Z"/>
      <path class="cls-2" d="M22.75.61c-.15,0-.31.07-.53.18L2,12.47c-.78.47-1.36,1.48-1.38,2.4v13.41c.02.37.06.57.31.74l1.4.81c-.01-.07-.01-.13-.01-.2v-13.43c.02-1.14.72-2.34,1.68-2.92L24.25,1.59c.06-.03.12-.06.18-.09l-1.42-.82c-.09-.04-.17-.06-.26-.06h0ZM3.08,30.92c-.05,0-.1-.01-.16-.04l-2.32-1.34c-.52-.36-.58-.83-.6-1.25v-13.43c.02-1.14.71-2.33,1.68-2.92L21.93.25c.4-.2.81-.38,1.37-.12l2.34,1.35c.15.08.2.26.12.41-.08.15-.25.2-.4.13-.28-.13-.48-.07-.82.1L4.31,13.81c-.77.47-1.36,1.48-1.38,2.4v13.41c.02.37.07.57.32.74.14.09.18.28.09.42-.06.09-.16.14-.26.14Z"/>
      <path class="cls-1" d="M9.57,10.42l-.84-.48c0-.47-.04-1.86.03-2.31.15-.93.77-1.98,1.74-2.51l6.1-3.51c.69-.32,1.21.1,1.83.46-.42-.19-.76-.1-1.16.11l-6.08,3.51c-.91.54-1.61,1.76-1.62,2.82v1.92Z"/>
      <path class="cls-2" d="M9.03,9.75l.23.13v-1.38c.02-1.17.78-2.49,1.78-3.08l6.08-3.51c.05-.03.11-.06.16-.08-.18-.04-.36-.03-.56.06l-6.07,3.5c-.99.54-1.48,1.57-1.59,2.29-.05.33-.04,1.28-.03,1.84v.25h0ZM9.57,10.73c-.05,0-.1-.01-.16-.04l-.84-.48c-.1-.06-.15-.16-.15-.27v-.42c-.02-.82-.03-1.59.03-1.94.18-1.13.92-2.2,1.9-2.73l6.09-3.51c.78-.36,1.37,0,1.91.32l.22.13c.15.08.2.26.12.41-.08.15-.25.2-.4.13-.27-.13-.51-.1-.88.1l-6.07,3.51c-.82.48-1.47,1.61-1.48,2.55v1.92c0,.11-.05.21-.16.27-.04.03-.1.04-.15.04Z"/>
      <path class="cls-1" d="M17.77,5.69l-.81-.46v-1.75c0-.17-.03-.3-.18-.4l.81.46c.15.1.17.23.18.41v1.75Z"/>
      <path class="cls-2" d="M17.27,5.05l.18.11v-1.22c0-.12-.02-.13-.05-.16l-.13-.08v1.34h0ZM17.77,6c-.05,0-.1-.02-.16-.04l-.8-.46c-.1-.06-.16-.16-.16-.27v-1.75c-.01-.12-.02-.13-.05-.15-.13-.09-.17-.28-.09-.42.09-.14.28-.19.42-.11l.8.46c.32.22.33.52.34.66v1.77c0,.11-.06.21-.16.27-.04.03-.1.04-.15.04Z"/>
      <path class="cls-1" d="M10.72,8.01v1.75l-1.15.66v-1.92c0-1.18.55-2.2,1.62-2.82l6.08-3.51c.89-.52,1.63-.09,1.63.94v1.92l-1.14.66v-1.75c0-.4-.29-.56-.63-.36l-5.8,3.35c-.35.2-.63.69-.63,1.08Z"/>
      <path class="cls-2" d="M18,2.26c-.17,0-.36.06-.57.18l-6.08,3.51c-.95.55-1.48,1.45-1.48,2.55v1.38l.53-.3v-1.57c0-.51.35-1.1.78-1.35l5.8-3.35c.26-.15.54-.17.75-.04.22.13.34.37.34.67v1.22l.52-.3v-1.74c0-.38-.12-.67-.32-.79-.08-.04-.17-.07-.27-.07h0ZM9.57,10.73c-.05,0-.1-.01-.16-.04-.09-.05-.15-.16-.15-.27v-1.92c0-1.33.63-2.42,1.78-3.09l6.08-3.51c.53-.31,1.05-.35,1.45-.11.41.24.63.7.63,1.32v1.92c0,.11-.06.21-.15.27l-1.14.66c-.09.06-.21.06-.3,0-.1-.06-.16-.16-.16-.27v-1.75c0-.09-.02-.14-.03-.14,0,0-.05,0-.14.04l-5.8,3.35c-.24.14-.47.53-.47.82v1.75c0,.11-.06.21-.15.27l-1.15.66s-.1.04-.15.04Z"/>
      <path class="cls-1" d="M24.26,35.86v.97c.41.24,1.58.96,2.01,1.13.88.33,2.1.33,3.04-.25l6.09-3.53c.62-.44.51-1.1.51-1.81-.03.45-.29.7-.67.94l-6.09,3.51c-.92.52-2.33.52-3.25,0l-1.66-.96Z"/>
      <path class="cls-2" d="M24.56,36.66l.22.13c.48.29,1.29.77,1.61.89.68.26,1.82.36,2.77-.23l6.09-3.53c.16-.12.26-.26.31-.44-.05.03-.1.07-.16.1l-6.08,3.51c-1.02.57-2.55.57-3.56,0l-1.2-.69v.26h0ZM27.53,38.49c-.47,0-.94-.08-1.36-.24-.34-.13-1-.51-1.71-.94l-.36-.21c-.09-.06-.16-.16-.16-.27v-.97c0-.11.06-.21.16-.27.1-.06.22-.06.31,0l1.66.96c.83.46,2.12.47,2.95,0l6.08-3.51c.36-.22.5-.4.52-.7,0-.16.14-.28.31-.28.18,0,.3.14.3.31v.26c.02.62.03,1.32-.64,1.8l-6.11,3.54c-.56.34-1.25.52-1.94.52Z"/>
      <path class="cls-1" d="M32.45,31.13v.93l1.51.88c.15.09.24.18.26.36v-.93c-.02-.18-.11-.27-.26-.36l-1.51-.87Z"/>
      <path class="cls-2" d="M32.76,31.88l1.17.67v-.18s0-.03-.12-.1l-1.04-.6v.22h0ZM34.23,33.6c-.16,0-.3-.12-.3-.29,0-.04,0-.05-.12-.13l-1.5-.87c-.09-.05-.15-.15-.15-.26v-.93c0-.11.06-.21.15-.27.1-.05.22-.05.3,0l1.52.88c.13.08.38.24.41.6v.95c0,.16-.12.3-.3.31h0Z"/>
      <path class="cls-1" d="M26.92,36.08l-1.51-.87-1.15.66,1.66.96c1.03.59,2.18.62,3.25,0l6.09-3.51c.89-.52.89-1.36,0-1.88l-1.66-.96-1.14.66,1.51.87c.35.2.35.52,0,.72l-5.8,3.35c-.34.2-.9.2-1.25,0Z"/>
      <path class="cls-2" d="M24.87,35.86l1.2.69c.95.55,1.99.55,2.95,0l6.08-3.51c.33-.19.51-.43.52-.67,0-.24-.19-.48-.52-.67l-1.5-.87-.52.3,1.05.61c.26.15.42.38.42.63s-.15.48-.42.63l-5.8,3.35c-.43.25-1.12.25-1.56,0h0l-1.36-.79-.53.31h0ZM27.54,37.59c-.6,0-1.21-.17-1.78-.5l-1.66-.96c-.09-.06-.16-.16-.16-.27s.06-.21.16-.27l1.15-.66c.1-.06.21-.06.3,0l1.52.88c.24.14.69.14.95,0l5.8-3.35c.08-.05.1-.09.1-.1,0,0-.03-.05-.1-.09l-1.52-.88c-.09-.05-.15-.16-.15-.27s.06-.21.15-.27l1.14-.65c.1-.05.21-.05.3,0l1.66.96c.54.31.83.74.83,1.21s-.29.9-.83,1.21l-6.08,3.51c-.57.33-1.17.5-1.78.5Z"/>
    </g>
  </g>
</svg>