<?xml version="1.0" encoding="UTF-8"?>
<svg id="Layer_2" data-name="Layer 2" xmlns="http://www.w3.org/2000/svg" viewBox="0 0 71.6 84.82" fill="currentColor">
  <defs>
    <style>
      .cls-1 {
        fill: #fff;
      }

      .cls-1, .cls-2, .cls-3, .cls-4 {
        fill-rule: evenodd;
      }

      .cls-2 {
        fill: #1a87c7;
      }

      .cls-3 {
        fill: #bdedf8;
      }

      .cls-4 {
        fill: #66ceef;
      }
    </style>
  </defs>
  <g id="_Layer_" data-name="&amp;lt;Layer&amp;gt;">
    <g>
      <polygon class="cls-1" points="53.54 64.1 35.51 53.68 35.51 32.01 53.56 42.44 53.54 64.1"/>
      <path class="cls-2" d="M36.12,53.32l16.81,9.72v-20.25l-16.81-9.7v20.24h0ZM53.54,64.73c-.11,0-.21-.04-.3-.09l-18.04-10.43c-.19-.11-.31-.31-.31-.52v-21.68c0-.2.12-.41.31-.52.19-.13.41-.13.61,0l18.04,10.41c.19.11.31.32.31.54v21.66c0,.23-.12.42-.31.54-.08.05-.2.09-.31.09Z"/>
      <polygon class="cls-3" points="53.56 42.44 35.51 32.01 52.74 21.84 70.99 32.37 53.56 42.44"/>
      <path class="cls-2" d="M36.73,32.01l16.82,9.72,16.2-9.35-17.02-9.82-16.01,9.45h0ZM53.56,43.05c-.12,0-.22-.04-.31-.09l-18.04-10.41c-.19-.1-.31-.31-.31-.52,0-.23.12-.43.31-.54l17.23-10.17c.19-.12.41-.12.62-.02l18.25,10.55c.19.11.29.31.29.52,0,.23-.1.44-.29.54l-17.45,10.04c-.08.05-.19.09-.29.09Z"/>
      <polygon class="cls-4" points="36.1 74.15 18.06 63.73 18.06 10.8 36.1 21.21 36.1 74.15"/>
      <path class="cls-2" d="M18.69,63.38l16.81,9.7V21.56l-16.81-9.69v51.52h0ZM36.1,74.77c-.11,0-.21-.03-.31-.08l-18.05-10.42c-.19-.12-.29-.31-.29-.53V10.8c0-.23.12-.43.31-.54.17-.12.42-.12.61,0l18.05,10.41c.19.1.31.31.31.54l-.02,52.93c0,.23-.11.43-.29.54-.1.05-.21.08-.31.08Z"/>
      <polygon class="cls-3" points="36.1 21.21 18.06 10.8 35.31 .61 53.54 11.17 36.1 21.21"/>
      <path class="cls-2" d="M19.29,10.79l16.81,9.72,16.22-9.33L35.31,1.33l-16.01,9.46h0ZM36.1,21.82c-.11,0-.21-.02-.31-.09l-18.03-10.41c-.19-.1-.31-.31-.31-.52,0-.23.1-.43.29-.54L34.99.09c.17-.12.41-.12.61,0l18.25,10.54c.19.1.31.31.31.54,0,.21-.12.41-.31.52l-17.43,10.04c-.1.07-.21.09-.31.09Z"/>
      <polygon class="cls-4" points="18.67 84.19 .62 73.78 .62 41.43 18.67 51.85 18.67 84.19"/>
      <path class="cls-2" d="M1.23,73.43l16.81,9.7v-30.93L1.23,42.49v30.94h0ZM18.67,84.82c-.1,0-.22-.04-.31-.09L.31,74.32c-.19-.11-.31-.32-.31-.54v-32.35c0-.23.12-.41.31-.54.19-.11.43-.11.61,0l18.05,10.43c.19.1.32.31.32.52v32.35c0,.23-.12.43-.32.54-.09.05-.19.09-.29.09Z"/>
      <polygon class="cls-3" points="18.67 51.85 .62 41.43 17.85 31.26 36.1 41.79 18.67 51.85"/>
      <path class="cls-2" d="M1.84,41.43l16.83,9.7,16.2-9.34-17.02-9.82L1.84,41.43h0ZM18.67,52.47c-.1,0-.22-.04-.31-.09L.31,41.97c-.19-.11-.31-.31-.31-.54,0-.2.12-.41.31-.52l17.23-10.19c.19-.11.43-.11.62,0l18.26,10.53c.19.12.31.31.31.54s-.13.43-.31.54l-17.45,10.04c-.09.05-.19.09-.29.09Z"/>
      <path class="cls-2" d="M28.13,61.47h-.11c-.28-.05-.49-.29-.51-.57-.02-.11.02-.21.05-.31.16-.31.54-.43.84-.28.27.14.4.47.31.75-.08.26-.33.41-.59.41Z"/>
      <path class="cls-2" d="M28.16,61.47c-.35,0-.62-.28-.62-.62s.28-.61.61-.61h.02c.35,0,.61.28.61.61s-.26.62-.61.62Z"/>
      <polygon class="cls-1" points="53.56 11.17 53.56 42.44 70.99 32.37 70.99 54.05 53.54 64.1 36.1 74.15 18.67 84.19 18.67 51.85 36.1 41.79 36.1 21.21 53.56 11.17"/>
      <path class="cls-2" d="M19.28,52.21v30.93l51.09-29.45v-20.23l-16.52,9.51c-.19.13-.41.13-.61,0-.19-.11-.31-.31-.31-.52V12.23l-16.2,9.33v20.24c0,.23-.13.43-.31.54l-17.14,9.87h0ZM18.67,84.82c-.1,0-.22-.04-.31-.09-.19-.1-.31-.31-.31-.54v-32.35c0-.21.12-.42.31-.52l17.14-9.87v-20.24c0-.23.11-.43.3-.54l17.45-10.04c.19-.12.42-.12.61,0,.19.1.31.31.31.54v30.19l16.52-9.51c.19-.12.41-.12.62,0,.19.11.29.31.29.52v21.68c0,.23-.12.41-.31.54l-52.33,30.14c-.09.05-.19.09-.29.09Z"/>
      <path class="cls-2" d="M59.84,55.16c-.23,0-.42-.1-.54-.29-.18-.3-.07-.68.22-.85l3.98-2.29c.47-.28.89-1.01.89-1.55v-1.93l-4.18,2.4c-.27.17-.65.07-.83-.23-.17-.3-.07-.66.22-.84l4.78-2.76v-2.64c0-.16-.04-.25-.04-.25-.02,0-.1,0-.24.09l-3.98,2.29c-.29.16-.66.07-.83-.22-.18-.3-.07-.68.22-.85l3.98-2.29c.5-.29,1.04-.31,1.46-.09.42.25.66.73.66,1.33v5.99c0,.97-.66,2.12-1.51,2.61l-3.98,2.31c-.08.05-.19.07-.29.07Z"/>
      <path class="cls-2" d="M24.66,64.22c-.22,0-.43-.05-.62-.16-.42-.25-.66-.73-.66-1.32v-1.74c0-.99.66-2.14,1.51-2.63l2.94-1.67c.45-.26.89-1.01.89-1.55v-1.49c0-.16-.04-.23-.05-.24,0,0-.08.02-.23.08l-3.98,2.29c-.3.17-.68.07-.84-.23-.17-.29-.07-.66.22-.84l3.97-2.29c.52-.3,1.06-.33,1.48-.09.41.25.66.71.66,1.31v1.49c0,.98-.66,2.14-1.51,2.63l-2.94,1.67c-.45.26-.89,1.01-.89,1.55v1.74c0,.17.04.24.05.26,0-.02.09-.02.23-.08l4.19-2.42c.29-.18.68-.09.85.23.15.28.07.66-.23.83l-4.19,2.42c-.3.16-.58.25-.86.25Z"/>
      <path class="cls-2" d="M44.74,32.27c-.35,0-.62-.28-.62-.61v-8.78c0-.33.28-.61.62-.61s.61.28.61.61v8.78c0,.33-.28.61-.61.61Z"/>
    </g>
  </g>
</svg>