<?xml version="1.0" encoding="UTF-8"?>
<svg id="Layer_2" data-name="Layer 2" xmlns="http://www.w3.org/2000/svg" viewBox="0 0 35.41 41.18" fill="currentColor">
  <defs>
    <style>
      .cls-1 {
        fill: #fff;
      }

      .cls-1, .cls-2, .cls-3, .cls-4 {
        fill-rule: evenodd;
      }

      .cls-2 {
        fill: #1a87c7;
      }

      .cls-3, .cls-5 {
        fill: #bdedf8;
      }

      .cls-4 {
        fill: #66ceef;
      }
    </style>
  </defs>
  <g id="_Layer_" data-name="&amp;lt;Layer&amp;gt;">
    <g>
      <polygon class="cls-4" points="35.1 11.38 28.99 7.85 25.54 8.57 31.64 12.1 35.1 11.38"/>
      <path class="cls-2" d="M26.39,8.71l5.31,3.07,2.55-.53-5.31-3.06-2.55.53h0ZM31.64,12.41c-.05,0-.11-.02-.15-.04l-6.11-3.53c-.11-.07-.17-.19-.15-.32.02-.13.12-.22.24-.25l3.46-.72c.07-.01.15,0,.22.04l6.11,3.53c.11.06.17.19.15.31-.02.13-.12.23-.24.25l-3.46.72s-.04,0-.06,0Z"/>
      <polygon class="cls-4" points="29.26 3.83 23.15 .31 19.92 4.09 26.03 7.62 29.26 3.83"/>
      <path class="cls-2" d="M20.4,4.01l5.57,3.21,2.82-3.31-5.57-3.21-2.82,3.3h0ZM26.03,7.92s-.1-.01-.15-.04l-6.11-3.53c-.08-.04-.13-.12-.15-.22-.02-.09.01-.18.07-.25L22.91.11c.09-.11.26-.14.38-.07l6.11,3.52c.08.05.14.13.15.21.01.09-.01.18-.07.25l-3.22,3.78c-.06.07-.15.11-.24.11Z"/>
      <polygon class="cls-4" points="26.03 7.62 19.92 4.09 18.09 4.27 24.2 7.8 26.03 7.62"/>
      <path class="cls-2" d="M19.07,4.48l5.19,3,.78-.08-5.19-3-.78.08h0ZM24.2,8.11c-.05,0-.11-.02-.15-.04l-6.11-3.53c-.12-.07-.18-.2-.15-.33.03-.13.14-.23.27-.24l1.83-.18c.07,0,.13,0,.18.04l6.11,3.53c.12.07.18.2.15.33-.03.13-.14.23-.27.24l-1.83.18s-.02,0-.03,0Z"/>
      <polygon class="cls-3" points="23.1 4.44 16.99 .92 12.32 3.61 18.43 7.14 23.1 4.44"/>
      <path class="cls-2" d="M12.94,3.61l5.49,3.17,4.05-2.34-5.49-3.17-4.05,2.34h0ZM18.43,7.45c-.06,0-.11-.02-.16-.04l-6.11-3.53c-.1-.06-.15-.16-.15-.27s.06-.21.15-.27l4.67-2.69c.09-.06.21-.06.3,0l6.11,3.53c.1.06.16.16.16.27s-.06.21-.16.26l-4.67,2.7s-.1.04-.15.04Z"/>
      <polygon class="cls-4" points="18.43 7.14 12.32 3.61 11.21 8.24 17.32 11.77 18.43 7.14"/>
      <path class="cls-2" d="M11.57,8.09l5.55,3.2.95-4-5.55-3.21-.95,4.01h0ZM17.32,12.07c-.05,0-.11-.01-.15-.04l-6.11-3.53c-.12-.07-.18-.2-.14-.34l1.1-4.63c.02-.09.09-.17.18-.21.09-.04.19-.03.27.02l6.11,3.53c.12.07.18.2.15.33l-1.1,4.63c-.02.09-.09.17-.18.21-.04.02-.08.02-.12.02Z"/>
      <polygon class="cls-3" points="17.32 11.77 11.21 8.24 9.38 10.17 15.49 13.7 17.32 11.77"/>
      <path class="cls-2" d="M9.87,10.1l5.56,3.21,1.4-1.47-5.56-3.21-1.4,1.47h0ZM15.49,14.01c-.05,0-.11-.01-.16-.04l-6.11-3.53c-.08-.05-.14-.13-.15-.22-.01-.09.02-.19.08-.25l1.83-1.94c.1-.11.25-.13.38-.06l6.11,3.53c.08.05.14.13.15.22.01.09-.02.19-.08.25l-1.83,1.94c-.06.06-.14.1-.22.1Z"/>
      <polygon class="cls-4" points="15.49 13.7 9.38 10.17 6.16 10.12 12.27 13.64 15.49 13.7"/>
      <path class="cls-2" d="M12.35,13.34l1.95.03-5.01-2.89-1.95-.03,5,2.89h0ZM15.49,14.01h0l-3.22-.06c-.05,0-.1-.02-.15-.04l-6.11-3.53c-.12-.07-.18-.21-.14-.35.04-.13.16-.22.3-.22h0l3.22.06c.05,0,.1.02.15.04l6.11,3.53c.12.07.18.21.14.35-.04.13-.16.23-.3.23Z"/>
      <rect class="cls-5" x="4.27" y="11.21" width="6.59" height="7.06" transform="translate(-8.98 13.92) rotate(-60.01)"/>
      <path class="cls-2" d="M3.28,15.71l5.58,3.22,2.99-5.17-5.58-3.22-2.99,5.18h0ZM8.97,19.66c-.05,0-.11-.01-.15-.04l-6.11-3.53c-.15-.09-.2-.27-.11-.42l3.3-5.71c.04-.07.11-.12.19-.14.08-.02.16-.01.23.03l6.11,3.53c.14.08.2.27.11.42l-3.29,5.71c-.04.07-.11.12-.19.14-.03,0-.06.01-.08.01Z"/>
      <polygon class="cls-4" points="8.97 19.35 2.86 15.82 4.53 18.58 3.77 21.14 9.88 24.66 10.63 22.11 8.97 19.35"/>
      <path class="cls-2" d="M4.13,20.99l5.56,3.21.61-2.05-1.55-2.58-5.01-2.89,1.05,1.74c.04.07.06.17.03.25l-.69,2.32h0ZM9.88,24.97c-.06,0-.11-.02-.15-.04l-6.11-3.53c-.12-.07-.18-.22-.14-.35l.72-2.43-1.59-2.64c-.07-.12-.06-.27.04-.37.1-.1.25-.12.37-.05l6.11,3.53s.08.06.11.11l1.66,2.76c.04.08.06.17.03.25l-.76,2.55c-.03.09-.09.16-.18.2-.03.02-.07.02-.11.02Z"/>
      <polygon class="cls-3" points="9.88 24.66 3.77 21.14 .31 24.41 6.42 27.94 9.88 24.66"/>
      <path class="cls-2" d="M.82,24.35l5.55,3.21,2.99-2.83-5.55-3.2-2.99,2.83h0ZM6.42,28.24c-.05,0-.11-.01-.15-.04L.16,24.68c-.08-.05-.14-.13-.15-.23-.01-.1.02-.19.09-.26l3.46-3.27c.1-.09.25-.11.36-.04l6.11,3.52c.08.05.14.14.15.23.01.09-.02.19-.09.26l-3.46,3.27c-.06.05-.13.08-.21.08Z"/>
      <path class="cls-4" d="M6.42,27.94L.31,24.41v5.39l3.78,2.18-1.23,3.46,6.11,3.53,1.66-4.68-.76-1.68-3.46-2v-2.67Z"/>
      <path class="cls-2" d="M3.24,35.3l5.57,3.21,1.5-4.22-.67-1.48-3.37-1.95c-.09-.05-.16-.15-.16-.27v-2.49l-5.49-3.17v4.68l3.63,2.09c.13.07.19.23.14.37l-1.14,3.22h0ZM8.97,39.27c-.05,0-.11-.02-.15-.04l-6.11-3.53c-.13-.08-.19-.23-.14-.37l1.14-3.21L.16,30.07c-.09-.06-.16-.16-.16-.27v-5.39c0-.11.06-.21.16-.26.1-.05.21-.05.31,0l6.11,3.53c.09.06.15.16.15.27v2.49l3.3,1.91c.06.03.1.08.13.14l.76,1.68c.03.07.04.16.01.23l-1.66,4.68c-.03.08-.1.15-.18.18-.03.01-.07.02-.11.02Z"/>
      <polygon class="cls-4" points="17.32 36.91 11.21 33.38 12.32 36.73 18.43 40.26 17.32 36.91"/>
      <path class="cls-2" d="M12.57,36.53l5.31,3.06-.81-2.48-5.31-3.07.81,2.48h0ZM18.43,40.57c-.06,0-.11-.02-.16-.04l-6.11-3.53c-.07-.04-.12-.1-.14-.17l-1.1-3.36c-.04-.12,0-.25.1-.34.1-.08.24-.09.35-.03l6.11,3.53c.07.04.12.1.14.17l1.1,3.35c.04.12,0,.25-.1.33-.06.05-.13.07-.19.07Z"/>
      <path class="cls-4" d="M18.68,25.96l-6.11-3.53c.37.19.7.24,1.11.16,1.34-.23,2.54-1.61,3.16-2.76.58-1.07,1.06-2.71.54-3.88-.15-.34-.34-.56-.65-.75l6.11,3.53c1.13.69.94,2.43.59,3.5-.48,1.48-1.72,3.24-3.24,3.78-.45.16-.97.21-1.41,0l-.11-.06Z"/>
      <path class="cls-2" d="M18.83,25.69l.1.05c.4.18.85.09,1.17-.02,1.39-.49,2.59-2.18,3.05-3.58.36-1.1.46-2.59-.46-3.15l-4.9-2.83c.36,1.22-.09,2.74-.68,3.81-.61,1.13-1.79,2.53-3.19,2.88l4.9,2.83h0ZM19.44,26.47c-.25,0-.52-.05-.78-.17l-.12-.06s0,0-.01,0l-6.11-3.53c-.14-.08-.2-.27-.12-.41.08-.15.26-.2.41-.13.3.16.57.19.91.14,1.18-.2,2.33-1.46,2.95-2.6.54-1,1-2.54.53-3.61-.12-.28-.27-.45-.53-.62-.14-.09-.19-.28-.1-.42.09-.14.27-.19.42-.11l6.11,3.53c1.23.74,1.18,2.48.73,3.86-.49,1.5-1.77,3.39-3.43,3.97-.24.08-.54.16-.86.16Z"/>
      <path class="cls-3" d="M22.85,23.56c-1.15,1.99-3.02,3.07-4.17,2.4-1.15-.67-1.15-2.82,0-4.82,1.15-1.99,3.02-3.07,4.17-2.41,1.15.67,1.15,2.82,0,4.82h0ZM30.89,22.59l.76-2.55,3.46-3.27v-5.39l-3.46.72-.76-1.68,1.66-4.68c-1.1-.64-2.2-1.27-3.29-1.9l-3.23,3.78-1.83.18-1.1-3.35c-1.56.9-3.12,1.79-4.67,2.69l-1.1,4.63-1.83,1.93-3.22-.06c-1.1,1.9-2.2,3.8-3.29,5.71l1.66,2.76-.76,2.55-3.46,3.27v5.39l3.46-.72.76,1.68-1.66,4.68c1.1.63,2.2,1.27,3.29,1.9l3.22-3.78,1.83-.18,1.1,3.35c1.55-.9,3.11-1.8,4.67-2.7l1.1-4.63,1.83-1.94,3.23.06c1.1-1.9,2.19-3.8,3.29-5.71l-1.66-2.76h0Z"/>
      <path class="cls-2" d="M22.08,18.85c-.35,0-.74.12-1.16.36-.74.43-1.44,1.17-1.97,2.09-.53.92-.82,1.9-.82,2.75,0,.8.25,1.38.71,1.64.46.26,1.09.19,1.78-.21.74-.43,1.44-1.17,1.97-2.09h0c1.04-1.81,1.1-3.83.11-4.4-.18-.1-.39-.16-.61-.16h0ZM19.44,26.47c-.33,0-.64-.08-.92-.24-.66-.38-1.02-1.15-1.02-2.18,0-.96.32-2.05.91-3.06.58-1.01,1.37-1.83,2.2-2.31.89-.51,1.74-.58,2.39-.21,1.32.76,1.37,3.06.11,5.24h0c-.58,1.01-1.36,1.83-2.2,2.31-.51.3-1.01.45-1.47.45h0ZM9.35,38.83l1.58-4.44c.03-.07.02-.16-.01-.23l-.76-1.68c-.06-.13-.2-.21-.34-.17l-3.09.64v-4.88l3.36-3.18s.07-.08.08-.14l.76-2.55c.02-.08.01-.17-.03-.25l-1.57-2.6,3.11-5.39,3.04.05h0c.08,0,.17-.03.22-.1l1.83-1.94s.06-.09.08-.14l1.07-4.5,4.23-2.44.99,2.99c.04.14.18.23.32.21l1.83-.18c.08,0,.15-.04.2-.11l3.06-3.59,2.85,1.65-1.58,4.44c-.03.08-.02.16,0,.23l.76,1.68c.06.13.2.2.34.17l3.09-.64v4.88l-3.36,3.18s-.07.08-.08.14l-.76,2.55c-.03.08-.01.17.03.25l1.57,2.61-3.11,5.39-3.04-.06c-.12,0-.17.03-.23.1l-1.83,1.94s-.06.09-.08.14l-1.07,4.5-4.23,2.44-.98-2.99c-.05-.14-.18-.23-.32-.21l-1.83.18c-.08,0-.15.04-.2.11l-3.06,3.58-2.85-1.64h0ZM12.27,41.18c-.05,0-.11-.02-.15-.04l-3.29-1.9c-.13-.08-.19-.23-.14-.37l1.62-4.56-.61-1.34-3.21.67c-.09.02-.19,0-.26-.06-.07-.06-.12-.15-.12-.24v-5.39c0-.09.04-.17.1-.23l3.4-3.21.7-2.35-1.6-2.65c-.06-.1-.06-.21,0-.31l3.29-5.71c.06-.09.16-.15.27-.15h0l3.09.06,1.68-1.78,1.08-4.55c.02-.08.07-.15.15-.19l4.67-2.7c.08-.05.18-.05.26-.02.08.03.15.11.18.19l1.03,3.12,1.46-.15,3.14-3.69c.1-.11.26-.14.39-.07l3.3,1.9c.13.07.19.23.14.37l-1.62,4.56.61,1.34,3.21-.67c.09-.02.19,0,.26.06.07.06.12.15.12.24v5.39c0,.08-.04.17-.1.22l-3.4,3.22-.7,2.34,1.59,2.65c.06.1.06.22,0,.31l-3.3,5.71c-.06.1-.12.16-.27.15l-3.09-.06-1.68,1.78-1.08,4.55c-.02.08-.07.15-.15.2l-4.67,2.7c-.08.04-.18.05-.26.02-.09-.03-.15-.11-.18-.19l-1.02-3.12-1.47.14-3.14,3.69c-.06.07-.15.11-.23.11Z"/>
      <path class="cls-1" d="M22.85,23.56c-1.15,1.99-3.02,3.07-4.17,2.4-1.15-.67-1.15-2.82,0-4.82,1.15-1.99,3.02-3.07,4.17-2.41,1.15.67,1.15,2.82,0,4.82h0ZM26.59,25.72c3.22-5.58,3.22-11.61,0-13.47-3.22-1.86-8.44,1.16-11.66,6.73-3.22,5.58-3.22,11.61,0,13.47,3.22,1.86,8.44-1.16,11.66-6.73h0Z"/>
      <path class="cls-2" d="M22.08,18.85c-.35,0-.74.12-1.16.36-.74.43-1.44,1.17-1.97,2.09-.53.92-.82,1.9-.82,2.75,0,.8.25,1.38.71,1.64.46.26,1.09.19,1.78-.21.74-.43,1.44-1.17,1.97-2.09h0c1.04-1.81,1.1-3.83.11-4.4-.18-.1-.39-.16-.61-.16h0ZM19.44,26.47c-.33,0-.64-.08-.92-.24-.66-.38-1.02-1.15-1.02-2.18,0-.96.32-2.05.91-3.06.58-1.01,1.37-1.83,2.2-2.31.89-.51,1.74-.58,2.39-.21,1.32.76,1.37,3.06.11,5.24h0c-.58,1.01-1.36,1.83-2.2,2.31-.51.3-1.01.45-1.47.45h0ZM24.43,12.01c.73,0,1.4.16,2,.51,1.46.84,2.26,2.64,2.26,5.07s-.84,5.32-2.37,7.97h0c-3.13,5.42-8.17,8.39-11.24,6.62-3.07-1.77-3.02-7.62.11-13.04,2.51-4.36,6.27-7.13,9.24-7.13h0ZM17.05,33.3c-.82,0-1.59-.19-2.27-.58-3.36-1.94-3.41-8.17-.11-13.89,3.3-5.72,8.73-8.79,12.08-6.85,1.66.96,2.57,2.95,2.57,5.61s-.87,5.54-2.46,8.28h0c-2.63,4.55-6.6,7.43-9.81,7.43Z"/>
      <path class="cls-3" d="M22.85,23.56c1.15-2,1.15-4.15,0-4.82-1.15-.66-3.02.41-4.17,2.41-1.15,1.99-1.15,4.15,0,4.82,1.15.67,3.02-.41,4.17-2.4h0ZM16.33,19.79c2.44-4.23,6.41-6.52,8.86-5.11,2.44,1.41,2.44,5.99,0,10.23-2.44,4.23-6.41,6.52-8.86,5.11-2.45-1.41-2.45-5.99,0-10.23h0Z"/>
      <path class="cls-2" d="M22.08,18.85c-.35,0-.74.12-1.16.36-.74.43-1.44,1.17-1.97,2.09-.53.92-.82,1.9-.82,2.75,0,.8.25,1.38.71,1.64.46.26,1.09.19,1.78-.21.74-.43,1.44-1.17,1.97-2.09h0c1.04-1.81,1.1-3.83.11-4.4-.18-.1-.39-.16-.61-.16h0ZM19.44,26.47c-.33,0-.64-.08-.92-.24-.66-.38-1.02-1.15-1.02-2.18,0-.96.32-2.05.91-3.06.58-1.01,1.37-1.83,2.2-2.31.89-.51,1.74-.58,2.39-.21,1.32.76,1.37,3.06.11,5.24h0c-.58,1.01-1.36,1.83-2.2,2.31-.51.3-1.01.45-1.47.45h0ZM16.33,19.79h0,0ZM23.55,14.57c.54,0,1.04.12,1.49.38,2.3,1.33,2.24,5.72-.11,9.81-2.36,4.08-6.14,6.32-8.44,5-1.08-.63-1.68-1.97-1.68-3.79s.64-4.01,1.79-6.02h0c1.9-3.29,4.72-5.38,6.95-5.38h0ZM17.94,30.74c-.63,0-1.23-.15-1.76-.45-1.28-.74-1.99-2.27-1.99-4.32s.67-4.23,1.88-6.32c2.53-4.37,6.69-6.72,9.28-5.22,2.59,1.49,2.64,6.27.11,10.64-2.01,3.48-5.05,5.68-7.52,5.68Z"/>
      <path class="cls-2" d="M6.42,33.63c-.05,0-.11-.01-.15-.04L.16,30.07c-.15-.09-.2-.27-.11-.42.08-.15.27-.2.42-.11l6.11,3.53c.15.08.2.27.11.42-.05.1-.16.15-.26.15Z"/>
      <path class="cls-2" d="M10.63,22.42c-.05,0-.1-.01-.15-.04l-6.11-3.53c-.15-.09-.2-.27-.11-.42.08-.15.27-.2.42-.11l6.11,3.53c.15.09.2.28.11.42-.06.1-.16.15-.26.15Z"/>
    </g>
  </g>
</svg>