<?xml version="1.0" encoding="UTF-8"?>
<svg id="Layer_2" data-name="Layer 2" xmlns="http://www.w3.org/2000/svg" viewBox="0 0 40.91 34.58" fill="currentColor">
  <defs>
    <style>
      .cls-1 {
        fill: #fff;
      }

      .cls-1, .cls-2, .cls-3, .cls-4 {
        fill-rule: evenodd;
      }

      .cls-2 {
        fill: #1a87c7;
      }

      .cls-3 {
        fill: #bdedf8;
      }

      .cls-4 {
        fill: #66ceef;
      }
    </style>
  </defs>
  <g id="_Layer_" data-name="&amp;lt;Layer&amp;gt;">
    <g>
      <path class="cls-3" d="M38.76.56c-.37-.21-.87-.37-1.28-.15l-12.09,6.98c.77-.38,1.68.35,2.16.91.62.74,1.14,1.93.92,2.89-.06.29-.21.56-.46.72l12.09-6.98c.49-.3.56-1,.49-1.52-.14-1.1-.87-2.29-1.83-2.87Z"/>
      <path class="cls-2" d="M26.49,7.11c.5.2.96.6,1.3,1,.62.76,1.16,1.96,1.01,3l11.14-6.43c.34-.2.39-.78.34-1.21-.13-1.04-.82-2.12-1.68-2.64-.23-.13-.66-.32-.98-.14l-11.13,6.43h0ZM28,12.23c-.1,0-.21-.05-.26-.15-.09-.14-.05-.33.1-.42.16-.11.27-.29.33-.53.19-.86-.31-1.96-.86-2.63-.37-.45-1.16-1.14-1.78-.83-.16.07-.33.02-.41-.13-.08-.15-.03-.33.11-.41L37.32.15c.44-.24,1-.18,1.58.15,0,0,0,0,0,0,1.03.61,1.82,1.85,1.97,3.09.04.31.11,1.36-.63,1.82l-12.09,6.98c-.05.03-.11.04-.16.04Z"/>
      <path class="cls-4" d="M27.97,8.92c-.33-.58-.79-1.08-1.3-1.38-.51-.29-.98-.32-1.31-.13-.33.19-.54.61-.54,1.2s.21,1.24.54,1.82c.34.58.8,1.09,1.31,1.38.51.29.97.32,1.3.13.34-.19.55-.61.55-1.2s-.21-1.24-.55-1.82Z"/>
      <path class="cls-2" d="M25.84,7.59c-.12,0-.23.03-.33.08-.25.14-.39.47-.39.93,0,.52.18,1.11.5,1.67.32.56.75,1.01,1.19,1.27.4.23.75.27,1.01.13.24-.14.38-.47.38-.93,0-.52-.17-1.11-.5-1.67h0c-.33-.56-.75-1.01-1.2-1.27-.24-.14-.47-.21-.67-.21h0ZM27.49,12.37c-.3,0-.65-.1-.98-.3-.54-.31-1.04-.84-1.42-1.49-.38-.65-.58-1.35-.59-1.97,0-.69.25-1.21.7-1.46.45-.26,1.02-.21,1.61.13.55.31,1.05.84,1.43,1.49.37.65.58,1.35.58,1.97,0,.68-.24,1.21-.69,1.47-.19.11-.41.17-.63.17Z"/>
      <path class="cls-1" d="M27.17,9.38c-.18-.31-.43-.59-.71-.75-.28-.16-.53-.17-.71-.07-.17.11-.29.33-.29.65s.11.68.29.99c.18.31.43.59.71.75.28.16.53.18.71.07.18-.1.3-.33.3-.65s-.11-.67-.3-.99Z"/>
      <path class="cls-2" d="M26.02,8.81s-.08,0-.11.02c-.09.05-.14.19-.14.38,0,.25.09.56.25.84.16.28.38.51.6.64.17.09.31.12.4.07.09-.05.14-.19.14-.38,0-.25-.09-.56-.25-.84-.15-.28-.37-.51-.6-.64-.1-.06-.21-.09-.28-.09h0ZM26.91,11.4c-.19,0-.4-.06-.61-.18-.31-.18-.6-.49-.82-.86-.21-.37-.34-.78-.34-1.15,0-.42.16-.75.45-.92.29-.16.65-.14,1.02.07.31.18.61.49.82.86.22.38.34.78.34,1.14,0,.42-.17.75-.44.92-.13.07-.27.11-.42.11Z"/>
      <path class="cls-4" d="M26.45,8.64c-.2-.11-.47-.2-.7-.08l-12.68,7.32c.43-.21.92.19,1.17.5.33.4.62,1.05.5,1.57-.03.16-.11.3-.25.39l12.68-7.32c.26-.16.3-.54.26-.82-.07-.58-.46-1.23-.97-1.54l-.02-.02Z"/>
      <path class="cls-2" d="M13.97,15.72c.2.12.37.29.51.46.31.37.58.93.6,1.47l11.94-6.89c.1-.07.14-.31.12-.52-.06-.51-.42-1.07-.82-1.32l.13-.28-.15.27c-.17-.09-.31-.12-.4-.08l-11.93,6.89h0ZM14.5,18.65c-.1,0-.21-.06-.27-.15-.09-.14-.04-.33.1-.42.06-.04.1-.11.12-.2.09-.4-.15-.96-.43-1.3-.23-.28-.58-.52-.8-.42-.15.07-.33.02-.41-.13-.08-.15-.03-.33.12-.41l12.68-7.32c.28-.16.63-.13.99.08,0,0,0,0,0,0l.03.02c.57.35,1.03,1.07,1.11,1.77.07.51-.09.93-.41,1.12l-12.69,7.33s-.1.04-.15.04Z"/>
      <path class="cls-1" d="M6.98,30.73C.6,28.61-1.59,23.89,2.09,20.2c3.69-3.69,11.86-4.95,18.24-2.82,6.39,2.13,8.57,6.84,4.89,10.53-3.69,3.69-11.85,4.95-18.24,2.82Z"/>
      <path class="cls-2" d="M7.08,30.44c6.28,2.09,14.31.86,17.92-2.75,1.41-1.42,1.96-3.01,1.59-4.6-.54-2.28-2.85-4.25-6.35-5.42-6.27-2.09-14.32-.86-17.92,2.75-1.41,1.41-1.96,3-1.58,4.6.54,2.28,2.85,4.25,6.35,5.42h0ZM13.62,32.07c-2.3,0-4.61-.33-6.74-1.04h0c-3.7-1.23-6.17-3.37-6.75-5.86-.42-1.79.2-3.63,1.75-5.17,3.75-3.76,12.07-5.06,18.55-2.9,3.71,1.24,6.17,3.37,6.76,5.86.42,1.79-.2,3.63-1.76,5.18-2.52,2.53-7.11,3.94-11.81,3.94Z"/>
      <path class="cls-4" d="M18.84,21.85c0,.42.02,2.71-.02,2.94-.15,1.26-1.58,2.06-2.67,2.4-1.98.63-4.76.49-6.48-.7-.62-.43-1.17-1.07-1.2-1.86v-2.79c.04.55.25.97.63,1.38,1.2,1.27,3.49,1.64,5.16,1.53,1.44-.1,3.38-.63,4.22-1.89.23-.33.32-.62.36-1Z"/>
      <path class="cls-2" d="M8.78,23.3v1.32c.03.77.69,1.34,1.07,1.6,1.71,1.18,4.42,1.23,6.21.66,1.11-.35,2.33-1.09,2.46-2.14.02-.11.02-.8.02-1.45-.97,1.14-2.8,1.65-4.25,1.75-1.68.12-4.09-.24-5.4-1.63-.03-.04-.07-.08-.1-.12h0ZM13.64,27.85c-1.46,0-3-.33-4.14-1.12-.48-.33-1.3-1.05-1.34-2.1v-2.8c0-.17.13-.3.3-.31.15-.03.3.12.32.29.03.46.2.81.56,1.19,1.08,1.15,3.26,1.55,4.91,1.44,1.35-.09,3.21-.61,3.99-1.76.19-.28.27-.51.3-.86,0-.17.13-.28.31-.28.17,0,.3.14.3.31v.42c0,1.45,0,2.38-.01,2.55-.22,1.68-2.27,2.45-2.89,2.65-.76.24-1.67.38-2.61.38Z"/>
      <path class="cls-3" d="M18.84,21.85c0,.42.02,2.71-.02,2.94-.14,1.11-1.25,1.85-2.26,2.25v-2.79c.78-.3,1.49-.75,1.92-1.39.23-.33.32-.62.36-1Z"/>
      <path class="cls-2" d="M16.88,24.45v2.11c.64-.32,1.53-.92,1.64-1.82.02-.11.02-.8.02-1.45-.4.47-.96.85-1.66,1.16h0ZM16.57,27.34c-.06,0-.12-.02-.18-.05-.08-.06-.13-.15-.13-.25v-2.79c0-.13.08-.24.2-.29.81-.31,1.43-.75,1.77-1.28.19-.28.27-.51.3-.86,0-.17.13-.28.31-.28.17,0,.3.14.3.31v.42c0,1.45,0,2.38-.01,2.55-.19,1.45-1.78,2.23-2.46,2.5-.03.01-.07.02-.11.02Z"/>
      <path class="cls-3" d="M11.07,24.36c-2.49-.82-3.33-2.66-1.9-4.09,1.44-1.43,4.61-1.92,7.09-1.1,2.48.83,3.33,2.66,1.89,4.09-1.43,1.43-4.61,1.92-7.08,1.09Z"/>
      <path class="cls-2" d="M13.65,19.08c-1.7,0-3.35.51-4.27,1.41-.5.5-.69,1.06-.57,1.61.19.81,1.07,1.54,2.35,1.97h0c2.37.79,5.42.34,6.77-1.02.5-.5.69-1.06.56-1.61-.19-.81-1.07-1.54-2.35-1.97-.78-.26-1.65-.39-2.5-.39h0ZM13.64,25.06c-.91,0-1.83-.13-2.67-.41-1.5-.5-2.51-1.38-2.75-2.41-.18-.76.08-1.54.73-2.19,1.5-1.5,4.82-2.03,7.41-1.17,1.5.5,2.5,1.38,2.75,2.41.18.76-.08,1.54-.73,2.19-1.02,1.01-2.85,1.58-4.73,1.58Z"/>
      <path class="cls-3" d="M17.77,18.09v3.75c-.04,1-1.12,1.66-1.96,1.96-1.6.57-3.91.47-5.31-.5-.5-.34-.94-.85-.96-1.47v-3.75c.03.44.21.77.51,1.09.95,1.01,2.77,1.31,4.09,1.22,1.14-.08,2.68-.5,3.36-1.5.17-.26.25-.49.28-.8Z"/>
      <path class="cls-2" d="M9.85,19.41v2.42c.02.58.52,1.01.83,1.22,1.39.96,3.63.96,5.03.46.83-.29,1.73-.89,1.77-1.68v-2.42c-.81.83-2.19,1.21-3.31,1.29-1.32.09-3.25-.19-4.31-1.29h0ZM13.62,24.46c-1.17,0-2.37-.26-3.3-.91-.68-.47-1.06-1.08-1.08-1.72v-3.76c0-.17.13-.3.29-.31.14-.02.31.12.32.28.03.35.15.62.42.91.85.9,2.55,1.21,3.85,1.12,1.07-.07,2.53-.47,3.13-1.37.14-.21.2-.39.23-.65,0-.16.16-.29.32-.28.16,0,.3.14.3.31v3.75c-.07,1.4-1.68,2.08-2.17,2.25-.66.23-1.46.37-2.29.37Z"/>
      <path class="cls-1" d="M17.77,18.09v3.75c-.04,1-1.12,1.66-1.96,1.96-.42.15-.9.25-1.39.31v-3.74c1.1-.13,2.46-.56,3.08-1.48.17-.26.25-.49.28-.8Z"/>
      <path class="cls-2" d="M14.73,20.64v3.12c.35-.05.67-.14.97-.25.83-.29,1.73-.89,1.77-1.68v-2.42c-.8.82-2.08,1.12-2.74,1.22h0ZM14.42,24.42c-.08,0-.15-.03-.21-.08-.06-.06-.1-.14-.1-.23v-3.74c0-.16.11-.29.27-.31.5-.06,2.16-.32,2.86-1.34.14-.21.2-.39.23-.65,0-.16.16-.29.32-.28.16,0,.3.14.3.31v3.75c-.07,1.4-1.68,2.08-2.17,2.25-.45.16-.94.26-1.46.32-.01,0-.03,0-.04,0Z"/>
      <path class="cls-4" d="M18.84,13.38v4.72c-.05,1.26-1.42,2.1-2.48,2.47-2.01.71-4.92.6-6.69-.63-.62-.43-1.17-1.07-1.21-1.86v-4.72c.05.56.26.97.64,1.38,1.2,1.27,3.49,1.65,5.16,1.53,1.44-.1,3.38-.63,4.22-1.89.23-.33.32-.62.36-1.01Z"/>
      <path class="cls-2" d="M8.78,14.83v3.25c.03.77.69,1.34,1.07,1.6,1.78,1.23,4.63,1.23,6.42.59,1.06-.38,2.22-1.15,2.26-2.2v-3.25c-.96,1.13-2.79,1.65-4.24,1.74-1.68.11-4.09-.24-5.4-1.63-.03-.04-.07-.08-.1-.12h0ZM13.61,21.32c-1.45,0-2.97-.33-4.11-1.13-.84-.58-1.3-1.32-1.34-2.1v-4.73c0-.16.13-.3.3-.31.14-.01.3.12.32.28.03.46.2.82.56,1.19,1.08,1.15,3.26,1.55,4.91,1.44,1.35-.09,3.21-.61,3.99-1.76.19-.28.27-.51.3-.86,0-.17.13-.28.31-.28.17,0,.3.14.3.31v4.72c-.07,1.71-2.07,2.55-2.68,2.76-.82.29-1.82.46-2.86.46Z"/>
      <path class="cls-3" d="M18.84,13.38v4.72c-.05,1.19-1.25,1.99-2.28,2.4v-4.72c.78-.3,1.49-.75,1.92-1.39.23-.33.32-.62.36-1.01Z"/>
      <path class="cls-2" d="M16.88,15.98v4.04c.64-.32,1.62-.97,1.65-1.94v-3.25c-.39.46-.95.85-1.65,1.15h0ZM16.57,20.8c-.06,0-.12-.02-.18-.05-.08-.06-.13-.15-.13-.25v-4.72c0-.13.08-.24.2-.29.81-.31,1.43-.75,1.77-1.28.19-.28.27-.51.3-.86,0-.17.13-.28.31-.28.17,0,.3.14.3.31v4.72c-.07,1.57-1.75,2.4-2.47,2.69-.03.02-.07.02-.11.02Z"/>
      <path class="cls-3" d="M11.07,15.89c-2.49-.82-3.33-2.66-1.9-4.09,1.44-1.43,4.61-1.92,7.09-1.1,2.48.82,3.33,2.66,1.89,4.09-1.43,1.43-4.61,1.92-7.08,1.1Z"/>
      <path class="cls-2" d="M13.65,10.61c-1.7,0-3.35.51-4.27,1.41-.5.5-.69,1.06-.57,1.61.19.81,1.07,1.54,2.35,1.97h0c2.37.79,5.42.34,6.77-1.02.5-.5.69-1.06.56-1.61-.19-.81-1.07-1.54-2.35-1.97-.78-.26-1.65-.39-2.5-.39h0ZM13.64,16.6c-.91,0-1.83-.13-2.67-.41-1.5-.5-2.51-1.38-2.75-2.41-.18-.76.08-1.54.73-2.19,1.5-1.5,4.82-2.03,7.41-1.17,1.5.5,2.5,1.38,2.75,2.41.18.76-.08,1.54-.73,2.19-1.02,1.01-2.85,1.58-4.73,1.58Z"/>
      <path class="cls-3" d="M17.77,9.63v3.75c-.04,1-1.12,1.67-1.96,1.97-1.6.56-3.91.47-5.31-.5-.5-.34-.94-.85-.96-1.48v-3.75c.03.44.21.77.51,1.09.95,1,2.77,1.31,4.09,1.22,1.14-.08,2.68-.5,3.36-1.5.17-.26.25-.49.28-.8Z"/>
      <path class="cls-2" d="M9.85,10.95v2.42c.02.58.52,1.02.83,1.22,1.39.96,3.63.96,5.03.46.83-.29,1.73-.89,1.77-1.69v-2.41c-.81.83-2.19,1.21-3.31,1.29-1.33.09-3.25-.19-4.31-1.29h0ZM13.62,16c-1.17,0-2.37-.27-3.3-.91-.68-.47-1.06-1.08-1.08-1.72v-3.76c0-.17.13-.3.29-.31.14-.02.31.12.32.28.03.35.15.62.42.91.86.9,2.56,1.21,3.85,1.12,1.07-.07,2.53-.47,3.13-1.37.14-.21.2-.39.23-.65,0-.17.16-.28.32-.28.16,0,.3.14.3.31v3.75c-.07,1.4-1.68,2.08-2.17,2.26-.66.23-1.46.37-2.29.37Z"/>
      <path class="cls-1" d="M17.77,9.63v3.75c-.04,1-1.12,1.67-1.96,1.97-.42.15-.9.25-1.39.31v-3.74c1.1-.13,2.46-.56,3.08-1.48.17-.26.25-.49.28-.8Z"/>
      <path class="cls-2" d="M14.73,12.17v3.12c.35-.06.67-.14.97-.25.83-.29,1.73-.89,1.77-1.69v-2.41c-.8.82-2.08,1.12-2.74,1.22h0ZM14.42,15.95c-.08,0-.15-.03-.21-.08-.06-.06-.1-.14-.1-.23v-3.74c0-.16.11-.29.27-.31.5-.06,2.16-.32,2.86-1.34.14-.21.2-.39.23-.65,0-.17.16-.28.32-.28.16,0,.3.14.3.31v3.75c-.07,1.4-1.68,2.08-2.17,2.26-.45.16-.94.26-1.46.32h-.04Z"/>
      <path class="cls-4" d="M18.84,6.7c0,.42.02,2.71-.02,2.94-.15,1.26-1.58,2.06-2.67,2.4-1.98.62-4.76.49-6.48-.71-.62-.43-1.17-1.07-1.2-1.86v-2.79c.04.56.25.97.63,1.38,1.2,1.27,3.49,1.65,5.16,1.53,1.44-.1,3.38-.63,4.22-1.89.23-.33.32-.62.36-1.01Z"/>
      <path class="cls-2" d="M8.78,8.15v1.32c.03.77.69,1.34,1.07,1.6,1.71,1.18,4.42,1.23,6.21.67,1.11-.35,2.33-1.1,2.46-2.15.02-.11.02-.8.02-1.45-.97,1.14-2.8,1.65-4.25,1.75-1.68.12-4.09-.24-5.4-1.63-.03-.04-.07-.08-.1-.12h0ZM13.64,12.7c-1.46,0-3-.33-4.14-1.12-.48-.33-1.3-1.05-1.34-2.1v-2.81c0-.17.13-.3.3-.31.15-.03.3.12.32.28.03.46.2.82.56,1.19,1.08,1.15,3.26,1.55,4.91,1.44,1.35-.09,3.21-.61,3.99-1.76.19-.28.27-.51.3-.86,0-.17.13-.28.31-.28.17,0,.3.14.3.31v.42c0,1.45,0,2.39-.01,2.55-.22,1.68-2.27,2.46-2.89,2.65-.76.24-1.66.37-2.61.37Z"/>
      <path class="cls-3" d="M18.84,6.7c0,.42.02,2.71-.02,2.94-.14,1.1-1.25,1.85-2.26,2.25v-2.79c.78-.3,1.49-.75,1.92-1.39.23-.33.32-.62.36-1.01Z"/>
      <path class="cls-2" d="M16.88,9.3v2.11c.64-.32,1.53-.92,1.64-1.82.02-.11.02-.8.02-1.45-.39.47-.96.85-1.66,1.15h0ZM16.57,12.19c-.06,0-.12-.02-.18-.05-.08-.06-.13-.16-.13-.26v-2.79c0-.13.08-.24.2-.29.81-.31,1.43-.76,1.77-1.28.19-.28.27-.51.3-.86,0-.17.13-.28.31-.28.17,0,.3.14.3.31v.42c0,1.45,0,2.39-.01,2.55-.19,1.45-1.78,2.23-2.46,2.5-.03.02-.07.02-.11.02Z"/>
      <path class="cls-4" d="M11.07,9.21c-2.49-.83-3.33-2.66-1.9-4.09,1.44-1.43,4.61-1.92,7.09-1.1,2.48.83,3.33,2.66,1.89,4.09-1.43,1.43-4.61,1.92-7.08,1.09Z"/>
      <path class="cls-2" d="M11.16,8.92c2.38.79,5.42.33,6.77-1.02.5-.5.69-1.06.56-1.61-.19-.81-1.07-1.54-2.35-1.97-2.37-.79-5.41-.33-6.77,1.02-.5.5-.69,1.06-.57,1.61.19.81,1.07,1.55,2.35,1.97h0ZM13.63,9.92c-.9,0-1.82-.13-2.66-.41h0c-1.5-.5-2.51-1.38-2.75-2.41-.18-.76.08-1.54.73-2.19,1.5-1.51,4.82-2.03,7.41-1.17,1.5.5,2.5,1.38,2.75,2.41.18.76-.08,1.54-.73,2.19-1.02,1.01-2.85,1.58-4.74,1.58Z"/>
      <path class="cls-3" d="M26.95,24.29c0,.6.03,2.41-.03,2.9-.42,3.23-4.07,5.27-6.87,6.15-5.07,1.6-12.19,1.25-16.61-1.81-1.59-1.1-3.02-2.74-3.1-4.76v-2.53c.12,1.42.65,2.49,1.65,3.53,3.08,3.25,8.94,4.22,13.22,3.93,3.7-.25,8.66-1.62,10.84-4.84.57-.84.81-1.58.9-2.58Z"/>
      <path class="cls-2" d="M.66,26.47v.3c.1,2.2,1.89,3.77,2.96,4.51,4.52,3.13,11.65,3.25,16.34,1.77,2.97-.94,6.27-2.98,6.65-5.9.02-.13.03-.37.03-.67-.09.19-.21.37-.34.56-2.2,3.26-7.16,4.71-11.07,4.98-4.18.29-10.21-.59-13.46-4.03-.47-.49-.83-.99-1.11-1.51h0ZM13.6,34.58c-3.65,0-7.49-.83-10.33-2.79-1.16-.8-3.13-2.52-3.22-5v-2.54c0-.17.13-.3.3-.31.16-.02.3.12.31.29.1,1.3.57,2.3,1.55,3.34,2.91,3.07,8.61,4.14,12.99,3.83,3.75-.26,8.52-1.63,10.6-4.71.53-.78.76-1.46.85-2.43.02-.17.14-.29.32-.28.17,0,.29.14.29.31v.5c.01.81.02,2.04-.03,2.44-.52,4.03-5.55,5.92-7.07,6.41-1.91.6-4.19.95-6.55.95Z"/>
    </g>
  </g>
</svg>