<?xml version="1.0" encoding="UTF-8"?>
<svg id="Layer_2" data-name="Layer 2" xmlns="http://www.w3.org/2000/svg" viewBox="0 0 29.97 44.5" fill="currentColor">
  <defs>
    <style>
      .cls-1 {
        fill: #fff;
      }

      .cls-1, .cls-2, .cls-3, .cls-4 {
        fill-rule: evenodd;
      }

      .cls-2 {
        fill: #1a87c7;
      }

      .cls-3 {
        fill: #bdedf8;
      }

      .cls-4 {
        fill: #66ceef;
      }
    </style>
  </defs>
  <g id="_Layer_" data-name="&amp;lt;Layer&amp;gt;">
    <g>
      <path class="cls-4" d="M25.7,1.45l-1.83-1.07c-.39-.15-.55-.08-.94.09l-4.72,2.73c-.81.57-1.23,1.3-1.31,2.28v29.13c.03.42.05.58.37.85l1.86,1.06c-.34-.27-.37-.43-.39-.84V6.55c.08-.98.5-1.71,1.31-2.28l4.74-2.73c.37-.17.52-.24.92-.09Z"/>
      <path class="cls-2" d="M23.5.61c-.11,0-.21.04-.45.15l-4.69,2.72c-.71.5-1.1,1.15-1.18,2.03v29.1c.05.36.05.43.29.62l.94.55V6.55c.08-1.09.58-1.91,1.44-2.53l4.77-2.75s.05-.02.08-.03l-1-.58c-.11-.04-.16-.04-.21-.04h0ZM19.13,36.84c-.05,0-.1-.02-.16-.05l-1.86-1.06c-.45-.36-.5-.62-.52-1.08V5.49c.08-1.09.55-1.91,1.44-2.53L22.79.21c.45-.21.68-.3,1.18-.11l1.89,1.08c.13.08.18.25.13.4-.08.14-.26.21-.39.16-.29-.12-.34-.08-.68.08l-4.72,2.72c-.71.5-1.1,1.15-1.15,2.03v29.11c.03.35.03.42.26.61.13.1.16.28.05.42-.05.08-.16.13-.24.13Z"/>
      <path class="cls-1" d="M18.73,6.55v29.13c0,.84.58,1.17,1.31.76l4.74-2.73c.71-.42,1.31-1.44,1.31-2.28V2.3c0-.84-.6-1.17-1.31-.76l-4.74,2.73c-.73.42-1.31,1.44-1.31,2.28Z"/>
      <path class="cls-2" d="M19.05,6.55v29.13c0,.29.08.5.21.58.16.08.39.05.63-.1l4.74-2.73c.63-.36,1.15-1.29,1.15-2.01V2.3c0-.29-.08-.5-.24-.58-.16-.09-.37-.05-.6.1l-4.74,2.73c-.63.36-1.15,1.29-1.15,2.01h0ZM19.47,36.93c-.18,0-.37-.04-.5-.13-.37-.2-.55-.6-.55-1.11V6.55c0-.95.65-2.07,1.47-2.54l4.74-2.74c.45-.26.86-.29,1.23-.09.34.2.55.6.55,1.11v29.13c0,.95-.65,2.07-1.47,2.54l-4.74,2.74c-.26.15-.5.22-.73.22Z"/>
      <path class="cls-4" d="M29.27,20.88l-1.52-.89c-.42-.15-.58-.11-.94.09L1.62,34.62c-.86.5-1.31,1.29-1.31,2.28v5.47c0,.41.05.58.37.85l1.55.88c-.34-.26-.39-.44-.39-.84v-5.47c0-.98.47-1.78,1.34-2.28l25.18-14.54c.34-.21.52-.24.92-.09Z"/>
      <path class="cls-2" d="M27.33,20.2c-.11,0-.18.04-.37.15L1.78,34.89c-.76.43-1.18,1.13-1.18,2.01v5.47c0,.34.05.41.29.61l.65.37v-5.56c0-1.09.5-2,1.47-2.55l25.18-14.54s.05-.03.08-.05l-.68-.39c-.1-.04-.18-.06-.26-.06h0ZM2.23,44.41c-.05,0-.11-.02-.16-.04l-1.52-.89c-.47-.37-.55-.64-.55-1.11v-5.47c0-1.1.52-2,1.47-2.54l25.18-14.54c.42-.23.68-.31,1.2-.11l1.57.9c.13.08.18.25.13.4-.08.15-.26.21-.39.16-.29-.11-.37-.11-.65.07L3.3,35.78c-.76.43-1.15,1.13-1.15,2.01v5.47c0,.34.03.41.26.61.13.1.16.28.08.42-.08.09-.16.13-.26.13Z"/>
      <path class="cls-1" d="M3.17,44.01l25.18-14.54c.71-.42,1.31-1.44,1.31-2.28v-5.47c0-.84-.6-1.17-1.31-.76L3.17,35.51c-.73.42-1.34,1.44-1.34,2.28v5.47c0,.83.6,1.17,1.34.75Z"/>
      <path class="cls-2" d="M28.92,21.1c-.13,0-.26.04-.42.14L3.3,35.78c-.63.36-1.15,1.28-1.15,2.01v5.47c0,.29.08.5.24.58.13.08.37.05.63-.09l25.18-14.54c.63-.36,1.15-1.28,1.15-2.01v-5.47c0-.28-.08-.5-.24-.58-.05-.03-.11-.04-.18-.04h0ZM2.57,44.5c-.18,0-.34-.04-.5-.13-.34-.2-.52-.6-.52-1.11v-5.47c0-.95.63-2.07,1.47-2.55l25.18-14.54c.45-.25.89-.29,1.23-.09.34.2.55.6.55,1.11v5.47c0,.95-.66,2.07-1.47,2.55L3.3,44.28c-.24.15-.5.21-.73.21Z"/>
      <path class="cls-3" d="M6.37,36.48c0,.34-.24.75-.55.91-.29.17-.52.03-.52-.3v-2.82l1.07-.61v2.82Z"/>
      <path class="cls-2" d="M5.61,34.45v2.71s.03,0,.08-.03c.18-.11.37-.42.37-.65v-2.28l-.45.25h0ZM5.58,37.78c-.1,0-.18-.03-.29-.08-.18-.11-.29-.33-.29-.61v-2.82c0-.11.05-.21.16-.26l1.05-.61c.1-.06.21-.06.31,0,.08.05.16.15.16.26v2.82c0,.45-.31.96-.71,1.18-.13.08-.26.11-.39.11Z"/>
      <path class="cls-3" d="M12.73,32.8c0,.34-.24.75-.52.92-.29.17-.52.02-.52-.3v-2.83l1.05-.61v2.82Z"/>
      <path class="cls-2" d="M12,30.76v2.72s.03-.02.05-.03c.21-.11.37-.42.37-.65v-2.29l-.42.25h0ZM11.97,34.1c-.1,0-.21-.02-.29-.08-.21-.11-.31-.34-.31-.61v-2.83c0-.11.05-.21.16-.27l1.05-.61c.1-.05.21-.05.31,0,.08.05.16.16.16.27v2.82c0,.45-.31.97-.68,1.19-.13.07-.26.11-.39.11Z"/>
      <path class="cls-3" d="M19.1,29.12c0,.34-.24.75-.52.91-.29.17-.52.03-.52-.3v-2.82l1.05-.62v2.83Z"/>
      <path class="cls-2" d="M18.37,27.09v2.72s.03-.02.05-.04c.21-.11.39-.42.39-.65v-2.29l-.45.25h0ZM18.34,30.42c-.1,0-.21-.03-.29-.08-.18-.11-.31-.33-.31-.61v-2.82c0-.11.08-.22.16-.27l1.05-.61c.11-.06.24-.06.31,0,.1.05.16.16.16.26v2.83c0,.45-.29.95-.68,1.18-.13.08-.26.11-.39.11Z"/>
      <path class="cls-3" d="M9.54,33.09c0,.34-.24.75-.52.92-.29.16-.52.02-.52-.31v-1.28l1.05-.62v1.28Z"/>
      <path class="cls-2" d="M8.8,32.61v1.17s.03-.02.05-.04c.21-.11.39-.42.39-.65v-.74l-.45.25h0ZM8.78,34.39c-.11,0-.18-.03-.29-.08-.18-.11-.31-.33-.31-.6v-1.28c0-.11.08-.22.16-.27l1.05-.61c.11-.06.24-.06.31,0,.11.05.16.15.16.26v1.28c0,.45-.29.96-.68,1.18-.13.08-.26.11-.39.11Z"/>
      <path class="cls-3" d="M15.93,29.41c0,.34-.24.75-.52.92-.31.16-.55.03-.55-.3v-1.28l1.07-.61v1.28Z"/>
      <path class="cls-2" d="M15.17,28.93v1.16s.05-.02.08-.03c.18-.11.37-.42.37-.64v-.75l-.45.26h0ZM15.14,30.71c-.11,0-.18-.03-.29-.08-.18-.11-.31-.34-.31-.61v-1.28c0-.11.08-.21.16-.26l1.07-.62c.11-.05.21-.05.31,0,.08.06.13.16.13.27v1.28c0,.45-.29.96-.68,1.18-.13.07-.26.11-.39.11Z"/>
      <path class="cls-3" d="M25.49,25.44c0,.33-.24.75-.52.92-.32.17-.55.03-.55-.3v-2.83l1.07-.61v2.82Z"/>
      <path class="cls-2" d="M24.73,23.41v2.71s.05-.02.08-.03c.18-.11.37-.42.37-.65v-2.29l-.45.26h0ZM24.73,26.74c-.11,0-.21-.03-.31-.08-.18-.11-.29-.34-.29-.61v-2.83c0-.11.05-.21.13-.27l1.07-.61c.08-.05.21-.05.29,0,.1.06.16.16.16.27v2.82c0,.45-.29.96-.65,1.18-.13.07-.29.11-.39.11Z"/>
      <path class="cls-3" d="M22.3,25.73c0,.34-.24.75-.52.92-.29.17-.52.03-.52-.3v-1.28l1.05-.61v1.27Z"/>
      <path class="cls-2" d="M21.56,25.24v1.17s.03-.02.05-.03c.18-.12.37-.43.37-.65v-.74l-.42.25h0ZM21.54,27.03c-.1,0-.21-.03-.29-.07-.21-.11-.31-.34-.31-.61v-1.28c0-.11.05-.22.16-.27l1.05-.61c.1-.05.21-.05.31,0,.1.05.16.16.16.27v1.27c0,.45-.29.96-.68,1.18-.13.08-.26.11-.39.11Z"/>
      <path class="cls-3" d="M21.17,8c.29-.17.52-.58.52-.91s-.23-.48-.52-.3l-2.44,1.41v1.22l2.44-1.41Z"/>
      <path class="cls-2" d="M19.05,8.36v.51l1.97-1.15h0c.21-.11.39-.42.39-.64,0-.03-.03-.06-.03-.08,0,0-.03.02-.05.03l-2.28,1.32h0ZM18.73,9.72c-.05,0-.1-.02-.16-.04-.11-.05-.16-.16-.16-.27v-1.22c0-.11.05-.21.16-.27l2.44-1.41c.24-.14.5-.15.68-.04.21.11.32.33.32.61,0,.44-.29.96-.68,1.18l-2.44,1.41c-.05.02-.1.04-.16.04Z"/>
      <path class="cls-3" d="M21.17,15.36c.29-.17.52-.58.52-.91s-.23-.48-.52-.31l-2.44,1.42v1.22l2.44-1.41Z"/>
      <path class="cls-2" d="M19.05,15.73v.51l1.97-1.15h0c.21-.11.39-.42.39-.64,0-.04-.03-.06-.03-.08,0,0-.03.02-.05.03l-2.28,1.32h0ZM18.73,17.08c-.05,0-.1-.02-.16-.05-.11-.05-.16-.15-.16-.27v-1.22c0-.11.05-.22.16-.27l2.44-1.41c.24-.14.5-.15.68-.03.21.11.32.33.32.61,0,.44-.29.95-.68,1.18l-2.44,1.41c-.05.03-.1.05-.16.05Z"/>
      <path class="cls-3" d="M21.17,22.72c.29-.16.52-.58.52-.92s-.23-.47-.52-.3l-2.44,1.42v1.22l2.44-1.41Z"/>
      <path class="cls-2" d="M19.05,23.09v.51l1.97-1.15h0c.21-.11.39-.42.39-.65,0-.03-.03-.05-.03-.07,0,0-.03.02-.05.03l-2.28,1.32h0ZM18.73,24.44c-.05,0-.1-.02-.16-.04-.11-.05-.16-.15-.16-.27v-1.22c0-.11.05-.22.16-.27l2.44-1.41c.24-.14.5-.16.68-.04.21.12.32.33.32.6,0,.45-.29.97-.68,1.19l-2.44,1.41c-.05.03-.1.04-.16.04Z"/>
      <path class="cls-3" d="M19.83,12.46c.29-.17.52-.58.52-.92s-.24-.47-.52-.3l-1.1.63v1.23l1.1-.63Z"/>
      <path class="cls-2" d="M19.05,12.05v.51l.63-.37h0c.18-.11.37-.42.37-.65v-.07s-.03.02-.05.03l-.94.55h0ZM18.73,13.4c-.05,0-.1,0-.16-.03-.11-.06-.16-.16-.16-.27v-1.23c0-.1.05-.21.16-.26l1.1-.64c.24-.14.47-.15.68-.04.21.11.31.34.31.61,0,.45-.29.96-.68,1.18l-1.1.64c-.05.03-.1.03-.16.03Z"/>
      <path class="cls-3" d="M19.83,19.81c.29-.16.52-.57.52-.91s-.24-.47-.52-.3l-1.1.63v1.23l1.1-.64Z"/>
      <path class="cls-2" d="M19.05,19.41v.5l.63-.36h0c.18-.11.37-.43.37-.65v-.07s-.03.02-.05.03l-.94.55h0ZM18.73,20.76c-.05,0-.1,0-.16-.03-.11-.06-.16-.16-.16-.27v-1.23c0-.11.05-.21.16-.26l1.1-.64c.24-.13.47-.15.68-.03.21.11.31.34.31.61,0,.45-.29.96-.68,1.18l-1.1.63c-.05.03-.1.04-.16.04Z"/>
    </g>
  </g>
</svg>