<?xml version="1.0" encoding="UTF-8"?>
<svg id="Layer_2" data-name="Layer 2" xmlns="http://www.w3.org/2000/svg" viewBox="0 0 47.75 43.83" fill="currentColor">
  <defs>
    <style>
      .cls-1 {
        fill: #fff;
      }

      .cls-1, .cls-2, .cls-3, .cls-4 {
        fill-rule: evenodd;
      }

      .cls-2 {
        fill: #1a87c7;
      }

      .cls-3 {
        fill: #bdedf8;
      }

      .cls-4 {
        fill: #66ceef;
      }
    </style>
  </defs>
  <g id="_Layer_" data-name="&amp;lt;Layer&amp;gt;">
    <g>
      <path class="cls-4" d="M5.2,23.41v13.64l.07.34c.18.71.56,1.42,1.02,1.99,1.32,1.63,3.51,2.73,5.49,3.33,4.2,1.27,9.61,1.1,13.61-.79,1.37-.64,2.79-1.61,3.67-2.86.34-.49.64-1.09.78-1.67l.07-.34v-13.64c-.05.24-.09.44-.17.68-.24.72-.69,1.41-1.19,1.96-1.45,1.59-3.72,2.63-5.77,3.17-4.22,1.13-9.64.85-13.54-1.18-1.3-.69-2.63-1.67-3.4-2.95-.24-.4-.46-.9-.57-1.35l-.07-.34Z"/>
      <path class="cls-2" d="M5.51,25.13v11.91l.07.28c.15.62.5,1.28.96,1.86,1.49,1.84,3.98,2.81,5.34,3.22,4.34,1.31,9.6,1.02,13.39-.77,1.1-.51,2.61-1.42,3.55-2.76.34-.49.61-1.04.73-1.56l.07-.34v-11.85c-.23.39-.51.77-.83,1.13-1.75,1.93-4.46,2.87-5.91,3.26-4.6,1.23-10,.76-13.76-1.21-1.11-.58-2.63-1.58-3.52-3.06-.02-.03-.05-.08-.07-.11h0ZM17.56,43.83c-2,0-4.02-.28-5.87-.83-1.43-.43-4.05-1.45-5.64-3.44-.52-.64-.9-1.4-1.08-2.1l-.07-.36v-13.7c0-.15.11-.3.27-.3.15-.02.3.09.33.24l.07.34c.1.39.3.86.53,1.24.82,1.35,2.24,2.3,3.28,2.84,3.63,1.89,8.86,2.34,13.32,1.16,1.39-.38,3.97-1.28,5.62-3.09.52-.56.92-1.23,1.13-1.85.07-.22.11-.4.15-.61.03-.16.18-.3.33-.26.16,0,.28.13.28.29v13.64l-.08.4c-.15.6-.44,1.23-.83,1.78-1.02,1.46-2.62,2.42-3.79,2.96-2.3,1.09-5.12,1.64-7.96,1.64Z"/>
      <path class="cls-3" d="M23.31,42.7c.73-.22,1.42-.48,2.08-.79,1.37-.64,2.79-1.61,3.67-2.86.34-.49.64-1.09.78-1.67l.07-.34v-13.64c-.05.24-.09.44-.17.68-.24.72-.69,1.41-1.19,1.96-1.32,1.46-3.34,2.44-5.24,3.02v13.64Z"/>
      <path class="cls-2" d="M23.62,29.3v12.99c.57-.19,1.12-.41,1.64-.65,1.1-.51,2.61-1.42,3.55-2.76.34-.49.61-1.04.73-1.56l.07-.34v-11.85c-.23.39-.51.77-.83,1.13-1.16,1.27-2.98,2.35-5.16,3.04h0ZM23.31,43.01c-.07,0-.13-.03-.18-.06-.08-.06-.13-.15-.13-.25v-13.64c0-.13.09-.25.22-.29,2.17-.66,3.98-1.7,5.1-2.94.52-.56.92-1.23,1.13-1.85.07-.22.11-.4.15-.61.03-.16.18-.3.33-.26.16,0,.28.13.28.29v13.64l-.08.4c-.15.6-.44,1.23-.83,1.78-1.02,1.46-2.62,2.42-3.79,2.96-.66.31-1.37.58-2.12.81-.03,0-.06.02-.09.02Z"/>
      <path class="cls-3" d="M.44,19.97v1.94l.1.47c.25,1,.78,1.97,1.42,2.77,1.82,2.28,4.88,3.79,7.62,4.62,5.83,1.77,13.35,1.51,18.89-1.09,1.9-.89,3.87-2.23,5.1-3.97.48-.69.88-1.51,1.08-2.32l.1-.47v-1.94c-.07.34-.13.62-.23.95-.33,1-.95,1.96-1.66,2.73-2.01,2.21-5.16,3.63-8.01,4.4-5.86,1.57-13.38,1.19-18.8-1.63-1.82-.95-3.65-2.32-4.72-4.1-.33-.55-.63-1.23-.79-1.86l-.1-.48Z"/>
      <path class="cls-2" d="M.74,21.89v.02l.09.41c.22.88.7,1.82,1.36,2.64,2.08,2.59,5.57,3.95,7.47,4.52,6.06,1.83,13.38,1.42,18.67-1.08,1.54-.72,3.65-1.98,4.98-3.88.48-.69.85-1.47,1.03-2.21l.08-.41c-.34.68-.8,1.35-1.35,1.96-2.41,2.65-6.14,3.95-8.15,4.49-6.35,1.7-13.82,1.05-19.02-1.66-1.53-.8-3.61-2.18-4.84-4.21-.11-.19-.22-.38-.31-.58h0ZM17.6,31.22c-2.77,0-5.55-.38-8.11-1.15-1.97-.6-5.59-2.01-7.77-4.73-.71-.89-1.23-1.9-1.48-2.88l-.1-.49v-2c0-.16.12-.29.27-.3.15-.01.3.09.33.24l.1.48c.14.56.42,1.22.75,1.77,1.16,1.91,3.14,3.22,4.6,3.98,5.07,2.65,12.36,3.29,18.58,1.62,1.95-.52,5.55-1.77,7.86-4.31.73-.8,1.29-1.73,1.59-2.61.1-.3.15-.57.22-.87.03-.16.17-.28.34-.26.16.01.28.12.28.28v1.94l-.1.54c-.2.82-.61,1.68-1.13,2.43-1.4,2-3.61,3.32-5.22,4.08-3.17,1.49-7.07,2.27-11,2.27Z"/>
      <path class="cls-4" d="M29.74,12.73c-6.73-3.89-17.64-3.89-24.38,0-6.73,3.89-6.74,10.2,0,14.08,6.73,3.88,17.65,3.88,24.39,0,6.74-3.9,6.73-10.2,0-14.08Z"/>
      <path class="cls-2" d="M17.55,10.12c-4.36,0-8.72.96-12.04,2.88-3.16,1.82-4.9,4.22-4.9,6.77s1.74,4.94,4.89,6.77c6.64,3.83,17.44,3.83,24.08,0,3.16-1.83,4.89-4.23,4.89-6.77s-1.74-4.95-4.9-6.77h0c-3.32-1.92-7.68-2.88-12.04-2.88h0ZM17.55,30.03c-4.47,0-8.94-.98-12.35-2.96C1.85,25.15,0,22.55,0,19.77,0,17,1.85,14.4,5.21,12.46c6.81-3.93,17.88-3.93,24.69,0,3.36,1.94,5.21,4.54,5.21,7.31s-1.85,5.37-5.2,7.3c-3.4,1.97-7.88,2.96-12.35,2.96Z"/>
      <path class="cls-4" d="M25.13,15.39c-4.19-2.42-10.98-2.42-15.17,0-4.19,2.42-4.19,6.35,0,8.76,4.19,2.42,10.99,2.42,15.18,0,4.19-2.42,4.19-6.34,0-8.76Z"/>
      <path class="cls-2" d="M17.55,13.88c-2.69,0-5.38.6-7.43,1.78-1.93,1.11-2.99,2.57-2.99,4.11s1.06,3,2.99,4.11c4.1,2.36,10.77,2.36,14.87,0,1.93-1.11,2.99-2.57,2.99-4.11s-1.06-3-2.99-4.11h0c-2.05-1.18-4.74-1.78-7.43-1.78h0ZM17.55,26.27c-2.8,0-5.61-.62-7.74-1.85-2.13-1.23-3.3-2.87-3.3-4.64s1.17-3.43,3.3-4.65c4.27-2.46,11.21-2.46,15.48,0h0c2.13,1.23,3.3,2.88,3.3,4.65s-1.17,3.41-3.3,4.64c-2.14,1.23-4.94,1.85-7.74,1.85Z"/>
      <path class="cls-3" d="M15.73,25.87v-12.21c-2.11.21-4.14.79-5.77,1.73-4.19,2.42-4.19,6.35,0,8.76,1.63.94,3.66,1.51,5.77,1.72Z"/>
      <path class="cls-2" d="M15.42,14.01c-2.02.23-3.84.81-5.31,1.65-1.93,1.11-2.99,2.57-2.99,4.11s1.06,3,2.99,4.11c1.46.84,3.29,1.41,5.31,1.65v-11.53h0ZM15.73,26.19h-.03c-2.24-.23-4.28-.84-5.89-1.77-2.13-1.23-3.3-2.87-3.3-4.64s1.17-3.43,3.3-4.65c1.62-.93,3.66-1.54,5.89-1.77.09,0,.17.02.24.08.06.06.1.15.1.23v12.21c0,.09-.04.17-.1.24-.06.04-.13.08-.21.08Z"/>
      <path class="cls-3" d="M11.61,16.21l1.04,3.11c.05.11.06.14.16.21l.92.54c-.1-.08-.11-.1-.16-.22l-1.03-3.11c-.18-.45-.74-.61-1.16-.85.14.1.17.16.24.32h0ZM13.73,5.68l.92.53c-.52-.22-.96.52-1.08.93l-1.04,4.31c-.13.46-.29.75-.63,1.09l-3.22,3.05c-.29.3-.71,1.05-.26,1.4l-.92-.53c-.45-.35-.03-1.09.26-1.4l3.22-3.05c.34-.35.5-.63.63-1.09l1.04-4.32c.12-.4.56-1.14,1.08-.92h0ZM16.08,9.85l-.92-.53c.16.07.22.07.39.04l3.22-.65c.12-.02.15-.02.26.02l.92.54c-.12-.05-.14-.05-.26-.03l-3.21.65c-.17.03-.24.03-.4-.04h0Z"/>
      <path class="cls-2" d="M16.22,9.59c.08.03.08.03.22,0l2.55-.52-.11-.06-2.7.54.04.03h0ZM16.31,10.22c-.11,0-.21-.02-.36-.08-.01,0-.02-.02-.03-.02l-.92-.53c-.14-.09-.2-.26-.12-.41.08-.15.25-.21.4-.14.09.04.09.04.22.02l3.2-.65c.19-.02.27-.02.44.05l.96.55c.14.08.19.25.12.4-.07.15-.24.21-.39.15l-.02-.04-.02.02-.05-.02v.03s-3.21.65-3.21.65c-.09.02-.16.02-.22.02h0ZM13.53,5.95s-.06,0-.09.03c-.21.09-.42.44-.5.71l-1.04,4.3c-.15.52-.34.86-.71,1.23l-3.23,3.07c-.18.19-.38.55-.36.78,0,.06.03.12.07.15l.25.14c.08-.41.36-.8.52-.97l3.23-3.07c.29-.29.43-.54.55-.96l1.04-4.3c.07-.24.27-.68.59-.96l-.26-.15s-.04,0-.06,0h0ZM8.42,17.3c.1,0,.2-.04.26-.13.09-.14.06-.32-.07-.42-.05-.03-.07-.08-.08-.15-.02-.23.18-.59.36-.78l3.23-3.07c.37-.37.56-.71.71-1.23l1.03-4.3c.08-.26.29-.62.5-.71.06-.03.11-.03.16,0,.15.06.32,0,.4-.15.07-.15.02-.32-.12-.41l-.92-.53s-.02,0-.04-.02c-.22-.09-.45-.08-.67.03-.46.22-.74.82-.83,1.11l-1.03,4.3c-.12.42-.25.65-.55.96l-3.23,3.07c-.2.21-.58.76-.54,1.26.02.24.13.44.35.62l.92.53s.1.03.15.03h0ZM12.08,16.64c.07.06.13.13.16.2l.82,2.46-.12-.07-.86-2.59h0ZM13.69,20.36s-.08-.01-.12-.03l-.92-.53c-.18-.14-.22-.21-.29-.36l-1.04-3.13c-.05-.11-.05-.11-.13-.17-.13-.1-.17-.28-.08-.42.09-.14.27-.18.41-.09.1.05.19.09.3.15.38.19.81.4.99.84l1.05,3.14c.13.1.18.31.09.45-.07.1-.16.16-.26.16Z"/>
      <path class="cls-1" d="M21.2,17.15l.49,1.46c.05.14.15.2.3.17l1.51-.31c.13-.03.21.06.21.22s-.08.33-.21.45l-1.51,1.44c-.15.14-.25.32-.3.51l-.49,2.02c-.04.18-.16.33-.29.41-.13.08-.25.05-.29-.07l-.49-1.46c-.05-.15-.15-.21-.3-.17l-1.51.3c-.13.03-.21-.05-.21-.21s.08-.34.21-.46l1.51-1.43c.14-.14.25-.32.3-.51l.49-2.03c.04-.17.15-.34.29-.42.14-.08.25-.04.29.08Z"/>
      <path class="cls-2" d="M19.9,21.5c.24,0,.44.14.52.38l.42,1.27s.04-.07.05-.11l.49-2.03c.06-.25.19-.49.38-.66l1.51-1.43s.06-.07.08-.1l-1.31.27c-.3.05-.56-.09-.65-.37l-.42-1.28s-.04.08-.05.12l-.49,2.03c-.06.25-.19.48-.38.66l-1.51,1.44s-.06.07-.08.11l1.31-.27s.09,0,.13,0h0ZM20.77,23.87c-.06,0-.11,0-.16-.03-.13-.04-.23-.16-.28-.3l-.47-1.42-1.47.3c-.15.04-.29,0-.4-.09-.12-.09-.18-.25-.18-.42,0-.24.12-.5.31-.68l1.51-1.44c.1-.09.18-.23.21-.36l.49-2.03c.06-.25.23-.49.44-.6.15-.09.32-.11.46-.05.13.04.23.16.27.3l.47,1.42,1.46-.3c.15-.03.29,0,.4.09.12.1.18.25.18.43,0,.23-.12.49-.31.68l-1.51,1.44c-.1.09-.17.23-.21.36l-.49,2.02c-.06.25-.23.48-.43.61-.1.05-.2.09-.3.09Z"/>
      <path class="cls-1" d="M14.81,6.42l1.04,3.12c.1.3.32.43.63.36l3.21-.65c.27-.06.45.12.45.45s-.18.71-.45.97l-3.22,3.06c-.31.3-.53.68-.63,1.09l-1.04,4.31c-.09.36-.33.71-.62.88-.29.16-.53.1-.62-.17l-1.03-3.11c-.1-.31-.32-.43-.64-.37l-3.22.66c-.27.05-.45-.12-.45-.46s.18-.71.45-.97l3.22-3.05c.31-.3.53-.68.63-1.09l1.04-4.31c.09-.37.33-.71.62-.88.29-.17.53-.11.62.16Z"/>
      <path class="cls-2" d="M12.04,16.05c.36,0,.65.21.78.59l1.04,3.11s.08.05.17-.01c.21-.12.4-.39.47-.68l1.04-4.32c.11-.47.37-.9.72-1.24l3.22-3.05c.21-.21.35-.5.35-.76,0-.1-.03-.15-.03-.16l-3.26.66c-.46.09-.84-.12-.99-.57l-1.04-3.11c-.02-.07-.02-.05-.03-.05-.02,0-.07,0-.14.05-.21.12-.4.4-.47.69l-1.04,4.31c-.11.47-.37.91-.72,1.24l-3.22,3.06c-.21.2-.35.5-.35.75,0,.11.03.16.03.16l3.26-.66c.07,0,.14-.02.21-.02h0ZM13.89,20.42c-.08,0-.16-.02-.23-.04-.18-.07-.32-.22-.39-.42l-1.04-3.12c-.05-.15-.12-.19-.28-.16l-3.22.65c-.21.04-.41,0-.56-.12-.17-.13-.26-.36-.26-.64,0-.41.21-.88.54-1.19l3.22-3.06c.26-.25.46-.58.54-.95l1.04-4.31c.11-.45.4-.86.76-1.07.24-.14.48-.16.68-.09.18.07.32.22.38.42h0l1.04,3.11c.05.16.12.19.28.17l3.22-.66c.21-.04.41,0,.56.12.17.14.26.37.26.63,0,.42-.21.88-.55,1.2l-3.22,3.06c-.27.25-.46.58-.54.94l-1.04,4.31c-.11.45-.4.87-.76,1.08-.15.09-.3.13-.45.13Z"/>
      <path class="cls-1" d="M23.33.44l.57,1.71c.05.17.18.23.35.2l1.77-.36c.15-.03.25.07.25.25s-.1.39-.25.53l-1.77,1.68c-.17.16-.29.37-.35.6l-.57,2.37c-.05.2-.18.39-.34.48-.16.09-.29.05-.34-.09l-.57-1.71c-.06-.17-.18-.23-.35-.2l-1.77.36c-.15.03-.25-.07-.25-.25s.1-.39.25-.53l1.77-1.68c.17-.17.29-.37.35-.61l.57-2.36c.05-.2.18-.39.34-.49.16-.09.29-.05.34.09Z"/>
      <path class="cls-2" d="M21.81,5.6c.26,0,.47.16.56.42l.53,1.58c.06-.06.11-.15.13-.24l.57-2.37c.07-.29.22-.55.44-.75l1.77-1.69c.07-.06.12-.16.14-.23l-1.63.33c-.32.07-.59-.09-.7-.4l-.53-1.58c-.06.06-.11.14-.13.23l-.57,2.37c-.07.29-.22.55-.44.75l-1.77,1.68c-.07.07-.12.15-.14.23l1.63-.33c.05-.02.1-.02.14-.02h0ZM22.83,8.27c-.06,0-.12,0-.18-.03-.14-.05-.24-.16-.29-.32l-.57-1.7-1.76.37c-.16.02-.31-.01-.42-.1-.12-.1-.19-.27-.19-.46,0-.26.13-.56.34-.76l1.77-1.68c.13-.12.22-.28.26-.45l.57-2.37c.07-.28.25-.54.48-.68.17-.09.34-.11.49-.05.14.05.24.17.3.31l.57,1.71,1.76-.36c.16-.03.31,0,.42.1.13.1.19.27.19.46,0,.26-.13.56-.34.76l-1.77,1.68c-.13.12-.22.28-.26.45l-.57,2.36c-.07.29-.26.55-.48.68-.11.06-.21.09-.32.09Z"/>
      <path class="cls-1" d="M27.32,12.72c-.23-.13-.54.03-.73.18-.39.31-.72.94-.64,1.44.02.14.09.3.22.38l19.87,11.47c-.3-.19-.25-.66-.15-.95.13-.42.47-.9.89-1.06.14-.05.29-.06.42,0l-19.87-11.47Z"/>
      <path class="cls-2" d="M27.12,12.99c-.08,0-.22.06-.34.15-.3.24-.59.77-.53,1.17.01.09.05.15.08.15l19.18,11.07c.01-.13.04-.26.08-.38.12-.38.39-.83.76-1.09l-19.18-11.07s-.03,0-.05,0h0ZM46.03,26.51c-.05,0-.1-.02-.15-.04l-19.87-11.47c-.2-.12-.33-.34-.37-.6-.09-.65.32-1.37.75-1.73.36-.29.76-.37,1.07-.21h0l19.87,11.47c.14.09.2.27.12.42-.08.14-.26.2-.41.12-.05-.03-.12-.01-.17,0-.32.12-.6.53-.7.87-.08.24-.09.52.03.6.14.09.18.27.1.42-.06.09-.16.15-.26.15Z"/>
      <path class="cls-3" d="M46.04,24.86c-.15.26-.24.55-.24.81s.09.44.24.53c.15.09.35.08.58-.05.23-.13.43-.36.58-.62.15-.25.24-.54.24-.8s-.09-.45-.24-.53c-.15-.09-.35-.08-.58.05-.23.13-.43.36-.58.61Z"/>
      <path class="cls-2" d="M46.04,24.86h0,0ZM46.98,24.46c-.05,0-.12.02-.21.07-.17.1-.34.28-.47.5h0c-.13.22-.2.46-.2.65,0,.16.04.24.09.27.06.03.16,0,.27-.06.17-.1.34-.28.47-.5.12-.22.2-.46.2-.65,0-.17-.04-.24-.08-.27-.02-.01-.03-.01-.06-.01h0ZM46.26,26.57c-.13,0-.26-.04-.37-.1-.25-.15-.4-.43-.4-.8,0-.3.1-.64.28-.96h0c.18-.31.42-.57.69-.73.31-.18.64-.2.89-.05.25.14.39.43.39.8,0,.3-.1.64-.28.96-.18.31-.43.57-.69.72-.18.11-.36.16-.52.16Z"/>
    </g>
  </g>
</svg>