<?xml version="1.0" encoding="UTF-8"?>
<svg id="Layer_2" data-name="Layer 2" xmlns="http://www.w3.org/2000/svg" viewBox="0 0 65.14 82.12" fill="currentColor">
  <defs>
    <style>
      .cls-1 {
        fill: #fff;
      }

      .cls-1, .cls-2, .cls-3, .cls-4 {
        fill-rule: evenodd;
      }

      .cls-2 {
        fill: #1a87c7;
      }

      .cls-3 {
        fill: #bdedf8;
      }

      .cls-4 {
        fill: #66ceef;
      }
    </style>
  </defs>
  <g id="_Layer_" data-name="&amp;lt;Layer&amp;gt;">
    <g>
      <polygon class="cls-3" points="61.17 12.61 48.7 5.39 28.48 .61 40.96 7.83 61.17 12.61"/>
      <path class="cls-2" d="M41.2,7.25l16.02,3.79-8.78-5.07-16.03-3.79,8.78,5.08h0ZM61.17,13.22s-.08,0-.14-.02l-20.22-4.77c-.05-.02-.1-.03-.16-.07L28.17,1.15c-.26-.16-.37-.47-.26-.77.12-.28.42-.45.71-.36l20.22,4.78c.05,0,.1.03.16.05l12.5,7.22c.26.16.37.47.26.76-.1.23-.33.38-.58.38Z"/>
      <path class="cls-4" d="M39.91,29.61c2.96,13.85-13.02,34.02-23.41,28.58,2.78,1.6,12.15,7.49,14.55,7.98,11.37,2.31,25.94-19.83,20.66-31.45l-12.6-7.47.81,2.36Z"/>
      <path class="cls-2" d="M20.25,59.72c3.81,2.28,9.28,5.51,10.92,5.84,4.29.89,9.57-2.02,14.13-7.74,4.94-6.21,8.85-15.91,5.91-22.67l-10.99-6.52.26.77s.02.05.03.07c2.04,9.56-4.52,21.4-11.73,26.88-2.94,2.22-5.86,3.37-8.54,3.37h0ZM32.7,66.95c-.61,0-1.19-.05-1.77-.17-1.84-.38-7.06-3.46-12.24-6.57-1.05-.63-1.91-1.15-2.5-1.48-.28-.17-.38-.54-.22-.83.16-.3.52-.42.82-.26,3.16,1.65,7.16.85,11.26-2.26,6.92-5.25,13.18-16.53,11.29-25.61l-.82-2.31c-.09-.24,0-.52.19-.68.21-.17.49-.19.71-.05l12.6,7.48c.1.05.19.16.25.26,3.3,7.25-.79,17.59-6,24.13-4.24,5.35-9.18,8.36-13.56,8.36Z"/>
      <polygon class="cls-3" points="61.3 20.95 48.8 13.74 39.1 27.25 51.58 34.46 61.3 20.95"/>
      <path class="cls-2" d="M39.99,27.05l11.42,6.59,8.99-12.5-11.42-6.59-8.99,12.5h0ZM51.58,35.07c-.1,0-.2-.02-.31-.09l-12.48-7.2c-.16-.09-.26-.24-.3-.42-.04-.16,0-.35.1-.49l9.72-13.51c.17-.26.53-.33.8-.17l12.48,7.21c.16.09.26.22.3.4.03.17,0,.35-.1.49l-9.7,13.53c-.13.16-.31.24-.51.24Z"/>
      <polygon class="cls-3" points="28.98 65.4 16.5 58.19 16.03 57.89 15.6 57.56 28.1 64.78 28.53 65.11 28.98 65.4"/>
      <path class="cls-2" d="M28.98,66.01c-.11,0-.21-.03-.3-.09l-13.46-7.87c-.26-.19-.33-.56-.14-.84.17-.26.54-.35.82-.19l13.4,7.86c.29.17.38.54.2.83-.12.19-.32.3-.53.3Z"/>
      <path class="cls-4" d="M40.78,31.49l-12.5-7.21c.16.16.17.24.19.45v8.78l12.48,7.22v-8.64c0-.24.05-.45-.17-.59h0ZM40.96,7.83L28.48.61v8.81c-.03.52-.31,1.1-.82,1.3l12.48,7.21c.5-.21.79-.8.82-1.3V7.83Z"/>
      <path class="cls-2" d="M28.71,10.63l11.4,6.59c.14-.17.22-.42.24-.62v-8.4L29.11,1.69v7.74c-.04.38-.16.83-.4,1.2h0ZM40.14,18.57c-.11,0-.2-.03-.29-.09l-12.5-7.21c-.19-.12-.31-.33-.3-.57,0-.23.16-.44.37-.52.22-.1.42-.44.45-.8V.61c0-.21.1-.42.3-.52.19-.12.43-.12.62,0l12.48,7.2c.19.12.31.31.31.54v8.81c-.05.68-.4,1.53-1.18,1.88-.08.03-.17.05-.26.05h0ZM29.11,33.14l11.24,6.5v-7.68l-11.26-6.5.02,7.68h0ZM40.96,41.33c-.1,0-.21-.04-.29-.09l-12.5-7.22c-.19-.1-.3-.29-.3-.52v-8.78c-.23-.21-.26-.55-.07-.82.19-.24.52-.31.8-.16l12.48,7.2h.02c.5.29.49.8.49,1.04v8.73c0,.21-.13.42-.31.52-.08.05-.19.09-.31.09Z"/>
      <path class="cls-1" d="M40.96,40.72c6.74-9.37,13.47-18.74,20.22-28.11l-20.22-4.78v8.81c0,1.16-1.46,1.65-2.12,2.02-7.09,4.1-13.52,11.14-18.17,19.19-4.64,8.05-7.53,17.12-7.53,25.31s2.89,13.96,7.53,16.64c4.64,2.68,11.07,2.29,18.17-1.81,7.09-4.08,13.52-11.11,18.16-19.17,4.64-8.05,7.53-17.12,7.53-25.31,0-5.06-1.1-9.37-3.23-12.55l-9.72,13.51c.78,1.6,1.18,3.58,1.18,5.82,0,4.45-1.55,9.37-4.07,13.73-2.52,4.36-6.02,8.19-9.86,10.39-3.85,2.22-7.34,2.43-9.86.99-2.53-1.46-4.07-4.59-4.07-9.02s1.55-9.37,4.07-13.73c1.84-3.13,4.17-5.94,6.76-8.13,1.2-1.03,5.21-4.54,5.21-2.16v8.36Z"/>
      <path class="cls-2" d="M41.59,8.61v8.03c0,1.34-1.29,1.98-2.05,2.36-.16.07-.28.14-.38.19-6.78,3.91-13.14,10.64-17.94,18.95-4.79,8.31-7.43,17.19-7.43,25.01s2.55,13.42,7.22,16.1c4.64,2.7,10.88,2.05,17.54-1.79,6.78-3.91,13.14-10.64,17.94-18.95,4.79-8.33,7.44-17.21,7.44-25.01,0-4.54-.91-8.47-2.65-11.46l-8.97,12.48c.73,1.62,1.1,3.55,1.1,5.75,0,4.4-1.48,9.39-4.17,14.05-2.68,4.64-6.26,8.43-10.07,10.62-3.92,2.26-7.65,2.61-10.46.97-2.83-1.63-4.4-5.02-4.4-9.54s1.48-9.39,4.17-14.05c1.86-3.18,4.24-6.05,6.88-8.29,2.57-2.21,4.43-3.51,5.54-3.01.31.16.7.5.7,1.32v6.45l18.55-25.81-18.55-4.38h0ZM27.36,82.12c-2.56,0-4.92-.59-7.01-1.79-5.04-2.92-7.82-9.02-7.82-17.18s2.69-17.12,7.6-25.63c4.92-8.5,11.44-15.38,18.39-19.4.14-.07.28-.16.45-.24.75-.37,1.37-.71,1.37-1.25V7.83c0-.19.09-.36.22-.49.16-.1.35-.16.54-.1l20.2,4.76c.21.05.37.19.43.38.07.19.05.42-.07.57l-20.22,28.11c-.15.22-.43.31-.68.22-.26-.07-.43-.31-.43-.57v-8.36c0-.17-.03-.24-.03-.24-.11,0-.92.07-4.07,2.76-2.64,2.26-4.92,5.01-6.73,8.08-2.57,4.45-3.99,9.23-3.99,13.42s1.34,7.07,3.77,8.48c2.44,1.41,5.72,1.06,9.23-.97,3.63-2.1,7.06-5.72,9.63-10.17,2.57-4.48,4-9.25,4-13.44,0-2.14-.38-4.07-1.13-5.55-.11-.21-.08-.45.05-.64l9.72-13.51c.12-.16.29-.22.5-.26.21,0,.4.1.5.28,2.19,3.25,3.34,7.72,3.34,12.9,0,8.03-2.69,17.12-7.6,25.63-4.92,8.5-11.44,15.38-18.39,19.4-4.16,2.4-8.15,3.6-11.78,3.6Z"/>
      <path class="cls-3" d="M40.14,17.94l-12.48-7.21C5.57,22.24-7.73,59.72,6.52,71.43l12.89,7.53c-11.58-9.13-4.9-30.77,1.7-41.88,4.52-7.56,11.14-15.02,19.03-19.14Z"/>
      <path class="cls-2" d="M27.64,11.44C12.56,19.47,2.89,38.51,1.43,52.45c-.87,8.31,1.08,14.88,5.5,18.51l9.05,5.29c-7.46-10.45-1.58-29.1,4.61-39.48,2.9-4.89,9.09-13.68,18.31-18.84l-11.25-6.48h0ZM19.41,79.57c-.11,0-.21-.02-.3-.09l-12.9-7.51C1.4,68.03-.71,61.07.21,52.33,1.71,37.99,11.74,18.34,27.38,10.19c.17-.11.4-.09.59.02l12.48,7.21c.19.1.31.31.31.54-.02.23-.14.43-.33.54-9.5,4.94-15.86,13.96-18.79,18.91-6.68,11.18-13.07,32.21-1.86,41.06.26.21.31.56.14.84-.12.17-.31.26-.52.26Z"/>
    </g>
  </g>
</svg>