<?xml version="1.0" encoding="UTF-8"?>
<svg id="Layer_2" data-name="Layer 2" xmlns="http://www.w3.org/2000/svg" viewBox="0 0 33.85 40.98" fill="currentColor">
  <defs>
    <style>
      .cls-1 {
        fill: #fff;
      }

      .cls-1, .cls-2, .cls-3, .cls-4 {
        fill-rule: evenodd;
      }

      .cls-2 {
        fill: #1a87c7;
      }

      .cls-3 {
        fill: #bdedf8;
      }

      .cls-4 {
        fill: #66ceef;
      }
    </style>
  </defs>
  <g id="_Layer_" data-name="&amp;lt;Layer&amp;gt;">
    <g>
      <path class="cls-1" d="M2.46,40.67h0s19.31-11.13,19.31-11.13c.8-.46,1.45-1.59,1.46-2.52V5.95l-4.37-3.37c.48.66.85,1.42,1,2.26v4.94l-1.84-1.06v-3.68c.03-1.68-1.86-3.8-4.47-2.48L3.54,8.34c-.88.56-1.46,1.56-1.5,2.6v28.77c.04.46.06.66.43.97Z"/>
      <path class="cls-2" d="M15.16,2.45c-.43,0-.91.11-1.46.38L3.69,8.61c-.77.49-1.3,1.42-1.34,2.35l-.02,28.75c.04.32.04.44.18.59l19.12-11.02c.71-.41,1.31-1.44,1.31-2.25V6.1s-3.05-2.36-3.05-2.36c.13.34.24.69.3,1.04v4.99c0,.11-.05.21-.15.27-.1.06-.22.06-.32,0l-1.84-1.06c-.09-.05-.16-.16-.16-.27v-3.68c.03-.83-.5-1.73-1.24-2.21-.32-.2-.76-.38-1.31-.38h0ZM2.47,40.98c-.06,0-.13-.02-.18-.05,0,0-.02-.01-.02-.02-.48-.39-.5-.7-.55-1.18V10.94c.05-1.16.69-2.25,1.65-2.86L13.4,2.29c1.21-.61,2.41-.6,3.39.02.95.59,1.56,1.7,1.54,2.74v3.49l1.23.71v-4.41c-.13-.69-.46-1.43-.95-2.07-.09-.12-.08-.3.04-.4.1-.11.28-.12.4-.03l4.38,3.37c.08.06.12.15.12.24v21.06c0,1.04-.72,2.27-1.61,2.79L2.62,40.94s-.1.04-.15.04Z"/>
      <path class="cls-1" d="M19.87,9.78l2.69-1.55c1.33-.73,2.06-1.37.72-2.41l-5.69-4.43,2.27,3.46v4.94Z"/>
      <path class="cls-2" d="M18.88,2.77l1.25,1.9s.05.11.05.17v4.4s2.23-1.29,2.23-1.29c.58-.32,1.25-.73,1.28-1.09.03-.27-.3-.59-.58-.81l-4.22-3.29h0ZM19.87,10.09c-.05,0-.11-.01-.16-.04-.09-.06-.15-.16-.15-.27v-4.85l-2.22-3.38c-.08-.13-.06-.29.05-.39.11-.11.28-.11.4-.02l5.69,4.43c.59.46.86.9.83,1.34-.05.62-.67,1.08-1.59,1.58l-2.68,1.55c-.05.03-.11.04-.16.04Z"/>
      <path class="cls-3" d="M2.47,40.67l-1.72-.99c-.37-.31-.4-.5-.44-.97l.02-28.76c.04-1.04.62-2.04,1.5-2.6L12.41,1.23c1.57-.88,2.43-1.33,4.28-.44,1.5.72,2.84,2.22,3.17,4.05v4.94l-1.84-1.06v-3.68c.03-1.68-1.86-3.8-4.47-2.48L3.54,8.34c-.88.56-1.46,1.56-1.5,2.6v28.77c.04.47.06.66.44.97Z"/>
      <path class="cls-2" d="M14.92.61c-.74,0-1.38.34-2.36.89L1.97,7.61c-.77.49-1.31,1.42-1.35,2.34v28.75c.03.41.03.5.31.73l.8.46c-.01-.05-.02-.11-.02-.17V10.94c.05-1.16.69-2.25,1.65-2.86L13.4,2.29c1.21-.61,2.41-.6,3.39.02.95.59,1.56,1.7,1.54,2.74v3.49l1.23.71v-4.41c-.29-1.53-1.46-3.04-3.01-3.78-.65-.32-1.16-.45-1.63-.45h0ZM2.47,40.98c-.05,0-.1-.01-.16-.04l-1.72-.99c-.5-.41-.55-.69-.59-1.21V9.95c.06-1.15.69-2.25,1.65-2.86L12.26.96c1.66-.94,2.62-1.38,4.56-.45,1.74.83,3.02,2.47,3.35,4.28v4.99c0,.11-.05.21-.15.27-.1.06-.22.06-.32,0l-1.84-1.06c-.09-.05-.16-.16-.16-.27v-3.68c.03-.83-.5-1.73-1.24-2.21-.57-.36-1.5-.64-2.77,0L3.69,8.61c-.78.5-1.3,1.4-1.34,2.35l-.02,28.75c.04.41.05.5.33.73.12.1.15.28.06.41-.06.09-.15.13-.25.13Z"/>
      <path class="cls-2" d="M5.36,30.86c-.11,0-.22-.05-.27-.15-.09-.15-.03-.33.11-.42l14.57-8.41c.15-.08.33-.03.42.11.09.15.04.34-.11.42l-14.57,8.41s-.09.04-.15.04Z"/>
      <path class="cls-2" d="M6.96,33.16c-.11,0-.21-.06-.27-.16-.08-.15-.04-.34.11-.42l11.35-6.55c.14-.08.33-.03.42.11.09.15.03.33-.11.42l-11.34,6.55c-.05.03-.1.04-.15.04Z"/>
      <path class="cls-2" d="M5.36,27.82c-.11,0-.22-.06-.27-.16-.09-.15-.03-.33.11-.42l14.57-8.41c.15-.09.33-.04.42.11.09.15.04.34-.11.42l-14.57,8.41s-.09.04-.15.04Z"/>
      <path class="cls-1" d="M12.53,14.36h0c.59-.34,1.12-.92,1.5-1.59h0c.39-.67.63-1.42.63-2.11s-.24-1.16-.63-1.38c-.38-.22-.92-.19-1.5.15-.59.34-1.13.93-1.51,1.59-.38.67-.63,1.42-.63,2.1s.24,1.16.63,1.38c.38.22.92.19,1.51-.15Z"/>
      <path class="cls-2" d="M13.48,9.45c-.24,0-.51.08-.79.25-.53.3-1.03.83-1.4,1.48-.39.65-.59,1.34-.59,1.95,0,.55.17.94.47,1.12.3.18.73.12,1.2-.15h0c.54-.32,1.03-.84,1.4-1.48.37-.65.58-1.34.58-1.95,0-.54-.16-.94-.47-1.11-.12-.07-.25-.1-.41-.1h0ZM12.53,14.36h0,0ZM11.58,14.96c-.25,0-.5-.06-.71-.18-.5-.29-.77-.88-.77-1.65,0-.71.23-1.51.66-2.26.43-.74,1.01-1.35,1.62-1.71.67-.39,1.31-.44,1.82-.15.5.29.78.88.78,1.65,0,.71-.24,1.51-.67,2.26-.43.74-1.01,1.35-1.62,1.7h-.01c-.38.22-.75.34-1.1.34Z"/>
      <path class="cls-4" d="M15.33,14.49c-.71-.41-1.7-.35-2.8.28h0c-1.09.63-2.08,1.71-2.8,2.95-.65,1.14-1.08,2.41-1.15,3.58l7.89-4.55c-.07-1.1-.5-1.87-1.15-2.25Z"/>
      <path class="cls-2" d="M14.3,14.53c-.49,0-1.03.17-1.61.5-1.01.58-1.96,1.59-2.69,2.84-.54.93-.9,1.93-1.04,2.86l7.19-4.15c-.09-.86-.43-1.5-.98-1.82h0c-.26-.15-.56-.22-.88-.22h0ZM8.59,21.6c-.05,0-.11-.02-.16-.05-.1-.06-.16-.17-.15-.28.07-1.19.49-2.51,1.19-3.72.77-1.34,1.8-2.43,2.9-3.06,1.17-.67,2.26-.77,3.11-.28h0c.76.45,1.23,1.33,1.29,2.5.01.12-.05.23-.15.28l-7.89,4.56c-.05.03-.11.04-.16.04Z"/>
      <path class="cls-1" d="M19.83,16.77c-2.94,1.7-5.32,5.83-5.32,9.22s2.38,4.77,5.32,3.07c2.94-1.7,5.32-5.82,5.32-9.22s-2.38-4.77-5.32-3.08Z"/>
      <path class="cls-2" d="M22.2,16.35c-.67,0-1.43.23-2.22.69-2.85,1.65-5.17,5.66-5.17,8.95,0,1.53.51,2.66,1.41,3.18.9.52,2.13.39,3.45-.37,2.85-1.64,5.17-5.66,5.17-8.95,0-1.53-.5-2.66-1.41-3.18-.36-.21-.77-.31-1.23-.31h0ZM17.45,30.1c-.57,0-1.09-.13-1.55-.4-1.1-.64-1.71-1.95-1.71-3.71,0-3.49,2.46-7.74,5.48-9.48,1.52-.88,2.97-1.01,4.07-.37,1.11.64,1.71,1.96,1.71,3.71,0,3.48-2.46,7.74-5.48,9.48-.89.51-1.75.77-2.53.77Z"/>
      <path class="cls-3" d="M17.23,12.55c.79-.44,1.57-.79,2.47-.96.75-.14,1.55-.13,2.28.11l.15.05,2.59,1.5c-.47-.16-.88-.24-1.39-.25-2.28-.03-4.59,1.56-6.14,3.11-2.79,2.8-5.04,7.25-5.04,11.24,0,1.56.36,3.3,1.53,4.42l.11.11-2.6-1.5c-.05-.04-.27-.27-.33-.33-1.44-1.64-1.48-4.29-1.11-6.32.75-4.18,3.63-8.86,7.29-11.07l.19-.12Z"/>
      <path class="cls-2" d="M17.38,12.81l-.19.11c-3.43,2.08-6.37,6.55-7.14,10.86-.22,1.22-.56,4.25,1.04,6.06.04.05.23.24.28.29l1.23.7c-.61-1.14-.76-2.46-.76-3.49,0-3.79,2.06-8.39,5.13-11.46.96-.95,3.42-3.14,6.16-3.2l-1.26-.7c-.62-.2-1.35-.24-2.12-.1-.76.14-1.49.42-2.37.92h0ZM13.79,32.19c-.06,0-.11-.02-.16-.04l-2.6-1.5c-.13-.09-.4-.39-.4-.39-1.77-2.01-1.43-5.27-1.19-6.58.8-4.47,3.86-9.12,7.43-11.28l.2-.12h0c.95-.53,1.73-.84,2.55-.99.87-.16,1.71-.12,2.43.12l.16.05,2.64,1.52c.14.08.19.25.13.4-.07.14-.23.21-.38.16-.46-.16-.83-.23-1.29-.24-2.57-.04-5,2.1-5.92,3.02-2.97,2.96-4.95,7.39-4.95,11.03,0,1.29.25,3.06,1.43,4.2l.11.1c.12.11.13.28.04.41-.06.08-.16.13-.24.13Z"/>
      <path class="cls-3" d="M22.36,16.78c-.25-.81-.63-1.44-1.37-1.88l2.6,1.5c1.12.68,1.48,1.9,1.56,3.13.05,1.62-.37,3.14-1.05,4.6-.5,1.06-1.09,1.97-1.84,2.86-.93,1.07-2.03,2-3.36,2.52-.96.34-1.9.43-2.82-.08l-2.6-1.5c.68.37,1.31.42,2.06.29,1.17-.24,2.15-.86,3.03-1.62,1.18-1.05,2.06-2.25,2.78-3.65.56-1.12.95-2.23,1.13-3.47.12-.93.13-1.79-.11-2.7Z"/>
      <path class="cls-2" d="M15.19,28.58l1.03.59c.72.4,1.54.42,2.56.05,1.13-.43,2.19-1.23,3.23-2.43.72-.86,1.3-1.75,1.8-2.79.73-1.59,1.07-3.04,1.02-4.46-.08-1.41-.54-2.36-1.4-2.88l-1.02-.59c.09.19.17.39.23.62.01,0,.01,0,.01,0,.23.86.27,1.73.12,2.82-.18,1.21-.55,2.34-1.16,3.57-.77,1.5-1.7,2.72-2.85,3.74-1.09.94-2.1,1.48-3.18,1.7-.13.02-.26.04-.39.05h0ZM17.44,30.1c-.54,0-1.04-.13-1.52-.39l-2.6-1.5c-.15-.09-.2-.27-.11-.42.08-.15.27-.2.41-.12.56.31,1.11.38,1.86.26.96-.2,1.88-.69,2.89-1.56,1.08-.96,1.97-2.13,2.7-3.55.58-1.17.93-2.24,1.11-3.38.13-1,.1-1.79-.11-2.57-.24-.83-.62-1.34-1.22-1.7-.15-.09-.19-.28-.1-.42.09-.15.27-.19.42-.11l2.6,1.5c1.05.64,1.61,1.74,1.71,3.38.05,1.52-.3,3.07-1.08,4.75-.53,1.09-1.13,2.02-1.89,2.93-1.11,1.28-2.25,2.14-3.5,2.61-.56.2-1.08.3-1.56.3Z"/>
      <polygon class="cls-1" points="23.59 16.4 20.99 14.9 20.9 14.85 20.81 14.8 20.71 14.76 23.31 16.26 23.41 16.3 23.5 16.35 23.59 16.4"/>
      <path class="cls-2" d="M23.59,16.7c-.05,0-.11-.01-.15-.04l-.26-.13-2.62-1.52c-.15-.08-.2-.26-.12-.41.07-.15.25-.21.4-.14l.3.15,2.6,1.5c.15.08.19.27.12.42-.06.1-.17.15-.27.15Z"/>
      <path class="cls-4" d="M23.59,16.4c-.96-.56-2.29-.47-3.76.37-1.47.85-2.8,2.31-3.76,3.98-.96,1.67-1.56,3.55-1.56,5.24s.59,2.89,1.56,3.45c.96.56,2.29.48,3.76-.37,1.47-.85,2.8-2.31,3.76-3.97.96-1.67,1.56-3.55,1.56-5.24s-.59-2.89-1.56-3.45h0ZM19.83,14.04c2.12-1.22,4.04-1.34,5.43-.54,1.39.8,2.25,2.53,2.25,4.98,0,1.42-.29,2.92-.8,4.4.16.02.3.07.44.15l5.65,3.26c.98.57.98,2.41,0,4.1h0c-.98,1.69-2.58,2.62-3.55,2.05l-5.66-3.26c-.14-.08-.25-.18-.35-.31-1.03,1.19-2.2,2.19-3.42,2.9-2.12,1.22-4.04,1.34-5.43.54-1.39-.8-2.25-2.52-2.25-4.97s.86-5.17,2.25-7.57c1.39-2.41,3.31-4.51,5.43-5.74h0Z"/>
      <path class="cls-2" d="M22.2,16.35c-.67,0-1.43.23-2.22.69-1.38.8-2.68,2.17-3.65,3.86-.98,1.69-1.52,3.5-1.52,5.09s.51,2.66,1.41,3.18c.9.52,2.13.39,3.45-.37,1.38-.79,2.68-2.16,3.65-3.86.98-1.69,1.52-3.51,1.52-5.09s-.5-2.66-1.41-3.18c-.36-.21-.77-.31-1.23-.31h0ZM17.44,30.1c-.56,0-1.08-.13-1.54-.4-1.1-.64-1.71-1.95-1.71-3.71s.57-3.61,1.6-5.4c1.03-1.79,2.41-3.24,3.88-4.08,1.52-.88,2.97-1.01,4.07-.37h0c1.11.64,1.71,1.96,1.71,3.71s-.57,3.61-1.6,5.4c-1.04,1.79-2.41,3.24-3.88,4.09-.89.51-1.75.77-2.54.77h0ZM19.83,14.04h.01-.01ZM23.26,13.3c.68,0,1.29.16,1.84.47,1.36.78,2.1,2.46,2.1,4.71,0,1.35-.27,2.8-.78,4.3-.03.09-.02.18.03.26.04.08.13.13.22.14.12.02.24.06.33.11l5.66,3.27c.37.21.57.7.57,1.36,0,.72-.24,1.55-.69,2.32-.89,1.52-2.31,2.41-3.14,1.94l-5.65-3.26c-.11-.06-.19-.14-.27-.23-.05-.07-.14-.11-.24-.12-.1,0-.17.04-.23.11-1.04,1.2-2.17,2.16-3.35,2.83-1.95,1.13-3.77,1.32-5.12.54-1.36-.78-2.1-2.45-2.1-4.71s.79-4.95,2.22-7.42c1.43-2.47,3.31-4.46,5.32-5.62h0c1.17-.67,2.28-1.01,3.28-1.01h0ZM16.39,33.15c-.78,0-1.51-.18-2.16-.56-1.55-.9-2.4-2.76-2.4-5.24s.81-5.17,2.29-7.73c1.48-2.56,3.45-4.64,5.55-5.85,2.15-1.24,4.19-1.43,5.75-.54,1.55.9,2.41,2.76,2.41,5.24,0,1.33-.24,2.73-.72,4.19.07.03.13.06.19.1l5.66,3.26c.57.33.89,1,.89,1.9,0,.83-.27,1.76-.78,2.63-.5.86-1.17,1.57-1.89,1.99-.77.45-1.52.51-2.09.18l-5.66-3.26c-.06-.04-.12-.08-.18-.12-1.03,1.14-2.13,2.05-3.28,2.72-1.26.73-2.49,1.09-3.59,1.09Z"/>
      <path class="cls-3" d="M19.83,21.66c-1.35.92-2.15,1.69-5.32,4.33,0-1.7.59-3.58,1.56-5.24.96-1.67,2.29-3.12,3.76-3.98v4.89Z"/>
      <path class="cls-2" d="M19.83,21.66h.01-.01ZM19.52,17.33c-1.21.82-2.32,2.07-3.19,3.57-.84,1.45-1.36,2.99-1.49,4.41.71-.6,1.29-1.08,1.77-1.5,1.32-1.11,2.01-1.7,2.9-2.31v-4.17h0ZM14.51,26.3s-.09-.01-.13-.03c-.11-.05-.18-.16-.18-.28,0-1.69.57-3.61,1.6-5.4,1.03-1.79,2.41-3.24,3.88-4.08.09-.05.21-.05.31,0,.09.06.15.16.15.26v4.89c0,.1-.04.2-.13.25-.93.63-1.57,1.18-2.98,2.37-.61.51-1.36,1.14-2.32,1.94-.05.05-.12.07-.19.07Z"/>
    </g>
  </g>
</svg>