<?xml version="1.0" encoding="UTF-8"?>
<svg id="Layer_2" data-name="Layer 2" xmlns="http://www.w3.org/2000/svg" viewBox="0 0 31.99 43.43" fill="currentColor">
  <defs>
    <style>
      .cls-1 {
        fill: #fff;
      }

      .cls-1, .cls-2, .cls-3, .cls-4 {
        fill-rule: evenodd;
      }

      .cls-2 {
        fill: #1a87c7;
      }

      .cls-3 {
        fill: #bdedf8;
      }

      .cls-4 {
        fill: #66ceef;
      }
    </style>
  </defs>
  <g id="_Layer_" data-name="&amp;lt;Layer&amp;gt;">
    <g>
      <path class="cls-3" d="M18.21,1.69l-2.3-1.33-.08-.02-.08-.02h-.07s-.09-.02-.09-.02h-.16s-.09.02-.09.02l-.09.02-.09.03-.09.03-.09.04-.09.04-.1.05L2.17,7.84c-.66.4-1.09,1-1.43,1.68-.27.57-.42,1.09-.43,1.73v29.06c.02.49.1.95.5,1.29l2.3,1.33c-.39-.33-.48-.8-.49-1.29V12.57c0-.63.16-1.16.42-1.73.34-.69.78-1.28,1.43-1.68L17.09,1.87l.1-.05.1-.05.09-.04.09-.03.09-.03.09-.02h.09s.09-.02.09-.02h.17s.08.02.08.02l.07.02.08.02Z"/>
      <path class="cls-2" d="M15.58.62l-.56.15-.08.04L2.33,8.1c-.54.32-.96.82-1.32,1.55-.26.58-.38,1.06-.39,1.6v29.05c.03.52.13.83.39,1.06l1.35.78c-.03-.17-.04-.34-.04-.5l-.02-29.06c.02-.64.15-1.19.46-1.86.42-.85.9-1.42,1.55-1.81L17.21,1.47l-1.63-.86h0ZM3.11,43.22c-.05,0-.11-.02-.16-.04l-2.3-1.33c-.56-.47-.63-1.07-.63-1.55l-.02-29.06c.02-.64.15-1.19.46-1.85.42-.85.9-1.42,1.55-1.82L15.38.01h.21s.31.03.31.03c0,0,.09.03.09.03l2.37,1.36c.14.08.19.25.13.39-.06.14-.22.22-.37.17l-.23-.04-.56.15-.08.04-12.61,7.29c-.54.32-.96.82-1.31,1.55-.27.58-.39,1.06-.4,1.6v29.05c.02.52.13.83.39,1.05.12.11.14.28.05.41-.06.08-.16.13-.25.13Z"/>
      <path class="cls-3" d="M4.48,42.89l12.62-7.29c1.03-.59,1.86-2.12,1.86-3.41V3.13c-.01-1.29-.84-1.85-1.87-1.26l-12.62,7.29c-1.02.59-1.86,2.12-1.86,3.41v29.06c0,1.28.84,1.85,1.87,1.26Z"/>
      <path class="cls-2" d="M17.87,1.95c-.19,0-.4.07-.63.19l-12.61,7.29c-.93.54-1.71,1.97-1.71,3.14v29.06c0,.53.17.94.46,1.1.24.14.58.1.95-.11l12.62-7.29c.93-.53,1.71-1.97,1.71-3.14l-.02-29.05c0-.54-.16-.94-.44-1.1-.1-.06-.21-.08-.33-.08h0ZM4.48,42.89h0,0ZM3.71,43.43c-.23,0-.44-.05-.64-.16-.48-.28-.75-.87-.75-1.63l-.02-29.06c0-1.38.9-3.03,2.02-3.67L16.94,1.61c.57-.33,1.12-.36,1.56-.11.49.28.75.87.75,1.63v29.05c.02,1.39-.89,3.03-2,3.68l-12.62,7.29h0c-.32.19-.63.28-.93.28Z"/>
      <path class="cls-1" d="M18.97,31.84V3.13c-.01-1.29-.84-1.85-1.87-1.26l-12.62,7.29c-1.02.59-1.86,2.12-1.86,3.41v28.7s16.35-9.44,16.35-9.44Z"/>
      <path class="cls-2" d="M17.87,1.95c-.19,0-.4.07-.63.19l-12.61,7.29c-.93.54-1.71,1.97-1.71,3.14v28.17s15.74-9.08,15.74-9.08l-.02-28.53c0-.54-.16-.94-.44-1.1-.1-.06-.21-.08-.33-.08h0ZM2.63,41.58c-.05,0-.11-.02-.16-.04-.09-.05-.15-.15-.15-.27l-.02-28.7c0-1.38.9-3.03,2.02-3.67L16.94,1.61c.57-.33,1.12-.37,1.56-.11.49.27.75.87.75,1.63v28.7c.01.11-.04.21-.14.27L2.78,41.54c-.05.03-.11.04-.16.04Z"/>
      <path class="cls-4" d="M.75,9.49v.03c-.28.57-.42,1.09-.43,1.73v29.06c.02.49.1.95.5,1.29l2.3,1.33c-.39-.33-.48-.8-.49-1.29V12.57c0-.63.15-1.16.42-1.73v-.03s-2.3-1.33-2.3-1.33Z"/>
      <path class="cls-2" d="M.9,9.92c-.18.46-.27.87-.28,1.33v29.05c.03.52.13.83.39,1.06l1.35.78c-.03-.17-.04-.34-.04-.5l-.02-29.06c.02-.57.12-1.06.36-1.63l-1.76-1.02h0ZM3.11,43.22c-.05,0-.11-.02-.16-.04l-2.3-1.33c-.56-.47-.63-1.07-.63-1.55l-.02-29.06c.02-.64.15-1.19.46-1.86.03-.08.11-.15.19-.18.08-.03.17-.03.25.01l2.3,1.33c.14.08.2.26.12.4-.28.6-.39,1.08-.41,1.63v29.05c.02.52.13.83.39,1.05.12.11.14.28.05.41-.06.08-.16.13-.25.13Z"/>
      <path class="cls-2" d="M1.51,22.3c-.17,0-.31-.14-.31-.31v-2.92c0-.17.14-.31.31-.31s.3.14.3.31v2.92c0,.17-.14.31-.3.31Z"/>
      <path class="cls-2" d="M1.51,17.46c-.17,0-.31-.14-.31-.31v-2.92c0-.17.14-.31.31-.31s.3.14.3.31v2.92c0,.17-.14.31-.3.31Z"/>
      <path class="cls-2" d="M9.93,38.72c-.11,0-.21-.06-.26-.15-.09-.15-.03-.34.11-.42l2.53-1.46c.14-.08.33-.04.42.11.09.15.03.34-.11.42l-2.53,1.46s-.1.04-.15.04Z"/>
      <path class="cls-3" d="M16.54,3.54h0c-.18.11-.33.38-.33.61h0c0,.23.15.33.33.23h0c.18-.1.34-.38.34-.61h0c0-.23-.15-.33-.34-.23Z"/>
      <path class="cls-2" d="M16.54,3.54h.01-.01ZM16.4,4.73c-.08,0-.17-.02-.23-.06-.17-.1-.26-.28-.26-.51,0-.34.21-.71.49-.87.17-.1.37-.11.53-.02.17.1.26.28.26.51,0,.34-.21.71-.49.88-.09.06-.19.08-.3.08Z"/>
      <path class="cls-2" d="M13.38,23.91c-.11,0-.21-.06-.27-.15-.09-.15-.04-.34.11-.42l2.49-1.43c.14-.08.33-.03.42.12.09.15.03.33-.11.42l-2.48,1.43c-.05.03-.11.04-.16.04Z"/>
      <path class="cls-2" d="M13.38,28.81c-.11,0-.21-.06-.27-.15-.09-.15-.04-.34.11-.42l2.49-1.43c.14-.08.33-.03.42.11.09.15.03.34-.11.42l-2.48,1.42c-.05.03-.11.04-.16.04Z"/>
      <path class="cls-2" d="M4.73,11.82c-.11,0-.22-.06-.27-.16-.09-.15-.03-.34.11-.42l.73-.42c.14-.09.33-.03.42.11.09.15.03.34-.11.42l-.73.42s-.1.04-.15.04Z"/>
      <path class="cls-2" d="M6.18,10.99c-.11,0-.21-.06-.26-.15-.09-.15-.03-.34.11-.42l.73-.42c.14-.08.33-.03.42.12.09.15.03.34-.11.42l-.73.42c-.05.03-.11.04-.15.04Z"/>
      <path class="cls-2" d="M7.64,10.15c-.11,0-.21-.06-.27-.15-.08-.15-.03-.34.12-.42l.73-.42c.15-.08.34-.03.43.12.08.15.03.34-.11.42l-.73.42c-.05.03-.11.04-.16.04Z"/>
      <path class="cls-2" d="M5.4,27.54c-.11,0-.21-.06-.27-.15-.08-.15-.02-.34.12-.42l1.24-.71c.15-.08.33-.03.42.11.09.15.04.34-.11.42l-1.24.71c-.05.03-.1.04-.16.04Z"/>
      <path class="cls-2" d="M5.4,32.45c-.11,0-.21-.06-.27-.16-.08-.15-.02-.33.12-.42l1.24-.71c.15-.08.33-.03.42.12.09.15.04.34-.11.42l-1.24.71c-.05.03-.1.04-.16.04Z"/>
      <path class="cls-2" d="M5.4,17.73c-.11,0-.21-.06-.27-.15-.08-.15-.02-.34.11-.42l1.24-.71c.15-.08.34-.03.42.11.09.15.04.34-.11.42l-1.24.71c-.05.03-.1.04-.16.04Z"/>
      <path class="cls-2" d="M5.4,22.64c-.11,0-.21-.06-.27-.15-.08-.15-.02-.33.12-.42l1.24-.71c.15-.08.33-.03.42.12.09.15.04.33-.11.42l-1.24.71c-.05.03-.1.04-.16.04Z"/>
      <path class="cls-2" d="M13.38,14.1c-.11,0-.21-.06-.27-.15-.09-.15-.04-.34.11-.42l2.49-1.43c.14-.08.33-.04.42.11.09.15.03.34-.11.42l-2.48,1.43c-.05.03-.11.04-.16.04Z"/>
      <path class="cls-2" d="M13.38,19.01c-.11,0-.21-.06-.27-.16-.09-.15-.04-.34.11-.42l2.49-1.43c.14-.09.33-.03.42.11.09.15.03.33-.11.42l-2.48,1.42c-.05.03-.11.04-.16.04Z"/>
      <polygon class="cls-1" points="16.48 11.03 8.18 15.83 8.18 19.17 16.48 14.37 16.48 11.03"/>
      <path class="cls-2" d="M8.48,16.01v2.63l7.69-4.44v-2.63l-7.69,4.44h0ZM8.18,19.47c-.05,0-.1-.01-.16-.04-.09-.05-.16-.16-.16-.26v-3.34c0-.11.06-.21.16-.27l8.31-4.8c.1-.05.21-.05.31,0,.09.06.15.16.15.27v3.34c0,.11-.06.21-.15.26l-8.3,4.79c-.05.03-.1.04-.16.04Z"/>
      <polygon class="cls-1" points="16.48 15.94 8.18 20.73 8.18 24.07 16.48 19.27 16.48 15.94"/>
      <path class="cls-2" d="M8.48,20.91v2.63l7.69-4.44v-2.63l-7.69,4.44h0ZM8.18,24.38c-.05,0-.1-.02-.16-.04-.09-.06-.16-.16-.16-.27v-3.34c0-.11.06-.21.16-.27l8.31-4.79c.1-.05.21-.05.31,0,.09.05.15.16.15.26v3.34c0,.11-.06.21-.15.27l-8.3,4.8c-.05.03-.1.04-.16.04Z"/>
      <polygon class="cls-1" points="16.48 20.84 8.18 25.64 8.18 28.98 16.48 24.18 16.48 20.84"/>
      <path class="cls-2" d="M8.48,25.82v2.63l7.69-4.44v-2.63l-7.69,4.44h0ZM8.18,29.28c-.05,0-.1-.01-.16-.04-.09-.05-.16-.15-.16-.26v-3.34c0-.11.06-.21.16-.27l8.31-4.79c.1-.06.21-.06.31,0,.09.05.15.16.15.27v3.34c0,.11-.06.21-.15.27l-8.3,4.79c-.05.03-.1.04-.16.04Z"/>
      <polygon class="cls-1" points="16.48 25.75 8.18 30.54 8.18 33.88 16.48 29.09 16.48 25.75"/>
      <path class="cls-2" d="M8.48,30.72v2.63l7.69-4.44v-2.63l-7.69,4.44h0ZM8.18,34.19c-.05,0-.1-.02-.16-.04-.09-.06-.16-.16-.16-.27v-3.34c0-.11.06-.21.16-.27l8.31-4.79c.1-.06.21-.06.31,0,.09.06.15.16.15.26v3.34c0,.11-.06.21-.15.27l-8.3,4.8c-.05.03-.1.04-.16.04Z"/>
      <path class="cls-3" d="M15.42,27.86l-1.27-.73v-12.31c.03-.81.53-1.68,1.22-2.11,4.89-2.81,9.76-5.63,14.64-8.44l.47-.27c.26-.14.53-.23.82-.1l-2.51-1.45c-.3-.12-.56-.04-.81.1l-.48.27c-4.88,2.81-9.75,5.62-14.63,8.44-.7.42-1.2,1.3-1.22,2.1v12.38c0,.3.06.57.31.76l.85.49v.04c-.21,1.35-.19,2.61-.17,3.98l2.51,1.45c-.02-1.6-.03-3.01.28-4.6Z"/>
      <path class="cls-2" d="M12.93,30.83l1.89,1.1c-.01-1.24,0-2.52.25-3.9l-1.09-.63c-.09-.06-.15-.16-.15-.27v-12.31c.03-.92.58-1.89,1.36-2.37L30.32,3.73s.03-.02.04-.02l-1.74-1c-.12-.05-.28-.02-.51.11l-15.1,8.71c-.6.36-1.05,1.14-1.06,1.84v12.37c0,.27.05.41.18.51l.82.47c.11.07.18.19.15.32-.19,1.31-.19,2.52-.17,3.78h0ZM15.14,32.77c-.05,0-.1-.01-.16-.04l-2.51-1.45c-.09-.05-.15-.15-.15-.26,0-1.3-.03-2.53.15-3.85l-.68-.39c-.41-.31-.46-.73-.47-1.02v-12.39c.03-.92.59-1.89,1.37-2.37L27.81,2.28c.26-.14.65-.31,1.08-.12l2.56,1.47c.14.08.19.26.12.41-.08.14-.25.21-.4.14-.16-.07-.31-.04-.55.09l-15.1,8.71c-.6.36-1.04,1.14-1.06,1.84v12.13l1.11.65c.11.07.17.19.15.32-.3,1.6-.29,3.03-.28,4.54,0,.11-.05.21-.15.27-.05.03-.1.04-.16.04Z"/>
      <path class="cls-1" d="M15.42,27.86h0l-.86.14-2.18-1.26.43.25v.04c-.21,1.35-.19,2.61-.17,3.98l2.51,1.45c-.02-1.6-.03-3.01.28-4.6Z"/>
      <path class="cls-2" d="M12.93,30.83l1.89,1.1c-.01-1.17,0-2.39.21-3.69l-.44.07c-.07.01-.14,0-.2-.04l-1.35-.78c-.13,1.14-.13,2.22-.11,3.34h0ZM15.14,32.77c-.05,0-.1-.01-.16-.04l-2.51-1.45c-.09-.05-.15-.15-.15-.26,0-1.3-.03-2.53.15-3.85l-.25-.14c-.15-.09-.19-.27-.11-.42.09-.15.28-.2.43-.11l2.08,1.2.76-.13c.09-.02.2.02.27.09.07.07.1.18.08.27-.3,1.6-.29,3.03-.28,4.54,0,.11-.05.21-.15.27-.05.03-.1.04-.16.04Z"/>
      <path class="cls-4" d="M14.56,13.53l-2.51-1.45c-.24.38-.4.82-.41,1.28v12.38c0,.3.06.57.31.76l.85.49c-.21,1.32-.19,2.68-.17,4.01l2.51,1.45c-.02-1.61-.03-3.01.28-4.6l-1.27-.73v-12.31c.02-.44.17-.91.41-1.28Z"/>
      <path class="cls-2" d="M12.93,30.83l1.89,1.1c-.01-1.28,0-2.52.25-3.9l-1.09-.63c-.09-.06-.15-.16-.15-.27v-12.31c0-.39.11-.8.3-1.16l-1.98-1.14c-.13.28-.21.58-.21.86v12.37c0,.27.05.41.18.51l.82.47c.11.07.18.19.15.31-.19,1.24-.19,2.53-.17,3.79h0ZM15.14,32.77c-.05,0-.1-.01-.16-.04l-2.51-1.45c-.09-.05-.15-.15-.15-.26,0-1.27-.03-2.58.15-3.85l-.68-.39c-.41-.31-.46-.73-.47-1.02v-12.39c.02-.48.17-.98.46-1.44.09-.14.27-.19.41-.11l2.52,1.45c.07.04.12.11.15.2.02.08,0,.17-.04.24-.22.33-.35.75-.36,1.12v12.13l1.11.65c.11.07.17.19.15.32-.3,1.6-.29,3.03-.28,4.54,0,.11-.05.21-.15.27-.05.03-.1.04-.16.04Z"/>
      <path class="cls-1" d="M31.68,17.2c0-3.05.01-9.45.01-12.5,0-.77-.55-1.09-1.22-.7-5.03,2.9-10.07,5.81-15.11,8.71-.67.39-1.21,1.33-1.21,2.11v12.38c0,.77.54,1.09,1.21.7l.05-.03c-.33,1.7-.29,3.08-.28,4.6.49-.84.98-1.67,1.45-2.5,3.06-5.35,9.08-8.04,13.85-10.63.34-.18.63-.49.88-.9.24-.42.36-.83.36-1.22Z"/>
      <path class="cls-2" d="M15.4,27.58c.06,0,.12.01.18.05.1.07.17.18.15.29-.24,1.24-.29,2.33-.29,3.42.3-.51.6-1.02.89-1.54,2.75-4.79,7.78-7.46,12.22-9.82.59-.32,1.18-.62,1.75-.93.28-.16.55-.42.75-.79.22-.37.33-.72.33-1.06V4.7c0-.25-.07-.44-.2-.52-.13-.07-.33-.04-.55.08l-15.11,8.71c-.57.33-1.06,1.17-1.06,1.84v12.38c0,.26.07.45.2.52.13.08.32.04.55-.08.05-.03.12-.05.19-.05h0ZM15.14,32.77s-.05,0-.08-.01c-.14-.04-.23-.16-.23-.3v-.27c-.02-1.26-.04-2.46.19-3.85-.26.05-.48.01-.68-.1-.32-.19-.5-.57-.5-1.05v-12.38c0-.89.6-1.93,1.37-2.37L30.32,3.73c.42-.24.84-.27,1.17-.09.32.19.51.57.51,1.05v12.5c0,.45-.14.91-.42,1.38-.27.46-.61.8-.99,1.02-.57.31-1.16.62-1.76.94-4.36,2.32-9.32,4.94-11.97,9.58-.48.84-.96,1.67-1.45,2.51-.06.09-.17.15-.27.15Z"/>
      <path class="cls-2" d="M17.09,16.13c-.1,0-.21-.06-.26-.16-.09-.15-.04-.33.11-.42l10.2-5.88c.15-.09.34-.03.43.11.08.15.03.34-.11.42l-10.21,5.88c-.05.03-.11.04-.16.04Z"/>
      <path class="cls-2" d="M17.09,19.23c-.1,0-.21-.06-.26-.16-.09-.15-.04-.33.11-.42l11.66-6.73c.15-.09.34-.04.42.11.09.15.03.33-.11.42l-11.66,6.73c-.05.03-.11.04-.16.04Z"/>
      <path class="cls-2" d="M17.09,22.52c-.1,0-.21-.06-.27-.16-.08-.15-.03-.34.11-.42l7.51-4.33c.15-.08.34-.04.42.11.08.15.04.33-.11.42l-7.51,4.33c-.05.03-.11.04-.16.04Z"/>
    </g>
  </g>
</svg>