<?xml version="1.0" encoding="UTF-8"?>
<svg id="Layer_2" data-name="Layer 2" xmlns="http://www.w3.org/2000/svg" viewBox="0 0 41.88 37.71" fill="currentColor">
  <defs>
    <style>
      .cls-1 {
        fill: #fff;
      }

      .cls-1, .cls-2, .cls-3, .cls-4 {
        fill-rule: evenodd;
      }

      .cls-2 {
        fill: #1a87c7;
      }

      .cls-3 {
        fill: #bdedf8;
      }

      .cls-4 {
        fill: #66ceef;
      }
    </style>
  </defs>
  <g id="_Layer_" data-name="&amp;lt;Layer&amp;gt;">
    <g>
      <path class="cls-4" d="M41.5,24.22v1.15c0,.11-.12.27-.2.36-.09.08-.17.14-.26.2l-19.35,11.16c-.66.38-1.7.38-2.4,0L1.42,26.75c-.2-.12-.4-.28-.46-.51l-.03-.05v-1.15c.09.26.26.42.49.55l17.88,10.34c.69.38,1.73.38,2.4,0l19.35-11.17c.23-.14.4-.29.46-.55Z"/>
      <path class="cls-2" d="M1.27,26.14c.06.13.14.23.32.32l17.88,10.34c.58.32,1.47.33,2.05,0l19.35-11.17c.09-.05.14-.1.2-.14.03-.05.09-.14.12-.17v-.23l-19.32,11.15c-.78.44-1.96.44-2.74,0L1.27,25.92v.22h0ZM20.51,37.71c-.49,0-.98-.11-1.39-.33L1.24,27.04c-.32-.18-.52-.42-.61-.69-.03-.03-.06-.12-.06-.15v-1.15c0-.17.14-.31.32-.34.17-.02.32.08.38.24.03.14.12.24.32.35l17.88,10.34c.58.32,1.47.33,2.05,0l19.35-11.17c.2-.11.29-.21.32-.35.06-.16.23-.27.38-.24.17.02.29.17.29.33v1.15c-.03.32-.29.57-.32.6-.09.09-.2.17-.32.24l-19.35,11.17c-.38.22-.87.33-1.36.33Z"/>
      <path class="cls-3" d="M1.42,24.22l19.32-11.17c.66-.38,1.76-.38,2.4,0l17.91,10.34c.66.38.66,1.01,0,1.38l-19.35,11.17c-.66.38-1.73.38-2.4,0L1.42,25.6c-.66-.38-.66-1.01,0-1.38Z"/>
      <path class="cls-2" d="M1.59,24.51c-.2.12-.35.27-.35.4s.14.28.35.4l17.88,10.34c.55.32,1.5.32,2.05,0l19.35-11.17c.2-.12.32-.26.32-.4s-.12-.28-.32-.4l-17.91-10.34c-.55-.32-1.47-.32-2.05,0L1.59,24.51h0ZM20.51,36.57c-.49,0-.98-.11-1.39-.33L1.24,25.9c-.43-.25-.66-.6-.66-.99s.23-.75.66-.99h0l19.35-11.17c.75-.44,1.96-.44,2.72,0l17.91,10.34c.4.24.66.6.66.99s-.26.75-.66.99l-19.35,11.17c-.38.22-.87.33-1.36.33Z"/>
      <path class="cls-1" d="M18.11,31.88v.87c.43,2.03,5.46,2.07,5.89,0v-.87c-.43,2.05-5.37,2-5.86.08l-.03-.08Z"/>
      <path class="cls-2" d="M18.66,33.15c.46.53,1.5.79,2.43.79h0c.87,0,1.85-.24,2.34-.77-.64.39-1.5.56-2.22.57-.9,0-1.88-.17-2.54-.6h0ZM21.08,34.62c-1.44,0-3.03-.56-3.29-1.8v-.94c0-.17.12-.32.29-.34.17-.01.35.1.38.27l.03.08c.17.8,1.5,1.19,2.69,1.18,1.13-.02,2.34-.42,2.51-1.26.03-.17.17-.29.35-.27.17.02.32.16.32.34v.87c-.26,1.32-1.82,1.88-3.26,1.88h0Z"/>
      <path class="cls-1" d="M23.16,30.5c-1.15-.67-3.03-.67-4.19,0-1.16.67-1.16,1.75,0,2.41,1.15.67,3.03.67,4.19,0,1.15-.67,1.15-1.75,0-2.41Z"/>
      <path class="cls-2" d="M21.05,30.35c-.69,0-1.39.15-1.91.45-.46.26-.69.58-.69.91s.23.65.69.91c1.04.6,2.8.6,3.84,0,.43-.26.69-.58.69-.91s-.26-.66-.69-.92c-.52-.3-1.21-.45-1.94-.45h0ZM21.05,33.76c-.81,0-1.62-.18-2.25-.55-.66-.39-1.04-.92-1.04-1.5s.38-1.11,1.04-1.5c1.27-.73,3.26-.73,4.51,0h0c.69.39,1.07.92,1.07,1.51s-.38,1.11-1.04,1.5c-.64.37-1.47.55-2.28.55Z"/>
      <path class="cls-1" d="M23.13,21.35v10.11l-.03.06c-.32,1.36-3.78,1.36-4.13,0v-10.17s0,.07.03.12c.03.14.14.28.23.38.29.26.66.42,1.04.51.66.16,1.53.11,2.17-.22.2-.1.4-.25.55-.44.06-.08.09-.18.12-.28l.03-.06Z"/>
      <path class="cls-2" d="M19.32,22.33v9.14c.09.42.84.74,1.73.74h0c.9,0,1.62-.32,1.73-.77v-9.11c-.06.04-.12.08-.17.1-.66.35-1.62.45-2.43.25-.2-.05-.55-.15-.87-.36h0ZM21.05,32.88h0c-.95,0-2.17-.34-2.4-1.28,0-.03-.03-.11-.03-.14v-10.11c0-.18.14-.32.29-.34.2-.02.35.1.38.27.06.16.12.25.2.32.17.18.49.33.84.42.66.16,1.44.08,1.96-.19.17-.1.32-.22.4-.34.06-.05.06-.11.09-.16.03-.17.2-.31.38-.29s.32.14.32.31v10.11s-.03.1-.03.13c-.23.96-1.44,1.29-2.4,1.29Z"/>
      <path class="cls-2" d="M22.12,31.55c-.2,0-.35-.15-.35-.34v-7.81c0-.19.15-.34.35-.34.17,0,.35.15.35.34v7.81c0,.19-.17.34-.35.34Z"/>
      <path class="cls-2" d="M21.05,31.84c-.17,0-.32-.15-.32-.34v-7.6c0-.19.14-.34.32-.34.2,0,.35.15.35.34v7.6c0,.19-.14.34-.35.34Z"/>
      <path class="cls-2" d="M20.02,31.61c-.2,0-.35-.15-.35-.34v-6.66c0-.19.14-.34.35-.34.17,0,.35.15.35.34v6.66c0,.19-.17.34-.35.34Z"/>
      <path class="cls-1" d="M31.91,23.62v.87c.41,2.02,5.46,2.07,5.86,0v-.87c-.41,2.05-5.37,2-5.86.08v-.08Z"/>
      <path class="cls-2" d="M32.46,24.89c.43.53,1.47.79,2.4.79s1.88-.24,2.34-.77c-.64.39-1.47.56-2.22.57-.9.01-1.85-.17-2.51-.6h0ZM34.86,26.36c-1.44,0-3.03-.56-3.29-1.8v-.94c0-.18.12-.32.29-.34.2-.02.35.1.38.27l.03.08c.2.8,1.5,1.19,2.69,1.18,1.13-.02,2.34-.42,2.51-1.26.03-.17.17-.28.38-.27.17.02.29.16.29.34v.87c-.26,1.32-1.82,1.87-3.26,1.87Z"/>
      <path class="cls-1" d="M36.94,22.25c-1.16-.67-3.03-.67-4.19,0-1.16.67-1.16,1.75,0,2.41,1.16.67,3.03.67,4.19,0,1.16-.66,1.16-1.75,0-2.41Z"/>
      <path class="cls-2" d="M34.86,22.09c-.72,0-1.42.15-1.94.45-.43.26-.69.58-.69.91s.26.65.69.91c1.04.6,2.8.6,3.84,0,.43-.26.69-.58.69-.91s-.26-.66-.69-.91c-.52-.3-1.21-.45-1.91-.45h0ZM34.86,25.51c-.84,0-1.65-.18-2.28-.55-.66-.38-1.04-.92-1.04-1.5s.38-1.12,1.04-1.5c1.27-.73,3.26-.73,4.53,0,.66.38,1.04.92,1.04,1.5s-.37,1.12-1.04,1.5c-.64.37-1.44.55-2.25.55Z"/>
      <path class="cls-1" d="M36.91,13.09v10.17c-.35,1.36-3.81,1.36-4.13,0l-.03-.06v-10.11s.03.07.03.12c.06.14.14.28.26.38.26.26.66.42,1.01.51.69.16,1.56.11,2.19-.22.2-.11.4-.25.52-.45.06-.08.11-.18.14-.28v-.06Z"/>
      <path class="cls-2" d="M33.1,14.06v9.14c.12.42.84.74,1.73.74h0c.9,0,1.65-.32,1.73-.76v-9.12c-.06.04-.12.08-.17.11-.66.35-1.59.45-2.43.25-.2-.05-.55-.16-.87-.36h0ZM34.83,24.62h0c-.95,0-2.17-.33-2.4-1.28,0-.03-.03-.11-.03-.14v-10.11c0-.17.14-.32.32-.34.17-.02.32.1.35.27.06.16.12.24.2.32.17.18.49.33.87.42.66.16,1.42.08,1.94-.19.2-.1.35-.22.43-.34.03-.05.06-.12.06-.17.06-.17.23-.31.38-.28.17.02.32.14.32.31v10.11s-.03.11-.03.13c-.23.96-1.44,1.29-2.4,1.29Z"/>
      <path class="cls-2" d="M35.9,23.29c-.17,0-.35-.15-.35-.34v-7.81c0-.19.17-.34.35-.34.2,0,.35.15.35.34v7.81c0,.19-.14.34-.35.34Z"/>
      <path class="cls-2" d="M34.86,23.59c-.2,0-.35-.15-.35-.34v-7.6c0-.19.14-.34.35-.34.17,0,.32.15.32.34v7.6c0,.19-.14.34-.32.34Z"/>
      <path class="cls-2" d="M33.79,23.35c-.17,0-.35-.15-.35-.34v-6.66c0-.19.17-.34.35-.34.2,0,.35.15.35.34v6.66c0,.19-.14.34-.35.34Z"/>
      <path class="cls-1" d="M25.16,19.74v.87c.43,2.02,5.49,2.07,5.89,0v-.87c-.4,2.05-5.37,2-5.86.08l-.03-.08Z"/>
      <path class="cls-2" d="M25.7,21.01c.46.53,1.5.79,2.43.79.87,0,1.88-.24,2.34-.77-.64.39-1.5.56-2.22.57-.89.03-1.85-.17-2.54-.6h0ZM28.13,22.48c-1.44,0-3.03-.56-3.29-1.81v-.94c0-.17.12-.32.29-.34.17-.02.35.1.38.27l.03.08c.17.78,1.41,1.18,2.6,1.18.03,0,.06,0,.09,0,1.13-.02,2.34-.42,2.51-1.26.03-.17.2-.29.35-.27.17.02.32.16.32.34v.87c-.26,1.31-1.82,1.87-3.26,1.87Z"/>
      <path class="cls-1" d="M30.21,18.37c-1.16-.67-3.03-.67-4.19,0-1.16.67-1.16,1.75,0,2.41,1.15.67,3.03.67,4.19,0,1.15-.66,1.15-1.75,0-2.41Z"/>
      <path class="cls-2" d="M28.1,18.22c-.69,0-1.39.15-1.91.45-.46.26-.69.58-.69.92s.23.65.69.91c1.04.6,2.8.6,3.84,0,.46-.26.69-.58.69-.91s-.23-.66-.69-.92h0c-.52-.3-1.21-.45-1.94-.45h0ZM28.1,21.63c-.81,0-1.62-.18-2.25-.55-.66-.38-1.04-.92-1.04-1.5s.38-1.12,1.04-1.5c1.27-.73,3.26-.73,4.53,0h0c.66.38,1.01.92,1.01,1.5s-.35,1.11-1.01,1.5c-.64.37-1.44.55-2.28.55Z"/>
      <path class="cls-1" d="M11.24,19.63v.87c.4,2.02,5.46,2.06,5.89,0v-.87c-.43,2.05-5.4,2-5.89.08v-.08Z"/>
      <path class="cls-2" d="M11.78,20.9c.46.51,1.47.78,2.43.78h0c.87,0,1.85-.24,2.31-.77-.64.39-1.47.56-2.22.57-.9.02-1.82-.17-2.51-.59h0ZM14.21,22.37c-1.47,0-3.06-.56-3.32-1.8v-.94c0-.17.14-.32.32-.34.17-.03.32.1.35.27l.03.08c.2.8,1.5,1.22,2.72,1.18,1.13-.02,2.31-.42,2.48-1.26.03-.17.17-.29.38-.27.17.02.29.16.29.34v.87c-.26,1.31-1.82,1.87-3.23,1.87h0Z"/>
      <path class="cls-1" d="M16.26,18.25c-1.16-.67-3.03-.67-4.16,0-1.18.67-1.18,1.75-.03,2.41,1.16.67,3.03.67,4.19,0,1.16-.66,1.16-1.75,0-2.41Z"/>
      <path class="cls-2" d="M14.18,18.1c-.69,0-1.42.15-1.94.45-.43.26-.69.58-.69.91s.26.66.69.91c1.04.6,2.8.6,3.84,0,.46-.26.72-.59.72-.91s-.26-.65-.72-.91h0c-.52-.3-1.21-.45-1.91-.45h0ZM14.18,21.51c-.81,0-1.62-.18-2.25-.55-.69-.39-1.04-.92-1.04-1.5s.35-1.12,1.04-1.5c1.24-.73,3.23-.73,4.51,0h0c.66.39,1.04.92,1.04,1.5s-.38,1.11-1.04,1.5c-.64.37-1.44.55-2.25.55Z"/>
      <path class="cls-1" d="M11.35,27.67v.87c.43,2.02,5.46,2.06,5.89,0v-.87c-.43,2.05-5.37,2.01-5.86.08l-.03-.08Z"/>
      <path class="cls-2" d="M11.9,28.95c.46.53,1.5.79,2.43.79.87,0,1.88-.24,2.34-.77-.64.39-1.5.56-2.22.57-.92.02-1.85-.17-2.54-.6h0ZM14.33,30.42c-1.47,0-3.03-.56-3.29-1.81l-.03-.94c0-.17.14-.32.32-.34.2-.02.35.1.38.27v.08c.2.8,1.56,1.21,2.71,1.18,1.13-.02,2.34-.42,2.51-1.26.03-.17.17-.28.35-.27.17.02.32.16.32.34v.87c-.26,1.31-1.82,1.87-3.26,1.87Z"/>
      <path class="cls-1" d="M16.41,26.3c-1.16-.67-3.03-.67-4.19,0-1.16.67-1.16,1.75,0,2.42,1.16.66,3.03.66,4.19,0,1.15-.67,1.15-1.75,0-2.42Z"/>
      <path class="cls-2" d="M14.3,26.15c-.69,0-1.39.15-1.91.45-.46.26-.69.58-.69.92s.23.65.69.91c1.04.6,2.8.6,3.84,0,.43-.26.69-.58.69-.91s-.26-.66-.69-.92c-.52-.3-1.24-.45-1.93-.45h0ZM14.3,29.56c-.81,0-1.62-.18-2.25-.55-.66-.38-1.04-.92-1.04-1.5s.38-1.12,1.04-1.5c1.27-.73,3.26-.73,4.53,0,.66.38,1.01.92,1.01,1.5s-.35,1.11-1.01,1.5c-.64.37-1.47.55-2.28.55Z"/>
      <path class="cls-1" d="M16.38,17.15v10.17c-.35,1.36-3.81,1.36-4.16,0v-10.17s0,.08.03.12c.06.14.14.27.26.38.26.26.64.42,1.01.5.66.16,1.53.11,2.17-.22.2-.1.4-.25.55-.44.06-.08.12-.19.15-.28v-.06Z"/>
      <path class="cls-2" d="M12.56,18.12v9.14c.09.42.84.74,1.73.74h0c.89,0,1.62-.32,1.73-.76v-9.11c-.06.04-.11.07-.17.11-.69.35-1.59.44-2.43.25-.2-.05-.58-.16-.87-.36h0ZM14.3,28.68h0c-.95,0-2.17-.33-2.4-1.28,0-.03-.03-.11-.03-.14v-10.11c0-.18.14-.32.32-.34.17-.02.32.1.35.27.06.16.12.25.2.32.17.18.49.33.84.42.66.15,1.44.08,1.96-.19.17-.1.32-.21.4-.33.06-.06.09-.12.09-.17.03-.17.2-.31.38-.29.17.02.29.14.29.31v10.24c-.23.96-1.44,1.29-2.4,1.29Z"/>
      <path class="cls-2" d="M15.37,27.35c-.2,0-.35-.15-.35-.34v-7.81c0-.19.14-.34.35-.34.17,0,.35.15.35.34v7.81c0,.19-.17.34-.35.34Z"/>
      <path class="cls-2" d="M14.3,27.64c-.17,0-.32-.15-.32-.34v-7.59c0-.19.14-.34.32-.34.2,0,.35.15.35.34v7.59c0,.19-.15.34-.35.34Z"/>
      <path class="cls-2" d="M13.26,27.41c-.2,0-.35-.15-.35-.34v-6.66c0-.19.14-.34.35-.34.17,0,.35.15.35.34v6.66c0,.18-.17.34-.35.34Z"/>
      <path class="cls-1" d="M4.39,23.76v.87c.43,2.02,5.46,2.06,5.89,0v-.87c-.43,2.05-5.4,2-5.86.08l-.03-.08Z"/>
      <path class="cls-2" d="M4.94,25.03c.46.53,1.5.79,2.43.79.87,0,1.85-.24,2.34-.77-.64.39-1.5.56-2.22.57-.9.02-1.88-.17-2.54-.6h0ZM7.36,26.5c-1.44,0-3.03-.56-3.29-1.81v-.94c0-.17.12-.32.29-.34.2-.02.32.1.38.27v.08c.2.8,1.5,1.2,2.71,1.18,1.13-.02,2.34-.42,2.51-1.26.03-.17.17-.29.35-.27.17.02.32.16.32.34v.87c-.26,1.31-1.85,1.87-3.26,1.87Z"/>
      <path class="cls-1" d="M9.44,22.39c-1.15-.67-3.03-.67-4.19,0-1.15.67-1.15,1.75,0,2.41,1.16.67,3.03.67,4.19,0,1.16-.67,1.16-1.75,0-2.41Z"/>
      <path class="cls-2" d="M7.34,22.23c-.69,0-1.39.15-1.91.45-.46.26-.72.58-.72.91s.26.66.72.92c1.04.6,2.8.6,3.84,0,.43-.26.69-.59.69-.92s-.26-.65-.69-.91c-.52-.3-1.21-.45-1.94-.45h0ZM7.34,25.65c-.81,0-1.62-.18-2.25-.55-.66-.39-1.04-.92-1.04-1.5s.38-1.12,1.04-1.5c1.27-.73,3.26-.73,4.51,0,.69.38,1.04.92,1.04,1.5s-.35,1.12-1.04,1.5c-.64.37-1.44.55-2.25.55Z"/>
      <path class="cls-1" d="M9.41,13.23v10.12l-.03.06c-.32,1.36-3.78,1.36-4.13,0v-10.17s0,.07.03.12c.03.14.15.27.23.38.29.26.66.42,1.04.51.66.16,1.53.11,2.17-.22.2-.11.4-.25.55-.44.06-.08.09-.18.12-.28l.03-.06Z"/>
      <path class="cls-2" d="M5.6,14.21v9.14c.09.42.84.74,1.73.74h0c.9,0,1.62-.32,1.73-.77v-9.11c-.06.04-.12.08-.17.11-.66.35-1.62.45-2.43.25-.2-.05-.55-.16-.87-.36h0ZM7.34,24.77h0c-.95,0-2.17-.33-2.4-1.28-.03-.03-.03-.11-.03-.14v-10.12c0-.18.12-.32.29-.34.2-.03.35.1.37.27.06.16.12.25.2.32.17.18.49.33.84.42.66.16,1.44.08,1.96-.19.17-.1.32-.22.4-.34.03-.05.06-.12.09-.17.03-.16.17-.3.37-.28.17.02.32.14.32.31v10.12s-.03.1-.03.12c-.23.96-1.44,1.3-2.4,1.3Z"/>
      <path class="cls-2" d="M8.4,23.43c-.2,0-.35-.15-.35-.34v-7.81c0-.19.14-.34.35-.34.17,0,.32.15.32.34v7.81c0,.19-.14.34-.32.34Z"/>
      <path class="cls-2" d="M7.34,23.73c-.17,0-.35-.15-.35-.34v-7.59c0-.19.17-.34.35-.34.2,0,.35.15.35.34v7.59c0,.19-.14.34-.35.34Z"/>
      <path class="cls-2" d="M6.3,23.5c-.2,0-.35-.15-.35-.34v-6.66c0-.19.14-.34.35-.34.17,0,.35.15.35.34v6.66c0,.19-.17.34-.35.34Z"/>
      <path class="cls-1" d="M24.95,27.66v.87c.43,2.02,5.46,2.07,5.89,0v-.87c-.43,2.05-5.4,2-5.86.08l-.03-.08Z"/>
      <path class="cls-2" d="M25.5,28.93c.46.53,1.47.79,2.43.79h0c.87,0,1.85-.25,2.34-.77-.64.39-1.5.56-2.22.57-.9.02-1.88-.17-2.54-.6h0ZM27.93,30.4c-1.47,0-3.03-.56-3.29-1.81l-.03-.94c0-.17.14-.32.32-.33.17-.02.32.1.35.27l.03.08c.2.8,1.53,1.19,2.71,1.18,1.13-.02,2.34-.42,2.51-1.26.03-.17.17-.28.35-.27.17.02.32.16.32.34v.87c-.29,1.31-1.85,1.87-3.26,1.87h0Z"/>
      <path class="cls-1" d="M29.98,26.29c-1.16-.66-3.03-.66-4.16,0-1.16.67-1.16,1.75,0,2.41,1.13.67,3,.67,4.16,0,1.16-.67,1.16-1.75,0-2.41Z"/>
      <path class="cls-2" d="M27.9,26.13c-.69,0-1.39.15-1.91.45-.46.26-.72.59-.72.92s.26.65.69.91c1.04.6,2.83.6,3.87,0,.43-.26.69-.58.69-.91s-.26-.66-.69-.92h0c-.55-.3-1.24-.45-1.93-.45h0ZM27.9,29.55c-.81,0-1.62-.18-2.25-.55-.69-.38-1.04-.92-1.04-1.5s.35-1.12,1.04-1.5c1.27-.73,3.23-.73,4.5,0h0c.69.38,1.04.92,1.04,1.5s-.35,1.11-1.04,1.5c-.63.37-1.44.55-2.25.55Z"/>
      <path class="cls-1" d="M29.98,17.13v10.11l-.03.06c-.35,1.36-3.78,1.36-4.13,0v-10.17s0,.08.03.12c.03.14.14.28.23.38.29.26.66.42,1.01.5.69.16,1.56.11,2.19-.22.2-.11.4-.26.55-.44.06-.08.09-.18.12-.28l.03-.06Z"/>
      <path class="cls-2" d="M26.14,18.11v9.14c.12.42.84.74,1.76.74h0c.89,0,1.62-.32,1.73-.76v-9.11c-.06.04-.15.08-.2.11-.66.35-1.59.44-2.4.25-.23-.05-.58-.15-.9-.36h0ZM27.9,28.66h0c-.98,0-2.17-.33-2.4-1.28-.03-.03-.03-.11-.03-.14v-10.11c0-.17.12-.32.29-.33.2-.03.35.1.37.27.06.16.12.24.2.32.17.18.49.33.84.42.66.16,1.44.08,1.93-.19.2-.09.35-.21.43-.33.03-.05.06-.12.09-.17.03-.17.2-.3.38-.28.17.02.29.14.29.31v10.24c-.26.95-1.44,1.29-2.4,1.29Z"/>
      <path class="cls-2" d="M28.94,27.33c-.17,0-.32-.15-.32-.34v-7.81c0-.18.14-.34.32-.34.2,0,.35.15.35.34v7.81c0,.19-.14.34-.35.34Z"/>
      <path class="cls-2" d="M27.9,27.63c-.17,0-.35-.15-.35-.34v-7.6c0-.19.17-.34.35-.34.2,0,.35.15.35.34v7.6c0,.19-.14.34-.35.34Z"/>
      <path class="cls-2" d="M26.86,27.39c-.2,0-.35-.15-.35-.34v-6.66c0-.19.14-.34.35-.34.17,0,.32.15.32.34v6.66c0,.19-.14.34-.32.34Z"/>
      <path class="cls-3" d="M40.2,11.45L21.05.4c-.09-.06-.12-.06-.23-.06l-9.7.7c-.12.02-.17.04-.29.1-.12.08-.2.14-.29.24L.75,12.14c-.26.31-.4.57-.4.98l-.03.49c.03.07.03.1.09.15l19.12,11.05c-.06-.05-.06-.08-.06-.15v-.49c.03-.41.17-.67.43-.98l9.76-10.76c.14-.13.23-.2.38-.29.09-.03.14-.05.23-.06l9.7-.7c.12,0,.14,0,.23.06Z"/>
      <path class="cls-2" d="M.66,13.53l18.46,10.65v-.02c.03-.54.23-.86.52-1.19l9.79-10.76c.14-.16.26-.26.46-.36.12-.06.2-.08.32-.1l8.75-.63L20.91.69l-9.76.69c-.06,0-.09.01-.17.06-.06.05-.12.1-.2.18L1.01,12.37c-.23.27-.32.47-.35.77v.39h0ZM19.52,25.15c-.06,0-.12-.01-.17-.04L.23,14.05c-.2-.16-.23-.3-.23-.42v-.52c.03-.46.17-.8.49-1.19L10.28,1.15c.12-.12.2-.2.35-.3.17-.09.26-.12.43-.15l9.73-.7c.2,0,.26.01.43.1l19.15,11.05c.17.09.23.3.14.46-.12.17-.32.22-.46.13l-.06-.02-9.7.7c-.06,0-.06.01-.14.04-.06.05-.11.09-.23.21l-9.79,10.75c-.23.27-.32.47-.32.77v.42c.09.12.09.27,0,.39-.06.1-.17.15-.29.15Z"/>
      <path class="cls-3" d="M39.97,11.39l-9.7.7c-.2.01-.4.13-.61.34l-9.76,10.76c-.26.29-.43.65-.43.98v.49c0,.15.12.21.23.13l20.42-12c.14-.08.26-.27.26-.42v-.49c0-.32-.15-.51-.4-.49Z"/>
      <path class="cls-2" d="M40,11.72h0s-9.7.71-9.7.71c-.12,0-.23.09-.37.23l-9.79,10.76c-.2.22-.32.51-.32.75v.17l20.13-11.84s.09-.09.09-.13v-.49c0-.09-.03-.14-.03-.15h0ZM19.58,25.16c-.06,0-.14-.02-.23-.06-.14-.09-.23-.25-.23-.45v-.49c0-.41.2-.86.52-1.2l9.79-10.75c.23-.28.52-.43.81-.45l9.7-.7c.2-.02.4.05.52.18.11.11.26.3.26.65v.49c0,.28-.17.57-.43.71l-20.42,12c-.09.05-.17.08-.29.08Z"/>
      <polygon class="cls-1" points="37.49 13.02 22.35 21.91 29.95 13.56 37.49 13.02"/>
      <path class="cls-2" d="M30.12,13.89l-6.01,6.59,11.96-7.02-5.95.43h0ZM22.35,22.24c-.09,0-.17-.04-.26-.12-.09-.13-.09-.32.03-.44l7.57-8.34c.06-.06.14-.1.23-.11l7.54-.55c.15,0,.29.09.35.24.06.15-.03.31-.15.39l-15.13,8.89s-.09.05-.17.05Z"/>
      <path class="cls-4" d="M40.2,11.45L21.05.4c-.09-.06-.12-.06-.23-.06l-9.7.7c-.12.02-.17.04-.29.1l19.21,11.01c.09-.03.14-.05.23-.06l9.7-.7c.12,0,.14,0,.23.06Z"/>
      <path class="cls-2" d="M11.84,1.33l18.22,10.45c.06-.01.09-.02.15-.03l8.75-.63L20.91.69l-9.07.64h0ZM30.04,12.49c-.06,0-.12-.02-.17-.05L10.66,1.43c-.12-.06-.17-.18-.17-.3s.09-.23.2-.29c.12-.07.2-.11.38-.13l9.73-.7c.2,0,.26.01.43.1l19.15,11.05c.17.09.23.3.14.46-.12.17-.32.22-.46.13l-.06-.02-9.7.7c-.06,0-.06.01-.14.04-.03.02-.06.03-.11.03Z"/>
    </g>
  </g>
</svg>