<?xml version="1.0" encoding="UTF-8"?>
<svg id="Layer_2" data-name="Layer 2" xmlns="http://www.w3.org/2000/svg" viewBox="0 0 35.37 44.64" fill="currentColor">
  <defs>
    <style>
      .cls-1 {
        fill: #fff;
      }

      .cls-1, .cls-2, .cls-3, .cls-4 {
        fill-rule: evenodd;
      }

      .cls-2 {
        fill: #1a87c7;
      }

      .cls-3 {
        fill: #bdedf8;
      }

      .cls-4 {
        fill: #66ceef;
      }
    </style>
  </defs>
  <g id="_Layer_" data-name="&amp;lt;Layer&amp;gt;">
    <g>
      <path class="cls-4" d="M.31,19.72c.08-1,.52-1.75,1.34-2.32C11.42,11.76,21.2,6.12,30.97.48c.34-.17.55-.24.92-.11l.89.51c-.37-.14-.58-.07-.92.1C22.09,6.64,12.31,12.27,2.54,17.91c-.81.56-1.26,1.31-1.34,2.32v22.48c.05.42.05.59.39.87l-.89-.51c-.31-.27-.34-.44-.39-.86v-22.5Z"/>
      <path class="cls-2" d="M.63,19.74v22.48c.03.35.05.42.29.62,0-.03-.03-.05-.03-.09v-22.51c.11-1.12.58-1.95,1.47-2.57L31.7.73s.05-.03.1-.04l-.08-.04c-.18-.06-.31-.04-.63.12L1.81,17.67c-.71.5-1.1,1.17-1.18,2.07h0ZM1.6,43.89c-.05,0-.11,0-.16-.05l-.89-.5c-.45-.37-.5-.63-.55-1.1v-22.55c.1-1.09.58-1.92,1.49-2.55L30.81.22c.39-.22.73-.3,1.18-.13l.94.53c.13.08.18.25.1.4-.05.14-.24.21-.37.16-.24-.09-.37-.07-.68.09L2.7,18.18c-.73.5-1.13,1.16-1.18,2.07-.03,7.47-.03,14.97,0,22.46.03.37.03.43.26.63.13.11.16.29.08.42-.08.09-.16.13-.26.13Z"/>
      <path class="cls-3" d="M2.54,17.91C12.31,12.28,22.09,6.64,31.83,1c.73-.43,1.36-.09,1.36.76v22.5c0,.85-.63,1.89-1.36,2.32-7.52,4.34-15.01,8.67-22.53,13.01l-6.76,3.9c-.73.43-1.34.08-1.34-.77v-5.16h0v-12.15h0v-5.17c0-.85.6-1.9,1.34-2.32Z"/>
      <path class="cls-2" d="M1.49,37.5v.05l.03,5.16c0,.3.08.51.23.6.16.09.37.05.63-.1l29.32-16.92c.63-.37,1.18-1.31,1.18-2.05V1.76c0-.29-.1-.5-.24-.59-.16-.09-.39-.06-.65.09C22.24,6.9,12.47,12.54,2.7,18.18h0c-.66.36-1.18,1.3-1.18,2.05l-.03,5.16v12.11h0ZM1.94,43.98c-.18,0-.34-.04-.5-.14-.34-.2-.55-.6-.55-1.13v-22.48c0-.97.66-2.1,1.49-2.59h0C12.16,12.01,21.93,6.37,31.7.73c.45-.26.89-.3,1.23-.09.37.21.55.61.55,1.13v5.12s.03.03.03.05v12.15s0,.03-.03.05v5.12c0,.96-.66,2.1-1.49,2.58L2.7,43.76c-.26.15-.52.23-.76.23Z"/>
      <path class="cls-1" d="M31.91,26.72c-9.48,5.48-18.97,10.95-28.45,16.43-.73.42-1.31.08-1.31-.75v-21.83c0-.82.58-1.84,1.31-2.25C12.94,12.84,22.43,7.37,31.91,1.89c.71-.42,1.28-.08,1.28.75v21.83c0,.83-.58,1.84-1.28,2.25Z"/>
      <path class="cls-2" d="M32.49,2.02c-.13,0-.26.05-.42.13C22.58,7.64,13.1,13.11,3.62,18.58c-.63.36-1.15,1.27-1.15,1.99v21.83c0,.28.08.49.24.57.13.09.37.05.6-.09,9.48-5.49,18.97-10.96,28.45-16.43.63-.36,1.13-1.27,1.13-1.99.03-7.27.03-14.56,0-21.83,0-.28-.08-.49-.21-.57-.05-.03-.11-.05-.18-.05h0ZM2.88,43.64c-.18,0-.34-.04-.5-.13-.34-.2-.55-.59-.55-1.1v-21.83c0-.95.65-2.05,1.47-2.52C12.79,12.57,22.27,7.1,31.75,1.62c.45-.26.87-.29,1.23-.09.34.19.52.59.52,1.1v21.83c0,.95-.63,2.05-1.44,2.52h0c-9.51,5.48-19,10.95-28.45,16.43-.26.15-.5.22-.73.22Z"/>
      <path class="cls-1" d="M32.72,27.21c-9.48,5.47-18.97,10.94-28.45,16.42-.71.42-1.28.08-1.28-.75v-21.83c0-.83.58-1.84,1.28-2.25C13.78,13.32,23.27,7.84,32.72,2.37c.73-.42,1.31-.08,1.31.75v21.83c0,.84-.58,1.84-1.31,2.26Z"/>
      <path class="cls-2" d="M32.72,27.21h.03-.03ZM33.3,2.5c-.11,0-.26.04-.42.13C23.4,8.11,13.94,13.59,4.43,19.06c-.6.36-1.15,1.27-1.15,1.99v21.83c0,.29.11.5.24.57.16.09.37.05.63-.09,9.48-5.48,18.97-10.96,28.43-16.43h0c.63-.36,1.15-1.27,1.15-1.99V3.12c0-.28-.08-.49-.21-.57-.05-.03-.13-.04-.21-.04h0ZM3.69,44.12c-.18,0-.34-.03-.47-.12-.37-.2-.55-.6-.55-1.11v-21.83c0-.95.65-2.05,1.47-2.52C13.62,13.06,23.11,7.59,32.57,2.1c.45-.26.89-.29,1.23-.09.37.2.55.59.55,1.1v21.83c0,.95-.65,2.05-1.47,2.52h0c-9.48,5.48-18.97,10.95-28.45,16.43-.24.15-.5.22-.73.22Z"/>
      <path class="cls-1" d="M19.62,35.81l14.2-8.19c.63-.37,1.15-1.25,1.15-1.99l.05-16.33-2.02-1.49-2.38-1.55c-1.18-.73-1.7-.63-2.49-.19l-1.02.59-7.49,4.32v24.84Z"/>
      <path class="cls-2" d="M19.94,11.15v24.13l13.75-7.93c.52-.3.97-1.09.97-1.72l.05-16.18-1.89-1.41-2.38-1.53c-1.05-.67-1.47-.57-2.15-.18l-8.36,4.82h0ZM19.62,36.12c-.05,0-.11-.02-.16-.04-.08-.05-.16-.15-.16-.26V10.97c0-.11.08-.22.16-.27l8.52-4.91c.92-.5,1.55-.59,2.8.2l2.41,1.54,2.02,1.51c.08.05.13.15.13.24l-.05,16.34c0,.84-.58,1.83-1.31,2.25l-14.2,8.19c-.05.03-.11.04-.16.04Z"/>
      <path class="cls-1" d="M31.78,11.85l2.12-1.23c1.05-.57,1.7-1.17.58-1.89l-3.85-2.48c.89.76,1.15,1.25,1.15,2.18v3.42Z"/>
      <path class="cls-2" d="M31.96,7.49c.11.28.13.58.13.95v2.88l1.68-.96c.81-.45,1-.72,1-.87,0-.14-.16-.32-.45-.5l-2.36-1.5h0ZM31.78,12.16c-.05,0-.1-.02-.16-.04-.08-.05-.16-.16-.16-.27v-3.42c0-.84-.21-1.24-1.05-1.95-.13-.11-.16-.29-.05-.42.1-.13.29-.16.42-.08l3.85,2.48c.52.32.76.67.73,1.04,0,.6-.68,1.03-1.31,1.38l-2.12,1.22c-.05.03-.1.04-.16.04Z"/>
      <path class="cls-2" d="M31.78,12.16h0c-.16,0-.31-.14-.31-.31v-3.42c.03-.63-.42-1.56-1.18-2.04-.45-.27-1.15-.5-2.02-.06l-8.49,4.91c-.13.08-.34.04-.42-.11-.08-.15-.03-.34.1-.42l8.52-4.91c.89-.45,1.83-.42,2.62.09.89.56,1.52,1.63,1.49,2.56v3.41c0,.17-.13.31-.31.31Z"/>
      <path class="cls-1" d="M5.19,19.31c4.66-2.68,9.77-5.64,14.44-8.34v24.77c-.11.11-.26.22-.39.29l-14.04,8.11c-.73.42-1.31.08-1.31-.75v-21.83c0-.84.58-1.84,1.31-2.26Z"/>
      <path class="cls-2" d="M5.34,19.58c-.63.36-1.15,1.27-1.15,1.99v21.83c0,.28.08.49.24.57.13.08.37.05.6-.09l14.04-8.12c.08-.04.16-.1.24-.16V11.5c-4.53,2.63-9.46,5.47-13.99,8.08h.03ZM4.61,44.64c-.18,0-.34-.04-.5-.13-.34-.2-.55-.59-.55-1.1v-21.83c0-.95.65-2.05,1.47-2.52h0c4.66-2.7,9.77-5.64,14.44-8.34.11-.05.24-.05.31,0,.11.06.16.16.16.27v24.77c0,.08-.05.16-.1.22-.13.14-.29.25-.45.34l-14.07,8.12c-.24.15-.47.22-.71.22Z"/>
      <path class="cls-2" d="M21.9,15.18c-.1,0-.21-.06-.26-.15-.08-.15-.03-.34.11-.42l8.78-5.07c.16-.09.34-.03.42.11.08.15.03.33-.1.42l-8.78,5.07c-.05.03-.11.04-.16.04Z"/>
      <path class="cls-2" d="M21.9,17.89c-.1,0-.21-.06-.26-.16-.08-.15-.03-.34.11-.42l8.7-5.02c.16-.09.34-.03.42.11.08.15.03.34-.13.43l-8.67,5.01c-.05.02-.11.04-.16.04Z"/>
      <path class="cls-2" d="M6.89,37.96c-.1,0-.21-.05-.26-.15-.1-.15-.05-.33.11-.42l10.32-5.96c.13-.09.31-.05.42.11.08.14.03.33-.13.42l-10.32,5.96s-.08.04-.13.04Z"/>
      <path class="cls-2" d="M6.89,35.04c-.1,0-.21-.06-.26-.16-.1-.15-.05-.34.11-.42l10.32-5.96c.13-.09.31-.03.42.11.08.15.03.34-.13.43l-10.32,5.95s-.08.04-.13.04Z"/>
      <path class="cls-2" d="M6.89,32.29c-.1,0-.21-.05-.26-.16-.1-.15-.05-.33.11-.42l10.32-5.96c.13-.08.31-.03.42.11.08.15.03.34-.13.43l-10.32,5.95s-.08.04-.13.04Z"/>
      <path class="cls-2" d="M13.21,25.88c-.11,0-.21-.05-.26-.16-.08-.14-.03-.33.11-.42l4.01-2.3c.13-.09.31-.03.42.11.08.15.03.33-.13.42l-3.98,2.31c-.05.03-.11.04-.16.04Z"/>
      <path class="cls-2" d="M21.9,20.77c-.1,0-.21-.05-.26-.15-.08-.15-.03-.33.11-.42l10.82-6.24c.13-.09.31-.03.42.12.08.15.03.33-.13.42l-10.79,6.24c-.05.03-.11.04-.16.04Z"/>
      <path class="cls-2" d="M21.9,23.48c-.1,0-.21-.05-.26-.16-.08-.15-.03-.33.11-.42l11.19-6.46c.16-.09.34-.04.42.11.08.14.03.33-.1.42l-11.19,6.46c-.05.03-.11.04-.16.04Z"/>
      <path class="cls-2" d="M21.9,26.19c-.1,0-.21-.05-.26-.16-.08-.15-.03-.33.11-.42l10.09-5.83c.16-.09.34-.04.45.11.08.15.03.34-.13.42l-10.09,5.82c-.05.03-.11.04-.16.04Z"/>
      <path class="cls-2" d="M21.9,29.07c-.1,0-.21-.05-.26-.15-.08-.15-.03-.34.11-.43l6.65-3.84c.16-.09.34-.04.45.11.05.14.03.33-.13.42l-6.65,3.85c-.05.03-.11.04-.16.04Z"/>
      <path class="cls-2" d="M13.21,22.96c-.11,0-.21-.06-.26-.15-.08-.15-.03-.34.11-.42l4.01-2.3c.13-.09.31-.04.42.11.08.15.03.33-.13.42l-3.98,2.3c-.05.03-.11.04-.16.04Z"/>
      <path class="cls-2" d="M13.21,20.21c-.11,0-.21-.05-.26-.16-.08-.15-.03-.33.11-.42l4.01-2.3c.13-.09.31-.03.42.12.08.15.03.33-.13.42l-3.98,2.3c-.05.03-.11.04-.16.04Z"/>
      <path class="cls-4" d="M11.68,25.1v1.35c0,.09-.05.23-.16.28l-4.77,2.75c-.1.05-.16.01-.16-.09v-2.41l.05-.08c.18-.24.39-.37.58-.33l1.6.47c.16.04.37-.08.55-.3l1.21-1.55c.18-.24.42-.35.58-.29l.52.19Z"/>
      <path class="cls-2" d="M6.89,27.07v1.96l4.48-2.58v-1.15l-.31-.11s-.13.05-.24.19l-1.2,1.54c-.24.34-.6.49-.86.41l-1.6-.46s-.13.04-.26.2h0ZM6.68,29.81c-.08,0-.13-.02-.18-.05-.13-.08-.21-.22-.21-.37v-2.41c0-.07.03-.13.05-.18l.05-.08c.26-.36.63-.53.92-.44l1.6.47s.13-.05.24-.19l1.21-1.55c.26-.34.63-.5.92-.39l.52.19c.13.04.21.17.21.3v1.35c0,.21-.13.43-.32.54l-4.79,2.76c-.05.04-.13.07-.21.07Z"/>
      <path class="cls-3" d="M11.68,25.1l-.52-.19c-.16-.06-.39.05-.58.29l-1.21,1.55c-.18.22-.39.34-.55.3l-1.6-.47c-.18-.04-.39.09-.58.33l-.05.08v-3.51l5.08-2.95v4.58Z"/>
      <path class="cls-2" d="M7.15,26.26c.05,0,.11,0,.16.02l1.6.47s.13-.05.24-.19l1.21-1.55c.26-.34.63-.5.92-.39l.11.04.03-3.6-4.51,2.58v2.67c.11-.03.18-.05.26-.05h0ZM8.91,27.35c-.08,0-.13,0-.16-.02l-1.6-.46s-.16.05-.26.21l-.05.07c-.08.12-.21.16-.34.12-.13-.04-.21-.17-.21-.3v-3.51c0-.11.05-.21.16-.27l5.08-2.94c.1-.06.24-.06.31,0,.1.05.16.16.16.26v4.58c0,.09-.05.19-.13.25-.08.05-.18.07-.29.03l-.52-.19s-.13.05-.24.19l-1.2,1.54c-.21.28-.47.42-.71.42Z"/>
      <path class="cls-3" d="M10.35,22.48c.18-.1.34-.02.34.2s-.16.48-.34.58c-.18.11-.34.02-.34-.19s.16-.48.34-.59Z"/>
      <path class="cls-2" d="M10.19,23.62c-.08,0-.16-.02-.23-.06-.16-.09-.26-.27-.26-.49,0-.33.21-.69.5-.85.18-.11.39-.12.55-.03.16.1.24.27.24.49,0,.32-.21.69-.47.85-.1.06-.21.09-.31.09Z"/>
      <path class="cls-2" d="M19.62,11.28c-.05,0-.11-.01-.16-.04l-1.73-1c-.08-.05-.13-.16-.13-.27v-.95c0-.17.13-.31.29-.31.18,0,.31.14.31.31v.77l1.57.9c.13.09.18.28.11.42-.05.1-.16.15-.26.15Z"/>
    </g>
  </g>
</svg>