<?xml version="1.0" encoding="UTF-8"?>
<svg id="Layer_2" data-name="Layer 2" xmlns="http://www.w3.org/2000/svg" viewBox="0 0 67.54 82.17" fill="currentColor">
  <defs>
    <style>
      .cls-1 {
        fill: #1a87c7;
      }

      .cls-1, .cls-2, .cls-3, .cls-4 {
        fill-rule: evenodd;
      }

      .cls-2 {
        fill: #bdedf8;
      }

      .cls-3 {
        fill: #ecf6f9;
      }

      .cls-4 {
        fill: #66ceef;
      }
    </style>
  </defs>
  <g id="_Layer_" data-name="&amp;lt;Layer&amp;gt;">
    <g>
      <path class="cls-2" d="M50.56,14.18L10.96.81c-.8-.26-1.34-.24-2.14-.1C3.03,1.97-1.96,12.65,2.08,16.21l31.29,27.5c-.89-1.5-1.39-3.48-1.39-5.88,0-8.08,5.66-17.91,12.65-21.94,2.14-1.24,4.15-1.78,5.93-1.72Z"/>
      <path class="cls-1" d="M9.76,1.23c-.26,0-.52.03-.83.08-3.37.75-6.4,5.01-7.35,8.69-.68,2.54-.35,4.64.9,5.74l29.33,25.76c-.3-1.11-.46-2.33-.46-3.67,0-8.25,5.83-18.34,12.97-22.46,1.18-.68,2.35-1.18,3.48-1.48L10.75,1.4c-.36-.13-.68-.17-.99-.17h0ZM33.36,44.32c-.14,0-.28-.05-.4-.16L1.66,16.66C.06,15.24-.41,12.7.37,9.69,1.41,5.69,4.68.98,8.68.11c.85-.15,1.53-.19,2.47.13l39.6,13.37c.29.08.47.38.41.69-.05.3-.33.54-.62.51-1.72-.05-3.64.5-5.6,1.63-6.81,3.93-12.36,13.52-12.36,21.4,0,2.21.45,4.12,1.32,5.56.16.26.11.59-.14.78-.11.11-.26.14-.4.14Z"/>
      <path class="cls-4" d="M38.4,21.39L5.55,2.43c1.03-.85,2.12-1.46,3.27-1.72.8-.14,1.34-.16,2.14.1l39.6,13.37c-1.77-.05-3.79.49-5.93,1.72-2.26,1.31-4.38,3.21-6.23,5.49Z"/>
      <path class="cls-1" d="M6.66,2.36l31.61,18.24c1.84-2.21,3.93-3.99,6.05-5.21,1.18-.68,2.35-1.18,3.48-1.48L10.75,1.4c-.7-.22-1.15-.21-1.82-.09-.75.17-1.49.52-2.26,1.04h0ZM38.4,22c-.1,0-.21-.02-.31-.09L5.26,2.95c-.18-.09-.3-.28-.31-.47-.02-.2.07-.4.22-.52C6.32.98,7.5.38,8.68.11c.85-.15,1.53-.19,2.47.13l39.6,13.37c.29.08.47.38.41.69-.05.3-.33.54-.62.51-1.72-.05-3.64.5-5.6,1.63-2.12,1.22-4.2,3.06-6.06,5.34-.11.16-.3.23-.47.23Z"/>
      <path class="cls-3" d="M50.56,14.18L15.35,2.3c-.9.05-1.91.38-2.96.99-4.05,2.33-7.32,8.02-7.32,12.68,0,1.67.42,2.99,1.13,3.88l27.15,23.87c-.89-1.5-1.39-3.48-1.39-5.88,0-8.08,5.66-17.91,12.65-21.94,2.14-1.24,4.15-1.78,5.93-1.72Z"/>
      <path class="cls-1" d="M15.27,2.93c-.8.07-1.67.38-2.56.89-3.88,2.24-7.02,7.68-7.02,12.15,0,1.48.35,2.68,1.01,3.49l25.1,22.04c-.3-1.1-.46-2.33-.46-3.67,0-8.25,5.83-18.34,12.97-22.46,1.18-.68,2.35-1.18,3.48-1.48L15.27,2.93h0ZM33.36,44.32c-.14,0-.28-.05-.4-.16L5.81,20.31c-.91-1.11-1.36-2.59-1.36-4.34,0-4.85,3.43-10.78,7.64-13.22,1.11-.64,2.19-.99,3.21-1.07.09,0,.17.02.25.04l35.2,11.89c.29.08.47.38.41.69-.05.3-.33.54-.62.51-1.72-.05-3.64.5-5.6,1.63-6.81,3.93-12.36,13.52-12.36,21.4,0,2.21.45,4.12,1.32,5.56.16.26.11.59-.14.78-.11.11-.26.14-.4.14Z"/>
      <path class="cls-2" d="M38.4,21.39L10.1,5.05c.71-.69,1.5-1.3,2.3-1.76,1.04-.61,2.05-.94,2.96-.99l35.2,11.87c-1.77-.05-3.79.49-5.93,1.72l-.31.19h-.02l-.02.02-.28.17-.02.02h-.02c-.09.07-.19.12-.28.19l-.04.02-.02.02-.26.17-.04.04h-.03l-.25.19-.05.04-.06.04-.24.19h-.02l-.05.04-.19.16-.07.05-.04.04-.2.16-.07.05-.02.02-.28.23v.02l-.04.02-.08.09-.1.07-.04.03-.07.06-.09.08-.11.09-.08.08h0l-.1.09-.11.1-.02.02-.16.14-.02.02-.08.09-.04.03-.16.16-.11.09-.08.1-.09.07v.02l-.11.09-.08.11-.09.08-.11.1-.08.11-.09.09-.1.11-.26.29-.11.1-.17.21-.08.1-.17.19-.09.11-.09.12-.08.11-.09.1Z"/>
      <path class="cls-1" d="M11.15,4.93l27.12,15.66.83-.95.19-.21.19-.19.19-.19.11-.12s.18-.17.19-.17l.24-.25s.16-.14.16-.16l.16-.14.12-.12s.19-.18.21-.18l.19-.17.2-.17s.11-.1.11-.1l2.96-2.09c1.18-.68,2.35-1.18,3.48-1.48L15.27,2.93c-.8.07-1.67.36-2.56.89-.54.31-1.06.68-1.57,1.11h0ZM38.28,21.97c-.07,0-.14-.02-.19-.06L9.79,5.57c-.18-.08-.28-.26-.31-.45-.02-.19.05-.38.19-.52.78-.75,1.6-1.36,2.42-1.84,1.11-.64,2.19-.99,3.21-1.07.09,0,.17.02.25.04l35.2,11.89c.29.08.47.38.41.69-.05.3-.33.54-.62.51-1.72-.05-3.64.5-5.6,1.63l-2.76,1.95-.52-.35.4.45-.54-.35.4.47-.56-.33.4.47-.59-.3.41.46-.62-.26.44.43-.19.17-.56-.31.42.45-.14.14-.62-.24.43.43-.63-.26.43.44-.61-.25.43.43-.62-.22.45.42-.64-.22.47.41-.8.89-.64-.17.47.38c-.16.19-.5.4-.76.4Z"/>
      <path class="cls-2" d="M50.56,14.18L23.02,4.9c-1.13.02-2.38.38-3.7,1.16-4.72,2.71-8.54,9.33-8.54,14.78,0,1.51.29,2.78.83,3.75l21.75,19.13c-.89-1.5-1.39-3.48-1.39-5.88,0-8.08,5.66-17.91,12.65-21.94,2.14-1.24,4.15-1.78,5.93-1.72Z"/>
      <path class="cls-1" d="M12.11,24.21l19.7,17.3c-.3-1.11-.46-2.33-.46-3.67,0-8.25,5.83-18.34,12.97-22.46,1.18-.68,2.35-1.18,3.48-1.48L22.92,5.51c-1.02.05-2.14.4-3.3,1.08-4.52,2.62-8.22,9-8.22,14.25,0,1.32.24,2.47.71,3.37h0ZM33.36,44.32c-.14,0-.28-.05-.4-.16L11.2,25.06c-.05-.05-.08-.1-.14-.17-.59-1.12-.91-2.47-.91-4.05,0-5.63,3.98-12.5,8.85-15.32,1.39-.8,2.73-1.22,4-1.25.09.02.14.02.21.04l27.54,9.3c.29.08.47.38.41.69-.05.3-.33.54-.62.51-1.72-.05-3.64.5-5.6,1.63-6.81,3.93-12.36,13.52-12.36,21.4,0,2.21.45,4.12,1.32,5.56.16.26.11.59-.14.78-.11.11-.26.14-.4.14Z"/>
      <path class="cls-4" d="M38.4,21.39l-22.23-12.85c.98-.99,2.03-1.86,3.15-2.48,1.32-.78,2.57-1.15,3.7-1.16l27.54,9.28c-1.77-.05-3.79.49-5.93,1.72-2.26,1.31-4.38,3.21-6.23,5.49Z"/>
      <path class="cls-1" d="M17.18,8.42l21.09,12.17c1.84-2.21,3.93-3.99,6.05-5.21,1.18-.68,2.35-1.18,3.48-1.48L22.92,5.51c-1.02.05-2.14.4-3.3,1.08-.83.48-1.65,1.09-2.44,1.84h0ZM38.4,22c-.1,0-.21-.02-.31-.09L15.86,9.08c-.16-.08-.26-.26-.29-.45-.02-.19.03-.37.17-.5,1.03-1.08,2.14-1.96,3.27-2.61,1.39-.8,2.73-1.22,4-1.25.09.02.14.02.21.04l27.54,9.3c.29.08.47.38.41.69-.05.3-.33.54-.62.51-1.72-.05-3.64.5-5.6,1.63-2.12,1.22-4.2,3.06-6.06,5.34-.11.16-.3.23-.47.23Z"/>
      <path class="cls-3" d="M50.56,14.18l-18.34-6.19c-1.43-.14-3.09.26-4.88,1.31-5.33,3.08-9.68,10.59-9.68,16.76,0,2.36.65,4.21,1.74,5.37l.73.64,13.25,11.65c-.89-1.5-1.39-3.48-1.39-5.88,0-8.08,5.66-17.91,12.65-21.94,2.14-1.24,4.15-1.78,5.93-1.72Z"/>
      <path class="cls-1" d="M31.65,8.57c-1.15,0-2.56.41-4,1.25-5.16,2.99-9.38,10.27-9.38,16.24,0,2.14.55,3.86,1.57,4.96l11.96,10.5c-.3-1.11-.46-2.33-.46-3.67,0-8.25,5.83-18.34,12.97-22.46,1.18-.68,2.35-1.18,3.48-1.48l-15.77-5.32c-.12-.02-.25-.02-.38-.02h0ZM33.36,44.32c-.14,0-.28-.05-.4-.16l-13.98-12.27c-1.29-1.37-1.95-3.39-1.95-5.84,0-6.36,4.48-14.12,9.98-17.3,1.84-1.06,3.67-1.53,5.27-1.37l18.47,6.22c.29.08.47.38.41.69-.05.3-.33.54-.62.51-1.72-.05-3.64.5-5.6,1.63-6.81,3.93-12.36,13.52-12.36,21.4,0,2.21.45,4.12,1.32,5.56.16.26.11.59-.14.78-.11.11-.26.14-.4.14Z"/>
      <path class="cls-2" d="M50.56,14.18l-18.34-6.19c-1.43-.14-3.09.26-4.88,1.31-1.44.83-2.82,2-4.05,3.35l15.12,8.74.09-.1.08-.11.09-.12.09-.11.17-.19.08-.1.17-.21.11-.1.26-.29.1-.11.09-.09.08-.11.11-.1.09-.08.08-.11.11-.09v-.02l.09-.07.08-.1.11-.09.14-.14.02-.02.04-.03.08-.09.02-.02.16-.14.02-.02.11-.1.1-.09h0l.08-.08.11-.09.09-.08.07-.04v-.02l.04-.03.1-.07.08-.09.04-.02v-.02l.28-.23.02-.02.07-.05.2-.16.04-.04.07-.05.19-.16.05-.04h.02l.24-.19.06-.04.05-.04.25-.19h.03l.04-.04.26-.17.02-.02.04-.02h0l.21-.14.02-.02h.02v-.02h.04v-.02h.02l.02-.02.28-.17.02-.02h.02c.1-.07.21-.12.31-.19,2.14-1.24,4.15-1.78,5.93-1.72Z"/>
      <path class="cls-1" d="M24.26,12.51l14.01,8.08s.02-.02.02-.03l.82-.92.19-.21.19-.19.19-.19.11-.12s.18-.17.19-.17l.24-.25s.16-.14.16-.16l.16-.14.12-.12s.19-.18.21-.18l.19-.17.2-.17s.11-.1.11-.1l1.93-1.44c.05-.05.07-.05.14-.09l.14-.1s.04-.02.06-.03l.68-.42c1.18-.68,2.36-1.18,3.49-1.48l-15.77-5.32c-1.2-.1-2.78.32-4.38,1.23-1.17.68-2.32,1.58-3.39,2.7h0ZM38.28,21.97c-.07,0-.14-.02-.19-.06l-15.12-8.72c-.16-.09-.26-.26-.29-.43-.04-.19.02-.37.14-.5,1.34-1.48,2.75-2.64,4.21-3.5,1.84-1.06,3.67-1.53,5.27-1.37l18.47,6.22c.29.08.47.38.41.69-.05.3-.33.54-.62.51-1.72-.05-3.64.5-5.6,1.63l-.62.37s-.02.02-.02.02l-2.12,1.57-.52-.35.4.45-.54-.35.4.47-.56-.33.4.47-.59-.3.41.46-.62-.26.44.43-.19.17-.56-.31.44.43-.16.16-.62-.24.43.43-.63-.26.43.44-.61-.25.43.43-.62-.22.45.42-.64-.22.47.41-.8.89-.64-.17.47.38c-.16.19-.5.4-.76.4Z"/>
      <path class="cls-4" d="M44.63,45.14c6.99-4.03,12.65-13.85,12.65-21.92s-5.66-11.35-12.65-7.32c-6.99,4.03-12.65,13.85-12.65,21.94s5.66,11.33,12.65,7.3Z"/>
      <path class="cls-1" d="M44.63,45.14h.01-.01ZM50.28,14.79c-1.63,0-3.44.56-5.34,1.65-6.81,3.93-12.36,13.52-12.36,21.4,0,3.67,1.22,6.38,3.41,7.65,2.19,1.27,5.15.96,8.33-.89,6.82-3.93,12.36-13.52,12.36-21.38,0-3.68-1.22-6.4-3.41-7.67-.89-.5-1.9-.77-2.99-.77h0ZM38.98,47.48c-1.32,0-2.54-.31-3.61-.92-2.59-1.5-4.02-4.61-4.02-8.73,0-8.25,5.83-18.34,12.97-22.46,3.58-2.07,6.99-2.38,9.56-.89,2.59,1.49,4.01,4.59,4.01,8.72,0,8.26-5.81,18.32-12.95,22.44h0c-2.1,1.22-4.11,1.82-5.96,1.82Z"/>
      <path class="cls-2" d="M50.56,14.18l-7.3-2.45c-1.86-.54-4.17-.15-6.68,1.29-6.17,3.56-11.18,12.26-11.18,19.38,0,2.4.55,4.33,1.55,5.66l6.41,5.65c-.89-1.5-1.39-3.48-1.39-5.88,0-8.08,5.66-17.91,12.65-21.94,2.14-1.24,4.15-1.78,5.93-1.72Z"/>
      <path class="cls-1" d="M41.57,12.11c-1.43,0-3.01.49-4.67,1.45-6,3.46-10.88,11.91-10.88,18.84,0,2.19.5,4.01,1.44,5.32l4.35,3.81c-.3-1.12-.46-2.35-.46-3.69,0-8.25,5.83-18.34,12.97-22.46,1.18-.68,2.35-1.18,3.48-1.48l-4.73-1.6c-.49-.14-.97-.19-1.49-.19h0ZM33.36,44.32c-.14,0-.28-.05-.4-.16l-6.41-5.63c-1.2-1.6-1.78-3.68-1.78-6.14,0-7.32,5.17-16.25,11.49-19.91,2.57-1.49,5.04-1.97,7.16-1.37l7.32,2.49c.29.08.47.38.41.69-.05.3-.33.54-.62.51-1.72-.05-3.64.5-5.6,1.63-6.81,3.93-12.36,13.52-12.36,21.4,0,2.21.45,4.12,1.32,5.56.16.26.11.59-.14.78-.11.11-.26.14-.4.14Z"/>
      <path class="cls-1" d="M59.44,54.91c-.11,0-.21-.03-.31-.09l-15.33-8.86c-.3-.16-.4-.54-.23-.84.16-.29.55-.4.84-.23l15.35,8.87c.3.16.38.54.22.83-.12.19-.33.31-.54.31Z"/>
      <path class="cls-1" d="M61.66,25.92c-.11,0-.21-.04-.31-.09l-16.42-9.47c-.29-.17-.4-.54-.22-.83.17-.3.53-.4.83-.23l16.41,9.47c.29.18.4.54.23.84-.11.21-.31.31-.52.31Z"/>
      <path class="cls-4" d="M38.4,21.39l-6.94-4c1.54-1.81,3.27-3.32,5.11-4.38,2.51-1.44,4.82-1.83,6.68-1.29l7.3,2.45c-1.77-.05-3.79.49-5.93,1.72-2.26,1.31-4.38,3.21-6.23,5.49Z"/>
      <path class="cls-1" d="M32.44,17.24l5.83,3.35c1.84-2.21,3.93-3.99,6.05-5.21,1.18-.68,2.35-1.18,3.48-1.48l-4.73-1.6c-1.76-.49-3.89-.07-6.17,1.25-1.53.89-3.06,2.15-4.45,3.68h0ZM38.4,22c-.1,0-.21-.02-.31-.09l-6.92-4c-.16-.08-.28-.24-.31-.41-.02-.19.04-.37.14-.5,1.64-1.93,3.41-3.44,5.27-4.51,2.57-1.49,5.04-1.97,7.16-1.37l7.32,2.49c.29.08.47.38.41.69-.05.3-.33.54-.62.51-1.72-.05-3.64.5-5.6,1.63-2.12,1.22-4.2,3.06-6.06,5.34-.11.16-.3.23-.47.23Z"/>
      <path class="cls-3" d="M60.53,80.91c-.53-.32-1.07-.82-1.09-1.48V21.38c.07,1.16,1.51,1.79,2.5,1.98,1.39.28,3.34.09,4.42-.91.31-.28.54-.64.56-1.07v58.06c-.02.87-.94,1.48-1.69,1.76-1.42.54-3.35.47-4.7-.28Z"/>
      <path class="cls-1" d="M60.85,80.37c1.13.64,2.85.73,4.17.22.63-.22,1.27-.69,1.29-1.18V23.27c-1.29.83-3.11.97-4.48.7-.61-.12-1.24-.35-1.77-.7v56.17c.02.44.55.8.8.94h0ZM63.18,82.17c-1.06,0-2.11-.25-2.94-.71l-.02-.02c-.89-.51-1.38-1.22-1.39-1.99V21.38c0-.33.26-.61.59-.63.37-.04.61.25.63.59.05.7,1.07,1.22,2.01,1.41,1.24.26,2.98.08,3.88-.75.23-.21.35-.42.37-.68.02-.33.26-.61.62-.58.33.02.61.3.61.63v58.06c-.05,1.44-1.61,2.14-2.09,2.33-.71.26-1.49.4-2.27.4Z"/>
      <path class="cls-2" d="M63.18,23.48c-.96,0-1.91-.21-2.65-.62-.73-.43-1.09-.99-1.09-1.53s.37-1.12,1.09-1.53c.73-.42,1.69-.63,2.65-.63s1.91.21,2.64.63c.73.41,1.1.98,1.1,1.53s-.37,1.1-1.1,1.53c-.73.41-1.69.62-2.64.62Z"/>
      <path class="cls-1" d="M63.18,19.78c-.87,0-1.72.2-2.33.55-.5.28-.8.64-.8,1,0,.33.29.69.8.99,1.2.69,3.46.69,4.66,0,.51-.3.8-.66.8-.99,0-.35-.29-.71-.8-1-.59-.35-1.44-.55-2.33-.55h0ZM63.18,24.09c-1.12,0-2.16-.24-2.96-.71-.91-.52-1.41-1.25-1.41-2.05s.5-1.55,1.41-2.07c1.6-.92,4.31-.92,5.91,0,.9.52,1.4,1.25,1.4,2.07s-.5,1.53-1.4,2.05c-.8.47-1.84.71-2.96.71Z"/>
    </g>
  </g>
</svg>