<?xml version="1.0" encoding="UTF-8"?>
<svg id="Layer_2" data-name="Layer 2" xmlns="http://www.w3.org/2000/svg" viewBox="0 0 36.43 41.86" fill="currentColor">
  <defs>
    <style>
      .cls-1 {
        fill: #fff;
      }

      .cls-1, .cls-2, .cls-3, .cls-4 {
        fill-rule: evenodd;
      }

      .cls-2 {
        fill: #1a87c7;
      }

      .cls-3 {
        fill: #bdedf8;
      }

      .cls-4 {
        fill: #66ceef;
      }
    </style>
  </defs>
  <g id="_Layer_" data-name="&amp;lt;Layer&amp;gt;">
    <g>
      <path class="cls-1" d="M16.94,20.96l-10.62,6.14,1.01.58,10.12-5.84c.17-.11.1-.38.03-.53-.08-.17-.31-.45-.53-.35Z"/>
      <path class="cls-2" d="M6.94,27.09l.39.23,9.91-5.72s-.02-.1-.04-.17c-.03-.07-.1-.15-.15-.18l-10.11,5.84h0ZM7.33,27.98c-.05,0-.1-.01-.15-.04l-1.02-.58c-.09-.06-.16-.16-.16-.27s.06-.21.16-.27l10.63-6.13s0,0,.02-.01c.36-.18.76.12.94.49.18.39.13.75-.13.92l-10.13,5.85s-.11.04-.16.04Z"/>
      <path class="cls-1" d="M16.94,17.93l-10.31,5.95,1.01.58,9.8-5.66c.17-.11.1-.38.03-.53-.08-.16-.31-.45-.53-.35Z"/>
      <path class="cls-2" d="M7.25,23.88l.4.23,9.59-5.54s-.02-.1-.04-.17c-.03-.07-.1-.15-.15-.18l-9.8,5.65h0ZM7.65,24.77c-.05,0-.1-.01-.15-.04l-1.01-.58c-.09-.06-.16-.16-.16-.27s.06-.21.16-.27l10.31-5.95s0,0,.02-.01c.36-.18.76.13.94.5.18.39.13.75-.13.92l-9.81,5.67c-.05.03-.11.04-.16.04Z"/>
      <path class="cls-3" d="M18.16,23.59c.18-.11,1.17-.69,1.28-.73.58-.24,1.29.17,1.7.56.77.7,1.41,1.94,1.32,2.98-.03.38-.17.78-.51.99l-1.21.7c.23-.16.36-.35.43-.62.24-.84-.16-1.93-.63-2.62-.4-.6-1.12-1.3-1.88-1.36-.2-.01-.35.02-.52.1Z"/>
      <path class="cls-2" d="M19.25,23.31c.64.25,1.21.83,1.57,1.36.44.66.87,1.69.73,2.6l.26-.15c.27-.17.34-.54.35-.74.09-.99-.55-2.12-1.22-2.73-.37-.34-.96-.68-1.38-.5-.03.02-.15.08-.3.17h0ZM20.76,28.4c-.1,0-.21-.05-.26-.14-.1-.14-.05-.32.09-.42.15-.11.25-.24.31-.45.21-.72-.14-1.7-.59-2.36-.36-.54-1.01-1.18-1.63-1.22-.15-.01-.24,0-.37.07-.15.07-.33.01-.41-.14-.08-.15-.02-.33.12-.41l.19-.11c.75-.45,1.04-.61,1.12-.64.87-.36,1.78.38,2.03.62.76.69,1.52,1.99,1.42,3.24-.04.56-.27.99-.64,1.22l-1.22.7s-.1.04-.15.04Z"/>
      <path class="cls-4" d="M21.2,26.33c.26,1.28-.32,2.11-1.29,1.85-.98-.26-1.99-1.52-2.25-2.8-.26-1.28.32-2.11,1.29-1.85.98.26,1.99,1.51,2.25,2.8Z"/>
      <path class="cls-2" d="M18.6,23.8c-.16,0-.31.05-.42.16-.26.25-.35.76-.22,1.37.24,1.16,1.17,2.33,2.03,2.56.2.06.49.08.69-.12.26-.25.35-.76.22-1.37h0c-.23-1.15-1.16-2.33-2.02-2.56-.09-.03-.18-.04-.27-.04h0ZM20.25,28.54c-.14,0-.29-.02-.43-.06-1.1-.3-2.19-1.63-2.48-3.03-.17-.83-.02-1.53.41-1.94.32-.3.77-.4,1.28-.26,1.09.29,2.18,1.62,2.47,3.03.16.83.02,1.53-.4,1.94-.24.22-.53.33-.85.33Z"/>
      <path class="cls-3" d="M30.36,30.64c.18-.11,1.17-.69,1.27-.73.59-.25,1.29.17,1.71.56.76.7,1.4,1.94,1.32,2.98-.03.37-.17.78-.5.99l-1.22.7c.24-.16.37-.35.44-.62.24-.84-.16-1.92-.62-2.62-.41-.6-1.12-1.31-1.88-1.36-.2-.01-.35.02-.52.1Z"/>
      <path class="cls-2" d="M31.45,30.36c.64.25,1.21.83,1.56,1.36.44.66.87,1.69.73,2.6l.26-.15c.26-.17.33-.54.35-.75.09-.99-.55-2.12-1.22-2.73-.37-.34-.95-.68-1.38-.5-.03.02-.16.08-.3.17h0ZM32.94,35.44c-.09,0-.2-.05-.26-.14-.09-.14-.04-.32.09-.42.17-.11.25-.24.32-.46.21-.71-.15-1.7-.59-2.36-.36-.54-1.01-1.18-1.64-1.23-.13,0-.23.01-.36.07-.15.07-.33,0-.41-.14-.08-.14-.03-.32.12-.41l.19-.11c.78-.45,1.04-.6,1.12-.64.87-.36,1.77.38,2.03.62.75.69,1.52,2,1.41,3.24-.04.55-.28.99-.64,1.22l-1.23.7s-.1.04-.16.04Z"/>
      <path class="cls-4" d="M33.39,33.38c.26,1.28-.32,2.11-1.3,1.85-.98-.26-1.99-1.51-2.25-2.8-.26-1.28.32-2.11,1.3-1.85.98.26,1.99,1.52,2.25,2.8Z"/>
      <path class="cls-2" d="M30.8,30.84c-.14,0-.3.04-.43.16-.26.25-.35.76-.22,1.37.24,1.16,1.17,2.33,2.03,2.56.2.05.49.08.69-.12.26-.25.34-.76.22-1.37h0c-.23-1.16-1.17-2.33-2.03-2.56-.08-.02-.17-.04-.27-.04h0ZM32.45,35.58c-.14,0-.29-.02-.44-.06-1.09-.29-2.18-1.62-2.47-3.03-.16-.83-.02-1.53.41-1.94.32-.31.78-.4,1.27-.27,1.1.29,2.19,1.63,2.48,3.03.16.83.02,1.53-.41,1.94-.22.21-.52.33-.84.33Z"/>
      <path class="cls-3" d="M7.31,29.87c.18-.11,1.17-.69,1.28-.73.58-.24,1.29.18,1.71.56.76.7,1.4,1.94,1.31,2.98-.03.37-.17.78-.5.99l-1.21.7c.23-.16.36-.35.43-.62.25-.84-.15-1.92-.62-2.62-.4-.6-1.12-1.31-1.88-1.36-.2-.02-.35.02-.52.1Z"/>
      <path class="cls-2" d="M8.41,29.59c.63.25,1.2.83,1.56,1.37.44.65.87,1.69.73,2.6l.26-.15c.27-.17.34-.54.36-.75.08-.99-.56-2.12-1.22-2.73-.37-.34-.97-.68-1.38-.5-.03.02-.16.08-.3.17h0ZM9.9,34.68c-.11,0-.2-.05-.26-.14-.09-.14-.05-.32.09-.42.16-.11.25-.24.31-.45.21-.71-.14-1.7-.58-2.36-.37-.54-1.01-1.18-1.64-1.22-.15,0-.24.01-.37.07-.15.07-.33.01-.4-.14-.08-.15-.03-.33.11-.41l.15-.09c.78-.46,1.08-.63,1.17-.66.87-.36,1.78.38,2.04.62.75.69,1.51,1.99,1.41,3.24-.04.56-.27.99-.64,1.22l-1.22.7c-.05.03-.11.04-.16.04Z"/>
      <path class="cls-4" d="M10.34,32.61c.26,1.28-.31,2.11-1.29,1.85-.98-.26-1.99-1.51-2.25-2.8-.26-1.28.32-2.11,1.3-1.85.98.26,1.98,1.51,2.24,2.8Z"/>
      <path class="cls-2" d="M7.75,30.07c-.15,0-.3.04-.44.16-.26.25-.34.76-.22,1.37.23,1.16,1.17,2.33,2.02,2.56.29.08.53.04.7-.12.26-.25.35-.76.23-1.37h0c-.24-1.16-1.17-2.33-2.03-2.56-.08-.02-.17-.04-.26-.04h0ZM9.4,34.82c-.14,0-.28-.02-.42-.06-1.09-.29-2.18-1.62-2.47-3.03-.18-.83-.03-1.54.4-1.94.32-.31.78-.4,1.28-.27,1.1.3,2.18,1.63,2.47,3.03h0c.17.83.03,1.54-.4,1.94-.24.21-.52.33-.85.33Z"/>
      <path class="cls-1" d="M17.37,17.58c-.09-.06-.23,0-.32.07-.19.14-.35.44-.32.68,0,.07.04.15.1.19l18.32,10.58v-1.25l-17.78-10.27Z"/>
      <path class="cls-2" d="M17.27,17.88c-.16.12-.25.3-.24.41l17.81,10.27v-.54l-17.57-10.14h0ZM35.15,29.4c-.05,0-.1-.01-.15-.04l-18.32-10.58c-.15-.09-.23-.24-.26-.42-.04-.38.19-.77.44-.96.22-.17.46-.2.65-.1,0,0,0,0,0,0l17.78,10.26c.09.06.15.16.15.27v1.25c0,.11-.06.21-.15.27-.05.03-.1.04-.16.04Z"/>
      <path class="cls-1" d="M17.68,21.61c0,.11-.12.2-.22.24-.22.09-.56.08-.75-.06-.06-.04-.11-.11-.11-.18V4.97l1.09.63v16.02Z"/>
      <path class="cls-2" d="M17.68,21.61h0,0ZM16.91,5.5v16.11c.08,0,.3.02.43-.04h.03s0-15.8,0-15.8l-.46-.27h0ZM17.14,22.22c-.22,0-.43-.06-.61-.18-.15-.11-.23-.26-.23-.42V4.97c0-.11.06-.21.15-.26.09-.06.21-.06.3,0l1.08.62c.1.06.16.16.16.27v16.02h0c0,.22-.16.42-.41.53-.13.05-.29.08-.45.08Z"/>
      <path class="cls-1" d="M17.4,20.92c-.1-.06-.23,0-.31.07-.19.14-.36.44-.32.67,0,.07.04.15.1.19l18.34,10.58.44-.99-18.24-10.53Z"/>
      <path class="cls-2" d="M17.31,21.22c-.15.12-.25.3-.24.41l17.99,10.37.2-.43-17.95-10.36h0ZM35.2,32.75c-.05,0-.11-.01-.16-.04l-18.33-10.58c-.15-.09-.24-.24-.26-.42-.04-.38.19-.76.44-.96.22-.17.46-.2.66-.09h0s18.25,10.53,18.25,10.53c.13.08.19.25.12.39l-.44.99c-.03.08-.11.14-.18.17-.04.01-.07.02-.1.02Z"/>
      <path class="cls-3" d="M19.5,36.91c.18-.1,1.17-.69,1.28-.73.58-.25,1.29.17,1.7.56.76.7,1.41,1.94,1.32,2.98-.04.37-.18.78-.51.99l-1.21.7c.23-.16.36-.35.44-.62.24-.84-.16-1.92-.63-2.62-.4-.6-1.12-1.31-1.88-1.36-.2-.01-.35.02-.52.1Z"/>
      <path class="cls-2" d="M20.6,36.64c.63.26,1.2.83,1.56,1.36.44.65.87,1.69.73,2.6l.26-.15c.27-.17.34-.54.35-.74.09-.99-.55-2.12-1.21-2.73-.38-.34-.96-.68-1.39-.5-.03.02-.15.08-.29.17h0ZM22.09,41.72c-.1,0-.21-.05-.26-.14-.08-.14-.05-.32.09-.42.15-.11.25-.24.31-.46.21-.71-.14-1.7-.58-2.36-.37-.54-1.01-1.18-1.64-1.23-.14,0-.24.01-.38.07-.15.07-.33,0-.41-.14-.07-.14-.02-.33.12-.41l.19-.11c.76-.45,1.04-.6,1.12-.64.87-.36,1.78.38,2.03.62.76.69,1.52,1.99,1.42,3.24-.05.55-.27.99-.65,1.22l-1.22.7s-.1.04-.15.04Z"/>
      <path class="cls-4" d="M22.54,39.66c.26,1.28-.32,2.11-1.29,1.85-.98-.26-1.99-1.51-2.25-2.8-.26-1.28.32-2.11,1.29-1.85.98.26,1.99,1.51,2.25,2.79Z"/>
      <path class="cls-2" d="M19.94,37.12c-.16,0-.31.05-.42.16-.26.25-.34.76-.22,1.37.23,1.16,1.17,2.33,2.02,2.56.3.08.53.04.69-.12.26-.25.35-.76.22-1.37-.23-1.16-1.16-2.33-2.03-2.56-.09-.03-.18-.04-.27-.04h0ZM21.59,41.86c-.14,0-.28-.02-.43-.06-1.1-.3-2.19-1.63-2.48-3.03-.17-.83-.02-1.54.41-1.94.32-.31.78-.4,1.28-.27,1.09.29,2.18,1.63,2.47,3.03h0c.16.83.02,1.54-.41,1.94-.23.22-.52.33-.84.33Z"/>
      <path class="cls-2" d="M24.6,21.88c-.05,0-.11-.02-.16-.04L3.71,9.86c-.15-.08-.2-.27-.11-.42.08-.15.27-.2.42-.11l20.74,11.97c.15.08.19.27.11.42-.06.1-.17.15-.27.15Z"/>
      <path class="cls-2" d="M35.41,15.53c-.05,0-.1-.01-.15-.04L14.33,3.4c-.15-.08-.2-.27-.11-.42.09-.15.27-.2.42-.11l20.93,12.08c.15.08.19.27.11.42-.06.1-.17.15-.27.15Z"/>
      <path class="cls-2" d="M24.6,21.88c-.11,0-.21-.06-.27-.15-.08-.15-.03-.34.11-.42l10.83-6.25c.15-.08.34-.03.42.11.09.15.03.34-.11.42l-10.82,6.25c-.05.03-.1.04-.15.04Z"/>
      <path class="cls-2" d="M17.04,30.7c-.1,0-.21-.05-.27-.15-.09-.15-.03-.33.11-.42l18.39-10.62c.15-.08.34-.04.42.11.09.15.03.34-.11.42l-18.38,10.62c-.05.03-.1.04-.16.04Z"/>
      <path class="cls-2" d="M24.6,30.53c-.11,0-.21-.05-.27-.15-.08-.15-.03-.33.11-.42l10.83-6.25c.15-.09.34-.04.42.11.09.15.03.34-.11.42l-10.82,6.25c-.05.03-.1.04-.15.04Z"/>
      <path class="cls-2" d="M6.51,11.38c-.11,0-.21-.06-.26-.15-.09-.15-.03-.33.11-.42l10.82-6.25c.15-.08.34-.03.42.11.08.15.04.34-.11.42l-10.83,6.25c-.05.03-.1.04-.16.04Z"/>
      <path class="cls-2" d="M6.51,15.84c-.11,0-.21-.06-.26-.15-.09-.15-.03-.33.11-.42l10.09-5.83c.14-.08.33-.04.42.11.09.15.04.34-.11.42l-10.09,5.82c-.05.03-.1.04-.16.04Z"/>
      <path class="cls-2" d="M6.51,20.04c-.11,0-.21-.05-.26-.15-.09-.15-.03-.33.11-.42l10.09-5.83c.14-.09.33-.04.42.11.09.15.04.33-.11.42l-10.09,5.82c-.05.03-.1.04-.16.04Z"/>
      <path class="cls-2" d="M6.5,28.53c-.18,0-.31-.14-.31-.31V11.13c0-.17.14-.31.31-.31.16,0,.3.14.3.31v17.09c0,.17-.14.31-.3.31Z"/>
      <path class="cls-2" d="M24.6,22.5c-.17,0-.3-.14-.3-.31v-13.22c0-.17.14-.31.3-.31s.31.14.31.31v13.22c0,.17-.14.31-.31.31Z"/>
      <path class="cls-2" d="M24.53,38.94c-.05,0-.1-.01-.16-.04L6.35,28.49c-.15-.08-.2-.28-.11-.42.09-.15.28-.2.42-.11l18.04,10.41c.15.08.19.27.11.42-.06.1-.17.15-.27.15Z"/>
      <path class="cls-2" d="M35.43,29.02c-.17,0-.31-.14-.31-.31v-13.39c0-.17.14-.31.31-.31s.3.14.3.31v13.39c0,.17-.14.31-.3.31Z"/>
      <path class="cls-2" d="M17.34,30.9c-.17,0-.31-.14-.31-.31v-8.44c0-.17.13-.31.31-.31s.3.14.3.31v8.44c0,.17-.13.31-.3.31Z"/>
      <path class="cls-2" d="M24.58,26.27c-.05,0-.1-.02-.15-.04L6.36,15.79c-.15-.08-.2-.27-.11-.42.08-.15.27-.2.42-.11l18.07,10.43c.15.09.2.27.11.42-.05.1-.16.16-.27.16Z"/>
      <path class="cls-2" d="M24.64,30.46c-.05,0-.1-.01-.15-.04L6.35,19.94c-.15-.08-.2-.27-.11-.42.09-.15.28-.2.42-.11l18.15,10.47c.15.08.19.27.11.42-.06.1-.17.16-.27.16Z"/>
      <path class="cls-2" d="M35.43,20.03c-.05,0-.11-.02-.16-.04l-17.74-10.24c-.15-.08-.2-.27-.12-.42.09-.15.27-.2.42-.11l17.74,10.24c.15.09.2.27.11.42-.05.1-.16.16-.26.16Z"/>
      <path class="cls-2" d="M35.6,24.54c-.05,0-.11-.01-.16-.04l-17.91-10.34c-.15-.09-.2-.27-.12-.42.09-.15.27-.2.42-.11l17.91,10.34c.15.08.2.27.11.42-.05.1-.16.16-.26.16Z"/>
      <path class="cls-2" d="M21.18,33.23c-.17,0-.31-.14-.31-.31v-11.88l-10.23,5.91c-.1.05-.22.05-.31,0-.09-.06-.15-.16-.15-.27V8.78c0-.17.14-.31.31-.31s.3.14.3.31v17.37l10.08-5.82V7.05c0-.17.14-.31.31-.31s.3.14.3.31v13.45h0v12.42c0,.17-.14.31-.3.31Z"/>
      <path class="cls-2" d="M13.72,32.7c-.17,0-.31-.14-.31-.31v-3.95h0V6.92c0-.17.14-.31.31-.31s.3.14.3.31v20.98l10.33-5.96c.14-.09.33-.04.42.11.09.15.03.34-.11.42l-10.63,6.14v3.78c0,.17-.14.31-.3.31Z"/>
      <path class="cls-2" d="M28.5,33.03c-.17,0-.31-.14-.31-.31V11.23c0-.17.14-.31.31-.31s.3.14.3.31v21.5c0,.17-.14.31-.3.31Z"/>
      <path class="cls-2" d="M32.12,30.75c-.17,0-.31-.14-.31-.31V13.38c0-.17.14-.31.31-.31s.3.14.3.31v17.07c0,.17-.14.31-.3.31Z"/>
      <path class="cls-1" d="M7.12,28.08c0,.12-.13.2-.22.24-.22.09-.56.08-.75-.06-.05-.04-.11-.11-.11-.18V11.44l1.08.62v16.02Z"/>
      <path class="cls-2" d="M6.35,11.97v16.11c.08,0,.3.02.43-.04h.03s0-15.8,0-15.8l-.46-.27h0ZM6.57,28.69c-.22,0-.43-.06-.61-.18-.15-.1-.24-.26-.24-.42V11.44c0-.11.06-.22.16-.27.09-.06.21-.06.3,0l1.08.62c.1.05.16.16.16.27v16.02h0c0,.23-.17.42-.41.53-.13.05-.28.08-.44.08Z"/>
      <path class="cls-1" d="M6.84,24.04c-.1-.06-.24,0-.33.07-.18.14-.35.44-.31.68.01.07.04.15.1.19l18.31,10.57v-1.25l-6.88-3.97-10.88-6.29Z"/>
      <path class="cls-2" d="M6.74,24.34c-.16.12-.25.3-.23.42l17.79,10.25v-.54L6.74,24.34h0ZM24.6,35.85c-.05,0-.11-.02-.16-.04L6.15,25.24c-.15-.09-.24-.24-.26-.42-.04-.38.19-.77.44-.96.22-.17.46-.2.66-.1h0s17.77,10.26,17.77,10.26c.1.06.16.16.16.27v1.25c0,.11-.06.21-.16.27-.05.03-.1.04-.15.04Z"/>
      <path class="cls-1" d="M6.84,27.39c-.1-.06-.24,0-.33.07-.18.14-.35.44-.31.68.01.07.04.15.1.19l18.31,10.57v-1.25l-6.88-3.96-10.88-6.29Z"/>
      <path class="cls-2" d="M6.74,27.69c-.16.12-.25.3-.23.41l17.79,10.26v-.54L6.74,27.69h0ZM24.6,39.2c-.05,0-.11-.02-.16-.04L6.15,28.6c-.15-.09-.24-.24-.26-.42-.04-.38.19-.77.44-.96.22-.17.46-.2.66-.09h0s17.77,10.26,17.77,10.26c.1.06.16.16.16.26v1.25c0,.11-.06.21-.16.27-.05.03-.1.04-.15.04Z"/>
      <path class="cls-1" d="M35.39,28.14l-10.79,6.23v1.17l11.3-6.52c.17-.11.09-.38.03-.53-.09-.17-.32-.45-.53-.35Z"/>
      <path class="cls-2" d="M24.91,34.55v.46l10.78-6.22s-.02-.1-.04-.16c-.03-.07-.1-.15-.15-.18l-10.58,6.11h0ZM24.6,35.85c-.05,0-.11-.02-.16-.04-.1-.06-.15-.16-.15-.27v-1.17c0-.11.05-.21.15-.27l10.79-6.23s.02,0,.02-.01c.37-.17.76.12.94.49.18.39.13.75-.13.92l-11.31,6.53c-.05.03-.1.04-.15.04Z"/>
      <path class="cls-1" d="M13.81,2.11c-.11-.06-.24,0-.32.07-.19.14-.35.44-.32.68.01.07.04.15.11.19l21.98,12.69.12-1.18-.62-.36L13.81,2.11Z"/>
      <path class="cls-2" d="M13.72,2.41c-.16.12-.25.3-.23.41l21.51,12.41.05-.51L13.72,2.41h0ZM35.25,16.04c-.05,0-.11-.01-.16-.04L13.12,3.31c-.14-.09-.23-.24-.25-.42-.04-.37.19-.77.44-.96.22-.17.46-.2.65-.09h.01l21.55,12.45c.1.06.17.18.16.3l-.12,1.18c0,.11-.07.2-.16.24-.04.02-.09.03-.14.03Z"/>
      <path class="cls-1" d="M35.47,31.45l-10.87,6.28v1.17l11.38-6.57c.31-.2-.17-1.04-.5-.88Z"/>
      <path class="cls-2" d="M24.91,37.9v.46l10.85-6.27c0-.1-.11-.29-.19-.34l-10.67,6.16h0ZM24.6,39.2c-.05,0-.11-.02-.16-.04-.1-.06-.15-.16-.15-.27v-1.17c0-.11.05-.21.15-.27l10.87-6.28s.02,0,.03-.01c.3-.15.67.02.9.43.23.4.19.8-.09.98l-11.4,6.58c-.05.03-.1.04-.15.04Z"/>
      <path class="cls-1" d="M25.15,35.12c0,.12-.12.2-.22.24-.23.09-.56.08-.75-.06-.06-.04-.11-.11-.11-.18v-13.72l1.08-.22v13.93Z"/>
      <path class="cls-2" d="M25.15,35.12h0,0ZM24.37,21.65v13.46c.08,0,.3.02.43-.04h.04s0-13.52,0-13.52l-.47.09h0ZM24.6,35.73c-.21,0-.44-.05-.6-.18-.15-.11-.24-.26-.24-.42v-13.72c0-.15.1-.27.25-.3l1.08-.22c.09-.02.18,0,.26.06.07.06.11.15.11.24v13.93h0c0,.23-.16.42-.41.53-.12.05-.28.08-.44.08Z"/>
      <path class="cls-1" d="M3.26,8.56c-.11-.05-.23,0-.32.07-.19.15-.35.44-.32.68,0,.07.04.15.11.19l21.88,12.63v-1.25L3.26,8.56Z"/>
      <path class="cls-2" d="M3.17,8.86c-.17.12-.25.3-.24.41l21.37,12.32v-.54L3.17,8.86h0ZM24.6,22.43c-.05,0-.11-.02-.16-.04L2.57,9.76c-.14-.09-.23-.24-.25-.42-.04-.38.19-.77.44-.96.22-.17.46-.2.65-.09h0s21.34,12.33,21.34,12.33c.1.05.16.15.16.26v1.25c0,.11-.06.21-.16.27-.05.03-.1.04-.15.04Z"/>
      <path class="cls-1" d="M36.04,28.75c-.01.12-.13.2-.23.25-.22.09-.56.08-.75-.06-.05-.04-.11-.11-.11-.18v-12.72l1.09-.76v13.48Z"/>
      <path class="cls-2" d="M35.26,16.19v12.56c.08,0,.3.02.44-.04h.03s0-12.85,0-12.85l-.46.32h0ZM35.49,29.36c-.22,0-.44-.06-.61-.18-.15-.11-.23-.26-.23-.42v-12.73c0-.1.04-.19.13-.25l1.08-.76c.09-.07.22-.08.32-.02.11.05.17.16.17.27v13.48h0c-.01.23-.16.42-.41.53-.13.05-.29.08-.44.08Z"/>
      <path class="cls-1" d="M35.52,14.53l-10.96,6.33v1.17l11.47-6.62c.17-.11.09-.38.03-.53-.09-.16-.32-.45-.53-.35Z"/>
      <path class="cls-2" d="M24.88,21.04v.46l10.94-6.32s-.02-.1-.04-.16c-.04-.07-.11-.15-.16-.18l-10.74,6.21h0ZM24.56,22.33c-.05,0-.11-.01-.15-.04-.1-.06-.16-.16-.16-.27v-1.17c0-.11.06-.21.16-.27l10.95-6.32s.02-.01.03-.01c.36-.18.76.12.93.49.18.39.13.75-.13.92l-11.47,6.63c-.05.03-.1.04-.16.04Z"/>
      <path class="cls-4" d="M1.51,9.47c-.13-.22-.3-.42-.5-.53-.19-.11-.36-.12-.5-.05-.13.08-.21.23-.21.46s.08.47.21.7c.13.22.3.41.5.53.2.12.37.12.5.05.13-.07.21-.23.21-.46s-.08-.48-.21-.7Z"/>
      <path class="cls-2" d="M.69,9.16s-.02,0-.02,0c-.03.02-.05.08-.05.19,0,.16.06.36.16.54.11.18.24.33.38.41.11.06.17.06.19.05.03-.01.05-.07.05-.19,0-.17-.06-.36-.17-.55h0c-.1-.18-.24-.33-.38-.41-.08-.04-.13-.05-.17-.05h0ZM1.33,10.98c-.15,0-.31-.05-.47-.14-.24-.14-.46-.36-.62-.64-.16-.28-.24-.58-.24-.85,0-.33.13-.59.36-.73.24-.13.53-.11.81.05.24.14.45.36.62.64.16.28.24.58.24.85,0,.33-.13.59-.36.72-.1.06-.22.09-.34.09Z"/>
      <path class="cls-3" d="M15.81.4c-.15-.08-.33-.14-.49-.06l-1.64.95L.52,8.89c.13-.06.25-.05.38,0,.13.06.24.13.34.23.17.17.3.37.38.59.05.14.09.29.09.44,0,.18-.04.37-.2.47L16.32,2.08c.37-.24.12-.94-.05-1.21-.12-.19-.27-.35-.46-.46Z"/>
      <path class="cls-2" d="M1.32,8.79s.08.07.13.11c.2.2.36.43.46.7.05.14.09.26.1.38L16.17,1.81c.11-.07,0-.51-.16-.78-.11-.16-.22-.28-.36-.36-.05-.03-.15-.07-.19-.05L1.32,8.79h0ZM1.52,10.93c-.1,0-.2-.05-.26-.15-.09-.14-.04-.33.1-.42.05-.03.05-.16.05-.21,0-.1-.02-.21-.07-.34-.08-.18-.18-.35-.31-.48-.09-.08-.16-.13-.24-.16-.09-.03-.11-.02-.13-.01-.15.08-.33.02-.41-.13-.08-.15-.03-.33.12-.41L15.17.08c.17-.09.44-.14.79.05h0c.22.14.41.32.57.57.28.45.51,1.28-.04,1.64L1.68,10.89c-.05.03-.1.04-.15.04Z"/>
      <path class="cls-1" d="M16.94,4.56l-10.31,5.95,1.01.59,9.81-5.66c.15-.11.09-.38.02-.53-.08-.16-.31-.45-.53-.35Z"/>
      <path class="cls-2" d="M7.25,10.51l.4.23,9.59-5.54s-.02-.1-.04-.17c-.03-.07-.1-.15-.15-.18l-9.8,5.65h0ZM7.65,11.4c-.05,0-.1-.02-.15-.04l-1.01-.58c-.09-.06-.16-.16-.16-.27s.06-.21.16-.27l10.31-5.95s0,0,.02-.01c.36-.17.76.12.94.49.18.39.13.75-.13.92l-9.81,5.67c-.05.03-.11.04-.16.04Z"/>
      <path class="cls-1" d="M14.29,31.59c0,.08-1.06.48-1.09-.52v-2.11l1.09.62v2Z"/>
      <path class="cls-2" d="M13.52,29.5v1.57c0,.17.04.28.12.32.1.05.24.03.34,0v-1.64l-.46-.27h0ZM13.79,32.05h0c-.42,0-.88-.26-.9-.97v-2.11c0-.11.06-.21.16-.27.09-.05.21-.05.3,0l1.08.62c.1.05.16.16.16.27v2h0c-.02.44-.79.46-.8.46Z"/>
    </g>
  </g>
</svg>