<?xml version="1.0" encoding="UTF-8"?>
<svg id="Layer_2" data-name="Layer 2" xmlns="http://www.w3.org/2000/svg" viewBox="0 0 31.16 40.37" fill="currentColor">
  <defs>
    <style>
      .cls-1 {
        fill: #fff;
      }

      .cls-1, .cls-2, .cls-3, .cls-4 {
        fill-rule: evenodd;
      }

      .cls-2 {
        fill: #1a87c7;
      }

      .cls-3 {
        fill: #bdedf8;
      }

      .cls-4 {
        fill: #66ceef;
      }
    </style>
  </defs>
  <g id="_Layer_" data-name="&amp;lt;Layer&amp;gt;">
    <g>
      <path class="cls-4" d="M3.88,13.8c-1.44,1.45-2.78,3.77-3.56,5.7,2.17,4.1,2.62,9.27,1.05,13.32.68,1.16,1.57,2.35,2.51,3.3,1.47,1.46,3.22,2.63,5.14,3.43,1.86.76,3.9.44,6.05.44s4.16.32,6.02-.44c1.94-.8,3.67-1.97,5.14-3.43,1.44-1.45,2.62-3.19,3.41-5.12.79-1.86,1.21-3.9,1.21-6.04s-.42-4.18-1.21-6.04c-.79-1.93-1.96-3.67-3.41-5.12-4.09-4.08-7.07-2.03-10.93-2.03s-7.52-1.87-11.42,2.03Z"/>
      <path class="cls-2" d="M1.71,32.8c.68,1.14,1.55,2.24,2.41,3.1,1.44,1.45,3.14,2.58,5,3.36,1.39.56,2.88.51,4.45.45.97-.03,1.99-.03,2.96,0,1.6.06,3.09.11,4.45-.45,1.86-.78,3.56-1.91,5-3.36,1.47-1.45,2.59-3.14,3.38-5.02.76-1.88,1.15-3.87,1.15-5.92s-.39-4.04-1.15-5.92c-.79-1.89-1.91-3.57-3.38-5.02-2.91-2.92-5.19-2.59-7.81-2.21-.92.13-1.86.27-2.88.27-.92,0-1.86-.11-2.75-.23-2.88-.35-5.58-.68-8.44,2.16-1.47,1.47-2.75,3.77-3.46,5.47,2.18,4.2,2.57,9.26,1.05,13.31h0ZM12.19,40.37c-1.15,0-2.23-.1-3.27-.53-1.96-.82-3.72-1.99-5.24-3.5-.94-.94-1.86-2.13-2.57-3.35-.05-.08-.05-.18-.03-.27,1.55-3.95,1.13-8.95-1.05-13.06-.03-.09-.05-.18,0-.26.73-1.78,2.07-4.24,3.64-5.81h0c3.07-3.06,6.05-2.69,8.96-2.34.92.11,1.78.22,2.67.22.97,0,1.89-.14,2.8-.27,2.67-.38,5.19-.75,8.33,2.39,1.49,1.5,2.7,3.26,3.48,5.23.81,1.95,1.23,4.02,1.23,6.15s-.42,4.2-1.23,6.15c-.79,1.96-1.99,3.72-3.48,5.22-1.52,1.51-3.28,2.69-5.21,3.49-1.49.62-3.06.57-4.72.51-.94-.04-1.97-.04-2.91,0-.5.02-.97.03-1.42.03Z"/>
      <path class="cls-3" d="M16.85,37.68c7.47,0,13.55-6.07,13.55-13.57,0-4.89-2.59-9.17-6.47-11.55-.45-.3-.94-.37-1.44-.33-1.68.15-3.77,2.7-5.79,2.7-2.44,0-4.53-1.57-6.55-1.44-1.28.09-2.44.49-3.41,1.56-2.15,2.4-3.46,5.57-3.46,9.05,0,7.49,6.08,13.57,13.57,13.57Z"/>
      <path class="cls-2" d="M10.4,13.81c-.08,0-.16,0-.24,0-1.36.09-2.38.56-3.2,1.46-2.17,2.43-3.38,5.57-3.38,8.84,0,7.31,5.95,13.25,13.26,13.25s13.26-5.94,13.26-13.25c0-4.63-2.38-8.86-6.34-11.29-.37-.24-.79-.33-1.26-.29-.71.07-1.52.62-2.38,1.2-1.1.74-2.23,1.5-3.43,1.5s-2.41-.4-3.54-.79c-.97-.33-1.89-.64-2.75-.64h0ZM16.85,37.99c-7.65,0-13.89-6.22-13.89-13.87,0-3.42,1.26-6.7,3.54-9.25.94-1.03,2.1-1.56,3.62-1.67,1.07-.08,2.12.29,3.22.68,1.07.36,2.2.75,3.35.75,1,0,2.07-.71,3.09-1.4.94-.63,1.83-1.22,2.67-1.29.6-.05,1.15.06,1.65.36,4.14,2.55,6.6,6.97,6.6,11.82,0,7.65-6.21,13.87-13.86,13.87Z"/>
      <path class="cls-1" d="M26.36,18.04c-3.59-4.72-9.09-3.2-9.09,2.56,0,3.41,2.75,6.18,6.18,6.18,5.58,0,5.42-5.42,2.91-8.73Z"/>
      <path class="cls-2" d="M21.57,15.55c-.42,0-.81.06-1.2.2-1.76.59-2.8,2.4-2.8,4.85,0,3.24,2.65,5.87,5.89,5.87,1.91,0,3.25-.67,3.88-1.94.84-1.68.34-4.28-1.2-6.3h0c-1.34-1.73-2.99-2.69-4.56-2.69h0ZM23.45,27.09c-3.59,0-6.5-2.91-6.5-6.49,0-2.72,1.21-4.76,3.2-5.44,2.18-.72,4.64.31,6.45,2.7h0c1.7,2.21,2.23,5.07,1.28,6.95-.52,1.04-1.7,2.29-4.43,2.29Z"/>
      <path class="cls-4" d="M18.11,9.44c-.08-6.28,2.93-7.85,10.79-9.13-.84,6.95-6.45,10.81-10.79,9.13Z"/>
      <path class="cls-2" d="M18.42,9.23c1.68.58,3.54.32,5.29-.73,2.54-1.51,4.32-4.42,4.82-7.82-7.44,1.24-10.14,2.8-10.11,8.54h0ZM20.23,10.14c-.76,0-1.52-.14-2.23-.42-.11-.04-.18-.16-.18-.28C17.72,2.87,20.99,1.28,28.85,0c.11-.02.21.02.26.09.08.06.11.16.08.26-.42,3.75-2.36,7.01-5.14,8.67-1.23.73-2.54,1.11-3.83,1.11Z"/>
      <path class="cls-2" d="M15.91,11.5c-.08,0-.18-.03-.24-.11-.1-.13-.08-.32.05-.43l2.2-1.78c.13-.11.31-.09.42.04.1.13.1.33-.05.43l-2.18,1.78c-.08.05-.13.07-.21.07Z"/>
      <path class="cls-2" d="M16.25,13.78c-.18,0-.31-.14-.31-.3,0-2.13-.71-3.71-1.99-4.45-1.28-.75-3.01-.57-4.85.47-.13.09-.31.03-.39-.11-.1-.15-.05-.33.11-.42,2.02-1.16,3.96-1.33,5.45-.48,1.47.86,2.28,2.63,2.28,4.99,0,.17-.13.3-.29.3Z"/>
      <path class="cls-2" d="M18.11,9.71c-.08,0-.16-.03-.24-.11-.11-.13-.08-.32.05-.43L28.69.07c.13-.1.34-.09.45.03.1.13.08.33-.03.43l-10.79,9.1c-.05.04-.13.07-.21.07Z"/>
      <path class="cls-2" d="M24.71,8.51s-.05,0-.08,0l-3.98-1c-.13-.03-.24-.15-.24-.29l-.05-4.32c0-.18.13-.31.29-.31.21,0,.31.13.31.3l.05,4.09,3.75.95c.18.03.29.21.24.37-.03.14-.16.23-.29.23Z"/>
      <path class="cls-2" d="M24.06,4.71c-.18,0-.31-.13-.31-.3l-.13-3.02c0-.17.13-.31.29-.32.18,0,.31.12.31.3l.13,3.02c.03.17-.11.31-.29.32h0Z"/>
      <path class="cls-2" d="M27.15,5.21s-.05,0-.05,0l-3.09-.5c-.18-.03-.29-.18-.26-.36.03-.16.18-.29.37-.25l3.07.5c.18.03.29.19.26.36-.03.15-.16.26-.29.26Z"/>
      <path class="cls-1" d="M3.75,18.82c3.38.09,4.98,2.9,4.98,7.67,0,2.14-1.13,1.52-1.78,3.07-.81,1.91-1.55,4.31-3.35,4.31-.97,0-1.65-.4-2.23-1.05.42-1.56.68-3.37.68-5.31,0-3.19-.68-6.06-1.73-8.01.81-.65,1.94-.71,3.43-.68Z"/>
      <path class="cls-2" d="M1.71,32.75c.52.56,1.15.82,1.89.82,1.39,0,2.1-1.76,2.8-3.46.08-.23.18-.44.26-.66.31-.7.71-1.02,1.02-1.28.42-.32.73-.56.73-1.67,0-4.82-1.57-7.29-4.66-7.36h0c-1.41-.03-2.33.03-3.04.46,1.05,2.06,1.65,4.93,1.65,7.92,0,1.83-.24,3.63-.65,5.23h0ZM3.59,34.18c-.97,0-1.78-.37-2.46-1.15-.05-.08-.08-.19-.05-.29.42-1.58.65-3.39.65-5.23,0-3.02-.6-5.88-1.7-7.86-.05-.13-.03-.3.08-.39.97-.75,2.23-.78,3.67-.74h0c2.38.06,5.27,1.49,5.27,7.98,0,1.41-.5,1.79-.97,2.16-.31.24-.6.47-.84,1.03-.08.21-.18.43-.26.65-.73,1.8-1.57,3.84-3.38,3.84Z"/>
    </g>
  </g>
</svg>