<?xml version="1.0" encoding="UTF-8"?>
<svg id="Layer_2" data-name="Layer 2" xmlns="http://www.w3.org/2000/svg" viewBox="0 0 97.88 88.44" fill="currentColor">
  <defs>
    <style>
      .cls-1 {
        fill: #fff;
      }

      .cls-1, .cls-2, .cls-3, .cls-4 {
        fill-rule: evenodd;
      }

      .cls-2 {
        fill: #1a87c7;
      }

      .cls-3 {
        fill: #bdedf8;
      }

      .cls-4 {
        fill: #66ceef;
      }
    </style>
  </defs>
  <g id="_Layer_" data-name="&amp;lt;Layer&amp;gt;">
    <g>
      <path class="cls-1" d="M87.51,70.67c2.51,0,4.56-2.03,4.56-4.55s-2.04-4.54-4.56-4.54-4.56,2.03-4.56,4.54,2.04,4.55,4.56,4.55Z"/>
      <path class="cls-2" d="M87.51,62.19c-2.15,0-3.93,1.77-3.93,3.93s1.78,3.93,3.93,3.93,3.93-1.76,3.93-3.93-1.78-3.93-3.93-3.93h0ZM87.51,71.28c-2.83,0-5.19-2.31-5.19-5.16s2.36-5.16,5.19-5.16,5.14,2.32,5.14,5.16-2.31,5.16-5.14,5.16Z"/>
      <path class="cls-3" d="M92.17,73.82c-.05-2.54-2.15-4.59-4.66-4.59s-4.66,2.04-4.72,4.59h0v11.65c.05.64.05,1,1.42,1.78,1.31.77,5.29.77,6.6,0,1.36-.78,1.31-1.13,1.36-1.78v-11.65Z"/>
      <path class="cls-2" d="M83.42,73.9v11.58c.05.49.05.66,1.05,1.24,1.15.66,4.87.66,6.03,0,1-.58,1.05-.75,1.05-1.21l.05-11.61v-.06c-.05-2.2-1.89-3.98-4.09-3.98s-4.03,1.79-4.09,3.98v.06h0ZM87.51,88.44c-1.42,0-2.88-.22-3.62-.66-1.47-.84-1.62-1.38-1.68-2.17l-.05-11.79s.05-.07.05-.1c.11-2.82,2.46-5.1,5.29-5.1s5.19,2.28,5.29,5.1v11.75c-.05.93-.21,1.47-1.68,2.31-.79.44-2.2.66-3.62.66Z"/>
      <path class="cls-3" d="M87.51,70.67c2.51,0,4.56-2.03,4.56-4.55s-2.04-4.54-4.56-4.54-4.56,2.03-4.56,4.54,2.04,4.55,4.56,4.55Z"/>
      <path class="cls-2" d="M87.51,62.19c-2.15,0-3.93,1.77-3.93,3.93s1.78,3.93,3.93,3.93,3.93-1.76,3.93-3.93-1.78-3.93-3.93-3.93h0ZM87.51,71.28c-2.83,0-5.19-2.31-5.19-5.16s2.36-5.16,5.19-5.16,5.14,2.32,5.14,5.16-2.31,5.16-5.14,5.16Z"/>
      <path class="cls-4" d="M21.54,29.87v23.6l.16.76c.37,1.58,1.26,3.14,2.25,4.41,2.2,2.72,5.5,4.78,8.7,6.13,10.22,4.34,24.84,4.14,34.74-1.02,2.67-1.39,5.34-3.35,7.07-5.83.73-1.09,1.41-2.41,1.73-3.7l.16-.75v-23.61c-.1.54-.21.99-.37,1.51-.58,1.59-1.52,3.12-2.67,4.36-3.2,3.53-8.23,5.82-12.79,7.03-9.01,2.43-20.44,1.93-28.98-2.09-3.3-1.55-6.71-3.91-8.59-7.07-.52-.88-1.05-1.98-1.26-2.98l-.16-.75Z"/>
      <path class="cls-2" d="M22.11,33.44v20.03l.16.63c.37,1.38,1.1,2.86,2.15,4.15,1.83,2.3,4.87,4.41,8.49,5.95,10.27,4.38,24.68,3.96,34.16-1,2.1-1.09,4.98-2.96,6.87-5.63.79-1.1,1.36-2.33,1.62-3.5l.16-.73v-19.91c-.52.94-1.15,1.87-1.94,2.72-3.88,4.26-9.9,6.34-13.1,7.21-9.64,2.59-21.17,1.75-29.4-2.13-2.83-1.34-6.71-3.69-8.86-7.31-.1-.15-.21-.31-.31-.48h0ZM48.89,68.45c-5.76,0-11.58-1.03-16.51-3.11-2.67-1.14-6.39-3.16-8.91-6.31-1.15-1.43-1.99-3.08-2.41-4.65l-.16-.78v-23.73c0-.32.21-.58.52-.61.31-.03.63.18.68.49l.16.76c.21.86.68,1.92,1.21,2.78,1.57,2.61,4.51,5.04,8.33,6.83,7.96,3.76,19.18,4.56,28.56,2.05,3.09-.83,8.85-2.82,12.47-6.85,1.2-1.27,2.04-2.75,2.51-4.14.16-.48.26-.9.37-1.39.05-.3.31-.54.68-.51.31.03.58.27.58.58v23.61l-.21.88c-.31,1.33-.94,2.72-1.78,3.93-2.04,2.88-5.14,4.86-7.34,6.02-5.24,2.76-12,4.15-18.76,4.15Z"/>
      <polygon class="cls-3" points="97.25 28.52 97.25 30.58 48.94 58.48 48.94 56.42 97.25 28.52"/>
      <path class="cls-2" d="M49.52,56.77v.64l47.11-27.19v-.64l-47.11,27.19h0ZM48.94,59.1c-.1,0-.21-.03-.31-.08-.21-.11-.31-.31-.31-.53v-2.06c0-.22.11-.42.31-.53l48.31-27.9c.21-.11.42-.11.63,0,.16.11.31.32.31.53v2.06c0,.22-.16.42-.31.53l-48.36,27.9c-.05.06-.16.08-.26.08Z"/>
      <polygon class="cls-4" points="48.94 56.42 48.94 58.48 .63 30.58 .63 28.52 48.94 56.42"/>
      <path class="cls-2" d="M1.21,30.23l47.11,27.19v-.64L1.21,29.58v.64h0ZM48.94,59.1c-.1,0-.21-.03-.31-.08L.31,31.11c-.21-.11-.31-.31-.31-.53v-2.06c0-.22.11-.42.31-.53.16-.11.42-.11.58,0l48.31,27.9c.21.11.31.31.31.53v2.06c0,.22-.11.42-.31.53-.05.06-.16.08-.26.08Z"/>
      <polygon class="cls-4" points="48.94 .62 97.25 28.52 48.94 56.42 .63 28.52 48.94 .62"/>
      <path class="cls-2" d="M1.83,28.52l47.11,27.19,47.11-27.19L48.94,1.33,1.83,28.52h0ZM48.94,57.04c-.1,0-.21-.03-.31-.08L.31,29.05c-.21-.11-.31-.32-.31-.53s.11-.42.31-.53L48.63.08c.21-.11.42-.11.58,0l48.36,27.9c.16.11.31.32.31.53s-.16.42-.31.53l-48.36,27.9c-.05.06-.16.08-.26.08Z"/>
      <path class="cls-2" d="M87.51,62.77c-.31,0-.63-.27-.63-.61v-16.61c0-6.77-4.82-12.42-11.53-13.43l-26.62-4.03c-.37-.05-.58-.37-.52-.7.05-.34.37-.57.68-.52l26.67,4.03c7.28,1.11,12.58,7.26,12.58,14.65v16.61c0,.34-.26.61-.63.61Z"/>
      <path class="cls-3" d="M53.08,25.03c-2.31-1.33-6.03-1.33-8.33,0-2.31,1.34-2.31,3.5,0,4.83,2.31,1.33,6.03,1.33,8.33,0,2.36-1.34,2.36-3.49,0-4.83Z"/>
      <path class="cls-2" d="M48.94,24.64c-1.41,0-2.83.31-3.88.92-.94.53-1.41,1.2-1.41,1.88s.47,1.35,1.41,1.88c2.15,1.23,5.61,1.23,7.76,0,.89-.53,1.41-1.2,1.41-1.88s-.52-1.35-1.41-1.88h0c-1.1-.61-2.51-.92-3.88-.92h0ZM48.94,31.48c-1.62,0-3.25-.36-4.51-1.09-1.31-.76-2.04-1.8-2.04-2.94s.73-2.19,2.04-2.95c2.52-1.45,6.45-1.45,8.96,0h0c1.31.76,2.04,1.81,2.04,2.95s-.73,2.19-2.04,2.94c-1.21.73-2.83,1.09-4.45,1.09Z"/>
    </g>
  </g>
</svg>