<?xml version="1.0" encoding="UTF-8"?>
<svg id="Layer_2" data-name="Layer 2" xmlns="http://www.w3.org/2000/svg" viewBox="0 0 40.58 44.12" fill="currentColor">
  <defs>
    <style>
      .cls-1 {
        fill: #fff;
      }

      .cls-1, .cls-2, .cls-3, .cls-4 {
        fill-rule: evenodd;
      }

      .cls-2 {
        fill: #1a87c7;
      }

      .cls-3 {
        fill: #bdedf8;
      }

      .cls-4 {
        fill: #66ceef;
      }
    </style>
  </defs>
  <g id="_Layer_" data-name="&amp;lt;Layer&amp;gt;">
    <g>
      <polygon class="cls-3" points="22.51 34.47 12.55 28.72 12.56 26.73 22.51 32.48 22.51 34.47"/>
      <path class="cls-2" d="M12.87,28.55l9.34,5.39v-1.28l-9.33-5.39v1.28h0ZM22.51,34.78c-.05,0-.11-.02-.16-.04l-9.94-5.75c-.09-.06-.16-.16-.16-.27v-1.99c0-.11.07-.21.17-.26.09-.06.21-.06.3,0l9.95,5.74c.09.06.15.16.15.27v1.99c0,.11-.06.21-.16.26-.05.03-.1.04-.15.04Z"/>
      <polygon class="cls-1" points="22.51 34.47 22.51 32.48 40.28 22.23 40.27 24.23 22.51 34.47"/>
      <path class="cls-2" d="M22.82,32.66v1.28l17.14-9.88v-1.28s-17.14,9.89-17.14,9.89h0ZM22.51,34.78c-.05,0-.11-.01-.16-.04-.1-.06-.15-.16-.15-.27v-1.99c0-.11.06-.21.15-.27l17.77-10.24c.09-.05.21-.05.3,0,.1.06.16.16.16.27v1.99c0,.11-.07.21-.16.27l-17.76,10.24c-.05.03-.1.04-.15.04Z"/>
      <polygon class="cls-1" points="30.34 16.48 40.28 22.23 39.07 22.93 30.34 17.89 30.34 16.48"/>
      <path class="cls-2" d="M30.65,17.71l8.42,4.87.59-.34-9.01-5.22v.69h0ZM39.07,23.24c-.05,0-.1-.02-.15-.04l-8.73-5.04c-.09-.05-.15-.16-.15-.26v-1.4c0-.11.06-.21.15-.27.1-.06.21-.06.3,0l9.94,5.75c.1.06.16.16.16.27s-.06.21-.16.26l-1.2.69c-.05.03-.1.04-.16.04Z"/>
      <polygon class="cls-1" points="13.78 27.44 12.56 26.73 30.34 16.48 30.34 17.89 13.78 27.44"/>
      <path class="cls-2" d="M13.18,26.73l.6.35,16.25-9.37v-.69l-16.85,9.72h0ZM13.78,27.74c-.05,0-.1-.02-.16-.04l-1.21-.7c-.09-.06-.16-.16-.16-.27s.06-.21.16-.26l17.77-10.25c.1-.06.21-.06.3,0,.1.06.16.16.16.27v1.4c0,.11-.06.21-.16.26l-16.56,9.55c-.05.03-.1.04-.15.04Z"/>
      <polygon class="cls-3" points="22.51 32.48 13.78 27.44 30.34 17.89 39.07 22.93 22.51 32.48"/>
      <path class="cls-2" d="M14.39,27.44l8.12,4.69,15.94-9.2-8.12-4.69-15.94,9.19h0ZM22.51,32.79c-.05,0-.1-.02-.16-.04l-8.73-5.04c-.09-.05-.15-.16-.15-.27s.05-.21.15-.27l16.57-9.55c.1-.06.21-.06.3,0l8.73,5.04c.1.05.16.16.16.26s-.06.21-.16.27l-16.56,9.55c-.05.03-.1.04-.16.04Z"/>
      <polygon class="cls-4" points="30.49 22.04 28.74 21.03 28.75 19.73 30.49 20.74 30.49 22.04"/>
      <path class="cls-2" d="M29.05,20.85l1.14.66v-.59l-1.14-.66v.59h0ZM30.49,22.35c-.05,0-.1-.01-.16-.04l-1.75-1.01c-.1-.05-.16-.16-.16-.26v-1.3c0-.11.06-.21.16-.27.09-.05.21-.05.3,0l1.76,1.01c.09.06.15.15.15.27v1.3c0,.11-.05.21-.15.27-.05.03-.1.04-.16.04Z"/>
      <polygon class="cls-3" points="30.49 20.74 28.75 19.73 30.42 18.74 32.19 19.76 30.49 20.74"/>
      <path class="cls-2" d="M29.35,19.72l1.14.66,1.08-.62-1.15-.67-1.06.63h0ZM30.49,21.05c-.05,0-.1-.01-.16-.04l-1.75-1.01c-.1-.05-.16-.15-.16-.26s.06-.21.16-.27l1.67-.99c.09-.06.22-.06.31,0l1.76,1.02c.1.05.16.16.16.27s-.05.21-.16.27l-1.69.98c-.05.03-.1.04-.16.04Z"/>
      <polygon class="cls-1" points="30.49 20.74 32.19 19.76 32.19 21.07 30.49 22.04 30.49 20.74"/>
      <path class="cls-2" d="M30.8,20.92v.59l1.08-.62v-.59l-1.08.62h0ZM30.49,22.35c-.05,0-.1-.01-.16-.04-.1-.06-.15-.16-.15-.27v-1.3c0-.11.05-.21.15-.27l1.69-.98c.1-.06.21-.06.31,0,.09.05.15.16.15.27v1.3c0,.11-.06.21-.16.27l-1.69.98c-.05.03-.1.04-.16.04Z"/>
      <polygon class="cls-4" points="22.51 36.86 12.56 31.11 12.55 28.72 22.51 34.47 22.51 36.86"/>
      <path class="cls-2" d="M12.87,30.93l9.33,5.39v-1.68l-9.34-5.39v1.67h0ZM22.51,37.16c-.05,0-.1-.01-.16-.04l-9.94-5.74c-.09-.06-.16-.15-.16-.26v-2.39c0-.11.05-.21.15-.27.1-.05.21-.05.31,0l9.96,5.75c.09.05.15.15.15.26v2.39c0,.11-.05.21-.15.26-.05.03-.1.04-.16.04Z"/>
      <polygon class="cls-4" points="22.51 36.86 22.51 34.47 40.27 24.23 40.28 26.76 22.51 36.86"/>
      <path class="cls-2" d="M22.82,34.65v1.68l17.15-9.75v-1.82s-17.15,9.89-17.15,9.89h0ZM22.51,37.16c-.05,0-.1-.01-.16-.04-.09-.05-.15-.16-.15-.26v-2.39c0-.11.06-.21.15-.27l17.76-10.24c.09-.06.21-.06.3,0,.09.05.16.15.16.26v2.53c0,.11-.05.21-.15.27l-17.77,10.1s-.09.04-.15.04Z"/>
      <polygon class="cls-3" points="22.51 43.81 12.55 38.06 12.56 31.11 22.51 36.86 22.51 43.81"/>
      <path class="cls-2" d="M12.87,37.89l9.34,5.39v-6.24l-9.33-5.39v6.24h0ZM22.51,44.12c-.05,0-.11-.01-.16-.04l-9.94-5.74c-.09-.06-.16-.16-.16-.27v-6.95c0-.11.07-.21.17-.27.09-.05.21-.05.3,0l9.95,5.75c.09.05.15.15.15.27v6.95c0,.11-.06.21-.16.27-.05.03-.1.04-.15.04Z"/>
      <polygon class="cls-1" points="22.51 43.81 22.51 36.86 40.28 26.62 40.27 33.57 22.51 43.81"/>
      <path class="cls-2" d="M22.82,37.03v6.24l17.14-9.89v-6.24s-17.14,9.89-17.14,9.89h0ZM22.51,44.12c-.05,0-.11-.01-.16-.04-.1-.06-.15-.16-.15-.27v-6.96c0-.11.06-.21.15-.27l17.77-10.24c.09-.05.21-.05.3,0,.1.06.16.15.16.27v6.96c0,.11-.07.21-.16.26l-17.76,10.24c-.05.03-.1.04-.15.04Z"/>
      <polygon class="cls-4" points="27.1 24 25.36 22.98 25.36 21.68 27.1 22.69 27.1 24"/>
      <path class="cls-2" d="M25.66,22.81l1.14.66v-.6l-1.14-.65v.59h0ZM27.1,24.3c-.05,0-.11-.01-.15-.04l-1.76-1.01c-.09-.06-.16-.16-.16-.27v-1.3c.01-.11.06-.21.16-.27.09-.05.22-.05.31,0l1.74,1.01c.1.06.16.15.16.27v1.3c0,.11-.06.21-.16.26-.04.03-.09.04-.15.04Z"/>
      <polygon class="cls-3" points="27.1 22.69 25.36 21.68 27.03 20.69 28.8 21.71 27.1 22.69"/>
      <path class="cls-2" d="M25.96,21.67l1.14.66,1.08-.62-1.15-.67-1.07.63h0ZM27.1,23c-.05,0-.11-.01-.15-.04l-1.76-1.01c-.09-.06-.15-.16-.15-.26s.05-.21.15-.27l1.67-.99c.09-.05.22-.05.31,0l1.77,1.02c.1.06.16.16.16.27s-.06.21-.16.27l-1.7.98s-.09.04-.15.04Z"/>
      <polygon class="cls-1" points="27.1 22.69 28.8 21.71 28.8 23.02 27.1 24 27.1 22.69"/>
      <path class="cls-2" d="M27.42,22.87v.6l1.08-.62v-.59l-1.08.62h0ZM27.1,24.3c-.05,0-.11-.01-.15-.04-.09-.05-.15-.16-.15-.26v-1.3c0-.11.06-.21.15-.27l1.69-.97c.1-.06.21-.06.3,0,.1.06.16.16.16.27v1.3c0,.11-.06.21-.16.27l-1.7.97s-.09.04-.15.04Z"/>
      <polygon class="cls-4" points="35.58 32.1 39.32 29.94 39.32 34.11 35.58 36.28 35.58 32.1"/>
      <path class="cls-2" d="M35.89,32.27v3.47s3.12-1.81,3.12-1.81v-3.47l-3.12,1.81h0ZM35.58,36.58c-.05,0-.1-.02-.16-.04-.09-.06-.15-.16-.15-.27v-4.18c0-.11.07-.21.17-.26l3.74-2.16c.1-.06.22-.06.31,0,.09.05.15.15.15.27v4.18c0,.11-.06.21-.16.27l-3.74,2.16s-.1.04-.15.04Z"/>
      <polygon class="cls-4" points="10.26 42.94 .31 37.19 .32 32.43 10.27 38.17 10.26 42.94"/>
      <path class="cls-2" d="M.62,37.01l9.34,5.39v-4.05S.63,32.96.63,32.96v4.05h-.01ZM10.26,43.24c-.05,0-.11-.01-.15-.04L.16,37.46c-.09-.06-.16-.16-.16-.27v-4.76c.01-.11.07-.21.17-.27.09-.05.21-.06.3,0l9.95,5.74c.1.06.16.16.16.27v4.76c0,.11-.07.21-.16.27-.05.03-.11.04-.16.04Z"/>
      <polygon class="cls-1" points="10.26 42.93 10.27 38.17 15.64 35.08 15.63 39.84 10.26 42.93"/>
      <path class="cls-2" d="M10.57,38.35v4.05s4.75-2.74,4.75-2.74v-4.05l-4.75,2.74h0ZM10.26,43.24c-.05,0-.11-.01-.16-.04-.1-.05-.16-.15-.16-.26v-4.76c0-.11.07-.21.17-.27l5.37-3.09c.09-.05.22-.05.31,0,.09.06.15.16.15.27v4.76c0,.11-.06.21-.16.27l-5.38,3.09s-.1.04-.15.04Z"/>
      <path class="cls-3" d="M15.62,3.52c.25-.61.48-1.05.87-1.6.83-1.03,2.13-2.09,3.44-1.4l1.14.66c-.52-.27-.86-.27-1.42-.13-.89.3-1.44.81-2.01,1.53-.39.55-.61.97-.86,1.59-.72.26-1.26.79-1.71,1.38-.35.04-.56.14-.85.32-.94.64-1.61,1.64-1.97,2.72-.11.41-.31,1.51.09,1.8l-1.14-.66c-.31-.22-.25-1.02-.2-1.36.18-.9.61-1.67,1.19-2.37.46-.51,1.02-1.02,1.73-1.11.45-.59,1-1.12,1.7-1.38Z"/>
      <path class="cls-2" d="M15.62,3.52h0,0ZM19.05.61c-.95,0-1.84.89-2.32,1.51-.35.49-.57.9-.83,1.52-.04.08-.1.14-.18.17-.56.2-1.08.62-1.57,1.28-.04.07-.12.11-.21.12-.64.08-1.16.58-1.54,1.01-.6.73-.96,1.44-1.11,2.23-.09.55-.02.99.08,1.05l.4.23c-.02-.54.14-1.11.17-1.21.4-1.22,1.14-2.24,2.09-2.89.28-.17.51-.29.86-.35.51-.66,1.05-1.08,1.65-1.33.25-.6.48-1.02.84-1.53.61-.76,1.2-1.32,2.17-1.64.03,0,.07-.02.11-.03-.2-.09-.4-.13-.6-.13h0ZM12.33,10.71c-.05,0-.1-.01-.15-.04l-1.14-.66c-.49-.35-.41-1.28-.35-1.67.17-.9.57-1.7,1.25-2.52.44-.49,1.04-1.06,1.81-1.2.5-.65,1.04-1.09,1.63-1.34.25-.59.5-1.03.85-1.53,1.26-1.58,2.66-2.12,3.83-1.49l1.16.66c.14.08.19.27.11.42-.09.15-.27.2-.42.12-.41-.22-.67-.24-1.2-.1-.81.27-1.31.74-1.85,1.42-.36.5-.56.89-.83,1.52-.03.08-.09.14-.17.17-.57.21-1.07.61-1.56,1.28-.05.07-.13.11-.21.12-.28.04-.45.11-.74.28-.82.56-1.48,1.47-1.83,2.55-.17.61-.18,1.34-.02,1.46.13.1.16.28.08.42-.06.09-.16.14-.26.14Z"/>
      <path class="cls-1" d="M15.92,4.66c.28-.22.57-.39.85-.48.37-.99.9-1.76,1.5-2.3.45-.41.93-.69,1.38-.82.44-.13.87-.13,1.23.02.57.24.94.85.92,1.84-.01.38-.08.78-.19,1.17-.11.41-.28.82-.49,1.21h0c-.06.12-.14.23-.23.32-.08.09-.17.17-.27.22l-7.82,4.51c-.14.08-.28.11-.39.07-.11-.03-.19-.12-.23-.25h0c-.04-.11-.05-.22-.07-.34-.02-.11-.02-.24-.02-.37,0-.37.1-.77.25-1.17.2-.51.5-1.02.84-1.47.36-.44.76-.81,1.17-1.04.24-.13.47-.21.7-.23.26-.35.56-.66.86-.9Z"/>
      <path class="cls-2" d="M15.06,5.56h0,0ZM12.47,10.09c.05.05.1.05.18,0l7.81-4.51c.06-.04.13-.09.19-.16.07-.07.13-.16.18-.26.2-.38.36-.76.46-1.15.11-.38.16-.75.17-1.09.02-.8-.24-1.35-.73-1.56-.29-.12-.64-.12-1.02,0-.42.13-.86.38-1.26.75-.6.55-1.08,1.3-1.42,2.18-.03.09-.1.15-.19.18-.24.08-.5.23-.75.43h0c-.3.23-.57.52-.8.84-.05.07-.13.12-.23.13-.17.02-.36.08-.57.19-.37.2-.74.53-1.08.97-.33.42-.62.91-.79,1.38-.15.38-.23.75-.23,1.07,0,.12,0,.23.01.33.02.1.03.2.06.29h0ZM12.52,10.75c-.07,0-.13,0-.19-.02-.21-.06-.37-.23-.44-.47,0,0-.01-.01-.01-.02-.03-.12-.05-.24-.07-.37-.02-.13-.03-.27-.02-.41,0-.39.1-.82.27-1.28.21-.53.52-1.08.9-1.55.39-.49.83-.88,1.26-1.12.23-.13.45-.21.68-.25.24-.32.53-.61.84-.85h0c.26-.21.54-.37.8-.48.37-.91.9-1.7,1.53-2.29.47-.43.99-.74,1.5-.89.52-.16,1.02-.14,1.43.03.42.18,1.13.7,1.11,2.14,0,.4-.08.82-.2,1.25-.12.43-.29.85-.51,1.27-.08.15-.17.28-.26.39-.11.12-.23.21-.35.28l-7.81,4.51c-.15.09-.3.13-.44.13Z"/>
      <path class="cls-2" d="M36.43,34c-.1,0-.21-.06-.27-.16-.09-.15-.03-.34.12-.42l2.04-1.18c.15-.08.34-.03.43.11.08.15.03.33-.12.42l-2.05,1.18s-.1.04-.15.04Z"/>
      <path class="cls-2" d="M36.43,32.97c-.1,0-.21-.06-.27-.15-.09-.15-.03-.34.12-.42l2.04-1.18c.15-.09.34-.04.43.11.08.15.03.33-.12.42l-2.05,1.18s-.1.04-.15.04Z"/>
      <path class="cls-2" d="M36.43,35.04c-.1,0-.21-.05-.27-.15-.09-.15-.03-.33.12-.42l2.04-1.18c.15-.08.34-.03.43.11.08.15.03.34-.12.42l-2.05,1.18s-.1.04-.15.04Z"/>
      <polygon class="cls-4" points="30.32 35.13 34.06 32.97 34.06 37.15 30.32 39.31 30.32 35.13"/>
      <path class="cls-2" d="M30.63,35.31v3.46s3.12-1.8,3.12-1.8v-3.47l-3.12,1.81h0ZM30.32,39.62c-.05,0-.11-.02-.16-.04-.09-.06-.16-.16-.16-.27v-4.18c.01-.11.07-.21.17-.27l3.74-2.16c.1-.05.22-.05.31,0,.1.06.15.16.15.27v4.18c0,.11-.06.21-.16.27l-3.74,2.16s-.1.04-.15.04Z"/>
      <path class="cls-2" d="M31.17,37.03c-.1,0-.21-.05-.27-.15-.09-.15-.03-.34.12-.42l2.04-1.18c.15-.08.34-.03.43.12.08.15.03.33-.12.42l-2.05,1.18s-.1.04-.15.04Z"/>
      <path class="cls-2" d="M31.17,36c-.1,0-.21-.06-.27-.15-.09-.15-.03-.34.12-.42l2.04-1.18c.15-.08.34-.04.43.11.08.15.03.34-.12.42l-2.05,1.18s-.1.04-.15.04Z"/>
      <path class="cls-2" d="M31.17,38.07c-.1,0-.21-.06-.27-.15-.09-.15-.03-.34.12-.42l2.04-1.18c.15-.08.34-.03.43.11.08.15.03.34-.12.42l-2.05,1.18s-.1.04-.15.04Z"/>
      <polygon class="cls-3" points="7.18 36.39 .32 32.43 16.38 23.17 17.56 23.85 12.56 26.73 12.56 33.3 15.65 35.08 10.27 38.17 7.18 36.39 7.18 36.39"/>
      <path class="cls-2" d="M7.34,36.13l2.93,1.69,4.76-2.74-2.63-1.52c-.09-.06-.16-.16-.16-.27v-6.56c0-.11.07-.21.17-.26l4.53-2.62-.56-.32L.93,32.43l6.4,3.7h0ZM10.27,38.48s-.1-.01-.15-.04l-3.09-1.78.16-.27-.16.27L.17,32.7c-.1-.06-.16-.16-.16-.27s.06-.21.16-.27l16.06-9.26c.1-.06.21-.06.31,0l1.18.68c.09.06.16.16.16.26s-.06.21-.16.27l-4.84,2.79v6.21s2.93,1.7,2.93,1.7c.09.06.15.15.15.27s-.06.21-.15.27l-5.38,3.09c-.05.03-.1.04-.16.04Z"/>
      <path class="cls-1" d="M15.5,12.66v12.38l-2.94,1.69v1.99s0,1.32,0,1.32c-.08-.02-.16-.04-.24-.07-.45-.16-.92-.43-1.03-.94V12.66c.11.53.64.81,1.12.96.3.09.57.12.88.14.39,0,.71-.03,1.09-.14.38-.12.73-.29.97-.62.08-.12.12-.2.15-.34Z"/>
      <path class="cls-2" d="M11.6,13.58v15.46c.05.21.27.41.65.58v-2.88c0-.11.07-.21.17-.26l2.78-1.6v-11.28c-.24.17-.51.27-.72.34-.4.12-.71.15-1.18.15-.36-.02-.65-.06-.96-.15-.29-.09-.53-.21-.73-.34h0ZM12.56,30.35s-.05,0-.07,0c-.09-.02-.17-.05-.26-.07-.72-.26-1.13-.65-1.24-1.17V12.66c0-.16.11-.29.27-.31.16-.02.3.09.34.24.06.31.36.56.91.73.26.07.5.11.8.12.36,0,.65-.03.98-.13.39-.12.64-.28.81-.51.05-.08.07-.12.09-.22.03-.16.17-.26.34-.24.16.02.27.15.27.31v12.38c0,.11-.05.21-.15.27l-2.78,1.6v1.81s0,1.31,0,1.31c0,.1-.05.19-.11.24-.05.04-.12.07-.19.07Z"/>
      <path class="cls-3" d="M12.56,30.04c-.29-.07-.56-.19-.81-.35-.24-.18-.4-.36-.46-.65V12.66c.05.27.19.43.4.61.37.27.77.41,1.23.47v12.79l-.37.21v1.99s0,1.32,0,1.32Z"/>
      <path class="cls-2" d="M11.6,13.58v15.46c.04.12.13.25.34.41.09.06.2.12.31.17v-2.88c0-.11.07-.21.17-.26l.2-.12v-12.35c-.38-.08-.71-.22-1.02-.42h0ZM12.56,30.35s-.05,0-.08,0c-.33-.08-.64-.21-.9-.4-.25-.18-.5-.42-.6-.85V12.66c0-.16.11-.29.27-.31.17-.02.3.09.34.24.04.17.1.27.29.43.29.21.63.34,1.08.4.16.02.27.15.27.3v12.79c0,.11-.06.21-.16.27l-.2.12v1.81s0,1.32,0,1.32c0,.1-.05.19-.11.24-.05.04-.12.07-.19.07Z"/>
      <path class="cls-4" d="M11.9,11.68c.83-.48,2.16-.48,2.99,0,.83.48.83,1.25,0,1.73-.83.48-2.16.48-2.99,0-.83-.48-.83-1.25,0-1.73Z"/>
      <path class="cls-2" d="M12.06,11.95c-.3.17-.47.39-.47.59s.17.42.47.6c.72.42,1.96.42,2.68,0,.29-.17.47-.39.47-.6s-.18-.42-.47-.59c-.72-.42-1.96-.42-2.68,0h0ZM13.4,14.07c-.59,0-1.19-.13-1.65-.4-.5-.29-.77-.69-.77-1.13s.28-.84.77-1.13h0c.93-.53,2.37-.53,3.3,0,.5.29.77.69.77,1.13s-.28.84-.77,1.13c-.47.27-1.06.4-1.65.4Z"/>
      <path class="cls-3" d="M15.5,14.03v1.6c-.08.38-.36.61-.69.79-.34.17-.64.24-1.02.29-.45.04-.84.02-1.29-.09-.5-.15-1.1-.43-1.22-.99v-1.6c.1.48.52.73.94.9.64.23,1.3.26,1.96.11.53-.13,1.18-.42,1.3-1.01Z"/>
      <path class="cls-2" d="M11.6,14.95v.68c.07.27.4.52.99.69.38.1.74.12,1.18.08.37-.05.62-.12.9-.26.32-.18.48-.34.52-.57v-.62c-.24.17-.56.3-.93.39-.75.17-1.46.12-2.14-.12-.17-.07-.36-.15-.53-.27h0ZM13.39,17.04c-.34,0-.64-.04-.95-.12-.84-.24-1.32-.65-1.44-1.23v-1.66c0-.16.11-.29.27-.31.16-.01.3.09.34.24.05.28.29.49.75.68.56.2,1.17.23,1.78.09.44-.11.98-.33,1.07-.77.03-.15.17-.26.34-.24.16.02.27.15.27.31v1.6c-.11.59-.51.87-.84,1.06-.36.18-.68.27-1.12.33-.16.01-.31.02-.45.02Z"/>
      <path class="cls-4" d="M12.93,16.7c-.34-.04-.64-.13-.95-.28-.33-.18-.61-.4-.69-.79v-1.6c.08.39.36.61.69.79.3.15.61.24.95.28v1.6Z"/>
      <path class="cls-2" d="M11.6,14.95v.68c.04.17.19.33.53.52.15.08.32.14.48.18v-.97c-.27-.06-.51-.14-.77-.27-.08-.04-.16-.09-.24-.15h0ZM12.93,17.01s-.03,0-.04,0c-.36-.04-.7-.15-1.04-.31-.34-.19-.74-.47-.85-1v-1.66c0-.16.11-.29.27-.31.16-.01.3.09.34.24.04.23.19.4.53.58.26.13.53.21.83.25.16.02.27.15.27.3v1.6c0,.09-.04.17-.1.23-.05.05-.13.08-.2.08Z"/>
      <path class="cls-1" d="M8.77,16.49v16.43c-.03.08-.06.16-.11.23-.03.05-.08.11-.12.16-.09.1-.19.18-.3.25-.15.1-.32.18-.5.24-.74.25-1.7.23-2.4-.11-.15-.07-.3-.17-.43-.27-.07-.06-.14-.14-.19-.21-.06-.09-.1-.18-.13-.29l-.02-.06v-16.37s.02.08.04.12c.02.08.07.16.11.23.09.12.2.23.32.31.53.37,1.3.49,1.94.44.46-.04.96-.17,1.34-.44.14-.1.27-.22.36-.36.04-.07.08-.16.1-.23v-.06Z"/>
      <path class="cls-2" d="M4.88,17.41v15.46s.04.11.09.17c.03.05.09.11.15.16.09.08.23.17.36.23.62.29,1.49.32,2.18.09.16-.06.3-.13.43-.2.09-.06.17-.13.24-.2.03-.04.06-.08.09-.12.02-.04.04-.1.06-.14v-15.44c-.49.33-1.06.45-1.47.48-.79.07-1.59-.11-2.12-.48h0ZM6.67,34.28c-.51,0-1.04-.1-1.46-.3-.18-.09-.36-.2-.51-.32-.09-.09-.17-.18-.24-.27-.09-.12-.15-.25-.18-.38,0-.02-.02-.11-.02-.13v-16.37c0-.16.12-.29.28-.31.15-.02.29.09.33.24l.02.08s.04.1.08.15c.05.08.15.16.24.23.5.35,1.23.42,1.74.38.47-.04.9-.18,1.19-.38.11-.08.21-.18.27-.28.02-.04.04-.1.06-.14.03-.15.18-.28.34-.26.16.02.28.12.28.28v16.37s-.02.1-.02.12c-.03.12-.08.23-.14.33-.04.07-.11.15-.16.21-.11.11-.23.21-.36.3-.16.11-.36.2-.56.27-.37.13-.77.19-1.18.19Z"/>
      <path class="cls-3" d="M6.2,33.94c-.42-.05-.82-.18-1.16-.42-.24-.18-.4-.36-.47-.65v-16.37c.06.27.19.43.4.61.37.27.78.41,1.23.47v16.37Z"/>
      <path class="cls-2" d="M4.88,17.41v15.46c.03.12.12.25.34.41.19.13.43.23.68.3v-15.75c-.39-.08-.72-.21-1.02-.41h0ZM6.2,34.25s-.03,0-.03,0c-.5-.06-.93-.22-1.3-.47-.25-.18-.5-.42-.59-.85v-16.44c0-.16.12-.29.27-.31.15-.02.29.09.33.24.04.17.11.28.3.43.29.21.63.34,1.08.4.15.02.27.15.27.3v16.37c0,.09-.04.17-.11.23-.06.05-.13.08-.21.08Z"/>
      <path class="cls-4" d="M5.17,15.51c.83-.48,2.16-.48,2.99,0,.82.48.82,1.25,0,1.73-.83.48-2.16.47-2.99,0-.83-.48-.82-1.25,0-1.73Z"/>
      <path class="cls-2" d="M5.33,15.78c-.29.17-.46.39-.46.6s.17.43.46.6c.73.42,1.96.42,2.69,0,.3-.17.46-.39.46-.6s-.17-.42-.46-.6c-.73-.42-1.95-.42-2.69,0h0ZM6.67,17.9c-.59,0-1.18-.13-1.64-.4-.5-.29-.77-.69-.77-1.13s.27-.84.77-1.13h0c.92-.53,2.37-.53,3.29,0,.5.29.78.69.78,1.13s-.28.84-.78,1.13c-.46.27-1.05.4-1.65.4Z"/>
      <path class="cls-3" d="M8.77,17.86v1.6c-.08.39-.36.6-.69.79-.34.17-.63.24-1.01.29-.45.04-.85.02-1.29-.09-.51-.14-1.09-.42-1.22-.99v-1.6c.1.48.52.73.95.9.63.23,1.29.25,1.95.11.53-.13,1.18-.42,1.3-1.01Z"/>
      <path class="cls-2" d="M4.88,18.78v.68c.06.27.4.52.99.69.38.1.74.12,1.18.08.37-.05.62-.12.9-.26.32-.18.47-.34.52-.57v-.62c-.25.17-.56.3-.93.39-.75.16-1.47.12-2.14-.12-.17-.07-.36-.15-.53-.27h0ZM6.66,20.87c-.33,0-.63-.04-.96-.12-.84-.24-1.32-.65-1.44-1.22v-1.66c0-.16.12-.29.27-.31.15-.01.29.09.33.24.06.28.3.49.76.68.56.2,1.16.24,1.77.1.43-.11.98-.33,1.08-.78.03-.15.18-.26.33-.24.16.02.28.15.28.31v1.6c-.12.59-.51.87-.84,1.06-.37.18-.69.27-1.13.33-.16.01-.3.02-.45.02Z"/>
      <path class="cls-4" d="M6.2,20.53c-.33-.04-.64-.13-.95-.29-.33-.18-.6-.4-.69-.79v-1.6c.09.39.36.61.69.79.31.15.61.24.95.28v1.6Z"/>
      <path class="cls-2" d="M4.88,18.78v.68c.04.17.19.33.53.52.16.08.31.14.49.18v-.97c-.27-.06-.52-.14-.77-.27-.08-.04-.17-.09-.24-.15h0ZM6.2,20.84s-.03,0-.03,0c-.37-.05-.71-.15-1.04-.31-.35-.19-.75-.47-.85-1v-1.66c0-.16.12-.29.27-.31.15-.01.29.09.33.24.05.23.2.4.54.59.26.13.53.21.84.25.15.02.27.15.27.3v1.6c0,.09-.04.17-.11.23-.06.05-.13.08-.21.08Z"/>
    </g>
  </g>
</svg>