<?xml version="1.0" encoding="UTF-8"?>
<svg id="Layer_2" data-name="Layer 2" xmlns="http://www.w3.org/2000/svg" viewBox="0 0 34.49 48.4" fill="currentColor">
  <defs>
    <style>
      .cls-1 {
        fill: #fff;
      }

      .cls-1, .cls-2, .cls-3, .cls-4 {
        fill-rule: evenodd;
      }

      .cls-2 {
        fill: #1a87c7;
      }

      .cls-3 {
        fill: #bdedf8;
      }

      .cls-4 {
        fill: #66ceef;
      }
    </style>
  </defs>
  <g id="_Layer_" data-name="&amp;lt;Layer&amp;gt;">
    <g>
      <path class="cls-1" d="M15.12,34.63h0c1.55,3.56.79,7.42,4.3,10.75-5.79,2.69-12.24,3.96-17.34,1.02-1.57-.91-1.76-1.29-1.76-2.75s-.03-2.93.03-4.37c.26-2.51,1.55-4.22,3.17-6.04,1.81-1.99,4.11-3.59,5.76-5.72h0c1.83,2.07,4.8,4.73,5.84,7.1h0ZM9.44,27.7l-.16-.17c.05.06.11.11.16.17h0ZM34.17,33.58v-4.83c0-3.86-4.74-5.26-8.04-5.54-.26.57-.55,1.14-.86,1.68,2.59,4.63.39,14.54-2.46,18.73,6.45-3.73,11.37-8.64,11.37-10.04h0Z"/>
      <path class="cls-2" d="M25.63,24.89c2.36,4.5.58,13.26-1.94,17.84,6.02-3.69,10.16-8.06,10.16-9.15v-4.83c0-4.14-5.87-5.04-7.55-5.21-.21.46-.45.92-.68,1.35h0ZM22.8,43.93c-.08,0-.16-.03-.21-.1-.1-.11-.13-.26-.03-.38,2.75-4.06,4.93-13.91,2.44-18.4-.05-.09-.05-.21,0-.3.29-.54.58-1.11.86-1.67.05-.11.18-.18.29-.17,4.03.34,8.33,2.06,8.33,5.84v4.83c0,1.65-5.14,6.62-11.53,10.31-.05.03-.11.04-.16.04h0ZM9.28,28c-.92,1.14-2.02,2.14-3.09,3.11-.84.75-1.68,1.52-2.44,2.35-1.49,1.66-2.85,3.37-3.12,5.87-.03.99-.03,2.04-.03,3.07.03.43.03.85.03,1.27,0,1.33.1,1.61,1.6,2.48,5.32,3.07,11.92,1.29,16.66-.85-2.07-2.15-2.57-4.49-3.01-6.78-.26-1.25-.52-2.54-1.05-3.76h0c-.76-1.7-2.57-3.62-4.19-5.3-.47-.5-.94-.99-1.36-1.45h0ZM8.76,48.4c-2.33,0-4.69-.49-6.84-1.73C.3,45.73,0,45.28,0,43.66v-1.27c0-1.02-.03-2.09.03-3.11.29-2.7,1.7-4.49,3.25-6.24.79-.85,1.65-1.63,2.49-2.39,1.13-1.04,2.31-2.1,3.25-3.31.11-.14.31-.16.45-.06v.02s.03.02.05.03l.16.17s.03.05.05.08c.42.48.89.96,1.36,1.45,1.65,1.73,3.51,3.68,4.3,5.48.55,1.28.84,2.6,1.1,3.88.47,2.41.94,4.68,3.14,6.77.08.07.13.18.11.28-.03.09-.08.18-.18.23-3.04,1.42-6.92,2.74-10.79,2.74Z"/>
      <path class="cls-1" d="M9.28,27.53c.24-.32.97-1.07,1.15-1.41.39-.66.39-.92.47-1.7,3.35,3.89,11.24,6.16,14.28.65h0c.86,2.04-1.6,5.99-4.72,7.16-2.31.85-5.82.32-7.6-1.29l-3.01-2.74-.58-.66Z"/>
      <path class="cls-2" d="M9.67,27.52l.42.46,2.99,2.72c1.62,1.49,5.03,2.07,7.28,1.23,1.76-.65,3.46-2.34,4.27-4.2.29-.69.45-1.32.42-1.86-1.1,1.58-2.75,2.52-4.77,2.74-3.07.32-6.79-1.13-9.14-3.49-.05.37-.13.68-.42,1.16-.16.24-.5.61-.81.97-.08.1-.16.18-.24.27h0ZM17.98,32.94c-1.99,0-4.09-.65-5.32-1.78l-3.01-2.75-.6-.69c-.11-.11-.11-.28-.03-.39.11-.12.26-.3.45-.51.26-.3.6-.68.71-.87.31-.53.34-.75.39-1.34l.03-.23c.03-.13.11-.23.21-.27.13-.03.26,0,.34.1,2.18,2.51,6,4.1,9.09,3.78,2.07-.22,3.69-1.29,4.66-3.08.08-.1.18-.16.29-.15.13,0,.24.08.29.18.31.8.24,1.88-.26,3.03-.86,2-2.72,3.83-4.64,4.54-.79.28-1.68.42-2.59.42Z"/>
      <path class="cls-1" d="M23.32,27.7c1.26-1.23,2.31-3.44,3.27-5.47,1.36-2.77,1.31-5.93,1.31-8.47l-.47-1.51c-.16-.62-.16-1.29-.18-1.92,0-.83-.03-1.59-.45-1.98-.68-.63-1.78.33-3.04,1.45-.86.76-1.81,1.59-2.8,2.18-1.02.58-1.96.83-2.83,1.07h0c-.84.22-1.6.42-2.2.95-.94.8-.92,1.45-.89,2.59.03,1.09.08,2.16-.6,4.46-.08-.58-.21-1.17-.44-1.72-1.18-2.9-4.04-1.88-3.98.88,0,.28.03.55.11.83.18.77.6,1.66.97,2.32.1.22-.05.79-.16,1.11,2.44,2.75,5.95,4.63,8.75,4.62,1.26,0,2.72-.5,3.64-1.38Z"/>
      <path class="cls-2" d="M11.3,24.38c2.38,2.64,5.74,4.4,8.38,4.4h0c1.23,0,2.62-.52,3.43-1.3h0c1.15-1.1,2.1-3.07,3.01-4.97l.21-.41c1.23-2.54,1.26-5.5,1.26-7.88v-.41l-.45-1.47c-.18-.67-.18-1.35-.21-2,0-.76-.03-1.46-.34-1.77-.47-.43-1.52.49-2.62,1.45-.86.76-1.81,1.61-2.88,2.22-1.05.61-2.02.87-2.86,1.1t-.03.01c-.81.22-1.52.41-2.07.88-.81.68-.81,1.21-.79,2.25v.28c.03,1.05.03,2.15-.6,4.37-.05.14-.18.23-.31.22-.16,0-.29-.12-.29-.26-.11-.63-.24-1.17-.42-1.64-.47-1.1-1.23-1.69-2.02-1.52-.71.14-1.44.91-1.39,2.27,0,.24.03.5.08.76.13.58.45,1.34.94,2.25.13.22.11.62-.05,1.17h0ZM19.68,29.4c-2.86,0-6.47-1.91-8.96-4.73-.08-.09-.1-.2-.08-.3.16-.47.18-.8.16-.88-.5-.95-.84-1.76-.97-2.39-.08-.3-.11-.6-.13-.9-.03-1.46.73-2.64,1.89-2.89.84-.17,2.02.23,2.7,1.89.08.16.13.32.18.5.29-1.34.29-2.15.26-2.94v-.28c-.03-1.08-.03-1.86,1-2.73.68-.56,1.47-.77,2.31-1,0,0,.03,0,.03,0,.86-.24,1.76-.48,2.75-1.04,1-.57,1.94-1.41,2.75-2.15,1.36-1.21,2.57-2.26,3.46-1.44.52.48.52,1.32.55,2.2,0,.63.03,1.26.18,1.85l.45,1.5s.03.06.03.09v.45c-.03,2.44-.03,5.49-1.34,8.15l-.21.41c-.94,1.96-1.91,3.97-3.14,5.15h0c-.92.9-2.44,1.47-3.85,1.48h0Z"/>
      <path class="cls-4" d="M7.87,6.88c-2.25,4.09-.84,15.32,3.01,17.75.08-.21.34-1.02.21-1.29-.37-.66-.79-1.55-.97-2.32-.84-3.69,3.56-5.43,4.32.02.68-2.3.63-3.37.6-4.46-.03-1.14-.05-1.79.89-2.59.6-.52,1.36-.72,2.2-.95h0c.86-.24,1.81-.49,2.83-1.07,1-.59,1.94-1.42,2.8-2.18,1.26-1.12,2.36-2.08,3.04-1.45.42.39.45,1.15.45,1.98.03.63.03,1.3.18,1.92l.47,1.51c.13-2,.08-4.3-.18-6.2-.55-3.67-2.17-3.81-6.71-6.19-.71-.38-1.65-1.02-3.04-1.06-3.41-.11-8.44,3.86-10.11,6.57Z"/>
      <path class="cls-2" d="M8.13,7.03c-2.1,3.86-.86,14.34,2.59,17.11.08-.28.11-.56.08-.65-.5-.95-.84-1.76-.97-2.39-.31-1.32,0-2.59.81-3.3.58-.51,1.34-.65,2.02-.4.5.18,1.31.73,1.81,2.31.29-1.34.29-2.15.26-2.94v-.28c-.03-1.08-.03-1.86,1-2.73.68-.56,1.47-.77,2.31-1,0,0,.03,0,.03,0,.86-.24,1.76-.48,2.75-1.04,1-.57,1.94-1.41,2.75-2.15,1.36-1.21,2.57-2.26,3.46-1.44.52.48.52,1.32.55,2.2,0,.5.03,1.02.1,1.52.03-1.51-.08-2.99-.26-4.23-.42-2.89-1.52-3.45-4.51-4.93-.58-.3-1.26-.63-2.02-1.04l-.31-.17c-.66-.36-1.47-.82-2.59-.85-.05,0-.1,0-.13,0-3.3,0-8.12,3.86-9.72,6.41h0ZM10.88,24.94c-.05,0-.1-.02-.16-.04-4.01-2.52-5.45-13.91-3.14-18.16,0,0,.03-.02.03-.02C9.28,3.97,14.31,0,17.85,0c.05,0,.08,0,.13,0,1.28.03,2.23.55,2.91.93l.29.16c.76.4,1.41.74,2.02,1.03,2.99,1.5,4.38,2.17,4.85,5.39.26,1.8.32,4.09.18,6.26,0,.15-.13.27-.26.29-.16.02-.29-.07-.34-.22l-.47-1.51c-.18-.67-.18-1.35-.21-2,0-.76-.03-1.46-.34-1.77-.47-.43-1.52.49-2.62,1.45-.86.76-1.81,1.61-2.88,2.22-1.05.61-2.02.87-2.86,1.1t-.03.01c-.81.22-1.52.41-2.07.88-.81.68-.81,1.21-.79,2.25v.28c.03,1.05.03,2.15-.6,4.37-.05.14-.18.23-.31.22-.16,0-.29-.12-.29-.26-.24-1.67-.86-2.81-1.73-3.12-.47-.17-.94-.07-1.36.29-.5.44-.94,1.39-.66,2.7.13.58.45,1.34.94,2.25.24.44-.16,1.5-.18,1.54-.03.09-.1.15-.18.18-.03.01-.08.01-.1.01Z"/>
      <path class="cls-3" d="M20.89,31.29c-5.61-.5-8.7-.64-11.61-3.76,1.83,2.07,4.8,4.73,5.84,7.1,1.55,3.56.79,7.42,4.3,10.75l3.38-1.76c2.62-3.74,5.21-13.78,2.46-18.73l-.08.18c.29,2.65-1.86,3.92-3.93,5.99h0l-.37.23h0Z"/>
      <path class="cls-2" d="M11.95,29.93c1.41,1.49,2.8,3.08,3.43,4.57.55,1.28.84,2.6,1.1,3.88.47,2.35.92,4.57,2.99,6.62l3.12-1.62c2.31-3.36,4.77-12.19,2.88-17.3-.21,1.68-1.44,2.8-2.8,4.06-.39.36-.79.73-1.18,1.13-.03.03-.05.04-.08.05l-.39.23c-.05.03-.1.05-.18.04l-.73-.07c-3.46-.3-5.97-.53-8.15-1.59h0ZM19.42,45.68c-.08,0-.16-.03-.21-.08-2.36-2.24-2.85-4.7-3.33-7.1-.26-1.25-.52-2.54-1.05-3.76-.76-1.7-2.57-3.62-4.19-5.3-.58-.6-1.13-1.18-1.6-1.72-.11-.13-.11-.32.03-.43.11-.11.31-.11.42.02,2.7,2.9,5.53,3.15,10.66,3.61l.66.05.26-.15c.39-.4.79-.76,1.18-1.12,1.6-1.46,2.83-2.6,2.62-4.59,0-.06,0-.12.03-.18l.1-.17c.05-.09.16-.16.26-.16h0c.13,0,.23.06.29.16,2.93,5.28,0,15.48-2.49,19.05-.03.05-.08.08-.13.1l-3.35,1.75c-.05.03-.11.04-.16.04Z"/>
      <path class="cls-2" d="M19.63,35.44c-.05,0-.1,0-.13-.02l-4.82-2.09c-.16-.07-.24-.25-.16-.41.05-.16.24-.23.39-.16l4.51,1.95,1.1-3.31c.05-.17.24-.25.39-.2.05.02.1.07.16.13-.03-.13.03-.27.16-.34.16-.08.34-.02.42.13l1.02,2.02c.29-.49.6-.97.89-1.45.79-1.24,1.49-2.41,1.83-3.16.08-.15.26-.22.42-.15.16.07.24.25.16.41-.37.78-1.1,1.98-1.89,3.23-.39.63-.79,1.27-1.18,1.91-.05.1-.16.17-.26.15-.1,0-.21-.07-.26-.17l-1.28-2.48s.03.11,0,.16l-1.18,3.63c-.03.09-.1.15-.18.18-.03.02-.08.03-.11.03Z"/>
      <path class="cls-4" d="M19.42,45.38l3.38-1.76c-.05-.5-.05-.59-.1-1.06-.29-2.37-.39-4.92-.65-7.46-.03-.11.1-1.08.23-2.07l-1.02-1.97-.37.23-.84,2.55c.21.72.42,1.48.39,1.64-.29,2.97-.6,5.91-.89,8.75-.05.42-.08.69-.13,1.15Z"/>
      <path class="cls-2" d="M20.36,33.86c.42,1.4.39,1.58.39,1.67-.26,2.65-.55,5.27-.81,7.81l-.16,1.5,2.7-1.39-.11-.84c-.16-1.24-.24-2.48-.34-3.79-.08-1.21-.18-2.45-.32-3.67,0-.05-.03-.19.24-2.06l-.84-1.59h0l-.76,2.37h0ZM19.42,45.68c-.05,0-.1-.02-.16-.05-.11-.06-.16-.17-.13-.29l.21-2.08c.26-2.54.52-5.16.79-7.8,0-.02,0-.25-.39-1.53v-.18l.84-2.55c.03-.08.08-.14.16-.18l.37-.23c.08-.04.16-.05.26-.03.08.03.13.09.18.15l1,1.98c.05.05.05.12.05.18-.18,1.25-.26,1.91-.26,2.02.16,1.23.24,2.47.34,3.68.08,1.31.18,2.55.31,3.76l.13,1.06c0,.12-.05.24-.18.31l-3.35,1.75c-.05.03-.11.04-.16.04Z"/>
      <path class="cls-2" d="M21.2,35.68c-.37,0-.73-.14-.92-.21-.16-.06-.24-.24-.18-.39.08-.16.26-.24.42-.18.86.34,1.1.09,1.26-.16.08-.15.29-.19.42-.11.16.09.21.28.1.43-.29.48-.71.62-1.1.62Z"/>
      <path class="cls-2" d="M17.17,45.7c-.11,0-.21-.05-.26-.14l-4.61-6.93c-.05-.08-.08-.17-.05-.25l.42-1.48-1.6-3.76c-.08-.16,0-.33.16-.4.16-.07.34,0,.42.17l1.62,3.85c.03.07.05.14.03.21l-.39,1.44,4.51,6.81c.11.14.05.33-.08.42-.05.04-.11.05-.16.05Z"/>
      <path class="cls-2" d="M23.4,15.48v2.33c0,.36.1.62.31.74.18.11.47.07.79-.12l3.25-1.88c.21-.13.45-.37.6-.64v-.02c.18-.29.26-.6.26-.86v-2.57s-.05.04-.08.05l-5.13,2.97h0ZM22.2,16.18l-4.9,2.83c-.29.16-.32.2-.32.58v2.54c0,.2.05.35.13.4.11.05.26.02.42-.07l3.27-1.89c.34-.21.71-.59.97-1.04.26-.45.42-.96.42-1.37v-1.97h0ZM17.25,23.16c-.16,0-.31-.03-.42-.11-.31-.17-.47-.51-.47-.93v-2.49c0-.68.21-.9.63-1.16l5.95-3.43s0,0,.03,0l5.29-3.05c.24-.14.45-.26.68-.15.24.11.29.37.31.63v2.57c0,.36-.13.76-.34,1.15v.02c-.24.39-.52.7-.84.89l-3.27,1.89c-.5.3-1,.33-1.39.1-.31-.18-.52-.51-.6-.93h0c0,.53-.16,1.13-.47,1.69-.34.55-.76,1-1.23,1.27l-3.25,1.88c-.21.12-.42.18-.6.18Z"/>
      <path class="cls-2" d="M16.49,19.28c-.05,0-.1,0-.13-.03l-4.19-1.89c-.18-.08-.34-.09-.45-.04-.03.02-.08.05-.1.16l-.08.3c-.03.17-.18.27-.37.24-.16-.04-.26-.2-.24-.37l.08-.3c.05-.26.21-.46.42-.57.29-.14.63-.13.97.02l4.22,1.9c.16.08.21.26.13.41-.05.11-.16.18-.26.18Z"/>
      <path class="cls-2" d="M26.68,39.82s-.05,0-.08-.01c-.16-.04-.24-.22-.21-.38l2.15-7.57-.63-.73s-.05-.09-.08-.15l-.6-3.75c-.03-.17.08-.33.26-.36.16-.02.31.09.34.26l.6,3.67.68.78c.05.08.08.18.05.29l-2.17,7.73c-.05.14-.16.23-.31.23Z"/>
    </g>
  </g>
</svg>