<?xml version="1.0" encoding="UTF-8"?>
<svg id="Layer_2" data-name="Layer 2" xmlns="http://www.w3.org/2000/svg" viewBox="0 0 25.33 44.47" fill="currentColor">
  <defs>
    <style>
      .cls-1 {
        fill: #fff;
      }

      .cls-1, .cls-2, .cls-3, .cls-4 {
        fill-rule: evenodd;
      }

      .cls-2 {
        fill: #1a87c7;
      }

      .cls-3 {
        fill: #bdedf8;
      }

      .cls-4 {
        fill: #66ceef;
      }
    </style>
  </defs>
  <g id="_Layer_" data-name="&amp;lt;Layer&amp;gt;">
    <g>
      <path class="cls-4" d="M3.27,10.9l7.94-4.59h0L19.49,1.53c.16-.09.24-.24.24-.42v1.99L4.58,11.86c-.47.27-1.1.42-1.62.12-.26-.16-.29-.43-.21-.64.11-.22.31-.31.52-.44Z"/>
      <path class="cls-2" d="M19.41,1.92L3.43,11.17h0l-.1.05c-.16.09-.26.14-.29.24-.08.17.03.23.08.25.52.3,1.15-.02,1.34-.12L19.41,2.93v-1.01h0ZM3.61,12.45c-.29,0-.58-.07-.81-.2-.37-.21-.5-.63-.32-1.03.11-.29.34-.42.55-.53l.08-.04L19.33,1.27c.05-.03.08-.09.08-.15,0-.17.16-.31.31-.31h0c.18,0,.31.14.31.31v1.99c0,.11-.05.21-.16.26L4.74,12.12c-.37.22-.76.33-1.13.33Z"/>
      <path class="cls-3" d="M7.31,43.93c-1,.27-1.78.3-2.78.12-1.02-.24-2.23-.76-2.28-1.96V12.56c.03,1.01.89,1.5,1.73,1.81,1.15.34,2.17.35,3.33.02.6-.21.92-.41,1.47-.74L24.78,4.41l.05-.03.05-.04.05-.05.03-.05.03-.06.03-.06v-.13,29.66l-.03.06-.03.06-.03.05-.05.05-.05.04-.05.04-15.93,9.2c-.58.34-.92.57-1.55.79Z"/>
      <path class="cls-2" d="M2.57,13.92v28.17c.03.78.71,1.34,2.02,1.66.97.17,1.73.14,2.65-.12.5-.17.79-.35,1.21-.6l.29-.16,15.9-9.2.26.19-.18-.25.31.03-.29-.12V4.8L8.7,14.06c-.42.25-.73.43-1.28.63-1.23.35-2.31.34-3.51-.02-.45-.16-.97-.39-1.34-.75h0ZM5.71,44.47c-.39,0-.81-.04-1.23-.12-2.04-.48-2.52-1.49-2.54-2.25V12.56c0-.17.13-.31.31-.31h0c.16,0,.31.13.31.3.03.68.5,1.16,1.52,1.54,1.07.32,2.04.33,3.14.02.47-.17.76-.32,1.15-.57l.24-.14L24.63,4.15l.11.07-.03-.13h.03s0-.1,0-.1c.03-.16.16-.29.31-.29.16,0,.29.13.29.29v29.61s-.03.13-.03.14-.03.09-.03.1c-.03.01-.05.08-.05.09-.03.01-.05.07-.05.08-.03.01-.08.07-.08.08-.03,0-.08.06-.08.07-.03,0-.08.04-.08.04l-16.19,9.36c-.44.26-.79.46-1.34.65,0,0,0,0-.03,0-.58.17-1.13.25-1.68.25Z"/>
      <path class="cls-1" d="M22.43,4.1l-2.75-1.59L3.12,12.07l2.04,1.19c.52.3,1.15.15,1.62-.13l15.64-9.03Z"/>
      <path class="cls-2" d="M3.72,12.07l1.6.92c.52.3,1.13-.02,1.31-.13l15.2-8.77-2.15-1.23L3.72,12.07h0ZM5.82,13.73c-.29,0-.58-.07-.81-.21l-2.04-1.18c-.1-.06-.16-.16-.16-.27s.05-.21.16-.27L19.52,2.24c.11-.06.21-.06.31,0l2.75,1.59c.11.05.16.16.16.27s-.05.21-.16.27L6.94,13.4c-.37.22-.76.33-1.13.33Z"/>
      <path class="cls-4" d="M6.13,44.15V14.62c-.65.04-1.62-.04-2.41-.35-.11-.03-2.1-1.17-2.17-1.21-.65-.32-1.18-.83-1.2-1.6v29.52c.03.75.52,1.26,1.15,1.58.16.07,2.2,1.23,2.36,1.29.76.27,1.65.33,2.28.3Z"/>
      <path class="cls-2" d="M.65,12.82v28.16c.03.55.34.99.97,1.3.05.03.34.18.71.38.52.3,1.52.85,1.62.9.63.22,1.31.27,1.89.29V14.94h-.05c-.65,0-1.47-.1-2.2-.38-.05-.02-.24-.13-1.39-.79-.39-.22-.73-.41-.79-.43-.31-.14-.55-.32-.76-.52h0ZM6.13,44.15h.03-.03ZM5.79,44.46c-.71,0-1.44-.12-2.04-.32-.08-.03-.47-.24-1.73-.94-.34-.19-.6-.34-.65-.36-.84-.42-1.31-1.06-1.34-1.85V11.46c0-.17.13-.3.31-.31H.34c.16,0,.29.13.31.3.03.57.37,1.02,1.02,1.34.03.02.39.22.81.46.5.28,1.26.71,1.34.75.76.3,1.7.36,2.31.32.08,0,.16.02.24.08.05.06.08.14.08.23v29.53c0,.16-.13.29-.29.3-.13.01-.24.01-.37.01Z"/>
      <path class="cls-2" d="M20.88,30.63c-.05,0-.1-.01-.16-.04-.08-.05-.16-.16-.16-.27v-2.85c0-.11.08-.21.16-.26l1.65-.94c.13-.08.31-.04.42.11.08.15.03.34-.13.42l-1.47.85v2.14l1.23-.7c.13-.08.31-.04.39.11.1.15.05.34-.11.42l-1.68.97c-.05.03-.11.04-.16.04Z"/>
      <path class="cls-2" d="M20.99,29.07c-.11,0-.21-.06-.26-.15-.08-.15-.03-.34.1-.42l1.05-.6c.16-.09.34-.04.42.11.08.14.03.33-.1.42l-1.05.6c-.05.03-.1.04-.16.04Z"/>
      <path class="cls-2" d="M18.47,32.02c-.05,0-.11-.01-.16-.04-.1-.05-.16-.16-.16-.26v-2.83c0-.17.13-.31.31-.31.16,0,.29.14.29.31v2.29l1.28-.74c.16-.08.34-.03.42.11.08.15.03.33-.1.42l-1.76,1s-.08.04-.13.04Z"/>
      <path class="cls-2" d="M15.98,30.65v2.14l.18-.1c.29-.18.5-.3.58-.35.1-.08.18-.16.26-.26.08-.1.13-.21.16-.34.05-.12.08-.23.08-.32,0-.08-.03-.12-.03-.13,0,0-.03,0-.08.01-.1.03-.26-.03-.31-.14-.08-.12-.05-.26.03-.36.08-.09.16-.19.21-.31.03-.11.05-.21.05-.3v-.11s-.05,0-.11.01c-.08.03-.21.1-.39.2l-.63.36h0ZM15.67,33.63c-.05,0-.1-.01-.13-.04-.1-.06-.16-.16-.16-.27v-2.85c0-.11.05-.21.16-.27l.76-.45c.24-.12.39-.2.5-.25.16-.06.29-.07.42-.04.16.03.29.12.37.25.1.12.16.28.16.47,0,.17-.05.36-.13.54,0,.02-.03.05-.03.07.03.02.03.03.05.04.13.13.21.33.21.58,0,.16-.03.34-.08.52-.08.18-.16.35-.26.5-.13.15-.24.29-.42.4-.08.06-.29.19-.6.38l-.65.37c-.05.03-.11.04-.16.04Z"/>
      <path class="cls-2" d="M14.59,34.27c-.16,0-.31-.14-.31-.31v-2.85c0-.17.16-.31.31-.31.18,0,.31.14.31.31v2.85c0,.17-.13.31-.31.31Z"/>
      <path class="cls-2" d="M12.05,32.93v2.14l.16-.1c.31-.18.52-.3.6-.35.1-.07.18-.16.26-.26.05-.1.13-.21.16-.34.05-.12.08-.23.08-.32s-.03-.13-.03-.14c-.16.03-.31-.02-.37-.14-.08-.12-.1-.26,0-.36.08-.09.13-.2.18-.31.05-.11.08-.21.08-.3,0-.08-.03-.11-.03-.11,0-.01-.03,0-.08,0-.08.03-.21.1-.39.2l-.63.36h0ZM11.74,35.91c-.05,0-.11-.01-.16-.04-.08-.05-.16-.16-.16-.27v-2.85c0-.11.08-.21.16-.27l.79-.45c.21-.12.37-.2.47-.24.16-.06.31-.08.45-.05.16.03.29.12.37.25.1.12.13.28.13.47,0,.17-.03.35-.1.54-.03.02-.03.04-.03.07,0,.01.03.03.05.04.13.14.21.33.21.59,0,.16-.03.34-.1.52-.05.18-.13.35-.24.5-.1.15-.26.29-.42.4-.08.06-.29.19-.63.38l-.63.37c-.05.03-.1.04-.16.04Z"/>
      <path class="cls-2" d="M20.65,25.19c-.08,0-.16-.03-.21-.08l-1.15-1.06c-.13-.12-.13-.31-.03-.43.13-.13.31-.13.45-.02l.86.78.97-2.02c.05-.15.24-.22.39-.14.16.07.24.26.16.41l-1.15,2.39c-.05.09-.13.15-.24.17,0,0-.03,0-.05,0Z"/>
      <path class="cls-2" d="M20.65,26.32c-.16,0-.32-.14-.32-.31v-1.12c0-.17.16-.31.32-.31.18,0,.31.14.31.31v1.12c0,.17-.13.31-.31.31Z"/>
      <path class="cls-2" d="M18.21,27.73c-.05,0-.11-.02-.16-.04-.1-.06-.16-.16-.16-.27v-2.82c0-.17.13-.31.31-.31.16,0,.29.14.29.31v2.29l1.28-.73c.16-.08.34-.04.42.11.08.15.05.34-.11.42l-1.73,1c-.05.03-.1.04-.16.04Z"/>
      <path class="cls-2" d="M16.66,25.83c-.08,0-.18.04-.31.11-.84.49-.97,1.4-.97,1.9,0,.41.08.6.16.65.08.04.24.02.5-.13.58-.33.92-1,.92-1.78,0-.42-.11-.67-.21-.73-.03-.01-.05-.02-.08-.02h0ZM15.61,29.13c-.13,0-.26-.03-.37-.1-.31-.18-.47-.58-.47-1.18,0-1.1.45-1.96,1.26-2.43.5-.28.84-.21,1.02-.09.34.19.5.63.5,1.26,0,1.01-.45,1.88-1.2,2.32-.26.15-.52.23-.73.23Z"/>
      <path class="cls-2" d="M12.18,31.19c-.16,0-.29-.14-.29-.31v-2.85c0-.17.13-.31.29-.31.18,0,.31.14.31.31v2.85c0,.17-.13.31-.31.31Z"/>
      <path class="cls-2" d="M12.18,30.04c-.11,0-.21-.06-.26-.15-.08-.15-.03-.34.11-.42l1.96-1.13c.16-.08.34-.03.42.11.11.15.05.34-.1.42l-1.96,1.13c-.05.03-.11.04-.16.04Z"/>
      <path class="cls-2" d="M14.17,30.06c-.18,0-.31-.14-.31-.31v-2.85c0-.17.13-.31.31-.31.16,0,.29.14.29.31v2.85c0,.17-.13.31-.29.31Z"/>
      <path class="cls-2" d="M15.69,32.1c-.1,0-.21-.06-.26-.16-.08-.15-.03-.34.1-.42l1.6-.91c.13-.08.31-.03.39.11.1.15.05.34-.1.42l-1.57.91c-.05.03-.1.04-.16.04Z"/>
      <path class="cls-2" d="M11.76,34.37c-.1,0-.21-.06-.26-.15-.08-.15-.03-.34.1-.42l1.57-.91c.16-.08.34-.03.42.11.1.15.05.34-.11.42l-1.57.91c-.05.03-.1.04-.16.04Z"/>
      <path class="cls-2" d="M16.77,21.85c-.18,0-.31-.14-.31-.31v-7.49c0-.17.13-.31.31-.31.16,0,.31.14.31.31v7.49c0,.17-.16.31-.31.31Z"/>
      <path class="cls-2" d="M14.3,18c-.11,0-.21-.05-.29-.15-.08-.15-.03-.33.13-.42l4.79-2.77c.16-.08.34-.04.42.11.08.15.03.34-.1.42l-4.79,2.77c-.05.03-.11.04-.16.04Z"/>
      <path class="cls-3" d="M8.93,13.57c-.73.43-1.15.74-1.99.94-1.23.28-2.65.14-3.67-.45-.03-.01-1.99-1.15-2.02-1.17-.94-.57-1.21-1.46-.68-2.18.31-.43.76-.63,1.2-.9C7.18,6.7,12.58,3.58,17.95.46c.37-.21.81-.21,1.18,0l.37.22c.16.09.24.25.24.43s-.08.34-.24.43C14.15,4.64,8.78,7.73,3.43,10.82c-.26.15-.58.28-.68.52-.08.19-.05.45.16.61,0,.01,1.99,1.15,1.99,1.16.52.3,1.18.16,1.65-.12L23.26,3.34c.37-.21.79-.21,1.15,0l.37.22c.16.09.24.25.24.43s-.08.34-.24.43l-15.85,9.16Z"/>
      <path class="cls-2" d="M8.93,13.57h.03-.03ZM18.52.62c-.13,0-.26.04-.42.12L1.7,10.21c-.37.2-.68.37-.89.68-.16.24-.24.51-.18.77.08.36.34.7.79.96.03.02.76.45,1.34.78l.68.39c.92.53,2.23.69,3.43.41.65-.15,1.05-.38,1.57-.69l.34-.2,15.85-9.16c.08-.04.11-.09.11-.16s-.03-.13-.11-.16l-.37-.22c-.29-.16-.58-.16-.84,0L6.71,13.26c-.68.39-1.41.43-1.96.12,0,0-1.99-1.15-2.04-1.19-.29-.22-.37-.6-.21-.97.13-.3.39-.46.66-.6l.13-.07L19.33,1.27c.05-.03.08-.09.08-.16s-.03-.13-.08-.16l-.37-.22c-.16-.08-.29-.12-.45-.12h0ZM5.68,14.95c-.94,0-1.86-.21-2.57-.63l-.66-.39c-.6-.34-1.36-.78-1.36-.78-.58-.36-.97-.84-1.07-1.37-.08-.44.03-.87.29-1.25.29-.42.71-.64,1.1-.86l.21-.12L17.79.2c.47-.27,1.02-.27,1.47,0l.39.22c.24.14.39.4.39.69s-.16.55-.39.69L3.43,11.17c-.16.09-.34.19-.39.3-.05.1-.03.18.05.24.05.04,1.94,1.12,1.96,1.14.52.3,1.15-.02,1.34-.12L23.11,3.07c.45-.27,1-.27,1.47,0l.37.22c.24.15.39.41.39.69s-.16.55-.39.69l-15.85,9.16h0l-.34.2c-.55.33-.99.59-1.75.76-.42.1-.86.15-1.31.15Z"/>
      <path class="cls-2" d="M4.64,13.08c-.1,0-.18-.06-.26-.16-.08-.15-.03-.33.1-.42L20.91,3.04c.13-.09.31-.04.42.11.08.15.03.34-.13.42L4.79,13.04c-.05.03-.1.04-.16.04Z"/>
    </g>
  </g>
</svg>