<?xml version="1.0" encoding="UTF-8"?>
<svg id="Layer_2" data-name="Layer 2" xmlns="http://www.w3.org/2000/svg" viewBox="0 0 46.06 91.7" fill="currentColor">
  <defs>
    <style>
      .cls-1 {
        fill: #fff;
      }

      .cls-1, .cls-2, .cls-3, .cls-4 {
        fill-rule: evenodd;
      }

      .cls-2 {
        fill: #1a87c7;
      }

      .cls-3 {
        fill: #bdedf8;
      }

      .cls-4 {
        fill: #66ceef;
      }
    </style>
  </defs>
  <g id="_Layer_" data-name="&amp;lt;Layer&amp;gt;">
    <g>
      <path class="cls-3" d="M45.27,3.07l-3.98-2.3c-.26-.14-.31-.23-.58-.09C24.58,10,17.29,14.2,1.15,23.52c-.21.14-.26.22-.42.41-.11.22-.11.32-.11.56v63.75c0,.18,0,.25.11.38l4.19,2.42c-.1-.13-.1-.2-.16-.38V26.91c.05-.23.05-.34.16-.55.16-.2.21-.28.42-.41C21.48,16.62,28.77,12.41,44.91,3.09c.16-.07.21-.09.37-.02Z"/>
      <path class="cls-2" d="M45.27,3.07l-.26.56h0s.26-.56.26-.56h0ZM1.21,88.17l2.99,1.71V26.91c0-.39.11-.57.21-.83.16-.31.31-.46.58-.65L43.91,2.97l-2.93-1.67.1-.65-.26.55c.05.03.16.03.16.02L1.47,24.05c-.11.05-.11.07-.21.21-.05.1-.05.14-.05.28v63.63h0ZM4.98,91.67c-.1,0-.21-.03-.31-.09l-4.19-2.43c-.42-.36-.47-.63-.47-.85V24.49c0-.38.11-.56.21-.82.21-.31.31-.46.58-.66L40.4.14c.58-.26.84-.12,1.15.05l4.04,2.35c.26.16.42.52.26.81-.16.26-.47.39-.68.32L5.66,26.48c-.1.04-.1.06-.21.2,0,.1-.05.13-.05.29v63.69c.26.21.26.53.05.78-.1.15-.26.23-.47.23Z"/>
      <path class="cls-3" d="M13.36,34.64c0-1.12.79-2.49,1.73-3.05l23.79-13.73c1-.56,1.78-.1,1.78,1.02v20.98c0,1.12-.79,2.49-1.78,3.05l-23.79,13.72c-.94.57-1.73.11-1.73-1.02v-20.98h0ZM44.91,68.17c.31-.17.52-.61.52-.97V3.45c0-.37-.21-.52-.52-.36C28.77,12.41,21.48,16.62,5.35,25.94c-.31.17-.58.61-.58.97v63.75c0,.37.26.52.58.35,16.14-9.32,23.42-13.52,39.56-22.85h0Z"/>
      <path class="cls-2" d="M39.67,18.23c-.11,0-.26.06-.47.16l-23.79,13.73c-.73.45-1.41,1.63-1.41,2.52v20.98c0,.3.05.53.21.61.11.08.37.03.63-.12l23.74-13.73c.79-.45,1.47-1.63,1.47-2.52v-20.98c0-.3-.05-.53-.21-.61,0-.02-.05-.04-.16-.04h0ZM14.36,57.49c-.31,0-.58-.07-.79-.2-.52-.3-.84-.91-.84-1.68v-20.98c0-1.34.94-2.91,2.1-3.59l23.74-13.72c.68-.38,1.36-.42,1.89-.13.52.3.84.92.84,1.68v20.98c0,1.34-.89,2.91-2.1,3.58l-23.79,13.73c-.31.21-.73.32-1.05.32h0ZM44.8,3.85v63.34c0,.16-.11.38-.21.44L5.4,90.26V26.91c0-.15.16-.38.26-.43L44.8,3.85h0ZM5.08,91.7c-.16,0-.31-.04-.42-.12-.31-.17-.47-.51-.47-.92V26.91c0-.59.31-1.22.84-1.5L44.59,2.56c.31-.19.68-.2,1-.04.31.18.47.51.47.92v63.74c0,.59-.37,1.22-.84,1.51h0L5.66,91.55c-.21.1-.37.15-.58.15Z"/>
      <path class="cls-3" d="M35.95,19.05c0-.08,0-.13-.1-.18l2.78,1.61c.11.06.11.09.11.18l-.11,20-23.27,13.37-2.78-1.61,23.27-13.37.1-19.99Z"/>
      <path class="cls-2" d="M13.83,52.41l1.52.9,22.64-13.02.11-19.43-1.57-.89-.11,19.07c0,.22-.1.42-.31.53l-22.27,12.84h0ZM15.35,54.64c-.05,0-.16-.03-.26-.08l-2.83-1.61c-.16-.11-.31-.31-.31-.53s.16-.42.31-.53l22.95-13.19.11-19.52c-.11-.2-.11-.46.05-.65.16-.25.52-.33.79-.17l2.78,1.61c.37.3.37.55.42.66l-.1,20.05c0,.22-.16.42-.31.53l-23.27,13.37c-.1.05-.21.08-.31.08Z"/>
      <path class="cls-4" d="M35.84,39.04c.05-.12.1-.18.1-.32v-19.67c0-.08,0-.13-.1-.18l2.78,1.61c.11.06.11.09.11.18v19.67c0,.14-.05.21-.11.33l-2.78-1.61Z"/>
      <path class="cls-2" d="M36.52,38.74l1.57.89v-18.77l-1.57-.89.05,18.74c-.05.01-.05.02-.05.03h0ZM38.62,41.26c-.1,0-.21-.03-.31-.08l-2.78-1.61c-.16-.08-.26-.23-.31-.39-.05-.16,0-.34.11-.48l.52.33-.52-.37v-19.5c-.11-.21-.11-.46.05-.66.16-.25.52-.33.79-.17l2.78,1.61c.37.3.37.55.42.66v19.72c-.05.32-.1.48-.21.66-.16.19-.31.29-.52.29Z"/>
      <path class="cls-4" d="M40.14,17.74l-2.78-1.61c-.52-.2-.73-.11-1.26.12l-23.79,13.73c-.42.31-.63.49-.94.92-.52.77-.79,1.22-.79,2.14v20.97c0,.56.05.78.52,1.14l2.78,1.61c-.47-.36-.52-.59-.52-1.14v-20.98c.05-.92.26-1.37.79-2.13.37-.43.52-.6.94-.92l23.79-13.73c.52-.23.73-.32,1.26-.12Z"/>
      <path class="cls-2" d="M36.89,16.62c-.1,0-.21.05-.52.19l-23.74,13.7c-.37.25-.47.39-.84.78-.42.72-.58,1.02-.58,1.74v20.97c0,.4,0,.43.26.67l1.26.72v-20.76c.11-1.11.37-1.65.89-2.47.42-.52.63-.73,1.15-1.08l23.63-13.65-1.36-.77c-.05-.03-.1-.04-.16-.04h0ZM13.89,57.37c-.1,0-.21-.03-.31-.08l-2.78-1.61c-.73-.57-.84-1.01-.84-1.67v-20.97c0-1.13.37-1.72.89-2.47.42-.52.63-.73,1.15-1.09l23.79-13.75c.63-.29,1.05-.45,1.78-.16l2.88,1.65c.31.16.42.51.26.8-.16.29-.47.43-.79.31-.31-.11-.31-.1-.79.11l-23.74,13.7c-.31.25-.47.39-.79.78-.42.64-.58,1-.63,1.8v20.92c0,.4,0,.44.26.67.26.2.31.56.16.83-.16.17-.31.26-.52.26Z"/>
      <path class="cls-3" d="M40.14,17.74l-2.78-1.61c-.52-.2-.79-.16-1.26.12l-23.79,13.73c-.42.31-.63.49-.94.92l2.78,1.61c.37-.43.52-.6.94-.92l23.79-13.73c.52-.23.73-.32,1.26-.12Z"/>
      <path class="cls-2" d="M12.31,30.75l1.68.96c.26-.23.47-.4.79-.63l23.63-13.65-1.36-.78c-.21-.08-.26-.07-.63.13l-23.79,13.73c-.11.09-.21.16-.31.24h0ZM14.15,33.12c-.1,0-.21-.03-.31-.08l-2.78-1.61c-.16-.09-.26-.25-.31-.42-.05-.18,0-.36.16-.5.37-.46.58-.68,1.1-1.03l23.79-13.75c.58-.34,1.05-.45,1.78-.16l2.88,1.65c.31.16.42.51.26.8-.16.29-.47.43-.79.31-.31-.11-.31-.1-.79.11l-23.74,13.7c-.31.25-.47.39-.79.78-.11.14-.31.22-.47.22Z"/>
      <path class="cls-1" d="M33.64,41.12v-18.88l-1.68.99v18.88c0,.18.1.34.26.43.16.09.31.09.47,0l.21-.13c.47-.27.73-.74.73-1.29h0ZM26.67,45.17v-18.88l-1.73.99v18.89c0,.18.11.33.26.43.16.09.31.09.47,0l.26-.13c.42-.27.73-.74.73-1.28h0ZM17.92,31.32v18.88c0,.18.1.34.26.43.16.09.37.09.52,0l.21-.13c.47-.27.73-.74.73-1.28v-18.88l-1.73.99h0Z"/>
      <path class="cls-2" d="M32.59,23.59v18.32-.03c.31-.16.47-.43.47-.76v-17.82l-.47.28h0ZM32.44,43.22c-.16,0-.37-.05-.52-.15-.37-.2-.58-.56-.58-.96v-18.88c0-.22.11-.42.31-.54l1.73-.99c.16-.11.42-.11.58,0,.21.11.31.32.31.53v18.88c0,.77-.37,1.44-1.05,1.82l-.21.13c-.16.11-.37.15-.58.15h0ZM25.57,27.62v18.32l.05-.03c.26-.16.42-.42.42-.75v-17.82l-.47.27h0ZM25.68,46.58h.05-.05ZM25.47,47.27c-.21,0-.42-.05-.58-.15-.37-.2-.58-.56-.58-.96v-18.89c0-.21.16-.42.31-.53l1.73-.99c.16-.1.42-.1.58,0,.21.11.31.31.31.53v18.88c0,.77-.37,1.44-1.05,1.82l-.21.13c-.16.1-.37.15-.52.15h0ZM18.55,31.67v18.32l.05-.03c.26-.16.42-.42.42-.75v-17.82l-.47.27h0ZM18.44,51.31c-.21,0-.37-.05-.58-.15-.31-.2-.52-.56-.52-.96v-18.88c0-.22.1-.43.31-.53l1.68-.99c.21-.11.42-.11.63,0,.21.11.31.31.31.53v18.88c0,.77-.42,1.44-1.05,1.82l-.26.13c-.16.1-.31.15-.52.15Z"/>
      <path class="cls-3" d="M38.46,40.79c-7.65,4.41-15.25,8.81-22.9,13.22-.16.08-.26,0-.26-.17v-19.67c0-.17.11-.38.26-.46,7.65-4.41,15.25-8.82,22.9-13.23.16-.08.26,0,.26.17v19.67c0,.18-.11.38-.26.47h0ZM13.36,34.64v20.98c0,1.12.79,1.58,1.73,1.02l23.79-13.72c1-.57,1.78-1.94,1.78-3.05v-20.98c0-1.12-.79-1.58-1.78-1.02l-23.79,13.73c-.94.56-1.73,1.93-1.73,3.05h0Z"/>
      <path class="cls-2" d="M38.09,21.41l-22.22,12.83.05,18.85,22.16-12.81v-18.87h0ZM15.46,54.66c-.16,0-.26-.04-.37-.1-.26-.14-.42-.41-.42-.72v-19.67c0-.39.26-.8.58-1l22.9-13.22c.26-.15.58-.15.79-.02.26.14.42.41.42.72v19.67c0,.4-.26.81-.58,1h0l-22.9,13.22c-.16.07-.31.12-.42.12h0ZM39.67,18.23c-.11,0-.26.06-.47.16l-23.79,13.73c-.73.45-1.41,1.63-1.41,2.52v20.98c0,.3.05.53.21.61.11.08.37.03.63-.12l23.74-13.73c.79-.45,1.47-1.63,1.47-2.52v-20.98c0-.3-.05-.53-.21-.61,0-.02-.05-.04-.16-.04h0ZM14.36,57.49c-.31,0-.58-.07-.79-.2-.52-.3-.84-.91-.84-1.68v-20.98c0-1.34.94-2.91,2.1-3.59l23.74-13.72c.68-.38,1.36-.42,1.89-.13.52.3.84.92.84,1.68v20.98c0,1.34-.89,2.91-2.1,3.58l-23.79,13.73c-.31.21-.73.32-1.05.32Z"/>
      <path class="cls-4" d="M.73,23.92h0c-.11.23-.11.33-.11.57v63.75c0,.18,0,.25.11.38l4.19,2.42c-.1-.13-.1-.2-.16-.38V26.91c.05-.23.05-.34.16-.55h.05s-4.24-2.43-4.24-2.43Z"/>
      <path class="cls-2" d="M1.21,88.17l2.99,1.71V26.63l-2.99-1.73v63.28h0ZM4.98,91.67c-.1,0-.21-.03-.31-.09l-4.19-2.43c-.42-.36-.47-.63-.47-.85V24.49c0-.38.11-.56.21-.82.21-.24.58-.43.84-.27l4.19,2.42c.16.08.26.22.31.39.05.16,0,.34-.11.48,0,.09-.05.12-.05.28v63.69c.26.21.26.53.05.78-.1.15-.26.23-.47.23Z"/>
    </g>
  </g>
</svg>