<?xml version="1.0" encoding="UTF-8"?>
<svg id="Layer_2" data-name="Layer 2" xmlns="http://www.w3.org/2000/svg" viewBox="0 0 41.36 42.35" fill="currentColor">
  <defs>
    <style>
      .cls-1 {
        fill: #fff;
      }

      .cls-1, .cls-2, .cls-3, .cls-4 {
        fill-rule: evenodd;
      }

      .cls-2 {
        fill: #1a87c7;
      }

      .cls-5, .cls-4 {
        fill: #66ceef;
      }

      .cls-3 {
        fill: #bdedf8;
      }
    </style>
  </defs>
  <g id="_Layer_" data-name="&amp;lt;Layer&amp;gt;">
    <g>
      <path class="cls-4" d="M33.76,17.32l-3.03-1.75c-1.45.77-6.31,13.45-5.42,13.97l3.02,1.75c-.9-.55,3.97-13.2,5.43-13.98Z"/>
      <path class="cls-2" d="M25.51,29.31l2.42,1.4c.22-2.45,3.68-11.38,5.32-13.33l-2.49-1.43c-1.34,1.27-5.61,12.1-5.24,13.36h0ZM28.56,31.09h.01-.01ZM28.34,31.6c-.05,0-.11,0-.15-.05l-3.03-1.74c-.24-.14-.27-.46-.26-.69.05-2.36,4.23-13.04,5.69-13.82.09-.05.21-.05.3.01l3.03,1.75c.1.05.16.16.15.27,0,.11-.06.22-.16.27-1.17.63-5.78,12.22-5.36,13.47.1.1.13.25.06.39-.06.09-.17.15-.27.15Z"/>
      <path class="cls-4" d="M24.47,22.69l-3.03-1.75c-1.45.77-6.31,13.44-5.42,13.97l3.03,1.75c-.9-.54,3.97-13.2,5.42-13.97Z"/>
      <path class="cls-2" d="M16.22,34.67l2.42,1.4c.22-2.45,3.68-11.38,5.32-13.31l-2.49-1.44c-1.34,1.27-5.61,12.1-5.24,13.36h0ZM19.26,36.45h0,0ZM19.05,36.97c-.05,0-.1,0-.16-.04l-3.02-1.76c-.24-.14-.27-.45-.26-.68.05-2.37,4.23-13.05,5.69-13.83.09-.04.2-.04.3.01l3.02,1.75c.1.05.16.16.16.27s-.06.22-.17.27c-1.16.63-5.77,12.22-5.35,13.47.1.1.13.25.06.38-.06.1-.16.15-.27.15Z"/>
      <path class="cls-4" d="M15.15,28.08l-3.03-1.76c-1.45.78-6.31,13.44-5.42,13.97l3.03,1.75c-.9-.54,3.97-13.19,5.42-13.97Z"/>
      <path class="cls-2" d="M6.9,40.05l2.42,1.4c.21-2.45,3.68-11.38,5.32-13.32l-2.5-1.44c-1.33,1.27-5.61,12.1-5.23,13.36h0ZM9.95,41.83h.01-.01ZM9.73,42.35c-.05,0-.11,0-.16-.03l-3.03-1.75c-.24-.15-.27-.46-.26-.69.05-2.37,4.23-13.04,5.69-13.83.09-.04.2-.04.29,0l3.03,1.75c.11.05.16.16.16.27s-.06.22-.17.27c-1.17.63-5.77,12.22-5.35,13.47.1.1.13.25.06.38-.06.09-.16.15-.27.15Z"/>
      <path class="cls-3" d="M24.47,22.69c-1.29.35-6.44,13.88-5.42,13.97,1.02.09,6.36-13.42,5.42-13.97Z"/>
      <path class="cls-2" d="M24.28,23.24c-1.35,1.71-5.06,11.16-5.07,13,1.16-1.24,4.93-10.87,5.07-13h0ZM19.05,36.97h-.03c-.11,0-.37-.08-.41-.51-.16-1.79,4.36-13.69,5.78-14.07.07-.02.16,0,.24.04.3.18.53.62-.44,3.7-.71,2.22-3.89,10.84-5.14,10.84Z"/>
      <path class="cls-3" d="M12.23,37.89c1.78-3.96,3.52-9.48,2.93-9.81-1.3.35-6.44,13.87-5.42,13.97.47.05,2.22-3.55,2.49-4.15Z"/>
      <path class="cls-2" d="M14.96,28.61c-1.31,1.65-4.92,10.8-5.07,12.9.55-.73,1.63-2.83,2.04-3.75h0c1.61-3.57,2.95-7.85,3.03-9.14h0ZM9.72,42.35h-.02c-.12,0-.37-.08-.41-.5-.16-1.79,4.36-13.69,5.77-14.07.09-.02.17,0,.23.03,1.17.67-2.15,8.74-2.8,10.2h0c-.2.45-1.97,4.34-2.78,4.34Z"/>
      <path class="cls-3" d="M33.76,17.32c-1.3.35-6.44,13.88-5.43,13.98,1.03.09,6.36-13.43,5.43-13.98Z"/>
      <path class="cls-2" d="M33.57,17.88c-1.35,1.7-5.06,11.15-5.07,13,1.14-1.24,4.92-10.87,5.07-13h0ZM28.34,31.6h-.02c-.12,0-.37-.08-.41-.5-.15-1.79,4.36-13.69,5.78-14.07.08-.02.15-.01.23.03.31.18.53.62-.44,3.68-.7,2.23-3.89,10.86-5.14,10.86Z"/>
      <path class="cls-4" d="M12.96,33.47c-1.69.97-3.22,1.06-4.33.43h-.01s-6.3-3.65-6.3-3.65c-.36-.22-.65-.47-.9-.81-1-1.31-1.01-3.3-.73-4.86.54-2.98,2.4-6.17,4.77-8.08l.28-.21c.04-.35.08-.66.14-1,.84-4.84,4.22-10.27,8.52-12.78,1.68-.98,3.87-1.64,5.75-.81l.18.09,1.31.75c1.18-1.04,2.79-2.04,4.41-2.01.39.01.8.09,1.17.24l.17.08,2.75,1.58.29-.05c.64-.12,1.32-.08,1.91.15l.21.1,6.31,3.64c1.21.59,1.96,2.01,1.96,4.06,0,3.9-2.75,8.65-6.13,10.6l-21.73,12.54Z"/>
      <g>
        <path class="cls-2" d="M18.29,1.63c-1.49,0-2.9.66-3.75,1.16-4.04,2.34-7.48,7.52-8.36,12.56-.06.34-.09.64-.14.98,0,.08-.05.16-.11.21l-.28.21c-2.3,1.85-4.13,4.95-4.66,7.89-.17.9-.43,3.16.67,4.61.23.3.49.53.82.73l6.3,3.63c1.06.61,2.49.47,4.02-.42l21.74-12.54c3.28-1.89,5.96-6.53,5.96-10.33,0-1.84-.65-3.22-1.79-3.78l-6.5-3.73c-.5-.2-1.11-.25-1.74-.15l-.28.06c-.08.02-.15,0-.22-.04l-2.89-1.65c-.3-.12-.68-.19-1.05-.2h-.06c-1.69,0-3.31,1.21-4.14,1.93-.09.09-.24.1-.36.03l-1.47-.83c-.57-.24-1.16-.35-1.73-.35h0ZM10.23,34.61c-.64,0-1.23-.15-1.75-.45l-6.31-3.64c-.41-.25-.72-.53-1-.89-1.23-1.64-.96-4.11-.78-5.1.56-3.08,2.48-6.33,4.89-8.26l.18-.13c.03-.3.07-.58.12-.89.91-5.21,4.47-10.55,8.66-12.98,1.27-.75,3.75-1.83,6.03-.84l.2.1,1.14.65c.94-.8,2.63-1.97,4.44-1.94.45,0,.89.09,1.28.25l.18.08,2.68,1.55.17-.04c.76-.13,1.48-.07,2.09.18l.22.09,6.34,3.66c1.35.66,2.12,2.24,2.12,4.33,0,3.99-2.82,8.87-6.27,10.87l-21.74,12.53c-1.01.58-1.99.88-2.88.88Z"/>
        <path class="cls-5" d="M10.23,34.85c-.68,0-1.31-.16-1.87-.48l-6.31-3.64c-.43-.27-.77-.56-1.07-.94C-.3,28.07-.02,25.51.16,24.49c.57-3.14,2.52-6.44,4.97-8.41l.11-.08c.03-.27.06-.52.11-.8.92-5.28,4.53-10.68,8.78-13.15,1.3-.76,3.84-1.9,6.25-.84l.21.1,1.01.58c.91-.76,2.59-1.89,4.39-1.89h.08c.48.01.94.1,1.36.27l.19.08,2.62,1.51.09-.02c.81-.14,1.57-.07,2.22.19l.22.1,6.36,3.67c1.42.69,2.24,2.35,2.24,4.53,0,4.07-2.87,9.03-6.39,11.07l-21.74,12.53c-1.04.6-2.05.91-3,.91ZM18.28,1.26c-1.57,0-3.04.69-3.92,1.21-4.14,2.4-7.65,7.67-8.55,12.82-.05.3-.08.57-.12.87v.1s-.28.19-.28.19c-2.36,1.89-4.24,5.08-4.79,8.11-.17.96-.43,3.36.74,4.92.26.33.55.59.93.83l6.3,3.64c1.16.68,2.76.52,4.4-.42l21.74-12.53c3.4-1.96,6.16-6.74,6.16-10.66,0-2-.72-3.5-1.99-4.12l-6.54-3.75c-.56-.22-1.24-.28-1.95-.16l-.25.05-2.91-1.66c-.36-.14-.76-.22-1.19-.23-.02,0-.05,0-.07,0-1.74,0-3.38,1.18-4.21,1.88l-.12.11-1.47-.82c-.62-.27-1.26-.38-1.89-.38ZM10.24,34.23c-.58,0-1.1-.14-1.57-.41l-6.3-3.63c-.37-.22-.65-.48-.89-.79-1.16-1.54-.88-3.87-.71-4.8.54-2.99,2.4-6.14,4.74-8.03l.28-.21s.02-.03.02-.04l.03-.23c.03-.26.06-.51.11-.78.89-5.11,4.38-10.34,8.47-12.72.93-.54,2.35-1.19,3.87-1.19.63,0,1.25.13,1.82.37l1.49.84s.06.02.08,0c1.04-.91,2.63-1.99,4.29-1.99h.06c.41,0,.81.08,1.13.22l2.92,1.66s.04,0,.05.01l.28-.06c.67-.11,1.34-.06,1.88.16l6.53,3.74c1.21.59,1.91,2.05,1.91,3.98,0,3.87-2.73,8.59-6.08,10.53l-21.74,12.54c-.95.55-1.86.82-2.69.82ZM18.29,1.87c-1.41,0-2.75.61-3.63,1.12-3.99,2.31-7.38,7.41-8.25,12.4-.05.26-.08.5-.11.75l-.03.22c-.01.13-.08.26-.19.36l-.29.22c-2.25,1.82-4.05,4.86-4.57,7.75-.13.68-.45,3,.62,4.43.21.27.44.49.75.67l6.3,3.63c.99.57,2.33.42,3.79-.42l21.74-12.54c3.22-1.86,5.84-6.4,5.84-10.12,0-1.75-.6-3.06-1.66-3.57l-6.52-3.73c-.42-.17-.99-.22-1.58-.12l-.27.06c-.16.04-.29-.01-.37-.06l-2.91-1.66c-.24-.1-.58-.16-.93-.17h-.06c-1.52,0-3,1.02-3.98,1.87-.17.16-.43.18-.63.06l-1.46-.83c-.49-.21-1.04-.32-1.61-.32Z"/>
      </g>
      <path class="cls-3" d="M12.96,33.47c-3.38,1.95-6.12.37-6.12-3.54,0-3.54,2.26-7.78,5.21-9.99.55-5.28,4.22-11.21,8.66-13.78,2.94-1.7,5.54-1.51,7.12.15.55-.5,1.13-.94,1.74-1.29,2.69-1.55,4.97-.86,5.79,1.44,3.08-1.4,5.47.22,5.47,3.88,0,3.9-2.75,8.65-6.13,10.6l-21.73,12.54Z"/>
      <path class="cls-2" d="M24.59,5.3c-1.14,0-2.42.37-3.74,1.14-4.29,2.48-7.95,8.3-8.5,13.53,0,.09-.05.17-.12.22-2.89,2.17-5.07,6.36-5.09,9.74,0,1.78.58,3.09,1.64,3.7,1.05.61,2.48.46,4.02-.43l21.74-12.54c3.28-1.89,5.96-6.53,5.96-10.33,0-1.7-.54-3-1.53-3.63-.9-.59-2.15-.57-3.5.03-.08.04-.16.04-.25.01-.08-.03-.14-.11-.16-.18-.34-.95-.94-1.6-1.74-1.89-1-.37-2.29-.15-3.61.61-.57.33-1.14.76-1.69,1.26-.12.11-.32.1-.44-.02-.78-.83-1.81-1.23-3-1.23h0ZM10.23,34.61c-.64,0-1.23-.15-1.75-.45-1.25-.72-1.95-2.23-1.95-4.23,0-3.57,2.2-7.82,5.23-10.15.61-5.38,4.37-11.33,8.79-13.87,2.83-1.64,5.54-1.63,7.28,0,.51-.45,1.04-.84,1.57-1.14,1.49-.86,2.97-1.1,4.14-.66.88.32,1.57,1,1.98,1.95,1.43-.57,2.76-.52,3.79.13,1.16.76,1.81,2.24,1.81,4.16,0,3.99-2.82,8.87-6.27,10.87l-21.74,12.53-.15-.26.15.26c-1.01.58-1.99.88-2.88.88Z"/>
      <path class="cls-2" d="M12.05,20.24c-.05,0-.1,0-.15-.04l-6.31-3.64c-.15-.09-.19-.27-.11-.42.09-.15.28-.2.43-.11l6.31,3.64c.15.09.2.28.11.43-.06.09-.16.15-.27.15Z"/>
      <path class="cls-2" d="M27.91,6.48c-.06,0-.11-.02-.16-.04l-6.27-3.62c-.15-.09-.2-.27-.11-.42.09-.15.28-.2.42-.11l6.26,3.61c.15.09.2.27.11.42-.05.1-.15.16-.26.16Z"/>
      <path class="cls-2" d="M33.72,4.81c-.05,0-.11,0-.16-.03l-3.58-2.07c-.15-.09-.19-.28-.11-.42.09-.16.28-.2.43-.11l3.58,2.06c.15.09.19.28.11.43-.06.09-.17.15-.27.15Z"/>
      <path class="cls-4" d="M35.89,21.64l3.63-2.1-3.58-2.07-3.63,2.09,3.58,2.07h0ZM27.98,16.34l7.09-4.09,3.58,2.06-7.09,4.1v7.11l2,1.15v8.64l-3.58-2.07v-6.33l-2-1.16v-9.42Z"/>
      <path class="cls-2" d="M32.93,19.57l2.96,1.71,3.01-1.74-2.96-1.71-3.01,1.74h0ZM35.89,21.94c-.05,0-.1,0-.16-.04l-3.58-2.07c-.1-.06-.16-.16-.16-.27s.06-.21.16-.27l3.62-2.09c.09-.05.22-.05.31,0l3.58,2.07c.1.06.15.16.15.27s-.05.21-.15.27l-3.63,2.09s-.1.04-.15.04h0ZM30.28,33.06v-6.14c0-.11-.05-.22-.15-.27l-1.85-1.07v-9.06l6.79-3.92,2.97,1.71-6.63,3.83c-.09.05-.15.16-.15.27v7.11c0,.11.06.21.15.27l1.85,1.06v7.93l-2.97-1.71h0ZM33.56,35.62c-.05,0-.11-.01-.16-.04l-3.58-2.07c-.1-.05-.15-.16-.15-.26v-6.15l-1.85-1.06c-.1-.06-.16-.17-.16-.27v-9.42c0-.11.06-.21.16-.27l7.09-4.09c.09-.05.21-.05.3,0l3.58,2.07c.1.05.16.16.16.26,0,.11-.06.22-.16.27l-6.93,4.01v6.75l1.85,1.07c.1.05.15.16.15.27v8.64c0,.1-.05.21-.15.26-.05.03-.11.04-.16.04Z"/>
      <polygon class="cls-4" points="31.56 18.58 27.98 16.51 27.98 25.76 29.98 26.92 29.98 33.25 33.56 35.32 33.56 26.68 31.56 25.52 31.56 18.58"/>
      <path class="cls-2" d="M30.28,33.06l2.97,1.71v-7.93l-1.85-1.06c-.09-.06-.15-.16-.15-.27v-6.76l-2.97-1.71v8.54l1.85,1.07c.1.05.15.16.15.27v6.14h0ZM33.56,35.62c-.05,0-.11-.01-.16-.04l-3.58-2.07c-.1-.05-.15-.16-.15-.26v-6.15l-1.85-1.06c-.1-.06-.16-.17-.16-.27v-9.26c0-.1.06-.21.16-.26.09-.06.21-.06.3,0l3.59,2.07c.09.05.15.15.15.26v6.76l1.85,1.07c.1.05.15.16.15.27v8.64c0,.1-.05.21-.15.26-.05.03-.11.04-.16.04Z"/>
      <polygon class="cls-1" points="31.56 18.41 38.66 14.31 35.89 21.64 39.52 19.54 33.56 35.32 33.56 26.68 31.56 27.83 31.56 18.41"/>
      <path class="cls-2" d="M33.56,26.36c.05,0,.1.02.16.04.1.05.15.16.15.27v6.95l5.06-13.39-2.88,1.67c-.11.06-.25.05-.35-.03-.11-.09-.14-.22-.09-.35l2.46-6.51-6.2,3.57v8.71l1.54-.89c.05-.03.1-.04.16-.04h0ZM33.56,35.62h-.05c-.15-.03-.25-.16-.25-.3v-8.11l-1.54.89c-.1.06-.22.06-.31,0-.09-.05-.15-.16-.15-.26v-9.42c0-.11.06-.22.15-.27l7.09-4.09c.11-.07.25-.05.36.02.1.09.13.23.09.35l-2.46,6.52,2.88-1.67c.11-.06.26-.05.36.04.1.09.13.23.09.35l-5.95,15.77c-.04.12-.16.2-.29.2Z"/>
      <path class="cls-2" d="M31.56,28.14c-.05,0-.1,0-.16-.04l-3.58-2.06c-.15-.09-.2-.28-.11-.42.09-.15.27-.19.42-.11l3.59,2.07c.15.09.19.27.11.42-.06.1-.16.15-.27.15Z"/>
    </g>
  </g>
</svg>