<?xml version="1.0" encoding="UTF-8"?>
<svg id="Layer_2" data-name="Layer 2" xmlns="http://www.w3.org/2000/svg" viewBox="0 0 28.01 43.01" fill="currentColor">
  <defs>
    <style>
      .cls-1 {
        fill: #fff;
      }

      .cls-1, .cls-2, .cls-3 {
        fill-rule: evenodd;
      }

      .cls-2 {
        fill: #1a87c7;
      }

      .cls-3 {
        fill: #bdedf8;
      }
    </style>
  </defs>
  <g id="_Layer_" data-name="&amp;lt;Layer&amp;gt;">
    <g>
      <path class="cls-3" d="M22.38,36.6l-7.58-4.37-.17-.19c-.58-.77-.99-3.29-1.17-4.29-.31-1.82-.87-7.21-2.42-8.19l7.58,4.37c1.34.81,1.84,4.71,2.09,6.21.25,1.5.7,5.41,1.66,6.46Z"/>
      <path class="cls-2" d="M14.99,31.98l6.57,3.79c-.46-1.18-.76-2.97-1.03-4.76-.05-.32-.09-.6-.13-.83l-.08-.49c-.25-1.57-.78-4.86-1.87-5.52l-6.28-3.63c.7,1.5,1.11,3.91,1.44,6.17.05.38.1.7.15.96l.02.1c.16.92.57,3.37,1.09,4.06l.12.13h0ZM22.38,36.9c-.05,0-.11,0-.15-.03l-7.58-4.38s-.05-.03-.08-.05l-.17-.19c-.55-.73-.93-2.61-1.22-4.35l-.02-.1c-.04-.26-.09-.59-.15-.96-.3-2.03-.93-6.25-2.13-7.01-.14-.1-.19-.28-.1-.43.09-.14.27-.19.42-.1l7.58,4.37c1.24.76,1.77,3.47,2.16,5.96l.08.48c.04.23.08.51.13.84.25,1.62.7,4.64,1.46,5.47.1.12.11.28.01.4-.06.08-.15.11-.24.11Z"/>
      <path class="cls-1" d="M12.04,42.61l-7.58-4.37c-.92-.88-1.81-8.29-2.23-10.06l-.66-2.39C.3,21.93-.04,17.88.69,13.87c.63-3.27,2.02-5.99,5.25-7.22,2.41-.89,3.71-1.5,5.89-2.94,2.32-1.56,4.6-4.19,6.57-3.17l7.58,4.37c-2.19-1.01-4.34,1.85-7.64,3.86-2.59,1.57-3.03,1.5-5.45,2.51-2.58,1.16-3.81,3.67-4.46,6.27-.97,4.09-.6,8.66.73,12.61,1.18,3.6,1.93,11,2.65,12.17l.24.28Z"/>
      <path class="cls-2" d="M17.47.62c-1.12,0-2.4,1.01-3.74,2.06-.56.44-1.14.9-1.72,1.29-2.11,1.39-3.39,2.03-5.95,2.97-2.73,1.03-4.34,3.25-5.06,6.99-.71,3.89-.42,7.84.87,11.76l.67,2.4c.13.54.29,1.55.48,2.71.4,2.49,1.08,6.66,1.66,7.21l6.59,3.8c-.27-.89-.54-2.4-.9-4.47-.43-2.47-.91-5.27-1.51-7.07-1.4-4.19-1.67-8.86-.74-12.79.84-3.34,2.36-5.46,4.64-6.48.71-.3,1.25-.5,1.72-.68,1.14-.44,1.89-.71,3.7-1.82,1-.61,1.92-1.32,2.73-1.95,1.3-1,2.48-1.91,3.64-2.12l-6.3-3.63c-.25-.13-.51-.19-.78-.19h0ZM12.04,42.92c-.05,0-.11-.02-.15-.04l-7.58-4.37c-.73-.7-1.27-3.72-1.9-7.61-.19-1.16-.35-2.15-.47-2.65l-.66-2.37C-.04,21.87-.34,17.81.39,13.82c.77-3.97,2.5-6.34,5.45-7.45,2.51-.92,3.76-1.55,5.82-2.91.56-.38,1.13-.83,1.68-1.27,1.74-1.37,3.54-2.78,5.2-1.93l7.59,4.39c.14.08.2.26.12.41-.08.14-.25.2-.4.13-1.35-.62-2.76.48-4.56,1.86-.82.63-1.76,1.35-2.79,1.98-1.86,1.14-2.64,1.43-3.8,1.87-.47.18-1,.37-1.69.67-2.1.94-3.5,2.92-4.29,6.06-.91,3.81-.65,8.35.72,12.44.61,1.85,1.1,4.68,1.53,7.16.39,2.28.77,4.43,1.09,4.94l.21.24c.1.11.1.28,0,.4-.06.07-.15.11-.24.11Z"/>
      <path class="cls-3" d="M12.04,42.61l-7.58-4.37c-.92-.88-1.81-8.29-2.23-10.06l-.66-2.39C.3,21.93-.04,17.88.69,13.87c.27-1.4.68-2.7,1.32-3.83l7.59,4.38c-.54.96-.91,2.04-1.18,3.13-.97,4.09-.6,8.66.73,12.61,1.18,3.6,1.93,11,2.65,12.17l.24.28Z"/>
      <path class="cls-2" d="M2.13,10.46c-.5.97-.87,2.1-1.13,3.47-.71,3.89-.42,7.84.87,11.76l.67,2.4c.13.54.29,1.55.48,2.71.4,2.49,1.08,6.66,1.66,7.21l6.59,3.8c-.27-.89-.54-2.4-.9-4.47-.43-2.47-.91-5.27-1.51-7.07-1.4-4.19-1.67-8.86-.74-12.79.28-1.13.63-2.1,1.07-2.94l-7.06-4.08h0ZM12.04,42.92c-.05,0-.11-.02-.15-.04l-7.58-4.37c-.73-.7-1.27-3.72-1.9-7.61-.19-1.16-.35-2.15-.47-2.65l-.66-2.37C-.04,21.87-.34,17.81.39,13.82c.3-1.57.74-2.86,1.35-3.93.04-.07.11-.12.18-.15.08-.02.17,0,.24.03l7.59,4.38c.15.08.2.27.12.42-.48.86-.85,1.86-1.15,3.05-.91,3.81-.65,8.35.72,12.44.61,1.85,1.1,4.68,1.53,7.16.39,2.28.77,4.43,1.09,4.94l.21.24c.1.11.1.28,0,.4-.06.07-.15.11-.24.11Z"/>
      <path class="cls-1" d="M22.09,6.08c7.04-5.79,6.02,7.57,4.57,13.27-2.2,8.68-1.84,16.22-3.69,17.29-2.36,1.35-1.95-14.49-5.17-12.63-3.22,1.86-2.81,17.23-5.17,18.59-1.85,1.07-1.49-6.89-3.69-13.02-1.45-4.04-2.47-16.22,4.57-18.56,2.86-.95,5.7-2.58,8.57-4.95Z"/>
      <path class="cls-2" d="M22.28,6.32c-2.91,2.39-5.75,4.03-8.66,5-1.73.57-3.08,1.83-4,3.72-2.26,4.64-1.36,11.69-.38,14.44.98,2.73,1.46,5.82,1.84,8.31.33,2.14.67,4.34,1.18,4.59.02.02.08.04.22-.03.96-.56,1.47-4.29,1.97-7.9.65-4.73,1.33-9.62,3.19-10.7.49-.27.88-.2,1.12-.09,1.29.61,1.82,3.84,2.39,7.27.38,2.3.85,5.18,1.48,5.48.03.02.08.03.19-.03.9-.52,1.25-3.24,1.71-6.69.38-2.92.86-6.55,1.84-10.39,1.08-4.26,1.83-12.6-.51-14.09-.82-.52-2.02-.14-3.57,1.13h0ZM12.32,43.01c-.13,0-.24-.03-.33-.08-.76-.36-1.05-1.98-1.52-5.05-.38-2.46-.85-5.52-1.81-8.2-1.01-2.83-1.94-10.11.4-14.91,1-2.05,2.46-3.41,4.36-4.04,2.84-.95,5.62-2.54,8.47-4.89h0c1.77-1.46,3.21-1.85,4.28-1.17,2.76,1.75,1.87,10.47.78,14.76-.97,3.81-1.44,7.42-1.82,10.33-.51,3.9-.85,6.48-2.01,7.16-.32.18-.59.12-.75.04-.87-.41-1.26-2.52-1.82-5.94-.47-2.82-1.04-6.34-2.04-6.8-.1-.05-.27-.1-.55.06-1.6.93-2.29,5.88-2.89,10.25-.57,4.1-1.06,7.65-2.28,8.35-.18.11-.33.14-.47.14Z"/>
    </g>
  </g>
</svg>