<?xml version="1.0" encoding="UTF-8"?>
<svg id="Layer_2" data-name="Layer 2" xmlns="http://www.w3.org/2000/svg" viewBox="0 0 39.41 39.09" fill="currentColor">
  <defs>
    <style>
      .cls-1, .cls-2, .cls-3, .cls-4 {
        fill-rule: evenodd;
      }

      .cls-1, .cls-5 {
        fill: #fff;
      }

      .cls-2 {
        fill: #1a87c7;
      }

      .cls-3 {
        fill: #bdedf8;
      }

      .cls-4 {
        fill: #66ceef;
      }
    </style>
  </defs>
  <g id="_Layer_" data-name="&amp;lt;Layer&amp;gt;">
    <g>
      <path class="cls-4" d="M3.1,23.34s-.02.09-.03.14l-.59.34c.06-.05.07-.09.08-.17.01-.35.04-.61.12-.96.17-.59.4-.99.93-1.33l2.72-1.57v.79h-.03s-2.35,1.38-2.35,1.38c-.44.25-.74.72-.85,1.38Z"/>
      <path class="cls-2" d="M6.03,20.33l-2.26,1.3c-.3.19-.5.4-.64.72.17-.28.4-.5.67-.66l2.23-1.29v-.08h0ZM2.49,24.12c-.1,0-.19-.05-.25-.13-.08-.12-.07-.27.03-.38,0-.38.04-.65.12-.99.18-.63.43-1.12,1.08-1.52l2.72-1.58c.1-.06.22-.06.31,0,.09.05.15.16.15.27v.79c0,.12-.06.23-.16.28l-2.36,1.37c-.36.21-.61.61-.71,1.16h0s-.02.12-.02.12c0,.1-.07.18-.15.23l-.59.34c-.05.03-.1.04-.15.04Z"/>
      <path class="cls-4" d="M10.67,23.12c-.67-1.28-2.76-3.4-4.37-2.52l-2.35,1.36c1.74-.91,3.79,1.37,4.55,2.89.67,1.32,1.27,3.74-.2,4.67.46-.27,2.37-1.3,2.65-1.58,1.18-1.14.45-3.51-.28-4.82Z"/>
      <path class="cls-2" d="M5.34,21.51c.07.02.14.04.21.06,1.35.43,2.62,1.93,3.23,3.14.46.92.99,2.58.61,3.84.58-.33,1.22-.71,1.35-.84,1.03-1,.36-3.2-.35-4.44h-.01c-.42-.82-1.55-2.13-2.72-2.48-.45-.14-.87-.11-1.22.08l-1.11.64h0ZM8.31,29.82c-.11,0-.2-.05-.26-.15-.09-.14-.04-.33.09-.42,1.25-.79.74-2.98.1-4.27-.57-1.13-1.75-2.47-2.87-2.83-.47-.15-.9-.12-1.28.08-.15.08-.33.02-.41-.12-.09-.15-.03-.33.11-.41l2.36-1.36c.51-.28,1.08-.33,1.7-.14,1.26.38,2.53,1.71,3.08,2.77.69,1.21,1.62,3.85.23,5.18-.24.23-1.21.78-2.27,1.38l-.44.25s-.11.04-.16.04Z"/>
      <path class="cls-4" d="M8.31,24.48c-.56-.96-1.33-1.81-2.17-2.3-.85-.49-1.62-.54-2.18-.21h0c-.56.32-.9,1.02-.9,2s.34,2.07.9,3.04c.56.97,1.33,1.81,2.18,2.3.84.49,1.62.54,2.17.22.57-.32.9-1.01.9-2s-.34-2.07-.9-3.04h0Z"/>
      <path class="cls-2" d="M4.75,22.06c-.23,0-.46.06-.65.17-.48.28-.75.89-.75,1.73,0,.89.3,1.92.86,2.88.55.96,1.29,1.74,2.07,2.19.72.42,1.39.5,1.88.22.48-.28.75-.89.75-1.73,0-.9-.3-1.92-.86-2.88l.26-.16-.26.15c-.56-.96-1.29-1.74-2.07-2.19-.44-.25-.86-.38-1.23-.38h0ZM7.51,30.03c-.48,0-1-.15-1.53-.46-.87-.5-1.69-1.36-2.3-2.41-.61-1.06-.95-2.19-.95-3.19,0-1.07.37-1.87,1.06-2.26.68-.4,1.57-.32,2.49.22.87.5,1.69,1.36,2.3,2.41,0,0,.01.01.01.02h0c.6,1.04.94,2.17.94,3.17,0,1.07-.37,1.87-1.06,2.26-.29.16-.61.25-.96.25Z"/>
      <path class="cls-3" d="M7.33,25.05c.31.53.51,1.13.51,1.67s-.19.92-.51,1.1c-.3.18-.73.15-1.19-.12-.47-.27-.9-.74-1.2-1.27l-.02-.03c-.31-.52-.49-1.11-.49-1.64s.19-.92.5-1.1h0c.3-.18.73-.15,1.2.12.46.27.89.74,1.19,1.27Z"/>
      <path class="cls-2" d="M5.37,23.86c-.11,0-.2.02-.29.07-.21.13-.34.42-.34.83,0,.46.16.99.44,1.49.3.53.7.95,1.09,1.18.36.2.67.25.9.12.22-.13.34-.42.34-.83,0-.47-.15-1.01-.45-1.52h0c-.29-.5-.69-.92-1.09-1.15-.22-.13-.42-.19-.61-.19h0ZM6.89,28.24c-.29,0-.6-.09-.91-.27-.5-.29-.96-.78-1.31-1.38-.36-.62-.54-1.26-.54-1.83,0-.64.23-1.12.65-1.36.42-.24.95-.2,1.5.12.51.29.97.78,1.31,1.38.35.6.54,1.25.54,1.83,0,.64-.23,1.12-.65,1.37-.17.1-.38.15-.59.15Z"/>
      <path class="cls-4" d="M18.26,32.74l.52-.31s0,.09-.02.14l-.58.34c.06-.05.07-.09.08-.17Z"/>
      <path class="cls-2" d="M18.18,33.22c-.11,0-.2-.05-.25-.13-.09-.12-.07-.29.03-.39.02-.08.08-.18.15-.22l.53-.3c.1-.06.23-.06.32.01.1.07.15.18.13.3l-.02.13c0,.1-.07.18-.15.23l-.59.34s-.09.04-.15.04Z"/>
      <rect class="cls-5" x="20.44" y="32.04" width="2.72" height="0" transform="translate(-13.11 15.22) rotate(-30.05)"/>
      <path class="cls-2" d="M20.62,33.03c-.11,0-.21-.06-.27-.16-.08-.15-.03-.33.11-.42h0l2.36-1.36c.14-.08.32-.04.41.09,0,0,0,.01,0,.02.09.15.03.34-.11.42l-2.36,1.36h0c-.05.03-.11.04-.16.04Z"/>
      <path class="cls-4" d="M26.36,32.18c-.67-1.28-2.76-3.4-4.36-2.52l-2.36,1.36c1.75-.91,3.79,1.36,4.56,2.88.66,1.32,1.27,3.74-.2,4.67.46-.27,2.36-1.3,2.65-1.58,1.17-1.14.45-3.51-.29-4.82Z"/>
      <path class="cls-2" d="M21.04,30.57c.07.02.14.04.21.06,1.35.43,2.62,1.93,3.23,3.14.47.92,1,2.58.61,3.84.59-.34,1.23-.71,1.36-.84,1.03-1,.36-3.2-.35-4.44h0c-.43-.83-1.55-2.13-2.73-2.49-.45-.14-.86-.11-1.21.08l-1.11.64h0ZM24.01,38.88c-.1,0-.21-.05-.27-.15-.08-.14-.03-.33.11-.42,1.25-.79.74-2.98.09-4.27-.57-1.14-1.74-2.47-2.87-2.83-.46-.15-.89-.12-1.27.08-.15.08-.34.02-.42-.13-.08-.15-.02-.33.12-.41l2.36-1.36c.5-.28,1.08-.32,1.69-.14,1.27.38,2.54,1.71,3.09,2.77.69,1.21,1.61,3.85.23,5.19-.22.21-1,.67-2.28,1.39l-.42.24s-.1.04-.15.04Z"/>
      <path class="cls-4" d="M24.01,33.54c-.56-.97-1.33-1.81-2.18-2.3-.85-.49-1.62-.54-2.18-.21h0c-.56.32-.9,1.01-.9,1.99s.35,2.07.9,3.04c.56.97,1.33,1.81,2.18,2.3.85.49,1.62.54,2.18.22.56-.32.9-1.01.9-2s-.35-2.07-.9-3.04h0Z"/>
      <path class="cls-2" d="M20.45,31.12c-.24,0-.46.06-.65.17-.49.28-.75.9-.75,1.73,0,.9.3,1.92.86,2.89.56.96,1.29,1.74,2.07,2.19.72.42,1.39.5,1.87.22.49-.28.75-.89.75-1.73,0-.9-.3-1.92-.86-2.88l.27-.16-.27.15c-.56-.96-1.29-1.74-2.07-2.19-.43-.25-.85-.38-1.22-.38h0ZM23.21,39.09c-.48,0-1-.15-1.54-.46-.87-.5-1.68-1.36-2.28-2.42-.62-1.05-.95-2.19-.95-3.19,0-1.06.37-1.87,1.06-2.26.68-.4,1.56-.32,2.49.21.87.5,1.68,1.36,2.28,2.42,0,.01.02.02.03.04h0c.59,1.02.92,2.15.92,3.16,0,1.07-.37,1.87-1.05,2.26-.29.17-.62.25-.95.25Z"/>
      <path class="cls-3" d="M23.02,34.11c.3.53.5,1.13.5,1.67s-.19.92-.5,1.1c-.3.18-.73.15-1.2-.12-.47-.27-.9-.74-1.2-1.27l-.02-.03c-.29-.53-.48-1.11-.48-1.64s.19-.92.5-1.1h0c.3-.18.73-.15,1.2.12.47.27.9.74,1.2,1.27Z"/>
      <path class="cls-2" d="M21.07,32.92c-.11,0-.21.02-.29.07-.23.13-.35.42-.35.83,0,.46.16.99.45,1.49.31.54.69.95,1.1,1.18.35.2.67.24.89.12.22-.12.35-.43.35-.83,0-.46-.16-1.02-.46-1.52-.29-.5-.69-.92-1.09-1.16-.22-.13-.42-.19-.6-.19h0ZM22.58,37.3c-.29,0-.59-.09-.91-.27-.5-.29-.96-.78-1.31-1.38-.35-.62-.54-1.26-.54-1.83,0-.64.24-1.12.65-1.36.42-.24.96-.2,1.51.12.5.29.96.78,1.31,1.38.35.6.54,1.25.54,1.83,0,.64-.23,1.12-.65,1.37-.18.11-.38.15-.6.15Z"/>
      <path class="cls-4" d="M19.3,30.43l2.43-1.41.26.64-2.36,1.36h0c-.43.25-.75.74-.86,1.41l-.52.31c0-.65.09-1.15.42-1.71.19-.28.33-.41.62-.6Z"/>
      <path class="cls-2" d="M19.46,30.69c-.24.15-.35.26-.52.51-.04.07-.08.14-.12.2.18-.28.4-.5.67-.65l2.12-1.23-.03-.07-2.13,1.23h0ZM18.26,33.04c-.06,0-.11-.01-.16-.04-.1-.06-.15-.16-.15-.27.02-.69.1-1.24.48-1.87.23-.33.4-.5.71-.7h0s2.44-1.41,2.44-1.41c.07-.04.16-.06.25-.03.08.03.15.09.18.18l.26.64c.06.14,0,.31-.13.38l-2.36,1.36c-.38.21-.62.63-.71,1.19-.01.09-.07.17-.15.22l-.53.31s-.09.04-.15.04Z"/>
      <path class="cls-1" d="M26.78,37.65l12.32-7.11v.06l-.02.05-.03.04-.03.03-12.32,7.12.03-.03c.04-.06.04-.07.05-.14Z"/>
      <path class="cls-2" d="M26.7,38.13c-.11,0-.2-.05-.25-.13-.09-.12-.07-.28.03-.39.03-.09.08-.19.15-.23l12.32-7.11c.1-.06.23-.06.32,0,.1.06.15.17.14.29,0,.02-.02.1-.02.12-.01.03-.04.1-.05.12-.02.03-.06.09-.09.11-.02.01-.06.05-.08.06l-12.33,7.11s-.09.04-.15.04Z"/>
      <rect class="cls-5" x="17.93" y="32.66" width=".91" height="0" transform="translate(-13.84 13.53) rotate(-29.92)"/>
      <path class="cls-2" d="M17.99,33.2c-.1,0-.21-.06-.26-.15-.09-.15-.03-.34.12-.42h0l.79-.46c.15-.09.33-.04.42.11.02.05.04.1.04.16,0,.1-.06.21-.15.27l-.79.46h0c-.05.03-.11.04-.16.04Z"/>
      <path class="cls-1" d="M21.99,19.99l12.32-7.12c.28.41.46.81.57,1.3l1.36,6.4c.07.33.26.58.55.75l1.39.81c.79.46.91.79.91,1.01v7.39l-12.32,7.11v-7.39c0-.26-.02-.48-.62-.84l-1.7-.98c-.28-.17-.48-.42-.54-.75l-1.36-6.4c-.11-.49-.3-.88-.57-1.3Z"/>
      <path class="cls-2" d="M22.43,20.1c.21.36.35.72.43,1.12l1.37,6.41c.05.25.18.42.4.55l1.69.99c.7.41.76.74.76,1.1v6.86l11.71-6.76v-7.21c0-.25-.42-.55-.77-.75l-1.39-.81c-.36-.21-.6-.54-.69-.96l-1.36-6.4c-.08-.34-.19-.64-.37-.95l-11.79,6.81h0ZM26.78,37.96c-.05,0-.11-.01-.16-.04-.09-.05-.16-.16-.16-.27v-7.39c0-.19,0-.3-.46-.57l-1.7-.98c-.37-.21-.6-.55-.69-.96l-1.37-6.4c-.1-.44-.25-.79-.52-1.19-.04-.07-.06-.16-.04-.24.02-.08.07-.15.15-.2l12.32-7.12c.14-.08.31-.04.41.1.3.46.49.89.61,1.4l1.36,6.41c.05.25.18.43.4.55l1.38.81c.73.43,1.07.83,1.08,1.28v7.39c0,.11-.06.21-.16.27l-12.32,7.12s-.1.04-.15.04Z"/>
      <path class="cls-3" d="M37.37,28.68c-.55.32-.99.06-.99-.57s.44-1.4.99-1.72c.55-.31.99-.06.99.57s-.44,1.4-.99,1.72Z"/>
      <path class="cls-2" d="M37.82,26.55c-.08,0-.18.03-.28.09-.45.26-.84.93-.84,1.45,0,.19.05.33.14.38.09.05.24.02.39-.07h0c.46-.26.84-.93.84-1.45,0-.19-.05-.33-.14-.37-.03-.02-.06-.03-.1-.03h0ZM36.93,29.12c-.15,0-.29-.03-.41-.11-.29-.16-.45-.5-.45-.91,0-.74.51-1.61,1.15-1.99.37-.21.73-.23,1.02-.07.27.16.44.49.44.91,0,.74-.51,1.62-1.15,1.99h0c-.2.12-.41.18-.6.18Z"/>
      <polygon class="cls-4" points="39.07 30.67 39.07 28.93 26.73 36.06 26.73 37.8 39.07 30.67"/>
      <path class="cls-2" d="M39.07,30.67h0,0ZM27.04,36.24v1.03l11.71-6.78v-1.03l-11.71,6.78h0ZM26.73,38.11c-.05,0-.1-.01-.15-.04-.1-.05-.16-.15-.16-.27v-1.74c0-.11.06-.21.16-.26l12.33-7.13c.1-.06.21-.06.3,0,.1.06.16.16.16.27v1.74c0,.11-.06.21-.16.27l-12.33,7.13s-.1.04-.16.04Z"/>
      <path class="cls-1" d="M33.36,11.95c.4.24.69.54.96.92l-12.32,7.12c-.25-.37-.57-.7-.96-.93L.9,7.44s-.07-.03-.1-.03L12.88.43c.22-.13.22-.17.45-.04l20.02,11.56Z"/>
      <path class="cls-2" d="M1.43,7.39l19.76,11.4c.32.19.62.45.89.79l11.79-6.8c-.21-.24-.42-.42-.66-.57L13.18.66s-.03-.02-.03-.02l-.1.06L1.43,7.39h0ZM21.99,20.3c-.1,0-.19-.05-.25-.13-.25-.37-.55-.65-.86-.83L.74,7.71c-.13-.02-.23-.11-.25-.24-.02-.13.04-.26.16-.33L12.8.12c.23-.14.38-.17.69,0l20.02,11.56h0c.41.25.73.56,1.05,1.01.05.07.07.16.05.24-.02.08-.07.16-.15.2l-12.32,7.12s-.11.04-.16.04Z"/>
      <polygon class="cls-3" points=".3 18.78 .71 19.01 .71 20.39 .3 20.15 .3 18.78"/>
      <path class="cls-2" d="M.71,20.69c-.05,0-.11-.01-.16-.04l-.4-.23c-.1-.06-.16-.16-.16-.27v-1.37c0-.11.06-.21.16-.27.09-.05.21-.05.3,0l.41.23c.09.06.15.15.15.26v1.37c0,.11-.06.21-.15.27-.05.03-.1.04-.15.04Z"/>
      <polygon class="cls-3" points=".86 18.93 .71 19.01 .71 20.39 .86 20.3 .86 18.93"/>
      <path class="cls-2" d="M.71,20.69c-.05,0-.11-.01-.16-.04-.09-.05-.16-.16-.16-.27v-1.37c0-.11.06-.21.16-.26l.15-.09c.1-.05.21-.05.3,0,.1.06.16.16.16.27v1.37c0,.11-.06.21-.16.27l-.15.08s-.09.04-.15.04Z"/>
      <polygon class="cls-3" points=".86 18.93 .63 18.8 .63 18.59 .3 18.78 .71 19.01 .86 18.93"/>
      <path class="cls-2" d="M.71,19.32c-.05,0-.11-.01-.16-.04l-.4-.23c-.1-.06-.16-.16-.16-.26,0-.11.06-.21.16-.27l.32-.19c.1-.06.21-.06.3,0,.1.05.16.15.16.26v.03l.07.04c.1.06.16.16.16.27s-.06.21-.16.27l-.14.08c-.05.03-.1.04-.15.04Z"/>
      <path class="cls-3" d="M.63,7.59c0-.17.11-.24.26-.15l20.14,11.62c.36.21.69.53.96.93h0c.26.4.46.83.57,1.3l1.36,6.4c.07.33.26.59.54.75l1.7.98.03.02c.51.3.57.52.59.74v7.47c0,.17-.12.24-.27.15l-.85-.5c-.15-.08-.26-.29-.26-.46,0-1.13-.4-2.4-1.05-3.51v-.02c-.65-1.11-1.54-2.08-2.52-2.64-.98-.57-1.88-.62-2.52-.25-.65.37-1.04,1.17-1.04,2.31,0,.17-.12.24-.27.15h0c-1.89-1.09-6.41-3.73-8.03-4.67-.14-.08-.26-.29-.26-.46v-.02c0-1.13-.42-2.37-1.05-3.48-.64-1.11-1.54-2.08-2.51-2.65-.98-.57-1.88-.62-2.52-.26-.64.37-1.04,1.16-1.05,2.28,0,.17-.12.24-.26.15h0l-.09-.05c-.43-.25-.84-.69-1.12-1.18-.29-.5-.46-1.06-.46-1.57V7.59Z"/>
      <path class="cls-2" d="M.94,7.59h-.3.3ZM2.45,23.53h0,0ZM20.23,29.88c.54,0,1.14.18,1.75.53.99.57,1.92,1.55,2.63,2.75.71,1.24,1.09,2.54,1.09,3.69,0,.06.06.16.11.19l.65.38v-7.24c0-.1,0-.23-.43-.48l-1.72-1c-.36-.21-.6-.54-.69-.96l-1.37-6.4c-.09-.4-.26-.8-.52-1.19-.25-.36-.55-.65-.86-.83L.94,7.82v13.18c0,.43.16.94.43,1.41.24.42.56.78.89,1,.06-1.09.49-1.91,1.21-2.32.78-.44,1.77-.35,2.82.26,1,.57,1.93,1.55,2.63,2.76.69,1.2,1.09,2.49,1.11,3.63-.01.08.05.19.1.22.78.45,2.24,1.3,3.75,2.17,1.51.89,3.09,1.8,4.09,2.38.04-1.1.47-1.93,1.19-2.35.32-.19.69-.28,1.09-.28h0ZM26.63,38.15c-.09,0-.18-.03-.28-.08l-.85-.49c-.24-.14-.42-.44-.42-.73,0-1.04-.36-2.24-1-3.36-.66-1.13-1.51-2.03-2.42-2.55-.85-.49-1.63-.58-2.21-.25-.58.33-.9,1.06-.9,2.04,0,.19-.09.35-.24.44-.14.08-.32.08-.5-.02-1.01-.58-2.76-1.61-4.43-2.58-1.45-.85-2.83-1.65-3.59-2.09-.24-.14-.42-.45-.42-.73-.02-1.06-.37-2.24-1.02-3.35-.65-1.11-1.5-2.02-2.4-2.54-.85-.49-1.63-.58-2.21-.25-.57.32-.9,1.04-.9,2.02-.01.19-.09.35-.24.43-.15.08-.33.08-.5-.02l-.08-.04c-.47-.27-.91-.73-1.23-1.3-.33-.57-.51-1.18-.51-1.72V7.59c0-.19.09-.35.24-.44.15-.08.33-.08.49.02l20.14,11.63c.39.23.75.58,1.06,1.02.31.46.51.93.61,1.41l1.37,6.4c.05.25.18.42.4.55l1.69.99c.62.37.75.67.76,1.01v7.49c0,.19-.09.35-.24.44-.06.04-.14.06-.22.06Z"/>
      <path class="cls-3" d="M28.55,33.75c-.55.32-.99.06-.99-.57s.45-1.41.99-1.72c.56-.32,1-.06,1,.57s-.44,1.4-1,1.72Z"/>
      <path class="cls-2" d="M29,31.63c-.08,0-.18.03-.29.09-.45.26-.84.93-.84,1.46,0,.19.04.32.13.37.09.05.23.02.4-.07h0c.45-.26.84-.93.84-1.45,0-.19-.05-.33-.13-.38-.03-.02-.07-.03-.11-.03h0ZM28.11,34.19c-.15,0-.29-.04-.41-.11-.29-.16-.44-.5-.44-.91,0-.74.51-1.62,1.15-1.99.36-.21.72-.23,1.01-.07.29.16.45.5.45.91,0,.74-.51,1.62-1.15,1.99-.2.12-.41.18-.6.18Z"/>
      <polygon class="cls-4" points="23.38 20.73 33.9 14.66 35.25 21.05 24.75 27.11 23.38 20.73"/>
      <path class="cls-2" d="M23.73,20.88l1.23,5.75,9.95-5.74-1.23-5.76-9.95,5.75h0ZM24.75,27.42s-.09-.01-.13-.03c-.09-.04-.16-.12-.17-.22l-1.36-6.39c-.03-.13.03-.26.15-.33l10.51-6.07c.09-.05.18-.05.28-.02.09.04.15.12.17.22l1.36,6.39c.02.13-.04.26-.15.33l-10.52,6.07s-.09.04-.15.04Z"/>
      <polygon class="cls-3" points="24.37 25.37 29.66 22.38 30.66 20.6 33.42 19.05 34.91 19.42 35.25 21.05 24.75 27.11 24.37 25.37"/>
      <path class="cls-2" d="M24.72,25.53l.23,1.11,9.95-5.74-.26-1.22-1.18-.3-2.57,1.45-.96,1.7s-.07.09-.11.12l-5.1,2.88h0ZM24.75,27.42s-.09-.01-.13-.03c-.09-.04-.16-.12-.17-.22l-.37-1.74c-.03-.13.03-.27.15-.33l5.22-2.95.96-1.7c.03-.05.07-.09.11-.12l2.76-1.56c.07-.04.15-.05.23-.03l1.49.37c.11.03.2.12.23.24l.35,1.63c.02.13-.04.26-.15.33l-10.52,6.07s-.09.04-.15.04Z"/>
      <path class="cls-4" d="M15.77,17.75l4.56,2.64c.21.12.4.31.56.54h0c.16.23.28.49.34.76h0l1.2,5.68c.04.19-.03.31-.18.27-.02,0-.04-.02-.07-.03h0l-6.41-3.7c-.15-.08-.27-.29-.27-.46v-5.54c0-.16.12-.24.27-.15Z"/>
      <path class="cls-2" d="M15.77,17.75l-.16.27h0l.16-.27h0ZM15.82,18.13v5.31c0,.06.06.16.11.19l6.15,3.55-1.16-5.44c-.05-.22-.15-.45-.29-.65-.13-.19-.3-.35-.46-.45l-4.36-2.52h0ZM22.3,27.94s-.08,0-.12-.02c-.05-.01-.1-.03-.16-.06l-6.41-3.7c-.24-.14-.42-.45-.42-.73v-5.54c0-.19.09-.35.24-.44.15-.08.32-.08.49.02l4.56,2.64c.24.14.47.36.66.63.18.27.31.56.37.86l1.21,5.68c.04.21,0,.4-.13.53-.08.08-.19.12-.31.12Z"/>
      <polygon class="cls-1" points="22.48 27.89 22.48 24.95 21.34 25.61 21.34 28.55 22.48 27.89"/>
      <path class="cls-2" d="M22.48,27.89h0,0ZM21.64,25.79v2.23l.53-.31v-2.23l-.53.31h0ZM21.34,28.86c-.06,0-.11-.01-.15-.04-.1-.05-.16-.16-.16-.27v-2.94c0-.11.06-.21.16-.27l1.14-.66c.1-.05.21-.05.3,0,.1.06.16.16.16.27v2.94c0,.11-.06.21-.16.27l-1.14.66s-.1.04-.15.04Z"/>
      <path class="cls-2" d="M22.48,28.2c-.11,0-.21-.05-.26-.15-.09-.15-.03-.33.11-.42l.57-.33c.15-.08.33-.03.42.11.09.15.03.34-.11.42l-.57.33c-.05.03-.1.04-.15.04Z"/>
      <path class="cls-2" d="M25.03,31.82c-.05,0-.1-.02-.16-.04L2.4,18.8c-.15-.08-.2-.27-.11-.42.09-.15.28-.2.43-.11l22.48,12.98c.15.09.19.28.11.42-.06.1-.17.16-.27.16Z"/>
      <path class="cls-3" d="M26.32,12.17c-.02-.77-.65-1.39-1.42-1.39s-1.41.62-1.43,1.39h0v1.52c.03.2.17.39.42.54.56.32,1.45.32,2.01,0,.26-.15.4-.34.42-.54v-1.52Z"/>
      <path class="cls-2" d="M23.79,12.2v1.49c0,.07.11.18.26.27.46.27,1.24.26,1.7,0,.16-.09.25-.2.26-.3v-1.49c-.01-.6-.51-1.08-1.1-1.08s-1.11.49-1.11,1.08v.03h0ZM24.9,14.77c-.42,0-.84-.09-1.16-.28-.34-.2-.54-.47-.57-.78v-1.59c.05-.91.81-1.65,1.73-1.65s1.68.74,1.72,1.65v1.56c-.03.33-.23.61-.56.8-.33.19-.74.28-1.15.28Z"/>
      <polygon class="cls-1" points="37.34 19.27 37.34 16.33 36.19 16.99 36.19 19.93 37.34 19.27"/>
      <path class="cls-2" d="M37.34,19.27h0,0ZM36.5,17.17v2.22l.53-.3v-2.23l-.53.31h0ZM36.19,20.24c-.05,0-.11-.02-.15-.04-.1-.06-.15-.16-.15-.27v-2.94c0-.11.05-.21.15-.26l1.14-.66c.09-.06.22-.06.31,0,.09.05.15.15.15.26v2.94c0,.11-.05.21-.15.26l-1.15.66c-.05.03-.1.04-.16.04Z"/>
      <path class="cls-2" d="M30.65,32.73h0c-.17,0-.31-.14-.31-.31v-2.94c0-.17.14-.31.31-.31h0c.17,0,.3.14.3.31v2.94c0,.17-.14.31-.3.31Z"/>
      <path class="cls-2" d="M31.77,32.08h0c-.17,0-.3-.14-.3-.31v-2.93c0-.17.14-.31.3-.31h0c.18,0,.31.14.31.31v2.93c0,.17-.14.31-.31.31Z"/>
      <path class="cls-2" d="M32.95,31.4h0c-.17,0-.31-.14-.31-.31v-2.94c0-.17.14-.31.31-.31h0c.16,0,.3.14.3.31v2.94c0,.17-.14.31-.3.31Z"/>
      <path class="cls-2" d="M34.1,30.74c-.16,0-.3-.14-.3-.31v-2.93c0-.17.13-.31.3-.31h0c.17,0,.3.14.3.31v2.93c.01.17-.13.31-.3.31h0Z"/>
      <path class="cls-2" d="M35.31,30.04h0c-.18,0-.31-.14-.31-.31v-2.94c0-.17.14-.31.31-.31h0c.16,0,.3.14.3.31v2.94c0,.17-.14.31-.3.31Z"/>
      <path class="cls-4" d="M26.73,37.8c-.04.05-.12.06-.22,0l-.85-.5c-.15-.08-.26-.29-.26-.46,0-.55-.1-1.14-.27-1.72l1.6.93v1.74Z"/>
      <path class="cls-2" d="M25.6,35.76c.07.38.1.74.1,1.09,0,.06.06.16.11.19l.61.35v-1.16l-.82-.48h0ZM26.73,37.8h.01-.01ZM26.63,38.15c-.09,0-.18-.03-.28-.08l-.85-.49c-.24-.14-.42-.44-.42-.73,0-.51-.09-1.06-.25-1.63-.03-.12,0-.25.1-.33.09-.08.23-.09.34-.03l1.61.93c.09.06.16.16.16.26v1.74c0,.08-.03.15-.08.2-.09.1-.21.15-.33.15Z"/>
      <path class="cls-2" d="M17.1,26.13c-.05,0-.1-.01-.15-.04l-1.98-1.14c-.15-.08-.2-.27-.11-.42.08-.15.27-.2.42-.12l1.98,1.15c.15.08.2.27.11.42-.06.1-.15.15-.27.15Z"/>
      <path class="cls-4" d="M10.56,21.22l2.51,1.45c.18.1.3,0,.3-.23v-1.32c0-.22-.13-.48-.3-.58l-2.51-1.45c-.17-.09-.31,0-.31.23v1.32c0,.22.14.48.31.58Z"/>
      <path class="cls-2" d="M10.71,20.95l2.36,1.36v-1.19c0-.13-.09-.27-.14-.31l-2.35-1.36v1.19c0,.13.09.27.14.31h0ZM13.19,23.02c-.09,0-.18-.03-.27-.08l-2.52-1.45h0c-.26-.15-.45-.51-.45-.84v-1.32c0-.23.09-.42.25-.51.16-.09.34-.08.51.02l2.52,1.45c.26.15.46.51.46.84v1.32c0,.23-.1.42-.26.51-.07.04-.15.06-.23.06Z"/>
      <path class="cls-2" d="M6.91,18.46c-.09,0-.21-.03-.34-.11-.76-.47-1.4-.84-2.04-1.21-.15-.09-.2-.27-.11-.42.08-.15.27-.2.42-.11.62.35,1.23.72,1.95,1.16v-1.03c.01-.08-.09-.29-.19-.35-.3-.17-.61-.36-.91-.54-.28-.17-.54-.33-.78-.47-.31-.18-.51-.53-.51-.89v-1.07c0-.24.1-.43.28-.52.17-.09.38-.07.57.06.52.36,1.13.73,1.85,1.15.15.08.2.27.12.42-.09.15-.28.2-.42.11-.68-.39-1.26-.75-1.77-1.09v.94c-.01.14.08.28.19.35.25.14.52.31.8.48.3.18.6.37.9.54.34.19.51.64.51.89v1.15c0,.32-.17.46-.27.51-.04.03-.12.06-.22.06Z"/>
      <path class="cls-2" d="M5.82,18.74h0c-.16,0-.3-.14-.3-.31,0-.64.01-1.28.02-1.91.02-1.23.03-2.44,0-3.68,0-.17.13-.31.3-.32.14-.02.31.13.31.3.02,1.24,0,2.46,0,3.7-.01.63-.02,1.26-.02,1.9,0,.17-.14.31-.31.31Z"/>
    </g>
  </g>
</svg>