<?xml version="1.0" encoding="UTF-8"?>
<svg id="Layer_2" data-name="Layer 2" xmlns="http://www.w3.org/2000/svg" viewBox="0 0 74.86 84.82" fill="currentColor">
  <defs>
    <style>
      .cls-1 {
        fill: #fff;
      }

      .cls-1, .cls-2, .cls-3, .cls-4 {
        fill-rule: evenodd;
      }

      .cls-2 {
        fill: #1a87c7;
      }

      .cls-3 {
        fill: #bdedf8;
      }

      .cls-4 {
        fill: #66ceef;
      }
    </style>
  </defs>
  <g id="_Layer_" data-name="&amp;lt;Layer&amp;gt;">
    <g>
      <path class="cls-3" d="M72.06,7.81L60.04.88c-1.06-.49-1.84-.23-2.83.28L4.64,31.51c-2.23,1.32-3.96,4.33-4,6.94v25.78c0,1.58-.11,10.36.09,11.28.14.71.47,1.31,1.09,1.7,5.44,3.13,9.02,5.23,11.97,6.94-.15-.12-.17-.21-.19-.4v-37.81c.04-2.6,1.77-5.61,4-6.94l52.57-30.35c.99-.5,1.79-.76,2.83-.28l-.95-.55Z"/>
      <path class="cls-2" d="M58.95,1.22c-.43,0-.87.18-1.46.49L4.96,32.05c-2.03,1.19-3.67,4.01-3.68,6.4l-.02,27.36c-.02,2.66-.05,8.9.09,9.58.12.61.38,1.03.82,1.3,3.32,1.91,5.94,3.44,8.17,4.73.96.56,1.85,1.08,2.68,1.57v-37.05c.03-2.83,1.88-6.03,4.29-7.47l52.59-30.35c.26-.14.52-.26.8-.37l-10.96-6.33c-.28-.12-.52-.19-.78-.19h0ZM13.84,84.77c-.12,0-.24-.04-.35-.09-1.15-.66-2.38-1.39-3.79-2.21-2.21-1.29-4.85-2.82-8.19-4.73-.74-.47-1.2-1.18-1.39-2.12-.14-.68-.14-4.26-.1-9.84v-4.83s.01-22.51.01-22.51c.04-2.83,1.88-6.04,4.3-7.46L56.9.64c.99-.52,2.03-.95,3.41-.31l13.02,7.51c.28.18.38.54.23.83-.14.28-.5.4-.8.26-.78-.37-1.37-.2-2.27.26l-52.55,30.33c-2.04,1.22-3.67,4.03-3.69,6.41v37.81c.25.21.28.52.09.78-.11.17-.29.25-.49.25Z"/>
      <path class="cls-3" d="M74.23,48.81V10.99c0-2.56-1.79-3.58-4-2.31l-52.57,30.35c-2.19,1.27-4,4.38-4,6.92v37.83c0,.38.28.53.62.35,23.51-13.56,35.83-20.69,59.33-34.26.35-.19.61-.66.61-1.06Z"/>
      <path class="cls-2" d="M72,8.75c-.43,0-.92.16-1.46.46l-52.57,30.35c-2,1.16-3.69,4.08-3.69,6.39v37.47l59.02-34.08c.16-.08.31-.36.31-.53V10.99c0-1.01-.31-1.74-.87-2.05-.21-.14-.47-.19-.75-.19h0ZM14.01,84.82c-.17,0-.33-.03-.47-.12-.31-.17-.49-.5-.49-.92v-37.83c0-2.74,1.93-6.08,4.31-7.46l52.57-30.35c1.25-.73,2.48-.83,3.44-.28.95.56,1.48,1.67,1.48,3.13v37.81c0,.61-.4,1.3-.92,1.6L14.59,84.67c-.19.11-.38.15-.58.15Z"/>
      <path class="cls-4" d="M14.8,41.99l-12.97-7.49c-.71,1.25-1.15,2.49-1.18,3.95v36.17c.05,1.12.22,1.93,1.18,2.59,5.44,3.13,9.02,5.23,11.97,6.94-.15-.12-.17-.21-.19-.4v-37.81c.04-1.46.47-2.69,1.18-3.95Z"/>
      <path class="cls-2" d="M2.07,35.35c-.54,1.09-.78,2.07-.8,3.11v36.16c.03,1.01.19,1.58.9,2.09,3.3,1.9,5.93,3.43,8.15,4.71.96.56,1.85,1.08,2.68,1.57v-37.05c.02-1.28.33-2.45.96-3.72l-11.89-6.86h0ZM13.84,84.77c-.12,0-.24-.04-.35-.09-1.15-.66-2.38-1.39-3.79-2.21-2.21-1.29-4.85-2.82-8.19-4.73-1.29-.89-1.43-2.01-1.48-3.09v-36.21c.04-1.45.42-2.75,1.25-4.24.07-.16.21-.26.37-.29.15-.06.33-.02.47.05l12.97,7.49c.29.18.4.54.25.83-.73,1.3-1.08,2.44-1.1,3.65v37.81c.25.21.28.52.09.78-.11.17-.29.25-.49.25Z"/>
      <path class="cls-2" d="M10.92,83.06c-.12,0-.23-.02-.33-.08-.73-.46-1.18-1.16-1.37-2.11-.14-.68-.14-4.25-.1-9.83l.02-4.83v-22.52c.04-2.83,1.88-6.03,4.29-7.46L65.99,5.88c.99-.52,2.03-.96,3.41-.31.31.16.43.52.29.82-.16.31-.52.45-.82.29-.8-.36-1.37-.21-2.3.28L14.05,37.29c-2.03,1.2-3.67,4.02-3.68,6.4l-.02,27.36c-.02,2.66-.05,8.9.09,9.58.12.61.38,1.03.82,1.3.28.17.36.56.19.85-.12.19-.33.28-.52.28Z"/>
      <path class="cls-1" d="M25.45,28.08l-2.17-1.25c0-1.16-.11-4.57.07-5.7.38-2.27,1.93-4.76,3.93-5.96l15.36-8.83c.79-.37,1.62-.49,2.41-.07l2.18,1.25c-1.01-.47-1.86-.25-2.83.28l-14.95,8.64c-2.24,1.32-3.96,4.32-4,6.93v4.71Z"/>
      <path class="cls-2" d="M23.89,26.47l.95.56v-3.65c.02-2.83,1.88-6.03,4.3-7.48l14.96-8.62c.24-.14.52-.28.8-.38l-.16-.08c-.51-.28-1.13-.25-1.86.08l-15.3,8.81c-1.77,1.06-3.27,3.32-3.63,5.53-.12.83-.09,3.16-.07,4.55v.68h0ZM25.45,28.69c-.1,0-.21-.02-.31-.07l-2.17-1.27c-.19-.1-.32-.31-.32-.52v-1.03c-.04-1.61-.05-3.84.09-4.76.41-2.54,2.15-5.17,4.22-6.4l15.37-8.85c1.13-.52,2.12-.54,3-.07l2.21,1.27c.28.16.38.52.23.82-.14.3-.5.4-.8.26-.71-.33-1.31-.26-2.28.26l-14.93,8.62c-2.05,1.22-3.67,4.04-3.7,6.41v4.71c0,.23-.11.42-.3.54-.11.05-.21.07-.31.07Z"/>
      <polygon class="cls-1" points="45.62 16.44 43.44 15.19 43.44 10.87 43.43 10.7 43.41 10.54 43.37 10.39 43.32 10.24 43.25 10.14 43.17 10.04 43.08 9.95 42.99 9.88 45.16 11.13 45.25 11.2 45.36 11.29 45.42 11.39 45.49 11.52 45.54 11.64 45.58 11.8 45.6 11.95 45.62 12.13 45.62 16.44"/>
      <path class="cls-2" d="M44.05,14.83l.94.54-.02-3.49.52-.36-.61.17-.83-.49v3.63h0ZM45.62,17.06c-.11,0-.21-.04-.31-.09l-2.17-1.25c-.19-.12-.31-.31-.31-.53l-.02-4.57.11-.07-.19-.11h0s-.02-.02-.04-.02h0c-.24-.21-.35-.58-.17-.85.17-.28.5-.38.78-.22l2.17,1.27s.14.07.14.09c.04.02.23.19.25.22.02.02.1.14.12.17.02.02.08.16.11.19,0,.02.07.17.07.2,0,.02.05.19.05.21l.04.4v4.33c0,.23-.12.43-.31.53-.09.05-.19.09-.29.09Z"/>
      <path class="cls-1" d="M28.27,22.16v4.29l-2.82,1.63v-4.71c0-2.55,1.79-5.66,4-6.93l14.95-8.64c2.21-1.27,4.02-.23,4.02,2.31v4.71l-2.8,1.62v-4.31c0-.97-.7-1.38-1.55-.89l-14.25,8.24c-.85.49-1.55,1.69-1.55,2.68Z"/>
      <path class="cls-2" d="M28.27,26.45h.02-.02ZM46.19,7.87c-.45,0-.94.16-1.48.47l-14.95,8.62c-2,1.16-3.7,4.09-3.7,6.41v3.65l1.6-.92v-3.94c0-1.2.8-2.61,1.84-3.22l14.25-8.22c.61-.35,1.24-.38,1.71-.1.48.28.77.83.77,1.51v3.25l1.56-.9v-4.37c0-1.01-.31-1.74-.87-2.05-.2-.12-.47-.19-.73-.19h0ZM25.45,28.69c-.1,0-.21-.02-.31-.07-.19-.12-.29-.31-.29-.54v-4.71c0-2.75,1.93-6.1,4.31-7.48l14.95-8.62c1.25-.74,2.48-.83,3.44-.28.95.54,1.48,1.65,1.48,3.11v4.71c0,.23-.13.44-.31.54l-2.8,1.61c-.19.11-.42.11-.61,0-.19-.1-.31-.31-.31-.53v-4.31c0-.26-.07-.42-.14-.45-.07-.06-.24-.02-.47.1l-14.27,8.24c-.64.38-1.23,1.37-1.23,2.14v4.29c0,.23-.11.43-.3.54l-2.81,1.63c-.11.05-.21.07-.31.07Z"/>
      <polygon class="cls-4" points="22.86 36.77 26.84 34.48 12.41 26.15 8.43 28.45 22.86 36.77"/>
      <path class="cls-2" d="M9.67,28.45l13.19,7.61,2.75-1.58-13.19-7.61-2.75,1.58h0ZM22.86,37.38c-.1,0-.21-.02-.3-.07l-14.43-8.35c-.19-.11-.31-.31-.31-.52,0-.22.12-.43.31-.54l3.96-2.3c.19-.1.42-.1.61,0l14.43,8.33c.19.12.31.31.31.54s-.12.42-.31.54l-3.96,2.3c-.09.05-.19.07-.31.07Z"/>
      <polygon class="cls-1" points="10.45 30.11 14.01 32.17 19.05 29.27 15.49 27.21 10.45 30.11"/>
      <path class="cls-2" d="M11.68,30.11l2.33,1.34,3.81-2.19-2.33-1.36-3.8,2.21h0ZM14.01,32.79c-.11,0-.21-.04-.31-.08l-3.57-2.07c-.19-.11-.31-.31-.31-.52,0-.22.12-.43.31-.54l5.05-2.9c.19-.1.41-.1.61,0l3.56,2.05c.19.12.31.31.31.54s-.12.41-.31.54l-5.02,2.9c-.11.05-.21.08-.31.08Z"/>
      <polygon class="cls-4" points="63.35 13.45 67.33 11.15 52.9 2.82 48.92 5.12 63.35 13.45"/>
      <path class="cls-2" d="M50.16,5.12l13.19,7.61,2.74-1.58-13.19-7.61-2.74,1.58h0ZM63.35,14.07c-.11,0-.21-.03-.3-.08l-14.43-8.35c-.19-.1-.31-.31-.31-.52,0-.23.12-.44.31-.54l3.97-2.3c.19-.1.41-.1.61,0l14.43,8.34c.19.11.31.31.31.52,0,.22-.12.43-.31.54l-3.97,2.29c-.09.05-.19.08-.31.08Z"/>
      <polygon class="cls-1" points="50.94 6.79 54.5 8.84 59.52 5.94 55.98 3.88 50.94 6.79"/>
      <path class="cls-2" d="M52.17,6.79l2.33,1.34,3.8-2.19-2.33-1.34-3.81,2.19h0ZM54.5,9.46c-.1,0-.21-.04-.31-.09l-3.56-2.06c-.19-.11-.31-.32-.31-.52,0-.22.12-.43.31-.54l5.04-2.9c.19-.1.42-.1.61,0l3.56,2.07c.19.1.31.31.31.52,0,.23-.12.44-.31.53l-5.04,2.9c-.08.05-.19.09-.29.09Z"/>
      <polygon class="cls-1" points="57.07 20.11 68.58 17.44 66.46 26.83 54.95 29.49 57.07 20.11"/>
      <path class="cls-2" d="M57.59,20.61l-1.82,8.06,10.17-2.36,1.82-8.05-10.17,2.35h0ZM54.95,30.1c-.16,0-.31-.05-.44-.17-.14-.16-.21-.37-.16-.58l2.1-9.39c.06-.23.25-.42.47-.47l11.51-2.66c.21-.04.42.02.58.17.16.14.21.37.16.57l-2.11,9.39c-.05.22-.24.4-.47.45l-11.51,2.66c-.05.02-.09.02-.14.02Z"/>
      <path class="cls-4" d="M54.95,29.49l11.51-2.66.47-2.03-1.13-1.36c-.26-.29-.73-.23-1.18.18l-3.03,2.75c-.43.4-.9.47-1.16.19l-2.56-2.71c-.28-.3-.78-.19-1.23.26l-.61.61-1.08,4.78Z"/>
      <path class="cls-2" d="M56.59,25.02l-.82,3.65,10.17-2.36.31-1.36-.92-1.11s-.13.07-.3.22l-3.02,2.75c-.7.63-1.52.7-2.02.17l-2.57-2.73s-.14.07-.35.28l-.49.49h0ZM54.95,30.1c-.17,0-.33-.05-.44-.17-.16-.16-.21-.37-.17-.58l1.08-4.78c.03-.12.08-.22.17-.31l.61-.61c.4-.38.83-.59,1.29-.59.32,0,.61.14.81.37l2.57,2.71s.1-.07.3-.25l3.02-2.73c.4-.36.85-.55,1.27-.52.31.02.61.17.8.4l1.13,1.36c.13.16.17.35.13.54l-.46,2.03c-.05.22-.24.4-.47.45l-11.51,2.66c-.05.02-.11.02-.14.02Z"/>
      <path class="cls-1" d="M22.49,58.23c3.16-1.82,5.72-.33,5.72,3.3s-2.56,8.09-5.72,9.91c-3.16,1.83-5.72.35-5.72-3.3s2.56-8.08,5.72-9.91Z"/>
      <path class="cls-2" d="M25.05,58.07c-.68,0-1.44.22-2.24.7-2.99,1.72-5.42,5.93-5.42,9.37,0,1.55.49,2.66,1.37,3.18.89.5,2.1.37,3.43-.4,2.99-1.73,5.42-5.93,5.42-9.38,0-1.53-.48-2.66-1.37-3.16-.35-.21-.75-.29-1.18-.29h0ZM19.94,72.85c-.66,0-1.25-.16-1.79-.47-1.29-.73-2-2.24-2-4.24,0-3.82,2.71-8.52,6.04-10.43,1.73-1.01,3.39-1.15,4.66-.4,1.28.73,1.98,2.24,1.98,4.22,0,3.84-2.69,8.54-6.02,10.45-1.01.57-1.98.87-2.87.87Z"/>
      <path class="cls-1" d="M22.49,60.75c1.95-1.13,3.53-.21,3.53,2.05s-1.58,4.99-3.53,6.12c-1.94,1.13-3.55.23-3.55-2.03s1.6-5.01,3.55-6.14Z"/>
      <path class="cls-2" d="M22.81,61.29c-1.75,1.01-3.23,3.58-3.23,5.6,0,.85.26,1.48.73,1.76.47.28,1.13.17,1.88-.24,1.75-1.01,3.23-3.58,3.23-5.6,0-.87-.26-1.49-.73-1.76-.47-.28-1.13-.19-1.88.25h0ZM20.91,70.03c-.43,0-.85-.1-1.23-.33-.87-.49-1.34-1.49-1.34-2.81,0-2.49,1.69-5.42,3.85-6.66h0c1.14-.66,2.26-.76,3.13-.26.85.5,1.34,1.51,1.34,2.83,0,2.48-1.69,5.41-3.84,6.66-.66.38-1.3.57-1.9.57Z"/>
      <path class="cls-4" d="M22.49,64.83l2.44,1.56c-.89,1.49-2.16,2.59-3.36,2.92-1.87.5-3.01-1.1-2.5-3.56l3.42-.92Z"/>
      <path class="cls-2" d="M19.61,66.24c-.13,1.01.05,1.82.49,2.24.33.31.76.38,1.32.25.9-.25,1.88-1.05,2.66-2.14l-1.68-1.07-2.78.73h0ZM20.91,70.03c-.64,0-1.22-.22-1.65-.64-.83-.79-1.11-2.16-.78-3.76.04-.23.21-.42.44-.47l3.42-.92c.16-.06.35-.02.49.07l2.44,1.56c.28.18.36.56.19.84-.97,1.63-2.36,2.83-3.72,3.2-.28.07-.56.12-.82.12Z"/>
      <polygon class="cls-1" points="59.9 47.53 42.75 59.37 43.2 64.39 60.36 52.56 59.9 47.53"/>
      <path class="cls-2" d="M43.39,59.69l.33,3.61,15.99-11.05-.33-3.62-15.99,11.06h0ZM43.2,65.02c-.08,0-.17-.02-.26-.07-.21-.09-.33-.28-.35-.49l-.45-5.02c-.02-.23.07-.45.26-.57l17.16-11.86c.17-.12.42-.14.61-.04.21.09.33.28.35.49l.45,5.03c.02.22-.07.45-.26.57l-17.16,11.86c-.11.07-.23.11-.35.11Z"/>
      <path class="cls-1" d="M57.54,52.86l-1.09.76-.17-1.93,1.27,1.17h0ZM54.74,53.74l-.92.66.92-.66h0ZM55.23,54.45l-1.32.9-.17-1.93,1.28-.89.21,1.91h0ZM51.06,55.29l1.39-.97-1.39.97h0ZM51.75,54.8l.17,1.93-.17-1.93h0ZM48.54,58.07c-.04-.31.04-.63.17-.91.14-.29.33-.52.58-.69.17-.13.31-.17.45-.17.14-.02.26.03.33.14.09.11.14.26.16.45.02.19,0,.4-.07.61-.06.19-.14.38-.26.55-.14.18-.28.31-.43.42-.16.13-.31.17-.46.17s-.24-.05-.32-.15c-.07-.11-.13-.25-.14-.42h0ZM47.25,57.91l.17,1.93-.17-1.93h0ZM45.65,60.03l1.69-1.15-1.69,1.15h0ZM45.74,61l-.17-1.93.17,1.93h0Z"/>
      <path class="cls-2" d="M56.44,54.23c-.08,0-.17-.02-.26-.05-.21-.09-.34-.28-.35-.51l-.17-1.93c-.04-.35.21-.64.56-.68.35-.04.63.23.66.56l.09.88.23-.15c.28-.19.66-.13.85.15.19.28.13.66-.15.85l-1.09.76c-.11.07-.23.1-.35.1h0ZM53.91,55.98c.12,0,.26-.04.35-.13l1.32-.9c.28-.19.35-.58.16-.85-.08-.14-.24-.23-.38-.26.02-.16-.02-.33-.1-.47-.05-.05-.1-.1-.15-.14l.27-.18c.28-.2.35-.59.16-.87-.19-.28-.58-.35-.87-.15l-1.27.89c-.17.12-.28.33-.26.56l.08.96h0s.09.97.09.97c.02.23.16.42.35.51.09.05.18.07.26.07h0ZM51.93,57.36c-.31,0-.59-.25-.61-.58l-.09-.9c-.24.07-.52-.02-.68-.25-.19-.28-.13-.66.15-.85l.68-.47s.02-.04.04-.04l.68-.47c.28-.19.66-.12.85.16.19.28.12.66-.16.85l-.4.28.14,1.58c.03.35-.21.64-.56.68h-.05ZM49.61,57.01c-.19.14-.28.26-.36.41-.07.17-.1.33-.1.5.12-.08.17-.15.24-.24.09-.1.14-.23.18-.37.03-.1.05-.21.05-.31h0ZM49.16,58.12h.02-.02ZM49,59.27s.02,0,.02-.02c.26,0,.54-.08.8-.28.21-.14.4-.33.56-.56.17-.23.29-.49.36-.76.09-.28.1-.54.09-.82-.02-.31-.13-.57-.28-.76-.21-.26-.52-.41-.84-.4-.26.02-.52.1-.78.29-.33.23-.59.54-.78.92-.19.4-.28.82-.22,1.25.01.28.1.54.26.73.19.24.49.4.81.4h0ZM45.74,61.63c-.31,0-.59-.24-.61-.57l-.09-.96v-.02l-.09-.96c-.03-.35.21-.64.56-.66.35-.02.59.17.66.47l.52-.37-.05-.61c-.03-.33.21-.63.55-.66.35-.04.63.23.67.56l.08.95v.02l.08.95c.04.35-.22.64-.55.68-.34.03-.59-.19-.67-.49l-.52.36.05.61c.04.35-.21.64-.56.65-.02.02-.04.02-.05.02Z"/>
      <path class="cls-1" d="M23.71,48.11c3.89-.54,2.9-.4,6.82-.96.19-.02.4-.24.47-.5.35-1.28,1.22-4.43,1.58-5.72v-.05l.8-.11c.16-.02.31-.14.45-.33.12-.17.19-.38.19-.56,0-.25-.05-.43-.14-.58l-2.73-4.55c-.2-.35-.57-.29-.99.14l-5.58,5.7c-.17.19-.33.4-.47.66-.11.21-.14.4-.11.56.03.16.14.24.29.22l.79-.12s0,.04-.02.05c-.35,1.28-1.22,4.43-1.56,5.72-.07.26.02.44.2.42Z"/>
      <path class="cls-2" d="M25.09,41.31c.19,0,.35.07.47.21.14.15.19.36.12.57l-1.46,5.32,6.22-.87,1.53-5.77c.07-.24.28-.47.54-.5l.79-.1c.1-.17.12-.25.12-.28,0-.19-.05-.26-.05-.26l-2.64-4.42s-.07.07-.13.11l-5.57,5.72c-.08.08-.17.19-.26.31l.22-.04h.09ZM23.71,48.11h.02-.02ZM23.68,48.73c-.25,0-.46-.11-.61-.28-.21-.23-.26-.57-.17-.92l1.35-4.88c-.41,0-.74-.26-.85-.69-.07-.31-.02-.64.17-1,.17-.31.36-.57.57-.78l5.58-5.72c.49-.51.92-.58,1.18-.54.33.03.59.21.76.5l2.75,4.55c.14.25.21.54.23.89,0,.31-.12.64-.33.94-.23.33-.52.52-.85.57l-.4.05-1.48,5.39c-.11.4-.47.87-.97.94l-6.82.95h-.02s-.07.02-.11.02Z"/>
      <path class="cls-4" d="M23.96,47.52c2.21-.31,4.43-.62,6.64-.94.58-2.05,1.22-4.19,1.71-6.22l1.25-.17c.17-.02-.45-1.2-.47-1.22-.68-1.24-1.9-2.99-2.33-3.74-.1-.16-.22-.14-.44.05l-4.83,4.97s-1.24,1.23-1.03,1.19l1.25-.17c-.66,2.05-1.18,4.19-1.75,6.24Z"/>
      <path class="cls-2" d="M25.92,40.68c.08.04.19.11.26.19.14.16.17.38.12.59-.47,1.44-.87,2.93-1.27,4.4-.07.31-.15.61-.24.91l5.32-.75.4-1.37c.41-1.46.85-2.99,1.18-4.43.05-.25.26-.43.52-.47l.53-.07c-.07-.16-.14-.32-.2-.42-.42-.76-1.08-1.77-1.6-2.57-.16-.26-.31-.49-.46-.69l-4.57,4.69h0ZM23.96,48.12c-.17,0-.35-.07-.47-.21-.12-.15-.17-.36-.12-.57.16-.59.33-1.18.49-1.79.31-1.16.63-2.36.97-3.53l-.28.03c-.26.04-.54-.1-.66-.35-.21-.42-.05-.68,1.16-1.9l4.83-4.97c.1-.08.38-.38.8-.32.14,0,.4.08.59.4.16.26.42.64.72,1.09.52.82,1.2,1.85,1.63,2.66.07.08.77,1.22.51,1.76-.09.19-.3.35-.49.36l-.83.12c-.34,1.34-.73,2.73-1.12,4.09l-.5,1.76c-.05.22-.26.42-.5.43l-6.64.94h-.08Z"/>
      <polygon class="cls-4" points="66.89 38.82 71.57 34.97 72.56 39.8 67.88 43.66 66.89 38.82"/>
      <path class="cls-2" d="M67.57,39.07l.72,3.46,3.59-2.96-.71-3.47-3.6,2.97h0ZM67.88,44.27c-.07,0-.14-.02-.21-.04-.21-.07-.35-.24-.4-.45l-.99-4.83c-.05-.23.04-.46.21-.61l4.7-3.85c.15-.14.38-.17.59-.1.2.07.35.24.4.45l.99,4.84c.03.22-.04.47-.21.61l-4.7,3.84c-.11.09-.24.14-.38.14Z"/>
      <polygon class="cls-1" points="42.24 52 43.53 42.96 40.07 44.25 38.8 53.29 42.24 52"/>
      <path class="cls-2" d="M42.24,52h.02-.02ZM40.62,44.7l-1.07,7.65,2.14-.79,1.07-7.67-2.14.8h0ZM38.8,53.91c-.14,0-.28-.05-.38-.14-.17-.14-.26-.35-.23-.56l1.27-9.05c.04-.23.17-.42.4-.49l3.44-1.29c.21-.08.43-.05.61.09.15.14.24.35.22.58l-1.27,9.04c-.03.23-.19.41-.4.5l-3.46,1.28c-.07.02-.14.04-.21.04Z"/>
      <polygon class="cls-4" points="42.24 52 43.53 42.96 46.97 41.67 45.7 50.71 42.24 52"/>
      <path class="cls-2" d="M44.09,43.41l-1.08,7.65,2.14-.8,1.08-7.64-2.14.8h0ZM42.24,52.63c-.12,0-.26-.06-.38-.14-.16-.14-.24-.35-.23-.58l1.27-9.04c.04-.23.19-.41.4-.49l3.46-1.3c.19-.07.42-.04.59.1.17.14.26.35.23.58l-1.27,9.04c-.03.22-.17.42-.4.49l-3.44,1.3c-.07.02-.14.04-.23.04Z"/>
      <polygon class="cls-4" points="35.36 54.59 36.63 45.54 40.07 44.25 38.8 53.29 35.36 54.59"/>
      <path class="cls-2" d="M37.19,45.99l-1.08,7.67,2.14-.8,1.08-7.67-2.14.8h0ZM35.36,55.2c-.14,0-.28-.06-.4-.14-.16-.12-.25-.35-.21-.56l1.27-9.06c.02-.22.17-.4.38-.49l3.46-1.28c.19-.09.43-.04.59.08.17.14.26.35.22.58l-1.27,9.04c-.03.23-.17.42-.4.5l-3.44,1.29c-.07.02-.14.04-.21.04Z"/>
      <polygon class="cls-4" points="63.35 13.45 67.33 11.15 67.33 54.63 63.35 56.91 63.35 13.45"/>
      <path class="cls-2" d="M63.97,13.81v42.03l2.73-1.58V12.23l-2.73,1.58h0ZM63.35,57.53c-.11,0-.21-.03-.3-.09-.19-.11-.31-.31-.31-.53V13.45c0-.22.13-.42.31-.54l3.97-2.28c.19-.12.41-.12.61,0,.19.11.31.31.31.52v43.47c0,.21-.12.42-.31.52l-3.97,2.3c-.09.06-.19.09-.31.09Z"/>
      <polygon class="cls-4" points="22.86 36.77 26.84 34.48 26.84 77.94 22.86 80.23 22.86 36.77"/>
      <path class="cls-2" d="M23.48,37.12v42.05l2.73-1.58v-42.05l-2.73,1.58h0ZM22.86,80.86c-.1,0-.21-.04-.3-.09-.19-.11-.31-.31-.31-.53v-43.46c0-.23.12-.42.31-.54l3.97-2.29c.19-.11.42-.11.61,0,.19.12.31.31.31.54v43.46c0,.23-.12.44-.31.54l-3.96,2.3c-.09.05-.19.09-.31.09Z"/>
      <path class="cls-2" d="M69.92,40.84c-.29,0-.54-.19-.61-.49l-.37-1.82c-.07-.35.14-.66.47-.73.35-.07.66.14.73.47l.37,1.84c.07.33-.14.66-.47.73h-.12Z"/>
      <path class="cls-2" d="M68.84,40.67c-.18,0-.35-.09-.47-.23-.22-.28-.19-.66.07-.87l1.79-1.46c.26-.23.65-.17.85.09.23.26.19.64-.09.87l-1.77,1.44c-.11.11-.25.16-.38.16Z"/>
    </g>
  </g>
</svg>