<?xml version="1.0" encoding="UTF-8"?>
<svg id="Layer_2" data-name="Layer 2" xmlns="http://www.w3.org/2000/svg" viewBox="0 0 19.27 43.43" fill="currentColor">
  <defs>
    <style>
      .cls-1 {
        fill: #fff;
      }

      .cls-1, .cls-2, .cls-3, .cls-4 {
        fill-rule: evenodd;
      }

      .cls-2 {
        fill: #1a87c7;
      }

      .cls-3 {
        fill: #bdedf8;
      }

      .cls-4 {
        fill: #66ceef;
      }
    </style>
  </defs>
  <g id="_Layer_" data-name="&amp;lt;Layer&amp;gt;">
    <g>
      <path class="cls-3" d="M18.2,1.69l-2.3-1.33c-.41-.13-.75-.02-1.11.18L2.17,7.84c-.66.4-1.1,1-1.43,1.68-.27.57-.42,1.09-.43,1.73v29.05c.02.45.09.83.38,1.18l.06.05.06.05,2.31,1.33-.06-.05c-.34-.34-.42-.77-.43-1.24V12.57c0-.63.15-1.16.42-1.73.33-.68.77-1.28,1.43-1.68L17.09,1.87c.37-.2.7-.31,1.11-.18Z"/>
      <path class="cls-2" d="M15.56.61c-.16,0-.36.06-.63.2L2.32,8.1c-.53.33-.95.82-1.31,1.55-.26.57-.38,1.06-.39,1.6v29.05c.02.38.07.7.3.98l.09.07,1.35.78c-.03-.17-.03-.33-.04-.49V12.57c0-.64.14-1.19.44-1.86.42-.85.91-1.42,1.55-1.82L16.94,1.61c.09-.05.17-.09.27-.13l-1.46-.84c-.06-.02-.12-.02-.18-.02h0ZM3.11,43.22c-.05,0-.1-.02-.16-.04l-2.49-1.49c-.39-.46-.45-.96-.46-1.39V11.24c0-.64.14-1.19.44-1.86.43-.85.91-1.42,1.56-1.81L14.63.28c.37-.2.81-.38,1.36-.21l2.36,1.36c.14.08.19.25.13.39-.06.14-.23.22-.37.17-.27-.09-.51-.04-.87.15l-12.62,7.29c-.53.32-.95.82-1.31,1.55-.26.57-.38,1.05-.39,1.6v29.05c.03.49.12.79.35,1.02l.05.03c.12.1.14.28.05.41-.06.08-.16.13-.25.13Z"/>
      <path class="cls-3" d="M4.48,42.89l12.62-7.29c1.02-.59,1.86-2.12,1.86-3.41V3.13c-.01-1.28-.85-1.85-1.87-1.25l-12.62,7.29c-1.02.59-1.86,2.12-1.86,3.41v29.06c0,1.29.84,1.85,1.87,1.26Z"/>
      <path class="cls-2" d="M17.87,1.95c-.19,0-.4.06-.63.19l-12.62,7.29c-.92.54-1.7,1.97-1.7,3.14v29.06c0,.53.17.93.46,1.1.24.14.58.1.95-.11h0l12.62-7.29c.93-.53,1.7-1.97,1.7-3.14V3.13c0-.53-.17-.93-.45-1.1-.1-.06-.21-.08-.33-.08h0ZM3.71,43.43c-.23,0-.44-.06-.64-.16-.48-.28-.75-.87-.75-1.63V12.57c-.01-1.38.89-3.03,2.01-3.67L16.94,1.61c.56-.33,1.12-.37,1.56-.11.48.28.76.87.76,1.63v29.06c0,1.38-.9,3.03-2,3.67l-12.62,7.29c-.32.19-.64.28-.93.28Z"/>
      <path class="cls-1" d="M18.97,31.83V3.13c-.01-1.28-.85-1.85-1.87-1.25l-12.62,7.29c-1.02.59-1.86,2.12-1.86,3.41v28.7s16.35-9.44,16.35-9.44Z"/>
      <path class="cls-2" d="M17.87,1.95c-.19,0-.4.07-.63.19l-12.62,7.29c-.92.54-1.7,1.97-1.7,3.14v28.17s15.73-9.09,15.73-9.09V3.13c0-.53-.17-.93-.45-1.1-.1-.06-.21-.08-.33-.08h0ZM2.62,41.58c-.05,0-.1-.01-.16-.04-.09-.06-.15-.16-.15-.27V12.57c-.01-1.38.89-3.03,2.01-3.67L16.94,1.61c.56-.33,1.12-.37,1.56-.11.48.28.76.87.76,1.63v28.71c0,.11-.04.21-.14.27L2.77,41.54s-.09.04-.15.04Z"/>
      <path class="cls-4" d="M.75,9.49v.03c-.28.57-.42,1.09-.44,1.73v29.05c.02.45.09.83.38,1.18l.06.05.06.05,2.31,1.33-.06-.05c-.34-.34-.42-.77-.43-1.24V12.57c0-.63.15-1.16.42-1.73v-.03s-2.3-1.33-2.3-1.33Z"/>
      <path class="cls-2" d="M.89,9.92c-.18.46-.27.87-.27,1.33v29.05c.02.38.07.7.3.98l.09.07,1.35.78c-.03-.17-.03-.33-.04-.49V12.57c0-.57.11-1.06.35-1.63l-1.77-1.02h0ZM3.11,43.22c-.05,0-.1-.02-.16-.04l-2.49-1.49c-.39-.46-.45-.96-.46-1.39V11.24c.01-.64.14-1.2.44-1.86.04-.08.11-.15.2-.18.08-.03.17-.03.25.01l2.3,1.33c.14.08.19.26.12.41-.28.6-.4,1.08-.41,1.62v29.05c.03.49.12.79.35,1.02l.05.03c.12.1.14.28.05.41-.06.08-.16.13-.25.13Z"/>
      <path class="cls-2" d="M1.5,22.3c-.16,0-.3-.14-.3-.31v-2.92c0-.17.14-.31.3-.31.17,0,.31.14.31.31v2.92c0,.17-.14.31-.31.31Z"/>
      <path class="cls-2" d="M1.5,17.46c-.16,0-.3-.14-.3-.31v-2.92c0-.17.14-.31.3-.31.17,0,.31.14.31.31v2.92c0,.17-.14.31-.31.31Z"/>
      <path class="cls-2" d="M9.93,38.72c-.11,0-.21-.06-.26-.15-.09-.15-.03-.33.11-.42l2.53-1.46c.14-.08.33-.03.42.11.09.15.03.33-.11.42l-2.53,1.46c-.05.03-.1.04-.16.04Z"/>
      <path class="cls-3" d="M16.54,3.54h0c-.18.11-.33.38-.33.61h0c0,.23.15.33.33.23h0c.18-.11.33-.38.33-.61h0c0-.23-.15-.33-.33-.23Z"/>
      <path class="cls-2" d="M16.54,3.54l.16.26h0l-.16-.26h0ZM16.4,4.73c-.09,0-.17-.02-.24-.07-.17-.09-.27-.28-.27-.51,0-.33.21-.71.49-.87h0c.18-.11.38-.11.54-.02.17.1.26.28.26.51,0,.34-.21.71-.49.88-.1.05-.2.08-.3.08Z"/>
      <path class="cls-2" d="M7.22,31.59c-.11,0-.21-.06-.27-.15-.08-.15-.03-.34.12-.42l3.89-2.25c.15-.08.34-.03.42.11.09.15.03.34-.11.42l-3.9,2.25c-.05.03-.1.04-.15.04Z"/>
      <path class="cls-2" d="M7.22,35.21c-.11,0-.21-.06-.27-.15-.08-.15-.03-.33.12-.42l3.89-2.25c.15-.09.34-.03.42.11.09.15.03.34-.11.42l-3.9,2.25c-.05.03-.1.04-.15.04Z"/>
      <path class="cls-2" d="M4.72,11.82c-.1,0-.21-.06-.26-.15-.09-.15-.04-.34.11-.42l.73-.42c.14-.08.33-.03.42.12.09.15.03.34-.11.42l-.73.42c-.05.03-.11.04-.16.04Z"/>
      <path class="cls-2" d="M6.18,10.98c-.1,0-.21-.05-.27-.15-.08-.15-.03-.34.11-.42l.73-.42c.15-.08.34-.03.43.12.08.15.04.34-.11.42l-.73.42c-.05.03-.1.04-.16.04Z"/>
      <path class="cls-2" d="M7.64,10.15c-.1,0-.21-.05-.27-.15-.09-.15-.03-.33.11-.42l.73-.42c.15-.09.34-.04.42.11.09.15.04.34-.11.42l-.73.42s-.09.04-.15.04Z"/>
      <path class="cls-3" d="M16.39,15.17c0-1.71-.6-2.91-1.57-3.47-.96-.56-2.3-.48-3.79.37-1.48.86-2.82,2.32-3.79,4-.97,1.68-1.56,3.57-1.56,5.28s.6,2.91,1.56,3.47c.97.56,2.31.48,3.79-.37,1.48-.85,2.82-2.32,3.79-4,.97-1.68,1.57-3.57,1.57-5.28h0ZM4.77,21.88c0-4,2.8-8.85,6.26-10.85,3.46-2,6.27-.38,6.27,3.62s-2.81,8.85-6.27,10.85c-3.46,1.99-6.26.37-6.26-3.62h0Z"/>
      <path class="cls-2" d="M16.39,15.17h0,0ZM13.43,11.65c-.69,0-1.44.23-2.24.69-1.38.8-2.7,2.18-3.68,3.89-.98,1.7-1.53,3.52-1.53,5.12s.5,2.67,1.41,3.2c.91.53,2.15.4,3.49-.37,1.38-.8,2.69-2.18,3.68-3.89.98-1.71,1.52-3.53,1.52-5.13s-.5-2.68-1.41-3.2c-.38-.21-.79-.32-1.24-.32h0ZM8.64,25.49c-.56,0-1.08-.13-1.55-.4-1.11-.64-1.73-1.97-1.72-3.74,0-1.71.57-3.64,1.61-5.43,1.03-1.8,2.43-3.26,3.9-4.11,1.53-.88,2.98-1.01,4.09-.37,1.11.64,1.72,1.97,1.72,3.74h0c0,1.71-.57,3.64-1.61,5.43-1.04,1.8-2.42,3.26-3.9,4.11-.9.52-1.76.78-2.55.78h0ZM13.83,10.48c-.8,0-1.7.27-2.64.82-3.37,1.94-6.11,6.69-6.11,10.58,0,1.82.6,3.16,1.68,3.79,1.09.63,2.55.47,4.13-.44,3.36-1.94,6.11-6.69,6.11-10.58,0-1.82-.6-3.16-1.69-3.79-.44-.25-.93-.38-1.48-.38h0ZM8.23,26.66c-.64,0-1.25-.15-1.78-.46-1.29-.74-1.99-2.27-1.99-4.32,0-4.09,2.88-9.07,6.42-11.12,1.76-1.02,3.45-1.18,4.73-.44,1.28.74,1.99,2.27,1.99,4.32,0,4.09-2.88,9.07-6.42,11.12-1.04.6-2.04.9-2.96.9Z"/>
      <path class="cls-2" d="M9.06,22.94c-.11,0-.2-.05-.26-.14-.09-.14-.05-.33.1-.43,1.02-.65,2.17-1.31,3.28-1.94.28-.16.52-.53.52-.78v-1.96c-.09-.05-.15-.03-.22,0-1.05.6-1.93,1.13-2.7,1.61-.35.21-.6.14-.71.07-.12-.07-.33-.24-.33-.66v-1.96c0-.37.3-.98.71-1.24.86-.53,1.83-1.11,3.06-1.81.15-.08.34-.03.43.12.08.15.03.33-.11.42-1.23.7-2.19,1.27-3.04,1.8-.24.15-.42.56-.42.72v1.96c0,.06,0,.1.02.12.01-.01.04-.02.08-.05.77-.48,1.66-1.01,2.72-1.62.27-.15.57-.16.81-.02.21.12.33.33.33.55v1.96c0,.54-.42,1.08-.83,1.31-1.1.63-2.25,1.29-3.26,1.93-.05.03-.11.05-.16.05Z"/>
      <path class="cls-2" d="M10.98,23.34c-.17,0-.31-.14-.31-.31v-9.54c0-.17.14-.31.31-.31s.3.14.3.31v9.54c0,.17-.14.31-.3.31Z"/>
      <path class="cls-2" d="M14.32,32.12s-.04,0-.06,0l-1.28-.25c-.1-.02-.18-.09-.23-.19-.03-.1-.02-.21.04-.3l1.28-1.73c.1-.14.3-.17.43-.07.14.1.17.29.07.43l-.99,1.34.8.16c.17.03.28.2.24.36-.03.15-.16.25-.3.25Z"/>
      <path class="cls-2" d="M14.7,28.28c-.06,0-.13-.02-.18-.06-.14-.1-.16-.29-.07-.43l.99-1.34-.8-.16c-.16-.03-.28-.2-.24-.36.03-.17.19-.28.36-.24l1.28.25c.1.02.19.09.22.19.03.1.03.21-.04.29l-1.28,1.73c-.05.08-.15.13-.24.13Z"/>
      <path class="cls-2" d="M13.04,28.24c-.1,0-.21-.06-.26-.16-.09-.15-.04-.34.11-.42l2.93-1.69c.15-.09.34-.04.42.11.08.15.04.33-.11.42l-2.94,1.69s-.11.04-.16.04Z"/>
      <path class="cls-2" d="M13.04,31.86c-.1,0-.21-.06-.26-.15-.09-.15-.04-.34.11-.42l2.93-1.69c.15-.08.34-.03.42.11.08.15.04.34-.11.42l-2.94,1.69s-.11.04-.16.04Z"/>
    </g>
  </g>
</svg>