<?xml version="1.0" encoding="UTF-8"?>
<svg id="Layer_2" data-name="Layer 2" xmlns="http://www.w3.org/2000/svg" viewBox="0 0 63.21 91.79" fill="currentColor">
  <defs>
    <style>
      .cls-1 {
        fill: #fff;
      }

      .cls-1, .cls-2, .cls-3, .cls-4 {
        fill-rule: evenodd;
      }

      .cls-2 {
        fill: #1a87c7;
      }

      .cls-3 {
        fill: #bdedf8;
      }

      .cls-4 {
        fill: #66ceef;
      }
    </style>
  </defs>
  <g id="_Layer_" data-name="&amp;lt;Layer&amp;gt;">
    <g>
      <path class="cls-4" d="M27.71,66.55h0c2.83,6.5,1.46,13.58,7.91,19.68-10.6,4.92-22.42,7.25-31.75,1.86-2.89-1.67-3.24-2.36-3.24-5.02s-.05-5.35.04-8c.5-4.59,2.85-7.7,5.82-11.06,3.34-3.63,7.51-6.56,10.54-10.46h0c3.35,3.79,8.79,8.68,10.69,13.01h0ZM17.33,53.86l-.28-.29c.09.1.19.21.28.29h0ZM62.58,64.61l.02-8.83c0-7.06-8.71-9.61-14.72-10.13-.51,1.04-1.03,2.09-1.57,3.08,4.71,8.48.68,26.61-4.52,34.26,11.78-6.8,20.79-15.8,20.79-18.38h0Z"/>
      <path class="cls-2" d="M47.01,48.73c4.28,8.21,1.07,24.08-3.45,32.49,10.92-6.73,18.41-14.62,18.41-16.61v-8.83c0-7.51-10.64-9.16-13.73-9.47-.4.82-.82,1.63-1.23,2.42h0ZM41.79,83.62c-.17,0-.33-.07-.45-.19-.19-.22-.23-.54-.07-.78,5.04-7.41,9.06-25.41,4.5-33.62-.1-.17-.1-.4,0-.59.54-.99,1.04-2.02,1.55-3.06.12-.23.38-.33.61-.33,7.39.62,15.28,3.79,15.28,10.74v8.83c-.02,3.05-9.42,12.17-21.1,18.92-.11.05-.21.09-.31.09h0ZM17.05,54.48c-1.7,2.06-3.7,3.89-5.65,5.65-1.51,1.37-3.08,2.78-4.46,4.29-2.69,3.04-5.17,6.15-5.67,10.71-.05,1.82-.05,3.77-.03,5.66l.02,2.26c0,2.42.19,2.92,2.9,4.48,9.7,5.6,21.73,2.38,30.39-1.51-3.77-3.93-4.64-8.23-5.49-12.38-.46-2.29-.94-4.64-1.91-6.86h0c-1.34-3.11-4.69-6.61-7.63-9.68-.87-.9-1.7-1.79-2.45-2.62h0ZM16.1,91.79c-4.31,0-8.6-.89-12.55-3.17C.58,86.9.02,86.01.02,83.06l-.02-2.26c0-1.9-.02-3.86.05-5.75.52-4.95,3.13-8.24,5.98-11.45,1.42-1.55,3.01-2.99,4.54-4.36,2.09-1.89,4.24-3.84,5.96-6.06.1-.14.28-.23.45-.25.16-.02.35.05.47.17,0,.02.02.02.02.02,0,.02.02.02.02.04l.3.29s.07.09.08.13c.79.87,1.63,1.76,2.52,2.69,3.03,3.14,6.44,6.73,7.89,10.03h0c1.01,2.35,1.51,4.78,1.99,7.13.89,4.38,1.74,8.54,5.77,12.36.16.14.23.35.19.54-.04.21-.17.38-.35.47-5.6,2.59-12.71,5-19.78,5Z"/>
      <path class="cls-1" d="M17.02,53.54c.45-.59,1.79-1.96,2.15-2.57.71-1.22.7-1.69.84-3.11,6.15,7.09,20.58,11.27,26.12,1.18h0c1.57,3.74-2.9,10.95-8.64,13.11-4.21,1.57-10.64.59-13.89-2.38l-5.51-5-1.08-1.22Z"/>
      <path class="cls-2" d="M17.84,53.53l.71.82,5.48,4.97c2.99,2.72,9.18,3.77,13.26,2.24,3.2-1.18,6.34-4.28,7.81-7.65.5-1.18.76-2.29.74-3.23-2.03,2.83-4.99,4.52-8.66,4.9-5.58.59-12.39-2.03-16.7-6.32-.1.64-.28,1.2-.78,2.03-.26.43-.87,1.13-1.46,1.78-.14.17-.28.33-.4.47h0ZM32.98,63.5c-3.65,0-7.49-1.2-9.78-3.26l-5.51-5.02-1.13-1.27c-.19-.23-.19-.56-.02-.78.17-.23.47-.56.8-.93.49-.55,1.11-1.25,1.3-1.58.58-.97.63-1.37.73-2.43l.04-.43c.03-.24.19-.45.43-.52.23-.07.49,0,.64.17,3.96,4.61,10.95,7.49,16.58,6.9,3.79-.38,6.74-2.33,8.54-5.6.12-.21.31-.37.57-.31.25.02.45.16.54.38.61,1.46.43,3.44-.49,5.58-1.58,3.67-5,7.02-8.5,8.33-1.42.52-3.07.78-4.75.78Z"/>
      <path class="cls-1" d="M42.73,53.86c2.33-2.23,4.23-6.29,6.04-10.01,2.47-5.06,2.34-10.83,2.38-15.49l-.85-2.78c-.31-1.13-.32-2.34-.35-3.51-.04-1.51-.07-2.9-.83-3.62-1.25-1.15-3.23.59-5.55,2.64-1.58,1.39-3.3,2.92-5.16,4-1.86,1.06-3.58,1.53-5.16,1.96h0c-1.53.4-2.9.79-4.01,1.72-1.74,1.46-1.67,2.66-1.64,4.75.02,2,.12,3.95-1.08,8.15-.16-1.06-.4-2.14-.82-3.13-2.19-5.3-7.42-3.46-7.32,1.58.02.52.09,1.03.19,1.53.33,1.41,1.11,3.04,1.76,4.24.23.4-.05,1.46-.24,2.04,4.43,5.02,10.88,8.46,16.01,8.46,2.28,0,4.97-.92,6.64-2.54Z"/>
      <path class="cls-2" d="M42.73,53.86h.02-.02ZM20.78,47.77c4.34,4.8,10.46,8.01,15.3,8.01h.02c2.26-.02,4.75-.95,6.22-2.36h0c2.09-2.02,3.84-5.61,5.53-9.11l.36-.73c2.26-4.64,2.29-10.06,2.32-14.41v-.73l-.82-2.68c-.33-1.25-.35-2.54-.38-3.68-.02-1.36-.05-2.65-.63-3.19-.85-.76-2.72.89-4.73,2.66-1.56,1.39-3.34,2.95-5.25,4.05-1.93,1.11-3.7,1.6-5.27,2.02-.02.02-.04.02-.05.02-1.48.4-2.76.75-3.79,1.6-1.46,1.24-1.45,2.12-1.41,4.09v.5c.04,1.95.07,3.95-1.1,8.02-.09.28-.35.48-.64.45-.28-.02-.52-.24-.56-.54-.17-1.15-.42-2.14-.78-2.99-.82-2-2.23-3.06-3.63-2.76-1.24.26-2.54,1.67-2.49,4.12,0,.46.07.92.17,1.39.25,1.06.82,2.43,1.7,4.1.23.41.19,1.14-.1,2.15h0ZM36.07,57c-5.25,0-11.87-3.47-16.44-8.66-.16-.17-.19-.4-.14-.61.28-.83.33-1.42.29-1.56-.94-1.74-1.55-3.22-1.81-4.4-.12-.55-.19-1.1-.21-1.64-.07-2.69,1.36-4.9,3.46-5.33,1.61-.33,3.77.4,5.04,3.5.08.24.19.47.26.73.49-2.33.47-3.77.46-5.18l-.02-.5c-.04-2-.06-3.45,1.86-5.05,1.22-1.02,2.66-1.43,4.2-1.84.02,0,.04,0,.05-.02,1.58-.41,3.22-.85,5.01-1.89,1.82-1.04,3.46-2.5,5.06-3.91,2.54-2.24,4.71-4.17,6.38-2.64.97.89,1,2.44,1.03,4.07.02,1.12.05,2.28.33,3.36l.84,2.75c.03.07.03.12.03.19v.82c-.02,4.48-.05,10.05-2.43,14.95l-.37.73c-1.74,3.58-3.55,7.28-5.79,9.45h0c-1.7,1.63-4.49,2.69-7.07,2.69h-.02Z"/>
      <path class="cls-4" d="M14.43,15.75c-4.09,7.51-1.51,28.04,5.54,32.49.14-.36.61-1.86.35-2.35-.64-1.19-1.42-2.83-1.76-4.24-1.53-6.78,6.52-9.95,7.94.02,1.2-4.21,1.09-6.16,1.08-8.15-.04-2.09-.1-3.29,1.64-4.75,1.11-.94,2.48-1.32,4.01-1.72h0c1.58-.43,3.3-.9,5.16-1.96,1.86-1.08,3.58-2.61,5.16-4,2.32-2.05,4.3-3.79,5.55-2.64.76.71.8,2.11.83,3.62.02,1.17.04,2.38.35,3.51l.85,2.78c.22-3.65.16-7.89-.37-11.35-.97-6.71-3.96-6.95-12.24-11.33-1.32-.7-3.02-1.84-5.58-1.93-6.22-.19-15.45,7.05-18.53,12.01Z"/>
      <path class="cls-2" d="M14.97,16.07c-3.83,7.02-1.58,26.07,4.68,31.18.12-.47.19-.92.14-1.07-.94-1.74-1.55-3.22-1.81-4.4-.56-2.44.04-4.76,1.55-6.09,1.06-.94,2.45-1.22,3.7-.74.92.32,2.4,1.3,3.32,4.08.47-2.33.45-3.77.43-5.18l-.02-.5c-.04-2-.06-3.45,1.86-5.05,1.22-1.02,2.66-1.43,4.2-1.84.02,0,.04,0,.05-.02,1.58-.41,3.22-.85,5.01-1.89,1.82-1.04,3.46-2.5,5.06-3.91,2.54-2.24,4.71-4.17,6.38-2.64.97.89,1,2.44,1.03,4.07.02.67.04,1.34.1,2.02-.02-2.51-.17-4.92-.49-6.99-.76-5.27-2.78-6.28-8.19-8.97-1.12-.56-2.35-1.16-3.72-1.9l-.58-.31c-1.2-.66-2.69-1.49-4.74-1.55-.09-.02-.16-.02-.25-.02-5.98,0-14.83,7.04-17.73,11.72h0ZM19.98,48.87c-.13,0-.23-.04-.33-.1-7.34-4.62-10.01-25.5-5.75-33.31l.02-.02c3.14-5.09,12.55-12.51,19.07-12.3,2.36.07,4.07,1.01,5.3,1.7l.56.29c1.37.73,2.59,1.34,3.71,1.9,5.49,2.73,8,3.98,8.84,9.89.49,3.31.63,7.48.37,11.48-.02.29-.24.54-.54.57-.29.04-.57-.15-.66-.43l-.85-2.76c-.33-1.25-.35-2.54-.38-3.68-.02-1.36-.05-2.65-.63-3.19-.85-.76-2.72.89-4.73,2.66-1.56,1.39-3.34,2.95-5.25,4.05-1.93,1.11-3.7,1.6-5.27,2.02-.02.02-.04.02-.05.02-1.48.4-2.76.75-3.79,1.6-1.46,1.24-1.45,2.12-1.41,4.09v.5c.04,1.95.07,3.95-1.1,8.02-.09.28-.35.48-.64.45-.28-.02-.52-.24-.56-.54-.43-3.02-1.57-5.09-3.09-5.66-.85-.31-1.76-.13-2.49.52-.9.8-1.69,2.5-1.15,4.9.25,1.06.82,2.43,1.7,4.1.46.83-.29,2.76-.33,2.85-.07.18-.21.31-.38.37-.07.02-.12.04-.19.04Z"/>
      <path class="cls-3" d="M38.25,60.43c-10.26-.92-15.87-1.18-21.23-6.88,3.35,3.79,8.79,8.68,10.69,13.01,2.83,6.5,1.46,13.58,7.91,19.68l6.17-3.23c4.8-6.85,9.55-25.23,4.52-34.26l-.18.31c.52,4.85-3.41,7.18-7.16,10.97h0l-.73.41h0Z"/>
      <path class="cls-2" d="M22.17,58.12c2.5,2.66,4.95,5.51,6.11,8.17,1.01,2.35,1.51,4.78,1.99,7.13.87,4.28,1.68,8.31,5.45,12.05l5.65-2.93c4.17-6.1,8.62-22.04,5.33-31.4-.49,2.96-2.68,4.97-5.13,7.25-.71.67-1.44,1.34-2.17,2.07-.04.04-.09.07-.14.11l-.71.42c-.1.05-.24.08-.37.07l-1.35-.12c-6.19-.54-10.76-.96-14.67-2.8h0ZM35.62,86.83c-.15,0-.31-.05-.43-.17-4.31-4.09-5.24-8.62-6.14-13.01-.46-2.29-.94-4.64-1.91-6.86-1.34-3.11-4.69-6.61-7.63-9.7-1.06-1.09-2.06-2.15-2.96-3.14-.2-.25-.19-.64.05-.87.25-.22.64-.21.87.03,4.94,5.3,10.1,5.75,19.49,6.59l1.15.11.49-.28c.73-.73,1.44-1.41,2.15-2.05,2.89-2.66,5.17-4.76,4.78-8.36-.02-.13.02-.25.07-.37l.17-.31c.11-.19.31-.31.54-.31.16-.02.44.1.54.31,5.37,9.66.03,28.37-4.55,34.92-.05.07-.14.14-.23.19l-6.17,3.22c-.09.05-.19.07-.28.07Z"/>
      <path class="cls-2" d="M35.97,68.06c-.09,0-.17-.02-.25-.06l-8.84-3.8c-.31-.14-.45-.5-.31-.82.14-.31.49-.45.82-.31l8.21,3.55,1.96-6.02c.11-.33.45-.5.77-.4.08.04.17.08.22.14.02-.2.14-.41.33-.5.31-.16.68-.05.83.26l1.84,3.6c.52-.87,1.06-1.74,1.58-2.57,1.43-2.28,2.75-4.42,3.37-5.78.14-.31.52-.45.82-.31.31.14.46.5.31.82-.66,1.42-2.02,3.61-3.44,5.91-.71,1.15-1.46,2.35-2.15,3.52-.12.19-.31.31-.56.29-.22,0-.41-.14-.52-.33l-2.23-4.34s-.02.05-.02.08l-2.17,6.66c-.05.16-.17.29-.33.36-.07.04-.15.06-.24.06Z"/>
      <path class="cls-4" d="M35.62,86.22l6.17-3.23c-.11-.91-.12-1.08-.23-1.93-.52-4.35-.67-9.01-1.2-13.64-.02-.21.21-1.97.46-3.81l-1.84-3.6-.73.41-1.52,4.67c.38,1.32.77,2.71.73,3.01-.54,5.44-1.1,10.81-1.63,16.01-.08.78-.14,1.27-.21,2.1Z"/>
      <path class="cls-2" d="M37.38,65.12c.74,2.57.71,2.9.69,3.06-.54,5.44-1.09,10.81-1.63,16.01l-.09.95,4.78-2.5-.17-1.49c-.28-2.26-.43-4.52-.62-6.94-.16-2.19-.31-4.49-.58-6.73-.02-.11-.03-.35.42-3.76l-1.45-2.81-1.35,4.21h0ZM35.62,86.83c-.12,0-.24-.03-.35-.11-.19-.12-.29-.35-.26-.57l.21-2.11c.54-5.18,1.1-10.55,1.63-15.99,0-.02-.04-.46-.71-2.77-.04-.12-.04-.26,0-.38l1.53-4.67c.04-.14.14-.26.28-.35l.71-.42c.14-.08.31-.1.49-.05.16.05.3.15.37.31l1.86,3.6c.05.12.07.25.05.37-.31,2.27-.46,3.5-.43,3.68.24,2.24.41,4.54.57,6.74.17,2.4.35,4.66.61,6.86l.23,1.95c.03.24-.11.49-.33.61l-6.17,3.22c-.09.05-.19.07-.28.07Z"/>
      <path class="cls-2" d="M38.87,68.51c-.71,0-1.37-.25-1.7-.37-.31-.12-.47-.49-.35-.8.13-.31.47-.49.8-.37,1.55.61,1.98.17,2.24-.26.19-.3.56-.38.85-.21.29.17.38.56.21.85-.56.9-1.34,1.15-2.05,1.15Z"/>
      <path class="cls-2" d="M31.45,86.85c-.19,0-.4-.09-.5-.26l-8.43-12.69c-.1-.16-.12-.33-.09-.5l.75-2.69-2.93-6.85c-.13-.31.02-.68.32-.82.31-.14.68.02.82.33l3,7.06c.05.12.07.28.04.4l-.73,2.62,8.27,12.45c.17.3.11.68-.17.85-.11.07-.23.1-.35.1Z"/>
      <path class="cls-2" d="M48.76,76.21c-.05,0-.1,0-.16-.02-.33-.09-.54-.41-.45-.75l3.23-13.33-1.28-1.49c-.09-.11-.14-.23-.14-.37l-.28-7.47c0-.33.26-.63.61-.63.3-.07.63.24.63.59l.26,7.23,1.36,1.58c.12.14.17.35.14.54l-3.32,13.64c-.07.28-.31.47-.59.47Z"/>
      <path class="cls-4" d="M31.09,35.33c3.42-4.28,3.13-6.14,8.27-9.1,5.81-3.32,10.34-5.44,13.38-4.48.16-9.68-3.32-16.69-11.92-19.63-8.64-2.96-16.97-1.49-24.2,3.97-5.71,4.31-9.84,17.47-5.76,25.14,2.98,2.81,9.35,5.86,13.65,5.7,3.04-.12,5.77-.78,6.57-1.6Z"/>
      <path class="cls-2" d="M31.09,35.33h.02-.02ZM11.37,30.86c2.9,2.69,9.12,5.65,13.12,5.44,3.08-.1,5.51-.78,6.14-1.39,1.04-1.3,1.73-2.38,2.34-3.34,1.41-2.19,2.42-3.77,6.08-5.87,5.69-3.25,9.93-5.22,13.07-4.73-.03-9.65-3.81-15.63-11.52-18.27C32.3-.14,24.13,1.18,17,6.58c-5.65,4.25-9.42,17-5.63,24.28h0ZM24.2,37.53c-4.48,0-10.78-3.02-13.75-5.86-.05-.05-.09-.1-.12-.16-4.21-7.88-.23-21.3,5.93-25.94C23.73-.05,32.29-1.46,41.01,1.53c8.36,2.87,12.52,9.67,12.36,20.22,0,.2-.11.38-.26.5-.16.11-.35.14-.54.09-2.77-.87-7.16,1.14-12.9,4.43-3.41,1.95-4.3,3.34-5.65,5.46-.64.99-1.36,2.11-2.45,3.48-.02.02-.02.03-.04.05-1.08,1.09-4.28,1.67-6.99,1.78h-.35Z"/>
      <path class="cls-4" d="M10.86,31.22c2.89,2.75,9.01,5.69,13.3,5.7,5.39-8.26-3.86-21.31-13.81-20.55-1.37,4.61-1.82,10.46.5,14.84Z"/>
      <path class="cls-2" d="M11.37,30.86c2.69,2.5,8.34,5.29,12.44,5.44,1.98-3.29,1.72-7.65-.71-11.75-2.8-4.73-7.65-7.79-12.27-7.58-1.48,5.23-1.27,10.4.54,13.89h0ZM24.17,37.53h-.02c-4.52-.02-10.74-3.04-13.7-5.86-.05-.05-.09-.1-.12-.16-2.96-5.57-1.38-12.57-.56-15.32.07-.24.28-.41.54-.43,5.15-.42,10.73,2.87,13.86,8.15,2.74,4.64,2.93,9.63.5,13.33-.1.17-.3.28-.5.28Z"/>
      <path class="cls-3" d="M47.67,23.3c.8-.04,1.51.04,2.12.24.14-9.77-4.29-17.03-12.34-20-6.85-2.52-13.47-1.86-19.45,1.74,5.4-2.57,11.3-2.84,17.33-.61,7.69,2.83,12.07,9.56,12.35,18.64Z"/>
      <path class="cls-2" d="M48.26,22.67c.33,0,.63.04.92.09-.1-9.11-4.43-15.89-11.96-18.65-2.68-.99-5.32-1.49-7.93-1.49h-.07c2.09.21,4.19.7,6.32,1.48,7.63,2.81,12.24,9.56,12.71,18.58h0ZM49.79,24.15c-.07,0-.14-.02-.19-.03-.52-.17-1.17-.23-1.9-.21-.17.04-.33-.05-.45-.16-.12-.12-.19-.28-.19-.43-.28-8.91-4.52-15.33-11.95-18.08-5.84-2.15-11.51-1.94-16.86.59-.29.14-.66.03-.81-.26-.16-.29-.06-.64.22-.82,6.19-3.72,13.09-4.34,19.99-1.79,8.26,3.03,12.9,10.54,12.76,20.58-.02.19-.1.38-.26.51-.12.07-.25.1-.37.1Z"/>
      <path class="cls-3" d="M38.35,26.84c-.09-8.99-4.31-15.68-11.84-18.47-3.83-1.4-7.58-1.77-11.18-1.15-.29.28-.57.59-.83.91,3.23-.35,6.59.07,9.99,1.34,7.36,2.7,11.56,9.96,11.82,18.65.05-.02,1.76-1.11,2.04-1.28Z"/>
      <path class="cls-2" d="M19.24,7.57c1.81.2,3.64.66,5.46,1.32,7.1,2.63,11.6,9.37,12.19,18.16.29-.19.61-.4.83-.53-.17-8.68-4.22-14.9-11.42-17.56-2.36-.87-4.73-1.34-7.06-1.39h0ZM36.31,28.74c-.15,0-.31-.05-.41-.17-.12-.1-.19-.26-.19-.42-.28-8.79-4.54-15.56-11.42-18.09-3.28-1.22-6.55-1.65-9.72-1.28-.26.02-.5-.1-.62-.34-.1-.22-.09-.48.08-.67.28-.35.58-.66.87-.95.09-.11.19-.16.33-.18,3.74-.66,7.61-.26,11.51,1.18,7.69,2.83,12.13,9.77,12.24,19.04,0,.2-.12.4-.3.52l-.2.14q-1.93,1.23-2.14,1.23h-.02Z"/>
      <path class="cls-3" d="M57.75,26.08c-.31-.04-.65-.04-1.01-.04-.36.02-.78.07-1.2.14-1.4.21-3.02.71-4.79,1.4h0c-1.81.73-3.77,1.69-5.75,2.83-2.12,1.2-4.23,2.61-6.21,4.1-1.37,1.04-2.69,2.15-3.91,3.29l-2.17-1.25c1.41-1.37,2.98-2.71,4.61-3.96,2.09-1.58,4.28-3.02,6.47-4.28,2.05-1.18,4.12-2.19,6.09-2.98,1.91-.76,3.71-1.3,5.3-1.56.52-.09,1.03-.14,1.5-.16.48-.02.94,0,1.36.03l-.26,2.42Z"/>
      <path class="cls-2" d="M33.71,36.44l1.09.62c1.11-1.02,2.33-2.05,3.62-3.02,1.96-1.51,4.07-2.9,6.26-4.16,2.03-1.16,4-2.12,5.84-2.87.02,0,.03,0,.05-.02,1.82-.73,3.47-1.2,4.86-1.43.46-.07.89-.12,1.29-.14h.47l.14-1.2c-.21,0-.44,0-.66.02-.44.02-.92.07-1.41.14-1.53.24-3.26.75-5.18,1.53-1.93.77-3.95,1.76-6,2.92-2.21,1.27-4.36,2.69-6.4,4.24-1.44,1.1-2.76,2.22-3.98,3.35h0ZM34.87,38.44c-.1,0-.21-.03-.29-.08l-2.19-1.25c-.18-.11-.28-.28-.3-.47-.04-.19.04-.38.17-.5,1.39-1.36,2.97-2.71,4.68-4.01,2.06-1.58,4.28-3.04,6.53-4.33,2.09-1.2,4.15-2.21,6.14-3.01,2.02-.8,3.84-1.34,5.46-1.6.54-.09,1.06-.14,1.55-.16.52-.02,1.03-.02,1.46.03.17.02.31.1.41.22.1.14.16.3.14.46l-.28,2.42c-.02.16-.11.31-.23.42-.14.1-.3.15-.45.12-.3-.02-.59-.04-.91-.02-.35.02-.73.05-1.13.13-1.34.21-2.9.66-4.67,1.37,0,0-.02.02-.04.02-1.77.71-3.68,1.65-5.65,2.77-2.14,1.23-4.19,2.59-6.12,4.07-1.39,1.06-2.69,2.15-3.86,3.25-.12.13-.28.17-.43.17Z"/>
      <path class="cls-4" d="M27.55,33.59c5.32-5.2,17.82-13.58,25.16-12.9l5.3,2.97c-7.81-.8-20.74,8.42-25.31,12.9l-5.15-2.97Z"/>
      <path class="cls-2" d="M28.56,33.47l4.03,2.33c4.66-4.41,15.42-11.89,23.12-12.72l-3.2-1.79c-6.67-.52-18.06,6.68-23.95,12.19h0ZM32.7,37.17c-.1,0-.22-.02-.31-.07l-5.14-2.97c-.18-.1-.28-.28-.3-.47-.04-.19.04-.38.17-.5,4.87-4.76,17.82-13.8,25.64-13.09.08.02.17.03.24.09l5.32,2.99c.25.14.37.43.28.71-.08.28-.33.45-.64.44-7.46-.77-20.06,8.03-24.83,12.71-.12.12-.28.17-.43.17Z"/>
    </g>
  </g>
</svg>