<?xml version="1.0" encoding="UTF-8"?>
<svg id="Layer_2" data-name="Layer 2" xmlns="http://www.w3.org/2000/svg" viewBox="0 0 34.95 41.69" fill="currentColor">
  <defs>
    <style>
      .cls-1 {
        fill: #fff;
      }

      .cls-1, .cls-2, .cls-3, .cls-4 {
        fill-rule: evenodd;
      }

      .cls-2 {
        fill: #1a87c7;
      }

      .cls-3 {
        fill: #bdedf8;
      }

      .cls-4 {
        fill: #66ceef;
      }
    </style>
  </defs>
  <g id="_Layer_" data-name="&amp;lt;Layer&amp;gt;">
    <g>
      <path class="cls-4" d="M28.7,4.93l.75-.93c-.68-.39-4.07-2.35-4.74-2.74-.14.17-.81.87-.95,1.04l4.4,2.73c.24.15.39.07.55-.1Z"/>
      <path class="cls-2" d="M24.23,2.24l4.09,2.54c.05.03.09.03.15-.04l.51-.64-4.22-2.43c-.09.09-.19.21-.3.33-.09.09-.16.17-.24.25h0ZM28.7,4.93h.01-.01ZM28.38,5.43c-.12,0-.25-.04-.38-.12l-4.41-2.74c-.07-.04-.12-.12-.14-.21-.01-.08,0-.17.07-.24.07-.09.28-.32.5-.55.19-.21.38-.42.44-.5.09-.12.26-.16.4-.08l4.75,2.74c.08.04.13.12.15.21.02.1-.01.18-.06.25l-.76.93s0,.02,0,.02c-.18.19-.36.29-.55.29Z"/>
      <path class="cls-4" d="M17.66,2.46l-1.65,4.23,1.77,2.51c.18.25.16.42-.06.72l-.58.72,4.76,2.74.57-.72c.17-.23.25-.44.08-.7l-1.79-2.53,1.64-4.23-4.75-2.75Z"/>
      <path class="cls-2" d="M17.62,10.57l4.21,2.43.42-.51c.15-.21.11-.25.06-.33l-1.79-2.53c-.06-.09-.07-.19-.03-.29l1.55-3.99-4.21-2.43-1.45,3.74,1.68,2.38c.31.44.16.78-.06,1.07l-.36.46h0ZM21.9,13.7c-.06,0-.11-.02-.15-.04l-4.75-2.74c-.08-.04-.13-.12-.15-.21-.02-.1,0-.18.06-.25l.58-.72c.15-.21.13-.23.04-.35l-1.77-2.51c-.06-.09-.07-.19-.03-.3l1.64-4.23c.03-.08.1-.15.18-.18.09-.03.18-.02.26.03l4.75,2.74c.13.08.19.23.13.38l-1.58,4.08,1.69,2.39c.34.48.03.9-.08,1.06l-.59.73c-.06.08-.15.12-.24.12Z"/>
      <path class="cls-4" d="M26.85,22.59l4.75,2.74c-1.53-2.17-3.05-4.35-4.58-6.52-.18-.28-.21-.54-.18-.87.08-.63.31-1.11.69-1.62l2.49-3.09c.4-.46,1-.98,1.64-.73l-4.74-2.74c-.65-.25-1.25.27-1.64.73l-2.49,3.09c-.38.5-.61.98-.69,1.61-.03.33,0,.58.18.87l2.92,4.18c.59.7,1.13,1.58,1.66,2.34Z"/>
      <path class="cls-2" d="M27.05,22.35l3.49,2.01-3.78-5.38c-.24-.37-.27-.7-.24-1.08.08-.66.31-1.21.75-1.77l2.5-3.09c.3-.36.6-.6.89-.75l-3.92-2.27c-.34-.12-.77.09-1.25.67l-2.48,3.08c-.37.47-.56.91-.63,1.46-.03.3,0,.47.14.67l2.91,4.17c.4.47.79,1.05,1.16,1.61.16.24.3.46.45.67h0ZM31.59,25.64c-.05,0-.11-.02-.16-.04l-4.75-2.74s-.07-.05-.09-.09c-.17-.24-.33-.49-.51-.74-.36-.55-.74-1.11-1.14-1.58l-2.94-4.21c-.24-.36-.27-.69-.23-1.08.08-.67.31-1.21.75-1.77l2.49-3.09c.84-.99,1.54-1,1.98-.84l4.79,2.76c.14.08.2.25.13.4-.07.15-.24.21-.39.16-.36-.14-.8.08-1.29.64l-2.48,3.09c-.37.47-.56.91-.62,1.45-.03.31,0,.48.14.67l4.57,6.51c.09.12.07.28-.03.38-.06.07-.14.1-.22.1Z"/>
      <path class="cls-4" d="M7.16,16.32l4.75,2.74c-.53-.42-.39-1.22-.18-1.78l2.55-6.58c.24-.62.63-1.16,1.2-1.5l5.72-3.29-4.76-2.74-5.71,3.29c-.57.34-.96.88-1.2,1.5l-2.56,6.58c-.05.27-.5,1.24.18,1.78Z"/>
      <path class="cls-2" d="M7.33,16.07l3.89,2.25c-.02-.34.05-.72.21-1.14l2.56-6.59c.29-.74.74-1.29,1.33-1.65l5.26-3.03-4.14-2.38-5.55,3.2c-.47.28-.83.73-1.08,1.35l-2.54,6.58h0s-.02.07-.05.16c-.13.45-.24.96.11,1.26h0ZM11.9,19.37c-.05,0-.11-.02-.16-.04l-4.75-2.74s-.03-.02-.03-.03c-.73-.58-.45-1.52-.34-1.93.02-.06.04-.11.04-.15l2.57-6.64c.3-.75.74-1.31,1.33-1.65l5.72-3.3c.1-.05.21-.05.3,0l4.75,2.74c.1.06.16.16.16.27s-.06.21-.16.27l-5.71,3.29c-.47.27-.83.73-1.07,1.34l-2.55,6.58c-.15.39-.33,1.1.09,1.43.13.09.16.28.06.41-.06.09-.16.14-.25.14Z"/>
      <path class="cls-3" d="M2.58,34.29l5.56,5.64.05.06.05.06.05.04.07.04,2.03,1.17-.06-.04-.05-.04-.05-.06-.05-.06c-.24-.33-.55-.78-2.85-4.07.76-.45,9.16-5.29,9.16-5.29.33-.18.64-.29.98-.1l-4.75-2.75c-.36-.18-.65-.08-.98.09-3.05,1.77-6.11,3.53-9.16,5.3Z"/>
      <path class="cls-2" d="M3.08,34.35l5.39,5.48.76.43-2.15-3.06c-.05-.07-.07-.15-.05-.24.02-.09.07-.15.15-.2,6.79-3.92,8.63-4.99,9.2-5.24l-.03-.05s.08-.04.11-.06l-3.89-2.24c-.19-.1-.34-.08-.68.1l-8.81,5.09h0ZM10.37,41.61s-.08,0-.12-.03l-2.03-1.17s-.07-.05-.08-.05c0,0-.1-.09-.11-.1l-.12-.15-5.55-5.61c-.06-.07-.09-.17-.08-.25.01-.1.06-.18.15-.23l9.16-5.29c.37-.19.78-.37,1.28-.1l4.76,2.75c.14.08.19.27.11.42-.08.15-.27.2-.41.12-.21-.1-.37-.09-.69.09h0c-.18.1-7.17,4.14-8.87,5.12l2.73,3.88s.03.02.03.03h.02v.02c.1.1.15.28.08.4-.07.1-.16.16-.26.16Z"/>
      <path class="cls-1" d="M21.2,5.91l-5.72,3.29c-.25.15-.5.36-.7.61-.21.25-.37.56-.5.89l-2.55,6.58c-.19.5-.23.96-.14,1.3.1.35.31.57.64.6l2.49.23c.67.06,1.51-.68,1.89-1.68,1.53-3.94,3.06-7.87,4.59-11.81Z"/>
      <path class="cls-2" d="M20.59,6.61l-4.95,2.86c-.22.12-.43.31-.61.54-.19.23-.35.5-.46.8l-2.55,6.58c-.16.41-.21.81-.13,1.1.07.23.19.36.38.37l2.48.23c.5.06,1.22-.55,1.58-1.48l4.27-11h0ZM14.79,19.71h-.11l-2.49-.23c-.45-.04-.78-.35-.91-.83-.11-.42-.06-.95.15-1.48l2.56-6.59c.14-.36.32-.69.55-.96.23-.29.5-.52.78-.69l5.72-3.3c.11-.06.25-.04.36.03.09.09.13.23.09.35l-4.59,11.81c-.42,1.09-1.31,1.88-2.1,1.88Z"/>
      <path class="cls-1" d="M31.59,25.33l2.86-7.36c.26-.66.26-1.23,0-1.6l-2.55-3.63c-.38-.55-1.24-.31-1.9.51l-2.49,3.09c-.66.82-.9,1.94-.5,2.48,1.53,2.18,3.05,4.35,4.58,6.52Z"/>
      <path class="cls-2" d="M31.32,12.74c-.32,0-.74.27-1.08.69l-2.49,3.09c-.62.78-.77,1.74-.5,2.1l4.26,6.06,2.65-6.83c.22-.56.24-1.03.03-1.31l-2.54-3.63c-.08-.1-.18-.16-.31-.16h-.02ZM31.59,25.64c-.1,0-.19-.05-.25-.13l-4.58-6.52c-.47-.65-.24-1.9.52-2.86l2.49-3.08c.48-.59,1.11-.95,1.59-.92.33.02.61.16.8.43l2.55,3.62c.32.46.33,1.13.03,1.9l-2.86,7.36c-.04.1-.14.18-.25.2h-.03Z"/>
      <path class="cls-3" d="M10.26,6.82l4.75,2.74c.16-.15.29-.24.47-.36l5.72-3.29-4.76-2.74-5.71,3.29c-.18.11-.31.21-.47.36Z"/>
      <path class="cls-2" d="M10.8,6.78l4.17,2.41c.12-.09.22-.17.35-.24l5.26-3.03-4.14-2.38-5.55,3.2s-.06.03-.09.05h0ZM15.01,9.87c-.05,0-.1-.02-.16-.05l-4.75-2.74c-.08-.05-.14-.14-.15-.23,0-.1.03-.19.09-.26.18-.16.33-.28.52-.4l5.72-3.3c.1-.05.21-.05.3,0l4.75,2.74c.1.06.16.16.16.27s-.06.21-.16.27l-5.71,3.29c-.15.09-.26.17-.42.31-.06.06-.13.09-.21.09Z"/>
      <path class="cls-3" d="M17.66,2.46l4.75,2.75,4.06-2.26L22.05.4c-.35-.18-.66-.07-.98.1l-3.41,1.96Z"/>
      <path class="cls-2" d="M18.28,2.46l4.14,2.39,3.42-1.91-3.95-2.28c-.18-.1-.36-.06-.68.1l-2.94,1.7h0ZM22.41,5.52c-.05,0-.11-.02-.15-.05l-4.75-2.74c-.09-.05-.16-.15-.16-.27,0-.11.06-.21.16-.26l3.41-1.96c.37-.2.79-.36,1.27-.11l4.43,2.55c.1.06.16.16.16.27,0,.11-.06.22-.16.27l-4.05,2.26c-.05.03-.1.04-.15.04Z"/>
      <path class="cls-1" d="M22.41,5.21l-1.64,4.23,1.7,2.42c.13.17.34.41,0,.81l-.57.72,6.35-1.03,1.2-8.36-.75.93c-.16.21-.38.27-.48.13l-1.2-1.71c-.26-.37-.69-.4-1.2-.1l-3.41,1.96Z"/>
      <path class="cls-2" d="M21.11,9.4l1.61,2.28c.16.21.45.63,0,1.18l-.08.1,5.34-.86,1.01-7.02-.05.05c-.17.21-.37.31-.58.32-.16,0-.3-.08-.38-.21l-1.2-1.71c-.17-.22-.42-.23-.8-.02l-3.31,1.91-1.55,3.98h0ZM21.9,13.7c-.11,0-.22-.06-.27-.16-.06-.11-.05-.25.02-.35l.59-.72c.15-.2.12-.24,0-.41l-1.73-2.45c-.06-.09-.07-.19-.03-.29l1.64-4.23c.03-.07.08-.12.14-.16l3.41-1.97c.65-.37,1.25-.3,1.61.2l1.14,1.62s.03-.03.04-.05l.75-.93c.09-.11.24-.15.36-.1.13.06.2.19.18.33l-1.19,8.36c-.03.13-.13.24-.26.26l-6.35,1.03s-.04,0-.05,0Z"/>
      <path class="cls-4" d="M2.58,34.29l4.63,4.99c.26.27.49.48.69.6l2.49,1.43c-.1-.07-.14-.11-.22-.21-.24-.33-.55-.78-2.85-4.07l-4.75-2.74Z"/>
      <path class="cls-2" d="M4.19,35.58l3.24,3.49c.25.25.45.44.63.54l1.16.67-2.11-3.02-2.91-1.68h0ZM10.39,41.62c-.05,0-.11-.02-.15-.04l-2.49-1.44c-.23-.13-.46-.34-.76-.64l-4.64-5c-.1-.11-.11-.28-.02-.4.09-.11.27-.15.39-.07l4.74,2.74s.08.05.11.09l2.85,4.07c.05.07.07.09.14.14.14.09.18.28.1.42-.06.1-.17.15-.27.15Z"/>
      <path class="cls-4" d="M6.35,28.06l-.54-.31,6.11-6.06-4.75-2.75L.82,25.26l.89.51-1.21,3.13c-.19.52-.32,1.1,0,1.61l1.7,2.42,4.74,2.74-1.7-2.43c-.27-.42-.22-.89-.09-1.36l.04-.12.04-.12,1.2-3.1c.03-.09.06-.2.04-.29-.02-.09-.06-.14-.14-.18Z"/>
      <path class="cls-2" d="M2.41,32.7l3.49,2.01-.9-1.29c-.36-.57-.26-1.16-.13-1.62l.09-.27,1.2-3.1c.02-.05.03-.09.03-.11l-.52-.3c-.09-.04-.14-.13-.16-.23,0-.09.02-.19.08-.26l5.83-5.78-4.19-2.42-5.9,5.86.54.3c.13.08.19.23.13.38l-1.21,3.13c-.23.61-.23,1.01-.03,1.33l1.65,2.36h0ZM6.95,35.97c-.05,0-.11,0-.15-.03l-4.75-2.74s-.08-.06-.09-.09l-1.71-2.43c-.41-.64-.23-1.35-.03-1.89l1.11-2.89-.65-.38c-.09-.05-.14-.13-.16-.23,0-.09.02-.19.09-.26l6.35-6.31c.1-.09.25-.11.37-.04l4.74,2.74c.08.04.14.13.15.22.02.1-.02.19-.09.26l-5.82,5.78.19.11c.16.09.25.22.29.38.02.15-.01.31-.05.44l-1.28,3.35c-.14.5-.12.82.05,1.1l1.7,2.42c.08.11.07.28-.03.38-.06.07-.15.09-.23.09Z"/>
      <path class="cls-4" d="M.33,30.05c.03.17.08.3.18.45l1.7,2.42,4.74,2.74-1.7-2.43c-.1-.15-.15-.27-.17-.44L.33,30.05Z"/>
      <path class="cls-2" d="M2.41,32.7l3.49,2.01-.9-1.29c-.1-.15-.16-.28-.19-.42l-3.66-2.11,1.27,1.81h0ZM6.95,35.97c-.05,0-.11,0-.15-.03l-4.75-2.74s-.08-.06-.09-.09l-1.71-2.43c-.13-.2-.19-.37-.22-.57-.02-.12.04-.24.13-.3.09-.07.23-.07.33,0l4.75,2.74c.08.04.13.12.15.21.02.13.05.21.13.33l1.7,2.42c.08.11.07.28-.03.38-.06.07-.15.09-.23.09Z"/>
      <path class="cls-4" d="M26.85,22.59l4.75,2.74c-1.53-2.17-3.05-4.36-4.59-6.53-.13-.21-.18-.41-.18-.65l-4.74-2.74c0,.24.05.43.18.65l2.93,4.19c.59.7,1.13,1.58,1.66,2.34Z"/>
      <path class="cls-2" d="M27.05,22.35l3.49,2.01-.81-1.16c-.99-1.42-1.98-2.83-2.98-4.24-.13-.21-.21-.41-.22-.64l-3.87-2.23,2.78,3.98c.4.47.79,1.05,1.16,1.61.16.24.3.46.45.67h0ZM31.59,25.64c-.05,0-.11-.02-.16-.04l-4.75-2.74s-.07-.05-.09-.09c-.17-.24-.33-.49-.51-.74-.36-.55-.74-1.11-1.14-1.58l-2.95-4.22c-.17-.27-.24-.52-.24-.83,0-.11.06-.22.16-.27.09-.05.22-.05.31,0l4.75,2.74c.09.06.16.16.16.27,0,.2.03.34.13.49.99,1.4,1.98,2.82,2.97,4.23l1.61,2.28c.09.12.07.28-.03.38-.06.07-.14.1-.22.1Z"/>
      <polygon class="cls-3" points="25.26 26.44 29.65 23.89 24.89 21.15 20.49 23.7 25.26 26.44"/>
      <path class="cls-2" d="M21.11,23.7l4.15,2.39,3.79-2.2-4.16-2.38-3.78,2.19h0ZM25.26,26.75c-.05,0-.11-.02-.16-.04l-4.75-2.75c-.1-.05-.16-.16-.16-.26,0-.11.06-.22.16-.27l4.39-2.55c.09-.05.22-.05.31,0l4.76,2.75c.1.05.16.16.16.26,0,.11-.06.22-.16.27l-4.41,2.55s-.09.04-.15.04Z"/>
      <path class="cls-4" d="M20.88,22.31l-5.15,8.01,4.75,2.74,4.71-7.32.43-.68c-1.58-.92-3.16-1.82-4.75-2.75Z"/>
      <path class="cls-2" d="M16.17,30.21l4.21,2.43,4.82-7.48-4.22-2.43-4.82,7.49h0ZM20.48,33.36c-.05,0-.1-.02-.16-.04l-4.75-2.74c-.07-.04-.12-.12-.15-.2-.02-.08,0-.17.04-.23l5.15-8.01c.09-.14.27-.17.41-.09l4.74,2.74c.07.04.13.11.15.19.02.09,0,.17-.04.24l-5.15,8c-.05.09-.16.14-.25.14Z"/>
      <path class="cls-1" d="M31.3,26.23l-1.64-2.34-3.67,2.13c-.19.11-.35.03-.35-.2v-.77l-5.15,8.01,5.15,2.06v-1c0-.23.16-.5.35-.6l2.41-1.39c.51-.3.94-.84,1.2-1.5l1.71-4.4Z"/>
      <path class="cls-2" d="M20.94,32.9l4.38,1.75v-.54c0-.33.22-.71.51-.87l2.41-1.39c.44-.26.83-.75,1.07-1.34l1.64-4.24-1.38-1.97-3.43,1.99c-.18.1-.39.12-.55.03-.11-.06-.18-.16-.23-.28l-4.42,6.87h0ZM25.64,35.42s-.08,0-.11-.02l-5.16-2.06c-.09-.03-.15-.11-.18-.19-.03-.09-.02-.18.03-.26l5.15-8.01c.08-.11.22-.17.35-.13.13.04.22.16.22.3v.64l3.56-2.06c.13-.08.31-.04.4.09l1.64,2.34c.06.09.08.19.03.29l-1.7,4.4c-.29.73-.76,1.31-1.34,1.64l-2.41,1.39c-.1.06-.19.23-.19.34v1c0,.11-.05.19-.13.25-.05.04-.11.05-.17.05Z"/>
      <path class="cls-1" d="M7.32,37.03l2.85,4.07c.33.47.9.28,1.53-.08l4.78-2.76c.76-.44,1.38-1.52,1.39-2.41v-3.31c0-.9-.62-1.24-1.39-.8-3.05,1.76-6.11,3.53-9.16,5.29Z"/>
      <path class="cls-2" d="M7.77,37.13l2.66,3.79c.08.11.24.34,1.12-.17l4.78-2.76c.67-.38,1.23-1.37,1.23-2.14v-3.31c0-.31-.09-.55-.24-.63-.16-.1-.41-.06-.68.1l-8.87,5.12h0ZM10.7,41.69c-.29,0-.56-.1-.78-.42l-2.85-4.07c-.05-.07-.07-.15-.05-.24.02-.09.07-.15.15-.2l9.16-5.29c.48-.27.94-.31,1.29-.11.36.21.55.63.55,1.17v3.32c0,.99-.68,2.16-1.54,2.67l-4.78,2.75c-.23.14-.69.41-1.15.41Z"/>
      <path class="cls-1" d="M6.95,35.67l3.29-1.89,1.83-4.74c.23-.6.77-.39,1.06-.36l-1.2-6.98-6.35,6.3c.27.03,1.13-.11.88.54l-1.2,3.1c-.25.66-.25,1.24,0,1.61l1.7,2.43Z"/>
      <path class="cls-2" d="M6.27,27.73c.18.04.33.11.43.26.09.12.16.33.03.65l-1.2,3.1c-.21.55-.22,1.04-.03,1.31l1.54,2.2,2.95-1.7,1.79-4.63c.22-.56.66-.63.97-.61l-1.02-5.99-5.45,5.4h0ZM6.95,35.97c-.1,0-.2-.04-.25-.13l-1.7-2.43c-.32-.45-.33-1.13-.04-1.89l1.2-3.09c.03-.08.03-.11.03-.11-.05-.02-.33-.02-.44-.02h-.21c-.12-.02-.22-.09-.26-.21-.04-.11,0-.23.07-.32l6.35-6.31c.09-.08.2-.11.31-.07.11.03.19.13.21.24l1.2,6.98c.02.09-.02.19-.08.26-.07.07-.16.1-.25.1-.05,0-.12-.01-.18-.03-.36-.06-.48-.04-.57.2l-1.82,4.74c-.03.06-.08.11-.14.15l-3.29,1.9s-.1.03-.15.03Z"/>
    </g>
  </g>
</svg>