<?xml version="1.0" encoding="UTF-8"?>
<svg id="Layer_2" data-name="Layer 2" xmlns="http://www.w3.org/2000/svg" viewBox="0 0 30.99 41.7" fill="currentColor">
  <defs>
    <style>
      .cls-1 {
        fill: #fff;
      }

      .cls-1, .cls-2, .cls-3, .cls-4 {
        fill-rule: evenodd;
      }

      .cls-2 {
        fill: #1a87c7;
      }

      .cls-3 {
        fill: #bdedf8;
      }

      .cls-4 {
        fill: #66ceef;
      }
    </style>
  </defs>
  <g id="_Layer_" data-name="&amp;lt;Layer&amp;gt;">
    <g>
      <path class="cls-4" d="M12.26,22.35L.31,15.46v18.4c.01.25.04.43.26.58l11.93,6.89-.05-.04c-.17-.16-.2-.32-.21-.54v-18.4Z"/>
      <path class="cls-2" d="M.62,15.99v17.86c.01.21.04.27.13.33l11.2,6.46v-18.11L.62,15.99h0ZM12.5,41.64s-.1-.01-.14-.04L.42,34.7c-.35-.24-.41-.54-.42-.84V15.46c0-.11.06-.21.16-.27.09-.06.22-.06.31,0l11.93,6.89c.1.05.16.15.16.26v18.4c0,.18.02.24.09.31h.01c.14.1.18.29.1.43-.06.09-.16.15-.26.15Z"/>
      <path class="cls-3" d="M30.46,7.24L18.47.37c-.24-.11-.41-.06-.64.06L1.22,10.01c-.29.19-.45.38-.63.68l11.93,6.89c.18-.3.35-.49.64-.68l15.37-8.87,1.23-.71c.23-.12.45-.2.69-.09Z"/>
      <path class="cls-2" d="M1.03,10.59l11.39,6.58c.15-.19.31-.36.57-.52L29.57,7.08,18.32.64c-.09-.04-.15-.04-.35.07L1.37,10.28c-.14.09-.24.18-.35.31h0ZM12.52,17.89c-.05,0-.11-.01-.15-.04L.42,10.96c-.07-.04-.12-.11-.15-.19-.02-.08,0-.17.04-.24.18-.31.37-.54.73-.77L17.68.16c.26-.13.55-.25.92-.07l12,6.88c.15.08.2.26.12.41-.08.15-.25.2-.41.14-.1-.05-.19-.03-.4.08l-16.61,9.58c-.22.14-.36.29-.53.57-.05.09-.16.15-.26.15Z"/>
      <path class="cls-4" d="M.31,11.53v3.93l11.94,6.89v-3.93c0-.35.09-.58.26-.89L.6,10.65c-.17.3-.27.53-.29.88Z"/>
      <path class="cls-2" d="M.62,15.28l11.33,6.54v-3.4c.02-.31.08-.54.18-.76L.73,11.08c-.06.15-.1.28-.11.45v3.75h-.01ZM12.26,22.66c-.06,0-.11-.01-.16-.04L.16,15.73c-.1-.05-.15-.15-.15-.26v-3.93H0c.02-.42.15-.69.32-1.02.04-.07.11-.13.19-.15.08-.02.17-.01.24.03l11.92,6.88c.15.08.2.27.11.41-.14.25-.21.45-.22.75v3.92c0,.11-.06.22-.16.27-.04.03-.09.04-.15.04Z"/>
      <path class="cls-1" d="M12.26,22.35v18.4c0,.29.09.49.25.58.17.09.39.08.64-.06l16.61-9.58c.25-.14.48-.39.64-.68.16-.28.27-.6.27-.89V11.72l-18.42,10.63Z"/>
      <path class="cls-2" d="M12.56,22.53v18.22c0,.16.03.28.1.32.07.04.19.02.33-.06l16.62-9.58c.19-.11.38-.31.52-.56.15-.25.23-.52.23-.74V12.25s-17.8,10.28-17.8,10.28h0ZM12.74,41.7c-.14,0-.27-.03-.38-.1-.27-.16-.42-.47-.42-.85v-18.4c0-.11.07-.21.17-.26l18.42-10.64c.09-.06.22-.06.31,0,.1.06.16.16.16.27v18.4c0,.33-.12.7-.31,1.04-.2.34-.47.62-.75.79l-16.62,9.58c-.18.11-.37.16-.56.16Z"/>
      <path class="cls-1" d="M12.26,18.66v3.69l18.42-10.63v-3.92c0-.29-.09-.49-.26-.58-.17-.09-.39-.08-.64.06l-1.23.71-15.19,8.76c-.09.06-.23.12-.32.19-.19.14-.36.35-.5.59-.27.47-.26.75-.26,1.13Z"/>
      <path class="cls-2" d="M30.17,7.46c-.06,0-.15.03-.24.08l-16.43,9.48c-.13.08-.21.12-.28.17-.15.12-.31.29-.42.5-.22.39-.22.61-.22.96v3.18l17.81-10.28v-3.74c0-.16-.04-.28-.11-.32-.03-.01-.05-.02-.09-.02h0ZM12.26,22.66c-.06,0-.11-.01-.16-.04-.09-.05-.16-.16-.16-.27v-3.69h.31-.31.31l-.31-.02c0-.38,0-.73.31-1.27.15-.28.36-.51.58-.68.09-.06.2-.13.29-.18L29.62,7c.33-.19.68-.22.95-.06.26.15.42.46.42.85v3.92c0,.11-.06.21-.16.27l-18.43,10.63s-.09.04-.15.04Z"/>
      <path class="cls-4" d="M22.52,13.04c-.22-.12-.51-.1-.84.08-.33.19-.63.51-.83.88-.22.37-.35.79-.35,1.17s.13.64.35.76c.21.12.5.11.83-.08.32-.19.62-.51.84-.88h0c.22-.37.35-.79.35-1.16s-.13-.63-.34-.76h0Z"/>
      <path class="cls-2" d="M22.21,13.27c-.1,0-.23.04-.37.12-.26.15-.52.43-.72.77-.19.34-.3.71-.3,1.01,0,.24.07.43.19.5.12.07.31.04.53-.08.27-.15.53-.43.72-.77.2-.34.3-.7.3-1.01,0-.24-.07-.42-.18-.5l.15-.27-.16.27s-.09-.04-.16-.04h0ZM21.16,16.31c-.17,0-.32-.04-.46-.12-.32-.19-.5-.55-.5-1.03,0-.42.13-.89.38-1.32.25-.43.58-.78.95-.99.41-.24.82-.26,1.14-.09h0c.33.2.5.57.5,1.04,0,.42-.14.89-.38,1.32-.25.43-.59.79-.95.99-.24.14-.47.2-.69.2Z"/>
      <polygon class="cls-1" points="25.52 10.62 29.39 8.39 29.39 11.53 25.52 13.77 25.52 10.62"/>
      <path class="cls-2" d="M25.82,10.8v2.44l3.25-1.88v-2.43l-3.25,1.88h0ZM25.52,14.08c-.06,0-.11-.02-.16-.04-.09-.06-.15-.16-.15-.27v-3.15c0-.11.06-.21.15-.26l3.87-2.24c.09-.06.21-.06.3,0,.09.06.16.16.16.27v3.14c0,.11-.06.21-.16.27l-3.87,2.24s-.1.04-.15.04Z"/>
      <path class="cls-2" d="M27.67,10.43h0,0ZM27.88,10.66v.42l.23-.13v-.42l-.23.13h0ZM27.62,11.87c-.07,0-.13-.01-.17-.04-.11-.06-.18-.19-.18-.33v-.92c0-.17.1-.34.24-.42l.67-.38c.1-.06.28-.06.37,0,.11.07.17.19.17.33v.92c0,.17-.09.34-.24.43l-.66.38s-.13.05-.2.05Z"/>
      <path class="cls-4" d="M22.98,18.41c.55-.11,1.13-.1,1.67.08l.1.04,1.89,1.09c-.35-.12-.64-.18-1.01-.18-1.67-.03-3.36,1.14-4.5,2.27-2.04,2.04-3.68,5.3-3.68,8.23,0,1.14.27,2.42,1.12,3.24l.08.08-1.89-1.1s-.2-.19-.24-.24c-1.06-1.2-1.08-3.14-.82-4.62.59-3.29,3.56-8.19,7.28-8.88Z"/>
      <path class="cls-2" d="M23.03,18.71c-3.65.68-6.47,5.54-7.03,8.64-.16.88-.4,3.07.75,4.37.03.04.15.16.19.2l.65.37c-.36-.79-.44-1.66-.44-2.35,0-2.79,1.51-6.18,3.77-8.44.68-.67,2.37-2.17,4.29-2.35l-.66-.37c-.45-.15-.96-.17-1.51-.07h0ZM18.65,33.56s-.1-.01-.15-.04l-1.89-1.1c-.12-.08-.31-.29-.32-.3-1.32-1.5-1.06-3.91-.89-4.88.59-3.27,3.61-8.4,7.53-9.14h0c.65-.12,1.27-.09,1.83.09l.11.04,1.95,1.12c.14.08.19.25.12.39-.06.14-.24.21-.38.16-.32-.12-.59-.16-.91-.17h-.05c-1.83,0-3.57,1.53-4.22,2.19-2.16,2.15-3.6,5.37-3.6,8.01,0,.93.17,2.2,1.02,3.02l.08.07c.11.11.13.28.04.41-.06.08-.16.13-.25.13Z"/>
      <path class="cls-4" d="M22.88,22.19c-2.15,1.24-3.89,4.26-3.89,6.74s1.75,3.49,3.89,2.25c2.16-1.24,3.89-4.26,3.89-6.74s-1.74-3.49-3.89-2.25Z"/>
      <path class="cls-2" d="M22.88,22.19h0,0ZM24.61,21.97c-.48,0-1.02.16-1.58.49h0c-2.06,1.19-3.74,4.09-3.74,6.48,0,1.09.35,1.89.98,2.25.64.37,1.5.27,2.45-.27,2.06-1.19,3.74-4.1,3.74-6.48,0-1.09-.35-1.89-.99-2.25-.25-.15-.54-.22-.86-.22h0ZM21.14,32.03c-.42,0-.81-.1-1.16-.3-.84-.48-1.3-1.47-1.3-2.79,0-2.58,1.82-5.72,4.05-7.01,1.14-.66,2.23-.75,3.06-.27.84.48,1.29,1.47,1.29,2.79,0,2.58-1.82,5.72-4.05,7.01-.66.38-1.3.57-1.89.57Z"/>
      <path class="cls-4" d="M20.13,31.46l-1.9-1.09c3.59,1.99,9.31-7.33,5.3-9.64.57.25,2.31,1.14,2.77,1.85,2.09,3.25-2.93,10.67-6.17,8.89Z"/>
      <path class="cls-2" d="M20.28,31.19c1.04.57,2.49.05,3.84-1.4,1.83-1.98,3.09-5.23,1.92-7.05-.17-.28-.63-.62-1.13-.94.66,1.5.17,3.6-.85,5.4-1.05,1.86-2.69,3.43-4.27,3.71l.49.28h0ZM21.19,32.04c-.42,0-.83-.1-1.21-.31t0,0l-1.9-1.1c-.14-.08-.19-.27-.11-.42.09-.15.27-.2.42-.12,1.65.91,3.89-.96,5.15-3.2,1.23-2.18,1.67-4.86-.15-5.91-.14-.08-.19-.26-.11-.41.07-.15.24-.21.4-.14.1.04,2.31,1.05,2.9,1.96,1.33,2.07,0,5.66-2,7.81-1.11,1.19-2.3,1.83-3.37,1.83Z"/>
      <path class="cls-3" d="M22.88,22.19c2.16-1.24,3.89-.23,3.89,2.25s-1.74,5.5-3.89,6.74c-2.15,1.24-3.89.24-3.89-2.25s1.75-5.5,3.89-6.74h0ZM22.96,20.16c-3.11,1.79-5.63,6.15-5.63,9.74s2.52,5.05,5.62,3.25c3.11-1.79,5.63-6.15,5.63-9.74s-2.52-5.04-5.62-3.25h0Z"/>
      <path class="cls-2" d="M22.88,22.19h0,0ZM24.61,21.97c-.48,0-1.02.16-1.58.49h0c-2.06,1.19-3.74,4.09-3.74,6.48,0,1.09.35,1.89.98,2.25.64.37,1.5.27,2.45-.27,2.06-1.19,3.74-4.1,3.74-6.48,0-1.09-.36-1.89-.99-2.25-.25-.15-.54-.22-.86-.22h0ZM21.14,32.03c-.42,0-.81-.1-1.16-.3-.84-.48-1.3-1.47-1.3-2.79,0-2.58,1.82-5.72,4.05-7.01,1.14-.66,2.23-.75,3.06-.27.84.48,1.29,1.47,1.29,2.79,0,2.58-1.82,5.72-4.05,7.01-.66.38-1.3.57-1.89.57h0ZM23.1,20.43c-3.02,1.74-5.47,5.99-5.47,9.48,0,1.62.52,2.82,1.48,3.38.97.56,2.27.42,3.67-.39,3.03-1.74,5.48-5.99,5.48-9.48,0-1.62-.53-2.82-1.49-3.38-.96-.56-2.27-.42-3.68.39h0ZM20.44,34.24c-.59,0-1.13-.14-1.62-.42-1.16-.67-1.8-2.06-1.8-3.91,0-3.68,2.59-8.17,5.78-10.01h0c1.6-.93,3.13-1.06,4.28-.39,1.17.67,1.8,2.06,1.8,3.91,0,3.68-2.59,8.17-5.78,10.01-.94.54-1.84.81-2.67.81Z"/>
      <path class="cls-2" d="M26.73,12.39c-.17,0-.3-.14-.3-.31v-1.13c0-.17.14-.31.3-.31.18,0,.31.14.31.31v1.13c0,.17-.14.31-.31.31Z"/>
    </g>
  </g>
</svg>