<?xml version="1.0" encoding="UTF-8"?>
<svg id="Layer_2" data-name="Layer 2" xmlns="http://www.w3.org/2000/svg" viewBox="0 0 34.11 47.85" fill="currentColor">
  <defs>
    <style>
      .cls-1 {
        fill: #fff;
      }

      .cls-1, .cls-2, .cls-3, .cls-4 {
        fill-rule: evenodd;
      }

      .cls-2 {
        fill: #1a87c7;
      }

      .cls-3 {
        fill: #bdedf8;
      }

      .cls-4 {
        fill: #66ceef;
      }
    </style>
  </defs>
  <g id="_Layer_" data-name="&amp;lt;Layer&amp;gt;">
    <g>
      <path class="cls-1" d="M33.8,33.19v-4.77c0-3.81-4.72-5.2-7.96-5.48-.26.56-.55,1.12-.84,1.66l-.08.17c.84,2.02-2.15,4.98-5.24,6.14-2.31.85-4.74.52-6.94-.34-2.36-.91-3.8-2.2-3.56-3.37-1.65,2.11-3.9,3.69-5.69,5.65-1.62,1.81-2.88,3.5-3.14,5.98l-.03.45v3.87c0,1.43.18,1.81,1.73,2.71,12.05,6.95,31.75-9.88,31.75-12.69Z"/>
      <path class="cls-2" d="M8.91,28c-.84,1-1.83,1.89-2.8,2.76-.81.74-1.65,1.5-2.41,2.32-1.47,1.65-2.8,3.34-3.07,5.8v4.29c0,1.32.1,1.59,1.57,2.44,6.71,3.87,15.54-.05,20.17-2.73,6.52-3.77,11.11-8.53,11.11-9.68v-4.77c0-4.09-5.82-4.98-7.47-5.15-.24.5-.5,1-.76,1.48l-.03.05c.21.59.16,1.24-.16,1.96-.73,1.73-2.93,3.56-5.29,4.45-2.12.79-4.53.68-7.18-.34-2.04-.8-3.35-1.83-3.69-2.87h0ZM8.65,47.85c-2.31,0-4.64-.48-6.76-1.71-1.6-.93-1.89-1.38-1.89-2.98l.03-4.33c.29-2.67,1.68-4.44,3.22-6.18.76-.84,1.62-1.61,2.46-2.36,1.13-1.02,2.28-2.07,3.2-3.27.11-.11.26-.15.39-.09.13.06.18.2.16.34-.18.97,1.15,2.16,3.38,3.02,2.49.96,4.74,1.08,6.71.34,2.2-.82,4.3-2.55,4.98-4.12.26-.61.29-1.16.1-1.62-.05-.09-.05-.18,0-.27l.11-.17c.29-.53.55-1.09.84-1.65.05-.11.16-.18.29-.17,3.98.34,8.25,2.04,8.25,5.78l-.03,4.77h0c0,1.65-5.08,6.57-11.4,10.22-3.33,1.91-8.72,4.44-14.04,4.44Z"/>
      <path class="cls-1" d="M33.8,33.19v-4.77c0-3.45-3.85-4.91-7-5.36.31.36.5.84.6,1.34.18.76.16,1.61.03,2.21-.13.53-.31,1.07-.6,1.58-.29.53-.66,1.05-1.1,1.54-.6.69-1.34,1.34-2.15,1.92-1.52,1.08-3.25,1.88-5.14,2.16-.71.11-1.44.14-2.17.1-.73-.04-1.47-.14-2.2-.3-.76-.17-1.52-.41-2.25-.69-.73-.29-1.42-.61-2.02-.97-.6-.36-1.13-.75-1.57-1.16-.47-.44-.84-.9-1.1-1.39-1.21,1.15-2.52,2.23-3.64,3.46-1.62,1.81-2.88,3.5-3.14,5.98l-.03.45v3.87c0,1.43.18,1.81,1.73,2.71,12.05,6.95,31.75-9.88,31.75-12.69Z"/>
      <path class="cls-2" d="M7.05,29.89c-.29.29-.6.58-.94.87-.81.74-1.65,1.5-2.41,2.32-1.47,1.65-2.8,3.34-3.07,5.8v4.29c0,1.32.1,1.59,1.57,2.44,6.71,3.87,15.54-.05,20.17-2.73,6.52-3.77,11.11-8.53,11.11-9.68v-4.77c0-3.32-3.83-4.53-6.05-4.95.13.26.21.55.29.86.16.75.18,1.65.03,2.35-.13.55-.37,1.11-.65,1.66-.29.55-.68,1.08-1.13,1.59-.6.69-1.36,1.37-2.2,1.96-1.68,1.2-3.46,1.94-5.27,2.21-.71.11-1.47.14-2.25.1-.71-.03-1.47-.14-2.23-.31-.76-.17-1.55-.41-2.31-.7-.76-.29-1.44-.63-2.07-.99-.63-.37-1.18-.78-1.62-1.2-.39-.36-.71-.74-.97-1.13h0ZM8.65,47.85c-2.31,0-4.64-.48-6.76-1.71-1.6-.93-1.89-1.38-1.89-2.98l.03-4.33c.29-2.67,1.68-4.44,3.22-6.18.76-.84,1.62-1.61,2.46-2.36.39-.37.81-.74,1.2-1.12.08-.07.18-.09.26-.08.11.01.18.07.21.15.26.46.6.9,1.05,1.31.42.4.92.77,1.52,1.12.6.35,1.26.67,1.99.95.71.28,1.47.51,2.2.68.71.16,1.44.26,2.12.3.73.04,1.47,0,2.15-.1,1.7-.26,3.38-.96,5-2.1.79-.57,1.52-1.21,2.07-1.87.42-.48.79-.98,1.07-1.48.26-.5.47-1.01.58-1.5.13-.61.13-1.4-.03-2.07-.11-.5-.29-.92-.55-1.21-.08-.1-.08-.24-.03-.35.08-.11.18-.18.31-.15,2.18.31,7.26,1.5,7.26,5.67l-.03,4.77h0c0,1.65-5.08,6.57-11.4,10.22-3.33,1.91-8.72,4.44-14.04,4.44Z"/>
      <path class="cls-1" d="M9.17,27.21c.24-.31.97-1.06,1.15-1.39.39-.66.39-.91.47-1.69,3.3,3.84,11.11,6.09,14.12.65h0c.84,2.02-2.15,4.98-5.24,6.14-2.31.85-4.74.52-6.94-.34-2.36-.91-3.8-2.2-3.56-3.37Z"/>
      <path class="cls-2" d="M9.46,27.34c-.11.96,1.2,2.11,3.38,2.95,2.49.96,4.74,1.08,6.71.34,2.2-.82,4.3-2.55,4.98-4.12.13-.31.21-.61.21-.89-1.1,1.54-2.7,2.45-4.66,2.66-3.04.32-6.73-1.11-9.04-3.45-.08.37-.16.66-.42,1.14-.16.24-.47.6-.79.96-.16.15-.29.29-.37.4h0ZM16.82,31.73c-1.31,0-2.73-.29-4.22-.86-2.59-1.01-3.98-2.4-3.72-3.72,0-.05,0-.09.05-.13.08-.12.24-.3.42-.49.26-.3.6-.68.71-.86.31-.53.34-.75.39-1.33l.03-.23c.03-.12.11-.22.21-.26.13-.04.24,0,.31.09,2.17,2.49,5.95,4.06,8.99,3.74,2.07-.21,3.67-1.27,4.64-3.04.05-.1.18-.16.29-.16.13,0,.24.08.26.19.26.62.23,1.33-.1,2.1-.76,1.73-2.93,3.56-5.29,4.45-.94.35-1.91.52-2.96.52Z"/>
      <path class="cls-1" d="M23.06,27.39c1.26-1.21,2.28-3.41,3.25-5.41,1.34-2.74,1.28-5.86,1.28-8.38l-.45-1.49c-.16-.62-.18-1.27-.18-1.9-.03-.82-.03-1.57-.45-1.96-.68-.62-1.76.32-3.01,1.43-.84.75-1.78,1.57-2.78,2.15-1,.58-1.94.83-2.78,1.06h0c-.84.22-1.6.43-2.17.93-.97.79-.92,1.44-.89,2.57,0,1.07.05,2.13-.6,4.41-.05-.58-.21-1.16-.42-1.7-.29-.68-.76-1.38-1.47-1.64-.5-.17-1-.1-1.41.17l-.11.06c-.66.48-.94,1.32-.97,2.11,0,.33.03.65.1.97.18.76.6,1.64.94,2.3.11.21-.03.78-.13,1.1,2.41,2.71,5.87,4.58,8.65,4.57,1.23,0,2.7-.5,3.59-1.37Z"/>
      <path class="cls-2" d="M23.06,27.39h.03-.03ZM11.16,24.11c2.36,2.6,5.69,4.34,8.31,4.34h0c1.23,0,2.59-.52,3.38-1.28,1.13-1.09,2.1-3.04,2.99-4.93l.21-.39c1.23-2.51,1.23-5.44,1.26-7.8v-.4l-.45-1.45c-.18-.67-.18-1.34-.21-1.98,0-.74-.03-1.44-.34-1.74-.47-.43-1.49.47-2.59,1.44-.84.75-1.81,1.59-2.83,2.19-1.05.6-2.02.86-2.88,1.09-.79.22-1.49.41-2.04.87-.79.67-.79,1.16-.79,2.22l.03.28c0,1.04.03,2.12-.6,4.33-.05.14-.18.23-.32.22-.16-.01-.26-.12-.29-.26-.08-.63-.24-1.16-.42-1.62-.24-.54-.63-1.23-1.28-1.47-.39-.13-.79-.08-1.15.14,0,0,0,0-.03.01,0,.01-.03.02-.05.03h0c-.52.38-.84,1.07-.84,1.88,0,.29.03.59.1.9.13.58.42,1.33.89,2.22.13.23.11.62-.05,1.17h0ZM19.47,29.07c-2.83,0-6.39-1.88-8.88-4.68-.05-.08-.08-.19-.05-.3.13-.47.18-.79.16-.86-.5-.94-.84-1.74-1-2.37-.08-.36-.11-.71-.11-1.05.03-1.01.42-1.86,1.13-2.36h0s.05-.05.08-.07h0c.52-.33,1.13-.4,1.7-.2.86.31,1.36,1.16,1.65,1.81.05.16.1.31.18.48.26-1.32.24-2.12.24-2.89v-.28c-.03-1.07-.03-1.84,1-2.7.66-.55,1.44-.77,2.28-.99.86-.23,1.76-.47,2.73-1.03,1-.56,1.86-1.35,2.72-2.11,1.36-1.21,2.54-2.24,3.43-1.43.5.47.52,1.3.52,2.18.03.61.03,1.24.18,1.83l.47,1.48v.53c0,2.42-.03,5.43-1.31,8.07l-.18.39c-.94,1.93-1.91,3.94-3.14,5.1h0c-.92.88-2.41,1.45-3.8,1.46h0Z"/>
      <path class="cls-4" d="M7.76,6.8c-2.2,4.05-.81,15.15,3.01,17.55.08-.2.31-1.01.18-1.27-.34-.65-.76-1.54-.94-2.3-.84-3.66,3.51-5.37,4.27.02.66-2.28.6-3.33.6-4.41-.03-1.13-.08-1.78.89-2.57.58-.5,1.34-.71,2.17-.93h0c.84-.23,1.78-.48,2.78-1.06,1-.58,1.94-1.4,2.78-2.15,1.26-1.11,2.33-2.05,3.01-1.43.42.39.42,1.14.45,1.96,0,.63.03,1.28.18,1.9l.45,1.49c.13-1.97.11-4.26-.18-6.13-.52-3.62-2.15-3.76-6.6-6.12-.71-.38-1.65-1-3.01-1.05-3.38-.1-8.36,3.81-10.03,6.49Z"/>
      <path class="cls-2" d="M8.04,6.96c-2.07,3.81-.86,14.17,2.57,16.9.05-.27.11-.55.08-.63-.5-.94-.84-1.74-1-2.37-.29-1.31.03-2.56.84-3.27.58-.5,1.31-.64,1.97-.4.52.19,1.34.73,1.83,2.28.26-1.32.24-2.11.24-2.89v-.28c-.03-1.07-.03-1.84,1-2.7.66-.55,1.44-.77,2.28-.99.86-.23,1.76-.47,2.73-1.03,1-.56,1.86-1.35,2.72-2.11,1.36-1.21,2.54-2.24,3.43-1.43.5.47.52,1.3.52,2.18.03.48.03.99.1,1.46.03-1.48-.08-2.92-.24-4.14-.42-2.86-1.52-3.41-4.45-4.87-.6-.3-1.26-.63-2.02-1.02l-.29-.17c-.65-.36-1.47-.81-2.59-.84-3.25-.1-8.15,3.77-9.72,6.34h0ZM10.77,24.66c-.05,0-.11-.02-.16-.05-3.96-2.49-5.4-13.75-3.12-17.96h0C9.2,3.93,14.15,0,17.66,0c.03,0,.08,0,.13,0,1.26.04,2.17.55,2.86.92l.29.16c.73.39,1.42.72,2.02,1.02,2.96,1.48,4.3,2.15,4.77,5.33.26,1.78.34,4.04.18,6.19,0,.15-.13.27-.26.29-.16.01-.29-.07-.34-.22l-.45-1.49c-.18-.67-.18-1.34-.21-1.98,0-.74-.03-1.44-.34-1.74-.47-.43-1.49.47-2.59,1.44-.84.75-1.81,1.59-2.83,2.19-1.05.6-2.02.86-2.88,1.09-.79.22-1.49.41-2.04.87-.79.67-.79,1.16-.79,2.22l.03.28c0,1.04.03,2.12-.6,4.33-.05.14-.18.23-.32.22-.16-.01-.26-.12-.29-.26-.24-1.65-.86-2.77-1.68-3.08-.47-.17-.97-.07-1.39.28-.47.44-.92,1.37-.6,2.67.13.58.42,1.33.89,2.22.26.44-.16,1.48-.16,1.52-.05.09-.11.15-.21.18-.03.01-.05.01-.08.01Z"/>
      <path class="cls-1" d="M7.05,8.81c11.14-.88,13-2.7,16.09-6.27,2.73,1.37,3.85,2.03,4.27,4.94.11.75.18,1.57.24,2.42-3.75,7.48-12.71,9.89-19.94,9.4-1.02-3.37-1.28-7.57-.66-10.48Z"/>
      <path class="cls-2" d="M7.94,19c6.65.4,15.64-1.76,19.39-9.17-.05-.83-.1-1.61-.21-2.31-.39-2.65-1.34-3.3-3.9-4.6-3.09,3.54-5.21,5.31-15.9,6.18-.55,2.78-.31,6.69.63,9.9h0ZM9.46,19.66c-.63,0-1.21-.02-1.78-.06-.13,0-.24-.09-.29-.22-1.02-3.43-1.28-7.71-.63-10.64.03-.13.16-.23.29-.24,10.85-.86,12.71-2.51,15.85-6.17.08-.1.24-.14.37-.07,2.75,1.38,4.01,2.13,4.45,5.17.11.74.18,1.57.21,2.45.03.05,0,.1-.03.15-3.56,7.16-11.79,9.63-18.44,9.63Z"/>
      <path class="cls-3" d="M18.34,14.95c-4.98-2.88-2.07-6.45-.03-6.74,1.41-.2,1.07.99,1.78,1,1.07.02,3.28-2.22,3.67-.97.86,2.54-3.51,7.81-5.42,6.71Z"/>
      <path class="cls-2" d="M18.6,8.5c-.05,0-.16,0-.26.02-.94.14-2.15,1.12-2.38,2.38-.18.95.11,2.38,2.54,3.79h0c.5.28,1.28,0,2.2-.74,1.73-1.42,3.3-4.12,2.8-5.6-.05-.13-.11-.15-.13-.16-.26-.1-1,.31-1.52.62-.63.37-1.23.71-1.76.72-.45,0-.66-.34-.79-.58-.16-.25-.26-.45-.71-.45h0ZM18.92,15.41c-.26,0-.52-.06-.73-.19-2.91-1.67-3.04-3.5-2.86-4.44.31-1.56,1.76-2.7,2.93-2.87,1.05-.15,1.36.38,1.57.72.13.23.18.27.29.28h0c.34,0,.92-.34,1.44-.64.76-.44,1.49-.86,2.02-.66.16.06.37.2.5.54.6,1.76-1.1,4.72-2.99,6.28-.81.65-1.55.99-2.17.99Z"/>
      <path class="cls-2" d="M7.34,16.26h0c11.84-.53,15.8-3.54,19.6-9.66-.29-1.18-.79-1.9-1.76-2.58-.6.53-1.13,1.1-1.65,1.71-2.38,2.66-5.08,5.67-16.51,6.26-.03,1.38.08,2.84.31,4.28h0ZM7.36,16.88h-.31c-.13,0-.26-.12-.29-.26-.26-1.65-.39-3.36-.34-4.94,0-.16.13-.29.29-.3,11.4-.54,14.04-3.47,16.35-6.07.6-.68,1.18-1.32,1.89-1.92.1-.09.26-.1.37-.02,1.28.82,1.91,1.72,2.25,3.21.03.08,0,.16-.05.23-3.85,6.25-8.02,9.52-20.15,10.06Z"/>
    </g>
  </g>
</svg>