<?xml version="1.0" encoding="UTF-8"?>
<svg id="Layer_2" data-name="Layer 2" xmlns="http://www.w3.org/2000/svg" viewBox="0 0 29.4 46.67" fill="currentColor">
  <defs>
    <style>
      .cls-1 {
        fill: #fff;
      }

      .cls-1, .cls-2, .cls-3, .cls-4 {
        fill-rule: evenodd;
      }

      .cls-2 {
        fill: #1a87c7;
      }

      .cls-3 {
        fill: #bdedf8;
      }

      .cls-4 {
        fill: #66ceef;
      }
    </style>
  </defs>
  <g id="_Layer_" data-name="&amp;lt;Layer&amp;gt;">
    <g>
      <polygon class="cls-3" points="29.11 2.78 24.81 .31 .31 14.44 4.58 16.91 29.11 2.78"/>
      <path class="cls-2" d="M.92,14.44l3.67,2.11L28.48,2.78l-3.67-2.11L.92,14.44h0ZM4.58,17.22c-.05,0-.11-.02-.16-.04L.16,14.71c-.08-.06-.16-.16-.16-.27s.08-.21.16-.27L24.65.04c.1-.06.21-.06.31,0l4.27,2.47c.11.06.16.16.16.26,0,.11-.05.21-.16.27L4.74,17.18c-.05.03-.11.04-.16.04Z"/>
      <polygon class="cls-4" points="4.58 16.91 .31 14.44 .29 43.89 4.58 46.36 4.58 16.91"/>
      <path class="cls-2" d="M.6,43.71l3.67,2.11v-28.74l-3.64-2.11-.03,28.74h0ZM4.58,46.67c-.05,0-.11-.01-.16-.04L.16,44.16c-.11-.06-.16-.16-.16-.27V14.44c0-.11.08-.21.16-.27.1-.05.21-.05.31,0l4.27,2.47c.11.06.16.16.16.27v29.45c0,.11-.08.21-.16.27-.05.03-.11.04-.16.04Z"/>
      <polygon class="cls-1" points="29.11 2.78 4.58 16.91 4.58 46.36 29.08 32.22 29.11 2.78"/>
      <path class="cls-2" d="M4.9,17.09v28.74l23.87-13.78.03-28.74L4.9,17.09h0ZM4.58,46.67c-.05,0-.11-.01-.16-.04-.1-.05-.16-.15-.16-.26v-29.45c0-.11.08-.21.16-.27L28.95,2.51c.08-.05.21-.05.29,0,.11.06.16.16.16.26v29.45c0,.11-.05.21-.16.27l-24.5,14.13c-.05.03-.11.04-.16.04Z"/>
      <path class="cls-4" d="M26.59,24.46l-.03,5.15c0,.39-.26.87-.6,1.07l-18.26,10.53c-.34.2-.6.04-.6-.36v-9.21l.21-.29c.65-.93,1.57-1.44,2.23-1.25l6.08,1.76c.63.18,1.47-.27,2.15-1.13l4.58-5.9c.71-.88,1.6-1.33,2.2-1.11l2.04.73Z"/>
      <path class="cls-2" d="M7.41,31.74l-.03,9.11c0,.09.03.13.05.13,0,0,.03,0,.11-.04l18.26-10.53c.24-.14.47-.52.47-.8v-4.93l-1.83-.66c-.47-.17-1.26.25-1.83,1.01l-4.61,5.91c-.73.96-1.7,1.45-2.46,1.23l-6.1-1.76c-.5-.15-1.31.33-1.89,1.13l-.13.21h0ZM7.44,41.6c-.13,0-.24-.03-.31-.08-.21-.12-.34-.36-.34-.67v-9.21c0-.06.03-.13.05-.18l.21-.29c.76-1.04,1.78-1.59,2.57-1.36l6.11,1.77c.5.14,1.23-.28,1.81-1.02l4.58-5.9c.79-.99,1.81-1.48,2.54-1.21l2.04.73c.1.05.18.16.18.29v5.15c0,.5-.34,1.09-.76,1.33l-18.26,10.53c-.16.08-.29.13-.42.13Z"/>
      <path class="cls-3" d="M26.59,24.46l-2.04-.73c-.6-.22-1.49.23-2.2,1.11l-4.58,5.9c-.68.86-1.52,1.31-2.15,1.13l-6.08-1.76c-.66-.19-1.57.33-2.23,1.25l-.21.29v-12.79L26.59,7.61v16.85Z"/>
      <path class="cls-2" d="M9.25,29.75c.13,0,.23.02.37.05l6.11,1.76c.5.14,1.23-.27,1.81-1.02l4.58-5.9c.79-.99,1.81-1.48,2.54-1.21l1.62.58v-15.88L7.41,19.03v11.71c.55-.63,1.23-.99,1.83-.99h0ZM15.9,32.21c-.13,0-.24-.02-.37-.05l-6.1-1.76c-.5-.15-1.31.33-1.89,1.13l-.21.29c-.08.11-.21.15-.34.11-.13-.04-.21-.16-.21-.29v-12.79c0-.11.05-.21.16-.27L26.44,7.34c.08-.06.21-.06.31,0,.08.06.16.16.16.27l-.03,16.85c0,.1-.05.19-.13.25-.08.06-.18.07-.26.04l-2.04-.74c-.47-.17-1.26.25-1.83,1.01l-4.61,5.91c-.63.81-1.41,1.28-2.1,1.28Z"/>
      <path class="cls-1" d="M20.96,13.64c1.76-1.01,3.17-.19,3.17,1.83s-1.42,4.47-3.17,5.48c-1.76,1.01-3.17.19-3.17-1.83s1.42-4.47,3.17-5.48Z"/>
      <path class="cls-2" d="M22.37,13.51c-.37,0-.81.13-1.26.39h0c-1.65.96-3.01,3.3-3.01,5.21,0,.86.29,1.5.79,1.78.5.29,1.18.21,1.91-.22,1.65-.96,3.01-3.3,3.01-5.21,0-.86-.26-1.5-.76-1.78-.21-.11-.45-.17-.68-.17h0ZM19.54,21.69c-.34,0-.68-.08-.97-.25-.71-.4-1.07-1.22-1.07-2.32,0-2.11,1.47-4.69,3.3-5.75.94-.54,1.86-.62,2.57-.22.68.4,1.07,1.23,1.07,2.32,0,2.11-1.49,4.69-3.33,5.75-.55.32-1.07.47-1.57.47Z"/>
    </g>
  </g>
</svg>