<?xml version="1.0" encoding="UTF-8"?>
<svg id="Layer_2" data-name="Layer 2" xmlns="http://www.w3.org/2000/svg" viewBox="0 0 35.32 49.22" fill="currentColor">
  <defs>
    <style>
      .cls-1 {
        fill: #fff;
      }

      .cls-1, .cls-2, .cls-3, .cls-4 {
        fill-rule: evenodd;
      }

      .cls-2 {
        fill: #1a87c7;
      }

      .cls-3 {
        fill: #bdedf8;
      }

      .cls-4 {
        fill: #66ceef;
      }
    </style>
  </defs>
  <g id="_Layer_" data-name="&amp;lt;Layer&amp;gt;">
    <g>
      <polygon class="cls-3" points="19.88 30.94 14.49 27.83 14.49 3.99 19.88 7.1 19.88 30.94"/>
      <path class="cls-2" d="M14.79,27.65l4.77,2.76V7.27l-4.77-2.76v23.13h0ZM19.88,31.24c-.06,0-.11-.02-.15-.04l-5.39-3.11c-.1-.06-.16-.16-.16-.27V3.99c0-.11.06-.21.16-.27.09-.06.21-.06.3,0l5.39,3.11c.09.06.15.16.15.26v23.84c0,.11-.06.21-.15.27-.04.03-.1.04-.15.04Z"/>
      <polygon class="cls-3" points="19.88 7.1 14.49 3.99 20.86 .31 26.25 3.42 19.88 7.1"/>
      <path class="cls-2" d="M15.1,3.99l4.78,2.76,5.75-3.32-4.77-2.75-5.76,3.32h0ZM19.88,7.41c-.06,0-.11-.01-.15-.04l-5.39-3.11c-.1-.05-.16-.15-.16-.26s.06-.21.16-.27L20.7.04c.1-.06.21-.06.31,0l5.39,3.11c.1.06.16.16.16.27s-.06.21-.16.27l-6.37,3.68s-.1.04-.15.04Z"/>
      <polygon class="cls-4" points="13.84 34.42 8.45 31.31 8.45 15.77 13.84 18.88 13.84 34.42"/>
      <path class="cls-2" d="M8.76,31.13l4.77,2.76v-14.82l-4.77-2.76v14.82h0ZM13.84,34.73s-.1-.01-.15-.04l-5.39-3.11c-.09-.05-.16-.16-.16-.27v-15.54c0-.11.06-.21.16-.27.1-.06.21-.06.31,0l5.39,3.11c.1.06.16.16.16.26v15.54c0,.11-.06.21-.16.27-.04.03-.09.04-.16.04Z"/>
      <polygon class="cls-4" points="13.84 18.88 8.45 15.77 14.82 12.09 20.21 15.2 13.84 18.88"/>
      <path class="cls-2" d="M9.07,15.77l4.77,2.76,5.76-3.33-4.78-2.75-5.75,3.32h0ZM13.84,19.19s-.1-.01-.15-.04l-5.39-3.11c-.09-.05-.16-.16-.16-.27s.06-.21.16-.27l6.37-3.68c.1-.06.21-.06.3,0l5.39,3.11c.1.06.16.16.16.26,0,.11-.06.22-.16.27l-6.37,3.68s-.09.04-.16.04Z"/>
      <polygon class="cls-4" points="13.84 34.42 13.84 18.88 20.21 15.2 20.21 30.74 13.84 34.42"/>
      <path class="cls-2" d="M14.15,19.06v14.82l5.75-3.32v-14.83l-5.75,3.32h0ZM13.84,34.73s-.1-.01-.15-.04c-.09-.05-.16-.15-.16-.27v-15.54c0-.11.06-.21.16-.26l6.37-3.68c.1-.05.21-.05.3,0,.1.06.16.16.16.26v15.54c0,.11-.06.21-.16.27l-6.37,3.68s-.09.04-.16.04Z"/>
      <polygon class="cls-3" points="19.88 30.94 19.88 7.1 26.25 3.42 26.25 27.26 19.88 30.94"/>
      <path class="cls-2" d="M20.18,7.27v23.13l5.75-3.32V3.95l-5.75,3.32h0ZM19.88,31.24c-.06,0-.11-.02-.15-.04-.1-.05-.16-.16-.16-.27V7.1c0-.11.06-.21.16-.26l6.37-3.68c.1-.05.21-.05.3,0,.1.06.16.16.16.27v23.84c0,.11-.06.21-.16.27l-6.37,3.68s-.1.04-.15.04Z"/>
      <polygon class="cls-1" points="13.84 23.72 8.45 20.61 2.08 24.28 7.47 27.4 13.84 23.72"/>
      <path class="cls-2" d="M2.69,24.28l4.77,2.76,5.76-3.32-4.78-2.76-5.76,3.32h0ZM7.47,27.71c-.05,0-.11-.02-.15-.04l-5.39-3.11c-.1-.06-.16-.16-.16-.27s.06-.21.16-.26l6.37-3.68c.1-.06.21-.06.31,0l5.39,3.11c.1.06.16.16.16.27s-.06.21-.16.27l-6.37,3.68s-.1.04-.16.04Z"/>
      <polygon class="cls-1" points="7.47 27.4 2.08 24.28 2.08 34.99 7.47 38.1 7.47 27.4"/>
      <path class="cls-2" d="M2.39,34.81l4.77,2.76v-9.99l-4.77-2.76v9.99h0ZM7.47,38.4c-.05,0-.11-.01-.15-.04l-5.39-3.11c-.1-.05-.16-.16-.16-.27v-10.7c0-.11.06-.21.16-.26.09-.06.21-.06.3,0l5.39,3.11c.09.06.15.16.15.27v10.7c0,.11-.06.21-.15.26-.04.03-.1.04-.16.04Z"/>
      <polygon class="cls-1" points="13.84 34.42 13.84 23.72 7.47 27.4 7.47 38.1 13.84 34.42"/>
      <path class="cls-2" d="M13.84,34.42h.01-.01ZM7.78,27.57v9.99l5.75-3.32v-9.99l-5.75,3.32h0ZM7.47,38.4c-.05,0-.11-.01-.15-.04-.1-.05-.16-.15-.16-.26v-10.7c0-.11.06-.21.16-.27l6.37-3.68c.1-.05.21-.05.3,0,.1.06.16.16.16.27v10.7c0,.11-.06.21-.16.27l-6.37,3.68s-.1.04-.16.04Z"/>
      <path class="cls-3" d="M32.4,36.27c-3.46,2-9.06,2-12.52,0-3.46-1.99-3.46-5.23,0-7.23,3.45-1.99,9.06-1.99,12.52,0,3.46,2,3.46,5.23,0,7.23Z"/>
      <path class="cls-2" d="M32.4,36.27h0,0ZM26.14,27.85c-2.22,0-4.42.48-6.11,1.46-1.57.91-2.43,2.1-2.43,3.35s.86,2.44,2.43,3.35c3.37,1.94,8.85,1.94,12.21,0h0c1.57-.91,2.44-2.1,2.44-3.35s-.87-2.44-2.44-3.35c-1.68-.97-3.89-1.46-6.1-1.46h0ZM26.14,38.07c-2.32,0-4.65-.51-6.41-1.53-1.77-1.02-2.75-2.4-2.75-3.88s.97-2.86,2.75-3.88c3.54-2.04,9.29-2.04,12.83,0,1.76,1.02,2.75,2.4,2.75,3.88s-.98,2.86-2.75,3.88h0c-1.77,1.02-4.09,1.53-6.42,1.53Z"/>
      <path class="cls-3" d="M35,32.65c0,2.82.41,4.57-2.93,6.31-5.44,2.84-14.7.82-14.8-3.8v-2.51c.18,4.2,6.81,5.44,10.55,5.02,2.71-.3,7.03-1.72,7.17-5.02Z"/>
      <path class="cls-2" d="M17.59,34.66v.51c.03,1.6,1.27,2.67,2.31,3.29,3.22,1.91,8.62,2.02,12.03.24,2.34-1.23,2.72-2.4,2.76-4.09-1.36,2.17-4.7,3.14-6.83,3.37-2.96.33-7.1-.33-9.31-2.22-.4-.34-.72-.71-.96-1.1h0ZM26.14,40.59c-2.37,0-4.75-.54-6.56-1.61-1.68-.99-2.58-2.31-2.61-3.81v-2.52c0-.17.13-.3.3-.31h0c.16,0,.31.13.31.3.03,1.02.5,1.91,1.36,2.65,2.05,1.76,6.09,2.38,8.84,2.07,2.5-.28,6.76-1.59,6.89-4.73.01-.17.15-.3.31-.3h0c.17,0,.3.14.3.31,0,.28,0,.56,0,.83.03,2.38.06,4.11-3.1,5.76-1.73.9-3.9,1.35-6.07,1.35Z"/>
      <path class="cls-3" d="M20.78,29.56c-1.48.85-2.22,1.98-2.22,3.09s.74,2.24,2.22,3.09c1.48.85,3.42,1.28,5.36,1.28s3.87-.42,5.36-1.28c1.48-.85,2.22-1.98,2.22-3.09s-.74-2.24-2.22-3.09c-1.49-.85-3.43-1.28-5.36-1.28s-3.88.43-5.36,1.28h0ZM32.4,36.27c-3.46,2-9.06,2-12.53,0-3.46-2-3.46-5.23,0-7.23,3.46-2,9.06-2,12.53,0,3.46,2,3.46,5.24,0,7.23h0Z"/>
      <path class="cls-2" d="M20.78,29.56h0,0ZM26.14,28.59c-1.97,0-3.82.44-5.2,1.24h0c-1.34.77-2.07,1.77-2.07,2.83s.73,2.06,2.07,2.83c1.38.8,3.23,1.24,5.2,1.24s3.82-.44,5.21-1.24c1.33-.77,2.07-1.77,2.07-2.83s-.74-2.06-2.07-2.83c-1.38-.8-3.23-1.24-5.21-1.24h0ZM26.14,37.33c-2.08,0-4.03-.47-5.51-1.32-1.53-.88-2.37-2.08-2.37-3.36s.84-2.48,2.37-3.36h0c1.48-.85,3.44-1.32,5.51-1.32s4.03.47,5.51,1.32c1.54.89,2.38,2.08,2.38,3.36s-.84,2.48-2.38,3.36c-1.48.85-3.43,1.32-5.51,1.32h0ZM32.4,36.27h0,0ZM26.14,27.84c-2.21,0-4.43.48-6.11,1.46-1.57.91-2.43,2.1-2.43,3.35s.86,2.44,2.43,3.35c3.37,1.94,8.86,1.94,12.22,0h0c1.57-.91,2.44-2.1,2.44-3.35s-.87-2.44-2.44-3.35c-1.69-.97-3.89-1.46-6.11-1.46h0ZM26.14,38.07c-2.32,0-4.65-.51-6.41-1.53-1.77-1.02-2.75-2.4-2.75-3.88s.97-2.86,2.75-3.89c3.54-2.04,9.3-2.04,12.84,0,1.77,1.02,2.75,2.4,2.75,3.89s-.98,2.86-2.75,3.88h0c-1.77,1.02-4.09,1.53-6.42,1.53Z"/>
      <path class="cls-1" d="M32.4,36.27c-3.46,2-9.06,2-12.53,0-3.46-2-3.46-5.23,0-7.23,3.46-2,9.06-2,12.53,0,3.46,2,3.46,5.24,0,7.23Z"/>
      <path class="cls-2" d="M32.4,36.27h0,0ZM26.14,27.84c-2.21,0-4.43.48-6.11,1.46-1.57.91-2.43,2.1-2.43,3.35s.86,2.44,2.43,3.35c3.37,1.94,8.86,1.94,12.22,0h0c1.57-.91,2.44-2.1,2.44-3.35s-.87-2.44-2.44-3.35c-1.69-.97-3.89-1.46-6.11-1.46h0ZM26.14,38.07c-2.32,0-4.65-.51-6.41-1.53-1.77-1.02-2.75-2.4-2.75-3.88s.97-2.86,2.75-3.88c3.54-2.04,9.3-2.04,12.84,0,1.77,1.02,2.75,2.4,2.75,3.89s-.98,2.86-2.75,3.88h0c-1.77,1.02-4.09,1.53-6.42,1.53Z"/>
      <path class="cls-3" d="M20.78,29.56c-1.48.85-2.22,1.98-2.22,3.09s.74,2.24,2.22,3.09c1.48.85,3.42,1.28,5.36,1.28s3.87-.42,5.36-1.28c1.48-.85,2.22-1.98,2.22-3.09s-.74-2.24-2.22-3.09c-1.49-.85-3.43-1.28-5.36-1.28s-3.88.43-5.36,1.28h0ZM32.4,36.27c-3.46,2-9.06,2-12.53,0-3.46-2-3.46-5.23,0-7.23,3.46-2,9.06-2,12.53,0,3.46,2,3.46,5.24,0,7.23h0Z"/>
      <path class="cls-2" d="M20.78,29.56h0,0ZM26.14,28.59c-1.97,0-3.82.44-5.2,1.24h0c-1.34.77-2.07,1.77-2.07,2.83s.73,2.06,2.07,2.83c1.38.8,3.23,1.24,5.2,1.24s3.82-.44,5.21-1.24c1.33-.77,2.07-1.77,2.07-2.83s-.74-2.06-2.07-2.83c-1.38-.8-3.23-1.24-5.21-1.24h0ZM26.14,37.33c-2.08,0-4.03-.47-5.51-1.32-1.53-.88-2.37-2.08-2.37-3.36s.84-2.48,2.37-3.36h0c1.48-.85,3.44-1.32,5.51-1.32s4.03.47,5.51,1.32c1.54.89,2.38,2.08,2.38,3.36s-.84,2.48-2.38,3.36c-1.48.85-3.43,1.32-5.51,1.32h0ZM32.4,36.27h0,0ZM26.14,27.84c-2.21,0-4.43.48-6.11,1.46-1.57.91-2.43,2.1-2.43,3.35s.86,2.44,2.43,3.35c3.37,1.94,8.86,1.94,12.22,0h0c1.57-.91,2.44-2.1,2.44-3.35s-.87-2.44-2.44-3.35c-1.69-.97-3.89-1.46-6.11-1.46h0ZM26.14,38.07c-2.32,0-4.65-.51-6.41-1.53-1.77-1.02-2.75-2.4-2.75-3.88s.97-2.86,2.75-3.89c3.54-2.04,9.3-2.04,12.84,0,1.77,1.02,2.75,2.4,2.75,3.89s-.98,2.86-2.75,3.88h0c-1.77,1.02-4.09,1.53-6.42,1.53Z"/>
      <path class="cls-2" d="M33.71,38.17c-.17,0-.3-.14-.3-.31v-2.37c0-.17.14-.31.3-.31.18,0,.31.14.31.31v2.37c0,.17-.14.31-.31.31Z"/>
      <path class="cls-2" d="M31.79,39.41c-.17,0-.3-.14-.3-.31v-2.25c0-.17.13-.31.3-.31s.3.14.3.31v2.25c0,.17-.13.31-.3.31Z"/>
      <path class="cls-2" d="M29.13,40.29c-.16,0-.3-.14-.3-.31v-2.42c0-.17.14-.31.3-.31s.31.14.31.31v2.42c0,.17-.14.31-.31.31Z"/>
      <path class="cls-2" d="M26.01,40.58c-.17,0-.3-.14-.32-.3l-.02-2.5c0-.17.13-.31.3-.31h0c.17,0,.31.14.31.3l.03,2.5c0,.17-.13.31-.3.31h0Z"/>
      <path class="cls-2" d="M23.03,40.25c-.17,0-.31-.14-.31-.31v-2.45c0-.17.14-.31.31-.31s.31.14.31.31v2.45c0,.17-.14.31-.31.31Z"/>
      <path class="cls-2" d="M20.37,39.36c-.17,0-.31-.14-.31-.31v-2.35c0-.17.14-.31.31-.31s.3.14.3.31v2.35c0,.17-.14.31-.3.31Z"/>
      <path class="cls-2" d="M18.55,38.03c-.16,0-.3-.14-.3-.31v-2.35c0-.17.14-.31.3-.31.17,0,.31.14.31.31v2.35c0,.17-.14.31-.31.31Z"/>
      <path class="cls-2" d="M26.92,35.73c-.11,0-.21-.05-.27-.15-.09-.15-.04-.33.11-.42,1.29-.75,2.4-1.38,3.61-2.03.08-.04.12-.08.12-.09,0,0-.04-.04-.12-.09l-1.72-1c-.16-.09-.66-.15-.92,0-.52.3-1.07.6-1.6.89-.49.27-.96.53-1.38.77-.47.27-1.08.27-1.55,0l-1.6-.93c-.28-.16-.44-.41-.43-.66,0-.15.07-.42.46-.6.99-.48,2.09-1.07,3.33-1.8.15-.09.33-.03.42.11.09.15.04.33-.11.42-1.25.73-2.36,1.32-3.37,1.81-.09.05-.11.08-.11.08,0-.01.03.04.13.09l1.6.93c.27.16.65.16.92,0,.42-.24.9-.51,1.4-.78.53-.29,1.07-.58,1.58-.88.48-.28,1.22-.19,1.55,0l1.72,1c.37.22.42.5.42.64s-.06.41-.44.62c-1.2.65-2.31,1.27-3.6,2.02-.04.03-.1.04-.15.04Z"/>
      <path class="cls-2" d="M30.26,35.36c-.05,0-.11-.01-.16-.04-.95-.55-1.89-1.11-2.81-1.66-1.81-1.07-3.67-2.17-5.54-3.22-.15-.08-.21-.27-.12-.42.09-.15.27-.2.42-.12,1.89,1.05,3.74,2.16,5.55,3.22.92.55,1.86,1.1,2.81,1.66.15.09.19.27.11.42-.05.1-.16.15-.26.15Z"/>
      <path class="cls-3" d="M32.4,33.76c-3.46,2-9.06,2-12.52,0-3.46-2-3.46-5.23,0-7.23,3.45-1.99,9.06-1.99,12.52,0,3.46,2,3.46,5.23,0,7.23Z"/>
      <path class="cls-2" d="M32.4,33.76h0,0ZM26.14,25.35c-2.22,0-4.42.48-6.11,1.46-1.57.91-2.43,2.1-2.43,3.35s.86,2.44,2.43,3.35c3.37,1.94,8.85,1.94,12.21,0h0c1.57-.91,2.44-2.1,2.44-3.35s-.87-2.44-2.44-3.35c-1.68-.97-3.89-1.46-6.1-1.46h0ZM26.14,35.56c-2.32,0-4.65-.51-6.41-1.53-1.77-1.02-2.75-2.4-2.75-3.88s.97-2.86,2.75-3.88c3.54-2.04,9.29-2.04,12.83,0,1.76,1.02,2.75,2.4,2.75,3.88s-.98,2.86-2.75,3.88h0c-1.77,1.02-4.09,1.53-6.42,1.53Z"/>
      <path class="cls-3" d="M35,30.15c0,2.82.41,4.57-2.93,6.31-5.44,2.84-14.7.82-14.8-3.8v-2.51c.18,4.2,6.81,5.44,10.55,5.02,2.71-.3,7.03-1.72,7.17-5.02Z"/>
      <path class="cls-2" d="M17.59,32.15v.51c.03,1.6,1.27,2.67,2.31,3.29,3.22,1.91,8.62,2.01,12.03.23,2.34-1.22,2.72-2.39,2.76-4.08-1.36,2.17-4.7,3.14-6.83,3.37-2.96.33-7.1-.32-9.31-2.22-.4-.34-.72-.71-.96-1.1h0ZM26.14,38.08c-2.37,0-4.75-.54-6.56-1.61-1.68-1-2.58-2.31-2.61-3.81v-2.52c0-.17.13-.3.3-.31h0c.16,0,.31.13.31.3.03,1.02.5,1.91,1.36,2.65,2.05,1.76,6.09,2.38,8.84,2.08,2.5-.28,6.76-1.59,6.89-4.73.01-.16.15-.3.31-.3h0c.17,0,.3.14.3.31,0,.29,0,.56,0,.83.03,2.38.06,4.11-3.1,5.76-1.73.9-3.9,1.35-6.07,1.35Z"/>
      <path class="cls-3" d="M20.78,27.06c-1.48.85-2.22,1.97-2.22,3.09s.74,2.24,2.22,3.1c1.48.85,3.42,1.28,5.36,1.28s3.87-.43,5.36-1.28c1.48-.85,2.22-1.98,2.22-3.1s-.74-2.24-2.22-3.09c-1.49-.86-3.43-1.28-5.36-1.28s-3.88.43-5.36,1.28h0ZM32.4,33.76c-3.46,2-9.06,2-12.53,0-3.46-2-3.46-5.23,0-7.23,3.46-2,9.06-2,12.53,0,3.46,2,3.46,5.24,0,7.23h0Z"/>
      <path class="cls-2" d="M20.94,27.32c-1.34.77-2.07,1.77-2.07,2.83s.73,2.06,2.07,2.83c1.38.8,3.23,1.24,5.2,1.24s3.82-.44,5.21-1.24c1.33-.77,2.07-1.77,2.07-2.83s-.74-2.06-2.07-2.83c-1.38-.8-3.23-1.24-5.2-1.24h0c-1.97,0-3.82.44-5.2,1.24h0ZM26.14,34.83c-2.08,0-4.03-.47-5.51-1.33-1.53-.88-2.37-2.07-2.37-3.36s.84-2.47,2.37-3.36h0c1.48-.85,3.44-1.32,5.51-1.32h0c2.07,0,4.02.47,5.5,1.32,1.54.88,2.38,2.08,2.38,3.36s-.84,2.48-2.38,3.36c-1.48.85-3.43,1.33-5.51,1.33h0ZM32.4,33.76h0,0ZM26.14,25.34c2.22,0,4.42.49,6.11,1.46,1.57.91,2.44,2.1,2.44,3.35s-.87,2.44-2.44,3.35h0c-3.36,1.94-8.85,1.94-12.22,0-1.57-.91-2.43-2.1-2.43-3.35s.86-2.44,2.43-3.35c1.68-.97,3.9-1.46,6.11-1.46h0ZM26.14,35.56c-2.32,0-4.65-.51-6.41-1.53-1.77-1.02-2.75-2.4-2.75-3.88s.97-2.86,2.75-3.88c3.54-2.04,9.3-2.04,12.84,0,1.77,1.02,2.75,2.4,2.75,3.88s-.98,2.86-2.75,3.88h0c-1.77,1.02-4.09,1.53-6.42,1.53Z"/>
      <path class="cls-1" d="M32.4,33.76c-3.46,2-9.06,2-12.53,0-3.46-2-3.46-5.23,0-7.23,3.46-2,9.06-2,12.53,0,3.46,2,3.46,5.24,0,7.23Z"/>
      <path class="cls-2" d="M32.4,33.76h0,0ZM26.14,25.34c-2.21,0-4.43.49-6.11,1.46-1.57.91-2.43,2.1-2.43,3.35s.86,2.44,2.43,3.35c3.37,1.94,8.86,1.94,12.22,0h0c1.57-.91,2.44-2.1,2.44-3.35s-.87-2.44-2.44-3.35c-1.69-.97-3.89-1.46-6.11-1.46h0ZM26.14,35.56c-2.32,0-4.65-.51-6.41-1.53-1.77-1.02-2.75-2.4-2.75-3.88s.97-2.86,2.75-3.88c3.54-2.04,9.3-2.04,12.84,0,1.77,1.02,2.75,2.4,2.75,3.88s-.98,2.86-2.75,3.88h0c-1.77,1.02-4.09,1.53-6.42,1.53Z"/>
      <path class="cls-3" d="M20.78,27.06c-1.48.85-2.22,1.97-2.22,3.09s.74,2.24,2.22,3.1c1.48.85,3.42,1.28,5.36,1.28s3.87-.43,5.36-1.28c1.48-.85,2.22-1.98,2.22-3.1s-.74-2.24-2.22-3.09c-1.49-.86-3.43-1.28-5.36-1.28s-3.88.43-5.36,1.28h0ZM32.4,33.76c-3.46,2-9.06,2-12.53,0-3.46-2-3.46-5.23,0-7.23,3.46-2,9.06-2,12.53,0,3.46,2,3.46,5.24,0,7.23h0Z"/>
      <path class="cls-2" d="M20.94,27.32c-1.34.77-2.07,1.77-2.07,2.83s.73,2.06,2.07,2.83c1.38.8,3.23,1.24,5.2,1.24s3.82-.44,5.21-1.24c1.33-.77,2.07-1.77,2.07-2.83s-.74-2.06-2.07-2.83c-1.38-.8-3.23-1.24-5.2-1.24h0c-1.97,0-3.82.44-5.2,1.24h0ZM26.14,34.83c-2.08,0-4.03-.47-5.51-1.33-1.53-.88-2.37-2.07-2.37-3.36s.84-2.47,2.37-3.36h0c1.48-.85,3.44-1.32,5.51-1.32h0c2.07,0,4.02.47,5.5,1.32,1.54.88,2.38,2.08,2.38,3.36s-.84,2.48-2.38,3.36c-1.48.85-3.43,1.33-5.51,1.33h0ZM32.4,33.76h0,0ZM26.14,25.34c2.22,0,4.42.49,6.11,1.46,1.57.91,2.44,2.1,2.44,3.35s-.87,2.44-2.44,3.35h0c-3.36,1.94-8.85,1.94-12.22,0-1.57-.91-2.43-2.1-2.43-3.35s.86-2.44,2.43-3.35c1.68-.97,3.9-1.46,6.11-1.46h0ZM26.14,35.56c-2.32,0-4.65-.51-6.41-1.53-1.77-1.02-2.75-2.4-2.75-3.88s.97-2.86,2.75-3.88c3.54-2.04,9.3-2.04,12.84,0,1.77,1.02,2.75,2.4,2.75,3.88s-.98,2.86-2.75,3.88h0c-1.77,1.02-4.09,1.53-6.42,1.53Z"/>
      <path class="cls-2" d="M33.71,35.66c-.17,0-.3-.14-.3-.31v-2.37c0-.17.14-.31.3-.31.18,0,.31.14.31.31v2.37c0,.17-.14.31-.31.31Z"/>
      <path class="cls-2" d="M31.79,36.9c-.17,0-.3-.14-.3-.31v-2.25c0-.17.13-.31.3-.31s.3.14.3.31v2.25c0,.17-.13.31-.3.31Z"/>
      <path class="cls-2" d="M29.13,37.78c-.16,0-.3-.14-.3-.31v-2.42c0-.17.14-.31.3-.31s.31.14.31.31v2.42c0,.17-.14.31-.31.31Z"/>
      <path class="cls-2" d="M26.01,38.07c-.17,0-.3-.14-.32-.3l-.02-2.5c0-.17.13-.31.3-.31.13,0,.31.14.31.3l.03,2.5c0,.17-.13.31-.3.31h0Z"/>
      <path class="cls-2" d="M23.03,37.75c-.17,0-.31-.14-.31-.31v-2.45c0-.17.14-.31.31-.31s.31.14.31.31v2.45c0,.17-.14.31-.31.31Z"/>
      <path class="cls-2" d="M20.37,36.86c-.17,0-.31-.14-.31-.31v-2.35c0-.17.14-.31.31-.31s.3.14.3.31v2.35c0,.17-.14.31-.3.31Z"/>
      <path class="cls-2" d="M18.55,35.53c-.16,0-.3-.14-.3-.31v-2.35c0-.17.14-.31.3-.31.17,0,.31.14.31.31v2.35c0,.17-.14.31-.31.31Z"/>
      <path class="cls-2" d="M26.92,33.22c-.11,0-.21-.06-.27-.15-.09-.15-.04-.34.11-.42,1.29-.75,2.41-1.38,3.61-2.03.08-.04.12-.08.12-.09,0,0-.04-.04-.12-.09l-1.72-1c-.16-.09-.66-.16-.92,0-.52.3-1.07.6-1.6.89-.49.27-.96.53-1.38.77-.48.28-1.08.28-1.55,0l-1.6-.93c-.28-.17-.44-.41-.43-.66,0-.14.07-.42.46-.6.99-.48,2.09-1.07,3.33-1.79.15-.09.33-.04.42.11.09.15.04.33-.11.42-1.25.73-2.36,1.33-3.37,1.82-.09.05-.11.08-.11.08,0,0,.03.04.13.09l1.6.93c.27.16.65.16.92,0,.42-.24.9-.51,1.4-.78.53-.29,1.07-.59,1.58-.88.48-.28,1.22-.19,1.55,0l1.72,1c.37.22.42.5.42.64s-.06.41-.44.62c-1.2.65-2.3,1.27-3.6,2.02-.04.03-.1.04-.15.04Z"/>
      <path class="cls-2" d="M30.26,32.86c-.05,0-.11-.01-.16-.04-.95-.55-1.89-1.11-2.81-1.66-1.81-1.07-3.67-2.17-5.54-3.21-.15-.08-.21-.27-.12-.42.09-.15.27-.2.42-.12,1.89,1.05,3.74,2.15,5.55,3.22.92.55,1.86,1.1,2.81,1.65.15.09.19.27.11.42-.05.1-.16.15-.26.15Z"/>
      <path class="cls-3" d="M32.4,31.26c-3.46,2-9.06,2-12.52,0-3.46-1.99-3.46-5.23,0-7.23,3.45-2,9.06-2,12.52,0,3.46,2,3.46,5.23,0,7.23Z"/>
      <path class="cls-2" d="M26.14,22.84c-2.22,0-4.42.48-6.11,1.46-1.57.91-2.43,2.1-2.43,3.35s.86,2.44,2.43,3.35c3.37,1.94,8.85,1.94,12.21,0,1.57-.91,2.44-2.1,2.44-3.35s-.87-2.44-2.44-3.35c-1.68-.97-3.89-1.46-6.1-1.46h0ZM26.14,33.06c-2.32,0-4.65-.51-6.41-1.53-1.77-1.02-2.75-2.4-2.75-3.88s.97-2.86,2.75-3.88c3.54-2.04,9.29-2.04,12.83,0,1.76,1.02,2.75,2.4,2.75,3.88s-.98,2.86-2.75,3.88c-1.77,1.02-4.09,1.53-6.42,1.53Z"/>
      <path class="cls-3" d="M35,27.64c0,2.82.41,4.57-2.93,6.31-5.44,2.84-14.7.82-14.8-3.8v-2.51c.18,4.2,6.81,5.44,10.55,5.02,2.71-.3,7.03-1.73,7.17-5.02Z"/>
      <path class="cls-2" d="M17.59,29.65v.51c.03,1.6,1.27,2.67,2.3,3.29,3.23,1.91,8.63,2.02,12.04.24,2.34-1.22,2.72-2.39,2.76-4.08-1.36,2.17-4.7,3.14-6.83,3.37-2.96.33-7.1-.32-9.31-2.22-.4-.34-.72-.71-.96-1.1h0ZM26.14,35.58c-2.37,0-4.75-.54-6.56-1.61-1.68-1-2.58-2.31-2.61-3.81v-2.52c0-.17.13-.3.3-.31h0c.16,0,.31.13.31.29.03,1.02.5,1.91,1.36,2.65,2.05,1.76,6.09,2.38,8.84,2.07,2.5-.28,6.76-1.59,6.89-4.73.01-.16.15-.29.31-.29h0c.17,0,.3.14.3.31,0,.29,0,.56,0,.83.03,2.38.06,4.1-3.1,5.75-1.73.9-3.9,1.35-6.07,1.35Z"/>
      <path class="cls-3" d="M20.78,24.55c-1.48.85-2.22,1.97-2.22,3.09s.74,2.24,2.22,3.09c1.48.85,3.42,1.28,5.36,1.28s3.87-.43,5.36-1.28c1.48-.85,2.22-1.97,2.22-3.09s-.74-2.24-2.22-3.09c-1.49-.85-3.43-1.28-5.36-1.28s-3.88.43-5.36,1.28h0ZM32.4,31.26c-3.46,2-9.06,2-12.53,0-3.46-2-3.46-5.24,0-7.23,3.46-2,9.06-2,12.53,0,3.46,2,3.46,5.23,0,7.23h0Z"/>
      <path class="cls-2" d="M20.94,24.82c-1.34.77-2.07,1.77-2.07,2.83s.73,2.06,2.07,2.83c1.38.8,3.23,1.24,5.2,1.24s3.82-.44,5.21-1.24c1.33-.77,2.07-1.77,2.07-2.83s-.74-2.06-2.07-2.83c-1.38-.8-3.23-1.24-5.2-1.24h0c-1.97,0-3.82.44-5.2,1.24h0ZM26.14,32.32c-2.08,0-4.03-.47-5.51-1.32-1.53-.89-2.37-2.08-2.37-3.36s.84-2.48,2.37-3.36h0c1.48-.85,3.44-1.32,5.51-1.32h0c2.07,0,4.02.47,5.5,1.32,1.54.89,2.38,2.08,2.38,3.36s-.84,2.48-2.38,3.36c-1.48.85-3.43,1.32-5.51,1.32h0ZM32.4,31.26h0,0ZM26.14,22.84c2.22,0,4.42.48,6.11,1.46,1.57.91,2.44,2.1,2.44,3.35s-.87,2.44-2.44,3.35c-3.36,1.94-8.85,1.94-12.22,0-1.57-.91-2.43-2.1-2.43-3.35s.86-2.44,2.43-3.35c1.68-.97,3.9-1.46,6.11-1.46h0ZM26.14,33.06c-2.32,0-4.65-.51-6.41-1.53-1.77-1.02-2.75-2.4-2.75-3.88s.97-2.86,2.75-3.88c3.54-2.04,9.3-2.04,12.84,0,1.77,1.02,2.75,2.4,2.75,3.88s-.98,2.86-2.75,3.88h0c-1.77,1.02-4.09,1.53-6.42,1.53Z"/>
      <path class="cls-1" d="M32.4,31.26c-3.46,2-9.06,2-12.53,0-3.46-2-3.46-5.24,0-7.23,3.46-2,9.06-2,12.53,0,3.46,2,3.46,5.23,0,7.23Z"/>
      <path class="cls-2" d="M26.14,22.84c-2.21,0-4.43.48-6.11,1.46-1.57.91-2.43,2.1-2.43,3.35s.86,2.44,2.43,3.35c3.37,1.94,8.86,1.94,12.22,0,1.57-.91,2.44-2.1,2.44-3.35s-.87-2.44-2.44-3.35c-1.69-.97-3.89-1.46-6.11-1.46h0ZM26.14,33.06c-2.32,0-4.65-.51-6.41-1.53-1.77-1.02-2.75-2.4-2.75-3.88s.97-2.86,2.75-3.88c3.54-2.04,9.3-2.04,12.84,0,1.77,1.02,2.75,2.4,2.75,3.88s-.98,2.86-2.75,3.88c-1.77,1.02-4.09,1.53-6.42,1.53Z"/>
      <path class="cls-3" d="M20.78,24.55c-1.48.85-2.22,1.97-2.22,3.09s.74,2.24,2.22,3.09c1.48.85,3.42,1.28,5.36,1.28s3.87-.43,5.36-1.28c1.48-.85,2.22-1.97,2.22-3.09s-.74-2.24-2.22-3.09c-1.49-.85-3.43-1.28-5.36-1.28s-3.88.43-5.36,1.28h0ZM32.4,31.26c-3.46,2-9.06,2-12.53,0-3.46-2-3.46-5.24,0-7.23,3.46-2,9.06-2,12.53,0,3.46,2,3.46,5.23,0,7.23h0Z"/>
      <path class="cls-2" d="M20.94,24.82c-1.34.77-2.07,1.77-2.07,2.83s.73,2.06,2.07,2.83c1.38.8,3.23,1.24,5.2,1.24s3.82-.44,5.21-1.24c1.33-.77,2.07-1.77,2.07-2.83s-.74-2.06-2.07-2.83c-1.38-.8-3.23-1.24-5.2-1.24h0c-1.97,0-3.82.44-5.2,1.24h0ZM26.14,32.32c-2.08,0-4.03-.47-5.51-1.32-1.53-.89-2.37-2.08-2.37-3.36s.84-2.48,2.37-3.36h0c1.48-.85,3.44-1.32,5.51-1.32h0c2.07,0,4.02.47,5.5,1.32,1.54.89,2.38,2.08,2.38,3.36s-.84,2.48-2.38,3.36c-1.48.85-3.43,1.32-5.51,1.32h0ZM32.4,31.26h0,0ZM26.14,22.84c2.22,0,4.42.48,6.11,1.46,1.57.91,2.44,2.1,2.44,3.35s-.87,2.44-2.44,3.35c-3.36,1.94-8.85,1.94-12.22,0-1.57-.91-2.43-2.1-2.43-3.35s.86-2.44,2.43-3.35c1.68-.97,3.9-1.46,6.11-1.46h0ZM26.14,33.06c-2.32,0-4.65-.51-6.41-1.53-1.77-1.02-2.75-2.4-2.75-3.88s.97-2.86,2.75-3.88c3.54-2.04,9.3-2.04,12.84,0,1.77,1.02,2.75,2.4,2.75,3.88s-.98,2.86-2.75,3.88h0c-1.77,1.02-4.09,1.53-6.42,1.53Z"/>
      <path class="cls-2" d="M33.71,33.16c-.17,0-.3-.14-.3-.31v-2.37c0-.17.14-.31.3-.31.18,0,.31.14.31.31v2.37c0,.17-.14.31-.31.31Z"/>
      <path class="cls-2" d="M31.79,34.4c-.17,0-.3-.14-.3-.31v-2.25c0-.17.13-.31.3-.31s.3.14.3.31v2.25c0,.17-.13.31-.3.31Z"/>
      <path class="cls-2" d="M29.13,35.28c-.16,0-.3-.14-.3-.31v-2.42c0-.17.14-.31.3-.31s.31.14.31.31v2.42c0,.17-.14.31-.31.31Z"/>
      <path class="cls-2" d="M26.01,35.57c-.17,0-.3-.14-.32-.3l-.02-2.51c0-.17.13-.31.3-.31h0c.17,0,.31.14.31.3l.03,2.51c0,.17-.13.31-.3.31h0Z"/>
      <path class="cls-2" d="M23.03,35.24c-.17,0-.31-.14-.31-.31v-2.45c0-.17.14-.31.31-.31s.31.14.31.31v2.45c0,.17-.14.31-.31.31Z"/>
      <path class="cls-2" d="M20.37,34.35c-.17,0-.31-.14-.31-.31v-2.35c0-.17.14-.31.31-.31s.3.14.3.31v2.35c0,.17-.14.31-.3.31Z"/>
      <path class="cls-2" d="M18.55,33.02c-.16,0-.3-.14-.3-.31v-2.35c0-.17.14-.31.3-.31.17,0,.31.14.31.31v2.35c0,.17-.14.31-.31.31Z"/>
      <path class="cls-2" d="M26.92,30.72c-.11,0-.21-.06-.27-.16-.09-.15-.04-.34.11-.42,1.29-.75,2.41-1.38,3.61-2.03.08-.04.12-.08.12-.09,0,0-.04-.04-.12-.09l-1.72-1c-.16-.09-.66-.15-.92,0-.52.3-1.07.6-1.6.89-.49.27-.96.53-1.38.77-.48.28-1.08.28-1.55,0l-1.6-.93c-.28-.17-.44-.41-.43-.66,0-.14.07-.41.46-.6.99-.48,2.09-1.07,3.33-1.79.15-.09.33-.04.42.11.09.15.04.34-.11.42-1.25.73-2.36,1.33-3.37,1.82-.09.05-.11.08-.11.09,0-.01.03.04.13.09l1.6.93c.27.16.65.16.92,0,.42-.24.9-.5,1.4-.78.53-.28,1.07-.58,1.58-.88.48-.28,1.22-.19,1.55,0l1.72,1c.37.22.42.5.42.64s-.06.41-.44.62c-1.2.65-2.3,1.27-3.6,2.02-.04.03-.1.04-.15.04Z"/>
      <path class="cls-2" d="M30.26,30.35c-.05,0-.11-.01-.16-.04-.95-.55-1.89-1.11-2.81-1.66-1.81-1.07-3.67-2.17-5.54-3.21-.15-.08-.21-.27-.12-.42.09-.15.27-.2.42-.12,1.89,1.05,3.74,2.16,5.55,3.22.92.55,1.86,1.1,2.81,1.66.15.08.19.28.11.42-.05.1-.16.15-.26.15Z"/>
      <path class="cls-3" d="M32.4,28.76c-3.46,1.99-9.06,1.99-12.52,0-3.46-2-3.46-5.24,0-7.23,3.45-1.99,9.06-1.99,12.52,0,3.46,2,3.46,5.23,0,7.23Z"/>
      <path class="cls-2" d="M26.14,20.34c-2.22,0-4.42.48-6.11,1.46-1.57.91-2.43,2.1-2.43,3.35s.86,2.44,2.43,3.35c3.37,1.94,8.85,1.94,12.21,0,1.57-.91,2.44-2.1,2.44-3.35s-.87-2.44-2.44-3.35c-1.68-.97-3.89-1.46-6.1-1.46h0ZM26.14,30.55c-2.32,0-4.65-.51-6.41-1.53-1.77-1.02-2.75-2.4-2.75-3.88s.97-2.86,2.75-3.88c3.54-2.04,9.29-2.04,12.83,0,1.76,1.02,2.75,2.4,2.75,3.88s-.98,2.86-2.75,3.88c-1.77,1.02-4.09,1.53-6.42,1.53Z"/>
      <path class="cls-3" d="M35,25.14c0,2.82.41,4.57-2.93,6.31-5.44,2.84-14.7.82-14.8-3.8v-2.51c.18,4.2,6.81,5.44,10.55,5.02,2.71-.3,7.03-1.73,7.17-5.02Z"/>
      <path class="cls-2" d="M17.59,27.14v.51c.03,1.6,1.27,2.67,2.31,3.29,3.22,1.91,8.62,2.01,12.03.24,2.34-1.22,2.72-2.4,2.76-4.08-1.36,2.16-4.7,3.13-6.83,3.37-2.96.33-7.1-.32-9.31-2.22-.4-.34-.72-.71-.96-1.1h0ZM26.14,33.08c-2.37,0-4.75-.54-6.56-1.61-1.68-.99-2.58-2.31-2.61-3.81v-2.52c0-.17.13-.3.3-.31h0c.16,0,.31.13.31.3.03,1.02.5,1.91,1.36,2.65,2.05,1.76,6.09,2.38,8.84,2.07,2.5-.28,6.76-1.59,6.89-4.73.01-.17.15-.3.31-.3h0c.17,0,.3.14.3.31,0,.29,0,.56,0,.83.03,2.38.06,4.11-3.1,5.76-1.73.9-3.9,1.35-6.07,1.35Z"/>
      <path class="cls-3" d="M20.78,22.04c-1.48.86-2.22,1.98-2.22,3.09s.74,2.24,2.22,3.09c1.48.85,3.42,1.28,5.36,1.28s3.87-.43,5.36-1.28c1.48-.85,2.22-1.97,2.22-3.09s-.74-2.24-2.22-3.09c-1.49-.85-3.43-1.28-5.36-1.28s-3.88.43-5.36,1.28h0ZM32.4,28.76c-3.46,2-9.06,2-12.53,0-3.46-2-3.46-5.24,0-7.23,3.46-2,9.06-2,12.53,0,3.46,2,3.46,5.23,0,7.23h0Z"/>
      <path class="cls-2" d="M20.94,22.31c-1.34.77-2.07,1.77-2.07,2.83s.73,2.06,2.07,2.83c1.38.8,3.23,1.24,5.2,1.24s3.82-.44,5.21-1.24c1.33-.77,2.07-1.77,2.07-2.83s-.74-2.06-2.07-2.83c-1.38-.8-3.23-1.24-5.2-1.24h0c-1.97,0-3.82.44-5.2,1.24h0ZM26.14,29.82c-2.08,0-4.03-.47-5.51-1.33-1.53-.88-2.37-2.07-2.37-3.36s.84-2.48,2.37-3.36h0c1.48-.85,3.44-1.32,5.51-1.32h0c2.07,0,4.02.47,5.5,1.32,1.54.89,2.38,2.08,2.38,3.36s-.84,2.48-2.38,3.36c-1.48.85-3.43,1.32-5.51,1.32h0ZM32.4,28.76h0,0ZM26.14,20.33c2.22,0,4.42.48,6.11,1.46,1.57.91,2.44,2.1,2.44,3.35s-.87,2.44-2.44,3.35c-3.36,1.94-8.85,1.94-12.22,0-1.57-.91-2.43-2.1-2.43-3.35s.86-2.44,2.43-3.35c1.68-.98,3.9-1.46,6.11-1.46h0ZM26.14,30.55c-2.32,0-4.65-.51-6.41-1.53-1.77-1.02-2.75-2.4-2.75-3.88s.97-2.86,2.75-3.88c3.54-2.04,9.3-2.04,12.84,0,1.77,1.02,2.75,2.4,2.75,3.88s-.98,2.86-2.75,3.88h0c-1.77,1.02-4.09,1.53-6.42,1.53Z"/>
      <path class="cls-1" d="M32.4,28.76c-3.46,2-9.06,2-12.53,0-3.46-2-3.46-5.24,0-7.23,3.46-2,9.06-2,12.53,0,3.46,2,3.46,5.23,0,7.23Z"/>
      <path class="cls-2" d="M26.14,20.33c-2.21,0-4.43.48-6.11,1.46-1.57.91-2.43,2.1-2.43,3.35s.86,2.44,2.43,3.35c3.37,1.94,8.86,1.94,12.22,0,1.57-.91,2.44-2.1,2.44-3.35s-.87-2.44-2.44-3.35c-1.69-.98-3.89-1.46-6.11-1.46h0ZM26.14,30.55c-2.32,0-4.65-.51-6.41-1.53-1.77-1.02-2.75-2.4-2.75-3.88s.97-2.86,2.75-3.88c3.54-2.04,9.3-2.04,12.84,0,1.77,1.02,2.75,2.4,2.75,3.88s-.98,2.86-2.75,3.88c-1.77,1.02-4.09,1.53-6.42,1.53Z"/>
      <path class="cls-3" d="M20.78,22.04c-1.48.86-2.22,1.98-2.22,3.09s.74,2.24,2.22,3.09c1.48.85,3.42,1.28,5.36,1.28s3.87-.43,5.36-1.28c1.48-.85,2.22-1.97,2.22-3.09s-.74-2.24-2.22-3.09c-1.49-.85-3.43-1.28-5.36-1.28s-3.88.43-5.36,1.28h0ZM32.4,28.76c-3.46,2-9.06,2-12.53,0-3.46-2-3.46-5.24,0-7.23,3.46-2,9.06-2,12.53,0,3.46,2,3.46,5.23,0,7.23h0Z"/>
      <path class="cls-2" d="M20.94,22.31c-1.34.77-2.07,1.77-2.07,2.83s.73,2.06,2.07,2.83c1.38.8,3.23,1.24,5.2,1.24s3.82-.44,5.21-1.24c1.33-.77,2.07-1.77,2.07-2.83s-.74-2.06-2.07-2.83c-1.38-.8-3.23-1.24-5.2-1.24h0c-1.97,0-3.82.44-5.2,1.24h0ZM26.14,29.82c-2.08,0-4.03-.47-5.51-1.33-1.53-.88-2.37-2.07-2.37-3.36s.84-2.48,2.37-3.36h0c1.48-.85,3.44-1.32,5.51-1.32h0c2.07,0,4.02.47,5.5,1.32,1.54.89,2.38,2.08,2.38,3.36s-.84,2.48-2.38,3.36c-1.48.85-3.43,1.32-5.51,1.32h0ZM32.4,28.76h0,0ZM26.14,20.33c2.22,0,4.42.48,6.11,1.46,1.57.91,2.44,2.1,2.44,3.35s-.87,2.44-2.44,3.35c-3.36,1.94-8.85,1.94-12.22,0-1.57-.91-2.43-2.1-2.43-3.35s.86-2.44,2.43-3.35c1.68-.98,3.9-1.46,6.11-1.46h0ZM26.14,30.55c-2.32,0-4.65-.51-6.41-1.53-1.77-1.02-2.75-2.4-2.75-3.88s.97-2.86,2.75-3.88c3.54-2.04,9.3-2.04,12.84,0,1.77,1.02,2.75,2.4,2.75,3.88s-.98,2.86-2.75,3.88h0c-1.77,1.02-4.09,1.53-6.42,1.53Z"/>
      <path class="cls-2" d="M33.71,30.66c-.17,0-.3-.14-.3-.31v-2.37c0-.17.14-.31.3-.31.18,0,.31.14.31.31v2.37c0,.17-.14.31-.31.31Z"/>
      <path class="cls-2" d="M31.79,31.9c-.17,0-.3-.14-.3-.31v-2.25c0-.17.13-.31.3-.31s.3.14.3.31v2.25c0,.17-.13.31-.3.31Z"/>
      <path class="cls-2" d="M29.13,32.78c-.16,0-.3-.14-.3-.31v-2.42c0-.17.14-.31.3-.31s.31.14.31.31v2.42c0,.17-.14.31-.31.31Z"/>
      <path class="cls-2" d="M26.01,33.06c-.17,0-.3-.13-.32-.3l-.02-2.5c0-.17.13-.31.3-.31h0c.17,0,.31.14.31.31l.03,2.5c0,.17-.13.31-.3.31h0Z"/>
      <path class="cls-2" d="M23.03,32.74c-.17,0-.31-.14-.31-.31v-2.45c0-.17.14-.31.31-.31s.31.14.31.31v2.45c0,.17-.14.31-.31.31Z"/>
      <path class="cls-2" d="M20.37,31.85c-.17,0-.31-.14-.31-.31v-2.35c0-.17.14-.31.31-.31s.3.14.3.31v2.35c0,.17-.14.31-.3.31Z"/>
      <path class="cls-2" d="M18.55,30.52c-.16,0-.3-.14-.3-.31v-2.35c0-.17.14-.31.3-.31.17,0,.31.14.31.31v2.35c0,.17-.14.31-.31.31Z"/>
      <path class="cls-2" d="M26.92,28.21c-.11,0-.21-.05-.27-.15-.09-.15-.04-.34.11-.42,1.29-.75,2.41-1.38,3.61-2.02.08-.04.12-.08.12-.09,0,0-.04-.04-.12-.09l-1.72-1c-.16-.09-.66-.15-.92,0-.52.3-1.07.6-1.61.89-.49.27-.96.52-1.37.77-.47.27-1.08.27-1.55,0l-1.6-.93c-.28-.17-.44-.41-.43-.66,0-.15.07-.42.46-.6.99-.48,2.08-1.07,3.33-1.8.15-.09.33-.03.42.11.09.15.04.33-.11.42-1.26.73-2.36,1.33-3.37,1.82-.09.04-.11.08-.11.08,0-.01.03.04.13.09l1.6.93c.27.16.65.16.92,0,.42-.24.9-.51,1.39-.78.53-.29,1.08-.58,1.59-.88.48-.28,1.22-.19,1.55,0l1.72,1c.37.22.42.5.42.64s-.06.41-.44.62c-1.2.64-2.3,1.27-3.6,2.02-.04.03-.1.04-.15.04Z"/>
      <path class="cls-2" d="M30.26,27.85c-.05,0-.11-.01-.16-.04-.96-.56-1.89-1.11-2.83-1.66-1.79-1.06-3.65-2.16-5.52-3.21-.15-.08-.21-.27-.12-.42.09-.15.27-.2.42-.12,1.88,1.05,3.74,2.15,5.54,3.22.94.55,1.87,1.11,2.82,1.66.15.09.19.28.11.42-.05.1-.16.15-.26.15Z"/>
      <path class="cls-3" d="M32.4,26.25c-3.46,2-9.06,2-12.52,0-3.46-2-3.46-5.23,0-7.23,3.45-2,9.06-2,12.52,0,3.46,2,3.46,5.23,0,7.23Z"/>
      <path class="cls-2" d="M26.14,17.83c-2.22,0-4.42.49-6.11,1.46-1.57.91-2.43,2.1-2.43,3.35s.86,2.44,2.43,3.35c3.37,1.94,8.85,1.94,12.21,0,1.57-.91,2.44-2.1,2.44-3.35s-.87-2.44-2.44-3.35c-1.68-.97-3.89-1.46-6.1-1.46h0ZM26.14,28.05c-2.32,0-4.65-.51-6.41-1.53-1.77-1.02-2.75-2.4-2.75-3.88s.97-2.86,2.75-3.88c3.54-2.04,9.29-2.04,12.83,0,1.76,1.02,2.75,2.4,2.75,3.88s-.98,2.86-2.75,3.88c-1.77,1.02-4.09,1.53-6.42,1.53Z"/>
      <path class="cls-3" d="M35,22.63c0,2.82.41,4.57-2.93,6.31-5.44,2.84-14.7.82-14.8-3.8v-2.51c.18,4.2,6.81,5.44,10.55,5.02,2.71-.3,7.03-1.72,7.17-5.02Z"/>
      <path class="cls-2" d="M17.59,24.64v.51c.03,1.6,1.27,2.67,2.31,3.29,3.22,1.91,8.62,2.02,12.03.24,2.34-1.22,2.72-2.4,2.76-4.08-1.36,2.17-4.7,3.13-6.83,3.37-2.96.33-7.1-.32-9.31-2.22-.4-.34-.72-.71-.96-1.1h0ZM26.14,30.57c-2.37,0-4.75-.54-6.56-1.61-1.68-.99-2.58-2.31-2.61-3.81v-2.52c0-.17.13-.3.3-.31h0c.16,0,.31.13.31.3.03,1.02.5,1.91,1.36,2.65,2.05,1.76,6.09,2.38,8.84,2.07,2.5-.28,6.76-1.59,6.89-4.73.01-.17.15-.3.31-.3h0c.17,0,.3.14.3.31,0,.29,0,.56,0,.83.03,2.38.06,4.1-3.1,5.76-1.73.91-3.9,1.35-6.07,1.35Z"/>
      <path class="cls-3" d="M20.78,19.54c-1.48.85-2.22,1.97-2.22,3.09s.74,2.24,2.22,3.09c1.48.85,3.42,1.28,5.36,1.28s3.87-.43,5.36-1.28c1.48-.85,2.22-1.98,2.22-3.09s-.74-2.24-2.22-3.09c-1.49-.85-3.43-1.28-5.36-1.28s-3.88.43-5.36,1.28h0ZM32.4,26.25c-3.46,2-9.06,2-12.53,0-3.46-2-3.46-5.24,0-7.23,3.46-2,9.06-2,12.53,0,3.46,2,3.46,5.24,0,7.23h0Z"/>
      <path class="cls-2" d="M20.94,19.81c-1.34.77-2.07,1.77-2.07,2.83s.73,2.06,2.07,2.83c1.38.8,3.23,1.24,5.2,1.24s3.82-.44,5.21-1.24c1.33-.77,2.07-1.77,2.07-2.83s-.74-2.06-2.07-2.83c-1.38-.8-3.23-1.24-5.2-1.24h0c-1.97,0-3.82.44-5.2,1.24h0ZM26.14,27.32c-2.08,0-4.03-.47-5.51-1.33-1.53-.88-2.37-2.07-2.37-3.36s.84-2.48,2.37-3.36h0c1.48-.85,3.44-1.32,5.51-1.32h0c2.07,0,4.02.47,5.5,1.32,1.54.88,2.38,2.08,2.38,3.36s-.84,2.48-2.38,3.36c-1.48.85-3.43,1.32-5.51,1.32h0ZM32.4,26.25h0,0ZM26.14,17.83c2.22,0,4.42.49,6.11,1.46,1.57.91,2.44,2.1,2.44,3.35s-.87,2.44-2.44,3.35c-3.36,1.94-8.85,1.94-12.22,0-1.57-.91-2.43-2.1-2.43-3.35s.86-2.44,2.43-3.35c1.68-.97,3.9-1.46,6.11-1.46h0ZM26.14,28.05c-2.32,0-4.65-.51-6.41-1.53-1.77-1.02-2.75-2.4-2.75-3.89s.97-2.86,2.75-3.88c3.54-2.04,9.3-2.04,12.84,0,1.77,1.02,2.75,2.4,2.75,3.88s-.98,2.86-2.75,3.88h0c-1.77,1.02-4.09,1.53-6.42,1.53Z"/>
      <path class="cls-1" d="M32.4,26.25c-3.46,2-9.06,2-12.53,0-3.46-2-3.46-5.24,0-7.23,3.46-2,9.06-2,12.53,0,3.46,2,3.46,5.24,0,7.23Z"/>
      <path class="cls-2" d="M26.14,17.83c-2.21,0-4.43.49-6.11,1.46-1.57.91-2.43,2.1-2.43,3.35s.86,2.44,2.43,3.35c3.37,1.94,8.86,1.94,12.22,0,1.57-.91,2.44-2.1,2.44-3.35s-.87-2.44-2.44-3.35c-1.69-.97-3.89-1.46-6.11-1.46h0ZM26.14,28.05c-2.32,0-4.65-.51-6.41-1.53-1.77-1.02-2.75-2.4-2.75-3.89s.97-2.86,2.75-3.88c3.54-2.04,9.3-2.04,12.84,0,1.77,1.02,2.75,2.4,2.75,3.88s-.98,2.86-2.75,3.89c-1.77,1.02-4.09,1.53-6.42,1.53Z"/>
      <path class="cls-3" d="M20.78,19.54c-1.48.85-2.22,1.97-2.22,3.09s.74,2.24,2.22,3.09c1.48.85,3.42,1.28,5.36,1.28s3.87-.43,5.36-1.28c1.48-.85,2.22-1.98,2.22-3.09s-.74-2.24-2.22-3.09c-1.49-.85-3.43-1.28-5.36-1.28s-3.88.43-5.36,1.28h0ZM32.4,26.25c-3.46,2-9.06,2-12.53,0-3.46-2-3.46-5.24,0-7.23,3.46-2,9.06-2,12.53,0,3.46,2,3.46,5.24,0,7.23h0Z"/>
      <path class="cls-2" d="M20.94,19.81c-1.34.77-2.07,1.77-2.07,2.83s.73,2.06,2.07,2.83c1.38.8,3.23,1.24,5.2,1.24s3.82-.44,5.21-1.24c1.33-.77,2.07-1.77,2.07-2.83s-.74-2.06-2.07-2.83c-1.38-.8-3.23-1.24-5.2-1.24h0c-1.97,0-3.82.44-5.2,1.24h0ZM26.14,27.32c-2.08,0-4.03-.47-5.51-1.33-1.53-.88-2.37-2.07-2.37-3.36s.84-2.48,2.37-3.36h0c1.48-.85,3.44-1.32,5.51-1.32h0c2.07,0,4.02.47,5.5,1.32,1.54.88,2.38,2.08,2.38,3.36s-.84,2.48-2.38,3.36c-1.48.85-3.43,1.32-5.51,1.32h0ZM32.4,26.25h0,0ZM26.14,17.83c2.22,0,4.42.49,6.11,1.46,1.57.91,2.44,2.1,2.44,3.35s-.87,2.44-2.44,3.35c-3.36,1.94-8.85,1.94-12.22,0-1.57-.91-2.43-2.1-2.43-3.35s.86-2.44,2.43-3.35c1.68-.97,3.9-1.46,6.11-1.46h0ZM26.14,28.05c-2.32,0-4.65-.51-6.41-1.53-1.77-1.02-2.75-2.4-2.75-3.89s.97-2.86,2.75-3.88c3.54-2.04,9.3-2.04,12.84,0,1.77,1.02,2.75,2.4,2.75,3.88s-.98,2.86-2.75,3.88h0c-1.77,1.02-4.09,1.53-6.42,1.53Z"/>
      <path class="cls-2" d="M33.71,28.15c-.17,0-.3-.14-.3-.31v-2.37c0-.17.14-.31.3-.31.18,0,.31.14.31.31v2.37c0,.17-.14.31-.31.31Z"/>
      <path class="cls-2" d="M31.79,29.39c-.17,0-.3-.14-.3-.31v-2.25c0-.17.13-.31.3-.31s.3.14.3.31v2.25c0,.17-.13.31-.3.31Z"/>
      <path class="cls-2" d="M29.13,30.27c-.16,0-.3-.14-.3-.31v-2.42c0-.17.14-.31.3-.31s.31.14.31.31v2.42c0,.17-.14.31-.31.31Z"/>
      <path class="cls-2" d="M26.01,30.56c-.17,0-.3-.14-.32-.31l-.02-2.5c0-.17.13-.31.3-.31.13,0,.31.14.31.3l.03,2.51c0,.17-.13.31-.3.31h0Z"/>
      <path class="cls-2" d="M23.03,30.23c-.17,0-.31-.14-.31-.31v-2.45c0-.17.14-.31.31-.31s.31.14.31.31v2.45c0,.17-.14.31-.31.31Z"/>
      <path class="cls-2" d="M20.37,29.34c-.17,0-.31-.14-.31-.31v-2.35c0-.17.14-.31.31-.31s.3.14.3.31v2.35c0,.17-.14.31-.3.31Z"/>
      <path class="cls-2" d="M18.55,28.01c-.16,0-.3-.14-.3-.31v-2.35c0-.17.14-.31.3-.31.17,0,.31.14.31.31v2.35c0,.17-.14.31-.31.31Z"/>
      <path class="cls-2" d="M26.92,25.71c-.11,0-.21-.06-.27-.15-.09-.15-.04-.33.11-.42,1.29-.75,2.41-1.38,3.61-2.02.08-.04.12-.08.12-.09,0,0-.04-.04-.12-.09l-1.72-1c-.16-.09-.65-.15-.92,0-.52.3-1.07.6-1.61.89-.49.27-.96.53-1.37.77-.47.27-1.08.27-1.55,0l-1.6-.93c-.28-.17-.44-.41-.43-.66,0-.14.07-.42.46-.6.99-.48,2.08-1.07,3.33-1.79.15-.09.33-.04.42.11.09.15.04.34-.11.42-1.26.73-2.36,1.33-3.37,1.82-.09.04-.11.08-.11.08,0-.01.03.04.13.09l1.6.93c.27.16.65.16.92,0,.42-.24.9-.5,1.39-.77.53-.29,1.08-.59,1.59-.89.48-.28,1.22-.19,1.55,0l1.72,1c.37.22.42.5.42.64s-.06.41-.44.62c-1.2.64-2.3,1.27-3.6,2.01-.04.03-.1.04-.15.04Z"/>
      <path class="cls-2" d="M30.26,25.34c-.05,0-.11-.01-.16-.04-.96-.56-1.89-1.11-2.83-1.66-1.79-1.07-3.65-2.17-5.52-3.21-.15-.08-.21-.27-.12-.42.09-.15.27-.2.42-.12,1.88,1.05,3.74,2.15,5.54,3.21.94.55,1.87,1.11,2.82,1.66.15.09.19.27.11.42-.05.1-.16.15-.26.15Z"/>
      <path class="cls-3" d="M15.43,42.46c-3.46,2-9.07,2-12.52,0-3.46-1.99-3.46-5.23,0-7.23,3.45-2,9.05-2,12.52,0,3.46,2,3.46,5.23,0,7.23Z"/>
      <path class="cls-2" d="M15.43,42.46h0,0ZM9.17,34.04c-2.22,0-4.42.48-6.11,1.46-1.57.91-2.43,2.1-2.43,3.35s.86,2.44,2.43,3.35c3.37,1.94,8.85,1.94,12.21,0,1.57-.91,2.44-2.1,2.44-3.35s-.87-2.44-2.44-3.35c-1.68-.97-3.89-1.46-6.1-1.46h0ZM9.17,44.25c-2.32,0-4.65-.51-6.41-1.53C.98,41.7,0,40.32,0,38.84s.97-2.86,2.75-3.88c3.54-2.04,9.29-2.04,12.83,0,1.77,1.02,2.75,2.4,2.75,3.88s-.97,2.86-2.75,3.88h0c-1.77,1.02-4.09,1.53-6.41,1.53Z"/>
      <path class="cls-3" d="M18.03,38.84c0,2.82.41,4.57-2.93,6.31-5.44,2.84-14.7.82-14.8-3.8v-2.51c.18,4.2,6.81,5.44,10.55,5.02,2.71-.3,7.03-1.72,7.17-5.02Z"/>
      <path class="cls-2" d="M.62,40.84v.51c.03,1.6,1.27,2.67,2.31,3.29,3.22,1.91,8.62,2.02,12.03.24,2.34-1.23,2.73-2.4,2.77-4.09-1.37,2.17-4.7,3.14-6.84,3.37-2.96.33-7.1-.32-9.31-2.22-.4-.34-.72-.71-.96-1.1h0ZM9.17,46.78c-2.37,0-4.76-.54-6.56-1.61-1.68-1-2.58-2.31-2.61-3.81v-2.52c0-.17.13-.3.3-.31h0c.16,0,.3.13.31.3.03,1.02.5,1.91,1.36,2.65,2.05,1.76,6.09,2.39,8.84,2.08,2.5-.28,6.76-1.59,6.89-4.73,0-.17.15-.3.31-.3h0c.17,0,.3.14.3.31,0,.29,0,.56,0,.83.03,2.38.06,4.1-3.1,5.76-1.73.9-3.89,1.35-6.07,1.35Z"/>
      <path class="cls-3" d="M3.81,35.75c-1.48.85-2.22,1.98-2.22,3.09s.74,2.24,2.22,3.09c1.48.86,3.42,1.28,5.35,1.28s3.89-.43,5.36-1.28c1.48-.85,2.22-1.97,2.22-3.09s-.74-2.24-2.22-3.09c-1.48-.85-3.42-1.28-5.36-1.28s-3.88.43-5.35,1.28h0ZM15.43,42.46c-3.46,2-9.07,2-12.53,0-3.46-2-3.46-5.23,0-7.23,3.46-2,9.06-2,12.53,0,3.46,2,3.46,5.23,0,7.23h0Z"/>
      <path class="cls-2" d="M3.96,36.01c-1.34.77-2.07,1.77-2.07,2.83s.73,2.06,2.07,2.83c1.38.8,3.23,1.24,5.2,1.24s3.82-.44,5.21-1.24c1.33-.77,2.07-1.77,2.07-2.83s-.74-2.06-2.07-2.83c-1.38-.8-3.23-1.24-5.21-1.24s-3.82.44-5.2,1.24h0ZM9.16,43.52c-2.08,0-4.03-.47-5.51-1.32-1.53-.88-2.37-2.08-2.37-3.36s.84-2.48,2.37-3.36h0c1.48-.85,3.44-1.33,5.51-1.33s4.03.47,5.51,1.32c1.54.89,2.38,2.08,2.38,3.36s-.84,2.48-2.38,3.36c-1.47.85-3.43,1.32-5.51,1.32h0ZM15.43,42.46h0,0ZM9.16,34.03c2.22,0,4.43.48,6.11,1.46,1.57.91,2.44,2.1,2.44,3.35s-.87,2.44-2.44,3.35c-3.36,1.95-8.85,1.95-12.22,0-1.57-.91-2.43-2.1-2.43-3.35s.86-2.44,2.43-3.35c1.68-.97,3.9-1.46,6.11-1.46h0ZM9.16,44.26c-2.32,0-4.64-.51-6.42-1.53-1.77-1.02-2.75-2.4-2.75-3.88s.98-2.86,2.75-3.88c3.54-2.04,9.3-2.04,12.84,0,1.77,1.02,2.75,2.4,2.75,3.88s-.97,2.86-2.75,3.88h0c-1.77,1.02-4.09,1.53-6.42,1.53Z"/>
      <path class="cls-1" d="M15.43,42.46c-3.46,2-9.07,2-12.53,0-3.46-2-3.46-5.23,0-7.23,3.46-2,9.06-2,12.53,0,3.46,2,3.46,5.23,0,7.23Z"/>
      <path class="cls-2" d="M15.43,42.46h0,0ZM9.16,34.03c-2.21,0-4.42.48-6.11,1.46-1.57.91-2.43,2.1-2.43,3.35s.86,2.44,2.43,3.35c3.37,1.95,8.86,1.95,12.22,0,1.57-.91,2.44-2.1,2.44-3.35s-.87-2.44-2.44-3.35c-1.68-.97-3.89-1.46-6.11-1.46h0ZM9.16,44.26c-2.32,0-4.64-.51-6.42-1.53-1.77-1.02-2.75-2.4-2.75-3.88s.98-2.86,2.75-3.88c3.54-2.04,9.3-2.04,12.84,0,1.77,1.02,2.75,2.4,2.75,3.88s-.97,2.86-2.75,3.88h0c-1.77,1.02-4.09,1.53-6.42,1.53Z"/>
      <path class="cls-3" d="M3.81,35.75c-1.48.85-2.22,1.98-2.22,3.09s.74,2.24,2.22,3.09c1.48.86,3.42,1.28,5.35,1.28s3.89-.43,5.36-1.28c1.48-.85,2.22-1.97,2.22-3.09s-.74-2.24-2.22-3.09c-1.48-.85-3.42-1.28-5.36-1.28s-3.88.43-5.35,1.28h0ZM15.43,42.46c-3.46,2-9.07,2-12.53,0-3.46-2-3.46-5.23,0-7.23,3.46-2,9.06-2,12.53,0,3.46,2,3.46,5.23,0,7.23h0Z"/>
      <path class="cls-2" d="M3.96,36.01c-1.34.77-2.07,1.77-2.07,2.83s.73,2.06,2.07,2.83c1.38.8,3.23,1.24,5.2,1.24s3.82-.44,5.21-1.24c1.33-.77,2.07-1.77,2.07-2.83s-.74-2.06-2.07-2.83c-1.38-.8-3.23-1.24-5.21-1.24s-3.82.44-5.2,1.24h0ZM9.16,43.52c-2.08,0-4.03-.47-5.51-1.32-1.53-.88-2.37-2.08-2.37-3.36s.84-2.48,2.37-3.36h0c1.48-.85,3.44-1.33,5.51-1.33s4.03.47,5.51,1.32c1.54.89,2.38,2.08,2.38,3.36s-.84,2.48-2.38,3.36c-1.47.85-3.43,1.32-5.51,1.32h0ZM15.43,42.46h0,0ZM9.16,34.03c2.22,0,4.43.48,6.11,1.46,1.57.91,2.44,2.1,2.44,3.35s-.87,2.44-2.44,3.35c-3.36,1.95-8.85,1.95-12.22,0-1.57-.91-2.43-2.1-2.43-3.35s.86-2.44,2.43-3.35c1.68-.97,3.9-1.46,6.11-1.46h0ZM9.16,44.26c-2.32,0-4.64-.51-6.42-1.53-1.77-1.02-2.75-2.4-2.75-3.88s.98-2.86,2.75-3.88c3.54-2.04,9.3-2.04,12.84,0,1.77,1.02,2.75,2.4,2.75,3.88s-.97,2.86-2.75,3.88h0c-1.77,1.02-4.09,1.53-6.42,1.53Z"/>
      <path class="cls-2" d="M16.73,44.36c-.16,0-.3-.14-.3-.31v-2.37c0-.17.14-.31.3-.31.18,0,.31.14.31.31v2.37c0,.17-.14.31-.31.31Z"/>
      <path class="cls-2" d="M14.82,45.6c-.16,0-.3-.14-.3-.31v-2.25c0-.17.14-.31.3-.31.18,0,.32.14.32.31v2.25c0,.17-.14.31-.32.31Z"/>
      <path class="cls-2" d="M12.15,46.48c-.17,0-.3-.14-.3-.31v-2.42c0-.17.14-.31.3-.31s.31.14.31.31v2.42c0,.17-.14.31-.31.31Z"/>
      <path class="cls-2" d="M9.03,46.77c-.17,0-.3-.14-.31-.3l-.03-2.5c0-.17.13-.31.31-.31h0c.17,0,.31.14.31.3l.03,2.5c0,.17-.13.31-.3.31h0Z"/>
      <path class="cls-2" d="M6.06,46.44c-.17,0-.3-.14-.3-.31v-2.45c0-.17.14-.31.3-.31.18,0,.31.14.31.31v2.45c0,.17-.14.31-.31.31Z"/>
      <path class="cls-2" d="M3.4,45.55c-.17,0-.31-.14-.31-.31v-2.35c0-.17.14-.31.31-.31s.31.14.31.31v2.35c0,.17-.14.31-.31.31Z"/>
      <path class="cls-2" d="M1.58,44.22c-.18,0-.31-.14-.31-.31v-2.35c0-.17.14-.31.31-.31.17,0,.3.14.3.31v2.35c0,.17-.14.31-.3.31Z"/>
      <path class="cls-2" d="M9.94,41.92c-.1,0-.21-.05-.27-.15-.09-.15-.03-.33.12-.42,1.29-.75,2.41-1.38,3.61-2.02.08-.04.11-.08.12-.09-.01,0-.04-.04-.12-.09l-1.72-1c-.16-.09-.66-.15-.92,0-.52.3-1.07.6-1.6.89-.49.27-.97.53-1.38.77-.47.27-1.08.27-1.55,0l-1.6-.93c-.28-.17-.44-.41-.42-.66,0-.15.07-.42.46-.6.99-.49,2.09-1.07,3.33-1.8.15-.09.33-.04.42.11.09.15.03.33-.11.42-1.25.73-2.36,1.33-3.37,1.82-.09.05-.11.08-.11.08,0-.01.03.04.13.09l1.6.93c.27.16.64.16.92,0,.43-.24.91-.51,1.4-.78.53-.29,1.07-.58,1.58-.88.48-.28,1.23-.19,1.55,0l1.72,1c.37.22.42.5.42.64s-.06.41-.44.62c-1.2.65-2.3,1.27-3.59,2.02-.05.03-.11.04-.16.04Z"/>
      <path class="cls-2" d="M13.28,41.55c-.05,0-.1-.02-.15-.04-.96-.56-1.9-1.11-2.83-1.67-1.8-1.06-3.65-2.16-5.52-3.2-.15-.08-.21-.27-.12-.42.09-.15.27-.2.42-.12,1.88,1.05,3.74,2.15,5.54,3.21.93.55,1.87,1.11,2.83,1.66.14.09.19.28.1.42-.05.1-.16.15-.26.15Z"/>
      <path class="cls-3" d="M17.19,38.71c-3.45,2-9.06,2-12.52,0-3.46-2-3.46-5.23,0-7.23,3.46-2,9.06-2,12.52,0,3.46,2,3.46,5.23,0,7.23Z"/>
      <path class="cls-2" d="M17.19,38.71h0,0ZM10.94,30.29c-2.21,0-4.43.49-6.1,1.46-1.57.91-2.44,2.1-2.44,3.35s.87,2.44,2.44,3.35c3.36,1.94,8.84,1.94,12.21,0h0c1.56-.91,2.43-2.1,2.43-3.35s-.87-2.44-2.43-3.35c-1.69-.97-3.9-1.46-6.11-1.46h0ZM10.94,40.5c-2.32,0-4.64-.51-6.42-1.53-1.77-1.02-2.74-2.4-2.74-3.88s.97-2.86,2.74-3.88c3.54-2.04,9.29-2.04,12.83,0,1.77,1.02,2.75,2.4,2.75,3.88s-.97,2.86-2.75,3.88h0c-1.77,1.02-4.09,1.53-6.41,1.53Z"/>
      <path class="cls-3" d="M19.79,35.09c0,2.82.41,4.57-2.93,6.31-5.44,2.84-14.7.82-14.79-3.8v-2.51c.17,4.2,6.8,5.44,10.55,5.02,2.71-.3,7.03-1.72,7.17-5.02Z"/>
      <path class="cls-2" d="M2.38,37.09v.51c.03,1.6,1.28,2.67,2.31,3.29,3.22,1.91,8.62,2.02,12.03.24,2.34-1.22,2.73-2.4,2.77-4.08-1.36,2.17-4.7,3.13-6.84,3.37-2.94.33-7.1-.33-9.31-2.22-.39-.34-.72-.71-.96-1.1h0ZM10.94,43.02c-2.37,0-4.76-.54-6.56-1.61-1.68-.99-2.58-2.31-2.61-3.81v-2.52c0-.17.13-.3.3-.31h0c.17,0,.3.13.31.29.04,1.02.5,1.91,1.37,2.65,2.05,1.76,6.08,2.38,8.84,2.07,2.5-.28,6.76-1.59,6.89-4.73,0-.17.15-.29.31-.29h0c.17,0,.3.14.3.31,0,.29,0,.56,0,.83.04,2.38.07,4.1-3.09,5.75-1.74.91-3.9,1.35-6.07,1.35Z"/>
      <path class="cls-3" d="M5.57,32c-1.48.85-2.22,1.97-2.22,3.09s.74,2.24,2.22,3.09c1.48.85,3.42,1.28,5.36,1.28s3.87-.43,5.35-1.28c1.48-.85,2.22-1.97,2.22-3.09s-.74-2.24-2.22-3.09c-1.48-.85-3.42-1.28-5.35-1.28-1.94,0-3.89.43-5.36,1.28h0ZM17.19,38.71c-3.46,2-9.07,2-12.53,0-3.46-2-3.46-5.24,0-7.23,3.46-2,9.07-2,12.53,0,3.46,2,3.46,5.24,0,7.23h0Z"/>
      <path class="cls-2" d="M5.73,32.26c-1.33.77-2.07,1.77-2.07,2.83s.74,2.06,2.07,2.83c1.38.8,3.24,1.24,5.21,1.24s3.81-.44,5.2-1.24c1.34-.77,2.07-1.77,2.07-2.83s-.73-2.06-2.07-2.83c-1.38-.8-3.23-1.24-5.2-1.24h0c-1.97,0-3.83.44-5.21,1.24h0ZM10.94,39.77c-2.08,0-4.04-.47-5.51-1.32-1.54-.88-2.38-2.08-2.38-3.36s.84-2.48,2.38-3.36h0c1.47-.85,3.43-1.32,5.51-1.32h0c2.07,0,4.03.47,5.51,1.32,1.53.88,2.37,2.08,2.37,3.36s-.84,2.48-2.37,3.36c-1.48.85-3.44,1.32-5.51,1.32h0ZM17.19,38.71h0,0ZM10.94,30.28c2.21,0,4.42.49,6.11,1.46,1.57.91,2.43,2.1,2.43,3.35s-.86,2.44-2.43,3.35h0c-3.37,1.94-8.86,1.94-12.22,0-1.57-.91-2.44-2.1-2.44-3.35s.87-2.44,2.44-3.35c1.68-.97,3.9-1.46,6.11-1.46h0ZM10.94,40.5c-2.33,0-4.65-.51-6.42-1.53-1.77-1.02-2.75-2.4-2.75-3.89s.97-2.86,2.75-3.88c3.54-2.04,9.3-2.04,12.84,0,1.77,1.02,2.75,2.4,2.75,3.88s-.97,2.86-2.75,3.89h0c-1.77,1.02-4.09,1.53-6.41,1.53Z"/>
      <path class="cls-1" d="M17.19,38.71c-3.46,2-9.07,2-12.53,0-3.46-2-3.46-5.24,0-7.23,3.46-2,9.07-2,12.53,0,3.46,2,3.46,5.24,0,7.23Z"/>
      <path class="cls-2" d="M17.19,38.71h0,0ZM10.94,30.28c-2.22,0-4.43.49-6.11,1.46-1.57.91-2.44,2.1-2.44,3.35s.87,2.44,2.44,3.35c3.36,1.94,8.85,1.94,12.22,0h0c1.57-.91,2.43-2.1,2.43-3.35s-.86-2.44-2.43-3.35c-1.69-.97-3.9-1.46-6.11-1.46h0ZM10.94,40.5c-2.33,0-4.65-.51-6.42-1.53-1.77-1.02-2.75-2.4-2.75-3.89s.97-2.86,2.75-3.88c3.54-2.04,9.3-2.04,12.84,0,1.77,1.02,2.75,2.4,2.75,3.88s-.97,2.86-2.75,3.89h0c-1.77,1.02-4.09,1.53-6.41,1.53Z"/>
      <path class="cls-3" d="M5.57,32c-1.48.85-2.22,1.97-2.22,3.09s.74,2.24,2.22,3.09c1.48.85,3.42,1.28,5.36,1.28s3.87-.43,5.35-1.28c1.48-.85,2.22-1.97,2.22-3.09s-.74-2.24-2.22-3.09c-1.48-.85-3.42-1.28-5.35-1.28-1.94,0-3.89.43-5.36,1.28h0ZM17.19,38.71c-3.46,2-9.07,2-12.53,0-3.46-2-3.46-5.24,0-7.23,3.46-2,9.07-2,12.53,0,3.46,2,3.46,5.24,0,7.23h0Z"/>
      <path class="cls-2" d="M5.73,32.26c-1.33.77-2.07,1.77-2.07,2.83s.74,2.06,2.07,2.83c1.38.8,3.24,1.24,5.21,1.24s3.81-.44,5.2-1.24c1.34-.77,2.07-1.77,2.07-2.83s-.73-2.06-2.07-2.83c-1.38-.8-3.23-1.24-5.2-1.24h0c-1.97,0-3.83.44-5.21,1.24h0ZM10.94,39.77c-2.08,0-4.04-.47-5.51-1.32-1.54-.88-2.38-2.08-2.38-3.36s.84-2.48,2.38-3.36h0c1.47-.85,3.43-1.32,5.51-1.32h0c2.07,0,4.03.47,5.51,1.32,1.53.88,2.37,2.08,2.37,3.36s-.84,2.48-2.37,3.36c-1.48.85-3.44,1.32-5.51,1.32h0ZM17.19,38.71h0,0ZM10.94,30.28c2.21,0,4.42.49,6.11,1.46,1.57.91,2.43,2.1,2.43,3.35s-.86,2.44-2.43,3.35h0c-3.37,1.94-8.86,1.94-12.22,0-1.57-.91-2.44-2.1-2.44-3.35s.87-2.44,2.44-3.35c1.68-.97,3.9-1.46,6.11-1.46h0ZM10.94,40.5c-2.33,0-4.65-.51-6.42-1.53-1.77-1.02-2.75-2.4-2.75-3.89s.97-2.86,2.75-3.88c3.54-2.04,9.3-2.04,12.84,0,1.77,1.02,2.75,2.4,2.75,3.88s-.97,2.86-2.75,3.89h0c-1.77,1.02-4.09,1.53-6.41,1.53Z"/>
      <path class="cls-2" d="M18.5,40.61c-.17,0-.3-.14-.3-.31v-2.37c0-.17.14-.31.3-.31s.31.14.31.31v2.37c0,.17-.14.31-.31.31Z"/>
      <path class="cls-2" d="M16.58,41.85c-.17,0-.3-.14-.3-.31v-2.25c0-.17.14-.31.3-.31s.31.14.31.31v2.25c0,.17-.14.31-.31.31Z"/>
      <path class="cls-2" d="M13.93,42.73c-.18,0-.32-.14-.32-.31v-2.42c0-.17.14-.31.32-.31.16,0,.3.14.3.31v2.42c0,.17-.14.31-.3.31Z"/>
      <path class="cls-2" d="M10.8,43.02c-.17,0-.31-.14-.31-.3l-.03-2.5c0-.17.14-.31.3-.31h0c.17,0,.3.13.3.3l.04,2.5c0,.17-.14.31-.31.31h0Z"/>
      <path class="cls-2" d="M7.82,42.69c-.17,0-.3-.14-.3-.31v-2.45c0-.17.14-.31.3-.31s.31.14.31.31v2.45c0,.17-.14.31-.31.31Z"/>
      <path class="cls-2" d="M5.16,41.8c-.18,0-.31-.14-.31-.31v-2.35c0-.17.14-.31.31-.31.16,0,.3.14.3.31v2.35c0,.17-.14.31-.3.31Z"/>
      <path class="cls-2" d="M3.35,40.47c-.17,0-.31-.14-.31-.31v-2.35c0-.17.14-.31.31-.31s.31.14.31.31v2.35c0,.17-.14.31-.31.31Z"/>
      <path class="cls-2" d="M11.71,38.16c-.11,0-.21-.05-.27-.15-.08-.15-.03-.34.11-.42,1.29-.75,2.41-1.38,3.61-2.03.09-.04.11-.08.12-.09,0,0-.03-.04-.12-.09l-1.72-1c-.16-.09-.65-.15-.92,0-.51.3-1.06.6-1.59.89-.5.27-.97.53-1.39.77-.47.27-1.08.27-1.55,0l-1.59-.93c-.29-.17-.45-.41-.44-.66,0-.14.07-.41.46-.6,1-.48,2.09-1.07,3.33-1.79.15-.09.34-.04.43.11.08.15.03.33-.11.42-1.26.73-2.37,1.32-3.37,1.82-.1.04-.12.08-.12.08,0-.01.05.04.13.09l1.6.93c.28.16.65.16.93,0,.42-.24.9-.51,1.4-.78.52-.29,1.07-.58,1.57-.88.49-.28,1.23-.19,1.55,0l1.72,1c.38.22.44.5.43.64,0,.14-.06.41-.44.62-1.2.64-2.31,1.27-3.59,2.01-.05.03-.1.04-.15.04Z"/>
      <path class="cls-2" d="M15.05,37.8c-.05,0-.11-.01-.16-.04-.95-.55-1.88-1.1-2.81-1.66-1.8-1.07-3.66-2.17-5.54-3.21-.15-.08-.2-.27-.12-.42.09-.15.27-.2.42-.12,1.88,1.05,3.75,2.15,5.55,3.22.93.55,1.86,1.1,2.81,1.65.15.09.19.28.11.42-.06.1-.17.15-.27.15Z"/>
      <path class="cls-3" d="M17.15,44.44c0-3.99,2.81-8.85,6.26-10.84,3.46-2,6.27-.38,6.27,3.62s-2.81,8.84-6.27,10.84c-3.45,2-6.26.38-6.26-3.61Z"/>
      <path class="cls-2" d="M26.21,33.05c-.8,0-1.7.27-2.64.81-3.36,1.94-6.1,6.69-6.1,10.58,0,1.82.59,3.16,1.68,3.79,1.08.62,2.55.47,4.12-.44,3.36-1.94,6.1-6.69,6.1-10.57,0-1.82-.6-3.16-1.68-3.79-.43-.25-.94-.38-1.48-.38h0ZM20.62,49.22c-.65,0-1.25-.15-1.79-.46-1.28-.74-1.98-2.28-1.98-4.32,0-4.08,2.88-9.07,6.41-11.11,1.76-1.02,3.45-1.18,4.73-.44,1.29.74,1.99,2.27,1.99,4.32,0,4.08-2.88,9.07-6.41,11.11-1.04.6-2.04.9-2.95.9Z"/>
      <path class="cls-3" d="M18.98,48.49c-2.44-1.41-4.17-1.93-4-5.69.26-6.13,6.63-13.14,10.68-10.91l2.17,1.26c-3.72-1.95-8.11,3.17-9.62,6.63-1.1,2.5-2.02,6.95.76,8.72Z"/>
      <path class="cls-2" d="M23.99,31.78c-.91,0-1.8.36-2.48.74-3.27,1.84-6.06,6.46-6.23,10.3-.11,2.64.72,3.56,2.16,4.44-1.2-2.26-.36-5.64.5-7.61,1.19-2.72,3.83-5.99,6.57-6.95.5-.17.97-.27,1.44-.29l-.44-.26c-.5-.27-1.01-.38-1.52-.38h0ZM18.98,48.8c-.05,0-.1-.01-.16-.04-.24-.14-.49-.28-.72-.41-2.08-1.16-3.58-2-3.43-5.56.17-4.1,3.05-8.85,6.54-10.81,1.7-.96,3.29-1.08,4.61-.36l2.18,1.26c.15.08.2.26.11.41-.08.15-.26.2-.41.12-.9-.47-1.9-.52-2.98-.14-2.55.9-5.11,4.08-6.21,6.62-1.01,2.3-2.01,6.65.64,8.33.14.09.18.28.1.42-.05.1-.16.15-.26.15Z"/>
      <path class="cls-3" d="M28.77,37.73c0-1.71-.6-2.91-1.56-3.47-.98-.56-2.31-.48-3.79.37-1.48.85-2.82,2.32-3.79,4-.97,1.68-1.57,3.57-1.57,5.28s.6,2.91,1.57,3.47c.96.56,2.31.48,3.79-.37,1.48-.85,2.82-2.32,3.79-4,.96-1.68,1.56-3.57,1.56-5.28h0ZM17.15,44.44c0-4,2.81-8.85,6.26-10.85,3.46-1.99,6.27-.38,6.27,3.62s-2.81,8.85-6.27,10.85c-3.46,2-6.26.38-6.26-3.62h0Z"/>
      <path class="cls-2" d="M28.77,37.73h0,0ZM25.81,34.21c-.68,0-1.44.23-2.23.69-1.39.8-2.69,2.18-3.68,3.89-.99,1.71-1.53,3.53-1.53,5.13s.5,2.68,1.42,3.2c.91.53,2.15.39,3.48-.37,1.39-.8,2.69-2.18,3.68-3.89.98-1.7,1.53-3.52,1.53-5.12s-.51-2.68-1.42-3.2c-.36-.21-.78-.32-1.24-.32h0ZM21.02,48.05c-.56,0-1.09-.13-1.55-.4-1.11-.64-1.72-1.97-1.72-3.74s.57-3.64,1.61-5.44c1.04-1.8,2.43-3.26,3.9-4.11,1.53-.88,2.99-1.02,4.09-.37,1.11.64,1.73,1.97,1.73,3.74h0c0,1.71-.58,3.64-1.62,5.43-1.03,1.8-2.42,3.26-3.89,4.11-.9.51-1.76.78-2.55.78h0ZM26.22,33.04c-.81,0-1.71.28-2.64.82-3.37,1.94-6.11,6.69-6.11,10.58,0,1.82.59,3.16,1.68,3.79,1.09.63,2.55.47,4.12-.44,3.37-1.94,6.11-6.69,6.11-10.58,0-1.82-.6-3.16-1.68-3.79-.44-.25-.94-.38-1.48-.38h0ZM20.62,49.22c-.65,0-1.25-.15-1.79-.46-1.28-.74-1.98-2.27-1.98-4.32,0-4.09,2.88-9.08,6.41-11.12,1.77-1.03,3.46-1.18,4.74-.44,1.29.74,1.99,2.27,1.99,4.32,0,4.09-2.88,9.07-6.42,11.12-1.04.6-2.04.9-2.96.9Z"/>
      <path class="cls-1" d="M17.15,44.44c0-4,2.81-8.85,6.26-10.85,3.46-1.99,6.27-.38,6.27,3.62s-2.81,8.85-6.27,10.85c-3.46,2-6.26.38-6.26-3.62Z"/>
      <path class="cls-2" d="M26.22,33.04c-.81,0-1.71.28-2.64.82-3.37,1.94-6.11,6.69-6.11,10.58,0,1.82.59,3.16,1.68,3.79,1.09.63,2.55.47,4.12-.44,3.37-1.94,6.11-6.69,6.11-10.58,0-1.82-.6-3.16-1.68-3.79-.44-.25-.94-.38-1.48-.38h0ZM20.62,49.22c-.65,0-1.25-.15-1.79-.46-1.28-.74-1.98-2.27-1.98-4.32,0-4.09,2.88-9.08,6.41-11.12,1.77-1.03,3.46-1.18,4.74-.44,1.29.74,1.99,2.27,1.99,4.32,0,4.09-2.88,9.07-6.42,11.12-1.04.6-2.04.9-2.96.9Z"/>
      <path class="cls-3" d="M28.77,37.73c0-1.71-.6-2.91-1.56-3.47-.98-.56-2.31-.48-3.79.37-1.48.85-2.82,2.32-3.79,4-.97,1.68-1.57,3.57-1.57,5.28s.6,2.91,1.57,3.47c.96.56,2.31.48,3.79-.37,1.48-.85,2.82-2.32,3.79-4,.96-1.68,1.56-3.57,1.56-5.28h0ZM17.15,44.44c0-4,2.81-8.85,6.26-10.85,3.46-1.99,6.27-.38,6.27,3.62s-2.81,8.85-6.27,10.85c-3.46,2-6.26.38-6.26-3.62h0Z"/>
      <path class="cls-2" d="M28.77,37.73h0,0ZM25.81,34.21c-.68,0-1.44.23-2.23.69-1.39.8-2.69,2.18-3.68,3.89-.99,1.71-1.53,3.53-1.53,5.13s.5,2.68,1.42,3.2c.91.53,2.15.39,3.48-.37,1.39-.8,2.69-2.18,3.68-3.89.98-1.7,1.53-3.52,1.53-5.12s-.51-2.68-1.42-3.2c-.36-.21-.78-.32-1.24-.32h0ZM21.02,48.05c-.56,0-1.09-.13-1.55-.4-1.11-.64-1.72-1.97-1.72-3.74s.57-3.64,1.61-5.44c1.04-1.8,2.43-3.26,3.9-4.11,1.53-.88,2.99-1.02,4.09-.37,1.11.64,1.73,1.97,1.73,3.74h0c0,1.71-.58,3.64-1.62,5.43-1.03,1.8-2.42,3.26-3.89,4.11-.9.51-1.76.78-2.55.78h0ZM26.22,33.04c-.81,0-1.71.28-2.64.82-3.37,1.94-6.11,6.69-6.11,10.58,0,1.82.59,3.16,1.68,3.79,1.09.63,2.55.47,4.12-.44,3.37-1.94,6.11-6.69,6.11-10.58,0-1.82-.6-3.16-1.68-3.79-.44-.25-.94-.38-1.48-.38h0ZM20.62,49.22c-.65,0-1.25-.15-1.79-.46-1.28-.74-1.98-2.27-1.98-4.32,0-4.09,2.88-9.08,6.41-11.12,1.77-1.03,3.46-1.18,4.74-.44,1.29.74,1.99,2.27,1.99,4.32,0,4.09-2.88,9.07-6.42,11.12-1.04.6-2.04.9-2.96.9Z"/>
      <path class="cls-2" d="M17.17,46.27c-.05,0-.1-.01-.15-.04l-2.05-1.18c-.15-.08-.2-.27-.11-.42.08-.15.27-.2.42-.11l2.05,1.19c.15.08.2.27.11.42-.06.1-.16.15-.27.15Z"/>
      <path class="cls-2" d="M16.95,43.93c-.05,0-.1-.01-.15-.04l-1.95-1.13c-.15-.09-.2-.28-.11-.42.09-.15.28-.2.42-.11l1.95,1.13c.15.08.2.27.11.42-.06.1-.16.15-.27.15Z"/>
      <path class="cls-2" d="M17.67,41.27c-.05,0-.1-.01-.15-.04l-2.1-1.21c-.15-.09-.2-.27-.11-.42.09-.15.27-.2.42-.11l2.1,1.21c.15.08.2.27.11.42-.05.1-.16.15-.26.15Z"/>
      <path class="cls-2" d="M19.07,38.43c-.05,0-.11-.01-.16-.04l-2.18-1.23c-.15-.08-.2-.27-.11-.42.08-.15.27-.2.42-.12l2.18,1.23c.15.08.2.27.12.42-.06.1-.16.16-.27.16Z"/>
      <path class="cls-2" d="M20.77,36.02c-.05,0-.1-.01-.16-.04l-2.12-1.23c-.15-.08-.2-.27-.11-.42.09-.15.28-.2.42-.11l2.12,1.23c.15.08.2.27.11.42-.06.1-.17.15-.27.15Z"/>
      <path class="cls-2" d="M22.79,34.11c-.05,0-.11-.01-.15-.04l-2.04-1.18c-.15-.08-.19-.27-.11-.42.09-.15.28-.2.43-.11l2.03,1.18c.15.08.2.27.11.42-.06.1-.16.15-.27.15Z"/>
      <path class="cls-2" d="M24.85,33.2c-.05,0-.11-.01-.16-.04l-2.03-1.17c-.15-.08-.2-.27-.11-.42.09-.15.27-.2.42-.11l2.03,1.17c.15.08.2.27.11.42-.05.1-.16.16-.26.16Z"/>
      <path class="cls-2" d="M21.43,45.49c-.11,0-.2-.05-.26-.14-.09-.14-.04-.34.1-.43,1-.63,2.13-1.28,3.23-1.9l.07-.04c.27-.16.52-.52.52-.77v-1.96c-.09-.04-.15-.03-.21,0-1.06.61-1.95,1.13-2.7,1.61-.34.21-.59.14-.71.07-.12-.07-.32-.24-.32-.66v-1.96c0-.37.29-.98.7-1.24.87-.54,1.84-1.11,3.07-1.81.15-.08.33-.03.42.12.09.15.03.34-.11.42-1.22.7-2.19,1.27-3.04,1.8-.24.15-.42.56-.42.71v1.96c0,.06,0,.1,0,.12,0-.01.05-.02.08-.05.76-.48,1.66-1.01,2.73-1.62.26-.15.57-.16.81-.02.21.12.33.33.33.55v1.96c0,.54-.43,1.08-.83,1.31l-.07.04c-1.09.62-2.21,1.26-3.2,1.89-.05.03-.11.05-.17.05Z"/>
      <path class="cls-2" d="M23.35,45.9c-.17,0-.3-.14-.3-.31v-9.54c0-.17.14-.31.3-.31.18,0,.31.14.31.31v9.54c0,.17-.14.31-.31.31Z"/>
    </g>
  </g>
</svg>