<?xml version="1.0" encoding="UTF-8"?>
<svg id="Layer_2" data-name="Layer 2" xmlns="http://www.w3.org/2000/svg" viewBox="0 0 30.13 40.99" fill="currentColor">
  <defs>
    <style>
      .cls-1 {
        fill: #fff;
      }

      .cls-1, .cls-2, .cls-3, .cls-4 {
        fill-rule: evenodd;
      }

      .cls-2 {
        fill: #1a87c7;
      }

      .cls-3 {
        fill: #bdedf8;
      }

      .cls-4 {
        fill: #66ceef;
      }
    </style>
  </defs>
  <g id="_Layer_" data-name="&amp;lt;Layer&amp;gt;">
    <g>
      <path class="cls-3" d="M29.21,2.56c-.79-.46-3.41-2.14-4.14-2.23C21.06-.19,9.69,6.98,6.29,9.55c-1.7,1.27-5.87,4.47-5.97,6.77l.1,8.25c0,3.57-.21,10.43,2.75,12.81l4.19,2.49c-2.46-1.73-2.88-4.59-3.12-7.55l-.21-14.4c1.02-4.19,13.62-11.46,17.63-13.35,1.94-.9,5.4-2.54,7.55-2.03Z"/>
      <path class="cls-2" d="M24.65.62c-4.14,0-14.7,6.56-18.18,9.18C2.67,12.65.71,14.85.63,16.34l.08,9.04c.03,3.61.03,9.64,2.65,11.77l2.17,1.28c-1.13-1.7-1.41-3.84-1.6-6.07l-.18-14.42c1.07-4.52,14.17-11.93,17.79-13.63,1.7-.8,4.32-2.02,6.44-2.15-1-.59-2.49-1.47-2.93-1.53-.13-.02-.26-.02-.39-.02h0ZM7.36,40.18c-.05,0-.11-.01-.16-.04l-4.19-2.49C.1,35.32.1,29.1.1,25.38v-.81l-.1-8.24c.08-1.72,2.07-4.01,6.08-7.03C8.91,7.18,20.83-.52,25.12.03c.58.08,2.02.92,3.56,1.86.29.17.52.32.68.41.13.07.21.24.13.38-.05.14-.21.22-.34.19-2.04-.48-5.48,1.12-7.31,1.99-4.64,2.17-16.56,9.25-17.5,13.15l.21,14.32c.24,2.89.63,5.65,2.99,7.29.13.1.18.28.08.42-.05.09-.16.14-.26.14Z"/>
      <path class="cls-3" d="M3.98,18.44c.5,15.92-2.04,25.63,12.92,21.15,14.99-12.78,12.42-19.56,12.94-36.05.16-5.27-26.02,9.82-25.86,14.91Z"/>
      <path class="cls-2" d="M4.3,18.43c.08,2.34.08,4.5.08,6.59.03,7.15.05,12.31,2.8,14.35,1.81,1.35,4.87,1.34,9.56-.07,12.63-10.79,12.65-17.3,12.68-29.09.03-2.1.03-4.27.11-6.69,0-.39-.16-.54-.29-.62-1.34-.8-6.76,1.25-12.86,4.87-7.07,4.17-12.13,8.65-12.08,10.66h0ZM10.79,40.99c-1.68,0-2.99-.37-4.01-1.12-2.99-2.23-3.01-7.52-3.01-14.85-.03-2.09-.03-4.24-.11-6.57h0c-.08-2.64,6.16-7.53,12.39-11.2,5-2.96,11.55-6.02,13.49-4.87.26.17.6.51.58,1.17-.05,2.42-.08,4.58-.08,6.67-.05,11.99-.08,18.6-12.94,29.6-.05.03-.08.05-.13.06-2.46.74-4.51,1.11-6.18,1.11Z"/>
      <path class="cls-4" d="M.37,15.82l.31,15.38c.65,5.93,2.23,6.11,6.68,8.68-2.46-1.73-2.88-4.59-3.12-7.55l-.21-14.4L.37,15.82Z"/>
      <path class="cls-2" d="M.71,16.36l.26,14.83c.52,4.79,1.68,5.68,4.61,7.33-1.18-1.71-1.47-3.89-1.65-6.16l-.18-14.25-3.04-1.76h0ZM7.36,40.18c-.05,0-.11-.01-.16-.04-.5-.29-.94-.55-1.39-.79-3.43-1.92-4.85-2.71-5.45-8.13L.08,15.82c0-.11.05-.21.13-.27.11-.06.24-.06.31,0l3.67,2.12c.1.05.16.15.16.26l.21,14.4c.24,2.89.63,5.65,2.99,7.29.13.09.18.28.08.42-.05.09-.16.14-.26.14Z"/>
      <path class="cls-1" d="M7.07,24.22c-.1.06-.18.15-.24.25-.05.1-.11.21-.13.33-.03.12-.05.22-.03.3.03.08.08.14.16.17l4.64,2.05c.08.04.24.22.29.33.05.15.05.35,0,.58l-1.36,7.76c0,.11,0,.21.03.29.03.07.08.12.13.14.11.02.16.02.26-.03.08-.04.18-.12.26-.22l5.32-6.72c.31-.39.68-.6,1-.57l5.32.57c.08,0,.18-.02.26-.07.08-.05.16-.13.24-.24.08-.11.13-.22.16-.32.03-.11.03-.21,0-.31l-1.34-6.2c-.05-.18-.03-.38.03-.6.05-.22.13-.44.29-.65l4.64-7.41c.08-.11.1-.22.13-.33.03-.11.03-.21,0-.29-.03-.09-.08-.14-.16-.16-.05-.02-.13-.02-.21.03l-6.18,2.89c-.18.08-.34.11-.47.07-.16-.04-.26-.14-.31-.28l-2.46-5.15c-.03-.08-.11-.12-.16-.13-.16-.03-.37.09-.5.28-.08.09-.13.2-.16.32l-2.46,7.99c-.08.23-.18.45-.31.65-.13.19-.31.36-.5.48l-6.16,4.23Z"/>
      <path class="cls-2" d="M7.26,24.47c-.08.04-.13.1-.16.17-.05.07-.11.15-.11.23-.03.08-.03.13-.03.15l4.64,2.02c.18.08.37.34.45.49.05.22.08.47.03.74l-1.36,7.77v.04s.08-.06.13-.11l5.32-6.72c.39-.48.84-.72,1.26-.68l5.34.57c.08-.04.13-.08.18-.18.05-.08.11-.15.13-.23,0-.06.03-.11,0-.16l-1.36-6.2c-.05-.23-.03-.47.03-.74.08-.25.18-.51.34-.74l4.64-7.41c.05-.08.08-.16.1-.22v-.06l-6.13,2.87c-.23.11-.47.14-.68.09-.24-.06-.39-.21-.52-.44l-2.44-5.1s-.08.07-.16.14c-.03.06-.08.14-.11.23l-2.46,7.99c-.08.26-.21.51-.37.73-.16.22-.34.41-.55.56l-6.16,4.23h0ZM10.66,36.72c-.05,0-.11,0-.13-.02-.21-.06-.32-.17-.39-.33-.05-.13-.05-.28-.03-.45l1.36-7.77c.03-.21,0-.35-.03-.42,0-.02-.08-.13-.13-.15l-4.61-2.04c-.16-.05-.26-.19-.31-.37-.05-.13-.03-.28,0-.45.05-.15.1-.3.18-.43.1-.13.21-.25.31-.33h0s6.18-4.23,6.18-4.23c.13-.1.29-.24.39-.4.13-.17.21-.36.29-.56l2.44-7.99c.05-.15.13-.29.21-.41.24-.3.55-.45.81-.4.16.03.31.14.39.31l2.44,5.15c.03.06.08.1.13.11.05.02.16,0,.26-.05l6.18-2.89c.16-.08.32-.09.45-.04.16.06.29.18.34.36.05.13.05.29.03.45-.03.14-.1.29-.18.43l-4.64,7.41c-.13.18-.21.37-.26.56-.03.17-.05.33-.03.46l1.36,6.2c.03.14.03.29-.03.45-.03.14-.1.29-.21.42-.08.14-.21.25-.31.32-.13.09-.29.13-.45.12l-5.32-.57c-.21-.02-.5.16-.71.45l-5.34,6.72c-.11.14-.24.24-.34.3-.13.06-.24.08-.31.08Z"/>
    </g>
  </g>
</svg>