<?xml version="1.0" encoding="UTF-8"?>
<svg id="Layer_2" data-name="Layer 2" xmlns="http://www.w3.org/2000/svg" viewBox="0 0 27.86 43.85" fill="currentColor">
  <defs>
    <style>
      .cls-1 {
        fill: #fff;
      }

      .cls-1, .cls-2, .cls-3, .cls-4 {
        fill-rule: evenodd;
      }

      .cls-2 {
        fill: #1a87c7;
      }

      .cls-3 {
        fill: #bdedf8;
      }

      .cls-4 {
        fill: #66ceef;
      }
    </style>
  </defs>
  <g id="_Layer_" data-name="&amp;lt;Layer&amp;gt;">
    <g>
      <path class="cls-3" d="M2.76,43.42l-1.9-1.1c-.47-.39-.5-.63-.55-1.22v-24.8c.11-1.42.67-2.56,1.9-3.29C9.34,8.78,16.55,4.67,23.76.57c.52-.3.76-.35,1.34-.13l1.9,1.1c-.58-.22-.83-.17-1.34.13C18.32,5.84,10.77,9.74,3.72,14.37c-1.08.71-1.41,1.73-1.52,3.03v24.8c.06.59.09.83.56,1.22Z"/>
      <path class="cls-2" d="M24.53.62c-.18,0-.35.07-.62.23C16.86,4.85,9.58,9,2.37,13.28c-1.06.63-1.63,1.63-1.75,3.05v24.77c.05.53.06.68.44.99l.88.5c-.02-.11-.03-.23-.04-.37v-24.82c.1-1.17.37-2.43,1.65-3.29,5.09-3.34,10.52-6.35,15.77-9.26,2.07-1.15,4.14-2.29,6.19-3.46.12-.07.23-.13.34-.17l-.9-.51c-.17-.07-.3-.09-.42-.09h0ZM2.76,43.73c-.06,0-.11-.01-.15-.04l-1.9-1.1c-.6-.49-.65-.82-.71-1.47v-24.82c.14-1.66.81-2.82,2.05-3.55C9.27,8.46,16.56,4.32,23.61.3c.57-.32.91-.41,1.6-.15l1.95,1.11c.14.08.19.25.12.4-.07.15-.24.21-.39.16-.48-.18-.63-.14-1.08.11-2.05,1.17-4.12,2.32-6.2,3.47-5.23,2.9-10.66,5.91-15.72,9.24-1,.66-1.28,1.59-1.37,2.79v24.77c.05.53.06.68.44.99.12.09.15.28.06.41-.06.09-.15.13-.25.13Z"/>
      <path class="cls-3" d="M4.1,14.11C11.28,9.96,18.47,5.81,25.66,1.67c1.04-.61,1.89-.11,1.89,1.09v24.8c0,1.21-.85,2.69-1.89,3.29-7.19,4.14-14.38,8.3-21.56,12.45-1.04.6-1.9.11-1.9-1.1v-24.8c0-1.21.86-2.69,1.9-3.29Z"/>
      <path class="cls-2" d="M4.25,14.37c-.94.55-1.74,1.93-1.74,3.03v24.8c0,.47.14.81.4.96.26.15.63.1,1.03-.13l21.55-12.45c.95-.54,1.75-1.92,1.75-3.02V2.76c0-.47-.15-.81-.41-.96-.26-.15-.63-.11-1.04.13L4.25,14.37h0ZM3.25,43.85c-.23,0-.45-.05-.64-.16-.46-.27-.72-.8-.72-1.49v-24.8c0-1.31.92-2.9,2.05-3.56h0L25.5,1.4c.61-.35,1.19-.39,1.65-.13.45.26.71.79.71,1.5v24.8c0,1.31-.91,2.9-2.05,3.56l-21.55,12.44c-.34.2-.68.3-1,.3Z"/>
      <path class="cls-1" d="M25.04,5.26c0-.18-.13-.26-.3-.16-6.58,3.8-13.16,7.6-19.74,11.39-.16.1-.3.32-.3.51v22.71c0,.18.14.26.3.17,6.58-3.8,13.16-7.6,19.74-11.4.16-.1.3-.32.3-.51V5.26Z"/>
      <path class="cls-2" d="M24.74,5.26h.3-.3ZM24.74,5.46L5.16,16.75c-.07.03-.14.17-.14.24v22.51l19.57-11.3c.06-.03.14-.17.14-.24V5.46h0ZM4.88,40.21c-.08,0-.16-.02-.23-.06-.16-.09-.24-.25-.24-.45v-22.71c0-.3.19-.63.44-.77L24.6,4.82c.17-.11.36-.12.51-.02.15.09.23.25.23.45v22.7c0,.29-.19.62-.44.77l-19.74,11.4c-.1.05-.19.08-.29.08Z"/>
      <path class="cls-4" d="M.63,14.88v.02c-.21.56-.33.81-.33,1.41v24.8c.06.59.09.83.56,1.22l1.89,1.1c-.47-.39-.5-.63-.56-1.22v-24.8c0-.6.12-.85.33-1.42l-1.9-1.1Z"/>
      <path class="cls-2" d="M.8,15.33c-.12.33-.18.56-.18.97v24.8c.05.53.06.68.44.99l.88.5c-.02-.11-.03-.23-.04-.37v-24.82c0-.56.1-.86.25-1.28l-1.35-.79h0ZM2.76,43.73c-.05,0-.1-.01-.15-.04l-1.9-1.1c-.6-.49-.65-.82-.71-1.47v-24.82c0-.6.11-.9.29-1.37l.06-.15c.03-.07.11-.15.19-.17.09-.03.18-.03.25,0l1.89,1.11c.12.08.18.23.13.37l-.05.15c-.17.44-.25.67-.25,1.16v24.8c.05.53.06.68.44.99.12.09.15.28.06.41-.06.09-.15.13-.26.13Z"/>
      <path class="cls-4" d="M4.71,28.13l3.84-2.21,2.3-9.18c.15-.64.67-1.23,1.14-1.31.32-.06.55.13.6.46l2.49,11.18,2.17-11.09c.12-.63.62-1.26,1.11-1.4.32-.09.57.06.65.36l1.53,3.86,4.5-2.6v2.09l-5.11,2.96c-.37.22-.73.17-.87-.18l-.77-1.93-2.38,12.18h0c-.09.42-.34.87-.69,1.16-.48.41-.96.34-1.08-.17l-2.62-11.77-1.48,5.89h0c-.12.48-.46.97-.86,1.21l-4.49,2.58v-2.09Z"/>
      <path class="cls-2" d="M11.54,20.22h0c.15,0,.27.11.3.24l2.62,11.78c.03.1.07.16.12.18.08.03.25,0,.47-.18.28-.24.5-.62.57-.98,0,0,0-.02.01-.03l2.37-12.16c.03-.13.14-.23.28-.24.13-.02.26.06.31.19l.77,1.93c.03.09.08.1.09.11.08.02.2-.01.32-.09l4.96-2.87v-1.38l-4.03,2.34c-.08.04-.17.05-.26.03-.08-.03-.15-.1-.18-.18l-1.53-3.87c-.03-.08-.05-.14-.1-.17-.05-.03-.13-.02-.18,0-.37.11-.79.65-.9,1.16l-2.16,11.1c-.03.14-.16.24-.3.25-.14,0-.28-.1-.3-.24l-2.49-11.19c-.02-.11-.05-.18-.1-.21-.03-.02-.08-.03-.15-.02-.31.06-.76.52-.9,1.1l-2.3,9.18c-.02.08-.07.15-.14.19l-3.68,2.12v1.37l4.01-2.31c.32-.18.61-.6.71-1.02,0,0,0-.02,0-.03l1.47-5.87c.03-.14.16-.23.3-.23h0ZM14.63,33.05c-.09,0-.17-.02-.26-.04-.26-.09-.45-.31-.52-.63l-2.33-10.51-1.17,4.63s0,.02,0,.03c-.15.57-.54,1.1-.99,1.36l-4.48,2.59c-.09.05-.21.05-.3-.01-.1-.05-.16-.15-.16-.26v-2.09c0-.11.06-.21.16-.26l3.71-2.15,2.27-9.05c.19-.75.81-1.44,1.39-1.55.24-.04.44,0,.62.12.18.13.3.33.35.6l2.16,9.73,1.89-9.65c.15-.75.72-1.47,1.32-1.63.23-.07.46-.04.64.06.19.1.32.28.39.51l1.39,3.5,4.19-2.43c.1-.05.22-.05.31,0,.09.05.15.16.15.27v2.09c0,.11-.05.22-.15.27l-5.12,2.96c-.28.17-.57.23-.84.14-.21-.08-.38-.24-.47-.47l-.37-.96-2.18,11.16s0,.02,0,.03c-.1.49-.4.98-.78,1.29-.26.23-.54.34-.8.34Z"/>
    </g>
  </g>
</svg>