<?xml version="1.0" encoding="UTF-8"?>
<svg id="Layer_2" data-name="Layer 2" xmlns="http://www.w3.org/2000/svg" viewBox="0 0 33.3 44" fill="currentColor">
  <defs>
    <style>
      .cls-1 {
        fill: #fff;
      }

      .cls-1, .cls-2, .cls-3, .cls-4, .cls-5 {
        fill-rule: evenodd;
      }

      .cls-2 {
        fill: #1a87c7;
      }

      .cls-3 {
        fill: #bdedf8;
      }

      .cls-4 {
        fill: #ecf6f9;
      }

      .cls-5 {
        fill: #66ceef;
      }
    </style>
  </defs>
  <g id="_Layer_" data-name="&amp;lt;Layer&amp;gt;">
    <g>
      <path class="cls-5" d="M25.7,8.99c.34,1.73.97,3.18,2.28,4.41,2.15,2.03,2.52,5.16,1.99,7.89-.26,1.48-1.23,3.6-2.91,2.87.47.27,1.07.76,1.65.66,1.81-.35,2.2-2.72,2.3-4.22.5-7.04-3.35-5.55-4.43-11.09l1.96-1.22-.89-.52-1.96,1.22h0ZM23.5,11.03c1.1-.42,1.18-.21,2.31.43l-1.39.09v2.35c1.6,1.46-.6,11.31,2.25,13.38-1.89-1.1-2.2-1.86-2.41-4.74-.13-1.98.21-8.27-.76-9.15v-2.36Z"/>
      <path class="cls-2" d="M26.07,9.13c.18.87.42,1.62.79,2.28-.24-.52-.42-1.13-.55-1.85-.03-.12.03-.25.13-.31l1.55-.95-.31-.17-1.6,1.01h0ZM28.35,24.49c.11.03.21.04.31.02,1.49-.29,1.94-2.3,2.07-3.93.18-2.61-.24-3.99-.89-5.02.68,1.63.84,3.63.45,5.78-.21,1.14-.79,2.55-1.76,3.07-.08.03-.13.05-.18.08h0ZM28.56,25.14c-.5,0-.97-.3-1.36-.54-.1-.06-.18-.12-.26-.17-.16-.08-.21-.26-.13-.4.08-.15.26-.21.39-.15.39.16.73.16,1.05-.01.73-.39,1.26-1.6,1.44-2.63.29-1.48.63-5.21-1.91-7.61-1.23-1.16-1.99-2.61-2.36-4.57-.03-.13.03-.25.13-.32l1.96-1.22c.11-.06.21-.06.31,0l.89.52c.1.05.16.16.16.26,0,.11-.05.21-.13.27l-1.78,1.1c.45,2.16,1.36,3.17,2.23,4.14,1.26,1.39,2.44,2.7,2.15,6.83-.24,3.34-1.52,4.28-2.57,4.49-.08.01-.16.02-.21.02h0ZM23.81,13.26c.11.14.21.33.29.57v-2.28c0-.16.13-.3.29-.31l.37-.02c-.31-.15-.5-.14-.94.02v2.02h0ZM24.18,14.11c.31,1.24.34,3.42.34,6.02,0,1,0,1.86.05,2.39.13,1.75.29,2.66.81,3.34-.63-1.76-.63-4.35-.63-6.72.03-2.2.03-4.47-.55-5,0,0-.03-.02-.03-.03h0ZM26.67,27.58c-.05,0-.11,0-.13-.03-2.04-1.17-2.36-2.07-2.57-4.99-.05-.56-.05-1.43-.05-2.43,0-2.23,0-5.96-.63-6.51-.05-.05-.08-.14-.08-.23v-2.36c0-.12.08-.24.18-.29,1.05-.41,1.34-.28,2.17.23l.39.23c.13.07.18.21.16.34-.03.14-.16.23-.29.23l-1.13.07v1.94c.71.8.71,2.82.68,5.35,0,3.03-.03,6.8,1.47,7.89.13.09.18.28.08.42-.05.09-.16.14-.26.14Z"/>
      <path class="cls-5" d="M24.42,11.55c2.33-1.15,2.65,2.16,2.62,6.1-.03,1.83-.05,3.78.18,5.22.26,1.71.92,2.64,2.54,1.38.16-.1.29-.25.39-.44.37-.57.63-1.41.79-2.37.16-1.11.16-2.32-.03-3.46-.24-1.6-.84-3.03-1.76-3.82-1.6-1.37-2.28-3.11-2.57-4.67l1.96-1.22c.26,1.24.84,2.54,2.12,3.62,1.13.96,1.86,2.7,2.15,4.62.21,1.38.21,2.86,0,4.23-.21,1.52-.71,2.96-1.44,4.08-.39.57-.81,1.06-1.31,1.44-3.12,2.39-4.32.9-4.77-1.96-.26-1.6-.24-3.65-.21-5.59.03-2.48-.24-4.55-.68-4.84v-2.35Z"/>
      <path class="cls-2" d="M24.71,13.77c.71.81.71,3.97.71,4.97-.03,1.95-.05,3.97.21,5.55.24,1.58.68,2.53,1.36,2.8.68.27,1.65-.09,2.91-1.04.45-.35.86-.8,1.23-1.35.68-1.05,1.18-2.43,1.42-3.96.18-1.35.18-2.82-.03-4.14-.31-2.01-1.02-3.58-2.04-4.44-1.05-.89-1.73-1.99-2.1-3.36l-1.44.88c.37,1.8,1.15,3.21,2.44,4.29.92.77,1.57,2.2,1.86,4.01.18,1.17.18,2.4.03,3.55-.16,1.05-.45,1.92-.84,2.5-.13.21-.29.38-.47.51-.76.59-1.39.77-1.91.56-.58-.23-.94-.92-1.13-2.15-.23-1.46-.21-3.4-.18-5.27.03-1.44.05-5.21-1.05-5.91-.24-.16-.58-.16-.97,0v2.02h0ZM27.48,27.79c-.26,0-.5-.05-.73-.14-.89-.36-1.47-1.43-1.76-3.27-.24-1.62-.24-3.67-.21-5.64.05-2.82-.31-4.4-.55-4.58-.08-.05-.13-.16-.13-.26v-2.35c0-.12.08-.23.18-.28.65-.33,1.26-.35,1.73-.05.97.63,1.36,2.5,1.34,6.43-.03,1.85-.05,3.76.16,5.17.18,1.2.52,1.57.76,1.67.37.15.92-.17,1.31-.48.1-.09.24-.21.31-.36.34-.51.6-1.29.73-2.25.16-1.09.16-2.25,0-3.36-.26-1.66-.84-2.96-1.65-3.63-1.44-1.22-2.31-2.8-2.67-4.85-.03-.12.03-.25.13-.31l1.96-1.22c.08-.05.18-.06.29-.03.08.04.16.12.18.22.29,1.43.94,2.56,1.99,3.45,1.13.96,1.94,2.67,2.28,4.82.21,1.41.21,2.9,0,4.32-.24,1.63-.76,3.09-1.52,4.22-.39.61-.86,1.11-1.36,1.5-1.1.84-2.02,1.26-2.78,1.26Z"/>
      <path class="cls-1" d="M26.23,9.82l-1.52-.86c.08-1.21.1-2.48,0-3.69-.05-.47-.11-.68-.37-1.08l-.89-.51.39-1.7,1.49.87-.37,1.58.37.2c.42.24.6.51.76.93.1.29.13.53.16.82,0,.4.03.78.03,1.18,0,.68-.03,1.35-.05,2.03v.21Z"/>
      <path class="cls-2" d="M23.79,3.54l.68.39c.05.03.08.05.11.09.05.08.1.15.13.21l.29-1.22-.94-.54-.26,1.07h0ZM25.05,8.79l.89.52c.03-.58.03-1.16.03-1.73,0-.39,0-.78-.03-1.17-.03-.3-.05-.5-.13-.76-.16-.34-.29-.55-.63-.75l-.24-.13c.03.14.05.29.08.47.1,1.17.08,2.39.03,3.55h0ZM26.23,10.13c-.05,0-.11-.02-.16-.04l-1.49-.86c-.11-.06-.16-.18-.16-.29.05-1.19.11-2.45,0-3.63-.05-.4-.1-.57-.31-.88l-.81-.48c-.11-.06-.18-.2-.13-.33l.37-1.7c.03-.1.1-.17.18-.21.1-.04.21-.03.29.01l1.49.87c.1.07.18.2.16.34l-.32,1.35.16.09c.5.3.71.62.89,1.09.11.36.13.63.16.91.03.41.03.8.05,1.2,0,.69-.03,1.37-.05,2.05l-.03.22c0,.11-.05.21-.16.26-.03.02-.08.03-.13.03Z"/>
      <path class="cls-1" d="M25.33,2.86l-1.49-.87c.65-.14,1.02-.23,1.68.02l1.49.87c-.63-.24-1.05-.15-1.68-.02Z"/>
      <path class="cls-2" d="M24.73,2.16l.66.36c.11-.02.21-.05.31-.06l-.34-.19c-.24-.09-.42-.11-.63-.11h0ZM27.01,3.18s-.08,0-.11-.02c-.55-.2-.92-.13-1.52,0-.05.01-.13,0-.21-.04l-1.49-.86c-.11-.07-.18-.19-.16-.31.03-.13.13-.24.23-.26.68-.14,1.15-.23,1.86.04l1.55.89c.13.08.18.25.13.4-.05.1-.16.17-.29.17Z"/>
      <path class="cls-4" d="M26.23,9.82c.05-1.05.13-3.52-.13-4.25-.16-.5-.63-1.02-1.15-1.02l.39-1.7c1.7-.38,2.7-.32,4.17,5.08l-3.28,1.88Z"/>
      <path class="cls-2" d="M25.33,4.3c.5.17.89.69,1.05,1.17.24.67.21,2.6.16,3.8l2.59-1.49c-1.36-4.91-2.25-4.95-3.54-4.67l-.26,1.18h0ZM26.23,10.13c-.05,0-.11-.02-.16-.04-.1-.06-.16-.17-.16-.28.08-1.63.11-3.57-.1-4.14-.13-.4-.5-.83-.84-.81h-.03c-.08,0-.18-.04-.23-.11-.05-.08-.08-.17-.05-.26l.37-1.71c.03-.11.13-.21.24-.23,2.04-.45,3.07-.09,4.53,5.3.03.14-.03.28-.13.35l-3.28,1.89c-.05.03-.1.04-.16.04Z"/>
      <polygon class="cls-3" points="15.93 23.68 17.08 23.01 31.47 31.32 30.29 31.98 15.82 40.34 15.25 40.67 14.67 41.01 14.67 43.68 .31 35.39 .31 32.71 .86 32.37 1.47 32.04 15.93 23.68"/>
      <path class="cls-2" d="M.6,35.22l13.75,7.93v-2.15c0-.11.05-.21.16-.27l16.32-9.42-13.75-7.95L.6,32.89v2.33h0ZM14.67,44c-.05,0-.1-.02-.16-.04L.16,35.66c-.11-.06-.16-.16-.16-.27v-2.68c0-.12.05-.22.16-.27l15.61-9.02h0l1.18-.67c.08-.06.18-.06.29,0l14.38,8.29c.08.05.13.15.13.27,0,.1-.05.21-.13.26l-16.64,9.61v2.49c0,.11-.08.22-.16.27-.05.03-.11.04-.16.04Z"/>
      <polygon class="cls-1" points="30.29 31.98 31.47 31.32 31.47 33.99 28.37 35.76 17.74 41.91 14.67 43.68 14.67 41.01 15.25 40.67 15.82 40.34 30.29 31.98"/>
      <path class="cls-2" d="M30.29,31.98h.03-.03ZM14.99,41.19v1.96l16.17-9.33v-1.97l-.71.4h0l-15.46,8.94h0ZM14.67,44c-.05,0-.1-.02-.16-.04-.1-.05-.16-.16-.16-.27v-2.68c0-.11.05-.21.16-.27l16.79-9.69c.1-.05.21-.05.31,0,.08.05.13.15.13.27v2.67c0,.12-.05.21-.13.27l-16.79,9.69c-.05.03-.11.04-.16.04Z"/>
      <path class="cls-3" d="M11.06,37.57l-4.87-2.81V10.02c.05-.82.18-1.17.55-1.89.45-.68.68-.96,1.36-1.43L18.73.55c.55-.25.79-.35,1.36-.13l4.85,2.81-.26-.1-.34-.02-.34.08-.39.18-10.64,6.14c-.66.45-.94.79-1.36,1.43-.37.73-.5,1.07-.55,1.89v24.75Z"/>
      <path class="cls-2" d="M6.47,34.59l4.27,2.45V12.83c.08-.88.21-1.25.6-2.03.42-.67.73-1.06,1.44-1.54l11.03-6.33-3.88-2.24c-.42-.15-.55-.09-1.07.14l-10.64,6.14c-.58.42-.81.68-1.23,1.33-.34.69-.45.98-.52,1.74v24.55h0ZM11.06,37.89c-.05,0-.11-.02-.16-.04l-4.87-2.81c-.11-.06-.16-.16-.16-.27V10.02c.08-.88.21-1.26.6-2.03.47-.74.76-1.06,1.44-1.54L18.58.3c.63-.29.94-.41,1.62-.16l4.9,2.83c.16.08.21.25.13.4-.05.14-.24.21-.39.16l-.24-.1h-.24s-.31.06-.31.06l-.31.16-10.61,6.14c-.6.41-.89.74-1.26,1.33-.34.68-.45.98-.52,1.74v24.72c0,.11-.05.22-.13.27-.05.03-.11.04-.16.04Z"/>
      <path class="cls-1" d="M12.97,9.52l10.64-6.14c1.05-.61,1.91-.11,1.91,1.1v24.74l-14.46,8.35V12.83c0-1.22.84-2.7,1.91-3.31Z"/>
      <path class="cls-2" d="M13.13,9.79c-.97.55-1.78,1.94-1.78,3.04v24.22l13.86-8V4.47c0-.48-.13-.82-.39-.97-.26-.15-.63-.11-1.05.13l-10.64,6.15h0ZM11.06,37.89c-.05,0-.11-.02-.16-.04-.11-.05-.16-.16-.16-.27V12.83c0-1.31.92-2.92,2.07-3.58h0l10.64-6.14c.6-.36,1.2-.4,1.65-.13.47.26.73.8.73,1.5v24.74c0,.11-.05.22-.16.27l-14.46,8.35c-.05.03-.11.04-.16.04Z"/>
      <polygon class="cls-1" points="13.07 12.11 23.11 6.31 23.11 14.47 13.07 20.26 13.07 12.11"/>
      <path class="cls-2" d="M13.39,12.28v7.45l9.41-5.44v-7.44l-9.41,5.43h0ZM13.07,20.57c-.05,0-.11-.02-.16-.04-.11-.05-.16-.16-.16-.27v-8.15c0-.11.05-.22.16-.27l10.03-5.8c.11-.05.21-.05.31,0,.08.06.16.17.16.27v8.16c0,.11-.08.21-.16.26l-10.03,5.8c-.05.02-.1.04-.16.04Z"/>
      <polygon class="cls-3" points="13.07 12.11 23.11 6.31 23.11 14.47 13.07 20.26 13.07 12.11"/>
      <path class="cls-2" d="M13.39,12.28v7.45l9.41-5.44v-7.44l-9.41,5.43h0ZM13.07,20.57c-.05,0-.11-.02-.16-.04-.11-.05-.16-.16-.16-.27v-8.15c0-.11.05-.22.16-.27l10.03-5.8c.11-.05.21-.05.31,0,.08.06.16.17.16.27v8.16c0,.11-.08.21-.16.26l-10.03,5.8c-.05.02-.1.04-.16.04Z"/>
      <path class="cls-2" d="M21.46,10.03l-1.15.68h0c-.05.03-.1.12-.1.17v2.36l1.18-.67s.08-.12.08-.17v-2.37h0ZM20.02,13.97c-.08,0-.13-.02-.21-.05-.16-.09-.24-.24-.24-.44v-2.6c0-.28.18-.57.42-.71l1.36-.79c.18-.09.37-.1.5-.03.16.09.24.24.24.43v2.6c0,.28-.18.57-.42.71l-1.36.79c-.1.05-.18.08-.29.08Z"/>
      <path class="cls-2" d="M17.5,12.31s-.1.13-.1.18v2.36l1.18-.67c.05-.03.11-.12.11-.17v-2.36l-1.18.67h0ZM17.24,15.58c-.08,0-.16-.02-.21-.05-.16-.09-.24-.24-.24-.43v-2.6c0-.28.18-.57.39-.71h0l1.39-.79c.18-.1.34-.1.5-.02.13.08.21.24.21.43v2.6c0,.28-.16.57-.39.71l-1.36.79c-.11.05-.21.08-.29.08Z"/>
      <path class="cls-2" d="M14.57,13.65h.03-.03ZM15.9,13.25l-1.18.67h0c-.05.03-.1.13-.1.17v2.37l1.18-.67c.05-.03.1-.12.1-.17v-2.36h0ZM14.46,17.18c-.08,0-.16-.02-.23-.05-.13-.09-.21-.24-.21-.43v-2.6c0-.28.16-.57.39-.71l1.39-.79c.16-.11.34-.11.5-.03.13.09.21.24.21.43v2.6c0,.28-.16.57-.39.71l-1.39.79c-.08.05-.18.08-.26.08Z"/>
      <path class="cls-5" d="M11.66,10.86l-4.87-2.81-.05.08c-.37.72-.5,1.07-.55,1.89v24.75l4.87,2.81V12.83c.05-.82.18-1.16.55-1.89l.05-.08Z"/>
      <path class="cls-2" d="M6.47,34.59l4.27,2.45V12.83c.05-.81.18-1.19.5-1.85l-4.32-2.5c-.29.57-.37.88-.45,1.56v24.55h0ZM11.06,37.89c-.05,0-.11-.02-.16-.04l-4.87-2.81c-.11-.06-.16-.16-.16-.27V10.02c.08-.88.21-1.25.6-2.03l.05-.11c.1-.14.29-.18.42-.1l4.87,2.81c.08.04.13.11.13.2.03.08.03.17-.03.23l-.05.08c-.34.69-.45.99-.52,1.75v24.72c0,.11-.05.22-.13.27-.05.03-.11.04-.16.04Z"/>
      <polygon class="cls-5" points="14.67 41.15 14.67 43.68 .31 35.39 .31 32.85 14.67 41.15"/>
      <path class="cls-2" d="M.6,35.22l13.75,7.93v-1.83L.6,33.39v1.83h0ZM14.67,44c-.05,0-.1-.02-.16-.04L.16,35.66c-.11-.06-.16-.16-.16-.27v-2.54c0-.11.05-.21.16-.26.08-.06.21-.06.29,0l14.38,8.29c.08.05.16.16.16.27v2.53c0,.11-.08.22-.16.27-.05.03-.11.04-.16.04Z"/>
    </g>
  </g>
</svg>