<?xml version="1.0" encoding="UTF-8"?>
<svg id="Layer_2" data-name="Layer 2" xmlns="http://www.w3.org/2000/svg" viewBox="0 0 40.29 40.28" fill="currentColor">
  <defs>
    <style>
      .cls-1 {
        fill: #fff;
      }

      .cls-1, .cls-2, .cls-3 {
        fill-rule: evenodd;
      }

      .cls-2 {
        fill: #1a87c7;
      }

      .cls-3 {
        fill: #bdedf8;
      }
    </style>
  </defs>
  <g id="_Layer_" data-name="&amp;lt;Layer&amp;gt;">
    <g>
      <path class="cls-3" d="M12.56,1.81c-2.42,1.01-4.61,2.48-6.44,4.31-1.83,1.83-3.3,4.02-4.3,6.44-.97,2.33-1.5,4.89-1.5,7.59s.53,5.25,1.5,7.59c1,2.42,2.48,4.61,4.3,6.43,1.83,1.83,4.02,3.31,6.44,4.31,2.34.96,4.9,1.5,7.59,1.5s5.26-.54,7.59-1.5c2.42-1,4.61-2.48,6.44-4.31,1.83-1.83,3.3-4.02,4.31-6.43.96-2.34,1.5-4.9,1.5-7.59s-.54-5.26-1.5-7.59c-1.01-2.42-2.48-4.61-4.31-6.44-1.83-1.83-4.02-3.3-6.44-4.31-2.33-.97-4.89-1.5-7.59-1.5s-5.25.54-7.59,1.5Z"/>
      <path class="cls-2" d="M12.68,2.09c-2.38.98-4.51,2.41-6.34,4.24-1.83,1.83-3.26,3.96-4.25,6.34-.97,2.36-1.48,4.88-1.48,7.47s.5,5.1,1.48,7.47c.99,2.37,2.42,4.51,4.25,6.34,1.83,1.83,3.96,3.26,6.34,4.24,2.37.98,4.88,1.48,7.47,1.48s5.1-.5,7.47-1.48c2.37-.98,4.5-2.41,6.34-4.24,1.83-1.83,3.26-3.96,4.24-6.34.98-2.36,1.48-4.88,1.48-7.47s-.5-5.11-1.48-7.47c-.98-2.37-2.41-4.51-4.24-6.34-1.83-1.83-3.96-3.26-6.34-4.24C22.89.13,17.42.13,12.68,2.09h0ZM20.15,40.28c-2.67,0-5.26-.51-7.7-1.52-2.45-1.02-4.65-2.49-6.55-4.38-1.89-1.89-3.36-4.09-4.37-6.54-1.01-2.44-1.53-5.03-1.53-7.7s.52-5.27,1.53-7.71c1.02-2.45,2.49-4.65,4.37-6.54,1.89-1.89,4.09-3.36,6.55-4.38h0c2.44-1.01,5.03-1.52,7.7-1.52s5.27.51,7.71,1.52c2.45,1.02,4.65,2.49,6.54,4.38,1.88,1.89,3.36,4.08,4.37,6.54,1.02,2.44,1.53,5.03,1.53,7.71s-.51,5.26-1.53,7.7c-1.01,2.45-2.49,4.65-4.37,6.54-1.89,1.89-4.09,3.36-6.54,4.38-2.44,1.01-5.04,1.52-7.71,1.52Z"/>
      <path class="cls-1" d="M22.39,36.13c9.41,0,17.05-7.63,17.05-17.05S31.8,2.05,22.39,2.05,5.34,9.67,5.34,19.09s7.63,17.05,17.05,17.05Z"/>
      <path class="cls-2" d="M22.39,2.35C13.17,2.35,5.66,9.86,5.66,19.09s7.51,16.73,16.73,16.73,16.73-7.5,16.73-16.73S31.62,2.35,22.39,2.35h0ZM22.39,36.44c-9.57,0-17.35-7.78-17.35-17.35S12.82,1.74,22.39,1.74s17.35,7.79,17.35,17.35-7.78,17.35-17.35,17.35Z"/>
      <path class="cls-2" d="M1.63,27.32c-.14,0-.27-.1-.31-.24-.02-.17.08-.33.24-.37,5.76-1.15,10.5-4.49,13.37-9.39,2.89-4.93,3.49-11,1.67-16.64-.05-.16.04-.33.2-.38.17-.05.34.03.39.19,1.88,5.82,1.25,12.07-1.73,17.15-2.96,5.05-7.85,8.49-13.78,9.69h-.06Z"/>
      <path class="cls-2" d="M15.77,4.63c-.14,0-.26-.1-.3-.24-.04-.16.06-.33.23-.37l3.9-.93c.17-.04.33.06.37.23.03.17-.06.34-.23.37l-3.9.93s-.05.01-.08.01Z"/>
      <path class="cls-2" d="M20.05,8.93h-.02l-4.2-.24c-.17,0-.3-.15-.29-.32,0-.17.15-.29.3-.29h.02l4.21.23c.16.01.3.16.29.32s-.14.3-.3.3Z"/>
      <path class="cls-2" d="M19.25,14.16s-.07-.01-.1-.02l-4.28-1.57c-.15-.05-.24-.24-.18-.39.06-.16.24-.24.4-.18l4.26,1.56c.17.06.24.23.18.4-.04.12-.16.2-.29.2Z"/>
      <path class="cls-2" d="M17.29,18.8c-.05,0-.1-.02-.16-.04l-4.04-2.34c-.15-.08-.2-.27-.11-.42.09-.15.27-.2.42-.11l4.05,2.34c.15.09.2.27.12.42-.06.1-.17.15-.27.15Z"/>
      <path class="cls-2" d="M14.26,22.82c-.08,0-.15-.02-.2-.07l-3.5-2.92c-.13-.11-.15-.3-.04-.43.12-.13.31-.15.43-.03l3.49,2.91c.13.11.15.3.04.43-.06.08-.15.11-.24.11Z"/>
      <path class="cls-2" d="M10.27,26.13c-.09,0-.19-.04-.25-.13l-2.6-3.53c-.09-.13-.07-.33.07-.42.14-.1.33-.08.43.06l2.6,3.53c.1.14.07.33-.06.43-.06.03-.12.06-.18.06Z"/>
      <path class="cls-2" d="M5.45,28.33c-.12,0-.24-.09-.28-.21l-1.24-3.67c-.05-.17.04-.34.2-.39.16-.05.33.04.39.19l1.23,3.67c.05.16-.03.34-.19.39-.03,0-.07.02-.11.02Z"/>
      <path class="cls-2" d="M23.25,40.09c-.14,0-.26-.1-.29-.23-1.56-5.9-.78-11.97,2.19-17.08,2.91-5.01,7.68-8.6,13.43-10.11.17-.04.33.06.37.23.04.16-.06.33-.22.37-5.59,1.47-10.22,4.95-13.06,9.82-2.88,4.97-3.64,10.87-2.13,16.61.04.17-.05.33-.22.37-.03.01-.05.02-.08.02Z"/>
      <path class="cls-2" d="M20.77,38.27c-.14,0-.26-.1-.3-.24-.05-.17.06-.33.22-.37l3.93-.93c.16-.05.33.06.37.22.03.17-.06.33-.23.37l-3.92.94s-.05.01-.08.01Z"/>
      <path class="cls-2" d="M24.78,32.96h-.02l-4.58-.26c-.17,0-.3-.15-.29-.32,0-.17.15-.3.32-.29l4.58.25c.16,0,.3.16.29.32,0,.17-.15.3-.3.3Z"/>
      <path class="cls-2" d="M25.68,28.77s-.08,0-.11-.02l-4.58-1.68c-.16-.06-.24-.24-.18-.4.06-.16.24-.24.39-.18l4.59,1.68c.16.06.24.24.18.4-.04.12-.17.2-.29.2Z"/>
      <path class="cls-2" d="M27.54,24.62c-.05,0-.1-.01-.15-.04l-4.34-2.5c-.15-.09-.2-.27-.11-.42.09-.16.27-.2.42-.12l4.35,2.5c.15.09.2.28.11.42-.06.1-.17.16-.27.16Z"/>
      <path class="cls-2" d="M30.21,20.92c-.07,0-.14-.02-.2-.07l-3.75-3.13c-.13-.1-.15-.3-.04-.43.11-.13.3-.15.43-.03l3.75,3.13c.13.1.15.3.03.43-.06.07-.15.11-.23.11Z"/>
      <path class="cls-2" d="M33.46,17.95c-.09,0-.19-.04-.25-.13l-2.67-3.63c-.11-.14-.08-.33.06-.42.14-.1.33-.08.44.06l2.67,3.63c.11.14.08.33-.06.43-.05.04-.12.06-.18.06Z"/>
      <path class="cls-2" d="M37.17,15.66c-.13,0-.25-.09-.3-.21l-1.22-3.6c-.05-.16.03-.34.19-.39.16-.05.34.04.39.19l1.22,3.6c.05.16-.04.34-.19.39-.03.01-.07.02-.09.02Z"/>
    </g>
  </g>
</svg>