<?xml version="1.0" encoding="UTF-8"?>
<svg id="Layer_2" data-name="Layer 2" xmlns="http://www.w3.org/2000/svg" viewBox="0 0 29.68 43.26" fill="currentColor">
  <defs>
    <style>
      .cls-1 {
        fill: #fff;
      }

      .cls-1, .cls-2, .cls-3, .cls-4 {
        fill-rule: evenodd;
      }

      .cls-2 {
        fill: #1a87c7;
      }

      .cls-3 {
        fill: #bdedf8;
      }

      .cls-4 {
        fill: #66ceef;
      }
    </style>
  </defs>
  <g id="_Layer_" data-name="&amp;lt;Layer&amp;gt;">
    <g>
      <path class="cls-1" d="M5.1,12.41l.09,28.51c.24.52.3,1.24,1.43,2.03l20.41-11.76c.84-.49,1.54-1.68,1.54-2.66V6.27s-5.64-4.35-5.64-4.35l-.43-.08-6.14-.1L6.02,7.7l-.91,4.71Z"/>
      <path class="cls-2" d="M5.5,40.86c.03.09.07.18.11.28.15.43.33.91,1.03,1.45l20.23-11.66c.76-.43,1.39-1.53,1.39-2.4V6.42s-5.46-4.21-5.46-4.21l-.37-.07-5.99-.09L6.29,7.9l-.89,4.54.1,28.42h0ZM6.62,43.26c-.06,0-.12-.02-.18-.06-.98-.69-1.23-1.37-1.42-1.86-.03-.11-.07-.2-.11-.3-.02-.04-.03-.08-.03-.13l-.09-28.51s0-.04,0-.06l.91-4.71c.02-.09.07-.17.15-.21L16.2,1.47s.11-.03.15-.04l6.13.1.5.09s.08.03.12.06l5.66,4.35c.07.06.12.15.12.24v22.25c0,1.09-.76,2.38-1.7,2.93l-20.41,11.77s-.1.04-.15.04Z"/>
      <path class="cls-1" d="M25.01,10.32l2.84-1.64c1.41-.76,2.18-1.44.76-2.54l-6-4.68,2.4,3.65v5.22Z"/>
      <path class="cls-2" d="M23.89,2.84l1.37,2.09s.05.11.05.17v4.68s2.38-1.38,2.38-1.38c.65-.36,1.32-.77,1.35-1.17.03-.29-.33-.63-.62-.87l-4.54-3.54h0ZM25.01,10.63c-.05,0-.11-.02-.16-.04-.09-.06-.16-.16-.16-.27v-5.13s-2.34-3.58-2.34-3.58c-.09-.13-.07-.29.04-.39.11-.1.28-.11.4-.02l6,4.68c.62.48.9.94.87,1.4-.05.64-.71,1.13-1.68,1.65l-2.83,1.64c-.05.03-.11.04-.16.04Z"/>
      <path class="cls-3" d="M6.62,42.95l-1.81-1.05c-.4-.33-.42-.53-.47-1.02V10.49c.03-.54.15-.89.38-1.37.32-.59.65-1.01,1.23-1.37L17.13,1.29c1.65-.93,2.56-1.4,4.52-.47,1.58.76,3.01,2.34,3.35,4.28v5.22l-1.95-1.12v-3.89c.04-1.78-1.97-4.02-4.72-2.63l-10.59,6.11c-.58.36-.9.78-1.22,1.37-.23.48-.34.84-.37,1.37v30.39c.03.5.06.7.45,1.03Z"/>
      <path class="cls-2" d="M19.78.61c-.78,0-1.47.36-2.5.94l-11.2,6.46c-.47.3-.77.64-1.1,1.25-.19.42-.3.73-.32,1.24v30.38c.03.44.04.54.34.79l.87.5c0-.07-.02-.14-.02-.21V11.54c.03-.62.17-1.02.4-1.51.32-.6.67-1.08,1.34-1.5l10.6-6.12c1.27-.64,2.53-.63,3.56.02.99.63,1.64,1.78,1.62,2.88v3.7l1.33.77v-4.68c-.3-1.63-1.55-3.22-3.18-4-.7-.33-1.23-.48-1.73-.48h0ZM6.62,43.26c-.05,0-.11-.01-.15-.04l-1.82-1.05c-.52-.42-.57-.71-.62-1.27V10.49c.03-.62.18-1.02.4-1.5.33-.6.67-1.08,1.34-1.5L16.98,1.02c1.76-.99,2.76-1.46,4.8-.48,1.84.88,3.19,2.6,3.53,4.51v5.27c0,.11-.05.21-.15.27-.09.06-.22.06-.31,0l-1.94-1.12c-.1-.06-.16-.16-.16-.27v-3.89c.03-.88-.52-1.84-1.33-2.35-.6-.38-1.59-.68-2.94,0l-10.58,6.1c-.54.35-.82.74-1.1,1.25-.2.42-.3.73-.32,1.24l-.02,30.37c.04.44.05.54.36.79.12.1.15.28.05.41-.05.09-.15.13-.25.13Z"/>
      <path class="cls-4" d="M6.62,42.95l-1.81-1.05c-.4-.33-.42-.53-.47-1.02V10.49c.03-.54.15-.89.38-1.37h0s1.82,1.04,1.82,1.04h0c-.23.49-.34.84-.37,1.38v30.39c.03.5.06.7.45,1.03Z"/>
      <path class="cls-2" d="M4.86,9.55c-.12.29-.18.57-.2.95v30.38c.03.44.04.54.34.79l.87.5c0-.07-.02-.14-.02-.21V11.54c.03-.51.12-.87.29-1.25l-1.28-.74h0ZM6.62,43.26c-.05,0-.11-.01-.15-.04l-1.82-1.05c-.52-.42-.57-.71-.62-1.27V10.49c.03-.62.18-1.02.4-1.5.03-.08.1-.14.19-.17.08-.03.17-.02.24.02l1.82,1.05c.07.04.12.11.14.19.03.08.01.16-.03.24-.2.41-.3.72-.32,1.23l-.02,30.37c.04.44.05.54.36.79.12.1.15.28.05.41-.05.09-.15.13-.25.13Z"/>
      <path class="cls-4" d="M3.12,31.87l-2.49-1.44c-.26-.19-.32-.47-.32-.78v-7.53c.02-.82.53-1.73,1.25-2.17l3.4-1.96,1.2.69,11.87-6.85,1.62.94c-.3-.13-.57-.04-.84.11l-14.76,8.52c-.72.43-1.23,1.35-1.25,2.17v7.53c.01.31.07.59.32.78Z"/>
      <path class="cls-2" d="M4.96,18.35l-3.24,1.87c-.62.37-1.09,1.18-1.1,1.91v7.52c0,.28.06.43.2.54l1.68.96s0-.04,0-.06v-7.54c.03-.95.6-1.94,1.41-2.43l14.77-8.52s.03-.02.05-.03l-.68-.39-11.72,6.76c-.1.06-.22.06-.31,0l-1.04-.6h0ZM3.12,32.17c-.05,0-.1-.01-.15-.04l-2.49-1.44c-.42-.31-.47-.74-.48-1.04v-7.54c.03-.95.6-1.94,1.41-2.43l3.4-1.96c.1-.06.22-.06.31,0l1.04.6,11.72-6.76c.1-.06.21-.06.3,0l1.63.94c.14.08.19.26.12.4-.08.15-.25.21-.4.15-.17-.07-.32-.04-.57.1l-14.75,8.51c-.62.37-1.09,1.18-1.1,1.91v7.52c0,.28.06.43.2.54.13.1.16.28.07.42-.06.09-.15.14-.26.14Z"/>
      <path class="cls-3" d="M20.06,13.6v7.53c0,.79-.57,1.77-1.25,2.17l-14.76,8.52c-.69.4-1.25.07-1.25-.73v-7.53c0-.8.57-1.77,1.25-2.17l14.76-8.52c.69-.4,1.25-.07,1.25.73Z"/>
      <path class="cls-2" d="M20.06,13.6h0,0ZM19.36,13.01c-.11,0-.25.04-.4.13l-14.76,8.51c-.6.34-1.1,1.21-1.1,1.9v7.53c-.01.27.07.46.21.54.14.08.35.05.57-.08l14.76-8.52c.6-.34,1.11-1.22,1.11-1.9v-7.53c0-.27-.08-.47-.22-.54-.04-.03-.11-.04-.18-.04h0ZM3.5,32.28c-.18,0-.34-.04-.49-.12-.33-.2-.52-.58-.52-1.08v-7.53c0-.91.63-1.98,1.42-2.43l14.76-8.52c.42-.24.86-.27,1.19-.08.33.19.52.58.52,1.08v7.53c0,.91-.63,1.98-1.41,2.44l-14.76,8.51c-.24.14-.49.21-.71.21Z"/>
      <path class="cls-4" d="M3.15,22.36l-2.49-1.44c-.2.37-.33.76-.34,1.19v7.53c0,.31.06.59.32.78l2.49,1.44c-.25-.19-.31-.47-.32-.78v-7.53c.01-.42.14-.83.35-1.19Z"/>
      <path class="cls-2" d="M.79,21.36c-.11.25-.17.51-.17.76v7.52c0,.28.06.43.2.53l1.68.97s0-.04,0-.06v-7.54c.02-.36.09-.72.25-1.07l-1.95-1.13h0ZM3.12,32.17c-.05,0-.1-.01-.15-.04l-2.49-1.44c-.42-.31-.47-.74-.48-1.04v-7.54c.02-.46.14-.9.38-1.34.04-.07.11-.13.19-.15.08-.02.17-.01.23.03l2.49,1.44c.15.09.2.27.12.42-.2.34-.3.7-.3,1.04v7.53c0,.28.06.43.2.54.13.1.16.28.07.42-.06.09-.15.14-.26.14Z"/>
    </g>
  </g>
</svg>