<?xml version="1.0" encoding="UTF-8"?>
<svg id="Layer_2" data-name="Layer 2" xmlns="http://www.w3.org/2000/svg" viewBox="0 0 30.07 40.93" fill="currentColor">
  <defs>
    <style>
      .cls-1 {
        fill: #fff;
      }

      .cls-1, .cls-2, .cls-3, .cls-4 {
        fill-rule: evenodd;
      }

      .cls-2 {
        fill: #1a87c7;
      }

      .cls-3 {
        fill: #bdedf8;
      }

      .cls-4 {
        fill: #66ceef;
      }
    </style>
  </defs>
  <g id="_Layer_" data-name="&amp;lt;Layer&amp;gt;">
    <g>
      <path class="cls-3" d="M29.15,2.5l-3.67-2.12C20.75-.75.3,11.62.3,15.75l3.67,2.12c1.52-4.13,9.59-8.9,12.86-10.83,3.1-1.75,9.42-5.23,12.32-4.54Z"/>
      <path class="cls-2" d="M.63,15.58l3.2,1.85c1.86-4.18,9.81-8.86,12.86-10.66,3.75-2.12,8.24-4.44,11.2-4.66l-2.51-1.45C22.17-.02,11.37,5.64,5.05,10.63,2.38,12.74.79,14.52.63,15.58h0ZM3.97,18.18c-.05,0-.1-.02-.15-.04L.15,16.02c-.09-.05-.15-.16-.15-.27C0,14.17,2.54,11.83,4.67,10.14,10.56,5.49,21.93-.78,25.56.08c.02,0,.05.02.08.03l3.67,2.12c.14.08.19.24.14.38-.06.14-.21.22-.35.19-2.9-.69-9.58,3.09-12.1,4.51-3.07,1.81-11.23,6.62-12.73,10.67-.03.08-.1.15-.18.18-.03.01-.07.02-.1.02Z"/>
      <path class="cls-1" d="M3.91,18.38c.49,15.92-2.06,25.63,12.92,21.15,14.97-12.79,12.43-19.56,12.93-36.05.15-5.27-26.01,9.82-25.85,14.91Z"/>
      <path class="cls-2" d="M4.23,18.37c.07,2.34.08,4.5.08,6.59.03,7.15.04,12.31,2.79,14.36,1.83,1.35,4.88,1.34,9.58-.07,12.62-10.79,12.65-17.3,12.69-29.1,0-2.1.02-4.27.09-6.69,0-.39-.16-.54-.29-.62-1.35-.79-6.75,1.25-12.87,4.87-7.06,4.17-12.13,8.65-12.06,10.66h0ZM10.74,40.93c-1.68,0-3-.37-4.01-1.12-3-2.23-3.02-7.52-3.04-14.84,0-2.09,0-4.24-.08-6.57h0c-.09-2.64,6.15-7.53,12.37-11.2,5.01-2.96,11.55-6.02,13.5-4.87.28.17.61.5.59,1.17-.08,2.42-.08,4.58-.09,6.67-.04,11.99-.07,18.6-12.95,29.61-.03.03-.08.05-.11.06-2.47.74-4.5,1.11-6.18,1.11Z"/>
      <path class="cls-3" d="M16.83,22.88v16.64s0,0,0,0c10.73-9.16,12.46-15.24,12.77-24.01l-12.77,7.37Z"/>
      <path class="cls-2" d="M17.13,23.06v15.79c9.72-8.44,11.76-14.19,12.13-22.8l-12.13,7h0ZM16.82,39.83c-.06,0-.12-.02-.18-.05-.08-.06-.13-.15-.13-.25v-16.64c0-.11.06-.21.15-.27l12.77-7.37c.1-.06.22-.06.31,0,.09.06.16.16.15.28-.32,9.24-2.33,15.23-12.87,24.23-.03.02-.06.04-.09.05-.04.01-.07.02-.11.02Z"/>
      <path class="cls-3" d="M3.91,18.38c.14,4.51.03,8.53.16,11.86l12.76-7.36V7.04c-6.49,3.75-12.99,8.79-12.92,11.34Z"/>
      <path class="cls-2" d="M4.23,18.37c.07,2.34.08,4.5.08,6.59.01,1.68.01,3.29.05,4.75l12.16-7.02V7.57c-7.22,4.23-12.36,8.73-12.29,10.79h0ZM4.07,30.55c-.05,0-.1-.01-.16-.04-.09-.06-.15-.15-.16-.26-.05-1.61-.06-3.4-.07-5.29,0-2.08,0-4.24-.08-6.58h0c-.09-2.76,6.5-7.83,13.07-11.61.09-.06.21-.06.3,0,.09.05.15.16.15.27v15.84c0,.11-.06.21-.15.27l-12.77,7.36s-.09.04-.15.04Z"/>
      <path class="cls-4" d="M.3,15.73c.06-.26.14-.55.24-.86,1.21-2.52,6.87-6.73,12.59-9.97l2.19,1.26,1.51.87c-3.29,1.93-11.34,6.7-12.86,10.83L.3,15.75v-.02Z"/>
      <path class="cls-2" d="M.66,15.6l3.16,1.83c1.77-3.98,9.08-8.43,12.4-10.38l-3.09-1.78C6.94,8.8,1.88,12.8.82,15.01c-.05.19-.11.39-.15.59h0ZM3.97,18.18c-.05,0-.1-.02-.15-.04L.15,16.02c-.09-.06-.15-.17-.15-.28,0-.02,0-.06.01-.08.06-.26.14-.56.23-.87,1.33-2.79,7.35-7.09,12.74-10.15.1-.06.21-.05.31,0l3.69,2.13c.09.05.15.16.15.27s-.06.21-.15.26c-3.08,1.81-11.24,6.62-12.73,10.67-.03.08-.1.15-.18.18-.03.01-.07.02-.1.02Z"/>
      <path class="cls-3" d="M.3,15.75l.3,15.37c.11,5.97,2.24,6.11,6.69,8.68-2.48-1.73-2.89-4.59-3.12-7.54l-.2-14.4L.3,15.75Z"/>
      <path class="cls-2" d="M.63,16.29l.28,14.83c.1,4.86,1.51,5.69,4.62,7.36-1.2-1.71-1.48-3.91-1.66-6.19l-.2-14.24-3.04-1.76h0ZM7.29,40.12c-.05,0-.11-.02-.15-.04-.65-.37-1.24-.69-1.79-.99-3.3-1.78-4.96-2.68-5.07-7.96L0,15.76c0-.11.05-.21.15-.27.1-.06.22-.06.31,0l3.67,2.12c.1.06.15.15.16.26l.2,14.4c.23,2.9.63,5.65,2.99,7.3.13.09.16.28.08.42-.06.09-.16.14-.26.14Z"/>
      <path class="cls-4" d="M.54,28.18l3.53,2.06h0s-.01-.08-.01-.08c0-.26.03-.54.08-.84l-.17-11.46L.3,15.75l.24,12.43Z"/>
      <path class="cls-2" d="M.84,28l2.93,1.71c.01-.15.03-.29.06-.44l-.17-11.22-3.04-1.76.22,11.71h0ZM4.06,30.55c-.05,0-.1-.01-.15-.04l-3.53-2.06c-.09-.06-.15-.15-.15-.26L0,15.76c0-.11.05-.21.15-.27.1-.06.22-.06.31,0l3.67,2.12c.1.06.15.15.16.26l.15,11.45c-.05.35-.08.61-.07.84v.08c0,.11-.06.22-.16.27-.04.03-.11.04-.16.04Z"/>
    </g>
  </g>
</svg>