<?xml version="1.0" encoding="UTF-8"?>
<svg id="Layer_2" data-name="Layer 2" xmlns="http://www.w3.org/2000/svg" viewBox="0 0 36.1 41.04" fill="currentColor">
  <defs>
    <style>
      .cls-1 {
        fill: #fff;
      }

      .cls-1, .cls-2, .cls-3, .cls-4 {
        fill-rule: evenodd;
      }

      .cls-2 {
        fill: #1a87c7;
      }

      .cls-3 {
        fill: #bdedf8;
      }

      .cls-4 {
        fill: #66ceef;
      }
    </style>
  </defs>
  <g id="_Layer_" data-name="&amp;lt;Layer&amp;gt;">
    <g>
      <path class="cls-4" d="M35.04,16.23v4.5c0-.5-.13-.84-.29-.74-11.1,6.41-16.93,9.78-28.03,16.18-.16.09-.29.57-.29,1.08v-4.5c0,.5.13.83.29.74,11.1-6.41,16.93-9.78,28.03-16.19.16-.09.29-.57.29-1.08Z"/>
      <path class="cls-2" d="M6.73,33.81v2l27.86-16.09s.09-.04.14-.05v-1.99L6.87,33.76s-.09.04-.14.05h0ZM6.42,37.57h0c-.17,0-.31-.14-.31-.31v-4.5c0-.17.14-.31.31-.31h0c.17,0,.31.14.31.31,0,.16.02.28.03.36l27.83-16.07s.13-.38.14-.81c0-.17.14-.3.31-.3h0c.17,0,.31.14.31.31v4.5c0,.17-.14.31-.31.31h0c-.17,0-.31-.14-.31-.31,0-.16-.01-.28-.03-.36L6.87,36.44s-.13.38-.14.82c0,.17-.14.31-.31.31Z"/>
      <path class="cls-3" d="M6.42,32.25c-.16.09-.3.33-.3.51v6.59c0,1.23.87,1.73,1.93,1.12l25.35-14.64c1.06-.61,1.93-2.12,1.93-3.34v-6.59c0-.19-.13-.27-.3-.17-10.28,5.94-17.86,10.31-28.62,16.52Z"/>
      <path class="cls-2" d="M6.58,32.52c-.07.04-.14.17-.14.25v6.59c0,.48.15.83.41.98.26.15.64.1,1.06-.13l25.35-14.64c.96-.56,1.78-1.96,1.78-3.08v-6.4L6.58,32.52h0ZM7.2,41.04c-.24,0-.46-.06-.66-.17-.47-.27-.72-.8-.72-1.51v-6.59c0-.3.19-.63.45-.78h0l28.61-16.52c.18-.1.36-.11.52-.02.15.09.24.25.24.46v6.59c0,1.33-.93,2.95-2.09,3.61l-25.35,14.63c-.35.2-.7.31-1.01.31Z"/>
      <path class="cls-3" d="M35.79,17.74V5.31c0-1.23-.86-1.73-1.93-1.11l-25.35,14.64c-1.06.61-1.93,2.11-1.93,3.34v12.43c0,.19.14.27.3.17l11.92-6.88v-.66c0-.47.33-1.05.74-1.29l3.29-1.9c.41-.23.74-.04.74.43v.66l11.92-6.88c.16-.1.3-.33.3-.52Z"/>
      <path class="cls-2" d="M34.72,4.24c-.21,0-.45.08-.7.22l-25.35,14.63c-.96.56-1.78,1.97-1.78,3.08v12.24l11.6-6.7v-.48c0-.58.39-1.26.89-1.55l3.29-1.9c.29-.17.6-.19.83-.05.24.14.37.41.37.75v.13l11.46-6.62c.07-.04.14-.17.14-.25V5.31c0-.48-.15-.82-.41-.98-.1-.06-.22-.09-.35-.09h0ZM6.75,35.12c-.08,0-.16-.02-.23-.06-.16-.09-.24-.25-.24-.46v-12.43c0-1.33.94-2.95,2.08-3.61L33.71,3.93c.62-.35,1.21-.4,1.67-.13.46.27.72.81.72,1.51v12.43c0,.3-.19.63-.45.78l-11.92,6.88c-.09.06-.21.06-.31,0-.1-.05-.16-.16-.16-.27v-.66c0-.12-.03-.19-.07-.21-.03-.02-.11-.01-.21.05l-3.29,1.9c-.31.18-.58.66-.58,1.02v.66c0,.11-.06.21-.15.27l-11.92,6.88c-.09.06-.19.08-.29.08Z"/>
      <path class="cls-1" d="M18.34,27.33c0-.96.47-1.49.9-1.77l3.13-1.8c.19-.1.33-.14.53-.05l.69.4c-.2-.09-.34-.04-.53.05l-3.29,1.9c-.66.38-.72.77-.74,1.29v2.31c.01.21.04.36.22.48l-.69-.4c-.25-.17-.56-.31-.56-.81v-.57l.34-.19v-.83Z"/>
      <path class="cls-2" d="M18.34,28.16h0,0ZM18.32,28.53v.39c0,.28.12.35.33.49l.08.06v-2.13c.02-.59.11-1.1.9-1.55l3.13-1.81h0s-.07-.03-.23.05l-3.12,1.8c-.33.22-.75.66-.75,1.5v.83c0,.11-.06.21-.15.27l-.18.1h0ZM19.25,30.44c-.05,0-.1-.01-.15-.04l-.79-.47c-.24-.16-.61-.4-.61-1.01v-.57c0-.11.06-.21.15-.27l.18-.1v-.65c0-1.18.66-1.78,1.05-2.02l3.14-1.81c.24-.13.5-.21.81-.06l.71.41c.14.08.19.26.12.41-.08.15-.26.21-.4.14-.06-.03-.09-.04-.25.05l-3.28,1.89c-.53.31-.57.58-.59,1.03v2.29c0,.17.03.19.08.23.14.09.17.28.09.42-.06.09-.16.14-.26.14Z"/>
      <path class="cls-1" d="M23.81,26.23v.66c0,.47-.33,1.05-.74,1.29l-3.29,1.9c-.41.24-.74.05-.74-.43v-2.31c0-.47.33-1.05.74-1.29l3.29-1.9c.41-.24.74-.04.74.43v1.64Z"/>
      <path class="cls-2" d="M23.39,24.36s-.1.02-.17.06l-3.29,1.9c-.31.18-.59.65-.59,1.02v2.31c0,.12.03.2.06.21.03.02.11,0,.22-.05l3.29-1.9c.31-.18.59-.66.59-1.02v-2.31c0-.12-.03-.2-.06-.22-.01,0-.02,0-.04,0h0ZM19.44,30.49c-.13,0-.24-.03-.35-.09-.24-.14-.37-.41-.37-.75v-2.31c0-.58.39-1.26.9-1.55l3.29-1.9c.29-.17.6-.19.83-.05.24.14.37.41.37.75v2.31c0,.58-.39,1.27-.9,1.55l-3.29,1.9c-.16.09-.33.14-.48.14Z"/>
      <path class="cls-4" d="M28.81.37c-.41-.16-.86,0-1.23.2L2.24,15.2c-1.08.64-1.92,2.09-1.93,3.34l.04,17.87c0,.35.23.63.53.82l5.82,3.36c-.44-.31-.55-.72-.57-1.25v-5.02c0,.09.01.13.09.19l.46.27c-.08-.06-.08-.1-.09-.19v-12.66c.11-1.18.91-2.51,1.93-3.11l25.35-14.64c.47-.26.88-.36,1.36-.13L28.81.37Z"/>
      <path class="cls-2" d="M28.45.62c-.21,0-.45.07-.72.22L2.39,15.47c-.98.58-1.76,1.93-1.78,3.08l.04,17.87c0,.26.21.45.39.56l4.81,2.78c-.02-.13-.03-.27-.03-.4v-5.02c0-.16.13-.3.29-.31.06,0,.12.01.17.04v-12.13c.12-1.32.99-2.73,2.08-3.37L33.71,3.93c.11-.06.24-.12.36-.17l-5.39-3.1c-.07-.03-.15-.04-.23-.04h0ZM6.69,40.91c-.05,0-.11-.01-.15-.04l-5.82-3.36c-.44-.28-.68-.66-.68-1.09l-.04-17.87c.02-1.37.91-2.92,2.08-3.61L27.43.3c.56-.31,1.06-.38,1.49-.22.01,0,.03.01.04.02l6.42,3.69c.14.08.2.26.12.41-.08.15-.26.2-.41.13-.34-.16-.63-.13-1.08.13l-25.34,14.63c-.91.54-1.67,1.78-1.77,2.87v12.64c.11.1.13.26.04.39-.09.13-.28.15-.42.07l-.09-.05v4.34c.01.52.12.78.43,1,.14.09.17.28.08.42-.06.09-.16.14-.26.14Z"/>
      <path class="cls-1" d="M12.37,13.48l-1.05-.61c0-.56-.05-2.2.04-2.74.18-1.1.93-2.3,1.89-2.87l7.4-4.26c.38-.18.79-.23,1.17-.03l1.05.6c-.49-.23-.9-.12-1.37.13l-7.2,4.16c-1.08.64-1.92,2.09-1.93,3.34v2.27Z"/>
      <path class="cls-2" d="M11.63,12.69l.43.25v-1.74c.02-1.36.91-2.92,2.08-3.61l7.21-4.16c.11-.06.24-.13.37-.18l-.05-.03c-.24-.13-.54-.12-.89.04l-7.38,4.25c-.85.51-1.57,1.6-1.74,2.65-.07.4-.05,1.52-.04,2.19v.33h0ZM12.37,13.79c-.05,0-.1-.01-.15-.04l-1.05-.61c-.09-.06-.15-.16-.15-.27v-.5c-.01-.78-.03-1.84.04-2.3.2-1.22,1.03-2.49,2.04-3.09l7.4-4.27c.55-.25,1.04-.26,1.46-.04l1.06.61c.14.08.19.27.12.41-.08.14-.25.2-.41.13-.34-.16-.62-.13-1.08.13l-7.2,4.16c-.98.58-1.76,1.93-1.77,3.08v2.27c0,.11-.06.21-.15.27-.05.03-.1.04-.16.04Z"/>
      <polygon class="cls-1" points="22.09 7.87 21.04 7.26 21.04 5.19 21.03 5.1 21.03 5.02 21 4.95 20.98 4.89 20.95 4.83 20.91 4.78 20.87 4.74 20.82 4.71 21.87 5.31 21.92 5.34 21.96 5.38 22 5.43 22.03 5.49 22.05 5.55 22.07 5.63 22.08 5.71 22.09 5.79 22.09 7.87"/>
      <path class="cls-2" d="M21.35,7.09l.43.25v-1.66s.25-.18.25-.18l-.3.09-.38-.22v1.72h0ZM22.09,8.18c-.05,0-.1-.02-.15-.04l-1.05-.61c-.09-.05-.15-.16-.15-.26v-2.2s.04-.03.04-.03l-.1-.06h0c-.13-.1-.18-.28-.09-.42.09-.14.26-.19.4-.11l1.05.61s.06.04.07.05c.01.01.1.1.12.11,0,.01.05.07.06.08,0,.02.05.08.05.1,0,.01.03.09.03.1,0,.01.02.09.03.1l.02.19v2.09c0,.11-.06.21-.15.27-.05.03-.1.04-.16.04Z"/>
      <path class="cls-1" d="M13.73,10.62v2.08l-1.36.79v-2.27c0-1.23.87-2.73,1.93-3.34l7.2-4.16c1.06-.61,1.93-.11,1.93,1.11v2.27l-1.35.78v-2.08c0-.47-.33-.66-.74-.43l-6.88,3.97c-.41.24-.74.81-.74,1.28Z"/>
      <path class="cls-2" d="M13.73,12.69h0,0ZM22.36,3.75c-.21,0-.45.08-.7.22l-7.21,4.16c-.96.56-1.77,1.97-1.77,3.08v1.74l.74-.43v-1.9c0-.58.39-1.26.9-1.55l6.88-3.97c.29-.17.59-.19.83-.05.24.14.37.41.37.75v1.54l.73-.42v-2.1c0-.48-.15-.83-.41-.98-.1-.06-.22-.09-.35-.09h0ZM12.37,13.79c-.05,0-.1-.01-.15-.04-.09-.06-.15-.16-.15-.26v-2.27c0-1.33.94-2.95,2.09-3.61l7.21-4.16c.61-.35,1.2-.4,1.67-.13.46.27.72.81.72,1.52v2.27c0,.11-.06.21-.15.27l-1.35.78c-.09.06-.21.06-.31,0-.1-.06-.16-.16-.16-.27v-2.08c0-.12-.03-.19-.06-.21-.03-.02-.11-.01-.22.05l-6.88,3.97c-.31.18-.59.66-.59,1.02v2.08c0,.11-.06.21-.15.27l-1.36.79s-.1.04-.16.04Z"/>
      <path class="cls-4" d="M.85,16.68c-.33.58-.53,1.19-.55,1.86v17.45c.02.53.11.93.57,1.25l5.82,3.36c-.46-.32-.54-.72-.57-1.25v-5.02c.02.18.07.19.22.27l.33.19c-.08-.06-.08-.1-.09-.19v-12.43c.02-.68.22-1.28.55-1.86l-6.28-3.63Z"/>
      <path class="cls-2" d="M.98,17.11c-.24.49-.35.95-.36,1.44v17.44c.02.48.09.76.43,1l4.8,2.77c-.02-.13-.03-.26-.03-.4v-5.03c0-.16.13-.3.29-.31.07,0,.12.01.17.04v-11.9c.01-.59.15-1.16.44-1.75l-5.75-3.32h0ZM6.69,40.91c-.05,0-.11-.01-.15-.04l-5.82-3.36c-.62-.43-.7-.98-.72-1.5v-17.46c.02-.68.2-1.34.58-2.01.04-.07.11-.13.19-.15.08-.02.16-.01.23.03l6.28,3.63c.15.08.2.27.11.42-.33.59-.49,1.14-.51,1.72v12.42c.12.1.14.26.05.39-.09.13-.28.15-.42.07l-.09-.05v4.34c.02.48.09.76.43,1,.14.09.17.28.09.42-.06.09-.16.14-.26.14Z"/>
    </g>
  </g>
</svg>