<?xml version="1.0" encoding="UTF-8"?>
<svg id="Layer_2" data-name="Layer 2" xmlns="http://www.w3.org/2000/svg" viewBox="0 0 30.81 41.78" fill="currentColor">
  <defs>
    <style>
      .cls-1 {
        fill: #fff;
      }

      .cls-1, .cls-2, .cls-3, .cls-4 {
        fill-rule: evenodd;
      }

      .cls-2 {
        fill: #1a87c7;
      }

      .cls-3 {
        fill: #bdedf8;
      }

      .cls-4 {
        fill: #66ceef;
      }
    </style>
  </defs>
  <g id="_Layer_" data-name="&amp;lt;Layer&amp;gt;">
    <g>
      <path class="cls-4" d="M10.64,37.82l-3.48-2.01c4.09,2.3,9.2-1.57,11.79-4.54,3.64-4.16,6.86-11.25,5.48-16.77-.39-1.62-1.23-3.06-2.7-3.94l3.67,2.13c3.67,2.34,3.12,8.26,1.96,11.89-1.7,5.39-6.26,11.91-11.84,13.58-1.62.5-3.33.52-4.87-.34Z"/>
      <path class="cls-2" d="M10.8,37.55c1.31.74,2.88.84,4.64.31,5.37-1.62,9.9-7.95,11.61-13.37,1.28-4,1.55-9.41-1.81-11.54l-1.49-.86c.42.66.76,1.43,1,2.33,1.41,5.73-1.89,12.85-5.55,17.04-2.49,2.84-6.24,5.55-9.69,5.34l1.31.75h0ZM13.34,38.82c-1.02,0-1.99-.24-2.86-.73h0l-3.49-2.02c-.16-.08-.21-.27-.13-.42.11-.15.29-.2.42-.11,3.98,2.23,9.07-1.76,11.45-4.47,3.67-4.2,6.71-11.22,5.4-16.5-.45-1.73-1.31-2.99-2.57-3.74-.16-.09-.18-.28-.1-.42.08-.15.26-.2.42-.11l3.67,2.12c3.67,2.33,3.41,8.06,2.1,12.26-1.76,5.57-6.45,12.1-12.03,13.78-.81.24-1.55.37-2.28.37Z"/>
      <path class="cls-1" d="M16.82,12.82c-5.61,3.24-10.17,11.13-10.17,17.62s4.56,9.12,10.17,5.87c5.63-3.25,10.17-11.13,10.17-17.62s-4.53-9.12-10.17-5.88Z"/>
      <path class="cls-2" d="M21.38,11.74c-1.36,0-2.86.45-4.4,1.36-5.53,3.18-10.01,10.97-10.01,17.35,0,3.02,1,5.27,2.83,6.32,1.81,1.05,4.27.8,6.86-.71,5.53-3.19,10.03-10.98,10.03-17.35,0-3.03-1.02-5.27-2.83-6.32-.73-.43-1.6-.64-2.49-.64h0ZM12.29,38.01c-1.02,0-1.96-.23-2.8-.72-2.02-1.17-3.14-3.6-3.14-6.85,0-6.57,4.64-14.6,10.32-17.89,2.83-1.62,5.48-1.88,7.52-.71,2.02,1.17,3.12,3.6,3.12,6.86,0,6.57-4.64,14.59-10.32,17.88-1.65.96-3.25,1.43-4.69,1.43Z"/>
      <path class="cls-4" d="M14.44,8.65c2.57-1.44,5.9-2.49,8.67-1l3.51,2.02c-5.14-2.57-11.24,2.19-14.41,5.9-4.27,4.96-7.91,13.09-6.63,19.69.45,2.14,1.39,4.01,3.22,5.23-.81-.48-3.25-1.82-3.88-2.29-4.01-3.03-3.38-9.77-2.1-13.97,1.83-6.09,6.05-12.31,11.61-15.58Z"/>
      <path class="cls-2" d="M14.6,8.91c-5.11,3.03-9.51,8.93-11.48,15.4-1.36,4.56-1.68,10.86,1.96,13.63.31.23,1,.64,1.73,1.05-.73-.99-1.23-2.22-1.52-3.68-1.34-6.78,2.51-15.09,6.68-19.94,3.09-3.63,7.89-7.15,12.31-6.69l-1.31-.76c-2.8-1.5-6.11-.28-8.38,1h0ZM8.81,40.8c-.05,0-.11-.02-.16-.04-.16-.11-.45-.26-.76-.43-1.1-.64-2.65-1.5-3.15-1.89-3.93-2.96-3.69-9.33-2.2-14.31,1.99-6.61,6.5-12.65,11.74-15.75h0c2.41-1.37,5.95-2.64,8.99-1.01l3.51,2.03c.13.09.18.27.1.42-.08.15-.26.2-.39.13-4.72-2.34-10.51,1.68-14.07,5.82-4.03,4.74-7.81,12.84-6.52,19.42.47,2.31,1.47,3.96,3.09,5.04.13.09.18.28.08.42-.05.09-.16.15-.26.15Z"/>
      <polygon class="cls-4" points="10.48 37.72 6.97 35.69 7.05 35.75 7.16 35.81 10.64 37.82 10.56 37.77 10.48 37.72"/>
      <path class="cls-2" d="M10.64,38.13c-.05,0-.1,0-.16-.03l-3.67-2.14c-.16-.09-.18-.27-.11-.42.08-.15.26-.19.42-.1l3.48,2.02h.03s.16.1.16.1c.16.09.21.28.1.43-.05.1-.16.15-.26.15Z"/>
      <polygon class="cls-4" points="25.21 12.59 21.72 10.57 21.62 10.52 21.54 10.47 25.05 12.49 25.13 12.54 25.21 12.59"/>
      <path class="cls-2" d="M25.21,12.9c-.05,0-.11-.01-.13-.04l-3.69-2.12c-.13-.09-.18-.27-.11-.42.08-.15.26-.2.39-.12l.18.1,3.51,2.02c.16.09.21.27.11.42-.05.1-.16.16-.26.16Z"/>
      <path class="cls-2" d="M15.41,36.32s-.05,0-.08,0c-.18-.04-.29-.21-.24-.37l3.35-12.84c.03-.17.21-.26.37-.22.16.04.26.21.24.37l-3.35,12.84c-.03.14-.16.23-.29.23Z"/>
      <polygon class="cls-3" points="19.44 24.53 18.53 26.47 12.05 24.62 12.95 22.69 19.44 24.53"/>
      <path class="cls-2" d="M12.47,24.42l5.9,1.68.65-1.36-5.89-1.68-.66,1.37h0ZM18.53,26.78s-.05,0-.08-.01l-6.47-1.85c-.11-.03-.16-.09-.21-.17-.03-.09-.03-.18,0-.26l.92-1.93c.05-.14.21-.21.37-.17l6.47,1.84c.1.03.16.09.21.17.03.08.03.18-.03.25l-.89,1.94c-.05.11-.16.18-.29.18Z"/>
      <polygon class="cls-4" points="17.16 28.39 16.38 27.94 23.9 14.91 24.45 15.22 24.68 15.37 17.16 28.39"/>
      <path class="cls-2" d="M16.8,27.83l.26.15,7.2-12.49-.26-.15-7.21,12.49h0ZM17.16,28.7c-.05,0-.1-.02-.16-.04l-.79-.45c-.08-.04-.13-.11-.16-.19,0-.08,0-.16.05-.23l7.52-13.02c.03-.07.1-.12.18-.15.08-.02.16,0,.24.04l.79.45c.08.04.13.11.13.19.03.08.03.16-.03.23l-7.52,13.03c-.05.1-.16.16-.26.16Z"/>
      <path class="cls-4" d="M22.14,7.95l-4.11-2.38c1.02-2.55,4.06-6.02,6.39-5.12l4.11,2.38c-2.91-.64-5.45,2.78-6.39,5.12Z"/>
      <path class="cls-2" d="M18.42,5.44l3.59,2.08c.89-2.04,2.91-4.69,5.29-5.03l-3.04-1.77c-1.99-.76-4.77,2.26-5.84,4.73h0ZM22.14,8.26c-.05,0-.1-.02-.13-.04l-4.14-2.38c-.13-.08-.18-.24-.13-.38,1.13-2.8,4.3-6.25,6.79-5.29l4.17,2.4c.13.08.18.24.13.37-.05.15-.21.23-.34.19-2.75-.59-5.16,2.71-6.05,4.94-.03.08-.08.15-.18.18-.03,0-.05.02-.11.02Z"/>
      <polygon class="cls-4" points="23.56 8.85 22.87 8.46 24.47 5.21 25.15 5.6 23.56 8.85"/>
      <path class="cls-2" d="M23.29,8.34l.13.08,1.34-2.69-.16-.09-1.31,2.69h0ZM23.56,9.16c-.05,0-.11,0-.16-.03l-.68-.4c-.13-.08-.18-.25-.1-.4l1.6-3.24c.03-.08.1-.14.18-.16.08-.03.16-.02.24.02l.68.39c.13.08.18.25.13.4l-1.62,3.25c-.03.07-.11.13-.18.16-.03,0-.05,0-.08,0Z"/>
      <path class="cls-4" d="M26.33,6.02l-1.68,3.35c-.37-.18-.76-.31-1.15-.42l1.65-3.35,1.18.42Z"/>
      <path class="cls-2" d="M23.95,8.75c.18.07.39.14.58.22l1.36-2.77-.58-.21-1.36,2.76h0ZM24.66,9.68s-.08,0-.13-.03c-.34-.16-.71-.3-1.1-.4-.1-.03-.16-.09-.21-.16-.03-.09-.03-.18.03-.27l1.65-3.33c.05-.14.24-.21.37-.16l1.18.41c.08.03.13.09.18.17.03.09.03.17-.03.25l-1.65,3.36c-.05.11-.16.17-.29.17Z"/>
      <path class="cls-4" d="M11.95,12.94c-1.15-.66-4.17-2.63-5.14-2.71-4.24-.35-8.41,8.35-5.58,10.62l4.11,2.38c-3.12-3.42,2.62-12.4,6.6-10.29Z"/>
      <path class="cls-2" d="M6.58,10.52c-2.17,0-4.32,2.5-5.34,5.07-.89,2.24-.81,4.22.18,5.01l3.04,1.76c-.84-2.14.18-5.19,1.86-7.33,1.26-1.63,2.7-2.57,4.03-2.7-1.26-.76-2.96-1.75-3.56-1.8-.08,0-.16,0-.21,0h0ZM5.35,23.54c-.05,0-.11-.02-.16-.04l-4.11-2.38c-1.28-1.02-1.42-3.21-.42-5.75,1.15-2.86,3.64-5.66,6.18-5.45.79.06,2.49,1.08,4.32,2.2.37.22.71.42.94.56.16.09.21.27.1.42-.08.15-.26.2-.39.12-1.73-.91-3.72.54-5.03,2.2-1.83,2.38-2.8,5.88-1.2,7.62.1.11.1.29,0,.4-.05.08-.13.12-.24.12Z"/>
      <path class="cls-3" d="M6.16,15.75c-1.91,2.78-2.25,6.13-.81,7.48.16.16.34.27.55.36,1.55-3.74,3.88-7.29,6.63-10.09-.08-.12-.18-.24-.29-.34-1.47-1.35-4.19-.2-6.08,2.58Z"/>
      <path class="cls-2" d="M6.16,15.75l.26.17c-1.83,2.66-2.2,5.83-.86,7.08.05.05.13.1.18.15,1.55-3.57,3.8-6.99,6.39-9.67-.03-.03-.08-.07-.1-.09-.42-.38-.94-.54-1.57-.47-1.34.15-2.88,1.29-4.03,3l-.26-.17h0ZM5.9,23.9c-.05,0-.1-.01-.13-.03-.24-.11-.45-.24-.63-.42-1.57-1.48-1.26-4.94.76-7.88,1.28-1.87,2.96-3.1,4.48-3.26.81-.09,1.52.12,2.07.63.13.12.24.24.34.38.08.12.08.3-.03.4-2.7,2.74-5.03,6.28-6.58,9.99-.05.08-.1.14-.18.17-.03,0-.08.02-.1.02Z"/>
      <path class="cls-3" d="M28.53,2.83c1.91.58,2.25,3.52.81,6.56-.18.34-.37.67-.55.98-1.57-1.93-3.88-2.8-6.65-2.42.11-.23.21-.45.31-.69,1.47-3.03,4.19-5.02,6.08-4.43Z"/>
      <path class="cls-2" d="M23.4,7.56c2.12,0,3.98.78,5.34,2.28.13-.19.21-.38.31-.58.89-1.86,1.13-3.77.58-5.01-.26-.58-.65-.96-1.18-1.12h0c-1.78-.55-4.32,1.37-5.71,4.27-.05.07-.08.13-.1.2.26-.03.52-.03.76-.03h0ZM28.8,10.67c-.08,0-.18-.04-.24-.12-1.49-1.84-3.75-2.66-6.37-2.29-.11.01-.21-.03-.29-.12-.05-.08-.08-.2-.05-.3.1-.24.21-.47.31-.71,1.55-3.21,4.38-5.23,6.47-4.6h0c.68.22,1.23.72,1.57,1.47.6,1.41.39,3.47-.6,5.51-.16.35-.34.69-.55,1.02-.05.08-.13.14-.24.14h-.03Z"/>
      <path class="cls-3" d="M25.21,12.59c-.94-.55-2.07-.78-3.33-.66-1.23.12-2.54.58-3.96,1.38-1.39.8-2.72,1.89-3.93,3.17-1.26,1.33-2.38,2.87-3.35,4.51-.94,1.65-1.7,3.4-2.23,5.15-.5,1.7-.79,3.39-.79,5.01s.29,2.99.79,4.09c.52,1.16,1.28,2.02,2.23,2.57.97.55,2.1.78,3.35.65,1.21-.12,2.54-.57,3.93-1.37,1.41-.81,2.72-1.89,3.96-3.17,1.26-1.33,2.38-2.87,3.33-4.52.97-1.64,1.73-3.4,2.25-5.15.5-1.69.79-3.38.79-5s-.29-2.99-.79-4.1c-.52-1.15-1.28-2.01-2.25-2.56h0ZM9.02,20.06c2.28-3.94,5.42-7.39,8.91-9.39,3.48-2.01,6.63-2.2,8.91-.89,2.28,1.32,3.69,4.14,3.69,8.15s-1.42,8.47-3.69,12.41c-2.28,3.94-5.42,7.39-8.91,9.4-3.48,2.01-6.63,2.19-8.91.88-2.25-1.31-3.67-4.14-3.67-8.15s1.42-8.46,3.67-12.41h0Z"/>
      <path class="cls-2" d="M22.53,12.21c-.21,0-.42,0-.63.03-1.21.12-2.49.57-3.83,1.33-1.34.78-2.65,1.83-3.88,3.12-1.23,1.3-2.33,2.81-3.3,4.46-.94,1.65-1.68,3.36-2.2,5.09-.5,1.72-.76,3.37-.76,4.92s.26,2.87.73,3.97c.5,1.09,1.2,1.9,2.12,2.42.92.53,1.96.73,3.17.62,1.21-.12,2.49-.57,3.83-1.34,1.34-.77,2.62-1.82,3.85-3.12,1.23-1.3,2.36-2.8,3.3-4.46.94-1.65,1.7-3.35,2.2-5.09.52-1.71.79-3.36.79-4.91s-.26-2.87-.76-3.97c-.5-1.09-1.2-1.91-2.1-2.43h0c-.76-.43-1.6-.64-2.54-.64h0ZM13.31,38.81c-1.02,0-1.99-.24-2.83-.72-1.02-.59-1.81-1.5-2.36-2.71-.52-1.18-.81-2.61-.81-4.22s.26-3.32.81-5.09c.52-1.77,1.28-3.52,2.25-5.22.97-1.7,2.12-3.23,3.38-4.57,1.28-1.35,2.62-2.43,4.03-3.23,1.39-.81,2.75-1.29,4.03-1.42,1.34-.13,2.52.11,3.54.7,1.02.59,1.81,1.5,2.36,2.71.55,1.18.81,2.6.81,4.22s-.26,3.32-.79,5.09c-.52,1.77-1.28,3.53-2.28,5.22-.97,1.69-2.1,3.23-3.38,4.57-1.26,1.34-2.62,2.42-4.01,3.23-1.42.81-2.78,1.29-4.06,1.41-.24.03-.47.03-.71.03h0ZM9.3,20.22h0c2.33-4.08,5.45-7.37,8.78-9.28,3.27-1.89,6.31-2.2,8.59-.89,2.28,1.32,3.54,4.12,3.54,7.88s-1.31,8.18-3.64,12.25c-2.36,4.07-5.48,7.37-8.78,9.29-3.27,1.89-6.34,2.2-8.62.88-2.25-1.31-3.54-4.11-3.54-7.88s1.31-8.18,3.67-12.25h0ZM12.32,41.78c-1.26,0-2.41-.3-3.46-.89-2.46-1.43-3.83-4.42-3.83-8.42s1.34-8.39,3.72-12.56h0c2.41-4.16,5.61-7.54,9.04-9.51,3.46-2,6.71-2.31,9.2-.88,2.46,1.43,3.83,4.41,3.83,8.41s-1.31,8.4-3.72,12.56c-2.41,4.16-5.61,7.54-9.01,9.51-2.04,1.17-3.98,1.77-5.76,1.77Z"/>
    </g>
  </g>
</svg>