<?xml version="1.0" encoding="UTF-8"?>
<svg id="Layer_2" data-name="Layer 2" xmlns="http://www.w3.org/2000/svg" viewBox="0 0 33.11 46.49" fill="currentColor">
  <defs>
    <style>
      .cls-1 {
        fill: #fff;
      }

      .cls-1, .cls-2, .cls-3, .cls-4 {
        fill-rule: evenodd;
      }

      .cls-2 {
        fill: #1a87c7;
      }

      .cls-3 {
        fill: #bdedf8;
      }

      .cls-4 {
        fill: #66ceef;
      }
    </style>
  </defs>
  <g id="_Layer_" data-name="&amp;lt;Layer&amp;gt;">
    <g>
      <path class="cls-1" d="M32.8,32.26v-4.63c0-3.7-4.55-5.04-7.71-5.31-.27.55-.54,1.09-.83,1.61l-.09.17c.82,1.96-2.08,4.83-5.09,5.96-2.22.83-4.58.5-6.74-.33-2.28-.89-3.67-2.14-3.45-3.27-1.59,2.05-3.77,3.58-5.53,5.49-1.66,1.88-2.97,3.64-3.07,6.24v3.76c0,1.39.18,1.76,1.69,2.63,11.69,6.75,30.8-9.59,30.8-12.31Z"/>
      <path class="cls-2" d="M8.66,27.23c-.83.96-1.79,1.83-2.71,2.67-.8.72-1.62,1.46-2.35,2.25-1.51,1.71-2.9,3.47-2.98,6.04v3.75c-.01,1.27.09,1.54,1.53,2.37,6.51,3.76,15.05-.05,19.57-2.66,6.33-3.65,10.77-8.27,10.77-9.39h0v-4.63c0-3.96-5.61-4.82-7.22-4.99-.24.49-.49.97-.74,1.44l-.02.04c.19.57.14,1.21-.17,1.9-.72,1.68-2.84,3.46-5.15,4.32-2.06.77-4.4.65-6.95-.33-1.98-.77-3.24-1.77-3.58-2.78h0ZM8.41,46.49c-2.25,0-4.49-.47-6.56-1.66-1.57-.91-1.85-1.34-1.85-2.9v-3.76c.1-2.79,1.55-4.64,3.16-6.44.75-.81,1.58-1.57,2.38-2.3,1.1-.99,2.22-2.01,3.13-3.18.09-.11.24-.15.36-.09.13.06.21.2.18.34-.18.94,1.09,2.09,3.26,2.93,2.41.93,4.6,1.04,6.51.33,2.13-.8,4.15-2.47,4.81-3.99.26-.59.3-1.12.1-1.56-.04-.09-.03-.18.02-.27l.09-.17c.28-.52.56-1.06.82-1.6.06-.12.18-.18.3-.17,3.87.33,8,1.98,8,5.62v4.63c0,1.6-4.94,6.38-11.08,9.92-3.22,1.86-8.45,4.32-13.63,4.32Z"/>
      <path class="cls-1" d="M32.8,32.26v-4.63c0-3.35-3.72-4.76-6.77-5.21,1.1,1.34.78,3.57,0,4.99-1.89,3.46-6.31,5.74-10.24,5.55-2.9-.14-7.39-1.67-8.87-4.38-1.19,1.12-2.46,2.17-3.56,3.36-1.66,1.88-2.97,3.64-3.07,6.24v3.76c0,1.39.18,1.76,1.69,2.63,11.69,6.75,30.8-9.59,30.8-12.31Z"/>
      <path class="cls-2" d="M6.86,29.06c-.3.28-.61.55-.91.83-.79.72-1.62,1.47-2.35,2.26-1.51,1.71-2.9,3.47-2.98,6.04v3.75c-.01,1.27.09,1.54,1.53,2.37,6.51,3.76,15.05-.05,19.57-2.66,6.33-3.65,10.77-8.27,10.77-9.39h0v-4.63c0-3.21-3.67-4.38-5.83-4.79.69,1.41.39,3.35-.36,4.71-1.89,3.46-6.41,5.91-10.53,5.71-2.72-.13-7.17-1.53-8.92-4.2h0ZM8.41,46.49c-2.25,0-4.49-.47-6.56-1.66-1.57-.91-1.85-1.34-1.85-2.9v-3.76c.1-2.79,1.55-4.64,3.16-6.44.75-.82,1.58-1.57,2.39-2.3.39-.36.79-.71,1.17-1.08.07-.07.16-.09.26-.08.09.01.17.07.23.16,1.45,2.66,6,4.09,8.6,4.22,3.88.2,8.18-2.13,9.96-5.39.75-1.36,1.01-3.45.03-4.64-.08-.1-.1-.24-.03-.35.07-.11.19-.17.31-.15,2.12.31,7.04,1.46,7.04,5.51v4.63c0,1.6-4.94,6.38-11.08,9.92-3.22,1.86-8.45,4.32-13.63,4.32Z"/>
      <path class="cls-1" d="M8.91,26.45c.24-.31.94-1.02,1.13-1.35.37-.64.37-.89.44-1.63,3.22,3.73,10.79,5.91,13.7.63h0c.82,1.96-2.08,4.83-5.09,5.96-2.22.83-4.58.5-6.74-.33-2.28-.89-3.67-2.14-3.45-3.27Z"/>
      <path class="cls-2" d="M9.19,26.58c-.1.92,1.17,2.04,3.28,2.85,2.41.93,4.6,1.04,6.51.33,2.13-.8,4.15-2.47,4.81-3.99.13-.3.2-.57.22-.83-1.06,1.48-2.61,2.36-4.52,2.56-2.92.31-6.52-1.07-8.78-3.33-.05.35-.14.64-.41,1.09-.13.23-.45.58-.76.93-.13.15-.26.29-.35.39h0ZM16.35,30.85c-1.3,0-2.66-.28-4.1-.84-2.53-.98-3.89-2.33-3.64-3.62,0-.05.03-.09.06-.13.09-.12.24-.29.42-.48.26-.29.58-.65.69-.83.3-.51.32-.72.38-1.28l.02-.23c.02-.12.1-.23.22-.26.11-.04.24,0,.32.09,2.09,2.41,5.75,3.94,8.71,3.62,1.99-.21,3.54-1.23,4.49-2.94.05-.1.16-.16.29-.16.11,0,.21.08.27.19.25.61.22,1.3-.11,2.05-.73,1.68-2.84,3.46-5.15,4.32-.9.33-1.85.51-2.85.51Z"/>
      <path class="cls-1" d="M22.39,26.62c1.22-1.17,2.21-3.31,3.16-5.25,1.29-2.66,1.23-5.69,1.24-8.13l-.44-1.45c-.16-.6-.16-1.23-.18-1.84-.01-.79-.03-1.53-.43-1.9-.66-.6-1.7.31-2.91,1.39-.83.73-1.72,1.52-2.7,2.09-.98.57-1.88.81-2.7,1.03h0c-.8.22-1.52.41-2.1.91-.91.77-.88,1.39-.86,2.49.02,1.04.07,2.06-.56,4.28-.07-.5-.18-1-.36-1.48-.17-.44-.39-.88-.72-1.23-.29-.31-.65-.54-1.08-.61-.45-.06-.89.08-1.23.36-.21.17-.37.37-.51.6-.3.51-.4,1.11-.36,1.7.06,1.01.55,2.01,1.02,2.87.11.21-.04.76-.13,1.07,2.32,2.64,5.7,4.44,8.39,4.44,1.19,0,2.61-.49,3.48-1.33Z"/>
      <path class="cls-2" d="M22.39,26.62h0,0ZM10.85,23.44c2.29,2.52,5.5,4.21,8.05,4.21h0c1.18,0,2.5-.5,3.27-1.24h0c1.09-1.06,2.02-2.95,2.9-4.78l.19-.39c1.19-2.44,1.21-5.28,1.22-7.56v-.39l-.43-1.41c-.17-.65-.18-1.33-.19-1.93-.02-.72-.03-1.39-.34-1.68-.45-.41-1.44.46-2.49,1.39-.83.73-1.76,1.55-2.76,2.13-1.01.58-1.94.83-2.76,1.06,0,0-.02,0-.02,0-.78.21-1.46.39-1.99.84-.77.65-.76,1.12-.76,2.15v.27c.03,1.01.04,2.06-.57,4.2-.04.14-.17.23-.31.22-.15-.01-.27-.12-.29-.26-.08-.54-.18-1-.34-1.41-.17-.47-.4-.85-.66-1.13-.18-.2-.5-.45-.9-.51-.36-.05-.7.06-1,.3-.17.14-.31.31-.43.51-.25.42-.36.95-.32,1.52.06.92.51,1.86.98,2.75.11.21.1.6-.06,1.13h0ZM18.9,28.26c-2.75,0-6.22-1.83-8.62-4.55-.07-.08-.09-.19-.06-.3.15-.45.17-.76.15-.84-.5-.94-.98-1.96-1.05-2.99-.04-.69.1-1.34.4-1.87.16-.27.35-.5.58-.68.42-.35.95-.5,1.47-.43.46.07.9.31,1.26.7.32.34.58.79.78,1.34.03.08.06.16.09.25.27-1.26.26-2.03.24-2.77v-.27c-.02-1.04-.03-1.79.96-2.63.63-.53,1.4-.74,2.21-.96,0,0,.02,0,.02,0,.83-.23,1.7-.46,2.63-1,.96-.55,1.82-1.31,2.66-2.05,1.32-1.17,2.46-2.18,3.32-1.39.51.46.52,1.27.54,2.12,0,.59.02,1.2.17,1.77l.43,1.44s.02.06.02.09v.44c-.02,2.34-.03,5.27-1.28,7.83l-.19.38c-.91,1.88-1.86,3.82-3.03,4.95h0c-.9.86-2.35,1.41-3.7,1.41h0Z"/>
      <path class="cls-3" d="M7.54,6.64c-2.14,3.94-.79,14.7,2.91,17.04.08-.2.32-.98.19-1.23-.34-.63-.76-1.49-.93-2.23-.8-3.55,3.42-5.21,4.16.02.63-2.21.58-3.24.56-4.28-.02-1.1-.05-1.72.86-2.49.58-.5,1.3-.69,2.1-.9h0c.83-.23,1.72-.47,2.7-1.03.98-.57,1.88-1.36,2.7-2.09,1.22-1.07,2.25-1.99,2.91-1.39.41.37.42,1.11.43,1.9.02.61.02,1.24.18,1.84l.44,1.45c.13-1.92.09-4.13-.18-5.95-.51-3.52-2.09-3.65-6.42-5.94-.69-.36-1.59-.97-2.93-1.01-3.27-.1-8.11,3.7-9.73,6.3Z"/>
      <path class="cls-2" d="M7.81,6.79c-2.01,3.69-.83,13.72,2.48,16.39.07-.26.1-.51.08-.6-.49-.91-.81-1.68-.95-2.3-.29-1.28.02-2.5.81-3.19.55-.48,1.27-.63,1.93-.39.49.18,1.27.7,1.74,2.19.27-1.26.26-2.03.24-2.77v-.27c-.02-1.04-.03-1.79.96-2.63.63-.53,1.4-.74,2.21-.96,0,0,.02,0,.02,0,.83-.23,1.7-.46,2.63-1,.96-.55,1.82-1.31,2.66-2.05,1.32-1.17,2.46-2.18,3.32-1.39.51.46.52,1.27.54,2.12,0,.43.02.87.08,1.31,0-1.4-.08-2.76-.25-3.91-.4-2.77-1.47-3.3-4.3-4.72-.58-.29-1.23-.61-1.96-1l-.3-.16c-.63-.35-1.41-.78-2.49-.81-3.17-.12-7.89,3.66-9.44,6.15h0ZM10.46,23.98c-.06,0-.12-.02-.17-.05-3.84-2.42-5.24-13.36-3.02-17.45.01,0,.01-.01.01-.01C8.92,3.84,13.73.03,17.14.03c.04,0,.09,0,.14,0,1.23.04,2.12.53,2.77.89l.29.16c.72.38,1.36.7,1.94.99,2.88,1.44,4.19,2.09,4.64,5.18.26,1.73.32,3.93.19,6.02,0,.15-.12.27-.27.29-.15.01-.28-.08-.33-.22l-.45-1.45c-.17-.65-.18-1.33-.19-1.93-.02-.72-.03-1.39-.34-1.68-.45-.41-1.44.46-2.49,1.39-.83.73-1.76,1.55-2.76,2.13-1.01.58-1.94.83-2.76,1.06,0,0-.02,0-.02,0-.78.21-1.46.39-1.99.84-.77.65-.76,1.12-.76,2.15v.27c.03,1.01.04,2.06-.57,4.2-.04.14-.17.23-.31.22-.15-.01-.27-.12-.29-.26-.23-1.59-.82-2.68-1.63-2.98-.44-.16-.92-.07-1.31.27-.48.42-.9,1.33-.61,2.59.13.56.42,1.28.89,2.15.24.43-.15,1.44-.17,1.49-.03.08-.1.15-.19.18-.03.01-.06.02-.09.02Z"/>
      <path class="cls-4" d="M16.66,16.09c1.55-1.94,1.42-2.79,3.76-4.13,2.64-1.51,5.27-2.37,6.66-1.94.07-4.4-2.09-7.68-6-9.03-3.92-1.34-7.71-.68-11,1.8-2.6,1.96-5.33,7.84-3.47,11.33,1.35,1.28,5.1,2.76,7.06,2.69,1.38-.05,2.63-.35,2.99-.73Z"/>
      <path class="cls-2" d="M16.66,16.09h.01-.01ZM6.86,13.93c1.37,1.26,5.04,2.64,6.81,2.58,1.38-.05,2.49-.35,2.76-.62.48-.59.79-1.08,1.07-1.52.63-1,1.09-1.72,2.77-2.68,2.66-1.52,5.03-2.26,6.5-2.05-.06-4.07-2.16-7.11-5.79-8.35C17.2-.01,13.5.6,10.27,3.04c-2.58,1.95-5.11,7.59-3.41,10.89h0ZM13.54,17.12c-2,0-5.73-1.44-7.14-2.78-.02-.02-.04-.05-.05-.08-1.89-3.55.79-9.63,3.56-11.72C13.3-.03,17.2-.66,21.18.7c4.01,1.37,6.28,4.77,6.2,9.32,0,.1-.04.19-.12.25-.08.06-.18.07-.28.04-1.22-.38-3.68.35-6.41,1.91-1.54.88-1.95,1.51-2.57,2.47-.29.45-.61.96-1.11,1.58,0,0,0,.01-.02.02-.49.5-1.96.77-3.2.82-.04,0-.09,0-.14,0Z"/>
      <path class="cls-4" d="M19.62,20.42l-5.07-2.93-.87-.68c.44-.56.91-1.06,1.43-1.56,1.3-1.25,2.71-2.3,4.24-3.26,1.33-.81,2.68-1.51,4.15-2.04.95-.33,2.05-.62,3.07-.52l5.08,2.93c-1.03-.11-2.12.19-3.07.52-1.54.55-2.96,1.29-4.34,2.15-2.01,1.27-4.01,2.85-5.49,4.7l.87.68Z"/>
      <path class="cls-2" d="M14.11,16.76l.63.49,3.84,2.22c1.33-1.65,3.17-3.22,5.49-4.69,1.55-.97,2.98-1.68,4.4-2.18.6-.21,1.31-.42,2.06-.52l-4.06-2.34c-.99-.08-2.05.23-2.88.51-1.32.47-2.61,1.11-4.08,2.01-1.61,1-2.98,2.05-4.19,3.22-.47.46-.86.88-1.21,1.29h0ZM19.62,20.73c-.05,0-.1-.02-.16-.04l-5.07-2.93-.9-.71c-.06-.05-.11-.12-.11-.21-.01-.08,0-.16.06-.23.42-.52.88-1.03,1.45-1.59,1.25-1.2,2.65-2.28,4.29-3.3,1.49-.91,2.87-1.58,4.22-2.06.9-.31,2.08-.65,3.21-.53.03,0,.08.02.12.04l5.07,2.93c.12.07.18.22.14.36-.05.14-.17.23-.33.21-1-.11-2.09.22-2.94.51-1.36.49-2.76,1.18-4.28,2.12-2.17,1.38-3.93,2.86-5.21,4.4l.63.49c.12.1.15.28.06.42-.06.09-.16.14-.25.14Z"/>
      <path class="cls-3" d="M31.51,13.46c-.14-.02-.29-.02-.45-.02-.17,0-.36.03-.56.06-.63.1-1.37.32-2.17.64h0c-.83.33-1.72.77-2.63,1.29-.96.55-1.92,1.18-2.82,1.86-.86.65-1.66,1.35-2.36,2.07-.16.17-.32.34-.47.51-.15.17-.3.35-.45.55l-.87-.68c.15-.19.32-.39.5-.59.17-.2.35-.38.5-.55h0c.74-.76,1.58-1.49,2.48-2.18.94-.72,1.95-1.38,2.94-1.95.93-.54,1.87-.99,2.76-1.35.87-.35,1.69-.59,2.41-.71.24-.04.47-.06.69-.07.22,0,.42,0,.62.02l-.13,1.1Z"/>
      <path class="cls-2" d="M19.18,19.69l.38.3c.1-.11.18-.22.27-.32.16-.17.32-.35.49-.52.69-.71,1.49-1.41,2.38-2.1.9-.69,1.86-1.32,2.86-1.89.92-.53,1.82-.97,2.65-1.3,0,0,.02,0,.02,0,.84-.34,1.59-.56,2.23-.66.21-.03.4-.05.58-.06.07,0,.13,0,.19,0l.05-.49c-.08,0-.16,0-.26,0-.2,0-.42.03-.64.07-.69.11-1.48.34-2.35.69-.89.35-1.8.8-2.72,1.33-1.01.58-1.99,1.23-2.91,1.93-.91.7-1.73,1.42-2.43,2.14-.17.17-.33.34-.5.54-.1.11-.2.23-.3.34h0ZM19.62,20.73c-.07,0-.14-.02-.19-.07l-.87-.68c-.06-.05-.1-.13-.11-.21,0-.08.01-.16.06-.23.15-.2.33-.4.51-.61.18-.2.35-.39.51-.55.72-.75,1.56-1.49,2.5-2.21.95-.72,1.95-1.38,2.98-1.97.95-.55,1.89-1.01,2.79-1.37.91-.37,1.75-.61,2.48-.73.25-.04.49-.07.71-.07.24-.01.46,0,.67.02.08.01.15.05.21.11.04.06.07.15.06.23l-.12,1.1c-.03.17-.17.29-.35.27-.12-.01-.26-.02-.4-.01-.16,0-.33.02-.51.05-.6.1-1.31.31-2.11.63,0,0-.02,0-.02,0-.81.32-1.67.75-2.56,1.26-.97.55-1.9,1.17-2.79,1.84-.87.67-1.65,1.35-2.31,2.04-.17.16-.32.33-.47.5-.14.16-.29.34-.43.54-.07.08-.16.12-.24.12Z"/>
      <path class="cls-1" d="M28.1,22.87c-.61-.18-1.23-.31-1.82-.41.14.21.29.45.46.68.36.51.61,1.57.78,2.63.34,2.2.21,4.76.21,7.19,0,.23-.16.51-.36.63l-13.18,7.6c-.2.12-.36.02-.36-.21-1.49-7.08-3.45-8.14-7.84-11.53-.46.42-.93.84-1.38,1.27,5.15,5.9,5.42,4.43,5.28,15.41,8.52-.73,17.8-7.54,21.39-11.48-.45-4.22-1.23-9.25-3.14-11.72l-.04-.05Z"/>
      <path class="cls-2" d="M14.08,40.94l-.24.14.3-.08s-.03-.04-.05-.06h0ZM5.03,30.74c.31-.29.64-.58.96-.87l.02-.02.68.52c3.76,2.88,5.48,4.2,6.83,10.61,0,.22.1.41.26.5.17.1.37.09.56-.03l13.18-7.6c.3-.17.51-.56.51-.89,0-.5.01-1,.02-1.51.02-1.94.03-3.95-.23-5.72-.14-.91-.4-2.14-.83-2.76-.02-.03-.03-.05-.05-.08.34.07.67.15.98.24,1.89,2.48,2.64,7.66,3.04,11.4-3.92,4.24-12.8,10.41-20.75,11.24.11-9.26-.13-9.52-3.52-13.22-.48-.53-1.03-1.12-1.65-1.83h0ZM9.89,46.43c-.08,0-.16-.03-.21-.08-.06-.06-.1-.14-.09-.23.11-9.35-.02-9.5-3.36-13.14-.53-.58-1.15-1.26-1.86-2.07-.1-.13-.09-.31.03-.43.38-.36.78-.72,1.17-1.08l.22-.19c.1-.1.27-.11.39-.02l.89.68c3.75,2.88,5.65,4.33,7.05,10.99l13.1-7.55c.1-.06.21-.24.21-.36,0-.5,0-1.01.01-1.52.02-1.92.03-3.9-.23-5.62-.18-1.2-.45-2.09-.72-2.5-.16-.24-.32-.47-.47-.69-.06-.1-.06-.24,0-.34.07-.1.19-.16.31-.14.64.1,1.27.25,1.86.42.06.02.12.06.16.1l.04.05c2.01,2.63,2.79,8.04,3.2,11.88.01.09-.02.17-.08.24-3.99,4.38-13.32,10.87-21.59,11.58,0,0-.02,0-.03,0Z"/>
      <path class="cls-4" d="M28.1,22.87c-.61-.18-1.23-.31-1.82-.41.14.21.29.45.46.68.36.51.61,1.57.78,2.63.34,2.2.21,4.76.21,7.19,0,.23-.16.51-.36.63l-13.18,7.6c-.2.12-.36.02-.36-.21-1.49-7.08-3.45-8.14-7.84-11.53-.46.42-.93.84-1.38,1.27h0c5.15,5.9,5.42,4.43,5.28,15.41,8.52-.73,17.8-7.54,21.39-11.48-.45-4.22-1.23-9.25-3.14-11.72l-.04-.05Z"/>
      <path class="cls-2" d="M14.08,40.94l-.24.14.3-.08s-.03-.04-.05-.06h0ZM5.03,30.73c.31-.29.64-.58.96-.87l.02-.02.68.52c3.76,2.88,5.48,4.2,6.83,10.61,0,.22.1.41.26.5.17.1.37.09.56-.03l13.18-7.6c.3-.17.51-.56.51-.89,0-.5.01-1,.02-1.51.02-1.94.03-3.95-.23-5.72-.14-.91-.4-2.14-.83-2.76-.02-.03-.03-.05-.05-.08.34.07.67.15.98.24,1.89,2.48,2.64,7.66,3.04,11.4-3.92,4.24-12.8,10.41-20.75,11.24.11-9.26-.13-9.52-3.52-13.22-.48-.53-1.03-1.13-1.65-1.83h0ZM9.89,46.43c-.08,0-.16-.03-.21-.08-.06-.06-.1-.14-.09-.23.11-9.35-.02-9.5-3.36-13.14-.53-.58-1.15-1.26-1.86-2.07-.1-.13-.09-.31.03-.43.38-.37.78-.73,1.18-1.09l.21-.19c.1-.1.27-.1.39-.01l.89.68c3.75,2.88,5.65,4.33,7.05,10.99l13.1-7.55c.1-.06.21-.24.21-.36,0-.5,0-1.01.01-1.52.02-1.92.03-3.9-.23-5.62-.18-1.2-.45-2.09-.72-2.5-.16-.24-.32-.47-.47-.69-.06-.1-.06-.23,0-.34.07-.1.19-.16.31-.14.65.1,1.28.25,1.86.42.06.02.12.06.16.1l.04.05c2.01,2.63,2.79,8.04,3.2,11.88.01.09-.02.17-.08.24-3.99,4.38-13.32,10.87-21.59,11.58,0,0-.02,0-.03,0Z"/>
    </g>
  </g>
</svg>