<?xml version="1.0" encoding="UTF-8"?>
<svg id="Layer_2" data-name="Layer 2" xmlns="http://www.w3.org/2000/svg" viewBox="0 0 39.48 43.69" fill="currentColor">
  <defs>
    <style>
      .cls-1 {
        fill: #fff;
      }

      .cls-1, .cls-2, .cls-3, .cls-4 {
        fill-rule: evenodd;
      }

      .cls-2 {
        fill: #1a87c7;
      }

      .cls-3 {
        fill: #bdedf8;
      }

      .cls-4 {
        fill: #66ceef;
      }
    </style>
  </defs>
  <g id="_Layer_" data-name="&amp;lt;Layer&amp;gt;">
    <g>
      <path class="cls-3" d="M4.57,14.5c1.96,0,3.54-1.58,3.54-3.53s-1.58-3.53-3.54-3.53-3.54,1.58-3.54,3.53,1.59,3.53,3.54,3.53Z"/>
      <path class="cls-2" d="M4.57,7.75c-1.78,0-3.22,1.45-3.22,3.23s1.44,3.23,3.22,3.23,3.22-1.45,3.22-3.23-1.44-3.23-3.22-3.23h0ZM4.57,14.81c-2.12,0-3.84-1.72-3.84-3.84s1.72-3.84,3.84-3.84,3.84,1.72,3.84,3.84-1.72,3.84-3.84,3.84Z"/>
      <path class="cls-1" d="M19.74,39.37c9.68,0,17.53-7.84,17.53-17.52S29.41,4.33,19.74,4.33,2.22,12.17,2.22,21.85s7.85,17.52,17.52,17.52Z"/>
      <path class="cls-2" d="M19.74,4.64C10.25,4.64,2.53,12.36,2.53,21.85s7.72,17.21,17.21,17.21,17.21-7.72,17.21-17.21S29.23,4.64,19.74,4.64h0ZM19.74,39.67c-9.83,0-17.82-8-17.82-17.83S9.91,4.02,19.74,4.02s17.83,8,17.83,17.83-8,17.83-17.83,17.83Z"/>
      <path class="cls-3" d="M27.42,14.04c3.56-.43,6.4-.25,8.31.4,1.09.38,1.91.92,2.41,1.59.53.71.71,1.56.51,2.51-.16.83-.63,1.75-1.42,2.72,0-.48-.05-.97-.1-1.46.32-.52.52-1,.61-1.45.14-.68.02-1.27-.34-1.76-.39-.52-1.05-.95-1.97-1.26-1.78-.61-4.47-.77-7.87-.36-4.59.55-9.6,2.03-13.99,3.98-4.37,1.94-8.11,4.32-10.18,6.7-.86.98-1.35,1.87-1.51,2.64-.14.68-.02,1.27.35,1.75.39.52,1.05.95,1.97,1.26.31.11.64.2,1,.28.25.38.52.74.8,1.09-.79-.11-1.5-.27-2.1-.48-1.09-.37-1.91-.91-2.42-1.59-.52-.71-.7-1.55-.51-2.51.19-.93.75-1.96,1.72-3.07,2.16-2.49,6.02-4.96,10.51-6.95,4.47-1.98,9.57-3.49,14.24-4.05Z"/>
      <path class="cls-2" d="M27.45,14.35c-4.49.54-9.53,1.97-14.16,4.02-4.63,2.06-8.33,4.5-10.4,6.87-.91,1.04-1.47,2.03-1.65,2.93-.17.85-.02,1.61.46,2.26.47.63,1.22,1.13,2.27,1.49.39.13.82.25,1.29.34-.1-.13-.18-.26-.27-.39-.33-.08-.63-.16-.91-.26-.97-.33-1.68-.79-2.11-1.37-.42-.57-.56-1.24-.4-2,.17-.85.7-1.78,1.57-2.78,2.04-2.34,5.69-4.74,10.28-6.79,4.61-2.04,9.6-3.46,14.07-4,3.35-.41,6.13-.27,8.02.38.97.33,1.69.79,2.11,1.37.43.57.55,1.24.4,2-.1.46-.3.95-.6,1.46.03.18.04.35.05.53.45-.67.75-1.32.87-1.91.17-.86.02-1.62-.46-2.26-.47-.63-1.22-1.13-2.27-1.49-1.94-.66-4.76-.8-8.17-.39h0ZM5.97,32.99s-.03,0-.04,0c-.8-.11-1.53-.27-2.16-.49-1.16-.4-2.01-.97-2.56-1.7-.59-.79-.78-1.72-.57-2.75.21-1,.81-2.08,1.78-3.21,2.13-2.44,5.89-4.94,10.62-7.03,4.68-2.08,9.78-3.52,14.33-4.07h0c3.5-.42,6.42-.27,8.44.42,1.16.4,2.02.97,2.57,1.7.59.79.78,1.72.56,2.75-.18.9-.69,1.86-1.48,2.85-.08.1-.22.14-.34.1-.12-.04-.2-.15-.21-.28-.02-.46-.05-.94-.11-1.44,0-.07.01-.14.04-.19.29-.48.48-.93.57-1.35.11-.58.02-1.09-.3-1.51-.35-.47-.96-.86-1.82-1.15-1.81-.62-4.49-.74-7.74-.35-4.41.53-9.34,1.94-13.9,3.95-4.52,2-8.09,4.36-10.07,6.63-.8.92-1.28,1.76-1.43,2.5-.12.58-.02,1.09.3,1.51.35.47.95.86,1.82,1.15.29.1.62.19.96.26.08.02.15.06.19.13.25.37.51.73.79,1.08.08.1.09.23.03.34-.05.1-.16.16-.27.16Z"/>
      <path class="cls-3" d="M19.34,3.37c.86-1.46,1.71-2.38,2.51-2.79.67-.35,1.3-.36,1.89-.05.53.28,1,.83,1.38,1.62.4.83.72,1.95.96,3.35-.34-.13-.68-.25-1.02-.36-.21-1.07-.47-1.93-.78-2.58-.3-.61-.63-1.02-.97-1.2-.3-.16-.64-.14-1.03.06-.64.33-1.36,1.13-2.14,2.43-1.7,2.86-3.25,7.48-4.37,12.65-1.13,5.17-1.82,10.88-1.82,15.88,0,4.13.47,7.11,1.26,8.75.3.61.63,1.01.97,1.2.31.16.64.14,1.03-.06.64-.33,1.35-1.13,2.14-2.43.09-.15.18-.31.27-.48h.13c.32,0,.64,0,.95-.03-.17.35-.36.68-.55.98-.86,1.46-1.71,2.38-2.51,2.79-.66.35-1.3.36-1.89.06-.53-.28-1-.83-1.38-1.63-.85-1.77-1.36-4.89-1.36-9.16,0-5.07.71-10.84,1.85-16.08,1.14-5.25,2.73-9.97,4.49-12.93Z"/>
      <path class="cls-2" d="M22.87.62c-.28,0-.57.08-.88.24-.76.4-1.58,1.29-2.39,2.67h0c-1.68,2.83-3.27,7.39-4.45,12.84-1.19,5.44-1.84,11.13-1.84,16.01,0,4.05.47,7.25,1.33,9.03.36.74.77,1.24,1.25,1.49.5.26,1.02.24,1.6-.05.77-.4,1.57-1.29,2.39-2.67.09-.16.19-.33.29-.5-.13,0-.25,0-.37,0-.06.11-.13.22-.19.33-.79,1.32-1.54,2.18-2.26,2.55-.58.3-1.03.2-1.3.05-.41-.21-.78-.66-1.11-1.34-.84-1.76-1.29-4.83-1.29-8.89,0-4.87.64-10.53,1.82-15.95,1.18-5.42,2.76-9.94,4.42-12.74.78-1.32,1.55-2.17,2.26-2.54.58-.3,1.03-.2,1.3-.05.41.21.78.66,1.11,1.34.31.64.57,1.48.78,2.48.11.04.24.08.35.12-.21-1.12-.5-2.04-.83-2.75-.36-.74-.77-1.24-1.25-1.48-.23-.12-.47-.18-.72-.18h0ZM16.61,43.69c-.35,0-.69-.08-1.01-.25-.6-.31-1.11-.9-1.52-1.77-.91-1.88-1.39-5.1-1.39-9.3,0-4.93.66-10.66,1.85-16.14,1.2-5.51,2.81-10.13,4.53-13.02h0c.88-1.48,1.77-2.45,2.63-2.9.76-.39,1.49-.41,2.17-.06.6.31,1.1.91,1.52,1.77.42.86.75,2.02.98,3.44.02.11-.03.22-.11.29-.09.07-.2.09-.3.05-.33-.13-.66-.25-1-.35-.11-.03-.19-.12-.21-.24-.2-1.03-.45-1.88-.76-2.51-.26-.55-.56-.91-.84-1.06-.21-.11-.45-.09-.74.06-.6.31-1.29,1.11-2.01,2.31-1.63,2.74-3.17,7.2-4.34,12.55-1.17,5.38-1.82,10.99-1.82,15.81,0,3.91.44,6.97,1.23,8.62.26.54.56.91.84,1.06.21.11.45.09.74-.05.59-.31,1.29-1.11,2.01-2.31.09-.15.18-.31.27-.47.05-.1.16-.16.27-.16h.13c.31,0,.63-.01.93-.03.12,0,.22.05.28.14.06.09.06.21.02.31-.18.35-.37.68-.56,1-.88,1.48-1.76,2.45-2.63,2.9-.4.21-.79.31-1.17.31Z"/>
      <path class="cls-4" d="M19.51,6.22c2.84-1.64,5.52-2.42,7.83-2.42,1.49,0,2.83.32,3.98.94,1.15.63,2.1,1.55,2.8,2.76.84,1.46,1.31,3.32,1.31,5.55,0,.31-.01.62-.03.92-.29-.56-.6-1.11-.94-1.63-.09-1.75-.48-3.22-1.16-4.38-.6-1.05-1.43-1.86-2.43-2.4-1.01-.55-2.2-.83-3.53-.83-2.16,0-4.67.74-7.36,2.29h0c-4.13,2.39-7.88,6.23-10.6,10.51-2.71,4.27-4.38,8.97-4.38,13.08,0,2.06.42,3.77,1.17,5.09h0c.6,1.05,1.44,1.85,2.43,2.4,1.01.55,2.2.83,3.53.83.81,0,1.67-.1,2.56-.31.6.18,1.21.33,1.82.44-1.55.55-3.03.81-4.39.81-1.49,0-2.83-.32-3.98-.94-1.16-.62-2.1-1.55-2.8-2.76h0c-.84-1.46-1.31-3.33-1.31-5.56,0-4.29,1.73-9.17,4.53-13.58,2.79-4.4,6.66-8.36,10.93-10.82h0Z"/>
      <path class="cls-2" d="M19.51,6.22h.01-.01ZM5.64,36.05c.66,1.14,1.55,2.02,2.67,2.62,1.89,1.03,4.34,1.18,7.02.45-.21-.06-.43-.12-.64-.18-2.38.55-4.55.35-6.23-.56-1.06-.58-1.92-1.42-2.56-2.52-.81-1.4-1.22-3.16-1.22-5.24,0-4.03,1.57-8.74,4.43-13.24,2.86-4.51,6.66-8.28,10.7-10.62,4.25-2.45,8.39-2.99,11.19-1.47,1.06.58,1.92,1.43,2.55,2.52.7,1.22,1.1,2.71,1.2,4.43.12.19.24.38.35.57-.03-2.02-.45-3.76-1.27-5.16-.66-1.15-1.56-2.04-2.68-2.64-2.9-1.58-7.14-1.05-11.51,1.47-.01,0-.02,0-.03.01-4.08,2.36-7.91,6.16-10.8,10.71-2.88,4.56-4.47,9.33-4.47,13.42,0,2.13.43,3.94,1.27,5.4,0,0,0,.01.01.02h0ZM12.14,40.2c-1.54,0-2.93-.33-4.13-.98-1.22-.66-2.2-1.63-2.92-2.88,0,0,0-.01,0-.02-.89-1.55-1.34-3.46-1.34-5.69,0-4.21,1.62-9.09,4.57-13.75,2.95-4.64,6.86-8.52,11.03-10.93.01,0,.02,0,.02,0,4.55-2.62,9-3.15,12.1-1.47,1.22.66,2.2,1.63,2.92,2.88.9,1.55,1.35,3.48,1.35,5.71,0,.31,0,.63-.03.94-.01.14-.1.26-.24.28-.13.03-.28-.04-.34-.16-.28-.55-.59-1.09-.92-1.61-.03-.04-.04-.1-.04-.15-.09-1.66-.46-3.09-1.12-4.24-.57-.99-1.35-1.76-2.32-2.28-2.61-1.42-6.54-.88-10.59,1.46-3.96,2.28-7.68,5.98-10.49,10.41-2.8,4.41-4.34,8.99-4.34,12.91,0,1.96.38,3.62,1.14,4.93.57.99,1.35,1.76,2.32,2.28,1.56.85,3.6,1.02,5.87.49.05-.01.1-.01.16,0,.59.18,1.19.32,1.8.43.14.03.24.14.25.28,0,.14-.08.27-.21.32-1.57.55-3.08.83-4.49.83Z"/>
      <path class="cls-3" d="M31.79,9.26c2,0,3.62-1.62,3.62-3.61s-1.62-3.61-3.62-3.61-3.61,1.62-3.61,3.61,1.62,3.61,3.61,3.61Z"/>
      <path class="cls-2" d="M31.79,2.35c-1.82,0-3.3,1.48-3.3,3.3s1.49,3.3,3.3,3.3,3.3-1.48,3.3-3.3-1.48-3.3-3.3-3.3h0ZM31.79,9.57c-2.16,0-3.92-1.76-3.92-3.92s1.77-3.92,3.92-3.92,3.92,1.76,3.92,3.92-1.76,3.92-3.92,3.92Z"/>
      <path class="cls-4" d="M19.97,6.22c-2.84-1.64-5.52-2.42-7.83-2.42-1.49,0-2.83.32-3.98.94-1.16.63-2.1,1.55-2.8,2.76v.02c.3.07.61.18.89.34.6-.99,1.4-1.76,2.36-2.28,1.01-.55,2.2-.83,3.53-.83,2.16,0,4.67.74,7.36,2.29h0c4.13,2.39,7.88,6.23,10.6,10.51,2.71,4.27,4.38,8.97,4.38,13.08,0,2.06-.42,3.77-1.18,5.09h0c-.61,1.05-1.43,1.85-2.43,2.4-1.01.55-2.2.83-3.53.83-.81,0-1.67-.1-2.56-.31-.6.18-1.21.33-1.83.44,1.56.55,3.04.81,4.4.81,1.49,0,2.83-.32,3.98-.94,1.16-.62,2.1-1.55,2.8-2.76h0c.84-1.46,1.31-3.33,1.31-5.56,0-4.29-1.73-9.17-4.53-13.58-2.79-4.4-6.66-8.36-10.93-10.82h0Z"/>
      <path class="cls-2" d="M24.14,39.13c2.7.73,5.14.58,7.03-.45,1.11-.6,2.01-1.48,2.67-2.63,0,0,0-.01,0-.02.84-1.46,1.27-3.28,1.27-5.4,0-4.09-1.59-8.86-4.48-13.42-2.89-4.55-6.72-8.35-10.8-10.71,0,0,0,0-.02-.01-4.36-2.52-8.6-3.05-11.51-1.47-1.01.55-1.84,1.33-2.49,2.32.11.04.21.08.31.12.6-.92,1.38-1.64,2.33-2.15,2.81-1.52,6.95-.98,11.2,1.47,4.04,2.33,7.84,6.11,10.7,10.62,2.86,4.51,4.43,9.21,4.43,13.24,0,2.07-.42,3.84-1.23,5.24-.63,1.1-1.5,1.94-2.55,2.52-1.69.91-3.85,1.11-6.23.56-.21.06-.43.12-.64.18h0ZM27.34,40.2c-1.41,0-2.92-.28-4.49-.83-.13-.05-.22-.18-.21-.31.01-.14.12-.25.25-.28.61-.11,1.22-.26,1.8-.43.05-.02.11-.02.16,0,2.27.53,4.31.36,5.88-.49.96-.52,1.75-1.29,2.32-2.28.76-1.31,1.14-2.97,1.14-4.93,0-3.92-1.54-8.5-4.34-12.91-2.81-4.43-6.54-8.13-10.49-10.41-4.05-2.34-7.98-2.88-10.58-1.46-.93.5-1.69,1.23-2.25,2.17-.09.14-.27.19-.41.11-.25-.14-.53-.24-.81-.3-.1-.02-.18-.09-.21-.18-.04-.09-.04-.19.01-.27.73-1.27,1.71-2.24,2.93-2.9,3.1-1.68,7.55-1.15,12.1,1.47,0,0,.01,0,.02.01,4.17,2.41,8.08,6.29,11.03,10.93,2.94,4.66,4.57,9.54,4.57,13.75,0,2.23-.45,4.14-1.34,5.69,0,0,0,.01,0,.02-.72,1.25-1.71,2.22-2.92,2.88-1.2.65-2.59.98-4.13.98Z"/>
      <path class="cls-4" d="M36.38,16.33c.72.66,1.3,1.35,1.75,2.06h0c.7,1.12,1.04,2.28,1.04,3.45s-.35,2.34-1.04,3.45h0c-.94,1.52-2.52,2.94-4.76,4.13h0c-3.77,2.03-8.7,3.04-13.63,3.04s-9.85-1.01-13.64-3.04h0c-2.22-1.2-3.81-2.61-4.75-4.13-.69-1.12-1.04-2.29-1.04-3.46s.35-2.33,1.04-3.45h0c.44-.71,1.03-1.41,1.76-2.06-.22.66-.4,1.34-.54,2.04-.12.16-.23.33-.34.5h0c-.6.97-.9,1.98-.9,2.98s.3,2.02.9,2.98c.86,1.38,2.32,2.68,4.39,3.79h0c3.62,1.94,8.36,2.91,13.12,2.91s9.51-.97,13.13-2.91h0c2.07-1.11,3.53-2.41,4.39-3.79h0c.6-.97.9-1.97.9-2.98s-.3-2.01-.9-2.98h0c-.1-.17-.22-.33-.34-.5-.14-.69-.32-1.37-.54-2.03Z"/>
      <path class="cls-2" d="M38.12,25.3h0,0ZM1.63,18.54s0,.01-.02.02c-.65,1.06-.99,2.17-.99,3.29s.34,2.23.99,3.29c.95,1.52,2.51,2.88,4.64,4.02,3.61,1.94,8.4,3,13.49,3s9.88-1.07,13.49-3c2.12-1.14,3.68-2.49,4.62-4.01.01,0,.01-.01.01-.02.66-1.06,1-2.17,1-3.29s-.34-2.23-1-3.29c-.24-.39-.52-.77-.85-1.14.07.27.13.55.19.83.11.15.22.31.31.46,0,0,0,.02,0,.02.63,1.01.94,2.06.94,3.12s-.32,2.13-.95,3.15c-.92,1.48-2.43,2.79-4.5,3.9,0,0-.02,0-.02.01-3.54,1.89-8.24,2.94-13.25,2.94s-9.72-1.05-13.25-2.94c0,0,0,0-.02-.01-2.07-1.11-3.58-2.42-4.5-3.9-.63-1.01-.95-2.07-.95-3.15s.32-2.13.95-3.14c.1-.16.2-.31.31-.46.05-.28.12-.55.19-.83-.32.37-.61.74-.84,1.13h0ZM19.74,32.78c-5.19,0-10.08-1.09-13.78-3.08-2.23-1.2-3.87-2.62-4.88-4.24-.72-1.16-1.09-2.38-1.09-3.62s.37-2.44,1.08-3.6c0,0,0-.01,0-.02.47-.75,1.08-1.46,1.82-2.13.1-.09.25-.11.37-.03.11.08.16.22.12.36-.22.65-.4,1.33-.53,2,0,.04-.03.09-.05.12-.12.16-.22.32-.33.48-.56.91-.85,1.86-.85,2.82s.29,1.91.85,2.82c.86,1.38,2.29,2.61,4.25,3.67,0,0,.02,0,.03.01,3.45,1.85,8.06,2.87,12.97,2.87s9.53-1.02,12.98-2.87c0,0,.02-.01.03-.01,1.96-1.06,3.39-2.29,4.25-3.67.57-.91.85-1.86.85-2.82s-.29-1.91-.85-2.82c0,0-.02-.02-.02-.02-.09-.15-.2-.3-.31-.46-.03-.04-.04-.08-.05-.12-.13-.67-.31-1.34-.53-2-.04-.13,0-.28.12-.35.12-.08.27-.07.37.03.74.67,1.35,1.38,1.81,2.13.73,1.16,1.09,2.38,1.09,3.62s-.37,2.44-1.08,3.6c0,0-.01.01-.01.02-1.01,1.62-2.65,3.05-4.88,4.24-3.69,1.98-8.59,3.08-13.78,3.08Z"/>
      <path class="cls-3" d="M23.37,35.8c2.21,0,4-1.79,4-4s-1.79-4-4-4-4.01,1.79-4.01,4,1.8,4,4.01,4Z"/>
      <path class="cls-2" d="M23.37,28.1c-2.03,0-3.69,1.66-3.69,3.7s1.66,3.69,3.69,3.69,3.69-1.66,3.69-3.69-1.66-3.7-3.69-3.7h0ZM23.37,36.1c-2.38,0-4.31-1.93-4.31-4.31s1.93-4.31,4.31-4.31,4.31,1.93,4.31,4.31-1.94,4.31-4.31,4.31Z"/>
    </g>
  </g>
</svg>