<?xml version="1.0" encoding="UTF-8"?>
<svg id="Layer_2" data-name="Layer 2" xmlns="http://www.w3.org/2000/svg" viewBox="0 0 62.61 85.87" fill="currentColor">
  <defs>
    <style>
      .cls-1 {
        fill: #fff;
      }

      .cls-1, .cls-2, .cls-3, .cls-4 {
        fill-rule: evenodd;
      }

      .cls-2 {
        fill: #1a87c7;
      }

      .cls-3 {
        fill: #bdedf8;
      }

      .cls-4 {
        fill: #66ceef;
      }
    </style>
  </defs>
  <g id="_Layer_" data-name="&amp;lt;Layer&amp;gt;">
    <g>
      <polygon class="cls-4" points="14.19 82.45 12.36 81.39 12.36 81.39 14.19 82.43 14.19 82.45"/>
      <path class="cls-2" d="M14.19,83.06c-.11,0-.21-.04-.31-.09h0l-1.82-1.04c-.2-.12-.31-.32-.31-.53,0-.11.03-.21.08-.31.17-.3.54-.4.84-.22l1.82,1.06h0,0c.3.17.4.54.23.83-.11.21-.32.31-.53.31Z"/>
      <path class="cls-1" d="M15.1,82.97c-.18,1.55.58,2.53,1.82,2.24l2.27-.54c3.61-.85,5.55-10.09,2.08-9.28l-2.27.54c-.87.21-1.77.97-2.41,1.98l-1.49,5.06Z"/>
      <path class="cls-2" d="M15.71,83.09c-.06.62.06,1.14.33,1.39.18.16.43.21.74.12l2.27-.52c2.2-.52,3.83-5.22,3.33-7.32-.22-.94-.71-.83-.97-.77l-2.28.52c-.66.16-1.41.78-1.99,1.65l-1.45,4.92h0ZM16.51,85.87c-.49,0-.93-.16-1.29-.47-.6-.54-.86-1.43-.73-2.5,0-.03.01-.07.02-.1l1.49-5.06c.01-.05.04-.1.07-.16.76-1.18,1.8-2.02,2.79-2.26l2.27-.52c1.22-.29,2.14.35,2.46,1.69.64,2.71-1.22,8.09-4.25,8.8l-2.28.52c-.19.05-.38.07-.56.07Z"/>
      <path class="cls-3" d="M11.43,80.85c-.04.89-.03,1.42.65,2.07l3.67,2.12c-.68-.64-.69-1.18-.65-2.07l1.49-5.06c.65-.94,1.29-1.63,2.41-1.98l2.27-.54c.55-.03.53-.05,1.06.14l-3.68-2.12c-1.13-.42-3.55.28-4.62,1.1-.49.44-.76.75-1.13,1.28l-1.49,5.06Z"/>
      <path class="cls-2" d="M12.04,80.95c-.03.76,0,1.07.46,1.51l1.98,1.13c0-.21,0-.42,0-.66l1.52-5.2c.02-.07.05-.12.08-.17.73-1.04,1.47-1.83,2.73-2.23l1.4-.33-1.86-1.06c-.75-.26-2.93.28-3.94,1.04-.37.33-.6.61-.94,1.06l-1.44,4.9h0ZM15.75,85.64c-.11,0-.21-.02-.31-.08l-3.67-2.12c-.97-.89-1.01-1.6-.96-2.62,0-.05.01-.08.02-.14l1.49-5.06c.02-.07.05-.12.09-.17.41-.59.72-.95,1.22-1.41,1.14-.86,3.81-1.72,5.24-1.2l3.77,2.16c.28.16.38.5.25.8-.13.28-.46.42-.77.32q-.35-.12-.66-.11l-2.32.52c-.87.28-1.4.82-1.99,1.67l-1.46,4.96c-.01.68,0,.99.48,1.44.23.21.26.55.07.82-.12.16-.3.24-.49.24Z"/>
      <path class="cls-1" d="M53.06,47.7c4.17-2.39,7.56-.45,7.56,4.36s-3.39,10.69-7.56,13.09c-4.17,2.41-7.56.47-7.56-4.37s3.38-10.67,7.56-13.09Z"/>
      <path class="cls-2" d="M56.44,47.28c-.93,0-1.97.33-3.07.95-4,2.31-7.25,7.94-7.25,12.55,0,2.11.67,3.65,1.9,4.37,1.23.71,2.91.52,4.73-.52,4-2.32,7.25-7.95,7.25-12.57,0-2.1-.68-3.65-1.9-4.36-.49-.28-1.05-.41-1.66-.41h0ZM49.69,66.8c-.83,0-1.6-.19-2.28-.59-1.63-.94-2.52-2.85-2.52-5.42,0-5,3.53-11.1,7.87-13.61,2.22-1.29,4.34-1.48,5.96-.54,1.62.94,2.52,2.87,2.52,5.42,0,5-3.53,11.12-7.87,13.63-1.29.75-2.54,1.11-3.68,1.11Z"/>
      <path class="cls-4" d="M9.17,81.26c-4.31-2.48-5.34-4.2-5.94-10.06l-.27-10.54,1.83,1.06c-.07,5.83-.93,15.75,4.38,19.54Z"/>
      <path class="cls-2" d="M3.61,61.76l.24,9.44c.33,3.18.76,5.04,1.83,6.5-1.77-4.12-1.64-9.66-1.54-14.06.01-.54.03-1.06.03-1.56l-.56-.31h0ZM9.17,81.87c-.11,0-.21-.02-.31-.07-4.51-2.6-5.62-4.49-6.24-10.53l-.27-10.58c0-.23.11-.44.3-.55.19-.12.43-.12.62,0l1.82,1.05c.19.12.31.33.31.53,0,.61-.02,1.27-.04,1.95-.14,5.86-.33,13.89,4.16,17.09.27.19.34.56.16.84-.12.19-.32.27-.52.27Z"/>
      <polygon class="cls-4" points="34.74 70.57 32.91 69.52 31.42 66.18 33.24 67.24 34.74 70.57"/>
      <path class="cls-2" d="M33.39,69.08h0l-.64-1.41.63,1.41h0ZM34.74,71.18c-.11,0-.21-.02-.31-.07l-1.83-1.06c-.11-.07-.2-.17-.25-.28l-1.49-3.33c-.11-.25-.05-.54.15-.71.2-.18.5-.21.72-.07l1.83,1.04c.12.07.2.17.26.3l1.49,3.32c.11.25.05.54-.15.71-.11.1-.26.16-.41.16Z"/>
      <path class="cls-4" d="M33.24,67.24l-1.82-1.06c6.92-8.75,7.19-15.14,7.07-26.02l1.83,1.06c.12,10.88-.15,17.28-7.08,26.02Z"/>
      <path class="cls-2" d="M32.34,66l.75.44c6.42-8.29,6.73-14.34,6.61-24.86l-.59-.35c.08,10.05-.38,16.43-6.78,24.77h0ZM33.24,67.84c-.1,0-.21-.02-.31-.07l-1.83-1.06c-.16-.09-.26-.25-.3-.42-.03-.17.01-.36.12-.5,6.81-8.6,7.06-14.71,6.94-25.62,0-.23.11-.44.3-.54.19-.12.43-.12.62,0l1.83,1.04c.19.12.31.31.31.54.12,10.9-.15,17.49-7.21,26.4-.12.16-.3.23-.49.23Z"/>
      <path class="cls-4" d="M44.13,39.02c.02,1.56.03.75.03,2.17,0,12.35-.93,19.47-9.42,29.38l-1.49-3.34c6.24-7.73,7.08-13.75,7.1-23.75,0-1.43-.01-.65-.02-2.27l3.8-2.19Z"/>
      <path class="cls-2" d="M33.96,67.32l.94,2.1c7.78-9.38,8.65-16.22,8.64-28.23,0-.73,0-.86,0-1.04,0-.02,0-.06,0-.09l-2.59,1.49c0,.45.01.64.01.79,0,.23.01.35,0,1.14-.03,10.4-1.05,16.34-7,23.84h0ZM34.74,71.18h-.09c-.21-.04-.39-.17-.47-.36l-1.49-3.34c-.09-.2-.06-.45.08-.62,5.97-7.39,6.94-12.93,6.96-23.36,0-.76,0-.89,0-1.11,0-.17-.01-.41-.02-1.16,0-.21.12-.42.31-.54l3.81-2.19c.19-.11.42-.11.61,0,.19.1.31.31.31.52,0,.73.01.94.02,1.12,0,.17.01.31.01,1.07,0,11.57-.63,19.35-9.57,29.78-.12.14-.29.21-.47.21Z"/>
      <path class="cls-3" d="M35.6,31.49c1.38.91,2.03,1.62,2.86,3.03,1.42,2.88,1.38,4.99,1.38,8.03l-3.76-2.17v-1.66c0-1.72-.21-3.23-.74-4.88-.61-1.63-1.24-2.68-2.55-3.84l-.46-.35-.49-.33c1.25.73,2.51,1.46,3.76,2.17Z"/>
      <path class="cls-2" d="M36.7,40.01l2.53,1.46c-.01-2.47-.13-4.28-1.32-6.68-.78-1.33-1.37-1.95-2.63-2.78l-.09-.05c.26.49.5,1.03.73,1.65.53,1.67.77,3.23.78,5.09v1.31h0ZM39.84,43.16c-.11,0-.21-.03-.3-.08l-3.76-2.17c-.19-.11-.31-.31-.31-.52v-1.66c0-1.75-.23-3.2-.71-4.69-.6-1.62-1.2-2.52-2.38-3.58l-.88-.61c-.28-.17-.36-.56-.19-.83.17-.3.54-.38.83-.21l3.76,2.17s.02,0,.03.02c1.44.92,2.15,1.69,3.06,3.23,1.47,2.98,1.47,5.13,1.47,8.12v.2c0,.21-.12.42-.31.52-.1.05-.2.08-.31.08Z"/>
      <path class="cls-3" d="M.62,59.21c.12-10.55,5.41-21.66,12.47-29.36,3.69-4.01,5.69-5.25,10.41-7.98l3.9-1.4c3.23-.79,6.06-.61,9.02.94h0l3.76,2.18h0c-4.4-2.3-8.58-1.48-12.92.47l-5.4,3.35c-4.38,3.37-8.15,7.94-10.98,12.68-4.39,7.37-6.51,14.41-6.51,22.96l-3.76-2.17v-1.65Z"/>
      <path class="cls-2" d="M1.23,60.49l2.54,1.48c.16-8,2.22-14.9,6.58-22.22,3.1-5.18,6.94-9.63,11.13-12.85l5.45-3.39c2.41-1.09,5.31-2.12,8.47-1.93-2.45-1.1-4.9-1.25-7.86-.53l-3.84,1.39c-4.5,2.6-6.51,3.84-10.16,7.82C6.06,38.42,1.34,49.5,1.23,59.21v1.28h0ZM4.38,63.64c-.1,0-.21-.03-.31-.08l-3.76-2.17c-.19-.1-.31-.31-.31-.52v-1.67c.11-9.98,4.95-21.38,12.64-29.76,3.77-4.1,5.84-5.38,10.55-8.1l4-1.45c3.59-.89,6.49-.59,9.45.94.03.02.06.03.09.03l3.76,2.18c.27.16.38.49.27.76-.06.17-.19.29-.36.35-.16.07-.34.05-.5-.02-3.67-1.93-7.38-1.79-12.39.47l-5.33,3.32c-4.01,3.09-7.76,7.42-10.77,12.46-4.44,7.46-6.42,14.43-6.42,22.65,0,.21-.12.42-.31.52-.1.05-.2.08-.31.08Z"/>
      <path class="cls-3" d="M53.59,64.77l-4.01-2.31c-1.49-1.22-1.56-2.59-1.34-4.4.53-2.69,1.76-4.81,3.83-6.62,1.45-1.1,2.67-1.71,4.47-1.04l4.01,2.33c-4.02-1.51-7.31,3.81-8.18,7.04-.38,1.94-.43,3.65,1.22,5Z"/>
      <path class="cls-2" d="M55.13,50.72c-.88,0-1.68.44-2.69,1.2-1.94,1.71-3.09,3.7-3.59,6.26-.21,1.72-.1,2.8,1.13,3.8l1.71.98c-.29-1.1-.13-2.24.08-3.32.58-2.15,2.42-5.84,5.15-7.25.37-.19.74-.33,1.11-.42l-1.8-1.04c-.4-.14-.76-.21-1.1-.21h0ZM53.59,65.39c-.11,0-.21-.03-.31-.08l-4.01-2.31c-1.9-1.57-1.85-3.32-1.65-5.01.56-2.85,1.88-5.12,4.03-7.02,1.39-1.04,2.89-1.96,5.1-1.15l4.09,2.36c.28.16.39.5.25.8-.14.28-.48.41-.77.31-.94-.36-1.9-.29-2.85.19-2.1,1.08-3.89,4.12-4.51,6.43-.38,1.91-.33,3.27,1.01,4.38.25.19.3.56.12.82-.12.17-.31.28-.51.28Z"/>
      <path class="cls-1" d="M57.07,53.05c2.72-1.57,4.92-.29,4.92,2.85s-2.21,6.95-4.92,8.52c-2.72,1.58-4.92.29-4.92-2.83s2.2-6.95,4.92-8.54Z"/>
      <path class="cls-2" d="M57.38,53.59c-2.54,1.48-4.61,5.06-4.61,8,0,1.29.4,2.22,1.13,2.64.73.43,1.75.31,2.87-.33,2.54-1.48,4.61-5.06,4.61-8,0-1.28-.4-2.23-1.13-2.66-.73-.42-1.75-.3-2.87.35h0ZM54.87,65.73c-.58,0-1.11-.14-1.59-.42-1.13-.66-1.75-1.98-1.75-3.72,0-3.39,2.3-7.37,5.23-9.05h0c1.51-.89,2.97-1.01,4.09-.35,1.13.64,1.75,1.96,1.75,3.72,0,3.39-2.3,7.37-5.23,9.06-.87.5-1.72.77-2.51.77Z"/>
      <path class="cls-3" d="M28.77,78.07c-2.35-1.37-6.26-2.5-4.38-7.43.58-1.51,4.34-5.74,6.09-5l3.67,2.12c-2.03-.58-5.8,3.56-6.33,5.78-.37,1.57-.22,3.31.94,4.52Z"/>
      <path class="cls-2" d="M30.06,66.16c-.15,0-.38.05-.66.18-1.73.73-4.04,3.49-4.44,4.54-1.27,3.3.28,4.58,2.26,5.66-.26-.94-.27-2.02,0-3.13.43-1.82,2.64-4.54,4.63-5.7.17-.11.34-.19.5-.26l-2.18-1.27s-.07-.02-.11-.02h0ZM28.77,78.67c-.1,0-.21-.03-.31-.09-.31-.17-.64-.35-.98-.52-2.32-1.2-5.5-2.85-3.67-7.63.53-1.39,3.13-4.4,5.11-5.24.69-.3,1.29-.35,1.8-.12l3.74,2.15c.27.16.38.49.26.77-.12.3-.44.43-.74.35-.35-.08-.89.05-1.51.42-1.85,1.08-3.74,3.58-4.06,4.94-.22.92-.42,2.68.79,3.93.21.22.23.55.04.8-.12.15-.3.24-.49.24Z"/>
      <path class="cls-1" d="M35.65,71.1c.18,1.34-.58,3.2-1.82,4.34l-2.27,2.11c-3.61,3.32-5.55-3.69-2.08-6.89l2.27-2.09c.87-.8,1.77-1.06,2.41-.81l1.49,3.34Z"/>
      <path class="cls-2" d="M33.64,68.28c-.42,0-.96.28-1.47.75l-2.27,2.09c-2,1.84-1.97,5.15-.89,6.31.53.59,1.26.47,2.14-.33l2.27-2.1c1.04-.96,1.75-2.57,1.64-3.72l-1.33-2.97s-.05-.02-.08-.02h0ZM29.77,79.04c-.87,0-1.45-.54-1.68-.79-1.6-1.73-1.48-5.81.97-8.04l2.27-2.11c1.02-.92,2.16-1.27,3.06-.92.15.07.27.19.33.33l1.49,3.34c.02.05.04.1.05.16.21,1.57-.64,3.62-2.02,4.88l-2.28,2.11c-.85.78-1.6,1.04-2.2,1.04Z"/>
      <path class="cls-4" d="M22.54,25.71l-1.83-1.06c0-1.88,0-3.2.3-5.04C23.26,9.75,35.24-3.06,45.7,1.62l2.4,1.34c-3.06-1.6-5.37-1.67-8.95-.61-7.79,2.83-13.83,9.38-16.1,17.35-.52,2.31-.51,3.63-.52,6.02Z"/>
      <path class="cls-2" d="M21.33,24.3l.6.35c.01-1.79.08-3.09.53-5.09,2.35-8.24,8.5-14.88,16.49-17.78.78-.23,1.51-.42,2.19-.55-1.96.02-4.11.52-6.22,1.58-6.07,3.03-11.78,10.31-13.29,16.94-.27,1.63-.28,2.87-.29,4.55h0ZM22.54,26.32c-.11,0-.21-.02-.31-.09l-1.82-1.04c-.2-.12-.31-.31-.31-.54v-.29c0-1.7.01-3.06.31-4.85,1.59-6.99,7.59-14.62,13.95-17.8,4.03-2.02,8.05-2.24,11.6-.66l2.45,1.39c.29.16.4.52.24.82-.16.3-.54.42-.83.26-2.83-1.48-4.97-1.61-8.48-.57-7.58,2.76-13.45,9.09-15.68,16.93-.49,2.14-.49,3.37-.5,5.63v.21c0,.23-.12.41-.31.54-.1.05-.2.07-.31.07Z"/>
      <path class="cls-4" d="M53.09,53.22l-1.82-1.04v-9.74s-.03-9.7-.03-9.7c-.03-3.44-.16-6.71-.51-10.13-.32-2.57-.7-4.83-1.38-7.34-.73-2.38-1.43-4.15-2.89-6.17l-.87-1.01c-.64-.61-1.12-.99-1.88-1.46l1.83,1.06c.75.47,1.23.85,1.88,1.46,1.55,1.67,2.31,3.17,3.14,5.27.78,2.23,1.22,4.19,1.63,6.5.65,4.36.84,8.5.88,12.88l.03,9.68v9.74Z"/>
      <path class="cls-2" d="M51.88,51.82l.6.35-.03-18.36c-.05-5.17-.31-8.99-.88-12.8-.45-2.57-.92-4.42-1.6-6.38-.29-.74-.58-1.43-.9-2.03.31.76.59,1.58.87,2.49.62,2.31,1.04,4.54,1.4,7.44.32,3.16.48,6.29.52,10.22l.03,19.07h0ZM53.09,53.85c-.1,0-.21-.04-.31-.09l-1.83-1.06c-.19-.11-.31-.31-.31-.52l-.03-19.43c-.04-3.88-.2-6.97-.51-10.08-.35-2.84-.76-5-1.36-7.23-.73-2.36-1.39-4.03-2.8-5.96l-.84-.95c-.59-.58-1.04-.92-1.74-1.36-.28-.17-.37-.56-.2-.83.17-.3.54-.38.84-.23l1.83,1.06c.79.49,1.3.9,1.99,1.55,1.64,1.78,2.44,3.35,3.29,5.49.72,2.05,1.2,3.97,1.67,6.63.58,3.87.84,7.75.89,12.96l.03,19.44c0,.23-.12.43-.31.54-.09.05-.2.09-.31.09Z"/>
      <path class="cls-4" d="M22.54,25.71v-2.23c.02-4.88,2.86-10.62,6.91-14.85,4.54-4.73,10.97-7.63,15.1-6.92,6.52,1.13,12.28,7.32,12.32,29.88l.03,19.64c-.66,0-1.41.21-2.21.66-.56.33-1.1.75-1.6,1.25v-9.67s-.03-9.68-.03-9.68c-.04-20.78-4.99-26.24-10.59-27.2-3.1-.54-8.21,1.77-11.6,5.3-2.65,2.76-4.51,6.39-4.51,9.38v2.21s-3.82,2.21-3.82,2.21Z"/>
      <path class="cls-2" d="M41.54,5.91c.36,0,.71.04,1.04.08,7.54,1.31,11.07,10.14,11.1,27.82l.03,18c.23-.15.45-.31.68-.43.65-.38,1.28-.61,1.89-.71l-.03-19.07c-.05-24.42-6.76-28.41-11.81-29.27-3.94-.68-10.21,2.23-14.55,6.75-4.08,4.24-6.72,9.91-6.73,14.41v1.15s2.56-1.48,2.56-1.48v-1.88c.02-3.02,1.81-6.8,4.7-9.8,3.15-3.27,7.8-5.56,11.12-5.56h0ZM53.09,53.76c-.08,0-.16-.02-.24-.05-.23-.08-.38-.31-.38-.56l-.03-19.35c-.04-22.29-5.77-25.85-10.08-26.6-2.9-.5-7.86,1.79-11.05,5.12-2.63,2.73-4.34,6.26-4.34,8.96v2.23c-.01.2-.13.41-.32.52l-3.81,2.21c-.19.1-.43.1-.62-.02-.19-.11-.31-.31-.31-.52v-2.23c.02-4.88,2.73-10.73,7.08-15.26,4.67-4.88,11.26-7.85,15.65-7.11,8.72,1.5,12.79,11.2,12.83,30.49l.03,19.64c0,.16-.07.31-.18.44-.12.1-.27.17-.44.17-.57,0-1.23.21-1.9.59-.5.29-1,.68-1.48,1.15-.12.12-.27.17-.43.17Z"/>
      <path class="cls-4" d="M12.73,76.63l-1.83-1.06c3.25,1.34,1.24-.23,4.77,1.82l-2.94-.76Z"/>
      <path class="cls-2" d="M15.68,78c-.05,0-.1,0-.16-.02l-2.95-.76c-.05-.02-.1-.03-.15-.07l-1.83-1.04c-.28-.17-.39-.52-.25-.82.15-.28.48-.41.79-.29,1.34.56,1.7.59,1.96.59.53.03.88.1,2.88,1.27.27.15.38.49.26.76-.09.24-.33.38-.57.38Z"/>
      <path class="cls-4" d="M8.6,59.53c-.02,1.76-.03,1.09-.03,2.61.05,9.75.93,14.72,7.1,15.24l-1.49,5.05v.02-.02c-8.4-.1-9.41-6-9.42-18.08,0-1.55.01-.89.03-2.63l3.8-2.19Z"/>
      <path class="cls-2" d="M5.41,62.09c0,.5-.01.75-.02.94,0,.3-.01.46-.01,1.33.02,12.53,1.29,17.17,8.35,17.45l1.15-3.89c-6.35-.97-6.88-7.18-6.92-15.75,0-.89,0-1.05,0-1.36v-.19s-2.56,1.48-2.56,1.48h0ZM14.19,83.06h0c-9.31-.12-10.02-7.47-10.03-18.7,0-.89,0-1.05.01-1.36,0-.23.01-.52.02-1.27,0-.23.12-.41.31-.53l3.8-2.19c.19-.11.42-.11.62,0,.19.11.31.31.31.53l-.02,1.29c0,.31,0,.47,0,1.32.04,9.92.96,14.15,6.53,14.62.19.02.35.12.46.28.1.14.13.33.08.52l-1.49,5.04c-.08.28-.32.45-.59.45Z"/>
      <path class="cls-1" d="M4.38,61.36c0-3.27.57-6.71,1.59-10.17,3-10.1,9.77-19.7,17.48-24.96,12.73-7.34,22.88-4.01,22.88,10.91v1.66l-1.29.74-3.81,2.2-1.39.81v-1.67c0-.61-.03-1.18-.08-1.76-.15-1.53-.5-2.87-1.01-4.02-2.23-4.92-7.51-5.99-13.4-2.59-5.85,3.37-11.15,10.49-13.4,18.06-.7,2.38-1.09,4.76-1.09,7.04v1.65l-1.35.78-3.81,2.19-1.33.78v-1.67Z"/>
      <path class="cls-2" d="M35.2,23.08c-3.31,0-7.22,1.25-11.44,3.68-7.63,5.21-14.24,14.64-17.2,24.6-1.04,3.51-1.57,6.87-1.57,10v.59l5.25-3.03v-1.3c0-2.3.38-4.72,1.12-7.22,2.29-7.72,7.66-14.95,13.68-18.43,3.37-1.93,6.71-2.52,9.41-1.65,2.14.68,3.82,2.26,4.85,4.54.55,1.22.91,2.64,1.06,4.21.05.57.09,1.18.09,1.81v.59l5.25-3.03v-1.31c0-6.32-1.87-10.76-5.39-12.79-1.47-.85-3.2-1.27-5.12-1.27h0ZM4.38,63.64c-.1,0-.21-.03-.31-.08-.19-.1-.31-.31-.31-.52v-1.67c0-3.25.55-6.73,1.62-10.34,3.03-10.22,9.83-19.91,17.73-25.29,7.12-4.12,13.44-4.97,17.83-2.43,3.93,2.26,6.01,7.06,6.01,13.85v1.66c0,.23-.12.43-.31.54l-6.48,3.74c-.19.12-.43.12-.61,0-.19-.11-.31-.31-.31-.52v-1.67c0-.59-.03-1.15-.08-1.69-.14-1.44-.46-2.73-.96-3.83-.88-1.94-2.3-3.29-4.11-3.88-2.37-.76-5.36-.21-8.42,1.57-5.76,3.32-10.91,10.28-13.12,17.7-.71,2.4-1.07,4.7-1.07,6.87v1.65c0,.22-.12.43-.31.54l-6.48,3.74c-.1.05-.2.08-.31.08Z"/>
    </g>
  </g>
</svg>