<?xml version="1.0" encoding="UTF-8"?>
<svg id="Layer_2" data-name="Layer 2" xmlns="http://www.w3.org/2000/svg" viewBox="0 0 31.52 44.05" fill="currentColor">
  <defs>
    <style>
      .cls-1 {
        fill: #fff;
      }

      .cls-1, .cls-2, .cls-3, .cls-4 {
        fill-rule: evenodd;
      }

      .cls-2 {
        fill: #1a87c7;
      }

      .cls-3 {
        fill: #bdedf8;
      }

      .cls-4 {
        fill: #66ceef;
      }
    </style>
  </defs>
  <g id="_Layer_" data-name="&amp;lt;Layer&amp;gt;">
    <g>
      <path class="cls-4" d="M18.76,1.08v1.08l.71.41.79-.45c.37-.21.73-.21,1.1,0l.37.21c.13.09.24.23.24.41v25.54c-.03.19-.08.3-.24.41l-15.64,9.02c-1.6.95-5.68,1.04-5.76-1.29V10.87l.03-.1c.1-.87,1.1-1.28,1.78-1.67C7.1,6.22,12.08,3.34,17.08.46c.34-.2.73-.2,1.1,0l.34.21c.16.09.24.24.24.41h0Z"/>
      <path class="cls-2" d="M17.63.61c-.13,0-.29.04-.39.12L2.28,9.37c-.11.05-.21.11-.34.18-.58.31-1.23.68-1.31,1.26v25.6c0,.51.26.92.79,1.2,1.2.66,3.46.44,4.51-.17l15.64-9.03c.05-.04.08-.06.08-.16V2.72c0-.06-.03-.1-.08-.14l-.37-.21c-.26-.15-.52-.15-.79,0l-.79.45c-.11.06-.21.06-.31,0l-.68-.4c-.11-.06-.16-.16-.16-.27v-1.09c0-.06-.03-.11-.08-.14l-.37-.21c-.13-.08-.26-.12-.39-.12h0ZM3.35,38.64c-.81,0-1.63-.15-2.23-.49-.71-.38-1.1-.98-1.13-1.73L.03,10.71c.11-.88.94-1.34,1.62-1.7.11-.06.21-.11.31-.17L16.93.19c.45-.25.94-.25,1.41,0l.34.21c.26.14.39.39.39.68v.9l.39.24.63-.37c.44-.26.97-.26,1.41,0l.37.21c.24.14.37.39.37.67v25.54c0,.31-.13.51-.37.66l-15.64,9.04c-.71.42-1.81.67-2.88.67Z"/>
      <path class="cls-4" d="M3.46,10.18c5.03-2.9,10.03-5.81,15.06-8.7.16-.09.24-.24.24-.4v1.88L4.37,11.28c-.45.26-1.05.4-1.54.12-.24-.14-.26-.36-.21-.54.08-.33.52-.5.84-.68Z"/>
      <path class="cls-2" d="M3.46,10.18h.03-.03ZM18.47,1.87L3.62,10.45h0c-.05.03-.13.07-.18.11-.21.11-.47.25-.52.38-.03.12.03.15.08.19.5.28,1.07-.02,1.26-.12L18.47,2.8v-.92h0ZM3.46,11.86c-.29,0-.55-.07-.79-.2-.31-.18-.45-.52-.34-.88.11-.4.5-.6.81-.76l.16-.1L18.39,1.21c.05-.03.08-.08.08-.14,0-.17.13-.3.29-.3h0c.18,0,.31.14.31.31v1.88c0,.11-.05.22-.16.27L4.53,11.55c-.34.21-.73.31-1.07.31Z"/>
      <path class="cls-4" d="M9.56,10.15l-2.72,1.58c-.84.49-1.31.84-2.28,1.03-1.1.21-2.36.06-3.28-.46-.92-.54-1.21-1.39-.73-2.09.05-.06.11-.12.16-.19.26-.3.63-.47,1-.68l.23-.13,1.97-1.14h0L17.08.46c.34-.2.73-.2,1.1,0l.34.21c.31.18.31.63,0,.82-5.08,2.94-10.17,5.88-15.25,8.81-.29.16-.63.3-.68.66,0,.16.05.33.24.44.5.28,1.1.14,1.54-.12L20.25,2.12c.37-.21.73-.21,1.1,0l.37.21c.13.09.24.23.24.41s-.11.32-.24.41l-12.16,7.02Z"/>
      <path class="cls-2" d="M17.63.61c-.13,0-.29.04-.39.12L1.65,9.72c-.26.16-.52.3-.73.51-.05.04-.08.09-.13.15-.13.22-.18.48-.13.72.08.35.34.68.79.92.81.47,1.99.63,3.07.43.76-.14,1.15-.38,1.78-.76l3.12-1.81h0l12.16-7.02c.05-.03.08-.08.08-.14s-.03-.1-.08-.14l-.37-.21c-.26-.15-.52-.15-.79,0L4.53,11.55c-.63.37-1.34.42-1.86.11-.26-.16-.39-.43-.37-.74.05-.47.42-.68.68-.83l.13-.06L18.39,1.21c.05-.04.08-.11.08-.14,0-.03-.03-.09-.08-.14l-.37-.21c-.13-.08-.26-.12-.39-.12h0ZM3.56,13.15c-.89,0-1.76-.21-2.44-.6-.58-.33-.94-.8-1.07-1.31-.11-.42,0-.84.24-1.21.05-.08.11-.15.18-.23.26-.28.58-.45.89-.63l2.38-1.37L16.93.19c.45-.25.94-.25,1.41,0l.34.21c.26.14.39.39.39.68s-.13.53-.39.67L3.27,10.64c-.24.14-.34.21-.37.34,0,.07.03.11.08.15.5.28,1.07-.02,1.26-.12L20.1,1.85c.44-.26.97-.26,1.41,0l.37.21c.24.14.37.39.37.67s-.13.53-.37.68L6.6,12.23c-.63.37-1.13.67-1.99.83-.34.06-.71.09-1.05.09Z"/>
      <path class="cls-1" d="M19.47,2.57l-.71-.41L2.8,11.37l.03.03c.5.29,1.1.14,1.54-.12L19.47,2.57Z"/>
      <path class="cls-2" d="M18.76,2.52L3.69,11.22c.24-.04.45-.15.55-.21L18.86,2.57l-.1-.05h0ZM3.46,11.86c-.29,0-.55-.06-.79-.2-.08-.06-.16-.17-.16-.28,0-.1.03-.22.13-.27L18.63,1.89c.08-.05.21-.05.29,0l.71.41c.1.05.16.16.16.27,0,.1-.05.21-.16.26L4.53,11.55c-.34.21-.73.31-1.07.31Z"/>
      <path class="cls-1" d="M23.4,3.76v1.08l.71.41.79-.46c.34-.2.73-.2,1.1,0l.34.21c.16.09.24.24.24.41v25.54c0,.19-.08.3-.24.4l-15.61,9.03c-1.62.96-5.69,1.03-5.76-1.29V13.45c.03-.21.11-.42.26-.61.29-.41.76-.62,1.18-.87,5.11-2.94,10.22-5.89,15.33-8.84.34-.2.73-.2,1.07,0l.37.21c.16.09.24.23.24.41h0Z"/>
      <path class="cls-2" d="M22.27,3.29c-.13,0-.29.03-.39.11L6.31,12.37c-.31.19-.66.36-.86.65-.1.15-.16.3-.18.46l-.03.12v25.48c.03.51.29.92.81,1.2,1.2.66,3.46.44,4.51-.18l15.64-9.03c.05-.04.08-.06.08-.16V5.4c0-.06-.03-.1-.08-.14l-.37-.21c-.26-.15-.55-.15-.79,0l-.79.45c-.11.06-.21.06-.31,0l-.71-.41c-.08-.05-.16-.15-.16-.26v-1.09c0-.06-.03-.11-.08-.14l-.34-.21c-.13-.08-.26-.11-.39-.11h0ZM7.99,41.32c-.81,0-1.62-.15-2.23-.48-.71-.38-1.1-.98-1.13-1.73l.03-25.71c.03-.24.13-.5.29-.73.29-.39.68-.61,1.07-.83l.24-.12L21.56,2.87c.44-.25.94-.25,1.39,0l.37.21c.24.14.39.39.39.68v.9l.39.24.63-.37c.45-.26.97-.26,1.42,0l.34.21c.24.14.39.39.39.67v25.54c-.03.3-.13.51-.37.66l-15.64,9.04c-.71.42-1.81.67-2.88.67Z"/>
      <path class="cls-3" d="M7.86,12.99c5.11-2.94,10.22-5.89,15.3-8.84.16-.08.24-.23.24-.39v1.89l-14.38,8.31c-.45.26-1.05.4-1.55.12-.24-.14-.26-.36-.21-.54.08-.29.37-.39.6-.55Z"/>
      <path class="cls-2" d="M8.02,13.26l-.13.08c-.21.11-.31.17-.34.28-.03.12.03.16.08.19.47.28,1.07-.02,1.23-.12l14.23-8.21v-.92l-15.06,8.71h0ZM8.1,14.54c-.29,0-.55-.07-.79-.2-.31-.18-.45-.52-.37-.88.11-.37.42-.54.65-.67l.13-.06h0L23,3.89c.05-.03.08-.08.08-.14,0-.17.16-.3.32-.3h0c.18,0,.31.14.31.31v1.89c0,.11-.05.22-.16.27l-14.38,8.31c-.37.21-.73.31-1.07.31Z"/>
      <path class="cls-1" d="M14.2,12.83l-2.86,1.66c-.68.37-1.18.72-1.94.9-1.18.27-2.51.14-3.48-.42-.87-.5-1.18-1.27-.84-1.93.26-.53.76-.74,1.23-1.01l1.31-.77c4.69-2.71,9.41-5.42,14.1-8.14.34-.2.73-.2,1.07,0l.37.21c.16.09.24.23.24.41,0,.17-.08.32-.24.4-5.03,2.91-10.03,5.81-15.06,8.72-.34.19-.84.37-.86.76,0,.16.05.33.24.44.5.28,1.1.14,1.55-.12l15.88-9.17c.34-.2.73-.2,1.1,0l.34.21c.16.09.24.24.24.41s-.08.32-.24.41l-12.13,7.02Z"/>
      <path class="cls-2" d="M22.27,3.29c-.16,0-.29.03-.39.11L6.26,12.41c-.37.22-.71.4-.89.77-.29.52,0,1.12.71,1.52.86.5,2.1.65,3.25.38.6-.14,1.05-.41,1.57-.71l3.14-1.82h0l12.16-7.01c.05-.03.08-.08.08-.14s-.03-.1-.08-.14l-.37-.21c-.26-.15-.55-.15-.79,0l-15.88,9.17c-.66.37-1.34.42-1.86.11-.26-.16-.42-.43-.39-.73.05-.5.52-.74.84-.91l.18-.1L23,3.89c.05-.03.08-.08.08-.14s-.03-.11-.08-.14l-.34-.21c-.13-.08-.26-.11-.39-.11h0ZM8.2,15.83c-.89,0-1.76-.21-2.44-.6-1-.56-1.36-1.5-.94-2.33.26-.54.71-.79,1.15-1.03l1.49-.87L21.56,2.87c.44-.25.94-.25,1.39,0l.37.21c.24.14.39.39.39.68s-.16.53-.39.67l-15.09,8.72c-.05.03-.11.07-.18.1-.24.12-.5.26-.5.42,0,.07.03.11.08.15.47.28,1.07-.02,1.23-.12l15.88-9.16c.45-.26.97-.26,1.42,0l.34.21c.24.14.39.39.39.67s-.16.53-.39.68l-15.28,8.82c-.52.32-1.05.62-1.73.78-.42.09-.86.15-1.28.15Z"/>
      <path class="cls-1" d="M24.1,5.25l-.71-.41L7.44,14.05l.03.03c.5.29,1.1.14,1.55-.12l15.09-8.71Z"/>
      <path class="cls-2" d="M23.4,5.19l-15.07,8.7c.24-.04.45-.16.52-.21l14.62-8.44-.08-.05h0ZM8.1,14.54c-.29,0-.55-.06-.79-.2-.08-.06-.16-.18-.16-.28,0-.12.03-.22.13-.28l15.96-9.21c.1-.05.21-.05.31,0l.71.41c.11.05.16.15.16.27,0,.1-.05.21-.16.26l-15.09,8.72c-.37.21-.73.31-1.07.31Z"/>
      <path class="cls-3" d="M28.01,6.49v1.08l.71.41.79-.45c.34-.2.73-.2,1.1,0l.34.21c.16.09.24.24.24.41v25.54c0,.2-.05.3-.24.41l-15.61,9.03c-1.62.95-5.69,1.02-5.76-1.29v-25.64c.05-.28.18-.55.42-.8.31-.3.73-.5,1.1-.71,5.08-2.93,10.17-5.87,15.25-8.8.34-.21.73-.21,1.07,0l.37.21c.16.09.24.23.24.41h0Z"/>
      <path class="cls-2" d="M26.85,6.03c-.13,0-.26.03-.39.1l-15.48,8.95c-.26.15-.58.32-.79.52-.18.19-.29.4-.31.62l-.03.12.03,25.48c0,.51.26.92.79,1.2,1.18.66,3.43.44,4.51-.18l15.64-9.03c.05-.04.05-.06.08-.16V8.14c0-.07-.03-.11-.08-.14l-.37-.21c-.26-.15-.52-.15-.79,0l-.79.45c-.1.05-.21.05-.31,0l-.71-.41c-.08-.05-.16-.16-.16-.27v-1.09c0-.06-.03-.11-.08-.14l-.34-.21c-.13-.07-.26-.1-.42-.1h0ZM12.6,44.05c-.81,0-1.62-.15-2.25-.48-.68-.39-1.07-.99-1.1-1.74l.03-25.7c.03-.34.21-.68.5-.97.26-.27.6-.44.92-.63l.24-.13,15.25-8.8c.45-.26.94-.26,1.39,0l.37.21c.23.14.39.39.39.67v.91l.39.23.63-.36c.45-.26.94-.25,1.42,0l.34.21c.26.14.39.39.39.68v25.54c0,.31-.13.5-.37.67l-15.64,9.03c-.71.42-1.81.67-2.88.67Z"/>
      <path class="cls-3" d="M12.47,15.68l7.47-4.32h0l7.86-4.54c.16-.08.24-.22.24-.4v1.89l-14.38,8.31c-.45.26-1.05.4-1.55.12-.24-.13-.29-.35-.21-.54.08-.29.34-.38.58-.52Z"/>
      <path class="cls-2" d="M12.47,15.68h.03-.03ZM27.72,7.23l-15.09,8.72h0l-.13.08c-.21.11-.29.17-.31.27-.05.12.03.16.08.19.47.28,1.07-.03,1.23-.12l14.23-8.22v-.92h0ZM12.71,17.22c-.26,0-.52-.07-.76-.2-.31-.18-.45-.53-.37-.88.13-.37.39-.53.63-.65l.11-.06,15.33-8.85c.05-.03.08-.08.08-.14,0-.17.16-.3.31-.3h0c.18,0,.29.14.29.3v1.89c0,.11-.05.22-.13.27l-14.38,8.31c-.37.21-.73.31-1.1.31Z"/>
      <path class="cls-3" d="M18.84,15.5l-3.09,1.78c-.6.36-.94.59-1.65.76-1.15.29-2.54.16-3.54-.4-.92-.52-1.2-1.35-.79-2.04.29-.49.89-.74,1.36-1.03l2.02-1.17h0l13.18-7.61c.37-.2.76-.2,1.1,0l.37.21c.16.09.24.23.24.41,0,.17-.08.31-.24.4-5.03,2.9-10.03,5.8-15.07,8.7-.31.19-.79.37-.86.73-.03.17.03.36.24.49.5.29,1.1.15,1.55-.12l15.88-9.17c.34-.2.73-.2,1.07,0l.37.21c.16.09.24.24.24.41s-.08.32-.24.41l-12.13,7.01Z"/>
      <path class="cls-2" d="M26.88,5.97c-.13,0-.26.03-.39.11l-15.46,8.93c-.39.22-.79.43-1,.77-.13.22-.16.46-.1.7.08.34.34.66.76.9.89.5,2.2.65,3.33.36.58-.14.86-.31,1.34-.58l3.33-1.93h0l12.13-7.01c.05-.03.08-.08.08-.14s-.03-.1-.08-.14l-.37-.21c-.24-.15-.52-.15-.76,0l-15.88,9.17c-.65.36-1.34.42-1.86.11-.29-.17-.45-.48-.37-.81.08-.44.5-.66.84-.84l.16-.1,15.06-8.69c.05-.03.08-.08.08-.14,0-.07-.03-.12-.08-.14l-.37-.22c-.13-.07-.26-.1-.39-.1h0ZM12.81,18.51c-.89,0-1.73-.21-2.41-.6-.58-.32-.94-.77-1.07-1.28-.11-.41-.05-.81.18-1.17.29-.48.79-.75,1.23-.99l2.25-1.31,13.21-7.62c.42-.25.94-.25,1.39,0l.37.21c.24.14.37.39.37.68s-.13.53-.37.67l-15.06,8.7c-.05.03-.13.07-.18.11-.24.12-.5.26-.52.42-.03.09,0,.13.08.17.47.28,1.07-.03,1.23-.12l15.88-9.16c.45-.26.94-.26,1.39,0l.37.21c.24.14.39.39.39.67s-.16.53-.39.67l-15.48,8.94c-.47.29-.81.5-1.47.65-.45.11-.89.17-1.36.17Z"/>
      <path class="cls-1" d="M28.74,7.91l-.71-.4-15.96,9.21.03.02c.47.3,1.1.15,1.55-.12l15.09-8.72Z"/>
      <path class="cls-2" d="M28.03,7.87l-15.06,8.7c.24-.04.45-.16.52-.21l14.62-8.45-.08-.04h0ZM12.71,17.22c-.29,0-.55-.07-.76-.2-.1-.06-.18-.17-.18-.28,0-.11.05-.22.16-.28l15.96-9.21c.11-.05.21-.05.31,0l.71.41c.08.05.16.16.16.26,0,.11-.08.22-.16.27l-15.09,8.72c-.37.21-.73.31-1.1.31Z"/>
      <path class="cls-3" d="M31.18,8.36v25.32c0,.2-.05.3-.24.41l-15.61,9.03v-25.59l15.85-9.17Z"/>
      <path class="cls-2" d="M15.64,17.7v24.88l15.17-8.76c.05-.04.05-.06.08-.16V8.9l-15.25,8.8h0ZM15.33,43.42c-.05,0-.1,0-.16-.03-.08-.06-.16-.16-.16-.27v-25.59c0-.11.08-.22.16-.27l15.88-9.16c.08-.06.21-.06.29,0,.1.05.16.15.16.26v25.32c0,.31-.13.5-.37.67l-15.64,9.03c-.05.04-.11.04-.16.04Z"/>
      <path class="cls-2" d="M10.77,39.05c-.18,0-.31-.14-.31-.3v-18.51c0-.17.13-.3.31-.3.16,0,.31.14.31.3v18.51c0,.17-.16.3-.31.3Z"/>
      <path class="cls-2" d="M6.92,26.35c-.16,0-.31-.14-.31-.31v-8.01c0-.17.16-.31.31-.31.18,0,.31.14.31.31v8.01c0,.18-.13.31-.31.31Z"/>
      <path class="cls-2" d="M5.92,28.41c-.18,0-.31-.14-.31-.3v-10.67c0-.18.13-.3.31-.3.16,0,.29.13.29.3v10.67c0,.16-.13.3-.29.3Z"/>
      <path class="cls-2" d="M1.49,31.04c-.16,0-.31-.14-.31-.31v-15.85c0-.17.16-.3.31-.3.18,0,.31.13.31.3v15.85c0,.17-.13.31-.31.31Z"/>
    </g>
  </g>
</svg>