<?xml version="1.0" encoding="UTF-8"?>
<svg id="Layer_2" data-name="Layer 2" xmlns="http://www.w3.org/2000/svg" viewBox="0 0 40.88 44.23" fill="currentColor">
  <defs>
    <style>
      .cls-1 {
        fill: #fff;
      }

      .cls-1, .cls-2, .cls-3, .cls-4 {
        fill-rule: evenodd;
      }

      .cls-2 {
        fill: #1a87c7;
      }

      .cls-3 {
        fill: #bdedf8;
      }

      .cls-4 {
        fill: #66ceef;
      }
    </style>
  </defs>
  <g id="_Layer_" data-name="&amp;lt;Layer&amp;gt;">
    <g>
      <path class="cls-4" d="M19.21,27.74c0,.8.05,1.25-.39,1.95-1.15,1.66-3.8,2.27-5.69,2.3-1.91.02-4.48-.51-5.76-2.02-.37-.42-.6-.94-.63-1.5v-.74c.05.67.31,1.17.76,1.66,1.44,1.52,4.19,1.98,6.21,1.84,1.73-.12,4.06-.76,5.11-2.27.24-.4.37-.74.39-1.21Z"/>
      <path class="cls-2" d="M8.23,30.36c1.34.99,3.38,1.35,4.87,1.32,1.49-.02,3.43-.4,4.69-1.37-1.18.76-2.75,1.13-4.06,1.22-1.62.12-3.88-.15-5.5-1.17h0ZM13,32.3c-1.91,0-4.53-.56-5.87-2.13-.45-.52-.68-1.1-.71-1.69v-.76c0-.16.13-.3.29-.31.16-.02.31.12.34.29.03.57.24,1.01.68,1.47,1.34,1.4,3.96,1.89,5.95,1.75,1.73-.12,3.93-.74,4.87-2.14.21-.34.31-.64.37-1.06,0-.16.13-.31.31-.28.16.01.29.14.29.31v.21c0,.69.03,1.2-.47,1.91-1.18,1.76-3.93,2.41-5.92,2.43h-.13Z"/>
      <path class="cls-4" d="M9.85,30.76c-2.99-.99-4.01-3.2-2.28-4.92,1.73-1.72,5.55-2.32,8.52-1.32,2.99.99,4.03,3.2,2.31,4.92-1.73,1.72-5.55,2.32-8.54,1.32Z"/>
      <path class="cls-2" d="M12.97,24.34c-2.07,0-4.09.61-5.19,1.71-.6.62-.86,1.31-.68,2,.24.99,1.28,1.9,2.86,2.42h0c2.88.96,6.58.4,8.2-1.24.63-.62.86-1.31.71-2-.24-.99-1.31-1.9-2.86-2.42-.97-.32-2.02-.47-3.04-.47h0ZM12.94,31.55c-1.07,0-2.18-.16-3.2-.5h0c-1.78-.6-2.96-1.64-3.25-2.86-.24-.89.08-1.81.86-2.58,1.78-1.8,5.76-2.42,8.83-1.39,1.78.6,2.99,1.64,3.27,2.86.21.9-.1,1.81-.86,2.58-1.21,1.21-3.41,1.89-5.66,1.89Z"/>
      <polygon class="cls-4" points="9.46 28.86 8.62 28.38 8.62 26.07 9.46 26.56 9.46 28.86"/>
      <path class="cls-2" d="M8.91,28.2l.24.13v-1.59l-.24-.13v1.59h0ZM9.46,29.17c-.05,0-.1-.01-.16-.04l-.84-.49c-.1-.05-.16-.15-.16-.27v-2.3c0-.11.05-.21.16-.27.08-.06.21-.06.32,0l.81.48c.11.05.16.16.16.27v2.3c0,.11-.05.21-.16.27-.03.03-.08.04-.13.04Z"/>
      <polygon class="cls-3" points="9.46 26.56 15.04 23.34 15.04 25.64 9.46 28.86 9.46 26.56"/>
      <path class="cls-2" d="M9.75,26.73v1.6l4.98-2.87v-1.59l-4.98,2.86h0ZM9.46,29.17c-.05,0-.1-.01-.16-.04-.11-.06-.16-.16-.16-.27v-2.3c0-.11.05-.21.16-.27l5.58-3.22c.08-.06.21-.06.31,0,.08.06.13.16.13.27v2.3c0,.11-.05.21-.13.27l-5.61,3.22s-.08.04-.13.04Z"/>
      <path class="cls-3" d="M1.55,31.19l-.79-.46c-.37-.31-.39-.5-.45-.97v-14.59c.11-1.09.58-1.96,1.52-2.6L22.71.5c.45-.2.63-.27,1.07-.1l.79.46c-.45-.17-.63-.09-1.05.1L2.62,13.02c-.94.64-1.41,1.48-1.52,2.6v14.59c.05.47.08.66.45.97Z"/>
      <path class="cls-2" d="M23.37.61c-.13,0-.26.06-.52.17L1.96,12.83c-.81.57-1.26,1.34-1.34,2.36v14.57c.03.33.03.45.18.61,0-.04-.03-.08-.03-.12v-14.62c.11-1.23.66-2.16,1.65-2.86L23.37.69c.05-.02.08-.04.13-.07-.05-.01-.08-.02-.13-.02h0ZM1.55,31.5c-.05,0-.11-.02-.16-.04l-.79-.46c-.52-.42-.55-.73-.6-1.21v-14.62c.1-1.22.66-2.17,1.65-2.86L22.56.24c.5-.23.79-.33,1.34-.12l.84.48c.13.08.18.25.13.4-.08.15-.26.22-.39.16-.34-.13-.42-.09-.81.09L2.75,13.29c-.81.58-1.26,1.33-1.34,2.36v14.57c.03.41.05.5.32.73.13.1.16.28.08.41-.08.09-.16.13-.26.13Z"/>
      <path class="cls-3" d="M2.62,13.02L23.53.96c.81-.48,1.49-.09,1.49.87v14.59c0,.96-.68,2.13-1.52,2.6L2.59,31.08c-.81.48-1.49.09-1.49-.87v-14.59c0-.95.68-2.12,1.52-2.6Z"/>
      <path class="cls-2" d="M2.75,13.29c-.71.42-1.34,1.49-1.34,2.33v14.59c0,.34.11.6.29.71.18.11.45.07.73-.1l20.93-12.06c.73-.42,1.34-1.49,1.34-2.34V1.83c0-.34-.1-.6-.29-.7-.18-.11-.45-.07-.73.1L2.75,13.29h0ZM1.94,31.6c-.21,0-.39-.05-.55-.14-.39-.22-.6-.66-.6-1.24v-14.59c0-1.07.73-2.33,1.68-2.87h0L23.37.69c.5-.29.97-.32,1.36-.1.39.22.6.66.6,1.24v14.59c-.03,1.07-.73,2.33-1.68,2.87L2.75,31.35c-.29.16-.55.24-.81.24Z"/>
      <path class="cls-4" d="M30.63,23.64c-.24.45-.31,1.71.13,2.35,1.31,1.88,6.65,4.31,8.96,2.69.37-.26.65-.62.79-1.07.16-.56.03-1.12-.08-1.52-.16.73-.68,1.17-1.34,1.48-3.96,1.24-4.37-1.26-7.49-2.45-.6-.45-.86-.7-.97-1.49Z"/>
      <path class="cls-2" d="M30.76,24.79c0,.38.08.77.26,1.03.73,1.08,3.22,2.57,5.58,2.98,1.26.23,2.28.1,2.93-.37.34-.24.58-.55.68-.9.03-.14.05-.29.05-.44-.31.36-.71.59-1.02.75-2.8.88-3.98.01-5.32-1-.71-.52-1.42-1.05-2.44-1.44-.03-.01-.05-.02-.08-.04-.29-.2-.5-.38-.65-.58h0ZM37.73,29.53c-.39,0-.79-.04-1.23-.12-2.31-.41-5.06-1.89-6-3.24-.55-.78-.39-2.17-.13-2.67.05-.12.18-.19.31-.16.13.02.24.13.26.27.08.67.26.86.79,1.25,1.1.42,1.89,1,2.57,1.51,1.31.98,2.25,1.69,4.72.92.66-.32,1-.72,1.1-1.25.03-.14.16-.24.31-.25.16,0,.26.09.29.24.1.42.26,1.05.08,1.68-.13.49-.42.91-.89,1.23-.55.39-1.28.59-2.18.59Z"/>
      <path class="cls-3" d="M30.44,24.3c-.16,2.04,2.44,1.23,3.54,2.66,1.26,1.61,4.43,2.17,5.97.89.42-.34.6-.79.55-1.31-.03-.43-.24-.88-.5-1.33-.71-1.11-1.91-2.36-3.56-3.09-.81-.36-1.49-.57-2.25-.49-1.36.15-3.62,1.18-3.75,2.67Z"/>
      <path class="cls-2" d="M30.76,24.33c-.08.88.42,1.06,1.44,1.34.71.2,1.49.42,2.04,1.1.58.75,1.68,1.31,2.88,1.44,1.05.12,2.02-.1,2.65-.61.31-.27.47-.62.42-1.05-.03-.35-.18-.75-.45-1.2-.39-.61-1.47-2.11-3.43-2.97-.79-.34-1.42-.54-2.1-.47-1.34.14-3.35,1.15-3.46,2.39h0ZM37.68,28.86c-.21,0-.42-.01-.6-.04-1.39-.15-2.65-.8-3.33-1.68-.39-.52-1.07-.7-1.73-.88-.92-.26-1.99-.55-1.89-1.98h0c.16-1.64,2.46-2.79,4.01-2.96.84-.09,1.57.14,2.44.52,2.1.92,3.27,2.55,3.69,3.2.34.53.5,1.01.55,1.47.05.63-.18,1.17-.65,1.57-.63.51-1.49.78-2.49.78Z"/>
      <path class="cls-4" d="M33.98,31.96v.95c-.08.28-.26.45-.52.6l-17.5,10.1c-.76.42-1.83.41-2.59,0l-5.97-3.47c-.26-.15-.45-.31-.52-.6v-.95c.08.28.26.45.52.6l5.97,3.47c.76.42,1.83.42,2.59,0l17.5-10.1c.26-.15.45-.31.52-.6Z"/>
      <path class="cls-2" d="M7.18,39.48c.05.15.16.26.37.39l5.97,3.47c.68.36,1.62.36,2.31,0l17.5-10.1c.18-.13.29-.23.34-.38v-.07s-.03.02-.05.03l-17.5,10.11c-.86.47-2.04.47-2.88,0l-6-3.48s-.05-.02-.05-.03v.07h0ZM14.67,44.23c-.5,0-1.02-.12-1.44-.35l-6-3.48c-.26-.16-.55-.37-.68-.78v-1.03c0-.16.1-.28.26-.3.16-.02.29.07.34.22.05.17.16.28.39.42l5.97,3.47c.65.36,1.62.36,2.31,0l17.5-10.1c.21-.14.31-.25.37-.42.03-.14.18-.24.34-.22.16.02.26.15.26.3v.95s0,.06-.03.08c-.11.41-.39.62-.65.78l-17.5,10.11c-.42.24-.92.35-1.44.35Z"/>
      <path class="cls-3" d="M7.39,37.68l17.48-10.1c.73-.41,1.89-.41,2.62,0l5.97,3.47c.73.41.73,1.09,0,1.5l-17.5,10.1c-.71.41-1.86.41-2.59,0l-5.97-3.47c-.73-.41-.73-1.09,0-1.5Z"/>
      <path class="cls-2" d="M26.17,27.58c-.42,0-.84.09-1.15.27l-17.5,10.1h0c-.24.14-.37.32-.37.48s.13.35.37.48l6,3.47c.63.36,1.68.36,2.31,0l17.5-10.1c.24-.14.37-.32.37-.48s-.13-.34-.37-.48l-6-3.47c-.31-.18-.73-.27-1.15-.27h0ZM14.67,43.28c-.52,0-1.05-.12-1.44-.35l-6-3.47c-.45-.25-.71-.63-.71-1.02s.26-.76.71-1.01l17.48-10.11c.84-.47,2.1-.47,2.91,0l6,3.47c.45.25.71.62.71,1.02s-.26.76-.71,1.02l-17.5,10.1c-.39.24-.92.35-1.44.35Z"/>
      <path class="cls-4" d="M1.62,14.03l-.79-.46c-.34.51-.47.99-.52,1.59v14.59c.05.47.08.66.45.97l.79.46c-.37-.31-.39-.5-.45-.97v-14.59c.05-.6.18-1.08.52-1.59Z"/>
      <path class="cls-2" d="M.94,13.99c-.18.35-.29.71-.32,1.2v14.57c.03.32.03.45.18.61,0-.04-.03-.08-.03-.12v-14.62c.05-.59.18-1.05.42-1.48l-.26-.15h0ZM1.55,31.5c-.05,0-.11-.02-.16-.04l-.79-.46c-.5-.41-.55-.69-.6-1.21v-14.62c.08-.73.24-1.25.58-1.76.08-.14.26-.18.42-.1l.79.46c.08.04.13.11.13.19.03.08.03.17-.03.24-.29.43-.42.85-.47,1.45v14.57c.03.41.05.5.32.73.13.1.16.28.08.41-.08.09-.16.13-.26.13Z"/>
      <path class="cls-1" d="M15.64,37.01l.86-.51c.18-.1.47-.1.65,0l.86.51c.18.1.18.27,0,.37l-.86.51c-.18.1-.47.1-.65,0l-.86-.51c-.18-.1-.18-.27,0-.37Z"/>
      <path class="cls-2" d="M15.64,37.01l.13.27s.03,0,.03,0l-.16-.27h0ZM15.93,37.19l.73.42c.08.05.26.05.34,0l.73-.42-.73-.42c-.08-.05-.26-.05-.34,0l-.73.42h0ZM16.85,38.27c-.18,0-.34-.04-.5-.12l-.86-.5c-.18-.11-.29-.27-.29-.45s.11-.35.29-.45l.89-.51c.26-.16.66-.16.94,0l.86.51c.18.1.29.27.29.45s-.11.35-.29.45l-.89.5c-.13.08-.29.12-.45.12Z"/>
      <path class="cls-1" d="M12.21,38.99l-.89.51c-.16.1-.16.27,0,.37l.89.51c.16.11.45.11.63,0l.86-.5c.18-.1.18-.27,0-.37l-.86-.51c-.18-.1-.47-.1-.63,0Z"/>
      <path class="cls-2" d="M11.61,39.69l.73.42c.08.05.26.05.34,0l.73-.42-.73-.42c-.08-.05-.24-.05-.34,0h0l-.73.42h0ZM12.52,40.76c-.18,0-.34-.04-.47-.12l-.89-.51c-.18-.1-.29-.27-.29-.45s.11-.35.29-.45l.89-.51c.26-.16.68-.16.94,0l.86.51c.18.11.29.27.29.45s-.11.35-.29.45l-.86.51c-.13.08-.31.12-.47.12Z"/>
      <path class="cls-1" d="M14.36,40.24l-.89.51c-.16.1-.16.27,0,.37l.89.51c.18.1.47.1.63,0l.89-.51c.16-.1.16-.27,0-.37l-.89-.51c-.16-.1-.45-.1-.63,0Z"/>
      <path class="cls-2" d="M13.78,40.93l.73.42c.08.05.24.05.34,0l.71-.42-.71-.42c-.1-.04-.26-.05-.34,0l-.73.42h0ZM14.67,42.01c-.16,0-.34-.04-.47-.12l-.89-.51c-.16-.1-.26-.27-.26-.45s.1-.35.26-.45l.89-.51h0c.26-.15.68-.15.94,0l.89.51c.18.1.29.27.29.45s-.1.35-.29.45l-.89.51c-.13.08-.29.12-.47.12Z"/>
      <path class="cls-1" d="M12.84,37.88l.86-.51c.18-.1.18-.27,0-.37l-.86-.51c-.18-.1-.47-.1-.63,0l-.89.51c-.16.1-.16.27,0,.37l.89.51c.16.1.45.1.63,0Z"/>
      <path class="cls-2" d="M11.61,37.19l.76.42c.08.05.24.05.31,0l.73-.42-.73-.43c-.08-.05-.24-.05-.31,0l-.76.43h0ZM12.52,38.27c-.18,0-.34-.04-.47-.12l-.89-.51c-.18-.11-.29-.27-.29-.45s.11-.35.29-.45l.89-.51c.26-.16.68-.16.94,0l.86.51c.18.1.29.27.29.45s-.11.35-.29.45l-.86.5h0c-.13.08-.31.12-.47.12Z"/>
      <path class="cls-1" d="M15.01,36.64l.86-.51c.18-.1.18-.27,0-.37l-.86-.51c-.18-.1-.47-.1-.65,0l-.89.51c-.16.1-.16.27,0,.37l.89.51c.18.1.47.1.65,0Z"/>
      <path class="cls-2" d="M13.78,35.94l.73.43c.08.04.26.04.34,0l.71-.42-.71-.43c-.08-.05-.26-.05-.34,0l-.73.42h0ZM14.67,37.02c-.16,0-.34-.04-.47-.12l-.86-.51c-.18-.11-.29-.27-.29-.45s.1-.35.29-.45l.86-.51c.29-.16.68-.16.94,0l.89.51c.18.11.29.27.29.45s-.1.35-.29.45l-.89.51h0c-.13.08-.29.12-.47.12Z"/>
      <path class="cls-1" d="M11.55,38.62l-.86.51c-.18.1-.47.1-.65,0l-.86-.51c-.18-.1-.18-.27,0-.37l.86-.51c.18-.1.47-.1.65,0l.86.51c.18.1.18.27,0,.37Z"/>
      <path class="cls-2" d="M11.55,38.62l-.13-.27s0,0-.03,0l.16.26-.16-.26.16.26h0ZM9.46,38.44l.73.42c.08.05.26.05.34,0l.73-.42-.73-.42c-.08-.05-.26-.05-.34,0l-.73.42h0ZM10.35,39.51c-.16,0-.34-.04-.47-.12l-.86-.51c-.18-.11-.29-.27-.29-.45s.1-.35.29-.45l.86-.51c.29-.16.68-.16.97,0l.86.51c.18.11.29.27.29.45s-.11.35-.29.45h0l-.86.51c-.16.08-.31.12-.5.12Z"/>
      <path class="cls-1" d="M13.47,38.25l.89-.51c.18-.1.47-.1.65,0l.86.51c.18.1.18.27,0,.37l-.86.51c-.18.1-.47.1-.65,0l-.89-.51c-.16-.1-.16-.27,0-.37Z"/>
      <path class="cls-2" d="M13.47,38.25h.03-.03ZM13.47,38.25l.16.28h0s-.16-.28-.16-.28h0ZM13.78,38.44l.73.43c.08.04.24.04.34,0l.71-.43-.71-.42c-.08-.05-.26-.05-.34,0l-.73.42h0ZM14.67,39.52c-.16,0-.34-.04-.47-.12l-.89-.51c-.16-.11-.26-.27-.26-.45s.1-.35.26-.45l.89-.51c.26-.16.68-.16.94,0l.89.51c.18.1.29.27.29.45s-.1.35-.29.45l-.89.51c-.13.08-.29.12-.47.12Z"/>
      <path class="cls-1" d="M19.96,34.52l.86-.51c.18-.1.47-.1.65,0l.86.51c.18.1.18.27,0,.37l-.89.51c-.16.1-.45.1-.63,0l-.86-.51c-.18-.1-.18-.27,0-.37Z"/>
      <path class="cls-2" d="M19.96,34.52l.13.27h0s-.13-.27-.13-.27h0ZM20.25,34.7l.73.42c.08.05.24.05.34,0l.73-.42-.73-.42c-.08-.05-.26-.05-.34,0l-.73.42h0ZM21.14,35.78c-.16,0-.34-.04-.47-.12l-.86-.51c-.18-.1-.29-.27-.29-.45s.1-.35.29-.45l.86-.51c.26-.16.68-.16.94,0l.89.51c.18.11.29.27.29.45s-.11.35-.29.45l-.89.51c-.13.08-.29.12-.47.12Z"/>
      <path class="cls-1" d="M22.11,35.76l.86-.51c.18-.1.47-.1.65,0l.86.51c.18.1.18.27,0,.37l-.86.51c-.18.1-.47.1-.65,0l-.86-.51c-.18-.1-.18-.27,0-.37Z"/>
      <path class="cls-2" d="M22.11,35.76l.16.27h0s-.16-.27-.16-.27l.16.26-.16-.26h0ZM22.4,35.95l.73.43c.08.05.26.05.34,0l.73-.42-.73-.43c-.08-.04-.26-.05-.34,0l-.73.42h0ZM23.32,37.02c-.18,0-.34-.04-.5-.12l-.86-.51c-.18-.11-.29-.27-.29-.45s.1-.35.29-.45h0l.86-.51c.29-.16.68-.16.97,0l.86.51c.18.11.29.27.29.45s-.1.35-.29.45l-.86.51c-.13.08-.31.12-.47.12Z"/>
      <path class="cls-1" d="M17.16,35.39l.86-.51c.18-.11.18-.27,0-.37l-.86-.51c-.18-.1-.47-.1-.63,0l-.89.51c-.18.1-.18.27,0,.37l.86.51c.18.1.47.1.65,0Z"/>
      <path class="cls-2" d="M15.93,34.7l.73.42c.08.05.26.04.34,0l.73-.42-.73-.42c-.08-.05-.24-.05-.34,0l-.73.42h0ZM16.85,35.77c-.18,0-.34-.04-.47-.12l-.89-.51c-.18-.1-.29-.27-.29-.45s.11-.35.29-.45l.89-.51c.26-.16.66-.15.94,0l.86.51c.18.11.29.27.29.45s-.11.35-.29.45l-.86.51h0c-.16.08-.31.12-.47.12Z"/>
      <path class="cls-1" d="M19.31,34.14l.89-.51c.16-.1.16-.27,0-.37l-.89-.51c-.18-.1-.45-.1-.63,0l-.89.51c-.16.1-.16.27,0,.37l.89.51c.18.1.45.1.63,0Z"/>
      <path class="cls-2" d="M18.1,33.45l.71.42c.11.05.26.05.34,0l.73-.42-.73-.43c-.08-.04-.24-.04-.34,0l-.71.42h0ZM18.99,34.53c-.18,0-.34-.04-.47-.12l-.89-.51c-.18-.11-.29-.27-.29-.45s.1-.35.29-.45l.89-.51c.26-.16.68-.16.94,0l.89.51c.18.1.29.27.29.45s-.11.35-.29.45l-.89.51h0c-.13.08-.31.12-.47.12Z"/>
      <path class="cls-1" d="M17.79,35.76l.89-.51c.18-.1.45-.1.63,0l.89.51c.16.1.16.27,0,.37l-.89.51c-.18.1-.45.1-.63,0l-.89-.51c-.18-.1-.18-.27,0-.37Z"/>
      <path class="cls-2" d="M17.79,35.76h.03-.03ZM17.79,35.76l.16.27h0s-.16-.27-.16-.27h0ZM18.1,35.95l.71.42c.08.05.26.05.34,0l.73-.42-.73-.42c-.08-.05-.24-.05-.34,0l-.71.42h0ZM18.99,37.02c-.18,0-.34-.04-.47-.12l-.89-.51c-.18-.1-.29-.27-.29-.45s.1-.35.29-.45l.89-.51c.26-.15.68-.16.94,0l.89.51c.18.11.29.27.29.45s-.11.35-.29.45l-.89.5c-.13.08-.31.12-.47.12Z"/>
      <path class="cls-1" d="M15.64,39.5l5.19-3c.18-.1.47-.1.63,0l.89.51c.18.11.18.27,0,.37l-5.19,3c-.18.1-.47.1-.65,0l-.86-.51c-.18-.1-.18-.27,0-.37Z"/>
      <path class="cls-2" d="M15.64,39.5l.13.27s0,0,.03,0l-.16-.26.16.26-.16-.26h0ZM15.93,39.69l.73.42c.08.05.26.05.34,0l5.06-2.92-.73-.42c-.1-.05-.26-.05-.34,0l-5.06,2.92h0ZM16.85,40.76c-.18,0-.34-.04-.5-.12l-.86-.51c-.18-.1-.29-.27-.29-.45s.11-.35.29-.45h0l5.19-3c.26-.15.68-.15.94,0l.89.51c.18.1.29.27.29.45s-.11.35-.29.45l-5.21,3c-.13.08-.29.12-.45.12Z"/>
      <path class="cls-1" d="M27.12,30.37l.89-.51c.16-.1.47-.1.63,0l.89.51c.18.1.18.27,0,.37l-.89.51c-.18.1-.47.1-.63,0l-.89-.51c-.16-.1-.16-.27,0-.37Z"/>
      <path class="cls-2" d="M27.12,30.37h.03-.03ZM27.12,30.37l.16.27h0s-.16-.27-.16-.27h0ZM27.43,30.56l.73.42c.08.05.24.05.31,0l.73-.42-.73-.42c-.08-.05-.24-.05-.31,0l-.73.42h0ZM28.32,31.63c-.18,0-.34-.04-.47-.12l-.89-.51c-.16-.1-.26-.27-.26-.45s.1-.35.29-.45l.86-.51c.26-.16.68-.15.94,0l.89.51c.16.1.26.27.26.45s-.1.35-.26.45l-.89.51c-.13.08-.31.12-.47.12Z"/>
      <path class="cls-1" d="M29.29,31.62l.86-.51c.18-.1.47-.1.66,0l.86.51c.18.1.18.27,0,.37l-.86.51c-.18.1-.47.1-.66,0l-.86-.51c-.18-.1-.18-.27,0-.37Z"/>
      <path class="cls-2" d="M29.29,31.62l.13.27s.03,0,.03,0l-.16-.27.16.26-.16-.26h0ZM29.58,31.8l.73.42c.08.05.26.05.34,0l.73-.42-.73-.42c-.08-.04-.26-.05-.34,0l-.73.42h0ZM30.47,32.88c-.16,0-.34-.04-.47-.12l-.86-.51c-.18-.11-.29-.27-.29-.45s.1-.35.29-.45h0l.86-.51c.29-.15.68-.15.97,0l.86.51c.18.11.29.27.29.45s-.11.35-.29.45l-.89.51c-.13.08-.29.12-.47.12Z"/>
      <path class="cls-1" d="M26.49,30l.86-.51c.18-.1.18-.27,0-.37l-.86-.51c-.18-.1-.47-.1-.63,0l-.89.51c-.18.1-.18.27,0,.37l.89.51c.16.1.45.1.63,0Z"/>
      <path class="cls-2" d="M25.26,29.31l.76.42c.08.05.24.05.31,0l.73-.42-.73-.42c-.08-.05-.24-.05-.31,0l-.76.42h0ZM26.17,30.38c-.18,0-.34-.04-.47-.11l-.89-.51c-.18-.11-.29-.27-.29-.45s.1-.35.29-.45l.89-.51c.26-.15.65-.15.94,0l.86.51c.18.1.29.27.29.45s-.1.35-.29.45l-.86.51h0c-.13.08-.31.12-.47.12Z"/>
      <path class="cls-1" d="M24.97,31.62l.89-.51c.16-.1.45-.1.63,0l.86.51c.18.1.18.27,0,.37l-.86.5c-.18.11-.47.11-.63,0l-.89-.51c-.18-.1-.18-.27,0-.37Z"/>
      <path class="cls-2" d="M24.97,31.62l.16.27h0s-.16-.27-.16-.27h0ZM25.26,31.8l.76.43c.08.05.24.05.31,0l.73-.42-.73-.42c-.08-.05-.24-.05-.31,0l-.76.42h0ZM26.17,32.88c-.18,0-.34-.04-.47-.12l-.89-.51c-.18-.11-.29-.27-.29-.45s.1-.35.29-.45l.89-.51c.26-.16.65-.16.94,0l.86.51c.18.1.29.27.29.45s-.1.35-.29.45l-.86.51c-.13.08-.31.12-.47.12Z"/>
      <path class="cls-1" d="M27.12,32.86l.89-.51c.16-.1.45-.1.63,0l.89.51c.18.1.18.27,0,.37l-.89.51c-.18.1-.47.1-.63,0l-.89-.51c-.16-.1-.16-.27,0-.37Z"/>
      <path class="cls-2" d="M27.12,32.86h.03-.03ZM27.12,32.86l.16.27h0s-.16-.27-.16-.27h0ZM27.43,33.05l.73.42c.08.05.24.05.31,0l.73-.42-.73-.42c-.08-.05-.24-.05-.31,0l-.73.42h0ZM28.32,34.13c-.18,0-.34-.04-.47-.12l-.89-.51c-.18-.1-.26-.27-.26-.45s.1-.35.29-.45l.86-.51c.26-.15.68-.15.94,0l.89.51c.16.11.26.27.26.45s-.1.35-.26.45l-.89.51c-.13.08-.31.12-.47.12Z"/>
      <path class="cls-1" d="M22.17,32.49l.89-.51c.16-.1.16-.27,0-.37l-.89-.51c-.16-.1-.45-.1-.63,0l-.89.51c-.16.1-.16.27,0,.37l.89.51c.18.1.47.1.63,0Z"/>
      <path class="cls-2" d="M20.96,31.8l.73.43c.08.05.24.05.31,0l.73-.43-.73-.42c-.08-.05-.24-.05-.31,0l-.73.42h0ZM22.17,32.49h.03-.03ZM21.85,32.88c-.16,0-.34-.04-.47-.12l-.86-.51c-.18-.11-.29-.27-.29-.45s.1-.35.29-.45l.86-.51c.26-.16.68-.16.94,0l.89.51c.18.11.29.27.29.45s-.1.35-.29.45l-.89.51h0c-.13.08-.29.12-.47.12Z"/>
      <path class="cls-1" d="M24.31,31.25l.89-.51c.18-.1.18-.27,0-.37l-.86-.51c-.18-.1-.47-.1-.66,0l-.86.51c-.18.1-.18.27,0,.37l.86.51c.18.1.47.1.63,0Z"/>
      <path class="cls-2" d="M23.11,30.56l.73.42c.08.05.26.04.34,0l.73-.42-.73-.42c-.08-.05-.26-.05-.34,0l-.73.42h0ZM24.31,31.25h.03-.03ZM24.03,31.63c-.18,0-.34-.04-.5-.12l-.86-.51c-.18-.1-.29-.27-.29-.45s.11-.35.29-.45l.86-.51c.29-.15.68-.16.94,0l.89.51c.18.11.29.27.29.45s-.11.35-.29.45l-.89.51h0c-.13.08-.29.12-.45.12Z"/>
      <path class="cls-1" d="M22.82,32.86l.86-.51c.18-.1.47-.1.63,0l.89.51c.18.1.18.27,0,.37l-.89.51c-.16.1-.45.1-.63,0l-.86-.51c-.18-.1-.18-.27,0-.37Z"/>
      <path class="cls-2" d="M22.82,32.86l.13.27h0s-.13-.27-.13-.27h0ZM23.11,33.05l.73.43c.08.05.26.05.34,0l.73-.42-.73-.43c-.08-.04-.26-.04-.34,0l-.73.42h0ZM24.03,34.12c-.18,0-.37-.04-.5-.12l-.86-.51c-.18-.1-.29-.27-.29-.45s.11-.35.29-.45l.86-.51c.29-.16.68-.15.94,0l.89.51c.18.11.29.27.29.45s-.11.35-.29.45l-.89.51c-.13.08-.29.12-.45.12Z"/>
      <path class="cls-1" d="M24.97,34.11l.89-.51c.16-.1.45-.1.63,0l.86.51c.18.1.18.27,0,.37l-.86.51c-.18.11-.47.11-.63,0l-.89-.51c-.18-.1-.18-.27,0-.37Z"/>
      <path class="cls-2" d="M24.97,34.11l.16.27h0s-.16-.27-.16-.27l.16.26-.16-.26h0ZM25.26,34.29l.76.43c.08.05.24.05.31,0l.73-.42-.73-.42c-.08-.05-.24-.05-.31,0l-.76.42h0ZM26.17,35.37c-.18,0-.34-.04-.47-.12l-.89-.51c-.18-.1-.29-.27-.29-.45s.1-.35.29-.45h0l.89-.51c.26-.15.65-.16.94,0l.86.51c.18.1.29.27.29.45s-.1.35-.29.45l-.86.51c-.13.08-.31.12-.47.12Z"/>
      <path class="cls-2" d="M35.26,24.33c-.08,0-.13-.03-.21-.08-.89-.79-1.86-1.31-3.07-1.62-.16-.04-.26-.21-.21-.38.03-.17.21-.26.37-.22,1.28.34,2.36.91,3.33,1.76.13.11.13.31.03.43-.08.07-.16.11-.24.11Z"/>
      <path class="cls-1" d="M2.73,14.17L23.4,2.23c.39-.21.68-.04.68.39v14.05c0,.43-.29.95-.68,1.17L2.7,29.78c-.37.21-.66.04-.66-.39v-14.05c0-.43.31-.96.68-1.17Z"/>
      <path class="cls-2" d="M23.71,2.45s-.08.01-.16.05L2.88,14.43h0c-.29.16-.52.58-.52.9v14.05c0,.11.03.16.03.17.03,0,.08,0,.18-.05l20.67-11.94c.29-.16.52-.58.52-.9l.03-14.05c0-.11-.05-.16-.05-.17h-.03ZM2.41,30.18c-.1,0-.24-.03-.31-.09-.24-.13-.37-.39-.37-.7v-14.05c0-.54.37-1.17.84-1.44L23.27,1.96c.26-.16.55-.17.79-.05.21.13.34.39.34.7v14.05c0,.54-.37,1.17-.84,1.43L2.86,30.04c-.16.09-.31.13-.45.13Z"/>
      <path class="cls-2" d="M34.53,23.74c-.16,0-.29-.1-.31-.25-.03-.17-.24-.37-.5-.5-.29-.15-.55-.16-.65-.11-.16.07-.34,0-.42-.15-.05-.15,0-.33.16-.41.34-.14.79-.1,1.21.12.45.22.73.57.81.93.05.17-.05.33-.24.36-.03,0-.03,0-.05,0Z"/>
      <polygon class="cls-1" points="5.29 16 20.83 7.03 20.83 17.74 5.29 26.7 5.29 16"/>
      <path class="cls-2" d="M5.61,16.17v9.99l14.91-8.61V7.56l-14.91,8.61h0ZM5.29,27.01c-.05,0-.11-.01-.16-.04-.1-.05-.16-.15-.16-.26v-10.71c0-.11.05-.21.16-.27l15.54-8.97c.08-.06.21-.06.31,0,.08.05.13.16.13.27v10.71c0,.11-.05.21-.13.26l-15.54,8.97c-.05.03-.1.04-.16.04Z"/>
      <polygon class="cls-3" points="5.29 16 20.83 7.03 20.83 5.48 5.29 14.45 5.29 16"/>
      <path class="cls-2" d="M5.61,14.63v.83l14.91-8.61v-.83L5.61,14.63h0ZM5.29,16.3c-.05,0-.11-.02-.16-.04-.1-.06-.16-.16-.16-.27v-1.54c0-.11.05-.21.16-.27l15.54-8.97c.08-.06.21-.06.31,0,.08.06.13.16.13.27v1.54c0,.11-.05.21-.13.27l-15.54,8.97c-.05.03-.1.04-.16.04Z"/>
      <path class="cls-3" d="M9.22,16.47h0c.13-.07.24-.01.24.12h0c0,.14-.1.3-.24.37h0c-.11.07-.21.01-.21-.13h0c0-.13.11-.3.21-.37Z"/>
      <path class="cls-2" d="M9.2,16.69s.03.02.03.03c.03.01.03.02.05.02-.03-.01-.03-.02-.05-.03,0-.01-.03-.02-.03-.02h0ZM9.14,17.3c-.08,0-.16-.02-.21-.05-.16-.08-.24-.23-.24-.41,0-.24.16-.51.37-.63h0c.16-.09.34-.1.47-.02.13.08.21.23.21.4,0,.25-.16.52-.37.64-.08.05-.16.07-.24.07Z"/>
      <path class="cls-3" d="M9.22,18.83h0c.13-.07.24-.01.24.13h0c0,.13-.1.3-.24.37h0c-.11.07-.21.01-.21-.12h0c0-.14.11-.3.21-.37Z"/>
      <path class="cls-2" d="M9.2,19.05s.03.02.03.03c.03,0,.03.02.05.02-.03-.01-.03-.02-.05-.03,0,0-.03-.01-.03-.02h0ZM9.14,19.66c-.08,0-.16-.02-.21-.06-.16-.08-.24-.23-.24-.4,0-.25.16-.51.37-.64h0c.16-.09.34-.09.47-.01.13.08.21.22.21.41,0,.24-.16.51-.37.63-.08.05-.16.07-.24.07Z"/>
      <path class="cls-3" d="M9.22,21.34h0c.13-.07.24-.01.24.12h0c0,.14-.1.3-.24.37h0c-.11.07-.21.01-.21-.13h0c0-.13.11-.3.21-.37Z"/>
      <path class="cls-2" d="M9.2,21.56s.03.02.03.03c.03,0,.03.01.05.02-.03-.01-.03-.02-.05-.03,0-.01-.03-.02-.03-.02h0ZM9.14,22.17c-.08,0-.16-.02-.21-.06-.16-.08-.24-.23-.24-.41,0-.25.16-.51.37-.63.16-.09.34-.09.47-.02.13.08.21.23.21.4,0,.25-.16.52-.37.64-.08.05-.16.07-.24.07Z"/>
      <path class="cls-2" d="M10.69,18.54c-.11,0-.21-.06-.26-.15-.08-.15-.03-.34.1-.42l6.08-3.51c.16-.08.34-.03.42.11.08.15.05.34-.11.42l-6.08,3.51c-.05.03-.1.04-.16.04Z"/>
      <path class="cls-2" d="M10.69,16.17c-.11,0-.21-.06-.26-.15-.08-.15-.03-.34.1-.42l6.08-3.51c.16-.08.34-.03.42.11.08.15.05.34-.11.42l-6.08,3.51c-.05.03-.1.04-.16.04Z"/>
      <path class="cls-2" d="M10.69,21.04c-.11,0-.21-.05-.26-.16-.08-.14-.03-.33.1-.42l4.93-2.83c.13-.09.34-.04.42.11.08.15.03.34-.11.42l-4.93,2.83c-.05.03-.1.04-.16.04Z"/>
    </g>
  </g>
</svg>