<?xml version="1.0" encoding="UTF-8"?>
<svg id="Layer_2" data-name="Layer 2" xmlns="http://www.w3.org/2000/svg" viewBox="0 0 34.49 48.39" fill="currentColor">
  <defs>
    <style>
      .cls-1 {
        fill: #fff;
      }

      .cls-1, .cls-2, .cls-3, .cls-4 {
        fill-rule: evenodd;
      }

      .cls-2 {
        fill: #1a87c7;
      }

      .cls-3 {
        fill: #bdedf8;
      }

      .cls-4 {
        fill: #66ceef;
      }
    </style>
  </defs>
  <g id="_Layer_" data-name="&amp;lt;Layer&amp;gt;">
    <g>
      <path class="cls-3" d="M15.12,34.62h0c1.54,3.56.8,7.42,4.32,10.75-5.79,2.69-12.26,3.96-17.36,1.03-1.58-.91-1.77-1.3-1.77-2.75s-.03-2.93.02-4.37c.27-2.51,1.56-4.22,3.19-6.04,1.82-1.99,4.09-3.59,5.75-5.72h0c1.83,2.07,4.81,4.74,5.84,7.1h0ZM9.44,27.69l-.16-.17c.05.06.1.11.16.17h0ZM34.17,33.57v-4.82c0-3.86-4.76-5.26-8.03-5.54-.28.56-.57,1.14-.86,1.68,2.57,4.63.37,14.54-2.47,18.73,6.44-3.73,11.36-8.64,11.36-10.05h0Z"/>
      <path class="cls-2" d="M25.63,24.88c2.35,4.5.56,13.26-1.92,17.83,6.02-3.69,10.16-8.06,10.16-9.15v-4.82c0-4.15-5.88-5.04-7.55-5.22-.23.46-.46.92-.69,1.36h0ZM22.81,43.92c-.09,0-.17-.03-.23-.09-.1-.11-.11-.27-.04-.38,2.76-4.06,4.96-13.92,2.46-18.41-.05-.09-.05-.2,0-.29.3-.54.57-1.11.85-1.67.05-.11.18-.16.3-.17,4.01.35,8.32,2.07,8.32,5.85v4.82c-.01,1.65-5.15,6.62-11.53,10.31-.04.03-.09.04-.15.04h0ZM9.29,27.99c-.93,1.14-2.04,2.14-3.1,3.11-.83.75-1.68,1.52-2.43,2.34-1.49,1.67-2.84,3.38-3.11,5.88-.04,1-.03,2.07-.02,3.1,0,.41,0,.83,0,1.23,0,1.33.1,1.61,1.61,2.48,5.32,3.07,11.93,1.29,16.66-.85-2.08-2.15-2.55-4.5-3.03-6.78-.25-1.24-.51-2.54-1.04-3.75h0c-.74-1.71-2.56-3.62-4.18-5.3-.48-.5-.95-.99-1.37-1.45h0ZM8.77,48.39c-2.35,0-4.68-.48-6.84-1.73C.3,45.72.01,45.26.01,43.65c0-.41,0-.82,0-1.23,0-1.03,0-2.11.03-3.15.28-2.7,1.7-4.49,3.26-6.24.78-.85,1.64-1.63,2.49-2.39,1.14-1.03,2.31-2.1,3.26-3.31.05-.07.13-.11.22-.12.09-.01.17.02.24.09t0,.02h0s.16.17.16.17c.02.02.03.04.05.06.43.48.89.96,1.37,1.47,1.65,1.73,3.52,3.68,4.3,5.48h0c.56,1.28.83,2.6,1.09,3.88.49,2.41.95,4.67,3.16,6.77.08.07.11.17.1.28-.02.1-.09.18-.17.23-3.05,1.42-6.94,2.74-10.8,2.74Z"/>
      <path class="cls-1" d="M9.28,27.52c.24-.32.97-1.07,1.18-1.41.39-.66.37-.92.46-1.7,3.36,3.89,11.25,6.16,14.27.65h0c.86,2.04-1.58,5.99-4.72,7.15-2.3.86-5.81.33-7.59-1.29l-3.01-2.75-.58-.66Z"/>
      <path class="cls-2" d="M9.68,27.51l.42.46,2.98,2.72c1.64,1.49,5.04,2.08,7.29,1.23,1.75-.65,3.48-2.34,4.28-4.2.3-.69.43-1.32.41-1.86-1.1,1.58-2.73,2.52-4.75,2.73-3.07.33-6.8-1.12-9.14-3.48-.05.37-.15.68-.43,1.15-.14.24-.47.61-.78.96-.09.1-.17.19-.25.28h0ZM17.99,32.93c-1.98,0-4.08-.65-5.32-1.78l-3.02-2.75-.61-.69c-.09-.11-.1-.28,0-.39.09-.12.25-.3.43-.5.27-.3.61-.68.71-.87.32-.53.34-.76.4-1.34l.03-.24c0-.12.1-.22.21-.26.12-.03.24,0,.33.1,2.17,2.52,6,4.11,9.08,3.78,2.08-.22,3.7-1.29,4.68-3.08.06-.11.17-.17.29-.16.12,0,.23.08.27.18.33.8.24,1.88-.26,3.03-.87,2-2.73,3.82-4.63,4.54-.78.29-1.68.43-2.59.43Z"/>
      <path class="cls-1" d="M23.32,27.69c1.27-1.22,2.3-3.44,3.29-5.47,1.35-2.77,1.28-5.93,1.29-8.48l-.46-1.51c-.17-.63-.18-1.29-.19-1.92-.02-.83-.03-1.59-.45-1.98-.69-.63-1.77.33-3.03,1.45-.86.77-1.8,1.59-2.82,2.17-1.02.59-1.95.84-2.83,1.08h0c-.83.23-1.58.42-2.2.95-.95.8-.9,1.45-.89,2.59.02,1.09.07,2.16-.59,4.46-.09-.58-.22-1.17-.44-1.72-1.2-2.89-4.06-1.88-4,.88,0,.28.04.56.1.83.18.76.61,1.66.97,2.32.11.22-.04.79-.14,1.11,2.42,2.75,5.94,4.63,8.74,4.62,1.25,0,2.72-.51,3.63-1.38Z"/>
      <path class="cls-2" d="M11.29,24.37c2.38,2.63,5.74,4.4,8.4,4.4h0c1.24,0,2.62-.52,3.42-1.31h0c1.15-1.09,2.11-3.07,3.03-4.97l.2-.41c1.24-2.54,1.25-5.5,1.27-7.88v-.41l-.45-1.47c-.17-.67-.19-1.35-.2-2-.02-.76-.03-1.46-.36-1.76-.48-.43-1.52.48-2.61,1.45-.85.75-1.82,1.61-2.88,2.21-1.04.61-2.02.87-2.87,1.11h-.03c-.81.23-1.51.41-2.08.89-.81.68-.8,1.21-.78,2.25v.27c.02,1.06.04,2.15-.6,4.38-.04.14-.17.24-.32.22-.14,0-.26-.12-.28-.26-.1-.64-.23-1.17-.43-1.64-.45-1.11-1.23-1.69-2.02-1.52-.69.14-1.41.91-1.37,2.27,0,.24.03.5.09.77.13.59.45,1.35.93,2.25.12.22.1.62-.06,1.17h0ZM19.69,29.38c-2.87,0-6.47-1.9-8.97-4.73-.08-.09-.09-.2-.07-.3.15-.47.18-.8.15-.88-.5-.94-.84-1.75-.98-2.39-.07-.3-.12-.6-.12-.89-.03-1.47.73-2.65,1.87-2.89.86-.18,2.03.23,2.72,1.89.06.16.12.32.17.5.3-1.34.28-2.16.27-2.94v-.27c-.03-1.08-.03-1.86,1-2.73.66-.56,1.45-.77,2.29-1,0-.01,0-.01.02-.01.87-.23,1.77-.48,2.75-1.04,1-.57,1.94-1.41,2.77-2.15,1.36-1.21,2.55-2.25,3.44-1.44.52.48.54,1.31.56,2.2,0,.63.02,1.26.17,1.85l.46,1.5s.02.06.02.09v.45c-.02,2.44-.03,5.49-1.33,8.15l-.2.41c-.95,1.95-1.94,3.97-3.15,5.15-.93.9-2.44,1.47-3.85,1.48h0Z"/>
      <path class="cls-4" d="M7.86,6.87c-2.24,4.09-.84,15.31,3.03,17.75.08-.21.34-1.02.2-1.29-.36-.66-.79-1.56-.97-2.32-.83-3.7,3.57-5.43,4.34.02.66-2.3.61-3.37.59-4.46-.02-1.14-.06-1.79.89-2.59.62-.52,1.37-.72,2.2-.95h0c.87-.24,1.8-.49,2.83-1.08,1.02-.58,1.96-1.41,2.82-2.17,1.27-1.12,2.35-2.08,3.03-1.45.43.39.43,1.15.45,1.98.02.63.02,1.29.19,1.92l.46,1.51c.13-2,.09-4.3-.19-6.2-.53-3.67-2.17-3.81-6.68-6.19-.72-.38-1.66-1.01-3.05-1.06-3.41-.1-8.45,3.86-10.13,6.57Z"/>
      <path class="cls-2" d="M8.12,7.02c-2.09,3.86-.85,14.34,2.6,17.11.08-.28.12-.56.09-.65-.5-.94-.84-1.75-.98-2.39-.31-1.32.02-2.59.83-3.3.57-.5,1.32-.65,2-.41.51.19,1.33.74,1.82,2.32.3-1.34.28-2.16.27-2.94v-.27c-.03-1.08-.03-1.86,1-2.73.66-.56,1.45-.77,2.29-1,0-.01,0-.01.02-.01.87-.23,1.77-.48,2.75-1.04,1-.57,1.94-1.41,2.77-2.15,1.36-1.21,2.55-2.25,3.44-1.44.52.48.54,1.31.56,2.2,0,.51.02,1.03.11,1.52,0-1.51-.08-2.99-.26-4.23-.42-2.89-1.53-3.45-4.49-4.93-.6-.29-1.28-.63-2.03-1.03l-.31-.18c-.65-.36-1.47-.81-2.61-.84-.03,0-.08,0-.12,0-3.29,0-8.14,3.86-9.73,6.41h0ZM10.89,24.93c-.05,0-.12-.02-.17-.04-4-2.52-5.45-13.91-3.13-18.16,0,0,0-.02,0-.02C9.29,3.96,14.3,0,17.85,0h.15c1.28.03,2.21.55,2.88.92l.3.17c.76.4,1.43.73,2.03,1.03,2.99,1.5,4.36,2.17,4.82,5.39.27,1.8.34,4.09.2,6.26-.01.15-.13.27-.28.29-.15.02-.29-.07-.33-.22l-.46-1.51c-.17-.67-.19-1.35-.2-2-.02-.76-.03-1.46-.36-1.76-.48-.43-1.52.48-2.61,1.45-.85.75-1.82,1.61-2.88,2.21-1.04.61-2.02.87-2.87,1.11h-.03c-.81.23-1.51.41-2.08.89-.81.68-.8,1.21-.78,2.25v.27c.02,1.06.04,2.15-.6,4.38-.04.14-.17.24-.32.22-.14,0-.26-.12-.28-.26-.23-1.67-.86-2.81-1.71-3.12-.47-.18-.97-.07-1.38.29-.51.45-.94,1.39-.64,2.7.13.59.45,1.35.93,2.25.24.44-.16,1.49-.18,1.54-.03.08-.1.15-.19.17-.03.02-.06.02-.09.02Z"/>
      <path class="cls-1" d="M20.87,31.28c-5.6-.51-8.67-.65-11.6-3.77,1.83,2.07,4.81,4.74,5.84,7.1,1.54,3.56.79,7.42,4.32,10.75l3.37-1.76c2.62-3.75,5.21-13.79,2.47-18.73l-.09.17c.28,2.65-1.86,3.92-3.92,5.99l-.39.24Z"/>
      <path class="cls-2" d="M11.96,29.93c1.39,1.48,2.78,3.08,3.43,4.57.56,1.28.83,2.6,1.09,3.88.48,2.34.92,4.57,3.01,6.62l3.1-1.62c2.31-3.35,4.76-12.19,2.88-17.3-.22,1.68-1.43,2.8-2.81,4.06-.38.36-.78.73-1.18,1.13-.03.03-.04.03-.07.05l-.39.23c-.05.03-.12.05-.18.05l-.74-.07c-3.45-.3-5.98-.53-8.14-1.59h0ZM19.44,45.67c-.08,0-.16-.03-.22-.08-2.35-2.23-2.86-4.7-3.35-7.1-.25-1.24-.51-2.54-1.04-3.75-.74-1.71-2.57-3.62-4.18-5.3-.57-.6-1.13-1.18-1.61-1.72-.11-.12-.1-.32.03-.43.12-.11.31-.1.43.02,2.71,2.9,5.54,3.15,10.66,3.61l.64.05.28-.16c.39-.4.79-.77,1.17-1.12,1.58-1.46,2.83-2.61,2.63-4.59-.01-.06,0-.13.03-.18l.09-.17c.05-.1.16-.16.27-.16h0c.11,0,.22.06.27.16,2.94,5.27.02,15.48-2.49,19.05-.03.04-.07.08-.11.1l-3.37,1.76s-.1.03-.14.03Z"/>
      <path class="cls-2" d="M19.62,35.43s-.08-.01-.12-.03l-4.82-2.09c-.16-.07-.23-.25-.17-.41.07-.16.25-.23.41-.16l4.52,1.95,1.08-3.31c.05-.17.23-.25.39-.2.07.03.12.07.16.13-.03-.13.04-.28.16-.34.16-.08.34-.02.42.13l1.02,2.02c.3-.49.6-.97.9-1.45.77-1.24,1.5-2.41,1.84-3.16.07-.15.26-.22.41-.15.16.07.23.25.16.41-.36.78-1.1,1.97-1.89,3.23-.38.63-.79,1.27-1.17,1.91-.05.09-.17.16-.27.15-.11,0-.22-.07-.27-.17l-1.27-2.48c.02.05,0,.1,0,.15l-1.18,3.63c-.03.09-.09.15-.16.18-.04.02-.09.03-.13.03Z"/>
      <path class="cls-4" d="M19.44,45.37l3.37-1.76c-.06-.5-.07-.59-.13-1.06-.28-2.37-.36-4.92-.64-7.46-.02-.11.11-1.08.24-2.08l-1.02-1.97-.39.24-.83,2.55c.22.72.42,1.48.41,1.64-.3,2.97-.6,5.91-.9,8.74-.04.43-.07.7-.11,1.15Z"/>
      <path class="cls-2" d="M20.36,33.84c.42,1.4.4,1.58.39,1.67-.28,2.82-.57,5.61-.85,8.31l-.1,1.01,2.68-1.4c-.03-.28-.05-.42-.09-.7l-.02-.13c-.15-1.23-.23-2.47-.33-3.79-.09-1.2-.18-2.44-.32-3.68,0-.05-.02-.19.24-2.06l-.82-1.59h0l-.77,2.36h0ZM19.44,45.67c-.06,0-.12-.02-.17-.05-.1-.06-.15-.17-.14-.28l.16-1.58c.28-2.7.57-5.49.85-8.31,0-.02-.02-.24-.4-1.53-.02-.06-.02-.12,0-.18l.84-2.55c.02-.08.07-.14.14-.18l.39-.22c.07-.05.16-.05.24-.04.08.03.15.09.18.16l1.01,1.97c.03.05.04.12.04.18-.18,1.25-.24,1.91-.24,2.01.14,1.23.23,2.48.32,3.69.1,1.31.18,2.55.33,3.75v.13c.05.36.07.48.12.93,0,.12-.05.24-.17.3l-3.37,1.76s-.1.03-.14.03Z"/>
      <path class="cls-2" d="M21.21,35.67c-.38,0-.74-.14-.92-.21-.16-.06-.23-.24-.17-.39.06-.17.23-.24.4-.18.87.34,1.11.1,1.27-.16.09-.15.28-.19.42-.1.15.09.19.28.1.42-.3.48-.71.62-1.1.62Z"/>
      <path class="cls-2" d="M17.16,45.69c-.1,0-.2-.05-.26-.14l-4.6-6.93c-.05-.08-.07-.18-.04-.26l.41-1.47-1.61-3.76c-.06-.16,0-.33.16-.4.16-.07.34.01.41.17l1.64,3.85c.03.07.03.14,0,.21l-.39,1.44,4.52,6.82c.09.14.06.33-.09.42-.05.03-.12.05-.17.05Z"/>
      <path class="cls-2" d="M26.62,39.88s-.05,0-.08,0c-.17-.04-.27-.21-.23-.37l1.77-7.3-.71-.83c-.04-.05-.07-.12-.07-.19l-.15-4.08c0-.17.12-.31.3-.32.15,0,.31.13.32.3l.14,3.96.75.86c.06.08.09.18.06.28l-1.81,7.46c-.04.14-.16.23-.3.23Z"/>
      <path class="cls-2" d="M17.39,22.15c-.05,0-.11-.02-.15-.05l-3.24-1.75c-.15-.09-.21-.27-.12-.42.08-.15.26-.2.42-.12l3.24,1.76c.15.08.2.27.12.42-.05.1-.17.17-.27.17Z"/>
      <path class="cls-2" d="M18.04,28.45c-.06,0-.13-.02-.18-.06l-6.98-5.09c-.14-.1-.17-.3-.07-.43.1-.13.29-.17.43-.06l6.99,5.09c.14.11.16.3.06.44-.06.08-.15.12-.24.12Z"/>
      <path class="cls-1" d="M17.84,21.66c-.14.08-.26.22-.35.37h0c-.1.16-.15.33-.15.49v6.42c0,.17.05.27.15.32.09.05.21.04.35-.04,6.51-.68,4.68-.04,9.08-5.24.14-.08.26-.22.35-.36h0c.09-.16.15-.34.15-.5v-6.42c0-.16-.05-.27-.15-.32-.09-.05-.21-.04-.35.04-4.76,4.34-3.16,3.81-9.08,5.24Z"/>
      <path class="cls-2" d="M17.96,21.94c-.07.05-.15.14-.2.24-.07.12-.11.24-.11.34v6.42s.11,0,.16-.02c.57-.06,1.08-.1,1.53-.15q3.65-.36,5.49-2.69c.48-.6,1.07-1.35,1.87-2.3.03-.03.06-.05.08-.07.09-.05.18-.14.24-.25.06-.11.1-.23.1-.34v-6.42c-.89.76-1.56,1.42-2.1,1.93-2.21,2.13-2.27,2.15-6.37,3.15l-.68.16h0ZM17.62,29.61c-.1,0-.2-.02-.29-.08-.19-.12-.3-.32-.3-.59v-6.42c0-.21.06-.43.18-.64.12-.21.29-.38.46-.48.02-.02.05-.02.09-.03l.72-.17q3.98-.96,6.09-3c.54-.52,1.22-1.17,2.13-2,.28-.17.52-.18.71-.08.19.11.31.33.31.59v6.42c0,.21-.07.44-.19.64-.12.19-.25.35-.41.45-.78.92-1.36,1.65-1.83,2.24-1.98,2.51-2.04,2.54-5.91,2.92-.43.05-.92.09-1.47.15-.1.05-.21.08-.3.08Z"/>
    </g>
  </g>
</svg>