<?xml version="1.0" encoding="UTF-8"?>
<svg id="Layer_2" data-name="Layer 2" xmlns="http://www.w3.org/2000/svg" viewBox="0 0 26.79 46.36" fill="currentColor">
  <defs>
    <style>
      .cls-1 {
        fill: #fff;
      }

      .cls-1, .cls-2, .cls-3, .cls-4 {
        fill-rule: evenodd;
      }

      .cls-2 {
        fill: #1a87c7;
      }

      .cls-3 {
        fill: #bdedf8;
      }

      .cls-4 {
        fill: #66ceef;
      }
    </style>
  </defs>
  <g id="_Layer_" data-name="&amp;lt;Layer&amp;gt;">
    <g>
      <path class="cls-1" d="M6.59,29.75c.21-.26.7-.92.86-1.21.33-.56.32-.77.39-1.43,2.63,3.04,8.83-1.5,11.29-2.91.1,1.51.68,2.21,1.17,3.19h0c2.31,3.59.18,10.9-2.45,11.88-1.93.72-4.07-1.18-5.96-1.89-2.01-.76-4.96-6.54-5.3-7.63Z"/>
      <path class="cls-2" d="M6.94,29.81c.5,1.34,3.26,6.61,5.06,7.28.58.22,1.18.55,1.77.86,1.35.73,2.75,1.49,3.97,1.02.96-.36,1.95-1.76,2.58-3.68.74-2.23,1.11-5.59-.28-7.75-.12-.24-.22-.42-.33-.61-.34-.63-.7-1.26-.84-2.24-.22.14-.46.29-.71.44-2.84,1.76-7.49,4.64-10.08,2.62-.05.29-.13.55-.36.93-.15.25-.54.79-.78,1.11h0ZM16.93,39.74c-1.16,0-2.32-.63-3.46-1.24-.6-.32-1.16-.63-1.7-.84-2.18-.82-5.18-6.84-5.49-7.82-.03-.09,0-.2.05-.28.2-.25.68-.9.84-1.17.26-.43.27-.61.32-1.1l.02-.2c.01-.12.1-.23.21-.26s.24,0,.32.09c2.12,2.44,6.9-.52,9.76-2.28.43-.27.82-.51,1.14-.69.09-.05.2-.05.3-.01.09.05.15.15.16.25.07,1.13.43,1.78.81,2.47.11.2.22.39.33.61,1.49,2.31,1.11,5.89.33,8.25-.7,2.11-1.81,3.63-2.95,4.06-.34.12-.68.18-1.03.18Z"/>
      <path class="cls-1" d="M26.48,35.29v-4.04c0-3.23-3.11-4.91-5.86-5.15-.39-.04-.7-.07-.94-.08-.06.11-.12.23-.17.33l-.26.47c.4,3.47,1.35,5.41.04,8.88-.64,1.72-1.35,3.03-1.75,3.2-.42.17-1.07-.18-1.85-.63-4.04-2.3-5.97-4.49-9.1-8.54-.01-.03-.03-.03-.06-.03-.14,0-.6.51-.52.8-1.29,1.65-1.61,1.59-3.08,3.2C-.17,37.19.34,38.46.34,42.45c0,1.21.15,1.53,1.48,2.3,8.88,5.13,24.66-6.05,24.66-9.46Z"/>
      <path class="cls-2" d="M6.49,30.12c-.09.1-.19.26-.19.32.02.1,0,.18-.06.26-.76.97-1.19,1.37-1.7,1.83-.37.34-.78.71-1.4,1.39-2.59,2.92-2.57,4.22-2.51,7.05.01.45.02.95.02,1.49,0,1.1.09,1.32,1.32,2.03,5.93,3.42,14.41-.94,16.87-2.36,4.53-2.61,7.33-5.57,7.33-6.83h0v-4.04c0-3-2.89-4.61-5.58-4.84-.29-.03-.53-.05-.73-.06-.03.05-.06.11-.08.16l-.22.38c.1.8.22,1.51.34,2.21.39,2.24.69,4.02-.32,6.73-.35.91-1.23,3.09-1.93,3.37-.57.24-1.28-.17-2.12-.65-4.03-2.29-5.97-4.44-9.05-8.42h0ZM7.22,46.36c-2.1,0-3.99-.44-5.55-1.35-1.38-.79-1.64-1.2-1.63-2.56,0-.54-.01-1.02-.02-1.47-.06-2.92-.08-4.38,2.67-7.48.64-.7,1.07-1.1,1.44-1.43.49-.44.88-.8,1.55-1.66.01-.25.17-.5.27-.63.14-.17.35-.38.57-.38h0c.09,0,.24.07.3.15,3.11,4.03,5.02,6.19,9.01,8.46.61.34,1.29.73,1.58.61.17-.07.78-.9,1.58-3.02.96-2.55.66-4.25.29-6.41-.13-.73-.26-1.48-.36-2.34,0-.06,0-.13.04-.18l.26-.47c.06-.1.11-.21.17-.32.06-.11.17-.17.29-.17.25.02.55.04.95.09,2.96.25,6.15,2.07,6.14,5.45v4.04c0,1.69-3.29,4.86-7.64,7.37-4.24,2.44-8.39,3.7-11.93,3.7Z"/>
      <path class="cls-1" d="M21.41,26.21s-.03,0-.04,0c.01,0,.03,0,.04,0Z"/>
      <path class="cls-2" d="M21.41,26.52s-.03,0-.05,0c0,0-.05,0-.05,0-.15-.03-.25-.16-.25-.3,0-.02,0-.04,0-.05.03-.17.19-.28.36-.24.15.03.27.15.27.31,0,0,0,.03,0,.04-.03.15-.14.26-.28.26Z"/>
      <path class="cls-1" d="M17.65,29.09c1.89-2.37,2.79-4.35,3.51-7.31.35-1.44.56-2.93.62-4.32.01-.25.02-.53.02-.83,0-.23,0-.4,0-.52,0-.14-.01-.3-.02-.47-.14-1.31-1.77-.68-3.51,0-2.05.79-4.24,1.63-5.12.02v.02c-.89,1.38-2.53,3.96-2.87,7.16-.12,1.12-.09,1.97.08,3.08.3,1.9.93,3.36,1.79,4.24l-.04.02c.65.2,1.32.33,1.98.39,2.11.22,2.3.09,3.57-1.49Z"/>
      <path class="cls-2" d="M17.65,29.09h0,0ZM12.34,29.93c.57.16,1.16.28,1.78.34,2.03.21,2.1.11,3.29-1.38,1.79-2.24,2.72-4.18,3.45-7.18.34-1.44.55-2.91.61-4.26.01-.25.01-.52.01-.82,0-.22,0-.39,0-.51,0-.14-.01-.3-.02-.46-.03-.25-.13-.35-.2-.39-.46-.28-1.75.22-2.89.66-1.93.74-4.09,1.57-5.21.3-.91,1.44-2.28,3.81-2.58,6.65-.11,1.1-.09,1.91.08,3.01.28,1.79.86,3.19,1.68,4.05h0ZM15.24,30.95c-.33,0-.71-.03-1.18-.07-.71-.07-1.4-.21-2.04-.41-.1-.04-.18-.11-.21-.22-.86-.96-1.46-2.43-1.75-4.29-.18-1.14-.2-2.03-.09-3.16.35-3.27,2.01-5.88,2.9-7.28.06-.1.16-.16.27-.16h0c.11,0,.22.05.27.15.75,1.37,2.78.58,4.73-.16,1.45-.56,2.71-1.05,3.43-.61.29.17.45.46.5.86,0,.19.02.35.02.49,0,.13,0,.31,0,.53,0,.3,0,.58-.02.84-.06,1.38-.27,2.9-.62,4.37-.75,3.11-1.71,5.12-3.57,7.43h0c-1.03,1.29-1.44,1.68-2.66,1.68Z"/>
      <path class="cls-4" d="M10.63,30.66c-4.82-2.78-6.4-2.6-8.15-7.41-1.26-4.68-1.43-9.25.97-13.33.91-1.43,4.71-4.58,6.21-3.71.18-.29.36-.52.57-.78l.38-.4.4-.34c3.37-2.22,9.9,1.94,11.63,4.87,1.54,2.62,1.8,7.61-1.37,15.01-.42.37-.92.78-1.49,1.2l-.03.07c.85-1.84,1.33-3.52,1.67-5.49.23-1.29.36-2.43.36-3.73,0-.23,0-.4,0-.52,0-.14-.01-.3-.02-.47-.14-1.31-1.77-.68-3.51,0-2.05.79-4.24,1.63-5.12.02v.02c-.89,1.38-2.53,3.96-2.87,7.16-.03.28-.05.57-.06.88-.01.29-.01.58,0,.89h0c.18,2.54.89,4.48,1.93,5.55-.59.24-1.1.41-1.51.5Z"/>
      <path class="cls-2" d="M9.04,6.37c-1.49,0-4.47,2.37-5.33,3.72-2.08,3.53-2.38,7.69-.93,13.08,1.34,3.68,2.53,4.3,5.41,5.81.73.38,1.54.81,2.49,1.35.28-.07.59-.17.95-.3-.95-1.2-1.56-3.09-1.72-5.4-.01-.31-.01-.62,0-.92.01-.3.03-.61.06-.89.35-3.27,2.01-5.88,2.9-7.28.06-.1.16-.16.27-.16h0c.11,0,.22.05.27.15.75,1.37,2.78.58,4.73-.16,1.45-.56,2.71-1.05,3.43-.61.29.17.45.46.5.86,0,.19.02.35.02.49,0,.13,0,.31,0,.53,0,1.23-.11,2.36-.36,3.79-.3,1.67-.67,3.04-1.2,4.39.17-.14.33-.28.49-.42,3.79-8.88,2.21-13.21,1.36-14.66-1.1-1.87-4.47-4.45-7.54-5.15-1.51-.35-2.74-.22-3.66.39l-.37.31-.36.37c-.2.26-.37.47-.53.72-.09.15-.27.19-.42.1-.13-.07-.29-.1-.47-.1h0ZM10.63,30.97c-.05,0-.11-.02-.15-.05-.98-.56-1.83-1.01-2.58-1.4-2.93-1.54-4.28-2.24-5.71-6.17-1.5-5.58-1.18-9.89.99-13.59.83-1.29,4.47-4.53,6.37-3.95.13-.18.27-.36.41-.54l.43-.46.43-.36c1.08-.71,2.51-.88,4.17-.5,3.27.75,6.74,3.42,7.93,5.44,1.91,3.25,1.43,8.82-1.34,15.29-.02.03-.05.08-.08.11-.42.37-.9.76-1.45,1.17h0c-.07.16-.26.22-.41.15-.15-.07-.22-.25-.15-.41.79-1.69,1.28-3.31,1.65-5.41.25-1.38.35-2.48.35-3.68,0-.22,0-.39,0-.51,0-.14-.01-.3-.02-.46-.03-.25-.13-.35-.2-.39-.46-.28-1.75.22-2.89.66-1.93.74-4.09,1.57-5.21.3-.91,1.44-2.28,3.81-2.58,6.65-.03.28-.05.56-.06.86-.01.29-.02.57,0,.87.17,2.38.83,4.29,1.85,5.35.07.07.1.17.08.28-.02.09-.09.18-.19.22-.61.24-1.13.42-1.56.51-.02,0-.05,0-.07,0Z"/>
      <path class="cls-2" d="M14.4,44.9c-.08,0-.15-.03-.21-.08-2.13-2.03-2.59-4.28-3.03-6.45v-.06s-3.07,2-3.07,2c-.09.05-.19.07-.29.03-.09-.04-.16-.12-.18-.23l-1.92-9.53c-.03-.17.08-.33.24-.36.18-.04.33.07.36.24l1.83,9.08,3.05-2c.09-.06.19-.07.29-.02.09.03.16.12.18.21l.11.51c.44,2.18.86,4.23,2.85,6.13.12.12.13.31,0,.44-.06.07-.14.1-.22.1Z"/>
      <path class="cls-2" d="M12.02,44.44c-.1,0-.2-.05-.26-.14l-3.05-4.62c-.09-.14-.05-.33.09-.43.14-.09.33-.05.43.09l3.05,4.61c.09.14.05.33-.09.43-.05.03-.11.05-.17.05Z"/>
      <path class="cls-2" d="M21.14,41.35h-.06c-.17-.03-.28-.19-.25-.36.04-.19.08-.42.13-.66.34-1.71.92-4.57.35-7.17-.02-.1,0-.19.07-.27.06-.07.16-.12.25-.1l2.54.18-4.92-6.41c-.1-.14-.08-.33.06-.44.14-.1.33-.08.44.06l5.33,6.95c.08.1.08.23.03.33-.06.1-.17.18-.29.17l-2.81-.2c.46,2.61-.09,5.35-.43,7.02-.05.24-.09.46-.13.65-.03.15-.16.25-.3.25Z"/>
      <path class="cls-2" d="M22.65,39.34h-.03c-.17-.02-.29-.17-.28-.33l.58-5.84c.02-.17.17-.3.34-.28.17.02.29.17.28.34l-.58,5.84c-.02.16-.15.27-.3.27Z"/>
      <path class="cls-2" d="M17.46,39.03h0,0ZM17.02,39.37c-1.53,0-5.14-.61-5.89-1.36-.12-.12-.12-.31,0-.43.12-.12.32-.12.44,0,.62.63,4.77,1.32,5.77,1.17,1.15-.79,4.14-4.8,3.97-5.59-.03-.17.07-.33.24-.36.16-.03.33.07.36.24.27,1.31-3.29,5.64-4.3,6.27-.03.02-.07.03-.1.04-.12.03-.29.03-.5.03Z"/>
      <path class="cls-2" d="M17.6,43.46h-.02c-.17-.02-.3-.16-.28-.33.09-1.11,0-2.12-.07-3.1-.03-.32-.05-.65-.07-.97-.01-.17.12-.32.29-.33.2,0,.32.12.33.28.02.33.04.65.07.98.08,1,.16,2.03.08,3.19-.01.17-.15.29-.31.29Z"/>
      <path class="cls-1" d="M5.05,8.57h0c-.45,1.43.29,2.96,2.2,4.07,3.11,1.79,8.14,1.79,11.25,0,1.97-1.14,2.69-2.73,2.16-4.19h0v-.02s-.03-.06-.04-.1c-.34-.87-.8-3.13-1.25-4.29-.08-.62-1.88-.95-3.2-1.71-1.32-.76-5.26-.78-6.6,0-1.34.77-3.15,1.06-3.2,1.71l-1.18,4.13c-.06.12-.11.25-.15.38h0Z"/>
      <path class="cls-2" d="M5.05,8.57l.3.09c-.42,1.34.36,2.72,2.06,3.71,3.02,1.74,7.92,1.74,10.94,0,1.76-1.02,2.52-2.44,2.03-3.81l-.04-.11c-.16-.42-.35-1.13-.55-1.89-.22-.83-.47-1.79-.7-2.4-.04-.27-.85-.59-1.39-.81-.53-.21-1.14-.44-1.67-.75-1.23-.72-5.06-.72-6.3,0-.54.31-1.15.55-1.69.75-.53.21-1.34.51-1.35.72l-1.19,4.19c-.07.16-.11.27-.15.39l-.3-.09h0ZM12.88,14.28c-2.09,0-4.18-.46-5.78-1.38-1.97-1.14-2.85-2.79-2.34-4.43,0,0,0-.02.01-.03h0c.03-.11.09-.25.15-.39l1.16-4.09c.03-.53.78-.81,1.73-1.18.52-.2,1.1-.42,1.61-.71,1.42-.83,5.49-.83,6.91,0,.5.29,1.07.51,1.59.72.94.37,1.68.66,1.76,1.22.23.57.47,1.5.71,2.4.19.74.37,1.43.52,1.82l.04.1c.61,1.68-.25,3.4-2.29,4.57-1.59.92-3.69,1.38-5.78,1.38Z"/>
      <path class="cls-1" d="M8.29,6.7c2.54,1.47,6.65,1.47,9.19,0,2.54-1.46,2.54-3.83,0-5.3C14.94-.07,10.82-.07,8.29,1.4c-2.54,1.47-2.54,3.84,0,5.3Z"/>
      <path class="cls-2" d="M12.88.61c-1.61,0-3.21.35-4.44,1.06-1.13.65-1.75,1.5-1.75,2.38s.62,1.74,1.75,2.39h0c2.45,1.41,6.43,1.41,8.88,0,1.13-.65,1.75-1.5,1.75-2.39s-.62-1.73-1.75-2.38c-1.22-.71-2.83-1.06-4.44-1.06h0ZM12.88,8.11c-1.72,0-3.44-.37-4.74-1.13h0c-1.33-.76-2.06-1.81-2.06-2.92s.73-2.15,2.06-2.92c2.62-1.51,6.88-1.51,9.5,0,1.33.76,2.06,1.81,2.06,2.92s-.73,2.16-2.06,2.92c-1.31.76-3.03,1.13-4.75,1.13Z"/>
      <path class="cls-3" d="M16.26,8.62c.52-.3,1.04-.6,1.56-.9v1.04c.3-.17.6-.35.9-.52v1.8c-.3.17-.6.35-.9.52v1.04c-.52.3-1.04.6-1.56.9v-1.04c-.3.17-.6.35-.9.52v-1.81c.3-.17.6-.34.9-.51v-1.04Z"/>
      <path class="cls-2" d="M16.26,9.66h0,0ZM16.26,11.15c.05,0,.1.02.15.04.09.05.15.16.15.27v.51l.94-.55v-.86c0-.1.06-.21.15-.26l.75-.43v-1.09l-.44.25c-.09.05-.21.05-.31,0-.09-.06-.15-.16-.15-.27v-.5l-.94.54v.87c0,.1-.06.21-.15.26l-.75.43v1.09l.44-.25s.1-.04.15-.04h0ZM16.26,12.81c-.05,0-.11-.02-.15-.04-.1-.05-.15-.16-.15-.26v-.51l-.44.25c-.09.06-.21.06-.31,0-.1-.05-.15-.15-.15-.26v-1.81c0-.1.06-.21.15-.26l.75-.43v-.86c0-.11.06-.21.15-.27l1.56-.9c.09-.06.21-.06.31,0,.1.05.16.16.16.26v.51l.44-.26c.09-.05.21-.05.31.01.1.05.15.15.15.26v1.8c0,.11-.06.22-.15.27l-.75.44v.86c0,.11-.06.21-.16.27l-1.56.9c-.05.02-.1.04-.15.04Z"/>
    </g>
  </g>
</svg>