<?xml version="1.0" encoding="UTF-8"?>
<svg id="Layer_2" data-name="Layer 2" xmlns="http://www.w3.org/2000/svg" viewBox="0 0 88.26 66.36" fill="currentColor">
  <defs>
    <style>
      .cls-1 {
        fill: #fff;
      }

      .cls-1, .cls-2, .cls-3, .cls-4 {
        fill-rule: evenodd;
      }

      .cls-2 {
        fill: #1a87c7;
      }

      .cls-3 {
        fill: #bdedf8;
      }

      .cls-4 {
        fill: #66ceef;
      }
    </style>
  </defs>
  <g id="_Layer_" data-name="&amp;lt;Layer&amp;gt;">
    <g>
      <path class="cls-1" d="M67.6,44.46l-5.23,3.02c-.64.39-1.07.89-1.45,1.53l-3.17,5.51c-.19.31-.33.52-.65.71l-11.26,6.5c-.21.12-.39.17-.62.06l-7.29-4.22c.22.06.36.02.56-.09l11.25-6.5c.32-.19.46-.39.66-.71l3.17-5.51c.38-.65.81-1.14,1.45-1.53l5.23-3.02c.46-.25.96-.41,1.45-.14l3.28,1.89.19.12.08-.05,9.58-5.53,1.95-1.13c.51-.33.85-.91.88-1.52V12.8c-.02-.23-.04-.37-.2-.53l7.3,4.21c.21.15.25.33.26.57v21.04c-.03.61-.36,1.19-.88,1.52l-2.52,1.46-8.74,5.05c-.2.11-.4.18-.62.06l-3.13-1.8c-.55-.32-.99-.2-1.54.1Z"/>
      <path class="cls-2" d="M39.35,57.69l6.17,3.57,11.26-6.56c.18-.11.26-.2.43-.5l3.18-5.49c.46-.8.97-1.34,1.66-1.75l5.25-3.03s0,0,.01-.01c.58-.31,1.29-.58,2.13-.08l3.13,1.8,11.26-6.56c.33-.2.56-.6.58-1.02v-21.02s-6.13-3.58-6.13-3.58v20.38c-.03.84-.48,1.61-1.16,2.04l-11.55,6.67c-.19.11-.5.16-.7.05l-3.47-2c-.14-.08-.35-.13-.84.15l-5.22,3.01c-.49.3-.86.69-1.23,1.31l-3.17,5.5c-.23.37-.43.67-.88.93l-10.7,6.18h0ZM45.45,62.46c-.15,0-.32-.03-.5-.12l-7.34-4.24c-.27-.16-.38-.49-.26-.77.12-.29.42-.44.73-.36l11.34-6.53c.18-.11.26-.21.44-.5l3.17-5.49c.47-.8.99-1.34,1.66-1.75l5.25-3.03c.29-.16,1.16-.64,2.05-.15l3.18,1.83,11.31-6.53c.32-.21.55-.6.57-1.02V12.8c-.22-.22-.25-.61-.06-.86.18-.25.52-.36.78-.21l7.3,4.21c.53.37.56.86.57,1.07v21.08c-.04.84-.49,1.61-1.17,2.05l-11.28,6.51c-.44.26-.86.28-1.24.06l-3.12-1.8c-.28-.16-.46-.17-.93.1l-5.22,3.01c-.5.3-.87.7-1.23,1.31l-3.17,5.51c-.23.37-.43.67-.88.93l-11.26,6.5c-.14.08-.39.2-.69.2Z"/>
      <path class="cls-1" d="M87.3,12.8l-16.05-9.26c-.62-.29-1.08-.14-1.66.16L28.97,27.15c-.77.49-1.19.98-1.66,1.75l16.05,9.27c.47-.76.9-1.26,1.66-1.75l40.62-23.45c.58-.3,1.04-.45,1.66-.16Z"/>
      <path class="cls-2" d="M28.19,28.7l14.98,8.65c.39-.55.83-1,1.52-1.45l40.65-23.46s.03-.02.04-.03l-14.44-8.34c-.3-.14-.52-.11-1.06.17L29.28,27.68c-.45.28-.76.58-1.08,1.01h0ZM43.37,38.79c-.11,0-.21-.03-.31-.08l-16.05-9.27c-.15-.08-.25-.22-.29-.38-.04-.16-.02-.34.08-.47.47-.78.95-1.38,1.84-1.95L69.29,3.17c.62-.32,1.32-.61,2.23-.19l16.1,9.3c.28.16.39.52.24.82-.16.29-.51.41-.81.27-.34-.16-.57-.13-1.11.15l-40.6,23.44c-.6.38-.97.78-1.44,1.53-.12.19-.32.3-.52.3Z"/>
      <path class="cls-3" d="M26.63,54.94c.03.65.13,1.13.69,1.51l16.05,9.27c-.56-.39-.66-.86-.69-1.52v-23.72c.04-.89.27-1.54.68-2.31l-16.05-9.27c-.42.78-.64,1.42-.69,2.31v23.72Z"/>
      <path class="cls-2" d="M27.24,54.94h.02-.02ZM27.24,54.92c.03.59.12.81.42,1.02l14.4,8.32v-23.77c.04-.83.21-1.46.49-2.06l-14.98-8.65c-.21.5-.31.94-.34,1.48v23.68h0ZM43.37,66.33c-.11,0-.21-.03-.31-.08l-16.05-9.27c-.87-.6-.97-1.35-1-2.02,0-.01,0-.02,0-.02v-23.73c.05-1.09.34-1.83.77-2.6.08-.15.21-.26.38-.3.16-.04.33-.03.47.06l16.05,9.27c.29.17.39.53.24.82-.36.68-.58,1.23-.61,2.04v23.69c.03.58.12.79.42,1.01.27.19.35.55.17.83-.12.18-.31.29-.52.29Z"/>
      <path class="cls-4" d="M83.2,17.08v19.95c0,.28-.1.59-.26.86h0c-.16.28-.38.52-.62.65l-11.25,6.5c-.12.07-.24.11-.34.13h0c-.1,0-.2-.02-.28-.06l-.04-.02-1.35-.79h-.02s-.01-.02-.01-.02h-.01s-.01-.01-.01-.01h0s-1.77-1.03-1.77-1.03h0c-.2-.12-.42-.16-.66-.14h-.04c-.23.04-.49.13-.75.28l-5.23,3.02c-.26.15-.52.36-.75.6l-.03.04c-.25.26-.47.56-.66.9h0l-3.18,5.51-.04.05c-.09.16-.18.29-.28.39h0c-.09.1-.21.19-.34.26l-10.31,5.95v-19.95c0-.28.1-.59.26-.86.16-.27.38-.51.62-.66l37.36-21.57Z"/>
      <path class="cls-2" d="M82.58,18.15l-36.43,21.04c-.14.08-.29.24-.4.43-.11.18-.17.39-.17.55v18.89l9.38-5.42c.07-.05.14-.1.19-.16.07-.07.14-.16.2-.28l3.21-5.56c.21-.38.47-.72.75-1.02.31-.32.61-.56.92-.74l5.24-3.02c.33-.19.67-.31.98-.35.42-.04.78.03,1.09.21l3.17,1.83,11.29-6.54c.14-.08.29-.24.4-.44.1-.18.17-.39.17-.55v-18.89h0ZM44.96,60.74c-.11,0-.21-.03-.31-.08-.19-.11-.3-.31-.3-.54v-19.95c0-.37.12-.79.34-1.17.21-.38.52-.7.84-.89l37.36-21.57c.19-.11.42-.11.62,0,.19.11.31.32.31.54v19.95c0,.37-.13.79-.34,1.17-.22.39-.52.7-.85.89l-11.26,6.5c-.2.12-.39.18-.58.2-.23.02-.46-.03-.66-.14l-3.21-1.86c-.06-.03-.15-.07-.29-.06-.17.03-.35.09-.54.2l-5.23,3.02c-.21.13-.42.29-.62.49-.24.26-.44.52-.6.81l-3.19,5.51c-.15.26-.27.42-.4.56-.13.15-.3.27-.48.38l-10.31,5.95c-.09.06-.2.08-.31.08Z"/>
      <path class="cls-4" d="M30.34,50.24C24.16,45.86,1.87,30.76.72,23.85l-.1-9.26,1.63,4.75c0-6.5-.34-9.84,9.11-13.92,9.18-3.96,19.22-4.42,28.52-.41,8.64,3.74,14.05,2.17,21.95,3.17-1.97,1.14-11.77,7.39-13.2,7.21-10.02-1.28-16.67-9.11-34.71-2.95-3.6,1.23-9.52,4.08-11.04,7.69,4.46,5.49,21.08,17.58,27.47,22.12l.94-1.34v8l-.94,1.33Z"/>
      <path class="cls-2" d="M26.34,2.86c-4.91,0-9.91,1.04-14.75,3.13C2.85,9.77,2.85,12.75,2.86,18.69v.16c2.04-3.11,6.96-5.67,10.86-7,12.82-4.38,20.14-1.74,26.6.59,2.8,1.01,5.44,1.97,8.39,2.34h0c1.12,0,8.14-4.29,10.79-5.91.15-.09.29-.18.43-.27-1.82-.15-3.54-.19-5.2-.23-4.71-.12-9.15-.22-15.1-2.79-4.21-1.82-8.71-2.72-13.28-2.72h0ZM1.27,18.4l.39,1.14c.09.26.28.41.61.41-.05.19-.01.4.12.56,4.86,5.98,23.84,19.57,27.59,22.23.13.09.3.13.46.11.08-.01.15-.04.22-.08v5.95l-.47.67-1.31-.92C21.63,43.37,2.35,29.84,1.33,23.84l-.06-5.44h0ZM30.34,50.86c-.13,0-.25-.04-.36-.11l-1.8-1.27C20.11,43.81,1.21,30.55.1,23.95L0,14.6c0-.3.21-.56.51-.61.3-.05.59.13.69.41l.47,1.38c.22-4.42,1.57-7.51,9.43-10.91,9.66-4.17,19.96-4.31,29.01-.41,5.74,2.48,10.06,2.58,14.65,2.69,2.24.06,4.55.11,7.14.43.26.04.47.23.52.49.05.26-.07.52-.29.66-.39.23-1.1.66-1.99,1.2-6.63,4.06-10.46,6.21-11.6,6.09-3.08-.39-5.78-1.37-8.65-2.4-6.57-2.37-13.37-4.82-25.78-.58-3.18,1.08-8.85,3.75-10.52,7.01,4.93,5.77,22,18.08,26.6,21.35l.58-.82c.16-.22.43-.31.69-.23.26.08.43.31.43.58v8c0,.13-.04.25-.12.36l-.94,1.33c-.09.13-.24.22-.4.25-.03,0-.07,0-.11,0Z"/>
      <path class="cls-3" d="M30.34,42.25c-6.23-4.41-13.79-10-19.6-14.81-4.51-3.74-8.01-7.04-9.11-9.02-.95-1.73-1.21-3.44-.89-5.07.5-2.58,2.44-4.92,5.26-6.86,2.73-1.88,6.31-3.42,10.23-4.44C23.94.02,32.98-.04,39.37,3c6.17,2.95,11.24,3.07,16.16,3.18,2.84.07,5.62.14,8.54.71l-2.24,1.29c-2.14-.27-4.23-.33-6.34-.37-5.1-.12-10.35-.25-16.83-3.33-6.03-2.88-14.64-2.79-22.02-.85-3.74.98-7.14,2.43-9.72,4.2-2.48,1.71-4.17,3.71-4.58,5.84-.25,1.26-.04,2.6.72,3.98.98,1.78,4.34,4.93,8.71,8.54,5.8,4.8,13.31,10.36,19.5,14.73l-.94,1.34Z"/>
      <path class="cls-2" d="M27.17,1.23c-3.48,0-7.17.47-10.78,1.41-3.92,1.03-7.4,2.54-10.03,4.35-2.83,1.95-4.56,4.19-5.01,6.48-.3,1.54-.02,3.11.83,4.65.66,1.2,2.75,3.7,8.95,8.85,4.93,4.07,11.85,9.3,19.07,14.42l.23-.32c-7.19-5.09-14.1-10.32-19.04-14.4-4.95-4.09-7.93-7.03-8.86-8.72-.81-1.46-1.07-2.94-.78-4.39.42-2.19,2.1-4.34,4.84-6.23,2.59-1.79,6.02-3.27,9.9-4.29,8.2-2.15,16.8-1.81,22.45.89,6.36,3.03,11.55,3.16,16.57,3.28,2.02.05,4.1.1,6.19.35l.57-.33c-2.26-.3-4.46-.36-6.76-.41-4.97-.12-10.11-.24-16.41-3.24-3.24-1.54-7.42-2.33-11.94-2.33h0ZM30.34,42.86c-.13,0-.25-.04-.36-.11-7.42-5.25-14.58-10.65-19.64-14.83-5.1-4.22-8.22-7.32-9.25-9.2C.1,16.92-.22,15.08.14,13.23c.5-2.6,2.42-5.11,5.51-7.25,2.76-1.9,6.36-3.46,10.42-4.53,8.55-2.25,17.57-1.87,23.56.99,6.06,2.89,11.06,3.01,15.91,3.12,2.79.07,5.67.14,8.65.71.25.05.45.25.49.5.05.26-.07.51-.3.64l-2.24,1.3c-.12.07-.25.1-.39.07-2.1-.27-4.12-.31-6.27-.37-5.16-.12-10.48-.25-17.08-3.4-5.41-2.58-13.68-2.89-21.61-.81-3.75.99-7.04,2.41-9.52,4.12-2.47,1.7-3.97,3.59-4.33,5.45-.23,1.16,0,2.36.65,3.56.59,1.07,2.56,3.4,8.57,8.37,5.02,4.16,12.13,9.51,19.47,14.7.28.19.34.58.15.85l-.94,1.33c-.09.14-.24.23-.39.25-.04.01-.07.01-.11.01Z"/>
      <polygon class="cls-3" points="32.72 38.86 30.21 37.4 26.89 39.31 29.41 40.77 32.72 38.86"/>
      <path class="cls-2" d="M28.13,39.31l1.28.74,2.08-1.2-1.28-.74-2.07,1.2h0ZM29.41,41.38c-.11,0-.21-.03-.31-.08l-2.52-1.46c-.19-.11-.3-.31-.3-.53s.12-.43.3-.53l3.31-1.91c.19-.11.42-.11.61,0l2.52,1.46c.19.1.31.31.31.53s-.12.42-.31.54l-3.31,1.91c-.09.05-.2.08-.31.08Z"/>
      <polygon class="cls-4" points="29.41 40.77 26.89 39.31 26.89 49.95 29.41 51.41 29.41 40.77"/>
      <path class="cls-2" d="M27.51,49.59l1.28.74v-9.21l-1.28-.74v9.21h0ZM29.41,52.02c-.11,0-.21-.03-.31-.08l-2.52-1.45c-.19-.12-.3-.31-.3-.54v-10.64c0-.22.12-.43.3-.53.19-.11.42-.11.62,0l2.52,1.46c.19.11.31.31.31.53v10.64c0,.22-.12.42-.31.53-.09.06-.2.08-.31.08Z"/>
      <polygon class="cls-1" points="32.72 49.49 32.72 38.86 29.41 40.77 29.41 51.41 32.72 49.49"/>
      <path class="cls-2" d="M32.72,49.49h.02-.02ZM30.03,41.13v9.21l2.07-1.2v-9.21l-2.07,1.2h0ZM29.41,52.02c-.11,0-.21-.03-.31-.08-.19-.11-.31-.31-.31-.53v-10.64c0-.22.12-.42.31-.53l3.31-1.91c.19-.11.42-.11.61,0,.19.1.31.31.31.53v10.64c0,.22-.12.42-.31.53l-3.31,1.91c-.09.06-.2.08-.31.08Z"/>
      <path class="cls-1" d="M45.84,38.65l38.3-22.11c.25-.14.47-.16.62-.07.16.09.26.29.26.57v21.04c0,.28-.1.59-.26.87h0c-.16.27-.38.51-.62.65l-11.25,6.5c-.13.07-.24.12-.34.13h0c-.1.01-.19-.01-.28-.06l-.03-.02-3.18-1.84h0c-.19-.12-.42-.16-.66-.14h-.04c-.24.04-.49.13-.76.28l-5.23,3.02c-.26.15-.51.35-.75.59l-.03.04c-.25.26-.47.56-.67.9h0,0l-3.17,5.51-.03.05c-.09.16-.18.29-.29.39h0c-.1.1-.21.19-.34.27l-11.26,6.5c-.24.14-.46.15-.62.06h0c-.16-.09-.26-.29-.26-.57v-21.05c0-.56.39-1.24.88-1.52h0ZM87.65,37.91V14.19c0-.74-.27-1.27-.69-1.51-.42-.25-1.01-.21-1.66.16l-40.62,23.45c-1.29.75-2.35,2.57-2.35,4.06v23.72c0,.75.27,1.27.69,1.51.42.25,1.01.21,1.66-.16,16.21-9.36,25.08-14.48,40.63-23.45.64-.37,1.23-1.02,1.65-1.75h0c.42-.73.69-1.57.69-2.31h0Z"/>
      <path class="cls-2" d="M45.84,38.65h.02-.02ZM84.4,17.04l-38.26,22.14h0c-.29.17-.57.65-.57.99v21.05l11.21-6.52c.07-.04.14-.09.19-.15.07-.07.14-.17.2-.28l3.21-5.55c.21-.38.47-.73.75-1.02.31-.32.61-.56.92-.74l5.24-3.02c.34-.19.67-.31.98-.35.42-.05.78.03,1.09.2l3.17,1.84,11.29-6.54c.14-.08.29-.24.4-.43.11-.19.17-.4.17-.56v-21.04h0ZM45.44,62.46c-.19,0-.37-.05-.53-.14-.37-.21-.57-.61-.57-1.11v-21.05c0-.78.51-1.66,1.18-2.05l38.3-22.11c.44-.25.88-.27,1.24-.06.36.2.57.61.57,1.1v21.04c0,.38-.12.8-.34,1.18-.23.38-.52.69-.85.88l-11.25,6.5c-.19.12-.39.18-.58.2-.22.02-.46-.03-.65-.14l-3.21-1.85c-.05-.03-.14-.07-.29-.06-.17.03-.35.09-.55.2l-5.22,3.02c-.21.13-.42.29-.62.5-.25.25-.43.51-.61.81l-3.18,5.51c-.15.25-.28.42-.41.56-.13.14-.29.27-.48.38l-11.25,6.49c-.23.14-.47.2-.7.2h0ZM86.34,13.13c-.21,0-.46.08-.73.24l-40.63,23.45c-1.1.64-2.03,2.25-2.03,3.53v23.72c0,.49.14.84.38.98.24.14.62.08,1.04-.16l40.63-23.45c.52-.3,1.05-.86,1.43-1.52.38-.67.6-1.4.6-2.01V14.19c0-.48-.14-.84-.38-.98-.09-.05-.19-.07-.31-.07h0ZM43.63,66.36c-.33,0-.64-.08-.92-.24-.64-.37-1-1.1-1-2.05v-23.72c0-1.71,1.16-3.74,2.65-4.6l40.63-23.45c.81-.47,1.64-.53,2.27-.16.64.37,1,1.1,1,2.05v23.72c0,.83-.27,1.76-.77,2.62-.5.86-1.17,1.56-1.88,1.98l-40.63,23.45c-.46.27-.92.4-1.35.4Z"/>
      <path class="cls-4" d="M61.01,39.94l-5.99,3.3c-.65.39-1.07.88-1.45,1.53l-3.17,5.51c-.19.32-.34.52-.66.71l-4.78,2.76v6.39l10.31-5.95c.31-.18.47-.4.66-.71l3.06-5.3c.14-.24.26-.46.43-.68.3-.41.69-.8,1.14-1.06l5.23-3.02c.43-.25.98-.41,1.45-.14l3.21,1.85c.21.12.42.05.62-.06l11.25-6.5c.24-.14.46-.38.62-.65.16-.28.26-.59.26-.86v-19.95l-5.53,3.17v13.59c-.03.61-.37,1.19-.88,1.52l-1.95,1.13-9.58,5.53-.08.05-.19-.11-3.28-1.89c-.22-.12-.47-.25-.69-.13Z"/>
      <path class="cls-2" d="M45.57,54.09v4.97l9.38-5.42c.18-.11.27-.23.43-.5l3.05-5.29c.15-.26.29-.5.47-.74.38-.52.84-.94,1.33-1.22l5.23-3.02c.75-.43,1.48-.48,2.07-.14l3.21,1.85,11.26-6.56c.14-.08.29-.24.4-.43.11-.19.17-.4.17-.56v-18.89l-4.3,2.46v13.24c-.04.83-.48,1.6-1.16,2.04l-11.56,6.67c-.19.11-.5.16-.7.05l-3.47-2s-.11-.06-.16-.08l-5.92,3.25c-.48.29-.85.69-1.22,1.3l-3.17,5.5c-.22.36-.42.67-.88.93l-4.47,2.58h0ZM44.96,60.74c-.11,0-.21-.03-.31-.08-.19-.11-.3-.31-.3-.54v-6.39c0-.22.12-.42.3-.53l4.78-2.76c.18-.11.26-.21.43-.49l3.17-5.5c.47-.8.99-1.34,1.66-1.75l6.02-3.31h0c.52-.28,1.04,0,1.28.14l3.18,1.83,11.31-6.53c.32-.21.55-.6.57-1.02v-13.57c0-.22.12-.42.31-.53l5.53-3.17c.19-.11.42-.11.61,0,.19.11.31.32.31.54v19.95c0,.37-.13.79-.35,1.17-.22.38-.52.69-.84.88l-11.26,6.5c-.57.32-.98.21-1.24.06l-3.21-1.85c-.26-.15-.63.03-.83.14l-5.23,3.02c-.34.19-.67.5-.95.89-.15.2-.26.4-.38.62l-3.07,5.31c-.22.37-.43.68-.88.94l-10.31,5.95c-.09.06-.2.08-.31.08Z"/>
      <path class="cls-3" d="M83.24,17.06v20c0,.38-.17.79-.4,1.08l1.82,1.05c.25-.31.39-.69.4-1.08v-21.05c-.03-.61-.33-.86-.76-.61l-1.06.61Z"/>
      <path class="cls-2" d="M83.67,37.91l.74.43c.02-.08.03-.17.04-.26v-21.01l-.6.34v19.64c0,.27-.06.57-.18.85h0ZM84.66,39.81c-.1,0-.21-.03-.3-.08l-1.82-1.05c-.16-.09-.26-.24-.3-.41-.04-.17,0-.35.12-.49.16-.21.27-.5.27-.71v-20c0-.22.12-.42.31-.53l1.07-.61c.5-.29.89-.16,1.07-.06.26.14.57.46.6,1.18v21.07c-.02.54-.2,1.04-.53,1.47-.12.15-.3.24-.49.24Z"/>
      <path class="cls-1" d="M37.65,45.26c-1.23-.71-2.23-2.45-2.23-3.87s1-2,2.23-1.29c1.24.71,2.24,2.44,2.24,3.87s-1,2-2.24,1.29Z"/>
      <path class="cls-2" d="M37.96,44.72c.39.23.74.28.96.16.22-.13.35-.46.35-.91,0-1.2-.88-2.74-1.93-3.34-.39-.23-.74-.28-.96-.16-.22.13-.35.46-.35.92,0,1.21.88,2.73,1.92,3.33h0ZM38.65,46.18c-.41,0-.86-.13-1.31-.39h0c-1.42-.82-2.54-2.76-2.54-4.4,0-.92.35-1.62.97-1.98.62-.36,1.4-.3,2.2.16,1.43.82,2.54,2.76,2.54,4.4,0,.92-.34,1.62-.96,1.98-.27.15-.57.23-.89.23Z"/>
      <path class="cls-1" d="M37.65,53.34c-1.23-.71-2.23-2.45-2.23-3.87s1-2,2.23-1.29c1.24.71,2.24,2.44,2.24,3.87s-1,2-2.24,1.29Z"/>
      <path class="cls-2" d="M37.96,52.8c.39.23.74.28.96.16.22-.13.35-.46.35-.91,0-1.2-.88-2.74-1.93-3.34-.39-.23-.74-.28-.96-.16-.22.13-.35.46-.35.92,0,1.2.88,2.73,1.92,3.33h0ZM38.65,54.26c-.41,0-.86-.13-1.31-.39h0c-1.42-.83-2.54-2.76-2.54-4.4,0-.92.35-1.62.97-1.98.62-.36,1.4-.3,2.2.16,1.43.82,2.54,2.76,2.54,4.4,0,.92-.34,1.62-.96,1.98-.27.16-.57.23-.89.23Z"/>
    </g>
  </g>
</svg>