<?xml version="1.0" encoding="UTF-8"?>
<svg id="Layer_2" data-name="Layer 2" xmlns="http://www.w3.org/2000/svg" viewBox="0 0 19.67 41.21" fill="currentColor">
  <defs>
    <style>
      .cls-1 {
        fill: #fff;
      }

      .cls-1, .cls-2, .cls-3, .cls-4 {
        fill-rule: evenodd;
      }

      .cls-2 {
        fill: #1a87c7;
      }

      .cls-3 {
        fill: #bdedf8;
      }

      .cls-4 {
        fill: #66ceef;
      }
    </style>
  </defs>
  <g id="_Layer_" data-name="&amp;lt;Layer&amp;gt;">
    <g>
      <path class="cls-4" d="M3.87,13.35v22.91c.02.41.08.7.43.94l6.24,3.61c-.35-.24-.41-.54-.43-.94v-22.91c-.01-.12-.02-.16-.1-.24l-6.25-3.6c.09.07.1.12.11.24Z"/>
      <path class="cls-2" d="M4.18,13.7v22.56c.02.38.08.54.29.69l5.35,3.09c0-.05-.01-.1-.01-.16v-22.92l-5.63-3.25h0ZM10.55,41.11c-.06,0-.11,0-.15-.03l-6.24-3.61c-.51-.35-.57-.8-.58-1.19V13.31c-.13-.1-.15-.26-.06-.39.09-.13.27-.16.41-.08l6.24,3.61c.23.18.25.34.26.47v22.95c.02.39.08.54.3.69.14.1.17.28.09.42-.06.1-.16.14-.26.14Z"/>
      <polygon class="cls-3" points="12.95 3.91 6.71 .3 .31 14.98 6.55 18.59 12.95 3.91"/>
      <path class="cls-2" d="M.7,14.85l5.71,3.3,6.15-14.11L6.86.74.7,14.85h0ZM6.55,18.89c-.05,0-.11,0-.15-.03L.15,15.25c-.14-.08-.19-.24-.13-.39L6.43.18c.04-.08.1-.14.19-.17.08-.03.17-.02.25.03l6.24,3.6c.14.08.19.25.13.39l-6.4,14.68c-.04.08-.1.14-.19.17-.03,0-.06,0-.09,0Z"/>
      <path class="cls-1" d="M10.12,16.95v22.91c0,.46.17.79.43.94.26.16.63.13,1.03-.09l2.78-1.61c.8-.46,1.46-1.59,1.46-2.52V13.67c0-.23.16-.52.36-.63l3.19-1.84-6.41-7.28-6.4,14.68,3.2-1.85c.2-.11.36-.02.36.22Z"/>
      <path class="cls-2" d="M9.91,16.38c.09,0,.17.03.25.07.16.1.26.28.26.5v22.91c0,.33.1.57.27.67.18.11.44.07.72-.1l2.78-1.61c.7-.4,1.3-1.44,1.3-2.25V13.67c0-.35.22-.73.52-.9l2.86-1.65-5.83-6.64-5.83,13.38,2.39-1.37c.11-.06.21-.09.31-.09h0ZM10.92,41.21c-.19,0-.37-.05-.53-.14-.37-.22-.58-.64-.58-1.21v-22.8l-3.1,1.79c-.12.06-.26.04-.36-.04-.1-.09-.13-.23-.08-.35L12.67,3.79c.04-.1.13-.17.24-.18.1,0,.21.03.28.1l6.4,7.28c.06.07.09.17.08.25-.02.1-.07.17-.16.22l-3.19,1.84c-.11.06-.21.24-.21.37v22.91c0,1.04-.71,2.27-1.61,2.79l-2.78,1.6c-.27.16-.55.24-.8.24Z"/>
    </g>
  </g>
</svg>