<?xml version="1.0" encoding="UTF-8"?>
<svg id="Layer_2" data-name="Layer 2" xmlns="http://www.w3.org/2000/svg" viewBox="0 0 34.47 50.24" fill="currentColor">
  <defs>
    <style>
      .cls-1 {
        fill: #fff;
      }

      .cls-1, .cls-2, .cls-3, .cls-4 {
        fill-rule: evenodd;
      }

      .cls-2 {
        fill: #1a87c7;
      }

      .cls-3 {
        fill: #bdedf8;
      }

      .cls-4 {
        fill: #66ceef;
      }
    </style>
  </defs>
  <g id="_Layer_" data-name="&amp;lt;Layer&amp;gt;">
    <g>
      <path class="cls-4" d="M34.16,34.83v-4.82c0-3.86-4.75-5.26-8.04-5.54-.28.57-.56,1.13-.86,1.68l-.09.17c.86,2.04-2.17,5.03-5.3,6.21-2.3.86-4.77.52-7.01-.35-2.38-.92-3.83-2.22-3.6-3.41-1.65,2.14-3.93,3.74-5.75,5.72-.73.81-1.49,1.74-2.05,2.67-.21.36-.46.84-.61,1.22-.09.23-.23.61-.29.84l-.11.42-.08.44-.05.45-.02.45v3.92c0,1.44.18,1.83,1.76,2.74,12.17,7.03,32.09-9.99,32.09-12.83Z"/>
      <path class="cls-2" d="M9.02,29.57c-.87,1.01-1.87,1.91-2.84,2.79-.83.76-1.68,1.52-2.44,2.35-.88.98-1.53,1.84-2.01,2.64-.22.36-.45.83-.59,1.17-.09.23-.22.58-.28.8l-.18.84-.06.85v3.91c0,1.33.11,1.61,1.61,2.48,6.79,3.91,15.7-.06,20.4-2.77,6.6-3.81,11.23-8.63,11.23-9.8h0v-4.82c0-4.15-5.88-5.04-7.54-5.21-.25.51-.51,1.01-.77,1.5l-.03.05c.2.59.15,1.25-.16,1.97-.76,1.75-2.96,3.6-5.37,4.5-2.14.8-4.58.69-7.23-.35-2.08-.8-3.4-1.84-3.73-2.9h0ZM8.74,49.64c-2.35,0-4.68-.49-6.83-1.72-1.63-.95-1.92-1.39-1.92-3.01l.02-4.38.13-.93.11-.45c.07-.25.2-.63.31-.88.15-.37.4-.87.63-1.26.49-.83,1.17-1.72,2.08-2.73.78-.84,1.64-1.62,2.48-2.38,1.14-1.04,2.32-2.09,3.26-3.31.09-.11.24-.16.37-.09.13.06.2.2.18.34-.19.98,1.15,2.18,3.41,3.06,2.51.97,4.79,1.1,6.79.35,2.22-.84,4.33-2.58,5.02-4.17.27-.62.3-1.17.11-1.63-.04-.09-.03-.19.01-.27l.09-.18c.29-.54.57-1.1.85-1.67.06-.12.18-.17.3-.18,4.02.35,8.32,2.07,8.32,5.85v4.82c0,1.66-5.15,6.64-11.54,10.33-3.36,1.94-8.81,4.49-14.19,4.49Z"/>
      <path class="cls-1" d="M9.26,28.78c.25-.31.98-1.06,1.18-1.4.39-.67.38-.92.46-1.71,3.36,3.88,11.24,6.17,14.28.65h0c.86,2.04-2.17,5.04-5.3,6.21-2.3.86-4.77.52-7.01-.35-2.38-.92-3.83-2.22-3.6-3.41Z"/>
      <path class="cls-2" d="M9.56,28.91c-.11.97,1.21,2.14,3.42,2.99,2.51.97,4.79,1.1,6.79.35,2.22-.84,4.33-2.58,5.02-4.17.14-.32.22-.63.23-.91-1.1,1.56-2.72,2.49-4.73,2.7-3.06.32-6.8-1.12-9.15-3.49-.05.37-.14.67-.43,1.15-.14.24-.47.61-.79.97-.14.15-.27.3-.36.41h0ZM17.01,33.35c-1.34,0-2.77-.3-4.26-.88-2.63-1.02-4.05-2.42-3.79-3.75.01-.05.03-.1.06-.14.09-.12.26-.3.43-.5.27-.3.61-.69.72-.87.32-.54.34-.76.39-1.35l.02-.24c.01-.12.1-.23.21-.26.12-.03.25,0,.33.09,2.17,2.51,5.99,4.1,9.08,3.78,2.08-.23,3.7-1.29,4.69-3.08.06-.11.17-.18.29-.17.12,0,.22.09.27.19.26.63.22,1.35-.11,2.12-.76,1.76-2.96,3.6-5.36,4.5-.93.36-1.93.53-2.97.53Z"/>
      <path class="cls-3" d="M27.78,18.93c-1.94,8.47-6.78,14.66-19.36,4.13l-1.53,7.85c9.8,12.34,22.39,2.19,21.57-4.84l-.67-7.14Z"/>
      <path class="cls-2" d="M7.21,30.83c4.06,5.05,9.2,6.77,14.11,4.73,4.17-1.73,7.24-5.97,6.83-9.46l-.51-5.4c-1.27,4.35-3.25,6.99-5.89,7.88-3.33,1.12-7.75-.55-13.13-4.95l-1.41,7.2h0ZM17.2,37c-2.99,0-6.84-1.21-10.56-5.9-.06-.07-.08-.16-.06-.25l1.53-7.85c.02-.11.1-.19.2-.23.1-.03.22-.02.3.05,5.39,4.51,9.74,6.25,12.94,5.17,2.76-.92,4.75-4,5.93-9.13.03-.15.17-.26.32-.24.15,0,.27.13.29.28l.67,7.14c.44,3.79-2.72,8.23-7.21,10.09-.95.39-2.48.87-4.35.87Z"/>
      <path class="cls-3" d="M28.16,22.95c-1.94,8.47-4.82,11.99-15.16,17.4l1.57,9.59c10.42-4.86,15.13-14.66,14.3-21.7l-.71-5.28Z"/>
      <path class="cls-2" d="M13.34,40.53l1.47,8.96c10.09-4.89,14.57-14.33,13.76-21.22l-.49-3.67c-2.01,7.56-5.22,10.92-14.73,15.92h0ZM14.57,50.24s-.1,0-.14-.03c-.09-.04-.14-.12-.16-.22l-1.57-9.59c-.02-.13.04-.26.16-.32,10.11-5.29,13.05-8.67,15.01-17.2.03-.15.15-.26.32-.24.15,0,.27.12.29.27l.71,5.29c.84,7.2-3.86,17.07-14.48,22.02-.04.02-.09.03-.13.03Z"/>
      <path class="cls-1" d="M23.31,28.96c1.27-1.23,2.3-3.45,3.29-5.48,1.35-2.76,1.28-5.93,1.3-8.47l-.46-1.51c-.16-.63-.18-1.29-.19-1.92-.02-.83-.03-1.59-.46-1.98-.68-.62-1.76.33-3.03,1.45-.86.75-1.8,1.58-2.82,2.17-1.02.59-1.96.84-2.82,1.08h0c-.83.23-1.58.43-2.2.94-.95.81-.91,1.45-.89,2.6.02,1.09.07,2.16-.59,4.46-.08-.58-.22-1.17-.44-1.72-.16-.4-.38-.79-.68-1.11-.33-.35-.75-.61-1.23-.64h-.21c-1.69.11-2.06,2.17-1.77,3.45.17.76.61,1.66.96,2.32.12.22-.03.79-.13,1.11,2.42,2.75,5.94,4.62,8.75,4.62,1.25,0,2.72-.51,3.63-1.38Z"/>
      <path class="cls-2" d="M11.28,25.64c2.38,2.63,5.73,4.39,8.39,4.39h0c1.24,0,2.61-.52,3.42-1.29h0c1.15-1.1,2.11-3.08,3.03-4.98l.2-.4c1.24-2.55,1.25-5.5,1.27-7.88v-.41s-.45-1.47-.45-1.47c-.18-.67-.19-1.35-.2-2.01-.01-.75-.03-1.45-.36-1.76-.48-.44-1.52.48-2.61,1.45-.86.75-1.82,1.61-2.87,2.22-1.05.6-2.02.87-2.87,1.1,0,0-.02,0-.02,0-.81.22-1.52.41-2.08.88-.81.69-.8,1.21-.79,2.25v.29c.02,1.05.04,2.14-.6,4.36-.04.14-.17.24-.32.23-.14-.01-.26-.12-.28-.26-.09-.64-.23-1.17-.42-1.64-.17-.42-.38-.76-.62-1.02-.21-.23-.57-.51-1.03-.55h-.17c-.46.03-.82.23-1.09.58-.51.69-.57,1.77-.4,2.49.13.58.45,1.34.93,2.24.12.23.1.63-.06,1.18h0ZM19.68,30.64c-2.87,0-6.47-1.89-8.97-4.73-.07-.08-.1-.19-.06-.3.15-.48.18-.8.15-.87-.51-.95-.84-1.76-.99-2.39-.2-.89-.12-2.16.51-3,.38-.51.91-.79,1.54-.83.07,0,.17,0,.25,0,.53.04,1.02.3,1.44.74.29.31.54.71.74,1.2.07.16.12.32.18.5.29-1.34.27-2.15.26-2.94v-.29c-.02-1.08-.03-1.86,1-2.73.66-.56,1.45-.77,2.3-1h.02c.87-.23,1.76-.48,2.75-1.04,1-.58,1.94-1.41,2.77-2.15,1.37-1.22,2.56-2.26,3.44-1.44.53.48.54,1.31.56,2.2.01.62.02,1.26.18,1.85l.46,1.5s.01.06.01.09v.45c-.01,2.44-.03,5.48-1.33,8.15l-.2.4c-.95,1.96-1.94,3.97-3.16,5.15h0c-.93.9-2.44,1.47-3.84,1.47h0Z"/>
      <path class="cls-4" d="M7.85,8.13c-2.24,4.1-.83,15.32,3.03,17.76.08-.21.34-1.03.19-1.29-.35-.66-.79-1.55-.96-2.32-.84-3.71,3.56-5.43,4.33.02.66-2.3.6-3.37.59-4.46-.02-1.15-.06-1.79.89-2.6.61-.51,1.36-.71,2.2-.94h0c.86-.23,1.8-.49,2.82-1.08,1.02-.59,1.96-1.42,2.82-2.17,1.27-1.12,2.35-2.08,3.03-1.45.43.39.44,1.16.46,1.98.01.63.03,1.29.19,1.92l.46,1.51c.13-2,.09-4.31-.19-6.21-.54-3.66-2.17-3.8-6.69-6.19-.72-.37-1.65-1.01-3.05-1.05-3.4-.11-8.45,3.86-10.12,6.56Z"/>
      <path class="cls-2" d="M8.11,8.29c-2.1,3.86-.86,14.34,2.6,17.09.07-.27.12-.56.09-.64-.51-.95-.84-1.76-.99-2.39-.3-1.33.02-2.59.84-3.31.57-.5,1.32-.65,2-.4.51.19,1.33.74,1.82,2.31.29-1.33.27-2.14.26-2.93v-.29c-.02-1.08-.03-1.86,1-2.73.66-.56,1.45-.77,2.29-1h.02c.87-.23,1.76-.48,2.75-1.04,1-.58,1.94-1.41,2.77-2.15,1.37-1.22,2.56-2.26,3.44-1.44.53.48.54,1.31.56,2.2.01.51.02,1.03.11,1.51.01-1.5-.08-2.98-.26-4.23-.42-2.89-1.53-3.45-4.49-4.93-.6-.3-1.28-.63-2.03-1.03l-.32-.18c-.66-.36-1.47-.82-2.6-.85-3.3-.11-8.24,3.82-9.85,6.42h0ZM10.88,26.2c-.06,0-.11-.02-.17-.04-4-2.53-5.46-13.91-3.14-18.16,0,0,0-.01,0-.01,1.7-2.75,6.71-6.72,10.25-6.72h.14c1.28.04,2.21.56,2.88.93l.3.17c.75.4,1.42.73,2.02,1.03,2.99,1.49,4.36,2.17,4.83,5.38.26,1.81.33,4.09.19,6.27,0,.15-.12.27-.27.29-.15.02-.29-.08-.33-.22l-.46-1.51c-.18-.67-.19-1.35-.2-2.01-.01-.75-.03-1.45-.36-1.76-.48-.44-1.52.48-2.61,1.45-.86.75-1.82,1.61-2.87,2.22-1.05.6-2.02.87-2.87,1.1,0,0-.02,0-.02,0-.81.22-1.52.41-2.08.88-.81.69-.8,1.21-.79,2.25v.29c.02,1.05.04,2.14-.6,4.36-.04.14-.17.24-.32.23-.14-.01-.26-.12-.28-.26-.23-1.67-.86-2.81-1.71-3.12-.47-.17-.97-.07-1.38.28-.51.44-.94,1.38-.64,2.7.13.58.45,1.34.93,2.24.24.44-.16,1.5-.18,1.54-.03.09-.1.16-.19.18-.03,0-.06.02-.1.02Z"/>
      <path class="cls-4" d="M19.19,27.54c.87-.5,3.28-1.64,4-2.92.72.44,3.14-1.2,4.01-1.69-.53-1.32-3.3-.9-4,.33-.7-.42-3.47,2.36-4.01,4.29Z"/>
      <path class="cls-2" d="M23.02,23.52s-.14,0-.37.14c-.89.49-2.21,1.93-2.86,3.21,1.06-.58,2.61-1.47,3.13-2.39.04-.08.11-.13.19-.15.08-.02.17,0,.24.04.45.28,2.5-.98,3.18-1.4.09-.05.17-.11.24-.15-.26-.3-.71-.36-.99-.39-.94-.06-1.99.38-2.33.98-.04.07-.11.12-.19.15-.08.02-.17,0-.24-.03h-.01ZM19.19,27.85c-.07,0-.13-.03-.19-.07-.1-.08-.14-.2-.11-.32.46-1.67,2.55-4.01,3.71-4.47.17-.07.31-.11.45-.1.6-.78,1.83-1.15,2.77-1.08.82.05,1.42.42,1.65.99.06.15,0,.3-.13.38-.13.08-.3.18-.5.31-1.41.86-2.75,1.62-3.53,1.5-.75,1.07-2.45,1.98-3.49,2.54-.19.11-.36.2-.5.28-.05.02-.1.04-.15.04Z"/>
      <path class="cls-2" d="M23.05,16.78v2.33c0,.36.11.63.3.74.19.1.48.07.79-.11l3.26-1.88c.22-.13.44-.36.61-.64,0-.01,0-.01,0-.02.17-.29.26-.6.26-.86v-2.49s0-.05,0-.07c-.03,0-.06.03-.08.04l-5.14,2.97h0ZM21.85,17.48l-4.9,2.82c-.28.16-.33.2-.33.58v2.54c0,.2.05.35.15.4.09.05.25.03.42-.07l3.26-1.88c.36-.21.72-.58.98-1.04.26-.45.41-.96.41-1.37v-1.98h0ZM16.89,24.46c-.15,0-.29-.03-.42-.11-.29-.17-.46-.5-.46-.93v-2.49c0-.69.2-.91.63-1.16l5.36-3.09c.1-.05.21-.05.31,0,.06.03.1.09.13.14v-.22c0-.1.06-.21.15-.26l5.29-3.06c.24-.14.47-.26.7-.14.22.11.28.36.3.62,0,.01,0,.07,0,.08v2.49c0,.37-.12.78-.33,1.15,0,.01,0,.02-.01.02-.22.39-.52.7-.84.89l-3.26,1.89c-.51.3-1.01.33-1.4.11-.31-.17-.51-.51-.58-.93h0c0,.53-.18,1.13-.5,1.69-.32.55-.75,1-1.2,1.27l-3.26,1.88c-.21.12-.42.18-.62.18Z"/>
      <path class="cls-2" d="M16.13,20.58s-.09-.01-.13-.03l-4.2-1.89c-.17-.08-.34-.09-.44-.04-.04.02-.08.05-.11.16l-.06.3c-.04.17-.2.27-.37.24-.17-.04-.27-.2-.23-.36l.06-.3c.06-.26.21-.46.43-.57.27-.14.62-.13.97.03l4.2,1.9c.16.07.22.25.15.4-.05.12-.16.18-.28.18Z"/>
      <path class="cls-2" d="M22.16,17.25c-.11,0-.21-.05-.27-.15-.08-.15-.03-.34.11-.42l.59-.34c.15-.09.34-.03.42.12.08.15.04.33-.11.42l-.59.34s-.1.04-.15.04Z"/>
      <path class="cls-3" d="M5.25,6.47c0,2.46-.24,3.8,2.15,5.67,6,4.72,19,2.87,20.45-2.94l.06-2.74c-5.47,0-1.98-.04-6.04,1.19-4.1,1.25-9.59,1-13.34-1.17l-3.28-.02Z"/>
      <path class="cls-2" d="M5.56,6.78v.3c-.02,2.06-.03,3.2,2.03,4.83,3.88,3.05,10.52,3.14,14.8,1.68,2.85-.98,4.68-2.56,5.16-4.46l.05-2.35h-.15c-2.79,0-2.8,0-3.13.22-.28.17-.75.48-2.35.96-4.48,1.37-9.9.9-13.52-1.15l-2.89-.02h0ZM16.49,15.11c-3.35,0-6.83-.8-9.28-2.73-2.3-1.81-2.29-3.2-2.27-5.31v-.61c0-.08.04-.16.09-.22.06-.06.13-.09.22-.09h0l3.28.02c.05,0,.11.02.15.04,3.42,1.97,8.81,2.44,13.1,1.14,1.52-.46,1.94-.73,2.19-.89q.48-.31,3.47-.3h.47c.08,0,.16.02.22.09.06.06.09.14.09.23l-.07,2.74c-.53,2.17-2.5,3.9-5.56,4.95-1.76.6-3.9.95-6.1.95Z"/>
      <path class="cls-3" d="M20.87,1.74c9.88,2.96,17.95,10.17,6.1,10.23-2.25,0-6.81-.24-10.87-.64-3.47-.35-7.6-.06-10.1.95C-.34,14.83-2.01-5.11,20.87,1.74Z"/>
      <path class="cls-2" d="M12.32.61C6.69.61,4.28,3.06,3.37,4.41c-1.64,2.45-1.4,5.42-.22,6.88.71.88,1.69,1.12,2.74.69,2.37-.96,6.48-1.34,10.24-.96,4.27.43,8.76.64,10.84.64,3.44-.02,5.42-.65,5.58-1.79.31-2.16-5.3-5.9-11.77-7.84-3.42-1.03-6.2-1.42-8.47-1.42h0ZM4.9,12.81c-.85,0-1.63-.39-2.24-1.13-1.32-1.63-1.61-4.92.19-7.61,1.35-2.01,5.81-6.3,18.11-2.63h0c6.22,1.86,12.6,5.73,12.2,8.52-.22,1.52-2.3,2.29-6.19,2.32-2.09,0-6.61-.22-10.91-.64-3.67-.37-7.67,0-9.95.92-.41.17-.82.25-1.22.25Z"/>
      <path class="cls-3" d="M16.58,4.34c.67,0,1.34-.15,1.86-.44.51-.3.77-.69.77-1.07s-.26-.78-.77-1.08c-.51-.3-1.19-.45-1.86-.45s-1.35.15-1.86.45c-.51.3-.77.69-.77,1.08s.26.77.77,1.07c.51.3,1.19.44,1.86.44Z"/>
      <path class="cls-2" d="M16.58,1.62c-.65,0-1.25.14-1.7.4-.39.23-.61.52-.61.81s.22.57.61.8c.9.52,2.51.52,3.41,0,.4-.22.62-.51.62-.8s-.22-.58-.61-.81c-.45-.26-1.06-.4-1.7-.4h0ZM16.58,4.66c-.76,0-1.47-.18-2.01-.49-.6-.35-.92-.83-.92-1.34s.33-1,.93-1.34c1.08-.63,2.93-.63,4.02,0,.6.34.92.82.92,1.34s-.33.99-.92,1.34c-.54.31-1.26.49-2.01.49Z"/>
      <path class="cls-4" d="M14.37,21.8c-1.99,8,4.28,9.56,7.18,9.26,1.22-.12,2.23-.71,3.25-2.34,1.4-2.22,2.83-5.98,2.83-8.59-.36,3.15-3.04,7.47-4.04,6.38-.33.87-5.99,4.08-9.22-4.71Z"/>
      <path class="cls-2" d="M14.45,22.87c-.43,2.44-.03,4.39,1.18,5.78,1.71,1.97,4.5,2.26,5.88,2.11,1.24-.13,2.12-.77,3.02-2.2.67-1.08,1.37-2.53,1.9-4.04-.69,1.24-1.5,2.22-2.16,2.43-.22.07-.42.07-.6,0-.5.55-1.75,1.17-3.15,1.17h-.02c-1.77,0-4.2-.96-6.04-5.25h0ZM20.88,31.41c-1.61,0-4.1-.49-5.72-2.35-1.51-1.74-1.88-4.2-1.1-7.32.03-.13.15-.23.28-.24.15-.03.26.07.31.2,1.76,4.77,4.15,5.79,5.85,5.8h.02c1.61,0,2.7-.88,2.78-1.1.04-.1.12-.17.23-.19.1-.02.21.02.29.09.05.05.11.1.26.05,1.06-.35,2.95-3.7,3.24-6.26.02-.17.16-.3.32-.28.16,0,.29.15.29.31,0,2.71-1.48,6.53-2.88,8.75-1,1.6-2.04,2.34-3.48,2.49-.2.02-.44.03-.69.03Z"/>
    </g>
  </g>
</svg>