<?xml version="1.0" encoding="UTF-8"?>
<svg id="Layer_2" data-name="Layer 2" xmlns="http://www.w3.org/2000/svg" viewBox="0 0 28.64 43.21" fill="currentColor">
  <defs>
    <style>
      .cls-1 {
        fill: #fff;
      }

      .cls-1, .cls-2, .cls-3, .cls-4 {
        fill-rule: evenodd;
      }

      .cls-2 {
        fill: #1a87c7;
      }

      .cls-3 {
        fill: #bdedf8;
      }

      .cls-4 {
        fill: #66ceef;
      }
    </style>
  </defs>
  <g id="_Layer_" data-name="&amp;lt;Layer&amp;gt;">
    <g>
      <path class="cls-4" d="M27.29,33.81v2.24c-.15.72-.32,1.14-.67,1.78-.86,1.31-1.77,2.03-3.1,2.84-4.94,2.71-11.3,2.84-16.48.97-1.11-.45-1.96-.88-2.96-1.55-.69-.51-1.16-.93-1.72-1.59-.63-.83-.94-1.42-1.15-2.46v-2.25s26.09.01,26.09.01Z"/>
      <path class="cls-2" d="M1.51,34.11v1.94c.21.96.52,1.51,1.09,2.28.5.58.94.99,1.66,1.53.91.61,1.73,1.03,2.89,1.5,5.38,1.94,11.6,1.58,16.22-.96,1.25-.76,2.15-1.45,2.99-2.75.35-.62.49-1,.63-1.67v-1.88H1.51ZM14.3,43.21c-2.48,0-5-.42-7.37-1.28-1.21-.49-2.06-.93-3.02-1.57-.77-.58-1.24-1.01-1.79-1.65-.63-.84-.98-1.46-1.22-2.6v-2.31c0-.08.03-.16.08-.21.06-.05.14-.09.22-.09h26.09c.17,0,.31.14.31.31v2.24c-.16.8-.32,1.23-.71,1.93-.92,1.41-1.87,2.15-3.21,2.96-2.74,1.5-6.03,2.27-9.38,2.27Z"/>
      <path class="cls-3" d="M5.02,28.32c5.1-2.94,13.36-2.94,18.46,0,5.1,2.94,5.1,7.71,0,10.66-5.1,2.94-13.37,2.94-18.46,0-5.1-2.95-5.1-7.72,0-10.66Z"/>
      <path class="cls-2" d="M14.25,26.42c-3.29,0-6.57.72-9.08,2.16-2.37,1.37-3.67,3.17-3.67,5.07s1.3,3.69,3.67,5.06c5.01,2.89,13.15,2.89,18.16,0,2.36-1.37,3.67-3.15,3.67-5.06s-1.3-3.69-3.67-5.07c-2.5-1.44-5.79-2.16-9.07-2.16h0ZM14.25,41.49c-3.4,0-6.8-.75-9.39-2.24-2.56-1.49-3.98-3.47-3.98-5.6s1.41-4.11,3.98-5.6c5.17-2.98,13.59-2.99,18.77,0,2.57,1.49,3.98,3.47,3.98,5.6s-1.41,4.11-3.98,5.6c-2.59,1.5-5.99,2.24-9.39,2.24Z"/>
      <path class="cls-1" d="M26.61,33.75c0,1.31-.77,2.02-1.66,2.96-1.21,1.12-2.34,1.73-3.87,2.34-2.13.76-3.98,1.08-6.24,1.17-2.67.03-4.92-.27-7.43-1.17-1.89-.76-3.43-1.64-4.68-3.29-.45-.68-.85-1.2-.85-2.01V10.69c.05.24.09.44.17.69.19.58.54,1.17.92,1.64,1.32,1.64,3.52,2.74,5.49,3.34,4.34,1.31,10.04,1.09,14.1-1.03,1.2-.63,2.41-1.51,3.19-2.63.34-.5.64-1.09.78-1.67l.07-.35v23.06Z"/>
      <path class="cls-2" d="M2.19,12.42v21.33c0,.64.29,1.08.66,1.63l.14.21c1.28,1.7,2.93,2.53,4.53,3.17,2.34.84,4.53,1.19,7.31,1.15,2.35-.1,4.13-.43,6.14-1.16,1.41-.56,2.53-1.15,3.76-2.28l.11-.12c.81-.84,1.45-1.5,1.45-2.61V12.42c-.09.16-.19.31-.29.46-.91,1.31-2.3,2.2-3.3,2.72-3.91,2.04-9.67,2.46-14.33,1.05-1.43-.43-4.06-1.46-5.64-3.43-.2-.25-.39-.53-.55-.8h0ZM14.43,40.53c-2.67,0-4.82-.36-7.12-1.19-1.69-.68-3.44-1.56-4.82-3.4l-.15-.21c-.39-.59-.77-1.16-.77-1.98V10.69c0-.16.12-.29.28-.3.16-.02.3.09.33.24.05.25.09.44.16.64.17.51.49,1.08.87,1.56,1.48,1.85,3.98,2.82,5.34,3.23,4.51,1.36,10.08.97,13.86-1.01.94-.49,2.24-1.33,3.08-2.53.35-.49.6-1.04.74-1.56l.07-.33c.03-.16.17-.26.33-.24.16.02.28.15.28.3v23.06c0,1.36-.75,2.14-1.63,3.04l-.12.13c-1.31,1.21-2.49,1.82-3.97,2.42-2.08.75-3.91,1.09-6.34,1.19h-.43Z"/>
      <path class="cls-3" d="M4.41,2.67C9.89-.49,18.75-.49,24.23,2.67c5.47,3.16,5.47,8.28,0,11.44-5.47,3.16-14.35,3.16-19.82,0-5.48-3.16-5.47-8.27,0-11.44Z"/>
      <path class="cls-2" d="M4.57,2.94c-2.55,1.47-3.95,3.41-3.95,5.46s1.4,3.98,3.95,5.45c5.38,3.1,14.13,3.1,19.51,0,2.54-1.47,3.95-3.41,3.95-5.45s-1.4-3.99-3.95-5.46C18.69-.17,9.95-.17,4.57,2.94h0ZM14.32,16.78c-3.64,0-7.29-.81-10.06-2.41C1.51,12.79,0,10.66,0,8.39S1.51,3.99,4.26,2.41h0c5.55-3.21,14.57-3.21,20.12,0,2.75,1.58,4.26,3.71,4.26,5.99,0,2.27-1.51,4.4-4.26,5.98-2.77,1.6-6.42,2.41-10.06,2.41Z"/>
      <path class="cls-4" d="M28.27,9.17c0,2.86.34,4.42-2.24,6.69C18.93,22.07,2.27,19.88.45,12.57l-.08-3.4c1.34,6.47,11.92,8.01,17.94,6.98,3.86-.66,9.06-2.66,9.96-6.98Z"/>
      <path class="cls-2" d="M.72,11.02l.04,1.54c.6,2.37,3.09,4.44,6.84,5.61,5.46,1.71,13.7,1.41,18.22-2.54,1.92-1.68,2.15-2.93,2.15-4.73-2.04,3.95-7.74,5.23-9.61,5.55-5.97,1.02-14.94-.43-17.64-5.43h0ZM14.43,19.77c-2.5,0-4.95-.36-7.01-1.01C3.4,17.5.82,15.33.16,12.64l-.09-3.47c0-.16.11-.3.27-.31.16-.02.3.09.34.24,1.26,6.06,11.19,7.83,17.58,6.74,2.02-.35,8.69-1.85,9.71-6.74.03-.15.18-.26.33-.24.16.02.28.15.28.31,0,.31,0,.61,0,.89.03,2.36.06,3.92-2.36,6.02-2.97,2.6-7.46,3.69-11.79,3.69Z"/>
      <path class="cls-1" d="M5.09,2.61C10.19-.34,18.45-.34,23.55,2.61c5.1,2.94,5.1,7.72,0,10.66-5.1,2.95-13.37,2.95-18.47,0C-.02,10.32-.01,5.55,5.09,2.61Z"/>
      <path class="cls-2" d="M5.24,2.87c-2.37,1.36-3.67,3.16-3.67,5.07s1.3,3.69,3.67,5.06c5.01,2.89,13.16,2.89,18.16,0,2.37-1.37,3.67-3.16,3.67-5.06s-1.3-3.7-3.67-5.07C18.39-.02,10.25-.02,5.24,2.87h0ZM14.32,15.78c-3.4,0-6.8-.75-9.39-2.24-2.57-1.49-3.98-3.47-3.98-5.6s1.41-4.12,3.98-5.6h0c5.17-2.99,13.6-2.99,18.77,0,2.57,1.48,3.98,3.47,3.98,5.6s-1.41,4.11-3.98,5.6c-2.59,1.5-5.99,2.24-9.39,2.24Z"/>
      <path class="cls-1" d="M12.03,4.44c1.26-.73,3.31-.73,4.57,0,1.26.73,1.27,1.91,0,2.64-1.26.73-3.31.73-4.58,0-1.26-.73-1.26-1.91,0-2.64Z"/>
      <path class="cls-2" d="M12.19,4.7c-.51.3-.79.68-.79,1.06,0,.38.28.76.79,1.05,1.18.68,3.09.68,4.27,0,.51-.3.79-.67.79-1.05,0-.38-.28-.76-.79-1.06-1.18-.68-3.09-.67-4.26,0h0ZM14.32,7.94c-.88,0-1.76-.2-2.44-.6-.71-.41-1.1-.96-1.1-1.58,0-.62.39-1.18,1.1-1.59h0c1.37-.79,3.51-.79,4.88,0,.71.41,1.1.97,1.1,1.59,0,.62-.39,1.17-1.1,1.58-.68.4-1.56.6-2.44.6Z"/>
      <path class="cls-4" d="M17.54,5.93v1.44l-.02.09c-.04.15-.11.31-.2.44-.33.47-.95.78-1.49.95-1.09.33-2.5.29-3.55-.21-.3-.14-.6-.33-.82-.58-.11-.12-.21-.28-.28-.42-.02-.05-.05-.13-.06-.18l-.02-.09v-1.44c.01.07.02.12.04.18.06.18.18.36.31.51.34.37.88.63,1.36.78,1.13.35,2.61.29,3.67-.27.31-.16.63-.39.83-.68.09-.13.17-.29.2-.43l.02-.1Z"/>
      <path class="cls-2" d="M11.41,7.01v.39s.04.09.05.12c.05.12.13.24.22.34.17.18.43.36.73.5.93.44,2.26.51,3.32.19.6-.18,1.09-.49,1.33-.83.07-.11.13-.23.16-.33l.02-.08v-.31c-.21.18-.43.32-.61.42-1.06.56-2.64.67-3.9.29-.32-.09-.88-.3-1.32-.69h0ZM14.32,9.38c-.78,0-1.55-.16-2.18-.45-.26-.12-.63-.33-.92-.65-.14-.15-.26-.33-.33-.51-.02-.05-.06-.16-.07-.22l-.02-.09v-1.51c0-.15.11-.29.27-.3.15-.03.3.09.33.24.01.05.02.1.03.15.04.13.13.27.25.4.36.39.92.61,1.22.7,1.12.34,2.5.24,3.44-.24.22-.11.53-.31.72-.59.07-.1.13-.23.16-.33l.02-.08c.03-.15.18-.26.33-.24.16.02.28.15.28.3l-.03,1.6c-.05.19-.13.38-.25.55-.44.63-1.23.94-1.66,1.07-.5.15-1.05.23-1.59.23Z"/>
      <path class="cls-2" d="M25.35,33.08c-.17,0-.31-.13-.31-.3v-15.16c0-.16.14-.3.31-.3s.31.14.31.3v15.16c0,.17-.14.3-.31.3Z"/>
      <path class="cls-2" d="M3.29,33.08c-.17,0-.31-.13-.31-.3v-15.16c0-.16.14-.3.31-.3s.31.14.31.3v15.16c0,.17-.14.3-.31.3Z"/>
      <path class="cls-3" d="M22,35.23c0,.91.99.87.99-.1v-15.32c0-.97-.99-1.02-.99-.11v15.53Z"/>
      <path class="cls-2" d="M22.47,19.35c-.07,0-.16.12-.16.35v15.53c0,.49.37.47.37-.1v-15.32c0-.3-.13-.45-.22-.45h0ZM22.47,36.2c-.22,0-.42-.1-.56-.28-.14-.17-.21-.41-.21-.69v-15.53c0-.27.07-.51.21-.68.41-.52,1.39-.28,1.39.78v15.32c0,.7-.42,1.07-.83,1.07Z"/>
      <path class="cls-3" d="M17.73,37.15c0,1.45-1.28,1.45-1.28,0v-15.32c0-1.45,1.28-1.45,1.28,0v15.32Z"/>
      <path class="cls-2" d="M17.09,21.05c-.13,0-.33.25-.33.78v15.32c0,1.07.66,1.06.66,0v-15.32c0-.53-.2-.78-.33-.78h0ZM17.09,38.55c-.46,0-.95-.44-.95-1.4v-15.32c0-.96.49-1.39.95-1.39s.95.43.95,1.39v15.32c0,.96-.49,1.4-.95,1.4Z"/>
      <path class="cls-3" d="M11.9,37.15c0,1.45-1.28,1.45-1.28,0v-15.32c0-1.45,1.28-1.45,1.28,0v15.32Z"/>
      <path class="cls-2" d="M11.25,21.05c-.14,0-.33.25-.33.78v15.32c0,1.06.66,1.06.66,0v-15.32c0-.53-.2-.78-.33-.78h0ZM11.25,38.55c-.46,0-.95-.44-.95-1.4v-15.32c0-.96.49-1.39.95-1.39s.95.43.95,1.39v15.32c0,.96-.49,1.4-.95,1.4Z"/>
      <path class="cls-3" d="M5.43,35.23c0,.91.99.87.99-.1v-15.32c0-.97-.99-1.02-.99-.11v15.53Z"/>
      <path class="cls-2" d="M5.89,19.35c-.07,0-.16.12-.16.35v15.53c0,.49.37.47.37-.1v-15.32c0-.3-.13-.45-.22-.45h0ZM5.89,36.2c-.22,0-.42-.1-.56-.28-.14-.17-.21-.41-.21-.69v-15.53c0-.27.07-.51.21-.68.41-.52,1.39-.28,1.39.78v15.32c0,.7-.42,1.07-.83,1.07Z"/>
    </g>
  </g>
</svg>