<?xml version="1.0" encoding="UTF-8"?>
<svg id="Layer_2" data-name="Layer 2" xmlns="http://www.w3.org/2000/svg" viewBox="0 0 41.14 44.43" fill="currentColor">
  <defs>
    <style>
      .cls-1 {
        fill: #fff;
      }

      .cls-1, .cls-2, .cls-3, .cls-4 {
        fill-rule: evenodd;
      }

      .cls-2 {
        fill: #1a87c7;
      }

      .cls-3 {
        fill: #bdedf8;
      }

      .cls-4 {
        fill: #66ceef;
      }
    </style>
  </defs>
  <g id="_Layer_" data-name="&amp;lt;Layer&amp;gt;">
    <g>
      <path class="cls-4" d="M1.45,32.44l-.95-.65c-.15-.25-.19-.48-.19-.77v-15.3c.03-1.06.7-2.22,1.61-2.77L23.47.52c.36-.2.74-.32,1.13-.11l.95.64c-.39-.2-.77-.09-1.13.11L2.86,13.6c-.91.55-1.58,1.72-1.6,2.77v15.3c0,.29.04.51.19.77Z"/>
      <path class="cls-2" d="M.74,31.58l.21.14s0-.03,0-.05v-15.31c.03-1.16.77-2.43,1.76-3.03L24.26.9c.09-.05.19-.1.3-.14l-.13-.09c-.2-.11-.45-.08-.81.12L2.07,13.22c-.81.49-1.42,1.55-1.44,2.51v15.29c0,.22.02.38.11.56h0ZM1.45,32.74c-.06,0-.12-.02-.18-.06l-.94-.64s-.07-.06-.09-.1c-.19-.31-.23-.6-.24-.92v-15.31c.03-1.18.75-2.42,1.75-3.03L23.31.26c.35-.19.87-.41,1.43-.12l.98.66c.14.09.18.27.09.41-.08.14-.26.19-.41.11-.23-.12-.48-.09-.84.11L3.02,13.87c-.81.49-1.43,1.55-1.45,2.51v15.29c0,.24.02.41.14.61.07.12.05.28-.06.38-.06.06-.14.09-.21.09Z"/>
      <path class="cls-3" d="M2.86,13.6L24.41,1.17c.88-.51,1.6-.09,1.6.92v15.3c0,1.01-.73,2.26-1.61,2.77L2.85,32.59c-.88.51-1.6.09-1.6-.93v-15.3c0-1.01.73-2.26,1.61-2.77Z"/>
      <path class="cls-2" d="M2.86,13.6h0,0ZM25.12,1.26c-.17,0-.36.06-.56.18L3.02,13.87h0c-.79.45-1.45,1.6-1.45,2.5v15.3c0,.37.11.65.31.77.2.12.5.08.82-.11l21.55-12.43c.78-.45,1.45-1.6,1.45-2.5V2.09c0-.37-.11-.65-.31-.76-.08-.04-.17-.07-.26-.07h0ZM2.14,33.12c-.21,0-.4-.05-.57-.15-.4-.23-.62-.7-.62-1.3v-15.3c0-1.12.79-2.48,1.76-3.04L24.26.9c.53-.3,1.03-.34,1.44-.11.4.23.62.7.62,1.3v15.3c0,1.13-.78,2.47-1.76,3.04L3.01,32.86c-.3.17-.59.26-.86.26Z"/>
      <path class="cls-1" d="M2.96,14.75l5.68-3.27L24.32,2.43c.4-.23.73-.04.73.42v14.89c0,.47-.33,1.04-.74,1.27L6.61,29.22l-3.66,2.11c-.4.23-.73.04-.73-.42v-14.89c0-.47.33-1.04.74-1.27Z"/>
      <path class="cls-2" d="M2.96,14.75h0,0ZM24.64,2.64s-.1.02-.17.06L3.11,15.02h0c-.31.18-.58.64-.58,1v14.89c0,.12.03.19.05.21.03.02.11.01.21-.05l21.36-12.32c.3-.18.57-.64.57-1V2.85c0-.12-.02-.19-.05-.21,0,0-.02,0-.04,0h0ZM2.62,31.74c-.13,0-.24-.03-.35-.09-.23-.14-.37-.4-.37-.74v-14.89c0-.57.4-1.25.89-1.54L24.16,2.16c.29-.16.59-.18.82-.05.24.14.37.4.37.74v14.89c0,.57-.4,1.25-.89,1.54L3.1,31.6c-.16.09-.32.14-.48.14Z"/>
      <polygon class="cls-1" points="6.23 16.68 21.04 8.12 21.04 18.34 6.23 26.89 6.23 16.68"/>
      <path class="cls-2" d="M6.53,16.85v9.5l14.2-8.2v-9.5l-14.2,8.2h0ZM6.23,27.2c-.05,0-.11-.01-.15-.04-.1-.06-.15-.16-.15-.27v-10.21c0-.11.06-.21.15-.27l14.82-8.55c.09-.06.21-.06.31,0,.1.05.16.15.16.27v10.21c0,.11-.06.21-.16.27l-14.82,8.55s-.1.04-.15.04Z"/>
      <polygon class="cls-3" points="6.23 16.68 21.04 8.12 21.04 6.65 6.23 15.2 6.23 16.68"/>
      <path class="cls-2" d="M6.53,15.38v.76l14.2-8.2v-.76L6.53,15.38h0ZM6.23,16.98c-.05,0-.11-.01-.15-.04-.1-.05-.15-.16-.15-.26v-1.47c0-.11.06-.21.15-.27l14.82-8.55c.09-.06.21-.06.31,0,.1.06.16.16.16.27v1.47c0,.11-.06.21-.16.27l-14.82,8.55s-.1.04-.15.04Z"/>
      <path class="cls-3" d="M9.98,16.94h0c.2-.12.36-.02.36.21h0c0,.23-.16.51-.36.63h0c-.2.12-.36.02-.36-.21h0c0-.23.17-.51.36-.63Z"/>
      <path class="cls-2" d="M9.98,16.94h0,0ZM9.82,18.14c-.09,0-.17-.02-.25-.06-.17-.1-.26-.28-.26-.5,0-.34.22-.72.52-.89.19-.11.4-.12.56-.03.17.09.26.28.26.5,0,.34-.22.72-.52.9-.11.06-.21.09-.32.09Z"/>
      <path class="cls-3" d="M9.98,19.2h0c.2-.12.36-.02.36.21h0c0,.23-.16.51-.36.63h0c-.2.12-.36.02-.36-.21h0c0-.23.17-.51.36-.63Z"/>
      <path class="cls-2" d="M9.98,19.2h0,0ZM9.82,20.39c-.09,0-.17-.02-.25-.07-.17-.1-.26-.28-.26-.5,0-.34.22-.73.52-.9.19-.11.4-.12.56-.02.17.1.26.28.26.5,0,.34-.22.73-.52.9-.11.06-.21.09-.32.09Z"/>
      <path class="cls-3" d="M9.98,21.59h0c.2-.12.36-.02.36.21h0c0,.23-.16.51-.36.63h0c-.2.12-.36.02-.36-.21h0c0-.23.17-.52.36-.63Z"/>
      <path class="cls-2" d="M9.98,21.59h0,0ZM9.82,22.79c-.09,0-.17-.02-.25-.07-.17-.1-.26-.28-.26-.5,0-.34.22-.73.52-.9.19-.11.4-.12.56-.03.17.1.26.28.26.5,0,.34-.22.73-.52.9-.11.06-.21.09-.32.09Z"/>
      <path class="cls-3" d="M40.81,29.34v1.17c-.1.35-.33.56-.64.74l-21.64,12.5c-.48.26-.95.36-1.5.38-.61.01-1.17-.08-1.71-.38l-13.29-7.68c-.3-.19-.54-.39-.64-.74v-1.17c.1.35.33.55.64.74l13.29,7.68c.54.3,1.1.39,1.71.38.54-.02,1.02-.12,1.5-.38l21.64-12.49c.3-.19.54-.39.64-.74Z"/>
      <path class="cls-2" d="M1.7,35.27c.07.2.2.35.49.52l13.28,7.68c.44.24.92.35,1.56.34.55-.02.96-.13,1.35-.34l21.64-12.49c.27-.17.41-.31.48-.52v-.23c-.06.04-.12.08-.17.11l-21.64,12.5c-.48.26-.99.39-1.64.42-.76.02-1.34-.13-1.88-.42l-13.29-7.69c-.06-.04-.12-.07-.17-.12v.23h0ZM16.97,44.43c-.71,0-1.28-.13-1.8-.42l-13.29-7.69c-.31-.19-.64-.44-.78-.92,0-.03-.01-.06-.01-.09v-1.17c0-.15.11-.29.27-.31.15-.02.3.07.34.22.07.23.2.38.5.56l13.28,7.68c.44.24.92.36,1.56.34.55-.02.96-.12,1.35-.34l21.64-12.49c.29-.18.43-.33.5-.56.04-.15.19-.24.34-.22.15.02.26.15.26.31v1.17s0,.06-.01.09c-.14.48-.47.73-.78.92l-21.64,12.5c-.48.27-.99.4-1.64.42h-.08Z"/>
      <path class="cls-4" d="M2.03,33.03l21.64-12.49c.89-.51,2.33-.51,3.21,0l13.29,7.68c.88.51.88,1.35,0,1.86l-21.64,12.49c-.88.51-2.33.51-3.21,0l-13.29-7.68c-.88-.51-.88-1.35,0-1.86Z"/>
      <path class="cls-2" d="M2.03,33.03h0,0ZM2.19,33.3c-.32.19-.51.43-.51.66s.18.47.51.66l13.29,7.68c.79.46,2.11.46,2.9,0l21.64-12.49c.32-.19.51-.43.51-.66s-.19-.47-.51-.66l-13.29-7.68c-.78-.46-2.11-.46-2.9,0L2.19,33.3h0ZM16.92,43.26c-.64,0-1.28-.14-1.76-.42l-13.29-7.68c-.53-.31-.81-.73-.81-1.19s.29-.89.81-1.19l21.64-12.49c.97-.56,2.55-.56,3.52,0l13.29,7.69c.53.3.82.73.82,1.2s-.29.89-.82,1.19l-21.64,12.5c-.48.28-1.12.42-1.76.42Z"/>
      <polygon class="cls-3" points="25.3 37.4 31.21 33.98 26.68 31.36 20.76 34.78 25.3 37.4"/>
      <path class="cls-2" d="M21.38,34.78l3.92,2.27,5.3-3.07-3.92-2.26-5.3,3.06h0ZM25.3,37.71c-.06,0-.11-.01-.15-.04l-4.53-2.62c-.1-.05-.16-.15-.16-.27s.06-.21.16-.27l5.92-3.42c.1-.06.21-.06.31,0l4.53,2.62c.09.06.15.16.15.27s-.06.21-.15.27l-5.92,3.42s-.1.04-.16.04Z"/>
      <path class="cls-3" d="M4.74,33.47c6.56-3.79,13.11-7.57,19.67-11.36.47-.27,1.24-.27,1.71,0l6.7,3.88c.47.27.47.72,0,.99-6.55,3.79-13.11,7.57-19.67,11.36-.47.27-1.24.27-1.71,0l-6.7-3.88c-.47-.27-.47-.72,0-.99Z"/>
      <path class="cls-2" d="M4.74,33.47l.15.27c-.12.07-.2.16-.2.23s.08.16.2.23l6.7,3.88c.37.21,1.03.21,1.4,0l19.67-11.36c.12-.07.2-.16.2-.23s-.08-.16-.2-.23l-6.7-3.88c-.37-.21-1.03-.21-1.4,0l-19.67,11.36-.15-.27h0ZM12.3,38.85c-.36,0-.73-.08-1.01-.25l-6.7-3.88c-.32-.19-.51-.46-.51-.76s.19-.57.51-.76l19.67-11.36c.57-.33,1.46-.33,2.02,0l6.71,3.88c.32.19.51.46.51.76s-.19.57-.51.76l-19.67,11.36c-.28.16-.64.25-1.01.25Z"/>
      <path class="cls-1" d="M13.38,32.38l.97-.56c.19-.11.51-.11.71,0l.97.56c.19.11.19.3,0,.41l-.97.56c-.19.11-.51.11-.7,0l-.97-.56c-.19-.11-.19-.3,0-.41Z"/>
      <path class="cls-2" d="M13.64,32.58l.86.5c.1.06.3.06.4,0l.86-.5-.86-.5c-.1-.06-.3-.06-.4,0l-.86.5h0ZM14.7,33.74c-.18,0-.36-.04-.51-.13l-.97-.56c-.19-.11-.3-.28-.3-.47s.11-.36.3-.47h0l.97-.56c.29-.17.73-.17,1.01,0l.97.56c.19.11.3.28.3.47s-.11.36-.3.47l-.97.56c-.14.08-.32.13-.51.13Z"/>
      <path class="cls-1" d="M9.58,34.57l-.97.56c-.19.11-.19.3,0,.41l.97.56c.2.11.51.11.71,0l.97-.56c.2-.11.2-.3,0-.41l-.97-.56c-.2-.11-.51-.11-.71,0Z"/>
      <path class="cls-2" d="M8.88,35.33l.86.5c.1.06.3.06.4,0l.86-.5-.86-.5c-.1-.06-.3-.06-.4,0l-.86.5h0ZM9.93,36.49c-.18,0-.36-.04-.51-.13l-.97-.56c-.19-.11-.3-.28-.3-.47s.11-.36.3-.47l.97-.56h0c.29-.17.73-.17,1.02,0l.97.56c.19.11.3.28.3.47s-.11.36-.3.47l-.97.56c-.14.08-.32.13-.51.13Z"/>
      <path class="cls-1" d="M11.96,35.95l-.97.56c-.19.12-.19.3,0,.41l.97.56c.19.11.51.11.7,0l.97-.56c.2-.11.2-.3,0-.41l-.97-.56c-.19-.11-.51-.11-.71,0Z"/>
      <path class="cls-2" d="M11.26,36.71l.86.5c.1.06.3.06.4,0l.86-.5-.86-.5c-.1-.06-.3-.06-.4,0l-.86.5h0ZM12.31,37.86c-.18,0-.36-.04-.51-.12l-.97-.56c-.19-.11-.3-.28-.3-.47s.11-.36.3-.47l.97-.56h0c.29-.17.73-.17,1.02,0l.97.56c.19.11.3.28.3.47s-.11.36-.3.47l-.97.56c-.14.08-.32.12-.51.12Z"/>
      <path class="cls-1" d="M10.29,33.34l.97-.56c.2-.11.2-.29,0-.41l-.97-.56c-.19-.12-.51-.12-.7,0l-.97.56c-.2.11-.2.3,0,.41l.96.56c.19.11.51.11.71,0Z"/>
      <path class="cls-2" d="M8.88,32.58l.86.5c.1.06.3.06.4,0l.86-.5-.86-.5c-.1-.06-.3-.06-.4,0l-.86.49h0ZM10.29,33.34h0,0ZM9.93,33.74c-.18,0-.36-.04-.51-.12l-.97-.56c-.19-.11-.3-.28-.3-.47s.11-.36.3-.47l.97-.56c.29-.16.73-.16,1.01,0l.97.56c.19.11.3.28.3.47s-.11.36-.3.47l-.97.56h0c-.14.08-.32.12-.51.12Z"/>
      <path class="cls-1" d="M12.67,31.97l.97-.56c.2-.11.2-.3,0-.41l-.97-.56c-.2-.11-.51-.11-.71,0l-.97.56c-.2.11-.2.29,0,.41l.97.56c.19.11.51.11.71,0Z"/>
      <path class="cls-2" d="M11.26,31.2l.86.5c.1.06.3.06.4,0l.86-.5-.86-.5c-.1-.06-.3-.06-.4,0l-.86.5h0ZM12.67,31.97h0,0ZM12.32,32.36c-.18,0-.36-.04-.5-.13l-.97-.56c-.19-.11-.3-.28-.3-.47s.11-.36.3-.47l.97-.56c.29-.17.73-.17,1.02,0l.97.56c.19.11.3.28.3.47s-.11.36-.3.47l-.97.56h0c-.14.08-.33.13-.51.13Z"/>
      <path class="cls-1" d="M8.87,34.16l-.97.56c-.19.11-.51.11-.71,0l-.97-.56c-.19-.11-.19-.3,0-.41l.97-.56c.19-.11.51-.11.7,0l.97.56c.2.11.2.3,0,.41Z"/>
      <path class="cls-2" d="M6.5,33.96l.86.5c.1.06.3.06.4,0l.86-.5-.86-.5c-.1-.06-.3-.06-.4,0l-.86.5h0ZM7.55,35.11c-.18,0-.36-.04-.51-.13l-.97-.56c-.19-.11-.3-.28-.3-.47s.11-.36.3-.47l.97-.56c.29-.17.73-.17,1.01,0l.97.56c.19.11.3.28.3.47s-.11.36-.3.47l-.97.56c-.15.08-.33.13-.51.13Z"/>
      <path class="cls-1" d="M11,33.75l.97-.56c.19-.11.51-.11.71,0l.97.56c.19.11.19.3,0,.41l-.97.56c-.19.11-.51.11-.7,0l-.97-.56c-.19-.11-.19-.3,0-.41Z"/>
      <path class="cls-2" d="M11.26,33.96l.86.5c.1.06.3.06.4,0l.86-.5-.86-.5c-.1-.06-.3-.06-.4,0l-.86.5h0ZM12.32,35.11c-.18,0-.36-.04-.51-.13l-.97-.56c-.19-.11-.3-.28-.3-.47s.11-.36.3-.47h0l.97-.56c.29-.17.72-.17,1.01,0l.97.56c.19.11.3.28.3.47s-.11.36-.3.47l-.97.56c-.14.08-.33.13-.51.13Z"/>
      <path class="cls-1" d="M18.14,29.63l.97-.56c.2-.11.51-.11.71,0l.97.56c.19.11.19.29,0,.41l-.97.56c-.2.11-.51.11-.71,0l-.97-.56c-.19-.11-.19-.3,0-.41Z"/>
      <path class="cls-2" d="M18.14,29.63h0,0ZM18.4,29.83l.86.49c.1.06.3.06.4,0l.86-.49-.86-.5c-.1-.06-.3-.06-.4,0l-.86.5h0ZM19.46,30.99c-.18,0-.36-.04-.51-.13l-.97-.56c-.19-.11-.3-.28-.3-.47s.11-.36.3-.47l.97-.56c.29-.17.73-.17,1.02,0l.96.56c.19.11.3.28.3.47,0,.19-.11.36-.3.47l-.97.56c-.14.08-.33.13-.51.13Z"/>
      <path class="cls-1" d="M20.52,31l.97-.56c.19-.11.51-.11.71,0l.96.56c.2.11.2.3,0,.41l-.97.56c-.19.11-.51.11-.71,0l-.97-.56c-.19-.11-.19-.3,0-.41Z"/>
      <path class="cls-2" d="M20.52,31h0,0ZM20.78,31.21l.86.5c.1.06.3.06.4,0l.86-.5-.86-.5c-.1-.06-.3-.06-.4,0l-.86.5h0ZM21.84,32.36c-.18,0-.36-.04-.51-.13l-.96-.56c-.19-.11-.3-.28-.3-.47,0-.19.11-.36.3-.47l.97-.56c.29-.17.73-.17,1.02,0l.96.56c.19.11.3.28.3.47s-.11.36-.3.47l-.97.56c-.15.09-.32.13-.51.13Z"/>
      <path class="cls-1" d="M15.05,30.59l.97-.56c.19-.11.19-.29,0-.41l-.97-.56c-.19-.11-.51-.11-.71,0l-.97.56c-.19.11-.19.3,0,.41l.97.56c.19.11.51.11.7,0Z"/>
      <path class="cls-2" d="M13.64,29.83l.86.5c.1.06.3.06.4,0h0l.86-.49-.86-.5c-.1-.05-.3-.05-.4,0l-.86.5h0ZM14.7,30.99c-.18,0-.36-.04-.51-.13l-.97-.56c-.19-.11-.3-.28-.3-.47s.11-.36.3-.47l.97-.56c.29-.17.73-.17,1.02,0l.97.56c.19.11.3.28.3.47s-.11.36-.3.47l-.97.56c-.14.08-.32.13-.51.13Z"/>
      <path class="cls-1" d="M17.44,29.22l.97-.56c.19-.11.19-.3,0-.41l-.97-.56c-.19-.11-.51-.11-.71,0l-.97.56c-.19.11-.19.29,0,.41l.97.56c.19.11.51.11.71,0Z"/>
      <path class="cls-2" d="M16.03,28.45l.86.5c.1.06.3.06.4,0l.86-.5-.86-.5c-.1-.06-.3-.06-.4,0l-.86.5h0ZM17.44,29.22h0,0ZM17.08,29.61c-.18,0-.36-.04-.51-.13l-.97-.56c-.19-.11-.3-.28-.3-.47s.11-.36.3-.47l.97-.56c.29-.17.73-.17,1.02,0l.97.56c.19.11.3.28.3.47s-.11.36-.3.47l-.97.56h0c-.14.08-.32.13-.51.13Z"/>
      <path class="cls-1" d="M15.76,31l.97-.56c.2-.11.51-.11.71,0l.97.56c.19.11.19.3,0,.41l-.97.56c-.2.11-.51.11-.71,0l-.97-.56c-.19-.11-.19-.3,0-.41Z"/>
      <path class="cls-2" d="M15.76,31h0,0ZM16.02,31.21l.86.5c.1.05.3.05.4,0l.86-.5-.86-.5c-.1-.06-.3-.06-.4,0l-.86.5h0ZM17.08,32.36c-.18,0-.36-.04-.51-.13l-.97-.56c-.19-.11-.3-.28-.3-.47s.11-.36.3-.47l.97-.56c.29-.17.73-.17,1.02,0l.97.56c.19.11.3.28.3.47s-.11.36-.3.47l-.97.56c-.14.08-.32.13-.51.13Z"/>
      <path class="cls-1" d="M13.37,35.13l5.73-3.31c.2-.11.51-.11.71,0l.97.56c.19.11.19.3,0,.41l-5.73,3.31c-.2.11-.51.11-.71,0l-.97-.56c-.19-.11-.19-.3,0-.41Z"/>
      <path class="cls-2" d="M13.64,35.33l.86.5c.1.06.3.06.4,0l5.62-3.25-.86-.5c-.1-.06-.3-.06-.4,0l-5.62,3.25h0ZM14.69,36.49c-.18,0-.36-.04-.51-.12l-.97-.56c-.19-.11-.3-.28-.3-.47s.11-.36.3-.47h0l5.73-3.31c.29-.17.73-.17,1.01,0l.97.56c.19.11.3.28.3.47s-.11.36-.3.47l-5.73,3.31c-.14.08-.33.12-.51.12Z"/>
      <path class="cls-1" d="M26.06,25.05l.97-.56c.19-.11.51-.11.71,0l.97.56c.19.11.19.3,0,.41l-.96.56c-.2.11-.51.11-.71,0l-.97-.56c-.19-.11-.19-.3,0-.41Z"/>
      <path class="cls-2" d="M26.06,25.05h0,0ZM26.32,25.26l.86.5c.1.06.3.06.4,0l.86-.5-.86-.5c-.1-.06-.3-.06-.4,0l-.86.5h0ZM27.38,26.41c-.18,0-.36-.04-.51-.13l-.97-.56c-.19-.11-.3-.28-.3-.47s.11-.36.3-.47l.97-.56c.29-.17.72-.17,1.01,0l.97.56c.19.11.3.28.3.47s-.11.36-.3.47l-.96.55c-.15.09-.33.13-.51.13Z"/>
      <path class="cls-1" d="M28.44,26.43l.97-.56c.19-.11.51-.11.7,0l.97.56c.2.11.2.29,0,.41l-.97.56c-.19.11-.51.11-.7,0l-.97-.56c-.19-.11-.19-.3,0-.41Z"/>
      <path class="cls-2" d="M28.44,26.43h0,0ZM28.7,26.63l.86.5c.1.05.3.06.4,0l.86-.5-.86-.5c-.1-.06-.3-.06-.4,0l-.86.5h0ZM29.76,27.79c-.18,0-.36-.04-.51-.13l-.97-.56c-.19-.11-.3-.28-.3-.47s.11-.36.3-.47l.96-.56c.29-.17.73-.17,1.02,0l.97.56c.19.11.3.28.3.47s-.11.36-.3.47l-.97.56c-.14.08-.32.13-.51.13Z"/>
      <path class="cls-1" d="M25.35,24.64l.97-.56c.19-.11.19-.3,0-.41l-.97-.56c-.19-.11-.51-.11-.7,0l-.97.56c-.2.11-.2.3,0,.41l.97.56c.19.11.51.11.71,0Z"/>
      <path class="cls-2" d="M23.94,23.88l.86.5c.1.06.3.06.4,0h0l.86-.5-.86-.5c-.1-.06-.3-.06-.4,0l-.86.5h0ZM25,25.03c-.18,0-.36-.04-.51-.13l-.97-.56c-.19-.11-.3-.28-.3-.47s.11-.36.3-.47l.97-.56c.29-.17.73-.17,1.01,0l.97.56c.19.11.3.28.3.47s-.11.36-.3.47l-.97.56c-.14.08-.33.13-.51.13Z"/>
      <path class="cls-1" d="M23.68,26.43l.97-.56c.2-.11.51-.11.71,0l.97.56c.19.11.19.3,0,.41l-.97.56c-.2.11-.51.11-.71,0l-.97-.56c-.19-.11-.19-.3,0-.41Z"/>
      <path class="cls-2" d="M23.68,26.43h0,0ZM23.94,26.63l.86.5c.1.06.3.06.4,0l.86-.5-.86-.5c-.1-.06-.3-.06-.4,0l-.86.5h0ZM25,27.79c-.18,0-.36-.04-.51-.13l-.97-.56c-.19-.11-.3-.28-.3-.47s.11-.36.3-.47l.97-.56c.29-.17.73-.17,1.01,0l.97.56c.19.11.3.28.3.47,0,.19-.11.36-.3.47l-.96.56c-.14.08-.33.13-.51.13Z"/>
      <path class="cls-1" d="M26.06,27.8l.97-.56c.19-.11.51-.11.71,0l.96.56c.2.11.2.29,0,.41l-.97.56c-.19.11-.51.11-.71,0l-.97-.56c-.19-.11-.19-.3,0-.41Z"/>
      <path class="cls-2" d="M26.06,27.8h0,0ZM26.32,28.01l.86.5c.1.06.3.06.4,0l.86-.5-.86-.5c-.1-.06-.3-.06-.4,0l-.86.5h0ZM27.38,29.16c-.18,0-.36-.04-.51-.12l-.97-.56c-.19-.11-.3-.28-.3-.47s.11-.36.3-.47l.97-.56c.29-.17.73-.17,1.02,0l.96.56c.19.11.3.28.3.47,0,.19-.11.36-.3.47l-.97.56c-.14.08-.32.13-.51.13Z"/>
      <path class="cls-1" d="M20.59,27.39l.97-.56c.19-.11.19-.3,0-.41l-.97-.56c-.19-.11-.51-.11-.7,0l-.97.56c-.19.11-.2.3,0,.41l.97.56c.19.11.51.11.7,0Z"/>
      <path class="cls-2" d="M19.18,26.63l.86.5c.1.06.3.06.4,0l.86-.5-.86-.5c-.1-.06-.3-.06-.4,0l-.86.5h0ZM20.59,27.39h0,0ZM20.23,27.79c-.18,0-.36-.04-.51-.13l-.97-.56c-.19-.11-.3-.28-.3-.47s.11-.36.3-.47l.97-.56c.29-.16.73-.17,1.01,0l.97.56c.19.11.3.28.3.47s-.11.36-.3.47l-.97.56h0c-.14.08-.33.13-.51.13Z"/>
      <path class="cls-1" d="M22.97,26.02l.97-.56c.19-.11.19-.3,0-.41l-.97-.56c-.19-.11-.51-.11-.71,0l-.97.56c-.19.11-.19.3,0,.41l.97.56c.19.11.51.11.7,0Z"/>
      <path class="cls-2" d="M21.56,25.25l.86.5c.1.06.3.06.4,0h0l.86-.5-.86-.5c-.1-.06-.3-.06-.4,0l-.86.5h0ZM22.62,26.41c-.18,0-.36-.04-.51-.13l-.97-.56c-.19-.11-.3-.28-.3-.47s.11-.36.3-.47l.97-.56c.29-.17.73-.17,1.01,0l.97.56c.19.11.3.28.3.47s-.11.36-.3.47l-.97.56c-.14.09-.32.13-.51.13Z"/>
      <path class="cls-1" d="M21.3,27.8l.97-.56c.19-.11.51-.11.7,0l.97.56c.19.11.19.3,0,.41l-.97.56c-.2.11-.51.11-.71,0l-.97-.56c-.19-.11-.19-.3,0-.41Z"/>
      <path class="cls-2" d="M21.56,28.01l.86.5c.1.06.3.06.4,0l.86-.5-.86-.5c-.1-.06-.3-.06-.4,0l-.86.5h0ZM22.61,29.16c-.18,0-.36-.04-.51-.13l-.97-.56c-.19-.11-.3-.28-.3-.47s.11-.36.3-.47h0l.97-.56c.29-.17.72-.17,1.01,0l.97.56c.19.11.3.28.3.47,0,.19-.11.36-.3.47l-.97.56c-.14.08-.33.13-.51.13Z"/>
      <path class="cls-1" d="M23.68,29.18l.97-.56c.19-.11.51-.11.71,0l.97.56c.19.11.19.3,0,.41l-.96.56c-.2.11-.51.11-.71,0l-.96-.56c-.19-.11-.19-.29,0-.41Z"/>
      <path class="cls-2" d="M23.94,29.38l.86.5c.1.06.3.06.4,0l.86-.5-.86-.5c-.1-.06-.3-.06-.4,0l-.86.5h0ZM24.99,30.54c-.18,0-.36-.04-.51-.13l-.97-.56c-.19-.11-.3-.28-.3-.47s.11-.36.3-.47h0l.97-.56c.29-.17.72-.17,1.01,0l.97.56c.19.11.3.28.3.47s-.11.36-.3.47l-.96.56c-.15.09-.33.13-.51.13Z"/>
      <path class="cls-4" d="M17.05,44.12v-1.17h-.02c-.61,0-1.18-.08-1.71-.38l-13.29-7.68c-.31-.19-.53-.39-.64-.74v1.17c.1.35.33.55.64.74l13.29,7.68c.54.3,1.11.39,1.71.38h.02Z"/>
      <path class="cls-2" d="M1.7,35.27c.07.21.21.35.49.52l13.28,7.68c.36.2.77.31,1.27.34v-.56c-.61-.03-1.11-.16-1.57-.41l-13.29-7.69c-.06-.04-.12-.07-.17-.12v.23h0ZM17.05,44.12h0,0ZM16.97,44.43c-.71,0-1.28-.13-1.8-.42l-13.29-7.69c-.31-.19-.64-.44-.78-.92-.01-.03-.01-.06-.01-.09v-1.17c0-.15.11-.28.27-.3.15-.02.3.07.34.22.07.23.2.38.5.56l13.28,7.68c.43.24.92.35,1.56.34.07,0,.17.03.23.09.06.06.1.14.1.22v1.17c0,.17-.13.3-.29.31h-.1Z"/>
      <path class="cls-2" d="M11.39,19.11c-.11,0-.21-.06-.27-.16-.09-.15-.04-.33.11-.42l5.79-3.35c.15-.09.34-.04.42.11.09.15.04.34-.11.42l-5.79,3.35s-.1.04-.15.04Z"/>
      <path class="cls-2" d="M11.39,16.86c-.11,0-.21-.06-.27-.16-.09-.15-.04-.33.11-.42l5.79-3.35c.15-.09.34-.04.42.11.09.15.04.33-.11.42l-5.79,3.35s-.1.04-.15.04Z"/>
      <path class="cls-2" d="M11.39,21.51c-.11,0-.21-.06-.27-.16-.09-.15-.04-.33.11-.42l4.68-2.71c.14-.09.33-.04.42.11.08.15.04.33-.11.42l-4.68,2.7s-.1.04-.15.04Z"/>
    </g>
  </g>
</svg>