<?xml version="1.0" encoding="UTF-8"?>
<svg id="Layer_2" data-name="Layer 2" xmlns="http://www.w3.org/2000/svg" viewBox="0 0 43.59 37.85" fill="currentColor">
  <defs>
    <style>
      .cls-1 {
        fill: #fff;
      }

      .cls-1, .cls-2, .cls-3, .cls-4 {
        fill-rule: evenodd;
      }

      .cls-2 {
        fill: #1a87c7;
      }

      .cls-3 {
        fill: #bdedf8;
      }

      .cls-4 {
        fill: #66ceef;
      }
    </style>
  </defs>
  <g id="_Layer_" data-name="&amp;lt;Layer&amp;gt;">
    <g>
      <path class="cls-3" d="M26.85,2.11l2.64-1.53.32-.1c.81-.24,1.71-.21,2.53-.03,1.85.4,3.65,1.62,5.01,2.89,3.08,2.88,5.53,7.47,5.87,11.7.12,1.45,0,3.09-.62,4.42-.24.52-.6,1.04-1.01,1.44l-.25.22-2.64,1.52c.18-.15.32-.29.49-.46.48-.55.84-1.25,1.06-1.94.63-1.96.39-4.35-.13-6.32-1.08-4.05-3.92-8.42-7.48-10.69-1.2-.75-2.65-1.38-4.09-1.41-.44,0-.97.04-1.39.17l-.32.1Z"/>
      <path class="cls-2" d="M28.47,1.52h.1c1.66.03,3.23.81,4.24,1.46,3.44,2.19,6.43,6.46,7.61,10.87.37,1.4.89,4.1.13,6.49-.14.42-.31.83-.52,1.19l1.16-.68.2-.18c.36-.35.7-.83.94-1.35.66-1.43.69-3.11.59-4.27-.34-4.02-2.61-8.52-5.78-11.5-.91-.85-2.76-2.36-4.87-2.82-.6-.13-1.49-.23-2.39.03l-.3.1-1.11.64h0ZM38.71,22.96c-.09,0-.19-.04-.25-.13-.09-.13-.07-.3.04-.41.19-.17.32-.28.46-.44.43-.47.77-1.12,1-1.83.71-2.23.23-4.81-.13-6.14-1.15-4.28-4.04-8.4-7.35-10.52-.96-.61-2.41-1.33-3.93-1.36-.44,0-.91.05-1.29.16l-.31.09c-.15.05-.31-.02-.37-.17-.06-.14,0-.31.13-.39l2.63-1.52.38-.13c1.02-.3,2.03-.19,2.69-.04,2.25.49,4.2,2.07,5.16,2.97,3.28,3.07,5.63,7.73,5.98,11.89.09,1.23.07,3.03-.65,4.58-.27.58-.65,1.13-1.08,1.54l-.26.23-2.69,1.56c-.05.03-.1.04-.16.04Z"/>
      <path class="cls-4" d="M32.21,22.44c-4.65-2.69-8.42-9.21-8.42-14.6s3.77-7.55,8.42-4.87c4.65,2.69,8.42,9.22,8.42,14.59s-3.77,7.55-8.42,4.87Z"/>
      <path class="cls-2" d="M32.37,22.17c2.15,1.24,4.15,1.45,5.65.59,1.48-.86,2.31-2.7,2.31-5.19,0-5.27-3.71-11.69-8.28-14.32-2.15-1.24-4.15-1.45-5.65-.59-1.49.86-2.31,2.7-2.31,5.19,0,5.27,3.71,11.69,8.28,14.33h0ZM35.97,23.9c-1.21,0-2.54-.4-3.92-1.2h0c-4.73-2.73-8.58-9.4-8.58-14.86,0-2.71.93-4.75,2.63-5.72,1.68-.98,3.92-.78,6.27.58,4.73,2.74,8.58,9.4,8.58,14.86,0,2.72-.93,4.75-2.63,5.73-.69.4-1.49.6-2.35.6Z"/>
      <path class="cls-3" d="M22.9,4.4l2.63-1.53.32-.11c.82-.24,1.71-.21,2.54-.03,1.84.4,3.65,1.62,5.01,2.88,3.08,2.89,5.53,7.47,5.88,11.7.12,1.45,0,3.09-.63,4.42-.23.52-.59,1.05-1.01,1.44l-.25.23-2.63,1.53c.17-.16.32-.3.48-.47.49-.55.84-1.25,1.06-1.94.64-1.97.4-4.35-.13-6.32-1.09-4.05-3.91-8.42-7.48-10.69-1.19-.76-2.65-1.38-4.09-1.41-.44,0-.96.05-1.39.18l-.31.11Z"/>
      <path class="cls-2" d="M24.52,3.8h.09c1.66.03,3.22.82,4.24,1.46,3.44,2.19,6.43,6.46,7.61,10.88.37,1.4.9,4.1.13,6.49-.13.42-.31.83-.52,1.19l1.16-.68.2-.18c.36-.34.7-.84.94-1.35.67-1.42.69-3.11.59-4.27-.33-4.01-2.6-8.52-5.78-11.5-.91-.85-2.76-2.36-4.87-2.82-.59-.13-1.49-.23-2.38.03l-.31.11-1.11.64h0ZM34.76,25.25c-.1,0-.19-.04-.25-.13-.1-.12-.08-.31.04-.41.19-.17.32-.29.46-.44.42-.48.77-1.12,1-1.82.71-2.24.22-4.81-.14-6.14-1.15-4.28-4.03-8.41-7.35-10.52-.95-.6-2.41-1.33-3.93-1.36-.43,0-.91.05-1.29.17l-.3.09c-.15.05-.31-.02-.38-.17-.06-.15,0-.31.13-.39l2.64-1.52.37-.13c1.03-.29,2.03-.19,2.69-.04,2.25.49,4.2,2.07,5.16,2.97,3.29,3.07,5.63,7.74,5.98,11.89.11,1.23.07,3.02-.65,4.58-.27.58-.65,1.13-1.07,1.54l-.26.24-2.7,1.56s-.1.04-.15.04Z"/>
      <path class="cls-4" d="M28.25,24.73c-4.65-2.69-8.42-9.21-8.42-14.59s3.77-7.55,8.42-4.87c4.66,2.68,8.43,9.22,8.43,14.59s-3.77,7.55-8.43,4.87Z"/>
      <path class="cls-2" d="M28.4,24.45c2.16,1.24,4.16,1.45,5.65.59,1.5-.86,2.31-2.7,2.31-5.19,0-5.27-3.71-11.69-8.27-14.32-2.16-1.24-4.16-1.45-5.65-.59-1.49.86-2.32,2.7-2.32,5.19,0,5.27,3.71,11.69,8.28,14.32h0ZM32.02,26.18c-1.21,0-2.55-.4-3.92-1.2h0c-4.74-2.73-8.58-9.39-8.58-14.86,0-2.71.93-4.74,2.62-5.72,1.7-.98,3.92-.77,6.27.58,4.73,2.73,8.58,9.4,8.58,14.86,0,2.72-.93,4.75-2.61,5.73-.7.4-1.5.6-2.35.6Z"/>
      <path class="cls-1" d="M15.18,16.81c3.18-1.84,6.37-3.68,9.55-5.52,1.08-.36,2.11.21,2.96.86,1.06.89,1.77,1.94,2.31,3.21.52,1.36.94,3.43-.3,4.54-3.19,1.84-6.37,3.68-9.55,5.51.59-.52.75-1.16.8-1.92.02-1.27-.32-2.36-.91-3.48-.63-1.12-1.35-2.02-2.43-2.74-.75-.46-1.55-.76-2.42-.47Z"/>
      <path class="cls-2" d="M16.42,16.44c.51.1.96.34,1.35.57,1.04.7,1.83,1.57,2.54,2.85.69,1.3.98,2.42.96,3.63-.03.34-.07.69-.17,1.02l8.46-4.89c1.22-1.09.43-3.46.16-4.16-.54-1.29-1.25-2.27-2.22-3.09-1.02-.8-1.88-1.06-2.66-.8l-8.4,4.86h0ZM20.15,25.73c-.1,0-.19-.04-.25-.13-.09-.12-.07-.3.05-.41.52-.46.65-1.02.7-1.71.03-1.09-.25-2.11-.88-3.32-.66-1.17-1.38-1.98-2.33-2.61-.86-.52-1.51-.66-2.16-.45-.15.05-.31-.02-.37-.16-.07-.14-.02-.31.12-.39l9.55-5.51c1.04-.36,2.1-.06,3.3.88,1.06.89,1.82,1.95,2.4,3.34.4,1.02,1.16,3.54-.37,4.89l-9.59,5.55c-.05.03-.11.04-.16.04Z"/>
      <path class="cls-3" d="M7.34,13.77l2.63-1.52.32-.1c.82-.23,1.71-.22,2.54-.03,1.84.4,3.64,1.62,5.01,2.89,3.08,2.88,5.53,7.46,5.87,11.69.12,1.45.01,3.09-.62,4.42-.24.52-.6,1.05-1.01,1.45l-.25.21-2.64,1.53c.18-.15.33-.28.49-.47.48-.55.84-1.24,1.06-1.94.63-1.96.39-4.35-.13-6.31-1.09-4.05-3.91-8.42-7.48-10.69-1.19-.77-2.65-1.38-4.08-1.42-.45-.01-.97.05-1.39.17l-.31.1Z"/>
      <path class="cls-2" d="M8.95,13.18h.1c1.66.03,3.23.81,4.24,1.46,3.44,2.18,6.43,6.45,7.61,10.87.37,1.4.9,4.1.13,6.49-.14.42-.31.82-.52,1.19l1.16-.67.2-.19c.36-.34.7-.84.94-1.35.67-1.43.69-3.11.59-4.27-.33-4.01-2.6-8.52-5.78-11.49-.91-.86-2.76-2.36-4.86-2.82-.59-.13-1.49-.23-2.38.03l-.31.1-1.11.65h0ZM19.19,34.62c-.09,0-.19-.04-.24-.12-.09-.13-.08-.31.04-.42.17-.16.31-.28.46-.44.42-.47.77-1.12.99-1.82.72-2.24.23-4.81-.13-6.14-1.15-4.28-4.03-8.4-7.35-10.51-.95-.61-2.41-1.34-3.93-1.37-.42-.02-.91.05-1.29.16l-.3.1c-.16.04-.31-.03-.38-.17-.06-.15-.01-.32.13-.4l2.64-1.52.37-.13c1.03-.3,2.03-.18,2.69-.05,2.25.5,4.2,2.08,5.15,2.97,3.29,3.07,5.63,7.74,5.98,11.89.1,1.23.07,3.03-.65,4.58-.27.59-.65,1.14-1.08,1.54l-.25.24-2.7,1.56c-.05.03-.1.04-.16.04Z"/>
      <path class="cls-4" d="M12.69,34.1c-4.65-2.69-8.42-9.21-8.42-14.6s3.77-7.55,8.42-4.87c4.65,2.69,8.43,9.23,8.43,14.6s-3.78,7.55-8.43,4.86Z"/>
      <path class="cls-2" d="M12.85,33.83c2.15,1.23,4.15,1.45,5.65.58,1.49-.86,2.31-2.7,2.31-5.18,0-5.27-3.71-11.7-8.27-14.33-2.15-1.24-4.15-1.45-5.64-.59-1.5.86-2.32,2.7-2.32,5.19,0,5.27,3.71,11.7,8.27,14.33h0ZM16.45,35.56c-1.21,0-2.54-.4-3.92-1.19h0c-4.73-2.73-8.58-9.4-8.58-14.86,0-2.71.94-4.74,2.63-5.72,1.69-.97,3.92-.76,6.26.59,4.73,2.73,8.58,9.4,8.58,14.86,0,2.71-.93,4.74-2.62,5.72-.7.4-1.49.6-2.36.6Z"/>
      <path class="cls-3" d="M3.37,16.05l2.64-1.52.31-.11c.82-.24,1.72-.22,2.54-.03,1.85.4,3.65,1.62,5.01,2.89,3.07,2.88,5.52,7.46,5.88,11.69.12,1.45,0,3.09-.62,4.42-.24.52-.6,1.05-1.02,1.45l-.25.23-2.63,1.52c.17-.16.32-.29.49-.47.48-.55.83-1.24,1.06-1.94.63-1.97.39-4.35-.14-6.31-1.08-4.05-3.91-8.42-7.48-10.69-1.19-.76-2.65-1.38-4.08-1.42-.44,0-.96.05-1.38.18l-.32.1Z"/>
      <path class="cls-2" d="M5,15.47h.09c1.66.03,3.23.81,4.25,1.46,3.44,2.19,6.43,6.46,7.61,10.88.37,1.4.89,4.1.12,6.48-.13.42-.3.82-.52,1.19l1.17-.67.2-.19c.35-.34.7-.83.94-1.35.66-1.43.69-3.11.58-4.27-.33-4.01-2.6-8.52-5.78-11.49-.91-.86-2.75-2.36-4.86-2.81-.6-.13-1.5-.24-2.39.03l-.31.09-1.11.65h0ZM15.24,36.9c-.09,0-.19-.04-.25-.12-.1-.13-.07-.31.04-.42.18-.16.31-.28.46-.44.42-.47.77-1.11,1-1.82.71-2.24.21-4.82-.14-6.15-1.15-4.28-4.03-8.41-7.35-10.51-.95-.61-2.41-1.34-3.92-1.36-.42-.02-.92.05-1.3.15l-.3.1c-.15.04-.31-.03-.38-.16-.07-.15,0-.32.12-.4l2.64-1.52.37-.13c1.03-.3,2.03-.18,2.7-.05,2.25.5,4.19,2.08,5.15,2.97,3.29,3.07,5.62,7.74,5.97,11.89.1,1.24.08,3.03-.64,4.58-.28.59-.66,1.14-1.08,1.54l-.26.23-2.7,1.56s-.09.04-.15.04Z"/>
      <path class="cls-4" d="M8.73,36.38C4.08,33.7.3,27.17.3,21.79s3.77-7.55,8.43-4.87c4.65,2.7,8.42,9.23,8.42,14.6s-3.77,7.54-8.42,4.86Z"/>
      <path class="cls-2" d="M4.97,16.08c-.75,0-1.43.18-2.04.52-1.49.86-2.31,2.7-2.31,5.19,0,5.27,3.71,11.7,8.27,14.33,2.16,1.24,4.16,1.45,5.66.59,1.49-.87,2.31-2.7,2.31-5.19,0-5.27-3.71-11.7-8.28-14.33-1.28-.74-2.51-1.11-3.6-1.11h0ZM12.5,37.85c-1.21,0-2.55-.41-3.92-1.2C3.85,33.92,0,27.26,0,21.79c0-2.71.93-4.75,2.63-5.72,1.69-.97,3.91-.76,6.26.59,4.74,2.73,8.59,9.4,8.59,14.87,0,2.71-.93,4.75-2.63,5.72-.7.4-1.49.61-2.35.61Z"/>
      <path class="cls-1" d="M2.42,24.56l2.79-1.61.13-.04c.24-.07.51-.09.74-.07.9.08,1.79.67,2.43,1.27,1.29,1.2,2.32,3.13,2.47,4.89.05.61,0,1.31-.26,1.86-.1.22-.25.44-.42.61l-.11.09-2.79,1.61c.07-.07.13-.12.2-.2.2-.23.36-.52.44-.81.16-.48.18-1.04.14-1.55-.16-2.07-1.57-4.47-3.33-5.58-.46-.3-1.01-.54-1.56-.59-.19-.02-.41,0-.6.03-.1.03-.17.05-.27.08Z"/>
      <path class="cls-2" d="M2.32,24.26l.1.3-.1-.3h0ZM3.65,24.2c.54.12,1.02.37,1.35.58,1.83,1.16,3.3,3.61,3.48,5.81.03.43.03,1.07-.16,1.67t0,.02l1.77-1.04c.12-.12.25-.31.35-.5.2-.45.29-1.04.23-1.71-.13-1.61-1.08-3.5-2.36-4.7-.74-.69-1.56-1.11-2.24-1.17-.21-.02-.44,0-.62.05l-.12.03-1.65.96h0ZM7.39,33.48c-.09,0-.19-.04-.25-.12-.1-.13-.07-.31.04-.42.07-.06.12-.11.18-.17.17-.18.3-.42.39-.71.12-.39.17-.89.12-1.42-.17-2-1.54-4.29-3.19-5.35-.34-.22-.87-.49-1.42-.54-.17-.02-.36,0-.51.03-.08.02-.14.04-.22.06-.15.05-.32-.02-.38-.16-.07-.15-.03-.32.11-.39l2.98-1.68c.27-.08.57-.1.86-.08,1.13.1,2.12.89,2.61,1.35,1.41,1.31,2.42,3.31,2.57,5.1.04.53.03,1.32-.29,2.01-.12.26-.3.51-.49.69l-.11.1-2.85,1.65s-.09.03-.15.03Z"/>
      <path class="cls-3" d="M4.66,33.09c-1.95-1.13-3.53-3.87-3.53-6.12s1.58-3.16,3.53-2.04c1.95,1.13,3.54,3.87,3.54,6.12s-1.59,3.17-3.54,2.04Z"/>
      <path class="cls-2" d="M4.82,32.82c.84.49,1.62.57,2.19.24.57-.32.88-1.04.88-2.02,0-2.15-1.51-4.77-3.38-5.85-.84-.49-1.62-.57-2.18-.25-.57.33-.89,1.05-.89,2.03,0,2.15,1.52,4.77,3.38,5.85h0ZM6.24,33.88c-.54,0-1.13-.17-1.74-.53h0c-2.03-1.17-3.69-4.03-3.69-6.38,0-1.21.43-2.11,1.19-2.55.76-.45,1.76-.36,2.81.24,2.03,1.17,3.69,4.04,3.69,6.39,0,1.21-.43,2.11-1.19,2.55-.32.18-.68.28-1.07.28Z"/>
    </g>
  </g>
</svg>