<?xml version="1.0" encoding="UTF-8"?>
<svg id="Layer_2" data-name="Layer 2" xmlns="http://www.w3.org/2000/svg" viewBox="0 0 39.98 41.3" fill="currentColor">
  <defs>
    <style>
      .cls-1 {
        fill: #fff;
      }

      .cls-1, .cls-2, .cls-3, .cls-4 {
        fill-rule: evenodd;
      }

      .cls-2 {
        fill: #1a87c7;
      }

      .cls-3 {
        fill: #bdedf8;
      }

      .cls-4 {
        fill: #66ceef;
      }
    </style>
  </defs>
  <g id="_Layer_" data-name="&amp;lt;Layer&amp;gt;">
    <g>
      <path class="cls-1" d="M2.53,30.57l21.9-12.65c1.08-.62,2.82-.62,3.9,0l10.54,6.08c1.08.62,1.08,1.63,0,2.26l-21.91,12.64c-1.08.62-2.83.62-3.9,0l-10.54-6.08c-1.08-.62-1.08-1.64,0-2.26Z"/>
      <path class="cls-2" d="M2.68,30.84c-.42.24-.65.55-.65.86s.23.62.66.86l10.52,6.08c.97.56,2.63.56,3.6,0l21.9-12.65c.42-.24.65-.55.65-.86s-.23-.62-.65-.86l-10.53-6.08c-.97-.56-2.62-.56-3.6,0L2.68,30.84h0ZM15.01,39.67c-.76,0-1.52-.17-2.1-.5l-10.53-6.08c-.62-.36-.96-.85-.96-1.39s.34-1.03.96-1.39h0l21.9-12.64c1.17-.67,3.05-.67,4.22,0l10.53,6.08c.62.36.96.85.96,1.39s-.34,1.04-.96,1.39l-21.9,12.64c-.58.33-1.35.5-2.11.5Z"/>
      <path class="cls-3" d="M28.23,30.35c.51-1.45-.51-3.23-2.87-4.6-2.37-1.37-5.47-1.96-7.98-1.66l-.38-.22c2.98-1.72,5.97-3.45,8.95-5.17.36-.21.98-.2,1.37.03,3.4,1.96,6.8,3.92,10.19,5.89.39.23.42.58.06.79-2.99,1.72-5.98,3.45-8.96,5.17l-.39-.23Z"/>
      <path class="cls-2" d="M28.59,30.21h.03s8.81-5.07,8.81-5.07c.08-.04.09-.09.09-.1,0-.02-.03-.09-.15-.16l-10.2-5.89c-.3-.17-.79-.19-1.06-.03l-8.27,4.78c2.56-.19,5.46.46,7.67,1.75,2.32,1.34,3.49,3.13,3.09,4.72h0ZM28.62,30.88c-.05,0-.11-.01-.16-.04l-.38-.23c-.13-.07-.19-.23-.14-.37.47-1.34-.6-3-2.74-4.23-2.25-1.3-5.23-1.92-7.79-1.62-.06,0-.13,0-.19-.04l-.38-.23c-.1-.05-.16-.15-.16-.26s.06-.21.16-.27l8.96-5.17c.45-.26,1.19-.25,1.68.03l10.2,5.88c.3.17.46.42.46.69,0,.25-.15.48-.41.63l-8.95,5.17c-.05.03-.1.04-.16.04Z"/>
      <path class="cls-3" d="M24.06,32.77c-2.51.3-5.6-.29-7.98-1.66-2.37-1.37-3.38-3.15-2.87-4.6l-.39-.23c-2.98,1.72-5.97,3.45-8.96,5.17-.36.21-.33.57.06.79,3.4,1.96,6.8,3.92,10.19,5.89.39.22,1.01.24,1.37.03,2.98-1.72,5.97-3.45,8.96-5.17l-.39-.22Z"/>
      <path class="cls-2" d="M12.82,26.63l-8.81,5.08c-.08.04-.09.09-.09.1,0,.02.03.09.16.16l10.19,5.89c.3.17.79.19,1.06.03l8.27-4.78c-2.57.19-5.46-.46-7.67-1.75-2.32-1.34-3.49-3.13-3.09-4.72h-.03ZM14.85,38.62c-.31,0-.63-.07-.9-.22l-10.19-5.89c-.3-.17-.46-.42-.46-.69,0-.25.15-.48.41-.63l8.95-5.17c.1-.06.22-.06.31,0l.38.22c.13.07.19.23.14.37-.47,1.34.6,3,2.74,4.23,2.25,1.3,5.24,1.92,7.79,1.62.06,0,.13,0,.18.04l.39.23c.1.05.16.15.16.26s-.06.21-.16.27l-8.96,5.17c-.22.13-.5.19-.78.19Z"/>
      <path class="cls-1" d="M31.2,23.58c.61-.35.62-.91.03-1.25-.59-.34-1.57-.33-2.17.01-.6.35-.61.91-.02,1.25.59.34,1.57.34,2.16-.02Z"/>
      <path class="cls-2" d="M30.17,22.38c-.35,0-.69.07-.95.22-.19.11-.3.25-.3.37s.1.24.29.35c.5.29,1.35.28,1.86-.01.19-.11.3-.25.3-.37,0-.12-.1-.24-.28-.35-.24-.14-.57-.21-.91-.21h0ZM31.2,23.58h.01-.01ZM30.1,24.16c-.43,0-.88-.1-1.22-.29-.38-.22-.59-.53-.59-.88s.22-.68.62-.9c.69-.4,1.78-.41,2.48-.01.37.22.59.53.59.88s-.23.68-.62.9h0c-.36.21-.81.31-1.26.31Z"/>
      <path class="cls-1" d="M12.32,34.48c-.6.35-1.57.35-2.16.01-.59-.34-.58-.9.02-1.25.61-.35,1.58-.35,2.18-.01.59.34.58.9-.03,1.25Z"/>
      <path class="cls-2" d="M11.29,33.28c-.35,0-.69.08-.96.23-.19.11-.3.25-.3.37,0,.12.1.24.28.35.51.29,1.36.28,1.86-.01h0c.2-.11.31-.25.31-.37,0-.12-.11-.24-.29-.35-.24-.14-.57-.21-.9-.21h0ZM12.32,34.48h0,0ZM11.22,35.05c-.44,0-.88-.1-1.22-.29-.38-.22-.59-.53-.59-.88s.22-.68.62-.91c.7-.4,1.78-.41,2.48-.01.37.22.59.53.59.88s-.22.68-.61.91h0c-.36.2-.81.31-1.26.31Z"/>
      <path class="cls-3" d="M39.68,25.13l-.02,1.78c-.07.44-.43.75-.79.97l-21.91,12.65c-1.1.62-2.8.62-3.9,0l-10.73-6.2c-.34-.25-.6-.57-.62-1.01v-1.62c.04.55.35.85.81,1.13l10.54,6.08c1.1.62,2.8.62,3.9,0l21.91-12.64c.46-.28.75-.58.81-1.13Z"/>
      <path class="cls-2" d="M2.03,32.85v.47c0,.28.17.53.49.76l10.7,6.19c1,.57,2.59.57,3.6,0l21.9-12.65c.38-.23.6-.49.64-.76v-.57c-.11.08-.22.16-.33.23l-21.9,12.65c-1.21.68-3.02.68-4.22,0l-10.53-6.08c-.11-.07-.23-.15-.34-.24h0ZM15.01,41.3c-.75,0-1.5-.17-2.1-.51l-10.72-6.2c-.51-.35-.76-.77-.78-1.26v-1.64c0-.17.13-.3.3-.31.15-.01.3.12.31.28.03.38.21.61.66.89l10.52,6.08c1.01.57,2.59.57,3.61,0l21.9-12.64c.45-.27.62-.51.65-.89.02-.16.17-.28.32-.28.17,0,.3.14.3.31v1.78c-.09.5-.4.9-.95,1.24l-21.91,12.65c-.6.34-1.35.51-2.11.51Z"/>
      <path class="cls-4" d="M15.1,41c-.73.01-1.46-.14-2.03-.47l-10.73-6.2c-.34-.25-.6-.57-.62-1.01v-1.62c.04.55.35.85.81,1.13l10.54,6.08c.58.33,1.33.48,2.07.47v1.62h-.03Z"/>
      <path class="cls-2" d="M2.03,32.85v.47c0,.28.17.53.49.76l10.7,6.19c.45.25,1.01.4,1.61.42v-1.01c-.71-.03-1.38-.2-1.92-.5l-10.53-6.08c-.11-.07-.23-.15-.34-.24h0ZM15.1,41h0,0ZM15.01,41.3c-.77,0-1.51-.18-2.1-.51l-10.72-6.2c-.51-.35-.76-.77-.78-1.26v-1.64c0-.17.13-.3.3-.31.15,0,.3.12.31.28.03.38.21.62.66.89l10.52,6.08c.52.29,1.2.44,1.92.42.09-.02.16.03.22.09.06.06.1.14.1.22v1.62c0,.16-.13.3-.29.31,0,0-.05,0-.06,0h-.09Z"/>
      <path class="cls-2" d="M14.57,37.43c-.11,0-.21-.06-.27-.16-.09-.15-.03-.33.11-.42l2.65-1.53c.15-.08.34-.03.42.11.08.15.04.34-.11.42l-2.65,1.53c-.05.03-.11.04-.16.04Z"/>
      <path class="cls-2" d="M5.6,32.26c-.1,0-.21-.06-.26-.15-.09-.15-.03-.34.11-.42l2.65-1.53c.14-.09.33-.04.42.11.09.15.03.34-.11.42l-2.65,1.53c-.05.03-.11.04-.16.04Z"/>
      <path class="cls-2" d="M24.18,21.54c-.1,0-.21-.06-.27-.16-.09-.15-.03-.33.11-.42l2.65-1.53c.15-.08.34-.03.42.11.08.15.04.34-.11.42l-2.66,1.53s-.09.04-.15.04Z"/>
      <path class="cls-2" d="M33.13,26.71c-.1,0-.21-.06-.26-.16-.09-.15-.04-.34.11-.42l2.65-1.53c.14-.08.33-.03.42.11.09.15.03.34-.11.42l-2.65,1.53c-.05.03-.11.04-.16.04Z"/>
      <path class="cls-2" d="M21.48,31.53c-.1,0-.21-.06-.27-.16-.08-.15-.04-.33.11-.42,1.3-.76,2.42-1.39,3.66-2.05.09-.05.11-.08.12-.1,0,0-.03-.04-.12-.09l-1.75-1.02c-.16-.09-.67-.16-.94,0-.52.3-1.08.61-1.62.9-.5.27-.97.53-1.4.78-.47.27-1.09.27-1.56,0l-1.62-.94c-.28-.17-.45-.41-.44-.66,0-.15.08-.42.47-.61,1.01-.49,2.11-1.08,3.37-1.82.15-.08.34-.03.43.11.09.15.03.34-.12.42-1.28.74-2.4,1.34-3.41,1.84-.11.05-.12.09-.12.09h0s.04.04.13.1l1.62.94c.29.16.66.17.95,0,.42-.25.91-.51,1.41-.79.54-.29,1.1-.59,1.61-.9.49-.28,1.24-.19,1.56,0l1.75,1.02c.38.23.43.5.43.64,0,.14-.06.41-.45.62-1.23.66-2.35,1.29-3.64,2.04-.05.03-.1.04-.16.04Z"/>
      <path class="cls-2" d="M24.87,31.16c-.05,0-.1-.01-.16-.04-.96-.56-1.9-1.12-2.85-1.68-1.82-1.08-3.7-2.2-5.61-3.26-.15-.08-.2-.27-.12-.42.09-.15.28-.2.43-.12,1.9,1.06,3.79,2.19,5.62,3.27.94.56,1.89,1.12,2.84,1.68.15.09.2.27.11.42-.06.1-.17.15-.27.15Z"/>
      <path class="cls-1" d="M1.11,13.32L22.86.77c1.07-.61,2.81-.61,3.88,0l10.46,6.04c1.07.62,1.07,1.62,0,2.24l-21.75,12.55c-1.07.61-2.81.61-3.88,0L1.11,15.56c-1.06-.62-1.06-1.62,0-2.24Z"/>
      <path class="cls-2" d="M1.27,13.59c-.42.24-.64.54-.64.85s.23.61.64.85l10.46,6.04c.96.56,2.6.56,3.57,0l21.74-12.55c.42-.24.64-.55.64-.85s-.23-.61-.64-.85L26.58,1.03c-.97-.56-2.6-.56-3.57,0L1.27,13.59h0ZM13.51,22.36c-.76,0-1.51-.17-2.09-.5L.96,15.82C.35,15.47,0,14.98,0,14.44s.34-1.03.96-1.39h0L22.7.5c1.15-.67,3.03-.67,4.19,0l10.45,6.04c.62.35.95.85.95,1.39s-.34,1.03-.95,1.39l-21.74,12.55c-.57.33-1.34.5-2.09.5Z"/>
      <path class="cls-3" d="M13.7,10.42c-.1.95.57,1.99,1.97,2.8,1.4.81,3.21,1.19,4.85,1.14h0l-6.81-3.93h0Z"/>
      <path class="cls-2" d="M14.04,10.98c.17.7.8,1.41,1.78,1.98.98.57,2.22.94,3.47,1.06l-5.26-3.03h0ZM20.17,14.67c-1.67,0-3.35-.42-4.66-1.18-1.47-.85-2.25-1.98-2.13-3.1.02-.11.08-.2.17-.24.09-.05.2-.04.29,0l6.81,3.93c.12.07.18.21.15.34-.03.13-.15.23-.29.23-.11,0-.23,0-.35,0Z"/>
      <path class="cls-3" d="M26.63,13.1c.51-1.44-.5-3.21-2.85-4.57-2.36-1.36-5.42-1.94-7.92-1.65l-.38-.22c2.96-1.71,5.93-3.42,8.89-5.13.36-.21.97-.19,1.37.03,3.37,1.95,6.74,3.9,10.12,5.84.39.23.42.58.06.79-2.97,1.71-5.93,3.42-8.9,5.13l-.39-.22Z"/>
      <path class="cls-2" d="M27,12.96h.02s8.74-5.03,8.74-5.03c.07-.04.09-.08.09-.09,0-.02-.03-.09-.15-.16L25.58,1.83c-.3-.17-.78-.19-1.05-.03l-8.21,4.74c2.54-.18,5.41.47,7.61,1.73,2.31,1.33,3.46,3.11,3.07,4.69h0ZM27.01,13.63c-.05,0-.11-.01-.15-.04l-.39-.22c-.12-.08-.18-.23-.13-.37.47-1.33-.6-2.98-2.72-4.2-2.23-1.29-5.19-1.91-7.73-1.61-.06,0-.13,0-.18-.04l-.39-.22c-.09-.06-.15-.16-.15-.27s.05-.21.15-.26L24.22,1.27c.45-.26,1.18-.25,1.66.03l10.13,5.85c.3.17.46.42.46.69,0,.25-.15.48-.41.63l-8.89,5.13s-.09.04-.15.04Z"/>
      <path class="cls-3" d="M17.84,8.03c1.63-.06,3.44.33,4.84,1.14,1.4.81,2.08,1.85,1.97,2.8h0l-6.81-3.93h0Z"/>
      <path class="cls-2" d="M19.06,8.38l5.25,3.03c-.16-.7-.8-1.41-1.78-1.98-.97-.56-2.21-.94-3.47-1.06h0ZM24.66,12.27c-.05,0-.11-.01-.16-.04l-6.81-3.93c-.12-.07-.18-.21-.15-.34.03-.13.16-.23.3-.23,1.76-.07,3.6.37,5.01,1.18,1.47.85,2.24,1.98,2.12,3.1,0,.1-.08.19-.16.24-.04.02-.09.03-.14.03Z"/>
      <path class="cls-3" d="M22.49,15.5c-2.49.29-5.56-.29-7.91-1.65-2.36-1.36-3.36-3.13-2.86-4.57l-.39-.22c-2.96,1.71-5.93,3.42-8.89,5.14-.36.21-.33.56.05.78,3.38,1.95,6.75,3.9,10.12,5.84.39.22,1,.24,1.36.03,2.96-1.71,5.93-3.42,8.89-5.14l-.38-.22Z"/>
      <path class="cls-2" d="M11.33,9.42L2.6,14.46c-.08.04-.1.08-.1.09,0,.02.04.09.15.15l10.13,5.84c.3.17.78.19,1.04.03l8.21-4.74c-2.54.18-5.4-.46-7.61-1.73-2.3-1.33-3.46-3.1-3.07-4.69h-.02ZM13.35,21.31c-.31,0-.63-.07-.89-.22L2.35,15.24c-.3-.17-.47-.42-.47-.69,0-.25.15-.48.41-.63l8.89-5.14c.09-.05.22-.06.31,0l.38.22c.13.08.18.23.14.37-.47,1.33.59,2.98,2.71,4.2,2.23,1.29,5.19,1.9,7.73,1.61.06-.01.13,0,.19.04l.38.22c.09.05.15.15.15.26s-.06.21-.15.27l-8.89,5.14c-.22.12-.49.19-.78.19Z"/>
      <path class="cls-1" d="M29.58,6.38c.6-.35.61-.9.02-1.24-.58-.34-1.55-.34-2.15.01-.61.35-.62.9-.03,1.24.59.34,1.55.33,2.15-.01Z"/>
      <path class="cls-2" d="M28.55,5.2c-.35,0-.69.07-.95.22-.19.11-.3.25-.3.37s.11.24.28.34c.5.29,1.34.28,1.85-.01h0c.19-.11.3-.25.3-.37s-.11-.24-.28-.34c-.24-.14-.57-.21-.9-.21h0ZM28.49,6.95c-.44,0-.88-.1-1.22-.29-.37-.22-.58-.53-.58-.88s.22-.68.61-.9c.69-.4,1.77-.41,2.46-.01.38.22.59.53.59.87s-.23.68-.62.9h0c-.35.2-.8.3-1.24.3Z"/>
      <path class="cls-1" d="M10.85,17.2c-.61.35-1.56.35-2.16.01-.59-.34-.58-.9.03-1.24.6-.35,1.56-.35,2.15-.02.59.34.58.9-.02,1.24Z"/>
      <path class="cls-2" d="M9.81,16.02c-.35,0-.69.07-.95.23-.19.11-.31.25-.31.36s.1.24.29.34c.49.29,1.34.28,1.84-.01.19-.11.3-.25.3-.37s-.1-.24-.29-.34c-.24-.14-.57-.21-.9-.21h0ZM9.74,17.77c-.43,0-.87-.1-1.21-.29-.37-.22-.58-.53-.58-.88s.22-.68.61-.9c.7-.4,1.77-.41,2.46-.01.37.22.59.53.59.87s-.23.68-.62.9h0c-.35.21-.8.31-1.25.31Z"/>
      <polygon class="cls-1" points="28.87 13.84 23.76 16.79 9.43 8.52 14.54 5.57 28.87 13.84"/>
      <path class="cls-2" d="M10.05,8.52l13.72,7.92,4.49-2.6-13.72-7.92-4.49,2.6h0ZM23.76,17.1c-.05,0-.1-.01-.16-.04l-14.33-8.27c-.1-.05-.15-.16-.15-.26s.05-.21.15-.27l5.12-2.95c.09-.05.21-.05.3,0l14.33,8.27c.09.06.16.16.16.27s-.06.21-.16.27l-5.11,2.95c-.05.03-.1.04-.15.04Z"/>
      <polygon class="cls-3" points="24.72 16.24 25.24 15.94 25.76 15.64 11.43 7.36 10.91 7.66 10.39 7.96 24.72 16.24"/>
      <path class="cls-2" d="M11,7.96l13.71,7.92.43-.25-13.72-7.92-.42.24h0ZM24.72,16.55c-.05,0-.1-.01-.15-.04l-14.33-8.27c-.09-.06-.15-.16-.15-.27s.06-.21.15-.27l1.03-.6c.1-.06.22-.06.32,0l14.33,8.27c.1.06.15.16.15.27s-.05.21-.15.27l-1.04.6c-.05.03-.1.04-.16.04Z"/>
      <polygon class="cls-3" points="27.39 14.69 26.87 15 12.54 6.72 13.06 6.42 13.58 6.12 27.92 14.4 27.39 14.69"/>
      <path class="cls-2" d="M13.16,6.72l13.72,7.92.43-.24-13.72-7.92-.43.24h0ZM27.39,14.69h.01-.01ZM26.87,15.3s-.1-.01-.16-.04L12.4,6.99c-.1-.05-.16-.15-.16-.26s.06-.21.15-.27l1.04-.6c.1-.05.22-.05.31,0l14.32,8.27c.09.06.16.16.16.27s-.06.21-.16.27l-.51.3h0l-.52.3c-.05.03-.11.04-.16.04Z"/>
      <path class="cls-3" d="M37.99,7.92v7.37c-.04.55-.33.82-.8,1.12l-21.74,12.55c-.54.29-1.08.41-1.68.45h-.13c-.74.02-1.42-.1-2.07-.46L1.12,22.93c-.45-.29-.75-.56-.8-1.12v-7.38c.04.55.33.82.79,1.12l10.46,6.04c.65.36,1.33.47,2.07.46.66-.03,1.23-.14,1.81-.46l21.75-12.55c.46-.3.76-.57.8-1.12Z"/>
      <path class="cls-2" d="M.62,15.59v6.22c.04.39.24.59.66.86l10.44,6.03c.55.3,1.12.43,1.91.42h.12c.62-.05,1.1-.18,1.54-.42l21.74-12.55c.42-.27.61-.46.65-.88v-6.2c-.11.08-.22.16-.33.23l-21.76,12.56c-.57.32-1.17.47-1.95.5-.88,0-1.59-.15-2.23-.5L.96,15.82c-.12-.07-.24-.15-.34-.24h0ZM13.56,29.74c-.84,0-1.51-.16-2.14-.5L.96,23.2c-.45-.29-.9-.63-.96-1.36v-7.4c0-.17.13-.3.3-.31.18-.02.3.12.32.28.04.42.23.61.66.89l10.44,6.03c.55.3,1.17.43,1.91.42.68-.03,1.17-.16,1.66-.42l21.74-12.55c.42-.27.61-.46.65-.88.01-.16.15-.31.31-.28.17,0,.29.14.29.31v7.37c-.06.76-.49,1.09-.94,1.38l-21.76,12.56c-.53.3-1.08.45-1.81.5h-.14s-.06,0-.09,0Z"/>
      <path class="cls-4" d="M13.63,29.43c-.73,0-1.41-.11-2.05-.46L1.12,22.93c-.45-.29-.75-.56-.8-1.12v-7.37c.04.55.33.82.79,1.12l10.46,6.04c.65.36,1.33.47,2.06.46v7.38Z"/>
      <path class="cls-2" d="M.62,15.59v6.22c.04.39.24.59.66.86l10.44,6.03c.47.25.98.39,1.6.41v-6.76c-.73-.03-1.34-.19-1.9-.5L.96,15.82c-.12-.07-.24-.15-.34-.24h0ZM13.63,29.43h0,0ZM13.54,29.74c-.83,0-1.49-.16-2.12-.5L.96,23.2c-.45-.29-.9-.63-.96-1.36v-7.4c0-.17.13-.3.3-.31.18-.02.3.12.32.28.04.42.24.62.66.89l10.44,6.03c.55.3,1.15.43,1.9.42.06,0,.16.03.22.09.06.06.1.14.1.22v7.38c0,.17-.14.3-.3.31h-.1Z"/>
      <path class="cls-2" d="M13.57,26.9c-.84,0-1.52-.16-2.15-.5L.96,20.36c-.45-.29-.9-.63-.96-1.36,0-.17.11-.32.29-.33.16-.02.31.11.33.28.04.41.24.62.66.89l10.44,6.03c.54.29,1.15.43,1.91.42.63-.03,1.1-.14,1.57-.37l.09-.05,21.74-12.55c.42-.26.61-.46.65-.88.01-.17.17-.3.33-.28.18.01.3.16.29.33-.07.73-.5,1.07-.95,1.35l-21.86,12.62c-.57.28-1.11.41-1.84.44h-.09Z"/>
      <path class="cls-2" d="M13.51,23.97c-.14,0-.28,0-.42-.02-.67-.06-1.18-.21-1.68-.48L.96,17.44c-.46-.29-.9-.63-.96-1.36-.02-.17.11-.32.28-.33.17-.02.32.11.34.28.04.42.23.61.66.89l10.44,6.03c.42.23.84.35,1.42.41.21.01.4.02.61,0,.17-.01.32-.03.49-.06.29-.05.51-.12.77-.22.09-.04.18-.09.28-.14l21.74-12.55c.42-.27.61-.46.65-.88.01-.17.13-.3.33-.28.16.01.3.16.28.33-.06.73-.49,1.07-.94,1.35l-21.76,12.56c-.12.07-.22.12-.35.17-.3.12-.57.2-.9.26-.2.03-.36.05-.56.06-.09,0-.19,0-.28,0Z"/>
      <path class="cls-2" d="M13.46,25.45h-.09c-.36-.01-.63-.05-.96-.12-.39-.1-.68-.21-.99-.38L.95,18.91c-.45-.29-.89-.63-.95-1.36-.01-.17.11-.32.29-.33.17-.02.31.11.33.28.03.42.24.61.66.89l10.44,6.03c.26.14.5.23.83.31.28.06.54.09.84.1.2,0,.4,0,.61-.03.53-.07.9-.18,1.3-.4l21.73-12.55c.39-.25.62-.47.65-.88,0-.17.16-.3.33-.28.17.02.3.16.28.33-.05.7-.49,1.06-.94,1.35l-21.76,12.56c-.47.26-.91.39-1.53.47-.21.02-.4.03-.6.03Z"/>
      <path class="cls-2" d="M13.5,28.38c-.77,0-1.47-.17-2.08-.5L.96,21.85c-.45-.29-.9-.63-.96-1.36,0-.17.11-.32.29-.33.16-.02.31.11.33.28.04.42.24.62.66.89l10.44,6.03c.63.35,1.4.48,2.28.4.53-.07.9-.18,1.3-.4l21.73-12.55c.4-.26.61-.46.65-.88.01-.17.17-.3.33-.28.18.01.3.16.28.33-.06.73-.51,1.08-.94,1.35l-21.76,12.56c-.47.26-.91.39-1.53.47-.19.02-.38.03-.57.03Z"/>
      <path class="cls-3" d="M28.87,13.84v7.38c-2.96,1.71-2.42,1.4-5.38,3.11v-7.38c2.96-1.71,2.42-1.4,5.38-3.11Z"/>
      <path class="cls-2" d="M23.8,17.13v6.66l4.77-2.75v-6.67l-4.77,2.75h0ZM23.49,24.63c-.05,0-.12-.01-.16-.04-.09-.05-.16-.15-.16-.27v-7.38c0-.11.06-.21.16-.27l5.38-3.11c.09-.05.22-.05.31,0,.09.06.16.16.16.27v7.38c0,.11-.06.21-.16.27l-5.39,3.11s-.09.04-.15.04Z"/>
      <path class="cls-2" d="M13.06,20.14c-.11,0-.21-.06-.26-.15-.09-.15-.03-.34.11-.42l2.63-1.52c.15-.08.34-.03.43.11.08.15.03.34-.11.42l-2.64,1.52c-.05.03-.1.04-.15.04Z"/>
      <path class="cls-2" d="M4.17,15c-.11,0-.21-.06-.26-.15-.09-.15-.04-.33.11-.42l2.63-1.52c.15-.08.34-.04.42.11.09.15.03.34-.11.42l-2.63,1.52c-.05.03-.11.04-.16.04Z"/>
      <path class="cls-2" d="M22.61,4.36c-.11,0-.21-.06-.27-.15-.08-.15-.03-.33.11-.42l2.63-1.52c.15-.08.34-.04.42.11.08.15.04.34-.11.42l-2.63,1.52c-.05.03-.1.04-.15.04Z"/>
      <path class="cls-2" d="M31.5,9.49c-.1,0-.21-.06-.27-.15-.08-.15-.04-.34.11-.42l2.63-1.52c.15-.09.34-.04.42.11.08.15.03.34-.11.42l-2.63,1.52c-.05.03-.11.04-.16.04Z"/>
      <polygon class="cls-4" points="24.72 16.24 25.24 15.94 25.76 15.64 25.76 23.01 25.24 23.31 24.72 23.61 24.72 16.24"/>
      <path class="cls-2" d="M25.03,16.42v6.66l.42-.25v-6.66l-.42.24h0ZM24.72,23.92c-.05,0-.1-.01-.15-.04-.1-.05-.15-.15-.15-.27v-7.37c0-.11.05-.21.16-.27l1.04-.6c.09-.05.22-.05.31,0,.1.06.15.16.15.27v7.38c0,.11-.05.21-.15.27l-1.04.6c-.05.03-.1.04-.16.04Z"/>
      <polygon class="cls-4" points="27.39 14.69 26.87 15 26.87 22.37 27.39 22.07 27.92 21.77 27.92 14.39 27.39 14.69"/>
      <path class="cls-2" d="M27.19,15.17v6.66l.42-.24v-6.67l-.42.24h0ZM26.87,22.68s-.1-.01-.16-.04c-.1-.06-.15-.16-.15-.27v-7.38c0-.11.05-.21.15-.27l.52-.3h0l.52-.3c.09-.06.21-.06.3,0,.09.05.16.15.16.26v7.38c0,.11-.06.21-.16.26l-1.03.6c-.05.03-.11.04-.16.04Z"/>
    </g>
  </g>
</svg>