<?xml version="1.0" encoding="UTF-8"?>
<svg id="Layer_2" data-name="Layer 2" xmlns="http://www.w3.org/2000/svg" viewBox="0 0 72.69 87.26" fill="currentColor">
  <defs>
    <style>
      .cls-1 {
        fill: #fff;
      }

      .cls-1, .cls-2, .cls-3, .cls-4 {
        fill-rule: evenodd;
      }

      .cls-2 {
        fill: #1a87c7;
      }

      .cls-3 {
        fill: #bdedf8;
      }

      .cls-4 {
        fill: #66ceef;
      }
    </style>
  </defs>
  <g id="_Layer_" data-name="&amp;lt;Layer&amp;gt;">
    <g>
      <path class="cls-1" d="M62.42,68.02v-6.99c0-5.6-5.39-8.5-10.15-8.92-.68-.07-1.2-.1-1.61-.12-.16.29-.31.59-.47.87.17.68.4,1.3.71,1.94h0c1.24,2.97-3.15,7.32-7.7,9.01-3.34,1.25-6.92.76-10.17-.5-3.44-1.32-5.55-3.22-5.22-4.94-2.4,3.1-3.51,4.04-6.15,6.92-5.34,6.02-4.45,8.21-4.45,15.11,0,2.1.26,2.66,2.55,3.98,15.35,8.89,42.66-10.46,42.66-16.35Z"/>
      <path class="cls-2" d="M27.41,59.86c-1.23,1.53-2.15,2.48-3.34,3.74-.57.59-1.2,1.27-1.96,2.09-4.45,5.02-4.42,7.11-4.33,12.15.02.78.04,1.63.04,2.56,0,1.88.14,2.24,2.24,3.46,10.24,5.9,24.86-1.63,29.1-4.09,7.81-4.5,12.64-9.59,12.64-11.75h0l.02-6.99c0-5.15-4.97-7.91-9.59-8.29-.47-.05-.87-.08-1.2-.12-.05.12-.12.23-.17.33.16.56.35,1.08.59,1.58.42.99.36,2.09-.14,3.25-1.11,2.58-4.36,5.31-7.87,6.61-3.15,1.18-6.73,1.01-10.62-.5-2.86-1.09-4.75-2.54-5.39-4.01h0ZM29.1,87.26c-3.65,0-6.94-.78-9.65-2.35-2.42-1.39-2.87-2.1-2.87-4.52,0-.92-.02-1.76-.03-2.54-.09-5.06-.14-7.59,4.66-12.98.77-.83,1.4-1.51,1.98-2.12,1.43-1.49,2.45-2.57,4.13-4.76.17-.22.47-.29.73-.17.26.13.41.4.35.68-.24,1.32,1.7,3.02,4.85,4.24,3.59,1.41,6.86,1.58,9.73.5,3.19-1.18,6.21-3.68,7.18-5.94.36-.85.41-1.62.15-2.24-.31-.63-.56-1.3-.73-2.05-.03-.14-.02-.29.05-.44.16-.28.31-.57.45-.85.12-.23.35-.37.59-.35.42.04.96.07,1.65.14,5.15.43,10.71,3.62,10.7,9.53v6.99c0,2.95-5.71,8.46-13.25,12.83-7.34,4.22-14.55,6.41-20.69,6.41Z"/>
      <path class="cls-3" d="M62.42,68.02v-6.99c0-5.01-4.29-7.85-8.6-8.69.91,1.41,1.16,3.55.8,5.16-.7,3.04-3.18,5.63-5.65,7.39-3.22,2.27-6.74,3.51-10.75,3.32-4.34-.21-10.95-2.47-13.29-6.41-.94,1.01-1.9,1.98-3.27,3.5-5.34,6.02-4.45,8.21-4.45,15.11,0,2.1.26,2.66,2.55,3.98,15.35,8.89,42.66-10.46,42.66-16.35Z"/>
      <path class="cls-2" d="M24.86,62.78c-.25.26-.51.52-.79.82-.57.59-1.2,1.27-1.96,2.09-4.45,5.02-4.42,7.11-4.33,12.15.02.78.04,1.63.04,2.56,0,1.88.14,2.24,2.24,3.46,10.24,5.9,24.86-1.63,29.1-4.09,7.81-4.5,12.64-9.59,12.64-11.75h0l.02-6.99c0-4.29-3.37-6.78-6.88-7.79.49,1.35.61,2.97.28,4.4-.84,3.7-4.05,6.45-5.89,7.76-3.53,2.5-7.18,3.63-11.12,3.42-3.97-.19-10.5-2.19-13.33-6.03h0ZM29.1,87.26c-3.65,0-6.94-.78-9.65-2.35-2.42-1.39-2.87-2.1-2.87-4.52,0-.92-.02-1.76-.03-2.54-.09-5.06-.14-7.59,4.66-12.98.77-.83,1.4-1.51,1.98-2.12.45-.49.87-.92,1.29-1.37.14-.15.32-.22.52-.21.19.04.37.14.47.31,2.29,3.89,8.86,5.91,12.79,6.12,3.7.16,7.06-.87,10.34-3.22,1.7-1.19,4.66-3.72,5.41-7.02.36-1.57.07-3.47-.71-4.69-.14-.2-.14-.47,0-.68.14-.21.38-.31.62-.26,4.21.82,9.13,3.76,9.11,9.3v6.99c0,2.95-5.71,8.46-13.25,12.83-7.34,4.22-14.55,6.41-20.69,6.41Z"/>
      <path class="cls-1" d="M27.81,58.36c.37-.47,1.41-1.54,1.71-2.03.57-.97,1.73-6.08,1.84-7.21,4.55,5.27,14.08,2.15,18.36-.3.16,2.62.33,4.29,1.18,5.98h0c1.24,2.97-3.15,7.32-7.7,9.01-3.34,1.25-6.92.76-10.17-.5-3.44-1.32-5.55-3.22-5.22-4.94Z"/>
      <path class="cls-2" d="M28.39,58.63c-.09,1.31,1.82,2.94,4.87,4.1,3.59,1.41,6.89,1.58,9.73.5,3.19-1.18,6.21-3.68,7.18-5.94.36-.85.41-1.62.15-2.24-.78-1.57-1.01-3.15-1.16-5.23-3.93,2-12.43,4.88-17.38.59-.38,1.95-1.2,5.35-1.74,6.24-.21.35-.7.91-1.15,1.43-.19.21-.37.4-.5.56h0ZM39.06,65.17c-1.98,0-4.07-.44-6.26-1.29-3.9-1.49-6-3.62-5.6-5.63.02-.08.05-.17.12-.26.14-.17.38-.45.65-.73.37-.41.87-.99,1.01-1.24.5-.85,1.65-5.84,1.77-6.97.03-.24.19-.45.43-.52.23-.07.49,0,.64.19,4.08,4.71,12.95,2.24,17.57-.43.19-.1.41-.1.61-.02.17.11.29.29.31.52.16,2.49.31,4.12,1.12,5.74.42.99.36,2.09-.14,3.25-1.11,2.58-4.36,5.31-7.87,6.61-1.38.52-2.84.79-4.37.79Z"/>
      <path class="cls-1" d="M50.29,55c5.81-7.25,8.21-14.66,9.14-24.24h0c.05-.62.08-1.24.12-1.86.02-.57.04-1.2.04-1.88,0-.49,0-.87-.02-1.17,0-.31-.02-.66-.04-1.04-.33-2.92-3.84-6.87-7.76-5.36-4.61,1.77-9.51,3.67-11.49.05l-.03.05c-1.96,3.11-15.65,5.11-16.41,12.29-.05.64-.1,1.31-.14,1.99-.02.64-.02,1.32,0,1.98h0c.4,5.72.37,9.98,2.71,12.39,2.85,3.32,10.12,9.58,15.85,10.15,4.75.47,5.18.18,8.02-3.37Z"/>
      <path class="cls-2" d="M50.29,55h.02-.02ZM40.22,20.54c-1.07,1.01-3.01,1.84-5.34,2.85-4.45,1.93-9.98,4.33-10.41,8.54-.07.63-.13,1.27-.14,1.93-.04.64-.04,1.28-.02,1.94l.13,1.95c.29,4.67.52,8.06,2.43,10.04,2.59,3.01,9.75,9.39,15.47,9.95,4.58.45,4.82.19,7.46-3.13h0c5.41-6.73,8.01-13.67,9.02-23.92.05-.59.08-1.2.11-1.82.03-.56.03-1.17.03-1.84v-1.15c-.02-.31-.03-.66-.05-1.04-.17-1.58-1.44-3.44-3-4.4-.89-.52-2.28-1.03-3.9-.4-4.4,1.69-9.33,3.6-11.78.51h0ZM44.9,59.15c-.73,0-1.6-.07-2.68-.18-6.11-.61-13.6-7.23-16.25-10.36-2.21-2.27-2.45-6.03-2.75-10.79l-.12-1.95c-.03-.71-.03-1.39,0-2.06.02-.68.07-1.36.14-2,.52-4.94,6.41-7.49,11.16-9.54,2.42-1.06,4.73-2.05,5.34-3.02.12-.19.28-.35.55-.32.23.02.44.11.54.29,1.72,3.15,6.29,1.37,10.73-.33,1.65-.64,3.39-.47,4.99.5,1.9,1.15,3.37,3.36,3.6,5.35.02.42.04.79.05,1.1v1.18c0,.7,0,1.32-.04,1.89-.02.63-.07,1.27-.1,1.9-1.03,10.38-3.8,17.73-9.28,24.58h0c-2.31,2.87-3.15,3.76-5.87,3.76Z"/>
      <path class="cls-4" d="M63.4,20.18c.75-8.85-5-19.92-14.57-9.6-1.08,1.18-4.07-.71-.97-4.76,7.25-10.1,26.98-5.28,23.89,12.75-1.06.55-1.74-1.9-2.8-1.84-.69.05-.64,3.35-1.42,3.93-1.12.81-1.15-5.29-4.12-.47Z"/>
      <path class="cls-2" d="M65.33,17.69h.08c.92.05,1.37,1.01,1.72,1.79.05.1.12.25.17.37.14-.38.28-1.04.35-1.46.23-1.23.42-2.23,1.25-2.27.78-.04,1.36.62,1.82,1.19.12.16.33.42.5.58,1.06-7.34-1.76-13.14-7.61-15.59-5.56-2.33-11.98-.69-15.26,3.89-1.5,1.95-1.48,3.37-.82,3.93.28.24.64.26.83.05,4.48-4.85,7.89-4.78,9.96-3.88,3.77,1.65,5.65,7.07,5.74,11.99.43-.4.85-.59,1.25-.59h0ZM67.31,21.34c-.07,0-.14,0-.21-.02-.54-.16-.78-.7-1.08-1.34-.14-.28-.49-1.04-.68-1.06h0s-.46.02-1.41,1.58c-.16.24-.45.35-.73.26-.26-.09-.43-.35-.42-.64.42-4.99-1.32-11.13-4.95-12.71-2.42-1.08-5.39.16-8.55,3.58-.64.71-1.74.73-2.54.07-1.03-.86-1.48-2.87.63-5.61,3.62-5.04,10.65-6.85,16.72-4.31,5.08,2.14,9.92,7.86,8.26,17.52-.04.19-.16.35-.33.45-1.01.5-1.76-.41-2.26-1.02-.15-.21-.41-.54-.62-.68-.09.28-.19.82-.26,1.22-.21,1.08-.4,2.09-.99,2.53-.17.12-.36.19-.57.19Z"/>
      <path class="cls-1" d="M53.66,52.3s-.05,0-.07-.02c.02.02.05.02.07.02Z"/>
      <path class="cls-2" d="M53.66,52.93s-.08-.02-.12-.02v-.02l.17-1.19c.3.05.52.33.52.61v.12c-.07.29-.29.5-.58.5Z"/>
      <path class="cls-3" d="M49.96,10.88c4.37,3.46,4.78-7.27-1.13-5.69,2.85,1.36,4.52,4.26,1.13,5.69Z"/>
      <path class="cls-2" d="M51.21,10.89c.29.09.57.09.82-.11.66-.56.89-2.33.17-3.71-.25-.49-.66-1.01-1.3-1.26,1.01.87,1.58,1.93,1.57,2.92-.02.62-.26,1.46-1.25,2.15h0ZM51.56,12.18c-.52,0-1.18-.19-1.98-.82-.16-.14-.25-.35-.23-.58.03-.21.17-.4.38-.48.66-.28,1.48-.79,1.49-1.58.02-.99-1.07-2.21-2.68-2.98-.22-.12-.36-.36-.35-.61.03-.26.2-.49.47-.56,2.03-.52,3.72.16,4.63,1.91.94,1.81.69,4.26-.49,5.23-.23.19-.64.45-1.25.45Z"/>
      <path class="cls-4" d="M27.17,49.54c.15-.41.68-2.05.4-2.57-.71-1.32-1.49-3.68-1.84-5.21-1.69-7.39,6.47-8.71,8.01,2.19.02-4.09.89-3.35.85-5.51,0-8.18,4.01-8.66,11.77-11.06,6.4-1.98,9.65-13.13,13.23-.35,2.71-16.04-18.6-32.84-26.89-19.95-.97-.67-12.62,1.04-14.36,11.58-2.41,14.69,2.31,17.97,8.83,30.89Z"/>
      <path class="cls-2" d="M31.98,7.54c-1.01,0-3.77.42-6.62,2.07-2.47,1.42-5.6,4.19-6.42,9.14-1.88,11.37.54,15.64,4.92,23.4.96,1.69,2.02,3.55,3.13,5.68.04-.26.06-.49.02-.59-.73-1.36-1.53-3.79-1.9-5.35-.56-2.5-.14-4.59,1.18-5.73.9-.8,2.12-1.01,3.32-.56,1.67.63,3.04,2.35,3.91,4.85.07-.17.12-.31.17-.45.16-.44.28-.75.26-1.57,0-7.96,3.91-9.14,10.36-11.09.59-.18,1.22-.37,1.86-.56,2-.63,3.72-2.24,5.23-3.67,1.79-1.69,3.32-3.11,4.95-2.66,1.08.29,1.98,1.39,2.84,3.48-.14-8.73-6.95-17.18-13.98-19.91-2.93-1.15-8.41-2.23-12.03,3.37-.09.14-.22.25-.4.28-.16.03-.34,0-.47-.1-.05-.02-.17-.04-.35-.04h0ZM27.17,50.14c-.23,0-.44-.12-.56-.33-1.35-2.71-2.66-5.02-3.82-7.06-4.37-7.73-7.01-12.41-5.06-24.21,1.12-6.71,6.08-9.75,8.96-10.97,2.12-.91,4.54-1.37,5.74-1.22,3-4.33,7.8-5.6,13.26-3.48,8.26,3.22,16.25,13.96,14.51,24.25-.05.29-.3.5-.58.52-.28.04-.56-.17-.62-.45-.96-3.41-1.95-5.28-2.96-5.56-1.01-.3-2.28.95-3.77,2.36-1.61,1.53-3.46,3.25-5.72,3.96-.64.19-1.27.38-1.86.56-6.52,1.97-9.49,2.85-9.49,9.91.02,1.03-.16,1.49-.35,2-.23.61-.49,1.28-.5,3.51,0,.33-.25.59-.58.61-.36.05-.61-.21-.64-.52-.64-4.52-2.45-6.72-3.95-7.26-.76-.3-1.51-.18-2.06.31-.96.84-1.25,2.54-.8,4.54.35,1.48,1.09,3.79,1.79,5.06.47.9-.33,2.99-.37,3.08-.08.22-.29.38-.54.4h-.03Z"/>
      <path class="cls-4" d="M13.84,46.37c-.85-9.73-.54-21.9,9.13-22.01,1.53-.03,4.61-3.67,1.01-6.14C15.58,11.76-2.5,25.51,1.09,44.18c6.31-11.37,2.23,3.72,5.88,2.49,1.46-.51,2.15-4.85,6.86-.3Z"/>
      <path class="cls-2" d="M4.31,39.3c.07,0,.16,0,.23.02.98.23,1.06,1.55,1.2,3.39.09,1.22.23,3.06.71,3.39.04.02.11.07.33-.02.21-.07.5-.42.78-.75.59-.69,1.33-1.56,2.56-1.63.91-.02,1.88.37,2.99,1.22-.45-6.24-.4-14.27,3.35-18.43,1.63-1.79,3.8-2.71,6.48-2.74.54,0,1.62-.89,1.99-2.05.33-1.11-.13-2.14-1.3-2.93-2.92-2.26-7.27-1.98-11.63.71C5.86,23.25.15,31.91,1.42,42.36c1.46-2.42,2.23-3.06,2.89-3.06h0ZM6.57,47.36c-.35,0-.62-.12-.8-.24-1.01-.66-1.13-2.52-1.27-4.33-.05-.71-.12-1.78-.28-2.19-.29.22-1.02,1.04-2.59,3.88-.14.23-.38.35-.65.31-.26-.05-.45-.24-.5-.5-2.27-11.84,3.81-21.52,10.87-25.89,4.82-2.97,9.68-3.21,13-.66,1.6,1.09,2.24,2.68,1.76,4.31-.47,1.55-1.94,2.9-3.14,2.92-2.35.04-4.19.8-5.58,2.35-2.81,3.11-3.77,9.32-2.94,19.01.04.24-.1.48-.35.61-.22.1-.5.07-.68-.13-1.34-1.28-2.47-1.91-3.23-1.88-.7.04-1.19.59-1.69,1.2-.4.49-.79.94-1.33,1.11-.23.09-.43.12-.61.12Z"/>
      <path class="cls-3" d="M22.96,24.36c4.36,3.44,6.22-6.38.5-6.41,2.85,1.36,2.87,4.97-.5,6.41Z"/>
      <path class="cls-2" d="M24.2,24.38c.46.16.85.12,1.2-.13.89-.59,1.29-2.31.87-3.67-.05-.17-.12-.35-.23-.54.08.31.14.66.12,1.01-.01,1.32-.75,2.5-1.96,3.32h0ZM24.72,25.72c-.59,0-1.32-.23-2.14-.89-.17-.12-.26-.35-.25-.56.04-.23.18-.4.38-.49,1.36-.57,2.19-1.62,2.21-2.77.03-1.04-.63-2-1.72-2.52-.26-.12-.4-.41-.35-.69.07-.28.32-.49.61-.49h0c1.96.02,3.42,1.07,3.98,2.9.57,1.93-.02,4.15-1.36,5.06-.3.21-.76.44-1.37.44Z"/>
    </g>
  </g>
</svg>