<?xml version="1.0" encoding="UTF-8"?>
<svg id="Layer_2" data-name="Layer 2" xmlns="http://www.w3.org/2000/svg" viewBox="0 0 26.64 41.57" fill="currentColor">
  <defs>
    <style>
      .cls-1 {
        fill: #fff;
      }

      .cls-1, .cls-2, .cls-3, .cls-4 {
        fill-rule: evenodd;
      }

      .cls-2 {
        fill: #1a87c7;
      }

      .cls-3 {
        fill: #bdedf8;
      }

      .cls-4 {
        fill: #66ceef;
      }
    </style>
  </defs>
  <g id="_Layer_" data-name="&amp;lt;Layer&amp;gt;">
    <g>
      <path class="cls-3" d="M3.86,22.39v17.64c.01.44.09.83.43,1.14h-.02s-3.28-1.89-3.28-1.89c-.39-.29-.48-.72-.5-1.18v-17.64l3.36,1.94Z"/>
      <path class="cls-2" d="M.81,20.99v17.11c0,.47.11.75.36.94l2.41,1.38c-.03-.13-.03-.26-.03-.38v-17.47l-2.74-1.59h0ZM4.29,41.48c-.06,0-.12-.01-.17-.04l-3.28-1.9c-.56-.42-.64-.99-.64-1.44v-17.65c0-.11.06-.21.16-.27.09-.06.21-.06.3,0l3.35,1.94c.1.06.16.16.16.27v17.64c.01.45.11.7.33.91.09.08.12.2.09.32-.04.11-.13.2-.24.22-.02,0-.04,0-.05,0Z"/>
      <path class="cls-1" d="M26.13,9.29v17.64c0,.6-.22,1.27-.56,1.86-.34.59-.81,1.11-1.34,1.41l-18.7,10.79c-.37.22-.94.38-1.33.13-.42-.24-.56-.77-.56-1.22v-17.64l22.48-12.98Z"/>
      <path class="cls-2" d="M3.96,22.45v17.46c0,.22.04.75.4.95.29.18.73.04,1.04-.13l18.7-10.79c.45-.26.9-.73,1.22-1.3.33-.56.52-1.19.52-1.71V9.82L3.96,22.45h0ZM4.68,41.57c-.22,0-.43-.04-.64-.18-.43-.25-.7-.79-.7-1.48v-17.64c0-.11.06-.21.16-.26l22.48-12.98c.1-.06.22-.06.31,0,.1.06.15.16.15.26v17.64c0,.63-.21,1.35-.59,2.02-.38.67-.9,1.21-1.45,1.53l-18.7,10.79c-.16.09-.56.3-1.02.3Z"/>
      <path class="cls-3" d="M5.75,13.41C14.86,8.15,21.67,4.22,24.44,2.61c.52-.3,1-.33,1.34-.13h0c.35.2.56.62.56,1.22v5.71L3.86,22.39v-5.71c0-1.2.84-2.68,1.89-3.28Z"/>
      <path class="cls-2" d="M5.9,13.67c-.94.55-1.74,1.93-1.74,3.01v5.18l21.87-12.63V3.7c0-.46-.14-.8-.39-.95,0,0,0,0-.02,0-.25-.15-.63-.1-1.02.13L5.9,13.67h0ZM3.86,22.7c-.06,0-.11-.02-.16-.04-.09-.05-.16-.16-.16-.27v-5.71c0-1.33.9-2.88,2.05-3.54h0L24.29,2.34c.59-.34,1.17-.39,1.62-.14,0,0,0,0,.02.01.45.26.7.79.7,1.49v5.71c0,.11-.05.21-.15.27L4.01,22.66s-.1.04-.15.04Z"/>
      <path class="cls-4" d="M2.2,11.36C8.34,7.81,14.48,4.27,20.63.72l.27-.16.09-.05c.39-.19.76-.29,1.17-.11l3.55,2.05c-.44-.19-.86-.06-1.27.17l-.27.16c-6.14,3.55-12.28,7.09-18.43,10.64-1.04.63-1.88,2.01-1.89,3.28v5.71l-3.56-2.05v-5.71c.02-1.22.81-2.62,1.9-3.28Z"/>
      <path class="cls-2" d="M.62,20.34h0,0ZM.62,20.17l2.93,1.69v-5.18c.02-1.34.88-2.83,2.04-3.54L24.28,2.34c.11-.06.23-.12.35-.17l-2.63-1.51c-.23-.1-.49-.07-.88.12l-.36.2L2.36,11.62c-.98.6-1.73,1.89-1.74,3.02v5.53h0ZM3.86,22.7c-.06,0-.11-.02-.16-.04L.16,20.61c-.09-.06-.16-.16-.16-.27v-5.71c.02-1.34.87-2.83,2.04-3.54h0S20.84.24,20.84.24c.38-.19.88-.36,1.44-.13l3.58,2.06c.14.08.19.26.12.41-.07.14-.24.21-.39.14-.29-.12-.58-.08-1.01.15L5.9,13.67c-.97.6-1.73,1.89-1.74,3.02v5.71c0,.11-.06.21-.16.27-.04.03-.1.04-.15.04Z"/>
      <path class="cls-4" d="M4.58,14.55l-3.56-2.05c-.42.62-.71,1.38-.72,2.13v5.71l3.56,2.05v-5.71c0-.75.3-1.51.72-2.13Z"/>
      <path class="cls-2" d="M.62,20.17l2.93,1.69v-5.18c0-.66.22-1.36.6-2.02l-3.02-1.74c-.33.56-.51,1.17-.51,1.72v5.53h0ZM3.86,22.7c-.06,0-.11-.02-.16-.04L.16,20.61c-.09-.06-.16-.16-.16-.27v-5.71c.01-.76.28-1.57.77-2.3.09-.14.27-.18.41-.1l3.55,2.05c.08.04.13.12.15.2.02.08,0,.17-.04.24-.43.63-.66,1.33-.67,1.96v5.71c0,.11-.06.21-.16.27-.04.03-.1.04-.15.04Z"/>
      <path class="cls-2" d="M1.95,40.14c-.06,0-.13-.02-.18-.06-.52-.4-.61-.97-.62-1.42v-17.65c0-.17.14-.31.31-.31.16,0,.3.14.3.31v17.64c0,.47.12.75.37.94.13.1.15.3.06.43-.06.08-.16.12-.25.12Z"/>
      <path class="cls-2" d="M2.98,40.74c-.07,0-.13-.02-.19-.06-.52-.4-.6-.97-.61-1.42v-17.65c0-.17.14-.31.3-.31s.31.14.31.31v17.64c0,.47.11.75.36.94.14.1.16.3.06.43-.06.08-.16.12-.24.12Z"/>
      <polygon class="cls-1" points="14.62 29.05 11.11 31.08 11.11 35.48 14.62 33.45 14.62 29.05"/>
      <path class="cls-2" d="M11.41,31.26v3.68l2.9-1.67v-3.68l-2.9,1.67h0ZM11.11,35.78c-.05,0-.1-.01-.16-.04-.09-.06-.16-.16-.16-.26v-4.39c0-.11.06-.21.16-.27l3.51-2.03c.1-.06.22-.06.31,0,.09.05.16.16.16.26v4.39c0,.11-.06.21-.16.27l-3.51,2.03c-.05.03-.11.04-.16.04Z"/>
      <polygon class="cls-1" points="10.21 35.99 10.21 31.6 6.7 33.63 6.7 38.02 10.21 35.99"/>
      <path class="cls-2" d="M10.21,35.99h0,0ZM7.01,33.8v3.68l2.9-1.67v-3.68l-2.9,1.67h0ZM6.7,38.33c-.05,0-.1-.01-.16-.04-.09-.06-.15-.16-.15-.27v-4.39c0-.11.05-.21.15-.27l3.52-2.03c.09-.05.21-.05.3,0,.1.06.16.16.16.27v4.39c0,.11-.06.21-.16.27l-3.51,2.03c-.05.03-.11.04-.16.04Z"/>
      <polygon class="cls-1" points="10.21 26.15 6.7 28.18 6.7 32.57 10.21 30.54 10.21 26.15"/>
      <path class="cls-2" d="M7.01,28.36v3.68l2.9-1.67v-3.68l-2.9,1.67h0ZM6.7,32.88c-.05,0-.1-.01-.16-.04-.09-.05-.15-.16-.15-.27v-4.39c0-.11.05-.21.15-.27l3.52-2.03c.09-.06.21-.06.3,0,.1.06.16.16.16.27v4.39c0,.11-.06.21-.16.27l-3.51,2.03c-.05.03-.11.04-.16.04Z"/>
      <polygon class="cls-3" points="14.62 18.16 11.11 20.18 11.11 24.58 14.62 22.55 14.62 18.16"/>
      <path class="cls-2" d="M11.41,20.36v3.68l2.9-1.67v-3.68l-2.9,1.67h0ZM11.11,24.88c-.05,0-.1-.01-.16-.04-.09-.05-.16-.15-.16-.26v-4.39c0-.11.06-.21.16-.27l3.51-2.03c.1-.05.22-.05.31,0,.09.06.16.16.16.27v4.39c0,.11-.06.21-.16.27l-3.51,2.02c-.05.03-.11.04-.16.04Z"/>
      <polygon class="cls-3" points="10.21 20.7 6.7 22.73 6.7 27.12 10.21 25.09 10.21 20.7"/>
      <path class="cls-2" d="M7.01,22.91v3.68l2.9-1.67v-3.68l-2.9,1.67h0ZM6.7,27.43c-.05,0-.1-.01-.16-.04-.09-.05-.15-.16-.15-.27v-4.39c0-.11.05-.21.15-.27l3.52-2.03c.09-.06.21-.06.3,0,.1.06.16.16.16.27v4.39c0,.11-.06.21-.16.27l-3.51,2.03c-.05.03-.11.04-.16.04Z"/>
      <polygon class="cls-1" points="19.03 26.51 15.52 28.54 15.52 32.93 19.03 30.9 19.03 26.51"/>
      <path class="cls-2" d="M15.82,28.72v3.68l2.9-1.67v-3.68l-2.9,1.67h0ZM15.52,33.24c-.05,0-.1-.01-.16-.04-.09-.06-.16-.15-.16-.27v-4.39c0-.11.06-.21.16-.27l3.51-2.03c.09-.06.22-.06.31,0,.09.05.15.16.15.27v4.39c0,.11-.05.21-.15.27l-3.52,2.03s-.09.04-.15.04Z"/>
      <polygon class="cls-3" points="23.43 23.97 19.92 26 19.92 30.39 23.43 28.36 23.43 23.97"/>
      <path class="cls-2" d="M20.23,26.17v3.68l2.89-1.67v-3.68l-2.89,1.67h0ZM19.92,30.7c-.06,0-.11-.01-.16-.04-.09-.06-.15-.16-.15-.27v-4.39c0-.11.06-.21.15-.27l3.51-2.03c.09-.06.21-.06.31,0,.09.06.15.16.15.27v4.39c0,.11-.05.21-.15.26l-3.52,2.03s-.09.04-.15.04Z"/>
      <polygon class="cls-1" points="19.03 25.46 19.03 21.06 15.52 23.09 15.52 27.48 19.03 25.46"/>
      <path class="cls-2" d="M19.03,25.46h.01-.01ZM15.82,23.27v3.68l2.9-1.67v-3.68l-2.9,1.67h0ZM15.52,27.79c-.05,0-.1-.01-.16-.04-.09-.05-.16-.15-.16-.26v-4.39c0-.11.06-.21.16-.26l3.51-2.03c.09-.06.22-.06.31,0,.09.06.15.16.15.27v4.39c0,.11-.05.21-.15.26l-3.52,2.03s-.09.04-.15.04Z"/>
      <polygon class="cls-1" points="23.43 22.91 23.43 18.52 19.92 20.55 19.92 24.94 23.43 22.91"/>
      <path class="cls-2" d="M23.43,22.91h0,0ZM20.23,20.72v3.68l2.89-1.67v-3.68l-2.89,1.67h0ZM19.92,25.25c-.06,0-.11-.02-.16-.04-.09-.05-.15-.16-.15-.27v-4.39c0-.11.06-.21.15-.26l3.51-2.03c.09-.06.21-.06.31,0,.09.06.15.16.15.27v4.39c0,.11-.05.22-.15.27l-3.52,2.03s-.09.04-.15.04Z"/>
      <polygon class="cls-1" points="19.03 15.61 15.52 17.64 15.52 22.03 19.03 20.01 19.03 15.61"/>
      <path class="cls-2" d="M15.82,17.82v3.68l2.9-1.67v-3.68l-2.9,1.67h0ZM15.52,22.34c-.05,0-.1-.01-.16-.04-.09-.05-.16-.15-.16-.26v-4.39c0-.11.06-.21.16-.26l3.51-2.03c.09-.05.22-.05.31,0,.09.06.15.16.15.27v4.39c0,.11-.05.21-.15.27l-3.52,2.03s-.09.04-.15.04Z"/>
      <polygon class="cls-1" points="11.11 30.03 14.62 28 14.62 23.61 11.11 25.63 11.11 30.03"/>
      <path class="cls-2" d="M11.41,25.81v3.68l2.9-1.67v-3.68l-2.9,1.67h0ZM11.11,30.33c-.05,0-.1-.01-.16-.04-.09-.05-.16-.15-.16-.27v-4.39c0-.11.06-.21.16-.27l3.51-2.03c.1-.06.22-.06.31,0,.09.06.16.16.16.27v4.39c0,.11-.06.21-.16.27l-3.51,2.03c-.05.03-.11.04-.16.04Z"/>
      <polygon class="cls-1" points="23.43 17.46 23.43 13.07 19.92 15.1 19.92 19.49 23.43 17.46"/>
      <path class="cls-2" d="M23.43,17.46h0,0ZM20.23,15.27v3.68l2.89-1.67v-3.68l-2.89,1.67h0ZM19.92,19.8c-.06,0-.11-.02-.16-.04-.09-.06-.15-.16-.15-.27v-4.39c0-.11.06-.21.15-.26l3.51-2.03c.09-.05.21-.05.31,0,.09.05.15.16.15.27v4.39c0,.11-.05.21-.15.26l-3.52,2.03s-.09.04-.15.04Z"/>
    </g>
  </g>
</svg>