<?xml version="1.0" encoding="UTF-8"?>
<svg id="Layer_2" data-name="Layer 2" xmlns="http://www.w3.org/2000/svg" viewBox="0 0 41.2 27.23" fill="currentColor">
  <defs>
    <style>
      .cls-1 {
        fill: #fff;
      }

      .cls-1, .cls-2, .cls-3, .cls-4 {
        fill-rule: evenodd;
      }

      .cls-2 {
        fill: #1a87c7;
      }

      .cls-3 {
        fill: #bdedf8;
      }

      .cls-4 {
        fill: #66ceef;
      }
    </style>
  </defs>
  <g id="_Layer_" data-name="&amp;lt;Layer&amp;gt;">
    <g>
      <polygon class="cls-3" points="3.19 13.95 3.19 16.94 .31 15.27 .31 12.28 3.19 13.95"/>
      <path class="cls-2" d="M.62,15.09l2.26,1.31v-2.28l-2.26-1.31v2.27h0ZM3.19,17.25c-.06,0-.11-.02-.16-.04L.15,15.53c-.1-.05-.15-.15-.15-.26v-2.99c0-.1.06-.21.15-.26.1-.06.21-.06.31,0l2.88,1.66c.09.05.15.16.15.27v2.98c0,.11-.06.21-.16.27-.05.02-.1.04-.15.04Z"/>
      <polygon class="cls-1" points=".31 12.28 20.74 .5 23.62 2.17 3.19 13.95 .31 12.28"/>
      <path class="cls-2" d="M.93,12.28l2.26,1.31L23,2.17l-2.26-1.31L.93,12.28h0ZM3.19,14.26c-.06,0-.11-.01-.16-.04L.15,12.55c-.1-.05-.15-.16-.15-.27,0-.1.06-.21.15-.26L20.58.24c.1-.06.21-.06.31,0l2.88,1.66c.1.06.15.16.15.27s-.06.21-.15.27L3.34,14.21s-.1.04-.15.04Z"/>
      <polygon class="cls-3" points="6.07 15.61 6.07 18.6 3.19 16.94 3.19 13.95 6.07 15.61"/>
      <path class="cls-2" d="M3.5,16.76l2.26,1.3v-2.27l-2.26-1.31v2.28h0ZM6.07,18.91c-.05,0-.1-.02-.15-.04l-2.88-1.66c-.1-.06-.15-.16-.15-.27v-2.98c0-.11.06-.22.15-.27.09-.05.21-.05.31,0l2.88,1.66c.09.06.16.16.16.27v2.99c0,.1-.06.21-.16.26-.05.03-.1.04-.15.04Z"/>
      <polygon class="cls-1" points="3.19 13.95 23.62 2.17 26.5 3.83 6.07 15.61 3.19 13.95"/>
      <path class="cls-2" d="M3.8,13.95l2.26,1.3L25.88,3.83l-2.26-1.31L3.8,13.95h0ZM6.07,15.93c-.05,0-.1-.02-.15-.04l-2.88-1.67c-.1-.05-.15-.16-.15-.26,0-.11.06-.22.15-.27L23.46,1.9c.09-.05.21-.05.31,0l2.88,1.67c.09.05.16.16.16.26,0,.11-.06.22-.16.27L6.22,15.88s-.1.04-.15.04Z"/>
      <polygon class="cls-3" points="8.95 17.28 8.95 20.26 6.07 18.59 6.07 15.61 8.95 17.28"/>
      <path class="cls-2" d="M6.37,18.42l2.26,1.3v-2.27l-2.26-1.3v2.27h0ZM8.95,20.57c-.05,0-.1,0-.15-.04l-2.88-1.66c-.09-.05-.15-.16-.15-.27v-2.98c0-.12.06-.21.16-.27.09-.05.21-.05.31,0l2.88,1.67c.09.05.15.15.15.27v2.98c0,.11-.06.21-.15.26-.05.03-.1.04-.15.04Z"/>
      <polygon class="cls-1" points="6.07 15.61 26.5 3.83 29.38 5.5 8.95 17.28 6.07 15.61"/>
      <path class="cls-2" d="M6.68,15.61l2.26,1.31L28.76,5.5l-2.26-1.31L6.68,15.61h0ZM8.95,17.58c-.05,0-.1-.02-.15-.04l-2.88-1.66c-.09-.06-.15-.16-.15-.27s.06-.21.16-.27L26.34,3.57c.09-.06.21-.06.31,0l2.88,1.66c.09.05.15.16.15.27,0,.1-.06.21-.16.26l-20.43,11.79s-.1.04-.15.04Z"/>
      <polygon class="cls-4" points="12.71 10.35 12.71 9.21 14.77 10.4 27.32 3.16 27.32 4.3 14.77 11.55 12.71 10.35"/>
      <path class="cls-2" d="M13.02,10.17l1.75,1.02,12.24-7.07v-.43l-12.08,6.97c-.1.06-.21.06-.31,0l-1.6-.92v.44h0ZM14.77,11.85c-.06,0-.11,0-.15-.04l-2.06-1.19c-.09-.05-.15-.16-.15-.26v-1.15c0-.11.06-.21.15-.27.09-.05.21-.05.31,0l1.91,1.11,12.39-7.16c.1-.05.21-.05.31,0,.1.06.15.16.15.27v1.15c0,.11-.06.21-.15.27l-12.54,7.23s-.1.04-.15.04Z"/>
      <polygon class="cls-4" points="9.83 7.55 11.89 8.73 24.44 1.5 22.38 .31 9.83 7.55"/>
      <path class="cls-2" d="M10.45,7.55l1.44.83L23.82,1.5l-1.44-.84-11.93,6.89h0ZM11.89,9.04c-.05,0-.11-.02-.15-.04l-2.06-1.19c-.09-.05-.15-.16-.15-.26,0-.11.06-.22.15-.27L22.23.04c.09-.05.21-.05.31,0l2.06,1.19c.09.06.15.16.15.27s-.06.21-.16.26l-12.55,7.24s-.1.04-.15.04Z"/>
      <polygon class="cls-4" points="9.83 8.68 9.83 7.55 11.89 8.73 24.44 1.5 24.44 2.65 11.89 9.88 9.83 8.68"/>
      <path class="cls-2" d="M10.14,8.51l1.75,1.01,12.24-7.06v-.44l-12.09,6.97c-.09.06-.21.06-.31,0l-1.6-.92v.44h0ZM11.89,10.19c-.05,0-.11-.02-.15-.04l-2.06-1.19c-.09-.05-.15-.16-.15-.27v-1.14c0-.11.06-.22.15-.27.1-.06.21-.06.31,0l1.9,1.1L24.28,1.23c.09-.05.21-.05.31,0,.1.06.16.16.16.27v1.15c0,.1-.06.21-.16.26l-12.55,7.24s-.1.04-.15.04Z"/>
      <polygon class="cls-4" points="12.71 9.21 14.77 10.4 27.32 3.16 25.26 1.97 12.71 9.21"/>
      <path class="cls-2" d="M13.33,9.21l1.44.84,11.93-6.89-1.44-.83-11.93,6.88h0ZM14.77,10.7c-.06,0-.11,0-.15-.04l-2.06-1.18c-.09-.06-.15-.17-.15-.27,0-.11.06-.22.15-.27L25.1,1.71c.1-.06.21-.06.31,0l2.06,1.18c.09.06.15.17.15.27,0,.12-.06.22-.15.27l-12.54,7.23s-.1.04-.15.04Z"/>
      <polygon class="cls-3" points="11.82 18.94 11.82 21.92 8.95 20.26 8.95 17.28 11.82 18.94"/>
      <path class="cls-2" d="M9.25,20.08l2.27,1.31v-2.28l-2.26-1.3v2.27h0ZM11.82,22.23c-.06,0-.11-.02-.15-.04l-2.88-1.67c-.09-.05-.16-.16-.16-.26v-2.98c0-.11.06-.22.16-.27.09-.06.21-.06.31,0l2.88,1.66c.1.06.16.16.16.27v2.98c0,.11-.06.22-.16.27-.05.03-.1.04-.15.04Z"/>
      <polygon class="cls-1" points="8.95 17.28 29.38 5.5 32.25 7.15 11.82 18.94 8.95 17.28"/>
      <path class="cls-2" d="M9.56,17.28l2.26,1.31L31.64,7.15l-2.26-1.3-19.81,11.43h0ZM11.82,19.25c-.06,0-.11,0-.15-.03l-2.88-1.67c-.09-.05-.16-.16-.16-.26,0-.11.06-.22.16-.27L29.22,5.23c.09-.05.21-.05.31,0l2.88,1.66c.09.06.15.17.15.27,0,.11-.06.22-.15.27l-20.43,11.79s-.1.03-.15.03Z"/>
      <polygon class="cls-3" points="14.7 20.6 14.7 23.59 11.82 21.92 11.82 18.94 14.7 20.6"/>
      <path class="cls-2" d="M12.13,21.75l2.26,1.3v-2.27l-2.26-1.31v2.28h0ZM14.7,23.9c-.06,0-.11,0-.15-.05l-2.88-1.66c-.1-.05-.15-.16-.15-.27v-2.98c0-.11.05-.21.15-.27.09-.05.21-.05.31,0l2.88,1.67c.09.05.15.16.15.26v2.99c0,.1-.06.21-.16.26-.05.04-.1.05-.15.05Z"/>
      <polygon class="cls-1" points="11.82 18.94 32.25 7.15 35.13 8.83 14.7 20.6 11.82 18.94"/>
      <path class="cls-2" d="M12.44,18.94l2.26,1.3,19.81-11.42-2.26-1.32-19.81,11.43h0ZM14.7,20.91c-.06,0-.11-.02-.15-.04l-2.88-1.66c-.1-.06-.15-.16-.15-.27s.05-.21.15-.27l20.42-11.78c.1-.05.22-.05.31,0l2.88,1.67c.1.05.15.16.15.27,0,.1-.06.21-.15.26l-20.43,11.79s-.1.04-.15.04Z"/>
      <polygon class="cls-3" points="17.58 22.27 17.58 25.25 14.7 23.59 14.7 20.6 17.58 22.27"/>
      <path class="cls-2" d="M15.01,23.41l2.26,1.31v-2.28l-2.26-1.3v2.27h0ZM17.58,25.55c-.05,0-.1,0-.15-.03l-2.88-1.67c-.1-.05-.16-.16-.16-.26v-2.99c0-.1.06-.21.16-.26.09-.06.21-.06.31,0l2.88,1.66c.1.05.15.16.15.27v2.98c0,.11-.06.21-.15.27-.05.03-.1.03-.16.03Z"/>
      <polygon class="cls-1" points="14.7 20.6 35.13 8.83 38.01 10.48 17.58 22.27 14.7 20.6"/>
      <path class="cls-2" d="M15.32,20.6l2.26,1.32,19.82-11.43-2.26-1.31-19.81,11.43h0ZM17.58,22.58c-.05,0-.1-.01-.15-.04l-2.88-1.66c-.09-.05-.16-.16-.16-.27,0-.1.06-.21.16-.26l20.43-11.79c.09-.06.21-.06.31,0l2.88,1.66c.09.06.15.16.15.27s-.06.21-.15.27l-20.43,11.78s-.1.04-.16.04Z"/>
      <polygon class="cls-4" points="22.59 16.06 21.35 15.34 21.35 14.2 23.41 15.39 35.95 8.15 35.95 9.29 23.41 16.53 22.59 16.06"/>
      <path class="cls-2" d="M21.66,15.16l1.75,1.02,12.24-7.06v-.43l-12.09,6.97c-.09.05-.21.05-.31,0l-1.6-.93v.43h0ZM23.41,16.84c-.05,0-.1,0-.15-.04l-2.06-1.18c-.1-.06-.16-.16-.16-.27v-1.15c0-.11.06-.21.16-.27.09-.05.21-.05.31,0l1.9,1.1,12.4-7.14c.09-.06.21-.06.31,0,.1.05.15.16.15.26v1.14c0,.12-.06.22-.15.27l-12.55,7.23s-.1.04-.16.04Z"/>
      <polygon class="cls-4" points="18.47 12.54 20.53 13.73 33.08 6.49 31.02 5.3 18.47 12.54"/>
      <path class="cls-2" d="M19.09,12.54l1.44.83,11.93-6.88-1.44-.83-11.93,6.88h0ZM20.53,14.03c-.06,0-.11-.01-.15-.05l-2.06-1.19c-.09-.05-.15-.16-.15-.26,0-.11.06-.22.16-.27l12.55-7.24c.09-.05.21-.05.31,0l2.06,1.19c.09.06.15.16.15.27s-.06.21-.16.27l-12.54,7.23s-.1.05-.15.05Z"/>
      <polygon class="cls-4" points="18.47 13.68 18.47 12.54 20.53 13.73 33.08 6.49 33.08 7.63 20.53 14.87 18.47 13.68"/>
      <path class="cls-2" d="M18.78,13.5l1.75,1.02,12.24-7.07v-.43l-12.08,6.97c-.1.06-.21.06-.31,0l-1.6-.92v.43h0ZM20.53,15.18c-.06,0-.11-.02-.15-.04l-2.06-1.19c-.09-.05-.15-.15-.15-.26v-1.15c0-.11.06-.22.16-.27.09-.05.21-.05.31,0l1.9,1.1,12.39-7.15c.09-.05.21-.05.31,0,.1.06.16.16.16.27v1.15c0,.11-.06.21-.16.27l-12.54,7.23s-.1.04-.15.04Z"/>
      <polygon class="cls-4" points="21.35 14.2 23.41 15.39 35.95 8.15 33.9 6.96 21.35 14.2"/>
      <path class="cls-2" d="M21.97,14.2l1.44.83,11.93-6.88-1.44-.84-11.93,6.88h0ZM23.41,15.69c-.05,0-.1,0-.15-.03l-2.06-1.19c-.1-.06-.16-.15-.16-.27s.06-.21.16-.27l12.55-7.23c.1-.06.21-.06.31,0l2.06,1.19c.1.05.15.16.15.26,0,.11-.06.22-.15.27l-12.55,7.24s-.1.03-.16.03Z"/>
      <polygon class="cls-1" points="40.89 12.15 40.89 15.14 20.46 26.91 20.46 23.93 40.89 12.15"/>
      <path class="cls-2" d="M20.77,24.11v2.27s19.81-11.43,19.81-11.43v-2.27l-19.81,11.43h0ZM20.46,27.23c-.05,0-.1-.02-.15-.04-.09-.05-.15-.16-.15-.27v-2.98c0-.11.06-.21.16-.26l20.43-11.79c.09-.06.21-.06.31,0,.1.05.15.16.15.26v2.99c0,.11-.06.21-.15.26l-20.43,11.79s-.1.04-.15.04Z"/>
      <polygon class="cls-3" points="20.46 23.93 20.46 26.91 17.58 25.25 17.58 22.27 20.46 23.93"/>
      <path class="cls-2" d="M17.89,25.08l2.26,1.31v-2.27s-2.26-1.31-2.26-1.31v2.28h0ZM20.46,27.23c-.05,0-.1-.02-.15-.04l-2.88-1.66c-.1-.06-.15-.16-.15-.27v-2.98c0-.11.06-.22.15-.27.09-.05.21-.05.31,0l2.88,1.67c.09.05.15.15.15.26v2.98c0,.11-.06.22-.16.27-.05.03-.1.04-.15.04Z"/>
      <polygon class="cls-1" points="17.58 22.27 38.01 10.48 40.89 12.15 20.46 23.93 17.58 22.27"/>
      <path class="cls-2" d="M18.2,22.27l2.26,1.3,19.81-11.43-2.26-1.3-19.81,11.43h0ZM20.46,24.24c-.06,0-.11-.02-.16-.04l-2.88-1.67c-.1-.05-.15-.16-.15-.26,0-.11.06-.22.15-.27l20.43-11.79c.1-.05.21-.05.31,0l2.88,1.67c.1.05.15.16.15.26,0,.11-.06.22-.15.27l-20.43,11.79s-.1.04-.15.04Z"/>
      <polygon class="cls-4" points="25.47 17.72 24.23 17 24.23 15.86 26.29 17.05 38.83 9.82 38.83 10.96 26.29 18.2 25.47 17.72"/>
      <path class="cls-2" d="M24.54,16.83l1.08.63h0l.67.38,12.24-7.06v-.44l-12.09,6.97c-.09.05-.21.05-.31,0l-1.6-.92v.43h0ZM26.29,18.51c-.05,0-.1-.02-.15-.04l-2.06-1.19c-.09-.05-.15-.16-.15-.27v-1.15c0-.11.06-.21.15-.26.09-.06.21-.06.31,0l1.9,1.09,12.39-7.14c.1-.06.21-.06.31,0,.09.05.15.15.15.27v1.15c0,.1-.06.21-.15.26l-12.55,7.24s-.1.04-.16.04Z"/>
      <polygon class="cls-4" points="24.23 15.86 26.29 17.05 38.83 9.82 36.78 8.62 24.23 15.86"/>
      <path class="cls-2" d="M24.85,15.86l1.44.84,11.93-6.87-1.44-.84-11.93,6.88h0ZM26.29,17.36c-.05,0-.1-.02-.15-.04l-2.06-1.19c-.09-.05-.15-.16-.15-.27,0-.11.06-.21.15-.26l12.55-7.24c.09-.05.21-.05.31,0l2.06,1.19c.09.05.15.15.15.27,0,.1-.06.21-.15.26l-12.55,7.24s-.1.04-.16.04Z"/>
      <path class="cls-2" d="M11.89,10.19c-.17,0-.31-.14-.31-.31v-1.15c0-.16.14-.3.31-.3s.31.14.31.3v1.15c0,.17-.14.31-.31.31Z"/>
      <path class="cls-2" d="M14.77,11.85c-.17,0-.31-.14-.31-.3v-1.15c0-.18.14-.31.31-.31s.31.14.31.31v1.15c0,.16-.14.3-.31.3Z"/>
      <path class="cls-2" d="M20.53,15.18c-.17,0-.31-.14-.31-.31v-1.14c0-.18.14-.31.31-.31s.31.14.31.31v1.14c0,.17-.14.31-.31.31Z"/>
      <path class="cls-2" d="M23.41,16.84c-.17,0-.31-.14-.31-.3v-1.15c0-.17.14-.3.31-.3s.31.13.31.3v1.15c0,.16-.14.3-.31.3Z"/>
      <path class="cls-2" d="M26.29,18.51c-.17,0-.31-.14-.31-.31v-1.15c0-.16.14-.3.31-.3s.31.14.31.3v1.15c0,.17-.14.31-.31.31Z"/>
    </g>
  </g>
</svg>