<?xml version="1.0" encoding="UTF-8"?>
<svg id="Layer_2" data-name="Layer 2" xmlns="http://www.w3.org/2000/svg" viewBox="0 0 81.88 67.41" fill="currentColor">
  <defs>
    <style>
      .cls-1 {
        fill: #fff;
      }

      .cls-1, .cls-2, .cls-3, .cls-4 {
        fill-rule: evenodd;
      }

      .cls-2 {
        fill: #1a87c7;
      }

      .cls-3 {
        fill: #bdedf8;
      }

      .cls-4 {
        fill: #66ceef;
      }
    </style>
  </defs>
  <g id="_Layer_" data-name="&amp;lt;Layer&amp;gt;">
    <g>
      <path class="cls-4" d="M5.02,3.59C8.16,1.72,13.53.83,16.71.63c3.3-.21,5.61,2.28,5.61,6.74,0,6.04-4.24,13.38-9.45,16.4-5.62,3.24-8.03-.25-8.75-1.72C2.35,18.43.16,14.37.7,10.34c.35-2.56,2.05-5.4,4.31-6.74Z"/>
      <path class="cls-2" d="M5.32,4.12c-1.98,1.18-3.67,3.84-4.01,6.3-.49,3.57,1.37,7.31,3.01,10.61l.36.75c.37.74,1.2,2.06,2.75,2.53,1.43.43,3.15.07,5.13-1.08,5.04-2.91,9.16-10.03,9.16-15.86,0-2.23-.61-3.98-1.73-5.05-.84-.79-1.97-1.15-3.23-1.08-2.75.18-8.24.97-11.42,2.88h0ZM8.65,25.71c-.54,0-1.08-.07-1.57-.23-2-.61-3.06-2.25-3.51-3.17l-.37-.74C1.5,18.12-.44,14.2.09,10.25c.4-2.86,2.28-5.81,4.61-7.19h0C8.09,1.04,13.83.2,16.67.01c1.63-.1,3.06.39,4.14,1.41,1.39,1.3,2.14,3.36,2.14,5.95,0,6.22-4.4,13.82-9.79,16.93-1.63.94-3.14,1.42-4.52,1.42Z"/>
      <path class="cls-3" d="M5.02,3.59C8.16,1.72,13.53.83,16.71.63c1.08-.07,2.05.15,2.87.63-2.12,2.03-4.35,4.42-5.98,6.89L4.72,3.78c.09-.07.19-.13.3-.19Z"/>
      <path class="cls-2" d="M6.02,3.74l7.37,3.62c1.29-1.85,3.01-3.84,5.11-5.91-.54-.18-1.11-.25-1.76-.2-2.56.16-7.48.86-10.73,2.49h0ZM13.6,8.77c-.08,0-.17-.02-.26-.07L4.44,4.33c-.21-.1-.33-.29-.35-.51-.02-.22.08-.43.28-.55.1-.07.2-.14.33-.21h0C8.09,1.04,13.83.2,16.67.01c1.2-.07,2.28.17,3.22.72.17.1.28.27.31.47.02.19-.05.38-.19.51-2.54,2.41-4.52,4.69-5.89,6.78-.13.18-.31.28-.52.28Z"/>
      <path class="cls-4" d="M13.76,2.52c5.24-3.01,9.46-.57,9.46,5.47s-4.22,13.38-9.46,16.39c-5.23,3.02-9.47.58-9.47-5.46S8.52,5.54,13.76,2.52Z"/>
      <path class="cls-2" d="M13.76,2.52h.02-.02ZM17.98,1.84c-1.18,0-2.52.41-3.91,1.21h0c-5.06,2.92-9.16,10.03-9.16,15.86,0,2.69.86,4.68,2.47,5.6,1.58.92,3.74.68,6.07-.66,5.06-2.92,9.16-10.03,9.16-15.86,0-2.69-.87-4.67-2.47-5.59-.62-.37-1.35-.55-2.15-.55h0ZM9.53,26.29c-1.01,0-1.94-.23-2.78-.71-1.98-1.15-3.08-3.51-3.08-6.66C3.67,12.69,8.06,5.1,13.45,1.98c2.72-1.57,5.32-1.81,7.32-.66,1.98,1.15,3.08,3.51,3.08,6.66,0,6.22-4.38,13.82-9.77,16.93-1.6.92-3.15,1.38-4.54,1.38Z"/>
      <path class="cls-1" d="M15.71,28.05l-6.97-4.03c-1.63-1.03-2.17-2.55-2.38-4.39-.09-1.26,0-2.24.21-3.49.66-3.01,1.86-5.47,3.72-7.91,1.28-1.6,2.5-2.78,4.28-3.85,1.88-1.03,3.84-1.62,5.84-.58l6.99,4.03c-2.93-1.54-6.14.47-8.29,2.43-2.35,2.26-3.91,4.78-4.99,7.85-.65,2.05-.97,3.84-.71,5.99.28,1.69.82,3,2.32,3.95Z"/>
      <path class="cls-2" d="M18.21,3.86c-.97,0-2.05.35-3.36,1.06-1.55.94-2.73,2.01-4.08,3.69-1.88,2.47-2.99,4.84-3.6,7.66-.22,1.25-.28,2.19-.21,3.31.25,1.99.85,3.13,2.09,3.92l4.17,2.4c-.22-.57-.35-1.14-.43-1.69-.24-2.07-.03-3.88.73-6.29,1.15-3.25,2.78-5.82,5.15-8.11,1.96-1.78,3.84-2.8,5.6-3.07l-4.17-2.4c-.59-.31-1.22-.48-1.88-.48h0ZM15.71,28.67c-.1,0-.21-.03-.31-.08l-6.97-4.03c-2.02-1.27-2.49-3.17-2.68-4.85-.09-1.27-.04-2.28.23-3.67.63-2.99,1.84-5.58,3.83-8.17,1.46-1.82,2.75-2.98,4.45-4.01,1.74-.95,4.01-1.87,6.44-.59l7,4.04c.3.17.4.54.25.83-.17.29-.54.4-.84.25-2.62-1.37-5.58.51-7.59,2.34-2.21,2.14-3.74,4.55-4.81,7.6-.7,2.21-.91,3.87-.68,5.72.25,1.47.7,2.64,2.04,3.5.28.18.37.56.19.84-.1.19-.31.3-.52.3Z"/>
      <path class="cls-4" d="M22.31,26.4l2.42,18.92c.16,2.03.13,3.36-2.12,4.57-3.69,2.01-4.21,1.95-6.28.93-1.51-.76-1.88-.88-2.38-4.71l-2.33-18.41v.03l.02.02v.02l.02.02h.02v.03l.02.02.02.02.02.02.02.02h.02s.03.02.03.02l3.6,2.09h.02s.04.02.04.02l.02.02h.04s.02.02.02.02h.04s.02.02.02.02h.04s.02.02.02.02h.04s.03,0,.03,0h.02s.03.01.03.01h.05s.07,0,.07,0h.04s.02,0,.02,0h.03s.04-.01.04-.01h.05s.02-.01.02-.01h.04s.03-.02.03-.02h.02s.03-.02.03-.02h.02s.02-.02.02-.02h.04s.02-.02.02-.02l5.87-3.39.02-.02h.02s.03-.03.03-.03v-.02l.02-.02.02-.02.02-.02.02-.02v-.02l.02-.02v-.02l.02-.02h0Z"/>
      <path class="cls-2" d="M12.4,28.97l2.17,17.07c.43,3.43.66,3.55,1.95,4.19,1.91.95,2.19,1.1,5.79-.87,1.95-1.06,1.95-2.1,1.79-3.99l-2.28-17.87-5.25,3.03s-.14.07-.17.08c-.02,0-.14.05-.14.05-.04.01-.14.03-.17.04-.02,0-.14.02-.16.02h-.17s-.14-.01-.16-.02c-.02,0-.13-.02-.16-.03-.02,0-.14-.04-.16-.05l-.14-.06-2.75-1.58h0ZM18.53,52.13c-.76,0-1.48-.27-2.48-.76-1.84-.93-2.22-1.43-2.71-5.18l-2.33-18.41c-.05-.32.17-.63.5-.68.28-.05.54.1.66.33l3.68,2.04,5.93-3.39c.14-.19.38-.31.59-.27.28.04.5.23.53.51l2.42,18.92c.17,2.18.11,3.81-2.44,5.19-2.15,1.18-3.3,1.7-4.36,1.7Z"/>
      <path class="cls-3" d="M22.31,26.4l2.42,18.92c.16,2.03.13,3.36-2.12,4.57-2.68,1.64-4.01,1.18-4.35-1.56l-2.22-18.26h.02s.04-.02.04-.02h.03s.02-.02.02-.02h.03s.02-.02.02-.02l.02-.02h.04s.02-.02.02-.02l5.87-3.39.02-.02h.02s.03-.03.03-.03v-.02l.02-.02.02-.02.02-.02.02-.02v-.02l.02-.02v-.02l.02-.02h0Z"/>
      <path class="cls-2" d="M16.7,30.45l2.17,17.81c.09.73.31,1.64.82,1.89.35.17,1.07.17,2.6-.77,1.96-1.07,1.96-2.11,1.81-4l-2.28-17.87-5.13,2.96h0ZM20.1,51.46c-.35,0-.66-.07-.94-.21-.83-.4-1.32-1.33-1.51-2.85l-2.22-18.26c-.05-.32.17-.61.49-.68l5.87-3.38c.14-.19.38-.31.59-.27.28.04.5.23.53.51l2.42,18.92c.17,2.18.11,3.81-2.44,5.19-1.11.69-2.03,1.03-2.8,1.03Z"/>
      <path class="cls-3" d="M22.05,39.55c-.3.29-.61.38-.87.3l-.79-.24-.05-.02-.05-.02-.04-.03-.05-.03-.04-.03-.05-.04-.03-.04-.04-.05-.04-.05-.03-.05-.04-.06-.03-.06-.02-.07-.02-.06-.04-.07-.02-.07-.02-.08-.02-.08v-.08l-.02-.08v-.33l.02-.08v-.09l.02-.09.02-.08.02-.09.02-.08.02-.08.04-.09.02-.08.03-.08.04-.08.04-.08.03-.08.04-.08.03-.07.06-.08.03-.07.05-.07.04-.07.05-.07.11-.13.07-.06.05-.06.05-.05.05-.05.07-.04.05-.04.05-.03.07-.03.05-.02.05-.02.05-.02.05-.02h.07s.05-.01.05-.01h.11s.05.02.05.02h.05s.76.25.76.25c.26.08.49.33.57.74.19.81-.14,1.94-.76,2.51Z"/>
      <path class="cls-2" d="M20.47,38.85l-.49.42.55-.28.82.27s.12,0,.28-.16c.45-.42.73-1.32.59-1.92-.05-.21-.14-.28-.16-.29l-.78-.24-.47-.47.28.56-.56-.32.38.48-.09.1-.56-.26.47.4-.64-.1.56.27-.62-.12.52.33h-.64s.59.17.59.17h-.64s.57.23.57.23l-.65.12.63.06-.64.12.61.12-.61.21.62-.05-.61.21.63-.03-.52.39.58-.24h0ZM22.05,39.55h.02-.02ZM21.35,40.5c-.13,0-.25-.02-.37-.05l-.76-.24s-.14-.05-.17-.06c-.02-.02-.1-.06-.14-.08-.02,0-.1-.08-.13-.09-.02-.02-.12-.11-.16-.14,0-.02-.14-.18-.14-.19-.02-.02-.09-.15-.1-.17,0,0-.05-.14-.07-.15,0,0-.07-.21-.07-.23,0-.02-.05-.18-.05-.2,0-.02-.02-.19-.04-.21v-.42s0-.19.02-.19c0-.02.02-.2.02-.22,0-.01.03-.2.03-.21,0-.01.05-.19.05-.19,0-.02.07-.2.07-.21,0-.02.07-.19.07-.21,0-.01.08-.18.08-.19,0-.01.09-.17.09-.18.02-.01.11-.17.11-.18.02-.02.12-.17.12-.18l.17-.22s.16-.16.17-.18c.02,0,.14-.11.14-.12.02-.01.14-.11.16-.12.02,0,.21-.1.21-.11.03-.01.17-.07.19-.07.04-.01.17-.04.21-.05.02,0,.15-.02.19-.02,0,.01.17.01.21.02.02,0,.14.03.16.04l.78.24c.5.15.85.58,1.01,1.19.23,1.02-.17,2.38-.94,3.1h0c-.35.32-.75.49-1.13.49Z"/>
      <polygon class="cls-3" points="21.18 39.86 20.4 39.62 20.34 39.61 20.3 39.58 20.26 39.56 20.21 39.53 20.17 39.5 20.12 39.46 20.09 39.42 20.05 39.38 20.01 39.33 19.98 39.28 19.94 39.22 19.91 39.16 19.89 39.09 19.88 39.03 19.84 38.96 19.82 38.88 19.81 38.8 19.79 38.72 19.79 38.65 19.77 38.56 19.77 38.23 19.79 38.14 19.79 38.05 19.81 37.97 19.82 37.88 19.84 37.79 19.86 37.71 19.88 37.63 19.91 37.54 19.93 37.45 19.96 37.37 20 37.28 20.03 37.2 20.06 37.12 20.1 37.04 20.13 36.97 20.19 36.89 20.22 36.82 20.27 36.74 20.31 36.68 20.36 36.61 20.42 36.55 20.47 36.48 20.54 36.43 20.59 36.37 20.64 36.32 20.69 36.27 20.76 36.23 20.81 36.19 20.87 36.16 20.93 36.13 20.99 36.11 21.04 36.08 21.09 36.07 21.14 36.05 21.21 36.05 21.26 36.04 21.32 36.04 21.37 36.05 21.42 36.06 21.47 36.07 22.24 36.3 22.2 36.29 22.16 36.28 22.1 36.28 22.05 36.28 21.98 36.28 21.93 36.29 21.88 36.3 21.82 36.32 21.77 36.34 21.7 36.37 21.65 36.39 21.6 36.43 21.54 36.47 21.47 36.51 21.42 36.56 21.37 36.61 21.3 36.66 21.25 36.72 21.2 36.78 21.14 36.85 21.09 36.91 21.06 36.98 21.01 37.05 20.97 37.13 20.92 37.2 20.88 37.28 20.85 37.36 20.81 37.44 20.78 37.52 20.75 37.6 20.71 37.69 20.69 37.77 20.66 37.86 20.64 37.94 20.62 38.03 20.6 38.12 20.59 38.2 20.57 38.29 20.57 38.37 20.55 38.46 20.55 38.8 20.57 38.88 20.57 38.96 20.59 39.04 20.6 39.12 20.62 39.19 20.64 39.26 20.68 39.33 20.69 39.39 20.73 39.45 20.76 39.51 20.8 39.56 20.83 39.61 20.87 39.65 20.9 39.7 20.96 39.73 20.99 39.77 21.04 39.79 21.08 39.82 21.13 39.84 21.18 39.86"/>
      <path class="cls-2" d="M20.81,36.19l.04.07s0-.01.02-.02l-.05-.05h0ZM20.54,36.43l.08.11s.02-.03.02-.04l-.11-.07h0ZM20.31,36.68l.16.09s0-.02.02-.04l-.17-.06h0ZM20.22,36.82l.14.12s.02-.04.03-.06l-.17-.06h0ZM20.06,37.12l.17.08s.02-.03.02-.05l-.19-.03h0ZM20,37.28l.17.09s.02-.04.02-.07l-.19-.03h0ZM20.09,37.61l-.21.02.19.05s.02-.06.02-.06h0ZM20.05,37.79h-.21s.19.07.19.07v-.06s.02,0,.02-.02h0ZM19.98,38.1l-.19.05h.19v-.05h0ZM19.96,38.27l-.19.04.17.03s.02-.05.02-.07h0ZM19.94,38.58l-.16.06.16-.02v-.04h0ZM19.94,38.75l-.14.05h.14v-.05h0ZM19.98,39.11l-.07.05.07-.03v-.02h0ZM21.14,40.47c-.05,0-.11-.01-.16-.02l-.76-.24s-.14-.05-.17-.06c-.02-.02-.1-.06-.14-.08-.02,0-.1-.08-.13-.09-.02-.02-.12-.11-.14-.13-.02-.01-.16-.19-.16-.2-.02-.02-.09-.15-.1-.17,0,0-.05-.14-.07-.15,0,0-.07-.21-.07-.23,0-.02-.05-.18-.05-.2,0-.02-.02-.19-.04-.21v-.42s0-.19.02-.19c0-.02.02-.2.02-.22,0-.01.03-.2.03-.21,0-.01.05-.19.05-.19,0-.02.07-.2.07-.21,0-.02.07-.19.07-.21,0-.01.08-.18.08-.19,0-.01.09-.17.09-.18.02-.01.11-.17.11-.18.02-.02.12-.17.12-.18.02-.02.12-.16.14-.17,0-.01.13-.14.14-.15,0-.01.14-.13.14-.14.02,0,.14-.1.14-.11.02-.02.16-.1.17-.11.02,0,.21-.1.21-.1.02,0,.14-.05.16-.05.04-.01.17-.04.21-.04h0s.24,0,.24,0c.04,0,.17.02.21.03l.85.25c.31.1.51.43.42.76-.08.32-.42.51-.75.43l-.02-.03-.02.02-.17-.06.03.11-.38-.2.23.32-.58-.28.44.45-.62-.18.52.31-.61-.17.5.37-.64-.05.57.23-.64-.06.56.27-.64.07.61.12-.64.05.59.17-.63.17h.63l-.63.17.63.05-.52.24.05.02.5-.04-.19.15.19.07.07-.03c.31.11.54.5.43.81-.08.27-.31.47-.57.47Z"/>
      <path class="cls-4" d="M28.5,9.6c5.91-3.41,10.71-.64,10.71,6.18s-4.8,15.13-10.71,18.54c-5.91,3.42-10.71.65-10.71-6.18s4.79-15.13,10.71-18.54Z"/>
      <path class="cls-2" d="M33.28,8.75c-1.36,0-2.89.47-4.47,1.38-5.74,3.31-10.4,11.39-10.4,18.01,0,3.07.99,5.34,2.81,6.4,1.83,1.05,4.3.79,6.96-.75,5.73-3.31,10.39-11.39,10.39-18.01,0-3.08-.99-5.34-2.81-6.4-.73-.42-1.58-.63-2.48-.63h0ZM23.72,36.4c-1.13,0-2.17-.27-3.1-.8-2.22-1.28-3.44-3.94-3.44-7.47,0-7.01,4.94-15.57,11-19.07,3.05-1.77,5.96-2.04,8.18-.76,2.23,1.28,3.44,3.94,3.44,7.47,0,7.01-4.94,15.57-11,19.07-1.79,1.03-3.53,1.55-5.09,1.55Z"/>
      <path class="cls-4" d="M26.34,3.21l8.97,5.17c2.43.92,4,3.55,4,7.5,0,7.03-4.94,15.56-11,19.07-3.43,1.98-6.49,1.94-8.5.28l-8.96-5.17c-2.33-2.08-2.64-5.02-2.47-7.97.26-2.53.85-4.52,1.82-6.86.87-1.91,1.76-3.45,2.98-5.15,1.23-1.62,2.38-2.87,3.95-4.19,1.3-1.02,2.38-1.7,3.89-2.36,1.88-.7,3.39-.96,5.32-.32Z"/>
      <path class="cls-2" d="M24.2,3.47c-.99,0-1.93.25-2.98.63-1.34.59-2.36,1.2-3.71,2.27-1.45,1.22-2.56,2.4-3.83,4.07-1.2,1.66-2.07,3.17-2.92,5.04-1.01,2.42-1.53,4.35-1.76,6.67-.15,2.38-.03,5.4,2.25,7.45l8.86,5.09c1.97,1.62,4.82,1.49,7.88-.28,5.9-3.41,10.71-11.72,10.71-18.54,0-3.54-1.32-6.06-3.62-6.92l-8.99-5.18c-.68-.22-1.28-.31-1.89-.31h0ZM23.37,37.07c-1.49,0-2.85-.45-3.97-1.37l-8.87-5.11c-2.78-2.47-2.93-5.85-2.76-8.54.26-2.47.8-4.51,1.88-7.06.89-1.96,1.79-3.53,3.04-5.27,1.34-1.77,2.5-3.01,4.03-4.3,1.46-1.14,2.59-1.82,4.06-2.46,1.93-.71,3.63-1.04,5.77-.34.03.02.07.03.11.05l8.95,5.17c2.71,1.01,4.33,3.95,4.33,8.03,0,7.21-5.09,16-11.33,19.61-1.82,1.06-3.62,1.59-5.23,1.59Z"/>
      <path class="cls-3" d="M26.34,3.21l8.97,5.17c.71.27,1.34.68,1.88,1.23l-11.21,7.8-12.76-7.37h0c1.22-1.61,2.36-2.84,3.91-4.14,1.3-1.02,2.38-1.7,3.89-2.36,1.88-.7,3.39-.96,5.32-.32Z"/>
      <path class="cls-2" d="M14.14,9.85l11.81,6.82,10.26-7.11c-.35-.25-.71-.45-1.11-.6l-8.99-5.18c-1.77-.57-3.18-.29-4.87.32-1.34.59-2.36,1.21-3.71,2.27-1.29,1.07-2.29,2.12-3.37,3.47h0ZM25.98,18.02c-.1,0-.21-.03-.29-.08l-12.76-7.37c-.16-.09-.26-.24-.29-.41-.04-.17,0-.35.11-.49,1.28-1.69,2.48-2.97,3.99-4.24,1.45-1.14,2.58-1.82,4.06-2.46,1.93-.71,3.63-1.04,5.77-.34.03.02.07.03.11.05l8.95,5.17c.71.25,1.43.71,2.04,1.33.12.13.19.3.17.49-.02.18-.13.35-.26.45l-11.23,7.79c-.1.07-.23.11-.35.11Z"/>
      <path class="cls-4" d="M28.31,9.52c6.07-3.51,11-.67,11,6.36s-4.94,15.56-11,19.07c-6.08,3.51-11.02.66-11.02-6.36s4.93-15.56,11.02-19.07Z"/>
      <path class="cls-2" d="M33.21,8.63c-1.39,0-2.96.48-4.61,1.43-5.89,3.41-10.69,11.72-10.69,18.53,0,3.17,1.03,5.51,2.9,6.6,1.9,1.09,4.43.82,7.18-.77,5.9-3.41,10.71-11.72,10.71-18.54,0-3.17-1.04-5.51-2.92-6.59-.76-.44-1.61-.65-2.57-.65h0ZM23.39,37.08c-1.16,0-2.22-.27-3.18-.82-2.28-1.32-3.53-4.04-3.53-7.67,0-7.2,5.08-16,11.32-19.6,3.15-1.81,6.12-2.09,8.39-.77,2.28,1.32,3.55,4.04,3.55,7.66,0,7.21-5.09,16-11.33,19.61-1.82,1.06-3.6,1.59-5.21,1.59Z"/>
      <path class="cls-1" d="M61.02,4.65c-5.54.27-20.6,4.97-25.31,4.5-1.6-.16-3.44.29-5.42,1.43-5.91,3.42-10.71,11.72-10.71,18.55,0,2.38.59,4.27,1.6,5.58,3.32,4.28,7.59,18.2,11.64,23.88-1.82-2.61-2.48-4.72-3-7.83-.59-4.91-.09-8.85,1.11-13.62,1-3.57,2.17-6.51,3.79-9.84,2.5-4.76,5.04-8.48,8.68-12.46,2.48-2.57,4.66-4.46,7.65-6.44,1.96-1.2,3.56-2.01,5.72-2.81,1.53-.48,2.68-.74,4.26-.93h0Z"/>
      <path class="cls-2" d="M35.09,9.73c-1.37,0-2.9.47-4.48,1.38-5.74,3.31-10.4,11.39-10.4,18.01,0,2.16.5,3.96,1.46,5.2,1.67,2.15,3.53,6.57,5.51,11.24.64,1.53,1.29,3.09,1.95,4.59-.49-4.97.12-8.89,1.2-13.17,1.01-3.53,2.15-6.5,3.84-9.96,2.59-4.93,5.2-8.69,8.76-12.61,2.66-2.74,4.9-4.63,7.77-6.54.7-.42,1.34-.79,1.94-1.12-.9.2-1.84.42-2.8.63-5.65,1.29-11.49,2.63-14.2,2.36-.19-.02-.37-.03-.56-.03h0ZM32.82,59.2c-.19,0-.38-.09-.49-.26-2.12-2.96-4.24-8.01-6.31-12.9-1.93-4.6-3.75-8.94-5.33-10.97-1.13-1.45-1.72-3.51-1.72-5.95,0-7.02,4.94-15.57,11.02-19.08,2.02-1.16,4.01-1.69,5.77-1.51,2.5.26,8.26-1.06,13.8-2.34,4.57-1.05,8.9-2.04,11.42-2.16.35,0,.62.23.65.56.03.33-.21.62-.54.67-1.48.18-2.56.41-4.14.91-2,.74-3.51,1.49-5.6,2.75-2.77,1.85-4.96,3.68-7.53,6.35-3.47,3.82-6.05,7.51-8.55,12.32-1.65,3.37-2.78,6.28-3.75,9.72-1.09,4.34-1.7,8.29-1.09,13.38.49,2.89,1.09,4.97,2.9,7.56.21.27.14.66-.14.85-.1.08-.24.11-.37.11Z"/>
      <path class="cls-4" d="M67.43,5.69c-4.97-2.1-9.4-.92-14.06,1.36-4.02,2.21-6.82,4.51-9.98,7.79-3.25,3.57-5.6,6.89-7.96,11.1-2.47,4.71-4.05,8.83-5.16,14.04-.91,4.99-1.12,9.22.29,14.14,1.1,3.08,2.24,5.01,4.87,7l3.11,1.8,3.29,1.89,31.92-55.44-6.31-3.67Z"/>
      <path class="cls-2" d="M62.15,5.21c-3.06,0-5.87,1.1-8.52,2.39-3.65,2.01-6.41,4.16-9.8,7.66-3.13,3.43-5.48,6.72-7.85,10.97-2.56,4.89-4.04,8.91-5.11,13.87-.83,4.73-1.11,8.9.3,13.84.99,2.79,2.03,4.69,4.66,6.67l5.79,3.34,31.31-54.38-5.76-3.34c-1.73-.73-3.41-1.03-5-1.03h0ZM41.83,65.41c-.11,0-.21-.03-.31-.08l-6.38-3.69c-2.94-2.2-4.1-4.34-5.15-7.33-1.5-5.2-1.22-9.54-.33-14.45,1.1-5.09,2.6-9.21,5.23-14.22,2.44-4.35,4.84-7.71,8.03-11.23,3.49-3.61,6.35-5.82,10.15-7.91,4.1-2.01,9.04-3.74,14.6-1.38.02.01.04.02.07.03l6.31,3.67c.29.17.4.54.22.84l-31.91,55.44c-.09.14-.23.25-.38.29-.05.02-.11.02-.16.02Z"/>
      <path class="cls-3" d="M67.43,5.69c-4.97-2.1-9.4-.92-14.06,1.36-3.55,1.94-6.12,3.96-8.87,6.65-3.11,3.56-5.62,6.64-6.73,8.34v.02l14.97,8.65,15.02-10.94,5.98-10.41-6.31-3.67Z"/>
      <path class="cls-2" d="M38.65,21.85l14.06,8.12,14.58-10.63,5.62-9.76-5.76-3.34c-5.07-2.13-9.49-.61-13.52,1.36-3.28,1.8-5.81,3.7-8.69,6.53-2.9,3.33-5.11,6.04-6.29,7.72h0ZM52.75,31.32c-.11,0-.21-.03-.31-.08l-14.97-8.65c-.14-.08-.26-.23-.29-.38-.04-.17,0-.34.08-.48,1.09-1.68,3.5-4.66,6.8-8.43,2.96-2.91,5.63-4.93,9.02-6.79,4.1-2.01,9.04-3.74,14.6-1.38.02.01.04.02.07.03l6.31,3.67c.29.17.4.54.22.84l-5.99,10.41c-.03.07-.08.14-.16.18l-15.02,10.94c-.11.08-.25.12-.37.12Z"/>
      <path class="cls-4" d="M58.62,63.7c12.5-7.22,22.64-24.77,22.64-39.23s-10.13-20.31-22.64-13.08c-12.51,7.22-22.65,24.8-22.65,39.24s10.13,20.29,22.65,13.07Z"/>
      <path class="cls-2" d="M68.72,8.9c-2.99,0-6.33,1.01-9.8,3.02-12.31,7.11-22.34,24.48-22.34,38.7,0,6.76,2.24,11.77,6.33,14.13,4.08,2.35,9.54,1.79,15.4-1.59h0c12.32-7.11,22.34-24.47,22.34-38.69,0-6.76-2.24-11.78-6.33-14.14-1.65-.95-3.54-1.43-5.6-1.43h0ZM48.49,67.41c-2.26,0-4.34-.53-6.2-1.59-4.46-2.58-6.93-7.98-6.93-15.2,0-14.62,10.31-32.46,22.96-39.77,6.24-3.6,12.15-4.17,16.62-1.58,4.48,2.58,6.95,7.98,6.95,15.2,0,14.61-10.29,32.45-22.96,39.76-3.67,2.12-7.22,3.19-10.43,3.19Z"/>
      <path class="cls-4" d="M58.62,58.01c10.01-5.78,18.14-19.82,18.14-31.39s-8.12-16.25-18.14-10.47c-10.01,5.78-18.12,19.84-18.12,31.4s8.12,16.24,18.12,10.46Z"/>
      <path class="cls-2" d="M66.71,14.29c-2.36,0-5,.81-7.77,2.4-9.82,5.68-17.82,19.52-17.82,30.87,0,5.36,1.77,9.34,4.99,11.2,3.23,1.86,7.56,1.41,12.2-1.27h0c9.82-5.67,17.82-19.51,17.82-30.86,0-5.36-1.77-9.34-5-11.2-1.3-.75-2.78-1.13-4.42-1.13h0ZM50.52,61.12c-1.83,0-3.53-.43-5.02-1.29-3.62-2.09-5.62-6.45-5.62-12.27,0-11.74,8.28-26.06,18.43-31.94,5.04-2.91,9.8-3.35,13.44-1.27,3.62,2.1,5.62,6.45,5.62,12.27,0,11.74-8.27,26.06-18.43,31.93-2.95,1.71-5.82,2.57-8.41,2.57Z"/>
      <path class="cls-3" d="M67.64,13.72c-2.66-.22-5.73.55-9.02,2.44-10.01,5.78-18.12,19.84-18.12,31.4,0,3.7.83,6.69,2.3,8.87,2.66.23,5.73-.54,9.02-2.44,10.01-5.77,18.13-19.82,18.13-31.39,0-3.7-.83-6.7-2.3-8.88Z"/>
      <path class="cls-2" d="M43.14,55.83c2.54.14,5.42-.68,8.36-2.38,9.82-5.67,17.82-19.51,17.82-30.86,0-3.32-.7-6.17-2.02-8.28-2.52-.14-5.42.68-8.36,2.37-9.82,5.68-17.82,19.52-17.82,30.87,0,3.31.7,6.16,2.02,8.27h0ZM43.71,57.08c-.33,0-.66-.02-.97-.04-.19-.01-.35-.11-.45-.27-1.58-2.33-2.4-5.51-2.4-9.21,0-11.74,8.28-26.06,18.43-31.94,3.29-1.89,6.53-2.76,9.39-2.51.19.02.35.12.46.27,1.56,2.34,2.4,5.52,2.4,9.22,0,11.74-8.28,26.05-18.43,31.92-2.92,1.69-5.81,2.56-8.42,2.56Z"/>
      <path class="cls-4" d="M52.15,40.79l-9.45-4.49c1.61-4.39,4.05-8.65,7.01-12.29l8.9,5.63-.17-.08-.16-.07-.17-.06-.17-.05-.19-.03-.19-.02h-.4s-.21.03-.21.03l-.21.04-.21.05-.22.07-.23.08-.23.1-.22.11-.25.13-.23.14-.24.15-.22.17-.23.17-.21.19-.22.19-.21.2-.21.22-.19.22-.2.23-.19.24-.17.24-.19.25-.15.26-.17.26-.16.27-.15.27-.14.27-.14.28-.13.28-.12.28-.1.29-.1.28-.08.28-.09.29-.07.29-.07.28-.04.28-.05.28-.02.28-.02.28-.02.28.02.27.02.25.02.25.05.24.04.22.07.22.07.2.09.19.08.18.1.17.1.16.12.15.13.13.14.13.14.1.15.09Z"/>
      <path class="cls-2" d="M43.47,35.99l6.92,3.28-.17-1.11v-.3l.29-2.13,1.12-2.67,1.76-2.31,1.94-1.46.96-.39-6.43-4.07c-2.64,3.35-4.83,7.19-6.38,11.16h0ZM52.15,41.41c-.08,0-.17-.02-.26-.06l-9.47-4.49c-.28-.14-.42-.47-.31-.77,1.65-4.46,4.12-8.77,7.13-12.47.19-.24.54-.29.8-.13l8.88,5.63c.29.17.38.54.21.83-.16.29-.52.39-.82.24l-.97-.23-1.25.33-1.65,1.15-1.6,1.99-1.15,2.63-.25,1.81.39,1.73.66.69c.27.18.36.53.2.82-.12.2-.33.32-.54.32Z"/>
      <path class="cls-3" d="M55.37,40.47c-2.5,1.46-4.55.28-4.55-2.63s2.05-6.44,4.55-7.89c2.52-1.45,4.55-.27,4.55,2.63s-2.03,6.44-4.55,7.89Z"/>
      <path class="cls-2" d="M57.4,29.94c-.52,0-1.09.18-1.72.54-2.35,1.36-4.24,4.65-4.24,7.36,0,1.17.37,2.03,1.03,2.41.66.38,1.58.27,2.61-.31h0c2.33-1.36,4.24-4.66,4.24-7.36,0-1.17-.36-2.03-1.02-2.42-.26-.15-.56-.22-.89-.22h0ZM53.34,41.71c-.54,0-1.04-.13-1.49-.39-1.06-.61-1.63-1.85-1.63-3.48,0-3.15,2.14-6.85,4.87-8.43,1.41-.82,2.76-.93,3.83-.32,1.06.61,1.65,1.85,1.65,3.48,0,3.15-2.14,6.84-4.87,8.42h0c-.82.47-1.62.71-2.35.71Z"/>
    </g>
  </g>
</svg>