<?xml version="1.0" encoding="UTF-8"?>
<svg id="Layer_2" data-name="Layer 2" xmlns="http://www.w3.org/2000/svg" viewBox="0 0 34.49 48.39" fill="currentColor">
  <defs>
    <style>
      .cls-1 {
        fill: #fff;
      }

      .cls-1, .cls-2, .cls-3, .cls-4 {
        fill-rule: evenodd;
      }

      .cls-2 {
        fill: #1a87c7;
      }

      .cls-3 {
        fill: #bdedf8;
      }

      .cls-4 {
        fill: #66ceef;
      }
    </style>
  </defs>
  <g id="_Layer_" data-name="&amp;lt;Layer&amp;gt;">
    <g>
      <path class="cls-1" d="M15.12,34.62h0c1.54,3.56.8,7.42,4.32,10.75-5.79,2.7-12.26,3.97-17.36,1.02-1.58-.91-1.77-1.29-1.77-2.74s-.03-2.93.02-4.36c.28-2.51,1.55-4.22,3.19-6.05,1.82-1.98,4.1-3.58,5.75-5.72h0c1.83,2.08,4.81,4.74,5.84,7.1h0ZM9.44,27.7h0c-.05-.06-.11-.11-.16-.17l.16.17h0ZM34.17,33.57v-4.82c0-3.85-4.75-5.25-8.03-5.54-.28.57-.56,1.14-.86,1.68,2.58,4.63.37,14.53-2.47,18.72,6.44-3.72,11.36-8.63,11.36-10.05h0Z"/>
      <path class="cls-2" d="M25.63,24.89c2.36,4.49.56,13.25-1.92,17.83,6.02-3.68,10.16-8.06,10.16-9.15v-4.82c0-4.14-5.89-5.04-7.55-5.21-.23.46-.46.91-.69,1.35h0ZM22.81,43.93c-.09,0-.16-.04-.23-.1-.1-.11-.11-.26-.03-.38,2.76-4.06,4.95-13.92,2.46-18.4-.05-.1-.05-.21,0-.3.3-.54.57-1.11.85-1.67.05-.11.17-.18.3-.18,4.02.35,8.32,2.06,8.32,5.84v4.82c0,1.66-5.15,6.63-11.53,10.32-.04.03-.09.04-.15.04h0ZM9.29,27.99c-.93,1.14-2.03,2.14-3.1,3.1-.82.75-1.68,1.52-2.43,2.35-1.48,1.67-2.83,3.37-3.1,5.87-.03,1-.03,2.05-.03,3.07,0,.43,0,.85,0,1.27,0,1.34.11,1.62,1.61,2.48,5.32,3.08,11.93,1.29,16.66-.84-2.08-2.15-2.56-4.5-3.02-6.78-.26-1.25-.52-2.54-1.05-3.75h0c-.74-1.7-2.56-3.62-4.18-5.3-.48-.51-.95-.99-1.36-1.45h0ZM8.77,48.39c-2.35,0-4.69-.48-6.84-1.72C.3,45.72.01,45.28.01,43.65c0-.42,0-.83,0-1.26-.01-1.02-.01-2.09.02-3.12.29-2.69,1.71-4.48,3.26-6.24.78-.84,1.65-1.63,2.49-2.39,1.14-1.02,2.31-2.1,3.26-3.31.09-.11.24-.15.37-.09.04.02.07.04.1.08h0l.16.16s.03.04.05.07c.42.46.89.96,1.37,1.47,1.65,1.72,3.52,3.68,4.3,5.48.56,1.28.82,2.6,1.08,3.89.49,2.4.95,4.68,3.16,6.77.08.07.11.18.1.27-.02.11-.09.19-.18.24-3.05,1.41-6.93,2.73-10.8,2.73Z"/>
      <path class="cls-1" d="M9.28,27.52c.24-.32.97-1.07,1.17-1.4.39-.67.37-.93.46-1.7,3.36,3.87,11.25,6.15,14.27.65h0c.86,2.04-1.58,5.98-4.72,7.16-2.3.86-5.82.33-7.59-1.3l-3.02-2.74-.58-.66Z"/>
      <path class="cls-2" d="M9.68,27.51l.42.47,2.99,2.72c1.63,1.5,5.03,2.07,7.28,1.24,1.76-.66,3.48-2.35,4.29-4.2.3-.69.42-1.33.4-1.87-1.09,1.58-2.73,2.52-4.75,2.74-3.06.31-6.8-1.13-9.14-3.49-.05.37-.15.67-.43,1.16-.14.23-.47.61-.79.96-.09.09-.17.19-.24.27h0ZM17.99,32.93c-1.98,0-4.08-.64-5.32-1.78l-3.02-2.75-.61-.69c-.1-.1-.1-.27-.01-.39.1-.12.25-.3.43-.5.27-.3.61-.69.71-.87.32-.54.34-.75.4-1.35l.03-.24c0-.12.09-.23.21-.26.12-.03.24,0,.33.09,2.17,2.52,5.99,4.1,9.08,3.78,2.08-.22,3.7-1.28,4.68-3.07.06-.11.18-.18.29-.17.12,0,.23.08.27.19.33.79.23,1.87-.26,3.03-.87,2-2.73,3.82-4.63,4.53-.78.3-1.68.43-2.59.43Z"/>
      <path class="cls-1" d="M23.32,27.69c1.27-1.22,2.31-3.44,3.3-5.47,1.35-2.76,1.28-5.93,1.29-8.48l-.46-1.5c-.16-.63-.17-1.29-.19-1.92-.02-.83-.03-1.6-.45-1.98-.69-.63-1.77.32-3.03,1.44-.86.76-1.8,1.59-2.82,2.18-1.02.59-1.96.84-2.82,1.08h0c-.84.22-1.58.42-2.2.94-.95.8-.9,1.45-.89,2.6.02,1.08.07,2.15-.59,4.45-.09-.58-.21-1.17-.44-1.71-1.2-2.9-4.06-1.89-4,.87.01.28.04.56.1.83.17.77.61,1.67.96,2.33.12.21-.03.79-.14,1.11,2.43,2.75,5.94,4.62,8.74,4.62,1.25,0,2.72-.51,3.63-1.39Z"/>
      <path class="cls-2" d="M11.3,24.38c2.38,2.64,5.73,4.39,8.4,4.39h0c1.24,0,2.62-.52,3.42-1.29h0c1.15-1.11,2.11-3.08,3.03-4.98l.2-.4c1.24-2.55,1.25-5.51,1.27-7.88v-.41l-.45-1.47c-.17-.68-.19-1.35-.2-2.01-.02-.75-.03-1.46-.36-1.76-.49-.44-1.52.48-2.62,1.45-.85.76-1.82,1.61-2.88,2.22-1.05.61-2.03.87-2.88,1.1-.83.22-1.53.41-2.09.88-.81.69-.8,1.21-.78,2.25v.28c.03,1.05.04,2.15-.6,4.37-.04.14-.16.24-.31.22-.15-.01-.27-.12-.29-.27-.09-.63-.22-1.17-.42-1.64-.45-1.11-1.23-1.69-2.03-1.52-.69.15-1.41.91-1.37,2.27,0,.25.03.51.09.77.13.58.44,1.34.93,2.24.12.23.1.62-.06,1.18h0ZM19.69,29.39c-2.87,0-6.48-1.89-8.97-4.73-.08-.08-.1-.19-.07-.3.16-.48.18-.8.16-.88-.5-.96-.84-1.77-.98-2.4-.07-.3-.11-.6-.11-.89-.03-1.46.73-2.65,1.87-2.89.86-.18,2.03.22,2.72,1.89.06.17.12.33.17.5.3-1.34.28-2.15.27-2.94v-.28c-.03-1.08-.03-1.86,1-2.73.66-.56,1.46-.77,2.31-1,.88-.24,1.76-.48,2.75-1.05,1-.57,1.94-1.41,2.77-2.14,1.37-1.22,2.56-2.26,3.44-1.44.52.48.54,1.32.56,2.2,0,.62.02,1.26.17,1.84l.46,1.5s.02.06.02.09v.45c-.02,2.44-.02,5.48-1.33,8.15l-.2.4c-.95,1.95-1.93,3.97-3.15,5.15-.93.89-2.43,1.47-3.85,1.47h0Z"/>
      <path class="cls-4" d="M7.86,6.88c-2.24,4.1-.83,15.31,3.03,17.75.08-.2.34-1.02.2-1.28-.36-.66-.79-1.56-.96-2.33-.83-3.69,3.56-5.43,4.34.02.66-2.3.61-3.36.59-4.45-.02-1.15-.06-1.8.89-2.6.62-.51,1.36-.71,2.2-.94h0c.87-.24,1.8-.49,2.82-1.08,1.02-.59,1.95-1.42,2.82-2.18,1.27-1.12,2.35-2.07,3.03-1.44.42.38.43,1.15.45,1.98.02.63.03,1.29.19,1.92l.46,1.5c.13-1.99.09-4.3-.19-6.2-.53-3.66-2.17-3.8-6.68-6.19-.72-.38-1.66-1.01-3.05-1.05-3.41-.11-8.45,3.85-10.13,6.56Z"/>
      <path class="cls-2" d="M8.12,7.03c-2.1,3.85-.85,14.33,2.6,17.1.08-.28.12-.56.09-.64-.5-.96-.84-1.77-.98-2.4-.3-1.32.02-2.59.84-3.3.57-.5,1.32-.65,2-.4.5.19,1.33.74,1.81,2.31.3-1.34.28-2.15.27-2.94v-.28c-.03-1.08-.03-1.86,1-2.73.66-.56,1.46-.77,2.31-1,.88-.24,1.76-.48,2.75-1.05,1-.57,1.94-1.41,2.77-2.14,1.37-1.22,2.56-2.26,3.44-1.44.52.48.54,1.32.56,2.2,0,.5.02,1.02.1,1.51.01-1.51-.08-2.99-.26-4.23-.42-2.9-1.53-3.44-4.49-4.92-.6-.31-1.28-.63-2.04-1.03l-.3-.18c-.66-.36-1.48-.81-2.61-.85h-.13c-3.29,0-8.12,3.85-9.73,6.42h0ZM10.89,24.94c-.05,0-.11-.02-.17-.05-4-2.52-5.45-13.91-3.13-18.16t0-.02C9.3,3.97,14.3,0,17.85,0h.15c1.28.04,2.21.56,2.88.93l.3.17c.75.4,1.43.73,2.03,1.02,2.99,1.5,4.36,2.17,4.82,5.39.27,1.81.34,4.08.2,6.27,0,.15-.13.27-.28.29-.14.02-.29-.08-.32-.22l-.47-1.51c-.17-.68-.19-1.35-.2-2.01-.02-.75-.03-1.46-.36-1.76-.49-.44-1.52.48-2.62,1.45-.85.76-1.82,1.61-2.88,2.22-1.05.61-2.03.87-2.88,1.1-.83.22-1.53.41-2.09.88-.81.69-.8,1.21-.78,2.25v.28c.03,1.05.04,2.15-.6,4.37-.04.14-.16.24-.31.22-.15-.01-.27-.12-.29-.27-.23-1.66-.86-2.8-1.71-3.12-.46-.16-.97-.07-1.37.29-.51.45-.95,1.39-.65,2.71.13.58.44,1.34.93,2.24.24.44-.16,1.49-.17,1.54-.03.09-.1.16-.19.18-.03,0-.07.02-.1.02Z"/>
      <path class="cls-1" d="M20.87,31.28c-5.6-.51-8.68-.64-11.6-3.76,1.83,2.08,4.81,4.74,5.84,7.1,1.54,3.56.8,7.42,4.32,10.75l3.37-1.75c2.62-3.74,5.21-13.79,2.47-18.72l-.1.17c.28,2.65-1.86,3.92-3.91,5.99h0l-.4.23h0Z"/>
      <path class="cls-2" d="M11.96,29.93c1.39,1.48,2.78,3.09,3.44,4.57.56,1.28.82,2.6,1.08,3.89.48,2.35.93,4.56,3.01,6.61l3.11-1.62c2.31-3.36,4.76-12.2,2.89-17.3-.23,1.67-1.44,2.79-2.82,4.06-.38.36-.78.73-1.18,1.13-.02.02-.04.04-.07.05l-.39.23c-.05.03-.12.04-.18.04l-.74-.06c-3.46-.3-5.98-.53-8.15-1.6h0ZM19.44,45.68c-.08,0-.16-.03-.22-.09-2.36-2.22-2.86-4.7-3.34-7.09-.26-1.25-.52-2.54-1.05-3.75-.74-1.7-2.56-3.62-4.18-5.3-.57-.61-1.13-1.18-1.61-1.73-.11-.12-.1-.31.03-.42.12-.11.31-.11.43.02,2.7,2.9,5.52,3.15,10.66,3.6l.64.06.28-.16c.39-.4.79-.77,1.17-1.12,1.58-1.46,2.83-2.61,2.63-4.59,0-.06.01-.12.03-.18l.1-.17c.05-.11.16-.17.27-.17.09.02.22.06.27.17,2.94,5.27.02,15.47-2.49,19.05-.04.03-.07.07-.11.09l-3.37,1.76s-.1.04-.14.04Z"/>
      <path class="cls-2" d="M19.62,35.43s-.06,0-.09-.02c-.17-.05-.25-.23-.2-.39l1.18-3.64c.05-.15.23-.25.39-.19.07.02.12.07.16.12-.03-.13.03-.27.16-.34.15-.07.34-.02.42.14l1.28,2.5c.08.15.03.34-.13.42-.15.08-.34.02-.42-.14l-1.27-2.48c.02.05.01.11,0,.16l-1.18,3.63c-.04.14-.16.22-.3.22Z"/>
      <path class="cls-2" d="M17.16,45.69c-.1,0-.2-.04-.26-.13l-4.6-6.94c-.05-.08-.07-.17-.04-.25l.41-1.48-1.61-3.75c-.06-.16.01-.34.16-.41.16-.06.34,0,.41.17l1.64,3.86c.03.06.03.13.01.2l-.39,1.44,4.52,6.81c.1.15.06.34-.09.42-.05.03-.11.05-.16.05Z"/>
      <path class="cls-2" d="M26.62,39.88s-.05,0-.08-.01c-.17-.03-.26-.21-.23-.37l1.77-7.3-.71-.82c-.04-.06-.07-.12-.07-.19l-.15-4.08c0-.17.12-.31.3-.32.14-.02.31.13.32.29l.14,3.97.75.86c.06.08.09.17.06.27l-1.81,7.46c-.03.14-.15.24-.29.24Z"/>
      <path class="cls-3" d="M15.75,32.8c.92,1.17,1.13,2.95.88,4.57l4.1-2.63,1.16-.55,3.23-1.24c-.28-1.44-.06-2.77.02-4.02l-3.58,3.5-.98.31-4.83.06Z"/>
      <path class="cls-2" d="M16.33,33.11c.55.97.79,2.26.69,3.66l3.56-2.28,1.2-.57,3.02-1.17c-.17-1.07-.09-2.06-.01-3.02v-.02l-2.99,2.93s-.08.06-.12.08l-.98.31s-.06.02-.09.02l-4.27.05h0ZM16.63,37.69c-.06,0-.12-.02-.17-.05-.11-.07-.16-.18-.14-.3.27-1.74-.04-3.36-.81-4.33-.08-.09-.09-.22-.04-.33.05-.11.15-.18.28-.18l4.78-.06.87-.28,3.53-3.45c.09-.1.23-.12.34-.06.12.05.19.17.18.3-.02.28-.03.56-.06.84-.08.99-.17,2.02.04,3.1.02.15-.05.3-.19.35l-3.23,1.24-1.15.55-4.07,2.61c-.05.03-.1.05-.16.05Z"/>
      <path class="cls-3" d="M21.51,34.72c1.71-.73.83-2.97-.28-2.56-1.85.69-1.52,3.34.28,2.56Z"/>
      <path class="cls-2" d="M21.5,32.42s-.11.01-.16.03c-.56.21-.94.65-1.03,1.18-.05.35.04.66.24.82.24.19.58.11.83,0,.87-.37.84-1.13.69-1.52-.11-.27-.32-.51-.58-.51h0ZM21.51,34.72h0,0ZM20.91,35.18c-.36,0-.6-.14-.74-.24-.38-.3-.56-.82-.47-1.39.12-.76.65-1.38,1.43-1.67.6-.22,1.24.12,1.52.83.31.79.07,1.84-1.02,2.31h0c-.28.12-.52.17-.72.17Z"/>
      <path class="cls-2" d="M21.51,44.57h-.03c-.17-.02-.3-.16-.29-.34.33-3.66.33-6.58,0-9.47-.02-.17.11-.32.28-.34.18,0,.32.11.34.27.33,2.94.33,5.9,0,9.6-.02.16-.15.28-.3.28Z"/>
    </g>
  </g>
</svg>