<?xml version="1.0" encoding="UTF-8"?>
<svg id="Layer_2" data-name="Layer 2" xmlns="http://www.w3.org/2000/svg" viewBox="0 0 23.3 43.75" fill="currentColor">
  <defs>
    <style>
      .cls-1 {
        fill: #fff;
      }

      .cls-1, .cls-2, .cls-3, .cls-4 {
        fill-rule: evenodd;
      }

      .cls-2 {
        fill: #1a87c7;
      }

      .cls-3 {
        fill: #bdedf8;
      }

      .cls-4 {
        fill: #66ceef;
      }
    </style>
  </defs>
  <g id="_Layer_" data-name="&amp;lt;Layer&amp;gt;">
    <g>
      <path class="cls-3" d="M2.33,43.34l-1.62-.93c-.33-.22-.39-.51-.41-.9V13.45c.02-.54.16-.89.41-1.37.28-.45.52-.75.97-1.04l2.96-1.7,1.76-1.02L15.26,3.22l1.54-.89,3.19-1.84c.34-.17.62-.26.98-.09l1.62.94c-.36-.17-.64-.09-.98.1l-3.19,1.83-1.54.89-8.84,5.1-1.76,1.02-2.96,1.71c-.45.28-.7.58-.98,1.03-.25.46-.38.83-.4,1.36v28.08c.02.38.08.66.4.89Z"/>
      <path class="cls-2" d="M20.59.61c-.12,0-.26.04-.46.16L1.85,11.32c-.41.26-.62.53-.87.93-.21.39-.34.71-.36,1.21v28.06c.01.37.07.51.27.64l.74.42s0-.08,0-.11V14.38c.03-.63.19-1.04.44-1.5.29-.47.57-.82,1.08-1.15L21.45,1.16s.08-.03.12-.06l-.76-.43c-.07-.03-.14-.05-.22-.05h0ZM2.33,43.65c-.05,0-.11-.02-.15-.04l-1.62-.94c-.48-.33-.54-.76-.56-1.14V13.45c.02-.63.19-1.04.44-1.51.29-.47.56-.82,1.08-1.15L19.83.23c.35-.18.76-.35,1.26-.11l1.64.95c.14.09.2.26.12.41-.08.15-.25.21-.4.14-.22-.11-.37-.09-.7.09L3.47,12.26c-.41.26-.62.52-.87.92-.21.4-.34.71-.36,1.22v28.06c.02.36.08.5.27.63.14.09.18.28.09.42-.06.1-.16.15-.26.15Z"/>
      <path class="cls-3" d="M21.6,32.69L3.31,43.25c-.76.44-1.38.08-1.38-.79V14.38c0-.88.62-1.95,1.38-2.39l2.96-1.71,1.76-1.02,8.84-5.1,1.54-.89,3.19-1.83c.76-.44,1.38-.08,1.38.8v28.07c0,.88-.62,1.96-1.38,2.39Z"/>
      <path class="cls-2" d="M22.22,1.55c-.13,0-.29.04-.46.14L3.47,12.26c-.66.38-1.23,1.36-1.23,2.12v28.08c0,.3.09.53.25.62.16.09.41.05.67-.09l18.29-10.56h0c.67-.39,1.23-1.37,1.23-2.13V2.23c0-.31-.09-.54-.25-.63-.06-.03-.13-.04-.21-.04h0ZM2.7,43.75c-.19,0-.36-.05-.52-.14-.36-.21-.56-.62-.56-1.16V14.38c0-.99.67-2.16,1.54-2.66L21.45,1.16c.47-.27.93-.3,1.29-.09.36.21.56.62.56,1.16v28.07c0,.99-.68,2.16-1.54,2.66L3.47,43.51c-.26.16-.53.24-.77.24Z"/>
      <path class="cls-1" d="M4.46,13.97v26.72l16.64-9.6V4.36c-5.55,3.21-11.1,6.41-16.64,9.61Z"/>
      <path class="cls-2" d="M4.77,14.15v26.01l16.03-9.26V4.89L4.77,14.15h0ZM4.46,41c-.06,0-.11-.02-.15-.04-.1-.05-.16-.16-.16-.27V13.97c0-.11.06-.22.16-.27L20.95,4.09c.1-.05.21-.05.31,0,.09.06.15.16.15.27v26.73c0,.11-.06.21-.15.26l-16.65,9.61s-.1.04-.15.04Z"/>
      <path class="cls-1" d="M10.28,11.82v-2.74c2.04-1.18,4.08-2.36,6.12-3.54v2.75c-2.04,1.17-4.08,2.35-6.12,3.53h0ZM17.3,8.65v-4.52l-7.92,4.57v4.52l7.92-4.57h0Z"/>
      <path class="cls-2" d="M10.59,9.25v2.02l5.5-3.17v-2.02l-5.5,3.17h0ZM10.28,12.12c-.05,0-.11-.01-.15-.04-.09-.06-.15-.15-.15-.27v-2.74c0-.11.06-.22.15-.27l6.12-3.53c.1-.05.21-.06.31,0,.1.05.15.15.15.26v2.75c0,.1-.06.21-.15.26l-6.12,3.54s-.1.04-.15.04h0ZM17.3,8.65h0,0ZM9.69,8.89l7.31-4.22v3.81l-7.31,4.22v-3.81h0ZM9.38,13.54c-.05,0-.11-.02-.15-.04-.1-.05-.16-.16-.16-.27v-4.52c0-.11.06-.21.16-.26l7.92-4.58c.09-.05.21-.05.31,0,.1.06.16.16.16.27v4.52c0,.11-.06.21-.16.27l-7.92,4.57s-.1.04-.16.04Z"/>
      <polygon class="cls-1" points="9.38 8.71 17.3 4.13 16.21 3.51 15.57 3.13 7.64 7.7 9.38 8.71"/>
      <path class="cls-2" d="M8.26,7.7l1.12.64,7.3-4.22-1.12-.64-7.31,4.22h0ZM9.38,9.02c-.05,0-.11-.02-.15-.04l-1.73-1c-.1-.06-.15-.16-.15-.27s.06-.21.15-.27l7.92-4.57c.09-.05.21-.05.31,0l1.73,1c.1.06.16.16.16.27s-.06.21-.16.27l-7.92,4.57s-.1.04-.16.04Z"/>
      <path class="cls-3" d="M16.74,26.24h0c-.59.37-1.1,1.25-1.13,1.95h0c-.03.71.43.97,1.02.59h0c.59-.37,1.1-1.25,1.13-1.95h0c.03-.7-.43-.97-1.02-.59Z"/>
      <path class="cls-2" d="M17.23,26.37c-.09,0-.21.04-.33.12-.51.33-.96,1.11-.99,1.71,0,.21.04.36.12.42.09.05.25.01.43-.1.51-.32.96-1.1.98-1.7.01-.21-.04-.36-.13-.42-.02-.02-.05-.03-.09-.03h0ZM16.13,29.25c-.18,0-.31-.05-.4-.1-.17-.09-.46-.36-.43-.97.03-.8.59-1.77,1.27-2.2.52-.33.89-.22,1.06-.12.17.11.46.36.44.98-.03.8-.59,1.77-1.27,2.2-.26.16-.48.22-.66.22Z"/>
      <path class="cls-4" d="M2.33,43.34l-1.62-.93c-.14-.09-.22-.2-.29-.31-.15-.3-.12-.74-.12-1.07V14.2c0-.52-.03-.97.12-1.47.07-.23.17-.45.29-.65l1.62.94c-.15.25-.27.54-.34.83-.09.38-.07.71-.07,1.11v26.96c0,.29-.02.62.04.89.05.22.15.39.36.54Z"/>
      <path class="cls-2" d="M.84,12.5c-.04.1-.08.21-.11.31-.12.39-.12.75-.11,1.15v.23s0,26.98,0,26.98c0,.27,0,.6.09.78.04.07.1.14.19.2l.74.42c-.01-.16-.01-.34-.01-.5v-.17s0-27.11,0-27.11c0-.34,0-.65.08-1.02.05-.23.13-.43.22-.64l-1.08-.62h0ZM2.33,43.65c-.05,0-.11-.02-.15-.04l-1.62-.94c-.19-.13-.32-.26-.4-.42-.17-.32-.16-.74-.16-1.08V13.98c0-.44,0-.86.14-1.35.08-.25.18-.49.32-.71.09-.15.27-.19.42-.1l1.62.93c.07.04.12.12.14.19.02.08,0,.17-.03.24-.14.23-.24.48-.3.74-.07.3-.07.57-.07.89v27.29c0,.23,0,.46.03.64.03.17.1.26.24.36.14.09.18.28.08.42-.06.1-.16.15-.26.15Z"/>
      <polygon class="cls-3" points="7.64 8.6 8.41 9.04 8.41 12.67 9.38 13.22 9.38 8.71 7.64 7.7 7.64 8.6"/>
      <path class="cls-2" d="M8.72,12.49l.35.2v-3.81l-1.12-.65v.18l.62.36c.1.05.15.16.15.27v3.45h0ZM9.38,13.54c-.05,0-.11-.02-.15-.04l-.96-.56c-.1-.05-.15-.15-.15-.27v-3.45l-.62-.36c-.1-.05-.15-.15-.15-.26v-.9c0-.11.06-.21.15-.27.09-.05.21-.05.31,0l1.74,1.01c.09.05.15.16.15.26v4.52c0,.11-.06.22-.15.27-.05.03-.1.04-.16.04Z"/>
      <path class="cls-2" d="M14.32,14.54c-.1,0-.21-.06-.26-.16-.09-.15-.03-.34.11-.42l4.32-2.5c.15-.08.33-.03.42.12.08.15.03.34-.12.42l-4.32,2.49s-.1.04-.15.04Z"/>
      <polygon class="cls-1" points="15.44 6.1 15.44 7.64 16.4 8.29 16.4 5.54 15.44 6.1"/>
      <path class="cls-2" d="M15.74,7.47l.35.23v-1.62l-.35.2v1.19h0ZM16.4,8.59c-.06,0-.12-.02-.17-.05l-.96-.65c-.09-.05-.14-.15-.14-.25v-1.54c0-.11.06-.21.15-.26l.96-.56c.1-.06.21-.05.31,0,.1.05.15.15.15.26v2.75c0,.11-.06.22-.16.27-.04.03-.09.04-.14.04Z"/>
      <polygon class="cls-1" points="10.28 10.61 15.44 7.64 16.4 8.29 10.28 11.82 10.28 10.61"/>
      <path class="cls-2" d="M10.59,10.79v.49l5.23-3.02-.39-.26-4.83,2.79h0ZM10.28,12.12c-.05,0-.11-.01-.15-.04-.09-.06-.15-.15-.15-.27v-1.21c0-.11.06-.21.15-.27l5.15-2.97c.1-.06.23-.05.32,0l.96.65c.09.06.14.17.14.27,0,.11-.06.2-.15.25l-6.12,3.54s-.1.04-.15.04Z"/>
      <polygon class="cls-3" points="8.43 22.08 10.4 20.94 10.4 18.76 12.28 17.67 12.28 15.4 10.4 16.49 10.4 14.31 8.43 15.45 8.43 17.62 6.54 18.72 6.54 20.98 8.43 19.9 8.43 22.08"/>
      <path class="cls-2" d="M8.43,19.59c.05,0,.1.02.15.04.09.05.15.15.15.27v1.64l1.35-.78v-2.01c0-.11.06-.21.16-.27l1.73-1v-1.56l-1.43.82c-.09.06-.21.06-.31,0-.1-.05-.16-.16-.16-.26v-1.65l-1.35.78v2c0,.11-.06.21-.15.27l-1.73,1v1.56l1.42-.83s.1-.04.16-.04h0ZM8.43,22.39c-.05,0-.11-.02-.16-.05-.09-.05-.15-.16-.15-.26v-1.65l-1.43.83c-.09.05-.21.05-.31,0-.09-.05-.15-.15-.15-.27v-2.27c0-.12.06-.21.15-.27l1.73-1v-2c0-.11.06-.22.15-.27l1.97-1.14c.1-.05.21-.05.31,0,.1.06.15.16.15.27v1.64l1.43-.81c.09-.06.21-.06.31,0,.1.05.16.15.16.26v2.28c0,.11-.06.21-.16.26l-1.73,1.01v2c0,.11-.06.21-.15.27l-1.97,1.13c-.05.03-.1.05-.15.05Z"/>
      <path class="cls-2" d="M14.32,18.49c-.1,0-.21-.06-.26-.16-.09-.15-.03-.34.11-.42l4.32-2.49c.15-.09.33-.03.42.11.08.15.03.33-.12.42l-4.32,2.5s-.1.04-.15.04Z"/>
      <path class="cls-2" d="M6.79,26.79c-.11,0-.21-.05-.26-.15-.09-.15-.03-.34.11-.43l11.85-6.84c.15-.09.33-.03.42.12.08.15.03.34-.12.42l-11.85,6.85s-.1.04-.15.04Z"/>
      <path class="cls-2" d="M6.75,34.85c-.11,0-.21-.05-.27-.16-.08-.15-.03-.33.11-.42l3.86-2.22c.14-.09.34-.04.42.11.08.15.03.33-.11.42l-3.86,2.22s-.1.05-.15.05Z"/>
      <path class="cls-2" d="M17.66,24.97c-.25,0-.53.09-.82.26-1.11.65-2.05,2.27-2.05,3.55,0,.56.17.97.49,1.16.32.19.76.13,1.25-.15,1.11-.64,2.05-2.27,2.05-3.55,0-.57-.17-.97-.5-1.16-.12-.08-.26-.11-.42-.11h0ZM15.7,30.66c-.26,0-.51-.07-.73-.19-.52-.3-.8-.9-.8-1.69,0-1.5,1.06-3.33,2.36-4.08.69-.4,1.35-.45,1.86-.16.52.3.8.9.8,1.7,0,1.5-1.06,3.33-2.35,4.08-.4.23-.78.35-1.14.35Z"/>
    </g>
  </g>
</svg>