<?xml version="1.0" encoding="UTF-8"?>
<svg id="Layer_2" data-name="Layer 2" xmlns="http://www.w3.org/2000/svg" viewBox="0 0 33.44 29.08" fill="currentColor">
  <defs>
    <style>
      .cls-1 {
        fill: #fff;
      }

      .cls-1, .cls-2, .cls-3, .cls-4 {
        fill-rule: evenodd;
      }

      .cls-2 {
        fill: #1a87c7;
      }

      .cls-3 {
        fill: #bdedf8;
      }

      .cls-4 {
        fill: #66ceef;
      }
    </style>
  </defs>
  <g id="_Layer_" data-name="&amp;lt;Layer&amp;gt;">
    <g>
      <path class="cls-4" d="M27.98,28.73c-.43-.25-.5-.5-.53-.99v-14.65c0-.16,0-.29-.02-.43-.04-.33-.13-.57-.43-.78l-6.35-3.66c.39.23.51.48.55.89.01.14.01.27.01.41v14.64c.02.4.08.7.42.94l6.35,3.65Z"/>
      <path class="cls-2" d="M21.5,9.05v.03c.01.13.01.24.01.37v14.69c.02.38.09.54.29.69l5.35,3.07s0-.1,0-.14v-14.67c0-.17,0-.28-.02-.4-.03-.29-.11-.43-.3-.56l-5.32-3.07h0ZM27.98,29.03c-.05,0-.11,0-.15-.03l-6.36-3.66c-.5-.34-.56-.79-.58-1.19v-15.03c-.03-.34-.12-.49-.4-.64-.15-.09-.19-.28-.12-.43.09-.15.28-.19.43-.11l6.35,3.66c.44.3.55.69.58,1.01.03.15.03.28.03.43v14.71c.02.42.06.55.37.72.15.09.2.28.11.43-.06.1-.17.15-.27.15Z"/>
      <polygon class="cls-1" points="16.23 10.93 9.97 7.33 10.04 7.33 10.11 7.32 10.18 7.28 16.42 10.89 16.35 10.93 16.29 10.94 16.23 10.93"/>
      <path class="cls-2" d="M16.29,11.25h-.02c-.05,0-.16-.02-.2-.04l-6.24-3.61c-.13-.07-.18-.22-.15-.35.04-.14.15-.23.31-.22l.06-.02c.1-.04.2-.03.28.02l6.25,3.6c.09.06.15.17.15.29,0,.11-.07.22-.17.26l-.07.03s-.11.03-.14.03c-.02,0-.05,0-.06,0Z"/>
      <path class="cls-3" d="M27.24,4.65l-10.81,6.24-6.24-3.61L20.99,1.04c1.23-.62,2.42-.98,3.78-.53l6.24,3.6c-1.36-.45-2.55-.09-3.77.54Z"/>
      <path class="cls-2" d="M10.8,7.28l5.62,3.25,10.66-6.15s.01,0,.02,0c.71-.36,1.52-.7,2.43-.76l-4.92-2.84c-1.29-.42-2.43.02-3.48.55l-10.34,5.96h0ZM16.42,11.19c-.05,0-.1,0-.16-.04l-6.24-3.61c-.09-.05-.16-.16-.16-.27,0-.1.06-.21.16-.26L20.84.78c1.12-.57,2.47-1.09,4.02-.56l6.3,3.63c.14.08.19.24.12.39-.06.14-.23.22-.38.16-1.34-.44-2.48-.02-3.53.51l-10.8,6.24c-.05.03-.11.04-.16.04Z"/>
      <polygon class="cls-3" points="6.55 19.87 .31 16.26 9.82 3.38 16.06 6.99 6.55 19.87"/>
      <path class="cls-2" d="M.76,16.17l5.7,3.3L15.61,7.08l-5.7-3.3L.76,16.17h0ZM6.55,20.17c-.05,0-.11,0-.16-.03L.15,16.53c-.08-.05-.13-.12-.15-.21-.02-.08,0-.17.05-.24L9.57,3.2c.1-.12.27-.17.41-.09l6.24,3.61c.08.04.13.12.15.21.02.08,0,.17-.05.24l-9.52,12.88c-.06.08-.15.12-.24.12Z"/>
      <path class="cls-1" d="M33.13,8.06v16.4c0,.92-.65,2.05-1.45,2.51l-2.77,1.61c-.81.46-1.46.09-1.46-.84v-14.63c0-.57-.04-1.01-.45-1.24-.21-.13-.49-.15-.79-.02-.16.06-.33.16-.49.25l-9.29,5.37c-.2.11-.37.39-.37.63v3.69l-9.51-1.9,9.51-12.88v3.69c0,.23.17.32.37.21l10.81-6.24c3.22-1.72,5.89-.37,5.89,3.41Z"/>
      <path class="cls-2" d="M26.6,11.45c.2,0,.38.05.55.15.56.33.61.9.61,1.51v14.63c0,.33.09.57.27.68.17.1.43.06.72-.1l2.77-1.6c.71-.41,1.31-1.44,1.31-2.25V8.06c0-1.64-.54-2.87-1.51-3.46-1.02-.6-2.42-.49-3.94.32l-10.79,6.24c-.19.11-.4.12-.57.03-.17-.1-.26-.28-.26-.51v-2.76l-8.66,11.74,8.66,1.74v-3.31c0-.34.22-.72.51-.9l9.38-5.41c.15-.09.3-.17.44-.23.17-.07.35-.11.51-.11h0ZM28.25,29.08c-.19,0-.37-.04-.53-.14-.38-.22-.58-.64-.58-1.21v-14.63c0-.62-.07-.84-.3-.98-.18-.1-.39-.06-.53,0-.1.04-.24.11-.35.18l-9.38,5.41c-.11.06-.21.24-.21.37v3.69c0,.09-.04.18-.11.23-.08.06-.17.09-.26.07l-9.51-1.9c-.1-.03-.19-.09-.22-.19-.05-.1-.03-.21.03-.29L15.82,6.8c.08-.11.22-.16.34-.11.13.04.22.16.22.3v3.57l10.71-6.18c1.73-.92,3.34-1.03,4.55-.31,1.17.7,1.82,2.11,1.82,3.98v16.4c0,1.03-.71,2.26-1.61,2.78l-2.78,1.61c-.27.16-.55.23-.8.23Z"/>
    </g>
  </g>
</svg>