<?xml version="1.0" encoding="UTF-8"?>
<svg id="Layer_2" data-name="Layer 2" xmlns="http://www.w3.org/2000/svg" viewBox="0 0 30.33 43.1" fill="currentColor">
  <defs>
    <style>
      .cls-1 {
        fill: #fff;
      }

      .cls-1, .cls-2, .cls-3, .cls-4 {
        fill-rule: evenodd;
      }

      .cls-2 {
        fill: #1a87c7;
      }

      .cls-3 {
        fill: #bdedf8;
      }

      .cls-4 {
        fill: #66ceef;
      }
    </style>
  </defs>
  <g id="_Layer_" data-name="&amp;lt;Layer&amp;gt;">
    <g>
      <path class="cls-3" d="M4.99,42.59l-3.83-2.21c-.28-.33-.28-.42-.33-.84v-11.42l3.83,2.21v11.42c.04.43.05.51.33.85Z"/>
      <path class="cls-2" d="M1.37,40.14l2.99,1.73s0-.04,0-.06v-11.31s-3.21-1.85-3.21-1.85v10.89c.04.36.04.39.23.6h0ZM4.99,42.89c-.05,0-.11-.01-.16-.04l-3.82-2.21s-.06-.04-.09-.07c-.31-.38-.35-.52-.39-.98v-11.49c0-.11.05-.21.15-.26.09-.06.21-.06.3,0l3.82,2.2c.1.06.15.16.15.27v11.42c.04.38.05.4.26.65.1.11.1.28,0,.4-.06.07-.15.11-.23.11Z"/>
      <path class="cls-1" d="M28.94,15.14v12.58c0,1.02-.87,2.36-1.92,2.97l-20.44,11.8c-1.05.61-1.92.28-1.92-.74v-12.58l24.28-14.02Z"/>
      <path class="cls-2" d="M4.96,29.34v12.4c0,.22.05.52.3.66.26.15.7.09,1.17-.18l20.43-11.8c.96-.55,1.77-1.79,1.77-2.7v-12.05L4.96,29.34h0ZM5.6,43.1c-.24,0-.46-.05-.64-.16-.39-.22-.61-.65-.61-1.19v-12.58c0-.11.06-.21.16-.26l24.28-14.02c.1-.06.22-.06.31,0,.09.05.15.16.15.27v12.58c0,1.12-.93,2.57-2.08,3.23l-20.43,11.8c-.4.23-.79.35-1.14.35Z"/>
      <path class="cls-4" d="M4.25,23.06l-2.93-1.69L24.89.46c.15-.12.25-.19.45-.14l2.93,1.69c-.2-.05-.29.02-.45.14L6.09,21.42l-1.84,1.63Z"/>
      <path class="cls-2" d="M1.84,21.31l2.36,1.37L27.57,1.96l-2.34-1.35s-.05.02-.16.09L1.84,21.31h0ZM4.25,23.37c-.05,0-.11-.01-.16-.04l-2.93-1.69c-.09-.05-.15-.14-.16-.24,0-.1.04-.2.1-.26L24.68.23c.18-.14.39-.29.73-.21.03,0,.06.02.09.03l2.93,1.69c.13.08.18.24.13.38-.06.14-.21.22-.36.18-.06-.01-.07-.01-.19.09L4.45,23.29c-.05.05-.13.08-.2.08Z"/>
      <path class="cls-4" d="M29.88,11.92l-2.93-1.69c-.15-.05-.2-.03-.35.03l-.59.34,2.93,1.69.58-.34c.15-.07.2-.09.35-.03Z"/>
      <path class="cls-2" d="M26.64,10.6l2.31,1.34.17-.1-2.32-1.34s-.03.03-.07.05l-.09.06h0ZM28.95,12.59c-.05,0-.1-.01-.15-.04l-2.93-1.69c-.1-.05-.15-.16-.15-.27s.05-.21.15-.27l.59-.33c.2-.1.35-.16.61-.06l2.97,1.71c.14.08.19.25.12.4-.06.14-.23.21-.38.16-.03-.01-.03-.01-.03-.01-.02,0-.04.02-.08.04l-.56.32c-.05.03-.11.04-.16.04Z"/>
      <polygon class="cls-3" points="28.95 12.29 26.02 10.6 22.62 12.56 25.55 14.25 28.95 12.29"/>
      <path class="cls-2" d="M23.24,12.56l2.31,1.34,2.78-1.61-2.31-1.34-2.78,1.61h0ZM25.55,14.56c-.05,0-.11-.02-.16-.04l-2.93-1.69c-.09-.06-.16-.16-.16-.27s.06-.21.16-.27l3.4-1.96c.1-.06.22-.06.31,0l2.93,1.69c.09.06.16.16.16.27s-.06.21-.16.26l-3.4,1.96c-.05.03-.11.04-.16.04Z"/>
      <polygon class="cls-4" points="25.55 14.25 22.62 12.56 19.23 14.52 22.15 16.21 25.55 14.25"/>
      <path class="cls-2" d="M19.84,14.52l2.31,1.34,2.78-1.61-2.31-1.34-2.78,1.61h0ZM22.15,16.52c-.05,0-.11-.01-.16-.04l-2.93-1.69c-.09-.06-.16-.16-.16-.27s.06-.21.16-.27l3.4-1.96c.1-.05.22-.05.31,0l2.93,1.69c.09.06.16.16.16.27s-.06.21-.16.27l-3.4,1.96c-.05.03-.1.04-.16.04Z"/>
      <polygon class="cls-3" points="22.15 16.21 19.23 14.52 15.83 16.48 18.76 18.18 22.15 16.21"/>
      <path class="cls-2" d="M16.45,16.48l2.31,1.34,2.78-1.61-2.31-1.34-2.78,1.61h0ZM18.76,18.48c-.05,0-.11-.02-.16-.04l-2.93-1.69c-.1-.06-.16-.15-.16-.27s.06-.21.16-.26l3.4-1.96c.1-.06.22-.06.32,0l2.93,1.69c.1.06.15.16.15.27s-.05.21-.15.26l-3.4,1.96c-.05.03-.1.04-.15.04Z"/>
      <polygon class="cls-4" points="18.76 18.18 15.83 16.48 12.43 18.45 15.36 20.14 18.76 18.18"/>
      <path class="cls-2" d="M13.04,18.45l2.31,1.34,2.78-1.61-2.31-1.34-2.78,1.61h0ZM15.36,20.44c-.05,0-.11-.01-.16-.04l-2.93-1.69c-.09-.05-.16-.16-.16-.27s.06-.21.16-.27l3.4-1.96c.1-.05.22-.06.3,0l2.94,1.69c.1.05.15.16.15.27s-.05.21-.15.27l-3.41,1.96s-.09.04-.15.04Z"/>
      <polygon class="cls-3" points="15.36 20.14 12.43 18.45 9.03 20.41 11.96 22.1 15.36 20.14"/>
      <path class="cls-2" d="M9.64,20.41l2.32,1.34,2.78-1.61-2.31-1.34-2.79,1.61h0ZM11.96,22.41c-.05,0-.11-.01-.15-.04l-2.93-1.69c-.1-.05-.16-.16-.16-.27s.06-.21.16-.27l3.4-1.96c.09-.05.21-.06.3,0l2.93,1.69c.1.06.16.16.16.27s-.06.21-.16.27l-3.4,1.96s-.1.04-.15.04Z"/>
      <polygon class="cls-4" points="11.96 22.1 9.03 20.41 3.96 23.34 6.89 25.02 11.96 22.1"/>
      <path class="cls-2" d="M4.58,23.34l2.31,1.34,4.45-2.57-2.31-1.34-4.45,2.57h0ZM6.89,25.33c-.05,0-.1-.01-.15-.04l-2.93-1.69c-.1-.06-.16-.16-.16-.27s.06-.21.16-.27l5.07-2.93c.09-.05.21-.05.3,0l2.93,1.69c.09.06.16.16.16.27s-.06.21-.16.27l-5.07,2.92s-.1.04-.15.04Z"/>
      <polygon class="cls-4" points="6.89 25.02 3.96 23.34 6.76 25.97 9.69 27.66 6.89 25.02"/>
      <path class="cls-2" d="M6.11,24.93l.87.81.59.34-.86-.81-.6-.34h0ZM9.69,27.97c-.05,0-.1-.02-.15-.04l-2.93-1.69-2.87-2.68c-.12-.11-.12-.28-.04-.41.1-.13.27-.16.4-.08l2.93,1.69s.04.03.06.04l2.81,2.63c.11.11.13.28.03.41-.06.08-.16.13-.25.13Z"/>
      <path class="cls-4" d="M9.69,27.66l19.84-11.46c.28-.15.5-.54.5-.85v-3.12c0-.31-.22-.44-.5-.28-7.55,4.36-15.1,8.72-22.64,13.07l2.8,2.64Z"/>
      <path class="cls-2" d="M7.4,25.09l2.33,2.2,19.65-11.34c.17-.1.34-.38.34-.59v-3.12l-6.71,3.84-15.61,9.01h0ZM9.69,27.97c-.07,0-.15-.03-.21-.08l-2.81-2.64c-.07-.07-.11-.16-.09-.26.01-.1.06-.18.15-.23l22.65-13.08c.23-.13.46-.14.65-.03.19.11.3.32.3.58v3.12c0,.42-.27.91-.64,1.12l-19.84,11.46s-.11.04-.16.04Z"/>
      <path class="cls-4" d="M28.78,5.71l-.84.74-3.28,2.91-3.29,2.91-3.28,2.91-3.28,2.91-4.24,3.77-3.33,2.95-3.01-1.74,2.76-2.45L27.82,2.15c.26-.23.53-.21.6.05.23.87.47,1.74.7,2.61.07.26-.08.67-.35.9Z"/>
      <path class="cls-2" d="M4.74,23.03l2.44,1.41L28.57,5.48h0c.19-.16.3-.45.26-.59l-.7-2.59s-.06.04-.11.08L4.74,23.03h0ZM7.23,25.12c-.05,0-.1-.01-.16-.04l-3.01-1.73c-.09-.05-.14-.14-.15-.24-.02-.1.03-.2.09-.26L27.62,1.92c.22-.2.48-.28.71-.21.19.06.33.21.39.42l.69,2.6c.1.38-.09.9-.44,1.21L7.43,25.05c-.05.05-.13.08-.2.08Z"/>
      <polygon class="cls-1" points="23.03 19.96 25.55 14.25 28.95 12.29 26.43 18 23.03 19.96"/>
      <path class="cls-2" d="M25.8,14.47l-2.1,4.75,2.5-1.44,2.09-4.75-2.49,1.44h0ZM23.03,20.26c-.07,0-.15-.02-.2-.08-.11-.09-.13-.23-.08-.36l2.52-5.71c.03-.06.07-.11.12-.14l3.4-1.96c.11-.07.26-.05.36.04.09.09.13.23.07.35l-2.51,5.71c-.03.06-.07.11-.13.14l-3.4,1.96s-.1.04-.16.04Z"/>
      <polygon class="cls-1" points="16.24 23.88 18.76 18.18 22.15 16.21 19.63 21.92 16.24 23.88"/>
      <path class="cls-2" d="M19,18.39l-2.1,4.75,2.5-1.44,2.1-4.76-2.49,1.44h0ZM16.24,24.19c-.07,0-.15-.03-.2-.08-.1-.09-.13-.23-.08-.35l2.51-5.71c.03-.06.08-.11.13-.14l3.4-1.96c.11-.07.26-.05.36.04.1.09.13.23.07.35l-2.51,5.71c-.03.06-.07.11-.13.14l-3.4,1.96c-.05.03-.1.04-.16.04Z"/>
      <polygon class="cls-1" points="9.44 27.81 11.96 22.1 15.36 20.14 12.84 25.84 9.44 27.81"/>
      <path class="cls-2" d="M12.19,22.32l-2.09,4.75,2.49-1.44,2.1-4.75-2.5,1.44h0ZM9.44,28.12c-.07,0-.15-.03-.21-.08-.1-.09-.13-.23-.07-.35l2.51-5.71c.03-.06.07-.11.13-.14l3.4-1.96c.11-.07.26-.05.36.04.11.09.13.23.08.36l-2.52,5.7c-.03.06-.07.11-.12.14l-3.4,1.96c-.05.03-.11.04-.16.04Z"/>
      <path class="cls-4" d="M5.44,22.68h0l-3.81-2.2c-.65-.32-1.3.81-1.33,1.41v6.82c.02.21.04.37.23.5l4.25,2.45c-.19-.13-.23-.29-.24-.5v-6.82c.02-.58.69-1.72,1.31-1.41l-.42-.25Z"/>
      <path class="cls-2" d="M1.41,20.73s-.11.01-.17.06c-.31.19-.61.78-.62,1.11v6.81c.01.18.03.21.1.25l3.54,2.04v-6.66c.02-.47.35-1.18.79-1.54l-3.56-2.05s-.04-.02-.08-.02h0ZM4.79,31.98c-.05,0-.12-.02-.16-.04L.38,29.48c-.32-.22-.37-.49-.38-.75v-6.84c.02-.52.4-1.32.92-1.63.28-.17.58-.19.85-.05l3.81,2.2h0l.43.25c.14.08.19.27.11.41-.08.15-.26.21-.41.13-.03-.01-.11-.05-.24.03-.32.19-.62.79-.63,1.12v6.81c.01.18.04.21.1.25.13.09.17.28.08.42-.05.09-.16.14-.25.14Z"/>
      <path class="cls-4" d="M4.55,24.34v6.82c0,.5.36.7.78.45l5.91-3.41c.53-.31.86-1.07.75-1.54-.06-.31-.34-.4-.56-.52-1.83-1.05-3.66-2.1-5.49-3.16-.56-.33-1.41.49-1.41,1.36Z"/>
      <path class="cls-2" d="M5.68,23.22c-.09,0-.17.04-.23.07-.29.16-.58.59-.58,1.05v6.82c0,.14.04.22.07.24.03.02.12.02.24-.05l5.91-3.41c.42-.24.69-.86.62-1.2-.02-.1-.09-.15-.29-.25l-.13-.07c-1.83-1.04-3.66-2.11-5.48-3.17-.04-.02-.09-.03-.13-.03h0ZM4.99,32.03c-.13,0-.25-.03-.36-.09-.24-.14-.38-.42-.38-.77v-6.82c0-.63.36-1.28.9-1.58.33-.19.69-.21.97-.04,1.83,1.06,3.65,2.12,5.48,3.16l.1.06c.21.11.51.27.6.67.14.63-.29,1.51-.91,1.87l-5.9,3.41c-.17.1-.35.15-.5.15Z"/>
      <polygon class="cls-1" points="22.66 11.13 24.14 5.42 27.42 2.51 25.94 8.22 22.66 11.13"/>
      <path class="cls-2" d="M24.41,5.59l-1.2,4.65,2.45-2.18,1.21-4.65-2.46,2.18h0ZM22.66,11.44c-.05,0-.11-.01-.15-.05-.12-.07-.18-.21-.14-.34l1.48-5.71c.02-.06.05-.12.1-.15l3.28-2.91c.1-.09.24-.11.36-.03.12.07.17.21.13.34l-1.48,5.71c-.02.06-.04.11-.09.15l-3.28,2.91c-.06.05-.13.08-.21.08Z"/>
      <polygon class="cls-1" points="16.1 16.96 17.57 11.24 20.86 8.33 19.38 14.04 16.1 16.96"/>
      <path class="cls-2" d="M17.85,11.41l-1.21,4.65,2.46-2.18,1.2-4.65-2.45,2.18h0ZM16.1,17.26c-.06,0-.12-.02-.17-.05-.11-.07-.16-.21-.14-.34l1.48-5.71c0-.06.04-.11.09-.15l3.29-2.91c.1-.09.25-.11.36-.03.11.07.18.21.14.34l-1.48,5.71c-.02.06-.05.12-.09.15l-3.29,2.91c-.05.05-.13.08-.2.08Z"/>
      <polygon class="cls-1" points="9.52 22.78 11 17.07 14.29 14.15 12.81 19.87 9.52 22.78"/>
      <path class="cls-2" d="M11.28,17.23l-1.2,4.65,2.45-2.18,1.21-4.65-2.46,2.18h0ZM9.52,23.09c-.05,0-.11-.02-.15-.05-.12-.07-.17-.21-.14-.34l1.48-5.71c.02-.06.05-.11.09-.15l3.29-2.91c.1-.09.24-.1.37-.03.11.07.17.21.13.34l-1.48,5.71c0,.06-.04.11-.09.15l-3.29,2.91c-.06.05-.13.08-.21.08Z"/>
      <polygon class="cls-3" points="11 17.07 8.07 15.37 11.36 12.46 14.29 14.15 11 17.07"/>
      <path class="cls-2" d="M8.6,15.32l2.36,1.37,2.8-2.48-2.37-1.37-2.79,2.48h0ZM11,17.37c-.05,0-.11-.01-.15-.04l-2.93-1.69c-.09-.05-.15-.14-.15-.24-.01-.1.02-.19.1-.26l3.29-2.91c.1-.09.24-.1.36-.04l2.93,1.69c.09.05.14.14.15.23.02.1-.03.19-.1.26l-3.29,2.91c-.06.05-.13.08-.21.08Z"/>
      <polygon class="cls-3" points="17.57 11.24 14.64 9.55 17.93 6.64 20.86 8.33 17.57 11.24"/>
      <path class="cls-2" d="M15.17,9.5l2.36,1.37,2.8-2.48-2.36-1.37-2.8,2.48h0ZM17.57,11.55c-.05,0-.1-.01-.16-.04l-2.93-1.69c-.09-.05-.14-.14-.15-.23-.02-.1.03-.2.1-.26l3.28-2.91c.09-.09.24-.11.36-.04l2.93,1.69c.09.05.15.14.16.23,0,.1-.03.2-.1.26l-3.29,2.91c-.05.05-.13.08-.2.08Z"/>
      <polygon class="cls-3" points="24.14 5.42 21.21 3.73 24.49 .82 27.42 2.51 24.14 5.42"/>
      <path class="cls-2" d="M21.74,3.67l2.36,1.37,2.8-2.48-2.37-1.37-2.79,2.48h0ZM24.14,5.73c-.05,0-.1-.01-.15-.04l-2.93-1.69c-.09-.05-.15-.14-.16-.24,0-.1.03-.2.1-.26l3.29-2.91c.1-.09.24-.1.36-.04l2.93,1.69c.09.05.14.14.15.24.02.1-.02.2-.09.26l-3.29,2.91c-.06.05-.13.08-.21.08Z"/>
    </g>
  </g>
</svg>