<?xml version="1.0" encoding="UTF-8"?>
<svg id="Layer_2" data-name="Layer 2" xmlns="http://www.w3.org/2000/svg" viewBox="0 0 37.05 41.27" fill="currentColor">
  <defs>
    <style>
      .cls-1 {
        fill: #fff;
      }

      .cls-1, .cls-2, .cls-3, .cls-4 {
        fill-rule: evenodd;
      }

      .cls-2 {
        fill: #1a87c7;
      }

      .cls-3 {
        fill: #bdedf8;
      }

      .cls-4 {
        fill: #66ceef;
      }
    </style>
  </defs>
  <g id="_Layer_" data-name="&amp;lt;Layer&amp;gt;">
    <g>
      <path class="cls-4" d="M20.98,12.15c-.03.28-.14.48-.37.63l6.24,3.61c.23-.16.34-.37.37-.63v-3.7l-6.24-3.61v3.7h0ZM27.12,22.93l-6.25-3.6c.1.07.11.12.12.23v3.69l6.24,3.61v-3.69c-.01-.12-.01-.18-.1-.24h0Z"/>
      <path class="cls-2" d="M20.98,12.15h0,0ZM21.11,12.71l5.71,3.29c.05-.08.09-.16.09-.28v-3.49l-5.63-3.25v3.19c-.02.2-.08.38-.18.54h0ZM26.86,16.69c-.05,0-.1-.02-.15-.04l-6.24-3.6c-.09-.05-.15-.16-.16-.26,0-.1.05-.2.14-.26.15-.1.21-.22.23-.39v-3.69c0-.11.06-.21.16-.26.09-.06.21-.06.3,0l6.25,3.6c.1.06.16.16.16.27v3.7c-.03.39-.2.68-.5.89-.05.03-.12.05-.18.05h0ZM26.96,23.2h0l.16-.27-.16.27h0ZM21.29,23.08l5.63,3.25v-3.16l-5.63-3.25v3.16h0ZM27.22,27.17c-.05,0-.1,0-.16-.03l-6.24-3.61c-.1-.05-.16-.16-.16-.27v-3.69c-.12-.1-.14-.28-.05-.42.1-.13.27-.16.41-.09l6.24,3.61h.01c.22.13.24.32.25.44v3.75c0,.11-.05.21-.15.27-.05.03-.1.03-.16.03Z"/>
      <path class="cls-3" d="M26.86,16.39l-6.24-3.61-10.67,6.16c-.11.04-.15.07-.26.03l6.24,3.61c.11.04.16.02.26-.03l10.67-6.16Z"/>
      <path class="cls-2" d="M10.4,19.03l5.63,3.24,10.21-5.88-5.62-3.25-10.21,5.89h0ZM16.03,22.91c-.06,0-.13-.02-.21-.04l-6.29-3.62c-.14-.09-.19-.26-.12-.4.07-.15.23-.22.38-.16l10.67-6.17c.09-.05.21-.05.3,0l6.25,3.61c.09.05.16.16.16.27,0,.1-.06.21-.16.26l-10.67,6.16c-.09.04-.19.1-.31.1Z"/>
      <polygon class="cls-3" points="36.75 13.96 30.51 10.36 20.98 8.45 27.22 12.05 36.75 13.96"/>
      <path class="cls-2" d="M27.34,11.77l7.64,1.52-4.58-2.64-7.64-1.53,4.58,2.65h0ZM36.75,14.27s-.04,0-.06,0l-9.53-1.9s-.06-.02-.09-.03l-6.24-3.61c-.13-.08-.19-.24-.14-.37.06-.14.2-.22.36-.19l9.53,1.9s.06.02.09.03l6.25,3.61c.13.07.18.23.13.37-.05.12-.16.2-.29.2Z"/>
      <path class="cls-4" d="M3.88,13.37v22.95c.02.41.09.7.43.95l6.24,3.6c-.35-.23-.41-.54-.43-.94v-22.95c0-.11-.02-.16-.11-.24l-6.24-3.6c.09.07.1.11.1.23Z"/>
      <path class="cls-2" d="M4.19,13.73v22.59c.02.39.08.55.3.69l5.34,3.08c0-.05,0-.1,0-.15v-22.97l-5.63-3.24h0ZM10.55,41.18c-.05,0-.1-.02-.16-.04l-6.24-3.61c-.5-.35-.56-.8-.58-1.19V13.37l.08-.03h-.08c-.12-.11-.15-.28-.05-.41.09-.13.27-.16.41-.07l6.24,3.61c.23.17.26.32.26.5v22.95c.02.38.09.54.3.69.14.1.17.28.09.42-.06.09-.16.15-.26.15Z"/>
      <polygon class="cls-3" points="12.97 3.92 6.72 .31 .31 15.01 6.55 18.61 12.97 3.92"/>
      <path class="cls-2" d="M.7,14.89l5.7,3.29,6.17-14.13L6.87.74.7,14.89h0ZM6.55,18.93c-.05,0-.11-.02-.16-.04L.16,15.28c-.14-.08-.19-.24-.13-.39L6.44.19c.04-.08.1-.15.18-.17.09-.03.17-.02.25.03l6.24,3.61c.14.08.19.24.13.39l-6.41,14.7c-.04.09-.1.15-.18.17-.03,0-.06.02-.09.02Z"/>
      <path class="cls-1" d="M10.13,16.97v22.95c0,.46.16.79.43.94.26.16.63.13,1.02-.1l2.78-1.61c.81-.46,1.46-1.6,1.46-2.53v-4.98c0-.69-.04-1.21.45-2.07.47-.82.89-1.02,1.44-1.34l9.14-5.29c.2-.11.37-.02.37.22v3.69l9.53-12.91-9.53-1.9v3.7c0,.23-.16.51-.37.63l-10.67,6.16c-.2.11-.37.02-.37-.22v-8.65c0-.23.16-.51.37-.64l3.2-1.84-6.41-7.29-6.41,14.7,3.21-1.85c.2-.11.37-.02.37.21Z"/>
      <path class="cls-2" d="M9.93,16.41c.09,0,.17.03.24.07.16.1.26.28.26.5v22.95c0,.33.11.57.28.68.18.09.43.06.72-.1l2.78-1.61c.7-.41,1.31-1.44,1.31-2.26v-5.13c0-.64,0-1.21.49-2.08.48-.84.93-1.09,1.44-1.39l9.26-5.34c.2-.11.41-.12.57-.03.16.1.26.28.26.5v2.75l8.68-11.76-8.68-1.74v3.33c0,.34-.23.73-.52.89l-10.67,6.16c-.2.11-.4.12-.56.03-.17-.09-.26-.28-.26-.5v-8.65c0-.34.22-.73.51-.89l2.87-1.66-5.84-6.65-5.85,13.4,2.4-1.38c.1-.06.22-.09.32-.09h0ZM10.93,41.27c-.19,0-.37-.04-.54-.14-.37-.22-.58-.64-.58-1.21v-22.83l-3.1,1.79c-.12.07-.26.05-.37-.03-.1-.1-.13-.23-.08-.36L12.68,3.8c.04-.1.13-.17.24-.18.1-.02.21.02.28.1l6.42,7.3c.06.07.09.16.07.25,0,.09-.07.17-.15.22l-3.19,1.84c-.1.06-.22.24-.22.36v8.53l10.58-6.1c.11-.06.21-.24.21-.36v-3.7c0-.1.04-.18.12-.23.07-.06.17-.09.25-.07l9.53,1.9c.11.03.19.1.23.19.03.1.03.22-.03.3l-9.53,12.91c-.09.1-.22.15-.35.11-.13-.04-.21-.17-.21-.3v-3.57l-9.16,5.28c-.5.29-.83.47-1.22,1.16-.42.73-.42,1.16-.42,1.77v5.13c0,1.05-.7,2.28-1.61,2.8l-2.78,1.6c-.28.16-.55.24-.8.24Z"/>
    </g>
  </g>
</svg>