<?xml version="1.0" encoding="UTF-8"?>
<svg id="Layer_2" data-name="Layer 2" xmlns="http://www.w3.org/2000/svg" viewBox="0 0 29.05 43.82" fill="currentColor">
  <defs>
    <style>
      .cls-1 {
        fill: #fff;
      }

      .cls-1, .cls-2, .cls-3, .cls-4 {
        fill-rule: evenodd;
      }

      .cls-2 {
        fill: #1a87c7;
      }

      .cls-3 {
        fill: #bdedf8;
      }

      .cls-4 {
        fill: #66ceef;
      }
    </style>
  </defs>
  <g id="_Layer_" data-name="&amp;lt;Layer&amp;gt;">
    <g>
      <path class="cls-1" d="M25.26,32.82v-3.56c0-2.84-3.5-3.88-5.92-4.09-.22.46-.45.92-.7,1.37.63,1.51-1.59,3.72-3.9,4.58-1.7.63-3.52.38-5.17-.25-1.74-.69-2.82-1.64-2.65-2.51-1.22,1.57-2.9,2.75-4.24,4.22-.78.86-1.51,1.78-1.96,2.87-.28.67-.37,1.21-.4,1.92v2.88c0,1.07.13,1.35,1.29,2.03,8.97,5.18,23.65-7.36,23.65-9.46Z"/>
      <path class="cls-2" d="M6.7,29.09c-.63.71-1.33,1.35-2.01,1.96-.62.55-1.24,1.12-1.8,1.73-.73.82-1.47,1.73-1.91,2.77-.24.6-.35,1.1-.37,1.82v2.88c0,.96.07,1.14,1.15,1.76,4.96,2.87,11.5-.05,14.95-2.04,4.84-2.79,8.24-6.31,8.24-7.14v-3.56c0-2.95-4.15-3.62-5.43-3.75-.17.36-.36.71-.55,1.06.14.44.1.96-.13,1.49-.56,1.3-2.21,2.69-4.01,3.35-1.6.6-3.41.51-5.39-.25-1.46-.57-2.42-1.3-2.75-2.07h0ZM6.53,43.82c-1.75,0-3.48-.37-5.08-1.29-1.22-.7-1.45-1.07-1.45-2.29v-2.88c.04-.81.15-1.38.43-2.04.47-1.13,1.24-2.09,2.01-2.96.57-.63,1.22-1.21,1.83-1.77.84-.75,1.71-1.54,2.39-2.42.09-.11.24-.15.37-.1.13.06.2.2.18.34-.13.68.86,1.55,2.46,2.17,1.83.7,3.5.79,4.95.25,1.63-.61,3.16-1.88,3.66-3.02.18-.43.21-.83.08-1.15-.04-.09-.03-.18,0-.27.24-.44.47-.9.7-1.35.06-.11.18-.18.3-.18,3,.26,6.2,1.55,6.2,4.39v3.56c0,1.24-3.81,4.94-8.54,7.67-2.49,1.43-6.52,3.33-10.5,3.33Z"/>
      <path class="cls-3" d="M25.26,32.82v-3.56c0-2.57-2.86-3.66-5.2-4,.23.27.36.62.45,1,.23,1.01.04,1.93-.45,2.82-1.8,3.3-5.94,4.83-9.5,4.04-1.8-.41-4.25-1.43-5.18-3.14-.9.86-1.88,1.66-2.72,2.58l-.24.27c-.72.85-1.26,1.57-1.71,2.6-.23.57-.32.97-.39,1.58v.34c0,.96,0,1.92,0,2.88,0,1.07.13,1.35,1.29,2.03,8.97,5.18,23.65-7.36,23.65-9.46Z"/>
      <path class="cls-2" d="M5.33,30.47c-.21.19-.42.38-.63.57-.61.56-1.24,1.13-1.8,1.74l-.24.27c-.71.84-1.22,1.52-1.66,2.51-.21.56-.3.92-.36,1.5v.31s0,2.88,0,2.88c0,.96.07,1.14,1.15,1.76,4.96,2.87,11.5-.05,14.95-2.04,4.84-2.79,8.24-6.31,8.24-7.14v-3.56c0-2.36-2.64-3.25-4.3-3.58.07.15.12.33.16.51.23,1.04.08,2.03-.48,3.04-1.8,3.3-5.94,5.06-9.84,4.19-1.84-.41-4.1-1.39-5.17-2.96h0ZM6.53,43.82c-1.75,0-3.48-.37-5.08-1.29-1.22-.7-1.45-1.07-1.45-2.29l.02-3.23c.07-.64.17-1.07.4-1.69.48-1.07,1.03-1.82,1.77-2.69l.25-.28c.57-.63,1.22-1.21,1.84-1.77.3-.28.6-.55.9-.83.07-.07.17-.09.26-.08.1,0,.17.07.23.16.86,1.58,3.21,2.59,4.96,2.98,3.58.8,7.52-.87,9.17-3.89.48-.87.61-1.72.42-2.61-.09-.37-.22-.66-.39-.88-.08-.1-.09-.24-.03-.35.06-.11.19-.17.31-.15,1.64.23,5.47,1.13,5.47,4.3v3.56c0,1.24-3.81,4.94-8.54,7.67-2.49,1.43-6.52,3.33-10.5,3.33Z"/>
      <path class="cls-1" d="M6.91,28.36c.18-.24.72-.79.87-1.03.29-.5.28-.69.34-1.26,2.47,2.86,8.28,4.55,10.52.48h0c.63,1.51-1.59,3.72-3.9,4.58-1.7.63-3.52.38-5.17-.25-1.74-.69-2.82-1.64-2.65-2.51Z"/>
      <path class="cls-2" d="M7.21,28.48c-.05.67.92,1.5,2.47,2.1,1.83.7,3.5.79,4.95.25,1.63-.61,3.16-1.88,3.66-3.02.04-.12.09-.24.11-.34-.82,1.01-1.97,1.62-3.36,1.77-2.22.23-4.94-.79-6.69-2.49-.05.22-.13.42-.3.73-.11.18-.35.45-.59.72-.09.11-.18.2-.24.28h0ZM12.62,31.8c-1,0-2.06-.22-3.17-.65-1.97-.77-3.03-1.83-2.84-2.86.01-.05.04-.1.06-.13.07-.1.19-.23.32-.37.19-.21.45-.5.52-.63.23-.38.24-.53.28-.96l.02-.18c.02-.12.11-.21.22-.26.12-.03.24,0,.33.1,1.58,1.83,4.36,2.99,6.62,2.75,1.5-.16,2.68-.92,3.39-2.23.06-.11.17-.18.29-.16.12.01.23.08.27.19.2.48.17,1.04-.08,1.63-.57,1.3-2.21,2.69-4.01,3.35-.69.26-1.43.39-2.22.39Z"/>
      <path class="cls-1" d="M18.89,28.36c1.29-1.24,2.36-3.52,3.37-5.6,1.38-2.83,1.31-6.07,1.33-8.66l-.48-1.55c-.16-.64-.18-1.32-.19-1.96-.02-.85-.03-1.63-.47-2.03-.69-.63-1.8.34-3.1,1.49-.88.78-1.83,1.62-2.89,2.22-1.04.61-2,.87-2.88,1.1h0c-.85.23-1.62.43-2.25.96-.97.82-.93,1.49-.91,2.66.02,1.11.08,2.2-.6,4.56-.11-.81-.34-1.69-.77-2.39-.83-1.34-2.3-1.55-3.16-.43-.63.79-.72,1.85-.51,2.81.18.79.63,1.71.99,2.38.12.22-.03.81-.14,1.14,2.48,2.81,6.08,4.74,8.95,4.73,1.28,0,2.78-.51,3.71-1.42Z"/>
      <path class="cls-2" d="M6.56,24.97c2.44,2.7,5.88,4.5,8.6,4.5h0c1.27,0,2.68-.54,3.5-1.33h0c1.18-1.13,2.16-3.16,3.11-5.11l.2-.4c1.27-2.61,1.29-5.64,1.29-8.07v-.42l-.46-1.5c-.18-.69-.19-1.41-.21-2.05,0-.76-.03-1.49-.36-1.8-.51-.46-1.57.48-2.69,1.48-.89.78-1.87,1.65-2.94,2.27-1.08.61-2.07.89-2.94,1.13h-.03c-.83.23-1.56.42-2.13.9-.82.7-.82,1.23-.81,2.3v.3c.03,1.08.04,2.19-.61,4.47-.04.14-.17.25-.32.22-.14,0-.26-.12-.28-.27-.14-.94-.38-1.71-.74-2.28-.37-.6-.9-.96-1.45-1-.43-.02-.88.18-1.21.6-.49.63-.66,1.56-.43,2.55.14.6.46,1.37.95,2.3.12.23.1.63-.07,1.21h0ZM15.17,30.09c-2.94,0-6.62-1.95-9.18-4.84-.07-.08-.1-.19-.06-.3.16-.49.18-.83.16-.9-.52-.97-.86-1.8-1.01-2.45-.27-1.17-.06-2.29.55-3.07.45-.58,1.05-.88,1.72-.84.76.05,1.46.52,1.95,1.29.21.35.39.76.54,1.22.29-1.38.28-2.22.27-3.03v-.29c-.02-1.15-.03-1.9,1.03-2.79.67-.57,1.48-.79,2.35-1.02,0-.01,0-.01.02-.01.89-.24,1.8-.49,2.82-1.07,1.01-.59,1.93-1.4,2.82-2.19,1.41-1.24,2.62-2.31,3.52-1.49.54.49.55,1.35.57,2.25,0,.63.02,1.29.18,1.89l.48,1.53s0,.06,0,.1v.46c0,2.5-.03,5.61-1.36,8.34l-.2.4c-.97,2.01-1.98,4.08-3.23,5.28-.95.91-2.49,1.5-3.93,1.5h0Z"/>
      <path class="cls-3" d="M3.06,7.06c-2.3,4.19-.85,15.67,3.1,18.16.08-.21.34-1.04.2-1.31-.36-.68-.81-1.59-.99-2.38-.85-3.78,3.65-5.55,4.44.02.68-2.36.62-3.44.6-4.56-.02-1.17-.06-1.84.91-2.66.63-.53,1.4-.73,2.25-.96h0c.89-.24,1.84-.5,2.88-1.1,1.05-.6,2.01-1.44,2.89-2.22,1.31-1.15,2.41-2.12,3.1-1.49.43.4.45,1.18.47,2.03.01.64.03,1.32.19,1.96l.48,1.55c.13-2.04.09-4.41-.2-6.35-.55-3.75-2.23-3.89-6.84-6.33-.74-.39-1.69-1.03-3.13-1.08-3.49-.11-8.65,3.95-10.36,6.72Z"/>
      <path class="cls-2" d="M3.32,7.21c-2.15,3.95-.87,14.7,2.68,17.51.07-.29.12-.58.09-.68-.52-.97-.86-1.8-1.01-2.45-.31-1.35.02-2.64.85-3.37.58-.51,1.35-.67,2.04-.41.52.19,1.37.75,1.87,2.39.29-1.38.28-2.22.27-3.03v-.29c-.02-1.15-.03-1.9,1.03-2.79.67-.57,1.48-.79,2.35-1.02,0-.01,0-.01.02-.01.89-.24,1.8-.49,2.82-1.07,1.01-.59,1.93-1.4,2.82-2.19,1.41-1.24,2.62-2.31,3.52-1.49.54.49.55,1.35.57,2.25,0,.54.02,1.1.12,1.62.02-1.57-.07-3.11-.26-4.41-.44-2.96-1.57-3.54-4.61-5.05-.62-.3-1.3-.65-2.08-1.06l-.32-.17c-.67-.37-1.5-.83-2.67-.87h-.13c-3.36,0-8.33,3.95-9.96,6.57h0ZM6.16,25.53c-.06,0-.12-.02-.17-.05C1.91,22.9.42,11.26,2.79,6.91t.01-.02C4.56,4.05,9.79-.07,13.43.03c1.31.04,2.26.56,2.96.95l.3.17c.76.4,1.45.75,2.07,1.05,3.06,1.53,4.46,2.22,4.94,5.51.27,1.84.35,4.18.2,6.4,0,.15-.12.27-.27.29-.15.02-.28-.07-.33-.22l-.48-1.55c-.18-.69-.19-1.41-.21-2.05,0-.76-.03-1.49-.36-1.8-.51-.46-1.57.48-2.69,1.48-.89.78-1.87,1.65-2.94,2.27-1.08.61-2.07.89-2.94,1.13h-.03c-.83.23-1.56.42-2.13.9-.82.7-.82,1.23-.81,2.3v.3c.03,1.08.04,2.19-.61,4.47-.04.14-.17.25-.32.22-.14,0-.26-.12-.28-.27-.24-1.71-.89-2.87-1.76-3.2-.49-.17-1-.07-1.42.3-.52.46-.97,1.43-.66,2.78.14.6.46,1.37.95,2.3.24.45-.16,1.53-.18,1.57-.03.09-.11.15-.19.18-.03,0-.07.02-.1.02Z"/>
      <path class="cls-4" d="M12.77,17.13c1.66-2.07,1.52-2.98,4.01-4.41,2.82-1.62,5.61-2.53,7.09-2.07.08-4.69-2.22-8.19-6.39-9.62C13.3-.4,9.27.3,5.76,2.96,2.99,5.04.08,11.32,2.06,15.04c1.43,1.36,5.44,2.95,7.52,2.87,1.48-.05,2.8-.37,3.18-.77Z"/>
      <path class="cls-2" d="M12.77,17.13h0,0ZM2.31,14.85c1.44,1.34,5.36,2.82,7.27,2.76,1.49-.06,2.67-.38,2.96-.68.51-.63.84-1.16,1.14-1.62.68-1.06,1.17-1.83,2.95-2.85,2.85-1.63,5.39-2.42,6.94-2.18-.06-4.36-2.3-7.61-6.19-8.95C13.35-.05,9.4.59,5.94,3.2,3.18,5.29.48,11.31,2.31,14.85h0ZM9.45,18.22c-2.13,0-6.1-1.54-7.6-2.96-.03-.02-.04-.04-.06-.08C-.22,11.39,2.63,4.93,5.57,2.7,9.2-.03,13.35-.7,17.59.74c4.28,1.47,6.68,5.09,6.6,9.92,0,.1-.05.18-.13.24-.08.05-.17.07-.27.04-1.31-.41-3.94.37-6.86,2.04-1.64.94-2.08,1.62-2.73,2.64-.31.48-.66,1.02-1.19,1.68,0,.01,0,.02-.02.03-.52.53-2.08.82-3.4.86-.04,0-.1,0-.15,0Z"/>
      <path class="cls-4" d="M15.92,21.75l-5.41-3.12-.92-.73c2.64-3.31,9.72-8.23,13.67-7.88l5.48,3.14c-2.38-.24-5.94,1.62-7.9,2.84-2.13,1.36-4.27,3.04-5.84,5.03l.92.72Z"/>
      <path class="cls-2" d="M10.02,17.85l.68.54,4.12,2.37c1.42-1.75,3.39-3.44,5.87-5.01,1.03-.65,4.28-2.57,6.94-2.88l-4.46-2.54c-3.78-.27-10.39,4.26-13.14,7.52h0ZM15.92,22.07c-.05,0-.1-.02-.16-.04l-5.4-3.13-.97-.75c-.06-.05-.1-.13-.11-.21,0-.08.01-.17.06-.23,2.7-3.4,9.92-8.35,13.94-7.99.04,0,.09.02.12.03l5.49,3.14c.12.07.18.22.14.36-.04.14-.16.23-.32.22-2.6-.26-6.55,2.08-7.71,2.8-2.34,1.49-4.21,3.07-5.57,4.71l.68.53c.13.1.15.29.06.42-.05.09-.15.14-.25.14Z"/>
      <path class="cls-3" d="M28.61,14.33c-.15-.02-.31-.02-.49-.02-.18,0-.37.03-.58.07-.68.1-1.47.34-2.32.69h0c-.89.35-1.83.82-2.8,1.37-1.02.59-2.05,1.26-3.01,1.99-.91.69-1.77,1.44-2.5,2.21-.17.18-.35.36-.5.54-.16.18-.31.37-.49.58l-.92-.72c.16-.21.34-.42.53-.63.18-.21.37-.41.54-.58h0c.78-.81,1.68-1.59,2.63-2.32,1.01-.76,2.08-1.48,3.14-2.08,1-.57,2-1.06,2.95-1.44.92-.37,1.8-.63,2.57-.75.25-.04.5-.06.72-.08.23-.01.46,0,.66.03l-.13,1.16Z"/>
      <path class="cls-2" d="M15.44,20.98l.44.35c.1-.13.2-.24.3-.36.16-.19.34-.38.51-.56.74-.76,1.59-1.52,2.55-2.24.96-.73,1.98-1.41,3.04-2.02.98-.56,1.93-1.02,2.82-1.38.01-.01.02-.01.03-.01.89-.36,1.69-.59,2.37-.7.23-.04.43-.06.62-.07.08,0,.15-.01.22,0l.07-.57c-.11,0-.2,0-.3,0-.22.01-.45.03-.7.07-.73.12-1.57.36-2.5.74-.94.37-1.91.85-2.9,1.41-1.08.62-2.12,1.31-3.1,2.06-.97.74-1.85,1.51-2.61,2.28-.16.18-.35.37-.53.57-.11.13-.22.26-.32.38h0ZM15.92,22.07c-.07,0-.13-.03-.19-.07l-.92-.73c-.07-.04-.1-.12-.12-.2-.01-.09.02-.17.07-.23.17-.21.35-.42.54-.65.19-.21.37-.41.55-.59.77-.8,1.68-1.59,2.68-2.36,1.01-.76,2.07-1.47,3.16-2.1,1.03-.58,2.02-1.08,2.98-1.46.98-.39,1.87-.65,2.64-.77.27-.04.52-.07.76-.08.25-.01.5-.01.7.02.08.01.16.05.21.12.05.06.07.14.06.23l-.13,1.17c-.02.16-.16.29-.34.27-.14,0-.28-.02-.44,0-.17,0-.36.03-.55.05-.65.1-1.41.33-2.26.67-.01,0-.02,0-.03,0-.86.35-1.78.8-2.73,1.35-1.04.59-2.03,1.25-2.97,1.97-.93.71-1.77,1.44-2.48,2.18-.16.17-.33.35-.5.53-.15.17-.3.36-.47.57-.06.08-.15.12-.24.12Z"/>
    </g>
  </g>
</svg>