<?xml version="1.0" encoding="UTF-8"?>
<svg id="Layer_2" data-name="Layer 2" xmlns="http://www.w3.org/2000/svg" viewBox="0 0 38.03 40.8" fill="currentColor">
  <defs>
    <style>
      .cls-1 {
        fill: #fff;
      }

      .cls-1, .cls-2, .cls-3, .cls-4 {
        fill-rule: evenodd;
      }

      .cls-2 {
        fill: #1a87c7;
      }

      .cls-3 {
        fill: #bdedf8;
      }

      .cls-4 {
        fill: #66ceef;
      }
    </style>
  </defs>
  <g id="_Layer_" data-name="&amp;lt;Layer&amp;gt;">
    <g>
      <path class="cls-4" d="M15.59,19.34c0-.55,0-.81.19-1.34.25-.67.73-1.34,1.35-1.71l18.47-10.66c.19-.11.62-.37.83-.46.23-.09.44-.12.68-.06l-3.04-1.76c-.13-.05-.39-.03-.53.01-.14.04-.26.1-.38.16L14.68,14.19c-.22.13-.62.34-.83.5-.73.55-1.29,1.58-1.3,2.5v15.8c0,.29.09.54.3.74l.02.02,3.04,1.76c-.22-.21-.32-.46-.33-.77v-15.42Z"/>
      <path class="cls-2" d="M33.91,3.63s-.17,0-.3.04c-.1.03-.2.07-.31.14L14.66,14.56c-.2.11-.48.27-.63.38-.67.51-1.17,1.46-1.18,2.26v15.8c0,.21.07.39.2.53l2.21,1.28v-15.46h.31-.31.31l-.31-.07c0-.51,0-.82.21-1.38.29-.79.85-1.49,1.48-1.86l18.62-10.74c.18-.11.42-.25.61-.34l-2.28-1.32h0ZM15.91,35.83c-.05,0-.1-.01-.15-.04l-3.04-1.76s-.07-.05-.08-.07c-.26-.26-.4-.59-.4-.97v-15.8c.02-1,.6-2.12,1.43-2.75.18-.14.46-.3.69-.43l.16-.09L33,3.27c.16-.09.31-.15.45-.19.16-.04.5-.1.73,0l3.08,1.78c.13.08.19.24.13.38-.06.14-.21.22-.36.18-.17-.04-.31-.03-.5.05-.14.06-.46.24-.64.35l-.15.09-18.47,10.66c-.51.3-.97.88-1.21,1.54-.17.45-.17.68-.17,1.17v15.48c0,.22.07.4.23.55.11.11.13.28.03.41-.06.08-.15.12-.25.12Z"/>
      <path class="cls-1" d="M29.01,28.84c3.68-1.91,5.11-.25,7.46,1.06.02-1.94.07-3.74-.35-5.39l.07-.04c.85-.49,1.54-1.68,1.54-2.66,0-3.8,0-11.83,0-15.63,0-.97-.69-1.37-1.53-.89-6.36,3.66-12.71,7.33-19.07,11-.84.49-1.53,1.68-1.53,2.65v15.8c0,.39.19.72.52.92.34.19.72.19,1.06,0l11.84-6.83Z"/>
      <path class="cls-2" d="M36.87,5.4c-.16,0-.34.06-.53.17l-19.07,11c-.75.43-1.38,1.52-1.38,2.39v15.8c0,.28.13.51.37.65.24.14.51.14.75,0l11.84-6.83s0,0,.01,0c3.27-1.7,4.87-.7,6.73.45.19.11.37.23.57.35.02-1.71.03-3.32-.35-4.79-.03-.13.03-.27.14-.34l.07-.04c.75-.43,1.38-1.52,1.38-2.39V6.18c0-.35-.1-.62-.29-.73-.07-.04-.16-.06-.25-.06h0ZM16.64,36.12c-.23,0-.47-.06-.68-.19-.43-.25-.68-.68-.68-1.18v-15.8c0-1.09.75-2.38,1.69-2.92l19.07-11c.51-.29,1-.33,1.39-.11.39.23.61.67.61,1.26v15.63c0,1.05-.68,2.26-1.57,2.84.35,1.53.33,3.18.31,4.91v.34c0,.11-.06.21-.16.26-.09.06-.21.06-.31,0-.37-.21-.71-.42-1.04-.63-1.77-1.09-3.16-1.96-6.11-.43l-11.83,6.83c-.22.13-.45.19-.68.19Z"/>
      <path class="cls-3" d="M3.67,16.92c.01-1.06.72-2.27,1.62-2.81L24.85,2.83c.54-.31,1.11-.76,1.72-.5-.44-.25-3.28-1.93-3.48-1.99-.56-.16-1.14.29-1.6.55L2.57,11.81c-.86.5-1.32.73-1.83,1.67-.25.46-.42.97-.42,1.5v16.54c0,.36.09.8.41,1.01l1.14.66c-.29,1.84-.26,3.52-.24,5.36l3.36,1.94c-.03-2.27-.06-3.88.38-6.14l-1.7-.98v-16.45Z"/>
      <path class="cls-2" d="M1.94,38.37l2.74,1.58c-.02-1.95-.02-3.44.35-5.45l-1.51-.87c-.1-.06-.15-.16-.15-.27v-16.45s0,0,0,0c.01-1.16.78-2.48,1.77-3.07L24.92,2.43c.19-.12.4-.25.63-.34-.9-.52-2.37-1.38-2.56-1.46-.32-.09-.75.17-1.13.39l-.22.13L2.61,12.14c-.77.44-1.16.67-1.61,1.49-.25.46-.38.92-.38,1.36v16.54c0,.17.03.59.27.76l1.12.65c.11.07.17.19.15.32-.28,1.74-.26,3.36-.24,5.09v.05h0ZM4.99,40.8c-.05,0-.1-.02-.15-.04l-3.36-1.94c-.09-.06-.15-.16-.16-.26v-.22c-.02-1.68-.04-3.27.22-4.98l-.96-.55c-.37-.25-.57-.7-.58-1.28V14.98c.01-.54.17-1.1.47-1.65.53-.97,1.05-1.27,1.84-1.73L21.54.5c.46-.28,1.02-.63,1.63-.45.13.04.67.33,3.1,1.75l.45.27c.14.08.19.26.12.4-.07.14-.25.21-.4.14-.38-.16-.78.09-1.21.35l-.24.14L5.45,14.38c-.81.48-1.46,1.6-1.47,2.55v16.27s1.54.89,1.54.89c.11.07.17.2.15.33-.41,2.16-.4,3.71-.37,5.86v.22c0,.11-.06.21-.15.27-.05.03-.1.04-.15.04Z"/>
      <path class="cls-1" d="M5.37,34.35h0l-1.16.19-2.91-1.68.57.33v.05c-.27,1.81-.26,3.5-.24,5.31l3.36,1.94c-.02-2.06-.03-3.89.34-5.93l.04-.21Z"/>
      <path class="cls-2" d="M1.94,38.37l2.74,1.58c-.02-1.67,0-3.39.31-5.23l-.73.12c-.07.01-.14,0-.2-.04l-1.95-1.12c-.2,1.61-.19,3.11-.18,4.68h0ZM4.99,40.8c-.05,0-.1-.02-.15-.04l-3.36-1.94c-.09-.06-.15-.15-.16-.26-.02-1.76-.03-3.41.22-5.2l-.39-.22c-.15-.08-.2-.27-.11-.42.09-.15.28-.2.42-.11l.57.33h.01s2.24,1.3,2.24,1.3l1.05-.17c.1-.02.2.02.27.09.07.07.1.17.08.27l-.04.21c-.37,2.06-.35,3.91-.33,5.87,0,.11-.06.21-.16.27-.05.03-.1.04-.15.04Z"/>
      <path class="cls-4" d="M4.22,15.21l-3.36-1.94-.54,1.7.09,17.13c.2.5.77.69,1.46,1.09-.29,1.85-.26,3.5-.24,5.36l3.36,1.94c-.02-2.28-.06-3.86.38-6.14l-1.7-.98c0-2.2-.14-16.23.11-17.15l.44-1.01Z"/>
      <path class="cls-2" d="M3.98,33.37h0,0ZM1.94,38.37l2.74,1.58c-.02-1.95-.02-3.43.35-5.45l-1.51-.87c-.1-.06-.15-.16-.15-.27,0-.41,0-1.23-.01-2.29-.05-8.49-.05-14.29.13-14.94l.35-.8-2.79-1.61-.41,1.29.09,17.01c.13.26.43.42.85.63.15.08.3.16.46.25.11.07.17.19.15.31-.27,1.74-.26,3.26-.24,5.03v.11h0ZM4.99,40.8c-.05,0-.1-.02-.15-.04l-3.36-1.94c-.09-.06-.15-.16-.16-.26v-.28c-.02-1.65-.03-3.21.22-4.92-.09-.05-.18-.09-.26-.14-.52-.27-.96-.5-1.16-1-.01-.03-.02-.07-.02-.11L0,14.98s0-.06.02-.09l.54-1.71c.03-.09.09-.16.18-.19.09-.03.18-.03.26.02l3.36,1.94c.14.08.19.25.13.39l-.44,1.01c-.18.67-.12,10.52-.09,14.73,0,.93,0,1.67.01,2.12l1.55.89c.11.07.17.2.15.33-.41,2.16-.4,3.69-.37,5.82v.26c0,.11-.06.21-.15.27-.05.03-.1.04-.15.04Z"/>
      <path class="cls-2" d="M27.16,16.01c-.1,0-.21-.06-.27-.15-.08-.15-.03-.34.11-.42l6.86-3.96c.15-.08.33-.04.42.11.08.15.03.33-.11.42l-6.86,3.96s-.1.04-.16.04Z"/>
      <path class="cls-2" d="M27.16,19.91c-.1,0-.21-.06-.27-.16-.08-.15-.03-.34.11-.42l5.75-3.32c.15-.08.33-.03.42.11.09.15.04.33-.11.42l-5.74,3.32s-.1.04-.15.04Z"/>
      <path class="cls-2" d="M19.29,28.6c-.1,0-.21-.06-.27-.16-.08-.15-.03-.33.12-.42l14.72-8.49c.14-.08.34-.03.42.11.09.15.04.34-.11.42l-14.72,8.49s-.1.04-.15.04Z"/>
      <path class="cls-1" d="M27.09,20.11c0-4.08,0-12.63,0-16.7,0-1.03-.73-1.45-1.62-.94-6.73,3.88-13.45,7.76-20.18,11.64-.89.52-1.62,1.78-1.62,2.81v16.54c0,1.03.72,1.45,1.62.94l.08-.04c-.45,2.26-.4,4.11-.38,6.14.65-1.11,1.3-2.23,1.94-3.35,4.09-7.15,12.13-10.74,18.49-14.2.46-.25.85-.65,1.18-1.21.33-.55.49-1.1.49-1.62Z"/>
      <path class="cls-2" d="M5.37,34.04c.06,0,.13.02.18.06.1.07.15.19.12.31-.36,1.81-.39,3.37-.38,4.96.46-.79.92-1.58,1.38-2.38,3.65-6.37,10.36-9.93,16.28-13.07.79-.42,1.57-.83,2.33-1.25.41-.22.76-.59,1.06-1.09.3-.51.45-1,.45-1.47h0V3.41c0-.38-.11-.67-.31-.78-.2-.12-.51-.08-.84.11L5.45,14.38c-.8.46-1.47,1.62-1.47,2.54v16.54c0,.38.11.67.31.78.21.12.51.08.84-.11l.08-.04s.1-.04.15-.04h0ZM4.99,40.8s-.05,0-.08-.01c-.13-.04-.23-.16-.23-.3v-.34c-.02-1.73-.04-3.37.28-5.29-.35.1-.69.07-.97-.1-.41-.23-.63-.7-.63-1.32v-16.54c0-1.15.79-2.5,1.78-3.08L25.32,2.2c.53-.31,1.05-.35,1.45-.11.41.23.63.7.63,1.31v16.7c0,.58-.19,1.18-.54,1.78-.36.6-.79,1.05-1.29,1.32-.76.41-1.54.83-2.34,1.25-5.84,3.1-12.47,6.62-16.03,12.84-.64,1.12-1.29,2.23-1.94,3.35-.06.1-.16.16-.27.16Z"/>
      <path class="cls-2" d="M7.6,18.58c-.11,0-.21-.05-.27-.15-.08-.15-.03-.33.11-.42l13.64-7.86c.14-.09.34-.03.42.11.09.15.03.33-.11.42l-13.64,7.86s-.1.04-.15.04Z"/>
      <path class="cls-2" d="M7.59,22.72c-.11,0-.21-.05-.27-.15-.09-.15-.04-.33.11-.42l15.58-8.99c.15-.08.34-.03.42.12.09.15.03.34-.11.42l-15.58,8.99s-.1.04-.15.04Z"/>
      <path class="cls-2" d="M7.59,27.11c-.11,0-.21-.06-.26-.15-.09-.15-.03-.33.11-.42l10.03-5.79c.14-.08.33-.03.42.12.09.15.04.33-.11.42l-10.03,5.79s-.1.04-.15.04Z"/>
      <path class="cls-2" d="M4.08,34.78c-.05,0-.1-.01-.15-.04l-3.25-1.88c-.15-.09-.2-.27-.11-.42.08-.15.27-.2.42-.11l3.25,1.88c.15.08.2.27.11.42-.06.1-.16.15-.27.15Z"/>
    </g>
  </g>
</svg>