<?xml version="1.0" encoding="UTF-8"?>
<svg id="Layer_2" data-name="Layer 2" xmlns="http://www.w3.org/2000/svg" viewBox="0 0 38.77 43.66" fill="currentColor">
  <defs>
    <style>
      .cls-1 {
        fill: #fff;
      }

      .cls-1, .cls-2, .cls-3, .cls-4 {
        fill-rule: evenodd;
      }

      .cls-2 {
        fill: #1a87c7;
      }

      .cls-3 {
        fill: #bdedf8;
      }

      .cls-4 {
        fill: #66ceef;
      }
    </style>
  </defs>
  <g id="_Layer_" data-name="&amp;lt;Layer&amp;gt;">
    <g>
      <path class="cls-3" d="M4.3,27.18l3.03-1.75.22-.07c.47-.13.99-.15,1.48-.07,1.37.21,2.72,1.11,3.71,2.04,2.11,1.98,3.8,5.14,4.04,8.04.08,1,0,2.12-.42,3.04-.17.36-.41.72-.7,1l-.17.15-3.03,1.75c.12-.11.23-.2.33-.32.33-.37.58-.86.73-1.33.43-1.35.27-2.99-.09-4.34-.72-2.69-2.55-5.56-4.85-7.16-.89-.62-2-1.14-3.1-1.17-.3,0-.66.03-.95.12l-.22.07Z"/>
      <path class="cls-2" d="M5.75,26.7c1.18.1,2.28.7,3,1.21,2.25,1.56,4.2,4.43,4.97,7.33.26.97.62,2.85.09,4.51-.06.19-.13.37-.21.54l1.73-1,.12-.12c.23-.23.46-.56.62-.9.45-.96.46-2.1.4-2.88-.23-2.69-1.81-5.84-3.95-7.84-.68-.63-2.03-1.73-3.55-1.96-.47-.07-.95-.05-1.34.06l-.21.07-1.68.97h0ZM12.45,41.61c-.1,0-.19-.05-.25-.13-.09-.13-.07-.31.04-.41.12-.11.21-.19.31-.3.28-.32.52-.75.67-1.22.49-1.51.15-3.26-.09-4.17-.74-2.76-2.59-5.5-4.73-6.98-1.01-.7-2.05-1.09-2.93-1.11-.31,0-.61.04-.86.11l-.21.07c-.15.05-.32-.02-.38-.17-.06-.14,0-.31.13-.39l3.03-1.75.27-.1c.49-.14,1.06-.17,1.62-.08,1.68.26,3.15,1.44,3.88,2.12,2.27,2.13,3.9,5.36,4.14,8.24.07.86.05,2.11-.45,3.2-.19.41-.46.8-.76,1.09l-.18.16-3.08,1.79s-.1.04-.16.04Z"/>
      <path class="cls-1" d="M7.98,41.16c-3.2-1.85-5.79-6.34-5.79-10.03s2.59-5.19,5.79-3.35c3.2,1.85,5.79,6.34,5.79,10.04s-2.59,5.19-5.79,3.34Z"/>
      <path class="cls-2" d="M8.13,40.89c1.45.84,2.8.98,3.79.41,1-.57,1.54-1.81,1.54-3.48,0-3.59-2.53-7.97-5.64-9.77-1.45-.84-2.79-.98-3.79-.41-1,.57-1.54,1.81-1.54,3.49,0,3.59,2.53,7.97,5.63,9.76h0ZM10.57,42.26c-.85,0-1.78-.28-2.74-.83h0c-3.28-1.89-5.94-6.51-5.94-10.3,0-1.9.66-3.33,1.85-4.02,1.19-.69,2.76-.54,4.4.41,3.28,1.89,5.95,6.51,5.95,10.3,0,1.9-.66,3.32-1.85,4.01-.5.29-1.06.43-1.66.43Z"/>
      <path class="cls-1" d="M24.98,14.51l3.27-1.88.24-.08c.5-.14,1.07-.16,1.59-.08,1.48.23,2.93,1.19,4,2.2,2.28,2.13,4.09,5.53,4.35,8.66.09,1.07,0,2.29-.46,3.28-.18.38-.44.78-.75,1.07l-.19.17-3.26,1.88c.13-.12.24-.21.36-.35.36-.4.62-.92.79-1.43.46-1.45.29-3.22-.1-4.68-.78-2.9-2.74-5.99-5.23-7.71-.95-.66-2.16-1.23-3.34-1.26-.33,0-.71.04-1.03.13l-.24.08Z"/>
      <path class="cls-2" d="M26.47,14c1.3.09,2.5.75,3.3,1.3,2.41,1.68,4.51,4.77,5.34,7.88.28,1.05.67,3.07.09,4.85-.07.22-.16.44-.26.65l1.94-1.12.13-.13c.26-.25.5-.6.68-.98.49-1.04.5-2.27.43-3.12-.24-2.91-1.95-6.3-4.26-8.46-.73-.68-2.2-1.86-3.84-2.12-.51-.08-1.03-.06-1.46.07l-.22.08-1.88,1.09h0ZM33.77,30.03c-.09,0-.19-.05-.25-.13-.09-.13-.07-.31.05-.41.13-.12.23-.2.33-.32.3-.34.56-.81.72-1.32.52-1.63.16-3.52-.1-4.5-.8-2.98-2.8-5.94-5.1-7.53-1.09-.76-2.21-1.18-3.17-1.2-.32-.01-.66.04-.94.12l-.22.07c-.15.05-.31-.02-.38-.17-.07-.14-.01-.31.13-.39l3.27-1.89.29-.1c.53-.15,1.14-.18,1.73-.09,1.81.28,3.39,1.55,4.17,2.28,2.44,2.29,4.19,5.77,4.45,8.86.08.92.05,2.27-.48,3.43-.21.45-.5.86-.81,1.17l-.19.17-3.32,1.92c-.05.03-.1.04-.15.04Z"/>
      <path class="cls-3" d="M28.95,29.57c-3.45-1.99-6.24-6.82-6.24-10.81s2.79-5.6,6.24-3.6c3.45,1.99,6.24,6.83,6.24,10.81s-2.8,5.59-6.24,3.6Z"/>
      <path class="cls-2" d="M26.17,14.61c-.54,0-1.04.12-1.47.37-1.08.63-1.67,1.97-1.67,3.78,0,3.88,2.73,8.6,6.09,10.54,1.57.91,3.03,1.06,4.11.44,1.08-.62,1.67-1.96,1.67-3.77,0-3.88-2.73-8.6-6.09-10.54-.94-.54-1.83-.81-2.63-.81h0ZM31.74,30.73c-.91,0-1.91-.3-2.94-.9-3.52-2.03-6.39-7-6.39-11.07,0-2.04.7-3.57,1.98-4.31,1.28-.74,2.95-.58,4.72.44,3.52,2.04,6.4,7,6.4,11.08,0,2.04-.7,3.57-1.98,4.31-.53.31-1.13.46-1.78.46Z"/>
      <path class="cls-1" d="M2.58,27.45l3.26-1.89.24-.08c.5-.15,1.07-.16,1.59-.08,1.48.23,2.93,1.19,4,2.2,2.28,2.13,4.09,5.54,4.35,8.66.09,1.07,0,2.29-.46,3.27-.18.39-.44.78-.75,1.07l-.19.16-3.26,1.89c.13-.12.24-.22.36-.35.36-.4.62-.92.79-1.43.46-1.45.29-3.22-.1-4.68-.77-2.9-2.74-5.99-5.22-7.71-.96-.66-2.16-1.23-3.34-1.26-.33,0-.71.04-1.03.13l-.24.08Z"/>
      <path class="cls-2" d="M4.06,26.94c1.3.09,2.5.75,3.3,1.3,2.41,1.67,4.51,4.77,5.34,7.88.28,1.05.67,3.07.1,4.85-.07.23-.16.44-.26.65l1.93-1.12.13-.13c.26-.25.5-.6.68-.97.48-1.04.5-2.27.43-3.12-.24-2.9-1.95-6.3-4.26-8.46-.73-.68-2.2-1.86-3.84-2.12-.51-.08-1.03-.05-1.46.07l-.22.08-1.88,1.09h0ZM11.37,42.97c-.1,0-.19-.04-.25-.13-.09-.13-.07-.3.04-.41.13-.12.23-.2.33-.32.31-.34.56-.81.72-1.32.52-1.64.16-3.52-.1-4.5-.8-2.98-2.8-5.94-5.1-7.53-1.09-.76-2.21-1.18-3.17-1.2-.3,0-.66.04-.94.12l-.23.07c-.15.05-.31-.02-.37-.17-.07-.14-.01-.31.13-.39l3.26-1.89.29-.1c.53-.15,1.14-.18,1.73-.09,1.81.28,3.39,1.55,4.17,2.28,2.44,2.29,4.19,5.76,4.45,8.86.08.92.06,2.27-.49,3.43-.2.44-.5.86-.81,1.17l-.19.17-3.32,1.92s-.1.04-.15.04Z"/>
      <path class="cls-3" d="M6.55,42.5c-3.45-1.99-6.24-6.83-6.24-10.81s2.79-5.59,6.24-3.6c3.44,1.99,6.24,6.83,6.24,10.81s-2.8,5.59-6.24,3.6Z"/>
      <path class="cls-2" d="M3.76,27.54c-.54,0-1.04.13-1.47.38-1.08.62-1.68,1.96-1.68,3.77,0,3.88,2.73,8.6,6.09,10.54,1.57.91,3.03,1.06,4.1.44,1.08-.62,1.67-1.96,1.67-3.77,0-3.88-2.73-8.61-6.09-10.55-.93-.54-1.83-.81-2.63-.81h0ZM9.34,43.66c-.91,0-1.91-.3-2.94-.9-3.53-2.04-6.39-7-6.39-11.07,0-2.04.7-3.57,1.98-4.31,1.28-.74,2.96-.58,4.72.44,3.53,2.03,6.4,7,6.4,11.08,0,2.04-.7,3.57-1.98,4.3-.53.31-1.13.46-1.78.46Z"/>
      <path class="cls-4" d="M26.39,7.5c-.29-.99-.7-2-1.43-2.76h0c2.3.52,3.88,2.58,4.13,5.85.02.3.03,3.02.03,3.34,0,.43-.02.82-.06,1.26h0v.03l-.12-.07c-.87-.5-1.69-.77-2.44-.84h0c.35-1.55.25-5.19-.12-6.82Z"/>
      <path class="cls-2" d="M26.87,14.05c.62.1,1.27.32,1.93.67.02-.26.02-.51.02-.79,0-.39-.01-3.04-.03-3.32-.2-2.59-1.26-4.45-2.96-5.25.35.56.63,1.23.86,2.06,0,0,0,.01,0,.02.34,1.49.47,4.85.18,6.62h0ZM29.04,15.52s-.09-.01-.13-.04l-.12-.07c-.81-.46-1.58-.73-2.31-.79-.09,0-.17-.05-.22-.12-.05-.07-.07-.16-.05-.25.35-1.57.22-5.14-.12-6.67-.34-1.18-.76-2.01-1.35-2.63-.09-.1-.11-.25-.05-.36.07-.12.2-.18.34-.15,2.52.57,4.11,2.8,4.37,6.12.03.34.03,3.18.03,3.37,0,.46-.02.85-.06,1.29,0,.11-.07.21-.17.26-.05.03-.11.04-.16.04Z"/>
      <path class="cls-4" d="M18.83,1.05c2.32-.86,4.35-1.13,6.61.05l2.43,1.41c-1.69-.89-3.04-.94-4.89-.59-5.06,1.26-8.87,5.38-11.56,9.64-2.1,3.52-3.42,6.9-3.85,11-.02,1.59-.13,3.27-.03,4.87-.86-.5-1.69-.77-2.43-.84-.02-1.58-.03-3.12-.02-4.72.24-3.83,1.32-6.95,3.08-10.33C10.67,7.1,14.06,3.11,18.83,1.05Z"/>
      <path class="cls-2" d="M5.43,26.32c.58.09,1.18.28,1.8.58-.04-1,0-2.02.02-3.02.01-.45.03-.9.03-1.34.4-3.88,1.6-7.32,3.89-11.16,3.42-5.4,7.38-8.68,11.76-9.78.88-.17,1.68-.25,2.48-.18l-.11-.07c-2.34-1.23-4.44-.74-6.35-.04-4.1,1.77-7.63,5.26-10.49,10.36-1.91,3.65-2.82,6.71-3.04,10.2-.01,1.49,0,2.94.01,4.42h0ZM7.56,27.74c-.05,0-.11-.02-.15-.04-.81-.46-1.58-.73-2.31-.8-.16-.01-.28-.14-.28-.3-.02-1.58-.03-3.13-.02-4.72.22-3.6,1.16-6.73,3.11-10.47C10.84,6.17,14.47,2.59,18.71.77c0,0,.01,0,.02,0,2.04-.76,4.29-1.28,6.87.07l2.44,1.41c.15.08.2.27.12.41-.08.15-.27.2-.41.13-1.69-.89-3-.88-4.68-.57-4.2,1.05-8.03,4.24-11.36,9.5-2.24,3.75-3.41,7.11-3.8,10.87,0,.41-.02.86-.03,1.32-.03,1.16-.07,2.36,0,3.51,0,.11-.05.22-.14.28-.05.03-.11.05-.16.05Z"/>
      <path class="cls-3" d="M28.14,29.36c-3.12-1.8-5.65-6.19-5.65-9.79s2.53-5.07,5.65-3.26c3.12,1.8,5.65,6.19,5.65,9.79s-2.53,5.07-5.65,3.26Z"/>
      <path class="cls-2" d="M28.29,29.09c1.41.81,2.72.95,3.69.4.97-.56,1.5-1.76,1.5-3.39,0-3.5-2.47-7.78-5.5-9.53-1.41-.81-2.72-.95-3.69-.4-.97.56-1.5,1.77-1.5,3.39,0,3.5,2.47,7.78,5.5,9.53h0ZM30.67,30.44c-.83,0-1.74-.27-2.68-.82h0c-3.2-1.85-5.81-6.36-5.81-10.06,0-1.86.64-3.25,1.81-3.93,1.17-.67,2.7-.53,4.3.4,3.2,1.85,5.81,6.36,5.81,10.06,0,1.86-.64,3.25-1.81,3.93-.49.28-1.04.42-1.63.42Z"/>
      <path class="cls-4" d="M28.14,27.65c-2.3-1.33-4.17-4.56-4.17-7.22s1.87-3.74,4.17-2.41c2.3,1.33,4.17,4.56,4.17,7.22s-1.87,3.74-4.17,2.41Z"/>
      <path class="cls-2" d="M28.29,27.38c1.02.59,1.95.69,2.64.29.69-.4,1.07-1.26,1.07-2.43,0-2.56-1.8-5.68-4.02-6.96-1.02-.59-1.95-.69-2.64-.29-.69.4-1.07,1.26-1.07,2.43,0,2.55,1.8,5.68,4.02,6.95h0ZM30,28.53c-.63,0-1.31-.21-2.02-.62h0c-2.39-1.38-4.33-4.73-4.33-7.49,0-1.4.49-2.46,1.38-2.97.89-.51,2.04-.41,3.25.29,2.38,1.38,4.33,4.74,4.33,7.49,0,1.4-.49,2.45-1.38,2.97-.37.21-.79.32-1.24.32Z"/>
      <path class="cls-3" d="M19.45,3.35c6.59-3.8,11.93-.72,11.93,6.89v2.91c0,.28-.03.5-.05.78l-2.26,1.3c.04-.46.06-.85.06-1.29,0-.32-.01-3.04-.03-3.34-.42-5.48-4.58-7.58-9.65-4.65-5.15,2.97-9.35,10.03-9.66,16.06-.01.24-.02,2.87-.02,3.11,0,.38.02.74.05,1.09l-.17.12-2.09,1.11c-.02-.33-.03-.67-.03-1.03,0-.37.01-3.16.04-3.54.49-7.37,5.63-15.91,11.88-19.52Z"/>
      <path class="cls-2" d="M19.6,3.61c-6.09,3.52-11.24,11.98-11.73,19.27-.02.36-.04,3.08-.04,3.52,0,.18,0,.36,0,.53l1.65-.88c-.02-.31-.04-.63-.04-.95,0-.15,0-2.87.02-3.12.31-6.15,4.63-13.32,9.82-16.32,2.6-1.5,5.08-1.78,6.99-.77,1.8.95,2.91,2.96,3.12,5.67.03.33.03,3.17.03,3.36,0,.26,0,.5-.02.73l1.61-.93c.02-.21.02-.38.02-.59v-2.91c.01-3.56-1.18-6.21-3.33-7.45-2.15-1.24-5.04-.95-8.12.84h0ZM7.56,27.74c-.05,0-.1-.01-.15-.04-.09-.05-.15-.14-.16-.25-.02-.34-.04-.69-.04-1.05,0-.33.01-3.16.04-3.56.5-7.47,5.79-16.15,12.04-19.76h0c3.28-1.89,6.39-2.19,8.74-.83,2.35,1.36,3.65,4.19,3.65,7.99v2.91c0,.28-.03.5-.05.78-.01.1-.07.22-.16.27l-2.26,1.3c-.1.06-.22.06-.32,0-.1-.06-.15-.17-.14-.29.04-.43.06-.81.06-1.26,0-.39-.01-3.04-.03-3.32-.19-2.48-1.18-4.32-2.79-5.16-1.72-.9-3.98-.64-6.4.76-5.03,2.9-9.2,9.85-9.51,15.81,0,.22-.02,2.75-.02,3.09,0,.37.02.72.05,1.07.01.11-.04.22-.13.28l-.17.12-2.13,1.13s-.09.04-.14.04Z"/>
      <path class="cls-1" d="M6.24,40.51c-2.41-1.39-4.37-4.78-4.37-7.57s1.95-3.92,4.37-2.52c2.41,1.39,4.37,4.78,4.37,7.57s-1.96,3.91-4.37,2.52Z"/>
      <path class="cls-2" d="M4.29,30.13c-.36,0-.7.08-.99.25-.73.42-1.12,1.33-1.12,2.56,0,2.68,1.89,5.96,4.21,7.3h0c1.07.62,2.06.73,2.78.31.73-.42,1.12-1.33,1.12-2.56,0-2.69-1.89-5.96-4.21-7.3-.64-.37-1.25-.56-1.8-.56h0ZM8.19,41.42c-.65,0-1.37-.22-2.11-.64h0c-2.49-1.44-4.52-4.95-4.52-7.83,0-1.46.51-2.56,1.43-3.1.92-.53,2.13-.42,3.39.31,2.49,1.44,4.52,4.96,4.52,7.84,0,1.46-.51,2.56-1.43,3.09-.39.22-.82.33-1.29.33Z"/>
    </g>
  </g>
</svg>