<?xml version="1.0" encoding="UTF-8"?>
<svg id="Layer_2" data-name="Layer 2" xmlns="http://www.w3.org/2000/svg" viewBox="0 0 24.3 40.98" fill="currentColor">
  <defs>
    <style>
      .cls-1 {
        fill: #fff;
      }

      .cls-1, .cls-2, .cls-3, .cls-4 {
        fill-rule: evenodd;
      }

      .cls-2 {
        fill: #1a87c7;
      }

      .cls-3 {
        fill: #bdedf8;
      }

      .cls-4 {
        fill: #66ceef;
      }
    </style>
  </defs>
  <g id="_Layer_" data-name="&amp;lt;Layer&amp;gt;">
    <g>
      <path class="cls-1" d="M1.15,39.41c.37.45.82.92,1.31,1.26l19.32-11.14c.8-.46,1.45-1.59,1.45-2.52V5.95s-5.34-4.12-5.34-4.12l-.41-.08-5.8-.1L1.9,7.27c-.27.16-.52.37-.75.63v31.52Z"/>
      <path class="cls-2" d="M1.46,39.3c.33.4.68.74,1.02,1.01l19.14-11.04c.7-.41,1.3-1.44,1.3-2.25V6.1s-5.16-3.98-5.16-3.98l-.34-.07-5.66-.09L2.05,7.53c-.21.12-.41.28-.59.48v31.29h0ZM2.46,40.98c-.06,0-.12-.02-.18-.05-.58-.41-1.07-.94-1.37-1.32-.05-.05-.07-.12-.07-.19V7.89c0-.07.02-.14.07-.2.25-.29.53-.52.83-.7L11.53,1.39s.09-.04.16-.04l5.8.09.47.09s.09.03.13.06l5.35,4.12c.08.06.12.15.12.25v21.06c0,1.04-.72,2.27-1.62,2.79L2.62,40.94s-.1.04-.15.04Z"/>
      <path class="cls-1" d="M19.87,9.78l2.69-1.55c1.33-.73,2.06-1.37.73-2.41l-5.69-4.43,2.27,3.46v4.94Z"/>
      <path class="cls-2" d="M18.88,2.78l1.25,1.9c.03.05.05.11.05.17v4.4s2.23-1.29,2.23-1.29c.58-.32,1.25-.73,1.28-1.09.02-.27-.31-.59-.59-.81l-4.22-3.28h0ZM19.87,10.09c-.05,0-.11-.01-.15-.04-.1-.06-.16-.15-.16-.27v-4.84s-2.22-3.38-2.22-3.38c-.08-.13-.06-.29.05-.4.11-.1.28-.11.4-.02l5.69,4.43c.59.46.86.9.83,1.34-.05.62-.67,1.08-1.59,1.58l-2.69,1.55s-.1.04-.15.04Z"/>
      <path class="cls-3" d="M2.46,40.67l-1.72-.99c-.38-.31-.4-.5-.44-.97V9.95c.05-1.04.63-2.04,1.51-2.6L12.41,1.23c1.57-.88,2.43-1.33,4.28-.45,1.5.72,2.85,2.22,3.18,4.06v4.94s-1.85-1.06-1.85-1.06v-3.68c.04-1.68-1.86-3.81-4.46-2.49L3.53,8.34c-.88.56-1.46,1.56-1.5,2.6v28.76c.03.47.05.66.43.97Z"/>
      <path class="cls-2" d="M14.92.61c-.73,0-1.38.34-2.36.89L1.97,7.62c-.78.49-1.31,1.41-1.35,2.34v28.75c.03.41.04.5.32.73l.79.46c0-.06-.01-.11-.02-.17V10.94c.06-1.16.69-2.25,1.65-2.86L13.4,2.29c1.21-.61,2.4-.6,3.39.02.94.59,1.56,1.69,1.54,2.74v3.49s1.23.71,1.23.71v-4.4c-.28-1.54-1.46-3.04-3-3.78-.66-.31-1.16-.45-1.64-.45h0ZM2.46,40.98c-.05,0-.11-.01-.16-.04l-1.72-.99c-.5-.4-.54-.69-.59-1.21V9.95c.06-1.16.69-2.25,1.65-2.86L12.26.97c1.67-.94,2.63-1.38,4.57-.46,1.74.83,3.02,2.47,3.35,4.28v4.99c0,.11-.06.21-.15.27-.09.06-.21.06-.31,0l-1.85-1.06c-.1-.06-.16-.16-.16-.27v-3.68c.02-.83-.49-1.73-1.25-2.21-.56-.36-1.5-.64-2.77,0L3.69,8.61c-.79.5-1.31,1.4-1.35,2.35v28.75c.03.41.04.5.32.73.12.1.15.28.06.41-.06.09-.16.13-.25.13Z"/>
      <path class="cls-4" d="M2.46,40.67l-1.72-.99c-.38-.31-.4-.5-.44-.97V9.95c.02-.28.05-.46.13-.73l1.72.99c-.07.27-.1.45-.12.73v28.76c.03.47.05.66.43.97Z"/>
      <path class="cls-2" d="M.65,9.69c-.01.08-.02.17-.02.27v28.75c.03.41.04.5.32.73l.79.46c0-.06-.01-.11-.02-.17V10.94c.02-.22.04-.39.08-.58l-1.15-.66h0ZM2.46,40.98c-.05,0-.11-.01-.16-.04l-1.72-.99c-.5-.4-.54-.69-.59-1.21V9.95c.02-.31.05-.51.13-.81.03-.09.09-.17.18-.21.09-.03.19-.03.27.02l1.72.99c.12.07.18.21.14.35-.07.26-.1.42-.11.67v28.75c.03.41.04.5.32.73.12.1.15.28.05.41-.06.09-.15.13-.25.13Z"/>
      <path class="cls-3" d="M18.16,23.26c-.78.45-1.42,1.55-1.42,2.45s.64,1.27,1.42.82c.78-.45,1.42-1.55,1.42-2.46s-.63-1.27-1.42-.82Z"/>
      <path class="cls-2" d="M18.31,23.53c-.68.4-1.26,1.4-1.26,2.19,0,.32.09.56.26.65.17.09.42.06.69-.1.68-.4,1.26-1.4,1.26-2.19,0-.32-.09-.56-.26-.65-.16-.1-.42-.06-.69.1h0ZM17.53,27.04c-.19,0-.37-.04-.52-.14-.37-.21-.57-.63-.57-1.18,0-1.02.69-2.21,1.57-2.72h0c.48-.27.95-.31,1.31-.1.37.21.57.63.57,1.18,0,1.02-.69,2.21-1.57,2.73-.27.15-.54.23-.79.23Z"/>
      <path class="cls-2" d="M5.71,25.96c-.11,0-.21-.05-.27-.15-.08-.15-.03-.34.11-.42l10.13-5.84c.14-.09.34-.04.42.11.08.15.03.34-.11.42l-10.13,5.84s-.1.04-.15.04Z"/>
      <path class="cls-2" d="M5.71,22.83c-.11,0-.21-.06-.27-.15-.08-.15-.03-.33.11-.42l12.86-7.42c.15-.08.34-.03.42.11.08.15.03.33-.11.42l-12.86,7.42s-.1.04-.15.04Z"/>
      <path class="cls-2" d="M5.71,19.87c-.11,0-.21-.05-.27-.16-.08-.15-.03-.33.11-.42l12.86-7.42c.15-.08.34-.04.42.11.08.15.03.34-.11.42l-12.86,7.42s-.1.04-.15.04Z"/>
      <path class="cls-2" d="M5.71,31.93c-.11,0-.21-.05-.27-.15-.08-.15-.03-.34.11-.42l3.35-1.93c.14-.08.33-.03.42.12.08.15.03.34-.11.42l-3.35,1.93s-.1.04-.15.04Z"/>
      <path class="cls-2" d="M5.71,12.37c-.11,0-.21-.05-.27-.15-.08-.15-.03-.34.11-.42l5.99-3.46c.14-.08.33-.04.42.11.08.15.03.33-.11.42l-5.99,3.46s-.1.04-.15.04Z"/>
      <path class="cls-2" d="M18.31,22.48c-1.2.69-2.17,2.38-2.17,3.76,0,.6.19,1.04.53,1.24.34.2.81.14,1.33-.16,1.2-.69,2.17-2.38,2.17-3.76,0-.6-.19-1.04-.53-1.24-.34-.2-.81-.14-1.34.16h0ZM17.12,28.21c-.27,0-.53-.07-.76-.2-.54-.31-.84-.94-.84-1.77,0-1.61,1.09-3.49,2.48-4.29h0c.72-.42,1.41-.47,1.95-.16.54.31.84.94.84,1.77,0,1.61-1.09,3.49-2.48,4.29-.41.24-.82.36-1.19.36Z"/>
    </g>
  </g>
</svg>