<?xml version="1.0" encoding="UTF-8"?>
<svg id="Layer_2" data-name="Layer 2" xmlns="http://www.w3.org/2000/svg" viewBox="0 0 44.38 36.72" fill="currentColor">
  <defs>
    <style>
      .cls-1 {
        fill: #fff;
      }

      .cls-1, .cls-2, .cls-3, .cls-4 {
        fill-rule: evenodd;
      }

      .cls-2 {
        fill: #1a87c7;
      }

      .cls-3 {
        fill: #bdedf8;
      }

      .cls-4 {
        fill: #66ceef;
      }
    </style>
  </defs>
  <g id="_Layer_" data-name="&amp;lt;Layer&amp;gt;">
    <g>
      <path class="cls-1" d="M16.5,4.89c.41.24.7.55.97.94l-12.52,7.23c-.23-.35-.47-.7-.97-.94-.36-.2-2.99-1.72-3.12-1.74L13.32,3.18c.07-.03.11-.02.18.02l3,1.7Z"/>
      <path class="cls-2" d="M1.54,10.35c.39.22,1.05.58,2.16,1.22l.44.25c.43.2.69.48.92.79l11.94-6.89c-.2-.23-.41-.41-.66-.56l-2.94-1.66L1.54,10.35h0ZM4.95,13.39c-.1,0-.21-.06-.28-.15-.23-.36-.43-.63-.84-.82l-.46-.26c-.66-.38-2.41-1.39-2.61-1.46-.15-.02-.23-.12-.26-.26-.03-.14.06-.27.18-.34L13.15,2.89c.26-.1.4-.04.49,0l3.01,1.71h0c.42.25.75.57,1.08,1.03.06.08.08.18.06.26-.02.09-.07.18-.16.21l-12.52,7.23c-.06.03-.11.04-.17.04Z"/>
      <polygon class="cls-1" points="37.32 14.67 37.32 12.79 35.74 13.71 35.74 15.58 37.32 14.67"/>
      <path class="cls-2" d="M37.32,14.67h0,0ZM36.07,13.91v1.11l.93-.54v-1.11l-.93.54h0ZM35.74,15.91c-.05,0-.11-.01-.16-.04-.11-.06-.17-.16-.17-.29v-1.87c0-.12.06-.22.17-.28l1.59-.91c.1-.06.22-.06.32,0,.1.06.17.17.17.28v1.87c0,.12-.06.23-.17.29l-1.58.92c-.06.03-.11.04-.17.04Z"/>
      <path class="cls-4" d="M5.06,19.77s0,.09-.02.14l-.6.34c.08-.06.08-.08.08-.17,0-.49.06-.84.22-1.3.2-.47.41-.75.84-1.03l1.78-1.02.33.61-1.77,1.02c-.44.25-.75.73-.87,1.4Z"/>
      <path class="cls-2" d="M7.24,17.19l-1.48.85c-.21.14-.37.28-.5.47.15-.18.32-.32.51-.44l1.5-.86-.02-.03h0ZM5.06,19.77h0,0ZM4.44,20.58c-.1,0-.2-.06-.27-.15-.08-.12-.08-.28.02-.4.02-.48.06-.86.25-1.36.21-.5.44-.86.97-1.2l1.79-1.03c.08-.05.17-.06.26-.03.08.02.16.08.19.16l.34.61c.08.15.03.35-.12.43l-1.77,1.03c-.37.2-.61.61-.72,1.17h0l-.02.12c0,.1-.08.19-.16.25l-.6.34c-.06.03-.11.05-.17.05Z"/>
      <path class="cls-4" d="M12.76,19.54c-.74-1.36-2.82-3.45-4.43-2.56l-2.39,1.38c1.77-.93,3.85,1.39,4.63,2.93.68,1.34,1.29,3.8-.19,4.75.46-.28,2.39-1.33,2.69-1.61,1.2-1.16.46-3.57-.3-4.89Z"/>
      <path class="cls-2" d="M7.39,17.9c.06,0,.12.03.18.04,1.37.45,2.67,1.97,3.29,3.2.47.93,1,2.6.63,3.88.59-.33,1.2-.7,1.34-.83,1.05-1.01.36-3.25-.35-4.5h0c-.54-.98-1.69-2.21-2.78-2.52-.45-.14-.85-.1-1.21.09l-1.09.63h0ZM10.37,26.37c-.11,0-.22-.06-.29-.16-.09-.16-.05-.35.11-.44,1.25-.8.74-3.02.08-4.32-.58-1.15-1.77-2.5-2.9-2.87-.46-.15-.9-.13-1.29.07-.16.08-.35.03-.44-.13-.09-.16-.04-.35.12-.44l2.39-1.38c.52-.28,1.1-.33,1.72-.14,1.43.42,2.68,1.92,3.17,2.83.7,1.23,1.65,3.91.23,5.29-.22.21-1.01.68-2.32,1.41l-.44.24s-.1.05-.16.05Z"/>
      <path class="cls-4" d="M10.36,20.93c-.56-.98-1.34-1.85-2.21-2.34-.87-.5-1.65-.55-2.22-.22h0c-.56.32-.92,1.03-.92,2.03s.36,2.1.92,3.09c.56.98,1.35,1.84,2.22,2.34.86.5,1.64.55,2.22.22.56-.33.92-1.04.92-2.03s-.35-2.1-.92-3.09h-.01Z"/>
      <path class="cls-2" d="M6.75,18.49c-.24,0-.46.06-.66.17-.48.28-.75.9-.75,1.74,0,.91.31,1.95.87,2.92.56.98,1.32,1.76,2.09,2.22.73.43,1.4.5,1.89.22.48-.28.75-.9.75-1.74,0-.91-.3-1.95-.87-2.92l.28-.17-.28.16c-.57-.98-1.31-1.76-2.1-2.22-.44-.25-.86-.38-1.23-.38h0ZM9.55,26.58c-.49,0-1.02-.16-1.57-.47-.89-.52-1.71-1.39-2.34-2.47-.62-1.08-.96-2.23-.96-3.25,0-1.09.39-1.91,1.08-2.32.7-.4,1.61-.32,2.54.22.89.51,1.72,1.38,2.34,2.45,0,.01.02.03.02.04h0c.6,1.04.94,2.2.94,3.22,0,1.08-.38,1.91-1.08,2.31-.29.18-.62.26-.97.26Z"/>
      <path class="cls-4" d="M22.31,29.75s-.02.09-.02.14l-.6.35c.08-.05.08-.09.08-.18.01-.42.05-.74.17-1.15.19-.54.41-.89.89-1.2l2.31-1.34v.81l-1.62.94c-.17.09-.37.2-.52.32-.35.28-.59.72-.69,1.31Z"/>
      <path class="cls-2" d="M24.8,26.96l-1.81,1.05c-.21.13-.37.28-.5.47.09-.1.18-.2.3-.29.13-.1.29-.19.45-.29l1.56-.94h0ZM22.29,29.89h0,0ZM21.69,30.57c-.1,0-.2-.05-.27-.14-.08-.13-.07-.29.02-.4.02-.42.05-.75.18-1.2.21-.58.46-1.01,1.05-1.38l2.31-1.34c.1-.07.23-.07.33,0,.1.06.16.17.16.28v.81c0,.12-.06.22-.16.29l-1.74,1c-.13.06-.26.14-.36.22-.28.23-.49.61-.56,1.1l-.02.13c-.02.1-.07.2-.17.24l-.6.34s-.11.05-.17.05Z"/>
      <path class="cls-4" d="M30.01,29.5c-.73-1.36-2.81-3.45-4.43-2.56l-2.39,1.38c1.77-.93,3.85,1.38,4.63,2.93.68,1.34,1.29,3.8-.2,4.74.46-.27,2.39-1.32,2.69-1.6,1.2-1.16.46-3.57-.3-4.89Z"/>
      <path class="cls-2" d="M24.65,27.86c.06,0,.11.03.18.04,1.36.45,2.66,1.97,3.28,3.2.48.93,1,2.6.63,3.88.58-.34,1.2-.7,1.34-.83,1.05-1.01.36-3.24-.35-4.5h0c-.53-.98-1.69-2.21-2.78-2.52-.44-.14-.85-.1-1.2.09l-1.08.63h0ZM27.61,36.33c-.11,0-.22-.06-.28-.16-.1-.16-.05-.35.11-.45,1.26-.8.74-3.01.08-4.31-.58-1.15-1.76-2.5-2.9-2.87-.46-.16-.9-.13-1.29.08-.16.08-.35.03-.44-.13-.08-.16-.03-.35.12-.44l2.4-1.38c.51-.29,1.08-.33,1.71-.15,1.43.42,2.68,1.92,3.17,2.83.7,1.23,1.65,3.93.24,5.3-.22.21-1.03.68-2.34,1.41l-.42.24s-.1.05-.16.05Z"/>
      <path class="cls-4" d="M27.61,30.88c-.57-.97-1.35-1.84-2.21-2.34-.86-.5-1.65-.55-2.22-.21h0c-.57.32-.92,1.03-.92,2.02s.35,2.11.92,3.1c.56.97,1.35,1.84,2.22,2.34.86.5,1.65.55,2.21.21.57-.32.92-1.03.92-2.02s-.35-2.1-.92-3.09h0Z"/>
      <path class="cls-2" d="M24,28.45c-.24,0-.46.05-.65.16-.49.29-.76.91-.76,1.74,0,.92.32,1.95.88,2.93.56.97,1.31,1.76,2.1,2.22.73.43,1.4.5,1.88.22.48-.29.75-.9.75-1.74,0-.91-.31-1.95-.87-2.93l.28-.17-.28.17c-.57-.98-1.31-1.76-2.1-2.22-.44-.26-.86-.38-1.23-.38h0ZM26.8,36.53c-.49,0-1.02-.16-1.57-.48-.88-.51-1.72-1.38-2.34-2.46-.62-1.07-.96-2.22-.96-3.25,0-1.08.39-1.9,1.08-2.31.7-.41,1.6-.32,2.55.22.88.51,1.71,1.38,2.33,2.46,0,0,.02.03.03.04h0c.59,1.04.94,2.19.94,3.22,0,1.09-.38,1.91-1.08,2.31-.29.17-.62.25-.98.25Z"/>
      <polygon class="cls-1" points="21.5 30.23 22.31 29.75 22.31 29.76 21.5 30.23 21.5 30.23"/>
      <path class="cls-2" d="M21.5,30.55c-.11,0-.22-.06-.29-.17-.08-.16-.04-.35.12-.44h0l.8-.46c.16-.09.36-.04.46.12.02.05.04.1.04.16,0,.12-.06.23-.16.29l-.8.46h0c-.06.03-.11.05-.17.05Z"/>
      <path class="cls-1" d="M36.94,16.36l6.18,3.58c.8.48.93.81.94,1.03v7.51l-12.53,7.23v-7.51c0-.26,0-.49-.62-.85l-6.49-3.75,12.52-7.23Z"/>
      <path class="cls-2" d="M25.07,23.59l6,3.47c.72.43.78.77.79,1.14v6.94l11.86-6.84v-7.33c0-.26-.48-.58-.77-.74l-6.02-3.49-11.86,6.85h0ZM31.53,36.03c-.06,0-.11-.02-.16-.05-.1-.06-.17-.17-.17-.28v-7.51c0-.18,0-.3-.46-.56l-6.49-3.76c-.1-.06-.17-.16-.17-.28s.07-.22.17-.29l12.53-7.22c.09-.06.22-.06.32,0l6.19,3.57c.74.44,1.08.85,1.09,1.32v7.51c0,.12-.06.22-.16.29l-12.52,7.22s-.1.05-.17.05Z"/>
      <polygon class="cls-1" points="44.05 20.96 44.05 28.47 31.53 35.71 31.53 28.19 44.05 20.96"/>
      <path class="cls-2" d="M31.86,28.38v6.75l11.86-6.84v-6.75l-11.86,6.84h0ZM31.53,36.03c-.06,0-.11-.02-.16-.05-.1-.06-.17-.17-.17-.28v-7.51c0-.12.07-.22.17-.29l12.52-7.22c.1-.06.22-.06.32,0,.1.06.16.17.16.28v7.51c0,.12-.06.22-.16.29l-12.52,7.22s-.1.05-.17.05Z"/>
      <path class="cls-1" d="M31.5,6.62c.41.25.7.55.98.94l-12.52,7.22h0c-.26-.37-.59-.7-.98-.94l-10.93-6.28s-.07-.04-.1-.04l.04-.03L20.28.41c.13-.07.16-.11.31-.05l10.91,6.26Z"/>
      <path class="cls-2" d="M8.61,7.53l10.52,6.03c.34.2.63.46.9.8l11.94-6.9c-.2-.23-.41-.41-.65-.56L20.42.65s.09,0,.11,0l-.25-.23.17.29-11.83,6.83h0ZM19.95,15.12c-.1,0-.21-.06-.27-.15-.26-.37-.56-.65-.87-.84L7.87,7.85c-.14-.01-.24-.11-.27-.25-.04-.14.05-.28.17-.35L20.12.12c.18-.1.33-.18.6-.06l10.94,6.28h0c.42.25.75.56,1.08,1.03.06.08.08.18.04.26-.02.09-.07.17-.14.21l-12.53,7.23s-.1.05-.16.05Z"/>
      <polygon class="cls-3" points=".33 14.04 .74 14.28 .74 15.67 .33 15.43 .33 14.04"/>
      <path class="cls-2" d="M.74,16c-.06,0-.11-.02-.17-.05l-.41-.24c-.1-.06-.17-.17-.17-.28v-1.4c0-.11.06-.22.17-.28.1-.07.22-.07.32,0l.42.23c.09.06.16.17.16.29v1.39c0,.12-.06.22-.17.29-.05.03-.1.05-.16.05Z"/>
      <polygon class="cls-3" points=".89 14.19 .66 14.05 .66 13.85 .33 14.04 .74 14.28 .89 14.19"/>
      <path class="cls-2" d="M.74,14.6c-.06,0-.11,0-.17-.05l-.41-.23c-.1-.06-.17-.17-.17-.29,0-.11.06-.22.17-.28l.32-.2c.11-.06.23-.06.33,0,.1.06.17.17.17.29v.02l.06.04c.1.06.16.17.16.28,0,.12-.06.23-.16.29l-.15.08c-.06.04-.11.05-.17.05Z"/>
      <path class="cls-3" d="M7.94,7.54s.06.02.1.04l10.93,6.28c.24.14.48.34.68.56.25.28.43.58.63.9,1.31,2.2,2.98,6.32,3.58,7.51.16.31.26.6.56.77l6.49,3.75.03.02c.52.31.58.52.59.75v7.6c0,.16-.12.23-.27.15l-1.96-1.13c-.15-.09-.27-.3-.27-.48,0-1.15-.41-2.43-1.07-3.57v-.02c-.67-1.13-1.57-2.12-2.56-2.69-1-.57-1.91-.63-2.57-.25-.65.38-1.06,1.19-1.06,2.34,0,.17-.12.24-.27.16h0c-1.92-1.11-7.82-4.54-9.46-5.5-.15-.08-.27-.3-.27-.46v-.03c-.02-1.14-.43-2.41-1.08-3.53-.66-1.12-1.56-2.12-2.55-2.69-1-.58-1.9-.63-2.56-.26-.65.38-1.06,1.18-1.06,2.32,0,.17-.12.23-.27.15h0l-1.98-1.14c-.45-.26-.84-.71-1.14-1.21-.29-.51-.47-1.08-.47-1.59v-5.43c0-.84.96-.7,1.37-.46.69.4,1.52.75,1.57.71l4.33-3.58Z"/>
      <path class="cls-2" d="M7.87,7.85h0s0,0,0,0h0ZM23.78,27.15c.56,0,1.16.19,1.79.55,1.01.58,1.96,1.58,2.67,2.8.72,1.25,1.11,2.59,1.11,3.75,0,.06.06.16.11.19l1.74,1.01v-7.34c0-.09,0-.21-.44-.47l-6.52-3.77c-.34-.2-.49-.52-.62-.79l-.06-.12c-.18-.36-.46-1-.8-1.77-.79-1.77-1.86-4.2-2.76-5.71-.19-.32-.36-.6-.6-.85-.18-.22-.39-.38-.59-.49L7.98,7.92l-4.16,3.45c-.09.08-.32.26-1.96-.68-.21-.12-.6-.2-.77-.09-.03.02-.1.06-.1.27v5.43c0,.44.16.95.42,1.43.27.47.65.87,1.02,1.08l1.76,1.02c.06-1.1.5-1.93,1.23-2.35.79-.45,1.81-.36,2.87.26,1.02.58,1.97,1.58,2.68,2.81.7,1.22,1.1,2.53,1.11,3.69,0,.08.06.18.1.2.77.44,2.45,1.43,4.23,2.46,1.91,1.11,3.93,2.28,5.02,2.91.06-1.11.48-1.95,1.22-2.37.33-.18.7-.29,1.1-.29h0ZM31.38,36.23c-.09,0-.19-.03-.28-.08l-1.98-1.14c-.25-.15-.44-.46-.44-.75,0-1.06-.36-2.27-1.01-3.4-.67-1.15-1.53-2.06-2.45-2.59-.86-.5-1.65-.59-2.24-.25-.58.33-.9,1.06-.9,2.06,0,.2-.08.37-.24.46-.15.09-.34.08-.52-.02-1.07-.61-3.36-1.95-5.47-3.17-1.69-.98-3.25-1.9-3.99-2.32-.25-.15-.44-.46-.44-.75-.01-1.08-.37-2.27-1.03-3.4-.65-1.13-1.51-2.04-2.43-2.57-.86-.49-1.65-.58-2.23-.26-.58.33-.9,1.06-.91,2.04,0,.2-.08.36-.24.46-.16.08-.34.08-.52-.02l-1.98-1.14c-.48-.28-.93-.75-1.26-1.33-.34-.58-.52-1.21-.52-1.76v-5.43c0-.37.15-.67.44-.84.46-.27,1.1-.09,1.43.09.54.31,1.08.55,1.32.63l4.2-3.48h0c.12-.09.35-.08.47,0l10.94,6.28c.27.16.52.36.76.62.27.31.46.63.67.95.92,1.55,2,4,2.79,5.79.34.76.62,1.39.8,1.75l.06.12c.13.26.2.41.37.5l6.49,3.76c.56.34.77.62.79,1.04h0v7.61c0,.19-.09.36-.24.45-.07.04-.16.06-.24.06Z"/>
      <path class="cls-4" d="M31.53,34.37v1.34c0,.16-.12.23-.27.15l-1.96-1.13c-.15-.09-.27-.3-.27-.48,0-.46-.07-.94-.19-1.44l2.69,1.56Z"/>
      <path class="cls-2" d="M29.29,33.46c.04.27.06.54.06.79,0,.06.06.16.11.19l1.74,1.01v-.88l-1.91-1.1h0ZM31.38,36.23c-.09,0-.19-.03-.28-.08l-1.98-1.14c-.25-.15-.44-.46-.44-.75,0-.42-.06-.88-.18-1.35-.03-.13.02-.26.12-.34.11-.07.25-.08.36-.02l2.7,1.56c.1.06.17.17.17.28v1.34c0,.2-.09.37-.25.45-.07.05-.15.06-.23.06Z"/>
      <path class="cls-4" d="M15.64,13.67l2.63,1.52c.21.12.41.32.58.55h0c.56.82,2.91,5.62,3.5,6.74.05.18-.04.32-.18.28-.02,0-.05-.02-.07-.03h0l-6.45-3.73c-.15-.08-.27-.3-.27-.46v-4.71c0-.18.12-.24.27-.16Z"/>
      <path class="cls-2" d="M15.64,13.67l-.16.29h0l.16-.29h0ZM15.71,14.09v4.45c0,.06.06.16.1.18l6.03,3.49c-.18-.36-.44-.87-.73-1.45-.91-1.81-2.15-4.27-2.53-4.83-.14-.2-.31-.36-.46-.46l-2.4-1.38h0ZM22.21,23.1s-.08-.01-.12-.02c-.03,0-.13-.05-.16-.06l-6.45-3.72c-.25-.15-.43-.46-.43-.75v-4.71c0-.2.08-.37.24-.46.16-.08.34-.08.52.03l2.62,1.51c.25.14.48.36.68.65.41.59,1.61,2.99,2.59,4.91.41.82.76,1.51.94,1.86.01.02.02.05.03.08.05.22,0,.42-.14.55-.08.08-.19.13-.32.13Z"/>
      <path class="cls-4" d="M9.88,10.34l4.33,2.49c.16.09.3.32.3.51v4.94c0,.18-.14.26-.3.17l-4.33-2.5c-.16-.09-.29-.32-.29-.5v-4.94c0-.18.13-.26.29-.17Z"/>
      <path class="cls-2" d="M9.88,10.34l-.17.28h.01l.16-.28h0ZM9.91,10.74v4.71c0,.06.08.18.13.21l4.13,2.39v-4.71c0-.06-.06-.19-.12-.22l-4.14-2.38h0ZM14.34,18.81c-.09,0-.2-.03-.29-.08l-4.33-2.49c-.26-.15-.46-.49-.46-.79v-4.94c0-.21.09-.38.25-.47.16-.09.36-.08.54.02h0l4.33,2.5c.26.15.46.49.46.79v4.94c0,.2-.09.38-.25.46-.07.04-.16.06-.24.06Z"/>
      <path class="cls-4" d="M8.39,9.69c.16.08.29.31.29.5v4.73c0,.18-.13.26-.29.17l-2.84-1.63c-.54-.31-.48-.75-.11-1.18l2.18-2.47c.31-.35.56-.24.77-.12Z"/>
      <path class="cls-2" d="M8.05,9.9c-.06,0-.1.04-.19.13l-2.17,2.47c-.15.16-.22.32-.2.42.02.1.14.19.23.24l2.63,1.52v-4.5c0-.07-.06-.19-.13-.21-.08-.04-.12-.07-.18-.07h0ZM8.52,15.45c-.1,0-.2-.03-.3-.08l-2.83-1.63c-.4-.23-.52-.52-.56-.71-.04-.21,0-.56.36-.96l2.17-2.47c.5-.58.99-.3,1.18-.19h0c.26.15.46.48.46.79v4.73c0,.21-.1.38-.25.47-.07.04-.16.06-.24.06Z"/>
      <path class="cls-2" d="M16.81,21.47c-.06,0-.11,0-.16-.04l-1.78-1.02c-.16-.09-.22-.3-.12-.46.09-.16.29-.21.44-.12l1.79,1.03c.16.09.2.3.12.46-.07.1-.18.16-.29.16Z"/>
      <path class="cls-2" d="M10.37,17.76c-.06,0-.11-.01-.16-.05l-1.79-1.02c-.16-.09-.2-.3-.12-.45.09-.16.3-.21.46-.12l1.78,1.03c.16.09.21.3.12.45-.06.11-.17.17-.29.17Z"/>
      <path class="cls-1" d="M31.53,35.71l12.53-7.23c0,.08-.02.12-.08.18l-12.52,7.22.03-.03c.04-.06.04-.07.04-.14Z"/>
      <path class="cls-2" d="M31.45,36.21c-.1,0-.2-.05-.27-.15-.1-.12-.07-.3.03-.41.03-.1.08-.19.16-.23l12.52-7.23c.1-.06.24-.06.34,0,.1.06.16.18.14.31,0,.1-.02.26-.19.4l-12.57,7.26c-.05.03-.11.05-.16.05Z"/>
      <path class="cls-1" d="M42.72,26.33c-.58.33-1.05.06-1.05-.6s.47-1.48,1.05-1.82c.58-.34,1.05-.07,1.05.6s-.46,1.48-1.05,1.82Z"/>
      <path class="cls-2" d="M43.19,24.1c-.08,0-.2.04-.31.1-.48.28-.88.98-.88,1.53,0,.2.06.34.14.4.09.04.24.02.42-.08h0c.47-.28.88-.98.88-1.54,0-.19-.06-.34-.14-.39-.04-.02-.08-.03-.11-.03h0ZM42.26,26.81c-.16,0-.31-.04-.44-.11-.31-.18-.47-.53-.47-.97,0-.79.53-1.71,1.21-2.1.38-.22.77-.24,1.07-.08.3.18.47.53.47.96,0,.79-.53,1.72-1.22,2.1h0c-.21.12-.42.19-.63.19Z"/>
      <polygon class="cls-3" points="44.05 29.16 44.05 27.15 31.53 34.37 31.53 36.39 44.05 29.16"/>
      <path class="cls-2" d="M44.05,29.16h.01-.01ZM31.86,34.57v1.25l11.86-6.84v-1.26l-11.86,6.85h0ZM31.53,36.72c-.06,0-.11-.02-.16-.05-.1-.05-.17-.17-.17-.28v-2.02c0-.11.07-.22.17-.28l12.52-7.23c.1-.06.22-.06.32,0,.1.06.16.17.16.28v2.01c0,.12-.06.22-.16.29l-12.52,7.22s-.1.05-.17.05Z"/>
      <path class="cls-2" d="M35.56,29.71c-.11,0-.22-.06-.29-.17-.09-.16-.04-.36.12-.45l5.05-2.91c.15-.09.35-.04.44.12.09.16.04.36-.12.45l-5.05,2.92s-.1.05-.16.05Z"/>
      <path class="cls-2" d="M35.56,28.61c-.12,0-.22-.06-.29-.16-.09-.16-.04-.36.12-.45l5.05-2.91c.15-.09.35-.04.44.12.09.16.04.35-.12.45l-5.05,2.92s-.1.04-.16.04Z"/>
      <path class="cls-2" d="M35.56,30.79c-.11,0-.22-.06-.29-.17-.09-.16-.04-.36.12-.45l5.05-2.92c.15-.09.35-.04.44.12.09.16.04.36-.12.45l-5.05,2.92s-.1.05-.16.05Z"/>
      <path class="cls-1" d="M33.41,31.69c-.58.33-1.05.06-1.05-.6s.47-1.48,1.05-1.82c.58-.33,1.05-.06,1.05.6s-.46,1.48-1.05,1.82Z"/>
      <path class="cls-2" d="M33.88,29.46c-.08,0-.2.03-.31.09-.48.28-.88.98-.88,1.54,0,.2.05.34.14.39.08.06.24.03.42-.07.48-.28.88-.97.88-1.53,0-.2-.06-.34-.14-.4-.04,0-.08-.02-.11-.02h0ZM32.95,32.16c-.16,0-.3-.04-.44-.12-.31-.17-.47-.52-.47-.96,0-.79.53-1.71,1.21-2.1.38-.22.77-.25,1.07-.07.3.18.47.53.47.96,0,.79-.54,1.71-1.22,2.11-.21.12-.43.18-.63.18Z"/>
      <polygon class="cls-4" points="31.53 34.37 28.58 32.66 28.58 34.69 31.53 36.39 31.53 34.37"/>
      <path class="cls-2" d="M28.9,34.49l2.3,1.33v-1.25l-2.3-1.33v1.25h0ZM31.53,36.72c-.06,0-.11-.02-.16-.05l-2.96-1.71c-.1-.06-.17-.17-.17-.28v-2.02c0-.11.06-.22.17-.28.1-.06.22-.06.32,0l2.96,1.71c.1.06.17.17.17.28v2.02c0,.11-.06.22-.17.28-.04.03-.1.05-.17.05Z"/>
      <path class="cls-1" d="M19.95,14.79l12.52-7.22,3.9,8.03c.15.31.26.59.56.76l-12.52,7.23c-.15-.1-.24-.19-.33-.34-.09-.14-.15-.29-.22-.44-.63-1.26-2.5-5.87-3.83-7.92l-.03-.04-.05-.08Z"/>
      <path class="cls-2" d="M20.42,14.9c.96,1.56,2.1,4.14,2.95,6.04.33.75.61,1.38.79,1.74l.04.08c.06.11.1.22.18.33.03.04.05.07.08.1l11.94-6.89c-.1-.15-.18-.32-.25-.46l-.06-.1-3.75-7.71-11.92,6.88h0ZM24.42,23.91c-.06,0-.12-.01-.17-.05-.18-.1-.32-.23-.44-.44-.08-.13-.14-.26-.2-.4-.21-.42-.49-1.07-.84-1.84-.83-1.86-2.08-4.67-3.01-6.12l-.07-.1c-.05-.08-.07-.17-.05-.26.02-.08.08-.17.16-.22l12.52-7.22c.08-.05.18-.06.26-.03.09.03.16.08.2.17l3.96,8.14c.12.27.2.42.37.52.1.06.17.17.17.28,0,.12-.06.23-.17.28l-12.52,7.23c-.05.03-.11.04-.17.04Z"/>
      <polygon class="cls-4" points="21.36 15.54 32.05 9.37 35.37 16.08 24.69 22.23 21.36 15.54"/>
      <path class="cls-2" d="M21.79,15.67l3.04,6.11,10.11-5.85-3.03-6.1-10.12,5.83h0ZM24.69,22.57s-.06,0-.09-.02c-.09-.02-.16-.08-.2-.17l-3.33-6.69c-.07-.16-.02-.34.13-.44l10.68-6.17c.08-.04.17-.05.26-.03.08.03.16.09.2.17l3.33,6.7c.07.15.02.34-.13.43l-10.67,6.17c-.06.03-.11.05-.17.05Z"/>
      <polygon class="cls-3" points="23.91 20.68 29.7 17.43 30.71 15.62 33.5 14.04 34.49 14.29 35.37 16.08 24.69 22.23 23.91 20.68"/>
      <path class="cls-2" d="M24.35,20.81l.48.98,10.11-5.85-.68-1.37-.7-.17-2.6,1.47-.96,1.72c-.04.06-.08.09-.13.13l-5.51,3.09h0ZM24.69,22.57s-.06,0-.09-.02c-.09-.02-.16-.08-.2-.17l-.78-1.56c-.08-.16-.02-.35.14-.44l5.7-3.2.97-1.73c.03-.06.06-.1.12-.13l2.8-1.58c.07-.04.16-.05.24-.03l.97.24c.09.03.18.09.22.18l.89,1.79c.07.15.02.34-.13.43l-10.67,6.17c-.06.03-.11.05-.17.05Z"/>
      <polygon class="cls-1" points="22.39 23.27 22.39 21.4 20.81 22.32 20.81 24.18 22.39 23.27"/>
      <path class="cls-2" d="M22.39,23.27h0,0ZM21.13,22.5v1.11l.94-.54v-1.11l-.94.54h0ZM20.81,24.51c-.05,0-.11-.02-.16-.05-.1-.05-.17-.17-.17-.29v-1.86c0-.12.06-.23.17-.29l1.58-.92c.1-.06.23-.06.33,0,.1.06.16.17.16.28v1.88c0,.11-.06.22-.16.28l-1.58.92c-.06.03-.11.05-.17.05Z"/>
      <path class="cls-2" d="M22.39,23.35c-.11,0-.22-.06-.29-.16-.08-.16-.04-.36.12-.45l.55-.32c.16-.09.35-.04.44.12.09.16.04.35-.12.44l-.54.32c-.05.03-.11.04-.16.04Z"/>
      <path class="cls-1" d="M26.61,31.46c.32.54.51,1.15.51,1.7s-.19.94-.51,1.12c-.31.17-.74.15-1.21-.12-.48-.28-.91-.75-1.22-1.29v-.03c-.32-.54-.5-1.13-.5-1.67s.2-.94.51-1.12h0c.31-.18.74-.15,1.22.12.47.28.91.75,1.21,1.29Z"/>
      <path class="cls-2" d="M24.63,30.26c-.11,0-.2.03-.29.07-.22.13-.34.43-.34.84,0,.46.16.99.45,1.5.31.54.7.96,1.11,1.2.34.2.67.24.89.12.21-.13.33-.43.33-.84,0-.46-.17-1.02-.46-1.53h0c-.29-.52-.69-.94-1.1-1.17-.21-.13-.43-.2-.6-.2h0ZM26.17,34.71c-.3,0-.61-.09-.94-.28-.51-.3-.98-.8-1.34-1.41-.36-.63-.56-1.28-.56-1.86,0-.66.24-1.16.68-1.4.43-.25.98-.21,1.55.11.51.3.98.8,1.34,1.41h0c.35.62.55,1.28.55,1.86,0,.66-.23,1.15-.67,1.4-.19.11-.39.16-.61.16Z"/>
      <path class="cls-1" d="M9.36,21.5c.32.54.51,1.15.51,1.7s-.2.94-.51,1.12c-.31.18-.74.15-1.21-.12-.48-.28-.91-.75-1.22-1.29l-.02-.03c-.3-.54-.48-1.13-.48-1.67s.2-.94.5-1.12h0c.32-.18.74-.15,1.22.12.47.28.9.75,1.21,1.29Z"/>
      <path class="cls-2" d="M7.38,20.32c-.11,0-.2.02-.29.06-.22.13-.34.42-.34.83,0,.46.16,1,.44,1.5.32.55.71.96,1.11,1.2.35.2.68.25.89.12.22-.13.34-.43.34-.84,0-.46-.17-1.02-.46-1.53h0c-.29-.51-.69-.94-1.1-1.17-.22-.13-.43-.18-.6-.18h0ZM8.92,24.77c-.3,0-.61-.1-.94-.29-.51-.29-.98-.79-1.34-1.4-.36-.64-.55-1.29-.55-1.86,0-.66.24-1.15.68-1.4.42-.25.97-.21,1.54.12.51.29.99.79,1.34,1.4h0c.35.62.55,1.28.55,1.86,0,.66-.24,1.15-.67,1.4-.18.11-.39.17-.61.17Z"/>
      <polygon class="cls-4" points="22.38 25.57 21.18 24.89 21.18 26.27 19.98 25.57 19.98 24.2 18.8 23.5 18.8 24.89 17.6 24.2 17.6 22.82 16.4 22.12 16.4 23.5 17.6 24.2 17.6 25.57 18.8 26.27 18.8 24.89 19.98 25.57 19.98 26.95 21.18 27.64 21.18 26.27 22.38 26.95 22.38 25.57"/>
      <path class="cls-2" d="M16.74,23.32l.53.31v-.62l-.53-.31v.62h0ZM19.12,24.69l.54.32v-.62l-.54-.31v.61h0ZM17.92,25.39l.54.31v-.62l-.54-.3v.62h0ZM21.51,26.07l.54.31v-.62l-.54-.32v.62h0ZM20.32,26.76l.54.32v-.62l-.54-.31v.61h0ZM21.18,27.97c-.06,0-.11-.02-.17-.05l-1.19-.69c-.1-.07-.17-.17-.17-.29v-1.19l-.54-.32v.82c0,.11-.06.22-.17.28-.1.06-.22.06-.32,0l-1.2-.69c-.1-.06-.17-.17-.17-.29v-1.18l-1.03-.59c-.1-.06-.16-.17-.16-.29v-1.38c0-.11.06-.22.16-.28.1-.06.23-.06.33,0l1.2.69c.1.06.16.17.16.29v1.19l.54.32v-.82c0-.11.06-.22.17-.28.1-.06.22-.06.32,0l1.2.69c.1.06.17.17.17.28v1.19l.54.31v-.81c0-.12.06-.23.16-.29.1-.06.23-.06.33,0l1.2.7c.1.06.16.17.16.28v1.38c0,.12-.06.22-.16.29-.1.06-.23.06-.34,0l-.7-.41v.8c0,.12-.06.23-.16.29-.06.03-.11.05-.17.05Z"/>
      <polygon class="cls-4" points="16.4 23.5 15.21 22.82 15.21 21.44 14.02 20.75 14.02 22.12 12.82 21.44 12.82 20.06 11.63 19.37 11.63 20.75 12.82 21.44 12.82 22.82 14.02 23.5 14.02 22.12 15.21 22.82 15.21 24.2 16.4 24.89 16.4 23.5"/>
      <path class="cls-2" d="M11.95,20.56l.54.31v-.62l-.54-.32v.62h0ZM14.34,21.94l.54.3v-.61l-.54-.32v.62h0ZM13.15,22.62l.54.32v-.62l-.54-.31v.61h0ZM15.54,24.01l.54.32v-.62l-.54-.31v.62h0ZM16.4,25.21c-.06,0-.11,0-.17-.04l-1.19-.7c-.1-.06-.17-.17-.17-.28v-1.19l-.54-.31v.81c0,.12-.06.23-.17.29-.1.05-.22.05-.32,0l-1.2-.69c-.1-.06-.17-.17-.17-.29v-1.19l-1.03-.6c-.1-.06-.16-.17-.16-.28v-1.38c0-.12.06-.22.16-.29.1-.06.23-.06.33,0l1.19.7c.11.06.17.17.17.28v1.19l.54.31v-.81c0-.12.07-.23.17-.29.1-.06.22-.06.32,0l1.2.69c.1.06.17.17.17.28v1.19l1.03.6c.1.06.16.16.16.28v1.38c0,.12-.06.22-.16.29-.05.03-.11.04-.16.04Z"/>
      <polygon class="cls-4" points="5.17 17.01 5.17 15.64 3.97 14.94 3.97 16.33 2.77 15.64 2.77 14.26 1.58 13.57 1.58 14.94 2.77 15.64 2.77 17.01 3.97 17.71 3.97 16.33 5.17 17.01 5.17 17.01"/>
      <path class="cls-2" d="M1.91,14.76l.54.31v-.62l-.54-.31v.62h0ZM4.3,16.14l.53.3v-.62l-.53-.31v.62h0ZM3.11,16.83l.54.31v-.62l-.54-.3v.62h0ZM3.97,18.03c-.06,0-.11,0-.17-.04l-1.19-.69c-.1-.06-.16-.17-.16-.29v-1.19l-1.03-.59c-.1-.06-.16-.17-.16-.29v-1.37c0-.12.06-.23.16-.28.1-.06.22-.06.32,0l1.2.69c.1.06.17.17.17.29v1.19l.54.32v-.82c0-.11.06-.22.16-.28.1-.06.23-.06.34,0l1.19.69c.1.05.16.17.16.28v1.37c0,.12-.06.23-.17.29-.09.06-.22.06-.32,0l-.7-.41v.82c0,.11-.06.22-.17.28-.06.04-.11.04-.17.04Z"/>
      <polygon class="cls-1" points="26.78 5.9 25.68 5.26 20.12 8.47 21.23 9.1 26.78 5.9"/>
      <path class="cls-2" d="M20.78,8.47l.45.26,4.9-2.84-.45-.25-4.9,2.83h0ZM21.23,9.44c-.06,0-.11-.02-.17-.05l-1.1-.64c-.1-.06-.17-.17-.17-.28,0-.12.06-.23.17-.29l5.57-3.21c.09-.06.22-.06.32,0l1.1.64c.1.06.17.17.17.28,0,.12-.06.23-.17.29l-5.56,3.21c-.05.03-.11.05-.16.05Z"/>
      <polygon class="cls-1" points="21.23 9.1 20.12 8.47 19.57 10.55 21.77 11.82 21.23 9.1"/>
      <path class="cls-2" d="M19.95,10.39l1.35.78-.37-1.85-.61-.34-.37,1.42h0ZM21.77,12.15c-.06,0-.11-.02-.16-.04l-2.21-1.27c-.13-.08-.19-.22-.16-.37l.56-2.08c.02-.1.09-.18.18-.22.1-.04.2-.04.29.02l1.11.64c.08.05.14.13.16.21l.55,2.72c.03.13-.03.26-.13.34-.06.04-.13.06-.2.06Z"/>
      <polygon class="cls-1" points="27.34 8.61 26.78 5.9 21.23 9.1 21.77 11.82 27.34 8.61"/>
      <path class="cls-2" d="M21.6,9.27l.41,2.04,4.96-2.87-.42-2.03-4.95,2.86h0ZM21.77,12.15s-.09-.02-.13-.04c-.1-.04-.17-.13-.2-.23l-.55-2.71c-.03-.14.04-.29.16-.35l5.57-3.21c.09-.06.2-.06.29-.02.1.04.17.13.19.23l.55,2.72c.03.14-.03.28-.16.35l-5.55,3.21c-.06.03-.11.04-.17.04Z"/>
      <path class="cls-2" d="M26.42,8.65c-.15,0-.29-.11-.33-.27l-.23-1.18c-.04-.18.08-.35.26-.39.18-.04.35.08.39.26l.23,1.19c.04.18-.08.34-.26.38-.02,0-.05,0-.06,0Z"/>
      <path class="cls-2" d="M25,9.47s-.08,0-.1-.02c-.18-.06-.27-.24-.2-.42l.21-.62-.29-.21c-.15-.1-.19-.31-.07-.46.1-.15.31-.18.46-.07l.49.35c.11.08.16.23.11.37l-.28.86c-.06.14-.18.22-.32.22Z"/>
      <path class="cls-2" d="M25.81,9c-.06,0-.13-.02-.19-.06l-.51-.38c-.12-.08-.17-.23-.12-.37l.26-.79c.06-.17.25-.26.42-.2.17.06.26.24.2.42l-.18.56.32.24c.14.11.18.32.07.46-.07.08-.17.13-.27.13Z"/>
      <path class="cls-2" d="M23.59,10.3s-.03,0-.04,0c-.19-.02-.32-.18-.29-.36l.17-1.42c.02-.13.11-.24.25-.28.13-.04.27.02.34.13l.66.94c.1.15.07.35-.07.46-.16.1-.36.07-.46-.08l-.17-.24-.06.58c-.02.16-.16.29-.32.29Z"/>
      <path class="cls-2" d="M22.13,9.83c-.11,0-.22-.06-.29-.16-.08-.16-.04-.36.12-.45l.7-.41c.16-.09.35-.04.44.12.09.16.04.36-.12.45l-.7.41c-.06.03-.11.04-.16.04Z"/>
      <path class="cls-2" d="M22.71,10.81c-.15,0-.29-.11-.33-.27l-.23-1.18c-.04-.18.08-.36.26-.39.17-.04.35.08.39.26l.23,1.19c.04.18-.09.34-.26.38-.02,0-.05,0-.06,0Z"/>
    </g>
  </g>
</svg>