<?xml version="1.0" encoding="UTF-8"?>
<svg id="Layer_2" data-name="Layer 2" xmlns="http://www.w3.org/2000/svg" viewBox="0 0 31.46 40.74" fill="currentColor">
  <defs>
    <style>
      .cls-1 {
        fill: #fff;
      }

      .cls-1, .cls-2, .cls-3, .cls-4 {
        fill-rule: evenodd;
      }

      .cls-2 {
        fill: #1a87c7;
      }

      .cls-3 {
        fill: #bdedf8;
      }

      .cls-4 {
        fill: #66ceef;
      }
    </style>
  </defs>
  <g id="_Layer_" data-name="&amp;lt;Layer&amp;gt;">
    <g>
      <polygon class="cls-1" points="11.15 19.31 11.15 24.86 6.5 27.55 1.83 24.7 11.15 19.31"/>
      <path class="cls-2" d="M2.44,24.71l4.06,2.49,4.35-2.51v-4.83l-8.41,4.86h0ZM6.5,27.86c-.06,0-.11-.01-.17-.04l-4.66-2.85c-.09-.06-.15-.16-.15-.27,0-.11.06-.21.16-.26l9.33-5.38c.09-.06.21-.06.3,0,.09.05.15.16.15.26v5.54c0,.11-.06.22-.15.27l-4.67,2.7s-.09.03-.15.03Z"/>
      <polygon class="cls-1" points="11.15 19.31 11.15 24.86 24.73 32.7 24.73 27.15 11.15 19.31"/>
      <path class="cls-2" d="M11.47,24.68l12.96,7.47v-4.83l-12.96-7.48v4.83h0ZM24.73,33c-.05,0-.11-.01-.16-.04l-13.57-7.83c-.1-.05-.16-.16-.16-.27v-5.54c0-.1.06-.21.16-.26.09-.06.21-.06.3,0l13.58,7.83c.09.06.16.16.16.27v5.55c0,.1-.06.21-.16.26-.05.03-.11.04-.16.04Z"/>
      <polygon class="cls-1" points="11.15 23.43 24.73 31.27 29.62 38.41 15.4 35.47 2.85 28.23 11.15 23.43"/>
      <path class="cls-2" d="M15.52,35.18l13.42,2.76-4.42-6.45-13.36-7.71-7.68,4.44,12.05,6.95h0ZM29.62,38.71s-.04,0-.06,0l-14.22-2.93s-.06-.02-.1-.03l-12.55-7.25c-.1-.05-.15-.16-.15-.26,0-.11.05-.22.15-.27l8.31-4.79c.09-.06.21-.06.3,0l13.58,7.83s.07.05.09.09l4.89,7.14c.07.09.07.23,0,.34-.05.09-.15.14-.25.14Z"/>
      <polygon class="cls-1" points="29.83 35.48 27.26 34.96 24.58 31.18 24.73 27.15 29.83 35.48"/>
      <path class="cls-2" d="M27.44,34.68l1.76.36-4.2-6.85-.11,2.9,2.55,3.59h0ZM29.83,35.79s-.04-.01-.06-.01l-2.57-.53c-.08,0-.15-.05-.19-.12l-2.68-3.76c-.03-.06-.06-.13-.05-.19l.15-4.03c0-.14.09-.25.23-.29.13-.03.27.02.34.13l5.1,8.33c.06.11.06.24,0,.34-.06.08-.16.13-.25.13Z"/>
      <polygon class="cls-3" points="14.92 33.13 14.92 38.79 .91 30.69 .31 24.7 14.92 33.13"/>
      <path class="cls-2" d="M1.2,30.5l13.4,7.76v-4.95L.67,25.26l.53,5.23h0ZM14.92,39.1c-.05,0-.12-.02-.16-.04L.76,30.95c-.09-.05-.14-.14-.15-.24L0,24.72c-.02-.11.04-.23.14-.28.09-.06.22-.07.32,0l14.6,8.43c.09.06.16.16.16.27v5.66c0,.11-.06.21-.16.27-.04.03-.09.04-.15.04Z"/>
      <path class="cls-1" d="M14.92,38.79l13.68,1.63,2.43-4.25-16.11-3.04v5.66Z"/>
      <path class="cls-2" d="M15.22,38.52l13.21,1.57,2.11-3.69-15.32-2.89v5.01h0ZM28.6,40.74s-.03,0-.03,0l-13.69-1.63c-.15-.02-.27-.15-.27-.3v-5.66c0-.09.04-.18.11-.24.07-.06.17-.09.25-.07l16.12,3.04c.1.02.18.09.22.18.04.09.04.2,0,.29l-2.43,4.25c-.06.09-.17.15-.27.15Z"/>
      <polygon class="cls-3" points="14.92 38.79 28.6 40.42 29.31 39.17 14.92 36.97 14.92 38.79"/>
      <path class="cls-2" d="M15.22,38.52l13.21,1.57.39-.69-13.6-2.08v1.19h0ZM28.6,40.74s-.03,0-.03,0l-13.69-1.63c-.15-.02-.27-.15-.27-.3v-1.82c0-.1.04-.17.11-.23.06-.06.16-.09.24-.07l14.4,2.2c.1.02.18.08.23.17.04.09.04.2,0,.29l-.71,1.25c-.06.09-.17.15-.27.15Z"/>
      <polygon class="cls-4" points=".71 28.78 .91 30.69 14.92 38.79 14.92 36.97 .71 28.78"/>
      <path class="cls-2" d="M1.2,30.5l13.4,7.76v-1.11L1.09,29.35l.11,1.15h0ZM14.92,39.1c-.05,0-.12-.02-.16-.04L.76,30.95c-.09-.05-.14-.14-.15-.24l-.19-1.9c0-.12.04-.23.14-.29.09-.07.23-.07.32,0l14.2,8.19c.09.05.16.16.16.27v1.82c0,.11-.06.21-.16.27-.04.03-.09.04-.15.04Z"/>
      <path class="cls-1" d="M2.2,24.63l9.32-5.38,13.45,7.76,4.01,6.57.93,1.51-14.27-2.7c-4.53-2.61-8.93-5.15-13.45-7.76h0ZM11.15,18.43L.31,24.7c4.87,2.81,9.74,5.62,14.61,8.43l16.11,3.04-5.27-9.31-14.61-8.43h0Z"/>
      <path class="cls-2" d="M25.3,26.95l2.13,3.48-1.89-3.34-.24-.14h0ZM15.75,32.11l-12.94-7.47,8.72-5.02,13.22,7.63,4.55,7.43-13.54-2.56h0ZM15.02,32.84L.92,24.7l10.23-5.91.29.17s-.05.02-.07.02l-9.33,5.38c-.09.06-.16.16-.16.27s.06.21.16.27l13.45,7.76s.06.03.1.04l14.28,2.7c.12.02.24-.03.3-.12l.27.47-15.42-2.91h0ZM31.03,36.48h-.06l-16.12-3.04s-.07-.02-.09-.04L.15,24.96c-.09-.05-.15-.16-.15-.26,0-.12.05-.22.15-.27l10.86-6.27c.09-.05.21-.05.3,0l14.61,8.44s.09.06.12.11l5.27,9.3c.06.11.05.24-.02.34-.06.08-.16.12-.25.12Z"/>
      <path class="cls-1" d="M9.6,27.29c.13.63,1.65.56,1.7,0V.81c-.12.6-1.58.6-1.7,0v26.48Z"/>
      <path class="cls-2" d="M9.91,27.25c.03.09.21.16.42.18.36.03.63-.09.66-.16V1.48c-.17.06-.35.09-.55.09h0c-.2,0-.38-.03-.54-.09v25.77h0ZM10.44,28.05c-.51,0-1.04-.21-1.15-.69V.81c0-.16.11-.29.28-.3.16-.01.3.09.33.24.02.09.22.2.55.2h0c.33,0,.54-.11.55-.2.03-.15.16-.26.34-.24.16.02.28.15.28.3v26.48c-.04.44-.47.72-1.08.75-.02.01-.06.01-.09.01Z"/>
      <path class="cls-1" d="M11.05.45c-.33-.19-.87-.19-1.2,0-.33.2-.33.5,0,.69.33.2.87.2,1.2,0,.34-.19.34-.49,0-.69Z"/>
      <path class="cls-2" d="M10.45.62c-.16,0-.33.03-.44.1-.07.04-.09.08-.11.09.01,0,.03.03.11.08.23.14.65.14.9,0,.07-.04.09-.08.09-.09,0,0-.03-.04-.09-.08-.12-.07-.29-.1-.45-.1h0ZM10.45,1.6c-.27,0-.55-.06-.76-.18-.25-.15-.4-.37-.4-.62s.15-.46.4-.61c.44-.25,1.08-.25,1.51,0h0c.26.15.4.37.4.61s-.14.47-.4.62c-.21.12-.49.18-.76.18Z"/>
      <path class="cls-4" d="M31.03,36.17c-4.78-4.07-15.16-10.56-20.24-10.3,2.09-7.4,2.48-17.47.26-24.73,12.95,8.79,21.22,20.92,19.98,35.03Z"/>
      <path class="cls-2" d="M11.2,25.55c5.02.09,14.44,5.75,19.57,9.99.85-12.51-5.93-24.41-19.18-33.66,1.82,6.74,1.67,16.05-.39,23.66h0ZM31.03,36.48c-.07,0-.15-.03-.2-.07-4.46-3.81-14.93-10.48-20.03-10.23-.09,0-.2-.04-.26-.12-.06-.08-.08-.18-.05-.28,2.22-7.89,2.34-17.76.27-24.54-.04-.13,0-.26.1-.34.11-.08.25-.08.36,0,14.12,9.59,21.27,22.12,20.11,35.31,0,.11-.08.21-.19.26-.03.02-.08.02-.11.02Z"/>
      <polygon class="cls-4" points="9.6 22.21 1.09 17.82 9.6 .81 9.6 22.21"/>
      <path class="cls-2" d="M1.5,17.68l7.79,4.02V2.12L1.5,17.68h0ZM9.6,22.52s-.09,0-.14-.04L.95,18.09c-.15-.07-.21-.26-.13-.41L9.32.68c.07-.13.22-.2.35-.17.14.03.24.16.24.3v21.41c0,.11-.06.2-.15.26-.05.03-.11.04-.17.04Z"/>
    </g>
  </g>
</svg>