<?xml version="1.0" encoding="UTF-8"?>
<svg id="Layer_2" data-name="Layer 2" xmlns="http://www.w3.org/2000/svg" viewBox="0 0 32.91 41.28" fill="currentColor">
  <defs>
    <style>
      .cls-1 {
        fill: #fff;
      }

      .cls-1, .cls-2, .cls-3, .cls-4 {
        fill-rule: evenodd;
      }

      .cls-2 {
        fill: #1a87c7;
      }

      .cls-3 {
        fill: #bdedf8;
      }

      .cls-4 {
        fill: #66ceef;
      }
    </style>
  </defs>
  <g id="_Layer_" data-name="&amp;lt;Layer&amp;gt;">
    <g>
      <polygon class="cls-1" points="26.17 28.42 13.49 21.09 13.49 21.1 13.47 21.1 13.47 21.1 13.47 21.1 13.47 21.1 13.47 21.11 13.47 21.11 13.44 21.11 26.15 28.44 26.15 28.44 26.15 28.44 26.15 28.43 26.17 28.43 26.17 28.43 26.17 28.43 26.17 28.43 26.17 28.42"/>
      <path class="cls-2" d="M26.15,28.75c-.05,0-.1-.01-.16-.04l-12.71-7.33c-.08-.06-.16-.17-.13-.29,0-.12.08-.22.18-.27.1-.06.21-.05.31,0l12.68,7.33c.11.06.16.16.16.26s-.05.21-.16.26h0s-.05.03-.08.04c-.03.02-.08.02-.11.02Z"/>
      <polygon class="cls-3" points="32.59 24.72 19.91 17.39 9.04 23.66 21.72 30.99 32.59 24.72"/>
      <path class="cls-2" d="M9.64,23.66l12.08,6.97,10.27-5.92-12.08-6.97-10.27,5.92h0ZM21.72,31.3c-.05,0-.11-.02-.16-.04l-12.68-7.33c-.11-.06-.16-.16-.16-.27s.05-.21.16-.27l10.87-6.27c.11-.05.21-.05.31,0l12.68,7.33c.1.06.16.16.16.27s-.05.21-.16.27l-10.87,6.27c-.05.03-.11.04-.16.04Z"/>
      <polygon class="cls-1" points="21.72 30.99 9.04 23.66 8.99 23.69 8.93 23.7 8.88 23.69 8.86 23.68 21.54 31.01 21.59 31.02 21.61 31.03 21.67 31.02 21.72 30.99"/>
      <path class="cls-2" d="M21.61,31.33h0s-.1-.01-.13-.02c-.03,0-.08-.03-.1-.04l-12.68-7.33c-.16-.08-.21-.25-.13-.4.05-.13.21-.2.34-.17.08-.02.21-.03.29.02l12.68,7.33c.11.06.16.16.16.28s-.08.22-.18.27l-.05.02s-.08.03-.1.03c-.03,0-.05,0-.08,0Z"/>
      <path class="cls-3" d="M32.3,7.71L19.6.38c-.37-.17-.63,0-.94.18L1.39,10.53c-.34.22-.55.45-.76.79l12.71,7.33c.21-.35.39-.57.73-.79L31.33,7.9c.31-.18.58-.37.97-.19Z"/>
      <path class="cls-2" d="M1.07,11.22l12.16,7.02c.18-.24.37-.44.68-.64L31.18,7.63c.05-.03.13-.07.18-.1L19.44.65c-.16-.08-.26-.02-.58.16L1.55,10.8c-.21.13-.34.26-.47.42h0ZM13.34,18.96c-.05,0-.11-.01-.16-.04L.47,11.59c-.08-.04-.13-.11-.13-.19-.03-.08-.03-.17.03-.24.24-.36.45-.63.84-.89L18.5.3c.37-.21.73-.43,1.23-.2l12.73,7.34c.13.08.18.26.1.41-.08.15-.26.2-.39.14-.18-.09-.31-.03-.63.14l-17.32,10c-.29.19-.45.39-.63.69-.08.09-.16.14-.26.14Z"/>
      <path class="cls-4" d="M13.34,18.65L.63,11.32l-.05.13-.08.13-.05.13-.05.13-.03.13-.03.13-.03.13v20.61c0,.3.05.55.31.73l12.68,7.33c-.26-.19-.29-.43-.31-.74l.03-20.47v-.13l.03-.13.03-.13.03-.13.05-.13.05-.13.05-.13.08-.13Z"/>
      <path class="cls-2" d="M.76,11.75l-.13.62v20.47c0,.27.03.39.18.48l11.89,6.87v-.03l.05-20.93.16-.47L.76,11.75h0ZM13.31,41.21c-.05,0-.1-.01-.16-.04L.47,33.84c-.42-.29-.47-.66-.47-1L.08,11.91l.29-.74c.03-.07.1-.13.18-.15.08-.02.16-.01.24.03l12.71,7.33c.13.08.18.26.11.41l-.26.7v.21l-.03,20.45c.03.29.03.39.18.49.13.09.18.28.08.42-.05.09-.16.14-.26.14Z"/>
      <path class="cls-1" d="M27.72,25.54c-.18,2.76-6.81,3.05-7.15,0l-.6-5.99h8.49c-.16,1.95-.52,4.07-.73,5.99Z"/>
      <path class="cls-2" d="M20.3,19.86l.55,5.65c.16,1.35,1.81,1.94,3.3,1.9,1.55-.02,3.17-.68,3.28-1.9h0c.08-.79.18-1.59.29-2.41.16-1.08.31-2.19.39-3.25h-7.81ZM24.05,28.03c-1.76,0-3.62-.75-3.8-2.45l-.6-5.99c0-.09.03-.17.08-.24.08-.06.16-.1.24-.1h8.49c.08,0,.16.03.24.1.05.06.08.15.08.23-.11,1.18-.26,2.42-.42,3.62-.11.81-.24,1.61-.31,2.38-.13,1.65-2.1,2.43-3.88,2.46h-.1Z"/>
      <path class="cls-3" d="M21.22,17.82c1.65-.96,4.35-.96,6,0,1.65.96,1.65,2.51,0,3.47-1.65.96-4.35.96-6,0-1.68-.96-1.68-2.51,0-3.47Z"/>
      <path class="cls-2" d="M24.21,17.4c-1.02,0-2.07.23-2.83.68h0c-.71.4-1.1.93-1.1,1.47s.39,1.06,1.07,1.47c1.57.91,4.14.91,5.71,0,.71-.41,1.07-.93,1.07-1.47s-.37-1.06-1.07-1.47c-.79-.45-1.81-.68-2.86-.68h0ZM24.21,22.3c-1.13,0-2.28-.25-3.14-.75-.92-.52-1.41-1.23-1.41-2s.5-1.48,1.41-2h0c1.73-1.01,4.56-1,6.31,0,.89.52,1.39,1.23,1.39,2s-.5,1.48-1.39,2c-.89.5-2.02.75-3.17.75Z"/>
      <path class="cls-4" d="M28.32,20.14c-.16.42-.55.81-1.1,1.14-1.65.96-4.35.96-6,0-.58-.33-.94-.72-1.13-1.14.18-.42.55-.82,1.13-1.14,1.65-.96,4.35-.96,6,0,.55.33.94.73,1.1,1.14Z"/>
      <path class="cls-2" d="M20.44,20.14c.18.32.5.62.92.88,1.57.91,4.14.91,5.71,0,.42-.25.76-.55.92-.88-.16-.32-.5-.63-.92-.88-1.57-.9-4.14-.9-5.69,0-.45.25-.76.55-.94.88h0ZM24.21,22.3c-1.13,0-2.28-.25-3.14-.75-.63-.35-1.05-.8-1.26-1.29-.03-.08-.03-.17,0-.24.21-.5.66-.94,1.26-1.29,1.73-1,4.56-1,6.31,0,.6.35,1.02.8,1.23,1.29.05.08.05.16,0,.24-.21.49-.63.94-1.23,1.29-.89.5-2.02.75-3.17.75Z"/>
      <path class="cls-2" d="M23.71,22.3c-.89,0-1.78-.25-2.65-.75-.26-.14-.47-.31-.68-.48-.11-.12-.13-.31,0-.44.1-.12.31-.13.42-.02.16.14.34.28.55.4,1.36.77,2.78.88,4.11.3.58-.26,1.15-.69,1.1-1.07-.03-.03-.03-.06-.03-.09-.13-.24-.5-.47-1.05-.62-.63-.18-1.41-.22-2.17-.11-.37.05-.73.15-1.02.27-.31.13-.47.27-.55.36-.05.08-.08.14-.08.18.03.09.18.23.55.34.39.11.92.13,1.39.07.21-.03.42-.09.58-.16.16-.06.24-.13.29-.16-.03,0-.11-.03-.18-.05-.24-.06-.52-.07-.81-.03-.16.03-.31-.09-.34-.26-.03-.17.08-.32.26-.35.37-.05.73-.03,1.05.05.34.09.55.23.63.43,0,.02.03.1.03.13.03.11.03.28-.16.47-.11.14-.29.25-.5.35-.21.09-.47.16-.76.2-.55.08-1.13.05-1.63-.08-.5-.14-.84-.36-.94-.66-.03-.06-.05-.13-.05-.19-.03-.16,0-.4.24-.67.16-.2.42-.37.76-.51.34-.15.73-.26,1.18-.32.84-.12,1.7-.07,2.41.13.52.14,1.2.43,1.44.97.03.07.05.14.08.21.18.96-1.07,1.59-1.47,1.76-.66.28-1.31.42-1.99.42Z"/>
      <polygon class="cls-1" points="23.53 18.1 20.57 16.4 20.57 14.5 23.53 14.77 23.53 18.1"/>
      <path class="cls-2" d="M20.88,16.22l2.33,1.34v-2.51l-2.33-.21v1.38h0ZM23.53,18.41c-.05,0-.1-.02-.16-.04l-2.96-1.7c-.08-.05-.16-.16-.16-.26v-1.89c0-.09.05-.17.1-.23.08-.06.16-.09.24-.08l2.96.27c.16.02.26.15.26.31v3.33c0,.11-.05.21-.13.27-.05.03-.11.04-.16.04Z"/>
      <polygon class="cls-1" points="23.53 14.77 26.57 13.01 26.57 16.34 23.53 18.1 23.53 14.77"/>
      <path class="cls-2" d="M23.82,14.95v2.62l2.44-1.4v-2.62l-2.44,1.4h0ZM23.53,18.41c-.05,0-.1-.02-.16-.04-.1-.06-.16-.16-.16-.27v-3.33c0-.11.05-.21.16-.27l3.04-1.76c.11-.06.21-.06.32,0,.1.05.16.16.16.27v3.33c0,.11-.05.21-.16.26l-3.04,1.76c-.05.03-.11.04-.16.04Z"/>
      <path class="cls-1" d="M30.1,26.15l-3.93,2.27s-.03.01-.03.02l-4.43,2.55c-.13.08-.26.02-.26-.15l.03-13.34c0-.17.11-.37.26-.46l5.53-3.19v-.02l1.76-1s0,0,.03-.02l3.56-2.05v-2.38h0c0-.34-.13-.57-.31-.69-.21-.11-.47-.09-.76.07h0s0,0,0,0l-17.47,10.08c-.29.17-.55.46-.73.79-.21.33-.31.71-.31,1.04l-.03,20.53h0c0,.34.13.57.31.68.21.11.47.1.76-.07h0s0,0,0,0l17.47-10.08c.29-.17.55-.46.73-.79.21-.33.32-.71.32-1.04v-4.21l-2.46,1.42h-.03Z"/>
      <path class="cls-2" d="M30.1,26.15h.03-.03ZM31.68,8.06l-17.45,10.07c-.23.13-.47.38-.63.68-.18.3-.26.62-.26.89l-.03,20.53c0,.21.05.36.16.42.1.06.26.03.45-.07,0,0,0-.01.03-.02l17.45-10.07c.24-.13.47-.38.63-.68.18-.3.26-.62.26-.89l.03-3.67-2.02,1.16-.18-.26.16.27-8.38,4.84c-.16.1-.34.1-.5.02-.13-.08-.24-.24-.24-.44l.03-13.34c0-.28.16-.58.42-.72l10.72-6.18v-2.22c0-.2-.08-.35-.16-.4-.1-.06-.26-.03-.42.06-.03.01-.03.02-.05.02h0ZM13.6,41.28c-.16,0-.31-.04-.45-.11-.29-.17-.45-.52-.45-.95v-20.53c0-.38.13-.8.34-1.2.24-.4.55-.71.86-.9L31.39,7.51s.03,0,.03,0c.37-.21.73-.23,1.05-.06.29.17.45.52.45.95v2.38c0,.11-.05.21-.16.27l-10.85,6.27c-.05.03-.13.13-.13.19v13.11l10.66-6.16c.1-.05.24-.05.31,0,.1.06.16.16.16.27v4.21c0,.38-.13.8-.34,1.19-.24.39-.55.71-.86.9l-17.48,10.08h0c-.21.12-.42.18-.63.18Z"/>
      <path class="cls-4" d="M19.1,30.63c-.42-.25-1.05-.22-1.7.17-.68.39-1.28,1.06-1.73,1.82-.45.76-.73,1.63-.73,2.4s.29,1.32.73,1.58c.45.25,1.05.22,1.73-.17.65-.39,1.28-1.06,1.7-1.82h.03c.42-.76.71-1.63.71-2.41s-.26-1.31-.71-1.57h-.03Z"/>
      <path class="cls-2" d="M18.47,30.77c-.26,0-.6.1-.92.29-.63.35-1.18.96-1.62,1.71-.45.75-.68,1.55-.68,2.25,0,.64.21,1.1.58,1.31.37.21.86.15,1.42-.17.6-.35,1.18-.96,1.6-1.71,0,0,.03-.01.03-.02.42-.74.65-1.54.65-2.23,0-.63-.18-1.09-.55-1.3l.13-.28-.13.27c-.16-.08-.31-.12-.5-.12h0ZM16.3,37.08c-.29,0-.55-.07-.79-.2-.58-.32-.86-.98-.86-1.85,0-.8.26-1.71.76-2.56.47-.84,1.13-1.53,1.83-1.93.73-.43,1.47-.49,2.02-.17h.03c.55.35.86,1,.86,1.85s-.29,1.72-.76,2.56c-.5.85-1.15,1.53-1.83,1.93-.45.25-.86.38-1.26.38Z"/>
      <polygon class="cls-1" points="14.33 21.06 19.96 17.81 19.96 22.39 14.33 25.64 14.33 21.06"/>
      <path class="cls-2" d="M14.65,21.24v3.87l5-2.9v-3.87l-5,2.9h0ZM14.33,25.95c-.05,0-.11-.02-.16-.04-.08-.06-.16-.16-.16-.27v-4.58c0-.11.08-.21.16-.27l5.63-3.25c.1-.06.21-.06.31,0,.08.05.16.16.16.27v4.58c0,.11-.08.21-.16.27l-5.63,3.25c-.05.03-.1.04-.16.04Z"/>
      <polygon class="cls-1" points="14.33 21.06 19.96 17.81 19.96 22.39 14.33 25.64 14.33 21.06"/>
      <path class="cls-2" d="M14.65,21.24v3.87l5-2.9v-3.87l-5,2.9h0ZM14.33,25.95c-.05,0-.11-.02-.16-.04-.08-.06-.16-.16-.16-.27v-4.58c0-.11.08-.21.16-.27l5.63-3.25c.1-.06.21-.06.31,0,.08.05.16.16.16.27v4.58c0,.11-.08.21-.16.27l-5.63,3.25c-.05.03-.1.04-.16.04Z"/>
      <path class="cls-2" d="M17.97,20.56l-.03,1.54.66-.39.03-1.54-.65.39h0ZM17.71,22.87c-.05,0-.13-.02-.18-.05-.13-.08-.21-.22-.21-.38v-1.82c0-.22.13-.47.34-.58h0l.94-.56c.16-.08.31-.09.45-.01.13.08.21.22.21.38v1.82c0,.23-.16.47-.34.58l-.97.55c-.08.05-.16.07-.24.07Z"/>
      <path class="cls-2" d="M15.48,24.15c-.05,0-.13-.02-.18-.05-.13-.07-.21-.22-.21-.38v-1.82c0-.23.13-.47.34-.58l.94-.56c.16-.09.34-.04.42.11.08.15.05.34-.1.42l-.97.56-.03,1.54.71-.39v-.34l-.05.03c-.16.08-.34.03-.42-.12-.11-.14-.05-.33.1-.42l.37-.2c.13-.08.29-.09.42-.01.13.07.21.22.21.38v.62c0,.23-.13.47-.34.58l-.97.56c-.05.04-.16.07-.24.07Z"/>
    </g>
  </g>
</svg>