<?xml version="1.0" encoding="UTF-8"?>
<svg id="Layer_2" data-name="Layer 2" xmlns="http://www.w3.org/2000/svg" viewBox="0 0 40.23 42.22" fill="currentColor">
  <defs>
    <style>
      .cls-1 {
        fill: #fff;
      }

      .cls-1, .cls-2, .cls-3, .cls-4 {
        fill-rule: evenodd;
      }

      .cls-2 {
        fill: #1a87c7;
      }

      .cls-3 {
        fill: #bdedf8;
      }

      .cls-4 {
        fill: #66ceef;
      }
    </style>
  </defs>
  <g id="_Layer_" data-name="&amp;lt;Layer&amp;gt;">
    <g>
      <polygon class="cls-3" points="39.56 28.2 21.8 17.94 .31 30.33 18.07 40.59 39.56 28.2"/>
      <path class="cls-2" d="M.93,30.33l17.14,9.9,20.88-12.04-17.15-9.9L.93,30.33h0ZM18.07,40.9s-.1-.02-.15-.04L.15,30.6c-.09-.06-.15-.15-.15-.27s.06-.21.15-.27l21.49-12.39c.09-.05.22-.05.3,0l17.77,10.26c.1.06.16.16.16.27s-.06.21-.16.27l-21.49,12.4s-.09.04-.16.04Z"/>
      <polygon class="cls-4" points="18.07 40.59 .31 30.33 .31 31.65 18.07 41.91 18.07 40.59"/>
      <path class="cls-2" d="M.62,31.47l17.15,9.9v-.61L.62,30.87v.61h0ZM18.07,42.22s-.1-.01-.15-.04L.15,31.92c-.09-.06-.15-.16-.15-.27v-1.32c0-.11.06-.21.15-.27.1-.05.21-.05.3,0l17.77,10.25c.1.06.16.16.16.27v1.32c0,.11-.06.21-.16.26-.05.03-.1.04-.16.04Z"/>
      <polygon class="cls-3" points="18.07 41.91 39.56 29.51 39.56 28.2 18.07 40.59 18.07 41.91"/>
      <path class="cls-2" d="M18.38,40.77v.61l20.87-12.04v-.61l-20.87,12.04h0ZM18.07,42.22s-.1-.01-.15-.04c-.1-.06-.16-.16-.16-.26v-1.32c0-.11.06-.21.16-.27l21.49-12.39c.09-.05.21-.05.3,0,.1.06.16.16.16.27v1.32c0,.11-.06.21-.16.27l-21.49,12.39c-.05.03-.1.04-.16.04Z"/>
      <polygon class="cls-1" points="18.03 26.98 5.6 19.8 5.6 30.76 18.03 37.94 18.03 26.98"/>
      <path class="cls-2" d="M5.9,30.59l11.82,6.83v-10.25s-11.81-6.82-11.81-6.82v10.25h0ZM18.03,38.25c-.05,0-.11-.01-.15-.04l-12.44-7.18c-.09-.06-.16-.16-.16-.27v-10.97c.01-.11.07-.21.17-.27.09-.05.21-.05.3,0l12.44,7.18c.09.05.16.16.16.27v10.96c-.01.11-.07.21-.17.27-.04.03-.1.04-.16.04Z"/>
      <polygon class="cls-1" points="26.47 10.16 14.04 2.98 3.8 20.84 16.23 28.02 26.47 10.16"/>
      <path class="cls-2" d="M4.22,20.72l11.9,6.87,9.93-17.32L14.15,3.4,4.22,20.72h0ZM16.23,28.32s-.1-.01-.15-.04l-12.43-7.18c-.15-.08-.2-.27-.11-.42L13.77,2.83c.04-.07.12-.12.19-.14.08-.02.17,0,.24.03l12.43,7.18c.15.08.2.27.12.42l-10.24,17.85c-.04.07-.11.12-.19.14-.03,0-.05.01-.08.01Z"/>
      <polygon class="cls-1" points="34.97 28.17 34.97 17.21 36.77 16.17 26.47 10.16 16.23 28.02 18.03 26.98 18.03 37.94 34.97 28.17"/>
      <path class="cls-2" d="M18.03,26.67c.05,0,.11.02.16.04.09.05.16.16.16.27v10.43s16.31-9.42,16.31-9.42v-10.78c0-.11.06-.21.15-.27l1.34-.77-9.57-5.58-9.52,16.59.82-.47s.09-.04.15-.04h0ZM18.03,38.25c-.05,0-.11-.01-.15-.04-.09-.06-.15-.16-.15-.27v-10.43s-1.33.77-1.33.77c-.12.07-.27.05-.37-.05-.1-.1-.12-.25-.05-.37l10.24-17.85c.04-.07.11-.12.19-.14.08-.02.15-.01.23.03l10.3,6.01c.1.05.15.16.15.27s-.05.21-.15.27l-1.65.95v10.78c0,.11-.06.21-.16.27l-16.94,9.77s-.1.04-.16.04Z"/>
      <polygon class="cls-4" points="23.6 34.73 29.14 31.53 29.14 21.02 23.6 24.22 23.6 34.73"/>
      <path class="cls-2" d="M23.9,24.4v9.8l4.94-2.85v-9.8l-4.94,2.85h0ZM23.6,35.04c-.05,0-.11-.02-.16-.04-.1-.05-.16-.16-.16-.27v-10.51c0-.11.06-.21.16-.27l5.55-3.2c.09-.06.21-.06.3,0,.09.05.16.16.16.27v10.51c0,.11-.06.21-.16.27l-5.55,3.2s-.09.04-.15.04Z"/>
      <path class="cls-3" d="M10.5,29.89v-3.38s-.03-.1-.07-.13l-2.21-1.27s-.07,0-.07.04v3.37s.04.1.07.13l2.21,1.27s.07,0,.07-.04Z"/>
      <path class="cls-2" d="M8.45,28.44l1.74,1v-2.83l-1.74-1v2.83h0ZM10.46,30.24c-.07,0-.14-.02-.19-.04l-2.2-1.27c-.14-.08-.23-.23-.23-.39v-3.37c0-.11.09-.26.17-.31.11-.06.24-.06.37,0l2.21,1.28c.13.08.23.23.23.39v3.38c0,.11-.09.26-.18.31-.04.03-.1.04-.17.04Z"/>
      <polygon class="cls-3" points="27.31 10.84 12.89 2.52 23.61 8.77 38.03 17.09 27.31 10.84"/>
      <path class="cls-2" d="M38.03,17.4c-.05,0-.11-.01-.15-.04l-14.43-8.33L12.73,2.78c-.15-.09-.2-.27-.12-.42.09-.15.28-.2.43-.11l14.42,8.33h0l10.72,6.25c.15.09.2.27.11.42-.06.1-.16.15-.27.15Z"/>
      <polygon class="cls-3" points="38.03 17.09 39.93 16 27.31 8.64 14.77 30.51 16.66 29.42 27.31 10.84 38.03 17.09"/>
      <path class="cls-2" d="M27.42,9.06l-11.82,20.62.84-.48,10.61-18.5c.04-.07.1-.13.18-.14.08-.02.17-.01.24.03l10.56,6.16,1.28-.74-11.89-6.94h0ZM14.77,30.82c-.08,0-.16-.03-.22-.09-.1-.1-.12-.25-.05-.37l12.54-21.88c.04-.07.1-.12.19-.14.08-.02.16-.01.24.03l12.62,7.36c.09.06.15.16.15.27s-.06.21-.15.27l-1.9,1.09c-.09.06-.22.06-.31,0l-10.45-6.09-10.49,18.3s-.07.09-.11.12l-1.91,1.09s-.09.04-.15.04Z"/>
      <path class="cls-3" d="M13.8,31.8v-3.38s-.04-.1-.07-.12l-2.21-1.27s-.07,0-.07.04v3.37s.03.1.07.12l2.21,1.27s.07,0,.07-.04Z"/>
      <path class="cls-2" d="M11.76,30.35l1.73,1v-2.83l-1.73-1v2.83h0ZM13.76,32.15c-.06,0-.13-.02-.18-.04l-2.21-1.27c-.13-.08-.23-.24-.23-.39v-3.37c0-.11.08-.26.17-.31.11-.06.25-.06.36,0l2.2,1.27c.14.08.22.23.22.39v3.38c0,.11-.08.26-.17.31-.04.03-.1.04-.18.04Z"/>
      <polygon class="cls-4" points="27.31 8.64 12.88 .31 .34 22.19 14.77 30.51 27.31 8.64"/>
      <path class="cls-2" d="M.76,22.07l13.89,8.02,12.23-21.34L12.99.73.76,22.07h0ZM14.77,30.82c-.05,0-.11-.02-.16-.04L.19,22.45c-.15-.08-.2-.27-.11-.42L12.62.15c.04-.07.11-.12.18-.14.08-.02.16-.01.24.03l14.42,8.33c.15.09.2.27.12.42l-12.54,21.88c-.04.07-.11.12-.18.15-.03,0-.05.01-.08.01Z"/>
    </g>
  </g>
</svg>