<?xml version="1.0" encoding="UTF-8"?>
<svg id="Layer_2" data-name="Layer 2" xmlns="http://www.w3.org/2000/svg" viewBox="0 0 40.59 41.42" fill="currentColor">
  <defs>
    <style>
      .cls-1 {
        fill: #fff;
      }

      .cls-1, .cls-2, .cls-3, .cls-4 {
        fill-rule: evenodd;
      }

      .cls-2 {
        fill: #1a87c7;
      }

      .cls-3 {
        fill: #bdedf8;
      }

      .cls-4 {
        fill: #66ceef;
      }
    </style>
  </defs>
  <g id="_Layer_" data-name="&amp;lt;Layer&amp;gt;">
    <g>
      <path class="cls-4" d="M5.16,29.64l6.24,3.61c-1.07-.69-1.62-1.46-2.02-2.68-.24-.87-.31-1.64-.31-2.55v-.6c-.03-.1-.03-.16-.1-.23l-6.26-3.61c.08.08.1.12.1.22v.6c0,.62.05,1.17.16,1.77.29,1.52.86,2.6,2.2,3.45Z"/>
      <path class="cls-2" d="M5.31,29.38l4.27,2.46c-.18-.35-.34-.73-.5-1.17-.24-.83-.34-1.61-.34-2.64v-.6l-5.63-3.23v.23c0,.64.05,1.17.13,1.73.31,1.58.89,2.49,2.07,3.23h0ZM11.39,33.56c-.05,0-.11,0-.13-.03l-6.26-3.61h0c-1.31-.84-2.02-1.9-2.36-3.66-.11-.6-.13-1.16-.16-1.83v-.6c-.13-.1-.13-.27-.05-.4.1-.14.29-.17.42-.09l6.24,3.6c.24.18.26.34.26.47v.63c.03.98.1,1.69.31,2.46.39,1.19.92,1.88,1.91,2.5.13.09.18.28.1.42-.08.1-.18.15-.29.15Z"/>
      <path class="cls-4" d="M15.56,37.4l6.24,3.61c-.31-.24-.34-.5-.39-.88-.05-.42-.16-.71-.37-1.08-.21-.29-.37-.43-.65-.62l-6.24-3.61c.23.16.39.28.58.51.24.35.31.62.42,1.03.08.42.05.74.42,1.03Z"/>
      <path class="cls-2" d="M15.71,37.15l5.4,3.1v-.05c-.08-.39-.16-.64-.37-.99-.16-.24-.29-.36-.52-.51l-4.9-2.82c.05.14.08.28.1.44l.05.23c.03.32.05.46.24.61h0ZM21.79,41.31c-.05,0-.11-.02-.16-.04l-6.24-3.6s-.03-.02-.03-.03c-.42-.31-.47-.67-.52-1.02v-.19c-.08-.35-.18-.59-.39-.91-.16-.19-.26-.29-.47-.43-.16-.09-.21-.27-.1-.42.08-.15.26-.19.42-.1l6.24,3.6c.34.21.52.38.73.7.29.44.37.78.45,1.22.05.4.08.52.26.67.13.1.18.29.08.42-.05.09-.16.14-.26.14Z"/>
      <path class="cls-3" d="M25.38,29.56l.11.06.05.02h.08s.05,0,.05,0l.08-.03.05-.04.05-.06.08-.07.05-.09,6.81-11.8c.31-.54.52-1.02.73-1.61l.05-.23c.18-.63.26-1.13.29-1.78v-.83c-.03-.1-.03-.15-.1-.23l-6.24-3.6c.08.07.08.11.1.23v.82l-.03.22c-.05,1.29-.44,2.29-1.07,3.4l-1.15,2.02v13.61Z"/>
      <path class="cls-2" d="M25.7,16.03v13.18l.03-.04,6.81-11.79c.29-.55.52-1.01.71-1.56l.05-.22c.18-.62.24-1.09.26-1.7v-.82l-5.63-3.23v.68c-.08,1.23-.39,2.29-1.1,3.55l-1.13,1.95h0ZM25.59,29.95h0s-.13,0-.16-.02c-.03,0-.08-.03-.1-.04l-.1-.06c-.08-.05-.16-.16-.16-.27v-13.61c0-.05.03-.11.05-.16l1.15-2.01c.68-1.19.97-2.14,1.05-3.27v-1.02c-.13-.1-.16-.28-.05-.41.08-.14.26-.16.42-.09l6.24,3.61c.21.17.24.31.26.46v.85c-.03.66-.11,1.18-.29,1.86l-.08.24c-.21.58-.45,1.08-.76,1.66l-7.05,12.09-.11.07s-.08.05-.1.06c-.03,0-.18.04-.21.04Z"/>
      <path class="cls-4" d="M14.61,28.68l6.23,3.61c.08.03.11.03.18,0,.26-.1.42-.37.42-.63V15.35c0-.1,0-.16-.11-.23l-6.24-3.61c.08.08.08.12.11.23v16.31c-.03.18-.05.27-.16.43-.08.09-.13.15-.24.2-.08.03-.13.04-.21,0Z"/>
      <path class="cls-2" d="M15.27,28.71l5.69,3.28c.1-.06.18-.2.18-.33V15.35l-5.63-3.24.03,15.95c-.03.28-.11.42-.21.59-.03.03-.05.04-.05.06h0ZM20.93,32.62c-.05,0-.13-.02-.21-.05l-6.26-3.62c-.16-.09-.21-.27-.1-.42.08-.13.23-.18.37-.14.03-.02.05-.04.11-.11.05-.1.08-.13.08-.25V11.74c-.13-.1-.13-.27-.05-.4.1-.14.26-.17.42-.09l6.24,3.6c.24.18.24.34.26.47v16.34c0,.4-.26.78-.63.92-.05.03-.13.03-.21.03Z"/>
      <polygon class="cls-3" points="11 18.25 4.76 14.64 .31 24.86 6.54 28.47 11 18.25"/>
      <path class="cls-2" d="M.7,24.73l5.71,3.3,4.19-9.65-5.71-3.29L.7,24.73h0ZM6.54,28.78c-.05,0-.1-.02-.16-.04L.15,25.12c-.13-.08-.18-.24-.13-.38l4.45-10.22c.03-.08.1-.14.18-.16.08-.03.18-.02.26.03l6.24,3.6c.13.08.18.25.13.39l-4.45,10.22c-.03.08-.1.14-.18.16-.03,0-.08.02-.11.02Z"/>
      <polygon class="cls-3" points="35.84 3.92 29.57 .31 25.15 10.52 31.38 14.13 35.84 3.92"/>
      <path class="cls-2" d="M25.54,10.4l5.69,3.29,4.22-9.65-5.71-3.3-4.19,9.66h0ZM31.38,14.44c-.05,0-.1-.02-.16-.04l-6.24-3.61c-.16-.08-.21-.24-.13-.39L29.31.19c.03-.08.11-.15.18-.17.08-.03.18-.02.24.03l6.26,3.61c.13.08.18.24.13.39l-4.45,10.21c-.05.09-.11.15-.21.17-.03,0-.05.02-.08.02Z"/>
      <polygon class="cls-3" points="23.42 6.17 17.18 2.56 12.73 12.78 18.96 16.39 23.42 6.17"/>
      <path class="cls-2" d="M13.12,12.65l5.69,3.3,4.22-9.65-5.71-3.29-4.19,9.65h0ZM18.96,16.69c-.05,0-.11-.02-.16-.04l-6.24-3.61c-.13-.08-.21-.24-.13-.38l4.45-10.22c.03-.08.11-.14.18-.16.08-.03.18-.02.24.02l6.26,3.61c.13.07.18.24.13.38l-4.45,10.22c-.05.08-.1.14-.21.17-.03,0-.05.02-.08.02Z"/>
      <path class="cls-1" d="M20.59,32.13l-6.55-3.77c-.34-.2-.6-.5-.79-.9-.18-.4-.26-.9-.26-1.47v-.83c0-.23.13-.5.34-.6l2.12-1.24-4.45-5.07-4.45,10.22,2.15-1.24c.18-.11.37-.03.37.2v.6c0,1.29.18,2.36.58,3.23.39.87,1,1.54,1.76,1.99l8.99,5.18c.29.17.52.42.71.73.18.31.29.69.34,1.13.05.39.21.64.47.76.24.11.55.08.92-.13l1.2-.7c.37-.21.68-.55.94-.95.24-.39.42-.85.45-1.28.05-.5.16-1.01.34-1.52.18-.52.42-1.04.71-1.56l8.96-15.54c.81-1.36,1.39-2.71,1.78-4.03.39-1.32.6-2.63.6-3.92v-.6c0-.22.16-.49.34-.6l2.15-1.24-4.45-5.07-4.45,10.21,2.12-1.23c.21-.11.37-.02.37.2v.83c0,.58-.1,1.17-.29,1.78-.18.61-.45,1.22-.79,1.83l-6.81,11.8c-.13.23-.37.36-.5.29s-.11-.33-.11-.53V13.08c0-.22.16-.5.37-.6l2.12-1.23-4.45-5.08-4.45,10.22,2.15-1.24c.18-.11.34-.02.34.2v16.31c0,.23-.16.5-.34.61-.21.11-.39-.06-.52-.14Z"/>
      <path class="cls-2" d="M8.85,26.87c.08,0,.18.02.24.06.18.1.26.28.26.5v.6c0,1.23.18,2.29.58,3.11.37.81.92,1.43,1.62,1.84l8.99,5.18c.34.2.63.49.84.84.18.35.31.77.37,1.26.03.25.13.43.26.5.18.07.39.03.66-.11l1.2-.7c.31-.17.6-.47.84-.83.21-.37.37-.78.39-1.16.05-.51.18-1.05.37-1.59.18-.53.42-1.07.73-1.61l8.96-15.54c.79-1.33,1.36-2.67,1.75-3.96.39-1.3.58-2.58.58-3.83v-.6c0-.33.21-.7.5-.87l1.83-1.05-3.9-4.42-3.88,8.92,1.31-.77c.21-.1.39-.11.58-.02.16.09.26.27.26.49v.83c0,.61-.11,1.23-.29,1.87-.18.63-.47,1.27-.84,1.9l-6.81,11.8c-.24.39-.63.56-.92.4-.26-.17-.26-.49-.26-.7V13.08c0-.33.24-.7.52-.87l1.81-1.05-3.9-4.42-3.88,8.92,1.34-.77c.18-.1.39-.11.55-.03.16.09.26.28.26.5v16.31c0,.33-.21.7-.5.87-.34.2-.63,0-.79-.09l.1-.31-.16.27-6.52-3.77c-.42-.23-.73-.59-.94-1.05-.18-.43-.29-.97-.29-1.59v-.83c0-.33.21-.7.5-.87l1.81-1.05-3.88-4.42-3.9,8.92,1.34-.77c.1-.06.21-.09.31-.09h0ZM22.19,41.42c-.16,0-.29-.03-.42-.09-.37-.16-.6-.51-.65-1-.03-.4-.13-.74-.29-1.02-.16-.26-.34-.47-.6-.61l-8.96-5.18c-.84-.49-1.49-1.21-1.91-2.13-.39-.9-.6-2.04-.6-3.36v-.47l-2.04,1.17c-.11.07-.26.05-.37-.04-.1-.09-.13-.23-.08-.36l4.48-10.21c.03-.09.13-.16.24-.18.1,0,.21.02.26.1l4.45,5.07c.05.07.11.17.08.25-.03.1-.08.17-.16.22l-2.15,1.23c-.08.06-.18.23-.18.34v.83c0,.53.08.98.24,1.34.16.35.39.6.68.76l6.55,3.78h0l.08.06c.05.03.1.06.13.07.1-.05.18-.23.18-.34V15.48l-2.02,1.17c-.13.07-.26.05-.37-.03-.11-.09-.13-.24-.08-.36l4.45-10.21c.05-.1.13-.17.24-.18.1,0,.21.03.29.1l4.45,5.07c.05.07.08.17.08.25-.03.09-.08.17-.16.22l-2.15,1.23c-.08.06-.18.23-.18.34v16.14s.03-.03.03-.04l6.81-11.79c.34-.59.6-1.18.76-1.76.18-.58.26-1.15.26-1.7v-.69l-2.02,1.17c-.13.07-.26.05-.37-.03-.1-.09-.13-.23-.08-.36l4.45-10.21c.05-.1.13-.16.24-.18.11-.02.21.02.29.09l4.45,5.08c.05.07.08.16.05.25,0,.09-.05.16-.13.22l-2.15,1.23c-.1.06-.18.24-.18.34v.6c0,1.31-.21,2.66-.63,4.01-.39,1.35-1,2.72-1.78,4.1l-8.99,15.54c-.29.5-.52,1-.68,1.49-.18.49-.26.98-.31,1.45-.05.47-.24.96-.5,1.42-.29.45-.66.83-1.05,1.05l-1.2.7c-.26.16-.55.23-.79.23Z"/>
    </g>
  </g>
</svg>