<?xml version="1.0" encoding="UTF-8"?>
<svg id="Layer_2" data-name="Layer 2" xmlns="http://www.w3.org/2000/svg" viewBox="0 0 72.8 87.49" fill="currentColor">
  <defs>
    <style>
      .cls-1 {
        fill: #fff;
      }

      .cls-1, .cls-2, .cls-3, .cls-4 {
        fill-rule: evenodd;
      }

      .cls-2 {
        fill: #1a87c7;
      }

      .cls-3 {
        fill: #bdedf8;
      }

      .cls-4 {
        fill: #66ceef;
      }
    </style>
  </defs>
  <g id="_Layer_" data-name="&amp;lt;Layer&amp;gt;">
    <g>
      <path class="cls-3" d="M4.67,86.69l-3.24-1.87c-.66-.46-.78-1.02-.81-1.79V26.9c.05-1.07.31-1.79.81-2.72.55-.9,1.05-1.49,1.95-2.07l5.92-3.42,3.53-2.04L30.52,6.45l3.08-1.78,6.37-3.68c.68-.35,1.23-.53,1.95-.19l3.24,1.87c-.72-.34-1.27-.16-1.95.19l-6.37,3.68-3.08,1.78-17.69,10.21-3.53,2.04-5.92,3.42c-.9.57-1.4,1.16-1.95,2.06-.5.93-.77,1.66-.81,2.72v56.13c.03.77.15,1.33.81,1.79Z"/>
      <path class="cls-2" d="M4.34,87.21l-3.26-1.88c-.44-.31-.7-.65-.86-1.06v-.04c-.15-.36-.19-.74-.21-1.17V26.82c.1-2.08,1.29-4.11,3.05-5.23C15.3,14.71,27.37,7.09,39.69.45c.39-.21.76-.36,1.15-.42.43-.06.86-.01,1.34.22l3.28,1.89c.29.17.39.55.22.84-.16.28-.51.38-.79.25-.24-.11-.45-.14-.64-.11-.23.03-.48.15-.77.29L6.95,24.5c-1.43.91-2.4,2.58-2.48,4.27v56.15c.02.3.05.56.13.76.07.18.2.35.42.5.28.19.35.57.16.85-.19.27-.56.35-.84.17h0ZM1.77,84.31l1.49.86c-.83-12.98-1.18-43.89-.01-56.42.09-2.11,1.27-4.15,3.05-5.28L43.13,2.21l-1.5-.86c-.23-.11-.43-.13-.62-.1-.23.03-.48.15-.77.29L3.71,22.63c-1.42.9-2.39,2.56-2.48,4.25v56.15c.01.3.04.55.12.76v.02c.08.18.21.34.41.49Z"/>
      <path class="cls-3" d="M43.21,65.38L6.62,86.5c-1.52.88-2.76.16-2.76-1.6V28.77c0-1.76,1.24-3.91,2.76-4.79l5.92-3.42,3.53-2.04,17.69-10.21,3.08-1.78,6.37-3.68c1.52-.88,2.77-.16,2.77,1.6v56.13c0,1.76-1.24,3.91-2.77,4.79Z"/>
      <path class="cls-2" d="M43.51,65.91L6.93,87.03c-.54.31-1.06.46-1.54.46-.38,0-.73-.09-1.03-.27-.3-.17-.56-.43-.75-.76l-.02-.04c-.22-.41-.35-.92-.35-1.52V28.77c0-.99.34-2.07.9-3.03.55-.95,1.32-1.79,2.18-2.29L42.9,2.33c.54-.31,1.06-.46,1.54-.46.38,0,.73.09,1.03.27l.04.02c.29.17.53.42.71.73.24.41.38.94.38,1.56v56.13c0,.99-.34,2.07-.9,3.03l-.02.03c-.55.94-1.31,1.77-2.16,2.25h0ZM6.32,85.97l36.59-21.12c.66-.38,1.26-1.04,1.71-1.81l.02-.03c.45-.78.73-1.64.73-2.42V4.46c0-.4-.07-.72-.21-.95-.07-.13-.17-.23-.27-.3h-.03c-.11-.08-.25-.11-.41-.11-.27,0-.58.09-.92.29L6.93,24.51c-.66.38-1.28,1.06-1.73,1.84-.45.78-.73,1.65-.73,2.42v56.13c0,.39.07.7.19.92l.02.02c.08.14.18.24.3.31.11.07.25.1.41.1.27,0,.58-.09.92-.29Z"/>
      <path class="cls-1" d="M8.92,27.94v53.45l33.29-19.22V8.72c-11.1,6.41-22.19,12.81-33.29,19.22Z"/>
      <path class="cls-2" d="M9.53,28.3v52.03l32.06-18.51V9.79L9.53,28.3h0ZM8.3,81.39V27.94c0-.21.11-.42.31-.53L41.87,8.21c.1-.07.22-.11.34-.11.34,0,.62.28.62.62v53.45c0,.21-.11.42-.31.53l-33.24,19.19c-.1.07-.22.11-.36.11-.34,0-.62-.28-.62-.62Z"/>
      <path class="cls-3" d="M14.07,38.1h0c-.65.38-1.19,1.3-1.19,2.06h0c0,.75.53,1.06,1.19.68h0c.65-.38,1.19-1.3,1.19-2.05h0c0-.75-.53-1.06-1.19-.69Z"/>
      <path class="cls-2" d="M14.38,38.63c-.23.13-.45.38-.62.66l-.02.03c-.15.27-.25.57-.25.83,0,.11.01.19.04.23,0,0,0,0,0,0,.06,0,.13-.02.22-.08.23-.13.45-.38.61-.66l.02-.03c.15-.27.25-.57.25-.83,0-.11-.02-.19-.04-.23,0,0,0,0,0,0-.06,0-.13.03-.22.08h0ZM12.7,38.67c.27-.46.64-.87,1.06-1.11.29-.17.57-.25.84-.25.22,0,.43.06.62.16.18.1.33.26.45.46.13.23.21.52.21.84,0,.47-.16.98-.41,1.44l-.02.04c-.27.46-.64.87-1.06,1.11-.29.17-.58.25-.84.25-.22,0-.43-.06-.62-.16-.18-.11-.34-.26-.45-.46-.13-.23-.21-.52-.21-.84,0-.47.16-.98.41-1.44l.02-.04Z"/>
      <path class="cls-3" d="M14.07,45.46h0c-.65.38-1.19,1.3-1.19,2.06h0c0,.75.53,1.06,1.19.68h0c.65-.38,1.19-1.3,1.19-2.05h0c0-.75-.53-1.07-1.19-.69Z"/>
      <path class="cls-2" d="M14.38,45.99c-.23.13-.45.38-.62.66-.16.28-.27.6-.27.86,0,.11.01.19.04.23.06,0,.14-.03.23-.08.23-.13.45-.38.61-.66l.02-.03c.15-.27.25-.57.25-.83,0-.11-.02-.19-.04-.23-.06,0-.13.02-.22.07h0ZM12.7,46.04c.27-.46.64-.87,1.06-1.11.29-.17.57-.24.84-.24.22,0,.43.06.62.16.17.1.31.24.42.41l.03.04c.13.23.21.52.21.85,0,.47-.16.98-.41,1.44l-.02.04c-.27.46-.64.87-1.06,1.11-.29.17-.58.25-.84.25-.2,0-.39-.05-.57-.14l-.05-.03c-.18-.11-.34-.26-.45-.46-.13-.23-.21-.51-.21-.84,0-.48.17-1.02.43-1.48Z"/>
      <path class="cls-3" d="M14.07,53.29h0c-.65.38-1.19,1.3-1.19,2.06h0c0,.76.53,1.06,1.19.68h0c.65-.38,1.19-1.3,1.19-2.05h0c0-.75-.53-1.06-1.19-.69Z"/>
      <path class="cls-2" d="M14.38,53.82c-.23.13-.45.38-.62.66-.16.28-.27.59-.27.86,0,.11.01.19.04.23.06,0,.14-.03.23-.08.23-.13.45-.38.61-.66.16-.28.26-.59.26-.86,0-.11-.02-.18-.04-.23h0c-.06,0-.13.02-.22.07h0ZM12.7,53.87c.27-.46.64-.87,1.06-1.11.29-.17.57-.25.84-.25.23,0,.43.06.62.16.17.1.31.24.42.41l.03.04c.13.23.21.52.21.85,0,.48-.17,1.02-.43,1.48-.27.46-.64.86-1.07,1.11-.29.17-.57.25-.84.25-.2,0-.4-.05-.57-.14l-.05-.03c-.18-.11-.33-.26-.45-.46-.13-.23-.21-.52-.21-.84,0-.48.17-1.01.43-1.48Z"/>
      <path class="cls-4" d="M4.67,86.69l-3.24-1.87c-.27-.19-.45-.39-.57-.62-.31-.59-.25-1.49-.25-2.14V28.4c0-1.04-.06-1.92.25-2.94.14-.45.33-.89.57-1.29l3.24,1.87c-.31.51-.54,1.08-.67,1.66-.18.77-.15,1.43-.15,2.21v53.93c0,.56-.04,1.24.08,1.78.09.43.29.78.73,1.08Z"/>
      <path class="cls-2" d="M4.33,87.21l-3.25-1.88c-.17-.12-.31-.24-.44-.39-.13-.14-.23-.29-.32-.45-.34-.64-.33-1.46-.32-2.14C.16,64.27.1,46.05,0,27.96c-.01-1.28.04-2.27.55-3.42.1-.24.23-.47.36-.69.17-.28.54-.38.83-.21l3.24,1.87c.31.18.39.56.21.86-.13.22-.25.45-.35.7-.36.88-.38,1.58-.38,2.54.06,18.15.18,36.43,0,54.57,0,.44-.01.92.07,1.3.03.15.08.27.15.38.07.11.18.22.33.33.28.19.35.58.15.86-.19.27-.56.34-.84.17h0ZM1.77,84.31l1.49.86c-.02-.33-.02-.68-.01-1,.18-18.16-.09-36.38,0-54.55,0-1.14.05-1.97.47-3.01l.15-.33-2.17-1.25c-.09.19-.18.42-.23.62-.24.79-.23,1.51-.22,2.32.09,18.1.15,36.32,0,54.41,0,.54-.02,1.19.18,1.56.04.07.08.13.14.2.06.06.13.13.22.19Z"/>
      <path class="cls-2" d="M19.01,37.71c-.29.17-.67.07-.84-.22-.17-.29-.07-.67.22-.84l19.29-11.14c.29-.17.67-.07.84.22.17.29.07.67-.22.84l-19.29,11.14Z"/>
      <path class="cls-2" d="M19.01,45.54c-.29.17-.67.07-.84-.22-.17-.29-.07-.67.22-.84l19.29-11.14c.29-.17.67-.07.84.22.17.29.07.67-.22.84l-19.29,11.14Z"/>
      <path class="cls-2" d="M19.01,52.91c-.29.17-.67.07-.84-.23-.17-.29-.07-.67.23-.84l13.75-7.94c.29-.17.67-.07.84.23.17.29.07.67-.23.84l-13.75,7.94Z"/>
      <path class="cls-4" d="M44.54,75.46l-4.86-2.81c5.7,3.21,12.8-2.17,16.43-6.31,5.06-5.78,9.53-15.65,7.61-23.33-.56-2.26-1.71-4.26-3.76-5.47l5.11,2.96c5.12,3.25,4.32,11.49,2.73,16.55-2.36,7.49-8.72,16.56-16.46,18.89-2.29.69-4.65.72-6.79-.48Z"/>
      <path class="cls-2" d="M44.19,75.97c-.69-.4-4.52-2.48-4.82-2.78-.29-.17-.4-.54-.23-.84.17-.29.54-.39.83-.23,2.24,1.25,4.73,1.08,7.12.16,3.35-1.29,6.5-4.01,8.54-6.34,2.68-3.07,5.2-7.31,6.65-11.75,1.22-3.74,1.68-7.62.83-11.03-.28-1.12-.71-2.17-1.33-3.07-.55-.8-1.26-1.49-2.15-2.02-.29-.17-.39-.55-.22-.84.17-.29.55-.39.84-.22,1.7,1,3.45,1.95,5.13,2.97,2.36,1.5,3.55,3.95,4,6.69.59,3.55-.08,7.59-1.01,10.56-1.29,4.11-3.76,8.68-7,12.39-2.8,3.21-6.17,5.79-9.87,6.91-1.27.38-2.57.57-3.85.48-1.17-.08-2.32-.4-3.42-1.01l-.05-.03h0ZM43.65,74.24l1.19.68c.93.52,1.9.79,2.9.86,1.12.08,2.28-.09,3.41-.44,3.45-1.04,6.64-3.48,9.29-6.54,3.12-3.59,5.51-7.99,6.75-11.95.89-2.82,1.53-6.65.98-9.99-.4-2.41-1.42-4.57-3.45-5.85l-1.45-.84c.46.83.79,1.74,1.03,2.68.91,3.65.44,7.76-.85,11.71-1.5,4.6-4.11,8.99-6.89,12.18-2.14,2.44-5.46,5.3-9.03,6.67-1.28.49-2.58.79-3.88.82Z"/>
      <path class="cls-1" d="M53.14,40.68c-7.82,4.51-14.15,15.49-14.15,24.51s6.34,12.68,14.15,8.17c7.82-4.51,14.15-15.49,14.15-24.51s-6.34-12.68-14.15-8.17Z"/>
      <path class="cls-2" d="M53.45,41.21c-3.81,2.2-7.27,5.99-9.78,10.34l-.02.03c-2.5,4.34-4.04,9.22-4.04,13.61,0,2.51.5,4.58,1.4,6.13.63,1.09,1.46,1.93,2.43,2.5.98.56,2.12.86,3.38.86,1.8,0,3.84-.59,6.01-1.85l.03-.02c3.8-2.2,7.25-5.98,9.75-10.32,2.51-4.35,4.06-9.24,4.06-13.64,0-2.52-.51-4.58-1.4-6.13-.63-1.09-1.45-1.93-2.43-2.5-.98-.56-2.12-.86-3.38-.86-1.8,0-3.84.59-6.01,1.85h0ZM42.6,50.93c2.61-4.52,6.23-8.48,10.23-10.79,2.37-1.37,4.62-2.02,6.63-2.02,1.48,0,2.83.35,3.99,1.03,1.17.67,2.14,1.67,2.88,2.95,1,1.74,1.57,4.02,1.57,6.75,0,4.62-1.62,9.73-4.23,14.26-2.6,4.51-6.21,8.45-10.2,10.77l-.03.02c-2.37,1.37-4.62,2.02-6.63,2.02-1.48,0-2.83-.35-3.99-1.03-1.17-.67-2.14-1.67-2.88-2.94-1.01-1.74-1.57-4.02-1.57-6.75,0-4.61,1.61-9.7,4.21-14.22l.02-.04Z"/>
      <path class="cls-4" d="M49.81,34.87c3.56-2.01,8.21-3.47,12.08-1.39l4.86,2.81c-7.16-3.56-15.64,3.05-20.06,8.21-5.92,6.92-11,18.22-9.19,27.39.59,2.98,1.9,5.58,4.48,7.29-1.16-.67-4.54-2.53-5.43-3.2-5.58-4.21-4.66-13.58-2.89-19.44,2.56-8.47,8.44-17.11,16.14-21.67Z"/>
      <path class="cls-2" d="M49.51,34.34c2.04-1.15,4.42-2.12,6.84-2.4,1.98-.23,3.99.01,5.84,1l4.88,2.82c.29.17.39.55.22.84-.16.28-.52.39-.81.24-2.87-1.42-5.98-1.11-8.94.1-4.09,1.67-7.89,5.05-10.38,7.96-3.13,3.66-6.03,8.57-7.76,13.73-1.48,4.42-2.11,9.01-1.29,13.14.28,1.43.73,2.76,1.42,3.93.68,1.16,1.59,2.17,2.8,2.97.28.19.36.57.17.85-.19.28-.57.36-.85.17l-1.04-.59c-1.51-.85-3.71-2.1-4.42-2.63-2.54-1.92-3.8-4.81-4.28-7.98-.61-4.12.13-8.72,1.16-12.13,1.34-4.44,3.59-8.94,6.53-12.88,2.75-3.69,6.1-6.9,9.89-9.14h.01ZM56.49,33.16c-2.23.26-4.46,1.17-6.38,2.25-3.64,2.16-6.87,5.25-9.52,8.81-2.85,3.82-5.03,8.19-6.33,12.51-.99,3.27-1.71,7.67-1.12,11.59.43,2.87,1.56,5.48,3.8,7.17.31.23.94.62,1.68,1.06l-.13-.22c-.76-1.3-1.26-2.76-1.57-4.31-.86-4.35-.21-9.16,1.33-13.77,1.78-5.31,4.76-10.37,7.99-14.14,2.59-3.02,6.55-6.53,10.85-8.29,1.84-.75,3.75-1.19,5.64-1.14l-1.12-.65c-1.61-.86-3.36-1.07-5.12-.87Z"/>
      <polygon class="cls-4" points="44.29 75.31 39.43 72.5 39.55 72.58 39.67 72.65 44.54 75.46 44.41 75.39 44.29 75.31"/>
      <path class="cls-2" d="M39.13,73.04h-.01c-.29-.18-.39-.55-.22-.85.17-.29.55-.39.84-.22,1.7.98,3.42,1.95,5.11,2.96.29.17.39.54.22.84-.17.29-.54.39-.84.23-1.66-1.02-3.44-1.92-5.1-2.95Z"/>
      <polygon class="cls-4" points="64.81 40.35 59.94 37.54 59.82 37.47 59.69 37.4 64.55 40.21 64.68 40.28 64.81 40.35"/>
      <path class="cls-2" d="M60.25,37.01l4.86,2.8c.3.16.4.54.24.84-.17.3-.54.4-.84.24-1.72-.95-3.42-1.97-5.13-2.95-.28-.16-.39-.53-.23-.82.16-.3.53-.41.83-.25l.27.15Z"/>
      <path class="cls-3" d="M64.75,35.54c1.28.54,3.19,1.74,4.09,2.87l1.16-1.81c1.09-1.55-3.02-4.25-3.89-3.17l-1.36,2.11Z"/>
      <path class="cls-2" d="M65.65,35.29c.58.29,1.22.67,1.81,1.09l.03.03c.45.32.88.66,1.25,1.02l.75-1.16c.17-.25,0-.63-.31-1.02-.2-.24-.45-.47-.72-.68-.28-.21-.58-.39-.87-.52-.47-.21-.87-.33-.99-.23l-.95,1.48h0ZM66.75,37.38c-.75-.53-1.56-.98-2.2-1.26-.05-.02-.09-.04-.13-.06-.29-.18-.37-.56-.19-.85l1.4-2.17c.51-.63,1.49-.57,2.47-.13.37.17.75.4,1.1.66.35.26.68.57.94.89.65.8.92,1.7.37,2.49l-1.15,1.79c-.03.05-.08.1-.13.15-.26.21-.65.17-.86-.09-.37-.47-.94-.95-1.57-1.4l-.03-.02Z"/>
      <path class="cls-4" d="M56.29,33.7v1.55l-.02.07c-.03.12-.09.24-.16.34-.24.34-.67.57-1.05.71-.88.3-2.03.27-2.87-.13-.21-.1-.42-.23-.58-.39-.13-.13-.24-.29-.3-.46l-.02-.07v-.07s-.01-1.55-.01-1.55c.01.05.02.09.04.14.13.4.52.68.88.85.95.45,2.35.44,3.28-.05.22-.12.44-.27.6-.47.06-.08.12-.17.16-.27.02-.04.04-.1.05-.14l.02-.07Z"/>
      <path class="cls-2" d="M56.9,33.7v1.55c0,.06,0,.12-.02.17v.04c-.03.09-.07.19-.11.28-.04.1-.1.18-.15.26v.02c-.17.21-.37.39-.59.54-.25.17-.52.29-.77.38-.51.18-1.11.25-1.7.23h-.01c-.57-.03-1.14-.15-1.62-.38l-.04-.02c-.12-.06-.25-.13-.36-.21-.12-.08-.24-.18-.35-.28-.1-.09-.19-.21-.27-.33-.08-.12-.14-.25-.19-.38-.04-.13-.05-.2-.07-.33v-1.55c0-.34.27-.62.61-.62.31,0,.56.23.61.52v.06c.04.07.1.14.16.2.12.11.26.2.41.27.4.18.89.28,1.39.27.49,0,.97-.11,1.35-.31.09-.05.18-.1.25-.16.06-.04.11-.1.16-.15.06-.08.08-.12.1-.21.07-.33.39-.55.72-.48.29.06.49.32.49.6h0ZM55.61,35.31l.05-.08c-.53.26-1.17.39-1.8.4-.68.01-1.37-.12-1.93-.38h-.02s.03.05.03.05c.03.04.06.08.1.12.05.05.11.1.17.14.07.05.14.09.21.12h.03c.34.17.74.26,1.16.28h0c.44.02.88-.04,1.25-.17.17-.06.34-.13.49-.23.1-.07.19-.15.26-.24h0Z"/>
      <path class="cls-3" d="M59.18,30.96v1.39c-.17.84-.68,1.33-1.37,1.8-1.18.72-2.4.97-3.77,1.03-1.4.02-2.64-.18-3.9-.8-.58-.32-.99-.61-1.39-1.15-.2-.31-.3-.51-.37-.88v-1.39c.08.36.17.57.37.88.4.53.81.83,1.39,1.15,1.26.62,2.5.82,3.9.8,1.37-.06,2.59-.31,3.77-1.03.69-.46,1.2-.96,1.37-1.8Z"/>
      <path class="cls-2" d="M59.79,30.96v1.39c0,.06,0,.12-.02.18-.11.5-.32.9-.61,1.25-.28.34-.62.62-1.01.88l-.07.04c-.63.38-1.27.64-1.93.81h-.03c-.66.17-1.34.26-2.05.29h-.04c-.73,0-1.42-.04-2.1-.17-.69-.14-1.37-.36-2.05-.7h-.02c-.32-.19-.59-.36-.85-.56l-.02-.02c-.26-.21-.49-.45-.72-.75l-.02-.03c-.12-.18-.21-.34-.28-.51-.07-.17-.13-.35-.18-.58v-.13s-.01-1.39-.01-1.39c0-.34.28-.62.62-.62.31,0,.57.23.61.53.03.12.06.22.09.31.04.1.1.2.18.32.16.21.32.37.5.51.19.15.42.29.68.44.57.28,1.13.46,1.72.58.6.12,1.21.16,1.86.15.64-.03,1.25-.1,1.82-.25.56-.14,1.1-.36,1.63-.68.3-.2.55-.4.75-.64.17-.22.3-.47.37-.77.07-.33.39-.55.72-.48.29.06.49.32.49.6h0ZM57.46,33.64h0c-.43.2-.87.36-1.32.47-.67.17-1.36.26-2.08.29h-.02c-.74,0-1.44-.04-2.12-.17-.61-.12-1.21-.3-1.8-.58l.32.18c.57.28,1.13.46,1.72.58.6.12,1.21.16,1.85.15.64-.03,1.24-.1,1.81-.24h.02c.55-.15,1.09-.36,1.61-.68h.01Z"/>
      <path class="cls-4" d="M49.94,28.45c2.12-1.22,5.55-1.22,7.67,0,2.12,1.22,2.12,3.21,0,4.43-2.12,1.22-5.56,1.22-7.67,0-2.12-1.22-2.12-3.21,0-4.43Z"/>
      <path class="cls-2" d="M49.63,27.92c1.16-.67,2.66-1,4.14-1s2.99.33,4.14,1l.03.02c.7.41,1.2.9,1.5,1.43l.02.04c.23.41.34.83.34,1.26s-.12.88-.36,1.3l-.02.04c-.31.52-.82,1.01-1.51,1.41-1.15.67-2.66,1-4.14,1s-2.99-.34-4.14-1l-.03-.02c-.69-.41-1.19-.9-1.5-1.43-.24-.42-.36-.86-.36-1.3s.12-.88.36-1.3c.31-.54.82-1.03,1.53-1.45h0ZM53.78,28.15c-1.29,0-2.57.28-3.53.83-.52.3-.88.64-1.09,1-.13.22-.19.46-.19.69s.07.46.2.69c.2.35.55.68,1.05.98l.03.02c.96.56,2.24.83,3.53.83s2.57-.28,3.53-.83c.51-.29.86-.62,1.07-.97l.02-.03c.13-.22.19-.46.19-.68s-.06-.44-.18-.66l-.02-.03c-.2-.35-.55-.69-1.06-.98l-.03-.02c-.96-.56-2.24-.83-3.53-.83Z"/>
      <path class="cls-3" d="M42.29,50.75c3.17-5.49,7.55-10.28,12.38-13.07,4.84-2.79,9.21-3.06,12.38-1.23,3.17,1.83,5.13,5.75,5.13,11.34s-1.96,11.77-5.13,17.26c-3.17,5.49-7.55,10.28-12.38,13.07-4.84,2.79-9.21,3.06-12.38,1.23-3.17-1.83-5.13-5.75-5.13-11.34s1.96-11.77,5.13-17.26h0ZM64.81,40.35c-1.32-.76-2.9-1.08-4.65-.91-1.69.17-3.54.79-5.48,1.91-1.94,1.12-3.79,2.64-5.48,4.42-1.75,1.85-3.33,3.99-4.65,6.28-1.32,2.29-2.39,4.73-3.11,7.17-.7,2.35-1.09,4.71-1.09,6.96s.39,4.16,1.09,5.7c.72,1.6,1.79,2.81,3.11,3.57,1.32.76,2.9,1.08,4.65.91,1.69-.17,3.54-.79,5.48-1.91,1.94-1.12,3.8-2.64,5.48-4.42,1.75-1.85,3.33-3.99,4.65-6.28s2.39-4.73,3.11-7.17c.7-2.35,1.08-4.71,1.08-6.96s-.38-4.16-1.08-5.7c-.73-1.6-1.79-2.81-3.11-3.58Z"/>
      <path class="cls-2" d="M41.75,50.45c1.64-2.84,3.6-5.49,5.77-7.79,2.1-2.22,4.41-4.1,6.83-5.51,2.45-1.41,4.8-2.2,6.94-2.41,2.27-.23,4.33.19,6.06,1.19,1.73,1,3.11,2.57,4.06,4.65.89,1.97,1.38,4.39,1.38,7.22s-.48,5.74-1.35,8.67c-.9,3.03-2.22,6.06-3.86,8.89-1.64,2.84-3.6,5.5-5.77,7.79-2.1,2.22-4.41,4.11-6.84,5.51-2.45,1.41-4.8,2.2-6.94,2.41-2.27.22-4.33-.19-6.05-1.19-1.73-1-3.12-2.57-4.06-4.65-.89-1.97-1.38-4.39-1.38-7.22s.48-5.74,1.35-8.67c.9-3.03,2.22-6.06,3.86-8.9h0ZM48.42,43.5c-2.11,2.23-4.01,4.8-5.6,7.56-1.59,2.75-2.87,5.69-3.75,8.63-.84,2.82-1.3,5.64-1.3,8.33s.45,4.91,1.27,6.72c.83,1.84,2.05,3.22,3.55,4.09,1.5.87,3.31,1.23,5.32,1.03,1.98-.2,4.16-.93,6.45-2.26,2.32-1.34,4.53-3.15,6.56-5.29,2.11-2.23,4.01-4.8,5.6-7.56,1.59-2.75,2.87-5.69,3.75-8.63.84-2.82,1.3-5.64,1.3-8.33s-.45-4.9-1.27-6.72c-.83-1.84-2.05-3.22-3.55-4.09-1.5-.87-3.31-1.23-5.32-1.03-1.98.2-4.16.93-6.45,2.26-2.32,1.34-4.53,3.15-6.56,5.29h0ZM64.47,40.86c-.59-.34-1.25-.58-1.96-.72-.72-.14-1.49-.17-2.3-.09-.81.08-1.66.27-2.54.58-.87.3-1.77.72-2.7,1.25-.92.53-1.83,1.17-2.72,1.88-.91.73-1.79,1.55-2.62,2.43-.85.9-1.67,1.88-2.43,2.9-.77,1.04-1.48,2.13-2.14,3.27l-.02.03c-.64,1.12-1.23,2.28-1.74,3.45-.51,1.17-.94,2.36-1.3,3.55-.35,1.17-.62,2.34-.8,3.49-.17,1.11-.26,2.21-.26,3.3s.09,2.06.26,2.96c.17.92.43,1.75.77,2.49.33.74.75,1.39,1.23,1.94.48.55,1.03,1,1.63,1.35l.03.02c.59.34,1.25.58,1.96.72.72.14,1.49.17,2.3.09.81-.08,1.66-.27,2.54-.58.87-.3,1.77-.72,2.7-1.25l.03-.02c.92-.53,1.82-1.16,2.69-1.86.91-.73,1.78-1.55,2.62-2.43.85-.9,1.67-1.87,2.43-2.9.77-1.04,1.48-2.13,2.14-3.27l.02-.03c.64-1.12,1.23-2.28,1.74-3.45.51-1.17.94-2.36,1.3-3.55.35-1.17.62-2.34.79-3.48.17-1.11.26-2.21.26-3.3s-.09-2.06-.26-2.96c-.17-.91-.43-1.75-.77-2.49-.34-.74-.75-1.39-1.23-1.94-.48-.55-1.03-1.01-1.63-1.35l-.03-.02h0ZM62.75,38.94c-.83-.16-1.72-.2-2.65-.11-.9.09-1.85.3-2.82.64-.94.33-1.91.78-2.9,1.35-.99.57-1.95,1.24-2.88,1.98-.95.77-1.87,1.62-2.74,2.54-.89.94-1.73,1.95-2.52,3.02-.8,1.08-1.54,2.21-2.22,3.38l-.02.03c-.67,1.16-1.27,2.36-1.8,3.58-.53,1.22-.98,2.46-1.35,3.69-.36,1.21-.64,2.43-.83,3.65-.19,1.19-.28,2.36-.28,3.48s.1,2.21.28,3.19c.19,1.02.48,1.94.86,2.77.39.85.86,1.61,1.42,2.24.57.65,1.22,1.19,1.94,1.61l.04.02c.72.41,1.5.7,2.33.86.83.16,1.72.2,2.65.11.9-.09,1.85-.3,2.82-.64.94-.33,1.92-.78,2.91-1.35l.03-.02c.98-.57,1.93-1.23,2.85-1.96.95-.77,1.87-1.62,2.74-2.54.89-.94,1.73-1.95,2.52-3.02.8-1.08,1.54-2.21,2.22-3.38l.02-.04c.67-1.16,1.27-2.36,1.8-3.58.53-1.22.98-2.46,1.35-3.69.36-1.21.64-2.43.83-3.64.19-1.19.28-2.36.28-3.49s-.1-2.21-.28-3.19c-.19-1.02-.48-1.94-.85-2.77-.39-.85-.86-1.61-1.42-2.25-.57-.65-1.22-1.19-1.94-1.61l-.04-.02c-.72-.41-1.5-.7-2.33-.86Z"/>
      <path class="cls-2" d="M62.34,43.05c.17-.29.55-.39.84-.22.29.17.39.55.22.84l-9.63,16.68c-.17.29-.55.39-.84.22-.29-.17-.39-.55-.22-.84l9.63-16.68Z"/>
      <path class="cls-2" d="M53.52,68.3c0-.34.28-.62.62-.62s.62.28.62.62v2.97c0,.34-.28.62-.62.62s-.62-.28-.62-.62v-2.97Z"/>
      <path class="cls-2" d="M63.66,52.87c-.29.17-.67.07-.84-.22-.17-.29-.07-.67.22-.84l2.57-1.48c.29-.17.67-.07.84.22.17.29.07.67-.22.84l-2.57,1.48Z"/>
      <path class="cls-2" d="M54.75,47.02c0,.34-.28.62-.62.62s-.62-.28-.62-.62v-2.97c0-.34.28-.62.62-.62s.62.28.62.62v2.97Z"/>
      <path class="cls-2" d="M44.62,62.45c.29-.17.67-.07.84.23.17.29.07.67-.23.84l-2.57,1.48c-.29.17-.67.07-.84-.23-.17-.29-.07-.67.23-.84l2.57-1.48Z"/>
      <path class="cls-3" d="M53.75,57.37c.24-.41.56-.77.93-.98.36-.21.69-.23.93-.09.24.14.38.43.38.85s-.15.88-.38,1.29c-.24.41-.56.77-.93.98-.36.21-.69.23-.93.09s-.38-.43-.38-.85.15-.88.38-1.29Z"/>
      <path class="cls-2" d="M53.21,57.06c.14-.25.32-.48.51-.69.19-.2.41-.38.64-.51.25-.15.51-.23.75-.25.29-.03.56.03.79.16.23.13.42.34.54.61.1.22.15.48.15.77,0,.26-.05.54-.13.81-.08.27-.2.54-.34.79-.14.25-.32.48-.51.69-.19.2-.41.38-.64.51-.26.15-.51.23-.75.25-.29.03-.56-.03-.79-.16-.23-.13-.42-.34-.54-.61l-.02-.04c-.09-.21-.14-.46-.14-.73s.05-.54.13-.81v-.03c.09-.26.2-.52.34-.76h0ZM54.62,57.22c-.13.13-.24.29-.34.46-.09.16-.17.33-.22.5v.02c-.05.16-.08.31-.08.46,0,.11.01.19.04.25l.04.06h.06c.07,0,.16-.03.25-.09.12-.07.25-.17.36-.29.13-.13.24-.29.34-.46.1-.17.17-.34.23-.52.05-.16.07-.31.07-.46,0-.12-.02-.21-.04-.27l-.03-.05h-.06c-.07,0-.16.03-.25.09-.12.07-.25.17-.36.3Z"/>
      <path class="cls-1" d="M34.6,17.31v-9.04l-15.85,9.15v9.04l15.85-9.15h0ZM20.56,23.63v-5.48c4.08-2.35,8.15-4.71,12.23-7.06v5.48c-4.08,2.35-8.15,4.71-12.23,7.06Z"/>
      <path class="cls-2" d="M33.98,16.96v-7.62l-14.61,8.44v7.62l14.61-8.44h0ZM35.22,8.27v9.04c0,.21-.11.42-.31.53l-15.81,9.13c-.1.07-.22.11-.34.11-.34,0-.62-.28-.62-.62v-9.04c0-.21.11-.42.31-.53l15.81-9.13c.1-.07.22-.11.35-.11.34,0,.62.28.62.62h0ZM19.95,23.63v-5.48c0-.24.14-.45.35-.55l12.19-7.04c.29-.17.67-.07.84.22.06.1.08.2.08.31v5.48c0,.24-.14.45-.35.55l-12.19,7.04c-.29.17-.67.07-.84-.22-.06-.1-.08-.2-.08-.31h0ZM21.18,18.51l11-6.35v4.06l-11,6.35v-4.06Z"/>
      <polygon class="cls-1" points="18.76 17.42 34.6 8.27 32.43 7.02 31.13 6.27 15.29 15.41 18.76 17.42"/>
      <path class="cls-2" d="M18.75,16.71l14.62-8.44-2.24-1.29-14.62,8.44,2.24,1.29h0ZM34.91,8.8l-15.84,9.15c-.18.1-.42.11-.61,0l-3.44-1.99c-.1-.05-.19-.13-.26-.24-.17-.29-.07-.67.22-.84l15.84-9.15c.18-.11.42-.11.62,0l3.44,1.99c.1.05.19.13.26.24.17.29.07.67-.22.84Z"/>
      <polygon class="cls-3" points="15.29 17.2 16.83 18.09 16.83 25.35 18.76 26.46 18.76 17.42 15.29 15.41 15.29 17.2"/>
      <path class="cls-2" d="M15.9,16.84l1.24.71c.2.11.31.32.31.53v6.91s.69.4.69.4v-7.63l-2.24-1.29v.36h0ZM16.21,18.44l-1.2-.69c-.21-.1-.35-.31-.35-.55v-1.78c0-.1.03-.21.08-.31.17-.29.54-.39.84-.23l3.42,1.97c.21.1.36.31.36.56v9.04c0,.1-.03.21-.08.31-.17.29-.54.4-.84.23l-1.88-1.08c-.21-.1-.36-.31-.36-.56v-6.91Z"/>
      <polygon class="cls-1" points="30.87 12.21 30.87 15.27 32.79 16.57 32.79 11.09 30.87 12.21"/>
      <path class="cls-2" d="M31.48,12.56v2.39l.69.47v-3.25l-.69.4h0ZM30.25,15.27v-3.07c0-.21.11-.42.31-.53l1.89-1.09c.1-.07.22-.11.34-.11.34,0,.62.28.62.62v5.48c0,.12-.04.24-.11.34-.19.28-.57.36-.85.17l-1.9-1.28c-.18-.11-.3-.3-.3-.53Z"/>
      <polygon class="cls-1" points="20.56 21.22 30.87 15.27 32.79 16.57 20.56 23.63 20.56 21.22"/>
      <path class="cls-2" d="M20.29,20.67l10.27-5.93c.21-.12.46-.11.65.02l1.92,1.3c.28.19.36.57.17.85-.06.09-.14.16-.23.2l-12.21,7.05c-.29.17-.67.07-.84-.22-.06-.1-.08-.2-.08-.31v-2.41c0-.24.14-.45.35-.55h0ZM30.84,16l-9.67,5.58v.99l10.46-6.04-.79-.54Z"/>
    </g>
  </g>
</svg>