<?xml version="1.0" encoding="UTF-8"?>
<svg id="Layer_2" data-name="Layer 2" xmlns="http://www.w3.org/2000/svg" viewBox="0 0 32.67 46.56" fill="currentColor">
  <defs>
    <style>
      .cls-1 {
        fill: #fff;
      }

      .cls-1, .cls-2, .cls-3, .cls-4 {
        fill-rule: evenodd;
      }

      .cls-2 {
        fill: #1a87c7;
      }

      .cls-3 {
        fill: #bdedf8;
      }

      .cls-4 {
        fill: #66ceef;
      }
    </style>
  </defs>
  <g id="_Layer_" data-name="&amp;lt;Layer&amp;gt;">
    <g>
      <path class="cls-1" d="M15.19,27.83l-9.5,5.49.9.52,9.06-5.23c.15-.1.08-.34.02-.47-.07-.15-.29-.4-.48-.31Z"/>
      <path class="cls-2" d="M6.31,33.32l.28.17,8.83-5.1s-.02-.07-.04-.11c-.02-.05-.07-.11-.11-.14l-8.97,5.18h0ZM6.6,34.15c-.05,0-.1-.01-.16-.04l-.9-.52c-.09-.05-.15-.15-.15-.26s.06-.21.15-.27l9.51-5.49s0,0,.02,0c.35-.17.72.11.89.46.17.36.11.7-.13.86l-9.07,5.23c-.05.03-.11.04-.16.04Z"/>
      <path class="cls-1" d="M15.19,25.12l-9.21,5.32.9.52,8.77-5.06c.15-.1.08-.34.02-.47-.07-.15-.29-.4-.48-.31Z"/>
      <path class="cls-2" d="M6.6,30.44l.29.17,8.54-4.93s-.02-.08-.04-.12c-.02-.05-.07-.11-.11-.14l-8.68,5.02h0ZM6.89,31.27c-.05,0-.11-.01-.16-.04l-.9-.52c-.1-.06-.16-.16-.16-.27s.06-.21.16-.27l9.22-5.32s0,0,.02-.01c.35-.17.72.11.89.46.17.36.11.7-.13.86l-8.79,5.07s-.09.04-.15.04Z"/>
      <path class="cls-3" d="M16.29,30.18c.16-.09,1.05-.61,1.15-.65.52-.22,1.15.15,1.53.5.68.63,1.25,1.73,1.17,2.67-.03.34-.15.69-.45.88l-1.08.63c.2-.14.31-.32.39-.56.22-.75-.15-1.72-.56-2.34-.36-.53-1-1.17-1.68-1.22-.18-.01-.31.02-.47.09Z"/>
      <path class="cls-2" d="M17.34,29.93c.56.24,1.05.74,1.36,1.21.38.57.76,1.48.66,2.28l.18-.1c.22-.14.28-.46.3-.65.07-.86-.5-1.89-1.08-2.41-.33-.3-.84-.6-1.21-.45-.03.02-.11.06-.21.12h0ZM18.61,34.52c-.11,0-.21-.05-.26-.14-.09-.14-.05-.33.09-.42.13-.09.21-.21.27-.39.18-.63-.13-1.5-.52-2.08-.32-.47-.89-1.04-1.44-1.08-.13-.01-.21,0-.32.06-.15.07-.32,0-.4-.14-.08-.15-.03-.33.11-.41l.15-.08c.7-.41.96-.56,1.03-.58.8-.33,1.62.34,1.86.55.68.62,1.36,1.8,1.27,2.92-.04.51-.25.9-.59,1.12l-1.1.63s-.09.04-.15.04Z"/>
      <path class="cls-4" d="M19.01,32.64c.24,1.15-.29,1.89-1.16,1.65-.88-.24-1.77-1.36-2.01-2.5-.24-1.14.28-1.89,1.15-1.65.88.24,1.78,1.35,2.01,2.5Z"/>
      <path class="cls-2" d="M16.68,30.4c-.14,0-.26.05-.36.14-.23.21-.29.66-.19,1.19.22,1.02,1.03,2.06,1.79,2.27.25.07.45.03.59-.1.23-.22.3-.66.19-1.19-.21-1.03-1.02-2.06-1.79-2.27-.08-.02-.16-.03-.24-.03h0ZM18.16,34.64c-.13,0-.26-.02-.39-.06-.99-.27-1.97-1.47-2.23-2.74-.16-.75-.02-1.4.37-1.76.3-.28.71-.37,1.17-.25.99.27,1.97,1.47,2.22,2.74h.01c.15.75.02,1.4-.37,1.76-.21.2-.48.3-.78.3Z"/>
      <path class="cls-3" d="M27.2,36.49c.17-.09,1.05-.62,1.15-.65.52-.22,1.15.15,1.53.5.69.63,1.25,1.74,1.17,2.67-.03.33-.15.69-.45.88l-1.08.62c.2-.14.32-.32.39-.56.22-.75-.15-1.72-.57-2.34-.36-.54-1-1.17-1.68-1.22-.18-.01-.3.02-.47.09Z"/>
      <path class="cls-2" d="M28.25,36.24c.56.24,1.04.74,1.36,1.21.38.58.75,1.47.66,2.28l.18-.1c.21-.14.28-.46.29-.64.07-.86-.5-1.89-1.08-2.42-.33-.3-.84-.6-1.21-.44-.03.01-.1.06-.21.12h0ZM29.52,40.82c-.1,0-.2-.05-.26-.14-.09-.14-.05-.33.09-.42.14-.1.22-.21.27-.39.18-.63-.13-1.5-.52-2.09-.32-.47-.89-1.04-1.44-1.08-.12,0-.21,0-.32.06-.15.07-.32.01-.4-.14-.08-.15-.03-.33.12-.41l.16-.09c.69-.41.95-.55,1.02-.58.8-.33,1.63.35,1.86.56.68.62,1.37,1.8,1.28,2.92-.04.51-.25.9-.6,1.12l-1.09.63s-.1.04-.15.04Z"/>
      <path class="cls-4" d="M29.92,38.94c.24,1.15-.29,1.89-1.16,1.65-.88-.24-1.77-1.36-2.01-2.5-.24-1.15.29-1.89,1.16-1.65.88.23,1.78,1.35,2.02,2.5Z"/>
      <path class="cls-2" d="M27.6,36.7c-.15,0-.27.04-.36.13-.23.22-.3.66-.19,1.19.22,1.02,1.03,2.06,1.79,2.27.26.07.45.03.59-.1.24-.21.3-.66.19-1.19h0c-.21-1.02-1.03-2.06-1.79-2.27-.08-.02-.16-.03-.23-.03h0ZM29.07,40.95c-.12,0-.25-.02-.39-.05-.99-.27-1.98-1.47-2.24-2.74-.16-.75-.02-1.4.37-1.76.29-.28.71-.37,1.17-.25.99.26,1.98,1.47,2.24,2.74h0c.15.75.02,1.4-.37,1.76-.21.2-.48.3-.78.3Z"/>
      <path class="cls-3" d="M6.58,35.8c.17-.1,1.05-.61,1.14-.65.53-.22,1.16.16,1.53.5.69.63,1.26,1.73,1.18,2.67-.03.34-.15.69-.45.88l-1.09.62c.21-.14.32-.31.39-.55.23-.75-.14-1.72-.55-2.34-.36-.54-1-1.17-1.68-1.22-.18-.01-.31.02-.47.09Z"/>
      <path class="cls-2" d="M7.63,35.55c.55.24,1.04.74,1.35,1.21.39.57.76,1.48.67,2.28l.18-.1c.23-.14.29-.46.3-.64.07-.86-.5-1.89-1.09-2.41-.32-.3-.83-.6-1.2-.45-.04.02-.1.06-.21.12h0ZM8.89,40.13c-.1,0-.2-.05-.26-.14-.09-.14-.04-.32.09-.42.14-.09.22-.21.27-.39.19-.63-.12-1.5-.51-2.08-.32-.47-.9-1.04-1.45-1.08-.11,0-.2,0-.31.06-.15.07-.33.01-.41-.14-.07-.15-.02-.32.12-.41l.18-.1c.69-.4.93-.54,1-.57.79-.33,1.62.34,1.85.56.68.62,1.37,1.8,1.28,2.92-.04.51-.25.91-.59,1.12l-1.1.63c-.05.03-.11.04-.16.04Z"/>
      <path class="cls-4" d="M9.29,38.26c.23,1.15-.28,1.89-1.16,1.65-.88-.23-1.78-1.35-2.01-2.5-.24-1.15.29-1.89,1.16-1.65.88.23,1.77,1.35,2.01,2.5Z"/>
      <path class="cls-2" d="M6.97,36.02c-.14,0-.26.04-.36.13-.23.21-.3.66-.19,1.19.21,1.02,1.02,2.06,1.79,2.27.25.07.45.03.59-.1.23-.21.29-.66.19-1.19h0c-.21-1.03-1.03-2.06-1.79-2.27-.09-.02-.16-.03-.23-.03h0ZM8.45,40.26c-.13,0-.26-.02-.39-.05-1-.27-1.97-1.47-2.23-2.74-.16-.75-.03-1.4.36-1.76.3-.28.72-.37,1.17-.25.99.26,1.97,1.47,2.24,2.74h0c.15.75.02,1.4-.37,1.77-.21.2-.48.3-.78.3Z"/>
      <path class="cls-1" d="M15.58,24.81c-.09-.05-.21,0-.29.06-.16.13-.31.39-.29.6,0,.06.03.13.1.17l16.39,9.47v-1.12l-15.92-9.18Z"/>
      <path class="cls-2" d="M15.31,25.41l15.87,9.16v-.4l-15.69-9.06c-.11.09-.17.22-.18.3h0ZM31.49,35.42c-.05,0-.12-.02-.16-.04l-16.39-9.46c-.14-.08-.22-.23-.24-.4-.04-.35.18-.71.41-.88.2-.15.43-.19.62-.09h0s15.91,9.19,15.91,9.19c.1.06.16.16.16.27v1.12c0,.11-.06.21-.16.27-.04.03-.1.04-.15.04Z"/>
      <path class="cls-1" d="M15.86,28.41c-.01.11-.11.18-.2.22-.2.08-.49.07-.67-.05-.05-.04-.1-.1-.1-.17v-14.89l.97.56v14.33Z"/>
      <path class="cls-2" d="M15.2,28.34c.09.04.24.04.34,0h0v-14.09l-.35-.2v14.29h0ZM15.86,28.41h0,0ZM15.38,28.99c-.2,0-.41-.05-.57-.17-.14-.1-.22-.25-.22-.4v-14.89c0-.11.06-.21.16-.27.09-.05.21-.05.3,0l.97.56c.09.06.15.16.15.27v14.33h0c0,.22-.15.4-.38.5-.12.05-.26.08-.41.08Z"/>
      <path class="cls-1" d="M15.61,27.79c-.09-.05-.21,0-.29.06-.18.13-.31.39-.29.61.01.07.04.13.09.17l16.41,9.47.4-.89-16.32-9.42Z"/>
      <path class="cls-2" d="M15.34,28.4l16.06,9.27.14-.32-16.01-9.25c-.1.09-.17.21-.18.3h0ZM31.53,38.41c-.05,0-.11-.01-.16-.04l-16.4-9.47c-.14-.08-.23-.23-.24-.4-.04-.35.17-.7.41-.88.2-.15.43-.19.62-.09,0,0,0,0,0,0l16.31,9.42c.14.08.19.25.13.39l-.4.89c-.03.08-.1.14-.18.17-.04.01-.06.02-.1.02Z"/>
      <path class="cls-3" d="M17.49,42.11c.16-.1,1.05-.61,1.14-.65.53-.22,1.16.16,1.53.5.69.63,1.26,1.73,1.18,2.67-.03.34-.16.7-.45.88l-1.08.63c.2-.14.31-.32.38-.55.23-.75-.14-1.72-.56-2.35-.36-.53-1-1.17-1.68-1.22-.17-.01-.31.02-.47.09Z"/>
      <path class="cls-2" d="M18.54,41.85c.56.24,1.03.74,1.35,1.21.39.57.76,1.48.67,2.28l.18-.1c.22-.14.29-.46.3-.64.07-.86-.5-1.89-1.08-2.42-.33-.3-.84-.59-1.21-.44-.03.01-.11.06-.21.12h0ZM19.81,46.44c-.11,0-.21-.05-.26-.14-.09-.14-.05-.32.08-.42.14-.09.22-.21.28-.39.18-.63-.13-1.5-.52-2.09-.32-.47-.89-1.04-1.45-1.08-.11,0-.2,0-.31.06-.15.07-.33.01-.4-.14-.08-.15-.03-.33.11-.41l.17-.09c.7-.41.95-.55,1.02-.58.79-.33,1.62.34,1.85.56.69.62,1.37,1.8,1.28,2.92-.04.51-.25.9-.59,1.12l-1.1.63s-.09.04-.15.04Z"/>
      <path class="cls-4" d="M20.21,44.56c.24,1.14-.29,1.88-1.16,1.65-.88-.23-1.77-1.36-2.01-2.5-.24-1.15.28-1.89,1.16-1.65.88.24,1.78,1.35,2.01,2.5Z"/>
      <path class="cls-2" d="M17.88,42.32c-.14,0-.26.04-.36.13-.22.21-.3.66-.19,1.19.21,1.02,1.03,2.06,1.79,2.27.25.07.45.03.59-.1.23-.22.3-.66.19-1.19h0c-.21-1.02-1.03-2.06-1.79-2.27-.09-.02-.17-.03-.24-.03h0ZM19.36,46.56c-.13,0-.26-.02-.39-.05-.99-.27-1.97-1.47-2.23-2.74-.16-.75-.02-1.4.37-1.76.3-.28.72-.37,1.17-.25,1,.27,1.98,1.47,2.23,2.74h0c.16.76.03,1.4-.36,1.77-.22.2-.49.3-.78.3Z"/>
      <path class="cls-2" d="M22.05,28.69c-.05,0-.12-.02-.16-.04L3.34,17.93c-.15-.09-.2-.27-.11-.42.09-.15.28-.2.42-.11l18.55,10.71c.15.08.2.27.11.42-.05.1-.15.15-.26.15Z"/>
      <path class="cls-2" d="M31.73,23c-.05,0-.11-.01-.16-.04L12.85,12.15c-.15-.09-.2-.27-.12-.42.09-.15.27-.2.42-.11l18.72,10.81c.15.08.2.27.12.42-.05.1-.16.15-.26.15Z"/>
      <path class="cls-2" d="M22.04,28.69c-.11,0-.21-.06-.26-.15-.09-.15-.04-.34.11-.42l9.68-5.59c.15-.08.34-.03.42.11.08.15.04.34-.11.42l-9.69,5.59s-.09.04-.16.04Z"/>
      <path class="cls-2" d="M15.28,36.58c-.1,0-.21-.06-.27-.15-.08-.15-.03-.33.12-.42l16.45-9.5c.15-.08.34-.04.42.11.08.15.04.33-.11.42l-16.45,9.5c-.05.03-.11.04-.16.04Z"/>
      <path class="cls-2" d="M22.04,36.43c-.11,0-.21-.05-.26-.15-.09-.15-.04-.34.11-.42l9.68-5.59c.15-.08.34-.03.42.11.08.15.04.34-.11.42l-9.69,5.59s-.09.04-.16.04Z"/>
      <path class="cls-2" d="M5.87,19.3c-.1,0-.21-.06-.27-.15-.09-.15-.04-.34.11-.42l9.69-5.59c.15-.09.33-.04.42.11.09.15.03.34-.11.42l-9.68,5.59c-.05.03-.1.04-.16.04Z"/>
      <path class="cls-2" d="M5.87,23.28c-.1,0-.21-.05-.27-.15-.09-.15-.04-.33.11-.42l9.03-5.21c.15-.09.33-.04.42.11.09.15.03.34-.11.42l-9.02,5.21c-.05.03-.1.04-.16.04Z"/>
      <path class="cls-2" d="M5.87,27.04c-.1,0-.21-.06-.27-.15-.09-.15-.04-.34.11-.42l9.03-5.21c.15-.08.33-.04.42.11.09.15.03.34-.11.42l-9.02,5.21c-.05.03-.1.04-.16.04Z"/>
      <path class="cls-2" d="M5.85,34.63c-.17,0-.3-.14-.3-.31v-15.29c0-.17.14-.31.3-.31s.31.14.31.31v15.29c0,.17-.14.31-.31.31Z"/>
      <path class="cls-2" d="M22.04,29.24c-.17,0-.3-.14-.3-.31v-11.83c0-.17.14-.31.3-.31.18,0,.31.14.31.31v11.83c0,.17-.14.31-.31.31Z"/>
      <path class="cls-2" d="M21.98,43.95c-.05,0-.1-.01-.15-.04l-16.13-9.31c-.15-.08-.2-.27-.12-.42.08-.15.27-.2.42-.11l16.13,9.31c.15.08.2.27.11.42-.06.1-.16.15-.27.15Z"/>
      <path class="cls-2" d="M31.74,35.08c-.17,0-.31-.14-.31-.31v-11.98c0-.17.14-.31.31-.31s.31.14.31.31v11.98c0,.17-.14.31-.31.31Z"/>
      <path class="cls-2" d="M15.55,36.76c-.17,0-.3-.14-.3-.31v-7.55c0-.17.14-.31.3-.31.18,0,.31.14.31.31v7.55c0,.17-.14.31-.31.31Z"/>
      <path class="cls-2" d="M22.03,32.61c-.05,0-.11-.01-.16-.04L5.71,23.24c-.15-.08-.2-.27-.11-.42.09-.15.28-.2.42-.12l16.17,9.34c.15.08.19.27.11.42-.06.1-.17.15-.27.15Z"/>
      <path class="cls-2" d="M22.09,36.36c-.05,0-.11-.01-.16-.04L5.7,26.95c-.15-.08-.2-.27-.12-.42.08-.15.27-.2.42-.11l16.24,9.37c.15.08.19.27.11.42-.06.1-.17.15-.27.15Z"/>
      <path class="cls-2" d="M31.74,27.03c-.05,0-.11-.01-.16-.04l-15.87-9.16c-.15-.08-.2-.28-.11-.42.09-.15.28-.2.42-.11l15.88,9.16c.15.09.2.28.11.42-.06.1-.17.15-.27.15Z"/>
      <path class="cls-2" d="M31.89,31.07c-.05,0-.11-.01-.15-.04l-16.03-9.25c-.15-.08-.2-.27-.11-.42.09-.15.28-.2.42-.11l16.04,9.25c.15.08.19.27.11.42-.06.1-.17.15-.27.15Z"/>
      <path class="cls-2" d="M18.99,38.85c-.18,0-.31-.14-.31-.31v-10.58l-9.11,5.26c-.1.06-.21.06-.3,0-.1-.06-.16-.16-.16-.27v-16.02c0-.17.14-.31.3-.31.17,0,.31.14.31.31v15.48l8.95-5.17v-11.86c0-.17.14-.31.31-.31.17,0,.3.14.3.31v12.04h0v11.12c0,.17-.14.31-.3.31Z"/>
      <path class="cls-2" d="M12.31,38.37c-.16,0-.3-.14-.3-.31v-3.54h0V15.27c0-.17.14-.31.3-.31.17,0,.31.14.31.31v18.71l9.18-5.3c.15-.08.34-.04.43.11.08.15.04.34-.11.42l-9.49,5.48v3.36c0,.17-.14.31-.31.31Z"/>
      <path class="cls-2" d="M25.54,38.67c-.18,0-.31-.14-.31-.31v-19.23c0-.17.14-.31.31-.31.17,0,.3.14.3.31v19.23c0,.17-.14.31-.3.31Z"/>
      <path class="cls-2" d="M28.77,36.63c-.17,0-.3-.14-.3-.31v-15.27c0-.17.14-.31.3-.31s.31.14.31.31v15.27c0,.17-.14.31-.31.31Z"/>
      <path class="cls-1" d="M6.41,34.2c0,.1-.11.18-.2.22-.2.08-.5.08-.67-.05-.05-.04-.09-.1-.09-.16v-14.89l.96.56v14.33Z"/>
      <path class="cls-2" d="M5.75,34.13c.09.04.24.04.34,0,.01,0,.01,0,.01,0v-14.08l-.35-.2v14.28h0ZM6.41,34.2h0,0ZM5.92,34.78c-.2,0-.4-.05-.56-.16-.14-.11-.22-.25-.23-.41v-14.9c0-.11.06-.21.16-.26.1-.06.21-.06.3,0l.97.56c.09.06.15.16.15.27v14.33h0c0,.21-.15.41-.38.5-.12.05-.26.08-.41.08Z"/>
      <path class="cls-1" d="M6.15,30.59c-.09-.05-.21,0-.29.06-.16.13-.31.39-.29.61,0,.07.03.13.09.17l16.37,9.45v-1.12l-6.14-3.55-9.74-5.62Z"/>
      <path class="cls-2" d="M5.88,31.19l15.85,9.15v-.41l-15.67-9.05c-.1.08-.17.21-.18.3h0ZM22.04,41.19c-.05,0-.11-.02-.15-.04L5.52,31.69c-.14-.08-.23-.23-.24-.4-.04-.35.17-.71.41-.89.2-.16.43-.19.62-.09,0,0,.01,0,.01,0l15.89,9.18c.09.06.16.15.16.26v1.12c0,.11-.06.21-.16.27-.04.03-.09.04-.16.04Z"/>
      <path class="cls-1" d="M6.15,33.59c-.09-.05-.21,0-.29.06-.16.13-.31.39-.29.61,0,.06.03.13.09.17l16.37,9.46v-1.12l-6.14-3.55-9.74-5.63Z"/>
      <path class="cls-2" d="M5.88,34.19l15.85,9.15v-.41l-15.67-9.05c-.1.08-.17.21-.18.3h0ZM22.04,44.19c-.05,0-.11-.02-.15-.04l-16.37-9.46c-.14-.08-.23-.23-.24-.4-.04-.35.17-.71.41-.89.2-.16.43-.19.62-.09h.01s15.89,9.18,15.89,9.18c.09.06.16.16.16.26v1.12c0,.11-.06.21-.16.27-.04.03-.09.04-.16.04Z"/>
      <path class="cls-1" d="M31.71,34.25l-9.66,5.58v1.05l10.12-5.83c.15-.1.08-.34.02-.47-.07-.15-.29-.4-.47-.31Z"/>
      <path class="cls-2" d="M22.36,40.01v.34l9.58-5.53s-.02-.07-.04-.11c-.03-.05-.07-.11-.11-.14l-9.43,5.45h0ZM22.04,41.19c-.05,0-.11-.02-.15-.04-.1-.06-.16-.16-.16-.27v-1.05c0-.11.06-.21.16-.27l9.66-5.58s0,0,.02-.01c.35-.17.72.11.89.45.17.37.12.7-.13.87l-10.13,5.84s-.09.04-.16.04Z"/>
      <path class="cls-1" d="M12.39,10.96c-.09-.05-.21,0-.28.06-.17.13-.31.39-.29.61,0,.07.03.14.09.17l19.66,11.35.11-1.06-.56-.32L12.39,10.96Z"/>
      <path class="cls-2" d="M12.12,11.57l19.2,11.08.04-.38L12.31,11.27c-.1.09-.18.21-.18.3h0ZM31.58,23.47c-.05,0-.11-.02-.15-.04L11.76,12.07c-.14-.08-.23-.23-.24-.4-.05-.35.17-.71.41-.89.2-.15.43-.19.62-.09.01,0,.01,0,.01,0l19.28,11.13c.11.06.17.18.16.3l-.1,1.06c-.02.1-.08.19-.17.24-.04.02-.09.03-.14.03Z"/>
      <path class="cls-1" d="M31.78,37.22l-9.74,5.61v1.05l10.19-5.88c.27-.18-.15-.93-.45-.78Z"/>
      <path class="cls-2" d="M22.36,43.01v.34l9.65-5.57c0-.08-.08-.2-.14-.25l-9.51,5.49h0ZM22.04,44.19c-.05,0-.11-.02-.15-.04-.1-.06-.16-.16-.16-.27v-1.05c0-.11.06-.21.16-.26l9.73-5.62s.02,0,.02,0c.3-.14.63.02.85.4.21.37.17.74-.1.92l-10.19,5.89s-.09.04-.16.04Z"/>
      <path class="cls-1" d="M22.54,40.5c0,.11-.11.18-.2.22-.19.08-.5.07-.67-.06-.05-.04-.1-.1-.1-.16v-12.27l.96-.19v12.46Z"/>
      <path class="cls-2" d="M21.88,40.43c.09.04.24.04.35,0h0v-12.02l-.35.07v11.95h0ZM22.54,40.5h.01-.01ZM22.05,41.07c-.2,0-.4-.05-.57-.17-.14-.1-.22-.25-.23-.4v-12.28c0-.15.11-.27.25-.3l.96-.2c.09-.02.18,0,.25.07.08.06.11.15.11.24v12.46h0c0,.22-.15.41-.38.51-.12.05-.26.07-.41.07Z"/>
      <path class="cls-1" d="M2.96,16.74c-.09-.05-.21,0-.29.06-.18.13-.31.39-.29.61,0,.06.03.13.1.17l19.56,11.3v-1.12L2.96,16.74Z"/>
      <path class="cls-2" d="M2.69,17.34l19.05,11v-.4L2.87,17.04c-.11.08-.17.21-.18.3h0ZM22.04,29.18c-.05,0-.11-.01-.15-.04L2.32,17.84c-.14-.08-.23-.23-.24-.4-.04-.35.17-.71.4-.89.21-.15.44-.19.62-.09h.01s19.09,11.02,19.09,11.02c.09.06.16.16.16.26v1.12c0,.11-.06.21-.16.27-.04.03-.09.04-.16.04Z"/>
      <path class="cls-1" d="M32.28,34.8c-.01.1-.12.18-.2.22-.2.08-.5.07-.67-.06-.05-.04-.1-.1-.1-.16v-11.38l.97-.68v12.06Z"/>
      <path class="cls-2" d="M31.62,34.73c.09.04.24.04.34,0,.01,0,.01,0,.01,0v-11.4l-.35.25v11.15h0ZM31.79,35.38c-.19,0-.4-.05-.56-.17-.14-.1-.23-.25-.23-.4v-11.39c0-.1.05-.19.13-.25l.96-.68c.09-.07.22-.08.32-.02.1.05.17.16.17.27v12.06h0c-.01.22-.15.4-.38.5-.12.05-.26.08-.42.08Z"/>
      <path class="cls-1" d="M31.82,22.08l-9.8,5.66v1.05l10.25-5.92c.15-.1.08-.35.02-.47-.07-.15-.28-.4-.47-.31Z"/>
      <path class="cls-2" d="M22.33,27.92v.33l9.72-5.61s-.02-.07-.04-.12c-.02-.05-.07-.11-.1-.14l-9.58,5.53h0ZM22.02,29.09c-.05,0-.1-.01-.16-.04-.1-.06-.15-.16-.15-.27v-1.05c0-.11.05-.21.15-.26l9.8-5.66s.02,0,.03-.01c.34-.16.71.11.88.46.17.36.12.7-.12.86l-10.27,5.93c-.05.03-.11.04-.15.04Z"/>
      <path class="cls-4" d="M1.39,17.56c-.11-.2-.27-.37-.44-.47-.18-.1-.34-.11-.45-.04-.11.07-.18.21-.18.41s.07.42.18.62c.11.2.28.37.45.47.17.1.33.11.44.04.11-.07.18-.21.18-.41s-.07-.43-.18-.62Z"/>
      <path class="cls-2" d="M.66,17.3h0s-.03.05-.03.14c0,.14.05.31.15.47.09.16.21.29.33.36.09.05.14.05.14.05.01,0,.03-.05.03-.14,0-.14-.05-.31-.15-.47-.09-.16-.21-.29-.33-.36-.07-.04-.11-.04-.13-.04h0ZM1.23,18.94c-.14,0-.29-.04-.43-.13-.22-.13-.42-.33-.56-.59-.15-.25-.24-.53-.24-.77,0-.31.13-.55.34-.68.22-.13.5-.11.75.05.22.12.42.33.57.58.15.25.23.53.23.78,0,.3-.12.55-.34.67-.1.06-.21.08-.32.08Z"/>
      <path class="cls-3" d="M13.88,9.61c-.13-.08-.29-.12-.43-.05L.51,17.03c.11-.06.23-.04.34,0,.11.05.21.12.3.2.16.15.27.33.35.53.04.13.08.25.08.39,0,.16-.03.33-.18.42l12.94-7.47c.09-.06.14-.16.16-.26,0-.05.02-.09.02-.14,0-.08,0-.14-.03-.22-.04-.17-.1-.32-.2-.46-.11-.17-.24-.31-.41-.42Z"/>
      <path class="cls-2" d="M1.28,16.94s.05.05.08.07c.19.18.33.4.42.64.04.11.07.21.09.31l12.32-7.11c.02-.08.02-.11.02-.14,0-.05,0-.09-.02-.15-.03-.12-.08-.24-.15-.36-.09-.14-.19-.24-.31-.32-.07-.04-.13-.05-.14-.04L1.28,16.94h0ZM1.4,18.89c-.09,0-.2-.05-.26-.15-.09-.14-.04-.33.09-.42.02-.01.03-.07.03-.16,0-.09-.02-.17-.06-.29-.07-.16-.15-.3-.28-.42-.07-.07-.13-.11-.2-.14-.06-.02-.08-.02-.09-.01-.15.07-.33.02-.41-.13-.08-.15-.03-.33.12-.41l12.93-7.47c.16-.08.42-.14.74.05h0c.2.13.38.3.51.52.11.18.19.36.24.56.02.1.03.18.03.28,0,.08-.01.14-.02.2-.05.26-.19.4-.3.47L1.56,18.85c-.05.03-.1.04-.16.04Z"/>
      <path class="cls-1" d="M15.19,13.15l-9.21,5.32.9.52,8.77-5.06c.15-.1.08-.34.02-.47-.07-.15-.29-.4-.48-.31Z"/>
      <path class="cls-2" d="M6.59,18.48l.3.17,8.54-4.93s-.02-.07-.04-.12c-.02-.05-.07-.1-.11-.14l-8.69,5.02h0ZM6.89,19.31c-.05,0-.11-.01-.16-.04l-.9-.52c-.1-.06-.16-.16-.16-.27s.06-.21.16-.27l9.22-5.32s0,0,.02-.01c.35-.17.72.11.89.45.17.37.11.7-.13.86l-8.79,5.07s-.09.04-.15.04Z"/>
      <path class="cls-1" d="M12.82,37.34c0,.08-.95.43-.96-.46v-1.88l.96.56v1.79Z"/>
      <path class="cls-2" d="M12.16,35.52v1.35c0,.09.03.22.1.26.07.03.17.03.26.01v-1.42l-.36-.2h0ZM12.82,37.34h0,0ZM12.39,37.78c-.39,0-.82-.24-.84-.9v-1.89c0-.11.06-.21.16-.27.09-.05.21-.05.3,0l.97.56c.1.05.15.16.15.27v1.79h0c-.01.36-.55.44-.74.44h0Z"/>
      <path class="cls-4" d="M25.76,2.12l-2.67-1.54-.32-.11c-.68-.19-1.44-.21-2.14-.1-1.83.28-3.63,1.41-5.01,2.6-3.29,2.88-5.92,7.68-6.28,12.06-.12,1.45,0,3.09.63,4.43.23.52.6,1.05,1.01,1.45l.25.23,2.67,1.54c-.18-.16-.33-.29-.49-.47-.48-.54-.84-1.25-1.06-1.94-.57-1.8-.42-3.97,0-5.79.96-4.1,3.71-8.52,7.19-10.94,1.29-.9,2.91-1.66,4.51-1.7.45-.01.96.05,1.39.17l.32.1Z"/>
      <path class="cls-2" d="M21.49.61c-.27,0-.54.02-.81.06-2.06.32-3.92,1.72-4.85,2.53-3.35,2.93-5.82,7.69-6.17,11.85-.1,1.16-.08,2.84.59,4.27.24.51.58,1.01.95,1.36l.24.21,1.14.66c-.21-.37-.38-.78-.52-1.2-.7-2.19-.3-4.67-.01-5.95,1.03-4.38,3.89-8.74,7.32-11.12,1.12-.78,2.84-1.72,4.69-1.76h.08l-1.19-.69-.26-.08c-.35-.1-.76-.16-1.19-.16h0ZM13.88,22.98s-.09-.01-.14-.04l-2.67-1.54-.3-.26c-.43-.42-.82-.97-1.09-1.55-.73-1.55-.75-3.35-.65-4.58.36-4.31,2.93-9.24,6.39-12.26.97-.85,2.94-2.34,5.15-2.68.79-.12,1.6-.08,2.28.11l.33.11,2.72,1.56c.14.08.2.25.13.39-.06.14-.23.22-.37.17l-.32-.11c-.37-.11-.85-.17-1.29-.15-1.31.03-2.86.61-4.35,1.64-3.3,2.29-6.07,6.51-7.07,10.76-.28,1.22-.66,3.57,0,5.62.22.7.57,1.35.99,1.82.15.16.28.28.43.42.12.1.16.29.06.42-.06.09-.16.14-.25.14Z"/>
      <path class="cls-3" d="M20.4,22.46c4.66-2.69,8.43-9.22,8.43-14.6S25.06.31,20.4,3c-4.65,2.69-8.43,9.23-8.43,14.6s3.78,7.55,8.43,4.86Z"/>
      <path class="cls-2" d="M20.4,22.46h0,0ZM24.16,2.15c-1.1,0-2.33.38-3.61,1.11-4.56,2.63-8.27,9.06-8.27,14.33,0,2.48.82,4.33,2.31,5.19,1.5.86,3.5.65,5.65-.59h0c4.56-2.63,8.27-9.06,8.27-14.33,0-2.48-.82-4.33-2.31-5.19-.61-.35-1.29-.52-2.04-.52h0ZM16.64,23.92c-.86,0-1.65-.2-2.36-.6-1.69-.98-2.62-3.01-2.62-5.72,0-5.47,3.85-12.14,8.58-14.87,2.35-1.36,4.58-1.56,6.26-.59,1.69.98,2.63,3.01,2.63,5.72,0,5.46-3.85,12.13-8.58,14.86h0c-1.38.8-2.71,1.2-3.92,1.2Z"/>
      <polygon class="cls-1" points="25.89 8.29 14.92 14.62 14.92 17.17 23.95 11.95 25.89 10.84 25.89 8.29"/>
      <path class="cls-2" d="M15.23,14.8v1.84l10.34-5.98v-1.84l-10.34,5.98h0ZM14.92,17.48c-.05,0-.11-.01-.16-.04-.09-.06-.15-.16-.15-.27v-2.55c0-.11.05-.21.15-.27l10.97-6.33c.09-.06.22-.06.3,0,.1.06.16.16.16.27v2.55c0,.11-.06.21-.16.26l-10.96,6.33c-.05.03-.11.04-.16.04Z"/>
    </g>
  </g>
</svg>