<?xml version="1.0" encoding="UTF-8"?>
<svg id="Layer_2" data-name="Layer 2" xmlns="http://www.w3.org/2000/svg" viewBox="0 0 32.75 43" fill="currentColor">
  <defs>
    <style>
      .cls-1 {
        fill: #fff;
      }

      .cls-1, .cls-2, .cls-3, .cls-4 {
        fill-rule: evenodd;
      }

      .cls-2 {
        fill: #1a87c7;
      }

      .cls-3 {
        fill: #bdedf8;
      }

      .cls-4 {
        fill: #66ceef;
      }
    </style>
  </defs>
  <g id="_Layer_" data-name="&amp;lt;Layer&amp;gt;">
    <g>
      <path class="cls-1" d="M7.78,13.32c.13-.15.47-.51.58-.67.18-.32.18-.44.21-.81,1.6,1.86,5.37,2.95,6.84.31h0c.39.98-.76,2.86-2.28,3.42-1.07.41-2.75.15-3.62-.62l-1.44-1.31-.29-.32Z"/>
      <path class="cls-2" d="M8.2,13.32l.11.12,1.41,1.29c.73.68,2.31.94,3.3.56.94-.34,1.65-1.21,1.96-1.92.05-.1.08-.2.11-.29-.52.53-1.2.85-2.02.94-1.44.15-3.14-.48-4.3-1.52-.05.09-.11.2-.16.32-.08.12-.21.27-.39.48,0,.01-.03.02-.03.03h0ZM11.97,16.07c-1,0-2.04-.32-2.67-.89l-1.44-1.31-.31-.34c-.08-.11-.1-.27,0-.39.05-.06.13-.15.21-.25.13-.12.29-.31.34-.39.13-.22.13-.3.16-.57v-.11c.03-.12.11-.23.24-.26.11-.04.24,0,.31.09,1,1.17,2.78,1.9,4.19,1.76.97-.1,1.68-.57,2.12-1.39.08-.1.18-.16.29-.16.13,0,.24.08.29.19.16.42.13.98-.13,1.58-.45,1.01-1.34,1.89-2.31,2.26-.39.14-.84.21-1.28.21Z"/>
      <path class="cls-1" d="M14.51,13.41c.6-.58,1.1-1.65,1.57-2.62.63-1.32.6-2.83.6-4.05l-.21-.72c-.08-.3-.08-.62-.11-.92,0-.4,0-.76-.21-.95-.31-.3-.84.16-1.44.69-.42.36-.86.76-1.36,1.04-.63.36-1.94.58-2.38.96-.47.38-.45.69-.45,1.24.03.52.05,1.03-.26,2.13-.05-.33-.13-.68-.29-.98-.1-.23-.29-.44-.5-.57-.16-.09-.34-.13-.52-.1-.18.03-.34.12-.45.25-.18.18-.29.42-.34.67-.05.24-.03.49.03.73.08.37.29.8.45,1.11.05.1,0,.38-.05.53,1.15,1.31,2.83,2.21,4.17,2.21.6,0,1.31-.24,1.75-.66Z"/>
      <path class="cls-2" d="M8.93,11.78c1.1,1.19,2.62,1.98,3.83,1.98.55-.01,1.18-.23,1.52-.58h0c.55-.51,1-1.44,1.44-2.33l.08-.19c.58-1.18.58-2.52.6-3.7v-.17l-.21-.68c-.1-.35-.1-.7-.1-1.01-.03-.29-.03-.63-.13-.72-.13-.12-.71.41-1.02.7-.42.36-.89.78-1.42,1.08-.31.18-.76.32-1.18.46-.45.14-.97.3-1.18.47-.31.28-.31.46-.31.95v.14c.03.49.03,1.05-.29,2.14-.05.14-.16.23-.31.23-.13-.01-.26-.12-.29-.27-.05-.35-.13-.65-.24-.88-.08-.14-.21-.34-.39-.44-.1-.06-.21-.08-.31-.06-.1.02-.21.07-.29.16-.13.12-.21.3-.26.5-.03.19-.03.4.03.61.08.27.21.62.42,1.03.05.05.13.2.03.6h0ZM12.76,14.38c-1.41,0-3.17-.93-4.4-2.32-.08-.08-.11-.2-.05-.3.05-.17.05-.3.05-.34-.24-.42-.39-.82-.47-1.14-.05-.29-.08-.59-.03-.85.05-.33.21-.61.42-.83.18-.18.39-.3.63-.33.26-.04.5,0,.73.14.21.13.42.33.58.61.03-.33.03-.58.03-.83v-.08c0-.59-.03-1.02.52-1.48.31-.25.81-.41,1.39-.59.39-.13.81-.26,1.07-.41.45-.27.89-.64,1.28-1.01.68-.6,1.34-1.17,1.86-.69.31.28.31.73.31,1.17,0,.28.03.58.08.85l.24.71v.31c0,1.18,0,2.66-.65,3.97l-.08.19c-.47.95-.94,1.93-1.55,2.51-.47.46-1.23.75-1.96.75h0Z"/>
      <path class="cls-1" d="M7.1,3.45c-1.05,1.96-.39,7.33,1.47,8.49.03-.1.16-.48.08-.61-.16-.31-.37-.74-.45-1.11-.42-1.77,1.7-2.6,2.07,0,.31-1.1.29-1.61.26-2.13,0-.55-.03-.86.45-1.24.29-.25.66-.34,1.05-.45h0c.42-.11.86-.23,1.34-.51.5-.28.94-.68,1.36-1.04.6-.54,1.13-.99,1.44-.69.21.19.21.55.21.95.03.3.03.62.11.92l.21.72c.08-.95.05-2.06-.08-2.97-.26-1.75-1.05-1.82-3.2-2.96-.34-.18-.79-.49-1.47-.51-1.62-.05-4.03,1.85-4.85,3.14Z"/>
      <path class="cls-2" d="M7.36,3.61c-.86,1.65-.42,6.1.94,7.69-.21-.37-.34-.72-.42-1.01-.16-.69.03-1.36.47-1.73.31-.28.73-.36,1.1-.22.21.08.5.26.76.69.03-.33.03-.58.03-.83v-.08c0-.59-.03-1.02.52-1.48.34-.29.76-.4,1.18-.51.39-.11.81-.23,1.28-.48.45-.27.89-.64,1.28-1.01.66-.58,1.28-1.13,1.81-.74-.03-.02-.03-.03-.03-.05-.18-1.3-.65-1.53-2.07-2.23-.26-.15-.6-.31-.97-.5l-.13-.08c-.34-.17-.68-.37-1.18-.39-1.52-.05-3.83,1.78-4.58,2.99h0ZM8.57,12.25c-.05,0-.13-.02-.16-.05-1.96-1.24-2.7-6.82-1.57-8.9h0c.84-1.36,3.3-3.3,5.06-3.3h.08c.63.02,1.1.28,1.44.47l.13.07c.37.19.68.35.97.49,1.44.72,2.18,1.08,2.41,2.7.13.88.16,1.98.08,3.03,0,.15-.13.27-.26.28-.16.01-.29-.07-.34-.22l-.21-.72c-.1-.35-.1-.7-.1-1.01-.03-.29-.03-.63-.13-.72-.13-.12-.71.41-1.02.7-.42.36-.89.78-1.42,1.08-.52.3-.99.43-1.41.54-.37.1-.68.19-.94.39-.31.28-.31.46-.31.95v.14c.03.49.03,1.05-.29,2.14-.05.14-.16.23-.31.23-.13-.01-.26-.12-.29-.27-.11-.73-.37-1.24-.71-1.37-.24-.08-.42.03-.5.11-.21.18-.39.58-.26,1.14.08.27.21.62.42,1.03.16.25,0,.69-.05.87-.05.09-.1.15-.18.18-.05.01-.08.02-.1.02Z"/>
      <path class="cls-3" d="M13.34,15.12c-2.67-.24-4.17-.3-5.55-1.8.89.99,2.31,2.27,2.8,3.4.73,1.7.37,3.55,2.07,5.14l1.6-.84c1.26-1.79,2.49-6.6,1.18-8.96l-.03.08c.13,1.27-.89,1.87-1.89,2.87h0l-.18.11h0Z"/>
      <path class="cls-2" d="M9.67,14.89c.5.56.94,1.14,1.2,1.7.26.63.39,1.27.52,1.89.21,1.07.42,2.07,1.31,3l1.34-.7c1.02-1.49,2.07-5.16,1.49-7.57-.24.57-.73,1.02-1.23,1.48-.18.17-.37.35-.55.54-.03.02-.05.03-.08.05l-.18.11c-.05.03-.13.04-.18.04l-.37-.03c-1.31-.12-2.36-.21-3.27-.5h0ZM12.65,22.17c-.08,0-.16-.03-.24-.08-1.15-1.1-1.39-2.31-1.62-3.48-.13-.61-.26-1.2-.5-1.76-.34-.79-1.2-1.69-1.97-2.49-.29-.29-.55-.57-.79-.83-.1-.13-.08-.32.03-.43.13-.11.31-.11.45.02,1.26,1.34,2.57,1.46,4.98,1.67l.26.02.08-.04c.18-.19.37-.36.55-.53.76-.69,1.28-1.19,1.2-2.06,0-.06,0-.13.03-.18l.05-.08c.05-.1.16-.16.26-.16h0c.13,0,.24.06.29.16,1.42,2.58,0,7.55-1.21,9.28-.03.04-.08.07-.1.1l-1.62.84c-.05.02-.11.03-.13.03Z"/>
      <path class="cls-2" d="M12.73,17.27s-.08,0-.1-.02l-2.62-1.01c-.16-.06-.24-.24-.16-.4.05-.16.24-.24.39-.18l2.31.89.47-1.43c.03-.14.18-.22.31-.21.03-.03.05-.06.1-.08.16-.08.34-.02.42.13l.37.71c.13-.24.29-.5.47-.75.39-.6.79-1.22.92-1.53.08-.15.26-.22.42-.15.16.07.21.25.16.41-.18.35-.55.96-1,1.61-.26.41-.52.84-.76,1.2-.05.1-.16.17-.26.15-.11,0-.21-.07-.26-.17l-.42-.82-.47,1.42c-.03.08-.08.15-.16.18-.05.02-.08.03-.13.03Z"/>
      <path class="cls-4" d="M12.65,25.72l1.6-.84c-.03-.24-.03-4.14-.05-4.37-.13-1.14-.18-2.35-.31-3.57,0-.06.05-.52.13-1l-.5-.94-.18.11-.39,1.23c.11.34.18.7.18.79-.13,1.42-.29,2.82-.42,4.18-.03.2-.05,4.19-.05,4.41Z"/>
      <path class="cls-2" d="M13.26,16.35c.18.66.18.75.18.81-.13,1.39-.29,2.77-.42,4.1l-.03.09c0,.11,0,1.26-.03,2.17v1.69l.97-.51c0-.31,0-.96-.03-2,0-.9,0-2.03-.03-2.15-.05-.59-.1-1.19-.16-1.81-.03-.58-.08-1.17-.16-1.76,0-.05,0-.11.1-.97l-.18-.38-.24.72h0ZM12.65,26.03c-.08,0-.13-.02-.18-.06-.08-.06-.13-.17-.13-.28,0-.12.03-1.26.03-2.18.03-1.44.03-2.13.03-2.23v-.09c.16-1.33.29-2.7.42-4.09,0-.02-.03-.21-.18-.67v-.18l.42-1.22c.03-.07.08-.13.13-.17l.18-.11c.08-.04.16-.05.26-.03.08.02.13.08.18.15l.47.94c.03.06.03.12.03.18-.08.61-.11.89-.11.94.08.57.11,1.17.16,1.76.03.61.08,1.2.16,1.78,0,.12,0,.8.03,2.21,0,.91,0,2.03.03,2.15,0,.13-.05.25-.16.31l-1.62.84c-.05.02-.11.04-.13.04Z"/>
      <path class="cls-2" d="M13.52,17.38c-.16,0-.34-.03-.52-.11-.16-.06-.24-.24-.18-.4.08-.16.24-.24.42-.18.31.12.37.05.39-.01.1-.15.29-.19.45-.1.13.09.18.28.11.42-.16.25-.39.37-.66.37Z"/>
      <path class="cls-4" d="M9.46,15.11c.86.97,1.21,1.58,1.49,2.84.23.96.34,1.93.86,2.85.63,1.12,1.2,1.17,1.44,2.72.99,6.48-9.75,11.36-9.75,6.97,0-.69-.03-10.86,0-11.54.13-1.2.73-2.01,1.52-2.89.86-.95,1.97-1.71,2.75-2.73h0c.47.54,1.1,1.15,1.68,1.79h0ZM7.86,13.41h0s-.05-.05-.08-.08l.08.08h0ZM19.7,22.66v-8.75c0-1.84-2.28-2.51-3.85-2.65-.13.27-.26.54-.42.8.81,1.43.66,3.9.08,6.02-.52,1.95-1.65,3.24-1.81,5.26-.47,5.14,6,1.93,6-.68h0Z"/>
      <path class="cls-2" d="M15.8,12.07c.79,1.61.52,4.18,0,6.09-.21.83-.55,1.53-.86,2.21-.42.96-.84,1.86-.94,3-.08,1.08.13,1.83.66,2.17.58.38,1.57.27,2.62-.28,1.26-.67,2.12-1.74,2.12-2.6v-8.75c0-1.77-2.46-2.21-3.35-2.32-.08.16-.16.32-.24.48h0ZM7.81,13.79c-.45.49-.92.93-1.39,1.36-.39.36-.81.73-1.15,1.11-.71.8-1.34,1.57-1.44,2.71-.03.56-.03,8.13-.03,10.61v.9c0,.58.21.97.63,1.18,1.05.53,3.17-.08,5.06-1.44,2.54-1.82,3.83-4.32,3.46-6.67-.13-.93-.39-1.25-.76-1.69-.18-.24-.42-.52-.65-.92-.42-.77-.58-1.57-.73-2.34-.05-.2-.08-.39-.13-.59-.26-1.22-.63-1.77-1.44-2.7h0c-.29-.33-.6-.65-.89-.96-.18-.19-.37-.38-.52-.56h0ZM5.34,32.47c-.45,0-.86-.08-1.18-.25-.45-.22-.97-.7-.97-1.73v-.9c0-2.75-.03-10.07,0-10.65.16-1.35.84-2.23,1.62-3.09.37-.41.79-.79,1.18-1.15.55-.49,1.1-1,1.55-1.57.05-.07.13-.12.24-.12.08-.01.16.03.24.09h0s.08.08.08.08c0,.02.03.03.03.05.21.22.42.45.66.68.29.31.6.65.92.98h0c.84.95,1.26,1.61,1.57,2.97.05.2.08.4.13.6.16.76.29,1.47.68,2.16.21.36.39.6.58.84.31.37.6.72.79,1.4.16-1.05.55-1.92.94-2.77.29-.66.6-1.34.81-2.11.52-1.86.79-4.35-.03-5.79-.05-.09-.05-.2,0-.3.13-.26.26-.52.42-.79.05-.11.16-.18.29-.17,1.99.17,4.11,1.04,4.11,2.95v8.75c0,1.26-1.2,2.48-2.44,3.14-1.26.68-2.46.77-3.25.25-.26-.17-.55-.46-.73-.93-.26,2.05-1.57,4.07-3.72,5.61-1.54,1.11-3.22,1.74-4.51,1.74Z"/>
      <polygon class="cls-3" points="28.95 29.18 23.66 26.13 7.91 35.23 13.18 38.28 28.95 29.18"/>
      <path class="cls-2" d="M8.52,35.23l4.66,2.7,15.14-8.74-4.66-2.7-15.14,8.74h0ZM13.18,38.58c-.05,0-.11-.01-.16-.04l-5.27-3.05c-.1-.05-.16-.15-.16-.26s.05-.21.16-.27l15.75-9.1c.11-.06.21-.06.31,0l5.29,3.05c.08.06.13.16.13.27s-.05.21-.13.27l-15.77,9.1c-.05.03-.11.04-.16.04Z"/>
      <path class="cls-4" d="M13.18,38.28l-5.27-3.05v4.41l5.27,3.05v-4.41Z"/>
      <path class="cls-2" d="M8.2,39.46l4.66,2.7v-3.7l-4.66-2.69v3.7h0ZM13.18,43c-.05,0-.11-.01-.16-.04l-5.27-3.05c-.1-.06-.16-.16-.16-.27v-4.41c0-.11.05-.21.16-.27.08-.05.21-.05.31,0l5.27,3.05c.1.06.16.15.16.27v4.41c0,.11-.05.21-.16.27-.05.03-.11.04-.16.04Z"/>
      <path class="cls-3" d="M28.95,33.59v-4.41l-15.77,9.1v4.41l15.77-9.1Z"/>
      <path class="cls-2" d="M13.49,38.45v3.7l15.14-8.74v-3.7l-15.14,8.74h0ZM13.18,43c-.05,0-.11-.01-.16-.04-.08-.05-.13-.15-.13-.27v-4.41c0-.11.05-.21.13-.27l15.77-9.1c.08-.06.21-.06.31,0,.08.06.13.16.13.27v4.41c0,.11-.05.21-.13.27l-15.77,9.1c-.05.03-.11.04-.16.04Z"/>
      <polygon class="cls-1" points="32.44 24.05 23.06 18.63 .31 31.76 9.69 37.19 32.44 24.05"/>
      <path class="cls-2" d="M.92,31.76l8.78,5.07,22.14-12.78-8.78-5.07L.92,31.76h0ZM9.69,37.49c-.05,0-.11-.01-.16-.04L.16,32.03c-.1-.05-.16-.16-.16-.27s.05-.21.16-.27l22.74-13.13c.08-.06.21-.06.31,0l9.38,5.42c.08.06.16.16.16.26s-.08.21-.16.27l-22.74,13.13c-.05.03-.1.04-.16.04Z"/>
      <polygon class="cls-4" points="9.69 37.19 .31 31.76 .31 35.86 9.69 41.28 9.69 37.19"/>
      <path class="cls-2" d="M.6,35.68l8.78,5.07v-3.38L.6,32.3v3.38h0ZM9.69,41.59c-.05,0-.11-.01-.16-.04L.16,36.12c-.1-.06-.16-.16-.16-.27v-4.09c0-.11.05-.21.16-.27.08-.06.21-.06.29,0l9.41,5.42c.11.05.16.16.16.27v4.09c0,.11-.05.21-.16.27-.05.03-.1.04-.16.04Z"/>
      <polygon class="cls-3" points="9.69 41.28 32.44 28.15 32.44 24.05 9.69 37.19 9.69 41.28"/>
      <path class="cls-2" d="M10.01,37.36v3.38l22.11-12.78v-3.38l-22.11,12.77h0ZM9.69,41.59c-.05,0-.11-.01-.16-.04-.08-.05-.16-.16-.16-.27v-4.09c0-.11.08-.21.16-.27l22.74-13.13c.1-.06.21-.06.31,0,.08.06.16.16.16.26v4.09c0,.11-.08.21-.16.27l-22.74,13.13c-.05.03-.1.04-.16.04Z"/>
      <path class="cls-3" d="M10.3,24.41c.55,0,1-.45,1-1s-.45-1-1-1-1,.45-1,1,.45,1,1,1Z"/>
      <path class="cls-2" d="M10.3,22.73c-.37,0-.68.31-.68.69s.31.69.68.69c.39,0,.71-.31.71-.69s-.31-.69-.71-.69h0ZM10.3,24.72c-.71,0-1.31-.59-1.31-1.31s.6-1.3,1.31-1.3,1.31.58,1.31,1.3-.58,1.31-1.31,1.31Z"/>
      <path class="cls-2" d="M7.28,28.04h0c-.18-.01-.31-.16-.31-.33l.31-4.92c0-.17.16-.3.31-.29.18,0,.31.15.31.32l-.31,4.92c0,.16-.16.29-.31.29Z"/>
      <path class="cls-2" d="M17.89,21.78c-.16,0-.29-.13-.29-.29l-.18-3.36c0-.17.13-.31.29-.32.16-.01.31.12.31.29l.18,3.36c0,.17-.13.31-.29.32h-.03Z"/>
      <polygon class="cls-1" points="13.41 30.42 10.56 28.77 7.18 30.72 10.03 32.38 13.41 30.42"/>
      <path class="cls-2" d="M7.78,30.72l2.25,1.3,2.78-1.6-2.25-1.3-2.78,1.6h0ZM10.03,32.69c-.05,0-.11-.01-.16-.04l-2.86-1.65c-.11-.06-.16-.16-.16-.27s.05-.21.16-.27l3.38-1.95c.1-.06.21-.06.31,0l2.86,1.65c.1.05.16.16.16.27s-.05.21-.16.27l-3.38,1.95c-.05.03-.1.04-.16.04Z"/>
      <polygon class="cls-3" points="10.03 32.38 7.18 30.72 7.18 31.76 10.03 33.41 10.03 32.38"/>
      <path class="cls-2" d="M7.47,31.58l2.25,1.3v-.32l-2.25-1.3v.32h0ZM10.03,33.72c-.05,0-.11-.01-.16-.04l-2.86-1.65c-.11-.06-.16-.16-.16-.27v-1.03c0-.11.05-.21.16-.27.08-.06.21-.06.29,0l2.88,1.65c.11.06.16.16.16.27v1.04c0,.11-.05.21-.16.26-.05.03-.1.04-.16.04Z"/>
      <polygon class="cls-1" points="13.41 31.46 13.41 30.42 10.03 32.38 10.03 33.41 13.41 31.46"/>
      <path class="cls-2" d="M13.41,31.46h.03-.03ZM10.35,32.56v.32l2.75-1.6v-.32l-2.75,1.6h0ZM10.03,33.72c-.05,0-.11-.01-.16-.04-.08-.06-.16-.16-.16-.26v-1.04c0-.11.08-.21.16-.27l3.38-1.95c.1-.06.24-.06.31,0,.1.05.16.16.16.27v1.03c0,.11-.05.21-.16.27l-3.38,1.96c-.05.03-.1.04-.16.04Z"/>
      <path class="cls-2" d="M9.41,31.41c-.16,0-.31-.14-.31-.3-.03-4.29.18-6.72.73-7.64.1-.15.29-.19.45-.11.13.09.18.28.1.42-.47.8-.71,3.26-.66,7.32,0,.17-.13.31-.31.31h0Z"/>
      <path class="cls-2" d="M10.56,30.13c-.1,0-.21-.05-.26-.15-.08-.15-.03-.34.1-.42l.1-.06c.16-.09.34-.04.42.11.08.15.05.33-.1.42l-.11.06c-.05.03-.1.04-.16.04Z"/>
      <path class="cls-1" d="M19.62,21.95c-.1-.03-.26-.03-.39,0h0c-.13.03-.26.1-.37.18l-3.98,3.36c-.1.09-.13.18-.13.26.03.08.11.15.21.19l7.44,2.87c.13.04.29.04.42,0h0c.13-.03.26-.09.37-.18l3.98-3.44c.11-.08.13-.18.11-.26,0-.08-.08-.15-.21-.19l-7.44-2.8Z"/>
      <path class="cls-2" d="M15.14,25.67l7.39,2.85s.13.01.21,0c.11-.02.18-.06.24-.1l3.93-3.39-7.36-2.77c-.08-.01-.16-.01-.24,0-.11.02-.18.06-.24.1l-3.93,3.31h0ZM22.61,29.14c-.11,0-.21-.01-.29-.04l-7.47-2.88c-.21-.06-.37-.21-.39-.41-.05-.19.03-.39.21-.55l4.01-3.37c.11-.11.29-.2.5-.24.18-.04.37-.04.52,0,.03,0,.03,0,.03,0l7.44,2.8c.21.07.37.22.42.41.03.19-.03.4-.21.55l-4.01,3.44c-.11.11-.29.2-.47.25-.1.02-.18.03-.29.03Z"/>
      <path class="cls-1" d="M10.95,25.61l5.21-3.01c.24-.14.63-.14.86,0l5.4,3.12.34,2.12c-1.26,1.2-2.38,1.72-3.88,2.58-.26.14-.6.14-.89,0l-7.07-4.08c-.34-.2-.45-.46.03-.74Z"/>
      <path class="cls-2" d="M10.95,25.61h.03-.03ZM10.95,26s.05.04.13.09l7.07,4.08c.18.09.42.09.6,0,.26-.15.52-.3.79-.45,1.07-.61,1.94-1.09,2.88-1.97l-.29-1.82-5.27-3.04c-.16-.09-.42-.08-.55,0l-5.21,3h0c-.08.06-.13.1-.16.12h0ZM18.44,30.85c-.21,0-.39-.05-.58-.14l-7.1-4.08c-.29-.17-.45-.38-.45-.63s.16-.46.47-.65l5.21-3.01c.34-.19.84-.19,1.18,0l5.4,3.12c.08.05.13.13.16.22l.34,2.13c0,.1-.03.2-.11.27-1.05,1-2.02,1.55-3.14,2.17-.24.14-.5.29-.79.45-.18.1-.39.15-.6.15Z"/>
      <path class="cls-1" d="M20.96,26.02l.79-.46c.39-.23.66-.33.73.17l.29,2.12c-.65-.99-1.13-1.34-1.81-1.83Z"/>
      <path class="cls-2" d="M21.51,26.05c.26.2.52.41.79.69l-.13-.97v-.08c-.05.02-.13.06-.26.13l-.39.23h0ZM22.77,28.16c-.1,0-.21-.05-.26-.14-.63-.95-1.07-1.27-1.73-1.75-.08-.06-.13-.16-.13-.26s.05-.2.16-.25l.79-.46c.26-.16.58-.31.84-.18.29.13.34.47.34.58l.31,2.12c.03.14-.08.28-.21.33-.03.02-.05.02-.11.02Z"/>
      <path class="cls-2" d="M15.01,27.81c-.11,0-.21-.06-.26-.15-.08-.15-.05-.34.11-.42l3.01-1.73c.13-.08.31-.04.42.11.08.15.03.34-.13.42l-2.99,1.73c-.05.03-.1.04-.16.04Z"/>
      <path class="cls-2" d="M15.98,28.43c-.1,0-.21-.06-.29-.15-.08-.15-.03-.34.13-.42l3.8-2.2c.16-.09.34-.04.42.11.08.15.03.34-.11.42l-3.83,2.2c-.05.03-.1.04-.13.04Z"/>
      <path class="cls-2" d="M13.23,26.73c-.1,0-.21-.05-.26-.15-.08-.14-.03-.33.13-.42l1-.57c.13-.09.31-.04.39.11.1.15.05.34-.11.42l-1,.57c-.05.03-.11.04-.16.04Z"/>
      <path class="cls-2" d="M18.26,29.63c-.1,0-.21-.06-.26-.15-.08-.15-.03-.34.1-.42l1.78-1.03c.16-.08.34-.03.42.11.08.15.03.34-.11.42l-1.78,1.03c-.05.03-.1.04-.16.04Z"/>
      <path class="cls-3" d="M17.5,24.62c-.37.22-1,.22-1.39,0-.37-.22-.37-.58,0-.8.39-.22,1.02-.22,1.39,0,.37.22.37.58,0,.8Z"/>
      <path class="cls-2" d="M16.82,23.97c-.21,0-.39.04-.55.12-.08.06-.13.11-.13.13,0,.02.05.08.13.13.29.17.79.16,1.07,0h0c.1-.06.13-.12.13-.13,0-.01-.03-.07-.13-.13-.13-.08-.34-.12-.52-.12h0ZM16.82,25.09c-.31,0-.63-.07-.84-.21-.29-.16-.45-.4-.45-.66s.16-.5.45-.66c.47-.27,1.21-.27,1.68,0,.26.16.45.4.45.66s-.18.51-.45.66c-.24.14-.55.21-.84.21Z"/>
      <path class="cls-2" d="M11.74,10.07c-.05,0-.08-.01-.13-.03l-1.99-.88c-.16-.07-.23-.25-.16-.41.08-.16.26-.23.42-.16l1.99.88c.16.07.21.25.16.41-.05.12-.18.18-.29.18Z"/>
      <path class="cls-1" d="M14.67,7.82c.73-.43,1.39-.81,2.2-1.26l.16-.1c.16-.09.21-.12.24.11v1.13c0,.14-.05.31-.13.45h0c-.08.14-.18.27-.31.34l-1.47.84c-.18.11-.34.12-.47.05-.13-.07-.21-.23-.21-.45v-1.12Z"/>
      <path class="cls-2" d="M14.99,7.99v.94c0,.11.03.17.05.18,0,0,.08,0,.18-.05l1.44-.84c.08-.04.16-.13.21-.23.05-.1.1-.21.1-.3v-.85l-1.99,1.15h0ZM15.06,9.73c-.13,0-.24-.03-.34-.09-.24-.13-.37-.39-.37-.71v-1.12c0-.11.05-.21.16-.27l2.36-1.36c.13-.07.29-.16.47-.07.21.1.24.32.24.41v1.16c0,.19-.05.41-.18.6-.11.2-.26.36-.42.46l-1.47.84c-.16.09-.31.14-.45.14Z"/>
      <path class="cls-1" d="M14.41,7.97v1.12c0,.22-.08.46-.18.68-.13.21-.31.4-.5.51l-1.44.84c-.13.07-.26.08-.34.03h0c-.08-.05-.13-.15-.13-.3v-1.13c0-.22.05-.28.21-.38l.21-.12c.76-.45,1.47-.84,2.17-1.26Z"/>
      <path class="cls-2" d="M12.13,9.65v1.2l1.44-.84c.13-.08.26-.22.37-.4.11-.18.18-.37.18-.52v-.59l-1.94,1.11s-.05.03-.05.03h0ZM12.08,11.48c-.11,0-.18-.02-.29-.07-.18-.11-.29-.31-.29-.57v-1.11c0-.38.13-.53.37-.66l2.38-1.38c.11-.06.21-.06.32,0,.1.06.16.16.16.27v1.12c0,.26-.1.56-.26.83-.16.27-.34.5-.58.63l-1.47.84c-.1.07-.24.1-.34.1Z"/>
    </g>
  </g>
</svg>