<?xml version="1.0" encoding="UTF-8"?>
<svg id="Layer_2" data-name="Layer 2" xmlns="http://www.w3.org/2000/svg" viewBox="0 0 23.4 43.34" fill="currentColor">
  <defs>
    <style>
      .cls-1 {
        fill: #fff;
      }

      .cls-1, .cls-2, .cls-3, .cls-4 {
        fill-rule: evenodd;
      }

      .cls-2 {
        fill: #1a87c7;
      }

      .cls-3 {
        fill: #bdedf8;
      }

      .cls-4 {
        fill: #66ceef;
      }
    </style>
  </defs>
  <g id="_Layer_" data-name="&amp;lt;Layer&amp;gt;">
    <g>
      <path class="cls-4" d="M3.04,11.05l8.17-4.73h0S19.49,1.55,19.49,1.55c.03-.01.05-.03.05-.04.03-.01.05-.03.05-.04.03-.02.03-.03.03-.05h0s.03-.03.05-.05h0s.03-.04.03-.06h0s0-.04.03-.06v-.12,1.99L4.61,11.87c-.5.28-1.13.42-1.65.12-.42-.24-.21-.76,0-.89.24-.13.05-.03.08-.04h0Z"/>
      <path class="cls-2" d="M3.15,11.34l-.03.02s-.1.12-.1.22c0,.04.03.1.1.14.52.3,1.15-.02,1.34-.12L19.44,2.94v-1L3.25,11.28s0,.02-.03.02h0s-.03.02-.05.03c0,0-.03,0-.03.01h0ZM3.62,12.46c-.29,0-.58-.07-.81-.21-.26-.15-.39-.4-.39-.68,0-.3.16-.61.39-.75.03,0,.03-.02.05-.02,0,0,.03-.01.03-.02L19.34,1.28l.1.02-.03-.08h.03s0-.09,0-.09v-.02c0-.17.13-.3.29-.3.18,0,.31.14.31.31v1.99c0,.11-.05.21-.16.27L4.74,12.13c-.37.22-.76.33-1.13.33Z"/>
      <path class="cls-3" d="M5.37,42.8c-1,.28-1.81.3-2.8.12-1-.24-2.23-.76-2.28-1.96V11.44c.05,1.01.89,1.5,1.76,1.82,1.15.34,2.18.35,3.33.02.6-.21.89-.41,1.47-.74L22.85,3.29l.05-.04.05-.05.03-.05.05-.05.03-.06.03-.06v-.13,29.66l-.03.06-.03.06-.05.05-.03.05-.05.04-.05.04-15.93,9.2c-.58.34-.92.57-1.55.79Z"/>
      <path class="cls-2" d="M.6,12.79v28.17c.03.78.71,1.34,2.04,1.66.94.17,1.73.14,2.62-.11.5-.17.81-.35,1.23-.6l.26-.17,15.93-9.2.26.19-.21-.25.34.03-.29-.12-.03-28.72L6.76,12.94c-.45.25-.76.43-1.28.62-1.23.35-2.33.34-3.51-.02-.45-.16-.97-.39-1.36-.76h0ZM3.78,43.34c-.42,0-.81-.04-1.26-.12C.47,42.74.03,41.73,0,40.97V11.44c0-.17.13-.31.29-.31H.29c.18,0,.31.13.31.29.03.68.5,1.16,1.55,1.54,1.05.32,2.04.32,3.12.01.47-.17.76-.33,1.18-.57l.24-.14L22.69,3.02l.08.07v-.13h0s.03-.1.03-.1c0-.16.13-.29.31-.29.16,0,.29.13.29.29v29.61s-.03.13-.03.14c-.03.01-.05.09-.05.1,0,.01-.03.08-.03.09-.03.01-.05.07-.08.08,0,.01-.05.07-.05.08-.03,0-.08.06-.11.07,0,0-.05.04-.05.05l-16.22,9.36c-.42.25-.76.46-1.31.65h-.03c-.58.17-1.13.25-1.68.25Z"/>
      <path class="cls-3" d="M10.06,10.68l-3.07,1.76c-.73.43-1.15.74-2.02.94-1.2.28-2.62.15-3.67-.44-.97-.57-1.26-1.49-.73-2.22.29-.43.76-.64,1.2-.89l2.31-1.33h0L17.95.47c.37-.21.81-.21,1.18,0l.37.22c.16.09.24.25.24.43s-.08.34-.24.43l-8.28,4.77h0s-7.78,4.5-7.78,4.5c-.26.15-.58.28-.66.52-.1.21-.08.48.18.64.52.3,1.15.15,1.65-.12L21.3,2.21c.37-.21.79-.21,1.15,0l.39.22c.16.09.24.25.24.43s-.08.34-.24.43l-12.79,7.39Z"/>
      <path class="cls-2" d="M18.55.62c-.16,0-.29.04-.45.12L1.71,10.21c-.37.2-.66.37-.89.68-.16.24-.24.52-.16.79.08.37.37.73.81.99.94.53,2.25.69,3.46.41.66-.15,1.02-.38,1.57-.7l3.41-1.97h0l12.79-7.39c.05-.04.08-.09.08-.16s-.03-.13-.08-.16l-.39-.22c-.26-.16-.58-.16-.84,0L4.74,12.13c-.66.39-1.39.44-1.94.12-.42-.25-.47-.69-.31-1.03.13-.3.42-.46.65-.59l.13-.07L19.34,1.28c.08-.04.1-.09.1-.16s-.03-.13-.1-.16l-.37-.22c-.16-.08-.29-.12-.42-.12h0ZM3.72,13.83c-.92,0-1.83-.22-2.54-.63-.63-.35-1.02-.85-1.15-1.39-.08-.45,0-.89.29-1.27.29-.42.71-.64,1.1-.86l2.51-1.45L17.79.2c.47-.27,1.02-.27,1.47,0l.39.22c.24.14.39.4.39.69s-.16.55-.39.69L3.43,11.17c-.16.09-.34.19-.39.29-.05.18.05.24.08.26.52.3,1.15-.02,1.34-.12L21.14,1.94c.47-.27,1-.27,1.47,0l.39.22c.24.15.39.41.39.69s-.16.55-.39.7L6.81,12.91c-.55.33-1,.59-1.76.77-.45.1-.89.15-1.34.15Z"/>
      <path class="cls-1" d="M20.49,2.69l-.76-.43L2.94,11.97l.03.02c.5.31,1.15.15,1.65-.12L20.49,2.69Z"/>
      <path class="cls-2" d="M19.73,2.62L3.78,11.83c.31-.04.58-.17.68-.23L19.86,2.69l-.13-.07h0ZM3.59,12.47c-.29,0-.55-.07-.79-.21-.08-.05-.16-.17-.16-.28s.03-.22.13-.27L19.6,2c.08-.06.21-.06.29,0l.76.43c.08.05.16.16.16.26,0,.11-.08.21-.16.27L4.74,12.13c-.37.22-.76.33-1.15.33Z"/>
      <path class="cls-4" d="M4.19,43.02V13.49c-1.34.09-3.83-.32-3.9-2.06v29.52c.08,1.74,2.57,2.15,3.9,2.06Z"/>
      <path class="cls-2" d="M.6,12.8v28.16c.03.37.18.69.47.96.63.58,1.81.79,2.8.81V13.81c-.94,0-2.36-.19-3.22-.96,0-.02-.03-.03-.05-.05h0ZM3.85,43.34c-.92,0-2.36-.2-3.2-.96-.42-.38-.65-.85-.65-1.4V11.44c0-.17.13-.31.29-.31H.29c.18,0,.31.13.31.29.03.38.18.7.47.97.71.64,2.1.86,3.09.79.08,0,.18.02.23.08.05.06.11.14.11.23v29.53c0,.16-.13.3-.29.31-.1,0-.24,0-.37,0Z"/>
      <path class="cls-2" d="M16.43,12.64c-.52,0-1.13.18-1.76.53h0c-2.17,1.24-3.88,4.26-3.88,6.87,0,1.16.39,2.05,1.07,2.45.68.4,1.62.3,2.62-.27,2.2-1.26,4.01-4.37,4.01-6.95,0-1.13-.39-1.98-1.07-2.38-.29-.17-.63-.25-1-.25h0ZM12.81,23.36c-.47,0-.86-.11-1.26-.32-.86-.51-1.36-1.6-1.36-2.98,0-2.82,1.83-6.07,4.19-7.41h0c1.23-.71,2.44-.81,3.35-.27.89.52,1.36,1.55,1.36,2.92,0,2.77-1.94,6.13-4.3,7.48-.71.4-1.39.6-1.99.6Z"/>
      <path class="cls-2" d="M14.6,22.81c-.26,0-.52-.11-.73-.32-.68-.62-1.1-2.09-1.1-3.94,0-2.39.6-4.69,1.52-5.84.1-.13.31-.15.45-.05.13.11.16.3.05.43-.65.8-1.39,2.71-1.39,5.45,0,1.97.45,3.09.86,3.48.13.11.24.17.37.15.16-.02.32.11.34.28,0,.17-.13.32-.29.33-.03,0-.05,0-.08,0Z"/>
      <path class="cls-2" d="M14.65,22.8c-.08,0-.16-.03-.21-.09-.13-.12-.13-.31-.03-.43.76-.75,1.49-2.74,1.49-5.49,0-1.63-.26-2.81-.79-3.31-.16-.17-.39-.29-.58-.26h0c-.18,0-.31-.14-.31-.31s.16-.3.31-.31c.37,0,.73.15,1.02.43.63.63.97,1.93.97,3.75,0,2.58-.65,4.9-1.68,5.93-.05.06-.13.09-.21.09Z"/>
      <path class="cls-2" d="M10.48,20.36c-.11,0-.21-.06-.26-.15-.08-.15-.03-.34.13-.42,1.21-.71,2.46-1.42,3.72-2.14,1.52-.86,3.04-1.74,4.58-2.63.13-.08.31-.04.42.11.08.14.03.34-.13.42-1.52.9-3.07,1.77-4.59,2.64-1.26.72-2.49,1.43-3.72,2.14-.05.03-.1.04-.16.04Z"/>
      <path class="cls-2" d="M10.82,30.51l-1.18.67c-.05.03-.1.13-.1.19v1.44l1.15-.67c.05-.03.13-.13.13-.19v-1.44h0ZM9.22,35.28c-.16,0-.29-.14-.29-.31v-3.6c0-.28.16-.58.42-.72l1.34-.79c.18-.1.37-.1.5-.02.16.09.24.24.24.44v1.67c0,.28-.18.58-.42.72l-1.47.85v1.45c0,.17-.13.31-.32.31Z"/>
      <path class="cls-2" d="M12.24,33.55c-.18,0-.31-.14-.31-.31v-3.6c0-.28.18-.58.42-.72l1.34-.78c.18-.1.37-.11.5-.02.16.08.24.24.24.43v3.6c0,.17-.16.31-.31.31s-.31-.14-.31-.31v-3.37l-1.15.66s-.11.13-.11.19v3.6c0,.17-.13.31-.29.31Z"/>
      <path class="cls-2" d="M12.24,31.92c-.11,0-.21-.06-.26-.16-.08-.15-.03-.34.1-.42l1.89-1.07c.13-.08.31-.04.39.11.11.15.05.34-.1.42l-1.86,1.08c-.05.03-.1.04-.16.04Z"/>
      <path class="cls-2" d="M15.17,31.9c-.1,0-.21-.05-.26-.15-.08-.15-.05-.34.1-.42l1.65-.94s.11-.13.11-.19v-1.09l-1.18.67c-.16.09-.34.1-.5.02-.13-.08-.21-.24-.21-.44v-1.42c0-.28.16-.58.42-.72l1.57-.92c.16-.09.34-.04.42.11.1.15.05.34-.11.42l-1.6.92c-.05.03-.11.13-.11.19v1.19l1.44-.82c.08-.05.21-.06.29,0,.1.05.16.15.16.27v1.62c0,.28-.16.58-.42.72l-1.62.94c-.05.03-.1.04-.16.04Z"/>
      <path class="cls-2" d="M18.16,30.17c-.11,0-.21-.05-.26-.15-.11-.15-.05-.33.1-.42l1.62-.95c.05-.03.11-.13.11-.19v-1.09l-1.15.67c-.16.1-.34.1-.5.02-.13-.08-.24-.24-.24-.43v-1.42c0-.28.18-.59.42-.72l1.6-.92c.16-.08.34-.03.42.11.08.15.05.33-.1.42l-1.6.92c-.05.03-.1.13-.1.19v1.19l1.42-.82c.1-.05.21-.05.31,0,.11.05.16.16.16.27v1.62c0,.28-.18.58-.42.72l-1.62.94c-.05.03-.1.04-.16.04Z"/>
    </g>
  </g>
</svg>