<?xml version="1.0" encoding="UTF-8"?>
<svg id="Layer_2" data-name="Layer 2" xmlns="http://www.w3.org/2000/svg" viewBox="0 0 50.16 47.55" fill="currentColor">
  <defs>
    <style>
      .cls-1 {
        fill: #fff;
      }

      .cls-1, .cls-2, .cls-3, .cls-4 {
        fill-rule: evenodd;
      }

      .cls-2 {
        fill: #1a87c7;
      }

      .cls-3 {
        fill: #bdedf8;
      }

      .cls-4 {
        fill: #66ceef;
      }
    </style>
  </defs>
  <g id="_Layer_" data-name="&amp;lt;Layer&amp;gt;">
    <g>
      <path class="cls-1" d="M40.67,15.37c4.25-.24,3.12,1.23,2.88,7.94-.24,6.61,1.52,6.9,4.95,9.42.45-.37.9-.75,1.35-1.13-3.63-2.02-4.8-1.14-5.25-7.43-.51-7.06,1.07-11.71-4-10.55l.07,1.75Z"/>
      <path class="cls-2" d="M41.43,15.04c.97,0,1.72.14,2.17.61.26.26.41.6.49,1.04-.09-1.23-.32-2.13-.89-2.58-.47-.38-1.22-.45-2.29-.24l.04,1.18c.16,0,.32,0,.47,0h0ZM44.16,18.33c-.02.49-.06,1.03-.11,1.66-.07.96-.15,2.03-.19,3.33-.21,5.64,1,6.48,3.64,8.33.31.22.64.44.99.69l.81-.69c-.51-.27-.97-.48-1.39-.68-2.29-1.06-3.24-1.5-3.62-6.78-.12-1.7-.13-3.25-.13-4.62,0-.43,0-.85,0-1.24h0ZM48.5,33.04c-.06,0-.13-.02-.18-.06-.41-.3-.8-.57-1.17-.83-2.66-1.86-4.13-2.88-3.91-8.86.05-1.3.13-2.39.2-3.35.15-2.09.24-3.35-.27-3.87-.36-.36-1.08-.47-2.48-.4-.08,0-.16-.03-.22-.08-.06-.05-.1-.13-.1-.22l-.07-1.75c0-.15.09-.28.24-.31,1.42-.32,2.39-.23,3.06.31,1.18.93,1.18,3.03,1.18,5.95,0,1.36,0,2.9.13,4.58.36,4.92,1.09,5.26,3.27,6.27.53.24,1.13.52,1.83.91.09.05.15.14.16.24.01.11-.03.2-.11.27l-1.35,1.13c-.06.05-.13.07-.2.07Z"/>
      <path class="cls-3" d="M32.96,38.08l-2.8-1.61-.21-.16c-2.23-2.22-4.36-9.41-4.37-12.39.02-2.27.03-4.3-.27-6.57-.9-6.59-1.76-15,6.45-16.97.91-.12,1.36-.13,2.21.27l5.6,3.24c-1.7-.8-3.34-.05-4.83.85-1.68,1.16-2.68,2.22-3.76,3.95-.93,1.71-1.31,2.87-1.4,4.82.02,1.11.29,2.43.45,3.53.27,1.84.48,3.62.5,5.48-.02,1.82-.02,3.59.04,5.4.09,2.11.24,4.1.62,6.18.14.7.29,1.3.51,1.98.3.81.57,1.48,1.28,2Z"/>
      <path class="cls-2" d="M32.61.62c-.23,0-.49.03-.81.07-7.56,1.82-7.2,9.21-6.18,16.63.3,2.28.29,4.36.27,6.58,0,2.94,2.12,10.06,4.28,12.2l.18.13,1.38.79c-.13-.27-.24-.55-.34-.83-.2-.63-.36-1.23-.52-2.03-.41-2.26-.54-4.41-.62-6.22-.06-1.73-.05-3.42-.03-5.42-.02-1.9-.25-3.74-.49-5.44-.04-.27-.09-.55-.13-.84-.15-.92-.3-1.87-.32-2.73.09-1.95.44-3.15,1.44-4.98,1.14-1.8,2.18-2.89,3.86-4.06,1.04-.63,2.14-1.17,3.28-1.23l-4.02-2.32c-.48-.23-.81-.3-1.2-.3h0ZM32.96,38.39c-.05,0-.11-.02-.15-.04l-3.04-1.79c-2.32-2.3-4.48-9.55-4.49-12.64.01-2.32.03-4.3-.27-6.53-.78-5.68-2.09-15.2,6.68-17.31.97-.13,1.48-.14,2.41.29l5.62,3.24c.14.09.19.26.12.41-.08.15-.25.21-.4.14-1.56-.73-3.1-.04-4.54.83-1.59,1.1-2.58,2.14-3.66,3.85-.95,1.74-1.27,2.83-1.35,4.68.02.8.17,1.73.31,2.62.05.29.09.57.13.84.25,1.72.49,3.58.5,5.53-.02,2-.02,3.68.03,5.39.08,1.79.21,3.91.61,6.14.16.76.31,1.34.5,1.94.3.82.55,1.39,1.17,1.85.13.09.17.28.08.42-.06.09-.16.14-.26.14Z"/>
      <path class="cls-1" d="M40.96,7.14c0,1.6-.51,5.26-.24,9.83.56,9.59-1.19,18.12-4.1,19.81-1.72.99-.61.35-2.13,1.23-3.07,1.77-4.13-5.7-3.96-15.14.07-3.67-.94-7.92-.94-9.36,0-7.88,11.38-14.24,11.38-6.36Z"/>
      <path class="cls-2" d="M38.16,3.84c-3.19,0-8.27,4.43-8.27,9.67,0,.51.14,1.46.31,2.55.29,1.89.68,4.48.63,6.81-.15,8.42.71,14.01,2.32,14.96.35.21.74.18,1.19-.09l2.13-1.22c2.81-1.62,4.5-10.01,3.95-19.52-.19-3.21,0-5.9.14-7.87.06-.84.1-1.5.1-1.98,0-2.15-.86-3.3-2.49-3.3h0ZM33.62,38.57c-.33,0-.6-.1-.79-.22-2.5-1.47-2.71-10.34-2.62-15.5.04-2.28-.35-4.83-.63-6.7-.18-1.17-.32-2.09-.32-2.65,0-5.57,5.46-10.28,8.89-10.28.93,0,1.71.33,2.24.96.58.68.87,1.68.87,2.96,0,.5-.05,1.17-.11,2.02-.13,1.96-.32,4.63-.13,7.8.58,9.88-1.22,18.33-4.26,20.09l-2.13,1.23c-.38.22-.72.3-1.01.3Z"/>
      <path class="cls-3" d="M40.42,8.44c0,1.45-.42,4.76-.2,8.91.15,2.73-.21,4.57-.1,5.88.35,4.31-7.07,9.88-8.34,4.24-.24-1.04-.14-2.62-.1-4.8.06-3.32-.79-7.16-.79-8.47,0-7.14,9.54-12.91,9.54-5.76Z"/>
      <path class="cls-2" d="M38.07,5.48c-2.66,0-6.89,4-6.89,8.73,0,.47.12,1.32.26,2.31.24,1.71.57,4.06.53,6.17l-.02,1.17c-.04,1.54-.06,2.75.12,3.56.36,1.58,1.24,2.3,2.57,2.1,2.34-.36,5.38-3.58,5.17-6.26-.05-.6,0-1.29.05-2.09.06-1.02.14-2.29.06-3.82-.15-2.9,0-5.34.12-7.13.05-.77.09-1.35.09-1.79,0-1.35-.35-2.96-2.04-2.96h0ZM34.23,30.17c-1.38,0-2.37-.93-2.75-2.63-.2-.89-.17-2.07-.13-3.7l.02-1.16c.03-2.07-.29-4.38-.53-6.08-.15-1.05-.26-1.89-.26-2.4,0-5.07,4.61-9.35,7.5-9.35.8,0,1.46.3,1.92.89.49.62.73,1.52.73,2.7,0,.45-.04,1.06-.09,1.82-.11,1.77-.27,4.2-.11,7.07.08,1.56,0,2.85-.06,3.87-.05.78-.09,1.45-.04,2,.24,3.03-3.05,6.52-5.69,6.92-.18.03-.34.04-.51.04Z"/>
      <path class="cls-4" d="M34.16,29.86c-1.09-.03-2.01-.71-2.39-2.38-.24-1.04-.14-2.62-.1-4.8.06-3.32-.79-7.16-.79-8.47,0-3.63,2.46-6.89,4.88-8.3-.13,1.9-.39,4.92-.18,8.51.35,6.05-.22,11.69-1.42,15.45Z"/>
      <path class="cls-2" d="M35.41,6.48c-2.17,1.5-4.23,4.5-4.23,7.72,0,.47.12,1.32.26,2.31.24,1.71.57,4.06.53,6.17l-.02,1.17c-.04,1.54-.06,2.75.12,3.56.29,1.29.92,2.01,1.87,2.12,1.18-3.85,1.67-9.33,1.33-15.11-.19-3.2,0-5.9.14-7.87v-.07h0ZM34.16,30.17h0c-.79-.02-2.18-.38-2.69-2.63-.2-.89-.17-2.07-.13-3.7l.02-1.16c.03-2.07-.29-4.38-.53-6.08-.15-1.05-.26-1.89-.26-2.4,0-3.7,2.53-7.12,5.04-8.57.1-.06.22-.05.32.01.1.05.15.16.14.28l-.04.68c-.14,1.95-.32,4.63-.14,7.79.35,5.97-.17,11.64-1.43,15.57-.04.13-.16.22-.29.22Z"/>
      <path class="cls-1" d="M30.25,18.67c-3.36,1.74-2,3.92-3.63,7.35-1.96,4.13-1.79,5.87-2.29,10.4.32.15.65.3.97.44.63-4.61.47-5.73,2.63-9.87,1.27-2.44.07-4.83,2.54-6.05-.08-.76-.15-1.51-.22-2.27Z"/>
      <path class="cls-2" d="M24.66,36.23l.4.18c.07-.55.13-1.03.19-1.5.39-3.1.57-4.51,2.41-8.07.47-.91.59-1.81.69-2.69.17-1.32.32-2.58,1.79-3.4l-.15-1.59c-1.63.97-1.83,2.09-2.1,3.61-.18.97-.38,2.09-.99,3.37-1.59,3.35-1.75,5.04-2.04,8.12-.06.6-.12,1.24-.2,1.96h0ZM25.3,37.18s-.09-.01-.13-.03l-.97-.45c-.12-.05-.19-.18-.18-.31.09-.8.16-1.51.22-2.18.29-3.03.47-4.88,2.1-8.33.57-1.21.77-2.27.94-3.21.3-1.67.56-3.1,2.83-4.28.09-.05.2-.04.29,0,.09.05.15.14.16.24l.22,2.27c.01.12-.06.24-.17.3-1.35.67-1.48,1.71-1.64,3.03-.11.89-.23,1.88-.76,2.89-1.8,3.45-1.96,4.74-2.35,7.86-.07.57-.15,1.2-.25,1.91-.01.09-.07.18-.16.23-.05.03-.1.04-.15.04Z"/>
      <path class="cls-1" d="M27.55,22.32c1.65.03,3.79-1.02,4.54,1.03.54,1.49.09,5.8-.51,7.64-1.92,5.82-3.16,5.26-6.76,5.66-.23.27-.46.54-.68.81,4.52.73,6.32,1.78,8.71-6.22.56-1.87,1.01-6.36.5-8.12-.94-3.23-3.81-3.17-5.86-2.53.02.58.04,1.16.07,1.74Z"/>
      <path class="cls-2" d="M24.71,37.24c.18.03.35.06.51.09,3.68.63,5.2.9,7.32-6.18.54-1.8.99-6.26.5-7.95-.31-1.06-.86-1.81-1.65-2.24-1.19-.64-2.69-.4-3.6-.15l.04,1.2c.32-.02.65-.06,1.01-.11,1.35-.19,2.88-.41,3.52,1.35.58,1.59.09,6.01-.51,7.84-1.78,5.39-3.09,5.51-5.95,5.76-.3.03-.61.05-.94.09l-.26.31h0ZM27.67,38.23c-.74,0-1.58-.13-2.55-.29-.33-.06-.68-.12-1.04-.18-.11,0-.2-.09-.24-.19-.04-.11-.02-.22.05-.3l.69-.82c.05-.06.12-.11.2-.11.38-.04.74-.07,1.08-.1,2.75-.24,3.77-.33,5.42-5.34.58-1.76,1.04-6.01.52-7.44-.44-1.2-1.37-1.16-2.86-.95-.46.07-.95.13-1.39.13-.16,0-.3-.13-.3-.3l-.06-1.75c0-.14.08-.27.22-.3,1.18-.37,2.88-.63,4.3.13.94.51,1.59,1.38,1.95,2.61.53,1.82.07,6.4-.5,8.3-1.67,5.58-3.08,6.91-5.47,6.91Z"/>
      <path class="cls-3" d="M19.92,45.12l-2.8-1.62-.22-.16c-2.23-2.22-4.36-9.4-4.37-12.39.01-2.27.03-4.3-.27-6.56-.9-6.58-1.76-15,6.45-16.97.91-.12,1.36-.12,2.21.27l5.6,3.23c-1.35-.63-2.45-.3-3.76.25-1.95,1.01-3.17,2.16-4.45,3.95-1.17,1.85-1.68,3.21-1.78,5.43.01.52.08,1.03.16,1.55.31,2.16.65,4.23.76,6.41.1,2.41-.01,4.8.1,7.24.1,1.84.25,3.57.58,5.39.23,1.13.46,2.07,1,3.09.26.42.4.61.79.9Z"/>
      <path class="cls-2" d="M19.56,7.66c-.23,0-.49.03-.81.07-7.56,1.83-7.21,9.21-6.18,16.63.3,2.28.29,4.37.28,6.58,0,2.95,2.12,10.06,4.28,12.2l.18.13,1.4.81c-.46-.97-.67-1.88-.87-2.87-.36-2.01-.5-3.87-.59-5.43-.06-1.27-.05-2.54-.05-3.76,0-1.14,0-2.32-.04-3.48-.09-1.84-.35-3.59-.62-5.43l-.14-.94c-.08-.56-.15-1.08-.16-1.6.1-2.18.56-3.59,1.83-5.6,1.4-1.95,2.67-3.08,4.57-4.05.72-.3,1.42-.57,2.17-.63l-4.02-2.32c-.48-.23-.81-.31-1.2-.31h0ZM19.92,45.43c-.05,0-.11-.02-.15-.04l-3.04-1.79c-2.32-2.3-4.49-9.55-4.49-12.64.01-2.32.02-4.29-.27-6.52-.78-5.69-2.09-15.21,6.68-17.31.97-.13,1.48-.15,2.41.29l5.62,3.24c.15.09.2.27.12.41-.08.15-.26.21-.41.14-1.17-.55-2.14-.33-3.51.26-1.78.91-2.99,2-4.32,3.84-1.19,1.89-1.63,3.22-1.72,5.27.01.47.08.96.15,1.44l.14,1c.28,1.86.54,3.61.63,5.48.04,1.17.04,2.37.04,3.51,0,1.22,0,2.49.05,3.73.09,1.54.22,3.37.58,5.35.22,1.04.44,1.99.97,3,.24.38.35.53.7.79.13.09.16.28.08.42-.06.09-.16.14-.26.14Z"/>
      <path class="cls-1" d="M27.92,14.19c0,1.6-.51,5.25-.24,9.82.56,9.59-1.19,18.12-4.1,19.81-1.72,1-.61.36-2.13,1.23-3.07,1.77-4.14-5.69-3.96-15.14.07-3.67-.94-7.91-.94-9.35,0-7.89,11.38-14.26,11.38-6.36Z"/>
      <path class="cls-2" d="M25.11,10.88c-3.19,0-8.27,4.43-8.27,9.68,0,.51.14,1.46.31,2.55.29,1.89.68,4.47.63,6.81-.15,8.41.71,14.01,2.32,14.95.35.21.74.18,1.19-.08l2.13-1.23c2.81-1.62,4.5-10.01,3.95-19.52-.19-3.2,0-6.01.14-7.87.06-.84.1-1.5.1-1.96,0-1.15-.24-2.01-.72-2.56-.42-.5-1.02-.75-1.77-.75h0ZM20.58,45.62c-.33,0-.59-.11-.79-.23-2.5-1.47-2.71-10.34-2.62-15.5.04-2.28-.35-4.83-.63-6.7-.18-1.16-.32-2.08-.32-2.64,0-5.58,5.46-10.28,8.89-10.28.93,0,1.71.33,2.24.96.58.67.87,1.67.87,2.96,0,.5-.05,1.17-.11,2.01-.14,1.96-.32,4.63-.14,7.8.58,9.88-1.22,18.33-4.26,20.09l-2.13,1.23c-.38.22-.72.3-1.01.3Z"/>
      <path class="cls-3" d="M27.38,15.48c0,1.45-.42,4.76-.2,8.91.15,2.74-.21,4.57-.1,5.89.35,4.3-7.07,9.88-8.34,4.25-.24-1.05-.14-2.62-.11-4.8.06-3.33-.79-7.17-.79-8.48,0-7.15,9.54-12.92,9.54-5.77Z"/>
      <path class="cls-2" d="M25.03,12.52c-2.66,0-6.89,4-6.89,8.73,0,.46.12,1.32.26,2.31.24,1.71.57,4.05.53,6.16l-.03,1.16c-.03,1.54-.06,2.75.12,3.56.36,1.58,1.24,2.31,2.57,2.1,2.35-.36,5.39-3.57,5.17-6.26-.05-.59,0-1.29.04-2.09.06-1.02.14-2.28.06-3.81-.16-2.9,0-5.45.12-7.13.05-.76.08-1.36.08-1.79,0-1.35-.35-2.96-2.04-2.96h0ZM21.18,37.21c-1.38,0-2.37-.93-2.75-2.62-.2-.89-.17-2.08-.13-3.72l.02-1.16c.03-2.06-.29-4.38-.53-6.07-.15-1.06-.26-1.89-.26-2.4,0-5.07,4.61-9.35,7.5-9.35.8,0,1.46.31,1.92.89.49.61.73,1.52.73,2.69,0,.45-.04,1.06-.09,1.83-.11,1.77-.27,4.2-.11,7.07.08,1.56,0,2.85-.06,3.89-.05.77-.09,1.44-.05,1.99.25,3.03-3.05,6.52-5.69,6.92-.17.04-.34.04-.51.04Z"/>
      <path class="cls-4" d="M21.12,36.91c-1.1-.03-2.01-.71-2.39-2.38-.24-1.05-.14-2.62-.11-4.8.06-3.33-.79-7.17-.79-8.48,0-3.63,2.46-6.9,4.88-8.31-.13,1.91-.39,4.93-.18,8.51.35,6.06-.21,11.69-1.42,15.46Z"/>
      <path class="cls-2" d="M22.37,13.53c-2.17,1.5-4.23,4.49-4.23,7.73,0,.46.12,1.32.26,2.31.24,1.71.57,4.05.53,6.16l-.03,1.16c-.03,1.54-.06,2.75.12,3.56.29,1.29.92,2.01,1.87,2.12,1.18-3.85,1.67-9.34,1.33-15.11-.19-3.22,0-6.02.14-7.89v-.05h0ZM21.12,37.21h0c-.79-.02-2.18-.38-2.68-2.62-.2-.89-.17-2.08-.13-3.72l.02-1.16c.03-2.06-.29-4.38-.53-6.07-.15-1.06-.26-1.89-.26-2.4,0-3.71,2.53-7.12,5.04-8.58.1-.05.22-.05.32,0,.1.06.15.16.14.28l-.04.66c-.14,1.96-.32,4.64-.14,7.81.35,5.96-.18,11.63-1.43,15.56-.04.13-.16.22-.29.22Z"/>
      <path class="cls-1" d="M17.21,25.72c-9.01-1.89-10.11,2.66-8.87,10.21,1.37,8.34.1,7.77-8.03,10.77.32.18.65.37.97.54,8.68-3.24,9.36-2.75,7.91-11.49-1.28-7.72.54-8.94,8.23-7.77l-.22-2.26Z"/>
      <path class="cls-2" d="M1.05,46.76l.26.15c.6-.22,1.16-.43,1.68-.63,6.93-2.55,7.2-2.65,5.9-10.48-.67-4.04-.47-6.18.71-7.37,1.34-1.37,3.96-1.33,7.48-.82l-.16-1.64c-3.51-.7-5.87-.42-7.22.87-1.52,1.45-1.85,4.24-1.07,9.04,1.27,7.74.17,8.12-5.92,10.28-.52.18-1.08.38-1.67.6h0ZM1.28,47.55s-.1-.02-.15-.04l-.97-.54c-.11-.06-.17-.18-.16-.3.01-.12.09-.22.2-.26.84-.31,1.61-.58,2.31-.83,6.07-2.15,6.7-2.37,5.52-9.6-.82-5.02-.44-7.98,1.25-9.59,1.53-1.46,4.14-1.78,7.99-.97.13.03.23.14.24.27l.22,2.27c.01.09-.02.19-.09.25-.07.07-.16.09-.26.08-4.23-.64-6.29-.49-7.34.58-1.01,1.02-1.17,3.06-.55,6.83,1.36,8.15.85,8.55-6.29,11.17-.56.2-1.16.42-1.81.67-.03,0-.07.02-.11.02Z"/>
    </g>
  </g>
</svg>