<?xml version="1.0" encoding="UTF-8"?>
<svg id="Layer_2" data-name="Layer 2" xmlns="http://www.w3.org/2000/svg" viewBox="0 0 41.55 43.56" fill="currentColor">
  <defs>
    <style>
      .cls-1 {
        fill: #fff;
      }

      .cls-1, .cls-2, .cls-3, .cls-4 {
        fill-rule: evenodd;
      }

      .cls-2 {
        fill: #1a87c7;
      }

      .cls-3 {
        fill: #bdedf8;
      }

      .cls-4 {
        fill: #66ceef;
      }
    </style>
  </defs>
  <g id="_Layer_" data-name="&amp;lt;Layer&amp;gt;">
    <g>
      <path class="cls-1" d="M22.81,3.75c.09-.17.15-.36.18-.55.03-.18.05-.38.04-.58-.02-.66-.32-1.25-.78-1.67-.45-.42-1.07-.66-1.73-.63-.67.03-1.26.32-1.68.77-.42.46-.66,1.08-.64,1.74,0,.2.04.39.1.57.05.18.12.36.21.51v.02c.45.76.57,1.76.43,2.63-.17.57-.54,1.51-.83,2-.84,1.44-1.83,3.15-.39,9.03.26,1.05.37,2.4,1.43,2.95,1.26.65,3.24.57,4.44-.19,1.06-.68,1.02-2.04,1.19-3.24.88-5.83-.24-7.42-1.18-8.78-.33-.46-.78-1.36-.99-1.91-.21-.87-.18-1.85.19-2.66Z"/>
      <path class="cls-2" d="M20.63.62h-.1c-.56.03-1.08.27-1.46.68-.38.42-.57.96-.56,1.52,0,.18.04.34.09.5.04.16.1.31.19.45.45.79.62,1.83.46,2.84-.17.61-.56,1.58-.86,2.1-.82,1.43-1.77,3.04-.36,8.8.03.17.08.34.11.52.19.9.39,1.83,1.16,2.23,1.17.61,3.02.53,4.12-.18.76-.48.87-1.41.98-2.4.02-.21.05-.43.08-.64.86-5.71-.2-7.22-1.13-8.55-.36-.5-.82-1.43-1.03-1.99-.26-1.03-.18-2.08.2-2.89h0c.07-.16.13-.31.16-.48.03-.17.04-.33.04-.5-.03-.57-.27-1.08-.69-1.46-.39-.36-.9-.56-1.41-.56h0ZM21.18,21.29c-.78,0-1.54-.16-2.16-.48-1.02-.53-1.26-1.66-1.47-2.65-.03-.18-.08-.35-.11-.5-1.47-6-.42-7.81.43-9.25.28-.49.63-1.41.79-1.93.12-.84-.02-1.74-.39-2.4-.11-.2-.2-.4-.25-.6-.06-.2-.1-.42-.1-.64-.03-.73.22-1.42.71-1.96.49-.53,1.15-.84,1.89-.87.73-.01,1.43.23,1.96.72.54.49.85,1.15.88,1.89.01.22,0,.43-.04.65-.04.21-.11.42-.21.62-.32.69-.38,1.58-.17,2.45.19.48.63,1.36.95,1.82.95,1.36,2.13,3.04,1.23,9-.03.2-.05.41-.08.62-.11,1.03-.25,2.21-1.25,2.84-.71.45-1.66.69-2.59.69Z"/>
      <path class="cls-3" d="M21.18.37c-.21-.05-.43-.07-.65-.06-.67.03-1.26.32-1.68.77-.42.46-.66,1.08-.64,1.74,0,.2.04.39.1.57.05.18.12.36.21.51v.02c.45.76.57,1.76.43,2.63-.17.57-.54,1.51-.83,2-.84,1.44-1.83,3.15-.39,9.03.26,1.05.37,2.4,1.43,2.95.8.42,1.89.54,2.89.37-.58-.05-1.13-.19-1.59-.42-1.05-.56-1.16-1.9-1.43-2.96-1.43-5.88-.44-7.58.39-9.02.29-.5.66-1.43.82-2,.14-.87.02-1.86-.42-2.63h0c-.09-.18-.16-.35-.22-.53-.05-.18-.08-.37-.09-.57-.03-.67.21-1.29.63-1.74.27-.3.63-.53,1.03-.66Z"/>
      <path class="cls-2" d="M20.05.7c-.37.11-.7.31-.97.6-.38.42-.57.96-.56,1.52,0,.18.04.34.09.5.04.16.1.31.19.45.45.79.62,1.83.46,2.84-.17.61-.56,1.58-.86,2.1-.82,1.43-1.77,3.04-.36,8.8.03.17.08.34.11.52.19.9.39,1.83,1.16,2.23.2.1.42.18.65.25-.72-.59-.92-1.55-1.11-2.42-.04-.18-.07-.34-.12-.5-1.46-6.01-.41-7.81.43-9.26.28-.48.64-1.4.79-1.93.13-.83,0-1.74-.39-2.39-.11-.2-.19-.39-.25-.6-.06-.21-.09-.43-.11-.64-.03-.72.23-1.42.71-1.95.05-.04.09-.09.13-.13h0ZM21.18,21.28c-.8,0-1.56-.16-2.16-.47-1.02-.53-1.26-1.66-1.47-2.65-.03-.18-.08-.35-.11-.5-1.47-6-.42-7.81.43-9.25.28-.49.63-1.41.79-1.93.12-.84-.02-1.74-.39-2.4-.11-.2-.2-.4-.25-.6-.06-.2-.1-.42-.1-.64-.03-.73.22-1.42.71-1.96.49-.53,1.15-.84,1.89-.87.25,0,.5.02.74.07.13.03.24.15.24.29,0,.14-.08.26-.21.3-.35.11-.65.31-.9.58-.38.42-.58.95-.56,1.51,0,.18.03.34.08.5.05.16.11.31.19.45.46.79.63,1.83.46,2.84-.17.61-.55,1.57-.85,2.1-.84,1.43-1.77,3.03-.37,8.8.04.16.08.34.12.51.19.9.39,1.84,1.15,2.23.41.22.91.35,1.48.39.15.02.27.14.28.3,0,.16-.11.29-.26.32-.3.04-.62.07-.92.07Z"/>
      <path class="cls-1" d="M19.63.53c-.28.13-.53.31-.74.54-.21.23-.37.5-.48.78-.1.29-.16.59-.14.91.01.31.09.62.22.89.13.28.31.54.54.75.22.2.5.37.78.48.29.09.59.15.91.14.31-.02.62-.1.88-.22.29-.13.54-.32.75-.55.21-.23.36-.49.48-.78.1-.28.15-.59.14-.9-.02-.32-.09-.62-.22-.9-.13-.28-.32-.53-.55-.74-.23-.21-.48-.37-.78-.48-.28-.1-.59-.16-.9-.14-.32,0-.63.09-.9.22Z"/>
      <path class="cls-2" d="M19.76.81c-.24.11-.46.27-.64.47-.18.2-.32.43-.42.69-.09.24-.13.51-.12.78.02.27.08.53.19.77.11.24.27.46.47.64.2.19.43.33.69.42.25.09.51.14.78.12.27,0,.53-.07.78-.18.25-.11.46-.28.65-.48.18-.2.32-.42.41-.68.1-.25.14-.52.12-.79,0-.27-.07-.53-.18-.77-.11-.24-.28-.46-.48-.64-.2-.18-.42-.32-.68-.42-.25-.09-.52-.13-.79-.12-.27,0-.53.08-.77.19h0ZM20.62,5.32c-.31,0-.62-.05-.91-.16-.33-.12-.63-.3-.89-.54-.26-.24-.47-.52-.61-.84-.15-.31-.23-.65-.25-1.01,0-.35.04-.7.16-1.02.11-.33.3-.63.54-.89.23-.26.52-.46.83-.62h0c.32-.14.66-.23,1.01-.24.35-.01.69.04,1.03.17.33.11.62.3.89.54.26.24.47.52.62.84.15.31.23.65.24,1.01.02.35-.03.69-.15,1.02-.12.33-.3.63-.54.89-.24.26-.52.47-.84.62-.31.15-.65.22-1.01.24h-.11Z"/>
      <path class="cls-4" d="M22.57,6.15c.05,1.3-3.21,1.54-3.56.3l-.02-.16c.03-.42.02-.84-.05-1.25h-.01c.31,1.23,3.38,1.08,3.58-.16-.03.43-.02.85.06,1.26Z"/>
      <path class="cls-2" d="M19.31,5.92c0,.13,0,.26-.02.4l.02.11c.13.43,1.07.62,1.86.49.55-.09,1.09-.35,1.09-.73-.02-.13-.03-.26-.05-.39-.39.25-.92.38-1.43.41-.5.03-1.03-.05-1.47-.28h0ZM20.67,7.57c-.89,0-1.76-.32-1.97-1.03l-.03-.22c.05-.45.03-.85-.04-1.23-.03-.16.07-.32.24-.35.16-.04.32.06.36.22.12.45.84.65,1.51.62.68-.03,1.39-.29,1.46-.74.03-.16.17-.28.35-.26.16.03.28.17.27.34-.04.37-.03.78.05,1.17v.04c.04.68-.58,1.22-1.6,1.38-.2.04-.4.05-.6.05Z"/>
      <path class="cls-4" d="M18.94,5.04l.03.24.05,1.22c.15.38.62.6,1,.69.21-.56.27-.74.29-1.31-.51-.05-1.24-.28-1.38-.84h.01Z"/>
      <path class="cls-2" d="M19.33,6.43c.08.17.29.3.5.39.1-.26.14-.43.16-.68-.2-.04-.45-.11-.69-.24l.03.53h0ZM20.02,7.5s-.05,0-.07-.01c-.3-.07-1-.29-1.23-.88,0-.03-.02-.07-.02-.1l-.09-1.43h0v-.02c-.02-.16.1-.31.25-.34.17-.03.31.07.36.23.1.37.63.56,1.11.62.16.02.27.16.27.31-.01.64-.1.86-.3,1.42-.05.12-.16.2-.29.2Z"/>
      <path class="cls-1" d="M32.92,10.4c.14-.13.26-.28.36-.45.1-.16.18-.34.24-.53.21-.63.14-1.29-.14-1.84-.28-.55-.77-.99-1.4-1.2-.63-.21-1.29-.14-1.84.14-.56.28-1,.76-1.21,1.4-.06.19-.1.38-.11.57-.01.19-.01.38.02.56v.02c.15.88-.09,1.83-.53,2.61-.36.48-1.03,1.23-1.47,1.58-1.29,1.05-2.82,2.3-3.55,8.31-.13,1.08-.5,2.38.3,3.27.95,1.05,2.83,1.67,4.22,1.38,1.23-.26,1.67-1.56,2.26-2.62,2.87-5.15,2.38-7.03,1.98-8.63-.14-.55-.24-1.55-.25-2.14.11-.89.49-1.8,1.12-2.42Z"/>
      <path class="cls-2" d="M31.22,6.57c-.33,0-.65.08-.95.23-.51.25-.88.69-1.05,1.22-.05.16-.09.33-.09.5-.02.17,0,.33.02.5.15.89-.06,1.92-.57,2.82-.37.5-1.08,1.28-1.55,1.66-1.28,1.04-2.72,2.22-3.44,8.11-.02.17-.04.35-.07.53-.14.91-.28,1.85.3,2.49.88.98,2.63,1.56,3.92,1.29.89-.18,1.3-1.02,1.76-1.89.1-.19.2-.38.3-.57,2.81-5.04,2.35-6.82,1.95-8.4-.16-.58-.26-1.62-.26-2.22.12-1.06.57-2.01,1.21-2.64h0c.12-.12.23-.25.31-.39.09-.14.16-.29.22-.46.17-.53.13-1.11-.13-1.61-.25-.49-.69-.87-1.22-1.04-.22-.08-.44-.11-.66-.11h0ZM27.07,26.6c-1.35,0-2.85-.61-3.7-1.56-.77-.85-.6-1.99-.45-3,.03-.18.05-.34.07-.51.74-6.14,2.36-7.45,3.65-8.51.44-.36,1.1-1.08,1.42-1.53.42-.73.6-1.63.48-2.38-.03-.22-.04-.43-.02-.64.02-.22.06-.43.13-.64.23-.69.7-1.25,1.36-1.58.64-.32,1.38-.38,2.08-.16.69.23,1.25.71,1.58,1.37.33.65.38,1.38.16,2.07-.07.21-.16.41-.28.59-.11.18-.24.36-.41.51-.54.53-.91,1.35-1.02,2.23,0,.51.09,1.5.23,2.04.42,1.6.93,3.6-2,8.86-.11.18-.2.37-.3.55-.47.93-1.01,1.97-2.18,2.21-.26.06-.53.09-.81.09Z"/>
      <path class="cls-3" d="M32.57,6.67c-.18-.12-.38-.21-.59-.29-.63-.21-1.29-.14-1.84.14-.56.28-1,.76-1.21,1.4-.06.19-.1.38-.11.57-.01.19-.01.38.02.56v.02c.15.88-.09,1.83-.53,2.61-.36.48-1.03,1.23-1.47,1.58-1.29,1.05-2.82,2.3-3.55,8.31-.13,1.08-.5,2.38.3,3.27.6.67,1.58,1.17,2.58,1.36-.53-.24-1-.58-1.34-.96-.8-.89-.42-2.18-.3-3.26.72-6.01,2.25-7.26,3.54-8.31.44-.36,1.12-1.11,1.47-1.58.43-.77.68-1.74.53-2.62h0c-.02-.19-.03-.38-.02-.57,0-.18.05-.37.11-.57.21-.63.65-1.12,1.2-1.4.36-.19.78-.28,1.2-.26Z"/>
      <path class="cls-2" d="M31.22,6.57c-.33,0-.65.08-.95.23-.51.25-.88.69-1.05,1.22-.05.16-.09.33-.09.5-.02.17,0,.33.02.5.15.89-.06,1.92-.57,2.82-.37.5-1.08,1.28-1.55,1.66-1.28,1.04-2.72,2.22-3.44,8.11-.02.17-.04.35-.07.53-.14.91-.28,1.85.3,2.49.15.17.32.32.52.47-.47-.81-.32-1.78-.19-2.65.03-.17.05-.35.07-.51.74-6.13,2.36-7.45,3.65-8.51.44-.35,1.1-1.09,1.42-1.52.42-.74.6-1.63.48-2.38-.03-.23-.04-.44-.02-.65.02-.21.06-.43.13-.63.23-.7.71-1.25,1.36-1.58.05-.03.11-.05.16-.08-.06,0-.11,0-.18,0h0ZM26.17,26.51s-.04,0-.06,0c-1.1-.22-2.12-.76-2.75-1.46-.77-.85-.6-1.99-.45-3,.03-.18.05-.34.07-.51.74-6.14,2.36-7.45,3.65-8.51.44-.36,1.1-1.08,1.42-1.53.42-.73.6-1.63.48-2.38-.03-.22-.04-.43-.02-.64.02-.22.06-.43.13-.64.23-.69.7-1.25,1.36-1.58.64-.32,1.38-.38,2.08-.16.23.08.46.19.66.32.12.08.17.23.13.36-.04.13-.16.24-.31.21-.34,0-.72.06-1.04.23-.5.25-.88.69-1.05,1.23-.05.17-.09.33-.1.5-.02.16,0,.32.02.48.15.91-.06,1.93-.56,2.82-.38.52-1.07,1.29-1.55,1.67-1.27,1.04-2.72,2.22-3.42,8.11-.03.17-.05.35-.08.53-.14.91-.28,1.85.29,2.49.3.34.73.64,1.24.88.14.07.21.23.15.37-.04.13-.15.22-.29.22Z"/>
      <path class="cls-1" d="M31.07,6.28c-.31.03-.61.11-.89.25-.27.14-.52.33-.72.57-.19.23-.35.5-.45.8-.1.3-.13.61-.11.91.02.3.11.61.24.88.14.28.33.52.56.73.24.19.5.35.8.44.31.11.62.14.91.11.31-.03.61-.11.89-.24.27-.14.52-.33.72-.57.2-.23.35-.5.45-.8.1-.3.13-.61.11-.9-.03-.31-.11-.61-.25-.89-.14-.28-.33-.52-.56-.72-.23-.2-.5-.36-.8-.45-.3-.1-.61-.13-.91-.11Z"/>
      <path class="cls-2" d="M31.09,6.58c-.27.03-.53.09-.78.22-.23.12-.45.29-.62.5-.18.2-.31.43-.39.7-.09.26-.11.52-.09.79.02.27.09.52.22.76.12.24.28.46.49.63.21.18.44.31.69.39.26.08.53.11.79.09.27-.03.53-.09.77-.22.24-.12.45-.28.63-.49.17-.2.3-.44.39-.69.09-.25.12-.52.1-.79-.02-.26-.09-.52-.22-.77-.11-.24-.29-.45-.49-.63-.21-.18-.44-.3-.69-.38-.26-.09-.52-.12-.79-.1h0ZM31.25,11.28c-.29,0-.57-.05-.84-.13-.33-.11-.63-.28-.9-.51-.26-.23-.48-.51-.64-.82-.16-.31-.25-.65-.28-1-.02-.35.02-.7.13-1.02.1-.34.28-.64.5-.91.24-.27.51-.48.82-.64.32-.16.65-.25,1-.28h0c.35-.03.7.02,1.03.12.33.11.63.28.9.51.27.23.48.5.64.82.16.31.25.65.28,1,.03.35-.02.7-.12,1.03-.11.34-.29.64-.51.91-.22.26-.5.48-.82.63-.31.16-.65.25-1,.28-.07.01-.14.01-.2.01Z"/>
      <path class="cls-4" d="M31.84,12.57c-.41,1.23-3.54.31-3.44-.97l.04-.17c.18-.36.32-.77.39-1.18h0c-.14,1.26,2.78,2.2,3.41,1.11-.19.38-.33.79-.39,1.2Z"/>
      <path class="cls-2" d="M31.84,12.57h0,0ZM28.88,11.21c-.05.12-.11.24-.17.36l-.02.1c-.03.46.78.96,1.57,1.12.54.1,1.14.05,1.27-.3.03-.13.05-.26.09-.38-.45.1-1,.03-1.48-.12-.46-.15-.95-.42-1.27-.77h0ZM30.75,13.46c-.19,0-.39-.02-.61-.07-1.05-.21-2.12-.91-2.06-1.82l.05-.21c.19-.42.32-.8.38-1.17.05-.14.22-.26.37-.22.15.03.26.15.24.3-.05.46.56.9,1.2,1.11.63.21,1.4.22,1.62-.17.08-.15.27-.2.41-.12.15.08.21.26.13.41-.17.34-.28.73-.36,1.11,0,.02,0,.03,0,.04-.18.51-.68.8-1.38.8Z"/>
      <path class="cls-4" d="M28.82,10.26l-.05.24-.38,1.16c0,.41.37.78.69,1,.4-.45.52-.6.73-1.13-.46-.24-1.05-.7-.99-1.28h0Z"/>
      <path class="cls-2" d="M28.7,11.69c.03.19.17.38.34.54.18-.21.28-.35.38-.57-.23-.14-.41-.29-.56-.47l-.17.5h0ZM29.08,12.96c-.06,0-.12-.02-.17-.05-.24-.16-.83-.63-.83-1.25,0-.03,0-.07.02-.1l.42-1.37s0-.03.02-.05h0c.05-.15.21-.24.37-.2.15.04.25.18.23.34-.04.38.39.75.82.96.14.08.21.24.15.39-.23.58-.39.77-.78,1.22-.06.07-.15.11-.24.11Z"/>
      <path class="cls-1" d="M7.23,8.74c-.04-.18-.11-.36-.19-.54-.08-.17-.18-.34-.3-.49-.43-.52-1.02-.81-1.63-.88-.61-.06-1.25.11-1.76.54-.51.42-.82,1.02-.88,1.62-.06.62.11,1.25.54,1.77.12.16.27.29.42.4.15.11.31.21.49.28h0c.82.36,1.51,1.08,1.92,1.86.21.56.47,1.53.54,2.09.19,1.65.43,3.61,5.1,7.45.83.69,1.74,1.7,2.91,1.5,1.4-.23,2.94-1.49,3.43-2.81.44-1.18-.42-2.25-.99-3.32-2.8-5.18-4.65-5.79-6.21-6.3-.54-.17-1.44-.62-1.95-.95-.68-.56-1.25-1.36-1.43-2.24Z"/>
      <path class="cls-2" d="M4.85,7.14c-.48,0-.95.17-1.33.48-.44.36-.7.86-.76,1.43-.06.56.1,1.1.46,1.54.11.13.23.25.36.36.13.09.27.17.43.24.84.36,1.59,1.09,2.08,2,.22.59.5,1.59.57,2.2.19,1.63.42,3.49,4.99,7.25.14.11.27.23.41.35.69.6,1.42,1.23,2.26,1.09,1.3-.21,2.73-1.38,3.2-2.62.31-.84-.16-1.64-.65-2.49-.11-.19-.22-.37-.32-.57-2.74-5.08-4.49-5.65-6.04-6.15-.58-.19-1.51-.66-2.01-.98-.83-.67-1.4-1.55-1.58-2.43h0c-.04-.17-.09-.33-.16-.48-.08-.15-.16-.3-.28-.43-.36-.43-.86-.7-1.42-.75-.07,0-.15-.02-.22-.02h0ZM14.08,24.7c-.97,0-1.74-.67-2.42-1.27-.14-.11-.27-.23-.4-.33-4.77-3.92-5.01-6-5.21-7.66-.07-.55-.33-1.5-.53-2.02-.39-.74-1.05-1.38-1.75-1.69-.21-.09-.39-.19-.56-.32-.18-.13-.33-.28-.47-.45-.46-.56-.67-1.27-.6-1.99.07-.73.43-1.38.98-1.84.57-.46,1.29-.67,2-.6.72.07,1.38.42,1.83.98.14.17.26.36.35.55.1.19.16.4.21.62.16.75.65,1.5,1.34,2.07.44.27,1.32.71,1.84.89,1.57.51,3.54,1.16,6.39,6.46.1.17.21.36.31.54.52.9,1.12,1.91.69,3.03-.54,1.44-2.16,2.76-3.67,3.01-.12.03-.23.03-.35.03Z"/>
      <path class="cls-3" d="M3.89,7.03c-.19.09-.38.2-.56.35-.51.42-.82,1.02-.88,1.62-.06.62.11,1.25.54,1.77.12.16.27.29.42.4.15.11.31.21.49.28h0c.82.36,1.51,1.08,1.92,1.86.21.56.47,1.53.54,2.09.19,1.65.43,3.61,5.1,7.45.83.69,1.74,1.7,2.91,1.5.89-.14,1.83-.7,2.53-1.44-.49.31-1.02.53-1.52.61-1.17.2-2.08-.81-2.91-1.5-4.68-3.83-4.91-5.8-5.1-7.45-.07-.57-.33-1.54-.55-2.1-.41-.78-1.1-1.5-1.91-1.85h-.01c-.17-.08-.34-.17-.49-.29-.15-.11-.3-.24-.42-.4-.42-.52-.6-1.16-.54-1.77.04-.4.18-.8.43-1.15Z"/>
      <path class="cls-2" d="M3.18,7.97c-.23.3-.38.67-.42,1.07-.06.56.1,1.1.46,1.54.11.13.23.25.36.36.13.09.27.17.43.24.84.36,1.59,1.09,2.08,2,.22.59.5,1.59.57,2.2.19,1.63.42,3.49,4.99,7.25.14.11.27.23.41.35.69.6,1.42,1.23,2.26,1.09.23-.04.44-.1.68-.18-.93-.04-1.67-.69-2.34-1.27-.13-.11-.26-.23-.39-.33-4.76-3.92-5.01-5.99-5.21-7.66-.07-.55-.33-1.5-.53-2.02-.39-.74-1.05-1.38-1.75-1.68-.21-.1-.39-.2-.57-.33-.17-.13-.33-.27-.47-.45-.46-.56-.67-1.27-.6-1.99.01-.06.02-.12.03-.18h0ZM14.08,24.7c-.97,0-1.74-.67-2.42-1.27-.14-.11-.27-.23-.4-.33-4.77-3.92-5.01-6-5.21-7.66-.07-.55-.33-1.5-.53-2.02-.39-.74-1.05-1.38-1.75-1.69-.21-.09-.39-.19-.56-.32-.18-.13-.33-.28-.47-.45-.46-.56-.67-1.27-.6-1.99.07-.73.43-1.38.98-1.84.19-.16.41-.29.64-.38.12-.06.28-.03.36.09.09.1.09.26,0,.37-.21.3-.33.63-.36,1-.06.56.1,1.11.46,1.54.11.13.23.25.36.36.13.09.27.17.43.24.83.36,1.59,1.08,2.08,2,.23.59.5,1.59.57,2.2.19,1.63.42,3.48,4.99,7.25.14.1.27.23.41.35.7.6,1.43,1.24,2.26,1.09.45-.08.94-.27,1.41-.57.13-.09.31-.05.41.06.1.12.09.3-.02.41-.77.81-1.78,1.38-2.7,1.53-.12.03-.23.03-.35.03Z"/>
      <path class="cls-1" d="M2.75,8.08c-.15.28-.23.57-.27.88-.03.3,0,.62.09.92.09.29.23.56.43.81.2.24.45.43.7.58.28.15.57.24.89.26.3.03.62,0,.91-.09.29-.09.57-.22.81-.43.24-.2.44-.44.58-.7.15-.28.23-.57.27-.88.03-.3,0-.62-.09-.91-.09-.29-.23-.57-.43-.81-.2-.25-.44-.44-.71-.58-.27-.15-.57-.24-.88-.27-.31-.03-.62,0-.91.09-.29.09-.56.22-.81.43-.25.2-.44.44-.58.7Z"/>
      <path class="cls-2" d="M2.75,8.08h.01-.01ZM4.82,7.15c-.2,0-.4.03-.59.09-.25.08-.5.2-.7.37-.21.17-.38.38-.51.62h0c-.13.24-.21.5-.23.77-.03.27,0,.54.08.79.08.26.21.5.37.7.17.21.38.38.62.51.24.12.5.2.76.23.27.03.54,0,.8-.08.25-.08.49-.2.69-.37.22-.17.38-.37.51-.62.12-.24.2-.5.24-.76.02-.27,0-.53-.08-.79-.08-.26-.21-.5-.38-.7-.18-.21-.37-.38-.61-.5-.24-.13-.5-.21-.76-.24-.07,0-.14,0-.21,0h0ZM4.83,11.86c-.09,0-.18,0-.27-.01-.35-.03-.68-.14-.99-.3-.31-.17-.58-.39-.8-.66-.22-.27-.39-.58-.5-.91-.1-.34-.13-.69-.1-1.04.04-.36.14-.69.31-1,.15-.3.38-.57.65-.8.28-.22.58-.38.92-.49.33-.1.68-.14,1.03-.1.35.04.69.14.99.3.3.16.57.39.8.66.23.28.39.58.49.91.1.34.14.69.1,1.04-.03.36-.14.69-.3,1-.17.3-.38.57-.66.8-.27.23-.58.39-.92.49-.25.08-.5.12-.76.12Z"/>
      <path class="cls-4" d="M8.47,10.82c.83,1-1.64,3.15-2.67,2.38l-.12-.12c-.21-.35-.48-.69-.79-.96h-.01c1,.8,3.36-1.17,2.78-2.27.22.36.5.69.8.98Z"/>
      <path class="cls-2" d="M5.73,12.59c.08.11.15.22.22.34l.08.07c.36.27,1.23-.15,1.78-.73.38-.4.66-.93.43-1.24-.09-.09-.19-.18-.28-.28-.16.44-.51.86-.9,1.18-.37.3-.86.58-1.33.65h0ZM6.32,13.67c-.26,0-.51-.07-.7-.22l-.15-.16c-.24-.38-.5-.7-.78-.95-.09-.13-.09-.32.02-.43.11-.1.26-.14.37-.04.37.29,1.08,0,1.59-.42.52-.43.94-1.07.72-1.47-.07-.15-.02-.33.12-.41.15-.09.33-.04.42.1.2.33.45.64.75.91,0,.01.02.02.03.03.43.53.26,1.32-.45,2.07-.52.56-1.28.98-1.93.98Z"/>
      <path class="cls-4" d="M4.9,12.12l.18.17.77.94c.35.23.86.1,1.22-.05-.18-.57-.23-.76-.57-1.22-.44.26-1.15.51-1.61.15h.01Z"/>
      <path class="cls-2" d="M6.04,12.99c.16.08.41.06.63,0-.08-.26-.15-.42-.28-.63-.24.11-.47.19-.7.22l.34.42h0ZM6.31,13.66c-.21,0-.43-.04-.64-.17-.03-.02-.05-.04-.08-.06l-.92-1.09s-.03-.03-.04-.05h0c-.09-.13-.07-.3.04-.41.11-.1.29-.11.4,0,.3.24.85.07,1.26-.17.14-.08.31-.04.41.08.36.51.43.75.61,1.32.04.15-.04.3-.18.36-.17.08-.51.2-.87.2Z"/>
      <path class="cls-1" d="M13.88,12.7c-.02-.19-.05-.38-.11-.57-.06-.18-.14-.36-.25-.52-.35-.56-.89-.94-1.49-1.08-.61-.14-1.26-.05-1.83.3-.56.35-.94.9-1.08,1.5-.14.6-.05,1.25.3,1.82.1.17.22.32.36.45.14.14.29.25.45.35h0c.77.46,1.35,1.26,1.66,2.09.14.57.28,1.57.27,2.14-.02,1.66-.04,3.64,4.1,8.05.74.79,1.5,1.9,2.7,1.87,1.41-.05,3.09-1.1,3.76-2.35.6-1.12-.12-2.28-.56-3.42-2.1-5.5-3.86-6.34-5.35-7.06-.51-.24-1.35-.81-1.8-1.18-.61-.64-1.07-1.52-1.14-2.41Z"/>
      <path class="cls-2" d="M11.46,10.78c-.39,0-.78.11-1.1.32-.48.3-.82.76-.94,1.31-.13.55-.03,1.11.26,1.59.09.15.2.28.31.39s.25.22.39.3c.79.46,1.44,1.28,1.8,2.24.15.62.3,1.65.29,2.25-.02,1.65-.03,3.52,4.02,7.84.11.12.24.26.35.39.61.68,1.23,1.37,2.06,1.37h.04c1.32-.04,2.88-1.02,3.51-2.18.43-.79.06-1.65-.33-2.56-.08-.2-.16-.4-.24-.59-2.06-5.4-3.73-6.19-5.2-6.89-.55-.26-1.41-.84-1.87-1.23-.73-.77-1.18-1.72-1.25-2.62h0c0-.17-.04-.34-.09-.5-.05-.15-.12-.31-.22-.46-.3-.48-.76-.81-1.31-.93-.17-.04-.32-.06-.48-.06h0ZM18.89,29.41c-1.1,0-1.85-.83-2.51-1.58-.11-.13-.23-.26-.34-.38-4.23-4.5-4.21-6.59-4.18-8.26,0-.56-.14-1.54-.26-2.07-.31-.79-.87-1.51-1.52-1.89-.2-.11-.36-.24-.51-.39-.16-.15-.29-.32-.41-.51-.38-.62-.5-1.35-.34-2.05.16-.71.59-1.31,1.21-1.7.62-.39,1.35-.51,2.06-.34.7.16,1.3.59,1.69,1.21.12.18.22.38.28.59.07.2.11.42.13.63.06.77.44,1.57,1.06,2.23.39.32,1.21.88,1.71,1.11,1.5.71,3.36,1.61,5.5,7.22.08.19.16.39.24.58.4.95.86,2.03.3,3.09-.72,1.36-2.49,2.45-4.02,2.5h-.08Z"/>
      <path class="cls-3" d="M10.79,10.57c-.21.06-.41.15-.6.27-.56.35-.94.9-1.08,1.5-.14.6-.05,1.25.3,1.82.1.17.22.32.36.45.14.14.29.25.45.35h0c.77.46,1.35,1.26,1.66,2.09.14.57.28,1.57.27,2.14-.02,1.66-.04,3.64,4.1,8.05.74.79,1.5,1.9,2.7,1.87.89-.03,1.9-.47,2.69-1.1-.53.24-1.08.4-1.59.42-1.19.03-1.95-1.08-2.7-1.87-4.14-4.41-4.12-6.39-4.1-8.05.01-.58-.13-1.57-.27-2.15-.31-.82-.9-1.62-1.66-2.09h0c-.17-.1-.31-.22-.45-.35-.14-.13-.26-.28-.36-.45-.35-.57-.44-1.22-.3-1.82.1-.4.29-.77.57-1.09Z"/>
      <path class="cls-2" d="M9.96,11.4c-.27.28-.46.62-.55,1.01-.13.55-.03,1.11.26,1.59.09.15.2.28.31.39s.25.22.39.3c.79.46,1.44,1.28,1.8,2.24.15.62.3,1.65.29,2.25-.02,1.65-.03,3.52,4.02,7.84.11.12.24.26.35.39.61.68,1.23,1.37,2.06,1.37h.04c.23,0,.46-.03.69-.09-.91-.16-1.56-.9-2.15-1.56-.12-.13-.24-.26-.35-.38-4.22-4.5-4.21-6.59-4.18-8.27,0-.55-.13-1.53-.26-2.06-.3-.79-.87-1.51-1.52-1.89-.2-.12-.36-.25-.51-.4-.16-.15-.3-.32-.41-.5-.38-.62-.51-1.35-.34-2.05.01-.06.03-.12.04-.18h0ZM18.89,29.41c-1.1,0-1.85-.83-2.51-1.58-.11-.13-.23-.26-.34-.38-4.23-4.5-4.21-6.59-4.18-8.26,0-.56-.14-1.54-.26-2.07-.31-.79-.87-1.51-1.52-1.89-.2-.11-.36-.24-.51-.39-.16-.15-.29-.32-.41-.51-.38-.62-.5-1.35-.34-2.05.16-.71.59-1.31,1.21-1.7.21-.13.43-.24.68-.3.13-.04.27.02.35.13.07.12.06.27-.04.37-.24.26-.42.59-.5.95-.13.55-.03,1.11.26,1.59.09.14.2.27.31.39.12.11.25.21.39.3.79.47,1.44,1.29,1.8,2.25.16.62.3,1.64.28,2.25-.02,1.65-.03,3.52,4.03,7.84.11.12.23.25.36.39.61.7,1.22,1.43,2.1,1.37.45,0,.97-.15,1.47-.38.14-.06.3-.02.39.11.08.14.05.31-.07.41-.87.7-1.95,1.14-2.88,1.17h-.08Z"/>
      <path class="cls-1" d="M9.52,11.47c-.18.25-.31.54-.38.83-.07.3-.08.62-.03.92.04.3.16.58.32.86.17.27.38.5.62.67.25.18.54.3.84.37.3.07.61.08.91.03.29-.05.59-.15.86-.33.27-.16.5-.38.67-.63.18-.25.31-.54.38-.83.07-.3.08-.62.03-.92-.05-.29-.15-.58-.32-.86-.18-.27-.38-.5-.63-.67-.26-.18-.54-.31-.84-.37-.3-.07-.61-.09-.91-.04-.31.05-.59.16-.86.33-.27.16-.5.39-.67.63Z"/>
      <path class="cls-2" d="M9.77,11.64c-.16.23-.27.47-.33.73-.06.27-.07.54-.03.8.04.26.14.51.28.75.15.24.33.43.55.58.22.16.46.27.73.33.26.06.53.07.8.03.26-.04.51-.14.74-.29.24-.14.43-.33.58-.54.16-.23.27-.47.33-.73.06-.27.07-.54.03-.8-.04-.27-.14-.51-.28-.75-.15-.23-.33-.43-.55-.58-.22-.16-.46-.27-.73-.33-.26-.06-.53-.07-.8-.02-.26.04-.51.14-.74.29-.23.14-.42.32-.58.54h0ZM11.44,15.5c-.21,0-.41-.03-.61-.07-.35-.09-.66-.22-.95-.44-.29-.2-.52-.45-.71-.75-.18-.3-.31-.63-.36-.97-.06-.35-.05-.69.03-1.04.08-.34.23-.66.43-.95h0c.21-.29.46-.52.75-.71.3-.19.63-.31.98-.37.34-.05.69-.04,1.03.04.35.08.66.23.95.43.28.2.52.45.71.75.18.3.3.63.36.96.06.35.04.7-.03,1.04-.08.34-.22.66-.42.95-.2.28-.46.52-.76.7-.3.19-.63.31-.97.37-.14.02-.29.04-.42.04Z"/>
      <path class="cls-4" d="M14.84,14.91c.69,1.1-2.03,2.91-2.96,2.02l-.1-.13c-.16-.38-.39-.75-.66-1.07h0c.88.92,3.48-.72,3.04-1.89.18.38.4.75.67,1.07Z"/>
      <path class="cls-2" d="M11.89,16.32c.06.11.12.23.18.36l.06.08c.33.31,1.24.02,1.86-.48.43-.35.77-.84.59-1.17-.09-.1-.17-.21-.24-.31-.22.42-.61.79-1.04,1.06-.41.25-.92.46-1.41.48h0ZM12.56,17.48c-.34,0-.65-.1-.89-.33l-.13-.17c-.19-.41-.4-.76-.64-1.04-.08-.13-.06-.33.06-.43.13-.1.28-.11.39,0,.32.34,1.06.16,1.64-.2.57-.36,1.06-.94.9-1.36-.06-.16.02-.33.17-.39.15-.06.33,0,.39.15.15.35.37.7.63,1,0,0,.02.02.02.03.37.58.09,1.35-.71,1.99-.53.43-1.23.74-1.83.74Z"/>
      <path class="cls-4" d="M11.13,15.73l.16.2.64,1.03c.31.26.83.21,1.21.1-.1-.59-.12-.77-.4-1.28-.47.2-1.21.36-1.61-.06h0Z"/>
      <path class="cls-2" d="M12.15,16.76c.16.09.4.11.63.08-.05-.27-.09-.44-.2-.66-.19.06-.45.12-.71.13l.28.45h0ZM12.56,17.47c-.28,0-.59-.06-.84-.27-.02-.02-.05-.04-.07-.08l-.78-1.2s-.02-.03-.02-.03h0c-.08-.14-.04-.31.08-.41.13-.09.3-.08.41.03.27.28.84.18,1.27,0,.15-.06.32,0,.39.14.29.53.34.75.43,1.38.03.15-.07.3-.22.35-.15.04-.39.1-.66.1Z"/>
      <path class="cls-1" d="M4.76,22.02c-.11-.16-.23-.31-.37-.44-.14-.13-.3-.24-.47-.35-.57-.33-1.23-.4-1.82-.23-.6.15-1.14.55-1.47,1.12-.33.58-.4,1.24-.24,1.83.16.6.55,1.14,1.12,1.47.18.1.36.18.53.23.18.05.37.09.55.09h.02c.89.03,1.78.47,2.44,1.05.39.45.99,1.26,1.25,1.77.76,1.48,1.68,3.23,7.4,5.16,1.03.35,2.23.97,3.26.38,1.23-.71,2.22-2.43,2.22-3.85,0-1.26-1.19-1.96-2.1-2.75-4.45-3.87-6.4-3.77-8.04-3.7-.57.03-1.57-.07-2.15-.19-.84-.29-1.66-.83-2.14-1.59Z"/>
      <path class="cls-2" d="M2.72,21.23c-.18,0-.36.02-.55.07-.55.15-1,.5-1.28.98-.29.49-.36,1.06-.21,1.6.15.55.5,1,.98,1.28.15.09.3.16.46.2.16.04.32.07.48.08.91.04,1.88.45,2.65,1.14.41.47,1.03,1.31,1.31,1.85.76,1.46,1.63,3.11,7.24,5.01.16.05.32.11.5.17.87.32,1.76.65,2.5.23,1.14-.66,2.06-2.27,2.06-3.58,0-.9-.72-1.49-1.5-2.1-.17-.14-.34-.28-.5-.42-4.36-3.78-6.21-3.69-7.83-3.62-.61.03-1.64-.09-2.23-.2-1.01-.34-1.85-.96-2.34-1.73h0c-.09-.14-.2-.27-.32-.38-.12-.11-.25-.22-.4-.3-.33-.18-.69-.28-1.05-.28h0ZM16.02,34.66c-.65,0-1.31-.24-1.92-.47-.17-.06-.32-.12-.48-.17-5.85-1.98-6.81-3.83-7.59-5.32-.25-.49-.83-1.29-1.2-1.7-.63-.56-1.48-.92-2.23-.96-.22,0-.43-.04-.64-.1-.2-.06-.41-.15-.6-.25-.63-.36-1.08-.96-1.27-1.66-.18-.69-.09-1.43.27-2.06.36-.64.96-1.09,1.65-1.27.7-.19,1.44-.1,2.07.27.19.11.36.23.52.38.16.15.3.32.42.5.41.64,1.13,1.18,1.97,1.46.51.1,1.49.21,2.04.18,1.66-.08,3.71-.17,8.26,3.77.16.13.32.27.49.4.81.65,1.72,1.39,1.72,2.58,0,1.54-1.03,3.35-2.36,4.11-.36.21-.74.3-1.11.3Z"/>
      <path class="cls-3" d="M1.03,21.61c-.15.15-.29.32-.4.51-.33.58-.4,1.24-.24,1.83.16.6.55,1.14,1.12,1.47.18.1.36.18.53.23.18.05.37.09.55.09h.02c.89.03,1.78.47,2.44,1.05.39.45.99,1.26,1.25,1.77.76,1.48,1.68,3.23,7.4,5.16,1.03.35,2.23.97,3.26.38.77-.45,1.46-1.31,1.86-2.24-.35.46-.76.85-1.21,1.11-1.04.59-2.24-.03-3.26-.38-5.73-1.93-6.64-3.68-7.41-5.16-.26-.51-.85-1.32-1.24-1.77-.67-.58-1.56-1.02-2.45-1.05h0c-.19,0-.37-.04-.56-.1-.18-.05-.35-.12-.53-.23-.58-.33-.96-.87-1.13-1.47-.1-.39-.11-.81-.01-1.22Z"/>
      <path class="cls-2" d="M.7,22.73c-.11.37-.12.76-.01,1.15.15.55.5,1,.98,1.28.15.09.3.16.46.2.16.04.32.07.48.08.91.04,1.88.45,2.65,1.14.41.47,1.03,1.31,1.31,1.85.76,1.46,1.63,3.11,7.24,5.01.16.05.32.11.5.17.87.32,1.76.65,2.5.23.19-.11.38-.25.57-.42-.88.29-1.8-.05-2.63-.36-.17-.06-.32-.12-.48-.17-5.85-1.97-6.82-3.83-7.59-5.32-.25-.49-.84-1.29-1.21-1.7-.63-.56-1.47-.92-2.23-.96-.23,0-.45-.04-.64-.11-.21-.06-.41-.15-.6-.25-.62-.36-1.08-.96-1.27-1.65-.02-.06-.03-.12-.04-.18h0ZM16.02,34.66c-.65,0-1.31-.24-1.92-.47-.17-.06-.32-.12-.48-.17-5.85-1.98-6.81-3.83-7.59-5.32-.25-.49-.83-1.29-1.2-1.7-.63-.56-1.48-.92-2.23-.96-.22,0-.43-.04-.64-.1-.2-.06-.41-.15-.6-.25-.63-.36-1.08-.96-1.27-1.66-.18-.69-.09-1.43.27-2.06.13-.22.28-.42.46-.59.09-.1.24-.11.36-.04.12.07.18.21.15.34-.1.35-.09.72,0,1.07.15.55.5,1,.99,1.28.14.09.29.16.46.2.16.04.32.08.48.08.92.04,1.88.46,2.65,1.14.42.47,1.04,1.31,1.32,1.85.76,1.46,1.62,3.12,7.23,5.01.17.05.33.11.51.18.86.31,1.76.64,2.5.21.39-.23.78-.58,1.11-1.04.09-.12.27-.15.4-.08.14.08.19.24.13.38-.43,1.03-1.17,1.92-1.98,2.39-.36.21-.74.3-1.11.3Z"/>
      <path class="cls-1" d="M.33,22.99c-.03.32-.02.63.06.92.08.3.22.57.41.83.18.24.42.44.7.6.27.16.56.26.86.3.31.04.63.02.92-.06.3-.08.57-.21.83-.41.23-.18.44-.42.6-.69.17-.28.26-.57.3-.87.04-.31.02-.63-.06-.92-.08-.3-.21-.57-.41-.83-.18-.23-.41-.44-.69-.6-.28-.16-.57-.26-.87-.3-.31-.04-.63-.02-.92.06-.3.08-.57.22-.82.41-.24.18-.45.42-.61.69-.16.28-.25.57-.3.87Z"/>
      <path class="cls-2" d="M.64,23.03c-.03.27-.02.54.05.8.08.26.19.5.36.71.17.22.36.39.6.52.24.14.49.23.76.26.27.03.54.02.8-.05.26-.07.5-.19.71-.36.22-.17.39-.36.52-.6.14-.24.22-.49.26-.76.04-.27.02-.54-.05-.8-.07-.26-.19-.5-.35-.71-.17-.22-.37-.39-.6-.52-.24-.14-.49-.23-.76-.26-.27-.04-.53-.02-.79.05-.27.08-.5.19-.72.36-.21.16-.39.36-.52.6-.14.24-.23.49-.26.76h0ZM2.67,25.96c-.12,0-.23,0-.35-.03-.35-.04-.68-.16-.98-.33-.3-.17-.57-.41-.78-.69-.22-.28-.36-.59-.46-.93-.09-.34-.12-.69-.07-1.03H.03c.04-.35.16-.68.33-.98.18-.3.41-.57.69-.78.28-.22.59-.37.93-.46.34-.09.69-.11,1.03-.07.35.04.68.16.99.33.3.18.57.41.77.69.22.27.37.59.46.93.1.34.12.69.07,1.03-.05.35-.16.68-.33.98-.18.3-.41.57-.69.78-.28.21-.59.37-.93.46-.23.06-.46.1-.69.1Z"/>
      <path class="cls-4" d="M6.65,23.53c1.13.64-.42,3.52-1.65,3.17l-.15-.08c-.32-.25-.69-.47-1.09-.63h-.01c1.22.4,2.74-2.27,1.8-3.1.34.26.71.48,1.09.63Z"/>
      <path class="cls-2" d="M4.71,26.15c.11.08.22.15.33.23l.1.04c.42.12,1.1-.57,1.41-1.31.22-.5.29-1.1-.03-1.31-.12-.04-.24-.11-.36-.16,0,.46-.18.98-.43,1.43-.23.42-.6.84-1.02,1.08h0ZM5.21,27.04c-.09,0-.19-.02-.29-.04l-.2-.1c-.36-.28-.71-.48-1.06-.62-.14-.08-.22-.25-.15-.4.06-.15.2-.23.36-.18.43.15,1-.36,1.34-.94.33-.58.5-1.33.16-1.63-.12-.11-.14-.3-.04-.43.11-.13.3-.15.43-.04.3.23.65.44,1.02.58.02,0,.03.01.04.02.59.34.71,1.15.3,2.1-.36.87-1.12,1.68-1.9,1.68Z"/>
      <path class="cls-4" d="M3.77,26l.23.11,1.05.61c.4.09.84-.21,1.12-.48-.36-.48-.49-.63-.95-.94-.33.4-.9.89-1.46.7h.01Z"/>
      <path class="cls-2" d="M5.16,26.41c.18.01.4-.09.59-.23-.17-.22-.29-.34-.49-.49-.14.15-.34.32-.57.45l.46.27h0ZM5.2,27.03c-.07,0-.14,0-.21-.02-.03,0-.07-.02-.09-.03l-1.25-.69s-.02-.01-.03-.02h0c-.14-.08-.19-.25-.13-.39.06-.15.23-.22.38-.18.36.13.82-.23,1.11-.6.09-.13.28-.16.41-.07.53.35.68.55,1.04,1.02.1.12.08.3-.03.41-.19.18-.65.57-1.18.57Z"/>
      <path class="cls-3" d="M26.13,22.22c-1.33.56-2.54,1.37-3.55,2.37s-1.82,2.22-2.37,3.54c-.53,1.29-.82,2.7-.82,4.18s.3,2.89.82,4.18c.56,1.34,1.37,2.54,2.37,3.54,1.01,1.01,2.22,1.83,3.55,2.38,1.28.53,2.7.83,4.18.83s2.9-.3,4.18-.83c1.34-.56,2.54-1.37,3.55-2.38,1.01-1.01,1.82-2.21,2.38-3.54.53-1.29.83-2.7.83-4.18s-.3-2.9-.83-4.18c-.56-1.33-1.38-2.54-2.38-3.54-1.01-1.01-2.21-1.82-3.55-2.37-1.29-.53-2.69-.82-4.18-.82s-2.89.3-4.18.82Z"/>
      <path class="cls-2" d="M26.25,22.5c-1.29.53-2.45,1.32-3.45,2.31-1,1-1.77,2.15-2.3,3.45-.54,1.29-.81,2.65-.81,4.06s.27,2.78.81,4.07c.53,1.29,1.31,2.45,2.3,3.45,1,1,2.16,1.77,3.45,2.31,2.57,1.06,5.55,1.06,8.13,0,1.29-.54,2.45-1.31,3.44-2.31,1-.99,1.77-2.16,2.31-3.45.53-1.28.8-2.66.8-4.07s-.27-2.77-.8-4.06c-.54-1.3-1.31-2.45-2.31-3.45-.99-.99-2.15-1.77-3.44-2.31-2.58-1.07-5.55-1.07-8.13,0h0ZM30.31,43.56c-1.49,0-2.94-.29-4.29-.85-1.37-.57-2.6-1.38-3.65-2.44-1.05-1.05-1.88-2.28-2.44-3.64-.57-1.36-.85-2.81-.85-4.3s.29-2.94.85-4.29c.56-1.37,1.39-2.6,2.44-3.65,1.05-1.05,2.28-1.88,3.65-2.44h0c2.72-1.13,5.87-1.13,8.6,0,1.36.56,2.59,1.39,3.64,2.44,1.06,1.05,1.88,2.28,2.44,3.65.56,1.36.85,2.81.85,4.29s-.29,2.94-.85,4.3c-.57,1.37-1.38,2.59-2.44,3.64-1.05,1.06-2.28,1.88-3.64,2.44-1.37.56-2.81.85-4.31.85Z"/>
      <path class="cls-1" d="M36.64,24.48c.13-.11.37-.07.64.09.28.16.59.42.88.76.3.34.5.7.61.98.1.29.1.53-.03.63-.13.11-.37.06-.65-.09-.28-.16-.59-.43-.89-.76-.29-.34-.5-.7-.6-.99-.11-.29-.09-.52.03-.63Z"/>
      <path class="cls-2" d="M36.84,24.72s0,.13.06.29c.09.26.29.59.54.89.25.29.55.55.8.69.17.09.26.11.3.11,0-.02,0-.11-.07-.28-.09-.27-.29-.59-.55-.89-.25-.3-.54-.56-.79-.69-.15-.08-.24-.11-.29-.12h0ZM38.54,27.31c-.16,0-.36-.05-.6-.19-.32-.17-.67-.47-.97-.83-.3-.36-.54-.75-.65-1.09-.21-.59-.01-.86.12-.97h.01c.16-.13.47-.22.98.06.32.18.66.48.96.83.3.36.54.74.66,1.08.21.59.01.87-.13.98-.07.05-.19.12-.38.12Z"/>
      <path class="cls-1" d="M33.4,22.94c.46.15.83.42,1.07.72.22.3.32.64.22.96-.1.31-.38.53-.76.63-.36.11-.83.1-1.29-.06-.46-.15-.83-.42-1.06-.72-.24-.3-.33-.65-.23-.95.1-.32.38-.54.76-.64.36-.1.83-.09,1.29.06Z"/>
      <path class="cls-2" d="M32.62,23.11c-.16,0-.3.02-.44.06-.17.04-.45.16-.54.43-.09.27.07.54.17.67.2.27.54.49.91.63.38.12.79.15,1.11.05.17-.04.45-.17.54-.43.1-.27-.07-.54-.17-.68-.2-.26-.53-.48-.91-.62h0c-.23-.07-.46-.11-.68-.11h0ZM33.42,25.63c-.29,0-.59-.05-.87-.15-.51-.18-.93-.46-1.22-.83-.29-.4-.4-.85-.26-1.25.13-.4.47-.7.96-.84.44-.12.97-.09,1.47.07h0c.51.17.94.46,1.22.83.3.4.4.85.27,1.24-.14.4-.49.7-.96.84-.19.05-.39.09-.6.09Z"/>
      <path class="cls-1" d="M36.68,29.66c.41-.03.79.15,1.08.46.3.3.49.75.51,1.23.03.5-.1.96-.36,1.29-.25.35-.61.57-1.02.59-.42.03-.8-.15-1.09-.46-.3-.3-.49-.75-.51-1.24-.03-.5.1-.95.36-1.29.25-.34.61-.56,1.02-.58Z"/>
      <path class="cls-2" d="M36.75,29.97h-.05c-.3.02-.59.18-.79.46-.23.3-.33.69-.3,1.09.02.41.17.78.43,1.05.24.25.56.38.84.36.31-.02.59-.18.8-.47.22-.3.32-.68.3-1.09-.03-.41-.17-.78-.43-1.05-.23-.23-.5-.36-.79-.36h0ZM36.82,33.56c-.46,0-.9-.2-1.23-.56-.35-.36-.57-.88-.6-1.43-.03-.56.12-1.09.42-1.5.32-.43.77-.68,1.25-.71.5-.03.97.17,1.33.56.36.37.56.89.6,1.44.03.56-.12,1.08-.42,1.49-.32.43-.76.69-1.25.72h-.09Z"/>
      <path class="cls-4" d="M36.07,33.01c-.1-.06-.18-.14-.26-.23-.3-.3-.49-.75-.51-1.24-.03-.5.1-.95.36-1.29.1-.14.22-.25.35-.35.1.06.18.14.26.23.3.3.49.75.52,1.23.03.5-.11.96-.36,1.29-.1.15-.22.26-.36.36Z"/>
      <path class="cls-2" d="M36.02,30.3s-.08.09-.12.13c-.22.3-.32.69-.29,1.09.02.41.17.78.43,1.05.01,0,.02.02.04.03.03-.05.07-.09.11-.13.22-.3.32-.69.29-1.09-.02-.41-.17-.78-.42-1.05-.02,0-.03-.02-.03-.03h0ZM36.07,33.32c-.06,0-.12-.02-.18-.06-.11-.07-.22-.16-.31-.26-.35-.37-.57-.89-.6-1.43-.03-.56.11-1.09.42-1.5.13-.17.28-.31.44-.42.1-.08.24-.08.35-.01.11.08.22.18.31.28.36.37.57.88.6,1.43.03.56-.11,1.08-.42,1.49-.12.17-.27.31-.44.43-.05.03-.11.06-.17.06Z"/>
      <path class="cls-4" d="M34.04,25.22s-.07.03-.11.03c-.36.11-.83.1-1.29-.06-.46-.15-.83-.42-1.07-.72,0-.02-.03-.03-.03-.06.03,0,.07-.02.11-.03.36-.11.82-.09,1.29.06.46.16.84.42,1.06.73.02.02.03.03.04.05Z"/>
      <path class="cls-2" d="M32.18,24.62c.16.12.36.22.55.28.23.07.45.11.67.11-.17-.12-.36-.22-.56-.29-.22-.07-.45-.11-.66-.11h0ZM34.04,25.22h.01-.01ZM33.42,25.63c-.29,0-.59-.05-.87-.15-.51-.17-.93-.46-1.22-.83,0,0-.04-.07-.04-.07-.06-.08-.07-.18-.04-.27.03-.1.1-.16.18-.2.04-.02.09-.03.14-.04.44-.12.96-.1,1.47.07.5.16.93.46,1.22.83,0,0,.04.06.04.07.06.08.07.18.04.27-.03.1-.1.16-.19.2l-.13.04c-.19.05-.39.09-.6.09Z"/>
    </g>
  </g>
</svg>