<?xml version="1.0" encoding="UTF-8"?>
<svg id="Layer_2" data-name="Layer 2" xmlns="http://www.w3.org/2000/svg" viewBox="0 0 38.04 26.77" fill="currentColor">
  <defs>
    <style>
      .cls-1 {
        fill: #fff;
      }

      .cls-1, .cls-2, .cls-3, .cls-4 {
        fill-rule: evenodd;
      }

      .cls-2 {
        fill: #1a87c7;
      }

      .cls-3 {
        fill: #bdedf8;
      }

      .cls-4 {
        fill: #66ceef;
      }
    </style>
  </defs>
  <g id="_Layer_" data-name="&amp;lt;Layer&amp;gt;">
    <g>
      <path class="cls-4" d="M21.97,4.01c-.02.27-.14.48-.36.62l6.25,3.61c.22-.16.34-.36.36-.63v-3.69L21.97.31v3.69h0ZM28.11,14.78l-6.24-3.61c.09.08.09.12.11.23v3.69l6.24,3.61v-3.69c-.01-.11-.01-.16-.1-.23h0Z"/>
      <path class="cls-2" d="M21.97,4.01h0,0ZM22.1,4.56l5.71,3.3c.06-.08.09-.17.1-.28v-3.49l-5.62-3.25v3.16s-.01.02-.01.03c0,.2-.07.38-.17.53h0ZM27.86,8.55c-.06,0-.11-.02-.16-.04l-6.24-3.61c-.1-.05-.16-.15-.16-.25-.01-.11.04-.21.13-.27.15-.1.22-.22.24-.39V.31c0-.11.05-.21.15-.27.1-.05.22-.05.31,0l6.24,3.61c.09.05.15.16.15.27v3.69c-.03.38-.2.67-.5.88-.05.03-.11.06-.17.06h0ZM22.29,14.92l5.62,3.24v-3.15l-5.63-3.24v3.15h.01ZM28.21,19.01c-.05,0-.1,0-.15-.04l-6.25-3.6c-.09-.06-.15-.16-.15-.27v-3.69c-.13-.1-.15-.28-.06-.41.09-.13.28-.17.42-.09l6.24,3.6s.03.02.04.03c.19.16.2.3.22.44v3.71c0,.1-.06.21-.15.26-.04.03-.1.04-.16.04Z"/>
      <path class="cls-3" d="M1.77,16.1c-.47.3-.74.61-1.03,1.09l6.24,3.61c.3-.48.56-.79,1.03-1.1l19.85-11.45-6.25-3.61L1.77,16.1Z"/>
      <path class="cls-2" d="M1.17,17.08l5.71,3.29c.24-.36.51-.65.96-.94l19.4-11.2-5.63-3.25L1.92,16.36c-.34.22-.55.44-.75.72h0ZM6.98,21.09c-.05,0-.1-.02-.15-.04l-6.24-3.61c-.07-.04-.12-.11-.14-.18-.02-.09,0-.17.04-.24.29-.48.58-.84,1.12-1.18,0,0,0,0,0,0L21.46,4.37c.1-.06.21-.06.3,0l6.24,3.61c.1.05.16.16.16.26,0,.11-.06.22-.16.27l-19.84,11.46c-.44.28-.66.56-.92.98-.05.1-.16.15-.26.15Z"/>
      <path class="cls-4" d="M6.98,20.79l-6.24-3.61c-.27.49-.41.87-.42,1.43v3.21c.02.4.08.7.42.94l6.24,3.61-.09-.07-.08-.08c-.21-.27-.24-.47-.25-.8v-3.21c.03-.56.16-.94.42-1.43Z"/>
      <path class="cls-2" d="M.87,17.61c-.15.31-.24.61-.25,1.02v3.2c.02.38.08.54.3.69l5.34,3.09c-.01-.05-.01-.11-.01-.16v-3.22c.02-.53.14-.92.32-1.31l-5.7-3.3h0ZM6.98,26.67c-.05,0-.1,0-.15-.04l-6.24-3.6c-.51-.36-.57-.78-.58-1.2v-3.22c.04-.66.2-1.09.47-1.58.03-.07.1-.13.18-.15.09-.03.17-.02.24.03l6.24,3.61c.15.08.19.27.11.41-.23.43-.36.77-.39,1.3v3.19c.02.3.04.42.19.61l.1.09c.14.1.17.28.09.42-.06.09-.16.14-.26.14Z"/>
      <polygon class="cls-3" points="37.73 5.81 31.48 2.22 21.97 .31 28.21 3.92 37.73 5.81"/>
      <path class="cls-2" d="M28.33,3.62l7.63,1.52-4.58-2.64-7.63-1.52,4.58,2.64h0ZM37.73,6.13s-.04,0-.06,0l-9.51-1.9s-.07-.02-.1-.03l-6.25-3.6c-.13-.08-.18-.23-.13-.38.05-.14.19-.23.35-.19l9.51,1.9s.07.02.1.03l6.24,3.61c.13.07.19.23.14.37-.04.12-.16.2-.29.2Z"/>
      <path class="cls-1" d="M27.86,8.24l-19.85,11.45c-.4.24-.76.64-1.03,1.1-.26.45-.42.97-.42,1.43v3.21c0,.47.16.79.42.95.27.16.64.12,1.03-.11l19.85-11.45c.2-.12.36-.03.36.21v3.69l9.52-12.89-9.52-1.9v3.69c0,.23-.16.51-.36.63Z"/>
      <path class="cls-2" d="M28.53,4.29v3.32c0,.34-.22.72-.52.9h0l-19.84,11.46c-.33.19-.67.55-.91.97-.24.43-.39.9-.39,1.28v3.21c0,.33.11.57.28.68.17.1.43.06.72-.1l19.84-11.46c.19-.11.4-.12.57-.03.16.1.26.28.26.5v2.75l8.67-11.74-8.67-1.73h0ZM7.36,26.77c-.19,0-.37-.04-.54-.14-.37-.22-.58-.64-.58-1.21v-3.21c0-.5.17-1.06.46-1.58.31-.52.71-.95,1.15-1.2L27.7,7.98c.11-.07.21-.24.21-.37v-3.69c0-.09.04-.18.11-.24.07-.05.17-.08.25-.06l9.52,1.9c.11.03.18.1.23.19.03.1.02.22-.04.3l-9.51,12.89c-.08.11-.22.15-.35.11-.12-.03-.21-.16-.21-.29v-3.57l-19.75,11.4c-.28.16-.55.24-.8.24Z"/>
    </g>
  </g>
</svg>