<?xml version="1.0" encoding="UTF-8"?>
<svg id="Layer_2" data-name="Layer 2" xmlns="http://www.w3.org/2000/svg" viewBox="0 0 41.71 31.98" fill="currentColor">
  <defs>
    <style>
      .cls-1 {
        fill: #fff;
      }

      .cls-1, .cls-2, .cls-3, .cls-4 {
        fill-rule: evenodd;
      }

      .cls-2 {
        fill: #1a87c7;
      }

      .cls-3 {
        fill: #bdedf8;
      }

      .cls-4 {
        fill: #66ceef;
      }
    </style>
  </defs>
  <g id="_Layer_" data-name="&amp;lt;Layer&amp;gt;">
    <g>
      <path class="cls-1" d="M11.5,10.09l-4.43-2.04,4.98-2.87.97.56c.47.28.68.63.52,1.02l-1.23,3.69-.81-.37Z"/>
      <path class="cls-2" d="M11.63,9.81l.5.22,1.15-3.37c.05-.24-.08-.45-.42-.65l-.81-.47-4.32,2.48,3.9,1.79h0ZM12.31,10.77c-.05,0-.1,0-.13-.03l-.79-.37h0l-4.46-2.04c-.1-.05-.16-.15-.18-.27,0-.11.05-.22.16-.28l4.98-2.87c.08-.06.21-.06.31,0l.97.56c.6.35.86.86.68,1.39l-1.26,3.69c-.03.08-.08.15-.18.18-.03.02-.08.02-.1.02Z"/>
      <path class="cls-1" d="M35.45,17.16l-3.83-2.22c-.97-.32-2.15,1.78-1.42,2.43l3.85,2.22c-.45-.38-.16-1.17.05-1.58.18-.3.37-.52.65-.71.24-.13.45-.21.68-.13Z"/>
      <path class="cls-2" d="M31.41,15.2c-.24,0-.6.3-.86.75-.29.49-.34,1-.13,1.18l3.09,1.79c.03-.37.16-.76.34-1.07.21-.37.45-.61.76-.82h0s-3.14-1.83-3.14-1.83c-.03,0-.05,0-.05,0h0ZM34.06,19.9c-.05,0-.11-.01-.16-.04l-3.85-2.22c-.55-.48-.42-1.34-.05-1.99.39-.66,1.05-1.22,1.7-1l3.9,2.25c.13.08.21.25.13.39-.05.14-.24.21-.37.16-.13-.04-.24-.01-.42.11-.24.15-.39.32-.58.61-.18.33-.37.96-.1,1.19.1.11.13.28.05.41-.08.08-.16.13-.26.13Z"/>
      <path class="cls-4" d="M34.74,19.54c.58-.33,1.02-1.12,1.02-1.78s-.45-.92-1.02-.59c-.58.32-1.02,1.12-1.02,1.78s.45.92,1.02.59Z"/>
      <path class="cls-2" d="M35.21,17.34c-.1,0-.21.03-.31.1-.47.27-.86.96-.86,1.51,0,.2.05.34.13.4.11.05.26.02.42-.07h0c.47-.27.86-.97.86-1.51,0-.2-.05-.35-.13-.4-.03-.02-.08-.03-.1-.03h0ZM34.27,19.99c-.13,0-.29-.03-.42-.11-.29-.17-.45-.51-.45-.93,0-.76.52-1.66,1.18-2.05.37-.21.76-.24,1.05-.07.29.17.45.51.45.93,0,.76-.52,1.66-1.18,2.05h0c-.21.12-.42.18-.63.18Z"/>
      <path class="cls-1" d="M31.26,20.59c2.31-3.68,4.61-7.36,6.92-11.04.16-.25.18-.51.08-.75-.08-.24-.29-.46-.63-.65l-2.44-1.41-11.19,9.66,7.26,4.18Z"/>
      <path class="cls-2" d="M24.52,16.36l6.63,3.81,6.76-10.79c.11-.17.13-.32.05-.47-.05-.17-.23-.34-.5-.5l-2.25-1.3-10.69,9.24h0ZM31.26,20.9c-.05,0-.1-.02-.16-.04l-7.26-4.18c-.08-.05-.13-.14-.13-.24-.03-.1.03-.2.1-.26l11.16-9.66c.11-.09.24-.1.37-.03l2.44,1.41c.39.22.66.5.76.81.13.34.1.69-.11,1.02l-6.92,11.04c-.08.09-.16.14-.26.14Z"/>
      <path class="cls-1" d="M37.86,31.46c-1.1-.3-2.31-.61-3.38-1.01-.42-.17-.79-.35-1.18-.57l-7.6-4.39-8.04-4.64-.86-.63c-2.02-1.46-4.04-2.93-6.08-4.39l-6.34-5.78c-1.15-.37-.55-3.26,1.49-2.56l12.99,5.98,8.57,4.5,3.25,1.87,2.1,1.24,4.64,2.76c1.13.67,1.65,1.61,2.04,2.06,2.1,2.3,1.94,2.63,1.94,4.46-.05.41-.26.57-.58.79l-.31.18c-.58.3-1,.35-1.65.33-.39-.05-.58-.1-1-.21Z"/>
      <path class="cls-2" d="M37.94,31.17l.1.02c.34.09.5.13.84.18.63.02.97-.04,1.49-.29l.29-.18c.29-.19.39-.28.42-.56v-.32c.03-1.49.03-1.84-1.83-3.89-.11-.11-.24-.26-.34-.43-.37-.46-.84-1.1-1.65-1.57l-6.73-4-3.25-1.87-8.54-4.5L5.74,7.77c-.45-.15-.86-.1-1.18.17-.34.31-.52.89-.42,1.35.03.17.11.39.34.46.05.01.08.04.1.07l6.34,5.78,6.92,5,15.62,9.02c.37.21.73.38,1.15.55,1,.38,2.12.68,3.2.97l.13.03h0ZM39.12,31.98c-.08,0-.18,0-.26,0-.42-.05-.63-.11-.97-.19l-.11-.02h0s-.13-.03-.13-.03c-1.07-.29-2.23-.59-3.27-.99-.45-.18-.81-.36-1.21-.58l-15.67-9.04-6.97-5.04-6.31-5.76c-.34-.14-.6-.46-.68-.9-.16-.68.11-1.48.63-1.94.47-.42,1.1-.52,1.81-.28l13.02,5.99,8.57,4.51,5.37,3.13,4.64,2.76c.92.54,1.44,1.23,1.81,1.73.13.15.24.28.31.39,1.94,2.14,2.02,2.66,2.02,4.31v.36c-.08.58-.37.8-.73,1.05l-.31.19c-.58.29-1.02.37-1.55.37Z"/>
      <path class="cls-4" d="M37.86,31.46c-1.1-.3-2.31-.61-3.38-1.01-.42-.17-.79-.35-1.18-.57l-7.6-4.39-8.04-4.64-.86-.63c-2.02-1.46-4.04-2.93-6.08-4.39l-6.34-5.78c-.58-.18-.71-1-.45-1.68,1.34,1.86,7.81,7.13,14.31,11.22,9.33,5.87,19.68,12.2,22.61,10.56.31-.2.34-.25.55-.56v.79c-.05.41-.26.57-.58.79l-.31.18c-.58.3-1,.35-1.65.33-.39-.05-.58-.1-1-.21Z"/>
      <path class="cls-2" d="M37.94,31.17l.1.02c.34.09.5.13.84.18.63.02.97-.04,1.49-.29l.29-.18c.29-.18.39-.28.42-.54-.03.02-.05.03-.08.05-3.01,1.69-12.58-4.03-22.92-10.56-5.92-3.72-11.97-8.54-13.96-10.78,0,.15.03.3.08.42.08.14.16.23.29.26.05.01.08.04.1.07l6.34,5.78,6.92,5,15.62,9.02c.37.21.73.38,1.15.55,1,.38,2.12.68,3.2.97l.13.03h0ZM39.12,31.98c-.08,0-.18,0-.26,0-.42-.05-.63-.11-.97-.19l-.11-.02h0s-.13-.03-.13-.03c-1.07-.29-2.23-.59-3.27-.99-.45-.18-.81-.36-1.21-.59l-15.67-9.04-6.97-5.04-6.31-5.76c-.24-.1-.45-.29-.58-.56-.21-.41-.21-.99,0-1.5.03-.11.13-.18.24-.19.13-.01.24.03.29.13,1.36,1.86,7.86,7.13,14.23,11.14,7.26,4.56,19.39,12.19,22.32,10.55.21-.14.21-.16.39-.4l.05-.07c.08-.11.21-.15.34-.11.13.04.21.16.21.29v.79c-.08.58-.37.8-.73,1.04l-.31.19c-.58.29-1.02.37-1.55.37Z"/>
      <path class="cls-4" d="M37.86,27.52c-1.47.85-2.62.06-3.98-.63l.6.04c1.83.14,4.27-1.36,3.8-2.35.81,1.16,1.34,1.93-.42,2.94Z"/>
      <path class="cls-2" d="M37.86,27.52h.03-.03ZM35.21,27.22c.84.39,1.6.55,2.49.03h0c.63-.35.94-.67,1.02-.99.05-.25-.05-.53-.24-.85-.03.05-.08.1-.1.15-.52.74-1.83,1.49-3.17,1.65h0ZM36.57,28.2c-.84,0-1.6-.4-2.41-.82l-.45-.22c-.13-.07-.18-.22-.16-.36.05-.14.18-.23.34-.23l.58.04c1.28.1,2.88-.68,3.41-1.41.13-.2.18-.38.13-.51-.08-.15-.03-.32.11-.4.16-.08.34-.04.42.09.47.68.92,1.32.76,2-.1.5-.5.94-1.28,1.38h0c-.52.3-.97.41-1.44.41Z"/>
      <path class="cls-3" d="M30.55,24.5l-.11-.07c-.05-.02-.08-.04-.13-.04v.52c0,.19.13.43.29.52l.13.07s.08.04.11.04c.03-.03.03-.07.03-.11v-.42c0-.19-.13-.43-.31-.52Z"/>
      <path class="cls-2" d="M30.84,25.86s-.03,0-.03,0c-.08,0-.16-.03-.24-.08l-.1-.07c-.26-.15-.47-.49-.47-.79v-.42c0-.08,0-.15.03-.21.05-.13.18-.22.34-.2.08,0,.16.03.24.08l.11.07c.26.15.47.49.47.79v.42c0,.07-.03.15-.05.21-.03.12-.16.2-.29.2Z"/>
      <path class="cls-3" d="M28.66,23.4c-.05-.02-.08-.04-.13-.06-.03-.03-.08-.04-.11-.04-.03.03-.03.07-.03.11v.41c0,.19.13.43.31.53.03.02.08.04.11.06.05.03.08.04.13.04v-.52c0-.19-.13-.43-.29-.53Z"/>
      <path class="cls-2" d="M28.95,24.76s-.03,0-.05,0c-.08,0-.16-.03-.24-.08l-.11-.07c-.26-.15-.47-.49-.47-.79v-.41c0-.08.03-.15.05-.22.05-.13.16-.21.31-.2.08,0,.16.04.24.08l-.03.31h0s.13-.25.13-.25c.26.15.47.49.47.8v.41c0,.08,0,.15-.03.21-.05.12-.18.2-.29.2Z"/>
      <path class="cls-3" d="M26.75,22.31s-.08-.04-.11-.06c-.05-.02-.08-.04-.13-.04v.52c0,.19.13.43.29.53.05.02.08.04.1.07.05.02.11.03.13.04,0-.03.03-.07.03-.11v-.41c0-.19-.16-.43-.31-.53Z"/>
      <path class="cls-2" d="M27.04,23.66h-.03c-.08,0-.16-.03-.24-.08l-.08-.04c-.31-.17-.5-.52-.5-.82v-.41c0-.08,0-.15.03-.21.05-.13.18-.22.31-.2.08,0,.18.03.26.08l.1.06h0c.26.16.45.5.45.8v.41c0,.08,0,.15-.03.21-.05.12-.16.2-.29.2Z"/>
      <path class="cls-3" d="M24.84,21.21s-.05-.04-.11-.06c-.03-.02-.08-.04-.1-.04-.03.03-.03.06-.03.1v.41c0,.19.13.43.31.53.03.02.05.04.11.06.03.02.08.04.1.04.03-.03.03-.07.03-.11v-.41c0-.19-.13-.43-.31-.53Z"/>
      <path class="cls-2" d="M25.12,22.57s0,0-.03,0c-.08,0-.16-.03-.24-.08l-.11-.06c-.26-.15-.47-.5-.47-.8v-.41c0-.08.03-.15.05-.22.05-.13.18-.21.31-.19.08.01.16.04.24.08,0,0,.1.06.1.07.26.15.47.49.47.79v.41c0,.08-.03.15-.05.21-.03.12-.16.2-.29.2Z"/>
      <path class="cls-3" d="M22.95,20.11c-.05-.02-.08-.04-.1-.06-.05-.03-.11-.04-.13-.04,0,.03-.03.07-.03.1v.41c0,.19.16.43.31.53.03.02.08.04.11.06.05.02.08.04.13.04v-.52c0-.19-.13-.43-.29-.53Z"/>
      <path class="cls-2" d="M23.24,21.46s-.03,0-.03,0c-.1,0-.18-.03-.26-.08l-.1-.07c-.26-.15-.45-.49-.45-.79v-.41c0-.08,0-.15.03-.21.05-.13.18-.22.31-.2.08,0,.18.04.26.08l.11.06c.26.15.45.49.45.79v.41c0,.08,0,.15-.03.21-.05.12-.16.2-.29.2Z"/>
      <path class="cls-3" d="M21.04,19.01l-.11-.06c-.05-.02-.08-.04-.13-.04v.52c0,.19.13.43.29.53l.13.06s.08.04.1.04c.03-.03.03-.06.03-.1v-.41c0-.19-.13-.43-.31-.53Z"/>
      <path class="cls-2" d="M21.33,20.37h-.03c-.08,0-.16-.03-.24-.08l-.1-.07c-.26-.15-.47-.49-.47-.79v-.41c0-.08.03-.15.05-.21.03-.13.16-.21.31-.2.08,0,.16.03.24.08l.11.07c.26.15.47.49.47.79v.41c0,.08-.03.15-.05.21-.03.12-.16.2-.29.2Z"/>
      <path class="cls-3" d="M19.2,17.95c-.05-.02-.08-.04-.13-.06-.03-.02-.08-.04-.1-.04,0,.03-.03.07-.03.11v.41c0,.19.16.43.31.53.03.02.08.04.1.06.05.02.08.04.13.04v-.52c0-.19-.13-.43-.29-.53Z"/>
      <path class="cls-2" d="M19.49,19.3h-.03c-.08-.01-.18-.03-.26-.08l-.1-.07c-.26-.15-.45-.49-.45-.79v-.41c0-.08,0-.15.03-.21.05-.13.18-.21.31-.2.08,0,.16.03.24.08l.13.06h0c.26.15.45.49.45.79v.41c0,.08,0,.15-.03.21-.05.12-.16.2-.29.2Z"/>
      <path class="cls-3" d="M17.29,16.85s-.08-.04-.1-.06c-.05-.03-.08-.04-.13-.04v.52c0,.19.13.43.29.52.05.02.08.05.13.07.03.02.08.04.11.04,0-.03.03-.07.03-.11v-.42c0-.19-.13-.43-.31-.52Z"/>
      <path class="cls-2" d="M17.58,18.2s-.03,0-.03,0c-.08,0-.16-.03-.24-.08l-.13-.07c-.24-.15-.45-.49-.45-.79v-.42c0-.08.03-.15.05-.22.05-.13.16-.21.29-.19.11.01.18.04.26.08l.11.06h0c.26.15.47.49.47.79v.42c0,.08-.03.15-.05.21-.05.12-.16.2-.29.2Z"/>
      <path class="cls-1" d="M20.25,26.01l-3.85-2.22c-.94-.31-2.15,1.78-1.39,2.43l3.83,2.22c-.31-.27-.24-.8-.13-1.16.1-.27.24-.53.42-.75.26-.3.71-.65,1.13-.52Z"/>
      <path class="cls-2" d="M16.19,24.05c-.24,0-.6.3-.86.75-.29.49-.34,1-.13,1.18l3.12,1.79c0-.26.08-.48.1-.59.11-.3.29-.6.47-.85.08-.1.26-.3.52-.45l-3.17-1.82s-.03,0-.05,0h0ZM18.84,28.75c-.05,0-.11-.01-.13-.04l-3.85-2.22c-.52-.43-.52-1.2-.05-1.99.37-.66,1.05-1.22,1.7-1l3.9,2.25c.13.08.18.25.13.39-.08.14-.24.22-.39.16-.24-.07-.55.16-.79.42-.16.2-.29.42-.37.66-.1.3-.13.68.05.83.1.1.13.28.05.41-.08.08-.16.13-.26.13Z"/>
      <path class="cls-1" d="M25.73,23.78c-6.37,1.33-12.76,2.67-19.12,4-.86.18-1.76.07-2.41-.31l-2.46-1.41,16.74-6.45,7.26,4.18Z"/>
      <path class="cls-2" d="M2.44,26.11l1.89,1.09c.6.34,1.44.44,2.23.28l18.31-3.83-6.42-3.7L2.44,26.11h0ZM5.79,28.17c-.65,0-1.26-.15-1.76-.44l-2.44-1.41c-.11-.06-.18-.17-.16-.29,0-.12.08-.22.18-.26l16.74-6.45c.1-.03.18-.03.26.02l7.26,4.18c.1.06.16.19.13.31,0,.13-.11.23-.24.25l-19.1,4c-.31.06-.6.09-.89.09Z"/>
      <path class="cls-1" d="M9.09,11.96l-6.03.9c-.68.08-1.28-.03-1.78-.31l-.97-.56,4.98-2.87,3.8,2.85Z"/>
      <path class="cls-2" d="M.92,11.99l.52.3c.42.25.97.34,1.57.27l5.29-.79-3.04-2.28L.92,11.99h0ZM2.65,13.19c-.58,0-1.07-.13-1.52-.38l-.97-.56c-.1-.06-.16-.16-.16-.27s.05-.21.16-.27l4.98-2.87c.1-.07.23-.06.34.02l3.8,2.85c.1.08.13.2.1.32-.03.12-.13.21-.23.23l-6.05.9c-.16.02-.29.03-.45.03Z"/>
      <polygon class="cls-3" points="4.53 7.58 3.17 .31 5.29 1.52 10.24 10.47 4.53 7.58"/>
      <path class="cls-2" d="M4.82,7.38l4.66,2.37L5.06,1.75l-1.44-.84,1.21,6.47h0ZM10.24,10.78c-.05,0-.1-.01-.13-.03l-5.71-2.89c-.08-.04-.16-.12-.16-.22L2.88.36c-.03-.12.03-.24.1-.31.11-.07.24-.08.34-.02l2.12,1.22s.08.07.1.12l4.95,8.95c.08.12.05.27-.03.36-.08.06-.16.09-.24.09Z"/>
      <path class="cls-2" d="M34.74,18.66c-.05,0-.1-.01-.16-.04l-.6-.36c-.16-.08-.21-.27-.13-.42.1-.15.29-.2.42-.11l.63.35c.16.09.21.27.1.42-.05.1-.16.15-.26.15Z"/>
      <path class="cls-4" d="M19.68,28.5c.58-.33,1.02-1.12,1.02-1.78s-.45-.92-1.02-.59c-.58.33-1.02,1.12-1.02,1.78s.45.92,1.02.59Z"/>
      <path class="cls-2" d="M20.15,26.3c-.1,0-.21.03-.31.1-.47.27-.89.96-.89,1.51,0,.2.05.35.16.4.08.05.26.03.42-.07.47-.27.89-.96.89-1.51,0-.2-.08-.34-.16-.4-.03-.02-.08-.03-.1-.03h0ZM19.2,28.95c-.16,0-.29-.04-.42-.11-.29-.17-.45-.51-.45-.93,0-.76.52-1.66,1.18-2.05.37-.21.76-.24,1.05-.07.26.17.45.51.45.93,0,.77-.52,1.66-1.18,2.05-.21.12-.42.18-.63.18Z"/>
      <path class="cls-2" d="M19.68,27.62c-.05,0-.11-.01-.16-.04l-.63-.35c-.13-.09-.18-.27-.11-.42.08-.15.29-.2.42-.11l.63.36c.13.08.18.27.1.42-.05.1-.16.16-.26.16Z"/>
    </g>
  </g>
</svg>