<?xml version="1.0" encoding="UTF-8"?>
<svg id="Layer_2" data-name="Layer 2" xmlns="http://www.w3.org/2000/svg" viewBox="0 0 20.18 40.31" fill="currentColor">
  <defs>
    <style>
      .cls-1 {
        fill: #fff;
      }

      .cls-1, .cls-2, .cls-3, .cls-4 {
        fill-rule: evenodd;
      }

      .cls-2 {
        fill: #1a87c7;
      }

      .cls-3 {
        fill: #bdedf8;
      }

      .cls-4 {
        fill: #66ceef;
      }
    </style>
  </defs>
  <g id="_Layer_" data-name="&amp;lt;Layer&amp;gt;">
    <g>
      <path class="cls-4" d="M18.88,33.09v2.28l-.05.24c-.1.42-.31.84-.56,1.19-.84,1.2-2.36,2.02-3.72,2.49-3.09,1.05-7.16.96-10.12-.43-1.06-.51-2.16-1.27-2.78-2.29-.17-.28-.32-.63-.4-.96l-.05-.24v-2.28c.04.17.06.32.12.49.14.42.38.84.66,1.18.86,1.08,2.26,1.83,3.55,2.26,3.17,1.08,7.46.95,10.46-.61.94-.48,1.89-1.2,2.43-2.11.18-.29.33-.63.41-.96l.05-.24Z"/>
      <path class="cls-2" d="M1.5,34.64v.73l.05.18c.07.26.21.59.37.86.5.83,1.43,1.59,2.64,2.16,2.8,1.31,6.77,1.49,9.89.43.93-.32,2.63-1.05,3.56-2.37.23-.34.42-.74.51-1.1l.04-.23v-.68c-.66.98-1.68,1.65-2.44,2.05-2.97,1.55-7.28,1.81-10.71.63-.92-.31-2.63-1.04-3.69-2.36-.08-.1-.16-.21-.24-.31h0ZM10.05,40.31c-2.05,0-4.1-.4-5.75-1.17-.93-.44-2.19-1.22-2.91-2.41-.2-.32-.36-.7-.44-1.04l-.05-.25v-2.34c0-.16.11-.29.27-.3.15-.01.3.09.33.24.04.17.07.3.11.45.12.36.35.76.61,1.09.96,1.2,2.54,1.87,3.41,2.16,3.23,1.1,7.44.86,10.22-.59.74-.38,1.74-1.04,2.31-1.99.17-.28.3-.6.37-.88l.04-.23c.03-.16.17-.26.33-.24.16.02.28.15.28.3v2.28l-.05.3c-.11.44-.33.9-.61,1.31-1.04,1.47-2.87,2.26-3.88,2.61-1.41.49-3,.72-4.6.72Z"/>
      <path class="cls-3" d="M3.45,17.17c3.63-2.1,9.53-2.1,13.18,0,3.64,2.1,3.64,5.51,0,7.61-3.63,2.1-9.54,2.1-13.19,0-3.64-2.1-3.63-5.51.01-7.61Z"/>
      <path class="cls-2" d="M10.04,15.9c-2.33,0-4.67.51-6.44,1.53h0c-1.66.96-2.57,2.22-2.57,3.54s.91,2.58,2.57,3.54c3.56,2.05,9.33,2.05,12.88,0,1.66-.95,2.57-2.21,2.57-3.54s-.91-2.58-2.57-3.54c-1.78-1.02-4.11-1.53-6.44-1.53h0ZM10.04,26.66c-2.44,0-4.88-.54-6.74-1.62-1.86-1.07-2.89-2.52-2.89-4.07s1.03-3,2.89-4.08h0c3.72-2.15,9.77-2.15,13.49,0,1.86,1.08,2.88,2.52,2.88,4.08s-1.03,3-2.88,4.07c-1.86,1.08-4.3,1.62-6.75,1.62Z"/>
      <path class="cls-3" d="M19.32,21.49v11.97l-.05.26c-.1.44-.33.89-.58,1.25-.89,1.26-2.48,2.12-3.91,2.62-3.23,1.1-7.52,1-10.63-.47-1.11-.52-2.27-1.32-2.92-2.39-.17-.3-.34-.68-.42-1.01l-.05-.26v-11.97c.04.17.07.33.13.51.15.43.41.88.69,1.23.9,1.13,2.37,1.91,3.72,2.37,3.35,1.14,7.84,1.01,11-.64.98-.51,1.97-1.25,2.55-2.22.18-.3.35-.67.43-1.01l.05-.25Z"/>
      <path class="cls-2" d="M1.06,23.05v10.4l.04.19c.07.29.22.63.39.91.52.88,1.51,1.68,2.78,2.28,2.95,1.39,7.13,1.57,10.41.45.98-.34,2.77-1.1,3.75-2.49.24-.36.44-.78.54-1.16l.05-.24v-10.34c-.7,1.05-1.79,1.77-2.6,2.19-3.11,1.63-7.62,1.89-11.23.66-.97-.33-2.76-1.1-3.87-2.48-.09-.12-.19-.24-.27-.37h0ZM10.05,38.64c-2.16,0-4.29-.42-6.03-1.24-.97-.45-2.3-1.26-3.05-2.51-.2-.34-.37-.74-.46-1.1l-.05-.27v-12.03c0-.17.11-.3.27-.31.15,0,.3.1.33.24.03.18.06.32.12.48.12.38.35.8.63,1.15,1.02,1.26,2.69,1.97,3.59,2.28,3.4,1.15,7.82.9,10.74-.63.78-.41,1.83-1.09,2.44-2.1.18-.29.31-.63.39-.92l.05-.25c.02-.15.17-.26.33-.24.16.02.28.16.28.31v11.97l-.06.32c-.12.46-.34.95-.64,1.37-1.08,1.54-3.01,2.37-4.06,2.73-1.5.51-3.17.76-4.83.76Z"/>
      <path class="cls-3" d="M18.04,16.16v4.47l-.04.21c-.1.37-.29.77-.51,1.08-.83,1.18-2.36,1.95-3.71,2.36-2.72.83-6.23.7-8.81-.51-.96-.45-1.95-1.14-2.51-2.06-.16-.26-.3-.58-.36-.87l-.05-.21v-4.47c.03.16.05.29.11.45.16.46.44.91.77,1.27.86.95,2.17,1.58,3.38,1.95,2.81.85,6.49.7,9.12-.67.77-.4,1.55-.97,2.07-1.7.22-.32.41-.7.51-1.08l.04-.23Z"/>
      <path class="cls-2" d="M2.35,17.65v2.98l.04.15c.05.24.18.53.32.78.45.74,1.3,1.43,2.38,1.94,2.4,1.13,5.85,1.33,8.59.5,1.6-.49,2.89-1.3,3.55-2.24.21-.31.37-.66.45-.98l.04-.21v-2.91c-.61.86-1.51,1.44-2.17,1.79-2.56,1.33-6.31,1.61-9.35.68-.86-.26-2.46-.87-3.52-2.03-.12-.14-.24-.29-.35-.44h0ZM10.04,25.13c-1.86,0-3.7-.36-5.21-1.08-.84-.39-1.99-1.1-2.64-2.18-.18-.3-.33-.65-.4-.96l-.05-.23v-4.53c0-.15.11-.29.27-.3.17-.02.3.09.33.24.03.15.06.27.1.41.13.39.38.8.71,1.15.97,1.06,2.44,1.63,3.24,1.87,2.89.88,6.47.62,8.89-.64.59-.31,1.42-.84,1.96-1.61.21-.3.37-.65.45-.97l.04-.21c.03-.15.17-.26.34-.24.15.02.27.15.27.3v4.47l-.05.28c-.1.41-.3.83-.55,1.2-1.02,1.43-2.86,2.16-3.88,2.48-1.21.36-2.52.55-3.83.55Z"/>
      <path class="cls-3" d="M19.32,12.64v3.77l-.05.25c-.1.43-.33.89-.58,1.25-.89,1.27-2.48,2.13-3.91,2.62-3.23,1.1-7.52,1.01-10.63-.46-1.03-.49-2.1-1.21-2.76-2.16-.26-.36-.48-.81-.59-1.25l-.05-.25v-3.77c.04.18.07.34.13.51.15.43.41.88.69,1.24.9,1.13,2.37,1.91,3.72,2.37,3.35,1.14,7.84,1,11-.64.98-.51,1.97-1.26,2.55-2.22.18-.3.35-.67.43-1.01l.05-.26Z"/>
      <path class="cls-2" d="M1.06,14.21v2.21l.04.19c.09.36.29.78.54,1.14.55.78,1.48,1.5,2.63,2.05,2.95,1.39,7.13,1.56,10.41.45.98-.34,2.77-1.11,3.75-2.5.24-.36.44-.77.54-1.15l.05-.25v-2.14c-.7,1.05-1.79,1.77-2.6,2.19-3.11,1.62-7.62,1.89-11.23.66-.97-.33-2.76-1.09-3.87-2.47-.09-.12-.19-.25-.27-.38h0ZM10.05,21.58c-2.16,0-4.29-.42-6.03-1.23-.89-.42-2.1-1.15-2.88-2.25-.3-.42-.52-.9-.63-1.35l-.05-.27v-3.83c0-.16.11-.29.27-.3.15-.02.3.09.33.24.03.17.06.31.12.48.12.37.35.79.63,1.14,1.02,1.26,2.69,1.97,3.59,2.28,3.4,1.17,7.82.9,10.74-.63.78-.4,1.83-1.1,2.44-2.1.18-.28.31-.63.39-.92l.05-.24c.02-.16.17-.26.33-.24.16.02.28.15.28.3v3.77l-.06.31c-.12.47-.34.95-.64,1.37-1.08,1.54-3.01,2.37-4.06,2.73-1.5.5-3.17.75-4.83.75Z"/>
      <path class="cls-1" d="M19.32,22.73v8.74l-.05.26c-.1.43-.33.89-.58,1.25-.89,1.27-2.48,2.13-3.91,2.62-3.23,1.1-7.52,1-10.63-.46-1.11-.52-2.27-1.33-2.92-2.4-.17-.3-.34-.67-.42-1.01l-.05-.26v-8.74c.04.18.07.33.13.51.15.44.41.88.69,1.23.9,1.13,2.37,1.91,3.72,2.37,3.35,1.15,7.84,1.01,11-.63.98-.51,1.97-1.26,2.55-2.22.18-.3.35-.68.43-1.02l.05-.25Z"/>
      <path class="cls-2" d="M1.06,24.3v7.18l.04.2c.07.28.22.63.39.91.52.87,1.51,1.68,2.78,2.28,2.95,1.38,7.13,1.56,10.41.44.98-.33,2.77-1.1,3.75-2.49.24-.36.44-.78.54-1.16l.05-.24v-7.12c-.7,1.05-1.79,1.77-2.6,2.19-3.11,1.63-7.62,1.9-11.23.66-.97-.33-2.76-1.09-3.87-2.47-.09-.12-.19-.25-.27-.38h0ZM10.05,36.66c-2.16,0-4.29-.42-6.03-1.23-.97-.46-2.3-1.27-3.05-2.52-.21-.34-.37-.74-.46-1.09l-.05-.27v-8.81c0-.16.11-.3.27-.31.15-.02.3.09.33.24.03.18.06.31.12.48.12.37.35.79.63,1.14,1.02,1.26,2.69,1.96,3.59,2.28,3.4,1.16,7.82.9,10.74-.63.78-.4,1.83-1.09,2.44-2.1.18-.29.31-.63.39-.92l.05-.24c.02-.16.17-.26.33-.24.16.02.28.15.28.31v8.74l-.06.32c-.12.47-.34.95-.64,1.38-1.08,1.53-3.01,2.36-4.06,2.72-1.5.51-3.17.77-4.83.77Z"/>
      <path class="cls-2" d="M11.99,30.01c-.15,0-.29-.11-.3-.27-.02-.17.1-.32.28-.34,1.79-.18,3.33-.62,4.45-1.27,1.55-.9,2.48-2.07,2.61-3.3.02-.17.18-.29.34-.27.18.02.3.17.28.34-.16,1.44-1.19,2.78-2.92,3.76-1.2.69-2.82,1.16-4.69,1.35h-.04Z"/>
      <path class="cls-2" d="M11.99,31.83c-.15,0-.29-.11-.3-.28-.02-.17.1-.31.28-.33,1.79-.18,3.33-.62,4.45-1.27,1.55-.89,2.48-2.07,2.61-3.3.02-.18.18-.29.34-.28.18.02.3.17.28.35-.16,1.44-1.19,2.77-2.92,3.76-1.2.69-2.82,1.16-4.69,1.35h-.04Z"/>
      <path class="cls-2" d="M11.99,33.66c-.15,0-.29-.11-.3-.28-.02-.17.1-.31.28-.33,1.79-.18,3.33-.63,4.45-1.27,1.55-.9,2.48-2.07,2.61-3.3.02-.17.18-.29.34-.28.18.03.3.17.28.34-.16,1.44-1.19,2.78-2.92,3.77-1.2.7-2.82,1.16-4.69,1.35h-.04Z"/>
      <path class="cls-4" d="M8.63,33.99c1.16,0,1.91-1.35,1.39-2.42-.31-.63-.91-1.46-1.26-2.02-.06-.09-.19-.09-.25,0-.35.57-.96,1.41-1.27,2.04-.51,1.07.25,2.41,1.39,2.41Z"/>
      <path class="cls-2" d="M8.63,29.92c-.09.14-.18.29-.28.44-.31.45-.63.96-.84,1.37-.2.42-.16.94.09,1.35.49.76,1.58.76,2.05,0,.26-.42.3-.94.09-1.37-.2-.41-.53-.91-.83-1.36-.09-.15-.19-.29-.28-.43h0ZM8.63,34.29c-.62,0-1.2-.33-1.55-.89-.37-.61-.42-1.34-.12-1.95.22-.45.57-.96.87-1.44.15-.23.3-.44.42-.63.17-.27.61-.27.77,0,.11.18.25.4.4.63.31.46.66.99.88,1.43.3.61.25,1.37-.11,1.96-.35.57-.93.9-1.56.9Z"/>
      <path class="cls-1" d="M19.83,10.66c0,2.17.23,3.45-2.15,5.13C12.2,19.67.36,17.81.36,12.21v-1.55c1.41,6.77,18.07,6.77,19.47,0Z"/>
      <path class="cls-2" d="M.66,12.25c.03,1.97,1.61,3.19,2.94,3.88,3.57,1.85,10.16,2.06,13.91-.59,1.61-1.14,1.95-2.02,2.01-3.27-1.61,2.61-5.65,3.79-9.42,3.79h0c-3.77,0-7.82-1.19-9.43-3.8h0ZM10.16,18.15c-2.54,0-5.02-.54-6.85-1.48C1.21,15.59.05,14,.05,12.21v-1.55c0-.15.11-.29.27-.31.16,0,.31.1.34.24.69,3.35,5.23,4.84,9.43,4.84h0c4.2,0,8.75-1.49,9.44-4.83.03-.15.17-.26.33-.24.16.01.28.15.28.3v.51c.02,1.88.03,3.23-2.28,4.88-2.09,1.47-4.92,2.11-7.7,2.11Z"/>
      <path class="cls-1" d="M3.18,6.12c3.81-2.21,10-2.21,13.83,0,3.81,2.21,3.81,5.78,0,7.99-3.82,2.2-10.01,2.2-13.84,0-3.81-2.21-3.81-5.78.01-7.99Z"/>
      <path class="cls-2" d="M10.09,4.77c-2.45,0-4.89.54-6.76,1.61-1.75,1.02-2.71,2.34-2.71,3.73s.96,2.72,2.71,3.73c3.73,2.15,9.8,2.16,13.52,0,1.75-1.01,2.71-2.33,2.71-3.73s-.96-2.71-2.71-3.73c-1.86-1.07-4.31-1.61-6.76-1.61h0ZM10.09,16.06c-2.56,0-5.12-.56-7.07-1.69-1.95-1.12-3.03-2.63-3.03-4.26s1.08-3.13,3.03-4.26c3.89-2.25,10.24-2.25,14.13,0,1.95,1.12,3.03,2.64,3.03,4.26s-1.07,3.14-3.02,4.26c-1.95,1.13-4.51,1.69-7.07,1.69Z"/>
      <path class="cls-1" d="M18.62,5.22c0,1.14.15,4.28-.16,5.2-1.23,3.68-7.78,4.51-11.58,3.63-2.18-.51-5.27-1.95-5.32-4.56v-4.26c.24,5.97,14.51,6.61,16.81,1.17l.24-1.17Z"/>
      <path class="cls-2" d="M1.87,7.18v2.29c.05,2.28,2.77,3.72,5.08,4.26,3.81.89,10.07,0,11.22-3.42.18-.54.18-1.99.17-3.22-1.8,2.88-6.83,3.83-11,3.08-2.63-.48-4.55-1.56-5.47-3h0ZM10.02,14.68c-1.14,0-2.24-.12-3.21-.35-2.65-.62-5.5-2.22-5.56-4.86v-4.26c0-.16.14-.31.3-.31.18-.02.31.13.31.3.09,2.11,2.17,3.75,5.58,4.37,4.13.75,9.38-.3,10.65-3.3l.23-1.12c.03-.16.17-.25.33-.24.16.02.28.15.28.31,0,.24,0,.57,0,.95.04,1.88.06,3.63-.18,4.35-.97,2.91-5.03,4.17-8.74,4.17Z"/>
      <path class="cls-1" d="M4.06,1.74C7.4-.18,12.79-.18,16.12,1.74c3.33,1.92,3.33,5.04,0,6.96-3.33,1.92-8.73,1.92-12.06,0C.73,6.78.73,3.66,4.06,1.74Z"/>
      <path class="cls-2" d="M4.22,2.01c-1.51.87-2.34,2.01-2.34,3.21s.83,2.34,2.34,3.21c3.24,1.88,8.51,1.88,11.75,0,1.51-.87,2.34-2.01,2.34-3.21s-.83-2.35-2.34-3.21C12.72.14,7.46.13,4.22,2.01h0ZM10.09,10.45c-2.24,0-4.48-.49-6.18-1.48-1.71-.99-2.65-2.32-2.65-3.75,0-1.43.94-2.76,2.65-3.75h0C7.32-.49,12.86-.49,16.27,1.47c1.71.99,2.66,2.32,2.66,3.75s-.95,2.76-2.65,3.75c-1.71.98-3.95,1.48-6.19,1.48Z"/>
      <path class="cls-4" d="M11.55,3.99v1.16c-.02.07-.06.14-.1.2-.15.22-.43.35-.68.42-.43.13-.93.13-1.36,0-.26-.08-.56-.23-.7-.47-.02-.04-.04-.08-.05-.11l-.02-.04v-.04s0-1.5,0-1.5c0,.03.02.05.03.09.03.11.12.22.21.3.19.16.45.27.68.32.44.1.98.08,1.42-.1.18-.07.37-.19.49-.36.03-.04.05-.08.07-.12.01-.03.02-.05.03-.08v.34Z"/>
      <path class="cls-2" d="M8.94,4.41v.7c.11.17.3.3.56.37.36.11.82.11,1.18,0,.23-.07.42-.18.51-.31.02-.03.03-.06.04-.1v-.66c-.05.04-.11.06-.17.08-.47.2-1.07.24-1.6.12-.15-.03-.35-.09-.53-.2h0ZM10.09,6.18c-.26,0-.53-.03-.77-.11-.23-.07-.65-.24-.87-.6-.03-.06-.07-.12-.09-.18,0-.03-.03-.16-.03-.18v-1.5c0-.16.12-.29.28-.3.16-.02.3.09.33.24.03.11.08.17.14.22.12.11.31.2.54.25.4.09.87.06,1.23-.09.15-.07.29-.17.36-.26h.03s0,0,0,0h.14s-.13-.08-.13-.08c.04-.14.18-.24.34-.22.15.02.27.14.27.29v.34s0,.01,0,.01v1.12s0,.08-.02.1c-.03.11-.08.22-.14.31-.22.32-.63.48-.84.55-.24.08-.51.11-.77.11Z"/>
      <path class="cls-3" d="M8.55,1.48c.85-.5,2.22-.5,3.08,0,.84.49.85,1.28,0,1.77-.85.49-2.22.49-3.08,0-.85-.5-.84-1.29,0-1.77Z"/>
      <path class="cls-2" d="M10.09,1.42c-.5,0-1.01.1-1.38.32-.3.18-.49.41-.49.63s.18.44.49.62c.75.43,2.01.43,2.76,0,.3-.17.48-.4.48-.62s-.18-.45-.48-.63c-.37-.22-.88-.32-1.38-.32h0ZM10.09,3.93c-.61,0-1.22-.14-1.7-.41-.5-.3-.79-.7-.79-1.16s.29-.86.8-1.16c.95-.55,2.42-.55,3.37,0,.51.3.8.7.8,1.16s-.29.86-.79,1.15c-.48.28-1.09.42-1.7.42Z"/>
      <path class="cls-4" d="M12.26,2.49v1.03c-.07.22-.23.42-.41.56-.29.23-.68.37-1.04.44-.69.14-1.55.08-2.18-.25-.16-.1-.34-.21-.47-.36-.07-.08-.14-.18-.18-.28-.02-.03-.04-.09-.04-.12v-.06s0-.96,0-.96c0,.04.02.08.03.11.03.08.08.17.12.24.23.32.64.53,1.01.64.68.21,1.54.19,2.21-.07.26-.1.54-.25.73-.46.09-.11.18-.25.23-.4v-.06Z"/>
      <path class="cls-2" d="M8.23,3.41v.04c.06.12.11.2.17.26.09.09.22.2.38.28.52.27,1.29.36,1.97.23.36-.08.69-.21.9-.38.1-.09.24-.22.29-.4v-.02c-.19.13-.39.23-.55.29-.72.27-1.64.29-2.41.07-.19-.06-.49-.17-.76-.36h0ZM10.09,4.9c-.57,0-1.15-.12-1.6-.36-.15-.08-.37-.22-.56-.42-.07-.08-.17-.21-.24-.37-.02-.04-.04-.11-.05-.17,0-.02-.02-.1-.02-.13v-.96c0-.16.11-.3.27-.31.17,0,.3.09.34.24l-.09.07.11.02c.02.05.04.11.08.16.15.21.46.4.84.52.63.19,1.42.17,2.01-.06.26-.09.48-.24.61-.38.08-.09.14-.18.16-.27.04-.15.17-.27.35-.26.15.02.28.12.28.28v.96s-.02.11-.03.12c-.07.29-.24.54-.51.74-.3.23-.71.42-1.16.5-.25.05-.52.08-.78.08Z"/>
    </g>
  </g>
</svg>