<?xml version="1.0" encoding="UTF-8"?>
<svg id="Layer_2" data-name="Layer 2" xmlns="http://www.w3.org/2000/svg" viewBox="0 0 67.32 94.19" fill="currentColor">
  <defs>
    <style>
      .cls-1 {
        fill: #fff;
      }

      .cls-1, .cls-2, .cls-3, .cls-4 {
        fill-rule: evenodd;
      }

      .cls-2 {
        fill: #1a87c7;
      }

      .cls-3 {
        fill: #bdedf8;
      }

      .cls-4 {
        fill: #66ceef;
      }
    </style>
  </defs>
  <g id="_Layer_" data-name="&amp;lt;Layer&amp;gt;">
    <g>
      <path class="cls-4" d="M9.72,80.04l-8.43,4.87c-.37.25-.64.67-.64,1.13v2.61c0,.16.05.34.16.42l7.74,4.45c-.16-.09-.16-.25-.21-.42v-2.61c.05-.44.27-.89.69-1.11l8.38-4.87.11-.04.05-.04.05-.02h.16l.05.02.05.02-7.69-4.44-.05-.02-.05-.02-.05-.02h-.05l-.11.02-.05.02-.05.02-.05.04Z"/>
      <path class="cls-2" d="M1.28,88.59l6.46,3.72v-1.82c0-.67.37-1.3.91-1.65l7.79-4.5-6.46-3.74-8.38,4.85c-.21.13-.32.36-.32.62v2.51h0ZM8.54,94.15c-.11,0-.21-.03-.32-.08l-7.69-4.46c-.27-.12-.53-.39-.53-.94v-2.62c.05-.69.37-1.29.96-1.67l8.43-4.87v-.02l.11-.04.16-.07c.05-.02.16-.04.21-.05h.16s.16.02.21.03c.05,0,.11.04.16.05l7.79,4.5c.27.16.37.53.27.82-.16.28-.48.41-.75.32l-8.38,4.85c-.21.13-.37.37-.37.62v2.55c.21.2.27.52.11.76-.11.19-.32.32-.53.32Z"/>
      <path class="cls-1" d="M17.41,84.5l-8.38,4.87c-.37.21-.69.71-.69,1.11v2.61c0,.42.32.58.69.39l8.38-4.87c.37-.21.69-.73.69-1.13v-2.6c0-.41-.32-.58-.69-.37Z"/>
      <path class="cls-2" d="M17.41,84.5l.32.53h.05l-.37-.53h0ZM17.46,85.21l-8.11,4.69c-.21.11-.37.41-.37.59v2.26l8.11-4.69c.21-.09.37-.39.37-.58v-2.27h0ZM8.7,94.19c-.16,0-.32-.04-.48-.12-.32-.2-.48-.55-.48-.97v-2.61c0-.64.37-1.35.96-1.67l8.38-4.87h0c.37-.21.8-.24,1.12-.04.32.18.48.53.48.96v2.6c0,.64-.37,1.35-.96,1.67l-8.38,4.87c-.21.12-.43.18-.64.18Z"/>
      <path class="cls-3" d="M.85,85.31l7.74,4.46c.11-.19.21-.3.43-.41l8.38-4.87c.16-.09.32-.13.48-.06l-7.69-4.44c-.21-.09-.32-.04-.48.04l-8.43,4.87c-.16.12-.27.23-.43.41Z"/>
      <path class="cls-2" d="M1.98,85.23l6.51,3.75c.05-.05.11-.11.16-.14l7.79-4.5-6.46-3.72-8.01,4.61h0ZM8.6,90.4c-.11,0-.21-.02-.32-.09l-7.74-4.45c-.11-.09-.21-.25-.27-.41-.05-.17,0-.35.11-.49.16-.21.32-.41.59-.59l8.43-4.87c.16-.11.59-.3,1.07-.07l7.74,4.48c.27.16.37.53.27.83-.16.28-.53.4-.85.27l-8.27,4.89c-.11.05-.16.11-.21.23-.16.18-.32.26-.53.26Z"/>
      <path class="cls-4" d="M58.3,52l-8.44,4.85c-.37.27-.64.67-.64,1.13v2.61c0,.16.05.34.16.42l7.74,4.45c-.16-.09-.16-.25-.21-.41v-2.61c.05-.46.32-.89.69-1.13l8.38-4.87.11-.04.05-.02.05-.02.05-.02h.05l.05.02h.05l.05.04-7.69-4.46-.05-.02-.05-.02h-.16l-.11.02-.05.03-.05.04Z"/>
      <path class="cls-2" d="M49.86,60.54l6.46,3.74v-1.83c0-.69.37-1.31.91-1.67l7.8-4.5-6.46-3.72-8.38,4.84c-.16.12-.32.35-.32.62v2.52h0ZM57.13,66.1c-.11,0-.21-.04-.32-.09l-7.69-4.46c-.27-.12-.53-.39-.53-.94v-2.62c.05-.69.37-1.29.96-1.64l8.44-4.89v-.02l.11-.04s.16-.05.16-.07c.05,0,.16-.04.21-.04,0,0,.16-.02.21-.02.05.02.11.02.16.03.05.02.16.06.21.07l7.74,4.48c.32.16.43.53.27.83-.16.27-.48.39-.75.32l-8.38,4.85c-.21.11-.37.35-.37.6v2.55c.21.2.27.51.11.76-.11.21-.32.32-.53.32Z"/>
      <path class="cls-1" d="M65.99,56.45l-8.38,4.87c-.37.21-.69.71-.69,1.13v2.61c0,.41.32.58.69.37l8.38-4.87c.37-.21.69-.7.69-1.13v-2.6c0-.41-.32-.58-.69-.37Z"/>
      <path class="cls-2" d="M65.99,56.45l.32.53h.05l-.37-.53h0ZM66.04,57.15l-8.11,4.71c-.16.09-.37.39-.37.58v2.27l8.17-4.71c.16-.09.32-.39.32-.58v-2.27h0ZM57.29,66.13c-.16,0-.32-.03-.48-.12-.32-.18-.48-.53-.48-.96v-2.61c0-.64.37-1.36.96-1.68l8.44-4.87h0c.37-.21.75-.23,1.07-.04.32.18.53.53.53.96v2.6c0,.64-.43,1.36-1.01,1.68l-8.38,4.87c-.21.11-.43.16-.64.16Z"/>
      <path class="cls-3" d="M49.33,57.47l7.74,4.45c.11-.25.27-.44.53-.6l8.38-4.87c.16-.09.32-.13.48-.04l-7.69-4.46c-.21-.07-.32-.04-.48.05l-8.44,4.87c-.21.14-.37.34-.53.6Z"/>
      <path class="cls-2" d="M50.35,57.31l6.51,3.78c.11-.11.27-.21.37-.3l7.8-4.5-6.46-3.72-8.22,4.75h0ZM57.07,62.55c-.11,0-.21-.04-.32-.08l-7.74-4.47c-.27-.16-.37-.51-.21-.81.16-.37.43-.66.75-.85l8.44-4.89c.16-.09.59-.3,1.07-.07l7.74,4.48c.32.16.43.53.27.83-.16.3-.53.43-.85.28l-8.28,4.89c-.11.07-.21.16-.27.32-.11.16-.21.28-.43.33-.05.02-.11.04-.16.04Z"/>
      <path class="cls-4" d="M60.81,9.51l-2.56-1.48c-.27-.11-.43-.06-.64.07l-1.98,1.15c-.53.34-.85.91-.91,1.53v45.91l2.62,1.48V12.24c0-.6.32-1.19.85-1.51l1.98-1.15c.21-.12.43-.18.64-.07Z"/>
      <path class="cls-2" d="M55.36,56.32l1.34.76V12.24c.05-.83.48-1.61,1.17-2.04l1.44-.83-1.39-.8-1.98,1.22c-.32.2-.59.59-.59.99v45.54h0ZM57.34,58.78c-.11,0-.21-.02-.32-.07l-2.62-1.48c-.16-.12-.27-.32-.27-.55V10.77c0-.85.48-1.61,1.12-2.06l2.03-1.17c.27-.11.69-.34,1.23-.09l2.62,1.51c.27.18.37.55.27.85-.16.28-.53.41-.85.26l.27-.57-.27.57-2.03,1.21c-.32.19-.53.59-.59.99v45.89c0,.23-.11.43-.27.55-.11.05-.21.07-.32.07Z"/>
      <path class="cls-1" d="M61.08,31.07V10.07c0-.54-.37-.78-.91-.5l-1.98,1.15c-.21.14-.48.37-.64.66-.16.27-.21.58-.21.85v45.92l3.74-2.16v-24.94Z"/>
      <path class="cls-2" d="M60.44,10.16l-1.92,1.12c-.16.07-.32.23-.43.41-.11.2-.16.39-.16.55v44.85l2.51-1.45V10.16h0ZM57.34,58.78c-.11,0-.21-.02-.32-.07-.21-.12-.32-.32-.32-.55V12.24c0-.37.11-.8.32-1.17.21-.39.53-.69.85-.89l2.03-1.15c.43-.25.85-.27,1.23-.06.37.2.59.6.59,1.1v45.93c0,.21-.16.42-.32.53l-3.74,2.18c-.11.05-.21.07-.32.07Z"/>
      <polygon class="cls-3" points="12.12 40.86 10.36 39.83 55.15 13.93 56.97 14.96 12.12 40.86"/>
      <path class="cls-2" d="M11.59,39.83l.53.3L55.68,14.96l-.53-.3L11.59,39.83h0ZM12.12,41.48c-.11,0-.21-.02-.32-.09l-1.76-1.03c-.21-.11-.32-.32-.32-.53,0-.23.11-.44.32-.55L54.88,13.39c.16-.11.43-.11.59,0l1.82,1.04c.21.11.32.32.32.53,0,.23-.11.44-.32.55L12.44,41.39c-.11.07-.21.09-.32.09Z"/>
      <polygon class="cls-1" points="12.12 40.86 56.97 14.96 56.97 32.36 12.12 58.25 12.12 40.86"/>
      <path class="cls-2" d="M12.76,41.21v15.96l43.57-25.17v-15.94L12.76,41.21h0ZM12.12,58.87c-.11,0-.21-.02-.32-.07-.16-.13-.32-.32-.32-.55v-17.39c0-.23.16-.42.32-.55L56.65,14.43c.21-.12.43-.12.64,0,.21.11.32.32.32.53v17.39c0,.23-.11.44-.32.55L12.44,58.8c-.11.05-.21.07-.32.07Z"/>
      <polygon class="cls-1" points="12.12 58.25 10.36 57.23 10.36 39.83 12.12 40.86 12.12 58.25"/>
      <path class="cls-2" d="M10.95,56.85l.53.31v-15.96l-.53-.3v15.94h0ZM12.12,58.87c-.11,0-.21-.02-.32-.07l-1.76-1.05c-.21-.11-.32-.32-.32-.53v-17.39c0-.23.11-.44.32-.55.16-.12.43-.12.64,0l1.76,1.03c.21.11.32.32.32.55v17.39c0,.23-.11.42-.32.55-.11.05-.21.07-.32.07Z"/>
      <path class="cls-4" d="M12.23,37.56l-2.56-1.49c-.27-.11-.43-.05-.64.07l-1.98,1.15c-.53.32-.85.91-.91,1.51v45.93l2.62,1.48v-45.93c0-.6.32-1.18.85-1.51l1.98-1.17c.21-.11.43-.16.64-.05Z"/>
      <path class="cls-2" d="M6.78,84.36l1.33.76v-44.83c.05-.83.48-1.61,1.18-2.04l1.44-.85-1.39-.78-1.98,1.21c-.32.21-.59.6-.59,1.01v45.52h0ZM8.76,86.84c-.11,0-.21-.02-.32-.09l-2.56-1.49c-.21-.11-.32-.32-.32-.53v-45.93c0-.83.43-1.61,1.12-2.03l2.03-1.17c.21-.12.69-.36,1.23-.09l2.62,1.51c.27.18.37.55.21.83-.16.3-.48.43-.8.28l.27-.57-.27.57-2.03,1.19c-.32.21-.53.6-.59,1.01v45.89c0,.21-.11.43-.32.53-.05.07-.16.09-.27.09Z"/>
      <path class="cls-1" d="M12.49,59.12v-20.99c0-.57-.43-.78-.91-.51l-1.98,1.17c-.21.12-.48.37-.64.64-.16.28-.21.58-.21.86v45.93l3.74-2.18v-24.92Z"/>
      <path class="cls-2" d="M11.85,38.22l-1.92,1.1c-.16.09-.32.25-.43.42-.11.2-.16.39-.16.55v44.83l2.51-1.44v-45.47h0ZM8.76,86.84c-.11,0-.21-.02-.32-.09-.21-.11-.32-.32-.32-.53v-45.93c0-.37.11-.79.32-1.17.21-.39.53-.69.85-.89l1.97-1.15c.48-.25.91-.28,1.28-.08.37.21.59.62.59,1.12v45.91c0,.23-.16.44-.32.55l-3.79,2.16c-.05.07-.16.09-.27.09Z"/>
      <path class="cls-3" d="M6.35,38.08l2.56,1.49c.16-.32.37-.6.69-.78l1.98-1.17c.21-.11.43-.16.64-.05l-2.56-1.49c-.27-.11-.43-.05-.64.07l-1.98,1.15c-.32.18-.53.46-.69.78Z"/>
      <path class="cls-2" d="M7.26,37.88l1.44.83c.16-.18.37-.34.59-.46l1.44-.85-1.39-.78-1.98,1.21c-.05.02-.05.03-.11.05h0ZM8.92,40.19c-.11,0-.21-.03-.32-.09l-2.56-1.48c-.27-.16-.37-.51-.27-.8.21-.43.53-.8.91-1.05l2.03-1.17c.21-.11.69-.34,1.23-.09l2.62,1.51c.27.18.37.55.21.83-.16.3-.48.43-.8.28l-2.03,1.19c-.21.12-.32.3-.43.51-.11.15-.21.26-.37.32-.05.02-.16.03-.21.03Z"/>
      <path class="cls-3" d="M55.2,9.58l2.62,1.49c.11-.14.21-.23.37-.34l1.98-1.15c.27-.12.43-.18.64-.07l-2.56-1.48c-.27-.11-.43-.06-.64.07l-1.98,1.15c-.16.11-.27.2-.43.34Z"/>
      <path class="cls-2" d="M56.38,9.53l1.33.77c.05-.03.11-.07.16-.11l1.44-.83-1.39-.8-1.55.96h0ZM57.82,11.7c-.11,0-.21-.03-.32-.08l-2.62-1.48c-.16-.09-.27-.25-.27-.45-.05-.18,0-.37.11-.51.16-.2.32-.32.53-.46l2.03-1.17c.27-.12.69-.34,1.23-.09l2.62,1.51c.27.18.37.55.27.83-.16.3-.53.43-.85.28l-2.03,1.21c-.11.05-.16.11-.27.21-.11.14-.27.21-.43.21Z"/>
      <path class="cls-2" d="M9.13,38.04c-.37,0-.64-.28-.64-.62v-2.46c0-.36.27-.64.64-.64.32,0,.59.28.59.64v2.46c0,.34-.27.62-.59.62Z"/>
      <path class="cls-3" d="M9.02,35.65c1.87,0,3.36-1.51,3.36-3.36s-1.5-3.37-3.36-3.37-3.36,1.51-3.36,3.37,1.49,3.36,3.36,3.36Z"/>
      <path class="cls-2" d="M9.02,29.54c-1.55,0-2.78,1.22-2.78,2.75s1.23,2.74,2.78,2.74,2.72-1.24,2.72-2.74-1.23-2.75-2.72-2.75h0ZM9.02,36.29c-2.24,0-4-1.81-4-4s1.76-4,4-4,4,1.79,4,4-1.82,4-4,4Z"/>
      <path class="cls-2" d="M57.98,9.78c-.32,0-.59-.28-.59-.64v-2.47c0-.34.27-.62.59-.62.37,0,.64.28.64.62v2.47c0,.35-.27.64-.64.64Z"/>
      <path class="cls-3" d="M57.93,7.38c1.87,0,3.36-1.52,3.36-3.39s-1.49-3.36-3.36-3.36-3.36,1.51-3.36,3.36,1.5,3.39,3.36,3.39Z"/>
      <path class="cls-2" d="M57.93,1.25c-1.49,0-2.72,1.24-2.72,2.74s1.23,2.75,2.72,2.75,2.78-1.22,2.78-2.75-1.28-2.74-2.78-2.74h0ZM57.93,8c-2.19,0-4-1.79-4-4s1.82-4,4-4,4,1.8,4,4-1.82,4-4,4Z"/>
      <path class="cls-4" d="M12.49,54.73l12.33-21.4-7.15,4.13c0,.09-.05.18-.11.27l-5.07,8.8v8.2Z"/>
      <path class="cls-2" d="M13.13,46.7v5.69l9.98-17.34-4.91,2.85c-.05.05-.11.09-.11.14l-4.96,8.66h0ZM12.49,55.35c-.05,0-.11,0-.16-.02-.27-.07-.48-.32-.48-.6v-8.2c0-.11.05-.21.11-.32l5.07-8.78c0-.06.05-.11.05-.16.05-.14.16-.27.27-.35l7.21-4.13c.21-.14.53-.1.69.11.21.2.27.5.11.75l-12.33,21.41c-.11.2-.32.3-.53.3Z"/>
      <polygon class="cls-4" points="36.09 44.4 51.36 18.03 44.31 22.09 29.1 48.45 36.09 44.4"/>
      <path class="cls-2" d="M36.09,44.4h.05-.05ZM44.79,22.55l-13.99,24.21,4.86-2.82,13.99-24.21-4.86,2.81h0ZM29.1,49.1c-.21,0-.37-.07-.48-.18-.21-.21-.21-.52-.11-.76l15.27-26.39c.05-.09.11-.18.21-.23l7.05-4.06c.21-.14.53-.11.75.11.21.19.21.5.11.74l-15.27,26.39c-.05.09-.11.18-.21.23l-7.05,4.06c-.05.05-.16.09-.27.09Z"/>
      <polygon class="cls-4" points="48.96 37 56.97 23.1 56.97 14.96 41.91 41.06 48.96 37"/>
      <path class="cls-2" d="M56.33,17.32l-12.71,22.03,4.86-2.81,7.85-13.62v-5.59h0ZM41.91,41.69c-.16,0-.32-.07-.43-.19-.21-.2-.27-.5-.11-.75l15.06-26.09c.16-.25.43-.37.69-.3.27.07.48.32.48.6v8.13c0,.11-.05.21-.11.3l-8.01,13.92c-.05.09-.16.18-.21.23l-7.05,4.05c-.11.06-.21.09-.32.09Z"/>
      <polygon class="cls-4" points="17.67 37.46 16.07 36.52 23.22 32.39 24.83 33.33 17.67 37.46"/>
      <path class="cls-2" d="M17.3,36.52l.37.21,5.93-3.4-.37-.21-5.93,3.4h0ZM17.67,38.08c-.11,0-.21-.02-.32-.07l-1.6-.94c-.21-.12-.32-.32-.32-.55s.11-.42.32-.55l7.15-4.12c.21-.11.43-.11.64,0l1.6.93c.21.11.32.32.32.55,0,.21-.11.43-.32.53l-7.15,4.14c-.11.05-.21.07-.32.07Z"/>
      <polygon class="cls-4" points="44.31 22.09 42.71 21.15 49.7 17.09 51.36 18.03 44.31 22.09"/>
      <path class="cls-2" d="M43.94,21.15l.37.21,5.77-3.33-.37-.21-5.77,3.33h0ZM44.31,22.71c-.11,0-.21-.02-.32-.07l-1.6-.93c-.21-.13-.32-.32-.32-.55s.11-.43.32-.55l6.99-4.06c.21-.11.48-.11.64,0l1.6.94c.21.11.32.32.32.55,0,.21-.11.42-.32.53l-6.99,4.07c-.11.05-.21.07-.32.07Z"/>
      <polygon class="cls-4" points="22.85 52.05 38.07 25.68 31.07 29.74 15.8 56.11 22.85 52.05"/>
      <path class="cls-2" d="M31.5,30.2l-13.99,24.21,4.86-2.81,13.99-24.21-4.86,2.81h0ZM15.8,56.75c-.16,0-.32-.07-.43-.18-.21-.21-.21-.52-.11-.76l15.27-26.39c.05-.08.11-.18.21-.23l7.05-4.06c.21-.14.53-.11.75.11.21.2.21.51.11.75l-15.27,26.39c-.05.08-.11.18-.21.23l-7.05,4.05c-.05.06-.21.09-.32.09Z"/>
      <polygon class="cls-4" points="31.07 29.74 29.42 28.8 36.46 24.74 38.07 25.68 31.07 29.74"/>
      <path class="cls-2" d="M30.7,28.8l.37.21,5.77-3.33-.37-.21-5.77,3.33h0ZM31.07,30.36c-.11,0-.21-.02-.32-.07l-1.66-.94c-.16-.12-.27-.32-.27-.55s.11-.43.27-.55l7.05-4.06c.21-.1.43-.1.64,0l1.6.94c.21.11.32.32.32.55,0,.21-.11.43-.32.53l-6.99,4.07c-.11.05-.21.07-.32.07Z"/>
    </g>
  </g>
</svg>