<?xml version="1.0" encoding="UTF-8"?>
<svg id="Layer_2" data-name="Layer 2" xmlns="http://www.w3.org/2000/svg" viewBox="0 0 34.63 41.4" fill="currentColor">
  <defs>
    <style>
      .cls-1 {
        fill: #fff;
      }

      .cls-1, .cls-2, .cls-3, .cls-4 {
        fill-rule: evenodd;
      }

      .cls-2 {
        fill: #1a87c7;
      }

      .cls-3 {
        fill: #bdedf8;
      }

      .cls-4 {
        fill: #66ceef;
      }
    </style>
  </defs>
  <g id="_Layer_" data-name="&amp;lt;Layer&amp;gt;">
    <g>
      <polygon class="cls-4" points="17.76 34.62 11.51 31.03 12.81 31.77 17.76 34.62"/>
      <path class="cls-2" d="M17.76,34.94c-.05,0-.11-.02-.16-.04h-.02s-6.22-3.61-6.22-3.61c-.15-.09-.2-.27-.11-.42s.27-.2.42-.11l1.31.75,4.94,2.86c.15.08.19.27.12.42-.06.1-.17.16-.27.16Z"/>
      <path class="cls-4" d="M11.61,36.49c.02.38.08.67.41.9l6.25,3.6c-.34-.23-.39-.51-.41-.9v-5.2c0-.1,0-.2-.1-.27l-4.95-2.85c-.75-.47-.99-.73-1.59-1.4-.65-.94-.94-1.66-1.18-2.76-.16-.83-.24-1.59-.24-2.43,0-.15,0-.23-.1-.32l-6.24-3.61.05.04c.09.14.06.34.06.5.03,1.13.15,2.09.5,3.17.52,1.46,1.2,2.36,2.52,3.19l4.95,2.86c.08.05.1.12.1.23v5.23Z"/>
      <path class="cls-2" d="M3.86,21.86c.04,1.21.18,2.09.48,3.03.5,1.43,1.15,2.25,2.39,3.02l4.02,2.33c-.51-.8-.79-1.5-1.02-2.55-.17-.82-.24-1.58-.24-2.5v-.09l-5.62-3.24h0ZM11.92,36.49h0,0ZM11.92,36.48c.02.37.08.52.28.65l5.35,3.09s0-.08,0-.12v-5.21l-4.88-2.85c-.31-.2-.54-.36-.74-.52v4.95h0ZM18.27,41.3c-.05,0-.11-.02-.15-.04l-6.24-3.61c-.5-.34-.55-.77-.57-1.15v-5.25l-4.89-2.82c-1.35-.86-2.1-1.8-2.65-3.36-.33-1.02-.48-1.96-.51-3.27v-.12c0-.06,0-.18-.02-.23-.07-.1-.09-.25-.02-.36.09-.13.25-.19.39-.1l6.24,3.61c.25.2.26.4.26.55.01.9.08,1.64.23,2.42.25,1.1.54,1.76,1.14,2.63.57.63.79.86,1.5,1.31l4.94,2.85c.25.17.25.42.25.53v5.2c.02.37.08.5.28.64.13.1.17.28.08.42-.05.1-.16.15-.25.15Z"/>
      <path class="cls-3" d="M25.81,15.56l-6.24-3.61c.23.18.06,1.3.02,1.62-.22,1.28-.61,2.25-1.24,3.39l-3.91,6.76c-.1.16-.27.37-.49.29l6.24,3.6c.22.09.38-.12.5-.28l3.9-6.76c.32-.57.57-1.09.81-1.71.27-.77.43-1.41.5-2.23.01-.24.1-.91-.09-1.06Z"/>
      <path class="cls-2" d="M14.6,24.02l5.72,3.3s.02-.05.1-.17l3.89-6.75c.32-.57.57-1.09.79-1.67.27-.76.41-1.39.48-2.15v-.1c.03-.14.05-.55.02-.7l-5.61-3.24c0,.26-.03.59-.09,1.01-.22,1.29-.59,2.3-1.29,3.55l-3.91,6.77c-.03.05-.07.11-.1.15h0ZM20.29,27.93c-.08,0-.15-.02-.21-.03l-6.29-3.63c-.14-.08-.19-.25-.12-.39.06-.15.23-.22.38-.17,0,0,.04-.03.13-.16l3.9-6.74c.67-1.2,1.01-2.13,1.21-3.3.15-1.05.09-1.29.06-1.36-.12-.1-.13-.27-.04-.4.1-.13.29-.15.43-.07l6.24,3.6s.03.02.04.03c.25.21.24.67.2,1.21v.11c-.09.82-.24,1.49-.53,2.31-.23.62-.49,1.16-.83,1.76l-3.91,6.76c-.23.36-.46.46-.65.46Z"/>
      <polygon class="cls-3" points="28.51 3.91 22.26 .3 16.44 13.64 22.69 17.24 28.51 3.91"/>
      <path class="cls-2" d="M16.83,13.51l5.71,3.3,5.57-12.77-5.71-3.29-5.57,12.77h0ZM22.69,17.55c-.06,0-.11-.02-.15-.04l-6.24-3.61c-.14-.08-.19-.24-.13-.38L21.98.18c.03-.08.11-.14.18-.16.09-.03.18-.02.25.03l6.24,3.61c.14.08.19.24.13.38l-5.82,13.34c-.03.08-.11.14-.18.17-.04,0-.07.02-.1.02Z"/>
      <polygon class="cls-3" points="12.37 13.23 6.13 9.62 .31 22.95 6.55 26.56 12.37 13.23"/>
      <path class="cls-2" d="M.7,22.83l5.71,3.29,5.57-12.77-5.7-3.29L.7,22.83h0ZM6.55,26.87s-.1-.02-.15-.04L.15,23.22c-.13-.08-.19-.24-.13-.39l5.82-13.33c.04-.08.1-.14.19-.17.08-.03.17-.02.25.03l6.24,3.6c.14.08.19.25.13.39l-5.81,13.33c-.03.09-.11.15-.19.17-.03,0-.06.02-.1.02Z"/>
      <path class="cls-1" d="M23.17,31.44l4.89-8.47c1-1.74,1.76-3.46,2.26-5.15.49-1.63.74-3.24.76-4.83v-.17c0-.22.15-.5.35-.61l2.89-1.67-5.81-6.62-5.82,13.33,2.88-1.66c.37-.22.35.2.35.5,0,1.44-.45,2.95-1.33,4.48l-3.9,6.76c-.14.24-.36.36-.5.28l-3.9-2.25c-1.01-.58-1.33-1.63-1.33-3.24,0-.22.15-.49.35-.6l2.88-1.67-5.82-6.61-5.82,13.33,2.9-1.67c.19-.11.35-.02.35.2,0,1.58.23,2.99.76,4.15.5,1.11,1.26,1.96,2.26,2.54l4.95,2.85c.08.05.1.14.1.26v5.21c0,.88.62,1.24,1.39.8l2.37-1.37c.77-.44,1.39-1.52,1.39-2.41v-5.24c0-.16.07-.28.15-.43Z"/>
      <path class="cls-2" d="M9.6,24.53c.09,0,.17.03.24.07.17.09.26.27.26.49,0,1.6.24,2.96.72,4.02.48,1.05,1.19,1.86,2.14,2.4l4.94,2.86c.25.15.25.44.25.52v5.21c0,.3.09.54.25.63.17.09.41.05.68-.1l2.38-1.37c.67-.39,1.23-1.37,1.23-2.15v-5.24c0-.24.1-.43.19-.58h0l4.89-8.47c.99-1.71,1.74-3.42,2.23-5.09.48-1.6.73-3.2.74-4.75v-.17c.01-.34.22-.71.51-.88l2.57-1.48-5.25-5.97-5.25,12.03,2.08-1.2c.25-.15.43-.1.54-.04.27.16.27.5.27.76,0,1.55-.47,3.1-1.38,4.69l-3.9,6.75c-.09.16-.22.3-.36.37-.19.11-.39.12-.56.02l-3.9-2.25c-1.3-.76-1.49-2.2-1.49-3.51,0-.33.22-.7.51-.87l2.55-1.48-5.25-5.97-5.24,12.04,2.07-1.21c.11-.05.21-.09.31-.09h0ZM18.62,41.4c-.18,0-.36-.05-.51-.14-.37-.21-.57-.63-.57-1.16v-5.21s0-.02,0-.02l-4.89-2.82c-1.06-.62-1.87-1.51-2.39-2.68-.51-1.12-.77-2.51-.78-4.15l-2.78,1.61c-.11.06-.26.05-.36-.03-.11-.09-.13-.23-.08-.36l5.82-13.33c.04-.09.13-.16.23-.18.1-.01.21.02.28.1l5.82,6.61c.06.07.09.17.07.25-.01.1-.07.17-.15.22l-2.88,1.67c-.1.05-.2.22-.2.33,0,1.63.35,2.49,1.18,2.97l3.85,2.22s.08-.06.12-.14l3.9-6.76c.86-1.48,1.3-2.94,1.3-4.33v-.16l-2.77,1.59c-.12.07-.26.05-.36-.03-.1-.09-.13-.23-.08-.36l5.81-13.33c.05-.09.13-.16.24-.18.1,0,.21.03.28.1l5.81,6.61c.06.07.09.17.08.26-.02.09-.07.17-.16.21l-2.89,1.68c-.1.05-.2.22-.2.34v.18c-.02,1.6-.27,3.26-.76,4.91-.51,1.71-1.28,3.47-2.29,5.22l-4.88,8.48c-.09.14-.11.2-.11.27v5.24c0,1-.68,2.17-1.55,2.68l-2.38,1.37c-.26.16-.52.23-.77.23Z"/>
    </g>
  </g>
</svg>