<?xml version="1.0" encoding="UTF-8"?>
<svg id="Layer_2" data-name="Layer 2" xmlns="http://www.w3.org/2000/svg" viewBox="0 0 71.16 72.81" fill="currentColor">
  <defs>
    <style>
      .cls-1 {
        fill: #fff;
      }

      .cls-1, .cls-2, .cls-3, .cls-4 {
        fill-rule: evenodd;
      }

      .cls-2 {
        fill: #1a87c7;
      }

      .cls-3 {
        fill: #bdedf8;
      }

      .cls-4 {
        fill: #66ceef;
      }
    </style>
  </defs>
  <g id="_Layer_" data-name="&amp;lt;Layer&amp;gt;">
    <g>
      <path class="cls-3" d="M4.8,68.05c.64-4.26.52-9.32,1.99-12.88.49-1.2,1.18-2.21,2-3.02,1.24-1.25,2.79-2.04,4.44-2.35,1.65-.31,3.39-.16,5.03.52,1.13.45,2.2,1.16,3.15,2.1.95.96,1.65,2.03,2.11,3.15.67,1.63.83,3.39.52,5.04-.31,1.63-1.11,3.2-2.35,4.43-.81.82-1.82,1.51-3.02,2-3.56,1.46-8.62,1.34-12.89,1.98-.27.03-.53-.03-.73-.24-.2-.19-.28-.45-.24-.73Z"/>
      <path class="cls-2" d="M4.8,68.05h.02-.02ZM14.85,50.25c-.51,0-1.02.05-1.52.16-1.57.3-3,1.04-4.12,2.17-.79.78-1.41,1.74-1.86,2.82-.95,2.33-1.22,5.41-1.48,8.4-.13,1.44-.26,2.96-.47,4.36h0c-.01.07.01.14.07.19.06.07.13.09.2.07,1.4-.21,2.91-.35,4.37-.47,2.98-.26,6.06-.52,8.38-1.48,1.08-.45,2.03-1.08,2.82-1.86,1.13-1.13,1.88-2.55,2.18-4.12.3-1.56.13-3.18-.49-4.68-.45-1.09-1.11-2.09-1.98-2.96-.86-.85-1.86-1.53-2.94-1.96-1.02-.42-2.1-.64-3.17-.64h0ZM5.63,69.65c-.39,0-.75-.14-1.03-.43-.34-.33-.49-.78-.41-1.25.2-1.35.33-2.85.46-4.28.27-3.08.55-6.26,1.57-8.74.5-1.25,1.22-2.33,2.13-3.23,1.3-1.3,2.94-2.17,4.76-2.52,1.8-.35,3.65-.16,5.38.56,1.24.5,2.36,1.27,3.35,2.24.99.99,1.73,2.12,2.25,3.35.71,1.72.9,3.58.56,5.37-.35,1.82-1.22,3.46-2.52,4.76-.9.9-1.99,1.62-3.23,2.14-2.49,1.01-5.67,1.29-8.73,1.57-1.44.12-2.93.24-4.29.45-.08.02-.16.02-.23.02Z"/>
      <path class="cls-3" d="M23.93,39.52l-6.09-11.56,2.24-2.24c.56-.56,1.14-.92,1.72-1.09.59-.19,1.19-.17,1.78.03l11.16,4.07h0l-10.79,10.8Z"/>
      <path class="cls-2" d="M18.59,28.07l5.5,10.43,9.53-9.53-10.25-3.72c-.45-.17-.91-.19-1.38-.03-.49.14-.98.45-1.47.94l-1.92,1.91h0ZM23.93,40.13h-.09c-.19-.03-.36-.16-.45-.33l-6.1-11.56c-.13-.23-.08-.52.11-.71l2.24-2.24c.63-.62,1.29-1.06,1.99-1.25.71-.23,1.47-.21,2.16.05l11.16,4.05c.19.07.33.23.39.42.05.19.01.4-.12.56l-10.84,10.85c-.11.12-.27.17-.44.17Z"/>
      <path class="cls-3" d="M33.22,51.2l11.56,6.1,2.24-2.24c.55-.56.92-1.13,1.1-1.72.18-.59.16-1.18-.05-1.77l-4.06-11.16h0l-10.79,10.8Z"/>
      <path class="cls-2" d="M34.24,51.05l10.42,5.51,1.92-1.93c.48-.47.8-.97.95-1.46.15-.47.13-.94-.04-1.39l-3.73-10.26-9.52,9.53h0ZM44.78,57.93c-.1,0-.2-.03-.29-.07l-11.56-6.1c-.17-.1-.29-.26-.32-.45-.03-.21.04-.4.17-.54l10.79-10.8c.16-.1.4-.17.58-.12.19.05.38.16.44.35l4.06,11.16c.26.69.28,1.44.06,2.16-.2.69-.63,1.36-1.26,1.98l-2.24,2.24c-.12.12-.28.19-.43.19Z"/>
      <path class="cls-4" d="M33.27,52.49l13.84-13.18-.11.1-.12.09-.12.09-.12.09-.13.09-.13.07-.14.07-.14.07-.14.05-.14.05-.15.05-.15.05-.16.03-.16.03-.16.04-.17.03-.17.02-.17.02h-.18l-.18.02h-.18l-.19-.02h-.19l-.19-.02-.19-.02-.2-.03-.2-.04-.2-.03-.21-.03-.2-.05-.21-.05-.22-.07-.21-.05-.22-.09-.22-.07-.21-.07-.22-.09-.21-.09-.22-.1-.21-.09-.21-.1-.21-.1-.21-.12-.22-.1-.21-.12-.2-.12-.21-.14-.21-.12-.2-.14-.2-.14-.2-.14-.2-.14-.2-.16-.2-.14-.19-.16-.19-.15-.19-.17-.19-.16-.19-.17-.19-.16-.18-.17-.18-.17-.18-.17-.18-.19-.17-.17-.17-.19-.17-.19-.16-.17-.16-.19-.16-.19-.16-.21-.16-.19-.15-.19-.15-.21-.14-.19-.14-.21-.14-.21-.13-.21-.13-.19-.13-.21-.12-.21-.12-.22-.11-.21-.12-.21-.1-.21-.11-.21-.09-.23-.09-.21-.09-.21-.09-.22-.07-.21-.08-.21-.07-.23-.07-.21-.06-.21-.05-.23-.05-.21-.04-.21-.04-.19-.03-.21-.03-.21-.02-.19-.02-.19v-.19s-.02-.19-.02-.19v-.36s.02-.17.02-.17l.02-.17.02-.16.03-.17.04-.16.03-.17.04-.16.05-.14.05-.16.05-.14.06-.14.06-.14.07-.14.07-.12.08-.14.08-.12.08-.11.1-.12.1-.11-13.07,13.94c-5.23,5.82,8.28,19.33,14.1,14.1Z"/>
      <path class="cls-2" d="M33.27,52.49h.02-.02ZM30.59,27.11l-10.96,11.7c-2.42,2.69-.2,7.25,2.89,10.34,3.09,3.09,7.64,5.3,10.34,2.89l11.63-11.07-.48.02-3.06-.59-4.34-2.49-3.99-4.4-1.83-4.24-.21-1.7v-.45h.01ZM30.09,54.3c-2.85,0-6.06-1.9-8.45-4.28-3.49-3.49-5.89-8.74-2.93-12.05l13.08-13.94c.24-.26.61-.26.86-.03.25.23.27.61.05.85h-.04l.03.02-.16.16v.02s0-.02,0-.02l-.17.19.03.02h-.05l-.17.17.08.03h-.12l-.15.17.16.07-.35,1.88.68,3.06,2.77,4.31,4.47,3.56,4.11,1.25h.35l1.69-.35.13.1.13-.1-.05-.1.09.07.16-.16-.03-.03.05.02.16-.16h-.01s.06-.05.09-.07l.1-.11.03.04c.25-.1.57-.1.75.09.23.24.31.54.07.78l-13.84,13.18s0,.02-.01.02c-1.04.94-2.28,1.34-3.6,1.34Z"/>
      <path class="cls-1" d="M27.54,36.48l-.7-1.29-19.07,3.97c-3.71.92-4.58,2.14-7.15,4.71l.71,1.29c2.58-2.57,3.44-3.77,7.15-4.69l19.07-3.98Z"/>
      <path class="cls-2" d="M1.38,43.97l.08.17.16-.17c2.06-2.09,3.2-3.23,6.69-4.12l18.29-3.81-.09-.16-18.62,3.88c-3.13.78-4.06,1.72-6.08,3.77l-.43.43h0ZM1.32,45.78h-.09c-.19-.04-.36-.16-.46-.33l-.7-1.29c-.13-.24-.08-.54.1-.73l.75-.77c2.06-2.09,3.2-3.23,6.69-4.1l19.1-3.98c.27-.05.53.07.67.31l.7,1.29c.09.17.1.38.02.56-.08.17-.24.31-.43.35l-19.07,3.98c-3.14.78-4.06,1.72-6.09,3.77l-.74.76c-.12.1-.27.17-.43.17Z"/>
      <path class="cls-3" d="M27.54,36.48l-19.07,3.98c-1.04.24-2,.59-2.82.99-.82.42-1.53.92-2.09,1.48l-2.24,2.22,16.18,1.37,10.04-10.05Z"/>
      <path class="cls-2" d="M2.69,44.67l14.57,1.22,8.38-8.38-17.05,3.55c-.98.24-1.88.56-2.67.96-.77.38-1.42.83-1.93,1.36l-1.3,1.3h0ZM17.5,47.13h-.05l-16.19-1.36c-.23-.02-.44-.17-.52-.4-.08-.23-.03-.49.14-.66l2.24-2.23c.6-.61,1.36-1.15,2.24-1.58.88-.45,1.88-.8,2.96-1.06l19.09-3.98c.27-.05.53.09.67.31.13.24.08.54-.11.73l-10.03,10.05c-.12.1-.27.17-.44.17Z"/>
      <path class="cls-1" d="M32.66,69.94l-2.24,2.24-1.5-.85,2.24-2.24c1.34-1.41,2-3.04,2.46-4.9l3.98-19.07,1.51.85-3.98,19.07c-.46,1.84-1.13,3.51-2.46,4.9Z"/>
      <path class="cls-2" d="M32.66,69.94h.02-.02ZM29.92,71.19l.39.23,1.91-1.91c1.08-1.13,1.79-2.55,2.31-4.62l3.88-18.6-.39-.23-3.8,18.25c-.41,1.67-1.04,3.56-2.62,5.21l-1.68,1.67h0ZM30.42,72.81c-.1,0-.2-.04-.3-.09l-1.5-.85c-.17-.09-.28-.26-.31-.45-.03-.19.04-.38.17-.52l2.24-2.24c1.09-1.13,1.78-2.52,2.31-4.62l3.97-19.04c.04-.21.17-.36.35-.43.18-.09.39-.09.56.02l1.51.85c.24.12.35.4.3.66l-3.98,19.07c-.57,2.31-1.38,3.91-2.62,5.21h0l-2.24,2.24c-.12.12-.27.19-.44.19Z"/>
      <path class="cls-3" d="M37.59,45.12l-3.97,19.07c-.25,1.04-.59,2-1.01,2.82-.41.82-.91,1.53-1.46,2.09l-2.24,2.24-1.36-16.18,10.04-10.03Z"/>
      <path class="cls-2" d="M28.2,55.39l1.22,14.57,1.3-1.3c.51-.5.96-1.15,1.35-1.93.4-.78.72-1.68.95-2.68l3.55-17.04-8.37,8.38h0ZM28.91,71.96c-.07,0-.15-.02-.21-.05-.22-.07-.38-.28-.4-.52l-1.35-16.19c-.02-.17.05-.36.17-.48l10.04-10.03c.19-.19.49-.24.73-.1.24.12.37.4.31.66l-3.97,19.07c-.26,1.09-.62,2.1-1.06,2.97-.45.9-.98,1.65-1.58,2.24l-2.24,2.24c-.12.12-.28.19-.44.19Z"/>
      <polygon class="cls-1" points="41.72 41.59 41.97 41.66 42.21 41.71 42.45 41.76 42.69 41.82 42.92 41.85 43.15 41.87 43.38 41.9 43.6 41.92 43.82 41.94 44.25 41.94 44.46 41.92 44.67 41.92 44.86 41.9 45.06 41.87 45.25 41.83 45.44 41.8 45.63 41.76 45.81 41.71 45.99 41.66 46.16 41.61 46.32 41.54 46.49 41.47 46.65 41.4 46.8 41.31 46.95 41.22 47.1 41.14 47.24 41.03 47.37 40.95 47.51 40.82 47.63 40.72 66.18 23.25 48.09 4.81 30.44 23.53 30.32 23.65 30.22 23.79 30.11 23.91 30.02 24.07 29.93 24.21 29.84 24.35 29.76 24.5 29.68 24.66 29.62 24.83 29.55 25.01 29.49 25.16 29.44 25.35 29.39 25.53 29.35 25.72 29.31 25.89 29.28 26.1 29.26 26.29 29.24 26.48 29.22 26.69 29.22 26.9 29.22 27.11 29.22 27.33 29.23 27.54 29.26 27.77 29.28 28 29.31 28.24 29.34 28.47 29.39 28.71 29.44 28.93 29.5 29.18 29.56 29.44 29.63 29.68 29.71 29.93 29.78 30.17 29.87 30.43 29.96 30.67 30.06 30.92 30.16 31.18 30.27 31.42 30.39 31.66 30.51 31.91 30.63 32.15 30.76 32.39 30.89 32.64 31.03 32.88 31.17 33.12 31.31 33.37 31.46 33.61 31.62 33.84 31.78 34.08 31.94 34.31 32.11 34.55 32.28 34.78 32.46 35 32.63 35.23 32.82 35.45 33 35.68 33.19 35.91 33.38 36.11 33.58 36.34 33.78 36.55 33.98 36.76 34.19 36.96 34.4 37.18 34.61 37.37 34.82 37.57 35.03 37.77 35.25 37.96 35.47 38.15 35.7 38.34 35.92 38.51 36.15 38.7 36.38 38.88 36.61 39.05 36.84 39.21 37.07 39.38 37.31 39.54 37.54 39.7 37.79 39.83 38.03 39.99 38.27 40.13 38.51 40.27 38.76 40.39 39 40.53 39.24 40.65 39.49 40.77 39.73 40.88 39.99 40.98 40.23 41.08 40.48 41.19 40.73 41.28 40.98 41.36 41.23 41.45 41.47 41.52 41.72 41.59"/>
      <path class="cls-2" d="M41.88,41l2.17.31,2.71-.7.46-.35,18.08-17.04L48.1,5.69l-18.07,19.83-.19,1.6.53,2.87,2.07,3.96,3.64,3.91,4.62,2.75,1.18.38h0ZM44.04,42.55l-2.47-.35s-.01-.02-.01-.02l-3.85-1.67-4.38-3.53-3.25-4.54-1.38-4.12-.09-1.2.51-2.7.86-1.32L47.64,4.39c.12-.12.27-.19.44-.21h0c.17,0,.32.07.44.19l18.09,18.44c.12.12.18.28.18.44,0,.17-.07.33-.2.45l-20.22,18.48-2.33.37Z"/>
      <path class="cls-3" d="M53.66,17.5c2.07,2.07,4.6,3.68,7.09,4.36,2.49.66,4.48.26,5.67-.94,1.2-1.2,1.6-3.18.94-5.67-.67-2.5-2.28-5.02-4.35-7.11-2.07-2.07-4.6-3.69-7.09-4.35-2.5-.66-4.48-.26-5.68.94-1.19,1.18-1.6,3.18-.93,5.67.67,2.51,2.28,5.03,4.36,7.09Z"/>
      <path class="cls-2" d="M53.65,4.1c-1.24,0-2.26.36-2.98,1.08-1.08,1.08-1.36,2.89-.77,5.08.61,2.31,2.11,4.73,4.2,6.81,2.08,2.08,4.51,3.58,6.82,4.21,2.19.58,3.99.31,5.08-.78,1.09-1.09,1.36-2.88.78-5.08-.62-2.31-2.11-4.73-4.2-6.81-2.09-2.1-4.51-3.58-6.82-4.21-.75-.19-1.46-.29-2.11-.29h0ZM63.02,22.8c-.75,0-1.57-.12-2.43-.35-2.52-.68-5.14-2.28-7.37-4.52-2.24-2.24-3.85-4.85-4.52-7.37-.7-2.62-.31-4.85,1.1-6.26,1.41-1.41,3.64-1.81,6.27-1.09,2.51.66,5.13,2.28,7.37,4.5,2.24,2.24,3.84,4.87,4.51,7.37.71,2.64.32,4.87-1.09,6.28-.95.95-2.28,1.44-3.85,1.44Z"/>
      <path class="cls-4" d="M70.55.62l-2.52,18.84c-.21,1.55-.72,2.77-1.85,3.79-1.19,1.06-2.83,1.11-4.39.89-.5-.07-1.02-.17-1.56-.31-2.81-.75-5.66-2.57-7.99-4.9h0c-2.33-2.33-4.16-5.18-4.91-8-.15-.54-.25-1.06-.3-1.55-.24-1.57-.19-3.22.89-4.4,1.02-1.13,2.23-1.63,3.79-1.84l18.84-2.52Z"/>
      <path class="cls-2" d="M69.83,1.33l-18.05,2.42c-1.53.21-2.55.69-3.41,1.65-.78.85-1.01,2.09-.73,3.88.05.5.15.99.29,1.49.7,2.61,2.38,5.35,4.74,7.72,2.36,2.36,5.1,4.05,7.72,4.74.51.14,1,.23,1.47.28,1.81.28,3.04.05,3.9-.73.95-.85,1.45-1.88,1.65-3.41l2.41-18.05h0ZM63.19,24.87c-.47,0-.96-.05-1.49-.12-.51-.07-1.06-.17-1.62-.33-2.82-.75-5.75-2.54-8.27-5.06-2.51-2.5-4.31-5.44-5.07-8.27-.15-.56-.26-1.11-.31-1.63-.33-2.14.01-3.74,1.04-4.89,1.05-1.16,2.34-1.79,4.16-2.04L70.47,0c.19-.04.38.03.52.17.13.12.2.33.17.5l-2.53,18.86c-.24,1.81-.88,3.09-2.04,4.16-.86.78-1.97,1.16-3.4,1.16Z"/>
      <path class="cls-3" d="M54.09,28.52c-2.77-.73-6.67.31-8.7,2.35-2.03,2.02-1.42,4.27,1.35,5.01,2.77.75,6.67-.3,8.7-2.33,2.03-2.02,1.43-4.27-1.35-5.02Z"/>
      <path class="cls-2" d="M52.12,28.9c-2.27,0-4.82.92-6.29,2.4-.82.82-1.16,1.67-.97,2.4.19.71.92,1.28,2.04,1.58,2.58.7,6.22-.28,8.1-2.17.82-.82,1.17-1.67.97-2.4-.2-.71-.92-1.29-2.04-1.58-.57-.16-1.18-.22-1.81-.22h0ZM48.71,36.74c-.74,0-1.47-.09-2.14-.26-1.56-.42-2.59-1.3-2.91-2.47-.31-1.16.14-2.45,1.29-3.6,2.2-2.19,6.28-3.29,9.29-2.49h0c1.57.42,2.6,1.3,2.91,2.47.31,1.16-.14,2.45-1.29,3.6-1.71,1.71-4.56,2.75-7.16,2.75Z"/>
      <path class="cls-4" d="M58.79,28.12l.34,1.23c-.38-.78-.9-1.27-1.62-1.72-.82-.49-1.62-.73-2.56-.9-.98-.17-1.89-.21-2.89-.16-1.2.09-2.28.3-3.44.63-1.35.42-2.54.92-3.73,1.68-1.14.75-2.11,1.6-2.83,2.77-.43.75-.67,1.44-.63,2.31-.45-1.67-.07-3.58.89-5.01,2.53-3.75,8.99-3.93,13.23-2.99,1.25.28,2.69,1.01,3.23,2.16Z"/>
      <path class="cls-2" d="M50.83,26.08c-3.3.05-6.48.96-8,3.22-.21.3-.38.64-.52.97.59-.68,1.33-1.3,2.24-1.91,1.19-.75,2.43-1.3,3.88-1.76.82-.24,1.6-.4,2.39-.52h0ZM41.43,34.57c-.28,0-.52-.19-.6-.45-.48-1.79-.1-3.91.97-5.51,2.56-3.79,8.98-4.35,13.88-3.23.65.14,2.83.75,3.66,2.49.02.03.03.07.04.11l.32,1.22c.08.31-.08.63-.38.75-.29.1-.63-.03-.77-.31-.29-.61-.69-1.03-1.39-1.46-.67-.38-1.37-.65-2.34-.82-.88-.16-1.73-.19-2.75-.14-1.12.07-2.17.26-3.3.59-1.34.42-2.47.92-3.57,1.62-1.22.8-2.03,1.6-2.63,2.57-.4.7-.56,1.27-.54,1.95.01.31-.21.59-.52.64h-.09Z"/>
      <path class="cls-3" d="M55.91,28.1l.66,2.45c.16.68.04,1.23-.27,1.84-.28.54-.62.94-1.06,1.34-.59.54-1.19.92-1.9,1.27-.84.42-1.66.7-2.57.89-1.35.28-2.69.33-4.03-.02-1.09-.3-2.14-.87-2.47-2.02l-.66-2.45c.16.56.45.92.89,1.29.75.56,1.6.8,2.53.92.81.09,1.54.07,2.34-.03,1.03-.16,1.96-.42,2.91-.82.91-.42,1.68-.89,2.4-1.56.83-.82,1.52-1.88,1.23-3.1Z"/>
      <path class="cls-2" d="M44.83,33.61l.02.09c.21.73.89,1.27,2.05,1.58,1.11.3,2.34.3,3.75.02.86-.19,1.64-.45,2.43-.83.7-.37,1.25-.73,1.75-1.18.43-.4.7-.75.93-1.18.26-.52.32-.94.21-1.39l-.02-.07c-.22.33-.5.66-.83.99-.75.7-1.54,1.22-2.58,1.69-1.01.43-1.98.71-3.08.87-.91.12-1.68.12-2.5.03-.85-.1-1.53-.3-2.12-.61h0ZM48.68,36.74c-.73,0-1.43-.09-2.1-.26-1.59-.45-2.57-1.27-2.91-2.45l-.66-2.47c-.09-.33.11-.66.43-.75.33-.1.66.09.76.42.12.4.31.66.69.97.55.42,1.25.66,2.23.8.7.07,1.37.07,2.18-.04.97-.14,1.85-.4,2.75-.78.91-.4,1.6-.85,2.23-1.44.89-.89,1.24-1.7,1.04-2.49-.08-.33.12-.66.45-.75.32-.09.66.11.75.44l.66,2.45c.19.77.09,1.46-.3,2.28-.3.57-.66,1.01-1.2,1.51-.6.54-1.23.95-2.04,1.37-.89.43-1.75.73-2.72.94-.78.16-1.51.24-2.22.24Z"/>
      <polygon class="cls-1" points="56.57 30.55 55.91 28.1 55.88 28.01 55.85 27.94 55.82 27.86 56.48 30.31 56.51 30.38 56.54 30.46 56.57 30.55"/>
      <path class="cls-2" d="M56.57,31.18c-.27,0-.51-.17-.59-.45l-.03-.09-.06-.17-.66-2.45c-.08-.31.09-.64.4-.75.32-.1.64.07.76.36,0,.02.07.19.07.21l.69,2.55c.09.33-.1.66-.42.75-.06.02-.12.03-.17.03Z"/>
      <path class="cls-4" d="M56.57,30.55c-.25-.9-1.09-1.65-2.48-2.03-1.39-.36-3.05-.3-4.63.14-1.57.42-3.06,1.18-4.07,2.21-1.02,1.01-1.37,2.08-1.13,2.99.24.9,1.08,1.65,2.47,2.02,2.78.75,6.67-.3,8.7-2.33,1.01-1.01,1.37-2.08,1.13-2.99h0ZM55.72,26.9c2,.54,3.22,1.62,3.57,2.92.35,1.32-.16,2.85-1.63,4.33-.75.75-1.68,1.41-2.71,1.95-1.76.94-4.78,1.72-6.74,1.76-1.09.02-2.14-.09-3.1-.35-2.01-.54-3.22-1.62-3.57-2.92-.35-1.32.16-2.85,1.63-4.33,1.47-1.46,3.61-2.57,5.88-3.18,2.27-.61,4.67-.71,6.68-.17h0Z"/>
      <path class="cls-2" d="M52.14,28.9c-.8,0-1.66.12-2.52.35-1.54.42-2.88,1.13-3.79,2.05-.82.82-1.16,1.67-.97,2.4.19.71.92,1.28,2.04,1.58,2.58.7,6.22-.28,8.1-2.17.82-.82,1.17-1.67.97-2.4-.19-.73-.92-1.29-2.04-1.58-.55-.16-1.15-.22-1.79-.22h0ZM48.71,36.74c-.74,0-1.47-.09-2.14-.26-1.56-.42-2.59-1.3-2.91-2.47-.31-1.16.15-2.45,1.29-3.58,1.06-1.06,2.6-1.91,4.34-2.38,1.75-.45,3.51-.51,4.95-.12,1.57.42,2.6,1.3,2.91,2.47h0c.31,1.16-.15,2.45-1.29,3.6-1.71,1.71-4.56,2.75-7.16,2.75h0ZM52.9,27.16c.94,0,1.84.1,2.66.33h0c1.72.45,2.83,1.34,3.13,2.49.31,1.15-.21,2.47-1.47,3.74-.69.68-1.55,1.3-2.56,1.84-1.68.89-4.58,1.63-6.47,1.69-1.04,0-2.04-.09-2.93-.33-1.71-.45-2.83-1.34-3.13-2.49-.31-1.15.21-2.47,1.47-3.74,1.34-1.34,3.33-2.42,5.6-3.03,1.26-.33,2.52-.5,3.7-.5h0ZM47.91,38.48c-1.06,0-2.06-.14-2.97-.38-2.16-.58-3.58-1.76-4.01-3.36-.42-1.58.21-3.34,1.79-4.92,1.49-1.49,3.68-2.68,6.15-3.34,2.47-.66,4.96-.73,7-.19h0c2.15.59,3.58,1.77,4.01,3.37.42,1.58-.21,3.34-1.79,4.92-.78.78-1.74,1.46-2.86,2.05-1.85.99-4.94,1.79-7.02,1.83-.1.02-.2.02-.31.02Z"/>
    </g>
  </g>
</svg>