<?xml version="1.0" encoding="UTF-8"?>
<svg id="Layer_2" data-name="Layer 2" xmlns="http://www.w3.org/2000/svg" viewBox="0 0 32.81 38.16" fill="currentColor">
  <defs>
    <style>
      .cls-1 {
        fill: #fff;
      }

      .cls-1, .cls-2, .cls-3, .cls-4 {
        fill-rule: evenodd;
      }

      .cls-2 {
        fill: #1a87c7;
      }

      .cls-3 {
        fill: #bdedf8;
      }

      .cls-4 {
        fill: #66ceef;
      }
    </style>
  </defs>
  <g id="_Layer_" data-name="&amp;lt;Layer&amp;gt;">
    <g>
      <path class="cls-4" d="M.32,25.77c0,.72-.03,2.92.04,3.51.51,3.91,4.92,6.38,8.31,7.44,6.13,1.94,14.75,1.51,20.09-2.18,1.92-1.33,3.64-3.32,3.75-5.76v-3.06c-.14,1.72-.79,3.02-1.99,4.27-3.72,3.93-10.83,5.11-15.99,4.76-4.47-.31-10.48-1.96-13.12-5.86-.69-1.01-.98-1.92-1.09-3.11Z"/>
      <path class="cls-2" d="M.62,28.14c0,.48.01.89.04,1.09.45,3.56,4.47,6.05,8.08,7.19,5.71,1.81,14.35,1.65,19.84-2.14,1.3-.9,3.5-2.81,3.61-5.52v-.63c-.34.72-.81,1.39-1.45,2.06-3.92,4.14-11.21,5.2-16.25,4.85-4.71-.32-10.69-2.07-13.34-6-.21-.31-.39-.61-.53-.91h0ZM16.47,38.16c-2.84,0-5.6-.41-7.9-1.14-1.84-.58-7.89-2.86-8.52-7.7-.06-.49-.05-1.96-.04-2.94v-.6c0-.17.13-.3.3-.31.2.01.3.12.32.28.1,1.18.39,2.02,1.03,2.97,2.53,3.74,8.31,5.41,12.88,5.72,5.29.37,12.22-.94,15.76-4.66,1.18-1.25,1.77-2.51,1.89-4.09.02-.17.15-.31.32-.28.17,0,.3.14.3.31v3.06c-.12,2.99-2.48,5.05-3.88,6.02-3.42,2.37-8.05,3.37-12.46,3.37Z"/>
      <path class="cls-4" d="M24.46,33.57c7.7-2.57,10.33-8.25,5.89-12.69-4.45-4.45-14.29-5.97-21.99-3.4C.67,20.04-1.97,25.72,2.47,30.16c4.44,4.45,14.28,5.97,21.98,3.4Z"/>
      <path class="cls-2" d="M24.46,33.57h0,0ZM16.4,16.53c-2.7,0-5.43.4-7.94,1.23-4.24,1.41-7.05,3.81-7.7,6.58-.46,1.95.21,3.89,1.93,5.61,4.36,4.36,14.08,5.86,21.67,3.33h0c4.24-1.41,7.05-3.81,7.7-6.58.45-1.95-.21-3.89-1.93-5.61-2.93-2.92-8.26-4.56-13.73-4.56h0ZM16.45,35.11c-5.65,0-11.17-1.7-14.19-4.73C.4,28.53-.34,26.33.16,24.2c.7-2.98,3.66-5.54,8.1-7.02,7.79-2.59,17.79-1.03,22.3,3.48,1.85,1.85,2.6,4.05,2.1,6.18-.7,2.98-3.66,5.54-8.11,7.02h0c-2.55.85-5.35,1.26-8.1,1.26Z"/>
      <path class="cls-3" d="M15.87,25.38l-10.65,3.55c-.09.03-.19.04-.29.02-.11-.02-.18-.06-.23-.11-.64-.75-1.05-1.54-1.23-2.34-.23-.99-.11-1.98.34-2.93.44-.95,1.2-1.85,2.25-2.64,1.02-.76,2.29-1.42,3.83-1.93,1.53-.51,3.16-.82,4.82-.95,1.42-.11,2.84-.08,4.22.08.11.01.19.04.25.1.05.05.07.11.04.17l-3.18,6.85c-.03.06-.09.1-.18.13Z"/>
      <path class="cls-2" d="M18.95,18.26h0s0,0,0,0h0ZM15.87,25.38h.01-.01ZM16.35,18.29c-.55,0-1.09.02-1.63.06-1.67.13-3.26.44-4.74.93-1.47.49-2.73,1.12-3.75,1.89-1,.76-1.73,1.61-2.15,2.53-.42.9-.52,1.82-.31,2.74.18.76.57,1.5,1.17,2.2.09.02.15.02.19,0l10.64-3.55s.02-.01.02-.01l3.07-6.64c-.84-.1-1.68-.15-2.5-.15h0ZM5.04,29.27c-.05,0-.11,0-.16-.01-.18-.03-.31-.11-.41-.22-.67-.78-1.11-1.61-1.3-2.47-.24-1.05-.12-2.1.36-3.13.47-1.01,1.26-1.94,2.34-2.76,1.07-.8,2.38-1.47,3.91-1.98,1.53-.51,3.17-.83,4.89-.96,1.43-.11,2.87-.08,4.28.08.18.02.32.08.43.18.16.14.2.34.11.53l-3.18,6.85c-.05.09-.14.22-.36.3h0l-10.65,3.55c-.09.03-.18.04-.28.04Z"/>
      <path class="cls-3" d="M19.23.67v17.73s-3.19,6.85-3.19,6.85l-.02.02v.02s-.03.02-.03.02l-.03.02-.02.02h-.02s-.04.03-.04.03h-.03s-10.79,3.59-10.79,3.59c-.38.03-.59-.35-.86-.76-.27-.4-.7-1.24-.75-1.69V8.84c.2.84.66,1.7,1.23,2.34.12.13.36.14.52.09l10.65-3.55h.03s.04-.02.04-.02l.02-.02.02-.02.03-.02.02-.02v-.02s.03-.02.03-.02l3.18-6.85v-.02s0-.04,0-.04Z"/>
      <path class="cls-2" d="M3.78,10.42v16.08c.04.34.44,1.14.69,1.52l.07.1c.23.34.35.51.49.53l10.75-3.56,3.17-6.83-.02-16.17-2.61,5.63s-.04.06-.05.08c0,0-.04.05-.05.06,0,0-.07.05-.08.06,0,0-.06.04-.07.05-.02,0-.06.03-.07.03l-10.69,3.56c-.26.08-.63.06-.85-.18-.25-.28-.49-.61-.69-.96h0ZM5.04,29.27c-.5,0-.76-.41-1.02-.8l-.07-.1c-.24-.37-.73-1.29-.79-1.83V8.84c0-.15.11-.29.27-.3.15-.02.3.08.34.23.18.77.62,1.6,1.16,2.2.02.02.12.03.2,0l10.64-3.54,3.18-6.82c0-.17.11-.29.3-.27.17,0,.3.17.3.34v17.66s-.01.06-.01.08-.02.08-.03.1l-3.19,6.87s-.04.06-.05.08c0,.02-.06.07-.08.09,0,0-.05.04-.06.05,0,0-.07.04-.07.04,0,0-.08.03-.09.04l-10.8,3.58s-.04.01-.07.01c-.03,0-.04,0-.06,0Z"/>
      <polygon class="cls-3" points="19.23 .67 19.23 18.37 19.22 18.4 16.04 25.25 16.04 7.59 19.22 .73 19.23 .71 19.23 .67"/>
      <path class="cls-2" d="M16.35,7.65v16.2l2.6-5.59-.02-16.17-2.58,5.56h0ZM16.04,25.56s-.04,0-.07,0c-.14-.03-.24-.16-.24-.3V7.59s0-.09.04-.13l3.18-6.85c0-.17.11-.29.3-.27.17,0,.3.17.3.34v17.66s-.01.06-.01.08-.02.08-.03.1l-3.19,6.87c-.05.11-.16.18-.28.18Z"/>
      <path class="cls-1" d="M23.67,31.77c2.53-.98,4.49-2.47,5.34-4.31.46-.99.56-1.98.34-2.93-.45-1.98-2.26-3.79-5-5-1.1-.49-2.36-.88-3.73-1.15-.11-.02-.2-.02-.3.01-.09.03-.16.08-.18.14l-3.18,6.86c-.03.06-.02.11.03.16l6.15,6.15c.05.05.13.09.24.1.1.01.21,0,.29-.03Z"/>
      <path class="cls-2" d="M17.29,25.41l6.07,6.07c.11.02.17.02.2,0h0c2.55-.99,4.39-2.46,5.17-4.15.42-.9.52-1.82.32-2.73-.44-1.87-2.19-3.62-4.83-4.79-1.09-.49-2.33-.87-3.66-1.13-.05-.01-.1-.01-.15,0l-3.12,6.72h0ZM23.67,31.77h.01-.01ZM23.47,32.12s-.09,0-.13-.01c-.17-.02-.32-.09-.42-.19l-6.14-6.15c-.15-.14-.18-.33-.11-.51l3.19-6.86c.04-.09.14-.22.37-.3.15-.04.3-.05.45-.02,1.37.27,2.65.66,3.79,1.17,2.82,1.25,4.71,3.15,5.18,5.21.23,1.05.11,2.1-.37,3.13-.85,1.83-2.81,3.42-5.5,4.46h0c-.1.04-.21.06-.31.06Z"/>
      <path class="cls-4" d="M23.38,18.79v13.01c.57.06,2.67-1.18,3.24-1.6,1.57-1.14,2.84-2.75,2.84-4.77v-13.01c.02,3.16-3.14,5.35-5.79,6.34l-.29.03Z"/>
      <path class="cls-2" d="M23.69,19.07v12.37c.67-.22,2.16-1.05,2.75-1.49,1.24-.9,2.72-2.41,2.71-4.52v-10.57c-1.05,1.96-3.26,3.4-5.37,4.18-.02.01-.04.02-.07.02h-.02ZM23.41,32.11s-.04,0-.06,0c-.16-.02-.28-.15-.28-.31v-13.01c0-.16.12-.29.28-.31l.25-.03c2.69-1.01,5.53-3.1,5.55-5.97v-.06c0-.17.14-.31.31-.31h0c.17,0,.3.14.3.3v13.02c0,2.36-1.61,4.03-2.96,5.02-.4.29-2.59,1.66-3.39,1.66Z"/>
      <polygon class="cls-4" points="16.95 12.45 16.95 25.48 16.95 25.5 16.96 25.52 16.98 25.54 17 25.56 23.14 31.7 23.16 31.72 23.18 31.74 23.21 31.75 23.24 31.77 23.27 31.78 23.31 31.79 23.34 31.8 23.38 31.8 23.38 18.79 23.34 18.79 23.31 18.78 23.27 18.77 23.24 18.76 23.21 18.74 23.18 18.73 23.16 18.71 23.14 18.69 17 12.55 16.98 12.53 16.96 12.51 16.95 12.49 16.95 12.47 16.95 12.45"/>
      <path class="cls-2" d="M17.25,25.39l5.82,5.81v-12.18s-.05-.03-.06-.04c-.02,0-.07-.05-.08-.06l-5.68-5.68v12.15h0ZM23.38,32.11s-.03,0-.04,0c0,0-.09-.02-.1-.02,0,0-.06-.02-.08-.02-.01,0-.08-.03-.08-.04-.02,0-.06-.03-.07-.04,0,0-.07-.05-.08-.06l-6.15-6.15s-.05-.06-.06-.07c0-.01-.05-.09-.06-.1,0-.02-.02-.06-.02-.08v-13.07c0-.16.12-.3.29-.31.13-.02.27.08.31.22l6.12,6.12c.15.02.33.17.33.32v13.01c0,.09-.04.18-.11.23-.05.05-.12.08-.2.08Z"/>
      <path class="cls-1" d="M8.46,31.5c-.96-.43-2.12-1.08-2.9-1.79l-.06-.12v-8.32c0,.3,1.96,1.43,2.36,1.62,4.08,2.05,9.98,2.37,14.31,1.07.1-.03.2-.08.21-.2l-.02,8.39c-.17.33-3.41.77-3.98.82-3.29.29-6.87-.14-9.91-1.47Z"/>
      <path class="cls-2" d="M8.58,31.21c2.83,1.24,6.3,1.75,9.76,1.45.74-.07,3.16-.43,3.7-.67v-7.68c-4.52,1.3-10.39.83-14.33-1.15-.02-.01-1.16-.6-1.9-1.17v7.52c.65.58,1.69,1.21,2.77,1.7h0ZM16.4,33.36c-2.88,0-5.69-.54-8.06-1.58h0c-.57-.25-1.97-.94-2.98-1.84-.03-.03-.04-.06-.06-.09l-.06-.12s-.04-.09-.04-.14v-8.32c0-.17.13-.3.3-.31.19,0,.27.1.3.23.21.28,1.68,1.17,2.2,1.43,3.87,1.94,9.65,2.38,14.08,1.05h0c.04-.13.15-.23.3-.21.17,0,.3.14.3.31l-.02,8.39s0,.1-.03.14c-.31.59-4.18.98-4.22.98-.66.06-1.33.09-2,.09Z"/>
      <path class="cls-3" d="M4.74,28.88c-.29-.2-.9-1.27-1.07-1.71l-.21-.67-.11-1.02V7.82l.11,1.02c.2.84.66,1.7,1.23,2.34l.04.04v17.66Z"/>
      <path class="cls-2" d="M3.67,10.22v15.26l.11.99.19.61c.09.22.27.57.47.89V11.34c-.3-.34-.56-.72-.77-1.12h0ZM4.74,29.19c-.06,0-.12-.02-.17-.06-.38-.26-1.02-1.43-1.18-1.85l-.21-.69-.13-1.08V7.82c0-.17.13-.3.3-.31.19,0,.3.11.32.27l.11,1.02c.17.74.61,1.56,1.15,2.16.07.06.12.16.12.25v17.66c0,.12-.06.22-.17.27-.04.02-.09.04-.14.04Z"/>
      <path class="cls-3" d="M15.87,7.72c-1.1.37-10.58,3.58-10.83,3.58-.36,0-.57-.38-.82-.77-2.27-3.42.26-6.61,3.44-8.27C10.9.58,15.33,0,18.93.46c.15.02.37.11.3.27l-3.22,6.91-.13.07Z"/>
      <path class="cls-2" d="M15.87,7.72h.01-.01ZM16.47.62c-3.09,0-6.31.69-8.66,1.92-2.13,1.11-3.6,2.68-4.02,4.33-.3,1.17-.07,2.35.69,3.5l.07.1c.18.27.34.53.51.53h0c.37-.07,6.98-2.3,9.46-3.14l1.26-.42,3.1-6.66c-.78-.1-1.58-.15-2.4-.15h0ZM5.04,11.61c-.5,0-.77-.43-1.03-.81l-.06-.09c-.86-1.3-1.11-2.64-.77-3.99.47-1.81,2.04-3.53,4.33-4.72C10.64.36,15.03-.34,18.97.16c.09.01.38.06.51.3.07.12.08.26.02.4l-3.23,6.92c-.03.06-.08.11-.13.14l-.13.07s-.04.02-.05.02l-1.27.42c-8.75,2.95-9.54,3.16-9.65,3.17Z"/>
      <path class="cls-1" d="M16.41,17.75l5.96,5.99c.05.25-.9.41-1.2.47-4.83,1.1-11.66.52-15.53-2.76-.15-.13-.23-.26.04-.36l10.38-3.44.36.1Z"/>
      <path class="cls-2" d="M5.97,21.32c3.85,3.11,10.48,3.65,15.13,2.59l.16-.03c.13-.03.44-.09.65-.16l-5.66-5.7-.18-.05-10.1,3.35h0ZM16.47,25.02c-3.99,0-8.27-1-11.03-3.34-.07-.06-.29-.24-.24-.51.04-.17.17-.3.38-.37l10.39-3.44c.06-.02.12-.02.18,0l.35.1c.05.01.1.04.14.08l5.96,5.99s.07.09.08.15c.11.52-.66.68-1.28.8l-.15.03c-1.45.33-3.08.51-4.77.51Z"/>
      <path class="cls-4" d="M16.96,12.38v.02s-.02.02-.02.02v.06s.02.02.02.02l.02.02.02.02,6.24,6.21c.35.15.95-.19,1.36-.38,2.85-1.32,5.81-4.02,4.59-7.4-1.15-3.19-5.41-5.02-8.56-5.6-.15-.03-.4,0-.48.15l-3.18,6.86Z"/>
      <path class="cls-2" d="M23.4,18.49c.18.02.64-.18.88-.3l.18-.09c2.89-1.34,5.56-3.89,4.43-7.01-1.03-2.87-4.93-4.78-8.33-5.4-.07-.01-.16,0-.17.01l-3.11,6.71,6.12,6.08h0ZM23.44,19.1c-.11,0-.22-.02-.32-.06-.03-.02-.06-.04-.09-.07l-6.24-6.21s-.05-.06-.07-.08c0-.01-.04-.09-.05-.1,0-.02-.02-.06-.02-.08v-.09s.02-.1.03-.12c0,0,0-.03,0-.03l3.19-6.86c.15-.3.52-.37.81-.32,3.31.6,7.61,2.49,8.8,5.8,1.27,3.52-1.76,6.39-4.75,7.78l-.17.08c-.37.17-.76.37-1.11.37Z"/>
    </g>
  </g>
</svg>