<?xml version="1.0" encoding="UTF-8"?>
<svg id="Layer_2" data-name="Layer 2" xmlns="http://www.w3.org/2000/svg" viewBox="0 0 13.08 41.91" fill="currentColor">
  <defs>
    <style>
      .cls-1 {
        fill: #fff;
      }

      .cls-1, .cls-2, .cls-3, .cls-4 {
        fill-rule: evenodd;
      }

      .cls-2 {
        fill: #1a87c7;
      }

      .cls-3 {
        fill: #bdedf8;
      }

      .cls-4 {
        fill: #66ceef;
      }
    </style>
  </defs>
  <g id="_Layer_" data-name="&amp;lt;Layer&amp;gt;">
    <g>
      <path class="cls-4" d="M2.98,40.08c1.67-2.37.46-4.36-.75-6.34-2.48-4.07-2.74-5.91.21-9.66l7.86.03.91.86c.79.74,1.29,1.62,1.49,2.55.78,3.6-4.93,10.86-7.55,13.08-1.5,1.28-3.45,1.29-2.17-.53Z"/>
      <path class="cls-2" d="M2.98,40.08h0,0ZM2.59,24.39c-2.77,3.57-2.48,5.28-.1,9.19,1.24,2.04,2.52,4.14.74,6.68h0c-.37.53-.4.83-.33.89.19.17,1.14,0,2.05-.76,2.63-2.24,8.17-9.4,7.44-12.79-.19-.88-.68-1.71-1.4-2.4l-.82-.77-7.58-.03h0ZM3.17,41.82c-.28,0-.51-.07-.68-.22-.27-.24-.44-.74.24-1.7,1.55-2.2.43-4.04-.76-6-2.5-4.1-2.82-6.13.23-10,.06-.08.15-.12.24-.12h0l7.86.03c.08,0,.15.04.21.09l.91.86c.81.77,1.36,1.71,1.58,2.72.81,3.76-5.06,11.18-7.65,13.38-.73.62-1.56.97-2.19.97Z"/>
      <path class="cls-2" d="M2.84,41.44c-.07,0-.13-.03-.19-.07-.13-.1-.16-.29-.05-.43.94-1.18,1.95-2.86,1.44-5.37-.26-1.33-.69-2.42-1.06-3.4-.76-1.98-1.42-3.69-.33-6.25.07-.16.25-.23.4-.16.16.06.23.24.16.4-.99,2.33-.4,3.85.34,5.79.38.99.81,2.11,1.09,3.49.55,2.76-.55,4.59-1.57,5.87-.06.08-.15.12-.24.12Z"/>
      <path class="cls-2" d="M3.08,41c-.08,0-.16-.04-.22-.1-.12-.12-.12-.31,0-.43,4.14-4.04,4.33-11.16,3.71-13.45-.04-.17.05-.34.22-.38.17-.04.33.05.38.22.65,2.39.45,9.83-3.88,14.05-.06.06-.14.09-.21.09Z"/>
      <path class="cls-2" d="M3.25,41.61c-.12,0-.24-.07-.29-.19-.07-.16.01-.34.17-.4.03-.02.06-.03.09-.04-.01-.1.02-.19.1-.26,3.57-3.29,8.35-10.04,6.02-14.12-.08-.15-.03-.33.12-.42.15-.09.34-.04.42.11,2.34,4.09-1.57,9.93-4.5,13.2,2.5-2.28,5.06-6.34,5.75-9.52.26-1.23.37-2.9-.61-3.94-.12-.13-.11-.32.01-.45.12-.11.32-.1.43.02.92.97,1.18,2.52.76,4.49-.95,4.4-5.17,10.2-8.36,11.49-.04.02-.08.03-.11.03Z"/>
      <path class="cls-1" d="M11.72,24.17v-.07s0-8.63,0-8.63c-.06.92-.72,1.54-1.47,1.98-1.85,1.04-4.48,1.11-6.44.33-.99-.4-2.09-1.14-2.16-2.31v8.7c.38,3.68,9.68,3.69,10.06,0Z"/>
      <path class="cls-2" d="M11.72,24.17h0,0ZM1.97,16.91v7.19c.18,1.75,2.57,2.52,4.71,2.53h.01c2.15,0,4.54-.77,4.72-2.49v-.06s0-7.17,0-7.17c-.26.29-.59.56-1.01.81-1.87,1.05-4.56,1.19-6.7.35-.75-.3-1.34-.7-1.74-1.16h0ZM6.69,27.25h-.01c-2.49,0-5.11-.95-5.32-3.04v-.08s0-8.66,0-8.66c0-.17.13-.3.3-.31.19,0,.31.13.32.3.07,1.1,1.26,1.75,1.97,2.05,1.95.77,4.48.64,6.16-.32.84-.5,1.28-1.07,1.32-1.73.01-.18.16-.29.32-.3.16,0,.3.15.3.31v8.63s0,.09,0,.1h0c-.22,2.11-2.84,3.05-5.34,3.05Z"/>
      <path class="cls-4" d="M10.25,18.51c.71-.42,1.44-1.09,1.47-1.99V3.29c-.1,1.62-2.12,2.44-3.48,2.7-1.84.34-4.41.08-5.82-1.23-.43-.4-.73-.88-.76-1.47v13.23c.04,1.17,1.28,1.98,2.26,2.36,1.93.74,4.52.65,6.33-.37Z"/>
      <path class="cls-2" d="M10.25,18.51h0,0ZM1.97,4.74v11.79c.03.96,1.08,1.69,2.06,2.07,1.91.73,4.4.58,6.07-.35.48-.28,1.29-.88,1.32-1.73V4.74c-.74.84-2,1.34-3.12,1.56-1.88.35-4.58.09-6.09-1.3-.09-.09-.17-.17-.24-.25h0ZM6.69,19.68c-.99,0-1.98-.16-2.88-.51-.56-.22-2.41-1.04-2.46-2.64V3.29c0-.17.13-.3.3-.31.17,0,.3.12.32.28.03.47.24.88.66,1.26,1.35,1.25,3.83,1.48,5.55,1.16,1.44-.27,3.15-1.06,3.23-2.42.01-.15.14-.28.31-.28h.01c.16,0,.3.14.3.31v13.23c-.03.85-.61,1.65-1.63,2.25h0c-1.06.6-2.38.9-3.72.9Z"/>
      <path class="cls-3" d="M6.69,6.13c1.29,0,2.58-.29,3.56-.85.98-.57,1.48-1.31,1.48-2.05s-.49-1.5-1.48-2.06c-.99-.57-2.27-.85-3.56-.85s-2.58.29-3.56.85c-.98.56-1.47,1.31-1.47,2.06s.49,1.49,1.47,2.05c.98.56,2.27.85,3.56.85Z"/>
      <path class="cls-2" d="M6.69.63c-1.29,0-2.5.29-3.41.81-.85.49-1.32,1.12-1.32,1.79s.47,1.29,1.32,1.78c.9.52,2.11.81,3.41.81s2.5-.29,3.41-.81c.85-.49,1.32-1.12,1.32-1.78s-.47-1.3-1.32-1.79c-.91-.52-2.11-.81-3.41-.81h0ZM6.69,6.43c-1.4,0-2.72-.31-3.71-.89-1.05-.61-1.63-1.43-1.63-2.32s.58-1.72,1.63-2.33C3.98.32,5.29,0,6.69,0s2.72.31,3.72.89c1.05.61,1.63,1.44,1.63,2.33s-.58,1.71-1.63,2.32c-1,.57-2.32.89-3.72.89Z"/>
      <path class="cls-3" d="M10.71,2.6c0-3.05-8.04-3.05-8.04,0s8.04,3.06,8.04,0Z"/>
      <path class="cls-2" d="M6.69.62h0c-1.84,0-3.71.69-3.71,1.98s1.87,1.98,3.71,1.98h0c1.85,0,3.71-.68,3.71-1.98s-1.87-1.98-3.71-1.98h0ZM6.69,5.2h0c-2.08,0-4.33-.81-4.33-2.6S4.61,0,6.69,0h0c2.09,0,4.33.82,4.33,2.6h0c0,1.79-2.24,2.6-4.33,2.6Z"/>
      <path class="cls-3" d="M2.77,39.89c.88-1.16.42-2.52-.01-3.82-.47-1.43,2.17.56,4.06-.17,2.3-.89,1.83-3.48,3.84-3.85.69-.13,1.33-.2,1.05.46-1.52,3.57-4.58,6.75-6.46,8.35-1.5,1.28-3.74.84-2.46-.97Z"/>
      <path class="cls-2" d="M3.02,40.08c-.16.22-.5.78-.21,1.05.33.29,1.35.25,2.22-.5,2.18-1.85,5-4.99,6.38-8.24.05-.11.04-.15.04-.15-.01.03-.17,0-.75.11-.85.16-1.18.77-1.59,1.56-.44.83-.93,1.78-2.19,2.27-1.03.4-2.21.08-3.08-.16-.28-.08-.66-.18-.83-.19,0,.04.02.07.03.13.44,1.34.94,2.82-.03,4.1h0ZM3.4,41.91c-.4,0-.76-.1-1-.33-.22-.2-.64-.78.12-1.86,0-.01,0-.01,0-.01.78-1.02.37-2.23-.05-3.52-.05-.15-.18-.53.06-.79.28-.29.75-.16,1.48.03.78.22,1.86.51,2.69.18,1.04-.41,1.46-1.21,1.87-1.98.43-.83.87-1.67,2.02-1.89.57-.1,1.11-.18,1.37.15.15.18.16.43.03.74-1.42,3.35-4.31,6.57-6.55,8.46-.62.53-1.38.81-2.03.81Z"/>
    </g>
  </g>
</svg>