<?xml version="1.0" encoding="UTF-8"?>
<svg id="Layer_2" data-name="Layer 2" xmlns="http://www.w3.org/2000/svg" viewBox="0 0 40.98 32.14" fill="currentColor">
  <defs>
    <style>
      .cls-1 {
        fill: #fff;
      }

      .cls-1, .cls-2, .cls-3, .cls-4 {
        fill-rule: evenodd;
      }

      .cls-2 {
        fill: #1a87c7;
      }

      .cls-3 {
        fill: #bdedf8;
      }

      .cls-4 {
        fill: #66ceef;
      }
    </style>
  </defs>
  <g id="_Layer_" data-name="&amp;lt;Layer&amp;gt;">
    <g>
      <path class="cls-4" d="M18.4,29.03c2.83-3.53,2.57-5.08,6.84-7.52,4.79-2.76,8.54-4.51,11.08-3.72.13-8.01-2.78-13.79-9.88-16.23C15.47-2.19,3.91,2.56.95,14.39-.02,18.3,0,22.52,1.66,25.64c2.46,2.33,7.76,4.84,11.29,4.71,2.51-.1,4.77-.64,5.45-1.32Z"/>
      <path class="cls-2" d="M1.92,25.45c2.41,2.28,7.62,4.74,11.03,4.59,2.7-.09,4.69-.69,5.21-1.22.86-1.09,1.44-1.99,1.96-2.79,1.13-1.79,1.96-3.08,4.95-4.79,4.82-2.76,8.36-4.38,10.93-3.84.03-8.22-3.14-13.31-9.67-15.55C20.65-.09,14.71.28,9.96,2.85,5.56,5.25,2.55,9.26,1.26,14.47c-1.05,4.2-.81,8.2.66,10.98h0ZM12.69,30.66c-3.67,0-8.8-2.49-11.24-4.8-.03-.03-.03-.05-.05-.08-1.55-2.92-1.83-7.1-.73-11.47C2,8.94,5.12,4.79,9.65,2.31,14.55-.35,20.71-.73,26.52,1.27c6.84,2.34,10.24,7.9,10.11,16.53-.03.1-.05.19-.13.24-.08.06-.18.07-.29.04-2.36-.74-5.89.86-10.82,3.68-2.86,1.63-3.62,2.82-4.77,4.59-.5.82-1.1,1.74-1.99,2.86,0,0,0,.02-.03.02-.71.74-3.04,1.32-5.63,1.42-.1,0-.18,0-.29,0Z"/>
      <path class="cls-3" d="M36.16,16.97C36.42.51,20.5-3.33,9.31,5.13c-1.78,1.34-3.35,3.1-4.45,5.12-2.38,4.4,1.99,2.49,4.95,4.2,1.96,1.15,3.09,2.98,4.37,5.24,1.31,2.25,2.12,4.8,2.12,7.09,0,.13,0,.26-.03.39,3.14-1.1,17.95-8.46,19.89-10.19Z"/>
      <path class="cls-2" d="M36.16,16.97h.03-.03ZM21.62,1.07c-4.09,0-8.41,1.47-12.13,4.29-1.81,1.36-3.33,3.1-4.37,5.02-.58,1.06-.76,1.79-.55,2.17.21.44,1.07.56,2.04.69,1.07.15,2.28.3,3.33.93,2.12,1.22,3.28,3.23,4.51,5.35,1.39,2.38,2.15,4.94,2.15,7.2,3.83-1.49,17.08-8.11,19.28-9.9.05-6.68-2.59-11.71-7.47-14.19-2.07-1.04-4.38-1.56-6.79-1.56h0ZM16.28,27.48c-.05,0-.13-.03-.18-.06-.08-.06-.13-.17-.11-.26v-.38c0-2.16-.73-4.63-2.07-6.93-1.18-2.05-2.31-3.99-4.27-5.13-.97-.56-2.12-.71-3.12-.84-1.15-.15-2.15-.29-2.54-1.02-.29-.6-.11-1.44.6-2.75,1.07-2,2.65-3.81,4.51-5.22C15.23.26,22.91-.84,28.7,2.08c5.14,2.62,7.89,7.9,7.78,14.89,0,.09-.03.17-.1.23-1.94,1.75-16.77,9.14-19.99,10.27-.03.01-.05.02-.11.02Z"/>
      <path class="cls-4" d="M32,17.42c.52-.19,1-.34,1.47-.44C32.55,7,23.56.55,14.18.66c-.76.18-1.2.35-1.91.63,1.07-.38,17.42.26,19.73,16.14Z"/>
      <path class="cls-2" d="M14.36.96c2.31.21,6,1,9.38,3.04,4.72,2.85,7.57,7.22,8.49,13,.31-.11.63-.19.89-.27C32.15,7.69,24.16.96,14.42.96h-.05ZM32,17.73c-.05,0-.1,0-.16-.04-.08-.05-.13-.13-.16-.22-.84-5.77-3.62-10.13-8.28-12.93C18.4,1.5,12.9,1.38,12.37,1.57c-.16.05-.34-.03-.39-.18-.05-.16.03-.33.18-.39.73-.29,1.18-.45,1.94-.64h.26c10.22,0,18.52,7.1,19.41,16.59,0,.16-.1.3-.24.33-.45.1-.92.24-1.44.43-.05.02-.08.02-.11.02Z"/>
      <path class="cls-4" d="M24.19,21.57c-.34-9.34-9.14-16.93-18.16-16.7-.34.29-.66.58-.97.9,9.04.08,17.19,7.56,17.63,16.93.47-.38.97-.75,1.49-1.13Z"/>
      <path class="cls-2" d="M5.8,5.48c8.93.46,16.45,7.72,17.16,16.61.31-.24.63-.46.92-.68-.42-8.77-8.46-16.24-17.42-16.24h-.31c-.1.1-.21.2-.34.3h0ZM22.7,23c-.05,0-.08,0-.13-.03-.11-.04-.16-.15-.18-.26-.42-9.1-8.2-16.56-17.34-16.64-.11,0-.24-.08-.26-.2-.05-.11-.03-.24.05-.33.34-.32.66-.63,1-.91.05-.04.13-.07.21-.07.13,0,.29,0,.42,0,9.33,0,17.71,7.84,18.05,17,0,.1-.05.2-.13.26-.47.34-.97.7-1.47,1.12-.08.04-.13.06-.21.06Z"/>
      <path class="cls-1" d="M40.43,21.38c-5.61-.63-16.32,7.12-19.83,10.45l-.89-1.78c4.19-4.08,14.78-11.36,20.96-10.67l-.24,2Z"/>
      <path class="cls-2" d="M20.1,30.11l.58,1.21c3.41-3.09,13.6-10.64,19.49-10.27l.16-1.39c-6.1-.43-16.17,6.57-20.23,10.46h0ZM20.6,32.14s-.05,0-.05,0c-.1-.02-.18-.08-.23-.16l-.86-1.78c-.05-.12-.03-.26.05-.36,4.09-3.98,14.83-11.46,21.2-10.75.08,0,.16.05.21.11.05.07.08.15.08.23l-.24,2c-.03.16-.16.29-.34.27-5.48-.62-16.11,7.07-19.62,10.37-.05.05-.13.09-.18.09Z"/>
      <path class="cls-3" d="M15.47,27.59c4.4-4.3,14.75-11.22,20.8-10.67l4.4,2.47c-6.47-.67-17.16,6.96-20.96,10.67l-4.24-2.46Z"/>
      <path class="cls-2" d="M15.96,27.52l3.72,2.14c3.9-3.74,13.36-10.33,19.75-10.62l-3.25-1.83c-5.66-.47-15.38,5.69-20.23,10.31h0ZM19.71,30.36c-.05,0-.1-.02-.13-.05l-4.27-2.46c-.08-.05-.13-.13-.16-.22,0-.09.03-.19.11-.26,3.98-3.92,14.62-11.35,21.06-10.76.03,0,.08.02.1.03l4.4,2.48c.11.07.18.22.13.36-.05.14-.16.23-.31.22-6.23-.66-16.74,6.69-20.7,10.57-.08.06-.16.1-.24.1Z"/>
      <polygon class="cls-4" points="19.71 30.05 15.47 27.59 16.3 29.31 20.6 31.83 19.71 30.05"/>
      <path class="cls-2" d="M16.54,29.09l3.33,1.96-.39-.78-3.27-1.9.34.73h0ZM20.6,32.14c-.05,0-.11-.02-.16-.04l-4.3-2.52c-.05-.03-.08-.08-.1-.13l-.86-1.72c-.05-.12-.03-.27.08-.37.1-.09.24-.11.37-.03l4.24,2.45c.05.04.11.08.13.14l.86,1.78c.05.12.03.27-.08.36-.05.05-.13.09-.18.09Z"/>
    </g>
  </g>
</svg>