<?xml version="1.0" encoding="UTF-8"?>
<svg id="Layer_2" data-name="Layer 2" xmlns="http://www.w3.org/2000/svg" viewBox="0 0 40.87 40.66" fill="currentColor">
  <defs>
    <style>
      .cls-1 {
        fill: #fff;
      }

      .cls-1, .cls-2, .cls-3, .cls-4 {
        fill-rule: evenodd;
      }

      .cls-2 {
        fill: #1a87c7;
      }

      .cls-3 {
        fill: #bdedf8;
      }

      .cls-4 {
        fill: #66ceef;
      }
    </style>
  </defs>
  <g id="_Layer_" data-name="&amp;lt;Layer&amp;gt;">
    <g>
      <polygon class="cls-4" points="36.92 25.12 37.73 24.65 38.51 25.94 37.44 25.94 36.92 25.12"/>
      <path class="cls-2" d="M37.6,25.64h.37l-.34-.57-.26.16.24.4h0ZM38.51,26.25h-1.07c-.11,0-.21-.05-.26-.15l-.52-.82c-.03-.07-.05-.16-.03-.24.03-.08.08-.15.13-.19l.84-.47c.13-.08.31-.04.39.11l.79,1.29c.05.09.08.21,0,.31-.05.1-.16.16-.26.16Z"/>
      <path class="cls-3" d="M27.14,12.58l-5.19-3c-.68-.25-.94-.14-1.6.16L2.57,20.01c-.92.57-1.41,1.26-1.86,2.21-.26.6-.37,1.01-.39,1.66v11.87c.05.7.11.99.66,1.45l5.19,3c-.55-.46-.58-.75-.65-1.45v-11.88c.08-1.54.94-3.04,2.25-3.87l17.82-10.28c.63-.29.89-.41,1.57-.15Z"/>
      <path class="cls-2" d="M21.33,9.74c-.24,0-.45.1-.84.27L2.7,20.28c-.76.48-1.26,1.08-1.73,2.07-.21.53-.31.91-.34,1.55v11.86c.05.63.08.82.55,1.21l4.09,2.37c-.03-.16-.05-.34-.05-.55v-11.9c.05-1.66.97-3.24,2.38-4.13l17.82-10.28c.18-.09.37-.17.52-.22l-4.14-2.4c-.21-.07-.34-.11-.47-.11h0ZM6.16,40.51c-.05,0-.11-.01-.13-.04l-5.21-3c-.68-.55-.73-.91-.81-1.68v-11.9c.03-.73.18-1.19.42-1.78.52-1.12,1.1-1.8,1.97-2.36l17.82-10.28c.73-.34,1.07-.47,1.86-.17l5.24,3.02c.13.08.18.25.13.4-.08.14-.26.21-.39.16-.58-.21-.76-.13-1.34.14L7.91,23.28c-1.2.76-2.02,2.18-2.1,3.62v11.86c.05.63.08.82.55,1.21.13.1.16.28.05.41-.05.09-.16.13-.26.13Z"/>
      <path class="cls-4" d="M5.03,22.25l-1.81-1.04c-.08-.05-.11-.12-.11-.22s.03-.16.11-.21c.63-.35,1.26-.71,1.86-1.07.24-.13.5-.13.73,0l1.81,1.04c.08.05.11.12.11.21s-.03.17-.11.21l-1.86,1.07c-.24.14-.5.14-.73,0Z"/>
      <path class="cls-2" d="M5.19,21.99c.13.08.29.08.42,0l1.76-1.01-1.7-.99c-.13-.08-.29-.08-.42,0l-1.76,1.01,1.7.99h0ZM5.4,22.66c-.18,0-.37-.05-.52-.14h0l-1.81-1.04c-.16-.11-.26-.28-.26-.48s.1-.38.26-.48l1.86-1.07c.31-.19.71-.19,1.05,0l1.81,1.04c.16.1.26.28.26.48s-.1.38-.26.48l-1.86,1.07c-.16.09-.34.14-.52.14Z"/>
      <path class="cls-1" d="M25.57,12.74L7.75,23.01c-1.23.71-2.25,2.45-2.25,3.87v11.88c0,1.42,1.02,2,2.25,1.29l17.79-10.27c1.23-.71,2.25-2.45,2.25-3.88v-11.87c0-1.42-1.02-2-2.23-1.29Z"/>
      <path class="cls-2" d="M26.57,12.74c-.26,0-.55.09-.84.26h0L7.91,23.28c-1.13.65-2.1,2.3-2.1,3.6v11.88c0,.57.18.99.5,1.18.34.19.79.13,1.28-.15l17.82-10.27c1.13-.65,2.07-2.3,2.07-3.61v-11.87c0-.57-.18-.99-.5-1.18-.13-.07-.26-.11-.42-.11h0ZM6.76,40.66c-.26,0-.52-.06-.73-.19-.52-.3-.84-.91-.84-1.71l.03-11.88c0-1.52,1.07-3.38,2.38-4.14l17.82-10.27c.68-.4,1.36-.46,1.89-.15.52.3.81.91.81,1.71v11.87c0,1.52-1.07,3.38-2.41,4.14l-17.79,10.27c-.42.23-.81.35-1.15.35Z"/>
      <path class="cls-4" d="M16.66,21.72c1.26-.73,2.28-.14,2.28,1.32,0,.88-.39,1.88-.97,2.69v4.12c0,.69-.5,1.54-1.1,1.89l-.45.26c-.6.35-1.1.06-1.1-.63v-4.11c-.58-.14-.94-.71-.94-1.59,0-1.45,1.02-3.22,2.28-3.94Z"/>
      <path class="cls-2" d="M17.69,21.71c-.26,0-.55.09-.86.27-1.18.67-2.12,2.32-2.12,3.68,0,.71.26,1.18.71,1.29.13.03.24.16.24.3v4.11c0,.22.05.38.18.44.08.06.26.03.45-.07l.45-.26c.52-.29.94-1.04.94-1.62v-4.12c0-.07.03-.13.08-.18.55-.79.89-1.73.89-2.51,0-.59-.18-1.02-.52-1.21-.13-.08-.26-.11-.42-.11h0ZM15.93,32.45c-.16,0-.29-.04-.42-.11-.32-.18-.5-.53-.5-.97l.03-3.89c-.63-.26-.97-.92-.97-1.81,0-1.57,1.07-3.42,2.44-4.21.71-.41,1.39-.46,1.91-.16.52.31.84.93.84,1.74,0,.88-.37,1.92-.97,2.79v4.02c0,.81-.55,1.75-1.26,2.16l-.45.26c-.24.13-.45.19-.66.19Z"/>
      <path class="cls-4" d="M23.92,5.77c.26-.89.5-1.39,1.1-2.1-.05.02-.18.04-.26.06-1.7.43-2.96,2.01-2.96,4.39l-.03,4.55,1.94-1.11-.03-3.72c0-.88.13-1.64.24-2.06Z"/>
      <path class="cls-2" d="M24.21,4.25c-1.31.62-2.1,2.04-2.1,3.86l-.03,4.02,1.31-.76v-3.54c0-1.08.16-1.9.21-2.13v-.02c.18-.56.34-.98.6-1.43h0ZM21.77,12.98c-.05,0-.11-.01-.16-.04-.08-.06-.16-.16-.16-.27l.03-4.55c0-2.39,1.23-4.19,3.2-4.68.05-.01.11-.02.16-.03.03,0,.08-.01.1-.02.13-.05.26,0,.34.12.08.12.08.27-.03.37-.55.63-.79,1.07-1.05,1.97-.05.22-.21.98-.21,1.98l.03,3.72c0,.11-.08.22-.16.27l-1.94,1.11c-.05.03-.1.04-.16.04Z"/>
      <path class="cls-4" d="M31.26,1.54c-2.1-1.11-4.32-1.79-6.6-.63l-1.91,1.07c1.05-.53,1.81-.64,2.96-.58,2.17.26,3.8,1.17,5.53,2.48,1.86,1.53,3.12,3.02,4.4,4.97,1.62,2.66,2.99,5.22,2.99,8.36l.03,9.7,1.91-1.1v-.09l.03-9.02c0-2.09-.58-3.71-1.36-5.64-.31-.77-.65-1.47-1.07-2.21-.52-.92-1.05-1.73-1.68-2.59-1.55-1.98-3.04-3.43-5.21-4.71Z"/>
      <path class="cls-2" d="M25.15,1.07c.18,0,.39,0,.58.02,2.44.29,4.17,1.39,5.68,2.54,1.78,1.47,3.09,2.93,4.48,5.05,1.6,2.63,3.04,5.24,3.04,8.53l.03,9.17,1.28-.75.03-8.94c0-2.05-.58-3.65-1.31-5.53-.34-.74-.68-1.44-1.07-2.18-.52-.92-1.05-1.71-1.68-2.55-1.65-2.12-3.12-3.46-5.11-4.63-1.65-.88-3.85-1.75-6.08-.74h.13ZM38.64,27.22c-.05,0-.11-.02-.16-.04-.08-.05-.16-.15-.16-.26v-9.7c-.03-3.13-1.41-5.66-2.96-8.2-1.36-2.05-2.62-3.47-4.35-4.89-1.41-1.09-3.06-2.14-5.34-2.41-1.18-.06-1.86.07-2.78.55-.16.07-.34.02-.42-.13-.08-.15-.03-.33.13-.41l1.89-1.07c2.59-1.32,5.06-.35,6.89.63h.03c2.04,1.22,3.59,2.6,5.29,4.8.65.87,1.18,1.68,1.73,2.63.39.76.76,1.47,1.07,2.24.79,1.95,1.36,3.6,1.36,5.76v9.12c0,.11-.05.21-.16.26l-1.91,1.1c-.05.03-.11.04-.16.04Z"/>
      <path class="cls-4" d="M29.34,2.61c-5.16-2.89-9.33-.55-9.33,5.23v3.81l1.76,1.02.03-4.55c0-4.18,3.59-5.76,7.55-3.54,4.03,2.26,7.31,7.63,7.57,12.21v5.35l.45.26c.24.13.37.36.37.63v2.14c0,.09-.03.17-.1.21-.08.04-.18.04-.26,0l-.45-.26v.03c0,.26,0,.51-.03.75l1.76,1.01c.03-.25.03-.51.03-.78,0-.29,0-8.4-.03-8.69-.39-5.6-4.4-12.09-9.3-14.83h0Z"/>
      <path class="cls-2" d="M37.2,25.73l1.15.66v-.26c0-.41,0-8.37-.03-8.67-.37-5.52-4.38-11.92-9.14-14.58h0c-2.41-1.37-4.69-1.58-6.37-.6-1.6.95-2.49,2.92-2.49,5.56v3.63l1.15.66v-4.02c0-1.96.76-3.47,2.12-4.27,1.57-.92,3.72-.75,5.89.47,4.09,2.29,7.47,7.76,7.73,12.46v5.19l.29.17c.31.19.52.52.52.9v2.14c0,.2-.1.38-.26.48-.18.1-.39.1-.55,0,0,.03-.03.06-.03.08h0ZM38.64,27.22c-.05,0-.11-.01-.16-.04l-1.76-1.01c-.1-.06-.16-.18-.16-.29.03-.23.03-.47.03-.72,0-.11.08-.23.16-.28.1-.06.24-.07.31-.01l.37.2v-2.03c0-.16-.08-.29-.21-.37l-.47-.26c-.08-.05-.16-.15-.16-.26v-5.33c-.23-4.51-3.48-9.76-7.41-11.96-1.96-1.1-3.88-1.28-5.27-.47-1.15.68-1.81,2.01-1.81,3.74l-.03,4.55c0,.11-.05.21-.16.26-.08.06-.21.06-.31,0l-1.76-1.02c-.08-.05-.16-.15-.16-.26v-3.81c0-2.86,1-5.03,2.83-6.09,1.86-1.1,4.32-.89,6.97.59h0c4.9,2.75,9.07,9.38,9.46,15.08.03.31.03,8.63.03,8.71,0,.27,0,.54-.03.8,0,.11-.08.2-.16.25-.05.02-.11.04-.16.04Z"/>
      <path class="cls-4" d="M5.45,19.62c.13,0,.24.03.37.1l1.81,1.04c.08.05.11.12.11.21s-.03.17-.11.21l-1.86,1.07c-.11.06-.21.09-.31.1v-2.73Z"/>
      <path class="cls-2" d="M5.76,20.04v1.86l1.6-.92-1.6-.93h0ZM5.45,22.66c-.08,0-.16-.03-.21-.08-.08-.06-.11-.14-.11-.23v-2.73c0-.08.03-.16.11-.22.05-.06.13-.09.21-.09h0c.18,0,.37.05.52.14l1.81,1.04c.16.1.26.28.26.48s-.1.38-.26.48l-1.86,1.07c-.16.08-.29.13-.45.14h-.03Z"/>
      <path class="cls-4" d="M17.48,31.2c-.18.22-.37.41-.6.54l-.45.26c-.6.35-1.1.06-1.1-.63v-1.4l2.15,1.23Z"/>
      <path class="cls-2" d="M15.64,30.49v.87c0,.22.05.38.18.44.08.06.26.03.45-.07l.45-.26c.1-.05.18-.12.26-.19l-1.34-.78h0ZM15.93,32.45c-.16,0-.29-.04-.42-.11-.32-.18-.5-.53-.5-.97l.03-1.4c0-.11.05-.21.13-.27.1-.06.24-.06.31,0l2.15,1.23c.05.04.11.12.13.2.03.09,0,.18-.05.25-.18.27-.42.48-.68.62l-.45.26c-.24.13-.45.19-.66.19Z"/>
      <path class="cls-4" d="M16.66,21.72c1.26-.73,2.28-.14,2.28,1.32,0,.57-.16,1.18-.42,1.77l-.55.92-3.17-1.83c.42-.91,1.07-1.73,1.86-2.17Z"/>
      <path class="cls-2" d="M15.2,23.77l2.67,1.54.37-.66c.26-.54.39-1.11.39-1.61,0-.59-.18-1.02-.52-1.21-.31-.19-.79-.14-1.28.16h0c-.63.35-1.2,1.01-1.62,1.79h0ZM17.97,26.03c-.05,0-.1-.02-.16-.04l-3.17-1.83c-.13-.08-.18-.25-.13-.39.47-1,1.21-1.86,1.99-2.32h0c.71-.41,1.39-.46,1.91-.16.52.31.84.93.84,1.74,0,.59-.16,1.25-.47,1.89l-.55.95c-.03.07-.1.12-.18.14-.03,0-.05.01-.08.01Z"/>
      <path class="cls-3" d="M.73,22.17l-.03.04c-.26.6-.37,1.01-.39,1.66v11.87c.05.7.11.99.66,1.45l5.19,3c-.55-.46-.58-.75-.65-1.45v-11.88c.03-.6.16-1.16.42-1.71l-5.19-3Z"/>
      <path class="cls-2" d="M.89,22.62c-.16.41-.24.75-.26,1.28v11.86c.05.63.08.82.55,1.21l4.09,2.37c-.03-.16-.05-.34-.05-.55v-11.9c.03-.58.13-1.1.31-1.58l-4.64-2.69h0ZM6.16,40.51c-.05,0-.11-.01-.13-.04l-5.21-3c-.68-.55-.73-.91-.81-1.68v-11.9c.03-.73.18-1.19.42-1.78.03-.08.11-.17.18-.2.1-.03.21-.04.29,0l5.19,3c.13.08.18.25.13.4-.24.48-.37,1-.39,1.59v11.86c.05.63.08.82.55,1.21.13.1.16.28.05.41-.05.09-.16.13-.26.13Z"/>
    </g>
  </g>
</svg>