<?xml version="1.0" encoding="UTF-8"?>
<svg id="Layer_2" data-name="Layer 2" xmlns="http://www.w3.org/2000/svg" viewBox="0 0 46.29 34.13" fill="currentColor">
  <defs>
    <style>
      .cls-1 {
        fill: #fff;
      }

      .cls-1, .cls-2, .cls-3, .cls-4 {
        fill-rule: evenodd;
      }

      .cls-2 {
        fill: #1a87c7;
      }

      .cls-3 {
        fill: #bdedf8;
      }

      .cls-4 {
        fill: #66ceef;
      }
    </style>
  </defs>
  <g id="_Layer_" data-name="&amp;lt;Layer&amp;gt;">
    <g>
      <path class="cls-4" d="M29.94.35c4.95-.26,9.92.64,14.46,2.63,1.07.47,1.69,1.55,1.56,2.7-.54,4.93-2.24,9.69-4.94,13.84-2.7,4.14-6.35,7.58-10.64,10.07-4.28,2.47-9.1,3.91-14.03,4.18-4.94.27-9.93-.64-14.46-2.63-1.07-.47-1.69-1.54-1.56-2.7.55-4.93,2.25-9.69,4.95-13.84,2.7-4.14,6.35-7.58,10.64-10.06C20.21,2.07,25.01.62,29.94.35Z"/>
      <path class="cls-2" d="M29.96.67c-4.85.26-9.66,1.69-13.89,4.14-4.24,2.44-7.88,5.88-10.53,9.96C2.87,18.86,1.16,23.6.63,28.47c-.11,1.04.43,1.97,1.38,2.39,4.49,1.97,9.45,2.88,14.32,2.6,4.84-.26,9.65-1.68,13.89-4.14,4.23-2.45,7.88-5.89,10.53-9.96,2.67-4.08,4.36-8.82,4.9-13.7.11-1.04-.42-1.96-1.37-2.38-4.49-1.97-9.44-2.87-14.32-2.61h0ZM14.63,34.13c-4.4,0-8.81-.93-12.86-2.7-1.18-.52-1.89-1.74-1.75-3.03.55-4.96,2.28-9.79,5-13.97,2.71-4.15,6.42-7.67,10.74-10.16C20.08,1.78,24.98.32,29.93.05h0c4.99-.28,10.03.65,14.6,2.66,1.18.51,1.89,1.73,1.75,3.02-.56,4.97-2.28,9.81-5.01,13.97-2.7,4.15-6.42,7.66-10.73,10.16-4.33,2.5-9.23,3.96-14.18,4.22-.57.03-1.15.05-1.73.05Z"/>
      <path class="cls-3" d="M30.47,1.33c4.27-.23,8.54.55,12.45,2.27.92.41,1.46,1.33,1.35,2.33-.47,4.24-1.93,8.35-4.27,11.93-2.32,3.56-5.46,6.53-9.16,8.66-3.69,2.13-7.85,3.37-12.09,3.61-4.26.23-8.56-.56-12.47-2.27-.91-.41-1.45-1.33-1.34-2.33.95-8.65,5.91-16.25,13.43-20.59,3.7-2.14,7.84-3.37,12.09-3.61Z"/>
      <path class="cls-2" d="M30.49,1.65c-4.17.22-8.31,1.46-11.95,3.56-7.38,4.26-12.34,11.87-13.28,20.36-.09.87.37,1.66,1.17,2.01,3.87,1.71,8.13,2.48,12.32,2.25,4.17-.23,8.3-1.45,11.95-3.57,3.64-2.1,6.78-5.07,9.06-8.57,2.3-3.51,3.76-7.59,4.22-11.79.1-.87-.35-1.66-1.16-2.01-3.86-1.7-8.12-2.47-12.32-2.24h0ZM17.29,30.48c-3.81,0-7.61-.8-11.12-2.34-1.03-.45-1.65-1.51-1.52-2.64.96-8.69,6.03-16.46,13.58-20.83,3.72-2.15,7.95-3.41,12.22-3.64h0c4.29-.24,8.66.56,12.6,2.3,1.04.45,1.65,1.51,1.52,2.64-.47,4.29-1.96,8.46-4.31,12.06-2.34,3.58-5.54,6.61-9.27,8.77-3.73,2.15-7.95,3.42-12.22,3.64-.5.03-.99.04-1.49.04Z"/>
      <path class="cls-1" d="M29.94.35c1.07-.05,2.12-.05,3.19,0,1.14.93,2.2,1.95,3.17,3.05,1.15,1.3,2.18,2.74,3.08,4.29.9,1.56,1.62,3.16,2.18,4.82.46,1.39.81,2.82,1.05,4.27-.49.95-1.02,1.87-1.6,2.75l-.31.45c-.29-1.59-.71-3.17-1.25-4.74-.7-2.05-1.62-4.07-2.74-6.02-1.13-1.95-2.42-3.75-3.84-5.38-1.08-1.24-2.25-2.4-3.48-3.46l.54-.03Z"/>
      <path class="cls-2" d="M30.17.66c1.04.93,2.03,1.93,2.95,2.98,1.45,1.68,2.76,3.5,3.87,5.43,1.11,1.93,2.05,3.98,2.77,6.08.45,1.32.83,2.68,1.11,4.04.51-.79.98-1.62,1.43-2.46-.23-1.41-.58-2.8-1.02-4.13-.55-1.63-1.28-3.24-2.15-4.75-.88-1.51-1.9-2.95-3.05-4.24-.93-1.05-1.96-2.04-3.06-2.96-.97-.04-1.9-.03-2.84,0h0ZM40.71,20.29s-.03-.01-.06-.01c-.12-.03-.22-.12-.24-.24-.3-1.58-.71-3.16-1.23-4.69-.71-2.06-1.62-4.07-2.72-5.96-1.09-1.89-2.37-3.69-3.81-5.34-1.06-1.23-2.22-2.37-3.44-3.42-.09-.08-.13-.21-.09-.33.04-.11.15-.2.28-.21l.54-.03h0c1.06-.06,2.11-.06,3.21-.01.07,0,.13.03.18.07,1.16.95,2.24,1.98,3.21,3.09,1.17,1.33,2.22,2.79,3.12,4.34.89,1.56,1.63,3.19,2.2,4.88.47,1.39.83,2.84,1.07,4.32,0,.06,0,.13-.03.19-.5.96-1.04,1.9-1.62,2.78l-.3.45c-.06.09-.16.14-.26.14Z"/>
      <path class="cls-1" d="M16.88,33.74l-.53.03c-1.06.06-2.14.06-3.2,0-1.13-.93-2.19-1.95-3.17-3.05-1.15-1.31-2.19-2.74-3.09-4.29-.89-1.56-1.62-3.17-2.17-4.82-.47-1.38-.82-2.82-1.06-4.27.49-.94,1.03-1.87,1.61-2.75l.3-.45c.3,1.59.72,3.17,1.25,4.73.71,2.05,1.62,4.07,2.74,6.02,1.12,1.95,2.42,3.74,3.84,5.38,1.08,1.24,2.24,2.4,3.47,3.45Z"/>
      <path class="cls-2" d="M13.27,33.48c.94.04,1.9.04,2.84,0-1.04-.94-2.02-1.94-2.94-2.99-1.45-1.67-2.76-3.5-3.88-5.43-1.11-1.93-2.04-3.97-2.76-6.07-.45-1.32-.83-2.67-1.12-4.04-.51.8-.99,1.63-1.43,2.46.24,1.42.58,2.8,1.03,4.12.55,1.64,1.27,3.25,2.15,4.77.87,1.51,1.89,2.94,3.05,4.24.92,1.04,1.95,2.04,3.05,2.95h0ZM14.62,34.13c-.5,0-.99-.02-1.48-.03-.07-.01-.13-.03-.18-.07-1.17-.96-2.23-1.99-3.21-3.09-1.17-1.33-2.23-2.8-3.11-4.34-.9-1.55-1.64-3.19-2.21-4.87-.46-1.38-.83-2.84-1.07-4.32,0-.06,0-.13.04-.19.48-.94,1.02-1.88,1.61-2.78l.31-.45c.07-.11.19-.16.31-.13.12.03.22.12.24.24.3,1.59.72,3.17,1.24,4.69.7,2.06,1.63,4.06,2.72,5.96,1.1,1.9,2.37,3.69,3.81,5.34,1.05,1.21,2.21,2.37,3.43,3.42.1.09.13.22.1.33-.04.12-.15.2-.28.21l-.53.03c-.58.03-1.16.05-1.75.05Z"/>
      <path class="cls-2" d="M14.08,16.05c-.11,0-.24-.08-.28-.19l-1.34-3.22c-.07-.16,0-.33.17-.4.15-.06.34,0,.4.17l1.34,3.22c.07.16,0,.33-.17.4-.03.02-.08.02-.12.02Z"/>
      <path class="cls-2" d="M17.22,14.1c-.11,0-.22-.06-.27-.17l-1.73-3.52c-.07-.16,0-.34.14-.42.16-.07.34,0,.42.15l1.72,3.52c.08.16.02.34-.14.42-.04.02-.09.03-.14.03Z"/>
      <path class="cls-2" d="M20.44,12.68c-.1,0-.21-.05-.27-.15l-2.44-4.22c-.08-.15-.03-.33.11-.42.15-.09.34-.03.43.11l2.43,4.22c.09.15.03.34-.11.42-.05.03-.1.04-.15.04Z"/>
      <path class="cls-2" d="M23.27,10.62c-.09,0-.2-.05-.25-.14l-2.18-3.26c-.09-.15-.06-.34.08-.43.14-.1.34-.06.43.08l2.18,3.26c.09.15.05.34-.09.44-.05.03-.11.05-.18.05Z"/>
      <path class="cls-2" d="M26.53,8.86c-.09,0-.18-.05-.24-.12l-2.12-2.76c-.11-.14-.08-.33.06-.44.13-.1.33-.08.43.06l2.12,2.76c.1.14.08.33-.05.43-.06.04-.12.06-.19.06Z"/>
      <path class="cls-2" d="M11.11,16.29c-.09,0-.17-.03-.23-.11-.12-.12-.1-.32.03-.43,5.1-4.41,10.9-7.75,17.22-9.93.16-.06.34.02.39.19.05.16-.03.33-.19.39-6.25,2.16-11.98,5.46-17.02,9.82-.06.05-.13.08-.2.08Z"/>
    </g>
  </g>
</svg>