<?xml version="1.0" encoding="UTF-8"?>
<svg id="Layer_2" data-name="Layer 2" xmlns="http://www.w3.org/2000/svg" viewBox="0 0 33.25 41.72" fill="currentColor">
  <defs>
    <style>
      .cls-1 {
        fill: #fff;
      }

      .cls-1, .cls-2, .cls-3, .cls-4 {
        fill-rule: evenodd;
      }

      .cls-2 {
        fill: #1a87c7;
      }

      .cls-3 {
        fill: #bdedf8;
      }

      .cls-4 {
        fill: #66ceef;
      }
    </style>
  </defs>
  <g id="_Layer_" data-name="&amp;lt;Layer&amp;gt;">
    <g>
      <path class="cls-4" d="M2.05,21.03c.01-1.77,1.08-3.74,2.59-4.65l11.47-6.59c-.03.55-.62,1.52-1.27,1.28l1.85,1.05c.7.15,1.59-1.42.95-1.87l-1.17-.67L29.72,1.93c.72-.41,1.44-.84,2.29-.47-.36-.2-1.66-1-1.95-1.08-.9-.26-1.78.37-2.52.8L4.14,14.68c-2.18,1.25-3.82,2.57-3.83,5.34v18.35c0,.64.17,1.4.74,1.77l1.75,1.01c-.58-.43-.73-1.08-.74-1.77v-18.35Z"/>
      <path class="cls-2" d="M14.98,10.79c.06.02.15.02.29-.07.09-.06.16-.14.24-.23l-.53.3h0ZM15.67,11.19l1.12.63c.18,0,.49-.28.66-.68.1-.24.15-.54.01-.64l-1.06-.61c-.05.42-.32.98-.73,1.29h0ZM29.62.62c.11,0,.23.02.34.05.11.03.45.22.81.42-.43.12-.83.35-1.21.57l-13.26,7.65c-.07.04-.12.1-.14.18-.08-.02-.16,0-.23.03l-11.47,6.59c-1.58.96-2.73,3.02-2.75,4.91h0v18.36c0,.26.03.56.1.87l-.63-.37c-.5-.34-.59-1.1-.6-1.52v-18.35c.02-2.49,1.36-3.75,3.68-5.08L27.69,1.44l.29-.17c.54-.32,1.08-.65,1.64-.65h0ZM2.79,41.47c-.05,0-.11-.01-.16-.04l-1.75-1.01c-.76-.51-.89-1.49-.89-2.04v-18.36c.02-3.08,1.97-4.46,3.98-5.61L27.66.74c.69-.42,1.56-.93,2.49-.67.22.07.81.4,1.72.94l.3.18c.14.08.19.26.12.4-.07.14-.24.21-.4.15-.72-.3-1.31.04-1.98.44l-12.82,7.4.7.41c.4.28.48.81.23,1.4-.26.6-.82,1.15-1.39,1.03-.03,0-.06-.02-.09-.03l-1.86-1.05c-.11-.06-.16-.17-.15-.29l-9.74,5.6c-1.4.85-2.43,2.69-2.44,4.39v18.35c0,.74.2,1.21.62,1.53.13.1.16.28.07.41-.05.09-.16.14-.25.14Z"/>
      <path class="cls-3" d="M17.11,10.3c.42-.24.75-.05.75.43s-.33,1.05-.75,1.29c-.41.24-.74.05-.74-.43s.33-1.05.74-1.29h0ZM2.05,21.03v18.35c0,.9.31,1.53.84,1.83.51.3,1.22.26,2-.19,6.8-3.92,18.43-10.64,25.22-14.56.78-.45,1.49-1.23,2-2.12.52-.89.84-1.89.84-2.79V3.34c0-.9-.31-1.53-.84-1.83-.51-.3-1.22-.25-2,.2-3.86,2.23-18.13,10.47-24.22,13.99-1.22.71-2.07.93-3,2.55-.52.89-.84,1.89-.84,2.79h0Z"/>
      <path class="cls-2" d="M17.11,10.3h0,0ZM17.44,10.51s-.11.02-.18.06h0c-.31.18-.59.66-.59,1.02,0,.13.03.2.06.22.04.02.12,0,.22-.05.31-.18.59-.66.59-1.02,0-.12-.04-.2-.07-.22,0,0-.02,0-.03,0h0ZM16.77,12.43c-.12,0-.24-.03-.35-.09-.24-.14-.37-.41-.37-.75,0-.58.4-1.27.9-1.56h0c.3-.17.6-.19.84-.05.23.14.37.41.37.75,0,.58-.4,1.27-.9,1.56-.16.09-.33.14-.49.14h0ZM31.37,1.62c-.33,0-.71.11-1.1.35L6.04,15.96c-.22.12-.42.23-.61.33-.9.49-1.56.84-2.29,2.11-.5.88-.79,1.82-.79,2.64v18.35c0,.76.24,1.31.68,1.57.45.25,1.05.18,1.7-.2l25.22-14.56c.71-.41,1.38-1.12,1.89-2.01.5-.88.79-1.82.79-2.64V3.34c0-.75-.24-1.31-.68-1.56-.17-.1-.37-.15-.59-.15h0ZM3.62,41.72c-.33,0-.63-.08-.9-.23-.63-.37-.99-1.11-.99-2.1v-18.35c0-.93.31-1.97.88-2.95.82-1.42,1.61-1.84,2.52-2.34.19-.1.38-.2.59-.33L29.95,1.44c.86-.5,1.68-.56,2.31-.2.63.37.99,1.11.99,2.1v18.21c0,.92-.31,1.97-.88,2.95-.57.98-1.31,1.77-2.11,2.23l-25.22,14.56c-.5.28-.97.43-1.42.43Z"/>
      <polygon class="cls-1" points="4.38 38.45 31.15 22.99 31.15 5.82 4.38 21.27 4.38 38.45"/>
      <path class="cls-2" d="M4.68,21.45v16.46l26.16-15.1V6.35L4.68,21.45h0ZM4.38,38.75c-.05,0-.1-.01-.16-.04-.1-.06-.15-.16-.15-.26v-17.17c0-.11.05-.21.15-.27L31,5.55c.1-.05.21-.05.3,0,.1.05.16.16.16.26v17.17c0,.11-.06.21-.16.27l-26.77,15.45c-.05.03-.11.04-.15.04Z"/>
      <path class="cls-2" d="M18.73,19.11c-.1,0-.21-.06-.27-.16-.08-.15-.03-.34.11-.42l9.67-5.59c.15-.08.34-.03.43.11.08.15.03.34-.11.42l-9.67,5.58c-.05.03-.1.04-.16.04Z"/>
      <path class="cls-2" d="M18.73,21.77c-.1,0-.21-.06-.27-.15-.08-.15-.03-.33.11-.42l9.67-5.58c.15-.09.34-.04.43.11.08.15.03.34-.11.42l-9.67,5.59c-.05.03-.1.04-.16.04Z"/>
      <path class="cls-2" d="M18.73,24.44c-.1,0-.21-.06-.27-.15-.08-.15-.03-.33.11-.42l9.67-5.58c.15-.09.34-.04.43.11.08.15.03.33-.11.42l-9.67,5.59c-.05.03-.1.04-.16.04Z"/>
      <path class="cls-1" d="M10.27,27.87c1.08-.62,2.32-3.02,2.32-5.1s.31-3.93-2.32-2.41c-2.63,1.52-2.33,3.02-2.33,5.1s1.25,3.04,2.33,2.41Z"/>
      <path class="cls-2" d="M11.77,20.12c-.23,0-.63.11-1.35.51-2.22,1.28-2.2,2.46-2.17,4.24,0,.19,0,.39,0,.59,0,1.04.33,1.84.89,2.16.3.18.64.18.97-.02h0c.98-.57,2.17-2.85,2.17-4.83v-.6c.02-.89.02-1.82-.31-2.01-.04-.03-.11-.05-.22-.05h0ZM10.27,27.87h0,0ZM9.6,28.37c-.26,0-.53-.07-.77-.21-.75-.43-1.19-1.44-1.19-2.7,0-.2,0-.4-.01-.58-.03-1.78-.04-3.32,2.49-4.78,1.03-.6,1.71-.74,2.18-.46.64.38.63,1.39.61,2.55v.59c0,2.21-1.34,4.7-2.49,5.36h0c-.26.15-.54.23-.82.23Z"/>
      <path class="cls-1" d="M8.97,25.1l2.57-1.48.27,3.21c.03.23.2.3.42.18l.05-.03-.33,1.45-3.41,1.66-.25-.81.1-.07c.2-.15.35-.4.36-.63l.22-3.48Z"/>
      <path class="cls-2" d="M8.64,29.4l.09.26,2.95-1.44.2-.87s-.06-.02-.09-.04c-.16-.09-.26-.25-.28-.46l-.23-2.73-2.01,1.16-.22,3.32c-.02.29-.17.59-.41.79h0ZM8.53,30.4s-.08,0-.12-.03c-.08-.03-.15-.11-.17-.19l-.24-.81c-.04-.13,0-.26.1-.34l.1-.07c.13-.09.23-.27.24-.4l.23-3.49c.01-.1.06-.19.15-.25l2.56-1.48c.1-.05.21-.06.3,0,.09.05.15.14.16.25l.27,3.13s.02,0,.02,0c.11-.06.24-.05.33.02.09.07.14.2.11.31l-.32,1.45c-.03.09-.09.17-.17.21l-3.41,1.66s-.1.03-.14.03Z"/>
      <path class="cls-4" d="M10.27,27.23c-.6.35-1.2.24-1.65-.15-.43-.39-.74-1.08-.74-1.91v-.02h0c0-.07,0-.12,0-.18,0-1.99-.31-3.42,2.39-4.98,2.7-1.56,2.38.24,2.38,2.23v.2c0,.83-.3,1.86-.74,2.76-.44.92-1.04,1.71-1.64,2.06Z"/>
      <path class="cls-2" d="M11.84,19.71c-.23,0-.66.11-1.43.55-2.28,1.32-2.26,2.44-2.23,4.15,0,.19,0,.38,0,.57v.16c0,.74.24,1.37.63,1.72.37.34.84.38,1.29.12.51-.3,1.08-1.01,1.52-1.92.44-.91.71-1.89.71-2.63v-.77c.02-.84.03-1.7-.29-1.89-.04-.03-.11-.05-.22-.05h0ZM9.53,27.75c-.4,0-.78-.15-1.11-.45-.54-.48-.84-1.25-.84-2.14,0-.02,0-.07,0-.08v-.12c0-.19-.02-.38-.02-.56-.03-1.71-.05-3.19,2.55-4.69,1.09-.63,1.78-.78,2.26-.5.63.37.61,1.32.59,2.43v.74c0,.86-.29,1.92-.77,2.92-.5,1.03-1.15,1.83-1.76,2.19-.3.17-.6.25-.9.25Z"/>
      <path class="cls-1" d="M10.27,28.98l-1.99.31c-1.43,1.16-2.52,2.52-2.52,3.63v1.64c0,.44.34.61.75.37l1.39-.8,1.88-1.09,1.01-.58,1.64-.95,1.6-.93c.41-.24.75-.79.75-1.24v-1.64c0-1.11-1.08-1.21-2.51-.73l-1.99,1.99Z"/>
      <path class="cls-2" d="M10.27,28.98h0,0ZM8.4,29.58c-1.46,1.21-2.33,2.45-2.33,3.34v1.64c0,.09.03.15.04.17.03.02.11.02.24-.06l7.51-4.34c.32-.18.6-.64.6-.97v-1.64c0-.26-.08-.44-.22-.55-.3-.22-.96-.19-1.82.09l-1.94,1.94c-.05.04-.11.08-.17.09l-1.92.3h0ZM6.16,35.36c-.13,0-.24-.03-.35-.09-.23-.13-.36-.38-.36-.7v-1.64c0-1.5,1.64-3.07,2.63-3.87.04-.03.09-.06.15-.07l1.9-.29,1.92-1.92s.07-.06.11-.08c1.12-.38,1.95-.39,2.44-.03.23.15.49.46.49,1.05v1.64c0,.55-.4,1.21-.9,1.5l-7.52,4.34c-.17.1-.35.15-.5.15Z"/>
      <path class="cls-1" d="M8.67,27.42c.45.4,1.03.51,1.6.19.55-.32,1.14-1.11,1.59-2.02.46-.95.77-2.02.77-2.88l-.16-.59c-.05-.22-.06-.44-.06-.65,0-.28,0-.54-.16-.67-.23-.21-.6.11-1.03.49-.3.26-.61.54-.96.74-.35.2-.67.29-.96.37h0c-.44.12-.8.22-1.03.7-.14.3-.15.57-.15.85,0,.22,0,.45-.07.73l-.16.78c0,.86.31,1.57.78,1.98Z"/>
      <path class="cls-2" d="M8.88,27.19c.22.2.67.47,1.23.15.48-.27,1.03-.98,1.47-1.89.45-.93.73-1.94.75-2.71l-.15-.55c-.06-.25-.07-.5-.08-.73,0-.15,0-.41-.05-.46-.08.02-.4.31-.62.5-.3.26-.63.56-1.02.78-.37.22-.72.31-1.02.4-.45.12-.68.2-.84.54-.11.24-.11.45-.12.72,0,.21-.01.47-.07.79l-.16.78c0,.67.26,1.32.68,1.69h0ZM9.59,28.1c-.39,0-.78-.16-1.12-.46h0c-.56-.5-.88-1.3-.88-2.21l.16-.84c.05-.26.06-.48.06-.68,0-.31.02-.62.18-.98.3-.61.77-.74,1.23-.86.29-.08.57-.16.89-.34.32-.19.63-.46.91-.7.5-.44,1.01-.89,1.44-.49.24.22.24.56.25.89.01.2.01.41.06.59l.16.59s0,.06,0,.08c0,.87-.3,1.97-.81,3.02-.5,1.03-1.13,1.82-1.72,2.16-.26.15-.55.23-.83.23Z"/>
      <path class="cls-4" d="M10.4,32.69l3.62-2.1c.41-.24.75-.79.75-1.24v-1.64c0-1.11-1.08-1.21-2.51-.73-.45,2.12-.85,3.01-1.55,4.87l-.31.84h0ZM5.76,32.92v1.64c0,.44.34.61.75.37l3.63-2.1-.3-.43c-.71-1.08-1.12-1.48-1.56-3.12-1.43,1.16-2.52,2.52-2.52,3.63h0Z"/>
      <path class="cls-2" d="M12.52,27.23c-.36,1.69-.69,2.58-1.2,3.91l-.33.86,2.88-1.66c.32-.18.6-.64.6-.97v-1.64c0-.26-.08-.44-.22-.55-.3-.21-.91-.19-1.72.06h0ZM8.12,29.83c-1.29,1.13-2.04,2.26-2.04,3.09v1.64c0,.09.03.15.04.17.03.02.11.02.24-.06l3.34-1.93-.11-.16c-.12-.19-.23-.35-.33-.5-.46-.67-.8-1.17-1.14-2.25h0ZM6.16,35.36c-.13,0-.24-.03-.35-.09-.23-.13-.36-.38-.36-.7v-1.64c0-1.5,1.64-3.07,2.63-3.87.08-.07.19-.08.28-.06.11.03.18.11.21.21.36,1.3.69,1.79,1.18,2.52.1.15.22.32.34.51l.1.13.55-1.46c.51-1.34.85-2.23,1.22-3.98.02-.11.09-.19.2-.23,1.12-.38,1.95-.39,2.44-.03.23.15.49.46.49,1.05v1.64c0,.55-.4,1.21-.9,1.5l-3.63,2.09s-.1.04-.15.04c-.03.04-.06.08-.12.11l-3.62,2.1c-.17.1-.35.15-.5.15Z"/>
      <path class="cls-2" d="M10.27,33.07c-.18,0-.31-.14-.31-.31v-3.78c0-.17.14-.31.31-.31.16,0,.3.14.3.31v3.78c0,.17-.14.31-.3.31Z"/>
    </g>
  </g>
</svg>