<?xml version="1.0" encoding="UTF-8"?>
<svg id="Layer_2" data-name="Layer 2" xmlns="http://www.w3.org/2000/svg" viewBox="0 0 34.48 42.68" fill="currentColor">
  <defs>
    <style>
      .cls-1 {
        fill: #fff;
      }

      .cls-1, .cls-2, .cls-3, .cls-4 {
        fill-rule: evenodd;
      }

      .cls-2 {
        fill: #1a87c7;
      }

      .cls-3 {
        fill: #bdedf8;
      }

      .cls-4 {
        fill: #66ceef;
      }
    </style>
  </defs>
  <g id="_Layer_" data-name="&amp;lt;Layer&amp;gt;">
    <g>
      <path class="cls-4" d="M33.93,26.31l-17-9.81c-.21-.1-.37-.05-.58.06L1.13,25.34c-.26.17-.42.35-.58.61l17,9.81c.16-.27.31-.44.55-.61l15.25-8.79c.18-.1.37-.16.58-.06Z"/>
      <path class="cls-2" d="M.99,25.86l16.45,9.5c.13-.17.29-.32.5-.46l15.12-8.73-16.3-9.41c-.05-.02-.11-.03-.29.07L1.28,25.61c-.11.08-.21.15-.29.25h0ZM17.55,36.08c-.05,0-.11-.02-.16-.04L.39,26.22c-.08-.04-.13-.11-.16-.19,0-.08,0-.16.05-.24.16-.29.34-.5.68-.71l15.22-8.8c.26-.13.52-.23.86-.07l17.03,9.83c.13.08.18.26.11.41-.08.15-.24.2-.39.14-.08-.04-.13-.04-.31.05l-15.22,8.78c-.18.12-.31.25-.45.51-.08.09-.16.15-.26.15Z"/>
      <path class="cls-1" d="M34.16,26.84c0-.26-.08-.45-.24-.53-.16-.09-.37-.08-.58.06l-15.25,8.79c-.21.13-.42.36-.55.61h0c-.16.26-.26.55-.26.81v5.2c0,.26.1.45.26.53.13.09.34.07.55-.06l15.25-8.79c.45-.26.81-.9.81-1.42v-5.2Z"/>
      <path class="cls-2" d="M33.72,26.56c-.05,0-.13.02-.21.07l-15.25,8.79c-.16.1-.34.28-.45.5-.13.22-.21.46-.21.66v5.2c0,.13.03.23.08.26.05.03.13.02.29-.06l15.22-8.79c.34-.21.66-.75.66-1.16v-5.2c0-.16-.03-.24-.08-.26-.03,0-.03-.02-.05-.02h0ZM17.76,42.68c-.13,0-.26-.03-.37-.1-.26-.15-.42-.44-.42-.8v-5.2c0-.31.1-.65.29-.96.18-.32.45-.57.71-.73l15.22-8.79c.32-.18.63-.2.89-.05.24.14.39.44.39.8v5.2c0,.63-.42,1.37-.97,1.69l-15.25,8.79c-.16.1-.34.15-.5.15Z"/>
      <polygon class="cls-3" points="31.75 31.97 33.22 31.12 33.22 29.43 31.75 30.28 31.75 31.97"/>
      <path class="cls-2" d="M32.07,30.45v.98l.86-.49v-.99l-.86.49h0ZM31.75,32.28c-.05,0-.1-.02-.16-.04-.08-.05-.13-.16-.13-.27v-1.69c0-.11.05-.21.13-.27l1.47-.85c.1-.06.24-.06.31,0,.1.06.16.16.16.26v1.7c0,.11-.05.21-.16.27l-1.47.85c-.05.03-.11.04-.16.04Z"/>
      <path class="cls-4" d="M17.55,35.77L.55,25.96h0c-.16.28-.24.49-.24.81v5.2c0,.23.03.4.24.53l17,9.81c-.21-.14-.24-.3-.26-.53v-5.2c.03-.32.1-.53.26-.81h0Z"/>
      <path class="cls-2" d="M.68,26.39c-.05.13-.05.24-.08.39v5.19c.03.19.05.23.13.28l16.24,9.39v-5.06c.03-.28.08-.49.16-.69L.68,26.39h0ZM17.55,42.62c-.05,0-.11-.01-.16-.04L.39,32.77c-.34-.23-.39-.51-.39-.79v-5.21c0-.4.1-.66.26-.96.05-.07.11-.13.21-.15.08-.02.16-.01.24.03l16.98,9.81c.16.08.21.27.13.41-.16.27-.18.43-.21.68v5.19c0,.19.05.23.11.28.13.09.18.28.11.42-.08.09-.18.14-.26.14Z"/>
      <polygon class="cls-3" points="29.32 33.38 30.78 32.53 30.78 30.83 29.32 31.68 29.32 33.38"/>
      <path class="cls-2" d="M29.63,31.86v.99l.86-.49v-.98l-.86.49h0ZM29.32,33.69c-.05,0-.1-.01-.16-.04-.08-.06-.16-.15-.16-.27v-1.7c0-.11.08-.21.16-.27l1.49-.85c.08-.06.18-.06.29,0,.1.05.16.15.16.26v1.7c0,.11-.05.21-.16.27l-1.47.85c-.05.03-.11.04-.16.04Z"/>
      <path class="cls-4" d="M33.93,18.32l-17-9.81c-.21-.1-.37-.05-.58.06L1.13,17.36c-.26.17-.42.34-.58.61l17,9.81c.16-.27.31-.44.55-.61l15.25-8.79c.18-.11.37-.16.58-.06Z"/>
      <path class="cls-2" d="M.99,17.87l16.45,9.5c.13-.17.29-.32.5-.46l15.12-8.73-16.3-9.41c-.05-.02-.11-.03-.29.06L1.28,17.62c-.11.08-.21.15-.29.25h0ZM17.55,28.09c-.05,0-.11-.01-.16-.04L.39,18.24c-.08-.04-.13-.11-.16-.19,0-.08,0-.17.05-.24.16-.28.34-.5.68-.71l15.22-8.8c.26-.13.52-.23.86-.07l17.03,9.82c.13.08.18.26.11.41-.08.15-.26.21-.39.14-.08-.04-.13-.04-.31.05l-15.22,8.78c-.18.13-.31.25-.45.51-.08.09-.16.15-.26.15Z"/>
      <path class="cls-1" d="M34.16,18.85c0-.26-.08-.45-.24-.53-.16-.08-.37-.07-.58.06l-15.25,8.79c-.21.13-.42.36-.55.61h0c-.16.26-.26.55-.26.81v5.2c0,.26.1.45.26.53.13.09.34.08.55-.05l15.25-8.79c.21-.13.42-.35.58-.61h0c.16-.26.24-.55.24-.81v-5.2Z"/>
      <path class="cls-2" d="M33.72,18.57c-.05,0-.13.02-.21.07l-15.25,8.79c-.16.1-.34.28-.45.5-.13.22-.21.46-.21.66v5.2c0,.13.03.23.08.26.05.03.13.02.29-.06l15.22-8.79c.16-.1.34-.28.47-.5.13-.22.18-.46.18-.66v-5.2c0-.13-.03-.24-.08-.27-.03,0-.03-.01-.05-.01h0ZM17.76,34.69c-.13,0-.26-.03-.37-.1-.26-.14-.42-.44-.42-.8v-5.2c0-.31.1-.65.29-.97.18-.31.45-.57.71-.73l15.22-8.79c.32-.18.63-.2.89-.06.24.15.39.44.39.8v5.2c0,.31-.1.65-.29.96-.18.31-.42.57-.68.73l-15.25,8.79c-.16.1-.34.16-.5.16Z"/>
      <polygon class="cls-3" points="31.75 23.98 33.22 23.14 33.22 21.44 31.75 22.29 31.75 23.98"/>
      <path class="cls-2" d="M32.07,22.46v.98l.86-.49v-.98l-.86.49h0ZM31.75,24.29c-.05,0-.1-.02-.16-.04-.08-.06-.13-.16-.13-.27v-1.7c0-.11.05-.21.13-.27l1.47-.85c.1-.06.24-.06.31,0,.1.05.16.15.16.26v1.7c0,.11-.05.21-.16.26l-1.47.85c-.05.03-.11.04-.16.04Z"/>
      <path class="cls-4" d="M17.55,27.78L.55,17.97h0c-.16.28-.24.49-.24.81v5.2c0,.23.03.4.24.53l17,9.81c-.21-.14-.24-.3-.26-.53v-5.2c.03-.32.1-.53.26-.81h0Z"/>
      <path class="cls-2" d="M.68,18.4c-.05.13-.05.24-.08.39v5.19c.03.19.05.23.13.28l16.24,9.39v-5.06c.03-.28.08-.49.16-.69L.68,18.4h0ZM17.55,34.63c-.05,0-.11-.01-.16-.04L.39,24.78c-.34-.23-.39-.51-.39-.79v-5.22c0-.4.1-.66.26-.96.05-.07.11-.13.21-.15.08-.02.16-.01.24.03l16.98,9.81c.16.08.21.27.13.41-.16.27-.18.43-.21.68v5.19c0,.19.05.23.11.28.13.09.18.27.11.42-.08.09-.18.14-.26.14Z"/>
      <polygon class="cls-3" points="29.32 25.39 30.78 24.54 30.78 22.84 29.32 23.69 29.32 25.39"/>
      <path class="cls-2" d="M29.63,23.87v.98l.86-.49v-.99l-.86.49h0ZM29.32,25.7c-.05,0-.1-.01-.16-.04-.08-.06-.16-.16-.16-.27v-1.7c0-.11.08-.21.16-.27l1.49-.85c.08-.06.18-.06.29,0,.1.06.16.16.16.26v1.7c0,.11-.05.21-.16.27l-1.47.85c-.05.03-.11.04-.16.04Z"/>
      <path class="cls-3" d="M33.93,10.17L16.92.36c-.21-.1-.37-.05-.58.06L1.13,9.21c-.26.17-.42.35-.58.61l17,9.81c.16-.27.31-.44.55-.61l15.25-8.79c.18-.11.37-.16.58-.06Z"/>
      <path class="cls-2" d="M.99,9.72l16.45,9.5c.13-.17.29-.32.5-.46l15.12-8.72L16.77.63c-.05-.02-.11-.03-.29.07L1.28,9.47c-.11.08-.21.15-.29.25h0ZM17.55,19.94c-.05,0-.11-.01-.16-.04L.39,10.09c-.08-.04-.13-.11-.16-.19,0-.08,0-.17.05-.24.16-.29.34-.51.68-.71L16.19.15c.26-.13.52-.23.86-.07l17.03,9.82c.13.08.18.26.11.41-.08.15-.26.2-.39.14-.08-.04-.13-.04-.31.05l-15.22,8.78c-.18.13-.31.25-.45.51-.08.09-.16.15-.26.15Z"/>
      <path class="cls-1" d="M34.16,10.71c0-.26-.08-.45-.24-.53-.16-.09-.37-.07-.58.06l-15.25,8.79c-.21.13-.42.36-.55.61h0c-.16.26-.26.55-.26.81v5.2c0,.26.1.45.26.53.13.09.34.07.55-.06l15.25-8.79c.21-.13.42-.36.58-.62h0c.16-.26.24-.55.24-.81v-5.2Z"/>
      <path class="cls-2" d="M33.72,10.43c-.05,0-.13.02-.21.07l-15.25,8.79c-.16.1-.34.28-.45.5-.13.22-.21.46-.21.66v5.2c0,.16.05.24.08.26.05.02.13.02.29-.06l15.22-8.79c.16-.1.34-.28.47-.5.13-.22.18-.46.18-.66v-5.2c0-.16-.03-.24-.08-.26-.03-.01-.03-.02-.05-.02h0ZM17.76,26.54c-.13,0-.26-.03-.37-.1-.26-.14-.42-.44-.42-.8v-5.2c0-.31.1-.65.29-.96.18-.31.45-.57.71-.73l15.22-8.79c.32-.18.63-.2.89-.06.24.14.39.44.39.8v5.2c0,.31-.1.65-.29.96-.18.32-.42.57-.68.73l-15.25,8.79c-.16.1-.34.15-.5.15Z"/>
      <polygon class="cls-3" points="31.75 15.83 33.22 14.99 33.22 13.29 31.75 14.14 31.75 15.83"/>
      <path class="cls-2" d="M32.07,14.32v.99l.86-.49v-.99l-.86.49h0ZM31.75,16.14c-.05,0-.1-.01-.16-.04-.08-.06-.13-.16-.13-.27v-1.7c0-.11.05-.21.13-.27l1.47-.85c.1-.06.24-.06.31,0,.1.05.16.15.16.26v1.7c0,.11-.05.21-.16.27l-1.47.85c-.05.03-.11.04-.16.04Z"/>
      <path class="cls-4" d="M17.55,19.63L.55,9.82h0c-.16.28-.24.49-.24.81v5.2c0,.23.03.4.24.53l17,9.81c-.21-.14-.24-.3-.26-.53v-5.2c.03-.32.1-.53.26-.81h0Z"/>
      <path class="cls-2" d="M.68,10.26c-.05.13-.05.24-.08.39v5.19c.03.19.05.23.13.28l16.24,9.39v-5.06c.03-.28.08-.49.16-.69L.68,10.26h0ZM17.55,26.49c-.05,0-.11-.01-.16-.04L.39,16.63c-.34-.23-.39-.51-.39-.79v-5.21c0-.4.1-.66.26-.96.05-.07.11-.13.21-.15.08-.02.16-.01.24.03l16.98,9.81c.16.08.21.26.13.41-.16.27-.18.43-.21.68v5.19c0,.19.05.23.11.28.13.09.18.28.11.42-.08.09-.18.14-.26.14Z"/>
      <polygon class="cls-3" points="29.32 17.24 30.78 16.39 30.78 14.7 29.32 15.55 29.32 17.24"/>
      <path class="cls-2" d="M29.63,15.72v.99l.86-.49v-.98l-.86.49h0ZM29.32,17.55c-.05,0-.1-.01-.16-.04-.08-.05-.16-.15-.16-.26v-1.7c0-.11.08-.21.16-.26l1.49-.85c.08-.05.18-.05.29,0,.1.05.16.16.16.27v1.69c0,.11-.05.21-.16.27l-1.47.85c-.05.03-.11.04-.16.04Z"/>
      <path class="cls-2" d="M18.78,22.49c-.11,0-.21-.06-.26-.16-.08-.15-.03-.33.11-.42l9.17-5.29c.13-.08.34-.03.42.11.08.15.03.34-.1.42l-9.17,5.29c-.05.03-.11.04-.16.04Z"/>
      <path class="cls-2" d="M18.78,30.64c-.11,0-.21-.06-.26-.15-.08-.15-.03-.34.11-.42l9.17-5.29c.13-.09.34-.04.42.11.08.15.03.34-.1.42l-9.17,5.29c-.05.03-.11.04-.16.04Z"/>
      <path class="cls-2" d="M18.78,38.63c-.11,0-.21-.06-.26-.15-.08-.15-.03-.34.11-.42l9.17-5.29c.13-.08.34-.03.42.12.08.15.03.34-.1.42l-9.17,5.29c-.05.03-.11.04-.16.04Z"/>
    </g>
  </g>
</svg>