<?xml version="1.0" encoding="UTF-8"?>
<svg id="Layer_2" data-name="Layer 2" xmlns="http://www.w3.org/2000/svg" viewBox="0 0 34.08 42.41" fill="currentColor">
  <defs>
    <style>
      .cls-1 {
        fill: #fff;
      }

      .cls-1, .cls-2, .cls-3, .cls-4 {
        fill-rule: evenodd;
      }

      .cls-2 {
        fill: #1a87c7;
      }

      .cls-3 {
        fill: #bdedf8;
      }

      .cls-4 {
        fill: #66ceef;
      }
    </style>
  </defs>
  <g id="_Layer_" data-name="&amp;lt;Layer&amp;gt;">
    <g>
      <path class="cls-4" d="M20.06,18.33l-2-1.16c2.53,1.76-1.22,8.26-4.01,6.94,1.66.96,3.26,2.64,5.59-.51.94-1.27,2.07-4.12.42-5.27Z"/>
      <path class="cls-2" d="M15.33,24.53c1.25.75,2.42,1.12,4.07-1.12.7-.96,1.36-2.58,1.17-3.71-.08-.48-.3-.85-.66-1.11l-.81-.47c.33,1.14-.07,2.63-.77,3.84-.7,1.22-1.82,2.32-2.99,2.58h0ZM16.95,25.72c-.91,0-1.72-.51-2.44-.97-.2-.13-.41-.26-.61-.38-.14-.08-.2-.27-.12-.41.08-.14.25-.2.4-.13,1.26.59,2.75-.72,3.6-2.19.85-1.47,1.25-3.42.1-4.22-.13-.09-.17-.28-.08-.42.09-.14.27-.18.41-.1l2,1.16s.02,0,.02.01c.51.35.82.86.93,1.52.23,1.38-.5,3.13-1.28,4.18-1.08,1.47-2.06,1.94-2.94,1.94Z"/>
      <path class="cls-4" d="M29.18,2.55c-3.19-1.84-5.03-2.92-9.19-1.76C5.63,4.8-5.35,30.25,3.46,38.77c.97.94,2.3,1.6,3.48,2.28-7.49-4.75-4.35-17.18-1.01-23.8C9.4,10.39,17.36,1.09,25.56,1.51c1.4.07,2.41.4,3.62,1.04Z"/>
      <path class="cls-2" d="M23.08.62c-.87,0-1.85.15-3.01.47C11.05,3.61,3.75,14.58,1.46,23.62c-1.65,6.52-.85,11.96,2.21,14.92.23.22.48.43.75.63-4.37-5.62-1.92-15.82,1.24-22.07C9.01,10.48,17.12.77,25.57,1.2c.16.01.31.02.46.04-.94-.4-1.87-.62-2.96-.62h0ZM6.94,41.35c-.05,0-.11-.01-.15-.04-.22-.13-.44-.25-.67-.38-1.01-.57-2.06-1.15-2.88-1.95C.02,35.87-.85,30.21.86,23.47,3.19,14.26,10.66,3.08,19.91.49c4.27-1.19,6.19-.08,9.39,1.77,0,0,.01,0,.02.01,0,0,0,0,.01,0h0c.13.09.18.27.11.41-.08.15-.24.22-.4.14-1.25-.66-2.23-.94-3.49-1-8.18-.42-16.05,9.08-19.33,15.56C2.69,24.33.03,36.29,7.1,40.78c.14.09.18.27.1.42-.06.1-.16.15-.26.15Z"/>
      <path class="cls-1" d="M18.06,15.97c2.78-1.61,5.04-.3,5.04,2.92s-2.26,7.13-5.05,8.74c-2.78,1.61-5.04.3-5.04-2.92s2.26-7.13,5.05-8.74h0ZM18.07,3.64C9.38,8.65,2.34,20.84,2.34,30.86c0,10.03,7.03,14.1,15.71,9.09,8.68-5.01,15.72-17.19,15.73-27.22,0-10.03-7.03-14.1-15.71-9.09h0Z"/>
      <path class="cls-2" d="M18.21,16.24c-2.7,1.56-4.89,5.35-4.89,8.47,0,1.44.47,2.51,1.32,3,.85.49,2.01.37,3.26-.35,2.69-1.56,4.89-5.35,4.89-8.47,0-1.44-.47-2.51-1.32-3-.85-.49-2.01-.37-3.26.35h0ZM15.81,28.62c-.53,0-1.03-.13-1.47-.38-1.05-.61-1.63-1.86-1.63-3.53,0-3.31,2.33-7.35,5.2-9,1.45-.83,2.82-.96,3.87-.35,1.05.61,1.63,1.86,1.63,3.53,0,3.31-2.33,7.35-5.2,9-.84.48-1.66.73-2.4.73h0ZM25.08,1.8c1.44,0,2.77.34,3.95,1.01,2.87,1.66,4.45,5.18,4.45,9.92,0,9.91-6.99,22.01-15.57,26.95-4.1,2.36-7.93,2.75-10.8,1.1-2.87-1.66-4.45-5.18-4.45-9.92,0-9.91,6.99-22,15.57-26.95,2.43-1.4,4.76-2.11,6.86-2.11h0ZM11.04,42.41c-1.55,0-2.98-.36-4.25-1.1-3.07-1.77-4.76-5.48-4.76-10.45,0-10.11,7.13-22.44,15.88-27.49,4.3-2.48,8.35-2.87,11.42-1.1,3.07,1.77,4.76,5.49,4.76,10.45,0,10.11-7.13,22.44-15.88,27.49-2.52,1.46-4.96,2.19-7.17,2.19Z"/>
      <path class="cls-3" d="M26.69,1.64c-1.8-.33-3.86-.09-6.08.77l-2.55,11.96c1.31-.33,2.59-.45,3.82-.34L26.69,1.64Z"/>
      <path class="cls-2" d="M20.87,2.64l-2.41,11.32c1.11-.24,2.19-.32,3.21-.26L26.26,1.89c-1.65-.23-3.46.03-5.39.76h0ZM18.05,14.68c-.08,0-.15-.03-.21-.08-.08-.08-.11-.18-.09-.29l2.55-11.96c.02-.1.09-.18.19-.22,2.24-.87,4.34-1.14,6.25-.79.09.02.17.07.22.15.04.08.05.18.02.26l-4.81,12.39c-.05.13-.18.21-.32.2-1.17-.11-2.42,0-3.72.33-.03,0-.05,0-.08,0Z"/>
      <path class="cls-3" d="M9.5,41.96c1.75.3,3.75.07,5.89-.74l2.5-11.74c-1.26.32-2.49.44-3.68.33l-4.72,12.15Z"/>
      <path class="cls-2" d="M9.93,41.71c1.6.2,3.35-.04,5.2-.72l2.37-11.1c-1.06.23-2.1.31-3.07.25l-4.5,11.57h0ZM11.05,42.4c-.54,0-1.08-.04-1.6-.13-.09-.02-.17-.07-.22-.16-.05-.08-.05-.18-.02-.26l4.72-12.15c.05-.13.2-.21.31-.19,1.12.1,2.33,0,3.58-.32.1-.03.21,0,.29.08.08.07.11.18.09.28l-2.5,11.74c-.02.1-.09.19-.19.22-1.56.59-3.05.89-4.46.89Z"/>
      <path class="cls-3" d="M18.06,18.52c-1.56.9-2.83,3.1-2.83,4.9s1.27,2.54,2.83,1.64c1.56-.9,2.83-3.1,2.83-4.91,0-1.81-1.27-2.54-2.83-1.64h0ZM18.06,15.88c2.83-1.63,5.12-.31,5.12,2.96,0,3.27-2.29,7.24-5.12,8.87-2.83,1.63-5.12.31-5.12-2.96,0-3.27,2.3-7.24,5.12-8.87h0Z"/>
      <path class="cls-2" d="M19.32,18.45c-.34,0-.71.12-1.11.35-1.48.85-2.68,2.93-2.68,4.64,0,.76.24,1.32.67,1.57.44.25,1.04.18,1.7-.2,1.48-.85,2.68-2.93,2.68-4.64,0-.76-.24-1.32-.68-1.57-.17-.1-.37-.15-.58-.15h0ZM16.79,25.76c-.32,0-.62-.08-.89-.23-.63-.37-.98-1.11-.98-2.1,0-1.9,1.34-4.22,2.99-5.17.86-.49,1.68-.56,2.31-.2.63.37.98,1.11.98,2.1,0,1.9-1.34,4.22-2.99,5.17-.5.29-.98.43-1.42.43h0ZM18.06,15.88h0,0ZM20.35,15.49c.43,0,.83.1,1.18.3.87.5,1.35,1.59,1.35,3.05,0,3.16-2.23,7.02-4.97,8.6-1.27.73-2.45.86-3.31.36-.87-.5-1.35-1.58-1.35-3.05,0-3.16,2.23-7.02,4.97-8.6h0c.76-.44,1.49-.66,2.13-.66h0ZM15.77,28.72c-.54,0-1.05-.13-1.49-.38-1.07-.62-1.65-1.89-1.65-3.58,0-3.36,2.37-7.46,5.28-9.13,1.46-.85,2.86-.97,3.93-.36,1.07.62,1.65,1.89,1.65,3.58,0,3.36-2.37,7.46-5.28,9.13-.85.49-1.68.74-2.44.74Z"/>
      <path class="cls-4" d="M18.06,15.97c-2.78,1.61-5.05,5.52-5.05,8.74s2.26,4.52,5.04,2.92c2.79-1.61,5.05-5.52,5.05-8.74s-2.26-4.52-5.04-2.92h0ZM18.05,29.45c-3.66,2.11-6.63.4-6.63-3.84,0-4.23,2.97-9.37,6.63-11.48,3.66-2.11,6.63-.4,6.63,3.84,0,4.23-2.97,9.37-6.63,11.48h0Z"/>
      <path class="cls-2" d="M18.21,16.24c-2.7,1.56-4.89,5.35-4.89,8.47,0,1.44.47,2.51,1.32,3,.85.49,2.01.37,3.26-.35,2.69-1.56,4.89-5.35,4.89-8.47,0-1.44-.47-2.51-1.32-3-.85-.49-2.01-.37-3.26.35h0ZM15.81,28.62c-.53,0-1.03-.13-1.47-.38-1.05-.61-1.63-1.86-1.63-3.53,0-3.31,2.33-7.35,5.2-9,1.45-.83,2.82-.96,3.87-.35,1.05.61,1.63,1.86,1.63,3.53,0,3.31-2.33,7.35-5.2,9-.84.48-1.66.73-2.4.73h0ZM21.02,13.54c.58,0,1.11.13,1.57.4,1.15.67,1.79,2.1,1.79,4.03,0,4.12-2.91,9.15-6.48,11.22-1.67.96-3.23,1.13-4.38.46-1.15-.67-1.79-2.1-1.79-4.03,0-4.12,2.91-9.16,6.48-11.21,1-.58,1.95-.87,2.8-.87h0ZM15.09,30.67c-.68,0-1.32-.16-1.88-.49-1.35-.78-2.1-2.4-2.09-4.56,0-4.32,3.04-9.59,6.79-11.75,1.87-1.08,3.64-1.24,4.99-.46,1.35.78,2.1,2.4,2.1,4.56,0,4.32-3.05,9.59-6.79,11.75l-.15-.27.15.27c-1.09.63-2.15.95-3.11.95Z"/>
    </g>
  </g>
</svg>