<?xml version="1.0" encoding="UTF-8"?>
<svg id="Layer_2" data-name="Layer 2" xmlns="http://www.w3.org/2000/svg" viewBox="0 0 23.29 43.75" fill="currentColor">
  <defs>
    <style>
      .cls-1 {
        fill: #fff;
      }

      .cls-1, .cls-2, .cls-3, .cls-4 {
        fill-rule: evenodd;
      }

      .cls-2 {
        fill: #1a87c7;
      }

      .cls-3 {
        fill: #bdedf8;
      }

      .cls-4 {
        fill: #66ceef;
      }
    </style>
  </defs>
  <g id="_Layer_" data-name="&amp;lt;Layer&amp;gt;">
    <g>
      <polygon class="cls-3" points="2.33 43.35 .71 42.41 .62 42.35 .55 42.27 .47 42.18 .42 42.07 .37 41.96 .34 41.82 .31 41.68 .31 41.52 .31 13.45 .31 13.28 .34 13.11 .37 12.94 .42 12.77 .47 12.59 .55 12.42 .62 12.25 .71 12.09 .81 11.93 .92 11.77 1.03 11.63 1.15 11.49 1.28 11.37 1.41 11.25 1.55 11.15 1.69 11.06 4.65 9.35 6.41 8.33 15.26 3.22 16.8 2.33 19.98 .5 20.12 .42 20.26 .37 20.39 .33 20.52 .31 20.64 .31 20.76 .32 20.86 .35 20.96 .4 22.58 1.33 22.48 1.29 22.37 1.26 22.26 1.24 22.14 1.24 22.01 1.27 21.88 1.3 21.74 1.36 21.6 1.43 18.42 3.27 16.88 4.16 8.03 9.26 6.27 10.28 3.31 11.99 3.17 12.08 3.03 12.18 2.9 12.3 2.77 12.43 2.65 12.56 2.54 12.71 2.43 12.86 2.33 13.02 2.24 13.19 2.16 13.36 2.1 13.53 2.04 13.7 1.99 13.87 1.95 14.05 1.93 14.22 1.93 14.39 1.93 42.45 1.93 42.61 1.95 42.76 1.99 42.89 2.04 43.01 2.1 43.12 2.16 43.21 2.24 43.28 2.33 43.35"/>
      <path class="cls-2" d="M20.6.61l-.36.09-.11.06L1.48,11.6l-.42.51-.36.76-.09.6.02,28.32.2.35.79.46v-.12s0-28.08,0-28.08l.07-.57.28-.76.44-.68.42-.42.32-.22L21.56,1.1l-.96-.49h0ZM2.33,43.65c-.05,0-.1-.01-.16-.04l-1.85-1.12-.18-.27-.11-.32-.04-.37V13.45l.07-.57.28-.76.44-.68.42-.42.32-.22L20.14.08l.33-.08h.16s.31.05.31.05l.15.06,1.64.95c.14.08.2.26.12.41-.08.15-.25.2-.4.14l-.23-.07-.36.09-.12.06L3.1,12.53l-.42.51-.36.76-.09.6.02,28.31.25.38c.14.09.17.28.08.42-.06.09-.16.14-.26.14Z"/>
      <path class="cls-3" d="M21.6,32.69L3.31,43.25c-.76.44-1.38.08-1.38-.8V14.39c0-.88.62-1.95,1.38-2.39l2.96-1.71,1.76-1.02,8.84-5.11,1.54-.89,3.18-1.84c.76-.44,1.38-.08,1.38.8v28.07c0,.88-.62,1.95-1.38,2.39Z"/>
      <path class="cls-2" d="M21.6,32.69h0,0ZM22.22,1.55c-.14,0-.29.05-.46.15L3.46,12.26c-.66.38-1.23,1.36-1.23,2.13v28.07c0,.3.09.53.25.63.16.09.4.06.67-.1l18.29-10.56c.67-.38,1.23-1.36,1.23-2.13V2.23c0-.3-.09-.54-.25-.63-.06-.03-.13-.05-.21-.05h0ZM2.69,43.75c-.19,0-.36-.04-.52-.14-.36-.21-.56-.62-.56-1.16V14.39c0-1,.67-2.16,1.54-2.66L21.45,1.16c.47-.27.93-.3,1.28-.1.36.21.56.62.56,1.16v28.07c0,1-.68,2.16-1.54,2.66h0L3.46,43.52c-.26.15-.52.23-.77.23Z"/>
      <path class="cls-1" d="M4.46,13.97v26.72l16.65-9.61V4.36c-5.55,3.2-11.1,6.41-16.65,9.61Z"/>
      <path class="cls-2" d="M4.77,14.15v26.01l16.03-9.25V4.89L4.77,14.15h0ZM4.46,41c-.05,0-.11-.01-.15-.04-.1-.05-.15-.16-.15-.27V13.97c0-.11.06-.21.15-.26L20.95,4.1c.1-.06.21-.06.31,0,.09.05.15.16.15.27v26.72c0,.11-.06.21-.15.27l-16.65,9.61s-.1.04-.16.04Z"/>
      <path class="cls-1" d="M10.28,11.82v-2.74c2.04-1.18,4.08-2.36,6.12-3.53v2.74c-2.04,1.18-4.08,2.35-6.12,3.53h0ZM17.3,8.66v-4.52l-7.92,4.57v4.52l7.92-4.57h0Z"/>
      <path class="cls-2" d="M10.59,9.26v2.03l5.5-3.18v-2.03l-5.5,3.17h0ZM10.28,12.13c-.05,0-.11-.01-.15-.04-.1-.06-.16-.16-.16-.27v-2.74c0-.11.06-.21.16-.27l6.11-3.53c.1-.06.22-.05.31,0,.1.06.15.16.15.27v2.74c0,.11-.06.21-.15.26l-6.11,3.53s-.1.04-.16.04h0ZM17.3,8.66h0,0ZM9.68,8.89l7.31-4.22v3.81l-7.31,4.22v-3.81h0ZM9.37,13.54c-.05,0-.1-.02-.15-.04-.1-.05-.16-.16-.16-.27v-4.52c0-.11.06-.21.16-.27l7.92-4.57c.09-.05.21-.05.31,0,.1.06.15.16.15.27v4.52c0,.11-.06.21-.15.26l-7.92,4.57s-.1.04-.16.04Z"/>
      <polygon class="cls-1" points="9.37 8.71 17.3 4.13 16.21 3.51 15.56 3.13 7.64 7.71 9.37 8.71"/>
      <path class="cls-2" d="M8.26,7.71l1.12.65,7.31-4.22-1.12-.64-7.31,4.22h0ZM9.37,9.02c-.05,0-.1-.02-.15-.04l-1.73-1c-.1-.06-.16-.16-.16-.27s.06-.21.16-.27l7.92-4.57c.09-.06.21-.06.31,0l1.73,1c.1.06.15.16.15.27s-.06.21-.15.27l-7.92,4.57s-.1.04-.16.04Z"/>
      <polygon class="cls-4" points="2.33 43.35 .71 42.41 .62 42.35 .55 42.27 .47 42.18 .42 42.07 .37 41.96 .34 41.82 .31 41.68 .31 41.52 .31 13.45 .31 13.28 .34 13.11 .37 12.94 .42 12.77 .47 12.59 .55 12.42 .62 12.25 .71 12.09 .72 12.08 2.34 13.02 2.33 13.02 2.24 13.19 2.16 13.36 2.1 13.53 2.03 13.7 1.99 13.87 1.95 14.05 1.93 14.22 1.93 14.39 1.93 42.45 1.93 42.61 1.95 42.76 1.99 42.89 2.03 43.01 2.1 43.12 2.16 43.21 2.24 43.28 2.33 43.35"/>
      <path class="cls-2" d="M.84,12.51l-.18.51-.05.44.02,28.32.2.35.79.46v-.12s0-28.08,0-28.08l.07-.57.24-.68-1.08-.62h0ZM2.33,43.65c-.05,0-.1-.01-.15-.04l-1.85-1.12-.18-.27-.11-.32-.04-.37V13.45l.07-.57.28-.76.1-.18c.04-.07.11-.13.19-.15.08-.02.17-.02.24.02l1.62.94c.07.04.12.11.14.19.02.08,0,.16-.03.23l-.28.63-.09.6.02,28.31.25.38c.14.09.18.28.09.42-.06.09-.16.14-.26.14Z"/>
      <polygon class="cls-3" points="7.64 8.6 8.41 9.04 8.41 12.67 9.37 13.23 9.37 8.71 7.64 7.71 7.64 8.6"/>
      <path class="cls-2" d="M8.72,12.5l.35.2v-3.81l-1.12-.65v.18l.62.36c.1.06.16.16.16.27v3.45h0ZM9.37,13.54c-.05,0-.1-.02-.15-.04l-.96-.55c-.1-.06-.16-.16-.16-.27v-3.45l-.62-.36c-.1-.05-.16-.16-.16-.26v-.89c0-.11.06-.21.16-.27.09-.06.21-.06.31,0l1.73,1c.1.06.15.16.15.27v4.52c0,.11-.06.21-.15.27-.05.03-.1.04-.16.04Z"/>
      <polygon class="cls-1" points="15.43 6.1 15.43 7.64 16.39 8.29 16.39 5.55 15.43 6.1"/>
      <path class="cls-2" d="M15.74,7.47l.35.23v-1.62l-.35.2v1.19h0ZM16.39,8.59c-.06,0-.12-.02-.17-.05l-.97-.65c-.08-.06-.14-.16-.14-.25v-1.54c0-.11.06-.21.16-.27l.96-.56c.09-.06.21-.05.31,0,.1.06.15.16.15.27v2.74c0,.11-.06.22-.17.27-.04.03-.09.04-.14.04Z"/>
      <polygon class="cls-1" points="10.28 10.61 15.43 7.64 16.39 8.29 10.28 11.82 10.28 10.61"/>
      <path class="cls-2" d="M10.59,10.79v.5l5.23-3.02-.4-.27-4.83,2.79h0ZM10.28,12.13c-.05,0-.11-.01-.15-.04-.1-.06-.16-.16-.16-.27v-1.21c0-.11.06-.21.16-.27l5.16-2.97c.1-.06.23-.06.33.01l.96.65c.09.06.14.16.14.27,0,.11-.06.2-.15.25l-6.11,3.53s-.1.04-.16.04Z"/>
      <path class="cls-2" d="M16.9,11.77c-.61.35-1.12,1.24-1.12,1.94,0,.27.08.48.22.56.14.08.35.05.59-.09.61-.35,1.12-1.24,1.12-1.94,0-.28-.08-.48-.22-.56-.14-.08-.36-.05-.59.09h0ZM16.18,14.93c-.17,0-.34-.04-.48-.13-.34-.2-.53-.59-.53-1.09,0-.93.63-2.01,1.43-2.48h0c.44-.25.87-.29,1.21-.09.34.2.53.58.53,1.09,0,.93-.63,2.01-1.43,2.48-.25.14-.5.22-.72.22Z"/>
      <path class="cls-2" d="M8.82,32.84c-.61.35-1.12,1.24-1.12,1.94,0,.28.08.48.22.56.14.08.36.05.6-.09.61-.35,1.12-1.24,1.12-1.94,0-.28-.08-.48-.22-.56-.14-.08-.36-.05-.59.09h0ZM8.1,36c-.17,0-.34-.04-.49-.13-.34-.2-.53-.58-.53-1.09,0-.92.63-2.01,1.43-2.47h0c.44-.25.87-.29,1.21-.09.34.2.53.59.53,1.09,0,.93-.63,2.01-1.43,2.47-.25.15-.5.22-.72.22Z"/>
      <path class="cls-2" d="M8.96,31.94c-.17,0-.31-.14-.31-.3-.03-4.5,2.11-6.79,4.18-9,1.85-1.97,3.59-3.83,3.7-7.18,0-.14.1-.26.24-.29.13-.03.27.03.34.15l.86,1.58c.08.15.03.34-.12.42-.15.08-.34.03-.42-.12l-.37-.69c-.42,2.95-2.12,4.78-3.78,6.54-1.99,2.12-4.04,4.32-4.01,8.58,0,.17-.14.31-.31.31h0Z"/>
      <path class="cls-2" d="M15.69,17.6c-.05,0-.11-.02-.16-.05-.14-.09-.19-.28-.1-.42l1.14-1.82c.09-.14.28-.19.42-.09.14.09.19.28.1.42l-1.15,1.82c-.06.09-.16.14-.26.14Z"/>
      <path class="cls-2" d="M8.86,20.23c-.06,0-.1-.01-.15-.04-.15-.09-.2-.27-.11-.42l2.16-3.73c.09-.15.28-.2.42-.11.15.08.2.27.12.42l-2.16,3.73c-.06.1-.16.15-.27.15Z"/>
      <path class="cls-2" d="M11.06,19.02c-.05,0-.11-.01-.15-.04l-2.16-1.24c-.15-.09-.2-.27-.11-.42.09-.15.27-.2.42-.12l2.16,1.24c.15.09.2.28.11.42-.06.1-.16.15-.27.15Z"/>
      <path class="cls-2" d="M12.63,32.22c-.05,0-.1-.01-.15-.04-.15-.08-.2-.27-.11-.42l2.12-3.68c.08-.15.27-.2.42-.11.15.09.2.28.11.42l-2.12,3.68c-.06.1-.16.15-.27.15Z"/>
      <path class="cls-2" d="M14.8,31.02c-.05,0-.1-.02-.15-.04l-2.12-1.23c-.15-.08-.2-.27-.11-.42.08-.15.27-.2.42-.11l2.12,1.23c.15.09.2.27.11.42-.06.1-.16.16-.27.16Z"/>
      <path class="cls-2" d="M17.01,24.65c-.06,0-.11-.01-.15-.04-.15-.08-.2-.27-.11-.42l1.45-2.52c.09-.15.28-.2.42-.11.15.09.2.28.11.42l-1.45,2.51c-.06.1-.16.16-.26.16Z"/>
      <path class="cls-2" d="M18.49,23.83c-.05,0-.1-.02-.15-.04l-1.45-.84c-.15-.08-.2-.27-.11-.42.09-.15.27-.2.42-.11l1.45.84c.15.09.2.28.11.42-.06.1-.16.15-.27.15Z"/>
      <path class="cls-2" d="M7.7,26.22c-.05,0-.1-.02-.15-.04-.15-.09-.2-.27-.11-.42l1.45-2.51c.08-.15.27-.2.42-.11.15.08.2.27.11.42l-1.45,2.52c-.06.1-.16.15-.27.15Z"/>
      <path class="cls-2" d="M9.18,25.39c-.05,0-.1-.01-.15-.04l-1.45-.84c-.15-.09-.2-.27-.11-.42.08-.15.27-.19.42-.11l1.45.84c.15.08.2.27.11.42-.06.1-.16.15-.27.15Z"/>
    </g>
  </g>
</svg>