<?xml version="1.0" encoding="UTF-8"?>
<svg id="Layer_2" data-name="Layer 2" xmlns="http://www.w3.org/2000/svg" viewBox="0 0 37.76 41.96" fill="currentColor">
  <defs>
    <style>
      .cls-1 {
        fill: #fff;
      }

      .cls-1, .cls-2, .cls-3, .cls-4 {
        fill-rule: evenodd;
      }

      .cls-2 {
        fill: #1a87c7;
      }

      .cls-3 {
        fill: #bdedf8;
      }

      .cls-4 {
        fill: #66ceef;
      }
    </style>
  </defs>
  <g id="_Layer_" data-name="&amp;lt;Layer&amp;gt;">
    <g>
      <path class="cls-4" d="M.31,32.93l.1-17.76c.05-.65.15-.93.44-1.51.36-.55.55-.77,1.09-1.15C8.87,8.51,15.79,4.51,22.73.51c.43-.2.62-.28,1.08-.1l13.19,7.62c.28.16.45.5.45.99v17.72c0,.97-.69,2.16-1.53,2.65-4.18,2.41-16.71,9.64-20.89,12.06-.43.25-.81.27-1.08.11L.75,33.93c-.38-.32-.4-.52-.44-1Z"/>
      <path class="cls-2" d="M.62,32.92c.04.43.05.54.34.78l13.14,7.59c.19.11.47.07.78-.1l20.88-12.06c.75-.43,1.38-1.52,1.38-2.38V9.01c0-.35-.12-.61-.3-.72L23.65.67c-.3-.11-.39-.07-.8.12L2.09,12.78c-.47.33-.63.52-.97,1.05-.27.53-.35.77-.4,1.37l-.1,17.72h0ZM14.35,41.96c-.2,0-.39-.05-.56-.15L.6,34.2c-.51-.42-.55-.71-.59-1.24,0-.01,0-.02,0-.03L.09,15.17c.06-.71.17-1.04.48-1.65.39-.61.62-.87,1.18-1.26L22.57.24c.51-.23.78-.34,1.34-.13l13.24,7.64c.39.23.61.67.61,1.25v17.72c0,1.09-.75,2.37-1.69,2.92l-20.89,12.06c-.29.17-.57.25-.83.25Z"/>
      <path class="cls-3" d="M37.44,9.01v17.72c0,.97-.69,2.16-1.53,2.65-4.18,2.41-16.71,9.64-20.89,12.06-.85.49-1.53.09-1.53-.89l.09-17.76c0-.98.68-2.17,1.53-2.66,4.15-2.39,16.64-9.61,20.79-12,.84-.49,1.53-.09,1.53.88Z"/>
      <path class="cls-2" d="M36.59,8.23c-.15,0-.33.06-.52.16l-20.79,12.01c-.75.43-1.37,1.53-1.37,2.39l-.1,17.76c0,.36.11.63.3.74.18.11.46.07.77-.11l20.88-12.06c.75-.43,1.38-1.52,1.38-2.38V9.01c0-.35-.12-.61-.3-.72-.07-.04-.16-.06-.25-.06h0ZM14.35,41.96c-.2,0-.38-.05-.56-.14-.39-.23-.6-.68-.6-1.27l.09-17.76c0-1.1.74-2.38,1.68-2.93l20.79-12c.51-.29,1.01-.33,1.39-.1.39.22.61.67.61,1.25v17.72c0,1.09-.75,2.37-1.69,2.92l-20.89,12.06c-.29.17-.57.25-.83.25Z"/>
      <path class="cls-4" d="M15.19,22.52c0-.17.11-.37.26-.46l19.86-11.47c.15-.08.27-.02.27.15v16.46c0,.17-.12.37-.27.46l-19.86,11.47c-.15.08-.26.02-.26-.15v-16.46Z"/>
      <path class="cls-2" d="M35.28,10.97l-19.67,11.35c-.05.03-.11.13-.11.19v16.23l19.67-11.35c.05-.03.11-.13.11-.19V10.97h0ZM15.34,39.47c-.08,0-.16-.02-.23-.06-.15-.09-.24-.25-.24-.44v-16.46c0-.28.18-.58.43-.72l19.86-11.47c.17-.1.35-.11.5-.02.15.08.23.24.23.43v16.46c0,.28-.18.59-.42.72l-19.86,11.47c-.09.05-.18.08-.27.08Z"/>
      <path class="cls-2" d="M26.94,20.42c-.18,0-.31-.14-.31-.31s.13-.31.3-.31h.01c.17,0,.3.14.3.31s-.14.31-.3.31Z"/>
      <polygon class="cls-3" points="27.96 22.24 27.05 21.71 26.82 21.62 27.74 22.15 27.96 22.24"/>
      <path class="cls-2" d="M27.96,22.55s-.07,0-.1-.02l-.23-.09-.96-.55c-.14-.08-.19-.25-.12-.4.07-.14.24-.21.39-.15l.22.09.96.55c.14.08.19.25.12.4-.05.11-.16.18-.28.18Z"/>
      <path class="cls-1" d="M26.86,22.17l-.92-.53c-2.38.7-4.34,5.06-2.46,6.37l.92.53c-2.03-1.68.38-5.76,2.46-6.37Z"/>
      <path class="cls-2" d="M25.91,21.97c-1.41.5-2.58,2.34-2.83,3.82-.07.46-.11,1.24.34,1.75-.12-.45-.13-.97-.02-1.52.32-1.57,1.52-3.2,2.77-3.89l-.27-.16h0ZM24.4,28.85c-.05,0-.1-.01-.15-.04l-.92-.53c-.74-.52-1.03-1.43-.85-2.58.28-1.7,1.65-3.84,3.38-4.35.08-.02.18-.01.24.03l.92.53c.11.06.17.18.15.3,0,.12-.1.22-.22.26-1.22.36-2.61,2.11-2.94,3.68-.14.65-.14,1.56.58,2.16.13.1.16.28.06.41-.06.09-.15.13-.25.13Z"/>
      <path class="cls-1" d="M26.27,20.73l-.32.91.92.53.32-.9c.12-.28.43-.77.8-.57l-.92-.53c-.37-.2-.69.29-.8.57Z"/>
      <path class="cls-2" d="M26.32,21.5l.38.22.19-.56c.05-.11.16-.35.35-.54l-.32-.19c-.14.03-.28.22-.36.41l-.24.65h0ZM26.86,22.48c-.05,0-.1-.01-.15-.04l-.92-.53c-.12-.07-.18-.23-.13-.37l.32-.91v-.02c.06-.14.3-.62.7-.76.19-.07.37-.05.54.05l.93.53c.15.08.2.27.11.42-.09.15-.27.2-.42.12-.14.03-.29.21-.37.42l-.31.89c-.03.09-.1.16-.18.19-.03.01-.07.02-.11.02Z"/>
      <path class="cls-1" d="M27.74,22.15l.3-.88c.12-.34.03-.63-.21-.63h0c-.23,0-.53.27-.65.62l-.32.9c-.21.06-.42.15-.65.28-1.41.82-2.55,2.8-2.55,4.43s1.15,2.3,2.55,1.48c1.42-.82,2.56-2.8,2.56-4.44,0-.97-.41-1.6-1.03-1.78Z"/>
      <path class="cls-2" d="M27.79,20.93s-.22.18-.31.44l-.31.9c-.03.1-.11.17-.21.2-.19.05-.38.14-.58.25-1.33.76-2.41,2.63-2.41,4.17,0,.68.21,1.17.6,1.39.38.22.91.16,1.5-.18,1.32-.77,2.4-2.64,2.4-4.17,0-.8-.3-1.34-.81-1.48-.08-.02-.15-.08-.19-.15-.03-.08-.04-.16-.02-.24l.31-.88c.05-.15.03-.24.03-.25h0ZM25.08,29.02c-.3,0-.57-.07-.83-.21-.59-.34-.9-1.02-.9-1.93,0-1.76,1.19-3.82,2.72-4.7.18-.11.37-.2.57-.26l.26-.76c.15-.41.55-.85.95-.83.18,0,.35.09.45.24.14.2.16.5.05.8l-.22.6c.61.32.96,1.02.96,1.95,0,1.73-1.22,3.84-2.71,4.7-.45.26-.9.39-1.29.39Z"/>
      <path class="cls-1" d="M27.74,22.15l.3-.88c.12-.34.03-.63-.21-.63h0c-.23,0-.53.27-.65.62l-.32.9c.31-.04.6-.04.88-.02Z"/>
      <path class="cls-2" d="M27.4,21.83s.09,0,.12,0l.24-.65c.05-.15.03-.24.03-.25-.02.03-.22.18-.31.44l-.15.46s.06,0,.09,0h0ZM26.86,22.48c-.09,0-.18-.04-.24-.12-.06-.08-.08-.19-.04-.3l.31-.9c.15-.41.55-.85.95-.83.18,0,.35.09.45.24.14.2.16.5.05.8l-.31.87c-.04.13-.18.22-.32.2-.25-.02-.52-.02-.8.02-.02,0-.03,0-.04,0Z"/>
      <path class="cls-3" d="M.85,13.66c.36-.55.55-.77,1.09-1.15C8.87,8.51,15.79,4.51,22.73.51l.3-.14.29-.06h.26s.23.1.23.1l13.19,7.62c-.46-.18-.64-.1-1.08.1-6.93,4-13.85,8-20.79,12-.54.37-.73.6-1.08,1.15L.85,13.66Z"/>
      <path class="cls-2" d="M1.29,13.56l12.65,7.3c.3-.42.52-.65,1.01-.99l20.81-12.02c.07-.03.13-.06.19-.09L23.52.63h-.17s-.25.04-.25.04l-.24.12L2.09,12.78c-.38.27-.57.45-.8.78h0ZM14.04,21.59c-.05,0-.11-.02-.15-.04L.69,13.93c-.07-.04-.12-.11-.15-.19-.02-.08,0-.17.04-.24.37-.58.6-.84,1.16-1.23L22.9.09l.35-.08s.05,0,.08,0h.26s.06.02.09.03l.23.09,13.24,7.64c.14.08.19.25.12.4-.06.14-.23.21-.38.15-.35-.13-.43-.09-.84.1l-20.77,11.99c-.48.33-.64.52-.98,1.05-.06.09-.16.14-.26.14Z"/>
      <path class="cls-1" d="M36.32,15.79l-.74-.42c-.18-.07-.41.01-.63.17-.6.42-.68.76-.68,1.42v6.45c.02.15.03.21.15.31l.73.42c-.09-.05-.14-.15-.14-.31v-6.89c0-.3.22-.68.48-.83.03-.01.47-.27.5-.28.13-.08.24-.08.34-.03h0Z"/>
      <path class="cls-2" d="M35.43,15.64s-.11.03-.3.15c-.5.34-.54.58-.54,1.17v6.45s0,.04,0,.06l.12.06v-6.59c0-.41.27-.89.62-1.09l.24-.13-.14-.08h0ZM35.13,24.45s-.09-.01-.13-.04l-.74-.42c-.25-.2-.28-.35-.29-.55v-6.48c0-.65.06-1.16.81-1.68.33-.23.65-.3.91-.2l.78.45c.14.08.19.24.14.38-.06.14-.22.22-.36.18h0s-.05-.02-.08-.03l-.52.32c-.16.09-.32.37-.32.56v6.89c.15.09.19.3.11.44-.06.1-.17.17-.3.17Z"/>
      <path class="cls-1" d="M36.46,23v-6.89c0-.3-.22-.43-.48-.27-.03.01-.47.27-.5.28-.26.15-.48.53-.48.83v6.89c0,.3.22.43.48.28.03-.02.47-.27.5-.28.26-.15.48-.53.48-.83Z"/>
      <path class="cls-2" d="M36.15,16.1l-.5.28c-.16.09-.32.37-.32.56v6.89l.18-.08c.15-.08.32-.18.34-.19.16-.09.31-.37.31-.56v-6.89h0ZM35.28,24.48c-.1,0-.2-.02-.27-.07-.19-.11-.3-.32-.3-.58v-6.89c0-.41.27-.89.62-1.09l.5-.29c.23-.13.46-.14.65-.03.19.11.3.32.3.57v6.89c0,.42-.27.89-.63,1.09l-.5.29c-.12.07-.25.11-.37.11Z"/>
      <path class="cls-2" d="M25.39,20.05c-.17,0-.31-.14-.31-.31v-.63c0-.17.14-.31.31-.31s.3.14.3.31v.63c0,.17-.14.31-.3.31Z"/>
      <path class="cls-2" d="M29.83,22.61c-.11,0-.21-.06-.27-.15-.09-.15-.04-.34.11-.42l.54-.31c.15-.08.34-.03.43.11.08.15.03.34-.11.42l-.55.31s-.1.04-.15.04Z"/>
      <path class="cls-2" d="M20.41,28.05c-.1,0-.21-.06-.27-.16-.09-.15-.03-.33.11-.42l.54-.31c.15-.08.34-.03.43.11.08.15.03.34-.11.42l-.55.31s-.1.04-.15.04Z"/>
      <path class="cls-2" d="M25.39,30.93c-.17,0-.31-.14-.31-.31v-.62c0-.17.14-.31.31-.31s.3.14.3.31v.62c0,.17-.14.31-.3.31Z"/>
    </g>
  </g>
</svg>