<?xml version="1.0" encoding="UTF-8"?>
<svg id="Layer_2" data-name="Layer 2" xmlns="http://www.w3.org/2000/svg" viewBox="0 0 40.98 40.64" fill="currentColor">
  <defs>
    <style>
      .cls-1 {
        fill: #1a87c7;
      }

      .cls-1, .cls-2, .cls-3 {
        fill-rule: evenodd;
      }

      .cls-2 {
        fill: #bdedf8;
      }

      .cls-3 {
        fill: #66ceef;
      }
    </style>
  </defs>
  <g id="_Layer_" data-name="&amp;lt;Layer&amp;gt;">
    <g>
      <polygon class="cls-3" points=".34 8.94 15.3 .31 16.24 .87 16.24 1.46 18.84 2.97 19.36 2.67 20.3 3.24 20.3 3.82 22.9 5.33 23.42 5.03 24.39 5.59 24.39 6.19 26.96 7.69 27.48 7.38 28.45 7.95 28.45 8.54 31.02 10.04 31.57 9.73 32.51 10.3 32.51 10.89 35.11 12.39 35.63 12.08 36.6 12.65 36.6 13.24 39.17 14.74 39.72 14.44 40.69 15 40.66 31.7 25.7 40.33 25.7 40.33 24.73 39.76 24.73 39.18 22.14 37.67 21.61 37.97 20.67 37.41 20.65 36.83 18.08 35.32 17.53 35.62 16.58 35.05 16.58 34.48 13.99 32.97 13.47 33.27 12.52 32.7 12.5 32.13 9.93 30.62 9.41 30.92 8.44 30.35 8.44 29.77 5.87 28.26 5.34 28.56 4.38 27.99 4.38 27.4 1.78 25.9 1.26 26.2 .31 25.63 .34 8.94"/>
      <path class="cls-1" d="M25.05,39.58l.65.39,14.65-8.46.03-16.34-.66-.39-.39.22c-.08.06-.21.06-.29,0l-2.59-1.5c-.1-.06-.16-.16-.16-.27v-.41l-.66-.38-.37.22c-.1.05-.21.05-.31,0l-2.59-1.5c-.08-.05-.13-.16-.13-.26v-.42l-.65-.38-.39.22c-.08.06-.21.06-.29,0l-2.59-1.5c-.1-.06-.16-.16-.16-.27v-.41l-.65-.39-.37.22c-.1.05-.21.05-.31,0l-2.57-1.5c-.11-.06-.16-.16-.16-.27v-.41l-.65-.39-.37.21c-.1.05-.21.06-.31,0l-2.59-1.5c-.08-.06-.13-.16-.13-.27v-.42l-.65-.39-.37.21c-.1.05-.21.06-.31,0l-2.59-1.51c-.08-.05-.16-.15-.16-.26v-.41l-.63-.39L.63,9.12v16.34l.63.38.37-.21c.11-.06.24-.06.31,0l2.59,1.5c.08.06.16.16.16.27v.41l.65.39.37-.21c.08-.06.21-.06.31,0l2.57,1.51c.11.05.16.16.16.27v.41l.65.39.37-.21c.08-.05.21-.06.29,0l2.59,1.51c.1.05.16.15.16.26v.41l.65.38.37-.21c.1-.05.21-.05.31,0l2.59,1.51c.08.06.16.15.16.26v.41l.65.39.37-.21c.08-.06.21-.05.29,0l2.59,1.51c.1.06.16.16.16.27v.4l.66.39.37-.21c.11-.06.21-.06.31,0l2.59,1.51c.08.06.13.15.13.26l.03.41h0ZM25.7,40.64c-.05,0-.08,0-.1-.02-.05-.01-.08-.03-.11-.06l-.92-.54c-.11-.06-.13-.15-.16-.26v-.41l-2.28-1.33-.37.21c-.1.06-.21.06-.31,0l-.94-.57c-.1-.06-.16-.15-.16-.26v-.4l-2.31-1.33-.37.21c-.08.05-.21.05-.31,0l-.94-.57c-.08-.05-.16-.16-.16-.26v-.4l-2.28-1.33-.37.21c-.1.05-.21.05-.31,0l-.94-.57c-.11-.06-.16-.15-.16-.26v-.4l-2.31-1.33-.34.21c-.11.05-.24.05-.32,0l-.97-.57c-.1-.05-.16-.16-.16-.27v-.41l-2.25-1.33-.39.21c-.08.06-.21.05-.29,0l-.97-.57c-.08-.06-.16-.16-.16-.27v-.41l-2.28-1.33-.37.21c-.08.06-.21.06-.31,0l-.94-.57c-.11-.06-.16-.16-.16-.26L.03,8.94c0-.11.05-.21.16-.27L15.14.04c.1-.05.21-.05.29,0l.97.57c.11.06.16.16.16.26v.41l2.28,1.33.37-.21c.08-.06.21-.06.31,0l.94.57c.11.06.16.16.16.27v.41l2.28,1.33.37-.21c.11-.06.21-.06.31,0l.94.57c.11.06.16.16.16.26v.42l2.28,1.32.39-.22c.08-.06.21-.06.32,0l.94.56c.08.06.16.16.16.27v.41l2.25,1.32.39-.22c.1-.06.21-.05.31,0l.94.57c.11.05.16.15.16.26v.41l2.28,1.33.37-.22c.11-.06.21-.06.31,0l.97.57c.08.06.16.16.16.27v.41l2.25,1.33.39-.22c.1-.06.21-.06.31,0l.97.57c.08.06.13.16.13.27v16.7c0,.11-.08.21-.16.27l-14.96,8.64c-.05.03-.1.04-.16.04Z"/>
      <polygon class="cls-2" points=".34 8.95 30.08 26.11 40.66 19.98 40.69 15 39.72 14.44 39.17 14.74 36.6 13.24 36.6 12.65 35.63 12.08 35.11 12.39 32.51 10.89 32.51 10.3 31.57 9.73 31.02 10.04 28.45 8.54 28.45 7.95 27.48 7.38 26.96 7.69 24.39 6.19 24.39 5.59 23.42 5.03 22.9 5.33 20.3 3.82 20.3 3.24 19.36 2.67 18.84 2.97 16.24 1.46 16.24 .87 15.3 .31 .34 8.94 .34 8.95"/>
      <path class="cls-1" d="M.94,8.94l29.13,16.81,10.3-5.95v-4.63l-.66-.39-.39.22c-.08.06-.21.06-.29,0l-2.59-1.5c-.1-.06-.16-.16-.16-.27v-.41l-.66-.38-.37.22c-.1.05-.21.05-.31,0l-2.59-1.5c-.08-.05-.13-.16-.13-.26v-.42l-.65-.38-.39.22c-.08.06-.21.06-.29,0l-2.59-1.5c-.1-.06-.16-.16-.16-.27v-.41l-.65-.39-.37.22c-.1.05-.21.05-.31,0l-2.57-1.5c-.11-.06-.16-.16-.16-.27v-.41l-.65-.39-.37.21c-.1.05-.21.06-.31,0l-2.59-1.5c-.08-.06-.13-.16-.13-.27v-.42l-.65-.39-.37.21c-.1.05-.21.06-.31,0l-2.59-1.51c-.08-.05-.16-.15-.16-.26v-.41l-.63-.39L.94,8.94h0ZM30.08,26.42c-.05,0-.11-.01-.16-.04L.18,9.21c-.1-.05-.16-.16-.16-.27H.03c0-.12.05-.22.16-.27L15.14.04c.1-.05.21-.05.29,0l.97.57c.11.06.16.16.16.26v.41l2.28,1.33.37-.21c.08-.06.21-.06.31,0l.94.57c.11.06.16.16.16.27v.41l2.28,1.33.37-.21c.11-.06.21-.06.31,0l.94.57c.11.06.16.16.16.26v.42l2.28,1.32.39-.22c.08-.06.21-.06.32,0l.94.56c.08.06.16.16.16.27v.41l2.25,1.32.39-.22c.1-.06.21-.05.31,0l.94.57c.11.05.16.15.16.26v.41l2.28,1.33.37-.22c.11-.06.21-.06.31,0l.97.57c.08.06.16.16.16.27v.41l2.25,1.33.39-.22c.1-.06.21-.06.31,0l.97.57c.08.06.13.16.13.27v4.98c0,.11-.05.21-.16.27l-10.59,6.13c-.05.03-.1.04-.16.04Z"/>
      <polygon class="cls-2" points="25.7 23.64 40.69 15 40.66 31.7 25.7 40.33 25.7 23.64"/>
      <path class="cls-1" d="M26.02,23.81v15.99l14.33-8.28.03-15.99-14.36,8.28h0ZM25.7,40.64c-.05,0-.1-.01-.16-.04-.1-.05-.16-.15-.16-.27l.03-16.7c0-.11.05-.21.16-.26l14.96-8.64c.08-.06.21-.06.29,0,.1.05.16.15.16.27v16.7c0,.11-.08.21-.16.27l-14.96,8.64c-.05.03-.1.04-.16.04Z"/>
      <polygon class="cls-3" points="20.67 20.72 35.63 12.08 36.6 12.65 21.64 21.28 20.67 20.72"/>
      <path class="cls-1" d="M21.27,20.72l.37.21,14.33-8.28-.34-.2-14.36,8.28h0ZM21.64,21.59c-.05,0-.1-.02-.16-.04l-.97-.57c-.08-.06-.13-.16-.13-.27s.05-.21.13-.27l14.96-8.63c.11-.06.21-.06.31,0l.97.57c.08.06.16.16.16.27s-.08.21-.16.26l-14.96,8.63c-.05.03-.11.04-.16.04Z"/>
      <polygon class="cls-3" points="20.67 20.72 21.64 21.28 21.61 37.97 20.67 37.41 20.67 20.72"/>
      <path class="cls-1" d="M20.96,37.23l.34.2.03-15.98-.34-.2-.03,15.97h0ZM21.61,38.28c-.05,0-.1-.02-.16-.04l-.94-.57c-.1-.06-.16-.16-.16-.26l.03-16.69c0-.11.05-.21.13-.27.11-.06.24-.05.31,0l.97.57c.08.06.16.16.16.27l-.03,16.69c0,.11-.05.21-.16.27-.05.03-.1.04-.16.04Z"/>
      <polygon class="cls-3" points="16.61 18.37 31.57 9.73 32.51 10.3 17.55 18.93 16.61 18.37"/>
      <path class="cls-1" d="M17.21,18.37l.34.21,14.36-8.28-.34-.21-14.36,8.28h0ZM17.55,19.24c-.05,0-.1-.02-.16-.04l-.94-.56c-.11-.06-.16-.16-.16-.27s.05-.21.16-.26l14.96-8.63c.1-.05.21-.05.31,0l.94.57c.11.05.16.16.16.27s-.05.21-.16.27l-14.96,8.63c-.05.03-.11.04-.16.04Z"/>
      <polygon class="cls-3" points="16.61 18.37 17.55 18.93 17.55 35.62 16.58 35.05 16.61 18.37"/>
      <path class="cls-1" d="M16.9,34.88l.34.2v-15.97l-.31-.2-.03,15.97h0ZM17.55,35.93c-.08,0-.13-.02-.18-.04l-.94-.56c-.1-.06-.16-.16-.16-.27l.03-16.69c0-.11.05-.21.16-.27.1-.06.21-.06.31,0l.94.57c.1.06.16.16.16.26l-.03,16.69c0,.11-.05.22-.16.27-.03.03-.08.04-.13.04Z"/>
      <polygon class="cls-3" points="12.52 16.01 27.48 7.38 28.45 7.95 13.49 16.58 12.52 16.01"/>
      <path class="cls-1" d="M13.15,16.02l.34.2,14.36-8.28-.37-.2-14.33,8.28h0ZM13.49,16.89c-.05,0-.11-.02-.16-.04l-.97-.57c-.08-.06-.13-.15-.13-.26s.05-.21.13-.26l14.99-8.63c.08-.06.21-.06.29,0l.97.56c.08.06.16.16.16.27s-.08.21-.16.27l-14.96,8.63c-.05.03-.11.04-.16.04Z"/>
      <polygon class="cls-3" points="12.52 16.01 13.49 16.58 13.47 33.27 12.52 32.7 12.52 16.01"/>
      <path class="cls-1" d="M12.81,32.53l.37.2v-15.98l-.34-.2-.03,15.97h0ZM13.47,33.58c-.05,0-.1-.02-.16-.04l-.94-.57c-.11-.06-.16-.16-.16-.26l.03-16.69c0-.11.05-.21.13-.27.1-.05.24-.05.31,0l.97.57c.08.06.16.15.16.26l-.03,16.69c0,.11-.05.21-.16.27-.05.03-.1.04-.16.04Z"/>
      <polygon class="cls-3" points="8.46 13.66 23.42 5.03 24.39 5.59 9.43 14.23 8.46 13.66"/>
      <path class="cls-1" d="M9.07,13.67l.37.2,14.33-8.28-.34-.2-14.36,8.28h0ZM9.43,14.54c-.05,0-.13-.02-.16-.04l-.97-.57c-.1-.05-.16-.16-.16-.27s.05-.21.16-.26l14.96-8.63c.11-.06.21-.06.31,0l.94.57c.11.06.16.16.16.27s-.05.21-.16.26l-14.96,8.64s-.08.04-.13.04Z"/>
      <polygon class="cls-3" points="8.46 13.66 9.43 14.23 9.41 30.92 8.44 30.35 8.46 13.66"/>
      <path class="cls-1" d="M8.75,30.18l.34.2.03-15.98-.34-.2-.03,15.98h0ZM9.41,31.23c-.05,0-.11-.01-.16-.04l-.97-.57c-.1-.05-.16-.16-.16-.27l.03-16.69c0-.11.05-.21.16-.27.11-.06.21-.06.31,0l.97.57c.08.06.13.16.13.26v16.69c0,.11-.08.21-.16.27-.05.03-.11.04-.16.04Z"/>
      <polygon class="cls-3" points="4.4 11.3 19.36 2.67 20.3 3.24 5.34 11.87 4.4 11.3"/>
      <path class="cls-1" d="M5,11.3l.34.21L19.7,3.23l-.34-.21L5,11.3h0ZM5.34,12.18c-.05,0-.11-.02-.16-.05l-.94-.57c-.1-.06-.16-.16-.16-.27s.05-.21.16-.26L19.2,2.4c.08-.06.21-.06.31,0l.94.57c.11.06.16.16.16.27s-.05.21-.16.26L5.5,12.14c-.05.03-.11.04-.16.04Z"/>
      <polygon class="cls-3" points="4.4 11.3 5.34 11.87 5.34 28.56 4.38 27.99 4.4 11.3"/>
      <path class="cls-1" d="M4.69,27.82l.34.2v-15.98l-.34-.2v15.98h0ZM5.34,28.87c-.08,0-.13-.02-.16-.04l-.97-.57c-.08-.06-.16-.16-.16-.27l.03-16.69c0-.11.05-.21.16-.27.11-.06.21-.06.31,0l.94.57c.11.06.16.16.16.26l-.03,16.69c0,.11-.05.21-.16.27-.03.03-.08.04-.13.04Z"/>
      <polygon class="cls-3" points="24.76 23.07 39.72 14.44 40.69 15 25.7 23.64 24.76 23.07"/>
      <path class="cls-1" d="M25.36,23.07l.34.21,14.36-8.28-.34-.2-14.36,8.28h0ZM25.7,23.94c-.05,0-.1-.01-.16-.04l-.94-.57c-.1-.06-.16-.16-.16-.27s.08-.21.16-.26l14.96-8.64c.1-.06.21-.06.31,0l.97.57c.08.06.13.16.13.27s-.05.21-.16.27l-14.96,8.63c-.05.03-.1.04-.16.04Z"/>
      <polygon class="cls-3" points="24.76 23.07 25.7 23.64 25.7 40.33 24.73 39.76 24.76 23.07"/>
      <path class="cls-1" d="M25.05,39.58l.34.2.03-15.98-.37-.2v15.97h0ZM25.7,40.64c-.05,0-.1-.02-.16-.04l-.97-.57c-.11-.06-.16-.16-.16-.26l.03-16.69c0-.11.08-.22.16-.27.1-.05.21-.05.31,0l.94.57c.11.06.16.15.16.26l-.03,16.69c0,.11-.05.21-.13.27-.05.03-.1.04-.16.04Z"/>
      <polygon class="cls-3" points=".34 8.94 15.3 .31 16.24 .87 1.28 9.51 .34 8.94"/>
      <path class="cls-1" d="M.94,8.95l.34.2L15.64.87l-.34-.21L.94,8.95h0ZM1.28,9.82c-.05,0-.1-.01-.16-.04l-.94-.57c-.1-.06-.16-.16-.16-.27s.05-.21.16-.27L15.14.04c.1-.05.21-.05.29,0l.97.57c.11.06.16.16.16.27s-.05.21-.16.26L1.44,9.77c-.05.03-.11.04-.16.04Z"/>
      <polygon class="cls-3" points=".34 8.94 1.28 9.51 1.26 26.2 .31 25.63 .34 8.94"/>
      <path class="cls-1" d="M.63,25.46l.34.2v-15.98l-.34-.2v15.98h0ZM1.26,26.51c-.05,0-.1-.02-.16-.04l-.94-.57c-.11-.06-.16-.16-.16-.26L.03,8.94c0-.11.05-.21.16-.27s.21-.06.31,0l.94.57c.1.06.16.16.16.26l-.03,16.69c0,.11-.05.21-.16.27-.05.03-.1.04-.16.04Z"/>
      <polygon class="cls-2" points="26.85 24.26 39.51 16.95 39.51 31.08 26.85 38.38 26.85 24.26"/>
      <path class="cls-1" d="M27.17,24.43l-.03,13.42,12.05-6.95v-13.41l-12.03,6.95h0ZM26.85,38.69c-.05,0-.1-.02-.16-.04-.1-.06-.16-.16-.16-.27v-14.13c0-.11.08-.21.16-.27l12.65-7.3c.11-.06.24-.06.31,0,.11.06.16.16.16.27v14.13c0,.11-.08.21-.16.27l-12.65,7.31c-.05.03-.11.04-.16.04Z"/>
      <path class="cls-1" d="M34.4,22.56c-.1,0-.21-.06-.29-.15-.08-.15-.03-.34.13-.42l3.75-2.16c.13-.08.31-.04.42.11.08.15.03.34-.13.42l-3.75,2.16s-.08.04-.13.04Z"/>
      <path class="cls-1" d="M34.4,32.43c-.1,0-.21-.06-.29-.15-.08-.15-.03-.34.13-.42l3.75-2.16c.13-.08.31-.04.42.11.08.15.03.34-.13.42l-3.75,2.16s-.08.04-.13.04Z"/>
      <path class="cls-1" d="M34.4,29.96c-.1,0-.21-.05-.29-.15-.08-.15-.03-.34.13-.42l3.75-2.16c.13-.08.31-.03.42.11.08.14.03.34-.13.42l-3.75,2.16s-.08.04-.13.04Z"/>
      <path class="cls-1" d="M34.4,27.49c-.1,0-.21-.06-.29-.16-.08-.15-.03-.33.13-.42l3.75-2.16c.13-.08.31-.04.42.11.08.15.03.33-.13.42l-3.75,2.16s-.08.04-.13.04Z"/>
      <path class="cls-1" d="M34.4,25.03c-.1,0-.21-.06-.29-.15-.08-.15-.03-.34.13-.42l3.75-2.16c.13-.08.31-.03.42.11.08.15.03.34-.13.42l-3.75,2.16s-.08.04-.13.04Z"/>
      <path class="cls-1" d="M28.19,26.15c-.11,0-.21-.06-.29-.16-.08-.15-.03-.33.13-.42l3.98-2.31c.16-.08.34-.03.42.11.08.15.05.34-.1.42l-4.01,2.31c-.05.03-.08.04-.13.04Z"/>
      <path class="cls-1" d="M28.19,36.01c-.11,0-.21-.05-.29-.15-.08-.15-.03-.34.13-.42l3.98-2.31c.16-.08.34-.04.42.11.08.15.05.34-.1.42l-4.01,2.31c-.05.03-.08.04-.13.04Z"/>
      <path class="cls-1" d="M28.19,28.61c-.11,0-.21-.06-.29-.15-.08-.15-.03-.34.13-.42l3.98-2.31c.16-.08.34-.03.42.12.08.15.05.34-.1.42l-4.01,2.31c-.05.03-.08.04-.13.04Z"/>
      <path class="cls-1" d="M28.19,33.55c-.11,0-.21-.05-.29-.15-.08-.15-.03-.34.13-.42l3.98-2.31c.16-.08.34-.03.42.11.08.15.05.34-.1.42l-4.01,2.31c-.05.03-.08.04-.13.04Z"/>
      <path class="cls-1" d="M28.19,31.08c-.11,0-.21-.06-.29-.15-.08-.15-.03-.34.13-.42l3.98-2.31c.16-.08.34-.04.42.11.08.15.05.34-.1.42l-4.01,2.31c-.05.03-.08.04-.13.04Z"/>
      <path class="cls-1" d="M33.19,35.03c-.18,0-.31-.14-.31-.31v-14.12c0-.17.13-.31.31-.31.16,0,.31.14.31.31v14.12c0,.17-.16.31-.31.31Z"/>
    </g>
  </g>
</svg>