<?xml version="1.0" encoding="UTF-8"?>
<svg id="Layer_2" data-name="Layer 2" xmlns="http://www.w3.org/2000/svg" viewBox="0 0 25.93 42.41" fill="currentColor">
  <defs>
    <style>
      .cls-1 {
        fill: #fff;
      }

      .cls-1, .cls-2, .cls-3, .cls-4 {
        fill-rule: evenodd;
      }

      .cls-2 {
        fill: #1a87c7;
      }

      .cls-3 {
        fill: #bdedf8;
      }

      .cls-4 {
        fill: #66ceef;
      }
    </style>
  </defs>
  <g id="_Layer_" data-name="&amp;lt;Layer&amp;gt;">
    <g>
      <path class="cls-1" d="M17,18.16l-1.76-1.02c.92-.83,1.49-1.6,2.15-2.7.5-.96.79-1.68,1.02-2.74.13-.75.18-1.24.13-2.01-.16-1.04-.39-1.7-1.28-2.3l1.76,1.02c.65.43.84.73,1.13,1.44.18.7.21,1.1.21,1.83-.13,1.26-.39,2.08-.92,3.23-.68,1.32-1.34,2.28-2.44,3.25Z"/>
      <path class="cls-2" d="M15.74,17.09l1.23.7c1.02-.97,1.62-1.9,2.2-3.02.47-1.05.73-1.83.86-3.13,0-.68-.03-1.05-.18-1.71-.26-.63-.42-.89-1-1.26l-.29-.17c.13.33.21.71.29,1.13.05.86,0,1.38-.13,2.11-.26,1.06-.52,1.8-1.05,2.82-.58.96-1.1,1.72-1.94,2.51h0ZM17,18.48c-.05,0-.11-.02-.16-.04l-1.76-1.02c-.11-.05-.16-.14-.16-.24-.03-.09.03-.19.1-.26.94-.85,1.49-1.61,2.1-2.63.5-.97.76-1.65.99-2.65.11-.68.16-1.15.11-1.92-.13-.97-.37-1.54-1.15-2.06-.13-.09-.18-.28-.08-.42.08-.15.26-.19.42-.11l1.76,1.03c.71.46.94.82,1.26,1.58.21.78.24,1.22.21,1.96-.13,1.39-.42,2.25-.92,3.35-.63,1.25-1.31,2.29-2.51,3.36-.05.05-.13.08-.21.08Z"/>
      <polygon class="cls-1" points="13.75 11.23 11.99 10.21 14.22 11.33 16 12.35 13.75 11.23"/>
      <path class="cls-2" d="M16,12.65c-.05,0-.08,0-.13-.03l-2.25-1.12h0s-1.78-1.03-1.78-1.03c-.16-.08-.21-.26-.13-.41.08-.15.26-.21.42-.13l2.23,1.12,1.81,1.02c.13.09.18.27.11.42-.05.1-.16.16-.26.16Z"/>
      <path class="cls-1" d="M3.29,17.77l3.51-13.41c.08-.17.26-.49.47-.41l1.78,1.02c-.24-.08-.42.23-.47.41l-3.51,13.41c-.03.12-.05.25.08.32l-1.78-1.03c-.1-.07-.1-.2-.08-.32Z"/>
      <path class="cls-2" d="M3.58,17.86l1.23.71,3.49-13.26c.03-.05.05-.19.16-.32l-1.23-.71c-.05.03-.08.11-.11.18l-3.51,13.39s-.03.02-.03.02h0ZM5.15,19.43c-.05,0-.11-.01-.16-.04h0s-1.76-1.02-1.76-1.02c-.16-.09-.31-.28-.23-.66h0s3.51-13.42,3.51-13.42c.03-.09.16-.43.45-.59.13-.06.29-.08.42-.03l1.83,1.05c.13.08.18.24.13.39-.08.15-.24.21-.39.17.03.02-.05.11-.08.21l-3.51,13.4h0c.11.1.13.27.05.4-.05.1-.16.15-.26.15Z"/>
      <path class="cls-1" d="M10.6,7.58l-1.78-1.02c.58-.72,1.1-1.35,1.7-2.01,1.68-1.68,3.22-2.9,5.45-3.75.92-.31,1.6-.46,2.57-.49.94.03,1.44.15,2.28.54l1.78,1.02c-1.36-.63-2.44-.65-3.98-.32-.84.24-1.47.49-2.25.88-1.62.9-2.8,1.88-4.06,3.15-.6.66-1.15,1.3-1.7,2.01Z"/>
      <path class="cls-2" d="M9.29,6.47l1.23.71c.52-.65,1.02-1.23,1.55-1.82,1.44-1.44,2.62-2.37,4.14-3.22.86-.42,1.52-.68,2.33-.9.73-.15,1.36-.23,1.96-.21-.65-.28-1.13-.39-1.96-.42-1,.03-1.65.19-2.49.47-1.91.75-3.46,1.82-5.32,3.69-.5.56-.94,1.1-1.44,1.7h0ZM10.6,7.89c-.05,0-.11-.02-.13-.04l-1.78-1.02c-.08-.04-.13-.11-.16-.2,0-.09,0-.18.05-.25.58-.74,1.13-1.38,1.73-2.04,1.91-1.94,3.51-3.05,5.53-3.83.92-.31,1.62-.48,2.7-.5,1.02.03,1.57.17,2.41.56l1.81,1.04c.13.08.18.26.13.41-.08.15-.26.21-.42.14-1.2-.57-2.2-.65-3.77-.3-.79.21-1.36.44-2.2.84-1.44.81-2.59,1.71-3.98,3.1-.58.63-1.1,1.25-1.68,1.98-.05.08-.13.12-.24.12Z"/>
      <path class="cls-1" d="M21.53,19.76c-1.44,2.01-3.07,3.6-4.72,4.72.39-1.26.6-2.53.6-3.73,0-.99-.16-1.85-.42-2.58.52-.44,1.02-1,1.49-1.64,1.99-2.76,2.46-6.21,1.07-7.7-1.28-1.34-3.64-.63-5.55,1.57-.16.18-.34.4-.34.62-.03.12.03.18.08.21l2.25,1.12c.08.04.13.17.08.32-.05.16-.16.3-.26.38-3.41,1.95-6.78,3.89-10.16,5.86-.18.1-.42.3-.55.17-.13-.14.03-.56.11-.83l3.38-12.87c.05-.16.16-.3.26-.38.13-.07.24-.04.29.06l1.15,2.49c.05.08.11.11.18.09.05,0,.1-.03.13-.07C14.95,1.75,20.85-.39,23.86,2.82c3.09,3.27,2.04,10.86-2.33,16.94Z"/>
      <path class="cls-2" d="M13.88,10.95h.03-.03ZM17.36,18.26c.24.73.37,1.56.37,2.49s-.13,1.94-.39,2.96c1.42-1.08,2.75-2.49,3.96-4.14h0c4.27-5.96,5.32-13.38,2.33-16.54-.92-.99-2.2-1.47-3.67-1.39-2.96.17-6.37,2.46-9.09,6.13-.03.02-.05.03-.08.05-.08.07-.16.1-.24.12-.24.05-.45-.05-.52-.26l-1.1-2.32s-.03.07-.05.1l-3.41,13.04c-.03.05-.05.12-.05.2l.08-.06c3.04-1.77,6.08-3.51,9.12-5.26l1.05-.6c.05-.03.1-.1.13-.19h0s-2.17-1.09-2.17-1.09c-.18-.09-.29-.26-.26-.5,0-.3.21-.55.37-.75,0,0,.05-.07.05-.07,1.28-1.47,2.75-2.33,4.09-2.36.79-.03,1.41.25,1.91.77,1.52,1.61,1.07,5.17-1.05,8.09-.42.59-.86,1.11-1.36,1.56h0ZM16.81,24.79c-.08,0-.13-.03-.18-.06-.1-.08-.16-.22-.13-.34.42-1.27.6-2.49.6-3.64,0-.93-.13-1.77-.39-2.48-.05-.11,0-.25.08-.34.52-.44,1.02-.97,1.44-1.58,1.91-2.65,2.41-5.93,1.1-7.31-.37-.4-.89-.59-1.47-.58-1.13.02-2.49.83-3.62,2.14-.13.15-.24.3-.26.4l2.15,1.08c.23.11.31.38.23.69-.05.24-.21.44-.39.56l-1.07.61c-3.01,1.74-6.05,3.49-9.09,5.25l-.1.06c-.18.12-.55.36-.81.06-.24-.24-.1-.63-.03-.96l.05-.15,3.38-12.87c.05-.24.21-.45.39-.57.16-.09.31-.1.45-.06.13.03.24.13.29.25l1.07,2.3c2.78-3.69,6.31-6.03,9.41-6.2,1.68-.11,3.12.44,4.19,1.57,3.17,3.36,2.12,11.14-2.33,17.32h0c-1.41,1.97-3.07,3.63-4.79,4.81-.05.03-.1.05-.16.05Z"/>
      <path class="cls-4" d="M6.83,39.42l-2.59-1.5c3.04,1.7,6.79-1.15,8.72-3.35,2.7-3.07,5.06-8.31,4.04-12.39-.29-1.2-.92-2.26-1.99-2.91l2.7,1.57c2.72,1.72,2.31,6.1,1.47,8.78-1.26,3.98-4.64,8.79-8.75,10.03-1.2.36-2.46.38-3.59-.25Z"/>
      <path class="cls-2" d="M6.96,39.15c.97.53,2.1.61,3.38.23,3.93-1.19,7.28-5.84,8.51-9.82.92-2.92,1.13-6.88-1.31-8.43l-.81-.48c.24.44.42.92.58,1.48,1.05,4.26-1.39,9.54-4.11,12.65-1.78,2.03-4.43,3.96-6.92,3.97l.68.4h0ZM8.79,40.23c-.76,0-1.47-.18-2.12-.55h0s-2.59-1.5-2.59-1.5c-.13-.09-.18-.27-.11-.42.08-.15.26-.2.42-.12,2.88,1.63,6.6-1.29,8.33-3.28,2.7-3.09,4.95-8.24,3.98-12.11-.31-1.26-.94-2.17-1.86-2.71-.16-.09-.21-.28-.11-.42.08-.15.26-.19.42-.11l2.7,1.56c2.75,1.75,2.57,6.02,1.6,9.14-1.31,4.14-4.79,8.98-8.93,10.23-.6.17-1.18.27-1.73.27Z"/>
      <path class="cls-1" d="M11.39,20.96c-4.14,2.39-7.52,8.22-7.52,13.01s3.38,6.73,7.52,4.34c4.14-2.4,7.52-8.22,7.52-13.01s-3.38-6.74-7.52-4.34Z"/>
      <path class="cls-2" d="M11.55,21.22c-4.06,2.34-7.36,8.06-7.36,12.74,0,2.2.73,3.83,2.04,4.6,1.31.75,3.09.57,5-.53,4.06-2.35,7.36-8.06,7.36-12.74,0-2.21-.73-3.83-2.04-4.6-1.31-.77-3.09-.57-5,.53h0ZM8.03,39.64c-.76,0-1.47-.18-2.12-.54-1.49-.88-2.36-2.7-2.36-5.13,0-4.89,3.46-10.84,7.68-13.28h0c2.12-1.22,4.11-1.4,5.63-.52,1.52.88,2.36,2.69,2.36,5.13,0,4.88-3.46,10.84-7.68,13.27-1.23.71-2.44,1.07-3.51,1.07Z"/>
      <path class="cls-4" d="M9.61,17.87c1.91-1.06,4.38-1.84,6.42-.74l2.59,1.5c-3.8-1.9-8.31,1.61-10.64,4.35-3.14,3.67-5.84,9.68-4.87,14.54.29,1.58,1,2.95,2.36,3.87-.6-.36-2.41-1.35-2.88-1.7-2.96-2.24-2.46-7.21-1.52-10.32,1.34-4.49,4.45-9.08,8.54-11.5Z"/>
      <path class="cls-2" d="M9.76,18.14c-3.75,2.22-6.97,6.56-8.41,11.32-1.02,3.34-1.26,7.96,1.42,9.98.18.13.52.35.94.59-.42-.69-.73-1.5-.92-2.46-1-5.03,1.86-11.19,4.95-14.8,2.23-2.6,5.61-5.11,8.8-4.99l-.65-.39c-2.04-1.09-4.45-.2-6.13.74h0ZM5.47,41.69c-.05,0-.11,0-.16-.04l-.55-.32c-.84-.47-1.97-1.11-2.36-1.39-2.93-2.21-2.78-6.95-1.65-10.66,1.49-4.9,4.82-9.38,8.7-11.67.03,0,.03,0,.03,0,1.78-1.01,4.43-1.96,6.71-.74l2.59,1.49c.13.09.18.27.11.42-.08.15-.26.2-.39.13-3.43-1.7-7.68,1.23-10.27,4.28-3.01,3.48-5.76,9.44-4.82,14.28.34,1.69,1.07,2.89,2.25,3.67.13.1.18.28.08.42-.05.09-.16.15-.26.15Z"/>
      <polygon class="cls-4" points="6.7 39.34 4.1 37.84 4.18 37.89 4.24 37.92 6.83 39.42 6.75 39.37 6.7 39.34"/>
      <path class="cls-2" d="M6.8,39.72c-.05,0-.08-.02-.13-.05l-2.59-1.48-.05-.04s-.03,0-.03-.02l-.05-.02h0c-.11-.11-.13-.28-.08-.41.1-.14.26-.21.39-.13l2.59,1.49h0l.05.04h.03s.03.03.03.03h0c.1.1.16.28.08.41-.05.1-.13.16-.24.16Z"/>
      <polygon class="cls-4" points="17.57 20.78 15 19.29 14.93 19.25 14.87 19.22 17.44 20.7 17.52 20.74 17.57 20.78"/>
      <path class="cls-2" d="M17.57,21.09c-.05,0-.08,0-.13-.03l-.08-.04s-.05-.04-.08-.04l-2.57-1.49c-.16-.09-.21-.28-.13-.42.08-.15.29-.21.42-.12l.08.03s.08.04.08.04l2.57,1.49c.16.09.21.27.13.42-.05.1-.16.16-.29.16Z"/>
      <path class="cls-2" d="M10.34,38.39s-.05,0-.08-.02c-.18-.04-.26-.21-.24-.37l2.46-9.48c.05-.17.24-.26.39-.22.16.04.26.21.21.37l-2.46,9.48c-.05.14-.16.23-.29.23Z"/>
      <polygon class="cls-3" points="13.33 29.6 12.65 31.03 7.85 29.66 8.53 28.24 13.33 29.6"/>
      <path class="cls-2" d="M8.3,29.46l4.19,1.2.39-.86-4.19-1.2-.39.86h0ZM12.65,31.34s-.05,0-.08-.02l-4.79-1.37c-.08-.02-.16-.09-.18-.16-.05-.09-.05-.18,0-.26l.66-1.43c.08-.14.21-.21.37-.17l4.79,1.36c.08.03.16.09.18.17.05.09.05.18,0,.26l-.66,1.43c-.05.11-.18.18-.29.18Z"/>
      <polygon class="cls-4" points="11.62 32.46 11.05 32.12 16.6 22.5 17 22.73 17.18 22.83 11.62 32.46"/>
      <path class="cls-2" d="M11.47,32l.05.03,5.24-9.08-.05-.03-5.24,9.08h0ZM11.62,32.76c-.05,0-.1-.01-.13-.04l-.6-.33c-.05-.04-.11-.11-.13-.19-.03-.08-.03-.16.03-.24l5.56-9.61c.08-.15.26-.2.42-.11l.58.33c.16.09.21.28.13.43l-5.55,9.61c-.08.1-.16.16-.29.16Z"/>
      <path class="cls-3" d="M17.57,20.78c-.68-.41-1.55-.57-2.46-.49-.89.1-1.89.43-2.91,1.02-1.02.6-2.02,1.4-2.91,2.34-.92.98-1.78,2.12-2.46,3.33-.71,1.22-1.28,2.51-1.65,3.81-.37,1.25-.58,2.5-.58,3.69s.21,2.21.58,3.02c.37.85.94,1.5,1.65,1.9.68.4,1.55.57,2.46.48.89-.09,1.89-.42,2.91-1.02,1.02-.59,2.02-1.4,2.91-2.34.92-.98,1.78-2.12,2.46-3.34.71-1.22,1.28-2.51,1.65-3.81.39-1.24.58-2.5.58-3.69s-.18-2.21-.58-3.03c-.37-.85-.94-1.49-1.65-1.89h0ZM5.62,26.3c1.68-2.91,4.01-5.46,6.58-6.94,2.57-1.49,4.9-1.62,6.58-.65,1.68.97,2.73,3.05,2.73,6.02s-1.05,6.25-2.73,9.16c-1.68,2.92-4.01,5.46-6.58,6.95-2.57,1.47-4.9,1.62-6.58.65-1.68-.98-2.72-3.06-2.72-6.03s1.05-6.25,2.72-9.16h0Z"/>
      <path class="cls-2" d="M15.61,20.58c-.16,0-.31,0-.47.02-.86.1-1.81.42-2.78.98-1,.57-1.94,1.34-2.86,2.29-.89.96-1.7,2.06-2.41,3.27-.71,1.22-1.26,2.48-1.62,3.74-.37,1.26-.55,2.47-.55,3.61s.16,2.09.52,2.9c.37.78.89,1.37,1.52,1.76.68.37,1.44.52,2.31.44.86-.09,1.81-.42,2.78-.97,1-.58,1.94-1.34,2.86-2.3.89-.96,1.7-2.06,2.41-3.28.71-1.21,1.26-2.47,1.62-3.74.37-1.25.58-2.47.58-3.61s-.18-2.1-.55-2.89c-.37-.79-.89-1.38-1.52-1.76-.55-.31-1.18-.46-1.83-.46h0ZM8.79,40.22c-.79,0-1.49-.18-2.12-.55-.79-.44-1.39-1.13-1.78-2.03-.39-.89-.6-1.95-.6-3.16s.21-2.47.6-3.78c.37-1.31.94-2.62,1.68-3.87.71-1.26,1.57-2.4,2.49-3.4.97-.99,1.96-1.8,2.99-2.4,1.05-.6,2.07-.96,3.04-1.05,1-.09,1.89.08,2.65.52.79.45,1.36,1.13,1.78,2.04.39.88.6,1.94.6,3.15s-.21,2.48-.58,3.78c-.39,1.32-.97,2.63-1.68,3.88-.73,1.25-1.6,2.4-2.51,3.39-.94.99-1.97,1.8-2.99,2.4-1.05.61-2.07.96-3.04,1.05-.18.02-.34.02-.52.02h0ZM16.34,18.4c.84,0,1.6.19,2.28.58,1.65.96,2.57,3,2.57,5.75s-.94,6.02-2.67,9.01c-1.73,2.99-4.03,5.41-6.47,6.82-2.38,1.37-4.61,1.61-6.26.65-1.65-.95-2.57-3-2.57-5.75s.94-6.01,2.67-9h0c1.73-3,4.04-5.43,6.47-6.83,1.42-.82,2.78-1.23,3.98-1.23h0ZM8.06,42.41c-.94,0-1.81-.22-2.59-.67-1.86-1.07-2.88-3.3-2.88-6.29s1-6.22,2.78-9.32c1.78-3.09,4.17-5.59,6.68-7.05,2.59-1.49,5.03-1.72,6.89-.65,1.86,1.07,2.86,3.3,2.86,6.28s-.97,6.23-2.75,9.32c-1.78,3.08-4.17,5.59-6.68,7.05-1.52.88-2.99,1.32-4.3,1.32Z"/>
    </g>
  </g>
</svg>