<?xml version="1.0" encoding="UTF-8"?>
<svg id="Layer_2" data-name="Layer 2" xmlns="http://www.w3.org/2000/svg" viewBox="0 0 29.81 43.97" fill="currentColor">
  <defs>
    <style>
      .cls-1 {
        fill: #fff;
      }

      .cls-1, .cls-2, .cls-3, .cls-4 {
        fill-rule: evenodd;
      }

      .cls-2 {
        fill: #1a87c7;
      }

      .cls-3 {
        fill: #bdedf8;
      }

      .cls-4 {
        fill: #66ceef;
      }
    </style>
  </defs>
  <g id="_Layer_" data-name="&amp;lt;Layer&amp;gt;">
    <g>
      <path class="cls-3" d="M19.58,21.35l-1-.57c-.56-.26-1.09.18-1.44.57-.15.18-.25.34-.36.54l-1.02,1.76c-.11.2-.2.37-.29.59-.07.23-.11.38-.14.61,0,.38.03.71.36.94l1.06.62c.16.13.07.35,0,.5l-1.6,2.76,6.24,3.61,1.6-2.77c.08-.16.16-.37,0-.5l-1.06-.61c-.36-.26-.38-.67-.33-1.09.08-.43.2-.7.42-1.08l1.01-1.75c.2-.35.38-.58.7-.84.33-.25.69-.44,1.1-.25l1.01.58c.22.12.36-.05.49-.23l1.6-2.77-6.24-3.61-1.61,2.78c-.12.18-.27.35-.49.22Z"/>
      <path class="cls-2" d="M15.56,29.55l5.71,3.29,1.44-2.49c.04-.06.04-.11.05-.12l-.99-.57c-.6-.43-.52-1.1-.49-1.39.09-.5.22-.79.45-1.19l1.01-1.75c.23-.41.44-.66.76-.93.25-.19.8-.59,1.44-.3l1.02.59s.03-.05.09-.12l1.44-2.49-5.71-3.29-1.45,2.5c-.36.55-.73.44-.91.34h0l-1-.58c-.27-.12-.64.04-1.06.51-.12.16-.22.3-.32.49l-1.02,1.76c-.1.18-.19.35-.27.55-.06.2-.09.34-.11.53-.02.36.03.53.22.65l1.04.6c.17.15.36.41.11.91l-1.45,2.51h0ZM21.38,33.57c-.05,0-.1,0-.16-.04l-6.24-3.6c-.07-.04-.12-.11-.14-.19-.03-.08-.02-.17.03-.23l1.6-2.76c.03-.06.04-.1.04-.12l-.99-.57c-.48-.33-.52-.78-.51-1.22.03-.27.07-.44.15-.69.09-.23.18-.42.32-.65l1.01-1.76c.13-.23.25-.39.4-.57.79-.87,1.42-.84,1.81-.65l1.02.58s.03-.04.09-.12l1.59-2.76c.08-.15.28-.19.42-.1l6.24,3.6c.07.04.12.11.14.19.03.08,0,.16-.03.23l-1.61,2.77c-.36.55-.72.44-.9.34l-1.01-.58c-.2-.09-.41-.04-.76.23-.25.22-.41.41-.61.76l-1.01,1.75c-.21.35-.31.59-.38.97-.05.43,0,.64.21.78l1.04.6c.21.17.36.43.12.9l-1.61,2.78c-.06.1-.17.16-.27.16Z"/>
      <path class="cls-3" d="M11.75,31.56c.35-.3.76-.57,1.23-.35l-6.24-3.61c-.56-.26-1.1.19-1.45.58-.16.2-.26.37-.38.57l-.97,1.68c-.09.15-.27.36-.46.24l-1.57-.9-1.59,10.28,6.25,3.6,1.58-10.28,1.6.93c.2.07.35-.1.44-.25l.97-1.69c.19-.32.34-.53.61-.8Z"/>
      <path class="cls-2" d="M9.89,34.03h0,0ZM.65,39.89l5.68,3.28,1.51-9.84c.02-.1.08-.18.17-.23.09-.05.2-.04.28,0l1.54.89s.04-.05.09-.12l.96-1.66c.19-.34.36-.58.65-.87t.02-.02c.09-.08.25-.22.45-.32l-5.42-3.14c-.27-.12-.63.05-1.07.53-.13.16-.23.32-.34.52l-.97,1.68c-.38.58-.77.41-.89.35l-1.18-.69-1.49,9.63h0ZM6.56,43.97c-.05,0-.11-.02-.16-.04L.16,40.31c-.11-.06-.17-.18-.15-.31l1.59-10.28c0-.1.08-.18.17-.23.09-.04.2-.04.29,0l1.55.89s.04-.06.09-.12l.96-1.67c.13-.22.24-.4.41-.61.8-.89,1.43-.85,1.83-.67l6.26,3.62c.15.08.19.26.12.41-.08.15-.25.21-.41.14-.24-.11-.5-.03-.89.3-.24.24-.37.43-.55.73l-.97,1.69c-.31.48-.64.44-.81.38l-1.26-.72-1.51,9.84c-.02.1-.08.18-.17.23-.04.03-.09.03-.13.03Z"/>
      <path class="cls-3" d="M22.98,11.35l-6.24-3.6c.16.13.08.35,0,.5l-.99,1.7c-.15.26-.24.47-.34.76-.12.48-.18,1.06.27,1.37l6.25,3.61c-.37-.26-.39-.66-.34-1.08.08-.43.19-.7.41-1.06l.98-1.7c.08-.16.16-.37,0-.51Z"/>
      <path class="cls-2" d="M17.06,8.29s-.03.07-.05.11l-.99,1.71c-.13.23-.23.43-.31.7-.18.7-.01.92.15,1.03l5.4,3.12c0-.16.01-.29.02-.37.09-.5.23-.8.45-1.18l.98-1.7c.04-.06.04-.1.05-.12l-5.7-3.3h0ZM21.93,16.01c-.05,0-.11-.02-.16-.04l-6.24-3.61c-.73-.5-.5-1.43-.42-1.72.11-.36.23-.58.38-.84l.98-1.7c.05-.1.05-.15.05-.15-.13-.1-.14-.27-.05-.4.1-.13.28-.15.42-.07l6.25,3.61s.03.02.04.03c.17.14.31.41.08.88l-1,1.72c-.19.33-.3.57-.37.96-.04.42.02.63.22.77.13.1.17.28.09.42-.06.1-.16.15-.26.15Z"/>
      <polygon class="cls-3" points="29.49 3.91 23.25 .31 15.14 6.83 21.38 10.42 29.49 3.91"/>
      <path class="cls-2" d="M15.68,6.78l5.68,3.28,7.6-6.1-5.67-3.28-7.6,6.1h0ZM21.38,10.74c-.05,0-.1-.02-.16-.04l-6.24-3.61c-.09-.05-.15-.14-.16-.24,0-.1.04-.2.12-.26L23.06.07c.09-.09.23-.1.35-.03l6.24,3.6c.09.05.15.15.15.24.01.1-.03.2-.11.27l-8.12,6.51c-.05.04-.12.07-.19.07Z"/>
      <polygon class="cls-3" points="14.12 18.19 7.88 14.58 6.83 13.97 13.07 17.58 14.12 18.19"/>
      <path class="cls-2" d="M14.12,18.5s-.1-.02-.15-.04l-7.3-4.22c-.15-.09-.19-.27-.11-.42.09-.15.28-.2.43-.11l7.29,4.21c.15.09.2.28.11.43-.05.1-.16.16-.27.16Z"/>
      <polygon class="cls-3" points="14.66 14.31 8.42 10.7 .31 13.55 6.56 17.16 14.66 14.31"/>
      <path class="cls-2" d="M1.05,13.62l5.54,3.2,7.35-2.58-5.55-3.2-7.34,2.58h0ZM6.56,17.47c-.05,0-.11-.02-.16-.04L.16,13.82c-.1-.06-.17-.17-.15-.3,0-.12.09-.22.21-.26l8.11-2.85c.09-.04.18-.03.25.02l6.25,3.61c.1.06.17.17.15.3,0,.12-.09.22-.2.26l-8.12,2.85s-.06.03-.09.03Z"/>
      <polygon class="cls-4" points="6.56 17.16 .31 13.55 1.9 22.01 8.14 25.61 6.56 17.16"/>
      <path class="cls-2" d="M2.17,21.81l5.54,3.2-1.43-7.65L.73,14.16l1.44,7.65h0ZM8.14,25.92c-.05,0-.11-.02-.16-.04l-6.24-3.61c-.08-.04-.13-.12-.15-.21L0,13.61c-.02-.12.03-.24.13-.3.09-.07.23-.08.33-.02l6.24,3.6c.08.05.14.12.16.22l1.58,8.45c.02.11-.03.23-.12.3-.06.04-.12.06-.18.06Z"/>
      <path class="cls-1" d="M10.18,22.58l1.05.61c.24.14.56.09.88-.09.45-.26.69-.62.98-1.12l.92-1.58c.28-.5.47-.88.47-1.42,0-.37-.12-.66-.37-.8l-1.05-.61c-.12-.07-.12-.3,0-.5l1.6-2.76-8.11,2.85,1.58,8.45,1.6-2.77c.12-.21.32-.32.44-.25Z"/>
      <path class="cls-2" d="M6.9,17.36l1.38,7.38,1.19-2.06c.12-.21.29-.36.49-.41.13-.03.26-.02.36.04l1.06.61c.13.08.34.04.56-.09.37-.22.59-.5.88-1l.91-1.59c.29-.5.43-.83.43-1.26,0-.26-.08-.45-.21-.53l-1.05-.61c-.28-.16-.33-.56-.12-.93l1.17-2.04-7.07,2.49h0ZM8.14,25.92s-.04,0-.05,0c-.13-.02-.22-.11-.25-.24l-1.58-8.45c-.03-.16.05-.3.2-.35l8.11-2.86c.12-.04.26,0,.34.09.09.1.09.24.03.35l-1.6,2.77c-.03.05-.04.1-.05.12l.99.56c.33.2.51.57.51,1.07,0,.62-.23,1.09-.51,1.57l-.91,1.58c-.28.49-.56.91-1.11,1.23-.42.24-.85.28-1.18.09l-.98-.57s-.06.05-.09.1l-1.6,2.77c-.06.1-.16.16-.27.16Z"/>
      <path class="cls-1" d="M25.87,13.53c.12-.22.32-.33.44-.26l1.6.93,1.58-10.28-8.11,6.51,1.6.92c.12.07.12.3,0,.51l-.98,1.7c-.27.47-.43.88-.43,1.35,0,.37.12.66.37.8l1.14.66c.24.14.56.1.87-.09.37-.22.66-.55.91-.98l1.02-1.76Z"/>
      <path class="cls-2" d="M25.87,13.53h0,0ZM21.93,10.39l1.21.7c.27.16.32.56.11.92l-.99,1.7c-.28.49-.39.83-.39,1.19,0,.26.08.46.21.53l1.14.66c.14.08.34.04.57-.09.3-.17.55-.45.79-.87l1.02-1.76c.12-.21.3-.36.49-.41.13-.03.26-.02.36.04l1.22.69,1.4-9.05-7.14,5.74h0ZM23.38,16.75c-.16,0-.33-.04-.47-.13l-1.14-.65c-.33-.19-.51-.57-.51-1.07,0-.59.23-1.07.47-1.49l.98-1.7c.04-.05.04-.09.05-.12l-1.54-.89c-.09-.05-.14-.14-.15-.24-.01-.11.03-.2.11-.26l8.11-6.52c.1-.08.24-.09.35-.03.11.07.17.19.15.31l-1.58,10.28c-.02.1-.08.19-.17.23-.09.05-.2.04-.29,0l-1.53-.89s-.06.05-.09.1h0l-1.02,1.76c-.3.52-.63.87-1.02,1.09-.24.14-.49.22-.71.22Z"/>
      <path class="cls-1" d="M11.06,32.53l-.88,1.52c-.12.21-.32.32-.44.25l-1.6-.93-1.58,10.28,8.11-6.51-1.6-.92c-.12-.07-.12-.29,0-.5l.9-1.55c.3-.54.52-.92.52-1.5,0-.37-.12-.67-.37-.81l-1.14-.65c-.24-.14-.56-.09-.87.09-.51.29-.74.69-1.05,1.23Z"/>
      <path class="cls-2" d="M11.06,32.53h0,0ZM8.37,33.87l-1.39,9.06,7.13-5.74-1.2-.7c-.28-.17-.33-.56-.12-.93l.89-1.55c.31-.53.49-.85.49-1.34,0-.27-.08-.46-.21-.54l-1.14-.66c-.14-.08-.35-.04-.57.09-.43.26-.64.62-.94,1.12h0l-.88,1.52c-.12.21-.3.36-.49.41-.12.03-.26.02-.36-.05l-1.22-.69h0ZM6.56,43.97c-.05,0-.11-.02-.16-.04-.11-.06-.17-.19-.15-.31l1.58-10.28c.02-.1.08-.18.17-.23.09-.05.2-.04.28,0l1.54.89s.05-.05.08-.1l.88-1.52c.31-.54.58-1,1.16-1.34.43-.24.85-.28,1.18-.09l1.14.66c.33.19.51.56.51,1.07,0,.67-.27,1.15-.56,1.64l-.89,1.56s-.04.09-.05.12l1.54.88c.09.05.14.15.15.24.01.11-.03.2-.11.27l-8.11,6.51c-.06.04-.12.07-.19.07Z"/>
      <path class="cls-1" d="M25.87,24.98l-1.05-.61c-.24-.14-.56-.1-.88.09-.43.25-.68.6-.96,1.09l-.94,1.63c-.29.5-.47.89-.47,1.41,0,.36.12.66.37.8l1.05.61c.12.07.12.3,0,.5l-1.6,2.77,8.11-2.86-1.58-8.45-1.6,2.77c-.12.21-.32.32-.44.25Z"/>
      <path class="cls-2" d="M24.49,24.6c-.11,0-.25.04-.4.13-.37.22-.59.52-.85.96l-.94,1.63c-.29.5-.43.82-.43,1.25,0,.26.08.46.21.54l1.06.61c.27.16.32.56.11.92l-1.18,2.04,7.07-2.49-1.38-7.37-1.19,2.05c-.08.15-.2.27-.33.35-.17.1-.37.1-.52.02l-1.06-.61s-.11-.04-.17-.04h0ZM21.38,33.57c-.09,0-.17-.03-.24-.11-.09-.09-.09-.23-.03-.35l1.6-2.76c.04-.05.04-.1.05-.12l-.99-.57c-.33-.19-.51-.57-.51-1.07,0-.63.24-1.1.51-1.57l.95-1.63c.3-.53.59-.91,1.08-1.19.42-.25.85-.28,1.18-.09l.98.57s.06-.05.09-.1l1.6-2.78c.07-.11.19-.17.32-.15.13.02.23.12.25.24l1.58,8.46c.04.15-.05.3-.2.35l-8.11,2.85s-.07.02-.1.02Z"/>
      <polygon class="cls-4" points="1.9 29.77 .31 40.06 6.56 43.65 8.14 33.37 1.9 29.77"/>
      <path class="cls-2" d="M.65,39.89l5.68,3.28,1.48-9.63-5.67-3.28-1.49,9.63h0ZM6.56,43.97c-.05,0-.11-.02-.16-.04L.16,40.31c-.11-.06-.17-.18-.15-.31l1.59-10.28c0-.1.08-.18.17-.23.09-.04.2-.04.29,0l6.25,3.61c.11.06.17.18.15.31l-1.58,10.28c-.02.1-.08.18-.17.23-.04.03-.09.03-.13.03Z"/>
      <path class="cls-2" d="M24.82,24.69c-.05,0-.11-.02-.16-.04l-5.24-3.03c-.15-.09-.2-.28-.11-.43.09-.15.27-.2.42-.11l5.25,3.03c.15.08.19.27.11.42-.06.1-.16.16-.27.16Z"/>
      <path class="cls-2" d="M21.92,29.69c-.05,0-.1,0-.15-.03l-5.19-3c-.15-.08-.2-.27-.11-.42.09-.15.28-.2.42-.11l5.19,2.99c.15.09.2.28.11.43-.06.1-.16.15-.27.15Z"/>
    </g>
  </g>
</svg>