<?xml version="1.0" encoding="UTF-8"?>
<svg id="Layer_2" data-name="Layer 2" xmlns="http://www.w3.org/2000/svg" viewBox="0 0 15.77 40.64" fill="currentColor">
  <defs>
    <style>
      .cls-1 {
        fill: #fff;
      }

      .cls-1, .cls-2, .cls-3, .cls-4 {
        fill-rule: evenodd;
      }

      .cls-2 {
        fill: #1a87c7;
      }

      .cls-3 {
        fill: #bdedf8;
      }

      .cls-4 {
        fill: #66ceef;
      }
    </style>
  </defs>
  <g id="_Layer_" data-name="&amp;lt;Layer&amp;gt;">
    <g>
      <path class="cls-3" d="M4.23,34.9c.24.12.39.17.65.21.75.06,1.34-.19,1.95-.57.5-.33.85-.66,1.26-1.1.58-.68,1-1.33,1.37-2.17.25-.6.52-1.41.58-2.11.02-.24,0-.69,0-.93v-8.4c0-.27.01-.44-.02-.73-.09-.76-.32-1.38-.98-1.8l2.5,1.45c1.12.71,1.01,1.86,1.01,2.95v8.3c0,.36,0,.65-.07,1.03-.12.71-.31,1.26-.61,1.92-.22.44-.43.82-.71,1.22-.4.56-.81,1.03-1.34,1.47-.69.54-1.39.94-2.29.93-.33-.03-.51-.07-.8-.23l-2.51-1.45h0ZM6.63,14.17c-1.29.82-2.01,1.48-3.01,2.62-.85,1.09-1.47,2.03-2.07,3.26-.54,1.2-.89,2.23-1.11,3.53-.11.69-.13,1.31-.13,1.99v8.8c.03,1.63.39,3.16,1.85,4.08l2.51,1.45c-1.47-.93-1.82-2.45-1.86-4.09v-8.94c0-.63.04-1.23.13-1.86.21-1.15.5-2.06.94-3.14.51-1.12,1.02-1.96,1.72-2.99,1.13-1.45,1.98-2.3,3.53-3.29,1.44-.79,2.93-1.24,4.47-.43l-2.51-1.45c-1.54-.8-3.03-.35-4.46.43h0Z"/>
      <path class="cls-2" d="M5.67,35.38l1.22.7c.24.12.38.16.68.19h0c.84,0,1.49-.42,2.06-.87.47-.4.87-.84,1.29-1.41.25-.38.47-.75.68-1.18.3-.66.47-1.19.58-1.84.06-.36.06-.64.06-.97v-8.58c0-1,.02-1.85-.86-2.41l-1.2-.69c.08.26.12.52.16.75.02.25.02.4.01.59v8.83c0,.24.02.52,0,.7-.07.85-.41,1.75-.6,2.21-.4.88-.83,1.55-1.43,2.25-.45.49-.83.83-1.32,1.15-.4.24-.83.47-1.33.57h0ZM7.55,36.88h-.02c-.41-.03-.63-.1-.95-.26l-2.52-1.45c-.15-.08-.2-.27-.11-.41.08-.15.26-.2.41-.13.22.11.33.14.57.18.64.05,1.15-.17,1.73-.52.44-.3.78-.59,1.2-1.04.56-.65.96-1.28,1.32-2.09.17-.42.49-1.26.55-2.01.02-.17,0-.42,0-.65v-.26s0-1.78,0-1.78v-6.62s0-.18,0-.18c0-.18,0-.31-.02-.53-.09-.78-.34-1.24-.84-1.56-.15-.09-.19-.28-.1-.42.09-.14.28-.19.42-.1l2.51,1.45c1.17.75,1.17,1.91,1.16,2.94v8.57c0,.34,0,.66-.07,1.07-.12.71-.3,1.29-.64,2-.23.47-.45.86-.73,1.27-.45.62-.89,1.1-1.4,1.54-.63.5-1.41,1.01-2.47,1.01h0ZM6.79,14.44c1.7-.93,2.94-1.06,4.15-.44l.78.45c-1.02.05-1.96.47-2.76.9-1.65,1.05-2.5,1.95-3.62,3.37-.77,1.12-1.26,1.97-1.75,3.04-.49,1.15-.77,2.08-.96,3.21-.09.63-.13,1.25-.13,1.9v8.94c.02.89.12,1.91.59,2.82l-.77-.45c-1.16-.73-1.67-1.88-1.71-3.82v-8.8c0-.73.04-1.33.13-1.94.21-1.21.53-2.21,1.08-3.45.56-1.14,1.15-2.07,2.02-3.19.95-1.07,1.63-1.72,2.94-2.56h0ZM4.68,40.23c-.05,0-.11-.01-.16-.04l-2.51-1.45c-1.72-1.09-1.97-2.89-2.01-4.35v-8.81c0-.76.04-1.39.14-2.04.23-1.27.55-2.32,1.14-3.61.58-1.19,1.19-2.16,2.1-3.32.98-1.11,1.71-1.82,3.09-2.69,0,0,0,0,.02-.01,1.27-.69,2.96-1.38,4.76-.44l2.52,1.46c.14.08.19.27.11.41-.08.15-.26.2-.41.13-1.22-.63-2.47-.51-4.18.43-1.55.99-2.38,1.86-3.43,3.21-.74,1.07-1.22,1.9-1.68,2.93-.46,1.1-.73,1.99-.92,3.06-.08.6-.12,1.19-.12,1.81v8.94c.04,1.92.57,3.11,1.71,3.83.14.09.18.28.09.42-.06.09-.16.15-.26.15Z"/>
      <path class="cls-1" d="M5.73,31.84v-4.64c0-1.13-.13-2.66.26-3.96.17-.58.43-1.17.74-1.71.32-.54.7-1.05,1.11-1.5.82-.88,1.77-1.42,2.6-1.5.42-.04.79.04,1.1.22,1.27.73,1.01,2.64,1.01,4.51v4.64c0,1.89.25,3.48-1.01,5.67-.31.55-.69,1.06-1.1,1.5-.83.88-1.77,1.42-2.6,1.5-.84.08-1.5-.31-1.85-1.07-.17-.37-.26-.82-.26-1.35v-2.31h0ZM11.55,14.78c-.75.07-1.55.35-2.42.84-1.74,1-3.32,2.74-4.46,4.72-.58,1.01-1.05,2.09-1.37,3.16-.23.79-.39,1.59-.45,2.35-.04.55-.04,1.12-.04,1.65v8.32c0,.99.18,1.83.48,2.51.64,1.42,1.89,2.13,3.43,1.98.74-.07,1.56-.34,2.41-.84.86-.49,1.67-1.16,2.42-1.94,1.54-1.63,2.78-3.78,3.43-5.93.6-2.03.48-3.61.48-5.38v-4.64c0-1.77.12-3.48-.48-4.82-.64-1.41-1.89-2.13-3.43-1.98h0Z"/>
      <path class="cls-2" d="M10.65,18.83c-.06,0-.12,0-.18,0-.76.07-1.63.59-2.4,1.4-.4.42-.75.91-1.07,1.44-.3.53-.55,1.09-.71,1.64-.3,1-.28,2.16-.26,3.17,0,.25.02.48.02.7v6.95c0,.47.07.88.23,1.22.3.64.84.96,1.54.89.75-.07,1.63-.58,2.41-1.4.39-.42.76-.91,1.06-1.44,1.03-1.79,1.01-3.13.97-4.69,0-.27,0-.55,0-.82v-4.64c0-.28,0-.56,0-.84.03-1.54.06-2.88-.85-3.41-.22-.12-.47-.18-.75-.18h0ZM7.62,36.89c-.86,0-1.55-.45-1.91-1.26-.19-.42-.29-.91-.29-1.48v-6.95c0-.21-.01-.45-.01-.69-.02-1.06-.05-2.27.28-3.36.18-.61.44-1.2.77-1.78.33-.57.71-1.1,1.15-1.55.89-.94,1.88-1.51,2.79-1.6.48-.04.92.05,1.29.26,1.23.71,1.2,2.29,1.17,3.95,0,.28-.01.55-.01.82v4.64c0,.28.01.55.01.81.03,1.58.06,3.07-1.05,5.01-.33.57-.72,1.1-1.15,1.56-.9.94-1.89,1.51-2.8,1.59-.08,0-.16.01-.24.01h0ZM11.55,14.78h.01-.01ZM11.95,15.07c1.24,0,2.21.63,2.74,1.82.49,1.08.48,2.45.46,3.91v6.19c.02,1.46.03,2.83-.47,4.52-.63,2.1-1.85,4.22-3.36,5.81-.75.79-1.53,1.42-2.34,1.89-.8.46-1.57.73-2.29.8-1.43.14-2.53-.5-3.12-1.8-.3-.66-.45-1.46-.45-2.38v-8.55c0-.46,0-.94.03-1.4.06-.73.21-1.5.44-2.29.31-1.05.77-2.09,1.34-3.09,1.17-2.02,2.72-3.66,4.35-4.61.8-.46,1.56-.73,2.29-.8h0c.13-.01.25-.02.37-.02h0ZM6.33,40.64c-1.48,0-2.68-.78-3.31-2.18-.34-.74-.51-1.63-.51-2.64v-8.55c0-.47,0-.96.04-1.45.06-.78.22-1.59.46-2.42.32-1.1.8-2.18,1.4-3.23,1.22-2.11,2.85-3.83,4.58-4.83.87-.51,1.72-.8,2.53-.88,1.69-.16,3.04.62,3.74,2.16.55,1.21.53,2.65.51,4.17v6.18c.02,1.5.04,2.92-.5,4.7-.65,2.19-1.93,4.4-3.5,6.06-.78.83-1.62,1.5-2.48,2-.87.51-1.72.8-2.54.88-.14.01-.29.02-.42.02Z"/>
      <path class="cls-3" d="M3.22,17.31c.77-.99,1.5-1.77,2.51-2.53v-8c0-.98.09-1.91,1-2.49l-2.5,1.45c-.9.57-1.01,1.48-1.01,2.44v6.71c0,.8-.02,1.62,0,2.42h0ZM11.54,21.89c-1.44.76-3.06-.52-3.96-1.57-.31.37-.6.78-.85,1.21-.23.4-.42.83-.58,1.26.48.35.9.58,1.48.73.54.1.91.08,1.42-.17l2.5-1.45h0ZM9.78,1.58c1.48,1.12,2.31,2.05,3.37,3.58.89,1.46,1.47,2.62,1.93,4.27.28,1.1.37,1.92.37,3.08v8.86c-.03,1.64-.39,3.16-1.85,4.08l-2.51,1.45c1.47-.93,1.82-2.45,1.86-4.08v-8.84c0-.4-.02-.79-.04-1.2-.11-1.13-.34-2.02-.71-3.09-.44-1.17-.9-2.01-1.54-3.08-1.06-1.53-1.89-2.45-3.37-3.58-1.58-1.01-3.29-1.79-5.11-.85l2.51-1.45c1.81-.95,3.52-.16,5.1.85h0Z"/>
      <path class="cls-2" d="M5.59,5.31l-1.22.7c-.7.45-.84,1.14-.84,2.17v7.56c0,.24,0,.48,0,.72.62-.73,1.21-1.3,1.9-1.83v-7.84c0-.5.02-1,.16-1.47h0ZM3.22,17.62s-.06,0-.09-.02c-.12-.04-.21-.15-.21-.29-.02-.53,0-1.06,0-1.59v-7.55c0-.96.09-2.03,1.16-2.7l2.52-1.45c.14-.08.33-.04.42.11.09.14.04.33-.11.42-.72.46-.85,1.13-.85,2.23v8c0,.09-.05.19-.13.24-.89.68-1.61,1.4-2.45,2.48-.06.08-.15.12-.24.12h0ZM6.52,22.67c.4.27.75.43,1.17.54.51.09.8.06,1.21-.14l1.19-.69c-1.06-.22-1.99-1.05-2.49-1.58-.22.28-.42.58-.6.89-.18.32-.35.65-.48.99h0ZM8.15,23.87c-.19,0-.38-.02-.59-.06-.59-.15-1.05-.37-1.6-.78-.11-.08-.16-.23-.11-.36.17-.44.37-.88.62-1.3.26-.45.56-.87.88-1.25.06-.07.15-.11.23-.11h0c.1,0,.18.04.24.1.47.55,2.12,2.27,3.59,1.5.14-.08.33-.02.41.12.08.15.03.33-.11.42l-2.51,1.45c-.38.2-.71.27-1.03.27h0ZM4.04,1.45l.78-.45c1.69-.88,3.3-.12,4.79.83,1.38,1.04,2.18,1.89,3.28,3.48.82,1.33,1.42,2.49,1.89,4.19.27,1.09.37,1.88.37,3.01v8.85c-.04,1.93-.57,3.11-1.7,3.83l-.78.45c.47-.91.57-1.93.59-2.82v-8.84c0-.41-.01-.8-.04-1.23-.1-1.09-.32-2.01-.73-3.17-.48-1.25-.96-2.13-1.58-3.15-1-1.43-1.84-2.44-3.46-3.66-1.02-.65-2.18-1.25-3.41-1.31h0ZM11.09,27.21c-.11,0-.2-.05-.26-.15-.09-.14-.04-.33.1-.42,1.15-.72,1.67-1.91,1.71-3.83v-8.84c0-.4,0-.78-.03-1.18-.11-1.03-.31-1.91-.7-3.01-.46-1.2-.93-2.05-1.53-3.03-1.11-1.6-1.91-2.45-3.3-3.49-1.48-.94-3.1-1.7-4.78-.82-.15.08-.33.02-.41-.13-.08-.15-.03-.33.11-.41L4.52.46c1.98-1.03,3.85-.15,5.43.85,0,0,0,.01.02.02,1.43,1.08,2.29,2,3.43,3.65.85,1.38,1.48,2.59,1.97,4.36.29,1.14.39,1.99.39,3.17v8.86c-.03,1.46-.29,3.26-2,4.35l-2.52,1.45s-.1.04-.16.04Z"/>
      <path class="cls-4" d="M4.22,1.77c.75.07,1.56.35,2.42.84,1.74,1,3.32,2.74,4.46,4.72.58,1.01,1.05,2.08,1.37,3.16.3,1.03.48,2.05.48,3.03,0,.03,0,.07,0,.1v9.2c0,.98-.17,1.83-.48,2.5-.32.71-.8,1.24-1.38,1.58h0c-.58.33-1.28.48-2.05.4-.74-.07-1.56-.34-2.41-.84-.3-.18-.61-.37-.9-.59v-.98c0-.53.09-1.09.26-1.65.04-.15.1-.3.15-.45.15.11.3.22.47.31l.03.02c.45.26.9.41,1.29.45.42.04.79-.04,1.1-.22h.01c.31-.18.57-.47.74-.85.17-.36.26-.82.26-1.35v-9.26c0-.53-.09-1.09-.26-1.65-.17-.58-.43-1.17-.74-1.71-.32-.54-.7-1.05-1.11-1.49-.4-.42-.83-.79-1.29-1.05h0c-.45-.26-.9-.41-1.3-.45-.42-.04-.79.04-1.1.22-.31.18-.56.46-.74.82v.02c-.17.36-.27.81-.27,1.33h0v9.4l-.11.15-.49.7-.45.73-.21.38-.21.39-.19.39-.12.27c-.25-.57-.47-1.15-.64-1.73-.3-1.02-.47-2.05-.48-3.03V6.27c0-.99.17-1.83.48-2.51.32-.71.79-1.24,1.38-1.57h0c.58-.34,1.28-.48,2.05-.41Z"/>
      <path class="cls-2" d="M6.03,25.72c.25.18.5.34.75.48.8.46,1.57.73,2.29.8.71.07,1.34-.05,1.88-.36.01,0,.02,0,.03-.02.52-.31.93-.79,1.22-1.42.3-.66.45-1.46.45-2.38v-9.2s0-.07,0-.12c0-.91-.16-1.9-.47-2.92-.31-1.05-.76-2.09-1.34-3.09-1.17-2.03-2.72-3.66-4.35-4.61-.8-.46-1.56-.73-2.28-.8h0c-.7-.07-1.31.05-1.85.35,0,0,0,.01-.02.01-.54.31-.95.79-1.24,1.44-.3.66-.45,1.47-.45,2.39,0,.02-.01.09-.02.11v9.07s.02.09.02.09c0,.94.15,1.94.46,2.96.11.35.23.71.36,1.06l.45-.82.46-.74.55-.79s0-.09,0-.11V7.92c0-.55.1-1.04.29-1.46.22-.45.51-.77.87-.99.37-.21.81-.3,1.29-.26.45.04.92.2,1.4.48.02,0,.03.01.03.02.46.26.92.64,1.35,1.09.43.46.82.98,1.15,1.55.33.57.59,1.17.77,1.77.18.61.28,1.19.28,1.74,0,0,0,.08,0,.09v9.17c0,.56-.1,1.06-.29,1.48-.2.43-.5.77-.87.99,0,0-.02.01-.03.02-.37.2-.79.29-1.25.24-.46-.04-.94-.21-1.43-.49-.06-.04-.12-.07-.17-.11-.01.02-.01.04-.02.06-.17.55-.25,1.08-.25,1.56v.83h0ZM9.45,27.64c-.15,0-.29-.01-.43-.02-.81-.08-1.67-.37-2.54-.88-.31-.18-.63-.38-.93-.61-.08-.06-.12-.15-.12-.25v-.92c-.01-.61.09-1.19.27-1.8.04-.16.09-.31.15-.47.04-.09.11-.16.2-.19.1-.03.2,0,.28.05.14.1.28.2.42.29.43.25.84.39,1.2.42.36.03.66-.03.93-.18,0,0,.02-.01.03-.01.25-.15.44-.39.59-.7.15-.34.23-.75.23-1.22v-9.2c0-.55-.09-1.07-.25-1.62-.16-.56-.41-1.11-.71-1.65-.3-.53-.66-1.01-1.07-1.44-.39-.42-.8-.75-1.23-1-.41-.24-.81-.37-1.17-.41-.36-.03-.66.03-.93.18-.25.15-.46.38-.61.69-.17.36-.24.76-.24,1.22,0,.02,0,.07,0,.08v9.31c0,.07-.02.14-.07.2l-.11.14-.48.69-.84,1.46-.3.64c-.05.11-.17.18-.29.18h0c-.12,0-.23-.07-.28-.18-.26-.58-.48-1.18-.66-1.77C.18,17.6.01,16.55.01,15.55c0-.01-.01-.09-.01-.1V6.32c.01-1.07.18-1.95.51-2.7.34-.74.84-1.33,1.47-1.7,0,0,.02-.01.03-.02.65-.37,1.41-.53,2.24-.44.81.08,1.66.38,2.53.88,1.73,1,3.36,2.71,4.58,4.83.61,1.05,1.08,2.13,1.4,3.22.32,1.09.49,2.14.49,3.12.01.02.01.08.01.1v9.2c0,1.01-.18,1.89-.51,2.63-.35.77-.85,1.34-1.5,1.72,0,0-.03.01-.03.02-.53.3-1.12.45-1.76.45Z"/>
    </g>
  </g>
</svg>