<?xml version="1.0" encoding="UTF-8"?>
<svg id="Layer_2" data-name="Layer 2" xmlns="http://www.w3.org/2000/svg" viewBox="0 0 35.58 41.15" fill="currentColor">
  <defs>
    <style>
      .cls-1 {
        fill: #fff;
      }

      .cls-1, .cls-2, .cls-3, .cls-4 {
        fill-rule: evenodd;
      }

      .cls-2 {
        fill: #1a87c7;
      }

      .cls-3, .cls-5 {
        fill: #bdedf8;
      }

      .cls-4 {
        fill: #66ceef;
      }
    </style>
  </defs>
  <g id="_Layer_" data-name="&amp;lt;Layer&amp;gt;">
    <g>
      <path class="cls-4" d="M20.7,8.63v1.22c-.02.24-.12.43-.33.56l6.25,3.61c.23-.17.32-.37.32-.66v-1.22c0-.41-.01-.75-.39-1.01l-6.24-3.61c.12.08.15.11.23.22.12.22.15.35.16.59v.3Z"/>
      <path class="cls-2" d="M20.85,10.34l5.71,3.29c.05-.07.07-.16.07-.28v-1.22c0-.42-.03-.59-.26-.76l-5.37-3.09v1.56c0,.19-.06.36-.15.5h0ZM26.61,14.33c-.06,0-.11-.02-.16-.04l-6.24-3.61c-.1-.05-.16-.15-.16-.25-.01-.1.04-.21.13-.27.13-.09.18-.18.2-.34v-1.5c-.02-.19-.04-.27-.13-.44-.03-.04-.04-.06-.13-.11-.14-.1-.18-.28-.09-.42.09-.15.27-.19.41-.1l6.25,3.6c.55.37.55.88.55,1.28v1.22c0,.41-.15.7-.46.91-.05.03-.11.06-.17.06Z"/>
      <path class="cls-4" d="M10.14,14.65l-6.24-3.61h0c-.24.44-.37.79-.38,1.3v2.88c.02.37.07.64.38.85l6.24,3.6c-.31-.22-.36-.48-.38-.84v-2.89c.03-.51.15-.85.38-1.29h0Z"/>
      <path class="cls-2" d="M4.03,11.48c-.12.27-.19.52-.21.87v2.88c.02.34.07.47.25.6l5.38,3.1v-2.98c.02-.49.12-.83.29-1.17l-5.71-3.3h0ZM10.14,19.99c-.05,0-.1-.02-.15-.04l-6.25-3.61c-.46-.32-.52-.74-.54-1.09v-2.9c.03-.6.18-.99.42-1.44.04-.07.1-.12.18-.15.09-.02.18,0,.24.03l6.24,3.61c.14.09.19.26.12.41h0c-.24.45-.33.75-.35,1.16v2.88c0,.34.07.47.25.59.13.1.17.28.08.42-.06.09-.16.15-.26.15Z"/>
      <path class="cls-3" d="M20.5,1.02L4.83,10.07c-.43.27-.67.55-.93.97l6.24,3.61c.27-.43.51-.7.93-.98l15.67-9.05c1.13-.62,2.26-.98,3.51-.45l.18.1-6.25-3.61c-1.27-.67-2.5-.29-3.69.36Z"/>
      <path class="cls-2" d="M4.34,10.94l5.71,3.29c.22-.31.47-.57.86-.83l15.69-9.05c.63-.35,1.33-.67,2.1-.74l-4.66-2.69c-.98-.51-1.99-.4-3.39.36L4.98,10.33c-.29.18-.47.37-.64.61h0ZM10.14,14.96c-.05,0-.1,0-.15-.03l-6.25-3.61c-.07-.04-.12-.11-.14-.19-.03-.08-.01-.17.03-.23.26-.43.53-.76,1.02-1.08L20.35.76s0,0,0,0c1.06-.58,2.48-1.15,3.98-.36l6.25,3.61c.15.09.2.27.12.42-.09.15-.27.2-.42.12l-.18-.1c-.95-.4-1.89-.27-3.22.45l-15.66,9.05c-.39.24-.59.5-.82.87-.06.09-.16.15-.27.15Z"/>
      <polygon class="cls-3" points="26.61 14.02 20.37 10.41 17.5 12.07 23.74 15.68 26.61 14.02"/>
      <path class="cls-2" d="M18.11,12.07l5.63,3.25,2.26-1.3-5.63-3.25-2.25,1.3h0ZM23.74,15.98c-.05,0-.11,0-.16-.03l-6.24-3.61c-.09-.05-.15-.16-.15-.27,0-.1.06-.21.15-.26l2.88-1.66c.08-.06.21-.06.3,0l6.24,3.61c.09.05.15.15.15.26s-.06.22-.15.27l-2.87,1.66c-.05.03-.11.03-.16.03Z"/>
      <polygon class="cls-4" points="23.74 15.68 17.5 12.07 23.26 18.63 29.51 22.24 23.74 15.68"/>
      <path class="cls-2" d="M23.46,18.4l4.58,2.64-4.5-5.12-4.58-2.64,4.5,5.12h0ZM29.51,22.54c-.05,0-.11,0-.16-.03l-6.24-3.61s-.06-.03-.08-.06l-5.77-6.56c-.09-.11-.1-.29,0-.4.1-.12.27-.15.39-.07l6.25,3.6s.05.04.08.07l5.76,6.55c.1.12.1.29,0,.4-.06.08-.15.11-.23.11Z"/>
      <polygon class="cls-3" points="35.27 9.02 29.03 5.41 26.14 7.08 32.38 10.68 35.27 9.02"/>
      <path class="cls-2" d="M26.76,7.08l5.62,3.24,2.27-1.3-5.62-3.25-2.27,1.31h0ZM32.38,10.99c-.05,0-.1-.02-.15-.04l-6.25-3.61c-.09-.05-.15-.16-.15-.26,0-.11.05-.22.15-.27l2.88-1.67c.1-.05.21-.05.31,0l6.25,3.61c.09.06.15.16.15.27s-.05.21-.15.27l-2.89,1.66s-.1.04-.16.04Z"/>
      <polygon class="cls-3" points="32.38 10.68 26.14 7.08 26.07 7.11 26.01 7.13 25.96 7.12 25.91 7.1 32.16 10.71 32.2 10.72 32.26 10.72 32.32 10.71 32.38 10.68"/>
      <path class="cls-2" d="M32.26,11.04s-.13,0-.17-.03c-.02,0-.08-.03-.09-.03l-6.24-3.61c-.14-.08-.2-.25-.13-.4.07-.15.24-.21.39-.16.09-.04.19-.05.28,0l6.24,3.61c.11.05.16.16.16.28,0,.11-.08.22-.18.27l-.07.02s-.09.03-.12.04c-.02,0-.04,0-.06,0Z"/>
      <path class="cls-3" d="M9.04,30.03l6.24,3.61c.39.18.72.05,1.07-.15l14.4-8.32c.32-.16.58-.25.92-.09l-6.24-3.61c-.34-.17-.6-.08-.93.09l-14.27,8.25c-.38.22-.74.43-1.19.22Z"/>
      <path class="cls-2" d="M10.05,30.25l5.39,3.11c.2.1.4.06.75-.15l14.4-8.32s.06-.03.09-.04l-5.41-3.11c-.17-.09-.31-.07-.63.1l-14.26,8.23c-.11.07-.23.13-.34.18h0ZM15.65,34.03c-.16,0-.33-.04-.51-.11l-6.27-3.62c-.14-.09-.2-.26-.12-.41.08-.15.26-.21.4-.14.29.13.51.03.89-.2l14.3-8.25c.33-.17.72-.34,1.21-.1l6.27,3.62c.15.08.2.26.12.41-.08.15-.26.21-.41.14-.2-.1-.34-.08-.65.09l-14.39,8.31c-.25.15-.53.27-.84.27Z"/>
      <polygon class="cls-3" points="9.67 34.05 3.42 30.45 3.46 30.48 3.49 30.52 3.51 30.58 3.52 30.66 9.76 34.26 9.75 34.19 9.73 34.13 9.71 34.09 9.67 34.05"/>
      <path class="cls-2" d="M9.72,34.56s-.08,0-.11-.03l-6.24-3.61c-.09-.04-.14-.14-.15-.23-.13-.11-.15-.29-.05-.42.09-.13.28-.17.41-.09l6.25,3.6s.03.02.04.03l.04.03s.04.04.06.07c.02.03.06.1.07.13.01.02.03.1.04.12,0,.11-.04.26-.14.32-.06.04-.14.07-.21.07Z"/>
      <rect class="cls-5" x="6.64" y="31.66" height="7.21" transform="translate(-27.21 23.36) rotate(-59.97)"/>
      <path class="cls-2" d="M9.76,37.37h0s-.09,0-.12-.03h0s-.02,0-.02-.02l-6.24-3.6c-.15-.09-.2-.28-.11-.43.09-.15.28-.19.42-.11h0l6.24,3.61c.15.09.2.27.11.42-.06.1-.17.16-.27.16Z"/>
      <path class="cls-4" d="M3.52,33.46c.07,1.37.4,2.65,1.63,3.42l6.24,3.61c-1.23-.77-1.56-2.05-1.63-3.42v-2.81l-6.24-3.6v2.8Z"/>
      <path class="cls-2" d="M3.82,33.45c.09,1.6.54,2.58,1.49,3.17l4.62,2.67c-.35-.72-.45-1.51-.48-2.21v-2.64l-5.63-3.25v2.26h0ZM11.39,40.8c-.05,0-.11,0-.15-.04l-6.25-3.6c-1.46-.92-1.71-2.45-1.78-3.68v-2.82c0-.11.06-.22.16-.27.09-.05.22-.05.31,0l6.24,3.61c.1.05.16.16.16.26v2.81c.08,1.58.54,2.56,1.48,3.16.15.09.19.28.1.42-.06.1-.16.15-.27.15Z"/>
      <polygon class="cls-3" points="12.32 22.52 6.08 18.91 .31 32.13 6.55 35.74 12.32 22.52"/>
      <path class="cls-2" d="M.7,32l5.7,3.3,5.52-12.66-5.71-3.3L.7,32h0ZM6.55,36.04c-.05,0-.11,0-.15-.03L.16,32.4c-.14-.08-.19-.24-.13-.39l5.76-13.22c.03-.08.11-.14.19-.17.09-.03.18-.02.25.03l6.24,3.6c.13.08.19.25.13.39l-5.77,13.22c-.04.08-.1.14-.18.17-.04,0-.07,0-.1,0Z"/>
      <path class="cls-1" d="M11.39,40.49c.95.55,2.24.48,3.69-.36l15.67-9.05c.72-.42,1.31-1.44,1.31-2.28v-2.89c0-.42-.15-.71-.39-.84-.24-.14-.57-.12-.92.09l-14.36,8.29c-.43.24-.78.36-1.11.17-.32-.18-.4-.5-.4-.97v-1.36c0-.21.15-.46.33-.56l2.88-1.66-5.77-6.56-5.76,13.22,2.88-1.66c.18-.1.33-.03.33.18v2.81c.05,1.67.66,2.87,1.63,3.42Z"/>
      <path class="cls-2" d="M9.58,33.72c.09,0,.16.02.24.06.16.1.25.27.25.48v2.81c.04,1.51.56,2.63,1.47,3.15h0c.89.51,2.09.39,3.38-.36l15.67-9.05c.63-.36,1.16-1.28,1.16-2.01v-2.89c0-.29-.08-.5-.23-.58-.15-.09-.37-.05-.62.1l-14.36,8.28c-.43.25-.93.46-1.43.18-.48-.28-.55-.78-.55-1.24v-1.36c0-.31.21-.68.49-.83l2.55-1.47-5.21-5.92-5.2,11.92,2.08-1.19c.09-.06.2-.09.3-.09h0ZM12.76,41.15c-.55,0-1.07-.13-1.52-.4-1.1-.63-1.73-1.94-1.78-3.68v-2.66l-2.75,1.59c-.11.06-.26.05-.36-.04-.1-.09-.13-.23-.08-.35l5.77-13.22c.04-.1.13-.17.23-.18.1,0,.21.02.28.1l5.76,6.56c.06.07.09.17.08.26-.02.09-.07.16-.16.22l-2.87,1.65c-.09.05-.17.21-.17.3v1.36c0,.48.09.62.23.7.17.09.36.1.81-.17l14.36-8.29c.45-.25.89-.29,1.24-.09.35.2.54.61.54,1.11v2.89c0,.95-.64,2.07-1.46,2.54l-15.68,9.05c-.86.5-1.7.76-2.47.76Z"/>
      <path class="cls-1" d="M26.74,4.62l-15.67,9.05c-.72.42-1.31,1.43-1.31,2.28v2.89c0,.42.15.71.38.84.24.14.57.12.93-.09l14.23-8.21c.48-.28.84-.48,1.24-.25.35.2.39.54.39,1.03v1.3c0,.21-.15.46-.32.56l-2.88,1.66,5.77,6.56,5.76-13.22-2.89,1.66c-.17.1-.32.02-.32-.18,0-1.11.08-2.49-.06-3.5-.38-2.82-2.55-3.94-5.26-2.37Z"/>
      <path class="cls-2" d="M26.74,4.62h0,0ZM24.21,15.76l5.2,5.92,5.2-11.92-2.07,1.2c-.18.1-.38.11-.54.03-.16-.09-.25-.27-.25-.48,0-.3,0-.62.01-.94.01-.88.03-1.8-.07-2.53-.17-1.25-.72-2.16-1.55-2.57-.88-.43-2.03-.27-3.25.43h0l-15.67,9.05c-.63.37-1.16,1.28-1.16,2.01v2.89c0,.29.08.5.23.58.15.08.37.05.62-.1l14.23-8.21c.45-.27.98-.56,1.54-.25.51.29.55.8.55,1.3v1.3c0,.31-.21.68-.48.83l-2.55,1.47h0ZM29.51,22.54c-.09,0-.17-.03-.24-.11l-5.77-6.56c-.06-.07-.09-.16-.07-.25.02-.09.07-.16.15-.22l2.88-1.65c.09-.05.18-.21.18-.3v-1.3c0-.49-.05-.65-.24-.76-.24-.13-.47-.03-.94.24l-14.23,8.22c-.45.25-.89.29-1.23.09-.35-.2-.54-.61-.54-1.11v-2.89c0-.96.64-2.07,1.46-2.54l15.68-9.05c1.4-.82,2.76-.97,3.82-.45,1.02.5,1.69,1.57,1.89,3.04.1.77.09,1.71.07,2.63,0,.26-.01.51-.01.76l2.75-1.59c.12-.07.26-.05.37.03.09.1.13.23.07.36l-5.76,13.22c-.05.1-.13.17-.24.18h-.04Z"/>
    </g>
  </g>
</svg>