<?xml version="1.0" encoding="UTF-8"?>
<svg id="Layer_2" data-name="Layer 2" xmlns="http://www.w3.org/2000/svg" viewBox="0 0 92.88 95.1" fill="currentColor">
  <defs>
    <style>
      .cls-1 {
        fill: #fff;
      }

      .cls-1, .cls-2, .cls-3, .cls-4 {
        fill-rule: evenodd;
      }

      .cls-2 {
        fill: #1a87c7;
      }

      .cls-3 {
        fill: #bdedf8;
      }

      .cls-4 {
        fill: #66ceef;
      }
    </style>
  </defs>
  <g id="_Layer_" data-name="&amp;lt;Layer&amp;gt;">
    <g>
      <path class="cls-4" d="M92.1,65.18v2.54c-.04.25-.3.61-.49.79-.17.17-.36.31-.57.43l-42.91,24.77c-1.49.85-3.8.85-5.31,0L3.14,70.78c-.42-.26-.85-.62-1.02-1.12l-.02-.1v-2.55c.15.57.55.92,1.04,1.22l39.67,22.93c1.51.84,3.83.85,5.31,0l42.91-24.76c.51-.3.89-.65,1.06-1.22Z"/>
      <path class="cls-2" d="M2.85,69.44c.1.28.34.49.68.7l39.67,22.93c1.27.72,3.29.72,4.57,0l42.88-24.76c.19-.1.32-.21.42-.31.13-.12.26-.31.28-.38v-.51l-42.84,24.73c-1.72.97-4.33.98-6.05,0L2.85,68.93v.51h0ZM45.47,95.1c-1.06,0-2.15-.24-3.02-.73L2.77,71.43c-.7-.42-1.15-.94-1.36-1.53-.02-.08-.06-.26-.06-.34v-2.55c0-.38.28-.69.66-.75.36-.04.72.18.83.54.09.3.3.53.7.78l39.67,22.92c1.27.72,3.29.72,4.57,0l42.88-24.76c.42-.24.63-.47.72-.78.1-.36.47-.58.83-.53.36.05.64.36.64.74v2.54c-.09.72-.64,1.27-.7,1.33-.19.19-.42.37-.72.54l-42.9,24.77c-.87.49-1.95.73-3.04.73Z"/>
      <path class="cls-3" d="M3.14,65.17l42.9-24.77c1.47-.85,3.85-.84,5.32,0l39.67,22.93c1.46.85,1.46,2.23,0,3.07l-42.91,24.77c-1.44.84-3.84.84-5.31,0L3.14,68.24c-1.44-.85-1.44-2.22,0-3.07Z"/>
      <path class="cls-2" d="M3.14,65.17h.03-.03ZM48.7,40.52c-.83,0-1.66.17-2.27.53L3.53,65.82c-.45.26-.72.58-.72.88s.28.62.72.88l39.67,22.93c1.23.72,3.34.72,4.57,0l42.88-24.77c.47-.26.72-.59.72-.88s-.26-.62-.72-.88l-39.67-22.93c-.61-.36-1.44-.53-2.27-.53h0ZM45.5,92.56c-1.11,0-2.19-.24-3.04-.74L2.77,68.89c-.92-.54-1.47-1.34-1.47-2.18s.55-1.65,1.49-2.19l42.88-24.77c1.7-.98,4.38-.98,6.08,0l39.67,22.93c.93.54,1.47,1.34,1.47,2.19s-.53,1.64-1.47,2.18l-42.9,24.77c-.85.49-1.93.74-3.02.74Z"/>
      <path class="cls-1" d="M40.2,82.16v1.92c.94,4.49,12.11,4.59,13.07,0v-1.93c-.95,4.55-11.96,4.44-13.02.18l-.05-.18Z"/>
      <path class="cls-2" d="M41.41,84.97c1,1.17,3.29,1.76,5.35,1.76,1.95,0,4.14-.55,5.19-1.7-1.4.86-3.3,1.24-4.93,1.27-1.93.03-4.13-.37-5.61-1.32h0ZM46.77,88.23c-3.21,0-6.74-1.24-7.31-4v-2.07c0-.39.28-.71.66-.76.38-.03.74.22.83.6l.02.18c.45,1.77,3.36,2.66,6.02,2.61,2.48-.05,5.16-.93,5.54-2.79.08-.38.4-.63.81-.6.38.05.69.37.69.75v1.93c-.6,2.92-4.06,4.16-7.25,4.16Z"/>
      <path class="cls-1" d="M51.38,79.11c-2.57-1.48-6.71-1.48-9.29,0-2.57,1.47-2.57,3.88,0,5.36,2.55,1.48,6.72,1.48,9.29,0,2.55-1.48,2.55-3.88,0-5.36Z"/>
      <path class="cls-2" d="M46.73,78.76c-1.55,0-3.11.33-4.25,1-1,.58-1.55,1.29-1.55,2.03s.55,1.45,1.55,2.02c2.29,1.33,6.21,1.33,8.52,0,.99-.58,1.55-1.29,1.55-2.02-.03-.74-.56-1.45-1.55-2.03h0c-1.17-.67-2.72-1-4.27-1h0ZM46.73,86.34c-1.81,0-3.61-.41-5.01-1.22-1.47-.85-2.3-2.04-2.3-3.32s.83-2.47,2.3-3.33c2.83-1.63,7.22-1.63,10.03,0h0c1.49.86,2.29,2.04,2.29,3.33s-.81,2.47-2.29,3.32c-1.41.81-3.22,1.22-5.02,1.22Z"/>
      <path class="cls-1" d="M51.32,58.81v22.42l-.02.13c-.77,3.02-8.42,3.02-9.18,0l-.03-.13v-22.42c.03.09.04.16.06.25.11.32.32.62.55.85.6.58,1.47.94,2.25,1.12,1.53.36,3.45.24,4.85-.49.44-.24.89-.56,1.19-.99.12-.18.23-.4.3-.62l.02-.12Z"/>
      <path class="cls-2" d="M42.84,60.97v20.27c.26.93,1.87,1.64,3.87,1.64h0c2,0,3.61-.71,3.87-1.69v-20.21c-.15.1-.29.17-.42.24-1.47.78-3.53.99-5.35.56-.47-.11-1.24-.34-1.96-.79h0ZM46.71,84.39h0c-2.12,0-4.8-.74-5.31-2.84-.03-.06-.06-.25-.06-.31v-22.42c0-.39.29-.71.68-.76.42-.04.74.22.83.6.09.35.24.54.41.72.4.4,1.1.74,1.89.92,1.47.35,3.16.18,4.33-.43.41-.21.72-.47.92-.74.08-.12.15-.26.19-.38.08-.37.4-.69.83-.62.38.04.69.3.69.68v22.42c0,.05-.04.22-.04.27-.53,2.13-3.21,2.88-5.34,2.88Z"/>
      <path class="cls-2" d="M49.09,81.43c-.43,0-.76-.34-.76-.76v-17.32c0-.42.33-.76.76-.76.4,0,.74.34.74.76v17.32c0,.42-.34.76-.74.76Z"/>
      <path class="cls-2" d="M46.73,82.08c-.41,0-.75-.34-.75-.76v-16.84c0-.42.34-.76.75-.76s.76.34.76.76v16.84c0,.42-.34.76-.76.76Z"/>
      <path class="cls-2" d="M44.39,81.57c-.4,0-.74-.34-.74-.76v-14.77c0-.42.35-.75.74-.75.43,0,.77.33.77.75v14.77c0,.42-.34.76-.77.76Z"/>
      <path class="cls-1" d="M70.76,63.84v1.93c.94,4.49,12.11,4.58,13.07,0v-1.93c-.94,4.54-11.96,4.44-13.03.18l-.04-.18Z"/>
      <path class="cls-2" d="M71.97,66.66c1,1.17,3.31,1.76,5.37,1.76h0c1.95,0,4.12-.54,5.19-1.7-1.43.87-3.3,1.24-4.95,1.28-2.06.03-4.11-.38-5.61-1.33h0ZM77.35,69.92c-3.23,0-6.73-1.24-7.31-4l-.02-2.07c0-.38.29-.71.68-.75.38-.03.72.22.81.6l.04.18c.45,1.77,3.4,2.69,6.01,2.61,2.47-.04,5.14-.93,5.53-2.79.08-.38.4-.65.83-.6.38.04.66.37.66.75v1.93c-.58,2.91-4.03,4.15-7.22,4.15h0Z"/>
      <path class="cls-1" d="M81.94,60.8c-2.58-1.48-6.72-1.48-9.27,0-2.57,1.48-2.57,3.88-.02,5.35,2.57,1.48,6.71,1.48,9.29,0,2.57-1.48,2.57-3.88,0-5.35Z"/>
      <path class="cls-2" d="M77.31,60.45c-1.56,0-3.11.33-4.27,1-1,.58-1.53,1.29-1.55,2.02,0,.73.55,1.45,1.55,2.03,2.31,1.33,6.23,1.33,8.52,0,1-.58,1.55-1.3,1.55-2.03s-.55-1.45-1.55-2.02h0c-1.15-.67-2.7-1-4.25-1h0ZM77.31,68.02c-1.81,0-3.62-.4-5.02-1.22-1.49-.86-2.29-2.04-2.29-3.33s.81-2.47,2.29-3.33c2.81-1.62,7.21-1.63,10.03,0h0c1.47.86,2.3,2.04,2.3,3.33s-.83,2.47-2.3,3.33c-1.4.81-3.2,1.22-5.01,1.22Z"/>
      <path class="cls-1" d="M81.89,40.49v22.43l-.04.13c-.74,3.02-8.41,3.02-9.15,0l-.04-.13v-22.43c.02.09.04.17.06.26.11.32.32.61.58.85.57.58,1.44.94,2.23,1.12,1.53.36,3.46.24,4.86-.49.45-.24.9-.56,1.19-.98.13-.18.24-.4.28-.62l.04-.13Z"/>
      <path class="cls-2" d="M73.42,42.65v20.27c.25.92,1.86,1.64,3.84,1.64h.02c1.98,0,3.59-.72,3.85-1.7v-20.21c-.15.1-.28.17-.4.24-1.49.77-3.55.99-5.38.56-.47-.11-1.23-.34-1.93-.79h0ZM77.28,66.07h-.02c-2.13,0-4.78-.74-5.31-2.84,0-.06-.05-.25-.05-.31v-22.43c0-.39.3-.72.68-.75.4-.04.74.23.81.61.11.33.24.52.4.7.42.4,1.11.74,1.89.92,1.49.35,3.19.18,4.34-.42.4-.21.74-.47.94-.75.06-.12.15-.25.17-.38.08-.37.46-.69.83-.62.39.05.68.3.68.69v22.43c0,.05-.02.23-.04.28-.53,2.12-3.18,2.86-5.31,2.86Z"/>
      <path class="cls-2" d="M79.64,63.11c-.4,0-.74-.33-.74-.75v-17.33c0-.42.34-.76.74-.76.43,0,.77.34.77.76v17.33c0,.42-.34.75-.77.75Z"/>
      <path class="cls-2" d="M77.31,63.77c-.43,0-.77-.34-.77-.75v-16.85c0-.42.34-.75.77-.75.4,0,.74.33.74.75v16.85c0,.41-.35.75-.74.75Z"/>
      <path class="cls-2" d="M74.97,63.26c-.43,0-.75-.34-.75-.76v-14.76c0-.42.32-.76.75-.76.4,0,.74.34.74.76v14.76c0,.42-.34.76-.74.76Z"/>
      <path class="cls-1" d="M55.84,55.25v1.92c.94,4.49,12.11,4.59,13.05,0v-1.93c-.93,4.55-11.95,4.45-13.01.18l-.04-.17Z"/>
      <path class="cls-2" d="M57.07,58.09c1,1.11,3.25,1.74,5.34,1.74h0c1.95,0,4.14-.54,5.19-1.7-1.41.86-3.3,1.24-4.93,1.27-2,.05-4.08-.36-5.59-1.3h0ZM62.41,61.33c-3.23,0-6.74-1.24-7.31-4l-.03-2.07c0-.39.3-.71.68-.75.4-.04.74.22.83.6l.02.18c.45,1.77,3.38,2.7,6.01,2.61,2.49-.04,5.16-.93,5.55-2.79.06-.38.38-.65.81-.6.38.04.68.36.68.74v1.93c-.6,2.92-4.06,4.16-7.24,4.16h0Z"/>
      <path class="cls-1" d="M67,52.21c-2.55-1.48-6.69-1.48-9.27,0-2.57,1.48-2.57,3.88,0,5.35,2.55,1.48,6.72,1.48,9.29,0,2.55-1.48,2.55-3.87-.02-5.35Z"/>
      <path class="cls-2" d="M62.37,51.85c-1.55,0-3.1.33-4.25,1-1,.57-1.55,1.29-1.55,2.02s.55,1.45,1.55,2.02c2.29,1.33,6.21,1.33,8.52,0,1-.58,1.53-1.29,1.53-2.02s-.53-1.45-1.53-2.02h0c-1.17-.67-2.72-1-4.27-1h0ZM62.37,59.43c-1.81,0-3.61-.4-5.02-1.22-1.49-.86-2.29-2.04-2.29-3.33s.81-2.48,2.29-3.33c2.8-1.62,7.22-1.62,10.03,0h0c1.49.86,2.3,2.04,2.3,3.33s-.81,2.47-2.3,3.33c-1.4.81-3.21,1.22-5.01,1.22Z"/>
      <path class="cls-1" d="M24.93,54.98v1.93c.94,4.49,12.11,4.59,13.07,0v-1.93c-.94,4.54-11.96,4.44-13.03.18l-.04-.18Z"/>
      <path class="cls-2" d="M26.14,57.8c1,1.17,3.31,1.76,5.37,1.76,1.95,0,4.13-.54,5.17-1.71-1.41.86-3.27,1.24-4.93,1.27-2,.04-4.11-.37-5.61-1.32h0ZM31.51,61.07c-3.23,0-6.73-1.24-7.31-4l-.02-2.08c0-.38.3-.71.68-.74.42-.06.72.22.81.6l.04.18c.43,1.72,3.19,2.61,5.78,2.61h.24c2.46-.05,5.14-.93,5.52-2.79.08-.38.42-.64.83-.6.38.03.66.36.66.74v1.93c-.57,2.92-4.06,4.16-7.22,4.16Z"/>
      <path class="cls-1" d="M36.1,51.94c-2.57-1.47-6.72-1.47-9.29,0-2.55,1.49-2.55,3.88,0,5.36,2.57,1.48,6.72,1.48,9.29,0,2.55-1.48,2.55-3.88,0-5.36Z"/>
      <path class="cls-2" d="M31.47,51.59c-1.56,0-3.13.33-4.27,1-1,.58-1.55,1.3-1.55,2.03s.55,1.45,1.55,2.02c2.31,1.33,6.21,1.33,8.52,0,1-.58,1.55-1.29,1.55-2.02s-.55-1.45-1.55-2.03c-1.15-.67-2.7-1-4.25-1h0ZM31.47,59.16c-1.81,0-3.61-.4-5.02-1.21-1.49-.86-2.29-2.04-2.29-3.33s.81-2.48,2.29-3.33c2.81-1.63,7.21-1.63,10.03,0,1.47.85,2.3,2.04,2.3,3.33s-.83,2.47-2.3,3.33c-1.4.81-3.2,1.21-5.01,1.21Z"/>
      <path class="cls-1" d="M25.22,72.83v1.93c.92,4.49,12.09,4.59,13.05,0v-1.93c-.93,4.54-11.96,4.45-13.03.19l-.02-.19Z"/>
      <path class="cls-2" d="M26.41,75.66c1,1.17,3.31,1.75,5.37,1.75s4.14-.54,5.19-1.7c-1.43.86-3.29,1.24-4.95,1.27-1.93.04-4.11-.37-5.61-1.32h0ZM31.79,78.92c-3.23,0-6.73-1.24-7.31-4l-.02-2.08c0-.38.29-.7.68-.74.38-.05.74.22.81.6l.04.18c.44,1.77,3.34,2.66,6.01,2.61,2.47-.05,5.14-.93,5.53-2.79.08-.38.42-.63.83-.6.38.04.69.36.69.74v1.93c-.6,2.92-4.06,4.16-7.25,4.16Z"/>
      <path class="cls-1" d="M36.38,69.79c-2.55-1.48-6.71-1.48-9.26,0-2.57,1.48-2.57,3.88,0,5.35,2.55,1.48,6.71,1.48,9.26,0,2.57-1.48,2.57-3.88,0-5.35Z"/>
      <path class="cls-2" d="M31.75,69.45c-1.56,0-3.11.33-4.27.99-1,.58-1.53,1.3-1.53,2.03s.53,1.45,1.53,2.02c2.32,1.33,6.23,1.33,8.52,0,1-.58,1.56-1.29,1.56-2.02s-.56-1.45-1.56-2.03h0c-1.15-.66-2.7-.99-4.25-.99h0ZM31.75,77.02c-1.81,0-3.61-.41-5.01-1.22-1.49-.86-2.29-2.04-2.29-3.33s.8-2.48,2.29-3.33c2.81-1.63,7.22-1.63,10.03,0h0c1.49.85,2.29,2.04,2.29,3.33s-.81,2.47-2.29,3.33c-1.4.81-3.21,1.22-5.01,1.22Z"/>
      <path class="cls-1" d="M36.34,49.49v22.42l-.04.13c-.75,3.02-8.42,3.02-9.16,0l-.04-.13v-22.42c.03.09.04.16.06.25.13.32.32.61.58.85.57.57,1.44.94,2.23,1.11,1.53.37,3.47.24,4.87-.49.44-.23.89-.56,1.18-.97.13-.19.24-.41.28-.63l.04-.12Z"/>
      <path class="cls-2" d="M27.86,51.65v20.27c.25.93,1.86,1.64,3.87,1.64h0c1.97,0,3.61-.71,3.84-1.69v-20.21c-.15.09-.27.17-.4.24-1.49.77-3.53.99-5.37.56-.47-.11-1.24-.34-1.94-.79h0ZM31.73,75.07h0c-2.15,0-4.8-.75-5.33-2.84,0-.06-.05-.25-.05-.31v-22.42c0-.39.3-.71.68-.76.4-.04.72.22.81.6.11.35.24.54.43.72.4.4,1.08.74,1.89.92,1.47.35,3.16.18,4.31-.42.41-.22.75-.48.93-.75.06-.12.15-.26.17-.38.1-.36.44-.68.85-.62.36.04.65.3.65.69v22.42c0,.05-.02.23-.04.28-.53,2.13-3.19,2.88-5.31,2.88Z"/>
      <path class="cls-2" d="M34.08,72.11c-.4,0-.74-.34-.74-.76v-17.32c0-.42.35-.76.74-.76.43,0,.77.34.77.76v17.32c0,.42-.34.76-.77.76Z"/>
      <path class="cls-2" d="M31.75,72.77c-.43,0-.77-.34-.77-.76v-16.85c0-.42.34-.75.77-.75.4,0,.74.34.74.75v16.85c0,.42-.34.76-.74.76Z"/>
      <path class="cls-2" d="M29.41,72.25c-.43,0-.74-.33-.74-.75v-14.77c0-.42.31-.75.74-.75s.74.33.74.75v14.77c0,.42-.32.75-.74.75Z"/>
      <path class="cls-1" d="M9.78,64.15v1.93c.93,4.49,12.11,4.59,13.07,0v-1.93c-.95,4.54-11.96,4.44-13.03.19l-.04-.19Z"/>
      <path class="cls-2" d="M10.99,66.98c.99,1.17,3.29,1.76,5.36,1.76,1.95,0,4.14-.54,5.18-1.71-1.4.86-3.29,1.24-4.95,1.27-1.95.06-4.1-.37-5.58-1.32h0ZM16.35,70.24c-3.21,0-6.74-1.24-7.32-4v-2.08c0-.38.28-.71.66-.75.43-.05.74.22.83.6l.04.18c.43,1.77,3.27,2.64,6,2.61,2.48-.05,5.16-.93,5.54-2.79.09-.38.43-.64.81-.6.38.04.68.37.68.75v1.93c-.6,2.92-4.06,4.16-7.24,4.16Z"/>
      <path class="cls-1" d="M20.95,61.11c-2.57-1.47-6.71-1.47-9.29,0-2.55,1.49-2.55,3.88,0,5.36,2.57,1.48,6.72,1.48,9.29,0,2.56-1.48,2.56-3.88,0-5.36Z"/>
      <path class="cls-2" d="M16.3,60.76c-1.55,0-3.1.33-4.25,1-1,.58-1.55,1.3-1.55,2.03s.55,1.45,1.55,2.02c2.3,1.33,6.21,1.33,8.52,0,1-.58,1.55-1.29,1.55-2.02s-.55-1.45-1.55-2.03c-1.15-.67-2.72-1-4.27-1h0ZM16.3,68.34c-1.81,0-3.61-.41-5.01-1.22-1.47-.85-2.29-2.04-2.29-3.32s.83-2.48,2.29-3.33c2.82-1.63,7.22-1.63,10.03,0,1.49.85,2.29,2.04,2.29,3.33s-.81,2.47-2.29,3.32c-1.4.81-3.21,1.22-5.01,1.22Z"/>
      <path class="cls-1" d="M20.89,40.81v22.43l-.02.13c-.76,3.02-8.41,3.02-9.18,0l-.03-.13v-22.43c.03.1.04.17.07.26.1.32.31.61.55.85.6.58,1.47.93,2.25,1.12,1.53.36,3.44.24,4.84-.49.45-.23.89-.56,1.19-.98.13-.18.23-.4.3-.62l.02-.13Z"/>
      <path class="cls-2" d="M12.41,42.97v20.27c.26.93,1.87,1.64,3.86,1.64h0c2,0,3.61-.71,3.85-1.69l.02-20.21c-.15.09-.29.17-.4.24-1.49.77-3.55.98-5.37.56-.47-.11-1.23-.35-1.95-.79h0ZM16.28,66.38h0c-2.12,0-4.8-.74-5.31-2.84-.02-.06-.04-.24-.04-.31v-22.43c0-.38.28-.7.66-.75.4-.05.75.22.83.6.08.35.23.54.4.71.4.4,1.1.74,1.89.93,1.47.34,3.16.18,4.34-.43.4-.21.72-.47.92-.74.08-.12.15-.26.17-.37.11-.37.45-.69.85-.63.38.04.68.3.68.68v22.43c0,.05-.04.24-.04.29-.53,2.11-3.21,2.86-5.34,2.86Z"/>
      <path class="cls-2" d="M18.66,63.43c-.42,0-.76-.34-.76-.76v-17.33c0-.41.34-.75.76-.75s.74.34.74.75v17.33c0,.42-.34.76-.74.76Z"/>
      <path class="cls-2" d="M16.3,64.08c-.4,0-.74-.33-.74-.75v-16.84c0-.42.34-.76.74-.76s.76.34.76.76v16.84c0,.42-.34.75-.76.75Z"/>
      <path class="cls-2" d="M13.98,63.57c-.42,0-.76-.33-.76-.75v-14.77c0-.42.34-.76.76-.76s.74.34.74.76v14.77c0,.42-.34.75-.74.75Z"/>
      <path class="cls-1" d="M55.38,72.8v1.92c.94,4.5,12.11,4.59,13.05,0v-1.92c-.93,4.54-11.95,4.44-13.03.18l-.02-.18Z"/>
      <path class="cls-2" d="M56.59,75.62c.98,1.17,3.29,1.76,5.35,1.76,1.95,0,4.14-.54,5.18-1.7-1.4.86-3.29,1.24-4.95,1.27-1.95.03-4.1-.37-5.59-1.32h0ZM61.94,78.88c-3.23,0-6.74-1.24-7.31-4l-.03-2.07c0-.39.3-.71.68-.75.38-.02.74.22.81.6l.04.18c.45,1.77,3.34,2.66,6.01,2.61,2.49-.05,5.14-.94,5.55-2.79.06-.38.38-.64.81-.6.38.04.68.36.68.75v1.92c-.6,2.92-4.06,4.16-7.24,4.16Z"/>
      <path class="cls-1" d="M66.54,69.76c-2.56-1.48-6.72-1.48-9.27,0-2.58,1.48-2.58,3.88,0,5.36,2.55,1.48,6.71,1.48,9.27,0,2.57-1.48,2.57-3.88,0-5.36Z"/>
      <path class="cls-2" d="M61.9,69.41c-1.55,0-3.1.33-4.25,1-1,.58-1.55,1.29-1.55,2.02s.55,1.45,1.52,2.02c2.32,1.33,6.23,1.33,8.54,0,.98-.57,1.53-1.29,1.53-2.02s-.55-1.45-1.53-2.02h-.02c-1.15-.67-2.7-1-4.25-1h0ZM61.9,76.98c-1.81,0-3.61-.41-5.01-1.22-1.49-.86-2.29-2.04-2.29-3.33s.81-2.47,2.29-3.33c2.81-1.62,7.22-1.62,10.03,0,1.49.86,2.29,2.04,2.29,3.33s-.81,2.47-2.29,3.33c-1.4.81-3.21,1.22-5.02,1.22Z"/>
      <path class="cls-1" d="M66.49,49.45v22.43l-.04.13c-.74,3.02-8.41,3.02-9.15,0l-.03-.13v-22.43c0,.09.03.16.06.26.11.32.3.61.55.85.58.57,1.47.93,2.25,1.12,1.51.36,3.44.24,4.84-.49.45-.23.9-.56,1.19-.98.13-.19.24-.4.27-.62l.04-.13Z"/>
      <path class="cls-2" d="M58.01,51.61v20.27c.26.93,1.87,1.64,3.87,1.64h0c1.98,0,3.61-.71,3.84-1.7v-20.21c-.13.1-.28.17-.4.24-1.49.78-3.52.99-5.35.56-.47-.11-1.26-.34-1.96-.79h0ZM61.88,75.03h0c-2.13,0-4.8-.74-5.34-2.84,0-.06-.04-.25-.04-.31v-22.43c0-.38.3-.71.69-.75.42-.03.74.22.81.6.1.35.23.54.4.72.42.4,1.1.74,1.91.92,1.47.35,3.16.18,4.31-.42.4-.22.74-.48.94-.75.08-.12.15-.25.17-.37.09-.36.45-.67.83-.63.38.05.68.3.68.69v22.43c0,.05-.02.23-.04.28-.53,2.12-3.18,2.86-5.31,2.86Z"/>
      <path class="cls-2" d="M64.24,72.07c-.4,0-.74-.33-.74-.75v-17.33c0-.42.34-.76.74-.76.43,0,.76.34.76.76v17.33c0,.42-.33.75-.76.75Z"/>
      <path class="cls-2" d="M61.9,72.73c-.42,0-.76-.34-.76-.76v-16.84c0-.42.34-.76.76-.76s.74.34.74.76v16.84c0,.42-.34.76-.74.76Z"/>
      <path class="cls-2" d="M59.56,72.22c-.4,0-.74-.34-.74-.76v-14.76c0-.42.34-.76.74-.76.43,0,.77.34.77.76v14.76c0,.42-.34.76-.77.76Z"/>
      <path class="cls-3" d="M89.18,36.85L46.75,12.35c-.23-.12-.28-.13-.53-.13l-21.53,1.56c-.28.04-.4.08-.66.21-.28.18-.42.31-.63.55L1.68,38.38c-.56.67-.87,1.27-.94,2.16v1.1c.03.17.03.23.15.34l42.45,24.51c-.15-.11-.15-.18-.17-.34l.02-1.1c.04-.9.36-1.48.94-2.16l21.69-23.85c.27-.28.47-.44.81-.63.19-.08.3-.1.49-.13l21.53-1.56c.26.01.32.01.53.14Z"/>
      <path class="cls-2" d="M1.49,41.47l40.95,23.63v-.05c.09-1.19.51-1.91,1.11-2.64l21.74-23.88c.34-.35.57-.56,1.02-.8.32-.13.47-.17.72-.2l19.4-1.4L46.37,13l-21.63,1.52c-.13.02-.17.03-.34.13-.15.1-.27.2-.47.4L2.24,38.88c-.49.6-.68,1.05-.72,1.71l-.03.87h0ZM43.33,67.23c-.13,0-.26-.03-.36-.1L.53,42.63c-.49-.37-.51-.72-.53-.93v-1.16c.06-1.03.38-1.78,1.11-2.64L22.82,14.02c.26-.26.47-.45.81-.67.37-.2.58-.28.96-.33l21.57-1.56c.42.01.6.03.95.23l42.46,24.51c.36.21.49.66.28,1.02-.19.36-.66.49-1.02.3l-.09-.04-21.57,1.56c-.06.01-.11.02-.26.08-.19.1-.3.2-.55.45l-21.67,23.83c-.51.6-.7,1.04-.74,1.71v.93c.17.26.19.61,0,.88-.13.21-.36.33-.62.33Z"/>
      <path class="cls-3" d="M88.65,36.71l-21.53,1.56c-.42.03-.86.29-1.29.76l-21.69,23.85c-.58.63-.94,1.45-.94,2.16l-.02,1.1c0,.33.26.47.56.3l45.28-26.61c.3-.17.53-.6.53-.94l.02-1.09c0-.72-.35-1.13-.91-1.09Z"/>
      <path class="cls-2" d="M88.65,36.71h.02-.02ZM88.73,37.46h-.02s-21.55,1.57-21.55,1.57c-.21.01-.49.2-.79.51l-21.69,23.85c-.45.5-.74,1.13-.74,1.67v.38l44.69-26.26c.06-.04.17-.21.17-.29v-1.1c0-.21-.04-.31-.06-.33h0ZM43.48,67.27c-.19,0-.36-.05-.51-.14-.34-.2-.53-.57-.53-1v-1.09c.03-.9.43-1.9,1.13-2.67l21.72-23.85c.55-.62,1.17-.96,1.78-1.01l21.53-1.56c.47-.04.89.11,1.19.4.26.23.55.67.53,1.44v1.09c0,.6-.4,1.27-.92,1.58l-45.28,26.61c-.22.12-.43.18-.64.18Z"/>
      <polygon class="cls-1" points="83.15 40.33 49.62 60.04 66.44 41.54 83.15 40.33"/>
      <path class="cls-2" d="M66.8,42.27l-13.3,14.61,26.5-15.56-13.2.95h0ZM49.62,60.8c-.21,0-.43-.1-.58-.28-.23-.29-.23-.7.03-.98l16.83-18.5c.13-.14.32-.23.51-.24l16.7-1.2c.34-.02.66.19.77.53.1.33-.04.7-.35.88l-33.52,19.7c-.13.07-.26.11-.38.11Z"/>
      <path class="cls-4" d="M89.18,36.85L46.75,12.35c-.23-.12-.28-.13-.53-.13l-21.53,1.56c-.28.04-.4.08-.66.21l42.61,24.42c.19-.08.3-.1.49-.13l21.53-1.56c.26.01.32.01.53.14Z"/>
      <path class="cls-2" d="M26.29,14.41l40.43,23.17c.08-.03.19-.04.3-.06l19.4-1.4L46.37,13l-20.08,1.41h0ZM66.64,39.15c-.13,0-.26-.03-.36-.1L23.67,14.64c-.26-.14-.38-.39-.38-.67s.15-.52.4-.65c.3-.16.51-.24.9-.29l21.57-1.56c.42.01.6.03.95.23l42.46,24.51c.36.21.49.66.28,1.02-.19.36-.66.49-1.02.3l-.09-.04-21.57,1.56c-.06.01-.11.02-.26.08-.08.04-.17.05-.28.05Z"/>
      <path class="cls-4" d="M33.34,21.93c-1.04-.6-1.1-1.64-.06-2.24l.8-.44c1.09-.58,2.75-.6,3.77,0,5.16,2.97,14.39,8.27,19.53,11.25,1.04.6,1.04,1.58,0,2.17l-.79.45c-1.06.61-2.79.6-3.85,0-6.89-3.98-12.52-7.21-19.4-11.18Z"/>
      <path class="cls-2" d="M36,19.57c-.55,0-1.12.12-1.55.35l-.83.44c-.19.12-.34.28-.34.42,0,.12.13.32.44.51h0s19.4,11.18,19.4,11.18c.83.47,2.27.48,3.08.01l.79-.45c.3-.17.4-.34.4-.43,0-.1-.13-.27-.4-.43l-19.51-11.25c-.4-.22-.93-.34-1.49-.34h0ZM54.67,34.32c-.83,0-1.66-.19-2.29-.56l-19.42-11.18c-.74-.44-1.19-1.1-1.19-1.81s.4-1.32,1.13-1.73l.83-.46c1.34-.71,3.27-.7,4.5.01l19.53,11.25c.72.42,1.15,1.06,1.15,1.74s-.42,1.32-1.17,1.74l-.79.45c-.63.37-1.44.55-2.27.55Z"/>
      <path class="cls-4" d="M37.85,19.25c5.16,2.97,14.39,8.27,19.53,11.25,1.04.6,1.04,1.58,0,2.17l-.79.45c-1.06.61-2.79.6-3.85,0-5.31-3.07-9.9-5.71-14.89-8.58v-5.28Z"/>
      <path class="cls-2" d="M38.61,24.1l14.51,8.36c.83.47,2.27.48,3.08.01l.79-.45c.3-.17.4-.34.4-.43,0-.1-.13-.27-.4-.43l-18.38-10.6v3.54h0ZM54.67,34.32c-.83,0-1.66-.19-2.29-.56l-14.9-8.58c-.23-.13-.38-.38-.38-.65v-5.28c0-.27.15-.52.38-.65.24-.13.51-.13.74,0l19.53,11.25c.72.42,1.15,1.06,1.15,1.74s-.42,1.32-1.17,1.74l-.79.45c-.63.37-1.44.55-2.27.55Z"/>
      <path class="cls-3" d="M37.51,2.72c3.04-1.74,4.71-2.95,8.76-.85,2.29,1.19,4.35,3.11,6.03,5.37,4.76,6.46,6.35,15.71,1.53,18.64l-2.21,1.27c5.65-3.57,2.08-13.71-1.47-18.54-2.59-3.5-7.97-8.32-12.64-5.89Z"/>
      <path class="cls-2" d="M42.01,1.53c3.59.88,6.93,4.17,8.74,6.62,2.84,3.86,5.26,10.18,4.39,14.81-.04.26-.1.51-.17.75.38-.62.68-1.37.85-2.23.76-3.87-.9-9.42-4.15-13.8-1.7-2.29-3.67-4.07-5.75-5.16-1.66-.86-2.85-1.13-3.91-1h0ZM51.62,27.9c-.26,0-.51-.13-.64-.36-.21-.35-.1-.81.24-1.03,1.31-.83,2.12-2.11,2.44-3.82.79-4.16-1.53-10.13-4.12-13.64-2.32-3.15-7.4-7.89-11.67-5.66-.36.18-.81.06-1.02-.31-.19-.36-.06-.81.3-1.01l.41-.24c2.8-1.63,4.84-2.82,9.05-.63,2.29,1.18,4.46,3.12,6.29,5.6,3.48,4.71,5.25,10.72,4.4,14.98-.43,2.14-1.49,3.78-3.09,4.75l-2.21,1.28c-.13.07-.25.1-.38.1Z"/>
      <path class="cls-1" d="M44.56,3.41c5.5,3.18,9.99,10.91,9.99,17.27s-4.48,8.94-9.99,5.76c-5.5-3.18-9.97-10.91-9.97-17.27S39.06.23,44.56,3.41Z"/>
      <path class="cls-2" d="M40.12,2.8c-.83,0-1.58.19-2.23.57-1.64.95-2.56,3.01-2.56,5.8,0,6.11,4.32,13.57,9.61,16.62,2.42,1.4,4.65,1.65,6.29.7,1.66-.95,2.55-3.01,2.55-5.8,0-6.11-4.29-13.57-9.58-16.62h0c-1.47-.84-2.85-1.27-4.08-1.27h0ZM49.02,28.57c-1.51,0-3.14-.49-4.82-1.47-5.72-3.3-10.37-11.34-10.37-17.93,0-3.36,1.19-5.88,3.31-7.11,2.13-1.23,4.89-.98,7.8.7,5.71,3.3,10.34,11.34,10.34,17.93,0,3.36-1.16,5.88-3.29,7.11-.89.51-1.89.77-2.97.77Z"/>
      <path class="cls-2" d="M47.05,21.6c-.21,0-.51-.06-.81-.26-1.87-1.15-3.42-2.06-5.01-2.97-.36-.2-.47-.67-.28-1.02.21-.37.68-.49,1.04-.28,1.51.87,3.02,1.75,4.76,2.83l.02-2.51c0-.19-.23-.71-.49-.86-.74-.42-1.49-.88-2.23-1.33-.69-.41-1.32-.81-1.92-1.15-.77-.44-1.26-1.29-1.26-2.17v-2.61c.03-.58.26-1.04.68-1.27.4-.22.92-.16,1.38.16,1.29.87,2.78,1.79,4.55,2.8.36.2.47.67.27,1.02-.21.37-.68.49-1.04.28-1.66-.95-3.09-1.83-4.32-2.66l-.02,2.29c0,.34.19.69.49.86.61.34,1.27.75,1.95,1.17.72.43,1.47.89,2.19,1.31.83.47,1.26,1.56,1.26,2.16l-.03,2.81c0,.79-.4,1.12-.63,1.26-.13.07-.32.14-.58.14Z"/>
      <path class="cls-2" d="M44.41,22.3c-.4.03-.74-.35-.74-.76,0-1.54.02-3.07.04-4.59.02-3.02.06-6.02.02-9.06-.02-.42.32-.76.74-.77.49-.03.74.33.76.74.05,3.06,0,6.07-.04,9.1,0,1.52-.02,3.04-.02,4.58-.03.42-.35.76-.77.76Z"/>
    </g>
  </g>
</svg>