<?xml version="1.0" encoding="UTF-8"?>
<svg id="Layer_2" data-name="Layer 2" xmlns="http://www.w3.org/2000/svg" viewBox="0 0 63.24 74.74" fill="currentColor">
  <defs>
    <style>
      .cls-1 {
        fill: #fff;
      }

      .cls-1, .cls-2, .cls-3, .cls-4 {
        fill-rule: evenodd;
      }

      .cls-2 {
        fill: #1a87c7;
      }

      .cls-3 {
        fill: #bdedf8;
      }

      .cls-4 {
        fill: #66ceef;
      }
    </style>
  </defs>
  <g id="_Layer_" data-name="&amp;lt;Layer&amp;gt;">
    <g>
      <path class="cls-3" d="M36.24,9.5c-14.6,8.43-26.43,28.91-26.43,45.76s11.83,23.68,26.43,15.26c14.59-8.43,26.41-28.92,26.41-45.77S50.83,1.08,36.24,9.5Z"/>
      <path class="cls-2" d="M36.24,9.5h.01-.01ZM48.02,6.44c-3.52,0-7.43,1.19-11.52,3.54h0c-14.4,8.32-26.12,28.63-26.12,45.28,0,7.94,2.65,13.85,7.45,16.62,4.81,2.78,11.25,2.12,18.12-1.85,14.42-8.32,26.14-28.64,26.14-45.28,0-7.94-2.65-13.84-7.46-16.62-1.94-1.13-4.18-1.69-6.61-1.69h0ZM24.43,74.7c-2.61,0-5.04-.61-7.16-1.84-5.18-2.98-8.02-9.23-8.02-17.59,0-17,11.98-37.75,26.7-46.25h0c7.24-4.18,14.07-4.83,19.25-1.85,5.17,2.99,8.01,9.23,8.01,17.59,0,17-11.97,37.75-26.71,46.25-4.25,2.46-8.35,3.7-12.07,3.7Z"/>
      <path class="cls-4" d="M54.94,7.65c-10.32-5.95-15.85-11.15-29.25-2.63C3.82,18.92-8.33,57.01,8.35,67.11l9.19,5.3c-14.97-9.5-5.53-36.36,3.91-49.16C28.29,13.97,42.59,1.19,54.94,7.65Z"/>
      <path class="cls-2" d="M38.2,1.12c-3.42,0-7.27,1.24-12.22,4.38C12.1,14.32.95,34.55,1.13,50.61c.06,5.27,1.41,12.33,7.53,16.02l4.51,2.61c-1.77-2.23-2.96-4.97-3.56-8.18-2.24-11.86,4.04-28.16,11.39-38.14,5.82-7.88,17.73-19.15,29.23-17.4-4.21-2.5-7.79-4.4-12.03-4.4h0ZM17.54,72.97c-.09,0-.19-.02-.28-.08l-9.18-5.3C2.89,64.45.1,58.58,0,50.62-.17,33.94,10.98,13.71,25.38,4.55c12.33-7.83,18.4-4.2,26.81.83.97.58,1.97,1.18,3.01,1.79.27.15.36.49.22.75-.16.27-.49.37-.76.23-12.18-6.38-26.33,6.7-32.77,15.44-7.02,9.54-13.34,25.84-11.2,37.27.94,4.94,3.33,8.67,7.14,11.09.25.16.33.5.18.76-.11.17-.29.27-.48.27Z"/>
      <path class="cls-3" d="M36.24,66.14c-6.24,3.61-11.9,3.94-15.99,1.59-4.11-2.36-6.64-7.43-6.64-14.64s2.54-15.2,6.64-22.29c4.08-7.09,9.74-13.27,15.99-16.88,6.24-3.61,11.9-3.94,15.99-1.58,4.09,2.36,6.62,7.43,6.62,14.64s-2.54,15.2-6.62,22.28c-4.09,7.09-9.74,13.28-15.99,16.88h0ZM36.24,9.5c-14.61,8.43-26.44,28.93-26.44,45.8s11.83,23.69,26.44,15.26c14.59-8.43,26.43-28.93,26.43-45.8S50.83,1.07,36.24,9.5h0Z"/>
      <path class="cls-2" d="M36.24,66.14h.01-.01ZM46.33,11.38c-2.99,0-6.34,1.01-9.82,3.02-5.94,3.44-11.55,9.36-15.78,16.67-4.22,7.31-6.54,15.13-6.54,22.01s2.25,11.8,6.34,14.16c4.09,2.36,9.57,1.8,15.43-1.59h0c5.96-3.44,11.57-9.36,15.78-16.67,4.23-7.31,6.56-15.13,6.56-22.01s-2.26-11.8-6.36-14.16c-1.66-.96-3.55-1.44-5.61-1.44h0ZM26.13,69.8c-2.25,0-4.32-.53-6.16-1.59-4.46-2.57-6.91-7.94-6.91-15.12s2.38-15.09,6.7-22.57c4.31-7.48,10.06-13.55,16.2-17.08,6.23-3.59,12.11-4.15,16.56-1.58,4.45,2.57,6.89,7.94,6.89,15.13s-2.37,15.09-6.69,22.57c-4.33,7.48-10.08,13.55-16.21,17.08h0c-3.64,2.11-7.18,3.18-10.38,3.18h0ZM48.04,6.44c-3.52,0-7.45,1.19-11.53,3.54-14.42,8.32-26.16,28.65-26.16,45.31,0,7.94,2.66,13.85,7.47,16.63,4.81,2.77,11.26,2.12,18.14-1.85,14.42-8.33,26.16-28.66,26.16-45.31,0-7.94-2.65-13.85-7.46-16.63-1.96-1.13-4.18-1.69-6.61-1.69h0ZM24.42,74.74c-2.61,0-5.02-.61-7.16-1.85-5.19-2.98-8.02-9.24-8.02-17.6,0-17.01,11.98-37.78,26.71-46.28l.29.49-.29-.49c7.24-4.18,14.08-4.84,19.25-1.85,5.18,2.99,8.03,9.24,8.03,17.6,0,17.01-11.99,37.77-26.73,46.28-4.25,2.46-8.37,3.7-12.09,3.7Z"/>
      <path class="cls-3" d="M36.24,9.5c-14.61,8.43-26.44,28.93-26.44,45.8s11.83,23.69,26.44,15.26c14.59-8.43,26.43-28.93,26.43-45.8S50.83,1.07,36.24,9.5Z"/>
      <path class="cls-2" d="M36.24,9.5h.01-.01ZM48.04,6.44c-3.52,0-7.45,1.19-11.53,3.55h0c-14.42,8.32-26.16,28.65-26.16,45.31,0,7.94,2.66,13.85,7.47,16.63,4.81,2.77,11.26,2.12,18.14-1.85,14.42-8.33,26.16-28.66,26.16-45.31,0-7.94-2.65-13.85-7.46-16.63-1.96-1.13-4.18-1.7-6.61-1.7h0ZM24.42,74.74c-2.61,0-5.02-.61-7.16-1.85-5.19-2.98-8.02-9.24-8.02-17.6,0-17.01,11.98-37.78,26.71-46.28,7.24-4.18,14.08-4.84,19.25-1.85,5.18,2.99,8.03,9.24,8.03,17.6,0,17.01-11.99,37.78-26.73,46.28-4.25,2.46-8.37,3.7-12.09,3.7Z"/>
      <path class="cls-1" d="M34.41,65.4c6.25-3.61,11.9-9.79,16-16.88,4.09-7.09,6.61-15.08,6.61-22.29s-2.52-12.28-6.61-14.64c-4.1-2.36-9.76-2.02-16,1.59-6.24,3.61-11.9,9.8-15.99,16.88-4.09,7.09-6.62,15.08-6.62,22.29s2.54,12.28,6.62,14.64c4.09,2.36,9.74,2.02,15.99-1.59Z"/>
      <path class="cls-2" d="M34.41,65.4h.02-.02ZM44.52,10.64c-3.01,0-6.36,1.02-9.82,3.02-5.96,3.44-11.57,9.36-15.78,16.67-4.23,7.32-6.56,15.13-6.56,22.01s2.25,11.8,6.36,14.16c4.08,2.36,9.57,1.8,15.43-1.59,5.96-3.44,11.55-9.36,15.78-16.67,4.22-7.31,6.54-15.13,6.54-22.01s-2.25-11.8-6.34-14.16c-1.66-.96-3.56-1.44-5.61-1.44h0ZM24.32,69.07c-2.25,0-4.34-.53-6.18-1.59-4.45-2.57-6.91-7.94-6.91-15.13s2.39-15.09,6.7-22.57c4.33-7.48,10.08-13.54,16.21-17.08,6.21-3.59,12.09-4.15,16.54-1.59,4.46,2.57,6.91,7.94,6.91,15.13s-2.38,15.09-6.7,22.57c-4.31,7.48-10.06,13.55-16.2,17.09h0c-3.66,2.11-7.19,3.18-10.38,3.18Z"/>
      <path class="cls-3" d="M36.24,66.14c-6.24,3.61-11.9,3.94-15.99,1.59-4.11-2.36-6.64-7.43-6.64-14.64s2.54-15.2,6.64-22.29c4.08-7.09,9.74-13.27,15.99-16.88,6.24-3.61,11.9-3.94,15.99-1.58,4.09,2.36,6.62,7.43,6.62,14.64s-2.54,15.2-6.62,22.28c-4.09,7.09-9.74,13.28-15.99,16.88h0ZM36.24,9.5c-14.61,8.43-26.44,28.93-26.44,45.8s11.83,23.69,26.44,15.26c14.59-8.43,26.43-28.93,26.43-45.8S50.83,1.07,36.24,9.5h0Z"/>
      <path class="cls-2" d="M36.24,66.14h.01-.01ZM46.33,11.38c-2.99,0-6.34,1.01-9.82,3.02-5.94,3.44-11.55,9.36-15.78,16.67-4.22,7.31-6.54,15.13-6.54,22.01s2.25,11.8,6.34,14.16c4.09,2.36,9.57,1.8,15.43-1.59h0c5.96-3.44,11.57-9.36,15.78-16.67,4.23-7.31,6.56-15.13,6.56-22.01s-2.26-11.8-6.36-14.16c-1.66-.96-3.55-1.44-5.61-1.44h0ZM26.13,69.8c-2.25,0-4.32-.53-6.16-1.59-4.46-2.57-6.91-7.94-6.91-15.12s2.38-15.09,6.7-22.57c4.31-7.48,10.06-13.55,16.2-17.08,6.23-3.59,12.11-4.15,16.56-1.58,4.45,2.57,6.89,7.94,6.89,15.13s-2.37,15.09-6.69,22.57c-4.33,7.48-10.08,13.55-16.21,17.08h0c-3.64,2.11-7.18,3.18-10.38,3.18h0ZM48.04,6.44c-3.52,0-7.45,1.19-11.53,3.54-14.42,8.32-26.16,28.65-26.16,45.31,0,7.94,2.66,13.85,7.47,16.63,4.81,2.77,11.26,2.12,18.14-1.85,14.42-8.33,26.16-28.66,26.16-45.31,0-7.94-2.65-13.85-7.46-16.63-1.96-1.13-4.18-1.69-6.61-1.69h0ZM24.42,74.74c-2.61,0-5.02-.61-7.16-1.85-5.19-2.98-8.02-9.24-8.02-17.6,0-17.01,11.98-37.78,26.71-46.28l.29.49-.29-.49c7.24-4.18,14.08-4.84,19.25-1.85,5.18,2.99,8.03,9.24,8.03,17.6,0,17.01-11.99,37.77-26.73,46.28-4.25,2.46-8.37,3.7-12.09,3.7Z"/>
      <path class="cls-2" d="M47.23,6.47c-.1,0-.19-.02-.29-.08l-9.16-5.29c-.27-.16-.36-.5-.21-.77.16-.27.49-.36.76-.2l9.16,5.29c.27.15.37.5.21.76-.09.18-.29.28-.48.28Z"/>
      <path class="cls-2" d="M41,7.75c-.1,0-.19-.02-.27-.08l-9.24-5.33c-.27-.15-.35-.5-.2-.76.16-.27.51-.36.77-.21l9.22,5.33c.27.15.37.5.21.76-.11.18-.28.28-.49.28Z"/>
      <path class="cls-2" d="M35.57,10.46c-.1,0-.19-.02-.28-.08l-8.76-5.06c-.27-.15-.35-.5-.21-.76.16-.27.51-.36.78-.21l8.74,5.06c.27.15.36.5.21.76-.1.18-.29.28-.48.28Z"/>
      <path class="cls-2" d="M30.86,13.77c-.1,0-.19-.02-.29-.08l-8.98-5.19c-.27-.15-.37-.5-.21-.76.16-.27.51-.36.78-.21l8.96,5.19c.27.15.37.5.21.76-.1.18-.29.28-.48.28Z"/>
      <path class="cls-2" d="M26.67,17.64c-.1,0-.19-.03-.29-.08l-9.09-5.25c-.27-.15-.35-.5-.21-.76.16-.27.51-.36.77-.21l9.1,5.25c.27.16.36.5.2.77-.11.18-.3.28-.49.28Z"/>
      <path class="cls-2" d="M23.28,21.45c-.1,0-.19-.03-.27-.08l-9.05-5.23c-.27-.16-.36-.5-.21-.77.16-.27.49-.36.76-.21l9.05,5.22c.27.16.36.5.21.77-.1.18-.29.28-.49.28Z"/>
      <path class="cls-2" d="M20.27,25.47c-.09,0-.19-.02-.27-.08l-9.07-5.23c-.27-.15-.37-.5-.21-.77.16-.27.51-.36.78-.2l9.06,5.23c.27.16.37.5.21.76-.12.18-.31.28-.49.28Z"/>
      <path class="cls-2" d="M17.54,29.8c-.09,0-.21-.02-.28-.08l-9.1-5.39c-.27-.16-.35-.5-.19-.77.16-.27.49-.36.76-.2l9.1,5.39c.27.16.35.5.19.77-.1.18-.29.28-.48.28Z"/>
      <path class="cls-2" d="M15.28,34.1c-.09,0-.19-.02-.29-.07l-9.14-5.28c-.27-.16-.37-.5-.2-.77.14-.27.49-.36.76-.21l9.14,5.28c.27.15.37.5.21.76-.1.18-.28.28-.47.28Z"/>
      <path class="cls-2" d="M13.28,38.71c-.1,0-.19-.03-.29-.08l-9.14-5.28c-.27-.15-.37-.5-.21-.76.16-.27.51-.36.76-.21l9.14,5.28c.27.15.37.5.21.77-.1.18-.28.28-.47.28Z"/>
      <path class="cls-2" d="M11.58,43.78c-.1,0-.19-.02-.29-.08l-9.14-5.28c-.27-.16-.36-.5-.21-.77.16-.27.51-.36.76-.21l9.14,5.28c.27.16.36.5.21.77-.09.18-.28.28-.47.28Z"/>
      <path class="cls-2" d="M10.41,48.94c-.1,0-.19-.02-.28-.08L.95,43.57c-.27-.15-.35-.5-.21-.76.16-.27.51-.36.77-.21l9.16,5.29c.27.16.36.5.21.77-.1.18-.29.28-.48.28Z"/>
      <path class="cls-2" d="M9.81,54.51c-.1,0-.19-.02-.27-.08L.32,49.12c-.27-.15-.35-.5-.21-.76.16-.27.51-.36.77-.21l9.21,5.32c.27.15.36.5.21.77-.11.18-.29.28-.49.28Z"/>
      <path class="cls-2" d="M10.03,60.34c-.1,0-.19-.02-.29-.08L.57,54.97c-.27-.15-.36-.5-.21-.76.16-.27.51-.36.76-.21l9.19,5.3c.27.15.37.5.21.76-.11.18-.3.28-.49.28Z"/>
      <path class="cls-2" d="M11.57,66.53c-.09,0-.19-.02-.29-.08l-8.83-5.1c-.27-.16-.36-.5-.21-.77.16-.27.49-.36.76-.21l8.83,5.1c.27.16.36.5.21.77-.1.18-.29.28-.47.28Z"/>
      <path class="cls-4" d="M37.68,24.03c-1.21.69-2.3,1.49-3.3,2.39-.98.89-1.87,1.9-2.66,2.99h0c-.47.66-.92,1.38-1.35,2.17-.43.8-.84,1.68-1.24,2.63-.33.82-1.03,2.68-1.17,3.49l14.53-8.39.75-.43-.14.93-.6,3.84-.11.62-.49.29-14.42,8.32c-.12,1.11-.21,2.25-.21,3.22l13.83-7.99.75-.43-.14.94-.64,3.85-.09.63-.51.29-12.57,7.25c.3,1.35.85,1.79,1.46,2.56h0c.71.9,1.61,1.41,2.73,1.54.81.1,1.65.03,2.52-.2.87-.22,1.77-.61,2.73-1.16,1.33-.77,2.52-1.65,3.53-2.63,1-.97,1.87-2.05,2.58-3.24l1.03-1.71v7.4l-.36.4c-.97,1.08-2,2.06-3.08,2.95-1.06.88-2.19,1.66-3.36,2.33-3.49,2.02-6.42,2.86-8.8,2.55-2.37-.32-4.2-1.81-5.43-4.47h0c-.23-.52-1.14-2.5-1.25-3.02l-2.91,1.69-.76.43.16-.93.62-3.85.1-.62.51-.29,1.68-.97c-.03-1.05.03-1.9.18-3.21l-2.28,1.31-.75.43.14-.94.64-3.85.1-.62.49-.29,2.09-1.2c.49-2.94,1.22-5.11,2.39-7.73,1.27-2.83,2.92-5.47,4.94-7.92,1.25-1.51,2.57-2.86,3.93-4.04,1.38-1.18,2.82-2.21,4.31-3.08,1.43-.83,2.76-1.41,3.98-1.75,1.22-.34,2.35-.43,3.34-.28l.36.06-.1.53-.88,5.31-.21,1.25-.77-.29c-.85-.32-1.78-.4-2.74-.25-.95.15-1.98.54-3.06,1.17Z"/>
      <path class="cls-2" d="M22.2,53.4c.08,0,.14.01.22.05.16.07.29.22.32.39.1.4.84,2.09,1.22,2.9,1.17,2.5,2.8,3.85,5.01,4.15,2.23.29,5.09-.53,8.44-2.48,1.13-.65,2.24-1.42,3.28-2.28,1.05-.86,2.06-1.83,3.01-2.89l.21-.23v-5.17c-.73,1.22-1.63,2.34-2.65,3.33-1.06,1.01-2.28,1.92-3.64,2.72-1,.57-1.96.98-2.87,1.22-.94.24-1.85.31-2.74.2-1.25-.14-2.3-.73-3.08-1.74-.01-.01-.03-.02-.03-.04-.1-.13-.21-.24-.3-.36-.49-.6-.97-1.16-1.25-2.39-.05-.24.06-.49.27-.61l12.83-7.41.65-3.99-13.54,7.82c-.18.1-.38.1-.55,0-.18-.1-.29-.28-.29-.48-.02-.85.05-1.9.21-3.29.02-.18.11-.34.27-.43l14.69-8.48.62-3.97-14.24,8.23c-.19.11-.43.1-.6-.03-.19-.13-.27-.34-.24-.56.16-.87.87-2.8,1.2-3.6.4-.97.83-1.87,1.27-2.69.43-.81.9-1.56,1.38-2.22.81-1.14,1.74-2.18,2.74-3.09,1.01-.93,2.15-1.76,3.39-2.46h0c1.14-.66,2.24-1.08,3.27-1.24,1.04-.17,2.06-.07,3.01.28l.14.05.98-5.85c-.87-.11-1.85-.01-2.9.29-1.18.32-2.47.9-3.85,1.7-1.46.84-2.88,1.85-4.23,3.01-1.33,1.16-2.65,2.5-3.86,3.97-2,2.4-3.63,5.02-4.85,7.79-1.05,2.34-1.86,4.53-2.36,7.59-.03.17-.12.31-.27.4l-2.36,1.36-.63,3.98,2-1.15c.19-.11.41-.1.6.01.17.12.27.32.24.53-.13,1.21-.21,2.07-.16,3.12,0,.21-.12.41-.29.51l-1.95,1.13-.65,3.98,2.65-1.52c.08-.05.17-.08.28-.08h0ZM29.87,62.07c-.36,0-.71-.02-1.04-.07-2.58-.34-4.56-1.95-5.88-4.78,0-.02-.68-1.46-1.07-2.43l-3.07,1.77c-.19.11-.41.1-.61-.02-.17-.12-.27-.34-.23-.55l.87-5.41c.03-.17.13-.31.29-.4l1.88-1.1c0-.64.02-1.21.08-1.85l-2.07,1.2c-.19.11-.43.1-.6-.02-.18-.12-.27-.34-.24-.55l.87-5.41c.03-.17.13-.32.27-.4l2.36-1.36c.54-3.05,1.35-5.25,2.39-7.61,1.27-2.86,2.96-5.57,5.02-8.05,1.25-1.52,2.6-2.91,3.99-4.11,1.41-1.21,2.88-2.26,4.38-3.13,1.48-.85,2.86-1.46,4.12-1.81,1.3-.36,2.5-.46,3.58-.29l.35.06c.16.02.29.1.38.23.08.12.11.27.1.42l-1.19,7.09c-.03.16-.14.31-.29.39-.14.09-.31.1-.48.04l-.77-.29c-.76-.29-1.58-.36-2.44-.22-.89.14-1.85.51-2.88,1.1h0c-1.16.67-2.24,1.45-3.19,2.32-.95.86-1.82,1.84-2.58,2.91-.46.64-.91,1.34-1.32,2.1-.43.78-.82,1.65-1.22,2.58-.19.49-.51,1.34-.76,2.1l14.07-8.12c.19-.11.43-.1.61.02.17.12.27.33.23.55l-.86,5.4c-.01.17-.12.32-.27.4l-14.67,8.47c-.07.73-.11,1.35-.14,1.9l13.72-7.92c.17-.11.41-.1.58.02.19.12.27.34.24.55l-.87,5.42c-.03.16-.13.31-.29.4l-12.69,7.33c.22.69.54,1.06.92,1.52.11.13.22.27.33.43.02,0,.02.02.03.03.6.76,1.36,1.18,2.31,1.29.73.09,1.51.02,2.31-.18.83-.21,1.7-.58,2.6-1.1,1.28-.75,2.43-1.6,3.41-2.55.97-.93,1.81-1.98,2.5-3.13l1.01-1.7c.14-.22.4-.32.64-.25.25.07.41.29.41.54v7.4c0,.13-.05.27-.14.37l-.35.4c-1,1.1-2.04,2.11-3.14,3.01-1.09.9-2.25,1.7-3.44,2.38-3.08,1.79-5.8,2.69-8.1,2.69Z"/>
    </g>
  </g>
</svg>