<?xml version="1.0" encoding="UTF-8"?>
<svg id="Layer_2" data-name="Layer 2" xmlns="http://www.w3.org/2000/svg" viewBox="0 0 41.03 34.75" fill="currentColor">
  <defs>
    <style>
      .cls-1 {
        fill: #fff;
      }

      .cls-1, .cls-2, .cls-3, .cls-4 {
        fill-rule: evenodd;
      }

      .cls-2 {
        fill: #1a87c7;
      }

      .cls-3 {
        fill: #bdedf8;
      }

      .cls-4 {
        fill: #66ceef;
      }
    </style>
  </defs>
  <g id="_Layer_" data-name="&amp;lt;Layer&amp;gt;">
    <g>
      <path class="cls-1" d="M3.06,15.16L27.69.94l.29-.1c.61-.17,1.3-.19,1.92-.09,1.79.28,3.55,1.45,4.85,2.67,2.76,2.58,4.96,6.7,5.27,10.49.11,1.3,0,2.77-.56,3.97-.22.47-.54.94-.91,1.3l-.23.2-24.63,14.23c.16-.14.29-.26.44-.43.43-.48.75-1.11.95-1.73.56-1.76.35-3.91-.12-5.67-.94-3.52-3.32-7.26-6.33-9.34-1.16-.8-2.61-1.5-4.05-1.52-.4,0-.86.05-1.24.16l-.29.09Z"/>
      <path class="cls-2" d="M4.64,14.61c1.64.04,3.18.88,4.18,1.57,2.91,2.03,5.45,5.75,6.45,9.51.34,1.26.8,3.69.12,5.85-.11.34-.25.67-.41.97l23.22-13.4.17-.17c.32-.3.62-.75.84-1.2.59-1.28.61-2.78.53-3.82-.3-3.59-2.33-7.63-5.18-10.29-.89-.84-2.68-2.28-4.68-2.59-.63-.1-1.26-.06-1.8.09l-.27.1L4.64,14.61h0ZM13.7,33.91c-.1,0-.19-.04-.25-.12-.09-.13-.07-.31.05-.42.15-.13.28-.24.41-.39.37-.42.69-1,.89-1.62.64-2,.2-4.3-.12-5.49-.97-3.62-3.41-7.22-6.21-9.17-1.33-.92-2.71-1.44-3.88-1.47-.38,0-.81.04-1.16.15l-.27.09c-.15.05-.31-.03-.38-.17-.07-.15-.01-.31.13-.39L27.54.67l.34-.11c.63-.18,1.36-.22,2.07-.11,2.17.34,4.07,1.87,5.01,2.75,2.95,2.76,5.06,6.96,5.37,10.69.09,1.11.07,2.73-.58,4.13-.25.53-.59,1.03-.98,1.39l-.23.21-24.69,14.25s-.1.04-.15.04Z"/>
      <path class="cls-4" d="M32.5,19.19c-4.18-2.41-7.56-8.26-7.56-13.09s3.38-6.78,7.56-4.37c4.18,2.42,7.56,8.27,7.56,13.1s-3.39,6.78-7.56,4.36Z"/>
      <path class="cls-2" d="M29.13,1c-.67,0-1.28.15-1.82.46-1.33.76-2.06,2.42-2.06,4.63,0,4.71,3.32,10.47,7.41,12.83h0c1.92,1.1,3.71,1.29,5.04.53,1.33-.77,2.06-2.42,2.06-4.63,0-4.71-3.32-10.47-7.41-12.83-1.14-.66-2.24-.99-3.22-.99h0ZM35.88,20.53c-1.09,0-2.29-.35-3.53-1.08h0c-4.25-2.45-7.71-8.45-7.71-13.36,0-2.45.84-4.28,2.37-5.16,1.53-.89,3.54-.7,5.65.53,4.26,2.45,7.72,8.45,7.72,13.36,0,2.45-.84,4.28-2.37,5.16-.63.37-1.35.55-2.12.55Z"/>
      <path class="cls-4" d="M27.15,1.2c1.41-.81,2.32-1.16,4.1-.65,6.91,1.93,12.19,14.18,7.95,18.27-.41.4-.86.62-1.36.91,3.65-2.31,2.06-8.34.49-11.45-1.67-3.3-5.49-7.78-9.44-7.58-.67.03-1.15.19-1.74.5Z"/>
      <path class="cls-2" d="M32.34,1.26c2.76,1.49,5.11,4.56,6.27,6.88.88,1.73,1.86,4.56,1.77,7.13.09-1.09-.03-2.34-.37-3.7-.99-3.91-3.94-8.58-7.68-10.31h0ZM37.85,20.03c-.1,0-.2-.05-.26-.15-.09-.15-.04-.33.1-.42,3.31-2.1,2.04-7.76.37-11.05-1.56-3.09-5.26-7.61-9.15-7.41-.59.03-1.03.15-1.62.46-.15.08-.33.03-.41-.12-.08-.15-.03-.34.12-.42,1.54-.89,2.53-1.2,4.34-.69,4.56,1.27,8.12,6.59,9.28,11.18.83,3.29.4,6.07-1.19,7.61-.38.36-.78.59-1.2.83l-.22.12c-.05.03-.1.04-.16.04Z"/>
      <path class="cls-3" d="M24.41,4.55l3.41-1.96.25-.08c.53-.16,1.12-.17,1.66-.09,1.54.24,3.06,1.25,4.17,2.3,2.37,2.22,4.27,5.77,4.54,9.03.09,1.12,0,2.39-.48,3.42-.19.41-.46.82-.78,1.12l-.19.17-3.41,1.96c.14-.12.25-.22.37-.36.37-.43.65-.97.82-1.49.48-1.52.3-3.36-.1-4.89-.81-3.02-2.86-6.24-5.45-8.04-1-.69-2.25-1.28-3.49-1.31-.34,0-.74.03-1.07.13l-.25.08Z"/>
      <path class="cls-2" d="M25.91,4.04c1.37.09,2.64.77,3.48,1.36,2.52,1.75,4.7,4.97,5.57,8.21.29,1.1.69,3.2.1,5.06-.08.24-.18.49-.29.71l2.06-1.19.14-.13c.27-.26.52-.63.71-1.02.51-1.09.52-2.37.45-3.26-.25-3.03-2.04-6.58-4.45-8.83-.76-.71-2.29-1.95-4.01-2.22-.53-.08-1.07-.05-1.52.08l-.23.08-2,1.15h0ZM33.57,20.73c-.09,0-.19-.04-.25-.13-.09-.13-.07-.3.04-.41.13-.12.24-.22.35-.34.32-.36.59-.85.76-1.38.55-1.71.17-3.69-.11-4.7-.83-3.11-2.92-6.2-5.33-7.87-1.14-.79-2.32-1.24-3.32-1.26-.33,0-.69.04-.98.12l-.23.08c-.15.05-.31-.03-.38-.17-.07-.15-.01-.31.13-.39l3.41-1.97.3-.11c.54-.16,1.18-.19,1.8-.09,1.88.3,3.52,1.62,4.34,2.37,2.55,2.38,4.37,6.01,4.64,9.23.08.96.06,2.36-.51,3.57-.21.46-.52.9-.85,1.22l-.2.18-3.46,2.01s-.1.04-.15.04Z"/>
      <path class="cls-4" d="M28.55,20.25c-3.59-2.08-6.51-7.12-6.51-11.27s2.91-5.83,6.51-3.75c3.59,2.08,6.51,7.13,6.51,11.27s-2.91,5.83-6.51,3.75Z"/>
      <path class="cls-2" d="M28.7,20c1.64.95,3.16,1.1,4.3.45,1.13-.65,1.75-2.05,1.75-3.95,0-4.05-2.85-8.99-6.36-11.01-1.64-.94-3.16-1.11-4.29-.45-1.13.65-1.75,2.06-1.75,3.95,0,4.05,2.85,8.99,6.35,11.02h0ZM31.46,21.45c-.95,0-1.99-.31-3.06-.93-3.67-2.12-6.66-7.3-6.66-11.54,0-2.12.73-3.71,2.06-4.47,1.33-.77,3.07-.61,4.91.45,3.68,2.12,6.66,7.3,6.66,11.54,0,2.12-.73,3.71-2.06,4.48-.55.32-1.18.48-1.85.48Z"/>
      <path class="cls-3" d="M19.3,7.5l3.41-1.97.25-.08c.53-.15,1.12-.17,1.66-.08,1.54.23,3.05,1.24,4.17,2.29,2.37,2.22,4.27,5.77,4.54,9.03.09,1.12,0,2.39-.48,3.42-.19.4-.46.81-.78,1.12l-.19.17-3.41,1.97c.14-.12.25-.23.37-.36.37-.42.65-.96.82-1.5.48-1.52.3-3.36-.1-4.88-.81-3.02-2.86-6.24-5.45-8.04-1-.69-2.25-1.28-3.49-1.31-.34-.01-.74.03-1.07.13l-.25.09Z"/>
      <path class="cls-2" d="M20.8,6.98c1.37.09,2.64.78,3.48,1.36,2.52,1.75,4.7,4.97,5.57,8.21.29,1.09.69,3.19.1,5.05-.08.24-.18.49-.29.71l2.06-1.18.14-.14c.27-.26.52-.63.71-1.02.51-1.08.52-2.37.45-3.27-.25-3.02-2.04-6.58-4.44-8.83-.76-.71-2.29-1.94-4.01-2.21-.53-.09-1.07-.06-1.53.07l-.24.08-2,1.16h0ZM28.46,23.68c-.09,0-.19-.05-.25-.13-.09-.12-.07-.3.05-.41.13-.12.24-.21.35-.34.32-.35.59-.84.76-1.38.55-1.7.17-3.68-.11-4.7-.83-3.11-2.92-6.2-5.33-7.87-1.14-.79-2.32-1.23-3.32-1.26-.33-.01-.69.04-.98.12l-.23.08c-.15.05-.31-.02-.38-.17-.07-.14-.01-.31.13-.39l3.41-1.96.3-.11c.55-.16,1.18-.18,1.8-.09,1.88.29,3.52,1.61,4.34,2.37,2.55,2.39,4.37,6.02,4.64,9.24.08.96.06,2.37-.5,3.57-.22.46-.52.89-.85,1.21l-.2.18-3.46,2s-.1.05-.15.05Z"/>
      <path class="cls-4" d="M23.44,23.21c-3.6-2.08-6.51-7.12-6.51-11.27s2.91-5.84,6.51-3.76c3.59,2.08,6.51,7.13,6.51,11.27s-2.91,5.83-6.51,3.76Z"/>
      <path class="cls-2" d="M23.59,22.94c1.64.95,3.17,1.1,4.3.45,1.13-.65,1.75-2.05,1.75-3.95,0-4.04-2.85-8.98-6.36-11-1.64-.95-3.16-1.1-4.29-.46-1.13.66-1.76,2.06-1.76,3.96,0,4.04,2.85,8.98,6.35,11h0ZM26.35,24.41c-.95,0-1.99-.31-3.06-.94h0c-3.67-2.12-6.66-7.29-6.66-11.53,0-2.12.73-3.72,2.06-4.49,1.33-.76,3.07-.6,4.91.46,3.68,2.12,6.67,7.29,6.67,11.53,0,2.13-.73,3.72-2.06,4.49-.55.31-1.18.48-1.85.48Z"/>
      <path class="cls-3" d="M14.19,10.45l3.41-1.96.25-.09c.53-.15,1.12-.16,1.66-.08,1.54.23,3.06,1.24,4.17,2.29,2.37,2.22,4.27,5.77,4.54,9.03.1,1.12,0,2.38-.48,3.42-.19.4-.46.81-.78,1.12l-.19.17-3.41,1.96c.14-.12.25-.22.37-.36.37-.42.65-.96.82-1.5.48-1.51.3-3.35-.1-4.88-.81-3.03-2.86-6.24-5.45-8.04-1-.69-2.25-1.29-3.49-1.31-.34,0-.74.04-1.07.14l-.25.08Z"/>
      <path class="cls-2" d="M15.69,9.94c1.37.08,2.64.77,3.48,1.36,2.51,1.75,4.7,4.97,5.57,8.21.29,1.09.69,3.2.1,5.05-.08.25-.18.49-.29.72l2.06-1.19.14-.14c.27-.25.52-.62.71-1.02.51-1.08.52-2.37.45-3.26-.25-3.03-2.04-6.59-4.44-8.83-.76-.71-2.29-1.96-4.01-2.22-.53-.08-1.07-.05-1.52.08l-.24.07-2,1.16h0ZM23.35,26.63c-.1,0-.19-.04-.25-.12-.09-.13-.07-.31.04-.42.13-.11.24-.21.35-.33.32-.36.58-.85.75-1.38.55-1.71.17-3.69-.11-4.71-.83-3.11-2.92-6.2-5.33-7.87-1.14-.79-2.32-1.23-3.32-1.25-.33-.01-.69.03-.98.12l-.24.08c-.15.04-.31-.03-.38-.18-.06-.14,0-.31.13-.39l3.41-1.96.3-.1c.54-.16,1.18-.19,1.8-.1,1.88.29,3.52,1.61,4.34,2.37,2.55,2.38,4.37,6.01,4.64,9.23.08.96.06,2.36-.51,3.57-.21.46-.52.89-.85,1.21l-.2.18-3.46,2.01s-.1.03-.15.03Z"/>
      <path class="cls-4" d="M18.33,26.16c-3.59-2.08-6.51-7.12-6.51-11.27s2.91-5.83,6.51-3.75c3.59,2.07,6.51,7.12,6.51,11.27s-2.91,5.83-6.51,3.75Z"/>
      <path class="cls-2" d="M18.48,25.89c1.64.95,3.16,1.11,4.3.46,1.13-.65,1.75-2.05,1.75-3.95,0-4.05-2.85-8.99-6.36-11.01-1.64-.94-3.16-1.11-4.29-.45-1.13.65-1.76,2.05-1.76,3.95,0,4.05,2.85,8.98,6.35,11h0ZM21.24,27.36c-.95,0-1.99-.31-3.06-.93h0c-3.67-2.12-6.66-7.3-6.66-11.54,0-2.12.73-3.71,2.06-4.49,1.33-.76,3.07-.6,4.91.46,3.68,2.12,6.66,7.3,6.66,11.54,0,2.12-.73,3.71-2.06,4.48-.55.32-1.18.48-1.85.48Z"/>
      <path class="cls-3" d="M9.08,13.4l3.41-1.97.25-.08c.53-.15,1.12-.16,1.65-.09,1.54.24,3.06,1.25,4.18,2.29,2.37,2.23,4.27,5.77,4.54,9.03.09,1.12,0,2.39-.48,3.42-.19.41-.46.81-.78,1.12l-.19.17-3.41,1.96c.14-.12.25-.21.37-.36.37-.42.65-.96.82-1.49.48-1.52.3-3.36-.1-4.88-.81-3.03-2.86-6.25-5.45-8.04-1-.69-2.25-1.29-3.49-1.31-.34,0-.74.04-1.07.13l-.25.08Z"/>
      <path class="cls-2" d="M10.58,12.89c1.37.09,2.64.78,3.48,1.35,2.52,1.75,4.7,4.97,5.57,8.22.29,1.09.69,3.2.1,5.06-.08.24-.18.49-.29.71l2.06-1.19.14-.13c.27-.26.53-.63.71-1.02.51-1.1.52-2.38.45-3.27-.25-3.03-2.04-6.58-4.44-8.83-.76-.71-2.29-1.95-4.01-2.22-.53-.08-1.07-.05-1.52.08l-.24.08-2,1.16h0ZM18.24,29.58c-.1,0-.19-.04-.25-.13-.1-.13-.07-.3.04-.41.14-.12.24-.22.35-.34.32-.36.58-.85.76-1.38.55-1.71.17-3.68-.11-4.7-.83-3.11-2.92-6.2-5.33-7.87-1.14-.79-2.32-1.23-3.32-1.26-.33,0-.69.04-.98.12l-.24.08c-.15.05-.31-.03-.38-.16-.06-.15,0-.31.13-.39l3.41-1.97.3-.1c.55-.16,1.18-.19,1.8-.09,1.88.3,3.52,1.62,4.34,2.37,2.55,2.39,4.37,6.01,4.64,9.23.08.96.06,2.36-.51,3.57-.21.46-.52.9-.85,1.22l-.2.18-3.46,2s-.1.04-.15.04Z"/>
      <path class="cls-4" d="M13.22,29.1c-3.6-2.07-6.51-7.12-6.51-11.27s2.91-5.83,6.51-3.75c3.59,2.08,6.51,7.13,6.51,11.27s-2.91,5.83-6.51,3.76Z"/>
      <path class="cls-2" d="M10.31,13.49c-.57,0-1.08.13-1.54.39-1.13.65-1.75,2.06-1.75,3.95,0,4.05,2.85,8.99,6.35,11.01h0c1.64.95,3.17,1.1,4.3.45,1.13-.65,1.75-2.05,1.75-3.95,0-4.04-2.85-8.99-6.35-11-.98-.56-1.92-.85-2.75-.85h0ZM16.13,30.3c-.95,0-1.99-.31-3.06-.93-3.67-2.12-6.66-7.3-6.66-11.54,0-2.12.73-3.71,2.06-4.48,1.33-.76,3.07-.61,4.91.45,3.68,2.12,6.67,7.3,6.67,11.54,0,2.12-.73,3.71-2.06,4.49-.55.31-1.18.47-1.85.47Z"/>
      <path class="cls-3" d="M3.97,16.35l3.41-1.97.24-.08c.53-.15,1.12-.17,1.66-.08,1.54.24,3.06,1.24,4.17,2.29,2.38,2.22,4.27,5.77,4.54,9.04.09,1.12,0,2.38-.48,3.41-.19.4-.46.81-.78,1.12l-.19.16-3.41,1.98c.14-.12.25-.23.37-.37.37-.42.65-.96.82-1.5.48-1.52.3-3.36-.1-4.88-.81-3.02-2.86-6.24-5.45-8.04-1-.7-2.25-1.29-3.49-1.31-.35-.01-.74.03-1.07.13l-.25.09Z"/>
      <path class="cls-2" d="M5.47,15.83c1.37.09,2.64.78,3.48,1.37,2.51,1.75,4.7,4.97,5.57,8.21.29,1.08.69,3.19.1,5.05-.08.25-.18.49-.29.71l2.05-1.18.14-.14c.27-.25.53-.63.71-1.02.51-1.09.52-2.37.45-3.26-.25-3.03-2.04-6.59-4.44-8.84-.76-.71-2.29-1.95-4.01-2.21-.53-.09-1.07-.06-1.52.07l-.23.08-2,1.16h0ZM13.13,32.53c-.1,0-.19-.04-.25-.13-.09-.12-.07-.3.05-.41.14-.12.24-.21.35-.34.32-.36.59-.84.76-1.38.55-1.7.17-3.68-.11-4.7-.83-3.11-2.92-6.2-5.33-7.86-1.14-.79-2.32-1.23-3.32-1.25-.32,0-.69.03-.98.11l-.24.08c-.15.05-.31-.02-.38-.17-.06-.14,0-.31.13-.39l3.41-1.97.3-.1c.55-.17,1.18-.19,1.8-.1,1.88.28,3.52,1.61,4.34,2.37,2.55,2.38,4.37,6.01,4.64,9.23.08.96.06,2.35-.51,3.57-.21.46-.52.89-.85,1.21l-.2.18-3.46,2s-.1.04-.15.04Z"/>
      <path class="cls-4" d="M7.87,33.41C3.69,31,.31,25.14.31,20.32s3.38-6.78,7.56-4.36c4.17,2.41,7.56,8.28,7.56,13.1s-3.39,6.77-7.56,4.36Z"/>
      <path class="cls-2" d="M4.49,15.22c-.67,0-1.28.16-1.82.46-1.33.78-2.06,2.42-2.06,4.64,0,4.72,3.32,10.47,7.41,12.83,1.92,1.11,3.71,1.3,5.04.53,1.33-.76,2.06-2.4,2.06-4.62,0-4.72-3.33-10.47-7.41-12.84-1.15-.66-2.24-.99-3.22-.99h0ZM11.25,34.75c-1.09,0-2.29-.36-3.53-1.08h0C3.46,31.22,0,25.23,0,20.32c0-2.45.84-4.29,2.37-5.16,1.53-.89,3.54-.69,5.65.53,4.25,2.46,7.72,8.45,7.72,13.37,0,2.44-.84,4.28-2.37,5.15-.63.36-1.35.55-2.12.55Z"/>
      <path class="cls-1" d="M7.87,31.01c-3.03-1.76-5.48-6-5.48-9.5s2.46-4.92,5.48-3.16c3.03,1.74,5.48,6,5.48,9.5s-2.46,4.91-5.48,3.16Z"/>
      <path class="cls-2" d="M8.02,30.75c1.37.79,2.64.93,3.57.39.94-.54,1.45-1.71,1.45-3.28,0-3.4-2.39-7.55-5.33-9.24-1.37-.78-2.64-.92-3.57-.38-.94.54-1.45,1.7-1.45,3.28,0,3.39,2.39,7.54,5.33,9.23h0ZM10.32,32.08c-.81,0-1.69-.27-2.6-.8h0c-3.11-1.79-5.64-6.17-5.64-9.76,0-1.81.63-3.16,1.76-3.81,1.14-.66,2.62-.52,4.18.38,3.11,1.79,5.64,6.17,5.64,9.77,0,1.8-.62,3.15-1.76,3.81-.47.27-1.01.41-1.58.41Z"/>
      <path class="cls-1" d="M8.6,28.36c1.26-.73,2.42-1.04,1.88-3.35-.47-2.04-2.65-4.61-4.33-3.73l-1.23.7c2.56-1.21,6.01,4.76,3.68,6.38Z"/>
      <path class="cls-2" d="M6.21,21.59c1.04.28,2.03,1.27,2.65,2.36.63,1.09.99,2.43.72,3.47.61-.44.91-.99.59-2.36-.33-1.43-1.49-2.99-2.59-3.49-.48-.23-.91-.23-1.29-.03l-.09.05h0ZM8.6,28.66c-.1,0-.2-.04-.26-.14-.09-.14-.05-.32.08-.42,1.04-.72.68-2.49-.1-3.84-.78-1.35-2.13-2.54-3.28-2.01-.15.07-.33.02-.4-.13-.08-.15-.02-.33.12-.41l1.23-.71c.56-.3,1.2-.29,1.85,0,1.42.65,2.61,2.5,2.93,3.92.53,2.29-.52,2.86-1.63,3.47-.13.07-.26.15-.4.23-.05.03-.1.03-.16.03Z"/>
      <path class="cls-1" d="M6.76,28.17c1.44.83,2.6.16,2.6-1.5s-1.16-3.68-2.6-4.51c-1.44-.83-2.6-.16-2.6,1.5s1.17,3.68,2.6,4.51Z"/>
      <path class="cls-2" d="M5.6,22.11c-.19,0-.37.04-.52.13-.39.22-.61.73-.61,1.42,0,1.56,1.1,3.47,2.45,4.24h0c.59.35,1.14.41,1.53.18.39-.23.61-.73.61-1.42,0-1.56-1.1-3.46-2.45-4.24-.36-.21-.71-.31-1.01-.31h0ZM7.92,28.84c-.41,0-.86-.13-1.32-.39h0c-1.52-.88-2.76-3.03-2.76-4.78,0-.91.33-1.61.92-1.95.59-.35,1.35-.28,2.15.18,1.55.89,2.76,2.99,2.76,4.77,0,.92-.33,1.61-.92,1.95-.25.14-.53.21-.83.21Z"/>
      <path class="cls-4" d="M2.52,15.42c1.4-.82,2.32-1.15,4.1-.66,7.31,2.04,12.69,15.51,7.24,18.81l-.64.37c3.65-2.31,2.06-8.34.49-11.45-1.67-3.29-5.5-7.78-9.44-7.58-.67.04-1.16.19-1.74.51Z"/>
      <path class="cls-2" d="M7.7,15.48c2.76,1.5,5.11,4.56,6.28,6.88.88,1.74,1.87,4.61,1.77,7.2.06-.69.04-1.43-.07-2.25-.61-4.45-3.87-9.93-7.98-11.82h0ZM13.22,34.25c-.1,0-.2-.05-.26-.15-.09-.14-.04-.33.1-.42,3.31-2.1,2.04-7.76.38-11.05-1.56-3.09-5.31-7.61-9.15-7.4-.59.03-1.03.15-1.62.46-.15.08-.33.03-.41-.12-.08-.15-.03-.33.12-.42,1.53-.89,2.52-1.2,4.34-.69,4.88,1.36,8.89,7.7,9.58,12.76.43,3.12-.38,5.47-2.27,6.61l-.65.37s-.1.04-.16.04Z"/>
    </g>
  </g>
</svg>