<?xml version="1.0" encoding="UTF-8"?>
<svg id="Layer_2" data-name="Layer 2" xmlns="http://www.w3.org/2000/svg" viewBox="0 0 70.82 82.35" fill="currentColor">
  <defs>
    <style>
      .cls-1 {
        fill: #fff;
      }

      .cls-1, .cls-2, .cls-3, .cls-4 {
        fill-rule: evenodd;
      }

      .cls-2 {
        fill: #1a87c7;
      }

      .cls-3, .cls-5 {
        fill: #bdedf8;
      }

      .cls-4 {
        fill: #66ceef;
      }
    </style>
  </defs>
  <g id="_Layer_" data-name="&amp;lt;Layer&amp;gt;">
    <g>
      <polygon class="cls-4" points="70.21 22.75 57.99 15.7 51.07 17.14 63.29 24.19 70.21 22.75"/>
      <path class="cls-2" d="M52.78,17.41l10.62,6.13,5.1-1.07-10.62-6.13-5.1,1.06h0ZM63.29,24.81c-.11,0-.21-.03-.3-.08l-12.22-7.05c-.22-.13-.34-.38-.3-.63.04-.25.23-.45.48-.5l6.91-1.45c.14-.03.3,0,.44.07l12.22,7.05c.22.13.33.38.3.63-.04.25-.24.46-.48.51l-6.92,1.44s-.08.02-.13.02Z"/>
      <polygon class="cls-4" points="58.51 7.67 46.29 .61 39.85 8.18 52.06 15.23 58.51 7.67"/>
      <path class="cls-2" d="M40.79,8.01l11.14,6.43,5.63-6.61-11.13-6.42-5.63,6.61h0ZM52.06,15.85c-.1,0-.21-.03-.3-.08l-12.22-7.05c-.16-.09-.27-.25-.3-.43-.03-.18.02-.36.14-.5L45.82.22c.19-.23.52-.28.77-.13l12.22,7.05c.16.09.27.25.3.43.03.18-.02.37-.14.51l-6.45,7.56c-.12.14-.29.21-.47.21Z"/>
      <polygon class="cls-4" points="52.06 15.23 39.85 8.18 36.18 8.54 48.4 15.6 52.06 15.23"/>
      <path class="cls-2" d="M38.15,8.96l10.39,6,1.56-.16-10.39-5.99-1.56.15h0ZM48.4,16.21c-.11,0-.21-.03-.31-.08l-12.22-7.06c-.23-.13-.35-.4-.29-.66.06-.26.28-.46.54-.48l3.67-.37c.13-.01.26.02.37.08l12.22,7.06c.24.13.35.4.29.66-.06.26-.27.46-.54.48l-3.67.37s-.04,0-.06,0Z"/>
      <polygon class="cls-3" points="46.19 8.89 33.97 1.83 24.63 7.22 36.85 14.27 46.19 8.89"/>
      <path class="cls-2" d="M25.87,7.22l10.98,6.35,8.11-4.68-10.99-6.35-8.1,4.68h0ZM36.85,14.89c-.11,0-.21-.03-.31-.08l-12.22-7.05c-.19-.11-.31-.31-.31-.54s.12-.42.31-.53l9.34-5.39c.18-.11.42-.11.61,0l12.22,7.05c.19.11.31.31.31.53s-.12.42-.31.53l-9.34,5.39c-.09.05-.2.08-.3.08Z"/>
      <polygon class="cls-4" points="36.85 14.27 24.63 7.22 22.43 16.48 34.65 23.53 36.85 14.27"/>
      <path class="cls-2" d="M23.13,16.18l11.1,6.41,1.91-8.01-11.1-6.41-1.91,8.01h0ZM34.65,24.15c-.11,0-.22-.03-.31-.08l-12.22-7.06c-.24-.13-.36-.41-.29-.68l2.21-9.25c.05-.19.18-.35.36-.42.17-.07.38-.06.55.03l12.21,7.06c.23.14.36.41.29.67l-2.21,9.26c-.05.19-.18.35-.35.42-.08.03-.16.05-.25.05Z"/>
      <polygon class="cls-3" points="34.65 23.53 22.43 16.48 18.76 20.35 30.98 27.4 34.65 23.53"/>
      <path class="cls-2" d="M19.74,20.21l11.12,6.42,2.8-2.95-11.12-6.42-2.79,2.95h0ZM30.98,28.02c-.11,0-.21-.03-.31-.08l-12.21-7.05c-.16-.09-.28-.26-.3-.45-.03-.18.03-.37.16-.51l3.67-3.87c.19-.21.51-.25.75-.11l12.22,7.05c.16.09.27.26.3.45.03.18-.03.38-.16.51l-3.66,3.87c-.12.13-.28.19-.45.19Z"/>
      <polygon class="cls-4" points="30.98 27.4 18.76 20.35 12.31 20.23 24.53 27.29 30.98 27.4"/>
      <path class="cls-2" d="M24.7,26.67l3.9.07-10.01-5.78-3.9-.07,10.01,5.78h0ZM30.98,28.02h-.01l-6.45-.12c-.1,0-.2-.03-.29-.09l-12.21-7.05c-.25-.14-.36-.42-.29-.7.07-.27.32-.45.59-.45h.02l6.45.12c.1,0,.2.03.29.08l12.22,7.05c.24.14.36.42.29.7-.08.27-.32.45-.6.45Z"/>
      <rect class="cls-5" x="8.54" y="22.41" width="13.18" height="14.11" transform="translate(-17.95 27.84) rotate(-60.01)"/>
      <path class="cls-2" d="M6.57,31.42l11.15,6.44,5.97-10.35-11.15-6.44-5.97,10.35h0ZM17.95,39.32c-.11,0-.22-.03-.31-.08l-12.22-7.05c-.29-.17-.39-.55-.23-.84l6.59-11.41c.08-.14.21-.25.37-.28.16-.05.32-.03.47.06l12.22,7.05c.29.17.39.55.22.84l-6.59,11.41c-.08.14-.22.25-.37.29-.06.01-.11.02-.16.02Z"/>
      <polygon class="cls-4" points="17.95 38.7 5.72 31.64 9.06 37.17 7.53 42.28 19.75 49.33 21.27 44.22 17.95 38.7"/>
      <path class="cls-2" d="M8.26,41.99l11.12,6.42,1.22-4.1-3.11-5.16-10.01-5.78,2.1,3.47c.09.15.12.33.06.49l-1.38,4.65h0ZM19.75,49.95c-.11,0-.22-.03-.31-.08l-12.21-7.05c-.25-.14-.37-.44-.28-.71l1.44-4.85-3.19-5.29c-.15-.24-.11-.55.09-.75.19-.2.5-.25.74-.1l12.22,7.05c.09.05.17.13.22.22l3.33,5.52c.08.15.11.33.06.5l-1.52,5.11c-.06.18-.19.32-.37.39-.07.03-.15.05-.23.05Z"/>
      <polygon class="cls-3" points="19.75 49.33 7.53 42.28 .62 48.82 12.84 55.87 19.75 49.33"/>
      <path class="cls-2" d="M1.64,48.7l11.1,6.41,5.98-5.66-11.1-6.41-5.98,5.65h0ZM12.84,56.49c-.1,0-.21-.03-.31-.08L.31,49.35c-.17-.1-.28-.27-.3-.46-.02-.19.05-.38.19-.52l6.92-6.54c.2-.19.49-.22.73-.08l12.22,7.05c.17.1.28.27.3.47.03.19-.04.39-.18.52l-6.92,6.54c-.12.11-.27.17-.42.17Z"/>
      <path class="cls-4" d="M12.84,55.87L.62,48.82v10.78l7.56,4.36-2.46,6.91,12.22,7.05,3.32-9.36-1.52-3.36-6.91-3.99v-5.34Z"/>
      <path class="cls-2" d="M6.48,70.6l11.14,6.43,2.99-8.43-1.33-2.95-6.74-3.9c-.19-.1-.31-.31-.31-.53v-4.99l-10.99-6.34v9.36l7.26,4.19c.26.15.37.46.27.74l-2.28,6.43h0ZM17.95,78.55c-.11,0-.22-.03-.31-.08l-12.22-7.05c-.26-.15-.37-.46-.27-.74l2.28-6.42L.31,60.13c-.19-.11-.31-.31-.31-.53v-10.78c0-.21.12-.42.31-.53.19-.11.42-.11.61,0l12.22,7.05c.19.11.3.31.3.53v4.99l6.61,3.81c.11.06.2.16.25.28l1.52,3.36c.06.14.07.31.02.46l-3.33,9.37c-.06.17-.19.3-.37.37-.07.03-.14.04-.21.04Z"/>
      <polygon class="cls-4" points="34.65 73.81 22.43 66.75 24.63 73.46 36.85 80.52 34.65 73.81"/>
      <path class="cls-2" d="M25.15,73.05l10.62,6.13-1.63-4.95-10.62-6.13,1.63,4.96h0ZM36.85,81.14c-.11,0-.21-.03-.31-.08l-12.22-7.06c-.13-.07-.23-.19-.28-.33l-2.21-6.71c-.08-.24,0-.51.2-.67.2-.16.47-.18.7-.05l12.22,7.05c.13.07.23.2.28.34l2.2,6.71c.08.25,0,.51-.19.67-.11.09-.25.14-.39.14Z"/>
      <path class="cls-4" d="M37.35,51.92l-12.22-7.05c.73.38,1.39.48,2.22.33,2.69-.47,5.09-3.22,6.33-5.52,1.15-2.14,2.12-5.42,1.08-7.76-.3-.68-.68-1.12-1.29-1.5l12.22,7.05c2.26,1.37,1.88,4.86,1.18,7-.97,2.97-3.45,6.48-6.48,7.56-.91.32-1.93.41-2.82,0l-.22-.12Z"/>
      <path class="cls-2" d="M37.65,51.39l.2.11c.79.37,1.71.18,2.34-.04,2.79-.99,5.18-4.35,6.09-7.17.72-2.21.91-5.18-.91-6.29l-9.8-5.65c.71,2.44-.19,5.48-1.35,7.62-1.22,2.27-3.59,5.07-6.38,5.75l9.8,5.66h0ZM38.88,52.94c-.5,0-1.04-.09-1.57-.34l-.24-.13s-.02-.01-.03-.02l-12.22-7.05c-.29-.17-.39-.53-.23-.83.16-.3.53-.41.83-.25.6.31,1.13.39,1.83.27,2.35-.41,4.65-2.91,5.89-5.21,1.07-2,2-5.09,1.06-7.22-.25-.55-.55-.9-1.06-1.23-.28-.18-.37-.56-.19-.84.17-.29.55-.38.83-.22l12.21,7.05c2.46,1.49,2.36,4.97,1.46,7.73-.98,3.01-3.55,6.78-6.86,7.95-.47.16-1.07.31-1.72.31Z"/>
      <path class="cls-3" d="M45.69,47.11c-2.31,3.99-6.04,6.14-8.34,4.81-2.3-1.33-2.3-5.64,0-9.63,2.3-3.99,6.04-6.15,8.34-4.81,2.3,1.33,2.3,5.64,0,9.64h0ZM61.77,45.18l1.51-5.11,6.92-6.54v-10.78l-6.92,1.44-1.51-3.36,3.32-9.36c-2.19-1.27-4.39-2.54-6.59-3.8l-6.45,7.57-3.66.36-2.21-6.71c-3.11,1.8-6.23,3.59-9.34,5.39l-2.21,9.26-3.67,3.87-6.45-.12c-2.2,3.8-4.4,7.61-6.59,11.41l3.32,5.52-1.52,5.11-6.91,6.55v10.77l6.91-1.44,1.52,3.36-3.32,9.36c2.19,1.27,4.39,2.54,6.59,3.8l6.45-7.56,3.67-.36,2.21,6.71c3.11-1.8,6.23-3.59,9.34-5.39l2.21-9.25,3.66-3.87,6.45.12c2.2-3.81,4.39-7.61,6.59-11.42l-3.32-5.52h0Z"/>
      <path class="cls-2" d="M44.15,37.7c-.7,0-1.49.25-2.32.73-1.49.85-2.89,2.34-3.95,4.18-1.06,1.83-1.65,3.79-1.65,5.5,0,1.59.5,2.76,1.42,3.29.91.52,2.17.38,3.55-.42,1.48-.85,2.89-2.34,3.95-4.17h0c2.09-3.63,2.2-7.66.23-8.79-.36-.21-.78-.31-1.23-.31h0ZM38.89,52.94c-.67,0-1.29-.16-1.84-.48-1.31-.75-2.04-2.3-2.04-4.35,0-1.92.65-4.1,1.81-6.12,1.17-2.02,2.73-3.66,4.4-4.63,1.78-1.02,3.47-1.17,4.78-.41,2.64,1.52,2.74,6.13.22,10.47h0c-1.16,2.02-2.72,3.66-4.39,4.63-1.03.59-2.03.89-2.94.89h0ZM18.7,77.65l3.15-8.88c.05-.15.04-.32-.02-.46l-1.52-3.36c-.12-.26-.4-.41-.69-.35l-6.17,1.28v-9.76l6.72-6.36c.08-.07.14-.17.17-.27l1.52-5.11c.05-.17.02-.35-.06-.5l-3.14-5.21,6.22-10.78,6.08.11h.01c.17,0,.33-.07.45-.19l3.66-3.87c.07-.07.13-.17.15-.28l2.14-9,8.45-4.88,1.97,5.98c.09.28.36.46.64.42l3.67-.37c.16-.01.3-.09.41-.21l6.12-7.17,5.7,3.29-3.15,8.88c-.05.15-.05.31.02.46l1.52,3.36c.12.26.39.41.69.35l6.17-1.28v9.75l-6.72,6.36c-.08.07-.14.17-.17.27l-1.52,5.11c-.05.17-.03.35.06.49l3.14,5.21-6.22,10.78-6.08-.12c-.23,0-.34.07-.46.19l-3.67,3.87c-.07.08-.13.17-.15.28l-2.14,9-8.45,4.88-1.96-5.99c-.09-.27-.37-.47-.65-.42l-3.66.36c-.16.02-.31.09-.41.22l-6.11,7.17-5.7-3.29h0ZM24.53,82.35c-.1,0-.21-.03-.31-.08l-6.59-3.8c-.26-.15-.38-.46-.27-.74l3.24-9.13-1.21-2.68-6.43,1.34c-.17.04-.37-.01-.51-.13-.15-.12-.23-.29-.23-.48v-10.77c0-.17.07-.33.19-.45l6.79-6.43,1.4-4.69-3.19-5.29c-.12-.19-.12-.43,0-.63l6.59-11.41c.11-.19.31-.31.53-.31h.01l6.17.12,3.37-3.55,2.16-9.1c.04-.16.15-.3.29-.39l9.34-5.39c.16-.09.36-.11.53-.04.17.07.31.21.36.38l2.05,6.24,2.93-.29,6.28-7.37c.19-.23.52-.28.78-.14l6.59,3.81c.26.15.37.46.27.74l-3.24,9.13,1.22,2.68,6.43-1.34c.18-.04.37,0,.51.13.15.12.23.29.23.48v10.78c0,.17-.07.33-.2.45l-6.79,6.43-1.39,4.69,3.19,5.29c.12.19.12.43,0,.62l-6.59,11.42c-.11.19-.25.31-.54.31l-6.18-.11-3.36,3.55-2.17,9.09c-.04.17-.15.31-.29.39l-9.34,5.39c-.16.09-.36.11-.52.04-.17-.07-.31-.21-.37-.38l-2.05-6.24-2.93.29-6.29,7.38c-.12.14-.29.21-.47.21Z"/>
      <path class="cls-1" d="M45.69,47.11c-2.31,3.99-6.04,6.14-8.34,4.81-2.3-1.33-2.3-5.64,0-9.63,2.3-3.99,6.04-6.15,8.34-4.81,2.3,1.33,2.3,5.64,0,9.64h0ZM53.18,51.44c6.45-11.15,6.45-23.22,0-26.93-6.44-3.72-16.88,2.31-23.32,13.47-6.44,11.16-6.44,23.21,0,26.93,6.44,3.72,16.88-2.31,23.32-13.47h0Z"/>
      <path class="cls-2" d="M44.15,37.7c-.7,0-1.49.25-2.32.73-1.49.85-2.89,2.34-3.95,4.18-1.06,1.83-1.65,3.79-1.65,5.5,0,1.59.5,2.76,1.42,3.29.91.52,2.17.38,3.55-.42,1.48-.85,2.89-2.34,3.95-4.17h0c2.09-3.63,2.2-7.66.23-8.79-.36-.21-.78-.31-1.23-.31h0ZM38.89,52.94c-.67,0-1.29-.16-1.84-.48-1.31-.75-2.04-2.3-2.04-4.35,0-1.92.65-4.1,1.81-6.12,1.17-2.02,2.73-3.66,4.4-4.63,1.78-1.02,3.47-1.17,4.78-.41,2.64,1.52,2.74,6.13.22,10.47h0c-1.16,2.02-2.72,3.66-4.39,4.63-1.03.59-2.03.89-2.94.89h0ZM48.87,24.01c1.45,0,2.8.33,4.01,1.03,2.91,1.68,4.52,5.29,4.52,10.14s-1.69,10.64-4.75,15.95h0c-6.26,10.84-16.35,16.78-22.48,13.24-6.14-3.54-6.04-15.25.23-26.09,5.03-8.72,12.54-14.27,18.48-14.27h0ZM34.1,66.6c-1.64,0-3.18-.38-4.55-1.16-6.72-3.89-6.82-16.34-.23-27.78,6.6-11.43,17.45-17.57,24.17-13.69,3.32,1.91,5.14,5.89,5.14,11.21s-1.75,11.08-4.92,16.56h0c-5.25,9.1-13.2,14.85-19.62,14.85Z"/>
      <path class="cls-3" d="M45.69,47.11c2.3-3.99,2.3-8.3,0-9.64-2.31-1.33-6.04.83-8.34,4.81-2.3,3.99-2.3,8.3,0,9.63,2.3,1.33,6.04-.82,8.34-4.81h0ZM32.67,39.59c4.89-8.47,12.82-13.05,17.71-10.23,4.89,2.82,4.89,11.98,0,20.46-4.89,8.47-12.82,13.05-17.71,10.22-4.89-2.82-4.89-11.98,0-20.45h0Z"/>
      <path class="cls-2" d="M44.15,37.7c-.7,0-1.49.25-2.32.73-1.49.85-2.89,2.34-3.95,4.18-1.06,1.83-1.65,3.79-1.65,5.5,0,1.59.5,2.76,1.42,3.29.91.52,2.17.38,3.55-.42,1.48-.85,2.89-2.34,3.95-4.17h0c2.09-3.63,2.2-7.66.23-8.79-.36-.21-.78-.31-1.23-.31h0ZM38.89,52.94c-.67,0-1.29-.16-1.84-.48-1.31-.75-2.04-2.3-2.04-4.35,0-1.92.65-4.1,1.81-6.12,1.17-2.02,2.73-3.66,4.4-4.63,1.78-1.02,3.47-1.17,4.78-.41,2.64,1.52,2.74,6.13.22,10.47h0c-1.16,2.02-2.72,3.66-4.39,4.63-1.03.59-2.03.89-2.94.89h0ZM32.67,39.59h.02-.02ZM47.09,29.14c1.07,0,2.09.25,2.98.76,4.59,2.65,4.48,11.45-.23,19.61-4.72,8.16-12.28,12.65-16.87,10-2.16-1.25-3.36-3.94-3.36-7.58s1.27-8.03,3.58-12.03h0c3.8-6.57,9.44-10.76,13.9-10.76h0ZM35.87,61.48c-1.27,0-2.46-.29-3.52-.9-2.57-1.48-3.98-4.55-3.98-8.65s1.33-8.46,3.75-12.65c5.05-8.75,13.38-13.43,18.55-10.45,5.17,2.99,5.28,12.54.23,21.29-4.02,6.96-10.11,11.35-15.04,11.35Z"/>
      <path class="cls-2" d="M12.84,67.27c-.1,0-.21-.03-.31-.08L.31,60.13c-.29-.17-.39-.55-.22-.84.17-.3.55-.39.84-.23l12.22,7.05c.29.17.39.55.22.84-.11.2-.32.31-.53.31Z"/>
      <path class="cls-2" d="M21.27,44.84c-.11,0-.21-.03-.31-.08l-12.21-7.05c-.3-.17-.4-.54-.22-.84.17-.29.55-.39.84-.23l12.22,7.05c.29.17.39.55.22.84-.11.2-.31.31-.53.31Z"/>
    </g>
  </g>
</svg>