<?xml version="1.0" encoding="UTF-8"?>
<svg id="Layer_2" data-name="Layer 2" xmlns="http://www.w3.org/2000/svg" viewBox="0 0 44.77 42.62" fill="currentColor">
  <defs>
    <style>
      .cls-1 {
        fill: #fff;
      }

      .cls-1, .cls-2, .cls-3, .cls-4 {
        fill-rule: evenodd;
      }

      .cls-2 {
        fill: #1a87c7;
      }

      .cls-3 {
        fill: #bdedf8;
      }

      .cls-4 {
        fill: #66ceef;
      }
    </style>
  </defs>
  <g id="_Layer_" data-name="&amp;lt;Layer&amp;gt;">
    <g>
      <path class="cls-3" d="M44.05,16.98L26.53,6.87c-.34-.16-.6-.08-.91.09L1.63,20.8c-.43.27-.66.54-.91.97l17.52,10.12c.26-.42.49-.7.91-.97l23.99-13.85c.32-.16.58-.25.91-.09Z"/>
      <path class="cls-2" d="M1.2,21.66l16.94,9.78c.21-.3.46-.56.84-.8l24-13.85s.03-.01.04-.02L26.37,7.16c-.17-.08-.3-.06-.6.09L1.8,21.09c-.26.17-.45.35-.61.57h0ZM18.24,32.22c-.06,0-.11-.02-.17-.05L.55,22.06c-.07-.04-.13-.12-.16-.21-.02-.09,0-.18.04-.26.27-.43.53-.76,1.03-1.07L25.45,6.66c.34-.17.73-.34,1.23-.1l17.55,10.13c.16.09.22.29.13.45-.09.16-.28.22-.45.15-.19-.09-.31-.07-.62.08l-23.97,13.84c-.38.24-.57.49-.8.85-.07.1-.17.16-.28.16Z"/>
      <path class="cls-1" d="M44.44,17.82c0-.41-.15-.7-.39-.84-.23-.14-.55-.12-.91.09l-23.99,13.85c-.35.21-.69.56-.91.96h0c-.24.41-.38.87-.38,1.28v8.2c0,.41.14.7.38.84.24.13.56.11.91-.09l23.99-13.85c.36-.2.68-.56.91-.96h0c.23-.41.38-.87.38-1.28v-8.2Z"/>
      <path class="cls-2" d="M43.72,17.23c-.12,0-.26.04-.41.13l-23.99,13.85c-.3.17-.58.48-.8.84-.21.37-.33.77-.33,1.11v8.2c0,.27.08.47.22.55.13.08.34.04.57-.09l23.99-13.85c.29-.17.58-.48.8-.84.21-.37.33-.77.33-1.11v-8.2c0-.27-.07-.47-.21-.54-.05-.03-.11-.04-.17-.04h0ZM18.57,42.62c-.18,0-.35-.04-.5-.13-.35-.2-.55-.6-.55-1.13v-8.2c0-.46.15-.97.43-1.45.28-.47.65-.86,1.04-1.09l23.99-13.85c.45-.26.91-.29,1.25-.09.35.2.55.62.55,1.13v8.2c0,.46-.15.97-.43,1.45-.27.48-.65.86-1.04,1.09l-23.99,13.85c-.26.15-.51.22-.75.22Z"/>
      <polygon class="cls-4" points="41.04 25.67 43.36 24.34 43.36 21.67 41.04 23 41.04 25.67"/>
      <path class="cls-2" d="M41.39,23.2v1.9l1.63-.95v-1.89l-1.63.95h0ZM41.04,26.01c-.06,0-.11-.01-.16-.05-.11-.06-.17-.17-.17-.29v-2.67c0-.12.06-.23.17-.29l2.31-1.34c.11-.06.24-.06.34,0,.1.06.16.17.16.29v2.67c0,.12-.06.23-.16.29l-2.32,1.33c-.06.03-.11.05-.17.05Z"/>
      <path class="cls-4" d="M18.24,31.89L.72,21.77c-.25.43-.36.77-.38,1.27v8.2c.01.36.07.62.38.84l17.52,10.12c-.31-.22-.36-.48-.38-.84v-8.2c.02-.5.14-.84.38-1.28h0Z"/>
      <path class="cls-2" d="M.86,22.24c-.11.25-.17.49-.18.82v8.18c.02.32.07.44.23.56l16.62,9.59s0-.01,0-.02v-8.21c.02-.47.12-.81.27-1.15L.86,22.24h0ZM18.24,42.53c-.06,0-.11-.01-.17-.05L.55,32.37c-.47-.33-.53-.75-.55-1.12v-8.21c.03-.6.18-.99.42-1.44.05-.08.12-.14.21-.16.09-.03.18-.01.26.03l17.53,10.12c.15.09.21.28.13.44h0c-.21.39-.32.68-.34,1.14v8.18c.02.32.07.44.24.56.15.1.19.3.09.45-.07.1-.17.16-.28.16Z"/>
      <polygon class="cls-4" points="37.71 27.6 40.02 26.27 40.02 23.59 37.71 24.93 37.71 27.6"/>
      <path class="cls-2" d="M38.04,25.12v1.9l1.64-.95v-1.9l-1.64.95h0ZM37.71,27.94c-.06,0-.11-.02-.17-.05-.11-.06-.17-.17-.17-.29v-2.67c0-.12.07-.23.17-.29l2.32-1.34c.1-.06.23-.06.33,0,.1.06.17.17.17.29v2.67c0,.12-.07.23-.17.29l-2.31,1.33c-.06.03-.11.05-.17.05Z"/>
      <path class="cls-2" d="M20.21,36.25c-.11,0-.23-.06-.29-.17-.09-.16-.04-.37.12-.46l14.44-8.33c.15-.09.36-.04.45.12.1.16.04.37-.12.46l-14.44,8.34c-.06.03-.11.05-.17.05Z"/>
      <path class="cls-4" d="M29.45,19.13c-.83-.48-4.98-2.76-5.35-3.18-.86-.99-.35-3.14-1.15-3.67.72.41,4.99,2.76,5.22,3.11.51.78.02,2.91,1.27,3.74Z"/>
      <path class="cls-2" d="M23.73,13.1c.05.25.08.52.11.79.08.7.15,1.42.52,1.84.25.27,2.7,1.66,4.02,2.41-.14-.46-.19-.95-.24-1.39-.05-.49-.09-.94-.24-1.17-.26-.27-2.93-1.77-4.17-2.47h0ZM29.45,19.47c-.06,0-.11-.01-.17-.04-.16-.1-.46-.26-.83-.47-2.7-1.52-4.32-2.46-4.59-2.78-.51-.58-.61-1.45-.69-2.21-.07-.6-.13-1.23-.4-1.4-.15-.1-.19-.3-.09-.46.09-.15.29-.2.46-.11.13.08.39.23.73.42,3.7,2.07,4.45,2.57,4.61,2.81.23.36.29.9.35,1.47.09.82.17,1.74.82,2.17.15.1.2.3.11.46-.07.1-.17.16-.28.16Z"/>
      <path class="cls-4" d="M22,9.99l-1.07-.61c-1.08.36-3.99,2.43-4.92,3.66-1.59,2.08-1.56,5.94-1.93,8.8-.16,1.24-.74,3.87-.59,4.78.1.54.33.97.79,1.28-.89-.51-4.92-2.71-5.34-3.18-.9-1.02-.3-2.83-.1-4.12.36-2.32.68-7.35,1.39-9.08.85-2.14,3.43-3.88,5.37-4.89.77-.4.86-.13,1.85.43.18-.09,3.9-2.16,4.24-2.57.9-1.06-.39-1.66,4.02-3.64.74-.34,1.78-.78,2.56-.37l5,2.89c-1.29-.62-3.99,1.01-5.04,1.68-1.46.94-.85,1.99-1.97,2.66-.49.3-3.77,2.32-4.13,2.31l-.16-.05Z"/>
      <path class="cls-2" d="M16.21,6.78c-.11,0-.24.05-.43.16-1.27.65-4.31,2.43-5.23,4.71-.46,1.15-.77,3.95-1.02,6.21-.12,1.06-.23,2.07-.34,2.8-.04.24-.09.5-.14.76-.22,1.12-.47,2.38.16,3.09.27.3,2.67,1.66,4.02,2.41-.03-.08-.04-.16-.06-.24-.11-.71.14-2.23.37-3.56.09-.5.17-.97.22-1.32.08-.62.14-1.29.2-1.98.24-2.48.49-5.29,1.79-6.99.96-1.26,3.93-3.39,5.08-3.77.09-.03.19-.02.27.03l1.08.6c.16-.05.92-.42,3.71-2.12l.22-.14c.41-.25.53-.55.67-.97.18-.5.41-1.12,1.28-1.69,1.19-.76,2.64-1.56,3.86-1.8l-3.8-2.2c-.66-.34-1.66.11-2.27.38-3.03,1.36-3.23,1.99-3.42,2.6-.09.28-.18.59-.48.95-.44.51-4.32,2.64-4.36,2.65-.11.05-.22.04-.31-.01-.19-.11-.35-.21-.49-.29-.31-.2-.46-.29-.61-.29h0ZM14.29,28.24c-.06,0-.11-.02-.17-.05-.18-.11-.49-.28-.87-.5-2.64-1.48-4.24-2.4-4.54-2.75-.86-.96-.56-2.46-.32-3.67.06-.26.11-.5.14-.74.11-.72.22-1.71.33-2.77.28-2.42.57-5.15,1.07-6.39.97-2.4,3.88-4.2,5.54-5.06.76-.4,1.07-.24,1.71.16.09.06.19.12.31.19.75-.41,3.7-2.09,3.98-2.4.21-.24.28-.46.35-.7.23-.75.47-1.53,3.78-3.02.71-.32,1.92-.86,2.87-.36l5,2.89c.16.09.22.29.13.45-.08.16-.28.23-.45.15-.77-.37-2.49.24-4.7,1.66-.69.44-.84.88-1.02,1.35-.16.44-.34.94-.96,1.31l-.22.13c-3.39,2.06-3.85,2.22-4.1,2.22-.03,0-.06,0-.09-.01l-.16-.05s-.05-.02-.08-.03l-.92-.54c-1.14.47-3.78,2.39-4.62,3.49-1.18,1.55-1.44,4.26-1.65,6.64-.07.7-.13,1.37-.21,2-.05.36-.13.83-.22,1.34-.2,1.16-.47,2.74-.37,3.34.08.48.28.81.64,1.06.15.1.19.3.09.46-.07.1-.17.16-.28.16Z"/>
      <path class="cls-1" d="M22.57,9.9l3.72-2.17c1.14-.66.47-1.78,2.12-2.75,7.3-4.25,5-.5,6.83,7.72.22.95-.05,2.12-.71,3.35-.66,1.23-1.54,2.19-2.56,2.78l-.06.03c-1.64.96-3.01.5-3.27-1.09l-.32-1.96c-.11-.75-.76-.97-1.54-.52l-4.78,2.78c-.77.45-1.43,1.42-1.55,2.31l-.33,2.34c-.27,1.9-1.64,3.95-3.3,4.91l-.05.03c-1.03.6-1.91.67-2.55.2-.66-.47-.91-1.33-.69-2.53,1.91-10.38-.37-11.48,6.93-15.73,1.66-.96.97.96,2.1.3Z"/>
      <path class="cls-2" d="M22.17,9.71h.01-.01ZM21.2,9.66c-.1,0-.27.07-.56.23-5.27,3.07-5.39,4.34-5.88,9.07-.17,1.66-.39,3.73-.89,6.43-.13.72-.14,1.7.55,2.2.68.48,1.57.15,2.2-.21,1.61-.94,2.92-2.9,3.18-4.7l.33-2.34c.14-1,.84-2.05,1.72-2.55l4.77-2.78c.52-.3,1.02-.36,1.41-.17.33.16.56.49.63.92l.31,1.97c.09.58.35.99.75,1.18.51.24,1.23.13,2.01-.33,1.02-.6,1.87-1.51,2.5-2.68.64-1.19.88-2.26.69-3.12-.49-2.14-.68-3.97-.84-5.45-.21-1.94-.36-3.35-1.01-3.67-.63-.32-1.98.17-4.48,1.63-.8.47-.98.94-1.16,1.45-.15.44-.34.94-.96,1.3l-3.73,2.17c-.8.46-1.11-.05-1.26-.3-.07-.13-.13-.23-.27-.23h0ZM15.2,28.5c-.51,0-.89-.17-1.17-.37-.54-.39-1.13-1.21-.82-2.87.49-2.67.7-4.72.87-6.38.49-4.74.66-6.34,6.22-9.58,1.05-.61,1.46-.25,1.76.23.04.06.08.15.11.17,0,0,.07,0,.24-.1h0l3.72-2.17c.41-.24.51-.54.66-.95.19-.54.44-1.21,1.44-1.8,2.84-1.65,4.24-2.1,5.13-1.65.98.5,1.13,1.89,1.38,4.21.16,1.46.36,3.27.82,5.37.23,1.01-.04,2.25-.75,3.58-.68,1.28-1.61,2.29-2.68,2.92-1.04.6-1.98.73-2.7.39-.6-.28-1-.88-1.13-1.68l-.31-1.97c-.02-.15-.09-.34-.26-.42-.18-.09-.46-.03-.78.15l-4.77,2.78c-.69.4-1.27,1.27-1.39,2.07l-.33,2.34c-.27,1.98-1.74,4.15-3.45,5.15-.73.43-1.33.58-1.81.58Z"/>
      <path class="cls-2" d="M23.63,15.58c-.11,0-.23-.06-.29-.17-.1-.16-.04-.37.12-.46l2.2-1.27c.16-.1.36-.04.46.12.09.16.04.36-.12.46l-2.18,1.27c-.06.03-.11.05-.17.05Z"/>
      <path class="cls-1" d="M18.78,13.82l.45-.26c.33-.19.6-.04.6.35v.89l.77-.45c.33-.2.61-.04.6.35v.53c0,.39-.27.86-.61,1.05l-.77.45v.89c0,.39-.29.86-.62,1.05l-.46.27c-.33.19-.6.04-.6-.35v-.89l-.77.45c-.33.2-.6.04-.6-.35v-.53c0-.39.27-.86.61-1.05l.77-.45v-.89c.01-.39.29-.86.62-1.06Z"/>
      <path class="cls-2" d="M18.16,15.77h.01-.01ZM17.14,17.91h.01-.01ZM18.16,17.36c.06,0,.12.01.17.04.1.06.17.17.17.29v.89c-.01.05,0,.08,0,.1,0,0,.04-.01.09-.04l.46-.26c.23-.13.44-.5.44-.76v-.89c0-.12.07-.23.17-.29l.77-.45c.24-.13.45-.5.45-.76v-.53c0-.05-.01-.08-.01-.1,0,0-.04.02-.08.04l-.77.45c-.1.06-.24.06-.34,0-.1-.06-.17-.17-.17-.29v-.89c0-.05,0-.08,0-.1-.01,0-.04.01-.08.04l-.46.27c-.24.13-.45.5-.45.76v.89c0,.12-.07.23-.17.29l-.77.45c-.23.13-.44.5-.45.76v.53c0,.05.01.08.02.1,0,0,.04-.02.08-.04l.78-.45s.1-.05.16-.05h0ZM18.49,19.35c-.11,0-.23-.03-.32-.08-.22-.13-.35-.38-.35-.68v-.31s-.26.15-.26.15c-.27.16-.54.17-.77.04-.22-.13-.34-.38-.34-.69v-.53c0-.5.35-1.09.78-1.34l.61-.35v-.7c0-.51.34-1.09.78-1.34h0l.45-.27c.27-.15.54-.17.76-.04.22.13.35.38.35.69v.3s.25-.15.25-.15c.27-.15.55-.17.77-.05.22.13.34.38.34.69v.53c0,.51-.34,1.09-.78,1.34l-.61.35v.7c0,.5-.34,1.09-.78,1.34l-.46.27c-.14.09-.29.13-.44.13Z"/>
      <path class="cls-4" d="M21.55,6.25c.56,0,1.02.26,1.02.59s-.46.59-1.02.59-1.03-.26-1.03-.59.46-.59,1.03-.59Z"/>
      <path class="cls-2" d="M21.55,6.59c-.44,0-.68.19-.68.25s.24.25.68.25.68-.19.68-.25-.25-.25-.68-.25h0ZM21.55,7.76c-.78,0-1.36-.4-1.36-.93s.58-.92,1.36-.92,1.35.4,1.35.92-.58.93-1.35.93Z"/>
      <path class="cls-1" d="M31.9,8.73c.56-.32,1.01-1.1,1.01-1.75s-.45-.9-1.01-.58c-.56.32-1,1.1-1,1.75s.45.9,1,.58Z"/>
      <path class="cls-2" d="M32.34,6.6c-.07,0-.17.03-.27.09-.46.26-.84.93-.84,1.46,0,.18.05.31.13.36.08.05.22.02.37-.07.46-.26.84-.93.84-1.46,0-.18-.05-.32-.13-.36-.02-.01-.06-.02-.1-.02h0ZM31.44,9.2c-.15,0-.3-.04-.43-.11-.3-.17-.47-.52-.47-.94,0-.76.52-1.66,1.18-2.04.38-.21.76-.24,1.05-.07.3.17.47.52.47.95,0,.76-.52,1.66-1.18,2.04-.21.12-.43.18-.63.18Z"/>
      <path class="cls-4" d="M29.68,12.4c.56-.32,1.01-1.1,1.01-1.75s-.45-.9-1.01-.58c-.56.32-1,1.1-1,1.75s.45.9,1,.58Z"/>
      <path class="cls-2" d="M30.13,10.27c-.07,0-.17.03-.27.09-.46.26-.84.93-.84,1.46,0,.18.05.32.13.36.08.05.22.02.37-.07h0c.46-.26.84-.93.84-1.45,0-.18-.05-.32-.13-.36-.02-.01-.05-.02-.09-.02h0ZM29.23,12.87c-.15,0-.3-.03-.43-.11-.3-.17-.47-.52-.47-.94,0-.76.52-1.66,1.18-2.04.37-.22.76-.24,1.05-.07.3.17.47.52.47.94,0,.76-.52,1.66-1.18,2.04h0c-.21.12-.43.18-.63.18Z"/>
      <path class="cls-4" d="M15.92,13.18c-1.47,2.07-1.46,5.87-1.82,8.66-.16,1.24-.74,3.87-.59,4.78.1.54.33.97.79,1.28-.89-.51-4.92-2.71-5.34-3.18-.9-1.02-.3-2.83-.1-4.12.36-2.32.68-7.35,1.39-9.08l.67-1.23,4.99,2.89Z"/>
      <path class="cls-2" d="M11.04,10.76l-.5.93c-.45,1.11-.76,3.92-1.01,6.17-.12,1.06-.23,2.07-.34,2.8-.04.24-.09.5-.14.76-.22,1.12-.47,2.38.16,3.09.27.3,2.67,1.66,4.02,2.41-.03-.08-.04-.16-.06-.24-.11-.71.14-2.23.37-3.56.09-.5.17-.97.22-1.32.08-.62.14-1.29.2-1.97.22-2.28.46-4.84,1.48-6.54l-4.4-2.54h0ZM14.29,28.24c-.06,0-.11-.02-.17-.05-.18-.11-.49-.28-.87-.5-2.64-1.48-4.24-2.4-4.54-2.75-.86-.96-.56-2.46-.32-3.67.06-.26.11-.5.14-.74.11-.72.22-1.71.33-2.77.28-2.42.57-5.15,1.07-6.39l.69-1.26c.04-.08.11-.14.2-.16.09-.02.18-.01.27.03l5,2.89c.08.05.14.13.16.22.02.09,0,.19-.06.27-1.09,1.54-1.34,4.18-1.56,6.51-.07.7-.13,1.37-.21,2-.05.36-.13.83-.22,1.34-.2,1.16-.47,2.74-.37,3.34.08.48.28.81.64,1.06.15.1.19.3.09.46-.07.1-.17.16-.28.16Z"/>
      <path class="cls-2" d="M25.88,3.87l-.2-.27-.13-.31c1.1-.63,1.97-1.12,3.2-1.57.17-.07.37.03.43.2.07.17-.03.37-.2.43-1.18.43-1.98.89-3.1,1.53h0ZM14.19,11.03c-.09,0-.19-.04-.25-.11-.12-.14-.11-.35.04-.48.93-.82,2.69-2.07,3.91-2.67.17-.08.37-.01.45.16.09.17.02.37-.15.45-1.13.55-2.87,1.77-3.77,2.56-.07.05-.14.08-.22.08Z"/>
    </g>
  </g>
</svg>