<?xml version="1.0" encoding="UTF-8"?>
<svg id="Layer_2" data-name="Layer 2" xmlns="http://www.w3.org/2000/svg" viewBox="0 0 41.69 40.5" fill="currentColor">
  <defs>
    <style>
      .cls-1 {
        fill: #fff;
      }

      .cls-1, .cls-2, .cls-3, .cls-4 {
        fill-rule: evenodd;
      }

      .cls-2 {
        fill: #1a87c7;
      }

      .cls-3 {
        fill: #bdedf8;
      }

      .cls-4 {
        fill: #66ceef;
      }
    </style>
  </defs>
  <g id="_Layer_" data-name="&amp;lt;Layer&amp;gt;">
    <g>
      <path class="cls-4" d="M8.84.44c.69-.15,1.43-.16,2.1.06l2.34,1.33c-.41-.14-.76-.21-1.19-.22-1.89-.03-3.8,1.25-5.1,2.51-2.4,2.33-4.31,6.01-4.46,9.38-.06,1.45.21,3.13,1.3,4.18l.1.09c-.64-.37-2.06-1.06-2.5-1.56-1.28-1.45-1.27-3.82-.92-5.61C1.26,6.8,4.6,1.37,8.84.44Z"/>
      <path class="cls-2" d="M8.77.14c.38-.08.78-.13,1.18-.11.37.01.74.07,1.09.19l.06.03,2.34,1.33-.25.56c-.19-.07-.36-.12-.54-.15-.18-.03-.36-.05-.55-.05-.79-.01-1.6.23-2.36.6-.95.47-1.83,1.15-2.53,1.83-1.21,1.17-2.29,2.7-3.08,4.35-.74,1.56-1.22,3.23-1.28,4.82-.03.76.03,1.59.26,2.35.19.6.49,1.16.94,1.6l.1.09-.36.49c-.15-.09-.33-.18-.52-.29-.72-.39-1.67-.9-2.05-1.34-.61-.69-.95-1.57-1.1-2.5-.19-1.14-.09-2.35.11-3.38.42-2.12,1.63-4.74,3.34-6.83C4.98,1.96,6.77.58,8.77.14h0ZM9.93.64c-.34,0-.69.03-1.03.1-1.85.4-3.52,1.71-4.88,3.36-1.65,2.01-2.81,4.52-3.21,6.56-.19.97-.28,2.11-.11,3.16.13.82.43,1.59.95,2.19.2.23.68.53,1.17.81-.12-.25-.23-.51-.31-.77-.26-.83-.33-1.73-.29-2.55.07-1.68.57-3.43,1.34-5.05.82-1.72,1.95-3.31,3.21-4.53.74-.72,1.67-1.44,2.68-1.94.73-.36,1.51-.61,2.29-.65l-.93-.53c-.29-.09-.59-.14-.89-.15Z"/>
      <path class="cls-1" d="M8.96,2.47c-3.64,2.1-6.58,7.2-6.59,11.4,0,4.2,2.94,5.9,6.58,3.81,3.64-2.1,6.58-7.2,6.59-11.4,0-4.2-2.94-5.9-6.58-3.81h0ZM8.87,4.85c2.52-1.45,4.56-.28,4.56,2.63s-2.04,6.44-4.56,7.89c-2.52,1.45-4.55.27-4.55-2.63s2.04-6.44,4.55-7.89Z"/>
      <path class="cls-2" d="M9.11,2.73c-1.77,1.02-3.38,2.78-4.54,4.8-1.17,2.02-1.89,4.29-1.89,6.33,0,1.17.23,2.12.65,2.84.29.5.67.89,1.12,1.15s.98.4,1.56.4c.83,0,1.78-.27,2.79-.86,1.77-1.02,3.38-2.78,4.54-4.8,1.17-2.02,1.89-4.29,1.89-6.33,0-1.16-.23-2.12-.65-2.84-.29-.5-.67-.89-1.12-1.15-.45-.26-.98-.4-1.56-.4-.83,0-1.78.28-2.79.86h0ZM4.04,7.22c1.22-2.11,2.9-3.95,4.77-5.02,1.1-.64,2.15-.94,3.09-.94.69,0,1.32.16,1.87.48.54.31,1,.78,1.35,1.38.47.81.73,1.87.73,3.15,0,2.15-.75,4.54-1.97,6.64-1.22,2.11-2.9,3.95-4.77,5.02-1.1.64-2.16.94-3.09.94-.69,0-1.32-.16-1.87-.48-.54-.31-1-.78-1.35-1.38-.47-.81-.73-1.87-.73-3.15,0-2.15.75-4.53,1.97-6.64h0ZM9.03,5.11c.68-.39,1.32-.58,1.88-.58.39,0,.74.09,1.03.26.3.17.55.43.74.76.28.48.44,1.13.44,1.92,0,1.4-.49,2.95-1.29,4.33-.8,1.38-1.9,2.59-3.11,3.29-.68.39-1.32.58-1.88.58-.39,0-.74-.09-1.03-.26-.3-.17-.55-.43-.74-.76-.28-.48-.44-1.13-.44-1.92,0-1.4.49-2.95,1.29-4.34.8-1.38,1.9-2.59,3.11-3.29h0ZM5.39,8.09c.85-1.47,2.03-2.76,3.33-3.51.78-.45,1.52-.66,2.19-.66.5,0,.95.12,1.34.34.39.23.72.56.97.99.33.58.52,1.33.52,2.23,0,1.51-.53,3.17-1.38,4.64-.85,1.47-2.03,2.76-3.33,3.51-.78.45-1.52.66-2.19.66-.49,0-.95-.12-1.34-.34-.39-.23-.72-.56-.97-.99-.33-.58-.52-1.33-.52-2.23,0-1.51.53-3.17,1.38-4.64Z"/>
      <path class="cls-3" d="M2.62,27.44l9.48-5.47c.23-.1.32-.14.56-.05l2.23,1.29c-.24-.09-.33-.05-.56.05l-9.48,5.47c-.34.21-.7.51-.7.91v10.34s.05.07.05.07l.07.06-2.23-1.29-.07-.06-.06-.07v-10.04c0-.53.26-.93.71-1.21Z"/>
      <path class="cls-2" d="M2.46,27.18l9.51-5.48c.14-.06.23-.11.36-.12.13-.02.26,0,.43.06l.04.02,2.23,1.29-.26.55c-.06-.03-.1-.03-.13-.03-.04,0-.1.03-.18.07l-9.46,5.45c-.15.09-.3.2-.41.33-.09.1-.15.21-.15.32v10.23s.01.01.01.01l-.02.02v.08h-.05l-.28.4-2.23-1.29-.05-.03-.07-.06-.05-.05-.06-.07-.06-.18v-10.04c0-.32.08-.6.22-.84.15-.25.36-.46.63-.63h0ZM12.24,22.25l-9.46,5.46c-.18.11-.33.25-.42.41-.09.15-.14.33-.14.53v9.92s1.61.93,1.61.93v-9.87c0-.28.12-.52.3-.73.16-.18.36-.32.55-.44l9.36-5.4-1.51-.87c-.05-.02-.09-.03-.11-.02-.04,0-.1.03-.18.07Z"/>
      <path class="cls-4" d="M4.18,29.44c-.02.06-.03.13-.03.2v10.34s.05.07.05.07l.07.06-2.23-1.29-.07-.06-.06-.07v-10.04c0-.17.03-.33.08-.48l2.19,1.26Z"/>
      <path class="cls-2" d="M4.47,29.53v.06s-.02.06-.02.06v10.23s.01.01.01.01l-.02.02v.08h-.05l-.28.4-2.23-1.29-.05-.03-.07-.06-.05-.05-.06-.07-.06-.18v-10.04c0-.1.01-.2.03-.3.02-.1.04-.2.07-.28l.44-.16,2.18,1.26.14.36h0ZM3.84,29.64v-.04l-1.62-.93v9.91s1.62.93,1.62.93v-9.87Z"/>
      <path class="cls-1" d="M4.83,28.74l9.48-5.47c.43-.25.79-.04.79.46v9.52c0,.5-.36,1.11-.79,1.36l-9.48,5.47c-.31.18-.57.13-.7-.1v-10.34c.13-.37.4-.73.71-.91Z"/>
      <path class="cls-2" d="M4.68,28.48l9.48-5.47c.17-.1.35-.15.5-.15.13,0,.25.03.36.1.11.06.19.15.26.27.08.14.12.31.12.51v9.52c0,.3-.11.64-.28.93-.17.29-.41.55-.67.7l-9.48,5.47c-.21.12-.42.17-.61.14-.22-.03-.4-.15-.51-.35l-.04-.07c.01-3.49,0-6.98,0-10.48l.02-.05c.08-.22.2-.44.34-.62.14-.19.32-.34.5-.45h0ZM14.47,23.54l-9.48,5.47c-.12.07-.23.17-.32.3-.09.12-.17.26-.23.4v10.17s.02,0,.02,0c.05,0,.13-.01.22-.06l9.48-5.47c.17-.1.33-.27.44-.47s.19-.43.19-.62v-9.52c0-.09-.01-.16-.04-.2,0-.02-.02-.03-.04-.04-.01,0-.03-.01-.05-.01-.05,0-.12.02-.2.06Z"/>
      <path class="cls-4" d="M13.76,30.65c0,1.4-1.6,4.17-2.81,4.86-1.21.7-1.65.5-2.17.07l-1.29-.75s-.13-.12-.16-.16c-.44-.49-.52-1.25-.46-1.88.14-1.69,1.32-3.67,2.79-4.52.49-.28,1.11-.49,1.68-.33l.11.04,1.29.75c.62.23,1.02.51,1.02,1.91Z"/>
      <path class="cls-2" d="M14.07,30.65c0,.75-.42,1.85-.99,2.85-.57.99-1.32,1.9-1.97,2.28-.66.38-1.13.52-1.51.5-.4-.02-.69-.2-.98-.44-.37-.22-.98-.51-1.3-.75-.03-.02-.07-.06-.1-.09l-.11-.11c-.23-.26-.38-.58-.46-.92-.1-.39-.11-.81-.08-1.18.08-.9.43-1.88.96-2.74.52-.84,1.21-1.58,1.99-2.02.29-.17.63-.32.98-.38.31-.06.63-.06.93.03l.14.05,1.3.75c.36.14.65.29.87.63.21.32.33.8.33,1.56h0ZM12.55,33.19c.53-.91.91-1.9.91-2.54s-.08-1-.23-1.23c-.13-.2-.34-.3-.6-.4-.28-.1-1-.57-1.31-.75l-.08-.03c-.21-.06-.42-.05-.64-.01-.28.05-.55.17-.79.31-.68.39-1.3,1.05-1.77,1.81-.48.78-.8,1.66-.87,2.47-.03.32-.02.67.06.99.06.25.17.48.32.66l.11.11c.33.19,1.06.55,1.31.76.21.17.4.3.64.32.27.01.63-.1,1.18-.42.56-.32,1.22-1.14,1.75-2.06Z"/>
      <path class="cls-1" d="M10.96,29.03c1.55-.89,2.81-.17,2.81,1.62s-1.26,3.97-2.81,4.86c-1.55.9-2.81.17-2.81-1.62s1.26-3.97,2.81-4.86Z"/>
      <path class="cls-2" d="M10.8,28.77c.5-.29.98-.43,1.41-.43.32,0,.62.08.88.23.26.15.48.37.64.65.22.37.34.86.34,1.43,0,.95-.33,2-.86,2.92-.53.92-1.28,1.73-2.1,2.21-.5.29-.98.42-1.41.42-.33,0-.62-.08-.89-.23-.26-.15-.48-.37-.64-.65-.22-.37-.34-.86-.34-1.43,0-.95.33-1.99.86-2.92.53-.92,1.28-1.73,2.1-2.21h0ZM12.21,28.96c-.33,0-.7.11-1.1.34-.73.42-1.39,1.15-1.87,1.98-.48.83-.78,1.77-.78,2.61,0,.47.09.85.25,1.13.11.19.25.33.42.43.16.09.36.15.58.15.33,0,.7-.11,1.1-.34.73-.42,1.39-1.15,1.87-1.98.48-.83.78-1.77.78-2.61,0-.47-.09-.84-.25-1.12-.11-.19-.25-.33-.42-.43-.16-.1-.36-.15-.58-.15Z"/>
      <path class="cls-3" d="M17.09,32.62c.43.16.7.62.7,1.32,0,1.23-.87,2.73-1.93,3.35-.6.35-1.14.34-1.49.05l-4.73-2.73s-.09-.09-.11-.11c-.3-.34-.36-.86-.32-1.29.1-1.16.91-2.53,1.92-3.11.38-.22.8-.34,1.23-.2l4.73,2.73Z"/>
      <path class="cls-2" d="M17.22,32.35c.28.11.5.32.66.6.14.27.22.6.22.99,0,.67-.23,1.41-.61,2.06-.37.65-.9,1.22-1.48,1.56-.34.2-.67.29-.97.3-.33.01-.62-.08-.85-.27-1.35-.78-3.55-1.88-4.73-2.73-.02-.02-.05-.04-.08-.07l-.08-.08c-.17-.19-.28-.43-.34-.67-.07-.28-.08-.58-.06-.85.05-.64.3-1.32.67-1.93.37-.59.85-1.11,1.4-1.42.22-.13.45-.23.69-.27.25-.05.52-.04.79.05h.03s4.74,2.74,4.74,2.74h0ZM17.33,33.24c-.09-.16-.21-.27-.36-.33-.96-.35-3.67-2.11-4.74-2.73-.15-.05-.3-.05-.45-.02-.17.03-.34.11-.5.2-.45.26-.87.7-1.18,1.22-.32.52-.54,1.12-.58,1.66-.02.21-.01.44.04.65.04.16.1.3.2.42l.06.06c1.11.64,3.9,2.06,4.75,2.75.12.1.28.15.46.14.2,0,.43-.08.68-.22.49-.28.93-.77,1.25-1.33.32-.56.52-1.19.52-1.75,0-.29-.05-.52-.15-.7Z"/>
      <path class="cls-1" d="M15.71,32.11c.93-.54,1.68-.1,1.68.97s-.75,2.37-1.68,2.91c-.93.54-1.68.1-1.68-.97s.75-2.37,1.68-2.91Z"/>
      <path class="cls-2" d="M15.56,31.85c.32-.18.63-.27.9-.27.22,0,.42.05.59.15.17.1.32.25.43.43.14.24.22.55.22.92,0,.59-.2,1.24-.53,1.81-.33.57-.79,1.07-1.3,1.37-.32.18-.63.27-.9.27-.22,0-.42-.05-.59-.15-.17-.1-.32-.25-.43-.43-.14-.24-.22-.55-.22-.92,0-.59.2-1.24.53-1.81.33-.57.79-1.07,1.3-1.37h0ZM16.46,32.19c-.17,0-.38.06-.6.19-.42.24-.8.66-1.08,1.14-.28.48-.45,1.02-.45,1.5,0,.26.05.46.13.61.05.09.12.16.2.21.08.05.17.07.28.07.17,0,.38-.06.6-.19.42-.24.8-.66,1.08-1.14.28-.48.45-1.02.45-1.5,0-.26-.05-.46-.13-.61-.05-.09-.12-.16-.2-.21-.08-.05-.17-.07-.28-.07Z"/>
      <path class="cls-1" d="M16.93,31.69l.87.5c.42.16.69.61.69,1.29,0,1.21-.85,2.67-1.89,3.28-.59.34-1.11.33-1.46.05l-.87-.5-.06-.05-.05-.06-.05-.06-.05-.07-.04-.07-.04-.07-.03-.08-.03-.08-.03-.09-.02-.09-.02-.1v-.1s-.02-.11-.02-.11v-.11s0-.11,0-.11v-.12s.02-.12.02-.12l.02-.12.02-.12.03-.12.03-.12.03-.12.04-.12.04-.12.05-.12.05-.12.05-.12.06-.11.06-.11.06-.11.07-.11.07-.11.07-.11.07-.1.08-.1.08-.1.08-.09.08-.09.09-.09.09-.08.09-.08.09-.08.09-.07.09-.07.1-.06.1-.06.1-.05.1-.05.09-.04.09-.03.09-.03.09-.02.09-.02h.09s.08-.02.08-.02h.08s.08,0,.08,0h.08s.07.03.07.03l.07.02Z"/>
      <path class="cls-2" d="M17.08,31.42l.85.49c.27.11.5.31.65.6.14.26.22.59.22.97,0,.66-.23,1.38-.6,2.02-.37.64-.88,1.2-1.45,1.53-.33.19-.66.29-.95.3-.32.01-.61-.08-.84-.26l-.88-.51c-1.7-1.53.84-5.86,2.97-5.15l.03.02h0ZM17.65,32.46l-.84-.49c-.19-.06-.34-.04-.53,0-.19.06-.32.12-.49.22-.12.08-.23.16-.34.25-.73.67-1.95,2.77-1.01,3.6.23.13.7.36.88.51.12.1.27.15.45.14.19,0,.42-.08.66-.22.48-.27.91-.75,1.23-1.3.32-.55.51-1.16.51-1.71,0-.28-.05-.51-.14-.68-.08-.16-.2-.26-.35-.32l-.04-.02Z"/>
      <polygon class="cls-1" points="14.56 33.02 14.59 32.97 14.67 32.87 14.74 32.77 14.82 32.67 14.9 32.58 14.99 32.48 15.07 32.39 15.16 32.31 15.25 32.23 15.34 32.15 15.44 32.08 15.53 32.01 15.63 31.95 15.72 31.89 15.82 31.83 15.92 31.79 16.01 31.74 16.1 31.71 17.17 32.33 16.21 33.98 14.56 33.02"/>
      <path class="cls-2" d="M14.3,32.85c.48-.72,1.01-1.18,1.83-1.48l1.46.84-1.26,2.19-2.21-1.27.18-.27h0ZM15.06,32.87l-.05.06,1.09.63.65-1.12-.67-.39-.11.05-.17.1c-.12.08-.23.16-.34.25-.15.14-.27.26-.4.41Z"/>
      <polygon class="cls-1" points="13.93 35.8 13.92 35.77 13.89 35.68 13.87 35.58 13.85 35.48 13.84 35.38 13.83 35.27 13.83 35.16 13.83 35.05 13.84 34.93 13.85 34.82 13.87 34.7 13.88 34.67 15.33 35.51 14.85 36.34 13.93 35.8"/>
      <path class="cls-2" d="M13.64,35.91c-.21-.59-.1-1.12.01-1.72l2.1,1.21-.78,1.36-1.29-.74-.04-.11h0ZM14.17,35.53l.02.07.55.32.17-.3-.77-.45c0,.12.01.23.03.35Z"/>
      <path class="cls-1" d="M16.6,32.39c1.04-.6,1.89-.11,1.89,1.09s-.85,2.67-1.89,3.28c-1.05.6-1.89.11-1.89-1.09s.85-2.67,1.89-3.28Z"/>
      <path class="cls-2" d="M16.44,32.12c.35-.2.69-.3,1-.3.24,0,.45.06.65.17.19.11.35.27.47.48.15.27.24.61.24,1.02,0,.66-.23,1.38-.6,2.02-.37.64-.88,1.2-1.45,1.53-.35.2-.69.3-1,.3-.24,0-.45-.06-.65-.17s-.35-.27-.47-.48c-.15-.27-.24-.61-.24-1.02,0-.66.23-1.38.6-2.02.37-.64.88-1.2,1.45-1.52h0ZM17.44,32.44c-.2,0-.44.07-.69.22-.47.27-.91.75-1.23,1.3-.32.55-.51,1.16-.51,1.71,0,.3.06.53.16.71.07.11.15.2.24.25s.21.08.34.08c.2,0,.44-.07.69-.22.48-.27.91-.75,1.23-1.3.32-.55.51-1.16.51-1.71,0-.3-.06-.53-.16-.71-.07-.11-.15-.2-.24-.25-.1-.05-.21-.08-.34-.08Z"/>
      <path class="cls-4" d="M17.82,39.5c2.37,0,4.3-1.92,4.3-4.3s-1.92-4.3-4.3-4.3-4.3,1.92-4.3,4.3,1.92,4.3,4.3,4.3Z"/>
      <path class="cls-2" d="M17.82,39.19c1.1,0,2.1-.45,2.82-1.17.72-.72,1.17-1.72,1.17-2.82s-.45-2.1-1.17-2.82c-.72-.72-1.72-1.17-2.82-1.17s-2.1.45-2.82,1.17c-.72.72-1.17,1.72-1.17,2.82s.45,2.1,1.17,2.82c.72.72,1.72,1.17,2.82,1.17h0ZM21.08,38.46c-.84.84-1.99,1.35-3.26,1.35s-2.42-.52-3.26-1.35c-.83-.84-1.35-1.99-1.35-3.26s.52-2.42,1.35-3.26c.83-.83,1.99-1.35,3.26-1.35s2.42.52,3.26,1.35c.84.83,1.35,1.99,1.35,3.26s-.52,2.42-1.35,3.26Z"/>
      <path class="cls-3" d="M21.82,27.26v6.59c.37,3.72-5.82,3.77-5.44,0v-6.59c.06-.56.75-.99,1.22-1.17.97-.37,2.29-.35,3.23.09.46.22.89.55,1,1.07Z"/>
      <path class="cls-2" d="M22.12,27.26v6.59c.13,1.37-.55,2.3-1.5,2.77-.47.23-1,.35-1.54.35-.53,0-1.07-.11-1.54-.35-.94-.47-1.61-1.39-1.48-2.77,0-1.9-.18-4.84,0-6.62.03-.32.21-.6.45-.83.28-.27.66-.48.96-.59.53-.2,1.15-.3,1.76-.28.6.02,1.2.14,1.71.38.26.12.51.28.71.48.22.21.38.48.45.81v.03s0,.03,0,.03h0ZM21.51,33.85v-6.56c-.05-.18-.14-.33-.27-.46-.15-.15-.34-.27-.54-.36-.43-.2-.94-.31-1.46-.32-.53-.02-1.07.07-1.53.24-.24.09-.54.25-.76.46-.14.13-.24.28-.26.43,0,1.91.18,4.82,0,6.61-.11,1.1.41,1.83,1.14,2.19.38.19.82.28,1.26.28.44,0,.88-.1,1.27-.29.74-.37,1.27-1.1,1.16-2.18v-.03Z"/>
      <path class="cls-3" d="M32.82,10.86c-5.01-1.76-10.53,5.04-12.32,9.71-1.15,2.98-1.97,7.71.66,10.17-1.22-.7-17.46-9.91-18.01-10.49-3.44-3.6-.49-11.24,2.43-14.98C7.56,2.73,11.46-.59,14.89.54l17.93,10.32Z"/>
      <path class="cls-2" d="M32.72,11.15c-2.06-.73-4.24.1-6.18,1.63-2.59,2.04-4.75,5.3-5.75,7.9-.64,1.67-1.18,3.88-1.05,5.93.1,1.51.56,2.91,1.63,3.91l-.36.49-1.56-.89c-4.37-2.49-16.02-9.13-16.52-9.66-1.58-1.65-1.88-4.08-1.47-6.62.52-3.22,2.21-6.62,3.88-8.76,1.16-1.48,2.95-3.22,4.94-4.23C11.79.08,13.43-.27,14.98.25l.06.03,17.93,10.32-.25.56h0ZM26.15,12.3c1.57-1.24,3.29-2.04,5.02-2.03L14.77.82c-1.37-.44-2.84-.12-4.22.58-1.89.96-3.62,2.63-4.73,4.06-1.62,2.07-3.25,5.37-3.76,8.48-.38,2.36-.12,4.61,1.31,6.09.44.46,12.03,7.07,16.38,9.55l.21.12c-.51-.91-.77-1.96-.84-3.06-.14-2.14.42-4.45,1.09-6.19,1.03-2.68,3.27-6.05,5.95-8.16Z"/>
      <path class="cls-1" d="M32.82,10.86c-5.8-2.04-11.39,6.59-12.82,11.17L2.38,11.39C3.92,6.39,9.45-.79,14.57.45c1,.24,16.84,9.6,18.25,10.41Z"/>
      <path class="cls-2" d="M32.72,11.15l-.18-.06c-2.64-.82-5.24.67-7.39,2.92-2.19,2.3-3.9,5.38-4.7,7.66-.06.16-.11.31-.15.45l-.45.17L2.22,11.65l-.13-.35c.88-2.83,3.01-6.34,5.62-8.69C9.82.71,12.26-.43,14.64.15c.89.22,12.2,6.85,16.65,9.46l1.68.98-.26.56h0ZM24.7,13.59c1.88-1.97,4.12-3.4,6.46-3.34l-.18-.1C26.56,7.54,15.3.94,14.5.75c-2.16-.52-4.41.55-6.39,2.32-2.46,2.21-4.48,5.49-5.37,8.18l17.09,10.31.03-.1c.82-2.34,2.58-5.51,4.84-7.88Z"/>
      <path class="cls-1" d="M27.43,11.65c-4.53,2.61-8.21,8.98-8.21,14.21,0,5.23,3.67,7.36,8.2,4.74,4.53-2.61,8.21-8.98,8.21-14.21,0-5.23-3.67-7.36-8.2-4.74Z"/>
      <path class="cls-2" d="M27.58,11.91c-2.22,1.28-4.23,3.48-5.69,6.01-1.46,2.53-2.36,5.37-2.37,7.94,0,1.47.3,2.67.82,3.58.37.64.85,1.13,1.43,1.47.57.33,1.24.51,1.98.51,1.05,0,2.24-.35,3.51-1.08,2.22-1.28,4.23-3.48,5.69-6.01,1.46-2.53,2.36-5.37,2.36-7.93,0-1.47-.3-2.67-.82-3.58-.37-.64-.85-1.13-1.43-1.47-.57-.33-1.24-.51-1.98-.51-1.05,0-2.24.35-3.51,1.08h0ZM21.36,17.62c1.51-2.61,3.6-4.9,5.92-6.23,1.36-.79,2.66-1.16,3.82-1.16.85,0,1.62.2,2.29.59.67.39,1.23.96,1.65,1.69.58,1,.9,2.31.9,3.89,0,2.67-.94,5.63-2.45,8.24-1.51,2.61-3.6,4.9-5.92,6.23-1.36.79-2.66,1.16-3.82,1.16-.85,0-1.62-.2-2.29-.59-.67-.39-1.23-.96-1.65-1.69-.58-1-.9-2.31-.9-3.89,0-2.67.94-5.63,2.45-8.24Z"/>
      <path class="cls-4" d="M36.48,16.6c-3.76-1.32-7.89,3.78-9.24,7.28-.86,2.24-1.48,5.79.5,7.63-.93-.54-4.16-2.27-4.61-2.77-2.54-2.88-.13-8.78,2.3-11.62,1.47-1.72,4.2-3.86,6.59-3.07l4.46,2.55Z"/>
      <path class="cls-2" d="M36.36,16.89c-1.52-.52-3.12.09-4.55,1.22-1.93,1.52-3.54,3.95-4.29,5.89-.48,1.24-.88,2.89-.78,4.41.07,1.11.42,2.15,1.2,2.88.12.12.13.31.02.43-.1.11-.26.13-.39.05-.21-.12-.5-.29-.85-.48-1.34-.75-3.44-1.92-3.83-2.35-1.19-1.35-1.37-3.3-.97-5.3.49-2.49,1.87-5.09,3.26-6.72.86-1.01,2.14-2.15,3.55-2.81,1.09-.51,2.26-.72,3.38-.35.02,0,.05.02.07.03l4.45,2.54c.15.08.2.27.11.42-.08.14-.24.19-.38.13h0ZM31.43,17.62c1.1-.87,2.31-1.46,3.53-1.53l-3.07-1.75c-.94-.3-1.94-.11-2.9.34-1.32.61-2.53,1.7-3.34,2.65-1.33,1.55-2.65,4.05-3.13,6.44-.36,1.83-.22,3.6.82,4.78.29.33,2.01,1.3,3.3,2.02-.32-.64-.48-1.36-.52-2.11-.11-1.62.32-3.36.82-4.67.78-2.02,2.47-4.57,4.48-6.15Z"/>
      <path class="cls-1" d="M32.43,17.19c-3.4,1.96-6.16,6.73-6.16,10.66,0,3.93,2.75,5.52,6.15,3.56,3.4-1.96,6.16-6.73,6.16-10.66,0-3.93-2.75-5.52-6.15-3.56h0ZM32.35,19.42c2.35-1.36,4.26-.26,4.26,2.46s-1.91,6.02-4.26,7.38c-2.35,1.36-4.26.26-4.26-2.46s1.91-6.02,4.26-7.38Z"/>
      <path class="cls-2" d="M32.59,17.46c-1.65.95-3.15,2.6-4.24,4.48-1.09,1.88-1.76,4-1.76,5.91,0,1.09.22,1.98.6,2.65.27.47.62.83,1.04,1.07.42.24.91.37,1.45.37.77,0,1.66-.26,2.59-.8,1.65-.95,3.15-2.59,4.24-4.48,1.09-1.89,1.76-4.01,1.76-5.91,0-1.09-.22-1.98-.6-2.65-.27-.47-.62-.83-1.04-1.07-.42-.24-.91-.37-1.45-.37-.77,0-1.66.25-2.6.8h0ZM27.82,21.63c1.14-1.97,2.72-3.7,4.47-4.7,1.04-.6,2.02-.88,2.9-.88.65,0,1.24.15,1.76.45.51.3.94.73,1.27,1.3.44.76.69,1.76.69,2.96,0,2.02-.71,4.25-1.85,6.22-1.14,1.97-2.72,3.7-4.47,4.7-1.04.6-2.02.88-2.9.88-.65,0-1.24-.16-1.76-.45s-.94-.73-1.27-1.3c-.44-.76-.69-1.76-.69-2.96,0-2.02.71-4.25,1.85-6.22h0ZM32.51,19.68c.63-.37,1.23-.54,1.75-.54.36,0,.68.08.96.24.27.16.51.4.69.71.26.45.4,1.05.4,1.78,0,1.3-.46,2.75-1.2,4.04-.75,1.29-1.77,2.41-2.9,3.07-.64.37-1.23.54-1.75.54-.35,0-.67-.08-.94-.23h-.01c-.28-.17-.51-.41-.69-.72-.26-.45-.4-1.05-.4-1.78,0-1.3.46-2.75,1.2-4.04.75-1.29,1.77-2.41,2.9-3.07h0ZM29.08,22.44c.8-1.38,1.9-2.59,3.12-3.29.73-.42,1.43-.62,2.06-.62.47,0,.89.11,1.26.33.37.21.68.53.91.93.31.54.49,1.25.49,2.09,0,1.41-.49,2.97-1.29,4.35-.8,1.38-1.9,2.59-3.12,3.29-.73.42-1.43.62-2.06.62-.46,0-.88-.11-1.24-.31h-.02c-.37-.22-.68-.54-.91-.94-.31-.54-.49-1.25-.49-2.09,0-1.41.49-2.97,1.29-4.35Z"/>
      <path class="cls-4" d="M35.12,17.11c.65-.14,1.33-.15,1.97.06l.11.04,2.08,1.2c-.38-.13-.71-.2-1.11-.2-1.77-.02-3.55,1.17-4.77,2.35-2.24,2.17-4.03,5.62-4.17,8.77-.06,1.36.19,2.93,1.21,3.91l.09.08-2.08-1.2s-.22-.21-.26-.26c-1.2-1.36-1.19-3.57-.86-5.25.7-3.56,3.82-8.63,7.78-9.5Z"/>
      <path class="cls-2" d="M35.05,16.8c.36-.08.73-.12,1.1-.11.35.01.7.07,1.03.17l.12.04s.05.02.07.03l2.06,1.19c.15.08.2.27.11.42-.07.13-.23.18-.37.14-.18-.06-.34-.11-.5-.14-.16-.03-.33-.05-.51-.05-.74-.01-1.49.21-2.19.56-.89.44-1.71,1.07-2.36,1.7-1.13,1.09-2.14,2.52-2.88,4.06-.69,1.45-1.14,3.01-1.2,4.49-.03.71.03,1.48.25,2.19.17.56.45,1.08.87,1.49l.09.08c.12.12.13.31.02.43-.1.11-.27.13-.4.05l-2.09-1.21s-.09-.08-.14-.13c-.06-.07-.13-.13-.19-.2-.56-.65-.87-1.46-1.02-2.33-.17-1.07-.09-2.21.1-3.17.39-1.99,1.52-4.44,3.12-6.39,1.34-1.64,3.02-2.94,4.9-3.35h0ZM36.14,17.31c-.32,0-.64.03-.96.09-1.72.37-3.29,1.59-4.55,3.13-1.54,1.88-2.62,4.22-3,6.12-.18.9-.26,1.97-.1,2.95.12.76.39,1.47.87,2.02l.22.23.8.46c-.1-.2-.18-.41-.24-.63-.24-.78-.31-1.62-.27-2.39.07-1.57.53-3.21,1.26-4.73.77-1.61,1.82-3.1,3-4.24.69-.67,1.56-1.35,2.51-1.81.67-.33,1.39-.56,2.11-.61l-.73-.42-.08-.03c-.28-.09-.56-.14-.85-.15Z"/>
      <path class="cls-1" d="M35.16,21.22c-2.35,1.36-4.26,4.66-4.26,7.38s1.91,3.82,4.26,2.46c2.35-1.36,4.26-4.66,4.26-7.38s-1.91-3.82-4.26-2.46Z"/>
      <path class="cls-2" d="M35.31,21.49c-1.13.65-2.15,1.77-2.9,3.06-.74,1.29-1.2,2.74-1.2,4.05,0,.73.15,1.34.41,1.78.18.31.41.55.69.71h.01c.27.16.59.24.94.24.52,0,1.11-.17,1.75-.54,1.13-.65,2.15-1.78,2.9-3.07v-.02c.75-1.29,1.21-2.73,1.21-4.03,0-.73-.15-1.33-.41-1.78v-.02c-.19-.3-.42-.53-.69-.69h-.01c-.27-.16-.59-.24-.94-.24-.52,0-1.12.17-1.75.54h0ZM31.88,24.25c.8-1.38,1.9-2.59,3.12-3.29.73-.42,1.43-.62,2.05-.62.46,0,.88.11,1.24.32h.02c.36.22.67.53.9.92v.02c.32.54.5,1.25.5,2.09,0,1.4-.49,2.96-1.28,4.33v.02c-.81,1.38-1.91,2.58-3.13,3.29-.73.42-1.43.62-2.06.62-.46,0-.88-.11-1.24-.31h-.02c-.37-.22-.68-.54-.91-.94-.31-.54-.49-1.25-.49-2.09,0-1.41.49-2.97,1.29-4.35Z"/>
      <path class="cls-4" d="M32.14,31.36l-2.08-1.2c3.89,2.13,9.66-7.47,6.3-10.24l-.27-.19c2.12,1.22,3.95,1.71,3.16,5.4-.76,3.54-4.47,7.68-7.11,6.24Z"/>
      <path class="cls-2" d="M31.97,31.61c-.51-.29-1.66-.87-2.06-1.19-.15-.08-.2-.27-.11-.42.08-.15.27-.2.41-.12,1.02.56,2.21.19,3.31-.67.71-.56,1.39-1.33,1.95-2.19.57-.87,1.02-1.82,1.3-2.76.49-1.67.43-3.27-.59-4.11l-.26-.18c-.14-.1-.17-.29-.08-.43.09-.13.27-.17.41-.09.24.14.47.26.69.38,1.91,1.05,3.37,1.84,2.62,5.34-.18.85-.53,1.74-.99,2.57-.68,1.23-1.6,2.37-2.61,3.14-1.04.8-2.17,1.22-3.23,1-.25-.05-.5-.14-.73-.27l-.03-.02h0ZM31.69,30.74l.6.35c.18.1.37.17.56.21.86.18,1.82-.19,2.72-.88.94-.72,1.81-1.79,2.44-2.95.43-.79.76-1.61.93-2.4.55-2.58-.28-3.48-1.56-4.25.42,1.01.36,2.31-.03,3.64-.3,1-.78,2.01-1.37,2.92-.6.91-1.32,1.73-2.09,2.34-.71.56-1.46.93-2.21,1.04Z"/>
      <polygon class="cls-1" points="38.17 20.92 36.09 19.72 36.02 19.68 35.94 19.65 35.87 19.61 37.94 20.81 38.02 20.85 38.09 20.88 38.17 20.92"/>
      <path class="cls-2" d="M36.24,19.46l2.07,1.19c.15.08.2.27.12.42-.08.15-.27.2-.42.12-.77-.42-1.53-.86-2.29-1.31-.15-.07-.21-.25-.14-.4.07-.15.25-.22.41-.16.06.03.21.09.25.13Z"/>
      <path class="cls-3" d="M35.23,19c-3.4,1.96-6.16,6.73-6.16,10.66,0,3.93,2.75,5.52,6.15,3.56s6.16-6.73,6.16-10.66c0-3.93-2.75-5.52-6.15-3.56h0ZM35.16,21.22c2.35-1.36,4.26-.26,4.26,2.46s-1.91,6.02-4.26,7.38c-2.35,1.36-4.26.26-4.26-2.46s1.91-6.02,4.26-7.38Z"/>
      <path class="cls-2" d="M35.39,19.26c-1.65.95-3.15,2.59-4.24,4.48-1.09,1.88-1.76,4-1.76,5.91,0,1.09.22,1.98.6,2.65.27.47.62.83,1.04,1.07.42.24.91.37,1.45.37.77,0,1.66-.26,2.6-.8,1.65-.95,3.15-2.6,4.24-4.48,1.09-1.89,1.76-4.01,1.76-5.91,0-1.09-.22-1.98-.6-2.65-.27-.47-.62-.83-1.04-1.07-.42-.24-.91-.37-1.45-.37-.77,0-1.66.26-2.59.8h0ZM30.62,23.43c1.14-1.97,2.72-3.7,4.47-4.71,1.04-.6,2.02-.88,2.9-.88.65,0,1.24.16,1.76.45.51.3.94.73,1.27,1.3.44.76.69,1.76.69,2.96,0,2.02-.71,4.25-1.85,6.22-1.14,1.97-2.72,3.7-4.47,4.7-1.04.6-2.02.88-2.9.88-.65,0-1.24-.16-1.76-.45-.51-.3-.94-.73-1.27-1.3-.44-.76-.69-1.76-.69-2.96,0-2.02.71-4.25,1.85-6.22h0ZM35.31,21.49c.63-.37,1.23-.54,1.75-.54.36,0,.68.08.96.24.27.16.5.39.68.69v.02c.27.45.41,1.05.41,1.78,0,1.3-.46,2.75-1.2,4.04-.74,1.29-1.77,2.41-2.9,3.07-.63.37-1.23.54-1.75.54-.36,0-.68-.08-.96-.24-.27-.16-.51-.4-.69-.71-.26-.45-.41-1.05-.41-1.78,0-1.3.46-2.74,1.2-4.03v-.02c.75-1.29,1.78-2.42,2.91-3.07h0ZM31.88,24.25c.8-1.38,1.9-2.58,3.12-3.29.73-.42,1.43-.62,2.05-.62.47,0,.89.11,1.26.33.36.21.67.52.9.91v.02c.32.54.5,1.25.5,2.09,0,1.41-.49,2.97-1.29,4.35-.8,1.38-1.9,2.59-3.12,3.29-.73.42-1.43.62-2.06.62-.47,0-.89-.11-1.26-.33-.37-.21-.68-.53-.91-.93-.31-.54-.49-1.25-.49-2.09,0-1.41.49-2.96,1.28-4.33v-.02Z"/>
    </g>
  </g>
</svg>