<?xml version="1.0" encoding="UTF-8"?>
<svg id="Layer_2" data-name="Layer 2" xmlns="http://www.w3.org/2000/svg" viewBox="0 0 40.34 40.35" fill="currentColor">
  <defs>
    <style>
      .cls-1 {
        fill: #fff;
      }

      .cls-1, .cls-2, .cls-3, .cls-4 {
        fill-rule: evenodd;
      }

      .cls-2 {
        fill: #1a87c7;
      }

      .cls-3 {
        fill: #bdedf8;
      }

      .cls-4 {
        fill: #66ceef;
      }
    </style>
  </defs>
  <g id="_Layer_" data-name="&amp;lt;Layer&amp;gt;">
    <g>
      <path class="cls-3" d="M12.58,1.82c-2.43,1-4.61,2.48-6.45,4.31-1.83,1.83-3.31,4.02-4.32,6.45-.97,2.34-1.5,4.9-1.5,7.6s.54,5.26,1.5,7.6c1.01,2.42,2.49,4.62,4.32,6.45,1.83,1.83,4.01,3.31,6.45,4.32,2.34.97,4.9,1.49,7.6,1.49s5.26-.53,7.6-1.49c2.43-1.01,4.62-2.49,6.45-4.32,1.83-1.83,3.3-4.03,4.31-6.45.97-2.34,1.5-4.9,1.5-7.6s-.54-5.26-1.5-7.6c-1.01-2.43-2.48-4.62-4.31-6.45-1.83-1.83-4.02-3.31-6.45-4.31-2.34-.98-4.9-1.5-7.6-1.5s-5.26.53-7.6,1.5Z"/>
      <path class="cls-2" d="M20.17.62c-2.6,0-5.11.49-7.49,1.48h0c-2.38.99-4.52,2.42-6.35,4.25-1.83,1.83-3.27,3.97-4.25,6.36-.98,2.36-1.48,4.88-1.48,7.47s.5,5.11,1.48,7.48c.98,2.38,2.42,4.51,4.25,6.35,1.84,1.83,3.96,3.26,6.35,4.25,2.37.98,4.89,1.48,7.49,1.48s5.11-.5,7.47-1.48c2.38-.99,4.52-2.42,6.35-4.25,1.83-1.83,3.26-3.97,4.24-6.35.98-2.37,1.48-4.89,1.48-7.48s-.5-5.11-1.48-7.47c-.98-2.38-2.41-4.52-4.24-6.36-1.83-1.83-3.97-3.26-6.35-4.25-2.37-.98-4.89-1.48-7.47-1.48h0ZM20.17,40.35c-2.68,0-5.28-.51-7.72-1.53-2.45-1.01-4.66-2.48-6.55-4.38-1.9-1.89-3.36-4.09-4.39-6.54-1.01-2.44-1.52-5.04-1.52-7.72s.51-5.27,1.53-7.72c1.02-2.45,2.48-4.66,4.38-6.54,1.89-1.89,4.09-3.36,6.55-4.38h0c2.44-1.01,5.04-1.53,7.72-1.53s5.27.52,7.71,1.53c2.46,1.02,4.66,2.5,6.55,4.38,1.89,1.89,3.36,4.09,4.38,6.54,1.01,2.45,1.52,5.04,1.52,7.72s-.51,5.28-1.52,7.72c-1.02,2.45-2.49,4.66-4.38,6.54-1.89,1.89-4.09,3.36-6.55,4.38-2.44,1.02-5.04,1.53-7.71,1.53Z"/>
      <path class="cls-1" d="M22.42,36.18c9.42,0,17.06-7.64,17.06-17.06S31.84,2.05,22.42,2.05,5.34,9.69,5.34,19.12s7.64,17.06,17.07,17.06Z"/>
      <path class="cls-2" d="M22.42,2.37C13.18,2.37,5.66,9.88,5.66,19.12s7.52,16.75,16.76,16.75,16.76-7.51,16.76-16.75S31.65,2.37,22.42,2.37h0ZM22.42,36.49c-9.58,0-17.38-7.79-17.38-17.37S12.84,1.75,22.42,1.75s17.37,7.79,17.37,17.37-7.79,17.37-17.37,17.37Z"/>
      <path class="cls-3" d="M31.67,5.92c.23-.19.67-.12,1.17.17.5.28,1.07.76,1.6,1.38.53.62.9,1.26,1.09,1.79.18.53.18.96-.06,1.15-.24.19-.67.11-1.17-.17-.5-.29-1.07-.76-1.6-1.39-.52-.62-.9-1.26-1.1-1.79-.18-.53-.18-.96.06-1.15Z"/>
      <path class="cls-2" d="M31.67,5.92h0,0ZM32,6.12c-.07,0-.11,0-.15.03h0c-.1.08-.12.36.04.81.18.52.55,1.13,1.04,1.7.49.57,1.02,1.04,1.52,1.32.43.24.73.27.83.19.09-.08.12-.36-.04-.81-.18-.52-.55-1.12-1.04-1.69-.49-.57-1.02-1.04-1.52-1.31-.3-.17-.53-.24-.68-.24h0ZM35.13,10.82c-.25,0-.56-.08-.98-.31-.56-.3-1.15-.82-1.68-1.45-.53-.62-.94-1.29-1.15-1.88-.33-.93-.04-1.34.15-1.5h0c.24-.19.69-.32,1.51.14.56.31,1.16.83,1.69,1.45.53.63.94,1.29,1.15,1.89.33.93.04,1.34-.16,1.49-.12.1-.29.18-.53.18Z"/>
      <path class="cls-3" d="M25.77,3.12c.84.28,1.51.76,1.94,1.32.43.56.59,1.18.4,1.75-.18.57-.7.97-1.37,1.16-.67.18-1.5.17-2.34-.12-.83-.28-1.52-.76-1.94-1.31-.43-.56-.59-1.18-.41-1.75.19-.57.7-.97,1.37-1.16.67-.19,1.5-.16,2.34.11Z"/>
      <path class="cls-2" d="M24.37,3.19c-.3,0-.59.04-.85.11-.61.18-1.02.51-1.16.96-.15.45-.02.97.36,1.46.4.53,1.04.95,1.79,1.21.75.25,1.52.29,2.16.1.6-.16,1.02-.5,1.16-.95.15-.45.02-.97-.36-1.45-.41-.53-1.04-.97-1.79-1.22h0c-.45-.14-.89-.22-1.3-.22h0ZM25.81,7.76c-.49,0-1-.08-1.5-.25-.87-.29-1.61-.79-2.09-1.42-.51-.66-.67-1.38-.45-2.03.22-.65.77-1.13,1.57-1.35.75-.22,1.65-.18,2.52.11h0c.87.29,1.61.8,2.09,1.42.5.66.67,1.38.45,2.03-.21.65-.77,1.13-1.58,1.36-.31.09-.66.13-1.01.13Z"/>
      <path class="cls-3" d="M31.73,15.35c.75-.05,1.45.28,1.97.84.53.56.89,1.35.94,2.26.05.9-.2,1.73-.65,2.35-.45.62-1.11,1.02-1.86,1.08-.75.04-1.44-.28-1.97-.84-.52-.56-.88-1.36-.93-2.25-.06-.9.2-1.74.65-2.36.45-.62,1.11-1.02,1.85-1.07Z"/>
      <path class="cls-2" d="M31.73,15.35h0,0ZM31.88,15.65h-.13c-.63.04-1.2.37-1.63.95-.42.58-.64,1.35-.59,2.15.05.8.35,1.54.85,2.07.49.51,1.09.78,1.73.74.63-.03,1.21-.37,1.63-.95.43-.58.64-1.35.6-2.15-.05-.8-.36-1.54-.85-2.07-.46-.48-1.02-.74-1.61-.74h0ZM31.99,22.18c-.76,0-1.49-.32-2.06-.94-.59-.64-.95-1.51-1.02-2.44-.05-.95.2-1.85.71-2.55.53-.72,1.27-1.15,2.09-1.2h0c.82-.05,1.61.29,2.22.94.6.63.96,1.5,1.01,2.44.06.95-.19,1.85-.71,2.55-.53.72-1.27,1.15-2.09,1.2h-.15Z"/>
      <path class="cls-4" d="M30.64,21.44c-.17-.11-.33-.25-.48-.41-.52-.56-.88-1.36-.93-2.25-.06-.9.2-1.74.65-2.36.18-.25.41-.47.65-.64.17.11.33.25.48.41.52.56.88,1.35.93,2.26.06.9-.2,1.73-.65,2.35-.18.26-.41.48-.65.64Z"/>
      <path class="cls-2" d="M30.53,16.16c-.15.13-.28.28-.41.44-.42.58-.64,1.35-.59,2.15.05.8.35,1.54.85,2.07.08.09.17.17.25.24.15-.13.29-.28.4-.45.43-.58.64-1.35.6-2.15-.05-.8-.36-1.53-.85-2.07-.08-.08-.17-.15-.25-.23h0ZM30.64,21.75c-.06,0-.12-.02-.17-.05-.18-.13-.37-.29-.53-.46-.59-.64-.95-1.51-1.02-2.44-.05-.95.2-1.85.71-2.55.21-.29.45-.52.73-.71.11-.08.24-.08.35,0,.18.12.36.28.53.45.59.63.96,1.5,1.02,2.44.05.95-.2,1.85-.71,2.55-.21.29-.45.52-.73.71-.05.04-.12.06-.18.06Z"/>
      <path class="cls-4" d="M26.94,7.27c-.06.03-.13.04-.2.07-.67.18-1.5.17-2.34-.12-.83-.28-1.52-.76-1.94-1.31-.03-.04-.05-.07-.08-.1.07-.03.13-.05.21-.07.67-.19,1.5-.17,2.34.11.83.28,1.51.76,1.94,1.31.03.04.05.07.07.1Z"/>
      <path class="cls-2" d="M22.93,5.97c.4.42.95.75,1.57.96.65.22,1.32.28,1.9.17-.4-.41-.94-.74-1.57-.95-.65-.23-1.32-.28-1.9-.17h0ZM25.81,7.76c-.49,0-1-.08-1.5-.25-.87-.29-1.61-.79-2.09-1.42l-.09-.11c-.05-.08-.07-.17-.04-.27.03-.09.1-.17.19-.2.07-.03.15-.05.23-.07.76-.21,1.65-.17,2.52.11.87.3,1.61.8,2.09,1.43l.08.1c.06.08.07.18.04.27-.03.1-.09.17-.18.2-.08.02-.15.05-.24.08-.32.09-.66.13-1.01.13Z"/>
    </g>
  </g>
</svg>