<?xml version="1.0" encoding="UTF-8"?>
<svg id="Layer_2" data-name="Layer 2" xmlns="http://www.w3.org/2000/svg" viewBox="0 0 19.68 41.69" fill="currentColor">
  <defs>
    <style>
      .cls-1 {
        fill: #fff;
      }

      .cls-1, .cls-2, .cls-3, .cls-4 {
        fill-rule: evenodd;
      }

      .cls-2 {
        fill: #1a87c7;
      }

      .cls-3 {
        fill: #bdedf8;
      }

      .cls-4 {
        fill: #66ceef;
      }
    </style>
  </defs>
  <g id="_Layer_" data-name="&amp;lt;Layer&amp;gt;">
    <g>
      <path class="cls-3" d="M15.79,4.18L9.53.57h0C5.91-1.34.26,7.55,3.9,10.35l6.24,3.61c-.71-.69-1.15-.93-1.15-2.59-.05-3.75,4.03-8.64,6.81-7.19h0Z"/>
      <path class="cls-2" d="M8.46.61c-1.47,0-3.07,1.43-4.09,3.03-1.36,2.16-2.04,5.1-.29,6.46l4.82,2.77c-.16-.36-.24-.82-.24-1.5-.03-2.55,1.78-5.74,4.03-7.14.52-.32,1.05-.52,1.55-.6L9.43.86s-.03,0-.03-.02c-.31-.16-.63-.23-.94-.23h0ZM10.13,14.26c-.05,0-.1,0-.16-.03l-6.24-3.61c-2.1-1.62-1.41-4.91.11-7.3C5.26,1.13,7.64-.73,9.66.28c0,0,.03,0,.03.02l6.26,3.61c.08.06.16.17.16.28s-.08.22-.18.26h0c-.08.04-.18.04-.29,0-.92-.48-1.94-.09-2.62.32-2.04,1.26-3.77,4.28-3.75,6.6.03,1.35.31,1.63.86,2.16l.24.22c.1.11.1.28.03.41-.08.08-.16.11-.26.11Z"/>
      <path class="cls-4" d="M3.87,26.86v9.87c.03.41.08.7.45.95l6.24,3.6c-.34-.24-.42-.54-.42-.94v-9.88c-.03-.11-.03-.16-.13-.23l-6.24-3.6c.08.07.1.12.1.23Z"/>
      <path class="cls-2" d="M4.19,27.22v9.52c.03.39.08.55.29.69l5.34,3.09v-10.05l-5.63-3.24h0ZM10.55,41.59c-.05,0-.1-.02-.16-.04l-6.23-3.61c-.52-.35-.58-.8-.6-1.19v-9.93c-.1-.1-.13-.26-.05-.39.1-.13.29-.16.42-.08l6.24,3.61c.23.18.26.33.26.47v9.91c.03.38.1.54.31.69.13.1.16.28.08.42-.05.1-.16.15-.26.15Z"/>
      <polygon class="cls-3" points="12.96 17.4 6.73 13.8 .31 28.49 6.54 32.1 12.96 17.4"/>
      <path class="cls-2" d="M.7,28.37l5.71,3.29,6.16-14.13-5.71-3.29L.7,28.37h0ZM6.54,32.41c-.05,0-.11-.02-.16-.04L.15,28.76c-.13-.08-.18-.24-.13-.39l6.42-14.7c.03-.08.11-.14.18-.17.08-.03.18-.02.26.03l6.23,3.61c.13.08.18.24.13.39l-6.42,14.7c-.03.09-.1.15-.18.17-.03,0-.05.02-.1.02Z"/>
      <path class="cls-1" d="M10.13,30.46v9.88c0,.93.63,1.3,1.44.84l2.78-1.61c.81-.46,1.47-1.6,1.47-2.52v-9.88c0-.24.16-.51.37-.64l3.2-1.84-6.42-7.29-6.42,14.7,3.22-1.85c.18-.11.37-.02.37.21Z"/>
      <path class="cls-2" d="M9.92,29.89c.08,0,.16.03.24.07.18.09.26.28.26.5v9.88c0,.33.1.57.29.68.16.1.42.06.71-.1l2.8-1.61c.68-.41,1.28-1.44,1.28-2.25v-9.88c0-.34.24-.73.52-.9l2.85-1.66-5.84-6.65-5.84,13.4,2.41-1.38c.11-.06.21-.1.31-.1h0ZM10.92,41.69c-.18,0-.37-.04-.52-.14-.37-.22-.58-.64-.58-1.21v-9.76l-3.12,1.79c-.1.06-.26.05-.37-.03-.08-.09-.13-.23-.08-.36l6.42-14.7c.05-.1.13-.16.24-.18s.21.02.29.1l6.42,7.3c.05.07.08.16.05.25,0,.09-.05.17-.13.22l-3.2,1.84c-.1.06-.21.24-.21.37v9.88c0,1.04-.71,2.27-1.62,2.79l-2.78,1.61c-.29.16-.55.24-.81.24Z"/>
      <path class="cls-1" d="M16.94,6.76c0-1.27-.45-2.16-1.15-2.58h0c-.73-.42-1.73-.36-2.83.28-1.1.63-2.1,1.73-2.83,2.98-.71,1.25-1.15,2.66-1.15,3.93s.45,2.17,1.15,2.59h0c.73.42,1.73.36,2.83-.28,1.1-.64,2.1-1.73,2.83-2.98.71-1.25,1.15-2.66,1.15-3.94Z"/>
      <path class="cls-2" d="M10.26,13.67h.03c.66.39,1.55.29,2.52-.27,1.02-.59,1.99-1.61,2.72-2.87.71-1.26,1.13-2.6,1.13-3.78,0-1.1-.37-1.92-1-2.3t-.03-.02c-.66-.37-1.55-.28-2.52.29-1.02.58-1.99,1.6-2.7,2.86-.73,1.26-1.15,2.61-1.15,3.78,0,1.11.37,1.92,1,2.31h0ZM11.18,14.53c-.42,0-.81-.1-1.15-.29-.03,0-.03-.02-.05-.02-.84-.5-1.31-1.5-1.31-2.86,0-1.28.42-2.73,1.2-4.08.79-1.36,1.83-2.45,2.93-3.1,1.15-.67,2.25-.76,3.12-.3t.03.02c.84.5,1.31,1.51,1.31,2.85s-.42,2.74-1.2,4.09c-.79,1.35-1.83,2.45-2.93,3.09-.68.39-1.34.59-1.94.59Z"/>
    </g>
  </g>
</svg>