<?xml version="1.0" encoding="UTF-8"?>
<svg id="Layer_2" data-name="Layer 2" xmlns="http://www.w3.org/2000/svg" viewBox="0 0 41.15 44.24" fill="currentColor">
  <defs>
    <style>
      .cls-1 {
        fill: #fff;
      }

      .cls-1, .cls-2, .cls-3, .cls-4 {
        fill-rule: evenodd;
      }

      .cls-2 {
        fill: #1a87c7;
      }

      .cls-3 {
        fill: #bdedf8;
      }

      .cls-4 {
        fill: #66ceef;
      }
    </style>
  </defs>
  <g id="_Layer_" data-name="&amp;lt;Layer&amp;gt;">
    <g>
      <path class="cls-4" d="M10.72,27.22c-.71-1.34-2.9-3.55-4.57-2.63l-2.47,1.42c1.83-.95,3.97,1.43,4.77,3.02.71,1.38,1.31,3.91-.19,4.88.47-.27,2.46-1.36,2.77-1.65,1.23-1.19.47-3.67-.3-5.03Z"/>
      <path class="cls-2" d="M5.17,25.54c.06.02.14.04.22.06,1.4.45,2.71,2.02,3.37,3.28.49.96,1.01,2.7.63,4.01.6-.34,1.26-.75,1.42-.87,1.07-1.04.36-3.35-.38-4.64v-.02c-.44-.85-1.62-2.21-2.85-2.58-.47-.15-.9-.12-1.26.08l-1.15.67h0ZM8.26,34.23c-.11,0-.22-.06-.3-.16-.08-.14-.03-.35.11-.44,1.31-.83.77-3.12.11-4.46-.6-1.18-1.83-2.58-3.01-2.96-.47-.15-.93-.13-1.34.08-.14.08-.33.03-.41-.13-.08-.15-.03-.34.11-.43l2.47-1.42c.55-.3,1.15-.35,1.78-.15,1.34.4,2.66,1.79,3.23,2.9.71,1.27,1.7,4.03.25,5.42-.25.24-1.29.82-2.38,1.44l-.47.26s-.08.05-.14.05Z"/>
      <path class="cls-4" d="M8.23,28.64c-.57-1.02-1.37-1.9-2.27-2.41-.88-.52-1.7-.56-2.27-.23h0c-.57.34-.93,1.07-.93,2.09s.36,2.16.93,3.17c.58,1.02,1.4,1.9,2.27,2.41.9.52,1.7.56,2.3.23.57-.34.93-1.06.93-2.09s-.36-2.16-.93-3.17h-.03Z"/>
      <path class="cls-2" d="M4.54,26.12c-.25,0-.49.06-.68.17-.49.29-.79.94-.79,1.81,0,.94.33,2.01.9,3.02.6,1.01,1.37,1.82,2.16,2.29.77.44,1.45.51,1.97.22.49-.29.77-.93.77-1.81,0-.94-.3-2.01-.9-3.01l.27-.16-.27.16c-.57-1-1.34-1.82-2.16-2.29-.44-.26-.88-.39-1.26-.39h0ZM7.41,34.44c-.49,0-1.04-.16-1.62-.48-.9-.53-1.75-1.42-2.38-2.53-.63-1.1-.99-2.29-.99-3.34,0-1.12.38-1.95,1.09-2.37.71-.41,1.64-.33,2.6.22.9.53,1.75,1.42,2.41,2.53v.04h0c.63,1.07.99,2.25.99,3.3,0,1.12-.38,1.95-1.12,2.37-.3.17-.63.25-.99.25Z"/>
      <path class="cls-3" d="M7.22,29.23c.33.55.52,1.18.52,1.75s-.19.96-.52,1.14c-.33.18-.77.16-1.26-.13-.46-.28-.93-.76-1.23-1.32l-.03-.04c-.3-.55-.52-1.16-.52-1.72s.22-.96.55-1.14h0c.3-.19.77-.16,1.23.12.49.29.93.77,1.26,1.33Z"/>
      <path class="cls-2" d="M5.17,27.99c-.11,0-.19.02-.3.07-.22.14-.36.45-.36.87,0,.48.16,1.04.47,1.56.33.56.74.99,1.15,1.24.38.21.71.25.93.12.25-.13.36-.44.36-.86,0-.49-.16-1.06-.47-1.59h0c-.3-.53-.71-.96-1.15-1.21-.22-.13-.44-.2-.63-.2h0ZM6.75,32.57c-.3,0-.63-.09-.96-.28-.52-.3-.99-.82-1.37-1.45-.36-.65-.55-1.32-.55-1.91,0-.67.25-1.18.68-1.43.44-.25.99-.21,1.56.13.52.3,1.01.81,1.37,1.43h0c.36.64.57,1.31.57,1.92,0,.66-.25,1.17-.68,1.43-.19.11-.38.16-.63.16Z"/>
      <path class="cls-4" d="M27.68,37.02c-.71-1.34-2.9-3.55-4.57-2.63l-2.44,1.43c1.81-.96,3.94,1.43,4.74,3.02.71,1.37,1.34,3.91-.19,4.88.47-.28,2.46-1.36,2.77-1.65,1.23-1.19.47-3.67-.3-5.03Z"/>
      <path class="cls-2" d="M22.12,35.34c.05.02.14.04.22.07,1.4.44,2.71,2.02,3.37,3.28.49.96,1.04,2.7.63,4.01.6-.35,1.29-.74,1.42-.88,1.07-1.04.38-3.34-.36-4.63t-.03-.02c-.44-.85-1.62-2.21-2.82-2.58-.49-.15-.9-.12-1.29.08l-1.15.67h0ZM25.21,44.02c-.11,0-.22-.06-.27-.15-.11-.15-.06-.35.08-.44,1.31-.82.79-3.12.11-4.46-.6-1.19-1.83-2.59-2.98-2.96-.49-.16-.96-.13-1.34.08-.16.08-.36.03-.44-.13-.08-.15-.03-.35.14-.44l2.44-1.43c.55-.29,1.15-.34,1.81-.14,1.31.4,2.63,1.79,3.2,2.9.71,1.26,1.7,4.02.25,5.41-.22.23-1.04.7-2.38,1.45l-.44.25c-.05.03-.11.04-.16.04Z"/>
      <path class="cls-4" d="M25.21,38.44c-.58-1.01-1.4-1.89-2.27-2.4-.9-.52-1.7-.56-2.27-.23h0c-.6.34-.96,1.06-.96,2.08s.36,2.17.96,3.18c.58,1.01,1.37,1.9,2.27,2.41.88.52,1.7.56,2.27.23.57-.34.93-1.06.93-2.09s-.36-2.16-.93-3.17h0Z"/>
      <path class="cls-2" d="M21.49,35.91c-.25,0-.49.07-.68.18-.49.3-.77.93-.77,1.81,0,.94.3,2.02.9,3.02.58,1.01,1.34,1.83,2.14,2.29.77.44,1.48.52,1.97.23.49-.29.79-.94.79-1.81,0-.94-.33-2.01-.9-3.02l.27-.16-.27.16c-.57-1.01-1.37-1.82-2.16-2.29-.47-.26-.9-.4-1.29-.4h0ZM24.36,44.24c-.49,0-1.04-.16-1.59-.48-.9-.53-1.78-1.43-2.41-2.53-.63-1.1-.99-2.29-.99-3.34,0-1.11.41-1.94,1.12-2.36.68-.41,1.62-.33,2.57.23.93.52,1.78,1.42,2.41,2.52,0,0,.03.03.03.04h0c.6,1.06.96,2.25.96,3.3,0,1.12-.38,1.95-1.1,2.37-.3.17-.63.26-1.01.26Z"/>
      <path class="cls-3" d="M24.2,39.04c.3.55.49,1.18.49,1.74s-.19.96-.49,1.16c-.33.18-.79.15-1.26-.13-.49-.28-.93-.76-1.26-1.33l-.03-.03c-.3-.55-.49-1.16-.49-1.72s.19-.96.52-1.14h0c.33-.19.77-.16,1.26.12.47.28.93.77,1.26,1.33Z"/>
      <path class="cls-2" d="M22.14,37.79c-.11,0-.22.03-.3.07-.25.14-.36.45-.36.87,0,.48.16,1.03.47,1.56.3.55.71.98,1.12,1.23.38.21.71.25.96.13.22-.14.36-.44.36-.87,0-.49-.16-1.05-.49-1.58-.3-.53-.71-.96-1.12-1.21-.22-.13-.44-.2-.63-.2h0ZM23.73,42.37c-.3,0-.63-.09-.96-.28-.52-.3-1.01-.82-1.37-1.44-.38-.65-.58-1.32-.58-1.91,0-.66.25-1.17.68-1.43.44-.25,1.01-.21,1.56.13.55.3,1.01.81,1.4,1.44h0c.36.63.55,1.31.55,1.91,0,.67-.25,1.18-.69,1.43-.16.11-.38.16-.6.16Z"/>
      <path class="cls-3" d="M.35,11.8c8.22,4.73,16.38,9.48,24.56,14.2.33.2.66.52.93.9h0c.27.38.47.82.55,1.27l1.45,6.73c.03.18.06.33.06.52v7.21c0,.16-.14.23-.27.15l-1.48-.85v-.3c0-1.03-.36-2.16-.93-3.17h0c-.58-1.02-1.4-1.9-2.27-2.41-.9-.52-1.7-.56-2.27-.23h0c-.6.34-.96,1.06-.96,2.08v.31c-3.51-2.02-7.01-4.07-10.52-6.1v-.28c0-1.03-.36-2.16-.93-3.17h-.03c-.57-1.02-1.37-1.9-2.27-2.41-.88-.52-1.7-.56-2.27-.23h0c-.57.34-.93,1.07-.93,2.09v.28l-.85-.49c-.41-.24-.82-.67-1.09-1.15-.27-.49-.47-1.04-.47-1.53v-13.41Z"/>
      <path class="cls-2" d="M26.47,41.74l1.09.63v-6.95c0-.15-.03-.3-.05-.45l-1.42-6.72c-.08-.4-.27-.8-.52-1.15-.25-.36-.52-.63-.82-.81-4.08-2.34-8.13-4.7-12.21-7.05-3.94-2.29-7.89-4.58-11.86-6.86v12.85c0,.41.16.91.41,1.36.27.45.63.84.99,1.04l.36.21c.06-.98.44-1.72,1.09-2.1.71-.41,1.64-.33,2.6.22.9.53,1.75,1.42,2.41,2.53.63,1.11.99,2.29.99,3.33v.1l9.86,5.73c.05-.99.47-1.74,1.12-2.12.68-.41,1.62-.34,2.57.23.93.52,1.78,1.42,2.41,2.52.63,1.1.99,2.29.99,3.34v.12h0ZM27.73,43.13c-.08,0-.16-.02-.27-.07l-1.48-.86c-.11-.06-.16-.17-.16-.29.03-.09.03-.18.03-.28,0-.94-.33-2.01-.9-3.02-.57-1.01-1.37-1.82-2.16-2.29-.77-.43-1.45-.52-1.97-.22-.49.3-.77.93-.77,1.81v.29c0,.12-.06.24-.14.3-.11.06-.25.06-.36,0l-10.52-6.1c-.11-.06-.16-.18-.16-.3v-.26c0-.94-.3-2.01-.9-3.01-.57-1.01-1.34-1.83-2.16-2.3-.74-.44-1.45-.51-1.94-.22s-.79.94-.79,1.81c0,.08.03.17.03.27,0,.12-.06.22-.16.29-.11.06-.22.06-.33,0l-.85-.49c-.46-.26-.88-.72-1.2-1.27-.33-.56-.49-1.16-.49-1.69v-13.41c0-.11.05-.22.14-.27.11-.06.25-.06.33,0,4.13,2.37,8.24,4.75,12.35,7.13,4.08,2.36,8.13,4.71,12.21,7.06.38.23.74.57,1.04,1,.27.43.49.9.6,1.38l1.42,6.73c.03.17.08.36.08.58v7.21c0,.19-.11.36-.25.45-.08.04-.16.06-.25.06Z"/>
      <path class="cls-1" d="M25.84,26.9l12.02-6.94c.27.4.44.79.55,1.26l1.45,6.73c.03.18.05.34.05.52v7.21l-12.02,6.94v-7.21c0-.18-.03-.34-.06-.52l-1.45-6.73c-.11-.47-.27-.87-.55-1.27Z"/>
      <path class="cls-2" d="M26.28,27.01c.22.35.36.69.44,1.09l1.42,6.73c.05.21.05.37.08.58v6.65l11.36-6.57v-7.02c0-.15-.03-.29-.05-.45l-1.42-6.72c-.08-.33-.19-.61-.36-.9l-11.47,6.61h0ZM27.9,42.94c-.06,0-.11,0-.16-.05-.11-.05-.16-.16-.16-.27v-7.21c0-.15-.03-.29-.05-.45l-1.42-6.72c-.11-.42-.25-.78-.52-1.15-.05-.07-.05-.16-.03-.26,0-.09.06-.16.14-.21l12.02-6.94c.16-.08.36-.04.44.1.3.45.49.87.6,1.38l1.42,6.73c.03.21.05.37.05.58v7.21c0,.11-.05.22-.14.27l-12.02,6.94c-.05.04-.11.05-.16.05Z"/>
      <path class="cls-4" d="M19.84,24.75l4.46,2.57c.19.12.38.31.52.53h.03c.14.22.25.48.3.73h0l1.2,5.54c.03.18-.05.3-.19.26-.03,0-.06-.02-.08-.03h0l-6.24-3.61c-.14-.08-.25-.28-.25-.45v-5.39c0-.17.11-.24.25-.16Z"/>
      <path class="cls-2" d="M19.84,24.75l-.16.28h0l.16-.28h0ZM19.9,25.16v5.14c0,.06.05.15.11.17l5.97,3.44-1.12-5.26c-.06-.22-.14-.43-.27-.63-.14-.18-.27-.34-.44-.43l-4.24-2.44h0ZM26.23,34.72c-.06,0-.08,0-.14-.01-.03,0-.14-.06-.16-.07l-6.24-3.61c-.25-.14-.41-.45-.41-.73v-5.39c0-.2.08-.36.22-.45.16-.09.36-.08.52.02l4.46,2.56c.22.15.44.36.63.63.19.27.33.56.38.85l1.18,5.54c.03.21,0,.41-.14.54-.08.08-.19.12-.3.12Z"/>
      <polygon class="cls-4" points="27.27 27.66 37.54 21.74 38.96 28.47 28.69 34.39 27.27 27.66"/>
      <path class="cls-2" d="M27.62,27.83l1.29,6.07,9.67-5.59-1.29-6.07-9.67,5.59h0ZM28.69,34.71s-.08,0-.11-.02c-.11-.04-.16-.13-.19-.23l-1.42-6.73c-.05-.13.03-.27.14-.35l10.27-5.91c.08-.06.19-.07.27-.02.11.04.16.13.19.23l1.42,6.73c.03.14-.03.27-.14.35l-10.27,5.92c-.06.03-.11.03-.16.03Z"/>
      <polygon class="cls-3" points="28.22 32.2 33.4 29.27 34.36 27.54 37.07 26.02 38.52 26.39 38.96 28.47 28.69 34.39 28.22 32.2"/>
      <path class="cls-2" d="M28.58,32.36l.33,1.54,9.67-5.59-.33-1.65-1.15-.29-2.49,1.42-.93,1.65s-.06.09-.11.12l-4.98,2.81h0ZM28.69,34.71s-.08,0-.11-.02c-.11-.04-.16-.13-.19-.23l-.47-2.2c-.03-.14.03-.27.16-.35l5.07-2.88.93-1.65s.08-.09.14-.12l2.68-1.52c.05-.05.14-.06.22-.04l1.45.36c.14.02.22.13.25.24l.44,2.09c.03.14-.03.27-.14.35l-10.27,5.92c-.06.03-.11.03-.16.03Z"/>
      <path class="cls-3" d="M26.06,32.81l.3,1.32c.03.18-.05.3-.19.26-.03,0-.06-.02-.08-.03h0l-6.24-3.61c-.14-.08-.25-.28-.25-.45v-.93l6.46,3.44Z"/>
      <path class="cls-2" d="M19.9,29.91v.4c0,.06.05.15.11.17l5.97,3.44-.19-.9-5.89-3.12h0ZM26.23,34.72c-.06,0-.08,0-.14-.01-.03,0-.14-.06-.16-.07l-6.24-3.61c-.25-.14-.41-.45-.41-.73v-.93c0-.12.06-.22.14-.27.11-.06.22-.06.33,0l6.49,3.44c.08.05.14.12.16.22l.27,1.32c.03.21,0,.41-.14.54-.08.08-.19.12-.3.12Z"/>
      <path class="cls-1" d="M36.93,19.06c.38.24.66.53.93.9l-12.02,6.94h0c-.25-.35-.57-.68-.93-.9L.43,11.87s-.05-.04-.08-.04l.03-.03,11.94-6.88c.08-.04.11-.02.16.02l24.46,14.11Z"/>
      <path class="cls-2" d="M1,11.83l24.07,13.89c.3.18.6.44.85.76l11.47-6.61c-.19-.23-.41-.39-.63-.54L12.37,5.26,1,11.83h0ZM25.84,27.23c-.11,0-.19-.06-.27-.15-.25-.36-.52-.63-.82-.81L.26,12.14c-.14,0-.22-.11-.25-.25-.06-.14.03-.27.16-.35l11.97-6.9c.25-.1.38-.04.47,0l24.48,14.13h0c.41.24.71.55,1.01,1,.06.07.08.16.06.25,0,.08-.06.16-.14.21l-12.02,6.94c-.05.03-.11.05-.16.05Z"/>
      <path class="cls-2" d="M21.13,33.14c-.06,0-.11-.01-.14-.05l-1.7-.96c-.14-.08-.19-.28-.11-.44.08-.15.3-.21.44-.12l1.67.96c.16.09.22.29.11.45-.06.1-.16.16-.27.16Z"/>
      <path class="cls-3" d="M38.19,33.57c-.52.3-.93.05-.93-.54s.41-1.33.93-1.63c.52-.3.93-.05.93.55s-.41,1.33-.93,1.62Z"/>
      <path class="cls-2" d="M38.6,31.59c-.08,0-.16.03-.25.08-.44.24-.79.86-.79,1.34,0,.16.06.29.14.33.05.05.19.02.33-.06h0c.41-.25.77-.85.77-1.34,0-.16-.03-.29-.11-.33-.03-.02-.05-.02-.08-.02h0ZM37.78,34.01c-.16,0-.3-.04-.41-.1-.27-.16-.44-.48-.44-.89,0-.71.47-1.55,1.09-1.9.36-.21.71-.23.99-.07.27.16.44.49.44.89,0,.71-.49,1.55-1.1,1.91h0c-.19.11-.41.16-.57.16Z"/>
      <polygon class="cls-4" points="40.25 35.63 40.25 33.81 27.9 40.96 27.9 42.78 40.25 35.63"/>
      <path class="cls-2" d="M28.22,41.14v1.07l11.69-6.78v-1.07l-11.69,6.78h0ZM27.9,43.1c-.06,0-.11,0-.16-.04-.11-.06-.16-.16-.16-.28v-1.82c0-.12.06-.23.16-.28l12.35-7.15c.11-.05.22-.05.33,0,.08.06.16.16.16.28v1.82c0,.11-.08.22-.16.28l-12.35,7.15c-.05.03-.11.04-.16.04Z"/>
      <path class="cls-3" d="M29.87,38.36c-.52.3-.96.05-.96-.54s.44-1.32.96-1.63c.52-.3.93-.06.93.54s-.41,1.33-.93,1.63Z"/>
      <path class="cls-2" d="M30.28,36.38c-.08,0-.16.03-.25.08-.44.24-.79.86-.79,1.35,0,.16.06.28.11.33.08.04.22.02.36-.07h0c.41-.24.77-.86.77-1.35,0-.16-.03-.28-.11-.33-.03-.01-.05-.02-.08-.02h0ZM29.43,38.81c-.14,0-.27-.04-.41-.11-.27-.16-.44-.48-.44-.88,0-.72.49-1.55,1.12-1.91.36-.2.71-.23.99-.06.27.15.44.48.44.88,0,.72-.49,1.55-1.1,1.91h0c-.22.11-.41.17-.6.17Z"/>
      <path class="cls-2" d="M31.84,37.42c-.19,0-.33-.14-.33-.32v-2.77c0-.18.14-.33.33-.33.16,0,.33.14.33.33v2.77c0,.18-.16.32-.33.32Z"/>
      <path class="cls-2" d="M32.88,36.81h0c-.16,0-.3-.14-.3-.32v-2.78c0-.17.14-.32.3-.32h0c.19,0,.33.14.33.32v2.78c0,.17-.14.32-.33.32Z"/>
      <path class="cls-2" d="M34,36.16h0c-.16,0-.33-.13-.33-.32v-2.77c0-.18.16-.33.33-.33h0c.19,0,.33.15.33.33v2.77c0,.18-.14.32-.33.32Z"/>
      <path class="cls-2" d="M35.1,35.54c-.19,0-.33-.13-.33-.32v-2.77c0-.18.14-.33.33-.33h0c.16,0,.33.14.33.33v2.77c0,.17-.16.32-.33.32h0Z"/>
      <path class="cls-2" d="M36.22,34.89h0c-.16,0-.3-.15-.3-.32v-2.78c0-.17.14-.32.33-.32h0c.16,0,.3.15.3.32v2.78c0,.18-.14.32-.33.32Z"/>
      <path class="cls-4" d="M27.9,42.78c-.06.06-.14.07-.25.01l-1.51-.87v-.3c0-.59-.11-1.23-.33-1.85l2.08,1.2v1.82Z"/>
      <path class="cls-2" d="M26.47,41.74l1.09.63v-1.22l-1.23-.7c.11.4.14.8.14,1.17v.12h0ZM27.79,43.14c-.11,0-.19-.02-.3-.07l-1.51-.88c-.11-.06-.16-.17-.16-.3.03-.08.03-.17.03-.27,0-.55-.11-1.14-.33-1.74-.06-.13,0-.27.11-.36.08-.08.25-.1.36-.03l2.08,1.19c.08.05.16.16.16.28v1.82c0,.08-.05.16-.11.22-.08.1-.19.15-.33.15Z"/>
      <polygon class="cls-1" points="26.31 34.39 26.31 31.32 25.1 32.01 25.1 35.08 26.31 34.39"/>
      <path class="cls-2" d="M26.31,34.39h.03-.03ZM25.43,32.2v2.33l.55-.32v-2.32l-.55.32h0ZM25.1,35.41c-.06,0-.11-.02-.16-.05-.08-.05-.16-.16-.16-.28v-3.07c0-.11.08-.22.16-.27l1.2-.69c.11-.07.22-.07.33,0,.11.05.16.16.16.27v3.07c0,.12-.06.23-.16.28l-1.2.69c-.06.03-.11.05-.16.05Z"/>
      <path class="cls-2" d="M26.31,34.72c-.11,0-.22-.07-.27-.16-.08-.15-.03-.35.11-.44l.6-.35c.14-.09.36-.03.44.12.08.15.03.35-.11.44l-.6.35c-.06.03-.11.05-.16.05Z"/>
      <polygon class="cls-1" points="40.85 25.97 40.85 22.9 39.64 23.59 39.64 26.66 40.85 25.97"/>
      <path class="cls-2" d="M39.97,23.77v2.32l.55-.32v-2.33l-.55.32h0ZM39.64,26.98c-.06,0-.11-.02-.16-.04-.11-.06-.16-.16-.16-.27v-3.07c0-.12.06-.23.16-.28l1.21-.69c.08-.05.22-.05.33,0,.08.06.14.16.14.28v3.07c0,.11-.06.22-.14.27l-1.2.69c-.06.03-.11.04-.16.04Z"/>
      <path class="cls-4" d="M16.28,22.68l1.78,1.03c.16.1.3.35.3.55v12.84c0,.2-.14.28-.3.18l-1.78-1.03c-.16-.1-.33-.35-.33-.55v-12.84c0-.2.16-.28.33-.18Z"/>
      <path class="cls-2" d="M16.28,22.68l-.16.28h0l.16-.28h0ZM16.28,23.07v12.64c0,.08.08.23.16.27l1.62.93v-12.65c0-.08-.08-.22-.16-.26l-1.62-.93h0ZM18.2,37.64c-.11,0-.19-.03-.3-.08l-1.78-1.03c-.27-.16-.47-.52-.47-.83v-12.84c0-.21.08-.38.25-.48.16-.09.36-.08.55.03l1.78,1.02c.27.16.47.52.47.83v12.84c0,.21-.08.39-.25.48-.08.05-.16.07-.25.07Z"/>
      <path class="cls-4" d="M12.97,20.77l1.78,1.03c.16.1.3.35.3.55v12.84c0,.2-.14.28-.3.18l-1.78-1.03c-.19-.1-.33-.35-.33-.54v-12.84c0-.2.14-.28.33-.18Z"/>
      <path class="cls-2" d="M12.97,20.77l-.16.28h0l.16-.28h0ZM12.97,21.15v12.64c0,.08.08.23.16.26l1.59.94v-12.65c0-.08-.08-.23-.14-.26l-1.62-.93h0ZM14.89,35.72c-.11,0-.22-.03-.3-.09l-1.78-1.02c-.27-.16-.49-.52-.49-.83v-12.84c0-.21.11-.38.27-.48.16-.09.36-.08.55.03h0l1.75,1.02c.27.16.49.52.49.83v12.84c0,.21-.08.39-.25.48-.08.04-.16.06-.25.06Z"/>
      <path class="cls-4" d="M1.82,14.34l3.97,2.29c.16.1.3.35.3.55v5.22c0,.2-.14.28-.3.19l-3.97-2.3c-.16-.1-.3-.35-.3-.55v-5.23c0-.2.14-.28.3-.18Z"/>
      <path class="cls-2" d="M1.82,14.34l-.16.27h0l.16-.27h0ZM1.82,14.72v5.03c0,.09.08.23.16.27l3.81,2.19v-5.03c0-.08-.08-.23-.16-.26l-3.81-2.2h0ZM5.93,22.96c-.11,0-.19-.03-.3-.09l-3.97-2.29c-.27-.15-.47-.51-.47-.82v-5.23c0-.22.08-.39.25-.48.16-.09.36-.09.55.02h0l3.97,2.29c.27.16.47.52.47.83v5.22c0,.22-.08.39-.25.49-.08.04-.16.07-.25.07Z"/>
      <path class="cls-4" d="M7.27,17.49l3.97,2.3c.16.1.33.35.33.54v5.23c0,.2-.16.28-.33.18l-3.97-2.29c-.16-.1-.3-.34-.3-.54v-5.23c0-.2.14-.28.3-.18Z"/>
      <path class="cls-2" d="M7.27,17.49l-.16.28h.03l.14-.28h0ZM7.3,17.87v5.03c0,.08.08.23.14.26l3.81,2.2v-5.03c0-.09-.08-.23-.16-.27l-3.78-2.19h0ZM11.41,26.1c-.11,0-.22-.02-.33-.08l-3.94-2.29c-.27-.16-.49-.52-.49-.82v-5.23c0-.21.08-.38.25-.48.16-.09.38-.08.55.03h0l3.97,2.29c.27.15.46.51.46.83v5.23c0,.22-.08.39-.25.48-.08.05-.16.06-.22.06Z"/>
      <path class="cls-4" d="M13.98,12.75c2.33-1.34,6.11-1.34,8.43,0,2.33,1.34,2.33,3.52,0,4.87-2.33,1.34-6.11,1.34-8.43,0-2.33-1.34-2.33-3.52,0-4.87Z"/>
      <path class="cls-2" d="M14.15,13.03c-1.01.59-1.59,1.36-1.59,2.16s.57,1.56,1.59,2.15c2.25,1.29,5.89,1.29,8.11,0,1.01-.59,1.59-1.35,1.59-2.15s-.57-1.57-1.59-2.16c-2.25-1.29-5.86-1.29-8.11,0h0ZM18.2,18.94c-1.59,0-3.18-.34-4.38-1.04-1.23-.71-1.92-1.67-1.92-2.71s.68-2.01,1.92-2.72h0c2.41-1.39,6.35-1.39,8.76,0,1.23.71,1.92,1.67,1.92,2.72s-.69,2-1.92,2.71c-1.21.7-2.79,1.04-4.38,1.04Z"/>
      <path class="cls-2" d="M16.2,16.86c-.11,0-.22-.07-.27-.16L8.07,3.06c-.11-.15-.05-.35.11-.43.16-.09.36-.04.44.12l7.89,13.63c.08.16.03.36-.14.45-.05.03-.11.05-.16.05Z"/>
      <path class="cls-2" d="M20.58,14.28c-.11,0-.22-.06-.27-.16L12.42.48c-.08-.15-.03-.34.11-.43.16-.09.36-.04.47.12l7.86,13.64c.08.15.03.35-.11.44-.05.03-.11.04-.16.04Z"/>
      <polygon class="cls-3" points="16.2 16.53 14.31 13.25 18.69 10.67 20.58 13.95 16.2 16.53"/>
      <path class="cls-2" d="M14.75,13.37l1.59,2.72,3.81-2.25-1.59-2.73-3.81,2.25h0ZM16.2,16.86s-.05-.01-.08-.02c-.08-.02-.14-.07-.19-.15l-1.89-3.28c-.08-.15-.03-.35.11-.44l4.38-2.58c.05-.05.16-.06.25-.04.08.02.14.07.19.16l1.89,3.28c.08.15.03.35-.11.44l-4.38,2.58c-.05.03-.11.05-.16.05Z"/>
    </g>
  </g>
</svg>