<?xml version="1.0" encoding="UTF-8"?>
<svg id="Layer_2" data-name="Layer 2" xmlns="http://www.w3.org/2000/svg" viewBox="0 0 37.22 44" fill="currentColor">
  <defs>
    <style>
      .cls-1 {
        fill: #fff;
      }

      .cls-1, .cls-2, .cls-3, .cls-4 {
        fill-rule: evenodd;
      }

      .cls-2 {
        fill: #1a87c7;
      }

      .cls-3 {
        fill: #bdedf8;
      }

      .cls-4 {
        fill: #66ceef;
      }
    </style>
  </defs>
  <g id="_Layer_" data-name="&amp;lt;Layer&amp;gt;">
    <g>
      <path class="cls-1" d="M7.66,35.91c3.09-1.78,8.08-1.78,11.17,0,3.09,1.78,3.09,4.67,0,6.45-3.08,1.78-8.09,1.78-11.18,0-3.09-1.78-3.08-4.67,0-6.45Z"/>
      <path class="cls-2" d="M13.24,34.89c-1.96,0-3.93.43-5.43,1.29-1.39.8-2.16,1.85-2.16,2.96s.76,2.16,2.16,2.96c3,1.73,7.87,1.73,10.87,0,1.39-.8,2.16-1.85,2.16-2.96s-.78-2.16-2.16-2.96c-1.5-.87-3.47-1.29-5.43-1.29h0ZM13.24,44c-2.08,0-4.15-.45-5.74-1.37-1.59-.92-2.47-2.16-2.47-3.5s.88-2.57,2.47-3.5c3.16-1.82,8.31-1.82,11.47,0,1.6.92,2.47,2.17,2.47,3.5s-.87,2.57-2.46,3.5c-1.58.91-3.67,1.37-5.75,1.37Z"/>
      <path class="cls-1" d="M.52,16.27h0c-.72-2.33.47-4.82,3.58-6.61,5.05-2.92,13.24-2.92,18.29,0,3.21,1.85,4.37,4.43,3.52,6.81h0l-.02.03c-.02.05-.03.1-.05.15-.55,1.43-4.29,11.08-5.02,12.96-.14,1.01-.87,1.99-2.2,2.75-2.96,1.71-7.77,1.71-10.73,0-1.4-.81-2.14-1.85-2.22-2.91L.76,16.9c-.09-.21-.17-.41-.24-.63h0Z"/>
      <path class="cls-2" d="M.81,16.17c.07.22.14.41.23.6l4.91,12.56s.02.06.02.09c.08,1,.81,1.95,2.07,2.68,2.87,1.66,7.55,1.66,10.42,0,1.19-.69,1.92-1.59,2.04-2.54.72-1.87,4.16-10.74,4.95-12.79l.15-.38c.85-2.34-.42-4.75-3.37-6.47-4.96-2.86-13.02-2.86-17.98,0C1.4,11.57.11,13.91.81,16.17h0ZM13.24,33.95c-2,0-4-.45-5.52-1.32-1.43-.81-2.26-1.92-2.37-3.11L.47,17.01c-.1-.2-.18-.42-.24-.64h0c-.8-2.57.6-5.17,3.73-6.98,5.12-2.96,13.46-2.97,18.59,0,3.23,1.87,4.6,4.55,3.65,7.18l-.16.42c-.79,2.04-4.23,10.92-4.93,12.72-.14,1.06-.97,2.12-2.34,2.91-1.52.88-3.52,1.32-5.52,1.32Z"/>
      <path class="cls-1" d="M14.13,33.62v2.56c-.13.63-1.65.62-1.77,0v-2.56c.59.04,1.18.04,1.77,0Z"/>
      <path class="cls-2" d="M12.67,33.94v2.24s.25.16.57.16c.33-.03.57-.11.6-.22v-2.18c-.39.02-.78.02-1.17,0h0ZM13.25,36.96h-.02c-.63-.01-1.1-.29-1.18-.71v-2.63c0-.08.03-.17.09-.23.06-.06.14-.09.24-.09.57.04,1.15.04,1.73,0,.09,0,.17.03.23.09.07.05.1.14.1.23v2.56c-.1.5-.56.78-1.19.78Z"/>
      <path class="cls-3" d="M7.88,26.17c2.97-1.71,7.76-1.71,10.73,0,2.97,1.71,2.97,4.49,0,6.19-2.96,1.71-7.77,1.71-10.73,0-2.96-1.71-2.96-4.48,0-6.19Z"/>
      <path class="cls-2" d="M8.03,26.43c-1.34.77-2.07,1.78-2.07,2.83s.73,2.06,2.07,2.83c2.87,1.66,7.55,1.66,10.42,0,1.33-.77,2.07-1.77,2.07-2.83s-.74-2.06-2.07-2.83c-2.88-1.65-7.55-1.66-10.42,0h0ZM13.24,33.95c-2,0-4-.45-5.52-1.32-1.53-.89-2.37-2.07-2.37-3.36s.84-2.48,2.37-3.36h0c3.04-1.76,8-1.76,11.04,0,1.53.89,2.38,2.08,2.38,3.36s-.84,2.48-2.38,3.36c-1.52.88-3.52,1.32-5.52,1.32Z"/>
      <polygon class="cls-3" points="4.18 22.67 22.29 22.73 19.4 29.78 7.04 29.66 4.18 22.67"/>
      <path class="cls-2" d="M7.25,29.36l11.94.11,2.64-6.43-17.19-.06,2.61,6.38h0ZM19.4,30.09h0l-12.34-.12c-.12,0-.24-.08-.29-.19l-2.87-6.99c-.04-.1-.03-.21.03-.29.05-.09.15-.14.25-.14h0l18.11.06c.1,0,.2.05.25.14.06.08.07.19.03.29l-2.89,7.05c-.05.11-.17.19-.29.19Z"/>
      <path class="cls-4" d="M8.81,26.51c2.45-1.42,6.42-1.42,8.87,0,2.45,1.42,2.45,3.71,0,5.12-2.44,1.42-6.41,1.42-8.87,0-2.45-1.42-2.45-3.7,0-5.12Z"/>
      <path class="cls-2" d="M13.24,25.75c-1.55,0-3.09.34-4.28,1.03-1.09.62-1.68,1.44-1.68,2.29s.6,1.66,1.68,2.29c2.36,1.36,6.2,1.36,8.56,0,1.08-.63,1.68-1.44,1.68-2.29s-.59-1.67-1.68-2.29c-1.18-.69-2.73-1.03-4.29-1.03h0ZM13.24,32.99c-1.66,0-3.32-.37-4.59-1.09-1.29-.74-1.99-1.75-1.99-2.83s.71-2.09,1.99-2.83c2.53-1.46,6.65-1.46,9.18,0,1.29.75,1.99,1.75,1.99,2.83s-.7,2.09-1.99,2.83c-1.26.73-2.93,1.09-4.59,1.09Z"/>
      <path class="cls-3" d="M14.13,32.65c-.58.05-1.18.05-1.77,0v-3.34c.13.62,1.65.62,1.77,0v3.34Z"/>
      <path class="cls-2" d="M12.67,32.37c.38.02.76.02,1.16,0v-2.37c-.17.06-.37.09-.58.09h0c-.22,0-.41-.03-.57-.09v2.37h0ZM14.13,32.65h0,0ZM13.24,33c-.3,0-.61-.02-.91-.04-.16,0-.28-.14-.28-.3v-3.34c0-.17.11-.3.28-.31.16-.02.29.1.33.25.02.1.26.21.58.22h0c.32,0,.57-.12.59-.22.03-.16.17-.27.33-.25.16.02.28.16.28.31v3.34c0,.17-.12.3-.29.3-.3.03-.61.04-.91.04Z"/>
      <path class="cls-3" d="M12.61,28.9c.35-.2.9-.2,1.25,0,.35.2.35.53,0,.73-.34.2-.9.2-1.25,0-.35-.2-.35-.53,0-.73Z"/>
      <path class="cls-2" d="M12.77,29.17c-.09.04-.11.09-.11.1,0,0,.02.05.11.09.25.15.69.15.95,0,.08-.04.1-.09.1-.09,0-.01-.03-.05-.1-.1-.25-.15-.7-.15-.95,0h0ZM13.24,30.08c-.28,0-.56-.06-.78-.19-.26-.15-.41-.38-.41-.62,0-.25.15-.48.41-.63h0c.45-.26,1.12-.26,1.56,0,.26.15.42.37.42.63s-.16.48-.42.62c-.22.13-.5.19-.78.19Z"/>
      <path class="cls-4" d="M21.14,24.4l-.91,2.73-.64,1.95c-.11.18-.41.17-.58.13h-.04c-.15-.05-.28-.12-.41-.24-.07-.08-.12-.17-.11-.28l1.05-3.14c.09-.05.19-.09.28-.15.54-.3.99-.64,1.37-1Z"/>
      <path class="cls-2" d="M18.76,28.73c.09.1.18.14.3.17.12.03.22.03.25.01l1.21-3.62c-.18.13-.38.26-.58.37-.06.04-.12.07-.18.1l-.99,2.96h0ZM19.2,29.54c-.1,0-.19,0-.28-.03-.26-.07-.43-.17-.58-.31-.06-.07-.24-.25-.2-.53l1.06-3.2c.03-.08.08-.14.15-.18.1-.05.18-.09.27-.15.51-.28.95-.62,1.31-.96.1-.1.26-.11.37-.04.12.08.17.23.13.36l-1.56,4.67c-.16.28-.42.36-.67.36Z"/>
      <path class="cls-3" d="M6.71,17.86c3.61-2.08,9.45-2.08,13.06,0,3.61,2.09,3.61,5.47,0,7.55-3.61,2.09-9.47,2.09-13.07,0-3.61-2.08-3.6-5.46,0-7.55Z"/>
      <path class="cls-2" d="M6.71,17.86h0,0ZM13.24,16.61c-2.31,0-4.61.51-6.38,1.52h0c-1.64.96-2.55,2.2-2.55,3.51s.91,2.55,2.55,3.5c3.52,2.03,9.25,2.03,12.76,0,1.65-.95,2.56-2.2,2.56-3.5s-.9-2.55-2.56-3.51c-1.75-1.02-4.07-1.52-6.38-1.52h0ZM13.24,27.27c-2.42,0-4.84-.53-6.68-1.6-1.85-1.06-2.86-2.49-2.86-4.03s1.02-2.98,2.86-4.04h0c3.69-2.13,9.68-2.13,13.37,0,1.85,1.06,2.87,2.5,2.87,4.04s-1.02,2.97-2.86,4.03c-1.84,1.07-4.27,1.6-6.69,1.6Z"/>
      <path class="cls-3" d="M5.19,10.29c-4.45,2.57-4.45,6.73,0,9.3,4.44,2.56,11.66,2.56,16.11,0,4.44-2.56,4.44-6.73,0-9.3-4.44-2.56-11.65-2.56-16.1,0h0ZM4.1,9.66c5.05-2.92,13.24-2.92,18.29,0,5.05,2.91,5.06,7.64,0,10.56-5.05,2.91-13.24,2.91-18.3,0-5.05-2.92-5.05-7.65,0-10.56h0Z"/>
      <path class="cls-2" d="M5.35,10.56c-2.06,1.18-3.19,2.74-3.19,4.38s1.13,3.2,3.18,4.38c4.36,2.52,11.45,2.52,15.8,0,2.05-1.18,3.18-2.74,3.18-4.38s-1.13-3.2-3.18-4.38c-4.35-2.51-11.44-2.51-15.79,0h0ZM13.24,21.81c-2.97,0-5.94-.65-8.21-1.95-2.25-1.3-3.48-3.05-3.48-4.92s1.23-3.62,3.48-4.91h0c4.53-2.62,11.89-2.62,16.41,0,2.25,1.29,3.5,3.04,3.5,4.91s-1.24,3.62-3.5,4.92c-2.26,1.3-5.23,1.95-8.21,1.95h0ZM4.25,9.92h0c4.95-2.86,13.02-2.86,17.98,0,2.34,1.36,3.64,3.14,3.64,5.01s-1.3,3.66-3.63,5.02c-4.97,2.86-13.03,2.86-17.98,0-2.35-1.36-3.63-3.13-3.63-5.02s1.29-3.66,3.63-5.01h0ZM13.24,22.71c-3.36,0-6.74-.74-9.3-2.22C1.4,19.01,0,17.05,0,14.94s1.4-4.08,3.95-5.54h0c5.12-2.97,13.46-2.97,18.59,0,2.54,1.47,3.95,3.44,3.95,5.54s-1.4,4.08-3.95,5.55c-2.57,1.49-5.93,2.22-9.3,2.22Z"/>
      <path class="cls-3" d="M24.56,14.21l-1.3,3.85c-.45.5-1.02.96-1.71,1.38l2.3-6.89c.36.54.59,1.1.7,1.66Z"/>
      <path class="cls-2" d="M23.93,13.29l-1.8,5.37c.32-.24.61-.5.86-.77l1.24-3.72c-.06-.3-.17-.6-.3-.89h0ZM21.55,19.75c-.07,0-.14-.02-.19-.07-.1-.08-.15-.21-.1-.34l2.3-6.89c.05-.11.14-.19.25-.21.11-.02.24.03.3.13.38.56.63,1.16.76,1.77,0,.05,0,.11-.01.16l-1.29,3.86s-.03.08-.07.11c-.48.51-1.08.99-1.78,1.43-.05.03-.11.04-.16.04Z"/>
      <path class="cls-1" d="M20.27.54c4.88-1,11.5,1.22,14.8,4.95,3.3,3.73,2.02,7.56-2.86,8.55-4.88.99-11.51-1.23-14.81-4.96-3.3-3.73-2.01-7.55,2.87-8.55Z"/>
      <path class="cls-2" d="M22.75.61c-.84,0-1.65.07-2.42.22-2.25.46-3.77,1.54-4.28,3.05-.5,1.5.06,3.28,1.58,5,3.22,3.65,9.74,5.83,14.51,4.86,2.24-.46,3.77-1.54,4.27-3.04.5-1.51-.06-3.28-1.58-5-2.7-3.06-7.73-5.09-12.09-5.09h0ZM29.76,14.59c-4.54,0-9.76-2.11-12.59-5.3-1.67-1.89-2.27-3.89-1.7-5.61.58-1.72,2.26-2.94,4.73-3.45,4.97-1.01,11.74,1.25,15.11,5.05,1.67,1.89,2.27,3.89,1.7,5.6-.57,1.72-2.25,2.95-4.73,3.45-.8.17-1.64.24-2.52.24Z"/>
      <path class="cls-4" d="M30.44,14.27c-4.61.23-10.13-1.89-13.04-5.18-.42-.47-.75-.94-1.02-1.4L28.1,1.72l2.34,12.54Z"/>
      <path class="cls-2" d="M16.81,7.81c.23.36.5.72.83,1.08,2.73,3.09,7.92,5.21,12.43,5.09l-2.19-11.78-11.06,5.62h0ZM29.74,14.59c-4.61,0-9.79-2.16-12.57-5.3-.42-.48-.78-.96-1.06-1.46-.04-.07-.05-.16-.03-.24.02-.08.08-.15.16-.18L27.96,1.45c.09-.04.19-.04.28,0,.09.04.15.12.17.21l2.34,12.54c.02.09,0,.18-.06.25-.06.07-.14.11-.23.11-.24,0-.48.02-.72.02Z"/>
      <path class="cls-3" d="M26.27.7c2.24.49,4.45,1.4,6.29,2.62l.1.22-4.55-1.82-1.83-1.02Z"/>
      <path class="cls-2" d="M32.66,3.85s-.08,0-.11-.02l-4.55-1.83-1.87-1.03c-.13-.08-.19-.24-.14-.38.05-.14.2-.22.36-.19,2.28.5,4.55,1.45,6.39,2.68.04.03.08.07.1.11l.11.22c.05.11.03.25-.05.35-.06.06-.14.09-.23.09Z"/>
      <path class="cls-4" d="M28.8,1.41l-.34,1.14c-.05.09-.14.13-.23.15-.18.04-.33,0-.49-.05-.13-.05-.23-.11-.32-.22-.06-.07-.1-.15-.09-.25l.35-1.14c0,.09.02.15.07.22.15.2.43.3.68.31.14,0,.31-.03.38-.16Z"/>
      <path class="cls-2" d="M27.79,1.7l-.17.56c.08.02.14.05.24.1.11.04.21.05.31.03l.17-.52c-.2-.02-.39-.08-.55-.17h0ZM28.08,3.02c-.15,0-.29-.03-.46-.09-.14-.06-.29-.14-.44-.3-.09-.11-.2-.27-.17-.5l.36-1.2c.05-.15.2-.24.36-.21.16.04.26.18.24.34.1.1.27.18.45.19.08,0,.11,0,.12-.02.08-.14.24-.18.38-.12.15.06.22.23.17.38l-.35,1.14c-.16.29-.38.34-.46.36-.07,0-.14.02-.2.02Z"/>
      <path class="cls-4" d="M27.92.83c.27-.06.62.06.81.27.18.2.1.41-.16.46-.27.05-.63-.07-.81-.27-.18-.2-.1-.41.16-.46Z"/>
      <path class="cls-2" d="M27.92.83h0,0ZM28.04,1.13c.12.09.26.13.41.14-.12-.1-.29-.15-.41-.14h0ZM28.43,1.88c-.33,0-.69-.15-.9-.39-.16-.17-.22-.39-.16-.58.07-.2.24-.34.48-.38.37-.08.84.08,1.09.36.17.18.22.4.16.59-.07.19-.24.33-.48.38-.06,0-.13.02-.2.02Z"/>
      <path class="cls-3" d="M22.58,20.1l-.15.44-.64,1.94c-.07.12-.21.15-.34.16-.2.01-.39-.05-.56-.16-.12-.09-.26-.22-.24-.37l.41-1.22c.46-.2.9-.42,1.33-.66.06-.04.12-.08.19-.12Z"/>
      <path class="cls-2" d="M20.97,22.13s.04.05.1.1c.11.07.22.11.37.1.03,0,.06,0,.07,0l.52-1.56c-.23.12-.48.24-.73.35l-.34,1.02h0ZM21.44,22.94c-.25,0-.5-.08-.7-.21-.36-.24-.4-.5-.38-.68l.42-1.27c.03-.08.09-.15.17-.18.45-.2.89-.42,1.3-.65l.18-.12c.11-.07.25-.06.35.03.1.08.14.21.1.34l-.79,2.36c-.14.25-.33.36-.61.37h-.03Z"/>
      <path class="cls-4" d="M9.04,26.38c2.38-1.25,6.03-1.25,8.42,0-2.64.78-5.79.78-8.42,0Z"/>
      <path class="cls-2" d="M9.97,26.31c2.1.47,4.45.47,6.55,0-1.98-.73-4.57-.73-6.55,0h0ZM13.24,27.28c-1.48,0-2.95-.2-4.29-.6-.12-.03-.21-.14-.23-.27,0-.12.06-.24.17-.3,2.49-1.3,6.23-1.3,8.71,0,.12.05.18.18.16.3-.02.13-.09.24-.22.27-1.35.4-2.82.6-4.3.6Z"/>
    </g>
  </g>
</svg>