<?xml version="1.0" encoding="UTF-8"?>
<svg id="Layer_2" data-name="Layer 2" xmlns="http://www.w3.org/2000/svg" viewBox="0 0 34.43 44.16" fill="currentColor">
  <defs>
    <style>
      .cls-1 {
        fill: #fff;
      }

      .cls-1, .cls-2, .cls-3, .cls-4 {
        fill-rule: evenodd;
      }

      .cls-2 {
        fill: #1a87c7;
      }

      .cls-3 {
        fill: #bdedf8;
      }

      .cls-4 {
        fill: #66ceef;
      }
    </style>
  </defs>
  <g id="_Layer_" data-name="&amp;lt;Layer&amp;gt;">
    <g>
      <polygon class="cls-4" points="10.13 40.73 .31 35.06 24.3 21.2 34.12 26.87 10.13 40.73"/>
      <path class="cls-2" d="M.92,35.06l9.21,5.31,23.38-13.5-9.2-5.31L.92,35.06h0ZM10.13,41.04c-.05,0-.1-.01-.16-.04L.15,35.33c-.09-.06-.15-.16-.15-.27s.06-.21.15-.27l24-13.85c.1-.06.21-.06.3,0l9.82,5.67c.09.05.15.16.15.27s-.05.21-.15.27l-24,13.85c-.05.03-.1.04-.16.04Z"/>
      <polygon class="cls-4" points="10.13 43.85 .31 38.19 .31 35.06 10.13 40.73 10.13 43.85"/>
      <path class="cls-2" d="M.61,38.01l9.2,5.31v-2.42L.61,35.59v2.42h0ZM10.13,44.16c-.05,0-.1-.02-.16-.04L.15,38.45c-.09-.06-.15-.16-.15-.27v-3.13c0-.11.06-.21.15-.27.1-.06.21-.06.3,0l9.82,5.67c.1.05.15.15.15.27v3.13c0,.11-.05.21-.15.27-.05.03-.1.04-.16.04Z"/>
      <polygon class="cls-4" points="10.13 40.73 34.12 26.87 34.12 30 10.13 43.85 10.13 40.73"/>
      <path class="cls-2" d="M10.43,40.9v2.42l23.38-13.5v-2.42s-23.38,13.5-23.38,13.5h0ZM10.13,44.16c-.05,0-.1-.02-.16-.04-.1-.05-.16-.16-.16-.27v-3.13c0-.11.06-.21.16-.27l24-13.86c.09-.06.21-.06.31,0,.09.05.15.16.15.27v3.13c0,.11-.05.21-.15.27l-24,13.85c-.05.03-.1.04-.16.04Z"/>
      <polygon class="cls-3" points="22.86 30.94 17.47 27.83 17.47 3.99 22.86 7.1 22.86 30.94"/>
      <path class="cls-2" d="M17.78,27.65l4.77,2.76V7.28l-4.77-2.76v23.13h0ZM22.86,31.24c-.05,0-.11-.01-.15-.04l-5.39-3.11c-.09-.06-.15-.16-.15-.27V3.99c0-.11.06-.21.15-.27.1-.05.21-.05.3,0l5.39,3.11c.1.06.16.16.16.27v23.84c0,.11-.06.21-.16.26-.04.03-.09.04-.15.04Z"/>
      <polygon class="cls-3" points="22.86 7.1 17.47 3.99 23.84 .31 29.23 3.42 22.86 7.1"/>
      <path class="cls-2" d="M18.09,3.99l4.77,2.76,5.75-3.32-4.77-2.76-5.75,3.32h0ZM22.86,7.41c-.05,0-.11-.01-.15-.04l-5.39-3.11c-.09-.06-.15-.16-.15-.27s.06-.21.15-.27L23.69.04c.1-.06.21-.06.3,0l5.39,3.11c.09.06.16.16.16.27s-.06.21-.16.27l-6.37,3.68s-.09.04-.15.04Z"/>
      <polygon class="cls-4" points="16.83 34.42 11.44 31.31 11.44 15.77 16.83 18.88 16.83 34.42"/>
      <path class="cls-2" d="M11.75,31.13l4.77,2.76v-14.83l-4.77-2.76v14.83h0ZM16.83,34.73c-.05,0-.1-.02-.15-.04l-5.4-3.11c-.1-.06-.15-.16-.15-.27v-15.54c0-.11.05-.21.16-.26.09-.06.21-.06.3,0l5.39,3.11c.09.06.16.16.16.27v15.54c0,.11-.06.21-.16.27-.05.03-.11.04-.16.04Z"/>
      <polygon class="cls-4" points="16.83 18.88 11.44 15.77 17.81 12.09 23.2 15.2 16.83 18.88"/>
      <path class="cls-2" d="M12.05,15.77l4.77,2.76,5.75-3.32-4.77-2.76-5.75,3.32h0ZM16.83,19.19c-.05,0-.1-.02-.15-.04l-5.39-3.11c-.1-.05-.16-.16-.16-.27s.05-.21.16-.26l6.37-3.68c.09-.06.21-.06.3,0l5.39,3.11c.09.06.16.16.16.27s-.06.21-.16.27l-6.37,3.68c-.05.03-.11.04-.16.04Z"/>
      <polygon class="cls-4" points="16.83 34.42 16.83 18.88 23.2 15.2 23.2 30.74 16.83 34.42"/>
      <path class="cls-2" d="M17.14,19.06v14.83l5.75-3.32v-14.83l-5.75,3.32h0ZM16.83,34.73c-.05,0-.1-.02-.15-.04-.1-.05-.16-.16-.16-.27v-15.54c0-.11.06-.21.16-.27l6.37-3.68c.09-.06.21-.06.3,0,.09.06.16.16.16.27v15.54c0,.11-.06.21-.16.27l-6.37,3.68c-.05.03-.11.04-.16.04Z"/>
      <polygon class="cls-3" points="22.86 30.94 22.86 7.1 29.23 3.42 29.23 27.26 22.86 30.94"/>
      <path class="cls-2" d="M23.17,7.28v23.13l5.75-3.32V3.96l-5.75,3.32h0ZM22.86,31.24c-.05,0-.11-.01-.15-.04-.09-.06-.15-.15-.15-.26V7.1c0-.11.06-.21.15-.27l6.37-3.68c.09-.06.21-.06.3,0,.09.06.16.16.16.27v23.84c0,.11-.06.21-.16.27l-6.37,3.68s-.09.04-.15.04Z"/>
      <polygon class="cls-1" points="16.83 23.72 11.44 20.61 5.07 24.29 10.46 27.4 16.83 23.72"/>
      <path class="cls-2" d="M5.68,24.29l4.77,2.76,5.75-3.32-4.77-2.76-5.75,3.32h0ZM10.46,27.7c-.05,0-.1-.02-.15-.04l-5.4-3.11c-.09-.05-.15-.16-.15-.26s.05-.21.15-.27l6.37-3.68c.1-.06.22-.06.31,0l5.39,3.11c.09.06.16.16.16.27s-.06.21-.16.27l-6.37,3.68c-.05.03-.1.04-.16.04Z"/>
      <polygon class="cls-1" points="10.46 27.4 5.07 24.29 5.07 34.99 10.46 38.1 10.46 27.4"/>
      <path class="cls-2" d="M5.38,34.81l4.77,2.76v-9.99l-4.77-2.76v9.99h0ZM10.46,38.41c-.05,0-.1-.02-.15-.04l-5.4-3.11c-.09-.05-.15-.16-.15-.27v-10.7c0-.11.05-.21.15-.27.1-.05.22-.05.31,0l5.39,3.11c.1.05.16.16.16.27v10.7c0,.11-.06.21-.16.27-.05.03-.1.04-.16.04Z"/>
      <polygon class="cls-1" points="16.83 34.42 16.83 23.72 10.46 27.4 10.46 38.1 16.83 34.42"/>
      <path class="cls-2" d="M16.83,34.42h0,0ZM10.77,27.57v9.99l5.75-3.32v-9.99l-5.75,3.32h0ZM10.46,38.41c-.05,0-.1-.02-.15-.04-.09-.06-.16-.16-.16-.27v-10.7c0-.11.06-.21.16-.27l6.37-3.68c.09-.05.21-.05.3,0,.09.06.16.16.16.27v10.7c0,.11-.06.21-.16.27l-6.37,3.68c-.05.03-.1.04-.16.04Z"/>
    </g>
  </g>
</svg>