<?xml version="1.0" encoding="UTF-8"?>
<svg id="Layer_2" data-name="Layer 2" xmlns="http://www.w3.org/2000/svg" viewBox="0 0 23.37 40.9" fill="currentColor">
  <defs>
    <style>
      .cls-1 {
        fill: #fff;
      }

      .cls-1, .cls-2, .cls-3, .cls-4 {
        fill-rule: evenodd;
      }

      .cls-2 {
        fill: #1a87c7;
      }

      .cls-3 {
        fill: #bdedf8;
      }

      .cls-4 {
        fill: #66ceef;
      }
    </style>
  </defs>
  <g id="_Layer_" data-name="&amp;lt;Layer&amp;gt;">
    <g>
      <path class="cls-1" d="M13.62,40.59c.28,0,.57-.06.77-.19.22-.12.33-.29.33-.45,0-.15-.11-.32-.33-.45-.21-.12-.5-.18-.77-.18s-.56.06-.78.18c-.22.13-.33.3-.33.45,0,.17.11.33.33.45.22.13.5.19.78.19Z"/>
      <path class="cls-2" d="M13.62,39.62c-.24,0-.47.05-.63.15-.12.07-.16.15-.16.18,0,.04.04.11.16.19.32.18.94.18,1.26,0,.11-.07.17-.15.17-.19,0-.04-.05-.11-.17-.18-.16-.09-.39-.15-.63-.15h0ZM13.62,40.9c-.35,0-.69-.08-.94-.22-.3-.18-.48-.44-.48-.72s.17-.54.48-.71c.51-.29,1.37-.29,1.87,0,.3.17.48.43.48.71s-.18.55-.48.72c-.25.15-.58.22-.93.22Z"/>
      <path class="cls-4" d="M14.39,40.39c.16-.09.32-.23.33-.43v-5.72c-.03.36-.47.54-.77.59-.41.08-.97.02-1.28-.27-.09-.09-.16-.19-.16-.32v5.72c0,.26.28.43.5.52.42.15.99.14,1.38-.09Z"/>
      <path class="cls-2" d="M12.82,35.01v4.94c0,.05.11.17.3.23.36.14.83.11,1.13-.06.11-.06.17-.14.17-.18v-4.94c-.13.06-.26.09-.4.12-.36.07-.81.05-1.19-.12h0ZM14.39,40.39h.01-.01ZM13.61,40.89c-.24,0-.49-.04-.71-.12-.43-.16-.69-.46-.69-.8v-5.73c0-.16.13-.3.29-.3.21-.02.31.12.32.29,0,.02,0,.06.07.11.22.21.69.25,1.01.2.24-.05.51-.18.51-.31.02-.17.15-.31.32-.29.16,0,.3.14.3.3v5.72c0,.28-.18.52-.48.71h0c-.27.15-.6.23-.94.23Z"/>
      <path class="cls-3" d="M13.62,34.87c.28,0,.57-.06.77-.18.22-.13.33-.3.33-.45,0-.17-.11-.33-.33-.45-.21-.13-.5-.19-.77-.19s-.56.06-.78.19c-.22.12-.33.28-.33.45,0,.15.11.32.33.45.22.12.5.18.78.18Z"/>
      <path class="cls-2" d="M13.62,33.9c-.24,0-.47.05-.63.14-.12.08-.16.15-.16.19,0,.03.04.11.16.18.32.18.94.18,1.26,0,.11-.07.17-.14.17-.18,0-.04-.05-.12-.17-.19-.16-.09-.39-.14-.63-.14h0ZM13.62,35.17c-.35,0-.69-.08-.94-.23-.3-.17-.48-.43-.48-.71s.17-.55.48-.72c.51-.3,1.37-.3,1.87,0,.3.18.48.43.48.72s-.18.54-.48.71c-.25.15-.58.23-.93.23Z"/>
      <path class="cls-3" d="M13.62,34.69c.24,0,.5-.05.69-.17.19-.11.29-.25.29-.4s-.1-.29-.29-.4c-.19-.11-.44-.17-.69-.17s-.5.05-.69.17c-.19.11-.28.25-.28.4s.09.29.28.4c.19.11.44.17.69.17Z"/>
      <path class="cls-2" d="M13.62,33.87c-.21,0-.41.05-.54.13-.11.05-.14.11-.14.13,0,.02.03.08.13.13.28.17.81.17,1.09,0,.09-.05.13-.1.13-.13,0-.02-.04-.08-.13-.13-.14-.08-.34-.13-.54-.13h0ZM13.62,35c-.32,0-.62-.08-.85-.21-.28-.16-.44-.41-.44-.67s.16-.51.44-.67c.46-.26,1.23-.26,1.69,0,.28.16.44.41.44.67s-.17.5-.44.67c-.23.13-.53.21-.84.21Z"/>
      <path class="cls-4" d="M10.51.78c.09-.23.33-.57.59-.43l2.98,1.72c-.26-.14-.5.24-.58.43-1.13,2.6-2.3,5.18-3.45,7.77-1.98,4.44-4.12,9.06-5.72,13.65-.83,2.62-1.23,4.77-.94,7.53.43,2.31,1.1,3.73,3.02,4.88l-2.98-1.72c-1.52-.9-2.09-1.77-2.69-3.41-.74-2.72-.48-4.97.19-7.65,1.33-4.68,3.65-9.43,5.61-13.84,1.33-2.98,2.68-5.95,3.97-8.94Z"/>
      <path class="cls-2" d="M10.51.78h0,0ZM10.95.61s-.09.14-.15.27v.02c-.91,2.09-1.85,4.19-2.78,6.27l-1.19,2.66c-.36.8-.72,1.62-1.09,2.43-1.68,3.71-3.41,7.55-4.5,11.37-.65,2.63-.91,4.81-.19,7.48.56,1.5,1.07,2.34,2.55,3.22l.62.36c-.58-.89-.89-1.93-1.12-3.19-.3-2.95.15-5.2.95-7.68,1.4-4.01,3.2-8.03,4.94-11.92l1.65-3.69c.88-1.95,1.75-3.89,2.59-5.85.02-.03.08-.18.21-.34l-2.48-1.43h0ZM6.42,36.63c-.05,0-.1,0-.15-.03l-2.99-1.73c-1.64-.98-2.22-1.93-2.83-3.57-.76-2.81-.48-5.16.18-7.82,1.1-3.87,2.84-7.73,4.53-11.47.37-.82.74-1.62,1.1-2.43l1.19-2.67c.93-2.09,1.87-4.17,2.78-6.27.03-.1.21-.49.55-.62.16-.06.32-.04.46.04l3,1.73c.15.08.2.27.11.42-.08.15-.26.2-.41.12,0,.02-.11.14-.16.27-.85,1.98-1.73,3.92-2.6,5.87l-1.65,3.69c-1.74,3.88-3.53,7.88-4.92,11.86-.76,2.4-1.22,4.58-.91,7.4.39,2.13.96,3.51,2.88,4.65.14.08.19.27.1.42-.06.09-.17.15-.27.15Z"/>
      <path class="cls-3" d="M13.5,2.5c.06-.17.18-.33.32-.42.14-.08.26-.05.32.04,2.83,3.32,6.23,7.97,8.07,12.01.57,1.25.84,2.69.84,4.24,0,8.74-6.74,17.86-13.51,18.5-1.89.17-3.45-.42-4.55-1.64-1.09-1.23-1.72-3.1-1.72-5.44,0-1.55.27-3.3.84-5.22.96-3.19,4.32-10.71,6.94-16.56.99-2.21,1.87-4.18,2.44-5.51Z"/>
      <path class="cls-2" d="M13.91,2.32h0s0,0,0,0h0ZM13.5,2.5h.01-.01ZM13.95,2.38c-.07.05-.12.14-.16.22v.02c-.57,1.3-1.43,3.21-2.38,5.37l-.07.15c-2.67,5.96-5.97,13.35-6.92,16.51-.55,1.83-.83,3.57-.83,5.13,0,2.22.57,4.03,1.63,5.23,1.05,1.17,2.54,1.71,4.29,1.55,6.68-.64,13.24-9.64,13.24-18.19,0-1.56-.27-2.94-.82-4.11-1.55-3.4-4.53-7.84-7.99-11.88h0ZM8.9,37.2c-1.67,0-3.08-.61-4.13-1.78-1.17-1.31-1.79-3.27-1.79-5.64,0-1.63.29-3.41.85-5.3.96-3.21,4.28-10.62,6.94-16.57l.07-.17c.96-2.15,1.82-4.05,2.37-5.35.09-.24.25-.45.45-.57.32-.18.62-.06.74.15,3.48,4.06,6.51,8.57,8.09,12.03.57,1.26.87,2.73.87,4.37,0,8.83-6.83,18.15-13.79,18.8-.24.03-.46.03-.68.03Z"/>
      <path class="cls-2" d="M13.83,35.67c-.16,0-.3-.14-.3-.31V1.94c0-.17.14-.31.3-.31s.31.14.31.31v33.42c0,.17-.14.31-.31.31Z"/>
      <path class="cls-2" d="M13.83,15.9h-.03l-5.92-.47c-.17-.02-.3-.17-.29-.33.02-.18.15-.3.34-.29l5.76.46,5.37-6.5c.12-.13.31-.15.43-.04.13.11.15.3.04.43l-5.48,6.62c-.06.08-.15.11-.24.11Z"/>
      <path class="cls-2" d="M13.83,23.62h-.02l-9.07-.59c-.17,0-.3-.15-.29-.33,0-.17.15-.3.32-.29l8.91.59,7.96-9.76c.1-.14.3-.15.43-.04.13.1.15.29.04.42l-8.06,9.89c-.06.07-.15.12-.24.12Z"/>
      <path class="cls-2" d="M13.83,31.22h-.02l-10.52-.57c-.18-.01-.3-.16-.3-.33,0-.17.15-.28.33-.29l10.37.57,9.07-10.81c.1-.13.3-.15.43-.03.13.11.15.3.03.43l-9.16,10.93c-.06.07-.14.11-.24.11Z"/>
    </g>
  </g>
</svg>