<?xml version="1.0" encoding="UTF-8"?>
<svg id="Layer_2" data-name="Layer 2" xmlns="http://www.w3.org/2000/svg" viewBox="0 0 38.27 40.66" fill="currentColor">
  <defs>
    <style>
      .cls-1 {
        fill: #fff;
      }

      .cls-1, .cls-2, .cls-3, .cls-4 {
        fill-rule: evenodd;
      }

      .cls-2 {
        fill: #1a87c7;
      }

      .cls-3 {
        fill: #bdedf8;
      }

      .cls-4 {
        fill: #66ceef;
      }
    </style>
  </defs>
  <g id="_Layer_" data-name="&amp;lt;Layer&amp;gt;">
    <g>
      <path class="cls-3" d="M19.46,36.98c8.34,0,15.11-6.76,15.11-15.1s-6.76-15.1-15.11-15.1-15.1,6.76-15.1,15.1,6.76,15.1,15.1,15.1Z"/>
      <path class="cls-2" d="M19.46,7.08c-8.15,0-14.78,6.64-14.78,14.79s6.63,14.79,14.78,14.79,14.8-6.64,14.8-14.79-6.63-14.79-14.8-14.79h0ZM19.46,37.29c-8.49,0-15.4-6.91-15.4-15.41s6.91-15.41,15.4-15.41,15.41,6.91,15.41,15.41-6.91,15.41-15.41,15.41Z"/>
      <path class="cls-4" d="M32.44,14.11c2.12,1.22,3.63,2.68,4.53,4.23h0c.66,1.14.99,2.34.99,3.54s-.33,2.39-.99,3.54h0c-.89,1.55-2.41,3.01-4.53,4.23h0c-3.6,2.08-8.29,3.11-12.98,3.11s-9.38-1.04-12.98-3.11h0c-2.12-1.23-3.62-2.68-4.53-4.23-.66-1.14-.99-2.34-.99-3.54s.33-2.39.99-3.54h0c.91-1.55,2.41-3.01,4.53-4.23l.04-.02c-.33.55-.63,1.12-.89,1.72-1.28.93-2.22,1.95-2.85,3.02h0c-.56.99-.85,2.02-.85,3.06s.29,2.06.85,3.06c.82,1.41,2.21,2.75,4.18,3.88h0c3.44,1.99,7.96,2.98,12.49,2.98s9.06-.99,12.5-2.98h0c1.96-1.13,3.35-2.47,4.17-3.88h0c.57-.99.86-2.02.86-3.06s-.29-2.06-.86-3.06h0c-.62-1.07-1.56-2.09-2.84-3.02-.26-.59-.56-1.17-.9-1.72l.04.02Z"/>
      <path class="cls-2" d="M2.24,18.47s0,.01,0,.02c-.63,1.09-.95,2.23-.95,3.38s.32,2.29.95,3.39c.9,1.56,2.39,2.95,4.41,4.12,3.42,1.98,7.98,3.07,12.82,3.07s9.4-1.09,12.83-3.07c2.01-1.17,3.49-2.55,4.4-4.1.01,0,.01-.02.02-.02.63-1.09.95-2.23.95-3.38s-.32-2.29-.95-3.39c-.76-1.31-1.92-2.49-3.47-3.53.1.21.21.42.3.64,1.26.92,2.22,1.96,2.86,3.07,0,0,0,.01,0,.02.59,1.03.9,2.1.9,3.19s-.3,2.17-.9,3.21c-.88,1.51-2.32,2.86-4.29,3.99,0,0-.02,0-.03.01-3.37,1.94-7.86,3.01-12.63,3.01s-9.25-1.07-12.62-3.01c0,0-.02,0-.03-.01-1.97-1.14-3.42-2.48-4.28-3.99-.6-1.04-.9-2.12-.9-3.21s.3-2.18.9-3.21c.64-1.11,1.6-2.14,2.86-3.07.09-.21.19-.42.3-.63-1.56,1.04-2.7,2.21-3.46,3.51h0ZM19.46,33.07c-4.95,0-9.6-1.12-13.12-3.15-2.13-1.23-3.69-2.69-4.64-4.35-.69-1.18-1.04-2.43-1.04-3.69s.35-2.49,1.03-3.67c0,0,0-.01,0-.02.96-1.66,2.52-3.12,4.64-4.34.12-.07.29-.06.39.04.09.1.14.24.07.36-.33.55-.63,1.11-.88,1.68-.02.05-.06.09-.1.13-1.22.89-2.15,1.87-2.75,2.93-.54.94-.82,1.91-.82,2.9s.28,1.96.82,2.9c.82,1.41,2.17,2.68,4.04,3.76,0,0,.02,0,.03.01,3.28,1.9,7.66,2.94,12.33,2.94s9.07-1.04,12.34-2.94c0,0,.02,0,.03-.01,1.86-1.08,3.22-2.35,4.04-3.76.54-.94.82-1.92.82-2.9s-.28-1.96-.82-2.9c0,0,0-.02-.02-.02-.61-1.05-1.53-2.02-2.75-2.91-.04-.03-.08-.08-.1-.13-.25-.57-.55-1.14-.88-1.68-.07-.12-.05-.27.04-.37.09-.1.25-.12.37-.05l.04.02c2.12,1.23,3.68,2.69,4.64,4.35.69,1.18,1.04,2.43,1.04,3.69s-.35,2.49-1.03,3.67c0,0-.01.02-.01.02-.96,1.66-2.52,3.13-4.64,4.35-3.52,2.03-8.18,3.15-13.13,3.15Z"/>
      <path class="cls-1" d="M23.72,35.12c2,0,3.62-1.62,3.62-3.62s-1.62-3.62-3.62-3.62-3.62,1.62-3.62,3.62,1.63,3.62,3.62,3.62Z"/>
      <path class="cls-2" d="M23.72,28.18c-1.82,0-3.31,1.49-3.31,3.31s1.49,3.31,3.31,3.31,3.31-1.49,3.31-3.31-1.49-3.31-3.31-3.31h0ZM23.72,35.42c-2.16,0-3.93-1.76-3.93-3.93s1.77-3.93,3.93-3.93,3.93,1.76,3.93,3.93-1.76,3.93-3.93,3.93Z"/>
      <path class="cls-4" d="M19.23,5.88c2.91-1.68,5.65-2.48,8.01-2.48,1.53,0,2.9.33,4.08.97,1.18.64,2.16,1.59,2.87,2.82.87,1.5,1.35,3.41,1.35,5.69,0,2.11-.41,4.36-1.15,6.63-.11-.66-.25-1.31-.43-1.94.4-1.61.63-3.18.63-4.68,0-2.11-.43-3.86-1.22-5.21-.62-1.07-1.46-1.9-2.49-2.46-1.02-.56-2.25-.85-3.62-.85-2.21,0-4.78.75-7.53,2.34h0c-4.23,2.44-8.07,6.38-10.85,10.77-2.77,4.38-4.49,9.19-4.49,13.4,0,2.11.43,3.86,1.21,5.21h0c.63,1.07,1.47,1.9,2.49,2.46,1.03.56,2.26.85,3.62.85,2.21,0,4.79-.76,7.55-2.35.03-.02.07-.04.11-.07h.12c.63,0,1.25-.04,1.86-.11-.53.36-1.07.7-1.62,1.01-2.91,1.68-5.65,2.48-8.02,2.48-1.52,0-2.89-.33-4.08-.97-1.18-.64-2.16-1.59-2.87-2.82h0c-.86-1.5-1.34-3.41-1.34-5.69,0-4.4,1.77-9.39,4.64-13.91,2.86-4.51,6.81-8.56,11.19-11.08h0Z"/>
      <path class="cls-2" d="M19.23,5.88h0,0ZM5.01,36.43c.68,1.17,1.6,2.07,2.74,2.69,2.98,1.62,7.33,1.07,11.8-1.51.18-.11.37-.22.57-.34-.22.01-.44.02-.66.02l-.23-.24.15.27c-4.35,2.51-8.58,3.06-11.45,1.5-1.09-.59-1.97-1.46-2.62-2.58-.83-1.44-1.25-3.24-1.25-5.36,0-4.13,1.61-8.95,4.54-13.56,2.93-4.62,6.81-8.48,10.96-10.87,4.35-2.51,8.58-3.06,11.45-1.5,1.1.59,1.97,1.46,2.61,2.58.84,1.44,1.25,3.24,1.25,5.36,0,1.47-.21,3.04-.62,4.68.07.23.13.45.18.68.52-1.88.78-3.68.78-5.36,0-2.18-.43-4.04-1.3-5.54-.69-1.18-1.61-2.09-2.75-2.71-2.99-1.62-7.34-1.07-11.8,1.51,0,0-.01.01-.02.02-4.18,2.42-8.11,6.31-11.06,10.97-2.96,4.67-4.6,9.55-4.6,13.75,0,2.18.45,4.04,1.3,5.53,0,0,0,.01,0,.02h0ZM11.68,40.66c-1.57,0-2.99-.34-4.23-1-1.24-.68-2.24-1.67-2.98-2.94-.01,0-.01-.02-.02-.02-.9-1.59-1.37-3.55-1.37-5.82,0-4.31,1.67-9.31,4.69-14.08,3.01-4.74,7.01-8.72,11.29-11.18,0,0,.02-.01.03-.01,4.65-2.68,9.2-3.22,12.37-1.5,1.24.67,2.25,1.67,2.99,2.94.92,1.59,1.38,3.56,1.38,5.84,0,2.1-.39,4.36-1.16,6.72-.04.14-.16.23-.31.21-.15-.01-.26-.12-.29-.26-.1-.64-.24-1.28-.43-1.9-.02-.05-.02-.11,0-.16.41-1.61.62-3.16.62-4.61,0-2.01-.39-3.71-1.17-5.06-.59-1.02-1.39-1.81-2.38-2.34-2.67-1.45-6.69-.9-10.85,1.49-4.05,2.34-7.88,6.13-10.75,10.67-2.86,4.52-4.43,9.21-4.43,13.23,0,2.01.39,3.71,1.17,5.05.59,1.02,1.39,1.81,2.37,2.34,2.68,1.45,6.7.9,10.86-1.5.04-.03.21-.11.27-.11h.12c.61,0,1.22-.04,1.83-.11.15-.02.27.07.32.2.05.13,0,.28-.12.36-.54.37-1.08.71-1.63,1.03-2.86,1.65-5.69,2.52-8.18,2.52Z"/>
      <path class="cls-1" d="M27.83,7.55c2,0,3.62-1.62,3.62-3.62s-1.62-3.62-3.62-3.62-3.62,1.62-3.62,3.62,1.62,3.62,3.62,3.62Z"/>
      <path class="cls-2" d="M27.83.62c-1.83,0-3.31,1.48-3.31,3.31s1.49,3.31,3.31,3.31,3.31-1.49,3.31-3.31-1.49-3.31-3.31-3.31h0ZM27.83,7.86c-2.16,0-3.93-1.76-3.93-3.93s1.77-3.93,3.93-3.93,3.93,1.76,3.93,3.93-1.76,3.93-3.93,3.93Z"/>
      <path class="cls-4" d="M19.7,5.88c-2.91-1.68-5.65-2.48-8.02-2.48-1.52,0-2.89.33-4.08.97-1.17.64-2.15,1.59-2.87,2.82-.86,1.5-1.34,3.41-1.34,5.69,0,2.11.41,4.36,1.15,6.63.11-.66.25-1.31.44-1.94-.41-1.61-.62-3.18-.62-4.68,0-2.11.43-3.86,1.21-5.21.63-1.07,1.47-1.9,2.49-2.46,1.03-.56,2.26-.85,3.62-.85,2.21,0,4.79.75,7.55,2.34h0c4.23,2.44,8.06,6.38,10.85,10.77,2.77,4.38,4.49,9.19,4.49,13.4,0,2.11-.43,3.86-1.22,5.21h0c-.62,1.07-1.47,1.9-2.49,2.46-1.02.56-2.25.85-3.62.85-2.21,0-4.78-.76-7.53-2.35-.03-.02-.08-.04-.11-.07h-.13c-.63,0-1.24-.04-1.85-.11.53.36,1.07.7,1.62,1.01,2.9,1.68,5.65,2.48,8.01,2.48,1.53,0,2.9-.33,4.08-.97,1.18-.64,2.16-1.59,2.87-2.82h0c.87-1.5,1.35-3.41,1.35-5.69,0-4.4-1.77-9.39-4.64-13.91-2.86-4.51-6.81-8.56-11.19-11.08h0Z"/>
      <path class="cls-2" d="M18.81,37.27c.19.12.37.23.57.34,4.47,2.58,8.81,3.13,11.8,1.51,1.13-.62,2.05-1.52,2.74-2.69,0,0,0-.01,0-.02.86-1.49,1.3-3.36,1.3-5.53,0-4.19-1.63-9.08-4.59-13.75-2.96-4.66-6.88-8.56-11.06-10.97,0,0-.02,0-.03-.01-4.47-2.58-8.81-3.13-11.79-1.51-1.14.62-2.07,1.53-2.75,2.71-.86,1.5-1.3,3.36-1.3,5.54,0,1.68.27,3.48.78,5.36.06-.23.12-.46.18-.68-.41-1.63-.61-3.2-.61-4.68,0-2.12.42-3.92,1.25-5.36.65-1.12,1.52-1.98,2.61-2.58,2.87-1.56,7.11-1.01,11.45,1.5,4.14,2.39,8.03,6.25,10.96,10.87,2.93,4.61,4.54,9.43,4.54,13.56,0,2.12-.42,3.93-1.25,5.36-.64,1.12-1.53,1.99-2.61,2.58-2.87,1.56-7.1,1.01-11.45-1.5l-.04-.02h-.05c-.22,0-.43,0-.65-.02h0ZM27.24,40.66c-2.49,0-5.31-.87-8.17-2.52-.55-.31-1.09-.66-1.63-1.03-.12-.08-.16-.23-.11-.36.04-.13.17-.22.32-.2.6.08,1.22.11,1.82.11.06,0,.24.01.29.04l.12.07c4.15,2.4,8.17,2.95,10.85,1.5.99-.54,1.79-1.33,2.38-2.34.77-1.34,1.17-3.04,1.17-5.05,0-4.02-1.57-8.71-4.44-13.23-2.88-4.54-6.69-8.33-10.74-10.67-4.15-2.4-8.17-2.95-10.86-1.49-.98.53-1.78,1.32-2.37,2.34-.77,1.34-1.17,3.04-1.17,5.06,0,1.45.2,2.99.61,4.61.02.05.02.11,0,.16-.18.62-.33,1.26-.43,1.9-.02.14-.14.25-.28.26-.15.02-.27-.07-.31-.21-.78-2.37-1.17-4.63-1.17-6.72,0-2.29.47-4.25,1.39-5.84.74-1.28,1.74-2.27,2.98-2.94,3.17-1.72,7.73-1.17,12.39,1.51,0,0,0,0,.02.01,4.27,2.46,8.28,6.44,11.29,11.18,3.02,4.77,4.68,9.77,4.68,14.08,0,2.28-.46,4.24-1.37,5.82,0,0,0,.01,0,.02-.74,1.28-1.74,2.27-2.99,2.94-1.22.67-2.65,1-4.22,1Z"/>
      <path class="cls-1" d="M3.94,14.36c2,0,3.62-1.62,3.62-3.62s-1.62-3.62-3.62-3.62S.31,8.74.31,10.74s1.62,3.62,3.63,3.62Z"/>
      <path class="cls-2" d="M3.94,7.43c-1.83,0-3.32,1.48-3.32,3.31s1.49,3.31,3.32,3.31,3.31-1.49,3.31-3.31-1.49-3.31-3.31-3.31h0ZM3.94,14.67c-2.17,0-3.94-1.76-3.94-3.93s1.77-3.93,3.94-3.93,3.92,1.76,3.92,3.93-1.76,3.93-3.92,3.93Z"/>
    </g>
  </g>
</svg>