<?xml version="1.0" encoding="UTF-8"?>
<svg id="Layer_2" data-name="Layer 2" xmlns="http://www.w3.org/2000/svg" viewBox="0 0 70.74 89.27" fill="currentColor">
  <defs>
    <style>
      .cls-1 {
        fill: #fff;
      }

      .cls-1, .cls-2, .cls-3, .cls-4 {
        fill-rule: evenodd;
      }

      .cls-2 {
        fill: #1a87c7;
      }

      .cls-3 {
        fill: #bdedf8;
      }

      .cls-4 {
        fill: #66ceef;
      }
    </style>
  </defs>
  <g id="_Layer_" data-name="&amp;lt;Layer&amp;gt;">
    <g>
      <path class="cls-4" d="M.63,39.44c.16-2,1.05-3.49,2.67-4.64C22.85,23.51,42.39,12.25,61.94.96c.68-.35,1.1-.49,1.83-.21l1.78,1.03c-.73-.28-1.15-.14-1.83.21C44.17,13.27,24.63,24.54,5.08,35.82c-1.62,1.13-2.52,2.63-2.67,4.64v44.97c.1.83.1,1.18.79,1.74l-1.78-1.03c-.63-.54-.68-.88-.79-1.72v-44.99Z"/>
      <path class="cls-2" d="M1.26,39.47v44.95c.05.71.11.85.58,1.23,0-.05-.05-.1-.05-.17v-45.02c.21-2.24,1.15-3.89,2.93-5.15L63.4,1.45c.05-.03.1-.07.21-.08l-.16-.09c-.37-.12-.63-.08-1.26.24L3.62,35.33c-1.42,1.01-2.2,2.33-2.36,4.14h0ZM3.2,87.78c-.11,0-.21-.02-.31-.09l-1.78-1.01c-.89-.75-1-1.27-1.1-2.21v-45.09c.21-2.17,1.15-3.84,2.99-5.09L61.62.45c.79-.43,1.47-.61,2.36-.26l1.89,1.06c.26.16.37.5.21.8-.1.28-.47.42-.73.31-.47-.17-.73-.14-1.36.17L5.4,36.36c-1.47,1.01-2.25,2.33-2.36,4.15-.05,14.93-.05,29.94,0,44.92.05.73.05.87.52,1.25.26.21.31.58.16.83-.16.17-.31.26-.52.26Z"/>
      <path class="cls-3" d="M5.08,35.82C24.63,24.55,44.17,13.27,63.67,1.99c1.47-.85,2.72-.17,2.72,1.53v44.99c0,1.7-1.26,3.79-2.72,4.64-15.04,8.67-30.02,17.34-45.06,26.02l-13.52,7.8c-1.47.85-2.67.16-2.67-1.55v-10.33h0v-34.64c0-1.7,1.2-3.79,2.67-4.64Z"/>
      <path class="cls-2" d="M2.99,75v.1l.05,10.33c0,.59.16,1.03.47,1.2.31.17.73.11,1.26-.19l58.64-33.83c1.26-.74,2.36-2.62,2.36-4.1V3.52c0-.58-.21-1.01-.47-1.18-.31-.17-.79-.12-1.31.18C44.49,13.8,24.94,25.08,5.4,36.36h0c-1.31.73-2.36,2.61-2.36,4.1l-.05,10.32v24.21h0ZM3.88,87.97c-.37,0-.68-.08-1-.28-.68-.4-1.1-1.2-1.1-2.26v-44.97c0-1.93,1.31-4.21,2.99-5.18h0C24.31,24.01,43.86,12.73,63.4,1.45c.89-.52,1.78-.59,2.46-.19.73.41,1.1,1.22,1.1,2.26v10.24c.05.04.05.07.05.11v24.3s0,.07-.05.11v10.24c0,1.93-1.31,4.2-2.99,5.16L5.4,87.52c-.52.29-1.05.45-1.52.45Z"/>
      <path class="cls-1" d="M63.82,53.45c-18.97,10.95-37.94,21.9-56.91,32.85-1.47.83-2.62.16-2.62-1.49v-43.67c0-1.65,1.15-3.68,2.62-4.5C25.88,25.69,44.85,14.73,63.82,3.78c1.41-.84,2.57-.16,2.57,1.49v43.66c0,1.66-1.15,3.69-2.57,4.51Z"/>
      <path class="cls-2" d="M64.98,4.04c-.26,0-.52.09-.84.26C45.17,15.28,26.2,26.23,7.23,37.16c-1.26.71-2.31,2.54-2.31,3.98v43.67c0,.56.16.97.47,1.15.26.17.73.1,1.21-.17,18.97-10.97,37.94-21.92,56.91-32.86,1.26-.73,2.25-2.54,2.25-3.98.05-14.55.05-29.11,0-43.66,0-.56-.16-.97-.42-1.15-.11-.07-.21-.09-.37-.09h0ZM5.76,87.28c-.37,0-.68-.09-1-.26-.68-.4-1.1-1.18-1.1-2.21v-43.67c0-1.9,1.31-4.1,2.93-5.04C25.57,25.15,44.54,14.2,63.51,3.24c.89-.52,1.73-.57,2.46-.17.68.38,1.05,1.18,1.05,2.21v43.66c0,1.9-1.26,4.11-2.88,5.05h0c-19.02,10.95-37.99,21.9-56.91,32.85-.52.29-1,.44-1.47.44Z"/>
      <path class="cls-1" d="M65.45,54.42c-18.97,10.93-37.94,21.88-56.91,32.84-1.42.83-2.57.15-2.57-1.5v-43.67c0-1.65,1.15-3.68,2.57-4.5C27.56,26.64,46.53,15.69,65.45,4.74c1.47-.83,2.62-.16,2.62,1.5v43.66c0,1.67-1.15,3.68-2.62,4.52Z"/>
      <path class="cls-2" d="M65.45,54.42h.05-.05ZM66.6,5c-.21,0-.52.09-.84.26C46.79,16.23,27.88,27.18,8.86,38.12c-1.2.73-2.31,2.54-2.31,3.98v43.67c0,.57.21.99.47,1.15.31.17.73.1,1.26-.17,18.97-10.97,37.94-21.92,56.85-32.85h0c1.26-.71,2.31-2.54,2.31-3.98V6.24c0-.56-.16-.97-.42-1.15-.1-.05-.26-.09-.42-.09h0ZM7.39,88.23c-.37,0-.68-.07-.94-.24-.73-.4-1.1-1.2-1.1-2.23v-43.67c0-1.89,1.31-4.1,2.93-5.04C27.25,26.12,46.22,15.17,65.13,4.2c.89-.52,1.78-.57,2.46-.17.73.4,1.1,1.18,1.1,2.21v43.66c0,1.9-1.31,4.1-2.93,5.04h0c-18.97,10.95-37.94,21.9-56.91,32.85-.47.3-1,.44-1.47.44Z"/>
      <path class="cls-1" d="M39.25,71.63l28.4-16.39c1.26-.73,2.3-2.5,2.3-3.98l.11-32.67-4.04-2.99-4.77-3.1c-2.36-1.46-3.41-1.25-4.98-.38l-2.04,1.18-14.99,8.64v49.68Z"/>
      <path class="cls-2" d="M39.88,22.3v48.25l27.51-15.86c1.05-.61,1.94-2.18,1.94-3.44l.1-32.35-3.77-2.81-4.77-3.06c-2.1-1.34-2.93-1.13-4.3-.37l-16.72,9.63h0ZM39.25,72.24c-.1,0-.21-.03-.31-.09-.16-.1-.31-.31-.31-.52V21.95c0-.22.16-.43.31-.53l17.03-9.82c1.83-.99,3.09-1.18,5.61.4l4.82,3.09,4.03,3.02c.16.11.26.3.26.49l-.11,32.68c0,1.67-1.15,3.65-2.62,4.5l-28.4,16.37c-.11.06-.21.09-.32.09Z"/>
      <path class="cls-1" d="M63.56,23.71l4.24-2.45c2.1-1.13,3.41-2.35,1.15-3.79l-7.7-4.96c1.78,1.51,2.31,2.5,2.31,4.36v6.83Z"/>
      <path class="cls-2" d="M63.93,14.98c.21.56.26,1.16.26,1.9v5.77l3.35-1.91c1.62-.9,1.99-1.44,1.99-1.74,0-.28-.31-.64-.89-1.01l-4.72-3.01h0ZM63.56,24.33c-.1,0-.21-.03-.31-.09-.16-.1-.31-.31-.31-.53v-6.83c0-1.69-.42-2.48-2.1-3.89-.26-.21-.32-.58-.11-.84.21-.26.58-.33.84-.15l7.7,4.95c1.05.64,1.52,1.34,1.47,2.09,0,1.2-1.36,2.07-2.62,2.77l-4.24,2.45c-.11.06-.21.09-.31.09Z"/>
      <path class="cls-2" d="M63.56,24.33h0c-.31,0-.63-.28-.63-.62v-6.83c.05-1.25-.84-3.11-2.36-4.09-.89-.54-2.31-.99-4.03-.12l-16.98,9.82c-.26.16-.68.07-.84-.22-.16-.29-.05-.68.21-.85l17.03-9.82c1.78-.9,3.67-.83,5.24.17,1.78,1.12,3.04,3.27,2.99,5.13v6.82c0,.35-.26.62-.63.62Z"/>
      <path class="cls-1" d="M10.38,38.62c9.33-5.37,19.54-11.28,28.87-16.67v49.55c-.21.22-.52.43-.79.59l-28.08,16.22c-1.47.84-2.62.16-2.62-1.49v-43.66c0-1.67,1.15-3.69,2.62-4.52Z"/>
      <path class="cls-2" d="M10.69,39.16c-1.26.71-2.31,2.54-2.31,3.98v43.66c0,.56.16.98.47,1.15.26.16.73.1,1.21-.17l28.09-16.24c.16-.08.31-.21.47-.33V23.01c-9.06,5.25-18.92,10.94-27.98,16.15h.05ZM9.22,89.27c-.37,0-.68-.08-1-.26-.68-.4-1.1-1.18-1.1-2.21v-43.66c0-1.9,1.31-4.1,2.93-5.04h0c9.33-5.39,19.54-11.29,28.87-16.69.21-.1.47-.1.63,0,.21.12.31.31.31.53v49.55c0,.15-.1.32-.21.43-.26.28-.58.5-.89.68l-28.14,16.23c-.47.3-.94.43-1.41.43Z"/>
      <path class="cls-2" d="M43.81,30.36c-.21,0-.42-.12-.52-.31-.16-.3-.05-.68.21-.84l17.55-10.13c.31-.17.68-.07.84.23.16.3.05.66-.21.84l-17.55,10.13c-.1.05-.21.08-.31.08Z"/>
      <path class="cls-2" d="M43.81,35.78c-.21,0-.42-.12-.52-.31-.16-.29-.05-.68.21-.83l17.4-10.04c.31-.17.68-.07.84.22.16.29.05.68-.26.85l-17.34,10.03c-.1.05-.21.08-.31.08Z"/>
      <path class="cls-2" d="M13.78,75.92c-.21,0-.42-.11-.52-.31-.21-.3-.11-.66.21-.83l20.65-11.91c.26-.17.63-.09.84.23.16.28.05.66-.26.83l-20.65,11.91c-.05.05-.16.08-.26.08Z"/>
      <path class="cls-2" d="M13.78,70.08c-.21,0-.42-.13-.52-.31-.21-.3-.11-.67.21-.83l20.65-11.93c.26-.17.63-.07.84.23.16.3.05.68-.26.85l-20.65,11.91c-.05.05-.16.09-.26.09Z"/>
      <path class="cls-2" d="M13.78,64.57c-.21,0-.42-.1-.52-.31-.21-.29-.11-.66.21-.83l20.65-11.93c.26-.16.63-.07.84.23.16.3.05.68-.26.85l-20.65,11.91c-.05.05-.16.09-.26.09Z"/>
      <path class="cls-2" d="M26.41,51.76c-.21,0-.42-.11-.52-.31-.16-.28-.05-.66.21-.83l8.02-4.61c.26-.17.63-.07.84.23.16.3.05.66-.26.83l-7.96,4.61c-.1.07-.21.08-.31.08Z"/>
      <path class="cls-2" d="M43.81,41.54c-.21,0-.42-.1-.52-.31-.16-.3-.05-.66.21-.84l21.64-12.48c.26-.17.63-.07.84.23.16.29.05.66-.26.83l-21.59,12.48c-.1.07-.21.08-.31.08Z"/>
      <path class="cls-2" d="M43.81,46.96c-.21,0-.42-.1-.52-.31-.16-.3-.05-.66.21-.83l22.37-12.92c.32-.17.68-.09.84.23.16.28.05.66-.21.83l-22.38,12.92c-.1.05-.21.08-.31.08Z"/>
      <path class="cls-2" d="M43.81,52.38c-.21,0-.42-.1-.52-.31-.16-.3-.05-.66.21-.84l20.17-11.66c.31-.18.68-.07.89.23.16.29.05.68-.26.85l-20.17,11.65c-.1.05-.21.08-.31.08Z"/>
      <path class="cls-2" d="M43.81,58.14c-.21,0-.42-.11-.52-.3-.16-.29-.05-.68.21-.85l13.31-7.69c.31-.17.68-.08.89.23.1.28.05.66-.26.84l-13.31,7.7c-.1.05-.21.07-.31.07Z"/>
      <path class="cls-2" d="M26.41,45.92c-.21,0-.42-.12-.52-.31-.16-.3-.05-.68.21-.84l8.02-4.61c.26-.17.63-.08.84.22.16.3.05.67-.26.84l-7.96,4.61c-.1.05-.21.08-.31.08Z"/>
      <path class="cls-2" d="M26.41,40.41c-.21,0-.42-.11-.52-.32-.16-.29-.05-.66.21-.83l8.02-4.61c.26-.17.63-.07.84.23.16.29.05.66-.26.83l-7.96,4.61c-.1.07-.21.09-.31.09Z"/>
      <path class="cls-4" d="M23.37,50.2v2.69c0,.19-.1.45-.31.56l-9.54,5.51c-.21.1-.31.02-.31-.19v-4.82l.11-.16c.37-.49.79-.74,1.15-.66l3.2.94c.31.09.73-.16,1.1-.59l2.41-3.09c.37-.47.84-.7,1.15-.58l1.05.39Z"/>
      <path class="cls-2" d="M13.78,54.14v3.92l8.96-5.16v-2.3l-.63-.23c-.05,0-.26.11-.47.38l-2.41,3.08c-.47.68-1.2.97-1.73.82l-3.2-.92c-.05,0-.26.09-.52.4h0ZM13.36,59.62c-.16,0-.26-.04-.37-.11-.26-.16-.42-.43-.42-.75v-4.82c0-.14.05-.26.11-.37l.1-.16c.52-.71,1.26-1.06,1.83-.89l3.2.94c.05-.02.26-.1.47-.38l2.41-3.09c.52-.68,1.26-.99,1.83-.78l1.05.38c.26.08.42.33.42.59v2.69c0,.41-.26.87-.63,1.07l-9.59,5.51c-.1.08-.26.14-.42.14Z"/>
      <path class="cls-3" d="M23.37,50.2l-1.05-.39c-.32-.12-.79.11-1.15.58l-2.41,3.09c-.37.44-.79.68-1.1.59l-3.2-.94c-.37-.08-.79.17-1.15.66l-.11.16v-7.02l10.17-5.9v9.16Z"/>
      <path class="cls-2" d="M14.31,52.51c.11,0,.21.02.31.03l3.2.94c.05-.02.26-.1.47-.38l2.41-3.09c.52-.68,1.26-.99,1.83-.78l.21.08.05-7.19-9.01,5.16v5.33c.21-.07.37-.1.52-.1h0ZM17.82,54.69c-.16,0-.26-.02-.31-.03l-3.2-.92c-.05,0-.31.11-.52.42l-.1.14c-.16.23-.42.31-.68.25-.26-.09-.42-.33-.42-.59v-7.02c0-.23.11-.42.32-.54l10.17-5.88c.21-.12.47-.12.63,0,.21.11.31.31.31.52v9.16c0,.19-.1.38-.26.5-.16.11-.37.14-.58.07l-1.05-.38c-.05,0-.26.11-.47.38l-2.41,3.08c-.42.55-.94.85-1.41.85Z"/>
      <path class="cls-3" d="M20.7,44.96c.37-.21.68-.04.68.4s-.31.96-.68,1.17c-.37.22-.68.05-.68-.39s.31-.95.68-1.18Z"/>
      <path class="cls-2" d="M20.38,47.24c-.16,0-.31-.03-.47-.12-.31-.19-.52-.54-.52-.97,0-.66.42-1.39,1-1.7.37-.23.79-.24,1.1-.05.31.2.47.54.47.98,0,.64-.42,1.37-.94,1.7-.21.13-.42.17-.63.17Z"/>
      <path class="cls-2" d="M39.25,22.56c-.1,0-.21-.02-.31-.07l-3.46-2c-.16-.1-.26-.31-.26-.54v-1.89c0-.33.26-.61.58-.61.37,0,.63.28.63.61v1.55l3.14,1.81c.26.17.37.56.21.85-.11.19-.31.3-.52.3Z"/>
    </g>
  </g>
</svg>