<?xml version="1.0" encoding="UTF-8"?>
<svg id="Layer_2" data-name="Layer 2" xmlns="http://www.w3.org/2000/svg" viewBox="0 0 44.17 42.91" fill="currentColor">
  <defs>
    <style>
      .cls-1 {
        fill: #fff;
      }

      .cls-1, .cls-2, .cls-3, .cls-4 {
        fill-rule: evenodd;
      }

      .cls-2 {
        fill: #1a87c7;
      }

      .cls-3 {
        fill: #bdedf8;
      }

      .cls-4 {
        fill: #66ceef;
      }
    </style>
  </defs>
  <g id="_Layer_" data-name="&amp;lt;Layer&amp;gt;">
    <g>
      <path class="cls-4" d="M11.47,24.64c-.76-1.44-3.12-3.83-4.9-2.83l-2.65,1.53c1.96-1.02,4.24,1.54,5.11,3.24.76,1.49,1.44,4.21-.21,5.25.52-.31,2.65-1.47,2.96-1.78,1.34-1.28.52-3.94-.31-5.4Z"/>
      <path class="cls-2" d="M5.39,22.85c.1.02.21.04.31.09,1.49.48,2.93,2.15,3.62,3.5.52,1.05,1.13,2.97.63,4.38.71-.39,1.47-.84,1.62-.99,1.18-1.14.42-3.63-.37-5.04h0c-.5-.93-1.76-2.41-3.09-2.81-.52-.16-1-.13-1.41.09l-1.31.78h0ZM8.82,32.14c-.11,0-.21-.05-.26-.15-.11-.14-.05-.33.08-.42,1.44-.9.86-3.4.13-4.85-.66-1.28-1.96-2.79-3.25-3.2-.52-.17-1.02-.14-1.47.09-.13.08-.31.02-.42-.13-.08-.15-.03-.33.13-.42l2.65-1.53c.55-.3,1.2-.36,1.89-.15,1.39.43,2.83,1.91,3.43,3.1.79,1.35,1.81,4.29.26,5.78-.26.25-1.34.88-2.54,1.55l-.47.27c-.05.03-.1.04-.16.04Z"/>
      <path class="cls-4" d="M8.82,26.17c-.63-1.09-1.49-2.03-2.46-2.59-.94-.56-1.81-.61-2.44-.24h0c-.63.37-1.02,1.14-1.02,2.24s.39,2.33,1.02,3.42c.63,1.09,1.49,2.03,2.44,2.59.97.55,1.83.6,2.46.24.63-.37,1-1.14,1-2.24s-.37-2.33-1-3.42h0Z"/>
      <path class="cls-2" d="M4.11,23.59s-.03,0-.05.02c-.55.32-.84,1.03-.84,1.97,0,1.02.34,2.18.97,3.26.63,1.1,1.47,1.97,2.33,2.48.84.48,1.6.56,2.15.24.55-.32.86-1.03.86-1.97,0-1.02-.34-2.17-.97-3.26h-.03c-.63-1.1-1.44-1.98-2.33-2.48-.81-.47-1.55-.57-2.1-.26h0ZM7.91,32.37c-.52,0-1.1-.17-1.7-.52-.97-.56-1.89-1.51-2.54-2.69-.71-1.18-1.07-2.45-1.07-3.57s.42-2.04,1.15-2.48c0-.01,0-.02.03-.03.73-.43,1.73-.35,2.75.24.97.57,1.89,1.52,2.57,2.7v.02h0c.68,1.16,1.05,2.43,1.05,3.56,0,1.18-.42,2.07-1.15,2.5-.34.19-.68.28-1.07.28Z"/>
      <path class="cls-3" d="M7.72,26.81c.34.6.55,1.28.55,1.87s-.21,1.04-.55,1.24c-.34.2-.84.17-1.36-.13-.52-.3-1-.83-1.34-1.43l-.03-.03c-.34-.59-.55-1.25-.55-1.85s.24-1.03.58-1.23h0c.34-.2.81-.17,1.34.13.52.3,1.02.83,1.36,1.43Z"/>
      <path class="cls-2" d="M5.18,25.51h0c-.26.16-.42.5-.42.97,0,.52.18,1.13.5,1.69.37.61.79,1.08,1.26,1.34.42.24.79.29,1.05.14.26-.16.39-.5.39-.98,0-.52-.18-1.15-.5-1.72-.34-.58-.79-1.04-1.26-1.31-.39-.23-.76-.28-1.02-.14h0ZM7.23,30.36c-.31,0-.65-.1-1.02-.3-.55-.32-1.07-.87-1.44-1.54-.42-.69-.6-1.41-.6-2.03,0-.69.24-1.21.68-1.48,0,0,0-.02.03-.03.47-.26,1.05-.22,1.65.14.55.32,1.07.86,1.47,1.54.39.67.6,1.39.6,2.02,0,.71-.26,1.24-.73,1.51-.18.11-.39.17-.63.17Z"/>
      <path class="cls-3" d="M.34,18.41l18.78,10.84v6.02c-2.88-1.67-6.26-3.63-9.3-5.39v-.3c0-1.11-.37-2.33-1-3.42h0c-.63-1.09-1.49-2.03-2.46-2.59-.94-.56-1.81-.61-2.44-.24h0c-.63.37-1.02,1.14-1.02,2.24v.3l-.89-.52c-.47-.27-.89-.72-1.18-1.24-.31-.52-.5-1.11-.5-1.64v-4.07Z"/>
      <path class="cls-2" d="M10.13,29.71c2.83,1.63,5.95,3.45,8.67,5.02v-5.31L.65,18.94v3.54c0,.45.16.99.45,1.49.29.5.68.9,1.07,1.13l.42.26c.05-1.05.45-1.85,1.15-2.26,0-.01,0-.02.03-.03.73-.43,1.73-.35,2.75.24.97.57,1.89,1.52,2.57,2.7.68,1.18,1.05,2.45,1.05,3.57v.12h0ZM19.12,35.58c-.05,0-.13,0-.16-.03-2.88-1.67-6.26-3.64-9.3-5.39-.11-.06-.16-.17-.16-.29.03-.1.03-.18.03-.28,0-1.02-.34-2.17-.97-3.26-.65-1.1-1.47-1.98-2.36-2.48-.81-.47-1.55-.57-2.1-.26t-.05.02c-.55.32-.84,1.03-.84,1.97v.29c0,.11-.05.22-.16.29-.08.05-.21.06-.31,0l-.89-.52c-.5-.28-.97-.76-1.31-1.35-.31-.6-.52-1.23-.52-1.8v-4.07c0-.11.08-.22.16-.27.1-.05.21-.05.31,0l18.76,10.84c.11.06.16.16.16.27v6.02c0,.12-.05.21-.16.27-.03.03-.08.03-.13.03Z"/>
      <path class="cls-4" d="M.34,18.41l12.94-7.46,18.84,10.88-12.94,7.47c-5.87-3.4-13.07-7.55-18.84-10.88Z"/>
      <path class="cls-2" d="M.94,18.41l18.24,10.53,12.34-7.11L13.28,11.3.94,18.41h0ZM19.17,29.61c-.05,0-.11-.02-.13-.04L.18,18.67c-.08-.05-.16-.16-.16-.26,0-.11.08-.22.16-.27l12.94-7.47c.08-.05.21-.05.29,0l18.86,10.89c.08.05.16.15.16.26,0,.11-.08.22-.16.27l-12.94,7.46s-.08.04-.16.04Z"/>
      <path class="cls-4" d="M12.28,28.2l.86-.5c.13-.08.16-.1.29-.02l5.4,3.11c.18.12.26.28.29.49v4.85l-1.02.59c.05-.06.08-.09.08-.18v-4.71c-.03-.21-.11-.37-.29-.49l-5.42-3.13c-.08-.03-.11-.05-.18-.02Z"/>
      <path class="cls-2" d="M12.99,28.16l5.06,2.93c.26.18.42.42.45.72v4.34l.31-.19v-4.67c0-.1-.05-.17-.13-.23l-5.37-3.09-.31.19h0ZM18.1,37.03c-.1,0-.21-.04-.26-.13-.08-.12-.08-.28.03-.38v-4.68c0-.1-.05-.16-.16-.24l-5.4-3.11c-.13.05-.26-.02-.34-.17-.08-.14.03-.31.16-.39l.86-.5c.18-.11.34-.17.6-.02l5.4,3.12c.26.18.42.42.45.72l-.03,4.88c0,.1-.05.21-.16.26l-1,.59c-.05.03-.11.04-.16.04Z"/>
      <path class="cls-3" d="M18.18,35.96v.58c0,.17-.13.24-.29.15l-5.42-3.13c-.13-.09-.26-.3-.26-.47v-4.73c0-.17.13-.24.26-.16l5.42,3.13c.16.09.29.3.29.49v4.13Z"/>
      <path class="cls-2" d="M12.49,28.59v4.51c.03.06.08.17.13.2l5.24,3.03v-4.49c0-.07-.05-.18-.13-.22l-5.24-3.03h0ZM18.02,37.05c-.11,0-.18-.03-.29-.08l-5.42-3.13c-.24-.14-.42-.45-.42-.74v-4.73c0-.2.08-.36.24-.44.16-.09.34-.08.5.02l5.42,3.14c.26.14.45.45.45.75v4.71c0,.2-.1.35-.24.44-.08.04-.16.06-.24.06Z"/>
      <path class="cls-4" d="M13.67,31.34c.31.18.55.03.55-.32s-.24-.77-.55-.96c-.31-.17-.55-.03-.55.32s.24.78.55.95Z"/>
      <path class="cls-2" d="M13.44,30.29v.09c0,.24.18.56.39.68h0c.05.03.08.03.08.04v-.09c0-.24-.18-.57-.39-.69-.03-.03-.05-.04-.08-.04h0ZM13.93,31.72c-.13,0-.29-.04-.42-.12-.39-.22-.71-.76-.71-1.22,0-.28.13-.51.34-.63.18-.11.45-.1.68.04.39.23.71.76.71,1.22,0,.28-.11.5-.31.62-.11.05-.18.08-.29.08Z"/>
      <path class="cls-1" d="M15.06,24.55l-7.26-4.17-5.4-6.95c-1.55-2.01-1.73-5.05-.21-7.86.71-1.35,2.57-2.7,3.43-3.76,1.13-1.37,3.33-1.23,4.82-.47l8.59,1.19,6.63,4.76-10.61,17.26Z"/>
      <path class="cls-2" d="M7.99,20.14l6.97,3.99L25.25,7.37l-6.31-4.55-8.54-1.17s-.05-.02-.11-.04c-1.39-.72-3.43-.83-4.43.38-.34.41-.81.85-1.28,1.32-.79.75-1.7,1.59-2.12,2.4-1.39,2.62-1.31,5.57.18,7.53l5.34,6.9h0ZM15.06,24.86c-.05,0-.11-.02-.16-.05l-7.26-4.17s-.08-.05-.08-.09l-5.4-6.94c-1.68-2.16-1.78-5.37-.26-8.21.47-.89,1.41-1.77,2.25-2.55.47-.45.92-.88,1.23-1.26,1.2-1.47,3.48-1.4,5.14-.56l8.57,1.18c.05,0,.11.03.13.05l6.63,4.76c.13.09.18.27.08.41l-10.61,17.27c-.08.1-.18.15-.26.15Z"/>
      <path class="cls-4" d="M17.89,26.33l-2.83-1.78-.21-.2c-.42-.44-.76-1.01-.94-1.57-.58-1.63-.37-3.63.05-5.27.99-3.6,3.62-7.47,6.86-9.37.94-.57,2.1-1.02,3.22-1.08.47-.03,1.02.03,1.49.18l.26.1,2.86,1.78c-.18-.07-.34-.13-.55-.18-.6-.15-1.28-.14-1.89-.03-1.73.31-3.46,1.45-4.72,2.64-2.62,2.45-4.79,6.34-5.08,9.95-.08,1.21.03,2.56.58,3.65.18.35.42.71.68.98l.21.2Z"/>
      <path class="cls-2" d="M24.28,7.36h-.23c-1.18.07-2.33.6-3.07,1.04-3.01,1.77-5.71,5.45-6.71,9.18-.31,1.12-.71,3.27-.08,5.09.21.57.5,1.09.86,1.47l.21.19,1.41.89c-.6-1.26-.63-2.73-.55-3.75.26-3.48,2.28-7.47,5.16-10.15.92-.84,2.75-2.33,4.87-2.71.32-.06.63-.09.97-.09l-1.49-.93-.21-.07c-.34-.12-.76-.17-1.15-.17h0ZM17.89,26.64c-.05,0-.1-.01-.16-.04l-2.83-1.78-.26-.24c-.45-.44-.81-1.05-1.02-1.7-.71-1.97-.26-4.27.05-5.45,1.05-3.88,3.85-7.71,7-9.55.81-.48,2.04-1.05,3.35-1.12.55-.03,1.13.04,1.62.19l.26.1,2.91,1.81c.13.09.18.26.13.4-.08.14-.26.21-.39.15-.21-.07-.34-.12-.52-.17-.5-.12-1.13-.13-1.76-.02-1.96.36-3.69,1.76-4.56,2.56-2.78,2.58-4.72,6.41-4.98,9.75-.08.96-.03,2.34.55,3.48.16.33.39.67.63.91l.21.18c.11.11.11.29.03.42-.08.08-.16.11-.26.11Z"/>
      <path class="cls-4" d="M2.69,13.73l-1.31-.82-.16-.15c-.29-.31-.52-.72-.68-1.13-.42-1.28-.24-2.86.16-4.12C1.46,5.04,3.3,2.41,5.55,1.09c.68-.41,1.49-.74,2.31-.78.34-.02.73.03,1.07.14l.21.07,1.31.82c-.13-.04-.26-.09-.39-.12-.45-.1-.92-.1-1.36-.02-1.26.23-2.49,1.04-3.41,1.89-1.89,1.77-3.43,4.56-3.64,7.16-.08.87,0,1.84.42,2.63.13.24.29.5.47.7l.16.14Z"/>
      <path class="cls-2" d="M8.01.61c-.05,0-.1,0-.16,0-.84.04-1.62.43-2.15.73C3.64,2.57,1.78,5.02.99,7.6c-.45,1.48-.5,2.9-.16,3.93.16.4.37.76.63,1.03l.18.16c-.34-.86-.37-1.81-.31-2.49.21-2.53,1.68-5.42,3.75-7.36.68-.62,2.02-1.7,3.56-1.97.13-.03.29-.04.42-.05l-.24-.1c-.24-.08-.52-.12-.81-.12h0ZM2.69,14.04c-.05,0-.11-.02-.16-.05l-1.31-.82-.21-.18c-.31-.33-.58-.78-.76-1.26-.52-1.56-.13-3.37.16-4.31C1.23,4.7,3.19,2.11,5.39.82,5.97.48,6.86.06,7.83,0c.42-.02.84.03,1.21.15l.21.08,1.36.84c.13.09.18.26.1.4-.05.14-.24.21-.37.16-.13-.05-.24-.09-.37-.12-.37-.09-.81-.09-1.23-.01-1.39.25-2.62,1.24-3.25,1.82-1.96,1.84-3.35,4.57-3.54,6.96-.05.68-.03,1.65.37,2.47.1.23.29.46.45.63l.13.14c.13.11.13.29.05.41-.08.08-.16.12-.26.12Z"/>
      <path class="cls-4" d="M10.4,21.88l-2.59-1.5c-1.57-2.34-1.83-4.2-1.26-6.87.89-3.78,3.56-7.86,6.86-9.98,1.99-1.23,3.01-1.37,5.63-1l2.2,1.57c-4.51-.9-9.3,4.85-10.98,8.94-1.02,2.51-1.83,6.62.13,8.85Z"/>
      <path class="cls-2" d="M8.01,20.14l1.44.84c-1.07-2.32-.47-5.66.52-8.07,1.65-4.04,5.95-9.1,10.19-9.21l-1.23-.88c-2.59-.35-3.51-.18-5.37.96-3.12,2.01-5.82,5.94-6.71,9.79-.58,2.68-.29,4.41,1.15,6.57h0ZM10.4,22.18c-.05,0-.11,0-.13-.03l-2.62-1.5c-.05-.03-.08-.06-.11-.1-1.54-2.33-1.91-4.25-1.28-7.11.92-4,3.72-8.09,6.97-10.18,2.12-1.3,3.27-1.4,5.87-1.04.05,0,.11.03.13.05l2.2,1.57c.11.09.16.24.11.37-.08.13-.21.21-.37.18-4.22-.86-8.88,4.53-10.61,8.74-1.1,2.66-1.73,6.49.08,8.53.11.11.11.29.03.4-.08.08-.16.11-.26.11Z"/>
      <path class="cls-4" d="M31.12,14.11c-.16,4.6-3.59,10.07-7.65,12.23-4.06,2.16-7.23.19-7.07-4.41.18-4.6,3.59-10.07,7.65-12.23,4.06-2.16,7.23-.18,7.07,4.41Z"/>
      <path class="cls-2" d="M27.14,9.13c-.89,0-1.89.29-2.93.84-3.98,2.11-7.34,7.47-7.49,11.97-.08,2.11.58,3.69,1.81,4.47,1.23.78,2.93.65,4.79-.34,3.98-2.11,7.34-7.48,7.49-11.97h0c.08-2.1-.58-3.69-1.81-4.47-.55-.34-1.15-.5-1.86-.5h0ZM20.38,27.53c-.81,0-1.55-.2-2.17-.6-1.44-.89-2.17-2.68-2.1-5.01.16-4.69,3.67-10.29,7.81-12.5,2.07-1.1,3.98-1.21,5.42-.31,1.42.89,2.17,2.67,2.07,5.01-.16,4.68-3.64,10.28-7.78,12.48-1.15.61-2.25.92-3.25.92Z"/>
      <path class="cls-3" d="M29.68,14.92c-.13,3.72-2.91,8.16-6.18,9.91-3.3,1.75-5.87.15-5.74-3.57.13-3.72,2.91-8.16,6.21-9.91,3.27-1.76,5.84-.15,5.71,3.57Z"/>
      <path class="cls-2" d="M26.46,10.94c-.71,0-1.52.23-2.36.68-3.2,1.69-5.9,6.02-6.03,9.65-.05,1.69.45,2.95,1.44,3.56.97.62,2.33.52,3.82-.27,3.2-1.7,5.9-6.03,6.03-9.65h0c.05-1.68-.45-2.96-1.44-3.57-.42-.26-.92-.4-1.47-.4h0ZM20.98,25.84c-.65,0-1.28-.17-1.81-.5-1.18-.73-1.78-2.19-1.73-4.11.16-3.81,3.01-8.37,6.37-10.17,1.7-.9,3.27-.98,4.45-.25,1.18.74,1.78,2.2,1.7,4.11-.13,3.81-2.96,8.38-6.34,10.17-.94.5-1.83.75-2.65.75Z"/>
      <path class="cls-4" d="M29.71,35.18c-.76-1.44-3.12-3.83-4.9-2.83l-2.65,1.54c1.96-1.04,4.24,1.53,5.11,3.24.76,1.48,1.44,4.2-.21,5.24.52-.3,2.65-1.46,2.96-1.77,1.34-1.28.52-3.96-.31-5.42Z"/>
      <path class="cls-2" d="M23.63,33.39c.1.02.21.05.31.09,1.52.48,2.93,2.16,3.62,3.51.52,1.04,1.13,2.96.63,4.38.71-.39,1.47-.84,1.62-1,1.18-1.13.42-3.63-.37-5.03v-.02c-.5-.91-1.76-2.39-3.09-2.8-.52-.16-1-.12-1.42.09l-1.31.77h0ZM27.06,42.68c-.11,0-.21-.06-.26-.16-.11-.14-.05-.33.08-.42,1.44-.9.86-3.39.13-4.84-.65-1.29-1.96-2.8-3.25-3.21-.52-.16-1.02-.14-1.47.09-.13.08-.31.03-.42-.12-.08-.15-.03-.34.13-.42l2.65-1.53c.55-.31,1.21-.37,1.89-.16,1.39.43,2.83,1.92,3.43,3.1.79,1.36,1.81,4.29.26,5.78-.26.26-1.42.91-2.57,1.57l-.45.26c-.05.03-.11.05-.16.05Z"/>
      <path class="cls-4" d="M27.06,36.71c-.63-1.09-1.49-2.03-2.46-2.59-.94-.55-1.81-.6-2.44-.24h0c-.63.36-1.02,1.14-1.02,2.24s.39,2.32,1.02,3.42c.63,1.09,1.49,2.03,2.44,2.58.97.56,1.83.61,2.46.24.63-.36,1-1.14,1-2.24s-.37-2.33-1-3.42h0Z"/>
      <path class="cls-2" d="M23.05,33.95c-.26,0-.52.07-.73.19-.58.32-.86,1.02-.86,1.98,0,1.01.34,2.17.97,3.26.63,1.09,1.47,1.96,2.33,2.47.84.48,1.6.56,2.15.24.55-.31.86-1.02.86-1.97,0-1.02-.34-2.17-.97-3.26l.26-.16-.26.16c-.63-1.1-1.47-1.97-2.36-2.48-.5-.29-.97-.43-1.39-.43h0ZM26.17,42.91c-.55,0-1.13-.17-1.73-.51-.97-.56-1.89-1.52-2.54-2.7-.71-1.18-1.07-2.45-1.07-3.56,0-1.19.42-2.07,1.18-2.51.73-.44,1.73-.35,2.75.24.97.56,1.89,1.51,2.57,2.69v.02h0c.68,1.17,1.05,2.43,1.05,3.56,0,1.18-.42,2.08-1.15,2.51-.31.18-.68.27-1.05.27Z"/>
      <path class="cls-3" d="M25.96,37.35c.34.59.55,1.27.55,1.88s-.21,1.03-.55,1.23c-.34.2-.84.17-1.36-.14-.52-.3-1-.83-1.34-1.42l-.03-.03c-.34-.59-.55-1.25-.55-1.84s.24-1.03.58-1.23h0c.34-.2.81-.17,1.34.13.52.3,1.02.83,1.36,1.43Z"/>
      <path class="cls-2" d="M23.76,35.97c-.13,0-.24.04-.34.09-.26.15-.42.5-.42.97,0,.52.18,1.12.5,1.69.37.6.79,1.07,1.26,1.34.42.23.79.28,1.05.13.26-.15.39-.5.39-.96,0-.54-.18-1.15-.5-1.73h0c-.34-.57-.79-1.04-1.26-1.31-.24-.14-.47-.22-.68-.22h0ZM25.46,40.9c-.31,0-.66-.1-1.02-.3-.55-.32-1.07-.87-1.44-1.54-.42-.69-.6-1.4-.6-2.02,0-.7.24-1.23.71-1.5.45-.27,1.05-.22,1.65.13.55.32,1.07.87,1.47,1.54h0c.39.67.6,1.39.6,2.04,0,.7-.26,1.23-.71,1.49-.21.11-.42.18-.65.18Z"/>
      <path class="cls-1" d="M27.74,24.3l12.92-7.46c.29.43.47.85.6,1.35l1.52,7.24c.05.19.08.36.08.56v7.74l-12.94,7.47v-7.76c0-.19-.03-.36-.05-.55l-1.54-7.24c-.11-.51-.29-.93-.58-1.37Z"/>
      <path class="cls-2" d="M28.16,24.41c.21.37.37.76.47,1.18l1.55,7.24c.03.24.05.43.05.62v7.22l12.31-7.11v-7.57c0-.17-.03-.32-.05-.5l-1.54-7.23c-.08-.36-.21-.69-.39-1.02l-12.39,7.16h0ZM29.91,41.51c-.05,0-.08-.02-.13-.04-.11-.06-.16-.15-.16-.27v-7.76c0-.17-.03-.32-.05-.48l-1.55-7.24c-.1-.45-.26-.84-.55-1.25-.05-.07-.05-.16-.05-.24.03-.08.08-.16.16-.19l12.92-7.47c.16-.08.31-.04.42.09.32.48.52.93.63,1.46l1.55,7.25c.03.17.08.37.08.62v7.74c0,.11-.08.22-.16.27l-12.94,7.46c-.05.03-.1.04-.16.04Z"/>
      <path class="cls-3" d="M19.12,19.26c0-.17.11-.25.26-.16l7.34,4.23c.39.22.73.56,1.02.96h0c.26.41.47.89.58,1.37l1.54,7.24c.03.18.05.36.05.55v7.76c0,.17-.1.25-.26.16l-1.6-.92v-.32c0-1.1-.37-2.33-1-3.42h0c-.63-1.09-1.49-2.03-2.46-2.59-.94-.55-1.81-.6-2.44-.24h0c-.63.36-1.02,1.14-1.02,2.24v.33c-.76-.45-1.47-.85-2.02-1.18v-16.02Z"/>
      <path class="cls-2" d="M28.37,40.27l1.26.72v-7.55c0-.16-.03-.32-.05-.48l-1.55-7.24c-.1-.42-.29-.86-.55-1.25-.26-.37-.58-.69-.92-.88l-7.15-4.13v15.64l1.42.81c.05-1.08.47-1.89,1.18-2.3.73-.44,1.73-.35,2.75.24.97.56,1.89,1.51,2.57,2.69.68,1.18,1.05,2.45,1.05,3.57v.15h0ZM29.78,41.71c-.11,0-.18-.03-.29-.08l-1.6-.92c-.1-.05-.16-.17-.16-.29.03-.09.03-.19.03-.3,0-1.02-.34-2.17-.97-3.26-.63-1.1-1.47-1.97-2.36-2.48-.81-.48-1.57-.57-2.12-.24-.58.32-.86,1.02-.86,1.98v.31c0,.11-.05.23-.13.29-.11.06-.24.06-.34,0l-2.02-1.17c-.11-.06-.16-.16-.16-.27v-16.02c0-.2.08-.36.24-.44.13-.09.34-.09.5.02l7.34,4.23c.42.24.79.61,1.1,1.06.31.45.55.96.65,1.47l1.55,7.24c.03.19.05.39.05.62v7.76c0,.2-.08.36-.24.44-.05.04-.13.06-.21.06Z"/>
      <path class="cls-4" d="M21.3,21.99l4.77,2.76c.24.13.42.33.6.57h0c.16.24.29.52.34.8h0l1.26,5.95c.05.19-.03.32-.18.29-.03,0-.05-.02-.08-.03h0l-6.71-3.88c-.16-.09-.29-.31-.29-.49v-5.81c0-.18.13-.25.29-.16Z"/>
      <path class="cls-2" d="M21.3,21.99l-.16.27h0l.16-.27h0ZM21.32,22.37v5.6c0,.07.05.18.13.22l6.47,3.75-1.21-5.75c-.05-.23-.16-.48-.31-.69-.13-.2-.31-.37-.47-.47l-4.61-2.66h0ZM28.13,32.67c-.05,0-.08,0-.13-.02-.05-.02-.11-.04-.13-.06l-6.73-3.89c-.26-.15-.45-.46-.45-.75v-5.81c0-.2.08-.36.24-.45.16-.09.34-.08.52.02h0s4.77,2.77,4.77,2.77c.26.15.5.37.68.65.21.28.34.59.42.9l1.26,5.96c.05.21,0,.41-.13.54-.08.08-.21.12-.31.12Z"/>
      <polygon class="cls-4" points="29.26 25.11 40.29 18.75 41.84 25.99 30.81 32.36 29.26 25.11"/>
      <path class="cls-2" d="M29.63,25.27l1.39,6.6,10.48-6.04-1.42-6.6-10.45,6.04h0ZM30.81,32.67c-.05,0-.08,0-.13-.03-.08-.04-.16-.12-.16-.22l-1.55-7.24c-.03-.13.03-.27.13-.33l11.03-6.36c.11-.05.18-.06.29-.02.08.04.16.12.18.22l1.52,7.24c.05.13-.03.26-.13.33l-11.03,6.36c-.05.03-.11.04-.16.04Z"/>
      <polygon class="cls-3" points="30.31 29.99 35.86 26.85 36.91 24.99 39.79 23.36 41.36 23.75 41.84 25.99 30.81 32.36 30.31 29.99"/>
      <path class="cls-2" d="M30.65,30.15l.37,1.73,10.48-6.04-.39-1.83-1.26-.31-2.72,1.53-1,1.78c-.03.05-.05.09-.1.12l-5.37,3.03h0ZM30.81,32.67c-.05,0-.08,0-.13-.03-.08-.04-.16-.12-.16-.22l-.52-2.36c-.03-.13.05-.27.16-.34l5.48-3.09,1.02-1.79s.05-.09.11-.11l2.88-1.63c.08-.04.16-.05.24-.03l1.55.39c.13.03.21.12.24.24l.47,2.25c.05.13-.03.26-.13.33l-11.03,6.36c-.05.03-.11.04-.16.04Z"/>
      <path class="cls-3" d="M27.98,30.66l.29,1.42c.05.19-.03.32-.18.29-.03,0-.05-.02-.08-.03h0l-6.71-3.88c-.16-.09-.29-.31-.29-.49v-1.01l6.97,3.7Z"/>
      <path class="cls-2" d="M21.32,27.47v.5c0,.07.05.18.13.22l6.47,3.75-.21-1.07-6.39-3.39h0ZM28.13,32.67c-.05,0-.08,0-.13-.02-.05-.02-.11-.04-.16-.07l-6.71-3.88c-.26-.15-.45-.46-.45-.75v-1.01c0-.11.05-.21.16-.27.08-.05.21-.05.31,0l6.94,3.7c.08.04.16.12.16.21l.31,1.43c.05.21,0,.41-.13.53-.08.09-.21.13-.31.13Z"/>
      <path class="cls-1" d="M39.66,15.87c.42.25.71.57,1,.97l-12.92,7.46h0c-.26-.38-.6-.73-1.02-.96l-7.34-4.23s-.08-.03-.11-.04l.05-.03,12.81-7.4c.08-.04.13-.02.21.02l7.31,4.22Z"/>
      <path class="cls-2" d="M19.93,19.05l6.94,4.02c.34.2.66.48.94.84l12.39-7.15c-.24-.26-.45-.45-.71-.61l-7.28-4.2-12.29,7.11h0ZM27.74,24.61c-.1,0-.21-.05-.26-.14-.26-.38-.58-.69-.92-.88l-7.34-4.23c-.13-.01-.24-.11-.26-.24-.03-.13.05-.26.16-.33l12.86-7.42c.26-.1.39-.04.5,0l7.31,4.22h.03c.42.26.76.59,1.1,1.06.03.07.05.16.03.24,0,.09-.05.16-.13.2l-12.92,7.47c-.05.03-.1.04-.16.04Z"/>
      <path class="cls-2" d="M22.68,30.97c-.05,0-.1,0-.16-.04l-1.81-1.03c-.13-.09-.18-.27-.1-.42.08-.15.26-.2.42-.11l1.81,1.03c.13.09.18.28.1.42-.05.11-.16.16-.26.16Z"/>
      <path class="cls-3" d="M41,31.47c-.55.32-1,.06-1-.58s.45-1.43,1-1.75c.58-.32,1.02-.06,1.02.58s-.45,1.42-1.02,1.75Z"/>
      <path class="cls-2" d="M41.44,29.3c-.08,0-.18.03-.29.1-.45.27-.84.95-.84,1.49,0,.19.05.33.13.38.08.05.24.03.39-.07h0c.47-.27.86-.95.86-1.48,0-.19-.05-.34-.13-.39-.03-.02-.08-.03-.13-.03h0ZM41,31.47h.03-.03ZM40.55,31.91c-.16,0-.29-.03-.42-.1-.29-.17-.45-.5-.45-.92,0-.76.52-1.64,1.15-2.02.37-.21.73-.23,1.02-.07.29.17.47.5.47.92,0,.75-.52,1.63-1.18,2.02h0c-.21.11-.42.17-.6.17Z"/>
      <polygon class="cls-4" points="43.22 33.68 43.22 31.73 29.91 39.42 29.91 41.37 43.22 33.68"/>
      <path class="cls-2" d="M30.23,39.59v1.24l12.68-7.32v-1.24l-12.68,7.33h0ZM29.91,41.68c-.05,0-.08-.02-.13-.04-.11-.05-.16-.16-.16-.27v-1.95c0-.11.05-.22.16-.27l13.28-7.68c.1-.06.21-.06.31,0,.08.05.16.16.16.26v1.95c0,.11-.08.21-.16.27l-13.31,7.68s-.1.04-.16.04Z"/>
      <path class="cls-3" d="M32.04,36.62c-.55.32-1,.06-1-.58s.45-1.43,1-1.76c.58-.32,1.02-.06,1.02.59s-.45,1.43-1.02,1.75Z"/>
      <path class="cls-2" d="M32.51,34.46c-.08,0-.18.04-.31.1-.45.27-.84.95-.84,1.49,0,.19.05.33.13.38s.24.03.39-.07h.03c.45-.27.84-.95.84-1.48,0-.19-.05-.34-.13-.39-.03-.02-.08-.03-.1-.03h0ZM31.59,37.07c-.13,0-.29-.04-.39-.12-.29-.16-.47-.5-.47-.91,0-.75.52-1.64,1.15-2.02.37-.21.76-.23,1.05-.07.29.17.45.5.45.92,0,.75-.52,1.64-1.18,2.01h0c-.21.12-.42.18-.6.18Z"/>
      <path class="cls-2" d="M34.16,35.58h0c-.16,0-.29-.14-.29-.31v-2.98c0-.16.13-.3.29-.3h0c.18,0,.31.14.31.3v2.98c0,.17-.13.31-.31.31Z"/>
      <path class="cls-2" d="M35.31,34.92h0c-.16,0-.31-.14-.31-.31v-2.98c0-.17.16-.3.31-.3h0c.16,0,.31.14.31.3v2.98c0,.17-.16.31-.31.31Z"/>
      <path class="cls-2" d="M36.52,34.23h0c-.18,0-.31-.14-.31-.31v-2.98c0-.17.13-.3.31-.3h0c.16,0,.32.13.32.3v2.98c0,.17-.16.31-.32.31Z"/>
      <path class="cls-2" d="M37.67,33.55c-.16,0-.31-.14-.31-.3v-2.98c0-.17.16-.31.31-.31h0c.18,0,.31.14.31.31v2.98c0,.17-.13.3-.31.3h0Z"/>
      <path class="cls-2" d="M38.9,32.85h0c-.16,0-.31-.14-.31-.31v-2.98c0-.17.16-.3.31-.3h0c.16,0,.31.14.31.3v2.98c0,.18-.16.31-.31.31Z"/>
      <path class="cls-4" d="M29.91,41.37c-.05.05-.13.06-.24,0l-1.62-.94v-.31c0-.64-.13-1.32-.34-1.99l2.2,1.29v1.95Z"/>
      <path class="cls-2" d="M28.37,40.27l1.26.71v-1.39l-1.42-.81c.11.46.16.9.16,1.34v.15h0ZM29.91,41.37h.03-.03ZM29.81,41.73c-.08,0-.18-.03-.29-.09l-1.62-.94c-.1-.06-.16-.17-.16-.29.03-.09.03-.19.03-.3,0-.59-.13-1.23-.34-1.89-.05-.12-.03-.25.08-.33.1-.09.24-.1.37-.03l2.2,1.29c.1.05.16.16.16.27v1.95c0,.07-.03.15-.08.2-.08.1-.21.16-.34.16Z"/>
      <polygon class="cls-1" points="28.24 32.36 28.24 29.06 26.95 29.8 26.95 33.1 28.24 32.36"/>
      <path class="cls-2" d="M27.27,29.98v2.59l.65-.39v-2.59l-.65.39h0ZM26.95,33.41c-.05,0-.1-.02-.16-.04-.11-.06-.16-.16-.16-.27v-3.3c0-.1.05-.21.16-.26l1.28-.75c.11-.05.21-.05.31,0,.08.05.16.16.16.27v3.3c0,.11-.08.21-.16.26l-1.28.75c-.05.03-.1.04-.16.04Z"/>
      <path class="cls-2" d="M28.24,32.67c-.1,0-.21-.05-.26-.16-.08-.15-.05-.33.1-.42l.63-.36c.16-.09.34-.04.42.11.11.15.05.33-.1.42l-.63.36c-.05.04-.11.04-.16.04Z"/>
      <polygon class="cls-1" points="43.85 23.3 43.85 19.99 42.57 20.74 42.57 24.04 43.85 23.3"/>
      <path class="cls-2" d="M43.85,23.3h.03-.03ZM42.88,20.92v2.59l.66-.38v-2.59l-.66.38h0ZM42.57,24.35c-.05,0-.1,0-.16-.04-.08-.05-.16-.15-.16-.26v-3.3c0-.11.08-.21.16-.27l1.28-.74c.11-.06.21-.06.31,0,.11.05.16.16.16.26v3.3c0,.11-.05.21-.16.27l-1.28.74c-.05.04-.11.04-.16.04Z"/>
    </g>
  </g>
</svg>