<?xml version="1.0" encoding="UTF-8"?>
<svg id="Layer_2" data-name="Layer 2" xmlns="http://www.w3.org/2000/svg" viewBox="0 0 46.8 86.69" fill="currentColor">
  <defs>
    <style>
      .cls-1 {
        fill: #fff;
      }

      .cls-1, .cls-2, .cls-3, .cls-4 {
        fill-rule: evenodd;
      }

      .cls-2 {
        fill: #1a87c7;
      }

      .cls-3 {
        fill: #bdedf8;
      }

      .cls-4 {
        fill: #66ceef;
      }
    </style>
  </defs>
  <g id="_Layer_" data-name="&amp;lt;Layer&amp;gt;">
    <g>
      <path class="cls-4" d="M6.08,22.11l16.35-9.46h0S38.99,3.09,38.99,3.09c.05-.03.11-.05.11-.08.05-.03.11-.05.11-.08.05-.03.05-.06.05-.09h0c.05-.03.05-.07.11-.1h0s.05-.07.05-.12h0s0-.08.05-.12v-.25,3.99L9.23,23.73c-1,.55-2.25.84-3.3.25-.84-.49-.42-1.53,0-1.78.47-.26.1-.06.16-.08h0Z"/>
      <path class="cls-2" d="M6.29,22.69l-.05.04c-.05.03-.21.23-.21.43,0,.09.05.19.21.29,1.05.6,2.31-.04,2.67-.25L38.88,5.88v-2.01L6.5,22.56s0,.03-.05.04h0c-.05.03-.05.05-.1.06,0,.01-.05.02-.05.02h0ZM7.24,24.93c-.58,0-1.15-.14-1.62-.41-.52-.29-.79-.79-.79-1.36,0-.61.31-1.22.79-1.49.05-.02.05-.03.11-.05,0-.02.05-.03.05-.04L38.68,2.56l.21.05-.05-.15h.05s0-.18,0-.18v-.04c0-.33.26-.6.58-.6.37,0,.63.27.63.61v3.99c0,.22-.1.42-.31.53L9.49,24.27c-.73.43-1.52.66-2.25.66Z"/>
      <path class="cls-3" d="M10.75,85.6c-1.99.56-3.62.6-5.61.24-1.99-.48-4.45-1.52-4.56-3.92V22.87c.11,2.02,1.78,3.01,3.51,3.63,2.31.69,4.35.69,6.65.04,1.21-.42,1.78-.82,2.93-1.47L45.7,6.58l.1-.07.1-.09.05-.09.11-.11.05-.12.05-.12v-.26,59.32l-.05.12-.05.11-.11.1-.05.1-.1.08-.1.07-31.86,18.4c-1.15.68-1.83,1.13-3.09,1.58Z"/>
      <path class="cls-2" d="M1.21,25.58v56.34c.05,1.57,1.41,2.69,4.09,3.32,1.89.35,3.46.28,5.24-.23,1-.34,1.62-.7,2.46-1.19l.52-.33,31.86-18.39.52.37-.42-.5.68.06-.58-.24-.05-57.44L13.52,25.88c-.89.5-1.52.87-2.57,1.25-2.46.7-4.66.69-7.02-.03-.89-.32-1.94-.78-2.73-1.51h0ZM7.55,86.69c-.84,0-1.62-.08-2.52-.25C.95,85.47.06,83.46,0,81.94V22.87c0-.34.26-.61.58-.61h0c.37,0,.63.26.63.59.05,1.37,1,2.32,3.09,3.08,2.1.63,4.09.64,6.24.03.94-.33,1.52-.65,2.36-1.14l.47-.28L45.38,6.04l.16.14v-.26h0s.05-.2.05-.2c0-.32.26-.58.63-.58.31.01.58.25.58.58v59.23c-.05.03-.05.26-.05.28-.05.03-.1.17-.1.2s-.05.16-.05.19c-.05.02-.1.14-.16.16,0,.03-.1.14-.1.16-.05.02-.16.12-.21.13,0,.01-.1.09-.1.09l-32.43,18.72c-.84.51-1.52.91-2.62,1.3q-.05,0-.05.01c-1.15.34-2.25.5-3.35.5Z"/>
      <path class="cls-3" d="M20.13,21.36l-6.13,3.53c-1.47.86-2.31,1.48-4.03,1.87-2.41.56-5.24.29-7.34-.89-1.94-1.14-2.52-2.98-1.47-4.44.58-.86,1.52-1.27,2.41-1.79l4.61-2.66h0L35.9.94c.73-.42,1.62-.42,2.36,0l.73.44c.31.18.47.49.47.85s-.16.68-.47.86l-16.56,9.55h0s-15.56,9.01-15.56,9.01c-.52.3-1.15.56-1.31,1.05-.21.41-.16.96.37,1.28,1.05.6,2.31.31,3.3-.25L42.61,4.42c.73-.42,1.57-.42,2.31,0l.79.44c.31.18.47.49.47.85s-.16.68-.47.86l-25.57,14.78Z"/>
      <path class="cls-2" d="M37.1,1.24c-.31,0-.58.08-.89.24L3.41,20.42c-.73.4-1.31.74-1.78,1.36-.32.49-.47,1.03-.32,1.57.16.75.73,1.45,1.63,1.98,1.89,1.06,4.51,1.38,6.92.82,1.31-.31,2.04-.76,3.14-1.39l6.81-3.94h0l25.57-14.78c.11-.07.16-.18.16-.32s-.05-.25-.16-.32l-.79-.44c-.52-.31-1.15-.31-1.68,0L9.49,24.27c-1.31.78-2.78.88-3.88.25-.84-.49-.94-1.39-.63-2.06.26-.59.84-.91,1.31-1.18l.26-.15L38.68,2.56c.16-.07.21-.18.21-.33s-.05-.25-.21-.32l-.73-.44c-.31-.16-.58-.24-.84-.24h0ZM7.45,27.66c-1.83,0-3.67-.44-5.08-1.25-1.26-.71-2.04-1.7-2.31-2.79-.16-.89,0-1.77.58-2.55.58-.84,1.41-1.29,2.2-1.72l5.03-2.9L35.58.4c.94-.54,2.04-.53,2.93,0l.79.44c.47.29.79.81.79,1.39s-.31,1.1-.79,1.39L6.87,22.34c-.31.18-.68.39-.79.59-.11.35.1.47.16.51,1.05.6,2.31-.04,2.67-.24L42.29,3.89c.94-.53,1.99-.53,2.93,0l.79.44c.47.29.79.81.79,1.39s-.31,1.1-.79,1.39L13.63,25.82c-1.1.67-1.99,1.18-3.51,1.54-.89.2-1.78.3-2.67.3Z"/>
      <path class="cls-1" d="M40.98,5.38l-1.52-.85L5.87,23.94l.05.04c1,.62,2.31.31,3.3-.25L40.98,5.38Z"/>
      <path class="cls-2" d="M39.46,5.23L7.55,23.67c.63-.08,1.15-.34,1.36-.47L39.72,5.38l-.26-.14h0ZM7.18,24.93c-.58,0-1.1-.14-1.57-.42-.16-.11-.31-.34-.31-.56s.05-.44.26-.54L39.2,3.99c.16-.12.42-.12.58,0l1.52.85c.16.11.31.31.31.53s-.16.42-.31.53L9.49,24.27c-.73.45-1.52.67-2.31.67Z"/>
      <path class="cls-4" d="M8.39,86.04V26.99c-2.67.18-7.65-.64-7.81-4.11v59.05c.16,3.47,5.14,4.29,7.81,4.12Z"/>
      <path class="cls-2" d="M1.21,25.6v56.32c.05.74.37,1.37.94,1.91,1.26,1.16,3.62,1.58,5.61,1.61V27.62c-1.89-.02-4.72-.38-6.45-1.93,0-.03-.05-.06-.1-.1h0ZM7.71,86.67c-1.83,0-4.72-.4-6.39-1.93-.84-.76-1.31-1.7-1.31-2.8V22.87c0-.34.26-.61.58-.61h0c.37,0,.63.26.63.59.05.76.37,1.39.94,1.94,1.42,1.28,4.19,1.72,6.18,1.59.16-.02.37.05.47.16.1.12.21.28.21.45v59.05c0,.32-.26.59-.58.61-.21.02-.47.02-.73.02Z"/>
      <path class="cls-2" d="M32.86,25.29c-1.05,0-2.25.36-3.51,1.06h0c-4.35,2.48-7.76,8.52-7.76,13.75,0,2.32.79,4.11,2.15,4.9,1.36.79,3.25.6,5.24-.55,4.4-2.51,8.02-8.74,8.02-13.9,0-2.27-.79-3.96-2.15-4.76-.58-.34-1.26-.51-1.99-.51h0ZM25.63,46.72c-.94,0-1.73-.21-2.52-.65-1.73-1.02-2.72-3.2-2.72-5.97,0-5.63,3.67-12.15,8.38-14.82h0c2.46-1.41,4.87-1.61,6.71-.55,1.78,1.04,2.72,3.11,2.72,5.83,0,5.55-3.88,12.26-8.59,14.97-1.42.79-2.78,1.19-3.98,1.19Z"/>
      <path class="cls-2" d="M29.19,45.61c-.52,0-1.05-.22-1.47-.63-1.36-1.24-2.2-4.19-2.2-7.87,0-4.79,1.2-9.37,3.04-11.68.21-.27.63-.31.89-.09.26.22.31.6.1.86-1.31,1.6-2.78,5.41-2.78,10.91,0,3.94.89,6.18,1.73,6.96.26.22.47.33.73.31.31-.03.63.22.68.56,0,.34-.26.64-.58.67-.05,0-.11,0-.16,0Z"/>
      <path class="cls-2" d="M29.3,45.61c-.16,0-.31-.06-.42-.18-.26-.24-.26-.63-.05-.87,1.52-1.5,2.99-5.48,2.99-10.99,0-3.27-.52-5.62-1.57-6.63-.31-.35-.79-.57-1.15-.51h0c-.37,0-.63-.27-.63-.61s.31-.61.63-.62c.73,0,1.47.3,2.04.87,1.26,1.26,1.94,3.85,1.94,7.5,0,5.15-1.31,9.8-3.35,11.85-.1.12-.26.18-.42.18Z"/>
      <path class="cls-2" d="M20.96,40.71c-.21,0-.42-.11-.52-.3-.16-.3-.05-.68.26-.84,2.41-1.42,4.93-2.84,7.44-4.28,3.04-1.73,6.08-3.48,9.17-5.27.26-.17.63-.07.84.22.16.29.05.67-.26.84-3.04,1.79-6.13,3.54-9.17,5.27-2.52,1.44-4.98,2.86-7.44,4.27-.1.06-.21.08-.31.08Z"/>
      <path class="cls-2" d="M21.65,61.02l-2.36,1.34c-.1.06-.21.26-.21.37v2.89l2.31-1.34c.1-.06.26-.26.26-.37v-2.89h0ZM18.45,70.55c-.31,0-.58-.28-.58-.62v-7.2c0-.56.31-1.17.84-1.44l2.67-1.57c.37-.19.73-.2,1-.04.31.17.47.49.47.87v3.35c0,.55-.37,1.16-.84,1.44l-2.93,1.7v2.89c0,.34-.26.62-.63.62Z"/>
      <path class="cls-2" d="M24.48,67.09c-.37,0-.63-.28-.63-.62v-7.2c0-.55.37-1.16.84-1.44l2.67-1.55c.37-.2.73-.21,1-.04.31.17.47.49.47.87v7.2c0,.34-.32.62-.63.62s-.63-.28-.63-.62v-6.74l-2.31,1.33c-.05.06-.21.26-.21.37v7.2c0,.34-.26.62-.58.62Z"/>
      <path class="cls-2" d="M24.48,63.83c-.21,0-.42-.12-.52-.31-.16-.3-.05-.67.21-.84l3.77-2.15c.26-.17.63-.07.79.23.21.29.11.67-.21.84l-3.72,2.15c-.11.05-.21.08-.31.08Z"/>
      <path class="cls-2" d="M30.34,63.79c-.21,0-.42-.11-.52-.3-.16-.3-.11-.67.21-.84l3.3-1.89c.05-.06.21-.26.21-.37v-2.18l-2.36,1.34c-.32.19-.68.2-1,.04-.26-.17-.42-.49-.42-.87v-2.84c0-.55.31-1.16.84-1.44l3.14-1.84c.31-.17.68-.07.84.23.21.29.11.67-.21.84l-3.2,1.84c-.11.05-.21.26-.21.37v2.38l2.88-1.65c.16-.11.42-.11.58,0,.21.1.31.31.31.53v3.25c0,.56-.31,1.16-.84,1.44l-3.25,1.89c-.1.05-.21.08-.31.08Z"/>
      <path class="cls-2" d="M36.32,60.35c-.21,0-.42-.11-.52-.31-.21-.29-.11-.67.21-.84l3.25-1.89c.11-.06.21-.26.21-.37v-2.18l-2.31,1.34c-.31.19-.68.2-1,.04-.26-.17-.47-.49-.47-.87v-2.84c0-.56.37-1.17.84-1.45l3.2-1.84c.31-.17.68-.07.84.23.16.29.11.67-.21.84l-3.2,1.84c-.1.06-.21.26-.21.38v2.37l2.83-1.65c.21-.1.42-.1.63,0,.21.11.31.32.31.53v3.25c0,.56-.37,1.16-.84,1.44l-3.25,1.89c-.11.06-.21.08-.31.08Z"/>
    </g>
  </g>
</svg>