<?xml version="1.0" encoding="UTF-8"?>
<svg id="Layer_2" data-name="Layer 2" xmlns="http://www.w3.org/2000/svg" viewBox="0 0 34.6 45.47" fill="currentColor">
  <defs>
    <style>
      .cls-1 {
        fill: #fff;
      }

      .cls-1, .cls-2, .cls-3, .cls-4 {
        fill-rule: evenodd;
      }

      .cls-2 {
        fill: #1a87c7;
      }

      .cls-3 {
        fill: #bdedf8;
      }

      .cls-4 {
        fill: #66ceef;
      }
    </style>
  </defs>
  <g id="_Layer_" data-name="&amp;lt;Layer&amp;gt;">
    <g>
      <path class="cls-4" d="M.3,43.29c.03.44.1.77.47,1.03l1.26.73c-.38-.26-.45-.59-.47-1.03v-22.95c.04-1.1.66-2.17,1.6-2.76L32.7,1.25c.39-.2.71-.31,1.13-.11l-1.26-.73c-.42-.2-.74-.09-1.13.11L1.9,17.57c-.94.59-1.55,1.66-1.6,2.77v22.95Z"/>
      <path class="cls-2" d="M.62,43.29h0,0ZM.62,43.28c.02.4.07.6.33.79l.32.19c0-.08-.01-.15-.01-.22v-22.97c.05-1.22.71-2.38,1.74-3.03L32.54.98c.07-.04.14-.07.22-.11l-.35-.2c-.27-.13-.48-.07-.83.11L2.06,17.84c-.84.54-1.4,1.5-1.44,2.51v22.93h0ZM2.03,45.36c-.05,0-.1-.01-.16-.04l-1.26-.73c-.53-.37-.6-.84-.62-1.28h0v-22.96c.05-1.22.71-2.38,1.74-3.03L31.29.26c.38-.2.84-.39,1.41-.12l1.28.74c.15.08.2.26.12.41-.08.14-.25.2-.41.14-.29-.14-.5-.08-.85.1L3.31,18.57c-.84.54-1.4,1.5-1.44,2.51v22.94c.03.39.08.59.34.78.14.09.17.28.09.42-.06.09-.15.14-.26.14Z"/>
      <path class="cls-1" d="M32.76,27.85c.42-.26.79-.68,1.07-1.15h0c.29-.5.46-1.07.46-1.58V2.17c0-.51-.17-.86-.46-1.03-.3-.17-.69-.14-1.13.11L3.16,18.3c-.44.25-.84.69-1.13,1.19h0c-.29.5-.47,1.07-.47,1.57v22.95c0,.51.18.86.47,1.03.29.16.69.14,1.13-.11l29.6-17.09Z"/>
      <path class="cls-2" d="M32.76,27.85h.01-.01ZM2.31,19.63s0,.01-.02.02c-.27.47-.42.99-.42,1.42v22.95c0,.37.12.65.32.76.19.12.5.08.82-.11l29.6-17.09c.36-.22.7-.59.96-1.04.28-.48.43-.98.43-1.42V2.17c0-.37-.11-.65-.31-.77-.2-.12-.5-.08-.81.11L3.31,18.57c-.37.21-.73.6-1,1.06h0ZM2.45,45.47c-.21,0-.4-.05-.57-.15-.4-.23-.62-.7-.62-1.3v-22.95c0-.54.18-1.14.5-1.71,0,0,.01-.02.01-.02.33-.57.77-1.03,1.24-1.3L32.54.98c.52-.3,1.04-.34,1.43-.11.4.23.63.69.63,1.3v22.95c0,.55-.18,1.16-.51,1.73-.31.54-.72.98-1.17,1.26h0S3.31,45.2,3.31,45.2c-.3.17-.59.26-.86.26Z"/>
      <path class="cls-3" d="M20.21,36.46l2.06-1.68c.18-.15.36-.14.43.03l.66,1.94,2.91-7.51h0c-1.17.42-2.39.08-2.82-1.11-1.08,2.78-2.16,5.56-3.23,8.34h0ZM27.69,28.41l2.89,4.1.66-2.7c.05-.24.24-.47.42-.52l2.06-.69-.71-1.01s-.03-.02-.04-.04l-2.46-3.5c-.45,1.63-1.5,3.31-2.82,4.37h0Z"/>
      <path class="cls-2" d="M28.11,28.47l2.33,3.31.5-2.04c.09-.35.35-.66.64-.74l1.65-.56-2.61-3.71c-.51,1.43-1.43,2.8-2.51,3.74h0ZM30.58,32.82c-.1,0-.2-.05-.25-.13l-2.88-4.1c-.1-.13-.07-.32.06-.42,1.23-.98,2.27-2.6,2.72-4.21.04-.12.12-.2.24-.22.12-.02.24.03.3.13l3.21,4.56c.05.08.07.18.04.27-.03.09-.1.17-.19.2l-2.06.69c-.06.02-.19.15-.23.3l-.66,2.7c-.03.12-.12.21-.24.23-.02,0-.04,0-.05,0h0ZM22.51,34.36s.09,0,.14.02c.16.05.28.17.33.33l.39,1.13,2.39-6.16c-.52.08-1.05.02-1.49-.19-.31-.15-.58-.36-.78-.64l-2.57,6.63,1.15-.94c.14-.12.29-.18.44-.18h0ZM23.35,37.05h-.01c-.13,0-.24-.09-.29-.21l-.61-1.81-2.05,1.67c-.1.09-.26.09-.37,0-.11-.08-.16-.23-.1-.36l3.23-8.34c.05-.12.14-.19.3-.2.13,0,.24.08.29.2.15.42.42.74.8.92.46.21,1.04.22,1.62.01.11-.03.24,0,.32.09.08.09.11.2.07.31l-2.91,7.51c-.04.12-.17.2-.29.2Z"/>
      <path class="cls-3" d="M29.96,20.7c-.69-.4-1.63-.34-2.68.26-1.03.6-1.96,1.61-2.65,2.78l-.02.04c-.69,1.18-1.11,2.52-1.11,3.72,0,.23,0,.44.04.64.02.16.05.31.09.46.18.6.45,1.04.92,1.33.56.32,1.29.38,2.07.07,2.31-.83,4.43-4.2,4.43-6.86,0-1.2-.42-2.05-1.1-2.44Z"/>
      <path class="cls-2" d="M28.98,20.75c-.47,0-.99.16-1.54.47-.96.55-1.85,1.5-2.54,2.67-.7,1.23-1.09,2.49-1.09,3.61,0,.21.02.41.04.6.02.15.05.29.09.42.17.57.41.91.79,1.15.49.28,1.15.3,1.79.04,2.18-.79,4.23-3.98,4.23-6.57,0-1.05-.34-1.83-.96-2.18h0c-.24-.14-.52-.21-.83-.21h0ZM25.63,30.51c-.43,0-.85-.1-1.21-.31-.52-.32-.85-.78-1.07-1.5-.05-.17-.09-.34-.11-.51-.03-.21-.04-.44-.04-.68,0-1.22.41-2.6,1.15-3.88.76-1.3,1.74-2.33,2.79-2.93,1.1-.64,2.16-.74,2.98-.26h0c.81.47,1.26,1.43,1.26,2.71,0,2.82-2.25,6.29-4.63,7.15-.37.15-.75.22-1.11.22Z"/>
      <path class="cls-2" d="M6.95,31.98c-.1,0-.21-.06-.27-.15-.08-.15-.04-.34.11-.42l11.38-6.57c.15-.09.34-.04.42.11.09.15.03.34-.11.42l-11.37,6.57c-.05.03-.1.04-.16.04Z"/>
      <path class="cls-2" d="M6.95,35.68c-.1,0-.21-.06-.27-.15-.08-.15-.04-.34.11-.42l11.38-6.57c.15-.08.34-.03.43.11.08.15.03.34-.11.42l-11.38,6.57c-.05.03-.1.04-.16.04Z"/>
      <path class="cls-4" d="M29,22.35c-.43-.25-1.04-.22-1.71.17-.67.38-1.27,1.04-1.71,1.79v.03c-.45.76-.72,1.62-.72,2.39,0,.42.08.83.25,1.11h0c.4.69,1.19.82,2.06.36.69-.37,1.33-1,1.83-1.88h0c.47-.8.71-1.66.71-2.4s-.27-1.32-.71-1.58Z"/>
      <path class="cls-2" d="M28.37,22.49c-.28,0-.59.1-.93.29-.6.34-1.17.94-1.59,1.68-.45.78-.69,1.57-.69,2.27,0,.38.08.73.21.95.31.54.93.63,1.66.25.66-.36,1.25-.97,1.71-1.76.42-.75.67-1.55.67-2.24,0-.64-.2-1.1-.56-1.31h0c-.15-.08-.3-.12-.49-.12h0ZM26.19,28.77c-.57,0-1.05-.27-1.35-.78-.19-.32-.3-.77-.3-1.27,0-.8.27-1.71.76-2.55.5-.86,1.14-1.53,1.83-1.93.75-.43,1.47-.5,2.02-.17h0c.56.32.87.98.87,1.84,0,.8-.27,1.71-.76,2.55-.51.89-1.19,1.58-1.96,2-.39.2-.76.31-1.12.31Z"/>
      <path class="cls-2" d="M6.95,22.78c-.1,0-.21-.05-.27-.16-.08-.15-.04-.33.11-.42l21.95-12.68c.15-.09.34-.03.42.11.09.15.03.33-.11.42L7.11,22.74c-.05.03-.1.04-.16.04Z"/>
      <path class="cls-3" d="M2.15,19.31c.3-.44.55-.72,1.02-1.01L32.7,1.25c.39-.2.71-.31,1.13-.11l-1.26-.73c-.42-.2-.74-.09-1.13.11L1.9,17.57c-.46.29-.7.57-1.02,1.01l1.26.73Z"/>
      <path class="cls-2" d="M1.34,18.49l.72.42c.25-.33.51-.59.94-.86L32.54.98c.07-.04.14-.07.22-.11l-.35-.2c-.27-.13-.48-.07-.83.11L2.06,17.84c-.32.2-.52.39-.72.65h0ZM2.15,19.62c-.05,0-.11-.01-.16-.04l-1.25-.73c-.08-.05-.13-.12-.15-.2-.03-.08,0-.17.04-.24.31-.45.59-.77,1.1-1.09L31.29.26c.38-.2.84-.39,1.41-.12l1.28.74c.15.08.2.26.12.41-.08.14-.25.2-.41.14-.29-.14-.5-.08-.85.1L3.31,18.57c-.42.27-.64.52-.91.91-.06.09-.16.13-.25.13Z"/>
    </g>
  </g>
</svg>