<?xml version="1.0" encoding="UTF-8"?>
<svg id="Layer_2" data-name="Layer 2" xmlns="http://www.w3.org/2000/svg" viewBox="0 0 41.34 41.53" fill="currentColor">
  <defs>
    <style>
      .cls-1 {
        fill: #1a87c7;
      }

      .cls-1, .cls-2, .cls-3 {
        fill-rule: evenodd;
      }

      .cls-2 {
        fill: #bdedf8;
      }

      .cls-3 {
        fill: #66ceef;
      }
    </style>
  </defs>
  <g id="_Layer_" data-name="&amp;lt;Layer&amp;gt;">
    <g>
      <path class="cls-3" d="M38.17,4.75L31.2.72c-3.07-1.44-6.99,1.23-9.06,3.42-2.28,2.42-3.93,5.62-4.72,8.85l-.26,1.23,6.99,4.03c.68-3.2,1.65-5.84,3.64-8.5,1.97-2.62,5.69-5.84,9.17-5.36l1.2.35Z"/>
      <path class="cls-1" d="M17.53,14.06l6.42,3.71c.76-3.36,1.86-5.83,3.62-8.2,1.6-2.15,5.14-5.58,8.78-5.53l-5.29-3.06c-3.01-1.42-6.86,1.45-8.67,3.37-2.2,2.32-3.85,5.42-4.64,8.71l-.21,1h0ZM24.16,18.56c-.05,0-.11-.02-.13-.04l-7-4.04c-.13-.07-.18-.2-.16-.33l.26-1.23c.81-3.4,2.51-6.6,4.79-9,1.91-2.04,6.05-5.06,9.41-3.49l7,4.05c.16.08.21.24.13.39-.05.14-.21.22-.37.18l-1.2-.35c-3.54-.49-7.23,3.06-8.83,5.25-1.78,2.39-2.86,4.89-3.59,8.37-.03.1-.1.18-.18.22-.05.02-.08.03-.13.03Z"/>
      <path class="cls-3" d="M21.72,14.39c-1.1-.63-6.89-4.05-7.57-4.3-3.22-1.16-7.15,1.96-9.14,4.27C2.17,17.64.29,22.15.31,26.51c0,3.32,1.75,5.32,4.48,6.91l7,4.03c-3.83-2.25-4.95-4.77-4.32-9.21.71-5.17,4.22-10.96,8.86-13.4,1.42-.74,3.25-1.27,4.82-.71l.58.26Z"/>
      <path class="cls-1" d="M12.68,10.15c-2.83,0-5.89,2.62-7.44,4.41-2.91,3.38-4.64,7.85-4.64,11.94.03,2.85,1.36,4.9,4.35,6.65l3.64,2.09c-1.47-1.79-1.86-3.97-1.44-7.05.79-5.55,4.56-11.28,9.01-13.62.79-.41,2.15-.99,3.54-.99h.03c-2.07-1.21-5.21-3.03-5.69-3.2-.45-.16-.92-.23-1.36-.23h0ZM11.79,37.76c-.05,0-.11-.01-.16-.04l-7-4.03C1.44,31.81.03,29.6,0,26.51c0-4.24,1.78-8.86,4.79-12.34,2.36-2.74,6.26-5.51,9.46-4.36.55.19,3.69,2.02,6.58,3.72l1.05.61c.13.08.18.26.13.41-.08.14-.26.21-.42.14l-.58-.26c-1.73-.62-3.77.28-4.56.7-4.27,2.26-7.94,7.79-8.7,13.17-.6,4.34.52,6.75,4.19,8.91.16.09.18.27.11.42-.05.1-.16.15-.26.15Z"/>
      <path class="cls-2" d="M24.16,41.22c5.42-7.89,16.87-21.93,16.87-30.16,0-12.44-14.49-6.14-16.87,7.19-2.38-10.57-16.85-.16-16.85,12.28,0,8.22,11.42,9.06,16.85,10.68Z"/>
      <path class="cls-1" d="M19.7,14.19c-.18,0-.37.01-.58.03-4.64.52-11.53,7.59-11.53,16.31,0,6.51,7.65,8.26,13.26,9.54,1.15.26,2.25.51,3.17.78.94-1.37,2.07-2.92,3.27-4.56,5.66-7.84,13.41-18.58,13.41-25.23,0-3.89-1.41-6.15-3.98-6.38-4.45-.4-10.82,5.47-12.26,13.63-.03.14-.16.25-.31.25-.13,0-.26-.1-.29-.24-.63-2.71-2.04-4.13-4.17-4.13h0ZM24.16,41.53s-.05,0-.08-.01c-.97-.29-2.12-.56-3.35-.84-5.82-1.33-13.73-3.14-13.73-10.14,0-8.39,6.63-16.32,12.08-16.92,1.42-.16,3.85.12,5.03,3.37,1.83-7.66,7.65-12.94,12.18-12.94.16,0,.31,0,.47.02,2.91.26,4.58,2.81,4.58,7,0,6.86-7.83,17.68-13.55,25.59-1.26,1.71-2.41,3.33-3.38,4.74-.05.08-.16.13-.26.13Z"/>
    </g>
  </g>
</svg>