<?xml version="1.0" encoding="UTF-8"?>
<svg id="Layer_2" data-name="Layer 2" xmlns="http://www.w3.org/2000/svg" viewBox="0 0 37.55 40.61" fill="currentColor">
  <defs>
    <style>
      .cls-1 {
        fill: #fff;
      }

      .cls-1, .cls-2, .cls-3, .cls-4 {
        fill-rule: evenodd;
      }

      .cls-2 {
        fill: #1a87c7;
      }

      .cls-3 {
        fill: #bdedf8;
      }

      .cls-4 {
        fill: #66ceef;
      }
    </style>
  </defs>
  <g id="_Layer_" data-name="&amp;lt;Layer&amp;gt;">
    <g>
      <path class="cls-4" d="M29.93,6.29l-.16-.38c-.39-.89-.73-1.41-1.47-2.06l-.26-.2-.29-.18-.29-.16,5.4,3.11c.81.44,1.23.83,1.78,1.58.29.49.47.86.68,1.4.05.12.08.14.18.21l-5.4-3.11c-.1-.07-.13-.09-.18-.21Z"/>
      <path class="cls-2" d="M30.21,6.17s0,.04.03.05l4.48,2.59c-.08-.22-.21-.42-.34-.64-.52-.72-.92-1.07-1.68-1.47l-3.09-1.79c.16.27.29.55.45.88l.16.39h0ZM35.51,9.92c-.05,0-.11-.01-.16-.04,0-.01-.03-.02-.05-.03l-5.34-3.09c-.18-.1-.24-.17-.31-.34v-.03l-.16-.38c-.39-.9-.71-1.35-1.39-1.94l-.31-.23-.47-.28c-.13-.08-.18-.27-.1-.42.08-.15.26-.2.39-.12l.5.28,4.92,2.84c.81.45,1.28.85,1.86,1.67.31.51.5.89.73,1.47v.02l.05.03c.16.08.21.27.1.42-.05.1-.16.16-.26.16Z"/>
      <path class="cls-1" d="M32.15,12.6l-5.4-3.12c-.11-.06-.13-.08-.18-.19-.31-.73-.65-1.19-1.34-1.61l-.18-.09,5.4,3.11c.71.36,1.07.78,1.42,1.48.08.19.1.32.29.41Z"/>
      <path class="cls-2" d="M26.73,8.92c.05.08.08.17.13.25,0,0,.05.04.05.05l4.3,2.49c-.24-.3-.5-.52-.89-.72l-3.59-2.07h0ZM32.15,12.91c-.05,0-.08-.01-.13-.03-.03-.02-.05-.03-.08-.05l-5.34-3.08c-.16-.08-.21-.16-.32-.31-.29-.69-.58-1.05-1.05-1.38l-.31-.2c-.16-.08-.21-.27-.13-.41.08-.14.26-.2.42-.13l.18.09c.05.04.1.07.16.11l5.06,2.92c.71.36,1.13.8,1.55,1.61l.05.12c.03.09.03.11.05.13l.05.03c.16.08.21.27.13.41-.08.1-.18.16-.29.16Z"/>
      <path class="cls-4" d="M19.45,7.85c-.08-.41.16-.87.47-1.12,1.34-1.06,3.14-2,4.87-1.95.45.01.94.1,1.36.26l.26.11,5.4,3.12c-.18-.08-.34-.14-.52-.2-.52-.16-1.13-.21-1.7-.15-1.41.14-2.8.85-3.93,1.67l-.42.31c-.26.24-.5.7-.39,1.07l.21.77c.05.13.05.15.16.23l-5.4-3.12c-.11-.08-.11-.1-.16-.23l-.21-.77Z"/>
      <path class="cls-2" d="M19.73,7.78l.21.76,4.64,2.71-.05-.2c-.1-.51.18-1.07.52-1.38l.42-.33c.97-.71,2.44-1.58,4.09-1.73.16-.02.31-.02.45-.02l-3.98-2.26c-.37-.14-.79-.23-1.23-.24-2.04-.04-3.96,1.3-4.69,1.89-.21.18-.42.52-.37.81h0ZM25.18,12.26c-.05,0-.08-.01-.13-.04l-5.4-3.12c-.18-.13-.24-.21-.29-.37l-.24-.8h0c-.11-.58.24-1.15.58-1.44.79-.63,2.88-2.08,5.08-2.02.52.01,1.02.11,1.47.28l.26.11,5.45,3.13c.13.08.18.26.11.4-.08.15-.24.21-.39.14-.18-.07-.31-.13-.47-.18-.47-.14-1.05-.19-1.6-.14-1.49.14-2.88.96-3.77,1.61l-.39.31c-.18.16-.37.52-.31.75l.21.76c.13.09.21.31.1.45-.05.1-.16.16-.26.16Z"/>
      <path class="cls-3" d="M19.52,2.97c2.49-1.91,5.76-3.4,8.91-2.27l5.4,3.12c-1.07-.39-1.81-.45-2.96-.37-.26.03-.68.09-.92.15-2.12.46-3.9,1.58-5.55,2.9-.26.21-.47.58-.47.91v.2l.21.76c.05.13.05.15.18.23l-5.4-3.12c-.1-.08-.13-.1-.18-.23l-.21-.83c-.1-.68.52-1.1,1-1.46Z"/>
      <path class="cls-2" d="M19.05,5.17v.04l4.64,2.67-.08-.44c.03-.45.24-.9.58-1.18,1.42-1.11,3.33-2.45,5.69-2.96.29-.06.71-.13.97-.16.45-.03.81-.04,1.18-.02l-3.72-2.15c-3.17-1.12-6.45.6-8.59,2.25l-.13.1c-.47.37-.81.66-.73,1.06l.21.8h0ZM24.29,8.9c-.05,0-.11-.01-.13-.03l-5.4-3.12c-.21-.13-.24-.21-.31-.38l-.24-.86c-.1-.83.52-1.32.97-1.68l.13-.1h0c2.31-1.74,5.76-3.56,9.22-2.32l5.45,3.14c.16.08.21.25.13.4-.05.14-.24.21-.39.16-.97-.36-1.65-.44-2.83-.35-.24.02-.63.09-.89.14-2.25.49-4.09,1.78-5.42,2.84-.18.16-.34.46-.37.68l.03.15.21.72c.13.09.18.31.11.45-.08.1-.16.17-.26.17Z"/>
      <path class="cls-1" d="M31.97,12.41c-.94-2.39-3.59-2.63-6.26-.56-.29.23-.58.19-.65-.11l-.21-.77c-.05-.16-.03-.37.08-.59.08-.22.21-.4.39-.54,3.67-2.87,7.28-2.55,8.54.77.05.15.03.35-.05.57-.08.22-.21.41-.37.56l-.76.68c-.29.26-.6.26-.71-.01Z"/>
      <path class="cls-2" d="M29.17,10.13c.31,0,.63.04.94.12.97.27,1.73.97,2.15,2.04h0v.02s.08-.01.21-.12l.76-.68c.13-.11.24-.26.29-.43.05-.15.08-.27.03-.36-.47-1.25-1.31-2.07-2.41-2.39-1.6-.44-3.67.19-5.63,1.75-.13.1-.24.24-.29.41-.08.16-.11.29-.08.39l.21.77s.08.02.18-.06c1.26-.96,2.52-1.47,3.64-1.47h0ZM32.26,12.92c-.05,0-.11,0-.16-.02-.18-.05-.34-.18-.42-.39h0c-.37-.88-.94-1.45-1.76-1.67-1.13-.32-2.59.14-4.03,1.24-.24.19-.5.26-.73.18-.21-.07-.34-.23-.42-.46l-.21-.77c-.05-.23-.03-.5.1-.79.11-.27.26-.49.5-.66,2.12-1.68,4.37-2.36,6.16-1.86,1.31.36,2.31,1.32,2.86,2.76.08.23.05.49-.05.78-.08.27-.23.51-.45.69l-.76.68c-.21.18-.42.27-.63.27Z"/>
      <path class="cls-1" d="M35.32,9.41c-1.47-4.21-5.97-4.62-10.48-.95-.31.25-.63.21-.71-.09l-.21-.76c-.03-.16,0-.36.08-.58.08-.22.21-.4.39-.54,5.53-4.52,11.06-4.03,12.81,1.16.05.15.05.35-.05.56-.08.22-.18.4-.37.55l-.76.68c-.29.27-.6.26-.71-.03Z"/>
      <path class="cls-2" d="M30.74,5.65c.52,0,1,.07,1.47.2,1.6.46,2.78,1.65,3.41,3.46h0v.02s.1-.01.23-.12l.76-.68c.1-.11.21-.25.26-.42.05-.15.08-.27.05-.36-.68-2-1.96-3.32-3.69-3.81-2.46-.71-5.61.32-8.65,2.8-.13.1-.21.24-.29.41-.08.15-.08.29-.05.38l.21.76s.08.02.18-.07c2.07-1.68,4.22-2.57,6.11-2.57h0ZM35.61,9.94c-.05,0-.11,0-.16-.02-.21-.05-.37-.2-.42-.41-.55-1.61-1.6-2.67-2.99-3.07-1.99-.57-4.56.26-7.02,2.26-.26.2-.52.28-.79.2-.18-.07-.34-.23-.39-.46l-.21-.76c-.05-.23-.03-.49.08-.77.11-.27.26-.49.47-.66,3.2-2.61,6.55-3.68,9.22-2.92,1.91.56,3.35,2.01,4.09,4.21.08.23.08.49-.05.77-.08.26-.24.49-.45.67l-.76.68c-.21.18-.42.27-.63.27Z"/>
      <path class="cls-3" d="M10.93,39.59c-1.44.83-2.75.91-3.69.36h-.03s-5.37-3.11-5.37-3.11c-.31-.19-.55-.4-.79-.69-.84-1.12-.86-2.82-.63-4.15.47-2.55,2.07-5.28,4.09-6.91l.24-.18c.05-.29.08-.56.13-.85.71-4.14,3.59-8.79,7.28-10.93,1.44-.84,3.3-1.4,4.9-.7l.18.08,1.1.65c1.02-.89,2.38-1.74,3.77-1.72.34,0,.68.07,1,.2l.16.07,2.33,1.36.26-.05c.55-.09,1.13-.07,1.62.14l.18.08,5.4,3.11c1.02.51,1.68,1.71,1.68,3.47,0,3.34-2.33,7.4-5.24,9.06l-18.58,10.72Z"/>
      <path class="cls-2" d="M15.49,12.41c-1.26,0-2.46.56-3.17.98-3.46,2-6.39,6.41-7.15,10.71-.03.28-.08.55-.1.83,0,.08-.05.16-.11.21l-.24.18c-1.96,1.57-3.54,4.21-3.98,6.72-.13.77-.37,2.69.58,3.91.18.25.39.44.68.62l5.37,3.11c.89.52,2.1.39,3.41-.36h0l18.58-10.72c2.8-1.61,5.08-5.56,5.08-8.79,0-1.56-.55-2.72-1.49-3.19l-5.55-3.19c-.42-.17-.94-.21-1.47-.12l-.24.05c-.08.02-.16,0-.21-.03l-2.49-1.41c-.24-.1-.55-.16-.86-.17-1.49-.03-2.86,1.02-3.56,1.64-.11.09-.24.1-.34.03l-1.28-.71c-.47-.21-.97-.29-1.44-.29h0ZM8.6,40.61c-.55,0-1.07-.13-1.52-.39l-5.4-3.12c-.37-.21-.63-.46-.86-.77-1.07-1.42-.84-3.55-.68-4.39.47-2.65,2.12-5.43,4.19-7.09l.13-.11c.03-.25.08-.49.1-.74.79-4.47,3.85-9.05,7.44-11.14,1.07-.64,3.22-1.58,5.19-.72l.18.08.94.55c.81-.68,2.23-1.65,3.75-1.65.03,0,.03,0,.05,0,.39,0,.79.08,1.13.22l.16.07,2.25,1.31.16-.03c.66-.11,1.28-.06,1.81.15l.18.08,5.42,3.13c1.15.57,1.83,1.93,1.83,3.74,0,3.43-2.41,7.62-5.4,9.33l-18.58,10.72c-.86.5-1.73.76-2.49.76Z"/>
      <path class="cls-1" d="M10.93,39.59c-2.88,1.67-5.24.31-5.24-3.03,0-3.03,1.94-6.65,4.45-8.54.47-4.51,3.62-9.59,7.41-11.78,2.49-1.45,4.72-1.3,6.08.13.47-.43.97-.81,1.49-1.11,2.3-1.33,4.24-.74,4.95,1.23,2.62-1.19,4.66.19,4.66,3.31,0,3.34-2.33,7.4-5.24,9.06l-18.58,10.72Z"/>
      <path class="cls-2" d="M20.89,15.54c-.97,0-2.07.32-3.17.97-3.67,2.11-6.79,7.08-7.26,11.54,0,.08-.05.16-.13.21-2.46,1.85-4.32,5.42-4.32,8.3,0,1.5.5,2.61,1.36,3.12.92.51,2.1.38,3.41-.36l18.58-10.72c2.8-1.61,5.08-5.56,5.08-8.79,0-1.44-.45-2.53-1.28-3.07-.76-.49-1.81-.48-2.93.04-.08.03-.18.04-.26,0-.08-.03-.13-.1-.16-.18-.29-.79-.79-1.34-1.47-1.59-.84-.31-1.91-.12-3.04.52-.5.28-.97.64-1.44,1.07-.13.11-.31.11-.42-.02-.68-.69-1.55-1.04-2.54-1.04h0ZM8.6,40.61c-.55,0-1.07-.13-1.52-.39-1.1-.63-1.7-1.93-1.7-3.66,0-3.06,1.89-6.7,4.48-8.71.52-4.61,3.75-9.69,7.55-11.88,2.44-1.4,4.74-1.4,6.26-.03.42-.37.86-.69,1.31-.95,1.28-.74,2.54-.94,3.56-.57.76.28,1.34.85,1.7,1.66,1.23-.48,2.38-.43,3.25.13,1.02.65,1.57,1.93,1.57,3.59,0,3.43-2.41,7.62-5.4,9.33l-18.58,10.72h0c-.86.5-1.73.76-2.49.76Z"/>
      <path class="cls-2" d="M10.15,28.32c-.05,0-.11-.01-.16-.04l-5.4-3.11c-.13-.09-.18-.27-.11-.42.08-.15.29-.2.42-.11l5.4,3.12c.16.08.21.27.13.42-.08.1-.18.16-.29.16Z"/>
      <path class="cls-2" d="M23.72,16.55c-.05,0-.11-.01-.16-.04l-5.34-3.09c-.16-.09-.21-.28-.13-.42.08-.15.26-.2.42-.11l5.34,3.09c.16.09.21.27.13.42-.05.1-.16.15-.26.15Z"/>
      <path class="cls-2" d="M28.67,15.13c-.05,0-.1-.01-.13-.04l-3.07-1.77c-.16-.09-.21-.28-.13-.42.1-.15.29-.2.42-.11l3.07,1.77c.16.08.21.28.13.42-.08.1-.18.15-.29.15Z"/>
    </g>
  </g>
</svg>