<?xml version="1.0" encoding="UTF-8"?>
<svg id="Layer_2" data-name="Layer 2" xmlns="http://www.w3.org/2000/svg" viewBox="0 0 32.29 49.95" fill="currentColor">
  <defs>
    <style>
      .cls-1 {
        fill: #fff;
      }

      .cls-1, .cls-2, .cls-3, .cls-4 {
        fill-rule: evenodd;
      }

      .cls-2 {
        fill: #1a87c7;
      }

      .cls-3 {
        fill: #bdedf8;
      }

      .cls-4 {
        fill: #66ceef;
      }
    </style>
  </defs>
  <g id="_Layer_" data-name="&amp;lt;Layer&amp;gt;">
    <g>
      <path class="cls-4" d="M13.8,7.15c-.2-2.51-1.61-5.14-5.47-6.58C1.91-1.82-3.99,13.17,4.59,13.79c6.35.46,9.59-1.86,9.2-6.65Z"/>
      <path class="cls-2" d="M6.92.62c-1.52,0-2.76.97-3.44,1.65C1.15,4.6,0,8.51.93,10.99c.56,1.5,1.83,2.36,3.68,2.5,3.55.26,6.08-.36,7.54-1.81,1.05-1.07,1.5-2.58,1.35-4.51-.17-2.05-1.22-4.81-5.27-6.31-.45-.17-.89-.24-1.3-.24h0ZM6.12,14.16c-.5,0-1.01-.02-1.56-.06-2.67-.19-3.77-1.68-4.22-2.89-1-2.69.21-6.89,2.69-9.37C4.72.16,6.64-.39,8.43.28c4.37,1.63,5.49,4.62,5.68,6.84h0c.17,2.12-.35,3.8-1.53,4.99-1.35,1.36-3.52,2.05-6.46,2.05Z"/>
      <path class="cls-1" d="M9.65,31.31c1.29-1.65,1.18-1.66,1.4-3.74,2.96,3.41,9.92-.9,12.68-2.5.02.19.03.37.06.56.1.65.28,1.16.55,1.69.77,1.59,1.37,2.08,1.76,4.34.84,4.93-.73,12.29-3.11,13.18-3.26,1.22-12.29-10.45-13.31-13.46l-.03-.08Z"/>
      <path class="cls-2" d="M9.99,31.37c1,2.73,7.47,11.13,11.27,12.93.68.32,1.22.42,1.62.26,2.15-.8,3.76-7.88,2.91-12.84-.28-1.62-.66-2.31-1.16-3.17-.18-.32-.36-.67-.57-1.09-.3-.63-.48-1.16-.57-1.78,0-.04,0-.07-.02-.11l-.02.02c-2.97,1.73-9.01,5.24-12.15,2.64-.15,1.49-.23,1.76-1.31,3.13h0ZM22.47,45.25c-.43,0-.93-.13-1.48-.39-3.94-1.87-10.69-10.66-11.61-13.37l-.03-.08c-.03-.1-.02-.21.05-.3,1.13-1.43,1.13-1.5,1.29-3.07l.05-.5c.02-.12.09-.22.22-.27.11-.04.24,0,.32.09,2.64,3.05,8.87-.57,11.86-2.3l.43-.26c.1-.05.21-.05.3,0,.1.04.16.14.16.25.02.17.03.35.06.53.09.57.24,1.04.51,1.61.2.41.39.74.57,1.05.52.92.93,1.64,1.22,3.37.84,4.94-.64,12.53-3.3,13.52-.19.07-.4.1-.63.1Z"/>
      <path class="cls-2" d="M22.13,45.08h0c-.17,0-.31-.14-.31-.31,0-.84-.11-1.29-.36-2.3-.12-.49-.28-1.1-.45-1.92-.04-.16.05-.31.21-.36.15-.05.31.03.37.18,1.01,2.43,1.61,3.26,2.02,3.7.11.13.11.32-.02.43-.12.12-.31.11-.44,0-.23-.25-.52-.62-.89-1.25.1.5.16.93.16,1.53,0,.17-.14.31-.31.31Z"/>
      <path class="cls-3" d="M28.53,28.05c.01-.47-3.49-.89-4.19-.92-.06.13-.12.25-.19.37l-.3.53c.45,3.9,2.21,8.71.74,12.61-.72,1.94-1.51,3.41-1.96,3.6-.48.19-1.2-.21-2.08-.71-4.55-2.58-7.38-7.62-10.89-12.19-.13-.17-4.44,4.14-4.11,4.39,3.57,3.48,6.3,8.21,7.76,13.66h0c9.69-1.58,17.21-9.21,17.12-9.12-1.23-3.51-1.9-7.38-1.9-11.45,0-.25,0-.51,0-.77Z"/>
      <path class="cls-2" d="M28.53,28.05h.01-.01ZM5.73,35.49s.04.03.04.04c0,0-.03-.02-.04-.04h0ZM5.88,35.64c3.56,3.52,6.2,8.15,7.66,13.4,8.51-1.5,15.32-7.7,16.53-8.86-1.22-3.6-1.85-7.42-1.85-11.36v-.69c-.43-.27-2.66-.61-3.69-.69-.03.07-.07.13-.1.2l-.24.44c.12,1.01.32,2.08.55,3.21.62,3.21,1.26,6.53.16,9.45-.38,1.03-1.36,3.45-2.14,3.77-.62.25-1.42-.2-2.35-.73-3.56-2.02-6.03-5.47-8.66-9.11-.69-.97-1.42-1.97-2.16-2.94-.76.61-3.3,3.21-3.69,3.89h0ZM13.3,49.7c-.15,0-.28-.1-.3-.25,0-.02,0-.04,0-.06-1.44-5.3-4.09-9.95-7.66-13.43-.09-.07-.14-.21-.1-.36.16-.71,3.88-4.45,4.35-4.56.11-.03.26.03.33.12.81,1.04,1.58,2.12,2.34,3.17,2.58,3.58,5.01,6.97,8.46,8.93.72.41,1.47.83,1.81.69.25-.11.97-1.23,1.8-3.42,1.04-2.76.42-6-.19-9.13-.23-1.17-.44-2.29-.57-3.35,0-.07.01-.13.04-.19l.29-.52c.06-.11.13-.23.19-.36.05-.1.17-.18.29-.17.04,0,4.49.28,4.47,1.23h0v.77c0,3.94.63,7.75,1.89,11.34.04.12.01.24-.09.33-.83.82-8.12,7.7-17.29,9.2-.01,0-.03,0-.04,0Z"/>
      <path class="cls-1" d="M31.98,37.54v-4.55c0-2.4-1.52-4.03-3.45-4.95,0,.26,0,.52,0,.77,0,4.07.68,7.94,1.9,11.45.99-1.09,1.55-2.05,1.55-2.73Z"/>
      <path class="cls-2" d="M28.83,28.55v.27c0,3.76.57,7.4,1.71,10.84.73-.88,1.12-1.62,1.12-2.12h0v-4.55c0-2.41-1.62-3.77-2.84-4.44h0ZM30.42,40.58s-.04,0-.06-.01c-.1-.02-.19-.09-.22-.2-1.28-3.65-1.92-7.53-1.92-11.54v-.78c0-.11.06-.2.15-.25.09-.06.2-.06.3-.02,2.35,1.1,3.63,2.96,3.63,5.23v4.55c-.01.75-.56,1.74-1.63,2.93-.06.07-.15.11-.23.11Z"/>
      <path class="cls-1" d="M5.55,35.73l-.03.03c-3.47,3.9-2.9,5.34-2.9,9.81,0,1.36.17,1.73,1.66,2.59,2.62,1.51,5.79,1.76,9.02,1.23-1.46-5.44-4.19-10.17-7.76-13.66Z"/>
      <path class="cls-2" d="M5.56,36.18c-2.73,3.14-2.69,4.6-2.64,7.73,0,.51.02,1.06.02,1.66,0,1.25.1,1.51,1.51,2.32,2.29,1.32,5.14,1.74,8.48,1.24-1.43-5.09-3.97-9.54-7.37-12.95h0ZM10.32,49.95c-2.36,0-4.42-.51-6.19-1.53-1.52-.88-1.81-1.33-1.81-2.85,0-.6,0-1.14-.03-1.64-.06-3.27-.09-4.9,2.99-8.37.06-.07.15-.11.24-.12.08,0,.17.02.23.08,3.68,3.58,6.39,8.35,7.85,13.79.03.09,0,.17-.03.24-.05.08-.12.13-.21.14-1.06.17-2.08.26-3.04.26Z"/>
      <path class="cls-1" d="M22.07,30.56c1.04-1.3,1.77-2.38,2.41-3.71l-.04.09c.96-2.07,1.49-3.96,1.89-6.17.28-1.64.44-3.11.39-4.77,0-.16,0-.34-.02-.53-.17-1.46-1.99-.76-3.95,0-2.3.89-4.75,1.83-5.74.03l-.02.03c-.99,1.56-7.76-.11-8.14,3.48-.23,2.29-.02,6.83,1.29,8.18,1.43,1.65,5.06,4.78,7.93,5.07,2.37.24,2.58.1,4.01-1.68Z"/>
      <path class="cls-2" d="M22.07,30.56h.01-.01ZM16.96,15.98c-.62.47-1.75.57-3.03.69-2.14.2-4.57.42-4.77,2.35-.27,2.53.06,6.76,1.2,7.94,1.29,1.51,4.88,4.69,7.73,4.98,2.3.22,2.4.1,3.73-1.56,1.07-1.34,1.76-2.37,2.33-3.57h0c.89-1.9,1.44-3.72,1.86-6.09.31-1.76.42-3.17.39-4.71-.01-.16-.02-.33-.03-.52-.04-.3-.16-.41-.24-.47-.53-.32-1.99.24-3.28.74-2.2.84-4.67,1.81-5.9.23h0ZM19.38,32.63c-.37,0-.8-.04-1.34-.09-3.04-.3-6.8-3.62-8.14-5.17-1.42-1.47-1.58-6.2-1.36-8.41.26-2.44,3.08-2.69,5.34-2.9,1.25-.11,2.55-.23,2.85-.71.05-.09.17-.16.27-.16h.01c.1.01.21.05.27.15.85,1.57,3.15.69,5.35-.17,1.62-.63,3.03-1.17,3.83-.69.3.18.49.5.54.94.01.22.02.39.02.56.05,1.58-.07,3.03-.39,4.84-.43,2.37-.98,4.22-1.86,6.13,0,0-.01.03-.01.03h0c-.61,1.27-1.32,2.35-2.44,3.76h0c-1.16,1.43-1.57,1.88-2.94,1.88Z"/>
      <path class="cls-4" d="M6.27,14.38c-.45,4.82,1.24,11.55,4.24,13.45.08-.2.34-1.02.19-1.28-.35-.66-.74-1.84-.91-2.62-.84-3.69,3.23-4.34,4.01,1.11.66-2.3.6-3.37.59-4.46-.02-1.15-.06-1.79.89-2.6,4.47-3.76,12.83,1.59,12.27-7.34-.44-7.19-8.99-8.33-14.96-5.48-3.77,1.81-5.94,5.11-6.32,9.21Z"/>
      <path class="cls-2" d="M6.57,14.41c-.42,4.53,1.09,10.82,3.77,12.92.07-.28.12-.56.09-.64-.36-.69-.77-1.9-.95-2.68-.29-1.24-.07-2.29.59-2.87.45-.39,1.06-.5,1.66-.27.92.34,1.66,1.36,2.09,2.81.29-1.32.27-2.13.25-2.92v-.28c-.02-1.08-.03-1.86,1-2.73,1.82-1.52,4.24-1.61,6.39-1.7,1.96-.08,3.83-.15,4.86-1.29.74-.82,1.03-2.16.92-4.1-.15-2.39-1.26-4.25-3.21-5.4-2.94-1.73-7.49-1.66-11.32.18-3.58,1.72-5.76,4.9-6.15,8.97h0ZM10.51,28.14c-.06,0-.11-.02-.17-.05-3.15-1.99-4.84-8.83-4.38-13.73h0c.4-4.29,2.7-7.65,6.49-9.47,4-1.92,8.78-1.98,11.89-.16,2.13,1.25,3.35,3.29,3.5,5.9.13,2.11-.22,3.6-1.08,4.54-1.21,1.33-3.19,1.41-5.28,1.5-2.15.08-4.37.17-6.02,1.56-.81.68-.8,1.2-.78,2.24v.28c.02,1.06.04,2.15-.6,4.37-.04.14-.18.24-.32.23-.14,0-.26-.12-.28-.26-.32-2.27-1.23-3.36-1.97-3.64-.38-.14-.76-.09-1.04.17-.48.42-.63,1.26-.4,2.27.17.74.55,1.89.9,2.53.24.44-.16,1.49-.18,1.54-.04.09-.11.15-.19.18-.03,0-.06.02-.1.02Z"/>
      <path class="cls-3" d="M28.03,15.85c-1.77,3.07-9.02,7.04-17.59,5.68l-3.87-.62c-1.19.04-1.4-5.14-.3-4.83l3.48.65c7.88,1.49,15.86-2.92,17.8-6.09.57-.21.69,4.93.48,5.21Z"/>
      <path class="cls-2" d="M6.56,20.61l3.93.62c8.31,1.32,15.48-2.42,17.27-5.52.13-.44.06-3.51-.2-4.53-2.45,3.36-10.42,7.26-17.87,5.86l-3.47-.65c-.28.08-.52,1.55-.23,3.02.17.88.42,1.22.57,1.2h0ZM13.91,22.11c-1.15,0-2.32-.09-3.52-.28l-3.87-.62c-.18.02-.54-.1-.82-.68-.55-1.13-.66-3.76-.03-4.52.18-.22.43-.3.69-.24l3.45.64c8.03,1.52,15.76-3.14,17.48-5.96.03-.06.09-.1.16-.13.14-.05.35-.03.5.18.48.64.65,4.93.36,5.49h0c-1.61,2.79-7.35,6.1-14.39,6.1Z"/>
      <path class="cls-2" d="M10.32,49.95h-.05c-.16-.03-.28-.18-.26-.35.05-.34.08-.69.11-1.16.04-.51.1-1.12.18-1.96.02-.17.17-.28.34-.28.17.02.3.18.28.34-.09.83-.14,1.45-.18,1.95-.04.48-.07.85-.12,1.2-.02.15-.15.26-.3.26Z"/>
    </g>
  </g>
</svg>