<?xml version="1.0" encoding="UTF-8"?>
<svg id="Layer_2" data-name="Layer 2" xmlns="http://www.w3.org/2000/svg" viewBox="0 0 28.03 40.98" fill="currentColor">
  <defs>
    <style>
      .cls-1 {
        fill: #fff;
      }

      .cls-1, .cls-2, .cls-3, .cls-4 {
        fill-rule: evenodd;
      }

      .cls-2 {
        fill: #1a87c7;
      }

      .cls-3 {
        fill: #bdedf8;
      }

      .cls-4 {
        fill: #66ceef;
      }
    </style>
  </defs>
  <g id="_Layer_" data-name="&amp;lt;Layer&amp;gt;">
    <g>
      <polygon class="cls-3" points="27.72 25.14 22.9 22.35 .31 35.38 5.14 38.17 27.72 25.14"/>
      <path class="cls-2" d="M.94,35.38l4.19,2.43,21.98-12.67-4.22-2.43L.94,35.38h0ZM5.14,38.48c-.05,0-.08-.01-.13-.04L.16,35.65c-.08-.06-.16-.16-.16-.27s.08-.21.16-.27l22.58-13.03c.11-.06.21-.06.31,0l4.82,2.79c.11.06.16.15.16.27s-.05.21-.16.27l-22.58,13.03s-.08.04-.16.04Z"/>
      <polygon class="cls-4" points="5.14 38.17 .31 35.38 .31 37.88 5.14 40.67 5.14 38.17"/>
      <path class="cls-2" d="M.63,37.71l4.22,2.43v-1.79l-4.22-2.43v1.79h0ZM5.14,40.98c-.05,0-.08-.02-.13-.04L.16,38.15c-.11-.06-.16-.16-.16-.27v-2.5c0-.11.08-.21.16-.27.11-.05.21-.06.31,0l4.82,2.79c.1.06.16.16.16.27v2.5c0,.11-.05.21-.16.27-.05.03-.1.04-.16.04Z"/>
      <polygon class="cls-1" points="27.72 25.14 5.14 38.17 5.14 40.67 27.72 27.64 27.72 25.14"/>
      <path class="cls-2" d="M5.45,38.35v1.78l21.95-12.67v-1.79l-21.95,12.68h0ZM5.14,40.98c-.05,0-.08-.02-.13-.04-.11-.05-.16-.16-.16-.27v-2.5c0-.11.05-.21.16-.27l22.56-13.03c.11-.05.24-.05.31,0,.11.06.16.15.16.27v2.5c0,.11-.05.21-.16.27l-22.58,13.03c-.05.03-.1.04-.16.04Z"/>
      <polygon class="cls-3" points="27.72 20.83 22.9 18.04 .31 31.07 5.14 33.86 27.72 20.83"/>
      <path class="cls-2" d="M.94,31.07l4.19,2.43,21.98-12.67-4.22-2.43L.94,31.07h0ZM5.14,34.17c-.05,0-.08-.02-.13-.04L.16,31.34c-.08-.06-.16-.16-.16-.26,0-.11.08-.21.16-.27l22.58-13.03c.11-.06.21-.06.31,0l4.82,2.79c.11.05.16.16.16.27s-.05.21-.16.27l-22.58,13.03s-.08.04-.16.04Z"/>
      <polygon class="cls-4" points="5.14 33.86 .31 31.07 .31 33.57 5.14 36.36 5.14 33.86"/>
      <path class="cls-2" d="M.63,33.39l4.22,2.43v-1.79l-4.22-2.43v1.79h0ZM5.14,36.67c-.05,0-.08-.01-.13-.04L.16,33.84c-.11-.05-.16-.16-.16-.27v-2.5c0-.11.08-.21.16-.27.11-.05.21-.05.31,0l4.82,2.79c.1.05.16.15.16.26v2.5c0,.11-.05.21-.16.27-.05.03-.1.04-.16.04Z"/>
      <polygon class="cls-1" points="27.72 20.83 5.14 33.86 5.14 36.36 27.72 23.33 27.72 20.83"/>
      <path class="cls-2" d="M5.45,34.04v1.79l21.95-12.67v-1.79l-21.95,12.67h0ZM5.14,36.67c-.05,0-.08-.01-.13-.04-.11-.05-.16-.16-.16-.27v-2.5c0-.11.05-.21.16-.27l22.56-13.03c.11-.06.24-.06.31,0,.11.05.16.16.16.27v2.5c0,.11-.05.21-.16.26l-22.58,13.03c-.05.03-.1.04-.16.04Z"/>
      <polygon class="cls-3" points="27.72 16.52 22.9 13.73 .31 26.76 5.14 29.55 27.72 16.52"/>
      <path class="cls-2" d="M.94,26.76l4.19,2.43,21.98-12.67-4.22-2.43L.94,26.76h0ZM5.14,29.86c-.05,0-.08-.02-.13-.04L.16,27.02c-.08-.06-.16-.16-.16-.27s.08-.21.16-.27l22.58-13.03c.11-.05.21-.05.31,0l4.82,2.79c.11.05.16.15.16.27s-.05.21-.16.27L5.29,29.81s-.08.04-.16.04Z"/>
      <polygon class="cls-4" points="5.14 29.55 .31 26.76 .31 29.26 5.14 32.04 5.14 29.55"/>
      <path class="cls-2" d="M.63,29.08l4.22,2.43v-1.79l-4.22-2.43v1.79h0ZM5.14,32.35c-.05,0-.08-.02-.13-.04L.16,29.52c-.11-.06-.16-.16-.16-.27v-2.5c0-.11.08-.21.16-.27.11-.05.21-.05.31,0l4.82,2.79c.1.06.16.16.16.27v2.5c0,.11-.05.21-.16.27-.05.03-.1.04-.16.04Z"/>
      <polygon class="cls-1" points="27.72 16.52 5.14 29.55 5.14 32.04 27.72 19.01 27.72 16.52"/>
      <path class="cls-2" d="M5.45,29.73v1.79l21.95-12.68v-1.79L5.45,29.73h0ZM5.14,32.35c-.05,0-.08-.02-.13-.04-.11-.06-.16-.16-.16-.27v-2.5c0-.11.05-.21.16-.27l22.56-13.03c.11-.06.24-.06.31,0,.11.05.16.16.16.27v2.5c0,.11-.05.21-.16.27l-22.58,13.03c-.05.03-.1.04-.16.04Z"/>
      <polygon class="cls-3" points="27.72 11.72 22.9 8.93 12.42 14.98 17.24 17.77 27.72 11.72"/>
      <path class="cls-2" d="M13.02,14.98l4.22,2.43,9.88-5.69-4.22-2.43-9.88,5.69h0ZM17.24,18.08c-.05,0-.11-.02-.16-.04l-4.82-2.79c-.11-.05-.16-.16-.16-.27s.05-.21.16-.27l10.48-6.04c.11-.06.21-.06.31,0l4.82,2.79c.11.06.16.16.16.27s-.05.21-.16.27l-10.48,6.05c-.05.03-.1.04-.16.04Z"/>
      <polygon class="cls-4" points="17.24 17.77 12.42 14.98 12.42 17.48 17.24 20.27 17.24 17.77"/>
      <path class="cls-2" d="M12.71,17.3l4.22,2.43v-1.79l-4.19-2.43-.03,1.79h0ZM17.24,20.58c-.05,0-.11-.01-.16-.04l-4.82-2.79c-.11-.05-.16-.16-.16-.27v-2.5c0-.11.08-.21.16-.27.08-.05.21-.05.31,0l4.82,2.79c.11.05.16.16.16.26v2.5c0,.11-.05.21-.16.27-.05.03-.1.04-.16.04Z"/>
      <polygon class="cls-1" points="27.72 11.72 17.24 17.77 17.24 20.27 27.72 14.22 27.72 11.72"/>
      <path class="cls-2" d="M17.55,17.95v1.79l9.85-5.69v-1.78l-9.85,5.69h0ZM17.24,20.58c-.05,0-.11-.01-.16-.04-.08-.06-.16-.16-.16-.27v-2.5c0-.11.08-.21.16-.27l10.48-6.05c.11-.05.24-.06.31,0,.11.06.16.16.16.27v2.5c0,.11-.05.21-.16.26l-10.48,6.05c-.05.03-.1.04-.16.04Z"/>
      <polygon class="cls-3" points="27.72 7.41 22.9 4.62 12.42 10.67 17.24 13.46 27.72 7.41"/>
      <path class="cls-2" d="M13.02,10.67l4.22,2.43,9.88-5.69-4.22-2.43-9.88,5.69h0ZM17.24,13.76c-.05,0-.11-.01-.16-.04l-4.82-2.79c-.11-.06-.16-.16-.16-.27s.05-.21.16-.27l10.48-6.05c.11-.06.21-.06.31,0l4.82,2.79c.11.05.16.16.16.26s-.05.21-.16.27l-10.48,6.05c-.05.03-.1.04-.16.04Z"/>
      <polygon class="cls-4" points="17.24 13.46 12.42 10.67 12.42 13.17 17.24 15.95 17.24 13.46"/>
      <path class="cls-2" d="M12.71,12.99l4.22,2.43v-1.79l-4.19-2.43-.03,1.79h0ZM17.24,16.26c-.05,0-.11-.02-.16-.04l-4.82-2.79c-.11-.05-.16-.16-.16-.27v-2.5c0-.11.08-.21.16-.27.08-.05.21-.05.31,0l4.82,2.79c.11.06.16.16.16.27v2.5c0,.11-.05.21-.16.27-.05.03-.1.04-.16.04Z"/>
      <polygon class="cls-1" points="27.72 7.41 17.24 13.46 17.24 15.95 27.72 9.91 27.72 7.41"/>
      <path class="cls-2" d="M17.55,13.64v1.79l9.85-5.69v-1.79l-9.85,5.69h0ZM17.24,16.26c-.05,0-.11-.02-.16-.04-.08-.06-.16-.16-.16-.27v-2.5c0-.11.08-.21.16-.27l10.48-6.05c.11-.05.24-.05.31,0,.11.05.16.16.16.27v2.5c0,.11-.05.21-.16.27l-10.48,6.05c-.05.03-.1.04-.16.04Z"/>
      <polygon class="cls-3" points="27.72 3.1 22.9 .31 12.42 6.35 17.24 9.14 27.72 3.1"/>
      <path class="cls-2" d="M13.02,6.35l4.22,2.43,9.88-5.69-4.22-2.43-9.88,5.69h0ZM17.24,9.45c-.05,0-.11-.02-.16-.04l-4.82-2.79c-.11-.06-.16-.16-.16-.27s.05-.21.16-.27L22.74.04c.11-.05.21-.05.31,0l4.82,2.79c.11.06.16.16.16.27s-.05.21-.16.27l-10.48,6.05c-.05.03-.1.04-.16.04Z"/>
      <polygon class="cls-4" points="17.24 9.14 12.42 6.35 12.42 8.85 17.24 11.64 17.24 9.14"/>
      <path class="cls-2" d="M12.71,8.68l4.22,2.43v-1.79l-4.19-2.43-.03,1.79h0ZM17.24,11.95c-.05,0-.11-.02-.16-.04l-4.82-2.79c-.11-.05-.16-.16-.16-.27v-2.5c0-.11.08-.21.16-.26.08-.06.21-.06.31,0l4.82,2.79c.11.05.16.16.16.27v2.5c0,.11-.05.21-.16.27-.05.03-.1.04-.16.04Z"/>
      <polygon class="cls-1" points="27.72 3.1 17.24 9.14 17.24 11.64 27.72 5.59 27.72 3.1"/>
      <path class="cls-2" d="M17.55,9.32v1.79l9.85-5.69v-1.79l-9.85,5.69h0ZM17.24,11.95c-.05,0-.11-.02-.16-.04-.08-.06-.16-.16-.16-.27v-2.5c0-.11.08-.21.16-.27l10.48-6.05c.11-.05.24-.05.31,0,.11.06.16.16.16.27v2.5c0,.11-.05.21-.16.27l-10.48,6.05c-.05.03-.1.04-.16.04Z"/>
      <path class="cls-4" d="M11.29,12.48l-4.74-2.75c-.1-.03-.13-.01-.21.03l-1.41.81c-.16.11-.24.23-.29.41L.71,24.37c-.03.13-.05.25.08.35l4.74,2.75c-.13-.12-.05-.38,0-.53l2.23-7.58.42.24.21.6c.03.05.03.06.08.09l4.77,2.75c-.05-.03-.05-.04-.08-.09l-.97-2.58-1.68-.96,1.07-.61-.92-2.27c-.11-.27-.18-.54-.26-.82l-1.36-.78.37-1.2c.05-.18.13-.3.29-.41l1.39-.81c.11-.04.13-.05.21-.02Z"/>
      <path class="cls-2" d="M1,24.49l4.22,2.43v-.05l2.23-7.6c.03-.09.1-.16.18-.2.1-.03.18-.03.29.02l.42.24c.05.04.1.09.13.16l.21.55,3.9,2.27-.65-1.73-1.55-.9c-.1-.06-.16-.16-.16-.27s.05-.21.16-.27l.81-.48-.79-2.02c-.11-.24-.18-.48-.26-.73l-1.26-.72c-.11-.07-.16-.22-.13-.35l.34-1.2c.08-.26.21-.43.42-.57l1.1-.63-4.14-2.4-1.39.8c-.08.05-.13.11-.16.23L1,24.46v.03h0ZM5.55,27.79c-.05,0-.1-.02-.18-.05l-4.74-2.75c-.31-.25-.26-.55-.23-.68l3.96-13.42c.08-.26.21-.44.42-.58l1.42-.82c.13-.07.26-.12.47-.05l4.79,2.78c.16.08.21.25.13.39-.05.14-.24.22-.37.17l.08-.29-.08.29-1.36.81c-.08.05-.13.11-.16.23l-.29.97,1.15.65c.05.04.11.1.13.18.08.27.16.53.26.8l.92,2.27c.05.14,0,.3-.13.38l-.6.34,1.21.69c.05.04.1.09.13.16l.97,2.58c.13.09.16.25.08.39-.1.14-.29.16-.45.08l-4.77-2.75c-.11-.08-.16-.13-.18-.22l-.18-.49-2.12,7.18c-.03.08-.05.21-.05.25.13.1.13.26.05.39-.05.08-.16.12-.26.12Z"/>
      <path class="cls-3" d="M11.58,18.8l-2.41,1.39c.42-1.49.84-2.99,1.23-4.48.08.28.16.55.26.82l.03.02.89,2.26h0ZM15.09,21.56l-3.69-9c-.05-.11-.18-.14-.31-.07l-1.39.81c-.13.08-.26.24-.29.41l-3.93,13.4c-.08.22,0,.38.16.36.05,0,.08-.02.13-.04h0l1.44-.84c.13-.08.26-.25.31-.42l1.02-3.73,3.64-2.1.97,2.58c.05.12.16.14.29.07l1.36-.79c.16-.1.31-.34.31-.54,0-.05-.03-.09-.03-.13h0Z"/>
      <path class="cls-2" d="M10.43,16.76c-.18.77-.42,1.55-.63,2.32l-.13.46,1.52-.88-.76-1.9h0ZM9.17,20.49c-.05,0-.13-.02-.18-.07-.1-.08-.13-.2-.1-.32l.31-1.18c.31-1.1.63-2.2.89-3.29.05-.13.16-.23.31-.23.16,0,.24.09.29.22.08.27.16.54.26.8l.92,2.27c.05.14,0,.3-.13.38l-2.41,1.39c-.05.03-.11.04-.16.04h0ZM11.16,12.82l3.64,8.86h0c0,.1-.08.24-.16.28l-1.26.73-.92-2.44c-.03-.08-.1-.15-.18-.18-.08-.03-.18-.02-.26.02l-3.64,2.1c-.05.04-.11.11-.13.19l-1.05,3.74c-.03.1-.1.19-.16.22l-1.23.72,3.88-13.27c.03-.1.11-.19.16-.22l1.31-.76h0ZM5.61,27.8c-.13,0-.26-.06-.34-.17-.13-.15-.16-.36-.1-.6l3.93-13.41c.08-.24.24-.47.45-.58l1.41-.81c.13-.09.29-.11.45-.06.13.04.21.14.26.27l3.72,8.99c.03.08.05.16.05.25,0,.3-.21.65-.47.8l-1.36.78c-.16.09-.31.11-.45.06-.13-.05-.24-.15-.29-.28l-.84-2.24-3.22,1.86-1,3.61c-.05.24-.24.49-.45.6l-1.44.84c-.08.04-.16.07-.26.08,0,0-.03,0-.05,0Z"/>
    </g>
  </g>
</svg>