<?xml version="1.0" encoding="UTF-8"?>
<svg id="Layer_2" data-name="Layer 2" xmlns="http://www.w3.org/2000/svg" viewBox="0 0 12.18 42.52" fill="currentColor">
  <defs>
    <style>
      .cls-1 {
        fill: #fff;
      }

      .cls-1, .cls-2, .cls-3, .cls-4 {
        fill-rule: evenodd;
      }

      .cls-2 {
        fill: #1a87c7;
      }

      .cls-3 {
        fill: #bdedf8;
      }

      .cls-4 {
        fill: #66ceef;
      }
    </style>
  </defs>
  <g id="_Layer_" data-name="&amp;lt;Layer&amp;gt;">
    <g>
      <polygon class="cls-3" points="11.89 27.93 10.82 27.31 .31 33.37 1.39 33.99 11.89 27.93"/>
      <path class="cls-2" d="M.92,33.37l.47.27,9.88-5.71-.45-.26L.92,33.37h0ZM1.39,34.3c-.05,0-.1-.02-.16-.04l-1.07-.62c-.11-.05-.16-.16-.16-.27,0-.11.05-.21.16-.26l10.51-6.07c.08-.05.21-.05.29,0l1.1.62c.08.05.13.16.13.27s-.05.21-.13.26l-10.51,6.07c-.05.03-.1.04-.16.04Z"/>
      <path class="cls-4" d="M1.39,33.99l-1.07-.62v7.2c0,.39.08.69.42.92l1.07.62c-.34-.23-.39-.53-.42-.92v-7.2Z"/>
      <path class="cls-2" d="M.63,33.91v6.67c0,.38.08.53.29.67l.16.1v-7.18l-.45-.26h0ZM1.81,42.43c-.05,0-.1-.02-.16-.04l-1.07-.62c-.5-.35-.55-.79-.58-1.18v-7.22c0-.11.05-.21.16-.26.08-.06.21-.06.31,0l1.07.62c.08.05.16.16.16.26v7.2c0,.37.05.53.26.67.16.09.18.28.11.42-.08.1-.16.15-.26.15Z"/>
      <polygon class="cls-3" points="9.72 35.92 8.65 35.31 2.46 38.87 3.54 39.49 9.72 35.92"/>
      <path class="cls-2" d="M3.09,38.87l.45.26,5.55-3.21-.45-.26-5.55,3.21h0ZM3.54,39.8c-.05,0-.1-.02-.13-.04l-1.1-.62c-.08-.05-.13-.16-.13-.27,0-.1.05-.21.13-.26l6.18-3.57c.1-.05.23-.05.31,0l1.07.62c.1.06.16.16.16.27s-.05.21-.16.27l-6.18,3.56c-.05.03-.11.04-.16.04Z"/>
      <path class="cls-3" d="M3.54,39.49l-1.07-.62c-.08.04-.11.06-.21.03l1.07.62c.11.04.13.02.21-.02Z"/>
      <path class="cls-2" d="M3.43,39.84c-.08,0-.13,0-.21-.03l-1.13-.64c-.13-.08-.18-.25-.1-.4.05-.14.24-.21.39-.15.08-.04.16-.05.24,0l1.07.62c.1.05.16.17.16.28s-.08.22-.18.27c-.05.03-.13.06-.24.06Z"/>
      <path class="cls-4" d="M9.93,31.26l-1.07-.62c.08.06.08.11.11.19v3.96c-.03.23-.13.39-.31.52l1.07.62c.18-.13.29-.29.29-.51v-3.96c0-.09,0-.13-.08-.19Z"/>
      <path class="cls-2" d="M9.12,35.23l.55.31s.03-.09.05-.15v-3.9l-.47-.27v3.56c0,.17-.05.31-.13.44h0ZM9.72,36.23c-.05,0-.11,0-.16-.03l-1.07-.63c-.08-.05-.13-.15-.16-.25,0-.1.05-.2.16-.26.1-.08.16-.15.16-.28v-3.94c-.13-.09-.13-.25-.05-.39.11-.13.29-.15.42-.06l1.07.62s.03.02.05.03c.16.14.18.29.18.4v3.99c-.03.34-.16.59-.42.77-.05.03-.13.05-.18.05Z"/>
      <path class="cls-3" d="M9.72,35.92l-6.18,3.57c-.16.09-.29.02-.29-.17v-3.96c0-.18.13-.42.29-.51l6.18-3.56c.16-.1.29-.02.29.16v3.96c0,.18-.13.42-.29.51h0ZM11.89,27.93l-10.51,6.07v7.2c0,.45.16.77.42.92.26.16.6.13,1-.09l7.65-4.41c.79-.46,1.44-1.58,1.44-2.49v-7.2Z"/>
      <path class="cls-2" d="M9.72,31.64l-6.03,3.48c-.08.03-.16.16-.16.24v3.77l6.03-3.48h0c.08-.03.16-.17.16-.24v-3.77h0ZM3.41,39.85c-.08,0-.16-.03-.24-.07-.13-.09-.24-.25-.24-.45v-3.96c0-.29.21-.63.47-.78l6.16-3.56c.18-.11.37-.11.52-.02.16.09.24.25.24.45v3.96c0,.3-.18.64-.45.78l-6.18,3.56c-.11.05-.18.09-.29.09h0ZM1.7,34.17l9.88-5.71v6.67c0,.8-.6,1.82-1.28,2.22l-7.62,4.41c-.29.17-.55.2-.71.11-.18-.11-.26-.34-.26-.66v-7.02h0ZM2.17,42.52c-.18,0-.37-.05-.52-.14-.37-.21-.58-.64-.58-1.19v-7.2c0-.11.05-.22.16-.27l10.51-6.07c.08-.05.21-.05.31,0,.08.05.13.16.13.27v7.2c0,1.02-.68,2.23-1.57,2.75l-7.65,4.42c-.26.15-.52.23-.79.23Z"/>
      <path class="cls-4" d="M9.27.49l-3.35,1.94-.55.63c1.1.86,1.15.59-.39,2.38,1.1.85,1.18.6-.37,2.38,1.07.83,1.21.55-.39,2.37,1.07.84,1.2.55-.39,2.38,1.1.84,1.23.55-.37,2.37,1.07.84,1.2.56-.37,2.38,1.05.83,1.18.55-.39,2.38,1.07.83,1.21.55-.39,2.37,1.1.84,1.23.55-.37,2.38,1.07.84,1.2.55-.39,2.37,1.07.83,1.2.55-.37,2.38,1.07.83,1.21.55-.39,2.37.5.38,1.18.63.58,1.29l.86.5,9.33-5.4V1.53c0-1.02-1.44-1.51-2.28-1.04Z"/>
      <path class="cls-2" d="M1.81,32.77l.42.24,9.01-5.22V1.53c0-.38-.29-.6-.45-.7-.42-.24-1-.28-1.39-.07l-3.3,1.91-.29.34.03.02c.37.28.6.45.63.77.05.36-.21.66-.92,1.46l-.13.14h.03c.37.28.6.47.66.77.03.37-.24.66-.92,1.46l-.13.14s.03.03.05.04c.34.24.58.42.6.72.05.37-.21.67-1,1.55l-.05.07s.05.02.08.04c.31.24.55.42.58.71.05.37-.21.67-.97,1.56l-.05.06s.03.03.05.05c.34.24.58.42.6.72.05.37-.21.67-1,1.56l-.05.06s.05.03.05.04c.34.24.58.42.63.72.03.36-.24.66-1,1.55l-.05.07s.03.03.05.03c.31.24.58.43.6.72.05.37-.21.67-1,1.55l-.05.06s.05.03.08.04c.31.24.55.42.58.72.05.36-.21.67-.97,1.54l-.05.07s.03.03.05.04c.34.24.58.42.6.71.05.37-.21.67-1,1.55l-.05.06s.03.04.05.04c.34.24.58.42.6.72.05.36-.21.67-.97,1.55l-.08.07s.05.03.08.04c.31.24.58.42.6.72.03.36-.21.66-1,1.55l-.05.07s.03.03.05.04c.34.24.58.42.6.71.05.37-.21.67-.97,1.56l-.05.05c.29.2.6.43.63.79.03.15,0,.3-.08.44h0ZM2.23,33.67c-.05,0-.11-.02-.16-.04l-.86-.5c-.08-.04-.13-.12-.13-.22-.03-.09,0-.18.05-.25.13-.13.16-.23.16-.27,0-.09-.24-.25-.39-.36-.1-.06-.21-.13-.29-.19-.08-.06-.11-.13-.13-.22,0-.09.03-.16.08-.24l.29-.31c.45-.51.81-.96.84-1.08-.03-.04-.21-.18-.37-.29-.08-.08-.21-.16-.31-.25-.08-.05-.13-.13-.13-.21,0-.09.03-.17.08-.23l.26-.31c.45-.51.84-.95.84-1.08,0-.04-.18-.18-.34-.29-.1-.07-.21-.16-.34-.25-.05-.05-.1-.12-.1-.21-.03-.09,0-.16.08-.23l.26-.31c.45-.51.84-.95.84-1.08-.03-.04-.21-.17-.37-.28-.11-.08-.21-.16-.31-.25-.08-.05-.1-.13-.13-.22,0-.08.03-.17.08-.22l.26-.32c.45-.51.84-.95.86-1.08-.03-.04-.21-.17-.37-.29-.11-.07-.21-.15-.34-.25-.05-.05-.11-.13-.11-.21-.03-.09,0-.18.05-.24l.29-.32c.45-.5.84-.95.84-1.08-.03-.03-.18-.17-.34-.29-.11-.07-.24-.15-.34-.24-.08-.05-.11-.13-.13-.22,0-.09.03-.17.08-.24l.29-.31c.45-.51.81-.96.81-1.08,0-.04-.18-.17-.34-.28-.11-.08-.21-.16-.34-.25-.05-.05-.1-.13-.1-.21-.03-.09.03-.17.08-.23l.26-.32c.45-.51.84-.95.84-1.08-.03-.04-.21-.17-.37-.29-.08-.07-.18-.15-.31-.25-.08-.05-.1-.12-.13-.21,0-.09.03-.17.08-.23l.26-.31c.47-.51.84-.96.86-1.09-.03-.03-.21-.17-.37-.28-.1-.08-.21-.16-.34-.25-.05-.05-.11-.13-.11-.22,0-.08,0-.17.08-.23l.26-.31c.45-.51.84-.96.84-1.08-.03-.05-.18-.18-.34-.29-.11-.07-.21-.16-.34-.25-.08-.05-.11-.13-.13-.21,0-.09.03-.17.08-.23l.29-.31c.45-.51.84-.96.84-1.08-.03-.03-.21-.17-.37-.29-.11-.07-.21-.15-.34-.24-.05-.05-.1-.13-.1-.22s.03-.17.08-.23l.34-.39c.42-.47.76-.87.76-.99-.03-.05-.21-.2-.39-.33l-.29-.22c-.08-.05-.1-.13-.1-.21-.03-.09,0-.18.05-.24l.34-.39c.42-.47.76-.88.79-.99-.03-.05-.24-.2-.39-.33l-.29-.22c-.08-.05-.13-.13-.13-.22s.03-.17.08-.24l.55-.63s.03-.05.08-.07L9.12.22h0c.58-.32,1.39-.28,1.99.08.47.29.76.74.76,1.23v26.44c0,.11-.05.22-.16.27l-9.33,5.39c-.05.03-.11.04-.16.04Z"/>
      <path class="cls-1" d="M2.23,33.37l9.33-5.4V1.81c0-.46-.16-.77-.42-.93-.26-.15-.6-.12-1,.1l-3.38,1.94-.55.63.63.48c.1.08.21.12.18.34-.03.14-.08.31-.21.44l-.97,1.13.5.39c.18.14.52.38.1.86l-1,1.13.52.41c.18.14.47.39.08.84l-.97,1.12.47.38c.18.14.55.37.11.87l-.97,1.13.47.36c.18.15.58.38.13.9l-.97,1.12.52.42c.18.13.45.39.08.83l-1,1.13.5.37c.18.15.55.39.11.88l-1,1.13.58.42c.18.14.42.37.03.83l-.97,1.12.5.39c.18.14.52.37.1.86l-.97,1.13.52.41c.16.14.45.38.05.84l-.97,1.12.55.43c.18.14.45.36.05.83l-1,1.13.52.4c.18.15.5.38.08.85l-.97,1.12.52.42c.18.14.47.38.08.84l-.03.03Z"/>
      <path class="cls-2" d="M2.1,32.04l.26.22c.11.07.29.22.37.46l8.51-4.92V1.81c0-.32-.08-.57-.26-.66-.16-.1-.42-.06-.71.09l-3.3,1.92-.31.34.37.28c.13.1.31.24.29.61,0,.21-.1.45-.26.62l-.76.88.24.19c.16.11.39.3.42.61.03.23-.08.46-.26.7l-.79.89.29.21c.1.09.34.27.37.59.03.23-.05.46-.26.7l-.76.88.24.18c.13.12.39.3.42.62.03.22-.08.46-.29.7l-.76.88.21.15c.16.13.42.32.45.64.03.23-.05.47-.26.7l-.76.88.29.22c.11.08.31.26.37.58,0,.23-.08.46-.29.69l-.76.88.24.18c.16.12.39.3.42.63.03.22-.05.46-.26.69l-.76.88.29.23c.1.08.34.26.37.57.03.23-.08.46-.29.7l-.76.88.24.19c.16.1.39.3.42.61.03.22-.05.46-.26.7l-.76.89.26.21c.1.09.34.27.39.59,0,.23-.08.46-.29.7l-.76.88.29.22c.13.09.34.27.39.57,0,.23-.08.46-.29.7l-.79.88.29.2c.11.09.37.29.39.6.03.23-.08.46-.29.69l-.76.88h0ZM2.23,33.67c-.11,0-.18-.03-.24-.11-.11-.11-.11-.29,0-.4l.03-.03c.08-.11.13-.19.13-.22-.03-.06-.1-.13-.16-.17l-.52-.42c-.08-.05-.11-.12-.13-.21,0-.09.03-.16.08-.24l.97-1.12c.1-.12.13-.2.13-.24,0-.05-.11-.13-.16-.17l-.52-.4c-.05-.05-.11-.13-.11-.22-.03-.08.03-.17.05-.22l1-1.13c.13-.16.13-.23.13-.24,0-.04-.11-.11-.13-.15l-.55-.43c-.08-.05-.11-.13-.13-.21,0-.09.03-.17.08-.23l1-1.12c.08-.12.13-.2.1-.24,0-.05-.1-.13-.13-.16l-.55-.41c-.05-.05-.11-.13-.11-.22,0-.08.03-.16.08-.23l.97-1.12c.11-.11.13-.2.13-.24,0-.05-.1-.13-.18-.17l-.5-.4c-.08-.05-.1-.13-.13-.21,0-.09.03-.17.08-.24l.97-1.13c.16-.16.16-.23.13-.24,0-.04-.08-.11-.11-.14l-.55-.42c-.08-.05-.13-.13-.13-.22s.03-.17.08-.24l.97-1.12c.1-.12.13-.2.13-.23,0-.05-.11-.13-.18-.17l-.5-.4c-.08-.05-.1-.13-.13-.22,0-.08.03-.17.08-.23l1-1.13c.08-.11.13-.19.1-.23,0-.06-.08-.13-.13-.16l-.55-.42c-.05-.05-.1-.13-.1-.21,0-.09.03-.17.08-.24l.97-1.12c.13-.16.13-.23.13-.24,0-.06-.1-.14-.18-.18l-.5-.39c-.05-.05-.1-.13-.1-.22-.03-.08,0-.17.05-.23l1-1.13c.08-.11.13-.2.11-.24,0-.05-.11-.13-.16-.17l-.5-.4c-.08-.05-.13-.13-.13-.21,0-.09.03-.17.08-.23l.97-1.13c.1-.11.13-.19.13-.23,0-.05-.11-.13-.16-.17l-.52-.41c-.05-.05-.11-.13-.11-.22-.03-.09,0-.17.08-.23l.97-1.12c.13-.15.13-.23.13-.24-.03-.05-.11-.13-.18-.17l-.5-.4c-.08-.05-.13-.13-.13-.22,0-.08.03-.16.08-.22l.97-1.13c.08-.09.13-.19.13-.26,0,0-.05-.06-.05-.07l-.63-.48c-.05-.05-.1-.12-.1-.21-.03-.09,0-.17.05-.24l.55-.63s.05-.05.08-.07l3.38-1.94c.47-.28.94-.31,1.31-.09.37.21.58.63.58,1.19v26.16c0,.11-.05.22-.16.27l-9.33,5.39c-.05.03-.11.04-.16.04Z"/>
    </g>
  </g>
</svg>