<?xml version="1.0" encoding="UTF-8"?>
<svg id="Layer_2" data-name="Layer 2" xmlns="http://www.w3.org/2000/svg" viewBox="0 0 25.02 48.36" fill="currentColor">
  <defs>
    <style>
      .cls-1 {
        fill: #fff;
      }

      .cls-1, .cls-2, .cls-3, .cls-4 {
        fill-rule: evenodd;
      }

      .cls-2 {
        fill: #1a87c7;
      }

      .cls-3 {
        fill: #bdedf8;
      }

      .cls-4 {
        fill: #66ceef;
      }
    </style>
  </defs>
  <g id="_Layer_" data-name="&amp;lt;Layer&amp;gt;">
    <g>
      <path class="cls-3" d="M8.28,36.19l-7.41-2.29v-1.88c0-.47.1-.87.26-1.19.17-.32.44-.57.77-.72l6.39-2.98v9.07Z"/>
      <path class="cls-2" d="M1.17,33.67l6.8,2.1v-8.16l-5.94,2.78c-.28.13-.49.32-.63.59-.16.27-.23.63-.23,1.04v1.65h0ZM8.28,36.5s-.06,0-.09-.02l-7.41-2.29c-.13-.04-.22-.16-.22-.29v-1.88c0-.52.1-.97.3-1.33.21-.38.52-.68.91-.86l6.38-2.98c.1-.04.21-.04.3.02.09.05.15.15.15.26v9.07c0,.1-.05.19-.13.25-.05.04-.11.06-.18.06Z"/>
      <path class="cls-3" d="M17.08,37.2l7.41-2.29v-1.88c0-.47-.1-.87-.26-1.19-.17-.32-.43-.57-.76-.73l-6.39-2.98v9.06Z"/>
      <path class="cls-2" d="M17.38,28.62v8.17l6.8-2.1v-1.65c0-.41-.07-.77-.23-1.04-.14-.27-.35-.47-.62-.59l-5.96-2.78h0ZM17.38,37.2h.01-.01ZM17.08,37.51c-.07,0-.13-.02-.18-.06-.08-.06-.13-.15-.13-.25v-9.06c.02-.1.08-.2.17-.25.09-.05.19-.07.28-.03l6.39,2.98c.38.18.7.47.9.86.2.37.3.81.3,1.33v1.88c0,.13-.09.25-.22.29l-7.41,2.29s-.06.02-.09.02Z"/>
      <path class="cls-4" d="M17.65,37.72l.28-11.34c-.11,1.91-2.43,2.94-4.03,3.29-2.33.5-5.56.23-7.42-1.39-.57-.49-.99-1.13-1.02-1.9l.36,11.34c.24,4.64,11.59,4.64,11.84,0Z"/>
      <path class="cls-2" d="M17.65,37.72h0,0ZM5.8,28.03l.31,9.67c.12,2.18,2.99,3.18,5.61,3.18h0c2.62,0,5.49-1,5.61-3.18l.24-9.68c-.82,1-2.26,1.64-3.62,1.94-2.31.5-5.71.26-7.69-1.46-.17-.15-.32-.31-.46-.47h0ZM11.73,41.5h0c-2.9,0-6.09-1.18-6.23-3.77l-.37-11.34c0-.17.13-.31.3-.32h.02c.16,0,.3.13.3.29.03.62.34,1.18.92,1.68,1.82,1.58,4.99,1.79,7.15,1.32,1.69-.36,3.69-1.37,3.79-3,.02-.17.16-.31.32-.29.17,0,.3.15.3.31l-.28,11.34h0c-.14,2.6-3.32,3.78-6.22,3.78Z"/>
      <path class="cls-1" d="M8.51,33.41l-.83-.25-6.34,9.67c-1.16,1.94-1.03,2.82-1.03,4.97l.84.25c0-2.16-.15-3.03,1.03-4.98l6.33-9.67Z"/>
      <path class="cls-2" d="M.62,47.57l.22.07v-.22c-.02-1.73-.02-2.68,1.07-4.5l6.12-9.34-.23-.07-6.21,9.48c-1,1.66-.99,2.44-.98,4.17v.4h0ZM1.16,48.36s-.06,0-.09-.01l-.84-.25c-.13-.04-.22-.16-.22-.3v-.63c-.02-1.73-.02-2.69,1.07-4.51l6.34-9.68c.08-.11.22-.17.35-.13l.84.25c.09.03.17.1.2.19.03.09.02.19-.03.28l-6.34,9.67c-.99,1.66-.99,2.45-.97,4.17v.63c0,.1-.04.19-.12.25-.05.04-.12.06-.18.06Z"/>
      <path class="cls-3" d="M8.52,33.41l-6.34,9.67c-.34.54-.59,1.09-.77,1.61-.17.52-.26,1.02-.26,1.49v1.88l7.36-6.22v-8.42Z"/>
      <path class="cls-2" d="M8.21,34.44l-5.77,8.81c-.31.51-.55,1.03-.73,1.53-.16.49-.24.96-.24,1.39v1.22l6.74-5.7v-7.25h0ZM1.16,48.36s-.1-.01-.13-.03c-.12-.05-.18-.16-.18-.28v-1.88c0-.5.1-1.04.28-1.59.18-.55.45-1.11.79-1.67l6.35-9.68c.07-.12.21-.17.35-.13.13.04.21.16.21.3v8.42c0,.09-.04.18-.11.23l-7.36,6.22c-.05.05-.12.07-.19.07Z"/>
      <path class="cls-1" d="M24.7,45.3v1.88s-.98.28-.98.28v-1.88c-.03-1.16-.44-2.11-1.03-3.09l-6.34-9.67.99-.28,6.34,9.67c.58.97,1,1.95,1.01,3.1Z"/>
      <path class="cls-2" d="M16.85,32.99l6.1,9.32c.52.86,1.05,1.92,1.08,3.26v1.48l.37-.1v-1.64c-.02-.94-.32-1.85-.98-2.94l-6.2-9.48-.36.1h0ZM23.72,47.77c-.07,0-.13-.02-.19-.06-.08-.06-.12-.15-.12-.25v-1.88c-.02-.94-.31-1.82-.98-2.93l-6.33-9.66c-.05-.08-.06-.19-.03-.28.04-.09.11-.16.2-.19l.99-.27c.13-.04.27.01.34.13l6.34,9.68c.72,1.2,1.05,2.2,1.08,3.25h0v1.89c0,.14-.09.26-.23.3l-.99.28s-.05.01-.08.01Z"/>
      <path class="cls-3" d="M16.36,32.81l6.34,9.67c.33.54.59,1.09.76,1.61.17.52.26,1.02.26,1.49v1.88l-7.36-6.22v-8.43Z"/>
      <path class="cls-2" d="M16.66,41.09l6.74,5.7v-1.21c0-.43-.08-.9-.24-1.39-.16-.5-.42-1.02-.73-1.54l-5.77-8.8v7.25h0ZM23.72,47.77c-.07,0-.15-.03-.2-.08l-7.36-6.22c-.07-.06-.11-.14-.11-.23v-8.43c0-.13.1-.25.22-.29.14-.04.28,0,.35.13l6.33,9.67c.36.57.62,1.13.8,1.68.18.56.28,1.09.28,1.59v1.88c0,.12-.07.23-.18.28-.04.02-.09.03-.13.03Z"/>
      <path class="cls-1" d="M19.18,11.63l-15.33-.15.45,15.26c.08,2.02,2.47,3.23,4.17,3.68,2.75.73,6.59.47,8.86-1.32.74-.58,1.36-1.39,1.39-2.37l.45-15.12Z"/>
      <path class="cls-2" d="M4.16,11.8l.44,14.94c.07,1.75,2.17,2.92,3.95,3.39,2.6.69,6.39.48,8.6-1.26.56-.44,1.24-1.17,1.28-2.13l.44-14.8-14.69-.14h0ZM11.55,31.12c-1.13,0-2.22-.14-3.17-.39-2.07-.55-4.32-1.88-4.41-3.97l-.44-15.27c0-.08.03-.17.09-.22.06-.06.14-.09.22-.09h0l15.32.15c.09,0,.17.03.23.09.05.06.09.14.08.22l-.44,15.12c-.05,1.2-.85,2.08-1.51,2.6-1.61,1.27-3.86,1.77-5.97,1.77Z"/>
      <path class="cls-3" d="M11.51,14.48c1.74,0,3.48-.38,4.81-1.15,1.33-.76,1.99-1.77,1.99-2.77s-.66-2.01-1.99-2.78c-1.33-.77-3.07-1.15-4.81-1.15s-3.47.38-4.8,1.15c-1.32.77-1.99,1.77-1.99,2.78s.67,2.01,1.99,2.77c1.33.77,3.07,1.15,4.8,1.15Z"/>
      <path class="cls-2" d="M11.51,6.94c-1.76,0-3.41.4-4.65,1.11-1.18.69-1.83,1.58-1.83,2.51s.65,1.82,1.83,2.51c1.23.71,2.88,1.11,4.65,1.11s3.42-.39,4.65-1.11c1.19-.69,1.85-1.57,1.85-2.51s-.65-1.82-1.85-2.51c-1.23-.71-2.88-1.11-4.65-1.11h0ZM11.51,14.79c-1.87,0-3.62-.42-4.95-1.19-1.38-.8-2.15-1.88-2.15-3.04s.76-2.24,2.15-3.04c1.33-.77,3.09-1.19,4.95-1.19s3.63.42,4.96,1.19c1.38.8,2.15,1.88,2.15,3.04s-.76,2.24-2.15,3.04c-1.33.77-3.09,1.19-4.96,1.19Z"/>
      <path class="cls-4" d="M11.51.3l6.85,8.97c.57.74.86,1.46.82,2.36-.05.95-.71,1.66-1.47,2.21-.24.18-.5.36-.78.53-2.99,1.73-7.84,1.73-10.83,0-.29-.17-.55-.34-.77-.53-.76-.55-1.43-1.27-1.48-2.21-.04-.9.25-1.62.81-2.36L11.51.3Z"/>
      <path class="cls-2" d="M11.51.81l-6.6,8.65c-.56.74-.79,1.39-.75,2.16.03.7.46,1.33,1.35,1.98.23.18.48.35.75.51,2.91,1.68,7.62,1.68,10.52,0,.27-.16.52-.32.75-.5.89-.66,1.32-1.28,1.36-1.99.03-.78-.19-1.42-.76-2.16L11.51.81h0ZM11.51,15.97c-2.01,0-4.03-.44-5.56-1.33-.29-.17-.57-.36-.82-.55-1.02-.75-1.55-1.54-1.59-2.44-.04-.92.23-1.71.88-2.57L11.26.11c.12-.15.37-.15.49,0l6.86,8.97c.65.86.92,1.65.87,2.57-.04.89-.57,1.69-1.59,2.45-.24.19-.51.37-.81.54-1.54.89-3.56,1.33-5.57,1.33Z"/>
      <path class="cls-3" d="M16.32,18.92c-1.48.85-2.67,2.93-2.67,4.63s1.19,2.4,2.67,1.54c1.48-.85,2.68-2.92,2.68-4.63s-1.2-2.39-2.68-1.54Z"/>
      <path class="cls-2" d="M16.47,19.19c-1.39.8-2.52,2.76-2.52,4.36,0,.71.23,1.23.63,1.47.4.23.97.17,1.58-.19,1.38-.8,2.51-2.76,2.51-4.36,0-.71-.22-1.23-.63-1.46-.4-.23-.96-.17-1.58.19h0ZM15.13,25.77c-.31,0-.6-.08-.85-.22-.6-.35-.94-1.06-.94-2,0-1.8,1.27-3.99,2.83-4.89h0c.81-.47,1.59-.54,2.19-.19.61.35.94,1.06.94,2,0,1.8-1.27,3.99-2.82,4.9-.47.27-.93.41-1.35.41Z"/>
      <path class="cls-4" d="M18.12,16.78l.65.38c-.49-.17-.91-.16-1.4-.04-.55.14-.99.37-1.45.69-.49.34-.89.71-1.28,1.15-.47.54-.84,1.08-1.18,1.7-.39.74-.68,1.45-.86,2.27-.16.79-.21,1.56-.02,2.35.14.49.33.88.7,1.23-.89-.51-1.53-1.48-1.72-2.47-.52-2.64,2.12-5.43,4.29-6.8.64-.41,1.55-.71,2.27-.46Z"/>
      <path class="cls-2" d="M14.59,18.56c-1.74,1.51-3.09,3.56-2.74,5.42.07.33.18.66.35.96-.1-.63-.06-1.3.1-2.07.18-.81.46-1.56.88-2.35.36-.66.75-1.22,1.23-1.76.06-.07.12-.14.18-.2h0ZM13.28,26.82c-.05,0-.1-.01-.16-.04-.94-.54-1.65-1.57-1.87-2.68-.51-2.64,1.94-5.54,4.43-7.12.68-.43,1.69-.78,2.53-.49.03,0,.03.01.05.02l.65.38c.14.08.2.25.13.4-.07.14-.23.21-.38.16-.38-.13-.74-.14-1.23-.03-.45.12-.86.31-1.35.65-.44.31-.82.65-1.23,1.1-.43.51-.8,1.03-1.14,1.65-.4.74-.66,1.44-.83,2.19-.18.86-.19,1.54-.03,2.21.13.48.3.8.61,1.08.11.11.13.28.04.41-.06.08-.16.13-.25.13Z"/>
      <path class="cls-3" d="M16.91,17.98l1.3.75c.35.21.53.5.66.88.1.34.13.65.11,1.01-.02.47-.11.88-.26,1.33-.17.52-.4.98-.7,1.45-.45.68-.99,1.27-1.7,1.69-.58.33-1.26.53-1.89.19l-1.3-.75c.3.16.57.2.91.16.56-.08,1.01-.34,1.45-.67.37-.3.67-.62.96-1,.37-.5.65-.99.88-1.57.21-.55.33-1.07.36-1.66,0-.69-.15-1.43-.78-1.81Z"/>
      <path class="cls-2" d="M14.43,24.93l.16.09c.42.23.94.17,1.58-.19.6-.35,1.12-.87,1.59-1.58.3-.45.5-.89.68-1.38.15-.45.21-.84.24-1.25,0-.35-.02-.62-.1-.9-.12-.35-.27-.55-.53-.71l-.15-.09c.07.26.11.55.09.88-.02.59-.13,1.14-.37,1.77-.24.6-.53,1.13-.92,1.65-.33.43-.64.75-1.02,1.05-.44.34-.84.55-1.25.67h0ZM15.13,25.77c-.3,0-.58-.07-.84-.21l-1.31-.76c-.15-.08-.2-.27-.11-.42.08-.15.27-.2.42-.12.22.13.42.16.73.13.42-.06.82-.25,1.29-.61.33-.26.62-.56.91-.94.36-.47.62-.95.84-1.49.21-.56.31-1.04.33-1.56,0-.77-.2-1.28-.63-1.54-.14-.09-.19-.28-.11-.42.09-.15.28-.19.42-.11l1.31.75c.39.24.63.56.8,1.05.11.36.15.69.14,1.12-.03.47-.11.91-.28,1.41-.19.55-.43,1.03-.74,1.52-.53.8-1.12,1.38-1.81,1.78-.48.27-.93.41-1.35.41Z"/>
      <polygon class="cls-1" points="18.21 18.74 16.91 17.98 16.86 17.96 16.81 17.93 16.77 17.91 18.07 18.67 18.12 18.69 18.16 18.71 18.21 18.74"/>
      <path class="cls-2" d="M18.21,19.05c-.05,0-.1-.01-.15-.04l-.05-.03s-.1-.05-.1-.05l-1.3-.75c-.14-.08-.2-.26-.12-.41.08-.15.25-.21.4-.14,0,0,.11.05.11.05l1.36.78c.15.09.2.27.12.42-.06.1-.16.16-.27.16Z"/>
      <path class="cls-4" d="M18.21,18.74c-.48-.28-1.16-.24-1.89.19-.74.43-1.41,1.16-1.89,2-.49.84-.78,1.78-.78,2.63s.29,1.45.78,1.73c.48.28,1.15.24,1.89-.19,1.48-.85,2.68-2.92,2.68-4.63,0-.85-.3-1.45-.78-1.73h0ZM16.32,17.56c1.07-.62,2.03-.67,2.73-.27.69.4,1.13,1.27,1.13,2.5,0,.63-.11,1.29-.31,1.96-.35,1.13-1.29,2.72-2.1,3.57-.45.46-.94.86-1.45,1.16-1.06.62-2.03.67-2.73.27-.69-.4-1.13-1.27-1.13-2.5s.44-2.59,1.13-3.8c.7-1.21,1.67-2.26,2.73-2.88h0Z"/>
      <path class="cls-2" d="M17.52,18.87c-.31,0-.67.11-1.04.33-.67.39-1.3,1.05-1.77,1.88-.48.83-.75,1.71-.75,2.48,0,.71.23,1.23.63,1.47.4.24.97.17,1.57-.19,1.39-.8,2.52-2.76,2.52-4.36,0-.71-.22-1.23-.63-1.46h0c-.16-.09-.34-.14-.54-.14h0ZM15.13,25.77c-.31,0-.6-.07-.85-.22-.6-.35-.94-1.06-.94-2,0-.88.3-1.87.83-2.79.53-.92,1.24-1.67,2-2.11.82-.47,1.6-.53,2.2-.19h0c.61.35.94,1.06.94,2,0,1.8-1.27,3.99-2.82,4.9-.47.27-.93.41-1.35.41h0ZM16.47,17.82h0c.93-.54,1.79-.63,2.42-.27.63.36.98,1.16.98,2.23,0,.58-.11,1.21-.3,1.87-.34,1.08-1.24,2.63-2.03,3.44-.44.46-.9.83-1.37,1.11-.93.54-1.79.63-2.43.27-.63-.36-.97-1.15-.97-2.23,0-1.14.38-2.43,1.09-3.65.7-1.22,1.63-2.2,2.62-2.77h0ZM14.59,27.3c-.42,0-.81-.1-1.16-.3-.84-.48-1.29-1.46-1.29-2.76s.42-2.65,1.17-3.96c.75-1.31,1.76-2.37,2.83-2.99h.01c1.13-.65,2.21-.75,3.03-.27.83.48,1.29,1.46,1.29,2.76,0,.65-.11,1.33-.33,2.05-.37,1.18-1.32,2.8-2.17,3.69-.48.5-.99.91-1.51,1.21-.66.38-1.3.57-1.88.57Z"/>
    </g>
  </g>
</svg>