<?xml version="1.0" encoding="UTF-8"?>
<svg id="Layer_2" data-name="Layer 2" xmlns="http://www.w3.org/2000/svg" viewBox="0 0 40.99 39.16" fill="currentColor">
  <defs>
    <style>
      .cls-1 {
        fill: #fff;
      }

      .cls-1, .cls-2, .cls-3 {
        fill-rule: evenodd;
      }

      .cls-2 {
        fill: #1a87c7;
      }

      .cls-3 {
        fill: #66ceef;
      }
    </style>
  </defs>
  <g id="_Layer_" data-name="&amp;lt;Layer&amp;gt;">
    <g>
      <path class="cls-3" d="M20.85,38.63c-1.17-.68-5.05-2.68-5.52-3.4-1.7-2.63,2.33-8.77,5.09-7.33l4.97,2.87c-3.16-1.49-7.41,5.87-4.54,7.86Z"/>
      <path class="cls-2" d="M19.54,28c-.74,0-1.6.48-2.42,1.37-1.47,1.62-2.44,4.29-1.53,5.69.31.49,2.75,1.83,4.19,2.62-.45-1.29.01-3.04.82-4.44.8-1.38,2.07-2.64,3.4-2.91l-3.73-2.16c-.23-.12-.47-.17-.73-.17h0ZM20.85,38.94c-.05,0-.11-.02-.15-.04-.25-.14-.62-.35-1.05-.58-2.28-1.25-4.2-2.34-4.58-2.92-1.1-1.69-.02-4.67,1.6-6.44,1.3-1.43,2.75-1.92,3.89-1.32l4.98,2.88c.14.08.2.26.12.41-.08.15-.26.2-.4.13-1.45-.68-3.16.82-4.13,2.5-.98,1.68-1.42,3.92-.1,4.83.13.1.17.28.08.42-.06.1-.16.15-.26.15Z"/>
      <path class="cls-3" d="M12.18,28.95l-4.53-2.72c-.74-1.22,1.4-3.7,2.12-4.65,3.93-5.12,11.76-11.89,18.67-9.8,1.05.31,3.79,2.04,4.95,2.71-3.39-1.64-8.28.16-11.32,2.05-3.57,2.23-7.89,6.64-9.92,10.2-.35.6-.68,1.72.02,2.21Z"/>
      <path class="cls-2" d="M7.88,26.01l3.59,2.15c-.03-.51.15-1.1.43-1.57,2.05-3.58,6.36-8.01,10.02-10.31,2.55-1.6,6.22-3.03,9.36-2.69-1.11-.65-2.33-1.35-2.92-1.52-6.97-2.1-14.81,5.1-18.33,9.7l-.25.31c-.71.89-2.35,2.97-1.89,3.93h0ZM12.18,29.25c-.06,0-.11-.02-.16-.04l-4.52-2.71s-.08-.07-.1-.1c-.78-1.29.97-3.5,1.91-4.69l.24-.3c3.63-4.72,11.71-12.12,19-9.92.85.26,2.71,1.37,4.06,2.17.37.22.7.42.96.57.14.08.2.26.12.41-.08.15-.26.2-.41.13-3.23-1.57-7.95.12-11.02,2.03-3.59,2.24-7.81,6.59-9.82,10.09-.29.51-.57,1.46-.07,1.81.14.09.17.28.08.42-.06.09-.16.14-.26.14Z"/>
      <path class="cls-3" d="M5.75,26.83L.49,23.67c-.84-1.37,1.49-4.2,2.26-5.28C8.83,9.8,20.95-1.51,32.3.56c2.97.55,5.39,2.32,7.96,3.81-3.56-1.91-8.97-1.17-12.69.21-8.83,3.29-16.88,11.65-21.74,19.51-.44.71-.94,2.13-.08,2.73Z"/>
      <path class="cls-2" d="M.72,23.45l4.26,2.55c-.07-.74.29-1.58.59-2.07,4.47-7.21,12.56-16.17,21.9-19.63,2.8-1.04,6.77-1.8,10.15-1.16-1.72-1.03-3.41-1.92-5.37-2.28C20.56-1.27,8.36,10.99,3,18.57c-.09.13-.2.29-.34.46-.81,1.09-2.48,3.36-1.95,4.42h0ZM5.75,27.13c-.05,0-.11,0-.16-.04L.33,23.93s-.08-.06-.1-.11c-.85-1.38.9-3.74,1.94-5.16.13-.17.24-.32.33-.45C7.94,10.51,20.36-1.93,32.35.25c2.44.45,4.53,1.72,6.55,2.95.5.3,1,.61,1.51.9.15.08.2.27.12.42-.08.15-.27.2-.42.12-3.57-1.92-8.93-1.08-12.44.23-9.18,3.42-17.17,12.26-21.58,19.39-.41.65-.81,1.86-.16,2.31.14.09.17.28.08.42-.06.09-.16.14-.26.14Z"/>
      <path class="cls-3" d="M17.45,30.65l-3.68-2.22c-.93-1.58,3.53-5.44,5.14-6.37,1.26-.72,3.6-1.52,4.89-.93l3.56,2.05c-1.12-.64-3.46.07-4.66.71-1.81.96-4.62,3.55-5.37,5.17-.22.48-.38,1.23.12,1.58Z"/>
      <path class="cls-2" d="M14,28.22l2.81,1.69c0-.33.1-.67.23-.96.78-1.71,3.68-4.35,5.5-5.33.69-.36,2.04-.88,3.26-.97l-2.16-1.25c-1.13-.51-3.36.23-4.59.94-1.32.76-4.6,3.55-5.06,5.28-.07.24-.07.45,0,.61h0ZM17.45,30.96c-.06,0-.11-.02-.16-.04l-3.68-2.22s-.08-.07-.11-.11c-.18-.31-.22-.7-.1-1.14.52-1.97,4.03-4.89,5.35-5.65,1.29-.75,3.73-1.62,5.18-.96l3.58,2.07c.15.09.2.27.11.42-.09.15-.27.2-.42.12h0c-.95-.54-3.14.07-4.36.72-1.71.9-4.51,3.46-5.23,5.03-.15.34-.32.96.02,1.2.14.09.17.29.08.42-.06.09-.16.14-.26.14Z"/>
      <path class="cls-1" d="M25.16,27.19c-1.67-.36-3.9.93-5.57,3.22-.45.61-1.03.89-1.42.67l-.73-.43c-.24-.13-.35-.42-.32-.82.03-.41.18-.82.46-1.2,2.85-4.04,6.74-6.28,9.59-5.54.27.07.43.3.46.68.03.37-.08.78-.32,1.19l-.73,1.26c-.38.66-.97,1.06-1.41.97Z"/>
      <path class="cls-2" d="M26.04,23.26c-2.58,0-5.8,2.13-8.21,5.54-.24.34-.38.7-.4,1.05-.01.19,0,.44.17.54l.73.42c.2.12.64-.07,1.01-.58,1.77-2.41,4.08-3.72,5.89-3.33h0c.27.05.75-.23,1.08-.82l.73-1.25c.21-.37.3-.71.28-1.02-.02-.36-.17-.39-.23-.41-.34-.09-.69-.13-1.05-.13h0ZM18.46,31.46c-.16,0-.31-.04-.45-.12l-.73-.42c-.24-.14-.52-.44-.47-1.11.03-.45.21-.92.51-1.35,2.94-4.17,6.94-6.44,9.92-5.65.24.06.63.27.68.95.03.43-.09.91-.36,1.37l-.73,1.26c-.46.79-1.15,1.24-1.74,1.11-1.54-.33-3.66.92-5.26,3.1-.4.56-.92.87-1.37.87Z"/>
      <path class="cls-1" d="M30.65,19.41c-4.56-1.68-11.19,2.13-15.75,9.09-.55.84-1.34,1.24-1.84.96l-.89-.51c-.28-.17-.42-.5-.4-.97.02-.47.19-.96.49-1.42,6.07-9.34,14.95-14.46,21.02-12.13.31.12.47.41.49.86.02.45-.12.93-.4,1.43l-.89,1.53c-.5.87-1.29,1.37-1.84,1.16Z"/>
      <path class="cls-2" d="M30.09,14.17c-5.61,0-12.52,4.8-17.56,12.55-.28.44-.42.86-.44,1.28-.01.35.07.57.24.68l.89.51c.3.17.93-.11,1.43-.86,4.65-7.07,11.43-10.94,16.12-9.2h0c.34.12,1-.24,1.46-1.03l.89-1.53c.25-.44.37-.86.36-1.25-.02-.49-.23-.57-.29-.59-.96-.37-2-.55-3.09-.55h0ZM13.42,29.86c-.18,0-.36-.04-.51-.14l-.89-.51c-.27-.15-.58-.5-.55-1.23.02-.53.2-1.06.54-1.58,6.17-9.5,15.16-14.65,21.39-12.25.3.11.66.41.69,1.14.02.51-.13,1.04-.44,1.58l-.89,1.54c-.58,1.01-1.51,1.56-2.21,1.3-4.43-1.63-10.9,2.13-15.39,8.97-.49.76-1.16,1.19-1.73,1.19Z"/>
      <path class="cls-1" d="M37.01,10.08c-8.01-3.44-20.03,3.48-28.05,16.18-.64,1-1.58,1.51-2.18,1.17l-1.03-.6c-.32-.18-.48-.56-.47-1.1.01-.53.2-1.09.54-1.63C15.61,8.54,30.37.02,40.14,4.31c.34.15.53.49.54,1.01.02.52-.14,1.08-.47,1.63l-1.03,1.78c-.59,1.04-1.54,1.62-2.18,1.35Z"/>
      <path class="cls-2" d="M34.61,3.51c-9.14,0-20.5,7.99-28.52,20.76-.32.51-.48,1-.5,1.48-.01.42.09.7.31.82l1.03.6c.38.22,1.17-.12,1.76-1.07C16.78,13.3,29,6.3,37.13,9.79h0c.42.18,1.22-.24,1.79-1.21l1.03-1.79c.3-.5.44-1,.43-1.47-.02-.59-.27-.69-.36-.74-1.67-.73-3.49-1.08-5.4-1.08h0ZM7.19,27.83c-.2,0-.39-.04-.56-.15l-1.03-.59c-.3-.17-.65-.55-.62-1.37.02-.59.21-1.19.59-1.79C15.44,8.24,30.35-.32,40.26,4.02c.32.14.7.48.72,1.29.02.58-.16,1.18-.51,1.8l-1.03,1.78c-.68,1.17-1.78,1.81-2.56,1.47h0c-7.86-3.37-19.75,3.53-27.67,16.06-.56.89-1.35,1.42-2.03,1.42Z"/>
      <path class="cls-1" d="M23.12,31c1.77-1.02,3.21-.19,3.2,1.85,0,2.05-1.44,4.54-3.21,5.56-1.77,1.02-3.21.19-3.21-1.86,0-2.04,1.44-4.53,3.21-5.55Z"/>
      <path class="cls-2" d="M23.12,31h0,0ZM24.55,30.87c-.39,0-.82.14-1.28.4h0c-1.68.97-3.06,3.34-3.06,5.29,0,.88.28,1.52.79,1.82.51.3,1.2.21,1.96-.23,1.68-.97,3.06-3.35,3.06-5.29,0-.87-.28-1.51-.78-1.81-.2-.11-.43-.17-.68-.17h0ZM21.69,39.16c-.36,0-.69-.09-.99-.26-.7-.41-1.09-1.24-1.09-2.35,0-2.14,1.51-4.75,3.37-5.82.96-.55,1.87-.63,2.57-.22.71.41,1.09,1.23,1.09,2.34,0,2.15-1.51,4.76-3.36,5.82-.55.32-1.09.49-1.59.49Z"/>
    </g>
  </g>
</svg>