<?xml version="1.0" encoding="UTF-8"?>
<svg id="Layer_2" data-name="Layer 2" xmlns="http://www.w3.org/2000/svg" viewBox="0 0 48.94 44.22" fill="currentColor">
  <defs>
    <style>
      .cls-1 {
        fill: #fff;
      }

      .cls-1, .cls-2, .cls-3, .cls-4 {
        fill-rule: evenodd;
      }

      .cls-2 {
        fill: #1a87c7;
      }

      .cls-3 {
        fill: #bdedf8;
      }

      .cls-4 {
        fill: #66ceef;
      }
    </style>
  </defs>
  <g id="_Layer_" data-name="&amp;lt;Layer&amp;gt;">
    <g>
      <path class="cls-1" d="M43.75,35.34c1.26,0,2.28-1.02,2.28-2.27s-1.02-2.27-2.28-2.27-2.28,1.02-2.28,2.27,1.02,2.27,2.28,2.27Z"/>
      <path class="cls-2" d="M43.75,31.1c-1.07,0-1.96.88-1.96,1.96s.89,1.96,1.96,1.96,1.96-.88,1.96-1.96-.89-1.96-1.96-1.96h0ZM43.75,35.64c-1.42,0-2.59-1.15-2.59-2.58s1.18-2.58,2.59-2.58,2.57,1.16,2.57,2.58-1.15,2.58-2.57,2.58Z"/>
      <path class="cls-3" d="M46.08,36.91c-.03-1.27-1.07-2.29-2.33-2.29s-2.33,1.02-2.36,2.29h0v5.83c.03.32.03.5.71.89.65.38,2.65.38,3.3,0,.68-.39.66-.57.68-.89v-5.83Z"/>
      <path class="cls-2" d="M41.71,36.95v5.79c.03.25.03.33.52.62.58.33,2.44.33,3.01,0,.5-.29.52-.37.52-.6l.03-5.81v-.03c-.03-1.1-.94-1.99-2.04-1.99s-2.02.89-2.04,1.99v.03h0ZM43.75,44.22c-.71,0-1.44-.11-1.81-.33-.73-.42-.81-.69-.84-1.08l-.03-5.89s.03-.03.03-.05c.05-1.41,1.23-2.55,2.65-2.55s2.59,1.14,2.65,2.55v5.88c-.03.46-.11.73-.84,1.15-.39.22-1.1.33-1.81.33Z"/>
      <path class="cls-3" d="M43.75,35.34c1.26,0,2.28-1.02,2.28-2.27s-1.02-2.27-2.28-2.27-2.28,1.02-2.28,2.27,1.02,2.27,2.28,2.27Z"/>
      <path class="cls-2" d="M43.75,31.1c-1.07,0-1.96.88-1.96,1.96s.89,1.96,1.96,1.96,1.96-.88,1.96-1.96-.89-1.96-1.96-1.96h0ZM43.75,35.64c-1.42,0-2.59-1.15-2.59-2.58s1.18-2.58,2.59-2.58,2.57,1.16,2.57,2.58-1.15,2.58-2.57,2.58Z"/>
      <path class="cls-4" d="M10.77,14.94v11.8l.08.38c.18.79.63,1.57,1.13,2.2,1.1,1.36,2.75,2.39,4.35,3.07,5.11,2.17,12.42,2.07,17.37-.51,1.34-.69,2.67-1.67,3.54-2.91.37-.54.71-1.2.86-1.85l.08-.38v-11.8c-.05.27-.1.5-.18.76-.29.79-.76,1.56-1.34,2.18-1.6,1.77-4.11,2.91-6.39,3.52-4.51,1.21-10.22.96-14.49-1.04-1.65-.77-3.35-1.95-4.3-3.54-.26-.44-.52-.99-.63-1.49l-.08-.38Z"/>
      <path class="cls-2" d="M11.06,16.72v10.01l.08.32c.18.69.55,1.43,1.07,2.08.92,1.15,2.44,2.21,4.24,2.97,5.14,2.19,12.34,1.98,17.08-.5,1.05-.55,2.49-1.48,3.43-2.82.39-.55.68-1.17.81-1.75l.08-.37v-9.96c-.26.47-.58.94-.97,1.36-1.94,2.13-4.95,3.17-6.55,3.6-4.82,1.29-10.58.88-14.7-1.07-1.42-.67-3.35-1.85-4.43-3.66-.05-.08-.1-.16-.16-.24h0ZM24.44,34.22c-2.88,0-5.79-.51-8.25-1.56-1.34-.57-3.2-1.58-4.45-3.15-.58-.71-1-1.54-1.21-2.32l-.08-.39v-11.86c0-.16.11-.29.26-.31.16-.02.31.09.34.24l.08.38c.11.43.34.96.6,1.39.79,1.31,2.25,2.52,4.17,3.42,3.98,1.88,9.59,2.28,14.28,1.03,1.55-.41,4.43-1.41,6.24-3.42.6-.64,1.02-1.37,1.26-2.07.08-.24.13-.45.18-.69.03-.15.16-.27.34-.26.16.02.29.13.29.29v11.8l-.11.44c-.16.66-.47,1.36-.89,1.96-1.02,1.44-2.57,2.43-3.67,3.01-2.62,1.38-6,2.08-9.38,2.08Z"/>
      <polygon class="cls-3" points="48.63 14.26 48.63 15.29 24.47 29.24 24.47 28.21 48.63 14.26"/>
      <path class="cls-2" d="M24.76,28.39v.32l23.55-13.6v-.32l-23.55,13.6h0ZM24.47,29.55c-.05,0-.11-.01-.16-.04-.1-.05-.16-.16-.16-.27v-1.03c0-.11.05-.21.16-.27l24.16-13.95c.11-.05.21-.05.31,0,.08.06.16.16.16.27v1.03c0,.11-.08.21-.16.26l-24.18,13.95s-.08.04-.13.04Z"/>
      <polygon class="cls-4" points="24.47 28.21 24.47 29.24 .31 15.29 .31 14.26 24.47 28.21"/>
      <path class="cls-2" d="M.6,15.11l23.55,13.6v-.32L.6,14.79v.32h0ZM24.47,29.55c-.05,0-.11-.01-.16-.04L.16,15.56c-.11-.05-.16-.15-.16-.26v-1.03c0-.11.05-.21.16-.27.08-.05.21-.05.29,0l24.16,13.95c.1.06.16.15.16.27v1.03c0,.11-.05.21-.16.27-.03.03-.08.04-.13.04Z"/>
      <polygon class="cls-4" points="24.47 .31 48.63 14.26 24.47 28.21 .31 14.26 24.47 .31"/>
      <path class="cls-2" d="M.92,14.26l23.55,13.59,23.55-13.59L24.47.67.92,14.26h0ZM24.47,28.52c-.05,0-.11-.01-.16-.04L.16,14.53c-.11-.06-.16-.16-.16-.27s.05-.21.16-.27L24.31.04c.11-.06.21-.06.29,0l24.18,13.95c.08.06.16.16.16.27s-.08.21-.16.27l-24.18,13.95s-.08.04-.13.04Z"/>
      <path class="cls-2" d="M43.75,31.38c-.16,0-.31-.14-.31-.31v-8.3c0-3.38-2.41-6.21-5.76-6.71l-13.31-2.01c-.18-.03-.29-.18-.26-.35.03-.17.18-.28.34-.26l13.34,2.02c3.64.55,6.29,3.63,6.29,7.32v8.3c0,.17-.13.31-.31.31Z"/>
      <path class="cls-3" d="M26.54,12.51c-1.15-.66-3.01-.67-4.17,0-1.15.67-1.15,1.75,0,2.42,1.15.66,3.01.66,4.17,0,1.18-.67,1.18-1.75,0-2.42Z"/>
      <path class="cls-2" d="M24.47,12.32c-.71,0-1.42.15-1.94.46-.47.27-.71.6-.71.94s.23.67.71.94c1.07.62,2.8.62,3.88,0,.45-.27.71-.6.71-.94s-.26-.67-.71-.94h0c-.55-.31-1.26-.46-1.94-.46h0ZM24.47,15.74c-.81,0-1.63-.18-2.25-.54-.66-.38-1.02-.9-1.02-1.47s.37-1.09,1.02-1.48c1.26-.72,3.22-.72,4.48,0h0c.65.38,1.02.9,1.02,1.48s-.37,1.09-1.02,1.47c-.6.36-1.42.54-2.23.54Z"/>
    </g>
  </g>
</svg>