<?xml version="1.0" encoding="UTF-8"?>
<svg id="Layer_2" data-name="Layer 2" xmlns="http://www.w3.org/2000/svg" viewBox="0 0 73.46 80.87" fill="currentColor">
  <defs>
    <style>
      .cls-1 {
        fill: #fff;
      }

      .cls-1, .cls-2, .cls-3, .cls-4 {
        fill-rule: evenodd;
      }

      .cls-2 {
        fill: #1a87c7;
      }

      .cls-3 {
        fill: #bdedf8;
      }

      .cls-4 {
        fill: #66ceef;
      }
    </style>
  </defs>
  <g id="_Layer_" data-name="&amp;lt;Layer&amp;gt;">
    <g>
      <path class="cls-2" d="M62.89,23.5c-.31,0-.58-.27-.58-.62V3.94c0-.34.26-.62.58-.62.37,0,.63.28.63.62v18.94c0,.35-.26.62-.63.62Z"/>
      <path class="cls-1" d="M72.79,28.57c.68,13.83-18.97,15.04-19.75-.04l19.75.04Z"/>
      <path class="cls-2" d="M53.67,29.15c.63,6.93,5.55,9.86,10.01,9.62,4.19-.22,8.54-3.31,8.49-9.58l-18.5-.04h0ZM63.15,40.01c-4.98,0-10.32-3.51-10.74-11.44,0-.17.05-.34.16-.46.16-.12.31-.19.47-.19h0l19.75.04c.31,0,.58.26.63.58.37,7.18-4.61,11.2-9.69,11.46-.21.01-.37.02-.58.02Z"/>
      <path class="cls-3" d="M57.91,33.7c-4.72-1.58-6.34-5.09-3.62-7.83,2.72-2.74,8.86-3.68,13.57-2.1,4.77,1.58,6.39,5.09,3.61,7.83-2.72,2.74-8.8,3.68-13.57,2.1Z"/>
      <path class="cls-2" d="M58.12,33.12c4.56,1.51,10.37.63,12.94-1.95.94-.95,1.31-2.01,1.1-3.06-.37-1.53-2.04-2.93-4.51-3.75-4.51-1.51-10.32-.64-12.94,1.95-.94.95-1.31,2.01-1.05,3.06.37,1.54,2.04,2.94,4.45,3.75h0ZM62.84,35.07c-1.73,0-3.46-.26-5.08-.79h0c-2.88-.96-4.82-2.66-5.29-4.64-.31-1.46.16-2.96,1.42-4.21,2.88-2.88,9.22-3.89,14.2-2.25,2.88.96,4.82,2.66,5.29,4.64.31,1.46-.16,2.96-1.41,4.21-1.94,1.94-5.5,3.04-9.12,3.04Z"/>
      <path class="cls-3" d="M57.91,33.7c-.89-.3-1.68-.67-2.31-1.09,3.04-1.94,8.17-2.46,12.26-1.09.89.3,1.68.67,2.36,1.09-3.09,1.94-8.18,2.46-12.31,1.09Z"/>
      <path class="cls-2" d="M58.12,33.12c3.46,1.15,7.81.92,10.85-.51-.42-.19-.84-.36-1.31-.51-3.46-1.15-7.81-.92-10.79.51.37.19.84.36,1.26.51h0ZM62.94,35.09c-1.78,0-3.56-.26-5.19-.8h0c-.94-.31-1.78-.7-2.52-1.16-.16-.11-.26-.31-.26-.52s.11-.41.26-.52c3.3-2.09,8.59-2.57,12.84-1.16.89.31,1.73.7,2.46,1.16.21.11.31.31.31.52s-.1.41-.31.52c-2.04,1.29-4.82,1.96-7.6,1.96Z"/>
      <path class="cls-2" d="M71.69,31.97c-.26,0-.47-.17-.58-.43l-8.54-27.49c-.11-.33.1-.67.42-.78.31-.09.68.08.79.41l8.54,27.49c.1.32-.11.67-.42.77-.05.02-.1.03-.21.03Z"/>
      <path class="cls-2" d="M53.46,30.79c-.05,0-.1-.01-.16-.03-.37-.11-.52-.47-.37-.79L62.05,3.65c.11-.32.47-.49.79-.38.32.11.52.46.37.78l-9.12,26.33c-.1.26-.37.41-.63.41Z"/>
      <path class="cls-1" d="M62,6.25c1.52.4,3.09-.5,3.46-2.03.42-1.52-.47-3.1-1.99-3.51-1.52-.41-3.09.5-3.51,2.03-.42,1.53.52,3.1,2.04,3.51Z"/>
      <path class="cls-2" d="M62.16,5.65c1.15.32,2.41-.39,2.73-1.59.31-1.2-.37-2.44-1.57-2.76-1.21-.33-2.46.39-2.78,1.59-.31,1.2.42,2.44,1.62,2.76h0ZM62.73,6.96c-.31,0-.63-.04-.94-.12h0c-1.83-.5-2.93-2.41-2.41-4.26.47-1.85,2.36-2.96,4.24-2.46,1.83.5,2.93,2.41,2.46,4.26-.42,1.56-1.83,2.58-3.35,2.58Z"/>
      <path class="cls-2" d="M10.54,53.86c-.37,0-.63-.28-.63-.62v-18.94c0-.34.26-.62.63-.62.31,0,.63.28.63.62v18.94c0,.34-.31.62-.63.62Z"/>
      <path class="cls-1" d="M20.39,58.92c.73,13.83-18.97,15.05-19.7-.03l19.7.03Z"/>
      <path class="cls-2" d="M1.32,59.51c.63,6.92,5.61,9.82,9.96,9.61,4.24-.22,8.59-3.31,8.54-9.58l-18.5-.03h0ZM10.8,70.37c-5.03,0-10.32-3.51-10.74-11.44,0-.17.05-.34.16-.46.11-.12.26-.19.47-.19h0l19.7.03c.37,0,.63.26.63.59.37,7.17-4.56,11.19-9.69,11.46-.16,0-.37.01-.52.01Z"/>
      <path class="cls-3" d="M5.56,64.05c-4.72-1.58-6.39-5.09-3.62-7.83,2.72-2.74,8.8-3.68,13.57-2.1,4.72,1.58,6.34,5.09,3.62,7.83-2.73,2.74-8.8,3.68-13.57,2.1Z"/>
      <path class="cls-2" d="M10.54,53.97c-3.3,0-6.45.96-8.17,2.69-.94.95-1.31,2.01-1.05,3.06.37,1.54,1.99,2.94,4.45,3.75h0c4.56,1.51,10.38.64,12.94-1.95.94-.95,1.31-2.01,1.05-3.06-.31-1.54-2.04-2.94-4.45-3.76-1.52-.5-3.14-.74-4.77-.74h0ZM10.49,65.43c-1.73,0-3.51-.26-5.14-.79-2.88-.96-4.77-2.66-5.24-4.64-.37-1.47.16-2.97,1.41-4.21,2.88-2.89,9.22-3.9,14.2-2.25,2.88.96,4.77,2.65,5.24,4.64.37,1.46-.16,2.96-1.36,4.21-1.99,1.94-5.5,3.04-9.12,3.04Z"/>
      <path class="cls-3" d="M5.56,64.05c-.89-.3-1.68-.66-2.36-1.09,3.09-1.94,8.17-2.46,12.31-1.09.89.3,1.68.67,2.36,1.09-3.09,1.94-8.17,2.46-12.31,1.09Z"/>
      <path class="cls-2" d="M4.52,62.96c.37.19.84.36,1.26.51h0c3.46,1.15,7.81.92,10.79-.51-.37-.18-.79-.36-1.26-.51-3.46-1.15-7.81-.92-10.79.51h0ZM10.54,65.45c-1.73,0-3.51-.27-5.19-.81h0c-.89-.31-1.73-.7-2.46-1.15-.21-.12-.31-.31-.31-.52s.1-.41.31-.52c3.3-2.09,8.59-2.56,12.84-1.15.89.31,1.73.7,2.46,1.15.16.11.31.31.31.52s-.16.41-.31.52c-2.04,1.29-4.82,1.96-7.65,1.96Z"/>
      <path class="cls-2" d="M19.35,62.33c-.26,0-.47-.17-.58-.44l-8.54-27.49c-.11-.32.05-.67.42-.77.31-.1.63.08.73.4l8.54,27.49c.1.32-.05.67-.37.77-.05.02-.1.03-.21.03Z"/>
      <path class="cls-2" d="M1.11,61.15c-.05,0-.11-.01-.21-.04-.31-.11-.47-.46-.37-.79l9.17-26.32c.1-.32.47-.5.79-.38.31.11.47.47.37.79L1.69,60.73c-.05.25-.31.41-.58.41Z"/>
      <path class="cls-4" d="M61.95,2.59c-.26-.13-.52-.23-.79-.09l-25.83,14.92c.47-.24,1.05.21,1.31.57.37.46.73,1.17.58,1.77,0,.19-.1.37-.26.48l25.83-14.92c.26-.17.31-.55.31-.84-.05-.69-.52-1.51-1.1-1.87l-.05-.02Z"/>
      <path class="cls-2" d="M36.79,17.26c.11.11.26.21.31.33.31.35.58.86.73,1.41l24.63-14.23v-.27c0-.5-.42-1.13-.84-1.38l.31-.55-.31.54c-.1-.07-.21-.08-.21-.08l-24.63,14.22h0ZM36.95,20.85c-.21,0-.42-.1-.52-.29-.21-.28-.1-.66.16-.84.11-.42-.1-.94-.42-1.34-.26-.31-.52-.44-.58-.41-.31.15-.68.03-.84-.26-.16-.29-.05-.65.26-.82L60.85,1.96c.42-.22.89-.19,1.42.09h0s.05.03.05.03c.73.46,1.36,1.45,1.41,2.36,0,.63-.21,1.14-.63,1.4l-25.83,14.93c-.1.06-.21.08-.31.08Z"/>
      <path class="cls-3" d="M30.3,76.22c-7.23-2.42-9.75-7.79-5.55-11.98,4.19-4.2,13.52-5.64,20.75-3.22,7.28,2.43,9.8,7.79,5.55,11.99-4.19,4.2-13.47,5.64-20.75,3.21Z"/>
      <path class="cls-2" d="M37.9,60.46c-5.08,0-10.01,1.51-12.73,4.21-1.52,1.54-2.1,3.27-1.73,4.99.58,2.46,3.25,4.7,7.07,5.98h0c7.07,2.35,16.09.98,20.12-3.07,1.57-1.54,2.15-3.26,1.73-4.99-.58-2.46-3.2-4.7-7.02-5.98-2.36-.78-4.93-1.15-7.44-1.15h0ZM37.84,78.01c-2.62,0-5.29-.39-7.7-1.2h0c-4.35-1.43-7.18-3.94-7.91-6.86-.47-2.13.26-4.31,2.1-6.14,4.3-4.34,13.94-5.85,21.38-3.36,4.3,1.43,7.18,3.94,7.86,6.86.52,2.13-.21,4.31-2.04,6.14-2.93,2.92-8.23,4.56-13.68,4.56Z"/>
      <path class="cls-4" d="M53.04,68.89c0,.68.05,2.75,0,3.3-.52,3.68-4.66,6-7.86,7.01-5.76,1.83-13.89,1.43-18.92-2.05-1.78-1.25-3.41-3.12-3.51-5.42v-2.87c.16,1.61.79,2.83,1.89,4.02,3.51,3.7,10.17,4.81,15.04,4.47,4.19-.29,9.85-1.84,12.37-5.52.63-.95.89-1.8,1-2.93Z"/>
      <path class="cls-2" d="M23.48,72.44c.37,2.01,2.1,3.47,3.14,4.19,5.08,3.51,13.1,3.65,18.39,1.98,3.2-1.01,6.71-3.14,7.34-6.17-2.67,3.61-8.23,5.21-12.63,5.52-4.82.33-11.79-.69-15.56-4.66-.26-.28-.47-.57-.68-.85h0ZM37.84,80.87c-4.19,0-8.65-.95-11.9-3.22-1.36-.94-3.67-2.96-3.83-5.91v-2.9c0-.33.26-.6.63-.62.31-.02.63.23.63.57.1,1.42.63,2.51,1.68,3.65,3.25,3.43,9.64,4.63,14.57,4.29,4.24-.29,9.59-1.82,11.89-5.25.58-.84.84-1.58.94-2.64,0-.32.26-.56.63-.56.31.02.58.28.58.62v.56c0,1.23,0,2.37-.05,2.82-.58,4.75-6.45,6.96-8.23,7.52-2.2.69-4.82,1.08-7.55,1.08Z"/>
      <path class="cls-3" d="M32.86,71.26c-4.82-1.6-6.45-5.15-3.67-7.93,2.78-2.78,8.91-3.73,13.73-2.12,4.82,1.6,6.45,5.16,3.67,7.93-2.78,2.78-8.91,3.73-13.73,2.13Z"/>
      <path class="cls-2" d="M37.9,61.04c-3.3,0-6.5.97-8.28,2.73-.94.96-1.31,2.04-1.1,3.1.37,1.56,2.1,2.98,4.56,3.8,4.61,1.53,10.48.65,13.1-1.98.94-.96,1.36-2.04,1.1-3.1-.37-1.56-2.04-2.98-4.56-3.81-1.52-.51-3.2-.75-4.82-.75h0ZM37.84,72.65c-1.73,0-3.51-.26-5.19-.8-2.88-.97-4.87-2.68-5.29-4.68-.37-1.49.1-3,1.41-4.27,2.88-2.92,9.38-3.94,14.36-2.27,2.88.98,4.87,2.68,5.35,4.7.37,1.48-.16,2.99-1.42,4.26-1.99,1.97-5.55,3.07-9.22,3.07Z"/>
      <path class="cls-4" d="M47.9,66.41c0,.46.05,1.82,0,2.18-.31,2.43-3.04,3.97-5.19,4.64-3.83,1.2-9.17.94-12.47-1.36-1.21-.83-2.31-2.06-2.36-3.58v-1.91c.1,1.07.47,1.88,1.26,2.66,2.31,2.45,6.71,3.18,9.96,2.96,2.78-.19,6.5-1.22,8.12-3.65.47-.63.63-1.19.68-1.94Z"/>
      <path class="cls-2" d="M28.99,69.77c.47.72,1.1,1.27,1.57,1.59,3.3,2.28,8.54,2.37,12,1.28,1.62-.52,3.41-1.51,4.24-2.88-1.94,1.82-5.08,2.67-7.7,2.84-3.09.22-7.55-.41-10.11-2.84h0ZM37.9,74.54c-2.88,0-5.82-.64-8.02-2.17-1.62-1.12-2.52-2.56-2.62-4.07v-1.93c0-.33.26-.6.58-.61.31-.02.63.24.68.57.05.89.37,1.57,1.05,2.28,2.1,2.22,6.29,2.98,9.48,2.77,2.73-.19,6.18-1.18,7.7-3.38.31-.53.52-.99.58-1.65,0-.32.21-.61.63-.56.31.01.58.28.58.61v2.26c-.42,3.26-4.4,4.76-5.61,5.15-1.47.46-3.25.73-5.03.73Z"/>
      <path class="cls-1" d="M39.2,67.06c.26-.15.52-.4.52-.73V20.14c0,.57-.68.87-1.2.97-.63.15-1.62.07-2.15-.41-.16-.15-.31-.34-.31-.56v46.2c0,.4.42.7.73.83.73.3,1.68.28,2.36-.08l.05-.02Z"/>
      <path class="cls-2" d="M38.89,66.55l.31.52-.31-.53c.16-.11.21-.2.26-.22V21.58c-.16.05-.31.1-.47.13-.58.13-1.36.11-1.99-.13v44.75s.1.16.37.27c.58.24,1.31.21,1.84-.06h0ZM37.9,67.99c-.47,0-.89-.08-1.31-.25-.68-.29-1.15-.81-1.15-1.38V20.14c0-.33.26-.6.63-.61h0c.31,0,.58.25.63.58,0,.05.05.11.05.13.42.33,1.15.39,1.68.28.42-.09.68-.3.73-.41,0-.32.26-.58.58-.58h.05c.31,0,.58.28.58.61v46.2c0,.51-.31.95-.84,1.26h0l-.05.02c-.42.25-1,.37-1.57.37Z"/>
      <path class="cls-1" d="M36.53,23.84c3.04.82,6.18-.99,7.02-4.03.79-3.04-1-6.17-4.04-6.99-3.04-.81-6.18.99-7.02,4.03-.79,3.04,1,6.17,4.03,6.98Z"/>
      <path class="cls-2" d="M38.05,13.25c-2.25,0-4.3,1.5-4.93,3.77-.37,1.31-.16,2.68.52,3.86.68,1.18,1.73,2.02,3.04,2.37h0c1.36.36,2.72.17,3.88-.5,1.21-.68,2.04-1.78,2.36-3.09.37-1.32.21-2.69-.47-3.86-.68-1.18-1.78-2.02-3.09-2.37-.47-.12-.89-.17-1.31-.17h0ZM38.05,24.65c-.58,0-1.1-.07-1.68-.21h0c-1.62-.43-2.99-1.48-3.83-2.95-.84-1.46-1.05-3.16-.63-4.79.89-3.36,4.35-5.37,7.76-4.46,1.62.44,2.99,1.48,3.83,2.94.84,1.46,1.05,3.17.63,4.79-.42,1.63-1.47,2.99-2.93,3.84-1,.57-2.04.85-3.14.85Z"/>
      <path class="cls-4" d="M35.33,17.96c-.26-.13-.52-.23-.79-.09l-25.83,14.92c.47-.24,1.05.21,1.31.57.37.46.68,1.17.58,1.77,0,.19-.1.37-.26.48l25.83-14.92c.26-.17.31-.55.31-.84-.05-.69-.52-1.51-1.15-1.87v-.02Z"/>
      <path class="cls-2" d="M10.18,32.63c.1.1.21.22.31.33.31.34.58.86.73,1.41l24.63-14.23v-.27c0-.5-.42-1.13-.84-1.38l.31-.54-.31.53c-.11-.07-.21-.08-.21-.08l-24.63,14.22h0ZM10.33,36.22c-.21,0-.42-.1-.52-.29-.21-.29-.1-.66.16-.84.11-.41-.1-.95-.42-1.34-.26-.31-.52-.43-.58-.4-.31.14-.68.03-.84-.26-.16-.3-.05-.66.26-.83l25.83-14.92c.42-.23.89-.19,1.41.08h0s.05.03.05.03c.73.46,1.36,1.46,1.42,2.36,0,.63-.21,1.14-.63,1.4l-25.83,14.93c-.11.06-.21.08-.32.08Z"/>
      <path class="cls-1" d="M9.6,36.61c1.52.41,3.09-.5,3.51-2.03.42-1.52-.47-3.1-1.99-3.51-1.57-.41-3.14.49-3.51,2.02-.42,1.53.47,3.1,1.99,3.51Z"/>
      <path class="cls-2" d="M9.76,36.01c1.21.32,2.46-.39,2.78-1.59.31-1.2-.42-2.44-1.62-2.76-1.15-.32-2.41.39-2.72,1.59-.31,1.19.42,2.43,1.57,2.75h0ZM10.33,37.32c-.26,0-.58-.04-.89-.12h0c-1.83-.49-2.93-2.4-2.46-4.26.52-1.86,2.41-2.96,4.3-2.46,1.83.5,2.93,2.41,2.41,4.27-.42,1.55-1.78,2.58-3.35,2.58Z"/>
    </g>
  </g>
</svg>