<?xml version="1.0" encoding="UTF-8"?>
<svg id="Layer_2" data-name="Layer 2" xmlns="http://www.w3.org/2000/svg" viewBox="0 0 33.66 41.72" fill="currentColor">
  <defs>
    <style>
      .cls-1 {
        fill: #fff;
      }

      .cls-1, .cls-2, .cls-3, .cls-4 {
        fill-rule: evenodd;
      }

      .cls-2 {
        fill: #1a87c7;
      }

      .cls-3 {
        fill: #bdedf8;
      }

      .cls-4 {
        fill: #66ceef;
      }
    </style>
  </defs>
  <g id="_Layer_" data-name="&amp;lt;Layer&amp;gt;">
    <g>
      <path class="cls-4" d="M26.98,27.49c-3.86-2.23-2.24-.65.02-7.41.74-2.21,1.34-5.05,1.33-7.81-.01-3.09-1.22-5.78-3.43-7.67-.46-.4-.55-.87.05-2.06l.84-1.45.07-.11c.24-.35.69-.81,1.15-.63l2.04,1.17c-.51-.19-.99.36-1.23.74l-.84,1.45c-1.15,2.29,2.14,1.11,3.18,7.26.9,5.3-.96,10.49-3.23,15.14-.21.43-.4,1.03.04,1.38Z"/>
      <path class="cls-2" d="M26.79.6c-.28,0-.61.45-.68.55l-.06.09-.83,1.44c-.62,1.23-.35,1.46-.11,1.67,2.27,1.94,3.52,4.74,3.53,7.9.01,3.35-.84,6.4-1.35,7.92-.75,2.22-1.42,3.54-1.87,4.41q-.66,1.29.9,2.18s.05.03.08.03c.02-.23.09-.51.25-.84,1.98-4.06,4.14-9.43,3.2-14.95-.56-3.31-1.77-4.41-2.58-5.14-.67-.61-1.19-1.09-.58-2.31l.85-1.46c.2-.32.42-.57.65-.72l-1.34-.78s-.05,0-.08,0h0ZM26.98,27.8c-.05,0-.11-.02-.15-.04-.3-.18-.56-.32-.79-.45-1.9-1.07-2.05-1.22-1.15-2.99.44-.85,1.1-2.15,1.83-4.34.5-1.48,1.33-4.45,1.31-7.72-.01-2.97-1.19-5.62-3.32-7.43-.64-.55-.65-1.21-.03-2.43l.92-1.58c.47-.68,1.02-.95,1.53-.76l2.08,1.19c.14.08.19.25.13.4-.07.15-.24.22-.39.16-.31-.11-.68.33-.86.62l-.83,1.44c-.4.79-.2.97.45,1.56.81.73,2.17,1.96,2.77,5.48.97,5.7-1.23,11.18-3.26,15.32-.24.5-.26.84-.04,1.02.13.11.15.28.06.41-.06.09-.16.14-.25.14Z"/>
      <path class="cls-4" d="M23.79,25.11l-2.04-1.17c-.4-.33-.23-.86-.05-1.27.45-.91.79-1.75,1.12-2.7.49-1.6.74-2.96.71-4.63-.19-3.4-2.86-3.62-1.87-5.56.29-.51.76-1.5,1.14-1.92.24-.27.58-.5.92-.36l2.03,1.17c-.48-.21-.95.33-1.17.7l-.79,1.37-.1.2c-.15.38-.26.79.05,1.13.59.53.92,1,1.25,1.7.33.84.47,1.48.55,2.37.09,1.63-.12,2.98-.55,4.56-.39,1.26-.82,2.15-1.34,3.35-.11.36-.18.66.04.99l.1.08Z"/>
      <path class="cls-2" d="M23.5,7.74c-.16,0-.36.19-.47.31-.26.28-.57.88-.83,1.36-.11.19-.2.37-.28.51-.4.78-.09,1.18.47,1.89.56.72,1.33,1.71,1.44,3.5.03,1.6-.18,2.96-.72,4.74-.32.96-.67,1.81-1.13,2.75-.26.6-.16.79-.03.9l1.29.74c.02-.17.06-.32.11-.49l.25-.57c.41-.93.77-1.73,1.09-2.78.47-1.69.62-2.98.54-4.45-.09-.92-.23-1.51-.53-2.26-.33-.7-.64-1.12-1.17-1.59-.49-.54-.25-1.17-.13-1.47l.12-.23.8-1.39c.16-.25.36-.5.6-.67l-1.35-.77s-.04-.02-.07-.02h0ZM23.79,25.42c-.05,0-.11-.02-.16-.04l-2.04-1.17c-.67-.55-.3-1.39-.18-1.67.46-.92.8-1.75,1.11-2.68.52-1.69.72-3.01.69-4.52-.09-1.59-.76-2.44-1.3-3.14-.57-.73-1.12-1.42-.53-2.57.09-.15.18-.32.27-.5.29-.54.61-1.15.92-1.49.41-.46.86-.61,1.27-.43l2.07,1.19c.14.08.19.26.12.4-.07.15-.25.21-.4.15-.26-.11-.63.32-.79.58l-.88,1.55c-.15.41-.15.62,0,.79.57.49.93.99,1.3,1.77.37.93.5,1.63.58,2.46.09,1.56-.07,2.91-.56,4.68-.33,1.1-.7,1.91-1.12,2.86l-.23.54c-.09.31-.11.47,0,.65l.06.05c.13.1.15.28.06.42-.06.08-.15.13-.25.13Z"/>
      <path class="cls-4" d="M7.84,12.93c-1.7-.98-2.34-1.83-3.19-.61-1.4,2.02-3.23,7.41-3.78,10.03-1.05,4.99-1.06,12.67,3.63,15.83l2.04,1.17c-7.3-5.68-3.73-18.76.01-25.63.22-.42.77-1.04,1.29-.79Z"/>
      <path class="cls-2" d="M5.53,12.03c-.23,0-.4.15-.63.47-1.38,1.99-3.18,7.3-3.73,9.92-1.11,5.29-.87,12.5,3.43,15.46-5-6.29-1.96-17.63,1.67-24.3.17-.32.42-.62.71-.8-.08-.05-.15-.09-.22-.14-.61-.39-.96-.61-1.24-.61h0ZM6.54,39.66c-.05,0-.11,0-.15-.04l-2.04-1.17C-.29,35.32-.58,27.8.57,22.29c.56-2.66,2.41-8.09,3.83-10.13.85-1.23,1.67-.7,2.7-.04.26.17.56.36.89.56.14.08.2.26.12.41-.08.15-.26.2-.41.13-.29-.14-.7.31-.89.66-3.89,7.14-7.13,19.77-.09,25.24.13.1.16.28.07.42-.06.09-.16.13-.25.13Z"/>
      <path class="cls-4" d="M7.85,14.94c-.52,1.03-.94,2-1.34,3.09-.49,1.44-.81,2.7-1.05,4.2-.26,2.17-.25,4.01.47,6.09.48,1.18.94,1.89,1.91,2.72l.06.04,2.03,1.17-.06-.04c-.96-.82-1.44-1.57-1.91-2.71-.53-1.54-.65-2.78-.62-4.41.09-1.68.34-3.04.8-4.66.48-1.55,1.02-2.86,1.74-4.31.21-.39.72-1.02,1.23-.77l-2.04-1.17c-.52-.24-1.02.38-1.23.77Z"/>
      <path class="cls-2" d="M8.12,15.08c-.52,1.05-.93,2-1.33,3.06-.5,1.47-.81,2.7-1.03,4.13-.25,2.05-.27,3.85.46,5.95.5,1.2.94,1.83,1.82,2.58l.35.2c-.28-.43-.5-.89-.7-1.39-.58-1.67-.68-2.96-.65-4.53.09-1.63.32-2.99.81-4.73.48-1.55,1-2.85,1.76-4.37.16-.3.39-.58.65-.77l-1.33-.76c-.26-.12-.62.32-.81.64h0ZM9.92,32.55s-.1,0-.14-.04l-2.04-1.17s-.07-.04-.08-.05c-1.1-.93-1.55-1.72-2.02-2.85-.82-2.36-.72-4.39-.5-6.25.23-1.47.55-2.74,1.06-4.25.41-1.1.82-2.05,1.36-3.13h0c.34-.62.97-1.22,1.63-.91l2.06,1.19c.14.08.2.26.12.41-.08.15-.25.2-.4.13-.28-.13-.66.33-.83.64-.74,1.48-1.25,2.75-1.72,4.26-.47,1.69-.7,3.02-.78,4.58-.03,1.48.07,2.72.61,4.28.48,1.17.96,1.85,1.81,2.58h.02c.13.1.18.3.09.43-.06.09-.16.16-.26.16Z"/>
      <path class="cls-1" d="M11.95,28.85c-2.44-2-2.44-6.95,0-11.78.28-.55.25-1.1-.05-1.27l-.79-.46c-.17-.1-.39-.07-.63.08-.24.16-.45.39-.61.69-3.4,6.59-3.4,13.41,0,16.09.16.12.36.12.61,0,.24-.13.46-.35.63-.64l.79-1.37c.31-.53.33-1.1.05-1.33Z"/>
      <path class="cls-2" d="M10.89,15.59c-.08,0-.17.04-.24.09-.19.13-.36.32-.5.57-3.29,6.4-3.33,13.15-.09,15.71.06.05.15.03.27-.03.19-.1.36-.29.51-.53l.79-1.36c.25-.45.24-.85.13-.95-2.55-2.09-2.59-7.2-.08-12.15.22-.42.19-.8.07-.86l-.79-.46s-.04-.02-.07-.02h0ZM10.14,32.6c-.21,0-.37-.09-.46-.15-3.53-2.78-3.56-9.71-.08-16.47.18-.36.42-.63.72-.82.43-.27.75-.19.95-.08l.79.45c.46.27.53.97.17,1.68-2.38,4.69-2.42,9.49-.08,11.4h0c.4.33.41,1.06.02,1.73l-.79,1.37c-.2.35-.45.61-.75.76-.19.09-.35.13-.48.13Z"/>
      <path class="cls-1" d="M8.7,35.77c-4.58-3.33-4.58-12.34,0-20.95.31-.59.3-1.2-.04-1.39l-.84-.49c-.18-.1-.4-.08-.65.08-.25.15-.47.4-.64.71-5.65,10.54-5.65,21.6-.01,25.63.17.12.38.12.64-.03.25-.14.48-.36.65-.68l.84-1.45c.33-.57.35-1.2.04-1.44Z"/>
      <path class="cls-2" d="M7.6,13.18c-.08,0-.18.05-.26.09-.21.13-.39.33-.53.6-5.59,10.43-5.63,21.28-.1,25.23.02.02.1.07.31-.04.21-.12.39-.31.54-.57l.84-1.45c.28-.49.26-.92.12-1.03-4.71-3.42-4.74-12.6-.08-21.36.25-.48.22-.9.08-.97l-.84-.49s-.05-.02-.08-.02h0ZM6.8,39.75c-.19,0-.34-.07-.45-.14-5.78-4.14-5.82-15.33-.08-26.03.19-.37.45-.64.75-.83.45-.28.78-.19.97-.08l.83.48c.49.29.55,1.06.15,1.8-4.51,8.49-4.56,17.33-.1,20.57h0c.45.33.47,1.09.05,1.83l-.84,1.44c-.21.36-.47.63-.77.8-.2.11-.37.15-.52.15Z"/>
      <path class="cls-1" d="M23.73,23.84c2.44-4.82,2.44-9.78,0-11.78-.28-.23-.25-.8.05-1.33l.79-1.37c.17-.3.39-.51.63-.64.24-.13.45-.13.61,0,3.39,2.68,3.39,9.5,0,16.09-.16.3-.36.54-.6.69-.25.15-.46.17-.63.08l-.79-.46c-.31-.17-.33-.72-.05-1.27Z"/>
      <path class="cls-2" d="M23.73,23.84h0,0ZM25.55,8.93c-.05,0-.12.02-.2.06-.19.11-.36.28-.5.53l-.79,1.37c-.25.44-.24.84-.13.94,2.55,2.09,2.59,7.2.08,12.15h0c-.22.42-.19.8-.07.87l.79.45c.08.05.21,0,.31-.07.2-.12.36-.32.5-.57,3.3-6.39,3.33-13.15.09-15.71-.02-.02-.05-.02-.08-.02h0ZM24.8,25.93c-.16,0-.28-.04-.38-.09l-.79-.46c-.46-.27-.53-.98-.17-1.68,2.38-4.7,2.42-9.49.08-11.4-.4-.33-.41-1.05-.02-1.73l.79-1.37c.2-.35.46-.6.75-.76.47-.25.79-.09.94.02,3.53,2.78,3.56,9.71.08,16.47-.19.36-.42.63-.72.81-.22.14-.41.18-.57.18Z"/>
      <path class="cls-1" d="M26.94,26.11c4.58-8.62,4.59-17.64,0-20.96-.31-.23-.3-.85.04-1.43l.84-1.45c.18-.3.4-.54.65-.67.25-.13.47-.14.64-.03,5.64,4.03,5.64,15.1-.01,25.63-.17.32-.38.55-.64.71-.25.16-.48.18-.65.08l-.84-.49c-.33-.19-.35-.8-.04-1.38Z"/>
      <path class="cls-2" d="M27.21,26.25c-.25.48-.22.9-.08.98l.84.48c.09.05.24-.01.34-.07.21-.13.38-.33.53-.59,5.59-10.44,5.63-21.29.1-25.24-.02-.02-.1-.07-.31.05-.2.11-.38.3-.53.56l-.84,1.45c-.28.49-.26.93-.12,1.02,4.71,3.42,4.74,12.6.08,21.35h0ZM28.05,28.35c-.16,0-.29-.05-.39-.11l-.84-.48c-.48-.28-.55-1.05-.15-1.8h0c4.51-8.48,4.56-17.33.1-20.56-.45-.33-.47-1.11-.04-1.83l.84-1.45c.21-.37.47-.63.77-.8.46-.24.78-.14.96,0,5.78,4.14,5.82,15.32.08,26.03-.19.36-.45.64-.75.83-.23.14-.42.19-.58.19Z"/>
      <path class="cls-4" d="M16.25,41.24c-2.42-1.4-1.94-1.12-1.94-6.14v-13.52s1.21.69,1.21.69c0,2.11-.15,17.34.11,18.14l.62.83Z"/>
      <path class="cls-2" d="M14.63,22.11v12.98c0,.83-.02,1.53-.03,2.1-.04,2-.05,2.52.7,3.09-.15-1.3-.15-7.29-.09-15.82,0-.9,0-1.6.01-2.02l-.59-.35h0ZM16.25,41.56c-.05,0-.11-.02-.15-.04l.15-.27-.16.27c-2.12-1.23-2.17-1.35-2.12-4.33.01-.57.02-1.25.02-2.09v-13.52c0-.11.07-.21.16-.27.1-.05.21-.05.31,0l1.21.7c.09.05.15.16.15.26,0,.37,0,1.17-.01,2.2-.03,4.08-.09,14.79.09,15.8l.58.78c.09.12.08.28-.02.39-.06.07-.14.1-.23.1Z"/>
      <polygon class="cls-4" points="15.52 22.28 14.32 21.58 14.33 21.28 14.37 20.97 14.43 20.65 14.52 20.34 14.62 20.02 14.75 19.71 14.89 19.4 15.05 19.1 15.23 18.81 15.43 18.53 15.63 18.27 15.85 18.02 16.08 17.78 16.33 17.57 16.57 17.39 16.83 17.23 17.09 17.09 17.34 16.99 17.58 16.92 17.81 16.89 18.04 16.88 18.24 16.9 18.44 16.96 18.62 17.04 19.82 17.75 19.65 17.66 19.45 17.61 19.24 17.58 19.02 17.58 18.79 17.62 18.55 17.69 18.3 17.79 18.04 17.92 17.78 18.09 17.53 18.27 17.29 18.49 17.06 18.71 16.84 18.96 16.63 19.23 16.44 19.51 16.26 19.8 16.1 20.1 15.95 20.41 15.83 20.72 15.72 21.03 15.64 21.34 15.57 21.66 15.54 21.97 15.52 22.28"/>
      <path class="cls-2" d="M14.63,21.41l.62.36.08-.47.2-.68.28-.65.36-.62.42-.57.47-.5.52-.42.56-.33.4-.15-.25-.12-.31-.05-.37.03-.43.15-.46.28-.45.36-.62.7-.51.83-.36.89-.14.59-.04.38h0ZM15.52,22.59c-.06,0-.11-.02-.15-.04l-1.21-.69c-.1-.06-.16-.17-.15-.28l.05-.64.16-.67.24-.67.32-.63.39-.6.45-.54.5-.47.55-.39.56-.26.54-.12h.26s.49.09.49.09l.23.09,1.23.71c.14.08.2.26.12.41-.08.15-.26.21-.41.14l-.32-.12-.16-.02-.37.03-.43.16-.46.27-.45.36-.62.7-.51.83-.36.89-.13.59-.05.57c0,.11-.07.2-.16.25-.04.03-.1.04-.15.04Z"/>
      <path class="cls-3" d="M20.55,36.7c.02,1.6-1.13,3.57-2.52,4.37-1.39.8-2.52.15-2.52-1.45,0-7.76,0-9.58,0-17.34,0-1.6,1.13-3.56,2.52-4.35,1.39-.8,2.53-.16,2.52,1.45-.08,7.77,0,9.59,0,17.32Z"/>
      <path class="cls-2" d="M19.17,17.89c-.29,0-.62.09-.97.3-1.3.75-2.36,2.58-2.36,4.08v17.34c0,.66.2,1.15.58,1.36.38.22.9.15,1.47-.18,1.3-.75,2.38-2.63,2.36-4.09h0c0-2.86,0-4.91-.02-6.74-.02-3.17-.03-5.69.02-10.59,0-.66-.19-1.14-.57-1.35-.15-.09-.32-.13-.51-.13h0ZM16.91,41.72c-.29,0-.57-.07-.81-.21-.58-.33-.89-1.01-.89-1.89v-17.34c0-1.73,1.18-3.75,2.68-4.62.78-.45,1.53-.51,2.1-.17.57.33.88,1.01.88,1.9-.05,4.9-.04,7.4-.02,10.58,0,1.83.02,3.89.02,6.74.02,1.7-1.18,3.78-2.67,4.64-.44.25-.88.38-1.27.38Z"/>
      <path class="cls-1" d="M17.46,25.63c3,0,5.43-2.43,5.43-5.43s-2.43-5.42-5.43-5.42-5.43,2.43-5.43,5.42,2.43,5.43,5.43,5.43Z"/>
      <path class="cls-2" d="M17.46,15.08c-2.82,0-5.12,2.3-5.12,5.12s2.29,5.12,5.12,5.12,5.12-2.29,5.12-5.12-2.3-5.12-5.12-5.12h0ZM17.46,25.93c-3.16,0-5.73-2.57-5.73-5.74s2.57-5.73,5.73-5.73,5.74,2.57,5.74,5.73-2.57,5.74-5.74,5.74Z"/>
    </g>
  </g>
</svg>