<?xml version="1.0" encoding="UTF-8"?>
<svg id="Layer_2" data-name="Layer 2" xmlns="http://www.w3.org/2000/svg" viewBox="0 0 10.68 41.95" fill="currentColor">
  <defs>
    <style>
      .cls-1 {
        fill: #fff;
      }

      .cls-1, .cls-2, .cls-3, .cls-4 {
        fill-rule: evenodd;
      }

      .cls-2 {
        fill: #1a87c7;
      }

      .cls-3 {
        fill: #bdedf8;
      }

      .cls-4 {
        fill: #66ceef;
      }
    </style>
  </defs>
  <g id="_Layer_" data-name="&amp;lt;Layer&amp;gt;">
    <g>
      <path class="cls-1" d="M4.89,33.72l-.76-.43c.27.13.47.12.75.04l.76.43c-.29.08-.48.09-.75-.04Z"/>
      <path class="cls-2" d="M5.28,34.13c-.17,0-.34-.04-.53-.13-.01,0-.01,0-.02,0l-.76-.43c-.14-.08-.19-.26-.11-.41.08-.15.26-.2.41-.13.17.09.28.09.53.02.08-.02.16-.01.23.03l.76.43c.1.06.17.18.15.31-.02.12-.11.22-.22.26-.16.04-.3.07-.44.07Z"/>
      <polygon class="cls-1" points="5.63 41.65 4.95 41.15 .96 36.46 1.65 36.96 5.63 41.65"/>
      <path class="cls-2" d="M5.63,41.95c-.06,0-.13-.02-.18-.06l-.69-.5-4.03-4.73c-.1-.12-.09-.3,0-.41.11-.11.28-.13.41-.04l.69.5,4.03,4.73c.11.12.1.3,0,.41-.06.07-.14.1-.23.1Z"/>
      <polygon class="cls-4" points="1.65 36.96 .96 36.46 2.08 27.91 2.77 28.41 1.65 36.96"/>
      <path class="cls-2" d="M1.29,36.32l.12.09,1.02-7.86-.12-.09-1.03,7.86h0ZM1.65,37.27c-.06,0-.12-.02-.18-.06l-.69-.5c-.09-.07-.14-.18-.12-.29l1.11-8.55c.02-.11.09-.2.19-.24.09-.04.21-.03.3.03l.69.5c.09.07.15.18.13.29l-1.12,8.55c-.01.11-.08.2-.18.24-.03.02-.08.03-.12.03Z"/>
      <polygon class="cls-1" points="2.77 28.41 2.33 28.15 8.71 24.47 9.15 24.72 2.77 28.41"/>
      <path class="cls-2" d="M2.77,28.72c-.05,0-.12-.01-.16-.04l-.44-.26c-.1-.06-.16-.15-.16-.27,0-.11.06-.21.16-.26l6.38-3.69c.09-.06.22-.06.31,0l.44.26c.1.06.15.16.15.27s-.05.21-.15.26l-6.39,3.69s-.1.04-.15.04Z"/>
      <polygon class="cls-4" points="6.29 41.27 5.54 40.83 5.54 32.95 6.29 33.38 6.29 41.27"/>
      <path class="cls-2" d="M5.84,40.65l.14.08v-7.17l-.14-.08v7.17h0ZM6.29,41.57c-.05,0-.11-.01-.15-.04l-.76-.43c-.1-.06-.15-.16-.15-.27v-7.89c0-.11.05-.21.15-.27.09-.05.22-.05.31,0l.75.44c.09.05.15.16.15.27v7.89c0,.11-.06.21-.15.26-.04.03-.1.04-.15.04Z"/>
      <path class="cls-4" d="M6.29,33.38l-.75-.43c.62-.55,1.01-1.23,1.16-2.04.07-.54.04-1.04-.42-1.36l.75.43c.42.29.46.7.44,1.17-.1.87-.51,1.64-1.18,2.22Z"/>
      <path class="cls-2" d="M6.04,32.88l.21.12c.51-.51.84-1.16.92-1.88.02-.34-.02-.56-.13-.72.01.22-.02.41-.03.55-.15.76-.47,1.4-.96,1.94h0ZM6.29,33.69c-.05,0-.11-.02-.15-.04l-.76-.43c-.09-.05-.14-.14-.15-.24,0-.1.03-.2.11-.26.57-.5.91-1.11,1.06-1.87.07-.56,0-.85-.29-1.05-.14-.09-.17-.28-.09-.42.09-.14.28-.18.42-.1l.75.43c.56.39.62.93.6,1.45-.12.97-.57,1.81-1.3,2.44-.06.05-.13.08-.2.08Z"/>
      <path class="cls-1" d="M5.96,30.09c-.42.24-.81.66-1.08,1.14-.28.48-.45,1.02-.45,1.5s.18.83.45.99c.2.12.46.14.75.04v7.89l-3.98-4.68,1.12-8.56,6.38-3.68,1.11,7.27-3.97,9.28v-7.89c.29-.24.55-.56.75-.91.28-.48.45-1.02.45-1.5s-.17-.83-.45-.99c-.28-.16-.66-.14-1.08.11Z"/>
      <path class="cls-2" d="M1.97,36.87l3.36,3.94v-6.68c-.23,0-.43-.04-.6-.14-.39-.23-.6-.67-.6-1.26,0-.52.18-1.11.49-1.66.31-.54.74-.99,1.19-1.25.51-.29,1-.33,1.38-.11.39.23.61.67.61,1.25,0,.52-.17,1.11-.49,1.66-.2.34-.44.65-.71.89v6.24l3.36-7.82-1.03-6.73-5.86,3.38-1.09,8.27h0ZM5.63,41.95c-.09,0-.17-.04-.24-.11l-3.98-4.68c-.05-.07-.08-.16-.07-.24l1.12-8.55c0-.09.06-.18.15-.23l6.38-3.69c.09-.05.2-.05.28-.01.1.04.16.13.18.23l1.11,7.27c0,.06,0,.11-.02.17l-3.98,9.28c-.05.13-.2.21-.34.18-.15-.03-.25-.16-.25-.3v-7.89c0-.09.04-.18.11-.24.25-.21.49-.5.68-.83.26-.45.41-.94.41-1.35,0-.35-.11-.61-.3-.72-.18-.11-.47-.07-.78.11-.35.2-.7.58-.96,1.02-.25.45-.4.94-.4,1.35,0,.35.1.61.29.72.16.09.36.06.51.02.08-.03.2-.01.28.04.08.06.12.15.12.25v7.89c0,.13-.08.24-.2.29-.03.01-.07.02-.11.02Z"/>
      <path class="cls-3" d="M10.37,26.21v-8.71c-.1,1.62-2.12,2.44-3.48,2.7-1.84.34-4.41.08-5.82-1.23-.43-.4-.73-.88-.76-1.47v8.71c.38,3.68,9.68,3.69,10.07,0Z"/>
      <path class="cls-2" d="M10.37,26.21h0,0ZM.62,18.95v7.19c.17,1.74,2.56,2.52,4.71,2.52h0c2.15,0,4.54-.77,4.72-2.48v-.06s0-7.17,0-7.17c-.74.84-2,1.34-3.12,1.55-1.87.35-4.58.09-6.09-1.3-.09-.08-.17-.17-.24-.25h0ZM5.34,29.28h0c-2.49,0-5.11-.95-5.33-3.04v-8.74c0-.17.13-.3.3-.31h0c.16,0,.3.13.31.29.03.46.24.88.66,1.26,1.35,1.24,3.83,1.47,5.55,1.15,1.43-.27,3.15-1.06,3.23-2.41,0-.17.16-.32.31-.29.17,0,.3.14.3.31v8.64s0,.08,0,.09v.02c-.22,2.1-2.83,3.04-5.34,3.04Z"/>
      <path class="cls-1" d="M10.37,26.21v-8.71c-.1,1.59-2.05,2.42-3.41,2.68v8.64c1.77-.32,3.26-1.2,3.41-2.62Z"/>
      <path class="cls-2" d="M10.37,26.21h0,0ZM7.27,20.44v8.02c1.64-.38,2.68-1.21,2.79-2.27v-.06s0-7.16,0-7.16c-.66.75-1.74,1.23-2.8,1.48h0ZM6.96,29.14c-.08,0-.15-.02-.2-.07-.07-.06-.11-.14-.11-.24v-8.64c0-.15.1-.27.25-.3,1.41-.28,3.08-1.07,3.16-2.4,0-.17.16-.32.31-.29.17,0,.3.14.3.31v8.64s0,.08,0,.09v.02c-.15,1.42-1.52,2.5-3.66,2.89-.02,0-.03,0-.05,0Z"/>
      <path class="cls-4" d="M8.9,19.45c.71-.42,1.44-1.1,1.47-1.99V3.56c-.1,1.62-2.12,2.44-3.48,2.7-1.84.34-4.41.08-5.82-1.23-.43-.4-.73-.87-.76-1.47v13.9c.04,1.17,1.28,1.98,2.27,2.36,1.92.73,4.51.64,6.33-.37Z"/>
      <path class="cls-2" d="M8.9,19.45h.01-.01ZM.62,5.01v12.46c.03.95,1.08,1.7,2.06,2.07,1.91.73,4.41.58,6.07-.35.49-.29,1.3-.89,1.32-1.73V5c-.74.84-2,1.35-3.12,1.56-1.87.35-4.57.09-6.09-1.3-.09-.08-.17-.17-.24-.25h0ZM5.34,20.62c-.99,0-1.98-.17-2.88-.51-.57-.21-2.42-1.04-2.46-2.64V3.56c0-.17.13-.3.3-.31.17-.03.3.12.32.29.03.47.24.88.66,1.26,1.36,1.25,3.83,1.47,5.55,1.15,1.43-.27,3.15-1.06,3.23-2.41,0-.16.15-.29.3-.29t0,0c.17,0,.3.14.3.31v13.9c-.03,1.09-.9,1.82-1.62,2.25h0c-1.05.6-2.38.9-3.71.9Z"/>
      <path class="cls-3" d="M8.9,19.45c.71-.42,1.44-1.1,1.47-1.99V3.56c-.1,1.59-2.05,2.41-3.41,2.68v13.9c.7-.14,1.36-.37,1.94-.7Z"/>
      <path class="cls-2" d="M8.9,19.45h.01-.01ZM7.27,6.49v13.27c.54-.14,1.03-.33,1.48-.58.49-.29,1.3-.89,1.32-1.73V5.01c-.66.75-1.74,1.23-2.8,1.48h0ZM6.96,20.45c-.08,0-.15-.02-.2-.07-.07-.06-.11-.15-.11-.24V6.24c0-.15.1-.27.25-.3,1.41-.28,3.08-1.07,3.16-2.4,0-.16.15-.29.3-.29t0,0c.17,0,.3.14.3.31v13.9c-.03,1.09-.9,1.82-1.62,2.25h0c-.59.34-1.28.58-2.04.73-.02,0-.03,0-.05,0Z"/>
      <path class="cls-3" d="M5.34,6.4c1.29,0,2.58-.29,3.56-.85.98-.57,1.47-1.31,1.47-2.05s-.49-1.49-1.47-2.06c-.98-.57-2.28-.85-3.56-.85s-2.57.28-3.56.85C.8,2,.3,2.75.3,3.49s.5,1.49,1.48,2.06c.98.57,2.27.85,3.56.85Z"/>
      <path class="cls-2" d="M5.34.89c-1.29,0-2.5.29-3.41.81-.85.49-1.32,1.13-1.32,1.79s.47,1.3,1.32,1.79c.91.52,2.12.81,3.41.81s2.5-.29,3.41-.81c.85-.49,1.32-1.13,1.32-1.79s-.47-1.3-1.32-1.79c-.9-.52-2.11-.81-3.41-.81h0ZM5.34,6.71c-1.4,0-2.71-.32-3.71-.89-1.05-.61-1.63-1.43-1.63-2.32S.57,1.78,1.63,1.17c1-.58,2.31-.89,3.71-.89,1.4,0,2.72.32,3.71.89,1.05.61,1.63,1.43,1.63,2.32s-.58,1.71-1.63,2.32c-.99.58-2.31.89-3.71.89Z"/>
      <path class="cls-4" d="M5.34,4.91c1.02,0,2.04-.22,2.82-.67.77-.45,1.17-1.04,1.17-1.63s-.39-1.18-1.17-1.63c-.78-.45-1.8-.67-2.82-.67s-2.04.23-2.82.67c-.78.45-1.17,1.04-1.17,1.63s.39,1.18,1.17,1.63c.77.45,1.8.67,2.82.67Z"/>
      <path class="cls-2" d="M5.34.62c-1.01,0-1.95.22-2.67.63-.65.38-1.01.86-1.01,1.36s.36.98,1.02,1.36c.7.41,1.65.63,2.66.63s1.97-.23,2.67-.63c.65-.38,1.02-.86,1.02-1.36s-.37-.99-1.02-1.36c-.7-.41-1.65-.63-2.67-.63h0ZM5.34,5.22c-1.12,0-2.17-.25-2.97-.71-.85-.49-1.32-1.17-1.32-1.89s.47-1.4,1.32-1.9c.8-.46,1.85-.71,2.97-.71s2.17.25,2.97.72c.85.49,1.32,1.16,1.32,1.89s-.47,1.4-1.32,1.89c-.8.46-1.85.71-2.97.71Z"/>
    </g>
  </g>
</svg>