<?xml version="1.0" encoding="UTF-8"?>
<svg id="Layer_2" data-name="Layer 2" xmlns="http://www.w3.org/2000/svg" viewBox="0 0 41.5 39.09" fill="currentColor">
  <defs>
    <style>
      .cls-1 {
        fill: #fff;
      }

      .cls-1, .cls-2, .cls-3, .cls-4 {
        fill-rule: evenodd;
      }

      .cls-2 {
        fill: #1a87c7;
      }

      .cls-3 {
        fill: #bdedf8;
      }

      .cls-4 {
        fill: #66ceef;
      }
    </style>
  </defs>
  <g id="_Layer_" data-name="&amp;lt;Layer&amp;gt;">
    <g>
      <path class="cls-4" d="M9.55,1.8c.95-.53,1.89-.95,2.96-1.15.91-.17,1.86-.16,2.74.13l.17.06,3.12,1.8c-.57-.2-1.06-.3-1.67-.3-2.75-.04-5.52,1.88-7.39,3.74-3.36,3.36-6.07,8.72-6.07,13.53,0,1.88.44,3.97,1.84,5.33l.13.13-3.12-1.8c-.07-.05-.32-.32-.39-.4C.14,20.9.1,17.71.54,15.27,1.44,10.24,4.91,4.61,9.31,1.94l.24-.14Z"/>
      <path class="cls-2" d="M9.7,2.07l-.24.14C5.32,4.72,1.77,10.11.84,15.32c-.27,1.48-.67,5.15,1.27,7.35.06.06.28.3.35.35l1.67.96c-.81-1.41-1.01-3.08-1.01-4.37,0-4.54,2.48-10.06,6.15-13.74,1.16-1.16,4.2-3.84,7.52-3.84h.08l-1.72-.96c-.76-.25-1.65-.29-2.59-.12-.91.17-1.8.52-2.86,1.12h0ZM5.4,25.37c-.05,0-.11-.01-.15-.04l-3.12-1.81c-.14-.1-.43-.41-.47-.46C-.47,20.67-.05,16.78.24,15.21,1.2,9.84,4.86,4.28,9.15,1.68l.24-.14h0c1.13-.64,2.07-1,3.06-1.19,1.03-.19,2.03-.14,2.89.14l.18.06,3.17,1.83c.14.08.19.25.13.4-.07.14-.23.22-.38.16-.56-.2-1.01-.28-1.58-.29-3.1-.05-6.05,2.54-7.16,3.65-3.57,3.57-5.98,8.92-5.98,13.31,0,1.56.3,3.71,1.74,5.1l.13.12c.12.11.13.28.04.41-.06.08-.15.13-.25.13Z"/>
      <path class="cls-3" d="M12.06,1.74c1.07-.61,2.15-1.08,3.37-1.31,1.03-.19,2.11-.18,3.11.15l.2.07,3.55,2.05c-.65-.23-1.21-.34-1.9-.35-3.13-.04-6.28,2.14-8.4,4.25-3.82,3.82-6.9,9.91-6.89,15.38,0,2.14.5,4.52,2.09,6.05l.15.14-3.55-2.05c-.08-.06-.37-.36-.45-.45-1.98-2.24-2.02-5.86-1.52-8.64C2.85,11.33,6.79,4.94,11.79,1.9l.27-.16Z"/>
      <path class="cls-2" d="M12.22,2.01l-.27.16C7.23,5.03,3.19,11.17,2.13,17.1c-.3,1.68-.76,5.87,1.45,8.38.08.09.34.36.4.41l2.04,1.18c-.99-1.62-1.23-3.58-1.23-5.08,0-5.15,2.81-11.42,6.98-15.59,1.31-1.31,4.76-4.35,8.52-4.35.08,0,.17,0,.25,0l-2.11-1.18c-.87-.29-1.9-.34-2.96-.14-1.04.2-2.05.59-3.27,1.27h0ZM7.34,28.49c-.05,0-.11-.02-.15-.04l-3.55-2.05c-.14-.1-.47-.45-.52-.51-2.39-2.71-1.92-7.13-1.6-8.9C2.61,10.9,6.77,4.59,11.63,1.64l.28-.16s0,0,0,0c1.28-.72,2.35-1.13,3.46-1.34,1.16-.22,2.29-.16,3.27.16l.2.07,3.6,2.07c.14.08.19.25.13.4-.07.14-.23.21-.38.16-.64-.23-1.16-.32-1.8-.33-.03,0-.06,0-.09,0-3.53,0-6.82,2.91-8.08,4.16-4.07,4.07-6.81,10.16-6.8,15.16,0,1.78.34,4.24,1.99,5.83l.15.14c.12.11.13.28.04.41-.06.08-.15.13-.25.13Z"/>
      <path class="cls-4" d="M32.03,7.75c-6.62-2.32-13.89,6.66-16.28,12.82-1.52,3.93-2.6,10.2.88,13.43-1.72-.99-9.76-5.37-10.6-6.31-4.42-5-.3-15.21,3.82-20.18,2.6-3.13,7.52-7.1,11.84-5.68l10.34,5.92Z"/>
      <path class="cls-2" d="M19.78,1.82c-3.51,0-7.29,2.98-9.7,5.88-4.22,5.09-8,15.05-3.83,19.78.64.71,6.16,3.81,8.81,5.29.09.05.17.1.25.14-2.12-3.34-1.41-8.45.14-12.46,2.32-6.01,8.43-13.39,14.38-13.39.14,0,.27,0,.4.01l-8.7-4.99c-.57-.19-1.16-.27-1.75-.27h0ZM16.62,34.31c-.05,0-.11-.01-.16-.04-.35-.2-.95-.54-1.7-.96-4.19-2.34-8.33-4.69-8.97-5.42-4.46-5.05-.66-15.2,3.81-20.58C12.55,3.76,17.51.12,21.79,1.53l10.39,5.95c.14.08.19.25.13.4-.07.14-.23.21-.38.16-6.23-2.19-13.35,6.08-15.89,12.64-1.7,4.39-2.38,10.14.8,13.1.12.1.13.28.04.41-.06.08-.15.12-.25.12Z"/>
      <path class="cls-3" d="M24.77,12.71c4.14-2.39,7.5-.45,7.5,4.33s-3.36,10.6-7.5,12.99c-4.14,2.39-7.5.45-7.5-4.33s3.36-10.6,7.5-12.99h0ZM24.9,8.79c-5.98,3.45-10.84,11.86-10.84,18.77,0,6.91,4.85,9.72,10.83,6.27,5.99-3.45,10.84-11.86,10.84-18.77,0-6.91-4.84-9.72-10.83-6.27h0Z"/>
      <path class="cls-2" d="M24.77,12.71h0,0ZM28.11,11.99c-.97,0-2.06.33-3.19.98h0c-4.05,2.34-7.34,8.05-7.34,12.72,0,2.2.72,3.82,2.04,4.58,1.32.76,3.09.57,4.99-.52,4.05-2.34,7.34-8.05,7.34-12.72,0-2.2-.73-3.83-2.04-4.59-.53-.31-1.14-.46-1.8-.46h0ZM21.42,31.36c-.77,0-1.48-.18-2.11-.54-1.51-.88-2.35-2.69-2.35-5.12,0-4.87,3.43-10.82,7.65-13.26,2.1-1.22,4.1-1.4,5.61-.53,1.52.87,2.35,2.69,2.35,5.12,0,4.87-3.43,10.82-7.65,13.25-1.23.71-2.42,1.07-3.5,1.07h0ZM25.06,9.06c-5.89,3.4-10.68,11.7-10.69,18.5,0,3.23,1.07,5.63,3.02,6.75,1.95,1.12,4.56.86,7.35-.75,5.89-3.4,10.68-11.7,10.69-18.5,0-3.23-1.07-5.63-3.02-6.75-1.95-1.12-4.56-.86-7.35.75h0ZM20.06,35.61c-1.09,0-2.09-.26-2.98-.77-2.15-1.24-3.33-3.83-3.33-7.29,0-7,4.94-15.54,11-19.03h0c2.99-1.73,5.82-2,7.97-.76,2.15,1.24,3.33,3.83,3.32,7.29,0,7-4.94,15.54-11,19.03-1.75,1.01-3.45,1.52-4.99,1.52Z"/>
      <path class="cls-1" d="M25.52,9.84c1.08-.61,2.15-1.09,3.38-1.31,1.03-.19,2.12-.18,3.13.15l.2.07,3.56,2.05c-.65-.23-1.21-.34-1.9-.35-3.14-.05-6.3,2.14-8.42,4.27-3.83,3.83-6.92,9.94-6.92,15.42,0,2.14.5,4.53,2.1,6.07l.16.14-3.56-2.05c-.08-.06-.37-.37-.45-.45-1.98-2.24-2.03-5.88-1.53-8.66,1.03-5.73,4.98-12.15,10-15.19l.27-.16Z"/>
      <path class="cls-2" d="M25.67,10.1l-.27.16c-4.73,2.87-8.78,9.03-9.85,14.97-.3,1.69-.77,5.89,1.46,8.41.08.09.35.36.4.41l2.05,1.18c-1-1.62-1.23-3.59-1.23-5.09,0-5.16,2.82-11.45,7-15.64,1.33-1.33,4.8-4.41,8.64-4.36.06,0,.11,0,.16,0l-2.11-1.18c-.88-.29-1.9-.34-2.97-.14-1.05.2-2.06.59-3.28,1.28h0ZM20.79,36.66c-.05,0-.11-.01-.16-.04l-3.56-2.06c-.14-.1-.47-.45-.53-.51-2.4-2.72-1.92-7.14-1.6-8.92,1.1-6.11,5.26-12.44,10.14-15.4l.27-.16h0c1.28-.73,2.36-1.14,3.47-1.35,1.16-.22,2.3-.16,3.28.16l.2.07,3.61,2.08c.14.08.19.25.13.39-.07.14-.23.21-.38.16-.64-.23-1.16-.32-1.81-.33h-.09c-3.54,0-6.84,2.92-8.1,4.18-4.08,4.08-6.82,10.19-6.82,15.2,0,1.78.35,4.25,2,5.85l.15.14c.12.1.13.28.04.41-.06.08-.15.12-.25.12Z"/>
      <path class="cls-4" d="M26.94,10.24c1.11-.62,2.21-1.11,3.47-1.35,1.06-.2,2.18-.19,3.21.15l.2.07,3.65,2.11c-.67-.24-1.24-.35-1.96-.36-3.22-.05-6.47,2.2-8.65,4.39-3.94,3.94-7.1,10.21-7.1,15.84,0,2.2.51,4.65,2.15,6.23l.16.15-3.66-2.11c-.08-.05-.38-.37-.46-.46-2.04-2.31-2.09-6.04-1.57-8.9,1.06-5.89,5.12-12.48,10.27-15.6l.28-.17Z"/>
      <path class="cls-2" d="M27.1,10.51l-.28.16c-4.86,2.95-9.03,9.28-10.12,15.39-.31,1.74-.79,6.06,1.5,8.64.08.09.36.37.41.42l2.14,1.23c-1.04-1.67-1.28-3.7-1.28-5.26,0-5.3,2.89-11.76,7.19-16.06,1.36-1.36,4.96-4.54,8.87-4.48.07,0,.13,0,.19,0l-2.2-1.23c-.9-.3-1.95-.35-3.05-.14-1.08.2-2.12.61-3.37,1.31h0ZM22.08,37.79c-.05,0-.11-.01-.15-.04l-3.66-2.11c-.14-.1-.48-.46-.54-.52-2.47-2.79-1.97-7.34-1.64-9.16,1.12-6.27,5.4-12.78,10.41-15.81l.28-.17h0c1.32-.75,2.42-1.17,3.57-1.39,1.2-.22,2.36-.17,3.36.17l.21.08,3.71,2.13c.14.08.19.25.13.4-.07.14-.23.21-.38.16-.66-.23-1.19-.33-1.86-.34-.03,0-.07,0-.09,0-3.64,0-7.04,3-8.33,4.3-4.19,4.19-7.01,10.47-7.01,15.62,0,1.84.36,4.37,2.05,6.02l.16.14c.12.11.13.28.04.41-.06.08-.16.13-.25.13Z"/>
      <path class="cls-1" d="M30.22,16.19c-4.14,2.39-7.5,8.21-7.5,12.99s3.35,6.72,7.5,4.33c4.14-2.39,7.5-8.21,7.5-12.99s-3.36-6.72-7.5-4.33Z"/>
      <path class="cls-2" d="M30.38,16.46c-4.05,2.34-7.34,8.04-7.34,12.72,0,2.2.73,3.83,2.04,4.59,1.32.76,3.09.57,5-.53,4.05-2.34,7.34-8.04,7.34-12.72,0-2.2-.73-3.83-2.04-4.59-1.32-.76-3.09-.57-5,.53h0ZM26.87,34.84c-.77,0-1.48-.18-2.11-.55-1.52-.88-2.35-2.69-2.35-5.12,0-4.87,3.43-10.82,7.65-13.25h0c2.1-1.21,4.1-1.4,5.61-.52,1.51.88,2.35,2.69,2.35,5.12,0,4.87-3.43,10.82-7.65,13.25-1.23.71-2.42,1.07-3.5,1.07Z"/>
      <path class="cls-4" d="M34.07,18.41c-.02-1.88-.49-3.82-2.2-4.86,1.25.72,3.83,1.94,4.67,2.98,4.52,5.54-4.35,19.97-10.95,17.8l-4.33-2.41c4.33,2.38,9.68-3.72,11.52-7.93.78-1.78,1.26-3.63,1.28-5.58Z"/>
      <path class="cls-2" d="M23.41,32.76l2.34,1.3c2.55.84,5.99-1.15,8.69-5.07,2.7-3.93,4.21-9.4,1.87-12.26-.49-.61-1.68-1.32-2.77-1.92.55.93.83,2.13.85,3.59h0c-.02,1.88-.45,3.75-1.31,5.71-1.4,3.21-4.66,7.22-7.94,8.33-.59.2-1.16.31-1.72.32h0ZM27.02,34.87c-.51,0-1.02-.08-1.52-.24l-4.38-2.43c-.15-.08-.2-.27-.12-.42.08-.15.27-.2.42-.12,1.05.58,2.24.65,3.52.21,3.11-1.06,6.22-4.91,7.57-8,.82-1.88,1.24-3.67,1.25-5.45-.03-2.27-.7-3.78-2.05-4.59-.14-.09-.19-.27-.11-.42.08-.15.27-.19.42-.11.28.16.62.34.99.54,1.37.74,3.07,1.66,3.77,2.51,2.65,3.24.9,9.01-1.84,13-1.95,2.83-4.92,5.53-7.92,5.53Z"/>
      <path class="cls-3" d="M30.22,16.19c4.14-2.39,7.5-.45,7.5,4.33s-3.36,10.6-7.5,12.99c-4.14,2.39-7.5.45-7.5-4.33s3.35-10.6,7.5-12.99h0ZM30.36,12.27c-5.99,3.45-10.84,11.85-10.84,18.77,0,6.91,4.85,9.72,10.83,6.26,5.99-3.45,10.84-11.85,10.84-18.77,0-6.91-4.85-9.72-10.83-6.26h0Z"/>
      <path class="cls-2" d="M30.22,16.19h0,0ZM33.57,15.47c-.97,0-2.06.33-3.19.98h0c-4.05,2.34-7.34,8.04-7.34,12.72,0,2.2.73,3.83,2.04,4.59,1.32.76,3.09.57,5-.53,4.05-2.34,7.34-8.04,7.34-12.72,0-2.2-.73-3.83-2.04-4.59-.53-.31-1.14-.46-1.8-.46h0ZM26.87,34.84c-.77,0-1.48-.18-2.11-.55-1.52-.88-2.35-2.69-2.35-5.12,0-4.87,3.43-10.82,7.65-13.25,2.1-1.21,4.1-1.4,5.61-.52,1.51.88,2.35,2.69,2.35,5.12,0,4.87-3.43,10.82-7.65,13.25-1.23.71-2.42,1.07-3.5,1.07h0ZM35.19,11.1c-1.43,0-3.02.48-4.68,1.44-5.89,3.4-10.68,11.7-10.68,18.5,0,3.23,1.07,5.63,3.02,6.75,1.95,1.13,4.56.86,7.35-.75,5.89-3.4,10.68-11.7,10.69-18.5,0-3.23-1.07-5.63-3.02-6.75-.79-.46-1.7-.68-2.68-.68h0ZM25.52,39.09c-1.08,0-2.09-.25-2.98-.77-2.15-1.24-3.32-3.83-3.32-7.29,0-7,4.94-15.54,11-19.03l.16.27-.16-.27c2.99-1.73,5.82-2,7.97-.75,2.15,1.24,3.33,3.83,3.32,7.29,0,7-4.94,15.54-10.99,19.03-1.76,1.01-3.45,1.52-4.99,1.52Z"/>
      <path class="cls-2" d="M28.17,7.74c-.05,0-.1-.01-.15-.04L18.09,1.97c-.15-.08-.2-.27-.11-.42.08-.15.27-.2.42-.11l9.92,5.73c.15.08.2.27.12.42-.06.1-.16.15-.27.15Z"/>
      <path class="cls-2" d="M25.32,8.87s-.11-.01-.15-.04L15.22,3.09c-.15-.09-.2-.27-.11-.42.09-.15.27-.2.42-.11l9.95,5.74c.15.08.2.27.11.42-.06.1-.16.15-.27.15Z"/>
      <path class="cls-2" d="M22.69,10.63c-.05,0-.11-.01-.16-.04l-9.92-5.73c-.15-.08-.2-.27-.11-.42.09-.15.27-.2.42-.11l9.92,5.72c.15.09.2.27.11.42-.06.1-.16.15-.26.15Z"/>
      <path class="cls-2" d="M20.12,13.14c-.05,0-.11-.01-.16-.04l-9.88-5.71c-.15-.08-.2-.27-.12-.42.09-.15.28-.2.42-.12l9.88,5.71c.15.09.2.27.11.42-.06.1-.16.15-.26.15Z"/>
      <path class="cls-2" d="M14.05,27.27c-.05,0-.1-.01-.15-.04l-9.9-5.72c-.15-.08-.2-.27-.11-.42.09-.15.27-.2.42-.11l9.9,5.72c.15.08.2.28.11.42-.06.1-.16.15-.27.15Z"/>
      <path class="cls-2" d="M14.53,23.57c-.05,0-.11-.01-.15-.04l-9.7-5.6c-.15-.08-.2-.27-.11-.42.08-.15.27-.2.42-.11l9.7,5.6c.15.08.2.28.11.42-.06.1-.16.15-.27.15Z"/>
      <path class="cls-2" d="M15.76,20.16c-.06,0-.11-.02-.15-.04l-9.84-5.68c-.15-.09-.2-.27-.11-.42.09-.15.27-.2.42-.11l9.84,5.68c.15.08.2.27.12.42-.06.1-.16.15-.27.15Z"/>
      <path class="cls-2" d="M17.56,16.64c-.05,0-.1-.01-.15-.04l-9.68-5.59c-.15-.08-.2-.27-.12-.42.09-.15.28-.2.42-.11l9.69,5.59c.15.08.2.27.11.42-.06.1-.16.15-.27.15Z"/>
      <path class="cls-2" d="M14.35,30.96c-.05,0-.1-.01-.15-.04l-9.8-5.66c-.15-.08-.2-.27-.11-.42.08-.15.27-.2.42-.11l9.8,5.66c.15.08.2.27.11.42-.06.1-.16.15-.26.15Z"/>
    </g>
  </g>
</svg>