<?xml version="1.0" encoding="UTF-8"?>
<svg id="Layer_2" data-name="Layer 2" xmlns="http://www.w3.org/2000/svg" viewBox="0 0 35.17 42.02" fill="currentColor">
  <defs>
    <style>
      .cls-1 {
        fill: #fff;
      }

      .cls-1, .cls-2, .cls-3, .cls-4 {
        fill-rule: evenodd;
      }

      .cls-2 {
        fill: #1a87c7;
      }

      .cls-3 {
        fill: #bdedf8;
      }

      .cls-4 {
        fill: #66ceef;
      }
    </style>
  </defs>
  <g id="_Layer_" data-name="&amp;lt;Layer&amp;gt;">
    <g>
      <path class="cls-4" d="M24.68,36.85v1.09c-.05.61-.24,1-.59,1.48-.54.65-1.07,1.01-1.82,1.39-.98.45-1.83.67-2.89.81-1.14.13-2.1.11-3.23-.05-1.15-.2-2.1-.49-3.14-1.1-.69-.46-1.18-.9-1.55-1.63-.14-.34-.2-.55-.23-.92v-1.09c.03.45.12.7.32,1.1.39.65.84,1.04,1.46,1.45,1.02.61,1.97.9,3.14,1.11,1.13.16,2.09.18,3.23.05,1.06-.15,1.91-.37,2.89-.81.75-.38,1.28-.74,1.82-1.39.31-.43.47-.76.57-1.29l.02-.19Z"/>
      <path class="cls-2" d="M11.74,38.72s0,0,0,0c.34.68.82,1.09,1.44,1.49.9.53,1.78.84,3.03,1.06,1.09.16,2.03.17,3.14.05,1.1-.15,1.91-.38,2.79-.79.69-.35,1.19-.68,1.72-1.31.13-.18.23-.35.31-.51-.55.6-1.08.94-1.76,1.28-.96.44-1.82.68-2.99.84-1.17.13-2.16.12-3.31-.05-1.34-.24-2.28-.57-3.26-1.15-.42-.28-.79-.56-1.11-.93h0ZM17.95,42.02c-.6,0-1.19-.05-1.83-.14-1.34-.24-2.28-.57-3.26-1.15-.7-.46-1.25-.94-1.67-1.76-.17-.41-.23-.64-.26-1.04v-1.11c0-.17.13-.3.3-.31.17-.03.31.12.32.28.03.39.09.61.29.98.36.6.79.96,1.36,1.33.89.53,1.77.84,3.03,1.06,1.09.16,2.03.17,3.14.05,1.1-.15,1.91-.38,2.79-.79.68-.34,1.18-.67,1.71-1.31.3-.41.42-.7.5-1.15v-.16c.03-.16.17-.28.33-.28.16,0,.3.14.3.31v1.09c-.06.73-.29,1.18-.64,1.66-.61.73-1.19,1.11-1.93,1.49-.95.44-1.81.68-2.99.85-.52.06-1,.09-1.48.09Z"/>
      <path class="cls-3" d="M14.6,40.11c-3.22-1.07-4.32-3.45-2.46-5.3,1.85-1.86,5.97-2.49,9.18-1.42,3.21,1.07,4.32,3.45,2.46,5.3-1.86,1.86-5.97,2.49-9.19,1.42Z"/>
      <path class="cls-2" d="M17.95,33.17c-2.24,0-4.41.66-5.6,1.85-.67.67-.94,1.42-.76,2.17.25,1.08,1.41,2.06,3.1,2.62,3.11,1.04,7.09.43,8.87-1.35.67-.67.94-1.42.76-2.17-.25-1.08-1.42-2.06-3.1-2.62-1.03-.34-2.16-.51-3.27-.51h0ZM17.93,40.93c-1.17,0-2.35-.17-3.43-.53-1.92-.64-3.2-1.76-3.51-3.06-.23-.95.11-1.93.92-2.75,1.93-1.93,6.19-2.6,9.5-1.49,1.92.64,3.19,1.75,3.5,3.06.22.95-.1,1.93-.92,2.75-1.3,1.3-3.66,2.03-6.07,2.03Z"/>
      <polygon class="cls-4" points="14.04 34.15 13.4 33.78 19.59 30.21 20.23 30.58 14.04 34.15"/>
      <path class="cls-2" d="M14.02,33.78h.02s5.58-3.2,5.58-3.2h-.02s-5.57,3.2-5.57,3.2h0ZM14.04,34.46c-.05,0-.1-.01-.15-.04l-.64-.37c-.09-.06-.16-.15-.16-.27s.06-.21.16-.26l6.19-3.57c.1-.06.21-.06.31,0l.64.37c.09.05.16.16.16.27s-.06.21-.16.27l-6.19,3.57s-.1.04-.15.04Z"/>
      <polygon class="cls-4" points="14.04 38.17 13.03 37.58 13.03 33.57 14.04 34.15 14.04 38.17"/>
      <path class="cls-2" d="M13.34,37.4l.39.23v-3.3s-.39-.22-.39-.22v3.3h0ZM14.04,38.47c-.05,0-.1-.01-.15-.04l-1.01-.58c-.1-.06-.15-.16-.15-.27v-4.01c0-.11.06-.21.15-.27.1-.05.21-.05.31,0l1.01.58c.1.06.16.16.16.27v4.01c0,.11-.06.21-.16.27-.05.03-.1.04-.15.04Z"/>
      <polygon class="cls-4" points="14.04 34.15 20.23 30.58 20.23 34.59 14.04 38.17 14.04 34.15"/>
      <path class="cls-2" d="M14.35,34.33v3.3l5.57-3.21v-3.3s-5.57,3.22-5.57,3.22h0ZM14.04,38.47c-.05,0-.1-.01-.15-.04-.09-.05-.15-.16-.15-.27v-4.01c0-.11.06-.21.15-.27l6.19-3.57c.1-.06.21-.06.31,0,.09.05.16.16.16.27v4.01c0,.11-.06.21-.16.27l-6.19,3.57s-.1.04-.15.04Z"/>
      <polygon class="cls-3" points="1.83 40.88 .85 40.32 .63 40.13 .45 39.86 .35 39.52 .31 39.11 .31 21 .35 20.55 .46 20.08 .63 19.61 .86 19.16 1.14 18.74 1.45 18.36 1.81 18.03 2.18 17.77 32.02 .56 32.39 .38 32.74 .31 33.06 .33 33.33 .43 34.32 .99 34.04 .89 33.72 .87 33.38 .95 33 1.12 3.16 18.34 2.79 18.6 2.44 18.92 2.12 19.3 1.84 19.73 1.61 20.18 1.44 20.65 1.33 21.11 1.29 21.57 1.29 39.68 1.33 40.09 1.44 40.43 1.61 40.69 1.83 40.88"/>
      <path class="cls-2" d="M.86,39.92l.16.13-.04-.35.04-18.62.12-.51.18-.5.24-.49.29-.45.33-.41.38-.36.41-.29L32.85.85l.34-.16h0s-.18-.07-.18-.07h-.23s-.31.06-.31.06l-.31.15L2.33,18.04l-.35.25-.31.3-.29.35-.25.4-.21.42-.16.43-.1.43-.03.41v18.09s.03.38.03.38l.08.23.13.2h0ZM1.83,41.19c-.05,0-.11-.01-.16-.04l-.98-.57-.27-.22s-.04-.04-.06-.07l-.17-.27s-.03-.05-.04-.07l-.11-.34-.05-.47v-18.14s.04-.48.04-.48l.12-.51.18-.5.24-.48.29-.45.34-.41.38-.36.41-.29L31.87.29l.4-.19.41-.1s.06,0,.08,0l.32.02s.06,0,.09.02l.28.1,1.03.59c.14.08.19.25.12.4-.07.14-.24.21-.39.16l-.23-.09h-.23s-.31.05-.31.05l-.31.15L3.31,18.6l-.35.25-.31.3-.29.35-.26.4-.21.42-.16.43-.1.43-.03.41v18.09s.03.38.03.38l.08.23.13.19.19.16c.12.1.15.28.06.41-.06.08-.15.13-.25.13Z"/>
      <path class="cls-3" d="M3.16,18.34L33,1.12c1.03-.59,1.87-.11,1.87,1.08v18.11c0,1.18-.85,2.64-1.87,3.23L3.15,40.75c-1.02.59-1.86.11-1.86-1.08v-18.11c0-1.18.85-2.64,1.87-3.23Z"/>
      <path class="cls-2" d="M3.16,18.34h0,0ZM33.83,1.18c-.2,0-.43.07-.67.21L3.31,18.6h0c-.93.53-1.71,1.89-1.71,2.96v18.11c0,.46.13.79.39.94.25.15.61.1,1.01-.13l29.84-17.21c.93-.53,1.71-1.89,1.71-2.96V2.2c0-.46-.13-.79-.39-.94-.1-.06-.21-.08-.34-.08h0ZM2.32,41.32c-.23,0-.45-.06-.64-.17-.45-.26-.7-.79-.7-1.47v-18.11c0-1.28.91-2.86,2.03-3.49L32.85.85c.59-.34,1.17-.39,1.62-.13.45.26.7.78.7,1.47v18.11c0,1.29-.91,2.86-2.03,3.5L3.31,41.02c-.34.2-.68.29-.98.29Z"/>
      <path class="cls-4" d="M34.76,1.56c.07.18.1.4.1.64v18.11c0,.22-.04.46-.09.69l-.02-.02L1.33,40.09c-.02-.13-.04-.26-.04-.41v-18.11c0-.3.06-.62.16-.93L34.75,1.61v-.05Z"/>
      <path class="cls-2" d="M1.71,20.84c-.07.25-.1.5-.1.73v18.01s32.9-18.81,32.9-18.81c.03-.16.04-.31.04-.46V2.2s0-.08,0-.12L1.71,20.84h0ZM1.33,40.39s-.09,0-.13-.03c-.09-.04-.15-.13-.17-.22-.03-.14-.04-.3-.04-.47v-18.11c0-.32.06-.67.17-1.02.02-.08.08-.14.14-.18L34.54,1.38c.05-.05.11-.09.18-.1.15-.01.28.04.33.17.08.22.12.47.12.75v18.11c0,.24-.04.5-.1.76-.02.1-.09.18-.19.22-.03.01-.05.02-.08.02L1.48,40.36s-.1.04-.15.04Z"/>
      <polygon class="cls-4" points="1.73 19.95 .75 19.39 .63 19.61 .46 20.08 .35 20.55 .31 21 .31 39.11 .35 39.52 .45 39.86 .63 40.13 .85 40.32 1.83 40.88 1.61 40.69 1.44 40.43 1.33 40.09 1.29 39.68 1.29 21.57 1.33 21.11 1.44 20.65 1.61 20.18 1.73 19.95"/>
      <path class="cls-2" d="M.86,39.92l.16.13-.04-.35.04-18.62.12-.51.18-.5-.44-.25-.14.36-.1.43-.03.41v18.09s.03.38.03.38l.08.23.13.2h0ZM1.83,41.19c-.05,0-.11-.01-.16-.04l-.98-.57-.27-.22s-.04-.04-.06-.07l-.17-.27s-.03-.05-.04-.07l-.11-.34-.05-.47v-18.14s.04-.48.04-.48l.12-.51.31-.76c.04-.07.1-.13.19-.15.08-.02.17-.01.24.03l.98.57c.14.08.19.26.12.41l-.12.22-.16.43-.1.43-.03.41v18.09s.03.38.03.38l.08.23.13.19.19.16c.12.1.15.28.06.41-.06.08-.15.13-.25.13Z"/>
      <path class="cls-2" d="M1.29,23.17c-.1,0-.21-.06-.26-.16-.09-.15-.04-.33.11-.42L34.6,3.28c.15-.08.34-.03.42.11.08.15.03.34-.11.42L1.45,23.13s-.1.04-.15.04Z"/>
      <path class="cls-2" d="M1.29,25.11c-.1,0-.21-.06-.26-.15-.09-.15-.04-.34.11-.42L34.6,5.22c.15-.08.34-.04.42.11.09.15.04.33-.11.42L1.45,25.07s-.1.04-.15.04Z"/>
      <path class="cls-2" d="M1.29,27.05c-.1,0-.21-.06-.26-.15-.09-.15-.04-.34.11-.42L34.6,7.16c.15-.09.33-.04.42.11.09.15.03.34-.11.42L1.45,27s-.1.04-.15.04Z"/>
      <path class="cls-2" d="M1.29,28.98c-.1,0-.21-.05-.26-.15-.09-.15-.04-.34.11-.42L34.6,9.09c.15-.08.34-.03.42.12.08.14.03.33-.11.42L1.45,28.94s-.1.04-.15.04Z"/>
      <path class="cls-2" d="M1.29,30.92c-.1,0-.21-.06-.26-.15-.09-.15-.04-.34.11-.42L34.6,11.03c.15-.08.34-.04.42.11.08.15.03.34-.12.42L1.45,30.88s-.1.04-.15.04Z"/>
      <path class="cls-2" d="M1.29,32.86c-.1,0-.21-.05-.26-.15-.09-.15-.04-.34.11-.42L34.6,12.97c.15-.09.33-.04.42.11.09.15.04.34-.11.42L1.45,32.82s-.1.04-.15.04Z"/>
      <path class="cls-2" d="M1.29,34.8c-.1,0-.21-.05-.26-.15-.09-.15-.04-.34.11-.42L34.6,14.91c.15-.08.33-.04.42.11.09.15.04.34-.11.42L1.45,34.75s-.1.04-.15.04Z"/>
      <path class="cls-2" d="M1.29,36.73c-.1,0-.21-.05-.26-.15-.09-.15-.04-.34.11-.42l33.46-19.31c.14-.08.33-.04.42.11.08.15.03.34-.11.42L1.45,36.69s-.1.04-.15.04Z"/>
      <path class="cls-2" d="M1.29,38.67c-.1,0-.21-.05-.26-.15-.09-.15-.04-.33.11-.42l33.45-19.32c.15-.08.33-.03.42.12.09.15.04.33-.11.42L1.45,38.63s-.1.04-.15.04Z"/>
      <path class="cls-2" d="M1.29,40.61c-.1,0-.21-.06-.26-.15-.09-.15-.04-.34.11-.42l33.45-19.31c.15-.08.33-.04.42.11.09.15.03.34-.11.42L1.45,40.57s-.1.04-.15.04Z"/>
      <polygon class="cls-1" points="3.64 19.56 32.68 2.81 32.67 22.18 3.64 38.93 3.64 19.56"/>
      <path class="cls-2" d="M3.95,19.73v18.66s28.41-16.39,28.41-16.39V3.34S3.95,19.73,3.95,19.73h0ZM3.64,39.24c-.05,0-.11-.02-.16-.04-.09-.05-.15-.16-.15-.27v-19.37c0-.11.07-.21.16-.27L32.52,2.54c.1-.05.21-.06.31,0,.09.05.15.16.15.27v19.37c0,.11-.07.21-.16.27L3.79,39.2s-.1.04-.15.04Z"/>
      <path class="cls-2" d="M2.5,39.74c-.17,0-.31-.14-.31-.31v-19.4c0-.17.14-.31.31-.31s.31.14.31.31v19.4c0,.17-.14.31-.31.31Z"/>
      <path class="cls-2" d="M33.76,21.88c-.17,0-.31-.14-.31-.31V2.18c0-.17.14-.31.31-.31s.31.14.31.31v19.4c0,.17-.14.31-.31.31Z"/>
    </g>
  </g>
</svg>