<?xml version="1.0" encoding="UTF-8"?>
<svg id="Layer_2" data-name="Layer 2" xmlns="http://www.w3.org/2000/svg" viewBox="0 0 33.81 41.52" fill="currentColor">
  <defs>
    <style>
      .cls-1 {
        fill: #fff;
      }

      .cls-1, .cls-2, .cls-3, .cls-4 {
        fill-rule: evenodd;
      }

      .cls-2 {
        fill: #1a87c7;
      }

      .cls-3 {
        fill: #bdedf8;
      }

      .cls-4 {
        fill: #66ceef;
      }
    </style>
  </defs>
  <g id="_Layer_" data-name="&amp;lt;Layer&amp;gt;">
    <g>
      <polygon class="cls-3" points="33.18 1.86 30.56 .35 30.4 .31 30.35 .3 30.3 .31 30.25 .32 30.19 .33 30.14 .35 30.09 .37 30.01 .4 29.96 .43 29.96 .43 15.6 8.73 1.22 17.03 1.03 17.15 .86 17.31 .71 17.5 .57 17.71 .46 17.92 .38 18.15 .33 18.37 .31 18.6 .31 18.68 .32 18.76 .33 18.83 .36 18.89 .37 18.96 .41 19.02 .44 19.07 .48 19.11 7.61 29.27 7.61 29.27 14.79 39.5 14.92 39.61 17.54 41.13 17.44 41.02 10.23 30.8 10.26 30.79 10.23 30.79 3.1 20.62 3.05 20.58 3.03 20.53 3 20.48 2.97 20.42 2.95 20.35 2.95 20.28 2.95 20.2 2.92 20.11 2.95 19.89 3 19.66 3.08 19.43 3.21 19.22 3.34 19.01 3.47 18.83 3.65 18.66 3.84 18.54 18.22 10.24 32.58 1.95 32.58 1.95 32.66 1.91 32.71 1.89 32.76 1.86 32.81 1.84 32.87 1.83 32.92 1.83 33.02 1.83 33.18 1.86"/>
      <path class="cls-2" d="M15.1,39.36l1.34.78-6.45-9.17s-.03-.03-.03-.04l-7.13-10.13s-.08-.11-.08-.13c0,0-.05-.07-.05-.08,0,0-.03-.09-.03-.09s-.03-.08-.03-.09c0,0-.03-.1-.03-.1v-.43l.16-.54.29-.49.37-.4.21-.16L32.34,1.73l-1.99-1.12-.16-.28.03.31-.13-.27.05.3s-.03.02-.03.02L1.21,17.4l-.26.29-.21.37-.11.38v.18s0,.1,0,.1l-.27.17.3-.05s.06.08.07.09l7.14,10.16s0,.03.03.03l7.2,10.24h0ZM17.54,41.43c-.05,0-.1-.02-.16-.05l-2.62-1.51s-.05-.03-.08-.05l-.1-.11-7.2-10.26s-.03-.03-.03-.04L.23,19.29s-.09-.12-.1-.13c0,0-.03-.07-.03-.08,0-.02-.03-.09-.04-.09,0-.01-.02-.09-.02-.09-.01-.02-.02-.09-.02-.11l-.02-.18.02-.26.16-.53.28-.49.37-.41.22-.16L29.8.16s.05-.02.05-.03c.03,0,.03,0,.03,0,.03-.01.08-.04.08-.04.03,0,.08-.03.08-.03.03,0,.08-.03.08-.03.03,0,.08-.02.08-.02.03-.01.16-.02.18-.02h0s.11,0,.11,0l.16.04s.05.02.08.03l2.62,1.51c.13.08.18.24.13.38-.05.15-.21.23-.37.18l-.13-.03-.03-.05-.1-.05v.14l-.13-.21.05.24s0,.02-.03.03L3.84,18.92l-.26.29-.21.36-.1.39-.03.17.03.1-.29.17.31-.06s.05.09.08.09l7.13,10.16s.03.02.03.03l7.23,10.26c.13.11.13.28.03.4-.05.08-.16.12-.24.12Z"/>
      <path class="cls-4" d="M19.03,40.04l7.15-18.45,7.18-18.52c.26-.65.1-1.2-.34-1.23-.13-.02-.29.03-.45.12h0s-14.36,8.29-14.36,8.29L3.84,18.54c-.5.29-.92.99-.92,1.57,0,.23.08.4.18.51l7.13,10.16h.03-.03s7.2,10.23,7.2,10.23c.24.36.79.21,1.23-.34.16-.2.29-.42.37-.64Z"/>
      <path class="cls-2" d="M10.52,30.65l7.15,10.19c.05.04.08.05.13.06h0c.16,0,.39-.13.63-.42.13-.16.24-.36.31-.55h0S33.08,2.95,33.08,2.95c.13-.35.13-.63.05-.75-.03-.04-.08-.06-.13-.07-.05,0-.16.03-.26.08-.03,0-.03.02-.03.03L4,18.8c-.42.24-.76.84-.76,1.31,0,.14.03.24.08.3l7.18,10.21s.03.02.03.03h0ZM17.8,41.52h-.03c-.24,0-.45-.13-.6-.33l-7.18-10.22s-.03-.03-.03-.04l-7.13-10.13c-.13-.13-.21-.38-.21-.69,0-.69.47-1.5,1.05-1.84L32.45,1.68s.03-.02.05-.02c.18-.11.37-.15.55-.13.26.02.47.15.6.36.21.32.21.79,0,1.29l-14.33,36.97c-.1.26-.24.51-.42.74-.31.4-.73.64-1.1.64Z"/>
      <polygon class="cls-1" points="24.61 21.44 18.22 37.94 11.8 28.83 11.8 28.84 5.41 19.73 18.22 12.34 31.01 4.95 24.61 21.44"/>
      <path class="cls-2" d="M12.04,28.62s.03.03.03.03l6.08,8.64,6.18-15.96h0l6.08-15.69L5.86,19.84l6.18,8.79h0ZM18.22,38.25c-.11,0-.18-.05-.26-.13l-6.37-9.08s-.03-.03-.03-.03l-6.39-9.1c-.05-.08-.08-.16-.05-.24,0-.09.05-.16.13-.2L30.88,4.68c.1-.07.24-.05.34.03.1.09.13.23.08.35l-6.39,16.5h0l-6.39,16.5c-.05.1-.16.18-.26.2h-.03Z"/>
      <polygon class="cls-4" points="16.07 16.75 21.63 13.54 19.45 19.29 22.28 17.65 17.62 30 17.62 23.23 16.07 24.14 16.07 16.75"/>
      <path class="cls-2" d="M17.62,22.93c.08,0,.13,0,.16.03.11.06.16.16.16.27v5.09l3.77-9.98-2.1,1.21c-.11.07-.26.05-.37-.03-.08-.09-.13-.22-.08-.35l1.86-4.94-4.66,2.7v6.67l1.13-.64s.08-.03.13-.03h0ZM17.62,30.32s-.03,0-.05-.01c-.13-.03-.24-.15-.24-.3v-6.24l-1.13.64c-.08.05-.21.05-.29,0-.1-.05-.16-.16-.16-.27v-7.39c0-.1.05-.21.16-.26l5.55-3.22c.1-.06.24-.04.34.03.11.09.13.22.11.35l-1.89,4.93,2.12-1.21c.11-.07.24-.05.34.03.1.08.13.22.08.34l-4.66,12.37c-.03.12-.16.2-.29.2Z"/>
      <polygon class="cls-4" points=".31 18.58 .31 18.68 .32 18.76 .33 18.83 .36 18.89 .37 18.96 .41 19.02 .44 19.07 .48 19.11 7.61 29.27 7.61 29.27 14.79 39.5 14.92 39.61 17.54 41.13 17.44 41.02 10.23 30.8 10.26 30.79 10.23 30.79 3.1 20.62 3.05 20.58 3.03 20.53 3 20.48 2.97 20.42 2.95 20.35 2.95 20.28 2.95 20.2 2.92 20.11 2.95 20.09 .31 18.58"/>
      <path class="cls-2" d="M15.1,39.36l1.34.78-6.45-9.17s-.03-.03-.03-.04l-7.13-10.13s-.08-.11-.08-.13c0,0-.05-.07-.05-.08,0,0-.03-.09-.03-.09s-.03-.08-.03-.09c0,0-.03-.1-.03-.1v-.03l-1.62-.93,6.86,9.74s0,.03.03.03l7.2,10.24h0ZM17.54,41.43c-.05,0-.1-.02-.16-.05l-2.62-1.51s-.05-.03-.08-.05l-.1-.11-7.2-10.26s-.03-.03-.03-.04L.23,19.29s-.09-.12-.1-.13c0,0-.03-.07-.03-.08,0-.02-.03-.09-.04-.09,0-.01-.02-.09-.02-.09-.01-.02-.02-.09-.02-.11l-.02-.18c0-.11.07-.23.16-.27.09-.05.21-.08.29-.03l2.62,1.51c.1.06.18.18.16.3l.03.12-.29.17.31-.06s.05.09.08.09l7.13,10.16s.03.02.03.03l7.23,10.26c.13.11.13.28.03.4-.05.08-.16.12-.24.12Z"/>
    </g>
  </g>
</svg>