<?xml version="1.0" encoding="UTF-8"?>
<svg id="Layer_2" data-name="Layer 2" xmlns="http://www.w3.org/2000/svg" viewBox="0 0 19.43 44.08" fill="currentColor">
  <defs>
    <style>
      .cls-1 {
        fill: #fff;
      }

      .cls-1, .cls-2, .cls-3, .cls-4 {
        fill-rule: evenodd;
      }

      .cls-2 {
        fill: #1a87c7;
      }

      .cls-3 {
        fill: #bdedf8;
      }

      .cls-4 {
        fill: #66ceef;
      }
    </style>
  </defs>
  <g id="_Layer_" data-name="&amp;lt;Layer&amp;gt;">
    <g>
      <path class="cls-1" d="M1.53,16.63C1.53,3.84,18.27-5.83,18.27,6.96v21.12c0,12.79-16.74,22.45-16.74,9.67.01,0,0-21.12,0-21.12Z"/>
      <path class="cls-2" d="M1.79,37.75h.06c0,3.69,1.42,5.71,4.01,5.71,4.78,0,12.12-6.89,12.12-15.38V6.96c0-3.68-1.42-5.71-4.01-5.71C9.17,1.25,1.84,8.14,1.84,16.63h0c0,.23,0,5.64,0,10.73,0,7.7,0,9.79-.06,10.39h0ZM5.85,44.08c-2.94,0-4.62-2.31-4.62-6.33v-.02c0-.4,0-20.65,0-21.09v-.02C1.23,7.8,8.93.63,13.95.63c1.38,0,2.53.53,3.33,1.54.86,1.08,1.3,2.7,1.3,4.79v21.12c0,8.83-7.7,15.99-12.73,15.99Z"/>
      <path class="cls-1" d="M3.92,36.37l11.97-6.91c0,9.14-11.97,16.05-11.97,6.91Z"/>
      <path class="cls-2" d="M4.22,36.55c.05,2.47,1.03,3.83,2.78,3.83,3.21,0,8.26-4.69,8.56-10.37l-11.34,6.54h0ZM7,40.99c-1.02,0-1.86-.39-2.45-1.13-.63-.8-.95-1.98-.95-3.49,0-.11.06-.21.15-.27l11.97-6.91c.09-.05.21-.05.31,0,.1.05.15.16.15.27,0,6.36-5.56,11.52-9.19,11.52Z"/>
      <path class="cls-4" d="M9.77,1.01c2.66-1.28,4.3-.65,6.45.58C10.78-1.42,2.24,7.25,1.58,15.43l-.05,1.19.85.49v21.12l-.84-.53c0,.21,0,.42.01.49.1,2.02.38,3.57,2.03,4.93-3.14-1.82-3.27-3.7-3.27-7v-18.57C.31,10.83,3.51,4.01,9.77,1.01Z"/>
      <path class="cls-2" d="M9.91,1.28C4.27,4,.62,10.37.62,17.55v18.57c0,2.33.07,3.89,1.22,5.23-.43-.97-.53-2.02-.59-3.15,0-.07,0-.29-.01-.51,0-.11.06-.21.16-.27.1-.05.22-.05.31,0l.36.23v-20.38l-.69-.4c-.1-.06-.16-.17-.15-.28l.05-1.19C1.7,10.06,5.48,4.18,10.07,1.72c1.12-.6,2.21-.95,3.23-1.03-.99-.18-2.05-.04-3.39.6h0ZM3.58,43.43c-.05,0-.1-.02-.15-.04-3.27-1.89-3.43-3.89-3.43-7.27v-18.57C0,10.14,3.79,3.53,9.64.73h0c2.88-1.38,4.68-.58,6.73.6.15.08.2.27.12.42-.08.15-.27.2-.42.11-2.02-1.11-4.22-.4-5.71.41C6.01,4.6,2.29,10.39,1.89,15.46l-.04.99.69.4c.09.05.15.16.15.26v21.12c0,.11-.06.22-.16.27-.1.06-.22.05-.32-.01l-.35-.21c.12,2.1.46,3.41,1.91,4.61.12.1.15.28.06.41-.06.09-.15.14-.25.14Z"/>
      <polygon class="cls-3" points="2.38 17.11 1.53 16.63 18.27 6.96 19.12 7.45 2.38 17.11"/>
      <path class="cls-2" d="M2.15,16.63l.23.13L18.5,7.45l-.23-.13L2.15,16.63h0ZM2.38,17.43c-.06,0-.11-.02-.15-.04l-.85-.49c-.09-.05-.15-.16-.15-.27,0-.11.06-.21.15-.27L18.12,6.69c.1-.05.21-.05.31,0l.85.5c.1.05.15.16.15.26,0,.11-.06.22-.16.27L2.53,17.38s-.1.04-.15.04Z"/>
      <path class="cls-1" d="M2.38,17.11L19.12,7.45v21.12L2.38,38.23s0-21.12,0-21.12Z"/>
      <path class="cls-2" d="M2.65,17.31c.04.82.04,3.17.05,10.2,0,4.01,0,8.63,0,10.18l16.12-9.31V7.99L2.65,17.31h0ZM2.38,38.54c-.11,0-.21-.06-.27-.15-.03-.05-.04-.11-.04-.17,0-.43,0-20.65,0-21.09v-.02c0-.11.06-.21.15-.26L18.97,7.19c.09-.06.21-.06.3,0,.1.05.16.16.16.26v21.12c0,.11-.06.22-.16.27L2.53,38.5s0,0,0,0c-.04.02-.1.03-.14.03Z"/>
      <path class="cls-1" d="M15.89,8.34L3.92,15.25C3.92,6.11,15.89-.81,15.89,8.34Z"/>
      <path class="cls-2" d="M15.89,8.34h.01-.01ZM12.8,4.34c-3.21,0-8.26,4.68-8.56,10.36l11.34-6.54c-.02-1.29-.3-2.27-.81-2.92-.47-.6-1.13-.9-1.97-.9h0ZM3.92,15.56c-.05,0-.11-.01-.15-.05-.1-.05-.15-.16-.15-.26,0-6.36,5.56-11.53,9.19-11.53,1.02,0,3.4.44,3.4,4.61,0,.1-.06.21-.15.26l-11.97,6.91s-.1.05-.15.05Z"/>
      <path class="cls-4" d="M7.06,19.46c.66-.38,1.2-.08,1.2.69s-.54,1.7-1.2,2.08c-.66.38-1.2.07-1.2-.69s.54-1.69,1.2-2.07Z"/>
      <path class="cls-2" d="M7.06,19.46h0,0ZM7.59,19.6c-.11,0-.24.04-.38.12h0c-.57.33-1.04,1.16-1.04,1.81,0,.25.07.43.2.51.13.07.32.04.54-.08.57-.32,1.04-1.16,1.04-1.81,0-.25-.07-.43-.2-.5-.04-.03-.1-.04-.16-.04h0ZM6.52,22.69c-.17,0-.33-.04-.47-.12-.32-.19-.5-.56-.5-1.04,0-.87.59-1.91,1.35-2.34.42-.24.83-.27,1.16-.09.33.19.51.57.51,1.04,0,.88-.59,1.9-1.35,2.34-.24.14-.47.21-.69.21Z"/>
      <path class="cls-4" d="M10.75,17.32c.66-.37,1.2-.07,1.2.69s-.53,1.7-1.2,2.07c-.66.38-1.19.08-1.19-.69s.53-1.7,1.19-2.08Z"/>
      <path class="cls-2" d="M10.9,17.59c-.57.33-1.04,1.16-1.04,1.81,0,.25.07.43.2.5.13.08.32.04.54-.08.56-.33,1.04-1.16,1.04-1.81,0-.25-.07-.43-.19-.51-.13-.07-.32-.04-.54.09h0ZM10.21,20.56c-.16,0-.32-.04-.46-.12-.33-.19-.51-.56-.51-1.04,0-.88.59-1.9,1.35-2.34h0c.42-.24.83-.28,1.15-.09.33.19.51.56.51,1.04,0,.88-.59,1.9-1.35,2.34-.24.14-.47.21-.69.21Z"/>
      <path class="cls-4" d="M14.44,15.19c.66-.38,1.2-.07,1.2.7s-.54,1.68-1.2,2.07c-.66.38-1.2.07-1.2-.69s.54-1.69,1.2-2.08Z"/>
      <path class="cls-2" d="M14.6,15.46c-.57.32-1.04,1.16-1.04,1.81,0,.25.07.44.2.5.13.07.32.04.54-.08.57-.32,1.04-1.15,1.04-1.8,0-.25-.07-.43-.19-.51-.13-.07-.32-.04-.54.09h0ZM13.91,18.42c-.17,0-.32-.03-.47-.12-.32-.18-.51-.56-.51-1.04,0-.88.6-1.9,1.35-2.35h0c.42-.23.83-.27,1.16-.08.32.18.5.56.5,1.05,0,.87-.59,1.9-1.35,2.34-.24.14-.47.2-.69.2Z"/>
      <path class="cls-4" d="M7.06,23.6c.66-.39,1.2-.08,1.2.69s-.54,1.69-1.2,2.07c-.66.38-1.2.07-1.2-.69s.54-1.69,1.2-2.07Z"/>
      <path class="cls-2" d="M7.06,23.6h0,0ZM7.59,23.73c-.11,0-.24.04-.38.12h0c-.57.33-1.04,1.16-1.04,1.81,0,.25.07.43.2.51.13.07.32.03.54-.09.57-.33,1.04-1.16,1.04-1.81,0-.25-.07-.43-.2-.51-.04-.03-.1-.04-.16-.04h0ZM6.52,26.83c-.17,0-.33-.04-.47-.12-.32-.19-.5-.56-.5-1.04,0-.87.59-1.9,1.35-2.34.42-.24.83-.27,1.16-.09.33.19.51.57.51,1.05,0,.88-.59,1.9-1.35,2.34-.24.14-.47.21-.69.21Z"/>
      <path class="cls-4" d="M10.75,21.46c.66-.38,1.2-.07,1.2.7s-.53,1.68-1.2,2.07c-.66.38-1.19.08-1.19-.69s.53-1.7,1.19-2.08Z"/>
      <path class="cls-2" d="M10.9,21.73c-.57.33-1.04,1.15-1.04,1.81,0,.25.07.43.2.51.13.08.32.04.54-.08.56-.33,1.04-1.16,1.04-1.81,0-.25-.07-.43-.19-.51-.13-.07-.32-.03-.54.09h0ZM10.21,24.7c-.17,0-.32-.04-.46-.12-.33-.19-.51-.56-.51-1.04,0-.88.59-1.9,1.35-2.34h0c.42-.24.83-.28,1.15-.09.33.19.51.56.51,1.04,0,.88-.59,1.9-1.35,2.34-.24.14-.47.21-.69.21Z"/>
      <path class="cls-4" d="M14.44,19.33c.66-.38,1.2-.07,1.2.69s-.54,1.69-1.2,2.07c-.66.38-1.2.07-1.2-.69s.54-1.7,1.2-2.08Z"/>
      <path class="cls-2" d="M14.98,19.48c-.11,0-.24.03-.38.12-.56.32-1.04,1.15-1.04,1.81,0,.24.07.43.2.5.13.07.32.04.54-.09.57-.32,1.04-1.15,1.04-1.8,0-.25-.07-.44-.19-.51-.05-.03-.1-.03-.16-.03h0ZM13.91,22.56c-.17,0-.32-.04-.47-.12-.32-.18-.51-.56-.51-1.03,0-.88.6-1.9,1.35-2.35.42-.23.83-.27,1.16-.08.32.18.5.56.5,1.04,0,.87-.59,1.89-1.35,2.34-.24.14-.47.2-.69.2Z"/>
      <path class="cls-4" d="M7.06,27.79c.66-.38,1.2-.08,1.2.69s-.54,1.7-1.2,2.08c-.66.37-1.2.07-1.2-.69s.54-1.7,1.2-2.07Z"/>
      <path class="cls-2" d="M7.06,27.79h0,0ZM7.59,27.92c-.11,0-.24.04-.38.12h0c-.57.33-1.04,1.16-1.04,1.81,0,.25.07.43.2.5.13.08.32.04.54-.08.57-.33,1.04-1.16,1.04-1.81,0-.25-.07-.43-.2-.5-.04-.03-.1-.04-.16-.04h0ZM6.52,31.02c-.17,0-.33-.04-.47-.12-.32-.19-.5-.56-.5-1.04,0-.88.59-1.9,1.35-2.34.42-.24.83-.27,1.16-.09.33.19.51.56.51,1.04,0,.88-.59,1.91-1.35,2.34-.24.14-.47.21-.69.21Z"/>
      <path class="cls-4" d="M10.75,25.65c.66-.38,1.2-.07,1.2.7s-.53,1.68-1.2,2.07c-.66.38-1.19.08-1.19-.69s.53-1.7,1.19-2.08Z"/>
      <path class="cls-2" d="M10.9,25.92c-.57.32-1.04,1.16-1.04,1.81,0,.25.07.43.2.5.13.08.32.04.54-.08.56-.33,1.04-1.16,1.04-1.81,0-.25-.07-.44-.19-.51-.13-.07-.32-.04-.54.09h0ZM10.21,28.89c-.17,0-.32-.04-.46-.12-.33-.19-.51-.56-.51-1.04,0-.88.59-1.9,1.35-2.34h0c.42-.24.83-.28,1.15-.09.33.18.51.56.51,1.04,0,.87-.59,1.9-1.35,2.34-.24.14-.47.21-.69.21Z"/>
      <path class="cls-4" d="M14.44,23.52c.66-.38,1.2-.07,1.2.69s-.54,1.69-1.2,2.08c-.66.38-1.2.07-1.2-.7s.54-1.68,1.2-2.07Z"/>
      <path class="cls-2" d="M14.6,23.79c-.57.32-1.04,1.15-1.04,1.8,0,.25.07.44.2.51.13.07.32.04.54-.09.57-.32,1.04-1.15,1.04-1.81,0-.24-.07-.44-.19-.51-.13-.07-.32-.04-.54.09h0ZM13.9,26.75c-.17,0-.32-.03-.46-.12-.32-.18-.51-.56-.51-1.04,0-.87.6-1.89,1.35-2.34h0c.42-.24.83-.27,1.16-.08.32.18.5.56.5,1.04,0,.88-.59,1.9-1.35,2.34-.24.13-.47.2-.69.2Z"/>
    </g>
  </g>
</svg>