<?xml version="1.0" encoding="UTF-8"?>
<svg id="Layer_2" data-name="Layer 2" xmlns="http://www.w3.org/2000/svg" viewBox="0 0 44.01 40.1" fill="currentColor">
  <defs>
    <style>
      .cls-1 {
        fill: #fff;
      }

      .cls-1, .cls-2, .cls-3, .cls-4 {
        fill-rule: evenodd;
      }

      .cls-2 {
        fill: #1a87c7;
      }

      .cls-3 {
        fill: #bdedf8;
      }

      .cls-4 {
        fill: #66ceef;
      }
    </style>
  </defs>
  <g id="_Layer_" data-name="&amp;lt;Layer&amp;gt;">
    <g>
      <path class="cls-4" d="M2.8,27.01l3.88,6.74c.36.61.95.95,1.64.95,1.75.14,8.47.6,11.48,0,1-.2,1.76-.77,1.76-1.88v-3.91c0-.98-.52-1.49-1.28-1.75-1.26-.43-16.98-.14-17.48-.14Z"/>
      <path class="cls-2" d="M8.32,34.38c1.39.11,8.36.62,11.42,0,.69-.14,1.5-.53,1.5-1.58v-3.91c.01-.75-.33-1.21-1.06-1.45-.41-.14-3.1-.33-16.68-.14h-.18l3.62,6.28c.3.51.78.79,1.38.79h0ZM15.3,35.3c-2.98,0-6.12-.24-7.01-.31h0c-.77,0-1.47-.4-1.87-1.1l-3.89-6.74c-.05-.09-.05-.21,0-.3.05-.1.16-.16.27-.16.05,0,.3,0,.69,0,10.58-.15,16.1-.09,16.88.17.99.33,1.49,1.02,1.49,2.04v3.91c0,1.13-.74,1.93-2.01,2.18-1.15.24-2.83.31-4.56.31Z"/>
      <path class="cls-4" d="M38.13,29.62l4.59-3.55c.17-.29.26-.61.26-.93s-.09-.63-.26-.93l-5.26-10.05c-.51-.44-.86-.89-1.48-1.06-.46-.12-1.28.2-1.72.45l-3.26,1.73c-.23.13-.42.28-.56.48-.14.18-.24.4-.31.65-.07.25-.09.48-.05.72.02.24.1.46.23.69l7.82,11.8Z"/>
      <path class="cls-2" d="M35.75,13.38c-.35,0-.93.21-1.33.44l-3.28,1.73c-.18.11-.33.24-.45.39-.11.16-.2.34-.26.55-.05.21-.07.42-.04.61.02.19.09.38.2.57l7.61,11.5,4.29-3.3c.12-.23.19-.48.19-.73s-.08-.53-.22-.78l-5.24-10.01c-.11-.09-.2-.17-.3-.26-.34-.33-.61-.58-1.02-.7-.05,0-.09-.02-.15-.02h0ZM38.13,29.92s-.04,0-.05,0c-.09,0-.16-.06-.21-.13l-7.81-11.78c-.17-.28-.26-.55-.3-.82-.03-.27,0-.56.07-.84.07-.29.2-.55.36-.77.16-.22.38-.4.64-.55l3.27-1.73c.4-.23,1.35-.64,1.95-.48.56.15.91.49,1.29.84.1.09.2.19.31.29.03.02.05.05.07.09l5.27,10.05c.19.33.3.7.29,1.07,0,.37-.1.75-.3,1.08-.02.03-.05.07-.08.09l-4.6,3.55c-.05.03-.11.06-.18.06Z"/>
      <path class="cls-4" d="M39.3,32.56l3.89-6.73c.35-.61.35-1.29,0-1.89-1.37-2.88-2.96-5.79-4.95-8.76-.49-.72-.96-1.7-1.88-1.95-.47-.12-.98-.07-1.43.19l-3.38,1.95c-1.07.61-1.08,1.56-.69,2.58,2.81,4.88,5.62,9.74,8.44,14.61Z"/>
      <path class="cls-2" d="M35.87,13.48c-.27,0-.54.08-.78.22l-3.39,1.94c-.78.45-.95,1.13-.55,2.21l8.15,14.11,3.62-6.27c.3-.51.3-1.08,0-1.58-1.53-3.22-3.15-6.07-4.93-8.74-.08-.11-.15-.24-.23-.36-.4-.63-.82-1.29-1.47-1.46-.14-.04-.28-.06-.42-.06h0ZM39.3,32.88h0c-.11,0-.22-.06-.27-.16l-8.44-14.61c-.53-1.4-.24-2.4.81-3.01l3.38-1.95c.51-.3,1.1-.37,1.67-.22.88.23,1.39,1.02,1.83,1.73.07.11.15.23.22.35,1.81,2.7,3.43,5.58,4.97,8.8.39.68.39,1.48-.02,2.18l-3.89,6.73c-.05.1-.16.16-.26.16Z"/>
      <path class="cls-4" d="M19.19,12.06v-.03c1.4-2.41,4.99-8.62,6.38-11.03h-7.78c-.35,0-.67.08-.95.24-.28.16-.51.39-.69.69-2.02,2.95-3.95,6.14-5.67,9.83h0c-.93,1.6.46,2.45,1.62,3.12l2.45,1.42c.23.13.46.21.69.24.24.03.49,0,.74-.05.25-.07.48-.18.67-.32.19-.15.35-.34.48-.57h.01l2.05-3.55Z"/>
      <path class="cls-2" d="M19.19,12.06h0,0ZM17.79,1.31c-.3,0-.57.07-.8.2-.23.14-.42.34-.57.59-2.28,3.31-4.12,6.51-5.66,9.8-.37.63-.36,1.12,0,1.59.35.47,1.02.85,1.49,1.13l2.45,1.42c.19.11.38.18.58.21.19.03.4,0,.62-.05.22-.05.4-.15.56-.26.16-.12.3-.28.41-.47,0-.02,0-.03.02-.03L25.03,1.32h-7.24ZM15.47,16.88c-.09,0-.18-.01-.26-.02-.28-.03-.55-.13-.82-.29l-2.44-1.42c-1.06-.61-2.84-1.63-1.74-3.54,1.54-3.3,3.41-6.53,5.68-9.85.18-.32.46-.6.79-.79.33-.19.7-.29,1.11-.29h7.78c.11.01.21.07.26.16.06.1.06.22,0,.31l-6.36,11.03-.28-.13.26.16-2.05,3.55s0,.02-.02.03c-.15.25-.33.46-.54.63-.23.17-.49.3-.78.37-.2.05-.4.08-.59.08Z"/>
      <path class="cls-3" d="M33.6,27.73c-.34.43-.71.84-1.11,1.23-1.23,1.22-2.66,2.12-4.17,2.73-.31.13-.02-.35.21-1.01,1.94-.55,3.67-1.57,5.07-2.96Z"/>
      <path class="cls-2" d="M28.76,30.94c-.03.1-.08.19-.11.28.49-.21.96-.47,1.42-.75-.43.18-.86.34-1.3.47h0ZM28.22,32.02c-.12,0-.21-.06-.25-.1-.19-.2-.09-.44.08-.85.05-.15.12-.3.18-.49.03-.09.11-.16.21-.19,1.85-.52,3.56-1.52,4.94-2.88.11-.11.3-.12.42,0,.12.1.14.3.04.42-.36.44-.74.87-1.14,1.26-1.24,1.22-2.68,2.16-4.27,2.8-.08.03-.15.05-.21.05Z"/>
      <path class="cls-1" d="M23.54,5.83c-7.73,0-13.99,6.27-13.99,14s6.27,14,13.99,14,14-6.28,14-14-6.27-14-14-14Z"/>
      <path class="cls-2" d="M23.54,6.14c-7.54,0-13.69,6.14-13.69,13.69s6.15,13.69,13.69,13.69,13.7-6.15,13.7-13.69-6.15-13.69-13.7-13.69h0ZM23.54,34.14c-7.88,0-14.31-6.41-14.31-14.31s6.42-14.31,14.31-14.31,14.32,6.41,14.32,14.31-6.42,14.31-14.32,14.31Z"/>
      <path class="cls-1" d="M32.48,10.89c-1.17-1.17-2.57-2.11-4.1-2.75-1.49-.62-3.12-.96-4.83-.96s-3.35.34-4.84.96c-1.54.64-2.94,1.57-4.1,2.75-1.16,1.17-2.1,2.56-2.75,4.1-.62,1.49-.96,3.12-.96,4.83s.34,3.35.96,4.83c.64,1.55,1.58,2.94,2.75,4.1,1.17,1.16,2.56,2.1,4.1,2.75,1.49.62,3.12.96,4.84.96s3.34-.34,4.83-.96c1.54-.64,2.94-1.58,4.1-2.75,1.17-1.17,2.1-2.56,2.75-4.1.62-1.49.96-3.12.96-4.83s-.34-3.35-.96-4.83c-.64-1.54-1.58-2.94-2.75-4.1Z"/>
      <path class="cls-2" d="M23.55,7.5c-1.64,0-3.23.31-4.72.93-1.5.63-2.85,1.53-4.01,2.69-1.16,1.16-2.05,2.5-2.68,4-.62,1.5-.93,3.09-.93,4.72s.31,3.23.93,4.72c.62,1.5,1.52,2.84,2.68,4,1.16,1.16,2.5,2.06,4.01,2.68,2.99,1.24,6.44,1.24,9.43,0,1.5-.62,2.85-1.52,4.01-2.68s2.05-2.5,2.68-4c.62-1.5.93-3.09.93-4.72s-.31-3.22-.93-4.72c-.63-1.5-1.52-2.84-2.68-4s-2.5-2.06-4.01-2.69c-1.5-.62-3.09-.93-4.71-.93h0ZM23.55,32.78c-1.72,0-3.39-.33-4.95-.98-1.57-.65-2.99-1.6-4.21-2.82-1.22-1.21-2.16-2.63-2.81-4.2-.65-1.57-.98-3.24-.98-4.95s.33-3.38.98-4.95c.65-1.57,1.59-2.99,2.81-4.2,1.22-1.22,2.63-2.16,4.21-2.82,3.14-1.3,6.75-1.3,9.9,0,1.57.65,2.99,1.6,4.21,2.82h0c1.21,1.21,2.16,2.63,2.81,4.2.65,1.57.98,3.23.98,4.95s-.33,3.38-.98,4.95c-.65,1.57-1.6,2.99-2.81,4.2-1.22,1.22-2.63,2.16-4.21,2.82-1.56.65-3.23.98-4.94.98Z"/>
      <path class="cls-3" d="M33.15,11.61c.46.54,1.62,2.26,2.13,3.5.63,1.55.92,3.21.91,4.86-.02,1.65-.36,3.3-1.01,4.83-.63,1.48-1.56,2.87-2.79,4.07-1.23,1.2-2.64,2.09-4.13,2.69-.62.25,1.15-1.84.05-3-1.09-1.15-5.74.19-5.61-2.18.13-2.36,1.16-2.35,1.71-3.6.55-1.23,1.2-.23,3.52-1.02,2.32-.79,5.4-.68,6.41-1.73,1.01-1.05-3.85.21-4.75-.02-.9-.23-1.08-1.29-1.72-1.26-.63.03-.27,1.19-.99,1.41-.71.23-2.64.56-2.76-.26-.45-3.14,1.97-2.15,2.11-2.31.64-.74-.75-1.33.1-2.37.87-1.04,1.72-1.23,2.18-1.96.45-.73-1.07-1.29-.36-1.86.69-.56,4.5-.34,4.98.22Z"/>
      <path class="cls-2" d="M25.55,22.41c-.51,0-.65.03-.86.5-.21.47-.47.77-.73,1.06-.45.5-.87.98-.95,2.43-.06,1.02,1.07,1.17,2.8,1.28,1.13.06,2.2.12,2.72.68.8.83.36,2.03.07,2.73,1.32-.59,2.52-1.42,3.56-2.44,1.17-1.14,2.09-2.48,2.72-3.96.64-1.5.97-3.09.99-4.72.02-1.63-.28-3.23-.89-4.74-.49-1.21-1.62-2.88-2.08-3.41-.35-.4-3.95-.66-4.55-.18-.11.08-.12.11.16.47.24.31.61.77.28,1.31-.26.41-.62.67-1,.94-.37.26-.79.56-1.2,1.05-.35.43-.23.69-.06,1.07.16.35.37.83-.05,1.31-.13.16-.31.14-.57.11-.36-.03-.9-.09-1.23.24-.28.3-.36.88-.24,1.71,0,.05.02.09.09.13.39.25,1.59.09,2.27-.11.17-.06.23-.23.31-.57.09-.34.21-.83.75-.87.46-.03.76.33,1.01.63.22.27.45.55.8.63.28.08,1.29-.07,2.1-.18,1.97-.29,2.75-.35,2.96.08.07.13.1.36-.18.64-.66.69-2.01.91-3.56,1.16-1.01.16-2.05.32-2.97.64-1.08.36-1.8.36-2.34.36h-.13ZM28.18,31.89c-.13,0-.22-.06-.26-.1-.19-.2-.09-.45.08-.84.24-.59.65-1.58.1-2.16-.37-.39-1.36-.44-2.31-.5-1.55-.09-3.48-.2-3.38-1.92.09-1.65.62-2.26,1.1-2.8.24-.27.46-.52.63-.9.39-.87.89-.87,1.56-.87.49,0,1.16,0,2.15-.33.98-.33,2.04-.5,3.08-.66,1.31-.22,2.54-.41,3.12-.9-.48,0-1.5.13-2.15.23-1.21.17-1.97.27-2.35.17-.55-.14-.87-.53-1.12-.84-.21-.26-.33-.43-.5-.41-.06.01-.1.06-.18.39-.09.36-.21.85-.73,1.01-.54.17-2.09.5-2.78.05-.22-.14-.34-.33-.37-.56-.16-1.05-.02-1.77.41-2.23.52-.55,1.31-.48,1.73-.43.04.01.08.01.11.01.07-.13.03-.26-.1-.57-.18-.4-.45-1,.14-1.71.46-.56.92-.88,1.32-1.17.36-.25.64-.45.82-.75.1-.15.03-.29-.24-.62-.23-.3-.65-.84-.06-1.32.8-.65,4.8-.46,5.42.25h0c.49.56,1.66,2.3,2.18,3.59.63,1.58.95,3.25.93,4.97-.02,1.72-.36,3.38-1.03,4.96-.67,1.56-1.63,2.97-2.86,4.16-1.22,1.2-2.65,2.13-4.22,2.76-.08.03-.15.04-.2.04Z"/>
      <path class="cls-3" d="M22.7,7.21c-2.95.2-5.84,1.43-8.09,3.68-1.22,1.22-2.13,2.61-2.75,4.1-1.28,3.09-1.28,6.6,0,9.7.51,1.23,1.23,2.41,2.16,3.47.07.08.16.12.26.13.11,0,.2-.03.27-.11.84-.96,3.28-1.64,3.44-2.91.12-.96-1.45-1.33-1.86-2.19-.47-.98-.1-2.29-.7-3.18-.63-.93-3.03-1.02-3.68-1.93-.36-.51-.1-1.26.09-1.85.08-.25.39-.4.65-.47.36-.09.75,0,1.14.02.02,0,3.61-.55,4.7-1.02,1.11-.48.5-1.11.98-1.31.49-.19,1.24,1.27,1.99.62.74-.64,1.33-3.76,1.59-4.48.27-.72,1.25-.02,1.51.14.26.15-.45,1.55-.12,1.8.33.26,1.73-.62,1.9-.8,1.05-1.04.79-2,.2-2.47-.58-.47-2.38.16-3.42-.82-.07-.07-.17-.1-.27-.09Z"/>
      <path class="cls-2" d="M22.7,7.21l.02.31c-2.97.19-5.78,1.47-7.89,3.58-1.16,1.16-2.06,2.5-2.68,4-.06.14-.11.27-.16.41.16-.1.33-.15.43-.18.3-.08.58-.05.86-.03.12.02.24.03.36.03.21-.03,3.57-.56,4.58-.99.5-.22.53-.42.56-.66.03-.2.06-.51.43-.64.36-.16.69.11,1.02.37.47.37.67.47.89.3.47-.41.93-2.22,1.21-3.31.12-.47.21-.84.3-1.05.11-.3.31-.43.46-.48.49-.16,1.1.2,1.42.4l.08.05c.32.19.22.6.08,1.12-.05.19-.14.53-.14.69.34-.04,1.3-.59,1.47-.76.43-.43.65-.86.63-1.26-.02-.3-.16-.56-.4-.75-.16-.13-.59-.14-1.01-.15-.78-.02-1.74-.03-2.43-.69l-.06-.32h0ZM11.36,17.89c-.36,2.23-.1,4.56.78,6.66.51,1.23,1.22,2.37,2.11,3.39.43-.4,1.01-.74,1.62-1.1.85-.5,1.74-1.02,1.82-1.64.04-.34-.27-.6-.8-.98-.41-.3-.83-.59-1.03-1.03-.24-.5-.28-1.06-.32-1.6-.04-.57-.08-1.12-.36-1.54-.26-.38-.99-.63-1.7-.85-.79-.27-1.61-.54-1.99-1.08-.05-.08-.09-.15-.13-.23h0ZM14.3,28.58h-.03c-.19,0-.36-.09-.49-.23-.93-1.07-1.68-2.27-2.22-3.56-1.3-3.15-1.3-6.77,0-9.93.65-1.57,1.6-2.98,2.82-4.2,2.22-2.22,5.16-3.56,8.29-3.76h0c.18-.02.36.04.5.17.52.5,1.31.51,2.02.52.57.02,1.06.03,1.39.28.37.3.6.73.63,1.2.02.4-.11,1.04-.81,1.73,0,0-1.7,1.3-2.31.82-.34-.26-.2-.78-.05-1.35.04-.16.11-.37.11-.49h0c-.16-.1-.67-.42-.89-.35,0,.01-.05.02-.09.12-.06.18-.16.56-.27.99-.43,1.68-.84,3.13-1.41,3.62-.63.56-1.29.03-1.68-.28-.12-.1-.34-.28-.42-.28,0,.02-.02.1-.02.16-.04.3-.11.78-.93,1.14-1.11.49-4.7,1.04-4.82,1.04h-.01c-.13,0-.27-.02-.41-.03-.23-.03-.45-.04-.65,0-.22.06-.4.17-.43.27-.18.57-.39,1.22-.13,1.57.26.38.98.62,1.68.84.8.27,1.63.54,2.01,1.1.37.56.43,1.21.47,1.84.03.51.07.98.26,1.38.14.3.5.55.84.8.54.39,1.15.84,1.05,1.56-.12.93-1.13,1.52-2.11,2.1-.57.33-1.11.64-1.4.99-.12.13-.3.21-.49.21Z"/>
      <path class="cls-1" d="M22.76.31h-4.54c3.15,2.57,3.63,5.26,5.08,7.97h0c.15.26.06.59-.19.74l-4.21,1.44,11.22,3.61,5.48-10.2-3.56,1.43c-.26.15-.58.06-.74-.2l-1.58-2.09c-1.82-2.4-2.85-2.61-4.51-2.68h-2.45Z"/>
      <path class="cls-2" d="M19.87,10.44l10.1,3.24,4.95-9.22-2.77,1.11c-.16.09-.38.12-.6.06-.22-.06-.4-.2-.51-.39l-1.56-2.07c-1.77-2.34-2.74-2.49-4.28-2.55h-6.15c1.93,1.78,2.75,3.63,3.54,5.43.31.68.62,1.39.99,2.09,0,0,.01,0,.01.02.21.4.07.9-.33,1.12l-3.38,1.17h0ZM30.12,14.37s-.06,0-.1-.02l-11.22-3.6c-.13-.04-.21-.16-.22-.29,0-.14.08-.25.21-.3l4.21-1.44c.06-.03.09-.18.03-.29-.39-.72-.7-1.44-1.01-2.14-.89-2-1.72-3.89-4.01-5.75-.1-.09-.14-.23-.1-.35.04-.12.17-.2.3-.2h6.99c1.69.08,2.86.31,4.76,2.81l1.59,2.09c.05.08.1.12.16.14.06.02.12,0,.17-.02l3.6-1.44c.13-.05.26-.02.35.08.09.1.1.24.04.35l-5.48,10.2c-.06.11-.17.17-.28.17Z"/>
      <polygon class="cls-3" points="18.9 10.45 18.25 11.57 29.47 15.17 30.12 14.06 18.9 10.45"/>
      <path class="cls-2" d="M18.71,11.39l10.62,3.42.33-.57-10.63-3.41-.32.56h0ZM29.47,15.48s-.06,0-.09-.02l-11.23-3.6c-.09-.03-.16-.1-.19-.18-.03-.09-.03-.18.02-.26l.64-1.11c.08-.13.23-.18.36-.14l11.22,3.6c.09.03.16.09.19.18.04.09.03.18-.02.27l-.64,1.11c-.05.1-.16.16-.27.16Z"/>
      <path class="cls-3" d="M18.5,1.32c-2.58-1.07-6.8,8.42-8.18,10.73C11.26,10.3,15.51-.16,18.48.33c2.31,0,4.26,6.08,4.83,7.99.13.25.04.56-.21.7l-.84.29c-.32-1.65-1.82-7.17-3.76-7.98Z"/>
      <path class="cls-2" d="M18.62,1.05c2.14.89,3.54,6.4,3.87,7.85l.51-.17c.05-.03.09-.16.04-.27-1.49-4.92-3.19-7.82-4.56-7.82-.52-.09-1.09.24-1.69.8.64-.46,1.25-.62,1.83-.38h0ZM10.33,12.36c-.05,0-.11-.02-.16-.04-.15-.08-.2-.26-.12-.41.15-.28.38-.78.68-1.43C13.36,4.82,16.13-.38,18.53.02h0c2.14,0,3.95,4.46,5.07,8.21.18.35.03.83-.35,1.05l-.9.31c-.08.03-.17.02-.25-.03-.08-.05-.13-.12-.15-.2-.35-1.82-1.85-7.04-3.57-7.75h0c-1.82-.75-5.14,5.58-6.73,8.62-.43.83-.8,1.53-1.07,1.98-.06.1-.16.15-.26.15Z"/>
      <path class="cls-1" d="M41.24,30.44l2.28-3.93c-3.81,1.45-5.53,1.01-9.45.42-.18-.11-.54-.05-.54-.54l.86-4.36-8.73,7.92,6.09,9.85.55-3.8c0-.3.24-.54.53-.54,2.94-.37,5.42-.13,7.19-2.9l1.23-2.12Z"/>
      <path class="cls-2" d="M41.24,30.44h.01-.01ZM26.06,30l5.51,8.91.42-2.95c0-.18.08-.4.24-.56.16-.16.36-.24.59-.25.42-.05.87-.1,1.31-.14,2.35-.22,4.2-.4,5.61-2.61l3.07-5.31c-3.07,1.04-4.85.75-7.9.29l-.9-.14s-.08-.02-.11-.04c-.01,0-.06-.02-.09-.03-.18-.05-.6-.17-.6-.77l.69-3.51-7.86,7.12h0ZM31.75,40.1c-.1,0-.21-.05-.26-.15l-6.09-9.84c-.08-.13-.06-.3.05-.39l8.73-7.92c.1-.09.24-.1.36-.04.12.07.18.2.16.33l-.86,4.36q0,.08.17.12c.05.02.11.03.17.06l.85.13c3.3.51,4.95.76,8.39-.54.12-.04.26,0,.35.09.08.1.09.24.03.36l-2.27,3.93h0l-1.23,2.12c-1.57,2.47-3.67,2.67-6.09,2.9-.43.04-.87.09-1.32.14-.1,0-.15.02-.2.07-.04.04-.07.1-.07.16l-.55,3.84c-.02.12-.11.23-.24.25-.02,0-.04,0-.06,0Z"/>
      <path class="cls-3" d="M34.39,22.03l-.29-1.07-8.74,7.92.29,1.06,8.73-7.92h0ZM42.49,26.25c2.22-1.7-3.98-10.26-5.2-12.45,1.23,1.68,8,10.6,6.08,12.93-1.16,1.99-7.4.63-9.33.18-.28-.02-.51-.25-.51-.53l.18-.88c1.59.55,7.12,2.02,8.78.74h0Z"/>
      <path class="cls-2" d="M33.94,25.92l-.1.54c0,.06.09.16.22.16,5.07,1.18,8.35,1.17,9.05-.03.3-.37.43-1.03.11-2.2.16.95.03,1.68-.54,2.11-1.83,1.41-7.32-.15-8.74-.58h0ZM40.17,28.11c-1.87,0-4.17-.42-6.2-.89-.39-.03-.74-.39-.74-.84l.18-.93c.02-.09.07-.17.15-.21.08-.04.17-.05.26-.03,1.74.61,7.01,1.91,8.49.78h0c1.57-1.21-2.3-7.29-4.15-10.22-.5-.79-.9-1.42-1.14-1.83-.08-.14-.03-.32.1-.41.14-.09.32-.05.42.08l.24.33c5.24,7.12,7.14,11.37,5.82,12.98-.5.86-1.8,1.18-3.44,1.18h0ZM25.72,28.98l8.22-7.45.1.39-8.22,7.46-.1-.4h0ZM25.66,30.25s-.06,0-.09,0c-.11-.03-.18-.11-.21-.22l-.28-1.06c-.04-.11,0-.23.09-.31l8.73-7.92c.08-.07.19-.1.3-.06.11.03.18.11.21.21l.29,1.07c.03.11-.01.23-.09.3l-8.74,7.92c-.06.05-.13.08-.21.08Z"/>
      <path class="cls-1" d="M3.66,29.8l2.27,3.93c.64-4.02,2.74-5.78,4.36-8.39h0c.15-.25.48-.34.73-.19l3.36,2.92-2.49-11.53-11.57.36,3.02,2.37c.25.15.34.48.19.73l-1.02,2.43c-1.16,2.77-.83,3.77-.07,5.24l1.22,2.13Z"/>
      <path class="cls-2" d="M3.92,29.64l1.86,3.21c.58-2.56,1.77-4.2,2.93-5.78.44-.61.9-1.24,1.32-1.9,0,0,0-.02,0-.03.24-.38.75-.5,1.14-.28l2.7,2.35-2.24-10.37-10.47.32,2.36,1.85c.16.09.3.27.36.49.05.22.03.44-.09.64l-1,2.39c-1.14,2.7-.79,3.61-.08,4.98l1.21,2.11h0ZM5.93,34.03c-.11,0-.21-.05-.27-.15l-2.27-3.94h0l-1.22-2.12c-.78-1.5-1.17-2.63.05-5.52l1.02-2.43c.04-.09.05-.15.03-.21-.02-.05-.05-.11-.1-.13L.12,17.14c-.11-.08-.15-.22-.11-.34.04-.12.16-.21.29-.21l11.57-.36c.14-.02.28.1.31.24l2.49,11.52c.03.13-.03.27-.14.33-.12.07-.26.06-.36-.03l-3.35-2.93c-.06-.03-.2,0-.26.12-.02.02-.03.04-.05.06-.39.63-.85,1.27-1.3,1.88-1.29,1.77-2.51,3.44-2.98,6.35-.03.13-.12.22-.25.25h-.05Z"/>
      <path class="cls-3" d="M14.38,28.07h1.29l-2.49-11.53h-1.29l2.49,11.53h0ZM6.67,32.97c.36,2.76,8.28,2,13.13,1.71-2.04.33-12.92,1.63-13.99-1.19-1.16-2,3.15-6.73,4.5-8.18.16-.24.47-.31.71-.16l.67.58c-1.27,1.11-5.29,5.16-5.03,7.24h0Z"/>
      <path class="cls-2" d="M12.26,16.85l2.36,10.91h.66l-2.36-10.91h-.66ZM14.38,28.38c-.15,0-.28-.1-.3-.24l-2.5-11.52c-.02-.09.01-.19.06-.26.06-.07.15-.11.24-.11h1.29c.15,0,.27.1.3.24l2.49,11.53c.02.09,0,.19-.06.26-.05.07-.15.11-.23.11h-1.29ZM10.78,25.37c-.07,0-.16.04-.22.12-3.5,3.75-5.17,6.67-4.49,7.85.15.39.53.69,1.09.93-.45-.32-.73-.73-.8-1.26-.28-2.13,3.43-5.96,4.87-7.28l-.41-.36s-.03,0-.04,0h0ZM12.33,35.57c-3.15,0-6.22-.42-6.81-1.98-1.07-1.84,1.89-5.64,4.56-8.49.22-.33.71-.44,1.1-.23l.72.62c.06.06.1.15.1.23s-.05.17-.1.23c-1.4,1.21-5.17,5.12-4.93,6.96h0c.29,2.24,7.04,1.82,11.5,1.53l1.31-.08c.16,0,.3.11.32.28.02.16-.1.3-.25.33-.08.02-3.85.58-7.53.58Z"/>
    </g>
  </g>
</svg>