<?xml version="1.0" encoding="UTF-8"?>
<svg id="Layer_2" data-name="Layer 2" xmlns="http://www.w3.org/2000/svg" viewBox="0 0 21.94 40.61" fill="currentColor">
  <defs>
    <style>
      .cls-1 {
        fill: #fff;
      }

      .cls-1, .cls-2, .cls-3, .cls-4 {
        fill-rule: evenodd;
      }

      .cls-2 {
        fill: #1a87c7;
      }

      .cls-3 {
        fill: #bdedf8;
      }

      .cls-4 {
        fill: #66ceef;
      }
    </style>
  </defs>
  <g id="_Layer_" data-name="&amp;lt;Layer&amp;gt;">
    <g>
      <path class="cls-3" d="M18.5,1.07v1.06l.69.4.77-.45c.34-.2.74-.2,1.08,0l.36.21c.15.08.23.23.23.4v27.64c-.01.19-.07.29-.23.4l-14.39,8.32c-.66.38-1.25.78-1.96,1.03-1.14.32-2.22.3-3.35-.11-.72-.32-1.36-.75-1.39-1.61V10.73l.02-.09c.02-.19.09-.37.21-.55.35-.53,1.46-1.05,1.95-1.33C7.27,5.99,12.05,3.22,16.84.46c.34-.2.74-.2,1.08,0l.36.2c.15.08.23.23.23.4h0Z"/>
      <path class="cls-2" d="M17.38.62c-.13,0-.26.04-.39.11L2.64,9.02c-.09.06-.21.12-.34.19-.5.27-1.26.68-1.5,1.05-.09.13-.14.27-.16.41l-.02.12v27.58c.03.57.38.96,1.22,1.33,1.03.37,2.03.41,3.14.09.52-.18.98-.46,1.48-.75l.41-.24,14.39-8.32c.07-.04.07-.06.08-.15V2.69c0-.06-.03-.1-.08-.13l-.35-.21c-.25-.14-.52-.14-.77,0l-.77.45c-.1.06-.21.06-.31,0l-.69-.4c-.09-.06-.15-.16-.15-.27v-1.07c0-.06-.02-.1-.08-.13l-.36-.2c-.12-.07-.25-.11-.38-.11h0ZM3.51,40.61c-.65,0-1.28-.12-1.91-.35-.73-.32-1.56-.82-1.6-1.89L.03,10.57c.02-.22.11-.45.25-.66.33-.49,1.13-.92,1.72-1.24.12-.07.24-.13.32-.18L16.69.19c.44-.26.94-.26,1.39,0l.35.2c.24.14.39.39.39.66v.9l.39.22.62-.36c.44-.26.95-.26,1.39,0l.36.21c.24.14.38.39.38.67v27.64c-.02.31-.13.5-.37.66l-14.82,8.57c-.5.3-1.02.61-1.61.81-.56.16-1.11.24-1.64.24Z"/>
      <polygon class="cls-4" points="17.78 5.25 19.57 4.21 19.57 32.66 17.78 33.69 17.78 5.25"/>
      <path class="cls-2" d="M18.09,5.43v27.73l1.18-.68V4.75l-1.18.68h0ZM17.78,34c-.05,0-.1-.01-.15-.04-.1-.05-.15-.15-.15-.26V5.25c0-.11.06-.21.15-.26l1.79-1.04c.09-.06.21-.06.31,0,.1.06.15.15.15.26v28.44c0,.11-.06.21-.15.27l-1.79,1.03s-.1.04-.16.04Z"/>
      <path class="cls-4" d="M4.83,7.42v32.72c-.92.26-1.99.19-2.9-.08-.8-.29-1.6-.75-1.63-1.7V10.73l.02-.09c.1-.87,1.12-1.28,1.78-1.66.91-.52,1.81-1.04,2.72-1.55Z"/>
      <path class="cls-2" d="M4.52,7.95c-.76.42-1.51.85-2.26,1.29-.1.06-.21.12-.32.18-.58.31-1.24.67-1.3,1.25l-.02.12v27.58c.03.62.47,1.06,1.44,1.41.81.24,1.73.29,2.48.13V7.95h0ZM3.59,40.61c-.57,0-1.16-.09-1.74-.26-.46-.17-1.8-.65-1.85-1.98L.03,10.57c.1-.87.94-1.33,1.62-1.7.11-.06.21-.11.31-.17.91-.53,1.81-1.04,2.73-1.55.09-.05.21-.05.3,0,.09.05.15.16.15.27v32.72c0,.14-.09.26-.22.3-.41.12-.86.18-1.33.18Z"/>
      <path class="cls-3" d="M2.87,10.37l7.67-4.43h0l7.74-4.47s.03-.02.05-.04c.02-.01.03-.02.04-.04.02-.01.03-.03.04-.04h0s.02-.03.03-.05h0s.02-.04.03-.06h0s.01-.04.02-.06c0-.02.01-.04.01-.06,0-.02,0-.04,0-.05v1.86L4.33,11.14c-.45.26-1.05.39-1.53.11-.4-.23-.21-.71,0-.84.21-.12.05-.03.07-.04h0Z"/>
      <path class="cls-2" d="M2.99,10.66l-.03.02s-.08.1-.08.19c0,.04.01.08.08.11.47.28,1.05-.02,1.22-.11L18.2,2.77v-.9L3.09,10.6s-.02.02-.03.02h0s-.03.02-.05.03c0,0-.01,0-.02,0h0ZM3.41,11.71c-.28,0-.53-.07-.76-.2-.25-.14-.39-.38-.39-.65,0-.29.16-.58.39-.71.01,0,.02-.01.04-.02,0-.01.02-.02.03-.02L18.12,1.21s.05-.04.06-.05c0-.17.15-.34.32-.34h0c.17,0,.31.1.31.26v1.86c0,.11-.06.21-.15.27L4.48,11.4c-.36.2-.73.31-1.08.31Z"/>
      <path class="cls-3" d="M9.43,10.02l-3.03,1.75c-.61.35-.94.58-1.63.76-1.15.29-2.52.17-3.49-.4-.93-.54-1.21-1.41-.69-2.1.34-.46,1.29-.91,1.74-1.18C7.16,6.06,12,3.26,16.84.46c.34-.2.74-.2,1.08,0l.36.21c.15.08.23.23.23.4s-.08.31-.23.4c-4.63,2.67-9.26,5.34-13.89,8.02l-1.51.88c-.28.16-.37.43-.29.65.03.09.1.17.21.23.48.28,1.08.14,1.53-.11L19.97,2.1c.34-.2.74-.2,1.08,0l.36.2c.15.09.23.23.23.4s-.09.31-.23.4l-11.97,6.92Z"/>
      <path class="cls-2" d="M17.38.63c-.13,0-.26.04-.39.11L2.47,9.12c-.09.05-.2.11-.32.18-.44.24-1.1.6-1.34.92-.17.23-.23.48-.17.73.07.35.35.68.78.92.86.5,2.15.64,3.27.37.56-.14.86-.31,1.31-.58l3.28-1.9h0l11.97-6.92c.05-.03.08-.07.08-.13s-.03-.1-.08-.14l-.35-.21c-.25-.14-.52-.14-.77,0L4.48,11.4c-.64.37-1.32.41-1.84.11-.16-.09-.28-.23-.34-.39-.15-.38.03-.8.42-1.02l1.51-.87c3.24-1.88,6.49-3.76,9.74-5.63l4.14-2.39c.05-.03.08-.07.08-.13s-.02-.11-.08-.14l-.36-.2c-.12-.07-.25-.11-.38-.11h0ZM3.51,12.99c-.87,0-1.73-.2-2.39-.59-.58-.34-.96-.81-1.07-1.33-.09-.42.01-.85.28-1.22.32-.43,1.02-.81,1.53-1.09.12-.06.22-.12.3-.17L16.69.2c.44-.26.95-.25,1.38,0l.36.2c.24.14.39.39.39.67s-.14.53-.38.67l-4.15,2.39c-3.25,1.88-6.5,3.75-9.74,5.63l-1.51.88c-.13.07-.19.18-.15.27,0,.02.02.05.07.08.48.27,1.06-.02,1.22-.11L19.82,1.83c.44-.26.95-.25,1.39,0l.35.2c.24.14.38.39.38.67s-.14.53-.38.67L6.31,12.18c-.48.28-.83.49-1.47.65-.43.11-.88.16-1.33.16Z"/>
      <path class="cls-1" d="M19.2,2.55l-.69-.4L2.77,11.23l.03.02c.48.29,1.08.14,1.53-.11L19.2,2.55Z"/>
      <path class="cls-2" d="M18.5,2.5L3.66,11.07c.23-.05.42-.15.51-.2L18.58,2.55l-.08-.04h0ZM3.4,11.72c-.28,0-.54-.07-.76-.2-.1-.06-.17-.17-.17-.28,0-.11.04-.22.14-.27L18.35,1.88c.1-.05.21-.05.31,0l.69.4c.09.05.15.16.15.27s-.06.21-.15.27L4.48,11.4c-.36.21-.73.31-1.08.31Z"/>
      <polygon class="cls-4" points="14.41 1.23 12.62 2.27 17.78 5.25 19.57 4.21 14.41 1.23"/>
      <path class="cls-2" d="M13.24,2.27l4.55,2.62,1.18-.68-4.55-2.63-1.18.68h0ZM17.78,5.56c-.05,0-.1-.01-.15-.04l-5.16-2.98c-.09-.06-.15-.16-.15-.26,0-.11.06-.21.15-.27l1.79-1.04c.1-.05.21-.05.31,0l5.16,2.98c.1.06.15.15.15.26s-.06.21-.15.27l-1.79,1.04s-.1.04-.16.04Z"/>
    </g>
  </g>
</svg>