<?xml version="1.0" encoding="UTF-8"?>
<svg id="Layer_2" data-name="Layer 2" xmlns="http://www.w3.org/2000/svg" viewBox="0 0 27.51 40.37" fill="currentColor">
  <defs>
    <style>
      .cls-1 {
        fill: #fff;
      }

      .cls-1, .cls-2, .cls-3, .cls-4 {
        fill-rule: evenodd;
      }

      .cls-2 {
        fill: #1a87c7;
      }

      .cls-3 {
        fill: #bdedf8;
      }

      .cls-4 {
        fill: #66ceef;
      }
    </style>
  </defs>
  <g id="_Layer_" data-name="&amp;lt;Layer&amp;gt;">
    <g>
      <path class="cls-2" d="M18.64,33.32s-.1-.02-.14-.03c-.16-.08-.21-.27-.13-.42l5.92-11.29c.08-.15.27-.21.42-.13.15.08.21.26.13.42l-5.93,11.29c-.05.11-.16.17-.27.17Z"/>
      <path class="cls-2" d="M8.83,33.32c-.11,0-.22-.06-.28-.17l-6.03-11.49c-.08-.15-.03-.34.13-.42.15-.08.33-.03.42.13l6.03,11.49c.08.15.03.34-.13.42-.04.02-.09.03-.14.03Z"/>
      <path class="cls-3" d="M23.23,23.23c-2.43,2.42-5.79,3.93-9.49,3.93s-7.07-1.5-9.5-3.93C1.81,20.8.3,17.44.3,13.73.3,6.31,6.31.3,13.74.3c11.49,0,18.2,14.22,9.49,22.93Z"/>
      <path class="cls-2" d="M13.74.62C6.5.62.62,6.5.62,13.73c0,3.5,1.37,6.8,3.84,9.28,2.48,2.48,5.77,3.84,9.28,3.84s6.8-1.37,9.27-3.84h0c3.87-3.87,4.94-9.16,2.87-14.16C23.81,3.85,19.04.62,13.74.62h0ZM13.74,27.48c-3.68,0-7.13-1.44-9.72-4.02S0,17.4,0,13.73C0,6.16,6.16,0,13.74,0c5.54,0,10.53,3.38,12.71,8.62,2.14,5.16.99,10.84-3,14.83h0c-2.59,2.59-6.04,4.02-9.71,4.02Z"/>
      <path class="cls-1" d="M13.91.3c1.87.03,3.6.43,5.17,1.11-.11,0-.23,0-.35,0-1.44.05-3.09.53-4.84,1.5,0-.99,0-1.68,0-2.16v-.46Z"/>
      <path class="cls-2" d="M14.21.63v.14c0,.39,0,.92,0,1.64,1.2-.62,2.36-1.02,3.48-1.19-1.12-.36-2.28-.56-3.47-.59h0ZM13.89,3.22c-.05,0-.11,0-.16-.05-.09-.05-.15-.15-.15-.26,0-.99,0-1.68,0-2.16v-.45c0-.08.04-.15.1-.22.05-.05.13-.09.22-.09h0c1.85.03,3.64.41,5.3,1.14.13.06.21.2.18.35-.04.14-.16.24-.3.24h-.34c-1.42.04-3.06.55-4.7,1.46-.04.03-.1.03-.15.03Z"/>
      <path class="cls-1" d="M26.65,10.13c1.17,3.97.56,8.49-2.58,12.19.24-.75.37-1.61.37-2.57,0-2.93-1.19-6.26-3.11-9.28-1.8-2.82-4.23-5.37-6.94-7.07,3.56.12,6.75,1.26,9.11,3.03,1.37,1.04,2.46,2.3,3.15,3.69Z"/>
      <path class="cls-2" d="M15.52,3.78c2.29,1.64,4.42,3.92,6.07,6.52,2.04,3.2,3.16,6.55,3.16,9.45,0,.45-.03.88-.08,1.29,2.17-3.17,2.8-7.04,1.7-10.79-.66-1.32-1.71-2.55-3.05-3.56-2.11-1.59-4.85-2.61-7.79-2.9h0ZM24.07,22.63c-.05,0-.1-.02-.15-.05-.13-.07-.19-.22-.15-.36.23-.73.36-1.56.36-2.48,0-2.77-1.08-6.01-3.06-9.12-1.83-2.88-4.26-5.35-6.84-6.97-.11-.08-.17-.22-.13-.36.04-.13.14-.23.3-.22,3.5.13,6.8,1.23,9.28,3.1,1.42,1.07,2.54,2.38,3.24,3.8.01.02.02.03.02.05,1.31,4.41.34,8.96-2.64,12.48-.06.07-.15.11-.23.11Z"/>
      <path class="cls-1" d="M13.55,27.16c-3.63-.05-6.92-1.54-9.31-3.93-.07-.08-.15-.15-.22-.22l-.04-.09c-.4-.86-.62-1.92-.62-3.15,0-2.87,1.16-6.14,3.06-9.1,1.83-2.88,4.34-5.48,7.12-7.14v.28c0,2.92-.02,6.5-.02,9.93s0,7.01,0,9.94c0,1.39,0,2.35.02,3.01v.48Z"/>
      <path class="cls-2" d="M4.28,22.83l.18.18c2.36,2.35,5.47,3.71,8.78,3.83v-.17c0-.65,0-1.62,0-3.01,0-2.93,0-6.51,0-9.94s0-6.78,0-9.66c-2.47,1.6-4.78,3.97-6.55,6.75-1.94,3.05-3.01,6.21-3.01,8.93,0,1.17.2,2.18.6,3.03l.02.04h0ZM13.55,27.48h0c-3.6-.05-6.98-1.48-9.53-4.02l-.22-.23s-.04-.05-.06-.09l-.04-.08c-.43-.93-.64-2.04-.64-3.29,0-2.83,1.1-6.12,3.1-9.26,1.93-3.03,4.49-5.61,7.22-7.24.09-.06.21-.06.31,0,.09.05.15.16.15.26v.28c0,2.92,0,6.5,0,9.93s0,7.01,0,9.94c0,1.38.01,2.35.01,3.01v.48c0,.08-.03.17-.09.22-.06.06-.14.1-.22.1Z"/>
      <path class="cls-1" d="M1.3,8.65c1.2-2.94,3.41-5.35,6.21-6.81.37-.06.78-.09,1.2-.08,1.31.04,2.79.46,4.37,1.29-3.63.13-6.91,1.3-9.32,3.11-.97.73-1.8,1.57-2.46,2.49Z"/>
      <path class="cls-2" d="M7.6,2.13c-2.01,1.06-3.69,2.62-4.91,4.5.28-.25.57-.5.89-.72,2.26-1.71,5.17-2.79,8.29-3.09-1.11-.47-2.18-.72-3.17-.75-.38-.02-.75,0-1.1.06h0ZM1.3,8.95c-.05,0-.11,0-.15-.03-.14-.08-.2-.24-.14-.39,1.23-2.99,3.48-5.47,6.35-6.97.03-.02.06-.03.09-.03.4-.07.82-.09,1.26-.08,1.4.04,2.92.49,4.51,1.32.12.06.19.21.16.34-.04.14-.15.23-.29.24-3.45.11-6.7,1.2-9.14,3.04-.96.72-1.76,1.54-2.4,2.42-.06.09-.15.13-.25.13Z"/>
      <path class="cls-2" d="M17.84,29.81c-.05,0-.1-.02-.15-.04-.15-.09-.2-.28-.11-.43l2.27-3.93c.09-.15.27-.2.42-.12.15.09.2.27.11.42l-2.27,3.94c-.06.1-.17.16-.27.16Z"/>
      <path class="cls-2" d="M9.65,29.86c-.1,0-.21-.06-.26-.16l-2.27-3.92c-.09-.15-.03-.34.11-.42.15-.09.34-.04.42.11l2.27,3.92c.09.14.03.33-.11.42-.05.03-.1.04-.16.04Z"/>
      <path class="cls-3" d="M18.95,31.57l-1.03,6.31c-.84,2.97-7.72,2.9-8.39-.12l-1.06-6.19h10.48Z"/>
      <path class="cls-2" d="M8.83,31.88l1,5.82c.3,1.35,2.09,2.01,3.72,2.05,1.68.05,3.68-.54,4.08-1.96l.96-5.91h-9.75ZM13.75,40.37h-.21c-1.74-.05-3.91-.75-4.31-2.55l-1.07-6.21c-.02-.09,0-.18.07-.25.05-.07.14-.1.24-.1h10.48c.09,0,.17.03.24.1.06.07.09.17.07.25l-1.02,6.3c-.48,1.72-2.57,2.45-4.48,2.45Z"/>
      <path class="cls-4" d="M9.9,29.44c2.12-1.23,5.55-1.23,7.67,0,2.12,1.22,2.13,3.21,0,4.43-2.12,1.23-5.56,1.23-7.68,0-2.12-1.22-2.12-3.21.01-4.43Z"/>
      <path class="cls-2" d="M13.73,28.83c-1.33,0-2.67.29-3.68.88h0c-.93.53-1.43,1.23-1.43,1.95s.5,1.42,1.43,1.96c2.03,1.17,5.34,1.17,7.38,0,.92-.54,1.44-1.23,1.44-1.96s-.51-1.41-1.44-1.95c-1.02-.59-2.35-.88-3.69-.88h0ZM13.73,35.1c-1.44,0-2.89-.32-3.99-.96-1.13-.65-1.75-1.53-1.75-2.49s.62-1.83,1.75-2.48c2.2-1.27,5.79-1.27,7.99,0,1.13.65,1.75,1.54,1.75,2.48s-.62,1.83-1.75,2.49c-1.11.63-2.55.96-4,.96Z"/>
      <path class="cls-3" d="M19.15,31.96v.81c-.09.44-.23.68-.48,1.02-.45.53-.9.81-1.5,1.11-.81.37-1.51.54-2.39.65-1.08.1-2.01.06-3.08-.17-.75-.19-1.35-.42-1.99-.81-.69-.46-1.2-.96-1.37-1.8v-.81c.17.83.69,1.34,1.37,1.8.64.39,1.24.62,1.99.81,1.07.23,2,.28,3.08.17.88-.11,1.58-.28,2.39-.65.62-.3,1.05-.59,1.5-1.11.25-.34.38-.58.48-1.02Z"/>
      <path class="cls-2" d="M9.19,33.77c.19.2.43.37.69.56.58.35,1.12.57,1.9.77,1.01.22,1.9.26,2.97.16.9-.11,1.56-.29,2.31-.62.47-.23.83-.46,1.19-.82-.29.22-.59.38-.93.56-.81.36-1.52.56-2.49.68-1.15.11-2.1.06-3.18-.17-.84-.21-1.45-.46-2.09-.85-.12-.08-.24-.16-.36-.25h0ZM13.71,35.91c-.7,0-1.36-.07-2.08-.23-.84-.21-1.45-.46-2.09-.85-.67-.44-1.31-.99-1.51-2v-.88c0-.16.11-.29.27-.31.16-.02.3.09.33.24.16.74.61,1.18,1.24,1.61.58.35,1.12.57,1.9.76,1.01.22,1.9.27,2.97.16.9-.11,1.56-.29,2.31-.62.55-.28.96-.53,1.39-1.04.21-.28.32-.48.41-.88.04-.16.18-.26.33-.24.16.02.28.15.28.31v.81c-.11.57-.28.85-.54,1.21-.51.58-.99.89-1.61,1.2-.81.36-1.52.56-2.49.68-.38.03-.75.05-1.1.05Z"/>
      <path class="cls-2" d="M16.17,34.77s-.08,0-.11-.02c-1.38-.54-3.25-.54-4.63,0-.16.06-.34-.02-.4-.18-.06-.16.02-.34.18-.4,1.55-.6,3.54-.6,5.08,0,.16.06.24.24.18.4-.04.12-.17.2-.29.2Z"/>
      <path class="cls-2" d="M13.58,34.8c-.18,0-.31-.14-.31-.3v-7.34c0-.16.14-.3.31-.3.17,0,.3.14.3.3v7.34c0,.17-.14.3-.3.3Z"/>
      <path class="cls-4" d="M11.78,2.32c1.08-.63,2.83-.63,3.92,0,1.09.63,1.09,1.64,0,2.27-1.08.63-2.84.63-3.92,0-1.09-.63-1.09-1.64,0-2.27Z"/>
      <path class="cls-2" d="M13.73,2.16c-.65,0-1.3.15-1.81.43-.42.24-.65.55-.65.86s.24.63.65.87c.98.57,2.64.57,3.62,0,.43-.24.66-.56.66-.87s-.24-.61-.66-.86c-.5-.29-1.15-.43-1.81-.43h0ZM13.73,5.36c-.75,0-1.52-.16-2.11-.51-.62-.36-.96-.85-.96-1.4s.34-1.03.96-1.4c1.18-.68,3.04-.68,4.23,0,.62.37.97.86.97,1.4s-.35,1.04-.97,1.4c-.59.35-1.36.51-2.12.51Z"/>
    </g>
  </g>
</svg>