<?xml version="1.0" encoding="UTF-8"?>
<svg id="Layer_2" data-name="Layer 2" xmlns="http://www.w3.org/2000/svg" viewBox="0 0 34.68 41" fill="currentColor">
  <defs>
    <style>
      .cls-1 {
        fill: #fff;
      }

      .cls-1, .cls-2, .cls-3, .cls-4 {
        fill-rule: evenodd;
      }

      .cls-2 {
        fill: #1a87c7;
      }

      .cls-3 {
        fill: #bdedf8;
      }

      .cls-4 {
        fill: #66ceef;
      }
    </style>
  </defs>
  <g id="_Layer_" data-name="&amp;lt;Layer&amp;gt;">
    <g>
      <path class="cls-3" d="M19.87,5.21c-8,4.62-14.5,15.86-14.5,25.1s6.49,12.99,14.5,8.37c8.01-4.62,14.5-15.86,14.5-25.1S27.88.59,19.87,5.21Z"/>
      <path class="cls-2" d="M19.87,5.21h0,0ZM26.35,3.53c-1.93,0-4.09.65-6.32,1.94h0c-7.91,4.56-14.34,15.71-14.34,24.84,0,4.36,1.45,7.6,4.1,9.12,2.63,1.52,6.16,1.16,9.93-1.01,7.91-4.57,14.34-15.71,14.34-24.84,0-4.36-1.45-7.59-4.09-9.12-1.08-.62-2.3-.93-3.62-.93h0ZM13.4,40.98c-1.44,0-2.76-.33-3.93-1.01-2.83-1.64-4.4-5.07-4.4-9.65,0-9.33,6.57-20.71,14.65-25.37h0c3.97-2.29,7.73-2.65,10.56-1.01,2.83,1.64,4.4,5.06,4.4,9.65,0,9.33-6.57,20.71-14.65,25.37-2.34,1.35-4.59,2.03-6.63,2.03Z"/>
      <path class="cls-4" d="M30.13,4.19C24.48.93,21.44-1.92,14.08,2.76,2.09,10.38-4.57,31.27,4.57,36.82l5.04,2.91c-8.21-5.21-3.02-19.94,2.15-26.97C15.51,7.67,23.36.65,30.13,4.19Z"/>
      <path class="cls-2" d="M20.95.62c-1.88,0-3.98.68-6.7,2.4C6.63,7.85.52,18.96.62,27.76c.03,2.89.76,6.76,4.12,8.79l2.48,1.43c-.97-1.22-1.63-2.72-1.96-4.49-1.22-6.51,2.23-15.45,6.26-20.92,3.18-4.32,9.73-10.51,16.03-9.55-2.31-1.37-4.28-2.41-6.6-2.41h0ZM9.61,40.03c-.05,0-.1-.01-.16-.04l-5.03-2.91C1.58,35.36.05,32.14,0,27.77-.1,18.62,6.02,7.52,13.92,2.5c6.76-4.3,10.1-2.31,14.71.45.53.32,1.08.64,1.66.98.14.08.19.27.12.41-.08.15-.27.2-.41.13-6.69-3.5-14.44,3.68-17.97,8.47-3.86,5.23-7.33,14.18-6.14,20.44.5,2.71,1.82,4.76,3.91,6.08.14.09.18.28.09.42-.05.1-.16.15-.26.15Z"/>
      <path class="cls-3" d="M19.87,36.28c-3.42,1.98-6.53,2.17-8.77.87-2.24-1.3-3.63-4.08-3.63-8.03s1.39-8.34,3.63-12.23c2.24-3.89,5.35-7.28,8.77-9.26,3.42-1.98,6.53-2.17,8.77-.87,2.25,1.3,3.63,4.08,3.63,8.03s-1.38,8.34-3.63,12.23c-2.24,3.89-5.35,7.28-8.77,9.26h0ZM19.87,5.21c-8.01,4.62-14.51,15.87-14.51,25.12s6.49,13,14.51,8.37c8.01-4.62,14.51-15.87,14.51-25.12S27.89.59,19.87,5.21h0Z"/>
      <path class="cls-2" d="M19.87,36.28h0,0ZM25.41,6.24c-1.64,0-3.48.56-5.38,1.66-3.27,1.89-6.35,5.14-8.67,9.15-2.31,4.01-3.59,8.3-3.59,12.07s1.23,6.47,3.48,7.77c2.25,1.3,5.25.99,8.47-.87h0c3.27-1.89,6.35-5.14,8.67-9.15,2.31-4.01,3.59-8.3,3.59-12.07s-1.23-6.47-3.48-7.77c-.91-.53-1.95-.79-3.09-.79h0ZM14.33,38.29c-1.23,0-2.37-.29-3.38-.87-2.44-1.41-3.79-4.36-3.79-8.3s1.3-8.28,3.68-12.38c2.37-4.11,5.53-7.43,8.88-9.37,3.42-1.97,6.64-2.28,9.08-.87,2.44,1.41,3.79,4.36,3.79,8.3s-1.3,8.28-3.68,12.38c-2.37,4.1-5.53,7.43-8.88,9.37h0c-2.01,1.16-3.95,1.74-5.7,1.74h0ZM26.35,3.53c-1.93,0-4.09.65-6.32,1.94-7.92,4.57-14.35,15.72-14.35,24.86,0,4.36,1.45,7.6,4.09,9.12,2.64,1.52,6.17,1.16,9.94-1.02,7.92-4.57,14.35-15.72,14.35-24.86,0-4.36-1.45-7.6-4.1-9.12-1.07-.62-2.29-.93-3.62-.93h0ZM13.4,41c-1.44,0-2.76-.33-3.94-1.01-2.83-1.64-4.4-5.07-4.4-9.65,0-9.34,6.57-20.72,14.65-25.39l.16.27-.16-.27c3.97-2.29,7.73-2.65,10.57-1.01,2.84,1.64,4.4,5.07,4.4,9.65,0,9.33-6.57,20.72-14.65,25.39-2.34,1.35-4.59,2.03-6.63,2.03Z"/>
      <path class="cls-3" d="M19.87,5.21c-8.01,4.62-14.51,15.87-14.51,25.12s6.49,13,14.51,8.37c8.01-4.62,14.51-15.87,14.51-25.12S27.89.59,19.87,5.21Z"/>
      <path class="cls-2" d="M19.87,5.21h0,0ZM26.35,3.53c-1.93,0-4.09.65-6.32,1.94h0c-7.92,4.57-14.35,15.72-14.35,24.86,0,4.36,1.45,7.6,4.09,9.12,2.64,1.52,6.17,1.16,9.94-1.02,7.92-4.57,14.35-15.72,14.35-24.86,0-4.36-1.45-7.6-4.1-9.12-1.07-.62-2.29-.93-3.62-.93h0ZM13.4,41c-1.44,0-2.76-.33-3.94-1.01-2.83-1.64-4.4-5.07-4.4-9.65,0-9.34,6.57-20.72,14.65-25.39,3.97-2.29,7.73-2.65,10.57-1.01,2.84,1.64,4.4,5.07,4.4,9.65,0,9.33-6.57,20.72-14.65,25.39-2.34,1.35-4.59,2.03-6.63,2.03Z"/>
      <path class="cls-1" d="M18.88,35.88c3.42-1.98,6.53-5.37,8.77-9.26,2.24-3.89,3.63-8.27,3.63-12.23s-1.39-6.74-3.63-8.03c-2.24-1.3-5.35-1.11-8.77.87-3.43,1.98-6.54,5.37-8.78,9.26-2.24,3.89-3.63,8.27-3.63,12.23s1.39,6.74,3.63,8.03c2.24,1.3,5.34,1.11,8.78-.87Z"/>
      <path class="cls-2" d="M24.42,5.84c-1.64,0-3.48.56-5.39,1.66-3.27,1.89-6.35,5.13-8.66,9.15-2.32,4.01-3.59,8.3-3.59,12.07s1.23,6.47,3.48,7.77c2.24,1.3,5.25.99,8.47-.87l.16.27-.16-.27c3.27-1.89,6.35-5.14,8.66-9.15,2.31-4.01,3.59-8.3,3.59-12.07s-1.23-6.47-3.48-7.77c-.91-.53-1.95-.79-3.08-.79h0ZM13.33,37.88c-1.23,0-2.38-.29-3.39-.87-2.43-1.41-3.78-4.36-3.78-8.3s1.3-8.28,3.67-12.38c2.37-4.1,5.53-7.43,8.89-9.37,3.42-1.97,6.64-2.28,9.07-.87,2.44,1.41,3.79,4.36,3.79,8.3s-1.31,8.28-3.68,12.38c-2.37,4.1-5.52,7.43-8.88,9.37h0c-2,1.16-3.94,1.74-5.69,1.74Z"/>
      <path class="cls-3" d="M19.87,36.28c-3.42,1.98-6.53,2.17-8.77.87-2.24-1.3-3.63-4.08-3.63-8.03s1.39-8.34,3.63-12.23c2.24-3.89,5.35-7.28,8.77-9.26,3.42-1.98,6.53-2.17,8.77-.87,2.25,1.3,3.63,4.08,3.63,8.03s-1.38,8.34-3.63,12.23c-2.24,3.89-5.35,7.28-8.77,9.26h0ZM19.87,5.21c-8.01,4.62-14.51,15.87-14.51,25.12s6.49,13,14.51,8.37c8.01-4.62,14.51-15.87,14.51-25.12S27.89.59,19.87,5.21h0Z"/>
      <path class="cls-2" d="M19.87,36.28h0,0ZM25.41,6.24c-1.64,0-3.48.56-5.38,1.66-3.27,1.89-6.35,5.14-8.67,9.15-2.31,4.01-3.59,8.3-3.59,12.07s1.23,6.47,3.48,7.77c2.25,1.3,5.25.99,8.47-.87h0c3.27-1.89,6.35-5.14,8.67-9.15,2.31-4.01,3.59-8.3,3.59-12.07s-1.23-6.47-3.48-7.77c-.91-.53-1.95-.79-3.09-.79h0ZM14.33,38.29c-1.23,0-2.37-.29-3.38-.87-2.44-1.41-3.79-4.36-3.79-8.3s1.3-8.28,3.68-12.38c2.37-4.11,5.53-7.43,8.88-9.37,3.42-1.97,6.64-2.28,9.08-.87,2.44,1.41,3.79,4.36,3.79,8.3s-1.3,8.28-3.68,12.38c-2.37,4.1-5.53,7.43-8.88,9.37h0c-2.01,1.16-3.95,1.74-5.7,1.74h0ZM26.35,3.53c-1.93,0-4.09.65-6.32,1.94-7.92,4.57-14.35,15.72-14.35,24.86,0,4.36,1.45,7.6,4.09,9.12,2.64,1.52,6.17,1.16,9.94-1.02,7.92-4.57,14.35-15.72,14.35-24.86,0-4.36-1.45-7.6-4.1-9.12-1.07-.62-2.29-.93-3.62-.93h0ZM13.4,41c-1.44,0-2.76-.33-3.94-1.01-2.83-1.64-4.4-5.07-4.4-9.65,0-9.34,6.57-20.72,14.65-25.39l.16.27-.16-.27c3.97-2.29,7.73-2.65,10.57-1.01,2.84,1.64,4.4,5.07,4.4,9.65,0,9.33-6.57,20.72-14.65,25.39-2.34,1.35-4.59,2.03-6.63,2.03Z"/>
      <path class="cls-4" d="M21.23,20.17v2.45l-4.07,2.35c0,.7,0,1.21.02,1.53,0,.61-.08,1.12-.23,1.56-.16.43-.43.94-.86,1.53l9.07-5.24v2.69l-12.26,7.08v-2.62c.6-.44.98-.97,1.16-1.57.17-.61.26-1.33.26-2.17v-1.14l-1.86,1.07v-2.45l1.86-1.08v-2.52c0-1.63.16-2.98.48-4.02.33-1.04.87-1.95,1.63-2.73.75-.77,1.83-1.56,3.23-2.37,1.07-.62,1.94-1.04,2.6-1.28.66-.23,1.2-.27,1.61-.1.4.16.7.56.89,1.2.18.64.27,1.58.27,2.82l-2.79,1.61c0-.75-.06-1.29-.18-1.63-.12-.34-.34-.51-.67-.51-.32,0-.8.18-1.42.54l-.3.17c-.69.4-1.22.78-1.57,1.14-.35.35-.58.77-.71,1.25-.13.48-.2,1.12-.2,1.93v2.85l4.07-2.35Z"/>
      <path class="cls-2" d="M13.2,31.66v1.93l11.65-6.73v-1.98l-8.61,4.96c-.12.07-.29.05-.38-.06-.09-.11-.1-.27-.02-.38.4-.56.67-1.05.82-1.46.14-.4.22-.89.22-1.45-.02-.31-.03-.82-.03-1.53,0-.11.06-.21.16-.27l3.91-2.26v-1.74l-3.6,2.08c-.1.06-.22.06-.31,0-.1-.06-.16-.16-.16-.27v-2.85c0-.83.08-1.51.22-2.01.14-.52.41-.99.79-1.38.37-.38.92-.77,1.64-1.19l.3-.17c.7-.4,1.19-.57,1.59-.58h.01c.44,0,.78.25.94.71.1.29.16.69.18,1.2l2.18-1.26c0-1.12-.09-1.98-.26-2.56-.15-.54-.38-.87-.71-1-.33-.14-.79-.1-1.38.1-.65.23-1.5.66-2.54,1.26-1.38.79-2.43,1.57-3.16,2.32-.72.74-1.24,1.61-1.56,2.6-.31,1.01-.47,2.33-.47,3.93v2.52c0,.11-.06.21-.16.27l-1.7.99v1.74l1.4-.81c.1-.06.21-.06.3,0,.1.05.16.16.16.27v1.14c0,.86-.1,1.62-.28,2.26-.18.63-.56,1.18-1.14,1.64h0ZM12.88,34.43c-.05,0-.11-.02-.15-.04-.09-.06-.16-.16-.16-.27v-2.62c0-.1.04-.19.12-.25.54-.4.9-.87,1.04-1.41.17-.58.25-1.28.25-2.09v-.61l-1.4.81c-.09.05-.21.05-.3,0-.09-.06-.16-.16-.16-.27v-2.45c0-.11.06-.21.16-.27l1.7-.99v-2.35c0-1.66.16-3.04.5-4.11.34-1.09.91-2.05,1.7-2.85.77-.79,1.88-1.6,3.3-2.42,1.07-.62,1.96-1.06,2.64-1.3.74-.26,1.35-.3,1.83-.1.5.2.86.67,1.07,1.4.19.68.28,1.63.28,2.9,0,.11-.05.21-.15.27l-2.79,1.61c-.1.06-.22.06-.31,0-.09-.05-.15-.16-.15-.27,0-.87-.09-1.31-.17-1.53-.08-.25-.21-.3-.36-.3h0c-.19,0-.55.09-1.27.5l-.3.17c-.67.38-1.18.75-1.5,1.09-.31.32-.53.68-.64,1.11-.12.45-.19,1.07-.19,1.85v2.32l3.61-2.08c.1-.06.21-.06.3,0,.1.06.16.16.16.27v2.45c0,.11-.06.21-.16.27l-3.91,2.26c0,.6,0,1.05.03,1.34,0,.65-.09,1.21-.25,1.67-.06.17-.15.35-.24.54l8-4.62c.1-.05.21-.05.31,0,.09.06.15.16.15.27v2.69c0,.11-.06.21-.15.27l-12.26,7.08s-.1.04-.16.04Z"/>
      <path class="cls-2" d="M25.9,3.55c-.05,0-.1-.01-.15-.04l-5.02-2.9c-.15-.09-.2-.27-.11-.42.09-.15.28-.2.42-.11l5.03,2.9c.15.08.19.27.11.42-.06.1-.17.15-.27.15Z"/>
      <path class="cls-2" d="M22.5,4.25c-.05,0-.11-.01-.16-.04l-5.06-2.92c-.15-.08-.2-.27-.11-.42.08-.15.27-.2.42-.11l5.06,2.92c.15.08.2.27.11.42-.05.1-.16.15-.26.15Z"/>
      <path class="cls-2" d="M19.51,5.73c-.05,0-.1-.01-.16-.04l-4.8-2.77c-.15-.08-.2-.27-.11-.42.08-.15.27-.2.42-.11l4.81,2.77c.15.08.2.27.11.42-.06.1-.16.15-.27.15Z"/>
      <path class="cls-2" d="M16.92,7.55s-.1-.01-.15-.04l-4.93-2.85c-.15-.08-.19-.27-.11-.42.09-.15.28-.2.43-.11l4.93,2.84c.15.08.19.27.11.42-.06.1-.16.15-.27.15Z"/>
      <path class="cls-2" d="M14.62,9.68c-.05,0-.11-.02-.15-.04l-4.99-2.88c-.15-.08-.2-.27-.11-.42.08-.15.27-.2.42-.11l4.99,2.88c.15.08.2.27.11.42-.05.1-.15.15-.27.15Z"/>
      <path class="cls-2" d="M12.77,11.76c-.05,0-.11-.01-.16-.04l-4.96-2.86c-.15-.09-.2-.27-.11-.42.09-.15.28-.2.42-.11l4.96,2.86c.15.08.2.28.11.42-.05.1-.16.16-.26.16Z"/>
      <path class="cls-2" d="M11.12,13.97s-.11-.01-.15-.04l-4.97-2.87c-.15-.08-.2-.27-.11-.42.08-.15.27-.2.42-.11l4.97,2.87c.15.08.2.27.11.42-.05.1-.16.15-.26.15Z"/>
      <path class="cls-2" d="M9.61,16.35c-.05,0-.1-.01-.16-.04l-4.99-2.96c-.15-.09-.19-.28-.1-.42.09-.15.27-.2.42-.11l4.99,2.96c.15.09.2.28.11.42-.06.1-.17.15-.27.15Z"/>
      <path class="cls-2" d="M8.37,18.71c-.05,0-.1-.01-.16-.04l-5.01-2.9c-.15-.09-.2-.27-.11-.42.09-.15.27-.2.42-.11l5.03,2.9c.15.09.19.27.11.42-.06.1-.17.15-.27.15Z"/>
      <path class="cls-2" d="M7.28,21.23c-.05,0-.1-.01-.16-.04l-5.01-2.89c-.15-.08-.19-.27-.11-.42.09-.15.28-.2.42-.11l5.02,2.89c.15.09.19.27.11.42-.06.1-.17.15-.27.15Z"/>
      <path class="cls-2" d="M6.35,24.01c-.05,0-.1-.02-.16-.04l-5.01-2.89c-.15-.09-.19-.27-.11-.42.09-.15.28-.2.43-.11l5.02,2.89c.15.09.19.27.11.42-.06.1-.16.16-.27.16Z"/>
      <path class="cls-2" d="M5.7,26.85c-.05,0-.1-.01-.16-.04l-5.02-2.9c-.15-.09-.2-.28-.11-.42.08-.15.27-.2.42-.11l5.03,2.9c.15.08.19.27.11.42-.06.1-.17.15-.27.15Z"/>
      <path class="cls-2" d="M5.38,29.9c-.05,0-.11-.01-.16-.04L.17,26.95c-.15-.08-.2-.27-.11-.42.08-.15.27-.2.42-.11l5.05,2.92c.15.08.2.27.11.42-.05.1-.16.15-.26.15Z"/>
      <path class="cls-2" d="M5.5,33.1c-.05,0-.1-.01-.15-.04L.31,30.16c-.15-.09-.19-.27-.11-.42.09-.15.28-.2.43-.11l5.03,2.9c.15.09.2.28.11.42-.06.1-.16.16-.27.16Z"/>
      <path class="cls-2" d="M6.34,36.49c-.05,0-.11-.01-.16-.04l-4.84-2.79c-.15-.09-.2-.28-.11-.42.09-.15.28-.2.43-.11l4.84,2.79c.15.09.19.27.11.42-.06.1-.17.15-.27.15Z"/>
    </g>
  </g>
</svg>