<?xml version="1.0" encoding="UTF-8"?>
<svg id="Layer_2" data-name="Layer 2" xmlns="http://www.w3.org/2000/svg" viewBox="0 0 40.98 39.15" fill="currentColor">
  <defs>
    <style>
      .cls-1 {
        fill: #fff;
      }

      .cls-1, .cls-2, .cls-3, .cls-4 {
        fill-rule: evenodd;
      }

      .cls-2 {
        fill: #1a87c7;
      }

      .cls-3 {
        fill: #bdedf8;
      }

      .cls-4 {
        fill: #66ceef;
      }
    </style>
  </defs>
  <g id="_Layer_" data-name="&amp;lt;Layer&amp;gt;">
    <g>
      <polygon class="cls-1" points="14.56 10.17 2.3 17.24 25.49 30.62 38.82 31.39 39.1 31.4 37.73 23.55 14.56 10.17"/>
      <path class="cls-2" d="M25.57,30.32l13.15.75-1.27-7.33L14.56,10.53l-11.64,6.72,22.65,13.07h0ZM39.1,31.72h-.02l-13.61-.78c-.05,0-.09-.02-.14-.04L2.16,17.51c-.1-.05-.16-.16-.16-.26,0-.11.06-.22.16-.27l12.25-7.07c.1-.05.22-.05.31,0l23.17,13.39c.08.04.14.12.15.21l1.36,7.86c.02.09,0,.19-.07.26-.06.06-.14.1-.23.1Z"/>
      <path class="cls-2" d="M38.01,25.42c-.05,0-.11-.02-.16-.04L14.56,12.08l-10.75,6.21c-.15.08-.34.04-.42-.11-.09-.15-.04-.34.11-.42l10.9-6.29c.1-.05.22-.05.31,0l23.44,13.37c.15.09.2.28.11.43-.05.09-.16.16-.26.16Z"/>
      <polygon class="cls-3" points="24.84 31.4 24.84 38.84 1.1 25.11 .31 17.24 22.2 29.88 24.84 31.4"/>
      <path class="cls-2" d="M1.39,24.92l23.14,13.39v-6.72L.67,17.81l.72,7.11h0ZM24.84,39.15c-.05,0-.11-.02-.16-.04L.95,25.37c-.09-.04-.14-.14-.16-.23L0,17.27c-.01-.11.04-.23.14-.29.09-.06.22-.07.32-.01l24.54,14.17c.09.05.15.16.15.26v7.44c0,.1-.05.21-.15.26-.05.03-.11.04-.16.04Z"/>
      <path class="cls-1" d="M24.84,38.84l12.63-.94,3.2-5.59-15.83-.91v7.44Z"/>
      <path class="cls-2" d="M25.15,31.74v6.77l12.14-.9,2.87-5.01-15.01-.86h0ZM24.84,39.15c-.08,0-.16-.02-.21-.08-.06-.06-.1-.15-.1-.23v-7.44c0-.08.03-.16.1-.22.06-.06.14-.09.23-.09l15.83.91c.1,0,.2.06.25.15.05.1.05.21,0,.31l-3.2,5.58c-.05.1-.14.15-.24.16l-12.63.94h-.03Z"/>
      <polygon class="cls-3" points="24.84 38.84 37.47 37.91 38.42 36.26 24.84 36.45 24.84 38.84"/>
      <path class="cls-2" d="M25.15,36.75v1.76l12.14-.9.59-1.03-12.73.18h0ZM24.84,39.15c-.08,0-.16-.02-.21-.08-.06-.06-.1-.15-.1-.23v-2.4c0-.17.14-.3.3-.3l13.58-.19c.09,0,.22.06.27.15.06.1.06.21,0,.3l-.94,1.64c-.05.1-.14.15-.24.16l-12.63.94h-.03Z"/>
      <polygon class="cls-4" points=".85 22.61 1.1 25.11 24.84 38.84 24.84 36.45 .85 22.61"/>
      <path class="cls-2" d="M1.39,24.92l23.14,13.39v-1.68L1.22,23.17l.17,1.74h0ZM24.84,39.15c-.05,0-.11-.02-.16-.04L.95,25.37c-.09-.04-.14-.14-.16-.23l-.25-2.5c0-.11.04-.22.14-.28.09-.06.22-.07.32-.01l24,13.85c.09.05.15.16.15.26v2.4c0,.1-.05.21-.15.26-.05.03-.11.04-.16.04Z"/>
      <path class="cls-1" d="M2.3,17.24l12.26-7.07,23.17,13.38,1.36,7.85-13.61-.78c-7.73-4.46-15.46-8.92-23.18-13.38h0ZM14.56,9.01L.31,17.24c8.18,4.72,16.36,9.44,24.54,14.16l15.83.91-1.57-9.14L14.56,9.01h0Z"/>
      <path class="cls-2" d="M25.57,30.32l13.15.75-1.27-7.33L14.56,10.53l-11.64,6.72,22.65,13.07h0ZM39.1,31.72h-.03l-13.6-.78c-.05,0-.09-.02-.14-.04L2.16,17.51c-.1-.05-.16-.16-.16-.26,0-.11.06-.22.16-.27l12.25-7.07c.1-.05.22-.05.31,0l23.17,13.39c.08.04.14.12.15.21l1.36,7.86c.02.09,0,.19-.07.26-.06.06-.14.1-.23.1h0ZM24.93,31.1L.92,17.24l13.64-7.87,24.26,14,1.49,8.61-15.38-.89h0ZM40.67,32.63s-.01,0-.02,0l-15.83-.9c-.05-.01-.1-.02-.14-.04L.16,17.51c-.1-.05-.16-.16-.16-.26,0-.11.06-.22.16-.27l14.25-8.23c.1-.05.22-.05.31,0l24.53,14.17c.09.05.14.12.16.22l1.57,9.14c.02.09-.01.19-.07.26-.06.06-.15.1-.23.1Z"/>
      <path class="cls-3" d="M16.67,17.64v-.97s8.31-4.8,8.31-4.8v.96l-8.31,4.8h0ZM10.88,20.11v-5.81s5.79,3.34,5.79,3.34v-.97s-5.8-3.33-5.8-3.33v-2.07l5.81,3.36v-1.36s-8.63-4.97-8.63-4.97v.3l-1.62,8.93,4.44,2.57h0Z"/>
      <path class="cls-2" d="M16.98,16.85v.25l7.7-4.44v-.26l-7.7,4.45h0ZM6.78,17.38l3.79,2.2v-5.27c0-.1.06-.21.16-.26.09-.06.21-.06.3,0l5.33,3.07v-.25l-5.63-3.24c-.1-.06-.16-.15-.16-.27v-2.06c0-.11.05-.21.15-.27.1-.06.22-.05.31,0l5.34,3.08v-.64l-8.04-4.63-1.56,8.56h0ZM10.88,20.42s-.1-.02-.15-.04l-4.44-2.57c-.1-.06-.17-.19-.15-.32l1.62-8.91v-.27c0-.11.05-.21.15-.27.1-.05.22-.05.31,0l8.62,4.97c.09.05.15.16.15.26l.02,1.37c0,.1-.06.21-.16.27-.1.05-.22.05-.31,0l-5.36-3.08v1.35s5.48,3.17,5.48,3.17l8.17-4.72c.09-.05.21-.05.3,0,.09.05.16.16.16.27v.96c0,.12-.06.22-.16.27l-8.3,4.79h0c-.1.06-.22.06-.31.01l-5.33-3.07v5.27c0,.11-.05.22-.15.27-.05.02-.1.04-.16.04Z"/>
      <polygon class="cls-1" points="19.88 23.46 32.83 15.98 32.82 14.68 19.87 22.17 19.88 23.46"/>
      <path class="cls-2" d="M20.18,22.35v.58s12.35-7.13,12.35-7.13v-.59s-12.35,7.14-12.35,7.14h0ZM19.88,23.77c-.05,0-.1-.02-.16-.05-.09-.05-.16-.16-.16-.27v-1.29c0-.11.05-.21.15-.26l12.95-7.48c.09-.06.22-.06.31,0,.1.05.15.15.16.26v1.29c.01.11-.05.22-.15.27l-12.96,7.48s-.09.05-.15.05Z"/>
      <polygon class="cls-1" points="19.87 22.17 32.82 14.68 24.99 10.19 24.98 12.84 16.67 17.64 10.45 14.06 8.12 15.4 19.87 22.17"/>
      <path class="cls-2" d="M8.74,15.4l11.13,6.41,12.33-7.13-6.91-3.96v2.12c-.01.12-.06.22-.16.27l-8.31,4.8c-.1.05-.22.05-.31,0l-6.07-3.49-1.71.99h0ZM19.87,22.48c-.05,0-.1-.02-.16-.04l-11.75-6.76c-.1-.05-.16-.16-.16-.27,0-.11.06-.21.16-.26l2.34-1.35c.09-.05.21-.05.3,0l6.07,3.49,8-4.61v-2.48c0-.11.06-.22.16-.27.09-.05.22-.05.31,0l7.83,4.5c.1.05.16.16.16.26,0,.11-.06.21-.16.27l-12.96,7.48s-.1.04-.15.04Z"/>
      <polygon class="cls-3" points="20.65 27.81 32.66 20.87 32 18.44 31.54 16.72 19.87 23.46 19.43 23.21 20.65 27.81"/>
      <path class="cls-2" d="M19.9,23.76l.95,3.57,11.46-6.62-.95-3.53-11.33,6.54s-.08.03-.12.03h0ZM20.65,28.11s-.08,0-.11-.03c-.09-.03-.16-.11-.18-.2l-1.23-4.6c-.03-.12.01-.24.1-.32.11-.08.24-.09.35-.03l.29.16,11.52-6.65c.09-.04.18-.05.28-.02.09.03.15.11.18.21l1.11,4.15c.04.13-.03.28-.15.35l-11.99,6.93c-.05.02-.11.04-.16.04Z"/>
      <polygon class="cls-4" points="20.65 27.81 19.43 23.21 9.97 17.77 9.98 21.65 20.65 27.81"/>
      <path class="cls-2" d="M10.29,21.48l9.87,5.68-1-3.75-8.88-5.11v3.18h0ZM20.65,28.11c-.05,0-.1,0-.15-.04l-10.67-6.15c-.09-.05-.16-.16-.16-.27v-3.89c0-.11.05-.22.15-.27.09-.05.21-.05.3,0l9.46,5.44c.07.04.12.11.14.19l1.23,4.6c.03.11,0,.24-.1.32-.06.04-.12.06-.19.06Z"/>
      <polygon class="cls-3" points="16.67 16.57 24.99 11.76 25 9.83 16.66 14.62 16.67 16.57"/>
      <path class="cls-2" d="M16.98,14.8v1.23l7.71-4.45v-1.22l-7.71,4.43h0ZM16.67,16.87c-.05,0-.11-.01-.16-.04-.09-.06-.15-.15-.15-.27v-1.95c-.01-.11.04-.21.14-.27l8.33-4.79c.1-.05.22-.05.31,0,.1.05.15.16.15.26v1.94c0,.11-.07.21-.16.26l-8.32,4.81c-.05.03-.11.04-.16.04Z"/>
      <polygon class="cls-4" points="16.67 16.67 16.66 14.62 10.88 11.29 10.89 13.34 16.67 16.67"/>
      <path class="cls-2" d="M11.2,13.16l5.16,2.98v-1.34l-5.16-2.98v1.34h0ZM16.67,16.98c-.05,0-.11,0-.16-.03l-5.78-3.33c-.1-.06-.15-.15-.15-.27v-2.05c-.01-.11.04-.21.14-.27.09-.05.21-.05.31,0l5.78,3.33c.1.06.15.16.15.27l.02,2.05c0,.11-.06.21-.15.27-.05.03-.11.03-.16.03Z"/>
      <polygon class="cls-1" points="22.51 28.67 33.1 22.56 33 22.19 32.59 20.63 20.59 27.55 22.51 28.67"/>
      <path class="cls-2" d="M21.2,27.55l1.31.76,10.23-5.91-.35-1.3-11.19,6.46h0ZM22.51,28.98c-.05,0-.1-.02-.15-.04l-1.93-1.11c-.09-.06-.16-.16-.16-.27s.06-.21.16-.27l12.01-6.93c.08-.04.18-.05.27-.02.09.04.15.11.17.21l.52,1.92c.03.14-.03.28-.15.35l-10.59,6.12c-.05.03-.11.04-.16.04Z"/>
      <polygon class="cls-1" points="16.69 14.63 24.99 9.84 24.99 8.48 16.68 13.27 16.69 14.63"/>
      <path class="cls-2" d="M16.99,13.45v.65l7.68-4.44v-.65l-7.68,4.44h0ZM16.69,14.94s-.1-.02-.15-.04c-.1-.05-.16-.15-.16-.27v-1.36c-.02-.11.04-.22.14-.27l8.31-4.8c.09-.05.22-.05.31,0,.1.05.15.16.15.27v1.37c0,.1-.05.21-.15.26l-8.3,4.8c-.05.03-.11.04-.16.04Z"/>
      <polygon class="cls-1" points="16.68 13.27 24.99 8.48 16.37 3.5 8.06 8.3 16.68 13.27"/>
      <path class="cls-2" d="M8.68,8.3l8,4.61,7.69-4.44-8-4.62-7.69,4.44h0ZM16.68,13.58c-.05,0-.1,0-.16-.04l-8.62-4.96c-.1-.06-.16-.15-.16-.27s.06-.21.16-.27l8.31-4.8c.1-.05.22-.05.31,0l8.62,4.97c.1.05.15.16.15.27,0,.11-.05.21-.15.26l-8.31,4.8c-.05.03-.11.04-.16.04Z"/>
      <polygon class="cls-4" points="15.68 9.56 18.84 7.74 15.83 5.96 12.63 7.8 15.68 9.56"/>
      <path class="cls-2" d="M13.25,7.8l2.43,1.41,2.55-1.47-2.41-1.43-2.57,1.49h0ZM15.68,9.87c-.05,0-.11-.01-.15-.04l-3.05-1.76c-.1-.05-.16-.16-.16-.27,0-.1.06-.21.16-.26l3.19-1.85c.1-.05.22-.05.31,0l3.02,1.77c.09.06.15.16.15.27s-.06.21-.16.27l-3.15,1.82s-.09.04-.15.04Z"/>
      <polygon class="cls-1" points="15.68 9.56 18.84 7.74 18.84 6.68 15.68 8.49 15.68 9.56"/>
      <path class="cls-2" d="M15.99,8.67v.35l2.54-1.46v-.35l-2.54,1.47h0ZM15.68,9.87c-.05,0-.11-.01-.15-.04-.09-.05-.16-.16-.16-.26v-1.07c0-.1.06-.21.16-.26l3.15-1.83c.1-.05.21-.05.3,0,.1.05.16.16.16.27v1.06c0,.11-.06.21-.16.27l-3.15,1.82s-.09.04-.15.04Z"/>
      <polygon class="cls-1" points="15.68 8.49 18.84 6.68 15.83 4.89 12.63 6.74 15.68 8.49"/>
      <path class="cls-2" d="M13.25,6.74l2.43,1.4,2.55-1.47-2.4-1.42-2.58,1.49h0ZM15.68,8.81c-.05,0-.11-.02-.15-.04l-3.05-1.76c-.1-.06-.16-.16-.16-.27s.06-.21.16-.27l3.19-1.85c.1-.05.22-.05.31,0l3.02,1.78c.09.06.15.16.15.27,0,.1-.06.21-.16.26l-3.15,1.82s-.09.04-.15.04Z"/>
      <polygon class="cls-1" points="15.68 8.49 12.63 6.74 12.63 7.8 15.68 9.56 15.68 8.49"/>
      <path class="cls-2" d="M12.94,7.62l2.43,1.4v-.35l-2.43-1.41v.36h0ZM15.68,9.87c-.05,0-.11-.01-.15-.04l-3.05-1.76c-.1-.05-.16-.16-.16-.27v-1.06c0-.11.06-.21.16-.27.09-.05.21-.05.3,0l3.05,1.76c.1.05.16.16.16.26v1.07c0,.1-.06.21-.16.26-.04.03-.09.04-.15.04Z"/>
      <polygon class="cls-4" points="15.73 1.17 15.96 1.03 15.74 .9 15.51 1.03 15.73 1.17"/>
      <path class="cls-2" d="M15.73,1.47c-.05,0-.1,0-.16-.03l-.22-.13c-.1-.06-.16-.16-.16-.27s.06-.21.16-.27l.23-.13c.1-.05.21-.05.3,0l.22.13c.1.06.16.16.16.27,0,.11-.06.21-.16.26l-.23.14c-.05.03-.1.03-.15.03Z"/>
      <path class="cls-2" d="M15.68,6.98c-.17,0-.31-.13-.31-.3V.78c0-.17.14-.3.31-.3s.31.14.31.3v5.89c0,.18-.14.3-.31.3Z"/>
      <polygon class="cls-3" points="15.73 1.17 15.96 1.03 15.74 .9 15.51 1.03 15.73 1.17"/>
      <path class="cls-2" d="M15.73,1.47c-.05,0-.1,0-.16-.03l-.22-.13c-.1-.05-.16-.16-.16-.27,0-.1.06-.21.16-.27l.23-.13c.1-.05.21-.05.3,0l.22.13c.1.06.16.16.16.27,0,.11-.06.21-.16.26l-.23.14c-.05.03-.1.03-.15.03Z"/>
      <path class="cls-3" d="M15.73,1.42c-.21,0-.38-.17-.38-.38s.17-.38.38-.38.39.17.39.38-.18.38-.39.38Z"/>
      <path class="cls-2" d="M15.73.96s-.07.04-.07.08c0,.08.15.08.15,0,0-.04-.03-.08-.08-.08h0ZM15.73,1.72c-.37,0-.69-.3-.69-.69s.31-.69.69-.69.7.31.7.69-.32.69-.7.69Z"/>
      <path class="cls-3" d="M15.69,1.71c-.38,0-.69-.31-.69-.7s.31-.69.69-.69.7.31.7.69-.31.7-.7.7Z"/>
      <path class="cls-2" d="M15.69.62c-.21,0-.39.17-.39.39s.18.4.39.4.4-.18.4-.4-.18-.39-.4-.39h0ZM15.69,2.03c-.56,0-1.01-.46-1.01-1.02s.45-1.01,1.01-1.01,1.02.45,1.02,1.01-.45,1.02-1.02,1.02Z"/>
      <polygon class="cls-3" points="10.59 18.11 10.59 23.17 8.14 21.76 8.13 16.71 8.13 16.7 8.12 15.4 19.87 22.17 19.88 23.46 10.59 18.11"/>
      <path class="cls-2" d="M10.59,17.81s.1,0,.15.03l8.83,5.09v-.58s-11.13-6.41-11.13-6.41v5.64s1.84,1.06,1.84,1.06v-4.53c0-.11.06-.21.16-.26.04-.04.09-.04.16-.04h0ZM19.88,23.77c-.05,0-.1-.02-.16-.05l-8.83-5.08v4.53c0,.11-.06.22-.16.27-.1.05-.21.05-.3,0l-2.45-1.42c-.09-.05-.16-.16-.16-.26l-.02-6.35c0-.11.06-.22.16-.27.1-.06.21-.06.3,0l11.75,6.75c.09.06.16.16.16.27v1.29c0,.1-.04.21-.14.27-.05.03-.11.05-.16.05Z"/>
      <polygon class="cls-1" points="11.62 18.71 10.59 18.11 10.59 23.17 11.62 22.58 11.62 18.71"/>
      <path class="cls-2" d="M10.89,18.65v3.99l.42-.24v-3.51l-.42-.23h0ZM10.59,23.49c-.06,0-.12-.02-.16-.04-.1-.05-.16-.16-.16-.27v-5.06c0-.11.06-.21.16-.26.09-.06.21-.06.3,0l1.04.59c.1.05.16.16.16.27v3.87c-.01.1-.06.21-.16.26l-1.04.6s-.1.04-.15.04Z"/>
      <polygon class="cls-4" points="5.96 24.01 5.96 22.51 3.19 20.92 3.2 22.41 5.96 24.01"/>
      <path class="cls-2" d="M3.5,22.23l2.15,1.24v-.78s-2.15-1.24-2.15-1.24v.78h0ZM5.96,24.31c-.05,0-.11,0-.15-.04l-2.77-1.59c-.09-.05-.16-.16-.16-.26v-1.49c0-.12.05-.22.15-.27.09-.05.22-.05.31,0l2.76,1.59c.09.06.16.15.16.27v1.49c0,.1-.05.21-.15.26-.04.03-.09.04-.15.04Z"/>
      <polygon class="cls-4" points="10.63 26.68 10.62 25.2 7.86 23.6 7.86 25.09 10.63 26.68"/>
      <path class="cls-2" d="M8.17,24.91l2.15,1.24v-.78l-2.16-1.23v.77h0ZM10.63,27c-.05,0-.1-.02-.16-.04l-2.76-1.59c-.09-.06-.16-.16-.16-.27v-1.49c-.01-.1.05-.21.15-.26.1-.06.21-.06.3,0l2.78,1.59c.09.05.15.16.15.26v1.49c0,.11-.05.22-.15.27-.05.03-.11.04-.16.04Z"/>
      <polygon class="cls-4" points="15.29 29.37 15.29 27.88 12.52 26.29 12.53 27.77 15.29 29.37"/>
      <path class="cls-2" d="M12.83,27.6l2.16,1.23v-.77s-2.16-1.24-2.16-1.24v.78h0ZM15.29,29.67c-.05,0-.1,0-.15-.04l-2.77-1.59c-.1-.05-.16-.15-.16-.27v-1.49c0-.12.05-.22.15-.27.1-.05.22-.05.31,0l2.76,1.59c.09.06.15.16.15.27v1.49c.01.11-.05.21-.15.26-.04.03-.11.04-.16.04Z"/>
      <polygon class="cls-4" points="19.96 32.05 19.95 30.56 17.19 28.96 17.19 30.46 19.96 32.05"/>
      <path class="cls-2" d="M17.49,30.27l2.15,1.24v-.78l-2.15-1.23v.77h0ZM19.96,32.36c-.05,0-.11-.02-.16-.04l-2.77-1.59c-.09-.06-.15-.16-.15-.27v-1.5c0-.1.05-.21.15-.26.09-.06.21-.06.3,0l2.77,1.6c.1.05.15.16.16.26v1.5c0,.11-.05.21-.15.27-.05.03-.1.04-.15.04Z"/>
      <path class="cls-2" d="M23.03,34.44c-.47,0-1.02-.36-1.37-.98-.2-.36-.32-.75-.32-1.1,0-.15.08-.28.2-.36.12-.07.27-.07.4.01.15.09.2.28.12.42-.02.04-.05.08-.09.1.03.2.1.42.23.62.31.55.75.75.92.66.08-.04.12-.17.12-.35-.15-.09-.19-.26-.1-.41.09-.15.28-.18.43-.1.17.1.29.3.29.5,0,.4-.15.72-.43.89-.12.07-.25.09-.39.09Z"/>
      <path class="cls-2" d="M22.6,34.28c-.17,0-.3-.14-.3-.31v-2.58c0-.18.14-.3.3-.3.18,0,.31.13.31.3v2.58c0,.17-.14.31-.31.31Z"/>
    </g>
  </g>
</svg>