<?xml version="1.0" encoding="UTF-8"?>
<svg id="Layer_2" data-name="Layer 2" xmlns="http://www.w3.org/2000/svg" viewBox="0 0 34.29 41.17" fill="currentColor">
  <defs>
    <style>
      .cls-1 {
        fill: #fff;
      }

      .cls-1, .cls-2, .cls-3, .cls-4 {
        fill-rule: evenodd;
      }

      .cls-2 {
        fill: #1a87c7;
      }

      .cls-3 {
        fill: #bdedf8;
      }

      .cls-4 {
        fill: #66ceef;
      }
    </style>
  </defs>
  <g id="_Layer_" data-name="&amp;lt;Layer&amp;gt;">
    <g>
      <path class="cls-4" d="M10.64,36.59l-4.1-2.37c4.81,2.7,10.8-1.83,13.85-5.33,4.28-4.88,8.05-13.2,6.42-19.69-.48-1.9-1.44-3.59-3.17-4.61l4.31,2.49c4.32,2.74,3.64,9.69,2.3,13.96-1.99,6.32-7.36,13.97-13.89,15.94-1.93.58-3.93.61-5.73-.4Z"/>
      <path class="cls-2" d="M10.8,36.32c1.56.88,3.4,1,5.48.37,6.33-1.91,11.67-9.36,13.68-15.74,1.48-4.7,1.8-11.08-2.17-13.6l-1.96-1.13c.57.81,1,1.78,1.28,2.91,1.68,6.71-2.18,15.05-6.48,19.97-2.96,3.38-7.45,6.6-11.57,6.22l1.74,1h0ZM13.8,37.7c-1.19,0-2.31-.29-3.3-.84,0,0,0,0,0,0l-4.1-2.37c-.15-.09-.2-.28-.11-.42.09-.15.28-.19.42-.11,4.69,2.64,10.68-2.06,13.48-5.26,4.33-4.95,7.9-13.2,6.35-19.41-.51-2.05-1.54-3.54-3.03-4.42-.15-.09-.2-.28-.11-.42.09-.15.28-.2.42-.11l4.31,2.49c4.28,2.71,3.99,9.41,2.44,14.32-2.05,6.53-7.55,14.17-14.09,16.14-.93.28-1.82.42-2.66.42Z"/>
      <path class="cls-1" d="M17.9,7.24c-6.59,3.81-11.94,13.07-11.94,20.69s5.35,10.7,11.94,6.89c6.6-3.81,11.94-13.07,11.94-20.69s-5.34-10.7-11.94-6.89Z"/>
      <path class="cls-2" d="M18.06,7.51c-6.5,3.76-11.78,12.91-11.78,20.42,0,3.56,1.19,6.21,3.35,7.47,2.16,1.24,5.04.95,8.13-.84,6.5-3.75,11.79-12.91,11.79-20.42,0-3.56-1.19-6.21-3.35-7.46-2.16-1.25-5.04-.95-8.14.83h0ZM12.58,36.76c-1.19,0-2.29-.28-3.27-.84-2.36-1.35-3.65-4.2-3.65-8,0-7.7,5.42-17.11,12.1-20.96h0c3.29-1.89,6.4-2.19,8.75-.83,2.35,1.36,3.65,4.2,3.65,8,0,7.7-5.42,17.11-12.1,20.95-1.93,1.11-3.8,1.68-5.48,1.68Z"/>
      <path class="cls-4" d="M15.1,2.34c3-1.68,6.93-2.93,10.19-1.17l4.1,2.37c-6.04-3.01-13.19,2.57-16.92,6.93-5,5.83-9.27,15.38-7.76,23.11.5,2.51,1.61,4.71,3.78,6.15-.97-.57-3.83-2.14-4.58-2.7C-.78,33.47-.02,25.56,1.47,20.62,3.64,13.48,8.59,6.19,15.1,2.34Z"/>
      <path class="cls-2" d="M15.24,2.61C9.24,6.17,4.07,13.1,1.77,20.71c-1.62,5.37-1.99,12.8,2.33,16.07.37.28,1.3.83,2.24,1.37-.93-1.2-1.56-2.69-1.93-4.51-1.56-7.95,2.96-17.69,7.82-23.37,3.69-4.32,9.42-8.5,14.68-7.81l-1.78-1.03c-3.29-1.77-7.19-.34-9.89,1.17h0ZM8.5,40.03c-.05,0-.1,0-.16-.04-.22-.12-.53-.3-.9-.51-1.31-.74-3.11-1.76-3.7-2.21C-.84,33.82-.58,26.36,1.18,20.54,3.53,12.78,8.8,5.71,14.94,2.08h0c2.82-1.59,6.95-3.09,10.5-1.18l4.11,2.37c.14.09.19.27.11.42-.08.15-.26.2-.41.13-5.53-2.76-12.38,1.96-16.55,6.85-4.77,5.57-9.21,15.11-7.68,22.85.54,2.74,1.73,4.68,3.65,5.96.14.09.18.27.09.42-.05.09-.15.15-.26.15Z"/>
      <path class="cls-3" d="M27.75,6.96c-1.11-.64-2.45-.91-3.93-.76-1.43.14-2.98.67-4.62,1.62-1.65.95-3.2,2.22-4.62,3.72-1.48,1.56-2.81,3.37-3.93,5.3-1.11,1.94-2.02,3.99-2.63,6.05-.59,1.99-.91,3.98-.91,5.87s.32,3.51.91,4.82c.61,1.35,1.51,2.37,2.63,3.02,1.12.64,2.45.91,3.93.76,1.43-.14,2.98-.67,4.62-1.62,1.64-.95,3.2-2.22,4.62-3.73,1.48-1.56,2.81-3.36,3.93-5.29,1.11-1.94,2.02-3.99,2.63-6.05.59-1.99.91-3.98.91-5.88s-.32-3.51-.91-4.82c-.61-1.35-1.51-2.37-2.63-3.02h0ZM8.75,15.74c2.67-4.63,6.37-8.67,10.45-11.03,4.08-2.36,7.78-2.58,10.45-1.04,2.68,1.55,4.33,4.86,4.33,9.57s-1.65,9.93-4.33,14.57c-2.67,4.62-6.37,8.68-10.45,11.03-4.09,2.35-7.78,2.58-10.45,1.03-2.68-1.55-4.33-4.86-4.33-9.57s1.65-9.94,4.33-14.57h0Z"/>
      <path class="cls-2" d="M24.6,6.46c-.24,0-.5,0-.75.03-1.43.15-2.94.68-4.5,1.57-1.57.91-3.11,2.15-4.56,3.68-1.45,1.54-2.76,3.3-3.88,5.24-1.12,1.95-2,3.96-2.6,5.98-.6,2.02-.9,3.96-.9,5.79s.3,3.38.89,4.68c.58,1.29,1.42,2.25,2.5,2.88,1.08.62,2.34.87,3.74.73,1.43-.15,2.94-.68,4.5-1.58,1.58-.91,3.12-2.15,4.56-3.67,1.45-1.54,2.76-3.3,3.88-5.24,1.12-1.95,2-3.95,2.6-5.99.6-2.01.9-3.95.9-5.78s-.3-3.38-.89-4.68c-.58-1.29-1.43-2.26-2.5-2.88h0c-.88-.51-1.88-.76-2.99-.76h0ZM13.79,37.7c-1.22,0-2.32-.29-3.3-.85-1.19-.69-2.11-1.75-2.75-3.16-.63-1.38-.95-3.04-.95-4.94s.32-3.89.93-5.96c.62-2.07,1.51-4.13,2.65-6.11,1.15-1.99,2.49-3.79,3.97-5.36,1.49-1.57,3.07-2.84,4.69-3.78,1.64-.95,3.24-1.5,4.75-1.65,1.54-.16,2.92.11,4.11.81h0c1.19.69,2.11,1.75,2.75,3.15.63,1.38.95,3.04.95,4.94s-.31,3.89-.93,5.96c-.62,2.07-1.51,4.13-2.65,6.11-1.15,1.99-2.49,3.79-3.97,5.36-1.49,1.56-3.07,2.84-4.7,3.78-1.64.95-3.24,1.5-4.75,1.65-.27.03-.55.04-.81.04h0ZM9.01,15.89h0c2.76-4.79,6.44-8.66,10.34-10.91,3.84-2.23,7.45-2.59,10.14-1.03,2.69,1.56,4.17,4.86,4.17,9.3s-1.52,9.62-4.28,14.41c-2.76,4.79-6.44,8.66-10.34,10.92-3.85,2.22-7.45,2.59-10.14,1.04-2.69-1.56-4.17-4.86-4.17-9.3s1.52-9.62,4.29-14.41h0ZM12.6,41.17c-1.46,0-2.81-.34-4.01-1.03-2.89-1.67-4.49-5.16-4.49-9.84s1.56-9.84,4.37-14.72h0c2.82-4.88,6.57-8.84,10.56-11.15,4.05-2.34,7.87-2.7,10.76-1.04,2.9,1.67,4.48,5.16,4.48,9.84s-1.56,9.84-4.37,14.71c-2.82,4.88-6.57,8.84-10.56,11.14-2.38,1.37-4.68,2.07-6.75,2.07Z"/>
      <polygon class="cls-4" points="18.01 30.08 19.82 29.04 19.82 22.78 22.96 20.97 22.96 19 19.82 20.81 19.82 16.37 23.42 14.29 23.42 12.3 18.01 15.44 18.01 30.08"/>
      <path class="cls-2" d="M18.31,15.62v13.93l1.21-.69v-6.08c0-.1.05-.21.15-.26l2.98-1.73v-1.26l-2.67,1.55c-.09.05-.22.05-.31,0-.1-.06-.15-.16-.15-.27v-4.44c0-.12.05-.22.15-.27l3.45-1.99v-1.26l-4.81,2.77h0ZM18.01,30.39c-.05,0-.11-.02-.16-.04-.09-.05-.15-.16-.15-.27v-14.64c0-.1.06-.21.15-.26l5.42-3.13c.1-.06.22-.06.31,0,.09.05.15.16.15.26v1.98c0,.11-.05.21-.15.26l-3.45,1.99v3.74l2.68-1.55c.1-.05.21-.05.3,0,.1.05.16.16.16.27v1.97c0,.11-.06.21-.16.27l-2.98,1.72v6.07c0,.11-.05.21-.15.26l-1.81,1.05c-.05.02-.11.04-.16.04Z"/>
      <path class="cls-4" d="M16.63,16.89c0-1.44-.89-1.97-2.07-1.29-1.26.72-2.1,2.25-2.1,3.61v.63c0,1.89,1.14,1.79,2.12,1.22,1.16-.67,2.05-2.31,2.05-3.59,0-1.57,0-.5,0-.58h0ZM15.35,17.9v.19c0,.82-.46,1.31-.81,1.52-.58.33-.79-.02-.79-.62v-.21c0-.7.15-1.31.8-1.68.5-.28.8.04.8.62,0,1.76,0-1.59,0,.17h0Z"/>
      <path class="cls-2" d="M14.89,17.31s-.11.02-.18.06c-.46.26-.64.67-.64,1.41v.21c0,.36.08.43.08.44,0,0,.07,0,.24-.1.31-.18.65-.61.65-1.25v-.36c0-.25-.07-.38-.12-.41,0,0-.03,0-.03,0h0ZM14.14,19.43h0,0ZM14.15,20.04c-.11,0-.22-.03-.31-.08-.26-.15-.39-.47-.39-.97v-.21c0-.65.11-1.45.95-1.94.41-.23.7-.14.83-.06.13.08.24.19.31.35.07.05.11.14.11.24v.88s0,.07-.02.09c-.08.76-.52,1.29-.95,1.53-.2.11-.37.17-.54.17h0ZM15.51,15.62c.13,0,.25.03.36.09.3.17.46.6.46,1.19v.58c0,1.21-.87,2.73-1.89,3.32-.54.31-1,.4-1.27.25-.33-.19-.39-.77-.39-1.21v-.63c0-1.29.82-2.69,1.94-3.34.3-.17.57-.26.8-.26h0ZM13.48,21.74c-.23,0-.43-.05-.62-.16-.47-.27-.7-.86-.7-1.74v-.63c0-1.51.92-3.1,2.25-3.87.66-.39,1.29-.45,1.76-.17.42.24.67.7.75,1.32.01.04.02.08.02.12v.87c0,1.43-.98,3.16-2.2,3.85-.46.27-.9.41-1.26.41Z"/>
    </g>
  </g>
</svg>