<?xml version="1.0" encoding="UTF-8"?>
<svg id="Layer_2" data-name="Layer 2" xmlns="http://www.w3.org/2000/svg" viewBox="0 0 45.06 35.73" fill="currentColor">
  <defs>
    <style>
      .cls-1 {
        fill: #fff;
      }

      .cls-1, .cls-2, .cls-3, .cls-4 {
        fill-rule: evenodd;
      }

      .cls-2 {
        fill: #1a87c7;
      }

      .cls-3 {
        fill: #bdedf8;
      }

      .cls-4 {
        fill: #66ceef;
      }
    </style>
  </defs>
  <g id="_Layer_" data-name="&amp;lt;Layer&amp;gt;">
    <g>
      <path class="cls-3" d="M26.03,34.96c7.26-1.95,11.55-9.38,9.61-16.62-1.96-7.23-9.38-11.54-16.64-9.6-7.23,1.95-11.53,9.38-9.59,16.62,1.94,7.24,9.38,11.53,16.61,9.6Z"/>
      <path class="cls-2" d="M22.52,8.59c-1.13,0-2.28.14-3.43.45-3.41.92-6.26,3.11-8.04,6.17-1.78,3.07-2.25,6.64-1.31,10.06.89,3.42,3.09,6.27,6.16,8.05,3.06,1.77,6.65,2.24,10.06,1.32h0c7.07-1.89,11.27-9.17,9.38-16.24-1.57-5.91-6.94-9.82-12.81-9.82h0ZM22.5,35.73c-2.38,0-4.77-.63-6.89-1.87-3.22-1.85-5.5-4.84-6.47-8.42-.97-3.58-.47-7.32,1.39-10.52,1.84-3.21,4.85-5.5,8.41-6.47,7.39-1.97,15.01,2.43,17,9.81,1.97,7.39-2.44,15.01-9.83,16.99h0c-1.18.32-2.41.48-3.61.48Z"/>
      <path class="cls-1" d="M26.71,31.69c6-1.61,9.59-7.8,7.97-13.83-1.6-6.02-7.78-9.59-13.81-7.98-6.03,1.62-9.62,7.81-7.99,13.82,1.6,6.02,7.81,9.6,13.83,7.99Z"/>
      <path class="cls-2" d="M23.81,9.81c-.97,0-1.91.12-2.86.37-5.87,1.56-9.33,7.59-7.78,13.45,1.57,5.85,7.62,9.34,13.47,7.76,2.83-.76,5.19-2.57,6.65-5.11,1.47-2.54,1.86-5.5,1.1-8.34-.76-2.83-2.57-5.2-5.11-6.66-1.7-.98-3.59-1.47-5.48-1.47h0ZM23.78,32.38c-5.11,0-9.8-3.42-11.19-8.59-1.68-6.18,2.02-12.55,8.2-14.2,2.99-.81,6.1-.39,8.78,1.16,2.7,1.55,4.61,4.05,5.42,7.04.79,2.99.39,6.12-1.18,8.79-1.55,2.69-4.03,4.61-7.02,5.41-1.02.27-2.02.39-3.01.39Z"/>
      <path class="cls-1" d="M4.26,26.17l.34,1.24c.29.99.58,1.52,1.18,2.37,2.73,3.23,7,4.14,11.03,4.34,6.81.11,13.57-1.88,19.02-5.98,2.83-2.3,5.29-5.07,5.37-8.91-.03-.58-.08-.98-.21-1.56l-.34-1.24.13.51c.08.58.1,1,.08,1.59-.37,3.62-2.65,6.16-5.37,8.37-5.45,4.09-12.21,6.09-19.02,5.97-3.88-.19-7.83-1-10.66-3.9-.68-.81-1-1.32-1.39-2.29l-.16-.5Z"/>
      <path class="cls-2" d="M6.09,29.66c2.2,2.57,5.61,3.89,10.74,4.15,6.92.11,13.57-1.99,18.81-5.92,2.15-1.74,4.58-4.13,5.14-7.46-.92,2.99-3.14,5.12-5.11,6.7-5.34,4.02-12.13,6.17-19.2,6.05-2.99-.16-7.26-.69-10.37-3.52h0ZM17.33,34.42c-.16,0-.34,0-.52,0-5.37-.27-8.93-1.68-11.27-4.44-.65-.9-.94-1.48-1.23-2.47l-.34-1.25c-.05-.17.05-.33.21-.38.16-.04.31.05.37.21l.16.5c.37.89.66,1.39,1.34,2.19,2.99,3.08,7.41,3.64,10.45,3.8,6.89.1,13.57-1.99,18.81-5.91,2.38-1.94,4.87-4.43,5.27-8.16,0-.56-.03-.95-.1-1.51l-.11-.49c-.03-.17.05-.32.24-.36.16-.04.31.06.37.22l.34,1.24c.13.59.18,1.01.21,1.61-.1,4.25-2.99,7.13-5.5,9.17-5.21,3.91-11.82,6.05-18.68,6.05Z"/>
      <path class="cls-4" d="M11.57,32.17c8.2,2.21,19.73-.88,25.75-6.88,6-6.02,4.22-12.66-3.98-14.86-1.47-.4-3.06-.63-4.72-.7,1.89.95,3.54,2.33,4.82,4.05,3.98,2.27,4.32,6.52.42,10.41-4.64,4.62-13.52,7-19.86,5.31-5.16-1.39-7.02-5.08-4.98-8.9.18-2.2.94-4.29,2.1-6.1-1.31.84-2.49,1.78-3.51,2.81-6.03,6-4.24,12.67,3.96,14.86Z"/>
      <path class="cls-2" d="M10.18,15.53c-.86.63-1.65,1.3-2.36,2-2.83,2.82-3.98,5.87-3.25,8.57.71,2.7,3.22,4.75,7.07,5.78h0c8.1,2.17,19.52-.88,25.44-6.8,2.83-2.83,4.01-5.87,3.27-8.57-.71-2.7-3.25-4.75-7.1-5.78-1.02-.28-2.15-.48-3.3-.59,1.42.9,2.67,2.07,3.69,3.42,1.86,1.08,2.99,2.6,3.22,4.39.29,2.1-.71,4.4-2.8,6.47-4.69,4.7-13.73,7.11-20.12,5.39-2.8-.75-4.79-2.21-5.61-4.11-.71-1.59-.58-3.37.37-5.18.16-1.73.68-3.43,1.47-4.98h0ZM17.33,33.19c-2.04,0-4.03-.23-5.84-.71-4.06-1.09-6.73-3.31-7.52-6.22-.79-2.92.42-6.17,3.41-9.16,1.02-1.02,2.23-1.97,3.59-2.85.1-.08.26-.06.37.04.11.1.13.26.05.38-1.15,1.79-1.86,3.85-2.07,5.96,0,.04,0,.08-.03.11-.86,1.65-1,3.28-.39,4.7.76,1.73,2.59,3.06,5.21,3.76,6.21,1.67,14.99-.68,19.54-5.23,1.94-1.95,2.86-4.06,2.59-5.96-.21-1.61-1.23-2.97-2.96-3.96-.03-.02-.08-.05-.11-.09-1.2-1.65-2.83-3.02-4.69-3.95-.13-.07-.18-.21-.16-.36.03-.14.18-.23.31-.23,1.7.07,3.3.3,4.77.7,4.09,1.09,6.76,3.3,7.55,6.22.76,2.92-.45,6.17-3.43,9.16-4.74,4.74-12.92,7.68-20.2,7.68Z"/>
      <path class="cls-1" d="M32.32,1.5l.39,1.19c.03.11.13.17.23.14l1.23-.25c.11-.02.18.04.18.17s-.08.27-.18.37l-1.23,1.17c-.1.11-.21.26-.23.42l-.39,1.65c-.03.14-.13.27-.24.34-.1.06-.21.04-.23-.06l-.39-1.19c-.05-.12-.13-.17-.26-.14l-1.23.24c-.08.02-.16-.04-.16-.18,0-.12.08-.27.16-.36l1.23-1.17c.13-.11.21-.26.26-.42l.39-1.65c.03-.14.13-.27.23-.33.11-.07.21-.04.24.06Z"/>
      <path class="cls-2" d="M31.25,4.99c.23,0,.42.14.5.36l.29.89.37-1.59c.05-.22.18-.42.34-.56l1.18-1.13-.92.19c-.26.05-.5-.09-.58-.35l-.29-.88-.39,1.58c-.05.22-.16.42-.34.57l-1.18,1.12.92-.18s.08-.02.11-.02h0ZM31.98,7.04c-.08,0-.13,0-.16-.03-.13-.05-.24-.15-.26-.28l-.39-1.11-1.13.24c-.13.03-.26,0-.37-.09-.13-.09-.18-.23-.18-.39,0-.21.11-.43.26-.59l1.23-1.17c.08-.08.13-.17.16-.27l.39-1.65c.05-.22.21-.42.39-.53.13-.08.29-.1.42-.05.13.05.21.15.26.29h0l.37,1.11,1.15-.24c.13-.03.26,0,.37.09.11.09.16.22.16.39,0,.21-.1.43-.26.59l-1.23,1.17c-.08.07-.13.17-.16.27l-.39,1.64c-.05.23-.21.42-.37.53-.11.05-.18.08-.26.08Z"/>
      <path class="cls-1" d="M10.63.51l.84,2.55c.11.24.29.35.52.29l2.62-.54c.24-.04.37.1.37.37s-.13.58-.37.79l-2.62,2.49c-.24.24-.42.56-.5.89l-.86,3.52c-.08.3-.26.58-.5.72-.24.13-.45.08-.5-.14l-.86-2.54c-.08-.24-.26-.35-.5-.3l-2.62.54c-.23.04-.39-.1-.39-.37s.16-.58.39-.79l2.62-2.49c.24-.24.42-.56.5-.9l.86-3.52c.05-.3.26-.57.5-.71.24-.13.42-.08.5.13Z"/>
      <path class="cls-2" d="M8.37,8.31c.31,0,.58.19.68.52l.86,2.53s.03-.01.05-.03c.16-.1.31-.31.37-.52l.84-3.52c.11-.39.31-.76.6-1.04l2.62-2.49c.16-.15.26-.38.26-.57v-.09l-2.59.57c-.42.08-.76-.12-.89-.51l-.84-2.54s-.03.02-.05.03c-.16.09-.31.31-.37.52l-.84,3.51c-.11.4-.31.76-.6,1.05l-2.62,2.49c-.18.16-.29.39-.29.57,0,.05.03.09.03.09l2.59-.56c.08,0,.13-.02.18-.02h0ZM9.89,11.98c-.08,0-.16-.02-.21-.05-.16-.06-.29-.19-.37-.38l-.84-2.54c-.03-.09-.05-.11-.16-.09l-2.62.53c-.18.04-.37,0-.5-.12-.16-.12-.24-.32-.24-.56,0-.36.16-.75.45-1.02l2.65-2.49c.21-.2.34-.46.42-.74l.84-3.52c.1-.38.34-.73.65-.91.21-.11.42-.14.6-.08.16.07.29.2.34.38h0l.86,2.54c.03.1.05.12.16.09l2.62-.54c.18-.04.37,0,.5.11.16.12.24.32.24.56,0,.36-.18.75-.47,1.02l-2.62,2.49c-.21.19-.34.46-.42.74l-.84,3.52c-.11.38-.37.73-.66.9-.13.08-.26.12-.39.12Z"/>
      <path class="cls-2" d="M16.31,35.58c-2.46,0-4.85-.28-7.05-.87-4.82-1.29-8.02-3.89-9.01-7.3-2.04-7.06,8.88-14.51,14.17-16.82.16-.07.34,0,.42.16.05.15-.03.34-.18.41C8.95,13.65-.98,20.94.85,27.24c.92,3.21,3.96,5.65,8.57,6.88,9.82,2.63,23.63-1.05,30.73-8.23,4.22-4.24,5.4-8.66,3.22-12.11-3.12-5.01-13.13-5.98-18.94-5.06-.16.03-.31-.09-.34-.26-.03-.17.08-.32.26-.35,6.13-.97,16.24.03,19.54,5.34,2.33,3.73,1.13,8.42-3.3,12.88-5.66,5.71-15.48,9.26-24.29,9.26Z"/>
    </g>
  </g>
</svg>