<?xml version="1.0" encoding="UTF-8"?>
<svg id="Layer_2" data-name="Layer 2" xmlns="http://www.w3.org/2000/svg" viewBox="0 0 21.27 40.46" fill="currentColor">
  <defs>
    <style>
      .cls-1 {
        fill: #fff;
      }

      .cls-1, .cls-2, .cls-3, .cls-4 {
        fill-rule: evenodd;
      }

      .cls-2 {
        fill: #1a87c7;
      }

      .cls-3 {
        fill: #bdedf8;
      }

      .cls-4 {
        fill: #66ceef;
      }
    </style>
  </defs>
  <g id="_Layer_" data-name="&amp;lt;Layer&amp;gt;">
    <g>
      <path class="cls-3" d="M20.94,31.14c0,3.34.52,5.43-3.41,7.47-6.34,3.31-17.12.96-17.23-4.42v-3.05c.29,7.23,17.56,8,20.34,1.42l.29-1.42Z"/>
      <path class="cls-2" d="M.62,33.28v.91c.04,1.89,1.5,3.15,2.71,3.87,3.77,2.23,10.08,2.36,14.06.28,2.89-1.51,3.25-2.97,3.26-5.13-2.07,3.59-8.25,4.79-13.35,3.86-3.29-.6-5.63-1.96-6.69-3.79h0ZM10.63,40.46c-2.76,0-5.52-.63-7.62-1.87-1.94-1.15-2.98-2.67-3.01-4.39v-3.06c0-.17.13-.3.3-.31.19,0,.31.13.31.29.11,2.59,2.65,4.58,6.8,5.34,5.02.91,11.41-.37,12.95-4.03l.28-1.36c.03-.15.18-.26.33-.24.16.02.28.15.28.3,0,.36,0,.7.01,1.04.05,2.78.08,4.8-3.58,6.71-2.01,1.05-4.53,1.57-7.05,1.57Z"/>
      <path class="cls-1" d="M3.33,26.93c4.03-2.32,10.56-2.33,14.59,0,4.03,2.33,4.03,6.1,0,8.43-4.03,2.32-10.56,2.32-14.59,0-4.03-2.33-4.03-6.1,0-8.43Z"/>
      <path class="cls-2" d="M10.62,25.49c-2.59,0-5.17.57-7.14,1.71-1.85,1.07-2.87,2.47-2.87,3.94s1.02,2.88,2.87,3.95c3.94,2.27,10.35,2.27,14.28,0,1.85-1.07,2.87-2.47,2.87-3.95s-1.02-2.88-2.87-3.94c-1.97-1.14-4.56-1.71-7.14-1.71h0ZM10.62,37.41c-2.7,0-5.4-.6-7.45-1.78-2.05-1.18-3.18-2.77-3.18-4.48s1.13-3.3,3.18-4.48c4.11-2.37,10.79-2.37,14.9,0,2.05,1.18,3.18,2.77,3.18,4.48s-1.13,3.3-3.17,4.48c-2.05,1.19-4.75,1.78-7.45,1.78Z"/>
      <path class="cls-3" d="M5.93,9.57v1.28c0,1.2-.1,2.32-.3,3.43-1.22,6.7-4.02,8.53-4.02,16.48,0,6.55,18.14,6.94,18.14,0v-1.66c0-5.91-3.04-9.46-4.02-14.82-.2-1.11-.3-2.24-.3-3.43v-1.28H5.93Z"/>
      <path class="cls-2" d="M6.24,9.87v.98c0,1.23-.1,2.37-.3,3.49-.5,2.72-1.24,4.64-1.97,6.49-1.05,2.7-2.05,5.24-2.05,9.94,0,3.12,4.51,4.75,8.96,4.75,4.12,0,8.56-1.49,8.57-4.75v-1.66c0-3.42-1.02-6-2.1-8.72-.74-1.87-1.51-3.81-1.92-6.04-.2-1.12-.3-2.26-.3-3.49v-.98H6.24ZM10.88,36.13c-4.76,0-9.57-1.84-9.57-5.37,0-4.82,1.02-7.41,2.09-10.16.71-1.83,1.45-3.71,1.94-6.38.2-1.08.29-2.19.29-3.38v-1.28c0-.17.14-.31.31-.31h9.5c.17,0,.31.14.31.31v1.28c0,1.19.1,2.3.29,3.38.4,2.18,1.15,4.08,1.88,5.93,1.05,2.66,2.14,5.41,2.14,8.95v1.66c0,3.71-4.61,5.37-9.18,5.37Z"/>
      <path class="cls-1" d="M4.97,34.74c5.24,2.23,14.78,1.06,14.78-3.98v-1.66c0-5.91-3.04-9.46-4.02-14.82-.2-1.11-.3-2.24-.3-3.43v-1.28h-6.73c-.02,1.18-.11,2.31-.27,3.42-.9,6.15-3.78,10.6-3.78,17.24,0,1.03,0,3.06.32,4.51Z"/>
      <path class="cls-2" d="M5.24,34.52c3.77,1.53,9.48,1.25,12.32-.63,1.25-.83,1.88-1.88,1.88-3.13v-1.66c0-3.42-1.02-6-2.1-8.72-.74-1.87-1.51-3.81-1.92-6.04-.2-1.12-.3-2.26-.3-3.49v-.98h-6.12c-.03,1.09-.12,2.13-.27,3.16-.38,2.57-1.1,4.86-1.8,7.07-1.02,3.23-1.98,6.27-1.98,10.13,0,1.06,0,2.91.28,4.29h0ZM10.86,36.14c-2.11,0-4.25-.36-6-1.11-.09-.04-.16-.12-.18-.22-.33-1.46-.33-3.46-.33-4.54,0-4,1.02-7.23,2.01-10.36.69-2.19,1.41-4.46,1.78-6.97.16-1.09.25-2.2.27-3.38,0-.16.14-.3.31-.3h6.73c.17,0,.31.14.31.31v1.28c0,1.19.1,2.3.29,3.38.4,2.18,1.15,4.08,1.88,5.93,1.05,2.66,2.14,5.41,2.14,8.95v1.66c0,1.45-.75,2.71-2.16,3.64-1.72,1.14-4.36,1.73-7.04,1.73Z"/>
      <path class="cls-3" d="M5.86,9.28c2.67,1.54,7,1.54,9.67,0,2.67-1.54,2.67-4.05,0-5.59-2.67-1.54-7.01-1.54-9.68,0-2.67,1.54-2.67,4.04,0,5.59Z"/>
      <path class="cls-2" d="M10.7,2.84c-1.7,0-3.39.37-4.68,1.12-1.19.69-1.85,1.58-1.85,2.53s.66,1.84,1.85,2.53h0c2.58,1.49,6.78,1.49,9.37,0,1.19-.69,1.85-1.59,1.85-2.53s-.66-1.84-1.85-2.53c-1.29-.75-2.99-1.12-4.69-1.12h0ZM10.7,10.74c-1.81,0-3.61-.4-4.99-1.19h0c-1.39-.8-2.16-1.89-2.16-3.06s.77-2.26,2.16-3.06c2.75-1.59,7.23-1.59,9.98,0,1.39.8,2.16,1.89,2.16,3.06s-.77,2.26-2.16,3.06c-1.38.8-3.18,1.19-4.99,1.19Z"/>
      <polygon class="cls-3" points="14.39 .93 14.39 3.17 13.39 4.06 13.39 1.83 14.39 .93"/>
      <path class="cls-2" d="M13.7,1.97v1.4l.38-.35v-1.4l-.38.35h0ZM13.39,4.37s-.09,0-.13-.03c-.11-.05-.18-.16-.18-.28V1.83c0-.09.04-.17.1-.23l1-.9c.09-.08.22-.1.33-.05.11.05.18.16.18.28v2.24c0,.09-.04.17-.1.23l-1,.9c-.06.05-.13.08-.21.08Z"/>
      <path class="cls-1" d="M13.39,1.83v2.23c-1.28-.46-2.62-.55-3.96-.36V1.47c1.34-.19,2.68-.09,3.96.36Z"/>
      <path class="cls-2" d="M10.72,3.3c.82,0,1.61.11,2.36.34v-1.59c-1.05-.34-2.17-.45-3.34-.31v1.61c.33-.03.66-.05.98-.05h0ZM13.39,4.37s-.07,0-.1-.02c-1.18-.42-2.47-.54-3.81-.35-.09.01-.18-.01-.25-.07-.07-.06-.11-.14-.11-.23V1.47c0-.15.11-.28.26-.3,1.45-.21,2.83-.08,4.11.38.12.04.2.16.2.29v2.23c0,.1-.05.19-.13.25-.05.04-.12.05-.18.05Z"/>
      <polygon class="cls-4" points="9.43 1.47 9.43 3.7 8.96 2.67 8.96 .43 9.43 1.47"/>
      <path class="cls-2" d="M9.43,4.01c-.12,0-.23-.07-.28-.18l-.47-1.03s-.03-.08-.03-.13V.43c0-.14.1-.27.24-.3.14-.03.28.04.35.17l.47,1.03s.03.08.03.13v2.23c0,.15-.1.27-.24.3-.02,0-.04,0-.07,0Z"/>
      <path class="cls-1" d="M7.52,2.03v2.23c-.85.41-1.7,1.06-1.82,2.06,0-.4-.03-2.13.02-2.38.18-.92,1.01-1.52,1.8-1.91Z"/>
      <path class="cls-2" d="M7.22,2.55c-.69.43-1.08.9-1.19,1.45-.02.1-.02.53-.02.98.3-.34.7-.64,1.21-.91v-1.52h0ZM6.01,6.32h0,0ZM5.7,6.63s-.01,0-.02,0c-.16,0-.29-.14-.29-.31v-.37c-.01-1.16-.01-1.87.03-2.07.16-.84.82-1.56,1.96-2.13.09-.05.21-.04.3.01.09.06.15.16.15.26v2.23c0,.12-.07.23-.17.28-1,.49-1.56,1.1-1.65,1.82-.02.15-.15.27-.31.27Z"/>
      <polygon class="cls-3" points="5.7 4.09 5.7 6.32 3.85 6.26 3.85 4.03 5.7 4.09"/>
      <path class="cls-2" d="M4.16,5.97l1.23.04v-1.62l-1.23-.04v1.62h0ZM5.7,6.63h-.01l-1.85-.06c-.17,0-.3-.14-.3-.31v-2.23c0-.08.03-.16.09-.22.06-.06.14-.09.22-.09l1.85.06c.17,0,.3.14.3.31v2.23c0,.08-.03.16-.1.22-.06.06-.13.09-.21.09Z"/>
      <path class="cls-1" d="M16.46,2.13c1.05.94,1.33,2.08.86,3.13l-1.79-.27c.34-.76.14-1.6-.63-2.28l1.56-.58Z"/>
      <path class="cls-2" d="M15.94,4.74l1.18.18c.28-.84.02-1.69-.74-2.44l-.94.35c.48.59.65,1.26.49,1.91h0ZM17.32,5.57s-.03,0-.04,0l-1.79-.27c-.1-.01-.18-.07-.23-.16-.05-.08-.05-.19-.01-.27.3-.66.1-1.34-.55-1.93-.08-.07-.12-.18-.1-.29.02-.11.09-.19.2-.23l1.56-.58c.11-.04.23-.02.31.06,1.13,1.02,1.47,2.29.93,3.49-.05.11-.16.18-.28.18Z"/>
      <path class="cls-1" d="M8.2,7.94c-1.8-.41-3.2-1.23-3.88-2.24l1.72-.39c.5.74,1.52,1.34,2.83,1.64l-.68.99Z"/>
      <path class="cls-2" d="M4.86,5.89c.69.75,1.82,1.36,3.2,1.7l.31-.46c-1.07-.31-1.95-.84-2.46-1.48l-1.05.24h0ZM8.2,8.25s-.05,0-.07,0c-1.85-.42-3.33-1.28-4.07-2.37-.06-.08-.07-.19-.03-.29.04-.1.12-.17.22-.19l1.72-.39c.12-.03.25.02.32.13.46.68,1.43,1.23,2.65,1.51.1.02.18.09.22.19.04.09.03.2-.03.28l-.67,1c-.06.09-.15.14-.26.14Z"/>
      <path class="cls-1" d="M3.85,4.03c.11-1.12,1.04-2.14,2.49-2.82l1.17.83c-1.06.5-1.74,1.25-1.82,2.06l-1.85-.06Z"/>
      <path class="cls-2" d="M4.22,3.73l1.23.04c.17-.68.69-1.3,1.49-1.78l-.62-.43c-1.13.57-1.88,1.35-2.1,2.17h0ZM5.7,4.4s0,0-.01,0l-1.85-.06c-.09,0-.17-.04-.22-.1-.06-.06-.08-.15-.07-.23.12-1.21,1.09-2.33,2.67-3.07.1-.05.22-.04.31.03l1.17.83c.09.07.14.17.13.28,0,.11-.07.21-.17.25-.98.46-1.58,1.12-1.64,1.81-.02.16-.15.28-.31.28Z"/>
      <path class="cls-1" d="M8.96.43c1.87-.28,3.84-.09,5.43.5l-1,.9c-1.16-.43-2.59-.57-3.96-.36l-.47-1.04Z"/>
      <path class="cls-2" d="M10.69,1.07c.92,0,1.83.14,2.63.41l.47-.42c-1.34-.41-2.89-.54-4.37-.37l.2.45c.35-.04.71-.07,1.07-.07h0ZM13.39,2.14s-.07,0-.11-.02c-1.13-.41-2.51-.54-3.81-.35-.14.02-.27-.05-.33-.18l-.47-1.03c-.04-.09-.04-.19.01-.28.05-.08.13-.14.22-.16,1.89-.29,3.92-.1,5.58.51.1.04.18.13.2.23.02.1-.02.21-.09.29l-1,.9c-.06.05-.13.08-.21.08Z"/>
      <polygon class="cls-4" points="8.87 6.95 8.87 9.18 8.2 10.18 8.2 7.94 8.87 6.95"/>
      <path class="cls-2" d="M8.51,8.04v1.13l.06-.09v-1.13l-.06.09h0ZM8.2,10.49s-.06,0-.09-.01c-.13-.04-.22-.16-.22-.29v-2.24c0-.06.02-.12.05-.17l.68-.99c.07-.11.21-.16.34-.12.13.04.22.16.22.3v2.23c0,.06-.02.12-.05.17l-.67,1c-.06.09-.15.13-.26.13Z"/>
      <path class="cls-3" d="M15.69,4.33v2.23c.01-.68-.3-1.18-.79-1.63v-2.23c.48.45.8.95.79,1.63Z"/>
      <path class="cls-2" d="M15.21,4.81c.06.06.12.12.17.18v-.65h0c0-.27-.05-.52-.17-.75v1.23h0ZM15.69,6.87h0c-.17,0-.31-.14-.31-.31v-.08c-.01-.48-.22-.89-.69-1.32-.06-.06-.1-.14-.1-.23v-2.23c0-.12.07-.23.18-.28.11-.05.24-.03.33.06.62.57.9,1.16.89,1.86v2.14s0,.06,0,.09c0,.17-.14.3-.31.3Z"/>
      <polygon class="cls-4" points="11.09 8.21 11.09 10.44 10.99 9.37 10.99 7.14 11.09 8.21"/>
      <path class="cls-2" d="M11.09,10.75c-.16,0-.29-.12-.31-.28l-.11-1.07v-2.26c0-.16.13-.3.29-.31.16,0,.3.11.32.27l.11,1.07s0,.02,0,.03v2.23c0,.17-.13.3-.29.31h-.02Z"/>
      <polygon class="cls-3" points="17.32 5.26 17.32 7.5 15.68 7.27 15.68 5.03 17.32 5.26"/>
      <path class="cls-2" d="M15.99,7l1.02.14v-1.61l-1.02-.14v1.61h0ZM17.32,7.8s-.03,0-.04,0l-1.64-.23c-.15-.02-.27-.15-.27-.3v-2.23c0-.09.04-.17.11-.23.07-.06.16-.08.24-.07l1.64.23c.15.02.27.15.27.3v2.24c0,.09-.04.17-.11.23-.06.05-.13.08-.2.08Z"/>
      <path class="cls-1" d="M15.99,6.77c-1.23.86-3.02,1.38-4.89,1.44l-.11-1.07c1.37-.04,2.68-.42,3.57-1.05l1.43.68Z"/>
      <path class="cls-2" d="M11.33,7.43l.04.46c1.51-.09,2.92-.47,3.98-1.08l-.77-.36c-.85.55-2.01.9-3.26.99h0ZM11.09,8.52c-.16,0-.29-.12-.31-.28l-.11-1.07c0-.08.02-.17.07-.23.06-.06.14-.1.22-.1,1.33-.05,2.57-.41,3.4-1,.09-.06.21-.07.31-.03l1.43.68c.1.05.17.14.17.25,0,.11-.04.22-.13.28-1.25.88-3.09,1.43-5.06,1.5h-.01Z"/>
      <path class="cls-1" d="M3.85,6.49v2.62c.05,2.2,2.76,3.36,4.58,3.73,2.51.51,6,.17,7.98-1.56.65-.57,1.11-1.29,1.13-2.17v-4.75c-.04.59-.19.77-.22.9v2.22c-.04.18-.42.69-.56.85l-.77.67v-2.22c-1.43.98-3.18,1.37-4.89,1.44v2.22c-.97.04-1.95-.06-2.9-.26v-2.22c-1.45-.34-3-.98-3.88-2.24v2.21c-.31-.47-.44-.86-.46-1.42Z"/>
      <path class="cls-2" d="M4.16,8.18v.93c.04,1.89,2.36,3.03,4.33,3.43,2.35.47,5.77.21,7.71-1.49.66-.58,1.01-1.24,1.02-1.95v-.89c-.12.16-.22.28-.25.31l-.79.69c-.09.08-.22.1-.33.05-.11-.05-.18-.16-.18-.28v-1.66c-1.17.67-2.61,1.07-4.28,1.17v1.93c0,.17-.13.3-.3.31-.96.04-1.96-.05-2.98-.27-.14-.03-.24-.16-.24-.3v-1.98c-1.4-.36-2.5-.91-3.27-1.66v1.38c0,.14-.09.26-.22.29-.08.03-.17.02-.24-.03h0ZM10.68,13.36c-.82,0-1.61-.08-2.31-.22-2.2-.45-4.78-1.77-4.83-4.02v-2.63c0-.17.13-.3.3-.31.09,0,.11.01.16.04v-.52c0-.14.09-.25.21-.29.13-.04.27,0,.35.12.7,1,1.95,1.71,3.7,2.12.14.03.24.16.24.3v1.97c.77.15,1.53.23,2.28.22v-1.92c0-.17.13-.3.29-.31,1.92-.08,3.51-.55,4.73-1.39.09-.07.22-.07.32-.02.1.05.17.16.17.27v1.55l.26-.23c.13-.15.43-.57.47-.69v-2.15c0-.12.03-.17.06-.24.05-.12.13-.3.15-.68.01-.17.15-.32.32-.29.17,0,.3.14.3.31v4.75c-.02.9-.43,1.71-1.23,2.41-1.51,1.33-3.83,1.85-5.93,1.85Z"/>
      <path class="cls-3" d="M3.85,6.49v2.62c.04,1.77,1.9,2.93,3.38,3.41v-4.84c-1.11-.37-2.23-1-2.92-1.97v2.21c-.31-.47-.44-.86-.46-1.42Z"/>
      <path class="cls-2" d="M4.16,8.18v.93c.03,1.42,1.43,2.45,2.76,2.97v-4.19c-.72-.26-1.6-.69-2.3-1.37v1.38c0,.14-.09.26-.22.29-.08.03-.17.02-.24-.03h0ZM7.24,12.83s-.06,0-.09-.02c-1.71-.55-3.55-1.81-3.6-3.69v-2.63c0-.17.13-.3.3-.31.09,0,.11.01.16.04v-.52c0-.14.09-.25.21-.29.13-.04.27,0,.35.12.72,1.02,1.9,1.57,2.77,1.86.13.04.21.16.21.29v4.84c0,.1-.05.19-.13.25-.05.04-.12.06-.18.06Z"/>
    </g>
  </g>
</svg>