<?xml version="1.0" encoding="UTF-8"?>
<svg id="Layer_2" data-name="Layer 2" xmlns="http://www.w3.org/2000/svg" viewBox="0 0 40.33 40.33" fill="currentColor">
  <defs>
    <style>
      .cls-1 {
        fill: #fff;
      }

      .cls-1, .cls-2, .cls-3, .cls-4 {
        fill-rule: evenodd;
      }

      .cls-2 {
        fill: #1a87c7;
      }

      .cls-3 {
        fill: #bdedf8;
      }

      .cls-4 {
        fill: #66ceef;
      }
    </style>
  </defs>
  <g id="_Layer_" data-name="&amp;lt;Layer&amp;gt;">
    <g>
      <path class="cls-4" d="M33.93,6.38h0c.6.61,1.17,1.25,1.69,1.93,1.5,1.97,2.67,4.27,3.35,6.82.69,2.54.83,5.11.51,7.57-.34,2.55-1.18,5.01-2.45,7.2-2.6,4.5-6.8,7.73-11.82,9.08-2.55.68-5.11.83-7.58.5-2.55-.33-5-1.17-7.2-2.44-2.2-1.27-4.15-2.97-5.73-5.01-1.51-1.97-2.67-4.27-3.35-6.81-.67-2.5-.84-4.97-.5-7.57.34-2.54,1.16-4.98,2.45-7.21,1.27-2.2,2.96-4.15,5.01-5.72,1.96-1.51,4.26-2.67,6.81-3.36,2.55-.68,5.11-.83,7.58-.5,4.23.56,8.2,2.5,11.23,5.53Z"/>
      <path class="cls-2" d="M20.17.99c-1.67,0-3.33.22-4.96.66-2.45.65-4.7,1.77-6.7,3.3-2,1.54-3.66,3.43-4.94,5.63-1.26,2.2-2.08,4.58-2.41,7.09-.33,2.53-.18,4.97.5,7.45.66,2.45,1.76,4.71,3.3,6.7,1.54,2.01,3.43,3.67,5.62,4.94,2.21,1.27,4.59,2.08,7.09,2.41,2.49.33,5.01.17,7.46-.49,4.94-1.33,9.07-4.5,11.64-8.94,1.27-2.2,2.08-4.59,2.41-7.08.33-2.5.16-5.01-.5-7.46-.65-2.45-1.76-4.7-3.3-6.7-.51-.66-1.06-1.29-1.65-1.89l.21-.22-.22.22c-2.98-2.96-6.91-4.89-11.06-5.44-.83-.11-1.66-.16-2.49-.16h0ZM20.17,39.95c-.86,0-1.71-.05-2.57-.17-2.59-.35-5.05-1.18-7.32-2.49-2.27-1.3-4.22-3.02-5.82-5.09-1.58-2.06-2.72-4.38-3.4-6.91-.69-2.57-.86-5.09-.51-7.7.34-2.58,1.18-5.04,2.48-7.31,1.31-2.27,3.03-4.22,5.09-5.81,2.06-1.58,4.39-2.73,6.92-3.41,2.53-.68,5.11-.85,7.69-.51,4.29.56,8.34,2.56,11.41,5.62,0,0,0,0,0,.02h.01c.6.61,1.18,1.26,1.7,1.95,1.58,2.06,2.73,4.39,3.4,6.92.68,2.52.85,5.11.51,7.69-.34,2.58-1.17,5.04-2.49,7.31-2.64,4.58-6.91,7.86-12.01,9.22-1.68.45-3.4.68-5.12.68Z"/>
      <path class="cls-3" d="M4.16,16.85c.6-3.19,2.18-6.64,4.5-9.7,1.41-1.86,3.1-3.58,5.01-5.01.15-.1.18-.3.1-.45-.09-.16-.27-.22-.43-.16-1.93.7-3.69,1.68-5.25,2.88-2.09,1.6-3.82,3.6-5.11,5.84-.78,1.35-1.41,2.81-1.86,4.32-.03.13,0,.26.09.35.65.66,1.31,1.28,2.01,1.84.13.11.26.21.38.3.11.08.23.1.35.05.11-.04.19-.14.22-.26Z"/>
      <path class="cls-2" d="M13.34,1.52l.1.29c-1.86.68-3.6,1.63-5.17,2.83-2.04,1.57-3.74,3.51-5.02,5.75-.78,1.35-1.39,2.78-1.83,4.27.69.73,1.35,1.33,2,1.86.12.1.25.2.37.3l.07-.02c.62-3.29,2.24-6.78,4.56-9.84,1.48-1.95,3.18-3.66,5.07-5.07l-.15-.36h0ZM3.81,17.45c-.14,0-.28-.05-.4-.14-.13-.11-.26-.21-.39-.31-.67-.54-1.33-1.15-2.04-1.87-.17-.18-.23-.42-.17-.65.45-1.53,1.09-3.01,1.89-4.39,1.34-2.31,3.09-4.3,5.19-5.93,1.62-1.24,3.42-2.23,5.34-2.93.31-.1.65.02.81.3.16.3.08.64-.18.84-1.84,1.38-3.5,3.05-4.95,4.96-2.26,2.99-3.84,6.39-4.44,9.58-.04.23-.2.41-.42.5-.08.03-.16.04-.23.04Z"/>
      <path class="cls-3" d="M18.7.41s-.05.03-.09.05c-3.65,1.56-6.78,4.24-9.12,7.32-2.43,3.2-4,6.82-4.43,10.07-.03.14.04.27.16.35.22.13.43.26.66.38,1.55.87,3.13,1.48,4.74,1.83.11.03.19,0,.27-.04.09-.05.13-.13.16-.23.84-4.12,2.72-8.51,5.76-12.13,2.22-2.64,5.06-4.89,8.57-6.35.14-.06.23-.19.22-.35,0-.15-.11-.28-.26-.31-.84-.23-1.7-.4-2.58-.52-1.27-.17-2.57-.21-3.88-.12-.06,0-.12.02-.18.06Z"/>
      <path class="cls-2" d="M18.7.41l.18.25s-.09.05-.15.08c-3.39,1.45-6.5,3.95-8.99,7.22-2.35,3.09-3.95,6.71-4.37,9.93.23.18.45.3.66.42,1.51.84,3.08,1.45,4.66,1.8.98-4.58,3.06-8.93,5.88-12.31,2.41-2.88,5.34-5.04,8.69-6.43v-.08c-.84-.22-1.69-.4-2.55-.51-1.27-.16-2.55-.2-3.82-.12l-.19-.24h0ZM10.7,20.72c-.05,0-.1-.01-.15-.02-1.64-.36-3.27-.99-4.82-1.86-.24-.12-.45-.26-.67-.39-.23-.14-.35-.39-.31-.65.45-3.35,2.05-6.99,4.5-10.21C11.79,4.24,14.99,1.66,18.49.17l.03-.02c.11-.06.21-.11.33-.11,1.31-.08,2.63-.03,3.94.13.88.12,1.76.3,2.63.53.27.07.46.31.48.59.02.29-.14.54-.4.65-3.26,1.35-6.1,3.45-8.46,6.26-2.76,3.29-4.79,7.55-5.69,12-.04.18-.14.33-.3.42-.11.07-.22.1-.35.1Z"/>
      <path class="cls-3" d="M31.05,7.99c2.46,2.11,4.66,5.2,6.14,8.74.9,2.15,1.55,4.47,1.84,6.84.03.17.16.3.34.31.18,0,.33-.12.35-.29.05-.28.1-.57.13-.84.33-2.51.18-5.13-.51-7.72-.69-2.6-1.88-4.94-3.41-6.95-.43-.57-.9-1.11-1.38-1.62-.09-.09-.22-.13-.35-.1-1.06.29-2.09.63-3.05,1.04-.11.04-.19.14-.21.27-.03.12.02.24.11.32Z"/>
      <path class="cls-2" d="M31.25,7.75c2.53,2.17,4.74,5.32,6.23,8.86.95,2.26,1.57,4.59,1.85,6.93l.39.05-.3-.05c.05-.28.1-.56.13-.84.34-2.55.17-5.1-.5-7.6-.67-2.5-1.8-4.8-3.36-6.84-.42-.55-.88-1.08-1.37-1.59-1.09.27-2.11.61-3.06,1l-.21.32.2-.24h0ZM39.38,24.19h-.03c-.32-.01-.59-.25-.63-.58-.28-2.28-.89-4.55-1.82-6.76-1.44-3.45-3.6-6.51-6.06-8.63h0c-.17-.15-.26-.36-.22-.6.03-.22.18-.42.39-.5.97-.41,2.01-.76,3.09-1.04.23-.06.48,0,.64.18.51.53.98,1.08,1.41,1.64,1.62,2.1,2.78,4.48,3.48,7.05.69,2.58.86,5.21.51,7.84-.03.3-.08.57-.13.86-.05.32-.33.55-.64.55Z"/>
      <path class="cls-3" d="M32.91,5.64c.12-.03.22-.13.24-.26.03-.13-.02-.25-.12-.34-1.5-1.28-3.2-2.33-5.01-3.12-.08-.03-.16-.03-.24,0-4.28,1.29-7.64,3.75-10.16,6.75-2.91,3.47-4.71,7.66-5.53,11.6-.02.1,0,.2.06.28.06.09.14.13.24.14.14.02.27.02.41.04,2.21.17,4.46-.12,6.7-.89.13-.04.21-.14.23-.26.73-3.68,2.37-6.69,4.71-9.03,2.38-2.38,5.29-3.93,8.47-4.91Z"/>
      <path class="cls-2" d="M32.91,5.64h0,0ZM27.89,2.21c-3.96,1.18-7.34,3.42-10.05,6.66-2.64,3.15-4.58,7.21-5.46,11.47.17.07.3.08.42.09,2.18.17,4.39-.12,6.59-.86.75-3.67,2.37-6.75,4.82-9.22,2.24-2.24,5.14-3.92,8.59-4.99.03,0,.03,0,.03-.03-1.49-1.29-3.15-2.33-4.95-3.1h0ZM14.03,21.09c-.43,0-.84-.02-1.26-.05-.14,0-.28-.03-.42-.03-.18-.03-.35-.11-.46-.27-.11-.15-.15-.34-.11-.52.9-4.35,2.9-8.52,5.6-11.73,2.79-3.34,6.26-5.64,10.31-6.86.15-.05.3-.03.45.03,1.85.8,3.56,1.86,5.09,3.16.19.16.27.39.22.64-.04.24-.22.42-.45.5h0c-3.41,1.05-6.13,2.63-8.33,4.83-2.38,2.38-3.93,5.36-4.63,8.88-.04.23-.21.42-.43.5-1.86.62-3.73.95-5.57.95Z"/>
      <path class="cls-3" d="M38,28.78s0-.06.01-.09c.47-3.95-.29-8-1.78-11.56-1.56-3.69-3.89-6.86-6.49-8.87-.1-.09-.25-.1-.37-.03-1.56.83-2.97,1.85-4.17,3.06-.16.16-.32.33-.48.5-.06.07-.09.16-.09.25,0,.1.04.18.11.24,3.15,2.8,6.02,6.63,7.64,11.07,1.18,3.24,1.7,6.82,1.22,10.57-.02.15.05.3.19.36.14.06.3.04.4-.07,1.24-1.23,2.3-2.63,3.17-4.14.22-.38.42-.75.61-1.14.03-.05.04-.11.03-.17Z"/>
      <path class="cls-2" d="M29.55,8.51c-1.61.83-2.99,1.84-4.15,3-.15.16-.31.32-.46.49,3.48,3.14,6.21,7.12,7.73,11.26,1.28,3.53,1.69,7.14,1.23,10.72l.29.25-.22-.22c1.22-1.22,2.27-2.58,3.12-4.07.22-.37.42-.75.6-1.12,0-.01,0-.03,0-.03,0-.04,0-.09.01-.13.43-3.68-.17-7.61-1.76-11.4-1.52-3.62-3.8-6.74-6.39-8.74h0ZM33.94,34.63c-.09,0-.2-.02-.29-.07-.25-.12-.4-.39-.36-.68.45-3.48.05-6.99-1.2-10.42-1.47-4.04-4.15-7.93-7.55-10.94-.14-.12-.21-.28-.22-.46-.02-.17.04-.35.16-.48.16-.17.32-.34.49-.5,1.2-1.2,2.63-2.25,4.24-3.11.23-.12.5-.1.71.06,2.67,2.08,5.01,5.27,6.58,9,1.63,3.87,2.26,7.92,1.81,11.71l-.31.05.31-.02c0,.11-.02.22-.07.32-.19.39-.4.78-.62,1.16-.89,1.54-1.97,2.95-3.21,4.2-.13.13-.3.19-.47.19Z"/>
      <path class="cls-3" d="M.46,22.64c3.27,3.11,7.11,4.81,11.01,5.49,4.46.79,9,.25,12.83-1.02.1-.03.17-.09.21-.19.04-.09.04-.19,0-.28-.94-2.1-2.36-4.02-4.3-5.73-.1-.09-.23-.11-.35-.07-2.39.81-4.79,1.13-7.15.94-2.59-.19-5.09-1.02-7.35-2.28-.4-.23-.79-.47-1.17-.72h0c-.57-.38-1.11-.78-1.63-1.21-.45-.37-.89-.76-1.33-1.17-.1-.09-.22-.12-.35-.08-.12.04-.21.14-.23.27-.06.33-.12.66-.16.99-.22,1.65-.23,3.34-.02,5.04v.02Z"/>
      <path class="cls-2" d="M.76,22.49c2.99,2.81,6.6,4.6,10.77,5.34,4.05.7,8.55.35,12.67-1.02-.9-2.15-2.33-4.05-4.2-5.68-2.47.82-4.91,1.14-7.31.96-2.52-.2-5.11-1-7.48-2.32-.4-.23-.8-.47-1.2-.73-.56-.37-1.12-.79-1.66-1.23-.45-.36-.89-.76-1.35-1.18-.13.35-.18.67-.22,1-.21,1.62-.23,3.25-.03,4.87h0ZM15.72,28.81c-1.46,0-2.91-.12-4.31-.37-4.31-.76-8.08-2.64-11.17-5.57-.06-.07-.1-.16-.09-.25v-.02c-.22-1.63-.21-3.35.02-5.05.04-.34.09-.68.16-1.01.04-.24.21-.43.44-.51.23-.08.48-.02.66.15.44.42.87.8,1.3,1.16.53.43,1.07.83,1.61,1.19.38.25.77.49,1.17.71,2.29,1.28,4.79,2.06,7.22,2.24,2.32.18,4.68-.13,7.03-.93.23-.08.46-.03.64.13,1.93,1.68,3.41,3.66,4.38,5.84.08.17.08.36,0,.53-.07.17-.21.3-.39.36-2.81.92-5.78,1.4-8.67,1.4Z"/>
      <path class="cls-3" d="M25.27,35.7c-3.06,1.07-6.83,1.43-10.65.95-2.29-.29-4.6-.88-6.78-1.8-.16-.07-.35-.01-.43.14-.1.15-.06.34.08.45.86.72,1.78,1.36,2.75,1.92,2.24,1.29,4.74,2.15,7.35,2.49,2.36.31,4.82.2,7.27-.4.12-.03.22-.12.25-.25.29-1.04.5-2.1.64-3.13.02-.12-.04-.24-.13-.31-.1-.08-.22-.11-.34-.06Z"/>
      <path class="cls-2" d="M25.27,35.7h.01-.01ZM7.72,35.13l-.04.08c.84.69,1.76,1.33,2.72,1.89,2.24,1.29,4.68,2.12,7.22,2.46,2.4.31,4.8.18,7.15-.39.31-1.08.52-2.11.65-3.12h0l-.05-.04h0c-3.15,1.1-6.98,1.43-10.79.96-2.41-.3-4.72-.91-6.87-1.83h0ZM20.16,40.33c-.87,0-1.75-.06-2.62-.17-2.63-.35-5.15-1.2-7.46-2.54-.98-.56-1.93-1.23-2.8-1.95-.25-.21-.31-.56-.14-.85.17-.28.51-.39.82-.26,2.1.89,4.35,1.49,6.7,1.78,3.71.47,7.44.14,10.51-.93.22-.08.45-.04.63.1.18.15.26.37.24.6-.14,1.03-.35,2.1-.64,3.17-.06.23-.24.41-.48.47-1.57.38-3.16.57-4.76.57Z"/>
      <path class="cls-3" d="M26.37,38.46c-.03.13,0,.25.11.34.1.09.23.11.35.07,1.95-.68,3.72-1.66,5.3-2.85h0c1.06-4.4.62-8.58-.74-12.3-1.55-4.26-4.28-7.91-7.29-10.59-.08-.07-.17-.1-.27-.09-.11,0-.19.06-.25.15-1.35,1.85-2.31,4.05-2.82,6.59-.03.13.02.25.11.33,2.83,2.47,4.62,5.4,5.47,8.59.88,3.25.76,6.53.03,9.77Z"/>
      <path class="cls-2" d="M26.68,38.52s0,.03,0,.04c1.89-.65,3.62-1.58,5.18-2.74.94-4,.68-8.04-.76-12.01-1.41-3.86-3.97-7.58-7.22-10.46-1.42,1.87-2.34,4.04-2.82,6.47,2.8,2.48,4.67,5.42,5.58,8.78.82,3.09.83,6.34.03,9.92h0ZM26.71,39.19c-.16,0-.31-.06-.44-.17-.18-.17-.26-.4-.21-.64h0c.79-3.48.79-6.63-.02-9.62-.87-3.24-2.68-6.08-5.37-8.43-.18-.16-.26-.39-.21-.63.5-2.52,1.46-4.78,2.86-6.71.11-.16.28-.25.47-.27.19-.02.36.03.5.17,3.32,2.96,5.94,6.76,7.38,10.72,1.5,4.13,1.76,8.32.75,12.47-.02.08-.07.15-.14.19-1.63,1.23-3.43,2.2-5.36,2.88-.08.03-.15.04-.23.04Z"/>
      <path class="cls-3" d="M3.79,31.34s.04.02.06.03c3.18,2.38,7.07,3.75,10.9,4.23,3.98.51,7.89.06,10.94-1.18.13-.05.21-.17.22-.31.06-1.78-.12-3.5-.56-5.15-.06-.22-.12-.43-.19-.64-.03-.09-.09-.16-.17-.21-.09-.04-.18-.04-.27-.02-4,1.34-8.74,1.9-13.41,1.09-3.39-.6-6.74-1.93-9.75-4.23-.12-.1-.28-.1-.41-.01-.12.09-.18.24-.14.38.58,2.17,1.49,4.15,2.68,5.91.03.04.07.08.12.12Z"/>
      <path class="cls-2" d="M3.94,31.07s.1.05.11.06c2.95,2.22,6.68,3.66,10.75,4.17,3.9.5,7.73.08,10.77-1.16.09-1.81-.09-3.51-.53-5.1-.05-.21-.11-.42-.18-.62-4.46,1.44-9.27,1.83-13.61,1.07-3.69-.65-7.01-2.1-9.88-4.29l-.07.05c.56,2.07,1.44,4.03,2.64,5.81l-.14.29.15-.27h0ZM17.98,36.12c-1.07,0-2.16-.06-3.26-.2-4.18-.53-8.01-2.02-11.05-4.29l-.03-.02c-.09-.05-.16-.12-.22-.21-1.23-1.84-2.15-3.86-2.72-6.01-.08-.28.03-.55.26-.72.24-.16.54-.15.78.03,2.79,2.13,6.02,3.54,9.61,4.17,4.24.75,8.95.36,13.26-1.08.17-.05.36-.04.51.04.17.08.28.21.33.39.07.21.13.43.19.65.44,1.65.63,3.42.57,5.24-.01.26-.17.49-.41.59-2.28.93-4.98,1.41-7.82,1.41Z"/>
      <path class="cls-1" d="M5.54,18.38c.11.06.23.13.34.19,1.55.87,3.13,1.48,4.74,1.83.11.03.19,0,.27-.04.09-.05.13-.13.16-.23.84-4.12,2.72-8.51,5.76-12.13,1.99-2.37,4.48-4.42,7.49-5.86-.57-.06-1.14-.09-1.72-.09C13.4,2.05,5.91,9.3,5.54,18.38Z"/>
      <path class="cls-2" d="M5.85,18.21c.06.03.11.07.17.1,1.51.84,3.08,1.45,4.66,1.8.98-4.58,3.06-8.93,5.88-12.31,1.89-2.26,4.11-4.08,6.6-5.43-9.21-.33-16.84,6.75-17.32,15.85h0ZM10.7,20.72c-.05,0-.1-.01-.15-.02-1.64-.36-3.27-.99-4.82-1.86-.12-.06-.24-.13-.35-.2-.11-.05-.16-.17-.16-.28C5.62,9.05,13.24,1.74,22.57,1.74c.59,0,1.17.03,1.75.09.14.02.25.12.28.25.03.14-.04.28-.17.33-2.82,1.36-5.3,3.29-7.39,5.79-2.76,3.29-4.78,7.55-5.69,12-.04.18-.14.33-.3.42-.11.07-.22.1-.35.1Z"/>
      <path class="cls-1" d="M31.05,7.99c2.46,2.11,4.66,5.2,6.14,8.74.9,2.15,1.55,4.47,1.84,6.84v.03c.4-1.43.61-2.94.61-4.49,0-5.03-2.18-9.56-5.66-12.68-.98.27-1.93.59-2.83.97-.11.04-.19.14-.21.27-.03.12.02.24.11.32Z"/>
      <path class="cls-2" d="M31.25,7.75c2.53,2.17,4.74,5.32,6.23,8.86.73,1.74,1.27,3.53,1.61,5.33.16-.94.24-1.89.24-2.83,0-4.68-1.97-9.17-5.42-12.34-.91.26-1.8.57-2.64.91l-.21.32.2-.24h0ZM39.04,23.91h-.02c-.14-.01-.26-.12-.29-.25-.28-2.33-.89-4.61-1.83-6.81-1.44-3.45-3.6-6.51-6.06-8.63h0c-.17-.15-.26-.37-.22-.6.03-.23.17-.42.39-.5.91-.38,1.88-.71,2.88-.98.1-.04.21-.01.29.06,3.66,3.29,5.75,8.01,5.75,12.92,0,1.55-.2,3.08-.61,4.58-.03.13-.16.23-.3.23Z"/>
      <path class="cls-1" d="M32.91,5.64s.06-.03.09-.03c-1.96-1.52-4.26-2.62-6.76-3.16-3.56,1.37-6.42,3.59-8.62,6.22-2.91,3.47-4.71,7.66-5.53,11.6-.02.1,0,.2.06.28.06.09.14.13.24.14.14.02.27.02.41.04,2.21.17,4.46-.12,6.7-.89.13-.04.21-.14.23-.26.73-3.68,2.37-6.69,4.71-9.03,2.38-2.38,5.29-3.93,8.47-4.91Z"/>
      <path class="cls-2" d="M26.25,2.77c-3.25,1.27-6.07,3.33-8.41,6.1-2.64,3.15-4.58,7.22-5.46,11.47.17.07.3.08.42.09,2.18.17,4.39-.12,6.59-.86.75-3.67,2.37-6.75,4.82-9.22,2.17-2.17,4.83-3.75,8.12-4.83-1.82-1.31-3.91-2.25-6.09-2.74h0ZM14.03,21.09c-.43,0-.84-.02-1.26-.05-.14,0-.28-.03-.42-.03-.18-.03-.35-.11-.46-.27-.11-.15-.15-.34-.11-.52.9-4.35,2.9-8.52,5.6-11.73,2.41-2.88,5.35-5.01,8.74-6.32.05-.03.11-.03.17-.02,2.49.55,4.88,1.66,6.89,3.22.08.07.12.17.12.26,0,.11-.06.19-.15.25-.05.03-.1.05-.17.07-3.41,1.05-6.14,2.63-8.33,4.83-2.38,2.38-3.93,5.36-4.63,8.88-.04.23-.21.42-.43.5-1.86.62-3.73.95-5.57.95Z"/>
      <path class="cls-1" d="M38.15,26.09c-.03-3.09-.76-6.17-1.92-8.95-1.56-3.69-3.89-6.86-6.49-8.87-.1-.09-.25-.1-.37-.03-1.56.83-2.97,1.85-4.17,3.06-.16.16-.32.33-.48.5-.06.07-.09.16-.09.25,0,.1.04.18.11.24,3.15,2.8,6.02,6.63,7.64,11.07.98,2.68,1.5,5.58,1.38,8.63,1.86-1.62,3.36-3.63,4.39-5.9Z"/>
      <path class="cls-2" d="M29.55,8.51c-1.61.83-2.99,1.84-4.15,3-.15.16-.31.32-.46.49,3.48,3.14,6.21,7.12,7.73,11.26.96,2.64,1.44,5.34,1.41,8.02,1.57-1.49,2.87-3.29,3.76-5.26-.04-2.88-.7-5.91-1.89-8.76-1.52-3.63-3.8-6.74-6.39-8.74h0ZM33.76,32.3s-.1-.02-.13-.04c-.11-.05-.18-.16-.18-.29.12-2.86-.34-5.72-1.35-8.52-1.47-4.04-4.15-7.93-7.55-10.94-.14-.12-.21-.28-.22-.46-.02-.17.04-.35.16-.48.16-.17.32-.34.49-.5,1.2-1.2,2.63-2.25,4.24-3.11.23-.12.5-.1.71.06,2.67,2.08,5.01,5.27,6.58,9,1.24,2.94,1.91,6.07,1.95,9.05,0,.05,0,.1-.03.13-1.02,2.29-2.57,4.36-4.47,6.02-.05.05-.13.08-.2.08Z"/>
      <path class="cls-1" d="M7.48,27.04c1.31.5,2.65.85,4,1.08,4.46.79,9,.25,12.83-1.02.1-.03.17-.09.21-.19.04-.09.04-.19,0-.28-.94-2.1-2.36-4.02-4.3-5.73-.1-.09-.23-.11-.35-.07-2.39.81-4.79,1.13-7.15.94-2.53-.19-4.97-.98-7.19-2.19.07,2.69.76,5.22,1.95,7.46Z"/>
      <path class="cls-2" d="M7.69,26.79c1.22.46,2.51.81,3.83,1.04,4.05.7,8.55.35,12.67-1.02-.9-2.15-2.33-4.05-4.2-5.68-2.47.82-4.91,1.14-7.31.96-2.3-.18-4.65-.86-6.83-1.98.13,2.36.75,4.6,1.83,6.69h0ZM15.72,28.81c-1.46,0-2.91-.12-4.31-.37-1.4-.24-2.76-.62-4.05-1.11-.07-.03-.13-.08-.17-.15-1.24-2.36-1.9-4.91-1.98-7.59,0-.12.05-.22.15-.27.1-.06.21-.06.31-.01,2.24,1.23,4.68,1.98,7.06,2.16,2.32.18,4.68-.13,7.03-.93.22-.08.46-.03.64.13,1.93,1.68,3.41,3.66,4.38,5.84.08.18.08.36,0,.53-.07.17-.21.3-.39.36-2.81.92-5.78,1.4-8.67,1.4Z"/>
      <path class="cls-3" d="M25.27,35.7c-.43.16-.89.3-1.35.42.61-.05,1.2-.13,1.78-.24-.02-.05-.05-.09-.09-.12-.1-.08-.22-.11-.34-.06Z"/>
      <path class="cls-2" d="M23.92,36.42c-.15,0-.28-.1-.3-.25-.03-.16.07-.31.23-.36.45-.11.89-.25,1.33-.4.22-.08.45-.04.63.1.07.07.13.14.18.23.04.09.04.19,0,.28-.05.09-.12.15-.22.17-.6.1-1.22.19-1.82.23h-.03Z"/>
      <path class="cls-1" d="M26.84,35.63c2.13-.55,4.08-1.49,5.81-2.75.28-3.25-.23-6.34-1.25-9.16-1.55-4.26-4.28-7.91-7.29-10.59-.08-.07-.17-.1-.27-.09-.11,0-.19.06-.25.15-1.35,1.85-2.31,4.05-2.82,6.59-.03.13.02.25.11.33,2.83,2.47,4.62,5.4,5.47,8.59.62,2.28.74,4.61.5,6.94Z"/>
      <path class="cls-2" d="M23.89,13.35c-1.42,1.87-2.34,4.04-2.82,6.47,2.8,2.48,4.68,5.42,5.58,8.78.56,2.07.74,4.29.54,6.6,1.86-.53,3.59-1.36,5.16-2.5.24-2.97-.18-5.96-1.24-8.89-1.41-3.86-3.97-7.58-7.22-10.46h0ZM26.84,35.93c-.07,0-.14-.02-.2-.07-.08-.07-.11-.17-.11-.27.25-2.4.09-4.69-.49-6.83-.87-3.24-2.68-6.08-5.37-8.43-.18-.16-.26-.39-.21-.63.5-2.52,1.46-4.78,2.86-6.71.11-.16.28-.25.47-.27.19-.02.36.03.5.17,3.32,2.96,5.94,6.76,7.38,10.72,1.11,3.06,1.54,6.18,1.28,9.29-.01.09-.06.17-.13.23-1.79,1.31-3.77,2.25-5.91,2.8-.03,0-.05,0-.08,0Z"/>
      <path class="cls-1" d="M18.99,35.79c2.44-.1,4.75-.57,6.69-1.36.13-.05.21-.17.22-.31.06-1.77-.12-3.5-.56-5.15-.06-.22-.12-.43-.19-.64-.03-.09-.09-.16-.17-.21-.09-.04-.18-.04-.27-.02-4,1.34-8.74,1.9-13.41,1.09-1.01-.18-2.01-.42-3-.73,2.43,3.69,6.23,6.39,10.7,7.34Z"/>
      <path class="cls-2" d="M9.05,28.98c2.41,3.28,5.99,5.64,9.97,6.5,2.39-.11,4.66-.57,6.54-1.35.09-1.81-.09-3.51-.53-5.1-.05-.21-.11-.42-.18-.62-4.46,1.44-9.27,1.83-13.61,1.07-.75-.14-1.48-.3-2.19-.5h0ZM18.99,36.1s-.04-.01-.07-.01c-4.43-.95-8.4-3.68-10.88-7.48-.08-.11-.07-.25,0-.36.08-.1.21-.15.34-.1.95.3,1.95.54,2.96.72,4.24.75,8.95.36,13.26-1.08.17-.05.36-.04.51.04.17.08.28.21.33.39.07.21.13.43.19.65.44,1.65.63,3.42.57,5.24-.01.26-.17.49-.41.59-1.96.8-4.31,1.29-6.8,1.39h0Z"/>
    </g>
  </g>
</svg>