<?xml version="1.0" encoding="UTF-8"?>
<svg id="Layer_2" data-name="Layer 2" xmlns="http://www.w3.org/2000/svg" viewBox="0 0 29.18 46.98" fill="currentColor">
  <defs>
    <style>
      .cls-1 {
        fill: #fff;
      }

      .cls-1, .cls-2, .cls-3, .cls-4 {
        fill-rule: evenodd;
      }

      .cls-2 {
        fill: #1a87c7;
      }

      .cls-3 {
        fill: #bdedf8;
      }

      .cls-4 {
        fill: #66ceef;
      }
    </style>
  </defs>
  <g id="_Layer_" data-name="&amp;lt;Layer&amp;gt;">
    <g>
      <path class="cls-1" d="M7.03,28.83c.23-.29.89-.98,1.07-1.28.36-.61.35-.84.42-1.56,2.87,3.32,9.64-1.63,12.34-3.18.1,1.66.21,2.71.74,3.78h0c.78,1.87-1.99,4.62-4.86,5.69-2.11.79-4.36.48-6.42-.32-2.18-.85-3.51-2.04-3.3-3.12Z"/>
      <path class="cls-2" d="M7.31,28.95c-.09.88,1.12,1.94,3.12,2.72,2.3.89,4.39,1,6.21.32,2.03-.76,3.96-2.36,4.59-3.8.24-.56.28-1.06.1-1.49-.5-1-.64-2.03-.73-3.39-.24.15-.52.32-.81.5-3.12,1.93-8.22,5.09-11.02,2.82-.04.35-.13.62-.4,1.07-.12.22-.43.56-.72.88-.13.14-.24.27-.33.37h0ZM14.13,33.03c-1.23,0-2.54-.27-3.91-.8-2.42-.94-3.72-2.23-3.48-3.46,0-.05.02-.09.06-.13.08-.11.24-.28.4-.46.25-.28.56-.62.65-.79.3-.49.31-.69.36-1.22l.03-.22c0-.12.09-.22.2-.25.12-.04.24,0,.32.09,2.32,2.7,7.57-.55,10.7-2.49.47-.29.9-.55,1.25-.76.08-.05.2-.05.29,0,.09.05.15.14.16.24.1,1.59.2,2.63.72,3.66.24.6.21,1.26-.1,1.98-.69,1.61-2.71,3.3-4.92,4.13-.86.32-1.77.48-2.72.48Z"/>
      <path class="cls-1" d="M19.25,28.14c.85-1.06,1.48-1.96,2.02-2.99h0l.28-.54c.53-1.13.98-2.38,1.34-3.68h0c.19-.75.35-1.53.49-2.31.14-.77.25-1.54.32-2.27h0c.03-.3.04-.6.05-.9.02-.28.02-.58.02-.91v-.56c0-.16-.02-.33-.02-.52-.16-1.42-1.93-.74-3.83,0-2.24.86-4.63,1.78-5.59.03l-.02.03c-.96,1.51-2.75,4.33-3.12,7.82-.03.31-.06.63-.07.96-.02.32-.02.64,0,.97h0c.13,1.98-.19,2.62-.87,3.76,1.51,1.87,4.67,3.33,7.08,2.79.69-.16,1.09-.62,1.93-1.65Z"/>
      <path class="cls-2" d="M10.61,26.97c1.44,1.65,4.38,3.03,6.65,2.52.57-.13.92-.51,1.76-1.55h0c.9-1.12,1.5-2,2-2.94l.27-.53c.53-1.12.97-2.34,1.32-3.63.19-.74.35-1.51.49-2.29.14-.77.24-1.52.3-2.24,0,0,0-.02,0-.03.02-.29.04-.57.05-.86.01-.27.02-.57.02-.9,0-.24,0-.42,0-.56,0-.15-.01-.32-.02-.51-.03-.29-.15-.4-.24-.45-.53-.32-1.94.23-3.19.71-2.11.81-4.48,1.73-5.69.29-.99,1.58-2.51,4.18-2.85,7.33-.03.3-.05.62-.07.94,0,.31,0,.63,0,.95.13,1.94-.18,2.67-.8,3.74h0ZM16.23,30.2c-2.37,0-4.94-1.42-6.22-3.01-.08-.1-.08-.23-.02-.34.66-1.12.96-1.7.82-3.59,0-.34,0-.68,0-1,.02-.34.04-.67.08-.98.37-3.56,2.19-6.41,3.16-7.94.06-.09.18-.17.27-.15.11,0,.21.05.26.14.84,1.53,3.06.67,5.22-.16,1.58-.61,2.94-1.14,3.71-.67.31.18.48.49.53.91.02.21.03.38.03.54,0,.14,0,.33,0,.57,0,.34,0,.64-.02.92-.02.31-.03.61-.06.92,0,0,0,.02,0,.04-.07.73-.18,1.49-.31,2.26-.13.79-.3,1.57-.5,2.33-.36,1.33-.82,2.58-1.35,3.74l-.28.55c-.52.98-1.14,1.89-2.06,3.04h0c-.85,1.06-1.29,1.58-2.09,1.76-.38.09-.77.12-1.16.12Z"/>
      <path class="cls-4" d="M28.88,34.92v-4.42c0-3.53-3.39-5.36-6.4-5.62-.43-.04-.76-.07-1.02-.09-.09.19-.19.37-.3.55.1.43.24.83.45,1.23h0c.78,1.87-1.99,4.62-4.86,5.69-2.11.79-4.36.48-6.42-.32-2.18-.85-3.51-2.04-3.3-3.12-1.51,1.96-2.22,2.55-3.89,4.37C-.23,36.99.34,38.38.34,42.74c0,1.33.16,1.68,1.62,2.52,9.7,5.6,26.93-6.62,26.93-10.33Z"/>
      <path class="cls-2" d="M6.8,29.6c-.83,1.03-1.42,1.66-2.2,2.47-.36.38-.76.8-1.24,1.32-2.84,3.2-2.81,4.62-2.76,7.73,0,.49.02,1.03.02,1.62,0,1.22.1,1.47,1.46,2.26,6.5,3.75,15.78-1.03,18.48-2.58,4.95-2.86,8.01-6.12,8.01-7.5v-4.42c0-3.3-3.18-5.07-6.13-5.32-.33-.03-.6-.06-.82-.07-.05.1-.1.19-.15.29.1.38.23.72.4,1.05.24.6.21,1.26-.1,1.98-.69,1.61-2.71,3.3-4.92,4.13-1.97.73-4.2.63-6.64-.32-1.88-.73-3.09-1.67-3.41-2.63h0ZM7.84,46.98c-2.29,0-4.35-.48-6.05-1.46-1.49-.86-1.77-1.3-1.77-2.78,0-.58-.01-1.11-.02-1.61-.06-3.17-.09-4.77,2.91-8.14.48-.53.89-.95,1.25-1.33.9-.95,1.55-1.63,2.62-3.02.08-.11.23-.15.35-.09.13.06.19.19.17.33-.17.89,1.05,1.99,3.11,2.79,2.3.89,4.39,1,6.21.32,2.03-.76,3.96-2.36,4.59-3.8.24-.56.28-1.06.1-1.49-.19-.39-.35-.81-.46-1.28-.01-.07,0-.15.03-.22.1-.18.19-.36.29-.54.05-.1.14-.16.29-.16.26.02.6.04,1.04.09,3.21.28,6.67,2.25,6.67,5.92v4.42c0,1.83-3.58,5.28-8.32,8.01-4.63,2.67-9.16,4.04-13.02,4.04Z"/>
      <path class="cls-1" d="M23.36,25s-.03,0-.05,0c.02,0,.03,0,.05,0Z"/>
      <path class="cls-2" d="M23.35,25.3s-.03,0-.05,0h-.05c-.14-.04-.23-.16-.23-.3v-.06c.03-.16.19-.27.35-.23.14.03.26.16.26.3v.05c-.04.15-.14.25-.28.25Z"/>
      <path class="cls-4" d="M28.88,34.92v-4.42c0-3.15-2.7-4.96-5.43-5.49.22.34.4.82.49,1.21.15.71.14,1.49.02,2.05-.12.5-.31.99-.57,1.47-.26.49-.61.97-1.01,1.43-.56.64-1.24,1.24-2,1.78-.74.53-1.56.99-2.39,1.34,0,0-.05.02-.13.05l-.3.11c-.63.24-1.28.4-1.92.5-.68.1-1.35.13-2.03.1-.68-.03-1.37-.13-2.04-.28-.71-.16-1.41-.38-2.09-.64s-1.32-.57-1.87-.9c-.56-.33-1.05-.7-1.46-1.08-.38-.36-.7-.75-.94-1.16-.59.65-1.2,1.26-2.07,2.21C-.23,36.99.34,38.38.34,42.74c0,1.33.16,1.68,1.62,2.52,9.7,5.6,26.93-6.62,26.93-10.33Z"/>
      <path class="cls-2" d="M5.17,31.47c-.19.2-.37.39-.57.6-.36.38-.76.8-1.24,1.32-2.84,3.2-2.81,4.62-2.76,7.73,0,.49.02,1.03.02,1.62,0,1.22.1,1.47,1.46,2.26,6.5,3.75,15.78-1.03,18.48-2.58,4.95-2.86,8.01-6.12,8.01-7.5v-4.42c0-2.83-2.26-4.43-4.57-5.05.09.23.17.48.22.71.16.7.16,1.53.02,2.18-.12.51-.32,1.03-.59,1.54-.28.51-.63,1-1.05,1.48-.57.64-1.27,1.27-2.05,1.83-.78.55-1.62,1.02-2.45,1.37,0,0-.05.02-.14.06l-.3.11c-.64.24-1.31.41-1.99.52-.67.1-1.38.13-2.09.1-.68-.03-1.39-.13-2.09-.29-.7-.16-1.42-.38-2.12-.65-.7-.27-1.35-.58-1.93-.92-.58-.34-1.09-.72-1.51-1.12-.3-.28-.56-.58-.78-.89h0ZM7.84,46.98c-2.29,0-4.35-.48-6.05-1.46-1.49-.86-1.77-1.3-1.77-2.78,0-.58-.01-1.11-.02-1.61-.06-3.17-.09-4.77,2.91-8.14.48-.53.89-.95,1.25-1.33.29-.31.56-.59.82-.88.07-.07.16-.1.26-.1.09,0,.18.06.23.15.22.38.51.74.89,1.09.38.36.86.71,1.4,1.04.54.32,1.16.62,1.83.88.68.27,1.37.48,2.05.63.67.15,1.34.24,1.98.28.67.03,1.34,0,1.98-.09.64-.1,1.26-.26,1.86-.48l.41-.16c.79-.33,1.61-.79,2.34-1.31.74-.52,1.41-1.12,1.95-1.73.39-.44.71-.9.96-1.37.25-.46.44-.93.54-1.39.13-.56.12-1.29-.02-1.91-.08-.39-.26-.83-.45-1.11-.07-.1-.07-.23,0-.33.07-.1.19-.15.31-.12,2.62.51,5.67,2.33,5.67,5.78v4.42c0,1.83-3.58,5.28-8.32,8.01-4.63,2.67-9.16,4.04-13.02,4.04Z"/>
      <path class="cls-3" d="M4.48,31.77c-1.41-4.37-.09-5.53-.45-8.64-.53-4.53-1.87-5.06-.55-9.69,1.35-4.7,4.52-11.74,7.03-10.29.19-.31.4-.56.62-.84l.42-.44.44-.37c3.68-2.43,8.19,3.04,10.08,6.24,1.68,2.85,4.36,9.11.9,17.19h0c-.17-.02-.34-.04-.5-.05-.43-.04-.76-.07-1.02-.09-.06.12-.12.24-.19.35l.28-.54c.53-1.13.98-2.38,1.34-3.68h0c.19-.75.35-1.53.49-2.31.14-.77.25-1.54.32-2.27h0c.03-.3.04-.6.05-.9.02-.28.02-.58.02-.91v-.56c0-.16-.02-.33-.02-.52-.16-1.42-1.93-.74-3.83,0-2.24.86-4.63,1.78-5.59.03l-.02.03c-.96,1.51-2.75,4.33-3.12,7.82-.03.31-.06.63-.07.96-.02.32-.02.64,0,.97h0c.39,5.66-3.35,7.22-6.64,8.53Z"/>
      <path class="cls-2" d="M21.91,24.53c.18.01.37.03.6.06.09,0,.19.02.29.03,1.72-4.11,1.82-7.78,1.26-10.76v.1c0,.14,0,.33,0,.57,0,.34,0,.64-.02.92-.02.31-.03.61-.06.92,0,0,0,.02,0,.04-.07.73-.18,1.49-.31,2.26-.13.79-.3,1.57-.5,2.33-.34,1.25-.76,2.43-1.26,3.53h0ZM9.81,3.26c.19,0,.38.05.56.15.14.08.31.04.4-.1.17-.26.35-.5.54-.74l.44-.46.41-.35c.8-.53,1.68-.68,2.64-.46,2.67.62,5.45,3.94,7.02,6.59.69,1.18,1.49,2.84,2,4.9-.08-.12-.19-.22-.31-.3-.77-.47-2.13.06-3.71.67-2.16.83-4.38,1.69-5.22.16-.05-.09-.15-.14-.26-.14-.09-.02-.21.06-.27.15-.97,1.53-2.79,4.39-3.16,7.94-.03.32-.06.64-.08.98,0,.32,0,.65,0,1,.37,5.35-3.02,6.87-6.15,8.11-.74-2.45-.58-3.8-.41-5.22.11-.9.22-1.84.08-3.06-.18-1.51-.44-2.56-.67-3.49-.46-1.84-.75-3.05.11-6.08,1.24-4.33,3.61-9.37,5.56-10.16.17-.07.34-.1.49-.1h0ZM4.48,32.07s-.09-.01-.13-.03c-.08-.04-.13-.1-.16-.18-.9-2.76-.71-4.3-.53-5.78.1-.91.21-1.77.08-2.92-.18-1.47-.43-2.5-.66-3.42-.46-1.86-.79-3.2.12-6.39.91-3.19,3.32-9.5,5.91-10.55.46-.19.89-.2,1.3-.04.14-.2.29-.38.44-.57l.06-.07.44-.46.47-.39c.96-.64,2-.82,3.13-.56,2.86.66,5.77,4.11,7.4,6.87,1.82,3.08,4.36,9.45.92,17.46-.02.03-.03.06-.05.08-.07.08-.17.12-.27.1-.16-.02-.32-.04-.48-.05-.33-.03-.6-.06-.82-.07-.03.06-.07.12-.09.18-.09.14-.27.2-.41.12-.14-.07-.2-.26-.13-.4l.27-.54c.53-1.12.97-2.34,1.32-3.63.19-.74.35-1.51.49-2.29.14-.77.24-1.52.3-2.24,0,0,0-.02,0-.03.02-.29.04-.57.05-.86.01-.27.02-.57.02-.9,0-.24,0-.42,0-.56,0-.15-.01-.32-.02-.51-.03-.29-.15-.4-.24-.45-.53-.32-1.94.23-3.19.71-2.11.81-4.48,1.73-5.69.29-.99,1.58-2.51,4.18-2.85,7.33-.03.3-.05.62-.07.94,0,.31,0,.63,0,.95.41,5.95-3.6,7.54-6.82,8.81-.03.02-.08.02-.11.02Z"/>
      <path class="cls-4" d="M13.4,15.65c1.51-1.89,1.38-2.72,3.65-4.02,2.58-1.47,5.13-2.31,6.48-1.89.07-4.28-2.02-7.47-5.83-8.78-3.81-1.31-7.5-.66-10.7,1.75-2.52,1.91-5.18,7.62-3.37,11.02,1.31,1.25,4.96,2.69,6.87,2.62,1.34-.05,2.55-.34,2.91-.71Z"/>
      <path class="cls-2" d="M13.4,15.65h0,0ZM3.87,13.55c1.32,1.22,4.89,2.56,6.61,2.51,1.34-.05,2.42-.35,2.69-.61.47-.58.77-1.06,1.04-1.48.63-.97,1.07-1.67,2.7-2.6,2.58-1.48,4.9-2.2,6.32-2-.06-3.97-2.1-6.91-5.63-8.13C13.93-.01,10.33.58,7.18,2.95c-2.51,1.9-4.98,7.38-3.31,10.6h0ZM10.37,16.65c-1.95,0-5.57-1.4-6.94-2.7-.03-.02-.04-.05-.06-.08-1.84-3.46.77-9.37,3.46-11.4C10.14-.03,13.92-.64,17.8.68c3.9,1.34,6.1,4.64,6.03,9.07,0,.09-.05.18-.12.24-.08.05-.18.07-.26.04-1.19-.37-3.59.34-6.24,1.86-1.5.86-1.9,1.47-2.49,2.41-.29.44-.6.93-1.09,1.54,0,0,0,.01-.02.02-.47.49-1.9.75-3.11.79-.04,0-.08,0-.13,0Z"/>
      <path class="cls-4" d="M16.28,19.87l-4.94-2.85-.84-.66c2.41-3.02,8.87-7.51,12.47-7.18l5.01,2.86c-2.17-.22-5.41,1.48-7.2,2.6-1.94,1.23-3.9,2.77-5.33,4.57l.85.67Z"/>
      <path class="cls-2" d="M10.91,16.31l.61.47,3.74,2.16c1.29-1.6,3.09-3.14,5.34-4.56.94-.59,3.86-2.32,6.28-2.62l-4.02-2.29c-3.38-.24-9.44,3.87-11.96,6.84h0ZM16.28,20.17c-.05,0-.1-.01-.15-.04l-4.94-2.85-.88-.69c-.06-.05-.1-.12-.11-.2,0-.08.01-.16.06-.22,2.48-3.1,9.05-7.63,12.73-7.29.04,0,.08.02.12.04l5.01,2.86c.12.07.18.22.14.35-.04.13-.16.22-.31.21-2.36-.24-5.97,1.9-7.02,2.55-2.12,1.35-3.83,2.78-5.07,4.28l.61.47c.12.1.15.27.06.41-.05.08-.15.13-.25.13Z"/>
      <path class="cls-3" d="M27.85,13.09c-.13-.02-.28-.02-.44-.02-.17,0-.35.03-.53.06-.63.1-1.35.32-2.12.63h0c-.8.32-1.67.75-2.55,1.25-.93.53-1.87,1.15-2.74,1.81-.83.64-1.61,1.32-2.28,2.01-.16.16-.31.33-.46.49-.13.16-.29.34-.44.53l-.85-.67c.15-.19.31-.38.48-.58.17-.19.34-.37.49-.53h.01c.71-.74,1.53-1.45,2.4-2.12.92-.7,1.89-1.34,2.86-1.9.91-.52,1.83-.97,2.69-1.31.85-.34,1.65-.58,2.35-.69.23-.04.45-.06.66-.07.21-.01.42,0,.6.02l-.12,1.07Z"/>
      <path class="cls-2" d="M15.85,19.16l.37.29c.09-.11.19-.21.27-.31.14-.17.3-.34.46-.5.67-.69,1.45-1.38,2.33-2.04.87-.67,1.81-1.28,2.77-1.83.89-.52,1.77-.94,2.59-1.27,0,0,0,0,.02,0,.81-.32,1.54-.54,2.16-.64.2-.03.39-.05.57-.06.07,0,.13,0,.19,0l.06-.47c-.08,0-.17,0-.26,0-.2,0-.41.03-.63.07-.67.1-1.44.33-2.28.67-.85.34-1.74.78-2.65,1.29-.98.56-1.93,1.19-2.82,1.87-.9.68-1.69,1.38-2.38,2.09-.15.16-.31.33-.48.52-.1.11-.2.22-.29.33h0ZM16.28,20.17c-.07,0-.13-.02-.19-.06l-.85-.66c-.06-.05-.1-.12-.11-.2,0-.08,0-.16.06-.22.15-.19.32-.39.5-.59.17-.19.34-.37.5-.54.7-.73,1.52-1.45,2.44-2.15.91-.7,1.9-1.34,2.89-1.92.92-.53,1.84-.98,2.72-1.33.89-.36,1.7-.59,2.41-.71.24-.04.47-.06.7-.07.23,0,.45,0,.64.02.08,0,.15.05.2.11.05.06.07.14.06.22l-.12,1.07c-.02.16-.17.28-.33.26-.13-.01-.25-.02-.4-.01-.15,0-.32.02-.5.05-.58.09-1.27.3-2.05.61,0,0,0,0-.02,0-.79.31-1.62.73-2.49,1.23-.95.54-1.85,1.14-2.71,1.79-.85.65-1.61,1.32-2.26,1.98-.15.16-.31.32-.45.49-.14.15-.29.33-.43.52-.06.07-.15.11-.23.11Z"/>
      <polygon class="cls-1" points="26.3 35.17 22.15 38.01 22.24 39.55 26.39 36.72 26.3 35.17"/>
      <path class="cls-2" d="M22.46,38.16l.04.85,3.57-2.44-.04-.85-3.57,2.44h0ZM22.24,39.85c-.05,0-.09-.01-.14-.03-.1-.05-.16-.15-.17-.25l-.08-1.55c0-.1.04-.2.13-.26l4.15-2.84c.09-.06.2-.07.3-.02.1.05.16.15.17.25l.08,1.55c.01.11-.04.21-.12.27l-4.14,2.83c-.06.04-.11.05-.17.05Z"/>
    </g>
  </g>
</svg>