<?xml version="1.0" encoding="UTF-8"?>
<svg id="Layer_2" data-name="Layer 2" xmlns="http://www.w3.org/2000/svg" viewBox="0 0 29.22 40.75" fill="currentColor">
  <defs>
    <style>
      .cls-1 {
        fill: #fff;
      }

      .cls-1, .cls-2, .cls-3, .cls-4 {
        fill-rule: evenodd;
      }

      .cls-2 {
        fill: #1a87c7;
      }

      .cls-3 {
        fill: #bdedf8;
      }

      .cls-4 {
        fill: #66ceef;
      }
    </style>
  </defs>
  <g id="_Layer_" data-name="&amp;lt;Layer&amp;gt;">
    <g>
      <path class="cls-1" d="M14.61,40.44c-3.66,0-7.32-.81-10.12-2.42-2.2-1.27-4.34-3.38-4.18-6.12.25-4.36,3.73-15.94,7.97-18.39,12.58-7.26.07-7.26,12.65,0,4.24,2.45,7.72,14.03,7.96,18.39.16,2.74-1.97,4.84-4.18,6.12-2.79,1.61-6.45,2.42-10.11,2.42Z"/>
      <path class="cls-2" d="M14.61,8.84c-.55.91-2.06,2.56-6.17,4.93C4.22,16.21.85,27.86.63,31.93c-.17,2.95,2.45,4.92,4.02,5.83,2.66,1.53,6.2,2.38,9.96,2.38s7.3-.84,9.96-2.38c1.57-.91,4.19-2.88,4.02-5.83-.24-4.07-3.6-15.71-7.82-18.15-4.12-2.38-5.62-4.03-6.17-4.93h0ZM14.61,40.75c-3.87,0-7.52-.87-10.27-2.46C1.45,36.62-.13,34.29,0,31.89c.24-4.28,3.65-16.06,8.12-18.64,5.67-3.27,6.14-5.03,6.17-5.22.04-.15.17-.27.31-.27s.28.12.3.27c.03.19.5,1.95,6.17,5.22,4.47,2.58,7.88,14.36,8.13,18.64.14,2.39-1.44,4.73-4.34,6.4-2.75,1.59-6.4,2.46-10.26,2.46Z"/>
      <path class="cls-3" d="M14.01,11.76c-.79.68-2,1.48-3.78,2.5-4.18,2.42-4.24,13.11-4.49,17.41-.15,2.7,1.95,4.78,4.12,6.03,2.18,1.26,4.9,2.02,7.73,2.28-.18.02-.36.15-.54.34-.81.08-1.63.12-2.45.12-3.66,0-7.32-.81-10.12-2.42-2.2-1.27-4.34-3.38-4.18-6.12.25-4.36,3.73-15.94,7.97-18.39,1.96-1.13,3.3-2.08,4.23-2.86l1.5,1.11Z"/>
      <path class="cls-2" d="M12.53,11.05c-1.06.86-2.43,1.78-4.09,2.73C4.22,16.21.85,27.86.63,31.93c-.17,2.95,2.45,4.92,4.02,5.83,2.66,1.53,6.2,2.38,9.96,2.38.47,0,.94-.01,1.4-.04-2.37-.38-4.53-1.1-6.3-2.13-2.85-1.64-4.41-3.95-4.28-6.31.03-.42.05-.89.07-1.41.24-4.89.65-13.98,4.58-16.24,1.56-.9,2.66-1.62,3.43-2.22l-.98-.73h0ZM14.61,40.75c-3.87,0-7.52-.87-10.27-2.46C1.45,36.62-.13,34.29,0,31.89c.24-4.28,3.65-16.06,8.12-18.64,1.73-1,3.14-1.95,4.19-2.83.11-.09.27-.1.38-.01l1.5,1.1c.08.06.12.14.12.24.01.09-.03.18-.1.24-.79.68-2.01,1.49-3.82,2.54-3.63,2.1-4.04,10.97-4.27,15.74-.02.53-.04,1-.07,1.42-.17,3.02,2.72,5.02,3.97,5.74,2.08,1.2,4.7,1.98,7.61,2.25.16.01.28.15.28.3s-.12.29-.28.31c-.04,0-.15.04-.34.24-.05.05-.12.09-.19.09-.82.08-1.65.12-2.49.12Z"/>
      <path class="cls-1" d="M14.35.36c-1.19,0-2.37.26-3.27.78-.72.41-1.41,1.09-1.36,1.98.07,1.23.92,4.36,2.05,5.69,0-.01.03.06.04.08.54.97,1.56,1.22,2.61,1.22.92,0,1.92-.24,2.41-1.02.08-.15.04-.19.16-.35,1.1-1.37,1.92-4.41,1.99-5.61.04-.89-.64-1.57-1.36-1.98-.91-.52-2.1-.78-3.28-.78Z"/>
      <path class="cls-2" d="M11.99,8.59c.05.06.1.13.12.21.37.66,1.11.99,2.28.99h.03c.74,0,1.7-.16,2.15-.88.01-.03.02-.05.03-.08.02-.09.06-.18.15-.3,1.06-1.33,1.86-4.32,1.92-5.44.05-.88-.83-1.48-1.2-1.7-.83-.48-1.94-.74-3.12-.74s-2.29.26-3.13.74c-.47.27-1.24.85-1.2,1.7.07,1.19.92,4.23,1.97,5.49h0ZM14.39,10.41c-1.39,0-2.32-.45-2.84-1.37.03.03.16.11.3.07-.11.03-.24,0-.31-.1-1.19-1.4-2.05-4.6-2.13-5.87-.04-.86.5-1.68,1.51-2.27C11.84.34,13.06.05,14.35.05s2.5.29,3.43.82c1.01.58,1.56,1.41,1.51,2.27-.07,1.22-.9,4.34-2.05,5.79-.03.04-.05.06-.05.1-.02.06-.04.12-.09.2-.6.97-1.78,1.18-2.68,1.18h-.03Z"/>
      <path class="cls-1" d="M17.59,1.09C15.77.04,12.84.04,11.02,1.09c-1.81,1.05-1.81,2.74,0,3.79,1.82,1.05,4.75,1.05,6.57,0,1.82-1.05,1.82-2.75,0-3.79Z"/>
      <path class="cls-2" d="M14.31.61c-1.13,0-2.27.25-3.13.75-.78.45-1.21,1.03-1.21,1.63s.44,1.18,1.21,1.63c1.73,1,4.54,1,6.26,0,.78-.45,1.21-1.03,1.21-1.63s-.42-1.18-1.21-1.63h0c-.86-.5-1.99-.75-3.13-.75h0ZM14.31,5.97c-1.24,0-2.49-.27-3.43-.82-.98-.56-1.52-1.33-1.52-2.16s.54-1.6,1.52-2.16c1.9-1.1,4.98-1.1,6.88,0h0c.97.56,1.51,1.33,1.51,2.16s-.54,1.6-1.51,2.16c-.95.55-2.2.82-3.44.82Z"/>
      <path class="cls-4" d="M16.76,1.57c-1.35-.78-3.54-.78-4.9,0-1.35.78-1.35,2.05,0,2.83,1.36.78,3.55.78,4.9,0,1.36-.78,1.36-2.05,0-2.83Z"/>
      <path class="cls-2" d="M14.31,1.29c-.83,0-1.66.18-2.29.55-.56.32-.86.73-.86,1.15s.3.83.86,1.15c1.27.73,3.33.73,4.59,0,.56-.32.86-.73.86-1.15s-.3-.83-.86-1.15c-.64-.36-1.46-.55-2.3-.55h0ZM14.31,5.29c-.94,0-1.89-.21-2.6-.62-.76-.43-1.17-1.03-1.17-1.68s.42-1.24,1.17-1.68c1.45-.84,3.75-.84,5.21,0h0c.75.44,1.17,1.03,1.17,1.68s-.42,1.25-1.17,1.68c-.72.41-1.66.62-2.61.62Z"/>
      <path class="cls-4" d="M13.74,22.93h-.28c-.4,0-.72.03-.96.09-.23.05-.42.17-.56.36-.13.19-.2.48-.2.88,0,.57.17.96.5,1.17.33.21.83.32,1.5.32v-2.81h0ZM14.88,27.27v3.1h.35c.6,0,1.04-.11,1.33-.33.29-.21.43-.62.43-1.2,0-.46-.09-.79-.25-1.01-.16-.21-.37-.35-.63-.41-.26-.06-.68-.11-1.23-.16h0ZM14.88,22.93v2.85c.86.03,1.56.11,2.11.24.54.13.98.4,1.31.81.34.41.5,1.02.5,1.82s-.12,1.46-.36,1.93c-.24.46-.62.8-1.13,1-.51.2-1.21.32-2.09.36h-.35v1.1h-1.14v-1.1c-.6,0-1.13-.05-1.61-.14-.47-.09-.88-.25-1.23-.48-.34-.23-.61-.54-.8-.95-.19-.4-.29-.91-.29-1.51l-.02-.37h1.81c0,.46.04.8.12,1.05.07.24.19.42.36.54.15.11.35.18.56.21.2.03.57.06,1.1.09v-3.1c-.7-.04-1.25-.11-1.66-.18-.42-.07-.78-.2-1.11-.4-.33-.19-.59-.49-.76-.87-.18-.39-.27-.91-.27-1.55,0-.8.16-1.41.47-1.84.31-.43.75-.72,1.3-.87.55-.15,1.23-.23,2.04-.23v-.97h1.14v.97c.9.04,1.61.13,2.11.28.5.14.89.43,1.16.86.26.43.4,1.08.4,1.95h-1.77c0-.06-.02-.13-.02-.21,0-.51-.11-.85-.33-1.02-.22-.18-.59-.27-1.11-.27h-.44Z"/>
      <path class="cls-2" d="M13.43,23.24c-.36,0-.64.03-.85.08-.17.04-.29.12-.38.24-.07.09-.15.28-.15.69,0,.46.11.76.36.91.23.15.57.23,1.03.26v-2.18h0ZM13.74,26.04c-.74,0-1.29-.12-1.67-.37-.42-.28-.64-.76-.64-1.43,0-.47.09-.82.27-1.06.18-.25.43-.41.75-.47.25-.06.58-.09,1.01-.09h.28c.17,0,.3.14.3.31v2.81c0,.17-.14.31-.3.31h0ZM15.19,30.06h.04c.52,0,.91-.09,1.14-.26.21-.15.31-.47.31-.95,0-.38-.06-.66-.18-.82-.11-.16-.26-.25-.45-.3-.19-.04-.47-.08-.86-.12v2.45h0ZM15.23,30.68h-.35c-.17,0-.31-.14-.31-.31v-3.1c0-.09.04-.17.1-.23.06-.06.15-.09.24-.08.6.05,1.01.1,1.28.16.32.07.6.25.81.52.21.27.3.66.3,1.19,0,.69-.18,1.17-.55,1.45-.35.26-.84.39-1.51.39h0ZM14.05,32.72v-.79c0-.17-.14-.31-.3-.31-.57,0-1.09-.04-1.55-.13-.43-.09-.81-.23-1.11-.43-.3-.19-.53-.47-.69-.82-.18-.36-.26-.83-.26-1.39v-.06h1.18c.02.34.05.62.12.83.09.31.25.55.47.7.21.14.44.23.69.26.22.03.59.06,1.13.1.1,0,.18-.03.24-.08.06-.06.09-.14.09-.23v-3.1c0-.16-.12-.3-.29-.31-.68-.04-1.23-.1-1.62-.17-.39-.06-.7-.18-1.01-.36-.28-.17-.49-.41-.65-.73-.16-.35-.24-.83-.24-1.43,0-.73.14-1.29.42-1.66.27-.37.64-.62,1.12-.75.52-.14,1.17-.21,1.96-.21.17,0,.3-.14.3-.31v-.66h.52v.66c0,.17.13.3.3.31.89.04,1.57.13,2.05.26.43.12.75.36.96.73.21.33.32.82.36,1.48h-1.16c-.01-.56-.16-.94-.45-1.17-.28-.23-.7-.33-1.3-.33h-.44c-.17,0-.31.14-.31.31v2.85c0,.17.13.3.3.31.85.03,1.54.11,2.06.23.47.11.85.34,1.15.7.29.35.44.9.44,1.62,0,.77-.11,1.37-.33,1.78-.21.4-.53.68-.97.86-.48.19-1.15.3-1.98.34h-.35c-.17,0-.31.14-.31.31v.79h-.52ZM14.88,33.34h-1.14c-.17,0-.31-.14-.31-.31v-.8c-.49-.01-.94-.06-1.35-.14-.51-.1-.97-.27-1.34-.52-.39-.26-.7-.62-.91-1.07-.21-.44-.32-1-.32-1.64v-.36c-.01-.08.02-.16.08-.22.06-.06.14-.09.22-.09h1.81c.18,0,.31.14.31.31,0,.42.03.74.09.96.05.18.13.3.24.37.12.09.26.14.42.16.17.02.42.05.76.07v-2.48c-.56-.04-1.03-.1-1.4-.16-.44-.07-.85-.22-1.22-.43-.38-.23-.69-.57-.9-1.01-.19-.43-.29-1-.29-1.68,0-.86.18-1.54.54-2.02.35-.48.84-.82,1.45-.98.51-.14,1.11-.21,1.82-.23v-.67c0-.17.14-.31.31-.31h1.14c.17,0,.3.14.3.31v.68c.8.05,1.43.13,1.89.27.58.17,1.02.5,1.33,1,.29.48.44,1.17.44,2.11,0,.17-.14.31-.3.31h-1.77c-.16,0-.29-.11-.3-.26-.02-.07-.02-.16-.02-.26,0-.4-.08-.67-.22-.79-.12-.09-.37-.2-.92-.2h-.14v2.24c.76.04,1.38.12,1.88.24.61.14,1.11.45,1.49.91.37.46.56,1.14.56,2.01s-.13,1.56-.39,2.07c-.28.53-.71.92-1.29,1.14-.55.22-1.26.34-2.19.38h-.05v.79c0,.17-.14.31-.3.31Z"/>
      <path class="cls-3" d="M9.79,3.7c.37,2.29,1.76,6.28,4.7,6.22-.59-1.63-1.67-1.83-1.56-4.38-1.65-.29-2.05-.71-3.14-1.84Z"/>
      <path class="cls-2" d="M10.3,4.65c.51,2.05,1.69,4.62,3.71,4.93-.16-.31-.32-.57-.5-.82-.45-.68-.92-1.39-.9-2.96-1.13-.23-1.69-.55-2.31-1.14h0ZM14.42,10.23c-2.85,0-4.44-3.48-4.94-6.48-.02-.13.05-.26.17-.32.11-.06.26-.04.36.06,1.07,1.11,1.43,1.48,2.97,1.76.16.03.26.16.26.31-.07,1.57.33,2.17.79,2.86.26.39.54.8.75,1.39.03.09.03.2-.03.28-.05.08-.15.13-.24.13-.03,0-.05,0-.08,0Z"/>
      <path class="cls-4" d="M11.77,11.04v-2.23c.53,1.03,1.57,1.3,2.65,1.29,1.04,0,2.19-.3,2.57-1.37v2.31c-.02.22-.09.39-.22.57-.2.26-.45.43-.75.57-.36.16-.7.25-1.09.3-.3.04-.57.04-.88.03-.48-.04-.9-.13-1.33-.33-.47-.23-.93-.58-.96-1.13Z"/>
      <path class="cls-2" d="M12.07,11.03c.03.34.29.63.79.87.37.17.75.26,1.23.3.3.02.55,0,.81-.02.38-.05.7-.14,1-.28.3-.14.49-.28.63-.48.09-.14.14-.25.15-.4v-1.31c-.51.45-1.28.69-2.26.69-1.04-.01-1.8-.23-2.35-.71v1.33h0ZM14.39,12.82c-.11,0-.22,0-.34-.01-.56-.04-1-.15-1.44-.35-.72-.35-1.1-.82-1.14-1.39v-2.26c0-.14.1-.26.23-.3.15-.03.29.03.35.16.4.77,1.15,1.13,2.35,1.13h.03c.85,0,1.94-.21,2.28-1.16.05-.14.19-.22.35-.2.15.02.25.15.25.3v2.31c-.02.28-.09.51-.27.75-.28.35-.61.54-.86.66-.37.17-.75.27-1.19.33-.19.02-.38.04-.59.04Z"/>
    </g>
  </g>
</svg>