<?xml version="1.0" encoding="UTF-8"?>
<svg id="Layer_2" data-name="Layer 2" xmlns="http://www.w3.org/2000/svg" viewBox="0 0 28.9 40.4" fill="currentColor">
  <defs>
    <style>
      .cls-1 {
        fill: #fff;
      }

      .cls-1, .cls-2, .cls-3, .cls-4 {
        fill-rule: evenodd;
      }

      .cls-2 {
        fill: #1a87c7;
      }

      .cls-3 {
        fill: #bdedf8;
      }

      .cls-4 {
        fill: #66ceef;
      }
    </style>
  </defs>
  <g id="_Layer_" data-name="&amp;lt;Layer&amp;gt;">
    <g>
      <path class="cls-3" d="M20.3,37.89c0,2.93-5.92,2.96-5.92.02v-13.92c.03.05.03.1.05.16.05.14.1.28.21.39.31.4.84.66,1.31.8,1.05.32,2.41.26,3.41-.24.29-.15.58-.36.76-.63.08-.11.13-.26.18-.4v-.08,13.91Z"/>
      <path class="cls-2" d="M14.7,25.02v12.88c0,1.29,1.36,1.89,2.65,1.89s2.67-.6,2.67-1.91v-12.86c-.18.15-.37.26-.52.34-1,.52-2.44.62-3.62.27-.29-.09-.79-.27-1.18-.61h0ZM17.34,40.4c-.84,0-1.62-.21-2.2-.59-.71-.46-1.07-1.11-1.07-1.9v-13.92c0-.16.13-.29.29-.3.16-.02.29.09.31.24.03.04.03.08.05.13.03.1.08.2.16.3.24.29.66.55,1.18.7,1.02.31,2.28.23,3.14-.22.29-.16.52-.35.65-.54.08-.09.13-.2.13-.3l.03-.07c.03-.16.18-.26.34-.24.16.02.26.15.26.3v13.91c0,1.65-1.65,2.51-3.27,2.51Z"/>
      <path class="cls-3" d="M14.99,21.36c1.31-.75,3.43-.75,4.74,0,1.31.76,1.31,1.98,0,2.74-1.31.76-3.43.76-4.74,0-1.31-.75-1.31-1.98,0-2.74Z"/>
      <path class="cls-2" d="M17.37,21.11c-.81,0-1.62.17-2.23.53h0c-.55.3-.84.7-.84,1.1s.29.8.84,1.11c1.23.71,3.2.71,4.43,0,.55-.3.84-.7.84-1.11s-.29-.79-.84-1.1c-.6-.36-1.42-.53-2.2-.53h0ZM17.37,24.98c-.92,0-1.83-.2-2.54-.61-.73-.42-1.13-1.01-1.13-1.64s.39-1.21,1.13-1.63h0c1.41-.82,3.64-.82,5.06,0,.73.43,1.15,1.01,1.15,1.63s-.42,1.22-1.15,1.64c-.71.41-1.62.61-2.52.61Z"/>
      <path class="cls-4" d="M20.7,22.92v1.11l-.03.09c-.03.19-.13.38-.26.53-.37.44-.94.74-1.49.9-1.15.36-2.7.3-3.8-.28-.34-.17-.65-.41-.86-.7-.08-.14-.16-.3-.21-.45l-.03-.09v-1.11c.03.06.03.12.05.18.08.19.18.38.31.53.39.43,1.02.71,1.57.86,1.13.3,2.59.22,3.67-.32.34-.18.68-.45.89-.8.08-.11.13-.24.16-.36l.03-.1Z"/>
      <path class="cls-2" d="M14.33,24.01l.03.04c.03.11.08.24.13.34.16.23.45.44.76.62,1,.51,2.41.61,3.59.25.58-.18,1.07-.47,1.34-.8.11-.13.18-.28.21-.42v-.03c-.21.19-.45.34-.63.43-1.07.56-2.59.69-3.88.35-.39-.1-1.05-.33-1.55-.78h0ZM17.37,26.09c-.86,0-1.73-.18-2.41-.53-.29-.15-.68-.42-.97-.81-.1-.17-.21-.36-.24-.56l-.03-.11-.03-1.17c0-.16.13-.3.29-.3.16-.02.32.09.34.24,0,.05.03.09.03.15.05.14.13.29.26.42.29.33.81.61,1.41.77,1.13.3,2.51.18,3.43-.3.37-.18.65-.43.79-.68.05-.09.11-.19.13-.28l.03-.08c.03-.16.16-.26.31-.24.16,0,.29.15.29.3l-.03,1.26c-.05.24-.18.47-.34.67-.47.58-1.23.88-1.62,1-.52.16-1.07.24-1.65.24Z"/>
      <path class="cls-2" d="M18.08,38.89c-.18,0-.31-.14-.31-.31v-12.84c0-.17.13-.31.31-.31.16,0,.29.14.29.31v12.84c0,.17-.13.31-.29.31Z"/>
      <path class="cls-2" d="M19.28,38.05c-.16,0-.31-.14-.31-.31v-12.25c0-.17.16-.3.31-.3.18,0,.31.14.31.3v12.25c0,.17-.13.31-.31.31Z"/>
      <path class="cls-2" d="M16.64,38.89c-.16,0-.31-.14-.31-.31v-12.85c0-.16.16-.3.31-.3.18,0,.31.14.31.3v12.85c0,.17-.13.31-.31.31Z"/>
      <path class="cls-2" d="M15.43,38.05c-.18,0-.32-.14-.32-.31v-12.3c0-.17.13-.3.32-.3.16,0,.29.14.29.3v12.3c0,.17-.13.31-.29.31Z"/>
      <polygon class="cls-3" points="28.58 1.48 27.75 .99 23.08 3.68 23.95 4.16 28.58 1.48"/>
      <path class="cls-2" d="M23.71,3.68l.23.13,4.04-2.33-.24-.14-4.03,2.34h0ZM23.95,4.48c-.05,0-.1-.02-.16-.04l-.86-.5c-.08-.05-.13-.16-.13-.26,0-.11.05-.22.13-.27l4.66-2.69c.1-.06.21-.06.31,0l.84.49c.11.06.16.16.16.27s-.05.21-.16.27l-4.64,2.69c-.05.03-.11.04-.16.04Z"/>
      <path class="cls-4" d="M27.48,3.53l-.84-.49c.08.07.08.1.08.21v7.91c-.03.24-.1.42-.31.56l.84.5c.21-.14.31-.32.34-.57V3.74c-.03-.09-.03-.14-.11-.21Z"/>
      <path class="cls-2" d="M26.91,11.65l.31.18c.03-.06.05-.12.05-.21V3.76l-.24-.13v7.53c-.03.18-.05.35-.13.49h0ZM27.25,12.52c-.05,0-.1,0-.13-.04l-.86-.49c-.1-.05-.16-.15-.16-.25s.05-.21.13-.27c.13-.09.18-.17.18-.33V3.25c-.11-.11-.13-.27-.03-.4.08-.13.26-.16.42-.08l.84.5s.03.02.03.03c.18.14.21.27.21.42v7.93c-.03.37-.18.63-.45.82-.05.03-.1.05-.18.05Z"/>
      <polygon class="cls-3" points="27.25 12.21 26.41 11.72 16.45 17.46 17.32 17.95 27.25 12.21"/>
      <path class="cls-2" d="M17.08,17.46l.24.13,9.33-5.38-.24-.14-9.33,5.39h0ZM17.32,18.26c-.05,0-.11-.01-.16-.03l-.84-.5c-.1-.05-.16-.15-.16-.26,0-.11.05-.22.16-.27l9.93-5.74c.11-.06.21-.06.31,0l.84.49c.1.05.16.16.16.27,0,.1-.05.21-.16.26l-9.93,5.75c-.05.02-.1.03-.16.03Z"/>
      <polygon class="cls-4" points="17.32 17.95 16.45 17.46 16.45 22.92 17.32 23.42 17.32 17.95"/>
      <path class="cls-2" d="M16.77,22.75l.24.13v-4.76l-.24-.13v4.76h0ZM17.32,23.72c-.05,0-.11,0-.16-.03l-.84-.5c-.1-.05-.16-.16-.16-.27v-5.46c0-.11.05-.22.16-.27.08-.06.21-.06.29,0l.86.49c.08.06.16.16.16.27v5.47c0,.12-.08.21-.16.27-.05.03-.1.03-.16.03Z"/>
      <path class="cls-1" d="M17.32,23.42l1.02-.59v-3.92c0-.2.13-.45.31-.56l9.93-5.73V1.48l-4.64,2.69v1.3l3.3-1.91c.18-.11.31-.02.31.18v7.91c0,.21-.13.46-.31.57l-9.93,5.74v5.47Z"/>
      <path class="cls-2" d="M17.63,18.12v4.76l.39-.24v-3.75c0-.31.21-.67.47-.82l9.8-5.65V2.01l-4.06,2.34v.59l2.88-1.65c.18-.1.37-.11.52-.02.16.09.24.26.24.47v7.91c0,.32-.21.67-.47.83l-9.77,5.65h0ZM17.32,23.72c-.05,0-.11,0-.16-.03-.1-.06-.16-.15-.16-.27v-5.47c0-.11.05-.21.16-.27l9.96-5.74c.08-.05.16-.19.16-.3V3.91l-3.2,1.83c-.08.05-.21.05-.29,0-.11-.05-.16-.16-.16-.27v-1.3c0-.11.05-.21.16-.26l4.66-2.7c.08-.05.21-.05.29,0,.11.06.16.16.16.27v11.14c0,.1-.05.21-.16.26l-9.93,5.75c-.08.04-.18.19-.18.29v3.92c0,.11-.05.22-.16.27l-1,.59c-.05.03-.1.03-.16.03Z"/>
      <path class="cls-1" d="M1.78,10.63L19.41.44l.16-.05c.26-.07.55-.09.84-.07.47.05.94.21,1.36.43,1.49.77,2.73,2.33,3.43,3.83.34.78.63,1.63.73,2.49.1.77.05,1.64-.26,2.36-.13.25-.29.49-.47.69l-.13.1L7.41,20.41c.08-.07.16-.14.24-.22.16-.17.29-.38.37-.57.18-.36.26-.78.31-1.17.16-1.75-.63-3.69-1.6-5.1-.71-1.02-1.68-2-2.83-2.52-.39-.19-.86-.32-1.31-.34-.21,0-.47.03-.68.09l-.13.05Z"/>
      <path class="cls-2" d="M3.07,10.24c.39.07.73.2.97.31,1.07.49,2.1,1.42,2.96,2.62,1.15,1.69,1.78,3.69,1.63,5.31-.03.36-.11.7-.21,1.01l16.58-9.6c.16-.15.29-.36.39-.59.34-.71.31-1.58.24-2.18-.08-.78-.31-1.59-.71-2.41-.79-1.64-1.99-3.02-3.27-3.69-.45-.22-.87-.36-1.26-.39-.26-.03-.5,0-.73.06l-.13.04L3.07,10.24h0ZM7.41,20.72c-.08,0-.18-.05-.24-.13-.11-.13-.08-.3.03-.41.08-.07.16-.12.21-.2.13-.13.24-.31.34-.5.13-.29.21-.66.26-1.05.13-1.49-.45-3.32-1.55-4.9-.79-1.11-1.73-1.97-2.7-2.42-.39-.19-.81-.3-1.2-.3-.18-.02-.39.02-.55.07l-.16.04c-.13.05-.29-.02-.37-.16-.05-.14,0-.31.13-.39L19.28.18l.21-.08c.29-.09.6-.11.94-.09.47.04.97.2,1.47.46,1.42.73,2.75,2.21,3.56,3.97.42.88.68,1.75.79,2.59.08.69.11,1.68-.31,2.52-.13.3-.31.57-.52.78l-.13.11L7.57,20.68c-.05.03-.11.04-.16.04Z"/>
      <path class="cls-3" d="M4.32,20.31C2.12,19.03.31,15.92.31,13.36s1.78-3.6,4.01-2.32c2.23,1.29,4.01,4.4,4.01,6.95s-1.78,3.6-4.01,2.32Z"/>
      <path class="cls-2" d="M4.48,20.04c.97.57,1.86.66,2.54.28.65-.38,1.02-1.21,1.02-2.33,0-2.46-1.76-5.45-3.88-6.68-.97-.56-1.86-.66-2.52-.28-.65.37-1.02,1.21-1.02,2.33,0,2.45,1.73,5.45,3.85,6.68h0ZM6.13,21.17c-.63,0-1.28-.19-1.96-.59h0c-2.31-1.33-4.17-4.56-4.17-7.21,0-1.36.47-2.37,1.34-2.87.86-.49,1.96-.39,3.14.29,2.31,1.32,4.17,4.56,4.17,7.21,0,1.36-.47,2.37-1.34,2.87-.34.21-.76.3-1.18.3Z"/>
      <path class="cls-4" d="M4.11,9.28L17.34,1.64c4.3-1.63,5.14.66,4.9,2.76-.66,5.8-6.24,1.7-6.86,3.97-.79,2.92-5,5.93-6.47,3.96-1.68-2.28-3.35-2.97-4.8-3.06Z"/>
      <path class="cls-2" d="M5.03,9.1c1.52.35,2.88,1.35,4.14,3.05.31.44.81.59,1.49.46,1.76-.33,3.93-2.43,4.43-4.32.29-1.12,1.52-1.03,2.7-.94,1.86.13,3.77.28,4.14-2.98.11-.69.11-1.94-.71-2.57-.73-.57-2.04-.52-3.77.13l-12.42,7.17h0ZM10.24,13.27c-.68,0-1.2-.25-1.57-.76-1.41-1.88-2.91-2.83-4.58-2.93-.13,0-.24-.1-.26-.24-.05-.13.03-.27.13-.34L17.19,1.38c2.02-.77,3.48-.78,4.43-.06.76.6,1.1,1.71.94,3.13-.45,3.85-2.99,3.66-4.82,3.52-1.31-.1-1.89-.08-2.04.49-.58,2.11-2.93,4.39-4.9,4.76-.21.03-.39.05-.55.05Z"/>
    </g>
  </g>
</svg>