<?xml version="1.0" encoding="UTF-8"?>
<svg id="Layer_2" data-name="Layer 2" xmlns="http://www.w3.org/2000/svg" viewBox="0 0 31.92 42.2" fill="currentColor">
  <defs>
    <style>
      .cls-1 {
        fill: #fff;
      }

      .cls-1, .cls-2, .cls-3, .cls-4 {
        fill-rule: evenodd;
      }

      .cls-2 {
        fill: #1a87c7;
      }

      .cls-3 {
        fill: #bdedf8;
      }

      .cls-4 {
        fill: #66ceef;
      }
    </style>
  </defs>
  <g id="_Layer_" data-name="&amp;lt;Layer&amp;gt;">
    <g>
      <path class="cls-4" d="M.4,30.03c.03,1.59.16,2.95.58,4.49.47,1.52,1.05,2.69,2.02,3.86.6.65,1.13,1.08,1.89,1.53l1.65.96c-1.13-.69-1.86-1.4-2.65-2.55-.58-.95-.94-1.77-1.26-2.84-.42-1.54-.55-2.9-.58-4.49,0-3.09-.37-6.69.45-9.79.34-1.27.79-2.38,1.42-3.54.71-1.32,1.49-2.4,2.49-3.51,1.28-1.31,2.65-2.39,4.4-2.97.76-.23,1.36-.31,2.17-.23.47.08.52.13,1,.37l1.23.72c.52.29.94.34,1.55.27.42-.06.71-.15,1.07-.31.34-.15.58-.29.86-.46,2.07-1.19,4.11-2.38,6.18-3.57l-1.65-.95c-2.07,1.19-4.11,2.38-6.18,3.57-.24.15-.45.26-.71.39-1.1.51-1.68.6-2.67.04l-1.1-.61c-.76-.4-1.44-.5-2.31-.43-1.89.24-3.46,1.31-4.82,2.55-1.1,1.04-1.89,2.04-2.7,3.32-.84,1.41-1.47,2.81-1.91,4.38-.79,3.1-.42,6.7-.42,9.79Z"/>
      <path class="cls-2" d="M15.2,11.68l.16.09c.45.24.76.31,1.36.24.34-.05.63-.14.97-.3.31-.14.55-.27.84-.44,1.91-1.09,3.8-2.19,5.68-3.27l.03-.03-1.02-.6-.86.5c-1.7.99-3.43,1.99-5.16,2.99-.26.15-.45.27-.73.4-.47.22-.89.37-1.26.43h0ZM.72,30.03c0,1.69.18,3.01.55,4.41.47,1.56,1.05,2.65,1.96,3.74.21.22.39.41.6.58-.08-.09-.13-.18-.18-.27-.6-.93-.97-1.78-1.31-2.93-.39-1.46-.58-2.82-.6-4.57,0-.73-.03-1.48-.05-2.25-.05-2.56-.13-5.21.5-7.61.34-1.25.81-2.4,1.44-3.61.76-1.34,1.55-2.43,2.57-3.57,1.55-1.59,2.93-2.53,4.51-3.05.52-.16,1.02-.27,1.57-.28-.6-.3-1.18-.38-1.99-.32-1.52.19-2.96.96-4.64,2.48-1.02.98-1.81,1.96-2.65,3.26-.86,1.47-1.47,2.83-1.86,4.29-.6,2.33-.55,4.93-.47,7.45.03.77.05,1.53.05,2.26h0ZM6.53,41.17c-.05,0-.1,0-.16-.03l-1.65-.96c-.76-.47-1.31-.91-1.94-1.59-.97-1.15-1.6-2.34-2.1-3.98-.39-1.46-.58-2.83-.6-4.57H.09c0-.72-.03-1.48-.05-2.24-.05-2.56-.13-5.21.5-7.62.42-1.52,1.02-2.94,1.94-4.46.86-1.35,1.68-2.36,2.72-3.39,1.13-1.01,2.86-2.37,5.03-2.63,1-.09,1.7.05,2.46.45l1.1.62c.92.5,1.36.43,2.41-.05.26-.12.45-.23.68-.38,1.73-.99,3.46-1.99,5.19-2.99l1-.57c.08-.06.21-.06.29,0l1.68.95c.08.06.13.15.13.27s-.05.21-.13.27l-.5.29c-1.89,1.09-3.8,2.18-5.69,3.29-.31.18-.55.32-.89.47-.42.18-.73.28-1.15.34-.63.07-1.1.04-1.73-.3l-1.36-.78c-.34-.18-.39-.21-.79-.28-.68-.07-1.26-.02-2.04.22-1.47.49-2.78,1.38-4.24,2.9-1,1.09-1.75,2.16-2.46,3.44-.63,1.16-1.07,2.27-1.39,3.47-.6,2.33-.55,4.93-.47,7.45.03.77.05,1.53.05,2.26,0,1.69.18,3,.55,4.4.34,1.1.68,1.89,1.23,2.76.76,1.12,1.47,1.79,2.54,2.45.16.09.18.27.1.42-.05.09-.16.15-.26.15Z"/>
      <path class="cls-1" d="M2.05,30.99c0,4.86,1.7,8.27,4.48,9.87,2.78,1.6,6.58,1.37,10.79-1.05l7.55-4.35V7.97c-1.89,1.09-3.75,2.17-5.63,3.25-.45.27-.94.58-1.42.78-.97.42-1.83.45-2.54.08-1.05-.57-1.47-1.21-3.01-1.17-.92.03-1.96.35-3.07.97-1.99,1.15-3.77,3.1-5.06,5.35-1.31,2.24-2.1,4.77-2.1,7.05v6.7Z"/>
      <path class="cls-2" d="M12.43,11.22c-.05,0-.1,0-.16.01-.89.02-1.89.34-2.91.93-1.86,1.08-3.62,2.94-4.95,5.23-1.34,2.3-2.04,4.74-2.04,6.89v6.7c0,4.58,1.52,8,4.32,9.6,2.8,1.62,6.52,1.24,10.48-1.05l7.39-4.27V8.5c-1.7,1-3.43,1.99-5.16,2.99l-.29.18c-.37.22-.76.45-1.15.62-1.05.47-2.04.49-2.8.08-.29-.16-.52-.3-.73-.45-.58-.38-1.05-.69-1.99-.69h0ZM10.51,42.2c-1.49,0-2.91-.36-4.14-1.07-2.99-1.73-4.64-5.33-4.64-10.14v-6.7c0-2.26.76-4.82,2.15-7.2,1.36-2.38,3.2-4.32,5.16-5.45,1.13-.64,2.2-.99,3.22-1.02,1.28-.03,1.83.36,2.49.77.21.14.42.29.68.43.6.32,1.39.3,2.25-.09.37-.16.73-.39,1.1-.59l.29-.17c1.89-1.09,3.75-2.17,5.63-3.26.08-.05.21-.05.29,0,.11.06.16.15.16.27v27.48c0,.1-.05.21-.16.27l-7.52,4.35c-2.44,1.42-4.82,2.13-6.97,2.13Z"/>
      <path class="cls-4" d="M8.18,28.2c-.81.72-1.47,1.71-1.83,2.72-.84,2.18-.34,4.04,1.13,4.16,1.47.12,3.35-1.55,4.19-3.73.37-1.01.5-2.04.29-2.85-.24-.81-.76-1.25-1.44-1.31-.68-.05-1.52.28-2.33,1.01Z"/>
      <path class="cls-2" d="M8.39,28.42c-.76.67-1.39,1.6-1.78,2.61-.47,1.25-.5,2.47-.05,3.16.21.36.55.55.94.58,1.31.11,3.09-1.51,3.88-3.53.37-1,.47-1.95.29-2.67-.18-.66-.6-1.04-1.18-1.08-.63-.05-1.39.28-2.1.92h0ZM7.63,35.39c-.05,0-.1,0-.18,0-.6-.05-1.07-.34-1.42-.86-.55-.87-.55-2.26.03-3.71.42-1.1,1.1-2.11,1.94-2.85h0c.84-.76,1.73-1.14,2.54-1.08.84.07,1.44.63,1.7,1.53.24.85.13,1.94-.31,3.05-.84,2.25-2.73,3.93-4.3,3.93Z"/>
      <path class="cls-4" d="M14.16,33.37c-1.18,1.06-1.89,2.88-1.55,4.06.16.59.55.91,1.02.96,1.07.09,2.44-1.13,3.07-2.72.6-1.58.24-2.94-.84-3.02-.5-.04-1.1.2-1.7.73Z"/>
      <path class="cls-2" d="M14.37,33.59c-1.07.97-1.76,2.7-1.47,3.76.08.31.29.69.79.72.89.07,2.15-1.08,2.73-2.51.34-.9.34-1.75.05-2.23-.16-.24-.37-.37-.63-.38-.45-.04-.97.2-1.47.65h0ZM13.74,38.7s-.08,0-.11,0c-.65-.05-1.15-.48-1.34-1.17-.37-1.3.37-3.22,1.65-4.38h0c.66-.57,1.34-.85,1.94-.81.47.04.84.27,1.1.67.39.66.39,1.69,0,2.78-.66,1.67-2.04,2.92-3.25,2.92Z"/>
      <path class="cls-4" d="M8.55,15.68c-1.13,1.02-2.04,2.39-2.57,3.8-1.18,3.02-.47,5.62,1.57,5.79,2.04.18,4.66-2.15,5.82-5.19.55-1.41.71-2.84.42-3.97-.32-1.13-1.05-1.74-1.99-1.82-.97-.07-2.12.39-3.25,1.4Z"/>
      <path class="cls-2" d="M11.59,14.59c-.86,0-1.89.48-2.83,1.33h0c-1.07.95-1.97,2.25-2.49,3.67-.71,1.78-.73,3.52-.11,4.52.34.52.81.81,1.41.86.08,0,.13,0,.21,0,1.89,0,4.22-2.19,5.29-5.01.55-1.4.68-2.75.42-3.78-.29-.96-.89-1.52-1.73-1.59-.08,0-.13,0-.18,0h0ZM7.76,25.59c-.08,0-.16,0-.23,0-.79-.07-1.44-.46-1.89-1.15-.73-1.18-.73-3.08.05-5.07.58-1.51,1.52-2.91,2.65-3.91h0c1.15-1.04,2.38-1.57,3.48-1.48,1.1.09,1.91.83,2.25,2.05.32,1.16.16,2.63-.42,4.16-1.18,3.03-3.77,5.4-5.9,5.4Z"/>
      <path class="cls-4" d="M21.83,40.07c1.65-2.36.45-4.35-.76-6.33-2.49-4.07-2.72-5.91.21-9.66l7.86.03.92.85c.79.75,1.28,1.63,1.49,2.57.76,3.6-4.95,10.85-7.55,13.08-1.52,1.28-3.46,1.28-2.17-.54Z"/>
      <path class="cls-2" d="M21.44,24.39c-2.78,3.57-2.49,5.28-.11,9.19,1.26,2.03,2.51,4.14.73,6.67h0c-.37.53-.39.83-.31.89.18.18,1.13.02,2.04-.77,2.62-2.24,8.17-9.39,7.44-12.78-.18-.88-.68-1.71-1.39-2.4l-.84-.77-7.57-.03h0ZM22.02,41.82c-.29,0-.52-.07-.68-.22-.26-.24-.45-.74.24-1.7,1.55-2.21.42-4.05-.76-6-2.49-4.1-2.83-6.12.24-10,.05-.08.13-.12.24-.12h0l7.86.02c.08,0,.16.04.21.09l.92.86c.81.77,1.36,1.71,1.57,2.72.81,3.76-5.06,11.18-7.65,13.38-.73.62-1.55.98-2.17.98Z"/>
      <path class="cls-2" d="M21.68,41.44c-.05,0-.13-.03-.18-.07-.13-.1-.16-.3-.05-.43.94-1.18,1.94-2.86,1.44-5.37-.26-1.33-.68-2.43-1.05-3.4-.76-1.98-1.41-3.69-.34-6.25.08-.16.26-.22.42-.17.16.07.24.25.16.41-1,2.33-.42,3.85.34,5.78.37,1,.81,2.12,1.07,3.5.55,2.76-.55,4.59-1.55,5.88-.08.08-.16.12-.26.12Z"/>
      <path class="cls-2" d="M21.91,41c-.08,0-.16-.03-.21-.1-.13-.12-.13-.31,0-.43,4.14-4.04,4.35-11.16,3.72-13.46-.05-.16.05-.33.21-.37.18-.04.34.05.39.21.63,2.39.45,9.83-3.88,14.06-.08.05-.16.09-.24.09Z"/>
      <path class="cls-2" d="M22.1,41.61c-.13,0-.24-.07-.29-.19-.08-.16,0-.34.16-.4.05-.02.08-.03.1-.04,0-.09.03-.19.11-.26,3.56-3.29,8.33-10.04,6.03-14.12-.11-.15-.05-.33.1-.42.13-.09.31-.03.42.11,2.33,4.09-1.57,9.92-4.51,13.2,2.49-2.29,5.06-6.35,5.74-9.53.26-1.22.39-2.89-.6-3.93-.11-.13-.11-.32.03-.44.13-.11.31-.11.42.02.92.97,1.2,2.52.76,4.48-.94,4.4-5.16,10.2-8.36,11.49-.03.02-.08.03-.1.03Z"/>
      <path class="cls-1" d="M30.56,24.17v-8.7c-.05.91-.71,1.54-1.47,1.98-1.83,1.04-4.48,1.1-6.42.33-1-.4-2.1-1.15-2.18-2.31v8.63l.03.07c.37,3.68,9.67,3.69,10.03,0Z"/>
      <path class="cls-2" d="M30.56,24.17h.03-.03ZM20.81,16.91v7.19c.18,1.75,2.57,2.52,4.72,2.53h0c2.15,0,4.56-.78,4.72-2.49l.03-.06v-7.17c-.26.29-.6.56-1.02.81-1.86,1.05-4.56,1.19-6.68.35-.76-.3-1.36-.7-1.76-1.16h0ZM25.53,27.25h0c-2.52-.01-5.11-.95-5.32-3.04v-8.74c0-.16.13-.3.29-.31h0c.18,0,.31.13.31.3.08,1.1,1.26,1.76,1.96,2.04,1.94.76,4.48.65,6.16-.31.86-.5,1.28-1.07,1.34-1.74,0-.17.13-.32.31-.29.16,0,.29.15.29.31v8.74c-.21,2.1-2.83,3.04-5.34,3.04Z"/>
      <path class="cls-4" d="M29.09,18.52c.73-.43,1.44-1.1,1.47-1.99V3.3c-.1,1.62-2.12,2.44-3.48,2.69-1.83.34-4.4.08-5.82-1.23-.42-.39-.71-.87-.76-1.46v13.23c.05,1.17,1.28,1.98,2.28,2.36,1.91.74,4.51.65,6.31-.36Z"/>
      <path class="cls-2" d="M29.09,18.52h.03-.03ZM20.81,4.74v11.79c.03.96,1.1,1.69,2.07,2.07,1.91.73,4.4.58,6.05-.35.5-.29,1.31-.89,1.34-1.73V4.74c-.73.84-2.02,1.35-3.12,1.56-1.89.35-4.58.09-6.1-1.31-.08-.09-.16-.16-.24-.25h0ZM25.53,19.68c-.97,0-1.97-.17-2.86-.51-.58-.21-2.44-1.03-2.46-2.63V3.3c0-.18.13-.3.29-.31.16-.02.31.12.31.29.03.47.24.88.65,1.26,1.36,1.25,3.85,1.48,5.56,1.15,1.44-.27,3.17-1.06,3.25-2.42,0-.16.18-.3.31-.29.16.01.29.14.29.31v13.23c-.03,1.09-.89,1.82-1.62,2.25h0c-1.05.6-2.38.9-3.72.9Z"/>
      <path class="cls-3" d="M25.53,6.13c1.28,0,2.59-.29,3.56-.85,1-.57,1.47-1.31,1.47-2.06s-.47-1.49-1.47-2.05c-.97-.57-2.28-.85-3.56-.85s-2.57.29-3.54.85c-1,.56-1.49,1.31-1.49,2.05s.5,1.49,1.49,2.06c.97.56,2.25.85,3.54.85Z"/>
      <path class="cls-2" d="M25.53.63c-1.28,0-2.49.29-3.41.81-.84.49-1.31,1.12-1.31,1.78s.47,1.3,1.31,1.79c.92.52,2.12.81,3.41.81s2.51-.29,3.41-.81c.86-.49,1.34-1.12,1.34-1.79s-.47-1.3-1.34-1.78c-.89-.52-2.1-.81-3.41-.81h0ZM25.53,6.43c-1.39,0-2.7-.31-3.69-.89-1.05-.61-1.62-1.44-1.62-2.33s.58-1.71,1.62-2.32C22.83.32,24.14.01,25.53.01s2.72.31,3.72.89c1.05.61,1.62,1.43,1.62,2.32s-.58,1.72-1.62,2.33c-1,.57-2.31.89-3.72.89Z"/>
      <path class="cls-3" d="M29.56,2.6c0-3.05-8.04-3.05-8.04,0s8.04,3.06,8.04,0Z"/>
      <path class="cls-2" d="M25.53.62h0c-1.83,0-3.69.69-3.69,1.98s1.86,1.98,3.69,1.98h0c1.86,0,3.72-.68,3.72-1.98s-1.86-1.98-3.72-1.98h0ZM25.53,5.2h0c-2.07,0-4.32-.81-4.32-2.6s2.25-2.6,4.32-2.6h0c2.1,0,4.35.82,4.35,2.6h0c0,1.79-2.25,2.6-4.35,2.6Z"/>
      <path class="cls-3" d="M21.62,39.9c.86-1.16.42-2.52-.03-3.83-.47-1.43,2.17.56,4.06-.17,2.31-.9,1.83-3.48,3.83-3.85.71-.13,1.34-.2,1.05.46-1.52,3.57-4.59,6.75-6.45,8.35-1.52,1.28-3.75.84-2.46-.97Z"/>
      <path class="cls-2" d="M21.86,40.08c-.16.23-.5.78-.21,1.04.34.31,1.36.25,2.23-.49,2.17-1.85,5-5,6.37-8.24.05-.1.05-.15.05-.15,0,.03-.16,0-.76.11-.84.16-1.18.78-1.57,1.57-.45.83-.94,1.78-2.2,2.27-1.02.4-2.2.08-3.07-.16-.29-.07-.66-.17-.84-.18,0,.04.03.07.03.13.45,1.34.94,2.83-.03,4.1h0ZM22.25,41.91c-.42,0-.76-.1-1.02-.33-.21-.2-.63-.78.13-1.87h0c.79-1.02.37-2.24-.05-3.52-.05-.15-.18-.54.08-.79.26-.29.73-.17,1.47.04.79.22,1.86.5,2.7.18,1.02-.41,1.44-1.21,1.86-1.98.42-.82.86-1.67,2.02-1.89.58-.11,1.1-.17,1.36.15.16.18.16.43.03.74-1.41,3.35-4.3,6.56-6.55,8.47-.6.53-1.39.81-2.02.81Z"/>
    </g>
  </g>
</svg>