<?xml version="1.0" encoding="UTF-8"?>
<svg id="Layer_2" data-name="Layer 2" xmlns="http://www.w3.org/2000/svg" viewBox="0 0 34.55 40.34" fill="currentColor">
  <defs>
    <style>
      .cls-1 {
        fill: #fff;
      }

      .cls-1, .cls-2, .cls-3, .cls-4 {
        fill-rule: evenodd;
      }

      .cls-2 {
        fill: #1a87c7;
      }

      .cls-3 {
        fill: #bdedf8;
      }

      .cls-4 {
        fill: #66ceef;
      }
    </style>
  </defs>
  <g id="_Layer_" data-name="&amp;lt;Layer&amp;gt;">
    <g>
      <path class="cls-4" d="M14.87,18.38c2.32-1.27,4.75-2.02,7.24-.72-1.81-1.04-4.45-2.93-6.3-3.16-1.9-.24-3.68.46-5.3,1.35C4.87,19.28.8,26.18.31,32.75l4.37,2.52c.5-6.56,4.55-13.46,10.19-16.89Z"/>
      <path class="cls-2" d="M.63,32.58l3.78,2.18c.67-6.64,4.76-13.28,10.31-16.64h0c1.46-.81,3.26-1.6,5.21-1.42-1.41-.85-2.98-1.74-4.15-1.89-1.95-.24-3.76.58-5.12,1.32C5.21,19.44,1.19,26.03.63,32.58h0ZM4.68,35.58c-.05,0-.11-.01-.16-.04L.16,33.01c-.1-.06-.16-.17-.16-.29.51-6.8,4.67-13.68,10.35-17.13,1.44-.79,3.36-1.66,5.5-1.39,1.51.19,3.43,1.37,5.13,2.42.45.28.89.55,1.28.77.15.08.2.27.12.42-.09.15-.27.2-.42.12-2.54-1.34-5.04-.32-6.94.71-5.51,3.35-9.55,10.04-10.05,16.64,0,.1-.07.2-.17.25-.04.02-.09.04-.14.04Z"/>
      <path class="cls-3" d="M19.13,3.23c-1.33-.76-4.29-2.74-5.5-2.89C7.69-.4,1.24,12.41,6.25,15.45l4.37,2.52C5.13,14.48,13.38.22,19.13,3.23Z"/>
      <path class="cls-2" d="M13.13.62c-3.15,0-6.41,3.89-7.74,7.71-1.12,3.23-.74,5.79,1.03,6.85l2.65,1.53c-1.2-2.3-.31-5.86,1.33-8.7,1.65-2.87,4.33-5.43,6.93-5.5-1.31-.8-2.98-1.77-3.75-1.87-.15-.02-.3-.03-.45-.03h0ZM10.62,18.27c-.05,0-.1-.01-.16-.04l-4.36-2.52c-2.03-1.23-2.51-4.06-1.29-7.59C6.31,3.79,10.04-.42,13.66.03c1.01.13,2.98,1.33,4.56,2.3.41.25.77.47,1.06.64.15.08.2.27.12.41-.09.15-.27.2-.42.12-2.78-1.46-6.13,1.47-8.06,4.81-1.93,3.34-2.8,7.71-.14,9.39.14.09.18.28.1.42-.06.09-.16.15-.26.15Z"/>
      <path class="cls-3" d="M22.11,17.66c-4-2.31-10.47,1.44-14.46,8.35-1.71,2.94-2.8,6.22-2.97,9.26l20.41-11.78c-.17-2.84-1.28-4.85-2.97-5.83Z"/>
      <path class="cls-2" d="M19.44,17.28c-3.7,0-8.39,3.45-11.52,8.88-1.61,2.79-2.63,5.8-2.89,8.54l19.74-11.39c-.2-2.55-1.19-4.46-2.81-5.39h0c-.75-.44-1.61-.64-2.52-.64h0ZM4.68,35.58c-.06,0-.11-.02-.17-.05-.1-.06-.15-.16-.15-.28.17-2.99,1.24-6.32,3.02-9.39,4.08-7.05,10.75-10.85,14.88-8.46h0c1.84,1.06,2.96,3.22,3.13,6.08,0,.12-.05.22-.16.29l-20.41,11.78s-.09.04-.15.04Z"/>
      <path class="cls-1" d="M20.89,7.13c0-1.92-.67-3.27-1.76-3.9-1.09-.63-2.6-.54-4.26.42-1.66.96-3.16,2.61-4.25,4.49-1.08,1.89-1.76,4.01-1.76,5.93s.68,3.26,1.76,3.89c3.84,2.22,10.27-4.77,10.27-10.84Z"/>
      <path class="cls-2" d="M17.56,3.14c-.76,0-1.63.27-2.53.78-1.56.9-3.03,2.45-4.14,4.38-1.11,1.92-1.73,3.97-1.73,5.77s.57,3.03,1.62,3.63c1.34.78,2.85.23,3.88-.37,2.85-1.64,5.93-6.02,5.93-10.21,0-1.74-.57-3.03-1.61-3.63-.42-.24-.89-.36-1.42-.36h0ZM12.23,18.69c-.64,0-1.23-.15-1.77-.46-1.23-.72-1.91-2.19-1.91-4.16s.63-4.07,1.8-6.08c1.17-2.01,2.71-3.65,4.37-4.6,1.7-.98,3.32-1.13,4.55-.42,1.24.71,1.92,2.19,1.92,4.16,0,4.41-3.23,9.01-6.23,10.74-.96.55-1.89.83-2.74.83Z"/>
      <path class="cls-3" d="M31.28,19.27l-2.57-1.49-.31-.1c-.66-.19-1.4-.2-2.07-.1-1.76.27-3.51,1.36-4.83,2.52-3.18,2.78-5.72,7.42-6.07,11.65-.12,1.4,0,2.98.6,4.27.23.5.57,1.02.97,1.4l.24.21,2.57,1.49c-.17-.15-.31-.28-.47-.45-.46-.52-.81-1.21-1.02-1.87-.56-1.74-.41-3.84,0-5.59.93-3.96,3.59-8.23,6.94-10.57,1.25-.86,2.82-1.61,4.37-1.64.43-.01.93.05,1.35.16l.3.1Z"/>
      <path class="cls-2" d="M27.15,17.83c-.26,0-.52.02-.78.06-1.98.31-3.78,1.66-4.67,2.44-3.23,2.82-5.63,7.42-5.96,11.44-.09,1.12-.07,2.74.57,4.12.23.49.56.97.91,1.31l.23.21,1.08.62c-.2-.35-.37-.73-.49-1.13-.68-2.12-.3-4.52,0-5.76.98-4.23,3.76-8.45,7.07-10.75,1.09-.75,2.76-1.66,4.54-1.7h.03l-1.11-.64-.25-.08c-.35-.1-.74-.15-1.15-.15h0ZM19.81,39.43s-.1-.01-.14-.04l-2.58-1.49-.29-.25c-.43-.4-.79-.94-1.06-1.5-.69-1.5-.72-3.24-.63-4.43.36-4.17,2.83-8.93,6.17-11.85.95-.83,2.85-2.26,4.99-2.59.76-.12,1.55-.08,2.21.11l.32.11,2.64,1.51c.13.08.19.25.12.39-.06.14-.22.21-.37.17l-.31-.1c-.36-.11-.81-.17-1.23-.15-1.27.03-2.76.59-4.19,1.59-3.15,2.18-5.88,6.35-6.82,10.38-.28,1.18-.64,3.45-.01,5.43.22.67.56,1.3.96,1.76.14.16.27.27.43.41.12.11.15.29.05.42-.06.08-.16.13-.25.13Z"/>
      <path class="cls-1" d="M26.1,38.92c4.49-2.6,8.14-8.9,8.14-14.1s-3.65-7.3-8.14-4.7c-4.5,2.6-8.15,8.91-8.15,14.11s3.65,7.29,8.15,4.7Z"/>
      <path class="cls-2" d="M29.73,19.31c-1.06,0-2.24.36-3.48,1.07-4.41,2.54-7.99,8.75-7.99,13.84,0,2.39.79,4.17,2.23,5,1.44.83,3.38.63,5.46-.57h0c4.4-2.54,7.98-8.75,7.98-13.83,0-2.39-.79-4.17-2.23-5-.58-.33-1.25-.5-1.97-.5h0ZM22.47,40.34c-.83,0-1.6-.19-2.28-.58-1.63-.95-2.54-2.91-2.54-5.54,0-5.28,3.72-11.73,8.3-14.37,2.27-1.31,4.43-1.51,6.06-.57,1.63.95,2.54,2.91,2.54,5.54,0,5.28-3.72,11.73-8.29,14.37h0c-1.33.77-2.62,1.16-3.79,1.16Z"/>
      <polygon class="cls-4" points="27.17 22.39 27.17 27.67 31.74 25.03 31.74 27.49 29.88 28.57 27.17 30.13 27.17 35.41 25.04 36.64 25.04 31.36 20.46 34 20.46 31.54 25.04 28.9 25.04 23.62 27.17 22.39"/>
      <path class="cls-2" d="M25.04,31.05c.05,0,.11.01.15.04.1.06.16.16.16.27v4.75l1.51-.87v-5.1c0-.11.06-.21.16-.27l4.41-2.55v-1.75l-4.11,2.37c-.1.05-.21.05-.3,0-.1-.05-.16-.16-.16-.27v-4.75l-1.51.87v5.1c0,.11-.06.21-.16.27l-4.42,2.55v1.75l4.11-2.37s.1-.04.16-.04h0ZM25.04,36.95c-.06,0-.11-.01-.16-.04-.09-.05-.15-.16-.15-.27v-4.75l-4.11,2.37c-.09.05-.21.06-.3,0-.09-.06-.15-.16-.15-.27v-2.46c0-.11.06-.21.15-.26l4.42-2.55v-5.1c0-.11.06-.21.15-.26l2.13-1.23c.1-.05.21-.05.3,0,.1.06.16.16.16.27v4.75l4.11-2.37c.09-.06.22-.06.3,0,.1.06.16.16.16.27v2.46c0,.11-.05.21-.16.27l-4.41,2.55v5.11c0,.11-.06.21-.16.26l-2.13,1.23s-.09.04-.15.04Z"/>
    </g>
  </g>
</svg>