<?xml version="1.0" encoding="UTF-8"?>
<svg id="Layer_2" data-name="Layer 2" xmlns="http://www.w3.org/2000/svg" viewBox="0 0 37.22 41.6" fill="currentColor">
  <defs>
    <style>
      .cls-1 {
        fill: #fff;
      }

      .cls-1, .cls-2, .cls-3, .cls-4 {
        fill-rule: evenodd;
      }

      .cls-2 {
        fill: #1a87c7;
      }

      .cls-3 {
        fill: #bdedf8;
      }

      .cls-4 {
        fill: #66ceef;
      }
    </style>
  </defs>
  <g id="_Layer_" data-name="&amp;lt;Layer&amp;gt;">
    <g>
      <polygon class="cls-3" points="36.9 10.84 18.67 .31 .3 10.91 18.54 21.44 36.9 10.84"/>
      <path class="cls-2" d="M.92,10.91l17.62,10.17,17.75-10.25L18.67.67.92,10.91h0ZM18.54,21.75c-.05,0-.1-.01-.16-.04L.15,11.18c-.09-.06-.15-.16-.15-.27s.05-.21.15-.27L18.52.04c.1-.05.21-.05.3,0l18.23,10.53c.1.05.16.16.16.27s-.06.21-.16.26l-18.36,10.61c-.05.03-.11.04-.16.04Z"/>
      <polygon class="cls-4" points="18.54 21.44 .3 10.91 .3 30.77 18.54 41.3 18.54 21.44"/>
      <path class="cls-2" d="M.61,30.59l17.63,10.17v-19.14L.61,11.45v19.14h0ZM18.54,41.6c-.05,0-.1-.01-.16-.04L.15,31.04c-.09-.06-.15-.16-.15-.27V10.91c0-.11.05-.21.15-.27.1-.05.22-.05.31,0l18.24,10.53c.09.06.15.16.15.27v19.85c0,.11-.06.21-.15.26-.05.03-.11.04-.16.04Z"/>
      <polygon class="cls-1" points="36.9 30.69 36.9 10.84 18.54 21.44 18.54 41.3 36.9 30.69"/>
      <path class="cls-2" d="M18.85,21.62v19.14l17.75-10.25V11.37l-17.75,10.25h0ZM18.54,41.6c-.05,0-.1-.01-.16-.04-.09-.05-.15-.15-.15-.26v-19.85c0-.11.05-.21.15-.27l18.37-10.61c.1-.06.21-.06.3,0,.1.05.16.16.16.27v19.85c0,.11-.06.21-.16.26l-18.36,10.61c-.05.03-.11.04-.16.04Z"/>
      <polygon class="cls-3" points="9.6 5.54 18.67 .31 36.9 10.84 27.84 16.07 9.6 5.54"/>
      <path class="cls-2" d="M10.22,5.54l17.62,10.17,8.45-4.88L18.67.67l-8.45,4.88h0ZM27.84,16.38s-.1-.01-.16-.04L9.45,5.81c-.1-.05-.15-.16-.15-.27s.05-.21.15-.27L18.52.04c.1-.05.21-.05.3,0l18.23,10.53c.1.05.16.16.16.27s-.06.21-.16.26l-9.07,5.24c-.05.03-.1.04-.16.04Z"/>
      <polygon class="cls-3" points=".3 10.91 9.37 5.68 27.6 16.21 18.54 21.44 .3 10.91"/>
      <path class="cls-2" d="M.92,10.91l17.62,10.17,8.45-4.88L9.37,6.04.92,10.91h0ZM18.54,21.75c-.05,0-.1-.01-.16-.04L.15,11.18c-.09-.06-.15-.16-.15-.27s.05-.21.15-.27l9.06-5.23c.1-.06.22-.05.31,0l18.24,10.53c.09.05.16.16.16.27s-.06.21-.16.27l-9.07,5.23c-.05.03-.11.04-.16.04Z"/>
      <polygon class="cls-1" points="8.3 6.3 10.68 4.93 28.92 15.45 26.54 16.83 8.3 6.3"/>
      <path class="cls-2" d="M8.92,6.3l17.62,10.17,1.76-1.02L10.68,5.28l-1.77,1.02h0ZM26.54,17.13c-.05,0-.11-.01-.16-.04L8.14,6.57c-.09-.06-.15-.16-.15-.27s.06-.21.15-.27l2.38-1.37c.1-.06.21-.06.3,0l18.24,10.53c.1.06.16.16.16.26s-.06.21-.16.27l-2.37,1.38c-.05.03-.1.04-.16.04Z"/>
      <path class="cls-2" d="M27.73,16.45c-.05,0-.11-.01-.16-.04L9.34,5.88c-.15-.09-.2-.28-.11-.42.09-.15.27-.2.42-.11l18.23,10.53c.15.08.2.27.11.42-.05.1-.16.15-.26.15Z"/>
      <path class="cls-1" d="M26.54,16.83v4.24l.28.33.3-.71s.03-.06.05-.09c.08-.11.19-.15.24-.08l.31.36.3-.71s.03-.06.05-.09c.08-.11.19-.15.24-.08l.31.36.28-.65v-4.24l-2.38,1.38Z"/>
      <path class="cls-2" d="M28.09,20.19h0,0ZM26.84,17.01v3.54c.03-.05.05-.1.09-.14.11-.14.26-.23.41-.23.12,0,.23.04.3.12l.11-.26s.05-.1.09-.15c.11-.15.27-.24.42-.24.1-.01.23.04.3.12l.06-.14v-3.65l-1.77,1.02h0ZM27.18,20.71h0s0,0,0,0h0ZM26.81,21.7c-.09,0-.17-.04-.23-.11l-.28-.32c-.05-.06-.08-.13-.08-.2v-4.24c0-.11.06-.21.16-.27l2.38-1.37c.1-.06.21-.06.3,0,.1.06.16.16.16.26v4.24s0,.08-.03.12l-.28.65c-.04.1-.13.17-.24.18-.1.02-.21-.02-.28-.1l-.13-.15-.27.6c-.04.1-.13.17-.24.18-.11.02-.21-.02-.28-.11l-.13-.15-.27.6c-.03.1-.13.17-.23.18-.02,0-.03,0-.04,0Z"/>
      <path class="cls-2" d="M32.47,32.23c-.11,0-.21-.05-.26-.15-.09-.15-.03-.33.11-.42l3.23-1.86c.15-.09.34-.04.42.11.09.15.04.33-.11.42l-3.22,1.86s-.11.04-.16.04Z"/>
      <path class="cls-2" d="M32.64,29.04s-.05,0-.08-.01c-.17-.04-.26-.21-.22-.38l.31-1.1c.05-.19.17-.58.49-.6.15,0,.32.05.44.35l.31.77c.06.16-.02.33-.17.4-.16.07-.33-.01-.4-.17l-.14-.35-.24.88c-.05.14-.17.22-.3.22Z"/>
      <path class="cls-2" d="M33.16,30.79c-.17,0-.3-.14-.3-.31v-3.22c0-.17.14-.31.3-.31s.3.14.3.31v3.22c0,.17-.13.31-.3.31Z"/>
      <path class="cls-2" d="M34.25,28.11s-.05,0-.09-.01c-.17-.04-.26-.22-.21-.38l.3-1.1c.05-.19.17-.59.5-.6.14,0,.31.05.43.35l.31.77c.07.16-.01.34-.17.4-.16.06-.34-.01-.4-.17l-.15-.35-.24.88c-.03.14-.16.22-.3.22Z"/>
      <path class="cls-2" d="M34.78,29.86c-.17,0-.31-.14-.31-.31v-3.22c0-.17.14-.31.31-.31s.3.14.3.31v3.22c0,.17-.14.31-.3.31Z"/>
    </g>
  </g>
</svg>