<?xml version="1.0" encoding="UTF-8"?>
<svg id="Layer_2" data-name="Layer 2" xmlns="http://www.w3.org/2000/svg" viewBox="0 0 36.73 40.43" fill="currentColor">
  <defs>
    <style>
      .cls-1 {
        fill: #fff;
      }

      .cls-1, .cls-2, .cls-3, .cls-4 {
        fill-rule: evenodd;
      }

      .cls-2 {
        fill: #1a87c7;
      }

      .cls-3 {
        fill: #bdedf8;
      }

      .cls-4 {
        fill: #66ceef;
      }
    </style>
  </defs>
  <g id="_Layer_" data-name="&amp;lt;Layer&amp;gt;">
    <g>
      <path class="cls-2" d="M31.44,11.75c-.16,0-.29-.14-.29-.31V1.97c0-.17.13-.31.29-.31.18,0,.31.14.31.31v9.47c0,.17-.13.31-.31.31Z"/>
      <path class="cls-1" d="M36.4,14.28c.34,6.91-9.48,7.52-9.88-.02l9.88.02Z"/>
      <path class="cls-2" d="M26.83,14.57c.31,3.46,2.78,4.93,5,4.81,2.1-.11,4.27-1.65,4.24-4.79l-9.25-.02h0ZM31.58,20.01c-2.49,0-5.16-1.75-5.37-5.72,0-.08.03-.17.08-.23.08-.06.16-.1.24-.1h0l9.88.02c.16,0,.29.13.31.29.18,3.59-2.31,5.6-4.85,5.73-.11,0-.18,0-.29,0Z"/>
      <path class="cls-3" d="M28.96,16.85c-2.36-.79-3.17-2.54-1.81-3.92,1.36-1.37,4.43-1.84,6.79-1.05,2.38.79,3.2,2.54,1.81,3.92-1.36,1.37-4.4,1.84-6.79,1.05Z"/>
      <path class="cls-2" d="M29.06,16.56c2.28.75,5.19.32,6.47-.98.47-.47.65-1,.55-1.53-.18-.77-1.02-1.47-2.25-1.88-2.25-.76-5.16-.32-6.47.97-.47.48-.66,1.01-.52,1.53.18.77,1.02,1.47,2.23,1.88h0ZM31.42,17.54c-.86,0-1.73-.13-2.54-.4h0c-1.44-.48-2.41-1.33-2.65-2.32-.16-.73.08-1.48.71-2.11,1.44-1.44,4.61-1.95,7.1-1.12,1.44.48,2.41,1.33,2.65,2.32.16.73-.08,1.48-.71,2.11-.97.97-2.75,1.52-4.56,1.52Z"/>
      <path class="cls-3" d="M28.96,16.85c-.45-.15-.84-.34-1.15-.55,1.52-.97,4.09-1.23,6.13-.54.45.15.84.33,1.18.54-1.55.97-4.09,1.23-6.16.55Z"/>
      <path class="cls-2" d="M29.06,16.56c1.73.58,3.9.46,5.42-.25-.21-.09-.42-.18-.65-.25-1.73-.58-3.9-.46-5.4.25.18.09.42.18.63.25h0ZM31.47,17.54c-.89,0-1.78-.13-2.59-.4h0c-.47-.16-.89-.35-1.26-.58-.08-.06-.13-.16-.13-.26s.05-.2.13-.26c1.65-1.05,4.3-1.28,6.42-.58.45.15.86.35,1.23.58.11.06.16.15.16.26s-.05.2-.16.26c-1.02.64-2.41.98-3.8.98Z"/>
      <path class="cls-2" d="M35.85,15.98c-.13,0-.24-.08-.29-.22l-4.27-13.74c-.05-.16.05-.34.21-.39.16-.05.34.04.39.2l4.27,13.75c.05.16-.05.33-.21.39-.03,0-.05.01-.1.01Z"/>
      <path class="cls-2" d="M26.73,15.39s-.05,0-.08-.02c-.18-.06-.26-.23-.18-.39L31.03,1.82c.05-.16.24-.24.39-.19.16.05.26.23.18.39l-4.56,13.16c-.05.13-.18.21-.31.21Z"/>
      <path class="cls-1" d="M31,3.13c.76.2,1.55-.25,1.73-1.01.21-.76-.24-1.55-1-1.76-.76-.2-1.55.25-1.76,1.01-.21.76.26,1.55,1.02,1.76Z"/>
      <path class="cls-2" d="M31.08,2.83c.58.16,1.2-.2,1.36-.79.16-.6-.18-1.22-.79-1.38-.6-.16-1.23.2-1.39.79-.16.6.21,1.22.81,1.38h0ZM31.37,3.48c-.16,0-.31-.02-.47-.06h0c-.92-.25-1.47-1.21-1.21-2.13.24-.93,1.18-1.48,2.12-1.23.92.25,1.47,1.2,1.23,2.13-.21.78-.92,1.29-1.68,1.29Z"/>
      <path class="cls-2" d="M5.27,26.93c-.18,0-.31-.14-.31-.31v-9.47c0-.17.13-.31.31-.31.16,0,.31.14.31.31v9.47c0,.17-.16.31-.31.31Z"/>
      <path class="cls-1" d="M10.2,29.46c.37,6.91-9.48,7.52-9.85-.02l9.85.02Z"/>
      <path class="cls-2" d="M.66,29.75c.31,3.46,2.8,4.91,4.98,4.81,2.12-.11,4.3-1.66,4.27-4.79l-9.25-.02h0ZM5.4,35.18c-2.52,0-5.16-1.75-5.37-5.72,0-.08.03-.17.08-.23s.13-.1.24-.1H.35l9.85.02c.18,0,.31.13.31.29.18,3.59-2.28,5.6-4.85,5.73-.08,0-.18,0-.26,0Z"/>
      <path class="cls-3" d="M2.78,32.03c-2.36-.79-3.2-2.54-1.81-3.91,1.36-1.37,4.4-1.84,6.79-1.05,2.36.79,3.17,2.55,1.81,3.92-1.36,1.37-4.4,1.84-6.79,1.05Z"/>
      <path class="cls-2" d="M5.27,26.98c-1.65,0-3.22.48-4.09,1.35-.47.48-.66,1-.52,1.53.18.77,1,1.47,2.23,1.88h0c2.28.75,5.19.32,6.47-.97.47-.48.66-1.01.52-1.53-.16-.77-1.02-1.47-2.23-1.88-.76-.25-1.57-.37-2.38-.37h0ZM5.24,32.71c-.86,0-1.76-.13-2.57-.4-1.44-.48-2.38-1.33-2.62-2.32-.18-.73.08-1.48.71-2.11,1.44-1.44,4.61-1.95,7.1-1.12,1.44.48,2.38,1.33,2.62,2.32.18.73-.08,1.48-.68,2.11-1,.97-2.75,1.52-4.56,1.52Z"/>
      <path class="cls-3" d="M2.78,32.03c-.45-.15-.84-.33-1.18-.54,1.55-.97,4.09-1.23,6.16-.55.45.15.84.34,1.18.55-1.55.97-4.09,1.23-6.16.54Z"/>
      <path class="cls-2" d="M2.26,31.48c.18.09.42.18.63.25h0c1.73.58,3.9.46,5.4-.25-.18-.09-.39-.18-.63-.25-1.73-.57-3.9-.46-5.4.25h0ZM5.27,32.72c-.86,0-1.76-.13-2.59-.4h0c-.45-.16-.86-.35-1.23-.58-.11-.06-.16-.16-.16-.26s.05-.2.16-.26c1.65-1.04,4.3-1.28,6.42-.58.45.15.86.35,1.23.58.08.06.16.15.16.26s-.08.2-.16.26c-1.02.64-2.41.98-3.83.98Z"/>
      <path class="cls-2" d="M9.67,31.16c-.13,0-.24-.09-.29-.22l-4.27-13.74c-.05-.16.03-.34.21-.38.16-.05.31.04.37.2l4.27,13.75c.05.16-.03.33-.18.38-.03.01-.05.02-.1.02Z"/>
      <path class="cls-2" d="M.55,30.57s-.05,0-.1-.02c-.16-.06-.24-.23-.18-.39l4.58-13.16c.05-.16.24-.25.39-.19.16.05.24.23.18.39L.84,30.37c-.03.13-.16.21-.29.21Z"/>
      <path class="cls-4" d="M30.97,1.29c-.13-.07-.26-.11-.39-.05l-12.92,7.46c.24-.12.52.11.66.29.18.23.37.58.29.88,0,.09-.05.19-.13.24l12.92-7.46c.13-.08.16-.27.16-.42-.03-.35-.26-.75-.55-.94h-.03Z"/>
      <path class="cls-2" d="M18.4,8.63c.05.05.13.11.16.17.16.17.29.43.37.71l12.31-7.12v-.13c0-.25-.21-.56-.42-.69l.16-.27-.16.27c-.05-.04-.11-.04-.11-.04l-12.31,7.11h0ZM18.48,10.42c-.1,0-.21-.05-.26-.15-.1-.14-.05-.33.08-.42.05-.21-.05-.47-.21-.67-.13-.16-.26-.22-.29-.21-.16.08-.34.02-.42-.13-.08-.14-.03-.33.13-.41L30.42.98c.21-.11.45-.09.71.05h0s.03.01.03.01c.37.23.68.73.71,1.18,0,.32-.11.57-.31.7l-12.92,7.46c-.05.03-.11.04-.16.04Z"/>
      <path class="cls-3" d="M15.15,38.11c-3.62-1.21-4.87-3.9-2.78-5.99,2.1-2.1,6.76-2.82,10.37-1.61,3.64,1.21,4.9,3.9,2.78,6-2.1,2.1-6.73,2.82-10.37,1.61Z"/>
      <path class="cls-2" d="M18.95,30.23c-2.54,0-5,.76-6.37,2.11-.76.77-1.05,1.63-.86,2.5.29,1.23,1.62,2.35,3.54,2.99h0c3.54,1.17,8.04.49,10.06-1.53.79-.77,1.07-1.63.86-2.49-.29-1.23-1.6-2.35-3.51-2.99-1.18-.39-2.46-.58-3.72-.58h0ZM18.92,39c-1.31,0-2.65-.19-3.85-.6h0c-2.17-.71-3.59-1.97-3.96-3.43-.24-1.06.13-2.16,1.05-3.07,2.15-2.17,6.97-2.92,10.69-1.68,2.15.72,3.59,1.97,3.93,3.43.26,1.06-.11,2.15-1.02,3.07-1.47,1.46-4.11,2.28-6.84,2.28Z"/>
      <path class="cls-4" d="M26.52,34.44c0,.34.03,1.37,0,1.65-.26,1.84-2.33,3-3.93,3.5-2.88.91-6.94.71-9.46-1.03-.89-.62-1.7-1.56-1.76-2.71v-1.44c.08.81.39,1.42.94,2.01,1.76,1.85,5.08,2.41,7.52,2.24,2.1-.14,4.93-.92,6.18-2.76.31-.48.45-.9.5-1.46Z"/>
      <path class="cls-2" d="M11.74,36.22c.18,1.01,1.05,1.73,1.57,2.1,2.54,1.76,6.55,1.83,9.2.99,1.6-.5,3.35-1.57,3.67-3.09-1.34,1.8-4.11,2.61-6.31,2.76-2.41.17-5.89-.35-7.78-2.33-.13-.14-.23-.28-.34-.42h0ZM18.92,40.43c-2.1,0-4.32-.47-5.95-1.61-.68-.47-1.83-1.48-1.91-2.95v-1.45c0-.17.13-.3.31-.31.16-.01.31.12.31.28.05.71.31,1.26.84,1.82,1.62,1.71,4.82,2.31,7.28,2.14,2.12-.15,4.79-.91,5.95-2.63.29-.42.42-.79.47-1.32,0-.16.13-.28.31-.28.16,0,.29.14.29.31v.28c0,.62,0,1.19-.03,1.41-.29,2.38-3.22,3.48-4.11,3.76-1.1.35-2.41.54-3.77.54Z"/>
      <path class="cls-3" d="M16.43,35.63c-2.41-.8-3.22-2.58-1.83-3.97,1.39-1.39,4.45-1.86,6.86-1.06,2.41.8,3.22,2.58,1.83,3.96-1.39,1.39-4.45,1.86-6.86,1.06Z"/>
      <path class="cls-2" d="M18.95,30.52c-1.65,0-3.25.49-4.14,1.37-.47.48-.65,1.02-.55,1.55.18.78,1.05,1.49,2.28,1.9,2.31.77,5.24.32,6.55-.99.47-.48.68-1.02.55-1.55-.18-.78-1.02-1.49-2.28-1.9-.76-.25-1.6-.37-2.41-.37h0ZM18.92,36.32c-.86,0-1.76-.13-2.59-.4-1.44-.48-2.44-1.34-2.65-2.34-.18-.74.05-1.5.71-2.13,1.44-1.46,4.69-1.97,7.18-1.14,1.44.49,2.44,1.34,2.67,2.35.18.74-.08,1.5-.71,2.13-.99.99-2.78,1.54-4.61,1.54Z"/>
      <path class="cls-4" d="M23.95,33.2c0,.23.03.91,0,1.09-.16,1.22-1.52,1.98-2.59,2.32-1.91.6-4.59.47-6.24-.68-.6-.41-1.15-1.03-1.18-1.79v-.95c.05.54.24.94.63,1.33,1.15,1.22,3.35,1.59,4.98,1.48,1.39-.09,3.25-.61,4.06-1.82.24-.32.31-.6.34-.97Z"/>
      <path class="cls-2" d="M14.49,34.88c.23.36.55.63.79.8,1.65,1.14,4.27,1.18,6,.64.81-.26,1.7-.76,2.12-1.44-.97.91-2.54,1.33-3.85,1.42-1.55.11-3.77-.21-5.06-1.42h0ZM18.95,37.27c-1.44,0-2.91-.32-4.01-1.08-.81-.56-1.26-1.28-1.31-2.04v-.96c0-.17.13-.3.29-.31.16,0,.31.12.34.28.03.45.18.79.52,1.14,1.05,1.11,3.14,1.49,4.74,1.39,1.36-.1,3.09-.59,3.85-1.69.16-.26.26-.5.29-.83,0-.16.11-.31.31-.28.16,0,.29.14.29.31v1.13c-.21,1.63-2.2,2.38-2.8,2.57-.73.23-1.62.36-2.51.36Z"/>
      <path class="cls-1" d="M19.6,33.53c.13-.08.26-.2.26-.36V10.07c0,.28-.34.43-.6.48-.31.08-.81.04-1.07-.2-.08-.07-.16-.17-.16-.28v23.1c0,.2.21.35.37.42.37.15.84.14,1.18-.04h.03Z"/>
      <path class="cls-2" d="M19.45,33.27l.16.26-.16-.27c.08-.05.1-.1.13-.11V10.79c-.08.03-.16.05-.24.07-.29.06-.68.06-1-.07v22.38s.05.08.18.13c.29.12.66.11.92-.03h0ZM18.95,34c-.24,0-.45-.04-.66-.13-.34-.15-.58-.4-.58-.69V10.07c0-.17.13-.3.31-.31h0c.16,0,.29.13.31.29,0,.02.03.05.03.07.21.17.58.2.84.14.21-.05.34-.15.37-.2,0-.16.13-.29.29-.29h.03c.16,0,.29.14.29.31v23.1c0,.25-.16.47-.42.63h-.03c-.21.13-.5.2-.79.2Z"/>
      <path class="cls-1" d="M18.27,11.92c1.52.41,3.09-.5,3.51-2.01.39-1.52-.5-3.08-2.02-3.49-1.52-.41-3.09.5-3.51,2.02-.39,1.52.5,3.08,2.02,3.49Z"/>
      <path class="cls-2" d="M19.03,6.63c-1.13,0-2.15.75-2.46,1.88-.18.66-.08,1.34.26,1.93.34.59.86,1.01,1.52,1.18h0c.68.18,1.36.09,1.94-.25.6-.34,1.02-.89,1.18-1.54.18-.66.1-1.34-.24-1.93-.34-.59-.89-1.01-1.55-1.18-.24-.06-.45-.09-.66-.09h0ZM19.03,12.33c-.29,0-.55-.04-.84-.11h0c-.81-.22-1.49-.74-1.91-1.47-.42-.73-.52-1.58-.31-2.4.45-1.68,2.17-2.68,3.88-2.23.81.22,1.49.74,1.91,1.47.42.73.52,1.58.31,2.4s-.73,1.5-1.47,1.92c-.5.28-1.02.42-1.57.42Z"/>
      <path class="cls-4" d="M17.66,8.98c-.13-.07-.26-.12-.39-.05l-12.92,7.46c.24-.12.52.11.66.28.18.23.34.59.29.89,0,.1-.05.19-.13.24l12.92-7.46c.13-.08.16-.27.16-.42-.03-.35-.26-.75-.58-.94h0Z"/>
      <path class="cls-2" d="M5.09,16.32c.05.05.11.11.16.16.16.17.29.43.37.71l12.31-7.12v-.13c0-.25-.21-.56-.42-.69l.16-.27-.16.27c-.05-.03-.11-.04-.11-.04l-12.31,7.11h0ZM5.17,18.11c-.1,0-.21-.05-.26-.15-.1-.14-.05-.33.08-.42.05-.21-.05-.47-.21-.67-.13-.15-.26-.22-.29-.2-.16.07-.34.01-.42-.13-.08-.15-.03-.33.13-.41l12.92-7.46c.21-.11.45-.1.71.04h0s.03.02.03.02c.37.23.68.73.71,1.18,0,.32-.1.57-.31.7l-12.92,7.46c-.05.03-.1.04-.16.04Z"/>
      <path class="cls-1" d="M4.8,18.3c.76.2,1.54-.25,1.76-1.01.21-.76-.24-1.55-1-1.75-.79-.21-1.57.25-1.76,1.01-.21.76.24,1.55,1,1.76Z"/>
      <path class="cls-2" d="M4.88,18c.6.16,1.23-.2,1.39-.79.16-.6-.21-1.22-.81-1.38-.58-.16-1.21.2-1.36.8-.16.6.21,1.22.79,1.38h0ZM5.17,18.66c-.13,0-.29-.02-.45-.06h0c-.92-.25-1.47-1.2-1.23-2.13.26-.93,1.2-1.48,2.15-1.23.92.25,1.47,1.21,1.2,2.13-.21.77-.89,1.29-1.68,1.29Z"/>
    </g>
  </g>
</svg>