<?xml version="1.0" encoding="UTF-8"?>
<svg id="Layer_2" data-name="Layer 2" xmlns="http://www.w3.org/2000/svg" viewBox="0 0 34.28 41.18" fill="currentColor">
  <defs>
    <style>
      .cls-1 {
        fill: #fff;
      }

      .cls-1, .cls-2, .cls-3, .cls-4 {
        fill-rule: evenodd;
      }

      .cls-2 {
        fill: #1a87c7;
      }

      .cls-3 {
        fill: #bdedf8;
      }

      .cls-4 {
        fill: #66ceef;
      }
    </style>
  </defs>
  <g id="_Layer_" data-name="&amp;lt;Layer&amp;gt;">
    <g>
      <path class="cls-4" d="M10.65,36.59l-4.11-2.37c4.81,2.71,10.8-1.83,13.86-5.32,4.27-4.88,8.04-13.2,6.42-19.69-.48-1.91-1.45-3.59-3.17-4.62l4.31,2.5c4.32,2.75,3.64,9.7,2.3,13.96-1.99,6.32-7.36,13.97-13.89,15.94-1.93.58-3.93.61-5.72-.4Z"/>
      <path class="cls-2" d="M10.8,36.32c1.56.88,3.4,1,5.48.37,6.33-1.91,11.68-9.36,13.68-15.74,1.48-4.7,1.8-11.09-2.18-13.61l-1.95-1.13c.57.81,1,1.78,1.28,2.91,1.68,6.71-2.19,15.05-6.49,19.96-2.96,3.39-7.45,6.61-11.57,6.22l1.73,1h0ZM13.8,37.71c-1.2,0-2.31-.28-3.31-.85h0l-4.11-2.37c-.14-.08-.2-.27-.11-.42.08-.15.27-.2.42-.12,4.39,2.47,10.01-1.29,13.48-5.26,4.33-4.95,7.9-13.2,6.35-19.41-.51-2.05-1.53-3.53-3.03-4.42-.15-.09-.19-.28-.11-.42.09-.15.28-.2.42-.11l4.31,2.49c4.28,2.71,3.98,9.41,2.44,14.32-2.05,6.53-7.55,14.17-14.09,16.14-.93.28-1.81.42-2.66.42Z"/>
      <path class="cls-1" d="M17.91,7.24c-6.6,3.81-11.94,13.07-11.94,20.68s5.35,10.7,11.94,6.89c6.59-3.81,11.94-13.07,11.94-20.68s-5.35-10.7-11.94-6.89Z"/>
      <path class="cls-2" d="M23.24,5.92c-1.58,0-3.35.53-5.18,1.59-6.5,3.75-11.79,12.91-11.79,20.42,0,3.57,1.19,6.22,3.34,7.46,2.16,1.24,5.05.95,8.14-.84,6.5-3.75,11.79-12.91,11.79-20.42,0-3.57-1.19-6.22-3.34-7.46-.88-.51-1.88-.76-2.96-.76h0ZM12.57,36.76c-1.19,0-2.29-.28-3.26-.84-2.36-1.36-3.65-4.2-3.65-8,0-7.7,5.43-17.1,12.1-20.95,3.29-1.9,6.4-2.2,8.75-.84,2.36,1.36,3.65,4.2,3.65,8,0,7.7-5.43,17.1-12.1,20.95-1.93,1.11-3.8,1.68-5.49,1.68Z"/>
      <path class="cls-4" d="M15.09,2.34c3.01-1.69,6.93-2.93,10.2-1.18l4.11,2.37c-6.04-3.01-13.2,2.57-16.93,6.93-4.99,5.83-9.28,15.37-7.75,23.11.5,2.52,1.61,4.71,3.78,6.15-.98-.56-3.83-2.13-4.58-2.7C-.79,33.47-.02,25.57,1.47,20.63,3.63,13.48,8.6,6.19,15.09,2.34Z"/>
      <path class="cls-2" d="M15.24,2.61C9.23,6.17,4.07,13.11,1.77,20.72c-1.62,5.37-1.99,12.8,2.33,16.06.37.28,1.3.83,2.24,1.37-.93-1.2-1.57-2.69-1.93-4.51-1.57-7.95,2.95-17.69,7.82-23.37,3.69-4.32,9.44-8.5,14.68-7.8l-1.78-1.03c-3.3-1.77-7.2-.34-9.89,1.17h0ZM8.5,40.04c-.05,0-.11-.01-.16-.04-.22-.13-.54-.31-.91-.52-1.31-.74-3.1-1.76-3.7-2.21C-.84,33.82-.58,26.37,1.18,20.54,3.52,12.79,8.79,5.71,14.94,2.08c0,0,0,0,0,0,2.82-1.59,6.94-3.09,10.49-1.18l4.11,2.37c.14.08.2.27.12.41-.08.15-.26.2-.41.13-5.53-2.76-12.38,1.97-16.55,6.85-4.77,5.58-9.21,15.11-7.68,22.85.54,2.74,1.73,4.69,3.65,5.96.14.09.18.28.09.42-.06.1-.16.15-.26.15Z"/>
      <polygon class="cls-4" points="10.44 36.47 6.33 34.09 6.44 34.16 6.54 34.22 10.65 36.59 10.54 36.53 10.44 36.47"/>
      <path class="cls-2" d="M10.65,36.9c-.06,0-.11-.01-.15-.04l-4.32-2.5c-.14-.09-.19-.28-.1-.42.09-.14.27-.19.42-.11l4.11,2.37s0,0,0,0l.2.13c.14.08.2.27.11.42-.06.1-.16.15-.26.15Z"/>
      <polygon class="cls-4" points="27.75 6.96 23.64 4.59 23.54 4.54 23.43 4.48 27.54 6.85 27.64 6.9 27.75 6.96"/>
      <path class="cls-2" d="M27.75,7.27c-.05,0-.1-.01-.15-.04l-.21-.11-4.11-2.37c-.14-.08-.2-.27-.12-.42.08-.15.27-.2.42-.12l.22.12,4.11,2.37c.15.08.2.27.12.42-.06.1-.16.16-.27.16Z"/>
      <path class="cls-3" d="M27.75,6.96c-1.12-.64-2.45-.91-3.93-.77-1.42.14-2.99.67-4.62,1.61-1.64.95-3.2,2.23-4.63,3.73-1.48,1.56-2.81,3.37-3.92,5.3-1.12,1.93-2.02,3.99-2.63,6.05-.59,1.99-.92,3.98-.92,5.87s.33,3.51.92,4.81c.61,1.35,1.51,2.37,2.63,3.02,1.12.64,2.45.91,3.92.76,1.43-.14,2.99-.67,4.63-1.61,1.64-.95,3.2-2.22,4.62-3.73,1.48-1.56,2.81-3.37,3.93-5.3,1.11-1.93,2.01-3.99,2.63-6.05.59-1.99.92-3.98.92-5.87s-.33-3.51-.92-4.81c-.61-1.35-1.51-2.37-2.63-3.02h0ZM8.75,15.74c2.68-4.63,6.37-8.68,10.45-11.03,4.08-2.36,7.77-2.58,10.45-1.04,2.68,1.55,4.33,4.86,4.33,9.57s-1.66,9.93-4.33,14.57c-2.67,4.63-6.37,8.67-10.45,11.03-4.08,2.36-7.78,2.58-10.45,1.04-2.68-1.54-4.33-4.86-4.33-9.57s1.65-9.93,4.33-14.57h0Z"/>
      <path class="cls-2" d="M24.6,6.47c-.24,0-.5.01-.75.04-1.43.14-2.94.67-4.5,1.57-1.57.91-3.11,2.15-4.56,3.67-1.45,1.53-2.76,3.3-3.88,5.24-1.12,1.94-2,3.96-2.6,5.98-.6,2.02-.9,3.96-.9,5.78s.3,3.38.89,4.69c.58,1.29,1.42,2.25,2.5,2.88,1.08.62,2.34.87,3.74.73,1.42-.14,2.94-.67,4.5-1.58,1.58-.91,3.11-2.15,4.56-3.67,1.45-1.54,2.76-3.3,3.88-5.24,1.12-1.94,2-3.96,2.6-5.98.6-2.02.9-3.96.9-5.78s-.3-3.38-.89-4.69c-.58-1.29-1.42-2.26-2.5-2.88h0c-.88-.51-1.89-.76-2.99-.76h0ZM13.79,37.71c-1.22,0-2.32-.28-3.3-.85-1.19-.69-2.12-1.75-2.75-3.16-.63-1.39-.95-3.05-.95-4.94s.31-3.88.93-5.96c.62-2.07,1.51-4.13,2.66-6.12,1.15-1.99,2.48-3.79,3.97-5.36,1.49-1.57,3.07-2.84,4.7-3.78,1.64-.95,3.24-1.5,4.75-1.66,1.54-.15,2.92.12,4.11.81h0c1.19.69,2.12,1.75,2.75,3.16.63,1.38.94,3.04.94,4.94s-.31,3.89-.93,5.96c-.62,2.07-1.51,4.13-2.66,6.12-1.14,1.99-2.48,3.79-3.97,5.36-1.48,1.57-3.06,2.84-4.7,3.78-1.64.95-3.24,1.5-4.75,1.65-.27.03-.54.04-.81.04h0ZM9.01,15.9h0c2.76-4.79,6.43-8.67,10.34-10.92,3.85-2.22,7.45-2.59,10.14-1.03,2.69,1.55,4.18,4.86,4.18,9.3s-1.52,9.62-4.29,14.41c-2.76,4.79-6.43,8.67-10.34,10.92-3.85,2.22-7.45,2.59-10.14,1.04-2.69-1.55-4.18-4.86-4.18-9.3s1.52-9.62,4.29-14.41h0ZM12.6,41.18c-1.46,0-2.81-.34-4.01-1.03-2.89-1.67-4.48-5.16-4.48-9.83s1.55-9.84,4.37-14.72h0c2.82-4.88,6.57-8.84,10.56-11.15,4.05-2.34,7.86-2.7,10.76-1.03,2.89,1.67,4.48,5.16,4.48,9.84s-1.55,9.84-4.37,14.72c-2.82,4.88-6.57,8.84-10.56,11.14-2.38,1.37-4.68,2.07-6.75,2.07Z"/>
      <path class="cls-2" d="M16.22,34.78s-.05,0-.08-.01c-.17-.04-.26-.21-.22-.37l3.93-15.07c.04-.17.21-.26.37-.22.16.04.26.21.22.37l-3.92,15.07c-.04.14-.16.23-.3.23Z"/>
      <polygon class="cls-3" points="20.97 20.99 19.91 23.26 12.29 21.09 13.36 18.82 20.97 20.99"/>
      <path class="cls-2" d="M12.73,20.89l7.01,2,.8-1.71-7.01-2-.8,1.7h0ZM19.91,23.57s-.06,0-.09-.01l-7.61-2.17c-.09-.03-.16-.09-.2-.17-.04-.08-.04-.18,0-.26l1.07-2.27c.07-.14.21-.21.36-.16l7.61,2.17c.09.03.16.09.19.17.04.08.04.18,0,.26l-1.07,2.27c-.05.11-.16.18-.28.18Z"/>
      <polygon class="cls-4" points="18.3 25.52 17.37 24.99 26.2 9.7 26.83 10.06 27.13 10.23 18.3 25.52"/>
      <path class="cls-2" d="M17.79,24.88l.39.22,8.52-14.76-.39-.23-8.52,14.76h0ZM18.3,25.83c-.05,0-.11-.01-.15-.04l-.93-.53c-.07-.04-.12-.11-.14-.19-.02-.08-.01-.17.03-.23l8.83-15.29c.08-.15.27-.2.42-.11l.92.53c.07.04.13.11.14.19.02.08.01.16-.03.23l-8.83,15.29c-.06.1-.16.15-.26.15Z"/>
    </g>
  </g>
</svg>