<?xml version="1.0" encoding="UTF-8"?>
<svg id="Layer_2" data-name="Layer 2" xmlns="http://www.w3.org/2000/svg" viewBox="0 0 42.07 33.71" fill="currentColor">
  <defs>
    <style>
      .cls-1 {
        fill: #fff;
      }

      .cls-1, .cls-2, .cls-3, .cls-4 {
        fill-rule: evenodd;
      }

      .cls-2 {
        fill: #1a87c7;
      }

      .cls-3 {
        fill: #bdedf8;
      }

      .cls-4 {
        fill: #66ceef;
      }
    </style>
  </defs>
  <g id="_Layer_" data-name="&amp;lt;Layer&amp;gt;">
    <g>
      <polygon class="cls-4" points="41.77 12.16 41.77 19.96 41.71 20.23 41.58 20.5 41.36 20.75 41.04 20.98 41.04 13.17 41.36 12.95 41.58 12.7 41.71 12.44 41.77 12.16"/>
      <path class="cls-2" d="M41.34,13.33v6.96l.08-.15.04-.23v-6.66s-.12.08-.12.08h0ZM41.04,21.28c-.05,0-.1-.01-.14-.03-.1-.05-.17-.16-.17-.27v-7.8c0-.1.04-.19.13-.25l.31-.22.15-.17.09-.19.04-.23c.03-.16.17-.27.32-.26.17.01.29.15.29.31v7.8l-.05.33s0,.06-.03.09l-.14.26s-.03.05-.04.07l-.22.25-.37.27c-.06.04-.12.06-.18.06Z"/>
      <path class="cls-4" d="M41.04,13.17v7.8c-6.93,4-13.86,8-20.79,12-1.04.54-2.27.55-3.33.1l-.19-.1c-4.75-2.74-11.73-6.26-16.01-9.28-.28-.31-.34-.37-.41-.79v-7.8c.07.42.13.48.41.79,4.28,3.02,11.27,6.54,16.01,9.28l.19.1c1.06.45,2.29.44,3.33-.1,6.93-4,13.86-8,20.79-12.01Z"/>
      <path class="cls-2" d="M.62,16.2v6.7c.04.28.05.28.32.58,2.88,2.03,7.19,4.39,10.99,6.47,1.78.98,3.47,1.9,4.95,2.76l.17.09c.98.41,2.13.38,3.04-.1l20.64-11.91v-7.09l-20.34,11.74c-1.1.58-2.41.62-3.6.12l-.21-.11c-1.49-.86-3.18-1.79-4.96-2.76-3.78-2.07-8.06-4.41-11-6.49h0ZM18.49,33.71c-.57,0-1.15-.12-1.7-.35l-.21-.11c-1.49-.86-3.17-1.78-4.95-2.76-3.81-2.09-8.14-4.46-11.09-6.55-.02-.01-.04-.04-.06-.05-.31-.34-.39-.45-.48-.94v-7.85c0-.16.12-.29.28-.31.15-.01.3.1.33.26.05.33.06.33.33.63,2.88,2.03,7.18,4.39,10.98,6.47,1.79.98,3.48,1.9,4.96,2.76l.17.09c.98.41,2.13.38,3.04-.1l20.78-12c.09-.05.22-.06.31,0,.1.06.15.15.15.26v7.8c0,.11-.05.21-.15.26l-20.8,12.01c-.59.31-1.24.47-1.9.47Z"/>
      <path class="cls-3" d="M21.83,2.09c.97-.56,2.55-.56,3.52,0,6.35,3.67,9.34,5.39,15.69,9.06.96.56.96,1.47,0,2.03-7.54,4.35-13.26,7.65-20.79,12.01-.97.56-2.55.56-3.52,0-6.27-3.62-9.41-5.44-15.69-9.06-.97-.56-.97-1.47,0-2.03,3.51-2.03,12.99-7.5,20.79-12Z"/>
      <path class="cls-2" d="M21.98,2.35L1.19,14.36c-.37.21-.57.48-.57.75s.2.53.57.75l15.69,9.06c.87.5,2.34.5,3.21,0l20.79-12c.37-.22.57-.48.57-.75s-.2-.53-.57-.75L25.19,2.35c-.87-.5-2.34-.5-3.21,0h0ZM18.48,25.9c-.69,0-1.38-.15-1.9-.46L.88,16.39c-.57-.33-.88-.78-.88-1.28s.31-.95.88-1.28L21.67,1.82h0c1.08-.62,2.76-.62,3.83,0l15.7,9.06c.57.33.88.78.88,1.28s-.31.95-.88,1.28l-20.8,12c-.52.31-1.22.46-1.91.46Z"/>
      <path class="cls-1" d="M24.61,4.12c1.11.63,1.45.84,2.55,1.47.15.09.15.23,0,.31l-8.64,4.99c-.15.08-.39.09-.54,0l-2.55-1.47c-.15-.08-.15-.23,0-.31l8.64-4.99c.15-.09.39-.09.54,0Z"/>
      <path class="cls-2" d="M27.01,5.86h0,0ZM15.78,9.26l2.35,1.36c.05.03.17.03.23,0l8.44-4.87-2.36-1.36h0s-.17-.03-.23,0l-8.44,4.88h0ZM18.25,11.26c-.15,0-.3-.03-.42-.1l-2.56-1.47c-.17-.1-.26-.25-.26-.42s.09-.33.26-.42l8.64-4.99c.24-.14.6-.14.85,0l2.55,1.47c.17.1.26.25.26.42s-.09.32-.26.42l-8.64,4.99c-.12.07-.27.1-.43.1Z"/>
      <path class="cls-3" d="M41.04,20.98c-6.93,4-13.86,8-20.79,12-.6.31-1.09.4-1.76.42v-7.8c.68-.02,1.16-.11,1.76-.42,6.93-4,13.86-8,20.79-12.01.45-.32.63-.45.73-1.01v7.8c-.09.56-.28.69-.73,1.02Z"/>
      <path class="cls-2" d="M41.04,20.98h0,0ZM18.79,25.89v7.18c.45-.03.83-.12,1.3-.37l20.77-11.99c.42-.3.51-.37.59-.81v-6.66c-.08.06-.16.11-.24.18l-20.83,12.02c-.57.31-1.06.41-1.6.45h0ZM18.48,33.71c-.08,0-.16-.03-.21-.09-.06-.06-.1-.14-.1-.22v-7.8c0-.17.13-.3.31-.31.59-.02,1.04-.08,1.61-.38l20.78-12c.41-.29.5-.36.58-.8.03-.16.17-.27.32-.26.17.01.29.15.29.31v7.8c-.11.72-.36.91-.85,1.27,0,0-.02.01-.03.02l-20.8,12.01c-.69.36-1.23.44-1.9.46h0Z"/>
      <polygon class="cls-4" points="5.14 15.17 5.14 16.14 7.41 17.44 7.41 16.47 5.14 15.17"/>
      <path class="cls-2" d="M5.45,15.96l1.64.95v-.26l-1.64-.95v.26h0ZM7.41,17.75c-.05,0-.11-.01-.16-.04l-2.26-1.31c-.1-.06-.16-.15-.16-.26v-.97c0-.11.06-.21.16-.27.1-.06.21-.06.3,0l2.26,1.31c.1.06.16.16.16.27v.97c0,.11-.05.21-.16.27-.04.03-.09.04-.15.04Z"/>
      <polygon class="cls-3" points="7.41 16.47 7.41 17.44 15.09 13.01 15.09 12.04 7.41 16.47"/>
      <path class="cls-2" d="M7.71,16.65v.26l7.07-4.08v-.26l-7.07,4.08h0ZM7.41,17.75c-.05,0-.11-.01-.16-.04-.1-.06-.16-.16-.16-.26v-.97c0-.11.06-.21.16-.27l7.68-4.43c.09-.06.21-.06.3,0,.09.05.16.15.16.26v.97c0,.11-.06.21-.16.27l-7.68,4.43s-.09.04-.15.04Z"/>
      <polygon class="cls-1" points="12.82 10.73 5.14 15.17 7.41 16.47 15.09 12.04 12.82 10.73"/>
      <path class="cls-2" d="M5.76,15.17l1.65.95,7.07-4.08-1.65-.95-7.07,4.08h0ZM7.41,16.78c-.05,0-.11-.02-.16-.04l-2.26-1.31c-.1-.06-.16-.15-.16-.27,0-.11.06-.21.16-.27l7.67-4.43c.09-.06.22-.06.31,0l2.26,1.31c.09.06.16.16.16.27s-.06.21-.16.27l-7.68,4.44s-.09.04-.15.04Z"/>
      <path class="cls-2" d="M23.93,5.5l.81.46.29-.17-.8-.46-.29.17h0ZM24.74,6.63c-.06,0-.11-.01-.16-.04l-1.42-.82c-.09-.06-.16-.16-.16-.27s.06-.21.16-.27l.91-.52c.09-.06.22-.06.31,0l1.42.82c.09.06.16.16.16.27s-.06.21-.16.27l-.91.53s-.09.04-.15.04Z"/>
      <path class="cls-1" d="M24.1,13.6l1.49.86c.1.06.26.06.37,0l1.4-.81c.09-.06.09-.15,0-.21l-1.5-.86c-.1-.06-.26-.06-.36,0l-1.4.81c-.1.06-.1.15,0,.21Z"/>
      <path class="cls-2" d="M24.53,13.49l1.22.7,1.17-.65-1.21-.7-1.17.65h0ZM25.77,14.81c-.12,0-.24-.03-.34-.08l-1.49-.87c-.14-.08-.23-.22-.23-.37s.09-.29.23-.37l1.4-.81c.19-.11.48-.11.67,0l1.49.86c.15.08.24.22.24.37s-.09.29-.24.37l-1.4.81c-.09.06-.22.09-.33.09Z"/>
      <path class="cls-1" d="M27.19,15.38l1.49.86c.1.06.26.06.36,0l1.4-.81c.11-.06.11-.15,0-.21l-1.49-.86c-.1-.06-.26-.06-.36,0l-1.41.81c-.09.06-.09.15.01.21Z"/>
      <path class="cls-2" d="M27.62,15.28l1.21.7,1.17-.65-1.21-.7-1.17.65h0ZM28.86,16.6c-.11,0-.23-.03-.33-.09l-1.49-.86c-.15-.08-.23-.22-.23-.37-.01-.15.08-.29.23-.37l1.4-.81c.19-.11.48-.11.67,0l1.5.86c.15.08.22.22.22.37s-.08.29-.22.37l-1.4.81c-.1.06-.22.08-.34.08Z"/>
      <path class="cls-1" d="M24,10.08l1.5.86c.09.06.26.06.36,0l1.4-.81c.1-.06.1-.15,0-.21l-1.5-.86c-.09-.06-.26-.06-.36,0l-1.41.81c-.1.06-.1.15,0,.21Z"/>
      <path class="cls-2" d="M24.43,9.98l1.21.7,1.17-.65-1.21-.7-1.17.65h0ZM25.67,11.3c-.11,0-.24-.03-.33-.08l-1.5-.86c-.15-.08-.23-.22-.23-.37,0-.15.08-.29.23-.37l1.4-.81c.19-.11.48-.11.67,0l1.5.86c.14.08.23.22.23.37s-.08.29-.23.37l-1.4.81c-.1.06-.22.08-.34.08Z"/>
      <path class="cls-1" d="M27.09,11.87l1.49.86c.11.06.27.06.37,0l1.4-.81c.11-.06.11-.15,0-.21l-1.49-.86c-.09-.06-.26-.06-.36,0l-1.4.81c-.1.06-.1.15,0,.21Z"/>
      <path class="cls-2" d="M27.53,11.76l1.21.7,1.17-.65-1.22-.7-1.17.65h0ZM28.76,13.08c-.11,0-.24-.03-.33-.08l-1.5-.86c-.15-.08-.23-.22-.23-.37s.09-.29.23-.37l1.4-.81c.19-.11.47-.11.67,0l1.49.86c.14.08.23.22.23.37s-.09.29-.23.37l-1.4.81c-.09.06-.21.09-.34.09Z"/>
      <path class="cls-1" d="M30.18,13.65l1.49.86c.1.06.26.06.37,0l1.4-.81c.09-.06.09-.15,0-.21l-1.5-.86c-.1-.06-.26-.06-.36,0l-1.4.81c-.1.06-.1.15,0,.21Z"/>
      <path class="cls-2" d="M30.62,13.55l1.21.7,1.17-.65-1.21-.7-1.16.65h0ZM31.86,14.87c-.12,0-.23-.03-.34-.08l-1.5-.86c-.14-.08-.23-.22-.23-.37s.09-.29.23-.37l1.4-.81c.2-.11.48-.11.68,0l1.5.86c.14.08.23.22.23.37s-.09.29-.23.37l-1.4.81c-.11.06-.22.08-.34.08Z"/>
      <path class="cls-1" d="M26.99,8.35l1.5.86c.1.06.26.06.36,0l1.4-.81c.1-.06.1-.15,0-.21l-1.49-.86c-.11-.06-.26-.06-.36,0l-1.4.81c-.09.06-.09.15,0,.21Z"/>
      <path class="cls-2" d="M27.43,8.25l1.21.7,1.16-.65-1.21-.7-1.17.65h0ZM28.66,9.57c-.12,0-.23-.03-.33-.08l-1.51-.86c-.14-.08-.22-.22-.22-.37s.08-.29.22-.37l1.4-.81c.2-.11.48-.11.68,0l1.5.86c.14.08.23.22.23.37s-.09.29-.23.37l-1.4.81c-.1.06-.22.08-.34.08Z"/>
      <path class="cls-1" d="M30.08,10.14l1.5.86c.09.06.26.06.36,0l1.4-.81c.1-.06.1-.15,0-.21l-1.49-.86c-.1-.06-.27-.06-.37,0l-1.4.81c-.1.06-.1.15,0,.21Z"/>
      <path class="cls-2" d="M30.52,10.04l1.22.7,1.16-.65-1.21-.7-1.17.65h0ZM31.76,11.35c-.12,0-.24-.03-.34-.08l-1.49-.86c-.14-.08-.23-.22-.23-.37s.09-.29.23-.37l1.4-.81c.19-.11.48-.11.67,0l1.5.86c.15.08.23.22.23.37s-.09.29-.23.37l-1.4.81c-.09.06-.21.08-.33.08Z"/>
      <path class="cls-1" d="M33.18,11.92l1.5.86c.09.06.26.06.36,0l1.4-.81c.1-.06.1-.15,0-.21l-1.49-.86c-.1-.06-.26-.06-.36,0l-1.4.81c-.11.06-.11.15,0,.21Z"/>
      <path class="cls-2" d="M33.61,11.82l1.21.7,1.17-.65-1.21-.7-1.17.65h0ZM34.86,13.14c-.12,0-.24-.03-.34-.08l-1.49-.86c-.15-.08-.23-.22-.23-.37s.08-.29.23-.37l1.4-.81c.19-.11.48-.11.67,0l1.5.86c.15.08.22.22.22.37.01.15-.08.29-.22.37l-1.4.81c-.1.05-.22.08-.33.08Z"/>
      <path class="cls-1" d="M21,11.81l1.49.86c.11.06.26.06.36,0l1.4-.81c.1-.06.1-.15,0-.21l-1.49-.86c-.1-.06-.26-.06-.36,0l-1.4.81c-.1.06-.1.15,0,.21Z"/>
      <path class="cls-2" d="M21.44,11.71l1.21.7,1.16-.65-1.21-.7-1.16.65h0ZM22.68,13.02c-.12,0-.23-.03-.34-.08l-1.5-.86h0c-.14-.08-.23-.22-.23-.37s.09-.29.23-.37l1.4-.81c.2-.11.48-.11.67,0l1.5.86c.14.08.23.22.23.37s-.09.29-.23.37l-1.41.81c-.1.06-.21.08-.33.08Z"/>
      <path class="cls-1" d="M13.65,11.46l-7.02,4.19V4.22l.21.12.42-.23.41-.7.4.23.46-.26.41-.7.41.23.46-.27.4-.7.41.23.46-.26.41-.7.41.23.46-.27.4-.7.41.23.41-.23.09-.16v11.15Z"/>
      <path class="cls-2" d="M13.65,11.46h0,0ZM6.94,4.63v10.47l6.41-3.82V.95l-.03.02c-.1.06-.21.06-.31,0l-.15-.08-.25.44s-.06.09-.11.11l-.46.26c-.09.05-.21.06-.3,0l-.14-.08-.25.43s-.07.09-.12.11l-.46.26c-.09.06-.21.06-.3,0l-.15-.08-.25.43s-.06.08-.11.11l-.46.27c-.09.06-.21.06-.3,0l-.14-.08-.25.43s-.07.09-.11.11l-.46.27c-.1.06-.21.06-.3,0l-.14-.08-.26.43s-.06.09-.12.11l-.41.23s-.04.02-.05.02h0ZM6.63,15.96c-.05,0-.11-.01-.15-.04-.09-.06-.16-.16-.16-.27V4.22c0-.11.05-.21.15-.27.09-.05.22-.06.31,0l.05.03.19-.1.36-.63c.09-.15.27-.19.42-.11l.25.14.23-.14.37-.63c.09-.14.28-.19.42-.11l.25.14.24-.14.36-.63c.09-.15.27-.19.42-.11l.25.14.24-.14.36-.63c.09-.14.28-.19.42-.11l.25.14.24-.14.37-.63c.09-.15.27-.2.42-.11l.25.14.18-.11.05-.09c.07-.12.21-.18.35-.14.13.04.23.16.23.3v11.15c0,.11-.06.21-.15.26l-7.03,4.19s-.11.04-.15.04Z"/>
      <path class="cls-2" d="M7.84,9.99c-.11,0-.21-.06-.27-.15-.09-.15-.03-.34.11-.42l4.25-2.45c.15-.09.34-.04.42.11.08.15.03.34-.11.42l-4.26,2.45s-.09.04-.15.04Z"/>
      <path class="cls-2" d="M7.84,11.22c-.11,0-.21-.05-.27-.15-.09-.15-.03-.34.11-.42l3.62-2.09c.14-.08.33-.04.42.11.09.15.03.34-.12.42l-3.62,2.09s-.09.04-.15.04Z"/>
      <path class="cls-2" d="M7.84,13.74c-.11,0-.21-.06-.27-.16-.09-.15-.03-.33.11-.42l1.81-1.05c.15-.09.34-.04.43.11.09.15.03.34-.11.42l-1.82,1.05s-.09.04-.15.04Z"/>
      <path class="cls-2" d="M11.52,11.61c-.11,0-.22-.06-.27-.15-.09-.15-.03-.33.11-.42l.9-.52c.15-.09.33-.04.42.11.08.15.03.34-.11.42l-.9.52s-.09.04-.15.04Z"/>
      <path class="cls-2" d="M7.84,5.88c-.11,0-.21-.06-.27-.16-.09-.15-.03-.33.11-.42l1.39-.8c.15-.08.33-.04.42.11.09.15.03.34-.11.42l-1.39.8s-.09.04-.15.04Z"/>
      <path class="cls-2" d="M10.87,4.12c-.1,0-.21-.06-.26-.15-.09-.14-.03-.34.11-.42l1.53-.89c.14-.08.33-.03.42.12.08.15.03.33-.11.42l-1.53.89s-.1.04-.16.04Z"/>
      <path class="cls-2" d="M7.84,7.37c-.11,0-.21-.06-.27-.16-.09-.15-.03-.34.11-.42l2.58-1.49c.15-.09.34-.03.42.11.09.15.03.34-.12.42l-2.58,1.49s-.09.04-.15.04Z"/>
      <path class="cls-2" d="M11.96,4.99c-.11,0-.21-.05-.27-.15-.08-.15-.04-.33.11-.42l.45-.26c.14-.08.33-.04.42.11.08.15.03.34-.11.42l-.44.26c-.05.03-.1.04-.16.04Z"/>
    </g>
  </g>
</svg>