<?xml version="1.0" encoding="UTF-8"?>
<svg id="Layer_2" data-name="Layer 2" xmlns="http://www.w3.org/2000/svg" viewBox="0 0 28.19 40.98" fill="currentColor">
  <defs>
    <style>
      .cls-1 {
        fill: #fff;
      }

      .cls-1, .cls-2, .cls-3, .cls-4 {
        fill-rule: evenodd;
      }

      .cls-2 {
        fill: #1a87c7;
      }

      .cls-3 {
        fill: #bdedf8;
      }

      .cls-4 {
        fill: #66ceef;
      }
    </style>
  </defs>
  <g id="_Layer_" data-name="&amp;lt;Layer&amp;gt;">
    <g>
      <path class="cls-4" d="M17.66,11.44l-1.86-1.08c.26.16,3.59.09,5.42-1.67.45-.44,2.83-3.49,2.38-3.82l-.42-.24c2.83,1.62,2.86.98,1.44,3.16-1.81,2.8-3.51,3.74-6.89,3.68l-.08-.02Z"/>
      <path class="cls-2" d="M17.79,11.16c3.22.06,4.82-.81,6.58-3.54.13-.2.26-.38.37-.54.26-.42.52-.81.5-.92-.03-.11-.45-.33-.89-.57-.13-.07-.29-.15-.45-.23-.42,1.13-2.25,3.33-2.46,3.55-1.26,1.21-3.15,1.67-4.46,1.78l.81.46h0ZM18.05,11.78c-.11,0-.21,0-.31,0-.03,0-.05,0-.08-.01l-.08-.02s-.05-.02-.05-.03l-1.89-1.08c-.16-.08-.21-.27-.1-.42.08-.15.26-.2.39-.12.29.08,3.38.02,5.06-1.62.52-.51,2.25-2.8,2.36-3.4l-.29-.18c-.16-.09-.21-.28-.13-.42.1-.15.29-.19.42-.11.52.3.94.52,1.28.69.73.39,1.1.59,1.21.96.1.38-.13.72-.6,1.41-.11.16-.21.33-.34.53-1.83,2.83-3.59,3.82-6.84,3.82Z"/>
      <path class="cls-4" d="M13.33,13.48l-1.89-1.08c.71.42-3.51,4.13-4.14,4.52-1.39.86-2.31.59-3.64-.1,3.9,2.25,4.64,3.07,9.62-2.78l.05-.56Z"/>
      <path class="cls-2" d="M5.97,17.75c2.15,1.03,3.3.5,7-3.84l.03-.27-1.26-.73c-.63,1.29-3.85,4-4.27,4.26-.55.34-1.02.51-1.49.57h0ZM7.62,18.81c-1.05,0-2.12-.57-3.62-1.44l-.47-.29c-.16-.08-.21-.27-.13-.41.08-.15.26-.2.42-.12,1.34.7,2.07.87,3.3.11.71-.43,3.93-3.35,4.09-4.06-.08-.1-.08-.24-.03-.35.11-.15.29-.2.42-.11l1.89,1.08c.11.06.16.18.16.3l-.05.56c-.03.06-.05.12-.08.17-2.83,3.33-4.35,4.57-5.89,4.57Z"/>
      <path class="cls-3" d="M25.39.31h-.45C21.33.68,1.44,11.81,1.28,15.17c-.08,1.29-.13,5.15.31,6.73.52,1.87,1.47,2.1,3.14,3.07-1.39-1.1-1.57-2.88-1.6-4.58,0-.99-.16-4.08.16-4.72C4.98,12.15,24.71.66,27.43,1.43l.16.06-2.2-1.17Z"/>
      <path class="cls-2" d="M25.31.62h-.37C21.67.95,1.73,12,1.57,15.18c-.05,1.33-.13,5.12.31,6.63.34,1.16.84,1.63,1.62,2.1-.52-1.04-.65-2.29-.65-3.53l-.03-.59c-.05-1.85-.05-3.71.21-4.27C4.56,12.33,21.25,2.32,26.38,1.19l-1.07-.57h0ZM4.74,25.27c-.05,0-.1-.01-.13-.04-.26-.15-.5-.28-.73-.4-1.26-.69-2.1-1.14-2.59-2.85-.52-1.91-.31-6.77-.31-6.82C1.15,11.33,21.72.33,24.89.01h.5s.1,0,.13.03l2.23,1.17c.13.08.18.25.13.4-.08.15-.24.22-.39.16l-.16-.06C24.71.98,5.13,12.55,3.59,15.79c-.24.48-.18,2.94-.16,3.99l.03.59c.03,1.93.29,3.4,1.47,4.35.13.1.16.28.08.41-.05.09-.16.14-.26.14Z"/>
      <path class="cls-1" d="M5.53,17.46c2.12-4.02,5.61-4.99,7.81-3.98.08.03.11.12.08.23,0,.12-.05.24-.13.33-4.17,4.72-5.37,5.18-7.73,3.86-.05-.03-.08-.09-.08-.18s.03-.18.05-.27h0ZM25.47,5.95c.05.03.08.1.08.19s-.03.18-.08.27c-2.36,4.05-3.56,4.98-7.73,5.05-.08,0-.13-.06-.13-.16-.03-.11,0-.23.08-.34,2.2-3.55,5.68-6.6,7.78-5.02h0ZM15.51,18.27c2.23-1.29,2.7.56,7.28-2.08,3.41-1.97,5.08-6.13,5.08-10.08V1.98c0-1.91-6.18,1.08-12.37,4.71-6.18,3.51-12.37,7.66-12.37,9.56v4.13c0,3.94,1.68,6.17,5.08,4.2,4.58-2.64,5.06-5.03,7.28-6.32h0Z"/>
      <path class="cls-2" d="M25.28,6.2h.03-.03ZM24.18,5.83c-.16,0-.31.02-.47.05-1.7.32-4.01,2.43-5.76,5.26,0,0,0,.02-.03.02,3.77-.09,4.95-.91,7.28-4.9,0-.03.03-.07.03-.1-.29-.22-.65-.33-1.05-.33h0ZM17.74,11.77c-.24,0-.42-.18-.45-.43-.03-.18.03-.37.13-.53,1.41-2.28,3.88-5.1,6.18-5.54.79-.15,1.47,0,2.07.43h0c.05.06.18.19.18.45,0,.14-.05.28-.13.41-2.36,4.03-3.61,5.14-7.99,5.21h0ZM5.79,17.68c2.1,1.15,3.2.78,7.26-3.84.03-.03.05-.08.05-.12-2.1-.89-5.32.15-7.28,3.89-.03.03-.03.05-.03.08h0ZM7.52,18.86c-.65,0-1.34-.25-2.12-.69-.08-.05-.24-.17-.24-.43,0-.14.03-.28.1-.42h0c2.17-4.13,5.84-5.2,8.2-4.12.18.09.29.29.26.55-.03.18-.11.36-.21.5-2.91,3.3-4.45,4.61-6,4.61h0ZM27.06,1.69c-1.26,0-4.74,1.37-11.4,5.27-7.52,4.28-12.21,7.84-12.21,9.3v4.13c0,2.25.55,3.8,1.55,4.37.76.45,1.81.3,3.09-.44,2.62-1.53,3.9-2.99,4.93-4.16.73-.86,1.36-1.6,2.33-2.15h0c.97-.56,1.65-.57,2.38-.57h.08c1,0,2.23-.02,4.82-1.51,3.64-2.1,4.93-6.44,4.93-9.81V1.98c0-.15-.05-.19-.1-.22-.08-.05-.21-.08-.39-.08h0ZM5.97,25.62c-.47,0-.89-.11-1.28-.34-1.21-.69-1.83-2.43-1.83-4.91v-4.13c0-2.37,7.83-7.17,12.5-9.83C20.2,3.58,26.28.38,27.77,1.23c.18.11.42.32.42.75v4.13c0,3.54-1.39,8.11-5.24,10.34-2.72,1.57-4.06,1.59-5.14,1.59h-.08c-.68,0-1.26.01-2.07.49h0c-.89.5-1.49,1.21-2.2,2.02-1.05,1.21-2.33,2.71-5.08,4.29-.89.52-1.7.77-2.41.77Z"/>
      <path class="cls-1" d="M1.94,40.67c.39,0,.81-.09,1.13-.27.32-.18.47-.42.47-.66s-.16-.48-.47-.66c-.31-.18-.73-.27-1.13-.27-.42,0-.84.09-1.15.27-.31.18-.47.42-.47.66s.16.47.47.66c.31.18.73.27,1.15.27Z"/>
      <path class="cls-2" d="M1.94,39.11c-.39,0-.73.08-1,.23-.21.12-.32.26-.32.39s.11.28.32.39c.5.29,1.47.29,1.96,0,.21-.12.31-.26.31-.39s-.11-.27-.31-.39c-.24-.15-.6-.23-.97-.23h0ZM1.94,40.98c-.5,0-.94-.11-1.31-.32-.39-.23-.63-.56-.63-.92s.23-.7.63-.93c.71-.41,1.89-.41,2.59,0,.39.23.63.56.63.92s-.23.69-.63.93c-.34.2-.81.31-1.28.31Z"/>
      <path class="cls-3" d="M3.54,39.75V12.57c-.03.53-.71.79-1.15.87-.45.07-.89.05-1.31-.1-.26-.1-.52-.25-.68-.5-.05-.09-.08-.17-.08-.26v27.18c.03.2.13.36.26.49.26.21.55.32.86.37.5.09,1.05.05,1.49-.16.29-.14.58-.36.6-.7Z"/>
      <path class="cls-2" d="M.63,13.46v26.28s.03.14.16.26c.18.14.39.24.71.3.47.08.94.03,1.34-.14.23-.13.39-.27.39-.43V13.46c-.24.14-.5.23-.79.28-.5.08-1.02.04-1.47-.12-.13-.05-.24-.1-.34-.16h0ZM1.94,40.96c-.18,0-.37-.02-.58-.05-.39-.08-.73-.23-.97-.44-.24-.21-.37-.45-.39-.71V12.57c0-.17.13-.3.31-.31.18-.03.31.13.31.29,0,.05,0,.08.03.13.1.14.26.26.52.36.34.12.76.15,1.15.09.42-.07.89-.29.89-.58.03-.17.13-.31.31-.29.18,0,.31.14.31.31v27.2c-.03.27-.16.66-.76.96-.34.16-.76.24-1.15.24Z"/>
      <path class="cls-3" d="M1.94,13.48c.39,0,.81-.09,1.13-.27.32-.18.47-.42.47-.66s-.16-.48-.47-.66c-.31-.18-.73-.27-1.13-.27-.42,0-.84.09-1.15.27-.31.18-.47.42-.47.66s.16.48.47.66c.31.18.73.27,1.15.27Z"/>
      <path class="cls-2" d="M1.94,11.92c-.39,0-.73.09-1,.23-.21.12-.32.26-.32.39s.11.28.32.39c.5.29,1.47.29,1.96,0,.21-.12.31-.26.31-.39s-.11-.27-.31-.39c-.24-.15-.6-.23-.97-.23h0ZM1.94,13.78c-.5,0-.94-.11-1.31-.31-.39-.23-.63-.57-.63-.93s.23-.69.63-.92c.71-.4,1.89-.41,2.59,0,.39.23.63.56.63.92s-.23.7-.63.93c-.34.2-.81.31-1.28.31Z"/>
      <path class="cls-4" d="M1.47,40.62V13.44c-.13-.02-.26-.06-.39-.1-.26-.1-.52-.25-.68-.5-.05-.09-.08-.17-.08-.26v27.18c.03.2.13.36.26.49.26.21.55.32.86.37h.03Z"/>
      <path class="cls-2" d="M.63,13.46v26.28s.03.14.16.26c.1.08.24.15.37.21V13.68c-.05-.02-.11-.04-.18-.06-.13-.05-.24-.1-.34-.16h0ZM1.47,40.92s-.03,0-.05,0h-.03c-.42-.09-.76-.23-1-.45-.24-.21-.37-.45-.39-.71V12.57c0-.17.13-.3.31-.31.18-.03.31.13.31.29,0,.05,0,.08.03.13.1.14.26.26.52.36.11.04.23.07.34.09.16.03.26.15.26.3v27.18c0,.09-.05.18-.11.23-.08.05-.13.07-.21.07Z"/>
    </g>
  </g>
</svg>