<svg xmlns="http://www.w3.org/2000/svg" xmlns:xlink="http://www.w3.org/1999/xlink" width="500" zoomAndPan="magnify" viewBox="0 0 375 374.999991" height="500" preserveAspectRatio="xMidYMid meet" version="1.0"><defs><g/><clipPath id="e3282c85d7"><path d="M 5.78125 5.78125 L 369.53125 5.78125 L 369.53125 369.53125 L 5.78125 369.53125 Z M 5.78125 5.78125 " clip-rule="nonzero"/></clipPath></defs><path fill="currentColor" d="M 187.65625 281.527344 C 189.191406 281.527344 190.726562 281.488281 192.261719 281.414062 C 193.796875 281.335938 195.328125 281.222656 196.855469 281.074219 C 198.382812 280.921875 199.910156 280.734375 201.429688 280.507812 C 202.949219 280.285156 204.460938 280.023438 205.96875 279.722656 C 207.476562 279.421875 208.972656 279.085938 210.464844 278.710938 C 211.953125 278.339844 213.433594 277.929688 214.902344 277.484375 C 216.375 277.039062 217.832031 276.554688 219.277344 276.039062 C 220.726562 275.519531 222.15625 274.96875 223.578125 274.378906 C 224.996094 273.792969 226.402344 273.167969 227.789062 272.511719 C 229.179688 271.855469 230.550781 271.164062 231.90625 270.441406 C 233.261719 269.71875 234.597656 268.960938 235.914062 268.171875 C 237.230469 267.378906 238.527344 266.558594 239.804688 265.707031 C 241.082031 264.851562 242.339844 263.96875 243.574219 263.050781 C 244.808594 262.136719 246.019531 261.191406 247.207031 260.21875 C 248.394531 259.242188 249.554688 258.238281 250.695312 257.207031 C 251.832031 256.175781 252.945312 255.117188 254.03125 254.03125 C 255.117188 252.945312 256.175781 251.832031 257.207031 250.695312 C 258.238281 249.554688 259.242188 248.394531 260.21875 247.207031 C 261.191406 246.019531 262.136719 244.808594 263.050781 243.574219 C 263.96875 242.339844 264.851562 241.082031 265.707031 239.804688 C 266.558594 238.527344 267.378906 237.230469 268.171875 235.914062 C 268.960938 234.597656 269.71875 233.261719 270.441406 231.90625 C 271.164062 230.550781 271.855469 229.179688 272.511719 227.789062 C 273.167969 226.402344 273.792969 224.996094 274.378906 223.578125 C 274.96875 222.15625 275.519531 220.726562 276.039062 219.277344 C 276.554688 217.832031 277.039062 216.375 277.484375 214.902344 C 277.929688 213.433594 278.339844 211.953125 278.710938 210.464844 C 279.085938 208.972656 279.421875 207.476562 279.722656 205.96875 C 280.023438 204.460938 280.285156 202.949219 280.507812 201.429688 C 280.734375 199.910156 280.921875 198.382812 281.074219 196.855469 C 281.222656 195.328125 281.335938 193.796875 281.414062 192.261719 C 281.488281 190.726562 281.527344 189.191406 281.527344 187.65625 C 281.527344 186.117188 281.488281 184.582031 281.414062 183.046875 C 281.335938 181.515625 281.222656 179.984375 281.074219 178.453125 C 280.921875 176.925781 280.734375 175.402344 280.507812 173.882812 C 280.285156 172.359375 280.023438 170.847656 279.722656 169.339844 C 279.421875 167.835938 279.085938 166.335938 278.710938 164.847656 C 278.339844 163.355469 277.929688 161.875 277.484375 160.40625 C 277.039062 158.933594 276.554688 157.476562 276.039062 156.03125 C 275.519531 154.585938 274.96875 153.152344 274.378906 151.730469 C 273.792969 150.3125 273.167969 148.910156 272.511719 147.519531 C 271.855469 146.132812 271.164062 144.757812 270.441406 143.402344 C 269.71875 142.050781 268.960938 140.714844 268.171875 139.394531 C 267.378906 138.078125 266.558594 136.78125 265.707031 135.503906 C 264.851562 134.226562 263.96875 132.96875 263.050781 131.734375 C 262.136719 130.5 261.191406 129.292969 260.21875 128.105469 C 259.242188 126.914062 258.238281 125.753906 257.207031 124.613281 C 256.175781 123.476562 255.117188 122.363281 254.03125 121.277344 C 252.945312 120.191406 251.832031 119.132812 250.695312 118.101562 C 249.554688 117.070312 248.394531 116.066406 247.207031 115.089844 C 246.019531 114.117188 244.808594 113.171875 243.574219 112.257812 C 242.339844 111.339844 241.082031 110.457031 239.804688 109.605469 C 238.527344 108.75 237.230469 107.929688 235.914062 107.140625 C 234.597656 106.347656 233.261719 105.59375 231.90625 104.867188 C 230.550781 104.144531 229.179688 103.453125 227.789062 102.796875 C 226.402344 102.140625 224.996094 101.515625 223.578125 100.929688 C 222.15625 100.339844 220.726562 99.789062 219.277344 99.269531 C 217.832031 98.753906 216.375 98.273438 214.902344 97.824219 C 213.433594 97.378906 211.953125 96.96875 210.464844 96.597656 C 208.972656 96.222656 207.476562 95.886719 205.96875 95.585938 C 204.460938 95.289062 202.949219 95.023438 201.429688 94.800781 C 199.910156 94.574219 198.382812 94.386719 196.855469 94.234375 C 195.328125 94.085938 193.796875 93.972656 192.261719 93.898438 C 190.726562 93.820312 189.191406 93.785156 187.65625 93.785156 C 186.117188 93.785156 184.582031 93.820312 183.046875 93.898438 C 181.515625 93.972656 179.984375 94.085938 178.453125 94.234375 C 176.925781 94.386719 175.402344 94.574219 173.882812 94.800781 C 172.359375 95.023438 170.847656 95.289062 169.339844 95.585938 C 167.835938 95.886719 166.335938 96.222656 164.847656 96.597656 C 163.355469 96.96875 161.875 97.378906 160.40625 97.824219 C 158.933594 98.273438 157.476562 98.753906 156.03125 99.269531 C 154.585938 99.789062 153.152344 100.339844 151.730469 100.929688 C 150.3125 101.515625 148.910156 102.140625 147.519531 102.796875 C 146.132812 103.453125 144.757812 104.144531 143.402344 104.867188 C 142.050781 105.59375 140.714844 106.347656 139.394531 107.140625 C 138.078125 107.929688 136.78125 108.75 135.503906 109.605469 C 134.226562 110.457031 132.96875 111.339844 131.734375 112.257812 C 130.5 113.171875 129.292969 114.117188 128.105469 115.089844 C 126.914062 116.066406 125.753906 117.070312 124.613281 118.101562 C 123.476562 119.132812 122.363281 120.191406 121.277344 121.277344 C 120.191406 122.363281 119.132812 123.476562 118.101562 124.613281 C 117.070312 125.753906 116.066406 126.914062 115.089844 128.105469 C 114.117188 129.292969 113.171875 130.5 112.257812 131.734375 C 111.339844 132.96875 110.457031 134.226562 109.605469 135.503906 C 108.75 136.78125 107.929688 138.078125 107.140625 139.394531 C 106.347656 140.714844 105.59375 142.050781 104.867188 143.402344 C 104.144531 144.757812 103.453125 146.132812 102.796875 147.519531 C 102.140625 148.910156 101.515625 150.3125 100.929688 151.730469 C 100.339844 153.152344 99.789062 154.585938 99.269531 156.03125 C 98.753906 157.476562 98.273438 158.933594 97.824219 160.40625 C 97.378906 161.875 96.96875 163.355469 96.597656 164.847656 C 96.222656 166.335938 95.886719 167.835938 95.585938 169.339844 C 95.289062 170.847656 95.023438 172.359375 94.800781 173.882812 C 94.574219 175.402344 94.386719 176.925781 94.234375 178.453125 C 94.085938 179.984375 93.972656 181.515625 93.898438 183.046875 C 93.820312 184.582031 93.785156 186.117188 93.785156 187.65625 C 93.785156 189.191406 93.820312 190.726562 93.898438 192.261719 C 93.972656 193.796875 94.085938 195.328125 94.234375 196.855469 C 94.386719 198.382812 94.574219 199.910156 94.800781 201.429688 C 95.023438 202.949219 95.289062 204.460938 95.585938 205.96875 C 95.886719 207.476562 96.222656 208.972656 96.597656 210.464844 C 96.96875 211.953125 97.378906 213.433594 97.824219 214.902344 C 98.273438 216.375 98.753906 217.832031 99.269531 219.277344 C 99.789062 220.726562 100.339844 222.15625 100.929688 223.578125 C 101.515625 224.996094 102.140625 226.402344 102.796875 227.789062 C 103.453125 229.179688 104.144531 230.550781 104.867188 231.90625 C 105.59375 233.261719 106.347656 234.597656 107.140625 235.914062 C 107.929688 237.230469 108.75 238.527344 109.605469 239.804688 C 110.457031 241.082031 111.339844 242.339844 112.257812 243.574219 C 113.171875 244.808594 114.117188 246.019531 115.089844 247.207031 C 116.066406 248.394531 117.070312 249.554688 118.101562 250.695312 C 119.132812 251.832031 120.191406 252.945312 121.277344 254.03125 C 122.363281 255.117188 123.476562 256.175781 124.613281 257.207031 C 125.753906 258.238281 126.914062 259.242188 128.105469 260.21875 C 129.292969 261.191406 130.5 262.136719 131.734375 263.050781 C 132.96875 263.96875 134.226562 264.851562 135.503906 265.707031 C 136.78125 266.558594 138.078125 267.378906 139.394531 268.171875 C 140.714844 268.960938 142.050781 269.71875 143.402344 270.441406 C 144.757812 271.164062 146.132812 271.855469 147.519531 272.511719 C 148.910156 273.167969 150.3125 273.792969 151.730469 274.378906 C 153.152344 274.96875 154.585938 275.519531 156.03125 276.039062 C 157.476562 276.554688 158.933594 277.039062 160.40625 277.484375 C 161.875 277.929688 163.355469 278.339844 164.847656 278.710938 C 166.335938 279.085938 167.835938 279.421875 169.339844 279.722656 C 170.847656 280.023438 172.359375 280.285156 173.882812 280.507812 C 175.402344 280.734375 176.925781 280.921875 178.453125 281.074219 C 179.984375 281.222656 181.515625 281.335938 183.046875 281.414062 C 184.582031 281.488281 186.117188 281.527344 187.65625 281.527344 Z M 187.65625 105.515625 C 189 105.515625 190.34375 105.550781 191.683594 105.617188 C 193.027344 105.683594 194.367188 105.78125 195.707031 105.914062 C 197.042969 106.042969 198.378906 106.210938 199.707031 106.40625 C 201.035156 106.605469 202.359375 106.832031 203.679688 107.097656 C 204.996094 107.359375 206.308594 107.652344 207.613281 107.980469 C 208.917969 108.304688 210.210938 108.664062 211.496094 109.054688 C 212.785156 109.445312 214.058594 109.867188 215.324219 110.320312 C 216.589844 110.773438 217.84375 111.253906 219.085938 111.769531 C 220.328125 112.285156 221.558594 112.828125 222.773438 113.402344 C 223.988281 113.976562 225.1875 114.582031 226.375 115.214844 C 227.558594 115.851562 228.730469 116.511719 229.882812 117.203125 C 231.035156 117.894531 232.167969 118.613281 233.289062 119.359375 C 234.40625 120.105469 235.503906 120.878906 236.582031 121.679688 C 237.664062 122.480469 238.722656 123.308594 239.761719 124.160156 C 240.800781 125.015625 241.820312 125.890625 242.816406 126.796875 C 243.8125 127.699219 244.785156 128.625 245.734375 129.574219 C 246.683594 130.527344 247.613281 131.5 248.515625 132.496094 C 249.417969 133.492188 250.292969 134.507812 251.148438 135.546875 C 252 136.585938 252.828125 137.644531 253.628906 138.726562 C 254.429688 139.804688 255.203125 140.902344 255.949219 142.023438 C 256.695312 143.140625 257.414062 144.273438 258.105469 145.425781 C 258.796875 146.582031 259.460938 147.75 260.09375 148.933594 C 260.726562 150.121094 261.332031 151.320312 261.90625 152.535156 C 262.480469 153.75 263.023438 154.980469 263.539062 156.222656 C 264.054688 157.464844 264.539062 158.71875 264.992188 159.984375 C 265.441406 161.25 265.863281 162.523438 266.253906 163.8125 C 266.644531 165.097656 267.003906 166.394531 267.332031 167.695312 C 267.65625 169 267.953125 170.3125 268.214844 171.628906 C 268.476562 172.949219 268.707031 174.273438 268.902344 175.601562 C 269.101562 176.933594 269.265625 178.265625 269.394531 179.605469 C 269.527344 180.941406 269.625 182.28125 269.691406 183.625 C 269.757812 184.96875 269.792969 186.308594 269.792969 187.65625 C 269.792969 189 269.757812 190.34375 269.691406 191.683594 C 269.625 193.027344 269.527344 194.367188 269.394531 195.707031 C 269.265625 197.042969 269.101562 198.378906 268.902344 199.707031 C 268.707031 201.035156 268.476562 202.359375 268.214844 203.679688 C 267.953125 204.996094 267.65625 206.308594 267.332031 207.613281 C 267.003906 208.917969 266.644531 210.210938 266.253906 211.496094 C 265.863281 212.785156 265.441406 214.058594 264.992188 215.324219 C 264.539062 216.589844 264.054688 217.84375 263.539062 219.085938 C 263.023438 220.328125 262.480469 221.558594 261.90625 222.773438 C 261.332031 223.988281 260.726562 225.1875 260.09375 226.375 C 259.460938 227.558594 258.796875 228.730469 258.105469 229.882812 C 257.414062 231.035156 256.695312 232.167969 255.949219 233.289062 C 255.203125 234.40625 254.429688 235.503906 253.628906 236.582031 C 252.828125 237.664062 252 238.722656 251.148438 239.761719 C 250.292969 240.800781 249.417969 241.820312 248.515625 242.816406 C 247.613281 243.8125 246.683594 244.785156 245.734375 245.734375 C 244.785156 246.683594 243.8125 247.613281 242.816406 248.515625 C 241.820312 249.417969 240.800781 250.292969 239.761719 251.148438 C 238.722656 252 237.664062 252.828125 236.582031 253.628906 C 235.503906 254.429688 234.40625 255.203125 233.289062 255.949219 C 232.167969 256.695312 231.035156 257.414062 229.882812 258.105469 C 228.730469 258.796875 227.558594 259.460938 226.375 260.09375 C 225.1875 260.726562 223.988281 261.332031 222.773438 261.90625 C 221.558594 262.480469 220.328125 263.023438 219.085938 263.539062 C 217.84375 264.054688 216.589844 264.539062 215.324219 264.992188 C 214.058594 265.441406 212.785156 265.863281 211.496094 266.253906 C 210.210938 266.644531 208.917969 267.003906 207.613281 267.332031 C 206.308594 267.65625 204.996094 267.953125 203.679688 268.214844 C 202.359375 268.476562 201.035156 268.707031 199.707031 268.902344 C 198.378906 269.101562 197.042969 269.265625 195.707031 269.394531 C 194.367188 269.527344 193.027344 269.625 191.683594 269.691406 C 190.34375 269.757812 189 269.792969 187.65625 269.792969 C 186.308594 269.792969 184.96875 269.757812 183.625 269.691406 C 182.28125 269.625 180.941406 269.527344 179.605469 269.394531 C 178.265625 269.265625 176.933594 269.101562 175.601562 268.902344 C 174.273438 268.707031 172.949219 268.476562 171.628906 268.214844 C 170.3125 267.953125 169 267.65625 167.695312 267.332031 C 166.394531 267.003906 165.097656 266.644531 163.8125 266.253906 C 162.523438 265.863281 161.25 265.441406 159.984375 264.992188 C 158.71875 264.539062 157.464844 264.054688 156.222656 263.539062 C 154.980469 263.023438 153.75 262.480469 152.535156 261.90625 C 151.320312 261.332031 150.121094 260.726562 148.933594 260.09375 C 147.75 259.460938 146.582031 258.796875 145.429688 258.105469 C 144.273438 257.414062 143.140625 256.695312 142.023438 255.949219 C 140.902344 255.203125 139.804688 254.429688 138.726562 253.628906 C 137.644531 252.828125 136.585938 252 135.546875 251.148438 C 134.507812 250.292969 133.492188 249.417969 132.496094 248.515625 C 131.5 247.613281 130.527344 246.683594 129.574219 245.734375 C 128.625 244.785156 127.699219 243.8125 126.796875 242.816406 C 125.890625 241.820312 125.015625 240.800781 124.160156 239.761719 C 123.308594 238.722656 122.480469 237.664062 121.679688 236.582031 C 120.878906 235.503906 120.105469 234.40625 119.359375 233.289062 C 118.613281 232.167969 117.894531 231.035156 117.203125 229.882812 C 116.511719 228.730469 115.851562 227.558594 115.214844 226.375 C 114.582031 225.1875 113.976562 223.988281 113.402344 222.773438 C 112.828125 221.558594 112.285156 220.328125 111.769531 219.085938 C 111.253906 217.84375 110.773438 216.589844 110.320312 215.324219 C 109.867188 214.058594 109.445312 212.785156 109.054688 211.496094 C 108.664062 210.210938 108.304688 208.917969 107.980469 207.613281 C 107.652344 206.308594 107.359375 204.996094 107.097656 203.679688 C 106.832031 202.359375 106.605469 201.035156 106.40625 199.707031 C 106.210938 198.378906 106.042969 197.042969 105.914062 195.707031 C 105.78125 194.367188 105.683594 193.027344 105.617188 191.683594 C 105.550781 190.34375 105.515625 189 105.515625 187.65625 C 105.515625 186.308594 105.550781 184.96875 105.617188 183.625 C 105.683594 182.28125 105.78125 180.941406 105.914062 179.605469 C 106.042969 178.265625 106.210938 176.933594 106.40625 175.601562 C 106.605469 174.273438 106.832031 172.949219 107.097656 171.628906 C 107.359375 170.3125 107.652344 169 107.980469 167.695312 C 108.304688 166.394531 108.664062 165.097656 109.054688 163.8125 C 109.445312 162.523438 109.867188 161.25 110.320312 159.984375 C 110.773438 158.71875 111.253906 157.464844 111.769531 156.222656 C 112.285156 154.980469 112.828125 153.75 113.402344 152.535156 C 113.976562 151.320312 114.582031 150.121094 115.214844 148.933594 C 115.851562 147.75 116.511719 146.582031 117.203125 145.429688 C 117.894531 144.273438 118.613281 143.140625 119.359375 142.023438 C 120.105469 140.902344 120.878906 139.804688 121.679688 138.726562 C 122.480469 137.644531 123.308594 136.585938 124.160156 135.546875 C 125.015625 134.507812 125.890625 133.492188 126.796875 132.496094 C 127.699219 131.5 128.625 130.527344 129.574219 129.574219 C 130.527344 128.625 131.5 127.699219 132.496094 126.796875 C 133.492188 125.890625 134.507812 125.015625 135.546875 124.160156 C 136.585938 123.308594 137.644531 122.480469 138.726562 121.679688 C 139.804688 120.878906 140.902344 120.105469 142.023438 119.359375 C 143.140625 118.613281 144.273438 117.894531 145.429688 117.203125 C 146.582031 116.511719 147.75 115.851562 148.933594 115.214844 C 150.121094 114.582031 151.320312 113.976562 152.535156 113.402344 C 153.75 112.828125 154.980469 112.285156 156.222656 111.769531 C 157.464844 111.253906 158.71875 110.773438 159.984375 110.320312 C 161.25 109.867188 162.523438 109.445312 163.8125 109.054688 C 165.097656 108.664062 166.394531 108.304688 167.695312 107.980469 C 169 107.652344 170.3125 107.359375 171.628906 107.097656 C 172.949219 106.832031 174.273438 106.605469 175.601562 106.40625 C 176.933594 106.210938 178.265625 106.042969 179.605469 105.914062 C 180.941406 105.78125 182.28125 105.683594 183.625 105.617188 C 184.96875 105.550781 186.308594 105.515625 187.65625 105.515625 Z M 187.65625 105.515625 " fill-opacity="1" fill-rule="nonzero"/><g clip-path="url(#e3282c85d7)"><path fill="currentColor" d="M 10.238281 193.523438 L 60.226562 206.019531 C 61.75 206.398438 63.199219 206.96875 64.570312 207.738281 C 65.941406 208.503906 67.1875 209.4375 68.308594 210.539062 C 69.433594 211.640625 70.390625 212.871094 71.179688 214.226562 C 71.972656 215.582031 72.574219 217.023438 72.980469 218.539062 C 73.386719 220.058594 73.585938 221.601562 73.582031 223.171875 C 73.574219 224.746094 73.359375 226.289062 72.941406 227.804688 C 72.519531 229.316406 71.910156 230.75 71.105469 232.101562 C 70.300781 233.449219 69.335938 234.671875 68.203125 235.761719 L 31.125 271.433594 C 30.632812 271.890625 30.234375 272.417969 29.921875 273.011719 C 29.609375 273.605469 29.40625 274.234375 29.3125 274.898438 C 29.21875 275.5625 29.234375 276.222656 29.367188 276.878906 C 29.5 277.539062 29.734375 278.15625 30.078125 278.730469 C 30.421875 279.308594 30.851562 279.808594 31.367188 280.238281 C 31.882812 280.667969 32.453125 281 33.082031 281.230469 C 33.710938 281.464844 34.363281 281.585938 35.03125 281.597656 C 35.703125 281.605469 36.355469 281.503906 36.992188 281.289062 L 86.566406 267.152344 C 88.078125 266.71875 89.617188 266.492188 91.1875 266.472656 C 92.757812 266.453125 94.300781 266.640625 95.824219 267.03125 C 97.34375 267.425781 98.785156 268.011719 100.148438 268.792969 C 101.511719 269.570312 102.75 270.515625 103.859375 271.625 C 104.96875 272.738281 105.914062 273.972656 106.691406 275.335938 C 107.472656 276.699219 108.058594 278.140625 108.453125 279.664062 C 108.847656 281.183594 109.03125 282.726562 109.011719 284.296875 C 108.992188 285.867188 108.765625 287.410156 108.332031 288.917969 L 93.785156 338.492188 C 93.605469 339.121094 93.53125 339.761719 93.566406 340.414062 C 93.601562 341.066406 93.738281 341.695312 93.984375 342.300781 C 94.226562 342.90625 94.566406 343.457031 94.992188 343.949219 C 95.421875 344.445312 95.917969 344.855469 96.484375 345.183594 C 97.050781 345.511719 97.652344 345.738281 98.296875 345.863281 C 98.9375 345.988281 99.585938 346.007812 100.234375 345.914062 C 100.882812 345.824219 101.496094 345.632812 102.082031 345.335938 C 102.664062 345.039062 103.183594 344.65625 103.640625 344.183594 L 139.488281 307.105469 C 140.578125 305.976562 141.800781 305.007812 143.148438 304.203125 C 144.5 303.398438 145.933594 302.789062 147.449219 302.367188 C 148.960938 301.949219 150.503906 301.734375 152.078125 301.726562 C 153.648438 301.722656 155.191406 301.921875 156.710938 302.328125 C 158.230469 302.734375 159.667969 303.335938 161.023438 304.128906 C 162.382812 304.921875 163.609375 305.878906 164.710938 307 C 165.8125 308.121094 166.746094 309.367188 167.511719 310.738281 C 168.28125 312.109375 168.851562 313.558594 169.234375 315.085938 L 181.789062 365.070312 C 181.945312 365.703125 182.203125 366.296875 182.5625 366.84375 C 182.917969 367.390625 183.355469 367.867188 183.871094 368.269531 C 184.386719 368.671875 184.953125 368.980469 185.570312 369.191406 C 186.1875 369.40625 186.824219 369.511719 187.480469 369.511719 C 188.132812 369.511719 188.769531 369.40625 189.386719 369.191406 C 190.003906 368.980469 190.574219 368.671875 191.085938 368.269531 C 191.601562 367.867188 192.039062 367.390625 192.394531 366.84375 C 192.753906 366.296875 193.011719 365.703125 193.167969 365.070312 L 205.667969 315.085938 C 206.046875 313.558594 206.617188 312.109375 207.386719 310.738281 C 208.152344 309.367188 209.085938 308.121094 210.1875 307 C 211.289062 305.878906 212.515625 304.921875 213.875 304.128906 C 215.230469 303.335938 216.667969 302.734375 218.1875 302.328125 C 219.707031 301.921875 221.25 301.722656 222.820312 301.726562 C 224.394531 301.734375 225.9375 301.949219 227.449219 302.367188 C 228.964844 302.789062 230.398438 303.398438 231.75 304.203125 C 233.097656 305.007812 234.320312 305.976562 235.410156 307.105469 L 271.257812 344.183594 C 271.714844 344.65625 272.234375 345.039062 272.816406 345.335938 C 273.402344 345.632812 274.015625 345.824219 274.664062 345.917969 C 275.3125 346.007812 275.960938 345.988281 276.601562 345.863281 C 277.246094 345.738281 277.847656 345.511719 278.417969 345.183594 C 279.019531 344.886719 279.554688 344.5 280.023438 344.019531 C 280.492188 343.539062 280.871094 342.996094 281.152344 342.386719 C 281.4375 341.777344 281.609375 341.140625 281.671875 340.472656 C 281.738281 339.804688 281.6875 339.144531 281.527344 338.492188 L 267.386719 288.917969 C 266.953125 287.410156 266.726562 285.867188 266.707031 284.296875 C 266.6875 282.726562 266.875 281.183594 267.265625 279.664062 C 267.660156 278.140625 268.246094 276.699219 269.027344 275.335938 C 269.804688 273.972656 270.75 272.738281 271.859375 271.625 C 272.972656 270.515625 274.207031 269.570312 275.570312 268.792969 C 276.933594 268.011719 278.375 267.425781 279.898438 267.03125 C 281.417969 266.640625 282.960938 266.453125 284.53125 266.472656 C 286.101562 266.492188 287.644531 266.71875 289.152344 267.152344 L 338.492188 281.527344 C 339.128906 281.738281 339.78125 281.839844 340.453125 281.832031 C 341.125 281.820312 341.773438 281.699219 342.402344 281.46875 C 343.03125 281.234375 343.601562 280.902344 344.117188 280.472656 C 344.632812 280.042969 345.0625 279.542969 345.40625 278.964844 C 345.75 278.390625 345.988281 277.773438 346.117188 277.113281 C 346.25 276.457031 346.265625 275.796875 346.171875 275.132812 C 346.078125 274.46875 345.875 273.839844 345.5625 273.246094 C 345.253906 272.652344 344.851562 272.125 344.359375 271.667969 L 307.28125 235.820312 C 306.152344 234.730469 305.183594 233.507812 304.378906 232.160156 C 303.574219 230.808594 302.964844 229.375 302.542969 227.863281 C 302.125 226.347656 301.910156 224.804688 301.902344 223.234375 C 301.898438 221.660156 302.097656 220.117188 302.503906 218.597656 C 302.914062 217.082031 303.511719 215.640625 304.304688 214.285156 C 305.097656 212.929688 306.054688 211.699219 307.175781 210.597656 C 308.296875 209.496094 309.542969 208.5625 310.914062 207.796875 C 312.285156 207.027344 313.734375 206.457031 315.261719 206.078125 L 365.070312 193.523438 C 365.707031 193.363281 366.296875 193.105469 366.84375 192.75 C 367.390625 192.390625 367.867188 191.957031 368.269531 191.441406 C 368.671875 190.925781 368.980469 190.355469 369.191406 189.738281 C 369.40625 189.121094 369.511719 188.484375 369.511719 187.832031 C 369.511719 187.175781 369.40625 186.539062 369.191406 185.921875 C 368.980469 185.304688 368.671875 184.738281 368.269531 184.222656 C 367.867188 183.707031 367.390625 183.269531 366.84375 182.914062 C 366.296875 182.554688 365.707031 182.296875 365.070312 182.140625 L 315.085938 169.46875 C 313.558594 169.089844 312.109375 168.515625 310.738281 167.75 C 309.367188 166.980469 308.121094 166.046875 307 164.945312 C 305.878906 163.84375 304.921875 162.617188 304.128906 161.257812 C 303.335938 159.902344 302.734375 158.464844 302.328125 156.945312 C 301.921875 155.429688 301.722656 153.882812 301.726562 152.3125 C 301.734375 150.738281 301.949219 149.195312 302.367188 147.683594 C 302.789062 146.167969 303.398438 144.734375 304.203125 143.386719 C 305.007812 142.035156 305.976562 140.8125 307.105469 139.722656 L 344.183594 103.875 C 344.675781 103.417969 345.078125 102.890625 345.386719 102.296875 C 345.699219 101.703125 345.902344 101.074219 345.996094 100.410156 C 346.089844 99.746094 346.074219 99.085938 345.941406 98.429688 C 345.808594 97.769531 345.574219 97.15625 345.230469 96.578125 C 344.886719 96 344.457031 95.5 343.941406 95.070312 C 343.425781 94.640625 342.855469 94.308594 342.226562 94.078125 C 341.597656 93.84375 340.949219 93.722656 340.277344 93.710938 C 339.605469 93.703125 338.953125 93.804688 338.316406 94.019531 L 288.742188 108.15625 C 287.230469 108.589844 285.691406 108.816406 284.121094 108.835938 C 282.550781 108.855469 281.007812 108.671875 279.488281 108.277344 C 277.964844 107.882812 276.523438 107.296875 275.160156 106.515625 C 273.796875 105.738281 272.5625 104.792969 271.449219 103.683594 C 270.339844 102.574219 269.394531 101.335938 268.617188 99.972656 C 267.835938 98.609375 267.25 97.167969 266.855469 95.648438 C 266.464844 94.125 266.277344 92.582031 266.296875 91.011719 C 266.316406 89.441406 266.542969 87.902344 266.976562 86.390625 L 281.527344 36.816406 C 281.707031 36.1875 281.777344 35.546875 281.742188 34.894531 C 281.710938 34.242188 281.570312 33.613281 281.324219 33.007812 C 281.082031 32.402344 280.746094 31.851562 280.316406 31.359375 C 279.886719 30.867188 279.390625 30.453125 278.828125 30.128906 C 278.261719 29.800781 277.65625 29.570312 277.011719 29.445312 C 276.371094 29.320312 275.726562 29.304688 275.078125 29.394531 C 274.425781 29.484375 273.8125 29.675781 273.226562 29.972656 C 272.644531 30.269531 272.125 30.652344 271.667969 31.125 L 235.820312 68.203125 C 234.730469 69.335938 233.507812 70.300781 232.160156 71.105469 C 230.808594 71.910156 229.375 72.519531 227.863281 72.941406 C 226.347656 73.359375 224.804688 73.574219 223.234375 73.582031 C 221.660156 73.585938 220.117188 73.386719 218.597656 72.980469 C 217.082031 72.574219 215.640625 71.972656 214.285156 71.179688 C 212.929688 70.390625 211.699219 69.433594 210.597656 68.308594 C 209.496094 67.1875 208.5625 65.941406 207.796875 64.570312 C 207.027344 63.199219 206.457031 61.75 206.078125 60.226562 L 193.523438 10.238281 C 193.363281 9.605469 193.105469 9.011719 192.75 8.464844 C 192.390625 7.917969 191.957031 7.441406 191.441406 7.039062 C 190.925781 6.636719 190.359375 6.328125 189.738281 6.117188 C 189.121094 5.902344 188.484375 5.796875 187.832031 5.796875 C 187.175781 5.796875 186.539062 5.902344 185.921875 6.117188 C 185.304688 6.328125 184.738281 6.636719 184.222656 7.039062 C 183.707031 7.441406 183.269531 7.917969 182.914062 8.464844 C 182.554688 9.011719 182.296875 9.605469 182.140625 10.238281 L 169.46875 60.226562 C 169.089844 61.75 168.515625 63.199219 167.75 64.570312 C 166.980469 65.941406 166.046875 67.1875 164.945312 68.308594 C 163.84375 69.433594 162.617188 70.390625 161.257812 71.179688 C 159.902344 71.972656 158.464844 72.574219 156.945312 72.980469 C 155.429688 73.386719 153.882812 73.585938 152.3125 73.582031 C 150.738281 73.574219 149.195312 73.359375 147.683594 72.941406 C 146.167969 72.519531 144.734375 71.910156 143.386719 71.105469 C 142.035156 70.300781 140.8125 69.335938 139.722656 68.203125 L 103.875 31.125 C 103.417969 30.632812 102.890625 30.234375 102.296875 29.921875 C 101.703125 29.609375 101.074219 29.40625 100.410156 29.3125 C 99.746094 29.21875 99.085938 29.234375 98.429688 29.367188 C 97.769531 29.5 97.15625 29.734375 96.578125 30.078125 C 96 30.421875 95.5 30.851562 95.070312 31.367188 C 94.640625 31.882812 94.308594 32.453125 94.078125 33.082031 C 93.84375 33.710938 93.722656 34.363281 93.710938 35.03125 C 93.703125 35.703125 93.804688 36.355469 94.019531 36.992188 L 108.15625 86.566406 C 108.589844 88.078125 108.816406 89.617188 108.835938 91.1875 C 108.855469 92.757812 108.671875 94.300781 108.277344 95.824219 C 107.882812 97.34375 107.296875 98.785156 106.515625 100.148438 C 105.738281 101.511719 104.792969 102.75 103.683594 103.859375 C 102.574219 104.96875 101.335938 105.914062 99.972656 106.691406 C 98.609375 107.472656 97.167969 108.058594 95.648438 108.453125 C 94.125 108.847656 92.582031 109.03125 91.011719 109.011719 C 89.441406 108.992188 87.902344 108.765625 86.390625 108.332031 L 36.816406 93.785156 C 36.179688 93.570312 35.527344 93.46875 34.855469 93.476562 C 34.1875 93.488281 33.535156 93.609375 32.90625 93.84375 C 32.277344 94.074219 31.707031 94.40625 31.191406 94.835938 C 30.675781 95.265625 30.246094 95.765625 29.902344 96.34375 C 29.558594 96.917969 29.324219 97.535156 29.191406 98.195312 C 29.058594 98.851562 29.042969 99.511719 29.136719 100.175781 C 29.230469 100.839844 29.433594 101.46875 29.746094 102.0625 C 30.058594 102.65625 30.457031 103.183594 30.949219 103.640625 L 68.027344 139.488281 C 69.160156 140.578125 70.125 141.800781 70.929688 143.148438 C 71.734375 144.5 72.34375 145.933594 72.765625 147.449219 C 73.183594 148.960938 73.398438 150.503906 73.40625 152.078125 C 73.410156 153.648438 73.210938 155.191406 72.804688 156.710938 C 72.398438 158.230469 71.796875 159.667969 71.003906 161.023438 C 70.210938 162.382812 69.253906 163.609375 68.132812 164.710938 C 67.011719 165.8125 65.765625 166.746094 64.394531 167.511719 C 63.023438 168.28125 61.574219 168.851562 60.046875 169.234375 L 10.238281 181.789062 C 9.605469 181.945312 9.011719 182.203125 8.464844 182.5625 C 7.917969 182.917969 7.441406 183.355469 7.039062 183.871094 C 6.636719 184.386719 6.328125 184.953125 6.117188 185.570312 C 5.902344 186.1875 5.796875 186.824219 5.796875 187.480469 C 5.796875 188.132812 5.902344 188.769531 6.117188 189.386719 C 6.328125 190.003906 6.636719 190.574219 7.039062 191.085938 C 7.441406 191.601562 7.917969 192.039062 8.464844 192.394531 C 9.011719 192.753906 9.605469 193.011719 10.238281 193.167969 Z M 63.039062 181.023438 C 64.3125 180.710938 65.554688 180.3125 66.773438 179.832031 C 67.992188 179.347656 69.171875 178.789062 70.316406 178.148438 C 71.457031 177.507812 72.550781 176.796875 73.601562 176.011719 C 74.648438 175.222656 75.636719 174.371094 76.570312 173.453125 C 77.503906 172.535156 78.371094 171.558594 79.171875 170.523438 C 79.976562 169.488281 80.707031 168.402344 81.363281 167.269531 C 82.019531 166.136719 82.597656 164.96875 83.097656 163.757812 C 83.597656 162.546875 84.015625 161.308594 84.351562 160.042969 C 84.683594 158.777344 84.933594 157.492188 85.097656 156.195312 C 85.257812 154.894531 85.335938 153.589844 85.320312 152.28125 C 85.308594 150.972656 85.210938 149.667969 85.023438 148.371094 C 84.839844 147.078125 84.566406 145.796875 84.207031 144.539062 C 83.851562 143.277344 83.410156 142.050781 82.886719 140.847656 C 82.367188 139.648438 81.765625 138.488281 81.085938 137.367188 C 80.410156 136.246094 79.660156 135.175781 78.839844 134.15625 C 78.019531 133.136719 77.132812 132.175781 76.183594 131.273438 L 56.175781 111.738281 L 83.222656 119.480469 C 84.476562 119.839844 85.746094 120.113281 87.039062 120.300781 C 88.328125 120.492188 89.625 120.59375 90.925781 120.609375 C 92.230469 120.625 93.527344 120.554688 94.824219 120.398438 C 96.117188 120.242188 97.394531 120 98.65625 119.671875 C 99.917969 119.34375 101.152344 118.933594 102.359375 118.445312 C 103.566406 117.953125 104.734375 117.382812 105.867188 116.734375 C 106.996094 116.085938 108.082031 115.367188 109.117188 114.574219 C 110.152344 113.78125 111.128906 112.925781 112.050781 112.003906 C 112.972656 111.082031 113.828125 110.101562 114.617188 109.066406 C 115.40625 108.027344 116.125 106.945312 116.769531 105.8125 C 117.417969 104.679688 117.984375 103.511719 118.472656 102.300781 C 118.964844 101.09375 119.371094 99.859375 119.695312 98.597656 C 120.023438 97.335938 120.261719 96.054688 120.417969 94.761719 C 120.570312 93.46875 120.640625 92.167969 120.621094 90.867188 C 120.605469 89.5625 120.5 88.265625 120.308594 86.976562 C 120.117188 85.6875 119.839844 84.417969 119.480469 83.164062 L 111.738281 56.175781 L 131.273438 76.183594 C 132.179688 77.121094 133.140625 77.996094 134.164062 78.804688 C 135.183594 79.613281 136.253906 80.351562 137.375 81.019531 C 138.496094 81.6875 139.652344 82.277344 140.851562 82.789062 C 142.050781 83.300781 143.277344 83.734375 144.53125 84.082031 C 145.789062 84.429688 147.0625 84.695312 148.351562 84.875 C 149.644531 85.054688 150.941406 85.148438 152.246094 85.152344 C 153.546875 85.160156 154.847656 85.078125 156.140625 84.914062 C 157.433594 84.746094 158.707031 84.492188 159.96875 84.15625 C 161.226562 83.820312 162.457031 83.402344 163.660156 82.902344 C 164.863281 82.398438 166.027344 81.820312 167.15625 81.164062 C 168.28125 80.507812 169.359375 79.78125 170.386719 78.980469 C 171.417969 78.179688 172.390625 77.316406 173.304688 76.386719 C 174.21875 75.457031 175.066406 74.472656 175.847656 73.429688 C 176.628906 72.386719 177.339844 71.296875 177.976562 70.160156 C 178.613281 69.023438 179.171875 67.847656 179.65625 66.636719 C 180.136719 65.425781 180.535156 64.1875 180.847656 62.921875 L 187.65625 35.820312 L 194.460938 63.101562 C 194.78125 64.359375 195.183594 65.59375 195.671875 66.800781 C 196.15625 68.011719 196.71875 69.179688 197.363281 70.3125 C 198.003906 71.445312 198.714844 72.53125 199.503906 73.566406 C 200.289062 74.605469 201.140625 75.585938 202.054688 76.507812 C 202.972656 77.433594 203.945312 78.292969 204.976562 79.089844 C 206.007812 79.882812 207.085938 80.605469 208.214844 81.257812 C 209.339844 81.90625 210.503906 82.480469 211.707031 82.976562 C 212.910156 83.472656 214.144531 83.886719 215.402344 84.21875 C 216.660156 84.550781 217.933594 84.796875 219.226562 84.960938 C 220.515625 85.121094 221.8125 85.199219 223.113281 85.1875 C 224.417969 85.179688 225.710938 85.082031 227 84.898438 C 228.289062 84.71875 229.558594 84.449219 230.8125 84.097656 C 232.066406 83.746094 233.289062 83.3125 234.484375 82.800781 C 235.679688 82.285156 236.835938 81.691406 237.953125 81.023438 C 239.070312 80.355469 240.136719 79.617188 241.15625 78.804688 C 242.175781 77.996094 243.132812 77.121094 244.035156 76.183594 L 263.574219 56 L 255.828125 82.988281 C 255.46875 84.242188 255.191406 85.511719 255 86.800781 C 254.808594 88.089844 254.707031 89.386719 254.6875 90.691406 C 254.667969 91.992188 254.738281 93.292969 254.890625 94.585938 C 255.046875 95.878906 255.285156 97.160156 255.613281 98.421875 C 255.9375 99.683594 256.34375 100.917969 256.835938 102.125 C 257.324219 103.332031 257.894531 104.503906 258.539062 105.636719 C 259.183594 106.769531 259.902344 107.851562 260.691406 108.890625 C 261.484375 109.925781 262.339844 110.90625 263.257812 111.828125 C 264.179688 112.75 265.160156 113.605469 266.195312 114.398438 C 267.230469 115.191406 268.3125 115.910156 269.441406 116.558594 C 270.574219 117.207031 271.742188 117.777344 272.949219 118.265625 C 274.15625 118.757812 275.390625 119.167969 276.652344 119.496094 C 277.914062 119.824219 279.191406 120.066406 280.488281 120.222656 C 281.78125 120.378906 283.078125 120.449219 284.382812 120.433594 C 285.6875 120.417969 286.980469 120.316406 288.273438 120.125 C 289.5625 119.9375 290.832031 119.664062 292.085938 119.304688 L 319.132812 111.558594 L 299.125 131.273438 C 298.1875 132.179688 297.3125 133.140625 296.503906 134.164062 C 295.695312 135.183594 294.957031 136.253906 294.289062 137.375 C 293.621094 138.496094 293.03125 139.652344 292.519531 140.851562 C 292.007812 142.050781 291.578125 143.277344 291.226562 144.53125 C 290.878906 145.789062 290.613281 147.0625 290.433594 148.351562 C 290.253906 149.644531 290.164062 150.941406 290.15625 152.246094 C 290.148438 153.546875 290.230469 154.847656 290.398438 156.140625 C 290.5625 157.433594 290.816406 158.707031 291.152344 159.96875 C 291.488281 161.226562 291.90625 162.457031 292.410156 163.660156 C 292.910156 164.863281 293.488281 166.027344 294.144531 167.15625 C 294.800781 168.28125 295.527344 169.359375 296.328125 170.386719 C 297.128906 171.417969 297.992188 172.390625 298.921875 173.304688 C 299.851562 174.21875 300.835938 175.066406 301.878906 175.847656 C 302.921875 176.628906 304.011719 177.339844 305.148438 177.976562 C 306.285156 178.613281 307.460938 179.171875 308.671875 179.65625 C 309.882812 180.136719 311.121094 180.535156 312.386719 180.847656 L 339.492188 187.65625 L 312.210938 194.460938 C 310.949219 194.78125 309.714844 195.183594 308.507812 195.671875 C 307.300781 196.15625 306.128906 196.71875 304.996094 197.363281 C 303.863281 198.003906 302.78125 198.714844 301.742188 199.503906 C 300.703125 200.289062 299.722656 201.140625 298.800781 202.054688 C 297.875 202.972656 297.015625 203.945312 296.222656 204.976562 C 295.425781 206.007812 294.703125 207.085938 294.054688 208.214844 C 293.402344 209.339844 292.828125 210.503906 292.332031 211.707031 C 291.835938 212.910156 291.421875 214.144531 291.089844 215.402344 C 290.757812 216.660156 290.511719 217.933594 290.347656 219.226562 C 290.1875 220.515625 290.109375 221.8125 290.121094 223.113281 C 290.128906 224.417969 290.226562 225.710938 290.410156 227 C 290.59375 228.289062 290.859375 229.558594 291.210938 230.8125 C 291.5625 232.066406 291.996094 233.289062 292.511719 234.484375 C 293.023438 235.679688 293.617188 236.835938 294.285156 237.953125 C 294.953125 239.070312 295.691406 240.136719 296.503906 241.15625 C 297.3125 242.175781 298.1875 243.132812 299.125 244.035156 L 319.308594 263.574219 L 292.085938 255.828125 C 290.832031 255.46875 289.5625 255.195312 288.273438 255.007812 C 286.980469 254.816406 285.6875 254.714844 284.382812 254.699219 C 283.078125 254.683594 281.78125 254.753906 280.488281 254.910156 C 279.191406 255.066406 277.914062 255.308594 276.652344 255.636719 C 275.390625 255.964844 274.15625 256.375 272.949219 256.867188 C 271.742188 257.359375 270.574219 257.925781 269.441406 258.574219 C 268.3125 259.222656 267.230469 259.941406 266.195312 260.734375 C 265.160156 261.527344 264.179688 262.382812 263.257812 263.304688 C 262.339844 264.226562 261.484375 265.207031 260.691406 266.246094 C 259.902344 267.28125 259.183594 268.363281 258.539062 269.496094 C 257.890625 270.628906 257.324219 271.800781 256.835938 273.007812 C 256.34375 274.214844 255.9375 275.449219 255.613281 276.710938 C 255.285156 277.972656 255.046875 279.253906 254.890625 280.546875 C 254.738281 281.839844 254.667969 283.140625 254.6875 284.441406 C 254.707031 285.746094 254.808594 287.042969 255 288.332031 C 255.191406 289.621094 255.46875 290.890625 255.828125 292.144531 L 263.574219 319.132812 L 244.035156 299.125 C 243.132812 298.1875 242.167969 297.3125 241.148438 296.503906 C 240.125 295.695312 239.054688 294.957031 237.933594 294.289062 C 236.816406 293.621094 235.65625 293.03125 234.457031 292.519531 C 233.257812 292.007812 232.03125 291.578125 230.777344 291.226562 C 229.519531 290.878906 228.246094 290.613281 226.957031 290.433594 C 225.664062 290.253906 224.367188 290.164062 223.0625 290.15625 C 221.761719 290.148438 220.460938 290.230469 219.171875 290.398438 C 217.878906 290.5625 216.601562 290.816406 215.34375 291.152344 C 214.082031 291.488281 212.851562 291.90625 211.648438 292.410156 C 210.445312 292.910156 209.28125 293.488281 208.152344 294.144531 C 207.027344 294.800781 205.949219 295.527344 204.921875 296.328125 C 203.890625 297.128906 202.921875 297.992188 202.007812 298.921875 C 201.09375 299.851562 200.246094 300.835938 199.460938 301.878906 C 198.679688 302.921875 197.96875 304.011719 197.332031 305.148438 C 196.695312 306.285156 196.136719 307.460938 195.65625 308.671875 C 195.175781 309.882812 194.777344 311.121094 194.460938 312.386719 L 187.65625 339.492188 L 180.847656 312.210938 C 180.542969 310.941406 180.152344 309.699219 179.675781 308.488281 C 179.203125 307.273438 178.648438 306.09375 178.015625 304.957031 C 177.378906 303.816406 176.671875 302.722656 175.890625 301.679688 C 175.109375 300.636719 174.261719 299.652344 173.34375 298.722656 C 172.429688 297.792969 171.453125 296.929688 170.421875 296.136719 C 169.390625 295.339844 168.308594 294.613281 167.175781 293.964844 C 166.046875 293.316406 164.878906 292.746094 163.667969 292.253906 C 162.460938 291.761719 161.226562 291.355469 159.960938 291.03125 C 157.503906 290.351562 155.003906 290 152.453125 289.972656 C 150.46875 289.972656 148.503906 290.167969 146.5625 290.570312 C 144.617188 290.972656 142.734375 291.566406 140.914062 292.351562 C 139.089844 293.140625 137.367188 294.101562 135.746094 295.242188 C 134.121094 296.386719 132.632812 297.679688 131.273438 299.125 L 111.738281 319.308594 L 119.480469 292.320312 C 119.839844 291.066406 120.117188 289.796875 120.308594 288.507812 C 120.5 287.21875 120.605469 285.921875 120.621094 284.617188 C 120.640625 283.316406 120.570312 282.015625 120.417969 280.722656 C 120.261719 279.429688 120.023438 278.152344 119.695312 276.886719 C 119.371094 275.625 118.964844 274.390625 118.472656 273.183594 C 117.984375 271.976562 117.417969 270.804688 116.769531 269.671875 C 116.125 268.542969 115.40625 267.457031 114.617188 266.421875 C 113.828125 265.382812 112.972656 264.40625 112.050781 263.480469 C 111.128906 262.558594 110.152344 261.703125 109.117188 260.910156 C 108.082031 260.117188 106.996094 259.398438 105.867188 258.75 C 104.734375 258.101562 103.566406 257.535156 102.359375 257.042969 C 101.152344 256.550781 99.917969 256.140625 98.65625 255.8125 C 97.394531 255.484375 96.117188 255.242188 94.824219 255.085938 C 93.527344 254.929688 92.230469 254.859375 90.925781 254.875 C 89.625 254.890625 88.328125 254.996094 87.039062 255.183594 C 85.746094 255.371094 84.476562 255.644531 83.222656 256.003906 L 56.175781 263.574219 L 76.183594 244.035156 C 77.121094 243.132812 77.996094 242.167969 78.804688 241.148438 C 79.613281 240.125 80.351562 239.054688 81.019531 237.933594 C 81.6875 236.816406 82.277344 235.65625 82.789062 234.457031 C 83.300781 233.257812 83.734375 232.03125 84.082031 230.777344 C 84.429688 229.519531 84.695312 228.246094 84.875 226.957031 C 85.054688 225.664062 85.148438 224.367188 85.152344 223.0625 C 85.160156 221.761719 85.078125 220.460938 84.914062 219.171875 C 84.746094 217.878906 84.492188 216.601562 84.15625 215.34375 C 83.820312 214.082031 83.402344 212.851562 82.902344 211.648438 C 82.398438 210.445312 81.820312 209.28125 81.164062 208.152344 C 80.507812 207.027344 79.78125 205.949219 78.980469 204.921875 C 78.179688 203.890625 77.316406 202.921875 76.386719 202.007812 C 75.457031 201.09375 74.472656 200.246094 73.429688 199.460938 C 72.386719 198.679688 71.296875 197.96875 70.160156 197.332031 C 69.023438 196.695312 67.847656 196.136719 66.636719 195.65625 C 65.425781 195.175781 64.1875 194.777344 62.921875 194.460938 L 35.820312 187.65625 Z M 63.039062 181.023438 " fill-opacity="1" fill-rule="nonzero"/></g><path fill="currentColor" d="M 187.65625 128.984375 C 189.574219 128.984375 191.492188 129.078125 193.40625 129.269531 C 195.316406 129.457031 197.214844 129.738281 199.101562 130.113281 C 200.984375 130.488281 202.847656 130.953125 204.683594 131.511719 C 206.523438 132.070312 208.332031 132.714844 210.105469 133.453125 C 211.882812 134.1875 213.617188 135.007812 215.3125 135.914062 C 217.003906 136.820312 218.652344 137.804688 220.25 138.871094 C 221.847656 139.941406 223.390625 141.082031 224.875 142.300781 C 226.359375 143.523438 227.78125 144.808594 229.140625 146.167969 C 230.5 147.527344 231.789062 148.949219 233.007812 150.433594 C 234.226562 151.921875 235.367188 153.460938 236.4375 155.058594 C 237.503906 156.65625 238.492188 158.304688 239.394531 160 C 240.300781 161.691406 241.121094 163.425781 241.859375 165.203125 C 242.59375 166.976562 243.238281 168.785156 243.796875 170.625 C 244.355469 172.460938 244.820312 174.324219 245.195312 176.207031 C 245.570312 178.09375 245.851562 179.992188 246.042969 181.902344 C 246.230469 183.816406 246.324219 185.734375 246.324219 187.65625 C 246.324219 188.039062 246.363281 188.421875 246.4375 188.800781 C 246.511719 189.175781 246.625 189.542969 246.769531 189.898438 C 246.917969 190.253906 247.097656 190.59375 247.3125 190.914062 C 247.527344 191.234375 247.769531 191.53125 248.042969 191.804688 C 248.316406 192.074219 248.609375 192.320312 248.929688 192.53125 C 249.25 192.746094 249.589844 192.925781 249.945312 193.074219 C 250.300781 193.222656 250.667969 193.332031 251.046875 193.410156 C 251.425781 193.484375 251.804688 193.523438 252.191406 193.523438 C 252.574219 193.523438 252.957031 193.484375 253.335938 193.410156 C 253.714844 193.332031 254.082031 193.222656 254.4375 193.074219 C 254.792969 192.925781 255.128906 192.746094 255.449219 192.53125 C 255.769531 192.320312 256.066406 192.074219 256.339844 191.804688 C 256.613281 191.53125 256.855469 191.234375 257.070312 190.914062 C 257.28125 190.59375 257.464844 190.253906 257.609375 189.898438 C 257.757812 189.542969 257.871094 189.175781 257.945312 188.800781 C 258.019531 188.421875 258.058594 188.039062 258.058594 187.65625 C 258.058594 186.503906 258.03125 185.351562 257.972656 184.199219 C 257.917969 183.050781 257.832031 181.902344 257.71875 180.753906 C 257.605469 179.605469 257.464844 178.464844 257.296875 177.324219 C 257.125 176.183594 256.929688 175.050781 256.707031 173.917969 C 256.480469 172.789062 256.226562 171.664062 255.949219 170.546875 C 255.667969 169.429688 255.359375 168.320312 255.027344 167.21875 C 254.691406 166.113281 254.332031 165.019531 253.941406 163.9375 C 253.554688 162.851562 253.140625 161.777344 252.699219 160.710938 C 252.257812 159.648438 251.792969 158.59375 251.296875 157.554688 C 250.804688 156.511719 250.289062 155.484375 249.746094 154.464844 C 249.203125 153.449219 248.632812 152.449219 248.042969 151.460938 C 247.449219 150.472656 246.832031 149.5 246.191406 148.539062 C 245.550781 147.582031 244.890625 146.640625 244.203125 145.714844 C 243.515625 144.789062 242.808594 143.882812 242.078125 142.992188 C 241.347656 142.101562 240.59375 141.226562 239.820312 140.375 C 239.046875 139.519531 238.253906 138.6875 237.4375 137.871094 C 236.621094 137.058594 235.789062 136.261719 234.933594 135.488281 C 234.082031 134.714844 233.207031 133.964844 232.316406 133.230469 C 231.425781 132.5 230.519531 131.792969 229.59375 131.105469 C 228.667969 130.417969 227.726562 129.757812 226.769531 129.117188 C 225.808594 128.476562 224.835938 127.859375 223.847656 127.269531 C 222.859375 126.675781 221.859375 126.109375 220.84375 125.566406 C 219.828125 125.019531 218.796875 124.503906 217.757812 124.011719 C 216.714844 123.519531 215.660156 123.050781 214.597656 122.609375 C 213.53125 122.167969 212.457031 121.753906 211.371094 121.367188 C 210.289062 120.980469 209.195312 120.617188 208.089844 120.28125 C 206.988281 119.949219 205.878906 119.640625 204.761719 119.359375 C 203.644531 119.082031 202.519531 118.828125 201.390625 118.605469 C 200.257812 118.378906 199.125 118.183594 197.984375 118.011719 C 196.84375 117.84375 195.703125 117.703125 194.554688 117.589844 C 193.410156 117.476562 192.261719 117.394531 191.109375 117.335938 C 189.957031 117.28125 188.808594 117.25 187.65625 117.25 C 187.269531 117.25 186.886719 117.289062 186.511719 117.363281 C 186.132812 117.4375 185.765625 117.550781 185.410156 117.699219 C 185.054688 117.84375 184.714844 118.027344 184.394531 118.238281 C 184.074219 118.453125 183.777344 118.699219 183.507812 118.96875 C 183.234375 119.242188 182.992188 119.539062 182.777344 119.859375 C 182.5625 120.179688 182.382812 120.515625 182.234375 120.875 C 182.085938 121.230469 181.976562 121.597656 181.902344 121.972656 C 181.824219 122.351562 181.789062 122.734375 181.789062 123.117188 C 181.789062 123.503906 181.824219 123.886719 181.902344 124.261719 C 181.976562 124.640625 182.085938 125.007812 182.234375 125.363281 C 182.382812 125.71875 182.5625 126.058594 182.777344 126.378906 C 182.992188 126.699219 183.234375 126.996094 183.507812 127.265625 C 183.777344 127.539062 184.074219 127.78125 184.394531 127.996094 C 184.714844 128.210938 185.054688 128.390625 185.410156 128.539062 C 185.765625 128.6875 186.132812 128.796875 186.511719 128.871094 C 186.886719 128.949219 187.269531 128.984375 187.65625 128.984375 Z M 187.65625 128.984375 " fill-opacity="1" fill-rule="nonzero"/><g fill="currentColor" fill-opacity="1"><g transform="translate(172.2141, 121.861852)"><g><path d="M 1.625 0.140625 C 1.375 0.140625 1.191406 0.078125 1.078125 -0.046875 C 0.960938 -0.171875 0.90625 -0.335938 0.90625 -0.546875 L 0.90625 -0.703125 C 0.90625 -0.910156 0.960938 -1.078125 1.078125 -1.203125 C 1.191406 -1.335938 1.375 -1.40625 1.625 -1.40625 C 1.882812 -1.40625 2.070312 -1.335938 2.1875 -1.203125 C 2.300781 -1.078125 2.359375 -0.910156 2.359375 -0.703125 L 2.359375 -0.546875 C 2.359375 -0.335938 2.300781 -0.171875 2.1875 -0.046875 C 2.070312 0.078125 1.882812 0.140625 1.625 0.140625 Z M 1.625 0.140625 "/></g></g></g></svg>