<svg xmlns="http://www.w3.org/2000/svg" xmlns:xlink="http://www.w3.org/1999/xlink" width="500" zoomAndPan="magnify" viewBox="0 0 375 374.999991" height="500" preserveAspectRatio="xMidYMid meet" version="1.0"><defs><g/><clipPath id="037c4ff798"><path d="M 74 222 L 338 222 L 338 366.792969 L 74 366.792969 Z M 74 222 " clip-rule="nonzero"/></clipPath><clipPath id="776674df6d"><path d="M 250 18 L 350.449219 18 L 350.449219 154 L 250 154 Z M 250 18 " clip-rule="nonzero"/></clipPath><clipPath id="25788a4127"><path d="M 87 8.292969 L 157 8.292969 L 157 169 L 87 169 Z M 87 8.292969 " clip-rule="nonzero"/></clipPath><clipPath id="20c4cfe43a"><path d="M 24.199219 153 L 82 153 L 82 222 L 24.199219 222 Z M 24.199219 153 " clip-rule="nonzero"/></clipPath></defs><path fill="currentColor" d="M 206.214844 266.265625 C 154.523438 266.265625 99.578125 250.855469 99.578125 222.296875 C 99.578125 209.265625 111.734375 197.609375 133.796875 189.484375 L 138.121094 201.273438 C 121.84375 207.265625 112.125 215.125 112.125 222.296875 C 112.125 237.125 152.363281 253.703125 206.214844 253.703125 C 260.070312 253.703125 300.308594 237.125 300.308594 222.296875 C 300.308594 207.46875 260.070312 190.886719 206.214844 190.886719 L 206.214844 178.328125 C 257.910156 178.328125 312.851562 193.738281 312.851562 222.296875 C 312.851562 250.855469 257.910156 266.265625 206.214844 266.265625 Z M 206.214844 266.265625 " fill-opacity="1" fill-rule="nonzero"/><path fill="currentColor" d="M 146.105469 198.648438 L 142.566406 186.601562 C 146.042969 185.578125 149.695312 184.644531 153.5 183.789062 L 156.246094 196.042969 C 152.707031 196.832031 149.328125 197.703125 146.105469 198.648438 Z M 146.105469 198.648438 " fill-opacity="1" fill-rule="nonzero"/><g clip-path="url(#037c4ff798)"><path fill="currentColor" d="M 206.214844 366.769531 C 140.648438 366.769531 74.488281 322.097656 74.488281 222.304688 L 87.035156 222.304688 C 87.035156 313.425781 146.894531 354.207031 206.214844 354.207031 C 265.535156 354.207031 325.398438 313.425781 325.398438 222.304688 L 337.941406 222.304688 C 337.941406 322.105469 271.785156 366.769531 206.214844 366.769531 Z M 206.214844 366.769531 " fill-opacity="1" fill-rule="nonzero"/></g><path fill="currentColor" d="M 271.085938 307.433594 L 247.433594 288.484375 C 234.230469 290.417969 220.378906 291.390625 206.214844 291.390625 C 140.648438 291.390625 74.488281 270.023438 74.488281 222.296875 C 74.488281 174.570312 140.648438 153.203125 206.214844 153.203125 C 271.785156 153.203125 337.941406 174.570312 337.941406 222.296875 C 337.941406 247.6875 319.644531 267.460938 284.988281 279.566406 L 271.082031 307.425781 Z M 250.960938 275.230469 L 266.796875 287.914062 L 276.085938 269.316406 L 278.558594 268.492188 C 299.921875 261.40625 325.398438 247.640625 325.398438 222.296875 C 325.398438 183.453125 263.617188 165.765625 206.214844 165.765625 C 148.8125 165.765625 87.035156 183.453125 87.035156 222.296875 C 87.035156 261.136719 148.8125 278.828125 206.214844 278.828125 C 220.71875 278.828125 234.855469 277.761719 248.234375 275.660156 L 250.96875 275.230469 Z M 250.960938 275.230469 " fill-opacity="1" fill-rule="nonzero"/><g clip-path="url(#776674df6d)"><path fill="currentColor" d="M 300.308594 153.203125 C 272.640625 153.203125 250.128906 130.660156 250.128906 102.957031 C 250.128906 69.332031 294.003906 25.011719 295.871094 23.140625 L 300.308594 18.699219 L 304.742188 23.140625 C 306.609375 25.011719 350.488281 69.339844 350.488281 102.957031 C 350.488281 130.660156 327.972656 153.203125 300.308594 153.203125 Z M 300.308594 36.671875 C 286.769531 51.386719 262.671875 81.941406 262.671875 102.957031 C 262.671875 123.96875 279.554688 140.640625 300.308594 140.640625 C 321.058594 140.640625 337.941406 123.734375 337.941406 102.957031 C 337.941406 82.175781 313.84375 51.386719 300.308594 36.671875 Z M 300.308594 36.671875 " fill-opacity="1" fill-rule="nonzero"/></g><path fill="currentColor" d="M 300.308594 128.078125 C 286.46875 128.078125 275.21875 116.8125 275.21875 102.957031 L 287.761719 102.957031 C 287.761719 109.878906 293.390625 115.515625 300.308594 115.515625 Z M 300.308594 128.078125 " fill-opacity="1" fill-rule="nonzero"/><g clip-path="url(#25788a4127)"><path fill="currentColor" d="M 147.484375 168.992188 L 135.414062 165.570312 C 140.777344 146.652344 143.492188 126.648438 143.492188 106.097656 C 143.492188 79.902344 138.976562 54.257812 130.382812 31.273438 C 111.648438 54.386719 100.820312 84.179688 99.683594 116.253906 L 87.152344 115.8125 C 88.515625 77.101562 102.972656 41.355469 127.839844 15.160156 L 134.34375 8.308594 L 138.128906 16.976562 C 149.84375 43.785156 156.042969 74.609375 156.042969 106.097656 C 156.042969 127.804688 153.164062 148.964844 147.488281 168.992188 Z M 147.484375 168.992188 " fill-opacity="1" fill-rule="nonzero"/></g><path fill="currentColor" d="M 88.742188 199.152344 C 52.863281 177.707031 30.578125 138.441406 30.578125 96.679688 C 30.578125 89.96875 31.21875 83.109375 32.53125 75.714844 L 33.78125 68.613281 L 40.636719 70.84375 C 85.28125 85.351562 117.898438 126.25 123.738281 175.039062 L 111.277344 176.535156 C 106.332031 135.207031 80.171875 100.191406 43.789062 85.363281 C 43.34375 89.25 43.128906 93 43.128906 96.679688 C 43.128906 134.613281 62.585938 168.882812 95.183594 188.367188 L 88.75 199.152344 Z M 88.742188 199.152344 " fill-opacity="1" fill-rule="nonzero"/><g clip-path="url(#20c4cfe43a)"><path fill="currentColor" d="M 80.628906 221.976562 C 49.851562 218.847656 26.226562 194.070312 24.472656 163.074219 L 24.207031 158.355469 L 28.660156 156.796875 C 37.878906 153.554688 47.691406 152.5625 56.929688 153.660156 L 55.421875 166.136719 C 49.582031 165.414062 43.4375 165.765625 37.5 167.242188 C 40.9375 189.71875 58.917969 207.148438 81.886719 209.480469 L 80.628906 221.984375 Z M 80.628906 221.976562 " fill-opacity="1" fill-rule="nonzero"/></g><g fill="currentColor" fill-opacity="1"><g transform="translate(292.148981, 122.404547)"><g><path d="M 1.625 0.140625 C 1.375 0.140625 1.191406 0.078125 1.078125 -0.046875 C 0.960938 -0.171875 0.90625 -0.335938 0.90625 -0.546875 L 0.90625 -0.703125 C 0.90625 -0.910156 0.960938 -1.078125 1.078125 -1.203125 C 1.191406 -1.335938 1.375 -1.40625 1.625 -1.40625 C 1.882812 -1.40625 2.070312 -1.335938 2.1875 -1.203125 C 2.300781 -1.078125 2.359375 -0.910156 2.359375 -0.703125 L 2.359375 -0.546875 C 2.359375 -0.335938 2.300781 -0.171875 2.1875 -0.046875 C 2.070312 0.078125 1.882812 0.140625 1.625 0.140625 Z M 1.625 0.140625 "/></g></g></g></svg>